midi.Pattern(format=1, resolution=216, tracks=\
[midi.Track(\
  [midi.TimeSignatureEvent(tick=0, data=[4, 2, 24, 8]),
   midi.KeySignatureEvent(tick=0, data=[1, 0]),
   midi.SetTempoEvent(tick=0, data=[12, 53, 0]),
   midi.MarkerEvent(tick=864, text='Intro Acous', data=[73, 110, 116, 114, 111, 32, 65, 99, 111, 117, 115]),
   midi.MarkerEvent(tick=10368, text='Intro Elect', data=[73, 110, 116, 114, 111, 32, 69, 108, 101, 99, 116]),
   midi.SetTempoEvent(tick=7776, data=[4, 177, 236]),
   midi.MarkerEvent(tick=0, text='N.C. Fast', data=[78, 46, 67, 46, 32, 70, 97, 115, 116]),
   midi.MarkerEvent(tick=16416, text='Verse 1', data=[86, 101, 114, 115, 101, 32, 49]),
   midi.MarkerEvent(tick=6912, text='Chorus', data=[67, 104, 111, 114, 117, 115]),
   midi.TimeSignatureEvent(tick=13824, data=[5, 2, 24, 8]),
   midi.TimeSignatureEvent(tick=1080, data=[4, 2, 24, 8]),
   midi.MarkerEvent(tick=6048, text='Verse 2', data=[86, 101, 114, 115, 101, 32, 50]),
   midi.MarkerEvent(tick=6912, text='Chorus', data=[67, 104, 111, 114, 117, 115]),
   midi.SetTempoEvent(tick=8640, data=[4, 177, 236]),
   midi.TimeSignatureEvent(tick=5184, data=[5, 2, 24, 8]),
   midi.TimeSignatureEvent(tick=1080, data=[4, 2, 24, 8]),
   midi.MarkerEvent(tick=5184, text='Interlude', data=[73, 110, 116, 101, 114, 108, 117, 100, 101]),
   midi.MarkerEvent(tick=21600, text='Solo', data=[83, 111, 108, 111]),
   midi.TimeSignatureEvent(tick=28512, data=[7, 3, 12, 8]),
   midi.TimeSignatureEvent(tick=756, data=[4, 2, 24, 8]),
   midi.MarkerEvent(tick=0, text='Verse 3', data=[86, 101, 114, 115, 101, 32, 51]),
   midi.MarkerEvent(tick=6912, text='Chorus', data=[67, 104, 111, 114, 117, 115]),
   midi.TimeSignatureEvent(tick=13824, data=[5, 2, 24, 8]),
   midi.TimeSignatureEvent(tick=1080, data=[4, 2, 24, 8]),
   midi.TimeSignatureEvent(tick=2592, data=[2, 2, 24, 8]),
   midi.TimeSignatureEvent(tick=432, data=[4, 2, 24, 8]),
   midi.TimeSignatureEvent(tick=1728, data=[5, 2, 24, 8]),
   midi.TimeSignatureEvent(tick=1080, data=[4, 2, 24, 8]),
   midi.EndOfTrackEvent(tick=0, data=[])]),
 midi.Track(\
  [midi.PortEvent(tick=0, data=[0]),
   midi.TrackNameEvent(tick=0, text='Acous Gtr 1', data=[65, 99, 111, 117, 115, 32, 71, 116, 114, 32, 49]),
   midi.ProgramChangeEvent(tick=0, channel=0, data=[25]),
   midi.ControlChangeEvent(tick=0, channel=0, data=[7, 100]),
   midi.ControlChangeEvent(tick=0, channel=0, data=[10, 60]),
   midi.ControlChangeEvent(tick=0, channel=0, data=[11, 100]),
   midi.ControlChangeEvent(tick=0, channel=0, data=[1, 0]),
   midi.PitchWheelEvent(tick=0, channel=0, data=[0, 64]),
   midi.NoteOnEvent(tick=864, channel=0, data=[47, 100]),
   midi.NoteOnEvent(tick=0, channel=0, data=[40, 100]),
   midi.NoteOnEvent(tick=18, channel=0, data=[53, 100]),
   midi.NoteOnEvent(tick=36, channel=0, data=[52, 100]),
   midi.NoteOnEvent(tick=35, channel=0, data=[53, 0]),
   midi.NoteOnEvent(tick=231, channel=0, data=[47, 0]),
   midi.NoteOnEvent(tick=0, channel=0, data=[40, 0]),
   midi.NoteOnEvent(tick=0, channel=0, data=[52, 0]),
   midi.NoteOnEvent(tick=4, channel=0, data=[45, 100]),
   midi.NoteOnEvent(tick=0, channel=0, data=[41, 100]),
   midi.NoteOnEvent(tick=18, channel=0, data=[52, 100]),
   midi.NoteOnEvent(tick=518, channel=0, data=[41, 0]),
   midi.NoteOnEvent(tick=3, channel=0, data=[45, 0]),
   midi.NoteOnEvent(tick=1, channel=0, data=[45, 100]),
   midi.NoteOnEvent(tick=0, channel=0, data=[42, 100]),
   midi.NoteOnEvent(tick=14, channel=0, data=[52, 0]),
   midi.NoteOnEvent(tick=13, channel=0, data=[52, 100]),
   midi.NoteOnEvent(tick=189, channel=0, data=[50, 100]),
   midi.NoteOnEvent(tick=104, channel=0, data=[52, 0]),
   midi.NoteOnEvent(tick=0, channel=0, data=[45, 0]),
   midi.NoteOnEvent(tick=0, channel=0, data=[42, 0]),
   midi.NoteOnEvent(tick=4, channel=0, data=[50, 0]),
   midi.NoteOnEvent(tick=0, channel=0, data=[43, 100]),
   midi.NoteOnEvent(tick=0, channel=0, data=[50, 100]),
   midi.NoteOnEvent(tick=18, channel=0, data=[55, 100]),
   midi.NoteOnEvent(tick=509, channel=0, data=[55, 0]),
   midi.NoteOnEvent(tick=9, channel=0, data=[50, 0]),
   midi.NoteOnEvent(tick=0, channel=0, data=[43, 0]),
   midi.NoteOnEvent(tick=4, channel=0, data=[47, 100]),
   midi.NoteOnEvent(tick=0, channel=0, data=[40, 100]),
   midi.NoteOnEvent(tick=18, channel=0, data=[53, 100]),
   midi.NoteOnEvent(tick=36, channel=0, data=[52, 100]),
   midi.NoteOnEvent(tick=35, channel=0, data=[53, 0]),
   midi.NoteOnEvent(tick=231, channel=0, data=[47, 0]),
   midi.NoteOnEvent(tick=0, channel=0, data=[40, 0]),
   midi.NoteOnEvent(tick=0, channel=0, data=[52, 0]),
   midi.NoteOnEvent(tick=4, channel=0, data=[45, 100]),
   midi.NoteOnEvent(tick=0, channel=0, data=[41, 100]),
   midi.NoteOnEvent(tick=18, channel=0, data=[52, 100]),
   midi.NoteOnEvent(tick=518, channel=0, data=[41, 0]),
   midi.NoteOnEvent(tick=3, channel=0, data=[45, 0]),
   midi.NoteOnEvent(tick=1, channel=0, data=[45, 100]),
   midi.NoteOnEvent(tick=0, channel=0, data=[42, 100]),
   midi.NoteOnEvent(tick=14, channel=0, data=[52, 0]),
   midi.NoteOnEvent(tick=13, channel=0, data=[52, 100]),
   midi.NoteOnEvent(tick=189, channel=0, data=[50, 100]),
   midi.NoteOnEvent(tick=104, channel=0, data=[52, 0]),
   midi.NoteOnEvent(tick=0, channel=0, data=[45, 0]),
   midi.NoteOnEvent(tick=0, channel=0, data=[42, 0]),
   midi.NoteOnEvent(tick=4, channel=0, data=[50, 0]),
   midi.NoteOnEvent(tick=0, channel=0, data=[43, 100]),
   midi.NoteOnEvent(tick=0, channel=0, data=[50, 100]),
   midi.NoteOnEvent(tick=18, channel=0, data=[55, 100]),
   midi.NoteOnEvent(tick=509, channel=0, data=[55, 0]),
   midi.NoteOnEvent(tick=9, channel=0, data=[50, 0]),
   midi.NoteOnEvent(tick=0, channel=0, data=[43, 0]),
   midi.NoteOnEvent(tick=4, channel=0, data=[47, 100]),
   midi.NoteOnEvent(tick=0, channel=0, data=[40, 100]),
   midi.NoteOnEvent(tick=18, channel=0, data=[53, 100]),
   midi.NoteOnEvent(tick=36, channel=0, data=[52, 100]),
   midi.NoteOnEvent(tick=35, channel=0, data=[53, 0]),
   midi.NoteOnEvent(tick=231, channel=0, data=[47, 0]),
   midi.NoteOnEvent(tick=0, channel=0, data=[40, 0]),
   midi.NoteOnEvent(tick=0, channel=0, data=[52, 0]),
   midi.NoteOnEvent(tick=4, channel=0, data=[45, 100]),
   midi.NoteOnEvent(tick=0, channel=0, data=[41, 100]),
   midi.NoteOnEvent(tick=18, channel=0, data=[52, 100]),
   midi.NoteOnEvent(tick=518, channel=0, data=[41, 0]),
   midi.NoteOnEvent(tick=3, channel=0, data=[45, 0]),
   midi.NoteOnEvent(tick=1, channel=0, data=[45, 100]),
   midi.NoteOnEvent(tick=0, channel=0, data=[42, 100]),
   midi.NoteOnEvent(tick=14, channel=0, data=[52, 0]),
   midi.NoteOnEvent(tick=13, channel=0, data=[52, 100]),
   midi.NoteOnEvent(tick=189, channel=0, data=[50, 100]),
   midi.NoteOnEvent(tick=104, channel=0, data=[52, 0]),
   midi.NoteOnEvent(tick=0, channel=0, data=[45, 0]),
   midi.NoteOnEvent(tick=0, channel=0, data=[42, 0]),
   midi.NoteOnEvent(tick=4, channel=0, data=[50, 0]),
   midi.NoteOnEvent(tick=0, channel=0, data=[43, 100]),
   midi.NoteOnEvent(tick=0, channel=0, data=[50, 100]),
   midi.NoteOnEvent(tick=18, channel=0, data=[55, 100]),
   midi.NoteOnEvent(tick=509, channel=0, data=[55, 0]),
   midi.NoteOnEvent(tick=9, channel=0, data=[50, 0]),
   midi.NoteOnEvent(tick=0, channel=0, data=[43, 0]),
   midi.NoteOnEvent(tick=4, channel=0, data=[47, 100]),
   midi.NoteOnEvent(tick=0, channel=0, data=[40, 100]),
   midi.NoteOnEvent(tick=18, channel=0, data=[53, 100]),
   midi.NoteOnEvent(tick=36, channel=0, data=[52, 100]),
   midi.NoteOnEvent(tick=35, channel=0, data=[53, 0]),
   midi.NoteOnEvent(tick=231, channel=0, data=[47, 0]),
   midi.NoteOnEvent(tick=0, channel=0, data=[40, 0]),
   midi.NoteOnEvent(tick=0, channel=0, data=[52, 0]),
   midi.NoteOnEvent(tick=4, channel=0, data=[45, 100]),
   midi.NoteOnEvent(tick=0, channel=0, data=[41, 100]),
   midi.NoteOnEvent(tick=18, channel=0, data=[52, 100]),
   midi.NoteOnEvent(tick=518, channel=0, data=[41, 0]),
   midi.NoteOnEvent(tick=3, channel=0, data=[45, 0]),
   midi.NoteOnEvent(tick=1, channel=0, data=[45, 100]),
   midi.NoteOnEvent(tick=0, channel=0, data=[42, 100]),
   midi.NoteOnEvent(tick=14, channel=0, data=[52, 0]),
   midi.NoteOnEvent(tick=13, channel=0, data=[52, 100]),
   midi.NoteOnEvent(tick=189, channel=0, data=[50, 100]),
   midi.NoteOnEvent(tick=104, channel=0, data=[52, 0]),
   midi.NoteOnEvent(tick=0, channel=0, data=[45, 0]),
   midi.NoteOnEvent(tick=0, channel=0, data=[42, 0]),
   midi.NoteOnEvent(tick=4, channel=0, data=[50, 0]),
   midi.NoteOnEvent(tick=0, channel=0, data=[43, 100]),
   midi.NoteOnEvent(tick=0, channel=0, data=[50, 100]),
   midi.NoteOnEvent(tick=18, channel=0, data=[55, 100]),
   midi.NoteOnEvent(tick=509, channel=0, data=[55, 0]),
   midi.NoteOnEvent(tick=9, channel=0, data=[50, 0]),
   midi.NoteOnEvent(tick=0, channel=0, data=[43, 0]),
   midi.NoteOnEvent(tick=4, channel=0, data=[47, 100]),
   midi.NoteOnEvent(tick=0, channel=0, data=[40, 100]),
   midi.NoteOnEvent(tick=18, channel=0, data=[53, 100]),
   midi.NoteOnEvent(tick=36, channel=0, data=[52, 100]),
   midi.NoteOnEvent(tick=35, channel=0, data=[53, 0]),
   midi.NoteOnEvent(tick=231, channel=0, data=[47, 0]),
   midi.NoteOnEvent(tick=0, channel=0, data=[40, 0]),
   midi.NoteOnEvent(tick=0, channel=0, data=[52, 0]),
   midi.NoteOnEvent(tick=4, channel=0, data=[45, 100]),
   midi.NoteOnEvent(tick=0, channel=0, data=[41, 100]),
   midi.NoteOnEvent(tick=18, channel=0, data=[52, 100]),
   midi.NoteOnEvent(tick=518, channel=0, data=[41, 0]),
   midi.NoteOnEvent(tick=3, channel=0, data=[45, 0]),
   midi.NoteOnEvent(tick=1, channel=0, data=[45, 100]),
   midi.NoteOnEvent(tick=0, channel=0, data=[42, 100]),
   midi.NoteOnEvent(tick=14, channel=0, data=[52, 0]),
   midi.NoteOnEvent(tick=13, channel=0, data=[52, 100]),
   midi.NoteOnEvent(tick=189, channel=0, data=[50, 100]),
   midi.NoteOnEvent(tick=104, channel=0, data=[52, 0]),
   midi.NoteOnEvent(tick=0, channel=0, data=[45, 0]),
   midi.NoteOnEvent(tick=0, channel=0, data=[42, 0]),
   midi.NoteOnEvent(tick=4, channel=0, data=[50, 0]),
   midi.NoteOnEvent(tick=0, channel=0, data=[43, 100]),
   midi.NoteOnEvent(tick=0, channel=0, data=[50, 100]),
   midi.NoteOnEvent(tick=18, channel=0, data=[55, 100]),
   midi.NoteOnEvent(tick=509, channel=0, data=[55, 0]),
   midi.NoteOnEvent(tick=9, channel=0, data=[50, 0]),
   midi.NoteOnEvent(tick=0, channel=0, data=[43, 0]),
   midi.NoteOnEvent(tick=4, channel=0, data=[47, 100]),
   midi.NoteOnEvent(tick=0, channel=0, data=[40, 100]),
   midi.NoteOnEvent(tick=18, channel=0, data=[53, 100]),
   midi.NoteOnEvent(tick=36, channel=0, data=[52, 100]),
   midi.NoteOnEvent(tick=35, channel=0, data=[53, 0]),
   midi.NoteOnEvent(tick=231, channel=0, data=[47, 0]),
   midi.NoteOnEvent(tick=0, channel=0, data=[40, 0]),
   midi.NoteOnEvent(tick=0, channel=0, data=[52, 0]),
   midi.NoteOnEvent(tick=4, channel=0, data=[45, 100]),
   midi.NoteOnEvent(tick=0, channel=0, data=[41, 100]),
   midi.NoteOnEvent(tick=18, channel=0, data=[52, 100]),
   midi.NoteOnEvent(tick=518, channel=0, data=[41, 0]),
   midi.NoteOnEvent(tick=3, channel=0, data=[45, 0]),
   midi.NoteOnEvent(tick=1, channel=0, data=[45, 100]),
   midi.NoteOnEvent(tick=0, channel=0, data=[42, 100]),
   midi.NoteOnEvent(tick=14, channel=0, data=[52, 0]),
   midi.NoteOnEvent(tick=13, channel=0, data=[52, 100]),
   midi.NoteOnEvent(tick=189, channel=0, data=[50, 100]),
   midi.NoteOnEvent(tick=104, channel=0, data=[52, 0]),
   midi.NoteOnEvent(tick=0, channel=0, data=[45, 0]),
   midi.NoteOnEvent(tick=0, channel=0, data=[42, 0]),
   midi.NoteOnEvent(tick=4, channel=0, data=[50, 0]),
   midi.NoteOnEvent(tick=0, channel=0, data=[43, 100]),
   midi.NoteOnEvent(tick=0, channel=0, data=[50, 100]),
   midi.NoteOnEvent(tick=18, channel=0, data=[55, 100]),
   midi.NoteOnEvent(tick=509, channel=0, data=[55, 0]),
   midi.NoteOnEvent(tick=9, channel=0, data=[50, 0]),
   midi.NoteOnEvent(tick=0, channel=0, data=[43, 0]),
   midi.EndOfTrackEvent(tick=0, data=[])]),
 midi.Track(\
  [midi.PortEvent(tick=0, data=[0]),
   midi.TrackNameEvent(tick=0, text='Acous Gtr 2&3', data=[65, 99, 111, 117, 115, 32, 71, 116, 114, 32, 50, 38, 51]),
   midi.ProgramChangeEvent(tick=0, channel=1, data=[25]),
   midi.ControlChangeEvent(tick=0, channel=1, data=[7, 100]),
   midi.ControlChangeEvent(tick=0, channel=1, data=[10, 40]),
   midi.ControlChangeEvent(tick=0, channel=1, data=[11, 100]),
   midi.ControlChangeEvent(tick=0, channel=1, data=[1, 0]),
   midi.PitchWheelEvent(tick=0, channel=1, data=[0, 64]),
   midi.NoteOnEvent(tick=4392, channel=1, data=[55, 100]),
   midi.NoteOnEvent(tick=16, channel=1, data=[55, 0]),
   midi.NoteOnEvent(tick=2, channel=1, data=[59, 100]),
   midi.NoteOnEvent(tick=16, channel=1, data=[59, 0]),
   midi.NoteOnEvent(tick=2, channel=1, data=[59, 100]),
   midi.NoteOnEvent(tick=0, channel=1, data=[62, 100]),
   midi.NoteOnEvent(tick=54, channel=1, data=[62, 0]),
   midi.NoteOnEvent(tick=0, channel=1, data=[59, 0]),
   midi.NoteOnEvent(tick=0, channel=1, data=[60, 100]),
   midi.NoteOnEvent(tick=0, channel=1, data=[64, 100]),
   midi.NoteOnEvent(tick=54, channel=1, data=[64, 0]),
   midi.NoteOnEvent(tick=0, channel=1, data=[60, 0]),
   midi.NoteOnEvent(tick=0, channel=1, data=[57, 100]),
   midi.NoteOnEvent(tick=0, channel=1, data=[60, 100]),
   midi.NoteOnEvent(tick=216, channel=1, data=[60, 0]),
   midi.NoteOnEvent(tick=0, channel=1, data=[57, 0]),
   midi.NoteOnEvent(tick=0, channel=1, data=[59, 100]),
   midi.NoteOnEvent(tick=0, channel=1, data=[62, 100]),
   midi.NoteOnEvent(tick=162, channel=1, data=[62, 0]),
   midi.NoteOnEvent(tick=0, channel=1, data=[59, 0]),
   midi.NoteOnEvent(tick=0, channel=1, data=[60, 100]),
   midi.NoteOnEvent(tick=0, channel=1, data=[64, 100]),
   midi.NoteOnEvent(tick=54, channel=1, data=[64, 0]),
   midi.NoteOnEvent(tick=0, channel=1, data=[60, 0]),
   midi.NoteOnEvent(tick=0, channel=1, data=[57, 100]),
   midi.NoteOnEvent(tick=0, channel=1, data=[60, 100]),
   midi.ControlChangeEvent(tick=23, channel=1, data=[1, 64]),
   midi.NoteOnEvent(tick=265, channel=1, data=[55, 100]),
   midi.NoteOnEvent(tick=16, channel=1, data=[55, 0]),
   midi.NoteOnEvent(tick=2, channel=1, data=[59, 100]),
   midi.ControlChangeEvent(tick=12, channel=1, data=[1, 0]),
   midi.NoteOnEvent(tick=2, channel=1, data=[60, 0]),
   midi.NoteOnEvent(tick=0, channel=1, data=[57, 0]),
   midi.NoteOnEvent(tick=2, channel=1, data=[59, 0]),
   midi.NoteOnEvent(tick=2, channel=1, data=[59, 100]),
   midi.NoteOnEvent(tick=0, channel=1, data=[62, 100]),
   midi.NoteOnEvent(tick=54, channel=1, data=[62, 0]),
   midi.NoteOnEvent(tick=0, channel=1, data=[59, 0]),
   midi.NoteOnEvent(tick=0, channel=1, data=[60, 100]),
   midi.NoteOnEvent(tick=0, channel=1, data=[64, 100]),
   midi.NoteOnEvent(tick=54, channel=1, data=[64, 0]),
   midi.NoteOnEvent(tick=0, channel=1, data=[60, 0]),
   midi.NoteOnEvent(tick=0, channel=1, data=[57, 100]),
   midi.NoteOnEvent(tick=0, channel=1, data=[60, 100]),
   midi.NoteOnEvent(tick=108, channel=1, data=[60, 0]),
   midi.NoteOnEvent(tick=0, channel=1, data=[57, 0]),
   midi.NoteOnEvent(tick=0, channel=1, data=[55, 100]),
   midi.NoteOnEvent(tick=0, channel=1, data=[59, 100]),
   midi.NoteOnEvent(tick=212, channel=1, data=[59, 0]),
   midi.NoteOnEvent(tick=0, channel=1, data=[55, 0]),
   midi.NoteOnEvent(tick=4, channel=1, data=[64, 100]),
   midi.NoteOnEvent(tick=0, channel=1, data=[60, 100]),
   midi.NoteOnEvent(tick=104, channel=1, data=[64, 0]),
   midi.NoteOnEvent(tick=4, channel=1, data=[60, 0]),
   midi.NoteOnEvent(tick=0, channel=1, data=[59, 100]),
   midi.NoteOnEvent(tick=0, channel=1, data=[62, 100]),
   midi.ControlChangeEvent(tick=18, channel=1, data=[1, 63]),
   midi.NoteOnEvent(tick=250, channel=1, data=[59, 0]),
   midi.NoteOnEvent(tick=20, channel=1, data=[55, 100]),
   midi.ControlChangeEvent(tick=0, channel=1, data=[1, 0]),
   midi.NoteOnEvent(tick=16, channel=1, data=[55, 0]),
   midi.NoteOnEvent(tick=2, channel=1, data=[59, 100]),
   midi.NoteOnEvent(tick=14, channel=1, data=[62, 0]),
   midi.NoteOnEvent(tick=2, channel=1, data=[59, 0]),
   midi.NoteOnEvent(tick=2, channel=1, data=[59, 100]),
   midi.NoteOnEvent(tick=0, channel=1, data=[62, 100]),
   midi.NoteOnEvent(tick=54, channel=1, data=[62, 0]),
   midi.NoteOnEvent(tick=0, channel=1, data=[59, 0]),
   midi.NoteOnEvent(tick=0, channel=1, data=[64, 100]),
   midi.NoteOnEvent(tick=0, channel=1, data=[60, 100]),
   midi.NoteOnEvent(tick=54, channel=1, data=[60, 0]),
   midi.NoteOnEvent(tick=0, channel=1, data=[64, 0]),
   midi.NoteOnEvent(tick=0, channel=1, data=[60, 100]),
   midi.NoteOnEvent(tick=0, channel=1, data=[57, 100]),
   midi.NoteOnEvent(tick=216, channel=1, data=[57, 0]),
   midi.NoteOnEvent(tick=0, channel=1, data=[60, 0]),
   midi.NoteOnEvent(tick=0, channel=1, data=[62, 100]),
   midi.NoteOnEvent(tick=0, channel=1, data=[59, 100]),
   midi.NoteOnEvent(tick=162, channel=1, data=[59, 0]),
   midi.NoteOnEvent(tick=0, channel=1, data=[62, 0]),
   midi.NoteOnEvent(tick=0, channel=1, data=[64, 100]),
   midi.NoteOnEvent(tick=0, channel=1, data=[60, 100]),
   midi.NoteOnEvent(tick=27, channel=1, data=[60, 0]),
   midi.NoteOnEvent(tick=0, channel=1, data=[64, 0]),
   midi.NoteOnEvent(tick=0, channel=1, data=[62, 100]),
   midi.NoteOnEvent(tick=0, channel=1, data=[59, 100]),
   midi.NoteOnEvent(tick=27, channel=1, data=[59, 0]),
   midi.NoteOnEvent(tick=0, channel=1, data=[62, 0]),
   midi.NoteOnEvent(tick=0, channel=1, data=[57, 100]),
   midi.NoteOnEvent(tick=0, channel=1, data=[60, 100]),
   midi.ControlChangeEvent(tick=30, channel=1, data=[1, 62]),
   midi.NoteOnEvent(tick=186, channel=1, data=[60, 0]),
   midi.NoteOnEvent(tick=0, channel=1, data=[57, 0]),
   midi.NoteOnEvent(tick=72, channel=1, data=[54, 100]),
   midi.NoteOnEvent(tick=16, channel=1, data=[54, 0]),
   midi.NoteOnEvent(tick=2, channel=1, data=[59, 100]),
   midi.NoteOnEvent(tick=16, channel=1, data=[59, 0]),
   midi.NoteOnEvent(tick=2, channel=1, data=[62, 100]),
   midi.NoteOnEvent(tick=0, channel=1, data=[59, 100]),
   midi.ControlChangeEvent(tick=1, channel=1, data=[1, 0]),
   midi.NoteOnEvent(tick=53, channel=1, data=[59, 0]),
   midi.NoteOnEvent(tick=0, channel=1, data=[62, 0]),
   midi.NoteOnEvent(tick=0, channel=1, data=[60, 100]),
   midi.NoteOnEvent(tick=0, channel=1, data=[64, 100]),
   midi.NoteOnEvent(tick=54, channel=1, data=[64, 0]),
   midi.NoteOnEvent(tick=0, channel=1, data=[60, 0]),
   midi.NoteOnEvent(tick=0, channel=1, data=[57, 100]),
   midi.NoteOnEvent(tick=0, channel=1, data=[60, 100]),
   midi.NoteOnEvent(tick=108, channel=1, data=[60, 0]),
   midi.NoteOnEvent(tick=0, channel=1, data=[57, 0]),
   midi.NoteOnEvent(tick=0, channel=1, data=[55, 100]),
   midi.NoteOnEvent(tick=0, channel=1, data=[59, 100]),
   midi.NoteOnEvent(tick=212, channel=1, data=[59, 0]),
   midi.NoteOnEvent(tick=0, channel=1, data=[55, 0]),
   midi.NoteOnEvent(tick=4, channel=1, data=[60, 100]),
   midi.NoteOnEvent(tick=0, channel=1, data=[64, 100]),
   midi.NoteOnEvent(tick=108, channel=1, data=[64, 0]),
   midi.NoteOnEvent(tick=0, channel=1, data=[60, 0]),
   midi.NoteOnEvent(tick=0, channel=1, data=[59, 100]),
   midi.NoteOnEvent(tick=0, channel=1, data=[62, 100]),
   midi.ControlChangeEvent(tick=36, channel=1, data=[1, 63]),
   midi.NoteOnEvent(tick=180, channel=1, data=[62, 0]),
   midi.NoteOnEvent(tick=0, channel=1, data=[59, 0]),
   midi.NoteOnEvent(tick=72, channel=1, data=[55, 100]),
   midi.NoteOnEvent(tick=16, channel=1, data=[55, 0]),
   midi.NoteOnEvent(tick=2, channel=1, data=[59, 100]),
   midi.NoteOnEvent(tick=16, channel=1, data=[59, 0]),
   midi.NoteOnEvent(tick=2, channel=1, data=[59, 100]),
   midi.NoteOnEvent(tick=0, channel=1, data=[62, 100]),
   midi.ControlChangeEvent(tick=5, channel=1, data=[1, 0]),
   midi.NoteOnEvent(tick=49, channel=1, data=[62, 0]),
   midi.NoteOnEvent(tick=0, channel=1, data=[59, 0]),
   midi.NoteOnEvent(tick=0, channel=1, data=[60, 100]),
   midi.NoteOnEvent(tick=0, channel=1, data=[64, 100]),
   midi.NoteOnEvent(tick=54, channel=1, data=[64, 0]),
   midi.NoteOnEvent(tick=0, channel=1, data=[60, 0]),
   midi.NoteOnEvent(tick=0, channel=1, data=[57, 100]),
   midi.NoteOnEvent(tick=0, channel=1, data=[60, 100]),
   midi.NoteOnEvent(tick=216, channel=1, data=[60, 0]),
   midi.NoteOnEvent(tick=0, channel=1, data=[57, 0]),
   midi.NoteOnEvent(tick=0, channel=1, data=[59, 100]),
   midi.NoteOnEvent(tick=0, channel=1, data=[62, 100]),
   midi.NoteOnEvent(tick=162, channel=1, data=[62, 0]),
   midi.NoteOnEvent(tick=0, channel=1, data=[59, 0]),
   midi.NoteOnEvent(tick=0, channel=1, data=[60, 100]),
   midi.NoteOnEvent(tick=0, channel=1, data=[64, 100]),
   midi.NoteOnEvent(tick=54, channel=1, data=[64, 0]),
   midi.NoteOnEvent(tick=0, channel=1, data=[60, 0]),
   midi.NoteOnEvent(tick=0, channel=1, data=[57, 100]),
   midi.NoteOnEvent(tick=0, channel=1, data=[60, 100]),
   midi.ControlChangeEvent(tick=19, channel=1, data=[1, 62]),
   midi.NoteOnEvent(tick=269, channel=1, data=[55, 100]),
   midi.NoteOnEvent(tick=16, channel=1, data=[55, 0]),
   midi.NoteOnEvent(tick=2, channel=1, data=[59, 100]),
   midi.NoteOnEvent(tick=14, channel=1, data=[60, 0]),
   midi.NoteOnEvent(tick=0, channel=1, data=[57, 0]),
   midi.NoteOnEvent(tick=2, channel=1, data=[59, 0]),
   midi.NoteOnEvent(tick=2, channel=1, data=[59, 100]),
   midi.NoteOnEvent(tick=0, channel=1, data=[62, 100]),
   midi.ControlChangeEvent(tick=23, channel=1, data=[1, 0]),
   midi.NoteOnEvent(tick=31, channel=1, data=[62, 0]),
   midi.NoteOnEvent(tick=0, channel=1, data=[59, 0]),
   midi.NoteOnEvent(tick=0, channel=1, data=[60, 100]),
   midi.NoteOnEvent(tick=0, channel=1, data=[64, 100]),
   midi.NoteOnEvent(tick=54, channel=1, data=[64, 0]),
   midi.NoteOnEvent(tick=0, channel=1, data=[60, 0]),
   midi.NoteOnEvent(tick=0, channel=1, data=[57, 100]),
   midi.NoteOnEvent(tick=0, channel=1, data=[60, 100]),
   midi.NoteOnEvent(tick=108, channel=1, data=[60, 0]),
   midi.NoteOnEvent(tick=0, channel=1, data=[57, 0]),
   midi.NoteOnEvent(tick=0, channel=1, data=[55, 100]),
   midi.NoteOnEvent(tick=0, channel=1, data=[59, 100]),
   midi.NoteOnEvent(tick=212, channel=1, data=[59, 0]),
   midi.NoteOnEvent(tick=0, channel=1, data=[55, 0]),
   midi.NoteOnEvent(tick=4, channel=1, data=[64, 100]),
   midi.NoteOnEvent(tick=0, channel=1, data=[60, 100]),
   midi.NoteOnEvent(tick=104, channel=1, data=[64, 0]),
   midi.NoteOnEvent(tick=4, channel=1, data=[60, 0]),
   midi.NoteOnEvent(tick=0, channel=1, data=[59, 100]),
   midi.NoteOnEvent(tick=0, channel=1, data=[62, 100]),
   midi.ControlChangeEvent(tick=36, channel=1, data=[1, 61]),
   midi.NoteOnEvent(tick=232, channel=1, data=[59, 0]),
   midi.ControlChangeEvent(tick=14, channel=1, data=[1, 0]),
   midi.NoteOnEvent(tick=6, channel=1, data=[55, 100]),
   midi.NoteOnEvent(tick=16, channel=1, data=[55, 0]),
   midi.NoteOnEvent(tick=2, channel=1, data=[59, 100]),
   midi.NoteOnEvent(tick=14, channel=1, data=[62, 0]),
   midi.NoteOnEvent(tick=2, channel=1, data=[59, 0]),
   midi.NoteOnEvent(tick=2, channel=1, data=[59, 100]),
   midi.NoteOnEvent(tick=0, channel=1, data=[62, 100]),
   midi.NoteOnEvent(tick=54, channel=1, data=[62, 0]),
   midi.NoteOnEvent(tick=0, channel=1, data=[59, 0]),
   midi.NoteOnEvent(tick=0, channel=1, data=[64, 100]),
   midi.NoteOnEvent(tick=0, channel=1, data=[60, 100]),
   midi.NoteOnEvent(tick=54, channel=1, data=[60, 0]),
   midi.NoteOnEvent(tick=0, channel=1, data=[64, 0]),
   midi.NoteOnEvent(tick=0, channel=1, data=[60, 100]),
   midi.NoteOnEvent(tick=0, channel=1, data=[57, 100]),
   midi.NoteOnEvent(tick=216, channel=1, data=[57, 0]),
   midi.NoteOnEvent(tick=0, channel=1, data=[60, 0]),
   midi.NoteOnEvent(tick=0, channel=1, data=[62, 100]),
   midi.NoteOnEvent(tick=0, channel=1, data=[59, 100]),
   midi.NoteOnEvent(tick=162, channel=1, data=[59, 0]),
   midi.NoteOnEvent(tick=0, channel=1, data=[62, 0]),
   midi.NoteOnEvent(tick=0, channel=1, data=[64, 100]),
   midi.NoteOnEvent(tick=0, channel=1, data=[60, 100]),
   midi.NoteOnEvent(tick=27, channel=1, data=[60, 0]),
   midi.NoteOnEvent(tick=0, channel=1, data=[64, 0]),
   midi.NoteOnEvent(tick=0, channel=1, data=[62, 100]),
   midi.NoteOnEvent(tick=0, channel=1, data=[59, 100]),
   midi.NoteOnEvent(tick=27, channel=1, data=[59, 0]),
   midi.NoteOnEvent(tick=0, channel=1, data=[62, 0]),
   midi.NoteOnEvent(tick=0, channel=1, data=[57, 100]),
   midi.NoteOnEvent(tick=0, channel=1, data=[60, 100]),
   midi.ControlChangeEvent(tick=41, channel=1, data=[1, 62]),
   midi.NoteOnEvent(tick=175, channel=1, data=[60, 0]),
   midi.NoteOnEvent(tick=0, channel=1, data=[57, 0]),
   midi.ControlChangeEvent(tick=59, channel=1, data=[1, 0]),
   midi.NoteOnEvent(tick=13, channel=1, data=[55, 100]),
   midi.NoteOnEvent(tick=16, channel=1, data=[55, 0]),
   midi.NoteOnEvent(tick=2, channel=1, data=[59, 100]),
   midi.NoteOnEvent(tick=16, channel=1, data=[59, 0]),
   midi.NoteOnEvent(tick=2, channel=1, data=[62, 100]),
   midi.NoteOnEvent(tick=0, channel=1, data=[59, 100]),
   midi.NoteOnEvent(tick=54, channel=1, data=[59, 0]),
   midi.NoteOnEvent(tick=0, channel=1, data=[62, 0]),
   midi.NoteOnEvent(tick=0, channel=1, data=[60, 100]),
   midi.NoteOnEvent(tick=0, channel=1, data=[64, 100]),
   midi.NoteOnEvent(tick=54, channel=1, data=[64, 0]),
   midi.NoteOnEvent(tick=0, channel=1, data=[60, 0]),
   midi.NoteOnEvent(tick=0, channel=1, data=[57, 100]),
   midi.NoteOnEvent(tick=0, channel=1, data=[60, 100]),
   midi.NoteOnEvent(tick=108, channel=1, data=[60, 0]),
   midi.NoteOnEvent(tick=0, channel=1, data=[57, 0]),
   midi.NoteOnEvent(tick=0, channel=1, data=[55, 100]),
   midi.NoteOnEvent(tick=0, channel=1, data=[59, 100]),
   midi.NoteOnEvent(tick=212, channel=1, data=[59, 0]),
   midi.NoteOnEvent(tick=0, channel=1, data=[55, 0]),
   midi.NoteOnEvent(tick=4, channel=1, data=[60, 100]),
   midi.NoteOnEvent(tick=0, channel=1, data=[64, 100]),
   midi.NoteOnEvent(tick=108, channel=1, data=[64, 0]),
   midi.NoteOnEvent(tick=0, channel=1, data=[60, 0]),
   midi.NoteOnEvent(tick=0, channel=1, data=[59, 100]),
   midi.NoteOnEvent(tick=0, channel=1, data=[62, 100]),
   midi.ControlChangeEvent(tick=48, channel=1, data=[1, 63]),
   midi.ControlChangeEvent(tick=150, channel=1, data=[1, 0]),
   midi.NoteOnEvent(tick=18, channel=1, data=[62, 0]),
   midi.NoteOnEvent(tick=0, channel=1, data=[59, 0]),
   midi.EndOfTrackEvent(tick=0, data=[])]),
 midi.Track(\
  [midi.PortEvent(tick=0, data=[0]),
   midi.TrackNameEvent(tick=0, text='Acous Gtr 4', data=[65, 99, 111, 117, 115, 32, 71, 116, 114, 32, 52]),
   midi.ProgramChangeEvent(tick=0, channel=2, data=[25]),
   midi.ControlChangeEvent(tick=0, channel=2, data=[7, 100]),
   midi.ControlChangeEvent(tick=0, channel=2, data=[10, 80]),
   midi.ControlChangeEvent(tick=0, channel=2, data=[11, 100]),
   midi.ControlChangeEvent(tick=0, channel=2, data=[1, 0]),
   midi.PitchWheelEvent(tick=0, channel=2, data=[0, 64]),
   midi.NoteOnEvent(tick=7848, channel=2, data=[60, 100]),
   midi.NoteOnEvent(tick=18, channel=2, data=[62, 100]),
   midi.NoteOnEvent(tick=16, channel=2, data=[60, 0]),
   midi.NoteOnEvent(tick=2, channel=2, data=[67, 100]),
   midi.NoteOnEvent(tick=16, channel=2, data=[62, 0]),
   midi.NoteOnEvent(tick=38, channel=2, data=[67, 0]),
   midi.NoteOnEvent(tick=0, channel=2, data=[69, 100]),
   midi.NoteOnEvent(tick=54, channel=2, data=[69, 0]),
   midi.NoteOnEvent(tick=0, channel=2, data=[64, 100]),
   midi.ControlChangeEvent(tick=23, channel=2, data=[1, 61]),
   midi.ControlChangeEvent(tick=162, channel=2, data=[1, 0]),
   midi.NoteOnEvent(tick=31, channel=2, data=[64, 0]),
   midi.NoteOnEvent(tick=0, channel=2, data=[67, 100]),
   midi.NoteOnEvent(tick=162, channel=2, data=[67, 0]),
   midi.NoteOnEvent(tick=0, channel=2, data=[69, 100]),
   midi.NoteOnEvent(tick=54, channel=2, data=[69, 0]),
   midi.NoteOnEvent(tick=0, channel=2, data=[64, 100]),
   midi.ControlChangeEvent(tick=9, channel=2, data=[1, 62]),
   midi.NoteOnEvent(tick=207, channel=2, data=[64, 0]),
   midi.NoteOnEvent(tick=72, channel=2, data=[60, 100]),
   midi.ControlChangeEvent(tick=5, channel=2, data=[1, 0]),
   midi.NoteOnEvent(tick=13, channel=2, data=[62, 100]),
   midi.NoteOnEvent(tick=16, channel=2, data=[60, 0]),
   midi.NoteOnEvent(tick=2, channel=2, data=[67, 100]),
   midi.NoteOnEvent(tick=16, channel=2, data=[62, 0]),
   midi.NoteOnEvent(tick=38, channel=2, data=[67, 0]),
   midi.NoteOnEvent(tick=0, channel=2, data=[69, 100]),
   midi.NoteOnEvent(tick=54, channel=2, data=[69, 0]),
   midi.NoteOnEvent(tick=0, channel=2, data=[64, 100]),
   midi.NoteOnEvent(tick=108, channel=2, data=[64, 0]),
   midi.NoteOnEvent(tick=0, channel=2, data=[62, 100]),
   midi.ControlChangeEvent(tick=36, channel=2, data=[1, 63]),
   midi.ControlChangeEvent(tick=145, channel=2, data=[1, 0]),
   midi.NoteOnEvent(tick=31, channel=2, data=[62, 0]),
   midi.NoteOnEvent(tick=4, channel=2, data=[69, 100]),
   midi.NoteOnEvent(tick=108, channel=2, data=[69, 0]),
   midi.NoteOnEvent(tick=0, channel=2, data=[67, 100]),
   midi.ControlChangeEvent(tick=36, channel=2, data=[1, 64]),
   midi.NoteOnEvent(tick=252, channel=2, data=[60, 100]),
   midi.NoteOnEvent(tick=18, channel=2, data=[62, 100]),
   midi.NoteOnEvent(tick=14, channel=2, data=[67, 0]),
   midi.NoteOnEvent(tick=2, channel=2, data=[60, 0]),
   midi.NoteOnEvent(tick=2, channel=2, data=[67, 100]),
   midi.NoteOnEvent(tick=16, channel=2, data=[62, 0]),
   midi.NoteOnEvent(tick=38, channel=2, data=[67, 0]),
   midi.NoteOnEvent(tick=0, channel=2, data=[69, 100]),
   midi.NoteOnEvent(tick=54, channel=2, data=[69, 0]),
   midi.NoteOnEvent(tick=0, channel=2, data=[64, 100]),
   midi.ControlChangeEvent(tick=23, channel=2, data=[1, 61]),
   midi.ControlChangeEvent(tick=162, channel=2, data=[1, 0]),
   midi.NoteOnEvent(tick=31, channel=2, data=[64, 0]),
   midi.NoteOnEvent(tick=0, channel=2, data=[67, 100]),
   midi.NoteOnEvent(tick=162, channel=2, data=[67, 0]),
   midi.NoteOnEvent(tick=0, channel=2, data=[69, 100]),
   midi.NoteOnEvent(tick=54, channel=2, data=[69, 0]),
   midi.NoteOnEvent(tick=0, channel=2, data=[64, 100]),
   midi.ControlChangeEvent(tick=9, channel=2, data=[1, 62]),
   midi.NoteOnEvent(tick=207, channel=2, data=[64, 0]),
   midi.NoteOnEvent(tick=72, channel=2, data=[60, 100]),
   midi.ControlChangeEvent(tick=0, channel=2, data=[1, 0]),
   midi.NoteOnEvent(tick=18, channel=2, data=[62, 100]),
   midi.NoteOnEvent(tick=16, channel=2, data=[60, 0]),
   midi.NoteOnEvent(tick=2, channel=2, data=[67, 100]),
   midi.NoteOnEvent(tick=16, channel=2, data=[62, 0]),
   midi.NoteOnEvent(tick=38, channel=2, data=[67, 0]),
   midi.NoteOnEvent(tick=0, channel=2, data=[69, 100]),
   midi.NoteOnEvent(tick=54, channel=2, data=[69, 0]),
   midi.NoteOnEvent(tick=0, channel=2, data=[64, 100]),
   midi.NoteOnEvent(tick=108, channel=2, data=[64, 0]),
   midi.NoteOnEvent(tick=0, channel=2, data=[62, 100]),
   midi.ControlChangeEvent(tick=23, channel=2, data=[1, 62]),
   midi.ControlChangeEvent(tick=158, channel=2, data=[1, 0]),
   midi.NoteOnEvent(tick=31, channel=2, data=[62, 0]),
   midi.NoteOnEvent(tick=4, channel=2, data=[69, 100]),
   midi.NoteOnEvent(tick=108, channel=2, data=[69, 0]),
   midi.NoteOnEvent(tick=0, channel=2, data=[67, 100]),
   midi.ControlChangeEvent(tick=12, channel=2, data=[1, 61]),
   midi.ControlChangeEvent(tick=191, channel=2, data=[1, 0]),
   midi.NoteOnEvent(tick=13, channel=2, data=[67, 0]),
   midi.EndOfTrackEvent(tick=0, data=[])]),
 midi.Track(\
  [midi.PortEvent(tick=0, data=[0]),
   midi.TrackNameEvent(tick=0, text='Elec Gtr 1', data=[69, 108, 101, 99, 32, 71, 116, 114, 32, 49]),
   midi.ProgramChangeEvent(tick=0, channel=3, data=[29]),
   midi.ControlChangeEvent(tick=0, channel=3, data=[7, 100]),
   midi.ControlChangeEvent(tick=0, channel=3, data=[10, 100]),
   midi.ControlChangeEvent(tick=0, channel=3, data=[1, 0]),
   midi.PitchWheelEvent(tick=0, channel=3, data=[0, 64]),
   midi.ControlChangeEvent(tick=0, channel=3, data=[11, 100]),
   midi.NoteOnEvent(tick=11232, channel=3, data=[47, 100]),
   midi.NoteOnEvent(tick=0, channel=3, data=[52, 100]),
   midi.NoteOnEvent(tick=0, channel=3, data=[40, 100]),
   midi.NoteOnEvent(tick=212, channel=3, data=[40, 0]),
   midi.NoteOnEvent(tick=0, channel=3, data=[52, 0]),
   midi.NoteOnEvent(tick=0, channel=3, data=[47, 0]),
   midi.NoteOnEvent(tick=4, channel=3, data=[40, 100]),
   midi.NoteOnEvent(tick=0, channel=3, data=[47, 100]),
   midi.NoteOnEvent(tick=0, channel=3, data=[52, 100]),
   midi.NoteOnEvent(tick=50, channel=3, data=[52, 0]),
   midi.NoteOnEvent(tick=0, channel=3, data=[47, 0]),
   midi.NoteOnEvent(tick=0, channel=3, data=[40, 0]),
   midi.NoteOnEvent(tick=4, channel=3, data=[40, 100]),
   midi.NoteOnEvent(tick=0, channel=3, data=[47, 100]),
   midi.NoteOnEvent(tick=0, channel=3, data=[52, 100]),
   midi.NoteOnEvent(tick=50, channel=3, data=[52, 0]),
   midi.NoteOnEvent(tick=0, channel=3, data=[47, 0]),
   midi.NoteOnEvent(tick=0, channel=3, data=[40, 0]),
   midi.NoteOnEvent(tick=4, channel=3, data=[41, 100]),
   midi.NoteOnEvent(tick=0, channel=3, data=[48, 100]),
   midi.NoteOnEvent(tick=0, channel=3, data=[53, 100]),
   midi.NoteOnEvent(tick=536, channel=3, data=[53, 0]),
   midi.NoteOnEvent(tick=0, channel=3, data=[48, 0]),
   midi.NoteOnEvent(tick=0, channel=3, data=[41, 0]),
   midi.NoteOnEvent(tick=4, channel=3, data=[54, 100]),
   midi.NoteOnEvent(tick=0, channel=3, data=[45, 100]),
   midi.NoteOnEvent(tick=0, channel=3, data=[42, 100]),
   midi.NoteOnEvent(tick=212, channel=3, data=[42, 0]),
   midi.NoteOnEvent(tick=0, channel=3, data=[45, 0]),
   midi.NoteOnEvent(tick=0, channel=3, data=[54, 0]),
   midi.NoteOnEvent(tick=4, channel=3, data=[54, 100]),
   midi.NoteOnEvent(tick=0, channel=3, data=[45, 100]),
   midi.NoteOnEvent(tick=0, channel=3, data=[42, 100]),
   midi.NoteOnEvent(tick=50, channel=3, data=[42, 0]),
   midi.NoteOnEvent(tick=0, channel=3, data=[45, 0]),
   midi.NoteOnEvent(tick=0, channel=3, data=[54, 0]),
   midi.NoteOnEvent(tick=4, channel=3, data=[54, 100]),
   midi.NoteOnEvent(tick=0, channel=3, data=[45, 100]),
   midi.NoteOnEvent(tick=0, channel=3, data=[42, 100]),
   midi.NoteOnEvent(tick=50, channel=3, data=[42, 0]),
   midi.NoteOnEvent(tick=0, channel=3, data=[45, 0]),
   midi.NoteOnEvent(tick=0, channel=3, data=[54, 0]),
   midi.NoteOnEvent(tick=4, channel=3, data=[43, 100]),
   midi.NoteOnEvent(tick=0, channel=3, data=[55, 100]),
   midi.NoteOnEvent(tick=0, channel=3, data=[50, 100]),
   midi.NoteOnEvent(tick=536, channel=3, data=[50, 0]),
   midi.NoteOnEvent(tick=0, channel=3, data=[55, 0]),
   midi.NoteOnEvent(tick=0, channel=3, data=[43, 0]),
   midi.NoteOnEvent(tick=4, channel=3, data=[47, 100]),
   midi.NoteOnEvent(tick=0, channel=3, data=[52, 100]),
   midi.NoteOnEvent(tick=0, channel=3, data=[40, 100]),
   midi.NoteOnEvent(tick=212, channel=3, data=[40, 0]),
   midi.NoteOnEvent(tick=0, channel=3, data=[52, 0]),
   midi.NoteOnEvent(tick=0, channel=3, data=[47, 0]),
   midi.NoteOnEvent(tick=4, channel=3, data=[40, 100]),
   midi.NoteOnEvent(tick=0, channel=3, data=[47, 100]),
   midi.NoteOnEvent(tick=0, channel=3, data=[52, 100]),
   midi.NoteOnEvent(tick=50, channel=3, data=[52, 0]),
   midi.NoteOnEvent(tick=0, channel=3, data=[47, 0]),
   midi.NoteOnEvent(tick=0, channel=3, data=[40, 0]),
   midi.NoteOnEvent(tick=4, channel=3, data=[40, 100]),
   midi.NoteOnEvent(tick=0, channel=3, data=[47, 100]),
   midi.NoteOnEvent(tick=0, channel=3, data=[52, 100]),
   midi.NoteOnEvent(tick=50, channel=3, data=[52, 0]),
   midi.NoteOnEvent(tick=0, channel=3, data=[47, 0]),
   midi.NoteOnEvent(tick=0, channel=3, data=[40, 0]),
   midi.NoteOnEvent(tick=4, channel=3, data=[41, 100]),
   midi.NoteOnEvent(tick=0, channel=3, data=[48, 100]),
   midi.NoteOnEvent(tick=0, channel=3, data=[53, 100]),
   midi.NoteOnEvent(tick=536, channel=3, data=[53, 0]),
   midi.NoteOnEvent(tick=0, channel=3, data=[48, 0]),
   midi.NoteOnEvent(tick=0, channel=3, data=[41, 0]),
   midi.NoteOnEvent(tick=4, channel=3, data=[54, 100]),
   midi.NoteOnEvent(tick=0, channel=3, data=[45, 100]),
   midi.NoteOnEvent(tick=0, channel=3, data=[42, 100]),
   midi.NoteOnEvent(tick=212, channel=3, data=[42, 0]),
   midi.NoteOnEvent(tick=0, channel=3, data=[45, 0]),
   midi.NoteOnEvent(tick=0, channel=3, data=[54, 0]),
   midi.NoteOnEvent(tick=4, channel=3, data=[54, 100]),
   midi.NoteOnEvent(tick=0, channel=3, data=[45, 100]),
   midi.NoteOnEvent(tick=0, channel=3, data=[42, 100]),
   midi.NoteOnEvent(tick=50, channel=3, data=[42, 0]),
   midi.NoteOnEvent(tick=0, channel=3, data=[45, 0]),
   midi.NoteOnEvent(tick=0, channel=3, data=[54, 0]),
   midi.NoteOnEvent(tick=4, channel=3, data=[54, 100]),
   midi.NoteOnEvent(tick=0, channel=3, data=[45, 100]),
   midi.NoteOnEvent(tick=0, channel=3, data=[42, 100]),
   midi.NoteOnEvent(tick=50, channel=3, data=[42, 0]),
   midi.NoteOnEvent(tick=0, channel=3, data=[45, 0]),
   midi.NoteOnEvent(tick=0, channel=3, data=[54, 0]),
   midi.NoteOnEvent(tick=4, channel=3, data=[43, 100]),
   midi.NoteOnEvent(tick=0, channel=3, data=[55, 100]),
   midi.NoteOnEvent(tick=0, channel=3, data=[50, 100]),
   midi.NoteOnEvent(tick=536, channel=3, data=[50, 0]),
   midi.NoteOnEvent(tick=0, channel=3, data=[55, 0]),
   midi.NoteOnEvent(tick=0, channel=3, data=[43, 0]),
   midi.NoteOnEvent(tick=4, channel=3, data=[47, 100]),
   midi.NoteOnEvent(tick=0, channel=3, data=[52, 100]),
   midi.NoteOnEvent(tick=0, channel=3, data=[40, 100]),
   midi.NoteOnEvent(tick=212, channel=3, data=[40, 0]),
   midi.NoteOnEvent(tick=0, channel=3, data=[52, 0]),
   midi.NoteOnEvent(tick=0, channel=3, data=[47, 0]),
   midi.NoteOnEvent(tick=4, channel=3, data=[40, 100]),
   midi.NoteOnEvent(tick=0, channel=3, data=[47, 100]),
   midi.NoteOnEvent(tick=0, channel=3, data=[52, 100]),
   midi.NoteOnEvent(tick=50, channel=3, data=[52, 0]),
   midi.NoteOnEvent(tick=0, channel=3, data=[47, 0]),
   midi.NoteOnEvent(tick=0, channel=3, data=[40, 0]),
   midi.NoteOnEvent(tick=4, channel=3, data=[40, 100]),
   midi.NoteOnEvent(tick=0, channel=3, data=[47, 100]),
   midi.NoteOnEvent(tick=0, channel=3, data=[52, 100]),
   midi.NoteOnEvent(tick=50, channel=3, data=[52, 0]),
   midi.NoteOnEvent(tick=0, channel=3, data=[47, 0]),
   midi.NoteOnEvent(tick=0, channel=3, data=[40, 0]),
   midi.NoteOnEvent(tick=4, channel=3, data=[41, 100]),
   midi.NoteOnEvent(tick=0, channel=3, data=[48, 100]),
   midi.NoteOnEvent(tick=0, channel=3, data=[53, 100]),
   midi.NoteOnEvent(tick=536, channel=3, data=[53, 0]),
   midi.NoteOnEvent(tick=0, channel=3, data=[48, 0]),
   midi.NoteOnEvent(tick=0, channel=3, data=[41, 0]),
   midi.NoteOnEvent(tick=4, channel=3, data=[54, 100]),
   midi.NoteOnEvent(tick=0, channel=3, data=[45, 100]),
   midi.NoteOnEvent(tick=0, channel=3, data=[42, 100]),
   midi.NoteOnEvent(tick=212, channel=3, data=[42, 0]),
   midi.NoteOnEvent(tick=0, channel=3, data=[45, 0]),
   midi.NoteOnEvent(tick=0, channel=3, data=[54, 0]),
   midi.NoteOnEvent(tick=4, channel=3, data=[54, 100]),
   midi.NoteOnEvent(tick=0, channel=3, data=[45, 100]),
   midi.NoteOnEvent(tick=0, channel=3, data=[42, 100]),
   midi.NoteOnEvent(tick=50, channel=3, data=[42, 0]),
   midi.NoteOnEvent(tick=0, channel=3, data=[45, 0]),
   midi.NoteOnEvent(tick=0, channel=3, data=[54, 0]),
   midi.NoteOnEvent(tick=4, channel=3, data=[54, 100]),
   midi.NoteOnEvent(tick=0, channel=3, data=[45, 100]),
   midi.NoteOnEvent(tick=0, channel=3, data=[42, 100]),
   midi.NoteOnEvent(tick=50, channel=3, data=[42, 0]),
   midi.NoteOnEvent(tick=0, channel=3, data=[45, 0]),
   midi.NoteOnEvent(tick=0, channel=3, data=[54, 0]),
   midi.NoteOnEvent(tick=4, channel=3, data=[43, 100]),
   midi.NoteOnEvent(tick=0, channel=3, data=[55, 100]),
   midi.NoteOnEvent(tick=0, channel=3, data=[50, 100]),
   midi.NoteOnEvent(tick=536, channel=3, data=[50, 0]),
   midi.NoteOnEvent(tick=0, channel=3, data=[55, 0]),
   midi.NoteOnEvent(tick=0, channel=3, data=[43, 0]),
   midi.NoteOnEvent(tick=4, channel=3, data=[47, 100]),
   midi.NoteOnEvent(tick=0, channel=3, data=[52, 100]),
   midi.NoteOnEvent(tick=0, channel=3, data=[40, 100]),
   midi.NoteOnEvent(tick=212, channel=3, data=[40, 0]),
   midi.NoteOnEvent(tick=0, channel=3, data=[52, 0]),
   midi.NoteOnEvent(tick=0, channel=3, data=[47, 0]),
   midi.NoteOnEvent(tick=4, channel=3, data=[40, 100]),
   midi.NoteOnEvent(tick=0, channel=3, data=[47, 100]),
   midi.NoteOnEvent(tick=0, channel=3, data=[52, 100]),
   midi.NoteOnEvent(tick=50, channel=3, data=[52, 0]),
   midi.NoteOnEvent(tick=0, channel=3, data=[47, 0]),
   midi.NoteOnEvent(tick=0, channel=3, data=[40, 0]),
   midi.NoteOnEvent(tick=4, channel=3, data=[40, 100]),
   midi.NoteOnEvent(tick=0, channel=3, data=[47, 100]),
   midi.NoteOnEvent(tick=0, channel=3, data=[52, 100]),
   midi.NoteOnEvent(tick=50, channel=3, data=[52, 0]),
   midi.NoteOnEvent(tick=0, channel=3, data=[47, 0]),
   midi.NoteOnEvent(tick=0, channel=3, data=[40, 0]),
   midi.NoteOnEvent(tick=4, channel=3, data=[41, 100]),
   midi.NoteOnEvent(tick=0, channel=3, data=[48, 100]),
   midi.NoteOnEvent(tick=0, channel=3, data=[53, 100]),
   midi.NoteOnEvent(tick=536, channel=3, data=[53, 0]),
   midi.NoteOnEvent(tick=0, channel=3, data=[48, 0]),
   midi.NoteOnEvent(tick=0, channel=3, data=[41, 0]),
   midi.NoteOnEvent(tick=4, channel=3, data=[54, 100]),
   midi.NoteOnEvent(tick=0, channel=3, data=[45, 100]),
   midi.NoteOnEvent(tick=0, channel=3, data=[42, 100]),
   midi.NoteOnEvent(tick=212, channel=3, data=[42, 0]),
   midi.NoteOnEvent(tick=0, channel=3, data=[45, 0]),
   midi.NoteOnEvent(tick=0, channel=3, data=[54, 0]),
   midi.NoteOnEvent(tick=4, channel=3, data=[54, 100]),
   midi.NoteOnEvent(tick=0, channel=3, data=[45, 100]),
   midi.NoteOnEvent(tick=0, channel=3, data=[42, 100]),
   midi.NoteOnEvent(tick=50, channel=3, data=[42, 0]),
   midi.NoteOnEvent(tick=0, channel=3, data=[45, 0]),
   midi.NoteOnEvent(tick=0, channel=3, data=[54, 0]),
   midi.NoteOnEvent(tick=4, channel=3, data=[54, 100]),
   midi.NoteOnEvent(tick=0, channel=3, data=[45, 100]),
   midi.NoteOnEvent(tick=0, channel=3, data=[42, 100]),
   midi.NoteOnEvent(tick=50, channel=3, data=[42, 0]),
   midi.NoteOnEvent(tick=0, channel=3, data=[45, 0]),
   midi.NoteOnEvent(tick=0, channel=3, data=[54, 0]),
   midi.NoteOnEvent(tick=4, channel=3, data=[43, 100]),
   midi.NoteOnEvent(tick=0, channel=3, data=[55, 100]),
   midi.NoteOnEvent(tick=0, channel=3, data=[50, 100]),
   midi.NoteOnEvent(tick=536, channel=3, data=[50, 0]),
   midi.NoteOnEvent(tick=0, channel=3, data=[55, 0]),
   midi.NoteOnEvent(tick=0, channel=3, data=[43, 0]),
   midi.NoteOnEvent(tick=4, channel=3, data=[40, 100]),
   midi.NoteOnEvent(tick=0, channel=3, data=[47, 100]),
   midi.NoteOnEvent(tick=0, channel=3, data=[52, 100]),
   midi.NoteOnEvent(tick=216, channel=3, data=[52, 0]),
   midi.NoteOnEvent(tick=0, channel=3, data=[47, 0]),
   midi.NoteOnEvent(tick=0, channel=3, data=[40, 0]),
   midi.NoteOnEvent(tick=0, channel=3, data=[47, 100]),
   midi.NoteOnEvent(tick=0, channel=3, data=[54, 100]),
   midi.NoteOnEvent(tick=0, channel=3, data=[59, 100]),
   midi.NoteOnEvent(tick=216, channel=3, data=[59, 0]),
   midi.NoteOnEvent(tick=0, channel=3, data=[54, 0]),
   midi.NoteOnEvent(tick=0, channel=3, data=[47, 0]),
   midi.NoteOnEvent(tick=0, channel=3, data=[43, 100]),
   midi.NoteOnEvent(tick=0, channel=3, data=[50, 100]),
   midi.NoteOnEvent(tick=0, channel=3, data=[55, 100]),
   midi.NoteOnEvent(tick=216, channel=3, data=[55, 0]),
   midi.NoteOnEvent(tick=0, channel=3, data=[50, 0]),
   midi.NoteOnEvent(tick=0, channel=3, data=[43, 0]),
   midi.NoteOnEvent(tick=0, channel=3, data=[51, 100]),
   midi.NoteOnEvent(tick=0, channel=3, data=[54, 100]),
   midi.NoteOnEvent(tick=216, channel=3, data=[54, 0]),
   midi.NoteOnEvent(tick=0, channel=3, data=[51, 0]),
   midi.NoteOnEvent(tick=0, channel=3, data=[40, 100]),
   midi.NoteOnEvent(tick=108, channel=3, data=[40, 0]),
   midi.NoteOnEvent(tick=0, channel=3, data=[52, 100]),
   midi.NoteOnEvent(tick=0, channel=3, data=[47, 100]),
   midi.NoteOnEvent(tick=0, channel=3, data=[40, 100]),
   midi.NoteOnEvent(tick=54, channel=3, data=[40, 0]),
   midi.NoteOnEvent(tick=0, channel=3, data=[47, 0]),
   midi.NoteOnEvent(tick=0, channel=3, data=[52, 0]),
   midi.NoteOnEvent(tick=0, channel=3, data=[52, 100]),
   midi.NoteOnEvent(tick=0, channel=3, data=[47, 100]),
   midi.NoteOnEvent(tick=0, channel=3, data=[40, 100]),
   midi.NoteOnEvent(tick=54, channel=3, data=[40, 0]),
   midi.NoteOnEvent(tick=0, channel=3, data=[47, 0]),
   midi.NoteOnEvent(tick=0, channel=3, data=[52, 0]),
   midi.NoteOnEvent(tick=0, channel=3, data=[40, 100]),
   midi.NoteOnEvent(tick=108, channel=3, data=[40, 0]),
   midi.NoteOnEvent(tick=0, channel=3, data=[52, 100]),
   midi.NoteOnEvent(tick=0, channel=3, data=[47, 100]),
   midi.NoteOnEvent(tick=0, channel=3, data=[40, 100]),
   midi.NoteOnEvent(tick=54, channel=3, data=[40, 0]),
   midi.NoteOnEvent(tick=0, channel=3, data=[47, 0]),
   midi.NoteOnEvent(tick=0, channel=3, data=[52, 0]),
   midi.NoteOnEvent(tick=0, channel=3, data=[52, 100]),
   midi.NoteOnEvent(tick=0, channel=3, data=[47, 100]),
   midi.NoteOnEvent(tick=0, channel=3, data=[40, 100]),
   midi.NoteOnEvent(tick=54, channel=3, data=[40, 0]),
   midi.NoteOnEvent(tick=0, channel=3, data=[47, 0]),
   midi.NoteOnEvent(tick=0, channel=3, data=[52, 0]),
   midi.NoteOnEvent(tick=0, channel=3, data=[40, 100]),
   midi.NoteOnEvent(tick=108, channel=3, data=[40, 0]),
   midi.NoteOnEvent(tick=0, channel=3, data=[46, 100]),
   midi.NoteOnEvent(tick=0, channel=3, data=[53, 100]),
   midi.NoteOnEvent(tick=0, channel=3, data=[58, 100]),
   midi.NoteOnEvent(tick=108, channel=3, data=[58, 0]),
   midi.NoteOnEvent(tick=0, channel=3, data=[53, 0]),
   midi.NoteOnEvent(tick=0, channel=3, data=[46, 0]),
   midi.NoteOnEvent(tick=0, channel=3, data=[58, 100]),
   midi.NoteOnEvent(tick=0, channel=3, data=[46, 100]),
   midi.NoteOnEvent(tick=0, channel=3, data=[53, 100]),
   midi.NoteOnEvent(tick=108, channel=3, data=[53, 0]),
   midi.NoteOnEvent(tick=0, channel=3, data=[46, 0]),
   midi.NoteOnEvent(tick=0, channel=3, data=[58, 0]),
   midi.NoteOnEvent(tick=0, channel=3, data=[45, 100]),
   midi.NoteOnEvent(tick=0, channel=3, data=[52, 100]),
   midi.NoteOnEvent(tick=0, channel=3, data=[57, 100]),
   midi.NoteOnEvent(tick=108, channel=3, data=[57, 0]),
   midi.NoteOnEvent(tick=0, channel=3, data=[52, 0]),
   midi.NoteOnEvent(tick=0, channel=3, data=[45, 0]),
   midi.NoteOnEvent(tick=0, channel=3, data=[40, 100]),
   midi.NoteOnEvent(tick=108, channel=3, data=[40, 0]),
   midi.NoteOnEvent(tick=0, channel=3, data=[52, 100]),
   midi.NoteOnEvent(tick=0, channel=3, data=[47, 100]),
   midi.NoteOnEvent(tick=0, channel=3, data=[40, 100]),
   midi.NoteOnEvent(tick=54, channel=3, data=[40, 0]),
   midi.NoteOnEvent(tick=0, channel=3, data=[47, 0]),
   midi.NoteOnEvent(tick=0, channel=3, data=[52, 0]),
   midi.NoteOnEvent(tick=0, channel=3, data=[47, 100]),
   midi.NoteOnEvent(tick=0, channel=3, data=[52, 100]),
   midi.NoteOnEvent(tick=0, channel=3, data=[40, 100]),
   midi.NoteOnEvent(tick=54, channel=3, data=[40, 0]),
   midi.NoteOnEvent(tick=0, channel=3, data=[52, 0]),
   midi.NoteOnEvent(tick=0, channel=3, data=[47, 0]),
   midi.NoteOnEvent(tick=0, channel=3, data=[40, 100]),
   midi.NoteOnEvent(tick=108, channel=3, data=[40, 0]),
   midi.NoteOnEvent(tick=0, channel=3, data=[52, 100]),
   midi.NoteOnEvent(tick=0, channel=3, data=[47, 100]),
   midi.NoteOnEvent(tick=0, channel=3, data=[40, 100]),
   midi.NoteOnEvent(tick=54, channel=3, data=[40, 0]),
   midi.NoteOnEvent(tick=0, channel=3, data=[47, 0]),
   midi.NoteOnEvent(tick=0, channel=3, data=[52, 0]),
   midi.NoteOnEvent(tick=0, channel=3, data=[47, 100]),
   midi.NoteOnEvent(tick=0, channel=3, data=[52, 100]),
   midi.NoteOnEvent(tick=0, channel=3, data=[40, 100]),
   midi.NoteOnEvent(tick=54, channel=3, data=[40, 0]),
   midi.NoteOnEvent(tick=0, channel=3, data=[52, 0]),
   midi.NoteOnEvent(tick=0, channel=3, data=[47, 0]),
   midi.NoteOnEvent(tick=0, channel=3, data=[40, 100]),
   midi.NoteOnEvent(tick=108, channel=3, data=[40, 0]),
   midi.NoteOnEvent(tick=0, channel=3, data=[52, 100]),
   midi.NoteOnEvent(tick=0, channel=3, data=[55, 100]),
   midi.NoteOnEvent(tick=108, channel=3, data=[55, 0]),
   midi.NoteOnEvent(tick=0, channel=3, data=[52, 0]),
   midi.NoteOnEvent(tick=0, channel=3, data=[52, 100]),
   midi.NoteOnEvent(tick=0, channel=3, data=[55, 100]),
   midi.NoteOnEvent(tick=108, channel=3, data=[55, 0]),
   midi.NoteOnEvent(tick=0, channel=3, data=[52, 0]),
   midi.NoteOnEvent(tick=0, channel=3, data=[54, 100]),
   midi.NoteOnEvent(tick=0, channel=3, data=[51, 100]),
   midi.NoteOnEvent(tick=108, channel=3, data=[51, 0]),
   midi.NoteOnEvent(tick=0, channel=3, data=[54, 0]),
   midi.NoteOnEvent(tick=0, channel=3, data=[52, 100]),
   midi.NoteOnEvent(tick=0, channel=3, data=[55, 100]),
   midi.NoteOnEvent(tick=108, channel=3, data=[55, 0]),
   midi.NoteOnEvent(tick=0, channel=3, data=[52, 0]),
   midi.NoteOnEvent(tick=0, channel=3, data=[47, 100]),
   midi.NoteOnEvent(tick=0, channel=3, data=[52, 100]),
   midi.NoteOnEvent(tick=0, channel=3, data=[40, 100]),
   midi.NoteOnEvent(tick=54, channel=3, data=[40, 0]),
   midi.NoteOnEvent(tick=0, channel=3, data=[52, 0]),
   midi.NoteOnEvent(tick=0, channel=3, data=[47, 0]),
   midi.NoteOnEvent(tick=0, channel=3, data=[47, 100]),
   midi.NoteOnEvent(tick=0, channel=3, data=[52, 100]),
   midi.NoteOnEvent(tick=0, channel=3, data=[40, 100]),
   midi.NoteOnEvent(tick=54, channel=3, data=[40, 0]),
   midi.NoteOnEvent(tick=0, channel=3, data=[52, 0]),
   midi.NoteOnEvent(tick=0, channel=3, data=[47, 0]),
   midi.NoteOnEvent(tick=0, channel=3, data=[40, 100]),
   midi.NoteOnEvent(tick=108, channel=3, data=[40, 0]),
   midi.NoteOnEvent(tick=0, channel=3, data=[52, 100]),
   midi.NoteOnEvent(tick=0, channel=3, data=[47, 100]),
   midi.NoteOnEvent(tick=0, channel=3, data=[40, 100]),
   midi.NoteOnEvent(tick=54, channel=3, data=[40, 0]),
   midi.NoteOnEvent(tick=0, channel=3, data=[47, 0]),
   midi.NoteOnEvent(tick=0, channel=3, data=[52, 0]),
   midi.NoteOnEvent(tick=0, channel=3, data=[52, 100]),
   midi.NoteOnEvent(tick=0, channel=3, data=[47, 100]),
   midi.NoteOnEvent(tick=0, channel=3, data=[40, 100]),
   midi.NoteOnEvent(tick=54, channel=3, data=[40, 0]),
   midi.NoteOnEvent(tick=0, channel=3, data=[47, 0]),
   midi.NoteOnEvent(tick=0, channel=3, data=[52, 0]),
   midi.NoteOnEvent(tick=0, channel=3, data=[40, 100]),
   midi.NoteOnEvent(tick=108, channel=3, data=[40, 0]),
   midi.NoteOnEvent(tick=0, channel=3, data=[46, 100]),
   midi.NoteOnEvent(tick=0, channel=3, data=[53, 100]),
   midi.NoteOnEvent(tick=0, channel=3, data=[58, 100]),
   midi.NoteOnEvent(tick=108, channel=3, data=[58, 0]),
   midi.NoteOnEvent(tick=0, channel=3, data=[53, 0]),
   midi.NoteOnEvent(tick=0, channel=3, data=[46, 0]),
   midi.NoteOnEvent(tick=0, channel=3, data=[46, 100]),
   midi.NoteOnEvent(tick=0, channel=3, data=[53, 100]),
   midi.NoteOnEvent(tick=0, channel=3, data=[58, 100]),
   midi.NoteOnEvent(tick=108, channel=3, data=[58, 0]),
   midi.NoteOnEvent(tick=0, channel=3, data=[53, 0]),
   midi.NoteOnEvent(tick=0, channel=3, data=[46, 0]),
   midi.NoteOnEvent(tick=0, channel=3, data=[45, 100]),
   midi.NoteOnEvent(tick=0, channel=3, data=[52, 100]),
   midi.NoteOnEvent(tick=0, channel=3, data=[57, 100]),
   midi.NoteOnEvent(tick=108, channel=3, data=[57, 0]),
   midi.NoteOnEvent(tick=0, channel=3, data=[52, 0]),
   midi.NoteOnEvent(tick=0, channel=3, data=[45, 0]),
   midi.NoteOnEvent(tick=0, channel=3, data=[40, 100]),
   midi.NoteOnEvent(tick=108, channel=3, data=[40, 0]),
   midi.NoteOnEvent(tick=0, channel=3, data=[42, 100]),
   midi.NoteOnEvent(tick=0, channel=3, data=[49, 100]),
   midi.NoteOnEvent(tick=0, channel=3, data=[54, 100]),
   midi.NoteOnEvent(tick=216, channel=3, data=[54, 0]),
   midi.NoteOnEvent(tick=0, channel=3, data=[49, 0]),
   midi.NoteOnEvent(tick=0, channel=3, data=[42, 0]),
   midi.NoteOnEvent(tick=0, channel=3, data=[43, 100]),
   midi.NoteOnEvent(tick=0, channel=3, data=[50, 100]),
   midi.NoteOnEvent(tick=0, channel=3, data=[55, 100]),
   midi.NoteOnEvent(tick=108, channel=3, data=[55, 0]),
   midi.NoteOnEvent(tick=0, channel=3, data=[50, 0]),
   midi.NoteOnEvent(tick=0, channel=3, data=[43, 0]),
   midi.NoteOnEvent(tick=0, channel=3, data=[40, 100]),
   midi.NoteOnEvent(tick=108, channel=3, data=[40, 0]),
   midi.NoteOnEvent(tick=0, channel=3, data=[55, 100]),
   midi.NoteOnEvent(tick=0, channel=3, data=[50, 100]),
   midi.NoteOnEvent(tick=0, channel=3, data=[43, 100]),
   midi.NoteOnEvent(tick=216, channel=3, data=[43, 0]),
   midi.NoteOnEvent(tick=0, channel=3, data=[50, 0]),
   midi.NoteOnEvent(tick=0, channel=3, data=[55, 0]),
   midi.NoteOnEvent(tick=0, channel=3, data=[44, 100]),
   midi.NoteOnEvent(tick=0, channel=3, data=[51, 100]),
   midi.NoteOnEvent(tick=0, channel=3, data=[56, 100]),
   midi.NoteOnEvent(tick=108, channel=3, data=[56, 0]),
   midi.NoteOnEvent(tick=0, channel=3, data=[51, 0]),
   midi.NoteOnEvent(tick=0, channel=3, data=[44, 0]),
   midi.NoteOnEvent(tick=0, channel=3, data=[40, 100]),
   midi.NoteOnEvent(tick=108, channel=3, data=[40, 0]),
   midi.NoteOnEvent(tick=0, channel=3, data=[52, 100]),
   midi.NoteOnEvent(tick=0, channel=3, data=[47, 100]),
   midi.NoteOnEvent(tick=0, channel=3, data=[40, 100]),
   midi.NoteOnEvent(tick=54, channel=3, data=[40, 0]),
   midi.NoteOnEvent(tick=0, channel=3, data=[47, 0]),
   midi.NoteOnEvent(tick=0, channel=3, data=[52, 0]),
   midi.NoteOnEvent(tick=0, channel=3, data=[52, 100]),
   midi.NoteOnEvent(tick=0, channel=3, data=[47, 100]),
   midi.NoteOnEvent(tick=0, channel=3, data=[40, 100]),
   midi.NoteOnEvent(tick=54, channel=3, data=[40, 0]),
   midi.NoteOnEvent(tick=0, channel=3, data=[47, 0]),
   midi.NoteOnEvent(tick=0, channel=3, data=[52, 0]),
   midi.NoteOnEvent(tick=0, channel=3, data=[40, 100]),
   midi.NoteOnEvent(tick=108, channel=3, data=[40, 0]),
   midi.NoteOnEvent(tick=0, channel=3, data=[52, 100]),
   midi.NoteOnEvent(tick=0, channel=3, data=[47, 100]),
   midi.NoteOnEvent(tick=0, channel=3, data=[40, 100]),
   midi.NoteOnEvent(tick=54, channel=3, data=[40, 0]),
   midi.NoteOnEvent(tick=0, channel=3, data=[47, 0]),
   midi.NoteOnEvent(tick=0, channel=3, data=[52, 0]),
   midi.NoteOnEvent(tick=0, channel=3, data=[52, 100]),
   midi.NoteOnEvent(tick=0, channel=3, data=[47, 100]),
   midi.NoteOnEvent(tick=0, channel=3, data=[40, 100]),
   midi.NoteOnEvent(tick=54, channel=3, data=[40, 0]),
   midi.NoteOnEvent(tick=0, channel=3, data=[47, 0]),
   midi.NoteOnEvent(tick=0, channel=3, data=[52, 0]),
   midi.NoteOnEvent(tick=0, channel=3, data=[40, 100]),
   midi.NoteOnEvent(tick=108, channel=3, data=[40, 0]),
   midi.NoteOnEvent(tick=0, channel=3, data=[46, 100]),
   midi.NoteOnEvent(tick=0, channel=3, data=[53, 100]),
   midi.NoteOnEvent(tick=0, channel=3, data=[58, 100]),
   midi.NoteOnEvent(tick=108, channel=3, data=[58, 0]),
   midi.NoteOnEvent(tick=0, channel=3, data=[53, 0]),
   midi.NoteOnEvent(tick=0, channel=3, data=[46, 0]),
   midi.NoteOnEvent(tick=0, channel=3, data=[46, 100]),
   midi.NoteOnEvent(tick=0, channel=3, data=[53, 100]),
   midi.NoteOnEvent(tick=0, channel=3, data=[58, 100]),
   midi.NoteOnEvent(tick=108, channel=3, data=[58, 0]),
   midi.NoteOnEvent(tick=0, channel=3, data=[53, 0]),
   midi.NoteOnEvent(tick=0, channel=3, data=[46, 0]),
   midi.NoteOnEvent(tick=0, channel=3, data=[45, 100]),
   midi.NoteOnEvent(tick=0, channel=3, data=[52, 100]),
   midi.NoteOnEvent(tick=0, channel=3, data=[57, 100]),
   midi.NoteOnEvent(tick=108, channel=3, data=[57, 0]),
   midi.NoteOnEvent(tick=0, channel=3, data=[52, 0]),
   midi.NoteOnEvent(tick=0, channel=3, data=[45, 0]),
   midi.NoteOnEvent(tick=0, channel=3, data=[40, 100]),
   midi.NoteOnEvent(tick=108, channel=3, data=[40, 0]),
   midi.NoteOnEvent(tick=0, channel=3, data=[52, 100]),
   midi.NoteOnEvent(tick=0, channel=3, data=[47, 100]),
   midi.NoteOnEvent(tick=0, channel=3, data=[40, 100]),
   midi.NoteOnEvent(tick=54, channel=3, data=[40, 0]),
   midi.NoteOnEvent(tick=0, channel=3, data=[47, 0]),
   midi.NoteOnEvent(tick=0, channel=3, data=[52, 0]),
   midi.NoteOnEvent(tick=0, channel=3, data=[52, 100]),
   midi.NoteOnEvent(tick=0, channel=3, data=[47, 100]),
   midi.NoteOnEvent(tick=0, channel=3, data=[40, 100]),
   midi.NoteOnEvent(tick=54, channel=3, data=[40, 0]),
   midi.NoteOnEvent(tick=0, channel=3, data=[47, 0]),
   midi.NoteOnEvent(tick=0, channel=3, data=[52, 0]),
   midi.NoteOnEvent(tick=0, channel=3, data=[40, 100]),
   midi.NoteOnEvent(tick=108, channel=3, data=[40, 0]),
   midi.NoteOnEvent(tick=0, channel=3, data=[52, 100]),
   midi.NoteOnEvent(tick=0, channel=3, data=[47, 100]),
   midi.NoteOnEvent(tick=0, channel=3, data=[40, 100]),
   midi.NoteOnEvent(tick=54, channel=3, data=[40, 0]),
   midi.NoteOnEvent(tick=0, channel=3, data=[47, 0]),
   midi.NoteOnEvent(tick=0, channel=3, data=[52, 0]),
   midi.NoteOnEvent(tick=0, channel=3, data=[52, 100]),
   midi.NoteOnEvent(tick=0, channel=3, data=[47, 100]),
   midi.NoteOnEvent(tick=0, channel=3, data=[40, 100]),
   midi.NoteOnEvent(tick=54, channel=3, data=[40, 0]),
   midi.NoteOnEvent(tick=0, channel=3, data=[47, 0]),
   midi.NoteOnEvent(tick=0, channel=3, data=[52, 0]),
   midi.NoteOnEvent(tick=0, channel=3, data=[40, 100]),
   midi.NoteOnEvent(tick=108, channel=3, data=[40, 0]),
   midi.NoteOnEvent(tick=0, channel=3, data=[52, 100]),
   midi.NoteOnEvent(tick=0, channel=3, data=[55, 100]),
   midi.NoteOnEvent(tick=108, channel=3, data=[55, 0]),
   midi.NoteOnEvent(tick=0, channel=3, data=[52, 0]),
   midi.NoteOnEvent(tick=0, channel=3, data=[52, 100]),
   midi.NoteOnEvent(tick=0, channel=3, data=[55, 100]),
   midi.NoteOnEvent(tick=108, channel=3, data=[55, 0]),
   midi.NoteOnEvent(tick=0, channel=3, data=[52, 0]),
   midi.NoteOnEvent(tick=0, channel=3, data=[54, 100]),
   midi.NoteOnEvent(tick=0, channel=3, data=[51, 100]),
   midi.NoteOnEvent(tick=108, channel=3, data=[51, 0]),
   midi.NoteOnEvent(tick=0, channel=3, data=[54, 0]),
   midi.NoteOnEvent(tick=0, channel=3, data=[52, 100]),
   midi.NoteOnEvent(tick=0, channel=3, data=[55, 100]),
   midi.NoteOnEvent(tick=108, channel=3, data=[55, 0]),
   midi.NoteOnEvent(tick=0, channel=3, data=[52, 0]),
   midi.NoteOnEvent(tick=0, channel=3, data=[47, 100]),
   midi.NoteOnEvent(tick=0, channel=3, data=[52, 100]),
   midi.NoteOnEvent(tick=0, channel=3, data=[40, 100]),
   midi.NoteOnEvent(tick=54, channel=3, data=[40, 0]),
   midi.NoteOnEvent(tick=0, channel=3, data=[52, 0]),
   midi.NoteOnEvent(tick=0, channel=3, data=[47, 0]),
   midi.NoteOnEvent(tick=0, channel=3, data=[47, 100]),
   midi.NoteOnEvent(tick=0, channel=3, data=[52, 100]),
   midi.NoteOnEvent(tick=0, channel=3, data=[40, 100]),
   midi.NoteOnEvent(tick=54, channel=3, data=[40, 0]),
   midi.NoteOnEvent(tick=0, channel=3, data=[52, 0]),
   midi.NoteOnEvent(tick=0, channel=3, data=[47, 0]),
   midi.NoteOnEvent(tick=0, channel=3, data=[40, 100]),
   midi.NoteOnEvent(tick=108, channel=3, data=[40, 0]),
   midi.NoteOnEvent(tick=0, channel=3, data=[52, 100]),
   midi.NoteOnEvent(tick=0, channel=3, data=[47, 100]),
   midi.NoteOnEvent(tick=0, channel=3, data=[40, 100]),
   midi.NoteOnEvent(tick=54, channel=3, data=[40, 0]),
   midi.NoteOnEvent(tick=0, channel=3, data=[47, 0]),
   midi.NoteOnEvent(tick=0, channel=3, data=[52, 0]),
   midi.NoteOnEvent(tick=0, channel=3, data=[52, 100]),
   midi.NoteOnEvent(tick=0, channel=3, data=[47, 100]),
   midi.NoteOnEvent(tick=0, channel=3, data=[40, 100]),
   midi.NoteOnEvent(tick=54, channel=3, data=[40, 0]),
   midi.NoteOnEvent(tick=0, channel=3, data=[47, 0]),
   midi.NoteOnEvent(tick=0, channel=3, data=[52, 0]),
   midi.NoteOnEvent(tick=0, channel=3, data=[40, 100]),
   midi.NoteOnEvent(tick=108, channel=3, data=[40, 0]),
   midi.NoteOnEvent(tick=0, channel=3, data=[46, 100]),
   midi.NoteOnEvent(tick=0, channel=3, data=[53, 100]),
   midi.NoteOnEvent(tick=0, channel=3, data=[58, 100]),
   midi.NoteOnEvent(tick=108, channel=3, data=[58, 0]),
   midi.NoteOnEvent(tick=0, channel=3, data=[53, 0]),
   midi.NoteOnEvent(tick=0, channel=3, data=[46, 0]),
   midi.NoteOnEvent(tick=0, channel=3, data=[46, 100]),
   midi.NoteOnEvent(tick=0, channel=3, data=[53, 100]),
   midi.NoteOnEvent(tick=0, channel=3, data=[58, 100]),
   midi.NoteOnEvent(tick=108, channel=3, data=[58, 0]),
   midi.NoteOnEvent(tick=0, channel=3, data=[53, 0]),
   midi.NoteOnEvent(tick=0, channel=3, data=[46, 0]),
   midi.NoteOnEvent(tick=0, channel=3, data=[45, 100]),
   midi.NoteOnEvent(tick=0, channel=3, data=[52, 100]),
   midi.NoteOnEvent(tick=0, channel=3, data=[57, 100]),
   midi.NoteOnEvent(tick=108, channel=3, data=[57, 0]),
   midi.NoteOnEvent(tick=0, channel=3, data=[52, 0]),
   midi.NoteOnEvent(tick=0, channel=3, data=[45, 0]),
   midi.NoteOnEvent(tick=0, channel=3, data=[47, 100]),
   midi.NoteOnEvent(tick=0, channel=3, data=[54, 100]),
   midi.NoteOnEvent(tick=0, channel=3, data=[59, 100]),
   midi.NoteOnEvent(tick=108, channel=3, data=[59, 0]),
   midi.NoteOnEvent(tick=0, channel=3, data=[54, 0]),
   midi.NoteOnEvent(tick=0, channel=3, data=[47, 0]),
   midi.NoteOnEvent(tick=0, channel=3, data=[45, 100]),
   midi.NoteOnEvent(tick=0, channel=3, data=[52, 100]),
   midi.NoteOnEvent(tick=0, channel=3, data=[57, 100]),
   midi.NoteOnEvent(tick=108, channel=3, data=[57, 0]),
   midi.NoteOnEvent(tick=0, channel=3, data=[52, 0]),
   midi.NoteOnEvent(tick=0, channel=3, data=[45, 0]),
   midi.NoteOnEvent(tick=108, channel=3, data=[45, 100]),
   midi.NoteOnEvent(tick=0, channel=3, data=[52, 100]),
   midi.NoteOnEvent(tick=0, channel=3, data=[57, 100]),
   midi.NoteOnEvent(tick=108, channel=3, data=[57, 0]),
   midi.NoteOnEvent(tick=0, channel=3, data=[52, 0]),
   midi.NoteOnEvent(tick=0, channel=3, data=[45, 0]),
   midi.NoteOnEvent(tick=108, channel=3, data=[45, 100]),
   midi.NoteOnEvent(tick=0, channel=3, data=[52, 100]),
   midi.NoteOnEvent(tick=0, channel=3, data=[57, 100]),
   midi.NoteOnEvent(tick=108, channel=3, data=[57, 0]),
   midi.NoteOnEvent(tick=0, channel=3, data=[52, 0]),
   midi.NoteOnEvent(tick=0, channel=3, data=[45, 0]),
   midi.NoteOnEvent(tick=108, channel=3, data=[45, 100]),
   midi.NoteOnEvent(tick=0, channel=3, data=[52, 100]),
   midi.NoteOnEvent(tick=0, channel=3, data=[57, 100]),
   midi.NoteOnEvent(tick=108, channel=3, data=[57, 0]),
   midi.NoteOnEvent(tick=0, channel=3, data=[52, 0]),
   midi.NoteOnEvent(tick=0, channel=3, data=[45, 0]),
   midi.NoteOnEvent(tick=0, channel=3, data=[40, 100]),
   midi.NoteOnEvent(tick=108, channel=3, data=[40, 0]),
   midi.NoteOnEvent(tick=0, channel=3, data=[52, 100]),
   midi.NoteOnEvent(tick=0, channel=3, data=[47, 100]),
   midi.NoteOnEvent(tick=0, channel=3, data=[40, 100]),
   midi.NoteOnEvent(tick=54, channel=3, data=[40, 0]),
   midi.NoteOnEvent(tick=0, channel=3, data=[47, 0]),
   midi.NoteOnEvent(tick=0, channel=3, data=[52, 0]),
   midi.NoteOnEvent(tick=0, channel=3, data=[52, 100]),
   midi.NoteOnEvent(tick=0, channel=3, data=[47, 100]),
   midi.NoteOnEvent(tick=0, channel=3, data=[40, 100]),
   midi.NoteOnEvent(tick=54, channel=3, data=[40, 0]),
   midi.NoteOnEvent(tick=0, channel=3, data=[47, 0]),
   midi.NoteOnEvent(tick=0, channel=3, data=[52, 0]),
   midi.NoteOnEvent(tick=0, channel=3, data=[40, 100]),
   midi.NoteOnEvent(tick=108, channel=3, data=[40, 0]),
   midi.NoteOnEvent(tick=0, channel=3, data=[52, 100]),
   midi.NoteOnEvent(tick=0, channel=3, data=[47, 100]),
   midi.NoteOnEvent(tick=0, channel=3, data=[40, 100]),
   midi.NoteOnEvent(tick=54, channel=3, data=[40, 0]),
   midi.NoteOnEvent(tick=0, channel=3, data=[47, 0]),
   midi.NoteOnEvent(tick=0, channel=3, data=[52, 0]),
   midi.NoteOnEvent(tick=0, channel=3, data=[52, 100]),
   midi.NoteOnEvent(tick=0, channel=3, data=[47, 100]),
   midi.NoteOnEvent(tick=0, channel=3, data=[40, 100]),
   midi.NoteOnEvent(tick=54, channel=3, data=[40, 0]),
   midi.NoteOnEvent(tick=0, channel=3, data=[47, 0]),
   midi.NoteOnEvent(tick=0, channel=3, data=[52, 0]),
   midi.NoteOnEvent(tick=0, channel=3, data=[40, 100]),
   midi.NoteOnEvent(tick=108, channel=3, data=[40, 0]),
   midi.NoteOnEvent(tick=0, channel=3, data=[46, 100]),
   midi.NoteOnEvent(tick=0, channel=3, data=[53, 100]),
   midi.NoteOnEvent(tick=0, channel=3, data=[58, 100]),
   midi.NoteOnEvent(tick=108, channel=3, data=[58, 0]),
   midi.NoteOnEvent(tick=0, channel=3, data=[53, 0]),
   midi.NoteOnEvent(tick=0, channel=3, data=[46, 0]),
   midi.NoteOnEvent(tick=0, channel=3, data=[46, 100]),
   midi.NoteOnEvent(tick=0, channel=3, data=[53, 100]),
   midi.NoteOnEvent(tick=0, channel=3, data=[58, 100]),
   midi.NoteOnEvent(tick=108, channel=3, data=[58, 0]),
   midi.NoteOnEvent(tick=0, channel=3, data=[53, 0]),
   midi.NoteOnEvent(tick=0, channel=3, data=[46, 0]),
   midi.NoteOnEvent(tick=0, channel=3, data=[45, 100]),
   midi.NoteOnEvent(tick=0, channel=3, data=[52, 100]),
   midi.NoteOnEvent(tick=0, channel=3, data=[57, 100]),
   midi.NoteOnEvent(tick=108, channel=3, data=[57, 0]),
   midi.NoteOnEvent(tick=0, channel=3, data=[52, 0]),
   midi.NoteOnEvent(tick=0, channel=3, data=[45, 0]),
   midi.NoteOnEvent(tick=0, channel=3, data=[40, 100]),
   midi.NoteOnEvent(tick=108, channel=3, data=[40, 0]),
   midi.NoteOnEvent(tick=0, channel=3, data=[52, 100]),
   midi.NoteOnEvent(tick=0, channel=3, data=[47, 100]),
   midi.NoteOnEvent(tick=0, channel=3, data=[40, 100]),
   midi.NoteOnEvent(tick=54, channel=3, data=[40, 0]),
   midi.NoteOnEvent(tick=0, channel=3, data=[47, 0]),
   midi.NoteOnEvent(tick=0, channel=3, data=[52, 0]),
   midi.NoteOnEvent(tick=0, channel=3, data=[47, 100]),
   midi.NoteOnEvent(tick=0, channel=3, data=[52, 100]),
   midi.NoteOnEvent(tick=0, channel=3, data=[40, 100]),
   midi.NoteOnEvent(tick=54, channel=3, data=[40, 0]),
   midi.NoteOnEvent(tick=0, channel=3, data=[52, 0]),
   midi.NoteOnEvent(tick=0, channel=3, data=[47, 0]),
   midi.NoteOnEvent(tick=0, channel=3, data=[40, 100]),
   midi.NoteOnEvent(tick=108, channel=3, data=[40, 0]),
   midi.NoteOnEvent(tick=0, channel=3, data=[52, 100]),
   midi.NoteOnEvent(tick=0, channel=3, data=[47, 100]),
   midi.NoteOnEvent(tick=0, channel=3, data=[40, 100]),
   midi.NoteOnEvent(tick=54, channel=3, data=[40, 0]),
   midi.NoteOnEvent(tick=0, channel=3, data=[47, 0]),
   midi.NoteOnEvent(tick=0, channel=3, data=[52, 0]),
   midi.NoteOnEvent(tick=0, channel=3, data=[47, 100]),
   midi.NoteOnEvent(tick=0, channel=3, data=[52, 100]),
   midi.NoteOnEvent(tick=0, channel=3, data=[40, 100]),
   midi.NoteOnEvent(tick=54, channel=3, data=[40, 0]),
   midi.NoteOnEvent(tick=0, channel=3, data=[52, 0]),
   midi.NoteOnEvent(tick=0, channel=3, data=[47, 0]),
   midi.NoteOnEvent(tick=0, channel=3, data=[40, 100]),
   midi.NoteOnEvent(tick=108, channel=3, data=[40, 0]),
   midi.NoteOnEvent(tick=0, channel=3, data=[52, 100]),
   midi.NoteOnEvent(tick=0, channel=3, data=[55, 100]),
   midi.NoteOnEvent(tick=108, channel=3, data=[55, 0]),
   midi.NoteOnEvent(tick=0, channel=3, data=[52, 0]),
   midi.NoteOnEvent(tick=0, channel=3, data=[52, 100]),
   midi.NoteOnEvent(tick=0, channel=3, data=[55, 100]),
   midi.NoteOnEvent(tick=108, channel=3, data=[55, 0]),
   midi.NoteOnEvent(tick=0, channel=3, data=[52, 0]),
   midi.NoteOnEvent(tick=0, channel=3, data=[54, 100]),
   midi.NoteOnEvent(tick=0, channel=3, data=[51, 100]),
   midi.NoteOnEvent(tick=108, channel=3, data=[51, 0]),
   midi.NoteOnEvent(tick=0, channel=3, data=[54, 0]),
   midi.NoteOnEvent(tick=0, channel=3, data=[52, 100]),
   midi.NoteOnEvent(tick=0, channel=3, data=[55, 100]),
   midi.NoteOnEvent(tick=108, channel=3, data=[55, 0]),
   midi.NoteOnEvent(tick=0, channel=3, data=[52, 0]),
   midi.NoteOnEvent(tick=0, channel=3, data=[52, 100]),
   midi.NoteOnEvent(tick=0, channel=3, data=[47, 100]),
   midi.NoteOnEvent(tick=0, channel=3, data=[40, 100]),
   midi.NoteOnEvent(tick=54, channel=3, data=[40, 0]),
   midi.NoteOnEvent(tick=0, channel=3, data=[47, 0]),
   midi.NoteOnEvent(tick=0, channel=3, data=[52, 0]),
   midi.NoteOnEvent(tick=0, channel=3, data=[47, 100]),
   midi.NoteOnEvent(tick=0, channel=3, data=[52, 100]),
   midi.NoteOnEvent(tick=0, channel=3, data=[40, 100]),
   midi.NoteOnEvent(tick=54, channel=3, data=[40, 0]),
   midi.NoteOnEvent(tick=0, channel=3, data=[52, 0]),
   midi.NoteOnEvent(tick=0, channel=3, data=[47, 0]),
   midi.NoteOnEvent(tick=0, channel=3, data=[40, 100]),
   midi.NoteOnEvent(tick=108, channel=3, data=[40, 0]),
   midi.NoteOnEvent(tick=0, channel=3, data=[52, 100]),
   midi.NoteOnEvent(tick=0, channel=3, data=[47, 100]),
   midi.NoteOnEvent(tick=0, channel=3, data=[40, 100]),
   midi.NoteOnEvent(tick=54, channel=3, data=[40, 0]),
   midi.NoteOnEvent(tick=0, channel=3, data=[47, 0]),
   midi.NoteOnEvent(tick=0, channel=3, data=[52, 0]),
   midi.NoteOnEvent(tick=0, channel=3, data=[47, 100]),
   midi.NoteOnEvent(tick=0, channel=3, data=[52, 100]),
   midi.NoteOnEvent(tick=0, channel=3, data=[40, 100]),
   midi.NoteOnEvent(tick=54, channel=3, data=[40, 0]),
   midi.NoteOnEvent(tick=0, channel=3, data=[52, 0]),
   midi.NoteOnEvent(tick=0, channel=3, data=[47, 0]),
   midi.NoteOnEvent(tick=0, channel=3, data=[40, 100]),
   midi.NoteOnEvent(tick=108, channel=3, data=[40, 0]),
   midi.NoteOnEvent(tick=0, channel=3, data=[46, 100]),
   midi.NoteOnEvent(tick=0, channel=3, data=[53, 100]),
   midi.NoteOnEvent(tick=0, channel=3, data=[58, 100]),
   midi.NoteOnEvent(tick=108, channel=3, data=[58, 0]),
   midi.NoteOnEvent(tick=0, channel=3, data=[53, 0]),
   midi.NoteOnEvent(tick=0, channel=3, data=[46, 0]),
   midi.NoteOnEvent(tick=0, channel=3, data=[46, 100]),
   midi.NoteOnEvent(tick=0, channel=3, data=[53, 100]),
   midi.NoteOnEvent(tick=0, channel=3, data=[58, 100]),
   midi.NoteOnEvent(tick=108, channel=3, data=[58, 0]),
   midi.NoteOnEvent(tick=0, channel=3, data=[53, 0]),
   midi.NoteOnEvent(tick=0, channel=3, data=[46, 0]),
   midi.NoteOnEvent(tick=0, channel=3, data=[45, 100]),
   midi.NoteOnEvent(tick=0, channel=3, data=[52, 100]),
   midi.NoteOnEvent(tick=0, channel=3, data=[57, 100]),
   midi.NoteOnEvent(tick=108, channel=3, data=[57, 0]),
   midi.NoteOnEvent(tick=0, channel=3, data=[52, 0]),
   midi.NoteOnEvent(tick=0, channel=3, data=[45, 0]),
   midi.NoteOnEvent(tick=0, channel=3, data=[40, 100]),
   midi.NoteOnEvent(tick=108, channel=3, data=[40, 0]),
   midi.NoteOnEvent(tick=0, channel=3, data=[42, 100]),
   midi.NoteOnEvent(tick=0, channel=3, data=[49, 100]),
   midi.NoteOnEvent(tick=0, channel=3, data=[54, 100]),
   midi.NoteOnEvent(tick=216, channel=3, data=[54, 0]),
   midi.NoteOnEvent(tick=0, channel=3, data=[49, 0]),
   midi.NoteOnEvent(tick=0, channel=3, data=[42, 0]),
   midi.NoteOnEvent(tick=0, channel=3, data=[43, 100]),
   midi.NoteOnEvent(tick=0, channel=3, data=[50, 100]),
   midi.NoteOnEvent(tick=0, channel=3, data=[55, 100]),
   midi.NoteOnEvent(tick=108, channel=3, data=[55, 0]),
   midi.NoteOnEvent(tick=0, channel=3, data=[50, 0]),
   midi.NoteOnEvent(tick=0, channel=3, data=[43, 0]),
   midi.NoteOnEvent(tick=0, channel=3, data=[40, 100]),
   midi.NoteOnEvent(tick=108, channel=3, data=[40, 0]),
   midi.NoteOnEvent(tick=0, channel=3, data=[55, 100]),
   midi.NoteOnEvent(tick=0, channel=3, data=[50, 100]),
   midi.NoteOnEvent(tick=0, channel=3, data=[43, 100]),
   midi.NoteOnEvent(tick=216, channel=3, data=[43, 0]),
   midi.NoteOnEvent(tick=0, channel=3, data=[50, 0]),
   midi.NoteOnEvent(tick=0, channel=3, data=[55, 0]),
   midi.NoteOnEvent(tick=0, channel=3, data=[44, 100]),
   midi.NoteOnEvent(tick=0, channel=3, data=[51, 100]),
   midi.NoteOnEvent(tick=0, channel=3, data=[56, 100]),
   midi.NoteOnEvent(tick=108, channel=3, data=[56, 0]),
   midi.NoteOnEvent(tick=0, channel=3, data=[51, 0]),
   midi.NoteOnEvent(tick=0, channel=3, data=[44, 0]),
   midi.NoteOnEvent(tick=0, channel=3, data=[40, 100]),
   midi.NoteOnEvent(tick=108, channel=3, data=[40, 0]),
   midi.NoteOnEvent(tick=0, channel=3, data=[52, 100]),
   midi.NoteOnEvent(tick=0, channel=3, data=[47, 100]),
   midi.NoteOnEvent(tick=0, channel=3, data=[40, 100]),
   midi.NoteOnEvent(tick=54, channel=3, data=[40, 0]),
   midi.NoteOnEvent(tick=0, channel=3, data=[47, 0]),
   midi.NoteOnEvent(tick=0, channel=3, data=[52, 0]),
   midi.NoteOnEvent(tick=0, channel=3, data=[47, 100]),
   midi.NoteOnEvent(tick=0, channel=3, data=[52, 100]),
   midi.NoteOnEvent(tick=0, channel=3, data=[40, 100]),
   midi.NoteOnEvent(tick=54, channel=3, data=[40, 0]),
   midi.NoteOnEvent(tick=0, channel=3, data=[52, 0]),
   midi.NoteOnEvent(tick=0, channel=3, data=[47, 0]),
   midi.NoteOnEvent(tick=0, channel=3, data=[40, 100]),
   midi.NoteOnEvent(tick=108, channel=3, data=[40, 0]),
   midi.NoteOnEvent(tick=0, channel=3, data=[52, 100]),
   midi.NoteOnEvent(tick=0, channel=3, data=[47, 100]),
   midi.NoteOnEvent(tick=0, channel=3, data=[40, 100]),
   midi.NoteOnEvent(tick=54, channel=3, data=[40, 0]),
   midi.NoteOnEvent(tick=0, channel=3, data=[47, 0]),
   midi.NoteOnEvent(tick=0, channel=3, data=[52, 0]),
   midi.NoteOnEvent(tick=0, channel=3, data=[47, 100]),
   midi.NoteOnEvent(tick=0, channel=3, data=[52, 100]),
   midi.NoteOnEvent(tick=0, channel=3, data=[40, 100]),
   midi.NoteOnEvent(tick=54, channel=3, data=[40, 0]),
   midi.NoteOnEvent(tick=0, channel=3, data=[52, 0]),
   midi.NoteOnEvent(tick=0, channel=3, data=[47, 0]),
   midi.NoteOnEvent(tick=0, channel=3, data=[40, 100]),
   midi.NoteOnEvent(tick=108, channel=3, data=[40, 0]),
   midi.NoteOnEvent(tick=0, channel=3, data=[46, 100]),
   midi.NoteOnEvent(tick=0, channel=3, data=[53, 100]),
   midi.NoteOnEvent(tick=0, channel=3, data=[58, 100]),
   midi.NoteOnEvent(tick=108, channel=3, data=[58, 0]),
   midi.NoteOnEvent(tick=0, channel=3, data=[53, 0]),
   midi.NoteOnEvent(tick=0, channel=3, data=[46, 0]),
   midi.NoteOnEvent(tick=0, channel=3, data=[46, 100]),
   midi.NoteOnEvent(tick=0, channel=3, data=[53, 100]),
   midi.NoteOnEvent(tick=0, channel=3, data=[58, 100]),
   midi.NoteOnEvent(tick=108, channel=3, data=[58, 0]),
   midi.NoteOnEvent(tick=0, channel=3, data=[53, 0]),
   midi.NoteOnEvent(tick=0, channel=3, data=[46, 0]),
   midi.NoteOnEvent(tick=0, channel=3, data=[45, 100]),
   midi.NoteOnEvent(tick=0, channel=3, data=[52, 100]),
   midi.NoteOnEvent(tick=0, channel=3, data=[57, 100]),
   midi.NoteOnEvent(tick=108, channel=3, data=[57, 0]),
   midi.NoteOnEvent(tick=0, channel=3, data=[52, 0]),
   midi.NoteOnEvent(tick=0, channel=3, data=[45, 0]),
   midi.NoteOnEvent(tick=0, channel=3, data=[40, 100]),
   midi.NoteOnEvent(tick=108, channel=3, data=[40, 0]),
   midi.NoteOnEvent(tick=0, channel=3, data=[52, 100]),
   midi.NoteOnEvent(tick=0, channel=3, data=[47, 100]),
   midi.NoteOnEvent(tick=0, channel=3, data=[40, 100]),
   midi.NoteOnEvent(tick=54, channel=3, data=[40, 0]),
   midi.NoteOnEvent(tick=0, channel=3, data=[47, 0]),
   midi.NoteOnEvent(tick=0, channel=3, data=[52, 0]),
   midi.NoteOnEvent(tick=0, channel=3, data=[47, 100]),
   midi.NoteOnEvent(tick=0, channel=3, data=[52, 100]),
   midi.NoteOnEvent(tick=0, channel=3, data=[40, 100]),
   midi.NoteOnEvent(tick=54, channel=3, data=[40, 0]),
   midi.NoteOnEvent(tick=0, channel=3, data=[52, 0]),
   midi.NoteOnEvent(tick=0, channel=3, data=[47, 0]),
   midi.NoteOnEvent(tick=0, channel=3, data=[40, 100]),
   midi.NoteOnEvent(tick=108, channel=3, data=[40, 0]),
   midi.NoteOnEvent(tick=0, channel=3, data=[52, 100]),
   midi.NoteOnEvent(tick=0, channel=3, data=[47, 100]),
   midi.NoteOnEvent(tick=0, channel=3, data=[40, 100]),
   midi.NoteOnEvent(tick=54, channel=3, data=[40, 0]),
   midi.NoteOnEvent(tick=0, channel=3, data=[47, 0]),
   midi.NoteOnEvent(tick=0, channel=3, data=[52, 0]),
   midi.NoteOnEvent(tick=0, channel=3, data=[52, 100]),
   midi.NoteOnEvent(tick=0, channel=3, data=[47, 100]),
   midi.NoteOnEvent(tick=0, channel=3, data=[40, 100]),
   midi.NoteOnEvent(tick=54, channel=3, data=[40, 0]),
   midi.NoteOnEvent(tick=0, channel=3, data=[47, 0]),
   midi.NoteOnEvent(tick=0, channel=3, data=[52, 0]),
   midi.NoteOnEvent(tick=0, channel=3, data=[40, 100]),
   midi.NoteOnEvent(tick=108, channel=3, data=[40, 0]),
   midi.NoteOnEvent(tick=0, channel=3, data=[52, 100]),
   midi.NoteOnEvent(tick=0, channel=3, data=[55, 100]),
   midi.NoteOnEvent(tick=108, channel=3, data=[55, 0]),
   midi.NoteOnEvent(tick=0, channel=3, data=[52, 0]),
   midi.NoteOnEvent(tick=0, channel=3, data=[52, 100]),
   midi.NoteOnEvent(tick=0, channel=3, data=[55, 100]),
   midi.NoteOnEvent(tick=108, channel=3, data=[55, 0]),
   midi.NoteOnEvent(tick=0, channel=3, data=[52, 0]),
   midi.NoteOnEvent(tick=0, channel=3, data=[54, 100]),
   midi.NoteOnEvent(tick=0, channel=3, data=[51, 100]),
   midi.NoteOnEvent(tick=108, channel=3, data=[51, 0]),
   midi.NoteOnEvent(tick=0, channel=3, data=[54, 0]),
   midi.NoteOnEvent(tick=0, channel=3, data=[52, 100]),
   midi.NoteOnEvent(tick=0, channel=3, data=[55, 100]),
   midi.NoteOnEvent(tick=108, channel=3, data=[55, 0]),
   midi.NoteOnEvent(tick=0, channel=3, data=[52, 0]),
   midi.NoteOnEvent(tick=0, channel=3, data=[52, 100]),
   midi.NoteOnEvent(tick=0, channel=3, data=[47, 100]),
   midi.NoteOnEvent(tick=0, channel=3, data=[40, 100]),
   midi.NoteOnEvent(tick=54, channel=3, data=[40, 0]),
   midi.NoteOnEvent(tick=0, channel=3, data=[47, 0]),
   midi.NoteOnEvent(tick=0, channel=3, data=[52, 0]),
   midi.NoteOnEvent(tick=0, channel=3, data=[47, 100]),
   midi.NoteOnEvent(tick=0, channel=3, data=[52, 100]),
   midi.NoteOnEvent(tick=0, channel=3, data=[40, 100]),
   midi.NoteOnEvent(tick=54, channel=3, data=[40, 0]),
   midi.NoteOnEvent(tick=0, channel=3, data=[52, 0]),
   midi.NoteOnEvent(tick=0, channel=3, data=[47, 0]),
   midi.NoteOnEvent(tick=0, channel=3, data=[40, 100]),
   midi.NoteOnEvent(tick=108, channel=3, data=[40, 0]),
   midi.NoteOnEvent(tick=0, channel=3, data=[52, 100]),
   midi.NoteOnEvent(tick=0, channel=3, data=[47, 100]),
   midi.NoteOnEvent(tick=0, channel=3, data=[40, 100]),
   midi.NoteOnEvent(tick=54, channel=3, data=[40, 0]),
   midi.NoteOnEvent(tick=0, channel=3, data=[47, 0]),
   midi.NoteOnEvent(tick=0, channel=3, data=[52, 0]),
   midi.NoteOnEvent(tick=0, channel=3, data=[52, 100]),
   midi.NoteOnEvent(tick=0, channel=3, data=[47, 100]),
   midi.NoteOnEvent(tick=0, channel=3, data=[40, 100]),
   midi.NoteOnEvent(tick=54, channel=3, data=[40, 0]),
   midi.NoteOnEvent(tick=0, channel=3, data=[47, 0]),
   midi.NoteOnEvent(tick=0, channel=3, data=[52, 0]),
   midi.NoteOnEvent(tick=0, channel=3, data=[40, 100]),
   midi.NoteOnEvent(tick=108, channel=3, data=[40, 0]),
   midi.NoteOnEvent(tick=0, channel=3, data=[46, 100]),
   midi.NoteOnEvent(tick=0, channel=3, data=[53, 100]),
   midi.NoteOnEvent(tick=0, channel=3, data=[58, 100]),
   midi.NoteOnEvent(tick=108, channel=3, data=[58, 0]),
   midi.NoteOnEvent(tick=0, channel=3, data=[53, 0]),
   midi.NoteOnEvent(tick=0, channel=3, data=[46, 0]),
   midi.NoteOnEvent(tick=0, channel=3, data=[46, 100]),
   midi.NoteOnEvent(tick=0, channel=3, data=[53, 100]),
   midi.NoteOnEvent(tick=0, channel=3, data=[58, 100]),
   midi.NoteOnEvent(tick=108, channel=3, data=[58, 0]),
   midi.NoteOnEvent(tick=0, channel=3, data=[53, 0]),
   midi.NoteOnEvent(tick=0, channel=3, data=[46, 0]),
   midi.NoteOnEvent(tick=0, channel=3, data=[45, 100]),
   midi.NoteOnEvent(tick=0, channel=3, data=[52, 100]),
   midi.NoteOnEvent(tick=0, channel=3, data=[57, 100]),
   midi.NoteOnEvent(tick=108, channel=3, data=[57, 0]),
   midi.NoteOnEvent(tick=0, channel=3, data=[52, 0]),
   midi.NoteOnEvent(tick=0, channel=3, data=[45, 0]),
   midi.NoteOnEvent(tick=0, channel=3, data=[47, 100]),
   midi.NoteOnEvent(tick=0, channel=3, data=[54, 100]),
   midi.NoteOnEvent(tick=0, channel=3, data=[59, 100]),
   midi.NoteOnEvent(tick=108, channel=3, data=[59, 0]),
   midi.NoteOnEvent(tick=0, channel=3, data=[54, 0]),
   midi.NoteOnEvent(tick=0, channel=3, data=[47, 0]),
   midi.NoteOnEvent(tick=0, channel=3, data=[45, 100]),
   midi.NoteOnEvent(tick=0, channel=3, data=[52, 100]),
   midi.NoteOnEvent(tick=0, channel=3, data=[57, 100]),
   midi.NoteOnEvent(tick=108, channel=3, data=[57, 0]),
   midi.NoteOnEvent(tick=0, channel=3, data=[52, 0]),
   midi.NoteOnEvent(tick=0, channel=3, data=[45, 0]),
   midi.NoteOnEvent(tick=108, channel=3, data=[45, 100]),
   midi.NoteOnEvent(tick=0, channel=3, data=[52, 100]),
   midi.NoteOnEvent(tick=0, channel=3, data=[57, 100]),
   midi.NoteOnEvent(tick=108, channel=3, data=[57, 0]),
   midi.NoteOnEvent(tick=0, channel=3, data=[52, 0]),
   midi.NoteOnEvent(tick=0, channel=3, data=[45, 0]),
   midi.NoteOnEvent(tick=108, channel=3, data=[45, 100]),
   midi.NoteOnEvent(tick=0, channel=3, data=[52, 100]),
   midi.NoteOnEvent(tick=0, channel=3, data=[57, 100]),
   midi.NoteOnEvent(tick=108, channel=3, data=[57, 0]),
   midi.NoteOnEvent(tick=0, channel=3, data=[52, 0]),
   midi.NoteOnEvent(tick=0, channel=3, data=[45, 0]),
   midi.NoteOnEvent(tick=108, channel=3, data=[45, 100]),
   midi.NoteOnEvent(tick=0, channel=3, data=[52, 100]),
   midi.NoteOnEvent(tick=0, channel=3, data=[57, 100]),
   midi.NoteOnEvent(tick=108, channel=3, data=[57, 0]),
   midi.NoteOnEvent(tick=0, channel=3, data=[52, 0]),
   midi.NoteOnEvent(tick=0, channel=3, data=[45, 0]),
   midi.NoteOnEvent(tick=0, channel=3, data=[52, 100]),
   midi.NoteOnEvent(tick=0, channel=3, data=[47, 100]),
   midi.NoteOnEvent(tick=0, channel=3, data=[40, 100]),
   midi.NoteOnEvent(tick=864, channel=3, data=[40, 0]),
   midi.NoteOnEvent(tick=0, channel=3, data=[47, 0]),
   midi.NoteOnEvent(tick=0, channel=3, data=[52, 0]),
   midi.NoteOnEvent(tick=0, channel=3, data=[55, 100]),
   midi.NoteOnEvent(tick=0, channel=3, data=[50, 100]),
   midi.NoteOnEvent(tick=0, channel=3, data=[43, 100]),
   midi.NoteOnEvent(tick=860, channel=3, data=[43, 0]),
   midi.NoteOnEvent(tick=0, channel=3, data=[50, 0]),
   midi.NoteOnEvent(tick=0, channel=3, data=[55, 0]),
   midi.NoteOnEvent(tick=4, channel=3, data=[57, 100]),
   midi.NoteOnEvent(tick=0, channel=3, data=[52, 100]),
   midi.NoteOnEvent(tick=0, channel=3, data=[45, 100]),
   midi.NoteOnEvent(tick=428, channel=3, data=[45, 0]),
   midi.NoteOnEvent(tick=0, channel=3, data=[52, 0]),
   midi.NoteOnEvent(tick=0, channel=3, data=[57, 0]),
   midi.NoteOnEvent(tick=4, channel=3, data=[53, 100]),
   midi.NoteOnEvent(tick=0, channel=3, data=[48, 100]),
   midi.NoteOnEvent(tick=0, channel=3, data=[41, 100]),
   midi.NoteOnEvent(tick=104, channel=3, data=[41, 0]),
   midi.NoteOnEvent(tick=0, channel=3, data=[48, 0]),
   midi.NoteOnEvent(tick=0, channel=3, data=[53, 0]),
   midi.NoteOnEvent(tick=4, channel=3, data=[53, 100]),
   midi.NoteOnEvent(tick=0, channel=3, data=[48, 100]),
   midi.NoteOnEvent(tick=0, channel=3, data=[41, 100]),
   midi.NoteOnEvent(tick=104, channel=3, data=[41, 0]),
   midi.NoteOnEvent(tick=0, channel=3, data=[48, 0]),
   midi.NoteOnEvent(tick=0, channel=3, data=[53, 0]),
   midi.NoteOnEvent(tick=4, channel=3, data=[42, 100]),
   midi.NoteOnEvent(tick=0, channel=3, data=[51, 100]),
   midi.NoteOnEvent(tick=0, channel=3, data=[47, 100]),
   midi.NoteOnEvent(tick=212, channel=3, data=[47, 0]),
   midi.NoteOnEvent(tick=0, channel=3, data=[51, 0]),
   midi.NoteOnEvent(tick=0, channel=3, data=[42, 0]),
   midi.NoteOnEvent(tick=4, channel=3, data=[40, 100]),
   midi.NoteOnEvent(tick=108, channel=3, data=[40, 0]),
   midi.NoteOnEvent(tick=0, channel=3, data=[52, 100]),
   midi.NoteOnEvent(tick=0, channel=3, data=[47, 100]),
   midi.NoteOnEvent(tick=0, channel=3, data=[40, 100]),
   midi.NoteOnEvent(tick=54, channel=3, data=[40, 0]),
   midi.NoteOnEvent(tick=0, channel=3, data=[47, 0]),
   midi.NoteOnEvent(tick=0, channel=3, data=[52, 0]),
   midi.NoteOnEvent(tick=0, channel=3, data=[52, 100]),
   midi.NoteOnEvent(tick=0, channel=3, data=[47, 100]),
   midi.NoteOnEvent(tick=0, channel=3, data=[40, 100]),
   midi.NoteOnEvent(tick=54, channel=3, data=[40, 0]),
   midi.NoteOnEvent(tick=0, channel=3, data=[47, 0]),
   midi.NoteOnEvent(tick=0, channel=3, data=[52, 0]),
   midi.NoteOnEvent(tick=0, channel=3, data=[40, 100]),
   midi.NoteOnEvent(tick=108, channel=3, data=[40, 0]),
   midi.NoteOnEvent(tick=0, channel=3, data=[52, 100]),
   midi.NoteOnEvent(tick=0, channel=3, data=[47, 100]),
   midi.NoteOnEvent(tick=0, channel=3, data=[40, 100]),
   midi.NoteOnEvent(tick=54, channel=3, data=[40, 0]),
   midi.NoteOnEvent(tick=0, channel=3, data=[47, 0]),
   midi.NoteOnEvent(tick=0, channel=3, data=[52, 0]),
   midi.NoteOnEvent(tick=0, channel=3, data=[52, 100]),
   midi.NoteOnEvent(tick=0, channel=3, data=[47, 100]),
   midi.NoteOnEvent(tick=0, channel=3, data=[40, 100]),
   midi.NoteOnEvent(tick=54, channel=3, data=[40, 0]),
   midi.NoteOnEvent(tick=0, channel=3, data=[47, 0]),
   midi.NoteOnEvent(tick=0, channel=3, data=[52, 0]),
   midi.NoteOnEvent(tick=0, channel=3, data=[40, 100]),
   midi.NoteOnEvent(tick=108, channel=3, data=[40, 0]),
   midi.NoteOnEvent(tick=0, channel=3, data=[46, 100]),
   midi.NoteOnEvent(tick=0, channel=3, data=[53, 100]),
   midi.NoteOnEvent(tick=0, channel=3, data=[58, 100]),
   midi.NoteOnEvent(tick=108, channel=3, data=[58, 0]),
   midi.NoteOnEvent(tick=0, channel=3, data=[53, 0]),
   midi.NoteOnEvent(tick=0, channel=3, data=[46, 0]),
   midi.NoteOnEvent(tick=0, channel=3, data=[46, 100]),
   midi.NoteOnEvent(tick=0, channel=3, data=[53, 100]),
   midi.NoteOnEvent(tick=0, channel=3, data=[58, 100]),
   midi.NoteOnEvent(tick=108, channel=3, data=[58, 0]),
   midi.NoteOnEvent(tick=0, channel=3, data=[53, 0]),
   midi.NoteOnEvent(tick=0, channel=3, data=[46, 0]),
   midi.NoteOnEvent(tick=0, channel=3, data=[45, 100]),
   midi.NoteOnEvent(tick=0, channel=3, data=[52, 100]),
   midi.NoteOnEvent(tick=0, channel=3, data=[57, 100]),
   midi.NoteOnEvent(tick=108, channel=3, data=[57, 0]),
   midi.NoteOnEvent(tick=0, channel=3, data=[52, 0]),
   midi.NoteOnEvent(tick=0, channel=3, data=[45, 0]),
   midi.NoteOnEvent(tick=0, channel=3, data=[40, 100]),
   midi.NoteOnEvent(tick=108, channel=3, data=[40, 0]),
   midi.NoteOnEvent(tick=0, channel=3, data=[52, 100]),
   midi.NoteOnEvent(tick=0, channel=3, data=[47, 100]),
   midi.NoteOnEvent(tick=0, channel=3, data=[40, 100]),
   midi.NoteOnEvent(tick=54, channel=3, data=[40, 0]),
   midi.NoteOnEvent(tick=0, channel=3, data=[47, 0]),
   midi.NoteOnEvent(tick=0, channel=3, data=[52, 0]),
   midi.NoteOnEvent(tick=0, channel=3, data=[47, 100]),
   midi.NoteOnEvent(tick=0, channel=3, data=[52, 100]),
   midi.NoteOnEvent(tick=0, channel=3, data=[40, 100]),
   midi.NoteOnEvent(tick=54, channel=3, data=[40, 0]),
   midi.NoteOnEvent(tick=0, channel=3, data=[52, 0]),
   midi.NoteOnEvent(tick=0, channel=3, data=[47, 0]),
   midi.NoteOnEvent(tick=0, channel=3, data=[40, 100]),
   midi.NoteOnEvent(tick=108, channel=3, data=[40, 0]),
   midi.NoteOnEvent(tick=0, channel=3, data=[52, 100]),
   midi.NoteOnEvent(tick=0, channel=3, data=[47, 100]),
   midi.NoteOnEvent(tick=0, channel=3, data=[40, 100]),
   midi.NoteOnEvent(tick=54, channel=3, data=[40, 0]),
   midi.NoteOnEvent(tick=0, channel=3, data=[47, 0]),
   midi.NoteOnEvent(tick=0, channel=3, data=[52, 0]),
   midi.NoteOnEvent(tick=0, channel=3, data=[47, 100]),
   midi.NoteOnEvent(tick=0, channel=3, data=[52, 100]),
   midi.NoteOnEvent(tick=0, channel=3, data=[40, 100]),
   midi.NoteOnEvent(tick=54, channel=3, data=[40, 0]),
   midi.NoteOnEvent(tick=0, channel=3, data=[52, 0]),
   midi.NoteOnEvent(tick=0, channel=3, data=[47, 0]),
   midi.NoteOnEvent(tick=0, channel=3, data=[40, 100]),
   midi.NoteOnEvent(tick=108, channel=3, data=[40, 0]),
   midi.NoteOnEvent(tick=0, channel=3, data=[52, 100]),
   midi.NoteOnEvent(tick=0, channel=3, data=[55, 100]),
   midi.NoteOnEvent(tick=108, channel=3, data=[55, 0]),
   midi.NoteOnEvent(tick=0, channel=3, data=[52, 0]),
   midi.NoteOnEvent(tick=0, channel=3, data=[52, 100]),
   midi.NoteOnEvent(tick=0, channel=3, data=[55, 100]),
   midi.NoteOnEvent(tick=108, channel=3, data=[55, 0]),
   midi.NoteOnEvent(tick=0, channel=3, data=[52, 0]),
   midi.NoteOnEvent(tick=0, channel=3, data=[54, 100]),
   midi.NoteOnEvent(tick=0, channel=3, data=[51, 100]),
   midi.NoteOnEvent(tick=108, channel=3, data=[51, 0]),
   midi.NoteOnEvent(tick=0, channel=3, data=[54, 0]),
   midi.NoteOnEvent(tick=0, channel=3, data=[52, 100]),
   midi.NoteOnEvent(tick=0, channel=3, data=[55, 100]),
   midi.NoteOnEvent(tick=108, channel=3, data=[55, 0]),
   midi.NoteOnEvent(tick=0, channel=3, data=[52, 0]),
   midi.NoteOnEvent(tick=0, channel=3, data=[52, 100]),
   midi.NoteOnEvent(tick=0, channel=3, data=[47, 100]),
   midi.NoteOnEvent(tick=0, channel=3, data=[40, 100]),
   midi.NoteOnEvent(tick=54, channel=3, data=[40, 0]),
   midi.NoteOnEvent(tick=0, channel=3, data=[47, 0]),
   midi.NoteOnEvent(tick=0, channel=3, data=[52, 0]),
   midi.NoteOnEvent(tick=0, channel=3, data=[47, 100]),
   midi.NoteOnEvent(tick=0, channel=3, data=[52, 100]),
   midi.NoteOnEvent(tick=0, channel=3, data=[40, 100]),
   midi.NoteOnEvent(tick=54, channel=3, data=[40, 0]),
   midi.NoteOnEvent(tick=0, channel=3, data=[52, 0]),
   midi.NoteOnEvent(tick=0, channel=3, data=[47, 0]),
   midi.NoteOnEvent(tick=0, channel=3, data=[40, 100]),
   midi.NoteOnEvent(tick=108, channel=3, data=[40, 0]),
   midi.NoteOnEvent(tick=0, channel=3, data=[52, 100]),
   midi.NoteOnEvent(tick=0, channel=3, data=[47, 100]),
   midi.NoteOnEvent(tick=0, channel=3, data=[40, 100]),
   midi.NoteOnEvent(tick=54, channel=3, data=[40, 0]),
   midi.NoteOnEvent(tick=0, channel=3, data=[47, 0]),
   midi.NoteOnEvent(tick=0, channel=3, data=[52, 0]),
   midi.NoteOnEvent(tick=0, channel=3, data=[47, 100]),
   midi.NoteOnEvent(tick=0, channel=3, data=[52, 100]),
   midi.NoteOnEvent(tick=0, channel=3, data=[40, 100]),
   midi.NoteOnEvent(tick=54, channel=3, data=[40, 0]),
   midi.NoteOnEvent(tick=0, channel=3, data=[52, 0]),
   midi.NoteOnEvent(tick=0, channel=3, data=[47, 0]),
   midi.NoteOnEvent(tick=0, channel=3, data=[40, 100]),
   midi.NoteOnEvent(tick=108, channel=3, data=[40, 0]),
   midi.NoteOnEvent(tick=0, channel=3, data=[46, 100]),
   midi.NoteOnEvent(tick=0, channel=3, data=[53, 100]),
   midi.NoteOnEvent(tick=0, channel=3, data=[58, 100]),
   midi.NoteOnEvent(tick=108, channel=3, data=[58, 0]),
   midi.NoteOnEvent(tick=0, channel=3, data=[53, 0]),
   midi.NoteOnEvent(tick=0, channel=3, data=[46, 0]),
   midi.NoteOnEvent(tick=0, channel=3, data=[46, 100]),
   midi.NoteOnEvent(tick=0, channel=3, data=[53, 100]),
   midi.NoteOnEvent(tick=0, channel=3, data=[58, 100]),
   midi.NoteOnEvent(tick=108, channel=3, data=[58, 0]),
   midi.NoteOnEvent(tick=0, channel=3, data=[53, 0]),
   midi.NoteOnEvent(tick=0, channel=3, data=[46, 0]),
   midi.NoteOnEvent(tick=0, channel=3, data=[45, 100]),
   midi.NoteOnEvent(tick=0, channel=3, data=[52, 100]),
   midi.NoteOnEvent(tick=0, channel=3, data=[57, 100]),
   midi.NoteOnEvent(tick=108, channel=3, data=[57, 0]),
   midi.NoteOnEvent(tick=0, channel=3, data=[52, 0]),
   midi.NoteOnEvent(tick=0, channel=3, data=[45, 0]),
   midi.NoteOnEvent(tick=0, channel=3, data=[40, 100]),
   midi.NoteOnEvent(tick=108, channel=3, data=[40, 0]),
   midi.NoteOnEvent(tick=0, channel=3, data=[42, 100]),
   midi.NoteOnEvent(tick=0, channel=3, data=[49, 100]),
   midi.NoteOnEvent(tick=0, channel=3, data=[54, 100]),
   midi.NoteOnEvent(tick=216, channel=3, data=[54, 0]),
   midi.NoteOnEvent(tick=0, channel=3, data=[49, 0]),
   midi.NoteOnEvent(tick=0, channel=3, data=[42, 0]),
   midi.NoteOnEvent(tick=0, channel=3, data=[43, 100]),
   midi.NoteOnEvent(tick=0, channel=3, data=[50, 100]),
   midi.NoteOnEvent(tick=0, channel=3, data=[55, 100]),
   midi.NoteOnEvent(tick=108, channel=3, data=[55, 0]),
   midi.NoteOnEvent(tick=0, channel=3, data=[50, 0]),
   midi.NoteOnEvent(tick=0, channel=3, data=[43, 0]),
   midi.NoteOnEvent(tick=0, channel=3, data=[40, 100]),
   midi.NoteOnEvent(tick=108, channel=3, data=[40, 0]),
   midi.NoteOnEvent(tick=0, channel=3, data=[55, 100]),
   midi.NoteOnEvent(tick=0, channel=3, data=[50, 100]),
   midi.NoteOnEvent(tick=0, channel=3, data=[43, 100]),
   midi.NoteOnEvent(tick=216, channel=3, data=[43, 0]),
   midi.NoteOnEvent(tick=0, channel=3, data=[50, 0]),
   midi.NoteOnEvent(tick=0, channel=3, data=[55, 0]),
   midi.NoteOnEvent(tick=0, channel=3, data=[44, 100]),
   midi.NoteOnEvent(tick=0, channel=3, data=[51, 100]),
   midi.NoteOnEvent(tick=0, channel=3, data=[56, 100]),
   midi.NoteOnEvent(tick=108, channel=3, data=[56, 0]),
   midi.NoteOnEvent(tick=0, channel=3, data=[51, 0]),
   midi.NoteOnEvent(tick=0, channel=3, data=[44, 0]),
   midi.NoteOnEvent(tick=0, channel=3, data=[40, 100]),
   midi.NoteOnEvent(tick=108, channel=3, data=[40, 0]),
   midi.NoteOnEvent(tick=0, channel=3, data=[52, 100]),
   midi.NoteOnEvent(tick=0, channel=3, data=[47, 100]),
   midi.NoteOnEvent(tick=0, channel=3, data=[40, 100]),
   midi.NoteOnEvent(tick=54, channel=3, data=[40, 0]),
   midi.NoteOnEvent(tick=0, channel=3, data=[47, 0]),
   midi.NoteOnEvent(tick=0, channel=3, data=[52, 0]),
   midi.NoteOnEvent(tick=0, channel=3, data=[52, 100]),
   midi.NoteOnEvent(tick=0, channel=3, data=[47, 100]),
   midi.NoteOnEvent(tick=0, channel=3, data=[40, 100]),
   midi.NoteOnEvent(tick=54, channel=3, data=[40, 0]),
   midi.NoteOnEvent(tick=0, channel=3, data=[47, 0]),
   midi.NoteOnEvent(tick=0, channel=3, data=[52, 0]),
   midi.NoteOnEvent(tick=0, channel=3, data=[40, 100]),
   midi.NoteOnEvent(tick=108, channel=3, data=[40, 0]),
   midi.NoteOnEvent(tick=0, channel=3, data=[52, 100]),
   midi.NoteOnEvent(tick=0, channel=3, data=[47, 100]),
   midi.NoteOnEvent(tick=0, channel=3, data=[40, 100]),
   midi.NoteOnEvent(tick=54, channel=3, data=[40, 0]),
   midi.NoteOnEvent(tick=0, channel=3, data=[47, 0]),
   midi.NoteOnEvent(tick=0, channel=3, data=[52, 0]),
   midi.NoteOnEvent(tick=0, channel=3, data=[52, 100]),
   midi.NoteOnEvent(tick=0, channel=3, data=[47, 100]),
   midi.NoteOnEvent(tick=0, channel=3, data=[40, 100]),
   midi.NoteOnEvent(tick=54, channel=3, data=[40, 0]),
   midi.NoteOnEvent(tick=0, channel=3, data=[47, 0]),
   midi.NoteOnEvent(tick=0, channel=3, data=[52, 0]),
   midi.NoteOnEvent(tick=0, channel=3, data=[40, 100]),
   midi.NoteOnEvent(tick=108, channel=3, data=[40, 0]),
   midi.NoteOnEvent(tick=0, channel=3, data=[46, 100]),
   midi.NoteOnEvent(tick=0, channel=3, data=[53, 100]),
   midi.NoteOnEvent(tick=0, channel=3, data=[58, 100]),
   midi.NoteOnEvent(tick=108, channel=3, data=[58, 0]),
   midi.NoteOnEvent(tick=0, channel=3, data=[53, 0]),
   midi.NoteOnEvent(tick=0, channel=3, data=[46, 0]),
   midi.NoteOnEvent(tick=0, channel=3, data=[46, 100]),
   midi.NoteOnEvent(tick=0, channel=3, data=[53, 100]),
   midi.NoteOnEvent(tick=0, channel=3, data=[58, 100]),
   midi.NoteOnEvent(tick=108, channel=3, data=[58, 0]),
   midi.NoteOnEvent(tick=0, channel=3, data=[53, 0]),
   midi.NoteOnEvent(tick=0, channel=3, data=[46, 0]),
   midi.NoteOnEvent(tick=0, channel=3, data=[45, 100]),
   midi.NoteOnEvent(tick=0, channel=3, data=[52, 100]),
   midi.NoteOnEvent(tick=0, channel=3, data=[57, 100]),
   midi.NoteOnEvent(tick=108, channel=3, data=[57, 0]),
   midi.NoteOnEvent(tick=0, channel=3, data=[52, 0]),
   midi.NoteOnEvent(tick=0, channel=3, data=[45, 0]),
   midi.NoteOnEvent(tick=0, channel=3, data=[40, 100]),
   midi.NoteOnEvent(tick=108, channel=3, data=[40, 0]),
   midi.NoteOnEvent(tick=0, channel=3, data=[52, 100]),
   midi.NoteOnEvent(tick=0, channel=3, data=[47, 100]),
   midi.NoteOnEvent(tick=0, channel=3, data=[40, 100]),
   midi.NoteOnEvent(tick=54, channel=3, data=[40, 0]),
   midi.NoteOnEvent(tick=0, channel=3, data=[47, 0]),
   midi.NoteOnEvent(tick=0, channel=3, data=[52, 0]),
   midi.NoteOnEvent(tick=0, channel=3, data=[47, 100]),
   midi.NoteOnEvent(tick=0, channel=3, data=[52, 100]),
   midi.NoteOnEvent(tick=0, channel=3, data=[40, 100]),
   midi.NoteOnEvent(tick=54, channel=3, data=[40, 0]),
   midi.NoteOnEvent(tick=0, channel=3, data=[52, 0]),
   midi.NoteOnEvent(tick=0, channel=3, data=[47, 0]),
   midi.NoteOnEvent(tick=0, channel=3, data=[40, 100]),
   midi.NoteOnEvent(tick=108, channel=3, data=[40, 0]),
   midi.NoteOnEvent(tick=0, channel=3, data=[52, 100]),
   midi.NoteOnEvent(tick=0, channel=3, data=[47, 100]),
   midi.NoteOnEvent(tick=0, channel=3, data=[40, 100]),
   midi.NoteOnEvent(tick=54, channel=3, data=[40, 0]),
   midi.NoteOnEvent(tick=0, channel=3, data=[47, 0]),
   midi.NoteOnEvent(tick=0, channel=3, data=[52, 0]),
   midi.NoteOnEvent(tick=0, channel=3, data=[47, 100]),
   midi.NoteOnEvent(tick=0, channel=3, data=[52, 100]),
   midi.NoteOnEvent(tick=0, channel=3, data=[40, 100]),
   midi.NoteOnEvent(tick=54, channel=3, data=[40, 0]),
   midi.NoteOnEvent(tick=0, channel=3, data=[52, 0]),
   midi.NoteOnEvent(tick=0, channel=3, data=[47, 0]),
   midi.NoteOnEvent(tick=0, channel=3, data=[40, 100]),
   midi.NoteOnEvent(tick=108, channel=3, data=[40, 0]),
   midi.NoteOnEvent(tick=0, channel=3, data=[52, 100]),
   midi.NoteOnEvent(tick=0, channel=3, data=[55, 100]),
   midi.NoteOnEvent(tick=108, channel=3, data=[55, 0]),
   midi.NoteOnEvent(tick=0, channel=3, data=[52, 0]),
   midi.NoteOnEvent(tick=0, channel=3, data=[52, 100]),
   midi.NoteOnEvent(tick=0, channel=3, data=[55, 100]),
   midi.NoteOnEvent(tick=108, channel=3, data=[55, 0]),
   midi.NoteOnEvent(tick=0, channel=3, data=[52, 0]),
   midi.NoteOnEvent(tick=0, channel=3, data=[54, 100]),
   midi.NoteOnEvent(tick=0, channel=3, data=[51, 100]),
   midi.NoteOnEvent(tick=108, channel=3, data=[51, 0]),
   midi.NoteOnEvent(tick=0, channel=3, data=[54, 0]),
   midi.NoteOnEvent(tick=0, channel=3, data=[52, 100]),
   midi.NoteOnEvent(tick=0, channel=3, data=[55, 100]),
   midi.NoteOnEvent(tick=108, channel=3, data=[55, 0]),
   midi.NoteOnEvent(tick=0, channel=3, data=[52, 0]),
   midi.NoteOnEvent(tick=0, channel=3, data=[52, 100]),
   midi.NoteOnEvent(tick=0, channel=3, data=[47, 100]),
   midi.NoteOnEvent(tick=0, channel=3, data=[40, 100]),
   midi.NoteOnEvent(tick=54, channel=3, data=[40, 0]),
   midi.NoteOnEvent(tick=0, channel=3, data=[47, 0]),
   midi.NoteOnEvent(tick=0, channel=3, data=[52, 0]),
   midi.NoteOnEvent(tick=0, channel=3, data=[47, 100]),
   midi.NoteOnEvent(tick=0, channel=3, data=[52, 100]),
   midi.NoteOnEvent(tick=0, channel=3, data=[40, 100]),
   midi.NoteOnEvent(tick=54, channel=3, data=[40, 0]),
   midi.NoteOnEvent(tick=0, channel=3, data=[52, 0]),
   midi.NoteOnEvent(tick=0, channel=3, data=[47, 0]),
   midi.NoteOnEvent(tick=0, channel=3, data=[40, 100]),
   midi.NoteOnEvent(tick=108, channel=3, data=[40, 0]),
   midi.NoteOnEvent(tick=0, channel=3, data=[52, 100]),
   midi.NoteOnEvent(tick=0, channel=3, data=[47, 100]),
   midi.NoteOnEvent(tick=0, channel=3, data=[40, 100]),
   midi.NoteOnEvent(tick=54, channel=3, data=[40, 0]),
   midi.NoteOnEvent(tick=0, channel=3, data=[47, 0]),
   midi.NoteOnEvent(tick=0, channel=3, data=[52, 0]),
   midi.NoteOnEvent(tick=0, channel=3, data=[47, 100]),
   midi.NoteOnEvent(tick=0, channel=3, data=[52, 100]),
   midi.NoteOnEvent(tick=0, channel=3, data=[40, 100]),
   midi.NoteOnEvent(tick=54, channel=3, data=[40, 0]),
   midi.NoteOnEvent(tick=0, channel=3, data=[52, 0]),
   midi.NoteOnEvent(tick=0, channel=3, data=[47, 0]),
   midi.NoteOnEvent(tick=0, channel=3, data=[40, 100]),
   midi.NoteOnEvent(tick=108, channel=3, data=[40, 0]),
   midi.NoteOnEvent(tick=0, channel=3, data=[46, 100]),
   midi.NoteOnEvent(tick=0, channel=3, data=[53, 100]),
   midi.NoteOnEvent(tick=0, channel=3, data=[58, 100]),
   midi.NoteOnEvent(tick=108, channel=3, data=[58, 0]),
   midi.NoteOnEvent(tick=0, channel=3, data=[53, 0]),
   midi.NoteOnEvent(tick=0, channel=3, data=[46, 0]),
   midi.NoteOnEvent(tick=0, channel=3, data=[46, 100]),
   midi.NoteOnEvent(tick=0, channel=3, data=[53, 100]),
   midi.NoteOnEvent(tick=0, channel=3, data=[58, 100]),
   midi.NoteOnEvent(tick=108, channel=3, data=[58, 0]),
   midi.NoteOnEvent(tick=0, channel=3, data=[53, 0]),
   midi.NoteOnEvent(tick=0, channel=3, data=[46, 0]),
   midi.NoteOnEvent(tick=0, channel=3, data=[45, 100]),
   midi.NoteOnEvent(tick=0, channel=3, data=[52, 100]),
   midi.NoteOnEvent(tick=0, channel=3, data=[57, 100]),
   midi.NoteOnEvent(tick=108, channel=3, data=[57, 0]),
   midi.NoteOnEvent(tick=0, channel=3, data=[52, 0]),
   midi.NoteOnEvent(tick=0, channel=3, data=[45, 0]),
   midi.NoteOnEvent(tick=0, channel=3, data=[40, 100]),
   midi.NoteOnEvent(tick=108, channel=3, data=[40, 0]),
   midi.NoteOnEvent(tick=0, channel=3, data=[42, 100]),
   midi.NoteOnEvent(tick=0, channel=3, data=[49, 100]),
   midi.NoteOnEvent(tick=0, channel=3, data=[54, 100]),
   midi.NoteOnEvent(tick=216, channel=3, data=[54, 0]),
   midi.NoteOnEvent(tick=0, channel=3, data=[49, 0]),
   midi.NoteOnEvent(tick=0, channel=3, data=[42, 0]),
   midi.NoteOnEvent(tick=0, channel=3, data=[43, 100]),
   midi.NoteOnEvent(tick=0, channel=3, data=[50, 100]),
   midi.NoteOnEvent(tick=0, channel=3, data=[55, 100]),
   midi.NoteOnEvent(tick=108, channel=3, data=[55, 0]),
   midi.NoteOnEvent(tick=0, channel=3, data=[50, 0]),
   midi.NoteOnEvent(tick=0, channel=3, data=[43, 0]),
   midi.NoteOnEvent(tick=0, channel=3, data=[40, 100]),
   midi.NoteOnEvent(tick=108, channel=3, data=[40, 0]),
   midi.NoteOnEvent(tick=0, channel=3, data=[55, 100]),
   midi.NoteOnEvent(tick=0, channel=3, data=[50, 100]),
   midi.NoteOnEvent(tick=0, channel=3, data=[43, 100]),
   midi.NoteOnEvent(tick=216, channel=3, data=[43, 0]),
   midi.NoteOnEvent(tick=0, channel=3, data=[50, 0]),
   midi.NoteOnEvent(tick=0, channel=3, data=[55, 0]),
   midi.NoteOnEvent(tick=0, channel=3, data=[44, 100]),
   midi.NoteOnEvent(tick=0, channel=3, data=[51, 100]),
   midi.NoteOnEvent(tick=0, channel=3, data=[56, 100]),
   midi.NoteOnEvent(tick=108, channel=3, data=[56, 0]),
   midi.NoteOnEvent(tick=0, channel=3, data=[51, 0]),
   midi.NoteOnEvent(tick=0, channel=3, data=[44, 0]),
   midi.NoteOnEvent(tick=0, channel=3, data=[52, 100]),
   midi.NoteOnEvent(tick=0, channel=3, data=[47, 100]),
   midi.NoteOnEvent(tick=0, channel=3, data=[40, 100]),
   midi.NoteOnEvent(tick=864, channel=3, data=[40, 0]),
   midi.NoteOnEvent(tick=0, channel=3, data=[47, 0]),
   midi.NoteOnEvent(tick=0, channel=3, data=[52, 0]),
   midi.NoteOnEvent(tick=0, channel=3, data=[55, 100]),
   midi.NoteOnEvent(tick=0, channel=3, data=[50, 100]),
   midi.NoteOnEvent(tick=0, channel=3, data=[43, 100]),
   midi.NoteOnEvent(tick=860, channel=3, data=[43, 0]),
   midi.NoteOnEvent(tick=0, channel=3, data=[50, 0]),
   midi.NoteOnEvent(tick=0, channel=3, data=[55, 0]),
   midi.NoteOnEvent(tick=4, channel=3, data=[57, 100]),
   midi.NoteOnEvent(tick=0, channel=3, data=[52, 100]),
   midi.NoteOnEvent(tick=0, channel=3, data=[45, 100]),
   midi.NoteOnEvent(tick=428, channel=3, data=[45, 0]),
   midi.NoteOnEvent(tick=0, channel=3, data=[52, 0]),
   midi.NoteOnEvent(tick=0, channel=3, data=[57, 0]),
   midi.NoteOnEvent(tick=4, channel=3, data=[53, 100]),
   midi.NoteOnEvent(tick=0, channel=3, data=[48, 100]),
   midi.NoteOnEvent(tick=0, channel=3, data=[41, 100]),
   midi.NoteOnEvent(tick=104, channel=3, data=[41, 0]),
   midi.NoteOnEvent(tick=0, channel=3, data=[48, 0]),
   midi.NoteOnEvent(tick=0, channel=3, data=[53, 0]),
   midi.NoteOnEvent(tick=4, channel=3, data=[53, 100]),
   midi.NoteOnEvent(tick=0, channel=3, data=[48, 100]),
   midi.NoteOnEvent(tick=0, channel=3, data=[41, 100]),
   midi.NoteOnEvent(tick=104, channel=3, data=[41, 0]),
   midi.NoteOnEvent(tick=0, channel=3, data=[48, 0]),
   midi.NoteOnEvent(tick=0, channel=3, data=[53, 0]),
   midi.NoteOnEvent(tick=4, channel=3, data=[42, 100]),
   midi.NoteOnEvent(tick=0, channel=3, data=[51, 100]),
   midi.NoteOnEvent(tick=0, channel=3, data=[47, 100]),
   midi.NoteOnEvent(tick=212, channel=3, data=[47, 0]),
   midi.NoteOnEvent(tick=0, channel=3, data=[51, 0]),
   midi.NoteOnEvent(tick=0, channel=3, data=[42, 0]),
   midi.NoteOnEvent(tick=4, channel=3, data=[40, 100]),
   midi.NoteOnEvent(tick=108, channel=3, data=[40, 0]),
   midi.NoteOnEvent(tick=0, channel=3, data=[52, 100]),
   midi.NoteOnEvent(tick=0, channel=3, data=[47, 100]),
   midi.NoteOnEvent(tick=0, channel=3, data=[40, 100]),
   midi.NoteOnEvent(tick=54, channel=3, data=[40, 0]),
   midi.NoteOnEvent(tick=0, channel=3, data=[47, 0]),
   midi.NoteOnEvent(tick=0, channel=3, data=[52, 0]),
   midi.NoteOnEvent(tick=0, channel=3, data=[52, 100]),
   midi.NoteOnEvent(tick=0, channel=3, data=[47, 100]),
   midi.NoteOnEvent(tick=0, channel=3, data=[40, 100]),
   midi.NoteOnEvent(tick=54, channel=3, data=[40, 0]),
   midi.NoteOnEvent(tick=0, channel=3, data=[47, 0]),
   midi.NoteOnEvent(tick=0, channel=3, data=[52, 0]),
   midi.NoteOnEvent(tick=0, channel=3, data=[40, 100]),
   midi.NoteOnEvent(tick=108, channel=3, data=[40, 0]),
   midi.NoteOnEvent(tick=0, channel=3, data=[52, 100]),
   midi.NoteOnEvent(tick=0, channel=3, data=[47, 100]),
   midi.NoteOnEvent(tick=0, channel=3, data=[40, 100]),
   midi.NoteOnEvent(tick=54, channel=3, data=[40, 0]),
   midi.NoteOnEvent(tick=0, channel=3, data=[47, 0]),
   midi.NoteOnEvent(tick=0, channel=3, data=[52, 0]),
   midi.NoteOnEvent(tick=0, channel=3, data=[52, 100]),
   midi.NoteOnEvent(tick=0, channel=3, data=[47, 100]),
   midi.NoteOnEvent(tick=0, channel=3, data=[40, 100]),
   midi.NoteOnEvent(tick=54, channel=3, data=[40, 0]),
   midi.NoteOnEvent(tick=0, channel=3, data=[47, 0]),
   midi.NoteOnEvent(tick=0, channel=3, data=[52, 0]),
   midi.NoteOnEvent(tick=0, channel=3, data=[40, 100]),
   midi.NoteOnEvent(tick=108, channel=3, data=[40, 0]),
   midi.NoteOnEvent(tick=0, channel=3, data=[46, 100]),
   midi.NoteOnEvent(tick=0, channel=3, data=[53, 100]),
   midi.NoteOnEvent(tick=0, channel=3, data=[58, 100]),
   midi.NoteOnEvent(tick=108, channel=3, data=[58, 0]),
   midi.NoteOnEvent(tick=0, channel=3, data=[53, 0]),
   midi.NoteOnEvent(tick=0, channel=3, data=[46, 0]),
   midi.NoteOnEvent(tick=0, channel=3, data=[46, 100]),
   midi.NoteOnEvent(tick=0, channel=3, data=[53, 100]),
   midi.NoteOnEvent(tick=0, channel=3, data=[58, 100]),
   midi.NoteOnEvent(tick=108, channel=3, data=[58, 0]),
   midi.NoteOnEvent(tick=0, channel=3, data=[53, 0]),
   midi.NoteOnEvent(tick=0, channel=3, data=[46, 0]),
   midi.NoteOnEvent(tick=0, channel=3, data=[45, 100]),
   midi.NoteOnEvent(tick=0, channel=3, data=[52, 100]),
   midi.NoteOnEvent(tick=0, channel=3, data=[57, 100]),
   midi.NoteOnEvent(tick=108, channel=3, data=[57, 0]),
   midi.NoteOnEvent(tick=0, channel=3, data=[52, 0]),
   midi.NoteOnEvent(tick=0, channel=3, data=[45, 0]),
   midi.NoteOnEvent(tick=0, channel=3, data=[40, 100]),
   midi.NoteOnEvent(tick=108, channel=3, data=[40, 0]),
   midi.NoteOnEvent(tick=0, channel=3, data=[52, 100]),
   midi.NoteOnEvent(tick=0, channel=3, data=[47, 100]),
   midi.NoteOnEvent(tick=0, channel=3, data=[40, 100]),
   midi.NoteOnEvent(tick=54, channel=3, data=[40, 0]),
   midi.NoteOnEvent(tick=0, channel=3, data=[47, 0]),
   midi.NoteOnEvent(tick=0, channel=3, data=[52, 0]),
   midi.NoteOnEvent(tick=0, channel=3, data=[47, 100]),
   midi.NoteOnEvent(tick=0, channel=3, data=[52, 100]),
   midi.NoteOnEvent(tick=0, channel=3, data=[40, 100]),
   midi.NoteOnEvent(tick=54, channel=3, data=[40, 0]),
   midi.NoteOnEvent(tick=0, channel=3, data=[52, 0]),
   midi.NoteOnEvent(tick=0, channel=3, data=[47, 0]),
   midi.NoteOnEvent(tick=0, channel=3, data=[40, 100]),
   midi.NoteOnEvent(tick=108, channel=3, data=[40, 0]),
   midi.NoteOnEvent(tick=0, channel=3, data=[52, 100]),
   midi.NoteOnEvent(tick=0, channel=3, data=[47, 100]),
   midi.NoteOnEvent(tick=0, channel=3, data=[40, 100]),
   midi.NoteOnEvent(tick=54, channel=3, data=[40, 0]),
   midi.NoteOnEvent(tick=0, channel=3, data=[47, 0]),
   midi.NoteOnEvent(tick=0, channel=3, data=[52, 0]),
   midi.NoteOnEvent(tick=0, channel=3, data=[47, 100]),
   midi.NoteOnEvent(tick=0, channel=3, data=[52, 100]),
   midi.NoteOnEvent(tick=0, channel=3, data=[40, 100]),
   midi.NoteOnEvent(tick=54, channel=3, data=[40, 0]),
   midi.NoteOnEvent(tick=0, channel=3, data=[52, 0]),
   midi.NoteOnEvent(tick=0, channel=3, data=[47, 0]),
   midi.NoteOnEvent(tick=0, channel=3, data=[40, 100]),
   midi.NoteOnEvent(tick=108, channel=3, data=[40, 0]),
   midi.NoteOnEvent(tick=0, channel=3, data=[52, 100]),
   midi.NoteOnEvent(tick=0, channel=3, data=[55, 100]),
   midi.NoteOnEvent(tick=108, channel=3, data=[55, 0]),
   midi.NoteOnEvent(tick=0, channel=3, data=[52, 0]),
   midi.NoteOnEvent(tick=0, channel=3, data=[52, 100]),
   midi.NoteOnEvent(tick=0, channel=3, data=[55, 100]),
   midi.NoteOnEvent(tick=108, channel=3, data=[55, 0]),
   midi.NoteOnEvent(tick=0, channel=3, data=[52, 0]),
   midi.NoteOnEvent(tick=0, channel=3, data=[54, 100]),
   midi.NoteOnEvent(tick=0, channel=3, data=[51, 100]),
   midi.NoteOnEvent(tick=108, channel=3, data=[51, 0]),
   midi.NoteOnEvent(tick=0, channel=3, data=[54, 0]),
   midi.NoteOnEvent(tick=0, channel=3, data=[52, 100]),
   midi.NoteOnEvent(tick=0, channel=3, data=[55, 100]),
   midi.NoteOnEvent(tick=108, channel=3, data=[55, 0]),
   midi.NoteOnEvent(tick=0, channel=3, data=[52, 0]),
   midi.NoteOnEvent(tick=0, channel=3, data=[52, 100]),
   midi.NoteOnEvent(tick=0, channel=3, data=[47, 100]),
   midi.NoteOnEvent(tick=0, channel=3, data=[40, 100]),
   midi.NoteOnEvent(tick=54, channel=3, data=[40, 0]),
   midi.NoteOnEvent(tick=0, channel=3, data=[47, 0]),
   midi.NoteOnEvent(tick=0, channel=3, data=[52, 0]),
   midi.NoteOnEvent(tick=0, channel=3, data=[47, 100]),
   midi.NoteOnEvent(tick=0, channel=3, data=[52, 100]),
   midi.NoteOnEvent(tick=0, channel=3, data=[40, 100]),
   midi.NoteOnEvent(tick=54, channel=3, data=[40, 0]),
   midi.NoteOnEvent(tick=0, channel=3, data=[52, 0]),
   midi.NoteOnEvent(tick=0, channel=3, data=[47, 0]),
   midi.NoteOnEvent(tick=0, channel=3, data=[40, 100]),
   midi.NoteOnEvent(tick=108, channel=3, data=[40, 0]),
   midi.NoteOnEvent(tick=0, channel=3, data=[52, 100]),
   midi.NoteOnEvent(tick=0, channel=3, data=[47, 100]),
   midi.NoteOnEvent(tick=0, channel=3, data=[40, 100]),
   midi.NoteOnEvent(tick=54, channel=3, data=[40, 0]),
   midi.NoteOnEvent(tick=0, channel=3, data=[47, 0]),
   midi.NoteOnEvent(tick=0, channel=3, data=[52, 0]),
   midi.NoteOnEvent(tick=0, channel=3, data=[47, 100]),
   midi.NoteOnEvent(tick=0, channel=3, data=[52, 100]),
   midi.NoteOnEvent(tick=0, channel=3, data=[40, 100]),
   midi.NoteOnEvent(tick=54, channel=3, data=[40, 0]),
   midi.NoteOnEvent(tick=0, channel=3, data=[52, 0]),
   midi.NoteOnEvent(tick=0, channel=3, data=[47, 0]),
   midi.NoteOnEvent(tick=0, channel=3, data=[40, 100]),
   midi.NoteOnEvent(tick=108, channel=3, data=[40, 0]),
   midi.NoteOnEvent(tick=0, channel=3, data=[46, 100]),
   midi.NoteOnEvent(tick=0, channel=3, data=[53, 100]),
   midi.NoteOnEvent(tick=0, channel=3, data=[58, 100]),
   midi.NoteOnEvent(tick=108, channel=3, data=[58, 0]),
   midi.NoteOnEvent(tick=0, channel=3, data=[53, 0]),
   midi.NoteOnEvent(tick=0, channel=3, data=[46, 0]),
   midi.NoteOnEvent(tick=0, channel=3, data=[46, 100]),
   midi.NoteOnEvent(tick=0, channel=3, data=[53, 100]),
   midi.NoteOnEvent(tick=0, channel=3, data=[58, 100]),
   midi.NoteOnEvent(tick=108, channel=3, data=[58, 0]),
   midi.NoteOnEvent(tick=0, channel=3, data=[53, 0]),
   midi.NoteOnEvent(tick=0, channel=3, data=[46, 0]),
   midi.NoteOnEvent(tick=0, channel=3, data=[45, 100]),
   midi.NoteOnEvent(tick=0, channel=3, data=[52, 100]),
   midi.NoteOnEvent(tick=0, channel=3, data=[57, 100]),
   midi.NoteOnEvent(tick=108, channel=3, data=[57, 0]),
   midi.NoteOnEvent(tick=0, channel=3, data=[52, 0]),
   midi.NoteOnEvent(tick=0, channel=3, data=[45, 0]),
   midi.NoteOnEvent(tick=0, channel=3, data=[40, 100]),
   midi.NoteOnEvent(tick=108, channel=3, data=[40, 0]),
   midi.NoteOnEvent(tick=0, channel=3, data=[42, 100]),
   midi.NoteOnEvent(tick=0, channel=3, data=[49, 100]),
   midi.NoteOnEvent(tick=0, channel=3, data=[54, 100]),
   midi.NoteOnEvent(tick=216, channel=3, data=[54, 0]),
   midi.NoteOnEvent(tick=0, channel=3, data=[49, 0]),
   midi.NoteOnEvent(tick=0, channel=3, data=[42, 0]),
   midi.NoteOnEvent(tick=0, channel=3, data=[43, 100]),
   midi.NoteOnEvent(tick=0, channel=3, data=[50, 100]),
   midi.NoteOnEvent(tick=0, channel=3, data=[55, 100]),
   midi.NoteOnEvent(tick=108, channel=3, data=[55, 0]),
   midi.NoteOnEvent(tick=0, channel=3, data=[50, 0]),
   midi.NoteOnEvent(tick=0, channel=3, data=[43, 0]),
   midi.NoteOnEvent(tick=0, channel=3, data=[40, 100]),
   midi.NoteOnEvent(tick=108, channel=3, data=[40, 0]),
   midi.NoteOnEvent(tick=0, channel=3, data=[55, 100]),
   midi.NoteOnEvent(tick=0, channel=3, data=[50, 100]),
   midi.NoteOnEvent(tick=0, channel=3, data=[43, 100]),
   midi.NoteOnEvent(tick=216, channel=3, data=[43, 0]),
   midi.NoteOnEvent(tick=0, channel=3, data=[50, 0]),
   midi.NoteOnEvent(tick=0, channel=3, data=[55, 0]),
   midi.NoteOnEvent(tick=0, channel=3, data=[44, 100]),
   midi.NoteOnEvent(tick=0, channel=3, data=[51, 100]),
   midi.NoteOnEvent(tick=0, channel=3, data=[56, 100]),
   midi.NoteOnEvent(tick=108, channel=3, data=[56, 0]),
   midi.NoteOnEvent(tick=0, channel=3, data=[51, 0]),
   midi.NoteOnEvent(tick=0, channel=3, data=[44, 0]),
   midi.NoteOnEvent(tick=0, channel=3, data=[52, 100]),
   midi.NoteOnEvent(tick=0, channel=3, data=[47, 100]),
   midi.NoteOnEvent(tick=0, channel=3, data=[40, 100]),
   midi.NoteOnEvent(tick=864, channel=3, data=[40, 0]),
   midi.NoteOnEvent(tick=0, channel=3, data=[47, 0]),
   midi.NoteOnEvent(tick=0, channel=3, data=[52, 0]),
   midi.NoteOnEvent(tick=0, channel=3, data=[55, 100]),
   midi.NoteOnEvent(tick=0, channel=3, data=[50, 100]),
   midi.NoteOnEvent(tick=0, channel=3, data=[43, 100]),
   midi.NoteOnEvent(tick=860, channel=3, data=[43, 0]),
   midi.NoteOnEvent(tick=0, channel=3, data=[50, 0]),
   midi.NoteOnEvent(tick=0, channel=3, data=[55, 0]),
   midi.NoteOnEvent(tick=4, channel=3, data=[57, 100]),
   midi.NoteOnEvent(tick=0, channel=3, data=[52, 100]),
   midi.NoteOnEvent(tick=0, channel=3, data=[45, 100]),
   midi.NoteOnEvent(tick=428, channel=3, data=[45, 0]),
   midi.NoteOnEvent(tick=0, channel=3, data=[52, 0]),
   midi.NoteOnEvent(tick=0, channel=3, data=[57, 0]),
   midi.NoteOnEvent(tick=4, channel=3, data=[53, 100]),
   midi.NoteOnEvent(tick=0, channel=3, data=[48, 100]),
   midi.NoteOnEvent(tick=0, channel=3, data=[41, 100]),
   midi.NoteOnEvent(tick=104, channel=3, data=[41, 0]),
   midi.NoteOnEvent(tick=0, channel=3, data=[48, 0]),
   midi.NoteOnEvent(tick=0, channel=3, data=[53, 0]),
   midi.NoteOnEvent(tick=4, channel=3, data=[53, 100]),
   midi.NoteOnEvent(tick=0, channel=3, data=[48, 100]),
   midi.NoteOnEvent(tick=0, channel=3, data=[41, 100]),
   midi.NoteOnEvent(tick=104, channel=3, data=[41, 0]),
   midi.NoteOnEvent(tick=0, channel=3, data=[48, 0]),
   midi.NoteOnEvent(tick=0, channel=3, data=[53, 0]),
   midi.NoteOnEvent(tick=4, channel=3, data=[42, 100]),
   midi.NoteOnEvent(tick=0, channel=3, data=[51, 100]),
   midi.NoteOnEvent(tick=0, channel=3, data=[47, 100]),
   midi.NoteOnEvent(tick=212, channel=3, data=[47, 0]),
   midi.NoteOnEvent(tick=0, channel=3, data=[51, 0]),
   midi.NoteOnEvent(tick=0, channel=3, data=[42, 0]),
   midi.NoteOnEvent(tick=4, channel=3, data=[40, 100]),
   midi.NoteOnEvent(tick=108, channel=3, data=[40, 0]),
   midi.NoteOnEvent(tick=0, channel=3, data=[52, 100]),
   midi.NoteOnEvent(tick=0, channel=3, data=[47, 100]),
   midi.NoteOnEvent(tick=0, channel=3, data=[40, 100]),
   midi.NoteOnEvent(tick=54, channel=3, data=[40, 0]),
   midi.NoteOnEvent(tick=0, channel=3, data=[47, 0]),
   midi.NoteOnEvent(tick=0, channel=3, data=[52, 0]),
   midi.NoteOnEvent(tick=0, channel=3, data=[52, 100]),
   midi.NoteOnEvent(tick=0, channel=3, data=[47, 100]),
   midi.NoteOnEvent(tick=0, channel=3, data=[40, 100]),
   midi.NoteOnEvent(tick=54, channel=3, data=[40, 0]),
   midi.NoteOnEvent(tick=0, channel=3, data=[47, 0]),
   midi.NoteOnEvent(tick=0, channel=3, data=[52, 0]),
   midi.NoteOnEvent(tick=0, channel=3, data=[40, 100]),
   midi.NoteOnEvent(tick=108, channel=3, data=[40, 0]),
   midi.NoteOnEvent(tick=0, channel=3, data=[52, 100]),
   midi.NoteOnEvent(tick=0, channel=3, data=[47, 100]),
   midi.NoteOnEvent(tick=0, channel=3, data=[40, 100]),
   midi.NoteOnEvent(tick=54, channel=3, data=[40, 0]),
   midi.NoteOnEvent(tick=0, channel=3, data=[47, 0]),
   midi.NoteOnEvent(tick=0, channel=3, data=[52, 0]),
   midi.NoteOnEvent(tick=0, channel=3, data=[52, 100]),
   midi.NoteOnEvent(tick=0, channel=3, data=[47, 100]),
   midi.NoteOnEvent(tick=0, channel=3, data=[40, 100]),
   midi.NoteOnEvent(tick=54, channel=3, data=[40, 0]),
   midi.NoteOnEvent(tick=0, channel=3, data=[47, 0]),
   midi.NoteOnEvent(tick=0, channel=3, data=[52, 0]),
   midi.NoteOnEvent(tick=0, channel=3, data=[40, 100]),
   midi.NoteOnEvent(tick=108, channel=3, data=[40, 0]),
   midi.NoteOnEvent(tick=0, channel=3, data=[46, 100]),
   midi.NoteOnEvent(tick=0, channel=3, data=[53, 100]),
   midi.NoteOnEvent(tick=0, channel=3, data=[58, 100]),
   midi.NoteOnEvent(tick=108, channel=3, data=[58, 0]),
   midi.NoteOnEvent(tick=0, channel=3, data=[53, 0]),
   midi.NoteOnEvent(tick=0, channel=3, data=[46, 0]),
   midi.NoteOnEvent(tick=0, channel=3, data=[46, 100]),
   midi.NoteOnEvent(tick=0, channel=3, data=[53, 100]),
   midi.NoteOnEvent(tick=0, channel=3, data=[58, 100]),
   midi.NoteOnEvent(tick=108, channel=3, data=[58, 0]),
   midi.NoteOnEvent(tick=0, channel=3, data=[53, 0]),
   midi.NoteOnEvent(tick=0, channel=3, data=[46, 0]),
   midi.NoteOnEvent(tick=0, channel=3, data=[45, 100]),
   midi.NoteOnEvent(tick=0, channel=3, data=[52, 100]),
   midi.NoteOnEvent(tick=0, channel=3, data=[57, 100]),
   midi.NoteOnEvent(tick=108, channel=3, data=[57, 0]),
   midi.NoteOnEvent(tick=0, channel=3, data=[52, 0]),
   midi.NoteOnEvent(tick=0, channel=3, data=[45, 0]),
   midi.NoteOnEvent(tick=0, channel=3, data=[40, 100]),
   midi.NoteOnEvent(tick=108, channel=3, data=[40, 0]),
   midi.NoteOnEvent(tick=0, channel=3, data=[52, 100]),
   midi.NoteOnEvent(tick=0, channel=3, data=[47, 100]),
   midi.NoteOnEvent(tick=0, channel=3, data=[40, 100]),
   midi.NoteOnEvent(tick=54, channel=3, data=[40, 0]),
   midi.NoteOnEvent(tick=0, channel=3, data=[47, 0]),
   midi.NoteOnEvent(tick=0, channel=3, data=[52, 0]),
   midi.NoteOnEvent(tick=0, channel=3, data=[47, 100]),
   midi.NoteOnEvent(tick=0, channel=3, data=[52, 100]),
   midi.NoteOnEvent(tick=0, channel=3, data=[40, 100]),
   midi.NoteOnEvent(tick=54, channel=3, data=[40, 0]),
   midi.NoteOnEvent(tick=0, channel=3, data=[52, 0]),
   midi.NoteOnEvent(tick=0, channel=3, data=[47, 0]),
   midi.NoteOnEvent(tick=0, channel=3, data=[40, 100]),
   midi.NoteOnEvent(tick=108, channel=3, data=[40, 0]),
   midi.NoteOnEvent(tick=0, channel=3, data=[52, 100]),
   midi.NoteOnEvent(tick=0, channel=3, data=[47, 100]),
   midi.NoteOnEvent(tick=0, channel=3, data=[40, 100]),
   midi.NoteOnEvent(tick=54, channel=3, data=[40, 0]),
   midi.NoteOnEvent(tick=0, channel=3, data=[47, 0]),
   midi.NoteOnEvent(tick=0, channel=3, data=[52, 0]),
   midi.NoteOnEvent(tick=0, channel=3, data=[47, 100]),
   midi.NoteOnEvent(tick=0, channel=3, data=[52, 100]),
   midi.NoteOnEvent(tick=0, channel=3, data=[40, 100]),
   midi.NoteOnEvent(tick=54, channel=3, data=[40, 0]),
   midi.NoteOnEvent(tick=0, channel=3, data=[52, 0]),
   midi.NoteOnEvent(tick=0, channel=3, data=[47, 0]),
   midi.NoteOnEvent(tick=0, channel=3, data=[40, 100]),
   midi.NoteOnEvent(tick=108, channel=3, data=[40, 0]),
   midi.NoteOnEvent(tick=0, channel=3, data=[52, 100]),
   midi.NoteOnEvent(tick=0, channel=3, data=[55, 100]),
   midi.NoteOnEvent(tick=108, channel=3, data=[55, 0]),
   midi.NoteOnEvent(tick=0, channel=3, data=[52, 0]),
   midi.NoteOnEvent(tick=0, channel=3, data=[52, 100]),
   midi.NoteOnEvent(tick=0, channel=3, data=[55, 100]),
   midi.NoteOnEvent(tick=108, channel=3, data=[55, 0]),
   midi.NoteOnEvent(tick=0, channel=3, data=[52, 0]),
   midi.NoteOnEvent(tick=0, channel=3, data=[54, 100]),
   midi.NoteOnEvent(tick=0, channel=3, data=[51, 100]),
   midi.NoteOnEvent(tick=108, channel=3, data=[51, 0]),
   midi.NoteOnEvent(tick=0, channel=3, data=[54, 0]),
   midi.NoteOnEvent(tick=0, channel=3, data=[52, 100]),
   midi.NoteOnEvent(tick=0, channel=3, data=[47, 100]),
   midi.NoteOnEvent(tick=0, channel=3, data=[40, 100]),
   midi.NoteOnEvent(tick=432, channel=3, data=[40, 0]),
   midi.NoteOnEvent(tick=0, channel=3, data=[47, 0]),
   midi.NoteOnEvent(tick=0, channel=3, data=[52, 0]),
   midi.NoteOnEvent(tick=0, channel=3, data=[59, 100]),
   midi.NoteOnEvent(tick=0, channel=3, data=[54, 100]),
   midi.NoteOnEvent(tick=0, channel=3, data=[47, 100]),
   midi.NoteOnEvent(tick=432, channel=3, data=[47, 0]),
   midi.NoteOnEvent(tick=0, channel=3, data=[54, 0]),
   midi.NoteOnEvent(tick=0, channel=3, data=[59, 0]),
   midi.NoteOnEvent(tick=0, channel=3, data=[43, 100]),
   midi.NoteOnEvent(tick=0, channel=3, data=[50, 100]),
   midi.NoteOnEvent(tick=0, channel=3, data=[55, 100]),
   midi.NoteOnEvent(tick=432, channel=3, data=[55, 0]),
   midi.NoteOnEvent(tick=0, channel=3, data=[50, 0]),
   midi.NoteOnEvent(tick=0, channel=3, data=[43, 0]),
   midi.NoteOnEvent(tick=0, channel=3, data=[55, 100]),
   midi.NoteOnEvent(tick=0, channel=3, data=[52, 100]),
   midi.NoteOnEvent(tick=0, channel=3, data=[40, 100]),
   midi.NoteOnEvent(tick=216, channel=3, data=[40, 0]),
   midi.NoteOnEvent(tick=0, channel=3, data=[52, 0]),
   midi.NoteOnEvent(tick=0, channel=3, data=[55, 0]),
   midi.NoteOnEvent(tick=0, channel=3, data=[50, 100]),
   midi.NoteOnEvent(tick=0, channel=3, data=[42, 100]),
   midi.NoteOnEvent(tick=0, channel=3, data=[47, 100]),
   midi.NoteOnEvent(tick=216, channel=3, data=[47, 0]),
   midi.NoteOnEvent(tick=0, channel=3, data=[42, 0]),
   midi.NoteOnEvent(tick=0, channel=3, data=[50, 0]),
   midi.NoteOnEvent(tick=0, channel=3, data=[40, 100]),
   midi.NoteOnEvent(tick=108, channel=3, data=[40, 0]),
   midi.NoteOnEvent(tick=0, channel=3, data=[52, 100]),
   midi.NoteOnEvent(tick=0, channel=3, data=[47, 100]),
   midi.NoteOnEvent(tick=0, channel=3, data=[40, 100]),
   midi.NoteOnEvent(tick=54, channel=3, data=[40, 0]),
   midi.NoteOnEvent(tick=0, channel=3, data=[47, 0]),
   midi.NoteOnEvent(tick=0, channel=3, data=[52, 0]),
   midi.NoteOnEvent(tick=0, channel=3, data=[52, 100]),
   midi.NoteOnEvent(tick=0, channel=3, data=[47, 100]),
   midi.NoteOnEvent(tick=0, channel=3, data=[40, 100]),
   midi.NoteOnEvent(tick=54, channel=3, data=[40, 0]),
   midi.NoteOnEvent(tick=0, channel=3, data=[47, 0]),
   midi.NoteOnEvent(tick=0, channel=3, data=[52, 0]),
   midi.NoteOnEvent(tick=0, channel=3, data=[40, 100]),
   midi.NoteOnEvent(tick=108, channel=3, data=[40, 0]),
   midi.NoteOnEvent(tick=0, channel=3, data=[52, 100]),
   midi.NoteOnEvent(tick=0, channel=3, data=[47, 100]),
   midi.NoteOnEvent(tick=0, channel=3, data=[40, 100]),
   midi.NoteOnEvent(tick=54, channel=3, data=[40, 0]),
   midi.NoteOnEvent(tick=0, channel=3, data=[47, 0]),
   midi.NoteOnEvent(tick=0, channel=3, data=[52, 0]),
   midi.NoteOnEvent(tick=0, channel=3, data=[52, 100]),
   midi.NoteOnEvent(tick=0, channel=3, data=[47, 100]),
   midi.NoteOnEvent(tick=0, channel=3, data=[40, 100]),
   midi.NoteOnEvent(tick=54, channel=3, data=[40, 0]),
   midi.NoteOnEvent(tick=0, channel=3, data=[47, 0]),
   midi.NoteOnEvent(tick=0, channel=3, data=[52, 0]),
   midi.NoteOnEvent(tick=0, channel=3, data=[40, 100]),
   midi.NoteOnEvent(tick=108, channel=3, data=[40, 0]),
   midi.NoteOnEvent(tick=0, channel=3, data=[46, 100]),
   midi.NoteOnEvent(tick=0, channel=3, data=[53, 100]),
   midi.NoteOnEvent(tick=0, channel=3, data=[58, 100]),
   midi.NoteOnEvent(tick=108, channel=3, data=[58, 0]),
   midi.NoteOnEvent(tick=0, channel=3, data=[53, 0]),
   midi.NoteOnEvent(tick=0, channel=3, data=[46, 0]),
   midi.NoteOnEvent(tick=0, channel=3, data=[46, 100]),
   midi.NoteOnEvent(tick=0, channel=3, data=[53, 100]),
   midi.NoteOnEvent(tick=0, channel=3, data=[58, 100]),
   midi.NoteOnEvent(tick=108, channel=3, data=[58, 0]),
   midi.NoteOnEvent(tick=0, channel=3, data=[53, 0]),
   midi.NoteOnEvent(tick=0, channel=3, data=[46, 0]),
   midi.NoteOnEvent(tick=0, channel=3, data=[45, 100]),
   midi.NoteOnEvent(tick=0, channel=3, data=[52, 100]),
   midi.NoteOnEvent(tick=0, channel=3, data=[57, 100]),
   midi.NoteOnEvent(tick=108, channel=3, data=[57, 0]),
   midi.NoteOnEvent(tick=0, channel=3, data=[52, 0]),
   midi.NoteOnEvent(tick=0, channel=3, data=[45, 0]),
   midi.NoteOnEvent(tick=0, channel=3, data=[40, 100]),
   midi.NoteOnEvent(tick=108, channel=3, data=[40, 0]),
   midi.NoteOnEvent(tick=0, channel=3, data=[52, 100]),
   midi.NoteOnEvent(tick=0, channel=3, data=[47, 100]),
   midi.NoteOnEvent(tick=0, channel=3, data=[40, 100]),
   midi.NoteOnEvent(tick=54, channel=3, data=[40, 0]),
   midi.NoteOnEvent(tick=0, channel=3, data=[47, 0]),
   midi.NoteOnEvent(tick=0, channel=3, data=[52, 0]),
   midi.NoteOnEvent(tick=0, channel=3, data=[47, 100]),
   midi.NoteOnEvent(tick=0, channel=3, data=[52, 100]),
   midi.NoteOnEvent(tick=0, channel=3, data=[40, 100]),
   midi.NoteOnEvent(tick=54, channel=3, data=[40, 0]),
   midi.NoteOnEvent(tick=0, channel=3, data=[52, 0]),
   midi.NoteOnEvent(tick=0, channel=3, data=[47, 0]),
   midi.NoteOnEvent(tick=0, channel=3, data=[40, 100]),
   midi.NoteOnEvent(tick=108, channel=3, data=[40, 0]),
   midi.NoteOnEvent(tick=0, channel=3, data=[52, 100]),
   midi.NoteOnEvent(tick=0, channel=3, data=[47, 100]),
   midi.NoteOnEvent(tick=0, channel=3, data=[40, 100]),
   midi.NoteOnEvent(tick=54, channel=3, data=[40, 0]),
   midi.NoteOnEvent(tick=0, channel=3, data=[47, 0]),
   midi.NoteOnEvent(tick=0, channel=3, data=[52, 0]),
   midi.NoteOnEvent(tick=0, channel=3, data=[47, 100]),
   midi.NoteOnEvent(tick=0, channel=3, data=[52, 100]),
   midi.NoteOnEvent(tick=0, channel=3, data=[40, 100]),
   midi.NoteOnEvent(tick=54, channel=3, data=[40, 0]),
   midi.NoteOnEvent(tick=0, channel=3, data=[52, 0]),
   midi.NoteOnEvent(tick=0, channel=3, data=[47, 0]),
   midi.NoteOnEvent(tick=0, channel=3, data=[40, 100]),
   midi.NoteOnEvent(tick=108, channel=3, data=[40, 0]),
   midi.NoteOnEvent(tick=0, channel=3, data=[52, 100]),
   midi.NoteOnEvent(tick=0, channel=3, data=[55, 100]),
   midi.NoteOnEvent(tick=108, channel=3, data=[55, 0]),
   midi.NoteOnEvent(tick=0, channel=3, data=[52, 0]),
   midi.NoteOnEvent(tick=0, channel=3, data=[52, 100]),
   midi.NoteOnEvent(tick=0, channel=3, data=[55, 100]),
   midi.NoteOnEvent(tick=108, channel=3, data=[55, 0]),
   midi.NoteOnEvent(tick=0, channel=3, data=[52, 0]),
   midi.NoteOnEvent(tick=0, channel=3, data=[54, 100]),
   midi.NoteOnEvent(tick=0, channel=3, data=[51, 100]),
   midi.NoteOnEvent(tick=108, channel=3, data=[51, 0]),
   midi.NoteOnEvent(tick=0, channel=3, data=[54, 0]),
   midi.NoteOnEvent(tick=0, channel=3, data=[40, 100]),
   midi.NoteOnEvent(tick=108, channel=3, data=[40, 0]),
   midi.NoteOnEvent(tick=0, channel=3, data=[47, 100]),
   midi.NoteOnEvent(tick=0, channel=3, data=[40, 100]),
   midi.NoteOnEvent(tick=54, channel=3, data=[40, 0]),
   midi.NoteOnEvent(tick=0, channel=3, data=[47, 0]),
   midi.NoteOnEvent(tick=0, channel=3, data=[47, 100]),
   midi.NoteOnEvent(tick=0, channel=3, data=[40, 100]),
   midi.NoteOnEvent(tick=54, channel=3, data=[40, 0]),
   midi.NoteOnEvent(tick=0, channel=3, data=[47, 0]),
   midi.NoteOnEvent(tick=0, channel=3, data=[40, 100]),
   midi.NoteOnEvent(tick=108, channel=3, data=[40, 0]),
   midi.NoteOnEvent(tick=0, channel=3, data=[47, 100]),
   midi.NoteOnEvent(tick=0, channel=3, data=[40, 100]),
   midi.NoteOnEvent(tick=54, channel=3, data=[40, 0]),
   midi.NoteOnEvent(tick=0, channel=3, data=[47, 0]),
   midi.NoteOnEvent(tick=0, channel=3, data=[47, 100]),
   midi.NoteOnEvent(tick=0, channel=3, data=[40, 100]),
   midi.NoteOnEvent(tick=54, channel=3, data=[40, 0]),
   midi.NoteOnEvent(tick=0, channel=3, data=[47, 0]),
   midi.NoteOnEvent(tick=0, channel=3, data=[40, 100]),
   midi.NoteOnEvent(tick=108, channel=3, data=[40, 0]),
   midi.NoteOnEvent(tick=0, channel=3, data=[46, 100]),
   midi.NoteOnEvent(tick=0, channel=3, data=[53, 100]),
   midi.NoteOnEvent(tick=0, channel=3, data=[58, 100]),
   midi.NoteOnEvent(tick=108, channel=3, data=[58, 0]),
   midi.NoteOnEvent(tick=0, channel=3, data=[53, 0]),
   midi.NoteOnEvent(tick=0, channel=3, data=[46, 0]),
   midi.NoteOnEvent(tick=0, channel=3, data=[46, 100]),
   midi.NoteOnEvent(tick=0, channel=3, data=[53, 100]),
   midi.NoteOnEvent(tick=0, channel=3, data=[58, 100]),
   midi.NoteOnEvent(tick=108, channel=3, data=[58, 0]),
   midi.NoteOnEvent(tick=0, channel=3, data=[53, 0]),
   midi.NoteOnEvent(tick=0, channel=3, data=[46, 0]),
   midi.NoteOnEvent(tick=0, channel=3, data=[45, 100]),
   midi.NoteOnEvent(tick=0, channel=3, data=[52, 100]),
   midi.NoteOnEvent(tick=0, channel=3, data=[57, 100]),
   midi.NoteOnEvent(tick=108, channel=3, data=[57, 0]),
   midi.NoteOnEvent(tick=0, channel=3, data=[52, 0]),
   midi.NoteOnEvent(tick=0, channel=3, data=[45, 0]),
   midi.NoteOnEvent(tick=0, channel=3, data=[46, 100]),
   midi.NoteOnEvent(tick=0, channel=3, data=[53, 100]),
   midi.NoteOnEvent(tick=0, channel=3, data=[58, 100]),
   midi.NoteOnEvent(tick=108, channel=3, data=[58, 0]),
   midi.NoteOnEvent(tick=0, channel=3, data=[53, 0]),
   midi.NoteOnEvent(tick=0, channel=3, data=[46, 0]),
   midi.NoteOnEvent(tick=0, channel=3, data=[48, 100]),
   midi.NoteOnEvent(tick=0, channel=3, data=[41, 100]),
   midi.NoteOnEvent(tick=0, channel=3, data=[53, 100]),
   midi.NoteOnEvent(tick=108, channel=3, data=[53, 0]),
   midi.NoteOnEvent(tick=0, channel=3, data=[41, 0]),
   midi.NoteOnEvent(tick=0, channel=3, data=[48, 0]),
   midi.NoteOnEvent(tick=0, channel=3, data=[40, 100]),
   midi.NoteOnEvent(tick=108, channel=3, data=[40, 0]),
   midi.NoteOnEvent(tick=0, channel=3, data=[52, 100]),
   midi.NoteOnEvent(tick=0, channel=3, data=[47, 100]),
   midi.NoteOnEvent(tick=0, channel=3, data=[40, 100]),
   midi.NoteOnEvent(tick=54, channel=3, data=[40, 0]),
   midi.NoteOnEvent(tick=0, channel=3, data=[47, 0]),
   midi.NoteOnEvent(tick=0, channel=3, data=[52, 0]),
   midi.NoteOnEvent(tick=0, channel=3, data=[52, 100]),
   midi.NoteOnEvent(tick=0, channel=3, data=[47, 100]),
   midi.NoteOnEvent(tick=0, channel=3, data=[40, 100]),
   midi.NoteOnEvent(tick=54, channel=3, data=[40, 0]),
   midi.NoteOnEvent(tick=0, channel=3, data=[47, 0]),
   midi.NoteOnEvent(tick=0, channel=3, data=[52, 0]),
   midi.NoteOnEvent(tick=0, channel=3, data=[40, 100]),
   midi.NoteOnEvent(tick=108, channel=3, data=[40, 0]),
   midi.NoteOnEvent(tick=0, channel=3, data=[52, 100]),
   midi.NoteOnEvent(tick=0, channel=3, data=[47, 100]),
   midi.NoteOnEvent(tick=0, channel=3, data=[40, 100]),
   midi.NoteOnEvent(tick=54, channel=3, data=[40, 0]),
   midi.NoteOnEvent(tick=0, channel=3, data=[47, 0]),
   midi.NoteOnEvent(tick=0, channel=3, data=[52, 0]),
   midi.NoteOnEvent(tick=0, channel=3, data=[52, 100]),
   midi.NoteOnEvent(tick=0, channel=3, data=[47, 100]),
   midi.NoteOnEvent(tick=0, channel=3, data=[40, 100]),
   midi.NoteOnEvent(tick=54, channel=3, data=[40, 0]),
   midi.NoteOnEvent(tick=0, channel=3, data=[47, 0]),
   midi.NoteOnEvent(tick=0, channel=3, data=[52, 0]),
   midi.NoteOnEvent(tick=0, channel=3, data=[40, 100]),
   midi.NoteOnEvent(tick=108, channel=3, data=[40, 0]),
   midi.NoteOnEvent(tick=0, channel=3, data=[46, 100]),
   midi.NoteOnEvent(tick=0, channel=3, data=[53, 100]),
   midi.NoteOnEvent(tick=0, channel=3, data=[58, 100]),
   midi.NoteOnEvent(tick=108, channel=3, data=[58, 0]),
   midi.NoteOnEvent(tick=0, channel=3, data=[53, 0]),
   midi.NoteOnEvent(tick=0, channel=3, data=[46, 0]),
   midi.NoteOnEvent(tick=0, channel=3, data=[46, 100]),
   midi.NoteOnEvent(tick=0, channel=3, data=[53, 100]),
   midi.NoteOnEvent(tick=0, channel=3, data=[58, 100]),
   midi.NoteOnEvent(tick=108, channel=3, data=[58, 0]),
   midi.NoteOnEvent(tick=0, channel=3, data=[53, 0]),
   midi.NoteOnEvent(tick=0, channel=3, data=[46, 0]),
   midi.NoteOnEvent(tick=0, channel=3, data=[45, 100]),
   midi.NoteOnEvent(tick=0, channel=3, data=[52, 100]),
   midi.NoteOnEvent(tick=0, channel=3, data=[57, 100]),
   midi.NoteOnEvent(tick=108, channel=3, data=[57, 0]),
   midi.NoteOnEvent(tick=0, channel=3, data=[52, 0]),
   midi.NoteOnEvent(tick=0, channel=3, data=[45, 0]),
   midi.NoteOnEvent(tick=0, channel=3, data=[40, 100]),
   midi.NoteOnEvent(tick=108, channel=3, data=[40, 0]),
   midi.NoteOnEvent(tick=0, channel=3, data=[52, 100]),
   midi.NoteOnEvent(tick=0, channel=3, data=[47, 100]),
   midi.NoteOnEvent(tick=0, channel=3, data=[40, 100]),
   midi.NoteOnEvent(tick=54, channel=3, data=[40, 0]),
   midi.NoteOnEvent(tick=0, channel=3, data=[47, 0]),
   midi.NoteOnEvent(tick=0, channel=3, data=[52, 0]),
   midi.NoteOnEvent(tick=0, channel=3, data=[47, 100]),
   midi.NoteOnEvent(tick=0, channel=3, data=[52, 100]),
   midi.NoteOnEvent(tick=0, channel=3, data=[40, 100]),
   midi.NoteOnEvent(tick=54, channel=3, data=[40, 0]),
   midi.NoteOnEvent(tick=0, channel=3, data=[52, 0]),
   midi.NoteOnEvent(tick=0, channel=3, data=[47, 0]),
   midi.NoteOnEvent(tick=0, channel=3, data=[40, 100]),
   midi.NoteOnEvent(tick=108, channel=3, data=[40, 0]),
   midi.NoteOnEvent(tick=0, channel=3, data=[52, 100]),
   midi.NoteOnEvent(tick=0, channel=3, data=[47, 100]),
   midi.NoteOnEvent(tick=0, channel=3, data=[40, 100]),
   midi.NoteOnEvent(tick=54, channel=3, data=[40, 0]),
   midi.NoteOnEvent(tick=0, channel=3, data=[47, 0]),
   midi.NoteOnEvent(tick=0, channel=3, data=[52, 0]),
   midi.NoteOnEvent(tick=0, channel=3, data=[47, 100]),
   midi.NoteOnEvent(tick=0, channel=3, data=[52, 100]),
   midi.NoteOnEvent(tick=0, channel=3, data=[40, 100]),
   midi.NoteOnEvent(tick=54, channel=3, data=[40, 0]),
   midi.NoteOnEvent(tick=0, channel=3, data=[52, 0]),
   midi.NoteOnEvent(tick=0, channel=3, data=[47, 0]),
   midi.NoteOnEvent(tick=0, channel=3, data=[40, 100]),
   midi.NoteOnEvent(tick=108, channel=3, data=[40, 0]),
   midi.NoteOnEvent(tick=0, channel=3, data=[52, 100]),
   midi.NoteOnEvent(tick=0, channel=3, data=[55, 100]),
   midi.NoteOnEvent(tick=108, channel=3, data=[55, 0]),
   midi.NoteOnEvent(tick=0, channel=3, data=[52, 0]),
   midi.NoteOnEvent(tick=0, channel=3, data=[52, 100]),
   midi.NoteOnEvent(tick=0, channel=3, data=[55, 100]),
   midi.NoteOnEvent(tick=108, channel=3, data=[55, 0]),
   midi.NoteOnEvent(tick=0, channel=3, data=[52, 0]),
   midi.NoteOnEvent(tick=0, channel=3, data=[54, 100]),
   midi.NoteOnEvent(tick=0, channel=3, data=[51, 100]),
   midi.NoteOnEvent(tick=108, channel=3, data=[51, 0]),
   midi.NoteOnEvent(tick=0, channel=3, data=[54, 0]),
   midi.NoteOnEvent(tick=0, channel=3, data=[52, 100]),
   midi.NoteOnEvent(tick=0, channel=3, data=[55, 100]),
   midi.NoteOnEvent(tick=108, channel=3, data=[55, 0]),
   midi.NoteOnEvent(tick=0, channel=3, data=[52, 0]),
   midi.NoteOnEvent(tick=0, channel=3, data=[47, 100]),
   midi.NoteOnEvent(tick=0, channel=3, data=[40, 100]),
   midi.NoteOnEvent(tick=54, channel=3, data=[40, 0]),
   midi.NoteOnEvent(tick=0, channel=3, data=[47, 0]),
   midi.NoteOnEvent(tick=0, channel=3, data=[47, 100]),
   midi.NoteOnEvent(tick=0, channel=3, data=[40, 100]),
   midi.NoteOnEvent(tick=54, channel=3, data=[40, 0]),
   midi.NoteOnEvent(tick=0, channel=3, data=[47, 0]),
   midi.NoteOnEvent(tick=0, channel=3, data=[40, 100]),
   midi.NoteOnEvent(tick=108, channel=3, data=[40, 0]),
   midi.NoteOnEvent(tick=0, channel=3, data=[47, 100]),
   midi.NoteOnEvent(tick=0, channel=3, data=[40, 100]),
   midi.NoteOnEvent(tick=54, channel=3, data=[40, 0]),
   midi.NoteOnEvent(tick=0, channel=3, data=[47, 0]),
   midi.NoteOnEvent(tick=0, channel=3, data=[47, 100]),
   midi.NoteOnEvent(tick=0, channel=3, data=[40, 100]),
   midi.NoteOnEvent(tick=54, channel=3, data=[40, 0]),
   midi.NoteOnEvent(tick=0, channel=3, data=[47, 0]),
   midi.NoteOnEvent(tick=0, channel=3, data=[40, 100]),
   midi.NoteOnEvent(tick=108, channel=3, data=[40, 0]),
   midi.NoteOnEvent(tick=0, channel=3, data=[46, 100]),
   midi.NoteOnEvent(tick=0, channel=3, data=[53, 100]),
   midi.NoteOnEvent(tick=0, channel=3, data=[58, 100]),
   midi.NoteOnEvent(tick=108, channel=3, data=[58, 0]),
   midi.NoteOnEvent(tick=0, channel=3, data=[53, 0]),
   midi.NoteOnEvent(tick=0, channel=3, data=[46, 0]),
   midi.NoteOnEvent(tick=0, channel=3, data=[46, 100]),
   midi.NoteOnEvent(tick=0, channel=3, data=[53, 100]),
   midi.NoteOnEvent(tick=0, channel=3, data=[58, 100]),
   midi.NoteOnEvent(tick=108, channel=3, data=[58, 0]),
   midi.NoteOnEvent(tick=0, channel=3, data=[53, 0]),
   midi.NoteOnEvent(tick=0, channel=3, data=[46, 0]),
   midi.NoteOnEvent(tick=0, channel=3, data=[45, 100]),
   midi.NoteOnEvent(tick=0, channel=3, data=[52, 100]),
   midi.NoteOnEvent(tick=0, channel=3, data=[57, 100]),
   midi.NoteOnEvent(tick=108, channel=3, data=[57, 0]),
   midi.NoteOnEvent(tick=0, channel=3, data=[52, 0]),
   midi.NoteOnEvent(tick=0, channel=3, data=[45, 0]),
   midi.NoteOnEvent(tick=0, channel=3, data=[46, 100]),
   midi.NoteOnEvent(tick=0, channel=3, data=[53, 100]),
   midi.NoteOnEvent(tick=0, channel=3, data=[58, 100]),
   midi.NoteOnEvent(tick=216, channel=3, data=[58, 0]),
   midi.NoteOnEvent(tick=0, channel=3, data=[53, 0]),
   midi.NoteOnEvent(tick=0, channel=3, data=[46, 0]),
   midi.NoteOnEvent(tick=0, channel=3, data=[48, 100]),
   midi.NoteOnEvent(tick=0, channel=3, data=[41, 100]),
   midi.NoteOnEvent(tick=0, channel=3, data=[53, 100]),
   midi.NoteOnEvent(tick=216, channel=3, data=[53, 0]),
   midi.NoteOnEvent(tick=0, channel=3, data=[41, 0]),
   midi.NoteOnEvent(tick=0, channel=3, data=[48, 0]),
   midi.NoteOnEvent(tick=0, channel=3, data=[47, 100]),
   midi.NoteOnEvent(tick=0, channel=3, data=[40, 100]),
   midi.NoteOnEvent(tick=0, channel=3, data=[52, 100]),
   midi.NoteOnEvent(tick=216, channel=3, data=[52, 0]),
   midi.NoteOnEvent(tick=0, channel=3, data=[40, 0]),
   midi.NoteOnEvent(tick=0, channel=3, data=[47, 0]),
   midi.NoteOnEvent(tick=216, channel=3, data=[52, 100]),
   midi.NoteOnEvent(tick=0, channel=3, data=[47, 100]),
   midi.NoteOnEvent(tick=0, channel=3, data=[40, 100]),
   midi.NoteOnEvent(tick=864, channel=3, data=[40, 0]),
   midi.NoteOnEvent(tick=0, channel=3, data=[47, 0]),
   midi.NoteOnEvent(tick=0, channel=3, data=[52, 0]),
   midi.NoteOnEvent(tick=0, channel=3, data=[55, 100]),
   midi.NoteOnEvent(tick=0, channel=3, data=[50, 100]),
   midi.NoteOnEvent(tick=0, channel=3, data=[43, 100]),
   midi.NoteOnEvent(tick=860, channel=3, data=[43, 0]),
   midi.NoteOnEvent(tick=0, channel=3, data=[50, 0]),
   midi.NoteOnEvent(tick=0, channel=3, data=[55, 0]),
   midi.NoteOnEvent(tick=4, channel=3, data=[57, 100]),
   midi.NoteOnEvent(tick=0, channel=3, data=[52, 100]),
   midi.NoteOnEvent(tick=0, channel=3, data=[45, 100]),
   midi.NoteOnEvent(tick=428, channel=3, data=[45, 0]),
   midi.NoteOnEvent(tick=0, channel=3, data=[52, 0]),
   midi.NoteOnEvent(tick=0, channel=3, data=[57, 0]),
   midi.NoteOnEvent(tick=4, channel=3, data=[53, 100]),
   midi.NoteOnEvent(tick=0, channel=3, data=[48, 100]),
   midi.NoteOnEvent(tick=0, channel=3, data=[41, 100]),
   midi.NoteOnEvent(tick=104, channel=3, data=[41, 0]),
   midi.NoteOnEvent(tick=0, channel=3, data=[48, 0]),
   midi.NoteOnEvent(tick=0, channel=3, data=[53, 0]),
   midi.NoteOnEvent(tick=4, channel=3, data=[53, 100]),
   midi.NoteOnEvent(tick=0, channel=3, data=[48, 100]),
   midi.NoteOnEvent(tick=0, channel=3, data=[41, 100]),
   midi.NoteOnEvent(tick=104, channel=3, data=[41, 0]),
   midi.NoteOnEvent(tick=0, channel=3, data=[48, 0]),
   midi.NoteOnEvent(tick=0, channel=3, data=[53, 0]),
   midi.NoteOnEvent(tick=4, channel=3, data=[42, 100]),
   midi.NoteOnEvent(tick=0, channel=3, data=[51, 100]),
   midi.NoteOnEvent(tick=0, channel=3, data=[47, 100]),
   midi.NoteOnEvent(tick=212, channel=3, data=[47, 0]),
   midi.NoteOnEvent(tick=0, channel=3, data=[51, 0]),
   midi.NoteOnEvent(tick=0, channel=3, data=[42, 0]),
   midi.NoteOnEvent(tick=4, channel=3, data=[40, 100]),
   midi.NoteOnEvent(tick=108, channel=3, data=[40, 0]),
   midi.NoteOnEvent(tick=0, channel=3, data=[47, 100]),
   midi.NoteOnEvent(tick=0, channel=3, data=[40, 100]),
   midi.NoteOnEvent(tick=54, channel=3, data=[40, 0]),
   midi.NoteOnEvent(tick=0, channel=3, data=[47, 0]),
   midi.NoteOnEvent(tick=0, channel=3, data=[47, 100]),
   midi.NoteOnEvent(tick=0, channel=3, data=[40, 100]),
   midi.NoteOnEvent(tick=54, channel=3, data=[40, 0]),
   midi.NoteOnEvent(tick=0, channel=3, data=[47, 0]),
   midi.NoteOnEvent(tick=0, channel=3, data=[40, 100]),
   midi.NoteOnEvent(tick=108, channel=3, data=[40, 0]),
   midi.NoteOnEvent(tick=0, channel=3, data=[47, 100]),
   midi.NoteOnEvent(tick=0, channel=3, data=[40, 100]),
   midi.NoteOnEvent(tick=54, channel=3, data=[40, 0]),
   midi.NoteOnEvent(tick=0, channel=3, data=[47, 0]),
   midi.NoteOnEvent(tick=0, channel=3, data=[47, 100]),
   midi.NoteOnEvent(tick=0, channel=3, data=[40, 100]),
   midi.NoteOnEvent(tick=54, channel=3, data=[40, 0]),
   midi.NoteOnEvent(tick=0, channel=3, data=[47, 0]),
   midi.NoteOnEvent(tick=0, channel=3, data=[40, 100]),
   midi.NoteOnEvent(tick=108, channel=3, data=[40, 0]),
   midi.NoteOnEvent(tick=0, channel=3, data=[46, 100]),
   midi.NoteOnEvent(tick=0, channel=3, data=[53, 100]),
   midi.NoteOnEvent(tick=0, channel=3, data=[58, 100]),
   midi.NoteOnEvent(tick=108, channel=3, data=[58, 0]),
   midi.NoteOnEvent(tick=0, channel=3, data=[53, 0]),
   midi.NoteOnEvent(tick=0, channel=3, data=[46, 0]),
   midi.NoteOnEvent(tick=0, channel=3, data=[46, 100]),
   midi.NoteOnEvent(tick=0, channel=3, data=[53, 100]),
   midi.NoteOnEvent(tick=0, channel=3, data=[58, 100]),
   midi.NoteOnEvent(tick=108, channel=3, data=[58, 0]),
   midi.NoteOnEvent(tick=0, channel=3, data=[53, 0]),
   midi.NoteOnEvent(tick=0, channel=3, data=[46, 0]),
   midi.NoteOnEvent(tick=0, channel=3, data=[45, 100]),
   midi.NoteOnEvent(tick=0, channel=3, data=[52, 100]),
   midi.NoteOnEvent(tick=0, channel=3, data=[57, 100]),
   midi.NoteOnEvent(tick=108, channel=3, data=[57, 0]),
   midi.NoteOnEvent(tick=0, channel=3, data=[52, 0]),
   midi.NoteOnEvent(tick=0, channel=3, data=[45, 0]),
   midi.NoteOnEvent(tick=0, channel=3, data=[40, 100]),
   midi.NoteOnEvent(tick=108, channel=3, data=[40, 0]),
   midi.NoteOnEvent(tick=0, channel=3, data=[47, 100]),
   midi.NoteOnEvent(tick=0, channel=3, data=[40, 100]),
   midi.NoteOnEvent(tick=54, channel=3, data=[40, 0]),
   midi.NoteOnEvent(tick=0, channel=3, data=[47, 0]),
   midi.NoteOnEvent(tick=0, channel=3, data=[47, 100]),
   midi.NoteOnEvent(tick=0, channel=3, data=[40, 100]),
   midi.NoteOnEvent(tick=54, channel=3, data=[40, 0]),
   midi.NoteOnEvent(tick=0, channel=3, data=[47, 0]),
   midi.NoteOnEvent(tick=0, channel=3, data=[40, 100]),
   midi.NoteOnEvent(tick=108, channel=3, data=[40, 0]),
   midi.NoteOnEvent(tick=0, channel=3, data=[47, 100]),
   midi.NoteOnEvent(tick=0, channel=3, data=[40, 100]),
   midi.NoteOnEvent(tick=54, channel=3, data=[40, 0]),
   midi.NoteOnEvent(tick=0, channel=3, data=[47, 0]),
   midi.NoteOnEvent(tick=0, channel=3, data=[47, 100]),
   midi.NoteOnEvent(tick=0, channel=3, data=[40, 100]),
   midi.NoteOnEvent(tick=54, channel=3, data=[40, 0]),
   midi.NoteOnEvent(tick=0, channel=3, data=[47, 0]),
   midi.NoteOnEvent(tick=0, channel=3, data=[40, 100]),
   midi.NoteOnEvent(tick=108, channel=3, data=[40, 0]),
   midi.NoteOnEvent(tick=0, channel=3, data=[52, 100]),
   midi.NoteOnEvent(tick=0, channel=3, data=[55, 100]),
   midi.NoteOnEvent(tick=108, channel=3, data=[55, 0]),
   midi.NoteOnEvent(tick=0, channel=3, data=[52, 0]),
   midi.NoteOnEvent(tick=0, channel=3, data=[52, 100]),
   midi.NoteOnEvent(tick=0, channel=3, data=[55, 100]),
   midi.NoteOnEvent(tick=108, channel=3, data=[55, 0]),
   midi.NoteOnEvent(tick=0, channel=3, data=[52, 0]),
   midi.NoteOnEvent(tick=0, channel=3, data=[54, 100]),
   midi.NoteOnEvent(tick=0, channel=3, data=[51, 100]),
   midi.NoteOnEvent(tick=108, channel=3, data=[51, 0]),
   midi.NoteOnEvent(tick=0, channel=3, data=[54, 0]),
   midi.NoteOnEvent(tick=0, channel=3, data=[52, 100]),
   midi.NoteOnEvent(tick=0, channel=3, data=[55, 100]),
   midi.NoteOnEvent(tick=108, channel=3, data=[55, 0]),
   midi.NoteOnEvent(tick=0, channel=3, data=[52, 0]),
   midi.NoteOnEvent(tick=0, channel=3, data=[47, 100]),
   midi.NoteOnEvent(tick=0, channel=3, data=[40, 100]),
   midi.NoteOnEvent(tick=54, channel=3, data=[40, 0]),
   midi.NoteOnEvent(tick=0, channel=3, data=[47, 0]),
   midi.NoteOnEvent(tick=0, channel=3, data=[47, 100]),
   midi.NoteOnEvent(tick=0, channel=3, data=[40, 100]),
   midi.NoteOnEvent(tick=54, channel=3, data=[40, 0]),
   midi.NoteOnEvent(tick=0, channel=3, data=[47, 0]),
   midi.NoteOnEvent(tick=0, channel=3, data=[40, 100]),
   midi.NoteOnEvent(tick=108, channel=3, data=[40, 0]),
   midi.NoteOnEvent(tick=0, channel=3, data=[47, 100]),
   midi.NoteOnEvent(tick=0, channel=3, data=[40, 100]),
   midi.NoteOnEvent(tick=54, channel=3, data=[40, 0]),
   midi.NoteOnEvent(tick=0, channel=3, data=[47, 0]),
   midi.NoteOnEvent(tick=0, channel=3, data=[47, 100]),
   midi.NoteOnEvent(tick=0, channel=3, data=[40, 100]),
   midi.NoteOnEvent(tick=54, channel=3, data=[40, 0]),
   midi.NoteOnEvent(tick=0, channel=3, data=[47, 0]),
   midi.NoteOnEvent(tick=0, channel=3, data=[40, 100]),
   midi.NoteOnEvent(tick=108, channel=3, data=[40, 0]),
   midi.NoteOnEvent(tick=0, channel=3, data=[46, 100]),
   midi.NoteOnEvent(tick=0, channel=3, data=[53, 100]),
   midi.NoteOnEvent(tick=0, channel=3, data=[58, 100]),
   midi.NoteOnEvent(tick=108, channel=3, data=[58, 0]),
   midi.NoteOnEvent(tick=0, channel=3, data=[53, 0]),
   midi.NoteOnEvent(tick=0, channel=3, data=[46, 0]),
   midi.NoteOnEvent(tick=0, channel=3, data=[46, 100]),
   midi.NoteOnEvent(tick=0, channel=3, data=[53, 100]),
   midi.NoteOnEvent(tick=0, channel=3, data=[58, 100]),
   midi.NoteOnEvent(tick=108, channel=3, data=[58, 0]),
   midi.NoteOnEvent(tick=0, channel=3, data=[53, 0]),
   midi.NoteOnEvent(tick=0, channel=3, data=[46, 0]),
   midi.NoteOnEvent(tick=0, channel=3, data=[45, 100]),
   midi.NoteOnEvent(tick=0, channel=3, data=[52, 100]),
   midi.NoteOnEvent(tick=0, channel=3, data=[57, 100]),
   midi.NoteOnEvent(tick=108, channel=3, data=[57, 0]),
   midi.NoteOnEvent(tick=0, channel=3, data=[52, 0]),
   midi.NoteOnEvent(tick=0, channel=3, data=[45, 0]),
   midi.NoteOnEvent(tick=0, channel=3, data=[40, 100]),
   midi.NoteOnEvent(tick=108, channel=3, data=[40, 0]),
   midi.NoteOnEvent(tick=0, channel=3, data=[42, 100]),
   midi.NoteOnEvent(tick=0, channel=3, data=[49, 100]),
   midi.NoteOnEvent(tick=0, channel=3, data=[54, 100]),
   midi.NoteOnEvent(tick=216, channel=3, data=[54, 0]),
   midi.NoteOnEvent(tick=0, channel=3, data=[49, 0]),
   midi.NoteOnEvent(tick=0, channel=3, data=[42, 0]),
   midi.NoteOnEvent(tick=0, channel=3, data=[43, 100]),
   midi.NoteOnEvent(tick=0, channel=3, data=[50, 100]),
   midi.NoteOnEvent(tick=0, channel=3, data=[55, 100]),
   midi.NoteOnEvent(tick=108, channel=3, data=[55, 0]),
   midi.NoteOnEvent(tick=0, channel=3, data=[50, 0]),
   midi.NoteOnEvent(tick=0, channel=3, data=[43, 0]),
   midi.NoteOnEvent(tick=0, channel=3, data=[40, 100]),
   midi.NoteOnEvent(tick=108, channel=3, data=[40, 0]),
   midi.NoteOnEvent(tick=0, channel=3, data=[55, 100]),
   midi.NoteOnEvent(tick=0, channel=3, data=[50, 100]),
   midi.NoteOnEvent(tick=0, channel=3, data=[43, 100]),
   midi.NoteOnEvent(tick=216, channel=3, data=[43, 0]),
   midi.NoteOnEvent(tick=0, channel=3, data=[50, 0]),
   midi.NoteOnEvent(tick=0, channel=3, data=[55, 0]),
   midi.NoteOnEvent(tick=0, channel=3, data=[44, 100]),
   midi.NoteOnEvent(tick=0, channel=3, data=[51, 100]),
   midi.NoteOnEvent(tick=0, channel=3, data=[56, 100]),
   midi.NoteOnEvent(tick=108, channel=3, data=[56, 0]),
   midi.NoteOnEvent(tick=0, channel=3, data=[51, 0]),
   midi.NoteOnEvent(tick=0, channel=3, data=[44, 0]),
   midi.NoteOnEvent(tick=0, channel=3, data=[40, 100]),
   midi.NoteOnEvent(tick=108, channel=3, data=[40, 0]),
   midi.NoteOnEvent(tick=0, channel=3, data=[47, 100]),
   midi.NoteOnEvent(tick=0, channel=3, data=[40, 100]),
   midi.NoteOnEvent(tick=54, channel=3, data=[40, 0]),
   midi.NoteOnEvent(tick=0, channel=3, data=[47, 0]),
   midi.NoteOnEvent(tick=0, channel=3, data=[47, 100]),
   midi.NoteOnEvent(tick=0, channel=3, data=[40, 100]),
   midi.NoteOnEvent(tick=54, channel=3, data=[40, 0]),
   midi.NoteOnEvent(tick=0, channel=3, data=[47, 0]),
   midi.NoteOnEvent(tick=0, channel=3, data=[40, 100]),
   midi.NoteOnEvent(tick=108, channel=3, data=[40, 0]),
   midi.NoteOnEvent(tick=0, channel=3, data=[47, 100]),
   midi.NoteOnEvent(tick=0, channel=3, data=[40, 100]),
   midi.NoteOnEvent(tick=54, channel=3, data=[40, 0]),
   midi.NoteOnEvent(tick=0, channel=3, data=[47, 0]),
   midi.NoteOnEvent(tick=0, channel=3, data=[47, 100]),
   midi.NoteOnEvent(tick=0, channel=3, data=[40, 100]),
   midi.NoteOnEvent(tick=54, channel=3, data=[40, 0]),
   midi.NoteOnEvent(tick=0, channel=3, data=[47, 0]),
   midi.NoteOnEvent(tick=0, channel=3, data=[40, 100]),
   midi.NoteOnEvent(tick=108, channel=3, data=[40, 0]),
   midi.NoteOnEvent(tick=0, channel=3, data=[46, 100]),
   midi.NoteOnEvent(tick=0, channel=3, data=[53, 100]),
   midi.NoteOnEvent(tick=0, channel=3, data=[58, 100]),
   midi.NoteOnEvent(tick=108, channel=3, data=[58, 0]),
   midi.NoteOnEvent(tick=0, channel=3, data=[53, 0]),
   midi.NoteOnEvent(tick=0, channel=3, data=[46, 0]),
   midi.NoteOnEvent(tick=0, channel=3, data=[46, 100]),
   midi.NoteOnEvent(tick=0, channel=3, data=[53, 100]),
   midi.NoteOnEvent(tick=0, channel=3, data=[58, 100]),
   midi.NoteOnEvent(tick=108, channel=3, data=[58, 0]),
   midi.NoteOnEvent(tick=0, channel=3, data=[53, 0]),
   midi.NoteOnEvent(tick=0, channel=3, data=[46, 0]),
   midi.NoteOnEvent(tick=0, channel=3, data=[45, 100]),
   midi.NoteOnEvent(tick=0, channel=3, data=[52, 100]),
   midi.NoteOnEvent(tick=0, channel=3, data=[57, 100]),
   midi.NoteOnEvent(tick=108, channel=3, data=[57, 0]),
   midi.NoteOnEvent(tick=0, channel=3, data=[52, 0]),
   midi.NoteOnEvent(tick=0, channel=3, data=[45, 0]),
   midi.NoteOnEvent(tick=0, channel=3, data=[40, 100]),
   midi.NoteOnEvent(tick=108, channel=3, data=[40, 0]),
   midi.NoteOnEvent(tick=0, channel=3, data=[47, 100]),
   midi.NoteOnEvent(tick=0, channel=3, data=[40, 100]),
   midi.NoteOnEvent(tick=54, channel=3, data=[40, 0]),
   midi.NoteOnEvent(tick=0, channel=3, data=[47, 0]),
   midi.NoteOnEvent(tick=0, channel=3, data=[47, 100]),
   midi.NoteOnEvent(tick=0, channel=3, data=[40, 100]),
   midi.NoteOnEvent(tick=54, channel=3, data=[40, 0]),
   midi.NoteOnEvent(tick=0, channel=3, data=[47, 0]),
   midi.NoteOnEvent(tick=0, channel=3, data=[40, 100]),
   midi.NoteOnEvent(tick=108, channel=3, data=[40, 0]),
   midi.NoteOnEvent(tick=0, channel=3, data=[47, 100]),
   midi.NoteOnEvent(tick=0, channel=3, data=[40, 100]),
   midi.NoteOnEvent(tick=54, channel=3, data=[40, 0]),
   midi.NoteOnEvent(tick=0, channel=3, data=[47, 0]),
   midi.NoteOnEvent(tick=0, channel=3, data=[47, 100]),
   midi.NoteOnEvent(tick=0, channel=3, data=[40, 100]),
   midi.NoteOnEvent(tick=54, channel=3, data=[40, 0]),
   midi.NoteOnEvent(tick=0, channel=3, data=[47, 0]),
   midi.NoteOnEvent(tick=0, channel=3, data=[40, 100]),
   midi.NoteOnEvent(tick=108, channel=3, data=[40, 0]),
   midi.NoteOnEvent(tick=0, channel=3, data=[52, 100]),
   midi.NoteOnEvent(tick=0, channel=3, data=[55, 100]),
   midi.NoteOnEvent(tick=108, channel=3, data=[55, 0]),
   midi.NoteOnEvent(tick=0, channel=3, data=[52, 0]),
   midi.NoteOnEvent(tick=0, channel=3, data=[52, 100]),
   midi.NoteOnEvent(tick=0, channel=3, data=[55, 100]),
   midi.NoteOnEvent(tick=108, channel=3, data=[55, 0]),
   midi.NoteOnEvent(tick=0, channel=3, data=[52, 0]),
   midi.NoteOnEvent(tick=0, channel=3, data=[54, 100]),
   midi.NoteOnEvent(tick=0, channel=3, data=[51, 100]),
   midi.NoteOnEvent(tick=108, channel=3, data=[51, 0]),
   midi.NoteOnEvent(tick=0, channel=3, data=[54, 0]),
   midi.NoteOnEvent(tick=0, channel=3, data=[52, 100]),
   midi.NoteOnEvent(tick=0, channel=3, data=[55, 100]),
   midi.NoteOnEvent(tick=108, channel=3, data=[55, 0]),
   midi.NoteOnEvent(tick=0, channel=3, data=[52, 0]),
   midi.NoteOnEvent(tick=0, channel=3, data=[47, 100]),
   midi.NoteOnEvent(tick=0, channel=3, data=[40, 100]),
   midi.NoteOnEvent(tick=54, channel=3, data=[40, 0]),
   midi.NoteOnEvent(tick=0, channel=3, data=[47, 0]),
   midi.NoteOnEvent(tick=0, channel=3, data=[47, 100]),
   midi.NoteOnEvent(tick=0, channel=3, data=[40, 100]),
   midi.NoteOnEvent(tick=54, channel=3, data=[40, 0]),
   midi.NoteOnEvent(tick=0, channel=3, data=[47, 0]),
   midi.NoteOnEvent(tick=0, channel=3, data=[40, 100]),
   midi.NoteOnEvent(tick=108, channel=3, data=[40, 0]),
   midi.NoteOnEvent(tick=0, channel=3, data=[47, 100]),
   midi.NoteOnEvent(tick=0, channel=3, data=[40, 100]),
   midi.NoteOnEvent(tick=54, channel=3, data=[40, 0]),
   midi.NoteOnEvent(tick=0, channel=3, data=[47, 0]),
   midi.NoteOnEvent(tick=0, channel=3, data=[47, 100]),
   midi.NoteOnEvent(tick=0, channel=3, data=[40, 100]),
   midi.NoteOnEvent(tick=54, channel=3, data=[40, 0]),
   midi.NoteOnEvent(tick=0, channel=3, data=[47, 0]),
   midi.NoteOnEvent(tick=0, channel=3, data=[40, 100]),
   midi.NoteOnEvent(tick=108, channel=3, data=[40, 0]),
   midi.NoteOnEvent(tick=0, channel=3, data=[46, 100]),
   midi.NoteOnEvent(tick=0, channel=3, data=[53, 100]),
   midi.NoteOnEvent(tick=0, channel=3, data=[58, 100]),
   midi.NoteOnEvent(tick=108, channel=3, data=[58, 0]),
   midi.NoteOnEvent(tick=0, channel=3, data=[53, 0]),
   midi.NoteOnEvent(tick=0, channel=3, data=[46, 0]),
   midi.NoteOnEvent(tick=0, channel=3, data=[46, 100]),
   midi.NoteOnEvent(tick=0, channel=3, data=[53, 100]),
   midi.NoteOnEvent(tick=0, channel=3, data=[58, 100]),
   midi.NoteOnEvent(tick=108, channel=3, data=[58, 0]),
   midi.NoteOnEvent(tick=0, channel=3, data=[53, 0]),
   midi.NoteOnEvent(tick=0, channel=3, data=[46, 0]),
   midi.NoteOnEvent(tick=0, channel=3, data=[45, 100]),
   midi.NoteOnEvent(tick=0, channel=3, data=[52, 100]),
   midi.NoteOnEvent(tick=0, channel=3, data=[57, 100]),
   midi.NoteOnEvent(tick=108, channel=3, data=[57, 0]),
   midi.NoteOnEvent(tick=0, channel=3, data=[52, 0]),
   midi.NoteOnEvent(tick=0, channel=3, data=[45, 0]),
   midi.NoteOnEvent(tick=0, channel=3, data=[40, 100]),
   midi.NoteOnEvent(tick=108, channel=3, data=[40, 0]),
   midi.NoteOnEvent(tick=0, channel=3, data=[42, 100]),
   midi.NoteOnEvent(tick=0, channel=3, data=[49, 100]),
   midi.NoteOnEvent(tick=0, channel=3, data=[54, 100]),
   midi.NoteOnEvent(tick=216, channel=3, data=[54, 0]),
   midi.NoteOnEvent(tick=0, channel=3, data=[49, 0]),
   midi.NoteOnEvent(tick=0, channel=3, data=[42, 0]),
   midi.NoteOnEvent(tick=0, channel=3, data=[43, 100]),
   midi.NoteOnEvent(tick=0, channel=3, data=[50, 100]),
   midi.NoteOnEvent(tick=0, channel=3, data=[55, 100]),
   midi.NoteOnEvent(tick=108, channel=3, data=[55, 0]),
   midi.NoteOnEvent(tick=0, channel=3, data=[50, 0]),
   midi.NoteOnEvent(tick=0, channel=3, data=[43, 0]),
   midi.NoteOnEvent(tick=0, channel=3, data=[40, 100]),
   midi.NoteOnEvent(tick=108, channel=3, data=[40, 0]),
   midi.NoteOnEvent(tick=0, channel=3, data=[55, 100]),
   midi.NoteOnEvent(tick=0, channel=3, data=[50, 100]),
   midi.NoteOnEvent(tick=0, channel=3, data=[43, 100]),
   midi.NoteOnEvent(tick=216, channel=3, data=[43, 0]),
   midi.NoteOnEvent(tick=0, channel=3, data=[50, 0]),
   midi.NoteOnEvent(tick=0, channel=3, data=[55, 0]),
   midi.NoteOnEvent(tick=0, channel=3, data=[44, 100]),
   midi.NoteOnEvent(tick=0, channel=3, data=[51, 100]),
   midi.NoteOnEvent(tick=0, channel=3, data=[56, 100]),
   midi.NoteOnEvent(tick=108, channel=3, data=[56, 0]),
   midi.NoteOnEvent(tick=0, channel=3, data=[51, 0]),
   midi.NoteOnEvent(tick=0, channel=3, data=[44, 0]),
   midi.NoteOnEvent(tick=0, channel=3, data=[52, 100]),
   midi.NoteOnEvent(tick=0, channel=3, data=[47, 100]),
   midi.NoteOnEvent(tick=0, channel=3, data=[40, 100]),
   midi.NoteOnEvent(tick=864, channel=3, data=[40, 0]),
   midi.NoteOnEvent(tick=0, channel=3, data=[47, 0]),
   midi.NoteOnEvent(tick=0, channel=3, data=[52, 0]),
   midi.NoteOnEvent(tick=0, channel=3, data=[55, 100]),
   midi.NoteOnEvent(tick=0, channel=3, data=[50, 100]),
   midi.NoteOnEvent(tick=0, channel=3, data=[43, 100]),
   midi.NoteOnEvent(tick=860, channel=3, data=[43, 0]),
   midi.NoteOnEvent(tick=0, channel=3, data=[50, 0]),
   midi.NoteOnEvent(tick=0, channel=3, data=[55, 0]),
   midi.NoteOnEvent(tick=4, channel=3, data=[57, 100]),
   midi.NoteOnEvent(tick=0, channel=3, data=[52, 100]),
   midi.NoteOnEvent(tick=0, channel=3, data=[45, 100]),
   midi.NoteOnEvent(tick=428, channel=3, data=[45, 0]),
   midi.NoteOnEvent(tick=0, channel=3, data=[52, 0]),
   midi.NoteOnEvent(tick=0, channel=3, data=[57, 0]),
   midi.NoteOnEvent(tick=4, channel=3, data=[53, 100]),
   midi.NoteOnEvent(tick=0, channel=3, data=[48, 100]),
   midi.NoteOnEvent(tick=0, channel=3, data=[41, 100]),
   midi.NoteOnEvent(tick=104, channel=3, data=[41, 0]),
   midi.NoteOnEvent(tick=0, channel=3, data=[48, 0]),
   midi.NoteOnEvent(tick=0, channel=3, data=[53, 0]),
   midi.NoteOnEvent(tick=4, channel=3, data=[53, 100]),
   midi.NoteOnEvent(tick=0, channel=3, data=[48, 100]),
   midi.NoteOnEvent(tick=0, channel=3, data=[41, 100]),
   midi.NoteOnEvent(tick=104, channel=3, data=[41, 0]),
   midi.NoteOnEvent(tick=0, channel=3, data=[48, 0]),
   midi.NoteOnEvent(tick=0, channel=3, data=[53, 0]),
   midi.NoteOnEvent(tick=4, channel=3, data=[42, 100]),
   midi.NoteOnEvent(tick=0, channel=3, data=[51, 100]),
   midi.NoteOnEvent(tick=0, channel=3, data=[47, 100]),
   midi.NoteOnEvent(tick=212, channel=3, data=[47, 0]),
   midi.NoteOnEvent(tick=0, channel=3, data=[51, 0]),
   midi.NoteOnEvent(tick=0, channel=3, data=[42, 0]),
   midi.NoteOnEvent(tick=4, channel=3, data=[40, 100]),
   midi.NoteOnEvent(tick=108, channel=3, data=[40, 0]),
   midi.NoteOnEvent(tick=0, channel=3, data=[47, 100]),
   midi.NoteOnEvent(tick=0, channel=3, data=[40, 100]),
   midi.NoteOnEvent(tick=54, channel=3, data=[40, 0]),
   midi.NoteOnEvent(tick=0, channel=3, data=[47, 0]),
   midi.NoteOnEvent(tick=0, channel=3, data=[47, 100]),
   midi.NoteOnEvent(tick=0, channel=3, data=[40, 100]),
   midi.NoteOnEvent(tick=54, channel=3, data=[40, 0]),
   midi.NoteOnEvent(tick=0, channel=3, data=[47, 0]),
   midi.NoteOnEvent(tick=0, channel=3, data=[40, 100]),
   midi.NoteOnEvent(tick=108, channel=3, data=[40, 0]),
   midi.NoteOnEvent(tick=0, channel=3, data=[47, 100]),
   midi.NoteOnEvent(tick=0, channel=3, data=[40, 100]),
   midi.NoteOnEvent(tick=54, channel=3, data=[40, 0]),
   midi.NoteOnEvent(tick=0, channel=3, data=[47, 0]),
   midi.NoteOnEvent(tick=0, channel=3, data=[47, 100]),
   midi.NoteOnEvent(tick=0, channel=3, data=[40, 100]),
   midi.NoteOnEvent(tick=54, channel=3, data=[40, 0]),
   midi.NoteOnEvent(tick=0, channel=3, data=[47, 0]),
   midi.NoteOnEvent(tick=0, channel=3, data=[40, 100]),
   midi.NoteOnEvent(tick=108, channel=3, data=[40, 0]),
   midi.NoteOnEvent(tick=0, channel=3, data=[46, 100]),
   midi.NoteOnEvent(tick=0, channel=3, data=[53, 100]),
   midi.NoteOnEvent(tick=0, channel=3, data=[58, 100]),
   midi.NoteOnEvent(tick=108, channel=3, data=[58, 0]),
   midi.NoteOnEvent(tick=0, channel=3, data=[53, 0]),
   midi.NoteOnEvent(tick=0, channel=3, data=[46, 0]),
   midi.NoteOnEvent(tick=0, channel=3, data=[46, 100]),
   midi.NoteOnEvent(tick=0, channel=3, data=[53, 100]),
   midi.NoteOnEvent(tick=0, channel=3, data=[58, 100]),
   midi.NoteOnEvent(tick=108, channel=3, data=[58, 0]),
   midi.NoteOnEvent(tick=0, channel=3, data=[53, 0]),
   midi.NoteOnEvent(tick=0, channel=3, data=[46, 0]),
   midi.NoteOnEvent(tick=0, channel=3, data=[45, 100]),
   midi.NoteOnEvent(tick=0, channel=3, data=[52, 100]),
   midi.NoteOnEvent(tick=0, channel=3, data=[57, 100]),
   midi.NoteOnEvent(tick=108, channel=3, data=[57, 0]),
   midi.NoteOnEvent(tick=0, channel=3, data=[52, 0]),
   midi.NoteOnEvent(tick=0, channel=3, data=[45, 0]),
   midi.NoteOnEvent(tick=0, channel=3, data=[40, 100]),
   midi.NoteOnEvent(tick=108, channel=3, data=[40, 0]),
   midi.NoteOnEvent(tick=0, channel=3, data=[47, 100]),
   midi.NoteOnEvent(tick=0, channel=3, data=[40, 100]),
   midi.NoteOnEvent(tick=54, channel=3, data=[40, 0]),
   midi.NoteOnEvent(tick=0, channel=3, data=[47, 0]),
   midi.NoteOnEvent(tick=0, channel=3, data=[47, 100]),
   midi.NoteOnEvent(tick=0, channel=3, data=[40, 100]),
   midi.NoteOnEvent(tick=54, channel=3, data=[40, 0]),
   midi.NoteOnEvent(tick=0, channel=3, data=[47, 0]),
   midi.NoteOnEvent(tick=0, channel=3, data=[40, 100]),
   midi.NoteOnEvent(tick=108, channel=3, data=[40, 0]),
   midi.NoteOnEvent(tick=0, channel=3, data=[47, 100]),
   midi.NoteOnEvent(tick=0, channel=3, data=[40, 100]),
   midi.NoteOnEvent(tick=54, channel=3, data=[40, 0]),
   midi.NoteOnEvent(tick=0, channel=3, data=[47, 0]),
   midi.NoteOnEvent(tick=0, channel=3, data=[47, 100]),
   midi.NoteOnEvent(tick=0, channel=3, data=[40, 100]),
   midi.NoteOnEvent(tick=54, channel=3, data=[40, 0]),
   midi.NoteOnEvent(tick=0, channel=3, data=[47, 0]),
   midi.NoteOnEvent(tick=0, channel=3, data=[40, 100]),
   midi.NoteOnEvent(tick=108, channel=3, data=[40, 0]),
   midi.NoteOnEvent(tick=0, channel=3, data=[52, 100]),
   midi.NoteOnEvent(tick=0, channel=3, data=[55, 100]),
   midi.NoteOnEvent(tick=108, channel=3, data=[55, 0]),
   midi.NoteOnEvent(tick=0, channel=3, data=[52, 0]),
   midi.NoteOnEvent(tick=0, channel=3, data=[52, 100]),
   midi.NoteOnEvent(tick=0, channel=3, data=[55, 100]),
   midi.NoteOnEvent(tick=108, channel=3, data=[55, 0]),
   midi.NoteOnEvent(tick=0, channel=3, data=[52, 0]),
   midi.NoteOnEvent(tick=0, channel=3, data=[54, 100]),
   midi.NoteOnEvent(tick=0, channel=3, data=[51, 100]),
   midi.NoteOnEvent(tick=108, channel=3, data=[51, 0]),
   midi.NoteOnEvent(tick=0, channel=3, data=[54, 0]),
   midi.NoteOnEvent(tick=0, channel=3, data=[52, 100]),
   midi.NoteOnEvent(tick=0, channel=3, data=[55, 100]),
   midi.NoteOnEvent(tick=108, channel=3, data=[55, 0]),
   midi.NoteOnEvent(tick=0, channel=3, data=[52, 0]),
   midi.NoteOnEvent(tick=0, channel=3, data=[47, 100]),
   midi.NoteOnEvent(tick=0, channel=3, data=[40, 100]),
   midi.NoteOnEvent(tick=54, channel=3, data=[40, 0]),
   midi.NoteOnEvent(tick=0, channel=3, data=[47, 0]),
   midi.NoteOnEvent(tick=0, channel=3, data=[47, 100]),
   midi.NoteOnEvent(tick=0, channel=3, data=[40, 100]),
   midi.NoteOnEvent(tick=54, channel=3, data=[40, 0]),
   midi.NoteOnEvent(tick=0, channel=3, data=[47, 0]),
   midi.NoteOnEvent(tick=0, channel=3, data=[40, 100]),
   midi.NoteOnEvent(tick=108, channel=3, data=[40, 0]),
   midi.NoteOnEvent(tick=0, channel=3, data=[52, 100]),
   midi.NoteOnEvent(tick=0, channel=3, data=[47, 100]),
   midi.NoteOnEvent(tick=0, channel=3, data=[40, 100]),
   midi.NoteOnEvent(tick=54, channel=3, data=[40, 0]),
   midi.NoteOnEvent(tick=0, channel=3, data=[47, 0]),
   midi.NoteOnEvent(tick=0, channel=3, data=[52, 0]),
   midi.NoteOnEvent(tick=0, channel=3, data=[52, 100]),
   midi.NoteOnEvent(tick=0, channel=3, data=[47, 100]),
   midi.NoteOnEvent(tick=0, channel=3, data=[40, 100]),
   midi.NoteOnEvent(tick=54, channel=3, data=[40, 0]),
   midi.NoteOnEvent(tick=0, channel=3, data=[47, 0]),
   midi.NoteOnEvent(tick=0, channel=3, data=[52, 0]),
   midi.NoteOnEvent(tick=0, channel=3, data=[40, 100]),
   midi.NoteOnEvent(tick=108, channel=3, data=[40, 0]),
   midi.NoteOnEvent(tick=0, channel=3, data=[46, 100]),
   midi.NoteOnEvent(tick=0, channel=3, data=[53, 100]),
   midi.NoteOnEvent(tick=0, channel=3, data=[58, 100]),
   midi.NoteOnEvent(tick=108, channel=3, data=[58, 0]),
   midi.NoteOnEvent(tick=0, channel=3, data=[53, 0]),
   midi.NoteOnEvent(tick=0, channel=3, data=[46, 0]),
   midi.NoteOnEvent(tick=0, channel=3, data=[46, 100]),
   midi.NoteOnEvent(tick=0, channel=3, data=[53, 100]),
   midi.NoteOnEvent(tick=0, channel=3, data=[58, 100]),
   midi.NoteOnEvent(tick=108, channel=3, data=[58, 0]),
   midi.NoteOnEvent(tick=0, channel=3, data=[53, 0]),
   midi.NoteOnEvent(tick=0, channel=3, data=[46, 0]),
   midi.NoteOnEvent(tick=0, channel=3, data=[45, 100]),
   midi.NoteOnEvent(tick=0, channel=3, data=[52, 100]),
   midi.NoteOnEvent(tick=0, channel=3, data=[57, 100]),
   midi.NoteOnEvent(tick=108, channel=3, data=[57, 0]),
   midi.NoteOnEvent(tick=0, channel=3, data=[52, 0]),
   midi.NoteOnEvent(tick=0, channel=3, data=[45, 0]),
   midi.NoteOnEvent(tick=0, channel=3, data=[40, 100]),
   midi.NoteOnEvent(tick=108, channel=3, data=[40, 0]),
   midi.NoteOnEvent(tick=0, channel=3, data=[42, 100]),
   midi.NoteOnEvent(tick=0, channel=3, data=[49, 100]),
   midi.NoteOnEvent(tick=0, channel=3, data=[54, 100]),
   midi.NoteOnEvent(tick=216, channel=3, data=[54, 0]),
   midi.NoteOnEvent(tick=0, channel=3, data=[49, 0]),
   midi.NoteOnEvent(tick=0, channel=3, data=[42, 0]),
   midi.NoteOnEvent(tick=0, channel=3, data=[43, 100]),
   midi.NoteOnEvent(tick=0, channel=3, data=[50, 100]),
   midi.NoteOnEvent(tick=0, channel=3, data=[55, 100]),
   midi.NoteOnEvent(tick=108, channel=3, data=[55, 0]),
   midi.NoteOnEvent(tick=0, channel=3, data=[50, 0]),
   midi.NoteOnEvent(tick=0, channel=3, data=[43, 0]),
   midi.NoteOnEvent(tick=0, channel=3, data=[40, 100]),
   midi.NoteOnEvent(tick=108, channel=3, data=[40, 0]),
   midi.NoteOnEvent(tick=0, channel=3, data=[55, 100]),
   midi.NoteOnEvent(tick=0, channel=3, data=[50, 100]),
   midi.NoteOnEvent(tick=0, channel=3, data=[43, 100]),
   midi.NoteOnEvent(tick=216, channel=3, data=[43, 0]),
   midi.NoteOnEvent(tick=0, channel=3, data=[50, 0]),
   midi.NoteOnEvent(tick=0, channel=3, data=[55, 0]),
   midi.NoteOnEvent(tick=0, channel=3, data=[44, 100]),
   midi.NoteOnEvent(tick=0, channel=3, data=[51, 100]),
   midi.NoteOnEvent(tick=0, channel=3, data=[56, 100]),
   midi.NoteOnEvent(tick=108, channel=3, data=[56, 0]),
   midi.NoteOnEvent(tick=0, channel=3, data=[51, 0]),
   midi.NoteOnEvent(tick=0, channel=3, data=[44, 0]),
   midi.NoteOnEvent(tick=0, channel=3, data=[52, 100]),
   midi.NoteOnEvent(tick=0, channel=3, data=[47, 100]),
   midi.NoteOnEvent(tick=0, channel=3, data=[40, 100]),
   midi.NoteOnEvent(tick=864, channel=3, data=[40, 0]),
   midi.NoteOnEvent(tick=0, channel=3, data=[47, 0]),
   midi.NoteOnEvent(tick=0, channel=3, data=[52, 0]),
   midi.NoteOnEvent(tick=0, channel=3, data=[55, 100]),
   midi.NoteOnEvent(tick=0, channel=3, data=[50, 100]),
   midi.NoteOnEvent(tick=0, channel=3, data=[43, 100]),
   midi.NoteOnEvent(tick=860, channel=3, data=[43, 0]),
   midi.NoteOnEvent(tick=0, channel=3, data=[50, 0]),
   midi.NoteOnEvent(tick=0, channel=3, data=[55, 0]),
   midi.NoteOnEvent(tick=4, channel=3, data=[57, 100]),
   midi.NoteOnEvent(tick=0, channel=3, data=[52, 100]),
   midi.NoteOnEvent(tick=0, channel=3, data=[45, 100]),
   midi.NoteOnEvent(tick=428, channel=3, data=[45, 0]),
   midi.NoteOnEvent(tick=0, channel=3, data=[52, 0]),
   midi.NoteOnEvent(tick=0, channel=3, data=[57, 0]),
   midi.NoteOnEvent(tick=4, channel=3, data=[53, 100]),
   midi.NoteOnEvent(tick=0, channel=3, data=[48, 100]),
   midi.NoteOnEvent(tick=0, channel=3, data=[41, 100]),
   midi.NoteOnEvent(tick=104, channel=3, data=[41, 0]),
   midi.NoteOnEvent(tick=0, channel=3, data=[48, 0]),
   midi.NoteOnEvent(tick=0, channel=3, data=[53, 0]),
   midi.NoteOnEvent(tick=4, channel=3, data=[53, 100]),
   midi.NoteOnEvent(tick=0, channel=3, data=[48, 100]),
   midi.NoteOnEvent(tick=0, channel=3, data=[41, 100]),
   midi.NoteOnEvent(tick=104, channel=3, data=[41, 0]),
   midi.NoteOnEvent(tick=0, channel=3, data=[48, 0]),
   midi.NoteOnEvent(tick=0, channel=3, data=[53, 0]),
   midi.NoteOnEvent(tick=4, channel=3, data=[42, 100]),
   midi.NoteOnEvent(tick=0, channel=3, data=[51, 100]),
   midi.NoteOnEvent(tick=0, channel=3, data=[47, 100]),
   midi.NoteOnEvent(tick=212, channel=3, data=[47, 0]),
   midi.NoteOnEvent(tick=0, channel=3, data=[51, 0]),
   midi.NoteOnEvent(tick=0, channel=3, data=[42, 0]),
   midi.NoteOnEvent(tick=4, channel=3, data=[40, 100]),
   midi.NoteOnEvent(tick=108, channel=3, data=[40, 0]),
   midi.NoteOnEvent(tick=0, channel=3, data=[47, 100]),
   midi.NoteOnEvent(tick=0, channel=3, data=[40, 100]),
   midi.NoteOnEvent(tick=54, channel=3, data=[40, 0]),
   midi.NoteOnEvent(tick=0, channel=3, data=[47, 0]),
   midi.NoteOnEvent(tick=0, channel=3, data=[47, 100]),
   midi.NoteOnEvent(tick=0, channel=3, data=[40, 100]),
   midi.NoteOnEvent(tick=54, channel=3, data=[40, 0]),
   midi.NoteOnEvent(tick=0, channel=3, data=[47, 0]),
   midi.NoteOnEvent(tick=0, channel=3, data=[40, 100]),
   midi.NoteOnEvent(tick=108, channel=3, data=[40, 0]),
   midi.NoteOnEvent(tick=0, channel=3, data=[52, 100]),
   midi.NoteOnEvent(tick=0, channel=3, data=[47, 100]),
   midi.NoteOnEvent(tick=0, channel=3, data=[40, 100]),
   midi.NoteOnEvent(tick=54, channel=3, data=[40, 0]),
   midi.NoteOnEvent(tick=0, channel=3, data=[47, 0]),
   midi.NoteOnEvent(tick=0, channel=3, data=[52, 0]),
   midi.NoteOnEvent(tick=0, channel=3, data=[47, 100]),
   midi.NoteOnEvent(tick=0, channel=3, data=[52, 100]),
   midi.NoteOnEvent(tick=0, channel=3, data=[40, 100]),
   midi.NoteOnEvent(tick=54, channel=3, data=[40, 0]),
   midi.NoteOnEvent(tick=0, channel=3, data=[52, 0]),
   midi.NoteOnEvent(tick=0, channel=3, data=[47, 0]),
   midi.NoteOnEvent(tick=0, channel=3, data=[40, 100]),
   midi.NoteOnEvent(tick=108, channel=3, data=[40, 0]),
   midi.NoteOnEvent(tick=0, channel=3, data=[46, 100]),
   midi.NoteOnEvent(tick=0, channel=3, data=[53, 100]),
   midi.NoteOnEvent(tick=0, channel=3, data=[58, 100]),
   midi.NoteOnEvent(tick=108, channel=3, data=[58, 0]),
   midi.NoteOnEvent(tick=0, channel=3, data=[53, 0]),
   midi.NoteOnEvent(tick=0, channel=3, data=[46, 0]),
   midi.NoteOnEvent(tick=0, channel=3, data=[46, 100]),
   midi.NoteOnEvent(tick=0, channel=3, data=[53, 100]),
   midi.NoteOnEvent(tick=0, channel=3, data=[58, 100]),
   midi.NoteOnEvent(tick=108, channel=3, data=[58, 0]),
   midi.NoteOnEvent(tick=0, channel=3, data=[53, 0]),
   midi.NoteOnEvent(tick=0, channel=3, data=[46, 0]),
   midi.NoteOnEvent(tick=0, channel=3, data=[45, 100]),
   midi.NoteOnEvent(tick=0, channel=3, data=[52, 100]),
   midi.NoteOnEvent(tick=0, channel=3, data=[57, 100]),
   midi.NoteOnEvent(tick=108, channel=3, data=[57, 0]),
   midi.NoteOnEvent(tick=0, channel=3, data=[52, 0]),
   midi.NoteOnEvent(tick=0, channel=3, data=[45, 0]),
   midi.NoteOnEvent(tick=0, channel=3, data=[40, 100]),
   midi.NoteOnEvent(tick=108, channel=3, data=[40, 0]),
   midi.NoteOnEvent(tick=0, channel=3, data=[47, 100]),
   midi.NoteOnEvent(tick=0, channel=3, data=[40, 100]),
   midi.NoteOnEvent(tick=54, channel=3, data=[40, 0]),
   midi.NoteOnEvent(tick=0, channel=3, data=[47, 0]),
   midi.NoteOnEvent(tick=0, channel=3, data=[47, 100]),
   midi.NoteOnEvent(tick=0, channel=3, data=[40, 100]),
   midi.NoteOnEvent(tick=54, channel=3, data=[40, 0]),
   midi.NoteOnEvent(tick=0, channel=3, data=[47, 0]),
   midi.NoteOnEvent(tick=0, channel=3, data=[40, 100]),
   midi.NoteOnEvent(tick=108, channel=3, data=[40, 0]),
   midi.NoteOnEvent(tick=0, channel=3, data=[47, 100]),
   midi.NoteOnEvent(tick=0, channel=3, data=[40, 100]),
   midi.NoteOnEvent(tick=54, channel=3, data=[40, 0]),
   midi.NoteOnEvent(tick=0, channel=3, data=[47, 0]),
   midi.NoteOnEvent(tick=0, channel=3, data=[47, 100]),
   midi.NoteOnEvent(tick=0, channel=3, data=[40, 100]),
   midi.NoteOnEvent(tick=54, channel=3, data=[40, 0]),
   midi.NoteOnEvent(tick=0, channel=3, data=[47, 0]),
   midi.NoteOnEvent(tick=0, channel=3, data=[40, 100]),
   midi.NoteOnEvent(tick=108, channel=3, data=[40, 0]),
   midi.NoteOnEvent(tick=0, channel=3, data=[52, 100]),
   midi.NoteOnEvent(tick=0, channel=3, data=[55, 100]),
   midi.NoteOnEvent(tick=108, channel=3, data=[55, 0]),
   midi.NoteOnEvent(tick=0, channel=3, data=[52, 0]),
   midi.NoteOnEvent(tick=0, channel=3, data=[52, 100]),
   midi.NoteOnEvent(tick=0, channel=3, data=[55, 100]),
   midi.NoteOnEvent(tick=108, channel=3, data=[55, 0]),
   midi.NoteOnEvent(tick=0, channel=3, data=[52, 0]),
   midi.NoteOnEvent(tick=0, channel=3, data=[54, 100]),
   midi.NoteOnEvent(tick=0, channel=3, data=[51, 100]),
   midi.NoteOnEvent(tick=108, channel=3, data=[51, 0]),
   midi.NoteOnEvent(tick=0, channel=3, data=[54, 0]),
   midi.NoteOnEvent(tick=0, channel=3, data=[52, 100]),
   midi.NoteOnEvent(tick=0, channel=3, data=[47, 100]),
   midi.NoteOnEvent(tick=0, channel=3, data=[40, 100]),
   midi.NoteOnEvent(tick=432, channel=3, data=[40, 0]),
   midi.NoteOnEvent(tick=0, channel=3, data=[47, 0]),
   midi.NoteOnEvent(tick=0, channel=3, data=[52, 0]),
   midi.NoteOnEvent(tick=0, channel=3, data=[59, 100]),
   midi.NoteOnEvent(tick=0, channel=3, data=[54, 100]),
   midi.NoteOnEvent(tick=0, channel=3, data=[47, 100]),
   midi.NoteOnEvent(tick=432, channel=3, data=[47, 0]),
   midi.NoteOnEvent(tick=0, channel=3, data=[54, 0]),
   midi.NoteOnEvent(tick=0, channel=3, data=[59, 0]),
   midi.NoteOnEvent(tick=0, channel=3, data=[43, 100]),
   midi.NoteOnEvent(tick=0, channel=3, data=[50, 100]),
   midi.NoteOnEvent(tick=0, channel=3, data=[55, 100]),
   midi.NoteOnEvent(tick=432, channel=3, data=[55, 0]),
   midi.NoteOnEvent(tick=0, channel=3, data=[50, 0]),
   midi.NoteOnEvent(tick=0, channel=3, data=[43, 0]),
   midi.NoteOnEvent(tick=0, channel=3, data=[55, 100]),
   midi.NoteOnEvent(tick=0, channel=3, data=[52, 100]),
   midi.NoteOnEvent(tick=0, channel=3, data=[40, 100]),
   midi.NoteOnEvent(tick=216, channel=3, data=[40, 0]),
   midi.NoteOnEvent(tick=0, channel=3, data=[52, 0]),
   midi.NoteOnEvent(tick=0, channel=3, data=[55, 0]),
   midi.NoteOnEvent(tick=0, channel=3, data=[50, 100]),
   midi.NoteOnEvent(tick=0, channel=3, data=[42, 100]),
   midi.NoteOnEvent(tick=0, channel=3, data=[47, 100]),
   midi.NoteOnEvent(tick=216, channel=3, data=[47, 0]),
   midi.NoteOnEvent(tick=0, channel=3, data=[42, 0]),
   midi.NoteOnEvent(tick=0, channel=3, data=[50, 0]),
   midi.NoteOnEvent(tick=0, channel=3, data=[40, 100]),
   midi.NoteOnEvent(tick=108, channel=3, data=[40, 0]),
   midi.NoteOnEvent(tick=0, channel=3, data=[47, 100]),
   midi.NoteOnEvent(tick=0, channel=3, data=[40, 100]),
   midi.NoteOnEvent(tick=54, channel=3, data=[40, 0]),
   midi.NoteOnEvent(tick=0, channel=3, data=[47, 0]),
   midi.NoteOnEvent(tick=0, channel=3, data=[47, 100]),
   midi.NoteOnEvent(tick=0, channel=3, data=[40, 100]),
   midi.NoteOnEvent(tick=54, channel=3, data=[40, 0]),
   midi.NoteOnEvent(tick=0, channel=3, data=[47, 0]),
   midi.NoteOnEvent(tick=0, channel=3, data=[40, 100]),
   midi.NoteOnEvent(tick=108, channel=3, data=[40, 0]),
   midi.NoteOnEvent(tick=0, channel=3, data=[47, 100]),
   midi.NoteOnEvent(tick=0, channel=3, data=[40, 100]),
   midi.NoteOnEvent(tick=54, channel=3, data=[40, 0]),
   midi.NoteOnEvent(tick=0, channel=3, data=[47, 0]),
   midi.NoteOnEvent(tick=0, channel=3, data=[47, 100]),
   midi.NoteOnEvent(tick=0, channel=3, data=[40, 100]),
   midi.NoteOnEvent(tick=54, channel=3, data=[40, 0]),
   midi.NoteOnEvent(tick=0, channel=3, data=[47, 0]),
   midi.NoteOnEvent(tick=0, channel=3, data=[40, 100]),
   midi.NoteOnEvent(tick=108, channel=3, data=[40, 0]),
   midi.NoteOnEvent(tick=0, channel=3, data=[46, 100]),
   midi.NoteOnEvent(tick=0, channel=3, data=[53, 100]),
   midi.NoteOnEvent(tick=0, channel=3, data=[58, 100]),
   midi.NoteOnEvent(tick=108, channel=3, data=[58, 0]),
   midi.NoteOnEvent(tick=0, channel=3, data=[53, 0]),
   midi.NoteOnEvent(tick=0, channel=3, data=[46, 0]),
   midi.NoteOnEvent(tick=0, channel=3, data=[46, 100]),
   midi.NoteOnEvent(tick=0, channel=3, data=[53, 100]),
   midi.NoteOnEvent(tick=0, channel=3, data=[58, 100]),
   midi.NoteOnEvent(tick=108, channel=3, data=[58, 0]),
   midi.NoteOnEvent(tick=0, channel=3, data=[53, 0]),
   midi.NoteOnEvent(tick=0, channel=3, data=[46, 0]),
   midi.NoteOnEvent(tick=0, channel=3, data=[45, 100]),
   midi.NoteOnEvent(tick=0, channel=3, data=[52, 100]),
   midi.NoteOnEvent(tick=0, channel=3, data=[57, 100]),
   midi.NoteOnEvent(tick=108, channel=3, data=[57, 0]),
   midi.NoteOnEvent(tick=0, channel=3, data=[52, 0]),
   midi.NoteOnEvent(tick=0, channel=3, data=[45, 0]),
   midi.NoteOnEvent(tick=0, channel=3, data=[40, 100]),
   midi.NoteOnEvent(tick=108, channel=3, data=[40, 0]),
   midi.NoteOnEvent(tick=0, channel=3, data=[47, 100]),
   midi.NoteOnEvent(tick=0, channel=3, data=[40, 100]),
   midi.NoteOnEvent(tick=54, channel=3, data=[40, 0]),
   midi.NoteOnEvent(tick=0, channel=3, data=[47, 0]),
   midi.NoteOnEvent(tick=0, channel=3, data=[47, 100]),
   midi.NoteOnEvent(tick=0, channel=3, data=[40, 100]),
   midi.NoteOnEvent(tick=54, channel=3, data=[40, 0]),
   midi.NoteOnEvent(tick=0, channel=3, data=[47, 0]),
   midi.NoteOnEvent(tick=0, channel=3, data=[40, 100]),
   midi.NoteOnEvent(tick=108, channel=3, data=[40, 0]),
   midi.NoteOnEvent(tick=0, channel=3, data=[47, 100]),
   midi.NoteOnEvent(tick=0, channel=3, data=[40, 100]),
   midi.NoteOnEvent(tick=54, channel=3, data=[40, 0]),
   midi.NoteOnEvent(tick=0, channel=3, data=[47, 0]),
   midi.NoteOnEvent(tick=0, channel=3, data=[47, 100]),
   midi.NoteOnEvent(tick=0, channel=3, data=[40, 100]),
   midi.NoteOnEvent(tick=54, channel=3, data=[40, 0]),
   midi.NoteOnEvent(tick=0, channel=3, data=[47, 0]),
   midi.NoteOnEvent(tick=0, channel=3, data=[40, 100]),
   midi.NoteOnEvent(tick=108, channel=3, data=[40, 0]),
   midi.NoteOnEvent(tick=0, channel=3, data=[52, 100]),
   midi.NoteOnEvent(tick=0, channel=3, data=[55, 100]),
   midi.NoteOnEvent(tick=108, channel=3, data=[55, 0]),
   midi.NoteOnEvent(tick=0, channel=3, data=[52, 0]),
   midi.NoteOnEvent(tick=0, channel=3, data=[52, 100]),
   midi.NoteOnEvent(tick=0, channel=3, data=[55, 100]),
   midi.NoteOnEvent(tick=108, channel=3, data=[55, 0]),
   midi.NoteOnEvent(tick=0, channel=3, data=[52, 0]),
   midi.NoteOnEvent(tick=0, channel=3, data=[54, 100]),
   midi.NoteOnEvent(tick=0, channel=3, data=[51, 100]),
   midi.NoteOnEvent(tick=108, channel=3, data=[51, 0]),
   midi.NoteOnEvent(tick=0, channel=3, data=[54, 0]),
   midi.NoteOnEvent(tick=0, channel=3, data=[40, 100]),
   midi.NoteOnEvent(tick=108, channel=3, data=[40, 0]),
   midi.NoteOnEvent(tick=0, channel=3, data=[47, 100]),
   midi.NoteOnEvent(tick=0, channel=3, data=[40, 100]),
   midi.NoteOnEvent(tick=54, channel=3, data=[40, 0]),
   midi.NoteOnEvent(tick=0, channel=3, data=[47, 0]),
   midi.NoteOnEvent(tick=0, channel=3, data=[47, 100]),
   midi.NoteOnEvent(tick=0, channel=3, data=[40, 100]),
   midi.NoteOnEvent(tick=54, channel=3, data=[40, 0]),
   midi.NoteOnEvent(tick=0, channel=3, data=[47, 0]),
   midi.NoteOnEvent(tick=0, channel=3, data=[40, 100]),
   midi.NoteOnEvent(tick=108, channel=3, data=[40, 0]),
   midi.NoteOnEvent(tick=0, channel=3, data=[47, 100]),
   midi.NoteOnEvent(tick=0, channel=3, data=[40, 100]),
   midi.NoteOnEvent(tick=54, channel=3, data=[40, 0]),
   midi.NoteOnEvent(tick=0, channel=3, data=[47, 0]),
   midi.NoteOnEvent(tick=0, channel=3, data=[47, 100]),
   midi.NoteOnEvent(tick=0, channel=3, data=[40, 100]),
   midi.NoteOnEvent(tick=54, channel=3, data=[40, 0]),
   midi.NoteOnEvent(tick=0, channel=3, data=[47, 0]),
   midi.NoteOnEvent(tick=0, channel=3, data=[40, 100]),
   midi.NoteOnEvent(tick=108, channel=3, data=[40, 0]),
   midi.NoteOnEvent(tick=0, channel=3, data=[46, 100]),
   midi.NoteOnEvent(tick=0, channel=3, data=[53, 100]),
   midi.NoteOnEvent(tick=0, channel=3, data=[58, 100]),
   midi.NoteOnEvent(tick=108, channel=3, data=[58, 0]),
   midi.NoteOnEvent(tick=0, channel=3, data=[53, 0]),
   midi.NoteOnEvent(tick=0, channel=3, data=[46, 0]),
   midi.NoteOnEvent(tick=0, channel=3, data=[46, 100]),
   midi.NoteOnEvent(tick=0, channel=3, data=[53, 100]),
   midi.NoteOnEvent(tick=0, channel=3, data=[58, 100]),
   midi.NoteOnEvent(tick=108, channel=3, data=[58, 0]),
   midi.NoteOnEvent(tick=0, channel=3, data=[53, 0]),
   midi.NoteOnEvent(tick=0, channel=3, data=[46, 0]),
   midi.NoteOnEvent(tick=0, channel=3, data=[45, 100]),
   midi.NoteOnEvent(tick=0, channel=3, data=[52, 100]),
   midi.NoteOnEvent(tick=0, channel=3, data=[57, 100]),
   midi.NoteOnEvent(tick=108, channel=3, data=[57, 0]),
   midi.NoteOnEvent(tick=0, channel=3, data=[52, 0]),
   midi.NoteOnEvent(tick=0, channel=3, data=[45, 0]),
   midi.NoteOnEvent(tick=0, channel=3, data=[46, 100]),
   midi.NoteOnEvent(tick=0, channel=3, data=[53, 100]),
   midi.NoteOnEvent(tick=0, channel=3, data=[58, 100]),
   midi.NoteOnEvent(tick=108, channel=3, data=[58, 0]),
   midi.NoteOnEvent(tick=0, channel=3, data=[53, 0]),
   midi.NoteOnEvent(tick=0, channel=3, data=[46, 0]),
   midi.NoteOnEvent(tick=0, channel=3, data=[48, 100]),
   midi.NoteOnEvent(tick=0, channel=3, data=[41, 100]),
   midi.NoteOnEvent(tick=0, channel=3, data=[53, 100]),
   midi.NoteOnEvent(tick=108, channel=3, data=[53, 0]),
   midi.NoteOnEvent(tick=0, channel=3, data=[41, 0]),
   midi.NoteOnEvent(tick=0, channel=3, data=[48, 0]),
   midi.NoteOnEvent(tick=0, channel=3, data=[40, 100]),
   midi.NoteOnEvent(tick=108, channel=3, data=[40, 0]),
   midi.NoteOnEvent(tick=0, channel=3, data=[47, 100]),
   midi.NoteOnEvent(tick=0, channel=3, data=[40, 100]),
   midi.NoteOnEvent(tick=54, channel=3, data=[40, 0]),
   midi.NoteOnEvent(tick=0, channel=3, data=[47, 0]),
   midi.NoteOnEvent(tick=0, channel=3, data=[47, 100]),
   midi.NoteOnEvent(tick=0, channel=3, data=[40, 100]),
   midi.NoteOnEvent(tick=54, channel=3, data=[40, 0]),
   midi.NoteOnEvent(tick=0, channel=3, data=[47, 0]),
   midi.NoteOnEvent(tick=0, channel=3, data=[40, 100]),
   midi.NoteOnEvent(tick=108, channel=3, data=[40, 0]),
   midi.NoteOnEvent(tick=0, channel=3, data=[47, 100]),
   midi.NoteOnEvent(tick=0, channel=3, data=[40, 100]),
   midi.NoteOnEvent(tick=54, channel=3, data=[40, 0]),
   midi.NoteOnEvent(tick=0, channel=3, data=[47, 0]),
   midi.NoteOnEvent(tick=0, channel=3, data=[47, 100]),
   midi.NoteOnEvent(tick=0, channel=3, data=[40, 100]),
   midi.NoteOnEvent(tick=54, channel=3, data=[40, 0]),
   midi.NoteOnEvent(tick=0, channel=3, data=[47, 0]),
   midi.NoteOnEvent(tick=0, channel=3, data=[40, 100]),
   midi.NoteOnEvent(tick=108, channel=3, data=[40, 0]),
   midi.NoteOnEvent(tick=0, channel=3, data=[46, 100]),
   midi.NoteOnEvent(tick=0, channel=3, data=[53, 100]),
   midi.NoteOnEvent(tick=0, channel=3, data=[58, 100]),
   midi.NoteOnEvent(tick=108, channel=3, data=[58, 0]),
   midi.NoteOnEvent(tick=0, channel=3, data=[53, 0]),
   midi.NoteOnEvent(tick=0, channel=3, data=[46, 0]),
   midi.NoteOnEvent(tick=0, channel=3, data=[46, 100]),
   midi.NoteOnEvent(tick=0, channel=3, data=[53, 100]),
   midi.NoteOnEvent(tick=0, channel=3, data=[58, 100]),
   midi.NoteOnEvent(tick=108, channel=3, data=[58, 0]),
   midi.NoteOnEvent(tick=0, channel=3, data=[53, 0]),
   midi.NoteOnEvent(tick=0, channel=3, data=[46, 0]),
   midi.NoteOnEvent(tick=0, channel=3, data=[45, 100]),
   midi.NoteOnEvent(tick=0, channel=3, data=[52, 100]),
   midi.NoteOnEvent(tick=0, channel=3, data=[57, 100]),
   midi.NoteOnEvent(tick=108, channel=3, data=[57, 0]),
   midi.NoteOnEvent(tick=0, channel=3, data=[52, 0]),
   midi.NoteOnEvent(tick=0, channel=3, data=[45, 0]),
   midi.NoteOnEvent(tick=0, channel=3, data=[40, 100]),
   midi.NoteOnEvent(tick=108, channel=3, data=[40, 0]),
   midi.NoteOnEvent(tick=0, channel=3, data=[47, 100]),
   midi.NoteOnEvent(tick=0, channel=3, data=[40, 100]),
   midi.NoteOnEvent(tick=54, channel=3, data=[40, 0]),
   midi.NoteOnEvent(tick=0, channel=3, data=[47, 0]),
   midi.NoteOnEvent(tick=0, channel=3, data=[47, 100]),
   midi.NoteOnEvent(tick=0, channel=3, data=[40, 100]),
   midi.NoteOnEvent(tick=54, channel=3, data=[40, 0]),
   midi.NoteOnEvent(tick=0, channel=3, data=[47, 0]),
   midi.NoteOnEvent(tick=0, channel=3, data=[40, 100]),
   midi.NoteOnEvent(tick=108, channel=3, data=[40, 0]),
   midi.NoteOnEvent(tick=0, channel=3, data=[47, 100]),
   midi.NoteOnEvent(tick=0, channel=3, data=[40, 100]),
   midi.NoteOnEvent(tick=54, channel=3, data=[40, 0]),
   midi.NoteOnEvent(tick=0, channel=3, data=[47, 0]),
   midi.NoteOnEvent(tick=0, channel=3, data=[47, 100]),
   midi.NoteOnEvent(tick=0, channel=3, data=[40, 100]),
   midi.NoteOnEvent(tick=54, channel=3, data=[40, 0]),
   midi.NoteOnEvent(tick=0, channel=3, data=[47, 0]),
   midi.NoteOnEvent(tick=0, channel=3, data=[40, 100]),
   midi.NoteOnEvent(tick=108, channel=3, data=[40, 0]),
   midi.NoteOnEvent(tick=0, channel=3, data=[52, 100]),
   midi.NoteOnEvent(tick=0, channel=3, data=[55, 100]),
   midi.NoteOnEvent(tick=108, channel=3, data=[55, 0]),
   midi.NoteOnEvent(tick=0, channel=3, data=[52, 0]),
   midi.NoteOnEvent(tick=0, channel=3, data=[52, 100]),
   midi.NoteOnEvent(tick=0, channel=3, data=[55, 100]),
   midi.NoteOnEvent(tick=108, channel=3, data=[55, 0]),
   midi.NoteOnEvent(tick=0, channel=3, data=[52, 0]),
   midi.NoteOnEvent(tick=0, channel=3, data=[54, 100]),
   midi.NoteOnEvent(tick=0, channel=3, data=[51, 100]),
   midi.NoteOnEvent(tick=108, channel=3, data=[51, 0]),
   midi.NoteOnEvent(tick=0, channel=3, data=[54, 0]),
   midi.NoteOnEvent(tick=0, channel=3, data=[52, 100]),
   midi.NoteOnEvent(tick=0, channel=3, data=[55, 100]),
   midi.NoteOnEvent(tick=108, channel=3, data=[55, 0]),
   midi.NoteOnEvent(tick=0, channel=3, data=[52, 0]),
   midi.NoteOnEvent(tick=0, channel=3, data=[47, 100]),
   midi.NoteOnEvent(tick=0, channel=3, data=[40, 100]),
   midi.NoteOnEvent(tick=54, channel=3, data=[40, 0]),
   midi.NoteOnEvent(tick=0, channel=3, data=[47, 0]),
   midi.NoteOnEvent(tick=0, channel=3, data=[47, 100]),
   midi.NoteOnEvent(tick=0, channel=3, data=[40, 100]),
   midi.NoteOnEvent(tick=54, channel=3, data=[40, 0]),
   midi.NoteOnEvent(tick=0, channel=3, data=[47, 0]),
   midi.NoteOnEvent(tick=0, channel=3, data=[40, 100]),
   midi.NoteOnEvent(tick=108, channel=3, data=[40, 0]),
   midi.NoteOnEvent(tick=0, channel=3, data=[47, 100]),
   midi.NoteOnEvent(tick=0, channel=3, data=[40, 100]),
   midi.NoteOnEvent(tick=54, channel=3, data=[40, 0]),
   midi.NoteOnEvent(tick=0, channel=3, data=[47, 0]),
   midi.NoteOnEvent(tick=0, channel=3, data=[47, 100]),
   midi.NoteOnEvent(tick=0, channel=3, data=[40, 100]),
   midi.NoteOnEvent(tick=54, channel=3, data=[40, 0]),
   midi.NoteOnEvent(tick=0, channel=3, data=[47, 0]),
   midi.NoteOnEvent(tick=0, channel=3, data=[40, 100]),
   midi.NoteOnEvent(tick=108, channel=3, data=[40, 0]),
   midi.NoteOnEvent(tick=0, channel=3, data=[46, 100]),
   midi.NoteOnEvent(tick=0, channel=3, data=[53, 100]),
   midi.NoteOnEvent(tick=0, channel=3, data=[58, 100]),
   midi.NoteOnEvent(tick=108, channel=3, data=[58, 0]),
   midi.NoteOnEvent(tick=0, channel=3, data=[53, 0]),
   midi.NoteOnEvent(tick=0, channel=3, data=[46, 0]),
   midi.NoteOnEvent(tick=0, channel=3, data=[46, 100]),
   midi.NoteOnEvent(tick=0, channel=3, data=[53, 100]),
   midi.NoteOnEvent(tick=0, channel=3, data=[58, 100]),
   midi.NoteOnEvent(tick=108, channel=3, data=[58, 0]),
   midi.NoteOnEvent(tick=0, channel=3, data=[53, 0]),
   midi.NoteOnEvent(tick=0, channel=3, data=[46, 0]),
   midi.NoteOnEvent(tick=0, channel=3, data=[45, 100]),
   midi.NoteOnEvent(tick=0, channel=3, data=[52, 100]),
   midi.NoteOnEvent(tick=0, channel=3, data=[57, 100]),
   midi.NoteOnEvent(tick=108, channel=3, data=[57, 0]),
   midi.NoteOnEvent(tick=0, channel=3, data=[52, 0]),
   midi.NoteOnEvent(tick=0, channel=3, data=[45, 0]),
   midi.NoteOnEvent(tick=0, channel=3, data=[46, 100]),
   midi.NoteOnEvent(tick=0, channel=3, data=[53, 100]),
   midi.NoteOnEvent(tick=0, channel=3, data=[58, 100]),
   midi.NoteOnEvent(tick=216, channel=3, data=[58, 0]),
   midi.NoteOnEvent(tick=0, channel=3, data=[53, 0]),
   midi.NoteOnEvent(tick=0, channel=3, data=[46, 0]),
   midi.NoteOnEvent(tick=0, channel=3, data=[48, 100]),
   midi.NoteOnEvent(tick=0, channel=3, data=[41, 100]),
   midi.NoteOnEvent(tick=0, channel=3, data=[53, 100]),
   midi.NoteOnEvent(tick=216, channel=3, data=[53, 0]),
   midi.NoteOnEvent(tick=0, channel=3, data=[41, 0]),
   midi.NoteOnEvent(tick=0, channel=3, data=[48, 0]),
   midi.NoteOnEvent(tick=0, channel=3, data=[47, 100]),
   midi.NoteOnEvent(tick=0, channel=3, data=[40, 100]),
   midi.NoteOnEvent(tick=0, channel=3, data=[52, 100]),
   midi.NoteOnEvent(tick=216, channel=3, data=[52, 0]),
   midi.NoteOnEvent(tick=0, channel=3, data=[40, 0]),
   midi.NoteOnEvent(tick=0, channel=3, data=[47, 0]),
   midi.NoteOnEvent(tick=216, channel=3, data=[52, 100]),
   midi.NoteOnEvent(tick=0, channel=3, data=[47, 100]),
   midi.NoteOnEvent(tick=0, channel=3, data=[40, 100]),
   midi.NoteOnEvent(tick=1724, channel=3, data=[40, 0]),
   midi.NoteOnEvent(tick=0, channel=3, data=[47, 0]),
   midi.NoteOnEvent(tick=0, channel=3, data=[52, 0]),
   midi.NoteOnEvent(tick=4, channel=3, data=[52, 100]),
   midi.NoteOnEvent(tick=0, channel=3, data=[40, 100]),
   midi.NoteOnEvent(tick=0, channel=3, data=[47, 100]),
   midi.NoteOnEvent(tick=1724, channel=3, data=[47, 0]),
   midi.NoteOnEvent(tick=0, channel=3, data=[40, 0]),
   midi.NoteOnEvent(tick=0, channel=3, data=[52, 0]),
   midi.NoteOnEvent(tick=4, channel=3, data=[43, 100]),
   midi.NoteOnEvent(tick=0, channel=3, data=[50, 100]),
   midi.NoteOnEvent(tick=0, channel=3, data=[55, 100]),
   midi.NoteOnEvent(tick=1184, channel=3, data=[55, 0]),
   midi.NoteOnEvent(tick=0, channel=3, data=[50, 0]),
   midi.NoteOnEvent(tick=0, channel=3, data=[43, 0]),
   midi.NoteOnEvent(tick=4, channel=3, data=[43, 100]),
   midi.NoteOnEvent(tick=0, channel=3, data=[50, 100]),
   midi.NoteOnEvent(tick=0, channel=3, data=[55, 100]),
   midi.NoteOnEvent(tick=108, channel=3, data=[55, 0]),
   midi.NoteOnEvent(tick=0, channel=3, data=[50, 0]),
   midi.NoteOnEvent(tick=0, channel=3, data=[43, 0]),
   midi.NoteOnEvent(tick=108, channel=3, data=[43, 100]),
   midi.NoteOnEvent(tick=108, channel=3, data=[43, 0]),
   midi.NoteOnEvent(tick=0, channel=3, data=[43, 100]),
   midi.NoteOnEvent(tick=0, channel=3, data=[50, 100]),
   midi.NoteOnEvent(tick=0, channel=3, data=[55, 100]),
   midi.NoteOnEvent(tick=216, channel=3, data=[55, 0]),
   midi.NoteOnEvent(tick=0, channel=3, data=[50, 0]),
   midi.NoteOnEvent(tick=0, channel=3, data=[43, 0]),
   midi.NoteOnEvent(tick=0, channel=3, data=[40, 100]),
   midi.NoteOnEvent(tick=0, channel=3, data=[47, 100]),
   midi.NoteOnEvent(tick=0, channel=3, data=[52, 100]),
   midi.NoteOnEvent(tick=1724, channel=3, data=[52, 0]),
   midi.NoteOnEvent(tick=0, channel=3, data=[47, 0]),
   midi.NoteOnEvent(tick=0, channel=3, data=[40, 0]),
   midi.NoteOnEvent(tick=4, channel=3, data=[43, 100]),
   midi.NoteOnEvent(tick=0, channel=3, data=[50, 100]),
   midi.NoteOnEvent(tick=0, channel=3, data=[55, 100]),
   midi.NoteOnEvent(tick=1292, channel=3, data=[55, 0]),
   midi.NoteOnEvent(tick=0, channel=3, data=[50, 0]),
   midi.NoteOnEvent(tick=0, channel=3, data=[43, 0]),
   midi.NoteOnEvent(tick=4, channel=3, data=[47, 100]),
   midi.NoteOnEvent(tick=0, channel=3, data=[54, 100]),
   midi.NoteOnEvent(tick=0, channel=3, data=[59, 100]),
   midi.NoteOnEvent(tick=108, channel=3, data=[59, 0]),
   midi.NoteOnEvent(tick=0, channel=3, data=[54, 0]),
   midi.NoteOnEvent(tick=0, channel=3, data=[47, 0]),
   midi.NoteOnEvent(tick=0, channel=3, data=[47, 100]),
   midi.NoteOnEvent(tick=0, channel=3, data=[54, 100]),
   midi.NoteOnEvent(tick=0, channel=3, data=[59, 100]),
   midi.NoteOnEvent(tick=108, channel=3, data=[59, 0]),
   midi.NoteOnEvent(tick=0, channel=3, data=[54, 0]),
   midi.NoteOnEvent(tick=0, channel=3, data=[47, 0]),
   midi.NoteOnEvent(tick=216, channel=3, data=[52, 100]),
   midi.NoteOnEvent(tick=0, channel=3, data=[47, 100]),
   midi.NoteOnEvent(tick=0, channel=3, data=[40, 100]),
   midi.NoteOnEvent(tick=324, channel=3, data=[40, 0]),
   midi.NoteOnEvent(tick=0, channel=3, data=[47, 0]),
   midi.NoteOnEvent(tick=0, channel=3, data=[52, 0]),
   midi.NoteOnEvent(tick=0, channel=3, data=[40, 100]),
   midi.NoteOnEvent(tick=0, channel=3, data=[47, 100]),
   midi.NoteOnEvent(tick=0, channel=3, data=[52, 100]),
   midi.NoteOnEvent(tick=108, channel=3, data=[52, 0]),
   midi.NoteOnEvent(tick=0, channel=3, data=[47, 0]),
   midi.NoteOnEvent(tick=0, channel=3, data=[40, 0]),
   midi.NoteOnEvent(tick=0, channel=3, data=[40, 100]),
   midi.NoteOnEvent(tick=0, channel=3, data=[47, 100]),
   midi.NoteOnEvent(tick=0, channel=3, data=[52, 100]),
   midi.NoteOnEvent(tick=216, channel=3, data=[52, 0]),
   midi.NoteOnEvent(tick=0, channel=3, data=[47, 0]),
   midi.NoteOnEvent(tick=0, channel=3, data=[40, 0]),
   midi.NoteOnEvent(tick=0, channel=3, data=[40, 100]),
   midi.NoteOnEvent(tick=0, channel=3, data=[47, 100]),
   midi.NoteOnEvent(tick=0, channel=3, data=[52, 100]),
   midi.NoteOnEvent(tick=108, channel=3, data=[52, 0]),
   midi.NoteOnEvent(tick=0, channel=3, data=[47, 0]),
   midi.NoteOnEvent(tick=0, channel=3, data=[40, 0]),
   midi.NoteOnEvent(tick=0, channel=3, data=[40, 100]),
   midi.NoteOnEvent(tick=0, channel=3, data=[47, 100]),
   midi.NoteOnEvent(tick=0, channel=3, data=[52, 100]),
   midi.NoteOnEvent(tick=108, channel=3, data=[52, 0]),
   midi.NoteOnEvent(tick=0, channel=3, data=[47, 0]),
   midi.NoteOnEvent(tick=0, channel=3, data=[40, 0]),
   midi.NoteOnEvent(tick=0, channel=3, data=[40, 100]),
   midi.NoteOnEvent(tick=0, channel=3, data=[47, 100]),
   midi.NoteOnEvent(tick=0, channel=3, data=[52, 100]),
   midi.NoteOnEvent(tick=108, channel=3, data=[52, 0]),
   midi.NoteOnEvent(tick=0, channel=3, data=[47, 0]),
   midi.NoteOnEvent(tick=0, channel=3, data=[40, 0]),
   midi.NoteOnEvent(tick=0, channel=3, data=[40, 100]),
   midi.NoteOnEvent(tick=0, channel=3, data=[47, 100]),
   midi.NoteOnEvent(tick=0, channel=3, data=[52, 100]),
   midi.NoteOnEvent(tick=212, channel=3, data=[52, 0]),
   midi.NoteOnEvent(tick=0, channel=3, data=[47, 0]),
   midi.NoteOnEvent(tick=0, channel=3, data=[40, 0]),
   midi.NoteOnEvent(tick=4, channel=3, data=[40, 100]),
   midi.NoteOnEvent(tick=0, channel=3, data=[47, 100]),
   midi.NoteOnEvent(tick=0, channel=3, data=[52, 100]),
   midi.NoteOnEvent(tick=108, channel=3, data=[52, 0]),
   midi.NoteOnEvent(tick=0, channel=3, data=[47, 0]),
   midi.NoteOnEvent(tick=0, channel=3, data=[40, 0]),
   midi.NoteOnEvent(tick=0, channel=3, data=[60, 100]),
   midi.NoteOnEvent(tick=0, channel=3, data=[55, 100]),
   midi.NoteOnEvent(tick=0, channel=3, data=[48, 100]),
   midi.NoteOnEvent(tick=216, channel=3, data=[48, 0]),
   midi.NoteOnEvent(tick=0, channel=3, data=[55, 0]),
   midi.NoteOnEvent(tick=0, channel=3, data=[60, 0]),
   midi.NoteOnEvent(tick=0, channel=3, data=[62, 100]),
   midi.NoteOnEvent(tick=0, channel=3, data=[50, 100]),
   midi.NoteOnEvent(tick=0, channel=3, data=[57, 100]),
   midi.NoteOnEvent(tick=216, channel=3, data=[57, 0]),
   midi.NoteOnEvent(tick=0, channel=3, data=[50, 0]),
   midi.NoteOnEvent(tick=0, channel=3, data=[62, 0]),
   midi.NoteOnEvent(tick=0, channel=3, data=[55, 100]),
   midi.NoteOnEvent(tick=0, channel=3, data=[50, 100]),
   midi.NoteOnEvent(tick=0, channel=3, data=[43, 100]),
   midi.NoteOnEvent(tick=324, channel=3, data=[43, 0]),
   midi.NoteOnEvent(tick=0, channel=3, data=[50, 0]),
   midi.NoteOnEvent(tick=0, channel=3, data=[55, 0]),
   midi.NoteOnEvent(tick=0, channel=3, data=[43, 100]),
   midi.NoteOnEvent(tick=0, channel=3, data=[50, 100]),
   midi.NoteOnEvent(tick=0, channel=3, data=[55, 100]),
   midi.NoteOnEvent(tick=108, channel=3, data=[55, 0]),
   midi.NoteOnEvent(tick=0, channel=3, data=[50, 0]),
   midi.NoteOnEvent(tick=0, channel=3, data=[43, 0]),
   midi.NoteOnEvent(tick=0, channel=3, data=[43, 100]),
   midi.NoteOnEvent(tick=0, channel=3, data=[50, 100]),
   midi.NoteOnEvent(tick=0, channel=3, data=[55, 100]),
   midi.NoteOnEvent(tick=216, channel=3, data=[55, 0]),
   midi.NoteOnEvent(tick=0, channel=3, data=[50, 0]),
   midi.NoteOnEvent(tick=0, channel=3, data=[43, 0]),
   midi.NoteOnEvent(tick=0, channel=3, data=[43, 100]),
   midi.NoteOnEvent(tick=0, channel=3, data=[50, 100]),
   midi.NoteOnEvent(tick=0, channel=3, data=[55, 100]),
   midi.NoteOnEvent(tick=108, channel=3, data=[55, 0]),
   midi.NoteOnEvent(tick=0, channel=3, data=[50, 0]),
   midi.NoteOnEvent(tick=0, channel=3, data=[43, 0]),
   midi.NoteOnEvent(tick=0, channel=3, data=[43, 100]),
   midi.NoteOnEvent(tick=0, channel=3, data=[50, 100]),
   midi.NoteOnEvent(tick=0, channel=3, data=[55, 100]),
   midi.NoteOnEvent(tick=108, channel=3, data=[55, 0]),
   midi.NoteOnEvent(tick=0, channel=3, data=[50, 0]),
   midi.NoteOnEvent(tick=0, channel=3, data=[43, 0]),
   midi.NoteOnEvent(tick=0, channel=3, data=[43, 100]),
   midi.NoteOnEvent(tick=0, channel=3, data=[50, 100]),
   midi.NoteOnEvent(tick=0, channel=3, data=[55, 100]),
   midi.NoteOnEvent(tick=108, channel=3, data=[55, 0]),
   midi.NoteOnEvent(tick=0, channel=3, data=[50, 0]),
   midi.NoteOnEvent(tick=0, channel=3, data=[43, 0]),
   midi.NoteOnEvent(tick=0, channel=3, data=[43, 100]),
   midi.NoteOnEvent(tick=0, channel=3, data=[50, 100]),
   midi.NoteOnEvent(tick=0, channel=3, data=[55, 100]),
   midi.NoteOnEvent(tick=212, channel=3, data=[55, 0]),
   midi.NoteOnEvent(tick=0, channel=3, data=[50, 0]),
   midi.NoteOnEvent(tick=0, channel=3, data=[43, 0]),
   midi.NoteOnEvent(tick=4, channel=3, data=[52, 100]),
   midi.NoteOnEvent(tick=0, channel=3, data=[45, 100]),
   midi.NoteOnEvent(tick=0, channel=3, data=[57, 100]),
   midi.NoteOnEvent(tick=108, channel=3, data=[57, 0]),
   midi.NoteOnEvent(tick=0, channel=3, data=[45, 0]),
   midi.NoteOnEvent(tick=0, channel=3, data=[52, 0]),
   midi.NoteOnEvent(tick=0, channel=3, data=[45, 100]),
   midi.NoteOnEvent(tick=0, channel=3, data=[52, 100]),
   midi.NoteOnEvent(tick=0, channel=3, data=[57, 100]),
   midi.NoteOnEvent(tick=216, channel=3, data=[57, 0]),
   midi.NoteOnEvent(tick=0, channel=3, data=[52, 0]),
   midi.NoteOnEvent(tick=0, channel=3, data=[45, 0]),
   midi.NoteOnEvent(tick=0, channel=3, data=[54, 100]),
   midi.NoteOnEvent(tick=0, channel=3, data=[47, 100]),
   midi.NoteOnEvent(tick=0, channel=3, data=[59, 100]),
   midi.NoteOnEvent(tick=216, channel=3, data=[59, 0]),
   midi.NoteOnEvent(tick=0, channel=3, data=[47, 0]),
   midi.NoteOnEvent(tick=0, channel=3, data=[54, 0]),
   midi.NoteOnEvent(tick=0, channel=3, data=[52, 100]),
   midi.NoteOnEvent(tick=0, channel=3, data=[47, 100]),
   midi.NoteOnEvent(tick=0, channel=3, data=[40, 100]),
   midi.NoteOnEvent(tick=324, channel=3, data=[40, 0]),
   midi.NoteOnEvent(tick=0, channel=3, data=[47, 0]),
   midi.NoteOnEvent(tick=0, channel=3, data=[52, 0]),
   midi.NoteOnEvent(tick=0, channel=3, data=[40, 100]),
   midi.NoteOnEvent(tick=0, channel=3, data=[47, 100]),
   midi.NoteOnEvent(tick=0, channel=3, data=[52, 100]),
   midi.NoteOnEvent(tick=108, channel=3, data=[52, 0]),
   midi.NoteOnEvent(tick=0, channel=3, data=[47, 0]),
   midi.NoteOnEvent(tick=0, channel=3, data=[40, 0]),
   midi.NoteOnEvent(tick=0, channel=3, data=[40, 100]),
   midi.NoteOnEvent(tick=0, channel=3, data=[47, 100]),
   midi.NoteOnEvent(tick=0, channel=3, data=[52, 100]),
   midi.NoteOnEvent(tick=216, channel=3, data=[52, 0]),
   midi.NoteOnEvent(tick=0, channel=3, data=[47, 0]),
   midi.NoteOnEvent(tick=0, channel=3, data=[40, 0]),
   midi.NoteOnEvent(tick=0, channel=3, data=[40, 100]),
   midi.NoteOnEvent(tick=0, channel=3, data=[47, 100]),
   midi.NoteOnEvent(tick=0, channel=3, data=[52, 100]),
   midi.NoteOnEvent(tick=108, channel=3, data=[52, 0]),
   midi.NoteOnEvent(tick=0, channel=3, data=[47, 0]),
   midi.NoteOnEvent(tick=0, channel=3, data=[40, 0]),
   midi.NoteOnEvent(tick=0, channel=3, data=[40, 100]),
   midi.NoteOnEvent(tick=0, channel=3, data=[47, 100]),
   midi.NoteOnEvent(tick=0, channel=3, data=[52, 100]),
   midi.NoteOnEvent(tick=108, channel=3, data=[52, 0]),
   midi.NoteOnEvent(tick=0, channel=3, data=[47, 0]),
   midi.NoteOnEvent(tick=0, channel=3, data=[40, 0]),
   midi.NoteOnEvent(tick=0, channel=3, data=[40, 100]),
   midi.NoteOnEvent(tick=0, channel=3, data=[47, 100]),
   midi.NoteOnEvent(tick=0, channel=3, data=[52, 100]),
   midi.NoteOnEvent(tick=108, channel=3, data=[52, 0]),
   midi.NoteOnEvent(tick=0, channel=3, data=[47, 0]),
   midi.NoteOnEvent(tick=0, channel=3, data=[40, 0]),
   midi.NoteOnEvent(tick=0, channel=3, data=[40, 100]),
   midi.NoteOnEvent(tick=0, channel=3, data=[47, 100]),
   midi.NoteOnEvent(tick=0, channel=3, data=[52, 100]),
   midi.NoteOnEvent(tick=212, channel=3, data=[52, 0]),
   midi.NoteOnEvent(tick=0, channel=3, data=[47, 0]),
   midi.NoteOnEvent(tick=0, channel=3, data=[40, 0]),
   midi.NoteOnEvent(tick=4, channel=3, data=[40, 100]),
   midi.NoteOnEvent(tick=0, channel=3, data=[47, 100]),
   midi.NoteOnEvent(tick=0, channel=3, data=[52, 100]),
   midi.NoteOnEvent(tick=108, channel=3, data=[52, 0]),
   midi.NoteOnEvent(tick=0, channel=3, data=[47, 0]),
   midi.NoteOnEvent(tick=0, channel=3, data=[40, 0]),
   midi.NoteOnEvent(tick=0, channel=3, data=[60, 100]),
   midi.NoteOnEvent(tick=0, channel=3, data=[55, 100]),
   midi.NoteOnEvent(tick=0, channel=3, data=[48, 100]),
   midi.NoteOnEvent(tick=216, channel=3, data=[48, 0]),
   midi.NoteOnEvent(tick=0, channel=3, data=[55, 0]),
   midi.NoteOnEvent(tick=0, channel=3, data=[60, 0]),
   midi.NoteOnEvent(tick=0, channel=3, data=[62, 100]),
   midi.NoteOnEvent(tick=0, channel=3, data=[50, 100]),
   midi.NoteOnEvent(tick=0, channel=3, data=[57, 100]),
   midi.NoteOnEvent(tick=216, channel=3, data=[57, 0]),
   midi.NoteOnEvent(tick=0, channel=3, data=[50, 0]),
   midi.NoteOnEvent(tick=0, channel=3, data=[62, 0]),
   midi.NoteOnEvent(tick=0, channel=3, data=[55, 100]),
   midi.NoteOnEvent(tick=0, channel=3, data=[50, 100]),
   midi.NoteOnEvent(tick=0, channel=3, data=[43, 100]),
   midi.NoteOnEvent(tick=324, channel=3, data=[43, 0]),
   midi.NoteOnEvent(tick=0, channel=3, data=[50, 0]),
   midi.NoteOnEvent(tick=0, channel=3, data=[55, 0]),
   midi.NoteOnEvent(tick=0, channel=3, data=[43, 100]),
   midi.NoteOnEvent(tick=0, channel=3, data=[50, 100]),
   midi.NoteOnEvent(tick=0, channel=3, data=[55, 100]),
   midi.NoteOnEvent(tick=108, channel=3, data=[55, 0]),
   midi.NoteOnEvent(tick=0, channel=3, data=[50, 0]),
   midi.NoteOnEvent(tick=0, channel=3, data=[43, 0]),
   midi.NoteOnEvent(tick=0, channel=3, data=[43, 100]),
   midi.NoteOnEvent(tick=0, channel=3, data=[50, 100]),
   midi.NoteOnEvent(tick=0, channel=3, data=[55, 100]),
   midi.NoteOnEvent(tick=216, channel=3, data=[55, 0]),
   midi.NoteOnEvent(tick=0, channel=3, data=[50, 0]),
   midi.NoteOnEvent(tick=0, channel=3, data=[43, 0]),
   midi.NoteOnEvent(tick=0, channel=3, data=[43, 100]),
   midi.NoteOnEvent(tick=0, channel=3, data=[50, 100]),
   midi.NoteOnEvent(tick=0, channel=3, data=[55, 100]),
   midi.NoteOnEvent(tick=108, channel=3, data=[55, 0]),
   midi.NoteOnEvent(tick=0, channel=3, data=[50, 0]),
   midi.NoteOnEvent(tick=0, channel=3, data=[43, 0]),
   midi.NoteOnEvent(tick=0, channel=3, data=[43, 100]),
   midi.NoteOnEvent(tick=0, channel=3, data=[50, 100]),
   midi.NoteOnEvent(tick=0, channel=3, data=[55, 100]),
   midi.NoteOnEvent(tick=108, channel=3, data=[55, 0]),
   midi.NoteOnEvent(tick=0, channel=3, data=[50, 0]),
   midi.NoteOnEvent(tick=0, channel=3, data=[43, 0]),
   midi.NoteOnEvent(tick=0, channel=3, data=[43, 100]),
   midi.NoteOnEvent(tick=0, channel=3, data=[50, 100]),
   midi.NoteOnEvent(tick=0, channel=3, data=[55, 100]),
   midi.NoteOnEvent(tick=108, channel=3, data=[55, 0]),
   midi.NoteOnEvent(tick=0, channel=3, data=[50, 0]),
   midi.NoteOnEvent(tick=0, channel=3, data=[43, 0]),
   midi.NoteOnEvent(tick=0, channel=3, data=[43, 100]),
   midi.NoteOnEvent(tick=0, channel=3, data=[50, 100]),
   midi.NoteOnEvent(tick=0, channel=3, data=[55, 100]),
   midi.NoteOnEvent(tick=212, channel=3, data=[55, 0]),
   midi.NoteOnEvent(tick=0, channel=3, data=[50, 0]),
   midi.NoteOnEvent(tick=0, channel=3, data=[43, 0]),
   midi.NoteOnEvent(tick=4, channel=3, data=[52, 100]),
   midi.NoteOnEvent(tick=0, channel=3, data=[45, 100]),
   midi.NoteOnEvent(tick=0, channel=3, data=[57, 100]),
   midi.NoteOnEvent(tick=108, channel=3, data=[57, 0]),
   midi.NoteOnEvent(tick=0, channel=3, data=[45, 0]),
   midi.NoteOnEvent(tick=0, channel=3, data=[52, 0]),
   midi.NoteOnEvent(tick=0, channel=3, data=[45, 100]),
   midi.NoteOnEvent(tick=0, channel=3, data=[52, 100]),
   midi.NoteOnEvent(tick=0, channel=3, data=[57, 100]),
   midi.NoteOnEvent(tick=216, channel=3, data=[57, 0]),
   midi.NoteOnEvent(tick=0, channel=3, data=[52, 0]),
   midi.NoteOnEvent(tick=0, channel=3, data=[45, 0]),
   midi.NoteOnEvent(tick=0, channel=3, data=[54, 100]),
   midi.NoteOnEvent(tick=0, channel=3, data=[47, 100]),
   midi.NoteOnEvent(tick=0, channel=3, data=[59, 100]),
   midi.NoteOnEvent(tick=216, channel=3, data=[59, 0]),
   midi.NoteOnEvent(tick=0, channel=3, data=[47, 0]),
   midi.NoteOnEvent(tick=0, channel=3, data=[54, 0]),
   midi.NoteOnEvent(tick=0, channel=3, data=[52, 100]),
   midi.NoteOnEvent(tick=0, channel=3, data=[47, 100]),
   midi.NoteOnEvent(tick=0, channel=3, data=[40, 100]),
   midi.NoteOnEvent(tick=324, channel=3, data=[40, 0]),
   midi.NoteOnEvent(tick=0, channel=3, data=[47, 0]),
   midi.NoteOnEvent(tick=0, channel=3, data=[52, 0]),
   midi.NoteOnEvent(tick=0, channel=3, data=[40, 100]),
   midi.NoteOnEvent(tick=0, channel=3, data=[47, 100]),
   midi.NoteOnEvent(tick=0, channel=3, data=[52, 100]),
   midi.NoteOnEvent(tick=108, channel=3, data=[52, 0]),
   midi.NoteOnEvent(tick=0, channel=3, data=[47, 0]),
   midi.NoteOnEvent(tick=0, channel=3, data=[40, 0]),
   midi.NoteOnEvent(tick=0, channel=3, data=[40, 100]),
   midi.NoteOnEvent(tick=0, channel=3, data=[47, 100]),
   midi.NoteOnEvent(tick=0, channel=3, data=[52, 100]),
   midi.NoteOnEvent(tick=216, channel=3, data=[52, 0]),
   midi.NoteOnEvent(tick=0, channel=3, data=[47, 0]),
   midi.NoteOnEvent(tick=0, channel=3, data=[40, 0]),
   midi.NoteOnEvent(tick=0, channel=3, data=[40, 100]),
   midi.NoteOnEvent(tick=0, channel=3, data=[47, 100]),
   midi.NoteOnEvent(tick=0, channel=3, data=[52, 100]),
   midi.NoteOnEvent(tick=108, channel=3, data=[52, 0]),
   midi.NoteOnEvent(tick=0, channel=3, data=[47, 0]),
   midi.NoteOnEvent(tick=0, channel=3, data=[40, 0]),
   midi.NoteOnEvent(tick=0, channel=3, data=[40, 100]),
   midi.NoteOnEvent(tick=0, channel=3, data=[47, 100]),
   midi.NoteOnEvent(tick=0, channel=3, data=[52, 100]),
   midi.NoteOnEvent(tick=108, channel=3, data=[52, 0]),
   midi.NoteOnEvent(tick=0, channel=3, data=[47, 0]),
   midi.NoteOnEvent(tick=0, channel=3, data=[40, 0]),
   midi.NoteOnEvent(tick=0, channel=3, data=[40, 100]),
   midi.NoteOnEvent(tick=0, channel=3, data=[47, 100]),
   midi.NoteOnEvent(tick=0, channel=3, data=[52, 100]),
   midi.NoteOnEvent(tick=108, channel=3, data=[52, 0]),
   midi.NoteOnEvent(tick=0, channel=3, data=[47, 0]),
   midi.NoteOnEvent(tick=0, channel=3, data=[40, 0]),
   midi.NoteOnEvent(tick=0, channel=3, data=[40, 100]),
   midi.NoteOnEvent(tick=0, channel=3, data=[47, 100]),
   midi.NoteOnEvent(tick=0, channel=3, data=[52, 100]),
   midi.NoteOnEvent(tick=212, channel=3, data=[52, 0]),
   midi.NoteOnEvent(tick=0, channel=3, data=[47, 0]),
   midi.NoteOnEvent(tick=0, channel=3, data=[40, 0]),
   midi.NoteOnEvent(tick=4, channel=3, data=[40, 100]),
   midi.NoteOnEvent(tick=0, channel=3, data=[47, 100]),
   midi.NoteOnEvent(tick=0, channel=3, data=[52, 100]),
   midi.NoteOnEvent(tick=108, channel=3, data=[52, 0]),
   midi.NoteOnEvent(tick=0, channel=3, data=[47, 0]),
   midi.NoteOnEvent(tick=0, channel=3, data=[40, 0]),
   midi.NoteOnEvent(tick=0, channel=3, data=[60, 100]),
   midi.NoteOnEvent(tick=0, channel=3, data=[55, 100]),
   midi.NoteOnEvent(tick=0, channel=3, data=[48, 100]),
   midi.NoteOnEvent(tick=216, channel=3, data=[48, 0]),
   midi.NoteOnEvent(tick=0, channel=3, data=[55, 0]),
   midi.NoteOnEvent(tick=0, channel=3, data=[60, 0]),
   midi.NoteOnEvent(tick=0, channel=3, data=[62, 100]),
   midi.NoteOnEvent(tick=0, channel=3, data=[50, 100]),
   midi.NoteOnEvent(tick=0, channel=3, data=[57, 100]),
   midi.NoteOnEvent(tick=216, channel=3, data=[57, 0]),
   midi.NoteOnEvent(tick=0, channel=3, data=[50, 0]),
   midi.NoteOnEvent(tick=0, channel=3, data=[62, 0]),
   midi.NoteOnEvent(tick=0, channel=3, data=[55, 100]),
   midi.NoteOnEvent(tick=0, channel=3, data=[50, 100]),
   midi.NoteOnEvent(tick=0, channel=3, data=[43, 100]),
   midi.NoteOnEvent(tick=324, channel=3, data=[43, 0]),
   midi.NoteOnEvent(tick=0, channel=3, data=[50, 0]),
   midi.NoteOnEvent(tick=0, channel=3, data=[55, 0]),
   midi.NoteOnEvent(tick=0, channel=3, data=[43, 100]),
   midi.NoteOnEvent(tick=0, channel=3, data=[50, 100]),
   midi.NoteOnEvent(tick=0, channel=3, data=[55, 100]),
   midi.NoteOnEvent(tick=108, channel=3, data=[55, 0]),
   midi.NoteOnEvent(tick=0, channel=3, data=[50, 0]),
   midi.NoteOnEvent(tick=0, channel=3, data=[43, 0]),
   midi.NoteOnEvent(tick=0, channel=3, data=[43, 100]),
   midi.NoteOnEvent(tick=0, channel=3, data=[50, 100]),
   midi.NoteOnEvent(tick=0, channel=3, data=[55, 100]),
   midi.NoteOnEvent(tick=216, channel=3, data=[55, 0]),
   midi.NoteOnEvent(tick=0, channel=3, data=[50, 0]),
   midi.NoteOnEvent(tick=0, channel=3, data=[43, 0]),
   midi.NoteOnEvent(tick=0, channel=3, data=[43, 100]),
   midi.NoteOnEvent(tick=0, channel=3, data=[50, 100]),
   midi.NoteOnEvent(tick=0, channel=3, data=[55, 100]),
   midi.NoteOnEvent(tick=108, channel=3, data=[55, 0]),
   midi.NoteOnEvent(tick=0, channel=3, data=[50, 0]),
   midi.NoteOnEvent(tick=0, channel=3, data=[43, 0]),
   midi.NoteOnEvent(tick=0, channel=3, data=[43, 100]),
   midi.NoteOnEvent(tick=0, channel=3, data=[50, 100]),
   midi.NoteOnEvent(tick=0, channel=3, data=[55, 100]),
   midi.NoteOnEvent(tick=108, channel=3, data=[55, 0]),
   midi.NoteOnEvent(tick=0, channel=3, data=[50, 0]),
   midi.NoteOnEvent(tick=0, channel=3, data=[43, 0]),
   midi.NoteOnEvent(tick=0, channel=3, data=[43, 100]),
   midi.NoteOnEvent(tick=0, channel=3, data=[50, 100]),
   midi.NoteOnEvent(tick=0, channel=3, data=[55, 100]),
   midi.NoteOnEvent(tick=108, channel=3, data=[55, 0]),
   midi.NoteOnEvent(tick=0, channel=3, data=[50, 0]),
   midi.NoteOnEvent(tick=0, channel=3, data=[43, 0]),
   midi.NoteOnEvent(tick=0, channel=3, data=[43, 100]),
   midi.NoteOnEvent(tick=0, channel=3, data=[50, 100]),
   midi.NoteOnEvent(tick=0, channel=3, data=[55, 100]),
   midi.NoteOnEvent(tick=212, channel=3, data=[55, 0]),
   midi.NoteOnEvent(tick=0, channel=3, data=[50, 0]),
   midi.NoteOnEvent(tick=0, channel=3, data=[43, 0]),
   midi.NoteOnEvent(tick=4, channel=3, data=[52, 100]),
   midi.NoteOnEvent(tick=0, channel=3, data=[45, 100]),
   midi.NoteOnEvent(tick=0, channel=3, data=[57, 100]),
   midi.NoteOnEvent(tick=108, channel=3, data=[57, 0]),
   midi.NoteOnEvent(tick=0, channel=3, data=[45, 0]),
   midi.NoteOnEvent(tick=0, channel=3, data=[52, 0]),
   midi.NoteOnEvent(tick=0, channel=3, data=[45, 100]),
   midi.NoteOnEvent(tick=0, channel=3, data=[52, 100]),
   midi.NoteOnEvent(tick=0, channel=3, data=[57, 100]),
   midi.NoteOnEvent(tick=216, channel=3, data=[57, 0]),
   midi.NoteOnEvent(tick=0, channel=3, data=[52, 0]),
   midi.NoteOnEvent(tick=0, channel=3, data=[45, 0]),
   midi.NoteOnEvent(tick=0, channel=3, data=[54, 100]),
   midi.NoteOnEvent(tick=0, channel=3, data=[47, 100]),
   midi.NoteOnEvent(tick=0, channel=3, data=[59, 100]),
   midi.NoteOnEvent(tick=216, channel=3, data=[59, 0]),
   midi.NoteOnEvent(tick=0, channel=3, data=[47, 0]),
   midi.NoteOnEvent(tick=0, channel=3, data=[54, 0]),
   midi.NoteOnEvent(tick=0, channel=3, data=[52, 100]),
   midi.NoteOnEvent(tick=0, channel=3, data=[47, 100]),
   midi.NoteOnEvent(tick=0, channel=3, data=[40, 100]),
   midi.NoteOnEvent(tick=324, channel=3, data=[40, 0]),
   midi.NoteOnEvent(tick=0, channel=3, data=[47, 0]),
   midi.NoteOnEvent(tick=0, channel=3, data=[52, 0]),
   midi.NoteOnEvent(tick=0, channel=3, data=[40, 100]),
   midi.NoteOnEvent(tick=0, channel=3, data=[47, 100]),
   midi.NoteOnEvent(tick=0, channel=3, data=[52, 100]),
   midi.NoteOnEvent(tick=108, channel=3, data=[52, 0]),
   midi.NoteOnEvent(tick=0, channel=3, data=[47, 0]),
   midi.NoteOnEvent(tick=0, channel=3, data=[40, 0]),
   midi.NoteOnEvent(tick=0, channel=3, data=[40, 100]),
   midi.NoteOnEvent(tick=0, channel=3, data=[47, 100]),
   midi.NoteOnEvent(tick=0, channel=3, data=[52, 100]),
   midi.NoteOnEvent(tick=216, channel=3, data=[52, 0]),
   midi.NoteOnEvent(tick=0, channel=3, data=[47, 0]),
   midi.NoteOnEvent(tick=0, channel=3, data=[40, 0]),
   midi.NoteOnEvent(tick=0, channel=3, data=[40, 100]),
   midi.NoteOnEvent(tick=0, channel=3, data=[47, 100]),
   midi.NoteOnEvent(tick=0, channel=3, data=[52, 100]),
   midi.NoteOnEvent(tick=108, channel=3, data=[52, 0]),
   midi.NoteOnEvent(tick=0, channel=3, data=[47, 0]),
   midi.NoteOnEvent(tick=0, channel=3, data=[40, 0]),
   midi.NoteOnEvent(tick=0, channel=3, data=[40, 100]),
   midi.NoteOnEvent(tick=0, channel=3, data=[47, 100]),
   midi.NoteOnEvent(tick=0, channel=3, data=[52, 100]),
   midi.NoteOnEvent(tick=108, channel=3, data=[52, 0]),
   midi.NoteOnEvent(tick=0, channel=3, data=[47, 0]),
   midi.NoteOnEvent(tick=0, channel=3, data=[40, 0]),
   midi.NoteOnEvent(tick=0, channel=3, data=[40, 100]),
   midi.NoteOnEvent(tick=0, channel=3, data=[47, 100]),
   midi.NoteOnEvent(tick=0, channel=3, data=[52, 100]),
   midi.NoteOnEvent(tick=324, channel=3, data=[52, 0]),
   midi.NoteOnEvent(tick=0, channel=3, data=[47, 0]),
   midi.NoteOnEvent(tick=0, channel=3, data=[40, 0]),
   midi.NoteOnEvent(tick=0, channel=3, data=[55, 100]),
   midi.NoteOnEvent(tick=0, channel=3, data=[50, 100]),
   midi.NoteOnEvent(tick=0, channel=3, data=[43, 100]),
   midi.NoteOnEvent(tick=108, channel=3, data=[43, 0]),
   midi.NoteOnEvent(tick=0, channel=3, data=[50, 0]),
   midi.NoteOnEvent(tick=0, channel=3, data=[55, 0]),
   midi.NoteOnEvent(tick=0, channel=3, data=[43, 100]),
   midi.NoteOnEvent(tick=0, channel=3, data=[50, 100]),
   midi.NoteOnEvent(tick=0, channel=3, data=[55, 100]),
   midi.NoteOnEvent(tick=216, channel=3, data=[55, 0]),
   midi.NoteOnEvent(tick=0, channel=3, data=[50, 0]),
   midi.NoteOnEvent(tick=0, channel=3, data=[43, 0]),
   midi.NoteOnEvent(tick=0, channel=3, data=[54, 100]),
   midi.NoteOnEvent(tick=0, channel=3, data=[59, 100]),
   midi.NoteOnEvent(tick=0, channel=3, data=[47, 100]),
   midi.NoteOnEvent(tick=216, channel=3, data=[47, 0]),
   midi.NoteOnEvent(tick=0, channel=3, data=[59, 0]),
   midi.NoteOnEvent(tick=0, channel=3, data=[54, 0]),
   midi.NoteOnEvent(tick=0, channel=3, data=[55, 100]),
   midi.NoteOnEvent(tick=0, channel=3, data=[50, 100]),
   midi.NoteOnEvent(tick=0, channel=3, data=[43, 100]),
   midi.NoteOnEvent(tick=1724, channel=3, data=[43, 0]),
   midi.NoteOnEvent(tick=0, channel=3, data=[50, 0]),
   midi.NoteOnEvent(tick=0, channel=3, data=[55, 0]),
   midi.NoteOnEvent(tick=4, channel=3, data=[46, 100]),
   midi.NoteOnEvent(tick=0, channel=3, data=[53, 100]),
   midi.NoteOnEvent(tick=0, channel=3, data=[58, 100]),
   midi.NoteOnEvent(tick=108, channel=3, data=[58, 0]),
   midi.NoteOnEvent(tick=0, channel=3, data=[53, 0]),
   midi.NoteOnEvent(tick=0, channel=3, data=[46, 0]),
   midi.NoteOnEvent(tick=0, channel=3, data=[45, 100]),
   midi.NoteOnEvent(tick=0, channel=3, data=[52, 100]),
   midi.NoteOnEvent(tick=0, channel=3, data=[57, 100]),
   midi.NoteOnEvent(tick=108, channel=3, data=[57, 0]),
   midi.NoteOnEvent(tick=0, channel=3, data=[52, 0]),
   midi.NoteOnEvent(tick=0, channel=3, data=[45, 0]),
   midi.NoteOnEvent(tick=108, channel=3, data=[45, 100]),
   midi.NoteOnEvent(tick=0, channel=3, data=[52, 100]),
   midi.NoteOnEvent(tick=0, channel=3, data=[57, 100]),
   midi.NoteOnEvent(tick=108, channel=3, data=[57, 0]),
   midi.NoteOnEvent(tick=0, channel=3, data=[52, 0]),
   midi.NoteOnEvent(tick=0, channel=3, data=[45, 0]),
   midi.NoteOnEvent(tick=108, channel=3, data=[45, 100]),
   midi.NoteOnEvent(tick=0, channel=3, data=[52, 100]),
   midi.NoteOnEvent(tick=0, channel=3, data=[57, 100]),
   midi.NoteOnEvent(tick=108, channel=3, data=[57, 0]),
   midi.NoteOnEvent(tick=0, channel=3, data=[52, 0]),
   midi.NoteOnEvent(tick=0, channel=3, data=[45, 0]),
   midi.NoteOnEvent(tick=108, channel=3, data=[45, 100]),
   midi.NoteOnEvent(tick=0, channel=3, data=[52, 100]),
   midi.NoteOnEvent(tick=0, channel=3, data=[57, 100]),
   midi.NoteOnEvent(tick=108, channel=3, data=[57, 0]),
   midi.NoteOnEvent(tick=0, channel=3, data=[52, 0]),
   midi.NoteOnEvent(tick=0, channel=3, data=[45, 0]),
   midi.NoteOnEvent(tick=0, channel=3, data=[40, 100]),
   midi.NoteOnEvent(tick=108, channel=3, data=[40, 0]),
   midi.NoteOnEvent(tick=0, channel=3, data=[40, 100]),
   midi.NoteOnEvent(tick=0, channel=3, data=[47, 100]),
   midi.NoteOnEvent(tick=0, channel=3, data=[52, 100]),
   midi.NoteOnEvent(tick=54, channel=3, data=[52, 0]),
   midi.NoteOnEvent(tick=0, channel=3, data=[47, 0]),
   midi.NoteOnEvent(tick=0, channel=3, data=[40, 0]),
   midi.NoteOnEvent(tick=0, channel=3, data=[40, 100]),
   midi.NoteOnEvent(tick=0, channel=3, data=[47, 100]),
   midi.NoteOnEvent(tick=0, channel=3, data=[52, 100]),
   midi.NoteOnEvent(tick=54, channel=3, data=[52, 0]),
   midi.NoteOnEvent(tick=0, channel=3, data=[47, 0]),
   midi.NoteOnEvent(tick=0, channel=3, data=[40, 0]),
   midi.NoteOnEvent(tick=0, channel=3, data=[40, 100]),
   midi.NoteOnEvent(tick=108, channel=3, data=[40, 0]),
   midi.NoteOnEvent(tick=0, channel=3, data=[52, 100]),
   midi.NoteOnEvent(tick=0, channel=3, data=[47, 100]),
   midi.NoteOnEvent(tick=0, channel=3, data=[40, 100]),
   midi.NoteOnEvent(tick=54, channel=3, data=[40, 0]),
   midi.NoteOnEvent(tick=0, channel=3, data=[47, 0]),
   midi.NoteOnEvent(tick=0, channel=3, data=[52, 0]),
   midi.NoteOnEvent(tick=0, channel=3, data=[47, 100]),
   midi.NoteOnEvent(tick=0, channel=3, data=[52, 100]),
   midi.NoteOnEvent(tick=0, channel=3, data=[40, 100]),
   midi.NoteOnEvent(tick=54, channel=3, data=[40, 0]),
   midi.NoteOnEvent(tick=0, channel=3, data=[52, 0]),
   midi.NoteOnEvent(tick=0, channel=3, data=[47, 0]),
   midi.NoteOnEvent(tick=0, channel=3, data=[40, 100]),
   midi.NoteOnEvent(tick=108, channel=3, data=[40, 0]),
   midi.NoteOnEvent(tick=0, channel=3, data=[59, 100]),
   midi.NoteOnEvent(tick=0, channel=3, data=[54, 100]),
   midi.NoteOnEvent(tick=0, channel=3, data=[47, 100]),
   midi.NoteOnEvent(tick=108, channel=3, data=[47, 0]),
   midi.NoteOnEvent(tick=0, channel=3, data=[54, 0]),
   midi.NoteOnEvent(tick=0, channel=3, data=[59, 0]),
   midi.NoteOnEvent(tick=0, channel=3, data=[46, 100]),
   midi.NoteOnEvent(tick=0, channel=3, data=[53, 100]),
   midi.NoteOnEvent(tick=0, channel=3, data=[58, 100]),
   midi.NoteOnEvent(tick=108, channel=3, data=[58, 0]),
   midi.NoteOnEvent(tick=0, channel=3, data=[53, 0]),
   midi.NoteOnEvent(tick=0, channel=3, data=[46, 0]),
   midi.NoteOnEvent(tick=0, channel=3, data=[45, 100]),
   midi.NoteOnEvent(tick=0, channel=3, data=[52, 100]),
   midi.NoteOnEvent(tick=0, channel=3, data=[57, 100]),
   midi.NoteOnEvent(tick=108, channel=3, data=[57, 0]),
   midi.NoteOnEvent(tick=0, channel=3, data=[52, 0]),
   midi.NoteOnEvent(tick=0, channel=3, data=[45, 0]),
   midi.NoteOnEvent(tick=0, channel=3, data=[40, 100]),
   midi.NoteOnEvent(tick=108, channel=3, data=[40, 0]),
   midi.NoteOnEvent(tick=0, channel=3, data=[47, 100]),
   midi.NoteOnEvent(tick=0, channel=3, data=[54, 100]),
   midi.NoteOnEvent(tick=0, channel=3, data=[59, 100]),
   midi.NoteOnEvent(tick=108, channel=3, data=[59, 0]),
   midi.NoteOnEvent(tick=0, channel=3, data=[54, 0]),
   midi.NoteOnEvent(tick=0, channel=3, data=[47, 0]),
   midi.NoteOnEvent(tick=0, channel=3, data=[46, 100]),
   midi.NoteOnEvent(tick=0, channel=3, data=[53, 100]),
   midi.NoteOnEvent(tick=0, channel=3, data=[58, 100]),
   midi.NoteOnEvent(tick=108, channel=3, data=[58, 0]),
   midi.NoteOnEvent(tick=0, channel=3, data=[53, 0]),
   midi.NoteOnEvent(tick=0, channel=3, data=[46, 0]),
   midi.NoteOnEvent(tick=0, channel=3, data=[45, 100]),
   midi.NoteOnEvent(tick=0, channel=3, data=[52, 100]),
   midi.NoteOnEvent(tick=0, channel=3, data=[57, 100]),
   midi.NoteOnEvent(tick=108, channel=3, data=[57, 0]),
   midi.NoteOnEvent(tick=0, channel=3, data=[52, 0]),
   midi.NoteOnEvent(tick=0, channel=3, data=[45, 0]),
   midi.NoteOnEvent(tick=0, channel=3, data=[40, 100]),
   midi.NoteOnEvent(tick=108, channel=3, data=[40, 0]),
   midi.NoteOnEvent(tick=0, channel=3, data=[47, 100]),
   midi.NoteOnEvent(tick=0, channel=3, data=[54, 100]),
   midi.NoteOnEvent(tick=0, channel=3, data=[59, 100]),
   midi.NoteOnEvent(tick=108, channel=3, data=[59, 0]),
   midi.NoteOnEvent(tick=0, channel=3, data=[54, 0]),
   midi.NoteOnEvent(tick=0, channel=3, data=[47, 0]),
   midi.NoteOnEvent(tick=0, channel=3, data=[46, 100]),
   midi.NoteOnEvent(tick=0, channel=3, data=[53, 100]),
   midi.NoteOnEvent(tick=0, channel=3, data=[58, 100]),
   midi.NoteOnEvent(tick=108, channel=3, data=[58, 0]),
   midi.NoteOnEvent(tick=0, channel=3, data=[53, 0]),
   midi.NoteOnEvent(tick=0, channel=3, data=[46, 0]),
   midi.NoteOnEvent(tick=0, channel=3, data=[45, 100]),
   midi.NoteOnEvent(tick=0, channel=3, data=[52, 100]),
   midi.NoteOnEvent(tick=0, channel=3, data=[57, 100]),
   midi.NoteOnEvent(tick=108, channel=3, data=[57, 0]),
   midi.NoteOnEvent(tick=0, channel=3, data=[52, 0]),
   midi.NoteOnEvent(tick=0, channel=3, data=[45, 0]),
   midi.NoteOnEvent(tick=0, channel=3, data=[40, 100]),
   midi.NoteOnEvent(tick=108, channel=3, data=[40, 0]),
   midi.NoteOnEvent(tick=0, channel=3, data=[40, 100]),
   midi.NoteOnEvent(tick=0, channel=3, data=[47, 100]),
   midi.NoteOnEvent(tick=0, channel=3, data=[52, 100]),
   midi.NoteOnEvent(tick=54, channel=3, data=[52, 0]),
   midi.NoteOnEvent(tick=0, channel=3, data=[47, 0]),
   midi.NoteOnEvent(tick=0, channel=3, data=[40, 0]),
   midi.NoteOnEvent(tick=0, channel=3, data=[40, 100]),
   midi.NoteOnEvent(tick=0, channel=3, data=[47, 100]),
   midi.NoteOnEvent(tick=0, channel=3, data=[52, 100]),
   midi.NoteOnEvent(tick=54, channel=3, data=[52, 0]),
   midi.NoteOnEvent(tick=0, channel=3, data=[47, 0]),
   midi.NoteOnEvent(tick=0, channel=3, data=[40, 0]),
   midi.NoteOnEvent(tick=0, channel=3, data=[40, 100]),
   midi.NoteOnEvent(tick=108, channel=3, data=[40, 0]),
   midi.NoteOnEvent(tick=0, channel=3, data=[52, 100]),
   midi.NoteOnEvent(tick=0, channel=3, data=[47, 100]),
   midi.NoteOnEvent(tick=0, channel=3, data=[40, 100]),
   midi.NoteOnEvent(tick=54, channel=3, data=[40, 0]),
   midi.NoteOnEvent(tick=0, channel=3, data=[47, 0]),
   midi.NoteOnEvent(tick=0, channel=3, data=[52, 0]),
   midi.NoteOnEvent(tick=0, channel=3, data=[47, 100]),
   midi.NoteOnEvent(tick=0, channel=3, data=[52, 100]),
   midi.NoteOnEvent(tick=0, channel=3, data=[40, 100]),
   midi.NoteOnEvent(tick=54, channel=3, data=[40, 0]),
   midi.NoteOnEvent(tick=0, channel=3, data=[52, 0]),
   midi.NoteOnEvent(tick=0, channel=3, data=[47, 0]),
   midi.NoteOnEvent(tick=0, channel=3, data=[40, 100]),
   midi.NoteOnEvent(tick=108, channel=3, data=[40, 0]),
   midi.NoteOnEvent(tick=0, channel=3, data=[59, 100]),
   midi.NoteOnEvent(tick=0, channel=3, data=[54, 100]),
   midi.NoteOnEvent(tick=0, channel=3, data=[47, 100]),
   midi.NoteOnEvent(tick=108, channel=3, data=[47, 0]),
   midi.NoteOnEvent(tick=0, channel=3, data=[54, 0]),
   midi.NoteOnEvent(tick=0, channel=3, data=[59, 0]),
   midi.NoteOnEvent(tick=0, channel=3, data=[46, 100]),
   midi.NoteOnEvent(tick=0, channel=3, data=[53, 100]),
   midi.NoteOnEvent(tick=0, channel=3, data=[58, 100]),
   midi.NoteOnEvent(tick=108, channel=3, data=[58, 0]),
   midi.NoteOnEvent(tick=0, channel=3, data=[53, 0]),
   midi.NoteOnEvent(tick=0, channel=3, data=[46, 0]),
   midi.NoteOnEvent(tick=0, channel=3, data=[45, 100]),
   midi.NoteOnEvent(tick=0, channel=3, data=[52, 100]),
   midi.NoteOnEvent(tick=0, channel=3, data=[57, 100]),
   midi.NoteOnEvent(tick=108, channel=3, data=[57, 0]),
   midi.NoteOnEvent(tick=0, channel=3, data=[52, 0]),
   midi.NoteOnEvent(tick=0, channel=3, data=[45, 0]),
   midi.NoteOnEvent(tick=0, channel=3, data=[52, 100]),
   midi.NoteOnEvent(tick=0, channel=3, data=[47, 100]),
   midi.NoteOnEvent(tick=0, channel=3, data=[40, 100]),
   midi.NoteOnEvent(tick=108, channel=3, data=[40, 0]),
   midi.NoteOnEvent(tick=0, channel=3, data=[47, 0]),
   midi.NoteOnEvent(tick=0, channel=3, data=[52, 0]),
   midi.NoteOnEvent(tick=0, channel=3, data=[47, 100]),
   midi.NoteOnEvent(tick=0, channel=3, data=[54, 100]),
   midi.NoteOnEvent(tick=0, channel=3, data=[59, 100]),
   midi.NoteOnEvent(tick=108, channel=3, data=[59, 0]),
   midi.NoteOnEvent(tick=0, channel=3, data=[54, 0]),
   midi.NoteOnEvent(tick=0, channel=3, data=[47, 0]),
   midi.NoteOnEvent(tick=108, channel=3, data=[46, 100]),
   midi.NoteOnEvent(tick=0, channel=3, data=[53, 100]),
   midi.NoteOnEvent(tick=0, channel=3, data=[58, 100]),
   midi.NoteOnEvent(tick=108, channel=3, data=[58, 0]),
   midi.NoteOnEvent(tick=0, channel=3, data=[53, 0]),
   midi.NoteOnEvent(tick=0, channel=3, data=[46, 0]),
   midi.NoteOnEvent(tick=108, channel=3, data=[45, 100]),
   midi.NoteOnEvent(tick=0, channel=3, data=[52, 100]),
   midi.NoteOnEvent(tick=0, channel=3, data=[57, 100]),
   midi.NoteOnEvent(tick=108, channel=3, data=[57, 0]),
   midi.NoteOnEvent(tick=0, channel=3, data=[52, 0]),
   midi.NoteOnEvent(tick=0, channel=3, data=[45, 0]),
   midi.NoteOnEvent(tick=108, channel=3, data=[43, 100]),
   midi.NoteOnEvent(tick=0, channel=3, data=[50, 100]),
   midi.NoteOnEvent(tick=0, channel=3, data=[55, 100]),
   midi.NoteOnEvent(tick=108, channel=3, data=[55, 0]),
   midi.NoteOnEvent(tick=0, channel=3, data=[50, 0]),
   midi.NoteOnEvent(tick=0, channel=3, data=[43, 0]),
   midi.NoteOnEvent(tick=0, channel=3, data=[40, 100]),
   midi.NoteOnEvent(tick=108, channel=3, data=[40, 0]),
   midi.NoteOnEvent(tick=0, channel=3, data=[40, 100]),
   midi.NoteOnEvent(tick=0, channel=3, data=[47, 100]),
   midi.NoteOnEvent(tick=0, channel=3, data=[52, 100]),
   midi.NoteOnEvent(tick=54, channel=3, data=[52, 0]),
   midi.NoteOnEvent(tick=0, channel=3, data=[47, 0]),
   midi.NoteOnEvent(tick=0, channel=3, data=[40, 0]),
   midi.NoteOnEvent(tick=0, channel=3, data=[40, 100]),
   midi.NoteOnEvent(tick=0, channel=3, data=[47, 100]),
   midi.NoteOnEvent(tick=0, channel=3, data=[52, 100]),
   midi.NoteOnEvent(tick=54, channel=3, data=[52, 0]),
   midi.NoteOnEvent(tick=0, channel=3, data=[47, 0]),
   midi.NoteOnEvent(tick=0, channel=3, data=[40, 0]),
   midi.NoteOnEvent(tick=0, channel=3, data=[40, 100]),
   midi.NoteOnEvent(tick=108, channel=3, data=[40, 0]),
   midi.NoteOnEvent(tick=0, channel=3, data=[52, 100]),
   midi.NoteOnEvent(tick=0, channel=3, data=[47, 100]),
   midi.NoteOnEvent(tick=0, channel=3, data=[40, 100]),
   midi.NoteOnEvent(tick=54, channel=3, data=[40, 0]),
   midi.NoteOnEvent(tick=0, channel=3, data=[47, 0]),
   midi.NoteOnEvent(tick=0, channel=3, data=[52, 0]),
   midi.NoteOnEvent(tick=0, channel=3, data=[47, 100]),
   midi.NoteOnEvent(tick=0, channel=3, data=[52, 100]),
   midi.NoteOnEvent(tick=0, channel=3, data=[40, 100]),
   midi.NoteOnEvent(tick=54, channel=3, data=[40, 0]),
   midi.NoteOnEvent(tick=0, channel=3, data=[52, 0]),
   midi.NoteOnEvent(tick=0, channel=3, data=[47, 0]),
   midi.NoteOnEvent(tick=0, channel=3, data=[40, 100]),
   midi.NoteOnEvent(tick=108, channel=3, data=[40, 0]),
   midi.NoteOnEvent(tick=0, channel=3, data=[59, 100]),
   midi.NoteOnEvent(tick=0, channel=3, data=[54, 100]),
   midi.NoteOnEvent(tick=0, channel=3, data=[47, 100]),
   midi.NoteOnEvent(tick=108, channel=3, data=[47, 0]),
   midi.NoteOnEvent(tick=0, channel=3, data=[54, 0]),
   midi.NoteOnEvent(tick=0, channel=3, data=[59, 0]),
   midi.NoteOnEvent(tick=0, channel=3, data=[46, 100]),
   midi.NoteOnEvent(tick=0, channel=3, data=[53, 100]),
   midi.NoteOnEvent(tick=0, channel=3, data=[58, 100]),
   midi.NoteOnEvent(tick=108, channel=3, data=[58, 0]),
   midi.NoteOnEvent(tick=0, channel=3, data=[53, 0]),
   midi.NoteOnEvent(tick=0, channel=3, data=[46, 0]),
   midi.NoteOnEvent(tick=0, channel=3, data=[45, 100]),
   midi.NoteOnEvent(tick=0, channel=3, data=[52, 100]),
   midi.NoteOnEvent(tick=0, channel=3, data=[57, 100]),
   midi.NoteOnEvent(tick=108, channel=3, data=[57, 0]),
   midi.NoteOnEvent(tick=0, channel=3, data=[52, 0]),
   midi.NoteOnEvent(tick=0, channel=3, data=[45, 0]),
   midi.NoteOnEvent(tick=0, channel=3, data=[40, 100]),
   midi.NoteOnEvent(tick=108, channel=3, data=[40, 0]),
   midi.NoteOnEvent(tick=0, channel=3, data=[47, 100]),
   midi.NoteOnEvent(tick=0, channel=3, data=[54, 100]),
   midi.NoteOnEvent(tick=0, channel=3, data=[59, 100]),
   midi.NoteOnEvent(tick=108, channel=3, data=[59, 0]),
   midi.NoteOnEvent(tick=0, channel=3, data=[54, 0]),
   midi.NoteOnEvent(tick=0, channel=3, data=[47, 0]),
   midi.NoteOnEvent(tick=0, channel=3, data=[46, 100]),
   midi.NoteOnEvent(tick=0, channel=3, data=[53, 100]),
   midi.NoteOnEvent(tick=0, channel=3, data=[58, 100]),
   midi.NoteOnEvent(tick=108, channel=3, data=[58, 0]),
   midi.NoteOnEvent(tick=0, channel=3, data=[53, 0]),
   midi.NoteOnEvent(tick=0, channel=3, data=[46, 0]),
   midi.NoteOnEvent(tick=0, channel=3, data=[45, 100]),
   midi.NoteOnEvent(tick=0, channel=3, data=[52, 100]),
   midi.NoteOnEvent(tick=0, channel=3, data=[57, 100]),
   midi.NoteOnEvent(tick=108, channel=3, data=[57, 0]),
   midi.NoteOnEvent(tick=0, channel=3, data=[52, 0]),
   midi.NoteOnEvent(tick=0, channel=3, data=[45, 0]),
   midi.NoteOnEvent(tick=0, channel=3, data=[40, 100]),
   midi.NoteOnEvent(tick=108, channel=3, data=[40, 0]),
   midi.NoteOnEvent(tick=0, channel=3, data=[47, 100]),
   midi.NoteOnEvent(tick=0, channel=3, data=[54, 100]),
   midi.NoteOnEvent(tick=0, channel=3, data=[59, 100]),
   midi.NoteOnEvent(tick=108, channel=3, data=[59, 0]),
   midi.NoteOnEvent(tick=0, channel=3, data=[54, 0]),
   midi.NoteOnEvent(tick=0, channel=3, data=[47, 0]),
   midi.NoteOnEvent(tick=0, channel=3, data=[46, 100]),
   midi.NoteOnEvent(tick=0, channel=3, data=[53, 100]),
   midi.NoteOnEvent(tick=0, channel=3, data=[58, 100]),
   midi.NoteOnEvent(tick=108, channel=3, data=[58, 0]),
   midi.NoteOnEvent(tick=0, channel=3, data=[53, 0]),
   midi.NoteOnEvent(tick=0, channel=3, data=[46, 0]),
   midi.NoteOnEvent(tick=0, channel=3, data=[45, 100]),
   midi.NoteOnEvent(tick=0, channel=3, data=[52, 100]),
   midi.NoteOnEvent(tick=0, channel=3, data=[57, 100]),
   midi.NoteOnEvent(tick=108, channel=3, data=[57, 0]),
   midi.NoteOnEvent(tick=0, channel=3, data=[52, 0]),
   midi.NoteOnEvent(tick=0, channel=3, data=[45, 0]),
   midi.NoteOnEvent(tick=0, channel=3, data=[40, 100]),
   midi.NoteOnEvent(tick=108, channel=3, data=[40, 0]),
   midi.NoteOnEvent(tick=0, channel=3, data=[40, 100]),
   midi.NoteOnEvent(tick=0, channel=3, data=[47, 100]),
   midi.NoteOnEvent(tick=0, channel=3, data=[52, 100]),
   midi.NoteOnEvent(tick=54, channel=3, data=[52, 0]),
   midi.NoteOnEvent(tick=0, channel=3, data=[47, 0]),
   midi.NoteOnEvent(tick=0, channel=3, data=[40, 0]),
   midi.NoteOnEvent(tick=0, channel=3, data=[40, 100]),
   midi.NoteOnEvent(tick=0, channel=3, data=[47, 100]),
   midi.NoteOnEvent(tick=0, channel=3, data=[52, 100]),
   midi.NoteOnEvent(tick=54, channel=3, data=[52, 0]),
   midi.NoteOnEvent(tick=0, channel=3, data=[47, 0]),
   midi.NoteOnEvent(tick=0, channel=3, data=[40, 0]),
   midi.NoteOnEvent(tick=0, channel=3, data=[40, 100]),
   midi.NoteOnEvent(tick=108, channel=3, data=[40, 0]),
   midi.NoteOnEvent(tick=0, channel=3, data=[52, 100]),
   midi.NoteOnEvent(tick=0, channel=3, data=[47, 100]),
   midi.NoteOnEvent(tick=0, channel=3, data=[40, 100]),
   midi.NoteOnEvent(tick=54, channel=3, data=[40, 0]),
   midi.NoteOnEvent(tick=0, channel=3, data=[47, 0]),
   midi.NoteOnEvent(tick=0, channel=3, data=[52, 0]),
   midi.NoteOnEvent(tick=0, channel=3, data=[47, 100]),
   midi.NoteOnEvent(tick=0, channel=3, data=[52, 100]),
   midi.NoteOnEvent(tick=0, channel=3, data=[40, 100]),
   midi.NoteOnEvent(tick=54, channel=3, data=[40, 0]),
   midi.NoteOnEvent(tick=0, channel=3, data=[52, 0]),
   midi.NoteOnEvent(tick=0, channel=3, data=[47, 0]),
   midi.NoteOnEvent(tick=0, channel=3, data=[40, 100]),
   midi.NoteOnEvent(tick=108, channel=3, data=[40, 0]),
   midi.NoteOnEvent(tick=0, channel=3, data=[59, 100]),
   midi.NoteOnEvent(tick=0, channel=3, data=[54, 100]),
   midi.NoteOnEvent(tick=0, channel=3, data=[47, 100]),
   midi.NoteOnEvent(tick=108, channel=3, data=[47, 0]),
   midi.NoteOnEvent(tick=0, channel=3, data=[54, 0]),
   midi.NoteOnEvent(tick=0, channel=3, data=[59, 0]),
   midi.NoteOnEvent(tick=0, channel=3, data=[46, 100]),
   midi.NoteOnEvent(tick=0, channel=3, data=[53, 100]),
   midi.NoteOnEvent(tick=0, channel=3, data=[58, 100]),
   midi.NoteOnEvent(tick=108, channel=3, data=[58, 0]),
   midi.NoteOnEvent(tick=0, channel=3, data=[53, 0]),
   midi.NoteOnEvent(tick=0, channel=3, data=[46, 0]),
   midi.NoteOnEvent(tick=0, channel=3, data=[45, 100]),
   midi.NoteOnEvent(tick=0, channel=3, data=[52, 100]),
   midi.NoteOnEvent(tick=0, channel=3, data=[57, 100]),
   midi.NoteOnEvent(tick=108, channel=3, data=[57, 0]),
   midi.NoteOnEvent(tick=0, channel=3, data=[52, 0]),
   midi.NoteOnEvent(tick=0, channel=3, data=[45, 0]),
   midi.NoteOnEvent(tick=0, channel=3, data=[46, 100]),
   midi.NoteOnEvent(tick=0, channel=3, data=[53, 100]),
   midi.NoteOnEvent(tick=0, channel=3, data=[58, 100]),
   midi.NoteOnEvent(tick=108, channel=3, data=[58, 0]),
   midi.NoteOnEvent(tick=0, channel=3, data=[53, 0]),
   midi.NoteOnEvent(tick=0, channel=3, data=[46, 0]),
   midi.NoteOnEvent(tick=0, channel=3, data=[45, 100]),
   midi.NoteOnEvent(tick=0, channel=3, data=[52, 100]),
   midi.NoteOnEvent(tick=0, channel=3, data=[57, 100]),
   midi.NoteOnEvent(tick=108, channel=3, data=[57, 0]),
   midi.NoteOnEvent(tick=0, channel=3, data=[52, 0]),
   midi.NoteOnEvent(tick=0, channel=3, data=[45, 0]),
   midi.NoteOnEvent(tick=108, channel=3, data=[45, 100]),
   midi.NoteOnEvent(tick=0, channel=3, data=[52, 100]),
   midi.NoteOnEvent(tick=0, channel=3, data=[57, 100]),
   midi.NoteOnEvent(tick=108, channel=3, data=[57, 0]),
   midi.NoteOnEvent(tick=0, channel=3, data=[52, 0]),
   midi.NoteOnEvent(tick=0, channel=3, data=[45, 0]),
   midi.NoteOnEvent(tick=108, channel=3, data=[45, 100]),
   midi.NoteOnEvent(tick=0, channel=3, data=[52, 100]),
   midi.NoteOnEvent(tick=0, channel=3, data=[57, 100]),
   midi.NoteOnEvent(tick=108, channel=3, data=[57, 0]),
   midi.NoteOnEvent(tick=0, channel=3, data=[52, 0]),
   midi.NoteOnEvent(tick=0, channel=3, data=[45, 0]),
   midi.NoteOnEvent(tick=108, channel=3, data=[45, 100]),
   midi.NoteOnEvent(tick=0, channel=3, data=[52, 100]),
   midi.NoteOnEvent(tick=0, channel=3, data=[57, 100]),
   midi.NoteOnEvent(tick=108, channel=3, data=[57, 0]),
   midi.NoteOnEvent(tick=0, channel=3, data=[52, 0]),
   midi.NoteOnEvent(tick=0, channel=3, data=[45, 0]),
   midi.NoteOnEvent(tick=0, channel=3, data=[40, 100]),
   midi.NoteOnEvent(tick=108, channel=3, data=[40, 0]),
   midi.NoteOnEvent(tick=0, channel=3, data=[40, 100]),
   midi.NoteOnEvent(tick=0, channel=3, data=[47, 100]),
   midi.NoteOnEvent(tick=0, channel=3, data=[52, 100]),
   midi.NoteOnEvent(tick=54, channel=3, data=[52, 0]),
   midi.NoteOnEvent(tick=0, channel=3, data=[47, 0]),
   midi.NoteOnEvent(tick=0, channel=3, data=[40, 0]),
   midi.NoteOnEvent(tick=0, channel=3, data=[40, 100]),
   midi.NoteOnEvent(tick=0, channel=3, data=[47, 100]),
   midi.NoteOnEvent(tick=0, channel=3, data=[52, 100]),
   midi.NoteOnEvent(tick=54, channel=3, data=[52, 0]),
   midi.NoteOnEvent(tick=0, channel=3, data=[47, 0]),
   midi.NoteOnEvent(tick=0, channel=3, data=[40, 0]),
   midi.NoteOnEvent(tick=0, channel=3, data=[40, 100]),
   midi.NoteOnEvent(tick=108, channel=3, data=[40, 0]),
   midi.NoteOnEvent(tick=0, channel=3, data=[52, 100]),
   midi.NoteOnEvent(tick=0, channel=3, data=[47, 100]),
   midi.NoteOnEvent(tick=0, channel=3, data=[40, 100]),
   midi.NoteOnEvent(tick=54, channel=3, data=[40, 0]),
   midi.NoteOnEvent(tick=0, channel=3, data=[47, 0]),
   midi.NoteOnEvent(tick=0, channel=3, data=[52, 0]),
   midi.NoteOnEvent(tick=0, channel=3, data=[47, 100]),
   midi.NoteOnEvent(tick=0, channel=3, data=[52, 100]),
   midi.NoteOnEvent(tick=0, channel=3, data=[40, 100]),
   midi.NoteOnEvent(tick=54, channel=3, data=[40, 0]),
   midi.NoteOnEvent(tick=0, channel=3, data=[52, 0]),
   midi.NoteOnEvent(tick=0, channel=3, data=[47, 0]),
   midi.NoteOnEvent(tick=0, channel=3, data=[40, 100]),
   midi.NoteOnEvent(tick=108, channel=3, data=[40, 0]),
   midi.NoteOnEvent(tick=0, channel=3, data=[59, 100]),
   midi.NoteOnEvent(tick=0, channel=3, data=[54, 100]),
   midi.NoteOnEvent(tick=0, channel=3, data=[47, 100]),
   midi.NoteOnEvent(tick=108, channel=3, data=[47, 0]),
   midi.NoteOnEvent(tick=0, channel=3, data=[54, 0]),
   midi.NoteOnEvent(tick=0, channel=3, data=[59, 0]),
   midi.NoteOnEvent(tick=0, channel=3, data=[46, 100]),
   midi.NoteOnEvent(tick=0, channel=3, data=[53, 100]),
   midi.NoteOnEvent(tick=0, channel=3, data=[58, 100]),
   midi.NoteOnEvent(tick=108, channel=3, data=[58, 0]),
   midi.NoteOnEvent(tick=0, channel=3, data=[53, 0]),
   midi.NoteOnEvent(tick=0, channel=3, data=[46, 0]),
   midi.NoteOnEvent(tick=0, channel=3, data=[45, 100]),
   midi.NoteOnEvent(tick=0, channel=3, data=[52, 100]),
   midi.NoteOnEvent(tick=0, channel=3, data=[57, 100]),
   midi.NoteOnEvent(tick=108, channel=3, data=[57, 0]),
   midi.NoteOnEvent(tick=0, channel=3, data=[52, 0]),
   midi.NoteOnEvent(tick=0, channel=3, data=[45, 0]),
   midi.NoteOnEvent(tick=0, channel=3, data=[40, 100]),
   midi.NoteOnEvent(tick=108, channel=3, data=[40, 0]),
   midi.NoteOnEvent(tick=0, channel=3, data=[47, 100]),
   midi.NoteOnEvent(tick=0, channel=3, data=[54, 100]),
   midi.NoteOnEvent(tick=0, channel=3, data=[59, 100]),
   midi.NoteOnEvent(tick=108, channel=3, data=[59, 0]),
   midi.NoteOnEvent(tick=0, channel=3, data=[54, 0]),
   midi.NoteOnEvent(tick=0, channel=3, data=[47, 0]),
   midi.NoteOnEvent(tick=0, channel=3, data=[46, 100]),
   midi.NoteOnEvent(tick=0, channel=3, data=[53, 100]),
   midi.NoteOnEvent(tick=0, channel=3, data=[58, 100]),
   midi.NoteOnEvent(tick=108, channel=3, data=[58, 0]),
   midi.NoteOnEvent(tick=0, channel=3, data=[53, 0]),
   midi.NoteOnEvent(tick=0, channel=3, data=[46, 0]),
   midi.NoteOnEvent(tick=0, channel=3, data=[45, 100]),
   midi.NoteOnEvent(tick=0, channel=3, data=[52, 100]),
   midi.NoteOnEvent(tick=0, channel=3, data=[57, 100]),
   midi.NoteOnEvent(tick=108, channel=3, data=[57, 0]),
   midi.NoteOnEvent(tick=0, channel=3, data=[52, 0]),
   midi.NoteOnEvent(tick=0, channel=3, data=[45, 0]),
   midi.NoteOnEvent(tick=0, channel=3, data=[40, 100]),
   midi.NoteOnEvent(tick=108, channel=3, data=[40, 0]),
   midi.NoteOnEvent(tick=0, channel=3, data=[47, 100]),
   midi.NoteOnEvent(tick=0, channel=3, data=[54, 100]),
   midi.NoteOnEvent(tick=0, channel=3, data=[59, 100]),
   midi.NoteOnEvent(tick=108, channel=3, data=[59, 0]),
   midi.NoteOnEvent(tick=0, channel=3, data=[54, 0]),
   midi.NoteOnEvent(tick=0, channel=3, data=[47, 0]),
   midi.NoteOnEvent(tick=0, channel=3, data=[46, 100]),
   midi.NoteOnEvent(tick=0, channel=3, data=[53, 100]),
   midi.NoteOnEvent(tick=0, channel=3, data=[58, 100]),
   midi.NoteOnEvent(tick=108, channel=3, data=[58, 0]),
   midi.NoteOnEvent(tick=0, channel=3, data=[53, 0]),
   midi.NoteOnEvent(tick=0, channel=3, data=[46, 0]),
   midi.NoteOnEvent(tick=0, channel=3, data=[45, 100]),
   midi.NoteOnEvent(tick=0, channel=3, data=[52, 100]),
   midi.NoteOnEvent(tick=0, channel=3, data=[57, 100]),
   midi.NoteOnEvent(tick=108, channel=3, data=[57, 0]),
   midi.NoteOnEvent(tick=0, channel=3, data=[52, 0]),
   midi.NoteOnEvent(tick=0, channel=3, data=[45, 0]),
   midi.NoteOnEvent(tick=0, channel=3, data=[40, 100]),
   midi.NoteOnEvent(tick=108, channel=3, data=[40, 0]),
   midi.NoteOnEvent(tick=0, channel=3, data=[40, 100]),
   midi.NoteOnEvent(tick=0, channel=3, data=[47, 100]),
   midi.NoteOnEvent(tick=0, channel=3, data=[52, 100]),
   midi.NoteOnEvent(tick=54, channel=3, data=[52, 0]),
   midi.NoteOnEvent(tick=0, channel=3, data=[47, 0]),
   midi.NoteOnEvent(tick=0, channel=3, data=[40, 0]),
   midi.NoteOnEvent(tick=0, channel=3, data=[40, 100]),
   midi.NoteOnEvent(tick=0, channel=3, data=[47, 100]),
   midi.NoteOnEvent(tick=0, channel=3, data=[52, 100]),
   midi.NoteOnEvent(tick=54, channel=3, data=[52, 0]),
   midi.NoteOnEvent(tick=0, channel=3, data=[47, 0]),
   midi.NoteOnEvent(tick=0, channel=3, data=[40, 0]),
   midi.NoteOnEvent(tick=0, channel=3, data=[40, 100]),
   midi.NoteOnEvent(tick=108, channel=3, data=[40, 0]),
   midi.NoteOnEvent(tick=0, channel=3, data=[52, 100]),
   midi.NoteOnEvent(tick=0, channel=3, data=[47, 100]),
   midi.NoteOnEvent(tick=0, channel=3, data=[40, 100]),
   midi.NoteOnEvent(tick=54, channel=3, data=[40, 0]),
   midi.NoteOnEvent(tick=0, channel=3, data=[47, 0]),
   midi.NoteOnEvent(tick=0, channel=3, data=[52, 0]),
   midi.NoteOnEvent(tick=0, channel=3, data=[47, 100]),
   midi.NoteOnEvent(tick=0, channel=3, data=[52, 100]),
   midi.NoteOnEvent(tick=0, channel=3, data=[40, 100]),
   midi.NoteOnEvent(tick=54, channel=3, data=[40, 0]),
   midi.NoteOnEvent(tick=0, channel=3, data=[52, 0]),
   midi.NoteOnEvent(tick=0, channel=3, data=[47, 0]),
   midi.NoteOnEvent(tick=0, channel=3, data=[40, 100]),
   midi.NoteOnEvent(tick=108, channel=3, data=[40, 0]),
   midi.NoteOnEvent(tick=0, channel=3, data=[59, 100]),
   midi.NoteOnEvent(tick=0, channel=3, data=[54, 100]),
   midi.NoteOnEvent(tick=0, channel=3, data=[47, 100]),
   midi.NoteOnEvent(tick=108, channel=3, data=[47, 0]),
   midi.NoteOnEvent(tick=0, channel=3, data=[54, 0]),
   midi.NoteOnEvent(tick=0, channel=3, data=[59, 0]),
   midi.NoteOnEvent(tick=0, channel=3, data=[46, 100]),
   midi.NoteOnEvent(tick=0, channel=3, data=[53, 100]),
   midi.NoteOnEvent(tick=0, channel=3, data=[58, 100]),
   midi.NoteOnEvent(tick=108, channel=3, data=[58, 0]),
   midi.NoteOnEvent(tick=0, channel=3, data=[53, 0]),
   midi.NoteOnEvent(tick=0, channel=3, data=[46, 0]),
   midi.NoteOnEvent(tick=0, channel=3, data=[45, 100]),
   midi.NoteOnEvent(tick=0, channel=3, data=[52, 100]),
   midi.NoteOnEvent(tick=0, channel=3, data=[57, 100]),
   midi.NoteOnEvent(tick=108, channel=3, data=[57, 0]),
   midi.NoteOnEvent(tick=0, channel=3, data=[52, 0]),
   midi.NoteOnEvent(tick=0, channel=3, data=[45, 0]),
   midi.NoteOnEvent(tick=0, channel=3, data=[52, 100]),
   midi.NoteOnEvent(tick=0, channel=3, data=[47, 100]),
   midi.NoteOnEvent(tick=0, channel=3, data=[40, 100]),
   midi.NoteOnEvent(tick=108, channel=3, data=[40, 0]),
   midi.NoteOnEvent(tick=0, channel=3, data=[47, 0]),
   midi.NoteOnEvent(tick=0, channel=3, data=[52, 0]),
   midi.NoteOnEvent(tick=0, channel=3, data=[47, 100]),
   midi.NoteOnEvent(tick=0, channel=3, data=[54, 100]),
   midi.NoteOnEvent(tick=0, channel=3, data=[59, 100]),
   midi.NoteOnEvent(tick=108, channel=3, data=[59, 0]),
   midi.NoteOnEvent(tick=0, channel=3, data=[54, 0]),
   midi.NoteOnEvent(tick=0, channel=3, data=[47, 0]),
   midi.NoteOnEvent(tick=0, channel=3, data=[46, 100]),
   midi.NoteOnEvent(tick=0, channel=3, data=[53, 100]),
   midi.NoteOnEvent(tick=0, channel=3, data=[58, 100]),
   midi.NoteOnEvent(tick=108, channel=3, data=[58, 0]),
   midi.NoteOnEvent(tick=0, channel=3, data=[53, 0]),
   midi.NoteOnEvent(tick=0, channel=3, data=[46, 0]),
   midi.NoteOnEvent(tick=0, channel=3, data=[45, 100]),
   midi.NoteOnEvent(tick=0, channel=3, data=[52, 100]),
   midi.NoteOnEvent(tick=0, channel=3, data=[57, 100]),
   midi.NoteOnEvent(tick=108, channel=3, data=[57, 0]),
   midi.NoteOnEvent(tick=0, channel=3, data=[52, 0]),
   midi.NoteOnEvent(tick=0, channel=3, data=[45, 0]),
   midi.NoteOnEvent(tick=108, channel=3, data=[43, 100]),
   midi.NoteOnEvent(tick=0, channel=3, data=[50, 100]),
   midi.NoteOnEvent(tick=0, channel=3, data=[55, 100]),
   midi.NoteOnEvent(tick=108, channel=3, data=[55, 0]),
   midi.NoteOnEvent(tick=0, channel=3, data=[50, 0]),
   midi.NoteOnEvent(tick=0, channel=3, data=[43, 0]),
   midi.NoteOnEvent(tick=108, channel=3, data=[41, 100]),
   midi.NoteOnEvent(tick=0, channel=3, data=[53, 100]),
   midi.NoteOnEvent(tick=0, channel=3, data=[45, 100]),
   midi.NoteOnEvent(tick=108, channel=3, data=[45, 0]),
   midi.NoteOnEvent(tick=0, channel=3, data=[53, 0]),
   midi.NoteOnEvent(tick=0, channel=3, data=[41, 0]),
   midi.NoteOnEvent(tick=0, channel=3, data=[40, 100]),
   midi.NoteOnEvent(tick=108, channel=3, data=[40, 0]),
   midi.NoteOnEvent(tick=0, channel=3, data=[40, 100]),
   midi.NoteOnEvent(tick=0, channel=3, data=[47, 100]),
   midi.NoteOnEvent(tick=0, channel=3, data=[52, 100]),
   midi.NoteOnEvent(tick=54, channel=3, data=[52, 0]),
   midi.NoteOnEvent(tick=0, channel=3, data=[47, 0]),
   midi.NoteOnEvent(tick=0, channel=3, data=[40, 0]),
   midi.NoteOnEvent(tick=0, channel=3, data=[40, 100]),
   midi.NoteOnEvent(tick=0, channel=3, data=[47, 100]),
   midi.NoteOnEvent(tick=0, channel=3, data=[52, 100]),
   midi.NoteOnEvent(tick=54, channel=3, data=[52, 0]),
   midi.NoteOnEvent(tick=0, channel=3, data=[47, 0]),
   midi.NoteOnEvent(tick=0, channel=3, data=[40, 0]),
   midi.NoteOnEvent(tick=0, channel=3, data=[40, 100]),
   midi.NoteOnEvent(tick=108, channel=3, data=[40, 0]),
   midi.NoteOnEvent(tick=0, channel=3, data=[52, 100]),
   midi.NoteOnEvent(tick=0, channel=3, data=[47, 100]),
   midi.NoteOnEvent(tick=0, channel=3, data=[40, 100]),
   midi.NoteOnEvent(tick=54, channel=3, data=[40, 0]),
   midi.NoteOnEvent(tick=0, channel=3, data=[47, 0]),
   midi.NoteOnEvent(tick=0, channel=3, data=[52, 0]),
   midi.NoteOnEvent(tick=0, channel=3, data=[47, 100]),
   midi.NoteOnEvent(tick=0, channel=3, data=[52, 100]),
   midi.NoteOnEvent(tick=0, channel=3, data=[40, 100]),
   midi.NoteOnEvent(tick=54, channel=3, data=[40, 0]),
   midi.NoteOnEvent(tick=0, channel=3, data=[52, 0]),
   midi.NoteOnEvent(tick=0, channel=3, data=[47, 0]),
   midi.NoteOnEvent(tick=0, channel=3, data=[40, 100]),
   midi.NoteOnEvent(tick=108, channel=3, data=[40, 0]),
   midi.NoteOnEvent(tick=0, channel=3, data=[59, 100]),
   midi.NoteOnEvent(tick=0, channel=3, data=[54, 100]),
   midi.NoteOnEvent(tick=0, channel=3, data=[47, 100]),
   midi.NoteOnEvent(tick=108, channel=3, data=[47, 0]),
   midi.NoteOnEvent(tick=0, channel=3, data=[54, 0]),
   midi.NoteOnEvent(tick=0, channel=3, data=[59, 0]),
   midi.NoteOnEvent(tick=0, channel=3, data=[46, 100]),
   midi.NoteOnEvent(tick=0, channel=3, data=[53, 100]),
   midi.NoteOnEvent(tick=0, channel=3, data=[58, 100]),
   midi.NoteOnEvent(tick=108, channel=3, data=[58, 0]),
   midi.NoteOnEvent(tick=0, channel=3, data=[53, 0]),
   midi.NoteOnEvent(tick=0, channel=3, data=[46, 0]),
   midi.NoteOnEvent(tick=0, channel=3, data=[45, 100]),
   midi.NoteOnEvent(tick=0, channel=3, data=[52, 100]),
   midi.NoteOnEvent(tick=0, channel=3, data=[57, 100]),
   midi.NoteOnEvent(tick=108, channel=3, data=[57, 0]),
   midi.NoteOnEvent(tick=0, channel=3, data=[52, 0]),
   midi.NoteOnEvent(tick=0, channel=3, data=[45, 0]),
   midi.NoteOnEvent(tick=0, channel=3, data=[40, 100]),
   midi.NoteOnEvent(tick=108, channel=3, data=[40, 0]),
   midi.NoteOnEvent(tick=0, channel=3, data=[47, 100]),
   midi.NoteOnEvent(tick=0, channel=3, data=[54, 100]),
   midi.NoteOnEvent(tick=0, channel=3, data=[59, 100]),
   midi.NoteOnEvent(tick=108, channel=3, data=[59, 0]),
   midi.NoteOnEvent(tick=0, channel=3, data=[54, 0]),
   midi.NoteOnEvent(tick=0, channel=3, data=[47, 0]),
   midi.NoteOnEvent(tick=0, channel=3, data=[46, 100]),
   midi.NoteOnEvent(tick=0, channel=3, data=[53, 100]),
   midi.NoteOnEvent(tick=0, channel=3, data=[58, 100]),
   midi.NoteOnEvent(tick=108, channel=3, data=[58, 0]),
   midi.NoteOnEvent(tick=0, channel=3, data=[53, 0]),
   midi.NoteOnEvent(tick=0, channel=3, data=[46, 0]),
   midi.NoteOnEvent(tick=0, channel=3, data=[45, 100]),
   midi.NoteOnEvent(tick=0, channel=3, data=[52, 100]),
   midi.NoteOnEvent(tick=0, channel=3, data=[57, 100]),
   midi.NoteOnEvent(tick=108, channel=3, data=[57, 0]),
   midi.NoteOnEvent(tick=0, channel=3, data=[52, 0]),
   midi.NoteOnEvent(tick=0, channel=3, data=[45, 0]),
   midi.NoteOnEvent(tick=0, channel=3, data=[40, 100]),
   midi.NoteOnEvent(tick=108, channel=3, data=[40, 0]),
   midi.NoteOnEvent(tick=0, channel=3, data=[47, 100]),
   midi.NoteOnEvent(tick=0, channel=3, data=[54, 100]),
   midi.NoteOnEvent(tick=0, channel=3, data=[59, 100]),
   midi.NoteOnEvent(tick=108, channel=3, data=[59, 0]),
   midi.NoteOnEvent(tick=0, channel=3, data=[54, 0]),
   midi.NoteOnEvent(tick=0, channel=3, data=[47, 0]),
   midi.NoteOnEvent(tick=0, channel=3, data=[46, 100]),
   midi.NoteOnEvent(tick=0, channel=3, data=[53, 100]),
   midi.NoteOnEvent(tick=0, channel=3, data=[58, 100]),
   midi.NoteOnEvent(tick=108, channel=3, data=[58, 0]),
   midi.NoteOnEvent(tick=0, channel=3, data=[53, 0]),
   midi.NoteOnEvent(tick=0, channel=3, data=[46, 0]),
   midi.NoteOnEvent(tick=0, channel=3, data=[45, 100]),
   midi.NoteOnEvent(tick=0, channel=3, data=[52, 100]),
   midi.NoteOnEvent(tick=0, channel=3, data=[57, 100]),
   midi.NoteOnEvent(tick=108, channel=3, data=[57, 0]),
   midi.NoteOnEvent(tick=0, channel=3, data=[52, 0]),
   midi.NoteOnEvent(tick=0, channel=3, data=[45, 0]),
   midi.NoteOnEvent(tick=0, channel=3, data=[40, 100]),
   midi.NoteOnEvent(tick=108, channel=3, data=[40, 0]),
   midi.NoteOnEvent(tick=0, channel=3, data=[40, 100]),
   midi.NoteOnEvent(tick=0, channel=3, data=[47, 100]),
   midi.NoteOnEvent(tick=0, channel=3, data=[52, 100]),
   midi.NoteOnEvent(tick=54, channel=3, data=[52, 0]),
   midi.NoteOnEvent(tick=0, channel=3, data=[47, 0]),
   midi.NoteOnEvent(tick=0, channel=3, data=[40, 0]),
   midi.NoteOnEvent(tick=0, channel=3, data=[40, 100]),
   midi.NoteOnEvent(tick=0, channel=3, data=[47, 100]),
   midi.NoteOnEvent(tick=0, channel=3, data=[52, 100]),
   midi.NoteOnEvent(tick=54, channel=3, data=[52, 0]),
   midi.NoteOnEvent(tick=0, channel=3, data=[47, 0]),
   midi.NoteOnEvent(tick=0, channel=3, data=[40, 0]),
   midi.NoteOnEvent(tick=0, channel=3, data=[40, 100]),
   midi.NoteOnEvent(tick=108, channel=3, data=[40, 0]),
   midi.NoteOnEvent(tick=0, channel=3, data=[52, 100]),
   midi.NoteOnEvent(tick=0, channel=3, data=[47, 100]),
   midi.NoteOnEvent(tick=0, channel=3, data=[40, 100]),
   midi.NoteOnEvent(tick=54, channel=3, data=[40, 0]),
   midi.NoteOnEvent(tick=0, channel=3, data=[47, 0]),
   midi.NoteOnEvent(tick=0, channel=3, data=[52, 0]),
   midi.NoteOnEvent(tick=0, channel=3, data=[47, 100]),
   midi.NoteOnEvent(tick=0, channel=3, data=[52, 100]),
   midi.NoteOnEvent(tick=0, channel=3, data=[40, 100]),
   midi.NoteOnEvent(tick=54, channel=3, data=[40, 0]),
   midi.NoteOnEvent(tick=0, channel=3, data=[52, 0]),
   midi.NoteOnEvent(tick=0, channel=3, data=[47, 0]),
   midi.NoteOnEvent(tick=0, channel=3, data=[40, 100]),
   midi.NoteOnEvent(tick=108, channel=3, data=[40, 0]),
   midi.NoteOnEvent(tick=0, channel=3, data=[59, 100]),
   midi.NoteOnEvent(tick=0, channel=3, data=[54, 100]),
   midi.NoteOnEvent(tick=0, channel=3, data=[47, 100]),
   midi.NoteOnEvent(tick=108, channel=3, data=[47, 0]),
   midi.NoteOnEvent(tick=0, channel=3, data=[54, 0]),
   midi.NoteOnEvent(tick=0, channel=3, data=[59, 0]),
   midi.NoteOnEvent(tick=0, channel=3, data=[46, 100]),
   midi.NoteOnEvent(tick=0, channel=3, data=[53, 100]),
   midi.NoteOnEvent(tick=0, channel=3, data=[58, 100]),
   midi.NoteOnEvent(tick=108, channel=3, data=[58, 0]),
   midi.NoteOnEvent(tick=0, channel=3, data=[53, 0]),
   midi.NoteOnEvent(tick=0, channel=3, data=[46, 0]),
   midi.NoteOnEvent(tick=0, channel=3, data=[45, 100]),
   midi.NoteOnEvent(tick=0, channel=3, data=[52, 100]),
   midi.NoteOnEvent(tick=0, channel=3, data=[57, 100]),
   midi.NoteOnEvent(tick=108, channel=3, data=[57, 0]),
   midi.NoteOnEvent(tick=0, channel=3, data=[52, 0]),
   midi.NoteOnEvent(tick=0, channel=3, data=[45, 0]),
   midi.NoteOnEvent(tick=0, channel=3, data=[46, 100]),
   midi.NoteOnEvent(tick=0, channel=3, data=[53, 100]),
   midi.NoteOnEvent(tick=0, channel=3, data=[58, 100]),
   midi.NoteOnEvent(tick=108, channel=3, data=[58, 0]),
   midi.NoteOnEvent(tick=0, channel=3, data=[53, 0]),
   midi.NoteOnEvent(tick=0, channel=3, data=[46, 0]),
   midi.NoteOnEvent(tick=0, channel=3, data=[45, 100]),
   midi.NoteOnEvent(tick=0, channel=3, data=[52, 100]),
   midi.NoteOnEvent(tick=0, channel=3, data=[57, 100]),
   midi.NoteOnEvent(tick=108, channel=3, data=[57, 0]),
   midi.NoteOnEvent(tick=0, channel=3, data=[52, 0]),
   midi.NoteOnEvent(tick=0, channel=3, data=[45, 0]),
   midi.NoteOnEvent(tick=108, channel=3, data=[45, 100]),
   midi.NoteOnEvent(tick=0, channel=3, data=[52, 100]),
   midi.NoteOnEvent(tick=0, channel=3, data=[57, 100]),
   midi.NoteOnEvent(tick=108, channel=3, data=[57, 0]),
   midi.NoteOnEvent(tick=0, channel=3, data=[52, 0]),
   midi.NoteOnEvent(tick=0, channel=3, data=[45, 0]),
   midi.NoteOnEvent(tick=108, channel=3, data=[45, 100]),
   midi.NoteOnEvent(tick=0, channel=3, data=[52, 100]),
   midi.NoteOnEvent(tick=0, channel=3, data=[57, 100]),
   midi.NoteOnEvent(tick=108, channel=3, data=[57, 0]),
   midi.NoteOnEvent(tick=0, channel=3, data=[52, 0]),
   midi.NoteOnEvent(tick=0, channel=3, data=[45, 0]),
   midi.NoteOnEvent(tick=108, channel=3, data=[45, 100]),
   midi.NoteOnEvent(tick=0, channel=3, data=[52, 100]),
   midi.NoteOnEvent(tick=0, channel=3, data=[57, 100]),
   midi.NoteOnEvent(tick=108, channel=3, data=[57, 0]),
   midi.NoteOnEvent(tick=0, channel=3, data=[52, 0]),
   midi.NoteOnEvent(tick=0, channel=3, data=[45, 0]),
   midi.NoteOnEvent(tick=0, channel=3, data=[52, 100]),
   midi.NoteOnEvent(tick=0, channel=3, data=[47, 100]),
   midi.NoteOnEvent(tick=0, channel=3, data=[40, 100]),
   midi.NoteOnEvent(tick=860, channel=3, data=[40, 0]),
   midi.NoteOnEvent(tick=0, channel=3, data=[47, 0]),
   midi.NoteOnEvent(tick=0, channel=3, data=[52, 0]),
   midi.NoteOnEvent(tick=4, channel=3, data=[43, 100]),
   midi.NoteOnEvent(tick=0, channel=3, data=[50, 100]),
   midi.NoteOnEvent(tick=0, channel=3, data=[55, 100]),
   midi.NoteOnEvent(tick=864, channel=3, data=[55, 0]),
   midi.NoteOnEvent(tick=0, channel=3, data=[50, 0]),
   midi.NoteOnEvent(tick=0, channel=3, data=[43, 0]),
   midi.NoteOnEvent(tick=0, channel=3, data=[45, 100]),
   midi.NoteOnEvent(tick=0, channel=3, data=[52, 100]),
   midi.NoteOnEvent(tick=0, channel=3, data=[57, 100]),
   midi.NoteOnEvent(tick=864, channel=3, data=[57, 0]),
   midi.NoteOnEvent(tick=0, channel=3, data=[52, 0]),
   midi.NoteOnEvent(tick=0, channel=3, data=[45, 0]),
   midi.NoteOnEvent(tick=0, channel=3, data=[49, 100]),
   midi.NoteOnEvent(tick=0, channel=3, data=[42, 100]),
   midi.NoteOnEvent(tick=0, channel=3, data=[54, 100]),
   midi.NoteOnEvent(tick=864, channel=3, data=[54, 0]),
   midi.NoteOnEvent(tick=0, channel=3, data=[42, 0]),
   midi.NoteOnEvent(tick=0, channel=3, data=[49, 0]),
   midi.NoteOnEvent(tick=0, channel=3, data=[52, 100]),
   midi.NoteOnEvent(tick=0, channel=3, data=[47, 100]),
   midi.NoteOnEvent(tick=0, channel=3, data=[40, 100]),
   midi.NoteOnEvent(tick=860, channel=3, data=[40, 0]),
   midi.NoteOnEvent(tick=0, channel=3, data=[47, 0]),
   midi.NoteOnEvent(tick=0, channel=3, data=[52, 0]),
   midi.NoteOnEvent(tick=4, channel=3, data=[43, 100]),
   midi.NoteOnEvent(tick=0, channel=3, data=[50, 100]),
   midi.NoteOnEvent(tick=0, channel=3, data=[55, 100]),
   midi.NoteOnEvent(tick=864, channel=3, data=[55, 0]),
   midi.NoteOnEvent(tick=0, channel=3, data=[50, 0]),
   midi.NoteOnEvent(tick=0, channel=3, data=[43, 0]),
   midi.NoteOnEvent(tick=0, channel=3, data=[45, 100]),
   midi.NoteOnEvent(tick=0, channel=3, data=[52, 100]),
   midi.NoteOnEvent(tick=0, channel=3, data=[57, 100]),
   midi.NoteOnEvent(tick=212, channel=3, data=[57, 0]),
   midi.NoteOnEvent(tick=0, channel=3, data=[52, 0]),
   midi.NoteOnEvent(tick=0, channel=3, data=[45, 0]),
   midi.NoteOnEvent(tick=1300, channel=3, data=[49, 100]),
   midi.NoteOnEvent(tick=0, channel=3, data=[42, 100]),
   midi.NoteOnEvent(tick=0, channel=3, data=[54, 100]),
   midi.NoteOnEvent(tick=216, channel=3, data=[54, 0]),
   midi.NoteOnEvent(tick=0, channel=3, data=[42, 0]),
   midi.NoteOnEvent(tick=0, channel=3, data=[49, 0]),
   midi.NoteOnEvent(tick=0, channel=3, data=[41, 100]),
   midi.NoteOnEvent(tick=0, channel=3, data=[53, 100]),
   midi.NoteOnEvent(tick=0, channel=3, data=[48, 100]),
   midi.NoteOnEvent(tick=108, channel=3, data=[48, 0]),
   midi.NoteOnEvent(tick=0, channel=3, data=[53, 0]),
   midi.NoteOnEvent(tick=0, channel=3, data=[41, 0]),
   midi.NoteOnEvent(tick=108, channel=3, data=[46, 100]),
   midi.NoteOnEvent(tick=0, channel=3, data=[53, 100]),
   midi.NoteOnEvent(tick=0, channel=3, data=[58, 100]),
   midi.NoteOnEvent(tick=108, channel=3, data=[58, 0]),
   midi.NoteOnEvent(tick=0, channel=3, data=[53, 0]),
   midi.NoteOnEvent(tick=0, channel=3, data=[46, 0]),
   midi.NoteOnEvent(tick=108, channel=3, data=[47, 100]),
   midi.NoteOnEvent(tick=0, channel=3, data=[54, 100]),
   midi.NoteOnEvent(tick=0, channel=3, data=[59, 100]),
   midi.NoteOnEvent(tick=108, channel=3, data=[59, 0]),
   midi.NoteOnEvent(tick=0, channel=3, data=[54, 0]),
   midi.NoteOnEvent(tick=0, channel=3, data=[47, 0]),
   midi.NoteOnEvent(tick=108, channel=3, data=[46, 100]),
   midi.NoteOnEvent(tick=0, channel=3, data=[53, 100]),
   midi.NoteOnEvent(tick=0, channel=3, data=[58, 100]),
   midi.NoteOnEvent(tick=108, channel=3, data=[58, 0]),
   midi.NoteOnEvent(tick=0, channel=3, data=[53, 0]),
   midi.NoteOnEvent(tick=0, channel=3, data=[46, 0]),
   midi.NoteOnEvent(tick=108, channel=3, data=[47, 100]),
   midi.NoteOnEvent(tick=0, channel=3, data=[54, 100]),
   midi.NoteOnEvent(tick=0, channel=3, data=[59, 100]),
   midi.NoteOnEvent(tick=108, channel=3, data=[59, 0]),
   midi.NoteOnEvent(tick=0, channel=3, data=[54, 0]),
   midi.NoteOnEvent(tick=0, channel=3, data=[47, 0]),
   midi.NoteOnEvent(tick=108, channel=3, data=[46, 100]),
   midi.NoteOnEvent(tick=0, channel=3, data=[53, 100]),
   midi.NoteOnEvent(tick=0, channel=3, data=[58, 100]),
   midi.NoteOnEvent(tick=108, channel=3, data=[58, 0]),
   midi.NoteOnEvent(tick=0, channel=3, data=[53, 0]),
   midi.NoteOnEvent(tick=0, channel=3, data=[46, 0]),
   midi.NoteOnEvent(tick=108, channel=3, data=[47, 100]),
   midi.NoteOnEvent(tick=0, channel=3, data=[54, 100]),
   midi.NoteOnEvent(tick=0, channel=3, data=[59, 100]),
   midi.NoteOnEvent(tick=108, channel=3, data=[59, 0]),
   midi.NoteOnEvent(tick=0, channel=3, data=[54, 0]),
   midi.NoteOnEvent(tick=0, channel=3, data=[47, 0]),
   midi.NoteOnEvent(tick=108, channel=3, data=[49, 100]),
   midi.NoteOnEvent(tick=0, channel=3, data=[42, 100]),
   midi.NoteOnEvent(tick=0, channel=3, data=[54, 100]),
   midi.NoteOnEvent(tick=216, channel=3, data=[54, 0]),
   midi.NoteOnEvent(tick=0, channel=3, data=[42, 0]),
   midi.NoteOnEvent(tick=0, channel=3, data=[49, 0]),
   midi.NoteOnEvent(tick=0, channel=3, data=[41, 100]),
   midi.NoteOnEvent(tick=0, channel=3, data=[53, 100]),
   midi.NoteOnEvent(tick=0, channel=3, data=[48, 100]),
   midi.NoteOnEvent(tick=108, channel=3, data=[48, 0]),
   midi.NoteOnEvent(tick=0, channel=3, data=[53, 0]),
   midi.NoteOnEvent(tick=0, channel=3, data=[41, 0]),
   midi.NoteOnEvent(tick=108, channel=3, data=[46, 100]),
   midi.NoteOnEvent(tick=0, channel=3, data=[53, 100]),
   midi.NoteOnEvent(tick=0, channel=3, data=[58, 100]),
   midi.NoteOnEvent(tick=108, channel=3, data=[58, 0]),
   midi.NoteOnEvent(tick=0, channel=3, data=[53, 0]),
   midi.NoteOnEvent(tick=0, channel=3, data=[46, 0]),
   midi.NoteOnEvent(tick=108, channel=3, data=[47, 100]),
   midi.NoteOnEvent(tick=0, channel=3, data=[54, 100]),
   midi.NoteOnEvent(tick=0, channel=3, data=[59, 100]),
   midi.NoteOnEvent(tick=108, channel=3, data=[59, 0]),
   midi.NoteOnEvent(tick=0, channel=3, data=[54, 0]),
   midi.NoteOnEvent(tick=0, channel=3, data=[47, 0]),
   midi.NoteOnEvent(tick=108, channel=3, data=[46, 100]),
   midi.NoteOnEvent(tick=0, channel=3, data=[53, 100]),
   midi.NoteOnEvent(tick=0, channel=3, data=[58, 100]),
   midi.NoteOnEvent(tick=108, channel=3, data=[58, 0]),
   midi.NoteOnEvent(tick=0, channel=3, data=[53, 0]),
   midi.NoteOnEvent(tick=0, channel=3, data=[46, 0]),
   midi.NoteOnEvent(tick=108, channel=3, data=[47, 100]),
   midi.NoteOnEvent(tick=0, channel=3, data=[54, 100]),
   midi.NoteOnEvent(tick=0, channel=3, data=[59, 100]),
   midi.NoteOnEvent(tick=108, channel=3, data=[59, 0]),
   midi.NoteOnEvent(tick=0, channel=3, data=[54, 0]),
   midi.NoteOnEvent(tick=0, channel=3, data=[47, 0]),
   midi.NoteOnEvent(tick=108, channel=3, data=[46, 100]),
   midi.NoteOnEvent(tick=0, channel=3, data=[53, 100]),
   midi.NoteOnEvent(tick=0, channel=3, data=[58, 100]),
   midi.NoteOnEvent(tick=108, channel=3, data=[58, 0]),
   midi.NoteOnEvent(tick=0, channel=3, data=[53, 0]),
   midi.NoteOnEvent(tick=0, channel=3, data=[46, 0]),
   midi.NoteOnEvent(tick=108, channel=3, data=[47, 100]),
   midi.NoteOnEvent(tick=0, channel=3, data=[54, 100]),
   midi.NoteOnEvent(tick=0, channel=3, data=[59, 100]),
   midi.NoteOnEvent(tick=108, channel=3, data=[59, 0]),
   midi.NoteOnEvent(tick=0, channel=3, data=[54, 0]),
   midi.NoteOnEvent(tick=0, channel=3, data=[47, 0]),
   midi.NoteOnEvent(tick=108, channel=3, data=[49, 100]),
   midi.NoteOnEvent(tick=0, channel=3, data=[42, 100]),
   midi.NoteOnEvent(tick=0, channel=3, data=[54, 100]),
   midi.NoteOnEvent(tick=216, channel=3, data=[54, 0]),
   midi.NoteOnEvent(tick=0, channel=3, data=[42, 0]),
   midi.NoteOnEvent(tick=0, channel=3, data=[49, 0]),
   midi.NoteOnEvent(tick=0, channel=3, data=[41, 100]),
   midi.NoteOnEvent(tick=0, channel=3, data=[53, 100]),
   midi.NoteOnEvent(tick=0, channel=3, data=[48, 100]),
   midi.NoteOnEvent(tick=108, channel=3, data=[48, 0]),
   midi.NoteOnEvent(tick=0, channel=3, data=[53, 0]),
   midi.NoteOnEvent(tick=0, channel=3, data=[41, 0]),
   midi.NoteOnEvent(tick=108, channel=3, data=[46, 100]),
   midi.NoteOnEvent(tick=0, channel=3, data=[53, 100]),
   midi.NoteOnEvent(tick=0, channel=3, data=[58, 100]),
   midi.NoteOnEvent(tick=108, channel=3, data=[58, 0]),
   midi.NoteOnEvent(tick=0, channel=3, data=[53, 0]),
   midi.NoteOnEvent(tick=0, channel=3, data=[46, 0]),
   midi.NoteOnEvent(tick=108, channel=3, data=[47, 100]),
   midi.NoteOnEvent(tick=0, channel=3, data=[54, 100]),
   midi.NoteOnEvent(tick=0, channel=3, data=[59, 100]),
   midi.NoteOnEvent(tick=108, channel=3, data=[59, 0]),
   midi.NoteOnEvent(tick=0, channel=3, data=[54, 0]),
   midi.NoteOnEvent(tick=0, channel=3, data=[47, 0]),
   midi.NoteOnEvent(tick=108, channel=3, data=[46, 100]),
   midi.NoteOnEvent(tick=0, channel=3, data=[53, 100]),
   midi.NoteOnEvent(tick=0, channel=3, data=[58, 100]),
   midi.NoteOnEvent(tick=108, channel=3, data=[58, 0]),
   midi.NoteOnEvent(tick=0, channel=3, data=[53, 0]),
   midi.NoteOnEvent(tick=0, channel=3, data=[46, 0]),
   midi.NoteOnEvent(tick=108, channel=3, data=[47, 100]),
   midi.NoteOnEvent(tick=0, channel=3, data=[54, 100]),
   midi.NoteOnEvent(tick=0, channel=3, data=[59, 100]),
   midi.NoteOnEvent(tick=108, channel=3, data=[59, 0]),
   midi.NoteOnEvent(tick=0, channel=3, data=[54, 0]),
   midi.NoteOnEvent(tick=0, channel=3, data=[47, 0]),
   midi.NoteOnEvent(tick=108, channel=3, data=[46, 100]),
   midi.NoteOnEvent(tick=0, channel=3, data=[53, 100]),
   midi.NoteOnEvent(tick=0, channel=3, data=[58, 100]),
   midi.NoteOnEvent(tick=108, channel=3, data=[58, 0]),
   midi.NoteOnEvent(tick=0, channel=3, data=[53, 0]),
   midi.NoteOnEvent(tick=0, channel=3, data=[46, 0]),
   midi.NoteOnEvent(tick=108, channel=3, data=[47, 100]),
   midi.NoteOnEvent(tick=0, channel=3, data=[54, 100]),
   midi.NoteOnEvent(tick=0, channel=3, data=[59, 100]),
   midi.NoteOnEvent(tick=108, channel=3, data=[59, 0]),
   midi.NoteOnEvent(tick=0, channel=3, data=[54, 0]),
   midi.NoteOnEvent(tick=0, channel=3, data=[47, 0]),
   midi.NoteOnEvent(tick=108, channel=3, data=[49, 100]),
   midi.NoteOnEvent(tick=0, channel=3, data=[42, 100]),
   midi.NoteOnEvent(tick=0, channel=3, data=[54, 100]),
   midi.NoteOnEvent(tick=216, channel=3, data=[54, 0]),
   midi.NoteOnEvent(tick=0, channel=3, data=[42, 0]),
   midi.NoteOnEvent(tick=0, channel=3, data=[49, 0]),
   midi.NoteOnEvent(tick=0, channel=3, data=[41, 100]),
   midi.NoteOnEvent(tick=0, channel=3, data=[53, 100]),
   midi.NoteOnEvent(tick=0, channel=3, data=[48, 100]),
   midi.NoteOnEvent(tick=108, channel=3, data=[48, 0]),
   midi.NoteOnEvent(tick=0, channel=3, data=[53, 0]),
   midi.NoteOnEvent(tick=0, channel=3, data=[41, 0]),
   midi.NoteOnEvent(tick=108, channel=3, data=[46, 100]),
   midi.NoteOnEvent(tick=0, channel=3, data=[53, 100]),
   midi.NoteOnEvent(tick=0, channel=3, data=[58, 100]),
   midi.NoteOnEvent(tick=108, channel=3, data=[58, 0]),
   midi.NoteOnEvent(tick=0, channel=3, data=[53, 0]),
   midi.NoteOnEvent(tick=0, channel=3, data=[46, 0]),
   midi.NoteOnEvent(tick=108, channel=3, data=[47, 100]),
   midi.NoteOnEvent(tick=0, channel=3, data=[54, 100]),
   midi.NoteOnEvent(tick=0, channel=3, data=[59, 100]),
   midi.NoteOnEvent(tick=108, channel=3, data=[59, 0]),
   midi.NoteOnEvent(tick=0, channel=3, data=[54, 0]),
   midi.NoteOnEvent(tick=0, channel=3, data=[47, 0]),
   midi.NoteOnEvent(tick=108, channel=3, data=[46, 100]),
   midi.NoteOnEvent(tick=0, channel=3, data=[53, 100]),
   midi.NoteOnEvent(tick=0, channel=3, data=[58, 100]),
   midi.NoteOnEvent(tick=108, channel=3, data=[58, 0]),
   midi.NoteOnEvent(tick=0, channel=3, data=[53, 0]),
   midi.NoteOnEvent(tick=0, channel=3, data=[46, 0]),
   midi.NoteOnEvent(tick=108, channel=3, data=[47, 100]),
   midi.NoteOnEvent(tick=0, channel=3, data=[54, 100]),
   midi.NoteOnEvent(tick=0, channel=3, data=[59, 100]),
   midi.NoteOnEvent(tick=108, channel=3, data=[59, 0]),
   midi.NoteOnEvent(tick=0, channel=3, data=[54, 0]),
   midi.NoteOnEvent(tick=0, channel=3, data=[47, 0]),
   midi.NoteOnEvent(tick=108, channel=3, data=[46, 100]),
   midi.NoteOnEvent(tick=0, channel=3, data=[53, 100]),
   midi.NoteOnEvent(tick=0, channel=3, data=[58, 100]),
   midi.NoteOnEvent(tick=108, channel=3, data=[58, 0]),
   midi.NoteOnEvent(tick=0, channel=3, data=[53, 0]),
   midi.NoteOnEvent(tick=0, channel=3, data=[46, 0]),
   midi.NoteOnEvent(tick=108, channel=3, data=[47, 100]),
   midi.NoteOnEvent(tick=0, channel=3, data=[54, 100]),
   midi.NoteOnEvent(tick=0, channel=3, data=[59, 100]),
   midi.NoteOnEvent(tick=108, channel=3, data=[59, 0]),
   midi.NoteOnEvent(tick=0, channel=3, data=[54, 0]),
   midi.NoteOnEvent(tick=0, channel=3, data=[47, 0]),
   midi.NoteOnEvent(tick=108, channel=3, data=[49, 100]),
   midi.NoteOnEvent(tick=0, channel=3, data=[42, 100]),
   midi.NoteOnEvent(tick=0, channel=3, data=[54, 100]),
   midi.NoteOnEvent(tick=216, channel=3, data=[54, 0]),
   midi.NoteOnEvent(tick=0, channel=3, data=[42, 0]),
   midi.NoteOnEvent(tick=0, channel=3, data=[49, 0]),
   midi.NoteOnEvent(tick=0, channel=3, data=[41, 100]),
   midi.NoteOnEvent(tick=0, channel=3, data=[53, 100]),
   midi.NoteOnEvent(tick=0, channel=3, data=[48, 100]),
   midi.NoteOnEvent(tick=216, channel=3, data=[48, 0]),
   midi.NoteOnEvent(tick=0, channel=3, data=[53, 0]),
   midi.NoteOnEvent(tick=0, channel=3, data=[41, 0]),
   midi.NoteOnEvent(tick=972, channel=3, data=[41, 100]),
   midi.NoteOnEvent(tick=0, channel=3, data=[53, 100]),
   midi.NoteOnEvent(tick=0, channel=3, data=[48, 100]),
   midi.NoteOnEvent(tick=108, channel=3, data=[48, 0]),
   midi.NoteOnEvent(tick=0, channel=3, data=[53, 0]),
   midi.NoteOnEvent(tick=0, channel=3, data=[41, 0]),
   midi.NoteOnEvent(tick=0, channel=3, data=[41, 100]),
   midi.NoteOnEvent(tick=0, channel=3, data=[53, 100]),
   midi.NoteOnEvent(tick=0, channel=3, data=[48, 100]),
   midi.NoteOnEvent(tick=108, channel=3, data=[48, 0]),
   midi.NoteOnEvent(tick=0, channel=3, data=[53, 0]),
   midi.NoteOnEvent(tick=0, channel=3, data=[41, 0]),
   midi.NoteOnEvent(tick=0, channel=3, data=[51, 100]),
   midi.NoteOnEvent(tick=0, channel=3, data=[54, 100]),
   midi.NoteOnEvent(tick=216, channel=3, data=[54, 0]),
   midi.NoteOnEvent(tick=0, channel=3, data=[51, 0]),
   midi.NoteOnEvent(tick=0, channel=3, data=[40, 100]),
   midi.NoteOnEvent(tick=108, channel=3, data=[40, 0]),
   midi.NoteOnEvent(tick=0, channel=3, data=[52, 100]),
   midi.NoteOnEvent(tick=0, channel=3, data=[47, 100]),
   midi.NoteOnEvent(tick=0, channel=3, data=[40, 100]),
   midi.NoteOnEvent(tick=54, channel=3, data=[40, 0]),
   midi.NoteOnEvent(tick=0, channel=3, data=[47, 0]),
   midi.NoteOnEvent(tick=0, channel=3, data=[52, 0]),
   midi.NoteOnEvent(tick=0, channel=3, data=[52, 100]),
   midi.NoteOnEvent(tick=0, channel=3, data=[47, 100]),
   midi.NoteOnEvent(tick=0, channel=3, data=[40, 100]),
   midi.NoteOnEvent(tick=54, channel=3, data=[40, 0]),
   midi.NoteOnEvent(tick=0, channel=3, data=[47, 0]),
   midi.NoteOnEvent(tick=0, channel=3, data=[52, 0]),
   midi.NoteOnEvent(tick=0, channel=3, data=[40, 100]),
   midi.NoteOnEvent(tick=108, channel=3, data=[40, 0]),
   midi.NoteOnEvent(tick=0, channel=3, data=[52, 100]),
   midi.NoteOnEvent(tick=0, channel=3, data=[47, 100]),
   midi.NoteOnEvent(tick=0, channel=3, data=[40, 100]),
   midi.NoteOnEvent(tick=54, channel=3, data=[40, 0]),
   midi.NoteOnEvent(tick=0, channel=3, data=[47, 0]),
   midi.NoteOnEvent(tick=0, channel=3, data=[52, 0]),
   midi.NoteOnEvent(tick=0, channel=3, data=[52, 100]),
   midi.NoteOnEvent(tick=0, channel=3, data=[47, 100]),
   midi.NoteOnEvent(tick=0, channel=3, data=[40, 100]),
   midi.NoteOnEvent(tick=54, channel=3, data=[40, 0]),
   midi.NoteOnEvent(tick=0, channel=3, data=[47, 0]),
   midi.NoteOnEvent(tick=0, channel=3, data=[52, 0]),
   midi.NoteOnEvent(tick=0, channel=3, data=[40, 100]),
   midi.NoteOnEvent(tick=108, channel=3, data=[40, 0]),
   midi.NoteOnEvent(tick=0, channel=3, data=[46, 100]),
   midi.NoteOnEvent(tick=0, channel=3, data=[53, 100]),
   midi.NoteOnEvent(tick=0, channel=3, data=[58, 100]),
   midi.NoteOnEvent(tick=108, channel=3, data=[58, 0]),
   midi.NoteOnEvent(tick=0, channel=3, data=[53, 0]),
   midi.NoteOnEvent(tick=0, channel=3, data=[46, 0]),
   midi.NoteOnEvent(tick=0, channel=3, data=[46, 100]),
   midi.NoteOnEvent(tick=0, channel=3, data=[53, 100]),
   midi.NoteOnEvent(tick=0, channel=3, data=[58, 100]),
   midi.NoteOnEvent(tick=108, channel=3, data=[58, 0]),
   midi.NoteOnEvent(tick=0, channel=3, data=[53, 0]),
   midi.NoteOnEvent(tick=0, channel=3, data=[46, 0]),
   midi.NoteOnEvent(tick=0, channel=3, data=[45, 100]),
   midi.NoteOnEvent(tick=0, channel=3, data=[52, 100]),
   midi.NoteOnEvent(tick=0, channel=3, data=[57, 100]),
   midi.NoteOnEvent(tick=108, channel=3, data=[57, 0]),
   midi.NoteOnEvent(tick=0, channel=3, data=[52, 0]),
   midi.NoteOnEvent(tick=0, channel=3, data=[45, 0]),
   midi.NoteOnEvent(tick=0, channel=3, data=[40, 100]),
   midi.NoteOnEvent(tick=108, channel=3, data=[40, 0]),
   midi.NoteOnEvent(tick=0, channel=3, data=[52, 100]),
   midi.NoteOnEvent(tick=0, channel=3, data=[47, 100]),
   midi.NoteOnEvent(tick=0, channel=3, data=[40, 100]),
   midi.NoteOnEvent(tick=54, channel=3, data=[40, 0]),
   midi.NoteOnEvent(tick=0, channel=3, data=[47, 0]),
   midi.NoteOnEvent(tick=0, channel=3, data=[52, 0]),
   midi.NoteOnEvent(tick=0, channel=3, data=[47, 100]),
   midi.NoteOnEvent(tick=0, channel=3, data=[52, 100]),
   midi.NoteOnEvent(tick=0, channel=3, data=[40, 100]),
   midi.NoteOnEvent(tick=54, channel=3, data=[40, 0]),
   midi.NoteOnEvent(tick=0, channel=3, data=[52, 0]),
   midi.NoteOnEvent(tick=0, channel=3, data=[47, 0]),
   midi.NoteOnEvent(tick=0, channel=3, data=[40, 100]),
   midi.NoteOnEvent(tick=108, channel=3, data=[40, 0]),
   midi.NoteOnEvent(tick=0, channel=3, data=[52, 100]),
   midi.NoteOnEvent(tick=0, channel=3, data=[47, 100]),
   midi.NoteOnEvent(tick=0, channel=3, data=[40, 100]),
   midi.NoteOnEvent(tick=54, channel=3, data=[40, 0]),
   midi.NoteOnEvent(tick=0, channel=3, data=[47, 0]),
   midi.NoteOnEvent(tick=0, channel=3, data=[52, 0]),
   midi.NoteOnEvent(tick=0, channel=3, data=[47, 100]),
   midi.NoteOnEvent(tick=0, channel=3, data=[52, 100]),
   midi.NoteOnEvent(tick=0, channel=3, data=[40, 100]),
   midi.NoteOnEvent(tick=54, channel=3, data=[40, 0]),
   midi.NoteOnEvent(tick=0, channel=3, data=[52, 0]),
   midi.NoteOnEvent(tick=0, channel=3, data=[47, 0]),
   midi.NoteOnEvent(tick=0, channel=3, data=[40, 100]),
   midi.NoteOnEvent(tick=108, channel=3, data=[40, 0]),
   midi.NoteOnEvent(tick=0, channel=3, data=[52, 100]),
   midi.NoteOnEvent(tick=0, channel=3, data=[55, 100]),
   midi.NoteOnEvent(tick=108, channel=3, data=[55, 0]),
   midi.NoteOnEvent(tick=0, channel=3, data=[52, 0]),
   midi.NoteOnEvent(tick=0, channel=3, data=[52, 100]),
   midi.NoteOnEvent(tick=0, channel=3, data=[55, 100]),
   midi.NoteOnEvent(tick=108, channel=3, data=[55, 0]),
   midi.NoteOnEvent(tick=0, channel=3, data=[52, 0]),
   midi.NoteOnEvent(tick=0, channel=3, data=[54, 100]),
   midi.NoteOnEvent(tick=0, channel=3, data=[51, 100]),
   midi.NoteOnEvent(tick=108, channel=3, data=[51, 0]),
   midi.NoteOnEvent(tick=0, channel=3, data=[54, 0]),
   midi.NoteOnEvent(tick=0, channel=3, data=[52, 100]),
   midi.NoteOnEvent(tick=0, channel=3, data=[55, 100]),
   midi.NoteOnEvent(tick=108, channel=3, data=[55, 0]),
   midi.NoteOnEvent(tick=0, channel=3, data=[52, 0]),
   midi.NoteOnEvent(tick=0, channel=3, data=[52, 100]),
   midi.NoteOnEvent(tick=0, channel=3, data=[47, 100]),
   midi.NoteOnEvent(tick=0, channel=3, data=[40, 100]),
   midi.NoteOnEvent(tick=54, channel=3, data=[40, 0]),
   midi.NoteOnEvent(tick=0, channel=3, data=[47, 0]),
   midi.NoteOnEvent(tick=0, channel=3, data=[52, 0]),
   midi.NoteOnEvent(tick=0, channel=3, data=[47, 100]),
   midi.NoteOnEvent(tick=0, channel=3, data=[52, 100]),
   midi.NoteOnEvent(tick=0, channel=3, data=[40, 100]),
   midi.NoteOnEvent(tick=54, channel=3, data=[40, 0]),
   midi.NoteOnEvent(tick=0, channel=3, data=[52, 0]),
   midi.NoteOnEvent(tick=0, channel=3, data=[47, 0]),
   midi.NoteOnEvent(tick=0, channel=3, data=[40, 100]),
   midi.NoteOnEvent(tick=108, channel=3, data=[40, 0]),
   midi.NoteOnEvent(tick=0, channel=3, data=[52, 100]),
   midi.NoteOnEvent(tick=0, channel=3, data=[47, 100]),
   midi.NoteOnEvent(tick=0, channel=3, data=[40, 100]),
   midi.NoteOnEvent(tick=54, channel=3, data=[40, 0]),
   midi.NoteOnEvent(tick=0, channel=3, data=[47, 0]),
   midi.NoteOnEvent(tick=0, channel=3, data=[52, 0]),
   midi.NoteOnEvent(tick=0, channel=3, data=[47, 100]),
   midi.NoteOnEvent(tick=0, channel=3, data=[52, 100]),
   midi.NoteOnEvent(tick=0, channel=3, data=[40, 100]),
   midi.NoteOnEvent(tick=54, channel=3, data=[40, 0]),
   midi.NoteOnEvent(tick=0, channel=3, data=[52, 0]),
   midi.NoteOnEvent(tick=0, channel=3, data=[47, 0]),
   midi.NoteOnEvent(tick=0, channel=3, data=[40, 100]),
   midi.NoteOnEvent(tick=108, channel=3, data=[40, 0]),
   midi.NoteOnEvent(tick=0, channel=3, data=[46, 100]),
   midi.NoteOnEvent(tick=0, channel=3, data=[53, 100]),
   midi.NoteOnEvent(tick=0, channel=3, data=[58, 100]),
   midi.NoteOnEvent(tick=108, channel=3, data=[58, 0]),
   midi.NoteOnEvent(tick=0, channel=3, data=[53, 0]),
   midi.NoteOnEvent(tick=0, channel=3, data=[46, 0]),
   midi.NoteOnEvent(tick=0, channel=3, data=[46, 100]),
   midi.NoteOnEvent(tick=0, channel=3, data=[53, 100]),
   midi.NoteOnEvent(tick=0, channel=3, data=[58, 100]),
   midi.NoteOnEvent(tick=108, channel=3, data=[58, 0]),
   midi.NoteOnEvent(tick=0, channel=3, data=[53, 0]),
   midi.NoteOnEvent(tick=0, channel=3, data=[46, 0]),
   midi.NoteOnEvent(tick=0, channel=3, data=[45, 100]),
   midi.NoteOnEvent(tick=0, channel=3, data=[52, 100]),
   midi.NoteOnEvent(tick=0, channel=3, data=[57, 100]),
   midi.NoteOnEvent(tick=108, channel=3, data=[57, 0]),
   midi.NoteOnEvent(tick=0, channel=3, data=[52, 0]),
   midi.NoteOnEvent(tick=0, channel=3, data=[45, 0]),
   midi.NoteOnEvent(tick=0, channel=3, data=[40, 100]),
   midi.NoteOnEvent(tick=108, channel=3, data=[40, 0]),
   midi.NoteOnEvent(tick=0, channel=3, data=[42, 100]),
   midi.NoteOnEvent(tick=0, channel=3, data=[49, 100]),
   midi.NoteOnEvent(tick=0, channel=3, data=[54, 100]),
   midi.NoteOnEvent(tick=216, channel=3, data=[54, 0]),
   midi.NoteOnEvent(tick=0, channel=3, data=[49, 0]),
   midi.NoteOnEvent(tick=0, channel=3, data=[42, 0]),
   midi.NoteOnEvent(tick=0, channel=3, data=[43, 100]),
   midi.NoteOnEvent(tick=0, channel=3, data=[50, 100]),
   midi.NoteOnEvent(tick=0, channel=3, data=[55, 100]),
   midi.NoteOnEvent(tick=108, channel=3, data=[55, 0]),
   midi.NoteOnEvent(tick=0, channel=3, data=[50, 0]),
   midi.NoteOnEvent(tick=0, channel=3, data=[43, 0]),
   midi.NoteOnEvent(tick=0, channel=3, data=[40, 100]),
   midi.NoteOnEvent(tick=108, channel=3, data=[40, 0]),
   midi.NoteOnEvent(tick=0, channel=3, data=[55, 100]),
   midi.NoteOnEvent(tick=0, channel=3, data=[50, 100]),
   midi.NoteOnEvent(tick=0, channel=3, data=[43, 100]),
   midi.NoteOnEvent(tick=216, channel=3, data=[43, 0]),
   midi.NoteOnEvent(tick=0, channel=3, data=[50, 0]),
   midi.NoteOnEvent(tick=0, channel=3, data=[55, 0]),
   midi.NoteOnEvent(tick=0, channel=3, data=[44, 100]),
   midi.NoteOnEvent(tick=0, channel=3, data=[51, 100]),
   midi.NoteOnEvent(tick=0, channel=3, data=[56, 100]),
   midi.NoteOnEvent(tick=108, channel=3, data=[56, 0]),
   midi.NoteOnEvent(tick=0, channel=3, data=[51, 0]),
   midi.NoteOnEvent(tick=0, channel=3, data=[44, 0]),
   midi.NoteOnEvent(tick=0, channel=3, data=[40, 100]),
   midi.NoteOnEvent(tick=108, channel=3, data=[40, 0]),
   midi.NoteOnEvent(tick=0, channel=3, data=[52, 100]),
   midi.NoteOnEvent(tick=0, channel=3, data=[47, 100]),
   midi.NoteOnEvent(tick=0, channel=3, data=[40, 100]),
   midi.NoteOnEvent(tick=54, channel=3, data=[40, 0]),
   midi.NoteOnEvent(tick=0, channel=3, data=[47, 0]),
   midi.NoteOnEvent(tick=0, channel=3, data=[52, 0]),
   midi.NoteOnEvent(tick=0, channel=3, data=[52, 100]),
   midi.NoteOnEvent(tick=0, channel=3, data=[47, 100]),
   midi.NoteOnEvent(tick=0, channel=3, data=[40, 100]),
   midi.NoteOnEvent(tick=54, channel=3, data=[40, 0]),
   midi.NoteOnEvent(tick=0, channel=3, data=[47, 0]),
   midi.NoteOnEvent(tick=0, channel=3, data=[52, 0]),
   midi.NoteOnEvent(tick=0, channel=3, data=[40, 100]),
   midi.NoteOnEvent(tick=108, channel=3, data=[40, 0]),
   midi.NoteOnEvent(tick=0, channel=3, data=[52, 100]),
   midi.NoteOnEvent(tick=0, channel=3, data=[47, 100]),
   midi.NoteOnEvent(tick=0, channel=3, data=[40, 100]),
   midi.NoteOnEvent(tick=54, channel=3, data=[40, 0]),
   midi.NoteOnEvent(tick=0, channel=3, data=[47, 0]),
   midi.NoteOnEvent(tick=0, channel=3, data=[52, 0]),
   midi.NoteOnEvent(tick=0, channel=3, data=[52, 100]),
   midi.NoteOnEvent(tick=0, channel=3, data=[47, 100]),
   midi.NoteOnEvent(tick=0, channel=3, data=[40, 100]),
   midi.NoteOnEvent(tick=54, channel=3, data=[40, 0]),
   midi.NoteOnEvent(tick=0, channel=3, data=[47, 0]),
   midi.NoteOnEvent(tick=0, channel=3, data=[52, 0]),
   midi.NoteOnEvent(tick=0, channel=3, data=[40, 100]),
   midi.NoteOnEvent(tick=108, channel=3, data=[40, 0]),
   midi.NoteOnEvent(tick=0, channel=3, data=[46, 100]),
   midi.NoteOnEvent(tick=0, channel=3, data=[53, 100]),
   midi.NoteOnEvent(tick=0, channel=3, data=[58, 100]),
   midi.NoteOnEvent(tick=108, channel=3, data=[58, 0]),
   midi.NoteOnEvent(tick=0, channel=3, data=[53, 0]),
   midi.NoteOnEvent(tick=0, channel=3, data=[46, 0]),
   midi.NoteOnEvent(tick=0, channel=3, data=[46, 100]),
   midi.NoteOnEvent(tick=0, channel=3, data=[53, 100]),
   midi.NoteOnEvent(tick=0, channel=3, data=[58, 100]),
   midi.NoteOnEvent(tick=108, channel=3, data=[58, 0]),
   midi.NoteOnEvent(tick=0, channel=3, data=[53, 0]),
   midi.NoteOnEvent(tick=0, channel=3, data=[46, 0]),
   midi.NoteOnEvent(tick=0, channel=3, data=[45, 100]),
   midi.NoteOnEvent(tick=0, channel=3, data=[52, 100]),
   midi.NoteOnEvent(tick=0, channel=3, data=[57, 100]),
   midi.NoteOnEvent(tick=108, channel=3, data=[57, 0]),
   midi.NoteOnEvent(tick=0, channel=3, data=[52, 0]),
   midi.NoteOnEvent(tick=0, channel=3, data=[45, 0]),
   midi.NoteOnEvent(tick=0, channel=3, data=[40, 100]),
   midi.NoteOnEvent(tick=108, channel=3, data=[40, 0]),
   midi.NoteOnEvent(tick=0, channel=3, data=[52, 100]),
   midi.NoteOnEvent(tick=0, channel=3, data=[47, 100]),
   midi.NoteOnEvent(tick=0, channel=3, data=[40, 100]),
   midi.NoteOnEvent(tick=54, channel=3, data=[40, 0]),
   midi.NoteOnEvent(tick=0, channel=3, data=[47, 0]),
   midi.NoteOnEvent(tick=0, channel=3, data=[52, 0]),
   midi.NoteOnEvent(tick=0, channel=3, data=[47, 100]),
   midi.NoteOnEvent(tick=0, channel=3, data=[52, 100]),
   midi.NoteOnEvent(tick=0, channel=3, data=[40, 100]),
   midi.NoteOnEvent(tick=54, channel=3, data=[40, 0]),
   midi.NoteOnEvent(tick=0, channel=3, data=[52, 0]),
   midi.NoteOnEvent(tick=0, channel=3, data=[47, 0]),
   midi.NoteOnEvent(tick=0, channel=3, data=[40, 100]),
   midi.NoteOnEvent(tick=108, channel=3, data=[40, 0]),
   midi.NoteOnEvent(tick=0, channel=3, data=[52, 100]),
   midi.NoteOnEvent(tick=0, channel=3, data=[47, 100]),
   midi.NoteOnEvent(tick=0, channel=3, data=[40, 100]),
   midi.NoteOnEvent(tick=54, channel=3, data=[40, 0]),
   midi.NoteOnEvent(tick=0, channel=3, data=[47, 0]),
   midi.NoteOnEvent(tick=0, channel=3, data=[52, 0]),
   midi.NoteOnEvent(tick=0, channel=3, data=[47, 100]),
   midi.NoteOnEvent(tick=0, channel=3, data=[52, 100]),
   midi.NoteOnEvent(tick=0, channel=3, data=[40, 100]),
   midi.NoteOnEvent(tick=54, channel=3, data=[40, 0]),
   midi.NoteOnEvent(tick=0, channel=3, data=[52, 0]),
   midi.NoteOnEvent(tick=0, channel=3, data=[47, 0]),
   midi.NoteOnEvent(tick=0, channel=3, data=[40, 100]),
   midi.NoteOnEvent(tick=108, channel=3, data=[40, 0]),
   midi.NoteOnEvent(tick=0, channel=3, data=[52, 100]),
   midi.NoteOnEvent(tick=0, channel=3, data=[55, 100]),
   midi.NoteOnEvent(tick=108, channel=3, data=[55, 0]),
   midi.NoteOnEvent(tick=0, channel=3, data=[52, 0]),
   midi.NoteOnEvent(tick=0, channel=3, data=[52, 100]),
   midi.NoteOnEvent(tick=0, channel=3, data=[55, 100]),
   midi.NoteOnEvent(tick=108, channel=3, data=[55, 0]),
   midi.NoteOnEvent(tick=0, channel=3, data=[52, 0]),
   midi.NoteOnEvent(tick=0, channel=3, data=[54, 100]),
   midi.NoteOnEvent(tick=0, channel=3, data=[51, 100]),
   midi.NoteOnEvent(tick=108, channel=3, data=[51, 0]),
   midi.NoteOnEvent(tick=0, channel=3, data=[54, 0]),
   midi.NoteOnEvent(tick=0, channel=3, data=[52, 100]),
   midi.NoteOnEvent(tick=0, channel=3, data=[55, 100]),
   midi.NoteOnEvent(tick=108, channel=3, data=[55, 0]),
   midi.NoteOnEvent(tick=0, channel=3, data=[52, 0]),
   midi.NoteOnEvent(tick=0, channel=3, data=[52, 100]),
   midi.NoteOnEvent(tick=0, channel=3, data=[47, 100]),
   midi.NoteOnEvent(tick=0, channel=3, data=[40, 100]),
   midi.NoteOnEvent(tick=54, channel=3, data=[40, 0]),
   midi.NoteOnEvent(tick=0, channel=3, data=[47, 0]),
   midi.NoteOnEvent(tick=0, channel=3, data=[52, 0]),
   midi.NoteOnEvent(tick=0, channel=3, data=[47, 100]),
   midi.NoteOnEvent(tick=0, channel=3, data=[52, 100]),
   midi.NoteOnEvent(tick=0, channel=3, data=[40, 100]),
   midi.NoteOnEvent(tick=54, channel=3, data=[40, 0]),
   midi.NoteOnEvent(tick=0, channel=3, data=[52, 0]),
   midi.NoteOnEvent(tick=0, channel=3, data=[47, 0]),
   midi.NoteOnEvent(tick=0, channel=3, data=[40, 100]),
   midi.NoteOnEvent(tick=108, channel=3, data=[40, 0]),
   midi.NoteOnEvent(tick=0, channel=3, data=[52, 100]),
   midi.NoteOnEvent(tick=0, channel=3, data=[47, 100]),
   midi.NoteOnEvent(tick=0, channel=3, data=[40, 100]),
   midi.NoteOnEvent(tick=54, channel=3, data=[40, 0]),
   midi.NoteOnEvent(tick=0, channel=3, data=[47, 0]),
   midi.NoteOnEvent(tick=0, channel=3, data=[52, 0]),
   midi.NoteOnEvent(tick=0, channel=3, data=[47, 100]),
   midi.NoteOnEvent(tick=0, channel=3, data=[52, 100]),
   midi.NoteOnEvent(tick=0, channel=3, data=[40, 100]),
   midi.NoteOnEvent(tick=54, channel=3, data=[40, 0]),
   midi.NoteOnEvent(tick=0, channel=3, data=[52, 0]),
   midi.NoteOnEvent(tick=0, channel=3, data=[47, 0]),
   midi.NoteOnEvent(tick=0, channel=3, data=[40, 100]),
   midi.NoteOnEvent(tick=108, channel=3, data=[40, 0]),
   midi.NoteOnEvent(tick=0, channel=3, data=[46, 100]),
   midi.NoteOnEvent(tick=0, channel=3, data=[53, 100]),
   midi.NoteOnEvent(tick=0, channel=3, data=[58, 100]),
   midi.NoteOnEvent(tick=108, channel=3, data=[58, 0]),
   midi.NoteOnEvent(tick=0, channel=3, data=[53, 0]),
   midi.NoteOnEvent(tick=0, channel=3, data=[46, 0]),
   midi.NoteOnEvent(tick=0, channel=3, data=[46, 100]),
   midi.NoteOnEvent(tick=0, channel=3, data=[53, 100]),
   midi.NoteOnEvent(tick=0, channel=3, data=[58, 100]),
   midi.NoteOnEvent(tick=108, channel=3, data=[58, 0]),
   midi.NoteOnEvent(tick=0, channel=3, data=[53, 0]),
   midi.NoteOnEvent(tick=0, channel=3, data=[46, 0]),
   midi.NoteOnEvent(tick=0, channel=3, data=[45, 100]),
   midi.NoteOnEvent(tick=0, channel=3, data=[52, 100]),
   midi.NoteOnEvent(tick=0, channel=3, data=[57, 100]),
   midi.NoteOnEvent(tick=108, channel=3, data=[57, 0]),
   midi.NoteOnEvent(tick=0, channel=3, data=[52, 0]),
   midi.NoteOnEvent(tick=0, channel=3, data=[45, 0]),
   midi.NoteOnEvent(tick=0, channel=3, data=[40, 100]),
   midi.NoteOnEvent(tick=108, channel=3, data=[40, 0]),
   midi.NoteOnEvent(tick=0, channel=3, data=[42, 100]),
   midi.NoteOnEvent(tick=0, channel=3, data=[49, 100]),
   midi.NoteOnEvent(tick=0, channel=3, data=[54, 100]),
   midi.NoteOnEvent(tick=216, channel=3, data=[54, 0]),
   midi.NoteOnEvent(tick=0, channel=3, data=[49, 0]),
   midi.NoteOnEvent(tick=0, channel=3, data=[42, 0]),
   midi.NoteOnEvent(tick=0, channel=3, data=[43, 100]),
   midi.NoteOnEvent(tick=0, channel=3, data=[50, 100]),
   midi.NoteOnEvent(tick=0, channel=3, data=[55, 100]),
   midi.NoteOnEvent(tick=108, channel=3, data=[55, 0]),
   midi.NoteOnEvent(tick=0, channel=3, data=[50, 0]),
   midi.NoteOnEvent(tick=0, channel=3, data=[43, 0]),
   midi.NoteOnEvent(tick=0, channel=3, data=[40, 100]),
   midi.NoteOnEvent(tick=108, channel=3, data=[40, 0]),
   midi.NoteOnEvent(tick=0, channel=3, data=[55, 100]),
   midi.NoteOnEvent(tick=0, channel=3, data=[50, 100]),
   midi.NoteOnEvent(tick=0, channel=3, data=[43, 100]),
   midi.NoteOnEvent(tick=216, channel=3, data=[43, 0]),
   midi.NoteOnEvent(tick=0, channel=3, data=[50, 0]),
   midi.NoteOnEvent(tick=0, channel=3, data=[55, 0]),
   midi.NoteOnEvent(tick=0, channel=3, data=[44, 100]),
   midi.NoteOnEvent(tick=0, channel=3, data=[51, 100]),
   midi.NoteOnEvent(tick=0, channel=3, data=[56, 100]),
   midi.NoteOnEvent(tick=108, channel=3, data=[56, 0]),
   midi.NoteOnEvent(tick=0, channel=3, data=[51, 0]),
   midi.NoteOnEvent(tick=0, channel=3, data=[44, 0]),
   midi.NoteOnEvent(tick=0, channel=3, data=[52, 100]),
   midi.NoteOnEvent(tick=0, channel=3, data=[47, 100]),
   midi.NoteOnEvent(tick=0, channel=3, data=[40, 100]),
   midi.NoteOnEvent(tick=864, channel=3, data=[40, 0]),
   midi.NoteOnEvent(tick=0, channel=3, data=[47, 0]),
   midi.NoteOnEvent(tick=0, channel=3, data=[52, 0]),
   midi.NoteOnEvent(tick=0, channel=3, data=[55, 100]),
   midi.NoteOnEvent(tick=0, channel=3, data=[50, 100]),
   midi.NoteOnEvent(tick=0, channel=3, data=[43, 100]),
   midi.NoteOnEvent(tick=860, channel=3, data=[43, 0]),
   midi.NoteOnEvent(tick=0, channel=3, data=[50, 0]),
   midi.NoteOnEvent(tick=0, channel=3, data=[55, 0]),
   midi.NoteOnEvent(tick=4, channel=3, data=[57, 100]),
   midi.NoteOnEvent(tick=0, channel=3, data=[52, 100]),
   midi.NoteOnEvent(tick=0, channel=3, data=[45, 100]),
   midi.NoteOnEvent(tick=428, channel=3, data=[45, 0]),
   midi.NoteOnEvent(tick=0, channel=3, data=[52, 0]),
   midi.NoteOnEvent(tick=0, channel=3, data=[57, 0]),
   midi.NoteOnEvent(tick=4, channel=3, data=[53, 100]),
   midi.NoteOnEvent(tick=0, channel=3, data=[48, 100]),
   midi.NoteOnEvent(tick=0, channel=3, data=[41, 100]),
   midi.NoteOnEvent(tick=104, channel=3, data=[41, 0]),
   midi.NoteOnEvent(tick=0, channel=3, data=[48, 0]),
   midi.NoteOnEvent(tick=0, channel=3, data=[53, 0]),
   midi.NoteOnEvent(tick=4, channel=3, data=[53, 100]),
   midi.NoteOnEvent(tick=0, channel=3, data=[48, 100]),
   midi.NoteOnEvent(tick=0, channel=3, data=[41, 100]),
   midi.NoteOnEvent(tick=104, channel=3, data=[41, 0]),
   midi.NoteOnEvent(tick=0, channel=3, data=[48, 0]),
   midi.NoteOnEvent(tick=0, channel=3, data=[53, 0]),
   midi.NoteOnEvent(tick=4, channel=3, data=[42, 100]),
   midi.NoteOnEvent(tick=0, channel=3, data=[51, 100]),
   midi.NoteOnEvent(tick=0, channel=3, data=[47, 100]),
   midi.NoteOnEvent(tick=212, channel=3, data=[47, 0]),
   midi.NoteOnEvent(tick=0, channel=3, data=[51, 0]),
   midi.NoteOnEvent(tick=0, channel=3, data=[42, 0]),
   midi.NoteOnEvent(tick=4, channel=3, data=[40, 100]),
   midi.NoteOnEvent(tick=108, channel=3, data=[40, 0]),
   midi.NoteOnEvent(tick=0, channel=3, data=[47, 100]),
   midi.NoteOnEvent(tick=0, channel=3, data=[40, 100]),
   midi.NoteOnEvent(tick=54, channel=3, data=[40, 0]),
   midi.NoteOnEvent(tick=0, channel=3, data=[47, 0]),
   midi.NoteOnEvent(tick=0, channel=3, data=[47, 100]),
   midi.NoteOnEvent(tick=0, channel=3, data=[40, 100]),
   midi.NoteOnEvent(tick=54, channel=3, data=[40, 0]),
   midi.NoteOnEvent(tick=0, channel=3, data=[47, 0]),
   midi.NoteOnEvent(tick=0, channel=3, data=[40, 100]),
   midi.NoteOnEvent(tick=108, channel=3, data=[40, 0]),
   midi.NoteOnEvent(tick=0, channel=3, data=[47, 100]),
   midi.NoteOnEvent(tick=0, channel=3, data=[40, 100]),
   midi.NoteOnEvent(tick=54, channel=3, data=[40, 0]),
   midi.NoteOnEvent(tick=0, channel=3, data=[47, 0]),
   midi.NoteOnEvent(tick=0, channel=3, data=[47, 100]),
   midi.NoteOnEvent(tick=0, channel=3, data=[40, 100]),
   midi.NoteOnEvent(tick=54, channel=3, data=[40, 0]),
   midi.NoteOnEvent(tick=0, channel=3, data=[47, 0]),
   midi.NoteOnEvent(tick=0, channel=3, data=[40, 100]),
   midi.NoteOnEvent(tick=108, channel=3, data=[40, 0]),
   midi.NoteOnEvent(tick=0, channel=3, data=[46, 100]),
   midi.NoteOnEvent(tick=0, channel=3, data=[53, 100]),
   midi.NoteOnEvent(tick=0, channel=3, data=[58, 100]),
   midi.NoteOnEvent(tick=108, channel=3, data=[58, 0]),
   midi.NoteOnEvent(tick=0, channel=3, data=[53, 0]),
   midi.NoteOnEvent(tick=0, channel=3, data=[46, 0]),
   midi.NoteOnEvent(tick=0, channel=3, data=[46, 100]),
   midi.NoteOnEvent(tick=0, channel=3, data=[53, 100]),
   midi.NoteOnEvent(tick=0, channel=3, data=[58, 100]),
   midi.NoteOnEvent(tick=108, channel=3, data=[58, 0]),
   midi.NoteOnEvent(tick=0, channel=3, data=[53, 0]),
   midi.NoteOnEvent(tick=0, channel=3, data=[46, 0]),
   midi.NoteOnEvent(tick=0, channel=3, data=[45, 100]),
   midi.NoteOnEvent(tick=0, channel=3, data=[52, 100]),
   midi.NoteOnEvent(tick=0, channel=3, data=[57, 100]),
   midi.NoteOnEvent(tick=108, channel=3, data=[57, 0]),
   midi.NoteOnEvent(tick=0, channel=3, data=[52, 0]),
   midi.NoteOnEvent(tick=0, channel=3, data=[45, 0]),
   midi.NoteOnEvent(tick=0, channel=3, data=[40, 100]),
   midi.NoteOnEvent(tick=108, channel=3, data=[40, 0]),
   midi.NoteOnEvent(tick=0, channel=3, data=[47, 100]),
   midi.NoteOnEvent(tick=0, channel=3, data=[40, 100]),
   midi.NoteOnEvent(tick=54, channel=3, data=[40, 0]),
   midi.NoteOnEvent(tick=0, channel=3, data=[47, 0]),
   midi.NoteOnEvent(tick=0, channel=3, data=[47, 100]),
   midi.NoteOnEvent(tick=0, channel=3, data=[40, 100]),
   midi.NoteOnEvent(tick=54, channel=3, data=[40, 0]),
   midi.NoteOnEvent(tick=0, channel=3, data=[47, 0]),
   midi.NoteOnEvent(tick=0, channel=3, data=[40, 100]),
   midi.NoteOnEvent(tick=108, channel=3, data=[40, 0]),
   midi.NoteOnEvent(tick=0, channel=3, data=[47, 100]),
   midi.NoteOnEvent(tick=0, channel=3, data=[40, 100]),
   midi.NoteOnEvent(tick=54, channel=3, data=[40, 0]),
   midi.NoteOnEvent(tick=0, channel=3, data=[47, 0]),
   midi.NoteOnEvent(tick=0, channel=3, data=[47, 100]),
   midi.NoteOnEvent(tick=0, channel=3, data=[40, 100]),
   midi.NoteOnEvent(tick=54, channel=3, data=[40, 0]),
   midi.NoteOnEvent(tick=0, channel=3, data=[47, 0]),
   midi.NoteOnEvent(tick=0, channel=3, data=[40, 100]),
   midi.NoteOnEvent(tick=108, channel=3, data=[40, 0]),
   midi.NoteOnEvent(tick=0, channel=3, data=[52, 100]),
   midi.NoteOnEvent(tick=0, channel=3, data=[55, 100]),
   midi.NoteOnEvent(tick=108, channel=3, data=[55, 0]),
   midi.NoteOnEvent(tick=0, channel=3, data=[52, 0]),
   midi.NoteOnEvent(tick=0, channel=3, data=[52, 100]),
   midi.NoteOnEvent(tick=0, channel=3, data=[55, 100]),
   midi.NoteOnEvent(tick=108, channel=3, data=[55, 0]),
   midi.NoteOnEvent(tick=0, channel=3, data=[52, 0]),
   midi.NoteOnEvent(tick=0, channel=3, data=[54, 100]),
   midi.NoteOnEvent(tick=0, channel=3, data=[51, 100]),
   midi.NoteOnEvent(tick=108, channel=3, data=[51, 0]),
   midi.NoteOnEvent(tick=0, channel=3, data=[54, 0]),
   midi.NoteOnEvent(tick=0, channel=3, data=[52, 100]),
   midi.NoteOnEvent(tick=0, channel=3, data=[55, 100]),
   midi.NoteOnEvent(tick=108, channel=3, data=[55, 0]),
   midi.NoteOnEvent(tick=0, channel=3, data=[52, 0]),
   midi.NoteOnEvent(tick=0, channel=3, data=[47, 100]),
   midi.NoteOnEvent(tick=0, channel=3, data=[40, 100]),
   midi.NoteOnEvent(tick=54, channel=3, data=[40, 0]),
   midi.NoteOnEvent(tick=0, channel=3, data=[47, 0]),
   midi.NoteOnEvent(tick=0, channel=3, data=[47, 100]),
   midi.NoteOnEvent(tick=0, channel=3, data=[40, 100]),
   midi.NoteOnEvent(tick=54, channel=3, data=[40, 0]),
   midi.NoteOnEvent(tick=0, channel=3, data=[47, 0]),
   midi.NoteOnEvent(tick=0, channel=3, data=[40, 100]),
   midi.NoteOnEvent(tick=108, channel=3, data=[40, 0]),
   midi.NoteOnEvent(tick=0, channel=3, data=[52, 100]),
   midi.NoteOnEvent(tick=0, channel=3, data=[47, 100]),
   midi.NoteOnEvent(tick=0, channel=3, data=[40, 100]),
   midi.NoteOnEvent(tick=54, channel=3, data=[40, 0]),
   midi.NoteOnEvent(tick=0, channel=3, data=[47, 0]),
   midi.NoteOnEvent(tick=0, channel=3, data=[52, 0]),
   midi.NoteOnEvent(tick=0, channel=3, data=[52, 100]),
   midi.NoteOnEvent(tick=0, channel=3, data=[47, 100]),
   midi.NoteOnEvent(tick=0, channel=3, data=[40, 100]),
   midi.NoteOnEvent(tick=54, channel=3, data=[40, 0]),
   midi.NoteOnEvent(tick=0, channel=3, data=[47, 0]),
   midi.NoteOnEvent(tick=0, channel=3, data=[52, 0]),
   midi.NoteOnEvent(tick=0, channel=3, data=[40, 100]),
   midi.NoteOnEvent(tick=108, channel=3, data=[40, 0]),
   midi.NoteOnEvent(tick=0, channel=3, data=[46, 100]),
   midi.NoteOnEvent(tick=0, channel=3, data=[53, 100]),
   midi.NoteOnEvent(tick=0, channel=3, data=[58, 100]),
   midi.NoteOnEvent(tick=108, channel=3, data=[58, 0]),
   midi.NoteOnEvent(tick=0, channel=3, data=[53, 0]),
   midi.NoteOnEvent(tick=0, channel=3, data=[46, 0]),
   midi.NoteOnEvent(tick=0, channel=3, data=[46, 100]),
   midi.NoteOnEvent(tick=0, channel=3, data=[53, 100]),
   midi.NoteOnEvent(tick=0, channel=3, data=[58, 100]),
   midi.NoteOnEvent(tick=108, channel=3, data=[58, 0]),
   midi.NoteOnEvent(tick=0, channel=3, data=[53, 0]),
   midi.NoteOnEvent(tick=0, channel=3, data=[46, 0]),
   midi.NoteOnEvent(tick=0, channel=3, data=[45, 100]),
   midi.NoteOnEvent(tick=0, channel=3, data=[52, 100]),
   midi.NoteOnEvent(tick=0, channel=3, data=[57, 100]),
   midi.NoteOnEvent(tick=108, channel=3, data=[57, 0]),
   midi.NoteOnEvent(tick=0, channel=3, data=[52, 0]),
   midi.NoteOnEvent(tick=0, channel=3, data=[45, 0]),
   midi.NoteOnEvent(tick=0, channel=3, data=[40, 100]),
   midi.NoteOnEvent(tick=108, channel=3, data=[40, 0]),
   midi.NoteOnEvent(tick=0, channel=3, data=[42, 100]),
   midi.NoteOnEvent(tick=0, channel=3, data=[49, 100]),
   midi.NoteOnEvent(tick=0, channel=3, data=[54, 100]),
   midi.NoteOnEvent(tick=216, channel=3, data=[54, 0]),
   midi.NoteOnEvent(tick=0, channel=3, data=[49, 0]),
   midi.NoteOnEvent(tick=0, channel=3, data=[42, 0]),
   midi.NoteOnEvent(tick=0, channel=3, data=[43, 100]),
   midi.NoteOnEvent(tick=0, channel=3, data=[50, 100]),
   midi.NoteOnEvent(tick=0, channel=3, data=[55, 100]),
   midi.NoteOnEvent(tick=108, channel=3, data=[55, 0]),
   midi.NoteOnEvent(tick=0, channel=3, data=[50, 0]),
   midi.NoteOnEvent(tick=0, channel=3, data=[43, 0]),
   midi.NoteOnEvent(tick=0, channel=3, data=[40, 100]),
   midi.NoteOnEvent(tick=108, channel=3, data=[40, 0]),
   midi.NoteOnEvent(tick=0, channel=3, data=[55, 100]),
   midi.NoteOnEvent(tick=0, channel=3, data=[50, 100]),
   midi.NoteOnEvent(tick=0, channel=3, data=[43, 100]),
   midi.NoteOnEvent(tick=216, channel=3, data=[43, 0]),
   midi.NoteOnEvent(tick=0, channel=3, data=[50, 0]),
   midi.NoteOnEvent(tick=0, channel=3, data=[55, 0]),
   midi.NoteOnEvent(tick=0, channel=3, data=[44, 100]),
   midi.NoteOnEvent(tick=0, channel=3, data=[51, 100]),
   midi.NoteOnEvent(tick=0, channel=3, data=[56, 100]),
   midi.NoteOnEvent(tick=108, channel=3, data=[56, 0]),
   midi.NoteOnEvent(tick=0, channel=3, data=[51, 0]),
   midi.NoteOnEvent(tick=0, channel=3, data=[44, 0]),
   midi.NoteOnEvent(tick=0, channel=3, data=[52, 100]),
   midi.NoteOnEvent(tick=0, channel=3, data=[47, 100]),
   midi.NoteOnEvent(tick=0, channel=3, data=[40, 100]),
   midi.NoteOnEvent(tick=864, channel=3, data=[40, 0]),
   midi.NoteOnEvent(tick=0, channel=3, data=[47, 0]),
   midi.NoteOnEvent(tick=0, channel=3, data=[52, 0]),
   midi.NoteOnEvent(tick=0, channel=3, data=[55, 100]),
   midi.NoteOnEvent(tick=0, channel=3, data=[50, 100]),
   midi.NoteOnEvent(tick=0, channel=3, data=[43, 100]),
   midi.NoteOnEvent(tick=860, channel=3, data=[43, 0]),
   midi.NoteOnEvent(tick=0, channel=3, data=[50, 0]),
   midi.NoteOnEvent(tick=0, channel=3, data=[55, 0]),
   midi.NoteOnEvent(tick=4, channel=3, data=[57, 100]),
   midi.NoteOnEvent(tick=0, channel=3, data=[52, 100]),
   midi.NoteOnEvent(tick=0, channel=3, data=[45, 100]),
   midi.NoteOnEvent(tick=428, channel=3, data=[45, 0]),
   midi.NoteOnEvent(tick=0, channel=3, data=[52, 0]),
   midi.NoteOnEvent(tick=0, channel=3, data=[57, 0]),
   midi.NoteOnEvent(tick=4, channel=3, data=[53, 100]),
   midi.NoteOnEvent(tick=0, channel=3, data=[48, 100]),
   midi.NoteOnEvent(tick=0, channel=3, data=[41, 100]),
   midi.NoteOnEvent(tick=104, channel=3, data=[41, 0]),
   midi.NoteOnEvent(tick=0, channel=3, data=[48, 0]),
   midi.NoteOnEvent(tick=0, channel=3, data=[53, 0]),
   midi.NoteOnEvent(tick=4, channel=3, data=[53, 100]),
   midi.NoteOnEvent(tick=0, channel=3, data=[48, 100]),
   midi.NoteOnEvent(tick=0, channel=3, data=[41, 100]),
   midi.NoteOnEvent(tick=104, channel=3, data=[41, 0]),
   midi.NoteOnEvent(tick=0, channel=3, data=[48, 0]),
   midi.NoteOnEvent(tick=0, channel=3, data=[53, 0]),
   midi.NoteOnEvent(tick=4, channel=3, data=[42, 100]),
   midi.NoteOnEvent(tick=0, channel=3, data=[51, 100]),
   midi.NoteOnEvent(tick=0, channel=3, data=[47, 100]),
   midi.NoteOnEvent(tick=212, channel=3, data=[47, 0]),
   midi.NoteOnEvent(tick=0, channel=3, data=[51, 0]),
   midi.NoteOnEvent(tick=0, channel=3, data=[42, 0]),
   midi.NoteOnEvent(tick=4, channel=3, data=[40, 100]),
   midi.NoteOnEvent(tick=108, channel=3, data=[40, 0]),
   midi.NoteOnEvent(tick=0, channel=3, data=[47, 100]),
   midi.NoteOnEvent(tick=0, channel=3, data=[40, 100]),
   midi.NoteOnEvent(tick=54, channel=3, data=[40, 0]),
   midi.NoteOnEvent(tick=0, channel=3, data=[47, 0]),
   midi.NoteOnEvent(tick=0, channel=3, data=[47, 100]),
   midi.NoteOnEvent(tick=0, channel=3, data=[40, 100]),
   midi.NoteOnEvent(tick=54, channel=3, data=[40, 0]),
   midi.NoteOnEvent(tick=0, channel=3, data=[47, 0]),
   midi.NoteOnEvent(tick=0, channel=3, data=[40, 100]),
   midi.NoteOnEvent(tick=108, channel=3, data=[40, 0]),
   midi.NoteOnEvent(tick=0, channel=3, data=[52, 100]),
   midi.NoteOnEvent(tick=0, channel=3, data=[47, 100]),
   midi.NoteOnEvent(tick=0, channel=3, data=[40, 100]),
   midi.NoteOnEvent(tick=54, channel=3, data=[40, 0]),
   midi.NoteOnEvent(tick=0, channel=3, data=[47, 0]),
   midi.NoteOnEvent(tick=0, channel=3, data=[52, 0]),
   midi.NoteOnEvent(tick=0, channel=3, data=[47, 100]),
   midi.NoteOnEvent(tick=0, channel=3, data=[52, 100]),
   midi.NoteOnEvent(tick=0, channel=3, data=[40, 100]),
   midi.NoteOnEvent(tick=54, channel=3, data=[40, 0]),
   midi.NoteOnEvent(tick=0, channel=3, data=[52, 0]),
   midi.NoteOnEvent(tick=0, channel=3, data=[47, 0]),
   midi.NoteOnEvent(tick=0, channel=3, data=[40, 100]),
   midi.NoteOnEvent(tick=108, channel=3, data=[40, 0]),
   midi.NoteOnEvent(tick=0, channel=3, data=[46, 100]),
   midi.NoteOnEvent(tick=0, channel=3, data=[53, 100]),
   midi.NoteOnEvent(tick=0, channel=3, data=[58, 100]),
   midi.NoteOnEvent(tick=108, channel=3, data=[58, 0]),
   midi.NoteOnEvent(tick=0, channel=3, data=[53, 0]),
   midi.NoteOnEvent(tick=0, channel=3, data=[46, 0]),
   midi.NoteOnEvent(tick=0, channel=3, data=[46, 100]),
   midi.NoteOnEvent(tick=0, channel=3, data=[53, 100]),
   midi.NoteOnEvent(tick=0, channel=3, data=[58, 100]),
   midi.NoteOnEvent(tick=108, channel=3, data=[58, 0]),
   midi.NoteOnEvent(tick=0, channel=3, data=[53, 0]),
   midi.NoteOnEvent(tick=0, channel=3, data=[46, 0]),
   midi.NoteOnEvent(tick=0, channel=3, data=[45, 100]),
   midi.NoteOnEvent(tick=0, channel=3, data=[52, 100]),
   midi.NoteOnEvent(tick=0, channel=3, data=[57, 100]),
   midi.NoteOnEvent(tick=108, channel=3, data=[57, 0]),
   midi.NoteOnEvent(tick=0, channel=3, data=[52, 0]),
   midi.NoteOnEvent(tick=0, channel=3, data=[45, 0]),
   midi.NoteOnEvent(tick=0, channel=3, data=[40, 100]),
   midi.NoteOnEvent(tick=108, channel=3, data=[40, 0]),
   midi.NoteOnEvent(tick=0, channel=3, data=[47, 100]),
   midi.NoteOnEvent(tick=0, channel=3, data=[40, 100]),
   midi.NoteOnEvent(tick=54, channel=3, data=[40, 0]),
   midi.NoteOnEvent(tick=0, channel=3, data=[47, 0]),
   midi.NoteOnEvent(tick=0, channel=3, data=[47, 100]),
   midi.NoteOnEvent(tick=0, channel=3, data=[40, 100]),
   midi.NoteOnEvent(tick=54, channel=3, data=[40, 0]),
   midi.NoteOnEvent(tick=0, channel=3, data=[47, 0]),
   midi.NoteOnEvent(tick=0, channel=3, data=[40, 100]),
   midi.NoteOnEvent(tick=108, channel=3, data=[40, 0]),
   midi.NoteOnEvent(tick=0, channel=3, data=[47, 100]),
   midi.NoteOnEvent(tick=0, channel=3, data=[40, 100]),
   midi.NoteOnEvent(tick=54, channel=3, data=[40, 0]),
   midi.NoteOnEvent(tick=0, channel=3, data=[47, 0]),
   midi.NoteOnEvent(tick=0, channel=3, data=[47, 100]),
   midi.NoteOnEvent(tick=0, channel=3, data=[40, 100]),
   midi.NoteOnEvent(tick=54, channel=3, data=[40, 0]),
   midi.NoteOnEvent(tick=0, channel=3, data=[47, 0]),
   midi.NoteOnEvent(tick=0, channel=3, data=[40, 100]),
   midi.NoteOnEvent(tick=108, channel=3, data=[40, 0]),
   midi.NoteOnEvent(tick=0, channel=3, data=[52, 100]),
   midi.NoteOnEvent(tick=0, channel=3, data=[55, 100]),
   midi.NoteOnEvent(tick=108, channel=3, data=[55, 0]),
   midi.NoteOnEvent(tick=0, channel=3, data=[52, 0]),
   midi.NoteOnEvent(tick=0, channel=3, data=[52, 100]),
   midi.NoteOnEvent(tick=0, channel=3, data=[55, 100]),
   midi.NoteOnEvent(tick=108, channel=3, data=[55, 0]),
   midi.NoteOnEvent(tick=0, channel=3, data=[52, 0]),
   midi.NoteOnEvent(tick=0, channel=3, data=[54, 100]),
   midi.NoteOnEvent(tick=0, channel=3, data=[51, 100]),
   midi.NoteOnEvent(tick=108, channel=3, data=[51, 0]),
   midi.NoteOnEvent(tick=0, channel=3, data=[54, 0]),
   midi.NoteOnEvent(tick=0, channel=3, data=[52, 100]),
   midi.NoteOnEvent(tick=0, channel=3, data=[47, 100]),
   midi.NoteOnEvent(tick=0, channel=3, data=[40, 100]),
   midi.NoteOnEvent(tick=432, channel=3, data=[40, 0]),
   midi.NoteOnEvent(tick=0, channel=3, data=[47, 0]),
   midi.NoteOnEvent(tick=0, channel=3, data=[52, 0]),
   midi.NoteOnEvent(tick=0, channel=3, data=[59, 100]),
   midi.NoteOnEvent(tick=0, channel=3, data=[54, 100]),
   midi.NoteOnEvent(tick=0, channel=3, data=[47, 100]),
   midi.NoteOnEvent(tick=432, channel=3, data=[47, 0]),
   midi.NoteOnEvent(tick=0, channel=3, data=[54, 0]),
   midi.NoteOnEvent(tick=0, channel=3, data=[59, 0]),
   midi.NoteOnEvent(tick=0, channel=3, data=[43, 100]),
   midi.NoteOnEvent(tick=0, channel=3, data=[50, 100]),
   midi.NoteOnEvent(tick=0, channel=3, data=[55, 100]),
   midi.NoteOnEvent(tick=432, channel=3, data=[55, 0]),
   midi.NoteOnEvent(tick=0, channel=3, data=[50, 0]),
   midi.NoteOnEvent(tick=0, channel=3, data=[43, 0]),
   midi.NoteOnEvent(tick=0, channel=3, data=[55, 100]),
   midi.NoteOnEvent(tick=0, channel=3, data=[52, 100]),
   midi.NoteOnEvent(tick=0, channel=3, data=[40, 100]),
   midi.NoteOnEvent(tick=216, channel=3, data=[40, 0]),
   midi.NoteOnEvent(tick=0, channel=3, data=[52, 0]),
   midi.NoteOnEvent(tick=0, channel=3, data=[55, 0]),
   midi.NoteOnEvent(tick=0, channel=3, data=[50, 100]),
   midi.NoteOnEvent(tick=0, channel=3, data=[42, 100]),
   midi.NoteOnEvent(tick=0, channel=3, data=[47, 100]),
   midi.NoteOnEvent(tick=216, channel=3, data=[47, 0]),
   midi.NoteOnEvent(tick=0, channel=3, data=[42, 0]),
   midi.NoteOnEvent(tick=0, channel=3, data=[50, 0]),
   midi.NoteOnEvent(tick=0, channel=3, data=[40, 100]),
   midi.NoteOnEvent(tick=108, channel=3, data=[40, 0]),
   midi.NoteOnEvent(tick=0, channel=3, data=[47, 100]),
   midi.NoteOnEvent(tick=0, channel=3, data=[40, 100]),
   midi.NoteOnEvent(tick=54, channel=3, data=[40, 0]),
   midi.NoteOnEvent(tick=0, channel=3, data=[47, 0]),
   midi.NoteOnEvent(tick=0, channel=3, data=[47, 100]),
   midi.NoteOnEvent(tick=0, channel=3, data=[40, 100]),
   midi.NoteOnEvent(tick=54, channel=3, data=[40, 0]),
   midi.NoteOnEvent(tick=0, channel=3, data=[47, 0]),
   midi.NoteOnEvent(tick=0, channel=3, data=[40, 100]),
   midi.NoteOnEvent(tick=108, channel=3, data=[40, 0]),
   midi.NoteOnEvent(tick=0, channel=3, data=[47, 100]),
   midi.NoteOnEvent(tick=0, channel=3, data=[40, 100]),
   midi.NoteOnEvent(tick=54, channel=3, data=[40, 0]),
   midi.NoteOnEvent(tick=0, channel=3, data=[47, 0]),
   midi.NoteOnEvent(tick=0, channel=3, data=[47, 100]),
   midi.NoteOnEvent(tick=0, channel=3, data=[40, 100]),
   midi.NoteOnEvent(tick=54, channel=3, data=[40, 0]),
   midi.NoteOnEvent(tick=0, channel=3, data=[47, 0]),
   midi.NoteOnEvent(tick=0, channel=3, data=[40, 100]),
   midi.NoteOnEvent(tick=108, channel=3, data=[40, 0]),
   midi.NoteOnEvent(tick=0, channel=3, data=[46, 100]),
   midi.NoteOnEvent(tick=0, channel=3, data=[53, 100]),
   midi.NoteOnEvent(tick=0, channel=3, data=[58, 100]),
   midi.NoteOnEvent(tick=108, channel=3, data=[58, 0]),
   midi.NoteOnEvent(tick=0, channel=3, data=[53, 0]),
   midi.NoteOnEvent(tick=0, channel=3, data=[46, 0]),
   midi.NoteOnEvent(tick=0, channel=3, data=[46, 100]),
   midi.NoteOnEvent(tick=0, channel=3, data=[53, 100]),
   midi.NoteOnEvent(tick=0, channel=3, data=[58, 100]),
   midi.NoteOnEvent(tick=108, channel=3, data=[58, 0]),
   midi.NoteOnEvent(tick=0, channel=3, data=[53, 0]),
   midi.NoteOnEvent(tick=0, channel=3, data=[46, 0]),
   midi.NoteOnEvent(tick=0, channel=3, data=[45, 100]),
   midi.NoteOnEvent(tick=0, channel=3, data=[52, 100]),
   midi.NoteOnEvent(tick=0, channel=3, data=[57, 100]),
   midi.NoteOnEvent(tick=108, channel=3, data=[57, 0]),
   midi.NoteOnEvent(tick=0, channel=3, data=[52, 0]),
   midi.NoteOnEvent(tick=0, channel=3, data=[45, 0]),
   midi.NoteOnEvent(tick=0, channel=3, data=[40, 100]),
   midi.NoteOnEvent(tick=108, channel=3, data=[40, 0]),
   midi.NoteOnEvent(tick=0, channel=3, data=[47, 100]),
   midi.NoteOnEvent(tick=0, channel=3, data=[40, 100]),
   midi.NoteOnEvent(tick=54, channel=3, data=[40, 0]),
   midi.NoteOnEvent(tick=0, channel=3, data=[47, 0]),
   midi.NoteOnEvent(tick=0, channel=3, data=[47, 100]),
   midi.NoteOnEvent(tick=0, channel=3, data=[40, 100]),
   midi.NoteOnEvent(tick=54, channel=3, data=[40, 0]),
   midi.NoteOnEvent(tick=0, channel=3, data=[47, 0]),
   midi.NoteOnEvent(tick=0, channel=3, data=[40, 100]),
   midi.NoteOnEvent(tick=108, channel=3, data=[40, 0]),
   midi.NoteOnEvent(tick=0, channel=3, data=[47, 100]),
   midi.NoteOnEvent(tick=0, channel=3, data=[40, 100]),
   midi.NoteOnEvent(tick=54, channel=3, data=[40, 0]),
   midi.NoteOnEvent(tick=0, channel=3, data=[47, 0]),
   midi.NoteOnEvent(tick=0, channel=3, data=[47, 100]),
   midi.NoteOnEvent(tick=0, channel=3, data=[40, 100]),
   midi.NoteOnEvent(tick=54, channel=3, data=[40, 0]),
   midi.NoteOnEvent(tick=0, channel=3, data=[47, 0]),
   midi.NoteOnEvent(tick=0, channel=3, data=[40, 100]),
   midi.NoteOnEvent(tick=108, channel=3, data=[40, 0]),
   midi.NoteOnEvent(tick=0, channel=3, data=[52, 100]),
   midi.NoteOnEvent(tick=0, channel=3, data=[55, 100]),
   midi.NoteOnEvent(tick=108, channel=3, data=[55, 0]),
   midi.NoteOnEvent(tick=0, channel=3, data=[52, 0]),
   midi.NoteOnEvent(tick=0, channel=3, data=[52, 100]),
   midi.NoteOnEvent(tick=0, channel=3, data=[55, 100]),
   midi.NoteOnEvent(tick=108, channel=3, data=[55, 0]),
   midi.NoteOnEvent(tick=0, channel=3, data=[52, 0]),
   midi.NoteOnEvent(tick=0, channel=3, data=[54, 100]),
   midi.NoteOnEvent(tick=0, channel=3, data=[51, 100]),
   midi.NoteOnEvent(tick=108, channel=3, data=[51, 0]),
   midi.NoteOnEvent(tick=0, channel=3, data=[54, 0]),
   midi.NoteOnEvent(tick=0, channel=3, data=[40, 100]),
   midi.NoteOnEvent(tick=108, channel=3, data=[40, 0]),
   midi.NoteOnEvent(tick=0, channel=3, data=[47, 100]),
   midi.NoteOnEvent(tick=0, channel=3, data=[40, 100]),
   midi.NoteOnEvent(tick=54, channel=3, data=[40, 0]),
   midi.NoteOnEvent(tick=0, channel=3, data=[47, 0]),
   midi.NoteOnEvent(tick=0, channel=3, data=[47, 100]),
   midi.NoteOnEvent(tick=0, channel=3, data=[40, 100]),
   midi.NoteOnEvent(tick=54, channel=3, data=[40, 0]),
   midi.NoteOnEvent(tick=0, channel=3, data=[47, 0]),
   midi.NoteOnEvent(tick=0, channel=3, data=[40, 100]),
   midi.NoteOnEvent(tick=108, channel=3, data=[40, 0]),
   midi.NoteOnEvent(tick=0, channel=3, data=[47, 100]),
   midi.NoteOnEvent(tick=0, channel=3, data=[40, 100]),
   midi.NoteOnEvent(tick=54, channel=3, data=[40, 0]),
   midi.NoteOnEvent(tick=0, channel=3, data=[47, 0]),
   midi.NoteOnEvent(tick=0, channel=3, data=[47, 100]),
   midi.NoteOnEvent(tick=0, channel=3, data=[40, 100]),
   midi.NoteOnEvent(tick=54, channel=3, data=[40, 0]),
   midi.NoteOnEvent(tick=0, channel=3, data=[47, 0]),
   midi.NoteOnEvent(tick=0, channel=3, data=[40, 100]),
   midi.NoteOnEvent(tick=108, channel=3, data=[40, 0]),
   midi.NoteOnEvent(tick=0, channel=3, data=[46, 100]),
   midi.NoteOnEvent(tick=0, channel=3, data=[53, 100]),
   midi.NoteOnEvent(tick=0, channel=3, data=[58, 100]),
   midi.NoteOnEvent(tick=108, channel=3, data=[58, 0]),
   midi.NoteOnEvent(tick=0, channel=3, data=[53, 0]),
   midi.NoteOnEvent(tick=0, channel=3, data=[46, 0]),
   midi.NoteOnEvent(tick=0, channel=3, data=[46, 100]),
   midi.NoteOnEvent(tick=0, channel=3, data=[53, 100]),
   midi.NoteOnEvent(tick=0, channel=3, data=[58, 100]),
   midi.NoteOnEvent(tick=108, channel=3, data=[58, 0]),
   midi.NoteOnEvent(tick=0, channel=3, data=[53, 0]),
   midi.NoteOnEvent(tick=0, channel=3, data=[46, 0]),
   midi.NoteOnEvent(tick=0, channel=3, data=[45, 100]),
   midi.NoteOnEvent(tick=0, channel=3, data=[52, 100]),
   midi.NoteOnEvent(tick=0, channel=3, data=[57, 100]),
   midi.NoteOnEvent(tick=108, channel=3, data=[57, 0]),
   midi.NoteOnEvent(tick=0, channel=3, data=[52, 0]),
   midi.NoteOnEvent(tick=0, channel=3, data=[45, 0]),
   midi.NoteOnEvent(tick=0, channel=3, data=[46, 100]),
   midi.NoteOnEvent(tick=0, channel=3, data=[53, 100]),
   midi.NoteOnEvent(tick=0, channel=3, data=[58, 100]),
   midi.NoteOnEvent(tick=108, channel=3, data=[58, 0]),
   midi.NoteOnEvent(tick=0, channel=3, data=[53, 0]),
   midi.NoteOnEvent(tick=0, channel=3, data=[46, 0]),
   midi.NoteOnEvent(tick=0, channel=3, data=[48, 100]),
   midi.NoteOnEvent(tick=0, channel=3, data=[41, 100]),
   midi.NoteOnEvent(tick=0, channel=3, data=[53, 100]),
   midi.NoteOnEvent(tick=108, channel=3, data=[53, 0]),
   midi.NoteOnEvent(tick=0, channel=3, data=[41, 0]),
   midi.NoteOnEvent(tick=0, channel=3, data=[48, 0]),
   midi.NoteOnEvent(tick=0, channel=3, data=[40, 100]),
   midi.NoteOnEvent(tick=108, channel=3, data=[40, 0]),
   midi.NoteOnEvent(tick=0, channel=3, data=[47, 100]),
   midi.NoteOnEvent(tick=0, channel=3, data=[40, 100]),
   midi.NoteOnEvent(tick=54, channel=3, data=[40, 0]),
   midi.NoteOnEvent(tick=0, channel=3, data=[47, 0]),
   midi.NoteOnEvent(tick=0, channel=3, data=[47, 100]),
   midi.NoteOnEvent(tick=0, channel=3, data=[40, 100]),
   midi.NoteOnEvent(tick=54, channel=3, data=[40, 0]),
   midi.NoteOnEvent(tick=0, channel=3, data=[47, 0]),
   midi.NoteOnEvent(tick=0, channel=3, data=[40, 100]),
   midi.NoteOnEvent(tick=108, channel=3, data=[40, 0]),
   midi.NoteOnEvent(tick=0, channel=3, data=[47, 100]),
   midi.NoteOnEvent(tick=0, channel=3, data=[40, 100]),
   midi.NoteOnEvent(tick=54, channel=3, data=[40, 0]),
   midi.NoteOnEvent(tick=0, channel=3, data=[47, 0]),
   midi.NoteOnEvent(tick=0, channel=3, data=[47, 100]),
   midi.NoteOnEvent(tick=0, channel=3, data=[40, 100]),
   midi.NoteOnEvent(tick=54, channel=3, data=[40, 0]),
   midi.NoteOnEvent(tick=0, channel=3, data=[47, 0]),
   midi.NoteOnEvent(tick=0, channel=3, data=[40, 100]),
   midi.NoteOnEvent(tick=108, channel=3, data=[40, 0]),
   midi.NoteOnEvent(tick=0, channel=3, data=[46, 100]),
   midi.NoteOnEvent(tick=0, channel=3, data=[53, 100]),
   midi.NoteOnEvent(tick=0, channel=3, data=[58, 100]),
   midi.NoteOnEvent(tick=108, channel=3, data=[58, 0]),
   midi.NoteOnEvent(tick=0, channel=3, data=[53, 0]),
   midi.NoteOnEvent(tick=0, channel=3, data=[46, 0]),
   midi.NoteOnEvent(tick=0, channel=3, data=[46, 100]),
   midi.NoteOnEvent(tick=0, channel=3, data=[53, 100]),
   midi.NoteOnEvent(tick=0, channel=3, data=[58, 100]),
   midi.NoteOnEvent(tick=108, channel=3, data=[58, 0]),
   midi.NoteOnEvent(tick=0, channel=3, data=[53, 0]),
   midi.NoteOnEvent(tick=0, channel=3, data=[46, 0]),
   midi.NoteOnEvent(tick=0, channel=3, data=[45, 100]),
   midi.NoteOnEvent(tick=0, channel=3, data=[52, 100]),
   midi.NoteOnEvent(tick=0, channel=3, data=[57, 100]),
   midi.NoteOnEvent(tick=108, channel=3, data=[57, 0]),
   midi.NoteOnEvent(tick=0, channel=3, data=[52, 0]),
   midi.NoteOnEvent(tick=0, channel=3, data=[45, 0]),
   midi.NoteOnEvent(tick=0, channel=3, data=[40, 100]),
   midi.NoteOnEvent(tick=108, channel=3, data=[40, 0]),
   midi.NoteOnEvent(tick=0, channel=3, data=[47, 100]),
   midi.NoteOnEvent(tick=0, channel=3, data=[40, 100]),
   midi.NoteOnEvent(tick=54, channel=3, data=[40, 0]),
   midi.NoteOnEvent(tick=0, channel=3, data=[47, 0]),
   midi.NoteOnEvent(tick=0, channel=3, data=[47, 100]),
   midi.NoteOnEvent(tick=0, channel=3, data=[40, 100]),
   midi.NoteOnEvent(tick=54, channel=3, data=[40, 0]),
   midi.NoteOnEvent(tick=0, channel=3, data=[47, 0]),
   midi.NoteOnEvent(tick=0, channel=3, data=[40, 100]),
   midi.NoteOnEvent(tick=108, channel=3, data=[40, 0]),
   midi.NoteOnEvent(tick=0, channel=3, data=[47, 100]),
   midi.NoteOnEvent(tick=0, channel=3, data=[40, 100]),
   midi.NoteOnEvent(tick=54, channel=3, data=[40, 0]),
   midi.NoteOnEvent(tick=0, channel=3, data=[47, 0]),
   midi.NoteOnEvent(tick=0, channel=3, data=[47, 100]),
   midi.NoteOnEvent(tick=0, channel=3, data=[40, 100]),
   midi.NoteOnEvent(tick=54, channel=3, data=[40, 0]),
   midi.NoteOnEvent(tick=0, channel=3, data=[47, 0]),
   midi.NoteOnEvent(tick=0, channel=3, data=[40, 100]),
   midi.NoteOnEvent(tick=108, channel=3, data=[40, 0]),
   midi.NoteOnEvent(tick=0, channel=3, data=[52, 100]),
   midi.NoteOnEvent(tick=0, channel=3, data=[55, 100]),
   midi.NoteOnEvent(tick=108, channel=3, data=[55, 0]),
   midi.NoteOnEvent(tick=0, channel=3, data=[52, 0]),
   midi.NoteOnEvent(tick=0, channel=3, data=[52, 100]),
   midi.NoteOnEvent(tick=0, channel=3, data=[55, 100]),
   midi.NoteOnEvent(tick=108, channel=3, data=[55, 0]),
   midi.NoteOnEvent(tick=0, channel=3, data=[52, 0]),
   midi.NoteOnEvent(tick=0, channel=3, data=[54, 100]),
   midi.NoteOnEvent(tick=0, channel=3, data=[51, 100]),
   midi.NoteOnEvent(tick=108, channel=3, data=[51, 0]),
   midi.NoteOnEvent(tick=0, channel=3, data=[54, 0]),
   midi.NoteOnEvent(tick=0, channel=3, data=[52, 100]),
   midi.NoteOnEvent(tick=0, channel=3, data=[55, 100]),
   midi.NoteOnEvent(tick=108, channel=3, data=[55, 0]),
   midi.NoteOnEvent(tick=0, channel=3, data=[52, 0]),
   midi.NoteOnEvent(tick=0, channel=3, data=[47, 100]),
   midi.NoteOnEvent(tick=0, channel=3, data=[40, 100]),
   midi.NoteOnEvent(tick=54, channel=3, data=[40, 0]),
   midi.NoteOnEvent(tick=0, channel=3, data=[47, 0]),
   midi.NoteOnEvent(tick=0, channel=3, data=[47, 100]),
   midi.NoteOnEvent(tick=0, channel=3, data=[40, 100]),
   midi.NoteOnEvent(tick=54, channel=3, data=[40, 0]),
   midi.NoteOnEvent(tick=0, channel=3, data=[47, 0]),
   midi.NoteOnEvent(tick=0, channel=3, data=[40, 100]),
   midi.NoteOnEvent(tick=108, channel=3, data=[40, 0]),
   midi.NoteOnEvent(tick=0, channel=3, data=[47, 100]),
   midi.NoteOnEvent(tick=0, channel=3, data=[40, 100]),
   midi.NoteOnEvent(tick=54, channel=3, data=[40, 0]),
   midi.NoteOnEvent(tick=0, channel=3, data=[47, 0]),
   midi.NoteOnEvent(tick=0, channel=3, data=[47, 100]),
   midi.NoteOnEvent(tick=0, channel=3, data=[40, 100]),
   midi.NoteOnEvent(tick=54, channel=3, data=[40, 0]),
   midi.NoteOnEvent(tick=0, channel=3, data=[47, 0]),
   midi.NoteOnEvent(tick=0, channel=3, data=[40, 100]),
   midi.NoteOnEvent(tick=108, channel=3, data=[40, 0]),
   midi.NoteOnEvent(tick=0, channel=3, data=[46, 100]),
   midi.NoteOnEvent(tick=0, channel=3, data=[53, 100]),
   midi.NoteOnEvent(tick=0, channel=3, data=[58, 100]),
   midi.NoteOnEvent(tick=108, channel=3, data=[58, 0]),
   midi.NoteOnEvent(tick=0, channel=3, data=[53, 0]),
   midi.NoteOnEvent(tick=0, channel=3, data=[46, 0]),
   midi.NoteOnEvent(tick=0, channel=3, data=[46, 100]),
   midi.NoteOnEvent(tick=0, channel=3, data=[53, 100]),
   midi.NoteOnEvent(tick=0, channel=3, data=[58, 100]),
   midi.NoteOnEvent(tick=108, channel=3, data=[58, 0]),
   midi.NoteOnEvent(tick=0, channel=3, data=[53, 0]),
   midi.NoteOnEvent(tick=0, channel=3, data=[46, 0]),
   midi.NoteOnEvent(tick=0, channel=3, data=[45, 100]),
   midi.NoteOnEvent(tick=0, channel=3, data=[52, 100]),
   midi.NoteOnEvent(tick=0, channel=3, data=[57, 100]),
   midi.NoteOnEvent(tick=108, channel=3, data=[57, 0]),
   midi.NoteOnEvent(tick=0, channel=3, data=[52, 0]),
   midi.NoteOnEvent(tick=0, channel=3, data=[45, 0]),
   midi.NoteOnEvent(tick=0, channel=3, data=[58, 100]),
   midi.NoteOnEvent(tick=0, channel=3, data=[53, 100]),
   midi.NoteOnEvent(tick=0, channel=3, data=[46, 100]),
   midi.NoteOnEvent(tick=216, channel=3, data=[46, 0]),
   midi.NoteOnEvent(tick=0, channel=3, data=[53, 0]),
   midi.NoteOnEvent(tick=0, channel=3, data=[58, 0]),
   midi.NoteOnEvent(tick=0, channel=3, data=[41, 100]),
   midi.NoteOnEvent(tick=0, channel=3, data=[53, 100]),
   midi.NoteOnEvent(tick=0, channel=3, data=[48, 100]),
   midi.NoteOnEvent(tick=216, channel=3, data=[48, 0]),
   midi.NoteOnEvent(tick=0, channel=3, data=[53, 0]),
   midi.NoteOnEvent(tick=0, channel=3, data=[41, 0]),
   midi.NoteOnEvent(tick=0, channel=3, data=[40, 100]),
   midi.NoteOnEvent(tick=108, channel=3, data=[40, 0]),
   midi.NoteOnEvent(tick=0, channel=3, data=[47, 100]),
   midi.NoteOnEvent(tick=0, channel=3, data=[40, 100]),
   midi.NoteOnEvent(tick=54, channel=3, data=[40, 0]),
   midi.NoteOnEvent(tick=0, channel=3, data=[47, 0]),
   midi.NoteOnEvent(tick=0, channel=3, data=[47, 100]),
   midi.NoteOnEvent(tick=0, channel=3, data=[40, 100]),
   midi.NoteOnEvent(tick=54, channel=3, data=[40, 0]),
   midi.NoteOnEvent(tick=0, channel=3, data=[47, 0]),
   midi.NoteOnEvent(tick=0, channel=3, data=[40, 100]),
   midi.NoteOnEvent(tick=108, channel=3, data=[40, 0]),
   midi.NoteOnEvent(tick=0, channel=3, data=[47, 100]),
   midi.NoteOnEvent(tick=0, channel=3, data=[40, 100]),
   midi.NoteOnEvent(tick=54, channel=3, data=[40, 0]),
   midi.NoteOnEvent(tick=0, channel=3, data=[47, 0]),
   midi.NoteOnEvent(tick=0, channel=3, data=[47, 100]),
   midi.NoteOnEvent(tick=0, channel=3, data=[40, 100]),
   midi.NoteOnEvent(tick=54, channel=3, data=[40, 0]),
   midi.NoteOnEvent(tick=0, channel=3, data=[47, 0]),
   midi.NoteOnEvent(tick=0, channel=3, data=[40, 100]),
   midi.NoteOnEvent(tick=108, channel=3, data=[40, 0]),
   midi.NoteOnEvent(tick=0, channel=3, data=[46, 100]),
   midi.NoteOnEvent(tick=0, channel=3, data=[53, 100]),
   midi.NoteOnEvent(tick=0, channel=3, data=[58, 100]),
   midi.NoteOnEvent(tick=108, channel=3, data=[58, 0]),
   midi.NoteOnEvent(tick=0, channel=3, data=[53, 0]),
   midi.NoteOnEvent(tick=0, channel=3, data=[46, 0]),
   midi.NoteOnEvent(tick=0, channel=3, data=[46, 100]),
   midi.NoteOnEvent(tick=0, channel=3, data=[53, 100]),
   midi.NoteOnEvent(tick=0, channel=3, data=[58, 100]),
   midi.NoteOnEvent(tick=108, channel=3, data=[58, 0]),
   midi.NoteOnEvent(tick=0, channel=3, data=[53, 0]),
   midi.NoteOnEvent(tick=0, channel=3, data=[46, 0]),
   midi.NoteOnEvent(tick=0, channel=3, data=[45, 100]),
   midi.NoteOnEvent(tick=0, channel=3, data=[52, 100]),
   midi.NoteOnEvent(tick=0, channel=3, data=[57, 100]),
   midi.NoteOnEvent(tick=108, channel=3, data=[57, 0]),
   midi.NoteOnEvent(tick=0, channel=3, data=[52, 0]),
   midi.NoteOnEvent(tick=0, channel=3, data=[45, 0]),
   midi.NoteOnEvent(tick=0, channel=3, data=[40, 100]),
   midi.NoteOnEvent(tick=108, channel=3, data=[40, 0]),
   midi.NoteOnEvent(tick=0, channel=3, data=[47, 100]),
   midi.NoteOnEvent(tick=0, channel=3, data=[40, 100]),
   midi.NoteOnEvent(tick=54, channel=3, data=[40, 0]),
   midi.NoteOnEvent(tick=0, channel=3, data=[47, 0]),
   midi.NoteOnEvent(tick=0, channel=3, data=[47, 100]),
   midi.NoteOnEvent(tick=0, channel=3, data=[40, 100]),
   midi.NoteOnEvent(tick=54, channel=3, data=[40, 0]),
   midi.NoteOnEvent(tick=0, channel=3, data=[47, 0]),
   midi.NoteOnEvent(tick=0, channel=3, data=[40, 100]),
   midi.NoteOnEvent(tick=108, channel=3, data=[40, 0]),
   midi.NoteOnEvent(tick=0, channel=3, data=[47, 100]),
   midi.NoteOnEvent(tick=0, channel=3, data=[40, 100]),
   midi.NoteOnEvent(tick=54, channel=3, data=[40, 0]),
   midi.NoteOnEvent(tick=0, channel=3, data=[47, 0]),
   midi.NoteOnEvent(tick=0, channel=3, data=[47, 100]),
   midi.NoteOnEvent(tick=0, channel=3, data=[40, 100]),
   midi.NoteOnEvent(tick=54, channel=3, data=[40, 0]),
   midi.NoteOnEvent(tick=0, channel=3, data=[47, 0]),
   midi.NoteOnEvent(tick=0, channel=3, data=[40, 100]),
   midi.NoteOnEvent(tick=108, channel=3, data=[40, 0]),
   midi.NoteOnEvent(tick=0, channel=3, data=[52, 100]),
   midi.NoteOnEvent(tick=0, channel=3, data=[55, 100]),
   midi.NoteOnEvent(tick=108, channel=3, data=[55, 0]),
   midi.NoteOnEvent(tick=0, channel=3, data=[52, 0]),
   midi.NoteOnEvent(tick=0, channel=3, data=[52, 100]),
   midi.NoteOnEvent(tick=0, channel=3, data=[55, 100]),
   midi.NoteOnEvent(tick=108, channel=3, data=[55, 0]),
   midi.NoteOnEvent(tick=0, channel=3, data=[52, 0]),
   midi.NoteOnEvent(tick=0, channel=3, data=[54, 100]),
   midi.NoteOnEvent(tick=0, channel=3, data=[51, 100]),
   midi.NoteOnEvent(tick=108, channel=3, data=[51, 0]),
   midi.NoteOnEvent(tick=0, channel=3, data=[54, 0]),
   midi.NoteOnEvent(tick=0, channel=3, data=[40, 100]),
   midi.NoteOnEvent(tick=108, channel=3, data=[40, 0]),
   midi.NoteOnEvent(tick=0, channel=3, data=[47, 100]),
   midi.NoteOnEvent(tick=0, channel=3, data=[40, 100]),
   midi.NoteOnEvent(tick=54, channel=3, data=[40, 0]),
   midi.NoteOnEvent(tick=0, channel=3, data=[47, 0]),
   midi.NoteOnEvent(tick=0, channel=3, data=[47, 100]),
   midi.NoteOnEvent(tick=0, channel=3, data=[40, 100]),
   midi.NoteOnEvent(tick=54, channel=3, data=[40, 0]),
   midi.NoteOnEvent(tick=0, channel=3, data=[47, 0]),
   midi.NoteOnEvent(tick=0, channel=3, data=[40, 100]),
   midi.NoteOnEvent(tick=108, channel=3, data=[40, 0]),
   midi.NoteOnEvent(tick=0, channel=3, data=[47, 100]),
   midi.NoteOnEvent(tick=0, channel=3, data=[40, 100]),
   midi.NoteOnEvent(tick=54, channel=3, data=[40, 0]),
   midi.NoteOnEvent(tick=0, channel=3, data=[47, 0]),
   midi.NoteOnEvent(tick=0, channel=3, data=[47, 100]),
   midi.NoteOnEvent(tick=0, channel=3, data=[40, 100]),
   midi.NoteOnEvent(tick=54, channel=3, data=[40, 0]),
   midi.NoteOnEvent(tick=0, channel=3, data=[47, 0]),
   midi.NoteOnEvent(tick=0, channel=3, data=[40, 100]),
   midi.NoteOnEvent(tick=108, channel=3, data=[40, 0]),
   midi.NoteOnEvent(tick=0, channel=3, data=[46, 100]),
   midi.NoteOnEvent(tick=0, channel=3, data=[53, 100]),
   midi.NoteOnEvent(tick=0, channel=3, data=[58, 100]),
   midi.NoteOnEvent(tick=108, channel=3, data=[58, 0]),
   midi.NoteOnEvent(tick=0, channel=3, data=[53, 0]),
   midi.NoteOnEvent(tick=0, channel=3, data=[46, 0]),
   midi.NoteOnEvent(tick=0, channel=3, data=[46, 100]),
   midi.NoteOnEvent(tick=0, channel=3, data=[53, 100]),
   midi.NoteOnEvent(tick=0, channel=3, data=[58, 100]),
   midi.NoteOnEvent(tick=108, channel=3, data=[58, 0]),
   midi.NoteOnEvent(tick=0, channel=3, data=[53, 0]),
   midi.NoteOnEvent(tick=0, channel=3, data=[46, 0]),
   midi.NoteOnEvent(tick=0, channel=3, data=[45, 100]),
   midi.NoteOnEvent(tick=0, channel=3, data=[52, 100]),
   midi.NoteOnEvent(tick=0, channel=3, data=[57, 100]),
   midi.NoteOnEvent(tick=108, channel=3, data=[57, 0]),
   midi.NoteOnEvent(tick=0, channel=3, data=[52, 0]),
   midi.NoteOnEvent(tick=0, channel=3, data=[45, 0]),
   midi.NoteOnEvent(tick=0, channel=3, data=[46, 100]),
   midi.NoteOnEvent(tick=0, channel=3, data=[53, 100]),
   midi.NoteOnEvent(tick=0, channel=3, data=[58, 100]),
   midi.NoteOnEvent(tick=108, channel=3, data=[58, 0]),
   midi.NoteOnEvent(tick=0, channel=3, data=[53, 0]),
   midi.NoteOnEvent(tick=0, channel=3, data=[46, 0]),
   midi.NoteOnEvent(tick=0, channel=3, data=[48, 100]),
   midi.NoteOnEvent(tick=0, channel=3, data=[41, 100]),
   midi.NoteOnEvent(tick=0, channel=3, data=[53, 100]),
   midi.NoteOnEvent(tick=108, channel=3, data=[53, 0]),
   midi.NoteOnEvent(tick=0, channel=3, data=[41, 0]),
   midi.NoteOnEvent(tick=0, channel=3, data=[48, 0]),
   midi.NoteOnEvent(tick=0, channel=3, data=[40, 100]),
   midi.NoteOnEvent(tick=108, channel=3, data=[40, 0]),
   midi.NoteOnEvent(tick=0, channel=3, data=[47, 100]),
   midi.NoteOnEvent(tick=0, channel=3, data=[40, 100]),
   midi.NoteOnEvent(tick=54, channel=3, data=[40, 0]),
   midi.NoteOnEvent(tick=0, channel=3, data=[47, 0]),
   midi.NoteOnEvent(tick=0, channel=3, data=[47, 100]),
   midi.NoteOnEvent(tick=0, channel=3, data=[40, 100]),
   midi.NoteOnEvent(tick=54, channel=3, data=[40, 0]),
   midi.NoteOnEvent(tick=0, channel=3, data=[47, 0]),
   midi.NoteOnEvent(tick=0, channel=3, data=[40, 100]),
   midi.NoteOnEvent(tick=108, channel=3, data=[40, 0]),
   midi.NoteOnEvent(tick=0, channel=3, data=[47, 100]),
   midi.NoteOnEvent(tick=0, channel=3, data=[40, 100]),
   midi.NoteOnEvent(tick=54, channel=3, data=[40, 0]),
   midi.NoteOnEvent(tick=0, channel=3, data=[47, 0]),
   midi.NoteOnEvent(tick=0, channel=3, data=[47, 100]),
   midi.NoteOnEvent(tick=0, channel=3, data=[40, 100]),
   midi.NoteOnEvent(tick=54, channel=3, data=[40, 0]),
   midi.NoteOnEvent(tick=0, channel=3, data=[47, 0]),
   midi.NoteOnEvent(tick=0, channel=3, data=[40, 100]),
   midi.NoteOnEvent(tick=108, channel=3, data=[40, 0]),
   midi.NoteOnEvent(tick=0, channel=3, data=[46, 100]),
   midi.NoteOnEvent(tick=0, channel=3, data=[53, 100]),
   midi.NoteOnEvent(tick=0, channel=3, data=[58, 100]),
   midi.NoteOnEvent(tick=108, channel=3, data=[58, 0]),
   midi.NoteOnEvent(tick=0, channel=3, data=[53, 0]),
   midi.NoteOnEvent(tick=0, channel=3, data=[46, 0]),
   midi.NoteOnEvent(tick=0, channel=3, data=[46, 100]),
   midi.NoteOnEvent(tick=0, channel=3, data=[53, 100]),
   midi.NoteOnEvent(tick=0, channel=3, data=[58, 100]),
   midi.NoteOnEvent(tick=108, channel=3, data=[58, 0]),
   midi.NoteOnEvent(tick=0, channel=3, data=[53, 0]),
   midi.NoteOnEvent(tick=0, channel=3, data=[46, 0]),
   midi.NoteOnEvent(tick=0, channel=3, data=[45, 100]),
   midi.NoteOnEvent(tick=0, channel=3, data=[52, 100]),
   midi.NoteOnEvent(tick=0, channel=3, data=[57, 100]),
   midi.NoteOnEvent(tick=108, channel=3, data=[57, 0]),
   midi.NoteOnEvent(tick=0, channel=3, data=[52, 0]),
   midi.NoteOnEvent(tick=0, channel=3, data=[45, 0]),
   midi.NoteOnEvent(tick=0, channel=3, data=[40, 100]),
   midi.NoteOnEvent(tick=108, channel=3, data=[40, 0]),
   midi.NoteOnEvent(tick=0, channel=3, data=[47, 100]),
   midi.NoteOnEvent(tick=0, channel=3, data=[40, 100]),
   midi.NoteOnEvent(tick=54, channel=3, data=[40, 0]),
   midi.NoteOnEvent(tick=0, channel=3, data=[47, 0]),
   midi.NoteOnEvent(tick=0, channel=3, data=[47, 100]),
   midi.NoteOnEvent(tick=0, channel=3, data=[40, 100]),
   midi.NoteOnEvent(tick=54, channel=3, data=[40, 0]),
   midi.NoteOnEvent(tick=0, channel=3, data=[47, 0]),
   midi.NoteOnEvent(tick=0, channel=3, data=[40, 100]),
   midi.NoteOnEvent(tick=108, channel=3, data=[40, 0]),
   midi.NoteOnEvent(tick=0, channel=3, data=[47, 100]),
   midi.NoteOnEvent(tick=0, channel=3, data=[40, 100]),
   midi.NoteOnEvent(tick=54, channel=3, data=[40, 0]),
   midi.NoteOnEvent(tick=0, channel=3, data=[47, 0]),
   midi.NoteOnEvent(tick=0, channel=3, data=[47, 100]),
   midi.NoteOnEvent(tick=0, channel=3, data=[40, 100]),
   midi.NoteOnEvent(tick=54, channel=3, data=[40, 0]),
   midi.NoteOnEvent(tick=0, channel=3, data=[47, 0]),
   midi.NoteOnEvent(tick=0, channel=3, data=[40, 100]),
   midi.NoteOnEvent(tick=108, channel=3, data=[40, 0]),
   midi.NoteOnEvent(tick=0, channel=3, data=[52, 100]),
   midi.NoteOnEvent(tick=0, channel=3, data=[55, 100]),
   midi.NoteOnEvent(tick=108, channel=3, data=[55, 0]),
   midi.NoteOnEvent(tick=0, channel=3, data=[52, 0]),
   midi.NoteOnEvent(tick=0, channel=3, data=[52, 100]),
   midi.NoteOnEvent(tick=0, channel=3, data=[55, 100]),
   midi.NoteOnEvent(tick=108, channel=3, data=[55, 0]),
   midi.NoteOnEvent(tick=0, channel=3, data=[52, 0]),
   midi.NoteOnEvent(tick=0, channel=3, data=[54, 100]),
   midi.NoteOnEvent(tick=0, channel=3, data=[51, 100]),
   midi.NoteOnEvent(tick=108, channel=3, data=[51, 0]),
   midi.NoteOnEvent(tick=0, channel=3, data=[54, 0]),
   midi.NoteOnEvent(tick=0, channel=3, data=[52, 100]),
   midi.NoteOnEvent(tick=0, channel=3, data=[55, 100]),
   midi.NoteOnEvent(tick=108, channel=3, data=[55, 0]),
   midi.NoteOnEvent(tick=0, channel=3, data=[52, 0]),
   midi.NoteOnEvent(tick=0, channel=3, data=[47, 100]),
   midi.NoteOnEvent(tick=0, channel=3, data=[40, 100]),
   midi.NoteOnEvent(tick=54, channel=3, data=[40, 0]),
   midi.NoteOnEvent(tick=0, channel=3, data=[47, 0]),
   midi.NoteOnEvent(tick=0, channel=3, data=[47, 100]),
   midi.NoteOnEvent(tick=0, channel=3, data=[40, 100]),
   midi.NoteOnEvent(tick=54, channel=3, data=[40, 0]),
   midi.NoteOnEvent(tick=0, channel=3, data=[47, 0]),
   midi.NoteOnEvent(tick=0, channel=3, data=[40, 100]),
   midi.NoteOnEvent(tick=108, channel=3, data=[40, 0]),
   midi.NoteOnEvent(tick=0, channel=3, data=[47, 100]),
   midi.NoteOnEvent(tick=0, channel=3, data=[40, 100]),
   midi.NoteOnEvent(tick=54, channel=3, data=[40, 0]),
   midi.NoteOnEvent(tick=0, channel=3, data=[47, 0]),
   midi.NoteOnEvent(tick=0, channel=3, data=[47, 100]),
   midi.NoteOnEvent(tick=0, channel=3, data=[40, 100]),
   midi.NoteOnEvent(tick=54, channel=3, data=[40, 0]),
   midi.NoteOnEvent(tick=0, channel=3, data=[47, 0]),
   midi.NoteOnEvent(tick=0, channel=3, data=[40, 100]),
   midi.NoteOnEvent(tick=108, channel=3, data=[40, 0]),
   midi.NoteOnEvent(tick=0, channel=3, data=[46, 100]),
   midi.NoteOnEvent(tick=0, channel=3, data=[53, 100]),
   midi.NoteOnEvent(tick=0, channel=3, data=[58, 100]),
   midi.NoteOnEvent(tick=108, channel=3, data=[58, 0]),
   midi.NoteOnEvent(tick=0, channel=3, data=[53, 0]),
   midi.NoteOnEvent(tick=0, channel=3, data=[46, 0]),
   midi.NoteOnEvent(tick=0, channel=3, data=[46, 100]),
   midi.NoteOnEvent(tick=0, channel=3, data=[53, 100]),
   midi.NoteOnEvent(tick=0, channel=3, data=[58, 100]),
   midi.NoteOnEvent(tick=108, channel=3, data=[58, 0]),
   midi.NoteOnEvent(tick=0, channel=3, data=[53, 0]),
   midi.NoteOnEvent(tick=0, channel=3, data=[46, 0]),
   midi.NoteOnEvent(tick=0, channel=3, data=[45, 100]),
   midi.NoteOnEvent(tick=0, channel=3, data=[52, 100]),
   midi.NoteOnEvent(tick=0, channel=3, data=[57, 100]),
   midi.NoteOnEvent(tick=108, channel=3, data=[57, 0]),
   midi.NoteOnEvent(tick=0, channel=3, data=[52, 0]),
   midi.NoteOnEvent(tick=0, channel=3, data=[45, 0]),
   midi.NoteOnEvent(tick=0, channel=3, data=[46, 100]),
   midi.NoteOnEvent(tick=0, channel=3, data=[53, 100]),
   midi.NoteOnEvent(tick=0, channel=3, data=[58, 100]),
   midi.NoteOnEvent(tick=216, channel=3, data=[58, 0]),
   midi.NoteOnEvent(tick=0, channel=3, data=[53, 0]),
   midi.NoteOnEvent(tick=0, channel=3, data=[46, 0]),
   midi.NoteOnEvent(tick=0, channel=3, data=[48, 100]),
   midi.NoteOnEvent(tick=0, channel=3, data=[41, 100]),
   midi.NoteOnEvent(tick=0, channel=3, data=[53, 100]),
   midi.NoteOnEvent(tick=216, channel=3, data=[53, 0]),
   midi.NoteOnEvent(tick=0, channel=3, data=[41, 0]),
   midi.NoteOnEvent(tick=0, channel=3, data=[48, 0]),
   midi.NoteOnEvent(tick=0, channel=3, data=[47, 100]),
   midi.NoteOnEvent(tick=0, channel=3, data=[40, 100]),
   midi.NoteOnEvent(tick=0, channel=3, data=[52, 100]),
   midi.NoteOnEvent(tick=216, channel=3, data=[52, 0]),
   midi.NoteOnEvent(tick=0, channel=3, data=[40, 0]),
   midi.NoteOnEvent(tick=0, channel=3, data=[47, 0]),
   midi.NoteOnEvent(tick=216, channel=3, data=[41, 100]),
   midi.NoteOnEvent(tick=0, channel=3, data=[53, 100]),
   midi.NoteOnEvent(tick=0, channel=3, data=[48, 100]),
   midi.NoteOnEvent(tick=108, channel=3, data=[48, 0]),
   midi.NoteOnEvent(tick=0, channel=3, data=[53, 0]),
   midi.NoteOnEvent(tick=0, channel=3, data=[41, 0]),
   midi.NoteOnEvent(tick=108, channel=3, data=[46, 100]),
   midi.NoteOnEvent(tick=0, channel=3, data=[53, 100]),
   midi.NoteOnEvent(tick=0, channel=3, data=[58, 100]),
   midi.NoteOnEvent(tick=108, channel=3, data=[58, 0]),
   midi.NoteOnEvent(tick=0, channel=3, data=[53, 0]),
   midi.NoteOnEvent(tick=0, channel=3, data=[46, 0]),
   midi.NoteOnEvent(tick=108, channel=3, data=[47, 100]),
   midi.NoteOnEvent(tick=0, channel=3, data=[54, 100]),
   midi.NoteOnEvent(tick=0, channel=3, data=[59, 100]),
   midi.NoteOnEvent(tick=108, channel=3, data=[59, 0]),
   midi.NoteOnEvent(tick=0, channel=3, data=[54, 0]),
   midi.NoteOnEvent(tick=0, channel=3, data=[47, 0]),
   midi.NoteOnEvent(tick=108, channel=3, data=[53, 100]),
   midi.NoteOnEvent(tick=0, channel=3, data=[58, 100]),
   midi.NoteOnEvent(tick=0, channel=3, data=[46, 100]),
   midi.NoteOnEvent(tick=108, channel=3, data=[46, 0]),
   midi.NoteOnEvent(tick=0, channel=3, data=[58, 0]),
   midi.NoteOnEvent(tick=0, channel=3, data=[53, 0]),
   midi.NoteOnEvent(tick=108, channel=3, data=[47, 100]),
   midi.NoteOnEvent(tick=0, channel=3, data=[59, 100]),
   midi.NoteOnEvent(tick=0, channel=3, data=[54, 100]),
   midi.NoteOnEvent(tick=108, channel=3, data=[54, 0]),
   midi.NoteOnEvent(tick=0, channel=3, data=[59, 0]),
   midi.NoteOnEvent(tick=0, channel=3, data=[47, 0]),
   midi.NoteOnEvent(tick=108, channel=3, data=[46, 100]),
   midi.NoteOnEvent(tick=0, channel=3, data=[53, 100]),
   midi.NoteOnEvent(tick=0, channel=3, data=[58, 100]),
   midi.NoteOnEvent(tick=108, channel=3, data=[58, 0]),
   midi.NoteOnEvent(tick=0, channel=3, data=[53, 0]),
   midi.NoteOnEvent(tick=0, channel=3, data=[46, 0]),
   midi.NoteOnEvent(tick=108, channel=3, data=[47, 100]),
   midi.NoteOnEvent(tick=0, channel=3, data=[54, 100]),
   midi.NoteOnEvent(tick=0, channel=3, data=[59, 100]),
   midi.NoteOnEvent(tick=108, channel=3, data=[59, 0]),
   midi.NoteOnEvent(tick=0, channel=3, data=[54, 0]),
   midi.NoteOnEvent(tick=0, channel=3, data=[47, 0]),
   midi.NoteOnEvent(tick=108, channel=3, data=[49, 100]),
   midi.NoteOnEvent(tick=0, channel=3, data=[42, 100]),
   midi.NoteOnEvent(tick=0, channel=3, data=[54, 100]),
   midi.NoteOnEvent(tick=214, channel=3, data=[54, 0]),
   midi.NoteOnEvent(tick=0, channel=3, data=[42, 0]),
   midi.NoteOnEvent(tick=0, channel=3, data=[49, 0]),
   midi.NoteOnEvent(tick=2, channel=3, data=[41, 100]),
   midi.NoteOnEvent(tick=0, channel=3, data=[53, 100]),
   midi.NoteOnEvent(tick=0, channel=3, data=[48, 100]),
   midi.NoteOnEvent(tick=108, channel=3, data=[48, 0]),
   midi.NoteOnEvent(tick=0, channel=3, data=[53, 0]),
   midi.NoteOnEvent(tick=0, channel=3, data=[41, 0]),
   midi.NoteOnEvent(tick=108, channel=3, data=[46, 100]),
   midi.NoteOnEvent(tick=0, channel=3, data=[53, 100]),
   midi.NoteOnEvent(tick=0, channel=3, data=[58, 100]),
   midi.NoteOnEvent(tick=108, channel=3, data=[58, 0]),
   midi.NoteOnEvent(tick=0, channel=3, data=[53, 0]),
   midi.NoteOnEvent(tick=0, channel=3, data=[46, 0]),
   midi.NoteOnEvent(tick=108, channel=3, data=[47, 100]),
   midi.NoteOnEvent(tick=0, channel=3, data=[54, 100]),
   midi.NoteOnEvent(tick=0, channel=3, data=[59, 100]),
   midi.NoteOnEvent(tick=108, channel=3, data=[59, 0]),
   midi.NoteOnEvent(tick=0, channel=3, data=[54, 0]),
   midi.NoteOnEvent(tick=0, channel=3, data=[47, 0]),
   midi.NoteOnEvent(tick=108, channel=3, data=[53, 100]),
   midi.NoteOnEvent(tick=0, channel=3, data=[58, 100]),
   midi.NoteOnEvent(tick=0, channel=3, data=[46, 100]),
   midi.NoteOnEvent(tick=108, channel=3, data=[46, 0]),
   midi.NoteOnEvent(tick=0, channel=3, data=[58, 0]),
   midi.NoteOnEvent(tick=0, channel=3, data=[53, 0]),
   midi.NoteOnEvent(tick=108, channel=3, data=[47, 100]),
   midi.NoteOnEvent(tick=0, channel=3, data=[59, 100]),
   midi.NoteOnEvent(tick=0, channel=3, data=[54, 100]),
   midi.NoteOnEvent(tick=108, channel=3, data=[54, 0]),
   midi.NoteOnEvent(tick=0, channel=3, data=[59, 0]),
   midi.NoteOnEvent(tick=0, channel=3, data=[47, 0]),
   midi.NoteOnEvent(tick=108, channel=3, data=[46, 100]),
   midi.NoteOnEvent(tick=0, channel=3, data=[53, 100]),
   midi.NoteOnEvent(tick=0, channel=3, data=[58, 100]),
   midi.NoteOnEvent(tick=108, channel=3, data=[58, 0]),
   midi.NoteOnEvent(tick=0, channel=3, data=[53, 0]),
   midi.NoteOnEvent(tick=0, channel=3, data=[46, 0]),
   midi.NoteOnEvent(tick=108, channel=3, data=[47, 100]),
   midi.NoteOnEvent(tick=0, channel=3, data=[54, 100]),
   midi.NoteOnEvent(tick=0, channel=3, data=[59, 100]),
   midi.NoteOnEvent(tick=108, channel=3, data=[59, 0]),
   midi.NoteOnEvent(tick=0, channel=3, data=[54, 0]),
   midi.NoteOnEvent(tick=0, channel=3, data=[47, 0]),
   midi.NoteOnEvent(tick=108, channel=3, data=[49, 100]),
   midi.NoteOnEvent(tick=0, channel=3, data=[42, 100]),
   midi.NoteOnEvent(tick=0, channel=3, data=[54, 100]),
   midi.NoteOnEvent(tick=214, channel=3, data=[54, 0]),
   midi.NoteOnEvent(tick=0, channel=3, data=[42, 0]),
   midi.NoteOnEvent(tick=0, channel=3, data=[49, 0]),
   midi.NoteOnEvent(tick=2, channel=3, data=[41, 100]),
   midi.NoteOnEvent(tick=0, channel=3, data=[53, 100]),
   midi.NoteOnEvent(tick=0, channel=3, data=[48, 100]),
   midi.NoteOnEvent(tick=108, channel=3, data=[48, 0]),
   midi.NoteOnEvent(tick=0, channel=3, data=[53, 0]),
   midi.NoteOnEvent(tick=0, channel=3, data=[41, 0]),
   midi.NoteOnEvent(tick=108, channel=3, data=[46, 100]),
   midi.NoteOnEvent(tick=0, channel=3, data=[53, 100]),
   midi.NoteOnEvent(tick=0, channel=3, data=[58, 100]),
   midi.NoteOnEvent(tick=108, channel=3, data=[58, 0]),
   midi.NoteOnEvent(tick=0, channel=3, data=[53, 0]),
   midi.NoteOnEvent(tick=0, channel=3, data=[46, 0]),
   midi.NoteOnEvent(tick=108, channel=3, data=[47, 100]),
   midi.NoteOnEvent(tick=0, channel=3, data=[54, 100]),
   midi.NoteOnEvent(tick=0, channel=3, data=[59, 100]),
   midi.NoteOnEvent(tick=108, channel=3, data=[59, 0]),
   midi.NoteOnEvent(tick=0, channel=3, data=[54, 0]),
   midi.NoteOnEvent(tick=0, channel=3, data=[47, 0]),
   midi.NoteOnEvent(tick=108, channel=3, data=[53, 100]),
   midi.NoteOnEvent(tick=0, channel=3, data=[58, 100]),
   midi.NoteOnEvent(tick=0, channel=3, data=[46, 100]),
   midi.NoteOnEvent(tick=108, channel=3, data=[46, 0]),
   midi.NoteOnEvent(tick=0, channel=3, data=[58, 0]),
   midi.NoteOnEvent(tick=0, channel=3, data=[53, 0]),
   midi.NoteOnEvent(tick=108, channel=3, data=[47, 100]),
   midi.NoteOnEvent(tick=0, channel=3, data=[59, 100]),
   midi.NoteOnEvent(tick=0, channel=3, data=[54, 100]),
   midi.NoteOnEvent(tick=108, channel=3, data=[54, 0]),
   midi.NoteOnEvent(tick=0, channel=3, data=[59, 0]),
   midi.NoteOnEvent(tick=0, channel=3, data=[47, 0]),
   midi.NoteOnEvent(tick=108, channel=3, data=[46, 100]),
   midi.NoteOnEvent(tick=0, channel=3, data=[53, 100]),
   midi.NoteOnEvent(tick=0, channel=3, data=[58, 100]),
   midi.NoteOnEvent(tick=108, channel=3, data=[58, 0]),
   midi.NoteOnEvent(tick=0, channel=3, data=[53, 0]),
   midi.NoteOnEvent(tick=0, channel=3, data=[46, 0]),
   midi.NoteOnEvent(tick=108, channel=3, data=[47, 100]),
   midi.NoteOnEvent(tick=0, channel=3, data=[54, 100]),
   midi.NoteOnEvent(tick=0, channel=3, data=[59, 100]),
   midi.NoteOnEvent(tick=108, channel=3, data=[59, 0]),
   midi.NoteOnEvent(tick=0, channel=3, data=[54, 0]),
   midi.NoteOnEvent(tick=0, channel=3, data=[47, 0]),
   midi.NoteOnEvent(tick=108, channel=3, data=[49, 100]),
   midi.NoteOnEvent(tick=0, channel=3, data=[42, 100]),
   midi.NoteOnEvent(tick=0, channel=3, data=[54, 100]),
   midi.NoteOnEvent(tick=214, channel=3, data=[54, 0]),
   midi.NoteOnEvent(tick=0, channel=3, data=[42, 0]),
   midi.NoteOnEvent(tick=0, channel=3, data=[49, 0]),
   midi.NoteOnEvent(tick=2, channel=3, data=[41, 100]),
   midi.NoteOnEvent(tick=0, channel=3, data=[53, 100]),
   midi.NoteOnEvent(tick=0, channel=3, data=[48, 100]),
   midi.NoteOnEvent(tick=108, channel=3, data=[48, 0]),
   midi.NoteOnEvent(tick=0, channel=3, data=[53, 0]),
   midi.NoteOnEvent(tick=0, channel=3, data=[41, 0]),
   midi.NoteOnEvent(tick=108, channel=3, data=[46, 100]),
   midi.NoteOnEvent(tick=0, channel=3, data=[53, 100]),
   midi.NoteOnEvent(tick=0, channel=3, data=[58, 100]),
   midi.NoteOnEvent(tick=108, channel=3, data=[58, 0]),
   midi.NoteOnEvent(tick=0, channel=3, data=[53, 0]),
   midi.NoteOnEvent(tick=0, channel=3, data=[46, 0]),
   midi.NoteOnEvent(tick=108, channel=3, data=[47, 100]),
   midi.NoteOnEvent(tick=0, channel=3, data=[54, 100]),
   midi.NoteOnEvent(tick=0, channel=3, data=[59, 100]),
   midi.NoteOnEvent(tick=108, channel=3, data=[59, 0]),
   midi.NoteOnEvent(tick=0, channel=3, data=[54, 0]),
   midi.NoteOnEvent(tick=0, channel=3, data=[47, 0]),
   midi.NoteOnEvent(tick=108, channel=3, data=[53, 100]),
   midi.NoteOnEvent(tick=0, channel=3, data=[58, 100]),
   midi.NoteOnEvent(tick=0, channel=3, data=[46, 100]),
   midi.NoteOnEvent(tick=108, channel=3, data=[46, 0]),
   midi.NoteOnEvent(tick=0, channel=3, data=[58, 0]),
   midi.NoteOnEvent(tick=0, channel=3, data=[53, 0]),
   midi.NoteOnEvent(tick=108, channel=3, data=[47, 100]),
   midi.NoteOnEvent(tick=0, channel=3, data=[59, 100]),
   midi.NoteOnEvent(tick=0, channel=3, data=[54, 100]),
   midi.NoteOnEvent(tick=108, channel=3, data=[54, 0]),
   midi.NoteOnEvent(tick=0, channel=3, data=[59, 0]),
   midi.NoteOnEvent(tick=0, channel=3, data=[47, 0]),
   midi.NoteOnEvent(tick=108, channel=3, data=[46, 100]),
   midi.NoteOnEvent(tick=0, channel=3, data=[53, 100]),
   midi.NoteOnEvent(tick=0, channel=3, data=[58, 100]),
   midi.NoteOnEvent(tick=108, channel=3, data=[58, 0]),
   midi.NoteOnEvent(tick=0, channel=3, data=[53, 0]),
   midi.NoteOnEvent(tick=0, channel=3, data=[46, 0]),
   midi.NoteOnEvent(tick=108, channel=3, data=[47, 100]),
   midi.NoteOnEvent(tick=0, channel=3, data=[54, 100]),
   midi.NoteOnEvent(tick=0, channel=3, data=[59, 100]),
   midi.NoteOnEvent(tick=108, channel=3, data=[59, 0]),
   midi.NoteOnEvent(tick=0, channel=3, data=[54, 0]),
   midi.NoteOnEvent(tick=0, channel=3, data=[47, 0]),
   midi.NoteOnEvent(tick=108, channel=3, data=[49, 100]),
   midi.NoteOnEvent(tick=0, channel=3, data=[42, 100]),
   midi.NoteOnEvent(tick=0, channel=3, data=[54, 100]),
   midi.NoteOnEvent(tick=214, channel=3, data=[54, 0]),
   midi.NoteOnEvent(tick=0, channel=3, data=[42, 0]),
   midi.NoteOnEvent(tick=0, channel=3, data=[49, 0]),
   midi.NoteOnEvent(tick=2, channel=3, data=[41, 100]),
   midi.NoteOnEvent(tick=0, channel=3, data=[53, 100]),
   midi.NoteOnEvent(tick=0, channel=3, data=[48, 100]),
   midi.NoteOnEvent(tick=108, channel=3, data=[48, 0]),
   midi.NoteOnEvent(tick=0, channel=3, data=[53, 0]),
   midi.NoteOnEvent(tick=0, channel=3, data=[41, 0]),
   midi.NoteOnEvent(tick=108, channel=3, data=[46, 100]),
   midi.NoteOnEvent(tick=0, channel=3, data=[53, 100]),
   midi.NoteOnEvent(tick=0, channel=3, data=[58, 100]),
   midi.NoteOnEvent(tick=108, channel=3, data=[58, 0]),
   midi.NoteOnEvent(tick=0, channel=3, data=[53, 0]),
   midi.NoteOnEvent(tick=0, channel=3, data=[46, 0]),
   midi.NoteOnEvent(tick=108, channel=3, data=[47, 100]),
   midi.NoteOnEvent(tick=0, channel=3, data=[54, 100]),
   midi.NoteOnEvent(tick=0, channel=3, data=[59, 100]),
   midi.NoteOnEvent(tick=108, channel=3, data=[59, 0]),
   midi.NoteOnEvent(tick=0, channel=3, data=[54, 0]),
   midi.NoteOnEvent(tick=0, channel=3, data=[47, 0]),
   midi.NoteOnEvent(tick=108, channel=3, data=[53, 100]),
   midi.NoteOnEvent(tick=0, channel=3, data=[58, 100]),
   midi.NoteOnEvent(tick=0, channel=3, data=[46, 100]),
   midi.NoteOnEvent(tick=108, channel=3, data=[46, 0]),
   midi.NoteOnEvent(tick=0, channel=3, data=[58, 0]),
   midi.NoteOnEvent(tick=0, channel=3, data=[53, 0]),
   midi.NoteOnEvent(tick=108, channel=3, data=[47, 100]),
   midi.NoteOnEvent(tick=0, channel=3, data=[59, 100]),
   midi.NoteOnEvent(tick=0, channel=3, data=[54, 100]),
   midi.NoteOnEvent(tick=108, channel=3, data=[54, 0]),
   midi.NoteOnEvent(tick=0, channel=3, data=[59, 0]),
   midi.NoteOnEvent(tick=0, channel=3, data=[47, 0]),
   midi.NoteOnEvent(tick=108, channel=3, data=[46, 100]),
   midi.NoteOnEvent(tick=0, channel=3, data=[53, 100]),
   midi.NoteOnEvent(tick=0, channel=3, data=[58, 100]),
   midi.NoteOnEvent(tick=108, channel=3, data=[58, 0]),
   midi.NoteOnEvent(tick=0, channel=3, data=[53, 0]),
   midi.NoteOnEvent(tick=0, channel=3, data=[46, 0]),
   midi.NoteOnEvent(tick=108, channel=3, data=[47, 100]),
   midi.NoteOnEvent(tick=0, channel=3, data=[54, 100]),
   midi.NoteOnEvent(tick=0, channel=3, data=[59, 100]),
   midi.NoteOnEvent(tick=108, channel=3, data=[59, 0]),
   midi.NoteOnEvent(tick=0, channel=3, data=[54, 0]),
   midi.NoteOnEvent(tick=0, channel=3, data=[47, 0]),
   midi.NoteOnEvent(tick=108, channel=3, data=[49, 100]),
   midi.NoteOnEvent(tick=0, channel=3, data=[42, 100]),
   midi.NoteOnEvent(tick=0, channel=3, data=[54, 100]),
   midi.NoteOnEvent(tick=214, channel=3, data=[54, 0]),
   midi.NoteOnEvent(tick=0, channel=3, data=[42, 0]),
   midi.NoteOnEvent(tick=0, channel=3, data=[49, 0]),
   midi.NoteOnEvent(tick=2, channel=3, data=[41, 100]),
   midi.NoteOnEvent(tick=0, channel=3, data=[53, 100]),
   midi.NoteOnEvent(tick=0, channel=3, data=[48, 100]),
   midi.NoteOnEvent(tick=108, channel=3, data=[48, 0]),
   midi.NoteOnEvent(tick=0, channel=3, data=[53, 0]),
   midi.NoteOnEvent(tick=0, channel=3, data=[41, 0]),
   midi.NoteOnEvent(tick=108, channel=3, data=[46, 100]),
   midi.NoteOnEvent(tick=0, channel=3, data=[53, 100]),
   midi.NoteOnEvent(tick=0, channel=3, data=[58, 100]),
   midi.NoteOnEvent(tick=108, channel=3, data=[58, 0]),
   midi.NoteOnEvent(tick=0, channel=3, data=[53, 0]),
   midi.NoteOnEvent(tick=0, channel=3, data=[46, 0]),
   midi.NoteOnEvent(tick=108, channel=3, data=[47, 100]),
   midi.NoteOnEvent(tick=0, channel=3, data=[54, 100]),
   midi.NoteOnEvent(tick=0, channel=3, data=[59, 100]),
   midi.NoteOnEvent(tick=108, channel=3, data=[59, 0]),
   midi.NoteOnEvent(tick=0, channel=3, data=[54, 0]),
   midi.NoteOnEvent(tick=0, channel=3, data=[47, 0]),
   midi.NoteOnEvent(tick=108, channel=3, data=[53, 100]),
   midi.NoteOnEvent(tick=0, channel=3, data=[58, 100]),
   midi.NoteOnEvent(tick=0, channel=3, data=[46, 100]),
   midi.NoteOnEvent(tick=108, channel=3, data=[46, 0]),
   midi.NoteOnEvent(tick=0, channel=3, data=[58, 0]),
   midi.NoteOnEvent(tick=0, channel=3, data=[53, 0]),
   midi.NoteOnEvent(tick=108, channel=3, data=[47, 100]),
   midi.NoteOnEvent(tick=0, channel=3, data=[59, 100]),
   midi.NoteOnEvent(tick=0, channel=3, data=[54, 100]),
   midi.NoteOnEvent(tick=108, channel=3, data=[54, 0]),
   midi.NoteOnEvent(tick=0, channel=3, data=[59, 0]),
   midi.NoteOnEvent(tick=0, channel=3, data=[47, 0]),
   midi.NoteOnEvent(tick=108, channel=3, data=[46, 100]),
   midi.NoteOnEvent(tick=0, channel=3, data=[53, 100]),
   midi.NoteOnEvent(tick=0, channel=3, data=[58, 100]),
   midi.NoteOnEvent(tick=108, channel=3, data=[58, 0]),
   midi.NoteOnEvent(tick=0, channel=3, data=[53, 0]),
   midi.NoteOnEvent(tick=0, channel=3, data=[46, 0]),
   midi.NoteOnEvent(tick=108, channel=3, data=[47, 100]),
   midi.NoteOnEvent(tick=0, channel=3, data=[54, 100]),
   midi.NoteOnEvent(tick=0, channel=3, data=[59, 100]),
   midi.NoteOnEvent(tick=108, channel=3, data=[59, 0]),
   midi.NoteOnEvent(tick=0, channel=3, data=[54, 0]),
   midi.NoteOnEvent(tick=0, channel=3, data=[47, 0]),
   midi.NoteOnEvent(tick=108, channel=3, data=[49, 100]),
   midi.NoteOnEvent(tick=0, channel=3, data=[42, 100]),
   midi.NoteOnEvent(tick=0, channel=3, data=[54, 100]),
   midi.NoteOnEvent(tick=214, channel=3, data=[54, 0]),
   midi.NoteOnEvent(tick=0, channel=3, data=[42, 0]),
   midi.NoteOnEvent(tick=0, channel=3, data=[49, 0]),
   midi.NoteOnEvent(tick=2, channel=3, data=[41, 100]),
   midi.NoteOnEvent(tick=0, channel=3, data=[53, 100]),
   midi.NoteOnEvent(tick=0, channel=3, data=[48, 100]),
   midi.NoteOnEvent(tick=108, channel=3, data=[48, 0]),
   midi.NoteOnEvent(tick=0, channel=3, data=[53, 0]),
   midi.NoteOnEvent(tick=0, channel=3, data=[41, 0]),
   midi.NoteOnEvent(tick=108, channel=3, data=[46, 100]),
   midi.NoteOnEvent(tick=0, channel=3, data=[53, 100]),
   midi.NoteOnEvent(tick=0, channel=3, data=[58, 100]),
   midi.NoteOnEvent(tick=108, channel=3, data=[58, 0]),
   midi.NoteOnEvent(tick=0, channel=3, data=[53, 0]),
   midi.NoteOnEvent(tick=0, channel=3, data=[46, 0]),
   midi.NoteOnEvent(tick=108, channel=3, data=[47, 100]),
   midi.NoteOnEvent(tick=0, channel=3, data=[54, 100]),
   midi.NoteOnEvent(tick=0, channel=3, data=[59, 100]),
   midi.NoteOnEvent(tick=108, channel=3, data=[59, 0]),
   midi.NoteOnEvent(tick=0, channel=3, data=[54, 0]),
   midi.NoteOnEvent(tick=0, channel=3, data=[47, 0]),
   midi.NoteOnEvent(tick=108, channel=3, data=[53, 100]),
   midi.NoteOnEvent(tick=0, channel=3, data=[58, 100]),
   midi.NoteOnEvent(tick=0, channel=3, data=[46, 100]),
   midi.NoteOnEvent(tick=108, channel=3, data=[46, 0]),
   midi.NoteOnEvent(tick=0, channel=3, data=[58, 0]),
   midi.NoteOnEvent(tick=0, channel=3, data=[53, 0]),
   midi.NoteOnEvent(tick=108, channel=3, data=[47, 100]),
   midi.NoteOnEvent(tick=0, channel=3, data=[59, 100]),
   midi.NoteOnEvent(tick=0, channel=3, data=[54, 100]),
   midi.NoteOnEvent(tick=108, channel=3, data=[54, 0]),
   midi.NoteOnEvent(tick=0, channel=3, data=[59, 0]),
   midi.NoteOnEvent(tick=0, channel=3, data=[47, 0]),
   midi.NoteOnEvent(tick=108, channel=3, data=[46, 100]),
   midi.NoteOnEvent(tick=0, channel=3, data=[53, 100]),
   midi.NoteOnEvent(tick=0, channel=3, data=[58, 100]),
   midi.NoteOnEvent(tick=108, channel=3, data=[58, 0]),
   midi.NoteOnEvent(tick=0, channel=3, data=[53, 0]),
   midi.NoteOnEvent(tick=0, channel=3, data=[46, 0]),
   midi.NoteOnEvent(tick=108, channel=3, data=[47, 100]),
   midi.NoteOnEvent(tick=0, channel=3, data=[54, 100]),
   midi.NoteOnEvent(tick=0, channel=3, data=[59, 100]),
   midi.NoteOnEvent(tick=108, channel=3, data=[59, 0]),
   midi.NoteOnEvent(tick=0, channel=3, data=[54, 0]),
   midi.NoteOnEvent(tick=0, channel=3, data=[47, 0]),
   midi.NoteOnEvent(tick=108, channel=3, data=[49, 100]),
   midi.NoteOnEvent(tick=0, channel=3, data=[42, 100]),
   midi.NoteOnEvent(tick=0, channel=3, data=[54, 100]),
   midi.NoteOnEvent(tick=214, channel=3, data=[54, 0]),
   midi.NoteOnEvent(tick=0, channel=3, data=[42, 0]),
   midi.NoteOnEvent(tick=0, channel=3, data=[49, 0]),
   midi.NoteOnEvent(tick=2, channel=3, data=[41, 100]),
   midi.NoteOnEvent(tick=0, channel=3, data=[53, 100]),
   midi.NoteOnEvent(tick=0, channel=3, data=[48, 100]),
   midi.NoteOnEvent(tick=108, channel=3, data=[48, 0]),
   midi.NoteOnEvent(tick=0, channel=3, data=[53, 0]),
   midi.NoteOnEvent(tick=0, channel=3, data=[41, 0]),
   midi.NoteOnEvent(tick=108, channel=3, data=[46, 100]),
   midi.NoteOnEvent(tick=0, channel=3, data=[53, 100]),
   midi.NoteOnEvent(tick=0, channel=3, data=[58, 100]),
   midi.NoteOnEvent(tick=108, channel=3, data=[58, 0]),
   midi.NoteOnEvent(tick=0, channel=3, data=[53, 0]),
   midi.NoteOnEvent(tick=0, channel=3, data=[46, 0]),
   midi.NoteOnEvent(tick=108, channel=3, data=[47, 100]),
   midi.NoteOnEvent(tick=0, channel=3, data=[54, 100]),
   midi.NoteOnEvent(tick=0, channel=3, data=[59, 100]),
   midi.NoteOnEvent(tick=108, channel=3, data=[59, 0]),
   midi.NoteOnEvent(tick=0, channel=3, data=[54, 0]),
   midi.NoteOnEvent(tick=0, channel=3, data=[47, 0]),
   midi.NoteOnEvent(tick=108, channel=3, data=[53, 100]),
   midi.NoteOnEvent(tick=0, channel=3, data=[58, 100]),
   midi.NoteOnEvent(tick=0, channel=3, data=[46, 100]),
   midi.NoteOnEvent(tick=108, channel=3, data=[46, 0]),
   midi.NoteOnEvent(tick=0, channel=3, data=[58, 0]),
   midi.NoteOnEvent(tick=0, channel=3, data=[53, 0]),
   midi.NoteOnEvent(tick=108, channel=3, data=[59, 100]),
   midi.NoteOnEvent(tick=0, channel=3, data=[54, 100]),
   midi.NoteOnEvent(tick=0, channel=3, data=[47, 100]),
   midi.NoteOnEvent(tick=1726, channel=3, data=[47, 0]),
   midi.NoteOnEvent(tick=0, channel=3, data=[54, 0]),
   midi.NoteOnEvent(tick=0, channel=3, data=[59, 0]),
   midi.NoteOnEvent(tick=2, channel=3, data=[49, 100]),
   midi.NoteOnEvent(tick=0, channel=3, data=[42, 100]),
   midi.NoteOnEvent(tick=0, channel=3, data=[54, 100]),
   midi.NoteOnEvent(tick=108, channel=3, data=[54, 0]),
   midi.NoteOnEvent(tick=0, channel=3, data=[42, 0]),
   midi.NoteOnEvent(tick=0, channel=3, data=[49, 0]),
   midi.NoteOnEvent(tick=0, channel=3, data=[41, 100]),
   midi.NoteOnEvent(tick=0, channel=3, data=[53, 100]),
   midi.NoteOnEvent(tick=0, channel=3, data=[48, 100]),
   midi.NoteOnEvent(tick=108, channel=3, data=[48, 0]),
   midi.NoteOnEvent(tick=0, channel=3, data=[53, 0]),
   midi.NoteOnEvent(tick=0, channel=3, data=[41, 0]),
   midi.NoteOnEvent(tick=108, channel=3, data=[41, 100]),
   midi.NoteOnEvent(tick=0, channel=3, data=[53, 100]),
   midi.NoteOnEvent(tick=0, channel=3, data=[48, 100]),
   midi.NoteOnEvent(tick=108, channel=3, data=[48, 0]),
   midi.NoteOnEvent(tick=0, channel=3, data=[53, 0]),
   midi.NoteOnEvent(tick=0, channel=3, data=[41, 0]),
   midi.NoteOnEvent(tick=108, channel=3, data=[41, 100]),
   midi.NoteOnEvent(tick=0, channel=3, data=[53, 100]),
   midi.NoteOnEvent(tick=0, channel=3, data=[48, 100]),
   midi.NoteOnEvent(tick=108, channel=3, data=[48, 0]),
   midi.NoteOnEvent(tick=0, channel=3, data=[53, 0]),
   midi.NoteOnEvent(tick=0, channel=3, data=[41, 0]),
   midi.NoteOnEvent(tick=108, channel=3, data=[41, 100]),
   midi.NoteOnEvent(tick=0, channel=3, data=[53, 100]),
   midi.NoteOnEvent(tick=0, channel=3, data=[48, 100]),
   midi.NoteOnEvent(tick=108, channel=3, data=[48, 0]),
   midi.NoteOnEvent(tick=0, channel=3, data=[53, 0]),
   midi.NoteOnEvent(tick=0, channel=3, data=[41, 0]),
   midi.NoteOnEvent(tick=0, channel=3, data=[40, 100]),
   midi.NoteOnEvent(tick=0, channel=3, data=[47, 100]),
   midi.NoteOnEvent(tick=0, channel=3, data=[52, 100]),
   midi.NoteOnEvent(tick=214, channel=3, data=[52, 0]),
   midi.NoteOnEvent(tick=0, channel=3, data=[47, 0]),
   midi.NoteOnEvent(tick=0, channel=3, data=[40, 0]),
   midi.EndOfTrackEvent(tick=0, data=[])]),
 midi.Track(\
  [midi.PortEvent(tick=0, data=[0]),
   midi.TrackNameEvent(tick=0, text='Elec Gtr 2&3', data=[69, 108, 101, 99, 32, 71, 116, 114, 32, 50, 38, 51]),
   midi.ProgramChangeEvent(tick=0, channel=4, data=[29]),
   midi.ControlChangeEvent(tick=0, channel=4, data=[7, 100]),
   midi.ControlChangeEvent(tick=0, channel=4, data=[10, 27]),
   midi.ControlChangeEvent(tick=0, channel=4, data=[1, 0]),
   midi.PitchWheelEvent(tick=0, channel=4, data=[0, 64]),
   midi.ControlChangeEvent(tick=0, channel=4, data=[11, 100]),
   midi.NoteOnEvent(tick=11340, channel=4, data=[74, 118]),
   midi.NoteOnEvent(tick=0, channel=4, data=[71, 118]),
   midi.NoteOnEvent(tick=54, channel=4, data=[71, 0]),
   midi.NoteOnEvent(tick=0, channel=4, data=[74, 0]),
   midi.NoteOnEvent(tick=0, channel=4, data=[72, 118]),
   midi.NoteOnEvent(tick=0, channel=4, data=[76, 118]),
   midi.NoteOnEvent(tick=54, channel=4, data=[76, 0]),
   midi.NoteOnEvent(tick=0, channel=4, data=[72, 0]),
   midi.NoteOnEvent(tick=0, channel=4, data=[69, 118]),
   midi.NoteOnEvent(tick=0, channel=4, data=[72, 118]),
   midi.ControlChangeEvent(tick=9, channel=4, data=[1, 64]),
   midi.ControlChangeEvent(tick=180, channel=4, data=[1, 0]),
   midi.NoteOnEvent(tick=27, channel=4, data=[72, 0]),
   midi.NoteOnEvent(tick=0, channel=4, data=[69, 0]),
   midi.NoteOnEvent(tick=0, channel=4, data=[71, 118]),
   midi.NoteOnEvent(tick=0, channel=4, data=[74, 118]),
   midi.NoteOnEvent(tick=162, channel=4, data=[74, 0]),
   midi.NoteOnEvent(tick=0, channel=4, data=[71, 0]),
   midi.NoteOnEvent(tick=0, channel=4, data=[72, 118]),
   midi.NoteOnEvent(tick=0, channel=4, data=[76, 118]),
   midi.NoteOnEvent(tick=54, channel=4, data=[76, 0]),
   midi.NoteOnEvent(tick=0, channel=4, data=[72, 0]),
   midi.NoteOnEvent(tick=0, channel=4, data=[69, 118]),
   midi.NoteOnEvent(tick=0, channel=4, data=[72, 118]),
   midi.ControlChangeEvent(tick=9, channel=4, data=[1, 61]),
   midi.ControlChangeEvent(tick=284, channel=4, data=[1, 0]),
   midi.NoteOnEvent(tick=27, channel=4, data=[72, 0]),
   midi.NoteOnEvent(tick=0, channel=4, data=[69, 0]),
   midi.NoteOnEvent(tick=4, channel=4, data=[71, 118]),
   midi.NoteOnEvent(tick=0, channel=4, data=[74, 118]),
   midi.NoteOnEvent(tick=54, channel=4, data=[74, 0]),
   midi.NoteOnEvent(tick=0, channel=4, data=[71, 0]),
   midi.NoteOnEvent(tick=0, channel=4, data=[72, 118]),
   midi.NoteOnEvent(tick=0, channel=4, data=[76, 118]),
   midi.NoteOnEvent(tick=54, channel=4, data=[76, 0]),
   midi.NoteOnEvent(tick=0, channel=4, data=[72, 0]),
   midi.NoteOnEvent(tick=0, channel=4, data=[69, 118]),
   midi.NoteOnEvent(tick=0, channel=4, data=[72, 118]),
   midi.NoteOnEvent(tick=108, channel=4, data=[72, 0]),
   midi.NoteOnEvent(tick=0, channel=4, data=[69, 0]),
   midi.NoteOnEvent(tick=0, channel=4, data=[67, 118]),
   midi.NoteOnEvent(tick=0, channel=4, data=[71, 118]),
   midi.ControlChangeEvent(tick=9, channel=4, data=[1, 59]),
   midi.ControlChangeEvent(tick=171, channel=4, data=[1, 0]),
   midi.NoteOnEvent(tick=32, channel=4, data=[71, 0]),
   midi.NoteOnEvent(tick=0, channel=4, data=[67, 0]),
   midi.NoteOnEvent(tick=4, channel=4, data=[72, 118]),
   midi.NoteOnEvent(tick=0, channel=4, data=[76, 118]),
   midi.NoteOnEvent(tick=108, channel=4, data=[76, 0]),
   midi.NoteOnEvent(tick=0, channel=4, data=[72, 0]),
   midi.NoteOnEvent(tick=0, channel=4, data=[71, 118]),
   midi.NoteOnEvent(tick=0, channel=4, data=[74, 118]),
   midi.ControlChangeEvent(tick=12, channel=4, data=[1, 61]),
   midi.ControlChangeEvent(tick=281, channel=4, data=[1, 0]),
   midi.NoteOnEvent(tick=27, channel=4, data=[74, 0]),
   midi.NoteOnEvent(tick=0, channel=4, data=[71, 0]),
   midi.NoteOnEvent(tick=4, channel=4, data=[74, 118]),
   midi.NoteOnEvent(tick=0, channel=4, data=[71, 118]),
   midi.NoteOnEvent(tick=54, channel=4, data=[71, 0]),
   midi.NoteOnEvent(tick=0, channel=4, data=[74, 0]),
   midi.NoteOnEvent(tick=0, channel=4, data=[72, 118]),
   midi.NoteOnEvent(tick=0, channel=4, data=[76, 118]),
   midi.NoteOnEvent(tick=54, channel=4, data=[76, 0]),
   midi.NoteOnEvent(tick=0, channel=4, data=[72, 0]),
   midi.NoteOnEvent(tick=0, channel=4, data=[69, 118]),
   midi.NoteOnEvent(tick=0, channel=4, data=[72, 118]),
   midi.ControlChangeEvent(tick=18, channel=4, data=[1, 61]),
   midi.ControlChangeEvent(tick=156, channel=4, data=[1, 0]),
   midi.NoteOnEvent(tick=42, channel=4, data=[72, 0]),
   midi.NoteOnEvent(tick=0, channel=4, data=[69, 0]),
   midi.NoteOnEvent(tick=0, channel=4, data=[71, 118]),
   midi.NoteOnEvent(tick=0, channel=4, data=[74, 118]),
   midi.NoteOnEvent(tick=162, channel=4, data=[74, 0]),
   midi.NoteOnEvent(tick=0, channel=4, data=[71, 0]),
   midi.NoteOnEvent(tick=0, channel=4, data=[72, 118]),
   midi.NoteOnEvent(tick=0, channel=4, data=[76, 118]),
   midi.NoteOnEvent(tick=54, channel=4, data=[76, 0]),
   midi.NoteOnEvent(tick=0, channel=4, data=[72, 0]),
   midi.NoteOnEvent(tick=0, channel=4, data=[69, 118]),
   midi.NoteOnEvent(tick=0, channel=4, data=[72, 118]),
   midi.ControlChangeEvent(tick=19, channel=4, data=[1, 59]),
   midi.ControlChangeEvent(tick=242, channel=4, data=[1, 0]),
   midi.NoteOnEvent(tick=59, channel=4, data=[72, 0]),
   midi.NoteOnEvent(tick=0, channel=4, data=[69, 0]),
   midi.NoteOnEvent(tick=4, channel=4, data=[71, 118]),
   midi.NoteOnEvent(tick=0, channel=4, data=[74, 118]),
   midi.NoteOnEvent(tick=54, channel=4, data=[74, 0]),
   midi.NoteOnEvent(tick=0, channel=4, data=[71, 0]),
   midi.NoteOnEvent(tick=0, channel=4, data=[72, 118]),
   midi.NoteOnEvent(tick=0, channel=4, data=[76, 118]),
   midi.NoteOnEvent(tick=54, channel=4, data=[76, 0]),
   midi.NoteOnEvent(tick=0, channel=4, data=[72, 0]),
   midi.NoteOnEvent(tick=0, channel=4, data=[69, 118]),
   midi.NoteOnEvent(tick=0, channel=4, data=[72, 118]),
   midi.NoteOnEvent(tick=108, channel=4, data=[72, 0]),
   midi.NoteOnEvent(tick=0, channel=4, data=[69, 0]),
   midi.NoteOnEvent(tick=0, channel=4, data=[67, 118]),
   midi.NoteOnEvent(tick=0, channel=4, data=[71, 118]),
   midi.ControlChangeEvent(tick=27, channel=4, data=[1, 63]),
   midi.ControlChangeEvent(tick=158, channel=4, data=[1, 0]),
   midi.NoteOnEvent(tick=27, channel=4, data=[71, 0]),
   midi.NoteOnEvent(tick=0, channel=4, data=[67, 0]),
   midi.NoteOnEvent(tick=4, channel=4, data=[72, 118]),
   midi.NoteOnEvent(tick=0, channel=4, data=[76, 118]),
   midi.NoteOnEvent(tick=108, channel=4, data=[76, 0]),
   midi.NoteOnEvent(tick=0, channel=4, data=[72, 0]),
   midi.NoteOnEvent(tick=0, channel=4, data=[71, 118]),
   midi.NoteOnEvent(tick=0, channel=4, data=[74, 118]),
   midi.ControlChangeEvent(tick=19, channel=4, data=[1, 61]),
   midi.ControlChangeEvent(tick=252, channel=4, data=[1, 0]),
   midi.NoteOnEvent(tick=49, channel=4, data=[74, 0]),
   midi.NoteOnEvent(tick=0, channel=4, data=[71, 0]),
   midi.NoteOnEvent(tick=4, channel=4, data=[74, 118]),
   midi.NoteOnEvent(tick=0, channel=4, data=[71, 118]),
   midi.NoteOnEvent(tick=54, channel=4, data=[71, 0]),
   midi.NoteOnEvent(tick=0, channel=4, data=[74, 0]),
   midi.NoteOnEvent(tick=0, channel=4, data=[72, 118]),
   midi.NoteOnEvent(tick=0, channel=4, data=[76, 118]),
   midi.NoteOnEvent(tick=54, channel=4, data=[76, 0]),
   midi.NoteOnEvent(tick=0, channel=4, data=[72, 0]),
   midi.NoteOnEvent(tick=0, channel=4, data=[69, 118]),
   midi.NoteOnEvent(tick=0, channel=4, data=[72, 118]),
   midi.ControlChangeEvent(tick=5, channel=4, data=[1, 61]),
   midi.ControlChangeEvent(tick=184, channel=4, data=[1, 0]),
   midi.NoteOnEvent(tick=27, channel=4, data=[72, 0]),
   midi.NoteOnEvent(tick=0, channel=4, data=[69, 0]),
   midi.NoteOnEvent(tick=0, channel=4, data=[71, 118]),
   midi.NoteOnEvent(tick=0, channel=4, data=[74, 118]),
   midi.NoteOnEvent(tick=162, channel=4, data=[74, 0]),
   midi.NoteOnEvent(tick=0, channel=4, data=[71, 0]),
   midi.NoteOnEvent(tick=0, channel=4, data=[72, 118]),
   midi.NoteOnEvent(tick=0, channel=4, data=[76, 118]),
   midi.NoteOnEvent(tick=54, channel=4, data=[76, 0]),
   midi.NoteOnEvent(tick=0, channel=4, data=[72, 0]),
   midi.NoteOnEvent(tick=0, channel=4, data=[69, 118]),
   midi.NoteOnEvent(tick=0, channel=4, data=[72, 118]),
   midi.ControlChangeEvent(tick=18, channel=4, data=[1, 62]),
   midi.ControlChangeEvent(tick=264, channel=4, data=[1, 0]),
   midi.NoteOnEvent(tick=38, channel=4, data=[72, 0]),
   midi.NoteOnEvent(tick=0, channel=4, data=[69, 0]),
   midi.NoteOnEvent(tick=4, channel=4, data=[71, 118]),
   midi.NoteOnEvent(tick=0, channel=4, data=[74, 118]),
   midi.NoteOnEvent(tick=54, channel=4, data=[74, 0]),
   midi.NoteOnEvent(tick=0, channel=4, data=[71, 0]),
   midi.NoteOnEvent(tick=0, channel=4, data=[72, 118]),
   midi.NoteOnEvent(tick=0, channel=4, data=[76, 118]),
   midi.NoteOnEvent(tick=54, channel=4, data=[76, 0]),
   midi.NoteOnEvent(tick=0, channel=4, data=[72, 0]),
   midi.NoteOnEvent(tick=0, channel=4, data=[69, 118]),
   midi.NoteOnEvent(tick=0, channel=4, data=[72, 118]),
   midi.NoteOnEvent(tick=108, channel=4, data=[72, 0]),
   midi.NoteOnEvent(tick=0, channel=4, data=[69, 0]),
   midi.NoteOnEvent(tick=0, channel=4, data=[67, 118]),
   midi.NoteOnEvent(tick=0, channel=4, data=[71, 118]),
   midi.ControlChangeEvent(tick=37, channel=4, data=[1, 61]),
   midi.ControlChangeEvent(tick=144, channel=4, data=[1, 0]),
   midi.NoteOnEvent(tick=31, channel=4, data=[71, 0]),
   midi.NoteOnEvent(tick=0, channel=4, data=[67, 0]),
   midi.NoteOnEvent(tick=4, channel=4, data=[72, 118]),
   midi.NoteOnEvent(tick=0, channel=4, data=[76, 118]),
   midi.NoteOnEvent(tick=108, channel=4, data=[76, 0]),
   midi.NoteOnEvent(tick=0, channel=4, data=[72, 0]),
   midi.NoteOnEvent(tick=0, channel=4, data=[71, 118]),
   midi.NoteOnEvent(tick=0, channel=4, data=[74, 118]),
   midi.ControlChangeEvent(tick=19, channel=4, data=[1, 63]),
   midi.ControlChangeEvent(tick=263, channel=4, data=[1, 0]),
   midi.NoteOnEvent(tick=38, channel=4, data=[74, 0]),
   midi.NoteOnEvent(tick=0, channel=4, data=[71, 0]),
   midi.NoteOnEvent(tick=4, channel=4, data=[74, 118]),
   midi.NoteOnEvent(tick=0, channel=4, data=[71, 118]),
   midi.NoteOnEvent(tick=54, channel=4, data=[71, 0]),
   midi.NoteOnEvent(tick=0, channel=4, data=[74, 0]),
   midi.NoteOnEvent(tick=0, channel=4, data=[72, 118]),
   midi.NoteOnEvent(tick=0, channel=4, data=[76, 118]),
   midi.NoteOnEvent(tick=54, channel=4, data=[76, 0]),
   midi.NoteOnEvent(tick=0, channel=4, data=[72, 0]),
   midi.NoteOnEvent(tick=0, channel=4, data=[69, 118]),
   midi.NoteOnEvent(tick=0, channel=4, data=[72, 118]),
   midi.ControlChangeEvent(tick=9, channel=4, data=[1, 62]),
   midi.ControlChangeEvent(tick=180, channel=4, data=[1, 0]),
   midi.NoteOnEvent(tick=27, channel=4, data=[72, 0]),
   midi.NoteOnEvent(tick=0, channel=4, data=[69, 0]),
   midi.NoteOnEvent(tick=0, channel=4, data=[71, 118]),
   midi.NoteOnEvent(tick=0, channel=4, data=[74, 118]),
   midi.NoteOnEvent(tick=162, channel=4, data=[74, 0]),
   midi.NoteOnEvent(tick=0, channel=4, data=[71, 0]),
   midi.NoteOnEvent(tick=0, channel=4, data=[72, 118]),
   midi.NoteOnEvent(tick=0, channel=4, data=[76, 118]),
   midi.NoteOnEvent(tick=54, channel=4, data=[76, 0]),
   midi.NoteOnEvent(tick=0, channel=4, data=[72, 0]),
   midi.NoteOnEvent(tick=0, channel=4, data=[69, 118]),
   midi.NoteOnEvent(tick=0, channel=4, data=[72, 118]),
   midi.ControlChangeEvent(tick=23, channel=4, data=[1, 61]),
   midi.ControlChangeEvent(tick=274, channel=4, data=[1, 0]),
   midi.NoteOnEvent(tick=23, channel=4, data=[72, 0]),
   midi.NoteOnEvent(tick=0, channel=4, data=[69, 0]),
   midi.NoteOnEvent(tick=4, channel=4, data=[71, 118]),
   midi.NoteOnEvent(tick=0, channel=4, data=[74, 118]),
   midi.NoteOnEvent(tick=54, channel=4, data=[74, 0]),
   midi.NoteOnEvent(tick=0, channel=4, data=[71, 0]),
   midi.NoteOnEvent(tick=0, channel=4, data=[72, 118]),
   midi.NoteOnEvent(tick=0, channel=4, data=[76, 118]),
   midi.NoteOnEvent(tick=54, channel=4, data=[76, 0]),
   midi.NoteOnEvent(tick=0, channel=4, data=[72, 0]),
   midi.NoteOnEvent(tick=0, channel=4, data=[69, 118]),
   midi.NoteOnEvent(tick=0, channel=4, data=[72, 118]),
   midi.NoteOnEvent(tick=108, channel=4, data=[72, 0]),
   midi.NoteOnEvent(tick=0, channel=4, data=[69, 0]),
   midi.NoteOnEvent(tick=0, channel=4, data=[67, 118]),
   midi.NoteOnEvent(tick=0, channel=4, data=[71, 118]),
   midi.ControlChangeEvent(tick=30, channel=4, data=[1, 62]),
   midi.ControlChangeEvent(tick=155, channel=4, data=[1, 0]),
   midi.NoteOnEvent(tick=27, channel=4, data=[71, 0]),
   midi.NoteOnEvent(tick=0, channel=4, data=[67, 0]),
   midi.NoteOnEvent(tick=4, channel=4, data=[72, 118]),
   midi.NoteOnEvent(tick=0, channel=4, data=[76, 118]),
   midi.NoteOnEvent(tick=108, channel=4, data=[76, 0]),
   midi.NoteOnEvent(tick=0, channel=4, data=[72, 0]),
   midi.NoteOnEvent(tick=0, channel=4, data=[71, 118]),
   midi.NoteOnEvent(tick=0, channel=4, data=[74, 118]),
   midi.ControlChangeEvent(tick=18, channel=4, data=[1, 61]),
   midi.ControlChangeEvent(tick=174, channel=4, data=[1, 0]),
   midi.NoteOnEvent(tick=24, channel=4, data=[74, 0]),
   midi.NoteOnEvent(tick=0, channel=4, data=[71, 0]),
   midi.NoteOnEvent(tick=0, channel=4, data=[40, 118]),
   midi.NoteOnEvent(tick=0, channel=4, data=[47, 118]),
   midi.NoteOnEvent(tick=0, channel=4, data=[52, 118]),
   midi.NoteOnEvent(tick=216, channel=4, data=[52, 0]),
   midi.NoteOnEvent(tick=0, channel=4, data=[47, 0]),
   midi.NoteOnEvent(tick=0, channel=4, data=[40, 0]),
   midi.NoteOnEvent(tick=0, channel=4, data=[47, 118]),
   midi.NoteOnEvent(tick=0, channel=4, data=[54, 118]),
   midi.NoteOnEvent(tick=0, channel=4, data=[59, 118]),
   midi.NoteOnEvent(tick=216, channel=4, data=[59, 0]),
   midi.NoteOnEvent(tick=0, channel=4, data=[54, 0]),
   midi.NoteOnEvent(tick=0, channel=4, data=[47, 0]),
   midi.NoteOnEvent(tick=0, channel=4, data=[43, 118]),
   midi.NoteOnEvent(tick=0, channel=4, data=[50, 118]),
   midi.NoteOnEvent(tick=0, channel=4, data=[55, 118]),
   midi.NoteOnEvent(tick=216, channel=4, data=[55, 0]),
   midi.NoteOnEvent(tick=0, channel=4, data=[50, 0]),
   midi.NoteOnEvent(tick=0, channel=4, data=[43, 0]),
   midi.NoteOnEvent(tick=0, channel=4, data=[51, 118]),
   midi.NoteOnEvent(tick=0, channel=4, data=[54, 118]),
   midi.NoteOnEvent(tick=216, channel=4, data=[54, 0]),
   midi.NoteOnEvent(tick=0, channel=4, data=[51, 0]),
   midi.NoteOnEvent(tick=0, channel=4, data=[40, 118]),
   midi.NoteOnEvent(tick=0, channel=4, data=[47, 118]),
   midi.NoteOnEvent(tick=0, channel=4, data=[52, 118]),
   midi.NoteOnEvent(tick=125, channel=4, data=[52, 0]),
   midi.NoteOnEvent(tick=0, channel=4, data=[47, 0]),
   midi.NoteOnEvent(tick=0, channel=4, data=[40, 0]),
   midi.NoteOnEvent(tick=3331, channel=4, data=[52, 127]),
   midi.NoteOnEvent(tick=0, channel=4, data=[47, 127]),
   midi.NoteOnEvent(tick=0, channel=4, data=[40, 127]),
   midi.NoteOnEvent(tick=104, channel=4, data=[47, 0]),
   midi.NoteOnEvent(tick=3, channel=4, data=[40, 0]),
   midi.NoteOnEvent(tick=0, channel=4, data=[52, 0]),
   midi.NoteOnEvent(tick=433, channel=4, data=[58, 127]),
   midi.NoteOnEvent(tick=0, channel=4, data=[53, 127]),
   midi.NoteOnEvent(tick=0, channel=4, data=[46, 127]),
   midi.NoteOnEvent(tick=107, channel=4, data=[53, 0]),
   midi.NoteOnEvent(tick=0, channel=4, data=[58, 0]),
   midi.NoteOnEvent(tick=1, channel=4, data=[46, 0]),
   midi.NoteOnEvent(tick=0, channel=4, data=[58, 127]),
   midi.NoteOnEvent(tick=0, channel=4, data=[53, 127]),
   midi.NoteOnEvent(tick=0, channel=4, data=[46, 127]),
   midi.NoteOnEvent(tick=107, channel=4, data=[53, 0]),
   midi.NoteOnEvent(tick=0, channel=4, data=[58, 0]),
   midi.NoteOnEvent(tick=1, channel=4, data=[46, 0]),
   midi.NoteOnEvent(tick=0, channel=4, data=[52, 127]),
   midi.NoteOnEvent(tick=0, channel=4, data=[57, 127]),
   midi.NoteOnEvent(tick=0, channel=4, data=[45, 127]),
   midi.NoteOnEvent(tick=107, channel=4, data=[57, 0]),
   midi.NoteOnEvent(tick=0, channel=4, data=[52, 0]),
   midi.NoteOnEvent(tick=1, channel=4, data=[45, 0]),
   midi.NoteOnEvent(tick=0, channel=4, data=[52, 127]),
   midi.NoteOnEvent(tick=0, channel=4, data=[47, 127]),
   midi.NoteOnEvent(tick=0, channel=4, data=[40, 127]),
   midi.NoteOnEvent(tick=104, channel=4, data=[40, 0]),
   midi.NoteOnEvent(tick=3, channel=4, data=[47, 0]),
   midi.NoteOnEvent(tick=0, channel=4, data=[52, 0]),
   midi.NoteOnEvent(tick=1621, channel=4, data=[47, 100]),
   midi.NoteOnEvent(tick=0, channel=4, data=[54, 100]),
   midi.NoteOnEvent(tick=0, channel=4, data=[59, 100]),
   midi.NoteOnEvent(tick=108, channel=4, data=[59, 0]),
   midi.NoteOnEvent(tick=0, channel=4, data=[54, 0]),
   midi.NoteOnEvent(tick=0, channel=4, data=[47, 0]),
   midi.NoteOnEvent(tick=0, channel=4, data=[45, 100]),
   midi.NoteOnEvent(tick=0, channel=4, data=[52, 100]),
   midi.NoteOnEvent(tick=0, channel=4, data=[57, 100]),
   midi.NoteOnEvent(tick=108, channel=4, data=[57, 0]),
   midi.NoteOnEvent(tick=0, channel=4, data=[52, 0]),
   midi.NoteOnEvent(tick=0, channel=4, data=[45, 0]),
   midi.NoteOnEvent(tick=108, channel=4, data=[45, 100]),
   midi.NoteOnEvent(tick=0, channel=4, data=[52, 100]),
   midi.NoteOnEvent(tick=0, channel=4, data=[57, 100]),
   midi.NoteOnEvent(tick=108, channel=4, data=[57, 0]),
   midi.NoteOnEvent(tick=0, channel=4, data=[52, 0]),
   midi.NoteOnEvent(tick=0, channel=4, data=[45, 0]),
   midi.NoteOnEvent(tick=108, channel=4, data=[45, 100]),
   midi.NoteOnEvent(tick=0, channel=4, data=[52, 100]),
   midi.NoteOnEvent(tick=0, channel=4, data=[57, 100]),
   midi.NoteOnEvent(tick=108, channel=4, data=[57, 0]),
   midi.NoteOnEvent(tick=0, channel=4, data=[52, 0]),
   midi.NoteOnEvent(tick=0, channel=4, data=[45, 0]),
   midi.NoteOnEvent(tick=108, channel=4, data=[45, 100]),
   midi.NoteOnEvent(tick=0, channel=4, data=[52, 100]),
   midi.NoteOnEvent(tick=0, channel=4, data=[57, 100]),
   midi.NoteOnEvent(tick=108, channel=4, data=[57, 0]),
   midi.NoteOnEvent(tick=0, channel=4, data=[52, 0]),
   midi.NoteOnEvent(tick=0, channel=4, data=[45, 0]),
   midi.NoteOnEvent(tick=0, channel=4, data=[40, 100]),
   midi.NoteOnEvent(tick=108, channel=4, data=[40, 0]),
   midi.NoteOnEvent(tick=0, channel=4, data=[52, 100]),
   midi.NoteOnEvent(tick=0, channel=4, data=[47, 100]),
   midi.NoteOnEvent(tick=0, channel=4, data=[40, 100]),
   midi.NoteOnEvent(tick=54, channel=4, data=[40, 0]),
   midi.NoteOnEvent(tick=0, channel=4, data=[47, 0]),
   midi.NoteOnEvent(tick=0, channel=4, data=[52, 0]),
   midi.NoteOnEvent(tick=0, channel=4, data=[52, 100]),
   midi.NoteOnEvent(tick=0, channel=4, data=[47, 100]),
   midi.NoteOnEvent(tick=0, channel=4, data=[40, 100]),
   midi.NoteOnEvent(tick=54, channel=4, data=[40, 0]),
   midi.NoteOnEvent(tick=0, channel=4, data=[47, 0]),
   midi.NoteOnEvent(tick=0, channel=4, data=[52, 0]),
   midi.NoteOnEvent(tick=0, channel=4, data=[40, 100]),
   midi.NoteOnEvent(tick=108, channel=4, data=[40, 0]),
   midi.NoteOnEvent(tick=0, channel=4, data=[52, 100]),
   midi.NoteOnEvent(tick=0, channel=4, data=[47, 100]),
   midi.NoteOnEvent(tick=0, channel=4, data=[40, 100]),
   midi.NoteOnEvent(tick=54, channel=4, data=[40, 0]),
   midi.NoteOnEvent(tick=0, channel=4, data=[47, 0]),
   midi.NoteOnEvent(tick=0, channel=4, data=[52, 0]),
   midi.NoteOnEvent(tick=0, channel=4, data=[52, 100]),
   midi.NoteOnEvent(tick=0, channel=4, data=[47, 100]),
   midi.NoteOnEvent(tick=0, channel=4, data=[40, 100]),
   midi.NoteOnEvent(tick=54, channel=4, data=[40, 0]),
   midi.NoteOnEvent(tick=0, channel=4, data=[47, 0]),
   midi.NoteOnEvent(tick=0, channel=4, data=[52, 0]),
   midi.NoteOnEvent(tick=0, channel=4, data=[40, 100]),
   midi.NoteOnEvent(tick=108, channel=4, data=[40, 0]),
   midi.NoteOnEvent(tick=0, channel=4, data=[46, 100]),
   midi.NoteOnEvent(tick=0, channel=4, data=[53, 100]),
   midi.NoteOnEvent(tick=0, channel=4, data=[58, 100]),
   midi.NoteOnEvent(tick=108, channel=4, data=[58, 0]),
   midi.NoteOnEvent(tick=0, channel=4, data=[53, 0]),
   midi.NoteOnEvent(tick=0, channel=4, data=[46, 0]),
   midi.NoteOnEvent(tick=0, channel=4, data=[46, 100]),
   midi.NoteOnEvent(tick=0, channel=4, data=[53, 100]),
   midi.NoteOnEvent(tick=0, channel=4, data=[58, 100]),
   midi.NoteOnEvent(tick=108, channel=4, data=[58, 0]),
   midi.NoteOnEvent(tick=0, channel=4, data=[53, 0]),
   midi.NoteOnEvent(tick=0, channel=4, data=[46, 0]),
   midi.NoteOnEvent(tick=0, channel=4, data=[45, 100]),
   midi.NoteOnEvent(tick=0, channel=4, data=[52, 100]),
   midi.NoteOnEvent(tick=0, channel=4, data=[57, 100]),
   midi.NoteOnEvent(tick=108, channel=4, data=[57, 0]),
   midi.NoteOnEvent(tick=0, channel=4, data=[52, 0]),
   midi.NoteOnEvent(tick=0, channel=4, data=[45, 0]),
   midi.NoteOnEvent(tick=0, channel=4, data=[40, 100]),
   midi.NoteOnEvent(tick=108, channel=4, data=[40, 0]),
   midi.NoteOnEvent(tick=0, channel=4, data=[52, 100]),
   midi.NoteOnEvent(tick=0, channel=4, data=[47, 100]),
   midi.NoteOnEvent(tick=0, channel=4, data=[40, 100]),
   midi.NoteOnEvent(tick=54, channel=4, data=[40, 0]),
   midi.NoteOnEvent(tick=0, channel=4, data=[47, 0]),
   midi.NoteOnEvent(tick=0, channel=4, data=[52, 0]),
   midi.NoteOnEvent(tick=0, channel=4, data=[47, 100]),
   midi.NoteOnEvent(tick=0, channel=4, data=[52, 100]),
   midi.NoteOnEvent(tick=0, channel=4, data=[40, 100]),
   midi.NoteOnEvent(tick=54, channel=4, data=[40, 0]),
   midi.NoteOnEvent(tick=0, channel=4, data=[52, 0]),
   midi.NoteOnEvent(tick=0, channel=4, data=[47, 0]),
   midi.NoteOnEvent(tick=0, channel=4, data=[40, 100]),
   midi.NoteOnEvent(tick=108, channel=4, data=[40, 0]),
   midi.NoteOnEvent(tick=0, channel=4, data=[52, 100]),
   midi.NoteOnEvent(tick=0, channel=4, data=[47, 100]),
   midi.NoteOnEvent(tick=0, channel=4, data=[40, 100]),
   midi.NoteOnEvent(tick=54, channel=4, data=[40, 0]),
   midi.NoteOnEvent(tick=0, channel=4, data=[47, 0]),
   midi.NoteOnEvent(tick=0, channel=4, data=[52, 0]),
   midi.NoteOnEvent(tick=0, channel=4, data=[47, 100]),
   midi.NoteOnEvent(tick=0, channel=4, data=[52, 100]),
   midi.NoteOnEvent(tick=0, channel=4, data=[40, 100]),
   midi.NoteOnEvent(tick=54, channel=4, data=[40, 0]),
   midi.NoteOnEvent(tick=0, channel=4, data=[52, 0]),
   midi.NoteOnEvent(tick=0, channel=4, data=[47, 0]),
   midi.NoteOnEvent(tick=0, channel=4, data=[40, 100]),
   midi.NoteOnEvent(tick=108, channel=4, data=[40, 0]),
   midi.NoteOnEvent(tick=0, channel=4, data=[52, 100]),
   midi.NoteOnEvent(tick=0, channel=4, data=[55, 100]),
   midi.NoteOnEvent(tick=108, channel=4, data=[55, 0]),
   midi.NoteOnEvent(tick=0, channel=4, data=[52, 0]),
   midi.NoteOnEvent(tick=0, channel=4, data=[52, 100]),
   midi.NoteOnEvent(tick=0, channel=4, data=[55, 100]),
   midi.NoteOnEvent(tick=108, channel=4, data=[55, 0]),
   midi.NoteOnEvent(tick=0, channel=4, data=[52, 0]),
   midi.NoteOnEvent(tick=0, channel=4, data=[54, 100]),
   midi.NoteOnEvent(tick=0, channel=4, data=[51, 100]),
   midi.NoteOnEvent(tick=108, channel=4, data=[51, 0]),
   midi.NoteOnEvent(tick=0, channel=4, data=[54, 0]),
   midi.NoteOnEvent(tick=0, channel=4, data=[52, 100]),
   midi.NoteOnEvent(tick=0, channel=4, data=[55, 100]),
   midi.NoteOnEvent(tick=108, channel=4, data=[55, 0]),
   midi.NoteOnEvent(tick=0, channel=4, data=[52, 0]),
   midi.NoteOnEvent(tick=0, channel=4, data=[52, 100]),
   midi.NoteOnEvent(tick=0, channel=4, data=[47, 100]),
   midi.NoteOnEvent(tick=0, channel=4, data=[40, 100]),
   midi.NoteOnEvent(tick=54, channel=4, data=[40, 0]),
   midi.NoteOnEvent(tick=0, channel=4, data=[47, 0]),
   midi.NoteOnEvent(tick=0, channel=4, data=[52, 0]),
   midi.NoteOnEvent(tick=0, channel=4, data=[47, 100]),
   midi.NoteOnEvent(tick=0, channel=4, data=[52, 100]),
   midi.NoteOnEvent(tick=0, channel=4, data=[40, 100]),
   midi.NoteOnEvent(tick=54, channel=4, data=[40, 0]),
   midi.NoteOnEvent(tick=0, channel=4, data=[52, 0]),
   midi.NoteOnEvent(tick=0, channel=4, data=[47, 0]),
   midi.NoteOnEvent(tick=0, channel=4, data=[40, 100]),
   midi.NoteOnEvent(tick=108, channel=4, data=[40, 0]),
   midi.NoteOnEvent(tick=0, channel=4, data=[52, 100]),
   midi.NoteOnEvent(tick=0, channel=4, data=[47, 100]),
   midi.NoteOnEvent(tick=0, channel=4, data=[40, 100]),
   midi.NoteOnEvent(tick=54, channel=4, data=[40, 0]),
   midi.NoteOnEvent(tick=0, channel=4, data=[47, 0]),
   midi.NoteOnEvent(tick=0, channel=4, data=[52, 0]),
   midi.NoteOnEvent(tick=0, channel=4, data=[47, 100]),
   midi.NoteOnEvent(tick=0, channel=4, data=[52, 100]),
   midi.NoteOnEvent(tick=0, channel=4, data=[40, 100]),
   midi.NoteOnEvent(tick=54, channel=4, data=[40, 0]),
   midi.NoteOnEvent(tick=0, channel=4, data=[52, 0]),
   midi.NoteOnEvent(tick=0, channel=4, data=[47, 0]),
   midi.NoteOnEvent(tick=0, channel=4, data=[40, 100]),
   midi.NoteOnEvent(tick=108, channel=4, data=[40, 0]),
   midi.NoteOnEvent(tick=0, channel=4, data=[46, 100]),
   midi.NoteOnEvent(tick=0, channel=4, data=[53, 100]),
   midi.NoteOnEvent(tick=0, channel=4, data=[58, 100]),
   midi.NoteOnEvent(tick=108, channel=4, data=[58, 0]),
   midi.NoteOnEvent(tick=0, channel=4, data=[53, 0]),
   midi.NoteOnEvent(tick=0, channel=4, data=[46, 0]),
   midi.NoteOnEvent(tick=0, channel=4, data=[46, 100]),
   midi.NoteOnEvent(tick=0, channel=4, data=[53, 100]),
   midi.NoteOnEvent(tick=0, channel=4, data=[58, 100]),
   midi.NoteOnEvent(tick=108, channel=4, data=[58, 0]),
   midi.NoteOnEvent(tick=0, channel=4, data=[53, 0]),
   midi.NoteOnEvent(tick=0, channel=4, data=[46, 0]),
   midi.NoteOnEvent(tick=0, channel=4, data=[45, 100]),
   midi.NoteOnEvent(tick=0, channel=4, data=[52, 100]),
   midi.NoteOnEvent(tick=0, channel=4, data=[57, 100]),
   midi.NoteOnEvent(tick=108, channel=4, data=[57, 0]),
   midi.NoteOnEvent(tick=0, channel=4, data=[52, 0]),
   midi.NoteOnEvent(tick=0, channel=4, data=[45, 0]),
   midi.NoteOnEvent(tick=0, channel=4, data=[40, 100]),
   midi.NoteOnEvent(tick=108, channel=4, data=[40, 0]),
   midi.NoteOnEvent(tick=0, channel=4, data=[42, 100]),
   midi.NoteOnEvent(tick=0, channel=4, data=[49, 100]),
   midi.NoteOnEvent(tick=0, channel=4, data=[54, 100]),
   midi.NoteOnEvent(tick=216, channel=4, data=[54, 0]),
   midi.NoteOnEvent(tick=0, channel=4, data=[49, 0]),
   midi.NoteOnEvent(tick=0, channel=4, data=[42, 0]),
   midi.NoteOnEvent(tick=0, channel=4, data=[43, 100]),
   midi.NoteOnEvent(tick=0, channel=4, data=[50, 100]),
   midi.NoteOnEvent(tick=0, channel=4, data=[55, 100]),
   midi.NoteOnEvent(tick=108, channel=4, data=[55, 0]),
   midi.NoteOnEvent(tick=0, channel=4, data=[50, 0]),
   midi.NoteOnEvent(tick=0, channel=4, data=[43, 0]),
   midi.NoteOnEvent(tick=0, channel=4, data=[40, 100]),
   midi.NoteOnEvent(tick=108, channel=4, data=[40, 0]),
   midi.NoteOnEvent(tick=0, channel=4, data=[55, 100]),
   midi.NoteOnEvent(tick=0, channel=4, data=[50, 100]),
   midi.NoteOnEvent(tick=0, channel=4, data=[43, 100]),
   midi.NoteOnEvent(tick=216, channel=4, data=[43, 0]),
   midi.NoteOnEvent(tick=0, channel=4, data=[50, 0]),
   midi.NoteOnEvent(tick=0, channel=4, data=[55, 0]),
   midi.NoteOnEvent(tick=0, channel=4, data=[44, 100]),
   midi.NoteOnEvent(tick=0, channel=4, data=[51, 100]),
   midi.NoteOnEvent(tick=0, channel=4, data=[56, 100]),
   midi.NoteOnEvent(tick=108, channel=4, data=[56, 0]),
   midi.NoteOnEvent(tick=0, channel=4, data=[51, 0]),
   midi.NoteOnEvent(tick=0, channel=4, data=[44, 0]),
   midi.NoteOnEvent(tick=0, channel=4, data=[40, 100]),
   midi.NoteOnEvent(tick=108, channel=4, data=[40, 0]),
   midi.NoteOnEvent(tick=0, channel=4, data=[52, 100]),
   midi.NoteOnEvent(tick=0, channel=4, data=[47, 100]),
   midi.NoteOnEvent(tick=0, channel=4, data=[40, 100]),
   midi.NoteOnEvent(tick=54, channel=4, data=[40, 0]),
   midi.NoteOnEvent(tick=0, channel=4, data=[47, 0]),
   midi.NoteOnEvent(tick=0, channel=4, data=[52, 0]),
   midi.NoteOnEvent(tick=0, channel=4, data=[47, 100]),
   midi.NoteOnEvent(tick=0, channel=4, data=[52, 100]),
   midi.NoteOnEvent(tick=0, channel=4, data=[40, 100]),
   midi.NoteOnEvent(tick=54, channel=4, data=[40, 0]),
   midi.NoteOnEvent(tick=0, channel=4, data=[52, 0]),
   midi.NoteOnEvent(tick=0, channel=4, data=[47, 0]),
   midi.NoteOnEvent(tick=0, channel=4, data=[40, 100]),
   midi.NoteOnEvent(tick=108, channel=4, data=[40, 0]),
   midi.NoteOnEvent(tick=0, channel=4, data=[52, 100]),
   midi.NoteOnEvent(tick=0, channel=4, data=[47, 100]),
   midi.NoteOnEvent(tick=0, channel=4, data=[40, 100]),
   midi.NoteOnEvent(tick=54, channel=4, data=[40, 0]),
   midi.NoteOnEvent(tick=0, channel=4, data=[47, 0]),
   midi.NoteOnEvent(tick=0, channel=4, data=[52, 0]),
   midi.NoteOnEvent(tick=0, channel=4, data=[47, 100]),
   midi.NoteOnEvent(tick=0, channel=4, data=[52, 100]),
   midi.NoteOnEvent(tick=0, channel=4, data=[40, 100]),
   midi.NoteOnEvent(tick=54, channel=4, data=[40, 0]),
   midi.NoteOnEvent(tick=0, channel=4, data=[52, 0]),
   midi.NoteOnEvent(tick=0, channel=4, data=[47, 0]),
   midi.NoteOnEvent(tick=0, channel=4, data=[40, 100]),
   midi.NoteOnEvent(tick=108, channel=4, data=[40, 0]),
   midi.NoteOnEvent(tick=0, channel=4, data=[46, 100]),
   midi.NoteOnEvent(tick=0, channel=4, data=[53, 100]),
   midi.NoteOnEvent(tick=0, channel=4, data=[58, 100]),
   midi.NoteOnEvent(tick=108, channel=4, data=[58, 0]),
   midi.NoteOnEvent(tick=0, channel=4, data=[53, 0]),
   midi.NoteOnEvent(tick=0, channel=4, data=[46, 0]),
   midi.NoteOnEvent(tick=0, channel=4, data=[46, 100]),
   midi.NoteOnEvent(tick=0, channel=4, data=[53, 100]),
   midi.NoteOnEvent(tick=0, channel=4, data=[58, 100]),
   midi.NoteOnEvent(tick=108, channel=4, data=[58, 0]),
   midi.NoteOnEvent(tick=0, channel=4, data=[53, 0]),
   midi.NoteOnEvent(tick=0, channel=4, data=[46, 0]),
   midi.NoteOnEvent(tick=0, channel=4, data=[45, 100]),
   midi.NoteOnEvent(tick=0, channel=4, data=[52, 100]),
   midi.NoteOnEvent(tick=0, channel=4, data=[57, 100]),
   midi.NoteOnEvent(tick=108, channel=4, data=[57, 0]),
   midi.NoteOnEvent(tick=0, channel=4, data=[52, 0]),
   midi.NoteOnEvent(tick=0, channel=4, data=[45, 0]),
   midi.NoteOnEvent(tick=0, channel=4, data=[40, 100]),
   midi.NoteOnEvent(tick=108, channel=4, data=[40, 0]),
   midi.NoteOnEvent(tick=0, channel=4, data=[52, 100]),
   midi.NoteOnEvent(tick=0, channel=4, data=[47, 100]),
   midi.NoteOnEvent(tick=0, channel=4, data=[40, 100]),
   midi.NoteOnEvent(tick=54, channel=4, data=[40, 0]),
   midi.NoteOnEvent(tick=0, channel=4, data=[47, 0]),
   midi.NoteOnEvent(tick=0, channel=4, data=[52, 0]),
   midi.NoteOnEvent(tick=0, channel=4, data=[47, 100]),
   midi.NoteOnEvent(tick=0, channel=4, data=[52, 100]),
   midi.NoteOnEvent(tick=0, channel=4, data=[40, 100]),
   midi.NoteOnEvent(tick=54, channel=4, data=[40, 0]),
   midi.NoteOnEvent(tick=0, channel=4, data=[52, 0]),
   midi.NoteOnEvent(tick=0, channel=4, data=[47, 0]),
   midi.NoteOnEvent(tick=0, channel=4, data=[40, 100]),
   midi.NoteOnEvent(tick=108, channel=4, data=[40, 0]),
   midi.NoteOnEvent(tick=0, channel=4, data=[52, 100]),
   midi.NoteOnEvent(tick=0, channel=4, data=[47, 100]),
   midi.NoteOnEvent(tick=0, channel=4, data=[40, 100]),
   midi.NoteOnEvent(tick=54, channel=4, data=[40, 0]),
   midi.NoteOnEvent(tick=0, channel=4, data=[47, 0]),
   midi.NoteOnEvent(tick=0, channel=4, data=[52, 0]),
   midi.NoteOnEvent(tick=0, channel=4, data=[52, 100]),
   midi.NoteOnEvent(tick=0, channel=4, data=[47, 100]),
   midi.NoteOnEvent(tick=0, channel=4, data=[40, 100]),
   midi.NoteOnEvent(tick=54, channel=4, data=[40, 0]),
   midi.NoteOnEvent(tick=0, channel=4, data=[47, 0]),
   midi.NoteOnEvent(tick=0, channel=4, data=[52, 0]),
   midi.NoteOnEvent(tick=0, channel=4, data=[40, 100]),
   midi.NoteOnEvent(tick=108, channel=4, data=[40, 0]),
   midi.NoteOnEvent(tick=0, channel=4, data=[52, 100]),
   midi.NoteOnEvent(tick=0, channel=4, data=[55, 100]),
   midi.NoteOnEvent(tick=108, channel=4, data=[55, 0]),
   midi.NoteOnEvent(tick=0, channel=4, data=[52, 0]),
   midi.NoteOnEvent(tick=0, channel=4, data=[52, 100]),
   midi.NoteOnEvent(tick=0, channel=4, data=[55, 100]),
   midi.NoteOnEvent(tick=108, channel=4, data=[55, 0]),
   midi.NoteOnEvent(tick=0, channel=4, data=[52, 0]),
   midi.NoteOnEvent(tick=0, channel=4, data=[54, 100]),
   midi.NoteOnEvent(tick=0, channel=4, data=[51, 100]),
   midi.NoteOnEvent(tick=108, channel=4, data=[51, 0]),
   midi.NoteOnEvent(tick=0, channel=4, data=[54, 0]),
   midi.NoteOnEvent(tick=0, channel=4, data=[52, 100]),
   midi.NoteOnEvent(tick=0, channel=4, data=[55, 100]),
   midi.NoteOnEvent(tick=108, channel=4, data=[55, 0]),
   midi.NoteOnEvent(tick=0, channel=4, data=[52, 0]),
   midi.NoteOnEvent(tick=0, channel=4, data=[52, 100]),
   midi.NoteOnEvent(tick=0, channel=4, data=[47, 100]),
   midi.NoteOnEvent(tick=0, channel=4, data=[40, 100]),
   midi.NoteOnEvent(tick=54, channel=4, data=[40, 0]),
   midi.NoteOnEvent(tick=0, channel=4, data=[47, 0]),
   midi.NoteOnEvent(tick=0, channel=4, data=[52, 0]),
   midi.NoteOnEvent(tick=0, channel=4, data=[47, 100]),
   midi.NoteOnEvent(tick=0, channel=4, data=[52, 100]),
   midi.NoteOnEvent(tick=0, channel=4, data=[40, 100]),
   midi.NoteOnEvent(tick=54, channel=4, data=[40, 0]),
   midi.NoteOnEvent(tick=0, channel=4, data=[52, 0]),
   midi.NoteOnEvent(tick=0, channel=4, data=[47, 0]),
   midi.NoteOnEvent(tick=0, channel=4, data=[40, 100]),
   midi.NoteOnEvent(tick=108, channel=4, data=[40, 0]),
   midi.NoteOnEvent(tick=0, channel=4, data=[52, 100]),
   midi.NoteOnEvent(tick=0, channel=4, data=[47, 100]),
   midi.NoteOnEvent(tick=0, channel=4, data=[40, 100]),
   midi.NoteOnEvent(tick=54, channel=4, data=[40, 0]),
   midi.NoteOnEvent(tick=0, channel=4, data=[47, 0]),
   midi.NoteOnEvent(tick=0, channel=4, data=[52, 0]),
   midi.NoteOnEvent(tick=0, channel=4, data=[52, 100]),
   midi.NoteOnEvent(tick=0, channel=4, data=[47, 100]),
   midi.NoteOnEvent(tick=0, channel=4, data=[40, 100]),
   midi.NoteOnEvent(tick=54, channel=4, data=[40, 0]),
   midi.NoteOnEvent(tick=0, channel=4, data=[47, 0]),
   midi.NoteOnEvent(tick=0, channel=4, data=[52, 0]),
   midi.NoteOnEvent(tick=0, channel=4, data=[40, 100]),
   midi.NoteOnEvent(tick=108, channel=4, data=[40, 0]),
   midi.NoteOnEvent(tick=0, channel=4, data=[46, 100]),
   midi.NoteOnEvent(tick=0, channel=4, data=[53, 100]),
   midi.NoteOnEvent(tick=0, channel=4, data=[58, 100]),
   midi.NoteOnEvent(tick=108, channel=4, data=[58, 0]),
   midi.NoteOnEvent(tick=0, channel=4, data=[53, 0]),
   midi.NoteOnEvent(tick=0, channel=4, data=[46, 0]),
   midi.NoteOnEvent(tick=0, channel=4, data=[46, 100]),
   midi.NoteOnEvent(tick=0, channel=4, data=[53, 100]),
   midi.NoteOnEvent(tick=0, channel=4, data=[58, 100]),
   midi.NoteOnEvent(tick=108, channel=4, data=[58, 0]),
   midi.NoteOnEvent(tick=0, channel=4, data=[53, 0]),
   midi.NoteOnEvent(tick=0, channel=4, data=[46, 0]),
   midi.NoteOnEvent(tick=0, channel=4, data=[45, 100]),
   midi.NoteOnEvent(tick=0, channel=4, data=[52, 100]),
   midi.NoteOnEvent(tick=0, channel=4, data=[57, 100]),
   midi.NoteOnEvent(tick=108, channel=4, data=[57, 0]),
   midi.NoteOnEvent(tick=0, channel=4, data=[52, 0]),
   midi.NoteOnEvent(tick=0, channel=4, data=[45, 0]),
   midi.NoteOnEvent(tick=0, channel=4, data=[47, 100]),
   midi.NoteOnEvent(tick=0, channel=4, data=[54, 100]),
   midi.NoteOnEvent(tick=0, channel=4, data=[59, 100]),
   midi.NoteOnEvent(tick=108, channel=4, data=[59, 0]),
   midi.NoteOnEvent(tick=0, channel=4, data=[54, 0]),
   midi.NoteOnEvent(tick=0, channel=4, data=[47, 0]),
   midi.NoteOnEvent(tick=0, channel=4, data=[45, 100]),
   midi.NoteOnEvent(tick=0, channel=4, data=[52, 100]),
   midi.NoteOnEvent(tick=0, channel=4, data=[57, 100]),
   midi.NoteOnEvent(tick=108, channel=4, data=[57, 0]),
   midi.NoteOnEvent(tick=0, channel=4, data=[52, 0]),
   midi.NoteOnEvent(tick=0, channel=4, data=[45, 0]),
   midi.NoteOnEvent(tick=108, channel=4, data=[45, 100]),
   midi.NoteOnEvent(tick=0, channel=4, data=[52, 100]),
   midi.NoteOnEvent(tick=0, channel=4, data=[57, 100]),
   midi.NoteOnEvent(tick=108, channel=4, data=[57, 0]),
   midi.NoteOnEvent(tick=0, channel=4, data=[52, 0]),
   midi.NoteOnEvent(tick=0, channel=4, data=[45, 0]),
   midi.NoteOnEvent(tick=108, channel=4, data=[45, 100]),
   midi.NoteOnEvent(tick=0, channel=4, data=[52, 100]),
   midi.NoteOnEvent(tick=0, channel=4, data=[57, 100]),
   midi.NoteOnEvent(tick=108, channel=4, data=[57, 0]),
   midi.NoteOnEvent(tick=0, channel=4, data=[52, 0]),
   midi.NoteOnEvent(tick=0, channel=4, data=[45, 0]),
   midi.NoteOnEvent(tick=108, channel=4, data=[45, 100]),
   midi.NoteOnEvent(tick=0, channel=4, data=[52, 100]),
   midi.NoteOnEvent(tick=0, channel=4, data=[57, 100]),
   midi.NoteOnEvent(tick=108, channel=4, data=[57, 0]),
   midi.NoteOnEvent(tick=0, channel=4, data=[52, 0]),
   midi.NoteOnEvent(tick=0, channel=4, data=[45, 0]),
   midi.NoteOnEvent(tick=0, channel=4, data=[52, 100]),
   midi.NoteOnEvent(tick=0, channel=4, data=[47, 100]),
   midi.NoteOnEvent(tick=0, channel=4, data=[40, 100]),
   midi.NoteOnEvent(tick=864, channel=4, data=[40, 0]),
   midi.NoteOnEvent(tick=0, channel=4, data=[47, 0]),
   midi.NoteOnEvent(tick=0, channel=4, data=[52, 0]),
   midi.NoteOnEvent(tick=0, channel=4, data=[55, 100]),
   midi.NoteOnEvent(tick=0, channel=4, data=[50, 100]),
   midi.NoteOnEvent(tick=0, channel=4, data=[43, 100]),
   midi.NoteOnEvent(tick=860, channel=4, data=[43, 0]),
   midi.NoteOnEvent(tick=0, channel=4, data=[50, 0]),
   midi.NoteOnEvent(tick=0, channel=4, data=[55, 0]),
   midi.NoteOnEvent(tick=4, channel=4, data=[57, 100]),
   midi.NoteOnEvent(tick=0, channel=4, data=[52, 100]),
   midi.NoteOnEvent(tick=0, channel=4, data=[45, 100]),
   midi.NoteOnEvent(tick=428, channel=4, data=[45, 0]),
   midi.NoteOnEvent(tick=0, channel=4, data=[52, 0]),
   midi.NoteOnEvent(tick=0, channel=4, data=[57, 0]),
   midi.NoteOnEvent(tick=4, channel=4, data=[53, 100]),
   midi.NoteOnEvent(tick=0, channel=4, data=[48, 100]),
   midi.NoteOnEvent(tick=0, channel=4, data=[41, 100]),
   midi.NoteOnEvent(tick=104, channel=4, data=[41, 0]),
   midi.NoteOnEvent(tick=0, channel=4, data=[48, 0]),
   midi.NoteOnEvent(tick=0, channel=4, data=[53, 0]),
   midi.NoteOnEvent(tick=4, channel=4, data=[53, 100]),
   midi.NoteOnEvent(tick=0, channel=4, data=[48, 100]),
   midi.NoteOnEvent(tick=0, channel=4, data=[41, 100]),
   midi.NoteOnEvent(tick=104, channel=4, data=[41, 0]),
   midi.NoteOnEvent(tick=0, channel=4, data=[48, 0]),
   midi.NoteOnEvent(tick=0, channel=4, data=[53, 0]),
   midi.NoteOnEvent(tick=4, channel=4, data=[42, 100]),
   midi.NoteOnEvent(tick=0, channel=4, data=[51, 100]),
   midi.NoteOnEvent(tick=0, channel=4, data=[47, 100]),
   midi.NoteOnEvent(tick=212, channel=4, data=[47, 0]),
   midi.NoteOnEvent(tick=0, channel=4, data=[51, 0]),
   midi.NoteOnEvent(tick=0, channel=4, data=[42, 0]),
   midi.NoteOnEvent(tick=4, channel=4, data=[40, 100]),
   midi.NoteOnEvent(tick=108, channel=4, data=[40, 0]),
   midi.NoteOnEvent(tick=0, channel=4, data=[52, 100]),
   midi.NoteOnEvent(tick=0, channel=4, data=[47, 100]),
   midi.NoteOnEvent(tick=0, channel=4, data=[40, 100]),
   midi.NoteOnEvent(tick=54, channel=4, data=[40, 0]),
   midi.NoteOnEvent(tick=0, channel=4, data=[47, 0]),
   midi.NoteOnEvent(tick=0, channel=4, data=[52, 0]),
   midi.NoteOnEvent(tick=0, channel=4, data=[52, 100]),
   midi.NoteOnEvent(tick=0, channel=4, data=[47, 100]),
   midi.NoteOnEvent(tick=0, channel=4, data=[40, 100]),
   midi.NoteOnEvent(tick=54, channel=4, data=[40, 0]),
   midi.NoteOnEvent(tick=0, channel=4, data=[47, 0]),
   midi.NoteOnEvent(tick=0, channel=4, data=[52, 0]),
   midi.NoteOnEvent(tick=0, channel=4, data=[40, 100]),
   midi.NoteOnEvent(tick=108, channel=4, data=[40, 0]),
   midi.NoteOnEvent(tick=0, channel=4, data=[52, 100]),
   midi.NoteOnEvent(tick=0, channel=4, data=[47, 100]),
   midi.NoteOnEvent(tick=0, channel=4, data=[40, 100]),
   midi.NoteOnEvent(tick=54, channel=4, data=[40, 0]),
   midi.NoteOnEvent(tick=0, channel=4, data=[47, 0]),
   midi.NoteOnEvent(tick=0, channel=4, data=[52, 0]),
   midi.NoteOnEvent(tick=0, channel=4, data=[52, 100]),
   midi.NoteOnEvent(tick=0, channel=4, data=[47, 100]),
   midi.NoteOnEvent(tick=0, channel=4, data=[40, 100]),
   midi.NoteOnEvent(tick=54, channel=4, data=[40, 0]),
   midi.NoteOnEvent(tick=0, channel=4, data=[47, 0]),
   midi.NoteOnEvent(tick=0, channel=4, data=[52, 0]),
   midi.NoteOnEvent(tick=0, channel=4, data=[40, 100]),
   midi.NoteOnEvent(tick=108, channel=4, data=[40, 0]),
   midi.NoteOnEvent(tick=0, channel=4, data=[46, 100]),
   midi.NoteOnEvent(tick=0, channel=4, data=[53, 100]),
   midi.NoteOnEvent(tick=0, channel=4, data=[58, 100]),
   midi.NoteOnEvent(tick=108, channel=4, data=[58, 0]),
   midi.NoteOnEvent(tick=0, channel=4, data=[53, 0]),
   midi.NoteOnEvent(tick=0, channel=4, data=[46, 0]),
   midi.NoteOnEvent(tick=0, channel=4, data=[46, 100]),
   midi.NoteOnEvent(tick=0, channel=4, data=[53, 100]),
   midi.NoteOnEvent(tick=0, channel=4, data=[58, 100]),
   midi.NoteOnEvent(tick=108, channel=4, data=[58, 0]),
   midi.NoteOnEvent(tick=0, channel=4, data=[53, 0]),
   midi.NoteOnEvent(tick=0, channel=4, data=[46, 0]),
   midi.NoteOnEvent(tick=0, channel=4, data=[45, 100]),
   midi.NoteOnEvent(tick=0, channel=4, data=[52, 100]),
   midi.NoteOnEvent(tick=0, channel=4, data=[57, 100]),
   midi.NoteOnEvent(tick=108, channel=4, data=[57, 0]),
   midi.NoteOnEvent(tick=0, channel=4, data=[52, 0]),
   midi.NoteOnEvent(tick=0, channel=4, data=[45, 0]),
   midi.NoteOnEvent(tick=0, channel=4, data=[40, 100]),
   midi.NoteOnEvent(tick=108, channel=4, data=[40, 0]),
   midi.NoteOnEvent(tick=0, channel=4, data=[52, 100]),
   midi.NoteOnEvent(tick=0, channel=4, data=[47, 100]),
   midi.NoteOnEvent(tick=0, channel=4, data=[40, 100]),
   midi.NoteOnEvent(tick=54, channel=4, data=[40, 0]),
   midi.NoteOnEvent(tick=0, channel=4, data=[47, 0]),
   midi.NoteOnEvent(tick=0, channel=4, data=[52, 0]),
   midi.NoteOnEvent(tick=0, channel=4, data=[47, 100]),
   midi.NoteOnEvent(tick=0, channel=4, data=[52, 100]),
   midi.NoteOnEvent(tick=0, channel=4, data=[40, 100]),
   midi.NoteOnEvent(tick=54, channel=4, data=[40, 0]),
   midi.NoteOnEvent(tick=0, channel=4, data=[52, 0]),
   midi.NoteOnEvent(tick=0, channel=4, data=[47, 0]),
   midi.NoteOnEvent(tick=0, channel=4, data=[40, 100]),
   midi.NoteOnEvent(tick=108, channel=4, data=[40, 0]),
   midi.NoteOnEvent(tick=0, channel=4, data=[52, 100]),
   midi.NoteOnEvent(tick=0, channel=4, data=[47, 100]),
   midi.NoteOnEvent(tick=0, channel=4, data=[40, 100]),
   midi.NoteOnEvent(tick=54, channel=4, data=[40, 0]),
   midi.NoteOnEvent(tick=0, channel=4, data=[47, 0]),
   midi.NoteOnEvent(tick=0, channel=4, data=[52, 0]),
   midi.NoteOnEvent(tick=0, channel=4, data=[47, 100]),
   midi.NoteOnEvent(tick=0, channel=4, data=[52, 100]),
   midi.NoteOnEvent(tick=0, channel=4, data=[40, 100]),
   midi.NoteOnEvent(tick=54, channel=4, data=[40, 0]),
   midi.NoteOnEvent(tick=0, channel=4, data=[52, 0]),
   midi.NoteOnEvent(tick=0, channel=4, data=[47, 0]),
   midi.NoteOnEvent(tick=0, channel=4, data=[40, 100]),
   midi.NoteOnEvent(tick=108, channel=4, data=[40, 0]),
   midi.NoteOnEvent(tick=0, channel=4, data=[52, 100]),
   midi.NoteOnEvent(tick=0, channel=4, data=[55, 100]),
   midi.NoteOnEvent(tick=108, channel=4, data=[55, 0]),
   midi.NoteOnEvent(tick=0, channel=4, data=[52, 0]),
   midi.NoteOnEvent(tick=0, channel=4, data=[52, 100]),
   midi.NoteOnEvent(tick=0, channel=4, data=[55, 100]),
   midi.NoteOnEvent(tick=108, channel=4, data=[55, 0]),
   midi.NoteOnEvent(tick=0, channel=4, data=[52, 0]),
   midi.NoteOnEvent(tick=0, channel=4, data=[54, 100]),
   midi.NoteOnEvent(tick=0, channel=4, data=[51, 100]),
   midi.NoteOnEvent(tick=108, channel=4, data=[51, 0]),
   midi.NoteOnEvent(tick=0, channel=4, data=[54, 0]),
   midi.NoteOnEvent(tick=0, channel=4, data=[52, 100]),
   midi.NoteOnEvent(tick=0, channel=4, data=[55, 100]),
   midi.NoteOnEvent(tick=108, channel=4, data=[55, 0]),
   midi.NoteOnEvent(tick=0, channel=4, data=[52, 0]),
   midi.NoteOnEvent(tick=0, channel=4, data=[52, 100]),
   midi.NoteOnEvent(tick=0, channel=4, data=[47, 100]),
   midi.NoteOnEvent(tick=0, channel=4, data=[40, 100]),
   midi.NoteOnEvent(tick=54, channel=4, data=[40, 0]),
   midi.NoteOnEvent(tick=0, channel=4, data=[47, 0]),
   midi.NoteOnEvent(tick=0, channel=4, data=[52, 0]),
   midi.NoteOnEvent(tick=0, channel=4, data=[47, 100]),
   midi.NoteOnEvent(tick=0, channel=4, data=[52, 100]),
   midi.NoteOnEvent(tick=0, channel=4, data=[40, 100]),
   midi.NoteOnEvent(tick=54, channel=4, data=[40, 0]),
   midi.NoteOnEvent(tick=0, channel=4, data=[52, 0]),
   midi.NoteOnEvent(tick=0, channel=4, data=[47, 0]),
   midi.NoteOnEvent(tick=0, channel=4, data=[40, 100]),
   midi.NoteOnEvent(tick=108, channel=4, data=[40, 0]),
   midi.NoteOnEvent(tick=0, channel=4, data=[52, 100]),
   midi.NoteOnEvent(tick=0, channel=4, data=[47, 100]),
   midi.NoteOnEvent(tick=0, channel=4, data=[40, 100]),
   midi.NoteOnEvent(tick=54, channel=4, data=[40, 0]),
   midi.NoteOnEvent(tick=0, channel=4, data=[47, 0]),
   midi.NoteOnEvent(tick=0, channel=4, data=[52, 0]),
   midi.NoteOnEvent(tick=0, channel=4, data=[47, 100]),
   midi.NoteOnEvent(tick=0, channel=4, data=[52, 100]),
   midi.NoteOnEvent(tick=0, channel=4, data=[40, 100]),
   midi.NoteOnEvent(tick=54, channel=4, data=[40, 0]),
   midi.NoteOnEvent(tick=0, channel=4, data=[52, 0]),
   midi.NoteOnEvent(tick=0, channel=4, data=[47, 0]),
   midi.NoteOnEvent(tick=0, channel=4, data=[40, 100]),
   midi.NoteOnEvent(tick=108, channel=4, data=[40, 0]),
   midi.NoteOnEvent(tick=0, channel=4, data=[46, 100]),
   midi.NoteOnEvent(tick=0, channel=4, data=[53, 100]),
   midi.NoteOnEvent(tick=0, channel=4, data=[58, 100]),
   midi.NoteOnEvent(tick=108, channel=4, data=[58, 0]),
   midi.NoteOnEvent(tick=0, channel=4, data=[53, 0]),
   midi.NoteOnEvent(tick=0, channel=4, data=[46, 0]),
   midi.NoteOnEvent(tick=0, channel=4, data=[46, 100]),
   midi.NoteOnEvent(tick=0, channel=4, data=[53, 100]),
   midi.NoteOnEvent(tick=0, channel=4, data=[58, 100]),
   midi.NoteOnEvent(tick=108, channel=4, data=[58, 0]),
   midi.NoteOnEvent(tick=0, channel=4, data=[53, 0]),
   midi.NoteOnEvent(tick=0, channel=4, data=[46, 0]),
   midi.NoteOnEvent(tick=0, channel=4, data=[45, 100]),
   midi.NoteOnEvent(tick=0, channel=4, data=[52, 100]),
   midi.NoteOnEvent(tick=0, channel=4, data=[57, 100]),
   midi.NoteOnEvent(tick=108, channel=4, data=[57, 0]),
   midi.NoteOnEvent(tick=0, channel=4, data=[52, 0]),
   midi.NoteOnEvent(tick=0, channel=4, data=[45, 0]),
   midi.NoteOnEvent(tick=0, channel=4, data=[40, 100]),
   midi.NoteOnEvent(tick=108, channel=4, data=[40, 0]),
   midi.NoteOnEvent(tick=0, channel=4, data=[42, 100]),
   midi.NoteOnEvent(tick=0, channel=4, data=[49, 100]),
   midi.NoteOnEvent(tick=0, channel=4, data=[54, 100]),
   midi.NoteOnEvent(tick=216, channel=4, data=[54, 0]),
   midi.NoteOnEvent(tick=0, channel=4, data=[49, 0]),
   midi.NoteOnEvent(tick=0, channel=4, data=[42, 0]),
   midi.NoteOnEvent(tick=0, channel=4, data=[43, 100]),
   midi.NoteOnEvent(tick=0, channel=4, data=[50, 100]),
   midi.NoteOnEvent(tick=0, channel=4, data=[55, 100]),
   midi.NoteOnEvent(tick=108, channel=4, data=[55, 0]),
   midi.NoteOnEvent(tick=0, channel=4, data=[50, 0]),
   midi.NoteOnEvent(tick=0, channel=4, data=[43, 0]),
   midi.NoteOnEvent(tick=0, channel=4, data=[40, 100]),
   midi.NoteOnEvent(tick=108, channel=4, data=[40, 0]),
   midi.NoteOnEvent(tick=0, channel=4, data=[55, 100]),
   midi.NoteOnEvent(tick=0, channel=4, data=[50, 100]),
   midi.NoteOnEvent(tick=0, channel=4, data=[43, 100]),
   midi.NoteOnEvent(tick=216, channel=4, data=[43, 0]),
   midi.NoteOnEvent(tick=0, channel=4, data=[50, 0]),
   midi.NoteOnEvent(tick=0, channel=4, data=[55, 0]),
   midi.NoteOnEvent(tick=0, channel=4, data=[44, 100]),
   midi.NoteOnEvent(tick=0, channel=4, data=[51, 100]),
   midi.NoteOnEvent(tick=0, channel=4, data=[56, 100]),
   midi.NoteOnEvent(tick=108, channel=4, data=[56, 0]),
   midi.NoteOnEvent(tick=0, channel=4, data=[51, 0]),
   midi.NoteOnEvent(tick=0, channel=4, data=[44, 0]),
   midi.NoteOnEvent(tick=0, channel=4, data=[40, 100]),
   midi.NoteOnEvent(tick=108, channel=4, data=[40, 0]),
   midi.NoteOnEvent(tick=0, channel=4, data=[52, 100]),
   midi.NoteOnEvent(tick=0, channel=4, data=[47, 100]),
   midi.NoteOnEvent(tick=0, channel=4, data=[40, 100]),
   midi.NoteOnEvent(tick=54, channel=4, data=[40, 0]),
   midi.NoteOnEvent(tick=0, channel=4, data=[47, 0]),
   midi.NoteOnEvent(tick=0, channel=4, data=[52, 0]),
   midi.NoteOnEvent(tick=0, channel=4, data=[52, 100]),
   midi.NoteOnEvent(tick=0, channel=4, data=[47, 100]),
   midi.NoteOnEvent(tick=0, channel=4, data=[40, 100]),
   midi.NoteOnEvent(tick=54, channel=4, data=[40, 0]),
   midi.NoteOnEvent(tick=0, channel=4, data=[47, 0]),
   midi.NoteOnEvent(tick=0, channel=4, data=[52, 0]),
   midi.NoteOnEvent(tick=0, channel=4, data=[40, 100]),
   midi.NoteOnEvent(tick=108, channel=4, data=[40, 0]),
   midi.NoteOnEvent(tick=0, channel=4, data=[52, 100]),
   midi.NoteOnEvent(tick=0, channel=4, data=[47, 100]),
   midi.NoteOnEvent(tick=0, channel=4, data=[40, 100]),
   midi.NoteOnEvent(tick=54, channel=4, data=[40, 0]),
   midi.NoteOnEvent(tick=0, channel=4, data=[47, 0]),
   midi.NoteOnEvent(tick=0, channel=4, data=[52, 0]),
   midi.NoteOnEvent(tick=0, channel=4, data=[52, 100]),
   midi.NoteOnEvent(tick=0, channel=4, data=[47, 100]),
   midi.NoteOnEvent(tick=0, channel=4, data=[40, 100]),
   midi.NoteOnEvent(tick=54, channel=4, data=[40, 0]),
   midi.NoteOnEvent(tick=0, channel=4, data=[47, 0]),
   midi.NoteOnEvent(tick=0, channel=4, data=[52, 0]),
   midi.NoteOnEvent(tick=0, channel=4, data=[40, 100]),
   midi.NoteOnEvent(tick=108, channel=4, data=[40, 0]),
   midi.NoteOnEvent(tick=0, channel=4, data=[46, 100]),
   midi.NoteOnEvent(tick=0, channel=4, data=[53, 100]),
   midi.NoteOnEvent(tick=0, channel=4, data=[58, 100]),
   midi.NoteOnEvent(tick=108, channel=4, data=[58, 0]),
   midi.NoteOnEvent(tick=0, channel=4, data=[53, 0]),
   midi.NoteOnEvent(tick=0, channel=4, data=[46, 0]),
   midi.NoteOnEvent(tick=0, channel=4, data=[46, 100]),
   midi.NoteOnEvent(tick=0, channel=4, data=[53, 100]),
   midi.NoteOnEvent(tick=0, channel=4, data=[58, 100]),
   midi.NoteOnEvent(tick=108, channel=4, data=[58, 0]),
   midi.NoteOnEvent(tick=0, channel=4, data=[53, 0]),
   midi.NoteOnEvent(tick=0, channel=4, data=[46, 0]),
   midi.NoteOnEvent(tick=0, channel=4, data=[45, 100]),
   midi.NoteOnEvent(tick=0, channel=4, data=[52, 100]),
   midi.NoteOnEvent(tick=0, channel=4, data=[57, 100]),
   midi.NoteOnEvent(tick=108, channel=4, data=[57, 0]),
   midi.NoteOnEvent(tick=0, channel=4, data=[52, 0]),
   midi.NoteOnEvent(tick=0, channel=4, data=[45, 0]),
   midi.NoteOnEvent(tick=0, channel=4, data=[40, 100]),
   midi.NoteOnEvent(tick=108, channel=4, data=[40, 0]),
   midi.NoteOnEvent(tick=0, channel=4, data=[52, 100]),
   midi.NoteOnEvent(tick=0, channel=4, data=[47, 100]),
   midi.NoteOnEvent(tick=0, channel=4, data=[40, 100]),
   midi.NoteOnEvent(tick=54, channel=4, data=[40, 0]),
   midi.NoteOnEvent(tick=0, channel=4, data=[47, 0]),
   midi.NoteOnEvent(tick=0, channel=4, data=[52, 0]),
   midi.NoteOnEvent(tick=0, channel=4, data=[47, 100]),
   midi.NoteOnEvent(tick=0, channel=4, data=[52, 100]),
   midi.NoteOnEvent(tick=0, channel=4, data=[40, 100]),
   midi.NoteOnEvent(tick=54, channel=4, data=[40, 0]),
   midi.NoteOnEvent(tick=0, channel=4, data=[52, 0]),
   midi.NoteOnEvent(tick=0, channel=4, data=[47, 0]),
   midi.NoteOnEvent(tick=0, channel=4, data=[40, 100]),
   midi.NoteOnEvent(tick=108, channel=4, data=[40, 0]),
   midi.NoteOnEvent(tick=0, channel=4, data=[52, 100]),
   midi.NoteOnEvent(tick=0, channel=4, data=[47, 100]),
   midi.NoteOnEvent(tick=0, channel=4, data=[40, 100]),
   midi.NoteOnEvent(tick=54, channel=4, data=[40, 0]),
   midi.NoteOnEvent(tick=0, channel=4, data=[47, 0]),
   midi.NoteOnEvent(tick=0, channel=4, data=[52, 0]),
   midi.NoteOnEvent(tick=0, channel=4, data=[47, 100]),
   midi.NoteOnEvent(tick=0, channel=4, data=[52, 100]),
   midi.NoteOnEvent(tick=0, channel=4, data=[40, 100]),
   midi.NoteOnEvent(tick=54, channel=4, data=[40, 0]),
   midi.NoteOnEvent(tick=0, channel=4, data=[52, 0]),
   midi.NoteOnEvent(tick=0, channel=4, data=[47, 0]),
   midi.NoteOnEvent(tick=0, channel=4, data=[40, 100]),
   midi.NoteOnEvent(tick=108, channel=4, data=[40, 0]),
   midi.NoteOnEvent(tick=0, channel=4, data=[52, 100]),
   midi.NoteOnEvent(tick=0, channel=4, data=[55, 100]),
   midi.NoteOnEvent(tick=108, channel=4, data=[55, 0]),
   midi.NoteOnEvent(tick=0, channel=4, data=[52, 0]),
   midi.NoteOnEvent(tick=0, channel=4, data=[52, 100]),
   midi.NoteOnEvent(tick=0, channel=4, data=[55, 100]),
   midi.NoteOnEvent(tick=108, channel=4, data=[55, 0]),
   midi.NoteOnEvent(tick=0, channel=4, data=[52, 0]),
   midi.NoteOnEvent(tick=0, channel=4, data=[54, 100]),
   midi.NoteOnEvent(tick=0, channel=4, data=[51, 100]),
   midi.NoteOnEvent(tick=108, channel=4, data=[51, 0]),
   midi.NoteOnEvent(tick=0, channel=4, data=[54, 0]),
   midi.NoteOnEvent(tick=0, channel=4, data=[52, 100]),
   midi.NoteOnEvent(tick=0, channel=4, data=[55, 100]),
   midi.NoteOnEvent(tick=108, channel=4, data=[55, 0]),
   midi.NoteOnEvent(tick=0, channel=4, data=[52, 0]),
   midi.NoteOnEvent(tick=0, channel=4, data=[52, 100]),
   midi.NoteOnEvent(tick=0, channel=4, data=[47, 100]),
   midi.NoteOnEvent(tick=0, channel=4, data=[40, 100]),
   midi.NoteOnEvent(tick=54, channel=4, data=[40, 0]),
   midi.NoteOnEvent(tick=0, channel=4, data=[47, 0]),
   midi.NoteOnEvent(tick=0, channel=4, data=[52, 0]),
   midi.NoteOnEvent(tick=0, channel=4, data=[47, 100]),
   midi.NoteOnEvent(tick=0, channel=4, data=[52, 100]),
   midi.NoteOnEvent(tick=0, channel=4, data=[40, 100]),
   midi.NoteOnEvent(tick=54, channel=4, data=[40, 0]),
   midi.NoteOnEvent(tick=0, channel=4, data=[52, 0]),
   midi.NoteOnEvent(tick=0, channel=4, data=[47, 0]),
   midi.NoteOnEvent(tick=0, channel=4, data=[40, 100]),
   midi.NoteOnEvent(tick=108, channel=4, data=[40, 0]),
   midi.NoteOnEvent(tick=0, channel=4, data=[52, 100]),
   midi.NoteOnEvent(tick=0, channel=4, data=[47, 100]),
   midi.NoteOnEvent(tick=0, channel=4, data=[40, 100]),
   midi.NoteOnEvent(tick=54, channel=4, data=[40, 0]),
   midi.NoteOnEvent(tick=0, channel=4, data=[47, 0]),
   midi.NoteOnEvent(tick=0, channel=4, data=[52, 0]),
   midi.NoteOnEvent(tick=0, channel=4, data=[47, 100]),
   midi.NoteOnEvent(tick=0, channel=4, data=[52, 100]),
   midi.NoteOnEvent(tick=0, channel=4, data=[40, 100]),
   midi.NoteOnEvent(tick=54, channel=4, data=[40, 0]),
   midi.NoteOnEvent(tick=0, channel=4, data=[52, 0]),
   midi.NoteOnEvent(tick=0, channel=4, data=[47, 0]),
   midi.NoteOnEvent(tick=0, channel=4, data=[40, 100]),
   midi.NoteOnEvent(tick=108, channel=4, data=[40, 0]),
   midi.NoteOnEvent(tick=0, channel=4, data=[46, 100]),
   midi.NoteOnEvent(tick=0, channel=4, data=[53, 100]),
   midi.NoteOnEvent(tick=0, channel=4, data=[58, 100]),
   midi.NoteOnEvent(tick=108, channel=4, data=[58, 0]),
   midi.NoteOnEvent(tick=0, channel=4, data=[53, 0]),
   midi.NoteOnEvent(tick=0, channel=4, data=[46, 0]),
   midi.NoteOnEvent(tick=0, channel=4, data=[46, 100]),
   midi.NoteOnEvent(tick=0, channel=4, data=[53, 100]),
   midi.NoteOnEvent(tick=0, channel=4, data=[58, 100]),
   midi.NoteOnEvent(tick=108, channel=4, data=[58, 0]),
   midi.NoteOnEvent(tick=0, channel=4, data=[53, 0]),
   midi.NoteOnEvent(tick=0, channel=4, data=[46, 0]),
   midi.NoteOnEvent(tick=0, channel=4, data=[45, 100]),
   midi.NoteOnEvent(tick=0, channel=4, data=[52, 100]),
   midi.NoteOnEvent(tick=0, channel=4, data=[57, 100]),
   midi.NoteOnEvent(tick=108, channel=4, data=[57, 0]),
   midi.NoteOnEvent(tick=0, channel=4, data=[52, 0]),
   midi.NoteOnEvent(tick=0, channel=4, data=[45, 0]),
   midi.NoteOnEvent(tick=0, channel=4, data=[40, 100]),
   midi.NoteOnEvent(tick=108, channel=4, data=[40, 0]),
   midi.NoteOnEvent(tick=0, channel=4, data=[42, 100]),
   midi.NoteOnEvent(tick=0, channel=4, data=[49, 100]),
   midi.NoteOnEvent(tick=0, channel=4, data=[54, 100]),
   midi.NoteOnEvent(tick=216, channel=4, data=[54, 0]),
   midi.NoteOnEvent(tick=0, channel=4, data=[49, 0]),
   midi.NoteOnEvent(tick=0, channel=4, data=[42, 0]),
   midi.NoteOnEvent(tick=0, channel=4, data=[43, 100]),
   midi.NoteOnEvent(tick=0, channel=4, data=[50, 100]),
   midi.NoteOnEvent(tick=0, channel=4, data=[55, 100]),
   midi.NoteOnEvent(tick=108, channel=4, data=[55, 0]),
   midi.NoteOnEvent(tick=0, channel=4, data=[50, 0]),
   midi.NoteOnEvent(tick=0, channel=4, data=[43, 0]),
   midi.NoteOnEvent(tick=0, channel=4, data=[40, 100]),
   midi.NoteOnEvent(tick=108, channel=4, data=[40, 0]),
   midi.NoteOnEvent(tick=0, channel=4, data=[55, 100]),
   midi.NoteOnEvent(tick=0, channel=4, data=[50, 100]),
   midi.NoteOnEvent(tick=0, channel=4, data=[43, 100]),
   midi.NoteOnEvent(tick=216, channel=4, data=[43, 0]),
   midi.NoteOnEvent(tick=0, channel=4, data=[50, 0]),
   midi.NoteOnEvent(tick=0, channel=4, data=[55, 0]),
   midi.NoteOnEvent(tick=0, channel=4, data=[44, 100]),
   midi.NoteOnEvent(tick=0, channel=4, data=[51, 100]),
   midi.NoteOnEvent(tick=0, channel=4, data=[56, 100]),
   midi.NoteOnEvent(tick=108, channel=4, data=[56, 0]),
   midi.NoteOnEvent(tick=0, channel=4, data=[51, 0]),
   midi.NoteOnEvent(tick=0, channel=4, data=[44, 0]),
   midi.NoteOnEvent(tick=0, channel=4, data=[52, 100]),
   midi.NoteOnEvent(tick=0, channel=4, data=[47, 100]),
   midi.NoteOnEvent(tick=0, channel=4, data=[40, 100]),
   midi.NoteOnEvent(tick=864, channel=4, data=[40, 0]),
   midi.NoteOnEvent(tick=0, channel=4, data=[47, 0]),
   midi.NoteOnEvent(tick=0, channel=4, data=[52, 0]),
   midi.NoteOnEvent(tick=0, channel=4, data=[55, 100]),
   midi.NoteOnEvent(tick=0, channel=4, data=[50, 100]),
   midi.NoteOnEvent(tick=0, channel=4, data=[43, 100]),
   midi.NoteOnEvent(tick=860, channel=4, data=[43, 0]),
   midi.NoteOnEvent(tick=0, channel=4, data=[50, 0]),
   midi.NoteOnEvent(tick=0, channel=4, data=[55, 0]),
   midi.NoteOnEvent(tick=4, channel=4, data=[57, 100]),
   midi.NoteOnEvent(tick=0, channel=4, data=[52, 100]),
   midi.NoteOnEvent(tick=0, channel=4, data=[45, 100]),
   midi.NoteOnEvent(tick=428, channel=4, data=[45, 0]),
   midi.NoteOnEvent(tick=0, channel=4, data=[52, 0]),
   midi.NoteOnEvent(tick=0, channel=4, data=[57, 0]),
   midi.NoteOnEvent(tick=4, channel=4, data=[53, 100]),
   midi.NoteOnEvent(tick=0, channel=4, data=[48, 100]),
   midi.NoteOnEvent(tick=0, channel=4, data=[41, 100]),
   midi.NoteOnEvent(tick=104, channel=4, data=[41, 0]),
   midi.NoteOnEvent(tick=0, channel=4, data=[48, 0]),
   midi.NoteOnEvent(tick=0, channel=4, data=[53, 0]),
   midi.NoteOnEvent(tick=4, channel=4, data=[53, 100]),
   midi.NoteOnEvent(tick=0, channel=4, data=[48, 100]),
   midi.NoteOnEvent(tick=0, channel=4, data=[41, 100]),
   midi.NoteOnEvent(tick=104, channel=4, data=[41, 0]),
   midi.NoteOnEvent(tick=0, channel=4, data=[48, 0]),
   midi.NoteOnEvent(tick=0, channel=4, data=[53, 0]),
   midi.NoteOnEvent(tick=4, channel=4, data=[42, 100]),
   midi.NoteOnEvent(tick=0, channel=4, data=[51, 100]),
   midi.NoteOnEvent(tick=0, channel=4, data=[47, 100]),
   midi.NoteOnEvent(tick=212, channel=4, data=[47, 0]),
   midi.NoteOnEvent(tick=0, channel=4, data=[51, 0]),
   midi.NoteOnEvent(tick=0, channel=4, data=[42, 0]),
   midi.NoteOnEvent(tick=4, channel=4, data=[40, 100]),
   midi.NoteOnEvent(tick=108, channel=4, data=[40, 0]),
   midi.NoteOnEvent(tick=0, channel=4, data=[52, 100]),
   midi.NoteOnEvent(tick=0, channel=4, data=[47, 100]),
   midi.NoteOnEvent(tick=0, channel=4, data=[40, 100]),
   midi.NoteOnEvent(tick=54, channel=4, data=[40, 0]),
   midi.NoteOnEvent(tick=0, channel=4, data=[47, 0]),
   midi.NoteOnEvent(tick=0, channel=4, data=[52, 0]),
   midi.NoteOnEvent(tick=0, channel=4, data=[52, 100]),
   midi.NoteOnEvent(tick=0, channel=4, data=[47, 100]),
   midi.NoteOnEvent(tick=0, channel=4, data=[40, 100]),
   midi.NoteOnEvent(tick=54, channel=4, data=[40, 0]),
   midi.NoteOnEvent(tick=0, channel=4, data=[47, 0]),
   midi.NoteOnEvent(tick=0, channel=4, data=[52, 0]),
   midi.NoteOnEvent(tick=0, channel=4, data=[40, 100]),
   midi.NoteOnEvent(tick=108, channel=4, data=[40, 0]),
   midi.NoteOnEvent(tick=0, channel=4, data=[52, 100]),
   midi.NoteOnEvent(tick=0, channel=4, data=[47, 100]),
   midi.NoteOnEvent(tick=0, channel=4, data=[40, 100]),
   midi.NoteOnEvent(tick=54, channel=4, data=[40, 0]),
   midi.NoteOnEvent(tick=0, channel=4, data=[47, 0]),
   midi.NoteOnEvent(tick=0, channel=4, data=[52, 0]),
   midi.NoteOnEvent(tick=0, channel=4, data=[52, 100]),
   midi.NoteOnEvent(tick=0, channel=4, data=[47, 100]),
   midi.NoteOnEvent(tick=0, channel=4, data=[40, 100]),
   midi.NoteOnEvent(tick=54, channel=4, data=[40, 0]),
   midi.NoteOnEvent(tick=0, channel=4, data=[47, 0]),
   midi.NoteOnEvent(tick=0, channel=4, data=[52, 0]),
   midi.NoteOnEvent(tick=0, channel=4, data=[40, 100]),
   midi.NoteOnEvent(tick=108, channel=4, data=[40, 0]),
   midi.NoteOnEvent(tick=0, channel=4, data=[46, 100]),
   midi.NoteOnEvent(tick=0, channel=4, data=[53, 100]),
   midi.NoteOnEvent(tick=0, channel=4, data=[58, 100]),
   midi.NoteOnEvent(tick=108, channel=4, data=[58, 0]),
   midi.NoteOnEvent(tick=0, channel=4, data=[53, 0]),
   midi.NoteOnEvent(tick=0, channel=4, data=[46, 0]),
   midi.NoteOnEvent(tick=0, channel=4, data=[46, 100]),
   midi.NoteOnEvent(tick=0, channel=4, data=[53, 100]),
   midi.NoteOnEvent(tick=0, channel=4, data=[58, 100]),
   midi.NoteOnEvent(tick=108, channel=4, data=[58, 0]),
   midi.NoteOnEvent(tick=0, channel=4, data=[53, 0]),
   midi.NoteOnEvent(tick=0, channel=4, data=[46, 0]),
   midi.NoteOnEvent(tick=0, channel=4, data=[45, 100]),
   midi.NoteOnEvent(tick=0, channel=4, data=[52, 100]),
   midi.NoteOnEvent(tick=0, channel=4, data=[57, 100]),
   midi.NoteOnEvent(tick=108, channel=4, data=[57, 0]),
   midi.NoteOnEvent(tick=0, channel=4, data=[52, 0]),
   midi.NoteOnEvent(tick=0, channel=4, data=[45, 0]),
   midi.NoteOnEvent(tick=0, channel=4, data=[40, 100]),
   midi.NoteOnEvent(tick=108, channel=4, data=[40, 0]),
   midi.NoteOnEvent(tick=0, channel=4, data=[52, 100]),
   midi.NoteOnEvent(tick=0, channel=4, data=[47, 100]),
   midi.NoteOnEvent(tick=0, channel=4, data=[40, 100]),
   midi.NoteOnEvent(tick=54, channel=4, data=[40, 0]),
   midi.NoteOnEvent(tick=0, channel=4, data=[47, 0]),
   midi.NoteOnEvent(tick=0, channel=4, data=[52, 0]),
   midi.NoteOnEvent(tick=0, channel=4, data=[47, 100]),
   midi.NoteOnEvent(tick=0, channel=4, data=[52, 100]),
   midi.NoteOnEvent(tick=0, channel=4, data=[40, 100]),
   midi.NoteOnEvent(tick=54, channel=4, data=[40, 0]),
   midi.NoteOnEvent(tick=0, channel=4, data=[52, 0]),
   midi.NoteOnEvent(tick=0, channel=4, data=[47, 0]),
   midi.NoteOnEvent(tick=0, channel=4, data=[40, 100]),
   midi.NoteOnEvent(tick=108, channel=4, data=[40, 0]),
   midi.NoteOnEvent(tick=0, channel=4, data=[52, 100]),
   midi.NoteOnEvent(tick=0, channel=4, data=[47, 100]),
   midi.NoteOnEvent(tick=0, channel=4, data=[40, 100]),
   midi.NoteOnEvent(tick=54, channel=4, data=[40, 0]),
   midi.NoteOnEvent(tick=0, channel=4, data=[47, 0]),
   midi.NoteOnEvent(tick=0, channel=4, data=[52, 0]),
   midi.NoteOnEvent(tick=0, channel=4, data=[47, 100]),
   midi.NoteOnEvent(tick=0, channel=4, data=[52, 100]),
   midi.NoteOnEvent(tick=0, channel=4, data=[40, 100]),
   midi.NoteOnEvent(tick=54, channel=4, data=[40, 0]),
   midi.NoteOnEvent(tick=0, channel=4, data=[52, 0]),
   midi.NoteOnEvent(tick=0, channel=4, data=[47, 0]),
   midi.NoteOnEvent(tick=0, channel=4, data=[40, 100]),
   midi.NoteOnEvent(tick=108, channel=4, data=[40, 0]),
   midi.NoteOnEvent(tick=0, channel=4, data=[52, 100]),
   midi.NoteOnEvent(tick=0, channel=4, data=[55, 100]),
   midi.NoteOnEvent(tick=108, channel=4, data=[55, 0]),
   midi.NoteOnEvent(tick=0, channel=4, data=[52, 0]),
   midi.NoteOnEvent(tick=0, channel=4, data=[52, 100]),
   midi.NoteOnEvent(tick=0, channel=4, data=[55, 100]),
   midi.NoteOnEvent(tick=108, channel=4, data=[55, 0]),
   midi.NoteOnEvent(tick=0, channel=4, data=[52, 0]),
   midi.NoteOnEvent(tick=0, channel=4, data=[54, 100]),
   midi.NoteOnEvent(tick=0, channel=4, data=[51, 100]),
   midi.NoteOnEvent(tick=108, channel=4, data=[51, 0]),
   midi.NoteOnEvent(tick=0, channel=4, data=[54, 0]),
   midi.NoteOnEvent(tick=0, channel=4, data=[52, 100]),
   midi.NoteOnEvent(tick=0, channel=4, data=[55, 100]),
   midi.NoteOnEvent(tick=108, channel=4, data=[55, 0]),
   midi.NoteOnEvent(tick=0, channel=4, data=[52, 0]),
   midi.NoteOnEvent(tick=0, channel=4, data=[52, 100]),
   midi.NoteOnEvent(tick=0, channel=4, data=[47, 100]),
   midi.NoteOnEvent(tick=0, channel=4, data=[40, 100]),
   midi.NoteOnEvent(tick=54, channel=4, data=[40, 0]),
   midi.NoteOnEvent(tick=0, channel=4, data=[47, 0]),
   midi.NoteOnEvent(tick=0, channel=4, data=[52, 0]),
   midi.NoteOnEvent(tick=0, channel=4, data=[47, 100]),
   midi.NoteOnEvent(tick=0, channel=4, data=[52, 100]),
   midi.NoteOnEvent(tick=0, channel=4, data=[40, 100]),
   midi.NoteOnEvent(tick=54, channel=4, data=[40, 0]),
   midi.NoteOnEvent(tick=0, channel=4, data=[52, 0]),
   midi.NoteOnEvent(tick=0, channel=4, data=[47, 0]),
   midi.NoteOnEvent(tick=0, channel=4, data=[40, 100]),
   midi.NoteOnEvent(tick=108, channel=4, data=[40, 0]),
   midi.NoteOnEvent(tick=0, channel=4, data=[52, 100]),
   midi.NoteOnEvent(tick=0, channel=4, data=[47, 100]),
   midi.NoteOnEvent(tick=0, channel=4, data=[40, 100]),
   midi.NoteOnEvent(tick=54, channel=4, data=[40, 0]),
   midi.NoteOnEvent(tick=0, channel=4, data=[47, 0]),
   midi.NoteOnEvent(tick=0, channel=4, data=[52, 0]),
   midi.NoteOnEvent(tick=0, channel=4, data=[47, 100]),
   midi.NoteOnEvent(tick=0, channel=4, data=[52, 100]),
   midi.NoteOnEvent(tick=0, channel=4, data=[40, 100]),
   midi.NoteOnEvent(tick=54, channel=4, data=[40, 0]),
   midi.NoteOnEvent(tick=0, channel=4, data=[52, 0]),
   midi.NoteOnEvent(tick=0, channel=4, data=[47, 0]),
   midi.NoteOnEvent(tick=0, channel=4, data=[40, 100]),
   midi.NoteOnEvent(tick=108, channel=4, data=[40, 0]),
   midi.NoteOnEvent(tick=0, channel=4, data=[46, 100]),
   midi.NoteOnEvent(tick=0, channel=4, data=[53, 100]),
   midi.NoteOnEvent(tick=0, channel=4, data=[58, 100]),
   midi.NoteOnEvent(tick=108, channel=4, data=[58, 0]),
   midi.NoteOnEvent(tick=0, channel=4, data=[53, 0]),
   midi.NoteOnEvent(tick=0, channel=4, data=[46, 0]),
   midi.NoteOnEvent(tick=0, channel=4, data=[46, 100]),
   midi.NoteOnEvent(tick=0, channel=4, data=[53, 100]),
   midi.NoteOnEvent(tick=0, channel=4, data=[58, 100]),
   midi.NoteOnEvent(tick=108, channel=4, data=[58, 0]),
   midi.NoteOnEvent(tick=0, channel=4, data=[53, 0]),
   midi.NoteOnEvent(tick=0, channel=4, data=[46, 0]),
   midi.NoteOnEvent(tick=0, channel=4, data=[45, 100]),
   midi.NoteOnEvent(tick=0, channel=4, data=[52, 100]),
   midi.NoteOnEvent(tick=0, channel=4, data=[57, 100]),
   midi.NoteOnEvent(tick=108, channel=4, data=[57, 0]),
   midi.NoteOnEvent(tick=0, channel=4, data=[52, 0]),
   midi.NoteOnEvent(tick=0, channel=4, data=[45, 0]),
   midi.NoteOnEvent(tick=0, channel=4, data=[40, 100]),
   midi.NoteOnEvent(tick=108, channel=4, data=[40, 0]),
   midi.NoteOnEvent(tick=0, channel=4, data=[42, 100]),
   midi.NoteOnEvent(tick=0, channel=4, data=[49, 100]),
   midi.NoteOnEvent(tick=0, channel=4, data=[54, 100]),
   midi.NoteOnEvent(tick=216, channel=4, data=[54, 0]),
   midi.NoteOnEvent(tick=0, channel=4, data=[49, 0]),
   midi.NoteOnEvent(tick=0, channel=4, data=[42, 0]),
   midi.NoteOnEvent(tick=0, channel=4, data=[43, 100]),
   midi.NoteOnEvent(tick=0, channel=4, data=[50, 100]),
   midi.NoteOnEvent(tick=0, channel=4, data=[55, 100]),
   midi.NoteOnEvent(tick=108, channel=4, data=[55, 0]),
   midi.NoteOnEvent(tick=0, channel=4, data=[50, 0]),
   midi.NoteOnEvent(tick=0, channel=4, data=[43, 0]),
   midi.NoteOnEvent(tick=0, channel=4, data=[40, 100]),
   midi.NoteOnEvent(tick=108, channel=4, data=[40, 0]),
   midi.NoteOnEvent(tick=0, channel=4, data=[55, 100]),
   midi.NoteOnEvent(tick=0, channel=4, data=[50, 100]),
   midi.NoteOnEvent(tick=0, channel=4, data=[43, 100]),
   midi.NoteOnEvent(tick=216, channel=4, data=[43, 0]),
   midi.NoteOnEvent(tick=0, channel=4, data=[50, 0]),
   midi.NoteOnEvent(tick=0, channel=4, data=[55, 0]),
   midi.NoteOnEvent(tick=0, channel=4, data=[44, 100]),
   midi.NoteOnEvent(tick=0, channel=4, data=[51, 100]),
   midi.NoteOnEvent(tick=0, channel=4, data=[56, 100]),
   midi.NoteOnEvent(tick=108, channel=4, data=[56, 0]),
   midi.NoteOnEvent(tick=0, channel=4, data=[51, 0]),
   midi.NoteOnEvent(tick=0, channel=4, data=[44, 0]),
   midi.NoteOnEvent(tick=0, channel=4, data=[52, 100]),
   midi.NoteOnEvent(tick=0, channel=4, data=[47, 100]),
   midi.NoteOnEvent(tick=0, channel=4, data=[40, 100]),
   midi.NoteOnEvent(tick=864, channel=4, data=[40, 0]),
   midi.NoteOnEvent(tick=0, channel=4, data=[47, 0]),
   midi.NoteOnEvent(tick=0, channel=4, data=[52, 0]),
   midi.NoteOnEvent(tick=0, channel=4, data=[55, 100]),
   midi.NoteOnEvent(tick=0, channel=4, data=[50, 100]),
   midi.NoteOnEvent(tick=0, channel=4, data=[43, 100]),
   midi.NoteOnEvent(tick=860, channel=4, data=[43, 0]),
   midi.NoteOnEvent(tick=0, channel=4, data=[50, 0]),
   midi.NoteOnEvent(tick=0, channel=4, data=[55, 0]),
   midi.NoteOnEvent(tick=4, channel=4, data=[57, 100]),
   midi.NoteOnEvent(tick=0, channel=4, data=[52, 100]),
   midi.NoteOnEvent(tick=0, channel=4, data=[45, 100]),
   midi.NoteOnEvent(tick=428, channel=4, data=[45, 0]),
   midi.NoteOnEvent(tick=0, channel=4, data=[52, 0]),
   midi.NoteOnEvent(tick=0, channel=4, data=[57, 0]),
   midi.NoteOnEvent(tick=4, channel=4, data=[53, 100]),
   midi.NoteOnEvent(tick=0, channel=4, data=[48, 100]),
   midi.NoteOnEvent(tick=0, channel=4, data=[41, 100]),
   midi.NoteOnEvent(tick=104, channel=4, data=[41, 0]),
   midi.NoteOnEvent(tick=0, channel=4, data=[48, 0]),
   midi.NoteOnEvent(tick=0, channel=4, data=[53, 0]),
   midi.NoteOnEvent(tick=4, channel=4, data=[53, 100]),
   midi.NoteOnEvent(tick=0, channel=4, data=[48, 100]),
   midi.NoteOnEvent(tick=0, channel=4, data=[41, 100]),
   midi.NoteOnEvent(tick=104, channel=4, data=[41, 0]),
   midi.NoteOnEvent(tick=0, channel=4, data=[48, 0]),
   midi.NoteOnEvent(tick=0, channel=4, data=[53, 0]),
   midi.NoteOnEvent(tick=4, channel=4, data=[42, 100]),
   midi.NoteOnEvent(tick=0, channel=4, data=[51, 100]),
   midi.NoteOnEvent(tick=0, channel=4, data=[47, 100]),
   midi.NoteOnEvent(tick=212, channel=4, data=[47, 0]),
   midi.NoteOnEvent(tick=0, channel=4, data=[51, 0]),
   midi.NoteOnEvent(tick=0, channel=4, data=[42, 0]),
   midi.NoteOnEvent(tick=4, channel=4, data=[40, 100]),
   midi.NoteOnEvent(tick=108, channel=4, data=[40, 0]),
   midi.NoteOnEvent(tick=0, channel=4, data=[52, 100]),
   midi.NoteOnEvent(tick=0, channel=4, data=[47, 100]),
   midi.NoteOnEvent(tick=0, channel=4, data=[40, 100]),
   midi.NoteOnEvent(tick=54, channel=4, data=[40, 0]),
   midi.NoteOnEvent(tick=0, channel=4, data=[47, 0]),
   midi.NoteOnEvent(tick=0, channel=4, data=[52, 0]),
   midi.NoteOnEvent(tick=0, channel=4, data=[52, 100]),
   midi.NoteOnEvent(tick=0, channel=4, data=[47, 100]),
   midi.NoteOnEvent(tick=0, channel=4, data=[40, 100]),
   midi.NoteOnEvent(tick=54, channel=4, data=[40, 0]),
   midi.NoteOnEvent(tick=0, channel=4, data=[47, 0]),
   midi.NoteOnEvent(tick=0, channel=4, data=[52, 0]),
   midi.NoteOnEvent(tick=0, channel=4, data=[40, 100]),
   midi.NoteOnEvent(tick=108, channel=4, data=[40, 0]),
   midi.NoteOnEvent(tick=0, channel=4, data=[52, 100]),
   midi.NoteOnEvent(tick=0, channel=4, data=[47, 100]),
   midi.NoteOnEvent(tick=0, channel=4, data=[40, 100]),
   midi.NoteOnEvent(tick=54, channel=4, data=[40, 0]),
   midi.NoteOnEvent(tick=0, channel=4, data=[47, 0]),
   midi.NoteOnEvent(tick=0, channel=4, data=[52, 0]),
   midi.NoteOnEvent(tick=0, channel=4, data=[52, 100]),
   midi.NoteOnEvent(tick=0, channel=4, data=[47, 100]),
   midi.NoteOnEvent(tick=0, channel=4, data=[40, 100]),
   midi.NoteOnEvent(tick=54, channel=4, data=[40, 0]),
   midi.NoteOnEvent(tick=0, channel=4, data=[47, 0]),
   midi.NoteOnEvent(tick=0, channel=4, data=[52, 0]),
   midi.NoteOnEvent(tick=0, channel=4, data=[40, 100]),
   midi.NoteOnEvent(tick=108, channel=4, data=[40, 0]),
   midi.NoteOnEvent(tick=0, channel=4, data=[46, 100]),
   midi.NoteOnEvent(tick=0, channel=4, data=[53, 100]),
   midi.NoteOnEvent(tick=0, channel=4, data=[58, 100]),
   midi.NoteOnEvent(tick=108, channel=4, data=[58, 0]),
   midi.NoteOnEvent(tick=0, channel=4, data=[53, 0]),
   midi.NoteOnEvent(tick=0, channel=4, data=[46, 0]),
   midi.NoteOnEvent(tick=0, channel=4, data=[46, 100]),
   midi.NoteOnEvent(tick=0, channel=4, data=[53, 100]),
   midi.NoteOnEvent(tick=0, channel=4, data=[58, 100]),
   midi.NoteOnEvent(tick=108, channel=4, data=[58, 0]),
   midi.NoteOnEvent(tick=0, channel=4, data=[53, 0]),
   midi.NoteOnEvent(tick=0, channel=4, data=[46, 0]),
   midi.NoteOnEvent(tick=0, channel=4, data=[45, 100]),
   midi.NoteOnEvent(tick=0, channel=4, data=[52, 100]),
   midi.NoteOnEvent(tick=0, channel=4, data=[57, 100]),
   midi.NoteOnEvent(tick=108, channel=4, data=[57, 0]),
   midi.NoteOnEvent(tick=0, channel=4, data=[52, 0]),
   midi.NoteOnEvent(tick=0, channel=4, data=[45, 0]),
   midi.NoteOnEvent(tick=0, channel=4, data=[40, 100]),
   midi.NoteOnEvent(tick=108, channel=4, data=[40, 0]),
   midi.NoteOnEvent(tick=0, channel=4, data=[52, 100]),
   midi.NoteOnEvent(tick=0, channel=4, data=[47, 100]),
   midi.NoteOnEvent(tick=0, channel=4, data=[40, 100]),
   midi.NoteOnEvent(tick=54, channel=4, data=[40, 0]),
   midi.NoteOnEvent(tick=0, channel=4, data=[47, 0]),
   midi.NoteOnEvent(tick=0, channel=4, data=[52, 0]),
   midi.NoteOnEvent(tick=0, channel=4, data=[47, 100]),
   midi.NoteOnEvent(tick=0, channel=4, data=[52, 100]),
   midi.NoteOnEvent(tick=0, channel=4, data=[40, 100]),
   midi.NoteOnEvent(tick=54, channel=4, data=[40, 0]),
   midi.NoteOnEvent(tick=0, channel=4, data=[52, 0]),
   midi.NoteOnEvent(tick=0, channel=4, data=[47, 0]),
   midi.NoteOnEvent(tick=0, channel=4, data=[40, 100]),
   midi.NoteOnEvent(tick=108, channel=4, data=[40, 0]),
   midi.NoteOnEvent(tick=0, channel=4, data=[52, 100]),
   midi.NoteOnEvent(tick=0, channel=4, data=[47, 100]),
   midi.NoteOnEvent(tick=0, channel=4, data=[40, 100]),
   midi.NoteOnEvent(tick=54, channel=4, data=[40, 0]),
   midi.NoteOnEvent(tick=0, channel=4, data=[47, 0]),
   midi.NoteOnEvent(tick=0, channel=4, data=[52, 0]),
   midi.NoteOnEvent(tick=0, channel=4, data=[47, 100]),
   midi.NoteOnEvent(tick=0, channel=4, data=[52, 100]),
   midi.NoteOnEvent(tick=0, channel=4, data=[40, 100]),
   midi.NoteOnEvent(tick=54, channel=4, data=[40, 0]),
   midi.NoteOnEvent(tick=0, channel=4, data=[52, 0]),
   midi.NoteOnEvent(tick=0, channel=4, data=[47, 0]),
   midi.NoteOnEvent(tick=0, channel=4, data=[40, 100]),
   midi.NoteOnEvent(tick=108, channel=4, data=[40, 0]),
   midi.NoteOnEvent(tick=0, channel=4, data=[52, 100]),
   midi.NoteOnEvent(tick=0, channel=4, data=[55, 100]),
   midi.NoteOnEvent(tick=108, channel=4, data=[55, 0]),
   midi.NoteOnEvent(tick=0, channel=4, data=[52, 0]),
   midi.NoteOnEvent(tick=0, channel=4, data=[52, 100]),
   midi.NoteOnEvent(tick=0, channel=4, data=[55, 100]),
   midi.NoteOnEvent(tick=108, channel=4, data=[55, 0]),
   midi.NoteOnEvent(tick=0, channel=4, data=[52, 0]),
   midi.NoteOnEvent(tick=0, channel=4, data=[54, 100]),
   midi.NoteOnEvent(tick=0, channel=4, data=[51, 100]),
   midi.NoteOnEvent(tick=108, channel=4, data=[51, 0]),
   midi.NoteOnEvent(tick=0, channel=4, data=[54, 0]),
   midi.NoteOnEvent(tick=0, channel=4, data=[52, 100]),
   midi.NoteOnEvent(tick=0, channel=4, data=[47, 100]),
   midi.NoteOnEvent(tick=0, channel=4, data=[40, 100]),
   midi.NoteOnEvent(tick=432, channel=4, data=[40, 0]),
   midi.NoteOnEvent(tick=0, channel=4, data=[47, 0]),
   midi.NoteOnEvent(tick=0, channel=4, data=[52, 0]),
   midi.NoteOnEvent(tick=0, channel=4, data=[59, 100]),
   midi.NoteOnEvent(tick=0, channel=4, data=[54, 100]),
   midi.NoteOnEvent(tick=0, channel=4, data=[47, 100]),
   midi.NoteOnEvent(tick=432, channel=4, data=[47, 0]),
   midi.NoteOnEvent(tick=0, channel=4, data=[54, 0]),
   midi.NoteOnEvent(tick=0, channel=4, data=[59, 0]),
   midi.NoteOnEvent(tick=0, channel=4, data=[43, 100]),
   midi.NoteOnEvent(tick=0, channel=4, data=[50, 100]),
   midi.NoteOnEvent(tick=0, channel=4, data=[55, 100]),
   midi.NoteOnEvent(tick=432, channel=4, data=[55, 0]),
   midi.NoteOnEvent(tick=0, channel=4, data=[50, 0]),
   midi.NoteOnEvent(tick=0, channel=4, data=[43, 0]),
   midi.NoteOnEvent(tick=0, channel=4, data=[55, 100]),
   midi.NoteOnEvent(tick=0, channel=4, data=[52, 100]),
   midi.NoteOnEvent(tick=0, channel=4, data=[40, 100]),
   midi.NoteOnEvent(tick=216, channel=4, data=[40, 0]),
   midi.NoteOnEvent(tick=0, channel=4, data=[52, 0]),
   midi.NoteOnEvent(tick=0, channel=4, data=[55, 0]),
   midi.NoteOnEvent(tick=0, channel=4, data=[50, 100]),
   midi.NoteOnEvent(tick=0, channel=4, data=[42, 100]),
   midi.NoteOnEvent(tick=0, channel=4, data=[47, 100]),
   midi.NoteOnEvent(tick=216, channel=4, data=[47, 0]),
   midi.NoteOnEvent(tick=0, channel=4, data=[42, 0]),
   midi.NoteOnEvent(tick=0, channel=4, data=[50, 0]),
   midi.NoteOnEvent(tick=0, channel=4, data=[40, 100]),
   midi.NoteOnEvent(tick=108, channel=4, data=[40, 0]),
   midi.NoteOnEvent(tick=0, channel=4, data=[52, 100]),
   midi.NoteOnEvent(tick=0, channel=4, data=[47, 100]),
   midi.NoteOnEvent(tick=0, channel=4, data=[40, 100]),
   midi.NoteOnEvent(tick=54, channel=4, data=[40, 0]),
   midi.NoteOnEvent(tick=0, channel=4, data=[47, 0]),
   midi.NoteOnEvent(tick=0, channel=4, data=[52, 0]),
   midi.NoteOnEvent(tick=0, channel=4, data=[52, 100]),
   midi.NoteOnEvent(tick=0, channel=4, data=[47, 100]),
   midi.NoteOnEvent(tick=0, channel=4, data=[40, 100]),
   midi.NoteOnEvent(tick=54, channel=4, data=[40, 0]),
   midi.NoteOnEvent(tick=0, channel=4, data=[47, 0]),
   midi.NoteOnEvent(tick=0, channel=4, data=[52, 0]),
   midi.NoteOnEvent(tick=0, channel=4, data=[40, 100]),
   midi.NoteOnEvent(tick=108, channel=4, data=[40, 0]),
   midi.NoteOnEvent(tick=0, channel=4, data=[52, 100]),
   midi.NoteOnEvent(tick=0, channel=4, data=[47, 100]),
   midi.NoteOnEvent(tick=0, channel=4, data=[40, 100]),
   midi.NoteOnEvent(tick=54, channel=4, data=[40, 0]),
   midi.NoteOnEvent(tick=0, channel=4, data=[47, 0]),
   midi.NoteOnEvent(tick=0, channel=4, data=[52, 0]),
   midi.NoteOnEvent(tick=0, channel=4, data=[52, 100]),
   midi.NoteOnEvent(tick=0, channel=4, data=[47, 100]),
   midi.NoteOnEvent(tick=0, channel=4, data=[40, 100]),
   midi.NoteOnEvent(tick=54, channel=4, data=[40, 0]),
   midi.NoteOnEvent(tick=0, channel=4, data=[47, 0]),
   midi.NoteOnEvent(tick=0, channel=4, data=[52, 0]),
   midi.NoteOnEvent(tick=0, channel=4, data=[40, 100]),
   midi.NoteOnEvent(tick=108, channel=4, data=[40, 0]),
   midi.NoteOnEvent(tick=0, channel=4, data=[46, 100]),
   midi.NoteOnEvent(tick=0, channel=4, data=[53, 100]),
   midi.NoteOnEvent(tick=0, channel=4, data=[58, 100]),
   midi.NoteOnEvent(tick=108, channel=4, data=[58, 0]),
   midi.NoteOnEvent(tick=0, channel=4, data=[53, 0]),
   midi.NoteOnEvent(tick=0, channel=4, data=[46, 0]),
   midi.NoteOnEvent(tick=0, channel=4, data=[46, 100]),
   midi.NoteOnEvent(tick=0, channel=4, data=[53, 100]),
   midi.NoteOnEvent(tick=0, channel=4, data=[58, 100]),
   midi.NoteOnEvent(tick=108, channel=4, data=[58, 0]),
   midi.NoteOnEvent(tick=0, channel=4, data=[53, 0]),
   midi.NoteOnEvent(tick=0, channel=4, data=[46, 0]),
   midi.NoteOnEvent(tick=0, channel=4, data=[45, 100]),
   midi.NoteOnEvent(tick=0, channel=4, data=[52, 100]),
   midi.NoteOnEvent(tick=0, channel=4, data=[57, 100]),
   midi.NoteOnEvent(tick=108, channel=4, data=[57, 0]),
   midi.NoteOnEvent(tick=0, channel=4, data=[52, 0]),
   midi.NoteOnEvent(tick=0, channel=4, data=[45, 0]),
   midi.NoteOnEvent(tick=0, channel=4, data=[40, 100]),
   midi.NoteOnEvent(tick=108, channel=4, data=[40, 0]),
   midi.NoteOnEvent(tick=0, channel=4, data=[52, 100]),
   midi.NoteOnEvent(tick=0, channel=4, data=[47, 100]),
   midi.NoteOnEvent(tick=0, channel=4, data=[40, 100]),
   midi.NoteOnEvent(tick=54, channel=4, data=[40, 0]),
   midi.NoteOnEvent(tick=0, channel=4, data=[47, 0]),
   midi.NoteOnEvent(tick=0, channel=4, data=[52, 0]),
   midi.NoteOnEvent(tick=0, channel=4, data=[47, 100]),
   midi.NoteOnEvent(tick=0, channel=4, data=[52, 100]),
   midi.NoteOnEvent(tick=0, channel=4, data=[40, 100]),
   midi.NoteOnEvent(tick=54, channel=4, data=[40, 0]),
   midi.NoteOnEvent(tick=0, channel=4, data=[52, 0]),
   midi.NoteOnEvent(tick=0, channel=4, data=[47, 0]),
   midi.NoteOnEvent(tick=0, channel=4, data=[40, 100]),
   midi.NoteOnEvent(tick=108, channel=4, data=[40, 0]),
   midi.NoteOnEvent(tick=0, channel=4, data=[52, 100]),
   midi.NoteOnEvent(tick=0, channel=4, data=[47, 100]),
   midi.NoteOnEvent(tick=0, channel=4, data=[40, 100]),
   midi.NoteOnEvent(tick=54, channel=4, data=[40, 0]),
   midi.NoteOnEvent(tick=0, channel=4, data=[47, 0]),
   midi.NoteOnEvent(tick=0, channel=4, data=[52, 0]),
   midi.NoteOnEvent(tick=0, channel=4, data=[47, 100]),
   midi.NoteOnEvent(tick=0, channel=4, data=[52, 100]),
   midi.NoteOnEvent(tick=0, channel=4, data=[40, 100]),
   midi.NoteOnEvent(tick=54, channel=4, data=[40, 0]),
   midi.NoteOnEvent(tick=0, channel=4, data=[52, 0]),
   midi.NoteOnEvent(tick=0, channel=4, data=[47, 0]),
   midi.NoteOnEvent(tick=0, channel=4, data=[40, 100]),
   midi.NoteOnEvent(tick=108, channel=4, data=[40, 0]),
   midi.NoteOnEvent(tick=0, channel=4, data=[52, 100]),
   midi.NoteOnEvent(tick=0, channel=4, data=[55, 100]),
   midi.NoteOnEvent(tick=108, channel=4, data=[55, 0]),
   midi.NoteOnEvent(tick=0, channel=4, data=[52, 0]),
   midi.NoteOnEvent(tick=0, channel=4, data=[52, 100]),
   midi.NoteOnEvent(tick=0, channel=4, data=[55, 100]),
   midi.NoteOnEvent(tick=108, channel=4, data=[55, 0]),
   midi.NoteOnEvent(tick=0, channel=4, data=[52, 0]),
   midi.NoteOnEvent(tick=0, channel=4, data=[54, 100]),
   midi.NoteOnEvent(tick=0, channel=4, data=[51, 100]),
   midi.NoteOnEvent(tick=108, channel=4, data=[51, 0]),
   midi.NoteOnEvent(tick=0, channel=4, data=[54, 0]),
   midi.NoteOnEvent(tick=0, channel=4, data=[40, 100]),
   midi.NoteOnEvent(tick=108, channel=4, data=[40, 0]),
   midi.NoteOnEvent(tick=0, channel=4, data=[47, 100]),
   midi.NoteOnEvent(tick=0, channel=4, data=[40, 100]),
   midi.NoteOnEvent(tick=54, channel=4, data=[40, 0]),
   midi.NoteOnEvent(tick=0, channel=4, data=[47, 0]),
   midi.NoteOnEvent(tick=0, channel=4, data=[47, 100]),
   midi.NoteOnEvent(tick=0, channel=4, data=[40, 100]),
   midi.NoteOnEvent(tick=54, channel=4, data=[40, 0]),
   midi.NoteOnEvent(tick=0, channel=4, data=[47, 0]),
   midi.NoteOnEvent(tick=0, channel=4, data=[40, 100]),
   midi.NoteOnEvent(tick=108, channel=4, data=[40, 0]),
   midi.NoteOnEvent(tick=0, channel=4, data=[47, 100]),
   midi.NoteOnEvent(tick=0, channel=4, data=[40, 100]),
   midi.NoteOnEvent(tick=54, channel=4, data=[40, 0]),
   midi.NoteOnEvent(tick=0, channel=4, data=[47, 0]),
   midi.NoteOnEvent(tick=0, channel=4, data=[47, 100]),
   midi.NoteOnEvent(tick=0, channel=4, data=[40, 100]),
   midi.NoteOnEvent(tick=54, channel=4, data=[40, 0]),
   midi.NoteOnEvent(tick=0, channel=4, data=[47, 0]),
   midi.NoteOnEvent(tick=0, channel=4, data=[40, 100]),
   midi.NoteOnEvent(tick=108, channel=4, data=[40, 0]),
   midi.NoteOnEvent(tick=0, channel=4, data=[46, 100]),
   midi.NoteOnEvent(tick=0, channel=4, data=[53, 100]),
   midi.NoteOnEvent(tick=0, channel=4, data=[58, 100]),
   midi.NoteOnEvent(tick=108, channel=4, data=[58, 0]),
   midi.NoteOnEvent(tick=0, channel=4, data=[53, 0]),
   midi.NoteOnEvent(tick=0, channel=4, data=[46, 0]),
   midi.NoteOnEvent(tick=0, channel=4, data=[46, 100]),
   midi.NoteOnEvent(tick=0, channel=4, data=[53, 100]),
   midi.NoteOnEvent(tick=0, channel=4, data=[58, 100]),
   midi.NoteOnEvent(tick=108, channel=4, data=[58, 0]),
   midi.NoteOnEvent(tick=0, channel=4, data=[53, 0]),
   midi.NoteOnEvent(tick=0, channel=4, data=[46, 0]),
   midi.NoteOnEvent(tick=0, channel=4, data=[45, 100]),
   midi.NoteOnEvent(tick=0, channel=4, data=[52, 100]),
   midi.NoteOnEvent(tick=0, channel=4, data=[57, 100]),
   midi.NoteOnEvent(tick=108, channel=4, data=[57, 0]),
   midi.NoteOnEvent(tick=0, channel=4, data=[52, 0]),
   midi.NoteOnEvent(tick=0, channel=4, data=[45, 0]),
   midi.NoteOnEvent(tick=0, channel=4, data=[46, 100]),
   midi.NoteOnEvent(tick=0, channel=4, data=[53, 100]),
   midi.NoteOnEvent(tick=0, channel=4, data=[58, 100]),
   midi.NoteOnEvent(tick=108, channel=4, data=[58, 0]),
   midi.NoteOnEvent(tick=0, channel=4, data=[53, 0]),
   midi.NoteOnEvent(tick=0, channel=4, data=[46, 0]),
   midi.NoteOnEvent(tick=0, channel=4, data=[48, 100]),
   midi.NoteOnEvent(tick=0, channel=4, data=[41, 100]),
   midi.NoteOnEvent(tick=0, channel=4, data=[53, 100]),
   midi.NoteOnEvent(tick=108, channel=4, data=[53, 0]),
   midi.NoteOnEvent(tick=0, channel=4, data=[41, 0]),
   midi.NoteOnEvent(tick=0, channel=4, data=[48, 0]),
   midi.NoteOnEvent(tick=0, channel=4, data=[40, 100]),
   midi.NoteOnEvent(tick=108, channel=4, data=[40, 0]),
   midi.NoteOnEvent(tick=0, channel=4, data=[52, 100]),
   midi.NoteOnEvent(tick=0, channel=4, data=[47, 100]),
   midi.NoteOnEvent(tick=0, channel=4, data=[40, 100]),
   midi.NoteOnEvent(tick=54, channel=4, data=[40, 0]),
   midi.NoteOnEvent(tick=0, channel=4, data=[47, 0]),
   midi.NoteOnEvent(tick=0, channel=4, data=[52, 0]),
   midi.NoteOnEvent(tick=0, channel=4, data=[52, 100]),
   midi.NoteOnEvent(tick=0, channel=4, data=[47, 100]),
   midi.NoteOnEvent(tick=0, channel=4, data=[40, 100]),
   midi.NoteOnEvent(tick=54, channel=4, data=[40, 0]),
   midi.NoteOnEvent(tick=0, channel=4, data=[47, 0]),
   midi.NoteOnEvent(tick=0, channel=4, data=[52, 0]),
   midi.NoteOnEvent(tick=0, channel=4, data=[40, 100]),
   midi.NoteOnEvent(tick=108, channel=4, data=[40, 0]),
   midi.NoteOnEvent(tick=0, channel=4, data=[52, 100]),
   midi.NoteOnEvent(tick=0, channel=4, data=[47, 100]),
   midi.NoteOnEvent(tick=0, channel=4, data=[40, 100]),
   midi.NoteOnEvent(tick=54, channel=4, data=[40, 0]),
   midi.NoteOnEvent(tick=0, channel=4, data=[47, 0]),
   midi.NoteOnEvent(tick=0, channel=4, data=[52, 0]),
   midi.NoteOnEvent(tick=0, channel=4, data=[52, 100]),
   midi.NoteOnEvent(tick=0, channel=4, data=[47, 100]),
   midi.NoteOnEvent(tick=0, channel=4, data=[40, 100]),
   midi.NoteOnEvent(tick=54, channel=4, data=[40, 0]),
   midi.NoteOnEvent(tick=0, channel=4, data=[47, 0]),
   midi.NoteOnEvent(tick=0, channel=4, data=[52, 0]),
   midi.NoteOnEvent(tick=0, channel=4, data=[40, 100]),
   midi.NoteOnEvent(tick=108, channel=4, data=[40, 0]),
   midi.NoteOnEvent(tick=0, channel=4, data=[46, 100]),
   midi.NoteOnEvent(tick=0, channel=4, data=[53, 100]),
   midi.NoteOnEvent(tick=0, channel=4, data=[58, 100]),
   midi.NoteOnEvent(tick=108, channel=4, data=[58, 0]),
   midi.NoteOnEvent(tick=0, channel=4, data=[53, 0]),
   midi.NoteOnEvent(tick=0, channel=4, data=[46, 0]),
   midi.NoteOnEvent(tick=0, channel=4, data=[46, 100]),
   midi.NoteOnEvent(tick=0, channel=4, data=[53, 100]),
   midi.NoteOnEvent(tick=0, channel=4, data=[58, 100]),
   midi.NoteOnEvent(tick=108, channel=4, data=[58, 0]),
   midi.NoteOnEvent(tick=0, channel=4, data=[53, 0]),
   midi.NoteOnEvent(tick=0, channel=4, data=[46, 0]),
   midi.NoteOnEvent(tick=0, channel=4, data=[45, 100]),
   midi.NoteOnEvent(tick=0, channel=4, data=[52, 100]),
   midi.NoteOnEvent(tick=0, channel=4, data=[57, 100]),
   midi.NoteOnEvent(tick=108, channel=4, data=[57, 0]),
   midi.NoteOnEvent(tick=0, channel=4, data=[52, 0]),
   midi.NoteOnEvent(tick=0, channel=4, data=[45, 0]),
   midi.NoteOnEvent(tick=0, channel=4, data=[40, 100]),
   midi.NoteOnEvent(tick=108, channel=4, data=[40, 0]),
   midi.NoteOnEvent(tick=0, channel=4, data=[52, 100]),
   midi.NoteOnEvent(tick=0, channel=4, data=[47, 100]),
   midi.NoteOnEvent(tick=0, channel=4, data=[40, 100]),
   midi.NoteOnEvent(tick=54, channel=4, data=[40, 0]),
   midi.NoteOnEvent(tick=0, channel=4, data=[47, 0]),
   midi.NoteOnEvent(tick=0, channel=4, data=[52, 0]),
   midi.NoteOnEvent(tick=0, channel=4, data=[47, 100]),
   midi.NoteOnEvent(tick=0, channel=4, data=[52, 100]),
   midi.NoteOnEvent(tick=0, channel=4, data=[40, 100]),
   midi.NoteOnEvent(tick=54, channel=4, data=[40, 0]),
   midi.NoteOnEvent(tick=0, channel=4, data=[52, 0]),
   midi.NoteOnEvent(tick=0, channel=4, data=[47, 0]),
   midi.NoteOnEvent(tick=0, channel=4, data=[40, 100]),
   midi.NoteOnEvent(tick=108, channel=4, data=[40, 0]),
   midi.NoteOnEvent(tick=0, channel=4, data=[52, 100]),
   midi.NoteOnEvent(tick=0, channel=4, data=[47, 100]),
   midi.NoteOnEvent(tick=0, channel=4, data=[40, 100]),
   midi.NoteOnEvent(tick=54, channel=4, data=[40, 0]),
   midi.NoteOnEvent(tick=0, channel=4, data=[47, 0]),
   midi.NoteOnEvent(tick=0, channel=4, data=[52, 0]),
   midi.NoteOnEvent(tick=0, channel=4, data=[47, 100]),
   midi.NoteOnEvent(tick=0, channel=4, data=[52, 100]),
   midi.NoteOnEvent(tick=0, channel=4, data=[40, 100]),
   midi.NoteOnEvent(tick=54, channel=4, data=[40, 0]),
   midi.NoteOnEvent(tick=0, channel=4, data=[52, 0]),
   midi.NoteOnEvent(tick=0, channel=4, data=[47, 0]),
   midi.NoteOnEvent(tick=0, channel=4, data=[40, 100]),
   midi.NoteOnEvent(tick=108, channel=4, data=[40, 0]),
   midi.NoteOnEvent(tick=0, channel=4, data=[52, 100]),
   midi.NoteOnEvent(tick=0, channel=4, data=[55, 100]),
   midi.NoteOnEvent(tick=108, channel=4, data=[55, 0]),
   midi.NoteOnEvent(tick=0, channel=4, data=[52, 0]),
   midi.NoteOnEvent(tick=0, channel=4, data=[52, 100]),
   midi.NoteOnEvent(tick=0, channel=4, data=[55, 100]),
   midi.NoteOnEvent(tick=108, channel=4, data=[55, 0]),
   midi.NoteOnEvent(tick=0, channel=4, data=[52, 0]),
   midi.NoteOnEvent(tick=0, channel=4, data=[54, 100]),
   midi.NoteOnEvent(tick=0, channel=4, data=[51, 100]),
   midi.NoteOnEvent(tick=108, channel=4, data=[51, 0]),
   midi.NoteOnEvent(tick=0, channel=4, data=[54, 0]),
   midi.NoteOnEvent(tick=0, channel=4, data=[52, 100]),
   midi.NoteOnEvent(tick=0, channel=4, data=[55, 100]),
   midi.NoteOnEvent(tick=108, channel=4, data=[55, 0]),
   midi.NoteOnEvent(tick=0, channel=4, data=[52, 0]),
   midi.NoteOnEvent(tick=0, channel=4, data=[47, 100]),
   midi.NoteOnEvent(tick=0, channel=4, data=[40, 100]),
   midi.NoteOnEvent(tick=54, channel=4, data=[40, 0]),
   midi.NoteOnEvent(tick=0, channel=4, data=[47, 0]),
   midi.NoteOnEvent(tick=0, channel=4, data=[47, 100]),
   midi.NoteOnEvent(tick=0, channel=4, data=[40, 100]),
   midi.NoteOnEvent(tick=54, channel=4, data=[40, 0]),
   midi.NoteOnEvent(tick=0, channel=4, data=[47, 0]),
   midi.NoteOnEvent(tick=0, channel=4, data=[40, 100]),
   midi.NoteOnEvent(tick=108, channel=4, data=[40, 0]),
   midi.NoteOnEvent(tick=0, channel=4, data=[47, 100]),
   midi.NoteOnEvent(tick=0, channel=4, data=[40, 100]),
   midi.NoteOnEvent(tick=54, channel=4, data=[40, 0]),
   midi.NoteOnEvent(tick=0, channel=4, data=[47, 0]),
   midi.NoteOnEvent(tick=0, channel=4, data=[47, 100]),
   midi.NoteOnEvent(tick=0, channel=4, data=[40, 100]),
   midi.NoteOnEvent(tick=54, channel=4, data=[40, 0]),
   midi.NoteOnEvent(tick=0, channel=4, data=[47, 0]),
   midi.NoteOnEvent(tick=0, channel=4, data=[40, 100]),
   midi.NoteOnEvent(tick=108, channel=4, data=[40, 0]),
   midi.NoteOnEvent(tick=0, channel=4, data=[46, 100]),
   midi.NoteOnEvent(tick=0, channel=4, data=[53, 100]),
   midi.NoteOnEvent(tick=0, channel=4, data=[58, 100]),
   midi.NoteOnEvent(tick=108, channel=4, data=[58, 0]),
   midi.NoteOnEvent(tick=0, channel=4, data=[53, 0]),
   midi.NoteOnEvent(tick=0, channel=4, data=[46, 0]),
   midi.NoteOnEvent(tick=0, channel=4, data=[46, 100]),
   midi.NoteOnEvent(tick=0, channel=4, data=[53, 100]),
   midi.NoteOnEvent(tick=0, channel=4, data=[58, 100]),
   midi.NoteOnEvent(tick=108, channel=4, data=[58, 0]),
   midi.NoteOnEvent(tick=0, channel=4, data=[53, 0]),
   midi.NoteOnEvent(tick=0, channel=4, data=[46, 0]),
   midi.NoteOnEvent(tick=0, channel=4, data=[45, 100]),
   midi.NoteOnEvent(tick=0, channel=4, data=[52, 100]),
   midi.NoteOnEvent(tick=0, channel=4, data=[57, 100]),
   midi.NoteOnEvent(tick=108, channel=4, data=[57, 0]),
   midi.NoteOnEvent(tick=0, channel=4, data=[52, 0]),
   midi.NoteOnEvent(tick=0, channel=4, data=[45, 0]),
   midi.NoteOnEvent(tick=0, channel=4, data=[46, 100]),
   midi.NoteOnEvent(tick=0, channel=4, data=[53, 100]),
   midi.NoteOnEvent(tick=0, channel=4, data=[58, 100]),
   midi.NoteOnEvent(tick=216, channel=4, data=[58, 0]),
   midi.NoteOnEvent(tick=0, channel=4, data=[53, 0]),
   midi.NoteOnEvent(tick=0, channel=4, data=[46, 0]),
   midi.NoteOnEvent(tick=0, channel=4, data=[48, 100]),
   midi.NoteOnEvent(tick=0, channel=4, data=[41, 100]),
   midi.NoteOnEvent(tick=0, channel=4, data=[53, 100]),
   midi.NoteOnEvent(tick=216, channel=4, data=[53, 0]),
   midi.NoteOnEvent(tick=0, channel=4, data=[41, 0]),
   midi.NoteOnEvent(tick=0, channel=4, data=[48, 0]),
   midi.NoteOnEvent(tick=0, channel=4, data=[47, 100]),
   midi.NoteOnEvent(tick=0, channel=4, data=[40, 100]),
   midi.NoteOnEvent(tick=0, channel=4, data=[52, 100]),
   midi.NoteOnEvent(tick=216, channel=4, data=[52, 0]),
   midi.NoteOnEvent(tick=0, channel=4, data=[40, 0]),
   midi.NoteOnEvent(tick=0, channel=4, data=[47, 0]),
   midi.NoteOnEvent(tick=216, channel=4, data=[52, 100]),
   midi.NoteOnEvent(tick=0, channel=4, data=[47, 100]),
   midi.NoteOnEvent(tick=0, channel=4, data=[40, 100]),
   midi.NoteOnEvent(tick=864, channel=4, data=[40, 0]),
   midi.NoteOnEvent(tick=0, channel=4, data=[47, 0]),
   midi.NoteOnEvent(tick=0, channel=4, data=[52, 0]),
   midi.NoteOnEvent(tick=0, channel=4, data=[55, 100]),
   midi.NoteOnEvent(tick=0, channel=4, data=[50, 100]),
   midi.NoteOnEvent(tick=0, channel=4, data=[43, 100]),
   midi.NoteOnEvent(tick=860, channel=4, data=[43, 0]),
   midi.NoteOnEvent(tick=0, channel=4, data=[50, 0]),
   midi.NoteOnEvent(tick=0, channel=4, data=[55, 0]),
   midi.NoteOnEvent(tick=4, channel=4, data=[57, 100]),
   midi.NoteOnEvent(tick=0, channel=4, data=[52, 100]),
   midi.NoteOnEvent(tick=0, channel=4, data=[45, 100]),
   midi.NoteOnEvent(tick=428, channel=4, data=[45, 0]),
   midi.NoteOnEvent(tick=0, channel=4, data=[52, 0]),
   midi.NoteOnEvent(tick=0, channel=4, data=[57, 0]),
   midi.NoteOnEvent(tick=4, channel=4, data=[53, 100]),
   midi.NoteOnEvent(tick=0, channel=4, data=[48, 100]),
   midi.NoteOnEvent(tick=0, channel=4, data=[41, 100]),
   midi.NoteOnEvent(tick=104, channel=4, data=[41, 0]),
   midi.NoteOnEvent(tick=0, channel=4, data=[48, 0]),
   midi.NoteOnEvent(tick=0, channel=4, data=[53, 0]),
   midi.NoteOnEvent(tick=4, channel=4, data=[53, 100]),
   midi.NoteOnEvent(tick=0, channel=4, data=[48, 100]),
   midi.NoteOnEvent(tick=0, channel=4, data=[41, 100]),
   midi.NoteOnEvent(tick=104, channel=4, data=[41, 0]),
   midi.NoteOnEvent(tick=0, channel=4, data=[48, 0]),
   midi.NoteOnEvent(tick=0, channel=4, data=[53, 0]),
   midi.NoteOnEvent(tick=4, channel=4, data=[42, 100]),
   midi.NoteOnEvent(tick=0, channel=4, data=[51, 100]),
   midi.NoteOnEvent(tick=0, channel=4, data=[47, 100]),
   midi.NoteOnEvent(tick=212, channel=4, data=[47, 0]),
   midi.NoteOnEvent(tick=0, channel=4, data=[51, 0]),
   midi.NoteOnEvent(tick=0, channel=4, data=[42, 0]),
   midi.NoteOnEvent(tick=4, channel=4, data=[40, 100]),
   midi.NoteOnEvent(tick=108, channel=4, data=[40, 0]),
   midi.NoteOnEvent(tick=0, channel=4, data=[47, 100]),
   midi.NoteOnEvent(tick=0, channel=4, data=[40, 100]),
   midi.NoteOnEvent(tick=54, channel=4, data=[40, 0]),
   midi.NoteOnEvent(tick=0, channel=4, data=[47, 0]),
   midi.NoteOnEvent(tick=0, channel=4, data=[47, 100]),
   midi.NoteOnEvent(tick=0, channel=4, data=[40, 100]),
   midi.NoteOnEvent(tick=54, channel=4, data=[40, 0]),
   midi.NoteOnEvent(tick=0, channel=4, data=[47, 0]),
   midi.NoteOnEvent(tick=0, channel=4, data=[40, 100]),
   midi.NoteOnEvent(tick=108, channel=4, data=[40, 0]),
   midi.NoteOnEvent(tick=0, channel=4, data=[47, 100]),
   midi.NoteOnEvent(tick=0, channel=4, data=[40, 100]),
   midi.NoteOnEvent(tick=54, channel=4, data=[40, 0]),
   midi.NoteOnEvent(tick=0, channel=4, data=[47, 0]),
   midi.NoteOnEvent(tick=0, channel=4, data=[47, 100]),
   midi.NoteOnEvent(tick=0, channel=4, data=[40, 100]),
   midi.NoteOnEvent(tick=54, channel=4, data=[40, 0]),
   midi.NoteOnEvent(tick=0, channel=4, data=[47, 0]),
   midi.NoteOnEvent(tick=0, channel=4, data=[40, 100]),
   midi.NoteOnEvent(tick=108, channel=4, data=[40, 0]),
   midi.NoteOnEvent(tick=0, channel=4, data=[46, 100]),
   midi.NoteOnEvent(tick=0, channel=4, data=[53, 100]),
   midi.NoteOnEvent(tick=0, channel=4, data=[58, 100]),
   midi.NoteOnEvent(tick=108, channel=4, data=[58, 0]),
   midi.NoteOnEvent(tick=0, channel=4, data=[53, 0]),
   midi.NoteOnEvent(tick=0, channel=4, data=[46, 0]),
   midi.NoteOnEvent(tick=0, channel=4, data=[46, 100]),
   midi.NoteOnEvent(tick=0, channel=4, data=[53, 100]),
   midi.NoteOnEvent(tick=0, channel=4, data=[58, 100]),
   midi.NoteOnEvent(tick=108, channel=4, data=[58, 0]),
   midi.NoteOnEvent(tick=0, channel=4, data=[53, 0]),
   midi.NoteOnEvent(tick=0, channel=4, data=[46, 0]),
   midi.NoteOnEvent(tick=0, channel=4, data=[45, 100]),
   midi.NoteOnEvent(tick=0, channel=4, data=[52, 100]),
   midi.NoteOnEvent(tick=0, channel=4, data=[57, 100]),
   midi.NoteOnEvent(tick=108, channel=4, data=[57, 0]),
   midi.NoteOnEvent(tick=0, channel=4, data=[52, 0]),
   midi.NoteOnEvent(tick=0, channel=4, data=[45, 0]),
   midi.NoteOnEvent(tick=0, channel=4, data=[40, 100]),
   midi.NoteOnEvent(tick=108, channel=4, data=[40, 0]),
   midi.NoteOnEvent(tick=0, channel=4, data=[47, 100]),
   midi.NoteOnEvent(tick=0, channel=4, data=[40, 100]),
   midi.NoteOnEvent(tick=54, channel=4, data=[40, 0]),
   midi.NoteOnEvent(tick=0, channel=4, data=[47, 0]),
   midi.NoteOnEvent(tick=0, channel=4, data=[47, 100]),
   midi.NoteOnEvent(tick=0, channel=4, data=[40, 100]),
   midi.NoteOnEvent(tick=54, channel=4, data=[40, 0]),
   midi.NoteOnEvent(tick=0, channel=4, data=[47, 0]),
   midi.NoteOnEvent(tick=0, channel=4, data=[40, 100]),
   midi.NoteOnEvent(tick=108, channel=4, data=[40, 0]),
   midi.NoteOnEvent(tick=0, channel=4, data=[47, 100]),
   midi.NoteOnEvent(tick=0, channel=4, data=[40, 100]),
   midi.NoteOnEvent(tick=54, channel=4, data=[40, 0]),
   midi.NoteOnEvent(tick=0, channel=4, data=[47, 0]),
   midi.NoteOnEvent(tick=0, channel=4, data=[47, 100]),
   midi.NoteOnEvent(tick=0, channel=4, data=[40, 100]),
   midi.NoteOnEvent(tick=54, channel=4, data=[40, 0]),
   midi.NoteOnEvent(tick=0, channel=4, data=[47, 0]),
   midi.NoteOnEvent(tick=0, channel=4, data=[40, 100]),
   midi.NoteOnEvent(tick=108, channel=4, data=[40, 0]),
   midi.NoteOnEvent(tick=0, channel=4, data=[52, 100]),
   midi.NoteOnEvent(tick=0, channel=4, data=[55, 100]),
   midi.NoteOnEvent(tick=108, channel=4, data=[55, 0]),
   midi.NoteOnEvent(tick=0, channel=4, data=[52, 0]),
   midi.NoteOnEvent(tick=0, channel=4, data=[52, 100]),
   midi.NoteOnEvent(tick=0, channel=4, data=[55, 100]),
   midi.NoteOnEvent(tick=108, channel=4, data=[55, 0]),
   midi.NoteOnEvent(tick=0, channel=4, data=[52, 0]),
   midi.NoteOnEvent(tick=0, channel=4, data=[54, 100]),
   midi.NoteOnEvent(tick=0, channel=4, data=[51, 100]),
   midi.NoteOnEvent(tick=108, channel=4, data=[51, 0]),
   midi.NoteOnEvent(tick=0, channel=4, data=[54, 0]),
   midi.NoteOnEvent(tick=0, channel=4, data=[52, 100]),
   midi.NoteOnEvent(tick=0, channel=4, data=[55, 100]),
   midi.NoteOnEvent(tick=108, channel=4, data=[55, 0]),
   midi.NoteOnEvent(tick=0, channel=4, data=[52, 0]),
   midi.NoteOnEvent(tick=0, channel=4, data=[47, 100]),
   midi.NoteOnEvent(tick=0, channel=4, data=[40, 100]),
   midi.NoteOnEvent(tick=54, channel=4, data=[40, 0]),
   midi.NoteOnEvent(tick=0, channel=4, data=[47, 0]),
   midi.NoteOnEvent(tick=0, channel=4, data=[47, 100]),
   midi.NoteOnEvent(tick=0, channel=4, data=[40, 100]),
   midi.NoteOnEvent(tick=54, channel=4, data=[40, 0]),
   midi.NoteOnEvent(tick=0, channel=4, data=[47, 0]),
   midi.NoteOnEvent(tick=0, channel=4, data=[40, 100]),
   midi.NoteOnEvent(tick=108, channel=4, data=[40, 0]),
   midi.NoteOnEvent(tick=0, channel=4, data=[47, 100]),
   midi.NoteOnEvent(tick=0, channel=4, data=[40, 100]),
   midi.NoteOnEvent(tick=54, channel=4, data=[40, 0]),
   midi.NoteOnEvent(tick=0, channel=4, data=[47, 0]),
   midi.NoteOnEvent(tick=0, channel=4, data=[47, 100]),
   midi.NoteOnEvent(tick=0, channel=4, data=[40, 100]),
   midi.NoteOnEvent(tick=54, channel=4, data=[40, 0]),
   midi.NoteOnEvent(tick=0, channel=4, data=[47, 0]),
   midi.NoteOnEvent(tick=0, channel=4, data=[40, 100]),
   midi.NoteOnEvent(tick=108, channel=4, data=[40, 0]),
   midi.NoteOnEvent(tick=0, channel=4, data=[46, 100]),
   midi.NoteOnEvent(tick=0, channel=4, data=[53, 100]),
   midi.NoteOnEvent(tick=0, channel=4, data=[58, 100]),
   midi.NoteOnEvent(tick=108, channel=4, data=[58, 0]),
   midi.NoteOnEvent(tick=0, channel=4, data=[53, 0]),
   midi.NoteOnEvent(tick=0, channel=4, data=[46, 0]),
   midi.NoteOnEvent(tick=0, channel=4, data=[46, 100]),
   midi.NoteOnEvent(tick=0, channel=4, data=[53, 100]),
   midi.NoteOnEvent(tick=0, channel=4, data=[58, 100]),
   midi.NoteOnEvent(tick=108, channel=4, data=[58, 0]),
   midi.NoteOnEvent(tick=0, channel=4, data=[53, 0]),
   midi.NoteOnEvent(tick=0, channel=4, data=[46, 0]),
   midi.NoteOnEvent(tick=0, channel=4, data=[45, 100]),
   midi.NoteOnEvent(tick=0, channel=4, data=[52, 100]),
   midi.NoteOnEvent(tick=0, channel=4, data=[57, 100]),
   midi.NoteOnEvent(tick=108, channel=4, data=[57, 0]),
   midi.NoteOnEvent(tick=0, channel=4, data=[52, 0]),
   midi.NoteOnEvent(tick=0, channel=4, data=[45, 0]),
   midi.NoteOnEvent(tick=0, channel=4, data=[40, 100]),
   midi.NoteOnEvent(tick=108, channel=4, data=[40, 0]),
   midi.NoteOnEvent(tick=0, channel=4, data=[42, 100]),
   midi.NoteOnEvent(tick=0, channel=4, data=[49, 100]),
   midi.NoteOnEvent(tick=0, channel=4, data=[54, 100]),
   midi.NoteOnEvent(tick=216, channel=4, data=[54, 0]),
   midi.NoteOnEvent(tick=0, channel=4, data=[49, 0]),
   midi.NoteOnEvent(tick=0, channel=4, data=[42, 0]),
   midi.NoteOnEvent(tick=0, channel=4, data=[43, 100]),
   midi.NoteOnEvent(tick=0, channel=4, data=[50, 100]),
   midi.NoteOnEvent(tick=0, channel=4, data=[55, 100]),
   midi.NoteOnEvent(tick=108, channel=4, data=[55, 0]),
   midi.NoteOnEvent(tick=0, channel=4, data=[50, 0]),
   midi.NoteOnEvent(tick=0, channel=4, data=[43, 0]),
   midi.NoteOnEvent(tick=0, channel=4, data=[40, 100]),
   midi.NoteOnEvent(tick=108, channel=4, data=[40, 0]),
   midi.NoteOnEvent(tick=0, channel=4, data=[55, 100]),
   midi.NoteOnEvent(tick=0, channel=4, data=[50, 100]),
   midi.NoteOnEvent(tick=0, channel=4, data=[43, 100]),
   midi.NoteOnEvent(tick=216, channel=4, data=[43, 0]),
   midi.NoteOnEvent(tick=0, channel=4, data=[50, 0]),
   midi.NoteOnEvent(tick=0, channel=4, data=[55, 0]),
   midi.NoteOnEvent(tick=0, channel=4, data=[44, 100]),
   midi.NoteOnEvent(tick=0, channel=4, data=[51, 100]),
   midi.NoteOnEvent(tick=0, channel=4, data=[56, 100]),
   midi.NoteOnEvent(tick=108, channel=4, data=[56, 0]),
   midi.NoteOnEvent(tick=0, channel=4, data=[51, 0]),
   midi.NoteOnEvent(tick=0, channel=4, data=[44, 0]),
   midi.NoteOnEvent(tick=0, channel=4, data=[40, 100]),
   midi.NoteOnEvent(tick=108, channel=4, data=[40, 0]),
   midi.NoteOnEvent(tick=0, channel=4, data=[47, 100]),
   midi.NoteOnEvent(tick=0, channel=4, data=[40, 100]),
   midi.NoteOnEvent(tick=54, channel=4, data=[40, 0]),
   midi.NoteOnEvent(tick=0, channel=4, data=[47, 0]),
   midi.NoteOnEvent(tick=0, channel=4, data=[47, 100]),
   midi.NoteOnEvent(tick=0, channel=4, data=[40, 100]),
   midi.NoteOnEvent(tick=54, channel=4, data=[40, 0]),
   midi.NoteOnEvent(tick=0, channel=4, data=[47, 0]),
   midi.NoteOnEvent(tick=0, channel=4, data=[40, 100]),
   midi.NoteOnEvent(tick=108, channel=4, data=[40, 0]),
   midi.NoteOnEvent(tick=0, channel=4, data=[47, 100]),
   midi.NoteOnEvent(tick=0, channel=4, data=[40, 100]),
   midi.NoteOnEvent(tick=54, channel=4, data=[40, 0]),
   midi.NoteOnEvent(tick=0, channel=4, data=[47, 0]),
   midi.NoteOnEvent(tick=0, channel=4, data=[47, 100]),
   midi.NoteOnEvent(tick=0, channel=4, data=[40, 100]),
   midi.NoteOnEvent(tick=54, channel=4, data=[40, 0]),
   midi.NoteOnEvent(tick=0, channel=4, data=[47, 0]),
   midi.NoteOnEvent(tick=0, channel=4, data=[40, 100]),
   midi.NoteOnEvent(tick=108, channel=4, data=[40, 0]),
   midi.NoteOnEvent(tick=0, channel=4, data=[46, 100]),
   midi.NoteOnEvent(tick=0, channel=4, data=[53, 100]),
   midi.NoteOnEvent(tick=0, channel=4, data=[58, 100]),
   midi.NoteOnEvent(tick=108, channel=4, data=[58, 0]),
   midi.NoteOnEvent(tick=0, channel=4, data=[53, 0]),
   midi.NoteOnEvent(tick=0, channel=4, data=[46, 0]),
   midi.NoteOnEvent(tick=0, channel=4, data=[46, 100]),
   midi.NoteOnEvent(tick=0, channel=4, data=[53, 100]),
   midi.NoteOnEvent(tick=0, channel=4, data=[58, 100]),
   midi.NoteOnEvent(tick=108, channel=4, data=[58, 0]),
   midi.NoteOnEvent(tick=0, channel=4, data=[53, 0]),
   midi.NoteOnEvent(tick=0, channel=4, data=[46, 0]),
   midi.NoteOnEvent(tick=0, channel=4, data=[45, 100]),
   midi.NoteOnEvent(tick=0, channel=4, data=[52, 100]),
   midi.NoteOnEvent(tick=0, channel=4, data=[57, 100]),
   midi.NoteOnEvent(tick=108, channel=4, data=[57, 0]),
   midi.NoteOnEvent(tick=0, channel=4, data=[52, 0]),
   midi.NoteOnEvent(tick=0, channel=4, data=[45, 0]),
   midi.NoteOnEvent(tick=0, channel=4, data=[40, 100]),
   midi.NoteOnEvent(tick=108, channel=4, data=[40, 0]),
   midi.NoteOnEvent(tick=0, channel=4, data=[52, 100]),
   midi.NoteOnEvent(tick=0, channel=4, data=[47, 100]),
   midi.NoteOnEvent(tick=0, channel=4, data=[40, 100]),
   midi.NoteOnEvent(tick=54, channel=4, data=[40, 0]),
   midi.NoteOnEvent(tick=0, channel=4, data=[47, 0]),
   midi.NoteOnEvent(tick=0, channel=4, data=[52, 0]),
   midi.NoteOnEvent(tick=0, channel=4, data=[52, 100]),
   midi.NoteOnEvent(tick=0, channel=4, data=[47, 100]),
   midi.NoteOnEvent(tick=0, channel=4, data=[40, 100]),
   midi.NoteOnEvent(tick=54, channel=4, data=[40, 0]),
   midi.NoteOnEvent(tick=0, channel=4, data=[47, 0]),
   midi.NoteOnEvent(tick=0, channel=4, data=[52, 0]),
   midi.NoteOnEvent(tick=0, channel=4, data=[40, 100]),
   midi.NoteOnEvent(tick=108, channel=4, data=[40, 0]),
   midi.NoteOnEvent(tick=0, channel=4, data=[52, 100]),
   midi.NoteOnEvent(tick=0, channel=4, data=[47, 100]),
   midi.NoteOnEvent(tick=0, channel=4, data=[40, 100]),
   midi.NoteOnEvent(tick=54, channel=4, data=[40, 0]),
   midi.NoteOnEvent(tick=0, channel=4, data=[47, 0]),
   midi.NoteOnEvent(tick=0, channel=4, data=[52, 0]),
   midi.NoteOnEvent(tick=0, channel=4, data=[52, 100]),
   midi.NoteOnEvent(tick=0, channel=4, data=[47, 100]),
   midi.NoteOnEvent(tick=0, channel=4, data=[40, 100]),
   midi.NoteOnEvent(tick=54, channel=4, data=[40, 0]),
   midi.NoteOnEvent(tick=0, channel=4, data=[47, 0]),
   midi.NoteOnEvent(tick=0, channel=4, data=[52, 0]),
   midi.NoteOnEvent(tick=0, channel=4, data=[40, 100]),
   midi.NoteOnEvent(tick=108, channel=4, data=[40, 0]),
   midi.NoteOnEvent(tick=0, channel=4, data=[52, 100]),
   midi.NoteOnEvent(tick=0, channel=4, data=[55, 100]),
   midi.NoteOnEvent(tick=108, channel=4, data=[55, 0]),
   midi.NoteOnEvent(tick=0, channel=4, data=[52, 0]),
   midi.NoteOnEvent(tick=0, channel=4, data=[52, 100]),
   midi.NoteOnEvent(tick=0, channel=4, data=[55, 100]),
   midi.NoteOnEvent(tick=108, channel=4, data=[55, 0]),
   midi.NoteOnEvent(tick=0, channel=4, data=[52, 0]),
   midi.NoteOnEvent(tick=0, channel=4, data=[54, 100]),
   midi.NoteOnEvent(tick=0, channel=4, data=[51, 100]),
   midi.NoteOnEvent(tick=108, channel=4, data=[51, 0]),
   midi.NoteOnEvent(tick=0, channel=4, data=[54, 0]),
   midi.NoteOnEvent(tick=0, channel=4, data=[52, 100]),
   midi.NoteOnEvent(tick=0, channel=4, data=[55, 100]),
   midi.NoteOnEvent(tick=108, channel=4, data=[55, 0]),
   midi.NoteOnEvent(tick=0, channel=4, data=[52, 0]),
   midi.NoteOnEvent(tick=0, channel=4, data=[47, 100]),
   midi.NoteOnEvent(tick=0, channel=4, data=[40, 100]),
   midi.NoteOnEvent(tick=54, channel=4, data=[40, 0]),
   midi.NoteOnEvent(tick=0, channel=4, data=[47, 0]),
   midi.NoteOnEvent(tick=0, channel=4, data=[47, 100]),
   midi.NoteOnEvent(tick=0, channel=4, data=[40, 100]),
   midi.NoteOnEvent(tick=54, channel=4, data=[40, 0]),
   midi.NoteOnEvent(tick=0, channel=4, data=[47, 0]),
   midi.NoteOnEvent(tick=0, channel=4, data=[40, 100]),
   midi.NoteOnEvent(tick=108, channel=4, data=[40, 0]),
   midi.NoteOnEvent(tick=0, channel=4, data=[47, 100]),
   midi.NoteOnEvent(tick=0, channel=4, data=[40, 100]),
   midi.NoteOnEvent(tick=54, channel=4, data=[40, 0]),
   midi.NoteOnEvent(tick=0, channel=4, data=[47, 0]),
   midi.NoteOnEvent(tick=0, channel=4, data=[47, 100]),
   midi.NoteOnEvent(tick=0, channel=4, data=[40, 100]),
   midi.NoteOnEvent(tick=54, channel=4, data=[40, 0]),
   midi.NoteOnEvent(tick=0, channel=4, data=[47, 0]),
   midi.NoteOnEvent(tick=0, channel=4, data=[40, 100]),
   midi.NoteOnEvent(tick=108, channel=4, data=[40, 0]),
   midi.NoteOnEvent(tick=0, channel=4, data=[46, 100]),
   midi.NoteOnEvent(tick=0, channel=4, data=[53, 100]),
   midi.NoteOnEvent(tick=0, channel=4, data=[58, 100]),
   midi.NoteOnEvent(tick=108, channel=4, data=[58, 0]),
   midi.NoteOnEvent(tick=0, channel=4, data=[53, 0]),
   midi.NoteOnEvent(tick=0, channel=4, data=[46, 0]),
   midi.NoteOnEvent(tick=0, channel=4, data=[46, 100]),
   midi.NoteOnEvent(tick=0, channel=4, data=[53, 100]),
   midi.NoteOnEvent(tick=0, channel=4, data=[58, 100]),
   midi.NoteOnEvent(tick=108, channel=4, data=[58, 0]),
   midi.NoteOnEvent(tick=0, channel=4, data=[53, 0]),
   midi.NoteOnEvent(tick=0, channel=4, data=[46, 0]),
   midi.NoteOnEvent(tick=0, channel=4, data=[45, 100]),
   midi.NoteOnEvent(tick=0, channel=4, data=[52, 100]),
   midi.NoteOnEvent(tick=0, channel=4, data=[57, 100]),
   midi.NoteOnEvent(tick=108, channel=4, data=[57, 0]),
   midi.NoteOnEvent(tick=0, channel=4, data=[52, 0]),
   midi.NoteOnEvent(tick=0, channel=4, data=[45, 0]),
   midi.NoteOnEvent(tick=0, channel=4, data=[40, 100]),
   midi.NoteOnEvent(tick=108, channel=4, data=[40, 0]),
   midi.NoteOnEvent(tick=0, channel=4, data=[42, 100]),
   midi.NoteOnEvent(tick=0, channel=4, data=[49, 100]),
   midi.NoteOnEvent(tick=0, channel=4, data=[54, 100]),
   midi.NoteOnEvent(tick=216, channel=4, data=[54, 0]),
   midi.NoteOnEvent(tick=0, channel=4, data=[49, 0]),
   midi.NoteOnEvent(tick=0, channel=4, data=[42, 0]),
   midi.NoteOnEvent(tick=0, channel=4, data=[43, 100]),
   midi.NoteOnEvent(tick=0, channel=4, data=[50, 100]),
   midi.NoteOnEvent(tick=0, channel=4, data=[55, 100]),
   midi.NoteOnEvent(tick=108, channel=4, data=[55, 0]),
   midi.NoteOnEvent(tick=0, channel=4, data=[50, 0]),
   midi.NoteOnEvent(tick=0, channel=4, data=[43, 0]),
   midi.NoteOnEvent(tick=0, channel=4, data=[40, 100]),
   midi.NoteOnEvent(tick=108, channel=4, data=[40, 0]),
   midi.NoteOnEvent(tick=0, channel=4, data=[55, 100]),
   midi.NoteOnEvent(tick=0, channel=4, data=[50, 100]),
   midi.NoteOnEvent(tick=0, channel=4, data=[43, 100]),
   midi.NoteOnEvent(tick=216, channel=4, data=[43, 0]),
   midi.NoteOnEvent(tick=0, channel=4, data=[50, 0]),
   midi.NoteOnEvent(tick=0, channel=4, data=[55, 0]),
   midi.NoteOnEvent(tick=0, channel=4, data=[44, 100]),
   midi.NoteOnEvent(tick=0, channel=4, data=[51, 100]),
   midi.NoteOnEvent(tick=0, channel=4, data=[56, 100]),
   midi.NoteOnEvent(tick=108, channel=4, data=[56, 0]),
   midi.NoteOnEvent(tick=0, channel=4, data=[51, 0]),
   midi.NoteOnEvent(tick=0, channel=4, data=[44, 0]),
   midi.NoteOnEvent(tick=0, channel=4, data=[52, 100]),
   midi.NoteOnEvent(tick=0, channel=4, data=[47, 100]),
   midi.NoteOnEvent(tick=0, channel=4, data=[40, 100]),
   midi.NoteOnEvent(tick=864, channel=4, data=[40, 0]),
   midi.NoteOnEvent(tick=0, channel=4, data=[47, 0]),
   midi.NoteOnEvent(tick=0, channel=4, data=[52, 0]),
   midi.NoteOnEvent(tick=0, channel=4, data=[55, 100]),
   midi.NoteOnEvent(tick=0, channel=4, data=[50, 100]),
   midi.NoteOnEvent(tick=0, channel=4, data=[43, 100]),
   midi.NoteOnEvent(tick=860, channel=4, data=[43, 0]),
   midi.NoteOnEvent(tick=0, channel=4, data=[50, 0]),
   midi.NoteOnEvent(tick=0, channel=4, data=[55, 0]),
   midi.NoteOnEvent(tick=4, channel=4, data=[57, 100]),
   midi.NoteOnEvent(tick=0, channel=4, data=[52, 100]),
   midi.NoteOnEvent(tick=0, channel=4, data=[45, 100]),
   midi.NoteOnEvent(tick=428, channel=4, data=[45, 0]),
   midi.NoteOnEvent(tick=0, channel=4, data=[52, 0]),
   midi.NoteOnEvent(tick=0, channel=4, data=[57, 0]),
   midi.NoteOnEvent(tick=4, channel=4, data=[53, 100]),
   midi.NoteOnEvent(tick=0, channel=4, data=[48, 100]),
   midi.NoteOnEvent(tick=0, channel=4, data=[41, 100]),
   midi.NoteOnEvent(tick=104, channel=4, data=[41, 0]),
   midi.NoteOnEvent(tick=0, channel=4, data=[48, 0]),
   midi.NoteOnEvent(tick=0, channel=4, data=[53, 0]),
   midi.NoteOnEvent(tick=4, channel=4, data=[53, 100]),
   midi.NoteOnEvent(tick=0, channel=4, data=[48, 100]),
   midi.NoteOnEvent(tick=0, channel=4, data=[41, 100]),
   midi.NoteOnEvent(tick=104, channel=4, data=[41, 0]),
   midi.NoteOnEvent(tick=0, channel=4, data=[48, 0]),
   midi.NoteOnEvent(tick=0, channel=4, data=[53, 0]),
   midi.NoteOnEvent(tick=4, channel=4, data=[42, 100]),
   midi.NoteOnEvent(tick=0, channel=4, data=[51, 100]),
   midi.NoteOnEvent(tick=0, channel=4, data=[47, 100]),
   midi.NoteOnEvent(tick=212, channel=4, data=[47, 0]),
   midi.NoteOnEvent(tick=0, channel=4, data=[51, 0]),
   midi.NoteOnEvent(tick=0, channel=4, data=[42, 0]),
   midi.NoteOnEvent(tick=4, channel=4, data=[40, 100]),
   midi.NoteOnEvent(tick=108, channel=4, data=[40, 0]),
   midi.NoteOnEvent(tick=0, channel=4, data=[47, 100]),
   midi.NoteOnEvent(tick=0, channel=4, data=[40, 100]),
   midi.NoteOnEvent(tick=54, channel=4, data=[40, 0]),
   midi.NoteOnEvent(tick=0, channel=4, data=[47, 0]),
   midi.NoteOnEvent(tick=0, channel=4, data=[47, 100]),
   midi.NoteOnEvent(tick=0, channel=4, data=[40, 100]),
   midi.NoteOnEvent(tick=54, channel=4, data=[40, 0]),
   midi.NoteOnEvent(tick=0, channel=4, data=[47, 0]),
   midi.NoteOnEvent(tick=0, channel=4, data=[40, 100]),
   midi.NoteOnEvent(tick=108, channel=4, data=[40, 0]),
   midi.NoteOnEvent(tick=0, channel=4, data=[47, 100]),
   midi.NoteOnEvent(tick=0, channel=4, data=[40, 100]),
   midi.NoteOnEvent(tick=54, channel=4, data=[40, 0]),
   midi.NoteOnEvent(tick=0, channel=4, data=[47, 0]),
   midi.NoteOnEvent(tick=0, channel=4, data=[47, 100]),
   midi.NoteOnEvent(tick=0, channel=4, data=[40, 100]),
   midi.NoteOnEvent(tick=54, channel=4, data=[40, 0]),
   midi.NoteOnEvent(tick=0, channel=4, data=[47, 0]),
   midi.NoteOnEvent(tick=0, channel=4, data=[40, 100]),
   midi.NoteOnEvent(tick=108, channel=4, data=[40, 0]),
   midi.NoteOnEvent(tick=0, channel=4, data=[46, 100]),
   midi.NoteOnEvent(tick=0, channel=4, data=[53, 100]),
   midi.NoteOnEvent(tick=0, channel=4, data=[58, 100]),
   midi.NoteOnEvent(tick=108, channel=4, data=[58, 0]),
   midi.NoteOnEvent(tick=0, channel=4, data=[53, 0]),
   midi.NoteOnEvent(tick=0, channel=4, data=[46, 0]),
   midi.NoteOnEvent(tick=0, channel=4, data=[46, 100]),
   midi.NoteOnEvent(tick=0, channel=4, data=[53, 100]),
   midi.NoteOnEvent(tick=0, channel=4, data=[58, 100]),
   midi.NoteOnEvent(tick=108, channel=4, data=[58, 0]),
   midi.NoteOnEvent(tick=0, channel=4, data=[53, 0]),
   midi.NoteOnEvent(tick=0, channel=4, data=[46, 0]),
   midi.NoteOnEvent(tick=0, channel=4, data=[45, 100]),
   midi.NoteOnEvent(tick=0, channel=4, data=[52, 100]),
   midi.NoteOnEvent(tick=0, channel=4, data=[57, 100]),
   midi.NoteOnEvent(tick=108, channel=4, data=[57, 0]),
   midi.NoteOnEvent(tick=0, channel=4, data=[52, 0]),
   midi.NoteOnEvent(tick=0, channel=4, data=[45, 0]),
   midi.NoteOnEvent(tick=0, channel=4, data=[40, 100]),
   midi.NoteOnEvent(tick=108, channel=4, data=[40, 0]),
   midi.NoteOnEvent(tick=0, channel=4, data=[47, 100]),
   midi.NoteOnEvent(tick=0, channel=4, data=[40, 100]),
   midi.NoteOnEvent(tick=54, channel=4, data=[40, 0]),
   midi.NoteOnEvent(tick=0, channel=4, data=[47, 0]),
   midi.NoteOnEvent(tick=0, channel=4, data=[47, 100]),
   midi.NoteOnEvent(tick=0, channel=4, data=[40, 100]),
   midi.NoteOnEvent(tick=54, channel=4, data=[40, 0]),
   midi.NoteOnEvent(tick=0, channel=4, data=[47, 0]),
   midi.NoteOnEvent(tick=0, channel=4, data=[40, 100]),
   midi.NoteOnEvent(tick=108, channel=4, data=[40, 0]),
   midi.NoteOnEvent(tick=0, channel=4, data=[47, 100]),
   midi.NoteOnEvent(tick=0, channel=4, data=[40, 100]),
   midi.NoteOnEvent(tick=54, channel=4, data=[40, 0]),
   midi.NoteOnEvent(tick=0, channel=4, data=[47, 0]),
   midi.NoteOnEvent(tick=0, channel=4, data=[47, 100]),
   midi.NoteOnEvent(tick=0, channel=4, data=[40, 100]),
   midi.NoteOnEvent(tick=54, channel=4, data=[40, 0]),
   midi.NoteOnEvent(tick=0, channel=4, data=[47, 0]),
   midi.NoteOnEvent(tick=0, channel=4, data=[40, 100]),
   midi.NoteOnEvent(tick=108, channel=4, data=[40, 0]),
   midi.NoteOnEvent(tick=0, channel=4, data=[52, 100]),
   midi.NoteOnEvent(tick=0, channel=4, data=[55, 100]),
   midi.NoteOnEvent(tick=108, channel=4, data=[55, 0]),
   midi.NoteOnEvent(tick=0, channel=4, data=[52, 0]),
   midi.NoteOnEvent(tick=0, channel=4, data=[52, 100]),
   midi.NoteOnEvent(tick=0, channel=4, data=[55, 100]),
   midi.NoteOnEvent(tick=108, channel=4, data=[55, 0]),
   midi.NoteOnEvent(tick=0, channel=4, data=[52, 0]),
   midi.NoteOnEvent(tick=0, channel=4, data=[54, 100]),
   midi.NoteOnEvent(tick=0, channel=4, data=[51, 100]),
   midi.NoteOnEvent(tick=108, channel=4, data=[51, 0]),
   midi.NoteOnEvent(tick=0, channel=4, data=[54, 0]),
   midi.NoteOnEvent(tick=0, channel=4, data=[52, 100]),
   midi.NoteOnEvent(tick=0, channel=4, data=[55, 100]),
   midi.NoteOnEvent(tick=108, channel=4, data=[55, 0]),
   midi.NoteOnEvent(tick=0, channel=4, data=[52, 0]),
   midi.NoteOnEvent(tick=0, channel=4, data=[52, 100]),
   midi.NoteOnEvent(tick=0, channel=4, data=[47, 100]),
   midi.NoteOnEvent(tick=0, channel=4, data=[40, 100]),
   midi.NoteOnEvent(tick=54, channel=4, data=[40, 0]),
   midi.NoteOnEvent(tick=0, channel=4, data=[47, 0]),
   midi.NoteOnEvent(tick=0, channel=4, data=[52, 0]),
   midi.NoteOnEvent(tick=0, channel=4, data=[47, 100]),
   midi.NoteOnEvent(tick=0, channel=4, data=[52, 100]),
   midi.NoteOnEvent(tick=0, channel=4, data=[40, 100]),
   midi.NoteOnEvent(tick=54, channel=4, data=[40, 0]),
   midi.NoteOnEvent(tick=0, channel=4, data=[52, 0]),
   midi.NoteOnEvent(tick=0, channel=4, data=[47, 0]),
   midi.NoteOnEvent(tick=0, channel=4, data=[40, 100]),
   midi.NoteOnEvent(tick=108, channel=4, data=[40, 0]),
   midi.NoteOnEvent(tick=0, channel=4, data=[47, 100]),
   midi.NoteOnEvent(tick=0, channel=4, data=[40, 100]),
   midi.NoteOnEvent(tick=54, channel=4, data=[40, 0]),
   midi.NoteOnEvent(tick=0, channel=4, data=[47, 0]),
   midi.NoteOnEvent(tick=0, channel=4, data=[47, 100]),
   midi.NoteOnEvent(tick=0, channel=4, data=[40, 100]),
   midi.NoteOnEvent(tick=54, channel=4, data=[40, 0]),
   midi.NoteOnEvent(tick=0, channel=4, data=[47, 0]),
   midi.NoteOnEvent(tick=0, channel=4, data=[40, 100]),
   midi.NoteOnEvent(tick=108, channel=4, data=[40, 0]),
   midi.NoteOnEvent(tick=0, channel=4, data=[46, 100]),
   midi.NoteOnEvent(tick=0, channel=4, data=[53, 100]),
   midi.NoteOnEvent(tick=0, channel=4, data=[58, 100]),
   midi.NoteOnEvent(tick=108, channel=4, data=[58, 0]),
   midi.NoteOnEvent(tick=0, channel=4, data=[53, 0]),
   midi.NoteOnEvent(tick=0, channel=4, data=[46, 0]),
   midi.NoteOnEvent(tick=0, channel=4, data=[46, 100]),
   midi.NoteOnEvent(tick=0, channel=4, data=[53, 100]),
   midi.NoteOnEvent(tick=0, channel=4, data=[58, 100]),
   midi.NoteOnEvent(tick=108, channel=4, data=[58, 0]),
   midi.NoteOnEvent(tick=0, channel=4, data=[53, 0]),
   midi.NoteOnEvent(tick=0, channel=4, data=[46, 0]),
   midi.NoteOnEvent(tick=0, channel=4, data=[45, 100]),
   midi.NoteOnEvent(tick=0, channel=4, data=[52, 100]),
   midi.NoteOnEvent(tick=0, channel=4, data=[57, 100]),
   midi.NoteOnEvent(tick=108, channel=4, data=[57, 0]),
   midi.NoteOnEvent(tick=0, channel=4, data=[52, 0]),
   midi.NoteOnEvent(tick=0, channel=4, data=[45, 0]),
   midi.NoteOnEvent(tick=0, channel=4, data=[40, 100]),
   midi.NoteOnEvent(tick=108, channel=4, data=[40, 0]),
   midi.NoteOnEvent(tick=0, channel=4, data=[42, 100]),
   midi.NoteOnEvent(tick=0, channel=4, data=[49, 100]),
   midi.NoteOnEvent(tick=0, channel=4, data=[54, 100]),
   midi.NoteOnEvent(tick=216, channel=4, data=[54, 0]),
   midi.NoteOnEvent(tick=0, channel=4, data=[49, 0]),
   midi.NoteOnEvent(tick=0, channel=4, data=[42, 0]),
   midi.NoteOnEvent(tick=0, channel=4, data=[43, 100]),
   midi.NoteOnEvent(tick=0, channel=4, data=[50, 100]),
   midi.NoteOnEvent(tick=0, channel=4, data=[55, 100]),
   midi.NoteOnEvent(tick=108, channel=4, data=[55, 0]),
   midi.NoteOnEvent(tick=0, channel=4, data=[50, 0]),
   midi.NoteOnEvent(tick=0, channel=4, data=[43, 0]),
   midi.NoteOnEvent(tick=0, channel=4, data=[40, 100]),
   midi.NoteOnEvent(tick=108, channel=4, data=[40, 0]),
   midi.NoteOnEvent(tick=0, channel=4, data=[55, 100]),
   midi.NoteOnEvent(tick=0, channel=4, data=[50, 100]),
   midi.NoteOnEvent(tick=0, channel=4, data=[43, 100]),
   midi.NoteOnEvent(tick=216, channel=4, data=[43, 0]),
   midi.NoteOnEvent(tick=0, channel=4, data=[50, 0]),
   midi.NoteOnEvent(tick=0, channel=4, data=[55, 0]),
   midi.NoteOnEvent(tick=0, channel=4, data=[44, 100]),
   midi.NoteOnEvent(tick=0, channel=4, data=[51, 100]),
   midi.NoteOnEvent(tick=0, channel=4, data=[56, 100]),
   midi.NoteOnEvent(tick=108, channel=4, data=[56, 0]),
   midi.NoteOnEvent(tick=0, channel=4, data=[51, 0]),
   midi.NoteOnEvent(tick=0, channel=4, data=[44, 0]),
   midi.NoteOnEvent(tick=0, channel=4, data=[52, 100]),
   midi.NoteOnEvent(tick=0, channel=4, data=[47, 100]),
   midi.NoteOnEvent(tick=0, channel=4, data=[40, 100]),
   midi.NoteOnEvent(tick=864, channel=4, data=[40, 0]),
   midi.NoteOnEvent(tick=0, channel=4, data=[47, 0]),
   midi.NoteOnEvent(tick=0, channel=4, data=[52, 0]),
   midi.NoteOnEvent(tick=0, channel=4, data=[55, 100]),
   midi.NoteOnEvent(tick=0, channel=4, data=[50, 100]),
   midi.NoteOnEvent(tick=0, channel=4, data=[43, 100]),
   midi.NoteOnEvent(tick=860, channel=4, data=[43, 0]),
   midi.NoteOnEvent(tick=0, channel=4, data=[50, 0]),
   midi.NoteOnEvent(tick=0, channel=4, data=[55, 0]),
   midi.NoteOnEvent(tick=4, channel=4, data=[57, 100]),
   midi.NoteOnEvent(tick=0, channel=4, data=[52, 100]),
   midi.NoteOnEvent(tick=0, channel=4, data=[45, 100]),
   midi.NoteOnEvent(tick=428, channel=4, data=[45, 0]),
   midi.NoteOnEvent(tick=0, channel=4, data=[52, 0]),
   midi.NoteOnEvent(tick=0, channel=4, data=[57, 0]),
   midi.NoteOnEvent(tick=4, channel=4, data=[53, 100]),
   midi.NoteOnEvent(tick=0, channel=4, data=[48, 100]),
   midi.NoteOnEvent(tick=0, channel=4, data=[41, 100]),
   midi.NoteOnEvent(tick=104, channel=4, data=[41, 0]),
   midi.NoteOnEvent(tick=0, channel=4, data=[48, 0]),
   midi.NoteOnEvent(tick=0, channel=4, data=[53, 0]),
   midi.NoteOnEvent(tick=4, channel=4, data=[53, 100]),
   midi.NoteOnEvent(tick=0, channel=4, data=[48, 100]),
   midi.NoteOnEvent(tick=0, channel=4, data=[41, 100]),
   midi.NoteOnEvent(tick=104, channel=4, data=[41, 0]),
   midi.NoteOnEvent(tick=0, channel=4, data=[48, 0]),
   midi.NoteOnEvent(tick=0, channel=4, data=[53, 0]),
   midi.NoteOnEvent(tick=4, channel=4, data=[42, 100]),
   midi.NoteOnEvent(tick=0, channel=4, data=[51, 100]),
   midi.NoteOnEvent(tick=0, channel=4, data=[47, 100]),
   midi.NoteOnEvent(tick=212, channel=4, data=[47, 0]),
   midi.NoteOnEvent(tick=0, channel=4, data=[51, 0]),
   midi.NoteOnEvent(tick=0, channel=4, data=[42, 0]),
   midi.NoteOnEvent(tick=4, channel=4, data=[40, 100]),
   midi.NoteOnEvent(tick=108, channel=4, data=[40, 0]),
   midi.NoteOnEvent(tick=0, channel=4, data=[47, 100]),
   midi.NoteOnEvent(tick=0, channel=4, data=[40, 100]),
   midi.NoteOnEvent(tick=54, channel=4, data=[40, 0]),
   midi.NoteOnEvent(tick=0, channel=4, data=[47, 0]),
   midi.NoteOnEvent(tick=0, channel=4, data=[47, 100]),
   midi.NoteOnEvent(tick=0, channel=4, data=[40, 100]),
   midi.NoteOnEvent(tick=54, channel=4, data=[40, 0]),
   midi.NoteOnEvent(tick=0, channel=4, data=[47, 0]),
   midi.NoteOnEvent(tick=0, channel=4, data=[40, 100]),
   midi.NoteOnEvent(tick=108, channel=4, data=[40, 0]),
   midi.NoteOnEvent(tick=0, channel=4, data=[47, 100]),
   midi.NoteOnEvent(tick=0, channel=4, data=[40, 100]),
   midi.NoteOnEvent(tick=54, channel=4, data=[40, 0]),
   midi.NoteOnEvent(tick=0, channel=4, data=[47, 0]),
   midi.NoteOnEvent(tick=0, channel=4, data=[47, 100]),
   midi.NoteOnEvent(tick=0, channel=4, data=[40, 100]),
   midi.NoteOnEvent(tick=54, channel=4, data=[40, 0]),
   midi.NoteOnEvent(tick=0, channel=4, data=[47, 0]),
   midi.NoteOnEvent(tick=0, channel=4, data=[40, 100]),
   midi.NoteOnEvent(tick=108, channel=4, data=[40, 0]),
   midi.NoteOnEvent(tick=0, channel=4, data=[46, 100]),
   midi.NoteOnEvent(tick=0, channel=4, data=[53, 100]),
   midi.NoteOnEvent(tick=0, channel=4, data=[58, 100]),
   midi.NoteOnEvent(tick=108, channel=4, data=[58, 0]),
   midi.NoteOnEvent(tick=0, channel=4, data=[53, 0]),
   midi.NoteOnEvent(tick=0, channel=4, data=[46, 0]),
   midi.NoteOnEvent(tick=0, channel=4, data=[46, 100]),
   midi.NoteOnEvent(tick=0, channel=4, data=[53, 100]),
   midi.NoteOnEvent(tick=0, channel=4, data=[58, 100]),
   midi.NoteOnEvent(tick=108, channel=4, data=[58, 0]),
   midi.NoteOnEvent(tick=0, channel=4, data=[53, 0]),
   midi.NoteOnEvent(tick=0, channel=4, data=[46, 0]),
   midi.NoteOnEvent(tick=0, channel=4, data=[45, 100]),
   midi.NoteOnEvent(tick=0, channel=4, data=[52, 100]),
   midi.NoteOnEvent(tick=0, channel=4, data=[57, 100]),
   midi.NoteOnEvent(tick=108, channel=4, data=[57, 0]),
   midi.NoteOnEvent(tick=0, channel=4, data=[52, 0]),
   midi.NoteOnEvent(tick=0, channel=4, data=[45, 0]),
   midi.NoteOnEvent(tick=0, channel=4, data=[40, 100]),
   midi.NoteOnEvent(tick=108, channel=4, data=[40, 0]),
   midi.NoteOnEvent(tick=0, channel=4, data=[47, 100]),
   midi.NoteOnEvent(tick=0, channel=4, data=[40, 100]),
   midi.NoteOnEvent(tick=54, channel=4, data=[40, 0]),
   midi.NoteOnEvent(tick=0, channel=4, data=[47, 0]),
   midi.NoteOnEvent(tick=0, channel=4, data=[47, 100]),
   midi.NoteOnEvent(tick=0, channel=4, data=[40, 100]),
   midi.NoteOnEvent(tick=54, channel=4, data=[40, 0]),
   midi.NoteOnEvent(tick=0, channel=4, data=[47, 0]),
   midi.NoteOnEvent(tick=0, channel=4, data=[40, 100]),
   midi.NoteOnEvent(tick=108, channel=4, data=[40, 0]),
   midi.NoteOnEvent(tick=0, channel=4, data=[47, 100]),
   midi.NoteOnEvent(tick=0, channel=4, data=[40, 100]),
   midi.NoteOnEvent(tick=54, channel=4, data=[40, 0]),
   midi.NoteOnEvent(tick=0, channel=4, data=[47, 0]),
   midi.NoteOnEvent(tick=0, channel=4, data=[47, 100]),
   midi.NoteOnEvent(tick=0, channel=4, data=[40, 100]),
   midi.NoteOnEvent(tick=54, channel=4, data=[40, 0]),
   midi.NoteOnEvent(tick=0, channel=4, data=[47, 0]),
   midi.NoteOnEvent(tick=0, channel=4, data=[40, 100]),
   midi.NoteOnEvent(tick=108, channel=4, data=[40, 0]),
   midi.NoteOnEvent(tick=0, channel=4, data=[52, 100]),
   midi.NoteOnEvent(tick=0, channel=4, data=[55, 100]),
   midi.NoteOnEvent(tick=108, channel=4, data=[55, 0]),
   midi.NoteOnEvent(tick=0, channel=4, data=[52, 0]),
   midi.NoteOnEvent(tick=0, channel=4, data=[52, 100]),
   midi.NoteOnEvent(tick=0, channel=4, data=[55, 100]),
   midi.NoteOnEvent(tick=108, channel=4, data=[55, 0]),
   midi.NoteOnEvent(tick=0, channel=4, data=[52, 0]),
   midi.NoteOnEvent(tick=0, channel=4, data=[54, 100]),
   midi.NoteOnEvent(tick=0, channel=4, data=[51, 100]),
   midi.NoteOnEvent(tick=108, channel=4, data=[51, 0]),
   midi.NoteOnEvent(tick=0, channel=4, data=[54, 0]),
   midi.NoteOnEvent(tick=0, channel=4, data=[52, 100]),
   midi.NoteOnEvent(tick=0, channel=4, data=[47, 100]),
   midi.NoteOnEvent(tick=0, channel=4, data=[40, 100]),
   midi.NoteOnEvent(tick=432, channel=4, data=[40, 0]),
   midi.NoteOnEvent(tick=0, channel=4, data=[47, 0]),
   midi.NoteOnEvent(tick=0, channel=4, data=[52, 0]),
   midi.NoteOnEvent(tick=0, channel=4, data=[59, 100]),
   midi.NoteOnEvent(tick=0, channel=4, data=[54, 100]),
   midi.NoteOnEvent(tick=0, channel=4, data=[47, 100]),
   midi.NoteOnEvent(tick=432, channel=4, data=[47, 0]),
   midi.NoteOnEvent(tick=0, channel=4, data=[54, 0]),
   midi.NoteOnEvent(tick=0, channel=4, data=[59, 0]),
   midi.NoteOnEvent(tick=0, channel=4, data=[43, 100]),
   midi.NoteOnEvent(tick=0, channel=4, data=[50, 100]),
   midi.NoteOnEvent(tick=0, channel=4, data=[55, 100]),
   midi.NoteOnEvent(tick=432, channel=4, data=[55, 0]),
   midi.NoteOnEvent(tick=0, channel=4, data=[50, 0]),
   midi.NoteOnEvent(tick=0, channel=4, data=[43, 0]),
   midi.NoteOnEvent(tick=0, channel=4, data=[55, 100]),
   midi.NoteOnEvent(tick=0, channel=4, data=[52, 100]),
   midi.NoteOnEvent(tick=0, channel=4, data=[40, 100]),
   midi.NoteOnEvent(tick=216, channel=4, data=[40, 0]),
   midi.NoteOnEvent(tick=0, channel=4, data=[52, 0]),
   midi.NoteOnEvent(tick=0, channel=4, data=[55, 0]),
   midi.NoteOnEvent(tick=0, channel=4, data=[50, 100]),
   midi.NoteOnEvent(tick=0, channel=4, data=[42, 100]),
   midi.NoteOnEvent(tick=0, channel=4, data=[47, 100]),
   midi.NoteOnEvent(tick=216, channel=4, data=[47, 0]),
   midi.NoteOnEvent(tick=0, channel=4, data=[42, 0]),
   midi.NoteOnEvent(tick=0, channel=4, data=[50, 0]),
   midi.NoteOnEvent(tick=0, channel=4, data=[40, 100]),
   midi.NoteOnEvent(tick=108, channel=4, data=[40, 0]),
   midi.NoteOnEvent(tick=0, channel=4, data=[47, 100]),
   midi.NoteOnEvent(tick=0, channel=4, data=[40, 100]),
   midi.NoteOnEvent(tick=54, channel=4, data=[40, 0]),
   midi.NoteOnEvent(tick=0, channel=4, data=[47, 0]),
   midi.NoteOnEvent(tick=0, channel=4, data=[47, 100]),
   midi.NoteOnEvent(tick=0, channel=4, data=[40, 100]),
   midi.NoteOnEvent(tick=54, channel=4, data=[40, 0]),
   midi.NoteOnEvent(tick=0, channel=4, data=[47, 0]),
   midi.NoteOnEvent(tick=0, channel=4, data=[40, 100]),
   midi.NoteOnEvent(tick=108, channel=4, data=[40, 0]),
   midi.NoteOnEvent(tick=0, channel=4, data=[47, 100]),
   midi.NoteOnEvent(tick=0, channel=4, data=[40, 100]),
   midi.NoteOnEvent(tick=54, channel=4, data=[40, 0]),
   midi.NoteOnEvent(tick=0, channel=4, data=[47, 0]),
   midi.NoteOnEvent(tick=0, channel=4, data=[47, 100]),
   midi.NoteOnEvent(tick=0, channel=4, data=[40, 100]),
   midi.NoteOnEvent(tick=54, channel=4, data=[40, 0]),
   midi.NoteOnEvent(tick=0, channel=4, data=[47, 0]),
   midi.NoteOnEvent(tick=0, channel=4, data=[40, 100]),
   midi.NoteOnEvent(tick=108, channel=4, data=[40, 0]),
   midi.NoteOnEvent(tick=0, channel=4, data=[46, 100]),
   midi.NoteOnEvent(tick=0, channel=4, data=[53, 100]),
   midi.NoteOnEvent(tick=0, channel=4, data=[58, 100]),
   midi.NoteOnEvent(tick=108, channel=4, data=[58, 0]),
   midi.NoteOnEvent(tick=0, channel=4, data=[53, 0]),
   midi.NoteOnEvent(tick=0, channel=4, data=[46, 0]),
   midi.NoteOnEvent(tick=0, channel=4, data=[46, 100]),
   midi.NoteOnEvent(tick=0, channel=4, data=[53, 100]),
   midi.NoteOnEvent(tick=0, channel=4, data=[58, 100]),
   midi.NoteOnEvent(tick=108, channel=4, data=[58, 0]),
   midi.NoteOnEvent(tick=0, channel=4, data=[53, 0]),
   midi.NoteOnEvent(tick=0, channel=4, data=[46, 0]),
   midi.NoteOnEvent(tick=0, channel=4, data=[45, 100]),
   midi.NoteOnEvent(tick=0, channel=4, data=[52, 100]),
   midi.NoteOnEvent(tick=0, channel=4, data=[57, 100]),
   midi.NoteOnEvent(tick=108, channel=4, data=[57, 0]),
   midi.NoteOnEvent(tick=0, channel=4, data=[52, 0]),
   midi.NoteOnEvent(tick=0, channel=4, data=[45, 0]),
   midi.NoteOnEvent(tick=0, channel=4, data=[40, 100]),
   midi.NoteOnEvent(tick=108, channel=4, data=[40, 0]),
   midi.NoteOnEvent(tick=0, channel=4, data=[47, 100]),
   midi.NoteOnEvent(tick=0, channel=4, data=[40, 100]),
   midi.NoteOnEvent(tick=54, channel=4, data=[40, 0]),
   midi.NoteOnEvent(tick=0, channel=4, data=[47, 0]),
   midi.NoteOnEvent(tick=0, channel=4, data=[47, 100]),
   midi.NoteOnEvent(tick=0, channel=4, data=[40, 100]),
   midi.NoteOnEvent(tick=54, channel=4, data=[40, 0]),
   midi.NoteOnEvent(tick=0, channel=4, data=[47, 0]),
   midi.NoteOnEvent(tick=0, channel=4, data=[40, 100]),
   midi.NoteOnEvent(tick=108, channel=4, data=[40, 0]),
   midi.NoteOnEvent(tick=0, channel=4, data=[47, 100]),
   midi.NoteOnEvent(tick=0, channel=4, data=[40, 100]),
   midi.NoteOnEvent(tick=54, channel=4, data=[40, 0]),
   midi.NoteOnEvent(tick=0, channel=4, data=[47, 0]),
   midi.NoteOnEvent(tick=0, channel=4, data=[47, 100]),
   midi.NoteOnEvent(tick=0, channel=4, data=[40, 100]),
   midi.NoteOnEvent(tick=54, channel=4, data=[40, 0]),
   midi.NoteOnEvent(tick=0, channel=4, data=[47, 0]),
   midi.NoteOnEvent(tick=0, channel=4, data=[40, 100]),
   midi.NoteOnEvent(tick=108, channel=4, data=[40, 0]),
   midi.NoteOnEvent(tick=0, channel=4, data=[52, 100]),
   midi.NoteOnEvent(tick=0, channel=4, data=[55, 100]),
   midi.NoteOnEvent(tick=108, channel=4, data=[55, 0]),
   midi.NoteOnEvent(tick=0, channel=4, data=[52, 0]),
   midi.NoteOnEvent(tick=0, channel=4, data=[52, 100]),
   midi.NoteOnEvent(tick=0, channel=4, data=[55, 100]),
   midi.NoteOnEvent(tick=108, channel=4, data=[55, 0]),
   midi.NoteOnEvent(tick=0, channel=4, data=[52, 0]),
   midi.NoteOnEvent(tick=0, channel=4, data=[54, 100]),
   midi.NoteOnEvent(tick=0, channel=4, data=[51, 100]),
   midi.NoteOnEvent(tick=108, channel=4, data=[51, 0]),
   midi.NoteOnEvent(tick=0, channel=4, data=[54, 0]),
   midi.NoteOnEvent(tick=0, channel=4, data=[40, 100]),
   midi.NoteOnEvent(tick=108, channel=4, data=[40, 0]),
   midi.NoteOnEvent(tick=0, channel=4, data=[47, 100]),
   midi.NoteOnEvent(tick=0, channel=4, data=[40, 100]),
   midi.NoteOnEvent(tick=54, channel=4, data=[40, 0]),
   midi.NoteOnEvent(tick=0, channel=4, data=[47, 0]),
   midi.NoteOnEvent(tick=0, channel=4, data=[47, 100]),
   midi.NoteOnEvent(tick=0, channel=4, data=[40, 100]),
   midi.NoteOnEvent(tick=54, channel=4, data=[40, 0]),
   midi.NoteOnEvent(tick=0, channel=4, data=[47, 0]),
   midi.NoteOnEvent(tick=0, channel=4, data=[40, 100]),
   midi.NoteOnEvent(tick=108, channel=4, data=[40, 0]),
   midi.NoteOnEvent(tick=0, channel=4, data=[47, 100]),
   midi.NoteOnEvent(tick=0, channel=4, data=[40, 100]),
   midi.NoteOnEvent(tick=54, channel=4, data=[40, 0]),
   midi.NoteOnEvent(tick=0, channel=4, data=[47, 0]),
   midi.NoteOnEvent(tick=0, channel=4, data=[47, 100]),
   midi.NoteOnEvent(tick=0, channel=4, data=[40, 100]),
   midi.NoteOnEvent(tick=54, channel=4, data=[40, 0]),
   midi.NoteOnEvent(tick=0, channel=4, data=[47, 0]),
   midi.NoteOnEvent(tick=0, channel=4, data=[40, 100]),
   midi.NoteOnEvent(tick=108, channel=4, data=[40, 0]),
   midi.NoteOnEvent(tick=0, channel=4, data=[46, 100]),
   midi.NoteOnEvent(tick=0, channel=4, data=[53, 100]),
   midi.NoteOnEvent(tick=0, channel=4, data=[58, 100]),
   midi.NoteOnEvent(tick=108, channel=4, data=[58, 0]),
   midi.NoteOnEvent(tick=0, channel=4, data=[53, 0]),
   midi.NoteOnEvent(tick=0, channel=4, data=[46, 0]),
   midi.NoteOnEvent(tick=0, channel=4, data=[46, 100]),
   midi.NoteOnEvent(tick=0, channel=4, data=[53, 100]),
   midi.NoteOnEvent(tick=0, channel=4, data=[58, 100]),
   midi.NoteOnEvent(tick=108, channel=4, data=[58, 0]),
   midi.NoteOnEvent(tick=0, channel=4, data=[53, 0]),
   midi.NoteOnEvent(tick=0, channel=4, data=[46, 0]),
   midi.NoteOnEvent(tick=0, channel=4, data=[45, 100]),
   midi.NoteOnEvent(tick=0, channel=4, data=[52, 100]),
   midi.NoteOnEvent(tick=0, channel=4, data=[57, 100]),
   midi.NoteOnEvent(tick=108, channel=4, data=[57, 0]),
   midi.NoteOnEvent(tick=0, channel=4, data=[52, 0]),
   midi.NoteOnEvent(tick=0, channel=4, data=[45, 0]),
   midi.NoteOnEvent(tick=0, channel=4, data=[46, 100]),
   midi.NoteOnEvent(tick=0, channel=4, data=[53, 100]),
   midi.NoteOnEvent(tick=0, channel=4, data=[58, 100]),
   midi.NoteOnEvent(tick=108, channel=4, data=[58, 0]),
   midi.NoteOnEvent(tick=0, channel=4, data=[53, 0]),
   midi.NoteOnEvent(tick=0, channel=4, data=[46, 0]),
   midi.NoteOnEvent(tick=0, channel=4, data=[48, 100]),
   midi.NoteOnEvent(tick=0, channel=4, data=[41, 100]),
   midi.NoteOnEvent(tick=0, channel=4, data=[53, 100]),
   midi.NoteOnEvent(tick=108, channel=4, data=[53, 0]),
   midi.NoteOnEvent(tick=0, channel=4, data=[41, 0]),
   midi.NoteOnEvent(tick=0, channel=4, data=[48, 0]),
   midi.NoteOnEvent(tick=0, channel=4, data=[40, 100]),
   midi.NoteOnEvent(tick=108, channel=4, data=[40, 0]),
   midi.NoteOnEvent(tick=0, channel=4, data=[47, 100]),
   midi.NoteOnEvent(tick=0, channel=4, data=[40, 100]),
   midi.NoteOnEvent(tick=54, channel=4, data=[40, 0]),
   midi.NoteOnEvent(tick=0, channel=4, data=[47, 0]),
   midi.NoteOnEvent(tick=0, channel=4, data=[47, 100]),
   midi.NoteOnEvent(tick=0, channel=4, data=[40, 100]),
   midi.NoteOnEvent(tick=54, channel=4, data=[40, 0]),
   midi.NoteOnEvent(tick=0, channel=4, data=[47, 0]),
   midi.NoteOnEvent(tick=0, channel=4, data=[40, 100]),
   midi.NoteOnEvent(tick=108, channel=4, data=[40, 0]),
   midi.NoteOnEvent(tick=0, channel=4, data=[47, 100]),
   midi.NoteOnEvent(tick=0, channel=4, data=[40, 100]),
   midi.NoteOnEvent(tick=54, channel=4, data=[40, 0]),
   midi.NoteOnEvent(tick=0, channel=4, data=[47, 0]),
   midi.NoteOnEvent(tick=0, channel=4, data=[47, 100]),
   midi.NoteOnEvent(tick=0, channel=4, data=[40, 100]),
   midi.NoteOnEvent(tick=54, channel=4, data=[40, 0]),
   midi.NoteOnEvent(tick=0, channel=4, data=[47, 0]),
   midi.NoteOnEvent(tick=0, channel=4, data=[40, 100]),
   midi.NoteOnEvent(tick=108, channel=4, data=[40, 0]),
   midi.NoteOnEvent(tick=0, channel=4, data=[46, 100]),
   midi.NoteOnEvent(tick=0, channel=4, data=[53, 100]),
   midi.NoteOnEvent(tick=0, channel=4, data=[58, 100]),
   midi.NoteOnEvent(tick=108, channel=4, data=[58, 0]),
   midi.NoteOnEvent(tick=0, channel=4, data=[53, 0]),
   midi.NoteOnEvent(tick=0, channel=4, data=[46, 0]),
   midi.NoteOnEvent(tick=0, channel=4, data=[46, 100]),
   midi.NoteOnEvent(tick=0, channel=4, data=[53, 100]),
   midi.NoteOnEvent(tick=0, channel=4, data=[58, 100]),
   midi.NoteOnEvent(tick=108, channel=4, data=[58, 0]),
   midi.NoteOnEvent(tick=0, channel=4, data=[53, 0]),
   midi.NoteOnEvent(tick=0, channel=4, data=[46, 0]),
   midi.NoteOnEvent(tick=0, channel=4, data=[45, 100]),
   midi.NoteOnEvent(tick=0, channel=4, data=[52, 100]),
   midi.NoteOnEvent(tick=0, channel=4, data=[57, 100]),
   midi.NoteOnEvent(tick=108, channel=4, data=[57, 0]),
   midi.NoteOnEvent(tick=0, channel=4, data=[52, 0]),
   midi.NoteOnEvent(tick=0, channel=4, data=[45, 0]),
   midi.NoteOnEvent(tick=0, channel=4, data=[40, 100]),
   midi.NoteOnEvent(tick=108, channel=4, data=[40, 0]),
   midi.NoteOnEvent(tick=0, channel=4, data=[47, 100]),
   midi.NoteOnEvent(tick=0, channel=4, data=[40, 100]),
   midi.NoteOnEvent(tick=54, channel=4, data=[40, 0]),
   midi.NoteOnEvent(tick=0, channel=4, data=[47, 0]),
   midi.NoteOnEvent(tick=0, channel=4, data=[47, 100]),
   midi.NoteOnEvent(tick=0, channel=4, data=[40, 100]),
   midi.NoteOnEvent(tick=54, channel=4, data=[40, 0]),
   midi.NoteOnEvent(tick=0, channel=4, data=[47, 0]),
   midi.NoteOnEvent(tick=0, channel=4, data=[40, 100]),
   midi.NoteOnEvent(tick=108, channel=4, data=[40, 0]),
   midi.NoteOnEvent(tick=0, channel=4, data=[47, 100]),
   midi.NoteOnEvent(tick=0, channel=4, data=[40, 100]),
   midi.NoteOnEvent(tick=54, channel=4, data=[40, 0]),
   midi.NoteOnEvent(tick=0, channel=4, data=[47, 0]),
   midi.NoteOnEvent(tick=0, channel=4, data=[47, 100]),
   midi.NoteOnEvent(tick=0, channel=4, data=[40, 100]),
   midi.NoteOnEvent(tick=54, channel=4, data=[40, 0]),
   midi.NoteOnEvent(tick=0, channel=4, data=[47, 0]),
   midi.NoteOnEvent(tick=0, channel=4, data=[40, 100]),
   midi.NoteOnEvent(tick=108, channel=4, data=[40, 0]),
   midi.NoteOnEvent(tick=0, channel=4, data=[52, 100]),
   midi.NoteOnEvent(tick=0, channel=4, data=[55, 100]),
   midi.NoteOnEvent(tick=108, channel=4, data=[55, 0]),
   midi.NoteOnEvent(tick=0, channel=4, data=[52, 0]),
   midi.NoteOnEvent(tick=0, channel=4, data=[52, 100]),
   midi.NoteOnEvent(tick=0, channel=4, data=[55, 100]),
   midi.NoteOnEvent(tick=108, channel=4, data=[55, 0]),
   midi.NoteOnEvent(tick=0, channel=4, data=[52, 0]),
   midi.NoteOnEvent(tick=0, channel=4, data=[54, 100]),
   midi.NoteOnEvent(tick=0, channel=4, data=[51, 100]),
   midi.NoteOnEvent(tick=108, channel=4, data=[51, 0]),
   midi.NoteOnEvent(tick=0, channel=4, data=[54, 0]),
   midi.NoteOnEvent(tick=0, channel=4, data=[52, 100]),
   midi.NoteOnEvent(tick=0, channel=4, data=[55, 100]),
   midi.NoteOnEvent(tick=108, channel=4, data=[55, 0]),
   midi.NoteOnEvent(tick=0, channel=4, data=[52, 0]),
   midi.NoteOnEvent(tick=0, channel=4, data=[47, 100]),
   midi.NoteOnEvent(tick=0, channel=4, data=[40, 100]),
   midi.NoteOnEvent(tick=54, channel=4, data=[40, 0]),
   midi.NoteOnEvent(tick=0, channel=4, data=[47, 0]),
   midi.NoteOnEvent(tick=0, channel=4, data=[47, 100]),
   midi.NoteOnEvent(tick=0, channel=4, data=[40, 100]),
   midi.NoteOnEvent(tick=54, channel=4, data=[40, 0]),
   midi.NoteOnEvent(tick=0, channel=4, data=[47, 0]),
   midi.NoteOnEvent(tick=0, channel=4, data=[40, 100]),
   midi.NoteOnEvent(tick=108, channel=4, data=[40, 0]),
   midi.NoteOnEvent(tick=0, channel=4, data=[47, 100]),
   midi.NoteOnEvent(tick=0, channel=4, data=[40, 100]),
   midi.NoteOnEvent(tick=54, channel=4, data=[40, 0]),
   midi.NoteOnEvent(tick=0, channel=4, data=[47, 0]),
   midi.NoteOnEvent(tick=0, channel=4, data=[47, 100]),
   midi.NoteOnEvent(tick=0, channel=4, data=[40, 100]),
   midi.NoteOnEvent(tick=54, channel=4, data=[40, 0]),
   midi.NoteOnEvent(tick=0, channel=4, data=[47, 0]),
   midi.NoteOnEvent(tick=0, channel=4, data=[40, 100]),
   midi.NoteOnEvent(tick=108, channel=4, data=[40, 0]),
   midi.NoteOnEvent(tick=0, channel=4, data=[46, 100]),
   midi.NoteOnEvent(tick=0, channel=4, data=[53, 100]),
   midi.NoteOnEvent(tick=0, channel=4, data=[58, 100]),
   midi.NoteOnEvent(tick=108, channel=4, data=[58, 0]),
   midi.NoteOnEvent(tick=0, channel=4, data=[53, 0]),
   midi.NoteOnEvent(tick=0, channel=4, data=[46, 0]),
   midi.NoteOnEvent(tick=0, channel=4, data=[46, 100]),
   midi.NoteOnEvent(tick=0, channel=4, data=[53, 100]),
   midi.NoteOnEvent(tick=0, channel=4, data=[58, 100]),
   midi.NoteOnEvent(tick=108, channel=4, data=[58, 0]),
   midi.NoteOnEvent(tick=0, channel=4, data=[53, 0]),
   midi.NoteOnEvent(tick=0, channel=4, data=[46, 0]),
   midi.NoteOnEvent(tick=0, channel=4, data=[45, 100]),
   midi.NoteOnEvent(tick=0, channel=4, data=[52, 100]),
   midi.NoteOnEvent(tick=0, channel=4, data=[57, 100]),
   midi.NoteOnEvent(tick=108, channel=4, data=[57, 0]),
   midi.NoteOnEvent(tick=0, channel=4, data=[52, 0]),
   midi.NoteOnEvent(tick=0, channel=4, data=[45, 0]),
   midi.NoteOnEvent(tick=0, channel=4, data=[46, 100]),
   midi.NoteOnEvent(tick=0, channel=4, data=[53, 100]),
   midi.NoteOnEvent(tick=0, channel=4, data=[58, 100]),
   midi.NoteOnEvent(tick=216, channel=4, data=[58, 0]),
   midi.NoteOnEvent(tick=0, channel=4, data=[53, 0]),
   midi.NoteOnEvent(tick=0, channel=4, data=[46, 0]),
   midi.NoteOnEvent(tick=0, channel=4, data=[48, 100]),
   midi.NoteOnEvent(tick=0, channel=4, data=[41, 100]),
   midi.NoteOnEvent(tick=0, channel=4, data=[53, 100]),
   midi.NoteOnEvent(tick=216, channel=4, data=[53, 0]),
   midi.NoteOnEvent(tick=0, channel=4, data=[41, 0]),
   midi.NoteOnEvent(tick=0, channel=4, data=[48, 0]),
   midi.NoteOnEvent(tick=0, channel=4, data=[47, 100]),
   midi.NoteOnEvent(tick=0, channel=4, data=[40, 100]),
   midi.NoteOnEvent(tick=0, channel=4, data=[52, 100]),
   midi.NoteOnEvent(tick=216, channel=4, data=[52, 0]),
   midi.NoteOnEvent(tick=0, channel=4, data=[40, 0]),
   midi.NoteOnEvent(tick=0, channel=4, data=[47, 0]),
   midi.NoteOnEvent(tick=216, channel=4, data=[52, 100]),
   midi.NoteOnEvent(tick=0, channel=4, data=[47, 100]),
   midi.NoteOnEvent(tick=0, channel=4, data=[40, 100]),
   midi.NoteOnEvent(tick=1724, channel=4, data=[40, 0]),
   midi.NoteOnEvent(tick=0, channel=4, data=[47, 0]),
   midi.NoteOnEvent(tick=0, channel=4, data=[52, 0]),
   midi.NoteOnEvent(tick=4, channel=4, data=[40, 100]),
   midi.NoteOnEvent(tick=0, channel=4, data=[47, 100]),
   midi.NoteOnEvent(tick=0, channel=4, data=[52, 100]),
   midi.NoteOnEvent(tick=1724, channel=4, data=[52, 0]),
   midi.NoteOnEvent(tick=0, channel=4, data=[47, 0]),
   midi.NoteOnEvent(tick=0, channel=4, data=[40, 0]),
   midi.NoteOnEvent(tick=4, channel=4, data=[43, 100]),
   midi.NoteOnEvent(tick=0, channel=4, data=[50, 100]),
   midi.NoteOnEvent(tick=0, channel=4, data=[55, 100]),
   midi.NoteOnEvent(tick=1184, channel=4, data=[55, 0]),
   midi.NoteOnEvent(tick=0, channel=4, data=[50, 0]),
   midi.NoteOnEvent(tick=0, channel=4, data=[43, 0]),
   midi.NoteOnEvent(tick=4, channel=4, data=[43, 100]),
   midi.NoteOnEvent(tick=0, channel=4, data=[50, 100]),
   midi.NoteOnEvent(tick=0, channel=4, data=[55, 100]),
   midi.NoteOnEvent(tick=108, channel=4, data=[55, 0]),
   midi.NoteOnEvent(tick=0, channel=4, data=[50, 0]),
   midi.NoteOnEvent(tick=0, channel=4, data=[43, 0]),
   midi.NoteOnEvent(tick=108, channel=4, data=[43, 100]),
   midi.NoteOnEvent(tick=108, channel=4, data=[43, 0]),
   midi.NoteOnEvent(tick=0, channel=4, data=[43, 100]),
   midi.NoteOnEvent(tick=0, channel=4, data=[50, 100]),
   midi.NoteOnEvent(tick=0, channel=4, data=[55, 100]),
   midi.NoteOnEvent(tick=216, channel=4, data=[55, 0]),
   midi.NoteOnEvent(tick=0, channel=4, data=[50, 0]),
   midi.NoteOnEvent(tick=0, channel=4, data=[43, 0]),
   midi.NoteOnEvent(tick=0, channel=4, data=[40, 100]),
   midi.NoteOnEvent(tick=0, channel=4, data=[47, 100]),
   midi.NoteOnEvent(tick=0, channel=4, data=[52, 100]),
   midi.NoteOnEvent(tick=1724, channel=4, data=[52, 0]),
   midi.NoteOnEvent(tick=0, channel=4, data=[47, 0]),
   midi.NoteOnEvent(tick=0, channel=4, data=[40, 0]),
   midi.NoteOnEvent(tick=4, channel=4, data=[43, 100]),
   midi.NoteOnEvent(tick=0, channel=4, data=[50, 100]),
   midi.NoteOnEvent(tick=0, channel=4, data=[55, 100]),
   midi.NoteOnEvent(tick=1292, channel=4, data=[55, 0]),
   midi.NoteOnEvent(tick=0, channel=4, data=[50, 0]),
   midi.NoteOnEvent(tick=0, channel=4, data=[43, 0]),
   midi.NoteOnEvent(tick=4, channel=4, data=[47, 100]),
   midi.NoteOnEvent(tick=0, channel=4, data=[54, 100]),
   midi.NoteOnEvent(tick=0, channel=4, data=[59, 100]),
   midi.NoteOnEvent(tick=108, channel=4, data=[59, 0]),
   midi.NoteOnEvent(tick=0, channel=4, data=[54, 0]),
   midi.NoteOnEvent(tick=0, channel=4, data=[47, 0]),
   midi.NoteOnEvent(tick=0, channel=4, data=[47, 100]),
   midi.NoteOnEvent(tick=0, channel=4, data=[54, 100]),
   midi.NoteOnEvent(tick=0, channel=4, data=[59, 100]),
   midi.NoteOnEvent(tick=108, channel=4, data=[59, 0]),
   midi.NoteOnEvent(tick=0, channel=4, data=[54, 0]),
   midi.NoteOnEvent(tick=0, channel=4, data=[47, 0]),
   midi.NoteOnEvent(tick=216, channel=4, data=[52, 100]),
   midi.NoteOnEvent(tick=0, channel=4, data=[47, 100]),
   midi.NoteOnEvent(tick=0, channel=4, data=[40, 100]),
   midi.NoteOnEvent(tick=324, channel=4, data=[40, 0]),
   midi.NoteOnEvent(tick=0, channel=4, data=[47, 0]),
   midi.NoteOnEvent(tick=0, channel=4, data=[52, 0]),
   midi.NoteOnEvent(tick=0, channel=4, data=[40, 100]),
   midi.NoteOnEvent(tick=0, channel=4, data=[47, 100]),
   midi.NoteOnEvent(tick=0, channel=4, data=[52, 100]),
   midi.NoteOnEvent(tick=108, channel=4, data=[52, 0]),
   midi.NoteOnEvent(tick=0, channel=4, data=[47, 0]),
   midi.NoteOnEvent(tick=0, channel=4, data=[40, 0]),
   midi.NoteOnEvent(tick=0, channel=4, data=[40, 100]),
   midi.NoteOnEvent(tick=0, channel=4, data=[47, 100]),
   midi.NoteOnEvent(tick=0, channel=4, data=[52, 100]),
   midi.NoteOnEvent(tick=216, channel=4, data=[52, 0]),
   midi.NoteOnEvent(tick=0, channel=4, data=[47, 0]),
   midi.NoteOnEvent(tick=0, channel=4, data=[40, 0]),
   midi.NoteOnEvent(tick=0, channel=4, data=[40, 100]),
   midi.NoteOnEvent(tick=0, channel=4, data=[47, 100]),
   midi.NoteOnEvent(tick=0, channel=4, data=[52, 100]),
   midi.NoteOnEvent(tick=108, channel=4, data=[52, 0]),
   midi.NoteOnEvent(tick=0, channel=4, data=[47, 0]),
   midi.NoteOnEvent(tick=0, channel=4, data=[40, 0]),
   midi.NoteOnEvent(tick=0, channel=4, data=[40, 100]),
   midi.NoteOnEvent(tick=0, channel=4, data=[47, 100]),
   midi.NoteOnEvent(tick=0, channel=4, data=[52, 100]),
   midi.NoteOnEvent(tick=108, channel=4, data=[52, 0]),
   midi.NoteOnEvent(tick=0, channel=4, data=[47, 0]),
   midi.NoteOnEvent(tick=0, channel=4, data=[40, 0]),
   midi.NoteOnEvent(tick=0, channel=4, data=[40, 100]),
   midi.NoteOnEvent(tick=0, channel=4, data=[47, 100]),
   midi.NoteOnEvent(tick=0, channel=4, data=[52, 100]),
   midi.NoteOnEvent(tick=108, channel=4, data=[52, 0]),
   midi.NoteOnEvent(tick=0, channel=4, data=[47, 0]),
   midi.NoteOnEvent(tick=0, channel=4, data=[40, 0]),
   midi.NoteOnEvent(tick=0, channel=4, data=[40, 100]),
   midi.NoteOnEvent(tick=0, channel=4, data=[47, 100]),
   midi.NoteOnEvent(tick=0, channel=4, data=[52, 100]),
   midi.NoteOnEvent(tick=212, channel=4, data=[52, 0]),
   midi.NoteOnEvent(tick=0, channel=4, data=[47, 0]),
   midi.NoteOnEvent(tick=0, channel=4, data=[40, 0]),
   midi.NoteOnEvent(tick=4, channel=4, data=[40, 100]),
   midi.NoteOnEvent(tick=0, channel=4, data=[47, 100]),
   midi.NoteOnEvent(tick=0, channel=4, data=[52, 100]),
   midi.NoteOnEvent(tick=108, channel=4, data=[52, 0]),
   midi.NoteOnEvent(tick=0, channel=4, data=[47, 0]),
   midi.NoteOnEvent(tick=0, channel=4, data=[40, 0]),
   midi.NoteOnEvent(tick=0, channel=4, data=[60, 100]),
   midi.NoteOnEvent(tick=0, channel=4, data=[55, 100]),
   midi.NoteOnEvent(tick=0, channel=4, data=[48, 100]),
   midi.NoteOnEvent(tick=216, channel=4, data=[48, 0]),
   midi.NoteOnEvent(tick=0, channel=4, data=[55, 0]),
   midi.NoteOnEvent(tick=0, channel=4, data=[60, 0]),
   midi.NoteOnEvent(tick=0, channel=4, data=[62, 100]),
   midi.NoteOnEvent(tick=0, channel=4, data=[50, 100]),
   midi.NoteOnEvent(tick=0, channel=4, data=[57, 100]),
   midi.NoteOnEvent(tick=216, channel=4, data=[57, 0]),
   midi.NoteOnEvent(tick=0, channel=4, data=[50, 0]),
   midi.NoteOnEvent(tick=0, channel=4, data=[62, 0]),
   midi.NoteOnEvent(tick=0, channel=4, data=[55, 100]),
   midi.NoteOnEvent(tick=0, channel=4, data=[50, 100]),
   midi.NoteOnEvent(tick=0, channel=4, data=[43, 100]),
   midi.NoteOnEvent(tick=324, channel=4, data=[43, 0]),
   midi.NoteOnEvent(tick=0, channel=4, data=[50, 0]),
   midi.NoteOnEvent(tick=0, channel=4, data=[55, 0]),
   midi.NoteOnEvent(tick=0, channel=4, data=[43, 100]),
   midi.NoteOnEvent(tick=0, channel=4, data=[50, 100]),
   midi.NoteOnEvent(tick=0, channel=4, data=[55, 100]),
   midi.NoteOnEvent(tick=108, channel=4, data=[55, 0]),
   midi.NoteOnEvent(tick=0, channel=4, data=[50, 0]),
   midi.NoteOnEvent(tick=0, channel=4, data=[43, 0]),
   midi.NoteOnEvent(tick=0, channel=4, data=[43, 100]),
   midi.NoteOnEvent(tick=0, channel=4, data=[50, 100]),
   midi.NoteOnEvent(tick=0, channel=4, data=[55, 100]),
   midi.NoteOnEvent(tick=216, channel=4, data=[55, 0]),
   midi.NoteOnEvent(tick=0, channel=4, data=[50, 0]),
   midi.NoteOnEvent(tick=0, channel=4, data=[43, 0]),
   midi.NoteOnEvent(tick=0, channel=4, data=[43, 100]),
   midi.NoteOnEvent(tick=0, channel=4, data=[50, 100]),
   midi.NoteOnEvent(tick=0, channel=4, data=[55, 100]),
   midi.NoteOnEvent(tick=108, channel=4, data=[55, 0]),
   midi.NoteOnEvent(tick=0, channel=4, data=[50, 0]),
   midi.NoteOnEvent(tick=0, channel=4, data=[43, 0]),
   midi.NoteOnEvent(tick=0, channel=4, data=[43, 100]),
   midi.NoteOnEvent(tick=0, channel=4, data=[50, 100]),
   midi.NoteOnEvent(tick=0, channel=4, data=[55, 100]),
   midi.NoteOnEvent(tick=108, channel=4, data=[55, 0]),
   midi.NoteOnEvent(tick=0, channel=4, data=[50, 0]),
   midi.NoteOnEvent(tick=0, channel=4, data=[43, 0]),
   midi.NoteOnEvent(tick=0, channel=4, data=[43, 100]),
   midi.NoteOnEvent(tick=0, channel=4, data=[50, 100]),
   midi.NoteOnEvent(tick=0, channel=4, data=[55, 100]),
   midi.NoteOnEvent(tick=108, channel=4, data=[55, 0]),
   midi.NoteOnEvent(tick=0, channel=4, data=[50, 0]),
   midi.NoteOnEvent(tick=0, channel=4, data=[43, 0]),
   midi.NoteOnEvent(tick=0, channel=4, data=[43, 100]),
   midi.NoteOnEvent(tick=0, channel=4, data=[50, 100]),
   midi.NoteOnEvent(tick=0, channel=4, data=[55, 100]),
   midi.NoteOnEvent(tick=212, channel=4, data=[55, 0]),
   midi.NoteOnEvent(tick=0, channel=4, data=[50, 0]),
   midi.NoteOnEvent(tick=0, channel=4, data=[43, 0]),
   midi.NoteOnEvent(tick=4, channel=4, data=[52, 100]),
   midi.NoteOnEvent(tick=0, channel=4, data=[45, 100]),
   midi.NoteOnEvent(tick=0, channel=4, data=[57, 100]),
   midi.NoteOnEvent(tick=108, channel=4, data=[57, 0]),
   midi.NoteOnEvent(tick=0, channel=4, data=[45, 0]),
   midi.NoteOnEvent(tick=0, channel=4, data=[52, 0]),
   midi.NoteOnEvent(tick=0, channel=4, data=[45, 100]),
   midi.NoteOnEvent(tick=0, channel=4, data=[52, 100]),
   midi.NoteOnEvent(tick=0, channel=4, data=[57, 100]),
   midi.NoteOnEvent(tick=216, channel=4, data=[57, 0]),
   midi.NoteOnEvent(tick=0, channel=4, data=[52, 0]),
   midi.NoteOnEvent(tick=0, channel=4, data=[45, 0]),
   midi.NoteOnEvent(tick=0, channel=4, data=[54, 100]),
   midi.NoteOnEvent(tick=0, channel=4, data=[47, 100]),
   midi.NoteOnEvent(tick=0, channel=4, data=[59, 100]),
   midi.NoteOnEvent(tick=216, channel=4, data=[59, 0]),
   midi.NoteOnEvent(tick=0, channel=4, data=[47, 0]),
   midi.NoteOnEvent(tick=0, channel=4, data=[54, 0]),
   midi.NoteOnEvent(tick=0, channel=4, data=[52, 100]),
   midi.NoteOnEvent(tick=0, channel=4, data=[47, 100]),
   midi.NoteOnEvent(tick=0, channel=4, data=[40, 100]),
   midi.NoteOnEvent(tick=324, channel=4, data=[40, 0]),
   midi.NoteOnEvent(tick=0, channel=4, data=[47, 0]),
   midi.NoteOnEvent(tick=0, channel=4, data=[52, 0]),
   midi.NoteOnEvent(tick=0, channel=4, data=[40, 100]),
   midi.NoteOnEvent(tick=0, channel=4, data=[47, 100]),
   midi.NoteOnEvent(tick=0, channel=4, data=[52, 100]),
   midi.NoteOnEvent(tick=108, channel=4, data=[52, 0]),
   midi.NoteOnEvent(tick=0, channel=4, data=[47, 0]),
   midi.NoteOnEvent(tick=0, channel=4, data=[40, 0]),
   midi.NoteOnEvent(tick=0, channel=4, data=[40, 100]),
   midi.NoteOnEvent(tick=0, channel=4, data=[47, 100]),
   midi.NoteOnEvent(tick=0, channel=4, data=[52, 100]),
   midi.NoteOnEvent(tick=216, channel=4, data=[52, 0]),
   midi.NoteOnEvent(tick=0, channel=4, data=[47, 0]),
   midi.NoteOnEvent(tick=0, channel=4, data=[40, 0]),
   midi.NoteOnEvent(tick=0, channel=4, data=[40, 100]),
   midi.NoteOnEvent(tick=0, channel=4, data=[47, 100]),
   midi.NoteOnEvent(tick=0, channel=4, data=[52, 100]),
   midi.NoteOnEvent(tick=108, channel=4, data=[52, 0]),
   midi.NoteOnEvent(tick=0, channel=4, data=[47, 0]),
   midi.NoteOnEvent(tick=0, channel=4, data=[40, 0]),
   midi.NoteOnEvent(tick=0, channel=4, data=[40, 100]),
   midi.NoteOnEvent(tick=0, channel=4, data=[47, 100]),
   midi.NoteOnEvent(tick=0, channel=4, data=[52, 100]),
   midi.NoteOnEvent(tick=108, channel=4, data=[52, 0]),
   midi.NoteOnEvent(tick=0, channel=4, data=[47, 0]),
   midi.NoteOnEvent(tick=0, channel=4, data=[40, 0]),
   midi.NoteOnEvent(tick=0, channel=4, data=[40, 100]),
   midi.NoteOnEvent(tick=0, channel=4, data=[47, 100]),
   midi.NoteOnEvent(tick=0, channel=4, data=[52, 100]),
   midi.NoteOnEvent(tick=108, channel=4, data=[52, 0]),
   midi.NoteOnEvent(tick=0, channel=4, data=[47, 0]),
   midi.NoteOnEvent(tick=0, channel=4, data=[40, 0]),
   midi.NoteOnEvent(tick=0, channel=4, data=[40, 100]),
   midi.NoteOnEvent(tick=0, channel=4, data=[47, 100]),
   midi.NoteOnEvent(tick=0, channel=4, data=[52, 100]),
   midi.NoteOnEvent(tick=212, channel=4, data=[52, 0]),
   midi.NoteOnEvent(tick=0, channel=4, data=[47, 0]),
   midi.NoteOnEvent(tick=0, channel=4, data=[40, 0]),
   midi.NoteOnEvent(tick=4, channel=4, data=[40, 100]),
   midi.NoteOnEvent(tick=0, channel=4, data=[47, 100]),
   midi.NoteOnEvent(tick=0, channel=4, data=[52, 100]),
   midi.NoteOnEvent(tick=108, channel=4, data=[52, 0]),
   midi.NoteOnEvent(tick=0, channel=4, data=[47, 0]),
   midi.NoteOnEvent(tick=0, channel=4, data=[40, 0]),
   midi.NoteOnEvent(tick=0, channel=4, data=[60, 100]),
   midi.NoteOnEvent(tick=0, channel=4, data=[55, 100]),
   midi.NoteOnEvent(tick=0, channel=4, data=[48, 100]),
   midi.NoteOnEvent(tick=216, channel=4, data=[48, 0]),
   midi.NoteOnEvent(tick=0, channel=4, data=[55, 0]),
   midi.NoteOnEvent(tick=0, channel=4, data=[60, 0]),
   midi.NoteOnEvent(tick=0, channel=4, data=[62, 100]),
   midi.NoteOnEvent(tick=0, channel=4, data=[50, 100]),
   midi.NoteOnEvent(tick=0, channel=4, data=[57, 100]),
   midi.NoteOnEvent(tick=216, channel=4, data=[57, 0]),
   midi.NoteOnEvent(tick=0, channel=4, data=[50, 0]),
   midi.NoteOnEvent(tick=0, channel=4, data=[62, 0]),
   midi.NoteOnEvent(tick=0, channel=4, data=[55, 100]),
   midi.NoteOnEvent(tick=0, channel=4, data=[50, 100]),
   midi.NoteOnEvent(tick=0, channel=4, data=[43, 100]),
   midi.NoteOnEvent(tick=324, channel=4, data=[43, 0]),
   midi.NoteOnEvent(tick=0, channel=4, data=[50, 0]),
   midi.NoteOnEvent(tick=0, channel=4, data=[55, 0]),
   midi.NoteOnEvent(tick=0, channel=4, data=[43, 100]),
   midi.NoteOnEvent(tick=0, channel=4, data=[50, 100]),
   midi.NoteOnEvent(tick=0, channel=4, data=[55, 100]),
   midi.NoteOnEvent(tick=108, channel=4, data=[55, 0]),
   midi.NoteOnEvent(tick=0, channel=4, data=[50, 0]),
   midi.NoteOnEvent(tick=0, channel=4, data=[43, 0]),
   midi.NoteOnEvent(tick=0, channel=4, data=[43, 100]),
   midi.NoteOnEvent(tick=0, channel=4, data=[50, 100]),
   midi.NoteOnEvent(tick=0, channel=4, data=[55, 100]),
   midi.NoteOnEvent(tick=216, channel=4, data=[55, 0]),
   midi.NoteOnEvent(tick=0, channel=4, data=[50, 0]),
   midi.NoteOnEvent(tick=0, channel=4, data=[43, 0]),
   midi.NoteOnEvent(tick=0, channel=4, data=[43, 100]),
   midi.NoteOnEvent(tick=0, channel=4, data=[50, 100]),
   midi.NoteOnEvent(tick=0, channel=4, data=[55, 100]),
   midi.NoteOnEvent(tick=108, channel=4, data=[55, 0]),
   midi.NoteOnEvent(tick=0, channel=4, data=[50, 0]),
   midi.NoteOnEvent(tick=0, channel=4, data=[43, 0]),
   midi.NoteOnEvent(tick=0, channel=4, data=[43, 100]),
   midi.NoteOnEvent(tick=0, channel=4, data=[50, 100]),
   midi.NoteOnEvent(tick=0, channel=4, data=[55, 100]),
   midi.NoteOnEvent(tick=108, channel=4, data=[55, 0]),
   midi.NoteOnEvent(tick=0, channel=4, data=[50, 0]),
   midi.NoteOnEvent(tick=0, channel=4, data=[43, 0]),
   midi.NoteOnEvent(tick=0, channel=4, data=[43, 100]),
   midi.NoteOnEvent(tick=0, channel=4, data=[50, 100]),
   midi.NoteOnEvent(tick=0, channel=4, data=[55, 100]),
   midi.NoteOnEvent(tick=108, channel=4, data=[55, 0]),
   midi.NoteOnEvent(tick=0, channel=4, data=[50, 0]),
   midi.NoteOnEvent(tick=0, channel=4, data=[43, 0]),
   midi.NoteOnEvent(tick=0, channel=4, data=[43, 100]),
   midi.NoteOnEvent(tick=0, channel=4, data=[50, 100]),
   midi.NoteOnEvent(tick=0, channel=4, data=[55, 100]),
   midi.NoteOnEvent(tick=212, channel=4, data=[55, 0]),
   midi.NoteOnEvent(tick=0, channel=4, data=[50, 0]),
   midi.NoteOnEvent(tick=0, channel=4, data=[43, 0]),
   midi.NoteOnEvent(tick=4, channel=4, data=[52, 100]),
   midi.NoteOnEvent(tick=0, channel=4, data=[45, 100]),
   midi.NoteOnEvent(tick=0, channel=4, data=[57, 100]),
   midi.NoteOnEvent(tick=108, channel=4, data=[57, 0]),
   midi.NoteOnEvent(tick=0, channel=4, data=[45, 0]),
   midi.NoteOnEvent(tick=0, channel=4, data=[52, 0]),
   midi.NoteOnEvent(tick=0, channel=4, data=[45, 100]),
   midi.NoteOnEvent(tick=0, channel=4, data=[52, 100]),
   midi.NoteOnEvent(tick=0, channel=4, data=[57, 100]),
   midi.NoteOnEvent(tick=216, channel=4, data=[57, 0]),
   midi.NoteOnEvent(tick=0, channel=4, data=[52, 0]),
   midi.NoteOnEvent(tick=0, channel=4, data=[45, 0]),
   midi.NoteOnEvent(tick=0, channel=4, data=[54, 100]),
   midi.NoteOnEvent(tick=0, channel=4, data=[47, 100]),
   midi.NoteOnEvent(tick=0, channel=4, data=[59, 100]),
   midi.NoteOnEvent(tick=216, channel=4, data=[59, 0]),
   midi.NoteOnEvent(tick=0, channel=4, data=[47, 0]),
   midi.NoteOnEvent(tick=0, channel=4, data=[54, 0]),
   midi.NoteOnEvent(tick=0, channel=4, data=[52, 100]),
   midi.NoteOnEvent(tick=0, channel=4, data=[47, 100]),
   midi.NoteOnEvent(tick=0, channel=4, data=[40, 100]),
   midi.NoteOnEvent(tick=324, channel=4, data=[40, 0]),
   midi.NoteOnEvent(tick=0, channel=4, data=[47, 0]),
   midi.NoteOnEvent(tick=0, channel=4, data=[52, 0]),
   midi.NoteOnEvent(tick=0, channel=4, data=[40, 100]),
   midi.NoteOnEvent(tick=0, channel=4, data=[47, 100]),
   midi.NoteOnEvent(tick=0, channel=4, data=[52, 100]),
   midi.NoteOnEvent(tick=108, channel=4, data=[52, 0]),
   midi.NoteOnEvent(tick=0, channel=4, data=[47, 0]),
   midi.NoteOnEvent(tick=0, channel=4, data=[40, 0]),
   midi.NoteOnEvent(tick=0, channel=4, data=[40, 100]),
   midi.NoteOnEvent(tick=0, channel=4, data=[47, 100]),
   midi.NoteOnEvent(tick=0, channel=4, data=[52, 100]),
   midi.NoteOnEvent(tick=216, channel=4, data=[52, 0]),
   midi.NoteOnEvent(tick=0, channel=4, data=[47, 0]),
   midi.NoteOnEvent(tick=0, channel=4, data=[40, 0]),
   midi.NoteOnEvent(tick=0, channel=4, data=[40, 100]),
   midi.NoteOnEvent(tick=0, channel=4, data=[47, 100]),
   midi.NoteOnEvent(tick=0, channel=4, data=[52, 100]),
   midi.NoteOnEvent(tick=108, channel=4, data=[52, 0]),
   midi.NoteOnEvent(tick=0, channel=4, data=[47, 0]),
   midi.NoteOnEvent(tick=0, channel=4, data=[40, 0]),
   midi.NoteOnEvent(tick=0, channel=4, data=[40, 100]),
   midi.NoteOnEvent(tick=0, channel=4, data=[47, 100]),
   midi.NoteOnEvent(tick=0, channel=4, data=[52, 100]),
   midi.NoteOnEvent(tick=108, channel=4, data=[52, 0]),
   midi.NoteOnEvent(tick=0, channel=4, data=[47, 0]),
   midi.NoteOnEvent(tick=0, channel=4, data=[40, 0]),
   midi.NoteOnEvent(tick=0, channel=4, data=[40, 100]),
   midi.NoteOnEvent(tick=0, channel=4, data=[47, 100]),
   midi.NoteOnEvent(tick=0, channel=4, data=[52, 100]),
   midi.NoteOnEvent(tick=108, channel=4, data=[52, 0]),
   midi.NoteOnEvent(tick=0, channel=4, data=[47, 0]),
   midi.NoteOnEvent(tick=0, channel=4, data=[40, 0]),
   midi.NoteOnEvent(tick=0, channel=4, data=[40, 100]),
   midi.NoteOnEvent(tick=0, channel=4, data=[47, 100]),
   midi.NoteOnEvent(tick=0, channel=4, data=[52, 100]),
   midi.NoteOnEvent(tick=212, channel=4, data=[52, 0]),
   midi.NoteOnEvent(tick=0, channel=4, data=[47, 0]),
   midi.NoteOnEvent(tick=0, channel=4, data=[40, 0]),
   midi.NoteOnEvent(tick=4, channel=4, data=[40, 100]),
   midi.NoteOnEvent(tick=0, channel=4, data=[47, 100]),
   midi.NoteOnEvent(tick=0, channel=4, data=[52, 100]),
   midi.NoteOnEvent(tick=108, channel=4, data=[52, 0]),
   midi.NoteOnEvent(tick=0, channel=4, data=[47, 0]),
   midi.NoteOnEvent(tick=0, channel=4, data=[40, 0]),
   midi.NoteOnEvent(tick=0, channel=4, data=[60, 100]),
   midi.NoteOnEvent(tick=0, channel=4, data=[55, 100]),
   midi.NoteOnEvent(tick=0, channel=4, data=[48, 100]),
   midi.NoteOnEvent(tick=216, channel=4, data=[48, 0]),
   midi.NoteOnEvent(tick=0, channel=4, data=[55, 0]),
   midi.NoteOnEvent(tick=0, channel=4, data=[60, 0]),
   midi.NoteOnEvent(tick=0, channel=4, data=[62, 100]),
   midi.NoteOnEvent(tick=0, channel=4, data=[50, 100]),
   midi.NoteOnEvent(tick=0, channel=4, data=[57, 100]),
   midi.NoteOnEvent(tick=216, channel=4, data=[57, 0]),
   midi.NoteOnEvent(tick=0, channel=4, data=[50, 0]),
   midi.NoteOnEvent(tick=0, channel=4, data=[62, 0]),
   midi.NoteOnEvent(tick=0, channel=4, data=[55, 100]),
   midi.NoteOnEvent(tick=0, channel=4, data=[50, 100]),
   midi.NoteOnEvent(tick=0, channel=4, data=[43, 100]),
   midi.NoteOnEvent(tick=324, channel=4, data=[43, 0]),
   midi.NoteOnEvent(tick=0, channel=4, data=[50, 0]),
   midi.NoteOnEvent(tick=0, channel=4, data=[55, 0]),
   midi.NoteOnEvent(tick=0, channel=4, data=[43, 100]),
   midi.NoteOnEvent(tick=0, channel=4, data=[50, 100]),
   midi.NoteOnEvent(tick=0, channel=4, data=[55, 100]),
   midi.NoteOnEvent(tick=108, channel=4, data=[55, 0]),
   midi.NoteOnEvent(tick=0, channel=4, data=[50, 0]),
   midi.NoteOnEvent(tick=0, channel=4, data=[43, 0]),
   midi.NoteOnEvent(tick=0, channel=4, data=[43, 100]),
   midi.NoteOnEvent(tick=0, channel=4, data=[50, 100]),
   midi.NoteOnEvent(tick=0, channel=4, data=[55, 100]),
   midi.NoteOnEvent(tick=216, channel=4, data=[55, 0]),
   midi.NoteOnEvent(tick=0, channel=4, data=[50, 0]),
   midi.NoteOnEvent(tick=0, channel=4, data=[43, 0]),
   midi.NoteOnEvent(tick=0, channel=4, data=[43, 100]),
   midi.NoteOnEvent(tick=0, channel=4, data=[50, 100]),
   midi.NoteOnEvent(tick=0, channel=4, data=[55, 100]),
   midi.NoteOnEvent(tick=108, channel=4, data=[55, 0]),
   midi.NoteOnEvent(tick=0, channel=4, data=[50, 0]),
   midi.NoteOnEvent(tick=0, channel=4, data=[43, 0]),
   midi.NoteOnEvent(tick=0, channel=4, data=[43, 100]),
   midi.NoteOnEvent(tick=0, channel=4, data=[50, 100]),
   midi.NoteOnEvent(tick=0, channel=4, data=[55, 100]),
   midi.NoteOnEvent(tick=108, channel=4, data=[55, 0]),
   midi.NoteOnEvent(tick=0, channel=4, data=[50, 0]),
   midi.NoteOnEvent(tick=0, channel=4, data=[43, 0]),
   midi.NoteOnEvent(tick=0, channel=4, data=[43, 100]),
   midi.NoteOnEvent(tick=0, channel=4, data=[50, 100]),
   midi.NoteOnEvent(tick=0, channel=4, data=[55, 100]),
   midi.NoteOnEvent(tick=108, channel=4, data=[55, 0]),
   midi.NoteOnEvent(tick=0, channel=4, data=[50, 0]),
   midi.NoteOnEvent(tick=0, channel=4, data=[43, 0]),
   midi.NoteOnEvent(tick=0, channel=4, data=[43, 100]),
   midi.NoteOnEvent(tick=0, channel=4, data=[50, 100]),
   midi.NoteOnEvent(tick=0, channel=4, data=[55, 100]),
   midi.NoteOnEvent(tick=212, channel=4, data=[55, 0]),
   midi.NoteOnEvent(tick=0, channel=4, data=[50, 0]),
   midi.NoteOnEvent(tick=0, channel=4, data=[43, 0]),
   midi.NoteOnEvent(tick=4, channel=4, data=[52, 100]),
   midi.NoteOnEvent(tick=0, channel=4, data=[45, 100]),
   midi.NoteOnEvent(tick=0, channel=4, data=[57, 100]),
   midi.NoteOnEvent(tick=108, channel=4, data=[57, 0]),
   midi.NoteOnEvent(tick=0, channel=4, data=[45, 0]),
   midi.NoteOnEvent(tick=0, channel=4, data=[52, 0]),
   midi.NoteOnEvent(tick=0, channel=4, data=[45, 100]),
   midi.NoteOnEvent(tick=0, channel=4, data=[52, 100]),
   midi.NoteOnEvent(tick=0, channel=4, data=[57, 100]),
   midi.NoteOnEvent(tick=216, channel=4, data=[57, 0]),
   midi.NoteOnEvent(tick=0, channel=4, data=[52, 0]),
   midi.NoteOnEvent(tick=0, channel=4, data=[45, 0]),
   midi.NoteOnEvent(tick=0, channel=4, data=[54, 100]),
   midi.NoteOnEvent(tick=0, channel=4, data=[47, 100]),
   midi.NoteOnEvent(tick=0, channel=4, data=[59, 100]),
   midi.NoteOnEvent(tick=216, channel=4, data=[59, 0]),
   midi.NoteOnEvent(tick=0, channel=4, data=[47, 0]),
   midi.NoteOnEvent(tick=0, channel=4, data=[54, 0]),
   midi.NoteOnEvent(tick=0, channel=4, data=[52, 100]),
   midi.NoteOnEvent(tick=0, channel=4, data=[47, 100]),
   midi.NoteOnEvent(tick=0, channel=4, data=[40, 100]),
   midi.NoteOnEvent(tick=324, channel=4, data=[40, 0]),
   midi.NoteOnEvent(tick=0, channel=4, data=[47, 0]),
   midi.NoteOnEvent(tick=0, channel=4, data=[52, 0]),
   midi.NoteOnEvent(tick=0, channel=4, data=[40, 100]),
   midi.NoteOnEvent(tick=0, channel=4, data=[47, 100]),
   midi.NoteOnEvent(tick=0, channel=4, data=[52, 100]),
   midi.NoteOnEvent(tick=108, channel=4, data=[52, 0]),
   midi.NoteOnEvent(tick=0, channel=4, data=[47, 0]),
   midi.NoteOnEvent(tick=0, channel=4, data=[40, 0]),
   midi.NoteOnEvent(tick=0, channel=4, data=[40, 100]),
   midi.NoteOnEvent(tick=0, channel=4, data=[47, 100]),
   midi.NoteOnEvent(tick=0, channel=4, data=[52, 100]),
   midi.NoteOnEvent(tick=216, channel=4, data=[52, 0]),
   midi.NoteOnEvent(tick=0, channel=4, data=[47, 0]),
   midi.NoteOnEvent(tick=0, channel=4, data=[40, 0]),
   midi.NoteOnEvent(tick=0, channel=4, data=[40, 100]),
   midi.NoteOnEvent(tick=0, channel=4, data=[47, 100]),
   midi.NoteOnEvent(tick=0, channel=4, data=[52, 100]),
   midi.NoteOnEvent(tick=108, channel=4, data=[52, 0]),
   midi.NoteOnEvent(tick=0, channel=4, data=[47, 0]),
   midi.NoteOnEvent(tick=0, channel=4, data=[40, 0]),
   midi.NoteOnEvent(tick=0, channel=4, data=[40, 100]),
   midi.NoteOnEvent(tick=0, channel=4, data=[47, 100]),
   midi.NoteOnEvent(tick=0, channel=4, data=[52, 100]),
   midi.NoteOnEvent(tick=108, channel=4, data=[52, 0]),
   midi.NoteOnEvent(tick=0, channel=4, data=[47, 0]),
   midi.NoteOnEvent(tick=0, channel=4, data=[40, 0]),
   midi.NoteOnEvent(tick=0, channel=4, data=[40, 100]),
   midi.NoteOnEvent(tick=0, channel=4, data=[47, 100]),
   midi.NoteOnEvent(tick=0, channel=4, data=[52, 100]),
   midi.NoteOnEvent(tick=324, channel=4, data=[52, 0]),
   midi.NoteOnEvent(tick=0, channel=4, data=[47, 0]),
   midi.NoteOnEvent(tick=0, channel=4, data=[40, 0]),
   midi.NoteOnEvent(tick=0, channel=4, data=[55, 100]),
   midi.NoteOnEvent(tick=0, channel=4, data=[50, 100]),
   midi.NoteOnEvent(tick=0, channel=4, data=[43, 100]),
   midi.NoteOnEvent(tick=108, channel=4, data=[43, 0]),
   midi.NoteOnEvent(tick=0, channel=4, data=[50, 0]),
   midi.NoteOnEvent(tick=0, channel=4, data=[55, 0]),
   midi.NoteOnEvent(tick=0, channel=4, data=[43, 100]),
   midi.NoteOnEvent(tick=0, channel=4, data=[50, 100]),
   midi.NoteOnEvent(tick=0, channel=4, data=[55, 100]),
   midi.NoteOnEvent(tick=216, channel=4, data=[55, 0]),
   midi.NoteOnEvent(tick=0, channel=4, data=[50, 0]),
   midi.NoteOnEvent(tick=0, channel=4, data=[43, 0]),
   midi.NoteOnEvent(tick=0, channel=4, data=[54, 100]),
   midi.NoteOnEvent(tick=0, channel=4, data=[59, 100]),
   midi.NoteOnEvent(tick=0, channel=4, data=[47, 100]),
   midi.NoteOnEvent(tick=216, channel=4, data=[47, 0]),
   midi.NoteOnEvent(tick=0, channel=4, data=[59, 0]),
   midi.NoteOnEvent(tick=0, channel=4, data=[54, 0]),
   midi.NoteOnEvent(tick=0, channel=4, data=[55, 100]),
   midi.NoteOnEvent(tick=0, channel=4, data=[50, 100]),
   midi.NoteOnEvent(tick=0, channel=4, data=[43, 100]),
   midi.NoteOnEvent(tick=1724, channel=4, data=[43, 0]),
   midi.NoteOnEvent(tick=0, channel=4, data=[50, 0]),
   midi.NoteOnEvent(tick=0, channel=4, data=[55, 0]),
   midi.NoteOnEvent(tick=4, channel=4, data=[46, 100]),
   midi.NoteOnEvent(tick=0, channel=4, data=[53, 100]),
   midi.NoteOnEvent(tick=0, channel=4, data=[58, 100]),
   midi.NoteOnEvent(tick=108, channel=4, data=[58, 0]),
   midi.NoteOnEvent(tick=0, channel=4, data=[53, 0]),
   midi.NoteOnEvent(tick=0, channel=4, data=[46, 0]),
   midi.NoteOnEvent(tick=0, channel=4, data=[45, 100]),
   midi.NoteOnEvent(tick=0, channel=4, data=[52, 100]),
   midi.NoteOnEvent(tick=0, channel=4, data=[57, 100]),
   midi.NoteOnEvent(tick=108, channel=4, data=[57, 0]),
   midi.NoteOnEvent(tick=0, channel=4, data=[52, 0]),
   midi.NoteOnEvent(tick=0, channel=4, data=[45, 0]),
   midi.NoteOnEvent(tick=108, channel=4, data=[45, 100]),
   midi.NoteOnEvent(tick=0, channel=4, data=[52, 100]),
   midi.NoteOnEvent(tick=0, channel=4, data=[57, 100]),
   midi.NoteOnEvent(tick=108, channel=4, data=[57, 0]),
   midi.NoteOnEvent(tick=0, channel=4, data=[52, 0]),
   midi.NoteOnEvent(tick=0, channel=4, data=[45, 0]),
   midi.NoteOnEvent(tick=108, channel=4, data=[45, 100]),
   midi.NoteOnEvent(tick=0, channel=4, data=[52, 100]),
   midi.NoteOnEvent(tick=0, channel=4, data=[57, 100]),
   midi.NoteOnEvent(tick=108, channel=4, data=[57, 0]),
   midi.NoteOnEvent(tick=0, channel=4, data=[52, 0]),
   midi.NoteOnEvent(tick=0, channel=4, data=[45, 0]),
   midi.NoteOnEvent(tick=108, channel=4, data=[45, 100]),
   midi.NoteOnEvent(tick=0, channel=4, data=[52, 100]),
   midi.NoteOnEvent(tick=0, channel=4, data=[57, 100]),
   midi.NoteOnEvent(tick=108, channel=4, data=[57, 0]),
   midi.NoteOnEvent(tick=0, channel=4, data=[52, 0]),
   midi.NoteOnEvent(tick=0, channel=4, data=[45, 0]),
   midi.NoteOnEvent(tick=0, channel=4, data=[40, 100]),
   midi.NoteOnEvent(tick=108, channel=4, data=[40, 0]),
   midi.NoteOnEvent(tick=0, channel=4, data=[40, 100]),
   midi.NoteOnEvent(tick=0, channel=4, data=[47, 100]),
   midi.NoteOnEvent(tick=0, channel=4, data=[52, 100]),
   midi.NoteOnEvent(tick=54, channel=4, data=[52, 0]),
   midi.NoteOnEvent(tick=0, channel=4, data=[47, 0]),
   midi.NoteOnEvent(tick=0, channel=4, data=[40, 0]),
   midi.NoteOnEvent(tick=0, channel=4, data=[40, 100]),
   midi.NoteOnEvent(tick=0, channel=4, data=[47, 100]),
   midi.NoteOnEvent(tick=0, channel=4, data=[52, 100]),
   midi.NoteOnEvent(tick=54, channel=4, data=[52, 0]),
   midi.NoteOnEvent(tick=0, channel=4, data=[47, 0]),
   midi.NoteOnEvent(tick=0, channel=4, data=[40, 0]),
   midi.NoteOnEvent(tick=0, channel=4, data=[40, 100]),
   midi.NoteOnEvent(tick=108, channel=4, data=[40, 0]),
   midi.NoteOnEvent(tick=0, channel=4, data=[52, 100]),
   midi.NoteOnEvent(tick=0, channel=4, data=[47, 100]),
   midi.NoteOnEvent(tick=0, channel=4, data=[40, 100]),
   midi.NoteOnEvent(tick=54, channel=4, data=[40, 0]),
   midi.NoteOnEvent(tick=0, channel=4, data=[47, 0]),
   midi.NoteOnEvent(tick=0, channel=4, data=[52, 0]),
   midi.NoteOnEvent(tick=0, channel=4, data=[47, 100]),
   midi.NoteOnEvent(tick=0, channel=4, data=[52, 100]),
   midi.NoteOnEvent(tick=0, channel=4, data=[40, 100]),
   midi.NoteOnEvent(tick=54, channel=4, data=[40, 0]),
   midi.NoteOnEvent(tick=0, channel=4, data=[52, 0]),
   midi.NoteOnEvent(tick=0, channel=4, data=[47, 0]),
   midi.NoteOnEvent(tick=0, channel=4, data=[40, 100]),
   midi.NoteOnEvent(tick=108, channel=4, data=[40, 0]),
   midi.NoteOnEvent(tick=0, channel=4, data=[59, 100]),
   midi.NoteOnEvent(tick=0, channel=4, data=[54, 100]),
   midi.NoteOnEvent(tick=0, channel=4, data=[47, 100]),
   midi.NoteOnEvent(tick=108, channel=4, data=[47, 0]),
   midi.NoteOnEvent(tick=0, channel=4, data=[54, 0]),
   midi.NoteOnEvent(tick=0, channel=4, data=[59, 0]),
   midi.NoteOnEvent(tick=0, channel=4, data=[46, 100]),
   midi.NoteOnEvent(tick=0, channel=4, data=[53, 100]),
   midi.NoteOnEvent(tick=0, channel=4, data=[58, 100]),
   midi.NoteOnEvent(tick=108, channel=4, data=[58, 0]),
   midi.NoteOnEvent(tick=0, channel=4, data=[53, 0]),
   midi.NoteOnEvent(tick=0, channel=4, data=[46, 0]),
   midi.NoteOnEvent(tick=0, channel=4, data=[45, 100]),
   midi.NoteOnEvent(tick=0, channel=4, data=[52, 100]),
   midi.NoteOnEvent(tick=0, channel=4, data=[57, 100]),
   midi.NoteOnEvent(tick=108, channel=4, data=[57, 0]),
   midi.NoteOnEvent(tick=0, channel=4, data=[52, 0]),
   midi.NoteOnEvent(tick=0, channel=4, data=[45, 0]),
   midi.NoteOnEvent(tick=0, channel=4, data=[40, 100]),
   midi.NoteOnEvent(tick=108, channel=4, data=[40, 0]),
   midi.NoteOnEvent(tick=0, channel=4, data=[47, 100]),
   midi.NoteOnEvent(tick=0, channel=4, data=[54, 100]),
   midi.NoteOnEvent(tick=0, channel=4, data=[59, 100]),
   midi.NoteOnEvent(tick=108, channel=4, data=[59, 0]),
   midi.NoteOnEvent(tick=0, channel=4, data=[54, 0]),
   midi.NoteOnEvent(tick=0, channel=4, data=[47, 0]),
   midi.NoteOnEvent(tick=0, channel=4, data=[46, 100]),
   midi.NoteOnEvent(tick=0, channel=4, data=[53, 100]),
   midi.NoteOnEvent(tick=0, channel=4, data=[58, 100]),
   midi.NoteOnEvent(tick=108, channel=4, data=[58, 0]),
   midi.NoteOnEvent(tick=0, channel=4, data=[53, 0]),
   midi.NoteOnEvent(tick=0, channel=4, data=[46, 0]),
   midi.NoteOnEvent(tick=0, channel=4, data=[45, 100]),
   midi.NoteOnEvent(tick=0, channel=4, data=[52, 100]),
   midi.NoteOnEvent(tick=0, channel=4, data=[57, 100]),
   midi.NoteOnEvent(tick=108, channel=4, data=[57, 0]),
   midi.NoteOnEvent(tick=0, channel=4, data=[52, 0]),
   midi.NoteOnEvent(tick=0, channel=4, data=[45, 0]),
   midi.NoteOnEvent(tick=0, channel=4, data=[40, 100]),
   midi.NoteOnEvent(tick=108, channel=4, data=[40, 0]),
   midi.NoteOnEvent(tick=0, channel=4, data=[47, 100]),
   midi.NoteOnEvent(tick=0, channel=4, data=[54, 100]),
   midi.NoteOnEvent(tick=0, channel=4, data=[59, 100]),
   midi.NoteOnEvent(tick=108, channel=4, data=[59, 0]),
   midi.NoteOnEvent(tick=0, channel=4, data=[54, 0]),
   midi.NoteOnEvent(tick=0, channel=4, data=[47, 0]),
   midi.NoteOnEvent(tick=0, channel=4, data=[46, 100]),
   midi.NoteOnEvent(tick=0, channel=4, data=[53, 100]),
   midi.NoteOnEvent(tick=0, channel=4, data=[58, 100]),
   midi.NoteOnEvent(tick=108, channel=4, data=[58, 0]),
   midi.NoteOnEvent(tick=0, channel=4, data=[53, 0]),
   midi.NoteOnEvent(tick=0, channel=4, data=[46, 0]),
   midi.NoteOnEvent(tick=0, channel=4, data=[45, 100]),
   midi.NoteOnEvent(tick=0, channel=4, data=[52, 100]),
   midi.NoteOnEvent(tick=0, channel=4, data=[57, 100]),
   midi.NoteOnEvent(tick=108, channel=4, data=[57, 0]),
   midi.NoteOnEvent(tick=0, channel=4, data=[52, 0]),
   midi.NoteOnEvent(tick=0, channel=4, data=[45, 0]),
   midi.NoteOnEvent(tick=0, channel=4, data=[40, 100]),
   midi.NoteOnEvent(tick=108, channel=4, data=[40, 0]),
   midi.NoteOnEvent(tick=0, channel=4, data=[40, 100]),
   midi.NoteOnEvent(tick=0, channel=4, data=[47, 100]),
   midi.NoteOnEvent(tick=0, channel=4, data=[52, 100]),
   midi.NoteOnEvent(tick=54, channel=4, data=[52, 0]),
   midi.NoteOnEvent(tick=0, channel=4, data=[47, 0]),
   midi.NoteOnEvent(tick=0, channel=4, data=[40, 0]),
   midi.NoteOnEvent(tick=0, channel=4, data=[40, 100]),
   midi.NoteOnEvent(tick=0, channel=4, data=[47, 100]),
   midi.NoteOnEvent(tick=0, channel=4, data=[52, 100]),
   midi.NoteOnEvent(tick=54, channel=4, data=[52, 0]),
   midi.NoteOnEvent(tick=0, channel=4, data=[47, 0]),
   midi.NoteOnEvent(tick=0, channel=4, data=[40, 0]),
   midi.NoteOnEvent(tick=0, channel=4, data=[40, 100]),
   midi.NoteOnEvent(tick=108, channel=4, data=[40, 0]),
   midi.NoteOnEvent(tick=0, channel=4, data=[52, 100]),
   midi.NoteOnEvent(tick=0, channel=4, data=[47, 100]),
   midi.NoteOnEvent(tick=0, channel=4, data=[40, 100]),
   midi.NoteOnEvent(tick=54, channel=4, data=[40, 0]),
   midi.NoteOnEvent(tick=0, channel=4, data=[47, 0]),
   midi.NoteOnEvent(tick=0, channel=4, data=[52, 0]),
   midi.NoteOnEvent(tick=0, channel=4, data=[47, 100]),
   midi.NoteOnEvent(tick=0, channel=4, data=[52, 100]),
   midi.NoteOnEvent(tick=0, channel=4, data=[40, 100]),
   midi.NoteOnEvent(tick=54, channel=4, data=[40, 0]),
   midi.NoteOnEvent(tick=0, channel=4, data=[52, 0]),
   midi.NoteOnEvent(tick=0, channel=4, data=[47, 0]),
   midi.NoteOnEvent(tick=0, channel=4, data=[40, 100]),
   midi.NoteOnEvent(tick=108, channel=4, data=[40, 0]),
   midi.NoteOnEvent(tick=0, channel=4, data=[59, 100]),
   midi.NoteOnEvent(tick=0, channel=4, data=[54, 100]),
   midi.NoteOnEvent(tick=0, channel=4, data=[47, 100]),
   midi.NoteOnEvent(tick=108, channel=4, data=[47, 0]),
   midi.NoteOnEvent(tick=0, channel=4, data=[54, 0]),
   midi.NoteOnEvent(tick=0, channel=4, data=[59, 0]),
   midi.NoteOnEvent(tick=0, channel=4, data=[46, 100]),
   midi.NoteOnEvent(tick=0, channel=4, data=[53, 100]),
   midi.NoteOnEvent(tick=0, channel=4, data=[58, 100]),
   midi.NoteOnEvent(tick=108, channel=4, data=[58, 0]),
   midi.NoteOnEvent(tick=0, channel=4, data=[53, 0]),
   midi.NoteOnEvent(tick=0, channel=4, data=[46, 0]),
   midi.NoteOnEvent(tick=0, channel=4, data=[45, 100]),
   midi.NoteOnEvent(tick=0, channel=4, data=[52, 100]),
   midi.NoteOnEvent(tick=0, channel=4, data=[57, 100]),
   midi.NoteOnEvent(tick=108, channel=4, data=[57, 0]),
   midi.NoteOnEvent(tick=0, channel=4, data=[52, 0]),
   midi.NoteOnEvent(tick=0, channel=4, data=[45, 0]),
   midi.NoteOnEvent(tick=0, channel=4, data=[52, 100]),
   midi.NoteOnEvent(tick=0, channel=4, data=[47, 100]),
   midi.NoteOnEvent(tick=0, channel=4, data=[40, 100]),
   midi.NoteOnEvent(tick=108, channel=4, data=[40, 0]),
   midi.NoteOnEvent(tick=0, channel=4, data=[47, 0]),
   midi.NoteOnEvent(tick=0, channel=4, data=[52, 0]),
   midi.NoteOnEvent(tick=0, channel=4, data=[47, 100]),
   midi.NoteOnEvent(tick=0, channel=4, data=[54, 100]),
   midi.NoteOnEvent(tick=0, channel=4, data=[59, 100]),
   midi.NoteOnEvent(tick=108, channel=4, data=[59, 0]),
   midi.NoteOnEvent(tick=0, channel=4, data=[54, 0]),
   midi.NoteOnEvent(tick=0, channel=4, data=[47, 0]),
   midi.NoteOnEvent(tick=108, channel=4, data=[46, 100]),
   midi.NoteOnEvent(tick=0, channel=4, data=[53, 100]),
   midi.NoteOnEvent(tick=0, channel=4, data=[58, 100]),
   midi.NoteOnEvent(tick=108, channel=4, data=[58, 0]),
   midi.NoteOnEvent(tick=0, channel=4, data=[53, 0]),
   midi.NoteOnEvent(tick=0, channel=4, data=[46, 0]),
   midi.NoteOnEvent(tick=108, channel=4, data=[45, 100]),
   midi.NoteOnEvent(tick=0, channel=4, data=[52, 100]),
   midi.NoteOnEvent(tick=0, channel=4, data=[57, 100]),
   midi.NoteOnEvent(tick=108, channel=4, data=[57, 0]),
   midi.NoteOnEvent(tick=0, channel=4, data=[52, 0]),
   midi.NoteOnEvent(tick=0, channel=4, data=[45, 0]),
   midi.NoteOnEvent(tick=108, channel=4, data=[43, 100]),
   midi.NoteOnEvent(tick=0, channel=4, data=[50, 100]),
   midi.NoteOnEvent(tick=0, channel=4, data=[55, 100]),
   midi.NoteOnEvent(tick=108, channel=4, data=[55, 0]),
   midi.NoteOnEvent(tick=0, channel=4, data=[50, 0]),
   midi.NoteOnEvent(tick=0, channel=4, data=[43, 0]),
   midi.NoteOnEvent(tick=0, channel=4, data=[40, 100]),
   midi.NoteOnEvent(tick=108, channel=4, data=[40, 0]),
   midi.NoteOnEvent(tick=0, channel=4, data=[40, 100]),
   midi.NoteOnEvent(tick=0, channel=4, data=[47, 100]),
   midi.NoteOnEvent(tick=0, channel=4, data=[52, 100]),
   midi.NoteOnEvent(tick=54, channel=4, data=[52, 0]),
   midi.NoteOnEvent(tick=0, channel=4, data=[47, 0]),
   midi.NoteOnEvent(tick=0, channel=4, data=[40, 0]),
   midi.NoteOnEvent(tick=0, channel=4, data=[40, 100]),
   midi.NoteOnEvent(tick=0, channel=4, data=[47, 100]),
   midi.NoteOnEvent(tick=0, channel=4, data=[52, 100]),
   midi.NoteOnEvent(tick=54, channel=4, data=[52, 0]),
   midi.NoteOnEvent(tick=0, channel=4, data=[47, 0]),
   midi.NoteOnEvent(tick=0, channel=4, data=[40, 0]),
   midi.NoteOnEvent(tick=0, channel=4, data=[40, 100]),
   midi.NoteOnEvent(tick=108, channel=4, data=[40, 0]),
   midi.NoteOnEvent(tick=0, channel=4, data=[52, 100]),
   midi.NoteOnEvent(tick=0, channel=4, data=[47, 100]),
   midi.NoteOnEvent(tick=0, channel=4, data=[40, 100]),
   midi.NoteOnEvent(tick=54, channel=4, data=[40, 0]),
   midi.NoteOnEvent(tick=0, channel=4, data=[47, 0]),
   midi.NoteOnEvent(tick=0, channel=4, data=[52, 0]),
   midi.NoteOnEvent(tick=0, channel=4, data=[47, 100]),
   midi.NoteOnEvent(tick=0, channel=4, data=[52, 100]),
   midi.NoteOnEvent(tick=0, channel=4, data=[40, 100]),
   midi.NoteOnEvent(tick=54, channel=4, data=[40, 0]),
   midi.NoteOnEvent(tick=0, channel=4, data=[52, 0]),
   midi.NoteOnEvent(tick=0, channel=4, data=[47, 0]),
   midi.NoteOnEvent(tick=0, channel=4, data=[40, 100]),
   midi.NoteOnEvent(tick=108, channel=4, data=[40, 0]),
   midi.NoteOnEvent(tick=0, channel=4, data=[59, 100]),
   midi.NoteOnEvent(tick=0, channel=4, data=[54, 100]),
   midi.NoteOnEvent(tick=0, channel=4, data=[47, 100]),
   midi.NoteOnEvent(tick=108, channel=4, data=[47, 0]),
   midi.NoteOnEvent(tick=0, channel=4, data=[54, 0]),
   midi.NoteOnEvent(tick=0, channel=4, data=[59, 0]),
   midi.NoteOnEvent(tick=0, channel=4, data=[46, 100]),
   midi.NoteOnEvent(tick=0, channel=4, data=[53, 100]),
   midi.NoteOnEvent(tick=0, channel=4, data=[58, 100]),
   midi.NoteOnEvent(tick=108, channel=4, data=[58, 0]),
   midi.NoteOnEvent(tick=0, channel=4, data=[53, 0]),
   midi.NoteOnEvent(tick=0, channel=4, data=[46, 0]),
   midi.NoteOnEvent(tick=0, channel=4, data=[45, 100]),
   midi.NoteOnEvent(tick=0, channel=4, data=[52, 100]),
   midi.NoteOnEvent(tick=0, channel=4, data=[57, 100]),
   midi.NoteOnEvent(tick=108, channel=4, data=[57, 0]),
   midi.NoteOnEvent(tick=0, channel=4, data=[52, 0]),
   midi.NoteOnEvent(tick=0, channel=4, data=[45, 0]),
   midi.NoteOnEvent(tick=0, channel=4, data=[40, 100]),
   midi.NoteOnEvent(tick=108, channel=4, data=[40, 0]),
   midi.NoteOnEvent(tick=0, channel=4, data=[47, 100]),
   midi.NoteOnEvent(tick=0, channel=4, data=[54, 100]),
   midi.NoteOnEvent(tick=0, channel=4, data=[59, 100]),
   midi.NoteOnEvent(tick=108, channel=4, data=[59, 0]),
   midi.NoteOnEvent(tick=0, channel=4, data=[54, 0]),
   midi.NoteOnEvent(tick=0, channel=4, data=[47, 0]),
   midi.NoteOnEvent(tick=0, channel=4, data=[46, 100]),
   midi.NoteOnEvent(tick=0, channel=4, data=[53, 100]),
   midi.NoteOnEvent(tick=0, channel=4, data=[58, 100]),
   midi.NoteOnEvent(tick=108, channel=4, data=[58, 0]),
   midi.NoteOnEvent(tick=0, channel=4, data=[53, 0]),
   midi.NoteOnEvent(tick=0, channel=4, data=[46, 0]),
   midi.NoteOnEvent(tick=0, channel=4, data=[45, 100]),
   midi.NoteOnEvent(tick=0, channel=4, data=[52, 100]),
   midi.NoteOnEvent(tick=0, channel=4, data=[57, 100]),
   midi.NoteOnEvent(tick=108, channel=4, data=[57, 0]),
   midi.NoteOnEvent(tick=0, channel=4, data=[52, 0]),
   midi.NoteOnEvent(tick=0, channel=4, data=[45, 0]),
   midi.NoteOnEvent(tick=0, channel=4, data=[40, 100]),
   midi.NoteOnEvent(tick=108, channel=4, data=[40, 0]),
   midi.NoteOnEvent(tick=0, channel=4, data=[47, 100]),
   midi.NoteOnEvent(tick=0, channel=4, data=[54, 100]),
   midi.NoteOnEvent(tick=0, channel=4, data=[59, 100]),
   midi.NoteOnEvent(tick=108, channel=4, data=[59, 0]),
   midi.NoteOnEvent(tick=0, channel=4, data=[54, 0]),
   midi.NoteOnEvent(tick=0, channel=4, data=[47, 0]),
   midi.NoteOnEvent(tick=0, channel=4, data=[46, 100]),
   midi.NoteOnEvent(tick=0, channel=4, data=[53, 100]),
   midi.NoteOnEvent(tick=0, channel=4, data=[58, 100]),
   midi.NoteOnEvent(tick=108, channel=4, data=[58, 0]),
   midi.NoteOnEvent(tick=0, channel=4, data=[53, 0]),
   midi.NoteOnEvent(tick=0, channel=4, data=[46, 0]),
   midi.NoteOnEvent(tick=0, channel=4, data=[45, 100]),
   midi.NoteOnEvent(tick=0, channel=4, data=[52, 100]),
   midi.NoteOnEvent(tick=0, channel=4, data=[57, 100]),
   midi.NoteOnEvent(tick=108, channel=4, data=[57, 0]),
   midi.NoteOnEvent(tick=0, channel=4, data=[52, 0]),
   midi.NoteOnEvent(tick=0, channel=4, data=[45, 0]),
   midi.NoteOnEvent(tick=0, channel=4, data=[40, 100]),
   midi.NoteOnEvent(tick=108, channel=4, data=[40, 0]),
   midi.NoteOnEvent(tick=0, channel=4, data=[40, 100]),
   midi.NoteOnEvent(tick=0, channel=4, data=[47, 100]),
   midi.NoteOnEvent(tick=0, channel=4, data=[52, 100]),
   midi.NoteOnEvent(tick=54, channel=4, data=[52, 0]),
   midi.NoteOnEvent(tick=0, channel=4, data=[47, 0]),
   midi.NoteOnEvent(tick=0, channel=4, data=[40, 0]),
   midi.NoteOnEvent(tick=0, channel=4, data=[40, 100]),
   midi.NoteOnEvent(tick=0, channel=4, data=[47, 100]),
   midi.NoteOnEvent(tick=0, channel=4, data=[52, 100]),
   midi.NoteOnEvent(tick=54, channel=4, data=[52, 0]),
   midi.NoteOnEvent(tick=0, channel=4, data=[47, 0]),
   midi.NoteOnEvent(tick=0, channel=4, data=[40, 0]),
   midi.NoteOnEvent(tick=0, channel=4, data=[40, 100]),
   midi.NoteOnEvent(tick=108, channel=4, data=[40, 0]),
   midi.NoteOnEvent(tick=0, channel=4, data=[52, 100]),
   midi.NoteOnEvent(tick=0, channel=4, data=[47, 100]),
   midi.NoteOnEvent(tick=0, channel=4, data=[40, 100]),
   midi.NoteOnEvent(tick=54, channel=4, data=[40, 0]),
   midi.NoteOnEvent(tick=0, channel=4, data=[47, 0]),
   midi.NoteOnEvent(tick=0, channel=4, data=[52, 0]),
   midi.NoteOnEvent(tick=0, channel=4, data=[47, 100]),
   midi.NoteOnEvent(tick=0, channel=4, data=[52, 100]),
   midi.NoteOnEvent(tick=0, channel=4, data=[40, 100]),
   midi.NoteOnEvent(tick=54, channel=4, data=[40, 0]),
   midi.NoteOnEvent(tick=0, channel=4, data=[52, 0]),
   midi.NoteOnEvent(tick=0, channel=4, data=[47, 0]),
   midi.NoteOnEvent(tick=0, channel=4, data=[40, 100]),
   midi.NoteOnEvent(tick=108, channel=4, data=[40, 0]),
   midi.NoteOnEvent(tick=0, channel=4, data=[59, 100]),
   midi.NoteOnEvent(tick=0, channel=4, data=[54, 100]),
   midi.NoteOnEvent(tick=0, channel=4, data=[47, 100]),
   midi.NoteOnEvent(tick=108, channel=4, data=[47, 0]),
   midi.NoteOnEvent(tick=0, channel=4, data=[54, 0]),
   midi.NoteOnEvent(tick=0, channel=4, data=[59, 0]),
   midi.NoteOnEvent(tick=0, channel=4, data=[46, 100]),
   midi.NoteOnEvent(tick=0, channel=4, data=[53, 100]),
   midi.NoteOnEvent(tick=0, channel=4, data=[58, 100]),
   midi.NoteOnEvent(tick=108, channel=4, data=[58, 0]),
   midi.NoteOnEvent(tick=0, channel=4, data=[53, 0]),
   midi.NoteOnEvent(tick=0, channel=4, data=[46, 0]),
   midi.NoteOnEvent(tick=0, channel=4, data=[45, 100]),
   midi.NoteOnEvent(tick=0, channel=4, data=[52, 100]),
   midi.NoteOnEvent(tick=0, channel=4, data=[57, 100]),
   midi.NoteOnEvent(tick=108, channel=4, data=[57, 0]),
   midi.NoteOnEvent(tick=0, channel=4, data=[52, 0]),
   midi.NoteOnEvent(tick=0, channel=4, data=[45, 0]),
   midi.NoteOnEvent(tick=0, channel=4, data=[46, 100]),
   midi.NoteOnEvent(tick=0, channel=4, data=[53, 100]),
   midi.NoteOnEvent(tick=0, channel=4, data=[58, 100]),
   midi.NoteOnEvent(tick=108, channel=4, data=[58, 0]),
   midi.NoteOnEvent(tick=0, channel=4, data=[53, 0]),
   midi.NoteOnEvent(tick=0, channel=4, data=[46, 0]),
   midi.NoteOnEvent(tick=0, channel=4, data=[45, 100]),
   midi.NoteOnEvent(tick=0, channel=4, data=[52, 100]),
   midi.NoteOnEvent(tick=0, channel=4, data=[57, 100]),
   midi.NoteOnEvent(tick=108, channel=4, data=[57, 0]),
   midi.NoteOnEvent(tick=0, channel=4, data=[52, 0]),
   midi.NoteOnEvent(tick=0, channel=4, data=[45, 0]),
   midi.NoteOnEvent(tick=108, channel=4, data=[45, 100]),
   midi.NoteOnEvent(tick=0, channel=4, data=[52, 100]),
   midi.NoteOnEvent(tick=0, channel=4, data=[57, 100]),
   midi.NoteOnEvent(tick=108, channel=4, data=[57, 0]),
   midi.NoteOnEvent(tick=0, channel=4, data=[52, 0]),
   midi.NoteOnEvent(tick=0, channel=4, data=[45, 0]),
   midi.NoteOnEvent(tick=108, channel=4, data=[45, 100]),
   midi.NoteOnEvent(tick=0, channel=4, data=[52, 100]),
   midi.NoteOnEvent(tick=0, channel=4, data=[57, 100]),
   midi.NoteOnEvent(tick=108, channel=4, data=[57, 0]),
   midi.NoteOnEvent(tick=0, channel=4, data=[52, 0]),
   midi.NoteOnEvent(tick=0, channel=4, data=[45, 0]),
   midi.NoteOnEvent(tick=108, channel=4, data=[45, 100]),
   midi.NoteOnEvent(tick=0, channel=4, data=[52, 100]),
   midi.NoteOnEvent(tick=0, channel=4, data=[57, 100]),
   midi.NoteOnEvent(tick=108, channel=4, data=[57, 0]),
   midi.NoteOnEvent(tick=0, channel=4, data=[52, 0]),
   midi.NoteOnEvent(tick=0, channel=4, data=[45, 0]),
   midi.NoteOnEvent(tick=0, channel=4, data=[40, 100]),
   midi.NoteOnEvent(tick=108, channel=4, data=[40, 0]),
   midi.NoteOnEvent(tick=0, channel=4, data=[40, 100]),
   midi.NoteOnEvent(tick=0, channel=4, data=[47, 100]),
   midi.NoteOnEvent(tick=0, channel=4, data=[52, 100]),
   midi.NoteOnEvent(tick=54, channel=4, data=[52, 0]),
   midi.NoteOnEvent(tick=0, channel=4, data=[47, 0]),
   midi.NoteOnEvent(tick=0, channel=4, data=[40, 0]),
   midi.NoteOnEvent(tick=0, channel=4, data=[40, 100]),
   midi.NoteOnEvent(tick=0, channel=4, data=[47, 100]),
   midi.NoteOnEvent(tick=0, channel=4, data=[52, 100]),
   midi.NoteOnEvent(tick=54, channel=4, data=[52, 0]),
   midi.NoteOnEvent(tick=0, channel=4, data=[47, 0]),
   midi.NoteOnEvent(tick=0, channel=4, data=[40, 0]),
   midi.NoteOnEvent(tick=0, channel=4, data=[40, 100]),
   midi.NoteOnEvent(tick=108, channel=4, data=[40, 0]),
   midi.NoteOnEvent(tick=0, channel=4, data=[52, 100]),
   midi.NoteOnEvent(tick=0, channel=4, data=[47, 100]),
   midi.NoteOnEvent(tick=0, channel=4, data=[40, 100]),
   midi.NoteOnEvent(tick=54, channel=4, data=[40, 0]),
   midi.NoteOnEvent(tick=0, channel=4, data=[47, 0]),
   midi.NoteOnEvent(tick=0, channel=4, data=[52, 0]),
   midi.NoteOnEvent(tick=0, channel=4, data=[47, 100]),
   midi.NoteOnEvent(tick=0, channel=4, data=[52, 100]),
   midi.NoteOnEvent(tick=0, channel=4, data=[40, 100]),
   midi.NoteOnEvent(tick=54, channel=4, data=[40, 0]),
   midi.NoteOnEvent(tick=0, channel=4, data=[52, 0]),
   midi.NoteOnEvent(tick=0, channel=4, data=[47, 0]),
   midi.NoteOnEvent(tick=0, channel=4, data=[40, 100]),
   midi.NoteOnEvent(tick=108, channel=4, data=[40, 0]),
   midi.NoteOnEvent(tick=0, channel=4, data=[59, 100]),
   midi.NoteOnEvent(tick=0, channel=4, data=[54, 100]),
   midi.NoteOnEvent(tick=0, channel=4, data=[47, 100]),
   midi.NoteOnEvent(tick=108, channel=4, data=[47, 0]),
   midi.NoteOnEvent(tick=0, channel=4, data=[54, 0]),
   midi.NoteOnEvent(tick=0, channel=4, data=[59, 0]),
   midi.NoteOnEvent(tick=0, channel=4, data=[46, 100]),
   midi.NoteOnEvent(tick=0, channel=4, data=[53, 100]),
   midi.NoteOnEvent(tick=0, channel=4, data=[58, 100]),
   midi.NoteOnEvent(tick=108, channel=4, data=[58, 0]),
   midi.NoteOnEvent(tick=0, channel=4, data=[53, 0]),
   midi.NoteOnEvent(tick=0, channel=4, data=[46, 0]),
   midi.NoteOnEvent(tick=0, channel=4, data=[45, 100]),
   midi.NoteOnEvent(tick=0, channel=4, data=[52, 100]),
   midi.NoteOnEvent(tick=0, channel=4, data=[57, 100]),
   midi.NoteOnEvent(tick=108, channel=4, data=[57, 0]),
   midi.NoteOnEvent(tick=0, channel=4, data=[52, 0]),
   midi.NoteOnEvent(tick=0, channel=4, data=[45, 0]),
   midi.NoteOnEvent(tick=0, channel=4, data=[40, 100]),
   midi.NoteOnEvent(tick=108, channel=4, data=[40, 0]),
   midi.NoteOnEvent(tick=0, channel=4, data=[47, 100]),
   midi.NoteOnEvent(tick=0, channel=4, data=[54, 100]),
   midi.NoteOnEvent(tick=0, channel=4, data=[59, 100]),
   midi.NoteOnEvent(tick=108, channel=4, data=[59, 0]),
   midi.NoteOnEvent(tick=0, channel=4, data=[54, 0]),
   midi.NoteOnEvent(tick=0, channel=4, data=[47, 0]),
   midi.NoteOnEvent(tick=0, channel=4, data=[46, 100]),
   midi.NoteOnEvent(tick=0, channel=4, data=[53, 100]),
   midi.NoteOnEvent(tick=0, channel=4, data=[58, 100]),
   midi.NoteOnEvent(tick=108, channel=4, data=[58, 0]),
   midi.NoteOnEvent(tick=0, channel=4, data=[53, 0]),
   midi.NoteOnEvent(tick=0, channel=4, data=[46, 0]),
   midi.NoteOnEvent(tick=0, channel=4, data=[45, 100]),
   midi.NoteOnEvent(tick=0, channel=4, data=[52, 100]),
   midi.NoteOnEvent(tick=0, channel=4, data=[57, 100]),
   midi.NoteOnEvent(tick=108, channel=4, data=[57, 0]),
   midi.NoteOnEvent(tick=0, channel=4, data=[52, 0]),
   midi.NoteOnEvent(tick=0, channel=4, data=[45, 0]),
   midi.NoteOnEvent(tick=0, channel=4, data=[40, 100]),
   midi.NoteOnEvent(tick=108, channel=4, data=[40, 0]),
   midi.NoteOnEvent(tick=0, channel=4, data=[47, 100]),
   midi.NoteOnEvent(tick=0, channel=4, data=[54, 100]),
   midi.NoteOnEvent(tick=0, channel=4, data=[59, 100]),
   midi.NoteOnEvent(tick=108, channel=4, data=[59, 0]),
   midi.NoteOnEvent(tick=0, channel=4, data=[54, 0]),
   midi.NoteOnEvent(tick=0, channel=4, data=[47, 0]),
   midi.NoteOnEvent(tick=0, channel=4, data=[46, 100]),
   midi.NoteOnEvent(tick=0, channel=4, data=[53, 100]),
   midi.NoteOnEvent(tick=0, channel=4, data=[58, 100]),
   midi.NoteOnEvent(tick=108, channel=4, data=[58, 0]),
   midi.NoteOnEvent(tick=0, channel=4, data=[53, 0]),
   midi.NoteOnEvent(tick=0, channel=4, data=[46, 0]),
   midi.NoteOnEvent(tick=0, channel=4, data=[45, 100]),
   midi.NoteOnEvent(tick=0, channel=4, data=[52, 100]),
   midi.NoteOnEvent(tick=0, channel=4, data=[57, 100]),
   midi.NoteOnEvent(tick=108, channel=4, data=[57, 0]),
   midi.NoteOnEvent(tick=0, channel=4, data=[52, 0]),
   midi.NoteOnEvent(tick=0, channel=4, data=[45, 0]),
   midi.NoteOnEvent(tick=0, channel=4, data=[40, 100]),
   midi.NoteOnEvent(tick=108, channel=4, data=[40, 0]),
   midi.NoteOnEvent(tick=0, channel=4, data=[40, 100]),
   midi.NoteOnEvent(tick=0, channel=4, data=[47, 100]),
   midi.NoteOnEvent(tick=0, channel=4, data=[52, 100]),
   midi.NoteOnEvent(tick=54, channel=4, data=[52, 0]),
   midi.NoteOnEvent(tick=0, channel=4, data=[47, 0]),
   midi.NoteOnEvent(tick=0, channel=4, data=[40, 0]),
   midi.NoteOnEvent(tick=0, channel=4, data=[40, 100]),
   midi.NoteOnEvent(tick=0, channel=4, data=[47, 100]),
   midi.NoteOnEvent(tick=0, channel=4, data=[52, 100]),
   midi.NoteOnEvent(tick=54, channel=4, data=[52, 0]),
   midi.NoteOnEvent(tick=0, channel=4, data=[47, 0]),
   midi.NoteOnEvent(tick=0, channel=4, data=[40, 0]),
   midi.NoteOnEvent(tick=0, channel=4, data=[40, 100]),
   midi.NoteOnEvent(tick=108, channel=4, data=[40, 0]),
   midi.NoteOnEvent(tick=0, channel=4, data=[52, 100]),
   midi.NoteOnEvent(tick=0, channel=4, data=[47, 100]),
   midi.NoteOnEvent(tick=0, channel=4, data=[40, 100]),
   midi.NoteOnEvent(tick=54, channel=4, data=[40, 0]),
   midi.NoteOnEvent(tick=0, channel=4, data=[47, 0]),
   midi.NoteOnEvent(tick=0, channel=4, data=[52, 0]),
   midi.NoteOnEvent(tick=0, channel=4, data=[47, 100]),
   midi.NoteOnEvent(tick=0, channel=4, data=[52, 100]),
   midi.NoteOnEvent(tick=0, channel=4, data=[40, 100]),
   midi.NoteOnEvent(tick=54, channel=4, data=[40, 0]),
   midi.NoteOnEvent(tick=0, channel=4, data=[52, 0]),
   midi.NoteOnEvent(tick=0, channel=4, data=[47, 0]),
   midi.NoteOnEvent(tick=0, channel=4, data=[40, 100]),
   midi.NoteOnEvent(tick=108, channel=4, data=[40, 0]),
   midi.NoteOnEvent(tick=0, channel=4, data=[59, 100]),
   midi.NoteOnEvent(tick=0, channel=4, data=[54, 100]),
   midi.NoteOnEvent(tick=0, channel=4, data=[47, 100]),
   midi.NoteOnEvent(tick=108, channel=4, data=[47, 0]),
   midi.NoteOnEvent(tick=0, channel=4, data=[54, 0]),
   midi.NoteOnEvent(tick=0, channel=4, data=[59, 0]),
   midi.NoteOnEvent(tick=0, channel=4, data=[46, 100]),
   midi.NoteOnEvent(tick=0, channel=4, data=[53, 100]),
   midi.NoteOnEvent(tick=0, channel=4, data=[58, 100]),
   midi.NoteOnEvent(tick=108, channel=4, data=[58, 0]),
   midi.NoteOnEvent(tick=0, channel=4, data=[53, 0]),
   midi.NoteOnEvent(tick=0, channel=4, data=[46, 0]),
   midi.NoteOnEvent(tick=0, channel=4, data=[45, 100]),
   midi.NoteOnEvent(tick=0, channel=4, data=[52, 100]),
   midi.NoteOnEvent(tick=0, channel=4, data=[57, 100]),
   midi.NoteOnEvent(tick=108, channel=4, data=[57, 0]),
   midi.NoteOnEvent(tick=0, channel=4, data=[52, 0]),
   midi.NoteOnEvent(tick=0, channel=4, data=[45, 0]),
   midi.NoteOnEvent(tick=0, channel=4, data=[52, 100]),
   midi.NoteOnEvent(tick=0, channel=4, data=[47, 100]),
   midi.NoteOnEvent(tick=0, channel=4, data=[40, 100]),
   midi.NoteOnEvent(tick=108, channel=4, data=[40, 0]),
   midi.NoteOnEvent(tick=0, channel=4, data=[47, 0]),
   midi.NoteOnEvent(tick=0, channel=4, data=[52, 0]),
   midi.NoteOnEvent(tick=0, channel=4, data=[47, 100]),
   midi.NoteOnEvent(tick=0, channel=4, data=[54, 100]),
   midi.NoteOnEvent(tick=0, channel=4, data=[59, 100]),
   midi.NoteOnEvent(tick=108, channel=4, data=[59, 0]),
   midi.NoteOnEvent(tick=0, channel=4, data=[54, 0]),
   midi.NoteOnEvent(tick=0, channel=4, data=[47, 0]),
   midi.NoteOnEvent(tick=0, channel=4, data=[46, 100]),
   midi.NoteOnEvent(tick=0, channel=4, data=[53, 100]),
   midi.NoteOnEvent(tick=0, channel=4, data=[58, 100]),
   midi.NoteOnEvent(tick=108, channel=4, data=[58, 0]),
   midi.NoteOnEvent(tick=0, channel=4, data=[53, 0]),
   midi.NoteOnEvent(tick=0, channel=4, data=[46, 0]),
   midi.NoteOnEvent(tick=0, channel=4, data=[45, 100]),
   midi.NoteOnEvent(tick=0, channel=4, data=[52, 100]),
   midi.NoteOnEvent(tick=0, channel=4, data=[57, 100]),
   midi.NoteOnEvent(tick=108, channel=4, data=[57, 0]),
   midi.NoteOnEvent(tick=0, channel=4, data=[52, 0]),
   midi.NoteOnEvent(tick=0, channel=4, data=[45, 0]),
   midi.NoteOnEvent(tick=108, channel=4, data=[43, 100]),
   midi.NoteOnEvent(tick=0, channel=4, data=[50, 100]),
   midi.NoteOnEvent(tick=0, channel=4, data=[55, 100]),
   midi.NoteOnEvent(tick=108, channel=4, data=[55, 0]),
   midi.NoteOnEvent(tick=0, channel=4, data=[50, 0]),
   midi.NoteOnEvent(tick=0, channel=4, data=[43, 0]),
   midi.NoteOnEvent(tick=108, channel=4, data=[41, 100]),
   midi.NoteOnEvent(tick=0, channel=4, data=[53, 100]),
   midi.NoteOnEvent(tick=0, channel=4, data=[45, 100]),
   midi.NoteOnEvent(tick=108, channel=4, data=[45, 0]),
   midi.NoteOnEvent(tick=0, channel=4, data=[53, 0]),
   midi.NoteOnEvent(tick=0, channel=4, data=[41, 0]),
   midi.NoteOnEvent(tick=0, channel=4, data=[40, 100]),
   midi.NoteOnEvent(tick=108, channel=4, data=[40, 0]),
   midi.NoteOnEvent(tick=0, channel=4, data=[40, 100]),
   midi.NoteOnEvent(tick=0, channel=4, data=[47, 100]),
   midi.NoteOnEvent(tick=0, channel=4, data=[52, 100]),
   midi.NoteOnEvent(tick=54, channel=4, data=[52, 0]),
   midi.NoteOnEvent(tick=0, channel=4, data=[47, 0]),
   midi.NoteOnEvent(tick=0, channel=4, data=[40, 0]),
   midi.NoteOnEvent(tick=0, channel=4, data=[40, 100]),
   midi.NoteOnEvent(tick=0, channel=4, data=[47, 100]),
   midi.NoteOnEvent(tick=0, channel=4, data=[52, 100]),
   midi.NoteOnEvent(tick=54, channel=4, data=[52, 0]),
   midi.NoteOnEvent(tick=0, channel=4, data=[47, 0]),
   midi.NoteOnEvent(tick=0, channel=4, data=[40, 0]),
   midi.NoteOnEvent(tick=0, channel=4, data=[40, 100]),
   midi.NoteOnEvent(tick=108, channel=4, data=[40, 0]),
   midi.NoteOnEvent(tick=0, channel=4, data=[52, 100]),
   midi.NoteOnEvent(tick=0, channel=4, data=[47, 100]),
   midi.NoteOnEvent(tick=0, channel=4, data=[40, 100]),
   midi.NoteOnEvent(tick=54, channel=4, data=[40, 0]),
   midi.NoteOnEvent(tick=0, channel=4, data=[47, 0]),
   midi.NoteOnEvent(tick=0, channel=4, data=[52, 0]),
   midi.NoteOnEvent(tick=0, channel=4, data=[47, 100]),
   midi.NoteOnEvent(tick=0, channel=4, data=[52, 100]),
   midi.NoteOnEvent(tick=0, channel=4, data=[40, 100]),
   midi.NoteOnEvent(tick=54, channel=4, data=[40, 0]),
   midi.NoteOnEvent(tick=0, channel=4, data=[52, 0]),
   midi.NoteOnEvent(tick=0, channel=4, data=[47, 0]),
   midi.NoteOnEvent(tick=0, channel=4, data=[40, 100]),
   midi.NoteOnEvent(tick=108, channel=4, data=[40, 0]),
   midi.NoteOnEvent(tick=0, channel=4, data=[59, 100]),
   midi.NoteOnEvent(tick=0, channel=4, data=[54, 100]),
   midi.NoteOnEvent(tick=0, channel=4, data=[47, 100]),
   midi.NoteOnEvent(tick=108, channel=4, data=[47, 0]),
   midi.NoteOnEvent(tick=0, channel=4, data=[54, 0]),
   midi.NoteOnEvent(tick=0, channel=4, data=[59, 0]),
   midi.NoteOnEvent(tick=0, channel=4, data=[46, 100]),
   midi.NoteOnEvent(tick=0, channel=4, data=[53, 100]),
   midi.NoteOnEvent(tick=0, channel=4, data=[58, 100]),
   midi.NoteOnEvent(tick=108, channel=4, data=[58, 0]),
   midi.NoteOnEvent(tick=0, channel=4, data=[53, 0]),
   midi.NoteOnEvent(tick=0, channel=4, data=[46, 0]),
   midi.NoteOnEvent(tick=0, channel=4, data=[45, 100]),
   midi.NoteOnEvent(tick=0, channel=4, data=[52, 100]),
   midi.NoteOnEvent(tick=0, channel=4, data=[57, 100]),
   midi.NoteOnEvent(tick=108, channel=4, data=[57, 0]),
   midi.NoteOnEvent(tick=0, channel=4, data=[52, 0]),
   midi.NoteOnEvent(tick=0, channel=4, data=[45, 0]),
   midi.NoteOnEvent(tick=0, channel=4, data=[40, 100]),
   midi.NoteOnEvent(tick=108, channel=4, data=[40, 0]),
   midi.NoteOnEvent(tick=0, channel=4, data=[47, 100]),
   midi.NoteOnEvent(tick=0, channel=4, data=[54, 100]),
   midi.NoteOnEvent(tick=0, channel=4, data=[59, 100]),
   midi.NoteOnEvent(tick=108, channel=4, data=[59, 0]),
   midi.NoteOnEvent(tick=0, channel=4, data=[54, 0]),
   midi.NoteOnEvent(tick=0, channel=4, data=[47, 0]),
   midi.NoteOnEvent(tick=0, channel=4, data=[46, 100]),
   midi.NoteOnEvent(tick=0, channel=4, data=[53, 100]),
   midi.NoteOnEvent(tick=0, channel=4, data=[58, 100]),
   midi.NoteOnEvent(tick=108, channel=4, data=[58, 0]),
   midi.NoteOnEvent(tick=0, channel=4, data=[53, 0]),
   midi.NoteOnEvent(tick=0, channel=4, data=[46, 0]),
   midi.NoteOnEvent(tick=0, channel=4, data=[45, 100]),
   midi.NoteOnEvent(tick=0, channel=4, data=[52, 100]),
   midi.NoteOnEvent(tick=0, channel=4, data=[57, 100]),
   midi.NoteOnEvent(tick=108, channel=4, data=[57, 0]),
   midi.NoteOnEvent(tick=0, channel=4, data=[52, 0]),
   midi.NoteOnEvent(tick=0, channel=4, data=[45, 0]),
   midi.NoteOnEvent(tick=0, channel=4, data=[40, 100]),
   midi.NoteOnEvent(tick=108, channel=4, data=[40, 0]),
   midi.NoteOnEvent(tick=0, channel=4, data=[47, 100]),
   midi.NoteOnEvent(tick=0, channel=4, data=[54, 100]),
   midi.NoteOnEvent(tick=0, channel=4, data=[59, 100]),
   midi.NoteOnEvent(tick=108, channel=4, data=[59, 0]),
   midi.NoteOnEvent(tick=0, channel=4, data=[54, 0]),
   midi.NoteOnEvent(tick=0, channel=4, data=[47, 0]),
   midi.NoteOnEvent(tick=0, channel=4, data=[46, 100]),
   midi.NoteOnEvent(tick=0, channel=4, data=[53, 100]),
   midi.NoteOnEvent(tick=0, channel=4, data=[58, 100]),
   midi.NoteOnEvent(tick=108, channel=4, data=[58, 0]),
   midi.NoteOnEvent(tick=0, channel=4, data=[53, 0]),
   midi.NoteOnEvent(tick=0, channel=4, data=[46, 0]),
   midi.NoteOnEvent(tick=0, channel=4, data=[45, 100]),
   midi.NoteOnEvent(tick=0, channel=4, data=[52, 100]),
   midi.NoteOnEvent(tick=0, channel=4, data=[57, 100]),
   midi.NoteOnEvent(tick=108, channel=4, data=[57, 0]),
   midi.NoteOnEvent(tick=0, channel=4, data=[52, 0]),
   midi.NoteOnEvent(tick=0, channel=4, data=[45, 0]),
   midi.NoteOnEvent(tick=0, channel=4, data=[40, 100]),
   midi.NoteOnEvent(tick=108, channel=4, data=[40, 0]),
   midi.NoteOnEvent(tick=0, channel=4, data=[40, 100]),
   midi.NoteOnEvent(tick=0, channel=4, data=[47, 100]),
   midi.NoteOnEvent(tick=0, channel=4, data=[52, 100]),
   midi.NoteOnEvent(tick=54, channel=4, data=[52, 0]),
   midi.NoteOnEvent(tick=0, channel=4, data=[47, 0]),
   midi.NoteOnEvent(tick=0, channel=4, data=[40, 0]),
   midi.NoteOnEvent(tick=0, channel=4, data=[40, 100]),
   midi.NoteOnEvent(tick=0, channel=4, data=[47, 100]),
   midi.NoteOnEvent(tick=0, channel=4, data=[52, 100]),
   midi.NoteOnEvent(tick=54, channel=4, data=[52, 0]),
   midi.NoteOnEvent(tick=0, channel=4, data=[47, 0]),
   midi.NoteOnEvent(tick=0, channel=4, data=[40, 0]),
   midi.NoteOnEvent(tick=0, channel=4, data=[40, 100]),
   midi.NoteOnEvent(tick=108, channel=4, data=[40, 0]),
   midi.NoteOnEvent(tick=0, channel=4, data=[52, 100]),
   midi.NoteOnEvent(tick=0, channel=4, data=[47, 100]),
   midi.NoteOnEvent(tick=0, channel=4, data=[40, 100]),
   midi.NoteOnEvent(tick=54, channel=4, data=[40, 0]),
   midi.NoteOnEvent(tick=0, channel=4, data=[47, 0]),
   midi.NoteOnEvent(tick=0, channel=4, data=[52, 0]),
   midi.NoteOnEvent(tick=0, channel=4, data=[47, 100]),
   midi.NoteOnEvent(tick=0, channel=4, data=[52, 100]),
   midi.NoteOnEvent(tick=0, channel=4, data=[40, 100]),
   midi.NoteOnEvent(tick=54, channel=4, data=[40, 0]),
   midi.NoteOnEvent(tick=0, channel=4, data=[52, 0]),
   midi.NoteOnEvent(tick=0, channel=4, data=[47, 0]),
   midi.NoteOnEvent(tick=0, channel=4, data=[40, 100]),
   midi.NoteOnEvent(tick=108, channel=4, data=[40, 0]),
   midi.NoteOnEvent(tick=0, channel=4, data=[59, 100]),
   midi.NoteOnEvent(tick=0, channel=4, data=[54, 100]),
   midi.NoteOnEvent(tick=0, channel=4, data=[47, 100]),
   midi.NoteOnEvent(tick=108, channel=4, data=[47, 0]),
   midi.NoteOnEvent(tick=0, channel=4, data=[54, 0]),
   midi.NoteOnEvent(tick=0, channel=4, data=[59, 0]),
   midi.NoteOnEvent(tick=0, channel=4, data=[46, 100]),
   midi.NoteOnEvent(tick=0, channel=4, data=[53, 100]),
   midi.NoteOnEvent(tick=0, channel=4, data=[58, 100]),
   midi.NoteOnEvent(tick=108, channel=4, data=[58, 0]),
   midi.NoteOnEvent(tick=0, channel=4, data=[53, 0]),
   midi.NoteOnEvent(tick=0, channel=4, data=[46, 0]),
   midi.NoteOnEvent(tick=0, channel=4, data=[45, 100]),
   midi.NoteOnEvent(tick=0, channel=4, data=[52, 100]),
   midi.NoteOnEvent(tick=0, channel=4, data=[57, 100]),
   midi.NoteOnEvent(tick=108, channel=4, data=[57, 0]),
   midi.NoteOnEvent(tick=0, channel=4, data=[52, 0]),
   midi.NoteOnEvent(tick=0, channel=4, data=[45, 0]),
   midi.NoteOnEvent(tick=0, channel=4, data=[46, 100]),
   midi.NoteOnEvent(tick=0, channel=4, data=[53, 100]),
   midi.NoteOnEvent(tick=0, channel=4, data=[58, 100]),
   midi.NoteOnEvent(tick=108, channel=4, data=[58, 0]),
   midi.NoteOnEvent(tick=0, channel=4, data=[53, 0]),
   midi.NoteOnEvent(tick=0, channel=4, data=[46, 0]),
   midi.NoteOnEvent(tick=0, channel=4, data=[45, 100]),
   midi.NoteOnEvent(tick=0, channel=4, data=[52, 100]),
   midi.NoteOnEvent(tick=0, channel=4, data=[57, 100]),
   midi.NoteOnEvent(tick=108, channel=4, data=[57, 0]),
   midi.NoteOnEvent(tick=0, channel=4, data=[52, 0]),
   midi.NoteOnEvent(tick=0, channel=4, data=[45, 0]),
   midi.NoteOnEvent(tick=108, channel=4, data=[45, 100]),
   midi.NoteOnEvent(tick=0, channel=4, data=[52, 100]),
   midi.NoteOnEvent(tick=0, channel=4, data=[57, 100]),
   midi.NoteOnEvent(tick=108, channel=4, data=[57, 0]),
   midi.NoteOnEvent(tick=0, channel=4, data=[52, 0]),
   midi.NoteOnEvent(tick=0, channel=4, data=[45, 0]),
   midi.NoteOnEvent(tick=108, channel=4, data=[45, 100]),
   midi.NoteOnEvent(tick=0, channel=4, data=[52, 100]),
   midi.NoteOnEvent(tick=0, channel=4, data=[57, 100]),
   midi.NoteOnEvent(tick=108, channel=4, data=[57, 0]),
   midi.NoteOnEvent(tick=0, channel=4, data=[52, 0]),
   midi.NoteOnEvent(tick=0, channel=4, data=[45, 0]),
   midi.NoteOnEvent(tick=108, channel=4, data=[45, 100]),
   midi.NoteOnEvent(tick=0, channel=4, data=[52, 100]),
   midi.NoteOnEvent(tick=0, channel=4, data=[57, 100]),
   midi.NoteOnEvent(tick=108, channel=4, data=[57, 0]),
   midi.NoteOnEvent(tick=0, channel=4, data=[52, 0]),
   midi.NoteOnEvent(tick=0, channel=4, data=[45, 0]),
   midi.NoteOnEvent(tick=0, channel=4, data=[52, 100]),
   midi.NoteOnEvent(tick=0, channel=4, data=[47, 100]),
   midi.NoteOnEvent(tick=0, channel=4, data=[40, 100]),
   midi.NoteOnEvent(tick=860, channel=4, data=[40, 0]),
   midi.NoteOnEvent(tick=0, channel=4, data=[47, 0]),
   midi.NoteOnEvent(tick=0, channel=4, data=[52, 0]),
   midi.NoteOnEvent(tick=4, channel=4, data=[43, 100]),
   midi.NoteOnEvent(tick=0, channel=4, data=[50, 100]),
   midi.NoteOnEvent(tick=0, channel=4, data=[55, 100]),
   midi.NoteOnEvent(tick=864, channel=4, data=[55, 0]),
   midi.NoteOnEvent(tick=0, channel=4, data=[50, 0]),
   midi.NoteOnEvent(tick=0, channel=4, data=[43, 0]),
   midi.NoteOnEvent(tick=0, channel=4, data=[45, 100]),
   midi.NoteOnEvent(tick=0, channel=4, data=[52, 100]),
   midi.NoteOnEvent(tick=0, channel=4, data=[57, 100]),
   midi.NoteOnEvent(tick=864, channel=4, data=[57, 0]),
   midi.NoteOnEvent(tick=0, channel=4, data=[52, 0]),
   midi.NoteOnEvent(tick=0, channel=4, data=[45, 0]),
   midi.NoteOnEvent(tick=0, channel=4, data=[49, 100]),
   midi.NoteOnEvent(tick=0, channel=4, data=[42, 100]),
   midi.NoteOnEvent(tick=0, channel=4, data=[54, 100]),
   midi.NoteOnEvent(tick=864, channel=4, data=[54, 0]),
   midi.NoteOnEvent(tick=0, channel=4, data=[42, 0]),
   midi.NoteOnEvent(tick=0, channel=4, data=[49, 0]),
   midi.NoteOnEvent(tick=0, channel=4, data=[52, 100]),
   midi.NoteOnEvent(tick=0, channel=4, data=[47, 100]),
   midi.NoteOnEvent(tick=0, channel=4, data=[40, 100]),
   midi.NoteOnEvent(tick=860, channel=4, data=[40, 0]),
   midi.NoteOnEvent(tick=0, channel=4, data=[47, 0]),
   midi.NoteOnEvent(tick=0, channel=4, data=[52, 0]),
   midi.NoteOnEvent(tick=4, channel=4, data=[43, 100]),
   midi.NoteOnEvent(tick=0, channel=4, data=[50, 100]),
   midi.NoteOnEvent(tick=0, channel=4, data=[55, 100]),
   midi.NoteOnEvent(tick=864, channel=4, data=[55, 0]),
   midi.NoteOnEvent(tick=0, channel=4, data=[50, 0]),
   midi.NoteOnEvent(tick=0, channel=4, data=[43, 0]),
   midi.NoteOnEvent(tick=0, channel=4, data=[45, 100]),
   midi.NoteOnEvent(tick=0, channel=4, data=[52, 100]),
   midi.NoteOnEvent(tick=0, channel=4, data=[57, 100]),
   midi.NoteOnEvent(tick=212, channel=4, data=[57, 0]),
   midi.NoteOnEvent(tick=0, channel=4, data=[52, 0]),
   midi.NoteOnEvent(tick=0, channel=4, data=[45, 0]),
   midi.NoteOnEvent(tick=1300, channel=4, data=[49, 100]),
   midi.NoteOnEvent(tick=0, channel=4, data=[42, 100]),
   midi.NoteOnEvent(tick=0, channel=4, data=[54, 100]),
   midi.NoteOnEvent(tick=216, channel=4, data=[54, 0]),
   midi.NoteOnEvent(tick=0, channel=4, data=[42, 0]),
   midi.NoteOnEvent(tick=0, channel=4, data=[49, 0]),
   midi.NoteOnEvent(tick=0, channel=4, data=[41, 100]),
   midi.NoteOnEvent(tick=0, channel=4, data=[53, 100]),
   midi.NoteOnEvent(tick=0, channel=4, data=[48, 100]),
   midi.NoteOnEvent(tick=108, channel=4, data=[48, 0]),
   midi.NoteOnEvent(tick=0, channel=4, data=[53, 0]),
   midi.NoteOnEvent(tick=0, channel=4, data=[41, 0]),
   midi.NoteOnEvent(tick=108, channel=4, data=[46, 100]),
   midi.NoteOnEvent(tick=0, channel=4, data=[53, 100]),
   midi.NoteOnEvent(tick=0, channel=4, data=[58, 100]),
   midi.NoteOnEvent(tick=108, channel=4, data=[58, 0]),
   midi.NoteOnEvent(tick=0, channel=4, data=[53, 0]),
   midi.NoteOnEvent(tick=0, channel=4, data=[46, 0]),
   midi.NoteOnEvent(tick=108, channel=4, data=[47, 100]),
   midi.NoteOnEvent(tick=0, channel=4, data=[54, 100]),
   midi.NoteOnEvent(tick=0, channel=4, data=[59, 100]),
   midi.NoteOnEvent(tick=108, channel=4, data=[59, 0]),
   midi.NoteOnEvent(tick=0, channel=4, data=[54, 0]),
   midi.NoteOnEvent(tick=0, channel=4, data=[47, 0]),
   midi.NoteOnEvent(tick=108, channel=4, data=[46, 100]),
   midi.NoteOnEvent(tick=0, channel=4, data=[53, 100]),
   midi.NoteOnEvent(tick=0, channel=4, data=[58, 100]),
   midi.NoteOnEvent(tick=108, channel=4, data=[58, 0]),
   midi.NoteOnEvent(tick=0, channel=4, data=[53, 0]),
   midi.NoteOnEvent(tick=0, channel=4, data=[46, 0]),
   midi.NoteOnEvent(tick=108, channel=4, data=[47, 100]),
   midi.NoteOnEvent(tick=0, channel=4, data=[54, 100]),
   midi.NoteOnEvent(tick=0, channel=4, data=[59, 100]),
   midi.NoteOnEvent(tick=108, channel=4, data=[59, 0]),
   midi.NoteOnEvent(tick=0, channel=4, data=[54, 0]),
   midi.NoteOnEvent(tick=0, channel=4, data=[47, 0]),
   midi.NoteOnEvent(tick=108, channel=4, data=[46, 100]),
   midi.NoteOnEvent(tick=0, channel=4, data=[53, 100]),
   midi.NoteOnEvent(tick=0, channel=4, data=[58, 100]),
   midi.NoteOnEvent(tick=108, channel=4, data=[58, 0]),
   midi.NoteOnEvent(tick=0, channel=4, data=[53, 0]),
   midi.NoteOnEvent(tick=0, channel=4, data=[46, 0]),
   midi.NoteOnEvent(tick=108, channel=4, data=[47, 100]),
   midi.NoteOnEvent(tick=0, channel=4, data=[54, 100]),
   midi.NoteOnEvent(tick=0, channel=4, data=[59, 100]),
   midi.NoteOnEvent(tick=108, channel=4, data=[59, 0]),
   midi.NoteOnEvent(tick=0, channel=4, data=[54, 0]),
   midi.NoteOnEvent(tick=0, channel=4, data=[47, 0]),
   midi.NoteOnEvent(tick=108, channel=4, data=[49, 100]),
   midi.NoteOnEvent(tick=0, channel=4, data=[42, 100]),
   midi.NoteOnEvent(tick=0, channel=4, data=[54, 100]),
   midi.NoteOnEvent(tick=216, channel=4, data=[54, 0]),
   midi.NoteOnEvent(tick=0, channel=4, data=[42, 0]),
   midi.NoteOnEvent(tick=0, channel=4, data=[49, 0]),
   midi.NoteOnEvent(tick=0, channel=4, data=[41, 100]),
   midi.NoteOnEvent(tick=0, channel=4, data=[53, 100]),
   midi.NoteOnEvent(tick=0, channel=4, data=[48, 100]),
   midi.NoteOnEvent(tick=108, channel=4, data=[48, 0]),
   midi.NoteOnEvent(tick=0, channel=4, data=[53, 0]),
   midi.NoteOnEvent(tick=0, channel=4, data=[41, 0]),
   midi.NoteOnEvent(tick=108, channel=4, data=[46, 100]),
   midi.NoteOnEvent(tick=0, channel=4, data=[53, 100]),
   midi.NoteOnEvent(tick=0, channel=4, data=[58, 100]),
   midi.NoteOnEvent(tick=108, channel=4, data=[58, 0]),
   midi.NoteOnEvent(tick=0, channel=4, data=[53, 0]),
   midi.NoteOnEvent(tick=0, channel=4, data=[46, 0]),
   midi.NoteOnEvent(tick=108, channel=4, data=[47, 100]),
   midi.NoteOnEvent(tick=0, channel=4, data=[54, 100]),
   midi.NoteOnEvent(tick=0, channel=4, data=[59, 100]),
   midi.NoteOnEvent(tick=108, channel=4, data=[59, 0]),
   midi.NoteOnEvent(tick=0, channel=4, data=[54, 0]),
   midi.NoteOnEvent(tick=0, channel=4, data=[47, 0]),
   midi.NoteOnEvent(tick=108, channel=4, data=[46, 100]),
   midi.NoteOnEvent(tick=0, channel=4, data=[53, 100]),
   midi.NoteOnEvent(tick=0, channel=4, data=[58, 100]),
   midi.NoteOnEvent(tick=108, channel=4, data=[58, 0]),
   midi.NoteOnEvent(tick=0, channel=4, data=[53, 0]),
   midi.NoteOnEvent(tick=0, channel=4, data=[46, 0]),
   midi.NoteOnEvent(tick=108, channel=4, data=[47, 100]),
   midi.NoteOnEvent(tick=0, channel=4, data=[54, 100]),
   midi.NoteOnEvent(tick=0, channel=4, data=[59, 100]),
   midi.NoteOnEvent(tick=108, channel=4, data=[59, 0]),
   midi.NoteOnEvent(tick=0, channel=4, data=[54, 0]),
   midi.NoteOnEvent(tick=0, channel=4, data=[47, 0]),
   midi.NoteOnEvent(tick=108, channel=4, data=[46, 100]),
   midi.NoteOnEvent(tick=0, channel=4, data=[53, 100]),
   midi.NoteOnEvent(tick=0, channel=4, data=[58, 100]),
   midi.NoteOnEvent(tick=108, channel=4, data=[58, 0]),
   midi.NoteOnEvent(tick=0, channel=4, data=[53, 0]),
   midi.NoteOnEvent(tick=0, channel=4, data=[46, 0]),
   midi.NoteOnEvent(tick=108, channel=4, data=[47, 100]),
   midi.NoteOnEvent(tick=0, channel=4, data=[54, 100]),
   midi.NoteOnEvent(tick=0, channel=4, data=[59, 100]),
   midi.NoteOnEvent(tick=108, channel=4, data=[59, 0]),
   midi.NoteOnEvent(tick=0, channel=4, data=[54, 0]),
   midi.NoteOnEvent(tick=0, channel=4, data=[47, 0]),
   midi.NoteOnEvent(tick=108, channel=4, data=[49, 100]),
   midi.NoteOnEvent(tick=0, channel=4, data=[42, 100]),
   midi.NoteOnEvent(tick=0, channel=4, data=[54, 100]),
   midi.NoteOnEvent(tick=216, channel=4, data=[54, 0]),
   midi.NoteOnEvent(tick=0, channel=4, data=[42, 0]),
   midi.NoteOnEvent(tick=0, channel=4, data=[49, 0]),
   midi.NoteOnEvent(tick=0, channel=4, data=[41, 100]),
   midi.NoteOnEvent(tick=0, channel=4, data=[53, 100]),
   midi.NoteOnEvent(tick=0, channel=4, data=[48, 100]),
   midi.NoteOnEvent(tick=108, channel=4, data=[48, 0]),
   midi.NoteOnEvent(tick=0, channel=4, data=[53, 0]),
   midi.NoteOnEvent(tick=0, channel=4, data=[41, 0]),
   midi.NoteOnEvent(tick=108, channel=4, data=[46, 100]),
   midi.NoteOnEvent(tick=0, channel=4, data=[53, 100]),
   midi.NoteOnEvent(tick=0, channel=4, data=[58, 100]),
   midi.NoteOnEvent(tick=108, channel=4, data=[58, 0]),
   midi.NoteOnEvent(tick=0, channel=4, data=[53, 0]),
   midi.NoteOnEvent(tick=0, channel=4, data=[46, 0]),
   midi.NoteOnEvent(tick=108, channel=4, data=[47, 100]),
   midi.NoteOnEvent(tick=0, channel=4, data=[54, 100]),
   midi.NoteOnEvent(tick=0, channel=4, data=[59, 100]),
   midi.NoteOnEvent(tick=108, channel=4, data=[59, 0]),
   midi.NoteOnEvent(tick=0, channel=4, data=[54, 0]),
   midi.NoteOnEvent(tick=0, channel=4, data=[47, 0]),
   midi.NoteOnEvent(tick=108, channel=4, data=[46, 100]),
   midi.NoteOnEvent(tick=0, channel=4, data=[53, 100]),
   midi.NoteOnEvent(tick=0, channel=4, data=[58, 100]),
   midi.NoteOnEvent(tick=108, channel=4, data=[58, 0]),
   midi.NoteOnEvent(tick=0, channel=4, data=[53, 0]),
   midi.NoteOnEvent(tick=0, channel=4, data=[46, 0]),
   midi.NoteOnEvent(tick=108, channel=4, data=[47, 100]),
   midi.NoteOnEvent(tick=0, channel=4, data=[54, 100]),
   midi.NoteOnEvent(tick=0, channel=4, data=[59, 100]),
   midi.NoteOnEvent(tick=108, channel=4, data=[59, 0]),
   midi.NoteOnEvent(tick=0, channel=4, data=[54, 0]),
   midi.NoteOnEvent(tick=0, channel=4, data=[47, 0]),
   midi.NoteOnEvent(tick=108, channel=4, data=[46, 100]),
   midi.NoteOnEvent(tick=0, channel=4, data=[53, 100]),
   midi.NoteOnEvent(tick=0, channel=4, data=[58, 100]),
   midi.NoteOnEvent(tick=108, channel=4, data=[58, 0]),
   midi.NoteOnEvent(tick=0, channel=4, data=[53, 0]),
   midi.NoteOnEvent(tick=0, channel=4, data=[46, 0]),
   midi.NoteOnEvent(tick=108, channel=4, data=[47, 100]),
   midi.NoteOnEvent(tick=0, channel=4, data=[54, 100]),
   midi.NoteOnEvent(tick=0, channel=4, data=[59, 100]),
   midi.NoteOnEvent(tick=108, channel=4, data=[59, 0]),
   midi.NoteOnEvent(tick=0, channel=4, data=[54, 0]),
   midi.NoteOnEvent(tick=0, channel=4, data=[47, 0]),
   midi.NoteOnEvent(tick=108, channel=4, data=[49, 100]),
   midi.NoteOnEvent(tick=0, channel=4, data=[42, 100]),
   midi.NoteOnEvent(tick=0, channel=4, data=[54, 100]),
   midi.NoteOnEvent(tick=216, channel=4, data=[54, 0]),
   midi.NoteOnEvent(tick=0, channel=4, data=[42, 0]),
   midi.NoteOnEvent(tick=0, channel=4, data=[49, 0]),
   midi.NoteOnEvent(tick=0, channel=4, data=[41, 100]),
   midi.NoteOnEvent(tick=0, channel=4, data=[53, 100]),
   midi.NoteOnEvent(tick=0, channel=4, data=[48, 100]),
   midi.NoteOnEvent(tick=108, channel=4, data=[48, 0]),
   midi.NoteOnEvent(tick=0, channel=4, data=[53, 0]),
   midi.NoteOnEvent(tick=0, channel=4, data=[41, 0]),
   midi.NoteOnEvent(tick=108, channel=4, data=[46, 100]),
   midi.NoteOnEvent(tick=0, channel=4, data=[53, 100]),
   midi.NoteOnEvent(tick=0, channel=4, data=[58, 100]),
   midi.NoteOnEvent(tick=108, channel=4, data=[58, 0]),
   midi.NoteOnEvent(tick=0, channel=4, data=[53, 0]),
   midi.NoteOnEvent(tick=0, channel=4, data=[46, 0]),
   midi.NoteOnEvent(tick=108, channel=4, data=[47, 100]),
   midi.NoteOnEvent(tick=0, channel=4, data=[54, 100]),
   midi.NoteOnEvent(tick=0, channel=4, data=[59, 100]),
   midi.NoteOnEvent(tick=108, channel=4, data=[59, 0]),
   midi.NoteOnEvent(tick=0, channel=4, data=[54, 0]),
   midi.NoteOnEvent(tick=0, channel=4, data=[47, 0]),
   midi.NoteOnEvent(tick=108, channel=4, data=[46, 100]),
   midi.NoteOnEvent(tick=0, channel=4, data=[53, 100]),
   midi.NoteOnEvent(tick=0, channel=4, data=[58, 100]),
   midi.NoteOnEvent(tick=108, channel=4, data=[58, 0]),
   midi.NoteOnEvent(tick=0, channel=4, data=[53, 0]),
   midi.NoteOnEvent(tick=0, channel=4, data=[46, 0]),
   midi.NoteOnEvent(tick=108, channel=4, data=[47, 100]),
   midi.NoteOnEvent(tick=0, channel=4, data=[54, 100]),
   midi.NoteOnEvent(tick=0, channel=4, data=[59, 100]),
   midi.NoteOnEvent(tick=108, channel=4, data=[59, 0]),
   midi.NoteOnEvent(tick=0, channel=4, data=[54, 0]),
   midi.NoteOnEvent(tick=0, channel=4, data=[47, 0]),
   midi.NoteOnEvent(tick=108, channel=4, data=[46, 100]),
   midi.NoteOnEvent(tick=0, channel=4, data=[53, 100]),
   midi.NoteOnEvent(tick=0, channel=4, data=[58, 100]),
   midi.NoteOnEvent(tick=108, channel=4, data=[58, 0]),
   midi.NoteOnEvent(tick=0, channel=4, data=[53, 0]),
   midi.NoteOnEvent(tick=0, channel=4, data=[46, 0]),
   midi.NoteOnEvent(tick=108, channel=4, data=[47, 100]),
   midi.NoteOnEvent(tick=0, channel=4, data=[54, 100]),
   midi.NoteOnEvent(tick=0, channel=4, data=[59, 100]),
   midi.NoteOnEvent(tick=108, channel=4, data=[59, 0]),
   midi.NoteOnEvent(tick=0, channel=4, data=[54, 0]),
   midi.NoteOnEvent(tick=0, channel=4, data=[47, 0]),
   midi.NoteOnEvent(tick=108, channel=4, data=[49, 100]),
   midi.NoteOnEvent(tick=0, channel=4, data=[42, 100]),
   midi.NoteOnEvent(tick=0, channel=4, data=[54, 100]),
   midi.NoteOnEvent(tick=216, channel=4, data=[54, 0]),
   midi.NoteOnEvent(tick=0, channel=4, data=[42, 0]),
   midi.NoteOnEvent(tick=0, channel=4, data=[49, 0]),
   midi.NoteOnEvent(tick=0, channel=4, data=[41, 100]),
   midi.NoteOnEvent(tick=0, channel=4, data=[53, 100]),
   midi.NoteOnEvent(tick=0, channel=4, data=[48, 100]),
   midi.NoteOnEvent(tick=216, channel=4, data=[48, 0]),
   midi.NoteOnEvent(tick=0, channel=4, data=[53, 0]),
   midi.NoteOnEvent(tick=0, channel=4, data=[41, 0]),
   midi.NoteOnEvent(tick=972, channel=4, data=[41, 100]),
   midi.NoteOnEvent(tick=0, channel=4, data=[53, 100]),
   midi.NoteOnEvent(tick=0, channel=4, data=[48, 100]),
   midi.NoteOnEvent(tick=108, channel=4, data=[48, 0]),
   midi.NoteOnEvent(tick=0, channel=4, data=[53, 0]),
   midi.NoteOnEvent(tick=0, channel=4, data=[41, 0]),
   midi.NoteOnEvent(tick=0, channel=4, data=[41, 100]),
   midi.NoteOnEvent(tick=0, channel=4, data=[53, 100]),
   midi.NoteOnEvent(tick=0, channel=4, data=[48, 100]),
   midi.NoteOnEvent(tick=108, channel=4, data=[48, 0]),
   midi.NoteOnEvent(tick=0, channel=4, data=[53, 0]),
   midi.NoteOnEvent(tick=0, channel=4, data=[41, 0]),
   midi.NoteOnEvent(tick=0, channel=4, data=[51, 100]),
   midi.NoteOnEvent(tick=0, channel=4, data=[54, 100]),
   midi.NoteOnEvent(tick=216, channel=4, data=[54, 0]),
   midi.NoteOnEvent(tick=0, channel=4, data=[51, 0]),
   midi.NoteOnEvent(tick=0, channel=4, data=[40, 100]),
   midi.NoteOnEvent(tick=108, channel=4, data=[40, 0]),
   midi.NoteOnEvent(tick=0, channel=4, data=[52, 100]),
   midi.NoteOnEvent(tick=0, channel=4, data=[47, 100]),
   midi.NoteOnEvent(tick=0, channel=4, data=[40, 100]),
   midi.NoteOnEvent(tick=54, channel=4, data=[40, 0]),
   midi.NoteOnEvent(tick=0, channel=4, data=[47, 0]),
   midi.NoteOnEvent(tick=0, channel=4, data=[52, 0]),
   midi.NoteOnEvent(tick=0, channel=4, data=[52, 100]),
   midi.NoteOnEvent(tick=0, channel=4, data=[47, 100]),
   midi.NoteOnEvent(tick=0, channel=4, data=[40, 100]),
   midi.NoteOnEvent(tick=54, channel=4, data=[40, 0]),
   midi.NoteOnEvent(tick=0, channel=4, data=[47, 0]),
   midi.NoteOnEvent(tick=0, channel=4, data=[52, 0]),
   midi.NoteOnEvent(tick=0, channel=4, data=[40, 100]),
   midi.NoteOnEvent(tick=108, channel=4, data=[40, 0]),
   midi.NoteOnEvent(tick=0, channel=4, data=[52, 100]),
   midi.NoteOnEvent(tick=0, channel=4, data=[47, 100]),
   midi.NoteOnEvent(tick=0, channel=4, data=[40, 100]),
   midi.NoteOnEvent(tick=54, channel=4, data=[40, 0]),
   midi.NoteOnEvent(tick=0, channel=4, data=[47, 0]),
   midi.NoteOnEvent(tick=0, channel=4, data=[52, 0]),
   midi.NoteOnEvent(tick=0, channel=4, data=[52, 100]),
   midi.NoteOnEvent(tick=0, channel=4, data=[47, 100]),
   midi.NoteOnEvent(tick=0, channel=4, data=[40, 100]),
   midi.NoteOnEvent(tick=54, channel=4, data=[40, 0]),
   midi.NoteOnEvent(tick=0, channel=4, data=[47, 0]),
   midi.NoteOnEvent(tick=0, channel=4, data=[52, 0]),
   midi.NoteOnEvent(tick=0, channel=4, data=[40, 100]),
   midi.NoteOnEvent(tick=108, channel=4, data=[40, 0]),
   midi.NoteOnEvent(tick=0, channel=4, data=[46, 100]),
   midi.NoteOnEvent(tick=0, channel=4, data=[53, 100]),
   midi.NoteOnEvent(tick=0, channel=4, data=[58, 100]),
   midi.NoteOnEvent(tick=108, channel=4, data=[58, 0]),
   midi.NoteOnEvent(tick=0, channel=4, data=[53, 0]),
   midi.NoteOnEvent(tick=0, channel=4, data=[46, 0]),
   midi.NoteOnEvent(tick=0, channel=4, data=[46, 100]),
   midi.NoteOnEvent(tick=0, channel=4, data=[53, 100]),
   midi.NoteOnEvent(tick=0, channel=4, data=[58, 100]),
   midi.NoteOnEvent(tick=108, channel=4, data=[58, 0]),
   midi.NoteOnEvent(tick=0, channel=4, data=[53, 0]),
   midi.NoteOnEvent(tick=0, channel=4, data=[46, 0]),
   midi.NoteOnEvent(tick=0, channel=4, data=[45, 100]),
   midi.NoteOnEvent(tick=0, channel=4, data=[52, 100]),
   midi.NoteOnEvent(tick=0, channel=4, data=[57, 100]),
   midi.NoteOnEvent(tick=108, channel=4, data=[57, 0]),
   midi.NoteOnEvent(tick=0, channel=4, data=[52, 0]),
   midi.NoteOnEvent(tick=0, channel=4, data=[45, 0]),
   midi.NoteOnEvent(tick=0, channel=4, data=[40, 100]),
   midi.NoteOnEvent(tick=108, channel=4, data=[40, 0]),
   midi.NoteOnEvent(tick=0, channel=4, data=[52, 100]),
   midi.NoteOnEvent(tick=0, channel=4, data=[47, 100]),
   midi.NoteOnEvent(tick=0, channel=4, data=[40, 100]),
   midi.NoteOnEvent(tick=54, channel=4, data=[40, 0]),
   midi.NoteOnEvent(tick=0, channel=4, data=[47, 0]),
   midi.NoteOnEvent(tick=0, channel=4, data=[52, 0]),
   midi.NoteOnEvent(tick=0, channel=4, data=[47, 100]),
   midi.NoteOnEvent(tick=0, channel=4, data=[52, 100]),
   midi.NoteOnEvent(tick=0, channel=4, data=[40, 100]),
   midi.NoteOnEvent(tick=54, channel=4, data=[40, 0]),
   midi.NoteOnEvent(tick=0, channel=4, data=[52, 0]),
   midi.NoteOnEvent(tick=0, channel=4, data=[47, 0]),
   midi.NoteOnEvent(tick=0, channel=4, data=[40, 100]),
   midi.NoteOnEvent(tick=108, channel=4, data=[40, 0]),
   midi.NoteOnEvent(tick=0, channel=4, data=[52, 100]),
   midi.NoteOnEvent(tick=0, channel=4, data=[47, 100]),
   midi.NoteOnEvent(tick=0, channel=4, data=[40, 100]),
   midi.NoteOnEvent(tick=54, channel=4, data=[40, 0]),
   midi.NoteOnEvent(tick=0, channel=4, data=[47, 0]),
   midi.NoteOnEvent(tick=0, channel=4, data=[52, 0]),
   midi.NoteOnEvent(tick=0, channel=4, data=[47, 100]),
   midi.NoteOnEvent(tick=0, channel=4, data=[52, 100]),
   midi.NoteOnEvent(tick=0, channel=4, data=[40, 100]),
   midi.NoteOnEvent(tick=54, channel=4, data=[40, 0]),
   midi.NoteOnEvent(tick=0, channel=4, data=[52, 0]),
   midi.NoteOnEvent(tick=0, channel=4, data=[47, 0]),
   midi.NoteOnEvent(tick=0, channel=4, data=[40, 100]),
   midi.NoteOnEvent(tick=108, channel=4, data=[40, 0]),
   midi.NoteOnEvent(tick=0, channel=4, data=[52, 100]),
   midi.NoteOnEvent(tick=0, channel=4, data=[55, 100]),
   midi.NoteOnEvent(tick=108, channel=4, data=[55, 0]),
   midi.NoteOnEvent(tick=0, channel=4, data=[52, 0]),
   midi.NoteOnEvent(tick=0, channel=4, data=[52, 100]),
   midi.NoteOnEvent(tick=0, channel=4, data=[55, 100]),
   midi.NoteOnEvent(tick=108, channel=4, data=[55, 0]),
   midi.NoteOnEvent(tick=0, channel=4, data=[52, 0]),
   midi.NoteOnEvent(tick=0, channel=4, data=[54, 100]),
   midi.NoteOnEvent(tick=0, channel=4, data=[51, 100]),
   midi.NoteOnEvent(tick=108, channel=4, data=[51, 0]),
   midi.NoteOnEvent(tick=0, channel=4, data=[54, 0]),
   midi.NoteOnEvent(tick=0, channel=4, data=[52, 100]),
   midi.NoteOnEvent(tick=0, channel=4, data=[55, 100]),
   midi.NoteOnEvent(tick=108, channel=4, data=[55, 0]),
   midi.NoteOnEvent(tick=0, channel=4, data=[52, 0]),
   midi.NoteOnEvent(tick=0, channel=4, data=[52, 100]),
   midi.NoteOnEvent(tick=0, channel=4, data=[47, 100]),
   midi.NoteOnEvent(tick=0, channel=4, data=[40, 100]),
   midi.NoteOnEvent(tick=54, channel=4, data=[40, 0]),
   midi.NoteOnEvent(tick=0, channel=4, data=[47, 0]),
   midi.NoteOnEvent(tick=0, channel=4, data=[52, 0]),
   midi.NoteOnEvent(tick=0, channel=4, data=[47, 100]),
   midi.NoteOnEvent(tick=0, channel=4, data=[52, 100]),
   midi.NoteOnEvent(tick=0, channel=4, data=[40, 100]),
   midi.NoteOnEvent(tick=54, channel=4, data=[40, 0]),
   midi.NoteOnEvent(tick=0, channel=4, data=[52, 0]),
   midi.NoteOnEvent(tick=0, channel=4, data=[47, 0]),
   midi.NoteOnEvent(tick=0, channel=4, data=[40, 100]),
   midi.NoteOnEvent(tick=108, channel=4, data=[40, 0]),
   midi.NoteOnEvent(tick=0, channel=4, data=[52, 100]),
   midi.NoteOnEvent(tick=0, channel=4, data=[47, 100]),
   midi.NoteOnEvent(tick=0, channel=4, data=[40, 100]),
   midi.NoteOnEvent(tick=54, channel=4, data=[40, 0]),
   midi.NoteOnEvent(tick=0, channel=4, data=[47, 0]),
   midi.NoteOnEvent(tick=0, channel=4, data=[52, 0]),
   midi.NoteOnEvent(tick=0, channel=4, data=[47, 100]),
   midi.NoteOnEvent(tick=0, channel=4, data=[52, 100]),
   midi.NoteOnEvent(tick=0, channel=4, data=[40, 100]),
   midi.NoteOnEvent(tick=54, channel=4, data=[40, 0]),
   midi.NoteOnEvent(tick=0, channel=4, data=[52, 0]),
   midi.NoteOnEvent(tick=0, channel=4, data=[47, 0]),
   midi.NoteOnEvent(tick=0, channel=4, data=[40, 100]),
   midi.NoteOnEvent(tick=108, channel=4, data=[40, 0]),
   midi.NoteOnEvent(tick=0, channel=4, data=[46, 100]),
   midi.NoteOnEvent(tick=0, channel=4, data=[53, 100]),
   midi.NoteOnEvent(tick=0, channel=4, data=[58, 100]),
   midi.NoteOnEvent(tick=108, channel=4, data=[58, 0]),
   midi.NoteOnEvent(tick=0, channel=4, data=[53, 0]),
   midi.NoteOnEvent(tick=0, channel=4, data=[46, 0]),
   midi.NoteOnEvent(tick=0, channel=4, data=[46, 100]),
   midi.NoteOnEvent(tick=0, channel=4, data=[53, 100]),
   midi.NoteOnEvent(tick=0, channel=4, data=[58, 100]),
   midi.NoteOnEvent(tick=108, channel=4, data=[58, 0]),
   midi.NoteOnEvent(tick=0, channel=4, data=[53, 0]),
   midi.NoteOnEvent(tick=0, channel=4, data=[46, 0]),
   midi.NoteOnEvent(tick=0, channel=4, data=[45, 100]),
   midi.NoteOnEvent(tick=0, channel=4, data=[52, 100]),
   midi.NoteOnEvent(tick=0, channel=4, data=[57, 100]),
   midi.NoteOnEvent(tick=108, channel=4, data=[57, 0]),
   midi.NoteOnEvent(tick=0, channel=4, data=[52, 0]),
   midi.NoteOnEvent(tick=0, channel=4, data=[45, 0]),
   midi.NoteOnEvent(tick=0, channel=4, data=[40, 100]),
   midi.NoteOnEvent(tick=108, channel=4, data=[40, 0]),
   midi.NoteOnEvent(tick=0, channel=4, data=[42, 100]),
   midi.NoteOnEvent(tick=0, channel=4, data=[49, 100]),
   midi.NoteOnEvent(tick=0, channel=4, data=[54, 100]),
   midi.NoteOnEvent(tick=216, channel=4, data=[54, 0]),
   midi.NoteOnEvent(tick=0, channel=4, data=[49, 0]),
   midi.NoteOnEvent(tick=0, channel=4, data=[42, 0]),
   midi.NoteOnEvent(tick=0, channel=4, data=[43, 100]),
   midi.NoteOnEvent(tick=0, channel=4, data=[50, 100]),
   midi.NoteOnEvent(tick=0, channel=4, data=[55, 100]),
   midi.NoteOnEvent(tick=108, channel=4, data=[55, 0]),
   midi.NoteOnEvent(tick=0, channel=4, data=[50, 0]),
   midi.NoteOnEvent(tick=0, channel=4, data=[43, 0]),
   midi.NoteOnEvent(tick=0, channel=4, data=[40, 100]),
   midi.NoteOnEvent(tick=108, channel=4, data=[40, 0]),
   midi.NoteOnEvent(tick=0, channel=4, data=[55, 100]),
   midi.NoteOnEvent(tick=0, channel=4, data=[50, 100]),
   midi.NoteOnEvent(tick=0, channel=4, data=[43, 100]),
   midi.NoteOnEvent(tick=216, channel=4, data=[43, 0]),
   midi.NoteOnEvent(tick=0, channel=4, data=[50, 0]),
   midi.NoteOnEvent(tick=0, channel=4, data=[55, 0]),
   midi.NoteOnEvent(tick=0, channel=4, data=[44, 100]),
   midi.NoteOnEvent(tick=0, channel=4, data=[51, 100]),
   midi.NoteOnEvent(tick=0, channel=4, data=[56, 100]),
   midi.NoteOnEvent(tick=108, channel=4, data=[56, 0]),
   midi.NoteOnEvent(tick=0, channel=4, data=[51, 0]),
   midi.NoteOnEvent(tick=0, channel=4, data=[44, 0]),
   midi.NoteOnEvent(tick=0, channel=4, data=[40, 100]),
   midi.NoteOnEvent(tick=108, channel=4, data=[40, 0]),
   midi.NoteOnEvent(tick=0, channel=4, data=[52, 100]),
   midi.NoteOnEvent(tick=0, channel=4, data=[47, 100]),
   midi.NoteOnEvent(tick=0, channel=4, data=[40, 100]),
   midi.NoteOnEvent(tick=54, channel=4, data=[40, 0]),
   midi.NoteOnEvent(tick=0, channel=4, data=[47, 0]),
   midi.NoteOnEvent(tick=0, channel=4, data=[52, 0]),
   midi.NoteOnEvent(tick=0, channel=4, data=[52, 100]),
   midi.NoteOnEvent(tick=0, channel=4, data=[47, 100]),
   midi.NoteOnEvent(tick=0, channel=4, data=[40, 100]),
   midi.NoteOnEvent(tick=54, channel=4, data=[40, 0]),
   midi.NoteOnEvent(tick=0, channel=4, data=[47, 0]),
   midi.NoteOnEvent(tick=0, channel=4, data=[52, 0]),
   midi.NoteOnEvent(tick=0, channel=4, data=[40, 100]),
   midi.NoteOnEvent(tick=108, channel=4, data=[40, 0]),
   midi.NoteOnEvent(tick=0, channel=4, data=[52, 100]),
   midi.NoteOnEvent(tick=0, channel=4, data=[47, 100]),
   midi.NoteOnEvent(tick=0, channel=4, data=[40, 100]),
   midi.NoteOnEvent(tick=54, channel=4, data=[40, 0]),
   midi.NoteOnEvent(tick=0, channel=4, data=[47, 0]),
   midi.NoteOnEvent(tick=0, channel=4, data=[52, 0]),
   midi.NoteOnEvent(tick=0, channel=4, data=[52, 100]),
   midi.NoteOnEvent(tick=0, channel=4, data=[47, 100]),
   midi.NoteOnEvent(tick=0, channel=4, data=[40, 100]),
   midi.NoteOnEvent(tick=54, channel=4, data=[40, 0]),
   midi.NoteOnEvent(tick=0, channel=4, data=[47, 0]),
   midi.NoteOnEvent(tick=0, channel=4, data=[52, 0]),
   midi.NoteOnEvent(tick=0, channel=4, data=[40, 100]),
   midi.NoteOnEvent(tick=108, channel=4, data=[40, 0]),
   midi.NoteOnEvent(tick=0, channel=4, data=[46, 100]),
   midi.NoteOnEvent(tick=0, channel=4, data=[53, 100]),
   midi.NoteOnEvent(tick=0, channel=4, data=[58, 100]),
   midi.NoteOnEvent(tick=108, channel=4, data=[58, 0]),
   midi.NoteOnEvent(tick=0, channel=4, data=[53, 0]),
   midi.NoteOnEvent(tick=0, channel=4, data=[46, 0]),
   midi.NoteOnEvent(tick=0, channel=4, data=[46, 100]),
   midi.NoteOnEvent(tick=0, channel=4, data=[53, 100]),
   midi.NoteOnEvent(tick=0, channel=4, data=[58, 100]),
   midi.NoteOnEvent(tick=108, channel=4, data=[58, 0]),
   midi.NoteOnEvent(tick=0, channel=4, data=[53, 0]),
   midi.NoteOnEvent(tick=0, channel=4, data=[46, 0]),
   midi.NoteOnEvent(tick=0, channel=4, data=[45, 100]),
   midi.NoteOnEvent(tick=0, channel=4, data=[52, 100]),
   midi.NoteOnEvent(tick=0, channel=4, data=[57, 100]),
   midi.NoteOnEvent(tick=108, channel=4, data=[57, 0]),
   midi.NoteOnEvent(tick=0, channel=4, data=[52, 0]),
   midi.NoteOnEvent(tick=0, channel=4, data=[45, 0]),
   midi.NoteOnEvent(tick=0, channel=4, data=[40, 100]),
   midi.NoteOnEvent(tick=108, channel=4, data=[40, 0]),
   midi.NoteOnEvent(tick=0, channel=4, data=[52, 100]),
   midi.NoteOnEvent(tick=0, channel=4, data=[47, 100]),
   midi.NoteOnEvent(tick=0, channel=4, data=[40, 100]),
   midi.NoteOnEvent(tick=54, channel=4, data=[40, 0]),
   midi.NoteOnEvent(tick=0, channel=4, data=[47, 0]),
   midi.NoteOnEvent(tick=0, channel=4, data=[52, 0]),
   midi.NoteOnEvent(tick=0, channel=4, data=[47, 100]),
   midi.NoteOnEvent(tick=0, channel=4, data=[52, 100]),
   midi.NoteOnEvent(tick=0, channel=4, data=[40, 100]),
   midi.NoteOnEvent(tick=54, channel=4, data=[40, 0]),
   midi.NoteOnEvent(tick=0, channel=4, data=[52, 0]),
   midi.NoteOnEvent(tick=0, channel=4, data=[47, 0]),
   midi.NoteOnEvent(tick=0, channel=4, data=[40, 100]),
   midi.NoteOnEvent(tick=108, channel=4, data=[40, 0]),
   midi.NoteOnEvent(tick=0, channel=4, data=[52, 100]),
   midi.NoteOnEvent(tick=0, channel=4, data=[47, 100]),
   midi.NoteOnEvent(tick=0, channel=4, data=[40, 100]),
   midi.NoteOnEvent(tick=54, channel=4, data=[40, 0]),
   midi.NoteOnEvent(tick=0, channel=4, data=[47, 0]),
   midi.NoteOnEvent(tick=0, channel=4, data=[52, 0]),
   midi.NoteOnEvent(tick=0, channel=4, data=[47, 100]),
   midi.NoteOnEvent(tick=0, channel=4, data=[52, 100]),
   midi.NoteOnEvent(tick=0, channel=4, data=[40, 100]),
   midi.NoteOnEvent(tick=54, channel=4, data=[40, 0]),
   midi.NoteOnEvent(tick=0, channel=4, data=[52, 0]),
   midi.NoteOnEvent(tick=0, channel=4, data=[47, 0]),
   midi.NoteOnEvent(tick=0, channel=4, data=[40, 100]),
   midi.NoteOnEvent(tick=108, channel=4, data=[40, 0]),
   midi.NoteOnEvent(tick=0, channel=4, data=[52, 100]),
   midi.NoteOnEvent(tick=0, channel=4, data=[55, 100]),
   midi.NoteOnEvent(tick=108, channel=4, data=[55, 0]),
   midi.NoteOnEvent(tick=0, channel=4, data=[52, 0]),
   midi.NoteOnEvent(tick=0, channel=4, data=[52, 100]),
   midi.NoteOnEvent(tick=0, channel=4, data=[55, 100]),
   midi.NoteOnEvent(tick=108, channel=4, data=[55, 0]),
   midi.NoteOnEvent(tick=0, channel=4, data=[52, 0]),
   midi.NoteOnEvent(tick=0, channel=4, data=[54, 100]),
   midi.NoteOnEvent(tick=0, channel=4, data=[51, 100]),
   midi.NoteOnEvent(tick=108, channel=4, data=[51, 0]),
   midi.NoteOnEvent(tick=0, channel=4, data=[54, 0]),
   midi.NoteOnEvent(tick=0, channel=4, data=[52, 100]),
   midi.NoteOnEvent(tick=0, channel=4, data=[55, 100]),
   midi.NoteOnEvent(tick=108, channel=4, data=[55, 0]),
   midi.NoteOnEvent(tick=0, channel=4, data=[52, 0]),
   midi.NoteOnEvent(tick=0, channel=4, data=[52, 100]),
   midi.NoteOnEvent(tick=0, channel=4, data=[47, 100]),
   midi.NoteOnEvent(tick=0, channel=4, data=[40, 100]),
   midi.NoteOnEvent(tick=54, channel=4, data=[40, 0]),
   midi.NoteOnEvent(tick=0, channel=4, data=[47, 0]),
   midi.NoteOnEvent(tick=0, channel=4, data=[52, 0]),
   midi.NoteOnEvent(tick=0, channel=4, data=[47, 100]),
   midi.NoteOnEvent(tick=0, channel=4, data=[52, 100]),
   midi.NoteOnEvent(tick=0, channel=4, data=[40, 100]),
   midi.NoteOnEvent(tick=54, channel=4, data=[40, 0]),
   midi.NoteOnEvent(tick=0, channel=4, data=[52, 0]),
   midi.NoteOnEvent(tick=0, channel=4, data=[47, 0]),
   midi.NoteOnEvent(tick=0, channel=4, data=[40, 100]),
   midi.NoteOnEvent(tick=108, channel=4, data=[40, 0]),
   midi.NoteOnEvent(tick=0, channel=4, data=[52, 100]),
   midi.NoteOnEvent(tick=0, channel=4, data=[47, 100]),
   midi.NoteOnEvent(tick=0, channel=4, data=[40, 100]),
   midi.NoteOnEvent(tick=54, channel=4, data=[40, 0]),
   midi.NoteOnEvent(tick=0, channel=4, data=[47, 0]),
   midi.NoteOnEvent(tick=0, channel=4, data=[52, 0]),
   midi.NoteOnEvent(tick=0, channel=4, data=[47, 100]),
   midi.NoteOnEvent(tick=0, channel=4, data=[52, 100]),
   midi.NoteOnEvent(tick=0, channel=4, data=[40, 100]),
   midi.NoteOnEvent(tick=54, channel=4, data=[40, 0]),
   midi.NoteOnEvent(tick=0, channel=4, data=[52, 0]),
   midi.NoteOnEvent(tick=0, channel=4, data=[47, 0]),
   midi.NoteOnEvent(tick=0, channel=4, data=[40, 100]),
   midi.NoteOnEvent(tick=108, channel=4, data=[40, 0]),
   midi.NoteOnEvent(tick=0, channel=4, data=[46, 100]),
   midi.NoteOnEvent(tick=0, channel=4, data=[53, 100]),
   midi.NoteOnEvent(tick=0, channel=4, data=[58, 100]),
   midi.NoteOnEvent(tick=108, channel=4, data=[58, 0]),
   midi.NoteOnEvent(tick=0, channel=4, data=[53, 0]),
   midi.NoteOnEvent(tick=0, channel=4, data=[46, 0]),
   midi.NoteOnEvent(tick=0, channel=4, data=[46, 100]),
   midi.NoteOnEvent(tick=0, channel=4, data=[53, 100]),
   midi.NoteOnEvent(tick=0, channel=4, data=[58, 100]),
   midi.NoteOnEvent(tick=108, channel=4, data=[58, 0]),
   midi.NoteOnEvent(tick=0, channel=4, data=[53, 0]),
   midi.NoteOnEvent(tick=0, channel=4, data=[46, 0]),
   midi.NoteOnEvent(tick=0, channel=4, data=[45, 100]),
   midi.NoteOnEvent(tick=0, channel=4, data=[52, 100]),
   midi.NoteOnEvent(tick=0, channel=4, data=[57, 100]),
   midi.NoteOnEvent(tick=108, channel=4, data=[57, 0]),
   midi.NoteOnEvent(tick=0, channel=4, data=[52, 0]),
   midi.NoteOnEvent(tick=0, channel=4, data=[45, 0]),
   midi.NoteOnEvent(tick=0, channel=4, data=[40, 100]),
   midi.NoteOnEvent(tick=108, channel=4, data=[40, 0]),
   midi.NoteOnEvent(tick=0, channel=4, data=[42, 100]),
   midi.NoteOnEvent(tick=0, channel=4, data=[49, 100]),
   midi.NoteOnEvent(tick=0, channel=4, data=[54, 100]),
   midi.NoteOnEvent(tick=216, channel=4, data=[54, 0]),
   midi.NoteOnEvent(tick=0, channel=4, data=[49, 0]),
   midi.NoteOnEvent(tick=0, channel=4, data=[42, 0]),
   midi.NoteOnEvent(tick=0, channel=4, data=[43, 100]),
   midi.NoteOnEvent(tick=0, channel=4, data=[50, 100]),
   midi.NoteOnEvent(tick=0, channel=4, data=[55, 100]),
   midi.NoteOnEvent(tick=108, channel=4, data=[55, 0]),
   midi.NoteOnEvent(tick=0, channel=4, data=[50, 0]),
   midi.NoteOnEvent(tick=0, channel=4, data=[43, 0]),
   midi.NoteOnEvent(tick=0, channel=4, data=[40, 100]),
   midi.NoteOnEvent(tick=108, channel=4, data=[40, 0]),
   midi.NoteOnEvent(tick=0, channel=4, data=[55, 100]),
   midi.NoteOnEvent(tick=0, channel=4, data=[50, 100]),
   midi.NoteOnEvent(tick=0, channel=4, data=[43, 100]),
   midi.NoteOnEvent(tick=216, channel=4, data=[43, 0]),
   midi.NoteOnEvent(tick=0, channel=4, data=[50, 0]),
   midi.NoteOnEvent(tick=0, channel=4, data=[55, 0]),
   midi.NoteOnEvent(tick=0, channel=4, data=[44, 100]),
   midi.NoteOnEvent(tick=0, channel=4, data=[51, 100]),
   midi.NoteOnEvent(tick=0, channel=4, data=[56, 100]),
   midi.NoteOnEvent(tick=108, channel=4, data=[56, 0]),
   midi.NoteOnEvent(tick=0, channel=4, data=[51, 0]),
   midi.NoteOnEvent(tick=0, channel=4, data=[44, 0]),
   midi.NoteOnEvent(tick=0, channel=4, data=[52, 100]),
   midi.NoteOnEvent(tick=0, channel=4, data=[47, 100]),
   midi.NoteOnEvent(tick=0, channel=4, data=[40, 100]),
   midi.NoteOnEvent(tick=864, channel=4, data=[40, 0]),
   midi.NoteOnEvent(tick=0, channel=4, data=[47, 0]),
   midi.NoteOnEvent(tick=0, channel=4, data=[52, 0]),
   midi.NoteOnEvent(tick=0, channel=4, data=[55, 100]),
   midi.NoteOnEvent(tick=0, channel=4, data=[50, 100]),
   midi.NoteOnEvent(tick=0, channel=4, data=[43, 100]),
   midi.NoteOnEvent(tick=860, channel=4, data=[43, 0]),
   midi.NoteOnEvent(tick=0, channel=4, data=[50, 0]),
   midi.NoteOnEvent(tick=0, channel=4, data=[55, 0]),
   midi.NoteOnEvent(tick=4, channel=4, data=[57, 100]),
   midi.NoteOnEvent(tick=0, channel=4, data=[52, 100]),
   midi.NoteOnEvent(tick=0, channel=4, data=[45, 100]),
   midi.NoteOnEvent(tick=428, channel=4, data=[45, 0]),
   midi.NoteOnEvent(tick=0, channel=4, data=[52, 0]),
   midi.NoteOnEvent(tick=0, channel=4, data=[57, 0]),
   midi.NoteOnEvent(tick=4, channel=4, data=[53, 100]),
   midi.NoteOnEvent(tick=0, channel=4, data=[48, 100]),
   midi.NoteOnEvent(tick=0, channel=4, data=[41, 100]),
   midi.NoteOnEvent(tick=104, channel=4, data=[41, 0]),
   midi.NoteOnEvent(tick=0, channel=4, data=[48, 0]),
   midi.NoteOnEvent(tick=0, channel=4, data=[53, 0]),
   midi.NoteOnEvent(tick=4, channel=4, data=[53, 100]),
   midi.NoteOnEvent(tick=0, channel=4, data=[48, 100]),
   midi.NoteOnEvent(tick=0, channel=4, data=[41, 100]),
   midi.NoteOnEvent(tick=104, channel=4, data=[41, 0]),
   midi.NoteOnEvent(tick=0, channel=4, data=[48, 0]),
   midi.NoteOnEvent(tick=0, channel=4, data=[53, 0]),
   midi.NoteOnEvent(tick=4, channel=4, data=[42, 100]),
   midi.NoteOnEvent(tick=0, channel=4, data=[51, 100]),
   midi.NoteOnEvent(tick=0, channel=4, data=[47, 100]),
   midi.NoteOnEvent(tick=212, channel=4, data=[47, 0]),
   midi.NoteOnEvent(tick=0, channel=4, data=[51, 0]),
   midi.NoteOnEvent(tick=0, channel=4, data=[42, 0]),
   midi.NoteOnEvent(tick=4, channel=4, data=[40, 100]),
   midi.NoteOnEvent(tick=108, channel=4, data=[40, 0]),
   midi.NoteOnEvent(tick=0, channel=4, data=[47, 100]),
   midi.NoteOnEvent(tick=0, channel=4, data=[40, 100]),
   midi.NoteOnEvent(tick=54, channel=4, data=[40, 0]),
   midi.NoteOnEvent(tick=0, channel=4, data=[47, 0]),
   midi.NoteOnEvent(tick=0, channel=4, data=[47, 100]),
   midi.NoteOnEvent(tick=0, channel=4, data=[40, 100]),
   midi.NoteOnEvent(tick=54, channel=4, data=[40, 0]),
   midi.NoteOnEvent(tick=0, channel=4, data=[47, 0]),
   midi.NoteOnEvent(tick=0, channel=4, data=[40, 100]),
   midi.NoteOnEvent(tick=108, channel=4, data=[40, 0]),
   midi.NoteOnEvent(tick=0, channel=4, data=[47, 100]),
   midi.NoteOnEvent(tick=0, channel=4, data=[40, 100]),
   midi.NoteOnEvent(tick=54, channel=4, data=[40, 0]),
   midi.NoteOnEvent(tick=0, channel=4, data=[47, 0]),
   midi.NoteOnEvent(tick=0, channel=4, data=[47, 100]),
   midi.NoteOnEvent(tick=0, channel=4, data=[40, 100]),
   midi.NoteOnEvent(tick=54, channel=4, data=[40, 0]),
   midi.NoteOnEvent(tick=0, channel=4, data=[47, 0]),
   midi.NoteOnEvent(tick=0, channel=4, data=[40, 100]),
   midi.NoteOnEvent(tick=108, channel=4, data=[40, 0]),
   midi.NoteOnEvent(tick=0, channel=4, data=[46, 100]),
   midi.NoteOnEvent(tick=0, channel=4, data=[53, 100]),
   midi.NoteOnEvent(tick=0, channel=4, data=[58, 100]),
   midi.NoteOnEvent(tick=108, channel=4, data=[58, 0]),
   midi.NoteOnEvent(tick=0, channel=4, data=[53, 0]),
   midi.NoteOnEvent(tick=0, channel=4, data=[46, 0]),
   midi.NoteOnEvent(tick=0, channel=4, data=[46, 100]),
   midi.NoteOnEvent(tick=0, channel=4, data=[53, 100]),
   midi.NoteOnEvent(tick=0, channel=4, data=[58, 100]),
   midi.NoteOnEvent(tick=108, channel=4, data=[58, 0]),
   midi.NoteOnEvent(tick=0, channel=4, data=[53, 0]),
   midi.NoteOnEvent(tick=0, channel=4, data=[46, 0]),
   midi.NoteOnEvent(tick=0, channel=4, data=[45, 100]),
   midi.NoteOnEvent(tick=0, channel=4, data=[52, 100]),
   midi.NoteOnEvent(tick=0, channel=4, data=[57, 100]),
   midi.NoteOnEvent(tick=108, channel=4, data=[57, 0]),
   midi.NoteOnEvent(tick=0, channel=4, data=[52, 0]),
   midi.NoteOnEvent(tick=0, channel=4, data=[45, 0]),
   midi.NoteOnEvent(tick=0, channel=4, data=[40, 100]),
   midi.NoteOnEvent(tick=108, channel=4, data=[40, 0]),
   midi.NoteOnEvent(tick=0, channel=4, data=[47, 100]),
   midi.NoteOnEvent(tick=0, channel=4, data=[40, 100]),
   midi.NoteOnEvent(tick=54, channel=4, data=[40, 0]),
   midi.NoteOnEvent(tick=0, channel=4, data=[47, 0]),
   midi.NoteOnEvent(tick=0, channel=4, data=[47, 100]),
   midi.NoteOnEvent(tick=0, channel=4, data=[40, 100]),
   midi.NoteOnEvent(tick=54, channel=4, data=[40, 0]),
   midi.NoteOnEvent(tick=0, channel=4, data=[47, 0]),
   midi.NoteOnEvent(tick=0, channel=4, data=[40, 100]),
   midi.NoteOnEvent(tick=108, channel=4, data=[40, 0]),
   midi.NoteOnEvent(tick=0, channel=4, data=[47, 100]),
   midi.NoteOnEvent(tick=0, channel=4, data=[40, 100]),
   midi.NoteOnEvent(tick=54, channel=4, data=[40, 0]),
   midi.NoteOnEvent(tick=0, channel=4, data=[47, 0]),
   midi.NoteOnEvent(tick=0, channel=4, data=[47, 100]),
   midi.NoteOnEvent(tick=0, channel=4, data=[40, 100]),
   midi.NoteOnEvent(tick=54, channel=4, data=[40, 0]),
   midi.NoteOnEvent(tick=0, channel=4, data=[47, 0]),
   midi.NoteOnEvent(tick=0, channel=4, data=[40, 100]),
   midi.NoteOnEvent(tick=108, channel=4, data=[40, 0]),
   midi.NoteOnEvent(tick=0, channel=4, data=[52, 100]),
   midi.NoteOnEvent(tick=0, channel=4, data=[55, 100]),
   midi.NoteOnEvent(tick=108, channel=4, data=[55, 0]),
   midi.NoteOnEvent(tick=0, channel=4, data=[52, 0]),
   midi.NoteOnEvent(tick=0, channel=4, data=[52, 100]),
   midi.NoteOnEvent(tick=0, channel=4, data=[55, 100]),
   midi.NoteOnEvent(tick=108, channel=4, data=[55, 0]),
   midi.NoteOnEvent(tick=0, channel=4, data=[52, 0]),
   midi.NoteOnEvent(tick=0, channel=4, data=[54, 100]),
   midi.NoteOnEvent(tick=0, channel=4, data=[51, 100]),
   midi.NoteOnEvent(tick=108, channel=4, data=[51, 0]),
   midi.NoteOnEvent(tick=0, channel=4, data=[54, 0]),
   midi.NoteOnEvent(tick=0, channel=4, data=[52, 100]),
   midi.NoteOnEvent(tick=0, channel=4, data=[55, 100]),
   midi.NoteOnEvent(tick=108, channel=4, data=[55, 0]),
   midi.NoteOnEvent(tick=0, channel=4, data=[52, 0]),
   midi.NoteOnEvent(tick=0, channel=4, data=[52, 100]),
   midi.NoteOnEvent(tick=0, channel=4, data=[47, 100]),
   midi.NoteOnEvent(tick=0, channel=4, data=[40, 100]),
   midi.NoteOnEvent(tick=54, channel=4, data=[40, 0]),
   midi.NoteOnEvent(tick=0, channel=4, data=[47, 0]),
   midi.NoteOnEvent(tick=0, channel=4, data=[52, 0]),
   midi.NoteOnEvent(tick=0, channel=4, data=[47, 100]),
   midi.NoteOnEvent(tick=0, channel=4, data=[52, 100]),
   midi.NoteOnEvent(tick=0, channel=4, data=[40, 100]),
   midi.NoteOnEvent(tick=54, channel=4, data=[40, 0]),
   midi.NoteOnEvent(tick=0, channel=4, data=[52, 0]),
   midi.NoteOnEvent(tick=0, channel=4, data=[47, 0]),
   midi.NoteOnEvent(tick=0, channel=4, data=[40, 100]),
   midi.NoteOnEvent(tick=108, channel=4, data=[40, 0]),
   midi.NoteOnEvent(tick=0, channel=4, data=[47, 100]),
   midi.NoteOnEvent(tick=0, channel=4, data=[40, 100]),
   midi.NoteOnEvent(tick=54, channel=4, data=[40, 0]),
   midi.NoteOnEvent(tick=0, channel=4, data=[47, 0]),
   midi.NoteOnEvent(tick=0, channel=4, data=[47, 100]),
   midi.NoteOnEvent(tick=0, channel=4, data=[40, 100]),
   midi.NoteOnEvent(tick=54, channel=4, data=[40, 0]),
   midi.NoteOnEvent(tick=0, channel=4, data=[47, 0]),
   midi.NoteOnEvent(tick=0, channel=4, data=[40, 100]),
   midi.NoteOnEvent(tick=108, channel=4, data=[40, 0]),
   midi.NoteOnEvent(tick=0, channel=4, data=[46, 100]),
   midi.NoteOnEvent(tick=0, channel=4, data=[53, 100]),
   midi.NoteOnEvent(tick=0, channel=4, data=[58, 100]),
   midi.NoteOnEvent(tick=108, channel=4, data=[58, 0]),
   midi.NoteOnEvent(tick=0, channel=4, data=[53, 0]),
   midi.NoteOnEvent(tick=0, channel=4, data=[46, 0]),
   midi.NoteOnEvent(tick=0, channel=4, data=[46, 100]),
   midi.NoteOnEvent(tick=0, channel=4, data=[53, 100]),
   midi.NoteOnEvent(tick=0, channel=4, data=[58, 100]),
   midi.NoteOnEvent(tick=108, channel=4, data=[58, 0]),
   midi.NoteOnEvent(tick=0, channel=4, data=[53, 0]),
   midi.NoteOnEvent(tick=0, channel=4, data=[46, 0]),
   midi.NoteOnEvent(tick=0, channel=4, data=[45, 100]),
   midi.NoteOnEvent(tick=0, channel=4, data=[52, 100]),
   midi.NoteOnEvent(tick=0, channel=4, data=[57, 100]),
   midi.NoteOnEvent(tick=108, channel=4, data=[57, 0]),
   midi.NoteOnEvent(tick=0, channel=4, data=[52, 0]),
   midi.NoteOnEvent(tick=0, channel=4, data=[45, 0]),
   midi.NoteOnEvent(tick=0, channel=4, data=[40, 100]),
   midi.NoteOnEvent(tick=108, channel=4, data=[40, 0]),
   midi.NoteOnEvent(tick=0, channel=4, data=[42, 100]),
   midi.NoteOnEvent(tick=0, channel=4, data=[49, 100]),
   midi.NoteOnEvent(tick=0, channel=4, data=[54, 100]),
   midi.NoteOnEvent(tick=216, channel=4, data=[54, 0]),
   midi.NoteOnEvent(tick=0, channel=4, data=[49, 0]),
   midi.NoteOnEvent(tick=0, channel=4, data=[42, 0]),
   midi.NoteOnEvent(tick=0, channel=4, data=[43, 100]),
   midi.NoteOnEvent(tick=0, channel=4, data=[50, 100]),
   midi.NoteOnEvent(tick=0, channel=4, data=[55, 100]),
   midi.NoteOnEvent(tick=108, channel=4, data=[55, 0]),
   midi.NoteOnEvent(tick=0, channel=4, data=[50, 0]),
   midi.NoteOnEvent(tick=0, channel=4, data=[43, 0]),
   midi.NoteOnEvent(tick=0, channel=4, data=[40, 100]),
   midi.NoteOnEvent(tick=108, channel=4, data=[40, 0]),
   midi.NoteOnEvent(tick=0, channel=4, data=[55, 100]),
   midi.NoteOnEvent(tick=0, channel=4, data=[50, 100]),
   midi.NoteOnEvent(tick=0, channel=4, data=[43, 100]),
   midi.NoteOnEvent(tick=216, channel=4, data=[43, 0]),
   midi.NoteOnEvent(tick=0, channel=4, data=[50, 0]),
   midi.NoteOnEvent(tick=0, channel=4, data=[55, 0]),
   midi.NoteOnEvent(tick=0, channel=4, data=[44, 100]),
   midi.NoteOnEvent(tick=0, channel=4, data=[51, 100]),
   midi.NoteOnEvent(tick=0, channel=4, data=[56, 100]),
   midi.NoteOnEvent(tick=108, channel=4, data=[56, 0]),
   midi.NoteOnEvent(tick=0, channel=4, data=[51, 0]),
   midi.NoteOnEvent(tick=0, channel=4, data=[44, 0]),
   midi.NoteOnEvent(tick=0, channel=4, data=[52, 100]),
   midi.NoteOnEvent(tick=0, channel=4, data=[47, 100]),
   midi.NoteOnEvent(tick=0, channel=4, data=[40, 100]),
   midi.NoteOnEvent(tick=864, channel=4, data=[40, 0]),
   midi.NoteOnEvent(tick=0, channel=4, data=[47, 0]),
   midi.NoteOnEvent(tick=0, channel=4, data=[52, 0]),
   midi.NoteOnEvent(tick=0, channel=4, data=[55, 100]),
   midi.NoteOnEvent(tick=0, channel=4, data=[50, 100]),
   midi.NoteOnEvent(tick=0, channel=4, data=[43, 100]),
   midi.NoteOnEvent(tick=860, channel=4, data=[43, 0]),
   midi.NoteOnEvent(tick=0, channel=4, data=[50, 0]),
   midi.NoteOnEvent(tick=0, channel=4, data=[55, 0]),
   midi.NoteOnEvent(tick=4, channel=4, data=[57, 100]),
   midi.NoteOnEvent(tick=0, channel=4, data=[52, 100]),
   midi.NoteOnEvent(tick=0, channel=4, data=[45, 100]),
   midi.NoteOnEvent(tick=428, channel=4, data=[45, 0]),
   midi.NoteOnEvent(tick=0, channel=4, data=[52, 0]),
   midi.NoteOnEvent(tick=0, channel=4, data=[57, 0]),
   midi.NoteOnEvent(tick=4, channel=4, data=[53, 100]),
   midi.NoteOnEvent(tick=0, channel=4, data=[48, 100]),
   midi.NoteOnEvent(tick=0, channel=4, data=[41, 100]),
   midi.NoteOnEvent(tick=104, channel=4, data=[41, 0]),
   midi.NoteOnEvent(tick=0, channel=4, data=[48, 0]),
   midi.NoteOnEvent(tick=0, channel=4, data=[53, 0]),
   midi.NoteOnEvent(tick=4, channel=4, data=[53, 100]),
   midi.NoteOnEvent(tick=0, channel=4, data=[48, 100]),
   midi.NoteOnEvent(tick=0, channel=4, data=[41, 100]),
   midi.NoteOnEvent(tick=104, channel=4, data=[41, 0]),
   midi.NoteOnEvent(tick=0, channel=4, data=[48, 0]),
   midi.NoteOnEvent(tick=0, channel=4, data=[53, 0]),
   midi.NoteOnEvent(tick=4, channel=4, data=[42, 100]),
   midi.NoteOnEvent(tick=0, channel=4, data=[51, 100]),
   midi.NoteOnEvent(tick=0, channel=4, data=[47, 100]),
   midi.NoteOnEvent(tick=212, channel=4, data=[47, 0]),
   midi.NoteOnEvent(tick=0, channel=4, data=[51, 0]),
   midi.NoteOnEvent(tick=0, channel=4, data=[42, 0]),
   midi.NoteOnEvent(tick=4, channel=4, data=[40, 100]),
   midi.NoteOnEvent(tick=108, channel=4, data=[40, 0]),
   midi.NoteOnEvent(tick=0, channel=4, data=[47, 100]),
   midi.NoteOnEvent(tick=0, channel=4, data=[40, 100]),
   midi.NoteOnEvent(tick=54, channel=4, data=[40, 0]),
   midi.NoteOnEvent(tick=0, channel=4, data=[47, 0]),
   midi.NoteOnEvent(tick=0, channel=4, data=[47, 100]),
   midi.NoteOnEvent(tick=0, channel=4, data=[40, 100]),
   midi.NoteOnEvent(tick=54, channel=4, data=[40, 0]),
   midi.NoteOnEvent(tick=0, channel=4, data=[47, 0]),
   midi.NoteOnEvent(tick=0, channel=4, data=[40, 100]),
   midi.NoteOnEvent(tick=108, channel=4, data=[40, 0]),
   midi.NoteOnEvent(tick=0, channel=4, data=[47, 100]),
   midi.NoteOnEvent(tick=0, channel=4, data=[40, 100]),
   midi.NoteOnEvent(tick=54, channel=4, data=[40, 0]),
   midi.NoteOnEvent(tick=0, channel=4, data=[47, 0]),
   midi.NoteOnEvent(tick=0, channel=4, data=[47, 100]),
   midi.NoteOnEvent(tick=0, channel=4, data=[40, 100]),
   midi.NoteOnEvent(tick=54, channel=4, data=[40, 0]),
   midi.NoteOnEvent(tick=0, channel=4, data=[47, 0]),
   midi.NoteOnEvent(tick=0, channel=4, data=[40, 100]),
   midi.NoteOnEvent(tick=108, channel=4, data=[40, 0]),
   midi.NoteOnEvent(tick=0, channel=4, data=[46, 100]),
   midi.NoteOnEvent(tick=0, channel=4, data=[53, 100]),
   midi.NoteOnEvent(tick=0, channel=4, data=[58, 100]),
   midi.NoteOnEvent(tick=108, channel=4, data=[58, 0]),
   midi.NoteOnEvent(tick=0, channel=4, data=[53, 0]),
   midi.NoteOnEvent(tick=0, channel=4, data=[46, 0]),
   midi.NoteOnEvent(tick=0, channel=4, data=[46, 100]),
   midi.NoteOnEvent(tick=0, channel=4, data=[53, 100]),
   midi.NoteOnEvent(tick=0, channel=4, data=[58, 100]),
   midi.NoteOnEvent(tick=108, channel=4, data=[58, 0]),
   midi.NoteOnEvent(tick=0, channel=4, data=[53, 0]),
   midi.NoteOnEvent(tick=0, channel=4, data=[46, 0]),
   midi.NoteOnEvent(tick=0, channel=4, data=[45, 100]),
   midi.NoteOnEvent(tick=0, channel=4, data=[52, 100]),
   midi.NoteOnEvent(tick=0, channel=4, data=[57, 100]),
   midi.NoteOnEvent(tick=108, channel=4, data=[57, 0]),
   midi.NoteOnEvent(tick=0, channel=4, data=[52, 0]),
   midi.NoteOnEvent(tick=0, channel=4, data=[45, 0]),
   midi.NoteOnEvent(tick=0, channel=4, data=[40, 100]),
   midi.NoteOnEvent(tick=108, channel=4, data=[40, 0]),
   midi.NoteOnEvent(tick=0, channel=4, data=[47, 100]),
   midi.NoteOnEvent(tick=0, channel=4, data=[40, 100]),
   midi.NoteOnEvent(tick=54, channel=4, data=[40, 0]),
   midi.NoteOnEvent(tick=0, channel=4, data=[47, 0]),
   midi.NoteOnEvent(tick=0, channel=4, data=[47, 100]),
   midi.NoteOnEvent(tick=0, channel=4, data=[40, 100]),
   midi.NoteOnEvent(tick=54, channel=4, data=[40, 0]),
   midi.NoteOnEvent(tick=0, channel=4, data=[47, 0]),
   midi.NoteOnEvent(tick=0, channel=4, data=[40, 100]),
   midi.NoteOnEvent(tick=108, channel=4, data=[40, 0]),
   midi.NoteOnEvent(tick=0, channel=4, data=[47, 100]),
   midi.NoteOnEvent(tick=0, channel=4, data=[40, 100]),
   midi.NoteOnEvent(tick=54, channel=4, data=[40, 0]),
   midi.NoteOnEvent(tick=0, channel=4, data=[47, 0]),
   midi.NoteOnEvent(tick=0, channel=4, data=[47, 100]),
   midi.NoteOnEvent(tick=0, channel=4, data=[40, 100]),
   midi.NoteOnEvent(tick=54, channel=4, data=[40, 0]),
   midi.NoteOnEvent(tick=0, channel=4, data=[47, 0]),
   midi.NoteOnEvent(tick=0, channel=4, data=[40, 100]),
   midi.NoteOnEvent(tick=108, channel=4, data=[40, 0]),
   midi.NoteOnEvent(tick=0, channel=4, data=[52, 100]),
   midi.NoteOnEvent(tick=0, channel=4, data=[55, 100]),
   midi.NoteOnEvent(tick=108, channel=4, data=[55, 0]),
   midi.NoteOnEvent(tick=0, channel=4, data=[52, 0]),
   midi.NoteOnEvent(tick=0, channel=4, data=[52, 100]),
   midi.NoteOnEvent(tick=0, channel=4, data=[55, 100]),
   midi.NoteOnEvent(tick=108, channel=4, data=[55, 0]),
   midi.NoteOnEvent(tick=0, channel=4, data=[52, 0]),
   midi.NoteOnEvent(tick=0, channel=4, data=[54, 100]),
   midi.NoteOnEvent(tick=0, channel=4, data=[51, 100]),
   midi.NoteOnEvent(tick=108, channel=4, data=[51, 0]),
   midi.NoteOnEvent(tick=0, channel=4, data=[54, 0]),
   midi.NoteOnEvent(tick=0, channel=4, data=[52, 100]),
   midi.NoteOnEvent(tick=0, channel=4, data=[47, 100]),
   midi.NoteOnEvent(tick=0, channel=4, data=[40, 100]),
   midi.NoteOnEvent(tick=432, channel=4, data=[40, 0]),
   midi.NoteOnEvent(tick=0, channel=4, data=[47, 0]),
   midi.NoteOnEvent(tick=0, channel=4, data=[52, 0]),
   midi.NoteOnEvent(tick=0, channel=4, data=[59, 100]),
   midi.NoteOnEvent(tick=0, channel=4, data=[54, 100]),
   midi.NoteOnEvent(tick=0, channel=4, data=[47, 100]),
   midi.NoteOnEvent(tick=432, channel=4, data=[47, 0]),
   midi.NoteOnEvent(tick=0, channel=4, data=[54, 0]),
   midi.NoteOnEvent(tick=0, channel=4, data=[59, 0]),
   midi.NoteOnEvent(tick=0, channel=4, data=[43, 100]),
   midi.NoteOnEvent(tick=0, channel=4, data=[50, 100]),
   midi.NoteOnEvent(tick=0, channel=4, data=[55, 100]),
   midi.NoteOnEvent(tick=432, channel=4, data=[55, 0]),
   midi.NoteOnEvent(tick=0, channel=4, data=[50, 0]),
   midi.NoteOnEvent(tick=0, channel=4, data=[43, 0]),
   midi.NoteOnEvent(tick=0, channel=4, data=[55, 100]),
   midi.NoteOnEvent(tick=0, channel=4, data=[52, 100]),
   midi.NoteOnEvent(tick=0, channel=4, data=[40, 100]),
   midi.NoteOnEvent(tick=216, channel=4, data=[40, 0]),
   midi.NoteOnEvent(tick=0, channel=4, data=[52, 0]),
   midi.NoteOnEvent(tick=0, channel=4, data=[55, 0]),
   midi.NoteOnEvent(tick=0, channel=4, data=[50, 100]),
   midi.NoteOnEvent(tick=0, channel=4, data=[42, 100]),
   midi.NoteOnEvent(tick=0, channel=4, data=[47, 100]),
   midi.NoteOnEvent(tick=216, channel=4, data=[47, 0]),
   midi.NoteOnEvent(tick=0, channel=4, data=[42, 0]),
   midi.NoteOnEvent(tick=0, channel=4, data=[50, 0]),
   midi.NoteOnEvent(tick=0, channel=4, data=[40, 100]),
   midi.NoteOnEvent(tick=108, channel=4, data=[40, 0]),
   midi.NoteOnEvent(tick=0, channel=4, data=[47, 100]),
   midi.NoteOnEvent(tick=0, channel=4, data=[40, 100]),
   midi.NoteOnEvent(tick=54, channel=4, data=[40, 0]),
   midi.NoteOnEvent(tick=0, channel=4, data=[47, 0]),
   midi.NoteOnEvent(tick=0, channel=4, data=[47, 100]),
   midi.NoteOnEvent(tick=0, channel=4, data=[40, 100]),
   midi.NoteOnEvent(tick=54, channel=4, data=[40, 0]),
   midi.NoteOnEvent(tick=0, channel=4, data=[47, 0]),
   midi.NoteOnEvent(tick=0, channel=4, data=[40, 100]),
   midi.NoteOnEvent(tick=108, channel=4, data=[40, 0]),
   midi.NoteOnEvent(tick=0, channel=4, data=[47, 100]),
   midi.NoteOnEvent(tick=0, channel=4, data=[40, 100]),
   midi.NoteOnEvent(tick=54, channel=4, data=[40, 0]),
   midi.NoteOnEvent(tick=0, channel=4, data=[47, 0]),
   midi.NoteOnEvent(tick=0, channel=4, data=[47, 100]),
   midi.NoteOnEvent(tick=0, channel=4, data=[40, 100]),
   midi.NoteOnEvent(tick=54, channel=4, data=[40, 0]),
   midi.NoteOnEvent(tick=0, channel=4, data=[47, 0]),
   midi.NoteOnEvent(tick=0, channel=4, data=[40, 100]),
   midi.NoteOnEvent(tick=108, channel=4, data=[40, 0]),
   midi.NoteOnEvent(tick=0, channel=4, data=[46, 100]),
   midi.NoteOnEvent(tick=0, channel=4, data=[53, 100]),
   midi.NoteOnEvent(tick=0, channel=4, data=[58, 100]),
   midi.NoteOnEvent(tick=108, channel=4, data=[58, 0]),
   midi.NoteOnEvent(tick=0, channel=4, data=[53, 0]),
   midi.NoteOnEvent(tick=0, channel=4, data=[46, 0]),
   midi.NoteOnEvent(tick=0, channel=4, data=[46, 100]),
   midi.NoteOnEvent(tick=0, channel=4, data=[53, 100]),
   midi.NoteOnEvent(tick=0, channel=4, data=[58, 100]),
   midi.NoteOnEvent(tick=108, channel=4, data=[58, 0]),
   midi.NoteOnEvent(tick=0, channel=4, data=[53, 0]),
   midi.NoteOnEvent(tick=0, channel=4, data=[46, 0]),
   midi.NoteOnEvent(tick=0, channel=4, data=[45, 100]),
   midi.NoteOnEvent(tick=0, channel=4, data=[52, 100]),
   midi.NoteOnEvent(tick=0, channel=4, data=[57, 100]),
   midi.NoteOnEvent(tick=108, channel=4, data=[57, 0]),
   midi.NoteOnEvent(tick=0, channel=4, data=[52, 0]),
   midi.NoteOnEvent(tick=0, channel=4, data=[45, 0]),
   midi.NoteOnEvent(tick=0, channel=4, data=[40, 100]),
   midi.NoteOnEvent(tick=108, channel=4, data=[40, 0]),
   midi.NoteOnEvent(tick=0, channel=4, data=[47, 100]),
   midi.NoteOnEvent(tick=0, channel=4, data=[40, 100]),
   midi.NoteOnEvent(tick=54, channel=4, data=[40, 0]),
   midi.NoteOnEvent(tick=0, channel=4, data=[47, 0]),
   midi.NoteOnEvent(tick=0, channel=4, data=[47, 100]),
   midi.NoteOnEvent(tick=0, channel=4, data=[40, 100]),
   midi.NoteOnEvent(tick=54, channel=4, data=[40, 0]),
   midi.NoteOnEvent(tick=0, channel=4, data=[47, 0]),
   midi.NoteOnEvent(tick=0, channel=4, data=[40, 100]),
   midi.NoteOnEvent(tick=108, channel=4, data=[40, 0]),
   midi.NoteOnEvent(tick=0, channel=4, data=[47, 100]),
   midi.NoteOnEvent(tick=0, channel=4, data=[40, 100]),
   midi.NoteOnEvent(tick=54, channel=4, data=[40, 0]),
   midi.NoteOnEvent(tick=0, channel=4, data=[47, 0]),
   midi.NoteOnEvent(tick=0, channel=4, data=[47, 100]),
   midi.NoteOnEvent(tick=0, channel=4, data=[40, 100]),
   midi.NoteOnEvent(tick=54, channel=4, data=[40, 0]),
   midi.NoteOnEvent(tick=0, channel=4, data=[47, 0]),
   midi.NoteOnEvent(tick=0, channel=4, data=[40, 100]),
   midi.NoteOnEvent(tick=108, channel=4, data=[40, 0]),
   midi.NoteOnEvent(tick=0, channel=4, data=[52, 100]),
   midi.NoteOnEvent(tick=0, channel=4, data=[55, 100]),
   midi.NoteOnEvent(tick=108, channel=4, data=[55, 0]),
   midi.NoteOnEvent(tick=0, channel=4, data=[52, 0]),
   midi.NoteOnEvent(tick=0, channel=4, data=[52, 100]),
   midi.NoteOnEvent(tick=0, channel=4, data=[55, 100]),
   midi.NoteOnEvent(tick=108, channel=4, data=[55, 0]),
   midi.NoteOnEvent(tick=0, channel=4, data=[52, 0]),
   midi.NoteOnEvent(tick=0, channel=4, data=[54, 100]),
   midi.NoteOnEvent(tick=0, channel=4, data=[51, 100]),
   midi.NoteOnEvent(tick=108, channel=4, data=[51, 0]),
   midi.NoteOnEvent(tick=0, channel=4, data=[54, 0]),
   midi.NoteOnEvent(tick=0, channel=4, data=[40, 100]),
   midi.NoteOnEvent(tick=108, channel=4, data=[40, 0]),
   midi.NoteOnEvent(tick=0, channel=4, data=[47, 100]),
   midi.NoteOnEvent(tick=0, channel=4, data=[40, 100]),
   midi.NoteOnEvent(tick=54, channel=4, data=[40, 0]),
   midi.NoteOnEvent(tick=0, channel=4, data=[47, 0]),
   midi.NoteOnEvent(tick=0, channel=4, data=[47, 100]),
   midi.NoteOnEvent(tick=0, channel=4, data=[40, 100]),
   midi.NoteOnEvent(tick=54, channel=4, data=[40, 0]),
   midi.NoteOnEvent(tick=0, channel=4, data=[47, 0]),
   midi.NoteOnEvent(tick=0, channel=4, data=[40, 100]),
   midi.NoteOnEvent(tick=108, channel=4, data=[40, 0]),
   midi.NoteOnEvent(tick=0, channel=4, data=[47, 100]),
   midi.NoteOnEvent(tick=0, channel=4, data=[40, 100]),
   midi.NoteOnEvent(tick=54, channel=4, data=[40, 0]),
   midi.NoteOnEvent(tick=0, channel=4, data=[47, 0]),
   midi.NoteOnEvent(tick=0, channel=4, data=[47, 100]),
   midi.NoteOnEvent(tick=0, channel=4, data=[40, 100]),
   midi.NoteOnEvent(tick=54, channel=4, data=[40, 0]),
   midi.NoteOnEvent(tick=0, channel=4, data=[47, 0]),
   midi.NoteOnEvent(tick=0, channel=4, data=[40, 100]),
   midi.NoteOnEvent(tick=108, channel=4, data=[40, 0]),
   midi.NoteOnEvent(tick=0, channel=4, data=[46, 100]),
   midi.NoteOnEvent(tick=0, channel=4, data=[53, 100]),
   midi.NoteOnEvent(tick=0, channel=4, data=[58, 100]),
   midi.NoteOnEvent(tick=108, channel=4, data=[58, 0]),
   midi.NoteOnEvent(tick=0, channel=4, data=[53, 0]),
   midi.NoteOnEvent(tick=0, channel=4, data=[46, 0]),
   midi.NoteOnEvent(tick=0, channel=4, data=[46, 100]),
   midi.NoteOnEvent(tick=0, channel=4, data=[53, 100]),
   midi.NoteOnEvent(tick=0, channel=4, data=[58, 100]),
   midi.NoteOnEvent(tick=108, channel=4, data=[58, 0]),
   midi.NoteOnEvent(tick=0, channel=4, data=[53, 0]),
   midi.NoteOnEvent(tick=0, channel=4, data=[46, 0]),
   midi.NoteOnEvent(tick=0, channel=4, data=[45, 100]),
   midi.NoteOnEvent(tick=0, channel=4, data=[52, 100]),
   midi.NoteOnEvent(tick=0, channel=4, data=[57, 100]),
   midi.NoteOnEvent(tick=108, channel=4, data=[57, 0]),
   midi.NoteOnEvent(tick=0, channel=4, data=[52, 0]),
   midi.NoteOnEvent(tick=0, channel=4, data=[45, 0]),
   midi.NoteOnEvent(tick=0, channel=4, data=[46, 100]),
   midi.NoteOnEvent(tick=0, channel=4, data=[53, 100]),
   midi.NoteOnEvent(tick=0, channel=4, data=[58, 100]),
   midi.NoteOnEvent(tick=108, channel=4, data=[58, 0]),
   midi.NoteOnEvent(tick=0, channel=4, data=[53, 0]),
   midi.NoteOnEvent(tick=0, channel=4, data=[46, 0]),
   midi.NoteOnEvent(tick=0, channel=4, data=[48, 100]),
   midi.NoteOnEvent(tick=0, channel=4, data=[41, 100]),
   midi.NoteOnEvent(tick=0, channel=4, data=[53, 100]),
   midi.NoteOnEvent(tick=108, channel=4, data=[53, 0]),
   midi.NoteOnEvent(tick=0, channel=4, data=[41, 0]),
   midi.NoteOnEvent(tick=0, channel=4, data=[48, 0]),
   midi.NoteOnEvent(tick=0, channel=4, data=[40, 100]),
   midi.NoteOnEvent(tick=108, channel=4, data=[40, 0]),
   midi.NoteOnEvent(tick=0, channel=4, data=[47, 100]),
   midi.NoteOnEvent(tick=0, channel=4, data=[40, 100]),
   midi.NoteOnEvent(tick=54, channel=4, data=[40, 0]),
   midi.NoteOnEvent(tick=0, channel=4, data=[47, 0]),
   midi.NoteOnEvent(tick=0, channel=4, data=[47, 100]),
   midi.NoteOnEvent(tick=0, channel=4, data=[40, 100]),
   midi.NoteOnEvent(tick=54, channel=4, data=[40, 0]),
   midi.NoteOnEvent(tick=0, channel=4, data=[47, 0]),
   midi.NoteOnEvent(tick=0, channel=4, data=[40, 100]),
   midi.NoteOnEvent(tick=108, channel=4, data=[40, 0]),
   midi.NoteOnEvent(tick=0, channel=4, data=[47, 100]),
   midi.NoteOnEvent(tick=0, channel=4, data=[40, 100]),
   midi.NoteOnEvent(tick=54, channel=4, data=[40, 0]),
   midi.NoteOnEvent(tick=0, channel=4, data=[47, 0]),
   midi.NoteOnEvent(tick=0, channel=4, data=[47, 100]),
   midi.NoteOnEvent(tick=0, channel=4, data=[40, 100]),
   midi.NoteOnEvent(tick=54, channel=4, data=[40, 0]),
   midi.NoteOnEvent(tick=0, channel=4, data=[47, 0]),
   midi.NoteOnEvent(tick=0, channel=4, data=[40, 100]),
   midi.NoteOnEvent(tick=108, channel=4, data=[40, 0]),
   midi.NoteOnEvent(tick=0, channel=4, data=[46, 100]),
   midi.NoteOnEvent(tick=0, channel=4, data=[53, 100]),
   midi.NoteOnEvent(tick=0, channel=4, data=[58, 100]),
   midi.NoteOnEvent(tick=108, channel=4, data=[58, 0]),
   midi.NoteOnEvent(tick=0, channel=4, data=[53, 0]),
   midi.NoteOnEvent(tick=0, channel=4, data=[46, 0]),
   midi.NoteOnEvent(tick=0, channel=4, data=[46, 100]),
   midi.NoteOnEvent(tick=0, channel=4, data=[53, 100]),
   midi.NoteOnEvent(tick=0, channel=4, data=[58, 100]),
   midi.NoteOnEvent(tick=108, channel=4, data=[58, 0]),
   midi.NoteOnEvent(tick=0, channel=4, data=[53, 0]),
   midi.NoteOnEvent(tick=0, channel=4, data=[46, 0]),
   midi.NoteOnEvent(tick=0, channel=4, data=[45, 100]),
   midi.NoteOnEvent(tick=0, channel=4, data=[52, 100]),
   midi.NoteOnEvent(tick=0, channel=4, data=[57, 100]),
   midi.NoteOnEvent(tick=108, channel=4, data=[57, 0]),
   midi.NoteOnEvent(tick=0, channel=4, data=[52, 0]),
   midi.NoteOnEvent(tick=0, channel=4, data=[45, 0]),
   midi.NoteOnEvent(tick=0, channel=4, data=[40, 100]),
   midi.NoteOnEvent(tick=108, channel=4, data=[40, 0]),
   midi.NoteOnEvent(tick=0, channel=4, data=[47, 100]),
   midi.NoteOnEvent(tick=0, channel=4, data=[40, 100]),
   midi.NoteOnEvent(tick=54, channel=4, data=[40, 0]),
   midi.NoteOnEvent(tick=0, channel=4, data=[47, 0]),
   midi.NoteOnEvent(tick=0, channel=4, data=[47, 100]),
   midi.NoteOnEvent(tick=0, channel=4, data=[40, 100]),
   midi.NoteOnEvent(tick=54, channel=4, data=[40, 0]),
   midi.NoteOnEvent(tick=0, channel=4, data=[47, 0]),
   midi.NoteOnEvent(tick=0, channel=4, data=[40, 100]),
   midi.NoteOnEvent(tick=108, channel=4, data=[40, 0]),
   midi.NoteOnEvent(tick=0, channel=4, data=[47, 100]),
   midi.NoteOnEvent(tick=0, channel=4, data=[40, 100]),
   midi.NoteOnEvent(tick=54, channel=4, data=[40, 0]),
   midi.NoteOnEvent(tick=0, channel=4, data=[47, 0]),
   midi.NoteOnEvent(tick=0, channel=4, data=[47, 100]),
   midi.NoteOnEvent(tick=0, channel=4, data=[40, 100]),
   midi.NoteOnEvent(tick=54, channel=4, data=[40, 0]),
   midi.NoteOnEvent(tick=0, channel=4, data=[47, 0]),
   midi.NoteOnEvent(tick=0, channel=4, data=[40, 100]),
   midi.NoteOnEvent(tick=108, channel=4, data=[40, 0]),
   midi.NoteOnEvent(tick=0, channel=4, data=[52, 100]),
   midi.NoteOnEvent(tick=0, channel=4, data=[55, 100]),
   midi.NoteOnEvent(tick=108, channel=4, data=[55, 0]),
   midi.NoteOnEvent(tick=0, channel=4, data=[52, 0]),
   midi.NoteOnEvent(tick=0, channel=4, data=[52, 100]),
   midi.NoteOnEvent(tick=0, channel=4, data=[55, 100]),
   midi.NoteOnEvent(tick=108, channel=4, data=[55, 0]),
   midi.NoteOnEvent(tick=0, channel=4, data=[52, 0]),
   midi.NoteOnEvent(tick=0, channel=4, data=[54, 100]),
   midi.NoteOnEvent(tick=0, channel=4, data=[51, 100]),
   midi.NoteOnEvent(tick=108, channel=4, data=[51, 0]),
   midi.NoteOnEvent(tick=0, channel=4, data=[54, 0]),
   midi.NoteOnEvent(tick=0, channel=4, data=[52, 100]),
   midi.NoteOnEvent(tick=0, channel=4, data=[55, 100]),
   midi.NoteOnEvent(tick=108, channel=4, data=[55, 0]),
   midi.NoteOnEvent(tick=0, channel=4, data=[52, 0]),
   midi.NoteOnEvent(tick=0, channel=4, data=[47, 100]),
   midi.NoteOnEvent(tick=0, channel=4, data=[40, 100]),
   midi.NoteOnEvent(tick=54, channel=4, data=[40, 0]),
   midi.NoteOnEvent(tick=0, channel=4, data=[47, 0]),
   midi.NoteOnEvent(tick=0, channel=4, data=[47, 100]),
   midi.NoteOnEvent(tick=0, channel=4, data=[40, 100]),
   midi.NoteOnEvent(tick=54, channel=4, data=[40, 0]),
   midi.NoteOnEvent(tick=0, channel=4, data=[47, 0]),
   midi.NoteOnEvent(tick=0, channel=4, data=[40, 100]),
   midi.NoteOnEvent(tick=108, channel=4, data=[40, 0]),
   midi.NoteOnEvent(tick=0, channel=4, data=[47, 100]),
   midi.NoteOnEvent(tick=0, channel=4, data=[40, 100]),
   midi.NoteOnEvent(tick=54, channel=4, data=[40, 0]),
   midi.NoteOnEvent(tick=0, channel=4, data=[47, 0]),
   midi.NoteOnEvent(tick=0, channel=4, data=[47, 100]),
   midi.NoteOnEvent(tick=0, channel=4, data=[40, 100]),
   midi.NoteOnEvent(tick=54, channel=4, data=[40, 0]),
   midi.NoteOnEvent(tick=0, channel=4, data=[47, 0]),
   midi.NoteOnEvent(tick=0, channel=4, data=[40, 100]),
   midi.NoteOnEvent(tick=108, channel=4, data=[40, 0]),
   midi.NoteOnEvent(tick=0, channel=4, data=[46, 100]),
   midi.NoteOnEvent(tick=0, channel=4, data=[53, 100]),
   midi.NoteOnEvent(tick=0, channel=4, data=[58, 100]),
   midi.NoteOnEvent(tick=108, channel=4, data=[58, 0]),
   midi.NoteOnEvent(tick=0, channel=4, data=[53, 0]),
   midi.NoteOnEvent(tick=0, channel=4, data=[46, 0]),
   midi.NoteOnEvent(tick=0, channel=4, data=[46, 100]),
   midi.NoteOnEvent(tick=0, channel=4, data=[53, 100]),
   midi.NoteOnEvent(tick=0, channel=4, data=[58, 100]),
   midi.NoteOnEvent(tick=108, channel=4, data=[58, 0]),
   midi.NoteOnEvent(tick=0, channel=4, data=[53, 0]),
   midi.NoteOnEvent(tick=0, channel=4, data=[46, 0]),
   midi.NoteOnEvent(tick=0, channel=4, data=[45, 100]),
   midi.NoteOnEvent(tick=0, channel=4, data=[52, 100]),
   midi.NoteOnEvent(tick=0, channel=4, data=[57, 100]),
   midi.NoteOnEvent(tick=108, channel=4, data=[57, 0]),
   midi.NoteOnEvent(tick=0, channel=4, data=[52, 0]),
   midi.NoteOnEvent(tick=0, channel=4, data=[45, 0]),
   midi.NoteOnEvent(tick=0, channel=4, data=[58, 100]),
   midi.NoteOnEvent(tick=0, channel=4, data=[53, 100]),
   midi.NoteOnEvent(tick=0, channel=4, data=[46, 100]),
   midi.NoteOnEvent(tick=216, channel=4, data=[46, 0]),
   midi.NoteOnEvent(tick=0, channel=4, data=[53, 0]),
   midi.NoteOnEvent(tick=0, channel=4, data=[58, 0]),
   midi.NoteOnEvent(tick=0, channel=4, data=[41, 100]),
   midi.NoteOnEvent(tick=0, channel=4, data=[53, 100]),
   midi.NoteOnEvent(tick=0, channel=4, data=[48, 100]),
   midi.NoteOnEvent(tick=216, channel=4, data=[48, 0]),
   midi.NoteOnEvent(tick=0, channel=4, data=[53, 0]),
   midi.NoteOnEvent(tick=0, channel=4, data=[41, 0]),
   midi.NoteOnEvent(tick=0, channel=4, data=[40, 100]),
   midi.NoteOnEvent(tick=108, channel=4, data=[40, 0]),
   midi.NoteOnEvent(tick=0, channel=4, data=[47, 100]),
   midi.NoteOnEvent(tick=0, channel=4, data=[40, 100]),
   midi.NoteOnEvent(tick=54, channel=4, data=[40, 0]),
   midi.NoteOnEvent(tick=0, channel=4, data=[47, 0]),
   midi.NoteOnEvent(tick=0, channel=4, data=[47, 100]),
   midi.NoteOnEvent(tick=0, channel=4, data=[40, 100]),
   midi.NoteOnEvent(tick=54, channel=4, data=[40, 0]),
   midi.NoteOnEvent(tick=0, channel=4, data=[47, 0]),
   midi.NoteOnEvent(tick=0, channel=4, data=[40, 100]),
   midi.NoteOnEvent(tick=108, channel=4, data=[40, 0]),
   midi.NoteOnEvent(tick=0, channel=4, data=[47, 100]),
   midi.NoteOnEvent(tick=0, channel=4, data=[40, 100]),
   midi.NoteOnEvent(tick=54, channel=4, data=[40, 0]),
   midi.NoteOnEvent(tick=0, channel=4, data=[47, 0]),
   midi.NoteOnEvent(tick=0, channel=4, data=[47, 100]),
   midi.NoteOnEvent(tick=0, channel=4, data=[40, 100]),
   midi.NoteOnEvent(tick=54, channel=4, data=[40, 0]),
   midi.NoteOnEvent(tick=0, channel=4, data=[47, 0]),
   midi.NoteOnEvent(tick=0, channel=4, data=[40, 100]),
   midi.NoteOnEvent(tick=108, channel=4, data=[40, 0]),
   midi.NoteOnEvent(tick=0, channel=4, data=[46, 100]),
   midi.NoteOnEvent(tick=0, channel=4, data=[53, 100]),
   midi.NoteOnEvent(tick=0, channel=4, data=[58, 100]),
   midi.NoteOnEvent(tick=108, channel=4, data=[58, 0]),
   midi.NoteOnEvent(tick=0, channel=4, data=[53, 0]),
   midi.NoteOnEvent(tick=0, channel=4, data=[46, 0]),
   midi.NoteOnEvent(tick=0, channel=4, data=[46, 100]),
   midi.NoteOnEvent(tick=0, channel=4, data=[53, 100]),
   midi.NoteOnEvent(tick=0, channel=4, data=[58, 100]),
   midi.NoteOnEvent(tick=108, channel=4, data=[58, 0]),
   midi.NoteOnEvent(tick=0, channel=4, data=[53, 0]),
   midi.NoteOnEvent(tick=0, channel=4, data=[46, 0]),
   midi.NoteOnEvent(tick=0, channel=4, data=[45, 100]),
   midi.NoteOnEvent(tick=0, channel=4, data=[52, 100]),
   midi.NoteOnEvent(tick=0, channel=4, data=[57, 100]),
   midi.NoteOnEvent(tick=108, channel=4, data=[57, 0]),
   midi.NoteOnEvent(tick=0, channel=4, data=[52, 0]),
   midi.NoteOnEvent(tick=0, channel=4, data=[45, 0]),
   midi.NoteOnEvent(tick=0, channel=4, data=[40, 100]),
   midi.NoteOnEvent(tick=108, channel=4, data=[40, 0]),
   midi.NoteOnEvent(tick=0, channel=4, data=[47, 100]),
   midi.NoteOnEvent(tick=0, channel=4, data=[40, 100]),
   midi.NoteOnEvent(tick=54, channel=4, data=[40, 0]),
   midi.NoteOnEvent(tick=0, channel=4, data=[47, 0]),
   midi.NoteOnEvent(tick=0, channel=4, data=[47, 100]),
   midi.NoteOnEvent(tick=0, channel=4, data=[40, 100]),
   midi.NoteOnEvent(tick=54, channel=4, data=[40, 0]),
   midi.NoteOnEvent(tick=0, channel=4, data=[47, 0]),
   midi.NoteOnEvent(tick=0, channel=4, data=[40, 100]),
   midi.NoteOnEvent(tick=108, channel=4, data=[40, 0]),
   midi.NoteOnEvent(tick=0, channel=4, data=[47, 100]),
   midi.NoteOnEvent(tick=0, channel=4, data=[40, 100]),
   midi.NoteOnEvent(tick=54, channel=4, data=[40, 0]),
   midi.NoteOnEvent(tick=0, channel=4, data=[47, 0]),
   midi.NoteOnEvent(tick=0, channel=4, data=[47, 100]),
   midi.NoteOnEvent(tick=0, channel=4, data=[40, 100]),
   midi.NoteOnEvent(tick=54, channel=4, data=[40, 0]),
   midi.NoteOnEvent(tick=0, channel=4, data=[47, 0]),
   midi.NoteOnEvent(tick=0, channel=4, data=[40, 100]),
   midi.NoteOnEvent(tick=108, channel=4, data=[40, 0]),
   midi.NoteOnEvent(tick=0, channel=4, data=[52, 100]),
   midi.NoteOnEvent(tick=0, channel=4, data=[55, 100]),
   midi.NoteOnEvent(tick=108, channel=4, data=[55, 0]),
   midi.NoteOnEvent(tick=0, channel=4, data=[52, 0]),
   midi.NoteOnEvent(tick=0, channel=4, data=[52, 100]),
   midi.NoteOnEvent(tick=0, channel=4, data=[55, 100]),
   midi.NoteOnEvent(tick=108, channel=4, data=[55, 0]),
   midi.NoteOnEvent(tick=0, channel=4, data=[52, 0]),
   midi.NoteOnEvent(tick=0, channel=4, data=[54, 100]),
   midi.NoteOnEvent(tick=0, channel=4, data=[51, 100]),
   midi.NoteOnEvent(tick=108, channel=4, data=[51, 0]),
   midi.NoteOnEvent(tick=0, channel=4, data=[54, 0]),
   midi.NoteOnEvent(tick=0, channel=4, data=[40, 100]),
   midi.NoteOnEvent(tick=108, channel=4, data=[40, 0]),
   midi.NoteOnEvent(tick=0, channel=4, data=[47, 100]),
   midi.NoteOnEvent(tick=0, channel=4, data=[40, 100]),
   midi.NoteOnEvent(tick=54, channel=4, data=[40, 0]),
   midi.NoteOnEvent(tick=0, channel=4, data=[47, 0]),
   midi.NoteOnEvent(tick=0, channel=4, data=[47, 100]),
   midi.NoteOnEvent(tick=0, channel=4, data=[40, 100]),
   midi.NoteOnEvent(tick=54, channel=4, data=[40, 0]),
   midi.NoteOnEvent(tick=0, channel=4, data=[47, 0]),
   midi.NoteOnEvent(tick=0, channel=4, data=[40, 100]),
   midi.NoteOnEvent(tick=108, channel=4, data=[40, 0]),
   midi.NoteOnEvent(tick=0, channel=4, data=[47, 100]),
   midi.NoteOnEvent(tick=0, channel=4, data=[40, 100]),
   midi.NoteOnEvent(tick=54, channel=4, data=[40, 0]),
   midi.NoteOnEvent(tick=0, channel=4, data=[47, 0]),
   midi.NoteOnEvent(tick=0, channel=4, data=[47, 100]),
   midi.NoteOnEvent(tick=0, channel=4, data=[40, 100]),
   midi.NoteOnEvent(tick=54, channel=4, data=[40, 0]),
   midi.NoteOnEvent(tick=0, channel=4, data=[47, 0]),
   midi.NoteOnEvent(tick=0, channel=4, data=[40, 100]),
   midi.NoteOnEvent(tick=108, channel=4, data=[40, 0]),
   midi.NoteOnEvent(tick=0, channel=4, data=[46, 100]),
   midi.NoteOnEvent(tick=0, channel=4, data=[53, 100]),
   midi.NoteOnEvent(tick=0, channel=4, data=[58, 100]),
   midi.NoteOnEvent(tick=108, channel=4, data=[58, 0]),
   midi.NoteOnEvent(tick=0, channel=4, data=[53, 0]),
   midi.NoteOnEvent(tick=0, channel=4, data=[46, 0]),
   midi.NoteOnEvent(tick=0, channel=4, data=[46, 100]),
   midi.NoteOnEvent(tick=0, channel=4, data=[53, 100]),
   midi.NoteOnEvent(tick=0, channel=4, data=[58, 100]),
   midi.NoteOnEvent(tick=108, channel=4, data=[58, 0]),
   midi.NoteOnEvent(tick=0, channel=4, data=[53, 0]),
   midi.NoteOnEvent(tick=0, channel=4, data=[46, 0]),
   midi.NoteOnEvent(tick=0, channel=4, data=[45, 100]),
   midi.NoteOnEvent(tick=0, channel=4, data=[52, 100]),
   midi.NoteOnEvent(tick=0, channel=4, data=[57, 100]),
   midi.NoteOnEvent(tick=108, channel=4, data=[57, 0]),
   midi.NoteOnEvent(tick=0, channel=4, data=[52, 0]),
   midi.NoteOnEvent(tick=0, channel=4, data=[45, 0]),
   midi.NoteOnEvent(tick=0, channel=4, data=[46, 100]),
   midi.NoteOnEvent(tick=0, channel=4, data=[53, 100]),
   midi.NoteOnEvent(tick=0, channel=4, data=[58, 100]),
   midi.NoteOnEvent(tick=108, channel=4, data=[58, 0]),
   midi.NoteOnEvent(tick=0, channel=4, data=[53, 0]),
   midi.NoteOnEvent(tick=0, channel=4, data=[46, 0]),
   midi.NoteOnEvent(tick=0, channel=4, data=[48, 100]),
   midi.NoteOnEvent(tick=0, channel=4, data=[41, 100]),
   midi.NoteOnEvent(tick=0, channel=4, data=[53, 100]),
   midi.NoteOnEvent(tick=108, channel=4, data=[53, 0]),
   midi.NoteOnEvent(tick=0, channel=4, data=[41, 0]),
   midi.NoteOnEvent(tick=0, channel=4, data=[48, 0]),
   midi.NoteOnEvent(tick=0, channel=4, data=[40, 100]),
   midi.NoteOnEvent(tick=108, channel=4, data=[40, 0]),
   midi.NoteOnEvent(tick=0, channel=4, data=[47, 100]),
   midi.NoteOnEvent(tick=0, channel=4, data=[40, 100]),
   midi.NoteOnEvent(tick=54, channel=4, data=[40, 0]),
   midi.NoteOnEvent(tick=0, channel=4, data=[47, 0]),
   midi.NoteOnEvent(tick=0, channel=4, data=[47, 100]),
   midi.NoteOnEvent(tick=0, channel=4, data=[40, 100]),
   midi.NoteOnEvent(tick=54, channel=4, data=[40, 0]),
   midi.NoteOnEvent(tick=0, channel=4, data=[47, 0]),
   midi.NoteOnEvent(tick=0, channel=4, data=[40, 100]),
   midi.NoteOnEvent(tick=108, channel=4, data=[40, 0]),
   midi.NoteOnEvent(tick=0, channel=4, data=[47, 100]),
   midi.NoteOnEvent(tick=0, channel=4, data=[40, 100]),
   midi.NoteOnEvent(tick=54, channel=4, data=[40, 0]),
   midi.NoteOnEvent(tick=0, channel=4, data=[47, 0]),
   midi.NoteOnEvent(tick=0, channel=4, data=[47, 100]),
   midi.NoteOnEvent(tick=0, channel=4, data=[40, 100]),
   midi.NoteOnEvent(tick=54, channel=4, data=[40, 0]),
   midi.NoteOnEvent(tick=0, channel=4, data=[47, 0]),
   midi.NoteOnEvent(tick=0, channel=4, data=[40, 100]),
   midi.NoteOnEvent(tick=108, channel=4, data=[40, 0]),
   midi.NoteOnEvent(tick=0, channel=4, data=[46, 100]),
   midi.NoteOnEvent(tick=0, channel=4, data=[53, 100]),
   midi.NoteOnEvent(tick=0, channel=4, data=[58, 100]),
   midi.NoteOnEvent(tick=108, channel=4, data=[58, 0]),
   midi.NoteOnEvent(tick=0, channel=4, data=[53, 0]),
   midi.NoteOnEvent(tick=0, channel=4, data=[46, 0]),
   midi.NoteOnEvent(tick=0, channel=4, data=[46, 100]),
   midi.NoteOnEvent(tick=0, channel=4, data=[53, 100]),
   midi.NoteOnEvent(tick=0, channel=4, data=[58, 100]),
   midi.NoteOnEvent(tick=108, channel=4, data=[58, 0]),
   midi.NoteOnEvent(tick=0, channel=4, data=[53, 0]),
   midi.NoteOnEvent(tick=0, channel=4, data=[46, 0]),
   midi.NoteOnEvent(tick=0, channel=4, data=[45, 100]),
   midi.NoteOnEvent(tick=0, channel=4, data=[52, 100]),
   midi.NoteOnEvent(tick=0, channel=4, data=[57, 100]),
   midi.NoteOnEvent(tick=108, channel=4, data=[57, 0]),
   midi.NoteOnEvent(tick=0, channel=4, data=[52, 0]),
   midi.NoteOnEvent(tick=0, channel=4, data=[45, 0]),
   midi.NoteOnEvent(tick=0, channel=4, data=[40, 100]),
   midi.NoteOnEvent(tick=108, channel=4, data=[40, 0]),
   midi.NoteOnEvent(tick=0, channel=4, data=[47, 100]),
   midi.NoteOnEvent(tick=0, channel=4, data=[40, 100]),
   midi.NoteOnEvent(tick=54, channel=4, data=[40, 0]),
   midi.NoteOnEvent(tick=0, channel=4, data=[47, 0]),
   midi.NoteOnEvent(tick=0, channel=4, data=[47, 100]),
   midi.NoteOnEvent(tick=0, channel=4, data=[40, 100]),
   midi.NoteOnEvent(tick=54, channel=4, data=[40, 0]),
   midi.NoteOnEvent(tick=0, channel=4, data=[47, 0]),
   midi.NoteOnEvent(tick=0, channel=4, data=[40, 100]),
   midi.NoteOnEvent(tick=108, channel=4, data=[40, 0]),
   midi.NoteOnEvent(tick=0, channel=4, data=[47, 100]),
   midi.NoteOnEvent(tick=0, channel=4, data=[40, 100]),
   midi.NoteOnEvent(tick=54, channel=4, data=[40, 0]),
   midi.NoteOnEvent(tick=0, channel=4, data=[47, 0]),
   midi.NoteOnEvent(tick=0, channel=4, data=[47, 100]),
   midi.NoteOnEvent(tick=0, channel=4, data=[40, 100]),
   midi.NoteOnEvent(tick=54, channel=4, data=[40, 0]),
   midi.NoteOnEvent(tick=0, channel=4, data=[47, 0]),
   midi.NoteOnEvent(tick=0, channel=4, data=[40, 100]),
   midi.NoteOnEvent(tick=108, channel=4, data=[40, 0]),
   midi.NoteOnEvent(tick=0, channel=4, data=[52, 100]),
   midi.NoteOnEvent(tick=0, channel=4, data=[55, 100]),
   midi.NoteOnEvent(tick=108, channel=4, data=[55, 0]),
   midi.NoteOnEvent(tick=0, channel=4, data=[52, 0]),
   midi.NoteOnEvent(tick=0, channel=4, data=[52, 100]),
   midi.NoteOnEvent(tick=0, channel=4, data=[55, 100]),
   midi.NoteOnEvent(tick=108, channel=4, data=[55, 0]),
   midi.NoteOnEvent(tick=0, channel=4, data=[52, 0]),
   midi.NoteOnEvent(tick=0, channel=4, data=[54, 100]),
   midi.NoteOnEvent(tick=0, channel=4, data=[51, 100]),
   midi.NoteOnEvent(tick=108, channel=4, data=[51, 0]),
   midi.NoteOnEvent(tick=0, channel=4, data=[54, 0]),
   midi.NoteOnEvent(tick=0, channel=4, data=[52, 100]),
   midi.NoteOnEvent(tick=0, channel=4, data=[55, 100]),
   midi.NoteOnEvent(tick=108, channel=4, data=[55, 0]),
   midi.NoteOnEvent(tick=0, channel=4, data=[52, 0]),
   midi.NoteOnEvent(tick=0, channel=4, data=[47, 100]),
   midi.NoteOnEvent(tick=0, channel=4, data=[40, 100]),
   midi.NoteOnEvent(tick=54, channel=4, data=[40, 0]),
   midi.NoteOnEvent(tick=0, channel=4, data=[47, 0]),
   midi.NoteOnEvent(tick=0, channel=4, data=[47, 100]),
   midi.NoteOnEvent(tick=0, channel=4, data=[40, 100]),
   midi.NoteOnEvent(tick=54, channel=4, data=[40, 0]),
   midi.NoteOnEvent(tick=0, channel=4, data=[47, 0]),
   midi.NoteOnEvent(tick=0, channel=4, data=[40, 100]),
   midi.NoteOnEvent(tick=108, channel=4, data=[40, 0]),
   midi.NoteOnEvent(tick=0, channel=4, data=[47, 100]),
   midi.NoteOnEvent(tick=0, channel=4, data=[40, 100]),
   midi.NoteOnEvent(tick=54, channel=4, data=[40, 0]),
   midi.NoteOnEvent(tick=0, channel=4, data=[47, 0]),
   midi.NoteOnEvent(tick=0, channel=4, data=[47, 100]),
   midi.NoteOnEvent(tick=0, channel=4, data=[40, 100]),
   midi.NoteOnEvent(tick=54, channel=4, data=[40, 0]),
   midi.NoteOnEvent(tick=0, channel=4, data=[47, 0]),
   midi.NoteOnEvent(tick=0, channel=4, data=[40, 100]),
   midi.NoteOnEvent(tick=108, channel=4, data=[40, 0]),
   midi.NoteOnEvent(tick=0, channel=4, data=[46, 100]),
   midi.NoteOnEvent(tick=0, channel=4, data=[53, 100]),
   midi.NoteOnEvent(tick=0, channel=4, data=[58, 100]),
   midi.NoteOnEvent(tick=108, channel=4, data=[58, 0]),
   midi.NoteOnEvent(tick=0, channel=4, data=[53, 0]),
   midi.NoteOnEvent(tick=0, channel=4, data=[46, 0]),
   midi.NoteOnEvent(tick=0, channel=4, data=[46, 100]),
   midi.NoteOnEvent(tick=0, channel=4, data=[53, 100]),
   midi.NoteOnEvent(tick=0, channel=4, data=[58, 100]),
   midi.NoteOnEvent(tick=108, channel=4, data=[58, 0]),
   midi.NoteOnEvent(tick=0, channel=4, data=[53, 0]),
   midi.NoteOnEvent(tick=0, channel=4, data=[46, 0]),
   midi.NoteOnEvent(tick=0, channel=4, data=[45, 100]),
   midi.NoteOnEvent(tick=0, channel=4, data=[52, 100]),
   midi.NoteOnEvent(tick=0, channel=4, data=[57, 100]),
   midi.NoteOnEvent(tick=108, channel=4, data=[57, 0]),
   midi.NoteOnEvent(tick=0, channel=4, data=[52, 0]),
   midi.NoteOnEvent(tick=0, channel=4, data=[45, 0]),
   midi.NoteOnEvent(tick=0, channel=4, data=[46, 100]),
   midi.NoteOnEvent(tick=0, channel=4, data=[53, 100]),
   midi.NoteOnEvent(tick=0, channel=4, data=[58, 100]),
   midi.NoteOnEvent(tick=216, channel=4, data=[58, 0]),
   midi.NoteOnEvent(tick=0, channel=4, data=[53, 0]),
   midi.NoteOnEvent(tick=0, channel=4, data=[46, 0]),
   midi.NoteOnEvent(tick=0, channel=4, data=[48, 100]),
   midi.NoteOnEvent(tick=0, channel=4, data=[41, 100]),
   midi.NoteOnEvent(tick=0, channel=4, data=[53, 100]),
   midi.NoteOnEvent(tick=216, channel=4, data=[53, 0]),
   midi.NoteOnEvent(tick=0, channel=4, data=[41, 0]),
   midi.NoteOnEvent(tick=0, channel=4, data=[48, 0]),
   midi.NoteOnEvent(tick=0, channel=4, data=[47, 100]),
   midi.NoteOnEvent(tick=0, channel=4, data=[40, 100]),
   midi.NoteOnEvent(tick=0, channel=4, data=[52, 100]),
   midi.NoteOnEvent(tick=216, channel=4, data=[52, 0]),
   midi.NoteOnEvent(tick=0, channel=4, data=[40, 0]),
   midi.NoteOnEvent(tick=0, channel=4, data=[47, 0]),
   midi.NoteOnEvent(tick=216, channel=4, data=[41, 100]),
   midi.NoteOnEvent(tick=0, channel=4, data=[53, 100]),
   midi.NoteOnEvent(tick=0, channel=4, data=[48, 100]),
   midi.NoteOnEvent(tick=108, channel=4, data=[48, 0]),
   midi.NoteOnEvent(tick=0, channel=4, data=[53, 0]),
   midi.NoteOnEvent(tick=0, channel=4, data=[41, 0]),
   midi.NoteOnEvent(tick=108, channel=4, data=[46, 100]),
   midi.NoteOnEvent(tick=0, channel=4, data=[53, 100]),
   midi.NoteOnEvent(tick=0, channel=4, data=[58, 100]),
   midi.NoteOnEvent(tick=108, channel=4, data=[58, 0]),
   midi.NoteOnEvent(tick=0, channel=4, data=[53, 0]),
   midi.NoteOnEvent(tick=0, channel=4, data=[46, 0]),
   midi.NoteOnEvent(tick=108, channel=4, data=[47, 100]),
   midi.NoteOnEvent(tick=0, channel=4, data=[54, 100]),
   midi.NoteOnEvent(tick=0, channel=4, data=[59, 100]),
   midi.NoteOnEvent(tick=108, channel=4, data=[59, 0]),
   midi.NoteOnEvent(tick=0, channel=4, data=[54, 0]),
   midi.NoteOnEvent(tick=0, channel=4, data=[47, 0]),
   midi.NoteOnEvent(tick=108, channel=4, data=[53, 100]),
   midi.NoteOnEvent(tick=0, channel=4, data=[58, 100]),
   midi.NoteOnEvent(tick=0, channel=4, data=[46, 100]),
   midi.NoteOnEvent(tick=108, channel=4, data=[46, 0]),
   midi.NoteOnEvent(tick=0, channel=4, data=[58, 0]),
   midi.NoteOnEvent(tick=0, channel=4, data=[53, 0]),
   midi.NoteOnEvent(tick=108, channel=4, data=[47, 100]),
   midi.NoteOnEvent(tick=0, channel=4, data=[59, 100]),
   midi.NoteOnEvent(tick=0, channel=4, data=[54, 100]),
   midi.NoteOnEvent(tick=108, channel=4, data=[54, 0]),
   midi.NoteOnEvent(tick=0, channel=4, data=[59, 0]),
   midi.NoteOnEvent(tick=0, channel=4, data=[47, 0]),
   midi.NoteOnEvent(tick=108, channel=4, data=[46, 100]),
   midi.NoteOnEvent(tick=0, channel=4, data=[53, 100]),
   midi.NoteOnEvent(tick=0, channel=4, data=[58, 100]),
   midi.NoteOnEvent(tick=108, channel=4, data=[58, 0]),
   midi.NoteOnEvent(tick=0, channel=4, data=[53, 0]),
   midi.NoteOnEvent(tick=0, channel=4, data=[46, 0]),
   midi.NoteOnEvent(tick=108, channel=4, data=[47, 100]),
   midi.NoteOnEvent(tick=0, channel=4, data=[54, 100]),
   midi.NoteOnEvent(tick=0, channel=4, data=[59, 100]),
   midi.NoteOnEvent(tick=108, channel=4, data=[59, 0]),
   midi.NoteOnEvent(tick=0, channel=4, data=[54, 0]),
   midi.NoteOnEvent(tick=0, channel=4, data=[47, 0]),
   midi.NoteOnEvent(tick=108, channel=4, data=[49, 100]),
   midi.NoteOnEvent(tick=0, channel=4, data=[42, 100]),
   midi.NoteOnEvent(tick=0, channel=4, data=[54, 100]),
   midi.NoteOnEvent(tick=214, channel=4, data=[54, 0]),
   midi.NoteOnEvent(tick=0, channel=4, data=[42, 0]),
   midi.NoteOnEvent(tick=0, channel=4, data=[49, 0]),
   midi.NoteOnEvent(tick=2, channel=4, data=[41, 100]),
   midi.NoteOnEvent(tick=0, channel=4, data=[53, 100]),
   midi.NoteOnEvent(tick=0, channel=4, data=[48, 100]),
   midi.NoteOnEvent(tick=108, channel=4, data=[48, 0]),
   midi.NoteOnEvent(tick=0, channel=4, data=[53, 0]),
   midi.NoteOnEvent(tick=0, channel=4, data=[41, 0]),
   midi.NoteOnEvent(tick=108, channel=4, data=[46, 100]),
   midi.NoteOnEvent(tick=0, channel=4, data=[53, 100]),
   midi.NoteOnEvent(tick=0, channel=4, data=[58, 100]),
   midi.NoteOnEvent(tick=108, channel=4, data=[58, 0]),
   midi.NoteOnEvent(tick=0, channel=4, data=[53, 0]),
   midi.NoteOnEvent(tick=0, channel=4, data=[46, 0]),
   midi.NoteOnEvent(tick=108, channel=4, data=[47, 100]),
   midi.NoteOnEvent(tick=0, channel=4, data=[54, 100]),
   midi.NoteOnEvent(tick=0, channel=4, data=[59, 100]),
   midi.NoteOnEvent(tick=108, channel=4, data=[59, 0]),
   midi.NoteOnEvent(tick=0, channel=4, data=[54, 0]),
   midi.NoteOnEvent(tick=0, channel=4, data=[47, 0]),
   midi.NoteOnEvent(tick=108, channel=4, data=[53, 100]),
   midi.NoteOnEvent(tick=0, channel=4, data=[58, 100]),
   midi.NoteOnEvent(tick=0, channel=4, data=[46, 100]),
   midi.NoteOnEvent(tick=108, channel=4, data=[46, 0]),
   midi.NoteOnEvent(tick=0, channel=4, data=[58, 0]),
   midi.NoteOnEvent(tick=0, channel=4, data=[53, 0]),
   midi.NoteOnEvent(tick=108, channel=4, data=[47, 100]),
   midi.NoteOnEvent(tick=0, channel=4, data=[59, 100]),
   midi.NoteOnEvent(tick=0, channel=4, data=[54, 100]),
   midi.NoteOnEvent(tick=108, channel=4, data=[54, 0]),
   midi.NoteOnEvent(tick=0, channel=4, data=[59, 0]),
   midi.NoteOnEvent(tick=0, channel=4, data=[47, 0]),
   midi.NoteOnEvent(tick=108, channel=4, data=[46, 100]),
   midi.NoteOnEvent(tick=0, channel=4, data=[53, 100]),
   midi.NoteOnEvent(tick=0, channel=4, data=[58, 100]),
   midi.NoteOnEvent(tick=108, channel=4, data=[58, 0]),
   midi.NoteOnEvent(tick=0, channel=4, data=[53, 0]),
   midi.NoteOnEvent(tick=0, channel=4, data=[46, 0]),
   midi.NoteOnEvent(tick=108, channel=4, data=[47, 100]),
   midi.NoteOnEvent(tick=0, channel=4, data=[54, 100]),
   midi.NoteOnEvent(tick=0, channel=4, data=[59, 100]),
   midi.NoteOnEvent(tick=108, channel=4, data=[59, 0]),
   midi.NoteOnEvent(tick=0, channel=4, data=[54, 0]),
   midi.NoteOnEvent(tick=0, channel=4, data=[47, 0]),
   midi.NoteOnEvent(tick=108, channel=4, data=[49, 100]),
   midi.NoteOnEvent(tick=0, channel=4, data=[42, 100]),
   midi.NoteOnEvent(tick=0, channel=4, data=[54, 100]),
   midi.NoteOnEvent(tick=214, channel=4, data=[54, 0]),
   midi.NoteOnEvent(tick=0, channel=4, data=[42, 0]),
   midi.NoteOnEvent(tick=0, channel=4, data=[49, 0]),
   midi.NoteOnEvent(tick=2, channel=4, data=[41, 100]),
   midi.NoteOnEvent(tick=0, channel=4, data=[53, 100]),
   midi.NoteOnEvent(tick=0, channel=4, data=[48, 100]),
   midi.NoteOnEvent(tick=108, channel=4, data=[48, 0]),
   midi.NoteOnEvent(tick=0, channel=4, data=[53, 0]),
   midi.NoteOnEvent(tick=0, channel=4, data=[41, 0]),
   midi.NoteOnEvent(tick=108, channel=4, data=[46, 100]),
   midi.NoteOnEvent(tick=0, channel=4, data=[53, 100]),
   midi.NoteOnEvent(tick=0, channel=4, data=[58, 100]),
   midi.NoteOnEvent(tick=108, channel=4, data=[58, 0]),
   midi.NoteOnEvent(tick=0, channel=4, data=[53, 0]),
   midi.NoteOnEvent(tick=0, channel=4, data=[46, 0]),
   midi.NoteOnEvent(tick=108, channel=4, data=[47, 100]),
   midi.NoteOnEvent(tick=0, channel=4, data=[54, 100]),
   midi.NoteOnEvent(tick=0, channel=4, data=[59, 100]),
   midi.NoteOnEvent(tick=108, channel=4, data=[59, 0]),
   midi.NoteOnEvent(tick=0, channel=4, data=[54, 0]),
   midi.NoteOnEvent(tick=0, channel=4, data=[47, 0]),
   midi.NoteOnEvent(tick=108, channel=4, data=[53, 100]),
   midi.NoteOnEvent(tick=0, channel=4, data=[58, 100]),
   midi.NoteOnEvent(tick=0, channel=4, data=[46, 100]),
   midi.NoteOnEvent(tick=108, channel=4, data=[46, 0]),
   midi.NoteOnEvent(tick=0, channel=4, data=[58, 0]),
   midi.NoteOnEvent(tick=0, channel=4, data=[53, 0]),
   midi.NoteOnEvent(tick=108, channel=4, data=[47, 100]),
   midi.NoteOnEvent(tick=0, channel=4, data=[59, 100]),
   midi.NoteOnEvent(tick=0, channel=4, data=[54, 100]),
   midi.NoteOnEvent(tick=108, channel=4, data=[54, 0]),
   midi.NoteOnEvent(tick=0, channel=4, data=[59, 0]),
   midi.NoteOnEvent(tick=0, channel=4, data=[47, 0]),
   midi.NoteOnEvent(tick=108, channel=4, data=[46, 100]),
   midi.NoteOnEvent(tick=0, channel=4, data=[53, 100]),
   midi.NoteOnEvent(tick=0, channel=4, data=[58, 100]),
   midi.NoteOnEvent(tick=108, channel=4, data=[58, 0]),
   midi.NoteOnEvent(tick=0, channel=4, data=[53, 0]),
   midi.NoteOnEvent(tick=0, channel=4, data=[46, 0]),
   midi.NoteOnEvent(tick=108, channel=4, data=[47, 100]),
   midi.NoteOnEvent(tick=0, channel=4, data=[54, 100]),
   midi.NoteOnEvent(tick=0, channel=4, data=[59, 100]),
   midi.NoteOnEvent(tick=108, channel=4, data=[59, 0]),
   midi.NoteOnEvent(tick=0, channel=4, data=[54, 0]),
   midi.NoteOnEvent(tick=0, channel=4, data=[47, 0]),
   midi.NoteOnEvent(tick=108, channel=4, data=[49, 100]),
   midi.NoteOnEvent(tick=0, channel=4, data=[42, 100]),
   midi.NoteOnEvent(tick=0, channel=4, data=[54, 100]),
   midi.NoteOnEvent(tick=214, channel=4, data=[54, 0]),
   midi.NoteOnEvent(tick=0, channel=4, data=[42, 0]),
   midi.NoteOnEvent(tick=0, channel=4, data=[49, 0]),
   midi.NoteOnEvent(tick=2, channel=4, data=[41, 100]),
   midi.NoteOnEvent(tick=0, channel=4, data=[53, 100]),
   midi.NoteOnEvent(tick=0, channel=4, data=[48, 100]),
   midi.NoteOnEvent(tick=108, channel=4, data=[48, 0]),
   midi.NoteOnEvent(tick=0, channel=4, data=[53, 0]),
   midi.NoteOnEvent(tick=0, channel=4, data=[41, 0]),
   midi.NoteOnEvent(tick=108, channel=4, data=[46, 100]),
   midi.NoteOnEvent(tick=0, channel=4, data=[53, 100]),
   midi.NoteOnEvent(tick=0, channel=4, data=[58, 100]),
   midi.NoteOnEvent(tick=108, channel=4, data=[58, 0]),
   midi.NoteOnEvent(tick=0, channel=4, data=[53, 0]),
   midi.NoteOnEvent(tick=0, channel=4, data=[46, 0]),
   midi.NoteOnEvent(tick=108, channel=4, data=[47, 100]),
   midi.NoteOnEvent(tick=0, channel=4, data=[54, 100]),
   midi.NoteOnEvent(tick=0, channel=4, data=[59, 100]),
   midi.NoteOnEvent(tick=108, channel=4, data=[59, 0]),
   midi.NoteOnEvent(tick=0, channel=4, data=[54, 0]),
   midi.NoteOnEvent(tick=0, channel=4, data=[47, 0]),
   midi.NoteOnEvent(tick=108, channel=4, data=[53, 100]),
   midi.NoteOnEvent(tick=0, channel=4, data=[58, 100]),
   midi.NoteOnEvent(tick=0, channel=4, data=[46, 100]),
   midi.NoteOnEvent(tick=108, channel=4, data=[46, 0]),
   midi.NoteOnEvent(tick=0, channel=4, data=[58, 0]),
   midi.NoteOnEvent(tick=0, channel=4, data=[53, 0]),
   midi.NoteOnEvent(tick=108, channel=4, data=[47, 100]),
   midi.NoteOnEvent(tick=0, channel=4, data=[59, 100]),
   midi.NoteOnEvent(tick=0, channel=4, data=[54, 100]),
   midi.NoteOnEvent(tick=108, channel=4, data=[54, 0]),
   midi.NoteOnEvent(tick=0, channel=4, data=[59, 0]),
   midi.NoteOnEvent(tick=0, channel=4, data=[47, 0]),
   midi.NoteOnEvent(tick=108, channel=4, data=[46, 100]),
   midi.NoteOnEvent(tick=0, channel=4, data=[53, 100]),
   midi.NoteOnEvent(tick=0, channel=4, data=[58, 100]),
   midi.NoteOnEvent(tick=108, channel=4, data=[58, 0]),
   midi.NoteOnEvent(tick=0, channel=4, data=[53, 0]),
   midi.NoteOnEvent(tick=0, channel=4, data=[46, 0]),
   midi.NoteOnEvent(tick=108, channel=4, data=[47, 100]),
   midi.NoteOnEvent(tick=0, channel=4, data=[54, 100]),
   midi.NoteOnEvent(tick=0, channel=4, data=[59, 100]),
   midi.NoteOnEvent(tick=108, channel=4, data=[59, 0]),
   midi.NoteOnEvent(tick=0, channel=4, data=[54, 0]),
   midi.NoteOnEvent(tick=0, channel=4, data=[47, 0]),
   midi.NoteOnEvent(tick=108, channel=4, data=[49, 100]),
   midi.NoteOnEvent(tick=0, channel=4, data=[42, 100]),
   midi.NoteOnEvent(tick=0, channel=4, data=[54, 100]),
   midi.NoteOnEvent(tick=214, channel=4, data=[54, 0]),
   midi.NoteOnEvent(tick=0, channel=4, data=[42, 0]),
   midi.NoteOnEvent(tick=0, channel=4, data=[49, 0]),
   midi.NoteOnEvent(tick=2, channel=4, data=[41, 100]),
   midi.NoteOnEvent(tick=0, channel=4, data=[53, 100]),
   midi.NoteOnEvent(tick=0, channel=4, data=[48, 100]),
   midi.NoteOnEvent(tick=108, channel=4, data=[48, 0]),
   midi.NoteOnEvent(tick=0, channel=4, data=[53, 0]),
   midi.NoteOnEvent(tick=0, channel=4, data=[41, 0]),
   midi.NoteOnEvent(tick=108, channel=4, data=[46, 100]),
   midi.NoteOnEvent(tick=0, channel=4, data=[53, 100]),
   midi.NoteOnEvent(tick=0, channel=4, data=[58, 100]),
   midi.NoteOnEvent(tick=108, channel=4, data=[58, 0]),
   midi.NoteOnEvent(tick=0, channel=4, data=[53, 0]),
   midi.NoteOnEvent(tick=0, channel=4, data=[46, 0]),
   midi.NoteOnEvent(tick=108, channel=4, data=[47, 100]),
   midi.NoteOnEvent(tick=0, channel=4, data=[54, 100]),
   midi.NoteOnEvent(tick=0, channel=4, data=[59, 100]),
   midi.NoteOnEvent(tick=108, channel=4, data=[59, 0]),
   midi.NoteOnEvent(tick=0, channel=4, data=[54, 0]),
   midi.NoteOnEvent(tick=0, channel=4, data=[47, 0]),
   midi.NoteOnEvent(tick=108, channel=4, data=[53, 100]),
   midi.NoteOnEvent(tick=0, channel=4, data=[58, 100]),
   midi.NoteOnEvent(tick=0, channel=4, data=[46, 100]),
   midi.NoteOnEvent(tick=108, channel=4, data=[46, 0]),
   midi.NoteOnEvent(tick=0, channel=4, data=[58, 0]),
   midi.NoteOnEvent(tick=0, channel=4, data=[53, 0]),
   midi.NoteOnEvent(tick=108, channel=4, data=[47, 100]),
   midi.NoteOnEvent(tick=0, channel=4, data=[59, 100]),
   midi.NoteOnEvent(tick=0, channel=4, data=[54, 100]),
   midi.NoteOnEvent(tick=108, channel=4, data=[54, 0]),
   midi.NoteOnEvent(tick=0, channel=4, data=[59, 0]),
   midi.NoteOnEvent(tick=0, channel=4, data=[47, 0]),
   midi.NoteOnEvent(tick=108, channel=4, data=[46, 100]),
   midi.NoteOnEvent(tick=0, channel=4, data=[53, 100]),
   midi.NoteOnEvent(tick=0, channel=4, data=[58, 100]),
   midi.NoteOnEvent(tick=108, channel=4, data=[58, 0]),
   midi.NoteOnEvent(tick=0, channel=4, data=[53, 0]),
   midi.NoteOnEvent(tick=0, channel=4, data=[46, 0]),
   midi.NoteOnEvent(tick=108, channel=4, data=[47, 100]),
   midi.NoteOnEvent(tick=0, channel=4, data=[54, 100]),
   midi.NoteOnEvent(tick=0, channel=4, data=[59, 100]),
   midi.NoteOnEvent(tick=108, channel=4, data=[59, 0]),
   midi.NoteOnEvent(tick=0, channel=4, data=[54, 0]),
   midi.NoteOnEvent(tick=0, channel=4, data=[47, 0]),
   midi.NoteOnEvent(tick=108, channel=4, data=[49, 100]),
   midi.NoteOnEvent(tick=0, channel=4, data=[42, 100]),
   midi.NoteOnEvent(tick=0, channel=4, data=[54, 100]),
   midi.NoteOnEvent(tick=214, channel=4, data=[54, 0]),
   midi.NoteOnEvent(tick=0, channel=4, data=[42, 0]),
   midi.NoteOnEvent(tick=0, channel=4, data=[49, 0]),
   midi.NoteOnEvent(tick=2, channel=4, data=[41, 100]),
   midi.NoteOnEvent(tick=0, channel=4, data=[53, 100]),
   midi.NoteOnEvent(tick=0, channel=4, data=[48, 100]),
   midi.NoteOnEvent(tick=108, channel=4, data=[48, 0]),
   midi.NoteOnEvent(tick=0, channel=4, data=[53, 0]),
   midi.NoteOnEvent(tick=0, channel=4, data=[41, 0]),
   midi.NoteOnEvent(tick=108, channel=4, data=[46, 100]),
   midi.NoteOnEvent(tick=0, channel=4, data=[53, 100]),
   midi.NoteOnEvent(tick=0, channel=4, data=[58, 100]),
   midi.NoteOnEvent(tick=108, channel=4, data=[58, 0]),
   midi.NoteOnEvent(tick=0, channel=4, data=[53, 0]),
   midi.NoteOnEvent(tick=0, channel=4, data=[46, 0]),
   midi.NoteOnEvent(tick=108, channel=4, data=[47, 100]),
   midi.NoteOnEvent(tick=0, channel=4, data=[54, 100]),
   midi.NoteOnEvent(tick=0, channel=4, data=[59, 100]),
   midi.NoteOnEvent(tick=108, channel=4, data=[59, 0]),
   midi.NoteOnEvent(tick=0, channel=4, data=[54, 0]),
   midi.NoteOnEvent(tick=0, channel=4, data=[47, 0]),
   midi.NoteOnEvent(tick=108, channel=4, data=[53, 100]),
   midi.NoteOnEvent(tick=0, channel=4, data=[58, 100]),
   midi.NoteOnEvent(tick=0, channel=4, data=[46, 100]),
   midi.NoteOnEvent(tick=108, channel=4, data=[46, 0]),
   midi.NoteOnEvent(tick=0, channel=4, data=[58, 0]),
   midi.NoteOnEvent(tick=0, channel=4, data=[53, 0]),
   midi.NoteOnEvent(tick=108, channel=4, data=[47, 100]),
   midi.NoteOnEvent(tick=0, channel=4, data=[59, 100]),
   midi.NoteOnEvent(tick=0, channel=4, data=[54, 100]),
   midi.NoteOnEvent(tick=108, channel=4, data=[54, 0]),
   midi.NoteOnEvent(tick=0, channel=4, data=[59, 0]),
   midi.NoteOnEvent(tick=0, channel=4, data=[47, 0]),
   midi.NoteOnEvent(tick=108, channel=4, data=[46, 100]),
   midi.NoteOnEvent(tick=0, channel=4, data=[53, 100]),
   midi.NoteOnEvent(tick=0, channel=4, data=[58, 100]),
   midi.NoteOnEvent(tick=108, channel=4, data=[58, 0]),
   midi.NoteOnEvent(tick=0, channel=4, data=[53, 0]),
   midi.NoteOnEvent(tick=0, channel=4, data=[46, 0]),
   midi.NoteOnEvent(tick=108, channel=4, data=[47, 100]),
   midi.NoteOnEvent(tick=0, channel=4, data=[54, 100]),
   midi.NoteOnEvent(tick=0, channel=4, data=[59, 100]),
   midi.NoteOnEvent(tick=108, channel=4, data=[59, 0]),
   midi.NoteOnEvent(tick=0, channel=4, data=[54, 0]),
   midi.NoteOnEvent(tick=0, channel=4, data=[47, 0]),
   midi.NoteOnEvent(tick=108, channel=4, data=[49, 100]),
   midi.NoteOnEvent(tick=0, channel=4, data=[42, 100]),
   midi.NoteOnEvent(tick=0, channel=4, data=[54, 100]),
   midi.NoteOnEvent(tick=214, channel=4, data=[54, 0]),
   midi.NoteOnEvent(tick=0, channel=4, data=[42, 0]),
   midi.NoteOnEvent(tick=0, channel=4, data=[49, 0]),
   midi.NoteOnEvent(tick=2, channel=4, data=[41, 100]),
   midi.NoteOnEvent(tick=0, channel=4, data=[53, 100]),
   midi.NoteOnEvent(tick=0, channel=4, data=[48, 100]),
   midi.NoteOnEvent(tick=108, channel=4, data=[48, 0]),
   midi.NoteOnEvent(tick=0, channel=4, data=[53, 0]),
   midi.NoteOnEvent(tick=0, channel=4, data=[41, 0]),
   midi.NoteOnEvent(tick=108, channel=4, data=[46, 100]),
   midi.NoteOnEvent(tick=0, channel=4, data=[53, 100]),
   midi.NoteOnEvent(tick=0, channel=4, data=[58, 100]),
   midi.NoteOnEvent(tick=108, channel=4, data=[58, 0]),
   midi.NoteOnEvent(tick=0, channel=4, data=[53, 0]),
   midi.NoteOnEvent(tick=0, channel=4, data=[46, 0]),
   midi.NoteOnEvent(tick=108, channel=4, data=[47, 100]),
   midi.NoteOnEvent(tick=0, channel=4, data=[54, 100]),
   midi.NoteOnEvent(tick=0, channel=4, data=[59, 100]),
   midi.NoteOnEvent(tick=108, channel=4, data=[59, 0]),
   midi.NoteOnEvent(tick=0, channel=4, data=[54, 0]),
   midi.NoteOnEvent(tick=0, channel=4, data=[47, 0]),
   midi.NoteOnEvent(tick=108, channel=4, data=[53, 100]),
   midi.NoteOnEvent(tick=0, channel=4, data=[58, 100]),
   midi.NoteOnEvent(tick=0, channel=4, data=[46, 100]),
   midi.NoteOnEvent(tick=108, channel=4, data=[46, 0]),
   midi.NoteOnEvent(tick=0, channel=4, data=[58, 0]),
   midi.NoteOnEvent(tick=0, channel=4, data=[53, 0]),
   midi.NoteOnEvent(tick=108, channel=4, data=[47, 100]),
   midi.NoteOnEvent(tick=0, channel=4, data=[59, 100]),
   midi.NoteOnEvent(tick=0, channel=4, data=[54, 100]),
   midi.NoteOnEvent(tick=108, channel=4, data=[54, 0]),
   midi.NoteOnEvent(tick=0, channel=4, data=[59, 0]),
   midi.NoteOnEvent(tick=0, channel=4, data=[47, 0]),
   midi.NoteOnEvent(tick=108, channel=4, data=[46, 100]),
   midi.NoteOnEvent(tick=0, channel=4, data=[53, 100]),
   midi.NoteOnEvent(tick=0, channel=4, data=[58, 100]),
   midi.NoteOnEvent(tick=108, channel=4, data=[58, 0]),
   midi.NoteOnEvent(tick=0, channel=4, data=[53, 0]),
   midi.NoteOnEvent(tick=0, channel=4, data=[46, 0]),
   midi.NoteOnEvent(tick=108, channel=4, data=[47, 100]),
   midi.NoteOnEvent(tick=0, channel=4, data=[54, 100]),
   midi.NoteOnEvent(tick=0, channel=4, data=[59, 100]),
   midi.NoteOnEvent(tick=108, channel=4, data=[59, 0]),
   midi.NoteOnEvent(tick=0, channel=4, data=[54, 0]),
   midi.NoteOnEvent(tick=0, channel=4, data=[47, 0]),
   midi.NoteOnEvent(tick=108, channel=4, data=[49, 100]),
   midi.NoteOnEvent(tick=0, channel=4, data=[42, 100]),
   midi.NoteOnEvent(tick=0, channel=4, data=[54, 100]),
   midi.NoteOnEvent(tick=214, channel=4, data=[54, 0]),
   midi.NoteOnEvent(tick=0, channel=4, data=[42, 0]),
   midi.NoteOnEvent(tick=0, channel=4, data=[49, 0]),
   midi.NoteOnEvent(tick=2, channel=4, data=[41, 100]),
   midi.NoteOnEvent(tick=0, channel=4, data=[53, 100]),
   midi.NoteOnEvent(tick=0, channel=4, data=[48, 100]),
   midi.NoteOnEvent(tick=108, channel=4, data=[48, 0]),
   midi.NoteOnEvent(tick=0, channel=4, data=[53, 0]),
   midi.NoteOnEvent(tick=0, channel=4, data=[41, 0]),
   midi.NoteOnEvent(tick=108, channel=4, data=[46, 100]),
   midi.NoteOnEvent(tick=0, channel=4, data=[53, 100]),
   midi.NoteOnEvent(tick=0, channel=4, data=[58, 100]),
   midi.NoteOnEvent(tick=108, channel=4, data=[58, 0]),
   midi.NoteOnEvent(tick=0, channel=4, data=[53, 0]),
   midi.NoteOnEvent(tick=0, channel=4, data=[46, 0]),
   midi.NoteOnEvent(tick=108, channel=4, data=[47, 100]),
   midi.NoteOnEvent(tick=0, channel=4, data=[54, 100]),
   midi.NoteOnEvent(tick=0, channel=4, data=[59, 100]),
   midi.NoteOnEvent(tick=108, channel=4, data=[59, 0]),
   midi.NoteOnEvent(tick=0, channel=4, data=[54, 0]),
   midi.NoteOnEvent(tick=0, channel=4, data=[47, 0]),
   midi.NoteOnEvent(tick=108, channel=4, data=[53, 100]),
   midi.NoteOnEvent(tick=0, channel=4, data=[58, 100]),
   midi.NoteOnEvent(tick=0, channel=4, data=[46, 100]),
   midi.NoteOnEvent(tick=108, channel=4, data=[46, 0]),
   midi.NoteOnEvent(tick=0, channel=4, data=[58, 0]),
   midi.NoteOnEvent(tick=0, channel=4, data=[53, 0]),
   midi.NoteOnEvent(tick=108, channel=4, data=[59, 100]),
   midi.NoteOnEvent(tick=0, channel=4, data=[54, 100]),
   midi.NoteOnEvent(tick=0, channel=4, data=[47, 100]),
   midi.NoteOnEvent(tick=1726, channel=4, data=[47, 0]),
   midi.NoteOnEvent(tick=0, channel=4, data=[54, 0]),
   midi.NoteOnEvent(tick=0, channel=4, data=[59, 0]),
   midi.NoteOnEvent(tick=2, channel=4, data=[49, 100]),
   midi.NoteOnEvent(tick=0, channel=4, data=[42, 100]),
   midi.NoteOnEvent(tick=0, channel=4, data=[54, 100]),
   midi.NoteOnEvent(tick=108, channel=4, data=[54, 0]),
   midi.NoteOnEvent(tick=0, channel=4, data=[42, 0]),
   midi.NoteOnEvent(tick=0, channel=4, data=[49, 0]),
   midi.NoteOnEvent(tick=0, channel=4, data=[41, 100]),
   midi.NoteOnEvent(tick=0, channel=4, data=[53, 100]),
   midi.NoteOnEvent(tick=0, channel=4, data=[48, 100]),
   midi.NoteOnEvent(tick=108, channel=4, data=[48, 0]),
   midi.NoteOnEvent(tick=0, channel=4, data=[53, 0]),
   midi.NoteOnEvent(tick=0, channel=4, data=[41, 0]),
   midi.NoteOnEvent(tick=108, channel=4, data=[41, 100]),
   midi.NoteOnEvent(tick=0, channel=4, data=[53, 100]),
   midi.NoteOnEvent(tick=0, channel=4, data=[48, 100]),
   midi.NoteOnEvent(tick=108, channel=4, data=[48, 0]),
   midi.NoteOnEvent(tick=0, channel=4, data=[53, 0]),
   midi.NoteOnEvent(tick=0, channel=4, data=[41, 0]),
   midi.NoteOnEvent(tick=108, channel=4, data=[41, 100]),
   midi.NoteOnEvent(tick=0, channel=4, data=[53, 100]),
   midi.NoteOnEvent(tick=0, channel=4, data=[48, 100]),
   midi.NoteOnEvent(tick=108, channel=4, data=[48, 0]),
   midi.NoteOnEvent(tick=0, channel=4, data=[53, 0]),
   midi.NoteOnEvent(tick=0, channel=4, data=[41, 0]),
   midi.NoteOnEvent(tick=108, channel=4, data=[41, 100]),
   midi.NoteOnEvent(tick=0, channel=4, data=[53, 100]),
   midi.NoteOnEvent(tick=0, channel=4, data=[48, 100]),
   midi.NoteOnEvent(tick=108, channel=4, data=[48, 0]),
   midi.NoteOnEvent(tick=0, channel=4, data=[53, 0]),
   midi.NoteOnEvent(tick=0, channel=4, data=[41, 0]),
   midi.NoteOnEvent(tick=0, channel=4, data=[40, 100]),
   midi.NoteOnEvent(tick=0, channel=4, data=[47, 100]),
   midi.NoteOnEvent(tick=0, channel=4, data=[52, 100]),
   midi.NoteOnEvent(tick=214, channel=4, data=[52, 0]),
   midi.NoteOnEvent(tick=0, channel=4, data=[47, 0]),
   midi.NoteOnEvent(tick=0, channel=4, data=[40, 0]),
   midi.EndOfTrackEvent(tick=0, data=[])]),
 midi.Track(\
  [midi.PortEvent(tick=0, data=[0]),
   midi.TrackNameEvent(tick=0, text='Solo 1', data=[83, 111, 108, 111, 32, 49]),
   midi.ProgramChangeEvent(tick=0, channel=5, data=[29]),
   midi.ControlChangeEvent(tick=0, channel=5, data=[7, 115]),
   midi.ControlChangeEvent(tick=0, channel=5, data=[10, 65]),
   midi.ControlChangeEvent(tick=0, channel=5, data=[1, 0]),
   midi.PitchWheelEvent(tick=0, channel=5, data=[0, 64]),
   midi.ControlChangeEvent(tick=0, channel=5, data=[11, 100]),
   midi.NoteOnEvent(tick=11340, channel=5, data=[79, 118]),
   midi.NoteOnEvent(tick=54, channel=5, data=[79, 0]),
   midi.NoteOnEvent(tick=0, channel=5, data=[81, 118]),
   midi.NoteOnEvent(tick=54, channel=5, data=[81, 0]),
   midi.NoteOnEvent(tick=0, channel=5, data=[76, 118]),
   midi.ControlChangeEvent(tick=9, channel=5, data=[1, 63]),
   midi.ControlChangeEvent(tick=194, channel=5, data=[1, 0]),
   midi.NoteOnEvent(tick=13, channel=5, data=[76, 0]),
   midi.NoteOnEvent(tick=0, channel=5, data=[79, 118]),
   midi.NoteOnEvent(tick=162, channel=5, data=[79, 0]),
   midi.NoteOnEvent(tick=0, channel=5, data=[81, 118]),
   midi.NoteOnEvent(tick=54, channel=5, data=[81, 0]),
   midi.NoteOnEvent(tick=0, channel=5, data=[76, 118]),
   midi.ControlChangeEvent(tick=5, channel=5, data=[1, 64]),
   midi.ControlChangeEvent(tick=292, channel=5, data=[1, 0]),
   midi.NoteOnEvent(tick=23, channel=5, data=[76, 0]),
   midi.NoteOnEvent(tick=4, channel=5, data=[79, 118]),
   midi.NoteOnEvent(tick=54, channel=5, data=[79, 0]),
   midi.NoteOnEvent(tick=0, channel=5, data=[81, 118]),
   midi.NoteOnEvent(tick=54, channel=5, data=[81, 0]),
   midi.NoteOnEvent(tick=0, channel=5, data=[76, 118]),
   midi.NoteOnEvent(tick=108, channel=5, data=[76, 0]),
   midi.NoteOnEvent(tick=0, channel=5, data=[74, 118]),
   midi.ControlChangeEvent(tick=0, channel=5, data=[1, 62]),
   midi.ControlChangeEvent(tick=181, channel=5, data=[1, 0]),
   midi.NoteOnEvent(tick=31, channel=5, data=[74, 0]),
   midi.NoteOnEvent(tick=4, channel=5, data=[81, 118]),
   midi.NoteOnEvent(tick=108, channel=5, data=[81, 0]),
   midi.NoteOnEvent(tick=0, channel=5, data=[79, 118]),
   midi.ControlChangeEvent(tick=12, channel=5, data=[1, 61]),
   midi.NoteOnEvent(tick=308, channel=5, data=[79, 0]),
   midi.NoteOnEvent(tick=4, channel=5, data=[79, 118]),
   midi.NoteOnEvent(tick=54, channel=5, data=[79, 0]),
   midi.NoteOnEvent(tick=0, channel=5, data=[81, 118]),
   midi.NoteOnEvent(tick=54, channel=5, data=[81, 0]),
   midi.NoteOnEvent(tick=0, channel=5, data=[76, 118]),
   midi.ControlChangeEvent(tick=9, channel=5, data=[1, 63]),
   midi.ControlChangeEvent(tick=194, channel=5, data=[1, 0]),
   midi.NoteOnEvent(tick=13, channel=5, data=[76, 0]),
   midi.NoteOnEvent(tick=0, channel=5, data=[79, 118]),
   midi.NoteOnEvent(tick=162, channel=5, data=[79, 0]),
   midi.NoteOnEvent(tick=0, channel=5, data=[81, 118]),
   midi.NoteOnEvent(tick=54, channel=5, data=[81, 0]),
   midi.NoteOnEvent(tick=0, channel=5, data=[76, 118]),
   midi.ControlChangeEvent(tick=5, channel=5, data=[1, 64]),
   midi.ControlChangeEvent(tick=292, channel=5, data=[1, 0]),
   midi.NoteOnEvent(tick=23, channel=5, data=[76, 0]),
   midi.NoteOnEvent(tick=4, channel=5, data=[79, 118]),
   midi.NoteOnEvent(tick=54, channel=5, data=[79, 0]),
   midi.NoteOnEvent(tick=0, channel=5, data=[81, 118]),
   midi.NoteOnEvent(tick=54, channel=5, data=[81, 0]),
   midi.NoteOnEvent(tick=0, channel=5, data=[76, 118]),
   midi.NoteOnEvent(tick=108, channel=5, data=[76, 0]),
   midi.NoteOnEvent(tick=0, channel=5, data=[74, 118]),
   midi.ControlChangeEvent(tick=0, channel=5, data=[1, 62]),
   midi.ControlChangeEvent(tick=181, channel=5, data=[1, 0]),
   midi.NoteOnEvent(tick=31, channel=5, data=[74, 0]),
   midi.NoteOnEvent(tick=4, channel=5, data=[81, 118]),
   midi.NoteOnEvent(tick=108, channel=5, data=[81, 0]),
   midi.NoteOnEvent(tick=0, channel=5, data=[79, 118]),
   midi.ControlChangeEvent(tick=12, channel=5, data=[1, 61]),
   midi.NoteOnEvent(tick=308, channel=5, data=[79, 0]),
   midi.NoteOnEvent(tick=4, channel=5, data=[79, 118]),
   midi.NoteOnEvent(tick=54, channel=5, data=[79, 0]),
   midi.NoteOnEvent(tick=0, channel=5, data=[81, 118]),
   midi.NoteOnEvent(tick=54, channel=5, data=[81, 0]),
   midi.NoteOnEvent(tick=0, channel=5, data=[76, 118]),
   midi.ControlChangeEvent(tick=9, channel=5, data=[1, 63]),
   midi.ControlChangeEvent(tick=194, channel=5, data=[1, 0]),
   midi.NoteOnEvent(tick=13, channel=5, data=[76, 0]),
   midi.NoteOnEvent(tick=0, channel=5, data=[79, 118]),
   midi.NoteOnEvent(tick=162, channel=5, data=[79, 0]),
   midi.NoteOnEvent(tick=0, channel=5, data=[81, 118]),
   midi.NoteOnEvent(tick=54, channel=5, data=[81, 0]),
   midi.NoteOnEvent(tick=0, channel=5, data=[76, 118]),
   midi.ControlChangeEvent(tick=5, channel=5, data=[1, 64]),
   midi.ControlChangeEvent(tick=292, channel=5, data=[1, 0]),
   midi.NoteOnEvent(tick=23, channel=5, data=[76, 0]),
   midi.NoteOnEvent(tick=4, channel=5, data=[79, 118]),
   midi.NoteOnEvent(tick=54, channel=5, data=[79, 0]),
   midi.NoteOnEvent(tick=0, channel=5, data=[81, 118]),
   midi.NoteOnEvent(tick=54, channel=5, data=[81, 0]),
   midi.NoteOnEvent(tick=0, channel=5, data=[76, 118]),
   midi.NoteOnEvent(tick=108, channel=5, data=[76, 0]),
   midi.NoteOnEvent(tick=0, channel=5, data=[74, 118]),
   midi.ControlChangeEvent(tick=0, channel=5, data=[1, 62]),
   midi.ControlChangeEvent(tick=181, channel=5, data=[1, 0]),
   midi.NoteOnEvent(tick=31, channel=5, data=[74, 0]),
   midi.NoteOnEvent(tick=4, channel=5, data=[81, 118]),
   midi.NoteOnEvent(tick=108, channel=5, data=[81, 0]),
   midi.NoteOnEvent(tick=0, channel=5, data=[79, 118]),
   midi.ControlChangeEvent(tick=12, channel=5, data=[1, 61]),
   midi.NoteOnEvent(tick=308, channel=5, data=[79, 0]),
   midi.NoteOnEvent(tick=4, channel=5, data=[79, 118]),
   midi.NoteOnEvent(tick=54, channel=5, data=[79, 0]),
   midi.NoteOnEvent(tick=0, channel=5, data=[81, 118]),
   midi.NoteOnEvent(tick=54, channel=5, data=[81, 0]),
   midi.NoteOnEvent(tick=0, channel=5, data=[76, 118]),
   midi.ControlChangeEvent(tick=9, channel=5, data=[1, 63]),
   midi.ControlChangeEvent(tick=194, channel=5, data=[1, 0]),
   midi.NoteOnEvent(tick=13, channel=5, data=[76, 0]),
   midi.NoteOnEvent(tick=0, channel=5, data=[79, 118]),
   midi.NoteOnEvent(tick=162, channel=5, data=[79, 0]),
   midi.NoteOnEvent(tick=0, channel=5, data=[81, 118]),
   midi.NoteOnEvent(tick=54, channel=5, data=[81, 0]),
   midi.NoteOnEvent(tick=0, channel=5, data=[76, 118]),
   midi.ControlChangeEvent(tick=5, channel=5, data=[1, 64]),
   midi.ControlChangeEvent(tick=292, channel=5, data=[1, 0]),
   midi.NoteOnEvent(tick=23, channel=5, data=[76, 0]),
   midi.NoteOnEvent(tick=4, channel=5, data=[79, 118]),
   midi.NoteOnEvent(tick=54, channel=5, data=[79, 0]),
   midi.NoteOnEvent(tick=0, channel=5, data=[81, 118]),
   midi.NoteOnEvent(tick=54, channel=5, data=[81, 0]),
   midi.NoteOnEvent(tick=0, channel=5, data=[76, 118]),
   midi.NoteOnEvent(tick=108, channel=5, data=[76, 0]),
   midi.NoteOnEvent(tick=0, channel=5, data=[74, 118]),
   midi.ControlChangeEvent(tick=0, channel=5, data=[1, 62]),
   midi.ControlChangeEvent(tick=181, channel=5, data=[1, 0]),
   midi.NoteOnEvent(tick=31, channel=5, data=[74, 0]),
   midi.NoteOnEvent(tick=4, channel=5, data=[81, 118]),
   midi.NoteOnEvent(tick=108, channel=5, data=[81, 0]),
   midi.NoteOnEvent(tick=0, channel=5, data=[79, 118]),
   midi.ControlChangeEvent(tick=12, channel=5, data=[1, 61]),
   midi.NoteOnEvent(tick=308, channel=5, data=[79, 0]),
   midi.ControlChangeEvent(tick=99, channel=5, data=[1, 0]),
   midi.NoteOnEvent(tick=42349, channel=5, data=[74, 127]),
   midi.PitchWheelEvent(tick=12, channel=5, data=[0, 64]),
   midi.PitchWheelEvent(tick=6, channel=5, data=[0, 68]),
   midi.PitchWheelEvent(tick=1, channel=5, data=[0, 72]),
   midi.PitchWheelEvent(tick=4, channel=5, data=[0, 76]),
   midi.PitchWheelEvent(tick=4, channel=5, data=[0, 81]),
   midi.PitchWheelEvent(tick=3, channel=5, data=[0, 85]),
   midi.PitchWheelEvent(tick=6, channel=5, data=[0, 89]),
   midi.PitchWheelEvent(tick=1, channel=5, data=[0, 93]),
   midi.PitchWheelEvent(tick=4, channel=5, data=[0, 98]),
   midi.PitchWheelEvent(tick=4, channel=5, data=[0, 102]),
   midi.PitchWheelEvent(tick=3, channel=5, data=[0, 106]),
   midi.PitchWheelEvent(tick=6, channel=5, data=[0, 110]),
   midi.PitchWheelEvent(tick=1, channel=5, data=[0, 115]),
   midi.PitchWheelEvent(tick=4, channel=5, data=[0, 119]),
   midi.PitchWheelEvent(tick=4, channel=5, data=[0, 123]),
   midi.PitchWheelEvent(tick=3, channel=5, data=[127, 127]),
   midi.PitchWheelEvent(tick=18, channel=5, data=[0, 64]),
   midi.NoteOnEvent(tick=24, channel=5, data=[74, 0]),
   midi.NoteOnEvent(tick=0, channel=5, data=[76, 127]),
   midi.NoteOnEvent(tick=108, channel=5, data=[76, 0]),
   midi.NoteOnEvent(tick=0, channel=5, data=[81, 127]),
   midi.NoteOnEvent(tick=54, channel=5, data=[81, 0]),
   midi.NoteOnEvent(tick=0, channel=5, data=[76, 127]),
   midi.NoteOnEvent(tick=54, channel=5, data=[76, 0]),
   midi.NoteOnEvent(tick=0, channel=5, data=[79, 127]),
   midi.NoteOnEvent(tick=54, channel=5, data=[79, 0]),
   midi.NoteOnEvent(tick=0, channel=5, data=[76, 127]),
   midi.NoteOnEvent(tick=54, channel=5, data=[76, 0]),
   midi.NoteOnEvent(tick=0, channel=5, data=[78, 127]),
   midi.NoteOnEvent(tick=54, channel=5, data=[78, 0]),
   midi.NoteOnEvent(tick=0, channel=5, data=[76, 127]),
   midi.NoteOnEvent(tick=54, channel=5, data=[76, 0]),
   midi.NoteOnEvent(tick=0, channel=5, data=[74, 127]),
   midi.NoteOnEvent(tick=54, channel=5, data=[74, 0]),
   midi.NoteOnEvent(tick=0, channel=5, data=[76, 127]),
   midi.NoteOnEvent(tick=54, channel=5, data=[76, 0]),
   midi.NoteOnEvent(tick=0, channel=5, data=[81, 127]),
   midi.NoteOnEvent(tick=54, channel=5, data=[81, 0]),
   midi.NoteOnEvent(tick=0, channel=5, data=[76, 127]),
   midi.NoteOnEvent(tick=54, channel=5, data=[76, 0]),
   midi.NoteOnEvent(tick=0, channel=5, data=[79, 127]),
   midi.NoteOnEvent(tick=54, channel=5, data=[79, 0]),
   midi.NoteOnEvent(tick=0, channel=5, data=[76, 127]),
   midi.NoteOnEvent(tick=54, channel=5, data=[76, 0]),
   midi.NoteOnEvent(tick=0, channel=5, data=[78, 127]),
   midi.NoteOnEvent(tick=54, channel=5, data=[78, 0]),
   midi.NoteOnEvent(tick=0, channel=5, data=[76, 127]),
   midi.NoteOnEvent(tick=54, channel=5, data=[76, 0]),
   midi.NoteOnEvent(tick=0, channel=5, data=[74, 127]),
   midi.NoteOnEvent(tick=54, channel=5, data=[74, 0]),
   midi.NoteOnEvent(tick=0, channel=5, data=[76, 127]),
   midi.NoteOnEvent(tick=54, channel=5, data=[76, 0]),
   midi.NoteOnEvent(tick=0, channel=5, data=[81, 127]),
   midi.NoteOnEvent(tick=54, channel=5, data=[81, 0]),
   midi.NoteOnEvent(tick=0, channel=5, data=[76, 127]),
   midi.NoteOnEvent(tick=54, channel=5, data=[76, 0]),
   midi.NoteOnEvent(tick=0, channel=5, data=[79, 127]),
   midi.NoteOnEvent(tick=54, channel=5, data=[79, 0]),
   midi.NoteOnEvent(tick=0, channel=5, data=[76, 127]),
   midi.NoteOnEvent(tick=54, channel=5, data=[76, 0]),
   midi.NoteOnEvent(tick=0, channel=5, data=[78, 127]),
   midi.NoteOnEvent(tick=54, channel=5, data=[78, 0]),
   midi.NoteOnEvent(tick=0, channel=5, data=[76, 127]),
   midi.NoteOnEvent(tick=54, channel=5, data=[76, 0]),
   midi.NoteOnEvent(tick=0, channel=5, data=[74, 127]),
   midi.NoteOnEvent(tick=54, channel=5, data=[74, 0]),
   midi.NoteOnEvent(tick=0, channel=5, data=[76, 127]),
   midi.NoteOnEvent(tick=54, channel=5, data=[76, 0]),
   midi.NoteOnEvent(tick=0, channel=5, data=[81, 127]),
   midi.NoteOnEvent(tick=54, channel=5, data=[81, 0]),
   midi.NoteOnEvent(tick=0, channel=5, data=[76, 127]),
   midi.NoteOnEvent(tick=54, channel=5, data=[76, 0]),
   midi.NoteOnEvent(tick=0, channel=5, data=[79, 127]),
   midi.NoteOnEvent(tick=54, channel=5, data=[79, 0]),
   midi.NoteOnEvent(tick=0, channel=5, data=[76, 127]),
   midi.NoteOnEvent(tick=54, channel=5, data=[76, 0]),
   midi.NoteOnEvent(tick=0, channel=5, data=[78, 127]),
   midi.NoteOnEvent(tick=54, channel=5, data=[78, 0]),
   midi.NoteOnEvent(tick=0, channel=5, data=[76, 127]),
   midi.NoteOnEvent(tick=54, channel=5, data=[76, 0]),
   midi.NoteOnEvent(tick=0, channel=5, data=[73, 127]),
   midi.NoteOnEvent(tick=54, channel=5, data=[73, 0]),
   midi.NoteOnEvent(tick=0, channel=5, data=[71, 127]),
   midi.NoteOnEvent(tick=54, channel=5, data=[71, 0]),
   midi.NoteOnEvent(tick=0, channel=5, data=[73, 127]),
   midi.NoteOnEvent(tick=54, channel=5, data=[73, 0]),
   midi.NoteOnEvent(tick=0, channel=5, data=[71, 127]),
   midi.NoteOnEvent(tick=54, channel=5, data=[71, 0]),
   midi.NoteOnEvent(tick=0, channel=5, data=[69, 127]),
   midi.NoteOnEvent(tick=108, channel=5, data=[69, 0]),
   midi.NoteOnEvent(tick=0, channel=5, data=[67, 127]),
   midi.NoteOnEvent(tick=108, channel=5, data=[67, 0]),
   midi.NoteOnEvent(tick=0, channel=5, data=[64, 127]),
   midi.NoteOnEvent(tick=108, channel=5, data=[64, 0]),
   midi.NoteOnEvent(tick=0, channel=5, data=[73, 127]),
   midi.NoteOnEvent(tick=0, channel=5, data=[69, 127]),
   midi.PitchWheelEvent(tick=9, channel=5, data=[0, 64]),
   midi.PitchWheelEvent(tick=3, channel=5, data=[0, 65]),
   midi.PitchWheelEvent(tick=6, channel=5, data=[0, 66]),
   midi.PitchWheelEvent(tick=1, channel=5, data=[0, 68]),
   midi.PitchWheelEvent(tick=4, channel=5, data=[0, 69]),
   midi.PitchWheelEvent(tick=4, channel=5, data=[0, 71]),
   midi.PitchWheelEvent(tick=3, channel=5, data=[0, 72]),
   midi.PitchWheelEvent(tick=6, channel=5, data=[0, 74]),
   midi.PitchWheelEvent(tick=1, channel=5, data=[0, 75]),
   midi.PitchWheelEvent(tick=4, channel=5, data=[0, 77]),
   midi.PitchWheelEvent(tick=4, channel=5, data=[0, 78]),
   midi.PitchWheelEvent(tick=3, channel=5, data=[0, 80]),
   midi.PitchWheelEvent(tick=6, channel=5, data=[0, 81]),
   midi.PitchWheelEvent(tick=1, channel=5, data=[0, 83]),
   midi.PitchWheelEvent(tick=4, channel=5, data=[0, 84]),
   midi.PitchWheelEvent(tick=4, channel=5, data=[0, 86]),
   midi.PitchWheelEvent(tick=3, channel=5, data=[0, 87]),
   midi.PitchWheelEvent(tick=6, channel=5, data=[0, 89]),
   midi.PitchWheelEvent(tick=1, channel=5, data=[0, 90]),
   midi.PitchWheelEvent(tick=4, channel=5, data=[0, 92]),
   midi.PitchWheelEvent(tick=4, channel=5, data=[0, 93]),
   midi.PitchWheelEvent(tick=3, channel=5, data=[0, 95]),
   midi.PitchWheelEvent(tick=6, channel=5, data=[0, 96]),
   midi.PitchWheelEvent(tick=1, channel=5, data=[0, 98]),
   midi.PitchWheelEvent(tick=4, channel=5, data=[0, 99]),
   midi.PitchWheelEvent(tick=4, channel=5, data=[0, 101]),
   midi.PitchWheelEvent(tick=3, channel=5, data=[0, 102]),
   midi.PitchWheelEvent(tick=6, channel=5, data=[0, 104]),
   midi.PitchWheelEvent(tick=1, channel=5, data=[0, 105]),
   midi.PitchWheelEvent(tick=4, channel=5, data=[0, 107]),
   midi.PitchWheelEvent(tick=4, channel=5, data=[0, 108]),
   midi.PitchWheelEvent(tick=3, channel=5, data=[0, 110]),
   midi.PitchWheelEvent(tick=6, channel=5, data=[0, 111]),
   midi.PitchWheelEvent(tick=1, channel=5, data=[0, 113]),
   midi.PitchWheelEvent(tick=4, channel=5, data=[0, 114]),
   midi.PitchWheelEvent(tick=4, channel=5, data=[0, 116]),
   midi.PitchWheelEvent(tick=3, channel=5, data=[0, 117]),
   midi.PitchWheelEvent(tick=6, channel=5, data=[0, 119]),
   midi.PitchWheelEvent(tick=1, channel=5, data=[0, 120]),
   midi.PitchWheelEvent(tick=4, channel=5, data=[0, 122]),
   midi.PitchWheelEvent(tick=4, channel=5, data=[0, 123]),
   midi.PitchWheelEvent(tick=3, channel=5, data=[0, 125]),
   midi.PitchWheelEvent(tick=6, channel=5, data=[0, 126]),
   midi.PitchWheelEvent(tick=1, channel=5, data=[127, 127]),
   midi.PitchWheelEvent(tick=47, channel=5, data=[0, 64]),
   midi.NoteOnEvent(tick=2, channel=5, data=[69, 0]),
   midi.NoteOnEvent(tick=0, channel=5, data=[73, 0]),
   midi.NoteOnEvent(tick=4, channel=5, data=[67, 127]),
   midi.PitchWheelEvent(tick=162, channel=5, data=[0, 64]),
   midi.PitchWheelEvent(tick=1, channel=5, data=[0, 63]),
   midi.PitchWheelEvent(tick=4, channel=5, data=[0, 61]),
   midi.PitchWheelEvent(tick=4, channel=5, data=[0, 59]),
   midi.PitchWheelEvent(tick=3, channel=5, data=[0, 57]),
   midi.PitchWheelEvent(tick=6, channel=5, data=[0, 55]),
   midi.PitchWheelEvent(tick=1, channel=5, data=[0, 53]),
   midi.PitchWheelEvent(tick=4, channel=5, data=[0, 52]),
   midi.PitchWheelEvent(tick=4, channel=5, data=[0, 50]),
   midi.PitchWheelEvent(tick=3, channel=5, data=[0, 48]),
   midi.PitchWheelEvent(tick=6, channel=5, data=[0, 46]),
   midi.PitchWheelEvent(tick=1, channel=5, data=[0, 44]),
   midi.PitchWheelEvent(tick=4, channel=5, data=[0, 42]),
   midi.PitchWheelEvent(tick=4, channel=5, data=[0, 40]),
   midi.PitchWheelEvent(tick=3, channel=5, data=[0, 39]),
   midi.NoteOnEvent(tick=6, channel=5, data=[67, 0]),
   midi.PitchWheelEvent(tick=0, channel=5, data=[0, 37]),
   midi.PitchWheelEvent(tick=1, channel=5, data=[0, 35]),
   midi.PitchWheelEvent(tick=4, channel=5, data=[0, 33]),
   midi.PitchWheelEvent(tick=4, channel=5, data=[0, 31]),
   midi.PitchWheelEvent(tick=3, channel=5, data=[0, 29]),
   midi.PitchWheelEvent(tick=6, channel=5, data=[0, 27]),
   midi.PitchWheelEvent(tick=1, channel=5, data=[0, 26]),
   midi.PitchWheelEvent(tick=4, channel=5, data=[0, 24]),
   midi.PitchWheelEvent(tick=4, channel=5, data=[0, 22]),
   midi.PitchWheelEvent(tick=3, channel=5, data=[0, 20]),
   midi.PitchWheelEvent(tick=6, channel=5, data=[0, 18]),
   midi.PitchWheelEvent(tick=1, channel=5, data=[0, 16]),
   midi.PitchWheelEvent(tick=4, channel=5, data=[0, 14]),
   midi.PitchWheelEvent(tick=4, channel=5, data=[0, 13]),
   midi.PitchWheelEvent(tick=3, channel=5, data=[0, 11]),
   midi.PitchWheelEvent(tick=6, channel=5, data=[0, 9]),
   midi.PitchWheelEvent(tick=1, channel=5, data=[0, 7]),
   midi.PitchWheelEvent(tick=4, channel=5, data=[0, 5]),
   midi.PitchWheelEvent(tick=4, channel=5, data=[0, 3]),
   midi.PitchWheelEvent(tick=3, channel=5, data=[0, 1]),
   midi.PitchWheelEvent(tick=61, channel=5, data=[0, 64]),
   midi.NoteOnEvent(tick=33569, channel=5, data=[52, 120]),
   midi.NoteOnEvent(tick=108, channel=5, data=[52, 0]),
   midi.NoteOnEvent(tick=0, channel=5, data=[52, 120]),
   midi.NoteOnEvent(tick=108, channel=5, data=[52, 0]),
   midi.NoteOnEvent(tick=0, channel=5, data=[54, 120]),
   midi.NoteOnEvent(tick=108, channel=5, data=[54, 0]),
   midi.NoteOnEvent(tick=0, channel=5, data=[55, 120]),
   midi.NoteOnEvent(tick=108, channel=5, data=[55, 0]),
   midi.NoteOnEvent(tick=0, channel=5, data=[52, 120]),
   midi.NoteOnEvent(tick=216, channel=5, data=[52, 0]),
   midi.NoteOnEvent(tick=108, channel=5, data=[52, 120]),
   midi.NoteOnEvent(tick=108, channel=5, data=[52, 0]),
   midi.NoteOnEvent(tick=0, channel=5, data=[52, 120]),
   midi.NoteOnEvent(tick=108, channel=5, data=[52, 0]),
   midi.NoteOnEvent(tick=108, channel=5, data=[55, 120]),
   midi.NoteOnEvent(tick=108, channel=5, data=[55, 0]),
   midi.NoteOnEvent(tick=0, channel=5, data=[52, 120]),
   midi.NoteOnEvent(tick=108, channel=5, data=[52, 0]),
   midi.NoteOnEvent(tick=0, channel=5, data=[48, 120]),
   midi.NoteOnEvent(tick=108, channel=5, data=[48, 0]),
   midi.NoteOnEvent(tick=0, channel=5, data=[48, 120]),
   midi.NoteOnEvent(tick=108, channel=5, data=[48, 0]),
   midi.NoteOnEvent(tick=0, channel=5, data=[50, 120]),
   midi.NoteOnEvent(tick=108, channel=5, data=[50, 0]),
   midi.NoteOnEvent(tick=0, channel=5, data=[52, 120]),
   midi.NoteOnEvent(tick=108, channel=5, data=[52, 0]),
   midi.NoteOnEvent(tick=0, channel=5, data=[52, 120]),
   midi.NoteOnEvent(tick=72, channel=5, data=[52, 0]),
   midi.NoteOnEvent(tick=0, channel=5, data=[50, 120]),
   midi.NoteOnEvent(tick=72, channel=5, data=[50, 0]),
   midi.NoteOnEvent(tick=0, channel=5, data=[47, 120]),
   midi.NoteOnEvent(tick=72, channel=5, data=[47, 0]),
   midi.NoteOnEvent(tick=0, channel=5, data=[54, 120]),
   midi.NoteOnEvent(tick=108, channel=5, data=[54, 0]),
   midi.NoteOnEvent(tick=0, channel=5, data=[55, 120]),
   midi.NoteOnEvent(tick=108, channel=5, data=[55, 0]),
   midi.NoteOnEvent(tick=0, channel=5, data=[52, 120]),
   midi.NoteOnEvent(tick=216, channel=5, data=[52, 0]),
   midi.NoteOnEvent(tick=108, channel=5, data=[52, 120]),
   midi.NoteOnEvent(tick=108, channel=5, data=[52, 0]),
   midi.NoteOnEvent(tick=108, channel=5, data=[52, 120]),
   midi.NoteOnEvent(tick=108, channel=5, data=[52, 0]),
   midi.NoteOnEvent(tick=0, channel=5, data=[55, 120]),
   midi.NoteOnEvent(tick=108, channel=5, data=[55, 0]),
   midi.NoteOnEvent(tick=0, channel=5, data=[52, 120]),
   midi.NoteOnEvent(tick=108, channel=5, data=[52, 0]),
   midi.NoteOnEvent(tick=0, channel=5, data=[54, 120]),
   midi.NoteOnEvent(tick=108, channel=5, data=[54, 0]),
   midi.NoteOnEvent(tick=0, channel=5, data=[55, 120]),
   midi.NoteOnEvent(tick=108, channel=5, data=[55, 0]),
   midi.NoteOnEvent(tick=0, channel=5, data=[57, 120]),
   midi.NoteOnEvent(tick=216, channel=5, data=[57, 0]),
   midi.NoteOnEvent(tick=0, channel=5, data=[52, 120]),
   midi.NoteOnEvent(tick=108, channel=5, data=[52, 0]),
   midi.NoteOnEvent(tick=0, channel=5, data=[52, 120]),
   midi.NoteOnEvent(tick=108, channel=5, data=[52, 0]),
   midi.NoteOnEvent(tick=0, channel=5, data=[54, 120]),
   midi.NoteOnEvent(tick=108, channel=5, data=[54, 0]),
   midi.NoteOnEvent(tick=0, channel=5, data=[55, 120]),
   midi.NoteOnEvent(tick=108, channel=5, data=[55, 0]),
   midi.NoteOnEvent(tick=0, channel=5, data=[52, 120]),
   midi.NoteOnEvent(tick=216, channel=5, data=[52, 0]),
   midi.NoteOnEvent(tick=108, channel=5, data=[52, 120]),
   midi.NoteOnEvent(tick=108, channel=5, data=[52, 0]),
   midi.NoteOnEvent(tick=0, channel=5, data=[52, 120]),
   midi.NoteOnEvent(tick=108, channel=5, data=[52, 0]),
   midi.NoteOnEvent(tick=108, channel=5, data=[55, 120]),
   midi.NoteOnEvent(tick=108, channel=5, data=[55, 0]),
   midi.NoteOnEvent(tick=0, channel=5, data=[52, 120]),
   midi.NoteOnEvent(tick=108, channel=5, data=[52, 0]),
   midi.NoteOnEvent(tick=0, channel=5, data=[48, 120]),
   midi.NoteOnEvent(tick=108, channel=5, data=[48, 0]),
   midi.NoteOnEvent(tick=0, channel=5, data=[48, 120]),
   midi.NoteOnEvent(tick=108, channel=5, data=[48, 0]),
   midi.NoteOnEvent(tick=0, channel=5, data=[50, 120]),
   midi.NoteOnEvent(tick=108, channel=5, data=[50, 0]),
   midi.NoteOnEvent(tick=0, channel=5, data=[52, 120]),
   midi.NoteOnEvent(tick=108, channel=5, data=[52, 0]),
   midi.NoteOnEvent(tick=0, channel=5, data=[52, 120]),
   midi.NoteOnEvent(tick=72, channel=5, data=[52, 0]),
   midi.NoteOnEvent(tick=0, channel=5, data=[50, 120]),
   midi.NoteOnEvent(tick=72, channel=5, data=[50, 0]),
   midi.NoteOnEvent(tick=0, channel=5, data=[47, 120]),
   midi.NoteOnEvent(tick=72, channel=5, data=[47, 0]),
   midi.NoteOnEvent(tick=0, channel=5, data=[54, 120]),
   midi.NoteOnEvent(tick=108, channel=5, data=[54, 0]),
   midi.NoteOnEvent(tick=0, channel=5, data=[55, 120]),
   midi.NoteOnEvent(tick=108, channel=5, data=[55, 0]),
   midi.NoteOnEvent(tick=0, channel=5, data=[52, 120]),
   midi.NoteOnEvent(tick=216, channel=5, data=[52, 0]),
   midi.NoteOnEvent(tick=108, channel=5, data=[52, 120]),
   midi.NoteOnEvent(tick=108, channel=5, data=[52, 0]),
   midi.NoteOnEvent(tick=108, channel=5, data=[52, 120]),
   midi.NoteOnEvent(tick=108, channel=5, data=[52, 0]),
   midi.NoteOnEvent(tick=0, channel=5, data=[55, 120]),
   midi.NoteOnEvent(tick=108, channel=5, data=[55, 0]),
   midi.NoteOnEvent(tick=0, channel=5, data=[52, 120]),
   midi.NoteOnEvent(tick=108, channel=5, data=[52, 0]),
   midi.NoteOnEvent(tick=0, channel=5, data=[54, 120]),
   midi.NoteOnEvent(tick=108, channel=5, data=[54, 0]),
   midi.NoteOnEvent(tick=0, channel=5, data=[55, 120]),
   midi.NoteOnEvent(tick=108, channel=5, data=[55, 0]),
   midi.NoteOnEvent(tick=0, channel=5, data=[57, 120]),
   midi.NoteOnEvent(tick=216, channel=5, data=[57, 0]),
   midi.NoteOnEvent(tick=0, channel=5, data=[52, 120]),
   midi.NoteOnEvent(tick=108, channel=5, data=[52, 0]),
   midi.NoteOnEvent(tick=0, channel=5, data=[52, 120]),
   midi.NoteOnEvent(tick=108, channel=5, data=[52, 0]),
   midi.NoteOnEvent(tick=0, channel=5, data=[54, 120]),
   midi.NoteOnEvent(tick=108, channel=5, data=[54, 0]),
   midi.NoteOnEvent(tick=0, channel=5, data=[55, 120]),
   midi.NoteOnEvent(tick=108, channel=5, data=[55, 0]),
   midi.NoteOnEvent(tick=0, channel=5, data=[52, 120]),
   midi.NoteOnEvent(tick=216, channel=5, data=[52, 0]),
   midi.NoteOnEvent(tick=108, channel=5, data=[52, 120]),
   midi.NoteOnEvent(tick=108, channel=5, data=[52, 0]),
   midi.NoteOnEvent(tick=0, channel=5, data=[52, 120]),
   midi.NoteOnEvent(tick=108, channel=5, data=[52, 0]),
   midi.NoteOnEvent(tick=108, channel=5, data=[55, 120]),
   midi.NoteOnEvent(tick=108, channel=5, data=[55, 0]),
   midi.NoteOnEvent(tick=0, channel=5, data=[52, 120]),
   midi.NoteOnEvent(tick=108, channel=5, data=[52, 0]),
   midi.NoteOnEvent(tick=0, channel=5, data=[48, 120]),
   midi.NoteOnEvent(tick=108, channel=5, data=[48, 0]),
   midi.NoteOnEvent(tick=0, channel=5, data=[48, 120]),
   midi.NoteOnEvent(tick=108, channel=5, data=[48, 0]),
   midi.NoteOnEvent(tick=0, channel=5, data=[50, 120]),
   midi.NoteOnEvent(tick=108, channel=5, data=[50, 0]),
   midi.NoteOnEvent(tick=0, channel=5, data=[52, 120]),
   midi.NoteOnEvent(tick=108, channel=5, data=[52, 0]),
   midi.NoteOnEvent(tick=0, channel=5, data=[52, 120]),
   midi.NoteOnEvent(tick=72, channel=5, data=[52, 0]),
   midi.NoteOnEvent(tick=0, channel=5, data=[50, 120]),
   midi.NoteOnEvent(tick=72, channel=5, data=[50, 0]),
   midi.NoteOnEvent(tick=0, channel=5, data=[47, 120]),
   midi.NoteOnEvent(tick=72, channel=5, data=[47, 0]),
   midi.NoteOnEvent(tick=0, channel=5, data=[54, 120]),
   midi.NoteOnEvent(tick=108, channel=5, data=[54, 0]),
   midi.NoteOnEvent(tick=0, channel=5, data=[55, 120]),
   midi.NoteOnEvent(tick=108, channel=5, data=[55, 0]),
   midi.NoteOnEvent(tick=0, channel=5, data=[52, 120]),
   midi.NoteOnEvent(tick=216, channel=5, data=[52, 0]),
   midi.NoteOnEvent(tick=108, channel=5, data=[52, 120]),
   midi.NoteOnEvent(tick=108, channel=5, data=[52, 0]),
   midi.NoteOnEvent(tick=108, channel=5, data=[52, 120]),
   midi.NoteOnEvent(tick=108, channel=5, data=[52, 0]),
   midi.NoteOnEvent(tick=0, channel=5, data=[55, 120]),
   midi.NoteOnEvent(tick=108, channel=5, data=[55, 0]),
   midi.NoteOnEvent(tick=0, channel=5, data=[52, 120]),
   midi.NoteOnEvent(tick=108, channel=5, data=[52, 0]),
   midi.NoteOnEvent(tick=0, channel=5, data=[54, 120]),
   midi.NoteOnEvent(tick=108, channel=5, data=[54, 0]),
   midi.NoteOnEvent(tick=0, channel=5, data=[55, 120]),
   midi.NoteOnEvent(tick=108, channel=5, data=[55, 0]),
   midi.NoteOnEvent(tick=0, channel=5, data=[57, 120]),
   midi.NoteOnEvent(tick=216, channel=5, data=[57, 0]),
   midi.NoteOnEvent(tick=0, channel=5, data=[52, 120]),
   midi.NoteOnEvent(tick=108, channel=5, data=[52, 0]),
   midi.NoteOnEvent(tick=0, channel=5, data=[52, 120]),
   midi.NoteOnEvent(tick=108, channel=5, data=[52, 0]),
   midi.NoteOnEvent(tick=0, channel=5, data=[54, 120]),
   midi.NoteOnEvent(tick=108, channel=5, data=[54, 0]),
   midi.NoteOnEvent(tick=0, channel=5, data=[55, 120]),
   midi.NoteOnEvent(tick=108, channel=5, data=[55, 0]),
   midi.NoteOnEvent(tick=0, channel=5, data=[52, 120]),
   midi.NoteOnEvent(tick=212, channel=5, data=[52, 0]),
   midi.NoteOnEvent(tick=220, channel=5, data=[52, 120]),
   midi.NoteOnEvent(tick=324, channel=5, data=[52, 0]),
   midi.NoteOnEvent(tick=0, channel=5, data=[47, 120]),
   midi.NoteOnEvent(tick=320, channel=5, data=[47, 0]),
   midi.NoteOnEvent(tick=4, channel=5, data=[59, 120]),
   midi.NoteOnEvent(tick=216, channel=5, data=[59, 0]),
   midi.NoteOnEvent(tick=0, channel=5, data=[62, 120]),
   midi.NoteOnEvent(tick=1724, channel=5, data=[62, 0]),
   midi.ControlChangeEvent(tick=4, channel=5, data=[7, 115]),
   midi.NoteOnEvent(tick=864, channel=5, data=[72, 127]),
   midi.NoteOnEvent(tick=0, channel=5, data=[69, 127]),
   midi.PitchWheelEvent(tick=1, channel=5, data=[0, 64]),
   midi.PitchWheelEvent(tick=4, channel=5, data=[0, 65]),
   midi.PitchWheelEvent(tick=4, channel=5, data=[0, 67]),
   midi.PitchWheelEvent(tick=3, channel=5, data=[0, 68]),
   midi.PitchWheelEvent(tick=6, channel=5, data=[0, 70]),
   midi.PitchWheelEvent(tick=1, channel=5, data=[0, 71]),
   midi.PitchWheelEvent(tick=4, channel=5, data=[0, 73]),
   midi.PitchWheelEvent(tick=4, channel=5, data=[0, 74]),
   midi.PitchWheelEvent(tick=3, channel=5, data=[0, 76]),
   midi.PitchWheelEvent(tick=6, channel=5, data=[0, 77]),
   midi.PitchWheelEvent(tick=1, channel=5, data=[0, 79]),
   midi.PitchWheelEvent(tick=4, channel=5, data=[0, 80]),
   midi.PitchWheelEvent(tick=4, channel=5, data=[0, 82]),
   midi.PitchWheelEvent(tick=3, channel=5, data=[0, 83]),
   midi.PitchWheelEvent(tick=6, channel=5, data=[0, 85]),
   midi.PitchWheelEvent(tick=1, channel=5, data=[0, 86]),
   midi.PitchWheelEvent(tick=4, channel=5, data=[0, 88]),
   midi.PitchWheelEvent(tick=4, channel=5, data=[0, 89]),
   midi.PitchWheelEvent(tick=3, channel=5, data=[0, 91]),
   midi.PitchWheelEvent(tick=6, channel=5, data=[0, 92]),
   midi.PitchWheelEvent(tick=1, channel=5, data=[0, 94]),
   midi.PitchWheelEvent(tick=4, channel=5, data=[0, 96]),
   midi.PitchWheelEvent(tick=4, channel=5, data=[0, 97]),
   midi.PitchWheelEvent(tick=3, channel=5, data=[0, 99]),
   midi.PitchWheelEvent(tick=6, channel=5, data=[0, 100]),
   midi.PitchWheelEvent(tick=1, channel=5, data=[0, 102]),
   midi.PitchWheelEvent(tick=4, channel=5, data=[0, 103]),
   midi.PitchWheelEvent(tick=4, channel=5, data=[0, 105]),
   midi.PitchWheelEvent(tick=3, channel=5, data=[0, 106]),
   midi.PitchWheelEvent(tick=6, channel=5, data=[0, 108]),
   midi.PitchWheelEvent(tick=1, channel=5, data=[0, 109]),
   midi.PitchWheelEvent(tick=4, channel=5, data=[0, 111]),
   midi.PitchWheelEvent(tick=4, channel=5, data=[0, 112]),
   midi.PitchWheelEvent(tick=3, channel=5, data=[0, 114]),
   midi.PitchWheelEvent(tick=6, channel=5, data=[0, 115]),
   midi.PitchWheelEvent(tick=1, channel=5, data=[0, 117]),
   midi.PitchWheelEvent(tick=4, channel=5, data=[0, 118]),
   midi.PitchWheelEvent(tick=4, channel=5, data=[0, 120]),
   midi.PitchWheelEvent(tick=3, channel=5, data=[0, 121]),
   midi.PitchWheelEvent(tick=6, channel=5, data=[0, 123]),
   midi.PitchWheelEvent(tick=1, channel=5, data=[0, 124]),
   midi.PitchWheelEvent(tick=4, channel=5, data=[0, 126]),
   midi.PitchWheelEvent(tick=4, channel=5, data=[127, 127]),
   midi.NoteOnEvent(tick=167, channel=5, data=[69, 0]),
   midi.NoteOnEvent(tick=0, channel=5, data=[72, 0]),
   midi.NoteOnEvent(tick=4, channel=5, data=[72, 127]),
   midi.NoteOnEvent(tick=0, channel=5, data=[69, 127]),
   midi.PitchWheelEvent(tick=0, channel=5, data=[0, 64]),
   midi.PitchWheelEvent(tick=1, channel=5, data=[0, 65]),
   midi.PitchWheelEvent(tick=4, channel=5, data=[0, 66]),
   midi.PitchWheelEvent(tick=4, channel=5, data=[0, 67]),
   midi.PitchWheelEvent(tick=3, channel=5, data=[0, 68]),
   midi.PitchWheelEvent(tick=6, channel=5, data=[0, 70]),
   midi.PitchWheelEvent(tick=1, channel=5, data=[0, 71]),
   midi.PitchWheelEvent(tick=4, channel=5, data=[0, 72]),
   midi.PitchWheelEvent(tick=4, channel=5, data=[0, 73]),
   midi.PitchWheelEvent(tick=3, channel=5, data=[0, 74]),
   midi.PitchWheelEvent(tick=6, channel=5, data=[0, 76]),
   midi.PitchWheelEvent(tick=1, channel=5, data=[0, 77]),
   midi.PitchWheelEvent(tick=4, channel=5, data=[0, 78]),
   midi.PitchWheelEvent(tick=4, channel=5, data=[0, 79]),
   midi.PitchWheelEvent(tick=3, channel=5, data=[0, 80]),
   midi.PitchWheelEvent(tick=6, channel=5, data=[0, 82]),
   midi.PitchWheelEvent(tick=1, channel=5, data=[0, 83]),
   midi.PitchWheelEvent(tick=4, channel=5, data=[0, 84]),
   midi.PitchWheelEvent(tick=4, channel=5, data=[0, 85]),
   midi.PitchWheelEvent(tick=3, channel=5, data=[0, 86]),
   midi.PitchWheelEvent(tick=6, channel=5, data=[0, 88]),
   midi.PitchWheelEvent(tick=1, channel=5, data=[0, 89]),
   midi.PitchWheelEvent(tick=4, channel=5, data=[0, 90]),
   midi.PitchWheelEvent(tick=4, channel=5, data=[0, 91]),
   midi.PitchWheelEvent(tick=3, channel=5, data=[0, 92]),
   midi.PitchWheelEvent(tick=6, channel=5, data=[0, 94]),
   midi.PitchWheelEvent(tick=1, channel=5, data=[0, 95]),
   midi.PitchWheelEvent(tick=4, channel=5, data=[0, 96]),
   midi.PitchWheelEvent(tick=4, channel=5, data=[0, 97]),
   midi.PitchWheelEvent(tick=3, channel=5, data=[0, 99]),
   midi.PitchWheelEvent(tick=6, channel=5, data=[0, 100]),
   midi.PitchWheelEvent(tick=1, channel=5, data=[0, 101]),
   midi.PitchWheelEvent(tick=4, channel=5, data=[0, 102]),
   midi.PitchWheelEvent(tick=4, channel=5, data=[0, 103]),
   midi.PitchWheelEvent(tick=3, channel=5, data=[0, 105]),
   midi.PitchWheelEvent(tick=6, channel=5, data=[0, 106]),
   midi.PitchWheelEvent(tick=1, channel=5, data=[0, 107]),
   midi.PitchWheelEvent(tick=4, channel=5, data=[0, 108]),
   midi.PitchWheelEvent(tick=4, channel=5, data=[0, 109]),
   midi.PitchWheelEvent(tick=3, channel=5, data=[0, 111]),
   midi.PitchWheelEvent(tick=6, channel=5, data=[0, 112]),
   midi.PitchWheelEvent(tick=1, channel=5, data=[0, 113]),
   midi.PitchWheelEvent(tick=4, channel=5, data=[0, 114]),
   midi.PitchWheelEvent(tick=4, channel=5, data=[0, 115]),
   midi.PitchWheelEvent(tick=3, channel=5, data=[0, 117]),
   midi.PitchWheelEvent(tick=6, channel=5, data=[0, 118]),
   midi.PitchWheelEvent(tick=1, channel=5, data=[0, 119]),
   midi.PitchWheelEvent(tick=4, channel=5, data=[0, 120]),
   midi.PitchWheelEvent(tick=4, channel=5, data=[0, 121]),
   midi.PitchWheelEvent(tick=3, channel=5, data=[0, 123]),
   midi.PitchWheelEvent(tick=6, channel=5, data=[0, 124]),
   midi.PitchWheelEvent(tick=1, channel=5, data=[0, 125]),
   midi.PitchWheelEvent(tick=4, channel=5, data=[0, 126]),
   midi.PitchWheelEvent(tick=4, channel=5, data=[127, 127]),
   midi.NoteOnEvent(tick=131, channel=5, data=[69, 0]),
   midi.NoteOnEvent(tick=0, channel=5, data=[72, 0]),
   midi.NoteOnEvent(tick=4, channel=5, data=[72, 127]),
   midi.NoteOnEvent(tick=0, channel=5, data=[69, 127]),
   midi.PitchWheelEvent(tick=1, channel=5, data=[0, 64]),
   midi.PitchWheelEvent(tick=4, channel=5, data=[0, 65]),
   midi.PitchWheelEvent(tick=4, channel=5, data=[0, 67]),
   midi.PitchWheelEvent(tick=3, channel=5, data=[0, 69]),
   midi.PitchWheelEvent(tick=6, channel=5, data=[0, 71]),
   midi.PitchWheelEvent(tick=1, channel=5, data=[0, 73]),
   midi.PitchWheelEvent(tick=4, channel=5, data=[0, 75]),
   midi.PitchWheelEvent(tick=4, channel=5, data=[0, 77]),
   midi.PitchWheelEvent(tick=3, channel=5, data=[0, 79]),
   midi.PitchWheelEvent(tick=6, channel=5, data=[0, 80]),
   midi.PitchWheelEvent(tick=1, channel=5, data=[0, 82]),
   midi.PitchWheelEvent(tick=4, channel=5, data=[0, 84]),
   midi.PitchWheelEvent(tick=4, channel=5, data=[0, 86]),
   midi.PitchWheelEvent(tick=3, channel=5, data=[0, 88]),
   midi.PitchWheelEvent(tick=6, channel=5, data=[0, 90]),
   midi.PitchWheelEvent(tick=1, channel=5, data=[0, 92]),
   midi.PitchWheelEvent(tick=4, channel=5, data=[0, 94]),
   midi.PitchWheelEvent(tick=4, channel=5, data=[0, 96]),
   midi.PitchWheelEvent(tick=3, channel=5, data=[0, 97]),
   midi.PitchWheelEvent(tick=6, channel=5, data=[0, 99]),
   midi.PitchWheelEvent(tick=1, channel=5, data=[0, 101]),
   midi.PitchWheelEvent(tick=4, channel=5, data=[0, 103]),
   midi.PitchWheelEvent(tick=4, channel=5, data=[0, 105]),
   midi.PitchWheelEvent(tick=3, channel=5, data=[0, 107]),
   midi.PitchWheelEvent(tick=6, channel=5, data=[0, 109]),
   midi.PitchWheelEvent(tick=1, channel=5, data=[0, 111]),
   midi.PitchWheelEvent(tick=4, channel=5, data=[0, 112]),
   midi.PitchWheelEvent(tick=4, channel=5, data=[0, 114]),
   midi.PitchWheelEvent(tick=3, channel=5, data=[0, 116]),
   midi.PitchWheelEvent(tick=6, channel=5, data=[0, 118]),
   midi.PitchWheelEvent(tick=1, channel=5, data=[0, 120]),
   midi.PitchWheelEvent(tick=4, channel=5, data=[0, 122]),
   midi.PitchWheelEvent(tick=4, channel=5, data=[0, 124]),
   midi.PitchWheelEvent(tick=3, channel=5, data=[0, 126]),
   midi.PitchWheelEvent(tick=6, channel=5, data=[127, 127]),
   midi.NoteOnEvent(tick=90, channel=5, data=[69, 0]),
   midi.NoteOnEvent(tick=0, channel=5, data=[72, 0]),
   midi.NoteOnEvent(tick=0, channel=5, data=[72, 127]),
   midi.NoteOnEvent(tick=0, channel=5, data=[69, 127]),
   midi.PitchWheelEvent(tick=12, channel=5, data=[0, 64]),
   midi.PitchWheelEvent(tick=6, channel=5, data=[0, 65]),
   midi.PitchWheelEvent(tick=1, channel=5, data=[0, 67]),
   midi.PitchWheelEvent(tick=4, channel=5, data=[0, 69]),
   midi.PitchWheelEvent(tick=4, channel=5, data=[0, 71]),
   midi.PitchWheelEvent(tick=3, channel=5, data=[0, 72]),
   midi.PitchWheelEvent(tick=6, channel=5, data=[0, 74]),
   midi.PitchWheelEvent(tick=1, channel=5, data=[0, 76]),
   midi.PitchWheelEvent(tick=4, channel=5, data=[0, 78]),
   midi.PitchWheelEvent(tick=4, channel=5, data=[0, 80]),
   midi.PitchWheelEvent(tick=3, channel=5, data=[0, 81]),
   midi.PitchWheelEvent(tick=6, channel=5, data=[0, 83]),
   midi.PitchWheelEvent(tick=1, channel=5, data=[0, 85]),
   midi.PitchWheelEvent(tick=4, channel=5, data=[0, 87]),
   midi.PitchWheelEvent(tick=4, channel=5, data=[0, 88]),
   midi.PitchWheelEvent(tick=3, channel=5, data=[0, 90]),
   midi.PitchWheelEvent(tick=6, channel=5, data=[0, 92]),
   midi.PitchWheelEvent(tick=1, channel=5, data=[0, 94]),
   midi.PitchWheelEvent(tick=4, channel=5, data=[0, 96]),
   midi.PitchWheelEvent(tick=4, channel=5, data=[0, 97]),
   midi.PitchWheelEvent(tick=3, channel=5, data=[0, 99]),
   midi.PitchWheelEvent(tick=6, channel=5, data=[0, 101]),
   midi.PitchWheelEvent(tick=1, channel=5, data=[0, 103]),
   midi.PitchWheelEvent(tick=4, channel=5, data=[0, 104]),
   midi.PitchWheelEvent(tick=4, channel=5, data=[0, 106]),
   midi.PitchWheelEvent(tick=3, channel=5, data=[0, 108]),
   midi.PitchWheelEvent(tick=6, channel=5, data=[0, 110]),
   midi.PitchWheelEvent(tick=1, channel=5, data=[0, 112]),
   midi.PitchWheelEvent(tick=4, channel=5, data=[0, 113]),
   midi.PitchWheelEvent(tick=4, channel=5, data=[0, 115]),
   midi.PitchWheelEvent(tick=3, channel=5, data=[0, 117]),
   midi.PitchWheelEvent(tick=6, channel=5, data=[0, 119]),
   midi.PitchWheelEvent(tick=1, channel=5, data=[0, 120]),
   midi.PitchWheelEvent(tick=4, channel=5, data=[0, 122]),
   midi.PitchWheelEvent(tick=4, channel=5, data=[0, 124]),
   midi.PitchWheelEvent(tick=3, channel=5, data=[0, 126]),
   midi.PitchWheelEvent(tick=6, channel=5, data=[127, 127]),
   midi.NoteOnEvent(tick=180, channel=5, data=[69, 0]),
   midi.NoteOnEvent(tick=0, channel=5, data=[72, 0]),
   midi.NoteOnEvent(tick=0, channel=5, data=[69, 127]),
   midi.NoteOnEvent(tick=0, channel=5, data=[72, 127]),
   midi.PitchWheelEvent(tick=5, channel=5, data=[0, 64]),
   midi.PitchWheelEvent(tick=4, channel=5, data=[0, 66]),
   midi.PitchWheelEvent(tick=3, channel=5, data=[0, 68]),
   midi.PitchWheelEvent(tick=6, channel=5, data=[0, 71]),
   midi.PitchWheelEvent(tick=1, channel=5, data=[0, 73]),
   midi.PitchWheelEvent(tick=4, channel=5, data=[0, 75]),
   midi.PitchWheelEvent(tick=4, channel=5, data=[0, 78]),
   midi.PitchWheelEvent(tick=3, channel=5, data=[0, 80]),
   midi.PitchWheelEvent(tick=6, channel=5, data=[0, 82]),
   midi.PitchWheelEvent(tick=1, channel=5, data=[0, 85]),
   midi.PitchWheelEvent(tick=4, channel=5, data=[0, 87]),
   midi.PitchWheelEvent(tick=4, channel=5, data=[0, 89]),
   midi.PitchWheelEvent(tick=3, channel=5, data=[0, 92]),
   midi.PitchWheelEvent(tick=6, channel=5, data=[0, 94]),
   midi.PitchWheelEvent(tick=1, channel=5, data=[0, 96]),
   midi.PitchWheelEvent(tick=4, channel=5, data=[0, 99]),
   midi.PitchWheelEvent(tick=4, channel=5, data=[0, 101]),
   midi.PitchWheelEvent(tick=3, channel=5, data=[0, 103]),
   midi.PitchWheelEvent(tick=6, channel=5, data=[0, 106]),
   midi.PitchWheelEvent(tick=1, channel=5, data=[0, 108]),
   midi.PitchWheelEvent(tick=4, channel=5, data=[0, 110]),
   midi.PitchWheelEvent(tick=4, channel=5, data=[0, 113]),
   midi.PitchWheelEvent(tick=3, channel=5, data=[0, 115]),
   midi.PitchWheelEvent(tick=6, channel=5, data=[0, 117]),
   midi.PitchWheelEvent(tick=1, channel=5, data=[0, 120]),
   midi.PitchWheelEvent(tick=4, channel=5, data=[0, 122]),
   midi.PitchWheelEvent(tick=4, channel=5, data=[0, 124]),
   midi.PitchWheelEvent(tick=3, channel=5, data=[0, 127]),
   midi.NoteOnEvent(tick=110, channel=5, data=[72, 0]),
   midi.NoteOnEvent(tick=0, channel=5, data=[69, 0]),
   midi.NoteOnEvent(tick=4, channel=5, data=[69, 127]),
   midi.NoteOnEvent(tick=0, channel=5, data=[72, 127]),
   midi.PitchWheelEvent(tick=1, channel=5, data=[0, 64]),
   midi.NoteOnEvent(tick=107, channel=5, data=[72, 0]),
   midi.NoteOnEvent(tick=0, channel=5, data=[69, 0]),
   midi.NoteOnEvent(tick=0, channel=5, data=[69, 127]),
   midi.NoteOnEvent(tick=108, channel=5, data=[69, 0]),
   midi.NoteOnEvent(tick=0, channel=5, data=[67, 127]),
   midi.NoteOnEvent(tick=54, channel=5, data=[67, 0]),
   midi.NoteOnEvent(tick=0, channel=5, data=[69, 127]),
   midi.NoteOnEvent(tick=54, channel=5, data=[69, 0]),
   midi.NoteOnEvent(tick=0, channel=5, data=[67, 127]),
   midi.NoteOnEvent(tick=108, channel=5, data=[67, 0]),
   midi.NoteOnEvent(tick=0, channel=5, data=[67, 127]),
   midi.NoteOnEvent(tick=54, channel=5, data=[67, 0]),
   midi.NoteOnEvent(tick=0, channel=5, data=[69, 127]),
   midi.NoteOnEvent(tick=54, channel=5, data=[69, 0]),
   midi.NoteOnEvent(tick=0, channel=5, data=[67, 127]),
   midi.NoteOnEvent(tick=108, channel=5, data=[67, 0]),
   midi.NoteOnEvent(tick=0, channel=5, data=[74, 127]),
   midi.NoteOnEvent(tick=54, channel=5, data=[74, 0]),
   midi.NoteOnEvent(tick=0, channel=5, data=[71, 127]),
   midi.NoteOnEvent(tick=54, channel=5, data=[71, 0]),
   midi.NoteOnEvent(tick=0, channel=5, data=[74, 127]),
   midi.NoteOnEvent(tick=108, channel=5, data=[74, 0]),
   midi.NoteOnEvent(tick=0, channel=5, data=[71, 127]),
   midi.NoteOnEvent(tick=108, channel=5, data=[71, 0]),
   midi.NoteOnEvent(tick=0, channel=5, data=[74, 127]),
   midi.NoteOnEvent(tick=108, channel=5, data=[74, 0]),
   midi.NoteOnEvent(tick=0, channel=5, data=[71, 127]),
   midi.NoteOnEvent(tick=54, channel=5, data=[71, 0]),
   midi.NoteOnEvent(tick=0, channel=5, data=[70, 127]),
   midi.NoteOnEvent(tick=54, channel=5, data=[70, 0]),
   midi.NoteOnEvent(tick=0, channel=5, data=[71, 127]),
   midi.NoteOnEvent(tick=54, channel=5, data=[71, 0]),
   midi.NoteOnEvent(tick=0, channel=5, data=[74, 127]),
   midi.NoteOnEvent(tick=54, channel=5, data=[74, 0]),
   midi.NoteOnEvent(tick=0, channel=5, data=[71, 127]),
   midi.NoteOnEvent(tick=54, channel=5, data=[71, 0]),
   midi.NoteOnEvent(tick=0, channel=5, data=[70, 127]),
   midi.NoteOnEvent(tick=54, channel=5, data=[70, 0]),
   midi.NoteOnEvent(tick=0, channel=5, data=[71, 127]),
   midi.NoteOnEvent(tick=54, channel=5, data=[71, 0]),
   midi.NoteOnEvent(tick=0, channel=5, data=[74, 127]),
   midi.NoteOnEvent(tick=54, channel=5, data=[74, 0]),
   midi.NoteOnEvent(tick=0, channel=5, data=[71, 127]),
   midi.NoteOnEvent(tick=54, channel=5, data=[71, 0]),
   midi.NoteOnEvent(tick=0, channel=5, data=[69, 127]),
   midi.NoteOnEvent(tick=54, channel=5, data=[69, 0]),
   midi.NoteOnEvent(tick=0, channel=5, data=[71, 127]),
   midi.NoteOnEvent(tick=104, channel=5, data=[71, 0]),
   midi.NoteOnEvent(tick=4, channel=5, data=[74, 127]),
   midi.PitchWheelEvent(tick=5, channel=5, data=[0, 64]),
   midi.PitchWheelEvent(tick=4, channel=5, data=[0, 66]),
   midi.PitchWheelEvent(tick=3, channel=5, data=[0, 68]),
   midi.PitchWheelEvent(tick=6, channel=5, data=[0, 70]),
   midi.PitchWheelEvent(tick=1, channel=5, data=[0, 72]),
   midi.PitchWheelEvent(tick=4, channel=5, data=[0, 74]),
   midi.PitchWheelEvent(tick=4, channel=5, data=[0, 76]),
   midi.PitchWheelEvent(tick=3, channel=5, data=[0, 78]),
   midi.PitchWheelEvent(tick=6, channel=5, data=[0, 80]),
   midi.PitchWheelEvent(tick=1, channel=5, data=[0, 82]),
   midi.PitchWheelEvent(tick=4, channel=5, data=[0, 84]),
   midi.PitchWheelEvent(tick=4, channel=5, data=[0, 86]),
   midi.PitchWheelEvent(tick=3, channel=5, data=[0, 88]),
   midi.PitchWheelEvent(tick=6, channel=5, data=[0, 90]),
   midi.PitchWheelEvent(tick=1, channel=5, data=[0, 92]),
   midi.PitchWheelEvent(tick=4, channel=5, data=[0, 94]),
   midi.PitchWheelEvent(tick=4, channel=5, data=[0, 97]),
   midi.PitchWheelEvent(tick=3, channel=5, data=[0, 99]),
   midi.PitchWheelEvent(tick=6, channel=5, data=[0, 101]),
   midi.PitchWheelEvent(tick=1, channel=5, data=[0, 103]),
   midi.PitchWheelEvent(tick=4, channel=5, data=[0, 105]),
   midi.PitchWheelEvent(tick=4, channel=5, data=[0, 107]),
   midi.PitchWheelEvent(tick=3, channel=5, data=[0, 109]),
   midi.PitchWheelEvent(tick=6, channel=5, data=[0, 111]),
   midi.PitchWheelEvent(tick=1, channel=5, data=[0, 113]),
   midi.PitchWheelEvent(tick=4, channel=5, data=[0, 115]),
   midi.PitchWheelEvent(tick=4, channel=5, data=[0, 117]),
   midi.PitchWheelEvent(tick=3, channel=5, data=[0, 119]),
   midi.PitchWheelEvent(tick=6, channel=5, data=[0, 121]),
   midi.PitchWheelEvent(tick=1, channel=5, data=[0, 123]),
   midi.PitchWheelEvent(tick=4, channel=5, data=[0, 125]),
   midi.PitchWheelEvent(tick=4, channel=5, data=[127, 127]),
   midi.NoteOnEvent(tick=203, channel=5, data=[74, 0]),
   midi.NoteOnEvent(tick=112, channel=5, data=[79, 127]),
   midi.PitchWheelEvent(tick=0, channel=5, data=[0, 64]),
   midi.PitchWheelEvent(tick=1, channel=5, data=[0, 66]),
   midi.PitchWheelEvent(tick=4, channel=5, data=[0, 68]),
   midi.PitchWheelEvent(tick=4, channel=5, data=[0, 70]),
   midi.PitchWheelEvent(tick=3, channel=5, data=[0, 72]),
   midi.PitchWheelEvent(tick=6, channel=5, data=[0, 75]),
   midi.PitchWheelEvent(tick=1, channel=5, data=[0, 77]),
   midi.PitchWheelEvent(tick=4, channel=5, data=[0, 79]),
   midi.PitchWheelEvent(tick=4, channel=5, data=[0, 81]),
   midi.PitchWheelEvent(tick=3, channel=5, data=[0, 83]),
   midi.PitchWheelEvent(tick=6, channel=5, data=[0, 86]),
   midi.PitchWheelEvent(tick=1, channel=5, data=[0, 88]),
   midi.PitchWheelEvent(tick=4, channel=5, data=[0, 90]),
   midi.PitchWheelEvent(tick=4, channel=5, data=[0, 92]),
   midi.PitchWheelEvent(tick=3, channel=5, data=[0, 94]),
   midi.PitchWheelEvent(tick=6, channel=5, data=[0, 97]),
   midi.PitchWheelEvent(tick=1, channel=5, data=[0, 99]),
   midi.PitchWheelEvent(tick=4, channel=5, data=[0, 101]),
   midi.PitchWheelEvent(tick=4, channel=5, data=[0, 103]),
   midi.PitchWheelEvent(tick=3, channel=5, data=[0, 105]),
   midi.PitchWheelEvent(tick=6, channel=5, data=[0, 108]),
   midi.PitchWheelEvent(tick=1, channel=5, data=[0, 110]),
   midi.PitchWheelEvent(tick=4, channel=5, data=[0, 112]),
   midi.PitchWheelEvent(tick=4, channel=5, data=[0, 114]),
   midi.PitchWheelEvent(tick=3, channel=5, data=[0, 116]),
   midi.PitchWheelEvent(tick=6, channel=5, data=[0, 119]),
   midi.PitchWheelEvent(tick=1, channel=5, data=[0, 121]),
   midi.PitchWheelEvent(tick=4, channel=5, data=[0, 123]),
   midi.PitchWheelEvent(tick=4, channel=5, data=[0, 125]),
   midi.PitchWheelEvent(tick=3, channel=5, data=[127, 127]),
   midi.NoteOnEvent(tick=650, channel=5, data=[79, 0]),
   midi.NoteOnEvent(tick=4, channel=5, data=[74, 127]),
   midi.NoteOnEvent(tick=0, channel=5, data=[79, 127]),
   midi.PitchWheelEvent(tick=0, channel=5, data=[0, 64]),
   midi.PitchWheelEvent(tick=1, channel=5, data=[0, 65]),
   midi.PitchWheelEvent(tick=4, channel=5, data=[0, 67]),
   midi.PitchWheelEvent(tick=4, channel=5, data=[0, 69]),
   midi.PitchWheelEvent(tick=3, channel=5, data=[0, 71]),
   midi.PitchWheelEvent(tick=6, channel=5, data=[0, 73]),
   midi.PitchWheelEvent(tick=1, channel=5, data=[0, 75]),
   midi.PitchWheelEvent(tick=4, channel=5, data=[0, 77]),
   midi.PitchWheelEvent(tick=4, channel=5, data=[0, 79]),
   midi.PitchWheelEvent(tick=3, channel=5, data=[0, 81]),
   midi.PitchWheelEvent(tick=6, channel=5, data=[0, 83]),
   midi.PitchWheelEvent(tick=1, channel=5, data=[0, 85]),
   midi.PitchWheelEvent(tick=4, channel=5, data=[0, 87]),
   midi.PitchWheelEvent(tick=4, channel=5, data=[0, 89]),
   midi.PitchWheelEvent(tick=3, channel=5, data=[0, 91]),
   midi.PitchWheelEvent(tick=6, channel=5, data=[0, 93]),
   midi.PitchWheelEvent(tick=1, channel=5, data=[0, 95]),
   midi.PitchWheelEvent(tick=4, channel=5, data=[0, 96]),
   midi.PitchWheelEvent(tick=4, channel=5, data=[0, 98]),
   midi.PitchWheelEvent(tick=3, channel=5, data=[0, 100]),
   midi.PitchWheelEvent(tick=6, channel=5, data=[0, 102]),
   midi.PitchWheelEvent(tick=1, channel=5, data=[0, 104]),
   midi.PitchWheelEvent(tick=4, channel=5, data=[0, 106]),
   midi.PitchWheelEvent(tick=4, channel=5, data=[0, 108]),
   midi.PitchWheelEvent(tick=3, channel=5, data=[0, 110]),
   midi.PitchWheelEvent(tick=6, channel=5, data=[0, 112]),
   midi.PitchWheelEvent(tick=1, channel=5, data=[0, 114]),
   midi.PitchWheelEvent(tick=4, channel=5, data=[0, 116]),
   midi.PitchWheelEvent(tick=4, channel=5, data=[0, 118]),
   midi.PitchWheelEvent(tick=3, channel=5, data=[0, 120]),
   midi.PitchWheelEvent(tick=6, channel=5, data=[0, 122]),
   midi.PitchWheelEvent(tick=1, channel=5, data=[0, 124]),
   midi.PitchWheelEvent(tick=4, channel=5, data=[0, 126]),
   midi.PitchWheelEvent(tick=4, channel=5, data=[127, 127]),
   midi.PitchWheelEvent(tick=3, channel=5, data=[127, 127]),
   midi.PitchWheelEvent(tick=6, channel=5, data=[0, 126]),
   midi.PitchWheelEvent(tick=1, channel=5, data=[0, 124]),
   midi.PitchWheelEvent(tick=4, channel=5, data=[0, 121]),
   midi.PitchWheelEvent(tick=4, channel=5, data=[0, 119]),
   midi.PitchWheelEvent(tick=3, channel=5, data=[0, 117]),
   midi.PitchWheelEvent(tick=6, channel=5, data=[0, 114]),
   midi.PitchWheelEvent(tick=1, channel=5, data=[0, 112]),
   midi.PitchWheelEvent(tick=4, channel=5, data=[0, 110]),
   midi.PitchWheelEvent(tick=4, channel=5, data=[0, 107]),
   midi.PitchWheelEvent(tick=3, channel=5, data=[0, 105]),
   midi.PitchWheelEvent(tick=6, channel=5, data=[0, 102]),
   midi.PitchWheelEvent(tick=1, channel=5, data=[0, 100]),
   midi.PitchWheelEvent(tick=4, channel=5, data=[0, 98]),
   midi.PitchWheelEvent(tick=4, channel=5, data=[0, 95]),
   midi.PitchWheelEvent(tick=3, channel=5, data=[0, 93]),
   midi.PitchWheelEvent(tick=6, channel=5, data=[0, 91]),
   midi.PitchWheelEvent(tick=1, channel=5, data=[0, 88]),
   midi.PitchWheelEvent(tick=4, channel=5, data=[0, 86]),
   midi.PitchWheelEvent(tick=4, channel=5, data=[0, 83]),
   midi.PitchWheelEvent(tick=3, channel=5, data=[0, 81]),
   midi.PitchWheelEvent(tick=6, channel=5, data=[0, 79]),
   midi.PitchWheelEvent(tick=1, channel=5, data=[0, 76]),
   midi.PitchWheelEvent(tick=4, channel=5, data=[0, 74]),
   midi.PitchWheelEvent(tick=4, channel=5, data=[0, 72]),
   midi.PitchWheelEvent(tick=3, channel=5, data=[0, 69]),
   midi.NoteOnEvent(tick=6, channel=5, data=[79, 0]),
   midi.NoteOnEvent(tick=0, channel=5, data=[74, 0]),
   midi.NoteOnEvent(tick=0, channel=5, data=[79, 127]),
   midi.PitchWheelEvent(tick=0, channel=5, data=[0, 67]),
   midi.PitchWheelEvent(tick=1, channel=5, data=[0, 64]),
   midi.NoteOnEvent(tick=215, channel=5, data=[79, 0]),
   midi.NoteOnEvent(tick=0, channel=5, data=[76, 127]),
   midi.NoteOnEvent(tick=108, channel=5, data=[76, 0]),
   midi.NoteOnEvent(tick=0, channel=5, data=[76, 127]),
   midi.NoteOnEvent(tick=54, channel=5, data=[76, 0]),
   midi.NoteOnEvent(tick=0, channel=5, data=[79, 127]),
   midi.NoteOnEvent(tick=54, channel=5, data=[79, 0]),
   midi.NoteOnEvent(tick=0, channel=5, data=[76, 127]),
   midi.NoteOnEvent(tick=36, channel=5, data=[76, 0]),
   midi.NoteOnEvent(tick=0, channel=5, data=[74, 127]),
   midi.NoteOnEvent(tick=36, channel=5, data=[74, 0]),
   midi.NoteOnEvent(tick=0, channel=5, data=[71, 127]),
   midi.NoteOnEvent(tick=36, channel=5, data=[71, 0]),
   midi.NoteOnEvent(tick=0, channel=5, data=[76, 127]),
   midi.NoteOnEvent(tick=54, channel=5, data=[76, 0]),
   midi.NoteOnEvent(tick=0, channel=5, data=[74, 127]),
   midi.NoteOnEvent(tick=54, channel=5, data=[74, 0]),
   midi.NoteOnEvent(tick=0, channel=5, data=[76, 127]),
   midi.NoteOnEvent(tick=108, channel=5, data=[76, 0]),
   midi.NoteOnEvent(tick=0, channel=5, data=[71, 127]),
   midi.NoteOnEvent(tick=54, channel=5, data=[71, 0]),
   midi.NoteOnEvent(tick=0, channel=5, data=[74, 127]),
   midi.NoteOnEvent(tick=54, channel=5, data=[74, 0]),
   midi.NoteOnEvent(tick=0, channel=5, data=[71, 127]),
   midi.NoteOnEvent(tick=54, channel=5, data=[71, 0]),
   midi.NoteOnEvent(tick=0, channel=5, data=[69, 127]),
   midi.NoteOnEvent(tick=54, channel=5, data=[69, 0]),
   midi.NoteOnEvent(tick=0, channel=5, data=[71, 127]),
   midi.NoteOnEvent(tick=54, channel=5, data=[71, 0]),
   midi.NoteOnEvent(tick=0, channel=5, data=[74, 127]),
   midi.NoteOnEvent(tick=54, channel=5, data=[74, 0]),
   midi.NoteOnEvent(tick=0, channel=5, data=[71, 127]),
   midi.NoteOnEvent(tick=54, channel=5, data=[71, 0]),
   midi.NoteOnEvent(tick=0, channel=5, data=[74, 127]),
   midi.NoteOnEvent(tick=54, channel=5, data=[74, 0]),
   midi.NoteOnEvent(tick=0, channel=5, data=[71, 127]),
   midi.NoteOnEvent(tick=54, channel=5, data=[71, 0]),
   midi.NoteOnEvent(tick=0, channel=5, data=[69, 127]),
   midi.NoteOnEvent(tick=54, channel=5, data=[69, 0]),
   midi.NoteOnEvent(tick=0, channel=5, data=[71, 127]),
   midi.NoteOnEvent(tick=54, channel=5, data=[71, 0]),
   midi.NoteOnEvent(tick=0, channel=5, data=[74, 127]),
   midi.NoteOnEvent(tick=54, channel=5, data=[74, 0]),
   midi.NoteOnEvent(tick=0, channel=5, data=[71, 127]),
   midi.NoteOnEvent(tick=54, channel=5, data=[71, 0]),
   midi.NoteOnEvent(tick=0, channel=5, data=[69, 127]),
   midi.NoteOnEvent(tick=54, channel=5, data=[69, 0]),
   midi.NoteOnEvent(tick=0, channel=5, data=[71, 127]),
   midi.NoteOnEvent(tick=54, channel=5, data=[71, 0]),
   midi.NoteOnEvent(tick=0, channel=5, data=[74, 127]),
   midi.NoteOnEvent(tick=54, channel=5, data=[74, 0]),
   midi.NoteOnEvent(tick=0, channel=5, data=[71, 127]),
   midi.NoteOnEvent(tick=212, channel=5, data=[71, 0]),
   midi.NoteOnEvent(tick=4, channel=5, data=[74, 127]),
   midi.NoteOnEvent(tick=54, channel=5, data=[74, 0]),
   midi.NoteOnEvent(tick=0, channel=5, data=[74, 127]),
   midi.PitchWheelEvent(tick=0, channel=5, data=[0, 64]),
   midi.PitchWheelEvent(tick=1, channel=5, data=[0, 66]),
   midi.PitchWheelEvent(tick=4, channel=5, data=[0, 68]),
   midi.PitchWheelEvent(tick=4, channel=5, data=[0, 70]),
   midi.PitchWheelEvent(tick=3, channel=5, data=[0, 73]),
   midi.PitchWheelEvent(tick=6, channel=5, data=[0, 75]),
   midi.PitchWheelEvent(tick=1, channel=5, data=[0, 77]),
   midi.PitchWheelEvent(tick=4, channel=5, data=[0, 80]),
   midi.PitchWheelEvent(tick=4, channel=5, data=[0, 82]),
   midi.PitchWheelEvent(tick=3, channel=5, data=[0, 84]),
   midi.PitchWheelEvent(tick=6, channel=5, data=[0, 86]),
   midi.PitchWheelEvent(tick=1, channel=5, data=[0, 89]),
   midi.PitchWheelEvent(tick=4, channel=5, data=[0, 91]),
   midi.PitchWheelEvent(tick=4, channel=5, data=[0, 93]),
   midi.PitchWheelEvent(tick=3, channel=5, data=[0, 96]),
   midi.PitchWheelEvent(tick=6, channel=5, data=[0, 98]),
   midi.PitchWheelEvent(tick=1, channel=5, data=[0, 100]),
   midi.PitchWheelEvent(tick=4, channel=5, data=[0, 102]),
   midi.PitchWheelEvent(tick=4, channel=5, data=[0, 105]),
   midi.ControlChangeEvent(tick=0, channel=5, data=[1, 64]),
   midi.PitchWheelEvent(tick=3, channel=5, data=[0, 107]),
   midi.PitchWheelEvent(tick=6, channel=5, data=[0, 109]),
   midi.PitchWheelEvent(tick=1, channel=5, data=[0, 112]),
   midi.PitchWheelEvent(tick=4, channel=5, data=[0, 114]),
   midi.PitchWheelEvent(tick=4, channel=5, data=[0, 116]),
   midi.PitchWheelEvent(tick=3, channel=5, data=[0, 118]),
   midi.PitchWheelEvent(tick=6, channel=5, data=[0, 121]),
   midi.PitchWheelEvent(tick=1, channel=5, data=[0, 123]),
   midi.PitchWheelEvent(tick=4, channel=5, data=[0, 125]),
   midi.PitchWheelEvent(tick=4, channel=5, data=[127, 127]),
   midi.ControlChangeEvent(tick=378, channel=5, data=[1, 0]),
   midi.NoteOnEvent(tick=5, channel=5, data=[74, 0]),
   midi.NoteOnEvent(tick=4, channel=5, data=[59, 127]),
   midi.PitchWheelEvent(tick=0, channel=5, data=[0, 64]),
   midi.NoteOnEvent(tick=36, channel=5, data=[59, 0]),
   midi.NoteOnEvent(tick=0, channel=5, data=[57, 127]),
   midi.NoteOnEvent(tick=36, channel=5, data=[57, 0]),
   midi.NoteOnEvent(tick=0, channel=5, data=[55, 127]),
   midi.NoteOnEvent(tick=36, channel=5, data=[55, 0]),
   midi.NoteOnEvent(tick=0, channel=5, data=[59, 127]),
   midi.NoteOnEvent(tick=36, channel=5, data=[59, 0]),
   midi.NoteOnEvent(tick=0, channel=5, data=[57, 127]),
   midi.NoteOnEvent(tick=36, channel=5, data=[57, 0]),
   midi.NoteOnEvent(tick=0, channel=5, data=[55, 127]),
   midi.NoteOnEvent(tick=36, channel=5, data=[55, 0]),
   midi.NoteOnEvent(tick=0, channel=5, data=[59, 127]),
   midi.NoteOnEvent(tick=36, channel=5, data=[59, 0]),
   midi.NoteOnEvent(tick=0, channel=5, data=[57, 127]),
   midi.NoteOnEvent(tick=36, channel=5, data=[57, 0]),
   midi.NoteOnEvent(tick=0, channel=5, data=[55, 127]),
   midi.NoteOnEvent(tick=36, channel=5, data=[55, 0]),
   midi.NoteOnEvent(tick=0, channel=5, data=[59, 127]),
   midi.NoteOnEvent(tick=108, channel=5, data=[59, 0]),
   midi.NoteOnEvent(tick=0, channel=5, data=[50, 127]),
   midi.NoteOnEvent(tick=108, channel=5, data=[50, 0]),
   midi.NoteOnEvent(tick=0, channel=5, data=[59, 127]),
   midi.NoteOnEvent(tick=36, channel=5, data=[59, 0]),
   midi.NoteOnEvent(tick=0, channel=5, data=[57, 127]),
   midi.NoteOnEvent(tick=36, channel=5, data=[57, 0]),
   midi.NoteOnEvent(tick=0, channel=5, data=[55, 127]),
   midi.NoteOnEvent(tick=36, channel=5, data=[55, 0]),
   midi.NoteOnEvent(tick=0, channel=5, data=[57, 127]),
   midi.NoteOnEvent(tick=54, channel=5, data=[57, 0]),
   midi.NoteOnEvent(tick=0, channel=5, data=[59, 127]),
   midi.NoteOnEvent(tick=54, channel=5, data=[59, 0]),
   midi.NoteOnEvent(tick=0, channel=5, data=[50, 127]),
   midi.NoteOnEvent(tick=108, channel=5, data=[50, 0]),
   midi.NoteOnEvent(tick=0, channel=5, data=[59, 127]),
   midi.NoteOnEvent(tick=36, channel=5, data=[59, 0]),
   midi.NoteOnEvent(tick=0, channel=5, data=[57, 127]),
   midi.NoteOnEvent(tick=36, channel=5, data=[57, 0]),
   midi.NoteOnEvent(tick=0, channel=5, data=[55, 127]),
   midi.NoteOnEvent(tick=36, channel=5, data=[55, 0]),
   midi.NoteOnEvent(tick=0, channel=5, data=[59, 127]),
   midi.NoteOnEvent(tick=36, channel=5, data=[59, 0]),
   midi.NoteOnEvent(tick=0, channel=5, data=[57, 127]),
   midi.NoteOnEvent(tick=36, channel=5, data=[57, 0]),
   midi.NoteOnEvent(tick=0, channel=5, data=[55, 127]),
   midi.NoteOnEvent(tick=36, channel=5, data=[55, 0]),
   midi.NoteOnEvent(tick=0, channel=5, data=[59, 127]),
   midi.NoteOnEvent(tick=36, channel=5, data=[59, 0]),
   midi.NoteOnEvent(tick=0, channel=5, data=[57, 127]),
   midi.NoteOnEvent(tick=36, channel=5, data=[57, 0]),
   midi.NoteOnEvent(tick=0, channel=5, data=[55, 127]),
   midi.NoteOnEvent(tick=36, channel=5, data=[55, 0]),
   midi.NoteOnEvent(tick=0, channel=5, data=[57, 127]),
   midi.NoteOnEvent(tick=54, channel=5, data=[57, 0]),
   midi.NoteOnEvent(tick=0, channel=5, data=[59, 127]),
   midi.NoteOnEvent(tick=54, channel=5, data=[59, 0]),
   midi.NoteOnEvent(tick=0, channel=5, data=[55, 127]),
   midi.NoteOnEvent(tick=108, channel=5, data=[55, 0]),
   midi.NoteOnEvent(tick=0, channel=5, data=[59, 127]),
   midi.NoteOnEvent(tick=36, channel=5, data=[59, 0]),
   midi.NoteOnEvent(tick=0, channel=5, data=[57, 127]),
   midi.NoteOnEvent(tick=36, channel=5, data=[57, 0]),
   midi.NoteOnEvent(tick=0, channel=5, data=[55, 127]),
   midi.NoteOnEvent(tick=36, channel=5, data=[55, 0]),
   midi.NoteOnEvent(tick=0, channel=5, data=[59, 127]),
   midi.NoteOnEvent(tick=36, channel=5, data=[59, 0]),
   midi.NoteOnEvent(tick=0, channel=5, data=[57, 127]),
   midi.NoteOnEvent(tick=36, channel=5, data=[57, 0]),
   midi.NoteOnEvent(tick=0, channel=5, data=[55, 127]),
   midi.NoteOnEvent(tick=36, channel=5, data=[55, 0]),
   midi.NoteOnEvent(tick=0, channel=5, data=[59, 127]),
   midi.NoteOnEvent(tick=36, channel=5, data=[59, 0]),
   midi.NoteOnEvent(tick=0, channel=5, data=[57, 127]),
   midi.NoteOnEvent(tick=36, channel=5, data=[57, 0]),
   midi.NoteOnEvent(tick=0, channel=5, data=[55, 127]),
   midi.NoteOnEvent(tick=36, channel=5, data=[55, 0]),
   midi.NoteOnEvent(tick=0, channel=5, data=[59, 127]),
   midi.NoteOnEvent(tick=36, channel=5, data=[59, 0]),
   midi.NoteOnEvent(tick=0, channel=5, data=[57, 127]),
   midi.NoteOnEvent(tick=36, channel=5, data=[57, 0]),
   midi.NoteOnEvent(tick=0, channel=5, data=[55, 127]),
   midi.NoteOnEvent(tick=36, channel=5, data=[55, 0]),
   midi.NoteOnEvent(tick=0, channel=5, data=[59, 127]),
   midi.NoteOnEvent(tick=36, channel=5, data=[59, 0]),
   midi.NoteOnEvent(tick=0, channel=5, data=[57, 127]),
   midi.NoteOnEvent(tick=36, channel=5, data=[57, 0]),
   midi.NoteOnEvent(tick=0, channel=5, data=[55, 127]),
   midi.NoteOnEvent(tick=36, channel=5, data=[55, 0]),
   midi.NoteOnEvent(tick=0, channel=5, data=[61, 127]),
   midi.NoteOnEvent(tick=36, channel=5, data=[61, 0]),
   midi.NoteOnEvent(tick=0, channel=5, data=[59, 127]),
   midi.NoteOnEvent(tick=36, channel=5, data=[59, 0]),
   midi.NoteOnEvent(tick=0, channel=5, data=[55, 127]),
   midi.NoteOnEvent(tick=36, channel=5, data=[55, 0]),
   midi.NoteOnEvent(tick=0, channel=5, data=[61, 127]),
   midi.NoteOnEvent(tick=36, channel=5, data=[61, 0]),
   midi.NoteOnEvent(tick=0, channel=5, data=[59, 127]),
   midi.NoteOnEvent(tick=36, channel=5, data=[59, 0]),
   midi.NoteOnEvent(tick=0, channel=5, data=[55, 127]),
   midi.NoteOnEvent(tick=36, channel=5, data=[55, 0]),
   midi.NoteOnEvent(tick=0, channel=5, data=[63, 127]),
   midi.NoteOnEvent(tick=36, channel=5, data=[63, 0]),
   midi.NoteOnEvent(tick=0, channel=5, data=[60, 127]),
   midi.NoteOnEvent(tick=36, channel=5, data=[60, 0]),
   midi.NoteOnEvent(tick=0, channel=5, data=[55, 127]),
   midi.NoteOnEvent(tick=36, channel=5, data=[55, 0]),
   midi.NoteOnEvent(tick=0, channel=5, data=[63, 127]),
   midi.NoteOnEvent(tick=36, channel=5, data=[63, 0]),
   midi.NoteOnEvent(tick=0, channel=5, data=[60, 127]),
   midi.NoteOnEvent(tick=36, channel=5, data=[60, 0]),
   midi.NoteOnEvent(tick=0, channel=5, data=[55, 127]),
   midi.NoteOnEvent(tick=36, channel=5, data=[55, 0]),
   midi.NoteOnEvent(tick=0, channel=5, data=[65, 127]),
   midi.NoteOnEvent(tick=36, channel=5, data=[65, 0]),
   midi.NoteOnEvent(tick=0, channel=5, data=[63, 127]),
   midi.NoteOnEvent(tick=36, channel=5, data=[63, 0]),
   midi.NoteOnEvent(tick=0, channel=5, data=[55, 127]),
   midi.NoteOnEvent(tick=36, channel=5, data=[55, 0]),
   midi.NoteOnEvent(tick=0, channel=5, data=[65, 127]),
   midi.NoteOnEvent(tick=36, channel=5, data=[65, 0]),
   midi.NoteOnEvent(tick=0, channel=5, data=[63, 127]),
   midi.NoteOnEvent(tick=36, channel=5, data=[63, 0]),
   midi.NoteOnEvent(tick=0, channel=5, data=[55, 127]),
   midi.NoteOnEvent(tick=36, channel=5, data=[55, 0]),
   midi.NoteOnEvent(tick=0, channel=5, data=[67, 127]),
   midi.NoteOnEvent(tick=36, channel=5, data=[67, 0]),
   midi.NoteOnEvent(tick=0, channel=5, data=[65, 127]),
   midi.NoteOnEvent(tick=36, channel=5, data=[65, 0]),
   midi.NoteOnEvent(tick=0, channel=5, data=[55, 127]),
   midi.NoteOnEvent(tick=36, channel=5, data=[55, 0]),
   midi.NoteOnEvent(tick=0, channel=5, data=[67, 127]),
   midi.NoteOnEvent(tick=36, channel=5, data=[67, 0]),
   midi.NoteOnEvent(tick=0, channel=5, data=[65, 127]),
   midi.NoteOnEvent(tick=36, channel=5, data=[65, 0]),
   midi.NoteOnEvent(tick=0, channel=5, data=[55, 127]),
   midi.NoteOnEvent(tick=36, channel=5, data=[55, 0]),
   midi.NoteOnEvent(tick=0, channel=5, data=[67, 127]),
   midi.NoteOnEvent(tick=36, channel=5, data=[67, 0]),
   midi.NoteOnEvent(tick=0, channel=5, data=[65, 127]),
   midi.NoteOnEvent(tick=36, channel=5, data=[65, 0]),
   midi.NoteOnEvent(tick=0, channel=5, data=[55, 127]),
   midi.NoteOnEvent(tick=36, channel=5, data=[55, 0]),
   midi.NoteOnEvent(tick=0, channel=5, data=[67, 127]),
   midi.NoteOnEvent(tick=36, channel=5, data=[67, 0]),
   midi.NoteOnEvent(tick=0, channel=5, data=[65, 127]),
   midi.NoteOnEvent(tick=36, channel=5, data=[65, 0]),
   midi.NoteOnEvent(tick=0, channel=5, data=[55, 127]),
   midi.NoteOnEvent(tick=36, channel=5, data=[55, 0]),
   midi.NoteOnEvent(tick=0, channel=5, data=[69, 127]),
   midi.PitchWheelEvent(tick=36, channel=5, data=[0, 65]),
   midi.PitchWheelEvent(tick=5, channel=5, data=[0, 64]),
   midi.PitchWheelEvent(tick=7, channel=5, data=[0, 63]),
   midi.PitchWheelEvent(tick=6, channel=5, data=[0, 62]),
   midi.PitchWheelEvent(tick=5, channel=5, data=[0, 61]),
   midi.PitchWheelEvent(tick=4, channel=5, data=[0, 60]),
   midi.PitchWheelEvent(tick=9, channel=5, data=[0, 59]),
   midi.PitchWheelEvent(tick=5, channel=5, data=[0, 58]),
   midi.PitchWheelEvent(tick=4, channel=5, data=[0, 57]),
   midi.PitchWheelEvent(tick=9, channel=5, data=[0, 56]),
   midi.PitchWheelEvent(tick=1, channel=5, data=[0, 55]),
   midi.PitchWheelEvent(tick=8, channel=5, data=[0, 54]),
   midi.PitchWheelEvent(tick=9, channel=5, data=[0, 53]),
   midi.PitchWheelEvent(tick=1, channel=5, data=[0, 52]),
   midi.PitchWheelEvent(tick=8, channel=5, data=[0, 51]),
   midi.PitchWheelEvent(tick=3, channel=5, data=[0, 50]),
   midi.PitchWheelEvent(tick=7, channel=5, data=[0, 49]),
   midi.PitchWheelEvent(tick=8, channel=5, data=[0, 48]),
   midi.PitchWheelEvent(tick=3, channel=5, data=[0, 47]),
   midi.PitchWheelEvent(tick=7, channel=5, data=[0, 46]),
   midi.PitchWheelEvent(tick=4, channel=5, data=[0, 45]),
   midi.PitchWheelEvent(tick=7, channel=5, data=[0, 44]),
   midi.PitchWheelEvent(tick=7, channel=5, data=[0, 43]),
   midi.PitchWheelEvent(tick=4, channel=5, data=[0, 42]),
   midi.PitchWheelEvent(tick=7, channel=5, data=[0, 41]),
   midi.PitchWheelEvent(tick=6, channel=5, data=[0, 40]),
   midi.PitchWheelEvent(tick=5, channel=5, data=[0, 39]),
   midi.PitchWheelEvent(tick=7, channel=5, data=[0, 38]),
   midi.PitchWheelEvent(tick=6, channel=5, data=[0, 37]),
   midi.PitchWheelEvent(tick=5, channel=5, data=[0, 36]),
   midi.PitchWheelEvent(tick=4, channel=5, data=[0, 35]),
   midi.PitchWheelEvent(tick=9, channel=5, data=[0, 34]),
   midi.PitchWheelEvent(tick=1, channel=5, data=[0, 33]),
   midi.PitchWheelEvent(tick=8, channel=5, data=[0, 32]),
   midi.PitchWheelEvent(tick=9, channel=5, data=[0, 31]),
   midi.PitchWheelEvent(tick=1, channel=5, data=[0, 30]),
   midi.PitchWheelEvent(tick=8, channel=5, data=[0, 29]),
   midi.PitchWheelEvent(tick=3, channel=5, data=[0, 28]),
   midi.PitchWheelEvent(tick=7, channel=5, data=[0, 27]),
   midi.PitchWheelEvent(tick=8, channel=5, data=[0, 26]),
   midi.PitchWheelEvent(tick=3, channel=5, data=[0, 25]),
   midi.PitchWheelEvent(tick=7, channel=5, data=[0, 24]),
   midi.PitchWheelEvent(tick=4, channel=5, data=[0, 23]),
   midi.PitchWheelEvent(tick=7, channel=5, data=[0, 22]),
   midi.PitchWheelEvent(tick=7, channel=5, data=[0, 21]),
   midi.PitchWheelEvent(tick=4, channel=5, data=[0, 20]),
   midi.PitchWheelEvent(tick=7, channel=5, data=[0, 19]),
   midi.PitchWheelEvent(tick=6, channel=5, data=[0, 18]),
   midi.PitchWheelEvent(tick=5, channel=5, data=[0, 17]),
   midi.PitchWheelEvent(tick=7, channel=5, data=[0, 16]),
   midi.PitchWheelEvent(tick=6, channel=5, data=[0, 15]),
   midi.PitchWheelEvent(tick=5, channel=5, data=[0, 14]),
   midi.PitchWheelEvent(tick=4, channel=5, data=[0, 13]),
   midi.PitchWheelEvent(tick=9, channel=5, data=[0, 12]),
   midi.PitchWheelEvent(tick=5, channel=5, data=[0, 11]),
   midi.PitchWheelEvent(tick=4, channel=5, data=[0, 10]),
   midi.PitchWheelEvent(tick=9, channel=5, data=[0, 9]),
   midi.PitchWheelEvent(tick=1, channel=5, data=[0, 8]),
   midi.PitchWheelEvent(tick=8, channel=5, data=[0, 7]),
   midi.PitchWheelEvent(tick=9, channel=5, data=[0, 6]),
   midi.PitchWheelEvent(tick=1, channel=5, data=[0, 5]),
   midi.PitchWheelEvent(tick=8, channel=5, data=[0, 4]),
   midi.PitchWheelEvent(tick=3, channel=5, data=[0, 3]),
   midi.PitchWheelEvent(tick=7, channel=5, data=[0, 2]),
   midi.PitchWheelEvent(tick=4, channel=5, data=[0, 1]),
   midi.PitchWheelEvent(tick=22, channel=5, data=[0, 64]),
   midi.NoteOnEvent(tick=5, channel=5, data=[69, 0]),
   midi.NoteOnEvent(tick=4, channel=5, data=[76, 127]),
   midi.NoteOnEvent(tick=89, channel=5, data=[76, 0]),
   midi.NoteOnEvent(tick=19, channel=5, data=[79, 127]),
   midi.NoteOnEvent(tick=107, channel=5, data=[79, 0]),
   midi.NoteOnEvent(tick=1, channel=5, data=[78, 127]),
   midi.NoteOnEvent(tick=107, channel=5, data=[78, 0]),
   midi.NoteOnEvent(tick=1, channel=5, data=[76, 127]),
   midi.NoteOnEvent(tick=106, channel=5, data=[76, 0]),
   midi.NoteOnEvent(tick=2, channel=5, data=[74, 127]),
   midi.NoteOnEvent(tick=52, channel=5, data=[74, 0]),
   midi.NoteOnEvent(tick=20, channel=5, data=[76, 127]),
   midi.PitchWheelEvent(tick=32, channel=5, data=[127, 127]),
   midi.NoteOnEvent(tick=20, channel=5, data=[76, 0]),
   midi.PitchWheelEvent(tick=2, channel=5, data=[0, 64]),
   midi.NoteOnEvent(tick=18, channel=5, data=[74, 127]),
   midi.NoteOnEvent(tick=52, channel=5, data=[74, 0]),
   midi.NoteOnEvent(tick=20, channel=5, data=[71, 127]),
   midi.NoteOnEvent(tick=52, channel=5, data=[71, 0]),
   midi.NoteOnEvent(tick=20, channel=5, data=[73, 127]),
   midi.NoteOnEvent(tick=52, channel=5, data=[73, 0]),
   midi.NoteOnEvent(tick=20, channel=5, data=[71, 127]),
   midi.NoteOnEvent(tick=52, channel=5, data=[71, 0]),
   midi.NoteOnEvent(tick=20, channel=5, data=[73, 127]),
   midi.NoteOnEvent(tick=72, channel=5, data=[73, 0]),
   midi.NoteOnEvent(tick=0, channel=5, data=[71, 127]),
   midi.NoteOnEvent(tick=72, channel=5, data=[71, 0]),
   midi.NoteOnEvent(tick=0, channel=5, data=[69, 127]),
   midi.NoteOnEvent(tick=72, channel=5, data=[69, 0]),
   midi.NoteOnEvent(tick=0, channel=5, data=[67, 127]),
   midi.NoteOnEvent(tick=53, channel=5, data=[67, 0]),
   midi.NoteOnEvent(tick=55, channel=5, data=[64, 127]),
   midi.NoteOnEvent(tick=53, channel=5, data=[64, 0]),
   midi.NoteOnEvent(tick=55, channel=5, data=[62, 127]),
   midi.NoteOnEvent(tick=53, channel=5, data=[62, 0]),
   midi.NoteOnEvent(tick=55, channel=5, data=[59, 127]),
   midi.NoteOnEvent(tick=71, channel=5, data=[59, 0]),
   midi.NoteOnEvent(tick=37, channel=5, data=[58, 127]),
   midi.NoteOnEvent(tick=71, channel=5, data=[58, 0]),
   midi.NoteOnEvent(tick=37, channel=5, data=[57, 127]),
   midi.NoteOnEvent(tick=107, channel=5, data=[57, 0]),
   midi.NoteOnEvent(tick=1, channel=5, data=[55, 127]),
   midi.NoteOnEvent(tick=107, channel=5, data=[55, 0]),
   midi.NoteOnEvent(tick=1, channel=5, data=[56, 127]),
   midi.NoteOnEvent(tick=107, channel=5, data=[56, 0]),
   midi.NoteOnEvent(tick=1, channel=5, data=[59, 127]),
   midi.NoteOnEvent(tick=107, channel=5, data=[59, 0]),
   midi.NoteOnEvent(tick=1, channel=5, data=[62, 127]),
   midi.NoteOnEvent(tick=107, channel=5, data=[62, 0]),
   midi.NoteOnEvent(tick=1, channel=5, data=[64, 127]),
   midi.NoteOnEvent(tick=107, channel=5, data=[64, 0]),
   midi.NoteOnEvent(tick=1, channel=5, data=[66, 127]),
   midi.NoteOnEvent(tick=107, channel=5, data=[66, 0]),
   midi.NoteOnEvent(tick=1, channel=5, data=[62, 127]),
   midi.NoteOnEvent(tick=107, channel=5, data=[62, 0]),
   midi.NoteOnEvent(tick=1, channel=5, data=[59, 127]),
   midi.NoteOnEvent(tick=107, channel=5, data=[59, 0]),
   midi.NoteOnEvent(tick=1, channel=5, data=[62, 127]),
   midi.NoteOnEvent(tick=107, channel=5, data=[62, 0]),
   midi.NoteOnEvent(tick=1, channel=5, data=[64, 127]),
   midi.NoteOnEvent(tick=107, channel=5, data=[64, 0]),
   midi.NoteOnEvent(tick=1, channel=5, data=[81, 127]),
   midi.NoteOnEvent(tick=0, channel=5, data=[62, 127]),
   midi.NoteOnEvent(tick=108, channel=5, data=[62, 0]),
   midi.NoteOnEvent(tick=0, channel=5, data=[81, 0]),
   midi.NoteOnEvent(tick=0, channel=5, data=[64, 127]),
   midi.ControlChangeEvent(tick=117, channel=5, data=[1, 67]),
   midi.PitchWheelEvent(tick=280, channel=5, data=[0, 64]),
   midi.PitchWheelEvent(tick=4, channel=5, data=[0, 62]),
   midi.PitchWheelEvent(tick=4, channel=5, data=[0, 60]),
   midi.PitchWheelEvent(tick=3, channel=5, data=[0, 58]),
   midi.PitchWheelEvent(tick=6, channel=5, data=[0, 55]),
   midi.PitchWheelEvent(tick=1, channel=5, data=[0, 53]),
   midi.PitchWheelEvent(tick=4, channel=5, data=[0, 51]),
   midi.PitchWheelEvent(tick=4, channel=5, data=[0, 49]),
   midi.PitchWheelEvent(tick=3, channel=5, data=[0, 46]),
   midi.PitchWheelEvent(tick=6, channel=5, data=[0, 44]),
   midi.PitchWheelEvent(tick=1, channel=5, data=[0, 42]),
   midi.PitchWheelEvent(tick=4, channel=5, data=[0, 40]),
   midi.PitchWheelEvent(tick=4, channel=5, data=[0, 37]),
   midi.PitchWheelEvent(tick=3, channel=5, data=[0, 35]),
   midi.PitchWheelEvent(tick=6, channel=5, data=[0, 33]),
   midi.PitchWheelEvent(tick=1, channel=5, data=[0, 31]),
   midi.PitchWheelEvent(tick=4, channel=5, data=[0, 28]),
   midi.PitchWheelEvent(tick=4, channel=5, data=[0, 26]),
   midi.PitchWheelEvent(tick=3, channel=5, data=[0, 24]),
   midi.PitchWheelEvent(tick=6, channel=5, data=[0, 22]),
   midi.PitchWheelEvent(tick=1, channel=5, data=[0, 19]),
   midi.PitchWheelEvent(tick=4, channel=5, data=[0, 17]),
   midi.PitchWheelEvent(tick=4, channel=5, data=[0, 15]),
   midi.PitchWheelEvent(tick=3, channel=5, data=[0, 13]),
   midi.PitchWheelEvent(tick=6, channel=5, data=[0, 10]),
   midi.PitchWheelEvent(tick=1, channel=5, data=[0, 8]),
   midi.PitchWheelEvent(tick=4, channel=5, data=[0, 6]),
   midi.PitchWheelEvent(tick=4, channel=5, data=[0, 4]),
   midi.PitchWheelEvent(tick=3, channel=5, data=[0, 1]),
   midi.PitchWheelEvent(tick=24, channel=5, data=[0, 0]),
   midi.PitchWheelEvent(tick=1, channel=5, data=[0, 0]),
   midi.ControlChangeEvent(tick=4, channel=5, data=[1, 0]),
   midi.PitchWheelEvent(tick=0, channel=5, data=[0, 4]),
   midi.PitchWheelEvent(tick=4, channel=5, data=[0, 8]),
   midi.PitchWheelEvent(tick=3, channel=5, data=[0, 11]),
   midi.NoteOnEvent(tick=2, channel=5, data=[64, 0]),
   midi.NoteOnEvent(tick=4, channel=5, data=[59, 127]),
   midi.PitchWheelEvent(tick=0, channel=5, data=[0, 15]),
   midi.PitchWheelEvent(tick=1, channel=5, data=[0, 19]),
   midi.PitchWheelEvent(tick=4, channel=5, data=[0, 23]),
   midi.PitchWheelEvent(tick=4, channel=5, data=[0, 26]),
   midi.PitchWheelEvent(tick=3, channel=5, data=[0, 30]),
   midi.PitchWheelEvent(tick=6, channel=5, data=[0, 34]),
   midi.PitchWheelEvent(tick=1, channel=5, data=[0, 37]),
   midi.PitchWheelEvent(tick=4, channel=5, data=[0, 41]),
   midi.PitchWheelEvent(tick=4, channel=5, data=[0, 45]),
   midi.PitchWheelEvent(tick=3, channel=5, data=[0, 49]),
   midi.PitchWheelEvent(tick=6, channel=5, data=[0, 52]),
   midi.PitchWheelEvent(tick=1, channel=5, data=[0, 56]),
   midi.PitchWheelEvent(tick=4, channel=5, data=[0, 60]),
   midi.PitchWheelEvent(tick=4, channel=5, data=[0, 64]),
   midi.NoteOnEvent(tick=63, channel=5, data=[59, 0]),
   midi.NoteOnEvent(tick=0, channel=5, data=[62, 127]),
   midi.NoteOnEvent(tick=108, channel=5, data=[62, 0]),
   midi.NoteOnEvent(tick=0, channel=5, data=[66, 127]),
   midi.NoteOnEvent(tick=108, channel=5, data=[66, 0]),
   midi.NoteOnEvent(tick=0, channel=5, data=[69, 127]),
   midi.PitchWheelEvent(tick=1, channel=5, data=[0, 64]),
   midi.PitchWheelEvent(tick=4, channel=5, data=[0, 66]),
   midi.PitchWheelEvent(tick=4, channel=5, data=[0, 69]),
   midi.PitchWheelEvent(tick=3, channel=5, data=[0, 72]),
   midi.PitchWheelEvent(tick=6, channel=5, data=[0, 74]),
   midi.PitchWheelEvent(tick=1, channel=5, data=[0, 77]),
   midi.PitchWheelEvent(tick=4, channel=5, data=[0, 80]),
   midi.ControlChangeEvent(tick=0, channel=5, data=[1, 65]),
   midi.PitchWheelEvent(tick=4, channel=5, data=[0, 82]),
   midi.PitchWheelEvent(tick=3, channel=5, data=[0, 85]),
   midi.PitchWheelEvent(tick=6, channel=5, data=[0, 88]),
   midi.PitchWheelEvent(tick=1, channel=5, data=[0, 90]),
   midi.PitchWheelEvent(tick=4, channel=5, data=[0, 93]),
   midi.PitchWheelEvent(tick=4, channel=5, data=[0, 96]),
   midi.PitchWheelEvent(tick=3, channel=5, data=[0, 98]),
   midi.PitchWheelEvent(tick=6, channel=5, data=[0, 101]),
   midi.PitchWheelEvent(tick=1, channel=5, data=[0, 104]),
   midi.PitchWheelEvent(tick=4, channel=5, data=[0, 106]),
   midi.PitchWheelEvent(tick=4, channel=5, data=[0, 109]),
   midi.PitchWheelEvent(tick=3, channel=5, data=[0, 112]),
   midi.PitchWheelEvent(tick=6, channel=5, data=[0, 114]),
   midi.PitchWheelEvent(tick=1, channel=5, data=[0, 117]),
   midi.PitchWheelEvent(tick=4, channel=5, data=[0, 120]),
   midi.PitchWheelEvent(tick=4, channel=5, data=[0, 122]),
   midi.PitchWheelEvent(tick=3, channel=5, data=[0, 125]),
   midi.PitchWheelEvent(tick=6, channel=5, data=[127, 127]),
   midi.ControlChangeEvent(tick=216, channel=5, data=[1, 0]),
   midi.PitchWheelEvent(tick=1, channel=5, data=[0, 64]),
   midi.NoteOnEvent(tick=13, channel=5, data=[69, 0]),
   midi.NoteOnEvent(tick=4, channel=5, data=[69, 127]),
   midi.NoteOnEvent(tick=108, channel=5, data=[69, 0]),
   midi.NoteOnEvent(tick=0, channel=5, data=[67, 127]),
   midi.NoteOnEvent(tick=108, channel=5, data=[67, 0]),
   midi.NoteOnEvent(tick=0, channel=5, data=[78, 127]),
   midi.NoteOnEvent(tick=108, channel=5, data=[78, 0]),
   midi.NoteOnEvent(tick=0, channel=5, data=[64, 127]),
   midi.NoteOnEvent(tick=108, channel=5, data=[64, 0]),
   midi.NoteOnEvent(tick=0, channel=5, data=[66, 127]),
   midi.NoteOnEvent(tick=108, channel=5, data=[66, 0]),
   midi.NoteOnEvent(tick=0, channel=5, data=[67, 127]),
   midi.NoteOnEvent(tick=108, channel=5, data=[67, 0]),
   midi.NoteOnEvent(tick=0, channel=5, data=[66, 127]),
   midi.NoteOnEvent(tick=36, channel=5, data=[66, 0]),
   midi.NoteOnEvent(tick=0, channel=5, data=[67, 127]),
   midi.NoteOnEvent(tick=36, channel=5, data=[67, 0]),
   midi.NoteOnEvent(tick=0, channel=5, data=[66, 127]),
   midi.NoteOnEvent(tick=36, channel=5, data=[66, 0]),
   midi.NoteOnEvent(tick=0, channel=5, data=[64, 127]),
   midi.NoteOnEvent(tick=108, channel=5, data=[64, 0]),
   midi.NoteOnEvent(tick=0, channel=5, data=[62, 127]),
   midi.NoteOnEvent(tick=108, channel=5, data=[62, 0]),
   midi.NoteOnEvent(tick=0, channel=5, data=[61, 127]),
   midi.NoteOnEvent(tick=108, channel=5, data=[61, 0]),
   midi.NoteOnEvent(tick=0, channel=5, data=[62, 127]),
   midi.NoteOnEvent(tick=144, channel=5, data=[62, 0]),
   midi.NoteOnEvent(tick=0, channel=5, data=[62, 127]),
   midi.PitchWheelEvent(tick=1, channel=5, data=[0, 64]),
   midi.PitchWheelEvent(tick=4, channel=5, data=[0, 67]),
   midi.PitchWheelEvent(tick=4, channel=5, data=[0, 71]),
   midi.PitchWheelEvent(tick=3, channel=5, data=[0, 75]),
   midi.PitchWheelEvent(tick=6, channel=5, data=[0, 79]),
   midi.PitchWheelEvent(tick=1, channel=5, data=[0, 82]),
   midi.PitchWheelEvent(tick=4, channel=5, data=[0, 86]),
   midi.PitchWheelEvent(tick=4, channel=5, data=[0, 90]),
   midi.PitchWheelEvent(tick=3, channel=5, data=[0, 94]),
   midi.PitchWheelEvent(tick=6, channel=5, data=[0, 97]),
   midi.PitchWheelEvent(tick=1, channel=5, data=[0, 101]),
   midi.PitchWheelEvent(tick=4, channel=5, data=[0, 105]),
   midi.PitchWheelEvent(tick=4, channel=5, data=[0, 109]),
   midi.PitchWheelEvent(tick=3, channel=5, data=[0, 112]),
   midi.PitchWheelEvent(tick=6, channel=5, data=[0, 116]),
   midi.PitchWheelEvent(tick=1, channel=5, data=[0, 120]),
   midi.PitchWheelEvent(tick=4, channel=5, data=[0, 124]),
   midi.PitchWheelEvent(tick=4, channel=5, data=[127, 127]),
   midi.NoteOnEvent(tick=81, channel=5, data=[62, 0]),
   midi.NoteOnEvent(tick=0, channel=5, data=[62, 127]),
   midi.PitchWheelEvent(tick=9, channel=5, data=[0, 64]),
   midi.NoteOnEvent(tick=135, channel=5, data=[62, 0]),
   midi.NoteOnEvent(tick=0, channel=5, data=[61, 127]),
   midi.NoteOnEvent(tick=144, channel=5, data=[61, 0]),
   midi.NoteOnEvent(tick=0, channel=5, data=[59, 127]),
   midi.NoteOnEvent(tick=144, channel=5, data=[59, 0]),
   midi.NoteOnEvent(tick=0, channel=5, data=[62, 127]),
   midi.NoteOnEvent(tick=144, channel=5, data=[62, 0]),
   midi.NoteOnEvent(tick=0, channel=5, data=[61, 127]),
   midi.NoteOnEvent(tick=144, channel=5, data=[61, 0]),
   midi.NoteOnEvent(tick=0, channel=5, data=[57, 127]),
   midi.NoteOnEvent(tick=144, channel=5, data=[57, 0]),
   midi.NoteOnEvent(tick=0, channel=5, data=[56, 127]),
   midi.NoteOnEvent(tick=144, channel=5, data=[56, 0]),
   midi.NoteOnEvent(tick=0, channel=5, data=[57, 127]),
   midi.PitchWheelEvent(tick=0, channel=5, data=[0, 64]),
   midi.PitchWheelEvent(tick=1, channel=5, data=[0, 65]),
   midi.PitchWheelEvent(tick=4, channel=5, data=[0, 67]),
   midi.PitchWheelEvent(tick=4, channel=5, data=[0, 69]),
   midi.PitchWheelEvent(tick=3, channel=5, data=[0, 71]),
   midi.PitchWheelEvent(tick=6, channel=5, data=[0, 73]),
   midi.ControlChangeEvent(tick=0, channel=5, data=[1, 64]),
   midi.PitchWheelEvent(tick=1, channel=5, data=[0, 75]),
   midi.PitchWheelEvent(tick=4, channel=5, data=[0, 77]),
   midi.PitchWheelEvent(tick=4, channel=5, data=[0, 79]),
   midi.PitchWheelEvent(tick=3, channel=5, data=[0, 81]),
   midi.PitchWheelEvent(tick=6, channel=5, data=[0, 83]),
   midi.PitchWheelEvent(tick=1, channel=5, data=[0, 85]),
   midi.PitchWheelEvent(tick=4, channel=5, data=[0, 87]),
   midi.PitchWheelEvent(tick=4, channel=5, data=[0, 89]),
   midi.PitchWheelEvent(tick=3, channel=5, data=[0, 91]),
   midi.PitchWheelEvent(tick=6, channel=5, data=[0, 93]),
   midi.PitchWheelEvent(tick=1, channel=5, data=[0, 95]),
   midi.PitchWheelEvent(tick=4, channel=5, data=[0, 96]),
   midi.PitchWheelEvent(tick=4, channel=5, data=[0, 98]),
   midi.PitchWheelEvent(tick=3, channel=5, data=[0, 100]),
   midi.PitchWheelEvent(tick=6, channel=5, data=[0, 102]),
   midi.PitchWheelEvent(tick=1, channel=5, data=[0, 104]),
   midi.PitchWheelEvent(tick=4, channel=5, data=[0, 106]),
   midi.PitchWheelEvent(tick=4, channel=5, data=[0, 108]),
   midi.PitchWheelEvent(tick=3, channel=5, data=[0, 110]),
   midi.PitchWheelEvent(tick=6, channel=5, data=[0, 112]),
   midi.PitchWheelEvent(tick=1, channel=5, data=[0, 114]),
   midi.PitchWheelEvent(tick=4, channel=5, data=[0, 116]),
   midi.PitchWheelEvent(tick=4, channel=5, data=[0, 118]),
   midi.PitchWheelEvent(tick=3, channel=5, data=[0, 120]),
   midi.PitchWheelEvent(tick=6, channel=5, data=[0, 122]),
   midi.PitchWheelEvent(tick=1, channel=5, data=[0, 124]),
   midi.PitchWheelEvent(tick=4, channel=5, data=[0, 126]),
   midi.PitchWheelEvent(tick=4, channel=5, data=[127, 127]),
   midi.ControlChangeEvent(tick=302, channel=5, data=[1, 0]),
   midi.NoteOnEvent(tick=13, channel=5, data=[57, 0]),
   midi.NoteOnEvent(tick=0, channel=5, data=[64, 127]),
   midi.PitchWheelEvent(tick=0, channel=5, data=[0, 0]),
   midi.PitchWheelEvent(tick=1, channel=5, data=[0, 3]),
   midi.PitchWheelEvent(tick=4, channel=5, data=[0, 10]),
   midi.PitchWheelEvent(tick=4, channel=5, data=[0, 17]),
   midi.PitchWheelEvent(tick=3, channel=5, data=[0, 23]),
   midi.PitchWheelEvent(tick=6, channel=5, data=[0, 30]),
   midi.PitchWheelEvent(tick=1, channel=5, data=[0, 37]),
   midi.PitchWheelEvent(tick=4, channel=5, data=[0, 43]),
   midi.PitchWheelEvent(tick=4, channel=5, data=[0, 50]),
   midi.PitchWheelEvent(tick=3, channel=5, data=[0, 57]),
   midi.PitchWheelEvent(tick=6, channel=5, data=[0, 64]),
   midi.NoteOnEvent(tick=72, channel=5, data=[64, 0]),
   midi.NoteOnEvent(tick=0, channel=5, data=[67, 127]),
   midi.NoteOnEvent(tick=108, channel=5, data=[67, 0]),
   midi.NoteOnEvent(tick=0, channel=5, data=[71, 127]),
   midi.NoteOnEvent(tick=108, channel=5, data=[71, 0]),
   midi.NoteOnEvent(tick=0, channel=5, data=[74, 127]),
   midi.PitchWheelEvent(tick=9, channel=5, data=[0, 64]),
   midi.PitchWheelEvent(tick=3, channel=5, data=[0, 67]),
   midi.PitchWheelEvent(tick=6, channel=5, data=[0, 71]),
   midi.ControlChangeEvent(tick=0, channel=5, data=[1, 67]),
   midi.PitchWheelEvent(tick=1, channel=5, data=[0, 74]),
   midi.PitchWheelEvent(tick=4, channel=5, data=[0, 78]),
   midi.PitchWheelEvent(tick=4, channel=5, data=[0, 81]),
   midi.PitchWheelEvent(tick=3, channel=5, data=[0, 85]),
   midi.PitchWheelEvent(tick=6, channel=5, data=[0, 88]),
   midi.PitchWheelEvent(tick=1, channel=5, data=[0, 92]),
   midi.PitchWheelEvent(tick=4, channel=5, data=[0, 96]),
   midi.PitchWheelEvent(tick=4, channel=5, data=[0, 99]),
   midi.PitchWheelEvent(tick=3, channel=5, data=[0, 103]),
   midi.PitchWheelEvent(tick=6, channel=5, data=[0, 106]),
   midi.PitchWheelEvent(tick=1, channel=5, data=[0, 110]),
   midi.PitchWheelEvent(tick=4, channel=5, data=[0, 113]),
   midi.PitchWheelEvent(tick=4, channel=5, data=[0, 117]),
   midi.PitchWheelEvent(tick=3, channel=5, data=[0, 120]),
   midi.PitchWheelEvent(tick=6, channel=5, data=[0, 124]),
   midi.PitchWheelEvent(tick=1, channel=5, data=[127, 127]),
   midi.ControlChangeEvent(tick=234, channel=5, data=[1, 0]),
   midi.PitchWheelEvent(tick=4, channel=5, data=[0, 64]),
   midi.NoteOnEvent(tick=9, channel=5, data=[74, 0]),
   midi.NoteOnEvent(tick=4, channel=5, data=[74, 127]),
   midi.NoteOnEvent(tick=72, channel=5, data=[74, 0]),
   midi.NoteOnEvent(tick=0, channel=5, data=[71, 127]),
   midi.NoteOnEvent(tick=72, channel=5, data=[71, 0]),
   midi.NoteOnEvent(tick=0, channel=5, data=[69, 127]),
   midi.NoteOnEvent(tick=72, channel=5, data=[69, 0]),
   midi.NoteOnEvent(tick=0, channel=5, data=[71, 127]),
   midi.NoteOnEvent(tick=108, channel=5, data=[71, 0]),
   midi.NoteOnEvent(tick=0, channel=5, data=[67, 127]),
   midi.PitchWheelEvent(tick=5, channel=5, data=[0, 64]),
   midi.PitchWheelEvent(tick=4, channel=5, data=[0, 66]),
   midi.PitchWheelEvent(tick=3, channel=5, data=[0, 68]),
   midi.ControlChangeEvent(tick=0, channel=5, data=[1, 64]),
   midi.PitchWheelEvent(tick=6, channel=5, data=[0, 70]),
   midi.PitchWheelEvent(tick=1, channel=5, data=[0, 73]),
   midi.PitchWheelEvent(tick=4, channel=5, data=[0, 75]),
   midi.PitchWheelEvent(tick=4, channel=5, data=[0, 77]),
   midi.PitchWheelEvent(tick=3, channel=5, data=[0, 80]),
   midi.PitchWheelEvent(tick=6, channel=5, data=[0, 82]),
   midi.PitchWheelEvent(tick=1, channel=5, data=[0, 84]),
   midi.PitchWheelEvent(tick=4, channel=5, data=[0, 86]),
   midi.PitchWheelEvent(tick=4, channel=5, data=[0, 89]),
   midi.PitchWheelEvent(tick=3, channel=5, data=[0, 91]),
   midi.PitchWheelEvent(tick=6, channel=5, data=[0, 93]),
   midi.PitchWheelEvent(tick=1, channel=5, data=[0, 96]),
   midi.PitchWheelEvent(tick=4, channel=5, data=[0, 98]),
   midi.PitchWheelEvent(tick=4, channel=5, data=[0, 100]),
   midi.PitchWheelEvent(tick=3, channel=5, data=[0, 102]),
   midi.PitchWheelEvent(tick=6, channel=5, data=[0, 105]),
   midi.PitchWheelEvent(tick=1, channel=5, data=[0, 107]),
   midi.PitchWheelEvent(tick=4, channel=5, data=[0, 109]),
   midi.PitchWheelEvent(tick=4, channel=5, data=[0, 112]),
   midi.PitchWheelEvent(tick=3, channel=5, data=[0, 114]),
   midi.PitchWheelEvent(tick=6, channel=5, data=[0, 116]),
   midi.PitchWheelEvent(tick=1, channel=5, data=[0, 118]),
   midi.PitchWheelEvent(tick=4, channel=5, data=[0, 121]),
   midi.PitchWheelEvent(tick=4, channel=5, data=[0, 123]),
   midi.PitchWheelEvent(tick=3, channel=5, data=[0, 125]),
   midi.PitchWheelEvent(tick=6, channel=5, data=[127, 127]),
   midi.PitchWheelEvent(tick=66, channel=5, data=[0, 64]),
   midi.ControlChangeEvent(tick=11, channel=5, data=[1, 0]),
   midi.NoteOnEvent(tick=27, channel=5, data=[67, 0]),
   midi.NoteOnEvent(tick=4, channel=5, data=[79, 127]),
   midi.NoteOnEvent(tick=54, channel=5, data=[79, 0]),
   midi.NoteOnEvent(tick=0, channel=5, data=[76, 127]),
   midi.NoteOnEvent(tick=54, channel=5, data=[76, 0]),
   midi.NoteOnEvent(tick=0, channel=5, data=[79, 127]),
   midi.ControlChangeEvent(tick=45, channel=5, data=[1, 63]),
   midi.NoteOnEvent(tick=9, channel=5, data=[79, 0]),
   midi.NoteOnEvent(tick=0, channel=5, data=[76, 127]),
   midi.ControlChangeEvent(tick=360, channel=5, data=[1, 0]),
   midi.NoteOnEvent(tick=14, channel=5, data=[76, 0]),
   midi.NoteOnEvent(tick=4, channel=5, data=[84, 127]),
   midi.NoteOnEvent(tick=54, channel=5, data=[84, 0]),
   midi.NoteOnEvent(tick=0, channel=5, data=[79, 127]),
   midi.NoteOnEvent(tick=54, channel=5, data=[79, 0]),
   midi.NoteOnEvent(tick=0, channel=5, data=[84, 127]),
   midi.NoteOnEvent(tick=54, channel=5, data=[84, 0]),
   midi.NoteOnEvent(tick=0, channel=5, data=[79, 127]),
   midi.NoteOnEvent(tick=54, channel=5, data=[79, 0]),
   midi.NoteOnEvent(tick=0, channel=5, data=[72, 127]),
   midi.NoteOnEvent(tick=72, channel=5, data=[72, 0]),
   midi.NoteOnEvent(tick=0, channel=5, data=[71, 127]),
   midi.NoteOnEvent(tick=72, channel=5, data=[71, 0]),
   midi.NoteOnEvent(tick=0, channel=5, data=[69, 127]),
   midi.NoteOnEvent(tick=72, channel=5, data=[69, 0]),
   midi.NoteOnEvent(tick=0, channel=5, data=[69, 127]),
   midi.NoteOnEvent(tick=54, channel=5, data=[69, 0]),
   midi.NoteOnEvent(tick=0, channel=5, data=[71, 127]),
   midi.NoteOnEvent(tick=54, channel=5, data=[71, 0]),
   midi.NoteOnEvent(tick=0, channel=5, data=[78, 127]),
   midi.NoteOnEvent(tick=54, channel=5, data=[78, 0]),
   midi.NoteOnEvent(tick=0, channel=5, data=[78, 127]),
   midi.NoteOnEvent(tick=54, channel=5, data=[78, 0]),
   midi.NoteOnEvent(tick=0, channel=5, data=[71, 127]),
   midi.NoteOnEvent(tick=72, channel=5, data=[71, 0]),
   midi.NoteOnEvent(tick=0, channel=5, data=[69, 127]),
   midi.NoteOnEvent(tick=72, channel=5, data=[69, 0]),
   midi.NoteOnEvent(tick=0, channel=5, data=[67, 127]),
   midi.NoteOnEvent(tick=72, channel=5, data=[67, 0]),
   midi.NoteOnEvent(tick=0, channel=5, data=[69, 127]),
   midi.NoteOnEvent(tick=72, channel=5, data=[69, 0]),
   midi.NoteOnEvent(tick=0, channel=5, data=[67, 127]),
   midi.NoteOnEvent(tick=88, channel=5, data=[67, 0]),
   midi.NoteOnEvent(tick=2, channel=5, data=[66, 127]),
   midi.NoteOnEvent(tick=18, channel=5, data=[67, 127]),
   midi.NoteOnEvent(tick=14, channel=5, data=[66, 0]),
   midi.NoteOnEvent(tick=20, channel=5, data=[67, 0]),
   midi.NoteOnEvent(tick=2, channel=5, data=[66, 127]),
   midi.NoteOnEvent(tick=36, channel=5, data=[66, 0]),
   midi.NoteOnEvent(tick=0, channel=5, data=[67, 127]),
   midi.NoteOnEvent(tick=36, channel=5, data=[67, 0]),
   midi.NoteOnEvent(tick=0, channel=5, data=[66, 127]),
   midi.NoteOnEvent(tick=36, channel=5, data=[66, 0]),
   midi.NoteOnEvent(tick=0, channel=5, data=[64, 127]),
   midi.NoteOnEvent(tick=108, channel=5, data=[64, 0]),
   midi.NoteOnEvent(tick=0, channel=5, data=[41, 127]),
   midi.PitchWheelEvent(tick=27, channel=5, data=[0, 64]),
   midi.PitchWheelEvent(tick=3, channel=5, data=[0, 63]),
   midi.PitchWheelEvent(tick=6, channel=5, data=[0, 62]),
   midi.PitchWheelEvent(tick=1, channel=5, data=[0, 61]),
   midi.PitchWheelEvent(tick=4, channel=5, data=[0, 59]),
   midi.PitchWheelEvent(tick=4, channel=5, data=[0, 58]),
   midi.PitchWheelEvent(tick=3, channel=5, data=[0, 57]),
   midi.PitchWheelEvent(tick=6, channel=5, data=[0, 56]),
   midi.PitchWheelEvent(tick=1, channel=5, data=[0, 54]),
   midi.PitchWheelEvent(tick=4, channel=5, data=[0, 53]),
   midi.PitchWheelEvent(tick=4, channel=5, data=[0, 52]),
   midi.PitchWheelEvent(tick=3, channel=5, data=[0, 51]),
   midi.PitchWheelEvent(tick=6, channel=5, data=[0, 49]),
   midi.PitchWheelEvent(tick=1, channel=5, data=[0, 48]),
   midi.PitchWheelEvent(tick=4, channel=5, data=[0, 47]),
   midi.PitchWheelEvent(tick=4, channel=5, data=[0, 46]),
   midi.PitchWheelEvent(tick=3, channel=5, data=[0, 44]),
   midi.PitchWheelEvent(tick=6, channel=5, data=[0, 43]),
   midi.PitchWheelEvent(tick=1, channel=5, data=[0, 42]),
   midi.PitchWheelEvent(tick=4, channel=5, data=[0, 41]),
   midi.PitchWheelEvent(tick=4, channel=5, data=[0, 39]),
   midi.PitchWheelEvent(tick=3, channel=5, data=[0, 38]),
   midi.PitchWheelEvent(tick=6, channel=5, data=[0, 37]),
   midi.PitchWheelEvent(tick=1, channel=5, data=[0, 36]),
   midi.PitchWheelEvent(tick=4, channel=5, data=[0, 34]),
   midi.PitchWheelEvent(tick=4, channel=5, data=[0, 33]),
   midi.PitchWheelEvent(tick=3, channel=5, data=[0, 32]),
   midi.PitchWheelEvent(tick=6, channel=5, data=[0, 30]),
   midi.PitchWheelEvent(tick=1, channel=5, data=[0, 29]),
   midi.PitchWheelEvent(tick=4, channel=5, data=[0, 28]),
   midi.PitchWheelEvent(tick=4, channel=5, data=[0, 27]),
   midi.PitchWheelEvent(tick=3, channel=5, data=[0, 25]),
   midi.PitchWheelEvent(tick=6, channel=5, data=[0, 24]),
   midi.PitchWheelEvent(tick=1, channel=5, data=[0, 23]),
   midi.PitchWheelEvent(tick=4, channel=5, data=[0, 22]),
   midi.PitchWheelEvent(tick=4, channel=5, data=[0, 20]),
   midi.PitchWheelEvent(tick=3, channel=5, data=[0, 19]),
   midi.PitchWheelEvent(tick=6, channel=5, data=[0, 18]),
   midi.PitchWheelEvent(tick=1, channel=5, data=[0, 17]),
   midi.PitchWheelEvent(tick=4, channel=5, data=[0, 15]),
   midi.PitchWheelEvent(tick=4, channel=5, data=[0, 14]),
   midi.PitchWheelEvent(tick=3, channel=5, data=[0, 13]),
   midi.PitchWheelEvent(tick=6, channel=5, data=[0, 12]),
   midi.PitchWheelEvent(tick=1, channel=5, data=[0, 10]),
   midi.PitchWheelEvent(tick=4, channel=5, data=[0, 9]),
   midi.PitchWheelEvent(tick=4, channel=5, data=[0, 8]),
   midi.PitchWheelEvent(tick=3, channel=5, data=[0, 7]),
   midi.PitchWheelEvent(tick=6, channel=5, data=[0, 5]),
   midi.PitchWheelEvent(tick=1, channel=5, data=[0, 4]),
   midi.PitchWheelEvent(tick=4, channel=5, data=[0, 3]),
   midi.PitchWheelEvent(tick=4, channel=5, data=[0, 1]),
   midi.NoteOnEvent(tick=221, channel=5, data=[41, 0]),
   midi.ControlChangeEvent(tick=4, channel=5, data=[7, 100]),
   midi.PitchWheelEvent(tick=432, channel=5, data=[0, 64]),
   midi.EndOfTrackEvent(tick=0, data=[])]),
 midi.Track(\
  [midi.PortEvent(tick=0, data=[0]),
   midi.TrackNameEvent(tick=0, text='Bass', data=[66, 97, 115, 115]),
   midi.ProgramChangeEvent(tick=0, channel=6, data=[34]),
   midi.ControlChangeEvent(tick=0, channel=6, data=[7, 110]),
   midi.ControlChangeEvent(tick=0, channel=6, data=[10, 65]),
   midi.ControlChangeEvent(tick=0, channel=6, data=[1, 0]),
   midi.PitchWheelEvent(tick=0, channel=6, data=[0, 64]),
   midi.ControlChangeEvent(tick=0, channel=6, data=[11, 100]),
   midi.NoteOnEvent(tick=11232, channel=6, data=[28, 127]),
   midi.NoteOnEvent(tick=104, channel=6, data=[28, 0]),
   midi.NoteOnEvent(tick=4, channel=6, data=[28, 127]),
   midi.NoteOnEvent(tick=50, channel=6, data=[28, 0]),
   midi.NoteOnEvent(tick=4, channel=6, data=[28, 127]),
   midi.NoteOnEvent(tick=50, channel=6, data=[28, 0]),
   midi.NoteOnEvent(tick=4, channel=6, data=[28, 127]),
   midi.NoteOnEvent(tick=50, channel=6, data=[28, 0]),
   midi.NoteOnEvent(tick=4, channel=6, data=[28, 127]),
   midi.NoteOnEvent(tick=50, channel=6, data=[28, 0]),
   midi.NoteOnEvent(tick=4, channel=6, data=[29, 127]),
   midi.NoteOnEvent(tick=536, channel=6, data=[29, 0]),
   midi.NoteOnEvent(tick=4, channel=6, data=[30, 127]),
   midi.NoteOnEvent(tick=212, channel=6, data=[30, 0]),
   midi.NoteOnEvent(tick=4, channel=6, data=[30, 127]),
   midi.NoteOnEvent(tick=50, channel=6, data=[30, 0]),
   midi.NoteOnEvent(tick=4, channel=6, data=[30, 127]),
   midi.NoteOnEvent(tick=50, channel=6, data=[30, 0]),
   midi.NoteOnEvent(tick=4, channel=6, data=[31, 127]),
   midi.NoteOnEvent(tick=536, channel=6, data=[31, 0]),
   midi.NoteOnEvent(tick=4, channel=6, data=[28, 127]),
   midi.NoteOnEvent(tick=104, channel=6, data=[28, 0]),
   midi.NoteOnEvent(tick=4, channel=6, data=[28, 127]),
   midi.NoteOnEvent(tick=50, channel=6, data=[28, 0]),
   midi.NoteOnEvent(tick=4, channel=6, data=[28, 127]),
   midi.NoteOnEvent(tick=50, channel=6, data=[28, 0]),
   midi.NoteOnEvent(tick=4, channel=6, data=[28, 127]),
   midi.NoteOnEvent(tick=50, channel=6, data=[28, 0]),
   midi.NoteOnEvent(tick=4, channel=6, data=[28, 127]),
   midi.NoteOnEvent(tick=50, channel=6, data=[28, 0]),
   midi.NoteOnEvent(tick=4, channel=6, data=[29, 127]),
   midi.NoteOnEvent(tick=536, channel=6, data=[29, 0]),
   midi.NoteOnEvent(tick=4, channel=6, data=[30, 127]),
   midi.NoteOnEvent(tick=212, channel=6, data=[30, 0]),
   midi.NoteOnEvent(tick=4, channel=6, data=[30, 127]),
   midi.NoteOnEvent(tick=50, channel=6, data=[30, 0]),
   midi.NoteOnEvent(tick=4, channel=6, data=[30, 127]),
   midi.NoteOnEvent(tick=50, channel=6, data=[30, 0]),
   midi.NoteOnEvent(tick=4, channel=6, data=[31, 127]),
   midi.NoteOnEvent(tick=536, channel=6, data=[31, 0]),
   midi.NoteOnEvent(tick=4, channel=6, data=[28, 127]),
   midi.NoteOnEvent(tick=104, channel=6, data=[28, 0]),
   midi.NoteOnEvent(tick=4, channel=6, data=[28, 127]),
   midi.NoteOnEvent(tick=50, channel=6, data=[28, 0]),
   midi.NoteOnEvent(tick=4, channel=6, data=[28, 127]),
   midi.NoteOnEvent(tick=50, channel=6, data=[28, 0]),
   midi.NoteOnEvent(tick=4, channel=6, data=[28, 127]),
   midi.NoteOnEvent(tick=50, channel=6, data=[28, 0]),
   midi.NoteOnEvent(tick=4, channel=6, data=[28, 127]),
   midi.NoteOnEvent(tick=50, channel=6, data=[28, 0]),
   midi.NoteOnEvent(tick=4, channel=6, data=[29, 127]),
   midi.NoteOnEvent(tick=536, channel=6, data=[29, 0]),
   midi.NoteOnEvent(tick=4, channel=6, data=[30, 127]),
   midi.NoteOnEvent(tick=212, channel=6, data=[30, 0]),
   midi.NoteOnEvent(tick=4, channel=6, data=[30, 127]),
   midi.NoteOnEvent(tick=50, channel=6, data=[30, 0]),
   midi.NoteOnEvent(tick=4, channel=6, data=[30, 127]),
   midi.NoteOnEvent(tick=50, channel=6, data=[30, 0]),
   midi.NoteOnEvent(tick=4, channel=6, data=[31, 127]),
   midi.NoteOnEvent(tick=536, channel=6, data=[31, 0]),
   midi.NoteOnEvent(tick=4, channel=6, data=[28, 127]),
   midi.NoteOnEvent(tick=104, channel=6, data=[28, 0]),
   midi.NoteOnEvent(tick=4, channel=6, data=[28, 127]),
   midi.NoteOnEvent(tick=50, channel=6, data=[28, 0]),
   midi.NoteOnEvent(tick=4, channel=6, data=[28, 127]),
   midi.NoteOnEvent(tick=50, channel=6, data=[28, 0]),
   midi.NoteOnEvent(tick=4, channel=6, data=[28, 127]),
   midi.NoteOnEvent(tick=50, channel=6, data=[28, 0]),
   midi.NoteOnEvent(tick=4, channel=6, data=[28, 127]),
   midi.NoteOnEvent(tick=50, channel=6, data=[28, 0]),
   midi.NoteOnEvent(tick=4, channel=6, data=[29, 127]),
   midi.NoteOnEvent(tick=536, channel=6, data=[29, 0]),
   midi.NoteOnEvent(tick=4, channel=6, data=[30, 127]),
   midi.NoteOnEvent(tick=212, channel=6, data=[30, 0]),
   midi.NoteOnEvent(tick=4, channel=6, data=[30, 127]),
   midi.NoteOnEvent(tick=50, channel=6, data=[30, 0]),
   midi.NoteOnEvent(tick=4, channel=6, data=[30, 127]),
   midi.NoteOnEvent(tick=50, channel=6, data=[30, 0]),
   midi.NoteOnEvent(tick=4, channel=6, data=[31, 127]),
   midi.NoteOnEvent(tick=536, channel=6, data=[31, 0]),
   midi.NoteOnEvent(tick=4, channel=6, data=[28, 127]),
   midi.NoteOnEvent(tick=212, channel=6, data=[28, 0]),
   midi.NoteOnEvent(tick=4, channel=6, data=[35, 127]),
   midi.NoteOnEvent(tick=212, channel=6, data=[35, 0]),
   midi.NoteOnEvent(tick=4, channel=6, data=[31, 127]),
   midi.NoteOnEvent(tick=212, channel=6, data=[31, 0]),
   midi.NoteOnEvent(tick=4, channel=6, data=[39, 127]),
   midi.NoteOnEvent(tick=0, channel=6, data=[35, 127]),
   midi.NoteOnEvent(tick=212, channel=6, data=[35, 0]),
   midi.NoteOnEvent(tick=0, channel=6, data=[39, 0]),
   midi.NoteOnEvent(tick=4, channel=6, data=[28, 127]),
   midi.NoteOnEvent(tick=107, channel=6, data=[28, 0]),
   midi.NoteOnEvent(tick=3349, channel=6, data=[28, 127]),
   midi.NoteOnEvent(tick=214, channel=6, data=[28, 0]),
   midi.NoteOnEvent(tick=326, channel=6, data=[34, 127]),
   midi.NoteOnEvent(tick=108, channel=6, data=[34, 0]),
   midi.NoteOnEvent(tick=0, channel=6, data=[34, 127]),
   midi.NoteOnEvent(tick=108, channel=6, data=[34, 0]),
   midi.NoteOnEvent(tick=0, channel=6, data=[33, 127]),
   midi.NoteOnEvent(tick=108, channel=6, data=[33, 0]),
   midi.NoteOnEvent(tick=0, channel=6, data=[28, 127]),
   midi.NoteOnEvent(tick=104, channel=6, data=[28, 0]),
   midi.NoteOnEvent(tick=1624, channel=6, data=[35, 127]),
   midi.NoteOnEvent(tick=108, channel=6, data=[35, 0]),
   midi.NoteOnEvent(tick=0, channel=6, data=[33, 127]),
   midi.NoteOnEvent(tick=108, channel=6, data=[33, 0]),
   midi.NoteOnEvent(tick=108, channel=6, data=[33, 127]),
   midi.NoteOnEvent(tick=108, channel=6, data=[33, 0]),
   midi.NoteOnEvent(tick=108, channel=6, data=[33, 127]),
   midi.NoteOnEvent(tick=108, channel=6, data=[33, 0]),
   midi.NoteOnEvent(tick=108, channel=6, data=[33, 127]),
   midi.NoteOnEvent(tick=108, channel=6, data=[33, 0]),
   midi.NoteOnEvent(tick=0, channel=6, data=[28, 127]),
   midi.NoteOnEvent(tick=108, channel=6, data=[28, 0]),
   midi.NoteOnEvent(tick=0, channel=6, data=[28, 127]),
   midi.NoteOnEvent(tick=54, channel=6, data=[28, 0]),
   midi.NoteOnEvent(tick=0, channel=6, data=[28, 127]),
   midi.NoteOnEvent(tick=54, channel=6, data=[28, 0]),
   midi.NoteOnEvent(tick=0, channel=6, data=[28, 127]),
   midi.NoteOnEvent(tick=108, channel=6, data=[28, 0]),
   midi.NoteOnEvent(tick=0, channel=6, data=[28, 127]),
   midi.NoteOnEvent(tick=54, channel=6, data=[28, 0]),
   midi.NoteOnEvent(tick=0, channel=6, data=[28, 127]),
   midi.NoteOnEvent(tick=54, channel=6, data=[28, 0]),
   midi.NoteOnEvent(tick=0, channel=6, data=[28, 127]),
   midi.NoteOnEvent(tick=108, channel=6, data=[28, 0]),
   midi.NoteOnEvent(tick=0, channel=6, data=[34, 127]),
   midi.NoteOnEvent(tick=108, channel=6, data=[34, 0]),
   midi.NoteOnEvent(tick=0, channel=6, data=[34, 127]),
   midi.NoteOnEvent(tick=108, channel=6, data=[34, 0]),
   midi.NoteOnEvent(tick=0, channel=6, data=[33, 127]),
   midi.NoteOnEvent(tick=108, channel=6, data=[33, 0]),
   midi.NoteOnEvent(tick=0, channel=6, data=[28, 127]),
   midi.NoteOnEvent(tick=108, channel=6, data=[28, 0]),
   midi.NoteOnEvent(tick=0, channel=6, data=[28, 127]),
   midi.NoteOnEvent(tick=54, channel=6, data=[28, 0]),
   midi.NoteOnEvent(tick=0, channel=6, data=[28, 127]),
   midi.NoteOnEvent(tick=54, channel=6, data=[28, 0]),
   midi.NoteOnEvent(tick=0, channel=6, data=[28, 127]),
   midi.NoteOnEvent(tick=108, channel=6, data=[28, 0]),
   midi.NoteOnEvent(tick=0, channel=6, data=[28, 127]),
   midi.NoteOnEvent(tick=54, channel=6, data=[28, 0]),
   midi.NoteOnEvent(tick=0, channel=6, data=[28, 127]),
   midi.NoteOnEvent(tick=54, channel=6, data=[28, 0]),
   midi.NoteOnEvent(tick=0, channel=6, data=[28, 127]),
   midi.NoteOnEvent(tick=108, channel=6, data=[28, 0]),
   midi.NoteOnEvent(tick=0, channel=6, data=[40, 127]),
   midi.NoteOnEvent(tick=108, channel=6, data=[40, 0]),
   midi.NoteOnEvent(tick=0, channel=6, data=[40, 127]),
   midi.NoteOnEvent(tick=108, channel=6, data=[40, 0]),
   midi.NoteOnEvent(tick=0, channel=6, data=[39, 127]),
   midi.NoteOnEvent(tick=108, channel=6, data=[39, 0]),
   midi.NoteOnEvent(tick=0, channel=6, data=[40, 127]),
   midi.NoteOnEvent(tick=108, channel=6, data=[40, 0]),
   midi.NoteOnEvent(tick=0, channel=6, data=[28, 127]),
   midi.NoteOnEvent(tick=54, channel=6, data=[28, 0]),
   midi.NoteOnEvent(tick=0, channel=6, data=[28, 127]),
   midi.NoteOnEvent(tick=54, channel=6, data=[28, 0]),
   midi.NoteOnEvent(tick=0, channel=6, data=[28, 127]),
   midi.NoteOnEvent(tick=108, channel=6, data=[28, 0]),
   midi.NoteOnEvent(tick=0, channel=6, data=[28, 127]),
   midi.NoteOnEvent(tick=54, channel=6, data=[28, 0]),
   midi.NoteOnEvent(tick=0, channel=6, data=[28, 127]),
   midi.NoteOnEvent(tick=54, channel=6, data=[28, 0]),
   midi.NoteOnEvent(tick=0, channel=6, data=[28, 127]),
   midi.NoteOnEvent(tick=108, channel=6, data=[28, 0]),
   midi.NoteOnEvent(tick=0, channel=6, data=[34, 127]),
   midi.NoteOnEvent(tick=108, channel=6, data=[34, 0]),
   midi.NoteOnEvent(tick=0, channel=6, data=[34, 127]),
   midi.NoteOnEvent(tick=108, channel=6, data=[34, 0]),
   midi.NoteOnEvent(tick=0, channel=6, data=[33, 127]),
   midi.NoteOnEvent(tick=108, channel=6, data=[33, 0]),
   midi.NoteOnEvent(tick=0, channel=6, data=[28, 127]),
   midi.NoteOnEvent(tick=108, channel=6, data=[28, 0]),
   midi.NoteOnEvent(tick=0, channel=6, data=[30, 127]),
   midi.NoteOnEvent(tick=0, channel=6, data=[37, 127]),
   midi.NoteOnEvent(tick=216, channel=6, data=[37, 0]),
   midi.NoteOnEvent(tick=0, channel=6, data=[30, 0]),
   midi.NoteOnEvent(tick=0, channel=6, data=[31, 127]),
   midi.NoteOnEvent(tick=0, channel=6, data=[38, 127]),
   midi.NoteOnEvent(tick=108, channel=6, data=[38, 0]),
   midi.NoteOnEvent(tick=0, channel=6, data=[31, 0]),
   midi.NoteOnEvent(tick=0, channel=6, data=[28, 127]),
   midi.NoteOnEvent(tick=108, channel=6, data=[28, 0]),
   midi.NoteOnEvent(tick=0, channel=6, data=[38, 127]),
   midi.NoteOnEvent(tick=0, channel=6, data=[31, 127]),
   midi.NoteOnEvent(tick=216, channel=6, data=[31, 0]),
   midi.NoteOnEvent(tick=0, channel=6, data=[38, 0]),
   midi.NoteOnEvent(tick=0, channel=6, data=[32, 127]),
   midi.NoteOnEvent(tick=0, channel=6, data=[39, 127]),
   midi.NoteOnEvent(tick=108, channel=6, data=[39, 0]),
   midi.NoteOnEvent(tick=0, channel=6, data=[32, 0]),
   midi.NoteOnEvent(tick=0, channel=6, data=[28, 127]),
   midi.NoteOnEvent(tick=108, channel=6, data=[28, 0]),
   midi.NoteOnEvent(tick=0, channel=6, data=[28, 127]),
   midi.NoteOnEvent(tick=54, channel=6, data=[28, 0]),
   midi.NoteOnEvent(tick=0, channel=6, data=[28, 127]),
   midi.NoteOnEvent(tick=54, channel=6, data=[28, 0]),
   midi.NoteOnEvent(tick=0, channel=6, data=[28, 127]),
   midi.NoteOnEvent(tick=108, channel=6, data=[28, 0]),
   midi.NoteOnEvent(tick=0, channel=6, data=[28, 127]),
   midi.NoteOnEvent(tick=54, channel=6, data=[28, 0]),
   midi.NoteOnEvent(tick=0, channel=6, data=[28, 127]),
   midi.NoteOnEvent(tick=54, channel=6, data=[28, 0]),
   midi.NoteOnEvent(tick=0, channel=6, data=[28, 127]),
   midi.NoteOnEvent(tick=108, channel=6, data=[28, 0]),
   midi.NoteOnEvent(tick=0, channel=6, data=[34, 127]),
   midi.NoteOnEvent(tick=108, channel=6, data=[34, 0]),
   midi.NoteOnEvent(tick=0, channel=6, data=[34, 127]),
   midi.NoteOnEvent(tick=108, channel=6, data=[34, 0]),
   midi.NoteOnEvent(tick=0, channel=6, data=[33, 127]),
   midi.NoteOnEvent(tick=108, channel=6, data=[33, 0]),
   midi.NoteOnEvent(tick=0, channel=6, data=[28, 127]),
   midi.NoteOnEvent(tick=108, channel=6, data=[28, 0]),
   midi.NoteOnEvent(tick=0, channel=6, data=[28, 127]),
   midi.NoteOnEvent(tick=54, channel=6, data=[28, 0]),
   midi.NoteOnEvent(tick=0, channel=6, data=[28, 127]),
   midi.NoteOnEvent(tick=54, channel=6, data=[28, 0]),
   midi.NoteOnEvent(tick=0, channel=6, data=[28, 127]),
   midi.NoteOnEvent(tick=108, channel=6, data=[28, 0]),
   midi.NoteOnEvent(tick=0, channel=6, data=[28, 127]),
   midi.NoteOnEvent(tick=54, channel=6, data=[28, 0]),
   midi.NoteOnEvent(tick=0, channel=6, data=[28, 127]),
   midi.NoteOnEvent(tick=54, channel=6, data=[28, 0]),
   midi.NoteOnEvent(tick=0, channel=6, data=[28, 127]),
   midi.NoteOnEvent(tick=108, channel=6, data=[28, 0]),
   midi.NoteOnEvent(tick=0, channel=6, data=[40, 127]),
   midi.NoteOnEvent(tick=108, channel=6, data=[40, 0]),
   midi.NoteOnEvent(tick=0, channel=6, data=[40, 127]),
   midi.NoteOnEvent(tick=108, channel=6, data=[40, 0]),
   midi.NoteOnEvent(tick=0, channel=6, data=[39, 127]),
   midi.NoteOnEvent(tick=108, channel=6, data=[39, 0]),
   midi.NoteOnEvent(tick=0, channel=6, data=[40, 127]),
   midi.NoteOnEvent(tick=108, channel=6, data=[40, 0]),
   midi.NoteOnEvent(tick=0, channel=6, data=[28, 127]),
   midi.NoteOnEvent(tick=54, channel=6, data=[28, 0]),
   midi.NoteOnEvent(tick=0, channel=6, data=[28, 127]),
   midi.NoteOnEvent(tick=54, channel=6, data=[28, 0]),
   midi.NoteOnEvent(tick=0, channel=6, data=[28, 127]),
   midi.NoteOnEvent(tick=108, channel=6, data=[28, 0]),
   midi.NoteOnEvent(tick=0, channel=6, data=[28, 127]),
   midi.NoteOnEvent(tick=54, channel=6, data=[28, 0]),
   midi.NoteOnEvent(tick=0, channel=6, data=[28, 127]),
   midi.NoteOnEvent(tick=54, channel=6, data=[28, 0]),
   midi.NoteOnEvent(tick=0, channel=6, data=[28, 127]),
   midi.NoteOnEvent(tick=108, channel=6, data=[28, 0]),
   midi.NoteOnEvent(tick=0, channel=6, data=[34, 127]),
   midi.NoteOnEvent(tick=108, channel=6, data=[34, 0]),
   midi.NoteOnEvent(tick=0, channel=6, data=[34, 127]),
   midi.NoteOnEvent(tick=108, channel=6, data=[34, 0]),
   midi.NoteOnEvent(tick=0, channel=6, data=[33, 127]),
   midi.NoteOnEvent(tick=108, channel=6, data=[33, 0]),
   midi.NoteOnEvent(tick=0, channel=6, data=[35, 127]),
   midi.NoteOnEvent(tick=108, channel=6, data=[35, 0]),
   midi.NoteOnEvent(tick=0, channel=6, data=[33, 127]),
   midi.NoteOnEvent(tick=108, channel=6, data=[33, 0]),
   midi.NoteOnEvent(tick=108, channel=6, data=[33, 127]),
   midi.NoteOnEvent(tick=0, channel=6, data=[40, 127]),
   midi.NoteOnEvent(tick=108, channel=6, data=[40, 0]),
   midi.NoteOnEvent(tick=0, channel=6, data=[33, 0]),
   midi.NoteOnEvent(tick=108, channel=6, data=[33, 127]),
   midi.NoteOnEvent(tick=0, channel=6, data=[40, 127]),
   midi.NoteOnEvent(tick=108, channel=6, data=[40, 0]),
   midi.NoteOnEvent(tick=0, channel=6, data=[33, 0]),
   midi.NoteOnEvent(tick=108, channel=6, data=[33, 127]),
   midi.NoteOnEvent(tick=0, channel=6, data=[40, 127]),
   midi.NoteOnEvent(tick=108, channel=6, data=[40, 0]),
   midi.NoteOnEvent(tick=0, channel=6, data=[33, 0]),
   midi.NoteOnEvent(tick=0, channel=6, data=[28, 127]),
   midi.NoteOnEvent(tick=212, channel=6, data=[28, 0]),
   midi.NoteOnEvent(tick=4, channel=6, data=[28, 127]),
   midi.NoteOnEvent(tick=212, channel=6, data=[28, 0]),
   midi.NoteOnEvent(tick=4, channel=6, data=[28, 127]),
   midi.NoteOnEvent(tick=212, channel=6, data=[28, 0]),
   midi.NoteOnEvent(tick=4, channel=6, data=[28, 127]),
   midi.NoteOnEvent(tick=104, channel=6, data=[28, 0]),
   midi.NoteOnEvent(tick=4, channel=6, data=[28, 127]),
   midi.NoteOnEvent(tick=104, channel=6, data=[28, 0]),
   midi.NoteOnEvent(tick=4, channel=6, data=[31, 127]),
   midi.NoteOnEvent(tick=212, channel=6, data=[31, 0]),
   midi.NoteOnEvent(tick=4, channel=6, data=[31, 127]),
   midi.NoteOnEvent(tick=212, channel=6, data=[31, 0]),
   midi.NoteOnEvent(tick=4, channel=6, data=[31, 127]),
   midi.NoteOnEvent(tick=212, channel=6, data=[31, 0]),
   midi.NoteOnEvent(tick=4, channel=6, data=[31, 127]),
   midi.NoteOnEvent(tick=104, channel=6, data=[31, 0]),
   midi.NoteOnEvent(tick=4, channel=6, data=[31, 127]),
   midi.NoteOnEvent(tick=104, channel=6, data=[31, 0]),
   midi.NoteOnEvent(tick=4, channel=6, data=[33, 127]),
   midi.NoteOnEvent(tick=212, channel=6, data=[33, 0]),
   midi.NoteOnEvent(tick=4, channel=6, data=[33, 127]),
   midi.NoteOnEvent(tick=212, channel=6, data=[33, 0]),
   midi.NoteOnEvent(tick=4, channel=6, data=[36, 127]),
   midi.NoteOnEvent(tick=0, channel=6, data=[29, 127]),
   midi.NoteOnEvent(tick=104, channel=6, data=[29, 0]),
   midi.NoteOnEvent(tick=0, channel=6, data=[36, 0]),
   midi.NoteOnEvent(tick=4, channel=6, data=[36, 127]),
   midi.NoteOnEvent(tick=0, channel=6, data=[29, 127]),
   midi.NoteOnEvent(tick=104, channel=6, data=[29, 0]),
   midi.NoteOnEvent(tick=0, channel=6, data=[36, 0]),
   midi.NoteOnEvent(tick=4, channel=6, data=[30, 127]),
   midi.NoteOnEvent(tick=0, channel=6, data=[35, 127]),
   midi.NoteOnEvent(tick=212, channel=6, data=[35, 0]),
   midi.NoteOnEvent(tick=0, channel=6, data=[30, 0]),
   midi.NoteOnEvent(tick=4, channel=6, data=[28, 127]),
   midi.NoteOnEvent(tick=108, channel=6, data=[28, 0]),
   midi.NoteOnEvent(tick=0, channel=6, data=[28, 127]),
   midi.NoteOnEvent(tick=54, channel=6, data=[28, 0]),
   midi.NoteOnEvent(tick=0, channel=6, data=[28, 127]),
   midi.NoteOnEvent(tick=54, channel=6, data=[28, 0]),
   midi.NoteOnEvent(tick=0, channel=6, data=[28, 127]),
   midi.NoteOnEvent(tick=108, channel=6, data=[28, 0]),
   midi.NoteOnEvent(tick=0, channel=6, data=[28, 127]),
   midi.NoteOnEvent(tick=54, channel=6, data=[28, 0]),
   midi.NoteOnEvent(tick=0, channel=6, data=[28, 127]),
   midi.NoteOnEvent(tick=54, channel=6, data=[28, 0]),
   midi.NoteOnEvent(tick=0, channel=6, data=[28, 127]),
   midi.NoteOnEvent(tick=108, channel=6, data=[28, 0]),
   midi.NoteOnEvent(tick=0, channel=6, data=[34, 127]),
   midi.NoteOnEvent(tick=108, channel=6, data=[34, 0]),
   midi.NoteOnEvent(tick=0, channel=6, data=[34, 127]),
   midi.NoteOnEvent(tick=108, channel=6, data=[34, 0]),
   midi.NoteOnEvent(tick=0, channel=6, data=[33, 127]),
   midi.NoteOnEvent(tick=108, channel=6, data=[33, 0]),
   midi.NoteOnEvent(tick=0, channel=6, data=[28, 127]),
   midi.NoteOnEvent(tick=108, channel=6, data=[28, 0]),
   midi.NoteOnEvent(tick=0, channel=6, data=[28, 127]),
   midi.NoteOnEvent(tick=54, channel=6, data=[28, 0]),
   midi.NoteOnEvent(tick=0, channel=6, data=[28, 127]),
   midi.NoteOnEvent(tick=54, channel=6, data=[28, 0]),
   midi.NoteOnEvent(tick=0, channel=6, data=[28, 127]),
   midi.NoteOnEvent(tick=108, channel=6, data=[28, 0]),
   midi.NoteOnEvent(tick=0, channel=6, data=[28, 127]),
   midi.NoteOnEvent(tick=54, channel=6, data=[28, 0]),
   midi.NoteOnEvent(tick=0, channel=6, data=[28, 127]),
   midi.NoteOnEvent(tick=54, channel=6, data=[28, 0]),
   midi.NoteOnEvent(tick=0, channel=6, data=[28, 127]),
   midi.NoteOnEvent(tick=108, channel=6, data=[28, 0]),
   midi.NoteOnEvent(tick=0, channel=6, data=[40, 127]),
   midi.NoteOnEvent(tick=108, channel=6, data=[40, 0]),
   midi.NoteOnEvent(tick=0, channel=6, data=[40, 127]),
   midi.NoteOnEvent(tick=108, channel=6, data=[40, 0]),
   midi.NoteOnEvent(tick=0, channel=6, data=[39, 127]),
   midi.NoteOnEvent(tick=108, channel=6, data=[39, 0]),
   midi.NoteOnEvent(tick=0, channel=6, data=[40, 127]),
   midi.NoteOnEvent(tick=108, channel=6, data=[40, 0]),
   midi.NoteOnEvent(tick=0, channel=6, data=[28, 127]),
   midi.NoteOnEvent(tick=54, channel=6, data=[28, 0]),
   midi.NoteOnEvent(tick=0, channel=6, data=[28, 127]),
   midi.NoteOnEvent(tick=54, channel=6, data=[28, 0]),
   midi.NoteOnEvent(tick=0, channel=6, data=[28, 127]),
   midi.NoteOnEvent(tick=108, channel=6, data=[28, 0]),
   midi.NoteOnEvent(tick=0, channel=6, data=[28, 127]),
   midi.NoteOnEvent(tick=54, channel=6, data=[28, 0]),
   midi.NoteOnEvent(tick=0, channel=6, data=[28, 127]),
   midi.NoteOnEvent(tick=54, channel=6, data=[28, 0]),
   midi.NoteOnEvent(tick=0, channel=6, data=[28, 127]),
   midi.NoteOnEvent(tick=108, channel=6, data=[28, 0]),
   midi.NoteOnEvent(tick=0, channel=6, data=[34, 127]),
   midi.NoteOnEvent(tick=108, channel=6, data=[34, 0]),
   midi.NoteOnEvent(tick=0, channel=6, data=[34, 127]),
   midi.NoteOnEvent(tick=108, channel=6, data=[34, 0]),
   midi.NoteOnEvent(tick=0, channel=6, data=[33, 127]),
   midi.NoteOnEvent(tick=108, channel=6, data=[33, 0]),
   midi.NoteOnEvent(tick=0, channel=6, data=[28, 127]),
   midi.NoteOnEvent(tick=108, channel=6, data=[28, 0]),
   midi.NoteOnEvent(tick=0, channel=6, data=[30, 127]),
   midi.NoteOnEvent(tick=0, channel=6, data=[37, 127]),
   midi.NoteOnEvent(tick=216, channel=6, data=[37, 0]),
   midi.NoteOnEvent(tick=0, channel=6, data=[30, 0]),
   midi.NoteOnEvent(tick=0, channel=6, data=[31, 127]),
   midi.NoteOnEvent(tick=0, channel=6, data=[38, 127]),
   midi.NoteOnEvent(tick=108, channel=6, data=[38, 0]),
   midi.NoteOnEvent(tick=0, channel=6, data=[31, 0]),
   midi.NoteOnEvent(tick=0, channel=6, data=[28, 127]),
   midi.NoteOnEvent(tick=108, channel=6, data=[28, 0]),
   midi.NoteOnEvent(tick=0, channel=6, data=[38, 127]),
   midi.NoteOnEvent(tick=0, channel=6, data=[31, 127]),
   midi.NoteOnEvent(tick=216, channel=6, data=[31, 0]),
   midi.NoteOnEvent(tick=0, channel=6, data=[38, 0]),
   midi.NoteOnEvent(tick=0, channel=6, data=[32, 127]),
   midi.NoteOnEvent(tick=0, channel=6, data=[39, 127]),
   midi.NoteOnEvent(tick=108, channel=6, data=[39, 0]),
   midi.NoteOnEvent(tick=0, channel=6, data=[32, 0]),
   midi.NoteOnEvent(tick=0, channel=6, data=[28, 127]),
   midi.NoteOnEvent(tick=108, channel=6, data=[28, 0]),
   midi.NoteOnEvent(tick=0, channel=6, data=[28, 127]),
   midi.NoteOnEvent(tick=54, channel=6, data=[28, 0]),
   midi.NoteOnEvent(tick=0, channel=6, data=[28, 127]),
   midi.NoteOnEvent(tick=54, channel=6, data=[28, 0]),
   midi.NoteOnEvent(tick=0, channel=6, data=[28, 127]),
   midi.NoteOnEvent(tick=108, channel=6, data=[28, 0]),
   midi.NoteOnEvent(tick=0, channel=6, data=[28, 127]),
   midi.NoteOnEvent(tick=54, channel=6, data=[28, 0]),
   midi.NoteOnEvent(tick=0, channel=6, data=[28, 127]),
   midi.NoteOnEvent(tick=54, channel=6, data=[28, 0]),
   midi.NoteOnEvent(tick=0, channel=6, data=[28, 127]),
   midi.NoteOnEvent(tick=108, channel=6, data=[28, 0]),
   midi.NoteOnEvent(tick=0, channel=6, data=[34, 127]),
   midi.NoteOnEvent(tick=108, channel=6, data=[34, 0]),
   midi.NoteOnEvent(tick=0, channel=6, data=[34, 127]),
   midi.NoteOnEvent(tick=108, channel=6, data=[34, 0]),
   midi.NoteOnEvent(tick=0, channel=6, data=[33, 127]),
   midi.NoteOnEvent(tick=108, channel=6, data=[33, 0]),
   midi.NoteOnEvent(tick=0, channel=6, data=[28, 127]),
   midi.NoteOnEvent(tick=108, channel=6, data=[28, 0]),
   midi.NoteOnEvent(tick=0, channel=6, data=[28, 127]),
   midi.NoteOnEvent(tick=54, channel=6, data=[28, 0]),
   midi.NoteOnEvent(tick=0, channel=6, data=[28, 127]),
   midi.NoteOnEvent(tick=54, channel=6, data=[28, 0]),
   midi.NoteOnEvent(tick=0, channel=6, data=[28, 127]),
   midi.NoteOnEvent(tick=108, channel=6, data=[28, 0]),
   midi.NoteOnEvent(tick=0, channel=6, data=[28, 127]),
   midi.NoteOnEvent(tick=54, channel=6, data=[28, 0]),
   midi.NoteOnEvent(tick=0, channel=6, data=[28, 127]),
   midi.NoteOnEvent(tick=54, channel=6, data=[28, 0]),
   midi.NoteOnEvent(tick=0, channel=6, data=[28, 127]),
   midi.NoteOnEvent(tick=108, channel=6, data=[28, 0]),
   midi.NoteOnEvent(tick=0, channel=6, data=[40, 127]),
   midi.NoteOnEvent(tick=108, channel=6, data=[40, 0]),
   midi.NoteOnEvent(tick=0, channel=6, data=[40, 127]),
   midi.NoteOnEvent(tick=108, channel=6, data=[40, 0]),
   midi.NoteOnEvent(tick=0, channel=6, data=[39, 127]),
   midi.NoteOnEvent(tick=108, channel=6, data=[39, 0]),
   midi.NoteOnEvent(tick=0, channel=6, data=[40, 127]),
   midi.NoteOnEvent(tick=108, channel=6, data=[40, 0]),
   midi.NoteOnEvent(tick=0, channel=6, data=[28, 127]),
   midi.NoteOnEvent(tick=54, channel=6, data=[28, 0]),
   midi.NoteOnEvent(tick=0, channel=6, data=[28, 127]),
   midi.NoteOnEvent(tick=54, channel=6, data=[28, 0]),
   midi.NoteOnEvent(tick=0, channel=6, data=[28, 127]),
   midi.NoteOnEvent(tick=108, channel=6, data=[28, 0]),
   midi.NoteOnEvent(tick=0, channel=6, data=[28, 127]),
   midi.NoteOnEvent(tick=54, channel=6, data=[28, 0]),
   midi.NoteOnEvent(tick=0, channel=6, data=[28, 127]),
   midi.NoteOnEvent(tick=54, channel=6, data=[28, 0]),
   midi.NoteOnEvent(tick=0, channel=6, data=[28, 127]),
   midi.NoteOnEvent(tick=108, channel=6, data=[28, 0]),
   midi.NoteOnEvent(tick=0, channel=6, data=[34, 127]),
   midi.NoteOnEvent(tick=108, channel=6, data=[34, 0]),
   midi.NoteOnEvent(tick=0, channel=6, data=[34, 127]),
   midi.NoteOnEvent(tick=108, channel=6, data=[34, 0]),
   midi.NoteOnEvent(tick=0, channel=6, data=[33, 127]),
   midi.NoteOnEvent(tick=108, channel=6, data=[33, 0]),
   midi.NoteOnEvent(tick=0, channel=6, data=[28, 127]),
   midi.NoteOnEvent(tick=108, channel=6, data=[28, 0]),
   midi.NoteOnEvent(tick=0, channel=6, data=[30, 127]),
   midi.NoteOnEvent(tick=0, channel=6, data=[37, 127]),
   midi.NoteOnEvent(tick=216, channel=6, data=[37, 0]),
   midi.NoteOnEvent(tick=0, channel=6, data=[30, 0]),
   midi.NoteOnEvent(tick=0, channel=6, data=[31, 127]),
   midi.NoteOnEvent(tick=0, channel=6, data=[38, 127]),
   midi.NoteOnEvent(tick=108, channel=6, data=[38, 0]),
   midi.NoteOnEvent(tick=0, channel=6, data=[31, 0]),
   midi.NoteOnEvent(tick=0, channel=6, data=[28, 127]),
   midi.NoteOnEvent(tick=108, channel=6, data=[28, 0]),
   midi.NoteOnEvent(tick=0, channel=6, data=[38, 127]),
   midi.NoteOnEvent(tick=0, channel=6, data=[31, 127]),
   midi.NoteOnEvent(tick=216, channel=6, data=[31, 0]),
   midi.NoteOnEvent(tick=0, channel=6, data=[38, 0]),
   midi.NoteOnEvent(tick=0, channel=6, data=[32, 127]),
   midi.NoteOnEvent(tick=0, channel=6, data=[39, 127]),
   midi.NoteOnEvent(tick=108, channel=6, data=[39, 0]),
   midi.NoteOnEvent(tick=0, channel=6, data=[32, 0]),
   midi.NoteOnEvent(tick=0, channel=6, data=[28, 127]),
   midi.NoteOnEvent(tick=212, channel=6, data=[28, 0]),
   midi.NoteOnEvent(tick=4, channel=6, data=[28, 127]),
   midi.NoteOnEvent(tick=212, channel=6, data=[28, 0]),
   midi.NoteOnEvent(tick=4, channel=6, data=[28, 127]),
   midi.NoteOnEvent(tick=212, channel=6, data=[28, 0]),
   midi.NoteOnEvent(tick=4, channel=6, data=[28, 127]),
   midi.NoteOnEvent(tick=104, channel=6, data=[28, 0]),
   midi.NoteOnEvent(tick=4, channel=6, data=[28, 127]),
   midi.NoteOnEvent(tick=104, channel=6, data=[28, 0]),
   midi.NoteOnEvent(tick=4, channel=6, data=[31, 127]),
   midi.NoteOnEvent(tick=212, channel=6, data=[31, 0]),
   midi.NoteOnEvent(tick=4, channel=6, data=[31, 127]),
   midi.NoteOnEvent(tick=104, channel=6, data=[31, 0]),
   midi.NoteOnEvent(tick=4, channel=6, data=[31, 127]),
   midi.NoteOnEvent(tick=104, channel=6, data=[31, 0]),
   midi.NoteOnEvent(tick=4, channel=6, data=[31, 127]),
   midi.NoteOnEvent(tick=212, channel=6, data=[31, 0]),
   midi.NoteOnEvent(tick=4, channel=6, data=[31, 127]),
   midi.NoteOnEvent(tick=104, channel=6, data=[31, 0]),
   midi.NoteOnEvent(tick=4, channel=6, data=[31, 127]),
   midi.NoteOnEvent(tick=104, channel=6, data=[31, 0]),
   midi.NoteOnEvent(tick=4, channel=6, data=[33, 127]),
   midi.NoteOnEvent(tick=428, channel=6, data=[33, 0]),
   midi.NoteOnEvent(tick=4, channel=6, data=[36, 127]),
   midi.NoteOnEvent(tick=0, channel=6, data=[29, 127]),
   midi.NoteOnEvent(tick=104, channel=6, data=[29, 0]),
   midi.NoteOnEvent(tick=0, channel=6, data=[36, 0]),
   midi.NoteOnEvent(tick=4, channel=6, data=[36, 127]),
   midi.NoteOnEvent(tick=0, channel=6, data=[29, 127]),
   midi.NoteOnEvent(tick=104, channel=6, data=[29, 0]),
   midi.NoteOnEvent(tick=0, channel=6, data=[36, 0]),
   midi.NoteOnEvent(tick=4, channel=6, data=[38, 127]),
   midi.NoteOnEvent(tick=0, channel=6, data=[30, 127]),
   midi.NoteOnEvent(tick=0, channel=6, data=[35, 127]),
   midi.NoteOnEvent(tick=212, channel=6, data=[35, 0]),
   midi.NoteOnEvent(tick=0, channel=6, data=[30, 0]),
   midi.NoteOnEvent(tick=0, channel=6, data=[38, 0]),
   midi.NoteOnEvent(tick=4, channel=6, data=[28, 127]),
   midi.NoteOnEvent(tick=108, channel=6, data=[28, 0]),
   midi.NoteOnEvent(tick=0, channel=6, data=[28, 127]),
   midi.NoteOnEvent(tick=54, channel=6, data=[28, 0]),
   midi.NoteOnEvent(tick=0, channel=6, data=[28, 127]),
   midi.NoteOnEvent(tick=54, channel=6, data=[28, 0]),
   midi.NoteOnEvent(tick=0, channel=6, data=[28, 127]),
   midi.NoteOnEvent(tick=108, channel=6, data=[28, 0]),
   midi.NoteOnEvent(tick=0, channel=6, data=[28, 127]),
   midi.NoteOnEvent(tick=54, channel=6, data=[28, 0]),
   midi.NoteOnEvent(tick=0, channel=6, data=[28, 127]),
   midi.NoteOnEvent(tick=54, channel=6, data=[28, 0]),
   midi.NoteOnEvent(tick=0, channel=6, data=[28, 127]),
   midi.NoteOnEvent(tick=108, channel=6, data=[28, 0]),
   midi.NoteOnEvent(tick=0, channel=6, data=[34, 127]),
   midi.NoteOnEvent(tick=108, channel=6, data=[34, 0]),
   midi.NoteOnEvent(tick=0, channel=6, data=[34, 127]),
   midi.NoteOnEvent(tick=108, channel=6, data=[34, 0]),
   midi.NoteOnEvent(tick=0, channel=6, data=[33, 127]),
   midi.NoteOnEvent(tick=108, channel=6, data=[33, 0]),
   midi.NoteOnEvent(tick=0, channel=6, data=[28, 127]),
   midi.NoteOnEvent(tick=108, channel=6, data=[28, 0]),
   midi.NoteOnEvent(tick=0, channel=6, data=[28, 127]),
   midi.NoteOnEvent(tick=54, channel=6, data=[28, 0]),
   midi.NoteOnEvent(tick=0, channel=6, data=[28, 127]),
   midi.NoteOnEvent(tick=54, channel=6, data=[28, 0]),
   midi.NoteOnEvent(tick=0, channel=6, data=[28, 127]),
   midi.NoteOnEvent(tick=108, channel=6, data=[28, 0]),
   midi.NoteOnEvent(tick=0, channel=6, data=[28, 127]),
   midi.NoteOnEvent(tick=54, channel=6, data=[28, 0]),
   midi.NoteOnEvent(tick=0, channel=6, data=[28, 127]),
   midi.NoteOnEvent(tick=54, channel=6, data=[28, 0]),
   midi.NoteOnEvent(tick=0, channel=6, data=[28, 127]),
   midi.NoteOnEvent(tick=108, channel=6, data=[28, 0]),
   midi.NoteOnEvent(tick=0, channel=6, data=[40, 127]),
   midi.NoteOnEvent(tick=108, channel=6, data=[40, 0]),
   midi.NoteOnEvent(tick=0, channel=6, data=[40, 127]),
   midi.NoteOnEvent(tick=108, channel=6, data=[40, 0]),
   midi.NoteOnEvent(tick=0, channel=6, data=[39, 127]),
   midi.NoteOnEvent(tick=108, channel=6, data=[39, 0]),
   midi.NoteOnEvent(tick=0, channel=6, data=[40, 127]),
   midi.NoteOnEvent(tick=108, channel=6, data=[40, 0]),
   midi.NoteOnEvent(tick=0, channel=6, data=[28, 127]),
   midi.NoteOnEvent(tick=54, channel=6, data=[28, 0]),
   midi.NoteOnEvent(tick=0, channel=6, data=[28, 127]),
   midi.NoteOnEvent(tick=54, channel=6, data=[28, 0]),
   midi.NoteOnEvent(tick=0, channel=6, data=[28, 127]),
   midi.NoteOnEvent(tick=108, channel=6, data=[28, 0]),
   midi.NoteOnEvent(tick=0, channel=6, data=[28, 127]),
   midi.NoteOnEvent(tick=54, channel=6, data=[28, 0]),
   midi.NoteOnEvent(tick=0, channel=6, data=[28, 127]),
   midi.NoteOnEvent(tick=54, channel=6, data=[28, 0]),
   midi.NoteOnEvent(tick=0, channel=6, data=[28, 127]),
   midi.NoteOnEvent(tick=108, channel=6, data=[28, 0]),
   midi.NoteOnEvent(tick=0, channel=6, data=[34, 127]),
   midi.NoteOnEvent(tick=108, channel=6, data=[34, 0]),
   midi.NoteOnEvent(tick=0, channel=6, data=[34, 127]),
   midi.NoteOnEvent(tick=108, channel=6, data=[34, 0]),
   midi.NoteOnEvent(tick=0, channel=6, data=[33, 127]),
   midi.NoteOnEvent(tick=108, channel=6, data=[33, 0]),
   midi.NoteOnEvent(tick=0, channel=6, data=[28, 127]),
   midi.NoteOnEvent(tick=108, channel=6, data=[28, 0]),
   midi.NoteOnEvent(tick=0, channel=6, data=[30, 127]),
   midi.NoteOnEvent(tick=0, channel=6, data=[37, 127]),
   midi.NoteOnEvent(tick=216, channel=6, data=[37, 0]),
   midi.NoteOnEvent(tick=0, channel=6, data=[30, 0]),
   midi.NoteOnEvent(tick=0, channel=6, data=[31, 127]),
   midi.NoteOnEvent(tick=0, channel=6, data=[38, 127]),
   midi.NoteOnEvent(tick=108, channel=6, data=[38, 0]),
   midi.NoteOnEvent(tick=0, channel=6, data=[31, 0]),
   midi.NoteOnEvent(tick=0, channel=6, data=[28, 127]),
   midi.NoteOnEvent(tick=108, channel=6, data=[28, 0]),
   midi.NoteOnEvent(tick=0, channel=6, data=[38, 127]),
   midi.NoteOnEvent(tick=0, channel=6, data=[31, 127]),
   midi.NoteOnEvent(tick=216, channel=6, data=[31, 0]),
   midi.NoteOnEvent(tick=0, channel=6, data=[38, 0]),
   midi.NoteOnEvent(tick=0, channel=6, data=[32, 127]),
   midi.NoteOnEvent(tick=0, channel=6, data=[39, 127]),
   midi.NoteOnEvent(tick=108, channel=6, data=[39, 0]),
   midi.NoteOnEvent(tick=0, channel=6, data=[32, 0]),
   midi.NoteOnEvent(tick=0, channel=6, data=[28, 127]),
   midi.NoteOnEvent(tick=428, channel=6, data=[28, 0]),
   midi.NoteOnEvent(tick=4, channel=6, data=[28, 127]),
   midi.NoteOnEvent(tick=212, channel=6, data=[28, 0]),
   midi.NoteOnEvent(tick=4, channel=6, data=[28, 127]),
   midi.NoteOnEvent(tick=104, channel=6, data=[28, 0]),
   midi.NoteOnEvent(tick=4, channel=6, data=[28, 127]),
   midi.NoteOnEvent(tick=104, channel=6, data=[28, 0]),
   midi.NoteOnEvent(tick=4, channel=6, data=[31, 127]),
   midi.NoteOnEvent(tick=428, channel=6, data=[31, 0]),
   midi.NoteOnEvent(tick=4, channel=6, data=[31, 127]),
   midi.NoteOnEvent(tick=104, channel=6, data=[31, 0]),
   midi.NoteOnEvent(tick=4, channel=6, data=[31, 127]),
   midi.NoteOnEvent(tick=104, channel=6, data=[31, 0]),
   midi.NoteOnEvent(tick=4, channel=6, data=[31, 127]),
   midi.NoteOnEvent(tick=104, channel=6, data=[31, 0]),
   midi.NoteOnEvent(tick=4, channel=6, data=[31, 127]),
   midi.NoteOnEvent(tick=104, channel=6, data=[31, 0]),
   midi.NoteOnEvent(tick=4, channel=6, data=[33, 127]),
   midi.NoteOnEvent(tick=428, channel=6, data=[33, 0]),
   midi.NoteOnEvent(tick=4, channel=6, data=[36, 127]),
   midi.NoteOnEvent(tick=0, channel=6, data=[29, 127]),
   midi.NoteOnEvent(tick=104, channel=6, data=[29, 0]),
   midi.NoteOnEvent(tick=0, channel=6, data=[36, 0]),
   midi.NoteOnEvent(tick=4, channel=6, data=[36, 127]),
   midi.NoteOnEvent(tick=0, channel=6, data=[29, 127]),
   midi.NoteOnEvent(tick=104, channel=6, data=[29, 0]),
   midi.NoteOnEvent(tick=0, channel=6, data=[36, 0]),
   midi.NoteOnEvent(tick=4, channel=6, data=[38, 127]),
   midi.NoteOnEvent(tick=0, channel=6, data=[30, 127]),
   midi.NoteOnEvent(tick=212, channel=6, data=[30, 0]),
   midi.NoteOnEvent(tick=0, channel=6, data=[38, 0]),
   midi.NoteOnEvent(tick=4, channel=6, data=[28, 127]),
   midi.NoteOnEvent(tick=108, channel=6, data=[28, 0]),
   midi.NoteOnEvent(tick=0, channel=6, data=[28, 127]),
   midi.NoteOnEvent(tick=54, channel=6, data=[28, 0]),
   midi.NoteOnEvent(tick=0, channel=6, data=[28, 127]),
   midi.NoteOnEvent(tick=54, channel=6, data=[28, 0]),
   midi.NoteOnEvent(tick=0, channel=6, data=[28, 127]),
   midi.NoteOnEvent(tick=108, channel=6, data=[28, 0]),
   midi.NoteOnEvent(tick=0, channel=6, data=[28, 127]),
   midi.NoteOnEvent(tick=54, channel=6, data=[28, 0]),
   midi.NoteOnEvent(tick=0, channel=6, data=[28, 127]),
   midi.NoteOnEvent(tick=54, channel=6, data=[28, 0]),
   midi.NoteOnEvent(tick=0, channel=6, data=[28, 127]),
   midi.NoteOnEvent(tick=108, channel=6, data=[28, 0]),
   midi.NoteOnEvent(tick=0, channel=6, data=[34, 127]),
   midi.NoteOnEvent(tick=108, channel=6, data=[34, 0]),
   midi.NoteOnEvent(tick=0, channel=6, data=[34, 127]),
   midi.NoteOnEvent(tick=108, channel=6, data=[34, 0]),
   midi.NoteOnEvent(tick=0, channel=6, data=[33, 127]),
   midi.NoteOnEvent(tick=108, channel=6, data=[33, 0]),
   midi.NoteOnEvent(tick=0, channel=6, data=[28, 127]),
   midi.NoteOnEvent(tick=108, channel=6, data=[28, 0]),
   midi.NoteOnEvent(tick=0, channel=6, data=[28, 127]),
   midi.NoteOnEvent(tick=54, channel=6, data=[28, 0]),
   midi.NoteOnEvent(tick=0, channel=6, data=[28, 127]),
   midi.NoteOnEvent(tick=54, channel=6, data=[28, 0]),
   midi.NoteOnEvent(tick=0, channel=6, data=[28, 127]),
   midi.NoteOnEvent(tick=108, channel=6, data=[28, 0]),
   midi.NoteOnEvent(tick=0, channel=6, data=[28, 127]),
   midi.NoteOnEvent(tick=54, channel=6, data=[28, 0]),
   midi.NoteOnEvent(tick=0, channel=6, data=[28, 127]),
   midi.NoteOnEvent(tick=54, channel=6, data=[28, 0]),
   midi.NoteOnEvent(tick=0, channel=6, data=[28, 127]),
   midi.NoteOnEvent(tick=108, channel=6, data=[28, 0]),
   midi.NoteOnEvent(tick=0, channel=6, data=[40, 127]),
   midi.NoteOnEvent(tick=108, channel=6, data=[40, 0]),
   midi.NoteOnEvent(tick=0, channel=6, data=[40, 127]),
   midi.NoteOnEvent(tick=108, channel=6, data=[40, 0]),
   midi.NoteOnEvent(tick=0, channel=6, data=[39, 127]),
   midi.NoteOnEvent(tick=108, channel=6, data=[39, 0]),
   midi.NoteOnEvent(tick=0, channel=6, data=[28, 127]),
   midi.NoteOnEvent(tick=428, channel=6, data=[28, 0]),
   midi.NoteOnEvent(tick=4, channel=6, data=[35, 127]),
   midi.NoteOnEvent(tick=428, channel=6, data=[35, 0]),
   midi.NoteOnEvent(tick=4, channel=6, data=[31, 127]),
   midi.NoteOnEvent(tick=428, channel=6, data=[31, 0]),
   midi.NoteOnEvent(tick=4, channel=6, data=[28, 127]),
   midi.NoteOnEvent(tick=212, channel=6, data=[28, 0]),
   midi.NoteOnEvent(tick=4, channel=6, data=[39, 127]),
   midi.NoteOnEvent(tick=0, channel=6, data=[35, 127]),
   midi.NoteOnEvent(tick=212, channel=6, data=[35, 0]),
   midi.NoteOnEvent(tick=0, channel=6, data=[39, 0]),
   midi.NoteOnEvent(tick=4, channel=6, data=[28, 127]),
   midi.NoteOnEvent(tick=108, channel=6, data=[28, 0]),
   midi.NoteOnEvent(tick=0, channel=6, data=[28, 127]),
   midi.NoteOnEvent(tick=54, channel=6, data=[28, 0]),
   midi.NoteOnEvent(tick=0, channel=6, data=[28, 127]),
   midi.NoteOnEvent(tick=54, channel=6, data=[28, 0]),
   midi.NoteOnEvent(tick=0, channel=6, data=[28, 127]),
   midi.NoteOnEvent(tick=108, channel=6, data=[28, 0]),
   midi.NoteOnEvent(tick=0, channel=6, data=[28, 127]),
   midi.NoteOnEvent(tick=54, channel=6, data=[28, 0]),
   midi.NoteOnEvent(tick=0, channel=6, data=[28, 127]),
   midi.NoteOnEvent(tick=54, channel=6, data=[28, 0]),
   midi.NoteOnEvent(tick=0, channel=6, data=[28, 127]),
   midi.NoteOnEvent(tick=108, channel=6, data=[28, 0]),
   midi.NoteOnEvent(tick=0, channel=6, data=[34, 127]),
   midi.NoteOnEvent(tick=108, channel=6, data=[34, 0]),
   midi.NoteOnEvent(tick=0, channel=6, data=[34, 127]),
   midi.NoteOnEvent(tick=108, channel=6, data=[34, 0]),
   midi.NoteOnEvent(tick=0, channel=6, data=[33, 127]),
   midi.NoteOnEvent(tick=108, channel=6, data=[33, 0]),
   midi.NoteOnEvent(tick=0, channel=6, data=[28, 127]),
   midi.NoteOnEvent(tick=108, channel=6, data=[28, 0]),
   midi.NoteOnEvent(tick=0, channel=6, data=[28, 127]),
   midi.NoteOnEvent(tick=54, channel=6, data=[28, 0]),
   midi.NoteOnEvent(tick=0, channel=6, data=[28, 127]),
   midi.NoteOnEvent(tick=54, channel=6, data=[28, 0]),
   midi.NoteOnEvent(tick=0, channel=6, data=[28, 127]),
   midi.NoteOnEvent(tick=108, channel=6, data=[28, 0]),
   midi.NoteOnEvent(tick=0, channel=6, data=[28, 127]),
   midi.NoteOnEvent(tick=54, channel=6, data=[28, 0]),
   midi.NoteOnEvent(tick=0, channel=6, data=[28, 127]),
   midi.NoteOnEvent(tick=54, channel=6, data=[28, 0]),
   midi.NoteOnEvent(tick=0, channel=6, data=[28, 127]),
   midi.NoteOnEvent(tick=108, channel=6, data=[28, 0]),
   midi.NoteOnEvent(tick=0, channel=6, data=[40, 127]),
   midi.NoteOnEvent(tick=108, channel=6, data=[40, 0]),
   midi.NoteOnEvent(tick=0, channel=6, data=[40, 127]),
   midi.NoteOnEvent(tick=108, channel=6, data=[40, 0]),
   midi.NoteOnEvent(tick=0, channel=6, data=[39, 127]),
   midi.NoteOnEvent(tick=108, channel=6, data=[39, 0]),
   midi.NoteOnEvent(tick=0, channel=6, data=[40, 127]),
   midi.NoteOnEvent(tick=108, channel=6, data=[40, 0]),
   midi.NoteOnEvent(tick=0, channel=6, data=[28, 127]),
   midi.NoteOnEvent(tick=54, channel=6, data=[28, 0]),
   midi.NoteOnEvent(tick=0, channel=6, data=[28, 127]),
   midi.NoteOnEvent(tick=54, channel=6, data=[28, 0]),
   midi.NoteOnEvent(tick=0, channel=6, data=[28, 127]),
   midi.NoteOnEvent(tick=108, channel=6, data=[28, 0]),
   midi.NoteOnEvent(tick=0, channel=6, data=[28, 127]),
   midi.NoteOnEvent(tick=54, channel=6, data=[28, 0]),
   midi.NoteOnEvent(tick=0, channel=6, data=[28, 127]),
   midi.NoteOnEvent(tick=54, channel=6, data=[28, 0]),
   midi.NoteOnEvent(tick=0, channel=6, data=[28, 127]),
   midi.NoteOnEvent(tick=108, channel=6, data=[28, 0]),
   midi.NoteOnEvent(tick=0, channel=6, data=[34, 127]),
   midi.NoteOnEvent(tick=108, channel=6, data=[34, 0]),
   midi.NoteOnEvent(tick=0, channel=6, data=[34, 127]),
   midi.NoteOnEvent(tick=108, channel=6, data=[34, 0]),
   midi.NoteOnEvent(tick=0, channel=6, data=[33, 127]),
   midi.NoteOnEvent(tick=108, channel=6, data=[33, 0]),
   midi.NoteOnEvent(tick=0, channel=6, data=[34, 127]),
   midi.NoteOnEvent(tick=104, channel=6, data=[34, 0]),
   midi.NoteOnEvent(tick=4, channel=6, data=[29, 127]),
   midi.NoteOnEvent(tick=104, channel=6, data=[29, 0]),
   midi.NoteOnEvent(tick=4, channel=6, data=[28, 127]),
   midi.NoteOnEvent(tick=108, channel=6, data=[28, 0]),
   midi.NoteOnEvent(tick=0, channel=6, data=[28, 127]),
   midi.NoteOnEvent(tick=54, channel=6, data=[28, 0]),
   midi.NoteOnEvent(tick=0, channel=6, data=[28, 127]),
   midi.NoteOnEvent(tick=54, channel=6, data=[28, 0]),
   midi.NoteOnEvent(tick=0, channel=6, data=[28, 127]),
   midi.NoteOnEvent(tick=108, channel=6, data=[28, 0]),
   midi.NoteOnEvent(tick=0, channel=6, data=[28, 127]),
   midi.NoteOnEvent(tick=54, channel=6, data=[28, 0]),
   midi.NoteOnEvent(tick=0, channel=6, data=[28, 127]),
   midi.NoteOnEvent(tick=54, channel=6, data=[28, 0]),
   midi.NoteOnEvent(tick=0, channel=6, data=[28, 127]),
   midi.NoteOnEvent(tick=108, channel=6, data=[28, 0]),
   midi.NoteOnEvent(tick=0, channel=6, data=[34, 127]),
   midi.NoteOnEvent(tick=108, channel=6, data=[34, 0]),
   midi.NoteOnEvent(tick=0, channel=6, data=[34, 127]),
   midi.NoteOnEvent(tick=108, channel=6, data=[34, 0]),
   midi.NoteOnEvent(tick=0, channel=6, data=[33, 127]),
   midi.NoteOnEvent(tick=108, channel=6, data=[33, 0]),
   midi.NoteOnEvent(tick=0, channel=6, data=[28, 127]),
   midi.NoteOnEvent(tick=108, channel=6, data=[28, 0]),
   midi.NoteOnEvent(tick=0, channel=6, data=[28, 127]),
   midi.NoteOnEvent(tick=54, channel=6, data=[28, 0]),
   midi.NoteOnEvent(tick=0, channel=6, data=[28, 127]),
   midi.NoteOnEvent(tick=54, channel=6, data=[28, 0]),
   midi.NoteOnEvent(tick=0, channel=6, data=[28, 127]),
   midi.NoteOnEvent(tick=108, channel=6, data=[28, 0]),
   midi.NoteOnEvent(tick=0, channel=6, data=[28, 127]),
   midi.NoteOnEvent(tick=54, channel=6, data=[28, 0]),
   midi.NoteOnEvent(tick=0, channel=6, data=[28, 127]),
   midi.NoteOnEvent(tick=54, channel=6, data=[28, 0]),
   midi.NoteOnEvent(tick=0, channel=6, data=[28, 127]),
   midi.NoteOnEvent(tick=108, channel=6, data=[28, 0]),
   midi.NoteOnEvent(tick=0, channel=6, data=[40, 127]),
   midi.NoteOnEvent(tick=108, channel=6, data=[40, 0]),
   midi.NoteOnEvent(tick=0, channel=6, data=[40, 127]),
   midi.NoteOnEvent(tick=108, channel=6, data=[40, 0]),
   midi.NoteOnEvent(tick=0, channel=6, data=[39, 127]),
   midi.NoteOnEvent(tick=108, channel=6, data=[39, 0]),
   midi.NoteOnEvent(tick=0, channel=6, data=[40, 127]),
   midi.NoteOnEvent(tick=108, channel=6, data=[40, 0]),
   midi.NoteOnEvent(tick=0, channel=6, data=[28, 127]),
   midi.NoteOnEvent(tick=54, channel=6, data=[28, 0]),
   midi.NoteOnEvent(tick=0, channel=6, data=[28, 127]),
   midi.NoteOnEvent(tick=54, channel=6, data=[28, 0]),
   midi.NoteOnEvent(tick=0, channel=6, data=[28, 127]),
   midi.NoteOnEvent(tick=108, channel=6, data=[28, 0]),
   midi.NoteOnEvent(tick=0, channel=6, data=[28, 127]),
   midi.NoteOnEvent(tick=54, channel=6, data=[28, 0]),
   midi.NoteOnEvent(tick=0, channel=6, data=[28, 127]),
   midi.NoteOnEvent(tick=54, channel=6, data=[28, 0]),
   midi.NoteOnEvent(tick=0, channel=6, data=[28, 127]),
   midi.NoteOnEvent(tick=108, channel=6, data=[28, 0]),
   midi.NoteOnEvent(tick=0, channel=6, data=[34, 127]),
   midi.NoteOnEvent(tick=108, channel=6, data=[34, 0]),
   midi.NoteOnEvent(tick=0, channel=6, data=[34, 127]),
   midi.NoteOnEvent(tick=108, channel=6, data=[34, 0]),
   midi.NoteOnEvent(tick=0, channel=6, data=[33, 127]),
   midi.NoteOnEvent(tick=108, channel=6, data=[33, 0]),
   midi.NoteOnEvent(tick=0, channel=6, data=[34, 127]),
   midi.NoteOnEvent(tick=212, channel=6, data=[34, 0]),
   midi.NoteOnEvent(tick=4, channel=6, data=[29, 127]),
   midi.NoteOnEvent(tick=212, channel=6, data=[29, 0]),
   midi.NoteOnEvent(tick=4, channel=6, data=[28, 127]),
   midi.NoteOnEvent(tick=212, channel=6, data=[28, 0]),
   midi.NoteOnEvent(tick=220, channel=6, data=[28, 127]),
   midi.NoteOnEvent(tick=104, channel=6, data=[28, 0]),
   midi.NoteOnEvent(tick=4, channel=6, data=[28, 127]),
   midi.NoteOnEvent(tick=104, channel=6, data=[28, 0]),
   midi.NoteOnEvent(tick=4, channel=6, data=[28, 127]),
   midi.NoteOnEvent(tick=212, channel=6, data=[28, 0]),
   midi.NoteOnEvent(tick=4, channel=6, data=[28, 127]),
   midi.NoteOnEvent(tick=104, channel=6, data=[28, 0]),
   midi.NoteOnEvent(tick=4, channel=6, data=[28, 127]),
   midi.NoteOnEvent(tick=104, channel=6, data=[28, 0]),
   midi.NoteOnEvent(tick=4, channel=6, data=[28, 127]),
   midi.NoteOnEvent(tick=212, channel=6, data=[28, 0]),
   midi.NoteOnEvent(tick=4, channel=6, data=[31, 127]),
   midi.NoteOnEvent(tick=104, channel=6, data=[31, 0]),
   midi.NoteOnEvent(tick=4, channel=6, data=[31, 127]),
   midi.NoteOnEvent(tick=104, channel=6, data=[31, 0]),
   midi.NoteOnEvent(tick=4, channel=6, data=[31, 127]),
   midi.NoteOnEvent(tick=212, channel=6, data=[31, 0]),
   midi.NoteOnEvent(tick=4, channel=6, data=[31, 127]),
   midi.NoteOnEvent(tick=212, channel=6, data=[31, 0]),
   midi.NoteOnEvent(tick=4, channel=6, data=[31, 127]),
   midi.NoteOnEvent(tick=104, channel=6, data=[31, 0]),
   midi.NoteOnEvent(tick=4, channel=6, data=[31, 127]),
   midi.NoteOnEvent(tick=104, channel=6, data=[31, 0]),
   midi.NoteOnEvent(tick=4, channel=6, data=[33, 127]),
   midi.NoteOnEvent(tick=212, channel=6, data=[33, 0]),
   midi.NoteOnEvent(tick=4, channel=6, data=[33, 127]),
   midi.NoteOnEvent(tick=212, channel=6, data=[33, 0]),
   midi.NoteOnEvent(tick=4, channel=6, data=[36, 127]),
   midi.NoteOnEvent(tick=0, channel=6, data=[29, 127]),
   midi.NoteOnEvent(tick=104, channel=6, data=[29, 0]),
   midi.NoteOnEvent(tick=0, channel=6, data=[36, 0]),
   midi.NoteOnEvent(tick=4, channel=6, data=[36, 127]),
   midi.NoteOnEvent(tick=0, channel=6, data=[29, 127]),
   midi.NoteOnEvent(tick=104, channel=6, data=[29, 0]),
   midi.NoteOnEvent(tick=0, channel=6, data=[36, 0]),
   midi.NoteOnEvent(tick=4, channel=6, data=[38, 127]),
   midi.NoteOnEvent(tick=0, channel=6, data=[30, 127]),
   midi.NoteOnEvent(tick=212, channel=6, data=[30, 0]),
   midi.NoteOnEvent(tick=0, channel=6, data=[38, 0]),
   midi.NoteOnEvent(tick=4, channel=6, data=[28, 127]),
   midi.NoteOnEvent(tick=108, channel=6, data=[28, 0]),
   midi.NoteOnEvent(tick=0, channel=6, data=[28, 127]),
   midi.NoteOnEvent(tick=54, channel=6, data=[28, 0]),
   midi.NoteOnEvent(tick=0, channel=6, data=[28, 127]),
   midi.NoteOnEvent(tick=54, channel=6, data=[28, 0]),
   midi.NoteOnEvent(tick=0, channel=6, data=[28, 127]),
   midi.NoteOnEvent(tick=108, channel=6, data=[28, 0]),
   midi.NoteOnEvent(tick=0, channel=6, data=[28, 127]),
   midi.NoteOnEvent(tick=54, channel=6, data=[28, 0]),
   midi.NoteOnEvent(tick=0, channel=6, data=[28, 127]),
   midi.NoteOnEvent(tick=54, channel=6, data=[28, 0]),
   midi.NoteOnEvent(tick=0, channel=6, data=[28, 127]),
   midi.NoteOnEvent(tick=108, channel=6, data=[28, 0]),
   midi.NoteOnEvent(tick=0, channel=6, data=[34, 127]),
   midi.NoteOnEvent(tick=108, channel=6, data=[34, 0]),
   midi.NoteOnEvent(tick=0, channel=6, data=[34, 127]),
   midi.NoteOnEvent(tick=108, channel=6, data=[34, 0]),
   midi.NoteOnEvent(tick=0, channel=6, data=[33, 127]),
   midi.NoteOnEvent(tick=108, channel=6, data=[33, 0]),
   midi.NoteOnEvent(tick=0, channel=6, data=[28, 127]),
   midi.NoteOnEvent(tick=108, channel=6, data=[28, 0]),
   midi.NoteOnEvent(tick=0, channel=6, data=[28, 127]),
   midi.NoteOnEvent(tick=54, channel=6, data=[28, 0]),
   midi.NoteOnEvent(tick=0, channel=6, data=[28, 127]),
   midi.NoteOnEvent(tick=54, channel=6, data=[28, 0]),
   midi.NoteOnEvent(tick=0, channel=6, data=[28, 127]),
   midi.NoteOnEvent(tick=108, channel=6, data=[28, 0]),
   midi.NoteOnEvent(tick=0, channel=6, data=[28, 127]),
   midi.NoteOnEvent(tick=54, channel=6, data=[28, 0]),
   midi.NoteOnEvent(tick=0, channel=6, data=[28, 127]),
   midi.NoteOnEvent(tick=54, channel=6, data=[28, 0]),
   midi.NoteOnEvent(tick=0, channel=6, data=[28, 127]),
   midi.NoteOnEvent(tick=108, channel=6, data=[28, 0]),
   midi.NoteOnEvent(tick=0, channel=6, data=[40, 127]),
   midi.NoteOnEvent(tick=108, channel=6, data=[40, 0]),
   midi.NoteOnEvent(tick=0, channel=6, data=[40, 127]),
   midi.NoteOnEvent(tick=108, channel=6, data=[40, 0]),
   midi.NoteOnEvent(tick=0, channel=6, data=[39, 127]),
   midi.NoteOnEvent(tick=108, channel=6, data=[39, 0]),
   midi.NoteOnEvent(tick=0, channel=6, data=[40, 127]),
   midi.NoteOnEvent(tick=108, channel=6, data=[40, 0]),
   midi.NoteOnEvent(tick=0, channel=6, data=[28, 127]),
   midi.NoteOnEvent(tick=54, channel=6, data=[28, 0]),
   midi.NoteOnEvent(tick=0, channel=6, data=[28, 127]),
   midi.NoteOnEvent(tick=54, channel=6, data=[28, 0]),
   midi.NoteOnEvent(tick=0, channel=6, data=[28, 127]),
   midi.NoteOnEvent(tick=108, channel=6, data=[28, 0]),
   midi.NoteOnEvent(tick=0, channel=6, data=[28, 127]),
   midi.NoteOnEvent(tick=54, channel=6, data=[28, 0]),
   midi.NoteOnEvent(tick=0, channel=6, data=[28, 127]),
   midi.NoteOnEvent(tick=54, channel=6, data=[28, 0]),
   midi.NoteOnEvent(tick=0, channel=6, data=[28, 127]),
   midi.NoteOnEvent(tick=108, channel=6, data=[28, 0]),
   midi.NoteOnEvent(tick=0, channel=6, data=[34, 127]),
   midi.NoteOnEvent(tick=108, channel=6, data=[34, 0]),
   midi.NoteOnEvent(tick=0, channel=6, data=[34, 127]),
   midi.NoteOnEvent(tick=108, channel=6, data=[34, 0]),
   midi.NoteOnEvent(tick=0, channel=6, data=[33, 127]),
   midi.NoteOnEvent(tick=108, channel=6, data=[33, 0]),
   midi.NoteOnEvent(tick=0, channel=6, data=[28, 127]),
   midi.NoteOnEvent(tick=108, channel=6, data=[28, 0]),
   midi.NoteOnEvent(tick=0, channel=6, data=[30, 127]),
   midi.NoteOnEvent(tick=0, channel=6, data=[37, 127]),
   midi.NoteOnEvent(tick=216, channel=6, data=[37, 0]),
   midi.NoteOnEvent(tick=0, channel=6, data=[30, 0]),
   midi.NoteOnEvent(tick=0, channel=6, data=[31, 127]),
   midi.NoteOnEvent(tick=0, channel=6, data=[38, 127]),
   midi.NoteOnEvent(tick=108, channel=6, data=[38, 0]),
   midi.NoteOnEvent(tick=0, channel=6, data=[31, 0]),
   midi.NoteOnEvent(tick=0, channel=6, data=[28, 127]),
   midi.NoteOnEvent(tick=108, channel=6, data=[28, 0]),
   midi.NoteOnEvent(tick=0, channel=6, data=[38, 127]),
   midi.NoteOnEvent(tick=0, channel=6, data=[31, 127]),
   midi.NoteOnEvent(tick=216, channel=6, data=[31, 0]),
   midi.NoteOnEvent(tick=0, channel=6, data=[38, 0]),
   midi.NoteOnEvent(tick=0, channel=6, data=[32, 127]),
   midi.NoteOnEvent(tick=0, channel=6, data=[39, 127]),
   midi.NoteOnEvent(tick=108, channel=6, data=[39, 0]),
   midi.NoteOnEvent(tick=0, channel=6, data=[32, 0]),
   midi.NoteOnEvent(tick=0, channel=6, data=[28, 127]),
   midi.NoteOnEvent(tick=108, channel=6, data=[28, 0]),
   midi.NoteOnEvent(tick=0, channel=6, data=[28, 127]),
   midi.NoteOnEvent(tick=54, channel=6, data=[28, 0]),
   midi.NoteOnEvent(tick=0, channel=6, data=[28, 127]),
   midi.NoteOnEvent(tick=54, channel=6, data=[28, 0]),
   midi.NoteOnEvent(tick=0, channel=6, data=[28, 127]),
   midi.NoteOnEvent(tick=108, channel=6, data=[28, 0]),
   midi.NoteOnEvent(tick=0, channel=6, data=[28, 127]),
   midi.NoteOnEvent(tick=54, channel=6, data=[28, 0]),
   midi.NoteOnEvent(tick=0, channel=6, data=[28, 127]),
   midi.NoteOnEvent(tick=54, channel=6, data=[28, 0]),
   midi.NoteOnEvent(tick=0, channel=6, data=[28, 127]),
   midi.NoteOnEvent(tick=108, channel=6, data=[28, 0]),
   midi.NoteOnEvent(tick=0, channel=6, data=[34, 127]),
   midi.NoteOnEvent(tick=108, channel=6, data=[34, 0]),
   midi.NoteOnEvent(tick=0, channel=6, data=[34, 127]),
   midi.NoteOnEvent(tick=108, channel=6, data=[34, 0]),
   midi.NoteOnEvent(tick=0, channel=6, data=[33, 127]),
   midi.NoteOnEvent(tick=108, channel=6, data=[33, 0]),
   midi.NoteOnEvent(tick=0, channel=6, data=[28, 127]),
   midi.NoteOnEvent(tick=108, channel=6, data=[28, 0]),
   midi.NoteOnEvent(tick=0, channel=6, data=[28, 127]),
   midi.NoteOnEvent(tick=54, channel=6, data=[28, 0]),
   midi.NoteOnEvent(tick=0, channel=6, data=[28, 127]),
   midi.NoteOnEvent(tick=54, channel=6, data=[28, 0]),
   midi.NoteOnEvent(tick=0, channel=6, data=[28, 127]),
   midi.NoteOnEvent(tick=108, channel=6, data=[28, 0]),
   midi.NoteOnEvent(tick=0, channel=6, data=[28, 127]),
   midi.NoteOnEvent(tick=54, channel=6, data=[28, 0]),
   midi.NoteOnEvent(tick=0, channel=6, data=[28, 127]),
   midi.NoteOnEvent(tick=54, channel=6, data=[28, 0]),
   midi.NoteOnEvent(tick=0, channel=6, data=[28, 127]),
   midi.NoteOnEvent(tick=108, channel=6, data=[28, 0]),
   midi.NoteOnEvent(tick=0, channel=6, data=[40, 127]),
   midi.NoteOnEvent(tick=108, channel=6, data=[40, 0]),
   midi.NoteOnEvent(tick=0, channel=6, data=[40, 127]),
   midi.NoteOnEvent(tick=108, channel=6, data=[40, 0]),
   midi.NoteOnEvent(tick=0, channel=6, data=[39, 127]),
   midi.NoteOnEvent(tick=108, channel=6, data=[39, 0]),
   midi.NoteOnEvent(tick=0, channel=6, data=[40, 127]),
   midi.NoteOnEvent(tick=108, channel=6, data=[40, 0]),
   midi.NoteOnEvent(tick=0, channel=6, data=[28, 127]),
   midi.NoteOnEvent(tick=54, channel=6, data=[28, 0]),
   midi.NoteOnEvent(tick=0, channel=6, data=[28, 127]),
   midi.NoteOnEvent(tick=54, channel=6, data=[28, 0]),
   midi.NoteOnEvent(tick=0, channel=6, data=[28, 127]),
   midi.NoteOnEvent(tick=108, channel=6, data=[28, 0]),
   midi.NoteOnEvent(tick=0, channel=6, data=[28, 127]),
   midi.NoteOnEvent(tick=54, channel=6, data=[28, 0]),
   midi.NoteOnEvent(tick=0, channel=6, data=[28, 127]),
   midi.NoteOnEvent(tick=54, channel=6, data=[28, 0]),
   midi.NoteOnEvent(tick=0, channel=6, data=[28, 127]),
   midi.NoteOnEvent(tick=108, channel=6, data=[28, 0]),
   midi.NoteOnEvent(tick=0, channel=6, data=[34, 127]),
   midi.NoteOnEvent(tick=108, channel=6, data=[34, 0]),
   midi.NoteOnEvent(tick=0, channel=6, data=[34, 127]),
   midi.NoteOnEvent(tick=108, channel=6, data=[34, 0]),
   midi.NoteOnEvent(tick=0, channel=6, data=[33, 127]),
   midi.NoteOnEvent(tick=108, channel=6, data=[33, 0]),
   midi.NoteOnEvent(tick=0, channel=6, data=[28, 127]),
   midi.NoteOnEvent(tick=108, channel=6, data=[28, 0]),
   midi.NoteOnEvent(tick=0, channel=6, data=[30, 127]),
   midi.NoteOnEvent(tick=0, channel=6, data=[37, 127]),
   midi.NoteOnEvent(tick=216, channel=6, data=[37, 0]),
   midi.NoteOnEvent(tick=0, channel=6, data=[30, 0]),
   midi.NoteOnEvent(tick=0, channel=6, data=[31, 127]),
   midi.NoteOnEvent(tick=0, channel=6, data=[38, 127]),
   midi.NoteOnEvent(tick=108, channel=6, data=[38, 0]),
   midi.NoteOnEvent(tick=0, channel=6, data=[31, 0]),
   midi.NoteOnEvent(tick=0, channel=6, data=[28, 127]),
   midi.NoteOnEvent(tick=108, channel=6, data=[28, 0]),
   midi.NoteOnEvent(tick=0, channel=6, data=[38, 127]),
   midi.NoteOnEvent(tick=0, channel=6, data=[31, 127]),
   midi.NoteOnEvent(tick=216, channel=6, data=[31, 0]),
   midi.NoteOnEvent(tick=0, channel=6, data=[38, 0]),
   midi.NoteOnEvent(tick=0, channel=6, data=[32, 127]),
   midi.NoteOnEvent(tick=0, channel=6, data=[39, 127]),
   midi.NoteOnEvent(tick=108, channel=6, data=[39, 0]),
   midi.NoteOnEvent(tick=0, channel=6, data=[32, 0]),
   midi.NoteOnEvent(tick=0, channel=6, data=[28, 127]),
   midi.NoteOnEvent(tick=212, channel=6, data=[28, 0]),
   midi.NoteOnEvent(tick=4, channel=6, data=[28, 127]),
   midi.NoteOnEvent(tick=212, channel=6, data=[28, 0]),
   midi.NoteOnEvent(tick=4, channel=6, data=[28, 127]),
   midi.NoteOnEvent(tick=212, channel=6, data=[28, 0]),
   midi.NoteOnEvent(tick=4, channel=6, data=[28, 127]),
   midi.NoteOnEvent(tick=104, channel=6, data=[28, 0]),
   midi.NoteOnEvent(tick=4, channel=6, data=[28, 127]),
   midi.NoteOnEvent(tick=104, channel=6, data=[28, 0]),
   midi.NoteOnEvent(tick=4, channel=6, data=[31, 127]),
   midi.NoteOnEvent(tick=212, channel=6, data=[31, 0]),
   midi.NoteOnEvent(tick=4, channel=6, data=[31, 127]),
   midi.NoteOnEvent(tick=104, channel=6, data=[31, 0]),
   midi.NoteOnEvent(tick=4, channel=6, data=[31, 127]),
   midi.NoteOnEvent(tick=104, channel=6, data=[31, 0]),
   midi.NoteOnEvent(tick=4, channel=6, data=[31, 127]),
   midi.NoteOnEvent(tick=212, channel=6, data=[31, 0]),
   midi.NoteOnEvent(tick=4, channel=6, data=[31, 127]),
   midi.NoteOnEvent(tick=104, channel=6, data=[31, 0]),
   midi.NoteOnEvent(tick=4, channel=6, data=[31, 127]),
   midi.NoteOnEvent(tick=104, channel=6, data=[31, 0]),
   midi.NoteOnEvent(tick=4, channel=6, data=[33, 127]),
   midi.NoteOnEvent(tick=428, channel=6, data=[33, 0]),
   midi.NoteOnEvent(tick=4, channel=6, data=[36, 127]),
   midi.NoteOnEvent(tick=0, channel=6, data=[29, 127]),
   midi.NoteOnEvent(tick=104, channel=6, data=[29, 0]),
   midi.NoteOnEvent(tick=0, channel=6, data=[36, 0]),
   midi.NoteOnEvent(tick=4, channel=6, data=[36, 127]),
   midi.NoteOnEvent(tick=0, channel=6, data=[29, 127]),
   midi.NoteOnEvent(tick=104, channel=6, data=[29, 0]),
   midi.NoteOnEvent(tick=0, channel=6, data=[36, 0]),
   midi.NoteOnEvent(tick=4, channel=6, data=[30, 127]),
   midi.NoteOnEvent(tick=0, channel=6, data=[35, 127]),
   midi.NoteOnEvent(tick=212, channel=6, data=[35, 0]),
   midi.NoteOnEvent(tick=0, channel=6, data=[30, 0]),
   midi.NoteOnEvent(tick=4, channel=6, data=[28, 127]),
   midi.NoteOnEvent(tick=108, channel=6, data=[28, 0]),
   midi.NoteOnEvent(tick=0, channel=6, data=[28, 127]),
   midi.NoteOnEvent(tick=54, channel=6, data=[28, 0]),
   midi.NoteOnEvent(tick=0, channel=6, data=[28, 127]),
   midi.NoteOnEvent(tick=54, channel=6, data=[28, 0]),
   midi.NoteOnEvent(tick=0, channel=6, data=[28, 127]),
   midi.NoteOnEvent(tick=108, channel=6, data=[28, 0]),
   midi.NoteOnEvent(tick=0, channel=6, data=[28, 127]),
   midi.NoteOnEvent(tick=54, channel=6, data=[28, 0]),
   midi.NoteOnEvent(tick=0, channel=6, data=[28, 127]),
   midi.NoteOnEvent(tick=54, channel=6, data=[28, 0]),
   midi.NoteOnEvent(tick=0, channel=6, data=[28, 127]),
   midi.NoteOnEvent(tick=108, channel=6, data=[28, 0]),
   midi.NoteOnEvent(tick=0, channel=6, data=[34, 127]),
   midi.NoteOnEvent(tick=108, channel=6, data=[34, 0]),
   midi.NoteOnEvent(tick=0, channel=6, data=[34, 127]),
   midi.NoteOnEvent(tick=108, channel=6, data=[34, 0]),
   midi.NoteOnEvent(tick=0, channel=6, data=[33, 127]),
   midi.NoteOnEvent(tick=108, channel=6, data=[33, 0]),
   midi.NoteOnEvent(tick=0, channel=6, data=[28, 127]),
   midi.NoteOnEvent(tick=108, channel=6, data=[28, 0]),
   midi.NoteOnEvent(tick=0, channel=6, data=[28, 127]),
   midi.NoteOnEvent(tick=54, channel=6, data=[28, 0]),
   midi.NoteOnEvent(tick=0, channel=6, data=[28, 127]),
   midi.NoteOnEvent(tick=54, channel=6, data=[28, 0]),
   midi.NoteOnEvent(tick=0, channel=6, data=[28, 127]),
   midi.NoteOnEvent(tick=108, channel=6, data=[28, 0]),
   midi.NoteOnEvent(tick=0, channel=6, data=[28, 127]),
   midi.NoteOnEvent(tick=54, channel=6, data=[28, 0]),
   midi.NoteOnEvent(tick=0, channel=6, data=[28, 127]),
   midi.NoteOnEvent(tick=54, channel=6, data=[28, 0]),
   midi.NoteOnEvent(tick=0, channel=6, data=[28, 127]),
   midi.NoteOnEvent(tick=108, channel=6, data=[28, 0]),
   midi.NoteOnEvent(tick=0, channel=6, data=[40, 127]),
   midi.NoteOnEvent(tick=108, channel=6, data=[40, 0]),
   midi.NoteOnEvent(tick=0, channel=6, data=[40, 127]),
   midi.NoteOnEvent(tick=108, channel=6, data=[40, 0]),
   midi.NoteOnEvent(tick=0, channel=6, data=[39, 127]),
   midi.NoteOnEvent(tick=108, channel=6, data=[39, 0]),
   midi.NoteOnEvent(tick=0, channel=6, data=[40, 127]),
   midi.NoteOnEvent(tick=108, channel=6, data=[40, 0]),
   midi.NoteOnEvent(tick=0, channel=6, data=[28, 127]),
   midi.NoteOnEvent(tick=54, channel=6, data=[28, 0]),
   midi.NoteOnEvent(tick=0, channel=6, data=[28, 127]),
   midi.NoteOnEvent(tick=54, channel=6, data=[28, 0]),
   midi.NoteOnEvent(tick=0, channel=6, data=[28, 127]),
   midi.NoteOnEvent(tick=108, channel=6, data=[28, 0]),
   midi.NoteOnEvent(tick=0, channel=6, data=[28, 127]),
   midi.NoteOnEvent(tick=54, channel=6, data=[28, 0]),
   midi.NoteOnEvent(tick=0, channel=6, data=[28, 127]),
   midi.NoteOnEvent(tick=54, channel=6, data=[28, 0]),
   midi.NoteOnEvent(tick=0, channel=6, data=[28, 127]),
   midi.NoteOnEvent(tick=108, channel=6, data=[28, 0]),
   midi.NoteOnEvent(tick=0, channel=6, data=[34, 127]),
   midi.NoteOnEvent(tick=108, channel=6, data=[34, 0]),
   midi.NoteOnEvent(tick=0, channel=6, data=[34, 127]),
   midi.NoteOnEvent(tick=108, channel=6, data=[34, 0]),
   midi.NoteOnEvent(tick=0, channel=6, data=[33, 127]),
   midi.NoteOnEvent(tick=108, channel=6, data=[33, 0]),
   midi.NoteOnEvent(tick=0, channel=6, data=[28, 127]),
   midi.NoteOnEvent(tick=108, channel=6, data=[28, 0]),
   midi.NoteOnEvent(tick=0, channel=6, data=[30, 127]),
   midi.NoteOnEvent(tick=0, channel=6, data=[37, 127]),
   midi.NoteOnEvent(tick=216, channel=6, data=[37, 0]),
   midi.NoteOnEvent(tick=0, channel=6, data=[30, 0]),
   midi.NoteOnEvent(tick=0, channel=6, data=[31, 127]),
   midi.NoteOnEvent(tick=0, channel=6, data=[38, 127]),
   midi.NoteOnEvent(tick=108, channel=6, data=[38, 0]),
   midi.NoteOnEvent(tick=0, channel=6, data=[31, 0]),
   midi.NoteOnEvent(tick=0, channel=6, data=[28, 127]),
   midi.NoteOnEvent(tick=108, channel=6, data=[28, 0]),
   midi.NoteOnEvent(tick=0, channel=6, data=[38, 127]),
   midi.NoteOnEvent(tick=0, channel=6, data=[31, 127]),
   midi.NoteOnEvent(tick=216, channel=6, data=[31, 0]),
   midi.NoteOnEvent(tick=0, channel=6, data=[38, 0]),
   midi.NoteOnEvent(tick=0, channel=6, data=[32, 127]),
   midi.NoteOnEvent(tick=0, channel=6, data=[39, 127]),
   midi.NoteOnEvent(tick=108, channel=6, data=[39, 0]),
   midi.NoteOnEvent(tick=0, channel=6, data=[32, 0]),
   midi.NoteOnEvent(tick=0, channel=6, data=[28, 127]),
   midi.NoteOnEvent(tick=428, channel=6, data=[28, 0]),
   midi.NoteOnEvent(tick=4, channel=6, data=[28, 127]),
   midi.NoteOnEvent(tick=212, channel=6, data=[28, 0]),
   midi.NoteOnEvent(tick=4, channel=6, data=[28, 127]),
   midi.NoteOnEvent(tick=104, channel=6, data=[28, 0]),
   midi.NoteOnEvent(tick=4, channel=6, data=[28, 127]),
   midi.NoteOnEvent(tick=104, channel=6, data=[28, 0]),
   midi.NoteOnEvent(tick=4, channel=6, data=[31, 127]),
   midi.NoteOnEvent(tick=428, channel=6, data=[31, 0]),
   midi.NoteOnEvent(tick=4, channel=6, data=[31, 127]),
   midi.NoteOnEvent(tick=104, channel=6, data=[31, 0]),
   midi.NoteOnEvent(tick=4, channel=6, data=[31, 127]),
   midi.NoteOnEvent(tick=104, channel=6, data=[31, 0]),
   midi.NoteOnEvent(tick=4, channel=6, data=[31, 127]),
   midi.NoteOnEvent(tick=104, channel=6, data=[31, 0]),
   midi.NoteOnEvent(tick=4, channel=6, data=[31, 127]),
   midi.NoteOnEvent(tick=104, channel=6, data=[31, 0]),
   midi.NoteOnEvent(tick=4, channel=6, data=[33, 127]),
   midi.NoteOnEvent(tick=428, channel=6, data=[33, 0]),
   midi.NoteOnEvent(tick=4, channel=6, data=[36, 127]),
   midi.NoteOnEvent(tick=0, channel=6, data=[29, 127]),
   midi.NoteOnEvent(tick=104, channel=6, data=[29, 0]),
   midi.NoteOnEvent(tick=0, channel=6, data=[36, 0]),
   midi.NoteOnEvent(tick=4, channel=6, data=[36, 127]),
   midi.NoteOnEvent(tick=0, channel=6, data=[29, 127]),
   midi.NoteOnEvent(tick=104, channel=6, data=[29, 0]),
   midi.NoteOnEvent(tick=0, channel=6, data=[36, 0]),
   midi.NoteOnEvent(tick=4, channel=6, data=[30, 127]),
   midi.NoteOnEvent(tick=0, channel=6, data=[35, 127]),
   midi.NoteOnEvent(tick=212, channel=6, data=[35, 0]),
   midi.NoteOnEvent(tick=0, channel=6, data=[30, 0]),
   midi.NoteOnEvent(tick=4, channel=6, data=[28, 127]),
   midi.NoteOnEvent(tick=108, channel=6, data=[28, 0]),
   midi.NoteOnEvent(tick=0, channel=6, data=[28, 127]),
   midi.NoteOnEvent(tick=54, channel=6, data=[28, 0]),
   midi.NoteOnEvent(tick=0, channel=6, data=[28, 127]),
   midi.NoteOnEvent(tick=54, channel=6, data=[28, 0]),
   midi.NoteOnEvent(tick=0, channel=6, data=[28, 127]),
   midi.NoteOnEvent(tick=108, channel=6, data=[28, 0]),
   midi.NoteOnEvent(tick=0, channel=6, data=[28, 127]),
   midi.NoteOnEvent(tick=54, channel=6, data=[28, 0]),
   midi.NoteOnEvent(tick=0, channel=6, data=[28, 127]),
   midi.NoteOnEvent(tick=54, channel=6, data=[28, 0]),
   midi.NoteOnEvent(tick=0, channel=6, data=[28, 127]),
   midi.NoteOnEvent(tick=108, channel=6, data=[28, 0]),
   midi.NoteOnEvent(tick=0, channel=6, data=[34, 127]),
   midi.NoteOnEvent(tick=108, channel=6, data=[34, 0]),
   midi.NoteOnEvent(tick=0, channel=6, data=[34, 127]),
   midi.NoteOnEvent(tick=108, channel=6, data=[34, 0]),
   midi.NoteOnEvent(tick=0, channel=6, data=[33, 127]),
   midi.NoteOnEvent(tick=108, channel=6, data=[33, 0]),
   midi.NoteOnEvent(tick=0, channel=6, data=[28, 127]),
   midi.NoteOnEvent(tick=108, channel=6, data=[28, 0]),
   midi.NoteOnEvent(tick=0, channel=6, data=[28, 127]),
   midi.NoteOnEvent(tick=54, channel=6, data=[28, 0]),
   midi.NoteOnEvent(tick=0, channel=6, data=[28, 127]),
   midi.NoteOnEvent(tick=54, channel=6, data=[28, 0]),
   midi.NoteOnEvent(tick=0, channel=6, data=[28, 127]),
   midi.NoteOnEvent(tick=108, channel=6, data=[28, 0]),
   midi.NoteOnEvent(tick=0, channel=6, data=[28, 127]),
   midi.NoteOnEvent(tick=54, channel=6, data=[28, 0]),
   midi.NoteOnEvent(tick=0, channel=6, data=[28, 127]),
   midi.NoteOnEvent(tick=54, channel=6, data=[28, 0]),
   midi.NoteOnEvent(tick=0, channel=6, data=[28, 127]),
   midi.NoteOnEvent(tick=108, channel=6, data=[28, 0]),
   midi.NoteOnEvent(tick=0, channel=6, data=[40, 127]),
   midi.NoteOnEvent(tick=108, channel=6, data=[40, 0]),
   midi.NoteOnEvent(tick=0, channel=6, data=[40, 127]),
   midi.NoteOnEvent(tick=108, channel=6, data=[40, 0]),
   midi.NoteOnEvent(tick=0, channel=6, data=[39, 127]),
   midi.NoteOnEvent(tick=108, channel=6, data=[39, 0]),
   midi.NoteOnEvent(tick=0, channel=6, data=[28, 127]),
   midi.NoteOnEvent(tick=428, channel=6, data=[28, 0]),
   midi.NoteOnEvent(tick=4, channel=6, data=[35, 127]),
   midi.NoteOnEvent(tick=428, channel=6, data=[35, 0]),
   midi.NoteOnEvent(tick=4, channel=6, data=[31, 127]),
   midi.NoteOnEvent(tick=428, channel=6, data=[31, 0]),
   midi.NoteOnEvent(tick=4, channel=6, data=[28, 127]),
   midi.NoteOnEvent(tick=212, channel=6, data=[28, 0]),
   midi.NoteOnEvent(tick=4, channel=6, data=[39, 127]),
   midi.NoteOnEvent(tick=0, channel=6, data=[35, 127]),
   midi.NoteOnEvent(tick=212, channel=6, data=[35, 0]),
   midi.NoteOnEvent(tick=0, channel=6, data=[39, 0]),
   midi.NoteOnEvent(tick=4, channel=6, data=[28, 127]),
   midi.NoteOnEvent(tick=108, channel=6, data=[28, 0]),
   midi.NoteOnEvent(tick=0, channel=6, data=[28, 127]),
   midi.NoteOnEvent(tick=54, channel=6, data=[28, 0]),
   midi.NoteOnEvent(tick=0, channel=6, data=[28, 127]),
   midi.NoteOnEvent(tick=54, channel=6, data=[28, 0]),
   midi.NoteOnEvent(tick=0, channel=6, data=[28, 127]),
   midi.NoteOnEvent(tick=108, channel=6, data=[28, 0]),
   midi.NoteOnEvent(tick=0, channel=6, data=[28, 127]),
   midi.NoteOnEvent(tick=54, channel=6, data=[28, 0]),
   midi.NoteOnEvent(tick=0, channel=6, data=[28, 127]),
   midi.NoteOnEvent(tick=54, channel=6, data=[28, 0]),
   midi.NoteOnEvent(tick=0, channel=6, data=[28, 127]),
   midi.NoteOnEvent(tick=108, channel=6, data=[28, 0]),
   midi.NoteOnEvent(tick=0, channel=6, data=[34, 127]),
   midi.NoteOnEvent(tick=108, channel=6, data=[34, 0]),
   midi.NoteOnEvent(tick=0, channel=6, data=[34, 127]),
   midi.NoteOnEvent(tick=108, channel=6, data=[34, 0]),
   midi.NoteOnEvent(tick=0, channel=6, data=[33, 127]),
   midi.NoteOnEvent(tick=108, channel=6, data=[33, 0]),
   midi.NoteOnEvent(tick=0, channel=6, data=[28, 127]),
   midi.NoteOnEvent(tick=108, channel=6, data=[28, 0]),
   midi.NoteOnEvent(tick=0, channel=6, data=[28, 127]),
   midi.NoteOnEvent(tick=54, channel=6, data=[28, 0]),
   midi.NoteOnEvent(tick=0, channel=6, data=[28, 127]),
   midi.NoteOnEvent(tick=54, channel=6, data=[28, 0]),
   midi.NoteOnEvent(tick=0, channel=6, data=[28, 127]),
   midi.NoteOnEvent(tick=108, channel=6, data=[28, 0]),
   midi.NoteOnEvent(tick=0, channel=6, data=[28, 127]),
   midi.NoteOnEvent(tick=54, channel=6, data=[28, 0]),
   midi.NoteOnEvent(tick=0, channel=6, data=[28, 127]),
   midi.NoteOnEvent(tick=54, channel=6, data=[28, 0]),
   midi.NoteOnEvent(tick=0, channel=6, data=[28, 127]),
   midi.NoteOnEvent(tick=108, channel=6, data=[28, 0]),
   midi.NoteOnEvent(tick=0, channel=6, data=[40, 127]),
   midi.NoteOnEvent(tick=108, channel=6, data=[40, 0]),
   midi.NoteOnEvent(tick=0, channel=6, data=[40, 127]),
   midi.NoteOnEvent(tick=108, channel=6, data=[40, 0]),
   midi.NoteOnEvent(tick=0, channel=6, data=[39, 127]),
   midi.NoteOnEvent(tick=108, channel=6, data=[39, 0]),
   midi.NoteOnEvent(tick=0, channel=6, data=[40, 127]),
   midi.NoteOnEvent(tick=108, channel=6, data=[40, 0]),
   midi.NoteOnEvent(tick=0, channel=6, data=[28, 127]),
   midi.NoteOnEvent(tick=54, channel=6, data=[28, 0]),
   midi.NoteOnEvent(tick=0, channel=6, data=[28, 127]),
   midi.NoteOnEvent(tick=54, channel=6, data=[28, 0]),
   midi.NoteOnEvent(tick=0, channel=6, data=[28, 127]),
   midi.NoteOnEvent(tick=108, channel=6, data=[28, 0]),
   midi.NoteOnEvent(tick=0, channel=6, data=[28, 127]),
   midi.NoteOnEvent(tick=54, channel=6, data=[28, 0]),
   midi.NoteOnEvent(tick=0, channel=6, data=[28, 127]),
   midi.NoteOnEvent(tick=54, channel=6, data=[28, 0]),
   midi.NoteOnEvent(tick=0, channel=6, data=[28, 127]),
   midi.NoteOnEvent(tick=108, channel=6, data=[28, 0]),
   midi.NoteOnEvent(tick=0, channel=6, data=[34, 127]),
   midi.NoteOnEvent(tick=108, channel=6, data=[34, 0]),
   midi.NoteOnEvent(tick=0, channel=6, data=[34, 127]),
   midi.NoteOnEvent(tick=108, channel=6, data=[34, 0]),
   midi.NoteOnEvent(tick=0, channel=6, data=[33, 127]),
   midi.NoteOnEvent(tick=108, channel=6, data=[33, 0]),
   midi.NoteOnEvent(tick=0, channel=6, data=[34, 127]),
   midi.NoteOnEvent(tick=104, channel=6, data=[34, 0]),
   midi.NoteOnEvent(tick=4, channel=6, data=[29, 127]),
   midi.NoteOnEvent(tick=104, channel=6, data=[29, 0]),
   midi.NoteOnEvent(tick=4, channel=6, data=[28, 127]),
   midi.NoteOnEvent(tick=108, channel=6, data=[28, 0]),
   midi.NoteOnEvent(tick=0, channel=6, data=[28, 127]),
   midi.NoteOnEvent(tick=54, channel=6, data=[28, 0]),
   midi.NoteOnEvent(tick=0, channel=6, data=[28, 127]),
   midi.NoteOnEvent(tick=54, channel=6, data=[28, 0]),
   midi.NoteOnEvent(tick=0, channel=6, data=[28, 127]),
   midi.NoteOnEvent(tick=108, channel=6, data=[28, 0]),
   midi.NoteOnEvent(tick=0, channel=6, data=[28, 127]),
   midi.NoteOnEvent(tick=54, channel=6, data=[28, 0]),
   midi.NoteOnEvent(tick=0, channel=6, data=[28, 127]),
   midi.NoteOnEvent(tick=54, channel=6, data=[28, 0]),
   midi.NoteOnEvent(tick=0, channel=6, data=[28, 127]),
   midi.NoteOnEvent(tick=108, channel=6, data=[28, 0]),
   midi.NoteOnEvent(tick=0, channel=6, data=[34, 127]),
   midi.NoteOnEvent(tick=108, channel=6, data=[34, 0]),
   midi.NoteOnEvent(tick=0, channel=6, data=[34, 127]),
   midi.NoteOnEvent(tick=108, channel=6, data=[34, 0]),
   midi.NoteOnEvent(tick=0, channel=6, data=[33, 127]),
   midi.NoteOnEvent(tick=108, channel=6, data=[33, 0]),
   midi.NoteOnEvent(tick=0, channel=6, data=[28, 127]),
   midi.NoteOnEvent(tick=108, channel=6, data=[28, 0]),
   midi.NoteOnEvent(tick=0, channel=6, data=[28, 127]),
   midi.NoteOnEvent(tick=54, channel=6, data=[28, 0]),
   midi.NoteOnEvent(tick=0, channel=6, data=[28, 127]),
   midi.NoteOnEvent(tick=54, channel=6, data=[28, 0]),
   midi.NoteOnEvent(tick=0, channel=6, data=[28, 127]),
   midi.NoteOnEvent(tick=108, channel=6, data=[28, 0]),
   midi.NoteOnEvent(tick=0, channel=6, data=[28, 127]),
   midi.NoteOnEvent(tick=54, channel=6, data=[28, 0]),
   midi.NoteOnEvent(tick=0, channel=6, data=[28, 127]),
   midi.NoteOnEvent(tick=54, channel=6, data=[28, 0]),
   midi.NoteOnEvent(tick=0, channel=6, data=[28, 127]),
   midi.NoteOnEvent(tick=108, channel=6, data=[28, 0]),
   midi.NoteOnEvent(tick=0, channel=6, data=[40, 127]),
   midi.NoteOnEvent(tick=108, channel=6, data=[40, 0]),
   midi.NoteOnEvent(tick=0, channel=6, data=[40, 127]),
   midi.NoteOnEvent(tick=108, channel=6, data=[40, 0]),
   midi.NoteOnEvent(tick=0, channel=6, data=[39, 127]),
   midi.NoteOnEvent(tick=108, channel=6, data=[39, 0]),
   midi.NoteOnEvent(tick=0, channel=6, data=[40, 127]),
   midi.NoteOnEvent(tick=108, channel=6, data=[40, 0]),
   midi.NoteOnEvent(tick=0, channel=6, data=[28, 127]),
   midi.NoteOnEvent(tick=54, channel=6, data=[28, 0]),
   midi.NoteOnEvent(tick=0, channel=6, data=[28, 127]),
   midi.NoteOnEvent(tick=54, channel=6, data=[28, 0]),
   midi.NoteOnEvent(tick=0, channel=6, data=[28, 127]),
   midi.NoteOnEvent(tick=108, channel=6, data=[28, 0]),
   midi.NoteOnEvent(tick=0, channel=6, data=[28, 127]),
   midi.NoteOnEvent(tick=54, channel=6, data=[28, 0]),
   midi.NoteOnEvent(tick=0, channel=6, data=[28, 127]),
   midi.NoteOnEvent(tick=54, channel=6, data=[28, 0]),
   midi.NoteOnEvent(tick=0, channel=6, data=[28, 127]),
   midi.NoteOnEvent(tick=108, channel=6, data=[28, 0]),
   midi.NoteOnEvent(tick=0, channel=6, data=[34, 127]),
   midi.NoteOnEvent(tick=108, channel=6, data=[34, 0]),
   midi.NoteOnEvent(tick=0, channel=6, data=[34, 127]),
   midi.NoteOnEvent(tick=108, channel=6, data=[34, 0]),
   midi.NoteOnEvent(tick=0, channel=6, data=[33, 127]),
   midi.NoteOnEvent(tick=108, channel=6, data=[33, 0]),
   midi.NoteOnEvent(tick=0, channel=6, data=[34, 127]),
   midi.NoteOnEvent(tick=212, channel=6, data=[34, 0]),
   midi.NoteOnEvent(tick=4, channel=6, data=[29, 127]),
   midi.NoteOnEvent(tick=212, channel=6, data=[29, 0]),
   midi.NoteOnEvent(tick=4, channel=6, data=[28, 127]),
   midi.NoteOnEvent(tick=212, channel=6, data=[28, 0]),
   midi.NoteOnEvent(tick=220, channel=6, data=[28, 127]),
   midi.NoteOnEvent(tick=1724, channel=6, data=[28, 0]),
   midi.NoteOnEvent(tick=4, channel=6, data=[28, 127]),
   midi.NoteOnEvent(tick=428, channel=6, data=[28, 0]),
   midi.NoteOnEvent(tick=4, channel=6, data=[28, 127]),
   midi.NoteOnEvent(tick=104, channel=6, data=[28, 0]),
   midi.NoteOnEvent(tick=4, channel=6, data=[28, 127]),
   midi.NoteOnEvent(tick=104, channel=6, data=[28, 0]),
   midi.NoteOnEvent(tick=4, channel=6, data=[28, 127]),
   midi.NoteOnEvent(tick=104, channel=6, data=[28, 0]),
   midi.NoteOnEvent(tick=4, channel=6, data=[28, 127]),
   midi.NoteOnEvent(tick=104, channel=6, data=[28, 0]),
   midi.NoteOnEvent(tick=4, channel=6, data=[28, 127]),
   midi.NoteOnEvent(tick=212, channel=6, data=[28, 0]),
   midi.NoteOnEvent(tick=4, channel=6, data=[28, 127]),
   midi.NoteOnEvent(tick=212, channel=6, data=[28, 0]),
   midi.NoteOnEvent(tick=4, channel=6, data=[28, 127]),
   midi.NoteOnEvent(tick=104, channel=6, data=[28, 0]),
   midi.NoteOnEvent(tick=4, channel=6, data=[28, 127]),
   midi.NoteOnEvent(tick=104, channel=6, data=[28, 0]),
   midi.NoteOnEvent(tick=4, channel=6, data=[28, 127]),
   midi.NoteOnEvent(tick=104, channel=6, data=[28, 0]),
   midi.NoteOnEvent(tick=4, channel=6, data=[28, 127]),
   midi.NoteOnEvent(tick=104, channel=6, data=[28, 0]),
   midi.NoteOnEvent(tick=4, channel=6, data=[31, 127]),
   midi.NoteOnEvent(tick=212, channel=6, data=[31, 0]),
   midi.NoteOnEvent(tick=4, channel=6, data=[31, 127]),
   midi.NoteOnEvent(tick=212, channel=6, data=[31, 0]),
   midi.NoteOnEvent(tick=4, channel=6, data=[31, 127]),
   midi.NoteOnEvent(tick=104, channel=6, data=[31, 0]),
   midi.NoteOnEvent(tick=4, channel=6, data=[31, 127]),
   midi.NoteOnEvent(tick=104, channel=6, data=[31, 0]),
   midi.NoteOnEvent(tick=4, channel=6, data=[31, 127]),
   midi.NoteOnEvent(tick=104, channel=6, data=[31, 0]),
   midi.NoteOnEvent(tick=4, channel=6, data=[31, 127]),
   midi.NoteOnEvent(tick=104, channel=6, data=[31, 0]),
   midi.NoteOnEvent(tick=4, channel=6, data=[31, 127]),
   midi.NoteOnEvent(tick=212, channel=6, data=[31, 0]),
   midi.NoteOnEvent(tick=4, channel=6, data=[31, 127]),
   midi.NoteOnEvent(tick=104, channel=6, data=[31, 0]),
   midi.NoteOnEvent(tick=4, channel=6, data=[31, 127]),
   midi.NoteOnEvent(tick=104, channel=6, data=[31, 0]),
   midi.NoteOnEvent(tick=4, channel=6, data=[31, 127]),
   midi.NoteOnEvent(tick=108, channel=6, data=[31, 0]),
   midi.NoteOnEvent(tick=0, channel=6, data=[31, 127]),
   midi.NoteOnEvent(tick=104, channel=6, data=[31, 0]),
   midi.NoteOnEvent(tick=4, channel=6, data=[31, 127]),
   midi.NoteOnEvent(tick=212, channel=6, data=[31, 0]),
   midi.NoteOnEvent(tick=4, channel=6, data=[28, 127]),
   midi.NoteOnEvent(tick=428, channel=6, data=[28, 0]),
   midi.NoteOnEvent(tick=4, channel=6, data=[28, 127]),
   midi.NoteOnEvent(tick=104, channel=6, data=[28, 0]),
   midi.NoteOnEvent(tick=4, channel=6, data=[28, 127]),
   midi.NoteOnEvent(tick=104, channel=6, data=[28, 0]),
   midi.NoteOnEvent(tick=4, channel=6, data=[28, 127]),
   midi.NoteOnEvent(tick=104, channel=6, data=[28, 0]),
   midi.NoteOnEvent(tick=4, channel=6, data=[28, 127]),
   midi.NoteOnEvent(tick=104, channel=6, data=[28, 0]),
   midi.NoteOnEvent(tick=4, channel=6, data=[28, 127]),
   midi.NoteOnEvent(tick=212, channel=6, data=[28, 0]),
   midi.NoteOnEvent(tick=4, channel=6, data=[28, 127]),
   midi.NoteOnEvent(tick=212, channel=6, data=[28, 0]),
   midi.NoteOnEvent(tick=4, channel=6, data=[28, 127]),
   midi.NoteOnEvent(tick=104, channel=6, data=[28, 0]),
   midi.NoteOnEvent(tick=4, channel=6, data=[28, 127]),
   midi.NoteOnEvent(tick=104, channel=6, data=[28, 0]),
   midi.NoteOnEvent(tick=4, channel=6, data=[28, 127]),
   midi.NoteOnEvent(tick=104, channel=6, data=[28, 0]),
   midi.NoteOnEvent(tick=4, channel=6, data=[28, 127]),
   midi.NoteOnEvent(tick=104, channel=6, data=[28, 0]),
   midi.NoteOnEvent(tick=4, channel=6, data=[31, 127]),
   midi.NoteOnEvent(tick=212, channel=6, data=[31, 0]),
   midi.NoteOnEvent(tick=4, channel=6, data=[31, 127]),
   midi.NoteOnEvent(tick=212, channel=6, data=[31, 0]),
   midi.NoteOnEvent(tick=4, channel=6, data=[31, 127]),
   midi.NoteOnEvent(tick=104, channel=6, data=[31, 0]),
   midi.NoteOnEvent(tick=4, channel=6, data=[31, 127]),
   midi.NoteOnEvent(tick=104, channel=6, data=[31, 0]),
   midi.NoteOnEvent(tick=4, channel=6, data=[31, 127]),
   midi.NoteOnEvent(tick=104, channel=6, data=[31, 0]),
   midi.NoteOnEvent(tick=4, channel=6, data=[31, 127]),
   midi.NoteOnEvent(tick=104, channel=6, data=[31, 0]),
   midi.NoteOnEvent(tick=4, channel=6, data=[31, 127]),
   midi.NoteOnEvent(tick=212, channel=6, data=[31, 0]),
   midi.NoteOnEvent(tick=4, channel=6, data=[31, 127]),
   midi.NoteOnEvent(tick=212, channel=6, data=[31, 0]),
   midi.NoteOnEvent(tick=4, channel=6, data=[35, 127]),
   midi.NoteOnEvent(tick=108, channel=6, data=[35, 0]),
   midi.NoteOnEvent(tick=0, channel=6, data=[35, 127]),
   midi.NoteOnEvent(tick=108, channel=6, data=[35, 0]),
   midi.NoteOnEvent(tick=216, channel=6, data=[28, 127]),
   midi.NoteOnEvent(tick=324, channel=6, data=[28, 0]),
   midi.NoteOnEvent(tick=0, channel=6, data=[28, 127]),
   midi.NoteOnEvent(tick=108, channel=6, data=[28, 0]),
   midi.NoteOnEvent(tick=0, channel=6, data=[28, 127]),
   midi.NoteOnEvent(tick=216, channel=6, data=[28, 0]),
   midi.NoteOnEvent(tick=0, channel=6, data=[28, 127]),
   midi.NoteOnEvent(tick=108, channel=6, data=[28, 0]),
   midi.NoteOnEvent(tick=0, channel=6, data=[28, 127]),
   midi.NoteOnEvent(tick=108, channel=6, data=[28, 0]),
   midi.NoteOnEvent(tick=0, channel=6, data=[28, 127]),
   midi.NoteOnEvent(tick=108, channel=6, data=[28, 0]),
   midi.NoteOnEvent(tick=0, channel=6, data=[28, 127]),
   midi.NoteOnEvent(tick=212, channel=6, data=[28, 0]),
   midi.NoteOnEvent(tick=4, channel=6, data=[28, 127]),
   midi.NoteOnEvent(tick=108, channel=6, data=[28, 0]),
   midi.NoteOnEvent(tick=0, channel=6, data=[36, 127]),
   midi.NoteOnEvent(tick=216, channel=6, data=[36, 0]),
   midi.NoteOnEvent(tick=0, channel=6, data=[38, 127]),
   midi.NoteOnEvent(tick=216, channel=6, data=[38, 0]),
   midi.NoteOnEvent(tick=0, channel=6, data=[31, 127]),
   midi.NoteOnEvent(tick=324, channel=6, data=[31, 0]),
   midi.NoteOnEvent(tick=0, channel=6, data=[31, 127]),
   midi.NoteOnEvent(tick=108, channel=6, data=[31, 0]),
   midi.NoteOnEvent(tick=0, channel=6, data=[31, 127]),
   midi.NoteOnEvent(tick=216, channel=6, data=[31, 0]),
   midi.NoteOnEvent(tick=0, channel=6, data=[31, 127]),
   midi.NoteOnEvent(tick=108, channel=6, data=[31, 0]),
   midi.NoteOnEvent(tick=0, channel=6, data=[31, 127]),
   midi.NoteOnEvent(tick=108, channel=6, data=[31, 0]),
   midi.NoteOnEvent(tick=0, channel=6, data=[31, 127]),
   midi.NoteOnEvent(tick=108, channel=6, data=[31, 0]),
   midi.NoteOnEvent(tick=0, channel=6, data=[31, 127]),
   midi.NoteOnEvent(tick=212, channel=6, data=[31, 0]),
   midi.NoteOnEvent(tick=4, channel=6, data=[33, 127]),
   midi.NoteOnEvent(tick=108, channel=6, data=[33, 0]),
   midi.NoteOnEvent(tick=0, channel=6, data=[33, 127]),
   midi.NoteOnEvent(tick=212, channel=6, data=[33, 0]),
   midi.NoteOnEvent(tick=4, channel=6, data=[35, 127]),
   midi.NoteOnEvent(tick=108, channel=6, data=[35, 0]),
   midi.NoteOnEvent(tick=0, channel=6, data=[35, 127]),
   midi.NoteOnEvent(tick=108, channel=6, data=[35, 0]),
   midi.NoteOnEvent(tick=0, channel=6, data=[28, 127]),
   midi.NoteOnEvent(tick=324, channel=6, data=[28, 0]),
   midi.NoteOnEvent(tick=0, channel=6, data=[28, 127]),
   midi.NoteOnEvent(tick=108, channel=6, data=[28, 0]),
   midi.NoteOnEvent(tick=0, channel=6, data=[28, 127]),
   midi.NoteOnEvent(tick=216, channel=6, data=[28, 0]),
   midi.NoteOnEvent(tick=0, channel=6, data=[28, 127]),
   midi.NoteOnEvent(tick=108, channel=6, data=[28, 0]),
   midi.NoteOnEvent(tick=0, channel=6, data=[28, 127]),
   midi.NoteOnEvent(tick=108, channel=6, data=[28, 0]),
   midi.NoteOnEvent(tick=0, channel=6, data=[28, 127]),
   midi.NoteOnEvent(tick=108, channel=6, data=[28, 0]),
   midi.NoteOnEvent(tick=0, channel=6, data=[28, 127]),
   midi.NoteOnEvent(tick=212, channel=6, data=[28, 0]),
   midi.NoteOnEvent(tick=4, channel=6, data=[28, 127]),
   midi.NoteOnEvent(tick=108, channel=6, data=[28, 0]),
   midi.NoteOnEvent(tick=0, channel=6, data=[36, 127]),
   midi.NoteOnEvent(tick=216, channel=6, data=[36, 0]),
   midi.NoteOnEvent(tick=0, channel=6, data=[38, 127]),
   midi.NoteOnEvent(tick=216, channel=6, data=[38, 0]),
   midi.NoteOnEvent(tick=0, channel=6, data=[31, 127]),
   midi.NoteOnEvent(tick=324, channel=6, data=[31, 0]),
   midi.NoteOnEvent(tick=0, channel=6, data=[31, 127]),
   midi.NoteOnEvent(tick=108, channel=6, data=[31, 0]),
   midi.NoteOnEvent(tick=0, channel=6, data=[31, 127]),
   midi.NoteOnEvent(tick=216, channel=6, data=[31, 0]),
   midi.NoteOnEvent(tick=0, channel=6, data=[31, 127]),
   midi.NoteOnEvent(tick=108, channel=6, data=[31, 0]),
   midi.NoteOnEvent(tick=0, channel=6, data=[31, 127]),
   midi.NoteOnEvent(tick=108, channel=6, data=[31, 0]),
   midi.NoteOnEvent(tick=0, channel=6, data=[31, 127]),
   midi.NoteOnEvent(tick=108, channel=6, data=[31, 0]),
   midi.NoteOnEvent(tick=0, channel=6, data=[31, 127]),
   midi.NoteOnEvent(tick=212, channel=6, data=[31, 0]),
   midi.NoteOnEvent(tick=4, channel=6, data=[33, 127]),
   midi.NoteOnEvent(tick=108, channel=6, data=[33, 0]),
   midi.NoteOnEvent(tick=0, channel=6, data=[33, 127]),
   midi.NoteOnEvent(tick=212, channel=6, data=[33, 0]),
   midi.NoteOnEvent(tick=4, channel=6, data=[35, 127]),
   midi.NoteOnEvent(tick=108, channel=6, data=[35, 0]),
   midi.NoteOnEvent(tick=0, channel=6, data=[35, 127]),
   midi.NoteOnEvent(tick=108, channel=6, data=[35, 0]),
   midi.NoteOnEvent(tick=0, channel=6, data=[28, 127]),
   midi.NoteOnEvent(tick=324, channel=6, data=[28, 0]),
   midi.NoteOnEvent(tick=0, channel=6, data=[28, 127]),
   midi.NoteOnEvent(tick=108, channel=6, data=[28, 0]),
   midi.NoteOnEvent(tick=0, channel=6, data=[28, 127]),
   midi.NoteOnEvent(tick=216, channel=6, data=[28, 0]),
   midi.NoteOnEvent(tick=0, channel=6, data=[28, 127]),
   midi.NoteOnEvent(tick=108, channel=6, data=[28, 0]),
   midi.NoteOnEvent(tick=0, channel=6, data=[28, 127]),
   midi.NoteOnEvent(tick=108, channel=6, data=[28, 0]),
   midi.NoteOnEvent(tick=0, channel=6, data=[28, 127]),
   midi.NoteOnEvent(tick=108, channel=6, data=[28, 0]),
   midi.NoteOnEvent(tick=0, channel=6, data=[28, 127]),
   midi.NoteOnEvent(tick=212, channel=6, data=[28, 0]),
   midi.NoteOnEvent(tick=4, channel=6, data=[28, 127]),
   midi.NoteOnEvent(tick=108, channel=6, data=[28, 0]),
   midi.NoteOnEvent(tick=0, channel=6, data=[36, 127]),
   midi.NoteOnEvent(tick=216, channel=6, data=[36, 0]),
   midi.NoteOnEvent(tick=0, channel=6, data=[38, 127]),
   midi.NoteOnEvent(tick=216, channel=6, data=[38, 0]),
   midi.NoteOnEvent(tick=0, channel=6, data=[31, 127]),
   midi.NoteOnEvent(tick=324, channel=6, data=[31, 0]),
   midi.NoteOnEvent(tick=0, channel=6, data=[31, 127]),
   midi.NoteOnEvent(tick=108, channel=6, data=[31, 0]),
   midi.NoteOnEvent(tick=0, channel=6, data=[31, 127]),
   midi.NoteOnEvent(tick=216, channel=6, data=[31, 0]),
   midi.NoteOnEvent(tick=0, channel=6, data=[31, 127]),
   midi.NoteOnEvent(tick=108, channel=6, data=[31, 0]),
   midi.NoteOnEvent(tick=0, channel=6, data=[31, 127]),
   midi.NoteOnEvent(tick=108, channel=6, data=[31, 0]),
   midi.NoteOnEvent(tick=0, channel=6, data=[31, 127]),
   midi.NoteOnEvent(tick=108, channel=6, data=[31, 0]),
   midi.NoteOnEvent(tick=0, channel=6, data=[31, 127]),
   midi.NoteOnEvent(tick=212, channel=6, data=[31, 0]),
   midi.NoteOnEvent(tick=4, channel=6, data=[33, 127]),
   midi.NoteOnEvent(tick=108, channel=6, data=[33, 0]),
   midi.NoteOnEvent(tick=0, channel=6, data=[33, 127]),
   midi.NoteOnEvent(tick=212, channel=6, data=[33, 0]),
   midi.NoteOnEvent(tick=4, channel=6, data=[35, 127]),
   midi.NoteOnEvent(tick=108, channel=6, data=[35, 0]),
   midi.NoteOnEvent(tick=0, channel=6, data=[35, 127]),
   midi.NoteOnEvent(tick=108, channel=6, data=[35, 0]),
   midi.NoteOnEvent(tick=0, channel=6, data=[28, 127]),
   midi.NoteOnEvent(tick=324, channel=6, data=[28, 0]),
   midi.NoteOnEvent(tick=0, channel=6, data=[28, 127]),
   midi.NoteOnEvent(tick=108, channel=6, data=[28, 0]),
   midi.NoteOnEvent(tick=0, channel=6, data=[28, 127]),
   midi.NoteOnEvent(tick=212, channel=6, data=[28, 0]),
   midi.NoteOnEvent(tick=4, channel=6, data=[28, 127]),
   midi.NoteOnEvent(tick=108, channel=6, data=[28, 0]),
   midi.NoteOnEvent(tick=0, channel=6, data=[28, 127]),
   midi.NoteOnEvent(tick=108, channel=6, data=[28, 0]),
   midi.NoteOnEvent(tick=0, channel=6, data=[28, 127]),
   midi.NoteOnEvent(tick=324, channel=6, data=[28, 0]),
   midi.NoteOnEvent(tick=0, channel=6, data=[31, 127]),
   midi.NoteOnEvent(tick=320, channel=6, data=[31, 0]),
   midi.NoteOnEvent(tick=4, channel=6, data=[35, 127]),
   midi.NoteOnEvent(tick=216, channel=6, data=[35, 0]),
   midi.NoteOnEvent(tick=0, channel=6, data=[43, 127]),
   midi.NoteOnEvent(tick=1724, channel=6, data=[43, 0]),
   midi.NoteOnEvent(tick=4, channel=6, data=[34, 127]),
   midi.NoteOnEvent(tick=108, channel=6, data=[34, 0]),
   midi.NoteOnEvent(tick=0, channel=6, data=[33, 127]),
   midi.NoteOnEvent(tick=108, channel=6, data=[33, 0]),
   midi.NoteOnEvent(tick=108, channel=6, data=[33, 127]),
   midi.NoteOnEvent(tick=108, channel=6, data=[33, 0]),
   midi.NoteOnEvent(tick=108, channel=6, data=[33, 127]),
   midi.NoteOnEvent(tick=108, channel=6, data=[33, 0]),
   midi.NoteOnEvent(tick=108, channel=6, data=[33, 127]),
   midi.NoteOnEvent(tick=108, channel=6, data=[33, 0]),
   midi.NoteOnEvent(tick=0, channel=6, data=[28, 127]),
   midi.NoteOnEvent(tick=108, channel=6, data=[28, 0]),
   midi.NoteOnEvent(tick=0, channel=6, data=[28, 127]),
   midi.NoteOnEvent(tick=54, channel=6, data=[28, 0]),
   midi.NoteOnEvent(tick=0, channel=6, data=[28, 127]),
   midi.NoteOnEvent(tick=54, channel=6, data=[28, 0]),
   midi.NoteOnEvent(tick=0, channel=6, data=[28, 127]),
   midi.NoteOnEvent(tick=108, channel=6, data=[28, 0]),
   midi.NoteOnEvent(tick=0, channel=6, data=[28, 127]),
   midi.NoteOnEvent(tick=54, channel=6, data=[28, 0]),
   midi.NoteOnEvent(tick=0, channel=6, data=[28, 127]),
   midi.NoteOnEvent(tick=54, channel=6, data=[28, 0]),
   midi.NoteOnEvent(tick=0, channel=6, data=[28, 127]),
   midi.NoteOnEvent(tick=108, channel=6, data=[28, 0]),
   midi.NoteOnEvent(tick=0, channel=6, data=[35, 127]),
   midi.NoteOnEvent(tick=108, channel=6, data=[35, 0]),
   midi.NoteOnEvent(tick=0, channel=6, data=[34, 127]),
   midi.NoteOnEvent(tick=108, channel=6, data=[34, 0]),
   midi.NoteOnEvent(tick=0, channel=6, data=[33, 127]),
   midi.NoteOnEvent(tick=108, channel=6, data=[33, 0]),
   midi.NoteOnEvent(tick=0, channel=6, data=[28, 127]),
   midi.NoteOnEvent(tick=108, channel=6, data=[28, 0]),
   midi.NoteOnEvent(tick=0, channel=6, data=[35, 127]),
   midi.NoteOnEvent(tick=108, channel=6, data=[35, 0]),
   midi.NoteOnEvent(tick=0, channel=6, data=[34, 127]),
   midi.NoteOnEvent(tick=108, channel=6, data=[34, 0]),
   midi.NoteOnEvent(tick=0, channel=6, data=[33, 127]),
   midi.NoteOnEvent(tick=108, channel=6, data=[33, 0]),
   midi.NoteOnEvent(tick=0, channel=6, data=[28, 127]),
   midi.NoteOnEvent(tick=108, channel=6, data=[28, 0]),
   midi.NoteOnEvent(tick=0, channel=6, data=[35, 127]),
   midi.NoteOnEvent(tick=108, channel=6, data=[35, 0]),
   midi.NoteOnEvent(tick=0, channel=6, data=[34, 127]),
   midi.NoteOnEvent(tick=108, channel=6, data=[34, 0]),
   midi.NoteOnEvent(tick=0, channel=6, data=[33, 127]),
   midi.NoteOnEvent(tick=108, channel=6, data=[33, 0]),
   midi.NoteOnEvent(tick=0, channel=6, data=[28, 127]),
   midi.NoteOnEvent(tick=108, channel=6, data=[28, 0]),
   midi.NoteOnEvent(tick=0, channel=6, data=[28, 127]),
   midi.NoteOnEvent(tick=54, channel=6, data=[28, 0]),
   midi.NoteOnEvent(tick=0, channel=6, data=[28, 127]),
   midi.NoteOnEvent(tick=54, channel=6, data=[28, 0]),
   midi.NoteOnEvent(tick=0, channel=6, data=[28, 127]),
   midi.NoteOnEvent(tick=108, channel=6, data=[28, 0]),
   midi.NoteOnEvent(tick=0, channel=6, data=[28, 127]),
   midi.NoteOnEvent(tick=54, channel=6, data=[28, 0]),
   midi.NoteOnEvent(tick=0, channel=6, data=[28, 127]),
   midi.NoteOnEvent(tick=54, channel=6, data=[28, 0]),
   midi.NoteOnEvent(tick=0, channel=6, data=[28, 127]),
   midi.NoteOnEvent(tick=108, channel=6, data=[28, 0]),
   midi.NoteOnEvent(tick=0, channel=6, data=[35, 127]),
   midi.NoteOnEvent(tick=108, channel=6, data=[35, 0]),
   midi.NoteOnEvent(tick=0, channel=6, data=[34, 127]),
   midi.NoteOnEvent(tick=108, channel=6, data=[34, 0]),
   midi.NoteOnEvent(tick=0, channel=6, data=[33, 127]),
   midi.NoteOnEvent(tick=108, channel=6, data=[33, 0]),
   midi.NoteOnEvent(tick=0, channel=6, data=[35, 127]),
   midi.NoteOnEvent(tick=0, channel=6, data=[28, 127]),
   midi.NoteOnEvent(tick=108, channel=6, data=[28, 0]),
   midi.NoteOnEvent(tick=0, channel=6, data=[35, 0]),
   midi.NoteOnEvent(tick=0, channel=6, data=[35, 127]),
   midi.NoteOnEvent(tick=0, channel=6, data=[42, 127]),
   midi.NoteOnEvent(tick=108, channel=6, data=[42, 0]),
   midi.NoteOnEvent(tick=0, channel=6, data=[35, 0]),
   midi.NoteOnEvent(tick=108, channel=6, data=[34, 127]),
   midi.NoteOnEvent(tick=0, channel=6, data=[41, 127]),
   midi.NoteOnEvent(tick=108, channel=6, data=[41, 0]),
   midi.NoteOnEvent(tick=0, channel=6, data=[34, 0]),
   midi.NoteOnEvent(tick=108, channel=6, data=[33, 127]),
   midi.NoteOnEvent(tick=0, channel=6, data=[40, 127]),
   midi.NoteOnEvent(tick=108, channel=6, data=[40, 0]),
   midi.NoteOnEvent(tick=0, channel=6, data=[33, 0]),
   midi.NoteOnEvent(tick=108, channel=6, data=[31, 127]),
   midi.NoteOnEvent(tick=0, channel=6, data=[38, 127]),
   midi.NoteOnEvent(tick=108, channel=6, data=[38, 0]),
   midi.NoteOnEvent(tick=0, channel=6, data=[31, 0]),
   midi.NoteOnEvent(tick=0, channel=6, data=[28, 127]),
   midi.NoteOnEvent(tick=108, channel=6, data=[28, 0]),
   midi.NoteOnEvent(tick=0, channel=6, data=[28, 127]),
   midi.NoteOnEvent(tick=54, channel=6, data=[28, 0]),
   midi.NoteOnEvent(tick=0, channel=6, data=[28, 127]),
   midi.NoteOnEvent(tick=54, channel=6, data=[28, 0]),
   midi.NoteOnEvent(tick=0, channel=6, data=[28, 127]),
   midi.NoteOnEvent(tick=108, channel=6, data=[28, 0]),
   midi.NoteOnEvent(tick=0, channel=6, data=[28, 127]),
   midi.NoteOnEvent(tick=54, channel=6, data=[28, 0]),
   midi.NoteOnEvent(tick=0, channel=6, data=[28, 127]),
   midi.NoteOnEvent(tick=54, channel=6, data=[28, 0]),
   midi.NoteOnEvent(tick=0, channel=6, data=[28, 127]),
   midi.NoteOnEvent(tick=108, channel=6, data=[28, 0]),
   midi.NoteOnEvent(tick=0, channel=6, data=[35, 127]),
   midi.NoteOnEvent(tick=108, channel=6, data=[35, 0]),
   midi.NoteOnEvent(tick=0, channel=6, data=[34, 127]),
   midi.NoteOnEvent(tick=108, channel=6, data=[34, 0]),
   midi.NoteOnEvent(tick=0, channel=6, data=[33, 127]),
   midi.NoteOnEvent(tick=108, channel=6, data=[33, 0]),
   midi.NoteOnEvent(tick=0, channel=6, data=[28, 127]),
   midi.NoteOnEvent(tick=108, channel=6, data=[28, 0]),
   midi.NoteOnEvent(tick=0, channel=6, data=[35, 127]),
   midi.NoteOnEvent(tick=108, channel=6, data=[35, 0]),
   midi.NoteOnEvent(tick=0, channel=6, data=[34, 127]),
   midi.NoteOnEvent(tick=108, channel=6, data=[34, 0]),
   midi.NoteOnEvent(tick=0, channel=6, data=[33, 127]),
   midi.NoteOnEvent(tick=108, channel=6, data=[33, 0]),
   midi.NoteOnEvent(tick=0, channel=6, data=[28, 127]),
   midi.NoteOnEvent(tick=108, channel=6, data=[28, 0]),
   midi.NoteOnEvent(tick=0, channel=6, data=[35, 127]),
   midi.NoteOnEvent(tick=108, channel=6, data=[35, 0]),
   midi.NoteOnEvent(tick=0, channel=6, data=[34, 127]),
   midi.NoteOnEvent(tick=108, channel=6, data=[34, 0]),
   midi.NoteOnEvent(tick=0, channel=6, data=[33, 127]),
   midi.NoteOnEvent(tick=108, channel=6, data=[33, 0]),
   midi.NoteOnEvent(tick=0, channel=6, data=[28, 127]),
   midi.NoteOnEvent(tick=108, channel=6, data=[28, 0]),
   midi.NoteOnEvent(tick=0, channel=6, data=[28, 127]),
   midi.NoteOnEvent(tick=54, channel=6, data=[28, 0]),
   midi.NoteOnEvent(tick=0, channel=6, data=[28, 127]),
   midi.NoteOnEvent(tick=54, channel=6, data=[28, 0]),
   midi.NoteOnEvent(tick=0, channel=6, data=[28, 127]),
   midi.NoteOnEvent(tick=108, channel=6, data=[28, 0]),
   midi.NoteOnEvent(tick=0, channel=6, data=[28, 127]),
   midi.NoteOnEvent(tick=54, channel=6, data=[28, 0]),
   midi.NoteOnEvent(tick=0, channel=6, data=[28, 127]),
   midi.NoteOnEvent(tick=54, channel=6, data=[28, 0]),
   midi.NoteOnEvent(tick=0, channel=6, data=[28, 127]),
   midi.NoteOnEvent(tick=108, channel=6, data=[28, 0]),
   midi.NoteOnEvent(tick=0, channel=6, data=[35, 127]),
   midi.NoteOnEvent(tick=108, channel=6, data=[35, 0]),
   midi.NoteOnEvent(tick=0, channel=6, data=[34, 127]),
   midi.NoteOnEvent(tick=108, channel=6, data=[34, 0]),
   midi.NoteOnEvent(tick=0, channel=6, data=[33, 127]),
   midi.NoteOnEvent(tick=108, channel=6, data=[33, 0]),
   midi.NoteOnEvent(tick=0, channel=6, data=[34, 127]),
   midi.NoteOnEvent(tick=108, channel=6, data=[34, 0]),
   midi.NoteOnEvent(tick=0, channel=6, data=[33, 127]),
   midi.NoteOnEvent(tick=0, channel=6, data=[40, 127]),
   midi.NoteOnEvent(tick=108, channel=6, data=[40, 0]),
   midi.NoteOnEvent(tick=0, channel=6, data=[33, 0]),
   midi.NoteOnEvent(tick=108, channel=6, data=[33, 127]),
   midi.NoteOnEvent(tick=0, channel=6, data=[40, 127]),
   midi.NoteOnEvent(tick=108, channel=6, data=[40, 0]),
   midi.NoteOnEvent(tick=0, channel=6, data=[33, 0]),
   midi.NoteOnEvent(tick=108, channel=6, data=[33, 127]),
   midi.NoteOnEvent(tick=0, channel=6, data=[40, 127]),
   midi.NoteOnEvent(tick=108, channel=6, data=[40, 0]),
   midi.NoteOnEvent(tick=0, channel=6, data=[33, 0]),
   midi.NoteOnEvent(tick=108, channel=6, data=[33, 127]),
   midi.NoteOnEvent(tick=0, channel=6, data=[40, 127]),
   midi.NoteOnEvent(tick=108, channel=6, data=[40, 0]),
   midi.NoteOnEvent(tick=0, channel=6, data=[33, 0]),
   midi.NoteOnEvent(tick=0, channel=6, data=[28, 127]),
   midi.NoteOnEvent(tick=108, channel=6, data=[28, 0]),
   midi.NoteOnEvent(tick=0, channel=6, data=[28, 127]),
   midi.NoteOnEvent(tick=54, channel=6, data=[28, 0]),
   midi.NoteOnEvent(tick=0, channel=6, data=[28, 127]),
   midi.NoteOnEvent(tick=54, channel=6, data=[28, 0]),
   midi.NoteOnEvent(tick=0, channel=6, data=[28, 127]),
   midi.NoteOnEvent(tick=108, channel=6, data=[28, 0]),
   midi.NoteOnEvent(tick=0, channel=6, data=[28, 127]),
   midi.NoteOnEvent(tick=54, channel=6, data=[28, 0]),
   midi.NoteOnEvent(tick=0, channel=6, data=[28, 127]),
   midi.NoteOnEvent(tick=54, channel=6, data=[28, 0]),
   midi.NoteOnEvent(tick=0, channel=6, data=[28, 127]),
   midi.NoteOnEvent(tick=108, channel=6, data=[28, 0]),
   midi.NoteOnEvent(tick=0, channel=6, data=[35, 127]),
   midi.NoteOnEvent(tick=108, channel=6, data=[35, 0]),
   midi.NoteOnEvent(tick=0, channel=6, data=[34, 127]),
   midi.NoteOnEvent(tick=108, channel=6, data=[34, 0]),
   midi.NoteOnEvent(tick=0, channel=6, data=[33, 127]),
   midi.NoteOnEvent(tick=108, channel=6, data=[33, 0]),
   midi.NoteOnEvent(tick=0, channel=6, data=[28, 127]),
   midi.NoteOnEvent(tick=108, channel=6, data=[28, 0]),
   midi.NoteOnEvent(tick=0, channel=6, data=[35, 127]),
   midi.NoteOnEvent(tick=108, channel=6, data=[35, 0]),
   midi.NoteOnEvent(tick=0, channel=6, data=[34, 127]),
   midi.NoteOnEvent(tick=108, channel=6, data=[34, 0]),
   midi.NoteOnEvent(tick=0, channel=6, data=[33, 127]),
   midi.NoteOnEvent(tick=108, channel=6, data=[33, 0]),
   midi.NoteOnEvent(tick=0, channel=6, data=[28, 127]),
   midi.NoteOnEvent(tick=108, channel=6, data=[28, 0]),
   midi.NoteOnEvent(tick=0, channel=6, data=[35, 127]),
   midi.NoteOnEvent(tick=108, channel=6, data=[35, 0]),
   midi.NoteOnEvent(tick=0, channel=6, data=[34, 127]),
   midi.NoteOnEvent(tick=108, channel=6, data=[34, 0]),
   midi.NoteOnEvent(tick=0, channel=6, data=[33, 127]),
   midi.NoteOnEvent(tick=108, channel=6, data=[33, 0]),
   midi.NoteOnEvent(tick=0, channel=6, data=[28, 127]),
   midi.NoteOnEvent(tick=108, channel=6, data=[28, 0]),
   midi.NoteOnEvent(tick=0, channel=6, data=[28, 127]),
   midi.NoteOnEvent(tick=54, channel=6, data=[28, 0]),
   midi.NoteOnEvent(tick=0, channel=6, data=[28, 127]),
   midi.NoteOnEvent(tick=54, channel=6, data=[28, 0]),
   midi.NoteOnEvent(tick=0, channel=6, data=[28, 127]),
   midi.NoteOnEvent(tick=108, channel=6, data=[28, 0]),
   midi.NoteOnEvent(tick=0, channel=6, data=[28, 127]),
   midi.NoteOnEvent(tick=54, channel=6, data=[28, 0]),
   midi.NoteOnEvent(tick=0, channel=6, data=[28, 127]),
   midi.NoteOnEvent(tick=54, channel=6, data=[28, 0]),
   midi.NoteOnEvent(tick=0, channel=6, data=[28, 127]),
   midi.NoteOnEvent(tick=108, channel=6, data=[28, 0]),
   midi.NoteOnEvent(tick=0, channel=6, data=[35, 127]),
   midi.NoteOnEvent(tick=108, channel=6, data=[35, 0]),
   midi.NoteOnEvent(tick=0, channel=6, data=[34, 127]),
   midi.NoteOnEvent(tick=108, channel=6, data=[34, 0]),
   midi.NoteOnEvent(tick=0, channel=6, data=[33, 127]),
   midi.NoteOnEvent(tick=108, channel=6, data=[33, 0]),
   midi.NoteOnEvent(tick=0, channel=6, data=[35, 127]),
   midi.NoteOnEvent(tick=0, channel=6, data=[28, 127]),
   midi.NoteOnEvent(tick=108, channel=6, data=[28, 0]),
   midi.NoteOnEvent(tick=0, channel=6, data=[35, 0]),
   midi.NoteOnEvent(tick=0, channel=6, data=[35, 127]),
   midi.NoteOnEvent(tick=0, channel=6, data=[42, 127]),
   midi.NoteOnEvent(tick=108, channel=6, data=[42, 0]),
   midi.NoteOnEvent(tick=0, channel=6, data=[35, 0]),
   midi.NoteOnEvent(tick=0, channel=6, data=[34, 127]),
   midi.NoteOnEvent(tick=0, channel=6, data=[41, 127]),
   midi.NoteOnEvent(tick=108, channel=6, data=[41, 0]),
   midi.NoteOnEvent(tick=0, channel=6, data=[34, 0]),
   midi.NoteOnEvent(tick=0, channel=6, data=[33, 127]),
   midi.NoteOnEvent(tick=0, channel=6, data=[40, 127]),
   midi.NoteOnEvent(tick=108, channel=6, data=[40, 0]),
   midi.NoteOnEvent(tick=0, channel=6, data=[33, 0]),
   midi.NoteOnEvent(tick=108, channel=6, data=[31, 127]),
   midi.NoteOnEvent(tick=0, channel=6, data=[38, 127]),
   midi.NoteOnEvent(tick=108, channel=6, data=[38, 0]),
   midi.NoteOnEvent(tick=0, channel=6, data=[31, 0]),
   midi.NoteOnEvent(tick=108, channel=6, data=[29, 127]),
   midi.NoteOnEvent(tick=0, channel=6, data=[33, 127]),
   midi.NoteOnEvent(tick=108, channel=6, data=[33, 0]),
   midi.NoteOnEvent(tick=0, channel=6, data=[29, 0]),
   midi.NoteOnEvent(tick=0, channel=6, data=[28, 127]),
   midi.NoteOnEvent(tick=108, channel=6, data=[28, 0]),
   midi.NoteOnEvent(tick=0, channel=6, data=[28, 127]),
   midi.NoteOnEvent(tick=54, channel=6, data=[28, 0]),
   midi.NoteOnEvent(tick=0, channel=6, data=[28, 127]),
   midi.NoteOnEvent(tick=54, channel=6, data=[28, 0]),
   midi.NoteOnEvent(tick=0, channel=6, data=[28, 127]),
   midi.NoteOnEvent(tick=108, channel=6, data=[28, 0]),
   midi.NoteOnEvent(tick=0, channel=6, data=[28, 127]),
   midi.NoteOnEvent(tick=54, channel=6, data=[28, 0]),
   midi.NoteOnEvent(tick=0, channel=6, data=[28, 127]),
   midi.NoteOnEvent(tick=54, channel=6, data=[28, 0]),
   midi.NoteOnEvent(tick=0, channel=6, data=[28, 127]),
   midi.NoteOnEvent(tick=108, channel=6, data=[28, 0]),
   midi.NoteOnEvent(tick=0, channel=6, data=[35, 127]),
   midi.NoteOnEvent(tick=108, channel=6, data=[35, 0]),
   midi.NoteOnEvent(tick=0, channel=6, data=[34, 127]),
   midi.NoteOnEvent(tick=108, channel=6, data=[34, 0]),
   midi.NoteOnEvent(tick=0, channel=6, data=[33, 127]),
   midi.NoteOnEvent(tick=108, channel=6, data=[33, 0]),
   midi.NoteOnEvent(tick=0, channel=6, data=[28, 127]),
   midi.NoteOnEvent(tick=108, channel=6, data=[28, 0]),
   midi.NoteOnEvent(tick=0, channel=6, data=[35, 127]),
   midi.NoteOnEvent(tick=108, channel=6, data=[35, 0]),
   midi.NoteOnEvent(tick=0, channel=6, data=[34, 127]),
   midi.NoteOnEvent(tick=108, channel=6, data=[34, 0]),
   midi.NoteOnEvent(tick=0, channel=6, data=[33, 127]),
   midi.NoteOnEvent(tick=108, channel=6, data=[33, 0]),
   midi.NoteOnEvent(tick=0, channel=6, data=[28, 127]),
   midi.NoteOnEvent(tick=108, channel=6, data=[28, 0]),
   midi.NoteOnEvent(tick=0, channel=6, data=[35, 127]),
   midi.NoteOnEvent(tick=108, channel=6, data=[35, 0]),
   midi.NoteOnEvent(tick=0, channel=6, data=[34, 127]),
   midi.NoteOnEvent(tick=108, channel=6, data=[34, 0]),
   midi.NoteOnEvent(tick=0, channel=6, data=[33, 127]),
   midi.NoteOnEvent(tick=108, channel=6, data=[33, 0]),
   midi.NoteOnEvent(tick=0, channel=6, data=[28, 127]),
   midi.NoteOnEvent(tick=108, channel=6, data=[28, 0]),
   midi.NoteOnEvent(tick=0, channel=6, data=[28, 127]),
   midi.NoteOnEvent(tick=54, channel=6, data=[28, 0]),
   midi.NoteOnEvent(tick=0, channel=6, data=[28, 127]),
   midi.NoteOnEvent(tick=54, channel=6, data=[28, 0]),
   midi.NoteOnEvent(tick=0, channel=6, data=[28, 127]),
   midi.NoteOnEvent(tick=108, channel=6, data=[28, 0]),
   midi.NoteOnEvent(tick=0, channel=6, data=[28, 127]),
   midi.NoteOnEvent(tick=54, channel=6, data=[28, 0]),
   midi.NoteOnEvent(tick=0, channel=6, data=[28, 127]),
   midi.NoteOnEvent(tick=54, channel=6, data=[28, 0]),
   midi.NoteOnEvent(tick=0, channel=6, data=[28, 127]),
   midi.NoteOnEvent(tick=108, channel=6, data=[28, 0]),
   midi.NoteOnEvent(tick=0, channel=6, data=[35, 127]),
   midi.NoteOnEvent(tick=108, channel=6, data=[35, 0]),
   midi.NoteOnEvent(tick=0, channel=6, data=[34, 127]),
   midi.NoteOnEvent(tick=108, channel=6, data=[34, 0]),
   midi.NoteOnEvent(tick=0, channel=6, data=[33, 127]),
   midi.NoteOnEvent(tick=108, channel=6, data=[33, 0]),
   midi.NoteOnEvent(tick=0, channel=6, data=[34, 127]),
   midi.NoteOnEvent(tick=0, channel=6, data=[41, 127]),
   midi.NoteOnEvent(tick=108, channel=6, data=[41, 0]),
   midi.NoteOnEvent(tick=0, channel=6, data=[34, 0]),
   midi.NoteOnEvent(tick=0, channel=6, data=[33, 127]),
   midi.NoteOnEvent(tick=0, channel=6, data=[40, 127]),
   midi.NoteOnEvent(tick=108, channel=6, data=[40, 0]),
   midi.NoteOnEvent(tick=0, channel=6, data=[33, 0]),
   midi.NoteOnEvent(tick=108, channel=6, data=[33, 127]),
   midi.NoteOnEvent(tick=0, channel=6, data=[40, 127]),
   midi.NoteOnEvent(tick=0, channel=6, data=[45, 127]),
   midi.NoteOnEvent(tick=108, channel=6, data=[45, 0]),
   midi.NoteOnEvent(tick=0, channel=6, data=[40, 0]),
   midi.NoteOnEvent(tick=0, channel=6, data=[33, 0]),
   midi.NoteOnEvent(tick=108, channel=6, data=[33, 127]),
   midi.NoteOnEvent(tick=0, channel=6, data=[40, 127]),
   midi.NoteOnEvent(tick=0, channel=6, data=[45, 127]),
   midi.NoteOnEvent(tick=108, channel=6, data=[45, 0]),
   midi.NoteOnEvent(tick=0, channel=6, data=[40, 0]),
   midi.NoteOnEvent(tick=0, channel=6, data=[33, 0]),
   midi.NoteOnEvent(tick=108, channel=6, data=[33, 127]),
   midi.NoteOnEvent(tick=0, channel=6, data=[40, 127]),
   midi.NoteOnEvent(tick=0, channel=6, data=[45, 127]),
   midi.NoteOnEvent(tick=108, channel=6, data=[45, 0]),
   midi.NoteOnEvent(tick=0, channel=6, data=[40, 0]),
   midi.NoteOnEvent(tick=0, channel=6, data=[33, 0]),
   midi.NoteOnEvent(tick=0, channel=6, data=[28, 127]),
   midi.NoteOnEvent(tick=860, channel=6, data=[28, 0]),
   midi.NoteOnEvent(tick=4, channel=6, data=[31, 127]),
   midi.NoteOnEvent(tick=864, channel=6, data=[31, 0]),
   midi.NoteOnEvent(tick=0, channel=6, data=[33, 127]),
   midi.NoteOnEvent(tick=864, channel=6, data=[33, 0]),
   midi.NoteOnEvent(tick=0, channel=6, data=[30, 127]),
   midi.NoteOnEvent(tick=864, channel=6, data=[30, 0]),
   midi.NoteOnEvent(tick=0, channel=6, data=[28, 127]),
   midi.NoteOnEvent(tick=860, channel=6, data=[28, 0]),
   midi.NoteOnEvent(tick=4, channel=6, data=[31, 127]),
   midi.NoteOnEvent(tick=864, channel=6, data=[31, 0]),
   midi.NoteOnEvent(tick=0, channel=6, data=[33, 127]),
   midi.NoteOnEvent(tick=0, channel=6, data=[40, 127]),
   midi.NoteOnEvent(tick=212, channel=6, data=[40, 0]),
   midi.NoteOnEvent(tick=0, channel=6, data=[33, 0]),
   midi.NoteOnEvent(tick=1300, channel=6, data=[30, 127]),
   midi.NoteOnEvent(tick=216, channel=6, data=[30, 0]),
   midi.NoteOnEvent(tick=0, channel=6, data=[29, 127]),
   midi.NoteOnEvent(tick=108, channel=6, data=[29, 0]),
   midi.NoteOnEvent(tick=0, channel=6, data=[29, 127]),
   midi.NoteOnEvent(tick=108, channel=6, data=[29, 0]),
   midi.NoteOnEvent(tick=0, channel=6, data=[34, 127]),
   midi.NoteOnEvent(tick=108, channel=6, data=[34, 0]),
   midi.NoteOnEvent(tick=0, channel=6, data=[29, 127]),
   midi.NoteOnEvent(tick=108, channel=6, data=[29, 0]),
   midi.NoteOnEvent(tick=0, channel=6, data=[35, 127]),
   midi.NoteOnEvent(tick=108, channel=6, data=[35, 0]),
   midi.NoteOnEvent(tick=0, channel=6, data=[29, 127]),
   midi.NoteOnEvent(tick=108, channel=6, data=[29, 0]),
   midi.NoteOnEvent(tick=0, channel=6, data=[34, 127]),
   midi.NoteOnEvent(tick=108, channel=6, data=[34, 0]),
   midi.NoteOnEvent(tick=0, channel=6, data=[29, 127]),
   midi.NoteOnEvent(tick=108, channel=6, data=[29, 0]),
   midi.NoteOnEvent(tick=0, channel=6, data=[35, 127]),
   midi.NoteOnEvent(tick=0, channel=6, data=[42, 127]),
   midi.NoteOnEvent(tick=108, channel=6, data=[42, 0]),
   midi.NoteOnEvent(tick=0, channel=6, data=[35, 0]),
   midi.NoteOnEvent(tick=0, channel=6, data=[29, 127]),
   midi.NoteOnEvent(tick=108, channel=6, data=[29, 0]),
   midi.NoteOnEvent(tick=0, channel=6, data=[34, 127]),
   midi.NoteOnEvent(tick=0, channel=6, data=[41, 127]),
   midi.NoteOnEvent(tick=108, channel=6, data=[41, 0]),
   midi.NoteOnEvent(tick=0, channel=6, data=[34, 0]),
   midi.NoteOnEvent(tick=0, channel=6, data=[29, 127]),
   midi.NoteOnEvent(tick=108, channel=6, data=[29, 0]),
   midi.NoteOnEvent(tick=0, channel=6, data=[35, 127]),
   midi.NoteOnEvent(tick=0, channel=6, data=[42, 127]),
   midi.NoteOnEvent(tick=108, channel=6, data=[42, 0]),
   midi.NoteOnEvent(tick=0, channel=6, data=[35, 0]),
   midi.NoteOnEvent(tick=0, channel=6, data=[29, 127]),
   midi.NoteOnEvent(tick=108, channel=6, data=[29, 0]),
   midi.NoteOnEvent(tick=0, channel=6, data=[37, 127]),
   midi.NoteOnEvent(tick=0, channel=6, data=[30, 127]),
   midi.NoteOnEvent(tick=216, channel=6, data=[30, 0]),
   midi.NoteOnEvent(tick=0, channel=6, data=[37, 0]),
   midi.NoteOnEvent(tick=0, channel=6, data=[29, 127]),
   midi.NoteOnEvent(tick=0, channel=6, data=[36, 127]),
   midi.NoteOnEvent(tick=108, channel=6, data=[36, 0]),
   midi.NoteOnEvent(tick=0, channel=6, data=[29, 0]),
   midi.NoteOnEvent(tick=0, channel=6, data=[29, 127]),
   midi.NoteOnEvent(tick=108, channel=6, data=[29, 0]),
   midi.NoteOnEvent(tick=0, channel=6, data=[34, 127]),
   midi.NoteOnEvent(tick=0, channel=6, data=[41, 127]),
   midi.NoteOnEvent(tick=108, channel=6, data=[41, 0]),
   midi.NoteOnEvent(tick=0, channel=6, data=[34, 0]),
   midi.NoteOnEvent(tick=0, channel=6, data=[29, 127]),
   midi.NoteOnEvent(tick=108, channel=6, data=[29, 0]),
   midi.NoteOnEvent(tick=0, channel=6, data=[35, 127]),
   midi.NoteOnEvent(tick=0, channel=6, data=[42, 127]),
   midi.NoteOnEvent(tick=108, channel=6, data=[42, 0]),
   midi.NoteOnEvent(tick=0, channel=6, data=[35, 0]),
   midi.NoteOnEvent(tick=0, channel=6, data=[29, 127]),
   midi.NoteOnEvent(tick=108, channel=6, data=[29, 0]),
   midi.NoteOnEvent(tick=0, channel=6, data=[34, 127]),
   midi.NoteOnEvent(tick=0, channel=6, data=[41, 127]),
   midi.NoteOnEvent(tick=108, channel=6, data=[41, 0]),
   midi.NoteOnEvent(tick=0, channel=6, data=[34, 0]),
   midi.NoteOnEvent(tick=0, channel=6, data=[29, 127]),
   midi.NoteOnEvent(tick=108, channel=6, data=[29, 0]),
   midi.NoteOnEvent(tick=0, channel=6, data=[35, 127]),
   midi.NoteOnEvent(tick=0, channel=6, data=[42, 127]),
   midi.NoteOnEvent(tick=108, channel=6, data=[42, 0]),
   midi.NoteOnEvent(tick=0, channel=6, data=[35, 0]),
   midi.NoteOnEvent(tick=0, channel=6, data=[29, 127]),
   midi.NoteOnEvent(tick=108, channel=6, data=[29, 0]),
   midi.NoteOnEvent(tick=0, channel=6, data=[34, 127]),
   midi.NoteOnEvent(tick=0, channel=6, data=[41, 127]),
   midi.NoteOnEvent(tick=108, channel=6, data=[41, 0]),
   midi.NoteOnEvent(tick=0, channel=6, data=[34, 0]),
   midi.NoteOnEvent(tick=0, channel=6, data=[29, 127]),
   midi.NoteOnEvent(tick=108, channel=6, data=[29, 0]),
   midi.NoteOnEvent(tick=0, channel=6, data=[35, 127]),
   midi.NoteOnEvent(tick=0, channel=6, data=[42, 127]),
   midi.NoteOnEvent(tick=108, channel=6, data=[42, 0]),
   midi.NoteOnEvent(tick=0, channel=6, data=[35, 0]),
   midi.NoteOnEvent(tick=0, channel=6, data=[29, 127]),
   midi.NoteOnEvent(tick=108, channel=6, data=[29, 0]),
   midi.NoteOnEvent(tick=0, channel=6, data=[37, 127]),
   midi.NoteOnEvent(tick=0, channel=6, data=[30, 127]),
   midi.NoteOnEvent(tick=216, channel=6, data=[30, 0]),
   midi.NoteOnEvent(tick=0, channel=6, data=[37, 0]),
   midi.NoteOnEvent(tick=0, channel=6, data=[29, 127]),
   midi.NoteOnEvent(tick=0, channel=6, data=[36, 127]),
   midi.NoteOnEvent(tick=108, channel=6, data=[36, 0]),
   midi.NoteOnEvent(tick=0, channel=6, data=[29, 0]),
   midi.NoteOnEvent(tick=0, channel=6, data=[29, 127]),
   midi.NoteOnEvent(tick=108, channel=6, data=[29, 0]),
   midi.NoteOnEvent(tick=0, channel=6, data=[34, 127]),
   midi.NoteOnEvent(tick=0, channel=6, data=[41, 127]),
   midi.NoteOnEvent(tick=108, channel=6, data=[41, 0]),
   midi.NoteOnEvent(tick=0, channel=6, data=[34, 0]),
   midi.NoteOnEvent(tick=0, channel=6, data=[29, 127]),
   midi.NoteOnEvent(tick=108, channel=6, data=[29, 0]),
   midi.NoteOnEvent(tick=0, channel=6, data=[35, 127]),
   midi.NoteOnEvent(tick=0, channel=6, data=[42, 127]),
   midi.NoteOnEvent(tick=108, channel=6, data=[42, 0]),
   midi.NoteOnEvent(tick=0, channel=6, data=[35, 0]),
   midi.NoteOnEvent(tick=0, channel=6, data=[29, 127]),
   midi.NoteOnEvent(tick=108, channel=6, data=[29, 0]),
   midi.NoteOnEvent(tick=0, channel=6, data=[34, 127]),
   midi.NoteOnEvent(tick=0, channel=6, data=[41, 127]),
   midi.NoteOnEvent(tick=108, channel=6, data=[41, 0]),
   midi.NoteOnEvent(tick=0, channel=6, data=[34, 0]),
   midi.NoteOnEvent(tick=0, channel=6, data=[29, 127]),
   midi.NoteOnEvent(tick=108, channel=6, data=[29, 0]),
   midi.NoteOnEvent(tick=0, channel=6, data=[35, 127]),
   midi.NoteOnEvent(tick=0, channel=6, data=[42, 127]),
   midi.NoteOnEvent(tick=108, channel=6, data=[42, 0]),
   midi.NoteOnEvent(tick=0, channel=6, data=[35, 0]),
   midi.NoteOnEvent(tick=0, channel=6, data=[29, 127]),
   midi.NoteOnEvent(tick=108, channel=6, data=[29, 0]),
   midi.NoteOnEvent(tick=0, channel=6, data=[34, 127]),
   midi.NoteOnEvent(tick=0, channel=6, data=[41, 127]),
   midi.NoteOnEvent(tick=108, channel=6, data=[41, 0]),
   midi.NoteOnEvent(tick=0, channel=6, data=[34, 0]),
   midi.NoteOnEvent(tick=0, channel=6, data=[29, 127]),
   midi.NoteOnEvent(tick=108, channel=6, data=[29, 0]),
   midi.NoteOnEvent(tick=0, channel=6, data=[35, 127]),
   midi.NoteOnEvent(tick=0, channel=6, data=[42, 127]),
   midi.NoteOnEvent(tick=108, channel=6, data=[42, 0]),
   midi.NoteOnEvent(tick=0, channel=6, data=[35, 0]),
   midi.NoteOnEvent(tick=0, channel=6, data=[29, 127]),
   midi.NoteOnEvent(tick=108, channel=6, data=[29, 0]),
   midi.NoteOnEvent(tick=0, channel=6, data=[37, 127]),
   midi.NoteOnEvent(tick=0, channel=6, data=[30, 127]),
   midi.NoteOnEvent(tick=216, channel=6, data=[30, 0]),
   midi.NoteOnEvent(tick=0, channel=6, data=[37, 0]),
   midi.NoteOnEvent(tick=0, channel=6, data=[29, 127]),
   midi.NoteOnEvent(tick=0, channel=6, data=[36, 127]),
   midi.NoteOnEvent(tick=108, channel=6, data=[36, 0]),
   midi.NoteOnEvent(tick=0, channel=6, data=[29, 0]),
   midi.NoteOnEvent(tick=0, channel=6, data=[29, 127]),
   midi.NoteOnEvent(tick=108, channel=6, data=[29, 0]),
   midi.NoteOnEvent(tick=0, channel=6, data=[34, 127]),
   midi.NoteOnEvent(tick=0, channel=6, data=[41, 127]),
   midi.NoteOnEvent(tick=108, channel=6, data=[41, 0]),
   midi.NoteOnEvent(tick=0, channel=6, data=[34, 0]),
   midi.NoteOnEvent(tick=0, channel=6, data=[29, 127]),
   midi.NoteOnEvent(tick=108, channel=6, data=[29, 0]),
   midi.NoteOnEvent(tick=0, channel=6, data=[35, 127]),
   midi.NoteOnEvent(tick=0, channel=6, data=[42, 127]),
   midi.NoteOnEvent(tick=108, channel=6, data=[42, 0]),
   midi.NoteOnEvent(tick=0, channel=6, data=[35, 0]),
   midi.NoteOnEvent(tick=0, channel=6, data=[29, 127]),
   midi.NoteOnEvent(tick=108, channel=6, data=[29, 0]),
   midi.NoteOnEvent(tick=0, channel=6, data=[34, 127]),
   midi.NoteOnEvent(tick=0, channel=6, data=[41, 127]),
   midi.NoteOnEvent(tick=108, channel=6, data=[41, 0]),
   midi.NoteOnEvent(tick=0, channel=6, data=[34, 0]),
   midi.NoteOnEvent(tick=0, channel=6, data=[29, 127]),
   midi.NoteOnEvent(tick=108, channel=6, data=[29, 0]),
   midi.NoteOnEvent(tick=0, channel=6, data=[35, 127]),
   midi.NoteOnEvent(tick=0, channel=6, data=[42, 127]),
   midi.NoteOnEvent(tick=108, channel=6, data=[42, 0]),
   midi.NoteOnEvent(tick=0, channel=6, data=[35, 0]),
   midi.NoteOnEvent(tick=0, channel=6, data=[29, 127]),
   midi.NoteOnEvent(tick=108, channel=6, data=[29, 0]),
   midi.NoteOnEvent(tick=0, channel=6, data=[34, 127]),
   midi.NoteOnEvent(tick=0, channel=6, data=[41, 127]),
   midi.NoteOnEvent(tick=108, channel=6, data=[41, 0]),
   midi.NoteOnEvent(tick=0, channel=6, data=[34, 0]),
   midi.NoteOnEvent(tick=0, channel=6, data=[29, 127]),
   midi.NoteOnEvent(tick=108, channel=6, data=[29, 0]),
   midi.NoteOnEvent(tick=0, channel=6, data=[35, 127]),
   midi.NoteOnEvent(tick=0, channel=6, data=[42, 127]),
   midi.NoteOnEvent(tick=108, channel=6, data=[42, 0]),
   midi.NoteOnEvent(tick=0, channel=6, data=[35, 0]),
   midi.NoteOnEvent(tick=0, channel=6, data=[29, 127]),
   midi.NoteOnEvent(tick=108, channel=6, data=[29, 0]),
   midi.NoteOnEvent(tick=0, channel=6, data=[37, 127]),
   midi.NoteOnEvent(tick=0, channel=6, data=[30, 127]),
   midi.NoteOnEvent(tick=216, channel=6, data=[30, 0]),
   midi.NoteOnEvent(tick=0, channel=6, data=[37, 0]),
   midi.NoteOnEvent(tick=0, channel=6, data=[29, 127]),
   midi.NoteOnEvent(tick=0, channel=6, data=[36, 127]),
   midi.NoteOnEvent(tick=131, channel=6, data=[36, 0]),
   midi.NoteOnEvent(tick=0, channel=6, data=[29, 0]),
   midi.NoteOnEvent(tick=1057, channel=6, data=[29, 127]),
   midi.NoteOnEvent(tick=0, channel=6, data=[36, 127]),
   midi.NoteOnEvent(tick=108, channel=6, data=[36, 0]),
   midi.NoteOnEvent(tick=0, channel=6, data=[29, 0]),
   midi.NoteOnEvent(tick=0, channel=6, data=[29, 127]),
   midi.NoteOnEvent(tick=0, channel=6, data=[36, 127]),
   midi.NoteOnEvent(tick=108, channel=6, data=[36, 0]),
   midi.NoteOnEvent(tick=0, channel=6, data=[29, 0]),
   midi.NoteOnEvent(tick=0, channel=6, data=[39, 127]),
   midi.NoteOnEvent(tick=0, channel=6, data=[42, 127]),
   midi.NoteOnEvent(tick=216, channel=6, data=[42, 0]),
   midi.NoteOnEvent(tick=0, channel=6, data=[39, 0]),
   midi.NoteOnEvent(tick=0, channel=6, data=[28, 127]),
   midi.NoteOnEvent(tick=108, channel=6, data=[28, 0]),
   midi.NoteOnEvent(tick=0, channel=6, data=[28, 127]),
   midi.NoteOnEvent(tick=54, channel=6, data=[28, 0]),
   midi.NoteOnEvent(tick=0, channel=6, data=[28, 127]),
   midi.NoteOnEvent(tick=54, channel=6, data=[28, 0]),
   midi.NoteOnEvent(tick=0, channel=6, data=[28, 127]),
   midi.NoteOnEvent(tick=108, channel=6, data=[28, 0]),
   midi.NoteOnEvent(tick=0, channel=6, data=[28, 127]),
   midi.NoteOnEvent(tick=54, channel=6, data=[28, 0]),
   midi.NoteOnEvent(tick=0, channel=6, data=[28, 127]),
   midi.NoteOnEvent(tick=54, channel=6, data=[28, 0]),
   midi.NoteOnEvent(tick=0, channel=6, data=[28, 127]),
   midi.NoteOnEvent(tick=108, channel=6, data=[28, 0]),
   midi.NoteOnEvent(tick=0, channel=6, data=[34, 127]),
   midi.NoteOnEvent(tick=108, channel=6, data=[34, 0]),
   midi.NoteOnEvent(tick=0, channel=6, data=[34, 127]),
   midi.NoteOnEvent(tick=108, channel=6, data=[34, 0]),
   midi.NoteOnEvent(tick=0, channel=6, data=[33, 127]),
   midi.NoteOnEvent(tick=108, channel=6, data=[33, 0]),
   midi.NoteOnEvent(tick=0, channel=6, data=[28, 127]),
   midi.NoteOnEvent(tick=108, channel=6, data=[28, 0]),
   midi.NoteOnEvent(tick=0, channel=6, data=[28, 127]),
   midi.NoteOnEvent(tick=54, channel=6, data=[28, 0]),
   midi.NoteOnEvent(tick=0, channel=6, data=[28, 127]),
   midi.NoteOnEvent(tick=54, channel=6, data=[28, 0]),
   midi.NoteOnEvent(tick=0, channel=6, data=[28, 127]),
   midi.NoteOnEvent(tick=108, channel=6, data=[28, 0]),
   midi.NoteOnEvent(tick=0, channel=6, data=[28, 127]),
   midi.NoteOnEvent(tick=54, channel=6, data=[28, 0]),
   midi.NoteOnEvent(tick=0, channel=6, data=[28, 127]),
   midi.NoteOnEvent(tick=54, channel=6, data=[28, 0]),
   midi.NoteOnEvent(tick=0, channel=6, data=[28, 127]),
   midi.NoteOnEvent(tick=108, channel=6, data=[28, 0]),
   midi.NoteOnEvent(tick=0, channel=6, data=[40, 127]),
   midi.NoteOnEvent(tick=108, channel=6, data=[40, 0]),
   midi.NoteOnEvent(tick=0, channel=6, data=[40, 127]),
   midi.NoteOnEvent(tick=108, channel=6, data=[40, 0]),
   midi.NoteOnEvent(tick=0, channel=6, data=[39, 127]),
   midi.NoteOnEvent(tick=108, channel=6, data=[39, 0]),
   midi.NoteOnEvent(tick=0, channel=6, data=[40, 127]),
   midi.NoteOnEvent(tick=108, channel=6, data=[40, 0]),
   midi.NoteOnEvent(tick=0, channel=6, data=[28, 127]),
   midi.NoteOnEvent(tick=54, channel=6, data=[28, 0]),
   midi.NoteOnEvent(tick=0, channel=6, data=[28, 127]),
   midi.NoteOnEvent(tick=54, channel=6, data=[28, 0]),
   midi.NoteOnEvent(tick=0, channel=6, data=[28, 127]),
   midi.NoteOnEvent(tick=108, channel=6, data=[28, 0]),
   midi.NoteOnEvent(tick=0, channel=6, data=[28, 127]),
   midi.NoteOnEvent(tick=54, channel=6, data=[28, 0]),
   midi.NoteOnEvent(tick=0, channel=6, data=[28, 127]),
   midi.NoteOnEvent(tick=54, channel=6, data=[28, 0]),
   midi.NoteOnEvent(tick=0, channel=6, data=[28, 127]),
   midi.NoteOnEvent(tick=108, channel=6, data=[28, 0]),
   midi.NoteOnEvent(tick=0, channel=6, data=[34, 127]),
   midi.NoteOnEvent(tick=108, channel=6, data=[34, 0]),
   midi.NoteOnEvent(tick=0, channel=6, data=[34, 127]),
   midi.NoteOnEvent(tick=108, channel=6, data=[34, 0]),
   midi.NoteOnEvent(tick=0, channel=6, data=[33, 127]),
   midi.NoteOnEvent(tick=108, channel=6, data=[33, 0]),
   midi.NoteOnEvent(tick=0, channel=6, data=[28, 127]),
   midi.NoteOnEvent(tick=108, channel=6, data=[28, 0]),
   midi.NoteOnEvent(tick=0, channel=6, data=[30, 127]),
   midi.NoteOnEvent(tick=0, channel=6, data=[37, 127]),
   midi.NoteOnEvent(tick=216, channel=6, data=[37, 0]),
   midi.NoteOnEvent(tick=0, channel=6, data=[30, 0]),
   midi.NoteOnEvent(tick=0, channel=6, data=[31, 127]),
   midi.NoteOnEvent(tick=0, channel=6, data=[38, 127]),
   midi.NoteOnEvent(tick=108, channel=6, data=[38, 0]),
   midi.NoteOnEvent(tick=0, channel=6, data=[31, 0]),
   midi.NoteOnEvent(tick=0, channel=6, data=[28, 127]),
   midi.NoteOnEvent(tick=108, channel=6, data=[28, 0]),
   midi.NoteOnEvent(tick=0, channel=6, data=[38, 127]),
   midi.NoteOnEvent(tick=0, channel=6, data=[31, 127]),
   midi.NoteOnEvent(tick=216, channel=6, data=[31, 0]),
   midi.NoteOnEvent(tick=0, channel=6, data=[38, 0]),
   midi.NoteOnEvent(tick=0, channel=6, data=[32, 127]),
   midi.NoteOnEvent(tick=0, channel=6, data=[39, 127]),
   midi.NoteOnEvent(tick=108, channel=6, data=[39, 0]),
   midi.NoteOnEvent(tick=0, channel=6, data=[32, 0]),
   midi.NoteOnEvent(tick=0, channel=6, data=[28, 127]),
   midi.NoteOnEvent(tick=108, channel=6, data=[28, 0]),
   midi.NoteOnEvent(tick=0, channel=6, data=[28, 127]),
   midi.NoteOnEvent(tick=54, channel=6, data=[28, 0]),
   midi.NoteOnEvent(tick=0, channel=6, data=[28, 127]),
   midi.NoteOnEvent(tick=54, channel=6, data=[28, 0]),
   midi.NoteOnEvent(tick=0, channel=6, data=[28, 127]),
   midi.NoteOnEvent(tick=108, channel=6, data=[28, 0]),
   midi.NoteOnEvent(tick=0, channel=6, data=[28, 127]),
   midi.NoteOnEvent(tick=54, channel=6, data=[28, 0]),
   midi.NoteOnEvent(tick=0, channel=6, data=[28, 127]),
   midi.NoteOnEvent(tick=54, channel=6, data=[28, 0]),
   midi.NoteOnEvent(tick=0, channel=6, data=[28, 127]),
   midi.NoteOnEvent(tick=108, channel=6, data=[28, 0]),
   midi.NoteOnEvent(tick=0, channel=6, data=[34, 127]),
   midi.NoteOnEvent(tick=108, channel=6, data=[34, 0]),
   midi.NoteOnEvent(tick=0, channel=6, data=[34, 127]),
   midi.NoteOnEvent(tick=108, channel=6, data=[34, 0]),
   midi.NoteOnEvent(tick=0, channel=6, data=[33, 127]),
   midi.NoteOnEvent(tick=108, channel=6, data=[33, 0]),
   midi.NoteOnEvent(tick=0, channel=6, data=[28, 127]),
   midi.NoteOnEvent(tick=108, channel=6, data=[28, 0]),
   midi.NoteOnEvent(tick=0, channel=6, data=[28, 127]),
   midi.NoteOnEvent(tick=54, channel=6, data=[28, 0]),
   midi.NoteOnEvent(tick=0, channel=6, data=[28, 127]),
   midi.NoteOnEvent(tick=54, channel=6, data=[28, 0]),
   midi.NoteOnEvent(tick=0, channel=6, data=[28, 127]),
   midi.NoteOnEvent(tick=108, channel=6, data=[28, 0]),
   midi.NoteOnEvent(tick=0, channel=6, data=[28, 127]),
   midi.NoteOnEvent(tick=54, channel=6, data=[28, 0]),
   midi.NoteOnEvent(tick=0, channel=6, data=[28, 127]),
   midi.NoteOnEvent(tick=54, channel=6, data=[28, 0]),
   midi.NoteOnEvent(tick=0, channel=6, data=[28, 127]),
   midi.NoteOnEvent(tick=108, channel=6, data=[28, 0]),
   midi.NoteOnEvent(tick=0, channel=6, data=[40, 127]),
   midi.NoteOnEvent(tick=108, channel=6, data=[40, 0]),
   midi.NoteOnEvent(tick=0, channel=6, data=[40, 127]),
   midi.NoteOnEvent(tick=108, channel=6, data=[40, 0]),
   midi.NoteOnEvent(tick=0, channel=6, data=[39, 127]),
   midi.NoteOnEvent(tick=108, channel=6, data=[39, 0]),
   midi.NoteOnEvent(tick=0, channel=6, data=[40, 127]),
   midi.NoteOnEvent(tick=108, channel=6, data=[40, 0]),
   midi.NoteOnEvent(tick=0, channel=6, data=[28, 127]),
   midi.NoteOnEvent(tick=54, channel=6, data=[28, 0]),
   midi.NoteOnEvent(tick=0, channel=6, data=[28, 127]),
   midi.NoteOnEvent(tick=54, channel=6, data=[28, 0]),
   midi.NoteOnEvent(tick=0, channel=6, data=[28, 127]),
   midi.NoteOnEvent(tick=108, channel=6, data=[28, 0]),
   midi.NoteOnEvent(tick=0, channel=6, data=[28, 127]),
   midi.NoteOnEvent(tick=54, channel=6, data=[28, 0]),
   midi.NoteOnEvent(tick=0, channel=6, data=[28, 127]),
   midi.NoteOnEvent(tick=54, channel=6, data=[28, 0]),
   midi.NoteOnEvent(tick=0, channel=6, data=[28, 127]),
   midi.NoteOnEvent(tick=108, channel=6, data=[28, 0]),
   midi.NoteOnEvent(tick=0, channel=6, data=[34, 127]),
   midi.NoteOnEvent(tick=108, channel=6, data=[34, 0]),
   midi.NoteOnEvent(tick=0, channel=6, data=[34, 127]),
   midi.NoteOnEvent(tick=108, channel=6, data=[34, 0]),
   midi.NoteOnEvent(tick=0, channel=6, data=[33, 127]),
   midi.NoteOnEvent(tick=108, channel=6, data=[33, 0]),
   midi.NoteOnEvent(tick=0, channel=6, data=[28, 127]),
   midi.NoteOnEvent(tick=108, channel=6, data=[28, 0]),
   midi.NoteOnEvent(tick=0, channel=6, data=[30, 127]),
   midi.NoteOnEvent(tick=0, channel=6, data=[37, 127]),
   midi.NoteOnEvent(tick=216, channel=6, data=[37, 0]),
   midi.NoteOnEvent(tick=0, channel=6, data=[30, 0]),
   midi.NoteOnEvent(tick=0, channel=6, data=[31, 127]),
   midi.NoteOnEvent(tick=0, channel=6, data=[38, 127]),
   midi.NoteOnEvent(tick=108, channel=6, data=[38, 0]),
   midi.NoteOnEvent(tick=0, channel=6, data=[31, 0]),
   midi.NoteOnEvent(tick=0, channel=6, data=[28, 127]),
   midi.NoteOnEvent(tick=108, channel=6, data=[28, 0]),
   midi.NoteOnEvent(tick=0, channel=6, data=[38, 127]),
   midi.NoteOnEvent(tick=0, channel=6, data=[31, 127]),
   midi.NoteOnEvent(tick=216, channel=6, data=[31, 0]),
   midi.NoteOnEvent(tick=0, channel=6, data=[38, 0]),
   midi.NoteOnEvent(tick=0, channel=6, data=[32, 127]),
   midi.NoteOnEvent(tick=0, channel=6, data=[39, 127]),
   midi.NoteOnEvent(tick=108, channel=6, data=[39, 0]),
   midi.NoteOnEvent(tick=0, channel=6, data=[32, 0]),
   midi.NoteOnEvent(tick=0, channel=6, data=[28, 127]),
   midi.NoteOnEvent(tick=212, channel=6, data=[28, 0]),
   midi.NoteOnEvent(tick=4, channel=6, data=[28, 127]),
   midi.NoteOnEvent(tick=212, channel=6, data=[28, 0]),
   midi.NoteOnEvent(tick=4, channel=6, data=[28, 127]),
   midi.NoteOnEvent(tick=212, channel=6, data=[28, 0]),
   midi.NoteOnEvent(tick=4, channel=6, data=[28, 127]),
   midi.NoteOnEvent(tick=104, channel=6, data=[28, 0]),
   midi.NoteOnEvent(tick=4, channel=6, data=[28, 127]),
   midi.NoteOnEvent(tick=104, channel=6, data=[28, 0]),
   midi.NoteOnEvent(tick=4, channel=6, data=[31, 127]),
   midi.NoteOnEvent(tick=212, channel=6, data=[31, 0]),
   midi.NoteOnEvent(tick=4, channel=6, data=[31, 127]),
   midi.NoteOnEvent(tick=104, channel=6, data=[31, 0]),
   midi.NoteOnEvent(tick=4, channel=6, data=[31, 127]),
   midi.NoteOnEvent(tick=104, channel=6, data=[31, 0]),
   midi.NoteOnEvent(tick=4, channel=6, data=[31, 127]),
   midi.NoteOnEvent(tick=212, channel=6, data=[31, 0]),
   midi.NoteOnEvent(tick=4, channel=6, data=[31, 127]),
   midi.NoteOnEvent(tick=104, channel=6, data=[31, 0]),
   midi.NoteOnEvent(tick=4, channel=6, data=[31, 127]),
   midi.NoteOnEvent(tick=104, channel=6, data=[31, 0]),
   midi.NoteOnEvent(tick=4, channel=6, data=[33, 127]),
   midi.NoteOnEvent(tick=428, channel=6, data=[33, 0]),
   midi.NoteOnEvent(tick=4, channel=6, data=[36, 127]),
   midi.NoteOnEvent(tick=0, channel=6, data=[29, 127]),
   midi.NoteOnEvent(tick=104, channel=6, data=[29, 0]),
   midi.NoteOnEvent(tick=0, channel=6, data=[36, 0]),
   midi.NoteOnEvent(tick=4, channel=6, data=[36, 127]),
   midi.NoteOnEvent(tick=0, channel=6, data=[29, 127]),
   midi.NoteOnEvent(tick=104, channel=6, data=[29, 0]),
   midi.NoteOnEvent(tick=0, channel=6, data=[36, 0]),
   midi.NoteOnEvent(tick=4, channel=6, data=[30, 127]),
   midi.NoteOnEvent(tick=0, channel=6, data=[35, 127]),
   midi.NoteOnEvent(tick=212, channel=6, data=[35, 0]),
   midi.NoteOnEvent(tick=0, channel=6, data=[30, 0]),
   midi.NoteOnEvent(tick=4, channel=6, data=[28, 127]),
   midi.NoteOnEvent(tick=108, channel=6, data=[28, 0]),
   midi.NoteOnEvent(tick=0, channel=6, data=[28, 127]),
   midi.NoteOnEvent(tick=54, channel=6, data=[28, 0]),
   midi.NoteOnEvent(tick=0, channel=6, data=[28, 127]),
   midi.NoteOnEvent(tick=54, channel=6, data=[28, 0]),
   midi.NoteOnEvent(tick=0, channel=6, data=[28, 127]),
   midi.NoteOnEvent(tick=108, channel=6, data=[28, 0]),
   midi.NoteOnEvent(tick=0, channel=6, data=[28, 127]),
   midi.NoteOnEvent(tick=54, channel=6, data=[28, 0]),
   midi.NoteOnEvent(tick=0, channel=6, data=[28, 127]),
   midi.NoteOnEvent(tick=54, channel=6, data=[28, 0]),
   midi.NoteOnEvent(tick=0, channel=6, data=[28, 127]),
   midi.NoteOnEvent(tick=108, channel=6, data=[28, 0]),
   midi.NoteOnEvent(tick=0, channel=6, data=[34, 127]),
   midi.NoteOnEvent(tick=108, channel=6, data=[34, 0]),
   midi.NoteOnEvent(tick=0, channel=6, data=[34, 127]),
   midi.NoteOnEvent(tick=108, channel=6, data=[34, 0]),
   midi.NoteOnEvent(tick=0, channel=6, data=[33, 127]),
   midi.NoteOnEvent(tick=108, channel=6, data=[33, 0]),
   midi.NoteOnEvent(tick=0, channel=6, data=[28, 127]),
   midi.NoteOnEvent(tick=108, channel=6, data=[28, 0]),
   midi.NoteOnEvent(tick=0, channel=6, data=[28, 127]),
   midi.NoteOnEvent(tick=54, channel=6, data=[28, 0]),
   midi.NoteOnEvent(tick=0, channel=6, data=[28, 127]),
   midi.NoteOnEvent(tick=54, channel=6, data=[28, 0]),
   midi.NoteOnEvent(tick=0, channel=6, data=[28, 127]),
   midi.NoteOnEvent(tick=108, channel=6, data=[28, 0]),
   midi.NoteOnEvent(tick=0, channel=6, data=[28, 127]),
   midi.NoteOnEvent(tick=54, channel=6, data=[28, 0]),
   midi.NoteOnEvent(tick=0, channel=6, data=[28, 127]),
   midi.NoteOnEvent(tick=54, channel=6, data=[28, 0]),
   midi.NoteOnEvent(tick=0, channel=6, data=[28, 127]),
   midi.NoteOnEvent(tick=108, channel=6, data=[28, 0]),
   midi.NoteOnEvent(tick=0, channel=6, data=[40, 127]),
   midi.NoteOnEvent(tick=108, channel=6, data=[40, 0]),
   midi.NoteOnEvent(tick=0, channel=6, data=[40, 127]),
   midi.NoteOnEvent(tick=108, channel=6, data=[40, 0]),
   midi.NoteOnEvent(tick=0, channel=6, data=[39, 127]),
   midi.NoteOnEvent(tick=108, channel=6, data=[39, 0]),
   midi.NoteOnEvent(tick=0, channel=6, data=[40, 127]),
   midi.NoteOnEvent(tick=108, channel=6, data=[40, 0]),
   midi.NoteOnEvent(tick=0, channel=6, data=[28, 127]),
   midi.NoteOnEvent(tick=54, channel=6, data=[28, 0]),
   midi.NoteOnEvent(tick=0, channel=6, data=[28, 127]),
   midi.NoteOnEvent(tick=54, channel=6, data=[28, 0]),
   midi.NoteOnEvent(tick=0, channel=6, data=[28, 127]),
   midi.NoteOnEvent(tick=108, channel=6, data=[28, 0]),
   midi.NoteOnEvent(tick=0, channel=6, data=[28, 127]),
   midi.NoteOnEvent(tick=54, channel=6, data=[28, 0]),
   midi.NoteOnEvent(tick=0, channel=6, data=[28, 127]),
   midi.NoteOnEvent(tick=54, channel=6, data=[28, 0]),
   midi.NoteOnEvent(tick=0, channel=6, data=[28, 127]),
   midi.NoteOnEvent(tick=108, channel=6, data=[28, 0]),
   midi.NoteOnEvent(tick=0, channel=6, data=[34, 127]),
   midi.NoteOnEvent(tick=108, channel=6, data=[34, 0]),
   midi.NoteOnEvent(tick=0, channel=6, data=[34, 127]),
   midi.NoteOnEvent(tick=108, channel=6, data=[34, 0]),
   midi.NoteOnEvent(tick=0, channel=6, data=[33, 127]),
   midi.NoteOnEvent(tick=108, channel=6, data=[33, 0]),
   midi.NoteOnEvent(tick=0, channel=6, data=[28, 127]),
   midi.NoteOnEvent(tick=108, channel=6, data=[28, 0]),
   midi.NoteOnEvent(tick=0, channel=6, data=[30, 127]),
   midi.NoteOnEvent(tick=0, channel=6, data=[37, 127]),
   midi.NoteOnEvent(tick=216, channel=6, data=[37, 0]),
   midi.NoteOnEvent(tick=0, channel=6, data=[30, 0]),
   midi.NoteOnEvent(tick=0, channel=6, data=[31, 127]),
   midi.NoteOnEvent(tick=0, channel=6, data=[38, 127]),
   midi.NoteOnEvent(tick=108, channel=6, data=[38, 0]),
   midi.NoteOnEvent(tick=0, channel=6, data=[31, 0]),
   midi.NoteOnEvent(tick=0, channel=6, data=[28, 127]),
   midi.NoteOnEvent(tick=108, channel=6, data=[28, 0]),
   midi.NoteOnEvent(tick=0, channel=6, data=[38, 127]),
   midi.NoteOnEvent(tick=0, channel=6, data=[31, 127]),
   midi.NoteOnEvent(tick=216, channel=6, data=[31, 0]),
   midi.NoteOnEvent(tick=0, channel=6, data=[38, 0]),
   midi.NoteOnEvent(tick=0, channel=6, data=[32, 127]),
   midi.NoteOnEvent(tick=0, channel=6, data=[39, 127]),
   midi.NoteOnEvent(tick=108, channel=6, data=[39, 0]),
   midi.NoteOnEvent(tick=0, channel=6, data=[32, 0]),
   midi.NoteOnEvent(tick=0, channel=6, data=[28, 127]),
   midi.NoteOnEvent(tick=428, channel=6, data=[28, 0]),
   midi.NoteOnEvent(tick=4, channel=6, data=[28, 127]),
   midi.NoteOnEvent(tick=212, channel=6, data=[28, 0]),
   midi.NoteOnEvent(tick=4, channel=6, data=[28, 127]),
   midi.NoteOnEvent(tick=104, channel=6, data=[28, 0]),
   midi.NoteOnEvent(tick=4, channel=6, data=[28, 127]),
   midi.NoteOnEvent(tick=104, channel=6, data=[28, 0]),
   midi.NoteOnEvent(tick=4, channel=6, data=[31, 127]),
   midi.NoteOnEvent(tick=428, channel=6, data=[31, 0]),
   midi.NoteOnEvent(tick=4, channel=6, data=[31, 127]),
   midi.NoteOnEvent(tick=104, channel=6, data=[31, 0]),
   midi.NoteOnEvent(tick=4, channel=6, data=[31, 127]),
   midi.NoteOnEvent(tick=104, channel=6, data=[31, 0]),
   midi.NoteOnEvent(tick=4, channel=6, data=[31, 127]),
   midi.NoteOnEvent(tick=104, channel=6, data=[31, 0]),
   midi.NoteOnEvent(tick=4, channel=6, data=[31, 127]),
   midi.NoteOnEvent(tick=104, channel=6, data=[31, 0]),
   midi.NoteOnEvent(tick=4, channel=6, data=[33, 127]),
   midi.NoteOnEvent(tick=428, channel=6, data=[33, 0]),
   midi.NoteOnEvent(tick=4, channel=6, data=[36, 127]),
   midi.NoteOnEvent(tick=0, channel=6, data=[29, 127]),
   midi.NoteOnEvent(tick=104, channel=6, data=[29, 0]),
   midi.NoteOnEvent(tick=0, channel=6, data=[36, 0]),
   midi.NoteOnEvent(tick=4, channel=6, data=[36, 127]),
   midi.NoteOnEvent(tick=0, channel=6, data=[29, 127]),
   midi.NoteOnEvent(tick=104, channel=6, data=[29, 0]),
   midi.NoteOnEvent(tick=0, channel=6, data=[36, 0]),
   midi.NoteOnEvent(tick=4, channel=6, data=[30, 127]),
   midi.NoteOnEvent(tick=0, channel=6, data=[35, 127]),
   midi.NoteOnEvent(tick=212, channel=6, data=[35, 0]),
   midi.NoteOnEvent(tick=0, channel=6, data=[30, 0]),
   midi.NoteOnEvent(tick=4, channel=6, data=[28, 127]),
   midi.NoteOnEvent(tick=108, channel=6, data=[28, 0]),
   midi.NoteOnEvent(tick=0, channel=6, data=[28, 127]),
   midi.NoteOnEvent(tick=54, channel=6, data=[28, 0]),
   midi.NoteOnEvent(tick=0, channel=6, data=[28, 127]),
   midi.NoteOnEvent(tick=54, channel=6, data=[28, 0]),
   midi.NoteOnEvent(tick=0, channel=6, data=[28, 127]),
   midi.NoteOnEvent(tick=108, channel=6, data=[28, 0]),
   midi.NoteOnEvent(tick=0, channel=6, data=[28, 127]),
   midi.NoteOnEvent(tick=54, channel=6, data=[28, 0]),
   midi.NoteOnEvent(tick=0, channel=6, data=[28, 127]),
   midi.NoteOnEvent(tick=54, channel=6, data=[28, 0]),
   midi.NoteOnEvent(tick=0, channel=6, data=[28, 127]),
   midi.NoteOnEvent(tick=108, channel=6, data=[28, 0]),
   midi.NoteOnEvent(tick=0, channel=6, data=[34, 127]),
   midi.NoteOnEvent(tick=108, channel=6, data=[34, 0]),
   midi.NoteOnEvent(tick=0, channel=6, data=[34, 127]),
   midi.NoteOnEvent(tick=108, channel=6, data=[34, 0]),
   midi.NoteOnEvent(tick=0, channel=6, data=[33, 127]),
   midi.NoteOnEvent(tick=108, channel=6, data=[33, 0]),
   midi.NoteOnEvent(tick=0, channel=6, data=[28, 127]),
   midi.NoteOnEvent(tick=108, channel=6, data=[28, 0]),
   midi.NoteOnEvent(tick=0, channel=6, data=[28, 127]),
   midi.NoteOnEvent(tick=54, channel=6, data=[28, 0]),
   midi.NoteOnEvent(tick=0, channel=6, data=[28, 127]),
   midi.NoteOnEvent(tick=54, channel=6, data=[28, 0]),
   midi.NoteOnEvent(tick=0, channel=6, data=[28, 127]),
   midi.NoteOnEvent(tick=108, channel=6, data=[28, 0]),
   midi.NoteOnEvent(tick=0, channel=6, data=[28, 127]),
   midi.NoteOnEvent(tick=54, channel=6, data=[28, 0]),
   midi.NoteOnEvent(tick=0, channel=6, data=[28, 127]),
   midi.NoteOnEvent(tick=54, channel=6, data=[28, 0]),
   midi.NoteOnEvent(tick=0, channel=6, data=[28, 127]),
   midi.NoteOnEvent(tick=108, channel=6, data=[28, 0]),
   midi.NoteOnEvent(tick=0, channel=6, data=[40, 127]),
   midi.NoteOnEvent(tick=108, channel=6, data=[40, 0]),
   midi.NoteOnEvent(tick=0, channel=6, data=[40, 127]),
   midi.NoteOnEvent(tick=108, channel=6, data=[40, 0]),
   midi.NoteOnEvent(tick=0, channel=6, data=[39, 127]),
   midi.NoteOnEvent(tick=108, channel=6, data=[39, 0]),
   midi.NoteOnEvent(tick=0, channel=6, data=[28, 127]),
   midi.NoteOnEvent(tick=428, channel=6, data=[28, 0]),
   midi.NoteOnEvent(tick=4, channel=6, data=[35, 127]),
   midi.NoteOnEvent(tick=428, channel=6, data=[35, 0]),
   midi.NoteOnEvent(tick=4, channel=6, data=[31, 127]),
   midi.NoteOnEvent(tick=428, channel=6, data=[31, 0]),
   midi.NoteOnEvent(tick=4, channel=6, data=[28, 127]),
   midi.NoteOnEvent(tick=212, channel=6, data=[28, 0]),
   midi.NoteOnEvent(tick=4, channel=6, data=[39, 127]),
   midi.NoteOnEvent(tick=0, channel=6, data=[35, 127]),
   midi.NoteOnEvent(tick=212, channel=6, data=[35, 0]),
   midi.NoteOnEvent(tick=0, channel=6, data=[39, 0]),
   midi.NoteOnEvent(tick=4, channel=6, data=[28, 127]),
   midi.NoteOnEvent(tick=108, channel=6, data=[28, 0]),
   midi.NoteOnEvent(tick=0, channel=6, data=[28, 127]),
   midi.NoteOnEvent(tick=54, channel=6, data=[28, 0]),
   midi.NoteOnEvent(tick=0, channel=6, data=[28, 127]),
   midi.NoteOnEvent(tick=54, channel=6, data=[28, 0]),
   midi.NoteOnEvent(tick=0, channel=6, data=[28, 127]),
   midi.NoteOnEvent(tick=108, channel=6, data=[28, 0]),
   midi.NoteOnEvent(tick=0, channel=6, data=[28, 127]),
   midi.NoteOnEvent(tick=54, channel=6, data=[28, 0]),
   midi.NoteOnEvent(tick=0, channel=6, data=[28, 127]),
   midi.NoteOnEvent(tick=54, channel=6, data=[28, 0]),
   midi.NoteOnEvent(tick=0, channel=6, data=[28, 127]),
   midi.NoteOnEvent(tick=108, channel=6, data=[28, 0]),
   midi.NoteOnEvent(tick=0, channel=6, data=[34, 127]),
   midi.NoteOnEvent(tick=108, channel=6, data=[34, 0]),
   midi.NoteOnEvent(tick=0, channel=6, data=[34, 127]),
   midi.NoteOnEvent(tick=108, channel=6, data=[34, 0]),
   midi.NoteOnEvent(tick=0, channel=6, data=[33, 127]),
   midi.NoteOnEvent(tick=108, channel=6, data=[33, 0]),
   midi.NoteOnEvent(tick=0, channel=6, data=[28, 127]),
   midi.NoteOnEvent(tick=108, channel=6, data=[28, 0]),
   midi.NoteOnEvent(tick=0, channel=6, data=[28, 127]),
   midi.NoteOnEvent(tick=54, channel=6, data=[28, 0]),
   midi.NoteOnEvent(tick=0, channel=6, data=[28, 127]),
   midi.NoteOnEvent(tick=54, channel=6, data=[28, 0]),
   midi.NoteOnEvent(tick=0, channel=6, data=[28, 127]),
   midi.NoteOnEvent(tick=108, channel=6, data=[28, 0]),
   midi.NoteOnEvent(tick=0, channel=6, data=[28, 127]),
   midi.NoteOnEvent(tick=54, channel=6, data=[28, 0]),
   midi.NoteOnEvent(tick=0, channel=6, data=[28, 127]),
   midi.NoteOnEvent(tick=54, channel=6, data=[28, 0]),
   midi.NoteOnEvent(tick=0, channel=6, data=[28, 127]),
   midi.NoteOnEvent(tick=108, channel=6, data=[28, 0]),
   midi.NoteOnEvent(tick=0, channel=6, data=[40, 127]),
   midi.NoteOnEvent(tick=108, channel=6, data=[40, 0]),
   midi.NoteOnEvent(tick=0, channel=6, data=[40, 127]),
   midi.NoteOnEvent(tick=108, channel=6, data=[40, 0]),
   midi.NoteOnEvent(tick=0, channel=6, data=[39, 127]),
   midi.NoteOnEvent(tick=108, channel=6, data=[39, 0]),
   midi.NoteOnEvent(tick=0, channel=6, data=[40, 127]),
   midi.NoteOnEvent(tick=108, channel=6, data=[40, 0]),
   midi.NoteOnEvent(tick=0, channel=6, data=[28, 127]),
   midi.NoteOnEvent(tick=54, channel=6, data=[28, 0]),
   midi.NoteOnEvent(tick=0, channel=6, data=[28, 127]),
   midi.NoteOnEvent(tick=54, channel=6, data=[28, 0]),
   midi.NoteOnEvent(tick=0, channel=6, data=[28, 127]),
   midi.NoteOnEvent(tick=108, channel=6, data=[28, 0]),
   midi.NoteOnEvent(tick=0, channel=6, data=[28, 127]),
   midi.NoteOnEvent(tick=54, channel=6, data=[28, 0]),
   midi.NoteOnEvent(tick=0, channel=6, data=[28, 127]),
   midi.NoteOnEvent(tick=54, channel=6, data=[28, 0]),
   midi.NoteOnEvent(tick=0, channel=6, data=[28, 127]),
   midi.NoteOnEvent(tick=108, channel=6, data=[28, 0]),
   midi.NoteOnEvent(tick=0, channel=6, data=[34, 127]),
   midi.NoteOnEvent(tick=108, channel=6, data=[34, 0]),
   midi.NoteOnEvent(tick=0, channel=6, data=[34, 127]),
   midi.NoteOnEvent(tick=108, channel=6, data=[34, 0]),
   midi.NoteOnEvent(tick=0, channel=6, data=[33, 127]),
   midi.NoteOnEvent(tick=108, channel=6, data=[33, 0]),
   midi.NoteOnEvent(tick=0, channel=6, data=[34, 127]),
   midi.NoteOnEvent(tick=104, channel=6, data=[34, 0]),
   midi.NoteOnEvent(tick=4, channel=6, data=[29, 127]),
   midi.NoteOnEvent(tick=104, channel=6, data=[29, 0]),
   midi.NoteOnEvent(tick=4, channel=6, data=[28, 127]),
   midi.NoteOnEvent(tick=108, channel=6, data=[28, 0]),
   midi.NoteOnEvent(tick=0, channel=6, data=[28, 127]),
   midi.NoteOnEvent(tick=54, channel=6, data=[28, 0]),
   midi.NoteOnEvent(tick=0, channel=6, data=[28, 127]),
   midi.NoteOnEvent(tick=54, channel=6, data=[28, 0]),
   midi.NoteOnEvent(tick=0, channel=6, data=[28, 127]),
   midi.NoteOnEvent(tick=108, channel=6, data=[28, 0]),
   midi.NoteOnEvent(tick=0, channel=6, data=[28, 127]),
   midi.NoteOnEvent(tick=54, channel=6, data=[28, 0]),
   midi.NoteOnEvent(tick=0, channel=6, data=[28, 127]),
   midi.NoteOnEvent(tick=54, channel=6, data=[28, 0]),
   midi.NoteOnEvent(tick=0, channel=6, data=[28, 127]),
   midi.NoteOnEvent(tick=108, channel=6, data=[28, 0]),
   midi.NoteOnEvent(tick=0, channel=6, data=[34, 127]),
   midi.NoteOnEvent(tick=108, channel=6, data=[34, 0]),
   midi.NoteOnEvent(tick=0, channel=6, data=[34, 127]),
   midi.NoteOnEvent(tick=108, channel=6, data=[34, 0]),
   midi.NoteOnEvent(tick=0, channel=6, data=[33, 127]),
   midi.NoteOnEvent(tick=108, channel=6, data=[33, 0]),
   midi.NoteOnEvent(tick=0, channel=6, data=[28, 127]),
   midi.NoteOnEvent(tick=108, channel=6, data=[28, 0]),
   midi.NoteOnEvent(tick=0, channel=6, data=[28, 127]),
   midi.NoteOnEvent(tick=54, channel=6, data=[28, 0]),
   midi.NoteOnEvent(tick=0, channel=6, data=[28, 127]),
   midi.NoteOnEvent(tick=54, channel=6, data=[28, 0]),
   midi.NoteOnEvent(tick=0, channel=6, data=[28, 127]),
   midi.NoteOnEvent(tick=108, channel=6, data=[28, 0]),
   midi.NoteOnEvent(tick=0, channel=6, data=[28, 127]),
   midi.NoteOnEvent(tick=54, channel=6, data=[28, 0]),
   midi.NoteOnEvent(tick=0, channel=6, data=[28, 127]),
   midi.NoteOnEvent(tick=54, channel=6, data=[28, 0]),
   midi.NoteOnEvent(tick=0, channel=6, data=[28, 127]),
   midi.NoteOnEvent(tick=108, channel=6, data=[28, 0]),
   midi.NoteOnEvent(tick=0, channel=6, data=[40, 127]),
   midi.NoteOnEvent(tick=108, channel=6, data=[40, 0]),
   midi.NoteOnEvent(tick=0, channel=6, data=[40, 127]),
   midi.NoteOnEvent(tick=108, channel=6, data=[40, 0]),
   midi.NoteOnEvent(tick=0, channel=6, data=[39, 127]),
   midi.NoteOnEvent(tick=108, channel=6, data=[39, 0]),
   midi.NoteOnEvent(tick=0, channel=6, data=[40, 127]),
   midi.NoteOnEvent(tick=108, channel=6, data=[40, 0]),
   midi.NoteOnEvent(tick=0, channel=6, data=[28, 127]),
   midi.NoteOnEvent(tick=54, channel=6, data=[28, 0]),
   midi.NoteOnEvent(tick=0, channel=6, data=[28, 127]),
   midi.NoteOnEvent(tick=54, channel=6, data=[28, 0]),
   midi.NoteOnEvent(tick=0, channel=6, data=[28, 127]),
   midi.NoteOnEvent(tick=108, channel=6, data=[28, 0]),
   midi.NoteOnEvent(tick=0, channel=6, data=[28, 127]),
   midi.NoteOnEvent(tick=54, channel=6, data=[28, 0]),
   midi.NoteOnEvent(tick=0, channel=6, data=[28, 127]),
   midi.NoteOnEvent(tick=54, channel=6, data=[28, 0]),
   midi.NoteOnEvent(tick=0, channel=6, data=[28, 127]),
   midi.NoteOnEvent(tick=108, channel=6, data=[28, 0]),
   midi.NoteOnEvent(tick=0, channel=6, data=[34, 127]),
   midi.NoteOnEvent(tick=108, channel=6, data=[34, 0]),
   midi.NoteOnEvent(tick=0, channel=6, data=[34, 127]),
   midi.NoteOnEvent(tick=108, channel=6, data=[34, 0]),
   midi.NoteOnEvent(tick=0, channel=6, data=[33, 127]),
   midi.NoteOnEvent(tick=108, channel=6, data=[33, 0]),
   midi.NoteOnEvent(tick=0, channel=6, data=[34, 127]),
   midi.NoteOnEvent(tick=216, channel=6, data=[34, 0]),
   midi.NoteOnEvent(tick=0, channel=6, data=[29, 127]),
   midi.NoteOnEvent(tick=216, channel=6, data=[29, 0]),
   midi.NoteOnEvent(tick=0, channel=6, data=[28, 127]),
   midi.NoteOnEvent(tick=108, channel=6, data=[28, 0]),
   midi.NoteOnEvent(tick=0, channel=6, data=[28, 127]),
   midi.NoteOnEvent(tick=54, channel=6, data=[28, 0]),
   midi.NoteOnEvent(tick=0, channel=6, data=[28, 127]),
   midi.NoteOnEvent(tick=54, channel=6, data=[28, 0]),
   midi.NoteOnEvent(tick=0, channel=6, data=[28, 127]),
   midi.NoteOnEvent(tick=108, channel=6, data=[28, 0]),
   midi.NoteOnEvent(tick=0, channel=6, data=[28, 127]),
   midi.NoteOnEvent(tick=54, channel=6, data=[28, 0]),
   midi.NoteOnEvent(tick=0, channel=6, data=[28, 127]),
   midi.NoteOnEvent(tick=54, channel=6, data=[28, 0]),
   midi.NoteOnEvent(tick=0, channel=6, data=[28, 127]),
   midi.NoteOnEvent(tick=108, channel=6, data=[28, 0]),
   midi.NoteOnEvent(tick=0, channel=6, data=[34, 127]),
   midi.NoteOnEvent(tick=108, channel=6, data=[34, 0]),
   midi.NoteOnEvent(tick=0, channel=6, data=[34, 127]),
   midi.NoteOnEvent(tick=108, channel=6, data=[34, 0]),
   midi.NoteOnEvent(tick=0, channel=6, data=[33, 127]),
   midi.NoteOnEvent(tick=108, channel=6, data=[33, 0]),
   midi.NoteOnEvent(tick=0, channel=6, data=[28, 127]),
   midi.NoteOnEvent(tick=108, channel=6, data=[28, 0]),
   midi.NoteOnEvent(tick=0, channel=6, data=[28, 127]),
   midi.NoteOnEvent(tick=54, channel=6, data=[28, 0]),
   midi.NoteOnEvent(tick=0, channel=6, data=[28, 127]),
   midi.NoteOnEvent(tick=54, channel=6, data=[28, 0]),
   midi.NoteOnEvent(tick=0, channel=6, data=[28, 127]),
   midi.NoteOnEvent(tick=108, channel=6, data=[28, 0]),
   midi.NoteOnEvent(tick=0, channel=6, data=[28, 127]),
   midi.NoteOnEvent(tick=54, channel=6, data=[28, 0]),
   midi.NoteOnEvent(tick=0, channel=6, data=[28, 127]),
   midi.NoteOnEvent(tick=54, channel=6, data=[28, 0]),
   midi.NoteOnEvent(tick=0, channel=6, data=[28, 127]),
   midi.NoteOnEvent(tick=108, channel=6, data=[28, 0]),
   midi.NoteOnEvent(tick=0, channel=6, data=[40, 127]),
   midi.NoteOnEvent(tick=108, channel=6, data=[40, 0]),
   midi.NoteOnEvent(tick=0, channel=6, data=[40, 127]),
   midi.NoteOnEvent(tick=108, channel=6, data=[40, 0]),
   midi.NoteOnEvent(tick=0, channel=6, data=[39, 127]),
   midi.NoteOnEvent(tick=108, channel=6, data=[39, 0]),
   midi.NoteOnEvent(tick=0, channel=6, data=[40, 127]),
   midi.NoteOnEvent(tick=108, channel=6, data=[40, 0]),
   midi.NoteOnEvent(tick=0, channel=6, data=[28, 127]),
   midi.NoteOnEvent(tick=54, channel=6, data=[28, 0]),
   midi.NoteOnEvent(tick=0, channel=6, data=[28, 127]),
   midi.NoteOnEvent(tick=54, channel=6, data=[28, 0]),
   midi.NoteOnEvent(tick=0, channel=6, data=[28, 127]),
   midi.NoteOnEvent(tick=108, channel=6, data=[28, 0]),
   midi.NoteOnEvent(tick=0, channel=6, data=[28, 127]),
   midi.NoteOnEvent(tick=54, channel=6, data=[28, 0]),
   midi.NoteOnEvent(tick=0, channel=6, data=[28, 127]),
   midi.NoteOnEvent(tick=54, channel=6, data=[28, 0]),
   midi.NoteOnEvent(tick=0, channel=6, data=[28, 127]),
   midi.NoteOnEvent(tick=108, channel=6, data=[28, 0]),
   midi.NoteOnEvent(tick=0, channel=6, data=[34, 127]),
   midi.NoteOnEvent(tick=108, channel=6, data=[34, 0]),
   midi.NoteOnEvent(tick=0, channel=6, data=[34, 127]),
   midi.NoteOnEvent(tick=108, channel=6, data=[34, 0]),
   midi.NoteOnEvent(tick=0, channel=6, data=[33, 127]),
   midi.NoteOnEvent(tick=108, channel=6, data=[33, 0]),
   midi.NoteOnEvent(tick=0, channel=6, data=[34, 127]),
   midi.NoteOnEvent(tick=104, channel=6, data=[34, 0]),
   midi.NoteOnEvent(tick=4, channel=6, data=[29, 127]),
   midi.NoteOnEvent(tick=104, channel=6, data=[29, 0]),
   midi.NoteOnEvent(tick=4, channel=6, data=[28, 127]),
   midi.NoteOnEvent(tick=108, channel=6, data=[28, 0]),
   midi.NoteOnEvent(tick=0, channel=6, data=[28, 127]),
   midi.NoteOnEvent(tick=54, channel=6, data=[28, 0]),
   midi.NoteOnEvent(tick=0, channel=6, data=[28, 127]),
   midi.NoteOnEvent(tick=54, channel=6, data=[28, 0]),
   midi.NoteOnEvent(tick=0, channel=6, data=[28, 127]),
   midi.NoteOnEvent(tick=108, channel=6, data=[28, 0]),
   midi.NoteOnEvent(tick=0, channel=6, data=[28, 127]),
   midi.NoteOnEvent(tick=54, channel=6, data=[28, 0]),
   midi.NoteOnEvent(tick=0, channel=6, data=[28, 127]),
   midi.NoteOnEvent(tick=54, channel=6, data=[28, 0]),
   midi.NoteOnEvent(tick=0, channel=6, data=[28, 127]),
   midi.NoteOnEvent(tick=108, channel=6, data=[28, 0]),
   midi.NoteOnEvent(tick=0, channel=6, data=[34, 127]),
   midi.NoteOnEvent(tick=108, channel=6, data=[34, 0]),
   midi.NoteOnEvent(tick=0, channel=6, data=[34, 127]),
   midi.NoteOnEvent(tick=108, channel=6, data=[34, 0]),
   midi.NoteOnEvent(tick=0, channel=6, data=[33, 127]),
   midi.NoteOnEvent(tick=108, channel=6, data=[33, 0]),
   midi.NoteOnEvent(tick=0, channel=6, data=[28, 127]),
   midi.NoteOnEvent(tick=108, channel=6, data=[28, 0]),
   midi.NoteOnEvent(tick=0, channel=6, data=[28, 127]),
   midi.NoteOnEvent(tick=54, channel=6, data=[28, 0]),
   midi.NoteOnEvent(tick=0, channel=6, data=[28, 127]),
   midi.NoteOnEvent(tick=54, channel=6, data=[28, 0]),
   midi.NoteOnEvent(tick=0, channel=6, data=[28, 127]),
   midi.NoteOnEvent(tick=108, channel=6, data=[28, 0]),
   midi.NoteOnEvent(tick=0, channel=6, data=[28, 127]),
   midi.NoteOnEvent(tick=54, channel=6, data=[28, 0]),
   midi.NoteOnEvent(tick=0, channel=6, data=[28, 127]),
   midi.NoteOnEvent(tick=54, channel=6, data=[28, 0]),
   midi.NoteOnEvent(tick=0, channel=6, data=[28, 127]),
   midi.NoteOnEvent(tick=108, channel=6, data=[28, 0]),
   midi.NoteOnEvent(tick=0, channel=6, data=[40, 127]),
   midi.NoteOnEvent(tick=108, channel=6, data=[40, 0]),
   midi.NoteOnEvent(tick=0, channel=6, data=[40, 127]),
   midi.NoteOnEvent(tick=108, channel=6, data=[40, 0]),
   midi.NoteOnEvent(tick=0, channel=6, data=[39, 127]),
   midi.NoteOnEvent(tick=108, channel=6, data=[39, 0]),
   midi.NoteOnEvent(tick=0, channel=6, data=[40, 127]),
   midi.NoteOnEvent(tick=108, channel=6, data=[40, 0]),
   midi.NoteOnEvent(tick=0, channel=6, data=[28, 127]),
   midi.NoteOnEvent(tick=54, channel=6, data=[28, 0]),
   midi.NoteOnEvent(tick=0, channel=6, data=[28, 127]),
   midi.NoteOnEvent(tick=54, channel=6, data=[28, 0]),
   midi.NoteOnEvent(tick=0, channel=6, data=[28, 127]),
   midi.NoteOnEvent(tick=108, channel=6, data=[28, 0]),
   midi.NoteOnEvent(tick=0, channel=6, data=[28, 127]),
   midi.NoteOnEvent(tick=54, channel=6, data=[28, 0]),
   midi.NoteOnEvent(tick=0, channel=6, data=[28, 127]),
   midi.NoteOnEvent(tick=54, channel=6, data=[28, 0]),
   midi.NoteOnEvent(tick=0, channel=6, data=[28, 127]),
   midi.NoteOnEvent(tick=108, channel=6, data=[28, 0]),
   midi.NoteOnEvent(tick=0, channel=6, data=[34, 127]),
   midi.NoteOnEvent(tick=108, channel=6, data=[34, 0]),
   midi.NoteOnEvent(tick=0, channel=6, data=[34, 127]),
   midi.NoteOnEvent(tick=108, channel=6, data=[34, 0]),
   midi.NoteOnEvent(tick=0, channel=6, data=[33, 127]),
   midi.NoteOnEvent(tick=108, channel=6, data=[33, 0]),
   midi.NoteOnEvent(tick=0, channel=6, data=[34, 127]),
   midi.NoteOnEvent(tick=212, channel=6, data=[34, 0]),
   midi.NoteOnEvent(tick=4, channel=6, data=[29, 127]),
   midi.NoteOnEvent(tick=212, channel=6, data=[29, 0]),
   midi.NoteOnEvent(tick=4, channel=6, data=[28, 127]),
   midi.NoteOnEvent(tick=212, channel=6, data=[28, 0]),
   midi.NoteOnEvent(tick=220, channel=6, data=[29, 127]),
   midi.NoteOnEvent(tick=108, channel=6, data=[29, 0]),
   midi.NoteOnEvent(tick=0, channel=6, data=[29, 127]),
   midi.NoteOnEvent(tick=108, channel=6, data=[29, 0]),
   midi.NoteOnEvent(tick=0, channel=6, data=[34, 127]),
   midi.NoteOnEvent(tick=108, channel=6, data=[34, 0]),
   midi.NoteOnEvent(tick=0, channel=6, data=[29, 127]),
   midi.NoteOnEvent(tick=108, channel=6, data=[29, 0]),
   midi.NoteOnEvent(tick=0, channel=6, data=[35, 127]),
   midi.NoteOnEvent(tick=108, channel=6, data=[35, 0]),
   midi.NoteOnEvent(tick=0, channel=6, data=[29, 127]),
   midi.NoteOnEvent(tick=108, channel=6, data=[29, 0]),
   midi.NoteOnEvent(tick=0, channel=6, data=[34, 127]),
   midi.NoteOnEvent(tick=108, channel=6, data=[34, 0]),
   midi.NoteOnEvent(tick=0, channel=6, data=[29, 127]),
   midi.NoteOnEvent(tick=108, channel=6, data=[29, 0]),
   midi.NoteOnEvent(tick=0, channel=6, data=[35, 127]),
   midi.NoteOnEvent(tick=0, channel=6, data=[42, 127]),
   midi.NoteOnEvent(tick=108, channel=6, data=[42, 0]),
   midi.NoteOnEvent(tick=0, channel=6, data=[35, 0]),
   midi.NoteOnEvent(tick=0, channel=6, data=[29, 127]),
   midi.NoteOnEvent(tick=108, channel=6, data=[29, 0]),
   midi.NoteOnEvent(tick=0, channel=6, data=[34, 127]),
   midi.NoteOnEvent(tick=0, channel=6, data=[41, 127]),
   midi.NoteOnEvent(tick=108, channel=6, data=[41, 0]),
   midi.NoteOnEvent(tick=0, channel=6, data=[34, 0]),
   midi.NoteOnEvent(tick=0, channel=6, data=[29, 127]),
   midi.NoteOnEvent(tick=108, channel=6, data=[29, 0]),
   midi.NoteOnEvent(tick=0, channel=6, data=[35, 127]),
   midi.NoteOnEvent(tick=0, channel=6, data=[42, 127]),
   midi.NoteOnEvent(tick=108, channel=6, data=[42, 0]),
   midi.NoteOnEvent(tick=0, channel=6, data=[35, 0]),
   midi.NoteOnEvent(tick=0, channel=6, data=[29, 127]),
   midi.NoteOnEvent(tick=108, channel=6, data=[29, 0]),
   midi.NoteOnEvent(tick=0, channel=6, data=[37, 127]),
   midi.NoteOnEvent(tick=0, channel=6, data=[30, 127]),
   midi.NoteOnEvent(tick=216, channel=6, data=[30, 0]),
   midi.NoteOnEvent(tick=0, channel=6, data=[37, 0]),
   midi.NoteOnEvent(tick=0, channel=6, data=[29, 127]),
   midi.NoteOnEvent(tick=108, channel=6, data=[29, 0]),
   midi.NoteOnEvent(tick=0, channel=6, data=[29, 127]),
   midi.NoteOnEvent(tick=108, channel=6, data=[29, 0]),
   midi.NoteOnEvent(tick=0, channel=6, data=[34, 127]),
   midi.NoteOnEvent(tick=108, channel=6, data=[34, 0]),
   midi.NoteOnEvent(tick=0, channel=6, data=[29, 127]),
   midi.NoteOnEvent(tick=108, channel=6, data=[29, 0]),
   midi.NoteOnEvent(tick=0, channel=6, data=[35, 127]),
   midi.NoteOnEvent(tick=108, channel=6, data=[35, 0]),
   midi.NoteOnEvent(tick=0, channel=6, data=[29, 127]),
   midi.NoteOnEvent(tick=108, channel=6, data=[29, 0]),
   midi.NoteOnEvent(tick=0, channel=6, data=[34, 127]),
   midi.NoteOnEvent(tick=108, channel=6, data=[34, 0]),
   midi.NoteOnEvent(tick=0, channel=6, data=[29, 127]),
   midi.NoteOnEvent(tick=108, channel=6, data=[29, 0]),
   midi.NoteOnEvent(tick=0, channel=6, data=[35, 127]),
   midi.NoteOnEvent(tick=0, channel=6, data=[42, 127]),
   midi.NoteOnEvent(tick=108, channel=6, data=[42, 0]),
   midi.NoteOnEvent(tick=0, channel=6, data=[35, 0]),
   midi.NoteOnEvent(tick=0, channel=6, data=[29, 127]),
   midi.NoteOnEvent(tick=108, channel=6, data=[29, 0]),
   midi.NoteOnEvent(tick=0, channel=6, data=[34, 127]),
   midi.NoteOnEvent(tick=0, channel=6, data=[41, 127]),
   midi.NoteOnEvent(tick=108, channel=6, data=[41, 0]),
   midi.NoteOnEvent(tick=0, channel=6, data=[34, 0]),
   midi.NoteOnEvent(tick=0, channel=6, data=[29, 127]),
   midi.NoteOnEvent(tick=108, channel=6, data=[29, 0]),
   midi.NoteOnEvent(tick=0, channel=6, data=[35, 127]),
   midi.NoteOnEvent(tick=0, channel=6, data=[42, 127]),
   midi.NoteOnEvent(tick=108, channel=6, data=[42, 0]),
   midi.NoteOnEvent(tick=0, channel=6, data=[35, 0]),
   midi.NoteOnEvent(tick=0, channel=6, data=[29, 127]),
   midi.NoteOnEvent(tick=108, channel=6, data=[29, 0]),
   midi.NoteOnEvent(tick=0, channel=6, data=[37, 127]),
   midi.NoteOnEvent(tick=0, channel=6, data=[30, 127]),
   midi.NoteOnEvent(tick=216, channel=6, data=[30, 0]),
   midi.NoteOnEvent(tick=0, channel=6, data=[37, 0]),
   midi.NoteOnEvent(tick=0, channel=6, data=[29, 127]),
   midi.NoteOnEvent(tick=108, channel=6, data=[29, 0]),
   midi.NoteOnEvent(tick=0, channel=6, data=[29, 127]),
   midi.NoteOnEvent(tick=108, channel=6, data=[29, 0]),
   midi.NoteOnEvent(tick=0, channel=6, data=[34, 127]),
   midi.NoteOnEvent(tick=108, channel=6, data=[34, 0]),
   midi.NoteOnEvent(tick=0, channel=6, data=[29, 127]),
   midi.NoteOnEvent(tick=108, channel=6, data=[29, 0]),
   midi.NoteOnEvent(tick=0, channel=6, data=[35, 127]),
   midi.NoteOnEvent(tick=108, channel=6, data=[35, 0]),
   midi.NoteOnEvent(tick=0, channel=6, data=[29, 127]),
   midi.NoteOnEvent(tick=108, channel=6, data=[29, 0]),
   midi.NoteOnEvent(tick=0, channel=6, data=[34, 127]),
   midi.NoteOnEvent(tick=108, channel=6, data=[34, 0]),
   midi.NoteOnEvent(tick=0, channel=6, data=[29, 127]),
   midi.NoteOnEvent(tick=108, channel=6, data=[29, 0]),
   midi.NoteOnEvent(tick=0, channel=6, data=[35, 127]),
   midi.NoteOnEvent(tick=0, channel=6, data=[42, 127]),
   midi.NoteOnEvent(tick=108, channel=6, data=[42, 0]),
   midi.NoteOnEvent(tick=0, channel=6, data=[35, 0]),
   midi.NoteOnEvent(tick=0, channel=6, data=[29, 127]),
   midi.NoteOnEvent(tick=108, channel=6, data=[29, 0]),
   midi.NoteOnEvent(tick=0, channel=6, data=[34, 127]),
   midi.NoteOnEvent(tick=0, channel=6, data=[41, 127]),
   midi.NoteOnEvent(tick=108, channel=6, data=[41, 0]),
   midi.NoteOnEvent(tick=0, channel=6, data=[34, 0]),
   midi.NoteOnEvent(tick=0, channel=6, data=[29, 127]),
   midi.NoteOnEvent(tick=108, channel=6, data=[29, 0]),
   midi.NoteOnEvent(tick=0, channel=6, data=[35, 127]),
   midi.NoteOnEvent(tick=0, channel=6, data=[42, 127]),
   midi.NoteOnEvent(tick=108, channel=6, data=[42, 0]),
   midi.NoteOnEvent(tick=0, channel=6, data=[35, 0]),
   midi.NoteOnEvent(tick=0, channel=6, data=[29, 127]),
   midi.NoteOnEvent(tick=108, channel=6, data=[29, 0]),
   midi.NoteOnEvent(tick=0, channel=6, data=[37, 127]),
   midi.NoteOnEvent(tick=0, channel=6, data=[30, 127]),
   midi.NoteOnEvent(tick=216, channel=6, data=[30, 0]),
   midi.NoteOnEvent(tick=0, channel=6, data=[37, 0]),
   midi.NoteOnEvent(tick=0, channel=6, data=[29, 127]),
   midi.NoteOnEvent(tick=108, channel=6, data=[29, 0]),
   midi.NoteOnEvent(tick=0, channel=6, data=[29, 127]),
   midi.NoteOnEvent(tick=108, channel=6, data=[29, 0]),
   midi.NoteOnEvent(tick=0, channel=6, data=[34, 127]),
   midi.NoteOnEvent(tick=108, channel=6, data=[34, 0]),
   midi.NoteOnEvent(tick=0, channel=6, data=[29, 127]),
   midi.NoteOnEvent(tick=108, channel=6, data=[29, 0]),
   midi.NoteOnEvent(tick=0, channel=6, data=[35, 127]),
   midi.NoteOnEvent(tick=108, channel=6, data=[35, 0]),
   midi.NoteOnEvent(tick=0, channel=6, data=[29, 127]),
   midi.NoteOnEvent(tick=108, channel=6, data=[29, 0]),
   midi.NoteOnEvent(tick=0, channel=6, data=[34, 127]),
   midi.NoteOnEvent(tick=108, channel=6, data=[34, 0]),
   midi.NoteOnEvent(tick=0, channel=6, data=[29, 127]),
   midi.NoteOnEvent(tick=108, channel=6, data=[29, 0]),
   midi.NoteOnEvent(tick=0, channel=6, data=[35, 127]),
   midi.NoteOnEvent(tick=0, channel=6, data=[42, 127]),
   midi.NoteOnEvent(tick=108, channel=6, data=[42, 0]),
   midi.NoteOnEvent(tick=0, channel=6, data=[35, 0]),
   midi.NoteOnEvent(tick=0, channel=6, data=[29, 127]),
   midi.NoteOnEvent(tick=108, channel=6, data=[29, 0]),
   midi.NoteOnEvent(tick=0, channel=6, data=[34, 127]),
   midi.NoteOnEvent(tick=0, channel=6, data=[41, 127]),
   midi.NoteOnEvent(tick=108, channel=6, data=[41, 0]),
   midi.NoteOnEvent(tick=0, channel=6, data=[34, 0]),
   midi.NoteOnEvent(tick=0, channel=6, data=[29, 127]),
   midi.NoteOnEvent(tick=108, channel=6, data=[29, 0]),
   midi.NoteOnEvent(tick=0, channel=6, data=[35, 127]),
   midi.NoteOnEvent(tick=0, channel=6, data=[42, 127]),
   midi.NoteOnEvent(tick=108, channel=6, data=[42, 0]),
   midi.NoteOnEvent(tick=0, channel=6, data=[35, 0]),
   midi.NoteOnEvent(tick=0, channel=6, data=[29, 127]),
   midi.NoteOnEvent(tick=108, channel=6, data=[29, 0]),
   midi.NoteOnEvent(tick=0, channel=6, data=[37, 127]),
   midi.NoteOnEvent(tick=0, channel=6, data=[30, 127]),
   midi.NoteOnEvent(tick=216, channel=6, data=[30, 0]),
   midi.NoteOnEvent(tick=0, channel=6, data=[37, 0]),
   midi.NoteOnEvent(tick=0, channel=6, data=[29, 127]),
   midi.NoteOnEvent(tick=108, channel=6, data=[29, 0]),
   midi.NoteOnEvent(tick=0, channel=6, data=[29, 127]),
   midi.NoteOnEvent(tick=108, channel=6, data=[29, 0]),
   midi.NoteOnEvent(tick=0, channel=6, data=[34, 127]),
   midi.NoteOnEvent(tick=108, channel=6, data=[34, 0]),
   midi.NoteOnEvent(tick=0, channel=6, data=[29, 127]),
   midi.NoteOnEvent(tick=108, channel=6, data=[29, 0]),
   midi.NoteOnEvent(tick=0, channel=6, data=[35, 127]),
   midi.NoteOnEvent(tick=108, channel=6, data=[35, 0]),
   midi.NoteOnEvent(tick=0, channel=6, data=[29, 127]),
   midi.NoteOnEvent(tick=108, channel=6, data=[29, 0]),
   midi.NoteOnEvent(tick=0, channel=6, data=[34, 127]),
   midi.NoteOnEvent(tick=108, channel=6, data=[34, 0]),
   midi.NoteOnEvent(tick=0, channel=6, data=[29, 127]),
   midi.NoteOnEvent(tick=108, channel=6, data=[29, 0]),
   midi.NoteOnEvent(tick=0, channel=6, data=[35, 127]),
   midi.NoteOnEvent(tick=0, channel=6, data=[42, 127]),
   midi.NoteOnEvent(tick=108, channel=6, data=[42, 0]),
   midi.NoteOnEvent(tick=0, channel=6, data=[35, 0]),
   midi.NoteOnEvent(tick=0, channel=6, data=[29, 127]),
   midi.NoteOnEvent(tick=108, channel=6, data=[29, 0]),
   midi.NoteOnEvent(tick=0, channel=6, data=[34, 127]),
   midi.NoteOnEvent(tick=0, channel=6, data=[41, 127]),
   midi.NoteOnEvent(tick=108, channel=6, data=[41, 0]),
   midi.NoteOnEvent(tick=0, channel=6, data=[34, 0]),
   midi.NoteOnEvent(tick=0, channel=6, data=[29, 127]),
   midi.NoteOnEvent(tick=108, channel=6, data=[29, 0]),
   midi.NoteOnEvent(tick=0, channel=6, data=[35, 127]),
   midi.NoteOnEvent(tick=0, channel=6, data=[42, 127]),
   midi.NoteOnEvent(tick=108, channel=6, data=[42, 0]),
   midi.NoteOnEvent(tick=0, channel=6, data=[35, 0]),
   midi.NoteOnEvent(tick=0, channel=6, data=[29, 127]),
   midi.NoteOnEvent(tick=108, channel=6, data=[29, 0]),
   midi.NoteOnEvent(tick=0, channel=6, data=[37, 127]),
   midi.NoteOnEvent(tick=0, channel=6, data=[30, 127]),
   midi.NoteOnEvent(tick=216, channel=6, data=[30, 0]),
   midi.NoteOnEvent(tick=0, channel=6, data=[37, 0]),
   midi.NoteOnEvent(tick=0, channel=6, data=[29, 127]),
   midi.NoteOnEvent(tick=108, channel=6, data=[29, 0]),
   midi.NoteOnEvent(tick=0, channel=6, data=[29, 127]),
   midi.NoteOnEvent(tick=108, channel=6, data=[29, 0]),
   midi.NoteOnEvent(tick=0, channel=6, data=[34, 127]),
   midi.NoteOnEvent(tick=108, channel=6, data=[34, 0]),
   midi.NoteOnEvent(tick=0, channel=6, data=[29, 127]),
   midi.NoteOnEvent(tick=108, channel=6, data=[29, 0]),
   midi.NoteOnEvent(tick=0, channel=6, data=[35, 127]),
   midi.NoteOnEvent(tick=108, channel=6, data=[35, 0]),
   midi.NoteOnEvent(tick=0, channel=6, data=[29, 127]),
   midi.NoteOnEvent(tick=108, channel=6, data=[29, 0]),
   midi.NoteOnEvent(tick=0, channel=6, data=[34, 127]),
   midi.NoteOnEvent(tick=108, channel=6, data=[34, 0]),
   midi.NoteOnEvent(tick=0, channel=6, data=[29, 127]),
   midi.NoteOnEvent(tick=108, channel=6, data=[29, 0]),
   midi.NoteOnEvent(tick=0, channel=6, data=[35, 127]),
   midi.NoteOnEvent(tick=0, channel=6, data=[42, 127]),
   midi.NoteOnEvent(tick=108, channel=6, data=[42, 0]),
   midi.NoteOnEvent(tick=0, channel=6, data=[35, 0]),
   midi.NoteOnEvent(tick=0, channel=6, data=[29, 127]),
   midi.NoteOnEvent(tick=108, channel=6, data=[29, 0]),
   midi.NoteOnEvent(tick=0, channel=6, data=[34, 127]),
   midi.NoteOnEvent(tick=0, channel=6, data=[41, 127]),
   midi.NoteOnEvent(tick=108, channel=6, data=[41, 0]),
   midi.NoteOnEvent(tick=0, channel=6, data=[34, 0]),
   midi.NoteOnEvent(tick=0, channel=6, data=[29, 127]),
   midi.NoteOnEvent(tick=108, channel=6, data=[29, 0]),
   midi.NoteOnEvent(tick=0, channel=6, data=[35, 127]),
   midi.NoteOnEvent(tick=0, channel=6, data=[42, 127]),
   midi.NoteOnEvent(tick=108, channel=6, data=[42, 0]),
   midi.NoteOnEvent(tick=0, channel=6, data=[35, 0]),
   midi.NoteOnEvent(tick=0, channel=6, data=[29, 127]),
   midi.NoteOnEvent(tick=108, channel=6, data=[29, 0]),
   midi.NoteOnEvent(tick=0, channel=6, data=[37, 127]),
   midi.NoteOnEvent(tick=0, channel=6, data=[30, 127]),
   midi.NoteOnEvent(tick=216, channel=6, data=[30, 0]),
   midi.NoteOnEvent(tick=0, channel=6, data=[37, 0]),
   midi.NoteOnEvent(tick=0, channel=6, data=[29, 127]),
   midi.NoteOnEvent(tick=108, channel=6, data=[29, 0]),
   midi.NoteOnEvent(tick=0, channel=6, data=[29, 127]),
   midi.NoteOnEvent(tick=108, channel=6, data=[29, 0]),
   midi.NoteOnEvent(tick=0, channel=6, data=[34, 127]),
   midi.NoteOnEvent(tick=108, channel=6, data=[34, 0]),
   midi.NoteOnEvent(tick=0, channel=6, data=[29, 127]),
   midi.NoteOnEvent(tick=108, channel=6, data=[29, 0]),
   midi.NoteOnEvent(tick=0, channel=6, data=[35, 127]),
   midi.NoteOnEvent(tick=108, channel=6, data=[35, 0]),
   midi.NoteOnEvent(tick=0, channel=6, data=[29, 127]),
   midi.NoteOnEvent(tick=108, channel=6, data=[29, 0]),
   midi.NoteOnEvent(tick=0, channel=6, data=[34, 127]),
   midi.NoteOnEvent(tick=108, channel=6, data=[34, 0]),
   midi.NoteOnEvent(tick=0, channel=6, data=[29, 127]),
   midi.NoteOnEvent(tick=108, channel=6, data=[29, 0]),
   midi.NoteOnEvent(tick=0, channel=6, data=[35, 127]),
   midi.NoteOnEvent(tick=0, channel=6, data=[42, 127]),
   midi.NoteOnEvent(tick=108, channel=6, data=[42, 0]),
   midi.NoteOnEvent(tick=0, channel=6, data=[35, 0]),
   midi.NoteOnEvent(tick=0, channel=6, data=[29, 127]),
   midi.NoteOnEvent(tick=108, channel=6, data=[29, 0]),
   midi.NoteOnEvent(tick=0, channel=6, data=[34, 127]),
   midi.NoteOnEvent(tick=0, channel=6, data=[41, 127]),
   midi.NoteOnEvent(tick=108, channel=6, data=[41, 0]),
   midi.NoteOnEvent(tick=0, channel=6, data=[34, 0]),
   midi.NoteOnEvent(tick=0, channel=6, data=[29, 127]),
   midi.NoteOnEvent(tick=108, channel=6, data=[29, 0]),
   midi.NoteOnEvent(tick=0, channel=6, data=[35, 127]),
   midi.NoteOnEvent(tick=0, channel=6, data=[42, 127]),
   midi.NoteOnEvent(tick=108, channel=6, data=[42, 0]),
   midi.NoteOnEvent(tick=0, channel=6, data=[35, 0]),
   midi.NoteOnEvent(tick=0, channel=6, data=[29, 127]),
   midi.NoteOnEvent(tick=108, channel=6, data=[29, 0]),
   midi.NoteOnEvent(tick=0, channel=6, data=[37, 127]),
   midi.NoteOnEvent(tick=0, channel=6, data=[30, 127]),
   midi.NoteOnEvent(tick=216, channel=6, data=[30, 0]),
   midi.NoteOnEvent(tick=0, channel=6, data=[37, 0]),
   midi.NoteOnEvent(tick=0, channel=6, data=[29, 127]),
   midi.NoteOnEvent(tick=108, channel=6, data=[29, 0]),
   midi.NoteOnEvent(tick=0, channel=6, data=[29, 127]),
   midi.NoteOnEvent(tick=108, channel=6, data=[29, 0]),
   midi.NoteOnEvent(tick=0, channel=6, data=[34, 127]),
   midi.NoteOnEvent(tick=108, channel=6, data=[34, 0]),
   midi.NoteOnEvent(tick=0, channel=6, data=[29, 127]),
   midi.NoteOnEvent(tick=108, channel=6, data=[29, 0]),
   midi.NoteOnEvent(tick=0, channel=6, data=[35, 127]),
   midi.NoteOnEvent(tick=108, channel=6, data=[35, 0]),
   midi.NoteOnEvent(tick=0, channel=6, data=[29, 127]),
   midi.NoteOnEvent(tick=108, channel=6, data=[29, 0]),
   midi.NoteOnEvent(tick=0, channel=6, data=[34, 127]),
   midi.NoteOnEvent(tick=108, channel=6, data=[34, 0]),
   midi.NoteOnEvent(tick=0, channel=6, data=[29, 127]),
   midi.NoteOnEvent(tick=108, channel=6, data=[29, 0]),
   midi.NoteOnEvent(tick=0, channel=6, data=[35, 127]),
   midi.NoteOnEvent(tick=1726, channel=6, data=[35, 0]),
   midi.NoteOnEvent(tick=2, channel=6, data=[37, 127]),
   midi.NoteOnEvent(tick=0, channel=6, data=[30, 127]),
   midi.NoteOnEvent(tick=0, channel=6, data=[42, 127]),
   midi.NoteOnEvent(tick=108, channel=6, data=[42, 0]),
   midi.NoteOnEvent(tick=0, channel=6, data=[30, 0]),
   midi.NoteOnEvent(tick=0, channel=6, data=[37, 0]),
   midi.NoteOnEvent(tick=0, channel=6, data=[29, 127]),
   midi.NoteOnEvent(tick=0, channel=6, data=[41, 127]),
   midi.NoteOnEvent(tick=0, channel=6, data=[36, 127]),
   midi.NoteOnEvent(tick=108, channel=6, data=[36, 0]),
   midi.NoteOnEvent(tick=0, channel=6, data=[41, 0]),
   midi.NoteOnEvent(tick=0, channel=6, data=[29, 0]),
   midi.NoteOnEvent(tick=108, channel=6, data=[29, 127]),
   midi.NoteOnEvent(tick=0, channel=6, data=[36, 127]),
   midi.NoteOnEvent(tick=108, channel=6, data=[36, 0]),
   midi.NoteOnEvent(tick=0, channel=6, data=[29, 0]),
   midi.NoteOnEvent(tick=108, channel=6, data=[29, 127]),
   midi.NoteOnEvent(tick=0, channel=6, data=[36, 127]),
   midi.NoteOnEvent(tick=108, channel=6, data=[36, 0]),
   midi.NoteOnEvent(tick=0, channel=6, data=[29, 0]),
   midi.NoteOnEvent(tick=108, channel=6, data=[29, 127]),
   midi.NoteOnEvent(tick=0, channel=6, data=[36, 127]),
   midi.NoteOnEvent(tick=108, channel=6, data=[36, 0]),
   midi.NoteOnEvent(tick=0, channel=6, data=[29, 0]),
   midi.NoteOnEvent(tick=0, channel=6, data=[28, 127]),
   midi.NoteOnEvent(tick=214, channel=6, data=[28, 0]),
   midi.EndOfTrackEvent(tick=0, data=[])]),
 midi.Track(\
  [midi.PortEvent(tick=0, data=[0]),
   midi.TrackNameEvent(tick=0, text='Solo 2', data=[83, 111, 108, 111, 32, 50]),
   midi.ProgramChangeEvent(tick=0, channel=7, data=[29]),
   midi.ControlChangeEvent(tick=0, channel=7, data=[7, 115]),
   midi.ControlChangeEvent(tick=0, channel=7, data=[10, 65]),
   midi.ControlChangeEvent(tick=0, channel=7, data=[1, 0]),
   midi.PitchWheelEvent(tick=0, channel=7, data=[0, 64]),
   midi.ControlChangeEvent(tick=0, channel=7, data=[11, 100]),
   midi.NoteOnEvent(tick=11232, channel=7, data=[47, 100]),
   midi.NoteOnEvent(tick=0, channel=7, data=[52, 100]),
   midi.NoteOnEvent(tick=0, channel=7, data=[40, 100]),
   midi.NoteOnEvent(tick=212, channel=7, data=[40, 0]),
   midi.NoteOnEvent(tick=0, channel=7, data=[52, 0]),
   midi.NoteOnEvent(tick=0, channel=7, data=[47, 0]),
   midi.NoteOnEvent(tick=4, channel=7, data=[40, 100]),
   midi.NoteOnEvent(tick=0, channel=7, data=[47, 100]),
   midi.NoteOnEvent(tick=0, channel=7, data=[52, 100]),
   midi.NoteOnEvent(tick=50, channel=7, data=[52, 0]),
   midi.NoteOnEvent(tick=0, channel=7, data=[47, 0]),
   midi.NoteOnEvent(tick=0, channel=7, data=[40, 0]),
   midi.NoteOnEvent(tick=4, channel=7, data=[40, 100]),
   midi.NoteOnEvent(tick=0, channel=7, data=[47, 100]),
   midi.NoteOnEvent(tick=0, channel=7, data=[52, 100]),
   midi.NoteOnEvent(tick=50, channel=7, data=[52, 0]),
   midi.NoteOnEvent(tick=0, channel=7, data=[47, 0]),
   midi.NoteOnEvent(tick=0, channel=7, data=[40, 0]),
   midi.NoteOnEvent(tick=4, channel=7, data=[41, 100]),
   midi.NoteOnEvent(tick=0, channel=7, data=[48, 100]),
   midi.NoteOnEvent(tick=0, channel=7, data=[53, 100]),
   midi.NoteOnEvent(tick=536, channel=7, data=[53, 0]),
   midi.NoteOnEvent(tick=0, channel=7, data=[48, 0]),
   midi.NoteOnEvent(tick=0, channel=7, data=[41, 0]),
   midi.NoteOnEvent(tick=4, channel=7, data=[54, 100]),
   midi.NoteOnEvent(tick=0, channel=7, data=[45, 100]),
   midi.NoteOnEvent(tick=0, channel=7, data=[42, 100]),
   midi.NoteOnEvent(tick=212, channel=7, data=[42, 0]),
   midi.NoteOnEvent(tick=0, channel=7, data=[45, 0]),
   midi.NoteOnEvent(tick=0, channel=7, data=[54, 0]),
   midi.NoteOnEvent(tick=4, channel=7, data=[54, 100]),
   midi.NoteOnEvent(tick=0, channel=7, data=[45, 100]),
   midi.NoteOnEvent(tick=0, channel=7, data=[42, 100]),
   midi.NoteOnEvent(tick=50, channel=7, data=[42, 0]),
   midi.NoteOnEvent(tick=0, channel=7, data=[45, 0]),
   midi.NoteOnEvent(tick=0, channel=7, data=[54, 0]),
   midi.NoteOnEvent(tick=4, channel=7, data=[54, 100]),
   midi.NoteOnEvent(tick=0, channel=7, data=[45, 100]),
   midi.NoteOnEvent(tick=0, channel=7, data=[42, 100]),
   midi.NoteOnEvent(tick=50, channel=7, data=[42, 0]),
   midi.NoteOnEvent(tick=0, channel=7, data=[45, 0]),
   midi.NoteOnEvent(tick=0, channel=7, data=[54, 0]),
   midi.NoteOnEvent(tick=4, channel=7, data=[43, 100]),
   midi.NoteOnEvent(tick=0, channel=7, data=[55, 100]),
   midi.NoteOnEvent(tick=0, channel=7, data=[50, 100]),
   midi.NoteOnEvent(tick=536, channel=7, data=[50, 0]),
   midi.NoteOnEvent(tick=0, channel=7, data=[55, 0]),
   midi.NoteOnEvent(tick=0, channel=7, data=[43, 0]),
   midi.NoteOnEvent(tick=4, channel=7, data=[47, 100]),
   midi.NoteOnEvent(tick=0, channel=7, data=[52, 100]),
   midi.NoteOnEvent(tick=0, channel=7, data=[40, 100]),
   midi.NoteOnEvent(tick=212, channel=7, data=[40, 0]),
   midi.NoteOnEvent(tick=0, channel=7, data=[52, 0]),
   midi.NoteOnEvent(tick=0, channel=7, data=[47, 0]),
   midi.NoteOnEvent(tick=4, channel=7, data=[40, 100]),
   midi.NoteOnEvent(tick=0, channel=7, data=[47, 100]),
   midi.NoteOnEvent(tick=0, channel=7, data=[52, 100]),
   midi.NoteOnEvent(tick=50, channel=7, data=[52, 0]),
   midi.NoteOnEvent(tick=0, channel=7, data=[47, 0]),
   midi.NoteOnEvent(tick=0, channel=7, data=[40, 0]),
   midi.NoteOnEvent(tick=4, channel=7, data=[40, 100]),
   midi.NoteOnEvent(tick=0, channel=7, data=[47, 100]),
   midi.NoteOnEvent(tick=0, channel=7, data=[52, 100]),
   midi.NoteOnEvent(tick=50, channel=7, data=[52, 0]),
   midi.NoteOnEvent(tick=0, channel=7, data=[47, 0]),
   midi.NoteOnEvent(tick=0, channel=7, data=[40, 0]),
   midi.NoteOnEvent(tick=4, channel=7, data=[41, 100]),
   midi.NoteOnEvent(tick=0, channel=7, data=[48, 100]),
   midi.NoteOnEvent(tick=0, channel=7, data=[53, 100]),
   midi.NoteOnEvent(tick=536, channel=7, data=[53, 0]),
   midi.NoteOnEvent(tick=0, channel=7, data=[48, 0]),
   midi.NoteOnEvent(tick=0, channel=7, data=[41, 0]),
   midi.NoteOnEvent(tick=4, channel=7, data=[54, 100]),
   midi.NoteOnEvent(tick=0, channel=7, data=[45, 100]),
   midi.NoteOnEvent(tick=0, channel=7, data=[42, 100]),
   midi.NoteOnEvent(tick=212, channel=7, data=[42, 0]),
   midi.NoteOnEvent(tick=0, channel=7, data=[45, 0]),
   midi.NoteOnEvent(tick=0, channel=7, data=[54, 0]),
   midi.NoteOnEvent(tick=4, channel=7, data=[54, 100]),
   midi.NoteOnEvent(tick=0, channel=7, data=[45, 100]),
   midi.NoteOnEvent(tick=0, channel=7, data=[42, 100]),
   midi.NoteOnEvent(tick=50, channel=7, data=[42, 0]),
   midi.NoteOnEvent(tick=0, channel=7, data=[45, 0]),
   midi.NoteOnEvent(tick=0, channel=7, data=[54, 0]),
   midi.NoteOnEvent(tick=4, channel=7, data=[54, 100]),
   midi.NoteOnEvent(tick=0, channel=7, data=[45, 100]),
   midi.NoteOnEvent(tick=0, channel=7, data=[42, 100]),
   midi.NoteOnEvent(tick=50, channel=7, data=[42, 0]),
   midi.NoteOnEvent(tick=0, channel=7, data=[45, 0]),
   midi.NoteOnEvent(tick=0, channel=7, data=[54, 0]),
   midi.NoteOnEvent(tick=4, channel=7, data=[43, 100]),
   midi.NoteOnEvent(tick=0, channel=7, data=[55, 100]),
   midi.NoteOnEvent(tick=0, channel=7, data=[50, 100]),
   midi.NoteOnEvent(tick=536, channel=7, data=[50, 0]),
   midi.NoteOnEvent(tick=0, channel=7, data=[55, 0]),
   midi.NoteOnEvent(tick=0, channel=7, data=[43, 0]),
   midi.NoteOnEvent(tick=4, channel=7, data=[47, 100]),
   midi.NoteOnEvent(tick=0, channel=7, data=[52, 100]),
   midi.NoteOnEvent(tick=0, channel=7, data=[40, 100]),
   midi.NoteOnEvent(tick=212, channel=7, data=[40, 0]),
   midi.NoteOnEvent(tick=0, channel=7, data=[52, 0]),
   midi.NoteOnEvent(tick=0, channel=7, data=[47, 0]),
   midi.NoteOnEvent(tick=4, channel=7, data=[40, 100]),
   midi.NoteOnEvent(tick=0, channel=7, data=[47, 100]),
   midi.NoteOnEvent(tick=0, channel=7, data=[52, 100]),
   midi.NoteOnEvent(tick=50, channel=7, data=[52, 0]),
   midi.NoteOnEvent(tick=0, channel=7, data=[47, 0]),
   midi.NoteOnEvent(tick=0, channel=7, data=[40, 0]),
   midi.NoteOnEvent(tick=4, channel=7, data=[40, 100]),
   midi.NoteOnEvent(tick=0, channel=7, data=[47, 100]),
   midi.NoteOnEvent(tick=0, channel=7, data=[52, 100]),
   midi.NoteOnEvent(tick=50, channel=7, data=[52, 0]),
   midi.NoteOnEvent(tick=0, channel=7, data=[47, 0]),
   midi.NoteOnEvent(tick=0, channel=7, data=[40, 0]),
   midi.NoteOnEvent(tick=4, channel=7, data=[41, 100]),
   midi.NoteOnEvent(tick=0, channel=7, data=[48, 100]),
   midi.NoteOnEvent(tick=0, channel=7, data=[53, 100]),
   midi.NoteOnEvent(tick=536, channel=7, data=[53, 0]),
   midi.NoteOnEvent(tick=0, channel=7, data=[48, 0]),
   midi.NoteOnEvent(tick=0, channel=7, data=[41, 0]),
   midi.NoteOnEvent(tick=4, channel=7, data=[54, 100]),
   midi.NoteOnEvent(tick=0, channel=7, data=[45, 100]),
   midi.NoteOnEvent(tick=0, channel=7, data=[42, 100]),
   midi.NoteOnEvent(tick=212, channel=7, data=[42, 0]),
   midi.NoteOnEvent(tick=0, channel=7, data=[45, 0]),
   midi.NoteOnEvent(tick=0, channel=7, data=[54, 0]),
   midi.NoteOnEvent(tick=4, channel=7, data=[54, 100]),
   midi.NoteOnEvent(tick=0, channel=7, data=[45, 100]),
   midi.NoteOnEvent(tick=0, channel=7, data=[42, 100]),
   midi.NoteOnEvent(tick=50, channel=7, data=[42, 0]),
   midi.NoteOnEvent(tick=0, channel=7, data=[45, 0]),
   midi.NoteOnEvent(tick=0, channel=7, data=[54, 0]),
   midi.NoteOnEvent(tick=4, channel=7, data=[54, 100]),
   midi.NoteOnEvent(tick=0, channel=7, data=[45, 100]),
   midi.NoteOnEvent(tick=0, channel=7, data=[42, 100]),
   midi.NoteOnEvent(tick=50, channel=7, data=[42, 0]),
   midi.NoteOnEvent(tick=0, channel=7, data=[45, 0]),
   midi.NoteOnEvent(tick=0, channel=7, data=[54, 0]),
   midi.NoteOnEvent(tick=4, channel=7, data=[43, 100]),
   midi.NoteOnEvent(tick=0, channel=7, data=[55, 100]),
   midi.NoteOnEvent(tick=0, channel=7, data=[50, 100]),
   midi.NoteOnEvent(tick=536, channel=7, data=[50, 0]),
   midi.NoteOnEvent(tick=0, channel=7, data=[55, 0]),
   midi.NoteOnEvent(tick=0, channel=7, data=[43, 0]),
   midi.NoteOnEvent(tick=4, channel=7, data=[47, 100]),
   midi.NoteOnEvent(tick=0, channel=7, data=[52, 100]),
   midi.NoteOnEvent(tick=0, channel=7, data=[40, 100]),
   midi.NoteOnEvent(tick=212, channel=7, data=[40, 0]),
   midi.NoteOnEvent(tick=0, channel=7, data=[52, 0]),
   midi.NoteOnEvent(tick=0, channel=7, data=[47, 0]),
   midi.NoteOnEvent(tick=4, channel=7, data=[40, 100]),
   midi.NoteOnEvent(tick=0, channel=7, data=[47, 100]),
   midi.NoteOnEvent(tick=0, channel=7, data=[52, 100]),
   midi.NoteOnEvent(tick=50, channel=7, data=[52, 0]),
   midi.NoteOnEvent(tick=0, channel=7, data=[47, 0]),
   midi.NoteOnEvent(tick=0, channel=7, data=[40, 0]),
   midi.NoteOnEvent(tick=4, channel=7, data=[40, 100]),
   midi.NoteOnEvent(tick=0, channel=7, data=[47, 100]),
   midi.NoteOnEvent(tick=0, channel=7, data=[52, 100]),
   midi.NoteOnEvent(tick=50, channel=7, data=[52, 0]),
   midi.NoteOnEvent(tick=0, channel=7, data=[47, 0]),
   midi.NoteOnEvent(tick=0, channel=7, data=[40, 0]),
   midi.NoteOnEvent(tick=4, channel=7, data=[41, 100]),
   midi.NoteOnEvent(tick=0, channel=7, data=[48, 100]),
   midi.NoteOnEvent(tick=0, channel=7, data=[53, 100]),
   midi.NoteOnEvent(tick=536, channel=7, data=[53, 0]),
   midi.NoteOnEvent(tick=0, channel=7, data=[48, 0]),
   midi.NoteOnEvent(tick=0, channel=7, data=[41, 0]),
   midi.NoteOnEvent(tick=4, channel=7, data=[54, 100]),
   midi.NoteOnEvent(tick=0, channel=7, data=[45, 100]),
   midi.NoteOnEvent(tick=0, channel=7, data=[42, 100]),
   midi.NoteOnEvent(tick=212, channel=7, data=[42, 0]),
   midi.NoteOnEvent(tick=0, channel=7, data=[45, 0]),
   midi.NoteOnEvent(tick=0, channel=7, data=[54, 0]),
   midi.NoteOnEvent(tick=4, channel=7, data=[54, 100]),
   midi.NoteOnEvent(tick=0, channel=7, data=[45, 100]),
   midi.NoteOnEvent(tick=0, channel=7, data=[42, 100]),
   midi.NoteOnEvent(tick=50, channel=7, data=[42, 0]),
   midi.NoteOnEvent(tick=0, channel=7, data=[45, 0]),
   midi.NoteOnEvent(tick=0, channel=7, data=[54, 0]),
   midi.NoteOnEvent(tick=4, channel=7, data=[54, 100]),
   midi.NoteOnEvent(tick=0, channel=7, data=[45, 100]),
   midi.NoteOnEvent(tick=0, channel=7, data=[42, 100]),
   midi.NoteOnEvent(tick=50, channel=7, data=[42, 0]),
   midi.NoteOnEvent(tick=0, channel=7, data=[45, 0]),
   midi.NoteOnEvent(tick=0, channel=7, data=[54, 0]),
   midi.NoteOnEvent(tick=4, channel=7, data=[43, 100]),
   midi.NoteOnEvent(tick=0, channel=7, data=[55, 100]),
   midi.NoteOnEvent(tick=0, channel=7, data=[50, 100]),
   midi.NoteOnEvent(tick=536, channel=7, data=[50, 0]),
   midi.NoteOnEvent(tick=0, channel=7, data=[55, 0]),
   midi.NoteOnEvent(tick=0, channel=7, data=[43, 0]),
   midi.NoteOnEvent(tick=4, channel=7, data=[40, 100]),
   midi.NoteOnEvent(tick=0, channel=7, data=[47, 100]),
   midi.NoteOnEvent(tick=0, channel=7, data=[52, 100]),
   midi.NoteOnEvent(tick=216, channel=7, data=[52, 0]),
   midi.NoteOnEvent(tick=0, channel=7, data=[47, 0]),
   midi.NoteOnEvent(tick=0, channel=7, data=[40, 0]),
   midi.NoteOnEvent(tick=0, channel=7, data=[47, 100]),
   midi.NoteOnEvent(tick=0, channel=7, data=[54, 100]),
   midi.NoteOnEvent(tick=0, channel=7, data=[59, 100]),
   midi.NoteOnEvent(tick=216, channel=7, data=[59, 0]),
   midi.NoteOnEvent(tick=0, channel=7, data=[54, 0]),
   midi.NoteOnEvent(tick=0, channel=7, data=[47, 0]),
   midi.NoteOnEvent(tick=0, channel=7, data=[43, 100]),
   midi.NoteOnEvent(tick=0, channel=7, data=[50, 100]),
   midi.NoteOnEvent(tick=0, channel=7, data=[55, 100]),
   midi.NoteOnEvent(tick=216, channel=7, data=[55, 0]),
   midi.NoteOnEvent(tick=0, channel=7, data=[50, 0]),
   midi.NoteOnEvent(tick=0, channel=7, data=[43, 0]),
   midi.NoteOnEvent(tick=0, channel=7, data=[51, 100]),
   midi.NoteOnEvent(tick=0, channel=7, data=[54, 100]),
   midi.NoteOnEvent(tick=216, channel=7, data=[54, 0]),
   midi.NoteOnEvent(tick=0, channel=7, data=[51, 0]),
   midi.NoteOnEvent(tick=41733, channel=7, data=[74, 100]),
   midi.PitchWheelEvent(tick=12, channel=7, data=[0, 64]),
   midi.PitchWheelEvent(tick=6, channel=7, data=[0, 68]),
   midi.PitchWheelEvent(tick=1, channel=7, data=[0, 72]),
   midi.PitchWheelEvent(tick=4, channel=7, data=[0, 76]),
   midi.PitchWheelEvent(tick=4, channel=7, data=[0, 81]),
   midi.PitchWheelEvent(tick=3, channel=7, data=[0, 85]),
   midi.PitchWheelEvent(tick=6, channel=7, data=[0, 89]),
   midi.PitchWheelEvent(tick=1, channel=7, data=[0, 93]),
   midi.PitchWheelEvent(tick=4, channel=7, data=[0, 98]),
   midi.PitchWheelEvent(tick=4, channel=7, data=[0, 102]),
   midi.PitchWheelEvent(tick=3, channel=7, data=[0, 106]),
   midi.PitchWheelEvent(tick=6, channel=7, data=[0, 110]),
   midi.PitchWheelEvent(tick=1, channel=7, data=[0, 115]),
   midi.PitchWheelEvent(tick=4, channel=7, data=[0, 119]),
   midi.PitchWheelEvent(tick=4, channel=7, data=[0, 123]),
   midi.PitchWheelEvent(tick=3, channel=7, data=[127, 127]),
   midi.PitchWheelEvent(tick=18, channel=7, data=[0, 64]),
   midi.NoteOnEvent(tick=24, channel=7, data=[74, 0]),
   midi.NoteOnEvent(tick=0, channel=7, data=[76, 100]),
   midi.NoteOnEvent(tick=108, channel=7, data=[76, 0]),
   midi.NoteOnEvent(tick=0, channel=7, data=[81, 100]),
   midi.NoteOnEvent(tick=54, channel=7, data=[81, 0]),
   midi.NoteOnEvent(tick=0, channel=7, data=[76, 100]),
   midi.NoteOnEvent(tick=54, channel=7, data=[76, 0]),
   midi.NoteOnEvent(tick=0, channel=7, data=[79, 100]),
   midi.NoteOnEvent(tick=54, channel=7, data=[79, 0]),
   midi.NoteOnEvent(tick=0, channel=7, data=[76, 100]),
   midi.NoteOnEvent(tick=54, channel=7, data=[76, 0]),
   midi.NoteOnEvent(tick=0, channel=7, data=[78, 100]),
   midi.NoteOnEvent(tick=54, channel=7, data=[78, 0]),
   midi.NoteOnEvent(tick=0, channel=7, data=[76, 100]),
   midi.NoteOnEvent(tick=54, channel=7, data=[76, 0]),
   midi.NoteOnEvent(tick=0, channel=7, data=[74, 100]),
   midi.NoteOnEvent(tick=54, channel=7, data=[74, 0]),
   midi.NoteOnEvent(tick=0, channel=7, data=[76, 100]),
   midi.NoteOnEvent(tick=54, channel=7, data=[76, 0]),
   midi.NoteOnEvent(tick=0, channel=7, data=[81, 100]),
   midi.NoteOnEvent(tick=54, channel=7, data=[81, 0]),
   midi.NoteOnEvent(tick=0, channel=7, data=[76, 100]),
   midi.NoteOnEvent(tick=54, channel=7, data=[76, 0]),
   midi.NoteOnEvent(tick=0, channel=7, data=[79, 100]),
   midi.NoteOnEvent(tick=54, channel=7, data=[79, 0]),
   midi.NoteOnEvent(tick=0, channel=7, data=[76, 100]),
   midi.NoteOnEvent(tick=54, channel=7, data=[76, 0]),
   midi.NoteOnEvent(tick=0, channel=7, data=[78, 100]),
   midi.NoteOnEvent(tick=54, channel=7, data=[78, 0]),
   midi.NoteOnEvent(tick=0, channel=7, data=[76, 100]),
   midi.NoteOnEvent(tick=54, channel=7, data=[76, 0]),
   midi.NoteOnEvent(tick=0, channel=7, data=[74, 100]),
   midi.NoteOnEvent(tick=54, channel=7, data=[74, 0]),
   midi.NoteOnEvent(tick=0, channel=7, data=[76, 100]),
   midi.NoteOnEvent(tick=54, channel=7, data=[76, 0]),
   midi.NoteOnEvent(tick=0, channel=7, data=[81, 100]),
   midi.NoteOnEvent(tick=54, channel=7, data=[81, 0]),
   midi.NoteOnEvent(tick=0, channel=7, data=[76, 100]),
   midi.NoteOnEvent(tick=54, channel=7, data=[76, 0]),
   midi.NoteOnEvent(tick=0, channel=7, data=[79, 100]),
   midi.NoteOnEvent(tick=54, channel=7, data=[79, 0]),
   midi.NoteOnEvent(tick=0, channel=7, data=[76, 100]),
   midi.NoteOnEvent(tick=54, channel=7, data=[76, 0]),
   midi.NoteOnEvent(tick=0, channel=7, data=[78, 100]),
   midi.NoteOnEvent(tick=54, channel=7, data=[78, 0]),
   midi.NoteOnEvent(tick=0, channel=7, data=[76, 100]),
   midi.NoteOnEvent(tick=54, channel=7, data=[76, 0]),
   midi.NoteOnEvent(tick=0, channel=7, data=[74, 100]),
   midi.NoteOnEvent(tick=54, channel=7, data=[74, 0]),
   midi.NoteOnEvent(tick=0, channel=7, data=[76, 100]),
   midi.NoteOnEvent(tick=54, channel=7, data=[76, 0]),
   midi.NoteOnEvent(tick=0, channel=7, data=[81, 100]),
   midi.NoteOnEvent(tick=54, channel=7, data=[81, 0]),
   midi.NoteOnEvent(tick=0, channel=7, data=[76, 100]),
   midi.NoteOnEvent(tick=54, channel=7, data=[76, 0]),
   midi.NoteOnEvent(tick=0, channel=7, data=[79, 100]),
   midi.NoteOnEvent(tick=54, channel=7, data=[79, 0]),
   midi.NoteOnEvent(tick=0, channel=7, data=[76, 100]),
   midi.NoteOnEvent(tick=54, channel=7, data=[76, 0]),
   midi.NoteOnEvent(tick=0, channel=7, data=[78, 100]),
   midi.NoteOnEvent(tick=54, channel=7, data=[78, 0]),
   midi.NoteOnEvent(tick=0, channel=7, data=[76, 100]),
   midi.NoteOnEvent(tick=54, channel=7, data=[76, 0]),
   midi.NoteOnEvent(tick=0, channel=7, data=[73, 100]),
   midi.NoteOnEvent(tick=54, channel=7, data=[73, 0]),
   midi.NoteOnEvent(tick=0, channel=7, data=[71, 100]),
   midi.NoteOnEvent(tick=54, channel=7, data=[71, 0]),
   midi.NoteOnEvent(tick=0, channel=7, data=[73, 100]),
   midi.NoteOnEvent(tick=54, channel=7, data=[73, 0]),
   midi.NoteOnEvent(tick=0, channel=7, data=[71, 100]),
   midi.NoteOnEvent(tick=54, channel=7, data=[71, 0]),
   midi.NoteOnEvent(tick=0, channel=7, data=[69, 100]),
   midi.NoteOnEvent(tick=108, channel=7, data=[69, 0]),
   midi.NoteOnEvent(tick=0, channel=7, data=[67, 100]),
   midi.NoteOnEvent(tick=108, channel=7, data=[67, 0]),
   midi.NoteOnEvent(tick=0, channel=7, data=[64, 100]),
   midi.NoteOnEvent(tick=108, channel=7, data=[64, 0]),
   midi.NoteOnEvent(tick=0, channel=7, data=[73, 100]),
   midi.NoteOnEvent(tick=0, channel=7, data=[69, 100]),
   midi.PitchWheelEvent(tick=9, channel=7, data=[0, 64]),
   midi.PitchWheelEvent(tick=3, channel=7, data=[0, 65]),
   midi.PitchWheelEvent(tick=6, channel=7, data=[0, 66]),
   midi.PitchWheelEvent(tick=1, channel=7, data=[0, 68]),
   midi.PitchWheelEvent(tick=4, channel=7, data=[0, 69]),
   midi.PitchWheelEvent(tick=4, channel=7, data=[0, 71]),
   midi.PitchWheelEvent(tick=3, channel=7, data=[0, 72]),
   midi.PitchWheelEvent(tick=6, channel=7, data=[0, 74]),
   midi.PitchWheelEvent(tick=1, channel=7, data=[0, 75]),
   midi.PitchWheelEvent(tick=4, channel=7, data=[0, 77]),
   midi.PitchWheelEvent(tick=4, channel=7, data=[0, 78]),
   midi.PitchWheelEvent(tick=3, channel=7, data=[0, 80]),
   midi.PitchWheelEvent(tick=6, channel=7, data=[0, 81]),
   midi.PitchWheelEvent(tick=1, channel=7, data=[0, 83]),
   midi.PitchWheelEvent(tick=4, channel=7, data=[0, 84]),
   midi.PitchWheelEvent(tick=4, channel=7, data=[0, 86]),
   midi.PitchWheelEvent(tick=3, channel=7, data=[0, 87]),
   midi.PitchWheelEvent(tick=6, channel=7, data=[0, 89]),
   midi.PitchWheelEvent(tick=1, channel=7, data=[0, 90]),
   midi.PitchWheelEvent(tick=4, channel=7, data=[0, 92]),
   midi.PitchWheelEvent(tick=4, channel=7, data=[0, 93]),
   midi.PitchWheelEvent(tick=3, channel=7, data=[0, 95]),
   midi.PitchWheelEvent(tick=6, channel=7, data=[0, 96]),
   midi.PitchWheelEvent(tick=1, channel=7, data=[0, 98]),
   midi.PitchWheelEvent(tick=4, channel=7, data=[0, 99]),
   midi.PitchWheelEvent(tick=4, channel=7, data=[0, 101]),
   midi.PitchWheelEvent(tick=3, channel=7, data=[0, 102]),
   midi.PitchWheelEvent(tick=6, channel=7, data=[0, 104]),
   midi.PitchWheelEvent(tick=1, channel=7, data=[0, 105]),
   midi.PitchWheelEvent(tick=4, channel=7, data=[0, 107]),
   midi.PitchWheelEvent(tick=4, channel=7, data=[0, 108]),
   midi.PitchWheelEvent(tick=3, channel=7, data=[0, 110]),
   midi.PitchWheelEvent(tick=6, channel=7, data=[0, 111]),
   midi.PitchWheelEvent(tick=1, channel=7, data=[0, 113]),
   midi.PitchWheelEvent(tick=4, channel=7, data=[0, 114]),
   midi.PitchWheelEvent(tick=4, channel=7, data=[0, 116]),
   midi.PitchWheelEvent(tick=3, channel=7, data=[0, 117]),
   midi.PitchWheelEvent(tick=6, channel=7, data=[0, 119]),
   midi.PitchWheelEvent(tick=1, channel=7, data=[0, 120]),
   midi.PitchWheelEvent(tick=4, channel=7, data=[0, 122]),
   midi.PitchWheelEvent(tick=4, channel=7, data=[0, 123]),
   midi.PitchWheelEvent(tick=3, channel=7, data=[0, 125]),
   midi.PitchWheelEvent(tick=6, channel=7, data=[0, 126]),
   midi.PitchWheelEvent(tick=1, channel=7, data=[127, 127]),
   midi.PitchWheelEvent(tick=47, channel=7, data=[0, 64]),
   midi.NoteOnEvent(tick=2, channel=7, data=[69, 0]),
   midi.NoteOnEvent(tick=0, channel=7, data=[73, 0]),
   midi.NoteOnEvent(tick=4, channel=7, data=[67, 100]),
   midi.PitchWheelEvent(tick=162, channel=7, data=[0, 64]),
   midi.PitchWheelEvent(tick=1, channel=7, data=[0, 63]),
   midi.PitchWheelEvent(tick=4, channel=7, data=[0, 61]),
   midi.PitchWheelEvent(tick=4, channel=7, data=[0, 59]),
   midi.PitchWheelEvent(tick=3, channel=7, data=[0, 57]),
   midi.PitchWheelEvent(tick=6, channel=7, data=[0, 55]),
   midi.PitchWheelEvent(tick=1, channel=7, data=[0, 53]),
   midi.PitchWheelEvent(tick=4, channel=7, data=[0, 52]),
   midi.PitchWheelEvent(tick=4, channel=7, data=[0, 50]),
   midi.PitchWheelEvent(tick=3, channel=7, data=[0, 48]),
   midi.PitchWheelEvent(tick=6, channel=7, data=[0, 46]),
   midi.PitchWheelEvent(tick=1, channel=7, data=[0, 44]),
   midi.PitchWheelEvent(tick=4, channel=7, data=[0, 42]),
   midi.PitchWheelEvent(tick=4, channel=7, data=[0, 40]),
   midi.PitchWheelEvent(tick=3, channel=7, data=[0, 39]),
   midi.NoteOnEvent(tick=6, channel=7, data=[67, 0]),
   midi.PitchWheelEvent(tick=0, channel=7, data=[0, 37]),
   midi.PitchWheelEvent(tick=1, channel=7, data=[0, 35]),
   midi.PitchWheelEvent(tick=4, channel=7, data=[0, 33]),
   midi.PitchWheelEvent(tick=4, channel=7, data=[0, 31]),
   midi.PitchWheelEvent(tick=3, channel=7, data=[0, 29]),
   midi.PitchWheelEvent(tick=6, channel=7, data=[0, 27]),
   midi.PitchWheelEvent(tick=1, channel=7, data=[0, 26]),
   midi.PitchWheelEvent(tick=4, channel=7, data=[0, 24]),
   midi.PitchWheelEvent(tick=4, channel=7, data=[0, 22]),
   midi.PitchWheelEvent(tick=3, channel=7, data=[0, 20]),
   midi.PitchWheelEvent(tick=6, channel=7, data=[0, 18]),
   midi.PitchWheelEvent(tick=1, channel=7, data=[0, 16]),
   midi.PitchWheelEvent(tick=4, channel=7, data=[0, 14]),
   midi.PitchWheelEvent(tick=4, channel=7, data=[0, 13]),
   midi.PitchWheelEvent(tick=3, channel=7, data=[0, 11]),
   midi.PitchWheelEvent(tick=6, channel=7, data=[0, 9]),
   midi.PitchWheelEvent(tick=1, channel=7, data=[0, 7]),
   midi.PitchWheelEvent(tick=4, channel=7, data=[0, 5]),
   midi.PitchWheelEvent(tick=4, channel=7, data=[0, 3]),
   midi.PitchWheelEvent(tick=3, channel=7, data=[0, 1]),
   midi.PitchWheelEvent(tick=61, channel=7, data=[0, 64]),
   midi.NoteOnEvent(tick=48227, channel=7, data=[72, 127]),
   midi.NoteOnEvent(tick=0, channel=7, data=[69, 127]),
   midi.PitchWheelEvent(tick=1, channel=7, data=[0, 64]),
   midi.NoteOnEvent(tick=4, channel=7, data=[72, 127]),
   midi.NoteOnEvent(tick=0, channel=7, data=[69, 127]),
   midi.PitchWheelEvent(tick=1, channel=7, data=[0, 64]),
   midi.NoteOnEvent(tick=4, channel=7, data=[72, 127]),
   midi.NoteOnEvent(tick=0, channel=7, data=[69, 127]),
   midi.PitchWheelEvent(tick=1, channel=7, data=[0, 64]),
   midi.PitchWheelEvent(tick=4, channel=7, data=[0, 65]),
   midi.PitchWheelEvent(tick=4, channel=7, data=[0, 67]),
   midi.PitchWheelEvent(tick=3, channel=7, data=[0, 68]),
   midi.PitchWheelEvent(tick=6, channel=7, data=[0, 70]),
   midi.PitchWheelEvent(tick=1, channel=7, data=[0, 71]),
   midi.PitchWheelEvent(tick=4, channel=7, data=[0, 73]),
   midi.PitchWheelEvent(tick=4, channel=7, data=[0, 74]),
   midi.PitchWheelEvent(tick=3, channel=7, data=[0, 76]),
   midi.PitchWheelEvent(tick=6, channel=7, data=[0, 77]),
   midi.PitchWheelEvent(tick=1, channel=7, data=[0, 79]),
   midi.PitchWheelEvent(tick=4, channel=7, data=[0, 80]),
   midi.PitchWheelEvent(tick=4, channel=7, data=[0, 82]),
   midi.PitchWheelEvent(tick=3, channel=7, data=[0, 83]),
   midi.PitchWheelEvent(tick=6, channel=7, data=[0, 85]),
   midi.PitchWheelEvent(tick=1, channel=7, data=[0, 86]),
   midi.PitchWheelEvent(tick=4, channel=7, data=[0, 88]),
   midi.PitchWheelEvent(tick=4, channel=7, data=[0, 89]),
   midi.PitchWheelEvent(tick=3, channel=7, data=[0, 91]),
   midi.PitchWheelEvent(tick=6, channel=7, data=[0, 92]),
   midi.PitchWheelEvent(tick=1, channel=7, data=[0, 94]),
   midi.PitchWheelEvent(tick=4, channel=7, data=[0, 96]),
   midi.PitchWheelEvent(tick=4, channel=7, data=[0, 97]),
   midi.PitchWheelEvent(tick=3, channel=7, data=[0, 99]),
   midi.PitchWheelEvent(tick=6, channel=7, data=[0, 100]),
   midi.PitchWheelEvent(tick=1, channel=7, data=[0, 102]),
   midi.PitchWheelEvent(tick=4, channel=7, data=[0, 103]),
   midi.PitchWheelEvent(tick=4, channel=7, data=[0, 105]),
   midi.PitchWheelEvent(tick=3, channel=7, data=[0, 106]),
   midi.PitchWheelEvent(tick=6, channel=7, data=[0, 108]),
   midi.PitchWheelEvent(tick=1, channel=7, data=[0, 109]),
   midi.PitchWheelEvent(tick=4, channel=7, data=[0, 111]),
   midi.PitchWheelEvent(tick=4, channel=7, data=[0, 112]),
   midi.PitchWheelEvent(tick=3, channel=7, data=[0, 114]),
   midi.PitchWheelEvent(tick=6, channel=7, data=[0, 115]),
   midi.PitchWheelEvent(tick=1, channel=7, data=[0, 117]),
   midi.PitchWheelEvent(tick=4, channel=7, data=[0, 118]),
   midi.PitchWheelEvent(tick=4, channel=7, data=[0, 120]),
   midi.PitchWheelEvent(tick=3, channel=7, data=[0, 121]),
   midi.PitchWheelEvent(tick=6, channel=7, data=[0, 123]),
   midi.PitchWheelEvent(tick=1, channel=7, data=[0, 124]),
   midi.PitchWheelEvent(tick=4, channel=7, data=[0, 126]),
   midi.PitchWheelEvent(tick=4, channel=7, data=[127, 127]),
   midi.NoteOnEvent(tick=157, channel=7, data=[69, 0]),
   midi.NoteOnEvent(tick=0, channel=7, data=[72, 0]),
   midi.NoteOnEvent(tick=5, channel=7, data=[72, 0]),
   midi.NoteOnEvent(tick=0, channel=7, data=[69, 0]),
   midi.NoteOnEvent(tick=5, channel=7, data=[69, 0]),
   midi.NoteOnEvent(tick=0, channel=7, data=[72, 0]),
   midi.NoteOnEvent(tick=4, channel=7, data=[72, 127]),
   midi.NoteOnEvent(tick=0, channel=7, data=[69, 127]),
   midi.PitchWheelEvent(tick=0, channel=7, data=[0, 64]),
   midi.PitchWheelEvent(tick=1, channel=7, data=[0, 65]),
   midi.PitchWheelEvent(tick=4, channel=7, data=[0, 66]),
   midi.PitchWheelEvent(tick=4, channel=7, data=[0, 67]),
   midi.PitchWheelEvent(tick=3, channel=7, data=[0, 68]),
   midi.PitchWheelEvent(tick=6, channel=7, data=[0, 70]),
   midi.PitchWheelEvent(tick=1, channel=7, data=[0, 71]),
   midi.PitchWheelEvent(tick=4, channel=7, data=[0, 72]),
   midi.PitchWheelEvent(tick=4, channel=7, data=[0, 73]),
   midi.PitchWheelEvent(tick=3, channel=7, data=[0, 74]),
   midi.PitchWheelEvent(tick=6, channel=7, data=[0, 76]),
   midi.PitchWheelEvent(tick=1, channel=7, data=[0, 77]),
   midi.PitchWheelEvent(tick=4, channel=7, data=[0, 78]),
   midi.PitchWheelEvent(tick=4, channel=7, data=[0, 79]),
   midi.PitchWheelEvent(tick=3, channel=7, data=[0, 80]),
   midi.PitchWheelEvent(tick=6, channel=7, data=[0, 82]),
   midi.PitchWheelEvent(tick=1, channel=7, data=[0, 83]),
   midi.PitchWheelEvent(tick=4, channel=7, data=[0, 84]),
   midi.PitchWheelEvent(tick=4, channel=7, data=[0, 85]),
   midi.PitchWheelEvent(tick=3, channel=7, data=[0, 86]),
   midi.PitchWheelEvent(tick=6, channel=7, data=[0, 88]),
   midi.PitchWheelEvent(tick=1, channel=7, data=[0, 89]),
   midi.PitchWheelEvent(tick=4, channel=7, data=[0, 90]),
   midi.PitchWheelEvent(tick=4, channel=7, data=[0, 91]),
   midi.PitchWheelEvent(tick=3, channel=7, data=[0, 92]),
   midi.PitchWheelEvent(tick=6, channel=7, data=[0, 94]),
   midi.PitchWheelEvent(tick=1, channel=7, data=[0, 95]),
   midi.PitchWheelEvent(tick=4, channel=7, data=[0, 96]),
   midi.PitchWheelEvent(tick=4, channel=7, data=[0, 97]),
   midi.PitchWheelEvent(tick=3, channel=7, data=[0, 99]),
   midi.PitchWheelEvent(tick=6, channel=7, data=[0, 100]),
   midi.PitchWheelEvent(tick=1, channel=7, data=[0, 101]),
   midi.PitchWheelEvent(tick=4, channel=7, data=[0, 102]),
   midi.PitchWheelEvent(tick=4, channel=7, data=[0, 103]),
   midi.PitchWheelEvent(tick=3, channel=7, data=[0, 105]),
   midi.PitchWheelEvent(tick=6, channel=7, data=[0, 106]),
   midi.PitchWheelEvent(tick=1, channel=7, data=[0, 107]),
   midi.PitchWheelEvent(tick=4, channel=7, data=[0, 108]),
   midi.PitchWheelEvent(tick=4, channel=7, data=[0, 109]),
   midi.PitchWheelEvent(tick=3, channel=7, data=[0, 111]),
   midi.PitchWheelEvent(tick=6, channel=7, data=[0, 112]),
   midi.PitchWheelEvent(tick=1, channel=7, data=[0, 113]),
   midi.PitchWheelEvent(tick=4, channel=7, data=[0, 114]),
   midi.PitchWheelEvent(tick=4, channel=7, data=[0, 115]),
   midi.PitchWheelEvent(tick=3, channel=7, data=[0, 117]),
   midi.PitchWheelEvent(tick=6, channel=7, data=[0, 118]),
   midi.PitchWheelEvent(tick=1, channel=7, data=[0, 119]),
   midi.PitchWheelEvent(tick=4, channel=7, data=[0, 120]),
   midi.PitchWheelEvent(tick=4, channel=7, data=[0, 121]),
   midi.PitchWheelEvent(tick=3, channel=7, data=[0, 123]),
   midi.PitchWheelEvent(tick=6, channel=7, data=[0, 124]),
   midi.PitchWheelEvent(tick=1, channel=7, data=[0, 125]),
   midi.PitchWheelEvent(tick=4, channel=7, data=[0, 126]),
   midi.PitchWheelEvent(tick=4, channel=7, data=[127, 127]),
   midi.NoteOnEvent(tick=131, channel=7, data=[69, 0]),
   midi.NoteOnEvent(tick=0, channel=7, data=[72, 0]),
   midi.NoteOnEvent(tick=4, channel=7, data=[72, 127]),
   midi.NoteOnEvent(tick=0, channel=7, data=[69, 127]),
   midi.PitchWheelEvent(tick=1, channel=7, data=[0, 64]),
   midi.PitchWheelEvent(tick=4, channel=7, data=[0, 65]),
   midi.PitchWheelEvent(tick=4, channel=7, data=[0, 67]),
   midi.PitchWheelEvent(tick=3, channel=7, data=[0, 69]),
   midi.PitchWheelEvent(tick=6, channel=7, data=[0, 71]),
   midi.PitchWheelEvent(tick=1, channel=7, data=[0, 73]),
   midi.PitchWheelEvent(tick=4, channel=7, data=[0, 75]),
   midi.PitchWheelEvent(tick=4, channel=7, data=[0, 77]),
   midi.PitchWheelEvent(tick=3, channel=7, data=[0, 79]),
   midi.PitchWheelEvent(tick=6, channel=7, data=[0, 80]),
   midi.PitchWheelEvent(tick=1, channel=7, data=[0, 82]),
   midi.PitchWheelEvent(tick=4, channel=7, data=[0, 84]),
   midi.PitchWheelEvent(tick=4, channel=7, data=[0, 86]),
   midi.PitchWheelEvent(tick=3, channel=7, data=[0, 88]),
   midi.PitchWheelEvent(tick=6, channel=7, data=[0, 90]),
   midi.PitchWheelEvent(tick=1, channel=7, data=[0, 92]),
   midi.PitchWheelEvent(tick=4, channel=7, data=[0, 94]),
   midi.PitchWheelEvent(tick=4, channel=7, data=[0, 96]),
   midi.PitchWheelEvent(tick=3, channel=7, data=[0, 97]),
   midi.PitchWheelEvent(tick=6, channel=7, data=[0, 99]),
   midi.PitchWheelEvent(tick=1, channel=7, data=[0, 101]),
   midi.PitchWheelEvent(tick=4, channel=7, data=[0, 103]),
   midi.PitchWheelEvent(tick=4, channel=7, data=[0, 105]),
   midi.PitchWheelEvent(tick=3, channel=7, data=[0, 107]),
   midi.PitchWheelEvent(tick=6, channel=7, data=[0, 109]),
   midi.PitchWheelEvent(tick=1, channel=7, data=[0, 111]),
   midi.PitchWheelEvent(tick=4, channel=7, data=[0, 112]),
   midi.PitchWheelEvent(tick=4, channel=7, data=[0, 114]),
   midi.PitchWheelEvent(tick=3, channel=7, data=[0, 116]),
   midi.PitchWheelEvent(tick=6, channel=7, data=[0, 118]),
   midi.PitchWheelEvent(tick=1, channel=7, data=[0, 120]),
   midi.PitchWheelEvent(tick=4, channel=7, data=[0, 122]),
   midi.PitchWheelEvent(tick=4, channel=7, data=[0, 124]),
   midi.PitchWheelEvent(tick=3, channel=7, data=[0, 126]),
   midi.PitchWheelEvent(tick=6, channel=7, data=[127, 127]),
   midi.NoteOnEvent(tick=90, channel=7, data=[69, 0]),
   midi.NoteOnEvent(tick=0, channel=7, data=[72, 0]),
   midi.NoteOnEvent(tick=0, channel=7, data=[72, 127]),
   midi.NoteOnEvent(tick=0, channel=7, data=[69, 127]),
   midi.PitchWheelEvent(tick=12, channel=7, data=[0, 64]),
   midi.PitchWheelEvent(tick=6, channel=7, data=[0, 65]),
   midi.PitchWheelEvent(tick=1, channel=7, data=[0, 67]),
   midi.PitchWheelEvent(tick=4, channel=7, data=[0, 69]),
   midi.PitchWheelEvent(tick=4, channel=7, data=[0, 71]),
   midi.PitchWheelEvent(tick=3, channel=7, data=[0, 72]),
   midi.PitchWheelEvent(tick=6, channel=7, data=[0, 74]),
   midi.PitchWheelEvent(tick=1, channel=7, data=[0, 76]),
   midi.PitchWheelEvent(tick=4, channel=7, data=[0, 78]),
   midi.PitchWheelEvent(tick=4, channel=7, data=[0, 80]),
   midi.PitchWheelEvent(tick=3, channel=7, data=[0, 81]),
   midi.PitchWheelEvent(tick=6, channel=7, data=[0, 83]),
   midi.PitchWheelEvent(tick=1, channel=7, data=[0, 85]),
   midi.PitchWheelEvent(tick=4, channel=7, data=[0, 87]),
   midi.PitchWheelEvent(tick=4, channel=7, data=[0, 88]),
   midi.PitchWheelEvent(tick=3, channel=7, data=[0, 90]),
   midi.PitchWheelEvent(tick=6, channel=7, data=[0, 92]),
   midi.PitchWheelEvent(tick=1, channel=7, data=[0, 94]),
   midi.PitchWheelEvent(tick=4, channel=7, data=[0, 96]),
   midi.PitchWheelEvent(tick=4, channel=7, data=[0, 97]),
   midi.PitchWheelEvent(tick=3, channel=7, data=[0, 99]),
   midi.PitchWheelEvent(tick=6, channel=7, data=[0, 101]),
   midi.PitchWheelEvent(tick=1, channel=7, data=[0, 103]),
   midi.PitchWheelEvent(tick=4, channel=7, data=[0, 104]),
   midi.PitchWheelEvent(tick=4, channel=7, data=[0, 106]),
   midi.PitchWheelEvent(tick=3, channel=7, data=[0, 108]),
   midi.PitchWheelEvent(tick=6, channel=7, data=[0, 110]),
   midi.PitchWheelEvent(tick=1, channel=7, data=[0, 112]),
   midi.PitchWheelEvent(tick=4, channel=7, data=[0, 113]),
   midi.PitchWheelEvent(tick=4, channel=7, data=[0, 115]),
   midi.PitchWheelEvent(tick=3, channel=7, data=[0, 117]),
   midi.PitchWheelEvent(tick=6, channel=7, data=[0, 119]),
   midi.PitchWheelEvent(tick=1, channel=7, data=[0, 120]),
   midi.PitchWheelEvent(tick=4, channel=7, data=[0, 122]),
   midi.PitchWheelEvent(tick=4, channel=7, data=[0, 124]),
   midi.PitchWheelEvent(tick=3, channel=7, data=[0, 126]),
   midi.PitchWheelEvent(tick=6, channel=7, data=[127, 127]),
   midi.NoteOnEvent(tick=180, channel=7, data=[69, 0]),
   midi.NoteOnEvent(tick=0, channel=7, data=[72, 0]),
   midi.NoteOnEvent(tick=0, channel=7, data=[69, 127]),
   midi.NoteOnEvent(tick=0, channel=7, data=[72, 127]),
   midi.PitchWheelEvent(tick=5, channel=7, data=[0, 64]),
   midi.PitchWheelEvent(tick=4, channel=7, data=[0, 66]),
   midi.PitchWheelEvent(tick=3, channel=7, data=[0, 68]),
   midi.PitchWheelEvent(tick=6, channel=7, data=[0, 71]),
   midi.PitchWheelEvent(tick=1, channel=7, data=[0, 73]),
   midi.PitchWheelEvent(tick=4, channel=7, data=[0, 75]),
   midi.PitchWheelEvent(tick=4, channel=7, data=[0, 78]),
   midi.PitchWheelEvent(tick=3, channel=7, data=[0, 80]),
   midi.PitchWheelEvent(tick=6, channel=7, data=[0, 82]),
   midi.PitchWheelEvent(tick=1, channel=7, data=[0, 85]),
   midi.PitchWheelEvent(tick=4, channel=7, data=[0, 87]),
   midi.PitchWheelEvent(tick=4, channel=7, data=[0, 89]),
   midi.PitchWheelEvent(tick=3, channel=7, data=[0, 92]),
   midi.PitchWheelEvent(tick=6, channel=7, data=[0, 94]),
   midi.PitchWheelEvent(tick=1, channel=7, data=[0, 96]),
   midi.PitchWheelEvent(tick=4, channel=7, data=[0, 99]),
   midi.PitchWheelEvent(tick=4, channel=7, data=[0, 101]),
   midi.PitchWheelEvent(tick=3, channel=7, data=[0, 103]),
   midi.PitchWheelEvent(tick=6, channel=7, data=[0, 106]),
   midi.PitchWheelEvent(tick=1, channel=7, data=[0, 108]),
   midi.PitchWheelEvent(tick=4, channel=7, data=[0, 110]),
   midi.PitchWheelEvent(tick=4, channel=7, data=[0, 113]),
   midi.PitchWheelEvent(tick=3, channel=7, data=[0, 115]),
   midi.PitchWheelEvent(tick=6, channel=7, data=[0, 117]),
   midi.PitchWheelEvent(tick=1, channel=7, data=[0, 120]),
   midi.PitchWheelEvent(tick=4, channel=7, data=[0, 122]),
   midi.PitchWheelEvent(tick=4, channel=7, data=[0, 124]),
   midi.PitchWheelEvent(tick=3, channel=7, data=[0, 127]),
   midi.NoteOnEvent(tick=110, channel=7, data=[72, 0]),
   midi.NoteOnEvent(tick=0, channel=7, data=[69, 0]),
   midi.NoteOnEvent(tick=4, channel=7, data=[69, 127]),
   midi.NoteOnEvent(tick=0, channel=7, data=[72, 127]),
   midi.PitchWheelEvent(tick=1, channel=7, data=[0, 64]),
   midi.NoteOnEvent(tick=107, channel=7, data=[72, 0]),
   midi.NoteOnEvent(tick=0, channel=7, data=[69, 0]),
   midi.NoteOnEvent(tick=0, channel=7, data=[69, 127]),
   midi.NoteOnEvent(tick=108, channel=7, data=[69, 0]),
   midi.NoteOnEvent(tick=0, channel=7, data=[67, 127]),
   midi.NoteOnEvent(tick=54, channel=7, data=[67, 0]),
   midi.NoteOnEvent(tick=0, channel=7, data=[69, 127]),
   midi.NoteOnEvent(tick=54, channel=7, data=[69, 0]),
   midi.NoteOnEvent(tick=0, channel=7, data=[67, 127]),
   midi.NoteOnEvent(tick=108, channel=7, data=[67, 0]),
   midi.NoteOnEvent(tick=0, channel=7, data=[67, 127]),
   midi.NoteOnEvent(tick=54, channel=7, data=[67, 0]),
   midi.NoteOnEvent(tick=0, channel=7, data=[69, 127]),
   midi.NoteOnEvent(tick=54, channel=7, data=[69, 0]),
   midi.NoteOnEvent(tick=0, channel=7, data=[67, 127]),
   midi.NoteOnEvent(tick=108, channel=7, data=[67, 0]),
   midi.NoteOnEvent(tick=0, channel=7, data=[74, 127]),
   midi.NoteOnEvent(tick=54, channel=7, data=[74, 0]),
   midi.NoteOnEvent(tick=0, channel=7, data=[71, 127]),
   midi.NoteOnEvent(tick=54, channel=7, data=[71, 0]),
   midi.NoteOnEvent(tick=0, channel=7, data=[74, 127]),
   midi.NoteOnEvent(tick=108, channel=7, data=[74, 0]),
   midi.NoteOnEvent(tick=0, channel=7, data=[71, 127]),
   midi.NoteOnEvent(tick=108, channel=7, data=[71, 0]),
   midi.NoteOnEvent(tick=0, channel=7, data=[74, 127]),
   midi.NoteOnEvent(tick=108, channel=7, data=[74, 0]),
   midi.NoteOnEvent(tick=0, channel=7, data=[71, 127]),
   midi.NoteOnEvent(tick=54, channel=7, data=[71, 0]),
   midi.NoteOnEvent(tick=0, channel=7, data=[70, 127]),
   midi.NoteOnEvent(tick=54, channel=7, data=[70, 0]),
   midi.NoteOnEvent(tick=0, channel=7, data=[71, 127]),
   midi.NoteOnEvent(tick=54, channel=7, data=[71, 0]),
   midi.NoteOnEvent(tick=0, channel=7, data=[74, 127]),
   midi.NoteOnEvent(tick=54, channel=7, data=[74, 0]),
   midi.NoteOnEvent(tick=0, channel=7, data=[71, 127]),
   midi.NoteOnEvent(tick=54, channel=7, data=[71, 0]),
   midi.NoteOnEvent(tick=0, channel=7, data=[70, 127]),
   midi.NoteOnEvent(tick=54, channel=7, data=[70, 0]),
   midi.NoteOnEvent(tick=0, channel=7, data=[71, 127]),
   midi.NoteOnEvent(tick=54, channel=7, data=[71, 0]),
   midi.NoteOnEvent(tick=0, channel=7, data=[74, 127]),
   midi.NoteOnEvent(tick=54, channel=7, data=[74, 0]),
   midi.NoteOnEvent(tick=0, channel=7, data=[71, 127]),
   midi.NoteOnEvent(tick=54, channel=7, data=[71, 0]),
   midi.NoteOnEvent(tick=0, channel=7, data=[69, 127]),
   midi.NoteOnEvent(tick=54, channel=7, data=[69, 0]),
   midi.NoteOnEvent(tick=0, channel=7, data=[71, 127]),
   midi.NoteOnEvent(tick=104, channel=7, data=[71, 0]),
   midi.NoteOnEvent(tick=4, channel=7, data=[74, 127]),
   midi.PitchWheelEvent(tick=5, channel=7, data=[0, 64]),
   midi.PitchWheelEvent(tick=4, channel=7, data=[0, 66]),
   midi.PitchWheelEvent(tick=3, channel=7, data=[0, 68]),
   midi.PitchWheelEvent(tick=6, channel=7, data=[0, 70]),
   midi.PitchWheelEvent(tick=1, channel=7, data=[0, 72]),
   midi.PitchWheelEvent(tick=4, channel=7, data=[0, 74]),
   midi.PitchWheelEvent(tick=4, channel=7, data=[0, 76]),
   midi.PitchWheelEvent(tick=3, channel=7, data=[0, 78]),
   midi.PitchWheelEvent(tick=6, channel=7, data=[0, 80]),
   midi.PitchWheelEvent(tick=1, channel=7, data=[0, 82]),
   midi.PitchWheelEvent(tick=4, channel=7, data=[0, 84]),
   midi.PitchWheelEvent(tick=4, channel=7, data=[0, 86]),
   midi.PitchWheelEvent(tick=3, channel=7, data=[0, 88]),
   midi.PitchWheelEvent(tick=6, channel=7, data=[0, 90]),
   midi.PitchWheelEvent(tick=1, channel=7, data=[0, 92]),
   midi.PitchWheelEvent(tick=4, channel=7, data=[0, 94]),
   midi.PitchWheelEvent(tick=4, channel=7, data=[0, 97]),
   midi.PitchWheelEvent(tick=3, channel=7, data=[0, 99]),
   midi.PitchWheelEvent(tick=6, channel=7, data=[0, 101]),
   midi.PitchWheelEvent(tick=1, channel=7, data=[0, 103]),
   midi.PitchWheelEvent(tick=4, channel=7, data=[0, 105]),
   midi.PitchWheelEvent(tick=4, channel=7, data=[0, 107]),
   midi.PitchWheelEvent(tick=3, channel=7, data=[0, 109]),
   midi.PitchWheelEvent(tick=6, channel=7, data=[0, 111]),
   midi.PitchWheelEvent(tick=1, channel=7, data=[0, 113]),
   midi.PitchWheelEvent(tick=4, channel=7, data=[0, 115]),
   midi.PitchWheelEvent(tick=4, channel=7, data=[0, 117]),
   midi.PitchWheelEvent(tick=3, channel=7, data=[0, 119]),
   midi.PitchWheelEvent(tick=6, channel=7, data=[0, 121]),
   midi.PitchWheelEvent(tick=1, channel=7, data=[0, 123]),
   midi.PitchWheelEvent(tick=4, channel=7, data=[0, 125]),
   midi.PitchWheelEvent(tick=4, channel=7, data=[127, 127]),
   midi.NoteOnEvent(tick=203, channel=7, data=[74, 0]),
   midi.NoteOnEvent(tick=112, channel=7, data=[79, 127]),
   midi.PitchWheelEvent(tick=0, channel=7, data=[0, 64]),
   midi.PitchWheelEvent(tick=1, channel=7, data=[0, 66]),
   midi.PitchWheelEvent(tick=4, channel=7, data=[0, 68]),
   midi.PitchWheelEvent(tick=4, channel=7, data=[0, 70]),
   midi.PitchWheelEvent(tick=3, channel=7, data=[0, 72]),
   midi.PitchWheelEvent(tick=6, channel=7, data=[0, 75]),
   midi.PitchWheelEvent(tick=1, channel=7, data=[0, 77]),
   midi.PitchWheelEvent(tick=4, channel=7, data=[0, 79]),
   midi.PitchWheelEvent(tick=4, channel=7, data=[0, 81]),
   midi.PitchWheelEvent(tick=3, channel=7, data=[0, 83]),
   midi.PitchWheelEvent(tick=6, channel=7, data=[0, 86]),
   midi.PitchWheelEvent(tick=1, channel=7, data=[0, 88]),
   midi.PitchWheelEvent(tick=4, channel=7, data=[0, 90]),
   midi.PitchWheelEvent(tick=4, channel=7, data=[0, 92]),
   midi.PitchWheelEvent(tick=3, channel=7, data=[0, 94]),
   midi.PitchWheelEvent(tick=6, channel=7, data=[0, 97]),
   midi.PitchWheelEvent(tick=1, channel=7, data=[0, 99]),
   midi.PitchWheelEvent(tick=4, channel=7, data=[0, 101]),
   midi.PitchWheelEvent(tick=4, channel=7, data=[0, 103]),
   midi.PitchWheelEvent(tick=3, channel=7, data=[0, 105]),
   midi.PitchWheelEvent(tick=6, channel=7, data=[0, 108]),
   midi.PitchWheelEvent(tick=1, channel=7, data=[0, 110]),
   midi.PitchWheelEvent(tick=4, channel=7, data=[0, 112]),
   midi.PitchWheelEvent(tick=4, channel=7, data=[0, 114]),
   midi.PitchWheelEvent(tick=3, channel=7, data=[0, 116]),
   midi.PitchWheelEvent(tick=6, channel=7, data=[0, 119]),
   midi.PitchWheelEvent(tick=1, channel=7, data=[0, 121]),
   midi.PitchWheelEvent(tick=4, channel=7, data=[0, 123]),
   midi.PitchWheelEvent(tick=4, channel=7, data=[0, 125]),
   midi.PitchWheelEvent(tick=3, channel=7, data=[127, 127]),
   midi.NoteOnEvent(tick=650, channel=7, data=[79, 0]),
   midi.NoteOnEvent(tick=4, channel=7, data=[74, 127]),
   midi.NoteOnEvent(tick=0, channel=7, data=[79, 127]),
   midi.PitchWheelEvent(tick=0, channel=7, data=[0, 64]),
   midi.PitchWheelEvent(tick=1, channel=7, data=[0, 65]),
   midi.PitchWheelEvent(tick=4, channel=7, data=[0, 67]),
   midi.PitchWheelEvent(tick=4, channel=7, data=[0, 69]),
   midi.PitchWheelEvent(tick=3, channel=7, data=[0, 71]),
   midi.PitchWheelEvent(tick=6, channel=7, data=[0, 73]),
   midi.PitchWheelEvent(tick=1, channel=7, data=[0, 75]),
   midi.PitchWheelEvent(tick=4, channel=7, data=[0, 77]),
   midi.PitchWheelEvent(tick=4, channel=7, data=[0, 79]),
   midi.PitchWheelEvent(tick=3, channel=7, data=[0, 81]),
   midi.PitchWheelEvent(tick=6, channel=7, data=[0, 83]),
   midi.PitchWheelEvent(tick=1, channel=7, data=[0, 85]),
   midi.PitchWheelEvent(tick=4, channel=7, data=[0, 87]),
   midi.PitchWheelEvent(tick=4, channel=7, data=[0, 89]),
   midi.PitchWheelEvent(tick=3, channel=7, data=[0, 91]),
   midi.PitchWheelEvent(tick=6, channel=7, data=[0, 93]),
   midi.PitchWheelEvent(tick=1, channel=7, data=[0, 95]),
   midi.PitchWheelEvent(tick=4, channel=7, data=[0, 96]),
   midi.PitchWheelEvent(tick=4, channel=7, data=[0, 98]),
   midi.PitchWheelEvent(tick=3, channel=7, data=[0, 100]),
   midi.PitchWheelEvent(tick=6, channel=7, data=[0, 102]),
   midi.PitchWheelEvent(tick=1, channel=7, data=[0, 104]),
   midi.PitchWheelEvent(tick=4, channel=7, data=[0, 106]),
   midi.PitchWheelEvent(tick=4, channel=7, data=[0, 108]),
   midi.PitchWheelEvent(tick=3, channel=7, data=[0, 110]),
   midi.PitchWheelEvent(tick=6, channel=7, data=[0, 112]),
   midi.PitchWheelEvent(tick=1, channel=7, data=[0, 114]),
   midi.PitchWheelEvent(tick=4, channel=7, data=[0, 116]),
   midi.PitchWheelEvent(tick=4, channel=7, data=[0, 118]),
   midi.PitchWheelEvent(tick=3, channel=7, data=[0, 120]),
   midi.PitchWheelEvent(tick=6, channel=7, data=[0, 122]),
   midi.PitchWheelEvent(tick=1, channel=7, data=[0, 124]),
   midi.PitchWheelEvent(tick=4, channel=7, data=[0, 126]),
   midi.PitchWheelEvent(tick=4, channel=7, data=[127, 127]),
   midi.PitchWheelEvent(tick=3, channel=7, data=[127, 127]),
   midi.PitchWheelEvent(tick=6, channel=7, data=[0, 126]),
   midi.PitchWheelEvent(tick=1, channel=7, data=[0, 124]),
   midi.PitchWheelEvent(tick=4, channel=7, data=[0, 121]),
   midi.PitchWheelEvent(tick=4, channel=7, data=[0, 119]),
   midi.PitchWheelEvent(tick=3, channel=7, data=[0, 117]),
   midi.PitchWheelEvent(tick=6, channel=7, data=[0, 114]),
   midi.PitchWheelEvent(tick=1, channel=7, data=[0, 112]),
   midi.PitchWheelEvent(tick=4, channel=7, data=[0, 110]),
   midi.PitchWheelEvent(tick=4, channel=7, data=[0, 107]),
   midi.PitchWheelEvent(tick=3, channel=7, data=[0, 105]),
   midi.PitchWheelEvent(tick=6, channel=7, data=[0, 102]),
   midi.PitchWheelEvent(tick=1, channel=7, data=[0, 100]),
   midi.PitchWheelEvent(tick=4, channel=7, data=[0, 98]),
   midi.PitchWheelEvent(tick=4, channel=7, data=[0, 95]),
   midi.PitchWheelEvent(tick=3, channel=7, data=[0, 93]),
   midi.PitchWheelEvent(tick=6, channel=7, data=[0, 91]),
   midi.PitchWheelEvent(tick=1, channel=7, data=[0, 88]),
   midi.PitchWheelEvent(tick=4, channel=7, data=[0, 86]),
   midi.PitchWheelEvent(tick=4, channel=7, data=[0, 83]),
   midi.PitchWheelEvent(tick=3, channel=7, data=[0, 81]),
   midi.PitchWheelEvent(tick=6, channel=7, data=[0, 79]),
   midi.PitchWheelEvent(tick=1, channel=7, data=[0, 76]),
   midi.PitchWheelEvent(tick=4, channel=7, data=[0, 74]),
   midi.PitchWheelEvent(tick=4, channel=7, data=[0, 72]),
   midi.PitchWheelEvent(tick=3, channel=7, data=[0, 69]),
   midi.NoteOnEvent(tick=6, channel=7, data=[79, 0]),
   midi.NoteOnEvent(tick=0, channel=7, data=[74, 0]),
   midi.NoteOnEvent(tick=0, channel=7, data=[79, 127]),
   midi.PitchWheelEvent(tick=0, channel=7, data=[0, 67]),
   midi.PitchWheelEvent(tick=1, channel=7, data=[0, 64]),
   midi.NoteOnEvent(tick=215, channel=7, data=[79, 0]),
   midi.NoteOnEvent(tick=0, channel=7, data=[76, 127]),
   midi.NoteOnEvent(tick=108, channel=7, data=[76, 0]),
   midi.NoteOnEvent(tick=0, channel=7, data=[76, 127]),
   midi.NoteOnEvent(tick=54, channel=7, data=[76, 0]),
   midi.NoteOnEvent(tick=0, channel=7, data=[79, 127]),
   midi.NoteOnEvent(tick=54, channel=7, data=[79, 0]),
   midi.NoteOnEvent(tick=0, channel=7, data=[76, 127]),
   midi.NoteOnEvent(tick=36, channel=7, data=[76, 0]),
   midi.NoteOnEvent(tick=0, channel=7, data=[74, 127]),
   midi.NoteOnEvent(tick=36, channel=7, data=[74, 0]),
   midi.NoteOnEvent(tick=0, channel=7, data=[71, 127]),
   midi.NoteOnEvent(tick=36, channel=7, data=[71, 0]),
   midi.NoteOnEvent(tick=0, channel=7, data=[76, 127]),
   midi.NoteOnEvent(tick=54, channel=7, data=[76, 0]),
   midi.NoteOnEvent(tick=0, channel=7, data=[74, 127]),
   midi.NoteOnEvent(tick=54, channel=7, data=[74, 0]),
   midi.NoteOnEvent(tick=0, channel=7, data=[76, 127]),
   midi.NoteOnEvent(tick=108, channel=7, data=[76, 0]),
   midi.NoteOnEvent(tick=0, channel=7, data=[71, 127]),
   midi.NoteOnEvent(tick=54, channel=7, data=[71, 0]),
   midi.NoteOnEvent(tick=0, channel=7, data=[74, 127]),
   midi.NoteOnEvent(tick=54, channel=7, data=[74, 0]),
   midi.NoteOnEvent(tick=0, channel=7, data=[71, 127]),
   midi.NoteOnEvent(tick=54, channel=7, data=[71, 0]),
   midi.NoteOnEvent(tick=0, channel=7, data=[69, 127]),
   midi.NoteOnEvent(tick=54, channel=7, data=[69, 0]),
   midi.NoteOnEvent(tick=0, channel=7, data=[71, 127]),
   midi.NoteOnEvent(tick=54, channel=7, data=[71, 0]),
   midi.NoteOnEvent(tick=0, channel=7, data=[74, 127]),
   midi.NoteOnEvent(tick=54, channel=7, data=[74, 0]),
   midi.NoteOnEvent(tick=0, channel=7, data=[71, 127]),
   midi.NoteOnEvent(tick=54, channel=7, data=[71, 0]),
   midi.NoteOnEvent(tick=0, channel=7, data=[74, 127]),
   midi.NoteOnEvent(tick=54, channel=7, data=[74, 0]),
   midi.NoteOnEvent(tick=0, channel=7, data=[71, 127]),
   midi.NoteOnEvent(tick=54, channel=7, data=[71, 0]),
   midi.NoteOnEvent(tick=0, channel=7, data=[69, 127]),
   midi.NoteOnEvent(tick=54, channel=7, data=[69, 0]),
   midi.NoteOnEvent(tick=0, channel=7, data=[71, 127]),
   midi.NoteOnEvent(tick=54, channel=7, data=[71, 0]),
   midi.NoteOnEvent(tick=0, channel=7, data=[74, 127]),
   midi.NoteOnEvent(tick=54, channel=7, data=[74, 0]),
   midi.NoteOnEvent(tick=0, channel=7, data=[71, 127]),
   midi.NoteOnEvent(tick=54, channel=7, data=[71, 0]),
   midi.NoteOnEvent(tick=0, channel=7, data=[69, 127]),
   midi.NoteOnEvent(tick=54, channel=7, data=[69, 0]),
   midi.NoteOnEvent(tick=0, channel=7, data=[71, 127]),
   midi.NoteOnEvent(tick=54, channel=7, data=[71, 0]),
   midi.NoteOnEvent(tick=0, channel=7, data=[74, 127]),
   midi.NoteOnEvent(tick=54, channel=7, data=[74, 0]),
   midi.NoteOnEvent(tick=0, channel=7, data=[71, 127]),
   midi.NoteOnEvent(tick=212, channel=7, data=[71, 0]),
   midi.NoteOnEvent(tick=4, channel=7, data=[74, 127]),
   midi.NoteOnEvent(tick=54, channel=7, data=[74, 0]),
   midi.NoteOnEvent(tick=0, channel=7, data=[74, 127]),
   midi.PitchWheelEvent(tick=0, channel=7, data=[0, 64]),
   midi.PitchWheelEvent(tick=1, channel=7, data=[0, 66]),
   midi.PitchWheelEvent(tick=4, channel=7, data=[0, 68]),
   midi.PitchWheelEvent(tick=4, channel=7, data=[0, 70]),
   midi.PitchWheelEvent(tick=3, channel=7, data=[0, 73]),
   midi.PitchWheelEvent(tick=6, channel=7, data=[0, 75]),
   midi.PitchWheelEvent(tick=1, channel=7, data=[0, 77]),
   midi.PitchWheelEvent(tick=4, channel=7, data=[0, 80]),
   midi.PitchWheelEvent(tick=4, channel=7, data=[0, 82]),
   midi.PitchWheelEvent(tick=3, channel=7, data=[0, 84]),
   midi.PitchWheelEvent(tick=6, channel=7, data=[0, 86]),
   midi.PitchWheelEvent(tick=1, channel=7, data=[0, 89]),
   midi.PitchWheelEvent(tick=4, channel=7, data=[0, 91]),
   midi.PitchWheelEvent(tick=4, channel=7, data=[0, 93]),
   midi.PitchWheelEvent(tick=3, channel=7, data=[0, 96]),
   midi.PitchWheelEvent(tick=6, channel=7, data=[0, 98]),
   midi.PitchWheelEvent(tick=1, channel=7, data=[0, 100]),
   midi.PitchWheelEvent(tick=4, channel=7, data=[0, 102]),
   midi.PitchWheelEvent(tick=4, channel=7, data=[0, 105]),
   midi.ControlChangeEvent(tick=0, channel=7, data=[1, 64]),
   midi.PitchWheelEvent(tick=3, channel=7, data=[0, 107]),
   midi.PitchWheelEvent(tick=6, channel=7, data=[0, 109]),
   midi.PitchWheelEvent(tick=1, channel=7, data=[0, 112]),
   midi.PitchWheelEvent(tick=4, channel=7, data=[0, 114]),
   midi.PitchWheelEvent(tick=4, channel=7, data=[0, 116]),
   midi.PitchWheelEvent(tick=3, channel=7, data=[0, 118]),
   midi.PitchWheelEvent(tick=6, channel=7, data=[0, 121]),
   midi.PitchWheelEvent(tick=1, channel=7, data=[0, 123]),
   midi.PitchWheelEvent(tick=4, channel=7, data=[0, 125]),
   midi.PitchWheelEvent(tick=4, channel=7, data=[127, 127]),
   midi.ControlChangeEvent(tick=378, channel=7, data=[1, 0]),
   midi.NoteOnEvent(tick=5, channel=7, data=[74, 0]),
   midi.NoteOnEvent(tick=4, channel=7, data=[71, 127]),
   midi.PitchWheelEvent(tick=0, channel=7, data=[0, 64]),
   midi.NoteOnEvent(tick=36, channel=7, data=[71, 0]),
   midi.NoteOnEvent(tick=0, channel=7, data=[69, 127]),
   midi.NoteOnEvent(tick=36, channel=7, data=[69, 0]),
   midi.NoteOnEvent(tick=0, channel=7, data=[67, 127]),
   midi.NoteOnEvent(tick=36, channel=7, data=[67, 0]),
   midi.NoteOnEvent(tick=0, channel=7, data=[71, 127]),
   midi.NoteOnEvent(tick=36, channel=7, data=[71, 0]),
   midi.NoteOnEvent(tick=0, channel=7, data=[69, 127]),
   midi.NoteOnEvent(tick=36, channel=7, data=[69, 0]),
   midi.NoteOnEvent(tick=0, channel=7, data=[67, 127]),
   midi.NoteOnEvent(tick=36, channel=7, data=[67, 0]),
   midi.NoteOnEvent(tick=0, channel=7, data=[71, 127]),
   midi.NoteOnEvent(tick=36, channel=7, data=[71, 0]),
   midi.NoteOnEvent(tick=0, channel=7, data=[69, 127]),
   midi.NoteOnEvent(tick=36, channel=7, data=[69, 0]),
   midi.NoteOnEvent(tick=0, channel=7, data=[67, 127]),
   midi.NoteOnEvent(tick=36, channel=7, data=[67, 0]),
   midi.NoteOnEvent(tick=0, channel=7, data=[71, 127]),
   midi.NoteOnEvent(tick=108, channel=7, data=[71, 0]),
   midi.NoteOnEvent(tick=0, channel=7, data=[62, 127]),
   midi.NoteOnEvent(tick=108, channel=7, data=[62, 0]),
   midi.NoteOnEvent(tick=0, channel=7, data=[71, 127]),
   midi.NoteOnEvent(tick=36, channel=7, data=[71, 0]),
   midi.NoteOnEvent(tick=0, channel=7, data=[69, 127]),
   midi.NoteOnEvent(tick=36, channel=7, data=[69, 0]),
   midi.NoteOnEvent(tick=0, channel=7, data=[67, 127]),
   midi.NoteOnEvent(tick=36, channel=7, data=[67, 0]),
   midi.NoteOnEvent(tick=0, channel=7, data=[69, 127]),
   midi.NoteOnEvent(tick=54, channel=7, data=[69, 0]),
   midi.NoteOnEvent(tick=0, channel=7, data=[71, 127]),
   midi.NoteOnEvent(tick=54, channel=7, data=[71, 0]),
   midi.NoteOnEvent(tick=0, channel=7, data=[62, 127]),
   midi.NoteOnEvent(tick=108, channel=7, data=[62, 0]),
   midi.NoteOnEvent(tick=0, channel=7, data=[71, 127]),
   midi.NoteOnEvent(tick=36, channel=7, data=[71, 0]),
   midi.NoteOnEvent(tick=0, channel=7, data=[69, 127]),
   midi.NoteOnEvent(tick=36, channel=7, data=[69, 0]),
   midi.NoteOnEvent(tick=0, channel=7, data=[67, 127]),
   midi.NoteOnEvent(tick=36, channel=7, data=[67, 0]),
   midi.NoteOnEvent(tick=0, channel=7, data=[71, 127]),
   midi.NoteOnEvent(tick=36, channel=7, data=[71, 0]),
   midi.NoteOnEvent(tick=0, channel=7, data=[69, 127]),
   midi.NoteOnEvent(tick=36, channel=7, data=[69, 0]),
   midi.NoteOnEvent(tick=0, channel=7, data=[67, 127]),
   midi.NoteOnEvent(tick=36, channel=7, data=[67, 0]),
   midi.NoteOnEvent(tick=0, channel=7, data=[71, 127]),
   midi.NoteOnEvent(tick=36, channel=7, data=[71, 0]),
   midi.NoteOnEvent(tick=0, channel=7, data=[69, 127]),
   midi.NoteOnEvent(tick=36, channel=7, data=[69, 0]),
   midi.NoteOnEvent(tick=0, channel=7, data=[67, 127]),
   midi.NoteOnEvent(tick=36, channel=7, data=[67, 0]),
   midi.NoteOnEvent(tick=0, channel=7, data=[69, 127]),
   midi.NoteOnEvent(tick=54, channel=7, data=[69, 0]),
   midi.NoteOnEvent(tick=0, channel=7, data=[71, 127]),
   midi.NoteOnEvent(tick=54, channel=7, data=[71, 0]),
   midi.NoteOnEvent(tick=0, channel=7, data=[67, 127]),
   midi.NoteOnEvent(tick=108, channel=7, data=[67, 0]),
   midi.NoteOnEvent(tick=0, channel=7, data=[71, 127]),
   midi.NoteOnEvent(tick=36, channel=7, data=[71, 0]),
   midi.NoteOnEvent(tick=0, channel=7, data=[69, 127]),
   midi.NoteOnEvent(tick=36, channel=7, data=[69, 0]),
   midi.NoteOnEvent(tick=0, channel=7, data=[67, 127]),
   midi.NoteOnEvent(tick=36, channel=7, data=[67, 0]),
   midi.NoteOnEvent(tick=0, channel=7, data=[71, 127]),
   midi.NoteOnEvent(tick=36, channel=7, data=[71, 0]),
   midi.NoteOnEvent(tick=0, channel=7, data=[69, 127]),
   midi.NoteOnEvent(tick=36, channel=7, data=[69, 0]),
   midi.NoteOnEvent(tick=0, channel=7, data=[67, 127]),
   midi.NoteOnEvent(tick=36, channel=7, data=[67, 0]),
   midi.NoteOnEvent(tick=0, channel=7, data=[71, 127]),
   midi.NoteOnEvent(tick=36, channel=7, data=[71, 0]),
   midi.NoteOnEvent(tick=0, channel=7, data=[69, 127]),
   midi.NoteOnEvent(tick=36, channel=7, data=[69, 0]),
   midi.NoteOnEvent(tick=0, channel=7, data=[67, 127]),
   midi.NoteOnEvent(tick=36, channel=7, data=[67, 0]),
   midi.NoteOnEvent(tick=0, channel=7, data=[71, 127]),
   midi.NoteOnEvent(tick=36, channel=7, data=[71, 0]),
   midi.NoteOnEvent(tick=0, channel=7, data=[69, 127]),
   midi.NoteOnEvent(tick=36, channel=7, data=[69, 0]),
   midi.NoteOnEvent(tick=0, channel=7, data=[67, 127]),
   midi.NoteOnEvent(tick=36, channel=7, data=[67, 0]),
   midi.NoteOnEvent(tick=0, channel=7, data=[71, 127]),
   midi.NoteOnEvent(tick=36, channel=7, data=[71, 0]),
   midi.NoteOnEvent(tick=0, channel=7, data=[69, 127]),
   midi.NoteOnEvent(tick=36, channel=7, data=[69, 0]),
   midi.NoteOnEvent(tick=0, channel=7, data=[67, 127]),
   midi.NoteOnEvent(tick=36, channel=7, data=[67, 0]),
   midi.NoteOnEvent(tick=0, channel=7, data=[73, 127]),
   midi.NoteOnEvent(tick=36, channel=7, data=[73, 0]),
   midi.NoteOnEvent(tick=0, channel=7, data=[71, 127]),
   midi.NoteOnEvent(tick=36, channel=7, data=[71, 0]),
   midi.NoteOnEvent(tick=0, channel=7, data=[67, 127]),
   midi.NoteOnEvent(tick=36, channel=7, data=[67, 0]),
   midi.NoteOnEvent(tick=0, channel=7, data=[73, 127]),
   midi.NoteOnEvent(tick=36, channel=7, data=[73, 0]),
   midi.NoteOnEvent(tick=0, channel=7, data=[71, 127]),
   midi.NoteOnEvent(tick=36, channel=7, data=[71, 0]),
   midi.NoteOnEvent(tick=0, channel=7, data=[67, 127]),
   midi.NoteOnEvent(tick=36, channel=7, data=[67, 0]),
   midi.NoteOnEvent(tick=0, channel=7, data=[75, 127]),
   midi.NoteOnEvent(tick=36, channel=7, data=[75, 0]),
   midi.NoteOnEvent(tick=0, channel=7, data=[72, 127]),
   midi.NoteOnEvent(tick=36, channel=7, data=[72, 0]),
   midi.NoteOnEvent(tick=0, channel=7, data=[67, 127]),
   midi.NoteOnEvent(tick=36, channel=7, data=[67, 0]),
   midi.NoteOnEvent(tick=0, channel=7, data=[75, 127]),
   midi.NoteOnEvent(tick=36, channel=7, data=[75, 0]),
   midi.NoteOnEvent(tick=0, channel=7, data=[72, 127]),
   midi.NoteOnEvent(tick=36, channel=7, data=[72, 0]),
   midi.NoteOnEvent(tick=0, channel=7, data=[67, 127]),
   midi.NoteOnEvent(tick=36, channel=7, data=[67, 0]),
   midi.NoteOnEvent(tick=0, channel=7, data=[77, 127]),
   midi.NoteOnEvent(tick=36, channel=7, data=[77, 0]),
   midi.NoteOnEvent(tick=0, channel=7, data=[75, 127]),
   midi.NoteOnEvent(tick=36, channel=7, data=[75, 0]),
   midi.NoteOnEvent(tick=0, channel=7, data=[67, 127]),
   midi.NoteOnEvent(tick=36, channel=7, data=[67, 0]),
   midi.NoteOnEvent(tick=0, channel=7, data=[77, 127]),
   midi.NoteOnEvent(tick=36, channel=7, data=[77, 0]),
   midi.NoteOnEvent(tick=0, channel=7, data=[75, 127]),
   midi.NoteOnEvent(tick=36, channel=7, data=[75, 0]),
   midi.NoteOnEvent(tick=0, channel=7, data=[67, 127]),
   midi.NoteOnEvent(tick=36, channel=7, data=[67, 0]),
   midi.NoteOnEvent(tick=0, channel=7, data=[79, 127]),
   midi.NoteOnEvent(tick=36, channel=7, data=[79, 0]),
   midi.NoteOnEvent(tick=0, channel=7, data=[77, 127]),
   midi.NoteOnEvent(tick=36, channel=7, data=[77, 0]),
   midi.NoteOnEvent(tick=0, channel=7, data=[67, 127]),
   midi.NoteOnEvent(tick=36, channel=7, data=[67, 0]),
   midi.NoteOnEvent(tick=0, channel=7, data=[79, 127]),
   midi.NoteOnEvent(tick=36, channel=7, data=[79, 0]),
   midi.NoteOnEvent(tick=0, channel=7, data=[77, 127]),
   midi.NoteOnEvent(tick=36, channel=7, data=[77, 0]),
   midi.NoteOnEvent(tick=0, channel=7, data=[67, 127]),
   midi.NoteOnEvent(tick=36, channel=7, data=[67, 0]),
   midi.NoteOnEvent(tick=0, channel=7, data=[79, 127]),
   midi.NoteOnEvent(tick=36, channel=7, data=[79, 0]),
   midi.NoteOnEvent(tick=0, channel=7, data=[77, 127]),
   midi.NoteOnEvent(tick=36, channel=7, data=[77, 0]),
   midi.NoteOnEvent(tick=0, channel=7, data=[67, 127]),
   midi.NoteOnEvent(tick=36, channel=7, data=[67, 0]),
   midi.NoteOnEvent(tick=0, channel=7, data=[79, 127]),
   midi.NoteOnEvent(tick=36, channel=7, data=[79, 0]),
   midi.NoteOnEvent(tick=0, channel=7, data=[77, 127]),
   midi.NoteOnEvent(tick=36, channel=7, data=[77, 0]),
   midi.NoteOnEvent(tick=0, channel=7, data=[67, 127]),
   midi.NoteOnEvent(tick=36, channel=7, data=[67, 0]),
   midi.NoteOnEvent(tick=0, channel=7, data=[81, 127]),
   midi.PitchWheelEvent(tick=36, channel=7, data=[0, 65]),
   midi.PitchWheelEvent(tick=5, channel=7, data=[0, 64]),
   midi.PitchWheelEvent(tick=7, channel=7, data=[0, 63]),
   midi.PitchWheelEvent(tick=6, channel=7, data=[0, 62]),
   midi.PitchWheelEvent(tick=5, channel=7, data=[0, 61]),
   midi.PitchWheelEvent(tick=4, channel=7, data=[0, 60]),
   midi.PitchWheelEvent(tick=9, channel=7, data=[0, 59]),
   midi.PitchWheelEvent(tick=5, channel=7, data=[0, 58]),
   midi.PitchWheelEvent(tick=4, channel=7, data=[0, 57]),
   midi.PitchWheelEvent(tick=9, channel=7, data=[0, 56]),
   midi.PitchWheelEvent(tick=1, channel=7, data=[0, 55]),
   midi.PitchWheelEvent(tick=8, channel=7, data=[0, 54]),
   midi.PitchWheelEvent(tick=9, channel=7, data=[0, 53]),
   midi.PitchWheelEvent(tick=1, channel=7, data=[0, 52]),
   midi.PitchWheelEvent(tick=8, channel=7, data=[0, 51]),
   midi.PitchWheelEvent(tick=3, channel=7, data=[0, 50]),
   midi.PitchWheelEvent(tick=7, channel=7, data=[0, 49]),
   midi.PitchWheelEvent(tick=8, channel=7, data=[0, 48]),
   midi.PitchWheelEvent(tick=3, channel=7, data=[0, 47]),
   midi.PitchWheelEvent(tick=7, channel=7, data=[0, 46]),
   midi.PitchWheelEvent(tick=4, channel=7, data=[0, 45]),
   midi.PitchWheelEvent(tick=7, channel=7, data=[0, 44]),
   midi.PitchWheelEvent(tick=7, channel=7, data=[0, 43]),
   midi.PitchWheelEvent(tick=4, channel=7, data=[0, 42]),
   midi.PitchWheelEvent(tick=7, channel=7, data=[0, 41]),
   midi.PitchWheelEvent(tick=6, channel=7, data=[0, 40]),
   midi.PitchWheelEvent(tick=5, channel=7, data=[0, 39]),
   midi.PitchWheelEvent(tick=7, channel=7, data=[0, 38]),
   midi.PitchWheelEvent(tick=6, channel=7, data=[0, 37]),
   midi.PitchWheelEvent(tick=5, channel=7, data=[0, 36]),
   midi.PitchWheelEvent(tick=4, channel=7, data=[0, 35]),
   midi.PitchWheelEvent(tick=9, channel=7, data=[0, 34]),
   midi.PitchWheelEvent(tick=1, channel=7, data=[0, 33]),
   midi.PitchWheelEvent(tick=8, channel=7, data=[0, 32]),
   midi.PitchWheelEvent(tick=9, channel=7, data=[0, 31]),
   midi.PitchWheelEvent(tick=1, channel=7, data=[0, 30]),
   midi.PitchWheelEvent(tick=8, channel=7, data=[0, 29]),
   midi.PitchWheelEvent(tick=3, channel=7, data=[0, 28]),
   midi.PitchWheelEvent(tick=7, channel=7, data=[0, 27]),
   midi.PitchWheelEvent(tick=8, channel=7, data=[0, 26]),
   midi.PitchWheelEvent(tick=3, channel=7, data=[0, 25]),
   midi.PitchWheelEvent(tick=7, channel=7, data=[0, 24]),
   midi.PitchWheelEvent(tick=4, channel=7, data=[0, 23]),
   midi.PitchWheelEvent(tick=7, channel=7, data=[0, 22]),
   midi.PitchWheelEvent(tick=7, channel=7, data=[0, 21]),
   midi.PitchWheelEvent(tick=4, channel=7, data=[0, 20]),
   midi.PitchWheelEvent(tick=7, channel=7, data=[0, 19]),
   midi.PitchWheelEvent(tick=6, channel=7, data=[0, 18]),
   midi.PitchWheelEvent(tick=5, channel=7, data=[0, 17]),
   midi.PitchWheelEvent(tick=7, channel=7, data=[0, 16]),
   midi.PitchWheelEvent(tick=6, channel=7, data=[0, 15]),
   midi.PitchWheelEvent(tick=5, channel=7, data=[0, 14]),
   midi.PitchWheelEvent(tick=4, channel=7, data=[0, 13]),
   midi.PitchWheelEvent(tick=9, channel=7, data=[0, 12]),
   midi.PitchWheelEvent(tick=5, channel=7, data=[0, 11]),
   midi.PitchWheelEvent(tick=4, channel=7, data=[0, 10]),
   midi.PitchWheelEvent(tick=9, channel=7, data=[0, 9]),
   midi.PitchWheelEvent(tick=1, channel=7, data=[0, 8]),
   midi.PitchWheelEvent(tick=8, channel=7, data=[0, 7]),
   midi.PitchWheelEvent(tick=9, channel=7, data=[0, 6]),
   midi.PitchWheelEvent(tick=1, channel=7, data=[0, 5]),
   midi.PitchWheelEvent(tick=8, channel=7, data=[0, 4]),
   midi.PitchWheelEvent(tick=3, channel=7, data=[0, 3]),
   midi.PitchWheelEvent(tick=7, channel=7, data=[0, 2]),
   midi.PitchWheelEvent(tick=4, channel=7, data=[0, 1]),
   midi.PitchWheelEvent(tick=22, channel=7, data=[0, 64]),
   midi.NoteOnEvent(tick=5, channel=7, data=[81, 0]),
   midi.NoteOnEvent(tick=4, channel=7, data=[76, 127]),
   midi.NoteOnEvent(tick=52, channel=7, data=[76, 0]),
   midi.NoteOnEvent(tick=56, channel=7, data=[79, 127]),
   midi.NoteOnEvent(tick=52, channel=7, data=[79, 0]),
   midi.NoteOnEvent(tick=56, channel=7, data=[78, 127]),
   midi.NoteOnEvent(tick=52, channel=7, data=[78, 0]),
   midi.NoteOnEvent(tick=56, channel=7, data=[76, 127]),
   midi.NoteOnEvent(tick=106, channel=7, data=[76, 0]),
   midi.NoteOnEvent(tick=2, channel=7, data=[74, 127]),
   midi.NoteOnEvent(tick=52, channel=7, data=[74, 0]),
   midi.NoteOnEvent(tick=20, channel=7, data=[76, 127]),
   midi.PitchWheelEvent(tick=32, channel=7, data=[127, 127]),
   midi.NoteOnEvent(tick=20, channel=7, data=[76, 0]),
   midi.PitchWheelEvent(tick=2, channel=7, data=[0, 64]),
   midi.NoteOnEvent(tick=18, channel=7, data=[74, 127]),
   midi.NoteOnEvent(tick=52, channel=7, data=[74, 0]),
   midi.NoteOnEvent(tick=20, channel=7, data=[71, 127]),
   midi.NoteOnEvent(tick=52, channel=7, data=[71, 0]),
   midi.NoteOnEvent(tick=20, channel=7, data=[73, 127]),
   midi.NoteOnEvent(tick=52, channel=7, data=[73, 0]),
   midi.NoteOnEvent(tick=20, channel=7, data=[71, 127]),
   midi.NoteOnEvent(tick=52, channel=7, data=[71, 0]),
   midi.NoteOnEvent(tick=20, channel=7, data=[73, 127]),
   midi.NoteOnEvent(tick=72, channel=7, data=[73, 0]),
   midi.NoteOnEvent(tick=0, channel=7, data=[71, 127]),
   midi.NoteOnEvent(tick=72, channel=7, data=[71, 0]),
   midi.NoteOnEvent(tick=0, channel=7, data=[69, 127]),
   midi.NoteOnEvent(tick=72, channel=7, data=[69, 0]),
   midi.NoteOnEvent(tick=0, channel=7, data=[67, 127]),
   midi.NoteOnEvent(tick=53, channel=7, data=[67, 0]),
   midi.NoteOnEvent(tick=55, channel=7, data=[64, 127]),
   midi.NoteOnEvent(tick=53, channel=7, data=[64, 0]),
   midi.NoteOnEvent(tick=55, channel=7, data=[62, 127]),
   midi.NoteOnEvent(tick=53, channel=7, data=[62, 0]),
   midi.NoteOnEvent(tick=55, channel=7, data=[59, 127]),
   midi.NoteOnEvent(tick=53, channel=7, data=[59, 0]),
   midi.NoteOnEvent(tick=55, channel=7, data=[58, 127]),
   midi.NoteOnEvent(tick=53, channel=7, data=[58, 0]),
   midi.NoteOnEvent(tick=55, channel=7, data=[57, 127]),
   midi.NoteOnEvent(tick=53, channel=7, data=[57, 0]),
   midi.NoteOnEvent(tick=55, channel=7, data=[55, 127]),
   midi.NoteOnEvent(tick=53, channel=7, data=[55, 0]),
   midi.NoteOnEvent(tick=55, channel=7, data=[56, 127]),
   midi.NoteOnEvent(tick=53, channel=7, data=[56, 0]),
   midi.NoteOnEvent(tick=55, channel=7, data=[59, 127]),
   midi.NoteOnEvent(tick=53, channel=7, data=[59, 0]),
   midi.NoteOnEvent(tick=55, channel=7, data=[62, 127]),
   midi.NoteOnEvent(tick=53, channel=7, data=[62, 0]),
   midi.NoteOnEvent(tick=55, channel=7, data=[64, 127]),
   midi.NoteOnEvent(tick=53, channel=7, data=[64, 0]),
   midi.NoteOnEvent(tick=55, channel=7, data=[66, 127]),
   midi.NoteOnEvent(tick=53, channel=7, data=[66, 0]),
   midi.NoteOnEvent(tick=55, channel=7, data=[62, 127]),
   midi.NoteOnEvent(tick=53, channel=7, data=[62, 0]),
   midi.NoteOnEvent(tick=55, channel=7, data=[59, 127]),
   midi.NoteOnEvent(tick=53, channel=7, data=[59, 0]),
   midi.NoteOnEvent(tick=55, channel=7, data=[62, 127]),
   midi.NoteOnEvent(tick=53, channel=7, data=[62, 0]),
   midi.NoteOnEvent(tick=55, channel=7, data=[64, 127]),
   midi.NoteOnEvent(tick=53, channel=7, data=[64, 0]),
   midi.NoteOnEvent(tick=55, channel=7, data=[81, 127]),
   midi.NoteOnEvent(tick=0, channel=7, data=[62, 127]),
   midi.NoteOnEvent(tick=108, channel=7, data=[62, 0]),
   midi.NoteOnEvent(tick=0, channel=7, data=[81, 0]),
   midi.NoteOnEvent(tick=0, channel=7, data=[64, 127]),
   midi.ControlChangeEvent(tick=117, channel=7, data=[1, 67]),
   midi.PitchWheelEvent(tick=280, channel=7, data=[0, 64]),
   midi.PitchWheelEvent(tick=4, channel=7, data=[0, 62]),
   midi.PitchWheelEvent(tick=4, channel=7, data=[0, 60]),
   midi.PitchWheelEvent(tick=3, channel=7, data=[0, 58]),
   midi.PitchWheelEvent(tick=6, channel=7, data=[0, 55]),
   midi.PitchWheelEvent(tick=1, channel=7, data=[0, 53]),
   midi.PitchWheelEvent(tick=4, channel=7, data=[0, 51]),
   midi.PitchWheelEvent(tick=4, channel=7, data=[0, 49]),
   midi.PitchWheelEvent(tick=3, channel=7, data=[0, 46]),
   midi.PitchWheelEvent(tick=6, channel=7, data=[0, 44]),
   midi.PitchWheelEvent(tick=1, channel=7, data=[0, 42]),
   midi.PitchWheelEvent(tick=4, channel=7, data=[0, 40]),
   midi.PitchWheelEvent(tick=4, channel=7, data=[0, 37]),
   midi.PitchWheelEvent(tick=3, channel=7, data=[0, 35]),
   midi.PitchWheelEvent(tick=6, channel=7, data=[0, 33]),
   midi.PitchWheelEvent(tick=1, channel=7, data=[0, 31]),
   midi.PitchWheelEvent(tick=4, channel=7, data=[0, 28]),
   midi.PitchWheelEvent(tick=4, channel=7, data=[0, 26]),
   midi.PitchWheelEvent(tick=3, channel=7, data=[0, 24]),
   midi.PitchWheelEvent(tick=6, channel=7, data=[0, 22]),
   midi.PitchWheelEvent(tick=1, channel=7, data=[0, 19]),
   midi.PitchWheelEvent(tick=4, channel=7, data=[0, 17]),
   midi.PitchWheelEvent(tick=4, channel=7, data=[0, 15]),
   midi.PitchWheelEvent(tick=3, channel=7, data=[0, 13]),
   midi.PitchWheelEvent(tick=6, channel=7, data=[0, 10]),
   midi.PitchWheelEvent(tick=1, channel=7, data=[0, 8]),
   midi.PitchWheelEvent(tick=4, channel=7, data=[0, 6]),
   midi.PitchWheelEvent(tick=4, channel=7, data=[0, 4]),
   midi.PitchWheelEvent(tick=3, channel=7, data=[0, 1]),
   midi.PitchWheelEvent(tick=24, channel=7, data=[0, 0]),
   midi.PitchWheelEvent(tick=1, channel=7, data=[0, 0]),
   midi.ControlChangeEvent(tick=4, channel=7, data=[1, 0]),
   midi.PitchWheelEvent(tick=0, channel=7, data=[0, 4]),
   midi.PitchWheelEvent(tick=4, channel=7, data=[0, 8]),
   midi.PitchWheelEvent(tick=3, channel=7, data=[0, 11]),
   midi.NoteOnEvent(tick=2, channel=7, data=[64, 0]),
   midi.NoteOnEvent(tick=4, channel=7, data=[59, 127]),
   midi.PitchWheelEvent(tick=0, channel=7, data=[0, 15]),
   midi.PitchWheelEvent(tick=1, channel=7, data=[0, 19]),
   midi.PitchWheelEvent(tick=4, channel=7, data=[0, 23]),
   midi.PitchWheelEvent(tick=4, channel=7, data=[0, 26]),
   midi.PitchWheelEvent(tick=3, channel=7, data=[0, 30]),
   midi.PitchWheelEvent(tick=6, channel=7, data=[0, 34]),
   midi.PitchWheelEvent(tick=1, channel=7, data=[0, 37]),
   midi.PitchWheelEvent(tick=4, channel=7, data=[0, 41]),
   midi.PitchWheelEvent(tick=4, channel=7, data=[0, 45]),
   midi.PitchWheelEvent(tick=3, channel=7, data=[0, 49]),
   midi.PitchWheelEvent(tick=6, channel=7, data=[0, 52]),
   midi.PitchWheelEvent(tick=1, channel=7, data=[0, 56]),
   midi.PitchWheelEvent(tick=4, channel=7, data=[0, 60]),
   midi.PitchWheelEvent(tick=4, channel=7, data=[0, 64]),
   midi.NoteOnEvent(tick=63, channel=7, data=[59, 0]),
   midi.NoteOnEvent(tick=0, channel=7, data=[62, 127]),
   midi.NoteOnEvent(tick=108, channel=7, data=[62, 0]),
   midi.NoteOnEvent(tick=0, channel=7, data=[66, 127]),
   midi.NoteOnEvent(tick=108, channel=7, data=[66, 0]),
   midi.NoteOnEvent(tick=0, channel=7, data=[69, 127]),
   midi.PitchWheelEvent(tick=1, channel=7, data=[0, 64]),
   midi.PitchWheelEvent(tick=4, channel=7, data=[0, 66]),
   midi.PitchWheelEvent(tick=4, channel=7, data=[0, 69]),
   midi.PitchWheelEvent(tick=3, channel=7, data=[0, 72]),
   midi.PitchWheelEvent(tick=6, channel=7, data=[0, 74]),
   midi.PitchWheelEvent(tick=1, channel=7, data=[0, 77]),
   midi.PitchWheelEvent(tick=4, channel=7, data=[0, 80]),
   midi.ControlChangeEvent(tick=0, channel=7, data=[1, 65]),
   midi.PitchWheelEvent(tick=4, channel=7, data=[0, 82]),
   midi.PitchWheelEvent(tick=3, channel=7, data=[0, 85]),
   midi.PitchWheelEvent(tick=6, channel=7, data=[0, 88]),
   midi.PitchWheelEvent(tick=1, channel=7, data=[0, 90]),
   midi.PitchWheelEvent(tick=4, channel=7, data=[0, 93]),
   midi.PitchWheelEvent(tick=4, channel=7, data=[0, 96]),
   midi.PitchWheelEvent(tick=3, channel=7, data=[0, 98]),
   midi.PitchWheelEvent(tick=6, channel=7, data=[0, 101]),
   midi.PitchWheelEvent(tick=1, channel=7, data=[0, 104]),
   midi.PitchWheelEvent(tick=4, channel=7, data=[0, 106]),
   midi.PitchWheelEvent(tick=4, channel=7, data=[0, 109]),
   midi.PitchWheelEvent(tick=3, channel=7, data=[0, 112]),
   midi.PitchWheelEvent(tick=6, channel=7, data=[0, 114]),
   midi.PitchWheelEvent(tick=1, channel=7, data=[0, 117]),
   midi.PitchWheelEvent(tick=4, channel=7, data=[0, 120]),
   midi.PitchWheelEvent(tick=4, channel=7, data=[0, 122]),
   midi.PitchWheelEvent(tick=3, channel=7, data=[0, 125]),
   midi.PitchWheelEvent(tick=6, channel=7, data=[127, 127]),
   midi.ControlChangeEvent(tick=216, channel=7, data=[1, 0]),
   midi.PitchWheelEvent(tick=1, channel=7, data=[0, 64]),
   midi.NoteOnEvent(tick=13, channel=7, data=[69, 0]),
   midi.NoteOnEvent(tick=4, channel=7, data=[69, 127]),
   midi.NoteOnEvent(tick=108, channel=7, data=[69, 0]),
   midi.NoteOnEvent(tick=0, channel=7, data=[67, 127]),
   midi.NoteOnEvent(tick=108, channel=7, data=[67, 0]),
   midi.NoteOnEvent(tick=0, channel=7, data=[78, 127]),
   midi.NoteOnEvent(tick=108, channel=7, data=[78, 0]),
   midi.NoteOnEvent(tick=0, channel=7, data=[64, 127]),
   midi.NoteOnEvent(tick=108, channel=7, data=[64, 0]),
   midi.NoteOnEvent(tick=0, channel=7, data=[66, 127]),
   midi.NoteOnEvent(tick=108, channel=7, data=[66, 0]),
   midi.NoteOnEvent(tick=0, channel=7, data=[67, 127]),
   midi.NoteOnEvent(tick=108, channel=7, data=[67, 0]),
   midi.NoteOnEvent(tick=0, channel=7, data=[66, 127]),
   midi.NoteOnEvent(tick=36, channel=7, data=[66, 0]),
   midi.NoteOnEvent(tick=0, channel=7, data=[67, 127]),
   midi.NoteOnEvent(tick=36, channel=7, data=[67, 0]),
   midi.NoteOnEvent(tick=0, channel=7, data=[66, 127]),
   midi.NoteOnEvent(tick=36, channel=7, data=[66, 0]),
   midi.NoteOnEvent(tick=0, channel=7, data=[64, 127]),
   midi.NoteOnEvent(tick=108, channel=7, data=[64, 0]),
   midi.NoteOnEvent(tick=0, channel=7, data=[62, 127]),
   midi.NoteOnEvent(tick=108, channel=7, data=[62, 0]),
   midi.NoteOnEvent(tick=0, channel=7, data=[61, 127]),
   midi.NoteOnEvent(tick=108, channel=7, data=[61, 0]),
   midi.NoteOnEvent(tick=0, channel=7, data=[62, 127]),
   midi.NoteOnEvent(tick=144, channel=7, data=[62, 0]),
   midi.NoteOnEvent(tick=0, channel=7, data=[62, 127]),
   midi.PitchWheelEvent(tick=1, channel=7, data=[0, 64]),
   midi.PitchWheelEvent(tick=4, channel=7, data=[0, 67]),
   midi.PitchWheelEvent(tick=4, channel=7, data=[0, 71]),
   midi.PitchWheelEvent(tick=3, channel=7, data=[0, 75]),
   midi.PitchWheelEvent(tick=6, channel=7, data=[0, 79]),
   midi.PitchWheelEvent(tick=1, channel=7, data=[0, 82]),
   midi.PitchWheelEvent(tick=4, channel=7, data=[0, 86]),
   midi.PitchWheelEvent(tick=4, channel=7, data=[0, 90]),
   midi.PitchWheelEvent(tick=3, channel=7, data=[0, 94]),
   midi.PitchWheelEvent(tick=6, channel=7, data=[0, 97]),
   midi.PitchWheelEvent(tick=1, channel=7, data=[0, 101]),
   midi.PitchWheelEvent(tick=4, channel=7, data=[0, 105]),
   midi.PitchWheelEvent(tick=4, channel=7, data=[0, 109]),
   midi.PitchWheelEvent(tick=3, channel=7, data=[0, 112]),
   midi.PitchWheelEvent(tick=6, channel=7, data=[0, 116]),
   midi.PitchWheelEvent(tick=1, channel=7, data=[0, 120]),
   midi.PitchWheelEvent(tick=4, channel=7, data=[0, 124]),
   midi.PitchWheelEvent(tick=4, channel=7, data=[127, 127]),
   midi.NoteOnEvent(tick=81, channel=7, data=[62, 0]),
   midi.NoteOnEvent(tick=0, channel=7, data=[62, 127]),
   midi.PitchWheelEvent(tick=9, channel=7, data=[0, 64]),
   midi.NoteOnEvent(tick=135, channel=7, data=[62, 0]),
   midi.NoteOnEvent(tick=0, channel=7, data=[61, 127]),
   midi.NoteOnEvent(tick=144, channel=7, data=[61, 0]),
   midi.NoteOnEvent(tick=0, channel=7, data=[59, 127]),
   midi.NoteOnEvent(tick=144, channel=7, data=[59, 0]),
   midi.NoteOnEvent(tick=0, channel=7, data=[62, 127]),
   midi.NoteOnEvent(tick=144, channel=7, data=[62, 0]),
   midi.NoteOnEvent(tick=0, channel=7, data=[61, 127]),
   midi.NoteOnEvent(tick=144, channel=7, data=[61, 0]),
   midi.NoteOnEvent(tick=0, channel=7, data=[57, 127]),
   midi.NoteOnEvent(tick=144, channel=7, data=[57, 0]),
   midi.NoteOnEvent(tick=0, channel=7, data=[56, 127]),
   midi.NoteOnEvent(tick=144, channel=7, data=[56, 0]),
   midi.NoteOnEvent(tick=0, channel=7, data=[57, 127]),
   midi.PitchWheelEvent(tick=0, channel=7, data=[0, 64]),
   midi.PitchWheelEvent(tick=1, channel=7, data=[0, 65]),
   midi.PitchWheelEvent(tick=4, channel=7, data=[0, 67]),
   midi.PitchWheelEvent(tick=4, channel=7, data=[0, 69]),
   midi.PitchWheelEvent(tick=3, channel=7, data=[0, 71]),
   midi.PitchWheelEvent(tick=6, channel=7, data=[0, 73]),
   midi.ControlChangeEvent(tick=0, channel=7, data=[1, 64]),
   midi.PitchWheelEvent(tick=1, channel=7, data=[0, 75]),
   midi.PitchWheelEvent(tick=4, channel=7, data=[0, 77]),
   midi.PitchWheelEvent(tick=4, channel=7, data=[0, 79]),
   midi.PitchWheelEvent(tick=3, channel=7, data=[0, 81]),
   midi.PitchWheelEvent(tick=6, channel=7, data=[0, 83]),
   midi.PitchWheelEvent(tick=1, channel=7, data=[0, 85]),
   midi.PitchWheelEvent(tick=4, channel=7, data=[0, 87]),
   midi.PitchWheelEvent(tick=4, channel=7, data=[0, 89]),
   midi.PitchWheelEvent(tick=3, channel=7, data=[0, 91]),
   midi.PitchWheelEvent(tick=6, channel=7, data=[0, 93]),
   midi.PitchWheelEvent(tick=1, channel=7, data=[0, 95]),
   midi.PitchWheelEvent(tick=4, channel=7, data=[0, 96]),
   midi.PitchWheelEvent(tick=4, channel=7, data=[0, 98]),
   midi.PitchWheelEvent(tick=3, channel=7, data=[0, 100]),
   midi.PitchWheelEvent(tick=6, channel=7, data=[0, 102]),
   midi.PitchWheelEvent(tick=1, channel=7, data=[0, 104]),
   midi.PitchWheelEvent(tick=4, channel=7, data=[0, 106]),
   midi.PitchWheelEvent(tick=4, channel=7, data=[0, 108]),
   midi.PitchWheelEvent(tick=3, channel=7, data=[0, 110]),
   midi.PitchWheelEvent(tick=6, channel=7, data=[0, 112]),
   midi.PitchWheelEvent(tick=1, channel=7, data=[0, 114]),
   midi.PitchWheelEvent(tick=4, channel=7, data=[0, 116]),
   midi.PitchWheelEvent(tick=4, channel=7, data=[0, 118]),
   midi.PitchWheelEvent(tick=3, channel=7, data=[0, 120]),
   midi.PitchWheelEvent(tick=6, channel=7, data=[0, 122]),
   midi.PitchWheelEvent(tick=1, channel=7, data=[0, 124]),
   midi.PitchWheelEvent(tick=4, channel=7, data=[0, 126]),
   midi.PitchWheelEvent(tick=4, channel=7, data=[127, 127]),
   midi.ControlChangeEvent(tick=302, channel=7, data=[1, 0]),
   midi.NoteOnEvent(tick=13, channel=7, data=[57, 0]),
   midi.NoteOnEvent(tick=0, channel=7, data=[64, 127]),
   midi.PitchWheelEvent(tick=0, channel=7, data=[0, 0]),
   midi.PitchWheelEvent(tick=1, channel=7, data=[0, 3]),
   midi.PitchWheelEvent(tick=4, channel=7, data=[0, 10]),
   midi.PitchWheelEvent(tick=4, channel=7, data=[0, 17]),
   midi.PitchWheelEvent(tick=3, channel=7, data=[0, 23]),
   midi.PitchWheelEvent(tick=6, channel=7, data=[0, 30]),
   midi.PitchWheelEvent(tick=1, channel=7, data=[0, 37]),
   midi.PitchWheelEvent(tick=4, channel=7, data=[0, 43]),
   midi.PitchWheelEvent(tick=4, channel=7, data=[0, 50]),
   midi.PitchWheelEvent(tick=3, channel=7, data=[0, 57]),
   midi.PitchWheelEvent(tick=6, channel=7, data=[0, 64]),
   midi.NoteOnEvent(tick=72, channel=7, data=[64, 0]),
   midi.NoteOnEvent(tick=0, channel=7, data=[67, 127]),
   midi.NoteOnEvent(tick=108, channel=7, data=[67, 0]),
   midi.NoteOnEvent(tick=0, channel=7, data=[71, 127]),
   midi.NoteOnEvent(tick=108, channel=7, data=[71, 0]),
   midi.NoteOnEvent(tick=0, channel=7, data=[74, 127]),
   midi.PitchWheelEvent(tick=9, channel=7, data=[0, 64]),
   midi.PitchWheelEvent(tick=3, channel=7, data=[0, 67]),
   midi.PitchWheelEvent(tick=6, channel=7, data=[0, 71]),
   midi.ControlChangeEvent(tick=0, channel=7, data=[1, 67]),
   midi.PitchWheelEvent(tick=1, channel=7, data=[0, 74]),
   midi.PitchWheelEvent(tick=4, channel=7, data=[0, 78]),
   midi.PitchWheelEvent(tick=4, channel=7, data=[0, 81]),
   midi.PitchWheelEvent(tick=3, channel=7, data=[0, 85]),
   midi.PitchWheelEvent(tick=6, channel=7, data=[0, 88]),
   midi.PitchWheelEvent(tick=1, channel=7, data=[0, 92]),
   midi.PitchWheelEvent(tick=4, channel=7, data=[0, 96]),
   midi.PitchWheelEvent(tick=4, channel=7, data=[0, 99]),
   midi.PitchWheelEvent(tick=3, channel=7, data=[0, 103]),
   midi.PitchWheelEvent(tick=6, channel=7, data=[0, 106]),
   midi.PitchWheelEvent(tick=1, channel=7, data=[0, 110]),
   midi.PitchWheelEvent(tick=4, channel=7, data=[0, 113]),
   midi.PitchWheelEvent(tick=4, channel=7, data=[0, 117]),
   midi.PitchWheelEvent(tick=3, channel=7, data=[0, 120]),
   midi.PitchWheelEvent(tick=6, channel=7, data=[0, 124]),
   midi.PitchWheelEvent(tick=1, channel=7, data=[127, 127]),
   midi.ControlChangeEvent(tick=234, channel=7, data=[1, 0]),
   midi.PitchWheelEvent(tick=4, channel=7, data=[0, 64]),
   midi.NoteOnEvent(tick=9, channel=7, data=[74, 0]),
   midi.NoteOnEvent(tick=4, channel=7, data=[74, 127]),
   midi.NoteOnEvent(tick=72, channel=7, data=[74, 0]),
   midi.NoteOnEvent(tick=0, channel=7, data=[71, 127]),
   midi.NoteOnEvent(tick=72, channel=7, data=[71, 0]),
   midi.NoteOnEvent(tick=0, channel=7, data=[69, 127]),
   midi.NoteOnEvent(tick=72, channel=7, data=[69, 0]),
   midi.NoteOnEvent(tick=0, channel=7, data=[71, 127]),
   midi.NoteOnEvent(tick=108, channel=7, data=[71, 0]),
   midi.NoteOnEvent(tick=0, channel=7, data=[67, 127]),
   midi.PitchWheelEvent(tick=5, channel=7, data=[0, 64]),
   midi.PitchWheelEvent(tick=4, channel=7, data=[0, 66]),
   midi.PitchWheelEvent(tick=3, channel=7, data=[0, 68]),
   midi.ControlChangeEvent(tick=0, channel=7, data=[1, 64]),
   midi.PitchWheelEvent(tick=6, channel=7, data=[0, 70]),
   midi.PitchWheelEvent(tick=1, channel=7, data=[0, 73]),
   midi.PitchWheelEvent(tick=4, channel=7, data=[0, 75]),
   midi.PitchWheelEvent(tick=4, channel=7, data=[0, 77]),
   midi.PitchWheelEvent(tick=3, channel=7, data=[0, 80]),
   midi.PitchWheelEvent(tick=6, channel=7, data=[0, 82]),
   midi.PitchWheelEvent(tick=1, channel=7, data=[0, 84]),
   midi.PitchWheelEvent(tick=4, channel=7, data=[0, 86]),
   midi.PitchWheelEvent(tick=4, channel=7, data=[0, 89]),
   midi.PitchWheelEvent(tick=3, channel=7, data=[0, 91]),
   midi.PitchWheelEvent(tick=6, channel=7, data=[0, 93]),
   midi.PitchWheelEvent(tick=1, channel=7, data=[0, 96]),
   midi.PitchWheelEvent(tick=4, channel=7, data=[0, 98]),
   midi.PitchWheelEvent(tick=4, channel=7, data=[0, 100]),
   midi.PitchWheelEvent(tick=3, channel=7, data=[0, 102]),
   midi.PitchWheelEvent(tick=6, channel=7, data=[0, 105]),
   midi.PitchWheelEvent(tick=1, channel=7, data=[0, 107]),
   midi.PitchWheelEvent(tick=4, channel=7, data=[0, 109]),
   midi.PitchWheelEvent(tick=4, channel=7, data=[0, 112]),
   midi.PitchWheelEvent(tick=3, channel=7, data=[0, 114]),
   midi.PitchWheelEvent(tick=6, channel=7, data=[0, 116]),
   midi.PitchWheelEvent(tick=1, channel=7, data=[0, 118]),
   midi.PitchWheelEvent(tick=4, channel=7, data=[0, 121]),
   midi.PitchWheelEvent(tick=4, channel=7, data=[0, 123]),
   midi.PitchWheelEvent(tick=3, channel=7, data=[0, 125]),
   midi.PitchWheelEvent(tick=6, channel=7, data=[127, 127]),
   midi.PitchWheelEvent(tick=66, channel=7, data=[0, 64]),
   midi.ControlChangeEvent(tick=11, channel=7, data=[1, 0]),
   midi.NoteOnEvent(tick=27, channel=7, data=[67, 0]),
   midi.NoteOnEvent(tick=4, channel=7, data=[79, 127]),
   midi.NoteOnEvent(tick=54, channel=7, data=[79, 0]),
   midi.NoteOnEvent(tick=0, channel=7, data=[76, 127]),
   midi.NoteOnEvent(tick=54, channel=7, data=[76, 0]),
   midi.NoteOnEvent(tick=0, channel=7, data=[79, 127]),
   midi.ControlChangeEvent(tick=45, channel=7, data=[1, 63]),
   midi.NoteOnEvent(tick=9, channel=7, data=[79, 0]),
   midi.NoteOnEvent(tick=0, channel=7, data=[76, 127]),
   midi.ControlChangeEvent(tick=360, channel=7, data=[1, 0]),
   midi.NoteOnEvent(tick=14, channel=7, data=[76, 0]),
   midi.NoteOnEvent(tick=4, channel=7, data=[84, 127]),
   midi.NoteOnEvent(tick=54, channel=7, data=[84, 0]),
   midi.NoteOnEvent(tick=0, channel=7, data=[79, 127]),
   midi.NoteOnEvent(tick=54, channel=7, data=[79, 0]),
   midi.NoteOnEvent(tick=0, channel=7, data=[84, 127]),
   midi.NoteOnEvent(tick=54, channel=7, data=[84, 0]),
   midi.NoteOnEvent(tick=0, channel=7, data=[79, 127]),
   midi.NoteOnEvent(tick=54, channel=7, data=[79, 0]),
   midi.NoteOnEvent(tick=0, channel=7, data=[72, 127]),
   midi.NoteOnEvent(tick=72, channel=7, data=[72, 0]),
   midi.NoteOnEvent(tick=0, channel=7, data=[71, 127]),
   midi.NoteOnEvent(tick=72, channel=7, data=[71, 0]),
   midi.NoteOnEvent(tick=0, channel=7, data=[69, 127]),
   midi.NoteOnEvent(tick=72, channel=7, data=[69, 0]),
   midi.NoteOnEvent(tick=0, channel=7, data=[69, 127]),
   midi.NoteOnEvent(tick=54, channel=7, data=[69, 0]),
   midi.NoteOnEvent(tick=0, channel=7, data=[71, 127]),
   midi.NoteOnEvent(tick=54, channel=7, data=[71, 0]),
   midi.NoteOnEvent(tick=0, channel=7, data=[78, 127]),
   midi.NoteOnEvent(tick=54, channel=7, data=[78, 0]),
   midi.NoteOnEvent(tick=0, channel=7, data=[78, 127]),
   midi.NoteOnEvent(tick=54, channel=7, data=[78, 0]),
   midi.NoteOnEvent(tick=0, channel=7, data=[71, 127]),
   midi.NoteOnEvent(tick=72, channel=7, data=[71, 0]),
   midi.NoteOnEvent(tick=0, channel=7, data=[69, 127]),
   midi.NoteOnEvent(tick=72, channel=7, data=[69, 0]),
   midi.NoteOnEvent(tick=0, channel=7, data=[67, 127]),
   midi.NoteOnEvent(tick=72, channel=7, data=[67, 0]),
   midi.NoteOnEvent(tick=0, channel=7, data=[69, 127]),
   midi.NoteOnEvent(tick=72, channel=7, data=[69, 0]),
   midi.NoteOnEvent(tick=0, channel=7, data=[67, 127]),
   midi.NoteOnEvent(tick=88, channel=7, data=[67, 0]),
   midi.NoteOnEvent(tick=2, channel=7, data=[66, 127]),
   midi.NoteOnEvent(tick=18, channel=7, data=[67, 127]),
   midi.NoteOnEvent(tick=14, channel=7, data=[66, 0]),
   midi.NoteOnEvent(tick=20, channel=7, data=[67, 0]),
   midi.NoteOnEvent(tick=2, channel=7, data=[66, 127]),
   midi.NoteOnEvent(tick=36, channel=7, data=[66, 0]),
   midi.NoteOnEvent(tick=0, channel=7, data=[67, 127]),
   midi.NoteOnEvent(tick=36, channel=7, data=[67, 0]),
   midi.NoteOnEvent(tick=0, channel=7, data=[66, 127]),
   midi.NoteOnEvent(tick=36, channel=7, data=[66, 0]),
   midi.NoteOnEvent(tick=0, channel=7, data=[64, 127]),
   midi.NoteOnEvent(tick=108, channel=7, data=[64, 0]),
   midi.NoteOnEvent(tick=0, channel=7, data=[41, 127]),
   midi.PitchWheelEvent(tick=27, channel=7, data=[0, 64]),
   midi.PitchWheelEvent(tick=3, channel=7, data=[0, 63]),
   midi.PitchWheelEvent(tick=6, channel=7, data=[0, 62]),
   midi.PitchWheelEvent(tick=1, channel=7, data=[0, 61]),
   midi.PitchWheelEvent(tick=4, channel=7, data=[0, 59]),
   midi.PitchWheelEvent(tick=4, channel=7, data=[0, 58]),
   midi.PitchWheelEvent(tick=3, channel=7, data=[0, 57]),
   midi.PitchWheelEvent(tick=6, channel=7, data=[0, 56]),
   midi.PitchWheelEvent(tick=1, channel=7, data=[0, 54]),
   midi.PitchWheelEvent(tick=4, channel=7, data=[0, 53]),
   midi.PitchWheelEvent(tick=4, channel=7, data=[0, 52]),
   midi.PitchWheelEvent(tick=3, channel=7, data=[0, 51]),
   midi.PitchWheelEvent(tick=6, channel=7, data=[0, 49]),
   midi.PitchWheelEvent(tick=1, channel=7, data=[0, 48]),
   midi.PitchWheelEvent(tick=4, channel=7, data=[0, 47]),
   midi.PitchWheelEvent(tick=4, channel=7, data=[0, 46]),
   midi.PitchWheelEvent(tick=3, channel=7, data=[0, 44]),
   midi.PitchWheelEvent(tick=6, channel=7, data=[0, 43]),
   midi.PitchWheelEvent(tick=1, channel=7, data=[0, 42]),
   midi.PitchWheelEvent(tick=4, channel=7, data=[0, 41]),
   midi.PitchWheelEvent(tick=4, channel=7, data=[0, 39]),
   midi.PitchWheelEvent(tick=3, channel=7, data=[0, 38]),
   midi.PitchWheelEvent(tick=6, channel=7, data=[0, 37]),
   midi.PitchWheelEvent(tick=1, channel=7, data=[0, 36]),
   midi.PitchWheelEvent(tick=4, channel=7, data=[0, 34]),
   midi.PitchWheelEvent(tick=4, channel=7, data=[0, 33]),
   midi.PitchWheelEvent(tick=3, channel=7, data=[0, 32]),
   midi.PitchWheelEvent(tick=6, channel=7, data=[0, 30]),
   midi.PitchWheelEvent(tick=1, channel=7, data=[0, 29]),
   midi.PitchWheelEvent(tick=4, channel=7, data=[0, 28]),
   midi.PitchWheelEvent(tick=4, channel=7, data=[0, 27]),
   midi.PitchWheelEvent(tick=3, channel=7, data=[0, 25]),
   midi.PitchWheelEvent(tick=6, channel=7, data=[0, 24]),
   midi.PitchWheelEvent(tick=1, channel=7, data=[0, 23]),
   midi.PitchWheelEvent(tick=4, channel=7, data=[0, 22]),
   midi.PitchWheelEvent(tick=4, channel=7, data=[0, 20]),
   midi.PitchWheelEvent(tick=3, channel=7, data=[0, 19]),
   midi.PitchWheelEvent(tick=6, channel=7, data=[0, 18]),
   midi.PitchWheelEvent(tick=1, channel=7, data=[0, 17]),
   midi.PitchWheelEvent(tick=4, channel=7, data=[0, 15]),
   midi.PitchWheelEvent(tick=4, channel=7, data=[0, 14]),
   midi.PitchWheelEvent(tick=3, channel=7, data=[0, 13]),
   midi.PitchWheelEvent(tick=6, channel=7, data=[0, 12]),
   midi.PitchWheelEvent(tick=1, channel=7, data=[0, 10]),
   midi.PitchWheelEvent(tick=4, channel=7, data=[0, 9]),
   midi.PitchWheelEvent(tick=4, channel=7, data=[0, 8]),
   midi.PitchWheelEvent(tick=3, channel=7, data=[0, 7]),
   midi.PitchWheelEvent(tick=6, channel=7, data=[0, 5]),
   midi.PitchWheelEvent(tick=1, channel=7, data=[0, 4]),
   midi.PitchWheelEvent(tick=4, channel=7, data=[0, 3]),
   midi.PitchWheelEvent(tick=4, channel=7, data=[0, 1]),
   midi.NoteOnEvent(tick=221, channel=7, data=[41, 0]),
   midi.ControlChangeEvent(tick=4, channel=7, data=[7, 100]),
   midi.PitchWheelEvent(tick=432, channel=7, data=[0, 64]),
   midi.EndOfTrackEvent(tick=0, data=[])]),
 midi.Track(\
  [midi.PortEvent(tick=0, data=[0]),
   midi.TrackNameEvent(tick=0, text='bass drum', data=[98, 97, 115, 115, 32, 100, 114, 117, 109]),
   midi.ControlChangeEvent(tick=0, channel=9, data=[7, 120]),
   midi.ControlChangeEvent(tick=0, channel=9, data=[10, 65]),
   midi.ControlChangeEvent(tick=0, channel=9, data=[1, 0]),
   midi.PitchWheelEvent(tick=0, channel=9, data=[0, 64]),
   midi.ControlChangeEvent(tick=0, channel=9, data=[11, 100]),
   midi.NoteOnEvent(tick=11232, channel=9, data=[36, 127]),
   midi.NoteOnEvent(tick=23, channel=9, data=[36, 0]),
   midi.NoteOnEvent(tick=301, channel=9, data=[36, 127]),
   midi.NoteOnEvent(tick=23, channel=9, data=[36, 0]),
   midi.NoteOnEvent(tick=517, channel=9, data=[36, 127]),
   midi.NoteOnEvent(tick=23, channel=9, data=[36, 0]),
   midi.NoteOnEvent(tick=301, channel=9, data=[36, 127]),
   midi.NoteOnEvent(tick=23, channel=9, data=[36, 0]),
   midi.NoteOnEvent(tick=517, channel=9, data=[36, 127]),
   midi.NoteOnEvent(tick=23, channel=9, data=[36, 0]),
   midi.NoteOnEvent(tick=301, channel=9, data=[36, 127]),
   midi.NoteOnEvent(tick=23, channel=9, data=[36, 0]),
   midi.NoteOnEvent(tick=517, channel=9, data=[36, 127]),
   midi.NoteOnEvent(tick=23, channel=9, data=[36, 0]),
   midi.NoteOnEvent(tick=301, channel=9, data=[36, 127]),
   midi.NoteOnEvent(tick=23, channel=9, data=[36, 0]),
   midi.NoteOnEvent(tick=517, channel=9, data=[36, 127]),
   midi.NoteOnEvent(tick=23, channel=9, data=[36, 0]),
   midi.NoteOnEvent(tick=301, channel=9, data=[36, 127]),
   midi.NoteOnEvent(tick=23, channel=9, data=[36, 0]),
   midi.NoteOnEvent(tick=517, channel=9, data=[36, 127]),
   midi.NoteOnEvent(tick=23, channel=9, data=[36, 0]),
   midi.NoteOnEvent(tick=301, channel=9, data=[36, 127]),
   midi.NoteOnEvent(tick=23, channel=9, data=[36, 0]),
   midi.NoteOnEvent(tick=517, channel=9, data=[36, 127]),
   midi.NoteOnEvent(tick=23, channel=9, data=[36, 0]),
   midi.NoteOnEvent(tick=301, channel=9, data=[36, 127]),
   midi.NoteOnEvent(tick=23, channel=9, data=[36, 0]),
   midi.NoteOnEvent(tick=517, channel=9, data=[36, 127]),
   midi.NoteOnEvent(tick=23, channel=9, data=[36, 0]),
   midi.NoteOnEvent(tick=301, channel=9, data=[36, 127]),
   midi.NoteOnEvent(tick=23, channel=9, data=[36, 0]),
   midi.NoteOnEvent(tick=517, channel=9, data=[36, 127]),
   midi.NoteOnEvent(tick=23, channel=9, data=[36, 0]),
   midi.NoteOnEvent(tick=193, channel=9, data=[36, 127]),
   midi.NoteOnEvent(tick=23, channel=9, data=[36, 0]),
   midi.NoteOnEvent(tick=193, channel=9, data=[36, 127]),
   midi.NoteOnEvent(tick=23, channel=9, data=[36, 0]),
   midi.NoteOnEvent(tick=193, channel=9, data=[36, 127]),
   midi.NoteOnEvent(tick=23, channel=9, data=[36, 0]),
   midi.NoteOnEvent(tick=193, channel=9, data=[36, 127]),
   midi.NoteOnEvent(tick=23, channel=9, data=[36, 0]),
   midi.NoteOnEvent(tick=3433, channel=9, data=[36, 127]),
   midi.NoteOnEvent(tick=23, channel=9, data=[36, 0]),
   midi.NoteOnEvent(tick=517, channel=9, data=[36, 127]),
   midi.NoteOnEvent(tick=23, channel=9, data=[36, 0]),
   midi.NoteOnEvent(tick=85, channel=9, data=[36, 127]),
   midi.NoteOnEvent(tick=23, channel=9, data=[36, 0]),
   midi.NoteOnEvent(tick=85, channel=9, data=[36, 127]),
   midi.NoteOnEvent(tick=23, channel=9, data=[36, 0]),
   midi.NoteOnEvent(tick=85, channel=9, data=[36, 127]),
   midi.NoteOnEvent(tick=23, channel=9, data=[36, 0]),
   midi.NoteOnEvent(tick=1813, channel=9, data=[36, 127]),
   midi.NoteOnEvent(tick=108, channel=9, data=[36, 0]),
   midi.NoteOnEvent(tick=108, channel=9, data=[36, 127]),
   midi.NoteOnEvent(tick=108, channel=9, data=[36, 0]),
   midi.NoteOnEvent(tick=108, channel=9, data=[36, 127]),
   midi.NoteOnEvent(tick=108, channel=9, data=[36, 0]),
   midi.NoteOnEvent(tick=216, channel=9, data=[36, 127]),
   midi.NoteOnEvent(tick=108, channel=9, data=[36, 0]),
   midi.NoteOnEvent(tick=162, channel=9, data=[36, 127]),
   midi.NoteOnEvent(tick=108, channel=9, data=[36, 0]),
   midi.NoteOnEvent(tick=54, channel=9, data=[36, 127]),
   midi.NoteOnEvent(tick=108, channel=9, data=[36, 0]),
   midi.NoteOnEvent(tick=162, channel=9, data=[36, 127]),
   midi.NoteOnEvent(tick=108, channel=9, data=[36, 0]),
   midi.NoteOnEvent(tick=54, channel=9, data=[36, 127]),
   midi.NoteOnEvent(tick=108, channel=9, data=[36, 0]),
   midi.NoteOnEvent(tick=162, channel=9, data=[36, 127]),
   midi.NoteOnEvent(tick=0, channel=9, data=[36, 127]),
   midi.NoteOnEvent(tick=23, channel=9, data=[36, 0]),
   midi.NoteOnEvent(tick=0, channel=9, data=[36, 0]),
   midi.NoteOnEvent(tick=139, channel=9, data=[36, 127]),
   midi.NoteOnEvent(tick=23, channel=9, data=[36, 0]),
   midi.NoteOnEvent(tick=247, channel=9, data=[36, 127]),
   midi.NoteOnEvent(tick=23, channel=9, data=[36, 0]),
   midi.NoteOnEvent(tick=139, channel=9, data=[36, 127]),
   midi.NoteOnEvent(tick=108, channel=9, data=[36, 0]),
   midi.NoteOnEvent(tick=162, channel=9, data=[36, 127]),
   midi.NoteOnEvent(tick=108, channel=9, data=[36, 0]),
   midi.NoteOnEvent(tick=54, channel=9, data=[36, 127]),
   midi.NoteOnEvent(tick=108, channel=9, data=[36, 0]),
   midi.NoteOnEvent(tick=162, channel=9, data=[36, 127]),
   midi.NoteOnEvent(tick=108, channel=9, data=[36, 0]),
   midi.NoteOnEvent(tick=54, channel=9, data=[36, 127]),
   midi.NoteOnEvent(tick=108, channel=9, data=[36, 0]),
   midi.NoteOnEvent(tick=162, channel=9, data=[36, 127]),
   midi.NoteOnEvent(tick=23, channel=9, data=[36, 0]),
   midi.NoteOnEvent(tick=139, channel=9, data=[36, 127]),
   midi.NoteOnEvent(tick=23, channel=9, data=[36, 0]),
   midi.NoteOnEvent(tick=247, channel=9, data=[36, 127]),
   midi.NoteOnEvent(tick=23, channel=9, data=[36, 0]),
   midi.NoteOnEvent(tick=139, channel=9, data=[36, 127]),
   midi.NoteOnEvent(tick=108, channel=9, data=[36, 0]),
   midi.NoteOnEvent(tick=162, channel=9, data=[36, 127]),
   midi.NoteOnEvent(tick=108, channel=9, data=[36, 0]),
   midi.NoteOnEvent(tick=54, channel=9, data=[36, 127]),
   midi.NoteOnEvent(tick=108, channel=9, data=[36, 0]),
   midi.NoteOnEvent(tick=162, channel=9, data=[36, 127]),
   midi.NoteOnEvent(tick=108, channel=9, data=[36, 0]),
   midi.NoteOnEvent(tick=54, channel=9, data=[36, 127]),
   midi.NoteOnEvent(tick=108, channel=9, data=[36, 0]),
   midi.NoteOnEvent(tick=162, channel=9, data=[36, 127]),
   midi.NoteOnEvent(tick=23, channel=9, data=[36, 0]),
   midi.NoteOnEvent(tick=139, channel=9, data=[36, 127]),
   midi.NoteOnEvent(tick=23, channel=9, data=[36, 0]),
   midi.NoteOnEvent(tick=247, channel=9, data=[36, 127]),
   midi.NoteOnEvent(tick=23, channel=9, data=[36, 0]),
   midi.NoteOnEvent(tick=139, channel=9, data=[36, 127]),
   midi.NoteOnEvent(tick=108, channel=9, data=[36, 0]),
   midi.NoteOnEvent(tick=162, channel=9, data=[36, 127]),
   midi.NoteOnEvent(tick=108, channel=9, data=[36, 0]),
   midi.NoteOnEvent(tick=54, channel=9, data=[36, 127]),
   midi.NoteOnEvent(tick=108, channel=9, data=[36, 0]),
   midi.NoteOnEvent(tick=162, channel=9, data=[36, 127]),
   midi.NoteOnEvent(tick=108, channel=9, data=[36, 0]),
   midi.NoteOnEvent(tick=162, channel=9, data=[36, 127]),
   midi.NoteOnEvent(tick=108, channel=9, data=[36, 0]),
   midi.NoteOnEvent(tick=108, channel=9, data=[36, 127]),
   midi.NoteOnEvent(tick=108, channel=9, data=[36, 0]),
   midi.NoteOnEvent(tick=108, channel=9, data=[36, 127]),
   midi.NoteOnEvent(tick=108, channel=9, data=[36, 0]),
   midi.NoteOnEvent(tick=216, channel=9, data=[36, 127]),
   midi.NoteOnEvent(tick=23, channel=9, data=[36, 0]),
   midi.NoteOnEvent(tick=409, channel=9, data=[36, 127]),
   midi.NoteOnEvent(tick=23, channel=9, data=[36, 0]),
   midi.NoteOnEvent(tick=85, channel=9, data=[36, 127]),
   midi.NoteOnEvent(tick=23, channel=9, data=[36, 0]),
   midi.NoteOnEvent(tick=301, channel=9, data=[36, 127]),
   midi.NoteOnEvent(tick=23, channel=9, data=[36, 0]),
   midi.NoteOnEvent(tick=409, channel=9, data=[36, 127]),
   midi.NoteOnEvent(tick=23, channel=9, data=[36, 0]),
   midi.NoteOnEvent(tick=85, channel=9, data=[36, 127]),
   midi.NoteOnEvent(tick=23, channel=9, data=[36, 0]),
   midi.NoteOnEvent(tick=31, channel=9, data=[36, 127]),
   midi.NoteOnEvent(tick=23, channel=9, data=[36, 0]),
   midi.NoteOnEvent(tick=247, channel=9, data=[36, 127]),
   midi.NoteOnEvent(tick=23, channel=9, data=[36, 0]),
   midi.NoteOnEvent(tick=409, channel=9, data=[36, 127]),
   midi.NoteOnEvent(tick=23, channel=9, data=[36, 0]),
   midi.NoteOnEvent(tick=409, channel=9, data=[36, 127]),
   midi.NoteOnEvent(tick=23, channel=9, data=[36, 0]),
   midi.NoteOnEvent(tick=247, channel=9, data=[36, 127]),
   midi.NoteOnEvent(tick=23, channel=9, data=[36, 0]),
   midi.NoteOnEvent(tick=139, channel=9, data=[36, 127]),
   midi.NoteOnEvent(tick=23, channel=9, data=[36, 0]),
   midi.NoteOnEvent(tick=247, channel=9, data=[36, 127]),
   midi.NoteOnEvent(tick=23, channel=9, data=[36, 0]),
   midi.NoteOnEvent(tick=139, channel=9, data=[36, 127]),
   midi.NoteOnEvent(tick=23, channel=9, data=[36, 0]),
   midi.NoteOnEvent(tick=247, channel=9, data=[36, 127]),
   midi.NoteOnEvent(tick=23, channel=9, data=[36, 0]),
   midi.NoteOnEvent(tick=139, channel=9, data=[36, 127]),
   midi.NoteOnEvent(tick=23, channel=9, data=[36, 0]),
   midi.NoteOnEvent(tick=247, channel=9, data=[36, 127]),
   midi.NoteOnEvent(tick=23, channel=9, data=[36, 0]),
   midi.NoteOnEvent(tick=139, channel=9, data=[36, 127]),
   midi.NoteOnEvent(tick=23, channel=9, data=[36, 0]),
   midi.NoteOnEvent(tick=247, channel=9, data=[36, 127]),
   midi.NoteOnEvent(tick=23, channel=9, data=[36, 0]),
   midi.NoteOnEvent(tick=139, channel=9, data=[36, 127]),
   midi.NoteOnEvent(tick=23, channel=9, data=[36, 0]),
   midi.NoteOnEvent(tick=247, channel=9, data=[36, 127]),
   midi.NoteOnEvent(tick=23, channel=9, data=[36, 0]),
   midi.NoteOnEvent(tick=139, channel=9, data=[36, 127]),
   midi.NoteOnEvent(tick=23, channel=9, data=[36, 0]),
   midi.NoteOnEvent(tick=247, channel=9, data=[36, 127]),
   midi.NoteOnEvent(tick=23, channel=9, data=[36, 0]),
   midi.NoteOnEvent(tick=139, channel=9, data=[36, 127]),
   midi.NoteOnEvent(tick=23, channel=9, data=[36, 0]),
   midi.NoteOnEvent(tick=247, channel=9, data=[36, 127]),
   midi.NoteOnEvent(tick=23, channel=9, data=[36, 0]),
   midi.NoteOnEvent(tick=139, channel=9, data=[36, 127]),
   midi.NoteOnEvent(tick=23, channel=9, data=[36, 0]),
   midi.NoteOnEvent(tick=247, channel=9, data=[36, 127]),
   midi.NoteOnEvent(tick=23, channel=9, data=[36, 0]),
   midi.NoteOnEvent(tick=139, channel=9, data=[36, 127]),
   midi.NoteOnEvent(tick=23, channel=9, data=[36, 0]),
   midi.NoteOnEvent(tick=247, channel=9, data=[36, 127]),
   midi.NoteOnEvent(tick=23, channel=9, data=[36, 0]),
   midi.NoteOnEvent(tick=139, channel=9, data=[36, 127]),
   midi.NoteOnEvent(tick=23, channel=9, data=[36, 0]),
   midi.NoteOnEvent(tick=247, channel=9, data=[36, 127]),
   midi.NoteOnEvent(tick=23, channel=9, data=[36, 0]),
   midi.NoteOnEvent(tick=139, channel=9, data=[36, 127]),
   midi.NoteOnEvent(tick=23, channel=9, data=[36, 0]),
   midi.NoteOnEvent(tick=247, channel=9, data=[36, 127]),
   midi.NoteOnEvent(tick=23, channel=9, data=[36, 0]),
   midi.NoteOnEvent(tick=139, channel=9, data=[36, 127]),
   midi.NoteOnEvent(tick=23, channel=9, data=[36, 0]),
   midi.NoteOnEvent(tick=247, channel=9, data=[36, 127]),
   midi.NoteOnEvent(tick=23, channel=9, data=[36, 0]),
   midi.NoteOnEvent(tick=139, channel=9, data=[36, 127]),
   midi.NoteOnEvent(tick=23, channel=9, data=[36, 0]),
   midi.NoteOnEvent(tick=247, channel=9, data=[36, 127]),
   midi.NoteOnEvent(tick=23, channel=9, data=[36, 0]),
   midi.NoteOnEvent(tick=1003, channel=9, data=[36, 127]),
   midi.NoteOnEvent(tick=23, channel=9, data=[36, 0]),
   midi.NoteOnEvent(tick=409, channel=9, data=[36, 127]),
   midi.NoteOnEvent(tick=23, channel=9, data=[36, 0]),
   midi.NoteOnEvent(tick=85, channel=9, data=[36, 127]),
   midi.NoteOnEvent(tick=23, channel=9, data=[36, 0]),
   midi.NoteOnEvent(tick=31, channel=9, data=[36, 127]),
   midi.NoteOnEvent(tick=23, channel=9, data=[36, 0]),
   midi.NoteOnEvent(tick=139, channel=9, data=[36, 127]),
   midi.NoteOnEvent(tick=23, channel=9, data=[36, 0]),
   midi.NoteOnEvent(tick=85, channel=9, data=[36, 127]),
   midi.NoteOnEvent(tick=23, channel=9, data=[36, 0]),
   midi.NoteOnEvent(tick=409, channel=9, data=[36, 127]),
   midi.NoteOnEvent(tick=23, channel=9, data=[36, 0]),
   midi.NoteOnEvent(tick=139, channel=9, data=[36, 127]),
   midi.NoteOnEvent(tick=23, channel=9, data=[36, 0]),
   midi.NoteOnEvent(tick=139, channel=9, data=[36, 127]),
   midi.NoteOnEvent(tick=23, channel=9, data=[36, 0]),
   midi.NoteOnEvent(tick=85, channel=9, data=[36, 127]),
   midi.NoteOnEvent(tick=23, channel=9, data=[36, 0]),
   midi.NoteOnEvent(tick=409, channel=9, data=[36, 127]),
   midi.NoteOnEvent(tick=23, channel=9, data=[36, 0]),
   midi.NoteOnEvent(tick=193, channel=9, data=[36, 127]),
   midi.NoteOnEvent(tick=23, channel=9, data=[36, 0]),
   midi.NoteOnEvent(tick=193, channel=9, data=[36, 127]),
   midi.NoteOnEvent(tick=23, channel=9, data=[36, 0]),
   midi.NoteOnEvent(tick=247, channel=9, data=[36, 127]),
   midi.NoteOnEvent(tick=23, channel=9, data=[36, 0]),
   midi.NoteOnEvent(tick=139, channel=9, data=[36, 127]),
   midi.NoteOnEvent(tick=23, channel=9, data=[36, 0]),
   midi.NoteOnEvent(tick=247, channel=9, data=[36, 127]),
   midi.NoteOnEvent(tick=23, channel=9, data=[36, 0]),
   midi.NoteOnEvent(tick=139, channel=9, data=[36, 127]),
   midi.NoteOnEvent(tick=23, channel=9, data=[36, 0]),
   midi.NoteOnEvent(tick=247, channel=9, data=[36, 127]),
   midi.NoteOnEvent(tick=23, channel=9, data=[36, 0]),
   midi.NoteOnEvent(tick=139, channel=9, data=[36, 127]),
   midi.NoteOnEvent(tick=23, channel=9, data=[36, 0]),
   midi.NoteOnEvent(tick=247, channel=9, data=[36, 127]),
   midi.NoteOnEvent(tick=23, channel=9, data=[36, 0]),
   midi.NoteOnEvent(tick=139, channel=9, data=[36, 127]),
   midi.NoteOnEvent(tick=23, channel=9, data=[36, 0]),
   midi.NoteOnEvent(tick=247, channel=9, data=[36, 127]),
   midi.NoteOnEvent(tick=23, channel=9, data=[36, 0]),
   midi.NoteOnEvent(tick=139, channel=9, data=[36, 127]),
   midi.NoteOnEvent(tick=23, channel=9, data=[36, 0]),
   midi.NoteOnEvent(tick=247, channel=9, data=[36, 127]),
   midi.NoteOnEvent(tick=23, channel=9, data=[36, 0]),
   midi.NoteOnEvent(tick=1003, channel=9, data=[36, 127]),
   midi.NoteOnEvent(tick=23, channel=9, data=[36, 0]),
   midi.NoteOnEvent(tick=409, channel=9, data=[36, 127]),
   midi.NoteOnEvent(tick=23, channel=9, data=[36, 0]),
   midi.NoteOnEvent(tick=139, channel=9, data=[36, 127]),
   midi.NoteOnEvent(tick=23, channel=9, data=[36, 0]),
   midi.NoteOnEvent(tick=139, channel=9, data=[36, 127]),
   midi.NoteOnEvent(tick=23, channel=9, data=[36, 0]),
   midi.NoteOnEvent(tick=85, channel=9, data=[36, 127]),
   midi.NoteOnEvent(tick=23, channel=9, data=[36, 0]),
   midi.NoteOnEvent(tick=409, channel=9, data=[36, 127]),
   midi.NoteOnEvent(tick=23, channel=9, data=[36, 0]),
   midi.NoteOnEvent(tick=85, channel=9, data=[36, 127]),
   midi.NoteOnEvent(tick=23, channel=9, data=[36, 0]),
   midi.NoteOnEvent(tick=31, channel=9, data=[36, 127]),
   midi.NoteOnEvent(tick=23, channel=9, data=[36, 0]),
   midi.NoteOnEvent(tick=139, channel=9, data=[36, 127]),
   midi.NoteOnEvent(tick=23, channel=9, data=[36, 0]),
   midi.NoteOnEvent(tick=85, channel=9, data=[36, 127]),
   midi.NoteOnEvent(tick=23, channel=9, data=[36, 0]),
   midi.NoteOnEvent(tick=409, channel=9, data=[36, 127]),
   midi.NoteOnEvent(tick=23, channel=9, data=[36, 0]),
   midi.NoteOnEvent(tick=193, channel=9, data=[36, 127]),
   midi.NoteOnEvent(tick=23, channel=9, data=[36, 0]),
   midi.NoteOnEvent(tick=193, channel=9, data=[36, 127]),
   midi.NoteOnEvent(tick=23, channel=9, data=[36, 0]),
   midi.NoteOnEvent(tick=247, channel=9, data=[36, 127]),
   midi.NoteOnEvent(tick=23, channel=9, data=[36, 0]),
   midi.NoteOnEvent(tick=139, channel=9, data=[36, 127]),
   midi.NoteOnEvent(tick=23, channel=9, data=[36, 0]),
   midi.NoteOnEvent(tick=247, channel=9, data=[36, 127]),
   midi.NoteOnEvent(tick=23, channel=9, data=[36, 0]),
   midi.NoteOnEvent(tick=139, channel=9, data=[36, 127]),
   midi.NoteOnEvent(tick=23, channel=9, data=[36, 0]),
   midi.NoteOnEvent(tick=247, channel=9, data=[36, 127]),
   midi.NoteOnEvent(tick=23, channel=9, data=[36, 0]),
   midi.NoteOnEvent(tick=139, channel=9, data=[36, 127]),
   midi.NoteOnEvent(tick=23, channel=9, data=[36, 0]),
   midi.NoteOnEvent(tick=247, channel=9, data=[36, 127]),
   midi.NoteOnEvent(tick=23, channel=9, data=[36, 0]),
   midi.NoteOnEvent(tick=139, channel=9, data=[36, 127]),
   midi.NoteOnEvent(tick=23, channel=9, data=[36, 0]),
   midi.NoteOnEvent(tick=409, channel=9, data=[36, 127]),
   midi.NoteOnEvent(tick=23, channel=9, data=[36, 0]),
   midi.NoteOnEvent(tick=409, channel=9, data=[36, 127]),
   midi.NoteOnEvent(tick=23, channel=9, data=[36, 0]),
   midi.NoteOnEvent(tick=409, channel=9, data=[36, 127]),
   midi.NoteOnEvent(tick=23, channel=9, data=[36, 0]),
   midi.NoteOnEvent(tick=193, channel=9, data=[36, 127]),
   midi.NoteOnEvent(tick=23, channel=9, data=[36, 0]),
   midi.NoteOnEvent(tick=355, channel=9, data=[36, 127]),
   midi.NoteOnEvent(tick=23, channel=9, data=[36, 0]),
   midi.NoteOnEvent(tick=139, channel=9, data=[36, 127]),
   midi.NoteOnEvent(tick=23, channel=9, data=[36, 0]),
   midi.NoteOnEvent(tick=247, channel=9, data=[36, 127]),
   midi.NoteOnEvent(tick=23, channel=9, data=[36, 0]),
   midi.NoteOnEvent(tick=139, channel=9, data=[36, 127]),
   midi.NoteOnEvent(tick=23, channel=9, data=[36, 0]),
   midi.NoteOnEvent(tick=247, channel=9, data=[36, 127]),
   midi.NoteOnEvent(tick=23, channel=9, data=[36, 0]),
   midi.NoteOnEvent(tick=139, channel=9, data=[36, 127]),
   midi.NoteOnEvent(tick=23, channel=9, data=[36, 0]),
   midi.NoteOnEvent(tick=247, channel=9, data=[36, 127]),
   midi.NoteOnEvent(tick=23, channel=9, data=[36, 0]),
   midi.NoteOnEvent(tick=139, channel=9, data=[36, 127]),
   midi.NoteOnEvent(tick=23, channel=9, data=[36, 0]),
   midi.NoteOnEvent(tick=247, channel=9, data=[36, 127]),
   midi.NoteOnEvent(tick=23, channel=9, data=[36, 0]),
   midi.NoteOnEvent(tick=139, channel=9, data=[36, 127]),
   midi.NoteOnEvent(tick=23, channel=9, data=[36, 0]),
   midi.NoteOnEvent(tick=247, channel=9, data=[36, 127]),
   midi.NoteOnEvent(tick=23, channel=9, data=[36, 0]),
   midi.NoteOnEvent(tick=139, channel=9, data=[36, 127]),
   midi.NoteOnEvent(tick=23, channel=9, data=[36, 0]),
   midi.NoteOnEvent(tick=301, channel=9, data=[36, 127]),
   midi.NoteOnEvent(tick=23, channel=9, data=[36, 0]),
   midi.NoteOnEvent(tick=247, channel=9, data=[36, 127]),
   midi.NoteOnEvent(tick=23, channel=9, data=[36, 0]),
   midi.NoteOnEvent(tick=139, channel=9, data=[36, 127]),
   midi.NoteOnEvent(tick=23, channel=9, data=[36, 0]),
   midi.NoteOnEvent(tick=247, channel=9, data=[36, 127]),
   midi.NoteOnEvent(tick=23, channel=9, data=[36, 0]),
   midi.NoteOnEvent(tick=139, channel=9, data=[36, 127]),
   midi.NoteOnEvent(tick=23, channel=9, data=[36, 0]),
   midi.NoteOnEvent(tick=247, channel=9, data=[36, 127]),
   midi.NoteOnEvent(tick=23, channel=9, data=[36, 0]),
   midi.NoteOnEvent(tick=139, channel=9, data=[36, 127]),
   midi.NoteOnEvent(tick=23, channel=9, data=[36, 0]),
   midi.NoteOnEvent(tick=247, channel=9, data=[36, 127]),
   midi.NoteOnEvent(tick=23, channel=9, data=[36, 0]),
   midi.NoteOnEvent(tick=139, channel=9, data=[36, 127]),
   midi.NoteOnEvent(tick=23, channel=9, data=[36, 0]),
   midi.NoteOnEvent(tick=247, channel=9, data=[36, 127]),
   midi.NoteOnEvent(tick=23, channel=9, data=[36, 0]),
   midi.NoteOnEvent(tick=139, channel=9, data=[36, 127]),
   midi.NoteOnEvent(tick=23, channel=9, data=[36, 0]),
   midi.NoteOnEvent(tick=247, channel=9, data=[36, 127]),
   midi.NoteOnEvent(tick=23, channel=9, data=[36, 0]),
   midi.NoteOnEvent(tick=139, channel=9, data=[36, 127]),
   midi.NoteOnEvent(tick=23, channel=9, data=[36, 0]),
   midi.NoteOnEvent(tick=193, channel=9, data=[36, 127]),
   midi.NoteOnEvent(tick=23, channel=9, data=[36, 0]),
   midi.NoteOnEvent(tick=193, channel=9, data=[36, 127]),
   midi.NoteOnEvent(tick=23, channel=9, data=[36, 0]),
   midi.NoteOnEvent(tick=409, channel=9, data=[36, 127]),
   midi.NoteOnEvent(tick=23, channel=9, data=[36, 0]),
   midi.NoteOnEvent(tick=409, channel=9, data=[36, 127]),
   midi.NoteOnEvent(tick=23, channel=9, data=[36, 0]),
   midi.NoteOnEvent(tick=85, channel=9, data=[36, 127]),
   midi.NoteOnEvent(tick=23, channel=9, data=[36, 0]),
   midi.NoteOnEvent(tick=31, channel=9, data=[36, 127]),
   midi.NoteOnEvent(tick=23, channel=9, data=[36, 0]),
   midi.NoteOnEvent(tick=139, channel=9, data=[36, 127]),
   midi.NoteOnEvent(tick=23, channel=9, data=[36, 0]),
   midi.NoteOnEvent(tick=85, channel=9, data=[36, 127]),
   midi.NoteOnEvent(tick=23, channel=9, data=[36, 0]),
   midi.NoteOnEvent(tick=409, channel=9, data=[36, 127]),
   midi.NoteOnEvent(tick=23, channel=9, data=[36, 0]),
   midi.NoteOnEvent(tick=85, channel=9, data=[36, 127]),
   midi.NoteOnEvent(tick=23, channel=9, data=[36, 0]),
   midi.NoteOnEvent(tick=31, channel=9, data=[36, 127]),
   midi.NoteOnEvent(tick=23, channel=9, data=[36, 0]),
   midi.NoteOnEvent(tick=139, channel=9, data=[36, 127]),
   midi.NoteOnEvent(tick=23, channel=9, data=[36, 0]),
   midi.NoteOnEvent(tick=85, channel=9, data=[36, 127]),
   midi.NoteOnEvent(tick=23, channel=9, data=[36, 0]),
   midi.NoteOnEvent(tick=409, channel=9, data=[36, 127]),
   midi.NoteOnEvent(tick=23, channel=9, data=[36, 0]),
   midi.NoteOnEvent(tick=193, channel=9, data=[36, 127]),
   midi.NoteOnEvent(tick=23, channel=9, data=[36, 0]),
   midi.NoteOnEvent(tick=193, channel=9, data=[36, 127]),
   midi.NoteOnEvent(tick=23, channel=9, data=[36, 0]),
   midi.NoteOnEvent(tick=247, channel=9, data=[36, 127]),
   midi.NoteOnEvent(tick=23, channel=9, data=[36, 0]),
   midi.NoteOnEvent(tick=139, channel=9, data=[36, 127]),
   midi.NoteOnEvent(tick=23, channel=9, data=[36, 0]),
   midi.NoteOnEvent(tick=247, channel=9, data=[36, 127]),
   midi.NoteOnEvent(tick=23, channel=9, data=[36, 0]),
   midi.NoteOnEvent(tick=139, channel=9, data=[36, 127]),
   midi.NoteOnEvent(tick=23, channel=9, data=[36, 0]),
   midi.NoteOnEvent(tick=247, channel=9, data=[36, 127]),
   midi.NoteOnEvent(tick=23, channel=9, data=[36, 0]),
   midi.NoteOnEvent(tick=139, channel=9, data=[36, 127]),
   midi.NoteOnEvent(tick=23, channel=9, data=[36, 0]),
   midi.NoteOnEvent(tick=247, channel=9, data=[36, 127]),
   midi.NoteOnEvent(tick=23, channel=9, data=[36, 0]),
   midi.NoteOnEvent(tick=139, channel=9, data=[36, 127]),
   midi.NoteOnEvent(tick=23, channel=9, data=[36, 0]),
   midi.NoteOnEvent(tick=247, channel=9, data=[36, 127]),
   midi.NoteOnEvent(tick=23, channel=9, data=[36, 0]),
   midi.NoteOnEvent(tick=139, channel=9, data=[36, 127]),
   midi.NoteOnEvent(tick=23, channel=9, data=[36, 0]),
   midi.NoteOnEvent(tick=247, channel=9, data=[36, 127]),
   midi.NoteOnEvent(tick=23, channel=9, data=[36, 0]),
   midi.NoteOnEvent(tick=139, channel=9, data=[36, 127]),
   midi.NoteOnEvent(tick=23, channel=9, data=[36, 0]),
   midi.NoteOnEvent(tick=247, channel=9, data=[36, 127]),
   midi.NoteOnEvent(tick=23, channel=9, data=[36, 0]),
   midi.NoteOnEvent(tick=139, channel=9, data=[36, 127]),
   midi.NoteOnEvent(tick=23, channel=9, data=[36, 0]),
   midi.NoteOnEvent(tick=247, channel=9, data=[36, 127]),
   midi.NoteOnEvent(tick=23, channel=9, data=[36, 0]),
   midi.NoteOnEvent(tick=139, channel=9, data=[36, 127]),
   midi.NoteOnEvent(tick=23, channel=9, data=[36, 0]),
   midi.NoteOnEvent(tick=247, channel=9, data=[36, 127]),
   midi.NoteOnEvent(tick=23, channel=9, data=[36, 0]),
   midi.NoteOnEvent(tick=139, channel=9, data=[36, 127]),
   midi.NoteOnEvent(tick=23, channel=9, data=[36, 0]),
   midi.NoteOnEvent(tick=247, channel=9, data=[36, 127]),
   midi.NoteOnEvent(tick=23, channel=9, data=[36, 0]),
   midi.NoteOnEvent(tick=139, channel=9, data=[36, 127]),
   midi.NoteOnEvent(tick=23, channel=9, data=[36, 0]),
   midi.NoteOnEvent(tick=247, channel=9, data=[36, 127]),
   midi.NoteOnEvent(tick=23, channel=9, data=[36, 0]),
   midi.NoteOnEvent(tick=139, channel=9, data=[36, 127]),
   midi.NoteOnEvent(tick=23, channel=9, data=[36, 0]),
   midi.NoteOnEvent(tick=247, channel=9, data=[36, 127]),
   midi.NoteOnEvent(tick=23, channel=9, data=[36, 0]),
   midi.NoteOnEvent(tick=139, channel=9, data=[36, 127]),
   midi.NoteOnEvent(tick=23, channel=9, data=[36, 0]),
   midi.NoteOnEvent(tick=247, channel=9, data=[36, 127]),
   midi.NoteOnEvent(tick=23, channel=9, data=[36, 0]),
   midi.NoteOnEvent(tick=139, channel=9, data=[36, 127]),
   midi.NoteOnEvent(tick=23, channel=9, data=[36, 0]),
   midi.NoteOnEvent(tick=247, channel=9, data=[36, 127]),
   midi.NoteOnEvent(tick=23, channel=9, data=[36, 0]),
   midi.NoteOnEvent(tick=1003, channel=9, data=[36, 127]),
   midi.NoteOnEvent(tick=23, channel=9, data=[36, 0]),
   midi.NoteOnEvent(tick=409, channel=9, data=[36, 127]),
   midi.NoteOnEvent(tick=23, channel=9, data=[36, 0]),
   midi.NoteOnEvent(tick=85, channel=9, data=[36, 127]),
   midi.NoteOnEvent(tick=23, channel=9, data=[36, 0]),
   midi.NoteOnEvent(tick=31, channel=9, data=[36, 127]),
   midi.NoteOnEvent(tick=23, channel=9, data=[36, 0]),
   midi.NoteOnEvent(tick=139, channel=9, data=[36, 127]),
   midi.NoteOnEvent(tick=23, channel=9, data=[36, 0]),
   midi.NoteOnEvent(tick=85, channel=9, data=[36, 127]),
   midi.NoteOnEvent(tick=23, channel=9, data=[36, 0]),
   midi.NoteOnEvent(tick=409, channel=9, data=[36, 127]),
   midi.NoteOnEvent(tick=23, channel=9, data=[36, 0]),
   midi.NoteOnEvent(tick=139, channel=9, data=[36, 127]),
   midi.NoteOnEvent(tick=23, channel=9, data=[36, 0]),
   midi.NoteOnEvent(tick=139, channel=9, data=[36, 127]),
   midi.NoteOnEvent(tick=23, channel=9, data=[36, 0]),
   midi.NoteOnEvent(tick=85, channel=9, data=[36, 127]),
   midi.NoteOnEvent(tick=23, channel=9, data=[36, 0]),
   midi.NoteOnEvent(tick=409, channel=9, data=[36, 127]),
   midi.NoteOnEvent(tick=23, channel=9, data=[36, 0]),
   midi.NoteOnEvent(tick=193, channel=9, data=[36, 127]),
   midi.NoteOnEvent(tick=23, channel=9, data=[36, 0]),
   midi.NoteOnEvent(tick=193, channel=9, data=[36, 127]),
   midi.NoteOnEvent(tick=23, channel=9, data=[36, 0]),
   midi.NoteOnEvent(tick=247, channel=9, data=[36, 127]),
   midi.NoteOnEvent(tick=23, channel=9, data=[36, 0]),
   midi.NoteOnEvent(tick=139, channel=9, data=[36, 127]),
   midi.NoteOnEvent(tick=23, channel=9, data=[36, 0]),
   midi.NoteOnEvent(tick=247, channel=9, data=[36, 127]),
   midi.NoteOnEvent(tick=23, channel=9, data=[36, 0]),
   midi.NoteOnEvent(tick=139, channel=9, data=[36, 127]),
   midi.NoteOnEvent(tick=23, channel=9, data=[36, 0]),
   midi.NoteOnEvent(tick=247, channel=9, data=[36, 127]),
   midi.NoteOnEvent(tick=23, channel=9, data=[36, 0]),
   midi.NoteOnEvent(tick=139, channel=9, data=[36, 127]),
   midi.NoteOnEvent(tick=23, channel=9, data=[36, 0]),
   midi.NoteOnEvent(tick=247, channel=9, data=[36, 127]),
   midi.NoteOnEvent(tick=23, channel=9, data=[36, 0]),
   midi.NoteOnEvent(tick=139, channel=9, data=[36, 127]),
   midi.NoteOnEvent(tick=23, channel=9, data=[36, 0]),
   midi.NoteOnEvent(tick=247, channel=9, data=[36, 127]),
   midi.NoteOnEvent(tick=23, channel=9, data=[36, 0]),
   midi.NoteOnEvent(tick=139, channel=9, data=[36, 127]),
   midi.NoteOnEvent(tick=23, channel=9, data=[36, 0]),
   midi.NoteOnEvent(tick=247, channel=9, data=[36, 127]),
   midi.NoteOnEvent(tick=23, channel=9, data=[36, 0]),
   midi.NoteOnEvent(tick=1003, channel=9, data=[36, 127]),
   midi.NoteOnEvent(tick=23, channel=9, data=[36, 0]),
   midi.NoteOnEvent(tick=409, channel=9, data=[36, 127]),
   midi.NoteOnEvent(tick=23, channel=9, data=[36, 0]),
   midi.NoteOnEvent(tick=139, channel=9, data=[36, 127]),
   midi.NoteOnEvent(tick=23, channel=9, data=[36, 0]),
   midi.NoteOnEvent(tick=139, channel=9, data=[36, 127]),
   midi.NoteOnEvent(tick=23, channel=9, data=[36, 0]),
   midi.NoteOnEvent(tick=85, channel=9, data=[36, 127]),
   midi.NoteOnEvent(tick=23, channel=9, data=[36, 0]),
   midi.NoteOnEvent(tick=409, channel=9, data=[36, 127]),
   midi.NoteOnEvent(tick=23, channel=9, data=[36, 0]),
   midi.NoteOnEvent(tick=85, channel=9, data=[36, 127]),
   midi.NoteOnEvent(tick=23, channel=9, data=[36, 0]),
   midi.NoteOnEvent(tick=31, channel=9, data=[36, 127]),
   midi.NoteOnEvent(tick=23, channel=9, data=[36, 0]),
   midi.NoteOnEvent(tick=139, channel=9, data=[36, 127]),
   midi.NoteOnEvent(tick=23, channel=9, data=[36, 0]),
   midi.NoteOnEvent(tick=85, channel=9, data=[36, 127]),
   midi.NoteOnEvent(tick=23, channel=9, data=[36, 0]),
   midi.NoteOnEvent(tick=409, channel=9, data=[36, 127]),
   midi.NoteOnEvent(tick=23, channel=9, data=[36, 0]),
   midi.NoteOnEvent(tick=193, channel=9, data=[36, 127]),
   midi.NoteOnEvent(tick=23, channel=9, data=[36, 0]),
   midi.NoteOnEvent(tick=193, channel=9, data=[36, 127]),
   midi.NoteOnEvent(tick=23, channel=9, data=[36, 0]),
   midi.NoteOnEvent(tick=247, channel=9, data=[36, 127]),
   midi.NoteOnEvent(tick=23, channel=9, data=[36, 0]),
   midi.NoteOnEvent(tick=139, channel=9, data=[36, 127]),
   midi.NoteOnEvent(tick=23, channel=9, data=[36, 0]),
   midi.NoteOnEvent(tick=247, channel=9, data=[36, 127]),
   midi.NoteOnEvent(tick=23, channel=9, data=[36, 0]),
   midi.NoteOnEvent(tick=139, channel=9, data=[36, 127]),
   midi.NoteOnEvent(tick=23, channel=9, data=[36, 0]),
   midi.NoteOnEvent(tick=247, channel=9, data=[36, 127]),
   midi.NoteOnEvent(tick=23, channel=9, data=[36, 0]),
   midi.NoteOnEvent(tick=139, channel=9, data=[36, 127]),
   midi.NoteOnEvent(tick=23, channel=9, data=[36, 0]),
   midi.NoteOnEvent(tick=247, channel=9, data=[36, 127]),
   midi.NoteOnEvent(tick=23, channel=9, data=[36, 0]),
   midi.NoteOnEvent(tick=139, channel=9, data=[36, 127]),
   midi.NoteOnEvent(tick=23, channel=9, data=[36, 0]),
   midi.NoteOnEvent(tick=409, channel=9, data=[36, 127]),
   midi.NoteOnEvent(tick=23, channel=9, data=[36, 0]),
   midi.NoteOnEvent(tick=409, channel=9, data=[36, 127]),
   midi.NoteOnEvent(tick=23, channel=9, data=[36, 0]),
   midi.NoteOnEvent(tick=625, channel=9, data=[36, 127]),
   midi.NoteOnEvent(tick=23, channel=9, data=[36, 0]),
   midi.NoteOnEvent(tick=193, channel=9, data=[36, 127]),
   midi.NoteOnEvent(tick=23, channel=9, data=[36, 0]),
   midi.NoteOnEvent(tick=247, channel=9, data=[36, 127]),
   midi.NoteOnEvent(tick=23, channel=9, data=[36, 0]),
   midi.NoteOnEvent(tick=139, channel=9, data=[36, 127]),
   midi.NoteOnEvent(tick=23, channel=9, data=[36, 0]),
   midi.NoteOnEvent(tick=247, channel=9, data=[36, 127]),
   midi.NoteOnEvent(tick=23, channel=9, data=[36, 0]),
   midi.NoteOnEvent(tick=139, channel=9, data=[36, 127]),
   midi.NoteOnEvent(tick=23, channel=9, data=[36, 0]),
   midi.NoteOnEvent(tick=247, channel=9, data=[36, 127]),
   midi.NoteOnEvent(tick=23, channel=9, data=[36, 0]),
   midi.NoteOnEvent(tick=139, channel=9, data=[36, 127]),
   midi.NoteOnEvent(tick=23, channel=9, data=[36, 0]),
   midi.NoteOnEvent(tick=247, channel=9, data=[36, 127]),
   midi.NoteOnEvent(tick=23, channel=9, data=[36, 0]),
   midi.NoteOnEvent(tick=139, channel=9, data=[36, 127]),
   midi.NoteOnEvent(tick=23, channel=9, data=[36, 0]),
   midi.NoteOnEvent(tick=247, channel=9, data=[36, 127]),
   midi.NoteOnEvent(tick=23, channel=9, data=[36, 0]),
   midi.NoteOnEvent(tick=139, channel=9, data=[36, 127]),
   midi.NoteOnEvent(tick=23, channel=9, data=[36, 0]),
   midi.NoteOnEvent(tick=247, channel=9, data=[36, 127]),
   midi.NoteOnEvent(tick=23, channel=9, data=[36, 0]),
   midi.NoteOnEvent(tick=355, channel=9, data=[36, 127]),
   midi.NoteOnEvent(tick=23, channel=9, data=[36, 0]),
   midi.NoteOnEvent(tick=247, channel=9, data=[36, 127]),
   midi.NoteOnEvent(tick=23, channel=9, data=[36, 0]),
   midi.NoteOnEvent(tick=139, channel=9, data=[36, 127]),
   midi.NoteOnEvent(tick=23, channel=9, data=[36, 0]),
   midi.NoteOnEvent(tick=247, channel=9, data=[36, 127]),
   midi.NoteOnEvent(tick=23, channel=9, data=[36, 0]),
   midi.NoteOnEvent(tick=139, channel=9, data=[36, 127]),
   midi.NoteOnEvent(tick=23, channel=9, data=[36, 0]),
   midi.NoteOnEvent(tick=247, channel=9, data=[36, 127]),
   midi.NoteOnEvent(tick=23, channel=9, data=[36, 0]),
   midi.NoteOnEvent(tick=139, channel=9, data=[36, 127]),
   midi.NoteOnEvent(tick=23, channel=9, data=[36, 0]),
   midi.NoteOnEvent(tick=247, channel=9, data=[36, 127]),
   midi.NoteOnEvent(tick=23, channel=9, data=[36, 0]),
   midi.NoteOnEvent(tick=139, channel=9, data=[36, 127]),
   midi.NoteOnEvent(tick=23, channel=9, data=[36, 0]),
   midi.NoteOnEvent(tick=247, channel=9, data=[36, 127]),
   midi.NoteOnEvent(tick=23, channel=9, data=[36, 0]),
   midi.NoteOnEvent(tick=139, channel=9, data=[36, 127]),
   midi.NoteOnEvent(tick=23, channel=9, data=[36, 0]),
   midi.NoteOnEvent(tick=247, channel=9, data=[36, 127]),
   midi.NoteOnEvent(tick=23, channel=9, data=[36, 0]),
   midi.NoteOnEvent(tick=139, channel=9, data=[36, 127]),
   midi.NoteOnEvent(tick=23, channel=9, data=[36, 0]),
   midi.NoteOnEvent(tick=193, channel=9, data=[36, 127]),
   midi.NoteOnEvent(tick=23, channel=9, data=[36, 0]),
   midi.NoteOnEvent(tick=193, channel=9, data=[36, 127]),
   midi.NoteOnEvent(tick=23, channel=9, data=[36, 0]),
   midi.NoteOnEvent(tick=409, channel=9, data=[36, 127]),
   midi.NoteOnEvent(tick=23, channel=9, data=[36, 0]),
   midi.NoteOnEvent(tick=1705, channel=9, data=[36, 127]),
   midi.NoteOnEvent(tick=23, channel=9, data=[36, 0]),
   midi.NoteOnEvent(tick=193, channel=9, data=[36, 127]),
   midi.NoteOnEvent(tick=23, channel=9, data=[36, 0]),
   midi.NoteOnEvent(tick=85, channel=9, data=[36, 127]),
   midi.NoteOnEvent(tick=23, channel=9, data=[36, 0]),
   midi.NoteOnEvent(tick=517, channel=9, data=[36, 127]),
   midi.NoteOnEvent(tick=23, channel=9, data=[36, 0]),
   midi.NoteOnEvent(tick=301, channel=9, data=[36, 127]),
   midi.NoteOnEvent(tick=23, channel=9, data=[36, 0]),
   midi.NoteOnEvent(tick=517, channel=9, data=[36, 127]),
   midi.NoteOnEvent(tick=23, channel=9, data=[36, 0]),
   midi.NoteOnEvent(tick=193, channel=9, data=[36, 127]),
   midi.NoteOnEvent(tick=23, channel=9, data=[36, 0]),
   midi.NoteOnEvent(tick=85, channel=9, data=[36, 127]),
   midi.NoteOnEvent(tick=23, channel=9, data=[36, 0]),
   midi.NoteOnEvent(tick=193, channel=9, data=[36, 127]),
   midi.NoteOnEvent(tick=23, channel=9, data=[36, 0]),
   midi.NoteOnEvent(tick=301, channel=9, data=[36, 127]),
   midi.NoteOnEvent(tick=23, channel=9, data=[36, 0]),
   midi.NoteOnEvent(tick=409, channel=9, data=[36, 127]),
   midi.NoteOnEvent(tick=23, channel=9, data=[36, 0]),
   midi.NoteOnEvent(tick=85, channel=9, data=[36, 127]),
   midi.NoteOnEvent(tick=23, channel=9, data=[36, 0]),
   midi.NoteOnEvent(tick=301, channel=9, data=[36, 127]),
   midi.NoteOnEvent(tick=23, channel=9, data=[36, 0]),
   midi.NoteOnEvent(tick=193, channel=9, data=[36, 127]),
   midi.NoteOnEvent(tick=23, channel=9, data=[36, 0]),
   midi.NoteOnEvent(tick=85, channel=9, data=[36, 127]),
   midi.NoteOnEvent(tick=23, channel=9, data=[36, 0]),
   midi.NoteOnEvent(tick=517, channel=9, data=[36, 127]),
   midi.NoteOnEvent(tick=23, channel=9, data=[36, 0]),
   midi.NoteOnEvent(tick=301, channel=9, data=[36, 127]),
   midi.NoteOnEvent(tick=23, channel=9, data=[36, 0]),
   midi.NoteOnEvent(tick=517, channel=9, data=[36, 127]),
   midi.NoteOnEvent(tick=23, channel=9, data=[36, 0]),
   midi.NoteOnEvent(tick=193, channel=9, data=[36, 127]),
   midi.NoteOnEvent(tick=23, channel=9, data=[36, 0]),
   midi.NoteOnEvent(tick=85, channel=9, data=[36, 127]),
   midi.NoteOnEvent(tick=23, channel=9, data=[36, 0]),
   midi.NoteOnEvent(tick=517, channel=9, data=[36, 127]),
   midi.NoteOnEvent(tick=23, channel=9, data=[36, 0]),
   midi.NoteOnEvent(tick=193, channel=9, data=[36, 127]),
   midi.NoteOnEvent(tick=23, channel=9, data=[36, 0]),
   midi.NoteOnEvent(tick=85, channel=9, data=[36, 127]),
   midi.NoteOnEvent(tick=23, channel=9, data=[36, 0]),
   midi.NoteOnEvent(tick=193, channel=9, data=[36, 127]),
   midi.NoteOnEvent(tick=23, channel=9, data=[36, 0]),
   midi.NoteOnEvent(tick=301, channel=9, data=[36, 127]),
   midi.NoteOnEvent(tick=23, channel=9, data=[36, 0]),
   midi.NoteOnEvent(tick=193, channel=9, data=[36, 127]),
   midi.NoteOnEvent(tick=23, channel=9, data=[36, 0]),
   midi.NoteOnEvent(tick=85, channel=9, data=[36, 127]),
   midi.NoteOnEvent(tick=23, channel=9, data=[36, 0]),
   midi.NoteOnEvent(tick=517, channel=9, data=[36, 127]),
   midi.NoteOnEvent(tick=23, channel=9, data=[36, 0]),
   midi.NoteOnEvent(tick=193, channel=9, data=[36, 127]),
   midi.NoteOnEvent(tick=23, channel=9, data=[36, 0]),
   midi.NoteOnEvent(tick=85, channel=9, data=[36, 127]),
   midi.NoteOnEvent(tick=23, channel=9, data=[36, 0]),
   midi.NoteOnEvent(tick=517, channel=9, data=[36, 127]),
   midi.NoteOnEvent(tick=23, channel=9, data=[36, 0]),
   midi.NoteOnEvent(tick=193, channel=9, data=[36, 127]),
   midi.NoteOnEvent(tick=23, channel=9, data=[36, 0]),
   midi.NoteOnEvent(tick=85, channel=9, data=[36, 127]),
   midi.NoteOnEvent(tick=23, channel=9, data=[36, 0]),
   midi.NoteOnEvent(tick=517, channel=9, data=[36, 127]),
   midi.NoteOnEvent(tick=23, channel=9, data=[36, 0]),
   midi.NoteOnEvent(tick=193, channel=9, data=[36, 127]),
   midi.NoteOnEvent(tick=23, channel=9, data=[36, 0]),
   midi.NoteOnEvent(tick=85, channel=9, data=[36, 127]),
   midi.NoteOnEvent(tick=23, channel=9, data=[36, 0]),
   midi.NoteOnEvent(tick=517, channel=9, data=[36, 127]),
   midi.NoteOnEvent(tick=23, channel=9, data=[36, 0]),
   midi.NoteOnEvent(tick=193, channel=9, data=[36, 127]),
   midi.NoteOnEvent(tick=23, channel=9, data=[36, 0]),
   midi.NoteOnEvent(tick=85, channel=9, data=[36, 127]),
   midi.NoteOnEvent(tick=23, channel=9, data=[36, 0]),
   midi.NoteOnEvent(tick=517, channel=9, data=[36, 127]),
   midi.NoteOnEvent(tick=23, channel=9, data=[36, 0]),
   midi.NoteOnEvent(tick=193, channel=9, data=[36, 127]),
   midi.NoteOnEvent(tick=23, channel=9, data=[36, 0]),
   midi.NoteOnEvent(tick=85, channel=9, data=[36, 127]),
   midi.NoteOnEvent(tick=23, channel=9, data=[36, 0]),
   midi.NoteOnEvent(tick=517, channel=9, data=[36, 127]),
   midi.NoteOnEvent(tick=23, channel=9, data=[36, 0]),
   midi.NoteOnEvent(tick=193, channel=9, data=[36, 127]),
   midi.NoteOnEvent(tick=23, channel=9, data=[36, 0]),
   midi.NoteOnEvent(tick=85, channel=9, data=[36, 127]),
   midi.NoteOnEvent(tick=23, channel=9, data=[36, 0]),
   midi.NoteOnEvent(tick=517, channel=9, data=[36, 127]),
   midi.NoteOnEvent(tick=23, channel=9, data=[36, 0]),
   midi.NoteOnEvent(tick=193, channel=9, data=[36, 127]),
   midi.NoteOnEvent(tick=23, channel=9, data=[36, 0]),
   midi.NoteOnEvent(tick=85, channel=9, data=[36, 127]),
   midi.NoteOnEvent(tick=23, channel=9, data=[36, 0]),
   midi.NoteOnEvent(tick=517, channel=9, data=[36, 127]),
   midi.NoteOnEvent(tick=23, channel=9, data=[36, 0]),
   midi.NoteOnEvent(tick=193, channel=9, data=[36, 127]),
   midi.NoteOnEvent(tick=23, channel=9, data=[36, 0]),
   midi.NoteOnEvent(tick=85, channel=9, data=[36, 127]),
   midi.NoteOnEvent(tick=23, channel=9, data=[36, 0]),
   midi.NoteOnEvent(tick=517, channel=9, data=[36, 127]),
   midi.NoteOnEvent(tick=23, channel=9, data=[36, 0]),
   midi.NoteOnEvent(tick=193, channel=9, data=[36, 127]),
   midi.NoteOnEvent(tick=23, channel=9, data=[36, 0]),
   midi.NoteOnEvent(tick=85, channel=9, data=[36, 127]),
   midi.NoteOnEvent(tick=23, channel=9, data=[36, 0]),
   midi.NoteOnEvent(tick=517, channel=9, data=[36, 127]),
   midi.NoteOnEvent(tick=23, channel=9, data=[36, 0]),
   midi.NoteOnEvent(tick=193, channel=9, data=[36, 127]),
   midi.NoteOnEvent(tick=23, channel=9, data=[36, 0]),
   midi.NoteOnEvent(tick=85, channel=9, data=[36, 127]),
   midi.NoteOnEvent(tick=23, channel=9, data=[36, 0]),
   midi.NoteOnEvent(tick=517, channel=9, data=[36, 127]),
   midi.NoteOnEvent(tick=23, channel=9, data=[36, 0]),
   midi.NoteOnEvent(tick=193, channel=9, data=[36, 127]),
   midi.NoteOnEvent(tick=23, channel=9, data=[36, 0]),
   midi.NoteOnEvent(tick=85, channel=9, data=[36, 127]),
   midi.NoteOnEvent(tick=23, channel=9, data=[36, 0]),
   midi.NoteOnEvent(tick=517, channel=9, data=[36, 127]),
   midi.NoteOnEvent(tick=23, channel=9, data=[36, 0]),
   midi.NoteOnEvent(tick=193, channel=9, data=[36, 127]),
   midi.NoteOnEvent(tick=23, channel=9, data=[36, 0]),
   midi.NoteOnEvent(tick=85, channel=9, data=[36, 127]),
   midi.NoteOnEvent(tick=23, channel=9, data=[36, 0]),
   midi.NoteOnEvent(tick=517, channel=9, data=[36, 127]),
   midi.NoteOnEvent(tick=23, channel=9, data=[36, 0]),
   midi.NoteOnEvent(tick=301, channel=9, data=[36, 127]),
   midi.NoteOnEvent(tick=23, channel=9, data=[36, 0]),
   midi.NoteOnEvent(tick=301, channel=9, data=[36, 127]),
   midi.NoteOnEvent(tick=23, channel=9, data=[36, 0]),
   midi.NoteOnEvent(tick=193, channel=9, data=[36, 127]),
   midi.NoteOnEvent(tick=23, channel=9, data=[36, 0]),
   midi.NoteOnEvent(tick=1030, channel=9, data=[36, 100]),
   midi.NoteOnEvent(tick=25, channel=9, data=[36, 0]),
   midi.NoteOnEvent(tick=2, channel=9, data=[36, 100]),
   midi.NoteOnEvent(tick=25, channel=9, data=[36, 0]),
   midi.NoteOnEvent(tick=299, channel=9, data=[36, 100]),
   midi.NoteOnEvent(tick=25, channel=9, data=[36, 0]),
   midi.NoteOnEvent(tick=2, channel=9, data=[36, 100]),
   midi.NoteOnEvent(tick=25, channel=9, data=[36, 0]),
   midi.NoteOnEvent(tick=380, channel=9, data=[36, 127]),
   midi.NoteOnEvent(tick=23, channel=9, data=[36, 0]),
   midi.NoteOnEvent(tick=193, channel=9, data=[36, 127]),
   midi.NoteOnEvent(tick=23, channel=9, data=[36, 0]),
   midi.NoteOnEvent(tick=193, channel=9, data=[36, 127]),
   midi.NoteOnEvent(tick=23, channel=9, data=[36, 0]),
   midi.NoteOnEvent(tick=301, channel=9, data=[36, 127]),
   midi.NoteOnEvent(tick=23, channel=9, data=[36, 0]),
   midi.NoteOnEvent(tick=274, channel=9, data=[36, 127]),
   midi.NoteOnEvent(tick=23, channel=9, data=[36, 0]),
   midi.NoteOnEvent(tick=112, channel=9, data=[36, 127]),
   midi.NoteOnEvent(tick=23, channel=9, data=[36, 0]),
   midi.NoteOnEvent(tick=274, channel=9, data=[36, 127]),
   midi.NoteOnEvent(tick=23, channel=9, data=[36, 0]),
   midi.NoteOnEvent(tick=112, channel=9, data=[36, 127]),
   midi.NoteOnEvent(tick=23, channel=9, data=[36, 0]),
   midi.NoteOnEvent(tick=274, channel=9, data=[36, 127]),
   midi.NoteOnEvent(tick=23, channel=9, data=[36, 0]),
   midi.NoteOnEvent(tick=112, channel=9, data=[36, 127]),
   midi.NoteOnEvent(tick=23, channel=9, data=[36, 0]),
   midi.NoteOnEvent(tick=274, channel=9, data=[36, 127]),
   midi.NoteOnEvent(tick=23, channel=9, data=[36, 0]),
   midi.NoteOnEvent(tick=112, channel=9, data=[36, 127]),
   midi.NoteOnEvent(tick=23, channel=9, data=[36, 0]),
   midi.NoteOnEvent(tick=274, channel=9, data=[36, 127]),
   midi.NoteOnEvent(tick=23, channel=9, data=[36, 0]),
   midi.NoteOnEvent(tick=112, channel=9, data=[36, 127]),
   midi.NoteOnEvent(tick=23, channel=9, data=[36, 0]),
   midi.NoteOnEvent(tick=274, channel=9, data=[36, 127]),
   midi.NoteOnEvent(tick=23, channel=9, data=[36, 0]),
   midi.NoteOnEvent(tick=112, channel=9, data=[36, 127]),
   midi.NoteOnEvent(tick=23, channel=9, data=[36, 0]),
   midi.NoteOnEvent(tick=274, channel=9, data=[36, 127]),
   midi.NoteOnEvent(tick=23, channel=9, data=[36, 0]),
   midi.NoteOnEvent(tick=112, channel=9, data=[36, 127]),
   midi.NoteOnEvent(tick=23, channel=9, data=[36, 0]),
   midi.NoteOnEvent(tick=274, channel=9, data=[36, 127]),
   midi.NoteOnEvent(tick=23, channel=9, data=[36, 0]),
   midi.NoteOnEvent(tick=112, channel=9, data=[36, 127]),
   midi.NoteOnEvent(tick=23, channel=9, data=[36, 0]),
   midi.NoteOnEvent(tick=274, channel=9, data=[36, 127]),
   midi.NoteOnEvent(tick=23, channel=9, data=[36, 0]),
   midi.NoteOnEvent(tick=112, channel=9, data=[36, 127]),
   midi.NoteOnEvent(tick=23, channel=9, data=[36, 0]),
   midi.NoteOnEvent(tick=274, channel=9, data=[36, 127]),
   midi.NoteOnEvent(tick=23, channel=9, data=[36, 0]),
   midi.NoteOnEvent(tick=112, channel=9, data=[36, 127]),
   midi.NoteOnEvent(tick=23, channel=9, data=[36, 0]),
   midi.NoteOnEvent(tick=274, channel=9, data=[36, 127]),
   midi.NoteOnEvent(tick=23, channel=9, data=[36, 0]),
   midi.NoteOnEvent(tick=112, channel=9, data=[36, 127]),
   midi.NoteOnEvent(tick=23, channel=9, data=[36, 0]),
   midi.NoteOnEvent(tick=274, channel=9, data=[36, 127]),
   midi.NoteOnEvent(tick=23, channel=9, data=[36, 0]),
   midi.NoteOnEvent(tick=112, channel=9, data=[36, 127]),
   midi.NoteOnEvent(tick=23, channel=9, data=[36, 0]),
   midi.NoteOnEvent(tick=274, channel=9, data=[36, 127]),
   midi.NoteOnEvent(tick=23, channel=9, data=[36, 0]),
   midi.NoteOnEvent(tick=112, channel=9, data=[36, 127]),
   midi.NoteOnEvent(tick=23, channel=9, data=[36, 0]),
   midi.NoteOnEvent(tick=274, channel=9, data=[36, 127]),
   midi.NoteOnEvent(tick=23, channel=9, data=[36, 0]),
   midi.NoteOnEvent(tick=220, channel=9, data=[36, 127]),
   midi.NoteOnEvent(tick=108, channel=9, data=[36, 0]),
   midi.NoteOnEvent(tick=108, channel=9, data=[36, 127]),
   midi.NoteOnEvent(tick=108, channel=9, data=[36, 0]),
   midi.NoteOnEvent(tick=108, channel=9, data=[36, 127]),
   midi.NoteOnEvent(tick=108, channel=9, data=[36, 0]),
   midi.NoteOnEvent(tick=216, channel=9, data=[36, 127]),
   midi.NoteOnEvent(tick=23, channel=9, data=[36, 0]),
   midi.NoteOnEvent(tick=274, channel=9, data=[36, 127]),
   midi.NoteOnEvent(tick=23, channel=9, data=[36, 0]),
   midi.NoteOnEvent(tick=112, channel=9, data=[36, 127]),
   midi.NoteOnEvent(tick=23, channel=9, data=[36, 0]),
   midi.NoteOnEvent(tick=274, channel=9, data=[36, 127]),
   midi.NoteOnEvent(tick=23, channel=9, data=[36, 0]),
   midi.NoteOnEvent(tick=112, channel=9, data=[36, 127]),
   midi.NoteOnEvent(tick=23, channel=9, data=[36, 0]),
   midi.NoteOnEvent(tick=274, channel=9, data=[36, 127]),
   midi.NoteOnEvent(tick=23, channel=9, data=[36, 0]),
   midi.NoteOnEvent(tick=112, channel=9, data=[36, 127]),
   midi.NoteOnEvent(tick=23, channel=9, data=[36, 0]),
   midi.NoteOnEvent(tick=274, channel=9, data=[36, 127]),
   midi.NoteOnEvent(tick=23, channel=9, data=[36, 0]),
   midi.NoteOnEvent(tick=112, channel=9, data=[36, 127]),
   midi.NoteOnEvent(tick=23, channel=9, data=[36, 0]),
   midi.NoteOnEvent(tick=274, channel=9, data=[36, 127]),
   midi.NoteOnEvent(tick=23, channel=9, data=[36, 0]),
   midi.NoteOnEvent(tick=112, channel=9, data=[36, 127]),
   midi.NoteOnEvent(tick=23, channel=9, data=[36, 0]),
   midi.NoteOnEvent(tick=274, channel=9, data=[36, 127]),
   midi.NoteOnEvent(tick=23, channel=9, data=[36, 0]),
   midi.NoteOnEvent(tick=112, channel=9, data=[36, 127]),
   midi.NoteOnEvent(tick=23, channel=9, data=[36, 0]),
   midi.NoteOnEvent(tick=274, channel=9, data=[36, 127]),
   midi.NoteOnEvent(tick=23, channel=9, data=[36, 0]),
   midi.NoteOnEvent(tick=112, channel=9, data=[36, 127]),
   midi.NoteOnEvent(tick=23, channel=9, data=[36, 0]),
   midi.NoteOnEvent(tick=274, channel=9, data=[36, 127]),
   midi.NoteOnEvent(tick=23, channel=9, data=[36, 0]),
   midi.NoteOnEvent(tick=112, channel=9, data=[36, 127]),
   midi.NoteOnEvent(tick=23, channel=9, data=[36, 0]),
   midi.NoteOnEvent(tick=274, channel=9, data=[36, 127]),
   midi.NoteOnEvent(tick=23, channel=9, data=[36, 0]),
   midi.NoteOnEvent(tick=112, channel=9, data=[36, 127]),
   midi.NoteOnEvent(tick=23, channel=9, data=[36, 0]),
   midi.NoteOnEvent(tick=274, channel=9, data=[36, 127]),
   midi.NoteOnEvent(tick=23, channel=9, data=[36, 0]),
   midi.NoteOnEvent(tick=112, channel=9, data=[36, 127]),
   midi.NoteOnEvent(tick=23, channel=9, data=[36, 0]),
   midi.NoteOnEvent(tick=274, channel=9, data=[36, 127]),
   midi.NoteOnEvent(tick=23, channel=9, data=[36, 0]),
   midi.NoteOnEvent(tick=112, channel=9, data=[36, 127]),
   midi.NoteOnEvent(tick=23, channel=9, data=[36, 0]),
   midi.NoteOnEvent(tick=274, channel=9, data=[36, 127]),
   midi.NoteOnEvent(tick=23, channel=9, data=[36, 0]),
   midi.NoteOnEvent(tick=112, channel=9, data=[36, 127]),
   midi.NoteOnEvent(tick=23, channel=9, data=[36, 0]),
   midi.NoteOnEvent(tick=274, channel=9, data=[36, 127]),
   midi.NoteOnEvent(tick=23, channel=9, data=[36, 0]),
   midi.NoteOnEvent(tick=112, channel=9, data=[36, 127]),
   midi.NoteOnEvent(tick=23, channel=9, data=[36, 0]),
   midi.NoteOnEvent(tick=274, channel=9, data=[36, 127]),
   midi.NoteOnEvent(tick=23, channel=9, data=[36, 0]),
   midi.NoteOnEvent(tick=220, channel=9, data=[36, 127]),
   midi.NoteOnEvent(tick=108, channel=9, data=[36, 0]),
   midi.NoteOnEvent(tick=108, channel=9, data=[36, 127]),
   midi.NoteOnEvent(tick=108, channel=9, data=[36, 0]),
   midi.NoteOnEvent(tick=108, channel=9, data=[36, 127]),
   midi.NoteOnEvent(tick=108, channel=9, data=[36, 0]),
   midi.NoteOnEvent(tick=216, channel=9, data=[36, 127]),
   midi.NoteOnEvent(tick=23, channel=9, data=[36, 0]),
   midi.NoteOnEvent(tick=409, channel=9, data=[36, 127]),
   midi.NoteOnEvent(tick=23, channel=9, data=[36, 0]),
   midi.NoteOnEvent(tick=85, channel=9, data=[36, 127]),
   midi.NoteOnEvent(tick=23, channel=9, data=[36, 0]),
   midi.NoteOnEvent(tick=31, channel=9, data=[36, 127]),
   midi.NoteOnEvent(tick=23, channel=9, data=[36, 0]),
   midi.NoteOnEvent(tick=139, channel=9, data=[36, 127]),
   midi.NoteOnEvent(tick=23, channel=9, data=[36, 0]),
   midi.NoteOnEvent(tick=85, channel=9, data=[36, 127]),
   midi.NoteOnEvent(tick=23, channel=9, data=[36, 0]),
   midi.NoteOnEvent(tick=409, channel=9, data=[36, 127]),
   midi.NoteOnEvent(tick=23, channel=9, data=[36, 0]),
   midi.NoteOnEvent(tick=85, channel=9, data=[36, 127]),
   midi.NoteOnEvent(tick=23, channel=9, data=[36, 0]),
   midi.NoteOnEvent(tick=31, channel=9, data=[36, 127]),
   midi.NoteOnEvent(tick=23, channel=9, data=[36, 0]),
   midi.NoteOnEvent(tick=139, channel=9, data=[36, 127]),
   midi.NoteOnEvent(tick=23, channel=9, data=[36, 0]),
   midi.NoteOnEvent(tick=85, channel=9, data=[36, 127]),
   midi.NoteOnEvent(tick=23, channel=9, data=[36, 0]),
   midi.NoteOnEvent(tick=409, channel=9, data=[36, 127]),
   midi.NoteOnEvent(tick=23, channel=9, data=[36, 0]),
   midi.NoteOnEvent(tick=85, channel=9, data=[36, 127]),
   midi.NoteOnEvent(tick=23, channel=9, data=[36, 0]),
   midi.NoteOnEvent(tick=31, channel=9, data=[36, 127]),
   midi.NoteOnEvent(tick=23, channel=9, data=[36, 0]),
   midi.NoteOnEvent(tick=139, channel=9, data=[36, 127]),
   midi.NoteOnEvent(tick=23, channel=9, data=[36, 0]),
   midi.NoteOnEvent(tick=85, channel=9, data=[36, 127]),
   midi.NoteOnEvent(tick=23, channel=9, data=[36, 0]),
   midi.NoteOnEvent(tick=409, channel=9, data=[36, 127]),
   midi.NoteOnEvent(tick=23, channel=9, data=[36, 0]),
   midi.NoteOnEvent(tick=85, channel=9, data=[36, 127]),
   midi.NoteOnEvent(tick=23, channel=9, data=[36, 0]),
   midi.NoteOnEvent(tick=31, channel=9, data=[36, 127]),
   midi.NoteOnEvent(tick=23, channel=9, data=[36, 0]),
   midi.NoteOnEvent(tick=139, channel=9, data=[36, 127]),
   midi.NoteOnEvent(tick=23, channel=9, data=[36, 0]),
   midi.NoteOnEvent(tick=85, channel=9, data=[36, 127]),
   midi.NoteOnEvent(tick=23, channel=9, data=[36, 0]),
   midi.NoteOnEvent(tick=409, channel=9, data=[36, 127]),
   midi.NoteOnEvent(tick=23, channel=9, data=[36, 0]),
   midi.NoteOnEvent(tick=85, channel=9, data=[36, 127]),
   midi.NoteOnEvent(tick=23, channel=9, data=[36, 0]),
   midi.NoteOnEvent(tick=31, channel=9, data=[36, 127]),
   midi.NoteOnEvent(tick=23, channel=9, data=[36, 0]),
   midi.NoteOnEvent(tick=139, channel=9, data=[36, 127]),
   midi.NoteOnEvent(tick=23, channel=9, data=[36, 0]),
   midi.NoteOnEvent(tick=85, channel=9, data=[36, 127]),
   midi.NoteOnEvent(tick=23, channel=9, data=[36, 0]),
   midi.NoteOnEvent(tick=409, channel=9, data=[36, 127]),
   midi.NoteOnEvent(tick=23, channel=9, data=[36, 0]),
   midi.NoteOnEvent(tick=85, channel=9, data=[36, 127]),
   midi.NoteOnEvent(tick=23, channel=9, data=[36, 0]),
   midi.NoteOnEvent(tick=31, channel=9, data=[36, 127]),
   midi.NoteOnEvent(tick=23, channel=9, data=[36, 0]),
   midi.NoteOnEvent(tick=139, channel=9, data=[36, 127]),
   midi.NoteOnEvent(tick=23, channel=9, data=[36, 0]),
   midi.NoteOnEvent(tick=85, channel=9, data=[36, 127]),
   midi.NoteOnEvent(tick=23, channel=9, data=[36, 0]),
   midi.NoteOnEvent(tick=31, channel=9, data=[36, 127]),
   midi.NoteOnEvent(tick=23, channel=9, data=[36, 0]),
   midi.NoteOnEvent(tick=31, channel=9, data=[36, 127]),
   midi.NoteOnEvent(tick=23, channel=9, data=[36, 0]),
   midi.NoteOnEvent(tick=31, channel=9, data=[36, 127]),
   midi.NoteOnEvent(tick=23, channel=9, data=[36, 0]),
   midi.NoteOnEvent(tick=31, channel=9, data=[36, 127]),
   midi.NoteOnEvent(tick=23, channel=9, data=[36, 0]),
   midi.NoteOnEvent(tick=31, channel=9, data=[36, 127]),
   midi.NoteOnEvent(tick=23, channel=9, data=[36, 0]),
   midi.NoteOnEvent(tick=31, channel=9, data=[36, 127]),
   midi.NoteOnEvent(tick=23, channel=9, data=[36, 0]),
   midi.NoteOnEvent(tick=31, channel=9, data=[36, 127]),
   midi.NoteOnEvent(tick=23, channel=9, data=[36, 0]),
   midi.NoteOnEvent(tick=31, channel=9, data=[36, 127]),
   midi.NoteOnEvent(tick=23, channel=9, data=[36, 0]),
   midi.NoteOnEvent(tick=31, channel=9, data=[36, 127]),
   midi.NoteOnEvent(tick=23, channel=9, data=[36, 0]),
   midi.NoteOnEvent(tick=31, channel=9, data=[36, 127]),
   midi.NoteOnEvent(tick=23, channel=9, data=[36, 0]),
   midi.NoteOnEvent(tick=31, channel=9, data=[36, 127]),
   midi.NoteOnEvent(tick=23, channel=9, data=[36, 0]),
   midi.NoteOnEvent(tick=31, channel=9, data=[36, 127]),
   midi.NoteOnEvent(tick=23, channel=9, data=[36, 0]),
   midi.NoteOnEvent(tick=31, channel=9, data=[36, 127]),
   midi.NoteOnEvent(tick=23, channel=9, data=[36, 0]),
   midi.NoteOnEvent(tick=31, channel=9, data=[36, 127]),
   midi.NoteOnEvent(tick=23, channel=9, data=[36, 0]),
   midi.NoteOnEvent(tick=31, channel=9, data=[36, 127]),
   midi.NoteOnEvent(tick=23, channel=9, data=[36, 0]),
   midi.NoteOnEvent(tick=31, channel=9, data=[36, 127]),
   midi.NoteOnEvent(tick=23, channel=9, data=[36, 0]),
   midi.NoteOnEvent(tick=31, channel=9, data=[36, 127]),
   midi.NoteOnEvent(tick=23, channel=9, data=[36, 0]),
   midi.NoteOnEvent(tick=31, channel=9, data=[36, 127]),
   midi.NoteOnEvent(tick=23, channel=9, data=[36, 0]),
   midi.NoteOnEvent(tick=31, channel=9, data=[36, 127]),
   midi.NoteOnEvent(tick=23, channel=9, data=[36, 0]),
   midi.NoteOnEvent(tick=31, channel=9, data=[36, 127]),
   midi.NoteOnEvent(tick=23, channel=9, data=[36, 0]),
   midi.NoteOnEvent(tick=31, channel=9, data=[36, 127]),
   midi.NoteOnEvent(tick=23, channel=9, data=[36, 0]),
   midi.NoteOnEvent(tick=31, channel=9, data=[36, 127]),
   midi.NoteOnEvent(tick=23, channel=9, data=[36, 0]),
   midi.NoteOnEvent(tick=31, channel=9, data=[36, 127]),
   midi.NoteOnEvent(tick=23, channel=9, data=[36, 0]),
   midi.NoteOnEvent(tick=31, channel=9, data=[36, 127]),
   midi.NoteOnEvent(tick=23, channel=9, data=[36, 0]),
   midi.NoteOnEvent(tick=31, channel=9, data=[36, 127]),
   midi.NoteOnEvent(tick=23, channel=9, data=[36, 0]),
   midi.NoteOnEvent(tick=31, channel=9, data=[36, 127]),
   midi.NoteOnEvent(tick=23, channel=9, data=[36, 0]),
   midi.NoteOnEvent(tick=31, channel=9, data=[36, 127]),
   midi.NoteOnEvent(tick=23, channel=9, data=[36, 0]),
   midi.NoteOnEvent(tick=31, channel=9, data=[36, 127]),
   midi.NoteOnEvent(tick=23, channel=9, data=[36, 0]),
   midi.NoteOnEvent(tick=31, channel=9, data=[36, 127]),
   midi.NoteOnEvent(tick=23, channel=9, data=[36, 0]),
   midi.NoteOnEvent(tick=31, channel=9, data=[36, 127]),
   midi.NoteOnEvent(tick=23, channel=9, data=[36, 0]),
   midi.NoteOnEvent(tick=31, channel=9, data=[36, 127]),
   midi.NoteOnEvent(tick=23, channel=9, data=[36, 0]),
   midi.NoteOnEvent(tick=31, channel=9, data=[36, 127]),
   midi.NoteOnEvent(tick=23, channel=9, data=[36, 0]),
   midi.NoteOnEvent(tick=31, channel=9, data=[36, 127]),
   midi.NoteOnEvent(tick=23, channel=9, data=[36, 0]),
   midi.NoteOnEvent(tick=31, channel=9, data=[36, 127]),
   midi.NoteOnEvent(tick=23, channel=9, data=[36, 0]),
   midi.NoteOnEvent(tick=31, channel=9, data=[36, 127]),
   midi.NoteOnEvent(tick=23, channel=9, data=[36, 0]),
   midi.NoteOnEvent(tick=31, channel=9, data=[36, 127]),
   midi.NoteOnEvent(tick=23, channel=9, data=[36, 0]),
   midi.NoteOnEvent(tick=31, channel=9, data=[36, 127]),
   midi.NoteOnEvent(tick=23, channel=9, data=[36, 0]),
   midi.NoteOnEvent(tick=31, channel=9, data=[36, 127]),
   midi.NoteOnEvent(tick=23, channel=9, data=[36, 0]),
   midi.NoteOnEvent(tick=31, channel=9, data=[36, 127]),
   midi.NoteOnEvent(tick=23, channel=9, data=[36, 0]),
   midi.NoteOnEvent(tick=31, channel=9, data=[36, 127]),
   midi.NoteOnEvent(tick=23, channel=9, data=[36, 0]),
   midi.NoteOnEvent(tick=31, channel=9, data=[36, 127]),
   midi.NoteOnEvent(tick=23, channel=9, data=[36, 0]),
   midi.NoteOnEvent(tick=31, channel=9, data=[36, 127]),
   midi.NoteOnEvent(tick=23, channel=9, data=[36, 0]),
   midi.NoteOnEvent(tick=31, channel=9, data=[36, 127]),
   midi.NoteOnEvent(tick=23, channel=9, data=[36, 0]),
   midi.NoteOnEvent(tick=31, channel=9, data=[36, 127]),
   midi.NoteOnEvent(tick=23, channel=9, data=[36, 0]),
   midi.NoteOnEvent(tick=31, channel=9, data=[36, 127]),
   midi.NoteOnEvent(tick=23, channel=9, data=[36, 0]),
   midi.NoteOnEvent(tick=31, channel=9, data=[36, 127]),
   midi.NoteOnEvent(tick=23, channel=9, data=[36, 0]),
   midi.NoteOnEvent(tick=31, channel=9, data=[36, 127]),
   midi.NoteOnEvent(tick=23, channel=9, data=[36, 0]),
   midi.NoteOnEvent(tick=31, channel=9, data=[36, 127]),
   midi.NoteOnEvent(tick=23, channel=9, data=[36, 0]),
   midi.NoteOnEvent(tick=31, channel=9, data=[36, 127]),
   midi.NoteOnEvent(tick=23, channel=9, data=[36, 0]),
   midi.NoteOnEvent(tick=31, channel=9, data=[36, 127]),
   midi.NoteOnEvent(tick=23, channel=9, data=[36, 0]),
   midi.NoteOnEvent(tick=31, channel=9, data=[36, 127]),
   midi.NoteOnEvent(tick=23, channel=9, data=[36, 0]),
   midi.NoteOnEvent(tick=31, channel=9, data=[36, 127]),
   midi.NoteOnEvent(tick=23, channel=9, data=[36, 0]),
   midi.NoteOnEvent(tick=31, channel=9, data=[36, 127]),
   midi.NoteOnEvent(tick=23, channel=9, data=[36, 0]),
   midi.NoteOnEvent(tick=31, channel=9, data=[36, 127]),
   midi.NoteOnEvent(tick=23, channel=9, data=[36, 0]),
   midi.NoteOnEvent(tick=31, channel=9, data=[36, 127]),
   midi.NoteOnEvent(tick=23, channel=9, data=[36, 0]),
   midi.NoteOnEvent(tick=31, channel=9, data=[36, 127]),
   midi.NoteOnEvent(tick=23, channel=9, data=[36, 0]),
   midi.NoteOnEvent(tick=31, channel=9, data=[36, 127]),
   midi.NoteOnEvent(tick=23, channel=9, data=[36, 0]),
   midi.NoteOnEvent(tick=31, channel=9, data=[36, 127]),
   midi.NoteOnEvent(tick=23, channel=9, data=[36, 0]),
   midi.NoteOnEvent(tick=31, channel=9, data=[36, 127]),
   midi.NoteOnEvent(tick=23, channel=9, data=[36, 0]),
   midi.NoteOnEvent(tick=31, channel=9, data=[36, 127]),
   midi.NoteOnEvent(tick=23, channel=9, data=[36, 0]),
   midi.NoteOnEvent(tick=31, channel=9, data=[36, 127]),
   midi.NoteOnEvent(tick=23, channel=9, data=[36, 0]),
   midi.NoteOnEvent(tick=31, channel=9, data=[36, 127]),
   midi.NoteOnEvent(tick=23, channel=9, data=[36, 0]),
   midi.NoteOnEvent(tick=31, channel=9, data=[36, 127]),
   midi.NoteOnEvent(tick=23, channel=9, data=[36, 0]),
   midi.NoteOnEvent(tick=31, channel=9, data=[36, 127]),
   midi.NoteOnEvent(tick=23, channel=9, data=[36, 0]),
   midi.NoteOnEvent(tick=31, channel=9, data=[36, 127]),
   midi.NoteOnEvent(tick=23, channel=9, data=[36, 0]),
   midi.NoteOnEvent(tick=31, channel=9, data=[36, 127]),
   midi.NoteOnEvent(tick=23, channel=9, data=[36, 0]),
   midi.NoteOnEvent(tick=31, channel=9, data=[36, 127]),
   midi.NoteOnEvent(tick=23, channel=9, data=[36, 0]),
   midi.NoteOnEvent(tick=31, channel=9, data=[36, 127]),
   midi.NoteOnEvent(tick=23, channel=9, data=[36, 0]),
   midi.NoteOnEvent(tick=31, channel=9, data=[36, 127]),
   midi.NoteOnEvent(tick=23, channel=9, data=[36, 0]),
   midi.NoteOnEvent(tick=31, channel=9, data=[36, 127]),
   midi.NoteOnEvent(tick=23, channel=9, data=[36, 0]),
   midi.NoteOnEvent(tick=31, channel=9, data=[36, 127]),
   midi.NoteOnEvent(tick=23, channel=9, data=[36, 0]),
   midi.NoteOnEvent(tick=31, channel=9, data=[36, 127]),
   midi.NoteOnEvent(tick=23, channel=9, data=[36, 0]),
   midi.NoteOnEvent(tick=31, channel=9, data=[36, 127]),
   midi.NoteOnEvent(tick=23, channel=9, data=[36, 0]),
   midi.NoteOnEvent(tick=31, channel=9, data=[36, 127]),
   midi.NoteOnEvent(tick=23, channel=9, data=[36, 0]),
   midi.NoteOnEvent(tick=31, channel=9, data=[36, 127]),
   midi.NoteOnEvent(tick=23, channel=9, data=[36, 0]),
   midi.NoteOnEvent(tick=31, channel=9, data=[36, 127]),
   midi.NoteOnEvent(tick=23, channel=9, data=[36, 0]),
   midi.NoteOnEvent(tick=31, channel=9, data=[36, 127]),
   midi.NoteOnEvent(tick=23, channel=9, data=[36, 0]),
   midi.NoteOnEvent(tick=31, channel=9, data=[36, 127]),
   midi.NoteOnEvent(tick=23, channel=9, data=[36, 0]),
   midi.NoteOnEvent(tick=31, channel=9, data=[36, 127]),
   midi.NoteOnEvent(tick=23, channel=9, data=[36, 0]),
   midi.NoteOnEvent(tick=31, channel=9, data=[36, 127]),
   midi.NoteOnEvent(tick=23, channel=9, data=[36, 0]),
   midi.NoteOnEvent(tick=31, channel=9, data=[36, 127]),
   midi.NoteOnEvent(tick=23, channel=9, data=[36, 0]),
   midi.NoteOnEvent(tick=31, channel=9, data=[36, 127]),
   midi.NoteOnEvent(tick=23, channel=9, data=[36, 0]),
   midi.NoteOnEvent(tick=31, channel=9, data=[36, 127]),
   midi.NoteOnEvent(tick=23, channel=9, data=[36, 0]),
   midi.NoteOnEvent(tick=31, channel=9, data=[36, 127]),
   midi.NoteOnEvent(tick=23, channel=9, data=[36, 0]),
   midi.NoteOnEvent(tick=31, channel=9, data=[36, 127]),
   midi.NoteOnEvent(tick=23, channel=9, data=[36, 0]),
   midi.NoteOnEvent(tick=31, channel=9, data=[36, 127]),
   midi.NoteOnEvent(tick=23, channel=9, data=[36, 0]),
   midi.NoteOnEvent(tick=31, channel=9, data=[36, 127]),
   midi.NoteOnEvent(tick=23, channel=9, data=[36, 0]),
   midi.NoteOnEvent(tick=31, channel=9, data=[36, 127]),
   midi.NoteOnEvent(tick=23, channel=9, data=[36, 0]),
   midi.NoteOnEvent(tick=31, channel=9, data=[36, 127]),
   midi.NoteOnEvent(tick=23, channel=9, data=[36, 0]),
   midi.NoteOnEvent(tick=31, channel=9, data=[36, 127]),
   midi.NoteOnEvent(tick=23, channel=9, data=[36, 0]),
   midi.NoteOnEvent(tick=31, channel=9, data=[36, 127]),
   midi.NoteOnEvent(tick=23, channel=9, data=[36, 0]),
   midi.NoteOnEvent(tick=31, channel=9, data=[36, 127]),
   midi.NoteOnEvent(tick=23, channel=9, data=[36, 0]),
   midi.NoteOnEvent(tick=31, channel=9, data=[36, 127]),
   midi.NoteOnEvent(tick=23, channel=9, data=[36, 0]),
   midi.NoteOnEvent(tick=31, channel=9, data=[36, 127]),
   midi.NoteOnEvent(tick=23, channel=9, data=[36, 0]),
   midi.NoteOnEvent(tick=31, channel=9, data=[36, 127]),
   midi.NoteOnEvent(tick=23, channel=9, data=[36, 0]),
   midi.NoteOnEvent(tick=31, channel=9, data=[36, 127]),
   midi.NoteOnEvent(tick=23, channel=9, data=[36, 0]),
   midi.NoteOnEvent(tick=31, channel=9, data=[36, 127]),
   midi.NoteOnEvent(tick=23, channel=9, data=[36, 0]),
   midi.NoteOnEvent(tick=31, channel=9, data=[36, 127]),
   midi.NoteOnEvent(tick=23, channel=9, data=[36, 0]),
   midi.NoteOnEvent(tick=31, channel=9, data=[36, 127]),
   midi.NoteOnEvent(tick=23, channel=9, data=[36, 0]),
   midi.NoteOnEvent(tick=31, channel=9, data=[36, 127]),
   midi.NoteOnEvent(tick=23, channel=9, data=[36, 0]),
   midi.NoteOnEvent(tick=31, channel=9, data=[36, 127]),
   midi.NoteOnEvent(tick=23, channel=9, data=[36, 0]),
   midi.NoteOnEvent(tick=31, channel=9, data=[36, 127]),
   midi.NoteOnEvent(tick=23, channel=9, data=[36, 0]),
   midi.NoteOnEvent(tick=31, channel=9, data=[36, 127]),
   midi.NoteOnEvent(tick=23, channel=9, data=[36, 0]),
   midi.NoteOnEvent(tick=31, channel=9, data=[36, 127]),
   midi.NoteOnEvent(tick=23, channel=9, data=[36, 0]),
   midi.NoteOnEvent(tick=31, channel=9, data=[36, 127]),
   midi.NoteOnEvent(tick=23, channel=9, data=[36, 0]),
   midi.NoteOnEvent(tick=31, channel=9, data=[36, 127]),
   midi.NoteOnEvent(tick=23, channel=9, data=[36, 0]),
   midi.NoteOnEvent(tick=31, channel=9, data=[36, 127]),
   midi.NoteOnEvent(tick=23, channel=9, data=[36, 0]),
   midi.NoteOnEvent(tick=31, channel=9, data=[36, 127]),
   midi.NoteOnEvent(tick=23, channel=9, data=[36, 0]),
   midi.NoteOnEvent(tick=31, channel=9, data=[36, 127]),
   midi.NoteOnEvent(tick=23, channel=9, data=[36, 0]),
   midi.NoteOnEvent(tick=31, channel=9, data=[36, 127]),
   midi.NoteOnEvent(tick=23, channel=9, data=[36, 0]),
   midi.NoteOnEvent(tick=31, channel=9, data=[36, 127]),
   midi.NoteOnEvent(tick=23, channel=9, data=[36, 0]),
   midi.NoteOnEvent(tick=31, channel=9, data=[36, 127]),
   midi.NoteOnEvent(tick=23, channel=9, data=[36, 0]),
   midi.NoteOnEvent(tick=31, channel=9, data=[36, 127]),
   midi.NoteOnEvent(tick=23, channel=9, data=[36, 0]),
   midi.NoteOnEvent(tick=31, channel=9, data=[36, 127]),
   midi.NoteOnEvent(tick=23, channel=9, data=[36, 0]),
   midi.NoteOnEvent(tick=31, channel=9, data=[36, 127]),
   midi.NoteOnEvent(tick=23, channel=9, data=[36, 0]),
   midi.NoteOnEvent(tick=31, channel=9, data=[36, 127]),
   midi.NoteOnEvent(tick=23, channel=9, data=[36, 0]),
   midi.NoteOnEvent(tick=31, channel=9, data=[36, 127]),
   midi.NoteOnEvent(tick=23, channel=9, data=[36, 0]),
   midi.NoteOnEvent(tick=31, channel=9, data=[36, 127]),
   midi.NoteOnEvent(tick=23, channel=9, data=[36, 0]),
   midi.NoteOnEvent(tick=31, channel=9, data=[36, 127]),
   midi.NoteOnEvent(tick=23, channel=9, data=[36, 0]),
   midi.NoteOnEvent(tick=31, channel=9, data=[36, 127]),
   midi.NoteOnEvent(tick=23, channel=9, data=[36, 0]),
   midi.NoteOnEvent(tick=31, channel=9, data=[36, 127]),
   midi.NoteOnEvent(tick=23, channel=9, data=[36, 0]),
   midi.NoteOnEvent(tick=31, channel=9, data=[36, 127]),
   midi.NoteOnEvent(tick=23, channel=9, data=[36, 0]),
   midi.NoteOnEvent(tick=31, channel=9, data=[36, 127]),
   midi.NoteOnEvent(tick=23, channel=9, data=[36, 0]),
   midi.NoteOnEvent(tick=31, channel=9, data=[36, 127]),
   midi.NoteOnEvent(tick=23, channel=9, data=[36, 0]),
   midi.NoteOnEvent(tick=31, channel=9, data=[36, 127]),
   midi.NoteOnEvent(tick=23, channel=9, data=[36, 0]),
   midi.NoteOnEvent(tick=31, channel=9, data=[36, 127]),
   midi.NoteOnEvent(tick=23, channel=9, data=[36, 0]),
   midi.NoteOnEvent(tick=31, channel=9, data=[36, 127]),
   midi.NoteOnEvent(tick=23, channel=9, data=[36, 0]),
   midi.NoteOnEvent(tick=31, channel=9, data=[36, 127]),
   midi.NoteOnEvent(tick=23, channel=9, data=[36, 0]),
   midi.NoteOnEvent(tick=31, channel=9, data=[36, 127]),
   midi.NoteOnEvent(tick=23, channel=9, data=[36, 0]),
   midi.NoteOnEvent(tick=31, channel=9, data=[36, 127]),
   midi.NoteOnEvent(tick=23, channel=9, data=[36, 0]),
   midi.NoteOnEvent(tick=31, channel=9, data=[36, 127]),
   midi.NoteOnEvent(tick=23, channel=9, data=[36, 0]),
   midi.NoteOnEvent(tick=31, channel=9, data=[36, 127]),
   midi.NoteOnEvent(tick=23, channel=9, data=[36, 0]),
   midi.NoteOnEvent(tick=31, channel=9, data=[36, 127]),
   midi.NoteOnEvent(tick=23, channel=9, data=[36, 0]),
   midi.NoteOnEvent(tick=31, channel=9, data=[36, 127]),
   midi.NoteOnEvent(tick=23, channel=9, data=[36, 0]),
   midi.NoteOnEvent(tick=31, channel=9, data=[36, 127]),
   midi.NoteOnEvent(tick=23, channel=9, data=[36, 0]),
   midi.NoteOnEvent(tick=31, channel=9, data=[36, 127]),
   midi.NoteOnEvent(tick=23, channel=9, data=[36, 0]),
   midi.NoteOnEvent(tick=31, channel=9, data=[36, 127]),
   midi.NoteOnEvent(tick=23, channel=9, data=[36, 0]),
   midi.NoteOnEvent(tick=31, channel=9, data=[36, 127]),
   midi.NoteOnEvent(tick=23, channel=9, data=[36, 0]),
   midi.NoteOnEvent(tick=31, channel=9, data=[36, 127]),
   midi.NoteOnEvent(tick=23, channel=9, data=[36, 0]),
   midi.NoteOnEvent(tick=31, channel=9, data=[36, 127]),
   midi.NoteOnEvent(tick=23, channel=9, data=[36, 0]),
   midi.NoteOnEvent(tick=31, channel=9, data=[36, 127]),
   midi.NoteOnEvent(tick=23, channel=9, data=[36, 0]),
   midi.NoteOnEvent(tick=31, channel=9, data=[36, 127]),
   midi.NoteOnEvent(tick=23, channel=9, data=[36, 0]),
   midi.NoteOnEvent(tick=31, channel=9, data=[36, 127]),
   midi.NoteOnEvent(tick=23, channel=9, data=[36, 0]),
   midi.NoteOnEvent(tick=31, channel=9, data=[36, 127]),
   midi.NoteOnEvent(tick=23, channel=9, data=[36, 0]),
   midi.NoteOnEvent(tick=31, channel=9, data=[36, 127]),
   midi.NoteOnEvent(tick=23, channel=9, data=[36, 0]),
   midi.NoteOnEvent(tick=31, channel=9, data=[36, 127]),
   midi.NoteOnEvent(tick=23, channel=9, data=[36, 0]),
   midi.NoteOnEvent(tick=31, channel=9, data=[36, 127]),
   midi.NoteOnEvent(tick=23, channel=9, data=[36, 0]),
   midi.NoteOnEvent(tick=31, channel=9, data=[36, 127]),
   midi.NoteOnEvent(tick=23, channel=9, data=[36, 0]),
   midi.NoteOnEvent(tick=31, channel=9, data=[36, 127]),
   midi.NoteOnEvent(tick=23, channel=9, data=[36, 0]),
   midi.NoteOnEvent(tick=31, channel=9, data=[36, 127]),
   midi.NoteOnEvent(tick=23, channel=9, data=[36, 0]),
   midi.NoteOnEvent(tick=31, channel=9, data=[36, 127]),
   midi.NoteOnEvent(tick=23, channel=9, data=[36, 0]),
   midi.NoteOnEvent(tick=31, channel=9, data=[36, 127]),
   midi.NoteOnEvent(tick=23, channel=9, data=[36, 0]),
   midi.NoteOnEvent(tick=31, channel=9, data=[36, 127]),
   midi.NoteOnEvent(tick=23, channel=9, data=[36, 0]),
   midi.NoteOnEvent(tick=31, channel=9, data=[36, 127]),
   midi.NoteOnEvent(tick=23, channel=9, data=[36, 0]),
   midi.NoteOnEvent(tick=31, channel=9, data=[36, 127]),
   midi.NoteOnEvent(tick=23, channel=9, data=[36, 0]),
   midi.NoteOnEvent(tick=31, channel=9, data=[36, 127]),
   midi.NoteOnEvent(tick=23, channel=9, data=[36, 0]),
   midi.NoteOnEvent(tick=31, channel=9, data=[36, 127]),
   midi.NoteOnEvent(tick=23, channel=9, data=[36, 0]),
   midi.NoteOnEvent(tick=31, channel=9, data=[36, 127]),
   midi.NoteOnEvent(tick=23, channel=9, data=[36, 0]),
   midi.NoteOnEvent(tick=31, channel=9, data=[36, 127]),
   midi.NoteOnEvent(tick=23, channel=9, data=[36, 0]),
   midi.NoteOnEvent(tick=31, channel=9, data=[36, 127]),
   midi.NoteOnEvent(tick=23, channel=9, data=[36, 0]),
   midi.NoteOnEvent(tick=31, channel=9, data=[36, 127]),
   midi.NoteOnEvent(tick=23, channel=9, data=[36, 0]),
   midi.NoteOnEvent(tick=139, channel=9, data=[36, 127]),
   midi.NoteOnEvent(tick=23, channel=9, data=[36, 0]),
   midi.NoteOnEvent(tick=193, channel=9, data=[36, 127]),
   midi.NoteOnEvent(tick=23, channel=9, data=[36, 0]),
   midi.NoteOnEvent(tick=31, channel=9, data=[36, 127]),
   midi.NoteOnEvent(tick=23, channel=9, data=[36, 0]),
   midi.NoteOnEvent(tick=895, channel=9, data=[36, 127]),
   midi.NoteOnEvent(tick=25, channel=9, data=[36, 0]),
   midi.NoteOnEvent(tick=191, channel=9, data=[36, 127]),
   midi.NoteOnEvent(tick=23, channel=9, data=[36, 0]),
   midi.NoteOnEvent(tick=247, channel=9, data=[36, 127]),
   midi.NoteOnEvent(tick=23, channel=9, data=[36, 0]),
   midi.NoteOnEvent(tick=139, channel=9, data=[36, 127]),
   midi.NoteOnEvent(tick=23, channel=9, data=[36, 0]),
   midi.NoteOnEvent(tick=247, channel=9, data=[36, 127]),
   midi.NoteOnEvent(tick=23, channel=9, data=[36, 0]),
   midi.NoteOnEvent(tick=139, channel=9, data=[36, 127]),
   midi.NoteOnEvent(tick=23, channel=9, data=[36, 0]),
   midi.NoteOnEvent(tick=247, channel=9, data=[36, 127]),
   midi.NoteOnEvent(tick=23, channel=9, data=[36, 0]),
   midi.NoteOnEvent(tick=139, channel=9, data=[36, 127]),
   midi.NoteOnEvent(tick=23, channel=9, data=[36, 0]),
   midi.NoteOnEvent(tick=247, channel=9, data=[36, 127]),
   midi.NoteOnEvent(tick=23, channel=9, data=[36, 0]),
   midi.NoteOnEvent(tick=139, channel=9, data=[36, 127]),
   midi.NoteOnEvent(tick=23, channel=9, data=[36, 0]),
   midi.NoteOnEvent(tick=247, channel=9, data=[36, 127]),
   midi.NoteOnEvent(tick=23, channel=9, data=[36, 0]),
   midi.NoteOnEvent(tick=139, channel=9, data=[36, 127]),
   midi.NoteOnEvent(tick=23, channel=9, data=[36, 0]),
   midi.NoteOnEvent(tick=247, channel=9, data=[36, 127]),
   midi.NoteOnEvent(tick=23, channel=9, data=[36, 0]),
   midi.NoteOnEvent(tick=139, channel=9, data=[36, 127]),
   midi.NoteOnEvent(tick=23, channel=9, data=[36, 0]),
   midi.NoteOnEvent(tick=247, channel=9, data=[36, 127]),
   midi.NoteOnEvent(tick=23, channel=9, data=[36, 0]),
   midi.NoteOnEvent(tick=139, channel=9, data=[36, 127]),
   midi.NoteOnEvent(tick=23, channel=9, data=[36, 0]),
   midi.NoteOnEvent(tick=247, channel=9, data=[36, 127]),
   midi.NoteOnEvent(tick=23, channel=9, data=[36, 0]),
   midi.NoteOnEvent(tick=139, channel=9, data=[36, 127]),
   midi.NoteOnEvent(tick=23, channel=9, data=[36, 0]),
   midi.NoteOnEvent(tick=247, channel=9, data=[36, 127]),
   midi.NoteOnEvent(tick=23, channel=9, data=[36, 0]),
   midi.NoteOnEvent(tick=139, channel=9, data=[36, 127]),
   midi.NoteOnEvent(tick=23, channel=9, data=[36, 0]),
   midi.NoteOnEvent(tick=247, channel=9, data=[36, 127]),
   midi.NoteOnEvent(tick=23, channel=9, data=[36, 0]),
   midi.NoteOnEvent(tick=139, channel=9, data=[36, 127]),
   midi.NoteOnEvent(tick=23, channel=9, data=[36, 0]),
   midi.NoteOnEvent(tick=247, channel=9, data=[36, 127]),
   midi.NoteOnEvent(tick=23, channel=9, data=[36, 0]),
   midi.NoteOnEvent(tick=139, channel=9, data=[36, 127]),
   midi.NoteOnEvent(tick=23, channel=9, data=[36, 0]),
   midi.NoteOnEvent(tick=247, channel=9, data=[36, 127]),
   midi.NoteOnEvent(tick=23, channel=9, data=[36, 0]),
   midi.NoteOnEvent(tick=139, channel=9, data=[36, 127]),
   midi.NoteOnEvent(tick=23, channel=9, data=[36, 0]),
   midi.NoteOnEvent(tick=247, channel=9, data=[36, 127]),
   midi.NoteOnEvent(tick=23, channel=9, data=[36, 0]),
   midi.NoteOnEvent(tick=139, channel=9, data=[36, 127]),
   midi.NoteOnEvent(tick=23, channel=9, data=[36, 0]),
   midi.NoteOnEvent(tick=247, channel=9, data=[36, 127]),
   midi.NoteOnEvent(tick=23, channel=9, data=[36, 0]),
   midi.NoteOnEvent(tick=1003, channel=9, data=[36, 127]),
   midi.NoteOnEvent(tick=23, channel=9, data=[36, 0]),
   midi.NoteOnEvent(tick=409, channel=9, data=[36, 127]),
   midi.NoteOnEvent(tick=23, channel=9, data=[36, 0]),
   midi.NoteOnEvent(tick=85, channel=9, data=[36, 127]),
   midi.NoteOnEvent(tick=23, channel=9, data=[36, 0]),
   midi.NoteOnEvent(tick=31, channel=9, data=[36, 127]),
   midi.NoteOnEvent(tick=23, channel=9, data=[36, 0]),
   midi.NoteOnEvent(tick=139, channel=9, data=[36, 127]),
   midi.NoteOnEvent(tick=23, channel=9, data=[36, 0]),
   midi.NoteOnEvent(tick=85, channel=9, data=[36, 127]),
   midi.NoteOnEvent(tick=23, channel=9, data=[36, 0]),
   midi.NoteOnEvent(tick=409, channel=9, data=[36, 127]),
   midi.NoteOnEvent(tick=23, channel=9, data=[36, 0]),
   midi.NoteOnEvent(tick=139, channel=9, data=[36, 127]),
   midi.NoteOnEvent(tick=23, channel=9, data=[36, 0]),
   midi.NoteOnEvent(tick=139, channel=9, data=[36, 127]),
   midi.NoteOnEvent(tick=23, channel=9, data=[36, 0]),
   midi.NoteOnEvent(tick=85, channel=9, data=[36, 127]),
   midi.NoteOnEvent(tick=23, channel=9, data=[36, 0]),
   midi.NoteOnEvent(tick=409, channel=9, data=[36, 127]),
   midi.NoteOnEvent(tick=23, channel=9, data=[36, 0]),
   midi.NoteOnEvent(tick=193, channel=9, data=[36, 127]),
   midi.NoteOnEvent(tick=23, channel=9, data=[36, 0]),
   midi.NoteOnEvent(tick=193, channel=9, data=[36, 127]),
   midi.NoteOnEvent(tick=23, channel=9, data=[36, 0]),
   midi.NoteOnEvent(tick=247, channel=9, data=[36, 127]),
   midi.NoteOnEvent(tick=23, channel=9, data=[36, 0]),
   midi.NoteOnEvent(tick=139, channel=9, data=[36, 127]),
   midi.NoteOnEvent(tick=23, channel=9, data=[36, 0]),
   midi.NoteOnEvent(tick=247, channel=9, data=[36, 127]),
   midi.NoteOnEvent(tick=23, channel=9, data=[36, 0]),
   midi.NoteOnEvent(tick=139, channel=9, data=[36, 127]),
   midi.NoteOnEvent(tick=23, channel=9, data=[36, 0]),
   midi.NoteOnEvent(tick=247, channel=9, data=[36, 127]),
   midi.NoteOnEvent(tick=23, channel=9, data=[36, 0]),
   midi.NoteOnEvent(tick=139, channel=9, data=[36, 127]),
   midi.NoteOnEvent(tick=23, channel=9, data=[36, 0]),
   midi.NoteOnEvent(tick=247, channel=9, data=[36, 127]),
   midi.NoteOnEvent(tick=23, channel=9, data=[36, 0]),
   midi.NoteOnEvent(tick=139, channel=9, data=[36, 127]),
   midi.NoteOnEvent(tick=23, channel=9, data=[36, 0]),
   midi.NoteOnEvent(tick=247, channel=9, data=[36, 127]),
   midi.NoteOnEvent(tick=23, channel=9, data=[36, 0]),
   midi.NoteOnEvent(tick=139, channel=9, data=[36, 127]),
   midi.NoteOnEvent(tick=23, channel=9, data=[36, 0]),
   midi.NoteOnEvent(tick=247, channel=9, data=[36, 127]),
   midi.NoteOnEvent(tick=23, channel=9, data=[36, 0]),
   midi.NoteOnEvent(tick=1003, channel=9, data=[36, 127]),
   midi.NoteOnEvent(tick=23, channel=9, data=[36, 0]),
   midi.NoteOnEvent(tick=409, channel=9, data=[36, 127]),
   midi.NoteOnEvent(tick=23, channel=9, data=[36, 0]),
   midi.NoteOnEvent(tick=139, channel=9, data=[36, 127]),
   midi.NoteOnEvent(tick=23, channel=9, data=[36, 0]),
   midi.NoteOnEvent(tick=139, channel=9, data=[36, 127]),
   midi.NoteOnEvent(tick=23, channel=9, data=[36, 0]),
   midi.NoteOnEvent(tick=85, channel=9, data=[36, 127]),
   midi.NoteOnEvent(tick=23, channel=9, data=[36, 0]),
   midi.NoteOnEvent(tick=409, channel=9, data=[36, 127]),
   midi.NoteOnEvent(tick=23, channel=9, data=[36, 0]),
   midi.NoteOnEvent(tick=85, channel=9, data=[36, 127]),
   midi.NoteOnEvent(tick=23, channel=9, data=[36, 0]),
   midi.NoteOnEvent(tick=31, channel=9, data=[36, 127]),
   midi.NoteOnEvent(tick=23, channel=9, data=[36, 0]),
   midi.NoteOnEvent(tick=139, channel=9, data=[36, 127]),
   midi.NoteOnEvent(tick=23, channel=9, data=[36, 0]),
   midi.NoteOnEvent(tick=85, channel=9, data=[36, 127]),
   midi.NoteOnEvent(tick=23, channel=9, data=[36, 0]),
   midi.NoteOnEvent(tick=409, channel=9, data=[36, 127]),
   midi.NoteOnEvent(tick=23, channel=9, data=[36, 0]),
   midi.NoteOnEvent(tick=193, channel=9, data=[36, 127]),
   midi.NoteOnEvent(tick=23, channel=9, data=[36, 0]),
   midi.NoteOnEvent(tick=193, channel=9, data=[36, 127]),
   midi.NoteOnEvent(tick=23, channel=9, data=[36, 0]),
   midi.NoteOnEvent(tick=247, channel=9, data=[36, 127]),
   midi.NoteOnEvent(tick=23, channel=9, data=[36, 0]),
   midi.NoteOnEvent(tick=139, channel=9, data=[36, 127]),
   midi.NoteOnEvent(tick=23, channel=9, data=[36, 0]),
   midi.NoteOnEvent(tick=247, channel=9, data=[36, 127]),
   midi.NoteOnEvent(tick=23, channel=9, data=[36, 0]),
   midi.NoteOnEvent(tick=139, channel=9, data=[36, 127]),
   midi.NoteOnEvent(tick=23, channel=9, data=[36, 0]),
   midi.NoteOnEvent(tick=247, channel=9, data=[36, 127]),
   midi.NoteOnEvent(tick=23, channel=9, data=[36, 0]),
   midi.NoteOnEvent(tick=139, channel=9, data=[36, 127]),
   midi.NoteOnEvent(tick=23, channel=9, data=[36, 0]),
   midi.NoteOnEvent(tick=247, channel=9, data=[36, 127]),
   midi.NoteOnEvent(tick=23, channel=9, data=[36, 0]),
   midi.NoteOnEvent(tick=139, channel=9, data=[36, 127]),
   midi.NoteOnEvent(tick=23, channel=9, data=[36, 0]),
   midi.NoteOnEvent(tick=409, channel=9, data=[36, 127]),
   midi.NoteOnEvent(tick=23, channel=9, data=[36, 0]),
   midi.NoteOnEvent(tick=409, channel=9, data=[36, 127]),
   midi.NoteOnEvent(tick=23, channel=9, data=[36, 0]),
   midi.NoteOnEvent(tick=409, channel=9, data=[36, 127]),
   midi.NoteOnEvent(tick=23, channel=9, data=[36, 0]),
   midi.NoteOnEvent(tick=193, channel=9, data=[36, 127]),
   midi.NoteOnEvent(tick=23, channel=9, data=[36, 0]),
   midi.NoteOnEvent(tick=193, channel=9, data=[36, 127]),
   midi.NoteOnEvent(tick=23, channel=9, data=[36, 0]),
   midi.NoteOnEvent(tick=247, channel=9, data=[36, 127]),
   midi.NoteOnEvent(tick=23, channel=9, data=[36, 0]),
   midi.NoteOnEvent(tick=139, channel=9, data=[36, 127]),
   midi.NoteOnEvent(tick=23, channel=9, data=[36, 0]),
   midi.NoteOnEvent(tick=247, channel=9, data=[36, 127]),
   midi.NoteOnEvent(tick=23, channel=9, data=[36, 0]),
   midi.NoteOnEvent(tick=139, channel=9, data=[36, 127]),
   midi.NoteOnEvent(tick=23, channel=9, data=[36, 0]),
   midi.NoteOnEvent(tick=247, channel=9, data=[36, 127]),
   midi.NoteOnEvent(tick=23, channel=9, data=[36, 0]),
   midi.NoteOnEvent(tick=139, channel=9, data=[36, 127]),
   midi.NoteOnEvent(tick=23, channel=9, data=[36, 0]),
   midi.NoteOnEvent(tick=247, channel=9, data=[36, 127]),
   midi.NoteOnEvent(tick=23, channel=9, data=[36, 0]),
   midi.NoteOnEvent(tick=139, channel=9, data=[36, 127]),
   midi.NoteOnEvent(tick=23, channel=9, data=[36, 0]),
   midi.NoteOnEvent(tick=247, channel=9, data=[36, 127]),
   midi.NoteOnEvent(tick=23, channel=9, data=[36, 0]),
   midi.NoteOnEvent(tick=139, channel=9, data=[36, 127]),
   midi.NoteOnEvent(tick=23, channel=9, data=[36, 0]),
   midi.NoteOnEvent(tick=247, channel=9, data=[36, 127]),
   midi.NoteOnEvent(tick=23, channel=9, data=[36, 0]),
   midi.NoteOnEvent(tick=355, channel=9, data=[36, 127]),
   midi.NoteOnEvent(tick=23, channel=9, data=[36, 0]),
   midi.NoteOnEvent(tick=247, channel=9, data=[36, 127]),
   midi.NoteOnEvent(tick=23, channel=9, data=[36, 0]),
   midi.NoteOnEvent(tick=139, channel=9, data=[36, 127]),
   midi.NoteOnEvent(tick=23, channel=9, data=[36, 0]),
   midi.NoteOnEvent(tick=247, channel=9, data=[36, 127]),
   midi.NoteOnEvent(tick=23, channel=9, data=[36, 0]),
   midi.NoteOnEvent(tick=139, channel=9, data=[36, 127]),
   midi.NoteOnEvent(tick=23, channel=9, data=[36, 0]),
   midi.NoteOnEvent(tick=247, channel=9, data=[36, 127]),
   midi.NoteOnEvent(tick=23, channel=9, data=[36, 0]),
   midi.NoteOnEvent(tick=139, channel=9, data=[36, 127]),
   midi.NoteOnEvent(tick=23, channel=9, data=[36, 0]),
   midi.NoteOnEvent(tick=247, channel=9, data=[36, 127]),
   midi.NoteOnEvent(tick=23, channel=9, data=[36, 0]),
   midi.NoteOnEvent(tick=139, channel=9, data=[36, 127]),
   midi.NoteOnEvent(tick=23, channel=9, data=[36, 0]),
   midi.NoteOnEvent(tick=841, channel=9, data=[36, 127]),
   midi.NoteOnEvent(tick=25, channel=9, data=[36, 0]),
   midi.NoteOnEvent(tick=191, channel=9, data=[36, 127]),
   midi.NoteOnEvent(tick=25, channel=9, data=[36, 0]),
   midi.NoteOnEvent(tick=191, channel=9, data=[36, 127]),
   midi.NoteOnEvent(tick=23, channel=9, data=[36, 0]),
   midi.NoteOnEvent(tick=247, channel=9, data=[36, 127]),
   midi.NoteOnEvent(tick=23, channel=9, data=[36, 0]),
   midi.NoteOnEvent(tick=139, channel=9, data=[36, 127]),
   midi.NoteOnEvent(tick=23, channel=9, data=[36, 0]),
   midi.NoteOnEvent(tick=247, channel=9, data=[36, 127]),
   midi.NoteOnEvent(tick=23, channel=9, data=[36, 0]),
   midi.NoteOnEvent(tick=139, channel=9, data=[36, 127]),
   midi.NoteOnEvent(tick=23, channel=9, data=[36, 0]),
   midi.NoteOnEvent(tick=247, channel=9, data=[36, 127]),
   midi.NoteOnEvent(tick=23, channel=9, data=[36, 0]),
   midi.NoteOnEvent(tick=139, channel=9, data=[36, 127]),
   midi.NoteOnEvent(tick=23, channel=9, data=[36, 0]),
   midi.NoteOnEvent(tick=247, channel=9, data=[36, 127]),
   midi.NoteOnEvent(tick=23, channel=9, data=[36, 0]),
   midi.NoteOnEvent(tick=139, channel=9, data=[36, 127]),
   midi.NoteOnEvent(tick=23, channel=9, data=[36, 0]),
   midi.NoteOnEvent(tick=247, channel=9, data=[36, 127]),
   midi.NoteOnEvent(tick=23, channel=9, data=[36, 0]),
   midi.NoteOnEvent(tick=139, channel=9, data=[36, 127]),
   midi.NoteOnEvent(tick=23, channel=9, data=[36, 0]),
   midi.NoteOnEvent(tick=247, channel=9, data=[36, 127]),
   midi.NoteOnEvent(tick=23, channel=9, data=[36, 0]),
   midi.NoteOnEvent(tick=355, channel=9, data=[36, 127]),
   midi.NoteOnEvent(tick=23, channel=9, data=[36, 0]),
   midi.NoteOnEvent(tick=247, channel=9, data=[36, 127]),
   midi.NoteOnEvent(tick=23, channel=9, data=[36, 0]),
   midi.NoteOnEvent(tick=139, channel=9, data=[36, 127]),
   midi.NoteOnEvent(tick=23, channel=9, data=[36, 0]),
   midi.NoteOnEvent(tick=247, channel=9, data=[36, 127]),
   midi.NoteOnEvent(tick=23, channel=9, data=[36, 0]),
   midi.NoteOnEvent(tick=139, channel=9, data=[36, 127]),
   midi.NoteOnEvent(tick=23, channel=9, data=[36, 0]),
   midi.NoteOnEvent(tick=247, channel=9, data=[36, 127]),
   midi.NoteOnEvent(tick=23, channel=9, data=[36, 0]),
   midi.NoteOnEvent(tick=139, channel=9, data=[36, 127]),
   midi.NoteOnEvent(tick=23, channel=9, data=[36, 0]),
   midi.NoteOnEvent(tick=247, channel=9, data=[36, 127]),
   midi.NoteOnEvent(tick=23, channel=9, data=[36, 0]),
   midi.NoteOnEvent(tick=139, channel=9, data=[36, 127]),
   midi.NoteOnEvent(tick=23, channel=9, data=[36, 0]),
   midi.NoteOnEvent(tick=247, channel=9, data=[36, 127]),
   midi.NoteOnEvent(tick=23, channel=9, data=[36, 0]),
   midi.NoteOnEvent(tick=139, channel=9, data=[36, 127]),
   midi.NoteOnEvent(tick=23, channel=9, data=[36, 0]),
   midi.NoteOnEvent(tick=247, channel=9, data=[36, 127]),
   midi.NoteOnEvent(tick=23, channel=9, data=[36, 0]),
   midi.NoteOnEvent(tick=139, channel=9, data=[36, 127]),
   midi.NoteOnEvent(tick=23, channel=9, data=[36, 0]),
   midi.NoteOnEvent(tick=193, channel=9, data=[36, 127]),
   midi.NoteOnEvent(tick=23, channel=9, data=[36, 0]),
   midi.NoteOnEvent(tick=193, channel=9, data=[36, 127]),
   midi.NoteOnEvent(tick=23, channel=9, data=[36, 0]),
   midi.NoteOnEvent(tick=409, channel=9, data=[36, 100]),
   midi.NoteOnEvent(tick=23, channel=9, data=[36, 0]),
   midi.NoteOnEvent(tick=31, channel=9, data=[36, 100]),
   midi.NoteOnEvent(tick=23, channel=9, data=[36, 0]),
   midi.NoteOnEvent(tick=31, channel=9, data=[36, 100]),
   midi.NoteOnEvent(tick=23, channel=9, data=[36, 0]),
   midi.NoteOnEvent(tick=31, channel=9, data=[36, 100]),
   midi.NoteOnEvent(tick=23, channel=9, data=[36, 0]),
   midi.NoteOnEvent(tick=31, channel=9, data=[36, 100]),
   midi.NoteOnEvent(tick=23, channel=9, data=[36, 0]),
   midi.NoteOnEvent(tick=31, channel=9, data=[36, 100]),
   midi.NoteOnEvent(tick=23, channel=9, data=[36, 0]),
   midi.NoteOnEvent(tick=31, channel=9, data=[36, 100]),
   midi.NoteOnEvent(tick=23, channel=9, data=[36, 0]),
   midi.NoteOnEvent(tick=31, channel=9, data=[36, 100]),
   midi.NoteOnEvent(tick=23, channel=9, data=[36, 0]),
   midi.NoteOnEvent(tick=31, channel=9, data=[36, 100]),
   midi.NoteOnEvent(tick=23, channel=9, data=[36, 0]),
   midi.NoteOnEvent(tick=31, channel=9, data=[36, 100]),
   midi.NoteOnEvent(tick=23, channel=9, data=[36, 0]),
   midi.NoteOnEvent(tick=31, channel=9, data=[36, 100]),
   midi.NoteOnEvent(tick=23, channel=9, data=[36, 0]),
   midi.NoteOnEvent(tick=31, channel=9, data=[36, 100]),
   midi.NoteOnEvent(tick=23, channel=9, data=[36, 0]),
   midi.NoteOnEvent(tick=31, channel=9, data=[36, 100]),
   midi.NoteOnEvent(tick=23, channel=9, data=[36, 0]),
   midi.NoteOnEvent(tick=31, channel=9, data=[36, 100]),
   midi.NoteOnEvent(tick=23, channel=9, data=[36, 0]),
   midi.NoteOnEvent(tick=31, channel=9, data=[36, 100]),
   midi.NoteOnEvent(tick=23, channel=9, data=[36, 0]),
   midi.NoteOnEvent(tick=31, channel=9, data=[36, 100]),
   midi.NoteOnEvent(tick=23, channel=9, data=[36, 0]),
   midi.NoteOnEvent(tick=31, channel=9, data=[36, 100]),
   midi.NoteOnEvent(tick=23, channel=9, data=[36, 0]),
   midi.NoteOnEvent(tick=31, channel=9, data=[36, 100]),
   midi.NoteOnEvent(tick=23, channel=9, data=[36, 0]),
   midi.NoteOnEvent(tick=31, channel=9, data=[36, 100]),
   midi.NoteOnEvent(tick=23, channel=9, data=[36, 0]),
   midi.NoteOnEvent(tick=31, channel=9, data=[36, 100]),
   midi.NoteOnEvent(tick=23, channel=9, data=[36, 0]),
   midi.NoteOnEvent(tick=31, channel=9, data=[36, 100]),
   midi.NoteOnEvent(tick=23, channel=9, data=[36, 0]),
   midi.NoteOnEvent(tick=31, channel=9, data=[36, 100]),
   midi.NoteOnEvent(tick=23, channel=9, data=[36, 0]),
   midi.NoteOnEvent(tick=31, channel=9, data=[36, 100]),
   midi.NoteOnEvent(tick=23, channel=9, data=[36, 0]),
   midi.NoteOnEvent(tick=31, channel=9, data=[36, 100]),
   midi.NoteOnEvent(tick=23, channel=9, data=[36, 0]),
   midi.NoteOnEvent(tick=31, channel=9, data=[36, 100]),
   midi.NoteOnEvent(tick=23, channel=9, data=[36, 0]),
   midi.NoteOnEvent(tick=31, channel=9, data=[36, 100]),
   midi.NoteOnEvent(tick=23, channel=9, data=[36, 0]),
   midi.NoteOnEvent(tick=31, channel=9, data=[36, 100]),
   midi.NoteOnEvent(tick=23, channel=9, data=[36, 0]),
   midi.NoteOnEvent(tick=31, channel=9, data=[36, 100]),
   midi.NoteOnEvent(tick=23, channel=9, data=[36, 0]),
   midi.NoteOnEvent(tick=31, channel=9, data=[36, 100]),
   midi.NoteOnEvent(tick=23, channel=9, data=[36, 0]),
   midi.NoteOnEvent(tick=31, channel=9, data=[36, 100]),
   midi.NoteOnEvent(tick=23, channel=9, data=[36, 0]),
   midi.NoteOnEvent(tick=31, channel=9, data=[36, 100]),
   midi.NoteOnEvent(tick=23, channel=9, data=[36, 0]),
   midi.NoteOnEvent(tick=31, channel=9, data=[36, 100]),
   midi.NoteOnEvent(tick=23, channel=9, data=[36, 0]),
   midi.NoteOnEvent(tick=31, channel=9, data=[36, 100]),
   midi.NoteOnEvent(tick=23, channel=9, data=[36, 0]),
   midi.NoteOnEvent(tick=31, channel=9, data=[36, 100]),
   midi.NoteOnEvent(tick=23, channel=9, data=[36, 0]),
   midi.NoteOnEvent(tick=31, channel=9, data=[36, 100]),
   midi.NoteOnEvent(tick=23, channel=9, data=[36, 0]),
   midi.NoteOnEvent(tick=31, channel=9, data=[36, 100]),
   midi.NoteOnEvent(tick=23, channel=9, data=[36, 0]),
   midi.NoteOnEvent(tick=31, channel=9, data=[36, 100]),
   midi.NoteOnEvent(tick=23, channel=9, data=[36, 0]),
   midi.NoteOnEvent(tick=31, channel=9, data=[36, 100]),
   midi.NoteOnEvent(tick=23, channel=9, data=[36, 0]),
   midi.NoteOnEvent(tick=31, channel=9, data=[36, 100]),
   midi.NoteOnEvent(tick=23, channel=9, data=[36, 0]),
   midi.NoteOnEvent(tick=31, channel=9, data=[36, 100]),
   midi.NoteOnEvent(tick=23, channel=9, data=[36, 0]),
   midi.NoteOnEvent(tick=31, channel=9, data=[36, 100]),
   midi.NoteOnEvent(tick=23, channel=9, data=[36, 0]),
   midi.NoteOnEvent(tick=31, channel=9, data=[36, 100]),
   midi.NoteOnEvent(tick=23, channel=9, data=[36, 0]),
   midi.NoteOnEvent(tick=31, channel=9, data=[36, 100]),
   midi.NoteOnEvent(tick=23, channel=9, data=[36, 0]),
   midi.NoteOnEvent(tick=31, channel=9, data=[36, 100]),
   midi.NoteOnEvent(tick=23, channel=9, data=[36, 0]),
   midi.NoteOnEvent(tick=31, channel=9, data=[36, 100]),
   midi.NoteOnEvent(tick=23, channel=9, data=[36, 0]),
   midi.NoteOnEvent(tick=31, channel=9, data=[36, 100]),
   midi.NoteOnEvent(tick=23, channel=9, data=[36, 0]),
   midi.NoteOnEvent(tick=31, channel=9, data=[36, 100]),
   midi.NoteOnEvent(tick=23, channel=9, data=[36, 0]),
   midi.NoteOnEvent(tick=31, channel=9, data=[36, 100]),
   midi.NoteOnEvent(tick=23, channel=9, data=[36, 0]),
   midi.NoteOnEvent(tick=31, channel=9, data=[36, 100]),
   midi.NoteOnEvent(tick=23, channel=9, data=[36, 0]),
   midi.NoteOnEvent(tick=31, channel=9, data=[36, 100]),
   midi.NoteOnEvent(tick=23, channel=9, data=[36, 0]),
   midi.NoteOnEvent(tick=31, channel=9, data=[36, 100]),
   midi.NoteOnEvent(tick=23, channel=9, data=[36, 0]),
   midi.NoteOnEvent(tick=31, channel=9, data=[36, 100]),
   midi.NoteOnEvent(tick=23, channel=9, data=[36, 0]),
   midi.NoteOnEvent(tick=31, channel=9, data=[36, 100]),
   midi.NoteOnEvent(tick=23, channel=9, data=[36, 0]),
   midi.NoteOnEvent(tick=31, channel=9, data=[36, 100]),
   midi.NoteOnEvent(tick=23, channel=9, data=[36, 0]),
   midi.NoteOnEvent(tick=31, channel=9, data=[36, 100]),
   midi.NoteOnEvent(tick=23, channel=9, data=[36, 0]),
   midi.NoteOnEvent(tick=31, channel=9, data=[36, 100]),
   midi.NoteOnEvent(tick=23, channel=9, data=[36, 0]),
   midi.NoteOnEvent(tick=31, channel=9, data=[36, 100]),
   midi.NoteOnEvent(tick=23, channel=9, data=[36, 0]),
   midi.NoteOnEvent(tick=31, channel=9, data=[36, 100]),
   midi.NoteOnEvent(tick=23, channel=9, data=[36, 0]),
   midi.NoteOnEvent(tick=31, channel=9, data=[36, 100]),
   midi.NoteOnEvent(tick=23, channel=9, data=[36, 0]),
   midi.NoteOnEvent(tick=31, channel=9, data=[36, 100]),
   midi.NoteOnEvent(tick=23, channel=9, data=[36, 0]),
   midi.NoteOnEvent(tick=31, channel=9, data=[36, 100]),
   midi.NoteOnEvent(tick=23, channel=9, data=[36, 0]),
   midi.NoteOnEvent(tick=31, channel=9, data=[36, 100]),
   midi.NoteOnEvent(tick=23, channel=9, data=[36, 0]),
   midi.NoteOnEvent(tick=31, channel=9, data=[36, 100]),
   midi.NoteOnEvent(tick=23, channel=9, data=[36, 0]),
   midi.NoteOnEvent(tick=31, channel=9, data=[36, 100]),
   midi.NoteOnEvent(tick=23, channel=9, data=[36, 0]),
   midi.NoteOnEvent(tick=31, channel=9, data=[36, 100]),
   midi.NoteOnEvent(tick=23, channel=9, data=[36, 0]),
   midi.NoteOnEvent(tick=31, channel=9, data=[36, 100]),
   midi.NoteOnEvent(tick=23, channel=9, data=[36, 0]),
   midi.NoteOnEvent(tick=31, channel=9, data=[36, 100]),
   midi.NoteOnEvent(tick=23, channel=9, data=[36, 0]),
   midi.NoteOnEvent(tick=31, channel=9, data=[36, 100]),
   midi.NoteOnEvent(tick=23, channel=9, data=[36, 0]),
   midi.NoteOnEvent(tick=31, channel=9, data=[36, 100]),
   midi.NoteOnEvent(tick=23, channel=9, data=[36, 0]),
   midi.NoteOnEvent(tick=31, channel=9, data=[36, 100]),
   midi.NoteOnEvent(tick=23, channel=9, data=[36, 0]),
   midi.NoteOnEvent(tick=31, channel=9, data=[36, 100]),
   midi.NoteOnEvent(tick=23, channel=9, data=[36, 0]),
   midi.NoteOnEvent(tick=31, channel=9, data=[36, 100]),
   midi.NoteOnEvent(tick=23, channel=9, data=[36, 0]),
   midi.NoteOnEvent(tick=31, channel=9, data=[36, 100]),
   midi.NoteOnEvent(tick=23, channel=9, data=[36, 0]),
   midi.NoteOnEvent(tick=31, channel=9, data=[36, 100]),
   midi.NoteOnEvent(tick=23, channel=9, data=[36, 0]),
   midi.NoteOnEvent(tick=31, channel=9, data=[36, 100]),
   midi.NoteOnEvent(tick=23, channel=9, data=[36, 0]),
   midi.NoteOnEvent(tick=31, channel=9, data=[36, 100]),
   midi.NoteOnEvent(tick=23, channel=9, data=[36, 0]),
   midi.NoteOnEvent(tick=31, channel=9, data=[36, 100]),
   midi.NoteOnEvent(tick=23, channel=9, data=[36, 0]),
   midi.NoteOnEvent(tick=31, channel=9, data=[36, 100]),
   midi.NoteOnEvent(tick=23, channel=9, data=[36, 0]),
   midi.NoteOnEvent(tick=31, channel=9, data=[36, 100]),
   midi.NoteOnEvent(tick=23, channel=9, data=[36, 0]),
   midi.NoteOnEvent(tick=31, channel=9, data=[36, 100]),
   midi.NoteOnEvent(tick=23, channel=9, data=[36, 0]),
   midi.NoteOnEvent(tick=31, channel=9, data=[36, 100]),
   midi.NoteOnEvent(tick=23, channel=9, data=[36, 0]),
   midi.NoteOnEvent(tick=31, channel=9, data=[36, 100]),
   midi.NoteOnEvent(tick=23, channel=9, data=[36, 0]),
   midi.NoteOnEvent(tick=31, channel=9, data=[36, 100]),
   midi.NoteOnEvent(tick=23, channel=9, data=[36, 0]),
   midi.NoteOnEvent(tick=31, channel=9, data=[36, 100]),
   midi.NoteOnEvent(tick=23, channel=9, data=[36, 0]),
   midi.NoteOnEvent(tick=31, channel=9, data=[36, 100]),
   midi.NoteOnEvent(tick=23, channel=9, data=[36, 0]),
   midi.NoteOnEvent(tick=31, channel=9, data=[36, 100]),
   midi.NoteOnEvent(tick=23, channel=9, data=[36, 0]),
   midi.NoteOnEvent(tick=31, channel=9, data=[36, 100]),
   midi.NoteOnEvent(tick=23, channel=9, data=[36, 0]),
   midi.NoteOnEvent(tick=31, channel=9, data=[36, 100]),
   midi.NoteOnEvent(tick=23, channel=9, data=[36, 0]),
   midi.NoteOnEvent(tick=31, channel=9, data=[36, 100]),
   midi.NoteOnEvent(tick=23, channel=9, data=[36, 0]),
   midi.NoteOnEvent(tick=31, channel=9, data=[36, 100]),
   midi.NoteOnEvent(tick=23, channel=9, data=[36, 0]),
   midi.NoteOnEvent(tick=31, channel=9, data=[36, 100]),
   midi.NoteOnEvent(tick=23, channel=9, data=[36, 0]),
   midi.NoteOnEvent(tick=31, channel=9, data=[36, 100]),
   midi.NoteOnEvent(tick=23, channel=9, data=[36, 0]),
   midi.NoteOnEvent(tick=31, channel=9, data=[36, 100]),
   midi.NoteOnEvent(tick=23, channel=9, data=[36, 0]),
   midi.NoteOnEvent(tick=31, channel=9, data=[36, 100]),
   midi.NoteOnEvent(tick=23, channel=9, data=[36, 0]),
   midi.NoteOnEvent(tick=31, channel=9, data=[36, 100]),
   midi.NoteOnEvent(tick=23, channel=9, data=[36, 0]),
   midi.NoteOnEvent(tick=31, channel=9, data=[36, 100]),
   midi.NoteOnEvent(tick=23, channel=9, data=[36, 0]),
   midi.NoteOnEvent(tick=31, channel=9, data=[36, 100]),
   midi.NoteOnEvent(tick=23, channel=9, data=[36, 0]),
   midi.NoteOnEvent(tick=31, channel=9, data=[36, 100]),
   midi.NoteOnEvent(tick=23, channel=9, data=[36, 0]),
   midi.NoteOnEvent(tick=31, channel=9, data=[36, 100]),
   midi.NoteOnEvent(tick=23, channel=9, data=[36, 0]),
   midi.NoteOnEvent(tick=31, channel=9, data=[36, 100]),
   midi.NoteOnEvent(tick=23, channel=9, data=[36, 0]),
   midi.NoteOnEvent(tick=31, channel=9, data=[36, 100]),
   midi.NoteOnEvent(tick=23, channel=9, data=[36, 0]),
   midi.NoteOnEvent(tick=31, channel=9, data=[36, 100]),
   midi.NoteOnEvent(tick=23, channel=9, data=[36, 0]),
   midi.NoteOnEvent(tick=31, channel=9, data=[36, 100]),
   midi.NoteOnEvent(tick=23, channel=9, data=[36, 0]),
   midi.NoteOnEvent(tick=31, channel=9, data=[36, 100]),
   midi.NoteOnEvent(tick=23, channel=9, data=[36, 0]),
   midi.NoteOnEvent(tick=31, channel=9, data=[36, 100]),
   midi.NoteOnEvent(tick=23, channel=9, data=[36, 0]),
   midi.NoteOnEvent(tick=31, channel=9, data=[36, 100]),
   midi.NoteOnEvent(tick=23, channel=9, data=[36, 0]),
   midi.NoteOnEvent(tick=31, channel=9, data=[36, 100]),
   midi.NoteOnEvent(tick=23, channel=9, data=[36, 0]),
   midi.NoteOnEvent(tick=31, channel=9, data=[36, 100]),
   midi.NoteOnEvent(tick=23, channel=9, data=[36, 0]),
   midi.NoteOnEvent(tick=31, channel=9, data=[36, 100]),
   midi.NoteOnEvent(tick=23, channel=9, data=[36, 0]),
   midi.NoteOnEvent(tick=31, channel=9, data=[36, 100]),
   midi.NoteOnEvent(tick=23, channel=9, data=[36, 0]),
   midi.NoteOnEvent(tick=31, channel=9, data=[36, 100]),
   midi.NoteOnEvent(tick=23, channel=9, data=[36, 0]),
   midi.NoteOnEvent(tick=31, channel=9, data=[36, 100]),
   midi.NoteOnEvent(tick=23, channel=9, data=[36, 0]),
   midi.NoteOnEvent(tick=895, channel=9, data=[36, 127]),
   midi.NoteOnEvent(tick=25, channel=9, data=[36, 0]),
   midi.NoteOnEvent(tick=191, channel=9, data=[36, 127]),
   midi.NoteOnEvent(tick=25, channel=9, data=[36, 0]),
   midi.NoteOnEvent(tick=191, channel=9, data=[36, 127]),
   midi.NoteOnEvent(tick=25, channel=9, data=[36, 0]),
   midi.NoteOnEvent(tick=191, channel=9, data=[36, 127]),
   midi.NoteOnEvent(tick=25, channel=9, data=[36, 0]),
   midi.NoteOnEvent(tick=191, channel=9, data=[36, 127]),
   midi.NoteOnEvent(tick=25, channel=9, data=[36, 0]),
   midi.NoteOnEvent(tick=191, channel=9, data=[36, 127]),
   midi.NoteOnEvent(tick=25, channel=9, data=[36, 0]),
   midi.NoteOnEvent(tick=191, channel=9, data=[36, 127]),
   midi.NoteOnEvent(tick=25, channel=9, data=[36, 0]),
   midi.NoteOnEvent(tick=191, channel=9, data=[36, 127]),
   midi.NoteOnEvent(tick=25, channel=9, data=[36, 0]),
   midi.NoteOnEvent(tick=191, channel=9, data=[36, 127]),
   midi.NoteOnEvent(tick=25, channel=9, data=[36, 0]),
   midi.NoteOnEvent(tick=191, channel=9, data=[36, 127]),
   midi.NoteOnEvent(tick=25, channel=9, data=[36, 0]),
   midi.NoteOnEvent(tick=191, channel=9, data=[36, 127]),
   midi.NoteOnEvent(tick=25, channel=9, data=[36, 0]),
   midi.NoteOnEvent(tick=191, channel=9, data=[36, 127]),
   midi.NoteOnEvent(tick=25, channel=9, data=[36, 0]),
   midi.NoteOnEvent(tick=191, channel=9, data=[36, 127]),
   midi.NoteOnEvent(tick=25, channel=9, data=[36, 0]),
   midi.NoteOnEvent(tick=191, channel=9, data=[36, 127]),
   midi.NoteOnEvent(tick=25, channel=9, data=[36, 0]),
   midi.NoteOnEvent(tick=191, channel=9, data=[36, 127]),
   midi.NoteOnEvent(tick=25, channel=9, data=[36, 0]),
   midi.NoteOnEvent(tick=191, channel=9, data=[36, 127]),
   midi.NoteOnEvent(tick=25, channel=9, data=[36, 0]),
   midi.NoteOnEvent(tick=191, channel=9, data=[36, 127]),
   midi.NoteOnEvent(tick=25, channel=9, data=[36, 0]),
   midi.NoteOnEvent(tick=191, channel=9, data=[36, 127]),
   midi.NoteOnEvent(tick=25, channel=9, data=[36, 0]),
   midi.NoteOnEvent(tick=191, channel=9, data=[36, 127]),
   midi.NoteOnEvent(tick=25, channel=9, data=[36, 0]),
   midi.NoteOnEvent(tick=191, channel=9, data=[36, 127]),
   midi.NoteOnEvent(tick=25, channel=9, data=[36, 0]),
   midi.NoteOnEvent(tick=191, channel=9, data=[36, 127]),
   midi.NoteOnEvent(tick=25, channel=9, data=[36, 0]),
   midi.NoteOnEvent(tick=191, channel=9, data=[36, 127]),
   midi.NoteOnEvent(tick=25, channel=9, data=[36, 0]),
   midi.NoteOnEvent(tick=191, channel=9, data=[36, 127]),
   midi.NoteOnEvent(tick=25, channel=9, data=[36, 0]),
   midi.NoteOnEvent(tick=191, channel=9, data=[36, 127]),
   midi.NoteOnEvent(tick=25, channel=9, data=[36, 0]),
   midi.NoteOnEvent(tick=191, channel=9, data=[36, 127]),
   midi.NoteOnEvent(tick=25, channel=9, data=[36, 0]),
   midi.NoteOnEvent(tick=191, channel=9, data=[36, 127]),
   midi.NoteOnEvent(tick=25, channel=9, data=[36, 0]),
   midi.NoteOnEvent(tick=191, channel=9, data=[36, 127]),
   midi.NoteOnEvent(tick=25, channel=9, data=[36, 0]),
   midi.NoteOnEvent(tick=191, channel=9, data=[36, 127]),
   midi.NoteOnEvent(tick=25, channel=9, data=[36, 0]),
   midi.NoteOnEvent(tick=191, channel=9, data=[36, 127]),
   midi.NoteOnEvent(tick=25, channel=9, data=[36, 0]),
   midi.NoteOnEvent(tick=1811, channel=9, data=[36, 127]),
   midi.NoteOnEvent(tick=25, channel=9, data=[36, 0]),
   midi.NoteOnEvent(tick=191, channel=9, data=[36, 127]),
   midi.NoteOnEvent(tick=25, channel=9, data=[36, 0]),
   midi.NoteOnEvent(tick=191, channel=9, data=[36, 127]),
   midi.NoteOnEvent(tick=25, channel=9, data=[36, 0]),
   midi.NoteOnEvent(tick=299, channel=9, data=[36, 127]),
   midi.NoteOnEvent(tick=25, channel=9, data=[36, 0]),
   midi.EndOfTrackEvent(tick=0, data=[])]),
 midi.Track(\
  [midi.PortEvent(tick=0, data=[0]),
   midi.TrackNameEvent(tick=0, text='snare', data=[115, 110, 97, 114, 101]),
   midi.ControlChangeEvent(tick=0, channel=9, data=[1, 0]),
   midi.PitchWheelEvent(tick=0, channel=9, data=[0, 64]),
   midi.ControlChangeEvent(tick=0, channel=9, data=[11, 100]),
   midi.NoteOnEvent(tick=25056, channel=9, data=[38, 127]),
   midi.NoteOnEvent(tick=18, channel=9, data=[38, 127]),
   midi.NoteOnEvent(tick=198, channel=9, data=[38, 0]),
   midi.NoteOnEvent(tick=18, channel=9, data=[38, 0]),
   midi.NoteOnEvent(tick=522, channel=9, data=[38, 127]),
   midi.NoteOnEvent(tick=23, channel=9, data=[38, 0]),
   midi.NoteOnEvent(tick=193, channel=9, data=[38, 127]),
   midi.NoteOnEvent(tick=23, channel=9, data=[38, 0]),
   midi.NoteOnEvent(tick=193, channel=9, data=[38, 127]),
   midi.NoteOnEvent(tick=23, channel=9, data=[38, 0]),
   midi.NoteOnEvent(tick=193, channel=9, data=[38, 127]),
   midi.NoteOnEvent(tick=23, channel=9, data=[38, 0]),
   midi.NoteOnEvent(tick=193, channel=9, data=[38, 127]),
   midi.NoteOnEvent(tick=23, channel=9, data=[38, 0]),
   midi.NoteOnEvent(tick=193, channel=9, data=[38, 127]),
   midi.NoteOnEvent(tick=23, channel=9, data=[38, 0]),
   midi.NoteOnEvent(tick=193, channel=9, data=[38, 127]),
   midi.NoteOnEvent(tick=23, channel=9, data=[38, 0]),
   midi.NoteOnEvent(tick=193, channel=9, data=[38, 127]),
   midi.NoteOnEvent(tick=23, channel=9, data=[38, 0]),
   midi.NoteOnEvent(tick=193, channel=9, data=[38, 127]),
   midi.NoteOnEvent(tick=23, channel=9, data=[38, 0]),
   midi.NoteOnEvent(tick=193, channel=9, data=[38, 127]),
   midi.NoteOnEvent(tick=23, channel=9, data=[38, 0]),
   midi.NoteOnEvent(tick=193, channel=9, data=[38, 127]),
   midi.NoteOnEvent(tick=23, channel=9, data=[38, 0]),
   midi.NoteOnEvent(tick=193, channel=9, data=[38, 127]),
   midi.NoteOnEvent(tick=23, channel=9, data=[38, 0]),
   midi.NoteOnEvent(tick=193, channel=9, data=[38, 127]),
   midi.NoteOnEvent(tick=23, channel=9, data=[38, 0]),
   midi.NoteOnEvent(tick=193, channel=9, data=[38, 127]),
   midi.NoteOnEvent(tick=23, channel=9, data=[38, 0]),
   midi.NoteOnEvent(tick=841, channel=9, data=[38, 127]),
   midi.NoteOnEvent(tick=23, channel=9, data=[38, 0]),
   midi.NoteOnEvent(tick=193, channel=9, data=[38, 127]),
   midi.NoteOnEvent(tick=23, channel=9, data=[38, 0]),
   midi.NoteOnEvent(tick=193, channel=9, data=[38, 127]),
   midi.NoteOnEvent(tick=23, channel=9, data=[38, 0]),
   midi.NoteOnEvent(tick=193, channel=9, data=[38, 127]),
   midi.NoteOnEvent(tick=23, channel=9, data=[38, 0]),
   midi.NoteOnEvent(tick=193, channel=9, data=[38, 127]),
   midi.NoteOnEvent(tick=23, channel=9, data=[38, 0]),
   midi.NoteOnEvent(tick=193, channel=9, data=[38, 127]),
   midi.NoteOnEvent(tick=23, channel=9, data=[38, 0]),
   midi.NoteOnEvent(tick=193, channel=9, data=[38, 127]),
   midi.NoteOnEvent(tick=23, channel=9, data=[38, 0]),
   midi.NoteOnEvent(tick=193, channel=9, data=[38, 127]),
   midi.NoteOnEvent(tick=23, channel=9, data=[38, 0]),
   midi.NoteOnEvent(tick=193, channel=9, data=[38, 127]),
   midi.NoteOnEvent(tick=23, channel=9, data=[38, 0]),
   midi.NoteOnEvent(tick=193, channel=9, data=[38, 127]),
   midi.NoteOnEvent(tick=23, channel=9, data=[38, 0]),
   midi.NoteOnEvent(tick=193, channel=9, data=[38, 127]),
   midi.NoteOnEvent(tick=23, channel=9, data=[38, 0]),
   midi.NoteOnEvent(tick=193, channel=9, data=[38, 127]),
   midi.NoteOnEvent(tick=23, channel=9, data=[38, 0]),
   midi.NoteOnEvent(tick=85, channel=9, data=[38, 127]),
   midi.NoteOnEvent(tick=216, channel=9, data=[38, 0]),
   midi.NoteOnEvent(tick=540, channel=9, data=[38, 127]),
   midi.NoteOnEvent(tick=23, channel=9, data=[38, 0]),
   midi.NoteOnEvent(tick=301, channel=9, data=[38, 127]),
   midi.NoteOnEvent(tick=23, channel=9, data=[38, 0]),
   midi.NoteOnEvent(tick=409, channel=9, data=[38, 127]),
   midi.NoteOnEvent(tick=23, channel=9, data=[38, 0]),
   midi.NoteOnEvent(tick=409, channel=9, data=[38, 127]),
   midi.NoteOnEvent(tick=23, channel=9, data=[38, 0]),
   midi.NoteOnEvent(tick=409, channel=9, data=[38, 127]),
   midi.NoteOnEvent(tick=23, channel=9, data=[38, 0]),
   midi.NoteOnEvent(tick=409, channel=9, data=[38, 127]),
   midi.NoteOnEvent(tick=23, channel=9, data=[38, 0]),
   midi.NoteOnEvent(tick=733, channel=9, data=[38, 127]),
   midi.NoteOnEvent(tick=23, channel=9, data=[38, 0]),
   midi.NoteOnEvent(tick=193, channel=9, data=[38, 127]),
   midi.NoteOnEvent(tick=23, channel=9, data=[38, 0]),
   midi.NoteOnEvent(tick=193, channel=9, data=[38, 127]),
   midi.NoteOnEvent(tick=23, channel=9, data=[38, 0]),
   midi.NoteOnEvent(tick=193, channel=9, data=[38, 127]),
   midi.NoteOnEvent(tick=23, channel=9, data=[38, 0]),
   midi.NoteOnEvent(tick=193, channel=9, data=[38, 127]),
   midi.NoteOnEvent(tick=23, channel=9, data=[38, 0]),
   midi.NoteOnEvent(tick=193, channel=9, data=[38, 127]),
   midi.NoteOnEvent(tick=23, channel=9, data=[38, 0]),
   midi.NoteOnEvent(tick=193, channel=9, data=[38, 127]),
   midi.NoteOnEvent(tick=23, channel=9, data=[38, 0]),
   midi.NoteOnEvent(tick=193, channel=9, data=[38, 127]),
   midi.NoteOnEvent(tick=23, channel=9, data=[38, 0]),
   midi.NoteOnEvent(tick=193, channel=9, data=[38, 127]),
   midi.NoteOnEvent(tick=23, channel=9, data=[38, 0]),
   midi.NoteOnEvent(tick=193, channel=9, data=[38, 127]),
   midi.NoteOnEvent(tick=23, channel=9, data=[38, 0]),
   midi.NoteOnEvent(tick=193, channel=9, data=[38, 127]),
   midi.NoteOnEvent(tick=23, channel=9, data=[38, 0]),
   midi.NoteOnEvent(tick=193, channel=9, data=[38, 127]),
   midi.NoteOnEvent(tick=23, channel=9, data=[38, 0]),
   midi.NoteOnEvent(tick=193, channel=9, data=[38, 127]),
   midi.NoteOnEvent(tick=23, channel=9, data=[38, 0]),
   midi.NoteOnEvent(tick=193, channel=9, data=[38, 127]),
   midi.NoteOnEvent(tick=23, channel=9, data=[38, 0]),
   midi.NoteOnEvent(tick=193, channel=9, data=[38, 127]),
   midi.NoteOnEvent(tick=23, channel=9, data=[38, 0]),
   midi.NoteOnEvent(tick=193, channel=9, data=[38, 127]),
   midi.NoteOnEvent(tick=23, channel=9, data=[38, 0]),
   midi.NoteOnEvent(tick=193, channel=9, data=[38, 127]),
   midi.NoteOnEvent(tick=23, channel=9, data=[38, 0]),
   midi.NoteOnEvent(tick=193, channel=9, data=[38, 127]),
   midi.NoteOnEvent(tick=23, channel=9, data=[38, 0]),
   midi.NoteOnEvent(tick=193, channel=9, data=[38, 127]),
   midi.NoteOnEvent(tick=23, channel=9, data=[38, 0]),
   midi.NoteOnEvent(tick=193, channel=9, data=[38, 127]),
   midi.NoteOnEvent(tick=23, channel=9, data=[38, 0]),
   midi.NoteOnEvent(tick=193, channel=9, data=[38, 127]),
   midi.NoteOnEvent(tick=23, channel=9, data=[38, 0]),
   midi.NoteOnEvent(tick=193, channel=9, data=[38, 127]),
   midi.NoteOnEvent(tick=23, channel=9, data=[38, 0]),
   midi.NoteOnEvent(tick=193, channel=9, data=[38, 127]),
   midi.NoteOnEvent(tick=23, channel=9, data=[38, 0]),
   midi.NoteOnEvent(tick=193, channel=9, data=[38, 127]),
   midi.NoteOnEvent(tick=23, channel=9, data=[38, 0]),
   midi.NoteOnEvent(tick=193, channel=9, data=[38, 127]),
   midi.NoteOnEvent(tick=23, channel=9, data=[38, 0]),
   midi.NoteOnEvent(tick=193, channel=9, data=[38, 127]),
   midi.NoteOnEvent(tick=23, channel=9, data=[38, 0]),
   midi.NoteOnEvent(tick=193, channel=9, data=[38, 127]),
   midi.NoteOnEvent(tick=23, channel=9, data=[38, 0]),
   midi.NoteOnEvent(tick=193, channel=9, data=[38, 127]),
   midi.NoteOnEvent(tick=23, channel=9, data=[38, 0]),
   midi.NoteOnEvent(tick=1165, channel=9, data=[38, 127]),
   midi.NoteOnEvent(tick=23, channel=9, data=[38, 0]),
   midi.NoteOnEvent(tick=409, channel=9, data=[38, 127]),
   midi.NoteOnEvent(tick=23, channel=9, data=[38, 0]),
   midi.NoteOnEvent(tick=409, channel=9, data=[38, 127]),
   midi.NoteOnEvent(tick=23, channel=9, data=[38, 0]),
   midi.NoteOnEvent(tick=409, channel=9, data=[38, 127]),
   midi.NoteOnEvent(tick=23, channel=9, data=[38, 0]),
   midi.NoteOnEvent(tick=409, channel=9, data=[38, 127]),
   midi.NoteOnEvent(tick=23, channel=9, data=[38, 0]),
   midi.NoteOnEvent(tick=733, channel=9, data=[38, 127]),
   midi.NoteOnEvent(tick=23, channel=9, data=[38, 0]),
   midi.NoteOnEvent(tick=193, channel=9, data=[38, 127]),
   midi.NoteOnEvent(tick=23, channel=9, data=[38, 0]),
   midi.NoteOnEvent(tick=193, channel=9, data=[38, 127]),
   midi.NoteOnEvent(tick=23, channel=9, data=[38, 0]),
   midi.NoteOnEvent(tick=193, channel=9, data=[38, 127]),
   midi.NoteOnEvent(tick=23, channel=9, data=[38, 0]),
   midi.NoteOnEvent(tick=193, channel=9, data=[38, 127]),
   midi.NoteOnEvent(tick=23, channel=9, data=[38, 0]),
   midi.NoteOnEvent(tick=193, channel=9, data=[38, 127]),
   midi.NoteOnEvent(tick=23, channel=9, data=[38, 0]),
   midi.NoteOnEvent(tick=193, channel=9, data=[38, 127]),
   midi.NoteOnEvent(tick=23, channel=9, data=[38, 0]),
   midi.NoteOnEvent(tick=193, channel=9, data=[38, 127]),
   midi.NoteOnEvent(tick=23, channel=9, data=[38, 0]),
   midi.NoteOnEvent(tick=193, channel=9, data=[38, 127]),
   midi.NoteOnEvent(tick=23, channel=9, data=[38, 0]),
   midi.NoteOnEvent(tick=193, channel=9, data=[38, 127]),
   midi.NoteOnEvent(tick=23, channel=9, data=[38, 0]),
   midi.NoteOnEvent(tick=193, channel=9, data=[38, 127]),
   midi.NoteOnEvent(tick=23, channel=9, data=[38, 0]),
   midi.NoteOnEvent(tick=193, channel=9, data=[38, 127]),
   midi.NoteOnEvent(tick=23, channel=9, data=[38, 0]),
   midi.NoteOnEvent(tick=1165, channel=9, data=[38, 127]),
   midi.NoteOnEvent(tick=23, channel=9, data=[38, 0]),
   midi.NoteOnEvent(tick=409, channel=9, data=[38, 127]),
   midi.NoteOnEvent(tick=23, channel=9, data=[38, 0]),
   midi.NoteOnEvent(tick=409, channel=9, data=[38, 127]),
   midi.NoteOnEvent(tick=23, channel=9, data=[38, 0]),
   midi.NoteOnEvent(tick=409, channel=9, data=[38, 127]),
   midi.NoteOnEvent(tick=23, channel=9, data=[38, 0]),
   midi.NoteOnEvent(tick=409, channel=9, data=[38, 127]),
   midi.NoteOnEvent(tick=23, channel=9, data=[38, 0]),
   midi.NoteOnEvent(tick=733, channel=9, data=[38, 127]),
   midi.NoteOnEvent(tick=23, channel=9, data=[38, 0]),
   midi.NoteOnEvent(tick=193, channel=9, data=[38, 127]),
   midi.NoteOnEvent(tick=23, channel=9, data=[38, 0]),
   midi.NoteOnEvent(tick=193, channel=9, data=[38, 127]),
   midi.NoteOnEvent(tick=23, channel=9, data=[38, 0]),
   midi.NoteOnEvent(tick=193, channel=9, data=[38, 127]),
   midi.NoteOnEvent(tick=23, channel=9, data=[38, 0]),
   midi.NoteOnEvent(tick=193, channel=9, data=[38, 127]),
   midi.NoteOnEvent(tick=23, channel=9, data=[38, 0]),
   midi.NoteOnEvent(tick=193, channel=9, data=[38, 127]),
   midi.NoteOnEvent(tick=23, channel=9, data=[38, 0]),
   midi.NoteOnEvent(tick=193, channel=9, data=[38, 127]),
   midi.NoteOnEvent(tick=23, channel=9, data=[38, 0]),
   midi.NoteOnEvent(tick=193, channel=9, data=[38, 127]),
   midi.NoteOnEvent(tick=23, channel=9, data=[38, 0]),
   midi.NoteOnEvent(tick=1813, channel=9, data=[38, 127]),
   midi.NoteOnEvent(tick=23, channel=9, data=[38, 0]),
   midi.NoteOnEvent(tick=193, channel=9, data=[38, 127]),
   midi.NoteOnEvent(tick=23, channel=9, data=[38, 0]),
   midi.NoteOnEvent(tick=193, channel=9, data=[38, 127]),
   midi.NoteOnEvent(tick=23, channel=9, data=[38, 0]),
   midi.NoteOnEvent(tick=193, channel=9, data=[38, 127]),
   midi.NoteOnEvent(tick=23, channel=9, data=[38, 0]),
   midi.NoteOnEvent(tick=193, channel=9, data=[38, 127]),
   midi.NoteOnEvent(tick=23, channel=9, data=[38, 0]),
   midi.NoteOnEvent(tick=193, channel=9, data=[38, 127]),
   midi.NoteOnEvent(tick=23, channel=9, data=[38, 0]),
   midi.NoteOnEvent(tick=193, channel=9, data=[38, 127]),
   midi.NoteOnEvent(tick=23, channel=9, data=[38, 0]),
   midi.NoteOnEvent(tick=193, channel=9, data=[38, 127]),
   midi.NoteOnEvent(tick=23, channel=9, data=[38, 0]),
   midi.NoteOnEvent(tick=193, channel=9, data=[38, 127]),
   midi.NoteOnEvent(tick=23, channel=9, data=[38, 0]),
   midi.NoteOnEvent(tick=193, channel=9, data=[38, 127]),
   midi.NoteOnEvent(tick=23, channel=9, data=[38, 0]),
   midi.NoteOnEvent(tick=193, channel=9, data=[38, 127]),
   midi.NoteOnEvent(tick=23, channel=9, data=[38, 0]),
   midi.NoteOnEvent(tick=193, channel=9, data=[38, 127]),
   midi.NoteOnEvent(tick=23, channel=9, data=[38, 0]),
   midi.NoteOnEvent(tick=193, channel=9, data=[38, 127]),
   midi.NoteOnEvent(tick=23, channel=9, data=[38, 0]),
   midi.NoteOnEvent(tick=85, channel=9, data=[38, 127]),
   midi.NoteOnEvent(tick=23, channel=9, data=[38, 0]),
   midi.NoteOnEvent(tick=193, channel=9, data=[38, 127]),
   midi.NoteOnEvent(tick=23, channel=9, data=[38, 0]),
   midi.NoteOnEvent(tick=193, channel=9, data=[38, 127]),
   midi.NoteOnEvent(tick=23, channel=9, data=[38, 0]),
   midi.NoteOnEvent(tick=193, channel=9, data=[38, 127]),
   midi.NoteOnEvent(tick=23, channel=9, data=[38, 0]),
   midi.NoteOnEvent(tick=193, channel=9, data=[38, 127]),
   midi.NoteOnEvent(tick=23, channel=9, data=[38, 0]),
   midi.NoteOnEvent(tick=193, channel=9, data=[38, 127]),
   midi.NoteOnEvent(tick=23, channel=9, data=[38, 0]),
   midi.NoteOnEvent(tick=193, channel=9, data=[38, 127]),
   midi.NoteOnEvent(tick=23, channel=9, data=[38, 0]),
   midi.NoteOnEvent(tick=193, channel=9, data=[38, 127]),
   midi.NoteOnEvent(tick=23, channel=9, data=[38, 0]),
   midi.NoteOnEvent(tick=193, channel=9, data=[38, 127]),
   midi.NoteOnEvent(tick=23, channel=9, data=[38, 0]),
   midi.NoteOnEvent(tick=193, channel=9, data=[38, 127]),
   midi.NoteOnEvent(tick=23, channel=9, data=[38, 0]),
   midi.NoteOnEvent(tick=193, channel=9, data=[38, 127]),
   midi.NoteOnEvent(tick=23, channel=9, data=[38, 0]),
   midi.NoteOnEvent(tick=193, channel=9, data=[38, 127]),
   midi.NoteOnEvent(tick=23, channel=9, data=[38, 0]),
   midi.NoteOnEvent(tick=193, channel=9, data=[38, 127]),
   midi.NoteOnEvent(tick=23, channel=9, data=[38, 0]),
   midi.NoteOnEvent(tick=1165, channel=9, data=[38, 127]),
   midi.NoteOnEvent(tick=23, channel=9, data=[38, 0]),
   midi.NoteOnEvent(tick=409, channel=9, data=[38, 127]),
   midi.NoteOnEvent(tick=23, channel=9, data=[38, 0]),
   midi.NoteOnEvent(tick=409, channel=9, data=[38, 127]),
   midi.NoteOnEvent(tick=23, channel=9, data=[38, 0]),
   midi.NoteOnEvent(tick=409, channel=9, data=[38, 127]),
   midi.NoteOnEvent(tick=23, channel=9, data=[38, 0]),
   midi.NoteOnEvent(tick=409, channel=9, data=[38, 127]),
   midi.NoteOnEvent(tick=23, channel=9, data=[38, 0]),
   midi.NoteOnEvent(tick=733, channel=9, data=[38, 127]),
   midi.NoteOnEvent(tick=23, channel=9, data=[38, 0]),
   midi.NoteOnEvent(tick=193, channel=9, data=[38, 127]),
   midi.NoteOnEvent(tick=23, channel=9, data=[38, 0]),
   midi.NoteOnEvent(tick=193, channel=9, data=[38, 127]),
   midi.NoteOnEvent(tick=23, channel=9, data=[38, 0]),
   midi.NoteOnEvent(tick=193, channel=9, data=[38, 127]),
   midi.NoteOnEvent(tick=23, channel=9, data=[38, 0]),
   midi.NoteOnEvent(tick=193, channel=9, data=[38, 127]),
   midi.NoteOnEvent(tick=23, channel=9, data=[38, 0]),
   midi.NoteOnEvent(tick=193, channel=9, data=[38, 127]),
   midi.NoteOnEvent(tick=23, channel=9, data=[38, 0]),
   midi.NoteOnEvent(tick=193, channel=9, data=[38, 127]),
   midi.NoteOnEvent(tick=23, channel=9, data=[38, 0]),
   midi.NoteOnEvent(tick=193, channel=9, data=[38, 127]),
   midi.NoteOnEvent(tick=23, channel=9, data=[38, 0]),
   midi.NoteOnEvent(tick=193, channel=9, data=[38, 127]),
   midi.NoteOnEvent(tick=23, channel=9, data=[38, 0]),
   midi.NoteOnEvent(tick=193, channel=9, data=[38, 127]),
   midi.NoteOnEvent(tick=23, channel=9, data=[38, 0]),
   midi.NoteOnEvent(tick=193, channel=9, data=[38, 127]),
   midi.NoteOnEvent(tick=23, channel=9, data=[38, 0]),
   midi.NoteOnEvent(tick=193, channel=9, data=[38, 127]),
   midi.NoteOnEvent(tick=23, channel=9, data=[38, 0]),
   midi.NoteOnEvent(tick=193, channel=9, data=[38, 127]),
   midi.NoteOnEvent(tick=23, channel=9, data=[38, 0]),
   midi.NoteOnEvent(tick=193, channel=9, data=[38, 127]),
   midi.NoteOnEvent(tick=23, channel=9, data=[38, 0]),
   midi.NoteOnEvent(tick=193, channel=9, data=[38, 127]),
   midi.NoteOnEvent(tick=23, channel=9, data=[38, 0]),
   midi.NoteOnEvent(tick=193, channel=9, data=[38, 127]),
   midi.NoteOnEvent(tick=23, channel=9, data=[38, 0]),
   midi.NoteOnEvent(tick=193, channel=9, data=[38, 127]),
   midi.NoteOnEvent(tick=23, channel=9, data=[38, 0]),
   midi.NoteOnEvent(tick=193, channel=9, data=[38, 127]),
   midi.NoteOnEvent(tick=23, channel=9, data=[38, 0]),
   midi.NoteOnEvent(tick=193, channel=9, data=[38, 127]),
   midi.NoteOnEvent(tick=23, channel=9, data=[38, 0]),
   midi.NoteOnEvent(tick=193, channel=9, data=[38, 127]),
   midi.NoteOnEvent(tick=23, channel=9, data=[38, 0]),
   midi.NoteOnEvent(tick=193, channel=9, data=[38, 127]),
   midi.NoteOnEvent(tick=23, channel=9, data=[38, 0]),
   midi.NoteOnEvent(tick=193, channel=9, data=[38, 127]),
   midi.NoteOnEvent(tick=23, channel=9, data=[38, 0]),
   midi.NoteOnEvent(tick=193, channel=9, data=[38, 127]),
   midi.NoteOnEvent(tick=23, channel=9, data=[38, 0]),
   midi.NoteOnEvent(tick=193, channel=9, data=[38, 127]),
   midi.NoteOnEvent(tick=23, channel=9, data=[38, 0]),
   midi.NoteOnEvent(tick=193, channel=9, data=[38, 127]),
   midi.NoteOnEvent(tick=23, channel=9, data=[38, 0]),
   midi.NoteOnEvent(tick=193, channel=9, data=[38, 127]),
   midi.NoteOnEvent(tick=23, channel=9, data=[38, 0]),
   midi.NoteOnEvent(tick=193, channel=9, data=[38, 127]),
   midi.NoteOnEvent(tick=23, channel=9, data=[38, 0]),
   midi.NoteOnEvent(tick=193, channel=9, data=[38, 127]),
   midi.NoteOnEvent(tick=23, channel=9, data=[38, 0]),
   midi.NoteOnEvent(tick=1165, channel=9, data=[38, 127]),
   midi.NoteOnEvent(tick=23, channel=9, data=[38, 0]),
   midi.NoteOnEvent(tick=409, channel=9, data=[38, 127]),
   midi.NoteOnEvent(tick=23, channel=9, data=[38, 0]),
   midi.NoteOnEvent(tick=409, channel=9, data=[38, 127]),
   midi.NoteOnEvent(tick=23, channel=9, data=[38, 0]),
   midi.NoteOnEvent(tick=409, channel=9, data=[38, 127]),
   midi.NoteOnEvent(tick=23, channel=9, data=[38, 0]),
   midi.NoteOnEvent(tick=409, channel=9, data=[38, 127]),
   midi.NoteOnEvent(tick=23, channel=9, data=[38, 0]),
   midi.NoteOnEvent(tick=193, channel=9, data=[38, 127]),
   midi.NoteOnEvent(tick=23, channel=9, data=[38, 0]),
   midi.NoteOnEvent(tick=31, channel=9, data=[38, 127]),
   midi.NoteOnEvent(tick=23, channel=9, data=[38, 0]),
   midi.NoteOnEvent(tick=31, channel=9, data=[38, 127]),
   midi.NoteOnEvent(tick=23, channel=9, data=[38, 0]),
   midi.NoteOnEvent(tick=85, channel=9, data=[38, 127]),
   midi.NoteOnEvent(tick=23, channel=9, data=[38, 0]),
   midi.NoteOnEvent(tick=301, channel=9, data=[38, 127]),
   midi.NoteOnEvent(tick=23, channel=9, data=[38, 0]),
   midi.NoteOnEvent(tick=193, channel=9, data=[38, 127]),
   midi.NoteOnEvent(tick=23, channel=9, data=[38, 0]),
   midi.NoteOnEvent(tick=193, channel=9, data=[38, 127]),
   midi.NoteOnEvent(tick=23, channel=9, data=[38, 0]),
   midi.NoteOnEvent(tick=193, channel=9, data=[38, 127]),
   midi.NoteOnEvent(tick=23, channel=9, data=[38, 0]),
   midi.NoteOnEvent(tick=193, channel=9, data=[38, 127]),
   midi.NoteOnEvent(tick=23, channel=9, data=[38, 0]),
   midi.NoteOnEvent(tick=193, channel=9, data=[38, 127]),
   midi.NoteOnEvent(tick=23, channel=9, data=[38, 0]),
   midi.NoteOnEvent(tick=193, channel=9, data=[38, 127]),
   midi.NoteOnEvent(tick=23, channel=9, data=[38, 0]),
   midi.NoteOnEvent(tick=193, channel=9, data=[38, 127]),
   midi.NoteOnEvent(tick=23, channel=9, data=[38, 0]),
   midi.NoteOnEvent(tick=193, channel=9, data=[38, 127]),
   midi.NoteOnEvent(tick=23, channel=9, data=[38, 0]),
   midi.NoteOnEvent(tick=193, channel=9, data=[38, 127]),
   midi.NoteOnEvent(tick=23, channel=9, data=[38, 0]),
   midi.NoteOnEvent(tick=193, channel=9, data=[38, 127]),
   midi.NoteOnEvent(tick=23, channel=9, data=[38, 0]),
   midi.NoteOnEvent(tick=193, channel=9, data=[38, 127]),
   midi.NoteOnEvent(tick=23, channel=9, data=[38, 0]),
   midi.NoteOnEvent(tick=625, channel=9, data=[38, 127]),
   midi.NoteOnEvent(tick=25, channel=9, data=[38, 0]),
   midi.NoteOnEvent(tick=191, channel=9, data=[38, 127]),
   midi.NoteOnEvent(tick=25, channel=9, data=[38, 0]),
   midi.NoteOnEvent(tick=299, channel=9, data=[38, 127]),
   midi.NoteOnEvent(tick=23, channel=9, data=[38, 0]),
   midi.NoteOnEvent(tick=409, channel=9, data=[38, 127]),
   midi.NoteOnEvent(tick=23, channel=9, data=[38, 0]),
   midi.NoteOnEvent(tick=409, channel=9, data=[38, 127]),
   midi.NoteOnEvent(tick=23, channel=9, data=[38, 0]),
   midi.NoteOnEvent(tick=409, channel=9, data=[38, 127]),
   midi.NoteOnEvent(tick=23, channel=9, data=[38, 0]),
   midi.NoteOnEvent(tick=409, channel=9, data=[38, 127]),
   midi.NoteOnEvent(tick=23, channel=9, data=[38, 0]),
   midi.NoteOnEvent(tick=733, channel=9, data=[38, 127]),
   midi.NoteOnEvent(tick=23, channel=9, data=[38, 0]),
   midi.NoteOnEvent(tick=193, channel=9, data=[38, 127]),
   midi.NoteOnEvent(tick=23, channel=9, data=[38, 0]),
   midi.NoteOnEvent(tick=193, channel=9, data=[38, 127]),
   midi.NoteOnEvent(tick=23, channel=9, data=[38, 0]),
   midi.NoteOnEvent(tick=193, channel=9, data=[38, 127]),
   midi.NoteOnEvent(tick=23, channel=9, data=[38, 0]),
   midi.NoteOnEvent(tick=193, channel=9, data=[38, 127]),
   midi.NoteOnEvent(tick=23, channel=9, data=[38, 0]),
   midi.NoteOnEvent(tick=193, channel=9, data=[38, 127]),
   midi.NoteOnEvent(tick=23, channel=9, data=[38, 0]),
   midi.NoteOnEvent(tick=193, channel=9, data=[38, 127]),
   midi.NoteOnEvent(tick=23, channel=9, data=[38, 0]),
   midi.NoteOnEvent(tick=193, channel=9, data=[38, 127]),
   midi.NoteOnEvent(tick=23, channel=9, data=[38, 0]),
   midi.NoteOnEvent(tick=1165, channel=9, data=[38, 127]),
   midi.NoteOnEvent(tick=25, channel=9, data=[38, 0]),
   midi.NoteOnEvent(tick=29, channel=9, data=[38, 127]),
   midi.NoteOnEvent(tick=25, channel=9, data=[38, 0]),
   midi.NoteOnEvent(tick=29, channel=9, data=[38, 127]),
   midi.NoteOnEvent(tick=25, channel=9, data=[38, 0]),
   midi.NoteOnEvent(tick=29, channel=9, data=[38, 127]),
   midi.NoteOnEvent(tick=25, channel=9, data=[38, 0]),
   midi.NoteOnEvent(tick=29, channel=9, data=[38, 127]),
   midi.NoteOnEvent(tick=25, channel=9, data=[38, 0]),
   midi.NoteOnEvent(tick=83, channel=9, data=[38, 127]),
   midi.NoteOnEvent(tick=25, channel=9, data=[38, 0]),
   midi.NoteOnEvent(tick=407, channel=9, data=[38, 127]),
   midi.NoteOnEvent(tick=23, channel=9, data=[38, 0]),
   midi.NoteOnEvent(tick=193, channel=9, data=[38, 127]),
   midi.NoteOnEvent(tick=23, channel=9, data=[38, 0]),
   midi.NoteOnEvent(tick=193, channel=9, data=[38, 127]),
   midi.NoteOnEvent(tick=23, channel=9, data=[38, 0]),
   midi.NoteOnEvent(tick=193, channel=9, data=[38, 127]),
   midi.NoteOnEvent(tick=23, channel=9, data=[38, 0]),
   midi.NoteOnEvent(tick=193, channel=9, data=[38, 127]),
   midi.NoteOnEvent(tick=23, channel=9, data=[38, 0]),
   midi.NoteOnEvent(tick=193, channel=9, data=[38, 127]),
   midi.NoteOnEvent(tick=23, channel=9, data=[38, 0]),
   midi.NoteOnEvent(tick=193, channel=9, data=[38, 127]),
   midi.NoteOnEvent(tick=23, channel=9, data=[38, 0]),
   midi.NoteOnEvent(tick=193, channel=9, data=[38, 127]),
   midi.NoteOnEvent(tick=23, channel=9, data=[38, 0]),
   midi.NoteOnEvent(tick=193, channel=9, data=[38, 127]),
   midi.NoteOnEvent(tick=23, channel=9, data=[38, 0]),
   midi.NoteOnEvent(tick=193, channel=9, data=[38, 127]),
   midi.NoteOnEvent(tick=23, channel=9, data=[38, 0]),
   midi.NoteOnEvent(tick=193, channel=9, data=[38, 127]),
   midi.NoteOnEvent(tick=23, channel=9, data=[38, 0]),
   midi.NoteOnEvent(tick=193, channel=9, data=[38, 127]),
   midi.NoteOnEvent(tick=23, channel=9, data=[38, 0]),
   midi.NoteOnEvent(tick=85, channel=9, data=[38, 127]),
   midi.NoteOnEvent(tick=23, channel=9, data=[38, 0]),
   midi.NoteOnEvent(tick=85, channel=9, data=[38, 127]),
   midi.NoteOnEvent(tick=23, channel=9, data=[38, 0]),
   midi.NoteOnEvent(tick=193, channel=9, data=[38, 127]),
   midi.NoteOnEvent(tick=23, channel=9, data=[38, 0]),
   midi.NoteOnEvent(tick=193, channel=9, data=[38, 127]),
   midi.NoteOnEvent(tick=23, channel=9, data=[38, 0]),
   midi.NoteOnEvent(tick=193, channel=9, data=[38, 127]),
   midi.NoteOnEvent(tick=23, channel=9, data=[38, 0]),
   midi.NoteOnEvent(tick=193, channel=9, data=[38, 127]),
   midi.NoteOnEvent(tick=23, channel=9, data=[38, 0]),
   midi.NoteOnEvent(tick=193, channel=9, data=[38, 127]),
   midi.NoteOnEvent(tick=23, channel=9, data=[38, 0]),
   midi.NoteOnEvent(tick=193, channel=9, data=[38, 127]),
   midi.NoteOnEvent(tick=23, channel=9, data=[38, 0]),
   midi.NoteOnEvent(tick=193, channel=9, data=[38, 127]),
   midi.NoteOnEvent(tick=23, channel=9, data=[38, 0]),
   midi.NoteOnEvent(tick=193, channel=9, data=[38, 127]),
   midi.NoteOnEvent(tick=23, channel=9, data=[38, 0]),
   midi.NoteOnEvent(tick=193, channel=9, data=[38, 127]),
   midi.NoteOnEvent(tick=23, channel=9, data=[38, 0]),
   midi.NoteOnEvent(tick=193, channel=9, data=[38, 127]),
   midi.NoteOnEvent(tick=23, channel=9, data=[38, 0]),
   midi.NoteOnEvent(tick=193, channel=9, data=[38, 127]),
   midi.NoteOnEvent(tick=23, channel=9, data=[38, 0]),
   midi.NoteOnEvent(tick=193, channel=9, data=[38, 127]),
   midi.NoteOnEvent(tick=23, channel=9, data=[38, 0]),
   midi.NoteOnEvent(tick=3109, channel=9, data=[38, 127]),
   midi.NoteOnEvent(tick=23, channel=9, data=[38, 0]),
   midi.NoteOnEvent(tick=841, channel=9, data=[38, 127]),
   midi.NoteOnEvent(tick=23, channel=9, data=[38, 0]),
   midi.NoteOnEvent(tick=193, channel=9, data=[38, 127]),
   midi.NoteOnEvent(tick=23, channel=9, data=[38, 0]),
   midi.NoteOnEvent(tick=625, channel=9, data=[38, 127]),
   midi.NoteOnEvent(tick=23, channel=9, data=[38, 0]),
   midi.NoteOnEvent(tick=733, channel=9, data=[38, 127]),
   midi.NoteOnEvent(tick=23, channel=9, data=[38, 0]),
   midi.NoteOnEvent(tick=301, channel=9, data=[38, 127]),
   midi.NoteOnEvent(tick=23, channel=9, data=[38, 0]),
   midi.NoteOnEvent(tick=625, channel=9, data=[38, 127]),
   midi.NoteOnEvent(tick=23, channel=9, data=[38, 0]),
   midi.NoteOnEvent(tick=841, channel=9, data=[38, 127]),
   midi.NoteOnEvent(tick=23, channel=9, data=[38, 0]),
   midi.NoteOnEvent(tick=193, channel=9, data=[38, 127]),
   midi.NoteOnEvent(tick=23, channel=9, data=[38, 0]),
   midi.NoteOnEvent(tick=625, channel=9, data=[38, 127]),
   midi.NoteOnEvent(tick=23, channel=9, data=[38, 0]),
   midi.NoteOnEvent(tick=841, channel=9, data=[38, 127]),
   midi.NoteOnEvent(tick=18, channel=9, data=[38, 127]),
   midi.NoteOnEvent(tick=5, channel=9, data=[38, 0]),
   midi.NoteOnEvent(tick=18, channel=9, data=[38, 0]),
   midi.NoteOnEvent(tick=823, channel=9, data=[38, 127]),
   midi.NoteOnEvent(tick=23, channel=9, data=[38, 0]),
   midi.NoteOnEvent(tick=841, channel=9, data=[38, 127]),
   midi.NoteOnEvent(tick=23, channel=9, data=[38, 0]),
   midi.NoteOnEvent(tick=193, channel=9, data=[38, 127]),
   midi.NoteOnEvent(tick=25, channel=9, data=[38, 0]),
   midi.NoteOnEvent(tick=623, channel=9, data=[38, 127]),
   midi.NoteOnEvent(tick=23, channel=9, data=[38, 0]),
   midi.NoteOnEvent(tick=409, channel=9, data=[38, 127]),
   midi.NoteOnEvent(tick=25, channel=9, data=[38, 0]),
   midi.NoteOnEvent(tick=29, channel=9, data=[38, 127]),
   midi.NoteOnEvent(tick=25, channel=9, data=[38, 0]),
   midi.NoteOnEvent(tick=29, channel=9, data=[38, 127]),
   midi.NoteOnEvent(tick=25, channel=9, data=[38, 0]),
   midi.NoteOnEvent(tick=83, channel=9, data=[38, 127]),
   midi.NoteOnEvent(tick=25, channel=9, data=[38, 0]),
   midi.NoteOnEvent(tick=83, channel=9, data=[38, 127]),
   midi.NoteOnEvent(tick=25, channel=9, data=[38, 0]),
   midi.NoteOnEvent(tick=83, channel=9, data=[38, 127]),
   midi.NoteOnEvent(tick=23, channel=9, data=[38, 0]),
   midi.NoteOnEvent(tick=85, channel=9, data=[38, 127]),
   midi.NoteOnEvent(tick=25, channel=9, data=[38, 0]),
   midi.NoteOnEvent(tick=731, channel=9, data=[38, 127]),
   midi.NoteOnEvent(tick=23, channel=9, data=[38, 0]),
   midi.NoteOnEvent(tick=841, channel=9, data=[38, 127]),
   midi.NoteOnEvent(tick=23, channel=9, data=[38, 0]),
   midi.NoteOnEvent(tick=193, channel=9, data=[38, 127]),
   midi.NoteOnEvent(tick=25, channel=9, data=[38, 0]),
   midi.NoteOnEvent(tick=83, channel=9, data=[38, 127]),
   midi.NoteOnEvent(tick=25, channel=9, data=[38, 0]),
   midi.NoteOnEvent(tick=515, channel=9, data=[38, 127]),
   midi.NoteOnEvent(tick=23, channel=9, data=[38, 0]),
   midi.NoteOnEvent(tick=409, channel=9, data=[38, 127]),
   midi.NoteOnEvent(tick=23, channel=9, data=[38, 0]),
   midi.NoteOnEvent(tick=85, channel=9, data=[38, 127]),
   midi.NoteOnEvent(tick=23, channel=9, data=[38, 0]),
   midi.NoteOnEvent(tick=301, channel=9, data=[38, 127]),
   midi.NoteOnEvent(tick=23, channel=9, data=[38, 0]),
   midi.NoteOnEvent(tick=85, channel=9, data=[38, 127]),
   midi.NoteOnEvent(tick=23, channel=9, data=[38, 0]),
   midi.NoteOnEvent(tick=733, channel=9, data=[38, 127]),
   midi.NoteOnEvent(tick=23, channel=9, data=[38, 0]),
   midi.NoteOnEvent(tick=841, channel=9, data=[38, 127]),
   midi.NoteOnEvent(tick=23, channel=9, data=[38, 0]),
   midi.NoteOnEvent(tick=193, channel=9, data=[38, 127]),
   midi.NoteOnEvent(tick=23, channel=9, data=[38, 0]),
   midi.NoteOnEvent(tick=625, channel=9, data=[38, 127]),
   midi.NoteOnEvent(tick=23, channel=9, data=[38, 0]),
   midi.NoteOnEvent(tick=409, channel=9, data=[38, 127]),
   midi.NoteOnEvent(tick=23, channel=9, data=[38, 0]),
   midi.NoteOnEvent(tick=301, channel=9, data=[38, 127]),
   midi.NoteOnEvent(tick=23, channel=9, data=[38, 0]),
   midi.NoteOnEvent(tick=301, channel=9, data=[38, 127]),
   midi.NoteOnEvent(tick=23, channel=9, data=[38, 0]),
   midi.NoteOnEvent(tick=625, channel=9, data=[38, 127]),
   midi.NoteOnEvent(tick=23, channel=9, data=[38, 0]),
   midi.NoteOnEvent(tick=2137, channel=9, data=[38, 127]),
   midi.NoteOnEvent(tick=23, channel=9, data=[38, 0]),
   midi.NoteOnEvent(tick=301, channel=9, data=[38, 127]),
   midi.NoteOnEvent(tick=23, channel=9, data=[38, 0]),
   midi.NoteOnEvent(tick=301, channel=9, data=[38, 127]),
   midi.NoteOnEvent(tick=23, channel=9, data=[38, 0]),
   midi.NoteOnEvent(tick=193, channel=9, data=[38, 127]),
   midi.NoteOnEvent(tick=23, channel=9, data=[38, 0]),
   midi.NoteOnEvent(tick=733, channel=9, data=[38, 127]),
   midi.NoteOnEvent(tick=23, channel=9, data=[38, 0]),
   midi.NoteOnEvent(tick=193, channel=9, data=[38, 127]),
   midi.NoteOnEvent(tick=23, channel=9, data=[38, 0]),
   midi.NoteOnEvent(tick=193, channel=9, data=[38, 127]),
   midi.NoteOnEvent(tick=23, channel=9, data=[38, 0]),
   midi.NoteOnEvent(tick=193, channel=9, data=[38, 127]),
   midi.NoteOnEvent(tick=23, channel=9, data=[38, 0]),
   midi.NoteOnEvent(tick=193, channel=9, data=[38, 127]),
   midi.NoteOnEvent(tick=23, channel=9, data=[38, 0]),
   midi.NoteOnEvent(tick=193, channel=9, data=[38, 127]),
   midi.NoteOnEvent(tick=23, channel=9, data=[38, 0]),
   midi.NoteOnEvent(tick=193, channel=9, data=[38, 127]),
   midi.NoteOnEvent(tick=23, channel=9, data=[38, 0]),
   midi.NoteOnEvent(tick=193, channel=9, data=[38, 127]),
   midi.NoteOnEvent(tick=23, channel=9, data=[38, 0]),
   midi.NoteOnEvent(tick=193, channel=9, data=[38, 127]),
   midi.NoteOnEvent(tick=23, channel=9, data=[38, 0]),
   midi.NoteOnEvent(tick=193, channel=9, data=[38, 127]),
   midi.NoteOnEvent(tick=23, channel=9, data=[38, 0]),
   midi.NoteOnEvent(tick=193, channel=9, data=[38, 127]),
   midi.NoteOnEvent(tick=23, channel=9, data=[38, 0]),
   midi.NoteOnEvent(tick=193, channel=9, data=[38, 127]),
   midi.NoteOnEvent(tick=23, channel=9, data=[38, 0]),
   midi.NoteOnEvent(tick=193, channel=9, data=[38, 127]),
   midi.NoteOnEvent(tick=23, channel=9, data=[38, 0]),
   midi.NoteOnEvent(tick=193, channel=9, data=[38, 127]),
   midi.NoteOnEvent(tick=23, channel=9, data=[38, 0]),
   midi.NoteOnEvent(tick=193, channel=9, data=[38, 127]),
   midi.NoteOnEvent(tick=23, channel=9, data=[38, 0]),
   midi.NoteOnEvent(tick=193, channel=9, data=[38, 127]),
   midi.NoteOnEvent(tick=23, channel=9, data=[38, 0]),
   midi.NoteOnEvent(tick=193, channel=9, data=[38, 127]),
   midi.NoteOnEvent(tick=23, channel=9, data=[38, 0]),
   midi.NoteOnEvent(tick=193, channel=9, data=[38, 127]),
   midi.NoteOnEvent(tick=23, channel=9, data=[38, 0]),
   midi.NoteOnEvent(tick=193, channel=9, data=[38, 127]),
   midi.NoteOnEvent(tick=23, channel=9, data=[38, 0]),
   midi.NoteOnEvent(tick=193, channel=9, data=[38, 127]),
   midi.NoteOnEvent(tick=23, channel=9, data=[38, 0]),
   midi.NoteOnEvent(tick=193, channel=9, data=[38, 127]),
   midi.NoteOnEvent(tick=23, channel=9, data=[38, 0]),
   midi.NoteOnEvent(tick=193, channel=9, data=[38, 127]),
   midi.NoteOnEvent(tick=23, channel=9, data=[38, 0]),
   midi.NoteOnEvent(tick=193, channel=9, data=[38, 127]),
   midi.NoteOnEvent(tick=23, channel=9, data=[38, 0]),
   midi.NoteOnEvent(tick=193, channel=9, data=[38, 127]),
   midi.NoteOnEvent(tick=23, channel=9, data=[38, 0]),
   midi.NoteOnEvent(tick=193, channel=9, data=[38, 127]),
   midi.NoteOnEvent(tick=23, channel=9, data=[38, 0]),
   midi.NoteOnEvent(tick=193, channel=9, data=[38, 127]),
   midi.NoteOnEvent(tick=23, channel=9, data=[38, 0]),
   midi.NoteOnEvent(tick=193, channel=9, data=[38, 127]),
   midi.NoteOnEvent(tick=23, channel=9, data=[38, 0]),
   midi.NoteOnEvent(tick=193, channel=9, data=[38, 127]),
   midi.NoteOnEvent(tick=23, channel=9, data=[38, 0]),
   midi.NoteOnEvent(tick=193, channel=9, data=[38, 127]),
   midi.NoteOnEvent(tick=23, channel=9, data=[38, 0]),
   midi.NoteOnEvent(tick=85, channel=9, data=[38, 127]),
   midi.NoteOnEvent(tick=216, channel=9, data=[38, 0]),
   midi.NoteOnEvent(tick=540, channel=9, data=[38, 127]),
   midi.NoteOnEvent(tick=23, channel=9, data=[38, 0]),
   midi.NoteOnEvent(tick=193, channel=9, data=[38, 127]),
   midi.NoteOnEvent(tick=23, channel=9, data=[38, 0]),
   midi.NoteOnEvent(tick=193, channel=9, data=[38, 127]),
   midi.NoteOnEvent(tick=23, channel=9, data=[38, 0]),
   midi.NoteOnEvent(tick=193, channel=9, data=[38, 127]),
   midi.NoteOnEvent(tick=23, channel=9, data=[38, 0]),
   midi.NoteOnEvent(tick=193, channel=9, data=[38, 127]),
   midi.NoteOnEvent(tick=23, channel=9, data=[38, 0]),
   midi.NoteOnEvent(tick=193, channel=9, data=[38, 127]),
   midi.NoteOnEvent(tick=23, channel=9, data=[38, 0]),
   midi.NoteOnEvent(tick=193, channel=9, data=[38, 127]),
   midi.NoteOnEvent(tick=23, channel=9, data=[38, 0]),
   midi.NoteOnEvent(tick=193, channel=9, data=[38, 127]),
   midi.NoteOnEvent(tick=23, channel=9, data=[38, 0]),
   midi.NoteOnEvent(tick=193, channel=9, data=[38, 127]),
   midi.NoteOnEvent(tick=23, channel=9, data=[38, 0]),
   midi.NoteOnEvent(tick=193, channel=9, data=[38, 127]),
   midi.NoteOnEvent(tick=23, channel=9, data=[38, 0]),
   midi.NoteOnEvent(tick=193, channel=9, data=[38, 127]),
   midi.NoteOnEvent(tick=23, channel=9, data=[38, 0]),
   midi.NoteOnEvent(tick=193, channel=9, data=[38, 127]),
   midi.NoteOnEvent(tick=23, channel=9, data=[38, 0]),
   midi.NoteOnEvent(tick=193, channel=9, data=[38, 127]),
   midi.NoteOnEvent(tick=23, channel=9, data=[38, 0]),
   midi.NoteOnEvent(tick=193, channel=9, data=[38, 127]),
   midi.NoteOnEvent(tick=23, channel=9, data=[38, 0]),
   midi.NoteOnEvent(tick=193, channel=9, data=[38, 127]),
   midi.NoteOnEvent(tick=23, channel=9, data=[38, 0]),
   midi.NoteOnEvent(tick=193, channel=9, data=[38, 127]),
   midi.NoteOnEvent(tick=23, channel=9, data=[38, 0]),
   midi.NoteOnEvent(tick=193, channel=9, data=[38, 127]),
   midi.NoteOnEvent(tick=23, channel=9, data=[38, 0]),
   midi.NoteOnEvent(tick=193, channel=9, data=[38, 127]),
   midi.NoteOnEvent(tick=23, channel=9, data=[38, 0]),
   midi.NoteOnEvent(tick=193, channel=9, data=[38, 127]),
   midi.NoteOnEvent(tick=23, channel=9, data=[38, 0]),
   midi.NoteOnEvent(tick=193, channel=9, data=[38, 127]),
   midi.NoteOnEvent(tick=23, channel=9, data=[38, 0]),
   midi.NoteOnEvent(tick=193, channel=9, data=[38, 127]),
   midi.NoteOnEvent(tick=23, channel=9, data=[38, 0]),
   midi.NoteOnEvent(tick=193, channel=9, data=[38, 127]),
   midi.NoteOnEvent(tick=23, channel=9, data=[38, 0]),
   midi.NoteOnEvent(tick=193, channel=9, data=[38, 127]),
   midi.NoteOnEvent(tick=23, channel=9, data=[38, 0]),
   midi.NoteOnEvent(tick=193, channel=9, data=[38, 127]),
   midi.NoteOnEvent(tick=23, channel=9, data=[38, 0]),
   midi.NoteOnEvent(tick=193, channel=9, data=[38, 127]),
   midi.NoteOnEvent(tick=23, channel=9, data=[38, 0]),
   midi.NoteOnEvent(tick=193, channel=9, data=[38, 127]),
   midi.NoteOnEvent(tick=23, channel=9, data=[38, 0]),
   midi.NoteOnEvent(tick=193, channel=9, data=[38, 127]),
   midi.NoteOnEvent(tick=23, channel=9, data=[38, 0]),
   midi.NoteOnEvent(tick=193, channel=9, data=[38, 127]),
   midi.NoteOnEvent(tick=23, channel=9, data=[38, 0]),
   midi.NoteOnEvent(tick=193, channel=9, data=[38, 127]),
   midi.NoteOnEvent(tick=23, channel=9, data=[38, 0]),
   midi.NoteOnEvent(tick=85, channel=9, data=[38, 127]),
   midi.NoteOnEvent(tick=216, channel=9, data=[38, 0]),
   midi.NoteOnEvent(tick=540, channel=9, data=[38, 127]),
   midi.NoteOnEvent(tick=23, channel=9, data=[38, 0]),
   midi.NoteOnEvent(tick=301, channel=9, data=[38, 127]),
   midi.NoteOnEvent(tick=23, channel=9, data=[38, 0]),
   midi.NoteOnEvent(tick=409, channel=9, data=[38, 127]),
   midi.NoteOnEvent(tick=23, channel=9, data=[38, 0]),
   midi.NoteOnEvent(tick=409, channel=9, data=[38, 127]),
   midi.NoteOnEvent(tick=23, channel=9, data=[38, 0]),
   midi.NoteOnEvent(tick=409, channel=9, data=[38, 127]),
   midi.NoteOnEvent(tick=23, channel=9, data=[38, 0]),
   midi.NoteOnEvent(tick=409, channel=9, data=[38, 127]),
   midi.NoteOnEvent(tick=23, channel=9, data=[38, 0]),
   midi.NoteOnEvent(tick=409, channel=9, data=[38, 127]),
   midi.NoteOnEvent(tick=23, channel=9, data=[38, 0]),
   midi.NoteOnEvent(tick=409, channel=9, data=[38, 127]),
   midi.NoteOnEvent(tick=23, channel=9, data=[38, 0]),
   midi.NoteOnEvent(tick=409, channel=9, data=[38, 127]),
   midi.NoteOnEvent(tick=23, channel=9, data=[38, 0]),
   midi.NoteOnEvent(tick=409, channel=9, data=[38, 127]),
   midi.NoteOnEvent(tick=23, channel=9, data=[38, 0]),
   midi.NoteOnEvent(tick=409, channel=9, data=[38, 127]),
   midi.NoteOnEvent(tick=23, channel=9, data=[38, 0]),
   midi.NoteOnEvent(tick=409, channel=9, data=[38, 127]),
   midi.NoteOnEvent(tick=23, channel=9, data=[38, 0]),
   midi.NoteOnEvent(tick=409, channel=9, data=[38, 127]),
   midi.NoteOnEvent(tick=23, channel=9, data=[38, 0]),
   midi.NoteOnEvent(tick=193, channel=9, data=[38, 127]),
   midi.NoteOnEvent(tick=23, channel=9, data=[38, 0]),
   midi.NoteOnEvent(tick=193, channel=9, data=[38, 127]),
   midi.NoteOnEvent(tick=23, channel=9, data=[38, 0]),
   midi.NoteOnEvent(tick=193, channel=9, data=[38, 127]),
   midi.NoteOnEvent(tick=23, channel=9, data=[38, 0]),
   midi.NoteOnEvent(tick=193, channel=9, data=[38, 127]),
   midi.NoteOnEvent(tick=23, channel=9, data=[38, 0]),
   midi.NoteOnEvent(tick=193, channel=9, data=[38, 127]),
   midi.NoteOnEvent(tick=23, channel=9, data=[38, 0]),
   midi.NoteOnEvent(tick=193, channel=9, data=[38, 127]),
   midi.NoteOnEvent(tick=23, channel=9, data=[38, 0]),
   midi.NoteOnEvent(tick=193, channel=9, data=[38, 127]),
   midi.NoteOnEvent(tick=23, channel=9, data=[38, 0]),
   midi.NoteOnEvent(tick=193, channel=9, data=[38, 127]),
   midi.NoteOnEvent(tick=23, channel=9, data=[38, 0]),
   midi.NoteOnEvent(tick=193, channel=9, data=[38, 127]),
   midi.NoteOnEvent(tick=23, channel=9, data=[38, 0]),
   midi.NoteOnEvent(tick=193, channel=9, data=[38, 127]),
   midi.NoteOnEvent(tick=23, channel=9, data=[38, 0]),
   midi.NoteOnEvent(tick=193, channel=9, data=[38, 127]),
   midi.NoteOnEvent(tick=23, channel=9, data=[38, 0]),
   midi.NoteOnEvent(tick=193, channel=9, data=[38, 127]),
   midi.NoteOnEvent(tick=23, channel=9, data=[38, 0]),
   midi.NoteOnEvent(tick=193, channel=9, data=[38, 127]),
   midi.NoteOnEvent(tick=23, channel=9, data=[38, 0]),
   midi.NoteOnEvent(tick=193, channel=9, data=[38, 127]),
   midi.NoteOnEvent(tick=23, channel=9, data=[38, 0]),
   midi.NoteOnEvent(tick=193, channel=9, data=[38, 127]),
   midi.NoteOnEvent(tick=23, channel=9, data=[38, 0]),
   midi.NoteOnEvent(tick=193, channel=9, data=[38, 127]),
   midi.NoteOnEvent(tick=26, channel=9, data=[38, 0]),
   midi.NoteOnEvent(tick=190, channel=9, data=[38, 127]),
   midi.NoteOnEvent(tick=26, channel=9, data=[38, 0]),
   midi.NoteOnEvent(tick=190, channel=9, data=[38, 127]),
   midi.NoteOnEvent(tick=23, channel=9, data=[38, 0]),
   midi.NoteOnEvent(tick=193, channel=9, data=[38, 127]),
   midi.NoteOnEvent(tick=23, channel=9, data=[38, 0]),
   midi.NoteOnEvent(tick=193, channel=9, data=[38, 127]),
   midi.NoteOnEvent(tick=23, channel=9, data=[38, 0]),
   midi.NoteOnEvent(tick=193, channel=9, data=[38, 127]),
   midi.NoteOnEvent(tick=23, channel=9, data=[38, 0]),
   midi.NoteOnEvent(tick=193, channel=9, data=[38, 127]),
   midi.NoteOnEvent(tick=23, channel=9, data=[38, 0]),
   midi.NoteOnEvent(tick=193, channel=9, data=[38, 127]),
   midi.NoteOnEvent(tick=23, channel=9, data=[38, 0]),
   midi.NoteOnEvent(tick=193, channel=9, data=[38, 127]),
   midi.NoteOnEvent(tick=26, channel=9, data=[38, 0]),
   midi.NoteOnEvent(tick=190, channel=9, data=[38, 127]),
   midi.NoteOnEvent(tick=26, channel=9, data=[38, 0]),
   midi.NoteOnEvent(tick=190, channel=9, data=[38, 127]),
   midi.NoteOnEvent(tick=23, channel=9, data=[38, 0]),
   midi.NoteOnEvent(tick=193, channel=9, data=[38, 127]),
   midi.NoteOnEvent(tick=23, channel=9, data=[38, 0]),
   midi.NoteOnEvent(tick=193, channel=9, data=[38, 127]),
   midi.NoteOnEvent(tick=23, channel=9, data=[38, 0]),
   midi.NoteOnEvent(tick=193, channel=9, data=[38, 127]),
   midi.NoteOnEvent(tick=23, channel=9, data=[38, 0]),
   midi.NoteOnEvent(tick=193, channel=9, data=[38, 127]),
   midi.NoteOnEvent(tick=23, channel=9, data=[38, 0]),
   midi.NoteOnEvent(tick=193, channel=9, data=[38, 127]),
   midi.NoteOnEvent(tick=23, channel=9, data=[38, 0]),
   midi.NoteOnEvent(tick=193, channel=9, data=[38, 127]),
   midi.NoteOnEvent(tick=26, channel=9, data=[38, 0]),
   midi.NoteOnEvent(tick=190, channel=9, data=[38, 127]),
   midi.NoteOnEvent(tick=26, channel=9, data=[38, 0]),
   midi.NoteOnEvent(tick=190, channel=9, data=[38, 127]),
   midi.NoteOnEvent(tick=23, channel=9, data=[38, 0]),
   midi.NoteOnEvent(tick=193, channel=9, data=[38, 127]),
   midi.NoteOnEvent(tick=23, channel=9, data=[38, 0]),
   midi.NoteOnEvent(tick=193, channel=9, data=[38, 127]),
   midi.NoteOnEvent(tick=23, channel=9, data=[38, 0]),
   midi.NoteOnEvent(tick=193, channel=9, data=[38, 127]),
   midi.NoteOnEvent(tick=23, channel=9, data=[38, 0]),
   midi.NoteOnEvent(tick=193, channel=9, data=[38, 127]),
   midi.NoteOnEvent(tick=23, channel=9, data=[38, 0]),
   midi.NoteOnEvent(tick=193, channel=9, data=[38, 127]),
   midi.NoteOnEvent(tick=23, channel=9, data=[38, 0]),
   midi.NoteOnEvent(tick=193, channel=9, data=[38, 127]),
   midi.NoteOnEvent(tick=26, channel=9, data=[38, 0]),
   midi.NoteOnEvent(tick=190, channel=9, data=[38, 127]),
   midi.NoteOnEvent(tick=26, channel=9, data=[38, 0]),
   midi.NoteOnEvent(tick=190, channel=9, data=[38, 127]),
   midi.NoteOnEvent(tick=23, channel=9, data=[38, 0]),
   midi.NoteOnEvent(tick=85, channel=9, data=[38, 127]),
   midi.NoteOnEvent(tick=23, channel=9, data=[38, 0]),
   midi.NoteOnEvent(tick=193, channel=9, data=[38, 127]),
   midi.NoteOnEvent(tick=23, channel=9, data=[38, 0]),
   midi.NoteOnEvent(tick=85, channel=9, data=[38, 127]),
   midi.NoteOnEvent(tick=23, channel=9, data=[38, 0]),
   midi.NoteOnEvent(tick=85, channel=9, data=[38, 127]),
   midi.NoteOnEvent(tick=23, channel=9, data=[38, 0]),
   midi.NoteOnEvent(tick=31, channel=9, data=[38, 127]),
   midi.NoteOnEvent(tick=23, channel=9, data=[38, 0]),
   midi.NoteOnEvent(tick=31, channel=9, data=[38, 127]),
   midi.NoteOnEvent(tick=23, channel=9, data=[38, 0]),
   midi.NoteOnEvent(tick=85, channel=9, data=[38, 127]),
   midi.NoteOnEvent(tick=23, channel=9, data=[38, 0]),
   midi.NoteOnEvent(tick=85, channel=9, data=[38, 127]),
   midi.NoteOnEvent(tick=23, channel=9, data=[38, 0]),
   midi.NoteOnEvent(tick=625, channel=9, data=[38, 127]),
   midi.NoteOnEvent(tick=23, channel=9, data=[38, 0]),
   midi.NoteOnEvent(tick=193, channel=9, data=[38, 127]),
   midi.NoteOnEvent(tick=23, channel=9, data=[38, 0]),
   midi.NoteOnEvent(tick=193, channel=9, data=[38, 127]),
   midi.NoteOnEvent(tick=23, channel=9, data=[38, 0]),
   midi.NoteOnEvent(tick=193, channel=9, data=[38, 127]),
   midi.NoteOnEvent(tick=23, channel=9, data=[38, 0]),
   midi.NoteOnEvent(tick=193, channel=9, data=[38, 127]),
   midi.NoteOnEvent(tick=23, channel=9, data=[38, 0]),
   midi.NoteOnEvent(tick=193, channel=9, data=[38, 127]),
   midi.NoteOnEvent(tick=23, channel=9, data=[38, 0]),
   midi.NoteOnEvent(tick=193, channel=9, data=[38, 127]),
   midi.NoteOnEvent(tick=23, channel=9, data=[38, 0]),
   midi.NoteOnEvent(tick=193, channel=9, data=[38, 127]),
   midi.NoteOnEvent(tick=23, channel=9, data=[38, 0]),
   midi.NoteOnEvent(tick=193, channel=9, data=[38, 127]),
   midi.NoteOnEvent(tick=23, channel=9, data=[38, 0]),
   midi.NoteOnEvent(tick=193, channel=9, data=[38, 127]),
   midi.NoteOnEvent(tick=23, channel=9, data=[38, 0]),
   midi.NoteOnEvent(tick=193, channel=9, data=[38, 127]),
   midi.NoteOnEvent(tick=23, channel=9, data=[38, 0]),
   midi.NoteOnEvent(tick=193, channel=9, data=[38, 127]),
   midi.NoteOnEvent(tick=23, channel=9, data=[38, 0]),
   midi.NoteOnEvent(tick=193, channel=9, data=[38, 127]),
   midi.NoteOnEvent(tick=23, channel=9, data=[38, 0]),
   midi.NoteOnEvent(tick=193, channel=9, data=[38, 127]),
   midi.NoteOnEvent(tick=23, channel=9, data=[38, 0]),
   midi.NoteOnEvent(tick=193, channel=9, data=[38, 127]),
   midi.NoteOnEvent(tick=23, channel=9, data=[38, 0]),
   midi.NoteOnEvent(tick=193, channel=9, data=[38, 127]),
   midi.NoteOnEvent(tick=23, channel=9, data=[38, 0]),
   midi.NoteOnEvent(tick=193, channel=9, data=[38, 127]),
   midi.NoteOnEvent(tick=23, channel=9, data=[38, 0]),
   midi.NoteOnEvent(tick=193, channel=9, data=[38, 127]),
   midi.NoteOnEvent(tick=23, channel=9, data=[38, 0]),
   midi.NoteOnEvent(tick=193, channel=9, data=[38, 127]),
   midi.NoteOnEvent(tick=23, channel=9, data=[38, 0]),
   midi.NoteOnEvent(tick=193, channel=9, data=[38, 127]),
   midi.NoteOnEvent(tick=23, channel=9, data=[38, 0]),
   midi.NoteOnEvent(tick=193, channel=9, data=[38, 127]),
   midi.NoteOnEvent(tick=23, channel=9, data=[38, 0]),
   midi.NoteOnEvent(tick=193, channel=9, data=[38, 127]),
   midi.NoteOnEvent(tick=23, channel=9, data=[38, 0]),
   midi.NoteOnEvent(tick=193, channel=9, data=[38, 127]),
   midi.NoteOnEvent(tick=23, channel=9, data=[38, 0]),
   midi.NoteOnEvent(tick=193, channel=9, data=[38, 127]),
   midi.NoteOnEvent(tick=23, channel=9, data=[38, 0]),
   midi.NoteOnEvent(tick=193, channel=9, data=[38, 127]),
   midi.NoteOnEvent(tick=23, channel=9, data=[38, 0]),
   midi.NoteOnEvent(tick=193, channel=9, data=[38, 127]),
   midi.NoteOnEvent(tick=23, channel=9, data=[38, 0]),
   midi.NoteOnEvent(tick=193, channel=9, data=[38, 127]),
   midi.NoteOnEvent(tick=23, channel=9, data=[38, 0]),
   midi.NoteOnEvent(tick=193, channel=9, data=[38, 127]),
   midi.NoteOnEvent(tick=23, channel=9, data=[38, 0]),
   midi.NoteOnEvent(tick=1165, channel=9, data=[38, 127]),
   midi.NoteOnEvent(tick=23, channel=9, data=[38, 0]),
   midi.NoteOnEvent(tick=409, channel=9, data=[38, 127]),
   midi.NoteOnEvent(tick=23, channel=9, data=[38, 0]),
   midi.NoteOnEvent(tick=409, channel=9, data=[38, 127]),
   midi.NoteOnEvent(tick=23, channel=9, data=[38, 0]),
   midi.NoteOnEvent(tick=409, channel=9, data=[38, 127]),
   midi.NoteOnEvent(tick=23, channel=9, data=[38, 0]),
   midi.NoteOnEvent(tick=409, channel=9, data=[38, 127]),
   midi.NoteOnEvent(tick=23, channel=9, data=[38, 0]),
   midi.NoteOnEvent(tick=733, channel=9, data=[38, 127]),
   midi.NoteOnEvent(tick=23, channel=9, data=[38, 0]),
   midi.NoteOnEvent(tick=193, channel=9, data=[38, 127]),
   midi.NoteOnEvent(tick=23, channel=9, data=[38, 0]),
   midi.NoteOnEvent(tick=193, channel=9, data=[38, 127]),
   midi.NoteOnEvent(tick=23, channel=9, data=[38, 0]),
   midi.NoteOnEvent(tick=193, channel=9, data=[38, 127]),
   midi.NoteOnEvent(tick=23, channel=9, data=[38, 0]),
   midi.NoteOnEvent(tick=193, channel=9, data=[38, 127]),
   midi.NoteOnEvent(tick=23, channel=9, data=[38, 0]),
   midi.NoteOnEvent(tick=193, channel=9, data=[38, 127]),
   midi.NoteOnEvent(tick=23, channel=9, data=[38, 0]),
   midi.NoteOnEvent(tick=193, channel=9, data=[38, 127]),
   midi.NoteOnEvent(tick=23, channel=9, data=[38, 0]),
   midi.NoteOnEvent(tick=193, channel=9, data=[38, 127]),
   midi.NoteOnEvent(tick=23, channel=9, data=[38, 0]),
   midi.NoteOnEvent(tick=193, channel=9, data=[38, 127]),
   midi.NoteOnEvent(tick=23, channel=9, data=[38, 0]),
   midi.NoteOnEvent(tick=193, channel=9, data=[38, 127]),
   midi.NoteOnEvent(tick=23, channel=9, data=[38, 0]),
   midi.NoteOnEvent(tick=193, channel=9, data=[38, 127]),
   midi.NoteOnEvent(tick=23, channel=9, data=[38, 0]),
   midi.NoteOnEvent(tick=193, channel=9, data=[38, 127]),
   midi.NoteOnEvent(tick=23, channel=9, data=[38, 0]),
   midi.NoteOnEvent(tick=1165, channel=9, data=[38, 127]),
   midi.NoteOnEvent(tick=23, channel=9, data=[38, 0]),
   midi.NoteOnEvent(tick=409, channel=9, data=[38, 127]),
   midi.NoteOnEvent(tick=23, channel=9, data=[38, 0]),
   midi.NoteOnEvent(tick=409, channel=9, data=[38, 127]),
   midi.NoteOnEvent(tick=23, channel=9, data=[38, 0]),
   midi.NoteOnEvent(tick=409, channel=9, data=[38, 127]),
   midi.NoteOnEvent(tick=23, channel=9, data=[38, 0]),
   midi.NoteOnEvent(tick=409, channel=9, data=[38, 127]),
   midi.NoteOnEvent(tick=23, channel=9, data=[38, 0]),
   midi.NoteOnEvent(tick=733, channel=9, data=[38, 127]),
   midi.NoteOnEvent(tick=23, channel=9, data=[38, 0]),
   midi.NoteOnEvent(tick=193, channel=9, data=[38, 127]),
   midi.NoteOnEvent(tick=23, channel=9, data=[38, 0]),
   midi.NoteOnEvent(tick=193, channel=9, data=[38, 127]),
   midi.NoteOnEvent(tick=23, channel=9, data=[38, 0]),
   midi.NoteOnEvent(tick=193, channel=9, data=[38, 127]),
   midi.NoteOnEvent(tick=23, channel=9, data=[38, 0]),
   midi.NoteOnEvent(tick=193, channel=9, data=[38, 127]),
   midi.NoteOnEvent(tick=23, channel=9, data=[38, 0]),
   midi.NoteOnEvent(tick=193, channel=9, data=[38, 127]),
   midi.NoteOnEvent(tick=23, channel=9, data=[38, 0]),
   midi.NoteOnEvent(tick=193, channel=9, data=[38, 127]),
   midi.NoteOnEvent(tick=23, channel=9, data=[38, 0]),
   midi.NoteOnEvent(tick=193, channel=9, data=[38, 127]),
   midi.NoteOnEvent(tick=23, channel=9, data=[38, 0]),
   midi.NoteOnEvent(tick=1921, channel=9, data=[38, 127]),
   midi.NoteOnEvent(tick=23, channel=9, data=[38, 0]),
   midi.NoteOnEvent(tick=193, channel=9, data=[38, 127]),
   midi.NoteOnEvent(tick=23, channel=9, data=[38, 0]),
   midi.NoteOnEvent(tick=193, channel=9, data=[38, 127]),
   midi.NoteOnEvent(tick=23, channel=9, data=[38, 0]),
   midi.NoteOnEvent(tick=193, channel=9, data=[38, 127]),
   midi.NoteOnEvent(tick=23, channel=9, data=[38, 0]),
   midi.NoteOnEvent(tick=193, channel=9, data=[38, 127]),
   midi.NoteOnEvent(tick=23, channel=9, data=[38, 0]),
   midi.NoteOnEvent(tick=193, channel=9, data=[38, 127]),
   midi.NoteOnEvent(tick=23, channel=9, data=[38, 0]),
   midi.NoteOnEvent(tick=193, channel=9, data=[38, 127]),
   midi.NoteOnEvent(tick=23, channel=9, data=[38, 0]),
   midi.NoteOnEvent(tick=193, channel=9, data=[38, 127]),
   midi.NoteOnEvent(tick=23, channel=9, data=[38, 0]),
   midi.NoteOnEvent(tick=193, channel=9, data=[38, 127]),
   midi.NoteOnEvent(tick=23, channel=9, data=[38, 0]),
   midi.NoteOnEvent(tick=193, channel=9, data=[38, 127]),
   midi.NoteOnEvent(tick=23, channel=9, data=[38, 0]),
   midi.NoteOnEvent(tick=193, channel=9, data=[38, 127]),
   midi.NoteOnEvent(tick=23, channel=9, data=[38, 0]),
   midi.NoteOnEvent(tick=193, channel=9, data=[38, 127]),
   midi.NoteOnEvent(tick=23, channel=9, data=[38, 0]),
   midi.NoteOnEvent(tick=85, channel=9, data=[38, 127]),
   midi.NoteOnEvent(tick=23, channel=9, data=[38, 0]),
   midi.NoteOnEvent(tick=85, channel=9, data=[38, 127]),
   midi.NoteOnEvent(tick=23, channel=9, data=[38, 0]),
   midi.NoteOnEvent(tick=193, channel=9, data=[38, 127]),
   midi.NoteOnEvent(tick=23, channel=9, data=[38, 0]),
   midi.NoteOnEvent(tick=193, channel=9, data=[38, 127]),
   midi.NoteOnEvent(tick=23, channel=9, data=[38, 0]),
   midi.NoteOnEvent(tick=193, channel=9, data=[38, 127]),
   midi.NoteOnEvent(tick=23, channel=9, data=[38, 0]),
   midi.NoteOnEvent(tick=193, channel=9, data=[38, 127]),
   midi.NoteOnEvent(tick=23, channel=9, data=[38, 0]),
   midi.NoteOnEvent(tick=193, channel=9, data=[38, 127]),
   midi.NoteOnEvent(tick=23, channel=9, data=[38, 0]),
   midi.NoteOnEvent(tick=193, channel=9, data=[38, 127]),
   midi.NoteOnEvent(tick=23, channel=9, data=[38, 0]),
   midi.NoteOnEvent(tick=193, channel=9, data=[38, 127]),
   midi.NoteOnEvent(tick=23, channel=9, data=[38, 0]),
   midi.NoteOnEvent(tick=193, channel=9, data=[38, 127]),
   midi.NoteOnEvent(tick=23, channel=9, data=[38, 0]),
   midi.NoteOnEvent(tick=193, channel=9, data=[38, 127]),
   midi.NoteOnEvent(tick=23, channel=9, data=[38, 0]),
   midi.NoteOnEvent(tick=193, channel=9, data=[38, 127]),
   midi.NoteOnEvent(tick=23, channel=9, data=[38, 0]),
   midi.NoteOnEvent(tick=31, channel=9, data=[38, 127]),
   midi.NoteOnEvent(tick=23, channel=9, data=[38, 0]),
   midi.NoteOnEvent(tick=31, channel=9, data=[38, 127]),
   midi.NoteOnEvent(tick=23, channel=9, data=[38, 0]),
   midi.NoteOnEvent(tick=85, channel=9, data=[38, 127]),
   midi.NoteOnEvent(tick=23, channel=9, data=[38, 0]),
   midi.NoteOnEvent(tick=85, channel=9, data=[38, 127]),
   midi.NoteOnEvent(tick=23, channel=9, data=[38, 0]),
   midi.NoteOnEvent(tick=85, channel=9, data=[38, 127]),
   midi.NoteOnEvent(tick=23, channel=9, data=[38, 0]),
   midi.NoteOnEvent(tick=625, channel=9, data=[38, 127]),
   midi.NoteOnEvent(tick=23, channel=9, data=[38, 0]),
   midi.NoteOnEvent(tick=193, channel=9, data=[38, 127]),
   midi.NoteOnEvent(tick=23, channel=9, data=[38, 0]),
   midi.NoteOnEvent(tick=193, channel=9, data=[38, 127]),
   midi.NoteOnEvent(tick=23, channel=9, data=[38, 0]),
   midi.NoteOnEvent(tick=193, channel=9, data=[38, 127]),
   midi.NoteOnEvent(tick=23, channel=9, data=[38, 0]),
   midi.NoteOnEvent(tick=193, channel=9, data=[38, 127]),
   midi.NoteOnEvent(tick=23, channel=9, data=[38, 0]),
   midi.NoteOnEvent(tick=193, channel=9, data=[38, 127]),
   midi.NoteOnEvent(tick=23, channel=9, data=[38, 0]),
   midi.NoteOnEvent(tick=193, channel=9, data=[38, 127]),
   midi.NoteOnEvent(tick=23, channel=9, data=[38, 0]),
   midi.NoteOnEvent(tick=193, channel=9, data=[38, 127]),
   midi.NoteOnEvent(tick=23, channel=9, data=[38, 0]),
   midi.NoteOnEvent(tick=193, channel=9, data=[38, 127]),
   midi.NoteOnEvent(tick=23, channel=9, data=[38, 0]),
   midi.NoteOnEvent(tick=193, channel=9, data=[38, 127]),
   midi.NoteOnEvent(tick=23, channel=9, data=[38, 0]),
   midi.NoteOnEvent(tick=193, channel=9, data=[38, 127]),
   midi.NoteOnEvent(tick=23, channel=9, data=[38, 0]),
   midi.NoteOnEvent(tick=193, channel=9, data=[38, 127]),
   midi.NoteOnEvent(tick=23, channel=9, data=[38, 0]),
   midi.NoteOnEvent(tick=85, channel=9, data=[38, 127]),
   midi.NoteOnEvent(tick=23, channel=9, data=[38, 0]),
   midi.NoteOnEvent(tick=85, channel=9, data=[38, 127]),
   midi.NoteOnEvent(tick=23, channel=9, data=[38, 0]),
   midi.NoteOnEvent(tick=193, channel=9, data=[38, 127]),
   midi.NoteOnEvent(tick=23, channel=9, data=[38, 0]),
   midi.NoteOnEvent(tick=193, channel=9, data=[38, 127]),
   midi.NoteOnEvent(tick=23, channel=9, data=[38, 0]),
   midi.NoteOnEvent(tick=193, channel=9, data=[38, 127]),
   midi.NoteOnEvent(tick=23, channel=9, data=[38, 0]),
   midi.NoteOnEvent(tick=193, channel=9, data=[38, 127]),
   midi.NoteOnEvent(tick=23, channel=9, data=[38, 0]),
   midi.NoteOnEvent(tick=193, channel=9, data=[38, 127]),
   midi.NoteOnEvent(tick=23, channel=9, data=[38, 0]),
   midi.NoteOnEvent(tick=193, channel=9, data=[38, 127]),
   midi.NoteOnEvent(tick=23, channel=9, data=[38, 0]),
   midi.NoteOnEvent(tick=193, channel=9, data=[38, 127]),
   midi.NoteOnEvent(tick=23, channel=9, data=[38, 0]),
   midi.NoteOnEvent(tick=193, channel=9, data=[38, 127]),
   midi.NoteOnEvent(tick=23, channel=9, data=[38, 0]),
   midi.NoteOnEvent(tick=193, channel=9, data=[38, 127]),
   midi.NoteOnEvent(tick=23, channel=9, data=[38, 0]),
   midi.NoteOnEvent(tick=193, channel=9, data=[38, 127]),
   midi.NoteOnEvent(tick=23, channel=9, data=[38, 0]),
   midi.NoteOnEvent(tick=193, channel=9, data=[38, 127]),
   midi.NoteOnEvent(tick=23, channel=9, data=[38, 0]),
   midi.NoteOnEvent(tick=193, channel=9, data=[38, 127]),
   midi.NoteOnEvent(tick=23, channel=9, data=[38, 0]),
   midi.NoteOnEvent(tick=949, channel=9, data=[38, 127]),
   midi.NoteOnEvent(tick=23, channel=9, data=[38, 0]),
   midi.NoteOnEvent(tick=193, channel=9, data=[38, 127]),
   midi.NoteOnEvent(tick=23, channel=9, data=[38, 0]),
   midi.NoteOnEvent(tick=193, channel=9, data=[38, 127]),
   midi.NoteOnEvent(tick=23, channel=9, data=[38, 0]),
   midi.NoteOnEvent(tick=193, channel=9, data=[38, 127]),
   midi.NoteOnEvent(tick=23, channel=9, data=[38, 0]),
   midi.NoteOnEvent(tick=193, channel=9, data=[38, 127]),
   midi.NoteOnEvent(tick=23, channel=9, data=[38, 0]),
   midi.NoteOnEvent(tick=193, channel=9, data=[38, 127]),
   midi.NoteOnEvent(tick=23, channel=9, data=[38, 0]),
   midi.NoteOnEvent(tick=193, channel=9, data=[38, 127]),
   midi.NoteOnEvent(tick=23, channel=9, data=[38, 0]),
   midi.NoteOnEvent(tick=193, channel=9, data=[38, 127]),
   midi.NoteOnEvent(tick=23, channel=9, data=[38, 0]),
   midi.NoteOnEvent(tick=193, channel=9, data=[38, 127]),
   midi.NoteOnEvent(tick=23, channel=9, data=[38, 0]),
   midi.NoteOnEvent(tick=193, channel=9, data=[38, 127]),
   midi.NoteOnEvent(tick=23, channel=9, data=[38, 0]),
   midi.NoteOnEvent(tick=193, channel=9, data=[38, 127]),
   midi.NoteOnEvent(tick=23, channel=9, data=[38, 0]),
   midi.NoteOnEvent(tick=193, channel=9, data=[38, 127]),
   midi.NoteOnEvent(tick=23, channel=9, data=[38, 0]),
   midi.NoteOnEvent(tick=193, channel=9, data=[38, 127]),
   midi.NoteOnEvent(tick=23, channel=9, data=[38, 0]),
   midi.NoteOnEvent(tick=193, channel=9, data=[38, 127]),
   midi.NoteOnEvent(tick=23, channel=9, data=[38, 0]),
   midi.NoteOnEvent(tick=193, channel=9, data=[38, 127]),
   midi.NoteOnEvent(tick=23, channel=9, data=[38, 0]),
   midi.NoteOnEvent(tick=193, channel=9, data=[38, 127]),
   midi.NoteOnEvent(tick=23, channel=9, data=[38, 0]),
   midi.NoteOnEvent(tick=193, channel=9, data=[38, 127]),
   midi.NoteOnEvent(tick=23, channel=9, data=[38, 0]),
   midi.NoteOnEvent(tick=193, channel=9, data=[38, 127]),
   midi.NoteOnEvent(tick=23, channel=9, data=[38, 0]),
   midi.NoteOnEvent(tick=193, channel=9, data=[38, 127]),
   midi.NoteOnEvent(tick=23, channel=9, data=[38, 0]),
   midi.NoteOnEvent(tick=193, channel=9, data=[38, 127]),
   midi.NoteOnEvent(tick=23, channel=9, data=[38, 0]),
   midi.NoteOnEvent(tick=193, channel=9, data=[38, 127]),
   midi.NoteOnEvent(tick=23, channel=9, data=[38, 0]),
   midi.NoteOnEvent(tick=193, channel=9, data=[38, 127]),
   midi.NoteOnEvent(tick=23, channel=9, data=[38, 0]),
   midi.NoteOnEvent(tick=193, channel=9, data=[38, 127]),
   midi.NoteOnEvent(tick=23, channel=9, data=[38, 0]),
   midi.NoteOnEvent(tick=193, channel=9, data=[38, 127]),
   midi.NoteOnEvent(tick=23, channel=9, data=[38, 0]),
   midi.NoteOnEvent(tick=193, channel=9, data=[38, 127]),
   midi.NoteOnEvent(tick=23, channel=9, data=[38, 0]),
   midi.NoteOnEvent(tick=193, channel=9, data=[38, 127]),
   midi.NoteOnEvent(tick=23, channel=9, data=[38, 0]),
   midi.NoteOnEvent(tick=193, channel=9, data=[38, 127]),
   midi.NoteOnEvent(tick=23, channel=9, data=[38, 0]),
   midi.NoteOnEvent(tick=193, channel=9, data=[38, 127]),
   midi.NoteOnEvent(tick=23, channel=9, data=[38, 0]),
   midi.NoteOnEvent(tick=193, channel=9, data=[38, 127]),
   midi.NoteOnEvent(tick=23, channel=9, data=[38, 0]),
   midi.NoteOnEvent(tick=85, channel=9, data=[38, 127]),
   midi.NoteOnEvent(tick=23, channel=9, data=[38, 0]),
   midi.NoteOnEvent(tick=31, channel=9, data=[38, 127]),
   midi.NoteOnEvent(tick=23, channel=9, data=[38, 0]),
   midi.NoteOnEvent(tick=31, channel=9, data=[38, 127]),
   midi.NoteOnEvent(tick=23, channel=9, data=[38, 0]),
   midi.NoteOnEvent(tick=85, channel=9, data=[38, 127]),
   midi.NoteOnEvent(tick=23, channel=9, data=[38, 0]),
   midi.NoteOnEvent(tick=85, channel=9, data=[38, 127]),
   midi.NoteOnEvent(tick=23, channel=9, data=[38, 0]),
   midi.NoteOnEvent(tick=85, channel=9, data=[38, 127]),
   midi.NoteOnEvent(tick=23, channel=9, data=[38, 0]),
   midi.NoteOnEvent(tick=85, channel=9, data=[38, 127]),
   midi.NoteOnEvent(tick=23, channel=9, data=[38, 0]),
   midi.NoteOnEvent(tick=85, channel=9, data=[38, 127]),
   midi.NoteOnEvent(tick=23, channel=9, data=[38, 0]),
   midi.NoteOnEvent(tick=193, channel=9, data=[38, 127]),
   midi.NoteOnEvent(tick=23, channel=9, data=[38, 0]),
   midi.NoteOnEvent(tick=193, channel=9, data=[38, 127]),
   midi.NoteOnEvent(tick=23, channel=9, data=[38, 0]),
   midi.NoteOnEvent(tick=193, channel=9, data=[38, 127]),
   midi.NoteOnEvent(tick=23, channel=9, data=[38, 0]),
   midi.NoteOnEvent(tick=193, channel=9, data=[38, 127]),
   midi.NoteOnEvent(tick=23, channel=9, data=[38, 0]),
   midi.NoteOnEvent(tick=193, channel=9, data=[38, 127]),
   midi.NoteOnEvent(tick=23, channel=9, data=[38, 0]),
   midi.NoteOnEvent(tick=193, channel=9, data=[38, 127]),
   midi.NoteOnEvent(tick=23, channel=9, data=[38, 0]),
   midi.NoteOnEvent(tick=193, channel=9, data=[38, 127]),
   midi.NoteOnEvent(tick=23, channel=9, data=[38, 0]),
   midi.NoteOnEvent(tick=193, channel=9, data=[38, 127]),
   midi.NoteOnEvent(tick=23, channel=9, data=[38, 0]),
   midi.NoteOnEvent(tick=193, channel=9, data=[38, 127]),
   midi.NoteOnEvent(tick=23, channel=9, data=[38, 0]),
   midi.NoteOnEvent(tick=193, channel=9, data=[38, 127]),
   midi.NoteOnEvent(tick=23, channel=9, data=[38, 0]),
   midi.NoteOnEvent(tick=193, channel=9, data=[38, 127]),
   midi.NoteOnEvent(tick=23, channel=9, data=[38, 0]),
   midi.NoteOnEvent(tick=193, channel=9, data=[38, 127]),
   midi.NoteOnEvent(tick=23, channel=9, data=[38, 0]),
   midi.NoteOnEvent(tick=193, channel=9, data=[38, 127]),
   midi.NoteOnEvent(tick=23, channel=9, data=[38, 0]),
   midi.NoteOnEvent(tick=193, channel=9, data=[38, 127]),
   midi.NoteOnEvent(tick=23, channel=9, data=[38, 0]),
   midi.NoteOnEvent(tick=193, channel=9, data=[38, 127]),
   midi.NoteOnEvent(tick=23, channel=9, data=[38, 0]),
   midi.NoteOnEvent(tick=193, channel=9, data=[38, 127]),
   midi.NoteOnEvent(tick=23, channel=9, data=[38, 0]),
   midi.NoteOnEvent(tick=193, channel=9, data=[38, 127]),
   midi.NoteOnEvent(tick=23, channel=9, data=[38, 0]),
   midi.NoteOnEvent(tick=193, channel=9, data=[38, 127]),
   midi.NoteOnEvent(tick=23, channel=9, data=[38, 0]),
   midi.NoteOnEvent(tick=193, channel=9, data=[38, 127]),
   midi.NoteOnEvent(tick=23, channel=9, data=[38, 0]),
   midi.NoteOnEvent(tick=193, channel=9, data=[38, 127]),
   midi.NoteOnEvent(tick=23, channel=9, data=[38, 0]),
   midi.NoteOnEvent(tick=193, channel=9, data=[38, 127]),
   midi.NoteOnEvent(tick=23, channel=9, data=[38, 0]),
   midi.NoteOnEvent(tick=193, channel=9, data=[38, 127]),
   midi.NoteOnEvent(tick=23, channel=9, data=[38, 0]),
   midi.NoteOnEvent(tick=193, channel=9, data=[38, 127]),
   midi.NoteOnEvent(tick=23, channel=9, data=[38, 0]),
   midi.NoteOnEvent(tick=193, channel=9, data=[38, 127]),
   midi.NoteOnEvent(tick=23, channel=9, data=[38, 0]),
   midi.NoteOnEvent(tick=193, channel=9, data=[38, 127]),
   midi.NoteOnEvent(tick=23, channel=9, data=[38, 0]),
   midi.NoteOnEvent(tick=193, channel=9, data=[38, 127]),
   midi.NoteOnEvent(tick=23, channel=9, data=[38, 0]),
   midi.NoteOnEvent(tick=193, channel=9, data=[38, 127]),
   midi.NoteOnEvent(tick=23, channel=9, data=[38, 0]),
   midi.NoteOnEvent(tick=193, channel=9, data=[38, 127]),
   midi.NoteOnEvent(tick=23, channel=9, data=[38, 0]),
   midi.NoteOnEvent(tick=1813, channel=9, data=[38, 127]),
   midi.NoteOnEvent(tick=18, channel=9, data=[38, 127]),
   midi.NoteOnEvent(tick=7, channel=9, data=[38, 0]),
   midi.NoteOnEvent(tick=18, channel=9, data=[38, 0]),
   midi.NoteOnEvent(tick=713, channel=9, data=[38, 127]),
   midi.NoteOnEvent(tick=18, channel=9, data=[38, 127]),
   midi.NoteOnEvent(tick=7, channel=9, data=[38, 0]),
   midi.NoteOnEvent(tick=18, channel=9, data=[38, 0]),
   midi.EndOfTrackEvent(tick=0, data=[])]),
 midi.Track(\
  [midi.PortEvent(tick=0, data=[0]),
   midi.TrackNameEvent(tick=0, text='hihat', data=[104, 105, 104, 97, 116]),
   midi.ControlChangeEvent(tick=0, channel=9, data=[1, 0]),
   midi.PitchWheelEvent(tick=0, channel=9, data=[0, 64]),
   midi.ControlChangeEvent(tick=0, channel=9, data=[11, 100]),
   midi.NoteOnEvent(tick=25218, channel=9, data=[46, 80]),
   midi.NoteOnEvent(tick=108, channel=9, data=[46, 0]),
   midi.NoteOnEvent(tick=108, channel=9, data=[46, 80]),
   midi.NoteOnEvent(tick=108, channel=9, data=[46, 0]),
   midi.NoteOnEvent(tick=108, channel=9, data=[46, 80]),
   midi.NoteOnEvent(tick=108, channel=9, data=[46, 0]),
   midi.NoteOnEvent(tick=378, channel=9, data=[46, 80]),
   midi.NoteOnEvent(tick=108, channel=9, data=[46, 0]),
   midi.NoteOnEvent(tick=0, channel=9, data=[46, 80]),
   midi.NoteOnEvent(tick=108, channel=9, data=[46, 0]),
   midi.NoteOnEvent(tick=0, channel=9, data=[46, 80]),
   midi.NoteOnEvent(tick=108, channel=9, data=[46, 0]),
   midi.NoteOnEvent(tick=0, channel=9, data=[46, 80]),
   midi.NoteOnEvent(tick=108, channel=9, data=[46, 0]),
   midi.NoteOnEvent(tick=0, channel=9, data=[46, 80]),
   midi.NoteOnEvent(tick=108, channel=9, data=[46, 0]),
   midi.NoteOnEvent(tick=0, channel=9, data=[46, 80]),
   midi.NoteOnEvent(tick=108, channel=9, data=[46, 0]),
   midi.NoteOnEvent(tick=0, channel=9, data=[46, 80]),
   midi.NoteOnEvent(tick=108, channel=9, data=[46, 0]),
   midi.NoteOnEvent(tick=0, channel=9, data=[46, 80]),
   midi.NoteOnEvent(tick=108, channel=9, data=[46, 0]),
   midi.NoteOnEvent(tick=0, channel=9, data=[46, 80]),
   midi.NoteOnEvent(tick=108, channel=9, data=[46, 0]),
   midi.NoteOnEvent(tick=0, channel=9, data=[46, 80]),
   midi.NoteOnEvent(tick=108, channel=9, data=[46, 0]),
   midi.NoteOnEvent(tick=0, channel=9, data=[46, 80]),
   midi.NoteOnEvent(tick=108, channel=9, data=[46, 0]),
   midi.NoteOnEvent(tick=0, channel=9, data=[46, 80]),
   midi.NoteOnEvent(tick=108, channel=9, data=[46, 0]),
   midi.NoteOnEvent(tick=0, channel=9, data=[46, 80]),
   midi.NoteOnEvent(tick=108, channel=9, data=[46, 0]),
   midi.NoteOnEvent(tick=0, channel=9, data=[46, 80]),
   midi.NoteOnEvent(tick=108, channel=9, data=[46, 0]),
   midi.NoteOnEvent(tick=0, channel=9, data=[46, 80]),
   midi.NoteOnEvent(tick=108, channel=9, data=[46, 0]),
   midi.NoteOnEvent(tick=0, channel=9, data=[46, 80]),
   midi.NoteOnEvent(tick=108, channel=9, data=[46, 0]),
   midi.NoteOnEvent(tick=0, channel=9, data=[46, 80]),
   midi.NoteOnEvent(tick=108, channel=9, data=[46, 0]),
   midi.NoteOnEvent(tick=0, channel=9, data=[46, 80]),
   midi.NoteOnEvent(tick=108, channel=9, data=[46, 0]),
   midi.NoteOnEvent(tick=0, channel=9, data=[46, 80]),
   midi.NoteOnEvent(tick=108, channel=9, data=[46, 0]),
   midi.NoteOnEvent(tick=0, channel=9, data=[46, 80]),
   midi.NoteOnEvent(tick=108, channel=9, data=[46, 0]),
   midi.NoteOnEvent(tick=0, channel=9, data=[46, 80]),
   midi.NoteOnEvent(tick=108, channel=9, data=[46, 0]),
   midi.NoteOnEvent(tick=0, channel=9, data=[46, 80]),
   midi.NoteOnEvent(tick=108, channel=9, data=[46, 0]),
   midi.NoteOnEvent(tick=0, channel=9, data=[46, 80]),
   midi.NoteOnEvent(tick=108, channel=9, data=[46, 0]),
   midi.NoteOnEvent(tick=0, channel=9, data=[46, 80]),
   midi.NoteOnEvent(tick=108, channel=9, data=[46, 0]),
   midi.NoteOnEvent(tick=0, channel=9, data=[46, 80]),
   midi.NoteOnEvent(tick=108, channel=9, data=[46, 0]),
   midi.NoteOnEvent(tick=0, channel=9, data=[46, 80]),
   midi.NoteOnEvent(tick=108, channel=9, data=[46, 0]),
   midi.NoteOnEvent(tick=0, channel=9, data=[46, 80]),
   midi.NoteOnEvent(tick=108, channel=9, data=[46, 0]),
   midi.NoteOnEvent(tick=0, channel=9, data=[46, 80]),
   midi.NoteOnEvent(tick=108, channel=9, data=[46, 0]),
   midi.NoteOnEvent(tick=0, channel=9, data=[46, 80]),
   midi.NoteOnEvent(tick=108, channel=9, data=[46, 0]),
   midi.NoteOnEvent(tick=0, channel=9, data=[46, 80]),
   midi.NoteOnEvent(tick=108, channel=9, data=[46, 0]),
   midi.NoteOnEvent(tick=0, channel=9, data=[46, 80]),
   midi.NoteOnEvent(tick=108, channel=9, data=[46, 0]),
   midi.NoteOnEvent(tick=432, channel=9, data=[46, 80]),
   midi.NoteOnEvent(tick=108, channel=9, data=[46, 0]),
   midi.NoteOnEvent(tick=0, channel=9, data=[46, 80]),
   midi.NoteOnEvent(tick=108, channel=9, data=[46, 0]),
   midi.NoteOnEvent(tick=0, channel=9, data=[46, 80]),
   midi.NoteOnEvent(tick=108, channel=9, data=[46, 0]),
   midi.NoteOnEvent(tick=0, channel=9, data=[46, 80]),
   midi.NoteOnEvent(tick=108, channel=9, data=[46, 0]),
   midi.NoteOnEvent(tick=0, channel=9, data=[46, 80]),
   midi.NoteOnEvent(tick=108, channel=9, data=[46, 0]),
   midi.NoteOnEvent(tick=0, channel=9, data=[46, 80]),
   midi.NoteOnEvent(tick=108, channel=9, data=[46, 0]),
   midi.NoteOnEvent(tick=0, channel=9, data=[46, 80]),
   midi.NoteOnEvent(tick=108, channel=9, data=[46, 0]),
   midi.NoteOnEvent(tick=0, channel=9, data=[46, 80]),
   midi.NoteOnEvent(tick=108, channel=9, data=[46, 0]),
   midi.NoteOnEvent(tick=0, channel=9, data=[46, 80]),
   midi.NoteOnEvent(tick=108, channel=9, data=[46, 0]),
   midi.NoteOnEvent(tick=0, channel=9, data=[46, 80]),
   midi.NoteOnEvent(tick=108, channel=9, data=[46, 0]),
   midi.NoteOnEvent(tick=0, channel=9, data=[46, 80]),
   midi.NoteOnEvent(tick=108, channel=9, data=[46, 0]),
   midi.NoteOnEvent(tick=0, channel=9, data=[46, 80]),
   midi.NoteOnEvent(tick=108, channel=9, data=[46, 0]),
   midi.NoteOnEvent(tick=0, channel=9, data=[46, 80]),
   midi.NoteOnEvent(tick=108, channel=9, data=[46, 0]),
   midi.NoteOnEvent(tick=0, channel=9, data=[46, 80]),
   midi.NoteOnEvent(tick=108, channel=9, data=[46, 0]),
   midi.NoteOnEvent(tick=0, channel=9, data=[46, 80]),
   midi.NoteOnEvent(tick=108, channel=9, data=[46, 0]),
   midi.NoteOnEvent(tick=0, channel=9, data=[46, 80]),
   midi.NoteOnEvent(tick=108, channel=9, data=[46, 0]),
   midi.NoteOnEvent(tick=0, channel=9, data=[46, 80]),
   midi.NoteOnEvent(tick=108, channel=9, data=[46, 0]),
   midi.NoteOnEvent(tick=0, channel=9, data=[46, 80]),
   midi.NoteOnEvent(tick=108, channel=9, data=[46, 0]),
   midi.NoteOnEvent(tick=0, channel=9, data=[46, 80]),
   midi.NoteOnEvent(tick=108, channel=9, data=[46, 0]),
   midi.NoteOnEvent(tick=108, channel=9, data=[44, 100]),
   midi.NoteOnEvent(tick=108, channel=9, data=[44, 0]),
   midi.NoteOnEvent(tick=108, channel=9, data=[44, 100]),
   midi.NoteOnEvent(tick=108, channel=9, data=[44, 0]),
   midi.NoteOnEvent(tick=108, channel=9, data=[44, 100]),
   midi.NoteOnEvent(tick=108, channel=9, data=[44, 0]),
   midi.NoteOnEvent(tick=432, channel=9, data=[46, 80]),
   midi.NoteOnEvent(tick=108, channel=9, data=[46, 0]),
   midi.NoteOnEvent(tick=0, channel=9, data=[46, 80]),
   midi.NoteOnEvent(tick=108, channel=9, data=[46, 0]),
   midi.NoteOnEvent(tick=0, channel=9, data=[46, 80]),
   midi.NoteOnEvent(tick=108, channel=9, data=[46, 0]),
   midi.NoteOnEvent(tick=0, channel=9, data=[46, 80]),
   midi.NoteOnEvent(tick=108, channel=9, data=[46, 0]),
   midi.NoteOnEvent(tick=0, channel=9, data=[46, 80]),
   midi.NoteOnEvent(tick=108, channel=9, data=[46, 0]),
   midi.NoteOnEvent(tick=0, channel=9, data=[46, 80]),
   midi.NoteOnEvent(tick=108, channel=9, data=[46, 0]),
   midi.NoteOnEvent(tick=216, channel=9, data=[46, 80]),
   midi.NoteOnEvent(tick=108, channel=9, data=[46, 0]),
   midi.NoteOnEvent(tick=0, channel=9, data=[46, 80]),
   midi.NoteOnEvent(tick=108, channel=9, data=[46, 0]),
   midi.NoteOnEvent(tick=0, channel=9, data=[46, 80]),
   midi.NoteOnEvent(tick=108, channel=9, data=[46, 0]),
   midi.NoteOnEvent(tick=0, channel=9, data=[46, 80]),
   midi.NoteOnEvent(tick=108, channel=9, data=[46, 0]),
   midi.NoteOnEvent(tick=0, channel=9, data=[46, 80]),
   midi.NoteOnEvent(tick=108, channel=9, data=[46, 0]),
   midi.NoteOnEvent(tick=0, channel=9, data=[46, 80]),
   midi.NoteOnEvent(tick=108, channel=9, data=[46, 0]),
   midi.NoteOnEvent(tick=216, channel=9, data=[46, 80]),
   midi.NoteOnEvent(tick=108, channel=9, data=[46, 0]),
   midi.NoteOnEvent(tick=540, channel=9, data=[46, 80]),
   midi.NoteOnEvent(tick=108, channel=9, data=[46, 0]),
   midi.NoteOnEvent(tick=0, channel=9, data=[46, 80]),
   midi.NoteOnEvent(tick=108, channel=9, data=[46, 0]),
   midi.NoteOnEvent(tick=0, channel=9, data=[46, 80]),
   midi.NoteOnEvent(tick=108, channel=9, data=[46, 0]),
   midi.NoteOnEvent(tick=0, channel=9, data=[46, 80]),
   midi.NoteOnEvent(tick=108, channel=9, data=[46, 0]),
   midi.NoteOnEvent(tick=0, channel=9, data=[46, 80]),
   midi.NoteOnEvent(tick=108, channel=9, data=[46, 0]),
   midi.NoteOnEvent(tick=0, channel=9, data=[46, 80]),
   midi.NoteOnEvent(tick=108, channel=9, data=[46, 0]),
   midi.NoteOnEvent(tick=0, channel=9, data=[46, 80]),
   midi.NoteOnEvent(tick=108, channel=9, data=[46, 0]),
   midi.NoteOnEvent(tick=0, channel=9, data=[46, 80]),
   midi.NoteOnEvent(tick=108, channel=9, data=[46, 0]),
   midi.NoteOnEvent(tick=0, channel=9, data=[46, 80]),
   midi.NoteOnEvent(tick=108, channel=9, data=[46, 0]),
   midi.NoteOnEvent(tick=0, channel=9, data=[46, 80]),
   midi.NoteOnEvent(tick=108, channel=9, data=[46, 0]),
   midi.NoteOnEvent(tick=0, channel=9, data=[46, 80]),
   midi.NoteOnEvent(tick=108, channel=9, data=[46, 0]),
   midi.NoteOnEvent(tick=0, channel=9, data=[46, 80]),
   midi.NoteOnEvent(tick=108, channel=9, data=[46, 0]),
   midi.NoteOnEvent(tick=0, channel=9, data=[46, 80]),
   midi.NoteOnEvent(tick=108, channel=9, data=[46, 0]),
   midi.NoteOnEvent(tick=0, channel=9, data=[46, 80]),
   midi.NoteOnEvent(tick=108, channel=9, data=[46, 0]),
   midi.NoteOnEvent(tick=0, channel=9, data=[46, 80]),
   midi.NoteOnEvent(tick=108, channel=9, data=[46, 0]),
   midi.NoteOnEvent(tick=0, channel=9, data=[46, 80]),
   midi.NoteOnEvent(tick=108, channel=9, data=[46, 0]),
   midi.NoteOnEvent(tick=0, channel=9, data=[46, 80]),
   midi.NoteOnEvent(tick=108, channel=9, data=[46, 0]),
   midi.NoteOnEvent(tick=0, channel=9, data=[46, 80]),
   midi.NoteOnEvent(tick=108, channel=9, data=[46, 0]),
   midi.NoteOnEvent(tick=0, channel=9, data=[46, 80]),
   midi.NoteOnEvent(tick=108, channel=9, data=[46, 0]),
   midi.NoteOnEvent(tick=0, channel=9, data=[46, 80]),
   midi.NoteOnEvent(tick=108, channel=9, data=[46, 0]),
   midi.NoteOnEvent(tick=0, channel=9, data=[46, 80]),
   midi.NoteOnEvent(tick=108, channel=9, data=[46, 0]),
   midi.NoteOnEvent(tick=0, channel=9, data=[46, 80]),
   midi.NoteOnEvent(tick=108, channel=9, data=[46, 0]),
   midi.NoteOnEvent(tick=0, channel=9, data=[46, 80]),
   midi.NoteOnEvent(tick=108, channel=9, data=[46, 0]),
   midi.NoteOnEvent(tick=0, channel=9, data=[46, 80]),
   midi.NoteOnEvent(tick=108, channel=9, data=[46, 0]),
   midi.NoteOnEvent(tick=0, channel=9, data=[46, 80]),
   midi.NoteOnEvent(tick=108, channel=9, data=[46, 0]),
   midi.NoteOnEvent(tick=0, channel=9, data=[46, 80]),
   midi.NoteOnEvent(tick=108, channel=9, data=[46, 0]),
   midi.NoteOnEvent(tick=0, channel=9, data=[46, 80]),
   midi.NoteOnEvent(tick=108, channel=9, data=[46, 0]),
   midi.NoteOnEvent(tick=0, channel=9, data=[46, 80]),
   midi.NoteOnEvent(tick=108, channel=9, data=[46, 0]),
   midi.NoteOnEvent(tick=0, channel=9, data=[46, 80]),
   midi.NoteOnEvent(tick=108, channel=9, data=[46, 0]),
   midi.NoteOnEvent(tick=0, channel=9, data=[46, 80]),
   midi.NoteOnEvent(tick=108, channel=9, data=[46, 0]),
   midi.NoteOnEvent(tick=0, channel=9, data=[46, 80]),
   midi.NoteOnEvent(tick=108, channel=9, data=[46, 0]),
   midi.NoteOnEvent(tick=0, channel=9, data=[46, 80]),
   midi.NoteOnEvent(tick=108, channel=9, data=[46, 0]),
   midi.NoteOnEvent(tick=0, channel=9, data=[46, 80]),
   midi.NoteOnEvent(tick=108, channel=9, data=[46, 0]),
   midi.NoteOnEvent(tick=0, channel=9, data=[46, 80]),
   midi.NoteOnEvent(tick=108, channel=9, data=[46, 0]),
   midi.NoteOnEvent(tick=0, channel=9, data=[46, 80]),
   midi.NoteOnEvent(tick=108, channel=9, data=[46, 0]),
   midi.NoteOnEvent(tick=0, channel=9, data=[46, 80]),
   midi.NoteOnEvent(tick=108, channel=9, data=[46, 0]),
   midi.NoteOnEvent(tick=0, channel=9, data=[46, 80]),
   midi.NoteOnEvent(tick=108, channel=9, data=[46, 0]),
   midi.NoteOnEvent(tick=0, channel=9, data=[46, 80]),
   midi.NoteOnEvent(tick=108, channel=9, data=[46, 0]),
   midi.NoteOnEvent(tick=0, channel=9, data=[46, 80]),
   midi.NoteOnEvent(tick=108, channel=9, data=[46, 0]),
   midi.NoteOnEvent(tick=0, channel=9, data=[46, 80]),
   midi.NoteOnEvent(tick=108, channel=9, data=[46, 0]),
   midi.NoteOnEvent(tick=0, channel=9, data=[46, 80]),
   midi.NoteOnEvent(tick=108, channel=9, data=[46, 0]),
   midi.NoteOnEvent(tick=0, channel=9, data=[46, 80]),
   midi.NoteOnEvent(tick=108, channel=9, data=[46, 0]),
   midi.NoteOnEvent(tick=0, channel=9, data=[46, 80]),
   midi.NoteOnEvent(tick=108, channel=9, data=[46, 0]),
   midi.NoteOnEvent(tick=0, channel=9, data=[46, 80]),
   midi.NoteOnEvent(tick=108, channel=9, data=[46, 0]),
   midi.NoteOnEvent(tick=0, channel=9, data=[46, 80]),
   midi.NoteOnEvent(tick=108, channel=9, data=[46, 0]),
   midi.NoteOnEvent(tick=0, channel=9, data=[46, 80]),
   midi.NoteOnEvent(tick=108, channel=9, data=[46, 0]),
   midi.NoteOnEvent(tick=0, channel=9, data=[46, 80]),
   midi.NoteOnEvent(tick=108, channel=9, data=[46, 0]),
   midi.NoteOnEvent(tick=0, channel=9, data=[46, 80]),
   midi.NoteOnEvent(tick=108, channel=9, data=[46, 0]),
   midi.NoteOnEvent(tick=0, channel=9, data=[46, 80]),
   midi.NoteOnEvent(tick=108, channel=9, data=[46, 0]),
   midi.NoteOnEvent(tick=0, channel=9, data=[46, 80]),
   midi.NoteOnEvent(tick=108, channel=9, data=[46, 0]),
   midi.NoteOnEvent(tick=0, channel=9, data=[46, 80]),
   midi.NoteOnEvent(tick=108, channel=9, data=[46, 0]),
   midi.NoteOnEvent(tick=0, channel=9, data=[46, 80]),
   midi.NoteOnEvent(tick=108, channel=9, data=[46, 0]),
   midi.NoteOnEvent(tick=0, channel=9, data=[46, 80]),
   midi.NoteOnEvent(tick=108, channel=9, data=[46, 0]),
   midi.NoteOnEvent(tick=0, channel=9, data=[46, 80]),
   midi.NoteOnEvent(tick=108, channel=9, data=[46, 0]),
   midi.NoteOnEvent(tick=0, channel=9, data=[46, 80]),
   midi.NoteOnEvent(tick=108, channel=9, data=[46, 0]),
   midi.NoteOnEvent(tick=0, channel=9, data=[46, 80]),
   midi.NoteOnEvent(tick=108, channel=9, data=[46, 0]),
   midi.NoteOnEvent(tick=0, channel=9, data=[46, 80]),
   midi.NoteOnEvent(tick=108, channel=9, data=[46, 0]),
   midi.NoteOnEvent(tick=0, channel=9, data=[46, 80]),
   midi.NoteOnEvent(tick=108, channel=9, data=[46, 0]),
   midi.NoteOnEvent(tick=0, channel=9, data=[46, 80]),
   midi.NoteOnEvent(tick=108, channel=9, data=[46, 0]),
   midi.NoteOnEvent(tick=0, channel=9, data=[46, 80]),
   midi.NoteOnEvent(tick=108, channel=9, data=[46, 0]),
   midi.NoteOnEvent(tick=0, channel=9, data=[46, 80]),
   midi.NoteOnEvent(tick=108, channel=9, data=[46, 0]),
   midi.NoteOnEvent(tick=0, channel=9, data=[46, 80]),
   midi.NoteOnEvent(tick=108, channel=9, data=[46, 0]),
   midi.NoteOnEvent(tick=0, channel=9, data=[46, 80]),
   midi.NoteOnEvent(tick=108, channel=9, data=[46, 0]),
   midi.NoteOnEvent(tick=0, channel=9, data=[46, 80]),
   midi.NoteOnEvent(tick=108, channel=9, data=[46, 0]),
   midi.NoteOnEvent(tick=216, channel=9, data=[46, 80]),
   midi.NoteOnEvent(tick=108, channel=9, data=[46, 0]),
   midi.NoteOnEvent(tick=0, channel=9, data=[46, 80]),
   midi.NoteOnEvent(tick=108, channel=9, data=[46, 0]),
   midi.NoteOnEvent(tick=0, channel=9, data=[46, 80]),
   midi.NoteOnEvent(tick=108, channel=9, data=[46, 0]),
   midi.NoteOnEvent(tick=0, channel=9, data=[46, 80]),
   midi.NoteOnEvent(tick=108, channel=9, data=[46, 0]),
   midi.NoteOnEvent(tick=0, channel=9, data=[46, 80]),
   midi.NoteOnEvent(tick=108, channel=9, data=[46, 0]),
   midi.NoteOnEvent(tick=0, channel=9, data=[46, 80]),
   midi.NoteOnEvent(tick=108, channel=9, data=[46, 0]),
   midi.NoteOnEvent(tick=216, channel=9, data=[46, 80]),
   midi.NoteOnEvent(tick=108, channel=9, data=[46, 0]),
   midi.NoteOnEvent(tick=0, channel=9, data=[46, 80]),
   midi.NoteOnEvent(tick=108, channel=9, data=[46, 0]),
   midi.NoteOnEvent(tick=0, channel=9, data=[46, 80]),
   midi.NoteOnEvent(tick=108, channel=9, data=[46, 0]),
   midi.NoteOnEvent(tick=0, channel=9, data=[46, 80]),
   midi.NoteOnEvent(tick=108, channel=9, data=[46, 0]),
   midi.NoteOnEvent(tick=0, channel=9, data=[46, 80]),
   midi.NoteOnEvent(tick=108, channel=9, data=[46, 0]),
   midi.NoteOnEvent(tick=0, channel=9, data=[46, 80]),
   midi.NoteOnEvent(tick=108, channel=9, data=[46, 0]),
   midi.NoteOnEvent(tick=216, channel=9, data=[46, 80]),
   midi.NoteOnEvent(tick=108, channel=9, data=[46, 0]),
   midi.NoteOnEvent(tick=540, channel=9, data=[46, 80]),
   midi.NoteOnEvent(tick=108, channel=9, data=[46, 0]),
   midi.NoteOnEvent(tick=0, channel=9, data=[46, 80]),
   midi.NoteOnEvent(tick=108, channel=9, data=[46, 0]),
   midi.NoteOnEvent(tick=0, channel=9, data=[46, 80]),
   midi.NoteOnEvent(tick=108, channel=9, data=[46, 0]),
   midi.NoteOnEvent(tick=0, channel=9, data=[46, 80]),
   midi.NoteOnEvent(tick=108, channel=9, data=[46, 0]),
   midi.NoteOnEvent(tick=0, channel=9, data=[46, 80]),
   midi.NoteOnEvent(tick=108, channel=9, data=[46, 0]),
   midi.NoteOnEvent(tick=0, channel=9, data=[46, 80]),
   midi.NoteOnEvent(tick=108, channel=9, data=[46, 0]),
   midi.NoteOnEvent(tick=0, channel=9, data=[46, 80]),
   midi.NoteOnEvent(tick=108, channel=9, data=[46, 0]),
   midi.NoteOnEvent(tick=0, channel=9, data=[46, 80]),
   midi.NoteOnEvent(tick=108, channel=9, data=[46, 0]),
   midi.NoteOnEvent(tick=0, channel=9, data=[46, 80]),
   midi.NoteOnEvent(tick=108, channel=9, data=[46, 0]),
   midi.NoteOnEvent(tick=0, channel=9, data=[46, 80]),
   midi.NoteOnEvent(tick=108, channel=9, data=[46, 0]),
   midi.NoteOnEvent(tick=0, channel=9, data=[46, 80]),
   midi.NoteOnEvent(tick=108, channel=9, data=[46, 0]),
   midi.NoteOnEvent(tick=0, channel=9, data=[46, 80]),
   midi.NoteOnEvent(tick=108, channel=9, data=[46, 0]),
   midi.NoteOnEvent(tick=0, channel=9, data=[46, 80]),
   midi.NoteOnEvent(tick=108, channel=9, data=[46, 0]),
   midi.NoteOnEvent(tick=0, channel=9, data=[46, 80]),
   midi.NoteOnEvent(tick=108, channel=9, data=[46, 0]),
   midi.NoteOnEvent(tick=0, channel=9, data=[46, 80]),
   midi.NoteOnEvent(tick=108, channel=9, data=[46, 0]),
   midi.NoteOnEvent(tick=0, channel=9, data=[46, 80]),
   midi.NoteOnEvent(tick=108, channel=9, data=[46, 0]),
   midi.NoteOnEvent(tick=0, channel=9, data=[46, 80]),
   midi.NoteOnEvent(tick=108, channel=9, data=[46, 0]),
   midi.NoteOnEvent(tick=0, channel=9, data=[46, 80]),
   midi.NoteOnEvent(tick=108, channel=9, data=[46, 0]),
   midi.NoteOnEvent(tick=0, channel=9, data=[46, 80]),
   midi.NoteOnEvent(tick=108, channel=9, data=[46, 0]),
   midi.NoteOnEvent(tick=0, channel=9, data=[46, 80]),
   midi.NoteOnEvent(tick=108, channel=9, data=[46, 0]),
   midi.NoteOnEvent(tick=0, channel=9, data=[46, 80]),
   midi.NoteOnEvent(tick=108, channel=9, data=[46, 0]),
   midi.NoteOnEvent(tick=0, channel=9, data=[46, 80]),
   midi.NoteOnEvent(tick=108, channel=9, data=[46, 0]),
   midi.NoteOnEvent(tick=0, channel=9, data=[46, 80]),
   midi.NoteOnEvent(tick=108, channel=9, data=[46, 0]),
   midi.NoteOnEvent(tick=0, channel=9, data=[46, 80]),
   midi.NoteOnEvent(tick=108, channel=9, data=[46, 0]),
   midi.NoteOnEvent(tick=0, channel=9, data=[46, 80]),
   midi.NoteOnEvent(tick=108, channel=9, data=[46, 0]),
   midi.NoteOnEvent(tick=0, channel=9, data=[46, 80]),
   midi.NoteOnEvent(tick=108, channel=9, data=[46, 0]),
   midi.NoteOnEvent(tick=0, channel=9, data=[46, 80]),
   midi.NoteOnEvent(tick=108, channel=9, data=[46, 0]),
   midi.NoteOnEvent(tick=0, channel=9, data=[46, 80]),
   midi.NoteOnEvent(tick=108, channel=9, data=[46, 0]),
   midi.NoteOnEvent(tick=0, channel=9, data=[46, 80]),
   midi.NoteOnEvent(tick=108, channel=9, data=[46, 0]),
   midi.NoteOnEvent(tick=0, channel=9, data=[46, 80]),
   midi.NoteOnEvent(tick=108, channel=9, data=[46, 0]),
   midi.NoteOnEvent(tick=0, channel=9, data=[46, 80]),
   midi.NoteOnEvent(tick=108, channel=9, data=[46, 0]),
   midi.NoteOnEvent(tick=0, channel=9, data=[46, 80]),
   midi.NoteOnEvent(tick=108, channel=9, data=[46, 0]),
   midi.NoteOnEvent(tick=216, channel=9, data=[46, 80]),
   midi.NoteOnEvent(tick=108, channel=9, data=[46, 0]),
   midi.NoteOnEvent(tick=0, channel=9, data=[46, 80]),
   midi.NoteOnEvent(tick=108, channel=9, data=[46, 0]),
   midi.NoteOnEvent(tick=0, channel=9, data=[46, 80]),
   midi.NoteOnEvent(tick=108, channel=9, data=[46, 0]),
   midi.NoteOnEvent(tick=0, channel=9, data=[46, 80]),
   midi.NoteOnEvent(tick=108, channel=9, data=[46, 0]),
   midi.NoteOnEvent(tick=0, channel=9, data=[46, 80]),
   midi.NoteOnEvent(tick=108, channel=9, data=[46, 0]),
   midi.NoteOnEvent(tick=0, channel=9, data=[46, 80]),
   midi.NoteOnEvent(tick=108, channel=9, data=[46, 0]),
   midi.NoteOnEvent(tick=216, channel=9, data=[46, 80]),
   midi.NoteOnEvent(tick=108, channel=9, data=[46, 0]),
   midi.NoteOnEvent(tick=0, channel=9, data=[46, 80]),
   midi.NoteOnEvent(tick=108, channel=9, data=[46, 0]),
   midi.NoteOnEvent(tick=0, channel=9, data=[46, 80]),
   midi.NoteOnEvent(tick=108, channel=9, data=[46, 0]),
   midi.NoteOnEvent(tick=0, channel=9, data=[46, 80]),
   midi.NoteOnEvent(tick=108, channel=9, data=[46, 0]),
   midi.NoteOnEvent(tick=0, channel=9, data=[46, 80]),
   midi.NoteOnEvent(tick=108, channel=9, data=[46, 0]),
   midi.NoteOnEvent(tick=0, channel=9, data=[46, 80]),
   midi.NoteOnEvent(tick=108, channel=9, data=[46, 0]),
   midi.NoteOnEvent(tick=216, channel=9, data=[46, 80]),
   midi.NoteOnEvent(tick=108, channel=9, data=[46, 0]),
   midi.NoteOnEvent(tick=540, channel=9, data=[46, 80]),
   midi.NoteOnEvent(tick=108, channel=9, data=[46, 0]),
   midi.NoteOnEvent(tick=0, channel=9, data=[46, 80]),
   midi.NoteOnEvent(tick=108, channel=9, data=[46, 0]),
   midi.NoteOnEvent(tick=0, channel=9, data=[46, 80]),
   midi.NoteOnEvent(tick=108, channel=9, data=[46, 0]),
   midi.NoteOnEvent(tick=0, channel=9, data=[46, 80]),
   midi.NoteOnEvent(tick=108, channel=9, data=[46, 0]),
   midi.NoteOnEvent(tick=0, channel=9, data=[46, 80]),
   midi.NoteOnEvent(tick=108, channel=9, data=[46, 0]),
   midi.NoteOnEvent(tick=0, channel=9, data=[46, 80]),
   midi.NoteOnEvent(tick=108, channel=9, data=[46, 0]),
   midi.NoteOnEvent(tick=0, channel=9, data=[46, 80]),
   midi.NoteOnEvent(tick=108, channel=9, data=[46, 0]),
   midi.NoteOnEvent(tick=0, channel=9, data=[46, 80]),
   midi.NoteOnEvent(tick=108, channel=9, data=[46, 0]),
   midi.NoteOnEvent(tick=0, channel=9, data=[46, 80]),
   midi.NoteOnEvent(tick=108, channel=9, data=[46, 0]),
   midi.NoteOnEvent(tick=0, channel=9, data=[46, 80]),
   midi.NoteOnEvent(tick=108, channel=9, data=[46, 0]),
   midi.NoteOnEvent(tick=0, channel=9, data=[46, 80]),
   midi.NoteOnEvent(tick=108, channel=9, data=[46, 0]),
   midi.NoteOnEvent(tick=0, channel=9, data=[46, 80]),
   midi.NoteOnEvent(tick=108, channel=9, data=[46, 0]),
   midi.NoteOnEvent(tick=0, channel=9, data=[46, 80]),
   midi.NoteOnEvent(tick=108, channel=9, data=[46, 0]),
   midi.NoteOnEvent(tick=0, channel=9, data=[46, 80]),
   midi.NoteOnEvent(tick=108, channel=9, data=[46, 0]),
   midi.NoteOnEvent(tick=0, channel=9, data=[46, 80]),
   midi.NoteOnEvent(tick=108, channel=9, data=[46, 0]),
   midi.NoteOnEvent(tick=0, channel=9, data=[46, 80]),
   midi.NoteOnEvent(tick=108, channel=9, data=[46, 0]),
   midi.NoteOnEvent(tick=1728, channel=9, data=[46, 80]),
   midi.NoteOnEvent(tick=108, channel=9, data=[46, 0]),
   midi.NoteOnEvent(tick=0, channel=9, data=[46, 80]),
   midi.NoteOnEvent(tick=108, channel=9, data=[46, 0]),
   midi.NoteOnEvent(tick=0, channel=9, data=[46, 80]),
   midi.NoteOnEvent(tick=108, channel=9, data=[46, 0]),
   midi.NoteOnEvent(tick=0, channel=9, data=[46, 80]),
   midi.NoteOnEvent(tick=108, channel=9, data=[46, 0]),
   midi.NoteOnEvent(tick=0, channel=9, data=[46, 80]),
   midi.NoteOnEvent(tick=108, channel=9, data=[46, 0]),
   midi.NoteOnEvent(tick=0, channel=9, data=[46, 80]),
   midi.NoteOnEvent(tick=108, channel=9, data=[46, 0]),
   midi.NoteOnEvent(tick=0, channel=9, data=[46, 80]),
   midi.NoteOnEvent(tick=108, channel=9, data=[46, 0]),
   midi.NoteOnEvent(tick=0, channel=9, data=[46, 80]),
   midi.NoteOnEvent(tick=108, channel=9, data=[46, 0]),
   midi.NoteOnEvent(tick=0, channel=9, data=[46, 80]),
   midi.NoteOnEvent(tick=108, channel=9, data=[46, 0]),
   midi.NoteOnEvent(tick=0, channel=9, data=[46, 80]),
   midi.NoteOnEvent(tick=108, channel=9, data=[46, 0]),
   midi.NoteOnEvent(tick=0, channel=9, data=[46, 80]),
   midi.NoteOnEvent(tick=108, channel=9, data=[46, 0]),
   midi.NoteOnEvent(tick=0, channel=9, data=[46, 80]),
   midi.NoteOnEvent(tick=108, channel=9, data=[46, 0]),
   midi.NoteOnEvent(tick=0, channel=9, data=[46, 80]),
   midi.NoteOnEvent(tick=108, channel=9, data=[46, 0]),
   midi.NoteOnEvent(tick=0, channel=9, data=[46, 80]),
   midi.NoteOnEvent(tick=108, channel=9, data=[46, 0]),
   midi.NoteOnEvent(tick=0, channel=9, data=[46, 80]),
   midi.NoteOnEvent(tick=108, channel=9, data=[46, 0]),
   midi.NoteOnEvent(tick=0, channel=9, data=[46, 80]),
   midi.NoteOnEvent(tick=108, channel=9, data=[46, 0]),
   midi.NoteOnEvent(tick=0, channel=9, data=[46, 80]),
   midi.NoteOnEvent(tick=108, channel=9, data=[46, 0]),
   midi.NoteOnEvent(tick=0, channel=9, data=[46, 80]),
   midi.NoteOnEvent(tick=108, channel=9, data=[46, 0]),
   midi.NoteOnEvent(tick=0, channel=9, data=[46, 80]),
   midi.NoteOnEvent(tick=108, channel=9, data=[46, 0]),
   midi.NoteOnEvent(tick=0, channel=9, data=[46, 80]),
   midi.NoteOnEvent(tick=108, channel=9, data=[46, 0]),
   midi.NoteOnEvent(tick=0, channel=9, data=[46, 80]),
   midi.NoteOnEvent(tick=108, channel=9, data=[46, 0]),
   midi.NoteOnEvent(tick=0, channel=9, data=[46, 80]),
   midi.NoteOnEvent(tick=108, channel=9, data=[46, 0]),
   midi.NoteOnEvent(tick=0, channel=9, data=[46, 80]),
   midi.NoteOnEvent(tick=108, channel=9, data=[46, 0]),
   midi.NoteOnEvent(tick=0, channel=9, data=[46, 80]),
   midi.NoteOnEvent(tick=108, channel=9, data=[46, 0]),
   midi.NoteOnEvent(tick=0, channel=9, data=[46, 80]),
   midi.NoteOnEvent(tick=108, channel=9, data=[46, 0]),
   midi.NoteOnEvent(tick=0, channel=9, data=[46, 80]),
   midi.NoteOnEvent(tick=108, channel=9, data=[46, 0]),
   midi.NoteOnEvent(tick=0, channel=9, data=[46, 80]),
   midi.NoteOnEvent(tick=108, channel=9, data=[46, 0]),
   midi.NoteOnEvent(tick=0, channel=9, data=[46, 80]),
   midi.NoteOnEvent(tick=108, channel=9, data=[46, 0]),
   midi.NoteOnEvent(tick=0, channel=9, data=[46, 80]),
   midi.NoteOnEvent(tick=108, channel=9, data=[46, 0]),
   midi.NoteOnEvent(tick=0, channel=9, data=[46, 80]),
   midi.NoteOnEvent(tick=108, channel=9, data=[46, 0]),
   midi.NoteOnEvent(tick=0, channel=9, data=[46, 80]),
   midi.NoteOnEvent(tick=108, channel=9, data=[46, 0]),
   midi.NoteOnEvent(tick=0, channel=9, data=[46, 80]),
   midi.NoteOnEvent(tick=108, channel=9, data=[46, 0]),
   midi.NoteOnEvent(tick=0, channel=9, data=[46, 80]),
   midi.NoteOnEvent(tick=108, channel=9, data=[46, 0]),
   midi.NoteOnEvent(tick=0, channel=9, data=[46, 80]),
   midi.NoteOnEvent(tick=108, channel=9, data=[46, 0]),
   midi.NoteOnEvent(tick=0, channel=9, data=[46, 80]),
   midi.NoteOnEvent(tick=108, channel=9, data=[46, 0]),
   midi.NoteOnEvent(tick=0, channel=9, data=[46, 80]),
   midi.NoteOnEvent(tick=108, channel=9, data=[46, 0]),
   midi.NoteOnEvent(tick=0, channel=9, data=[46, 80]),
   midi.NoteOnEvent(tick=108, channel=9, data=[46, 0]),
   midi.NoteOnEvent(tick=0, channel=9, data=[46, 80]),
   midi.NoteOnEvent(tick=108, channel=9, data=[46, 0]),
   midi.NoteOnEvent(tick=0, channel=9, data=[46, 80]),
   midi.NoteOnEvent(tick=108, channel=9, data=[46, 0]),
   midi.NoteOnEvent(tick=0, channel=9, data=[46, 80]),
   midi.NoteOnEvent(tick=108, channel=9, data=[46, 0]),
   midi.NoteOnEvent(tick=0, channel=9, data=[46, 80]),
   midi.NoteOnEvent(tick=108, channel=9, data=[46, 0]),
   midi.NoteOnEvent(tick=0, channel=9, data=[46, 80]),
   midi.NoteOnEvent(tick=108, channel=9, data=[46, 0]),
   midi.NoteOnEvent(tick=0, channel=9, data=[46, 80]),
   midi.NoteOnEvent(tick=108, channel=9, data=[46, 0]),
   midi.NoteOnEvent(tick=0, channel=9, data=[46, 80]),
   midi.NoteOnEvent(tick=108, channel=9, data=[46, 0]),
   midi.NoteOnEvent(tick=0, channel=9, data=[46, 80]),
   midi.NoteOnEvent(tick=108, channel=9, data=[46, 0]),
   midi.NoteOnEvent(tick=0, channel=9, data=[46, 80]),
   midi.NoteOnEvent(tick=108, channel=9, data=[46, 0]),
   midi.NoteOnEvent(tick=0, channel=9, data=[46, 80]),
   midi.NoteOnEvent(tick=108, channel=9, data=[46, 0]),
   midi.NoteOnEvent(tick=0, channel=9, data=[46, 80]),
   midi.NoteOnEvent(tick=108, channel=9, data=[46, 0]),
   midi.NoteOnEvent(tick=0, channel=9, data=[46, 80]),
   midi.NoteOnEvent(tick=108, channel=9, data=[46, 0]),
   midi.NoteOnEvent(tick=0, channel=9, data=[46, 80]),
   midi.NoteOnEvent(tick=108, channel=9, data=[46, 0]),
   midi.NoteOnEvent(tick=1080, channel=9, data=[46, 80]),
   midi.NoteOnEvent(tick=108, channel=9, data=[46, 0]),
   midi.NoteOnEvent(tick=0, channel=9, data=[46, 80]),
   midi.NoteOnEvent(tick=108, channel=9, data=[46, 0]),
   midi.NoteOnEvent(tick=0, channel=9, data=[46, 80]),
   midi.NoteOnEvent(tick=108, channel=9, data=[46, 0]),
   midi.NoteOnEvent(tick=0, channel=9, data=[46, 80]),
   midi.NoteOnEvent(tick=108, channel=9, data=[46, 0]),
   midi.NoteOnEvent(tick=0, channel=9, data=[46, 80]),
   midi.NoteOnEvent(tick=108, channel=9, data=[46, 0]),
   midi.NoteOnEvent(tick=0, channel=9, data=[46, 80]),
   midi.NoteOnEvent(tick=108, channel=9, data=[46, 0]),
   midi.NoteOnEvent(tick=216, channel=9, data=[46, 80]),
   midi.NoteOnEvent(tick=108, channel=9, data=[46, 0]),
   midi.NoteOnEvent(tick=0, channel=9, data=[46, 80]),
   midi.NoteOnEvent(tick=108, channel=9, data=[46, 0]),
   midi.NoteOnEvent(tick=0, channel=9, data=[46, 80]),
   midi.NoteOnEvent(tick=108, channel=9, data=[46, 0]),
   midi.NoteOnEvent(tick=0, channel=9, data=[46, 80]),
   midi.NoteOnEvent(tick=108, channel=9, data=[46, 0]),
   midi.NoteOnEvent(tick=0, channel=9, data=[46, 80]),
   midi.NoteOnEvent(tick=108, channel=9, data=[46, 0]),
   midi.NoteOnEvent(tick=0, channel=9, data=[46, 80]),
   midi.NoteOnEvent(tick=108, channel=9, data=[46, 0]),
   midi.NoteOnEvent(tick=216, channel=9, data=[46, 80]),
   midi.NoteOnEvent(tick=108, channel=9, data=[46, 0]),
   midi.NoteOnEvent(tick=540, channel=9, data=[46, 80]),
   midi.NoteOnEvent(tick=108, channel=9, data=[46, 0]),
   midi.NoteOnEvent(tick=0, channel=9, data=[46, 80]),
   midi.NoteOnEvent(tick=108, channel=9, data=[46, 0]),
   midi.NoteOnEvent(tick=0, channel=9, data=[46, 80]),
   midi.NoteOnEvent(tick=108, channel=9, data=[46, 0]),
   midi.NoteOnEvent(tick=0, channel=9, data=[46, 80]),
   midi.NoteOnEvent(tick=108, channel=9, data=[46, 0]),
   midi.NoteOnEvent(tick=0, channel=9, data=[46, 80]),
   midi.NoteOnEvent(tick=108, channel=9, data=[46, 0]),
   midi.NoteOnEvent(tick=0, channel=9, data=[46, 80]),
   midi.NoteOnEvent(tick=108, channel=9, data=[46, 0]),
   midi.NoteOnEvent(tick=0, channel=9, data=[46, 80]),
   midi.NoteOnEvent(tick=108, channel=9, data=[46, 0]),
   midi.NoteOnEvent(tick=0, channel=9, data=[46, 80]),
   midi.NoteOnEvent(tick=108, channel=9, data=[46, 0]),
   midi.NoteOnEvent(tick=0, channel=9, data=[46, 80]),
   midi.NoteOnEvent(tick=108, channel=9, data=[46, 0]),
   midi.NoteOnEvent(tick=0, channel=9, data=[46, 80]),
   midi.NoteOnEvent(tick=108, channel=9, data=[46, 0]),
   midi.NoteOnEvent(tick=0, channel=9, data=[46, 80]),
   midi.NoteOnEvent(tick=108, channel=9, data=[46, 0]),
   midi.NoteOnEvent(tick=0, channel=9, data=[46, 80]),
   midi.NoteOnEvent(tick=108, channel=9, data=[46, 0]),
   midi.NoteOnEvent(tick=0, channel=9, data=[46, 80]),
   midi.NoteOnEvent(tick=108, channel=9, data=[46, 0]),
   midi.NoteOnEvent(tick=0, channel=9, data=[46, 80]),
   midi.NoteOnEvent(tick=108, channel=9, data=[46, 0]),
   midi.NoteOnEvent(tick=0, channel=9, data=[46, 80]),
   midi.NoteOnEvent(tick=108, channel=9, data=[46, 0]),
   midi.NoteOnEvent(tick=0, channel=9, data=[46, 80]),
   midi.NoteOnEvent(tick=108, channel=9, data=[46, 0]),
   midi.NoteOnEvent(tick=0, channel=9, data=[46, 80]),
   midi.NoteOnEvent(tick=108, channel=9, data=[46, 0]),
   midi.NoteOnEvent(tick=0, channel=9, data=[46, 80]),
   midi.NoteOnEvent(tick=108, channel=9, data=[46, 0]),
   midi.NoteOnEvent(tick=0, channel=9, data=[46, 80]),
   midi.NoteOnEvent(tick=108, channel=9, data=[46, 0]),
   midi.NoteOnEvent(tick=0, channel=9, data=[46, 80]),
   midi.NoteOnEvent(tick=108, channel=9, data=[46, 0]),
   midi.NoteOnEvent(tick=0, channel=9, data=[46, 80]),
   midi.NoteOnEvent(tick=108, channel=9, data=[46, 0]),
   midi.NoteOnEvent(tick=0, channel=9, data=[46, 80]),
   midi.NoteOnEvent(tick=108, channel=9, data=[46, 0]),
   midi.NoteOnEvent(tick=0, channel=9, data=[46, 80]),
   midi.NoteOnEvent(tick=108, channel=9, data=[46, 0]),
   midi.NoteOnEvent(tick=0, channel=9, data=[46, 80]),
   midi.NoteOnEvent(tick=108, channel=9, data=[46, 0]),
   midi.NoteOnEvent(tick=0, channel=9, data=[46, 80]),
   midi.NoteOnEvent(tick=108, channel=9, data=[46, 0]),
   midi.NoteOnEvent(tick=0, channel=9, data=[46, 80]),
   midi.NoteOnEvent(tick=108, channel=9, data=[46, 0]),
   midi.NoteOnEvent(tick=0, channel=9, data=[46, 80]),
   midi.NoteOnEvent(tick=108, channel=9, data=[46, 0]),
   midi.NoteOnEvent(tick=0, channel=9, data=[46, 80]),
   midi.NoteOnEvent(tick=108, channel=9, data=[46, 0]),
   midi.NoteOnEvent(tick=0, channel=9, data=[46, 80]),
   midi.NoteOnEvent(tick=108, channel=9, data=[46, 0]),
   midi.NoteOnEvent(tick=0, channel=9, data=[46, 80]),
   midi.NoteOnEvent(tick=108, channel=9, data=[46, 0]),
   midi.NoteOnEvent(tick=0, channel=9, data=[46, 80]),
   midi.NoteOnEvent(tick=108, channel=9, data=[46, 0]),
   midi.NoteOnEvent(tick=0, channel=9, data=[46, 80]),
   midi.NoteOnEvent(tick=108, channel=9, data=[46, 0]),
   midi.NoteOnEvent(tick=0, channel=9, data=[46, 80]),
   midi.NoteOnEvent(tick=108, channel=9, data=[46, 0]),
   midi.NoteOnEvent(tick=0, channel=9, data=[46, 80]),
   midi.NoteOnEvent(tick=108, channel=9, data=[46, 0]),
   midi.NoteOnEvent(tick=0, channel=9, data=[46, 80]),
   midi.NoteOnEvent(tick=108, channel=9, data=[46, 0]),
   midi.NoteOnEvent(tick=0, channel=9, data=[46, 80]),
   midi.NoteOnEvent(tick=108, channel=9, data=[46, 0]),
   midi.NoteOnEvent(tick=0, channel=9, data=[46, 80]),
   midi.NoteOnEvent(tick=108, channel=9, data=[46, 0]),
   midi.NoteOnEvent(tick=0, channel=9, data=[46, 80]),
   midi.NoteOnEvent(tick=108, channel=9, data=[46, 0]),
   midi.NoteOnEvent(tick=0, channel=9, data=[46, 80]),
   midi.NoteOnEvent(tick=108, channel=9, data=[46, 0]),
   midi.NoteOnEvent(tick=0, channel=9, data=[46, 80]),
   midi.NoteOnEvent(tick=108, channel=9, data=[46, 0]),
   midi.NoteOnEvent(tick=0, channel=9, data=[46, 80]),
   midi.NoteOnEvent(tick=108, channel=9, data=[46, 0]),
   midi.NoteOnEvent(tick=0, channel=9, data=[46, 80]),
   midi.NoteOnEvent(tick=108, channel=9, data=[46, 0]),
   midi.NoteOnEvent(tick=0, channel=9, data=[46, 80]),
   midi.NoteOnEvent(tick=108, channel=9, data=[46, 0]),
   midi.NoteOnEvent(tick=0, channel=9, data=[46, 80]),
   midi.NoteOnEvent(tick=108, channel=9, data=[46, 0]),
   midi.NoteOnEvent(tick=0, channel=9, data=[46, 80]),
   midi.NoteOnEvent(tick=108, channel=9, data=[46, 0]),
   midi.NoteOnEvent(tick=0, channel=9, data=[46, 80]),
   midi.NoteOnEvent(tick=108, channel=9, data=[46, 0]),
   midi.NoteOnEvent(tick=0, channel=9, data=[46, 80]),
   midi.NoteOnEvent(tick=108, channel=9, data=[46, 0]),
   midi.NoteOnEvent(tick=0, channel=9, data=[46, 80]),
   midi.NoteOnEvent(tick=108, channel=9, data=[46, 0]),
   midi.NoteOnEvent(tick=0, channel=9, data=[46, 80]),
   midi.NoteOnEvent(tick=108, channel=9, data=[46, 0]),
   midi.NoteOnEvent(tick=0, channel=9, data=[46, 80]),
   midi.NoteOnEvent(tick=108, channel=9, data=[46, 0]),
   midi.NoteOnEvent(tick=0, channel=9, data=[46, 80]),
   midi.NoteOnEvent(tick=108, channel=9, data=[46, 0]),
   midi.NoteOnEvent(tick=0, channel=9, data=[46, 80]),
   midi.NoteOnEvent(tick=108, channel=9, data=[46, 0]),
   midi.NoteOnEvent(tick=0, channel=9, data=[46, 80]),
   midi.NoteOnEvent(tick=108, channel=9, data=[46, 0]),
   midi.NoteOnEvent(tick=0, channel=9, data=[46, 80]),
   midi.NoteOnEvent(tick=108, channel=9, data=[46, 0]),
   midi.NoteOnEvent(tick=0, channel=9, data=[46, 80]),
   midi.NoteOnEvent(tick=108, channel=9, data=[46, 0]),
   midi.NoteOnEvent(tick=0, channel=9, data=[46, 80]),
   midi.NoteOnEvent(tick=108, channel=9, data=[46, 0]),
   midi.NoteOnEvent(tick=0, channel=9, data=[46, 80]),
   midi.NoteOnEvent(tick=108, channel=9, data=[46, 0]),
   midi.NoteOnEvent(tick=0, channel=9, data=[46, 80]),
   midi.NoteOnEvent(tick=108, channel=9, data=[46, 0]),
   midi.NoteOnEvent(tick=0, channel=9, data=[46, 80]),
   midi.NoteOnEvent(tick=108, channel=9, data=[46, 0]),
   midi.NoteOnEvent(tick=0, channel=9, data=[46, 80]),
   midi.NoteOnEvent(tick=108, channel=9, data=[46, 0]),
   midi.NoteOnEvent(tick=0, channel=9, data=[46, 80]),
   midi.NoteOnEvent(tick=108, channel=9, data=[46, 0]),
   midi.NoteOnEvent(tick=0, channel=9, data=[46, 80]),
   midi.NoteOnEvent(tick=108, channel=9, data=[46, 0]),
   midi.NoteOnEvent(tick=0, channel=9, data=[46, 80]),
   midi.NoteOnEvent(tick=108, channel=9, data=[46, 0]),
   midi.NoteOnEvent(tick=0, channel=9, data=[46, 80]),
   midi.NoteOnEvent(tick=108, channel=9, data=[46, 0]),
   midi.NoteOnEvent(tick=216, channel=9, data=[46, 80]),
   midi.NoteOnEvent(tick=108, channel=9, data=[46, 0]),
   midi.NoteOnEvent(tick=0, channel=9, data=[46, 80]),
   midi.NoteOnEvent(tick=108, channel=9, data=[46, 0]),
   midi.NoteOnEvent(tick=0, channel=9, data=[46, 80]),
   midi.NoteOnEvent(tick=108, channel=9, data=[46, 0]),
   midi.NoteOnEvent(tick=0, channel=9, data=[46, 80]),
   midi.NoteOnEvent(tick=108, channel=9, data=[46, 0]),
   midi.NoteOnEvent(tick=0, channel=9, data=[46, 80]),
   midi.NoteOnEvent(tick=108, channel=9, data=[46, 0]),
   midi.NoteOnEvent(tick=0, channel=9, data=[46, 80]),
   midi.NoteOnEvent(tick=108, channel=9, data=[46, 0]),
   midi.NoteOnEvent(tick=216, channel=9, data=[46, 80]),
   midi.NoteOnEvent(tick=108, channel=9, data=[46, 0]),
   midi.NoteOnEvent(tick=0, channel=9, data=[46, 80]),
   midi.NoteOnEvent(tick=108, channel=9, data=[46, 0]),
   midi.NoteOnEvent(tick=0, channel=9, data=[46, 80]),
   midi.NoteOnEvent(tick=108, channel=9, data=[46, 0]),
   midi.NoteOnEvent(tick=0, channel=9, data=[46, 80]),
   midi.NoteOnEvent(tick=108, channel=9, data=[46, 0]),
   midi.NoteOnEvent(tick=0, channel=9, data=[46, 80]),
   midi.NoteOnEvent(tick=108, channel=9, data=[46, 0]),
   midi.NoteOnEvent(tick=0, channel=9, data=[46, 80]),
   midi.NoteOnEvent(tick=108, channel=9, data=[46, 0]),
   midi.NoteOnEvent(tick=216, channel=9, data=[46, 80]),
   midi.NoteOnEvent(tick=108, channel=9, data=[46, 0]),
   midi.NoteOnEvent(tick=540, channel=9, data=[46, 80]),
   midi.NoteOnEvent(tick=108, channel=9, data=[46, 0]),
   midi.NoteOnEvent(tick=0, channel=9, data=[46, 80]),
   midi.NoteOnEvent(tick=108, channel=9, data=[46, 0]),
   midi.NoteOnEvent(tick=0, channel=9, data=[46, 80]),
   midi.NoteOnEvent(tick=108, channel=9, data=[46, 0]),
   midi.NoteOnEvent(tick=0, channel=9, data=[46, 80]),
   midi.NoteOnEvent(tick=108, channel=9, data=[46, 0]),
   midi.NoteOnEvent(tick=0, channel=9, data=[46, 80]),
   midi.NoteOnEvent(tick=108, channel=9, data=[46, 0]),
   midi.NoteOnEvent(tick=0, channel=9, data=[46, 80]),
   midi.NoteOnEvent(tick=108, channel=9, data=[46, 0]),
   midi.NoteOnEvent(tick=0, channel=9, data=[46, 80]),
   midi.NoteOnEvent(tick=108, channel=9, data=[46, 0]),
   midi.NoteOnEvent(tick=0, channel=9, data=[46, 80]),
   midi.NoteOnEvent(tick=108, channel=9, data=[46, 0]),
   midi.NoteOnEvent(tick=0, channel=9, data=[46, 80]),
   midi.NoteOnEvent(tick=108, channel=9, data=[46, 0]),
   midi.NoteOnEvent(tick=0, channel=9, data=[46, 80]),
   midi.NoteOnEvent(tick=108, channel=9, data=[46, 0]),
   midi.NoteOnEvent(tick=0, channel=9, data=[46, 80]),
   midi.NoteOnEvent(tick=108, channel=9, data=[46, 0]),
   midi.NoteOnEvent(tick=0, channel=9, data=[46, 80]),
   midi.NoteOnEvent(tick=108, channel=9, data=[46, 0]),
   midi.NoteOnEvent(tick=0, channel=9, data=[46, 80]),
   midi.NoteOnEvent(tick=108, channel=9, data=[46, 0]),
   midi.NoteOnEvent(tick=0, channel=9, data=[46, 80]),
   midi.NoteOnEvent(tick=108, channel=9, data=[46, 0]),
   midi.NoteOnEvent(tick=0, channel=9, data=[46, 80]),
   midi.NoteOnEvent(tick=108, channel=9, data=[46, 0]),
   midi.NoteOnEvent(tick=0, channel=9, data=[46, 80]),
   midi.NoteOnEvent(tick=108, channel=9, data=[46, 0]),
   midi.NoteOnEvent(tick=0, channel=9, data=[46, 80]),
   midi.NoteOnEvent(tick=108, channel=9, data=[46, 0]),
   midi.NoteOnEvent(tick=0, channel=9, data=[46, 80]),
   midi.NoteOnEvent(tick=108, channel=9, data=[46, 0]),
   midi.NoteOnEvent(tick=0, channel=9, data=[46, 80]),
   midi.NoteOnEvent(tick=108, channel=9, data=[46, 0]),
   midi.NoteOnEvent(tick=0, channel=9, data=[46, 80]),
   midi.NoteOnEvent(tick=108, channel=9, data=[46, 0]),
   midi.NoteOnEvent(tick=0, channel=9, data=[46, 80]),
   midi.NoteOnEvent(tick=108, channel=9, data=[46, 0]),
   midi.NoteOnEvent(tick=0, channel=9, data=[46, 80]),
   midi.NoteOnEvent(tick=108, channel=9, data=[46, 0]),
   midi.NoteOnEvent(tick=0, channel=9, data=[46, 80]),
   midi.NoteOnEvent(tick=108, channel=9, data=[46, 0]),
   midi.NoteOnEvent(tick=0, channel=9, data=[46, 80]),
   midi.NoteOnEvent(tick=108, channel=9, data=[46, 0]),
   midi.NoteOnEvent(tick=0, channel=9, data=[46, 80]),
   midi.NoteOnEvent(tick=108, channel=9, data=[46, 0]),
   midi.NoteOnEvent(tick=0, channel=9, data=[46, 80]),
   midi.NoteOnEvent(tick=108, channel=9, data=[46, 0]),
   midi.NoteOnEvent(tick=0, channel=9, data=[46, 80]),
   midi.NoteOnEvent(tick=108, channel=9, data=[46, 0]),
   midi.NoteOnEvent(tick=0, channel=9, data=[46, 80]),
   midi.NoteOnEvent(tick=108, channel=9, data=[46, 0]),
   midi.NoteOnEvent(tick=0, channel=9, data=[46, 80]),
   midi.NoteOnEvent(tick=108, channel=9, data=[46, 0]),
   midi.NoteOnEvent(tick=0, channel=9, data=[46, 80]),
   midi.NoteOnEvent(tick=108, channel=9, data=[46, 0]),
   midi.NoteOnEvent(tick=0, channel=9, data=[46, 80]),
   midi.NoteOnEvent(tick=108, channel=9, data=[46, 0]),
   midi.NoteOnEvent(tick=0, channel=9, data=[46, 80]),
   midi.NoteOnEvent(tick=108, channel=9, data=[46, 0]),
   midi.NoteOnEvent(tick=216, channel=9, data=[46, 80]),
   midi.NoteOnEvent(tick=108, channel=9, data=[46, 0]),
   midi.NoteOnEvent(tick=0, channel=9, data=[46, 80]),
   midi.NoteOnEvent(tick=108, channel=9, data=[46, 0]),
   midi.NoteOnEvent(tick=0, channel=9, data=[46, 80]),
   midi.NoteOnEvent(tick=108, channel=9, data=[46, 0]),
   midi.NoteOnEvent(tick=0, channel=9, data=[46, 80]),
   midi.NoteOnEvent(tick=108, channel=9, data=[46, 0]),
   midi.NoteOnEvent(tick=0, channel=9, data=[46, 80]),
   midi.NoteOnEvent(tick=108, channel=9, data=[46, 0]),
   midi.NoteOnEvent(tick=0, channel=9, data=[46, 80]),
   midi.NoteOnEvent(tick=108, channel=9, data=[46, 0]),
   midi.NoteOnEvent(tick=216, channel=9, data=[46, 80]),
   midi.NoteOnEvent(tick=108, channel=9, data=[46, 0]),
   midi.NoteOnEvent(tick=0, channel=9, data=[46, 80]),
   midi.NoteOnEvent(tick=108, channel=9, data=[46, 0]),
   midi.NoteOnEvent(tick=0, channel=9, data=[46, 80]),
   midi.NoteOnEvent(tick=108, channel=9, data=[46, 0]),
   midi.NoteOnEvent(tick=0, channel=9, data=[46, 80]),
   midi.NoteOnEvent(tick=108, channel=9, data=[46, 0]),
   midi.NoteOnEvent(tick=0, channel=9, data=[46, 80]),
   midi.NoteOnEvent(tick=108, channel=9, data=[46, 0]),
   midi.NoteOnEvent(tick=0, channel=9, data=[46, 80]),
   midi.NoteOnEvent(tick=108, channel=9, data=[46, 0]),
   midi.NoteOnEvent(tick=216, channel=9, data=[46, 80]),
   midi.NoteOnEvent(tick=108, channel=9, data=[46, 0]),
   midi.NoteOnEvent(tick=540, channel=9, data=[46, 80]),
   midi.NoteOnEvent(tick=108, channel=9, data=[46, 0]),
   midi.NoteOnEvent(tick=0, channel=9, data=[46, 80]),
   midi.NoteOnEvent(tick=108, channel=9, data=[46, 0]),
   midi.NoteOnEvent(tick=0, channel=9, data=[46, 80]),
   midi.NoteOnEvent(tick=108, channel=9, data=[46, 0]),
   midi.NoteOnEvent(tick=0, channel=9, data=[46, 80]),
   midi.NoteOnEvent(tick=108, channel=9, data=[46, 0]),
   midi.NoteOnEvent(tick=0, channel=9, data=[46, 80]),
   midi.NoteOnEvent(tick=108, channel=9, data=[46, 0]),
   midi.NoteOnEvent(tick=0, channel=9, data=[46, 80]),
   midi.NoteOnEvent(tick=108, channel=9, data=[46, 0]),
   midi.NoteOnEvent(tick=0, channel=9, data=[46, 80]),
   midi.NoteOnEvent(tick=108, channel=9, data=[46, 0]),
   midi.NoteOnEvent(tick=0, channel=9, data=[46, 80]),
   midi.NoteOnEvent(tick=108, channel=9, data=[46, 0]),
   midi.NoteOnEvent(tick=0, channel=9, data=[46, 80]),
   midi.NoteOnEvent(tick=108, channel=9, data=[46, 0]),
   midi.NoteOnEvent(tick=0, channel=9, data=[46, 80]),
   midi.NoteOnEvent(tick=108, channel=9, data=[46, 0]),
   midi.NoteOnEvent(tick=0, channel=9, data=[46, 80]),
   midi.NoteOnEvent(tick=108, channel=9, data=[46, 0]),
   midi.NoteOnEvent(tick=0, channel=9, data=[46, 80]),
   midi.NoteOnEvent(tick=108, channel=9, data=[46, 0]),
   midi.NoteOnEvent(tick=0, channel=9, data=[46, 80]),
   midi.NoteOnEvent(tick=108, channel=9, data=[46, 0]),
   midi.NoteOnEvent(tick=0, channel=9, data=[46, 80]),
   midi.NoteOnEvent(tick=108, channel=9, data=[46, 0]),
   midi.NoteOnEvent(tick=0, channel=9, data=[46, 80]),
   midi.NoteOnEvent(tick=108, channel=9, data=[46, 0]),
   midi.NoteOnEvent(tick=0, channel=9, data=[46, 80]),
   midi.NoteOnEvent(tick=108, channel=9, data=[46, 0]),
   midi.NoteOnEvent(tick=1728, channel=9, data=[46, 80]),
   midi.NoteOnEvent(tick=108, channel=9, data=[46, 0]),
   midi.NoteOnEvent(tick=0, channel=9, data=[46, 80]),
   midi.NoteOnEvent(tick=108, channel=9, data=[46, 0]),
   midi.NoteOnEvent(tick=0, channel=9, data=[46, 80]),
   midi.NoteOnEvent(tick=108, channel=9, data=[46, 0]),
   midi.NoteOnEvent(tick=0, channel=9, data=[46, 80]),
   midi.NoteOnEvent(tick=108, channel=9, data=[46, 0]),
   midi.NoteOnEvent(tick=0, channel=9, data=[46, 80]),
   midi.NoteOnEvent(tick=108, channel=9, data=[46, 0]),
   midi.NoteOnEvent(tick=0, channel=9, data=[46, 80]),
   midi.NoteOnEvent(tick=108, channel=9, data=[46, 0]),
   midi.NoteOnEvent(tick=0, channel=9, data=[46, 80]),
   midi.NoteOnEvent(tick=108, channel=9, data=[46, 0]),
   midi.NoteOnEvent(tick=0, channel=9, data=[46, 80]),
   midi.NoteOnEvent(tick=108, channel=9, data=[46, 0]),
   midi.NoteOnEvent(tick=0, channel=9, data=[46, 80]),
   midi.NoteOnEvent(tick=108, channel=9, data=[46, 0]),
   midi.NoteOnEvent(tick=0, channel=9, data=[46, 80]),
   midi.NoteOnEvent(tick=108, channel=9, data=[46, 0]),
   midi.NoteOnEvent(tick=0, channel=9, data=[46, 80]),
   midi.NoteOnEvent(tick=108, channel=9, data=[46, 0]),
   midi.NoteOnEvent(tick=0, channel=9, data=[46, 80]),
   midi.NoteOnEvent(tick=108, channel=9, data=[46, 0]),
   midi.NoteOnEvent(tick=0, channel=9, data=[46, 80]),
   midi.NoteOnEvent(tick=108, channel=9, data=[46, 0]),
   midi.NoteOnEvent(tick=0, channel=9, data=[46, 80]),
   midi.NoteOnEvent(tick=108, channel=9, data=[46, 0]),
   midi.NoteOnEvent(tick=0, channel=9, data=[46, 80]),
   midi.NoteOnEvent(tick=108, channel=9, data=[46, 0]),
   midi.NoteOnEvent(tick=0, channel=9, data=[46, 80]),
   midi.NoteOnEvent(tick=108, channel=9, data=[46, 0]),
   midi.NoteOnEvent(tick=0, channel=9, data=[46, 80]),
   midi.NoteOnEvent(tick=108, channel=9, data=[46, 0]),
   midi.NoteOnEvent(tick=0, channel=9, data=[46, 80]),
   midi.NoteOnEvent(tick=108, channel=9, data=[46, 0]),
   midi.NoteOnEvent(tick=0, channel=9, data=[46, 80]),
   midi.NoteOnEvent(tick=108, channel=9, data=[46, 0]),
   midi.NoteOnEvent(tick=0, channel=9, data=[46, 80]),
   midi.NoteOnEvent(tick=108, channel=9, data=[46, 0]),
   midi.NoteOnEvent(tick=0, channel=9, data=[46, 80]),
   midi.NoteOnEvent(tick=108, channel=9, data=[46, 0]),
   midi.NoteOnEvent(tick=0, channel=9, data=[46, 80]),
   midi.NoteOnEvent(tick=108, channel=9, data=[46, 0]),
   midi.NoteOnEvent(tick=0, channel=9, data=[46, 80]),
   midi.NoteOnEvent(tick=108, channel=9, data=[46, 0]),
   midi.NoteOnEvent(tick=0, channel=9, data=[46, 80]),
   midi.NoteOnEvent(tick=108, channel=9, data=[46, 0]),
   midi.NoteOnEvent(tick=0, channel=9, data=[46, 80]),
   midi.NoteOnEvent(tick=108, channel=9, data=[46, 0]),
   midi.NoteOnEvent(tick=0, channel=9, data=[46, 80]),
   midi.NoteOnEvent(tick=108, channel=9, data=[46, 0]),
   midi.NoteOnEvent(tick=0, channel=9, data=[46, 80]),
   midi.NoteOnEvent(tick=108, channel=9, data=[46, 0]),
   midi.NoteOnEvent(tick=0, channel=9, data=[46, 80]),
   midi.NoteOnEvent(tick=108, channel=9, data=[46, 0]),
   midi.NoteOnEvent(tick=0, channel=9, data=[46, 80]),
   midi.NoteOnEvent(tick=108, channel=9, data=[46, 0]),
   midi.NoteOnEvent(tick=0, channel=9, data=[46, 80]),
   midi.NoteOnEvent(tick=108, channel=9, data=[46, 0]),
   midi.NoteOnEvent(tick=0, channel=9, data=[46, 80]),
   midi.NoteOnEvent(tick=108, channel=9, data=[46, 0]),
   midi.NoteOnEvent(tick=0, channel=9, data=[46, 80]),
   midi.NoteOnEvent(tick=108, channel=9, data=[46, 0]),
   midi.NoteOnEvent(tick=0, channel=9, data=[46, 80]),
   midi.NoteOnEvent(tick=108, channel=9, data=[46, 0]),
   midi.NoteOnEvent(tick=0, channel=9, data=[46, 80]),
   midi.NoteOnEvent(tick=108, channel=9, data=[46, 0]),
   midi.NoteOnEvent(tick=0, channel=9, data=[46, 80]),
   midi.NoteOnEvent(tick=108, channel=9, data=[46, 0]),
   midi.NoteOnEvent(tick=0, channel=9, data=[46, 80]),
   midi.NoteOnEvent(tick=108, channel=9, data=[46, 0]),
   midi.NoteOnEvent(tick=0, channel=9, data=[46, 80]),
   midi.NoteOnEvent(tick=108, channel=9, data=[46, 0]),
   midi.NoteOnEvent(tick=0, channel=9, data=[46, 80]),
   midi.NoteOnEvent(tick=108, channel=9, data=[46, 0]),
   midi.NoteOnEvent(tick=0, channel=9, data=[46, 80]),
   midi.NoteOnEvent(tick=108, channel=9, data=[46, 0]),
   midi.NoteOnEvent(tick=0, channel=9, data=[46, 80]),
   midi.NoteOnEvent(tick=108, channel=9, data=[46, 0]),
   midi.NoteOnEvent(tick=0, channel=9, data=[46, 80]),
   midi.NoteOnEvent(tick=108, channel=9, data=[46, 0]),
   midi.NoteOnEvent(tick=0, channel=9, data=[46, 80]),
   midi.NoteOnEvent(tick=108, channel=9, data=[46, 0]),
   midi.NoteOnEvent(tick=0, channel=9, data=[46, 80]),
   midi.NoteOnEvent(tick=108, channel=9, data=[46, 0]),
   midi.NoteOnEvent(tick=0, channel=9, data=[46, 80]),
   midi.NoteOnEvent(tick=108, channel=9, data=[46, 0]),
   midi.NoteOnEvent(tick=0, channel=9, data=[46, 80]),
   midi.NoteOnEvent(tick=108, channel=9, data=[46, 0]),
   midi.NoteOnEvent(tick=0, channel=9, data=[46, 80]),
   midi.NoteOnEvent(tick=108, channel=9, data=[46, 0]),
   midi.NoteOnEvent(tick=0, channel=9, data=[46, 80]),
   midi.NoteOnEvent(tick=108, channel=9, data=[46, 0]),
   midi.NoteOnEvent(tick=0, channel=9, data=[46, 80]),
   midi.NoteOnEvent(tick=108, channel=9, data=[46, 0]),
   midi.NoteOnEvent(tick=0, channel=9, data=[46, 80]),
   midi.NoteOnEvent(tick=108, channel=9, data=[46, 0]),
   midi.NoteOnEvent(tick=0, channel=9, data=[46, 80]),
   midi.NoteOnEvent(tick=108, channel=9, data=[46, 0]),
   midi.NoteOnEvent(tick=2592, channel=9, data=[46, 100]),
   midi.NoteOnEvent(tick=23, channel=9, data=[46, 0]),
   midi.NoteOnEvent(tick=193, channel=9, data=[46, 100]),
   midi.NoteOnEvent(tick=23, channel=9, data=[46, 0]),
   midi.NoteOnEvent(tick=193, channel=9, data=[46, 100]),
   midi.NoteOnEvent(tick=23, channel=9, data=[46, 0]),
   midi.NoteOnEvent(tick=193, channel=9, data=[46, 100]),
   midi.NoteOnEvent(tick=23, channel=9, data=[46, 0]),
   midi.NoteOnEvent(tick=193, channel=9, data=[46, 100]),
   midi.NoteOnEvent(tick=23, channel=9, data=[46, 0]),
   midi.NoteOnEvent(tick=193, channel=9, data=[46, 100]),
   midi.NoteOnEvent(tick=23, channel=9, data=[46, 0]),
   midi.NoteOnEvent(tick=193, channel=9, data=[46, 100]),
   midi.NoteOnEvent(tick=23, channel=9, data=[46, 0]),
   midi.NoteOnEvent(tick=193, channel=9, data=[46, 100]),
   midi.NoteOnEvent(tick=23, channel=9, data=[46, 0]),
   midi.NoteOnEvent(tick=193, channel=9, data=[46, 100]),
   midi.NoteOnEvent(tick=23, channel=9, data=[46, 0]),
   midi.NoteOnEvent(tick=193, channel=9, data=[46, 100]),
   midi.NoteOnEvent(tick=23, channel=9, data=[46, 0]),
   midi.NoteOnEvent(tick=193, channel=9, data=[46, 100]),
   midi.NoteOnEvent(tick=23, channel=9, data=[46, 0]),
   midi.NoteOnEvent(tick=193, channel=9, data=[46, 100]),
   midi.NoteOnEvent(tick=23, channel=9, data=[46, 0]),
   midi.NoteOnEvent(tick=193, channel=9, data=[46, 100]),
   midi.NoteOnEvent(tick=23, channel=9, data=[46, 0]),
   midi.NoteOnEvent(tick=193, channel=9, data=[46, 100]),
   midi.NoteOnEvent(tick=23, channel=9, data=[46, 0]),
   midi.NoteOnEvent(tick=85, channel=9, data=[46, 100]),
   midi.NoteOnEvent(tick=23, channel=9, data=[46, 0]),
   midi.NoteOnEvent(tick=85, channel=9, data=[42, 100]),
   midi.NoteOnEvent(tick=23, channel=9, data=[42, 0]),
   midi.NoteOnEvent(tick=85, channel=9, data=[42, 100]),
   midi.NoteOnEvent(tick=23, channel=9, data=[42, 0]),
   midi.NoteOnEvent(tick=85, channel=9, data=[46, 100]),
   midi.NoteOnEvent(tick=23, channel=9, data=[46, 0]),
   midi.NoteOnEvent(tick=193, channel=9, data=[46, 100]),
   midi.NoteOnEvent(tick=23, channel=9, data=[46, 0]),
   midi.NoteOnEvent(tick=193, channel=9, data=[46, 100]),
   midi.NoteOnEvent(tick=23, channel=9, data=[46, 0]),
   midi.NoteOnEvent(tick=193, channel=9, data=[46, 100]),
   midi.NoteOnEvent(tick=23, channel=9, data=[46, 0]),
   midi.NoteOnEvent(tick=193, channel=9, data=[46, 100]),
   midi.NoteOnEvent(tick=23, channel=9, data=[46, 0]),
   midi.NoteOnEvent(tick=193, channel=9, data=[46, 100]),
   midi.NoteOnEvent(tick=23, channel=9, data=[46, 0]),
   midi.NoteOnEvent(tick=193, channel=9, data=[46, 100]),
   midi.NoteOnEvent(tick=23, channel=9, data=[46, 0]),
   midi.NoteOnEvent(tick=193, channel=9, data=[46, 100]),
   midi.NoteOnEvent(tick=23, channel=9, data=[46, 0]),
   midi.NoteOnEvent(tick=193, channel=9, data=[46, 100]),
   midi.NoteOnEvent(tick=23, channel=9, data=[46, 0]),
   midi.NoteOnEvent(tick=193, channel=9, data=[46, 100]),
   midi.NoteOnEvent(tick=23, channel=9, data=[46, 0]),
   midi.NoteOnEvent(tick=193, channel=9, data=[46, 100]),
   midi.NoteOnEvent(tick=23, channel=9, data=[46, 0]),
   midi.NoteOnEvent(tick=193, channel=9, data=[46, 100]),
   midi.NoteOnEvent(tick=23, channel=9, data=[46, 0]),
   midi.NoteOnEvent(tick=193, channel=9, data=[46, 100]),
   midi.NoteOnEvent(tick=23, channel=9, data=[46, 0]),
   midi.NoteOnEvent(tick=193, channel=9, data=[46, 100]),
   midi.NoteOnEvent(tick=23, channel=9, data=[46, 0]),
   midi.NoteOnEvent(tick=193, channel=9, data=[46, 100]),
   midi.NoteOnEvent(tick=23, channel=9, data=[46, 0]),
   midi.NoteOnEvent(tick=625, channel=9, data=[46, 100]),
   midi.NoteOnEvent(tick=23, channel=9, data=[46, 0]),
   midi.NoteOnEvent(tick=193, channel=9, data=[46, 100]),
   midi.NoteOnEvent(tick=23, channel=9, data=[46, 0]),
   midi.NoteOnEvent(tick=193, channel=9, data=[46, 100]),
   midi.NoteOnEvent(tick=23, channel=9, data=[46, 0]),
   midi.NoteOnEvent(tick=193, channel=9, data=[46, 100]),
   midi.NoteOnEvent(tick=23, channel=9, data=[46, 0]),
   midi.NoteOnEvent(tick=193, channel=9, data=[46, 100]),
   midi.NoteOnEvent(tick=23, channel=9, data=[46, 0]),
   midi.NoteOnEvent(tick=193, channel=9, data=[46, 100]),
   midi.NoteOnEvent(tick=23, channel=9, data=[46, 0]),
   midi.NoteOnEvent(tick=193, channel=9, data=[46, 100]),
   midi.NoteOnEvent(tick=23, channel=9, data=[46, 0]),
   midi.NoteOnEvent(tick=193, channel=9, data=[46, 100]),
   midi.NoteOnEvent(tick=23, channel=9, data=[46, 0]),
   midi.NoteOnEvent(tick=193, channel=9, data=[46, 100]),
   midi.NoteOnEvent(tick=23, channel=9, data=[46, 0]),
   midi.NoteOnEvent(tick=193, channel=9, data=[46, 100]),
   midi.NoteOnEvent(tick=23, channel=9, data=[46, 0]),
   midi.NoteOnEvent(tick=193, channel=9, data=[46, 100]),
   midi.NoteOnEvent(tick=23, channel=9, data=[46, 0]),
   midi.NoteOnEvent(tick=193, channel=9, data=[46, 100]),
   midi.NoteOnEvent(tick=23, channel=9, data=[46, 0]),
   midi.NoteOnEvent(tick=193, channel=9, data=[46, 100]),
   midi.NoteOnEvent(tick=23, channel=9, data=[46, 0]),
   midi.NoteOnEvent(tick=193, channel=9, data=[46, 100]),
   midi.NoteOnEvent(tick=23, channel=9, data=[46, 0]),
   midi.NoteOnEvent(tick=193, channel=9, data=[46, 100]),
   midi.NoteOnEvent(tick=23, channel=9, data=[46, 0]),
   midi.NoteOnEvent(tick=193, channel=9, data=[46, 100]),
   midi.NoteOnEvent(tick=23, channel=9, data=[46, 0]),
   midi.NoteOnEvent(tick=193, channel=9, data=[46, 100]),
   midi.NoteOnEvent(tick=23, channel=9, data=[46, 0]),
   midi.NoteOnEvent(tick=193, channel=9, data=[46, 100]),
   midi.NoteOnEvent(tick=23, channel=9, data=[46, 0]),
   midi.NoteOnEvent(tick=193, channel=9, data=[46, 100]),
   midi.NoteOnEvent(tick=23, channel=9, data=[46, 0]),
   midi.NoteOnEvent(tick=193, channel=9, data=[46, 100]),
   midi.NoteOnEvent(tick=23, channel=9, data=[46, 0]),
   midi.NoteOnEvent(tick=193, channel=9, data=[46, 100]),
   midi.NoteOnEvent(tick=23, channel=9, data=[46, 0]),
   midi.NoteOnEvent(tick=193, channel=9, data=[46, 100]),
   midi.NoteOnEvent(tick=23, channel=9, data=[46, 0]),
   midi.NoteOnEvent(tick=193, channel=9, data=[46, 100]),
   midi.NoteOnEvent(tick=23, channel=9, data=[46, 0]),
   midi.NoteOnEvent(tick=193, channel=9, data=[46, 100]),
   midi.NoteOnEvent(tick=23, channel=9, data=[46, 0]),
   midi.NoteOnEvent(tick=193, channel=9, data=[46, 100]),
   midi.NoteOnEvent(tick=23, channel=9, data=[46, 0]),
   midi.NoteOnEvent(tick=193, channel=9, data=[46, 100]),
   midi.NoteOnEvent(tick=23, channel=9, data=[46, 0]),
   midi.NoteOnEvent(tick=193, channel=9, data=[46, 100]),
   midi.NoteOnEvent(tick=23, channel=9, data=[46, 0]),
   midi.NoteOnEvent(tick=193, channel=9, data=[46, 100]),
   midi.NoteOnEvent(tick=23, channel=9, data=[46, 0]),
   midi.NoteOnEvent(tick=193, channel=9, data=[46, 100]),
   midi.NoteOnEvent(tick=23, channel=9, data=[46, 0]),
   midi.NoteOnEvent(tick=193, channel=9, data=[46, 100]),
   midi.NoteOnEvent(tick=23, channel=9, data=[46, 0]),
   midi.NoteOnEvent(tick=193, channel=9, data=[46, 100]),
   midi.NoteOnEvent(tick=23, channel=9, data=[46, 0]),
   midi.NoteOnEvent(tick=193, channel=9, data=[46, 100]),
   midi.NoteOnEvent(tick=23, channel=9, data=[46, 0]),
   midi.NoteOnEvent(tick=193, channel=9, data=[46, 100]),
   midi.NoteOnEvent(tick=23, channel=9, data=[46, 0]),
   midi.NoteOnEvent(tick=193, channel=9, data=[46, 100]),
   midi.NoteOnEvent(tick=23, channel=9, data=[46, 0]),
   midi.NoteOnEvent(tick=193, channel=9, data=[46, 100]),
   midi.NoteOnEvent(tick=23, channel=9, data=[46, 0]),
   midi.NoteOnEvent(tick=193, channel=9, data=[46, 100]),
   midi.NoteOnEvent(tick=23, channel=9, data=[46, 0]),
   midi.NoteOnEvent(tick=193, channel=9, data=[46, 100]),
   midi.NoteOnEvent(tick=23, channel=9, data=[46, 0]),
   midi.NoteOnEvent(tick=193, channel=9, data=[46, 100]),
   midi.NoteOnEvent(tick=23, channel=9, data=[46, 0]),
   midi.NoteOnEvent(tick=193, channel=9, data=[46, 100]),
   midi.NoteOnEvent(tick=23, channel=9, data=[46, 0]),
   midi.NoteOnEvent(tick=193, channel=9, data=[46, 100]),
   midi.NoteOnEvent(tick=23, channel=9, data=[46, 0]),
   midi.NoteOnEvent(tick=193, channel=9, data=[46, 100]),
   midi.NoteOnEvent(tick=23, channel=9, data=[46, 0]),
   midi.NoteOnEvent(tick=193, channel=9, data=[46, 100]),
   midi.NoteOnEvent(tick=23, channel=9, data=[46, 0]),
   midi.NoteOnEvent(tick=193, channel=9, data=[46, 100]),
   midi.NoteOnEvent(tick=23, channel=9, data=[46, 0]),
   midi.NoteOnEvent(tick=193, channel=9, data=[46, 100]),
   midi.NoteOnEvent(tick=23, channel=9, data=[46, 0]),
   midi.NoteOnEvent(tick=193, channel=9, data=[46, 100]),
   midi.NoteOnEvent(tick=23, channel=9, data=[46, 0]),
   midi.NoteOnEvent(tick=193, channel=9, data=[46, 100]),
   midi.NoteOnEvent(tick=23, channel=9, data=[46, 0]),
   midi.NoteOnEvent(tick=193, channel=9, data=[46, 100]),
   midi.NoteOnEvent(tick=23, channel=9, data=[46, 0]),
   midi.NoteOnEvent(tick=193, channel=9, data=[46, 100]),
   midi.NoteOnEvent(tick=23, channel=9, data=[46, 0]),
   midi.NoteOnEvent(tick=193, channel=9, data=[46, 100]),
   midi.NoteOnEvent(tick=23, channel=9, data=[46, 0]),
   midi.NoteOnEvent(tick=193, channel=9, data=[46, 100]),
   midi.NoteOnEvent(tick=23, channel=9, data=[46, 0]),
   midi.NoteOnEvent(tick=193, channel=9, data=[46, 100]),
   midi.NoteOnEvent(tick=23, channel=9, data=[46, 0]),
   midi.NoteOnEvent(tick=193, channel=9, data=[46, 100]),
   midi.NoteOnEvent(tick=23, channel=9, data=[46, 0]),
   midi.NoteOnEvent(tick=3649, channel=9, data=[46, 100]),
   midi.NoteOnEvent(tick=25, channel=9, data=[46, 0]),
   midi.NoteOnEvent(tick=83, channel=9, data=[46, 100]),
   midi.NoteOnEvent(tick=25, channel=9, data=[46, 0]),
   midi.NoteOnEvent(tick=83, channel=9, data=[46, 100]),
   midi.NoteOnEvent(tick=25, channel=9, data=[46, 0]),
   midi.NoteOnEvent(tick=83, channel=9, data=[46, 100]),
   midi.NoteOnEvent(tick=25, channel=9, data=[46, 0]),
   midi.NoteOnEvent(tick=83, channel=9, data=[46, 100]),
   midi.NoteOnEvent(tick=25, channel=9, data=[46, 0]),
   midi.NoteOnEvent(tick=83, channel=9, data=[46, 100]),
   midi.NoteOnEvent(tick=25, channel=9, data=[46, 0]),
   midi.NoteOnEvent(tick=83, channel=9, data=[46, 100]),
   midi.NoteOnEvent(tick=25, channel=9, data=[46, 0]),
   midi.NoteOnEvent(tick=83, channel=9, data=[46, 100]),
   midi.NoteOnEvent(tick=25, channel=9, data=[46, 0]),
   midi.NoteOnEvent(tick=83, channel=9, data=[46, 100]),
   midi.NoteOnEvent(tick=25, channel=9, data=[46, 0]),
   midi.NoteOnEvent(tick=83, channel=9, data=[46, 100]),
   midi.NoteOnEvent(tick=25, channel=9, data=[46, 0]),
   midi.NoteOnEvent(tick=83, channel=9, data=[46, 100]),
   midi.NoteOnEvent(tick=25, channel=9, data=[46, 0]),
   midi.NoteOnEvent(tick=83, channel=9, data=[46, 100]),
   midi.NoteOnEvent(tick=25, channel=9, data=[46, 0]),
   midi.NoteOnEvent(tick=83, channel=9, data=[46, 100]),
   midi.NoteOnEvent(tick=25, channel=9, data=[46, 0]),
   midi.NoteOnEvent(tick=83, channel=9, data=[46, 100]),
   midi.NoteOnEvent(tick=25, channel=9, data=[46, 0]),
   midi.NoteOnEvent(tick=83, channel=9, data=[46, 100]),
   midi.NoteOnEvent(tick=25, channel=9, data=[46, 0]),
   midi.NoteOnEvent(tick=83, channel=9, data=[46, 100]),
   midi.NoteOnEvent(tick=25, channel=9, data=[46, 0]),
   midi.NoteOnEvent(tick=83, channel=9, data=[46, 100]),
   midi.NoteOnEvent(tick=25, channel=9, data=[46, 0]),
   midi.NoteOnEvent(tick=83, channel=9, data=[46, 100]),
   midi.NoteOnEvent(tick=25, channel=9, data=[46, 0]),
   midi.NoteOnEvent(tick=83, channel=9, data=[46, 100]),
   midi.NoteOnEvent(tick=25, channel=9, data=[46, 0]),
   midi.NoteOnEvent(tick=83, channel=9, data=[46, 100]),
   midi.NoteOnEvent(tick=25, channel=9, data=[46, 0]),
   midi.NoteOnEvent(tick=83, channel=9, data=[46, 100]),
   midi.NoteOnEvent(tick=25, channel=9, data=[46, 0]),
   midi.NoteOnEvent(tick=83, channel=9, data=[46, 100]),
   midi.NoteOnEvent(tick=25, channel=9, data=[46, 0]),
   midi.NoteOnEvent(tick=83, channel=9, data=[46, 100]),
   midi.NoteOnEvent(tick=25, channel=9, data=[46, 0]),
   midi.NoteOnEvent(tick=83, channel=9, data=[46, 100]),
   midi.NoteOnEvent(tick=25, channel=9, data=[46, 0]),
   midi.NoteOnEvent(tick=947, channel=9, data=[46, 100]),
   midi.NoteOnEvent(tick=25, channel=9, data=[46, 0]),
   midi.NoteOnEvent(tick=83, channel=9, data=[46, 100]),
   midi.NoteOnEvent(tick=25, channel=9, data=[46, 0]),
   midi.NoteOnEvent(tick=83, channel=9, data=[46, 100]),
   midi.NoteOnEvent(tick=25, channel=9, data=[46, 0]),
   midi.NoteOnEvent(tick=83, channel=9, data=[46, 100]),
   midi.NoteOnEvent(tick=25, channel=9, data=[46, 0]),
   midi.NoteOnEvent(tick=83, channel=9, data=[46, 100]),
   midi.NoteOnEvent(tick=25, channel=9, data=[46, 0]),
   midi.NoteOnEvent(tick=83, channel=9, data=[46, 100]),
   midi.NoteOnEvent(tick=25, channel=9, data=[46, 0]),
   midi.NoteOnEvent(tick=83, channel=9, data=[46, 100]),
   midi.NoteOnEvent(tick=25, channel=9, data=[46, 0]),
   midi.NoteOnEvent(tick=83, channel=9, data=[46, 100]),
   midi.NoteOnEvent(tick=25, channel=9, data=[46, 0]),
   midi.NoteOnEvent(tick=83, channel=9, data=[46, 100]),
   midi.NoteOnEvent(tick=25, channel=9, data=[46, 0]),
   midi.NoteOnEvent(tick=83, channel=9, data=[46, 100]),
   midi.NoteOnEvent(tick=25, channel=9, data=[46, 0]),
   midi.NoteOnEvent(tick=83, channel=9, data=[46, 100]),
   midi.NoteOnEvent(tick=25, channel=9, data=[46, 0]),
   midi.NoteOnEvent(tick=83, channel=9, data=[46, 100]),
   midi.NoteOnEvent(tick=25, channel=9, data=[46, 0]),
   midi.NoteOnEvent(tick=83, channel=9, data=[46, 100]),
   midi.NoteOnEvent(tick=25, channel=9, data=[46, 0]),
   midi.NoteOnEvent(tick=83, channel=9, data=[46, 100]),
   midi.NoteOnEvent(tick=25, channel=9, data=[46, 0]),
   midi.NoteOnEvent(tick=83, channel=9, data=[46, 100]),
   midi.NoteOnEvent(tick=25, channel=9, data=[46, 0]),
   midi.NoteOnEvent(tick=83, channel=9, data=[46, 100]),
   midi.NoteOnEvent(tick=25, channel=9, data=[46, 0]),
   midi.NoteOnEvent(tick=83, channel=9, data=[46, 100]),
   midi.NoteOnEvent(tick=25, channel=9, data=[46, 0]),
   midi.NoteOnEvent(tick=83, channel=9, data=[46, 100]),
   midi.NoteOnEvent(tick=25, channel=9, data=[46, 0]),
   midi.NoteOnEvent(tick=83, channel=9, data=[46, 100]),
   midi.NoteOnEvent(tick=25, channel=9, data=[46, 0]),
   midi.NoteOnEvent(tick=83, channel=9, data=[46, 100]),
   midi.NoteOnEvent(tick=25, channel=9, data=[46, 0]),
   midi.NoteOnEvent(tick=83, channel=9, data=[46, 100]),
   midi.NoteOnEvent(tick=25, channel=9, data=[46, 0]),
   midi.NoteOnEvent(tick=83, channel=9, data=[46, 100]),
   midi.NoteOnEvent(tick=25, channel=9, data=[46, 0]),
   midi.NoteOnEvent(tick=83, channel=9, data=[46, 100]),
   midi.NoteOnEvent(tick=25, channel=9, data=[46, 0]),
   midi.NoteOnEvent(tick=83, channel=9, data=[46, 100]),
   midi.NoteOnEvent(tick=25, channel=9, data=[46, 0]),
   midi.NoteOnEvent(tick=191, channel=9, data=[44, 100]),
   midi.NoteOnEvent(tick=108, channel=9, data=[44, 0]),
   midi.NoteOnEvent(tick=108, channel=9, data=[44, 100]),
   midi.NoteOnEvent(tick=108, channel=9, data=[44, 0]),
   midi.NoteOnEvent(tick=108, channel=9, data=[44, 100]),
   midi.NoteOnEvent(tick=108, channel=9, data=[44, 0]),
   midi.NoteOnEvent(tick=216, channel=9, data=[46, 100]),
   midi.NoteOnEvent(tick=25, channel=9, data=[46, 0]),
   midi.NoteOnEvent(tick=83, channel=9, data=[46, 100]),
   midi.NoteOnEvent(tick=25, channel=9, data=[46, 0]),
   midi.NoteOnEvent(tick=83, channel=9, data=[46, 100]),
   midi.NoteOnEvent(tick=25, channel=9, data=[46, 0]),
   midi.NoteOnEvent(tick=83, channel=9, data=[46, 100]),
   midi.NoteOnEvent(tick=25, channel=9, data=[46, 0]),
   midi.NoteOnEvent(tick=83, channel=9, data=[46, 100]),
   midi.NoteOnEvent(tick=25, channel=9, data=[46, 0]),
   midi.NoteOnEvent(tick=83, channel=9, data=[46, 100]),
   midi.NoteOnEvent(tick=25, channel=9, data=[46, 0]),
   midi.NoteOnEvent(tick=83, channel=9, data=[46, 100]),
   midi.NoteOnEvent(tick=25, channel=9, data=[46, 0]),
   midi.NoteOnEvent(tick=83, channel=9, data=[46, 100]),
   midi.NoteOnEvent(tick=25, channel=9, data=[46, 0]),
   midi.NoteOnEvent(tick=83, channel=9, data=[46, 100]),
   midi.NoteOnEvent(tick=25, channel=9, data=[46, 0]),
   midi.NoteOnEvent(tick=83, channel=9, data=[46, 100]),
   midi.NoteOnEvent(tick=25, channel=9, data=[46, 0]),
   midi.NoteOnEvent(tick=83, channel=9, data=[46, 100]),
   midi.NoteOnEvent(tick=25, channel=9, data=[46, 0]),
   midi.NoteOnEvent(tick=83, channel=9, data=[46, 100]),
   midi.NoteOnEvent(tick=25, channel=9, data=[46, 0]),
   midi.NoteOnEvent(tick=83, channel=9, data=[46, 100]),
   midi.NoteOnEvent(tick=25, channel=9, data=[46, 0]),
   midi.NoteOnEvent(tick=83, channel=9, data=[46, 100]),
   midi.NoteOnEvent(tick=25, channel=9, data=[46, 0]),
   midi.NoteOnEvent(tick=83, channel=9, data=[46, 100]),
   midi.NoteOnEvent(tick=25, channel=9, data=[46, 0]),
   midi.NoteOnEvent(tick=83, channel=9, data=[46, 100]),
   midi.NoteOnEvent(tick=25, channel=9, data=[46, 0]),
   midi.NoteOnEvent(tick=83, channel=9, data=[46, 100]),
   midi.NoteOnEvent(tick=25, channel=9, data=[46, 0]),
   midi.NoteOnEvent(tick=83, channel=9, data=[46, 100]),
   midi.NoteOnEvent(tick=25, channel=9, data=[46, 0]),
   midi.NoteOnEvent(tick=83, channel=9, data=[46, 100]),
   midi.NoteOnEvent(tick=25, channel=9, data=[46, 0]),
   midi.NoteOnEvent(tick=83, channel=9, data=[46, 100]),
   midi.NoteOnEvent(tick=25, channel=9, data=[46, 0]),
   midi.NoteOnEvent(tick=83, channel=9, data=[46, 100]),
   midi.NoteOnEvent(tick=25, channel=9, data=[46, 0]),
   midi.NoteOnEvent(tick=83, channel=9, data=[46, 100]),
   midi.NoteOnEvent(tick=25, channel=9, data=[46, 0]),
   midi.NoteOnEvent(tick=83, channel=9, data=[46, 100]),
   midi.NoteOnEvent(tick=25, channel=9, data=[46, 0]),
   midi.NoteOnEvent(tick=83, channel=9, data=[46, 100]),
   midi.NoteOnEvent(tick=25, channel=9, data=[46, 0]),
   midi.NoteOnEvent(tick=83, channel=9, data=[46, 100]),
   midi.NoteOnEvent(tick=25, channel=9, data=[46, 0]),
   midi.NoteOnEvent(tick=83, channel=9, data=[46, 100]),
   midi.NoteOnEvent(tick=25, channel=9, data=[46, 0]),
   midi.NoteOnEvent(tick=83, channel=9, data=[46, 100]),
   midi.NoteOnEvent(tick=25, channel=9, data=[46, 0]),
   midi.NoteOnEvent(tick=83, channel=9, data=[46, 100]),
   midi.NoteOnEvent(tick=25, channel=9, data=[46, 0]),
   midi.NoteOnEvent(tick=83, channel=9, data=[46, 100]),
   midi.NoteOnEvent(tick=25, channel=9, data=[46, 0]),
   midi.NoteOnEvent(tick=83, channel=9, data=[46, 100]),
   midi.NoteOnEvent(tick=25, channel=9, data=[46, 0]),
   midi.NoteOnEvent(tick=83, channel=9, data=[46, 100]),
   midi.NoteOnEvent(tick=25, channel=9, data=[46, 0]),
   midi.NoteOnEvent(tick=83, channel=9, data=[46, 100]),
   midi.NoteOnEvent(tick=25, channel=9, data=[46, 0]),
   midi.NoteOnEvent(tick=83, channel=9, data=[46, 100]),
   midi.NoteOnEvent(tick=25, channel=9, data=[46, 0]),
   midi.NoteOnEvent(tick=83, channel=9, data=[46, 100]),
   midi.NoteOnEvent(tick=25, channel=9, data=[46, 0]),
   midi.NoteOnEvent(tick=83, channel=9, data=[46, 100]),
   midi.NoteOnEvent(tick=25, channel=9, data=[46, 0]),
   midi.NoteOnEvent(tick=83, channel=9, data=[46, 100]),
   midi.NoteOnEvent(tick=25, channel=9, data=[46, 0]),
   midi.NoteOnEvent(tick=83, channel=9, data=[46, 100]),
   midi.NoteOnEvent(tick=25, channel=9, data=[46, 0]),
   midi.NoteOnEvent(tick=83, channel=9, data=[46, 100]),
   midi.NoteOnEvent(tick=25, channel=9, data=[46, 0]),
   midi.NoteOnEvent(tick=83, channel=9, data=[46, 100]),
   midi.NoteOnEvent(tick=25, channel=9, data=[46, 0]),
   midi.NoteOnEvent(tick=83, channel=9, data=[46, 100]),
   midi.NoteOnEvent(tick=25, channel=9, data=[46, 0]),
   midi.NoteOnEvent(tick=83, channel=9, data=[46, 100]),
   midi.NoteOnEvent(tick=25, channel=9, data=[46, 0]),
   midi.NoteOnEvent(tick=83, channel=9, data=[46, 100]),
   midi.NoteOnEvent(tick=25, channel=9, data=[46, 0]),
   midi.NoteOnEvent(tick=83, channel=9, data=[46, 100]),
   midi.NoteOnEvent(tick=25, channel=9, data=[46, 0]),
   midi.NoteOnEvent(tick=83, channel=9, data=[46, 100]),
   midi.NoteOnEvent(tick=25, channel=9, data=[46, 0]),
   midi.NoteOnEvent(tick=83, channel=9, data=[46, 100]),
   midi.NoteOnEvent(tick=25, channel=9, data=[46, 0]),
   midi.NoteOnEvent(tick=83, channel=9, data=[46, 100]),
   midi.NoteOnEvent(tick=25, channel=9, data=[46, 0]),
   midi.NoteOnEvent(tick=83, channel=9, data=[46, 100]),
   midi.NoteOnEvent(tick=25, channel=9, data=[46, 0]),
   midi.NoteOnEvent(tick=83, channel=9, data=[46, 100]),
   midi.NoteOnEvent(tick=25, channel=9, data=[46, 0]),
   midi.NoteOnEvent(tick=83, channel=9, data=[46, 100]),
   midi.NoteOnEvent(tick=25, channel=9, data=[46, 0]),
   midi.NoteOnEvent(tick=83, channel=9, data=[46, 100]),
   midi.NoteOnEvent(tick=25, channel=9, data=[46, 0]),
   midi.NoteOnEvent(tick=83, channel=9, data=[46, 100]),
   midi.NoteOnEvent(tick=25, channel=9, data=[46, 0]),
   midi.NoteOnEvent(tick=83, channel=9, data=[46, 100]),
   midi.NoteOnEvent(tick=25, channel=9, data=[46, 0]),
   midi.NoteOnEvent(tick=83, channel=9, data=[46, 100]),
   midi.NoteOnEvent(tick=25, channel=9, data=[46, 0]),
   midi.NoteOnEvent(tick=83, channel=9, data=[46, 100]),
   midi.NoteOnEvent(tick=25, channel=9, data=[46, 0]),
   midi.NoteOnEvent(tick=83, channel=9, data=[46, 100]),
   midi.NoteOnEvent(tick=25, channel=9, data=[46, 0]),
   midi.NoteOnEvent(tick=83, channel=9, data=[46, 100]),
   midi.NoteOnEvent(tick=25, channel=9, data=[46, 0]),
   midi.NoteOnEvent(tick=1163, channel=9, data=[46, 80]),
   midi.NoteOnEvent(tick=108, channel=9, data=[46, 0]),
   midi.NoteOnEvent(tick=0, channel=9, data=[46, 80]),
   midi.NoteOnEvent(tick=108, channel=9, data=[46, 0]),
   midi.NoteOnEvent(tick=0, channel=9, data=[46, 80]),
   midi.NoteOnEvent(tick=108, channel=9, data=[46, 0]),
   midi.NoteOnEvent(tick=0, channel=9, data=[46, 80]),
   midi.NoteOnEvent(tick=108, channel=9, data=[46, 0]),
   midi.NoteOnEvent(tick=0, channel=9, data=[46, 80]),
   midi.NoteOnEvent(tick=108, channel=9, data=[46, 0]),
   midi.NoteOnEvent(tick=0, channel=9, data=[46, 80]),
   midi.NoteOnEvent(tick=108, channel=9, data=[46, 0]),
   midi.NoteOnEvent(tick=216, channel=9, data=[46, 80]),
   midi.NoteOnEvent(tick=108, channel=9, data=[46, 0]),
   midi.NoteOnEvent(tick=0, channel=9, data=[46, 80]),
   midi.NoteOnEvent(tick=108, channel=9, data=[46, 0]),
   midi.NoteOnEvent(tick=0, channel=9, data=[46, 80]),
   midi.NoteOnEvent(tick=108, channel=9, data=[46, 0]),
   midi.NoteOnEvent(tick=0, channel=9, data=[46, 80]),
   midi.NoteOnEvent(tick=108, channel=9, data=[46, 0]),
   midi.NoteOnEvent(tick=0, channel=9, data=[46, 80]),
   midi.NoteOnEvent(tick=108, channel=9, data=[46, 0]),
   midi.NoteOnEvent(tick=0, channel=9, data=[46, 80]),
   midi.NoteOnEvent(tick=108, channel=9, data=[46, 0]),
   midi.NoteOnEvent(tick=216, channel=9, data=[46, 80]),
   midi.NoteOnEvent(tick=108, channel=9, data=[46, 0]),
   midi.NoteOnEvent(tick=0, channel=9, data=[46, 80]),
   midi.NoteOnEvent(tick=108, channel=9, data=[46, 0]),
   midi.NoteOnEvent(tick=0, channel=9, data=[46, 80]),
   midi.NoteOnEvent(tick=108, channel=9, data=[46, 0]),
   midi.NoteOnEvent(tick=0, channel=9, data=[46, 80]),
   midi.NoteOnEvent(tick=108, channel=9, data=[46, 0]),
   midi.NoteOnEvent(tick=0, channel=9, data=[46, 80]),
   midi.NoteOnEvent(tick=108, channel=9, data=[46, 0]),
   midi.NoteOnEvent(tick=0, channel=9, data=[46, 80]),
   midi.NoteOnEvent(tick=108, channel=9, data=[46, 0]),
   midi.NoteOnEvent(tick=216, channel=9, data=[46, 80]),
   midi.NoteOnEvent(tick=108, channel=9, data=[46, 0]),
   midi.NoteOnEvent(tick=0, channel=9, data=[46, 80]),
   midi.NoteOnEvent(tick=108, channel=9, data=[46, 0]),
   midi.NoteOnEvent(tick=0, channel=9, data=[46, 80]),
   midi.NoteOnEvent(tick=108, channel=9, data=[46, 0]),
   midi.NoteOnEvent(tick=0, channel=9, data=[46, 80]),
   midi.NoteOnEvent(tick=108, channel=9, data=[46, 0]),
   midi.NoteOnEvent(tick=0, channel=9, data=[46, 80]),
   midi.NoteOnEvent(tick=108, channel=9, data=[46, 0]),
   midi.NoteOnEvent(tick=0, channel=9, data=[46, 80]),
   midi.NoteOnEvent(tick=108, channel=9, data=[46, 0]),
   midi.NoteOnEvent(tick=216, channel=9, data=[46, 80]),
   midi.NoteOnEvent(tick=108, channel=9, data=[46, 0]),
   midi.NoteOnEvent(tick=0, channel=9, data=[46, 80]),
   midi.NoteOnEvent(tick=108, channel=9, data=[46, 0]),
   midi.NoteOnEvent(tick=0, channel=9, data=[46, 80]),
   midi.NoteOnEvent(tick=108, channel=9, data=[46, 0]),
   midi.NoteOnEvent(tick=0, channel=9, data=[46, 80]),
   midi.NoteOnEvent(tick=108, channel=9, data=[46, 0]),
   midi.NoteOnEvent(tick=0, channel=9, data=[46, 80]),
   midi.NoteOnEvent(tick=108, channel=9, data=[46, 0]),
   midi.NoteOnEvent(tick=0, channel=9, data=[46, 80]),
   midi.NoteOnEvent(tick=108, channel=9, data=[46, 0]),
   midi.NoteOnEvent(tick=216, channel=9, data=[46, 80]),
   midi.NoteOnEvent(tick=108, channel=9, data=[46, 0]),
   midi.NoteOnEvent(tick=0, channel=9, data=[46, 80]),
   midi.NoteOnEvent(tick=108, channel=9, data=[46, 0]),
   midi.NoteOnEvent(tick=0, channel=9, data=[46, 80]),
   midi.NoteOnEvent(tick=108, channel=9, data=[46, 0]),
   midi.NoteOnEvent(tick=0, channel=9, data=[46, 80]),
   midi.NoteOnEvent(tick=108, channel=9, data=[46, 0]),
   midi.NoteOnEvent(tick=0, channel=9, data=[46, 80]),
   midi.NoteOnEvent(tick=108, channel=9, data=[46, 0]),
   midi.NoteOnEvent(tick=0, channel=9, data=[46, 80]),
   midi.NoteOnEvent(tick=108, channel=9, data=[46, 0]),
   midi.NoteOnEvent(tick=0, channel=9, data=[46, 100]),
   midi.NoteOnEvent(tick=25, channel=9, data=[46, 0]),
   midi.NoteOnEvent(tick=83, channel=9, data=[46, 100]),
   midi.NoteOnEvent(tick=25, channel=9, data=[46, 0]),
   midi.NoteOnEvent(tick=83, channel=9, data=[46, 100]),
   midi.NoteOnEvent(tick=25, channel=9, data=[46, 0]),
   midi.NoteOnEvent(tick=83, channel=9, data=[46, 100]),
   midi.NoteOnEvent(tick=25, channel=9, data=[46, 0]),
   midi.NoteOnEvent(tick=83, channel=9, data=[46, 100]),
   midi.NoteOnEvent(tick=25, channel=9, data=[46, 0]),
   midi.NoteOnEvent(tick=83, channel=9, data=[46, 100]),
   midi.NoteOnEvent(tick=25, channel=9, data=[46, 0]),
   midi.NoteOnEvent(tick=83, channel=9, data=[46, 100]),
   midi.NoteOnEvent(tick=25, channel=9, data=[46, 0]),
   midi.NoteOnEvent(tick=83, channel=9, data=[46, 100]),
   midi.NoteOnEvent(tick=25, channel=9, data=[46, 0]),
   midi.NoteOnEvent(tick=83, channel=9, data=[46, 100]),
   midi.NoteOnEvent(tick=25, channel=9, data=[46, 0]),
   midi.NoteOnEvent(tick=83, channel=9, data=[46, 100]),
   midi.NoteOnEvent(tick=25, channel=9, data=[46, 0]),
   midi.NoteOnEvent(tick=83, channel=9, data=[46, 100]),
   midi.NoteOnEvent(tick=25, channel=9, data=[46, 0]),
   midi.NoteOnEvent(tick=83, channel=9, data=[46, 100]),
   midi.NoteOnEvent(tick=25, channel=9, data=[46, 0]),
   midi.NoteOnEvent(tick=83, channel=9, data=[46, 100]),
   midi.NoteOnEvent(tick=25, channel=9, data=[46, 0]),
   midi.NoteOnEvent(tick=83, channel=9, data=[46, 100]),
   midi.NoteOnEvent(tick=25, channel=9, data=[46, 0]),
   midi.NoteOnEvent(tick=83, channel=9, data=[46, 100]),
   midi.NoteOnEvent(tick=25, channel=9, data=[46, 0]),
   midi.NoteOnEvent(tick=83, channel=9, data=[46, 100]),
   midi.NoteOnEvent(tick=25, channel=9, data=[46, 0]),
   midi.NoteOnEvent(tick=8615, channel=9, data=[46, 80]),
   midi.NoteOnEvent(tick=108, channel=9, data=[46, 0]),
   midi.NoteOnEvent(tick=0, channel=9, data=[46, 80]),
   midi.NoteOnEvent(tick=108, channel=9, data=[46, 0]),
   midi.NoteOnEvent(tick=0, channel=9, data=[46, 80]),
   midi.NoteOnEvent(tick=108, channel=9, data=[46, 0]),
   midi.NoteOnEvent(tick=0, channel=9, data=[46, 80]),
   midi.NoteOnEvent(tick=108, channel=9, data=[46, 0]),
   midi.NoteOnEvent(tick=0, channel=9, data=[46, 80]),
   midi.NoteOnEvent(tick=108, channel=9, data=[46, 0]),
   midi.NoteOnEvent(tick=0, channel=9, data=[46, 80]),
   midi.NoteOnEvent(tick=108, channel=9, data=[46, 0]),
   midi.NoteOnEvent(tick=0, channel=9, data=[46, 80]),
   midi.NoteOnEvent(tick=108, channel=9, data=[46, 0]),
   midi.NoteOnEvent(tick=0, channel=9, data=[46, 80]),
   midi.NoteOnEvent(tick=108, channel=9, data=[46, 0]),
   midi.NoteOnEvent(tick=0, channel=9, data=[46, 80]),
   midi.NoteOnEvent(tick=108, channel=9, data=[46, 0]),
   midi.NoteOnEvent(tick=0, channel=9, data=[46, 80]),
   midi.NoteOnEvent(tick=108, channel=9, data=[46, 0]),
   midi.NoteOnEvent(tick=0, channel=9, data=[46, 80]),
   midi.NoteOnEvent(tick=108, channel=9, data=[46, 0]),
   midi.NoteOnEvent(tick=0, channel=9, data=[46, 80]),
   midi.NoteOnEvent(tick=108, channel=9, data=[46, 0]),
   midi.NoteOnEvent(tick=0, channel=9, data=[46, 80]),
   midi.NoteOnEvent(tick=108, channel=9, data=[46, 0]),
   midi.NoteOnEvent(tick=0, channel=9, data=[46, 80]),
   midi.NoteOnEvent(tick=108, channel=9, data=[46, 0]),
   midi.NoteOnEvent(tick=0, channel=9, data=[46, 80]),
   midi.NoteOnEvent(tick=108, channel=9, data=[46, 0]),
   midi.NoteOnEvent(tick=0, channel=9, data=[46, 80]),
   midi.NoteOnEvent(tick=108, channel=9, data=[46, 0]),
   midi.NoteOnEvent(tick=0, channel=9, data=[46, 80]),
   midi.NoteOnEvent(tick=108, channel=9, data=[46, 0]),
   midi.NoteOnEvent(tick=0, channel=9, data=[46, 80]),
   midi.NoteOnEvent(tick=108, channel=9, data=[46, 0]),
   midi.NoteOnEvent(tick=0, channel=9, data=[46, 80]),
   midi.NoteOnEvent(tick=108, channel=9, data=[46, 0]),
   midi.NoteOnEvent(tick=0, channel=9, data=[46, 80]),
   midi.NoteOnEvent(tick=108, channel=9, data=[46, 0]),
   midi.NoteOnEvent(tick=0, channel=9, data=[46, 80]),
   midi.NoteOnEvent(tick=108, channel=9, data=[46, 0]),
   midi.NoteOnEvent(tick=0, channel=9, data=[46, 80]),
   midi.NoteOnEvent(tick=108, channel=9, data=[46, 0]),
   midi.NoteOnEvent(tick=0, channel=9, data=[46, 80]),
   midi.NoteOnEvent(tick=108, channel=9, data=[46, 0]),
   midi.NoteOnEvent(tick=0, channel=9, data=[46, 80]),
   midi.NoteOnEvent(tick=108, channel=9, data=[46, 0]),
   midi.NoteOnEvent(tick=0, channel=9, data=[46, 80]),
   midi.NoteOnEvent(tick=108, channel=9, data=[46, 0]),
   midi.NoteOnEvent(tick=0, channel=9, data=[46, 80]),
   midi.NoteOnEvent(tick=108, channel=9, data=[46, 0]),
   midi.NoteOnEvent(tick=0, channel=9, data=[46, 80]),
   midi.NoteOnEvent(tick=108, channel=9, data=[46, 0]),
   midi.NoteOnEvent(tick=0, channel=9, data=[46, 80]),
   midi.NoteOnEvent(tick=108, channel=9, data=[46, 0]),
   midi.NoteOnEvent(tick=0, channel=9, data=[46, 80]),
   midi.NoteOnEvent(tick=108, channel=9, data=[46, 0]),
   midi.NoteOnEvent(tick=0, channel=9, data=[46, 80]),
   midi.NoteOnEvent(tick=108, channel=9, data=[46, 0]),
   midi.NoteOnEvent(tick=0, channel=9, data=[46, 80]),
   midi.NoteOnEvent(tick=108, channel=9, data=[46, 0]),
   midi.NoteOnEvent(tick=0, channel=9, data=[46, 80]),
   midi.NoteOnEvent(tick=108, channel=9, data=[46, 0]),
   midi.NoteOnEvent(tick=0, channel=9, data=[46, 80]),
   midi.NoteOnEvent(tick=108, channel=9, data=[46, 0]),
   midi.NoteOnEvent(tick=0, channel=9, data=[46, 80]),
   midi.NoteOnEvent(tick=108, channel=9, data=[46, 0]),
   midi.NoteOnEvent(tick=0, channel=9, data=[46, 80]),
   midi.NoteOnEvent(tick=108, channel=9, data=[46, 0]),
   midi.NoteOnEvent(tick=0, channel=9, data=[46, 80]),
   midi.NoteOnEvent(tick=108, channel=9, data=[46, 0]),
   midi.NoteOnEvent(tick=0, channel=9, data=[46, 80]),
   midi.NoteOnEvent(tick=108, channel=9, data=[46, 0]),
   midi.NoteOnEvent(tick=0, channel=9, data=[46, 80]),
   midi.NoteOnEvent(tick=108, channel=9, data=[46, 0]),
   midi.NoteOnEvent(tick=0, channel=9, data=[46, 80]),
   midi.NoteOnEvent(tick=108, channel=9, data=[46, 0]),
   midi.NoteOnEvent(tick=0, channel=9, data=[46, 80]),
   midi.NoteOnEvent(tick=108, channel=9, data=[46, 0]),
   midi.NoteOnEvent(tick=0, channel=9, data=[46, 80]),
   midi.NoteOnEvent(tick=108, channel=9, data=[46, 0]),
   midi.NoteOnEvent(tick=0, channel=9, data=[46, 80]),
   midi.NoteOnEvent(tick=108, channel=9, data=[46, 0]),
   midi.NoteOnEvent(tick=0, channel=9, data=[46, 80]),
   midi.NoteOnEvent(tick=108, channel=9, data=[46, 0]),
   midi.NoteOnEvent(tick=0, channel=9, data=[46, 80]),
   midi.NoteOnEvent(tick=108, channel=9, data=[46, 0]),
   midi.NoteOnEvent(tick=0, channel=9, data=[46, 80]),
   midi.NoteOnEvent(tick=108, channel=9, data=[46, 0]),
   midi.NoteOnEvent(tick=0, channel=9, data=[46, 80]),
   midi.NoteOnEvent(tick=108, channel=9, data=[46, 0]),
   midi.NoteOnEvent(tick=0, channel=9, data=[46, 80]),
   midi.NoteOnEvent(tick=108, channel=9, data=[46, 0]),
   midi.NoteOnEvent(tick=0, channel=9, data=[46, 80]),
   midi.NoteOnEvent(tick=108, channel=9, data=[46, 0]),
   midi.NoteOnEvent(tick=0, channel=9, data=[46, 80]),
   midi.NoteOnEvent(tick=108, channel=9, data=[46, 0]),
   midi.NoteOnEvent(tick=0, channel=9, data=[46, 80]),
   midi.NoteOnEvent(tick=108, channel=9, data=[46, 0]),
   midi.NoteOnEvent(tick=0, channel=9, data=[46, 80]),
   midi.NoteOnEvent(tick=108, channel=9, data=[46, 0]),
   midi.NoteOnEvent(tick=0, channel=9, data=[46, 80]),
   midi.NoteOnEvent(tick=108, channel=9, data=[46, 0]),
   midi.NoteOnEvent(tick=0, channel=9, data=[46, 80]),
   midi.NoteOnEvent(tick=108, channel=9, data=[46, 0]),
   midi.NoteOnEvent(tick=0, channel=9, data=[46, 80]),
   midi.NoteOnEvent(tick=108, channel=9, data=[46, 0]),
   midi.NoteOnEvent(tick=0, channel=9, data=[46, 80]),
   midi.NoteOnEvent(tick=108, channel=9, data=[46, 0]),
   midi.NoteOnEvent(tick=0, channel=9, data=[46, 80]),
   midi.NoteOnEvent(tick=108, channel=9, data=[46, 0]),
   midi.NoteOnEvent(tick=0, channel=9, data=[46, 80]),
   midi.NoteOnEvent(tick=108, channel=9, data=[46, 0]),
   midi.NoteOnEvent(tick=0, channel=9, data=[46, 80]),
   midi.NoteOnEvent(tick=108, channel=9, data=[46, 0]),
   midi.NoteOnEvent(tick=0, channel=9, data=[46, 80]),
   midi.NoteOnEvent(tick=108, channel=9, data=[46, 0]),
   midi.NoteOnEvent(tick=0, channel=9, data=[46, 80]),
   midi.NoteOnEvent(tick=108, channel=9, data=[46, 0]),
   midi.NoteOnEvent(tick=0, channel=9, data=[46, 80]),
   midi.NoteOnEvent(tick=108, channel=9, data=[46, 0]),
   midi.NoteOnEvent(tick=0, channel=9, data=[46, 80]),
   midi.NoteOnEvent(tick=108, channel=9, data=[46, 0]),
   midi.NoteOnEvent(tick=0, channel=9, data=[46, 80]),
   midi.NoteOnEvent(tick=108, channel=9, data=[46, 0]),
   midi.NoteOnEvent(tick=0, channel=9, data=[46, 80]),
   midi.NoteOnEvent(tick=108, channel=9, data=[46, 0]),
   midi.NoteOnEvent(tick=216, channel=9, data=[46, 80]),
   midi.NoteOnEvent(tick=108, channel=9, data=[46, 0]),
   midi.NoteOnEvent(tick=0, channel=9, data=[46, 80]),
   midi.NoteOnEvent(tick=108, channel=9, data=[46, 0]),
   midi.NoteOnEvent(tick=0, channel=9, data=[46, 80]),
   midi.NoteOnEvent(tick=108, channel=9, data=[46, 0]),
   midi.NoteOnEvent(tick=0, channel=9, data=[46, 80]),
   midi.NoteOnEvent(tick=108, channel=9, data=[46, 0]),
   midi.NoteOnEvent(tick=0, channel=9, data=[46, 80]),
   midi.NoteOnEvent(tick=108, channel=9, data=[46, 0]),
   midi.NoteOnEvent(tick=0, channel=9, data=[46, 80]),
   midi.NoteOnEvent(tick=108, channel=9, data=[46, 0]),
   midi.NoteOnEvent(tick=216, channel=9, data=[46, 80]),
   midi.NoteOnEvent(tick=108, channel=9, data=[46, 0]),
   midi.NoteOnEvent(tick=0, channel=9, data=[46, 80]),
   midi.NoteOnEvent(tick=108, channel=9, data=[46, 0]),
   midi.NoteOnEvent(tick=0, channel=9, data=[46, 80]),
   midi.NoteOnEvent(tick=108, channel=9, data=[46, 0]),
   midi.NoteOnEvent(tick=0, channel=9, data=[46, 80]),
   midi.NoteOnEvent(tick=108, channel=9, data=[46, 0]),
   midi.NoteOnEvent(tick=0, channel=9, data=[46, 80]),
   midi.NoteOnEvent(tick=108, channel=9, data=[46, 0]),
   midi.NoteOnEvent(tick=0, channel=9, data=[46, 80]),
   midi.NoteOnEvent(tick=108, channel=9, data=[46, 0]),
   midi.NoteOnEvent(tick=216, channel=9, data=[46, 80]),
   midi.NoteOnEvent(tick=108, channel=9, data=[46, 0]),
   midi.NoteOnEvent(tick=540, channel=9, data=[46, 80]),
   midi.NoteOnEvent(tick=108, channel=9, data=[46, 0]),
   midi.NoteOnEvent(tick=0, channel=9, data=[46, 80]),
   midi.NoteOnEvent(tick=108, channel=9, data=[46, 0]),
   midi.NoteOnEvent(tick=0, channel=9, data=[46, 80]),
   midi.NoteOnEvent(tick=108, channel=9, data=[46, 0]),
   midi.NoteOnEvent(tick=0, channel=9, data=[46, 80]),
   midi.NoteOnEvent(tick=108, channel=9, data=[46, 0]),
   midi.NoteOnEvent(tick=0, channel=9, data=[46, 80]),
   midi.NoteOnEvent(tick=108, channel=9, data=[46, 0]),
   midi.NoteOnEvent(tick=0, channel=9, data=[46, 80]),
   midi.NoteOnEvent(tick=108, channel=9, data=[46, 0]),
   midi.NoteOnEvent(tick=0, channel=9, data=[46, 80]),
   midi.NoteOnEvent(tick=108, channel=9, data=[46, 0]),
   midi.NoteOnEvent(tick=0, channel=9, data=[46, 80]),
   midi.NoteOnEvent(tick=108, channel=9, data=[46, 0]),
   midi.NoteOnEvent(tick=0, channel=9, data=[46, 80]),
   midi.NoteOnEvent(tick=108, channel=9, data=[46, 0]),
   midi.NoteOnEvent(tick=0, channel=9, data=[46, 80]),
   midi.NoteOnEvent(tick=108, channel=9, data=[46, 0]),
   midi.NoteOnEvent(tick=0, channel=9, data=[46, 80]),
   midi.NoteOnEvent(tick=108, channel=9, data=[46, 0]),
   midi.NoteOnEvent(tick=0, channel=9, data=[46, 80]),
   midi.NoteOnEvent(tick=108, channel=9, data=[46, 0]),
   midi.NoteOnEvent(tick=0, channel=9, data=[46, 80]),
   midi.NoteOnEvent(tick=108, channel=9, data=[46, 0]),
   midi.NoteOnEvent(tick=0, channel=9, data=[46, 80]),
   midi.NoteOnEvent(tick=108, channel=9, data=[46, 0]),
   midi.NoteOnEvent(tick=0, channel=9, data=[46, 80]),
   midi.NoteOnEvent(tick=108, channel=9, data=[46, 0]),
   midi.NoteOnEvent(tick=0, channel=9, data=[46, 80]),
   midi.NoteOnEvent(tick=108, channel=9, data=[46, 0]),
   midi.NoteOnEvent(tick=0, channel=9, data=[46, 80]),
   midi.NoteOnEvent(tick=108, channel=9, data=[46, 0]),
   midi.NoteOnEvent(tick=0, channel=9, data=[46, 80]),
   midi.NoteOnEvent(tick=108, channel=9, data=[46, 0]),
   midi.NoteOnEvent(tick=0, channel=9, data=[46, 80]),
   midi.NoteOnEvent(tick=108, channel=9, data=[46, 0]),
   midi.NoteOnEvent(tick=0, channel=9, data=[46, 80]),
   midi.NoteOnEvent(tick=108, channel=9, data=[46, 0]),
   midi.NoteOnEvent(tick=0, channel=9, data=[46, 80]),
   midi.NoteOnEvent(tick=108, channel=9, data=[46, 0]),
   midi.NoteOnEvent(tick=0, channel=9, data=[46, 80]),
   midi.NoteOnEvent(tick=108, channel=9, data=[46, 0]),
   midi.NoteOnEvent(tick=0, channel=9, data=[46, 80]),
   midi.NoteOnEvent(tick=108, channel=9, data=[46, 0]),
   midi.NoteOnEvent(tick=0, channel=9, data=[46, 80]),
   midi.NoteOnEvent(tick=108, channel=9, data=[46, 0]),
   midi.NoteOnEvent(tick=0, channel=9, data=[46, 80]),
   midi.NoteOnEvent(tick=108, channel=9, data=[46, 0]),
   midi.NoteOnEvent(tick=0, channel=9, data=[46, 80]),
   midi.NoteOnEvent(tick=108, channel=9, data=[46, 0]),
   midi.NoteOnEvent(tick=0, channel=9, data=[46, 80]),
   midi.NoteOnEvent(tick=108, channel=9, data=[46, 0]),
   midi.NoteOnEvent(tick=0, channel=9, data=[46, 80]),
   midi.NoteOnEvent(tick=108, channel=9, data=[46, 0]),
   midi.NoteOnEvent(tick=0, channel=9, data=[46, 80]),
   midi.NoteOnEvent(tick=108, channel=9, data=[46, 0]),
   midi.NoteOnEvent(tick=0, channel=9, data=[46, 80]),
   midi.NoteOnEvent(tick=108, channel=9, data=[46, 0]),
   midi.NoteOnEvent(tick=0, channel=9, data=[46, 80]),
   midi.NoteOnEvent(tick=108, channel=9, data=[46, 0]),
   midi.NoteOnEvent(tick=0, channel=9, data=[46, 80]),
   midi.NoteOnEvent(tick=108, channel=9, data=[46, 0]),
   midi.NoteOnEvent(tick=216, channel=9, data=[46, 80]),
   midi.NoteOnEvent(tick=108, channel=9, data=[46, 0]),
   midi.NoteOnEvent(tick=0, channel=9, data=[46, 80]),
   midi.NoteOnEvent(tick=108, channel=9, data=[46, 0]),
   midi.NoteOnEvent(tick=0, channel=9, data=[46, 80]),
   midi.NoteOnEvent(tick=108, channel=9, data=[46, 0]),
   midi.NoteOnEvent(tick=0, channel=9, data=[46, 80]),
   midi.NoteOnEvent(tick=108, channel=9, data=[46, 0]),
   midi.NoteOnEvent(tick=0, channel=9, data=[46, 80]),
   midi.NoteOnEvent(tick=108, channel=9, data=[46, 0]),
   midi.NoteOnEvent(tick=0, channel=9, data=[46, 80]),
   midi.NoteOnEvent(tick=108, channel=9, data=[46, 0]),
   midi.NoteOnEvent(tick=216, channel=9, data=[46, 80]),
   midi.NoteOnEvent(tick=108, channel=9, data=[46, 0]),
   midi.NoteOnEvent(tick=0, channel=9, data=[46, 80]),
   midi.NoteOnEvent(tick=108, channel=9, data=[46, 0]),
   midi.NoteOnEvent(tick=0, channel=9, data=[46, 80]),
   midi.NoteOnEvent(tick=108, channel=9, data=[46, 0]),
   midi.NoteOnEvent(tick=0, channel=9, data=[46, 80]),
   midi.NoteOnEvent(tick=108, channel=9, data=[46, 0]),
   midi.NoteOnEvent(tick=0, channel=9, data=[46, 80]),
   midi.NoteOnEvent(tick=108, channel=9, data=[46, 0]),
   midi.NoteOnEvent(tick=0, channel=9, data=[46, 80]),
   midi.NoteOnEvent(tick=108, channel=9, data=[46, 0]),
   midi.NoteOnEvent(tick=216, channel=9, data=[46, 80]),
   midi.NoteOnEvent(tick=108, channel=9, data=[46, 0]),
   midi.NoteOnEvent(tick=540, channel=9, data=[46, 80]),
   midi.NoteOnEvent(tick=108, channel=9, data=[46, 0]),
   midi.NoteOnEvent(tick=0, channel=9, data=[46, 80]),
   midi.NoteOnEvent(tick=108, channel=9, data=[46, 0]),
   midi.NoteOnEvent(tick=0, channel=9, data=[46, 80]),
   midi.NoteOnEvent(tick=108, channel=9, data=[46, 0]),
   midi.NoteOnEvent(tick=0, channel=9, data=[46, 80]),
   midi.NoteOnEvent(tick=108, channel=9, data=[46, 0]),
   midi.NoteOnEvent(tick=0, channel=9, data=[46, 80]),
   midi.NoteOnEvent(tick=108, channel=9, data=[46, 0]),
   midi.NoteOnEvent(tick=0, channel=9, data=[46, 80]),
   midi.NoteOnEvent(tick=108, channel=9, data=[46, 0]),
   midi.NoteOnEvent(tick=0, channel=9, data=[46, 80]),
   midi.NoteOnEvent(tick=108, channel=9, data=[46, 0]),
   midi.NoteOnEvent(tick=0, channel=9, data=[46, 80]),
   midi.NoteOnEvent(tick=108, channel=9, data=[46, 0]),
   midi.NoteOnEvent(tick=0, channel=9, data=[46, 80]),
   midi.NoteOnEvent(tick=108, channel=9, data=[46, 0]),
   midi.NoteOnEvent(tick=0, channel=9, data=[46, 80]),
   midi.NoteOnEvent(tick=108, channel=9, data=[46, 0]),
   midi.NoteOnEvent(tick=0, channel=9, data=[46, 80]),
   midi.NoteOnEvent(tick=108, channel=9, data=[46, 0]),
   midi.NoteOnEvent(tick=0, channel=9, data=[46, 80]),
   midi.NoteOnEvent(tick=108, channel=9, data=[46, 0]),
   midi.NoteOnEvent(tick=0, channel=9, data=[46, 80]),
   midi.NoteOnEvent(tick=108, channel=9, data=[46, 0]),
   midi.NoteOnEvent(tick=0, channel=9, data=[46, 80]),
   midi.NoteOnEvent(tick=108, channel=9, data=[46, 0]),
   midi.NoteOnEvent(tick=0, channel=9, data=[46, 80]),
   midi.NoteOnEvent(tick=108, channel=9, data=[46, 0]),
   midi.NoteOnEvent(tick=0, channel=9, data=[46, 80]),
   midi.NoteOnEvent(tick=108, channel=9, data=[46, 0]),
   midi.NoteOnEvent(tick=1728, channel=9, data=[46, 80]),
   midi.NoteOnEvent(tick=108, channel=9, data=[46, 0]),
   midi.NoteOnEvent(tick=0, channel=9, data=[46, 80]),
   midi.NoteOnEvent(tick=108, channel=9, data=[46, 0]),
   midi.NoteOnEvent(tick=0, channel=9, data=[46, 80]),
   midi.NoteOnEvent(tick=108, channel=9, data=[46, 0]),
   midi.NoteOnEvent(tick=0, channel=9, data=[46, 80]),
   midi.NoteOnEvent(tick=108, channel=9, data=[46, 0]),
   midi.NoteOnEvent(tick=0, channel=9, data=[46, 80]),
   midi.NoteOnEvent(tick=108, channel=9, data=[46, 0]),
   midi.NoteOnEvent(tick=0, channel=9, data=[46, 80]),
   midi.NoteOnEvent(tick=108, channel=9, data=[46, 0]),
   midi.NoteOnEvent(tick=0, channel=9, data=[46, 80]),
   midi.NoteOnEvent(tick=108, channel=9, data=[46, 0]),
   midi.NoteOnEvent(tick=0, channel=9, data=[46, 80]),
   midi.NoteOnEvent(tick=108, channel=9, data=[46, 0]),
   midi.NoteOnEvent(tick=0, channel=9, data=[46, 80]),
   midi.NoteOnEvent(tick=108, channel=9, data=[46, 0]),
   midi.NoteOnEvent(tick=0, channel=9, data=[46, 80]),
   midi.NoteOnEvent(tick=108, channel=9, data=[46, 0]),
   midi.NoteOnEvent(tick=0, channel=9, data=[46, 80]),
   midi.NoteOnEvent(tick=108, channel=9, data=[46, 0]),
   midi.NoteOnEvent(tick=0, channel=9, data=[46, 80]),
   midi.NoteOnEvent(tick=108, channel=9, data=[46, 0]),
   midi.NoteOnEvent(tick=0, channel=9, data=[46, 80]),
   midi.NoteOnEvent(tick=108, channel=9, data=[46, 0]),
   midi.NoteOnEvent(tick=0, channel=9, data=[46, 80]),
   midi.NoteOnEvent(tick=108, channel=9, data=[46, 0]),
   midi.NoteOnEvent(tick=0, channel=9, data=[46, 80]),
   midi.NoteOnEvent(tick=108, channel=9, data=[46, 0]),
   midi.NoteOnEvent(tick=0, channel=9, data=[46, 80]),
   midi.NoteOnEvent(tick=108, channel=9, data=[46, 0]),
   midi.NoteOnEvent(tick=0, channel=9, data=[46, 80]),
   midi.NoteOnEvent(tick=108, channel=9, data=[46, 0]),
   midi.NoteOnEvent(tick=0, channel=9, data=[46, 80]),
   midi.NoteOnEvent(tick=108, channel=9, data=[46, 0]),
   midi.NoteOnEvent(tick=0, channel=9, data=[46, 80]),
   midi.NoteOnEvent(tick=108, channel=9, data=[46, 0]),
   midi.NoteOnEvent(tick=0, channel=9, data=[46, 80]),
   midi.NoteOnEvent(tick=108, channel=9, data=[46, 0]),
   midi.NoteOnEvent(tick=0, channel=9, data=[46, 80]),
   midi.NoteOnEvent(tick=108, channel=9, data=[46, 0]),
   midi.NoteOnEvent(tick=0, channel=9, data=[46, 80]),
   midi.NoteOnEvent(tick=108, channel=9, data=[46, 0]),
   midi.NoteOnEvent(tick=0, channel=9, data=[46, 80]),
   midi.NoteOnEvent(tick=108, channel=9, data=[46, 0]),
   midi.NoteOnEvent(tick=0, channel=9, data=[46, 80]),
   midi.NoteOnEvent(tick=108, channel=9, data=[46, 0]),
   midi.NoteOnEvent(tick=0, channel=9, data=[46, 80]),
   midi.NoteOnEvent(tick=108, channel=9, data=[46, 0]),
   midi.NoteOnEvent(tick=0, channel=9, data=[46, 80]),
   midi.NoteOnEvent(tick=108, channel=9, data=[46, 0]),
   midi.NoteOnEvent(tick=0, channel=9, data=[46, 80]),
   midi.NoteOnEvent(tick=108, channel=9, data=[46, 0]),
   midi.NoteOnEvent(tick=0, channel=9, data=[46, 80]),
   midi.NoteOnEvent(tick=108, channel=9, data=[46, 0]),
   midi.NoteOnEvent(tick=0, channel=9, data=[46, 80]),
   midi.NoteOnEvent(tick=108, channel=9, data=[46, 0]),
   midi.NoteOnEvent(tick=0, channel=9, data=[46, 80]),
   midi.NoteOnEvent(tick=108, channel=9, data=[46, 0]),
   midi.NoteOnEvent(tick=0, channel=9, data=[46, 80]),
   midi.NoteOnEvent(tick=108, channel=9, data=[46, 0]),
   midi.NoteOnEvent(tick=0, channel=9, data=[46, 80]),
   midi.NoteOnEvent(tick=108, channel=9, data=[46, 0]),
   midi.NoteOnEvent(tick=0, channel=9, data=[46, 80]),
   midi.NoteOnEvent(tick=108, channel=9, data=[46, 0]),
   midi.NoteOnEvent(tick=0, channel=9, data=[46, 80]),
   midi.NoteOnEvent(tick=108, channel=9, data=[46, 0]),
   midi.NoteOnEvent(tick=0, channel=9, data=[46, 80]),
   midi.NoteOnEvent(tick=108, channel=9, data=[46, 0]),
   midi.NoteOnEvent(tick=0, channel=9, data=[46, 80]),
   midi.NoteOnEvent(tick=108, channel=9, data=[46, 0]),
   midi.NoteOnEvent(tick=0, channel=9, data=[46, 80]),
   midi.NoteOnEvent(tick=108, channel=9, data=[46, 0]),
   midi.NoteOnEvent(tick=0, channel=9, data=[46, 80]),
   midi.NoteOnEvent(tick=108, channel=9, data=[46, 0]),
   midi.NoteOnEvent(tick=0, channel=9, data=[46, 80]),
   midi.NoteOnEvent(tick=108, channel=9, data=[46, 0]),
   midi.NoteOnEvent(tick=0, channel=9, data=[46, 80]),
   midi.NoteOnEvent(tick=108, channel=9, data=[46, 0]),
   midi.NoteOnEvent(tick=0, channel=9, data=[46, 80]),
   midi.NoteOnEvent(tick=108, channel=9, data=[46, 0]),
   midi.NoteOnEvent(tick=0, channel=9, data=[46, 80]),
   midi.NoteOnEvent(tick=108, channel=9, data=[46, 0]),
   midi.NoteOnEvent(tick=0, channel=9, data=[46, 80]),
   midi.NoteOnEvent(tick=108, channel=9, data=[46, 0]),
   midi.NoteOnEvent(tick=0, channel=9, data=[46, 80]),
   midi.NoteOnEvent(tick=108, channel=9, data=[46, 0]),
   midi.NoteOnEvent(tick=0, channel=9, data=[46, 80]),
   midi.NoteOnEvent(tick=108, channel=9, data=[46, 0]),
   midi.NoteOnEvent(tick=0, channel=9, data=[46, 80]),
   midi.NoteOnEvent(tick=108, channel=9, data=[46, 0]),
   midi.NoteOnEvent(tick=0, channel=9, data=[46, 80]),
   midi.NoteOnEvent(tick=108, channel=9, data=[46, 0]),
   midi.NoteOnEvent(tick=0, channel=9, data=[46, 80]),
   midi.NoteOnEvent(tick=108, channel=9, data=[46, 0]),
   midi.NoteOnEvent(tick=0, channel=9, data=[46, 80]),
   midi.NoteOnEvent(tick=108, channel=9, data=[46, 0]),
   midi.NoteOnEvent(tick=0, channel=9, data=[46, 80]),
   midi.NoteOnEvent(tick=108, channel=9, data=[46, 0]),
   midi.NoteOnEvent(tick=432, channel=9, data=[46, 80]),
   midi.NoteOnEvent(tick=108, channel=9, data=[46, 0]),
   midi.NoteOnEvent(tick=0, channel=9, data=[46, 80]),
   midi.NoteOnEvent(tick=108, channel=9, data=[46, 0]),
   midi.NoteOnEvent(tick=0, channel=9, data=[46, 80]),
   midi.NoteOnEvent(tick=108, channel=9, data=[46, 0]),
   midi.NoteOnEvent(tick=0, channel=9, data=[46, 80]),
   midi.NoteOnEvent(tick=108, channel=9, data=[46, 0]),
   midi.NoteOnEvent(tick=0, channel=9, data=[46, 80]),
   midi.NoteOnEvent(tick=108, channel=9, data=[46, 0]),
   midi.NoteOnEvent(tick=0, channel=9, data=[46, 80]),
   midi.NoteOnEvent(tick=108, channel=9, data=[46, 0]),
   midi.NoteOnEvent(tick=0, channel=9, data=[46, 80]),
   midi.NoteOnEvent(tick=108, channel=9, data=[46, 0]),
   midi.NoteOnEvent(tick=0, channel=9, data=[46, 80]),
   midi.NoteOnEvent(tick=108, channel=9, data=[46, 0]),
   midi.NoteOnEvent(tick=0, channel=9, data=[46, 80]),
   midi.NoteOnEvent(tick=108, channel=9, data=[46, 0]),
   midi.NoteOnEvent(tick=0, channel=9, data=[46, 80]),
   midi.NoteOnEvent(tick=108, channel=9, data=[46, 0]),
   midi.NoteOnEvent(tick=0, channel=9, data=[46, 80]),
   midi.NoteOnEvent(tick=108, channel=9, data=[46, 0]),
   midi.NoteOnEvent(tick=0, channel=9, data=[46, 80]),
   midi.NoteOnEvent(tick=108, channel=9, data=[46, 0]),
   midi.NoteOnEvent(tick=0, channel=9, data=[46, 80]),
   midi.NoteOnEvent(tick=108, channel=9, data=[46, 0]),
   midi.NoteOnEvent(tick=0, channel=9, data=[46, 80]),
   midi.NoteOnEvent(tick=108, channel=9, data=[46, 0]),
   midi.NoteOnEvent(tick=0, channel=9, data=[46, 80]),
   midi.NoteOnEvent(tick=108, channel=9, data=[46, 0]),
   midi.NoteOnEvent(tick=0, channel=9, data=[46, 80]),
   midi.NoteOnEvent(tick=108, channel=9, data=[46, 0]),
   midi.NoteOnEvent(tick=0, channel=9, data=[46, 80]),
   midi.NoteOnEvent(tick=108, channel=9, data=[46, 0]),
   midi.NoteOnEvent(tick=0, channel=9, data=[46, 80]),
   midi.NoteOnEvent(tick=108, channel=9, data=[46, 0]),
   midi.NoteOnEvent(tick=0, channel=9, data=[46, 80]),
   midi.NoteOnEvent(tick=108, channel=9, data=[46, 0]),
   midi.NoteOnEvent(tick=0, channel=9, data=[46, 80]),
   midi.NoteOnEvent(tick=108, channel=9, data=[46, 0]),
   midi.NoteOnEvent(tick=0, channel=9, data=[46, 80]),
   midi.NoteOnEvent(tick=108, channel=9, data=[46, 0]),
   midi.NoteOnEvent(tick=0, channel=9, data=[46, 80]),
   midi.NoteOnEvent(tick=108, channel=9, data=[46, 0]),
   midi.NoteOnEvent(tick=0, channel=9, data=[46, 80]),
   midi.NoteOnEvent(tick=108, channel=9, data=[46, 0]),
   midi.NoteOnEvent(tick=0, channel=9, data=[46, 80]),
   midi.NoteOnEvent(tick=108, channel=9, data=[46, 0]),
   midi.NoteOnEvent(tick=0, channel=9, data=[46, 100]),
   midi.NoteOnEvent(tick=25, channel=9, data=[46, 0]),
   midi.NoteOnEvent(tick=83, channel=9, data=[46, 100]),
   midi.NoteOnEvent(tick=25, channel=9, data=[46, 0]),
   midi.NoteOnEvent(tick=83, channel=9, data=[46, 80]),
   midi.NoteOnEvent(tick=108, channel=9, data=[46, 0]),
   midi.NoteOnEvent(tick=0, channel=9, data=[46, 80]),
   midi.NoteOnEvent(tick=108, channel=9, data=[46, 0]),
   midi.NoteOnEvent(tick=0, channel=9, data=[46, 80]),
   midi.NoteOnEvent(tick=108, channel=9, data=[46, 0]),
   midi.NoteOnEvent(tick=0, channel=9, data=[46, 80]),
   midi.NoteOnEvent(tick=108, channel=9, data=[46, 0]),
   midi.NoteOnEvent(tick=0, channel=9, data=[46, 80]),
   midi.NoteOnEvent(tick=108, channel=9, data=[46, 0]),
   midi.NoteOnEvent(tick=0, channel=9, data=[46, 80]),
   midi.NoteOnEvent(tick=108, channel=9, data=[46, 0]),
   midi.NoteOnEvent(tick=0, channel=9, data=[46, 80]),
   midi.NoteOnEvent(tick=108, channel=9, data=[46, 0]),
   midi.NoteOnEvent(tick=0, channel=9, data=[46, 80]),
   midi.NoteOnEvent(tick=108, channel=9, data=[46, 0]),
   midi.NoteOnEvent(tick=0, channel=9, data=[46, 80]),
   midi.NoteOnEvent(tick=108, channel=9, data=[46, 0]),
   midi.NoteOnEvent(tick=0, channel=9, data=[46, 80]),
   midi.NoteOnEvent(tick=108, channel=9, data=[46, 0]),
   midi.NoteOnEvent(tick=0, channel=9, data=[46, 80]),
   midi.NoteOnEvent(tick=108, channel=9, data=[46, 0]),
   midi.NoteOnEvent(tick=0, channel=9, data=[46, 80]),
   midi.NoteOnEvent(tick=108, channel=9, data=[46, 0]),
   midi.NoteOnEvent(tick=0, channel=9, data=[46, 80]),
   midi.NoteOnEvent(tick=108, channel=9, data=[46, 0]),
   midi.NoteOnEvent(tick=0, channel=9, data=[46, 80]),
   midi.NoteOnEvent(tick=108, channel=9, data=[46, 0]),
   midi.NoteOnEvent(tick=0, channel=9, data=[46, 80]),
   midi.NoteOnEvent(tick=108, channel=9, data=[46, 0]),
   midi.NoteOnEvent(tick=0, channel=9, data=[46, 80]),
   midi.NoteOnEvent(tick=108, channel=9, data=[46, 0]),
   midi.NoteOnEvent(tick=0, channel=9, data=[46, 80]),
   midi.NoteOnEvent(tick=108, channel=9, data=[46, 0]),
   midi.NoteOnEvent(tick=0, channel=9, data=[46, 80]),
   midi.NoteOnEvent(tick=108, channel=9, data=[46, 0]),
   midi.NoteOnEvent(tick=0, channel=9, data=[46, 80]),
   midi.NoteOnEvent(tick=108, channel=9, data=[46, 0]),
   midi.NoteOnEvent(tick=0, channel=9, data=[46, 80]),
   midi.NoteOnEvent(tick=108, channel=9, data=[46, 0]),
   midi.NoteOnEvent(tick=0, channel=9, data=[46, 80]),
   midi.NoteOnEvent(tick=108, channel=9, data=[46, 0]),
   midi.NoteOnEvent(tick=0, channel=9, data=[46, 80]),
   midi.NoteOnEvent(tick=108, channel=9, data=[46, 0]),
   midi.NoteOnEvent(tick=0, channel=9, data=[46, 80]),
   midi.NoteOnEvent(tick=108, channel=9, data=[46, 0]),
   midi.NoteOnEvent(tick=0, channel=9, data=[46, 80]),
   midi.NoteOnEvent(tick=108, channel=9, data=[46, 0]),
   midi.NoteOnEvent(tick=864, channel=9, data=[46, 100]),
   midi.NoteOnEvent(tick=25, channel=9, data=[46, 0]),
   midi.NoteOnEvent(tick=83, channel=9, data=[46, 100]),
   midi.NoteOnEvent(tick=25, channel=9, data=[46, 0]),
   midi.NoteOnEvent(tick=83, channel=9, data=[46, 100]),
   midi.NoteOnEvent(tick=25, channel=9, data=[46, 0]),
   midi.NoteOnEvent(tick=83, channel=9, data=[46, 100]),
   midi.NoteOnEvent(tick=25, channel=9, data=[46, 0]),
   midi.NoteOnEvent(tick=83, channel=9, data=[46, 100]),
   midi.NoteOnEvent(tick=25, channel=9, data=[46, 0]),
   midi.NoteOnEvent(tick=83, channel=9, data=[46, 100]),
   midi.NoteOnEvent(tick=25, channel=9, data=[46, 0]),
   midi.NoteOnEvent(tick=83, channel=9, data=[46, 100]),
   midi.NoteOnEvent(tick=25, channel=9, data=[46, 0]),
   midi.NoteOnEvent(tick=83, channel=9, data=[46, 100]),
   midi.NoteOnEvent(tick=25, channel=9, data=[46, 0]),
   midi.NoteOnEvent(tick=83, channel=9, data=[46, 100]),
   midi.NoteOnEvent(tick=25, channel=9, data=[46, 0]),
   midi.NoteOnEvent(tick=83, channel=9, data=[46, 100]),
   midi.NoteOnEvent(tick=25, channel=9, data=[46, 0]),
   midi.NoteOnEvent(tick=83, channel=9, data=[46, 100]),
   midi.NoteOnEvent(tick=25, channel=9, data=[46, 0]),
   midi.NoteOnEvent(tick=83, channel=9, data=[46, 100]),
   midi.NoteOnEvent(tick=25, channel=9, data=[46, 0]),
   midi.NoteOnEvent(tick=83, channel=9, data=[46, 100]),
   midi.NoteOnEvent(tick=25, channel=9, data=[46, 0]),
   midi.NoteOnEvent(tick=83, channel=9, data=[46, 100]),
   midi.NoteOnEvent(tick=25, channel=9, data=[46, 0]),
   midi.NoteOnEvent(tick=83, channel=9, data=[46, 100]),
   midi.NoteOnEvent(tick=25, channel=9, data=[46, 0]),
   midi.NoteOnEvent(tick=83, channel=9, data=[46, 100]),
   midi.NoteOnEvent(tick=25, channel=9, data=[46, 0]),
   midi.NoteOnEvent(tick=83, channel=9, data=[46, 100]),
   midi.NoteOnEvent(tick=25, channel=9, data=[46, 0]),
   midi.NoteOnEvent(tick=83, channel=9, data=[46, 100]),
   midi.NoteOnEvent(tick=25, channel=9, data=[46, 0]),
   midi.NoteOnEvent(tick=83, channel=9, data=[46, 100]),
   midi.NoteOnEvent(tick=25, channel=9, data=[46, 0]),
   midi.NoteOnEvent(tick=83, channel=9, data=[46, 100]),
   midi.NoteOnEvent(tick=25, channel=9, data=[46, 0]),
   midi.NoteOnEvent(tick=83, channel=9, data=[46, 100]),
   midi.NoteOnEvent(tick=25, channel=9, data=[46, 0]),
   midi.NoteOnEvent(tick=83, channel=9, data=[46, 100]),
   midi.NoteOnEvent(tick=25, channel=9, data=[46, 0]),
   midi.NoteOnEvent(tick=83, channel=9, data=[46, 100]),
   midi.NoteOnEvent(tick=25, channel=9, data=[46, 0]),
   midi.NoteOnEvent(tick=83, channel=9, data=[46, 100]),
   midi.NoteOnEvent(tick=25, channel=9, data=[46, 0]),
   midi.NoteOnEvent(tick=83, channel=9, data=[46, 100]),
   midi.NoteOnEvent(tick=25, channel=9, data=[46, 0]),
   midi.NoteOnEvent(tick=83, channel=9, data=[46, 100]),
   midi.NoteOnEvent(tick=25, channel=9, data=[46, 0]),
   midi.NoteOnEvent(tick=83, channel=9, data=[46, 100]),
   midi.NoteOnEvent(tick=25, channel=9, data=[46, 0]),
   midi.NoteOnEvent(tick=83, channel=9, data=[46, 100]),
   midi.NoteOnEvent(tick=25, channel=9, data=[46, 0]),
   midi.NoteOnEvent(tick=83, channel=9, data=[46, 100]),
   midi.NoteOnEvent(tick=25, channel=9, data=[46, 0]),
   midi.NoteOnEvent(tick=83, channel=9, data=[46, 100]),
   midi.NoteOnEvent(tick=25, channel=9, data=[46, 0]),
   midi.NoteOnEvent(tick=83, channel=9, data=[46, 100]),
   midi.NoteOnEvent(tick=25, channel=9, data=[46, 0]),
   midi.NoteOnEvent(tick=83, channel=9, data=[46, 100]),
   midi.NoteOnEvent(tick=25, channel=9, data=[46, 0]),
   midi.NoteOnEvent(tick=83, channel=9, data=[46, 100]),
   midi.NoteOnEvent(tick=25, channel=9, data=[46, 0]),
   midi.NoteOnEvent(tick=83, channel=9, data=[46, 100]),
   midi.NoteOnEvent(tick=25, channel=9, data=[46, 0]),
   midi.NoteOnEvent(tick=83, channel=9, data=[46, 100]),
   midi.NoteOnEvent(tick=25, channel=9, data=[46, 0]),
   midi.NoteOnEvent(tick=83, channel=9, data=[46, 100]),
   midi.NoteOnEvent(tick=25, channel=9, data=[46, 0]),
   midi.NoteOnEvent(tick=83, channel=9, data=[46, 100]),
   midi.NoteOnEvent(tick=25, channel=9, data=[46, 0]),
   midi.NoteOnEvent(tick=83, channel=9, data=[46, 100]),
   midi.NoteOnEvent(tick=25, channel=9, data=[46, 0]),
   midi.NoteOnEvent(tick=83, channel=9, data=[46, 100]),
   midi.NoteOnEvent(tick=25, channel=9, data=[46, 0]),
   midi.NoteOnEvent(tick=83, channel=9, data=[46, 100]),
   midi.NoteOnEvent(tick=25, channel=9, data=[46, 0]),
   midi.NoteOnEvent(tick=83, channel=9, data=[46, 100]),
   midi.NoteOnEvent(tick=25, channel=9, data=[46, 0]),
   midi.NoteOnEvent(tick=83, channel=9, data=[46, 100]),
   midi.NoteOnEvent(tick=25, channel=9, data=[46, 0]),
   midi.NoteOnEvent(tick=83, channel=9, data=[46, 100]),
   midi.NoteOnEvent(tick=25, channel=9, data=[46, 0]),
   midi.NoteOnEvent(tick=83, channel=9, data=[46, 100]),
   midi.NoteOnEvent(tick=25, channel=9, data=[46, 0]),
   midi.NoteOnEvent(tick=83, channel=9, data=[46, 100]),
   midi.NoteOnEvent(tick=25, channel=9, data=[46, 0]),
   midi.NoteOnEvent(tick=83, channel=9, data=[46, 100]),
   midi.NoteOnEvent(tick=25, channel=9, data=[46, 0]),
   midi.NoteOnEvent(tick=83, channel=9, data=[46, 100]),
   midi.NoteOnEvent(tick=25, channel=9, data=[46, 0]),
   midi.NoteOnEvent(tick=83, channel=9, data=[46, 100]),
   midi.NoteOnEvent(tick=25, channel=9, data=[46, 0]),
   midi.NoteOnEvent(tick=83, channel=9, data=[46, 100]),
   midi.NoteOnEvent(tick=25, channel=9, data=[46, 0]),
   midi.NoteOnEvent(tick=83, channel=9, data=[46, 100]),
   midi.NoteOnEvent(tick=25, channel=9, data=[46, 0]),
   midi.NoteOnEvent(tick=83, channel=9, data=[46, 100]),
   midi.NoteOnEvent(tick=25, channel=9, data=[46, 0]),
   midi.NoteOnEvent(tick=83, channel=9, data=[46, 100]),
   midi.NoteOnEvent(tick=25, channel=9, data=[46, 0]),
   midi.NoteOnEvent(tick=83, channel=9, data=[46, 100]),
   midi.NoteOnEvent(tick=25, channel=9, data=[46, 0]),
   midi.NoteOnEvent(tick=83, channel=9, data=[46, 100]),
   midi.NoteOnEvent(tick=25, channel=9, data=[46, 0]),
   midi.NoteOnEvent(tick=83, channel=9, data=[46, 100]),
   midi.NoteOnEvent(tick=25, channel=9, data=[46, 0]),
   midi.NoteOnEvent(tick=83, channel=9, data=[46, 100]),
   midi.NoteOnEvent(tick=25, channel=9, data=[46, 0]),
   midi.NoteOnEvent(tick=947, channel=9, data=[46, 100]),
   midi.NoteOnEvent(tick=25, channel=9, data=[46, 0]),
   midi.NoteOnEvent(tick=83, channel=9, data=[46, 100]),
   midi.NoteOnEvent(tick=25, channel=9, data=[46, 0]),
   midi.NoteOnEvent(tick=83, channel=9, data=[46, 100]),
   midi.NoteOnEvent(tick=25, channel=9, data=[46, 0]),
   midi.NoteOnEvent(tick=83, channel=9, data=[46, 100]),
   midi.NoteOnEvent(tick=25, channel=9, data=[46, 0]),
   midi.NoteOnEvent(tick=83, channel=9, data=[46, 100]),
   midi.NoteOnEvent(tick=25, channel=9, data=[46, 0]),
   midi.NoteOnEvent(tick=83, channel=9, data=[46, 100]),
   midi.NoteOnEvent(tick=25, channel=9, data=[46, 0]),
   midi.NoteOnEvent(tick=83, channel=9, data=[46, 100]),
   midi.NoteOnEvent(tick=25, channel=9, data=[46, 0]),
   midi.NoteOnEvent(tick=83, channel=9, data=[46, 100]),
   midi.NoteOnEvent(tick=25, channel=9, data=[46, 0]),
   midi.NoteOnEvent(tick=83, channel=9, data=[46, 100]),
   midi.NoteOnEvent(tick=25, channel=9, data=[46, 0]),
   midi.NoteOnEvent(tick=83, channel=9, data=[46, 100]),
   midi.NoteOnEvent(tick=25, channel=9, data=[46, 0]),
   midi.NoteOnEvent(tick=83, channel=9, data=[46, 100]),
   midi.NoteOnEvent(tick=25, channel=9, data=[46, 0]),
   midi.NoteOnEvent(tick=83, channel=9, data=[46, 100]),
   midi.NoteOnEvent(tick=25, channel=9, data=[46, 0]),
   midi.NoteOnEvent(tick=83, channel=9, data=[46, 100]),
   midi.NoteOnEvent(tick=25, channel=9, data=[46, 0]),
   midi.NoteOnEvent(tick=83, channel=9, data=[46, 100]),
   midi.NoteOnEvent(tick=25, channel=9, data=[46, 0]),
   midi.NoteOnEvent(tick=83, channel=9, data=[46, 100]),
   midi.NoteOnEvent(tick=25, channel=9, data=[46, 0]),
   midi.NoteOnEvent(tick=83, channel=9, data=[46, 100]),
   midi.NoteOnEvent(tick=25, channel=9, data=[46, 0]),
   midi.NoteOnEvent(tick=83, channel=9, data=[46, 100]),
   midi.NoteOnEvent(tick=25, channel=9, data=[46, 0]),
   midi.NoteOnEvent(tick=83, channel=9, data=[46, 100]),
   midi.NoteOnEvent(tick=25, channel=9, data=[46, 0]),
   midi.NoteOnEvent(tick=83, channel=9, data=[46, 100]),
   midi.NoteOnEvent(tick=25, channel=9, data=[46, 0]),
   midi.NoteOnEvent(tick=83, channel=9, data=[46, 100]),
   midi.NoteOnEvent(tick=25, channel=9, data=[46, 0]),
   midi.NoteOnEvent(tick=83, channel=9, data=[46, 100]),
   midi.NoteOnEvent(tick=25, channel=9, data=[46, 0]),
   midi.NoteOnEvent(tick=83, channel=9, data=[46, 100]),
   midi.NoteOnEvent(tick=25, channel=9, data=[46, 0]),
   midi.NoteOnEvent(tick=83, channel=9, data=[46, 100]),
   midi.NoteOnEvent(tick=25, channel=9, data=[46, 0]),
   midi.NoteOnEvent(tick=83, channel=9, data=[46, 100]),
   midi.NoteOnEvent(tick=25, channel=9, data=[46, 0]),
   midi.NoteOnEvent(tick=83, channel=9, data=[46, 100]),
   midi.NoteOnEvent(tick=25, channel=9, data=[46, 0]),
   midi.NoteOnEvent(tick=83, channel=9, data=[46, 100]),
   midi.NoteOnEvent(tick=25, channel=9, data=[46, 0]),
   midi.NoteOnEvent(tick=83, channel=9, data=[46, 100]),
   midi.NoteOnEvent(tick=25, channel=9, data=[46, 0]),
   midi.NoteOnEvent(tick=83, channel=9, data=[46, 100]),
   midi.NoteOnEvent(tick=25, channel=9, data=[46, 0]),
   midi.NoteOnEvent(tick=83, channel=9, data=[46, 100]),
   midi.NoteOnEvent(tick=25, channel=9, data=[46, 0]),
   midi.NoteOnEvent(tick=83, channel=9, data=[46, 100]),
   midi.NoteOnEvent(tick=25, channel=9, data=[46, 0]),
   midi.NoteOnEvent(tick=83, channel=9, data=[46, 100]),
   midi.NoteOnEvent(tick=25, channel=9, data=[46, 0]),
   midi.NoteOnEvent(tick=83, channel=9, data=[46, 100]),
   midi.NoteOnEvent(tick=25, channel=9, data=[46, 0]),
   midi.NoteOnEvent(tick=83, channel=9, data=[46, 100]),
   midi.NoteOnEvent(tick=25, channel=9, data=[46, 0]),
   midi.NoteOnEvent(tick=83, channel=9, data=[46, 100]),
   midi.NoteOnEvent(tick=25, channel=9, data=[46, 0]),
   midi.NoteOnEvent(tick=83, channel=9, data=[46, 100]),
   midi.NoteOnEvent(tick=25, channel=9, data=[46, 0]),
   midi.NoteOnEvent(tick=83, channel=9, data=[46, 100]),
   midi.NoteOnEvent(tick=25, channel=9, data=[46, 0]),
   midi.NoteOnEvent(tick=83, channel=9, data=[46, 100]),
   midi.NoteOnEvent(tick=25, channel=9, data=[46, 0]),
   midi.NoteOnEvent(tick=83, channel=9, data=[46, 100]),
   midi.NoteOnEvent(tick=25, channel=9, data=[46, 0]),
   midi.NoteOnEvent(tick=83, channel=9, data=[46, 100]),
   midi.NoteOnEvent(tick=25, channel=9, data=[46, 0]),
   midi.NoteOnEvent(tick=83, channel=9, data=[46, 100]),
   midi.NoteOnEvent(tick=25, channel=9, data=[46, 0]),
   midi.NoteOnEvent(tick=83, channel=9, data=[46, 100]),
   midi.NoteOnEvent(tick=25, channel=9, data=[46, 0]),
   midi.NoteOnEvent(tick=83, channel=9, data=[46, 100]),
   midi.NoteOnEvent(tick=25, channel=9, data=[46, 0]),
   midi.NoteOnEvent(tick=83, channel=9, data=[46, 100]),
   midi.NoteOnEvent(tick=25, channel=9, data=[46, 0]),
   midi.NoteOnEvent(tick=83, channel=9, data=[46, 100]),
   midi.NoteOnEvent(tick=25, channel=9, data=[46, 0]),
   midi.NoteOnEvent(tick=83, channel=9, data=[46, 100]),
   midi.NoteOnEvent(tick=25, channel=9, data=[46, 0]),
   midi.NoteOnEvent(tick=83, channel=9, data=[46, 100]),
   midi.NoteOnEvent(tick=25, channel=9, data=[46, 0]),
   midi.NoteOnEvent(tick=83, channel=9, data=[46, 100]),
   midi.NoteOnEvent(tick=25, channel=9, data=[46, 0]),
   midi.NoteOnEvent(tick=83, channel=9, data=[46, 100]),
   midi.NoteOnEvent(tick=25, channel=9, data=[46, 0]),
   midi.NoteOnEvent(tick=83, channel=9, data=[46, 100]),
   midi.NoteOnEvent(tick=25, channel=9, data=[46, 0]),
   midi.NoteOnEvent(tick=83, channel=9, data=[46, 100]),
   midi.NoteOnEvent(tick=25, channel=9, data=[46, 0]),
   midi.NoteOnEvent(tick=83, channel=9, data=[46, 100]),
   midi.NoteOnEvent(tick=25, channel=9, data=[46, 0]),
   midi.NoteOnEvent(tick=83, channel=9, data=[46, 100]),
   midi.NoteOnEvent(tick=25, channel=9, data=[46, 0]),
   midi.NoteOnEvent(tick=83, channel=9, data=[46, 100]),
   midi.NoteOnEvent(tick=25, channel=9, data=[46, 0]),
   midi.NoteOnEvent(tick=83, channel=9, data=[46, 100]),
   midi.NoteOnEvent(tick=25, channel=9, data=[46, 0]),
   midi.NoteOnEvent(tick=83, channel=9, data=[46, 100]),
   midi.NoteOnEvent(tick=25, channel=9, data=[46, 0]),
   midi.NoteOnEvent(tick=83, channel=9, data=[46, 100]),
   midi.NoteOnEvent(tick=25, channel=9, data=[46, 0]),
   midi.EndOfTrackEvent(tick=0, data=[])]),
 midi.Track(\
  [midi.PortEvent(tick=0, data=[0]),
   midi.TrackNameEvent(tick=0, text='toms', data=[116, 111, 109, 115]),
   midi.ControlChangeEvent(tick=0, channel=9, data=[1, 0]),
   midi.PitchWheelEvent(tick=0, channel=9, data=[0, 64]),
   midi.ControlChangeEvent(tick=0, channel=9, data=[11, 100]),
   midi.NoteOnEvent(tick=11448, channel=9, data=[41, 100]),
   midi.NoteOnEvent(tick=0, channel=9, data=[43, 100]),
   midi.NoteOnEvent(tick=23, channel=9, data=[43, 0]),
   midi.NoteOnEvent(tick=0, channel=9, data=[41, 0]),
   midi.NoteOnEvent(tick=31, channel=9, data=[41, 100]),
   midi.NoteOnEvent(tick=0, channel=9, data=[43, 100]),
   midi.NoteOnEvent(tick=23, channel=9, data=[43, 0]),
   midi.NoteOnEvent(tick=0, channel=9, data=[41, 0]),
   midi.NoteOnEvent(tick=787, channel=9, data=[41, 100]),
   midi.NoteOnEvent(tick=0, channel=9, data=[45, 100]),
   midi.NoteOnEvent(tick=23, channel=9, data=[45, 0]),
   midi.NoteOnEvent(tick=0, channel=9, data=[41, 0]),
   midi.NoteOnEvent(tick=31, channel=9, data=[41, 100]),
   midi.NoteOnEvent(tick=0, channel=9, data=[45, 100]),
   midi.NoteOnEvent(tick=23, channel=9, data=[45, 0]),
   midi.NoteOnEvent(tick=0, channel=9, data=[41, 0]),
   midi.NoteOnEvent(tick=787, channel=9, data=[41, 100]),
   midi.NoteOnEvent(tick=0, channel=9, data=[43, 100]),
   midi.NoteOnEvent(tick=23, channel=9, data=[43, 0]),
   midi.NoteOnEvent(tick=0, channel=9, data=[41, 0]),
   midi.NoteOnEvent(tick=31, channel=9, data=[41, 100]),
   midi.NoteOnEvent(tick=0, channel=9, data=[43, 100]),
   midi.NoteOnEvent(tick=23, channel=9, data=[43, 0]),
   midi.NoteOnEvent(tick=0, channel=9, data=[41, 0]),
   midi.NoteOnEvent(tick=787, channel=9, data=[41, 100]),
   midi.NoteOnEvent(tick=0, channel=9, data=[45, 100]),
   midi.NoteOnEvent(tick=23, channel=9, data=[45, 0]),
   midi.NoteOnEvent(tick=0, channel=9, data=[41, 0]),
   midi.NoteOnEvent(tick=31, channel=9, data=[41, 100]),
   midi.NoteOnEvent(tick=0, channel=9, data=[45, 100]),
   midi.NoteOnEvent(tick=23, channel=9, data=[45, 0]),
   midi.NoteOnEvent(tick=0, channel=9, data=[41, 0]),
   midi.NoteOnEvent(tick=787, channel=9, data=[41, 100]),
   midi.NoteOnEvent(tick=0, channel=9, data=[43, 100]),
   midi.NoteOnEvent(tick=23, channel=9, data=[43, 0]),
   midi.NoteOnEvent(tick=0, channel=9, data=[41, 0]),
   midi.NoteOnEvent(tick=31, channel=9, data=[41, 100]),
   midi.NoteOnEvent(tick=0, channel=9, data=[43, 100]),
   midi.NoteOnEvent(tick=23, channel=9, data=[43, 0]),
   midi.NoteOnEvent(tick=0, channel=9, data=[41, 0]),
   midi.NoteOnEvent(tick=787, channel=9, data=[41, 100]),
   midi.NoteOnEvent(tick=0, channel=9, data=[45, 100]),
   midi.NoteOnEvent(tick=23, channel=9, data=[45, 0]),
   midi.NoteOnEvent(tick=0, channel=9, data=[41, 0]),
   midi.NoteOnEvent(tick=31, channel=9, data=[41, 100]),
   midi.NoteOnEvent(tick=0, channel=9, data=[45, 100]),
   midi.NoteOnEvent(tick=23, channel=9, data=[45, 0]),
   midi.NoteOnEvent(tick=0, channel=9, data=[41, 0]),
   midi.NoteOnEvent(tick=787, channel=9, data=[41, 100]),
   midi.NoteOnEvent(tick=0, channel=9, data=[43, 100]),
   midi.NoteOnEvent(tick=23, channel=9, data=[43, 0]),
   midi.NoteOnEvent(tick=0, channel=9, data=[41, 0]),
   midi.NoteOnEvent(tick=31, channel=9, data=[41, 100]),
   midi.NoteOnEvent(tick=0, channel=9, data=[43, 100]),
   midi.NoteOnEvent(tick=23, channel=9, data=[43, 0]),
   midi.NoteOnEvent(tick=0, channel=9, data=[41, 0]),
   midi.NoteOnEvent(tick=787, channel=9, data=[41, 100]),
   midi.NoteOnEvent(tick=0, channel=9, data=[45, 100]),
   midi.NoteOnEvent(tick=23, channel=9, data=[45, 0]),
   midi.NoteOnEvent(tick=0, channel=9, data=[41, 0]),
   midi.NoteOnEvent(tick=31, channel=9, data=[41, 100]),
   midi.NoteOnEvent(tick=0, channel=9, data=[45, 100]),
   midi.NoteOnEvent(tick=23, channel=9, data=[45, 0]),
   midi.NoteOnEvent(tick=0, channel=9, data=[41, 0]),
   midi.NoteOnEvent(tick=11263, channel=9, data=[48, 127]),
   midi.NoteOnEvent(tick=23, channel=9, data=[48, 0]),
   midi.NoteOnEvent(tick=193, channel=9, data=[47, 127]),
   midi.NoteOnEvent(tick=23, channel=9, data=[47, 0]),
   midi.NoteOnEvent(tick=193, channel=9, data=[43, 127]),
   midi.NoteOnEvent(tick=0, channel=9, data=[45, 127]),
   midi.NoteOnEvent(tick=23, channel=9, data=[45, 0]),
   midi.NoteOnEvent(tick=0, channel=9, data=[43, 0]),
   midi.NoteOnEvent(tick=5701, channel=9, data=[45, 127]),
   midi.NoteOnEvent(tick=0, channel=9, data=[48, 127]),
   midi.NoteOnEvent(tick=23, channel=9, data=[48, 0]),
   midi.NoteOnEvent(tick=0, channel=9, data=[45, 0]),
   midi.NoteOnEvent(tick=31, channel=9, data=[45, 127]),
   midi.NoteOnEvent(tick=0, channel=9, data=[48, 127]),
   midi.NoteOnEvent(tick=23, channel=9, data=[48, 0]),
   midi.NoteOnEvent(tick=0, channel=9, data=[45, 0]),
   midi.NoteOnEvent(tick=31, channel=9, data=[45, 127]),
   midi.NoteOnEvent(tick=0, channel=9, data=[48, 127]),
   midi.NoteOnEvent(tick=23, channel=9, data=[48, 0]),
   midi.NoteOnEvent(tick=0, channel=9, data=[45, 0]),
   midi.NoteOnEvent(tick=85, channel=9, data=[45, 127]),
   midi.NoteOnEvent(tick=0, channel=9, data=[41, 127]),
   midi.NoteOnEvent(tick=0, channel=9, data=[43, 127]),
   midi.NoteOnEvent(tick=23, channel=9, data=[43, 0]),
   midi.NoteOnEvent(tick=0, channel=9, data=[41, 0]),
   midi.NoteOnEvent(tick=0, channel=9, data=[45, 0]),
   midi.NoteOnEvent(tick=6241, channel=9, data=[45, 100]),
   midi.NoteOnEvent(tick=23, channel=9, data=[45, 0]),
   midi.NoteOnEvent(tick=85, channel=9, data=[45, 100]),
   midi.NoteOnEvent(tick=0, channel=9, data=[43, 127]),
   midi.NoteOnEvent(tick=23, channel=9, data=[43, 0]),
   midi.NoteOnEvent(tick=0, channel=9, data=[45, 0]),
   midi.NoteOnEvent(tick=193, channel=9, data=[43, 127]),
   midi.NoteOnEvent(tick=23, channel=9, data=[43, 0]),
   midi.NoteOnEvent(tick=193, channel=9, data=[41, 100]),
   midi.NoteOnEvent(tick=0, channel=9, data=[43, 127]),
   midi.NoteOnEvent(tick=23, channel=9, data=[43, 0]),
   midi.NoteOnEvent(tick=0, channel=9, data=[41, 0]),
   midi.NoteOnEvent(tick=193, channel=9, data=[41, 127]),
   midi.NoteOnEvent(tick=23, channel=9, data=[41, 0]),
   midi.NoteOnEvent(tick=2245, channel=9, data=[45, 127]),
   midi.NoteOnEvent(tick=23, channel=9, data=[45, 0]),
   midi.NoteOnEvent(tick=31, channel=9, data=[45, 127]),
   midi.NoteOnEvent(tick=23, channel=9, data=[45, 0]),
   midi.NoteOnEvent(tick=31, channel=9, data=[45, 127]),
   midi.NoteOnEvent(tick=23, channel=9, data=[45, 0]),
   midi.NoteOnEvent(tick=2893, channel=9, data=[45, 100]),
   midi.NoteOnEvent(tick=23, channel=9, data=[45, 0]),
   midi.NoteOnEvent(tick=85, channel=9, data=[45, 100]),
   midi.NoteOnEvent(tick=0, channel=9, data=[43, 127]),
   midi.NoteOnEvent(tick=23, channel=9, data=[43, 0]),
   midi.NoteOnEvent(tick=0, channel=9, data=[45, 0]),
   midi.NoteOnEvent(tick=193, channel=9, data=[43, 127]),
   midi.NoteOnEvent(tick=23, channel=9, data=[43, 0]),
   midi.NoteOnEvent(tick=193, channel=9, data=[41, 100]),
   midi.NoteOnEvent(tick=0, channel=9, data=[43, 127]),
   midi.NoteOnEvent(tick=23, channel=9, data=[43, 0]),
   midi.NoteOnEvent(tick=0, channel=9, data=[41, 0]),
   midi.NoteOnEvent(tick=193, channel=9, data=[41, 127]),
   midi.NoteOnEvent(tick=23, channel=9, data=[41, 0]),
   midi.NoteOnEvent(tick=2245, channel=9, data=[45, 127]),
   midi.NoteOnEvent(tick=23, channel=9, data=[45, 0]),
   midi.NoteOnEvent(tick=31, channel=9, data=[45, 127]),
   midi.NoteOnEvent(tick=23, channel=9, data=[45, 0]),
   midi.NoteOnEvent(tick=31, channel=9, data=[45, 127]),
   midi.NoteOnEvent(tick=23, channel=9, data=[45, 0]),
   midi.NoteOnEvent(tick=2245, channel=9, data=[48, 127]),
   midi.NoteOnEvent(tick=23, channel=9, data=[48, 0]),
   midi.NoteOnEvent(tick=31, channel=9, data=[48, 127]),
   midi.NoteOnEvent(tick=23, channel=9, data=[48, 0]),
   midi.NoteOnEvent(tick=31, channel=9, data=[48, 127]),
   midi.NoteOnEvent(tick=23, channel=9, data=[48, 0]),
   midi.NoteOnEvent(tick=301, channel=9, data=[47, 127]),
   midi.NoteOnEvent(tick=23, channel=9, data=[47, 0]),
   midi.NoteOnEvent(tick=31, channel=9, data=[47, 127]),
   midi.NoteOnEvent(tick=23, channel=9, data=[47, 0]),
   midi.NoteOnEvent(tick=31, channel=9, data=[47, 127]),
   midi.NoteOnEvent(tick=23, channel=9, data=[47, 0]),
   midi.NoteOnEvent(tick=301, channel=9, data=[45, 127]),
   midi.NoteOnEvent(tick=23, channel=9, data=[45, 0]),
   midi.NoteOnEvent(tick=31, channel=9, data=[45, 127]),
   midi.NoteOnEvent(tick=23, channel=9, data=[45, 0]),
   midi.NoteOnEvent(tick=31, channel=9, data=[45, 127]),
   midi.NoteOnEvent(tick=23, channel=9, data=[45, 0]),
   midi.NoteOnEvent(tick=8941, channel=9, data=[45, 127]),
   midi.NoteOnEvent(tick=23, channel=9, data=[45, 0]),
   midi.NoteOnEvent(tick=31, channel=9, data=[45, 127]),
   midi.NoteOnEvent(tick=23, channel=9, data=[45, 0]),
   midi.NoteOnEvent(tick=31, channel=9, data=[45, 127]),
   midi.NoteOnEvent(tick=23, channel=9, data=[45, 0]),
   midi.NoteOnEvent(tick=6349, channel=9, data=[45, 100]),
   midi.NoteOnEvent(tick=23, channel=9, data=[45, 0]),
   midi.NoteOnEvent(tick=85, channel=9, data=[45, 100]),
   midi.NoteOnEvent(tick=0, channel=9, data=[43, 127]),
   midi.NoteOnEvent(tick=23, channel=9, data=[43, 0]),
   midi.NoteOnEvent(tick=0, channel=9, data=[45, 0]),
   midi.NoteOnEvent(tick=193, channel=9, data=[43, 127]),
   midi.NoteOnEvent(tick=23, channel=9, data=[43, 0]),
   midi.NoteOnEvent(tick=193, channel=9, data=[41, 100]),
   midi.NoteOnEvent(tick=0, channel=9, data=[43, 127]),
   midi.NoteOnEvent(tick=23, channel=9, data=[43, 0]),
   midi.NoteOnEvent(tick=0, channel=9, data=[41, 0]),
   midi.NoteOnEvent(tick=193, channel=9, data=[41, 127]),
   midi.NoteOnEvent(tick=23, channel=9, data=[41, 0]),
   midi.NoteOnEvent(tick=5269, channel=9, data=[45, 100]),
   midi.NoteOnEvent(tick=23, channel=9, data=[45, 0]),
   midi.NoteOnEvent(tick=85, channel=9, data=[45, 100]),
   midi.NoteOnEvent(tick=0, channel=9, data=[43, 127]),
   midi.NoteOnEvent(tick=23, channel=9, data=[43, 0]),
   midi.NoteOnEvent(tick=0, channel=9, data=[45, 0]),
   midi.NoteOnEvent(tick=193, channel=9, data=[43, 127]),
   midi.NoteOnEvent(tick=23, channel=9, data=[43, 0]),
   midi.NoteOnEvent(tick=2677, channel=9, data=[45, 127]),
   midi.NoteOnEvent(tick=23, channel=9, data=[45, 0]),
   midi.NoteOnEvent(tick=31, channel=9, data=[45, 127]),
   midi.NoteOnEvent(tick=23, channel=9, data=[45, 0]),
   midi.NoteOnEvent(tick=31, channel=9, data=[45, 127]),
   midi.NoteOnEvent(tick=23, channel=9, data=[45, 0]),
   midi.NoteOnEvent(tick=2245, channel=9, data=[48, 127]),
   midi.NoteOnEvent(tick=23, channel=9, data=[48, 0]),
   midi.NoteOnEvent(tick=31, channel=9, data=[48, 127]),
   midi.NoteOnEvent(tick=23, channel=9, data=[48, 0]),
   midi.NoteOnEvent(tick=31, channel=9, data=[48, 127]),
   midi.NoteOnEvent(tick=23, channel=9, data=[48, 0]),
   midi.NoteOnEvent(tick=301, channel=9, data=[47, 127]),
   midi.NoteOnEvent(tick=23, channel=9, data=[47, 0]),
   midi.NoteOnEvent(tick=31, channel=9, data=[47, 127]),
   midi.NoteOnEvent(tick=23, channel=9, data=[47, 0]),
   midi.NoteOnEvent(tick=31, channel=9, data=[47, 127]),
   midi.NoteOnEvent(tick=23, channel=9, data=[47, 0]),
   midi.NoteOnEvent(tick=19093, channel=9, data=[43, 127]),
   midi.NoteOnEvent(tick=25, channel=9, data=[43, 0]),
   midi.NoteOnEvent(tick=83, channel=9, data=[43, 127]),
   midi.NoteOnEvent(tick=25, channel=9, data=[43, 0]),
   midi.NoteOnEvent(tick=2891, channel=9, data=[47, 127]),
   midi.NoteOnEvent(tick=25, channel=9, data=[47, 0]),
   midi.NoteOnEvent(tick=29, channel=9, data=[47, 127]),
   midi.NoteOnEvent(tick=25, channel=9, data=[47, 0]),
   midi.NoteOnEvent(tick=29, channel=9, data=[47, 127]),
   midi.NoteOnEvent(tick=25, channel=9, data=[47, 0]),
   midi.NoteOnEvent(tick=29, channel=9, data=[45, 127]),
   midi.NoteOnEvent(tick=25, channel=9, data=[45, 0]),
   midi.NoteOnEvent(tick=245, channel=9, data=[47, 127]),
   midi.NoteOnEvent(tick=25, channel=9, data=[47, 0]),
   midi.NoteOnEvent(tick=29, channel=9, data=[47, 127]),
   midi.NoteOnEvent(tick=25, channel=9, data=[47, 0]),
   midi.NoteOnEvent(tick=29, channel=9, data=[45, 127]),
   midi.NoteOnEvent(tick=25, channel=9, data=[45, 0]),
   midi.NoteOnEvent(tick=29, channel=9, data=[45, 127]),
   midi.NoteOnEvent(tick=25, channel=9, data=[45, 0]),
   midi.NoteOnEvent(tick=29, channel=9, data=[43, 127]),
   midi.NoteOnEvent(tick=25, channel=9, data=[43, 0]),
   midi.NoteOnEvent(tick=29, channel=9, data=[43, 127]),
   midi.NoteOnEvent(tick=25, channel=9, data=[43, 0]),
   midi.NoteOnEvent(tick=29, channel=9, data=[43, 127]),
   midi.NoteOnEvent(tick=25, channel=9, data=[43, 0]),
   midi.NoteOnEvent(tick=29, channel=9, data=[41, 127]),
   midi.NoteOnEvent(tick=25, channel=9, data=[41, 0]),
   midi.NoteOnEvent(tick=29, channel=9, data=[41, 127]),
   midi.NoteOnEvent(tick=25, channel=9, data=[41, 0]),
   midi.NoteOnEvent(tick=3863, channel=9, data=[43, 127]),
   midi.NoteOnEvent(tick=0, channel=9, data=[47, 127]),
   midi.NoteOnEvent(tick=23, channel=9, data=[47, 0]),
   midi.NoteOnEvent(tick=0, channel=9, data=[43, 0]),
   midi.NoteOnEvent(tick=85, channel=9, data=[43, 127]),
   midi.NoteOnEvent(tick=0, channel=9, data=[47, 127]),
   midi.NoteOnEvent(tick=23, channel=9, data=[47, 0]),
   midi.NoteOnEvent(tick=0, channel=9, data=[43, 0]),
   midi.NoteOnEvent(tick=1867, channel=9, data=[45, 110]),
   midi.NoteOnEvent(tick=25, channel=9, data=[45, 0]),
   midi.NoteOnEvent(tick=2, channel=9, data=[45, 110]),
   midi.NoteOnEvent(tick=25, channel=9, data=[45, 0]),
   midi.NoteOnEvent(tick=2, channel=9, data=[45, 110]),
   midi.NoteOnEvent(tick=25, channel=9, data=[45, 0]),
   midi.NoteOnEvent(tick=29, channel=9, data=[43, 110]),
   midi.NoteOnEvent(tick=25, channel=9, data=[43, 0]),
   midi.NoteOnEvent(tick=2, channel=9, data=[43, 100]),
   midi.NoteOnEvent(tick=25, channel=9, data=[43, 0]),
   midi.NoteOnEvent(tick=2, channel=9, data=[41, 100]),
   midi.NoteOnEvent(tick=25, channel=9, data=[41, 0]),
   midi.NoteOnEvent(tick=137, channel=9, data=[45, 110]),
   midi.NoteOnEvent(tick=25, channel=9, data=[45, 0]),
   midi.NoteOnEvent(tick=2, channel=9, data=[45, 110]),
   midi.NoteOnEvent(tick=25, channel=9, data=[45, 0]),
   midi.NoteOnEvent(tick=2, channel=9, data=[45, 110]),
   midi.NoteOnEvent(tick=25, channel=9, data=[45, 0]),
   midi.NoteOnEvent(tick=29, channel=9, data=[43, 110]),
   midi.NoteOnEvent(tick=25, channel=9, data=[43, 0]),
   midi.NoteOnEvent(tick=2, channel=9, data=[43, 100]),
   midi.NoteOnEvent(tick=25, channel=9, data=[43, 0]),
   midi.NoteOnEvent(tick=2, channel=9, data=[41, 100]),
   midi.NoteOnEvent(tick=25, channel=9, data=[41, 0]),
   midi.NoteOnEvent(tick=21683, channel=9, data=[41, 127]),
   midi.NoteOnEvent(tick=23, channel=9, data=[41, 0]),
   midi.NoteOnEvent(tick=31, channel=9, data=[41, 127]),
   midi.NoteOnEvent(tick=23, channel=9, data=[41, 0]),
   midi.NoteOnEvent(tick=31, channel=9, data=[41, 127]),
   midi.NoteOnEvent(tick=23, channel=9, data=[41, 0]),
   midi.NoteOnEvent(tick=31, channel=9, data=[41, 127]),
   midi.NoteOnEvent(tick=23, channel=9, data=[41, 0]),
   midi.NoteOnEvent(tick=1543, channel=9, data=[41, 127]),
   midi.NoteOnEvent(tick=23, channel=9, data=[41, 0]),
   midi.NoteOnEvent(tick=31, channel=9, data=[41, 127]),
   midi.NoteOnEvent(tick=23, channel=9, data=[41, 0]),
   midi.NoteOnEvent(tick=31, channel=9, data=[41, 127]),
   midi.NoteOnEvent(tick=23, channel=9, data=[41, 0]),
   midi.NoteOnEvent(tick=31, channel=9, data=[41, 127]),
   midi.NoteOnEvent(tick=23, channel=9, data=[41, 0]),
   midi.NoteOnEvent(tick=1543, channel=9, data=[41, 127]),
   midi.NoteOnEvent(tick=23, channel=9, data=[41, 0]),
   midi.NoteOnEvent(tick=31, channel=9, data=[41, 127]),
   midi.NoteOnEvent(tick=23, channel=9, data=[41, 0]),
   midi.NoteOnEvent(tick=31, channel=9, data=[41, 127]),
   midi.NoteOnEvent(tick=23, channel=9, data=[41, 0]),
   midi.NoteOnEvent(tick=31, channel=9, data=[41, 127]),
   midi.NoteOnEvent(tick=23, channel=9, data=[41, 0]),
   midi.NoteOnEvent(tick=1543, channel=9, data=[41, 127]),
   midi.NoteOnEvent(tick=23, channel=9, data=[41, 0]),
   midi.NoteOnEvent(tick=31, channel=9, data=[41, 127]),
   midi.NoteOnEvent(tick=23, channel=9, data=[41, 0]),
   midi.NoteOnEvent(tick=31, channel=9, data=[41, 127]),
   midi.NoteOnEvent(tick=23, channel=9, data=[41, 0]),
   midi.NoteOnEvent(tick=31, channel=9, data=[41, 127]),
   midi.NoteOnEvent(tick=23, channel=9, data=[41, 0]),
   midi.NoteOnEvent(tick=1543, channel=9, data=[41, 127]),
   midi.NoteOnEvent(tick=23, channel=9, data=[41, 0]),
   midi.NoteOnEvent(tick=31, channel=9, data=[41, 127]),
   midi.NoteOnEvent(tick=23, channel=9, data=[41, 0]),
   midi.NoteOnEvent(tick=31, channel=9, data=[41, 127]),
   midi.NoteOnEvent(tick=23, channel=9, data=[41, 0]),
   midi.NoteOnEvent(tick=31, channel=9, data=[41, 127]),
   midi.NoteOnEvent(tick=23, channel=9, data=[41, 0]),
   midi.NoteOnEvent(tick=1219, channel=9, data=[47, 127]),
   midi.NoteOnEvent(tick=23, channel=9, data=[47, 0]),
   midi.NoteOnEvent(tick=31, channel=9, data=[47, 127]),
   midi.NoteOnEvent(tick=23, channel=9, data=[47, 0]),
   midi.NoteOnEvent(tick=31, channel=9, data=[45, 127]),
   midi.NoteOnEvent(tick=23, channel=9, data=[45, 0]),
   midi.NoteOnEvent(tick=85, channel=9, data=[45, 127]),
   midi.NoteOnEvent(tick=23, channel=9, data=[45, 0]),
   midi.NoteOnEvent(tick=6241, channel=9, data=[45, 100]),
   midi.NoteOnEvent(tick=23, channel=9, data=[45, 0]),
   midi.NoteOnEvent(tick=85, channel=9, data=[45, 100]),
   midi.NoteOnEvent(tick=0, channel=9, data=[43, 127]),
   midi.NoteOnEvent(tick=23, channel=9, data=[43, 0]),
   midi.NoteOnEvent(tick=0, channel=9, data=[45, 0]),
   midi.NoteOnEvent(tick=193, channel=9, data=[43, 127]),
   midi.NoteOnEvent(tick=23, channel=9, data=[43, 0]),
   midi.NoteOnEvent(tick=193, channel=9, data=[41, 100]),
   midi.NoteOnEvent(tick=0, channel=9, data=[43, 127]),
   midi.NoteOnEvent(tick=23, channel=9, data=[43, 0]),
   midi.NoteOnEvent(tick=0, channel=9, data=[41, 0]),
   midi.NoteOnEvent(tick=193, channel=9, data=[41, 127]),
   midi.NoteOnEvent(tick=23, channel=9, data=[41, 0]),
   midi.NoteOnEvent(tick=2245, channel=9, data=[45, 127]),
   midi.NoteOnEvent(tick=23, channel=9, data=[45, 0]),
   midi.NoteOnEvent(tick=31, channel=9, data=[45, 127]),
   midi.NoteOnEvent(tick=23, channel=9, data=[45, 0]),
   midi.NoteOnEvent(tick=31, channel=9, data=[45, 127]),
   midi.NoteOnEvent(tick=23, channel=9, data=[45, 0]),
   midi.NoteOnEvent(tick=2893, channel=9, data=[45, 100]),
   midi.NoteOnEvent(tick=23, channel=9, data=[45, 0]),
   midi.NoteOnEvent(tick=85, channel=9, data=[45, 100]),
   midi.NoteOnEvent(tick=0, channel=9, data=[43, 127]),
   midi.NoteOnEvent(tick=23, channel=9, data=[43, 0]),
   midi.NoteOnEvent(tick=0, channel=9, data=[45, 0]),
   midi.NoteOnEvent(tick=193, channel=9, data=[43, 127]),
   midi.NoteOnEvent(tick=23, channel=9, data=[43, 0]),
   midi.NoteOnEvent(tick=193, channel=9, data=[41, 100]),
   midi.NoteOnEvent(tick=0, channel=9, data=[43, 127]),
   midi.NoteOnEvent(tick=23, channel=9, data=[43, 0]),
   midi.NoteOnEvent(tick=0, channel=9, data=[41, 0]),
   midi.NoteOnEvent(tick=193, channel=9, data=[41, 127]),
   midi.NoteOnEvent(tick=23, channel=9, data=[41, 0]),
   midi.NoteOnEvent(tick=2245, channel=9, data=[45, 127]),
   midi.NoteOnEvent(tick=23, channel=9, data=[45, 0]),
   midi.NoteOnEvent(tick=31, channel=9, data=[45, 127]),
   midi.NoteOnEvent(tick=23, channel=9, data=[45, 0]),
   midi.NoteOnEvent(tick=31, channel=9, data=[45, 127]),
   midi.NoteOnEvent(tick=23, channel=9, data=[45, 0]),
   midi.NoteOnEvent(tick=2245, channel=9, data=[48, 127]),
   midi.NoteOnEvent(tick=23, channel=9, data=[48, 0]),
   midi.NoteOnEvent(tick=31, channel=9, data=[48, 127]),
   midi.NoteOnEvent(tick=23, channel=9, data=[48, 0]),
   midi.NoteOnEvent(tick=31, channel=9, data=[48, 127]),
   midi.NoteOnEvent(tick=23, channel=9, data=[48, 0]),
   midi.NoteOnEvent(tick=301, channel=9, data=[47, 127]),
   midi.NoteOnEvent(tick=23, channel=9, data=[47, 0]),
   midi.NoteOnEvent(tick=31, channel=9, data=[47, 127]),
   midi.NoteOnEvent(tick=23, channel=9, data=[47, 0]),
   midi.NoteOnEvent(tick=31, channel=9, data=[47, 127]),
   midi.NoteOnEvent(tick=23, channel=9, data=[47, 0]),
   midi.NoteOnEvent(tick=301, channel=9, data=[45, 127]),
   midi.NoteOnEvent(tick=23, channel=9, data=[45, 0]),
   midi.NoteOnEvent(tick=31, channel=9, data=[45, 127]),
   midi.NoteOnEvent(tick=23, channel=9, data=[45, 0]),
   midi.NoteOnEvent(tick=31, channel=9, data=[45, 127]),
   midi.NoteOnEvent(tick=23, channel=9, data=[45, 0]),
   midi.EndOfTrackEvent(tick=0, data=[])]),
 midi.Track(\
  [midi.PortEvent(tick=0, data=[0]),
   midi.TrackNameEvent(tick=0, text='cymbals', data=[99, 121, 109, 98, 97, 108, 115]),
   midi.ControlChangeEvent(tick=0, channel=9, data=[1, 0]),
   midi.PitchWheelEvent(tick=0, channel=9, data=[0, 64]),
   midi.ControlChangeEvent(tick=0, channel=9, data=[11, 100]),
   midi.NoteOnEvent(tick=11232, channel=9, data=[49, 100]),
   midi.NoteOnEvent(tick=0, channel=9, data=[57, 100]),
   midi.NoteOnEvent(tick=23, channel=9, data=[57, 0]),
   midi.NoteOnEvent(tick=0, channel=9, data=[49, 0]),
   midi.NoteOnEvent(tick=301, channel=9, data=[49, 100]),
   midi.NoteOnEvent(tick=0, channel=9, data=[57, 100]),
   midi.NoteOnEvent(tick=23, channel=9, data=[57, 0]),
   midi.NoteOnEvent(tick=0, channel=9, data=[49, 0]),
   midi.NoteOnEvent(tick=517, channel=9, data=[49, 100]),
   midi.NoteOnEvent(tick=0, channel=9, data=[57, 100]),
   midi.NoteOnEvent(tick=23, channel=9, data=[57, 0]),
   midi.NoteOnEvent(tick=0, channel=9, data=[49, 0]),
   midi.NoteOnEvent(tick=301, channel=9, data=[49, 100]),
   midi.NoteOnEvent(tick=0, channel=9, data=[57, 100]),
   midi.NoteOnEvent(tick=23, channel=9, data=[57, 0]),
   midi.NoteOnEvent(tick=0, channel=9, data=[49, 0]),
   midi.NoteOnEvent(tick=517, channel=9, data=[49, 100]),
   midi.NoteOnEvent(tick=0, channel=9, data=[57, 100]),
   midi.NoteOnEvent(tick=23, channel=9, data=[57, 0]),
   midi.NoteOnEvent(tick=0, channel=9, data=[49, 0]),
   midi.NoteOnEvent(tick=301, channel=9, data=[49, 100]),
   midi.NoteOnEvent(tick=0, channel=9, data=[57, 100]),
   midi.NoteOnEvent(tick=23, channel=9, data=[57, 0]),
   midi.NoteOnEvent(tick=0, channel=9, data=[49, 0]),
   midi.NoteOnEvent(tick=517, channel=9, data=[49, 100]),
   midi.NoteOnEvent(tick=0, channel=9, data=[57, 100]),
   midi.NoteOnEvent(tick=23, channel=9, data=[57, 0]),
   midi.NoteOnEvent(tick=0, channel=9, data=[49, 0]),
   midi.NoteOnEvent(tick=301, channel=9, data=[49, 100]),
   midi.NoteOnEvent(tick=0, channel=9, data=[57, 100]),
   midi.NoteOnEvent(tick=23, channel=9, data=[57, 0]),
   midi.NoteOnEvent(tick=0, channel=9, data=[49, 0]),
   midi.NoteOnEvent(tick=517, channel=9, data=[49, 100]),
   midi.NoteOnEvent(tick=0, channel=9, data=[57, 100]),
   midi.NoteOnEvent(tick=23, channel=9, data=[57, 0]),
   midi.NoteOnEvent(tick=0, channel=9, data=[49, 0]),
   midi.NoteOnEvent(tick=301, channel=9, data=[49, 100]),
   midi.NoteOnEvent(tick=0, channel=9, data=[57, 100]),
   midi.NoteOnEvent(tick=23, channel=9, data=[57, 0]),
   midi.NoteOnEvent(tick=0, channel=9, data=[49, 0]),
   midi.NoteOnEvent(tick=517, channel=9, data=[49, 100]),
   midi.NoteOnEvent(tick=0, channel=9, data=[57, 100]),
   midi.NoteOnEvent(tick=23, channel=9, data=[57, 0]),
   midi.NoteOnEvent(tick=0, channel=9, data=[49, 0]),
   midi.NoteOnEvent(tick=301, channel=9, data=[49, 100]),
   midi.NoteOnEvent(tick=0, channel=9, data=[57, 100]),
   midi.NoteOnEvent(tick=23, channel=9, data=[57, 0]),
   midi.NoteOnEvent(tick=0, channel=9, data=[49, 0]),
   midi.NoteOnEvent(tick=517, channel=9, data=[49, 100]),
   midi.NoteOnEvent(tick=0, channel=9, data=[57, 100]),
   midi.NoteOnEvent(tick=23, channel=9, data=[57, 0]),
   midi.NoteOnEvent(tick=0, channel=9, data=[49, 0]),
   midi.NoteOnEvent(tick=301, channel=9, data=[49, 100]),
   midi.NoteOnEvent(tick=0, channel=9, data=[57, 100]),
   midi.NoteOnEvent(tick=23, channel=9, data=[57, 0]),
   midi.NoteOnEvent(tick=0, channel=9, data=[49, 0]),
   midi.NoteOnEvent(tick=517, channel=9, data=[49, 100]),
   midi.NoteOnEvent(tick=0, channel=9, data=[57, 100]),
   midi.NoteOnEvent(tick=23, channel=9, data=[57, 0]),
   midi.NoteOnEvent(tick=0, channel=9, data=[49, 0]),
   midi.NoteOnEvent(tick=301, channel=9, data=[49, 100]),
   midi.NoteOnEvent(tick=0, channel=9, data=[57, 100]),
   midi.NoteOnEvent(tick=23, channel=9, data=[57, 0]),
   midi.NoteOnEvent(tick=0, channel=9, data=[49, 0]),
   midi.NoteOnEvent(tick=517, channel=9, data=[57, 100]),
   midi.NoteOnEvent(tick=23, channel=9, data=[57, 0]),
   midi.NoteOnEvent(tick=193, channel=9, data=[49, 100]),
   midi.NoteOnEvent(tick=23, channel=9, data=[49, 0]),
   midi.NoteOnEvent(tick=193, channel=9, data=[57, 100]),
   midi.NoteOnEvent(tick=23, channel=9, data=[57, 0]),
   midi.NoteOnEvent(tick=193, channel=9, data=[49, 100]),
   midi.NoteOnEvent(tick=23, channel=9, data=[49, 0]),
   midi.NoteOnEvent(tick=193, channel=9, data=[49, 100]),
   midi.NoteOnEvent(tick=0, channel=9, data=[57, 100]),
   midi.NoteOnEvent(tick=23, channel=9, data=[57, 0]),
   midi.NoteOnEvent(tick=0, channel=9, data=[49, 0]),
   midi.NoteOnEvent(tick=3433, channel=9, data=[55, 100]),
   midi.NoteOnEvent(tick=26, channel=9, data=[55, 0]),
   midi.NoteOnEvent(tick=514, channel=9, data=[55, 100]),
   midi.NoteOnEvent(tick=26, channel=9, data=[55, 0]),
   midi.NoteOnEvent(tick=82, channel=9, data=[55, 100]),
   midi.NoteOnEvent(tick=26, channel=9, data=[55, 0]),
   midi.NoteOnEvent(tick=82, channel=9, data=[55, 100]),
   midi.NoteOnEvent(tick=26, channel=9, data=[55, 0]),
   midi.NoteOnEvent(tick=82, channel=9, data=[57, 100]),
   midi.NoteOnEvent(tick=26, channel=9, data=[57, 0]),
   midi.NoteOnEvent(tick=1810, channel=9, data=[55, 100]),
   midi.NoteOnEvent(tick=26, channel=9, data=[55, 0]),
   midi.NoteOnEvent(tick=190, channel=9, data=[55, 100]),
   midi.NoteOnEvent(tick=26, channel=9, data=[55, 0]),
   midi.NoteOnEvent(tick=190, channel=9, data=[55, 100]),
   midi.NoteOnEvent(tick=26, channel=9, data=[55, 0]),
   midi.NoteOnEvent(tick=190, channel=9, data=[55, 100]),
   midi.NoteOnEvent(tick=26, channel=9, data=[55, 0]),
   midi.NoteOnEvent(tick=82, channel=9, data=[57, 100]),
   midi.NoteOnEvent(tick=23, channel=9, data=[57, 0]),
   midi.NoteOnEvent(tick=2569, channel=9, data=[57, 100]),
   midi.NoteOnEvent(tick=25, channel=9, data=[57, 0]),
   midi.NoteOnEvent(tick=947, channel=9, data=[57, 100]),
   midi.NoteOnEvent(tick=23, channel=9, data=[57, 0]),
   midi.NoteOnEvent(tick=193, channel=9, data=[57, 100]),
   midi.NoteOnEvent(tick=23, channel=9, data=[57, 0]),
   midi.NoteOnEvent(tick=3109, channel=9, data=[49, 100]),
   midi.NoteOnEvent(tick=23, channel=9, data=[49, 0]),
   midi.NoteOnEvent(tick=841, channel=9, data=[57, 100]),
   midi.NoteOnEvent(tick=0, channel=9, data=[49, 100]),
   midi.NoteOnEvent(tick=23, channel=9, data=[49, 0]),
   midi.NoteOnEvent(tick=0, channel=9, data=[57, 0]),
   midi.NoteOnEvent(tick=841, channel=9, data=[57, 100]),
   midi.NoteOnEvent(tick=23, channel=9, data=[57, 0]),
   midi.NoteOnEvent(tick=841, channel=9, data=[57, 100]),
   midi.NoteOnEvent(tick=23, channel=9, data=[57, 0]),
   midi.NoteOnEvent(tick=3541, channel=9, data=[57, 100]),
   midi.NoteOnEvent(tick=23, channel=9, data=[57, 0]),
   midi.NoteOnEvent(tick=193, channel=9, data=[57, 100]),
   midi.NoteOnEvent(tick=23, channel=9, data=[57, 0]),
   midi.NoteOnEvent(tick=3109, channel=9, data=[49, 100]),
   midi.NoteOnEvent(tick=23, channel=9, data=[49, 0]),
   midi.NoteOnEvent(tick=841, channel=9, data=[57, 100]),
   midi.NoteOnEvent(tick=0, channel=9, data=[49, 100]),
   midi.NoteOnEvent(tick=23, channel=9, data=[49, 0]),
   midi.NoteOnEvent(tick=0, channel=9, data=[57, 0]),
   midi.NoteOnEvent(tick=841, channel=9, data=[57, 100]),
   midi.NoteOnEvent(tick=23, channel=9, data=[57, 0]),
   midi.NoteOnEvent(tick=625, channel=9, data=[57, 100]),
   midi.NoteOnEvent(tick=23, channel=9, data=[57, 0]),
   midi.NoteOnEvent(tick=193, channel=9, data=[57, 100]),
   midi.NoteOnEvent(tick=23, channel=9, data=[57, 0]),
   midi.NoteOnEvent(tick=949, channel=9, data=[57, 100]),
   midi.NoteOnEvent(tick=26, channel=9, data=[57, 0]),
   midi.NoteOnEvent(tick=190, channel=9, data=[57, 100]),
   midi.NoteOnEvent(tick=26, channel=9, data=[57, 0]),
   midi.NoteOnEvent(tick=190, channel=9, data=[57, 100]),
   midi.NoteOnEvent(tick=26, channel=9, data=[57, 0]),
   midi.NoteOnEvent(tick=190, channel=9, data=[57, 100]),
   midi.NoteOnEvent(tick=26, channel=9, data=[57, 0]),
   midi.NoteOnEvent(tick=1810, channel=9, data=[49, 100]),
   midi.NoteOnEvent(tick=23, channel=9, data=[49, 0]),
   midi.NoteOnEvent(tick=841, channel=9, data=[57, 100]),
   midi.NoteOnEvent(tick=23, channel=9, data=[57, 0]),
   midi.NoteOnEvent(tick=841, channel=9, data=[57, 100]),
   midi.NoteOnEvent(tick=23, channel=9, data=[57, 0]),
   midi.NoteOnEvent(tick=625, channel=9, data=[49, 100]),
   midi.NoteOnEvent(tick=23, channel=9, data=[49, 0]),
   midi.NoteOnEvent(tick=193, channel=9, data=[57, 100]),
   midi.NoteOnEvent(tick=23, channel=9, data=[57, 0]),
   midi.NoteOnEvent(tick=1705, channel=9, data=[57, 100]),
   midi.NoteOnEvent(tick=23, channel=9, data=[57, 0]),
   midi.NoteOnEvent(tick=409, channel=9, data=[57, 100]),
   midi.NoteOnEvent(tick=23, channel=9, data=[57, 0]),
   midi.NoteOnEvent(tick=409, channel=9, data=[57, 100]),
   midi.NoteOnEvent(tick=23, channel=9, data=[57, 0]),
   midi.NoteOnEvent(tick=409, channel=9, data=[57, 100]),
   midi.NoteOnEvent(tick=23, channel=9, data=[57, 0]),
   midi.NoteOnEvent(tick=193, channel=9, data=[57, 100]),
   midi.NoteOnEvent(tick=23, channel=9, data=[57, 0]),
   midi.NoteOnEvent(tick=193, channel=9, data=[49, 100]),
   midi.NoteOnEvent(tick=23, channel=9, data=[49, 0]),
   midi.NoteOnEvent(tick=1489, channel=9, data=[55, 100]),
   midi.NoteOnEvent(tick=26, channel=9, data=[55, 0]),
   midi.NoteOnEvent(tick=190, channel=9, data=[55, 100]),
   midi.NoteOnEvent(tick=26, channel=9, data=[55, 0]),
   midi.NoteOnEvent(tick=1054, channel=9, data=[57, 100]),
   midi.NoteOnEvent(tick=23, channel=9, data=[57, 0]),
   midi.NoteOnEvent(tick=1381, channel=9, data=[49, 100]),
   midi.NoteOnEvent(tick=26, channel=9, data=[49, 0]),
   midi.NoteOnEvent(tick=190, channel=9, data=[57, 100]),
   midi.NoteOnEvent(tick=26, channel=9, data=[57, 0]),
   midi.NoteOnEvent(tick=946, channel=9, data=[57, 100]),
   midi.NoteOnEvent(tick=23, channel=9, data=[57, 0]),
   midi.NoteOnEvent(tick=193, channel=9, data=[49, 100]),
   midi.NoteOnEvent(tick=23, channel=9, data=[49, 0]),
   midi.NoteOnEvent(tick=193, channel=9, data=[57, 100]),
   midi.NoteOnEvent(tick=23, channel=9, data=[57, 0]),
   midi.NoteOnEvent(tick=409, channel=9, data=[49, 100]),
   midi.NoteOnEvent(tick=23, channel=9, data=[49, 0]),
   midi.NoteOnEvent(tick=841, channel=9, data=[57, 100]),
   midi.NoteOnEvent(tick=23, channel=9, data=[57, 0]),
   midi.NoteOnEvent(tick=841, channel=9, data=[57, 100]),
   midi.NoteOnEvent(tick=23, channel=9, data=[57, 0]),
   midi.NoteOnEvent(tick=625, channel=9, data=[49, 100]),
   midi.NoteOnEvent(tick=23, channel=9, data=[49, 0]),
   midi.NoteOnEvent(tick=193, channel=9, data=[57, 100]),
   midi.NoteOnEvent(tick=23, channel=9, data=[57, 0]),
   midi.NoteOnEvent(tick=1813, channel=9, data=[57, 100]),
   midi.NoteOnEvent(tick=25, channel=9, data=[57, 0]),
   midi.NoteOnEvent(tick=1703, channel=9, data=[57, 100]),
   midi.NoteOnEvent(tick=23, channel=9, data=[57, 0]),
   midi.NoteOnEvent(tick=193, channel=9, data=[57, 100]),
   midi.NoteOnEvent(tick=23, channel=9, data=[57, 0]),
   midi.NoteOnEvent(tick=193, channel=9, data=[57, 100]),
   midi.NoteOnEvent(tick=23, channel=9, data=[57, 0]),
   midi.NoteOnEvent(tick=193, channel=9, data=[57, 100]),
   midi.NoteOnEvent(tick=23, channel=9, data=[57, 0]),
   midi.NoteOnEvent(tick=2677, channel=9, data=[49, 100]),
   midi.NoteOnEvent(tick=23, channel=9, data=[49, 0]),
   midi.NoteOnEvent(tick=841, channel=9, data=[57, 100]),
   midi.NoteOnEvent(tick=0, channel=9, data=[49, 100]),
   midi.NoteOnEvent(tick=23, channel=9, data=[49, 0]),
   midi.NoteOnEvent(tick=0, channel=9, data=[57, 0]),
   midi.NoteOnEvent(tick=841, channel=9, data=[57, 100]),
   midi.NoteOnEvent(tick=23, channel=9, data=[57, 0]),
   midi.NoteOnEvent(tick=625, channel=9, data=[57, 100]),
   midi.NoteOnEvent(tick=23, channel=9, data=[57, 0]),
   midi.NoteOnEvent(tick=193, channel=9, data=[57, 100]),
   midi.NoteOnEvent(tick=23, channel=9, data=[57, 0]),
   midi.NoteOnEvent(tick=1381, channel=9, data=[55, 100]),
   midi.NoteOnEvent(tick=26, channel=9, data=[55, 0]),
   midi.NoteOnEvent(tick=190, channel=9, data=[55, 100]),
   midi.NoteOnEvent(tick=26, channel=9, data=[55, 0]),
   midi.NoteOnEvent(tick=1486, channel=9, data=[55, 100]),
   midi.NoteOnEvent(tick=25, channel=9, data=[55, 0]),
   midi.NoteOnEvent(tick=191, channel=9, data=[57, 100]),
   midi.NoteOnEvent(tick=25, channel=9, data=[57, 0]),
   midi.NoteOnEvent(tick=83, channel=9, data=[49, 100]),
   midi.NoteOnEvent(tick=23, channel=9, data=[49, 0]),
   midi.NoteOnEvent(tick=841, channel=9, data=[57, 100]),
   midi.NoteOnEvent(tick=0, channel=9, data=[49, 100]),
   midi.NoteOnEvent(tick=23, channel=9, data=[49, 0]),
   midi.NoteOnEvent(tick=0, channel=9, data=[57, 0]),
   midi.NoteOnEvent(tick=841, channel=9, data=[57, 100]),
   midi.NoteOnEvent(tick=23, channel=9, data=[57, 0]),
   midi.NoteOnEvent(tick=625, channel=9, data=[49, 100]),
   midi.NoteOnEvent(tick=23, channel=9, data=[49, 0]),
   midi.NoteOnEvent(tick=193, channel=9, data=[57, 100]),
   midi.NoteOnEvent(tick=23, channel=9, data=[57, 0]),
   midi.NoteOnEvent(tick=1597, channel=9, data=[57, 100]),
   midi.NoteOnEvent(tick=26, channel=9, data=[57, 0]),
   midi.NoteOnEvent(tick=82, channel=9, data=[57, 100]),
   midi.NoteOnEvent(tick=23, channel=9, data=[57, 0]),
   midi.NoteOnEvent(tick=409, channel=9, data=[57, 100]),
   midi.NoteOnEvent(tick=23, channel=9, data=[57, 0]),
   midi.NoteOnEvent(tick=409, channel=9, data=[57, 100]),
   midi.NoteOnEvent(tick=23, channel=9, data=[57, 0]),
   midi.NoteOnEvent(tick=625, channel=9, data=[57, 100]),
   midi.NoteOnEvent(tick=23, channel=9, data=[57, 0]),
   midi.NoteOnEvent(tick=193, channel=9, data=[49, 100]),
   midi.NoteOnEvent(tick=23, channel=9, data=[49, 0]),
   midi.NoteOnEvent(tick=2245, channel=9, data=[57, 100]),
   midi.NoteOnEvent(tick=26, channel=9, data=[57, 0]),
   midi.NoteOnEvent(tick=514, channel=9, data=[57, 100]),
   midi.NoteOnEvent(tick=23, channel=9, data=[57, 0]),
   midi.NoteOnEvent(tick=1381, channel=9, data=[57, 100]),
   midi.NoteOnEvent(tick=26, channel=9, data=[57, 0]),
   midi.NoteOnEvent(tick=190, channel=9, data=[49, 100]),
   midi.NoteOnEvent(tick=26, channel=9, data=[49, 0]),
   midi.NoteOnEvent(tick=946, channel=9, data=[57, 100]),
   midi.NoteOnEvent(tick=23, channel=9, data=[57, 0]),
   midi.NoteOnEvent(tick=193, channel=9, data=[49, 100]),
   midi.NoteOnEvent(tick=23, channel=9, data=[49, 0]),
   midi.NoteOnEvent(tick=193, channel=9, data=[57, 100]),
   midi.NoteOnEvent(tick=23, channel=9, data=[57, 0]),
   midi.NoteOnEvent(tick=409, channel=9, data=[49, 100]),
   midi.NoteOnEvent(tick=0, channel=9, data=[57, 100]),
   midi.NoteOnEvent(tick=23, channel=9, data=[57, 0]),
   midi.NoteOnEvent(tick=0, channel=9, data=[49, 0]),
   midi.NoteOnEvent(tick=1705, channel=9, data=[57, 100]),
   midi.NoteOnEvent(tick=23, channel=9, data=[57, 0]),
   midi.NoteOnEvent(tick=1273, channel=9, data=[49, 100]),
   midi.NoteOnEvent(tick=23, channel=9, data=[49, 0]),
   midi.NoteOnEvent(tick=193, channel=9, data=[57, 100]),
   midi.NoteOnEvent(tick=23, channel=9, data=[57, 0]),
   midi.NoteOnEvent(tick=625, channel=9, data=[49, 100]),
   midi.NoteOnEvent(tick=23, channel=9, data=[49, 0]),
   midi.NoteOnEvent(tick=1057, channel=9, data=[49, 100]),
   midi.NoteOnEvent(tick=23, channel=9, data=[49, 0]),
   midi.NoteOnEvent(tick=193, channel=9, data=[49, 100]),
   midi.NoteOnEvent(tick=23, channel=9, data=[49, 0]),
   midi.NoteOnEvent(tick=1273, channel=9, data=[57, 100]),
   midi.NoteOnEvent(tick=23, channel=9, data=[57, 0]),
   midi.NoteOnEvent(tick=193, channel=9, data=[57, 100]),
   midi.NoteOnEvent(tick=23, channel=9, data=[57, 0]),
   midi.NoteOnEvent(tick=625, channel=9, data=[49, 100]),
   midi.NoteOnEvent(tick=23, channel=9, data=[49, 0]),
   midi.NoteOnEvent(tick=949, channel=9, data=[49, 100]),
   midi.NoteOnEvent(tick=23, channel=9, data=[49, 0]),
   midi.NoteOnEvent(tick=301, channel=9, data=[49, 100]),
   midi.NoteOnEvent(tick=0, channel=9, data=[57, 100]),
   midi.NoteOnEvent(tick=23, channel=9, data=[57, 0]),
   midi.NoteOnEvent(tick=0, channel=9, data=[49, 0]),
   midi.NoteOnEvent(tick=1273, channel=9, data=[57, 100]),
   midi.NoteOnEvent(tick=25, channel=9, data=[57, 0]),
   midi.NoteOnEvent(tick=191, channel=9, data=[52, 100]),
   midi.NoteOnEvent(tick=25, channel=9, data=[52, 0]),
   midi.NoteOnEvent(tick=1919, channel=9, data=[57, 100]),
   midi.NoteOnEvent(tick=25, channel=9, data=[57, 0]),
   midi.NoteOnEvent(tick=1271, channel=9, data=[57, 100]),
   midi.NoteOnEvent(tick=25, channel=9, data=[57, 0]),
   midi.NoteOnEvent(tick=407, channel=9, data=[49, 100]),
   midi.NoteOnEvent(tick=25, channel=9, data=[49, 0]),
   midi.NoteOnEvent(tick=2135, channel=9, data=[57, 100]),
   midi.NoteOnEvent(tick=25, channel=9, data=[57, 0]),
   midi.NoteOnEvent(tick=839, channel=9, data=[49, 100]),
   midi.NoteOnEvent(tick=25, channel=9, data=[49, 0]),
   midi.NoteOnEvent(tick=191, channel=9, data=[49, 100]),
   midi.NoteOnEvent(tick=25, channel=9, data=[49, 0]),
   midi.NoteOnEvent(tick=623, channel=9, data=[57, 100]),
   midi.NoteOnEvent(tick=25, channel=9, data=[57, 0]),
   midi.NoteOnEvent(tick=407, channel=9, data=[57, 100]),
   midi.NoteOnEvent(tick=25, channel=9, data=[57, 0]),
   midi.NoteOnEvent(tick=299, channel=9, data=[57, 100]),
   midi.NoteOnEvent(tick=25, channel=9, data=[57, 0]),
   midi.NoteOnEvent(tick=299, channel=9, data=[57, 100]),
   midi.NoteOnEvent(tick=25, channel=9, data=[57, 0]),
   midi.NoteOnEvent(tick=191, channel=9, data=[49, 100]),
   midi.NoteOnEvent(tick=25, channel=9, data=[49, 0]),
   midi.NoteOnEvent(tick=407, channel=9, data=[49, 100]),
   midi.NoteOnEvent(tick=25, channel=9, data=[49, 0]),
   midi.NoteOnEvent(tick=407, channel=9, data=[57, 100]),
   midi.NoteOnEvent(tick=23, channel=9, data=[57, 0]),
   midi.NoteOnEvent(tick=301, channel=9, data=[49, 100]),
   midi.NoteOnEvent(tick=23, channel=9, data=[49, 0]),
   midi.NoteOnEvent(tick=301, channel=9, data=[57, 100]),
   midi.NoteOnEvent(tick=23, channel=9, data=[57, 0]),
   midi.NoteOnEvent(tick=193, channel=9, data=[49, 100]),
   midi.NoteOnEvent(tick=23, channel=9, data=[49, 0]),
   midi.NoteOnEvent(tick=1489, channel=9, data=[57, 100]),
   midi.NoteOnEvent(tick=25, channel=9, data=[57, 0]),
   midi.NoteOnEvent(tick=299, channel=9, data=[55, 100]),
   midi.NoteOnEvent(tick=25, channel=9, data=[55, 0]),
   midi.NoteOnEvent(tick=191, channel=9, data=[55, 100]),
   midi.NoteOnEvent(tick=25, channel=9, data=[55, 0]),
   midi.NoteOnEvent(tick=191, channel=9, data=[55, 100]),
   midi.NoteOnEvent(tick=25, channel=9, data=[55, 0]),
   midi.NoteOnEvent(tick=191, channel=9, data=[55, 100]),
   midi.NoteOnEvent(tick=25, channel=9, data=[55, 0]),
   midi.NoteOnEvent(tick=83, channel=9, data=[57, 100]),
   midi.NoteOnEvent(tick=25, channel=9, data=[57, 0]),
   midi.NoteOnEvent(tick=2891, channel=9, data=[49, 100]),
   midi.NoteOnEvent(tick=25, channel=9, data=[49, 0]),
   midi.NoteOnEvent(tick=173, channel=9, data=[57, 100]),
   midi.NoteOnEvent(tick=25, channel=9, data=[57, 0]),
   midi.NoteOnEvent(tick=191, channel=9, data=[49, 100]),
   midi.NoteOnEvent(tick=25, channel=9, data=[49, 0]),
   midi.NoteOnEvent(tick=1073, channel=9, data=[49, 100]),
   midi.NoteOnEvent(tick=25, channel=9, data=[49, 0]),
   midi.NoteOnEvent(tick=191, channel=9, data=[49, 100]),
   midi.NoteOnEvent(tick=25, channel=9, data=[49, 0]),
   midi.NoteOnEvent(tick=2243, channel=9, data=[57, 100]),
   midi.NoteOnEvent(tick=25, channel=9, data=[57, 0]),
   midi.NoteOnEvent(tick=1811, channel=9, data=[49, 100]),
   midi.NoteOnEvent(tick=25, channel=9, data=[49, 0]),
   midi.NoteOnEvent(tick=191, channel=9, data=[49, 100]),
   midi.NoteOnEvent(tick=25, channel=9, data=[49, 0]),
   midi.NoteOnEvent(tick=191, channel=9, data=[49, 100]),
   midi.NoteOnEvent(tick=25, channel=9, data=[49, 0]),
   midi.NoteOnEvent(tick=839, channel=9, data=[57, 100]),
   midi.NoteOnEvent(tick=25, channel=9, data=[57, 0]),
   midi.NoteOnEvent(tick=191, channel=9, data=[57, 100]),
   midi.NoteOnEvent(tick=25, channel=9, data=[57, 0]),
   midi.NoteOnEvent(tick=2351, channel=9, data=[57, 100]),
   midi.NoteOnEvent(tick=25, channel=9, data=[57, 0]),
   midi.NoteOnEvent(tick=407, channel=9, data=[55, 100]),
   midi.NoteOnEvent(tick=25, channel=9, data=[55, 0]),
   midi.NoteOnEvent(tick=191, channel=9, data=[55, 100]),
   midi.NoteOnEvent(tick=25, channel=9, data=[55, 0]),
   midi.NoteOnEvent(tick=218, channel=9, data=[55, 100]),
   midi.NoteOnEvent(tick=25, channel=9, data=[55, 0]),
   midi.NoteOnEvent(tick=272, channel=9, data=[49, 100]),
   midi.NoteOnEvent(tick=23, channel=9, data=[49, 0]),
   midi.NoteOnEvent(tick=841, channel=9, data=[49, 100]),
   midi.NoteOnEvent(tick=23, channel=9, data=[49, 0]),
   midi.NoteOnEvent(tick=841, channel=9, data=[49, 100]),
   midi.NoteOnEvent(tick=23, channel=9, data=[49, 0]),
   midi.NoteOnEvent(tick=841, channel=9, data=[49, 100]),
   midi.NoteOnEvent(tick=23, channel=9, data=[49, 0]),
   midi.NoteOnEvent(tick=193, channel=9, data=[49, 100]),
   midi.NoteOnEvent(tick=25, channel=9, data=[49, 0]),
   midi.NoteOnEvent(tick=407, channel=9, data=[49, 100]),
   midi.NoteOnEvent(tick=25, channel=9, data=[49, 0]),
   midi.NoteOnEvent(tick=191, channel=9, data=[49, 100]),
   midi.NoteOnEvent(tick=23, channel=9, data=[49, 0]),
   midi.NoteOnEvent(tick=841, channel=9, data=[49, 100]),
   midi.NoteOnEvent(tick=23, channel=9, data=[49, 0]),
   midi.NoteOnEvent(tick=841, channel=9, data=[49, 100]),
   midi.NoteOnEvent(tick=23, channel=9, data=[49, 0]),
   midi.NoteOnEvent(tick=1705, channel=9, data=[57, 100]),
   midi.NoteOnEvent(tick=0, channel=9, data=[49, 100]),
   midi.NoteOnEvent(tick=23, channel=9, data=[49, 0]),
   midi.NoteOnEvent(tick=2, channel=9, data=[57, 0]),
   midi.NoteOnEvent(tick=191, channel=9, data=[57, 100]),
   midi.NoteOnEvent(tick=23, channel=9, data=[57, 0]),
   midi.NoteOnEvent(tick=193, channel=9, data=[57, 100]),
   midi.NoteOnEvent(tick=23, channel=9, data=[57, 0]),
   midi.NoteOnEvent(tick=193, channel=9, data=[57, 100]),
   midi.NoteOnEvent(tick=23, channel=9, data=[57, 0]),
   midi.NoteOnEvent(tick=193, channel=9, data=[57, 100]),
   midi.NoteOnEvent(tick=23, channel=9, data=[57, 0]),
   midi.NoteOnEvent(tick=193, channel=9, data=[57, 100]),
   midi.NoteOnEvent(tick=23, channel=9, data=[57, 0]),
   midi.NoteOnEvent(tick=193, channel=9, data=[57, 100]),
   midi.NoteOnEvent(tick=23, channel=9, data=[57, 0]),
   midi.NoteOnEvent(tick=409, channel=9, data=[49, 100]),
   midi.NoteOnEvent(tick=23, channel=9, data=[49, 0]),
   midi.NoteOnEvent(tick=193, channel=9, data=[57, 100]),
   midi.NoteOnEvent(tick=23, channel=9, data=[57, 0]),
   midi.NoteOnEvent(tick=193, channel=9, data=[49, 100]),
   midi.NoteOnEvent(tick=23, channel=9, data=[49, 0]),
   midi.NoteOnEvent(tick=193, channel=9, data=[57, 100]),
   midi.NoteOnEvent(tick=23, channel=9, data=[57, 0]),
   midi.NoteOnEvent(tick=193, channel=9, data=[49, 100]),
   midi.NoteOnEvent(tick=23, channel=9, data=[49, 0]),
   midi.NoteOnEvent(tick=193, channel=9, data=[57, 100]),
   midi.NoteOnEvent(tick=23, channel=9, data=[57, 0]),
   midi.NoteOnEvent(tick=193, channel=9, data=[57, 100]),
   midi.NoteOnEvent(tick=23, channel=9, data=[57, 0]),
   midi.NoteOnEvent(tick=409, channel=9, data=[49, 100]),
   midi.NoteOnEvent(tick=23, channel=9, data=[49, 0]),
   midi.NoteOnEvent(tick=193, channel=9, data=[57, 100]),
   midi.NoteOnEvent(tick=23, channel=9, data=[57, 0]),
   midi.NoteOnEvent(tick=193, channel=9, data=[49, 100]),
   midi.NoteOnEvent(tick=23, channel=9, data=[49, 0]),
   midi.NoteOnEvent(tick=193, channel=9, data=[57, 100]),
   midi.NoteOnEvent(tick=23, channel=9, data=[57, 0]),
   midi.NoteOnEvent(tick=193, channel=9, data=[49, 100]),
   midi.NoteOnEvent(tick=23, channel=9, data=[49, 0]),
   midi.NoteOnEvent(tick=193, channel=9, data=[57, 100]),
   midi.NoteOnEvent(tick=23, channel=9, data=[57, 0]),
   midi.NoteOnEvent(tick=193, channel=9, data=[57, 100]),
   midi.NoteOnEvent(tick=23, channel=9, data=[57, 0]),
   midi.NoteOnEvent(tick=409, channel=9, data=[49, 100]),
   midi.NoteOnEvent(tick=23, channel=9, data=[49, 0]),
   midi.NoteOnEvent(tick=193, channel=9, data=[57, 100]),
   midi.NoteOnEvent(tick=23, channel=9, data=[57, 0]),
   midi.NoteOnEvent(tick=193, channel=9, data=[49, 100]),
   midi.NoteOnEvent(tick=23, channel=9, data=[49, 0]),
   midi.NoteOnEvent(tick=193, channel=9, data=[57, 100]),
   midi.NoteOnEvent(tick=23, channel=9, data=[57, 0]),
   midi.NoteOnEvent(tick=193, channel=9, data=[57, 100]),
   midi.NoteOnEvent(tick=23, channel=9, data=[57, 0]),
   midi.NoteOnEvent(tick=193, channel=9, data=[57, 100]),
   midi.NoteOnEvent(tick=23, channel=9, data=[57, 0]),
   midi.NoteOnEvent(tick=193, channel=9, data=[57, 100]),
   midi.NoteOnEvent(tick=23, channel=9, data=[57, 0]),
   midi.NoteOnEvent(tick=409, channel=9, data=[57, 100]),
   midi.NoteOnEvent(tick=25, channel=9, data=[57, 0]),
   midi.NoteOnEvent(tick=191, channel=9, data=[49, 100]),
   midi.NoteOnEvent(tick=23, channel=9, data=[49, 0]),
   midi.NoteOnEvent(tick=85, channel=9, data=[49, 100]),
   midi.NoteOnEvent(tick=23, channel=9, data=[49, 0]),
   midi.NoteOnEvent(tick=193, channel=9, data=[49, 100]),
   midi.NoteOnEvent(tick=23, channel=9, data=[49, 0]),
   midi.NoteOnEvent(tick=85, channel=9, data=[49, 100]),
   midi.NoteOnEvent(tick=23, channel=9, data=[49, 0]),
   midi.NoteOnEvent(tick=733, channel=9, data=[49, 100]),
   midi.NoteOnEvent(tick=23, channel=9, data=[49, 0]),
   midi.NoteOnEvent(tick=193, channel=9, data=[57, 100]),
   midi.NoteOnEvent(tick=23, channel=9, data=[57, 0]),
   midi.NoteOnEvent(tick=3541, channel=9, data=[57, 100]),
   midi.NoteOnEvent(tick=23, channel=9, data=[57, 0]),
   midi.NoteOnEvent(tick=193, channel=9, data=[57, 100]),
   midi.NoteOnEvent(tick=23, channel=9, data=[57, 0]),
   midi.NoteOnEvent(tick=3109, channel=9, data=[49, 100]),
   midi.NoteOnEvent(tick=23, channel=9, data=[49, 0]),
   midi.NoteOnEvent(tick=841, channel=9, data=[57, 100]),
   midi.NoteOnEvent(tick=0, channel=9, data=[49, 100]),
   midi.NoteOnEvent(tick=23, channel=9, data=[49, 0]),
   midi.NoteOnEvent(tick=0, channel=9, data=[57, 0]),
   midi.NoteOnEvent(tick=841, channel=9, data=[57, 100]),
   midi.NoteOnEvent(tick=23, channel=9, data=[57, 0]),
   midi.NoteOnEvent(tick=625, channel=9, data=[57, 100]),
   midi.NoteOnEvent(tick=23, channel=9, data=[57, 0]),
   midi.NoteOnEvent(tick=193, channel=9, data=[57, 100]),
   midi.NoteOnEvent(tick=23, channel=9, data=[57, 0]),
   midi.NoteOnEvent(tick=3433, channel=9, data=[49, 100]),
   midi.NoteOnEvent(tick=23, channel=9, data=[49, 0]),
   midi.NoteOnEvent(tick=841, channel=9, data=[57, 100]),
   midi.NoteOnEvent(tick=0, channel=9, data=[49, 100]),
   midi.NoteOnEvent(tick=23, channel=9, data=[49, 0]),
   midi.NoteOnEvent(tick=0, channel=9, data=[57, 0]),
   midi.NoteOnEvent(tick=841, channel=9, data=[57, 100]),
   midi.NoteOnEvent(tick=23, channel=9, data=[57, 0]),
   midi.NoteOnEvent(tick=625, channel=9, data=[49, 100]),
   midi.NoteOnEvent(tick=23, channel=9, data=[49, 0]),
   midi.NoteOnEvent(tick=193, channel=9, data=[57, 100]),
   midi.NoteOnEvent(tick=23, channel=9, data=[57, 0]),
   midi.NoteOnEvent(tick=1705, channel=9, data=[57, 100]),
   midi.NoteOnEvent(tick=23, channel=9, data=[57, 0]),
   midi.NoteOnEvent(tick=409, channel=9, data=[57, 100]),
   midi.NoteOnEvent(tick=23, channel=9, data=[57, 0]),
   midi.NoteOnEvent(tick=409, channel=9, data=[57, 100]),
   midi.NoteOnEvent(tick=23, channel=9, data=[57, 0]),
   midi.NoteOnEvent(tick=409, channel=9, data=[57, 100]),
   midi.NoteOnEvent(tick=23, channel=9, data=[57, 0]),
   midi.NoteOnEvent(tick=193, channel=9, data=[57, 100]),
   midi.NoteOnEvent(tick=23, channel=9, data=[57, 0]),
   midi.NoteOnEvent(tick=193, channel=9, data=[49, 100]),
   midi.NoteOnEvent(tick=23, channel=9, data=[49, 0]),
   midi.NoteOnEvent(tick=2785, channel=9, data=[57, 100]),
   midi.NoteOnEvent(tick=23, channel=9, data=[57, 0]),
   midi.NoteOnEvent(tick=2569, channel=9, data=[57, 100]),
   midi.NoteOnEvent(tick=25, channel=9, data=[57, 0]),
   midi.NoteOnEvent(tick=191, channel=9, data=[49, 100]),
   midi.NoteOnEvent(tick=25, channel=9, data=[49, 0]),
   midi.NoteOnEvent(tick=191, channel=9, data=[57, 100]),
   midi.NoteOnEvent(tick=25, channel=9, data=[57, 0]),
   midi.NoteOnEvent(tick=2783, channel=9, data=[57, 100]),
   midi.NoteOnEvent(tick=26, channel=9, data=[57, 0]),
   midi.NoteOnEvent(tick=2566, channel=9, data=[57, 100]),
   midi.NoteOnEvent(tick=23, channel=9, data=[57, 0]),
   midi.NoteOnEvent(tick=193, channel=9, data=[49, 100]),
   midi.NoteOnEvent(tick=23, channel=9, data=[49, 0]),
   midi.NoteOnEvent(tick=193, channel=9, data=[57, 100]),
   midi.NoteOnEvent(tick=23, channel=9, data=[57, 0]),
   midi.NoteOnEvent(tick=409, channel=9, data=[57, 100]),
   midi.NoteOnEvent(tick=25, channel=9, data=[57, 0]),
   midi.NoteOnEvent(tick=1703, channel=9, data=[57, 100]),
   midi.NoteOnEvent(tick=26, channel=9, data=[57, 0]),
   midi.NoteOnEvent(tick=1702, channel=9, data=[49, 100]),
   midi.NoteOnEvent(tick=26, channel=9, data=[49, 0]),
   midi.NoteOnEvent(tick=1702, channel=9, data=[57, 100]),
   midi.NoteOnEvent(tick=26, channel=9, data=[57, 0]),
   midi.NoteOnEvent(tick=838, channel=9, data=[57, 100]),
   midi.NoteOnEvent(tick=25, channel=9, data=[57, 0]),
   midi.NoteOnEvent(tick=839, channel=9, data=[49, 100]),
   midi.NoteOnEvent(tick=25, channel=9, data=[49, 0]),
   midi.NoteOnEvent(tick=6023, channel=9, data=[49, 100]),
   midi.NoteOnEvent(tick=0, channel=9, data=[55, 100]),
   midi.NoteOnEvent(tick=0, channel=9, data=[57, 100]),
   midi.NoteOnEvent(tick=25, channel=9, data=[57, 0]),
   midi.NoteOnEvent(tick=0, channel=9, data=[55, 0]),
   midi.NoteOnEvent(tick=0, channel=9, data=[49, 0]),
   midi.NoteOnEvent(tick=1811, channel=9, data=[49, 100]),
   midi.NoteOnEvent(tick=0, channel=9, data=[57, 100]),
   midi.NoteOnEvent(tick=25, channel=9, data=[57, 0]),
   midi.NoteOnEvent(tick=0, channel=9, data=[49, 0]),
   midi.NoteOnEvent(tick=191, channel=9, data=[49, 100]),
   midi.NoteOnEvent(tick=0, channel=9, data=[57, 100]),
   midi.NoteOnEvent(tick=25, channel=9, data=[57, 0]),
   midi.NoteOnEvent(tick=0, channel=9, data=[49, 0]),
   midi.NoteOnEvent(tick=191, channel=9, data=[49, 100]),
   midi.NoteOnEvent(tick=0, channel=9, data=[57, 100]),
   midi.NoteOnEvent(tick=25, channel=9, data=[57, 0]),
   midi.NoteOnEvent(tick=0, channel=9, data=[49, 0]),
   midi.NoteOnEvent(tick=299, channel=9, data=[49, 100]),
   midi.NoteOnEvent(tick=0, channel=9, data=[57, 100]),
   midi.NoteOnEvent(tick=25, channel=9, data=[57, 0]),
   midi.NoteOnEvent(tick=0, channel=9, data=[49, 0]),
   midi.EndOfTrackEvent(tick=0, data=[])]),
 midi.Track(\
  [midi.PortEvent(tick=0, data=[0]),
   midi.TrackNameEvent(tick=0, text='Melody Line', data=[77, 101, 108, 111, 100, 121, 32, 76, 105, 110, 101]),
   midi.ProgramChangeEvent(tick=0, channel=8, data=[80]),
   midi.ControlChangeEvent(tick=0, channel=8, data=[7, 110]),
   midi.ControlChangeEvent(tick=0, channel=8, data=[10, 65]),
   midi.ControlChangeEvent(tick=0, channel=8, data=[1, 0]),
   midi.PitchWheelEvent(tick=0, channel=8, data=[0, 64]),
   midi.ControlChangeEvent(tick=0, channel=8, data=[11, 100]),
   midi.NoteOnEvent(tick=35424, channel=8, data=[76, 127]),
   midi.NoteOnEvent(tick=108, channel=8, data=[76, 0]),
   midi.NoteOnEvent(tick=0, channel=8, data=[76, 127]),
   midi.NoteOnEvent(tick=108, channel=8, data=[76, 0]),
   midi.NoteOnEvent(tick=0, channel=8, data=[76, 127]),
   midi.NoteOnEvent(tick=108, channel=8, data=[76, 0]),
   midi.NoteOnEvent(tick=0, channel=8, data=[74, 127]),
   midi.NoteOnEvent(tick=108, channel=8, data=[74, 0]),
   midi.NoteOnEvent(tick=0, channel=8, data=[76, 127]),
   midi.NoteOnEvent(tick=216, channel=8, data=[76, 0]),
   midi.NoteOnEvent(tick=0, channel=8, data=[74, 127]),
   midi.NoteOnEvent(tick=108, channel=8, data=[74, 0]),
   midi.NoteOnEvent(tick=0, channel=8, data=[74, 127]),
   midi.NoteOnEvent(tick=108, channel=8, data=[74, 0]),
   midi.NoteOnEvent(tick=0, channel=8, data=[76, 127]),
   midi.NoteOnEvent(tick=108, channel=8, data=[76, 0]),
   midi.NoteOnEvent(tick=0, channel=8, data=[76, 127]),
   midi.NoteOnEvent(tick=108, channel=8, data=[76, 0]),
   midi.NoteOnEvent(tick=0, channel=8, data=[76, 127]),
   midi.NoteOnEvent(tick=108, channel=8, data=[76, 0]),
   midi.NoteOnEvent(tick=0, channel=8, data=[71, 127]),
   midi.NoteOnEvent(tick=108, channel=8, data=[71, 0]),
   midi.NoteOnEvent(tick=0, channel=8, data=[71, 127]),
   midi.NoteOnEvent(tick=216, channel=8, data=[71, 0]),
   midi.NoteOnEvent(tick=0, channel=8, data=[74, 127]),
   midi.NoteOnEvent(tick=216, channel=8, data=[74, 0]),
   midi.NoteOnEvent(tick=0, channel=8, data=[76, 127]),
   midi.NoteOnEvent(tick=108, channel=8, data=[76, 0]),
   midi.NoteOnEvent(tick=0, channel=8, data=[76, 127]),
   midi.NoteOnEvent(tick=108, channel=8, data=[76, 0]),
   midi.NoteOnEvent(tick=0, channel=8, data=[76, 127]),
   midi.NoteOnEvent(tick=108, channel=8, data=[76, 0]),
   midi.NoteOnEvent(tick=0, channel=8, data=[74, 127]),
   midi.NoteOnEvent(tick=108, channel=8, data=[74, 0]),
   midi.NoteOnEvent(tick=0, channel=8, data=[76, 127]),
   midi.NoteOnEvent(tick=216, channel=8, data=[76, 0]),
   midi.NoteOnEvent(tick=0, channel=8, data=[74, 127]),
   midi.NoteOnEvent(tick=216, channel=8, data=[74, 0]),
   midi.NoteOnEvent(tick=0, channel=8, data=[76, 127]),
   midi.NoteOnEvent(tick=216, channel=8, data=[76, 0]),
   midi.NoteOnEvent(tick=648, channel=8, data=[76, 127]),
   midi.NoteOnEvent(tick=108, channel=8, data=[76, 0]),
   midi.NoteOnEvent(tick=0, channel=8, data=[76, 127]),
   midi.NoteOnEvent(tick=108, channel=8, data=[76, 0]),
   midi.NoteOnEvent(tick=0, channel=8, data=[76, 127]),
   midi.NoteOnEvent(tick=108, channel=8, data=[76, 0]),
   midi.NoteOnEvent(tick=0, channel=8, data=[74, 127]),
   midi.NoteOnEvent(tick=108, channel=8, data=[74, 0]),
   midi.NoteOnEvent(tick=0, channel=8, data=[76, 127]),
   midi.NoteOnEvent(tick=216, channel=8, data=[76, 0]),
   midi.NoteOnEvent(tick=0, channel=8, data=[74, 127]),
   midi.NoteOnEvent(tick=216, channel=8, data=[74, 0]),
   midi.NoteOnEvent(tick=0, channel=8, data=[76, 127]),
   midi.NoteOnEvent(tick=108, channel=8, data=[76, 0]),
   midi.NoteOnEvent(tick=0, channel=8, data=[76, 127]),
   midi.NoteOnEvent(tick=108, channel=8, data=[76, 0]),
   midi.NoteOnEvent(tick=0, channel=8, data=[76, 127]),
   midi.NoteOnEvent(tick=108, channel=8, data=[76, 0]),
   midi.NoteOnEvent(tick=0, channel=8, data=[71, 127]),
   midi.NoteOnEvent(tick=108, channel=8, data=[71, 0]),
   midi.NoteOnEvent(tick=0, channel=8, data=[71, 127]),
   midi.NoteOnEvent(tick=216, channel=8, data=[71, 0]),
   midi.NoteOnEvent(tick=0, channel=8, data=[74, 127]),
   midi.NoteOnEvent(tick=216, channel=8, data=[74, 0]),
   midi.NoteOnEvent(tick=0, channel=8, data=[76, 127]),
   midi.NoteOnEvent(tick=108, channel=8, data=[76, 0]),
   midi.NoteOnEvent(tick=0, channel=8, data=[76, 127]),
   midi.NoteOnEvent(tick=108, channel=8, data=[76, 0]),
   midi.NoteOnEvent(tick=0, channel=8, data=[76, 127]),
   midi.NoteOnEvent(tick=108, channel=8, data=[76, 0]),
   midi.NoteOnEvent(tick=0, channel=8, data=[74, 127]),
   midi.NoteOnEvent(tick=108, channel=8, data=[74, 0]),
   midi.NoteOnEvent(tick=0, channel=8, data=[76, 127]),
   midi.NoteOnEvent(tick=216, channel=8, data=[76, 0]),
   midi.NoteOnEvent(tick=0, channel=8, data=[74, 127]),
   midi.NoteOnEvent(tick=216, channel=8, data=[74, 0]),
   midi.NoteOnEvent(tick=0, channel=8, data=[76, 127]),
   midi.NoteOnEvent(tick=216, channel=8, data=[76, 0]),
   midi.NoteOnEvent(tick=648, channel=8, data=[76, 127]),
   midi.NoteOnEvent(tick=108, channel=8, data=[76, 0]),
   midi.NoteOnEvent(tick=0, channel=8, data=[76, 127]),
   midi.NoteOnEvent(tick=108, channel=8, data=[76, 0]),
   midi.NoteOnEvent(tick=0, channel=8, data=[76, 127]),
   midi.NoteOnEvent(tick=108, channel=8, data=[76, 0]),
   midi.NoteOnEvent(tick=0, channel=8, data=[74, 127]),
   midi.NoteOnEvent(tick=108, channel=8, data=[74, 0]),
   midi.NoteOnEvent(tick=0, channel=8, data=[76, 127]),
   midi.NoteOnEvent(tick=216, channel=8, data=[76, 0]),
   midi.NoteOnEvent(tick=0, channel=8, data=[74, 127]),
   midi.NoteOnEvent(tick=216, channel=8, data=[74, 0]),
   midi.NoteOnEvent(tick=0, channel=8, data=[76, 127]),
   midi.NoteOnEvent(tick=108, channel=8, data=[76, 0]),
   midi.NoteOnEvent(tick=0, channel=8, data=[76, 127]),
   midi.NoteOnEvent(tick=108, channel=8, data=[76, 0]),
   midi.NoteOnEvent(tick=0, channel=8, data=[76, 127]),
   midi.NoteOnEvent(tick=108, channel=8, data=[76, 0]),
   midi.NoteOnEvent(tick=0, channel=8, data=[74, 127]),
   midi.NoteOnEvent(tick=108, channel=8, data=[74, 0]),
   midi.NoteOnEvent(tick=0, channel=8, data=[79, 127]),
   midi.NoteOnEvent(tick=216, channel=8, data=[79, 0]),
   midi.NoteOnEvent(tick=0, channel=8, data=[78, 127]),
   midi.NoteOnEvent(tick=216, channel=8, data=[78, 0]),
   midi.NoteOnEvent(tick=0, channel=8, data=[76, 127]),
   midi.NoteOnEvent(tick=108, channel=8, data=[76, 0]),
   midi.NoteOnEvent(tick=0, channel=8, data=[76, 127]),
   midi.NoteOnEvent(tick=108, channel=8, data=[76, 0]),
   midi.NoteOnEvent(tick=0, channel=8, data=[76, 127]),
   midi.NoteOnEvent(tick=108, channel=8, data=[76, 0]),
   midi.NoteOnEvent(tick=0, channel=8, data=[74, 127]),
   midi.NoteOnEvent(tick=108, channel=8, data=[74, 0]),
   midi.NoteOnEvent(tick=0, channel=8, data=[76, 127]),
   midi.NoteOnEvent(tick=216, channel=8, data=[76, 0]),
   midi.NoteOnEvent(tick=0, channel=8, data=[74, 127]),
   midi.NoteOnEvent(tick=216, channel=8, data=[74, 0]),
   midi.NoteOnEvent(tick=0, channel=8, data=[76, 127]),
   midi.NoteOnEvent(tick=216, channel=8, data=[76, 0]),
   midi.NoteOnEvent(tick=3240, channel=8, data=[76, 127]),
   midi.NoteOnEvent(tick=108, channel=8, data=[76, 0]),
   midi.NoteOnEvent(tick=0, channel=8, data=[76, 127]),
   midi.NoteOnEvent(tick=108, channel=8, data=[76, 0]),
   midi.NoteOnEvent(tick=0, channel=8, data=[76, 127]),
   midi.NoteOnEvent(tick=108, channel=8, data=[76, 0]),
   midi.NoteOnEvent(tick=0, channel=8, data=[74, 127]),
   midi.NoteOnEvent(tick=108, channel=8, data=[74, 0]),
   midi.NoteOnEvent(tick=0, channel=8, data=[76, 127]),
   midi.NoteOnEvent(tick=216, channel=8, data=[76, 0]),
   midi.NoteOnEvent(tick=0, channel=8, data=[74, 127]),
   midi.NoteOnEvent(tick=216, channel=8, data=[74, 0]),
   midi.NoteOnEvent(tick=0, channel=8, data=[76, 127]),
   midi.NoteOnEvent(tick=108, channel=8, data=[76, 0]),
   midi.NoteOnEvent(tick=0, channel=8, data=[76, 127]),
   midi.NoteOnEvent(tick=108, channel=8, data=[76, 0]),
   midi.NoteOnEvent(tick=0, channel=8, data=[76, 127]),
   midi.NoteOnEvent(tick=108, channel=8, data=[76, 0]),
   midi.NoteOnEvent(tick=0, channel=8, data=[74, 127]),
   midi.NoteOnEvent(tick=108, channel=8, data=[74, 0]),
   midi.NoteOnEvent(tick=0, channel=8, data=[79, 127]),
   midi.NoteOnEvent(tick=216, channel=8, data=[79, 0]),
   midi.NoteOnEvent(tick=0, channel=8, data=[78, 127]),
   midi.NoteOnEvent(tick=216, channel=8, data=[78, 0]),
   midi.NoteOnEvent(tick=0, channel=8, data=[76, 127]),
   midi.NoteOnEvent(tick=108, channel=8, data=[76, 0]),
   midi.NoteOnEvent(tick=0, channel=8, data=[76, 127]),
   midi.NoteOnEvent(tick=108, channel=8, data=[76, 0]),
   midi.NoteOnEvent(tick=0, channel=8, data=[76, 127]),
   midi.NoteOnEvent(tick=108, channel=8, data=[76, 0]),
   midi.NoteOnEvent(tick=0, channel=8, data=[74, 127]),
   midi.NoteOnEvent(tick=108, channel=8, data=[74, 0]),
   midi.NoteOnEvent(tick=0, channel=8, data=[76, 127]),
   midi.NoteOnEvent(tick=216, channel=8, data=[76, 0]),
   midi.NoteOnEvent(tick=0, channel=8, data=[74, 127]),
   midi.NoteOnEvent(tick=216, channel=8, data=[74, 0]),
   midi.NoteOnEvent(tick=0, channel=8, data=[76, 127]),
   midi.NoteOnEvent(tick=216, channel=8, data=[76, 0]),
   midi.NoteOnEvent(tick=1512, channel=8, data=[76, 127]),
   midi.NoteOnEvent(tick=108, channel=8, data=[76, 0]),
   midi.NoteOnEvent(tick=0, channel=8, data=[76, 127]),
   midi.NoteOnEvent(tick=108, channel=8, data=[76, 0]),
   midi.NoteOnEvent(tick=0, channel=8, data=[76, 127]),
   midi.NoteOnEvent(tick=108, channel=8, data=[76, 0]),
   midi.NoteOnEvent(tick=0, channel=8, data=[74, 127]),
   midi.NoteOnEvent(tick=108, channel=8, data=[74, 0]),
   midi.NoteOnEvent(tick=0, channel=8, data=[76, 127]),
   midi.NoteOnEvent(tick=216, channel=8, data=[76, 0]),
   midi.NoteOnEvent(tick=0, channel=8, data=[74, 127]),
   midi.NoteOnEvent(tick=216, channel=8, data=[74, 0]),
   midi.NoteOnEvent(tick=0, channel=8, data=[76, 127]),
   midi.NoteOnEvent(tick=108, channel=8, data=[76, 0]),
   midi.NoteOnEvent(tick=0, channel=8, data=[76, 127]),
   midi.NoteOnEvent(tick=108, channel=8, data=[76, 0]),
   midi.NoteOnEvent(tick=0, channel=8, data=[76, 127]),
   midi.NoteOnEvent(tick=108, channel=8, data=[76, 0]),
   midi.NoteOnEvent(tick=0, channel=8, data=[74, 127]),
   midi.NoteOnEvent(tick=108, channel=8, data=[74, 0]),
   midi.NoteOnEvent(tick=0, channel=8, data=[76, 127]),
   midi.NoteOnEvent(tick=216, channel=8, data=[76, 0]),
   midi.NoteOnEvent(tick=0, channel=8, data=[78, 127]),
   midi.NoteOnEvent(tick=216, channel=8, data=[78, 0]),
   midi.NoteOnEvent(tick=0, channel=8, data=[79, 127]),
   midi.NoteOnEvent(tick=432, channel=8, data=[79, 0]),
   midi.NoteOnEvent(tick=2160, channel=8, data=[76, 127]),
   midi.NoteOnEvent(tick=108, channel=8, data=[76, 0]),
   midi.NoteOnEvent(tick=0, channel=8, data=[76, 127]),
   midi.NoteOnEvent(tick=108, channel=8, data=[76, 0]),
   midi.NoteOnEvent(tick=0, channel=8, data=[76, 127]),
   midi.NoteOnEvent(tick=216, channel=8, data=[76, 0]),
   midi.NoteOnEvent(tick=2376, channel=8, data=[76, 127]),
   midi.NoteOnEvent(tick=216, channel=8, data=[76, 0]),
   midi.NoteOnEvent(tick=0, channel=8, data=[77, 127]),
   midi.NoteOnEvent(tick=216, channel=8, data=[77, 0]),
   midi.NoteOnEvent(tick=0, channel=8, data=[76, 127]),
   midi.NoteOnEvent(tick=216, channel=8, data=[76, 0]),
   midi.NoteOnEvent(tick=2808, channel=8, data=[76, 127]),
   midi.NoteOnEvent(tick=108, channel=8, data=[76, 0]),
   midi.NoteOnEvent(tick=0, channel=8, data=[76, 127]),
   midi.NoteOnEvent(tick=108, channel=8, data=[76, 0]),
   midi.NoteOnEvent(tick=0, channel=8, data=[76, 127]),
   midi.NoteOnEvent(tick=108, channel=8, data=[76, 0]),
   midi.NoteOnEvent(tick=0, channel=8, data=[74, 127]),
   midi.NoteOnEvent(tick=108, channel=8, data=[74, 0]),
   midi.NoteOnEvent(tick=0, channel=8, data=[76, 127]),
   midi.NoteOnEvent(tick=216, channel=8, data=[76, 0]),
   midi.NoteOnEvent(tick=0, channel=8, data=[74, 127]),
   midi.NoteOnEvent(tick=216, channel=8, data=[74, 0]),
   midi.NoteOnEvent(tick=0, channel=8, data=[76, 127]),
   midi.NoteOnEvent(tick=108, channel=8, data=[76, 0]),
   midi.NoteOnEvent(tick=0, channel=8, data=[76, 127]),
   midi.NoteOnEvent(tick=108, channel=8, data=[76, 0]),
   midi.NoteOnEvent(tick=0, channel=8, data=[76, 127]),
   midi.NoteOnEvent(tick=216, channel=8, data=[76, 0]),
   midi.NoteOnEvent(tick=0, channel=8, data=[71, 127]),
   midi.NoteOnEvent(tick=216, channel=8, data=[71, 0]),
   midi.NoteOnEvent(tick=0, channel=8, data=[74, 127]),
   midi.NoteOnEvent(tick=216, channel=8, data=[74, 0]),
   midi.NoteOnEvent(tick=0, channel=8, data=[76, 127]),
   midi.NoteOnEvent(tick=108, channel=8, data=[76, 0]),
   midi.NoteOnEvent(tick=0, channel=8, data=[76, 127]),
   midi.NoteOnEvent(tick=108, channel=8, data=[76, 0]),
   midi.NoteOnEvent(tick=0, channel=8, data=[76, 127]),
   midi.NoteOnEvent(tick=108, channel=8, data=[76, 0]),
   midi.NoteOnEvent(tick=0, channel=8, data=[74, 127]),
   midi.NoteOnEvent(tick=108, channel=8, data=[74, 0]),
   midi.NoteOnEvent(tick=0, channel=8, data=[76, 127]),
   midi.NoteOnEvent(tick=216, channel=8, data=[76, 0]),
   midi.NoteOnEvent(tick=0, channel=8, data=[74, 127]),
   midi.NoteOnEvent(tick=216, channel=8, data=[74, 0]),
   midi.NoteOnEvent(tick=0, channel=8, data=[76, 127]),
   midi.NoteOnEvent(tick=216, channel=8, data=[76, 0]),
   midi.NoteOnEvent(tick=648, channel=8, data=[76, 127]),
   midi.NoteOnEvent(tick=108, channel=8, data=[76, 0]),
   midi.NoteOnEvent(tick=0, channel=8, data=[76, 127]),
   midi.NoteOnEvent(tick=108, channel=8, data=[76, 0]),
   midi.NoteOnEvent(tick=0, channel=8, data=[76, 127]),
   midi.NoteOnEvent(tick=108, channel=8, data=[76, 0]),
   midi.NoteOnEvent(tick=0, channel=8, data=[74, 127]),
   midi.NoteOnEvent(tick=108, channel=8, data=[74, 0]),
   midi.NoteOnEvent(tick=0, channel=8, data=[76, 127]),
   midi.NoteOnEvent(tick=216, channel=8, data=[76, 0]),
   midi.NoteOnEvent(tick=0, channel=8, data=[74, 127]),
   midi.NoteOnEvent(tick=216, channel=8, data=[74, 0]),
   midi.NoteOnEvent(tick=0, channel=8, data=[76, 127]),
   midi.NoteOnEvent(tick=108, channel=8, data=[76, 0]),
   midi.NoteOnEvent(tick=0, channel=8, data=[76, 127]),
   midi.NoteOnEvent(tick=108, channel=8, data=[76, 0]),
   midi.NoteOnEvent(tick=0, channel=8, data=[76, 127]),
   midi.NoteOnEvent(tick=108, channel=8, data=[76, 0]),
   midi.NoteOnEvent(tick=0, channel=8, data=[71, 127]),
   midi.NoteOnEvent(tick=108, channel=8, data=[71, 0]),
   midi.NoteOnEvent(tick=0, channel=8, data=[71, 127]),
   midi.NoteOnEvent(tick=216, channel=8, data=[71, 0]),
   midi.NoteOnEvent(tick=0, channel=8, data=[74, 127]),
   midi.NoteOnEvent(tick=216, channel=8, data=[74, 0]),
   midi.NoteOnEvent(tick=0, channel=8, data=[76, 127]),
   midi.NoteOnEvent(tick=108, channel=8, data=[76, 0]),
   midi.NoteOnEvent(tick=0, channel=8, data=[76, 127]),
   midi.NoteOnEvent(tick=108, channel=8, data=[76, 0]),
   midi.NoteOnEvent(tick=0, channel=8, data=[76, 127]),
   midi.NoteOnEvent(tick=108, channel=8, data=[76, 0]),
   midi.NoteOnEvent(tick=0, channel=8, data=[74, 127]),
   midi.NoteOnEvent(tick=108, channel=8, data=[74, 0]),
   midi.NoteOnEvent(tick=0, channel=8, data=[76, 127]),
   midi.NoteOnEvent(tick=216, channel=8, data=[76, 0]),
   midi.NoteOnEvent(tick=0, channel=8, data=[74, 127]),
   midi.NoteOnEvent(tick=216, channel=8, data=[74, 0]),
   midi.NoteOnEvent(tick=0, channel=8, data=[76, 127]),
   midi.NoteOnEvent(tick=216, channel=8, data=[76, 0]),
   midi.NoteOnEvent(tick=648, channel=8, data=[76, 127]),
   midi.NoteOnEvent(tick=108, channel=8, data=[76, 0]),
   midi.NoteOnEvent(tick=0, channel=8, data=[76, 127]),
   midi.NoteOnEvent(tick=108, channel=8, data=[76, 0]),
   midi.NoteOnEvent(tick=0, channel=8, data=[76, 127]),
   midi.NoteOnEvent(tick=108, channel=8, data=[76, 0]),
   midi.NoteOnEvent(tick=0, channel=8, data=[74, 127]),
   midi.NoteOnEvent(tick=108, channel=8, data=[74, 0]),
   midi.NoteOnEvent(tick=0, channel=8, data=[76, 127]),
   midi.NoteOnEvent(tick=216, channel=8, data=[76, 0]),
   midi.NoteOnEvent(tick=0, channel=8, data=[74, 127]),
   midi.NoteOnEvent(tick=216, channel=8, data=[74, 0]),
   midi.NoteOnEvent(tick=0, channel=8, data=[76, 127]),
   midi.NoteOnEvent(tick=108, channel=8, data=[76, 0]),
   midi.NoteOnEvent(tick=0, channel=8, data=[76, 127]),
   midi.NoteOnEvent(tick=108, channel=8, data=[76, 0]),
   midi.NoteOnEvent(tick=0, channel=8, data=[76, 127]),
   midi.NoteOnEvent(tick=108, channel=8, data=[76, 0]),
   midi.NoteOnEvent(tick=0, channel=8, data=[74, 127]),
   midi.NoteOnEvent(tick=108, channel=8, data=[74, 0]),
   midi.NoteOnEvent(tick=0, channel=8, data=[79, 127]),
   midi.NoteOnEvent(tick=216, channel=8, data=[79, 0]),
   midi.NoteOnEvent(tick=0, channel=8, data=[78, 127]),
   midi.NoteOnEvent(tick=216, channel=8, data=[78, 0]),
   midi.NoteOnEvent(tick=0, channel=8, data=[76, 127]),
   midi.NoteOnEvent(tick=108, channel=8, data=[76, 0]),
   midi.NoteOnEvent(tick=0, channel=8, data=[76, 127]),
   midi.NoteOnEvent(tick=108, channel=8, data=[76, 0]),
   midi.NoteOnEvent(tick=0, channel=8, data=[76, 127]),
   midi.NoteOnEvent(tick=108, channel=8, data=[76, 0]),
   midi.NoteOnEvent(tick=0, channel=8, data=[74, 127]),
   midi.NoteOnEvent(tick=108, channel=8, data=[74, 0]),
   midi.NoteOnEvent(tick=0, channel=8, data=[76, 127]),
   midi.NoteOnEvent(tick=216, channel=8, data=[76, 0]),
   midi.NoteOnEvent(tick=0, channel=8, data=[74, 127]),
   midi.NoteOnEvent(tick=216, channel=8, data=[74, 0]),
   midi.NoteOnEvent(tick=0, channel=8, data=[76, 127]),
   midi.NoteOnEvent(tick=216, channel=8, data=[76, 0]),
   midi.NoteOnEvent(tick=3240, channel=8, data=[76, 127]),
   midi.NoteOnEvent(tick=108, channel=8, data=[76, 0]),
   midi.NoteOnEvent(tick=0, channel=8, data=[76, 127]),
   midi.NoteOnEvent(tick=108, channel=8, data=[76, 0]),
   midi.NoteOnEvent(tick=0, channel=8, data=[76, 127]),
   midi.NoteOnEvent(tick=108, channel=8, data=[76, 0]),
   midi.NoteOnEvent(tick=0, channel=8, data=[74, 127]),
   midi.NoteOnEvent(tick=108, channel=8, data=[74, 0]),
   midi.NoteOnEvent(tick=0, channel=8, data=[76, 127]),
   midi.NoteOnEvent(tick=216, channel=8, data=[76, 0]),
   midi.NoteOnEvent(tick=0, channel=8, data=[74, 127]),
   midi.NoteOnEvent(tick=216, channel=8, data=[74, 0]),
   midi.NoteOnEvent(tick=0, channel=8, data=[76, 127]),
   midi.NoteOnEvent(tick=108, channel=8, data=[76, 0]),
   midi.NoteOnEvent(tick=0, channel=8, data=[76, 127]),
   midi.NoteOnEvent(tick=108, channel=8, data=[76, 0]),
   midi.NoteOnEvent(tick=0, channel=8, data=[76, 127]),
   midi.NoteOnEvent(tick=108, channel=8, data=[76, 0]),
   midi.NoteOnEvent(tick=0, channel=8, data=[74, 127]),
   midi.NoteOnEvent(tick=108, channel=8, data=[74, 0]),
   midi.NoteOnEvent(tick=0, channel=8, data=[79, 127]),
   midi.NoteOnEvent(tick=216, channel=8, data=[79, 0]),
   midi.NoteOnEvent(tick=0, channel=8, data=[78, 127]),
   midi.NoteOnEvent(tick=216, channel=8, data=[78, 0]),
   midi.NoteOnEvent(tick=0, channel=8, data=[76, 127]),
   midi.NoteOnEvent(tick=108, channel=8, data=[76, 0]),
   midi.NoteOnEvent(tick=0, channel=8, data=[76, 127]),
   midi.NoteOnEvent(tick=108, channel=8, data=[76, 0]),
   midi.NoteOnEvent(tick=0, channel=8, data=[76, 127]),
   midi.NoteOnEvent(tick=108, channel=8, data=[76, 0]),
   midi.NoteOnEvent(tick=0, channel=8, data=[74, 127]),
   midi.NoteOnEvent(tick=108, channel=8, data=[74, 0]),
   midi.NoteOnEvent(tick=0, channel=8, data=[76, 127]),
   midi.NoteOnEvent(tick=216, channel=8, data=[76, 0]),
   midi.NoteOnEvent(tick=0, channel=8, data=[74, 127]),
   midi.NoteOnEvent(tick=216, channel=8, data=[74, 0]),
   midi.NoteOnEvent(tick=0, channel=8, data=[76, 127]),
   midi.NoteOnEvent(tick=216, channel=8, data=[76, 0]),
   midi.NoteOnEvent(tick=1512, channel=8, data=[76, 127]),
   midi.NoteOnEvent(tick=108, channel=8, data=[76, 0]),
   midi.NoteOnEvent(tick=0, channel=8, data=[76, 127]),
   midi.NoteOnEvent(tick=108, channel=8, data=[76, 0]),
   midi.NoteOnEvent(tick=0, channel=8, data=[76, 127]),
   midi.NoteOnEvent(tick=108, channel=8, data=[76, 0]),
   midi.NoteOnEvent(tick=0, channel=8, data=[74, 127]),
   midi.NoteOnEvent(tick=108, channel=8, data=[74, 0]),
   midi.NoteOnEvent(tick=0, channel=8, data=[76, 127]),
   midi.NoteOnEvent(tick=216, channel=8, data=[76, 0]),
   midi.NoteOnEvent(tick=0, channel=8, data=[74, 127]),
   midi.NoteOnEvent(tick=216, channel=8, data=[74, 0]),
   midi.NoteOnEvent(tick=0, channel=8, data=[76, 127]),
   midi.NoteOnEvent(tick=108, channel=8, data=[76, 0]),
   midi.NoteOnEvent(tick=0, channel=8, data=[76, 127]),
   midi.NoteOnEvent(tick=108, channel=8, data=[76, 0]),
   midi.NoteOnEvent(tick=0, channel=8, data=[76, 127]),
   midi.NoteOnEvent(tick=108, channel=8, data=[76, 0]),
   midi.NoteOnEvent(tick=0, channel=8, data=[74, 127]),
   midi.NoteOnEvent(tick=108, channel=8, data=[74, 0]),
   midi.NoteOnEvent(tick=0, channel=8, data=[76, 127]),
   midi.NoteOnEvent(tick=216, channel=8, data=[76, 0]),
   midi.NoteOnEvent(tick=0, channel=8, data=[78, 127]),
   midi.NoteOnEvent(tick=216, channel=8, data=[78, 0]),
   midi.NoteOnEvent(tick=0, channel=8, data=[79, 127]),
   midi.NoteOnEvent(tick=432, channel=8, data=[79, 0]),
   midi.NoteOnEvent(tick=2160, channel=8, data=[76, 127]),
   midi.NoteOnEvent(tick=108, channel=8, data=[76, 0]),
   midi.NoteOnEvent(tick=0, channel=8, data=[76, 127]),
   midi.NoteOnEvent(tick=108, channel=8, data=[76, 0]),
   midi.NoteOnEvent(tick=0, channel=8, data=[76, 127]),
   midi.NoteOnEvent(tick=216, channel=8, data=[76, 0]),
   midi.NoteOnEvent(tick=2376, channel=8, data=[76, 127]),
   midi.NoteOnEvent(tick=216, channel=8, data=[76, 0]),
   midi.NoteOnEvent(tick=0, channel=8, data=[77, 127]),
   midi.NoteOnEvent(tick=216, channel=8, data=[77, 0]),
   midi.NoteOnEvent(tick=0, channel=8, data=[76, 127]),
   midi.NoteOnEvent(tick=216, channel=8, data=[76, 0]),
   midi.NoteOnEvent(tick=52812, channel=8, data=[76, 127]),
   midi.NoteOnEvent(tick=108, channel=8, data=[76, 0]),
   midi.NoteOnEvent(tick=0, channel=8, data=[76, 127]),
   midi.NoteOnEvent(tick=108, channel=8, data=[76, 0]),
   midi.NoteOnEvent(tick=0, channel=8, data=[76, 127]),
   midi.NoteOnEvent(tick=108, channel=8, data=[76, 0]),
   midi.NoteOnEvent(tick=0, channel=8, data=[74, 127]),
   midi.NoteOnEvent(tick=108, channel=8, data=[74, 0]),
   midi.NoteOnEvent(tick=0, channel=8, data=[76, 127]),
   midi.NoteOnEvent(tick=216, channel=8, data=[76, 0]),
   midi.NoteOnEvent(tick=0, channel=8, data=[74, 127]),
   midi.NoteOnEvent(tick=216, channel=8, data=[74, 0]),
   midi.NoteOnEvent(tick=0, channel=8, data=[76, 127]),
   midi.NoteOnEvent(tick=108, channel=8, data=[76, 0]),
   midi.NoteOnEvent(tick=0, channel=8, data=[76, 127]),
   midi.NoteOnEvent(tick=108, channel=8, data=[76, 0]),
   midi.NoteOnEvent(tick=0, channel=8, data=[76, 127]),
   midi.NoteOnEvent(tick=216, channel=8, data=[76, 0]),
   midi.NoteOnEvent(tick=0, channel=8, data=[71, 127]),
   midi.NoteOnEvent(tick=216, channel=8, data=[71, 0]),
   midi.NoteOnEvent(tick=0, channel=8, data=[74, 127]),
   midi.NoteOnEvent(tick=216, channel=8, data=[74, 0]),
   midi.NoteOnEvent(tick=0, channel=8, data=[76, 127]),
   midi.NoteOnEvent(tick=108, channel=8, data=[76, 0]),
   midi.NoteOnEvent(tick=0, channel=8, data=[76, 127]),
   midi.NoteOnEvent(tick=108, channel=8, data=[76, 0]),
   midi.NoteOnEvent(tick=0, channel=8, data=[76, 127]),
   midi.NoteOnEvent(tick=108, channel=8, data=[76, 0]),
   midi.NoteOnEvent(tick=0, channel=8, data=[74, 127]),
   midi.NoteOnEvent(tick=108, channel=8, data=[74, 0]),
   midi.NoteOnEvent(tick=0, channel=8, data=[76, 127]),
   midi.NoteOnEvent(tick=216, channel=8, data=[76, 0]),
   midi.NoteOnEvent(tick=0, channel=8, data=[74, 127]),
   midi.NoteOnEvent(tick=216, channel=8, data=[74, 0]),
   midi.NoteOnEvent(tick=0, channel=8, data=[76, 127]),
   midi.NoteOnEvent(tick=216, channel=8, data=[76, 0]),
   midi.NoteOnEvent(tick=648, channel=8, data=[76, 127]),
   midi.NoteOnEvent(tick=108, channel=8, data=[76, 0]),
   midi.NoteOnEvent(tick=0, channel=8, data=[76, 127]),
   midi.NoteOnEvent(tick=108, channel=8, data=[76, 0]),
   midi.NoteOnEvent(tick=0, channel=8, data=[76, 127]),
   midi.NoteOnEvent(tick=108, channel=8, data=[76, 0]),
   midi.NoteOnEvent(tick=0, channel=8, data=[74, 127]),
   midi.NoteOnEvent(tick=108, channel=8, data=[74, 0]),
   midi.NoteOnEvent(tick=0, channel=8, data=[76, 127]),
   midi.NoteOnEvent(tick=216, channel=8, data=[76, 0]),
   midi.NoteOnEvent(tick=0, channel=8, data=[74, 127]),
   midi.NoteOnEvent(tick=216, channel=8, data=[74, 0]),
   midi.NoteOnEvent(tick=0, channel=8, data=[76, 127]),
   midi.NoteOnEvent(tick=108, channel=8, data=[76, 0]),
   midi.NoteOnEvent(tick=0, channel=8, data=[76, 127]),
   midi.NoteOnEvent(tick=108, channel=8, data=[76, 0]),
   midi.NoteOnEvent(tick=0, channel=8, data=[76, 127]),
   midi.NoteOnEvent(tick=108, channel=8, data=[76, 0]),
   midi.NoteOnEvent(tick=0, channel=8, data=[71, 127]),
   midi.NoteOnEvent(tick=108, channel=8, data=[71, 0]),
   midi.NoteOnEvent(tick=0, channel=8, data=[71, 127]),
   midi.NoteOnEvent(tick=216, channel=8, data=[71, 0]),
   midi.NoteOnEvent(tick=0, channel=8, data=[74, 127]),
   midi.NoteOnEvent(tick=216, channel=8, data=[74, 0]),
   midi.NoteOnEvent(tick=0, channel=8, data=[76, 127]),
   midi.NoteOnEvent(tick=108, channel=8, data=[76, 0]),
   midi.NoteOnEvent(tick=0, channel=8, data=[76, 127]),
   midi.NoteOnEvent(tick=108, channel=8, data=[76, 0]),
   midi.NoteOnEvent(tick=0, channel=8, data=[76, 127]),
   midi.NoteOnEvent(tick=108, channel=8, data=[76, 0]),
   midi.NoteOnEvent(tick=0, channel=8, data=[74, 127]),
   midi.NoteOnEvent(tick=108, channel=8, data=[74, 0]),
   midi.NoteOnEvent(tick=0, channel=8, data=[76, 127]),
   midi.NoteOnEvent(tick=216, channel=8, data=[76, 0]),
   midi.NoteOnEvent(tick=0, channel=8, data=[74, 127]),
   midi.NoteOnEvent(tick=216, channel=8, data=[74, 0]),
   midi.NoteOnEvent(tick=0, channel=8, data=[76, 127]),
   midi.NoteOnEvent(tick=216, channel=8, data=[76, 0]),
   midi.NoteOnEvent(tick=648, channel=8, data=[76, 127]),
   midi.NoteOnEvent(tick=108, channel=8, data=[76, 0]),
   midi.NoteOnEvent(tick=0, channel=8, data=[76, 127]),
   midi.NoteOnEvent(tick=108, channel=8, data=[76, 0]),
   midi.NoteOnEvent(tick=0, channel=8, data=[76, 127]),
   midi.NoteOnEvent(tick=108, channel=8, data=[76, 0]),
   midi.NoteOnEvent(tick=0, channel=8, data=[74, 127]),
   midi.NoteOnEvent(tick=108, channel=8, data=[74, 0]),
   midi.NoteOnEvent(tick=0, channel=8, data=[76, 127]),
   midi.NoteOnEvent(tick=216, channel=8, data=[76, 0]),
   midi.NoteOnEvent(tick=0, channel=8, data=[74, 127]),
   midi.NoteOnEvent(tick=216, channel=8, data=[74, 0]),
   midi.NoteOnEvent(tick=0, channel=8, data=[76, 127]),
   midi.NoteOnEvent(tick=108, channel=8, data=[76, 0]),
   midi.NoteOnEvent(tick=0, channel=8, data=[76, 127]),
   midi.NoteOnEvent(tick=108, channel=8, data=[76, 0]),
   midi.NoteOnEvent(tick=0, channel=8, data=[76, 127]),
   midi.NoteOnEvent(tick=108, channel=8, data=[76, 0]),
   midi.NoteOnEvent(tick=0, channel=8, data=[74, 127]),
   midi.NoteOnEvent(tick=108, channel=8, data=[74, 0]),
   midi.NoteOnEvent(tick=0, channel=8, data=[79, 127]),
   midi.NoteOnEvent(tick=216, channel=8, data=[79, 0]),
   midi.NoteOnEvent(tick=0, channel=8, data=[78, 127]),
   midi.NoteOnEvent(tick=216, channel=8, data=[78, 0]),
   midi.NoteOnEvent(tick=0, channel=8, data=[76, 127]),
   midi.NoteOnEvent(tick=108, channel=8, data=[76, 0]),
   midi.NoteOnEvent(tick=0, channel=8, data=[76, 127]),
   midi.NoteOnEvent(tick=108, channel=8, data=[76, 0]),
   midi.NoteOnEvent(tick=0, channel=8, data=[76, 127]),
   midi.NoteOnEvent(tick=108, channel=8, data=[76, 0]),
   midi.NoteOnEvent(tick=0, channel=8, data=[74, 127]),
   midi.NoteOnEvent(tick=108, channel=8, data=[74, 0]),
   midi.NoteOnEvent(tick=0, channel=8, data=[76, 127]),
   midi.NoteOnEvent(tick=216, channel=8, data=[76, 0]),
   midi.NoteOnEvent(tick=0, channel=8, data=[74, 127]),
   midi.NoteOnEvent(tick=216, channel=8, data=[74, 0]),
   midi.NoteOnEvent(tick=0, channel=8, data=[76, 127]),
   midi.NoteOnEvent(tick=216, channel=8, data=[76, 0]),
   midi.NoteOnEvent(tick=3240, channel=8, data=[76, 127]),
   midi.NoteOnEvent(tick=108, channel=8, data=[76, 0]),
   midi.NoteOnEvent(tick=0, channel=8, data=[76, 127]),
   midi.NoteOnEvent(tick=108, channel=8, data=[76, 0]),
   midi.NoteOnEvent(tick=0, channel=8, data=[76, 127]),
   midi.NoteOnEvent(tick=108, channel=8, data=[76, 0]),
   midi.NoteOnEvent(tick=0, channel=8, data=[74, 127]),
   midi.NoteOnEvent(tick=108, channel=8, data=[74, 0]),
   midi.NoteOnEvent(tick=0, channel=8, data=[76, 127]),
   midi.NoteOnEvent(tick=216, channel=8, data=[76, 0]),
   midi.NoteOnEvent(tick=0, channel=8, data=[74, 127]),
   midi.NoteOnEvent(tick=216, channel=8, data=[74, 0]),
   midi.NoteOnEvent(tick=0, channel=8, data=[76, 127]),
   midi.NoteOnEvent(tick=108, channel=8, data=[76, 0]),
   midi.NoteOnEvent(tick=0, channel=8, data=[76, 127]),
   midi.NoteOnEvent(tick=108, channel=8, data=[76, 0]),
   midi.NoteOnEvent(tick=0, channel=8, data=[76, 127]),
   midi.NoteOnEvent(tick=108, channel=8, data=[76, 0]),
   midi.NoteOnEvent(tick=0, channel=8, data=[74, 127]),
   midi.NoteOnEvent(tick=108, channel=8, data=[74, 0]),
   midi.NoteOnEvent(tick=0, channel=8, data=[79, 127]),
   midi.NoteOnEvent(tick=216, channel=8, data=[79, 0]),
   midi.NoteOnEvent(tick=0, channel=8, data=[78, 127]),
   midi.NoteOnEvent(tick=216, channel=8, data=[78, 0]),
   midi.NoteOnEvent(tick=0, channel=8, data=[76, 127]),
   midi.NoteOnEvent(tick=108, channel=8, data=[76, 0]),
   midi.NoteOnEvent(tick=0, channel=8, data=[76, 127]),
   midi.NoteOnEvent(tick=108, channel=8, data=[76, 0]),
   midi.NoteOnEvent(tick=0, channel=8, data=[76, 127]),
   midi.NoteOnEvent(tick=108, channel=8, data=[76, 0]),
   midi.NoteOnEvent(tick=0, channel=8, data=[74, 127]),
   midi.NoteOnEvent(tick=108, channel=8, data=[74, 0]),
   midi.NoteOnEvent(tick=0, channel=8, data=[76, 127]),
   midi.NoteOnEvent(tick=216, channel=8, data=[76, 0]),
   midi.NoteOnEvent(tick=0, channel=8, data=[74, 127]),
   midi.NoteOnEvent(tick=216, channel=8, data=[74, 0]),
   midi.NoteOnEvent(tick=0, channel=8, data=[76, 127]),
   midi.NoteOnEvent(tick=216, channel=8, data=[76, 0]),
   midi.NoteOnEvent(tick=1512, channel=8, data=[76, 127]),
   midi.NoteOnEvent(tick=108, channel=8, data=[76, 0]),
   midi.NoteOnEvent(tick=0, channel=8, data=[76, 127]),
   midi.NoteOnEvent(tick=108, channel=8, data=[76, 0]),
   midi.NoteOnEvent(tick=0, channel=8, data=[76, 127]),
   midi.NoteOnEvent(tick=108, channel=8, data=[76, 0]),
   midi.NoteOnEvent(tick=0, channel=8, data=[74, 127]),
   midi.NoteOnEvent(tick=108, channel=8, data=[74, 0]),
   midi.NoteOnEvent(tick=0, channel=8, data=[76, 127]),
   midi.NoteOnEvent(tick=216, channel=8, data=[76, 0]),
   midi.NoteOnEvent(tick=0, channel=8, data=[74, 127]),
   midi.NoteOnEvent(tick=216, channel=8, data=[74, 0]),
   midi.NoteOnEvent(tick=0, channel=8, data=[76, 127]),
   midi.NoteOnEvent(tick=108, channel=8, data=[76, 0]),
   midi.NoteOnEvent(tick=0, channel=8, data=[76, 127]),
   midi.NoteOnEvent(tick=108, channel=8, data=[76, 0]),
   midi.NoteOnEvent(tick=0, channel=8, data=[76, 127]),
   midi.NoteOnEvent(tick=108, channel=8, data=[76, 0]),
   midi.NoteOnEvent(tick=0, channel=8, data=[74, 127]),
   midi.NoteOnEvent(tick=108, channel=8, data=[74, 0]),
   midi.NoteOnEvent(tick=0, channel=8, data=[76, 127]),
   midi.NoteOnEvent(tick=216, channel=8, data=[76, 0]),
   midi.NoteOnEvent(tick=0, channel=8, data=[78, 127]),
   midi.NoteOnEvent(tick=216, channel=8, data=[78, 0]),
   midi.NoteOnEvent(tick=0, channel=8, data=[79, 127]),
   midi.NoteOnEvent(tick=432, channel=8, data=[79, 0]),
   midi.NoteOnEvent(tick=2160, channel=8, data=[76, 127]),
   midi.NoteOnEvent(tick=108, channel=8, data=[76, 0]),
   midi.NoteOnEvent(tick=0, channel=8, data=[76, 127]),
   midi.NoteOnEvent(tick=108, channel=8, data=[76, 0]),
   midi.NoteOnEvent(tick=0, channel=8, data=[76, 127]),
   midi.NoteOnEvent(tick=216, channel=8, data=[76, 0]),
   midi.NoteOnEvent(tick=2376, channel=8, data=[76, 127]),
   midi.NoteOnEvent(tick=216, channel=8, data=[76, 0]),
   midi.NoteOnEvent(tick=0, channel=8, data=[78, 127]),
   midi.NoteOnEvent(tick=216, channel=8, data=[78, 0]),
   midi.NoteOnEvent(tick=0, channel=8, data=[76, 127]),
   midi.NoteOnEvent(tick=216, channel=8, data=[76, 0]),
   midi.NoteOnEvent(tick=2376, channel=8, data=[76, 127]),
   midi.NoteOnEvent(tick=108, channel=8, data=[76, 0]),
   midi.NoteOnEvent(tick=0, channel=8, data=[78, 127]),
   midi.NoteOnEvent(tick=108, channel=8, data=[78, 0]),
   midi.NoteOnEvent(tick=0, channel=8, data=[79, 127]),
   midi.NoteOnEvent(tick=216, channel=8, data=[79, 0]),
   midi.NoteOnEvent(tick=2376, channel=8, data=[76, 127]),
   midi.NoteOnEvent(tick=216, channel=8, data=[76, 0]),
   midi.NoteOnEvent(tick=0, channel=8, data=[77, 127]),
   midi.NoteOnEvent(tick=216, channel=8, data=[77, 0]),
   midi.NoteOnEvent(tick=0, channel=8, data=[76, 127]),
   midi.NoteOnEvent(tick=216, channel=8, data=[76, 0]),
   midi.EndOfTrackEvent(tick=0, data=[])])])