midi.Pattern(format=1, resolution=120, tracks=\
[midi.Track(\
  [midi.SequencerSpecificEvent(tick=0, data=[0, 0, 65]),
   midi.TimeSignatureEvent(tick=0, data=[3, 2, 24, 8]),
   midi.KeySignatureEvent(tick=0, data=[0, 0]),
   midi.SetTempoEvent(tick=0, data=[5, 194, 14]),
   midi.MarkerEvent(tick=0, text='Beethoven  -  Fur Elise', data=[66, 101, 101, 116, 104, 111, 118, 101, 110, 32, 32, 45, 32, 32, 70, 117, 114, 32, 69, 108, 105, 115, 101]),
   midi.SetTempoEvent(tick=11226, data=[5, 175, 191]),
   midi.SetTempoEvent(tick=4, data=[5, 184, 216]),
   midi.SetTempoEvent(tick=2, data=[5, 194, 14]),
   midi.SetTempoEvent(tick=4, data=[5, 212, 214]),
   midi.SetTempoEvent(tick=4, data=[5, 222, 103]),
   midi.SetTempoEvent(tick=4, data=[5, 232, 25]),
   midi.SetTempoEvent(tick=4, data=[5, 251, 221]),
   midi.SetTempoEvent(tick=32, data=[6, 16, 39]),
   midi.SetTempoEvent(tick=12, data=[6, 36, 253]),
   midi.SetTempoEvent(tick=12, data=[6, 47, 157]),
   midi.SetTempoEvent(tick=12, data=[6, 58, 99]),
   midi.SetTempoEvent(tick=12, data=[6, 80, 97]),
   midi.SetTempoEvent(tick=32, data=[6, 102, 252]),
   midi.SetTempoEvent(tick=12, data=[6, 126, 60]),
   midi.SetTempoEvent(tick=24, data=[6, 150, 39]),
   midi.SetTempoEvent(tick=16, data=[6, 162, 95]),
   midi.SetTempoEvent(tick=12, data=[6, 174, 196]),
   midi.SetTempoEvent(tick=16, data=[6, 200, 28]),
   midi.SetTempoEvent(tick=24, data=[6, 226, 56]),
   midi.SetTempoEvent(tick=12, data=[6, 239, 145]),
   midi.SetTempoEvent(tick=12, data=[6, 253, 31]),
   midi.SetTempoEvent(tick=12, data=[7, 24, 220]),
   midi.SetTempoEvent(tick=12, data=[7, 39, 14]),
   midi.SetTempoEvent(tick=4, data=[7, 53, 121]),
   midi.SetTempoEvent(tick=12, data=[7, 83, 0]),
   midi.SetTempoEvent(tick=8, data=[7, 98, 31]),
   midi.SetTempoEvent(tick=4, data=[7, 113, 125]),
   midi.SetTempoEvent(tick=8, data=[7, 144, 252]),
   midi.SetTempoEvent(tick=16, data=[7, 177, 138]),
   midi.SetTempoEvent(tick=8, data=[7, 211, 53]),
   midi.SetTempoEvent(tick=8, data=[7, 228, 121]),
   midi.SetTempoEvent(tick=12, data=[7, 246, 11]),
   midi.SetTempoEvent(tick=4, data=[8, 7, 236]),
   midi.SetTempoEvent(tick=12, data=[8, 26, 29]),
   midi.SetTempoEvent(tick=12, data=[8, 63, 125]),
   midi.SetTempoEvent(tick=8, data=[8, 102, 59]),
   midi.SetTempoEvent(tick=16, data=[8, 122, 36]),
   midi.SetTempoEvent(tick=4, data=[8, 142, 108]),
   midi.SetTempoEvent(tick=6, data=[8, 163, 22]),
   midi.SetTempoEvent(tick=4, data=[8, 184, 37]),
   midi.SetTempoEvent(tick=6, data=[8, 205, 155]),
   midi.SetTempoEvent(tick=6, data=[8, 227, 124]),
   midi.SetTempoEvent(tick=18, data=[6, 138, 27]),
   midi.SetTempoEvent(tick=5832, data=[6, 126, 60]),
   midi.SetTempoEvent(tick=28, data=[6, 114, 135]),
   midi.SetTempoEvent(tick=4, data=[6, 102, 252]),
   midi.SetTempoEvent(tick=60, data=[6, 91, 155]),
   midi.SetTempoEvent(tick=4, data=[6, 80, 97]),
   midi.SetTempoEvent(tick=20, data=[6, 69, 79]),
   midi.SetTempoEvent(tick=4, data=[6, 58, 99]),
   midi.SetTempoEvent(tick=14, data=[6, 47, 157]),
   midi.SetTempoEvent(tick=4, data=[6, 36, 253]),
   midi.SetTempoEvent(tick=6, data=[6, 26, 128]),
   midi.SetTempoEvent(tick=6, data=[6, 16, 39]),
   midi.SetTempoEvent(tick=8, data=[6, 5, 241]),
   midi.SetTempoEvent(tick=2, data=[5, 251, 221]),
   midi.SetTempoEvent(tick=12, data=[5, 241, 234]),
   midi.SetTempoEvent(tick=6, data=[5, 232, 25]),
   midi.SetTempoEvent(tick=14, data=[5, 222, 103]),
   midi.SetTempoEvent(tick=2, data=[5, 212, 214]),
   midi.SetTempoEvent(tick=14, data=[5, 203, 99]),
   midi.SetTempoEvent(tick=8, data=[5, 194, 14]),
   midi.EndOfTrackEvent(tick=0, data=[])]),
 midi.Track(\
  [midi.PortEvent(tick=0, data=[0]),
   midi.TrackNameEvent(tick=0, text='Piano R', data=[80, 105, 97, 110, 111, 32, 82]),
   midi.ControlChangeEvent(tick=0, channel=0, data=[0, 0]),
   midi.ControlChangeEvent(tick=0, channel=0, data=[32, 0]),
   midi.ProgramChangeEvent(tick=0, channel=0, data=[0]),
   midi.ControlChangeEvent(tick=0, channel=0, data=[7, 127]),
   midi.ControlChangeEvent(tick=0, channel=0, data=[10, 50]),
   midi.ControlChangeEvent(tick=0, channel=0, data=[91, 110]),
   midi.ControlChangeEvent(tick=53, channel=0, data=[121, 0]),
   midi.ControlChangeEvent(tick=0, channel=0, data=[7, 127]),
   midi.NoteOnEvent(tick=182, channel=0, data=[76, 84]),
   midi.NoteOnEvent(tick=62, channel=0, data=[75, 71]),
   midi.NoteOnEvent(tick=8, channel=0, data=[76, 0]),
   midi.NoteOnEvent(tick=57, channel=0, data=[76, 80]),
   midi.NoteOnEvent(tick=1, channel=0, data=[75, 0]),
   midi.NoteOnEvent(tick=54, channel=0, data=[75, 65]),
   midi.NoteOnEvent(tick=15, channel=0, data=[76, 0]),
   midi.NoteOnEvent(tick=44, channel=0, data=[76, 84]),
   midi.NoteOnEvent(tick=2, channel=0, data=[75, 0]),
   midi.NoteOnEvent(tick=57, channel=0, data=[71, 69]),
   midi.NoteOnEvent(tick=16, channel=0, data=[76, 0]),
   midi.NoteOnEvent(tick=42, channel=0, data=[74, 78]),
   midi.NoteOnEvent(tick=7, channel=0, data=[71, 0]),
   midi.NoteOnEvent(tick=53, channel=0, data=[74, 0]),
   midi.NoteOnEvent(tick=1, channel=0, data=[72, 73]),
   midi.NoteOnEvent(tick=63, channel=0, data=[69, 74]),
   midi.NoteOnEvent(tick=12, channel=0, data=[72, 0]),
   midi.ControlChangeEvent(tick=31, channel=0, data=[64, 127]),
   midi.NoteOnEvent(tick=106, channel=0, data=[69, 0]),
   midi.NoteOnEvent(tick=28, channel=0, data=[60, 71]),
   midi.NoteOnEvent(tick=50, channel=0, data=[60, 0]),
   midi.NoteOnEvent(tick=7, channel=0, data=[64, 67]),
   midi.ControlChangeEvent(tick=5, channel=0, data=[64, 0]),
   midi.NoteOnEvent(tick=52, channel=0, data=[64, 0]),
   midi.NoteOnEvent(tick=0, channel=0, data=[69, 77]),
   midi.NoteOnEvent(tick=54, channel=0, data=[71, 74]),
   midi.NoteOnEvent(tick=6, channel=0, data=[69, 0]),
   midi.ControlChangeEvent(tick=27, channel=0, data=[64, 127]),
   midi.NoteOnEvent(tick=28, channel=0, data=[71, 0]),
   midi.NoteOnEvent(tick=108, channel=0, data=[64, 66]),
   midi.ControlChangeEvent(tick=54, channel=0, data=[64, 0]),
   midi.NoteOnEvent(tick=5, channel=0, data=[68, 75]),
   midi.NoteOnEvent(tick=19, channel=0, data=[64, 0]),
   midi.NoteOnEvent(tick=46, channel=0, data=[71, 80]),
   midi.NoteOnEvent(tick=1, channel=0, data=[68, 0]),
   midi.NoteOnEvent(tick=64, channel=0, data=[71, 0]),
   midi.NoteOnEvent(tick=1, channel=0, data=[72, 73]),
   midi.ControlChangeEvent(tick=50, channel=0, data=[64, 127]),
   midi.NoteOnEvent(tick=35, channel=0, data=[72, 0]),
   midi.NoteOnEvent(tick=105, channel=0, data=[64, 68]),
   midi.NoteOnEvent(tick=66, channel=0, data=[76, 72]),
   midi.NoteOnEvent(tick=2, channel=0, data=[64, 0]),
   midi.ControlChangeEvent(tick=1, channel=0, data=[64, 0]),
   midi.NoteOnEvent(tick=57, channel=0, data=[75, 61]),
   midi.NoteOnEvent(tick=6, channel=0, data=[76, 0]),
   midi.NoteOnEvent(tick=54, channel=0, data=[75, 0]),
   midi.NoteOnEvent(tick=3, channel=0, data=[76, 73]),
   midi.NoteOnEvent(tick=56, channel=0, data=[75, 64]),
   midi.NoteOnEvent(tick=14, channel=0, data=[76, 0]),
   midi.NoteOnEvent(tick=42, channel=0, data=[76, 77]),
   midi.NoteOnEvent(tick=2, channel=0, data=[75, 0]),
   midi.NoteOnEvent(tick=53, channel=0, data=[71, 76]),
   midi.NoteOnEvent(tick=20, channel=0, data=[76, 0]),
   midi.NoteOnEvent(tick=38, channel=0, data=[74, 83]),
   midi.NoteOnEvent(tick=18, channel=0, data=[71, 0]),
   midi.NoteOnEvent(tick=40, channel=0, data=[72, 81]),
   midi.NoteOnEvent(tick=2, channel=0, data=[74, 0]),
   midi.NoteOnEvent(tick=61, channel=0, data=[69, 73]),
   midi.NoteOnEvent(tick=7, channel=0, data=[72, 0]),
   midi.ControlChangeEvent(tick=27, channel=0, data=[64, 127]),
   midi.NoteOnEvent(tick=115, channel=0, data=[69, 0]),
   midi.NoteOnEvent(tick=30, channel=0, data=[60, 66]),
   midi.NoteOnEvent(tick=60, channel=0, data=[60, 0]),
   midi.ControlChangeEvent(tick=0, channel=0, data=[64, 0]),
   midi.NoteOnEvent(tick=0, channel=0, data=[64, 65]),
   midi.NoteOnEvent(tick=55, channel=0, data=[64, 0]),
   midi.NoteOnEvent(tick=5, channel=0, data=[69, 69]),
   midi.NoteOnEvent(tick=46, channel=0, data=[69, 0]),
   midi.NoteOnEvent(tick=9, channel=0, data=[71, 76]),
   midi.ControlChangeEvent(tick=31, channel=0, data=[64, 127]),
   midi.NoteOnEvent(tick=39, channel=0, data=[71, 0]),
   midi.NoteOnEvent(tick=105, channel=0, data=[64, 77]),
   midi.ControlChangeEvent(tick=30, channel=0, data=[64, 0]),
   midi.NoteOnEvent(tick=31, channel=0, data=[72, 83]),
   midi.NoteOnEvent(tick=17, channel=0, data=[64, 0]),
   midi.NoteOnEvent(tick=44, channel=0, data=[72, 0]),
   midi.NoteOnEvent(tick=2, channel=0, data=[71, 80]),
   midi.NoteOnEvent(tick=56, channel=0, data=[71, 0]),
   midi.NoteOnEvent(tick=10, channel=0, data=[69, 72]),
   midi.ControlChangeEvent(tick=52, channel=0, data=[64, 127]),
   midi.NoteOnEvent(tick=20, channel=0, data=[69, 0]),
   midi.ControlChangeEvent(tick=190, channel=0, data=[64, 0]),
   midi.NoteOnEvent(tick=14, channel=0, data=[76, 59]),
   midi.NoteOnEvent(tick=59, channel=0, data=[75, 45]),
   midi.NoteOnEvent(tick=4, channel=0, data=[76, 0]),
   midi.NoteOnEvent(tick=56, channel=0, data=[76, 59]),
   midi.NoteOnEvent(tick=3, channel=0, data=[75, 0]),
   midi.NoteOnEvent(tick=57, channel=0, data=[75, 45]),
   midi.NoteOnEvent(tick=8, channel=0, data=[76, 0]),
   midi.NoteOnEvent(tick=47, channel=0, data=[76, 63]),
   midi.NoteOnEvent(tick=8, channel=0, data=[75, 0]),
   midi.NoteOnEvent(tick=53, channel=0, data=[71, 45]),
   midi.NoteOnEvent(tick=4, channel=0, data=[76, 0]),
   midi.NoteOnEvent(tick=60, channel=0, data=[74, 47]),
   midi.NoteOnEvent(tick=11, channel=0, data=[71, 0]),
   midi.NoteOnEvent(tick=40, channel=0, data=[74, 0]),
   midi.NoteOnEvent(tick=6, channel=0, data=[72, 45]),
   midi.NoteOnEvent(tick=60, channel=0, data=[69, 41]),
   midi.NoteOnEvent(tick=10, channel=0, data=[72, 0]),
   midi.ControlChangeEvent(tick=24, channel=0, data=[64, 127]),
   midi.NoteOnEvent(tick=85, channel=0, data=[69, 0]),
   midi.NoteOnEvent(tick=49, channel=0, data=[60, 52]),
   midi.ControlChangeEvent(tick=47, channel=0, data=[64, 0]),
   midi.NoteOnEvent(tick=18, channel=0, data=[64, 55]),
   midi.NoteOnEvent(tick=1, channel=0, data=[60, 0]),
   midi.NoteOnEvent(tick=54, channel=0, data=[69, 48]),
   midi.NoteOnEvent(tick=5, channel=0, data=[64, 0]),
   midi.NoteOnEvent(tick=50, channel=0, data=[69, 0]),
   midi.NoteOnEvent(tick=0, channel=0, data=[71, 59]),
   midi.ControlChangeEvent(tick=42, channel=0, data=[64, 127]),
   midi.NoteOnEvent(tick=77, channel=0, data=[71, 0]),
   midi.NoteOnEvent(tick=58, channel=0, data=[64, 54]),
   midi.ControlChangeEvent(tick=28, channel=0, data=[64, 0]),
   midi.NoteOnEvent(tick=25, channel=0, data=[68, 57]),
   midi.NoteOnEvent(tick=20, channel=0, data=[64, 0]),
   midi.NoteOnEvent(tick=40, channel=0, data=[71, 57]),
   midi.NoteOnEvent(tick=3, channel=0, data=[68, 0]),
   midi.NoteOnEvent(tick=52, channel=0, data=[71, 0]),
   midi.NoteOnEvent(tick=4, channel=0, data=[72, 77]),
   midi.ControlChangeEvent(tick=52, channel=0, data=[64, 127]),
   midi.NoteOnEvent(tick=67, channel=0, data=[72, 0]),
   midi.NoteOnEvent(tick=68, channel=0, data=[64, 53]),
   midi.ControlChangeEvent(tick=25, channel=0, data=[64, 0]),
   midi.NoteOnEvent(tick=36, channel=0, data=[76, 67]),
   midi.NoteOnEvent(tick=4, channel=0, data=[64, 0]),
   midi.NoteOnEvent(tick=54, channel=0, data=[75, 53]),
   midi.NoteOnEvent(tick=10, channel=0, data=[76, 0]),
   midi.NoteOnEvent(tick=45, channel=0, data=[76, 67]),
   midi.NoteOnEvent(tick=5, channel=0, data=[75, 0]),
   midi.NoteOnEvent(tick=56, channel=0, data=[75, 59]),
   midi.NoteOnEvent(tick=11, channel=0, data=[76, 0]),
   midi.NoteOnEvent(tick=43, channel=0, data=[76, 69]),
   midi.NoteOnEvent(tick=1, channel=0, data=[75, 0]),
   midi.NoteOnEvent(tick=56, channel=0, data=[71, 55]),
   midi.NoteOnEvent(tick=15, channel=0, data=[76, 0]),
   midi.NoteOnEvent(tick=49, channel=0, data=[74, 65]),
   midi.NoteOnEvent(tick=24, channel=0, data=[71, 0]),
   midi.NoteOnEvent(tick=40, channel=0, data=[72, 59]),
   midi.NoteOnEvent(tick=1, channel=0, data=[74, 0]),
   midi.NoteOnEvent(tick=64, channel=0, data=[69, 71]),
   midi.NoteOnEvent(tick=5, channel=0, data=[72, 0]),
   midi.ControlChangeEvent(tick=26, channel=0, data=[64, 127]),
   midi.NoteOnEvent(tick=88, channel=0, data=[69, 0]),
   midi.NoteOnEvent(tick=62, channel=0, data=[60, 76]),
   midi.ControlChangeEvent(tick=9, channel=0, data=[64, 0]),
   midi.NoteOnEvent(tick=45, channel=0, data=[64, 78]),
   midi.NoteOnEvent(tick=6, channel=0, data=[60, 0]),
   midi.NoteOnEvent(tick=54, channel=0, data=[69, 77]),
   midi.NoteOnEvent(tick=5, channel=0, data=[64, 0]),
   midi.NoteOnEvent(tick=45, channel=0, data=[69, 0]),
   midi.NoteOnEvent(tick=5, channel=0, data=[71, 79]),
   midi.ControlChangeEvent(tick=40, channel=0, data=[64, 127]),
   midi.NoteOnEvent(tick=79, channel=0, data=[71, 0]),
   midi.NoteOnEvent(tick=62, channel=0, data=[64, 83]),
   midi.ControlChangeEvent(tick=19, channel=0, data=[64, 0]),
   midi.NoteOnEvent(tick=45, channel=0, data=[72, 86]),
   midi.NoteOnEvent(tick=7, channel=0, data=[64, 0]),
   midi.NoteOnEvent(tick=51, channel=0, data=[72, 0]),
   midi.NoteOnEvent(tick=6, channel=0, data=[71, 75]),
   midi.NoteOnEvent(tick=58, channel=0, data=[71, 0]),
   midi.NoteOnEvent(tick=10, channel=0, data=[69, 71]),
   midi.ControlChangeEvent(tick=48, channel=0, data=[64, 127]),
   midi.NoteOnEvent(tick=20, channel=0, data=[69, 0]),
   midi.NoteOnEvent(tick=116, channel=0, data=[71, 82]),
   midi.NoteOnEvent(tick=59, channel=0, data=[72, 88]),
   midi.ControlChangeEvent(tick=5, channel=0, data=[64, 0]),
   midi.NoteOnEvent(tick=19, channel=0, data=[71, 0]),
   midi.NoteOnEvent(tick=37, channel=0, data=[74, 90]),
   midi.NoteOnEvent(tick=20, channel=0, data=[72, 0]),
   midi.NoteOnEvent(tick=47, channel=0, data=[76, 94]),
   midi.NoteOnEvent(tick=3, channel=0, data=[74, 0]),
   midi.ControlChangeEvent(tick=65, channel=0, data=[64, 127]),
   midi.NoteOnEvent(tick=45, channel=0, data=[76, 0]),
   midi.NoteOnEvent(tick=10, channel=0, data=[60, 93]),
   midi.NoteOnEvent(tick=54, channel=0, data=[67, 97]),
   midi.NoteOnEvent(tick=28, channel=0, data=[60, 0]),
   midi.ControlChangeEvent(tick=22, channel=0, data=[64, 0]),
   midi.NoteOnEvent(tick=5, channel=0, data=[77, 101]),
   midi.NoteOnEvent(tick=30, channel=0, data=[67, 0]),
   midi.NoteOnEvent(tick=30, channel=0, data=[76, 96]),
   midi.NoteOnEvent(tick=20, channel=0, data=[77, 0]),
   midi.NoteOnEvent(tick=40, channel=0, data=[74, 96]),
   midi.NoteOnEvent(tick=12, channel=0, data=[76, 0]),
   midi.ControlChangeEvent(tick=33, channel=0, data=[64, 127]),
   midi.NoteOnEvent(tick=74, channel=0, data=[74, 0]),
   midi.NoteOnEvent(tick=56, channel=0, data=[65, 93]),
   midi.ControlChangeEvent(tick=46, channel=0, data=[64, 0]),
   midi.NoteOnEvent(tick=19, channel=0, data=[76, 96]),
   midi.NoteOnEvent(tick=27, channel=0, data=[65, 0]),
   midi.NoteOnEvent(tick=34, channel=0, data=[74, 83]),
   midi.NoteOnEvent(tick=14, channel=0, data=[76, 0]),
   midi.NoteOnEvent(tick=47, channel=0, data=[72, 87]),
   midi.NoteOnEvent(tick=9, channel=0, data=[74, 0]),
   midi.ControlChangeEvent(tick=31, channel=0, data=[64, 127]),
   midi.NoteOnEvent(tick=79, channel=0, data=[72, 0]),
   midi.NoteOnEvent(tick=65, channel=0, data=[64, 78]),
   midi.ControlChangeEvent(tick=25, channel=0, data=[64, 0]),
   midi.NoteOnEvent(tick=37, channel=0, data=[74, 84]),
   midi.NoteOnEvent(tick=18, channel=0, data=[64, 0]),
   midi.NoteOnEvent(tick=37, channel=0, data=[74, 0]),
   midi.NoteOnEvent(tick=2, channel=0, data=[72, 81]),
   midi.NoteOnEvent(tick=70, channel=0, data=[71, 78]),
   midi.NoteOnEvent(tick=2, channel=0, data=[72, 0]),
   midi.ControlChangeEvent(tick=38, channel=0, data=[64, 127]),
   midi.NoteOnEvent(tick=102, channel=0, data=[71, 0]),
   midi.NoteOnEvent(tick=7, channel=0, data=[64, 75]),
   midi.NoteOnEvent(tick=86, channel=0, data=[64, 0]),
   midi.NoteOnEvent(tick=3, channel=0, data=[76, 77]),
   midi.NoteOnEvent(tick=38, channel=0, data=[76, 0]),
   midi.NoteOnEvent(tick=40, channel=0, data=[64, 67]),
   midi.NoteOnEvent(tick=40, channel=0, data=[64, 0]),
   midi.NoteOnEvent(tick=30, channel=0, data=[76, 63]),
   midi.NoteOnEvent(tick=25, channel=0, data=[76, 0]),
   midi.NoteOnEvent(tick=40, channel=0, data=[76, 58]),
   midi.NoteOnEvent(tick=59, channel=0, data=[76, 0]),
   midi.NoteOnEvent(tick=10, channel=0, data=[88, 57]),
   midi.NoteOnEvent(tick=37, channel=0, data=[88, 0]),
   midi.NoteOnEvent(tick=37, channel=0, data=[75, 71]),
   midi.NoteOnEvent(tick=75, channel=0, data=[75, 0]),
   midi.NoteOnEvent(tick=12, channel=0, data=[76, 64]),
   midi.NoteOnEvent(tick=70, channel=0, data=[76, 0]),
   midi.NoteOnEvent(tick=11, channel=0, data=[75, 66]),
   midi.ControlChangeEvent(tick=4, channel=0, data=[64, 0]),
   midi.NoteOnEvent(tick=74, channel=0, data=[76, 60]),
   midi.NoteOnEvent(tick=4, channel=0, data=[75, 0]),
   midi.NoteOnEvent(tick=77, channel=0, data=[75, 57]),
   midi.NoteOnEvent(tick=24, channel=0, data=[76, 0]),
   midi.NoteOnEvent(tick=71, channel=0, data=[76, 65]),
   midi.NoteOnEvent(tick=5, channel=0, data=[75, 0]),
   midi.NoteOnEvent(tick=110, channel=0, data=[75, 58]),
   midi.NoteOnEvent(tick=6, channel=0, data=[76, 0]),
   midi.NoteOnEvent(tick=87, channel=0, data=[75, 0]),
   midi.NoteOnEvent(tick=11, channel=0, data=[76, 66]),
   midi.NoteOnEvent(tick=85, channel=0, data=[76, 0]),
   midi.NoteOnEvent(tick=0, channel=0, data=[75, 59]),
   midi.NoteOnEvent(tick=70, channel=0, data=[76, 71]),
   midi.NoteOnEvent(tick=5, channel=0, data=[75, 0]),
   midi.NoteOnEvent(tick=65, channel=0, data=[75, 62]),
   midi.NoteOnEvent(tick=10, channel=0, data=[76, 0]),
   midi.NoteOnEvent(tick=50, channel=0, data=[76, 77]),
   midi.NoteOnEvent(tick=3, channel=0, data=[75, 0]),
   midi.NoteOnEvent(tick=62, channel=0, data=[71, 69]),
   midi.NoteOnEvent(tick=22, channel=0, data=[76, 0]),
   midi.NoteOnEvent(tick=44, channel=0, data=[74, 79]),
   midi.NoteOnEvent(tick=31, channel=0, data=[71, 0]),
   midi.NoteOnEvent(tick=39, channel=0, data=[72, 73]),
   midi.NoteOnEvent(tick=5, channel=0, data=[74, 0]),
   midi.NoteOnEvent(tick=69, channel=0, data=[69, 77]),
   midi.NoteOnEvent(tick=4, channel=0, data=[72, 0]),
   midi.ControlChangeEvent(tick=37, channel=0, data=[64, 127]),
   midi.NoteOnEvent(tick=78, channel=0, data=[69, 0]),
   midi.NoteOnEvent(tick=56, channel=0, data=[60, 81]),
   midi.NoteOnEvent(tick=58, channel=0, data=[60, 0]),
   midi.NoteOnEvent(tick=3, channel=0, data=[64, 78]),
   midi.ControlChangeEvent(tick=6, channel=0, data=[64, 0]),
   midi.NoteOnEvent(tick=44, channel=0, data=[64, 0]),
   midi.NoteOnEvent(tick=4, channel=0, data=[69, 83]),
   midi.NoteOnEvent(tick=50, channel=0, data=[69, 0]),
   midi.NoteOnEvent(tick=2, channel=0, data=[71, 83]),
   midi.ControlChangeEvent(tick=33, channel=0, data=[64, 127]),
   midi.NoteOnEvent(tick=86, channel=0, data=[71, 0]),
   midi.NoteOnEvent(tick=54, channel=0, data=[64, 77]),
   midi.ControlChangeEvent(tick=42, channel=0, data=[64, 0]),
   midi.NoteOnEvent(tick=15, channel=0, data=[68, 82]),
   midi.NoteOnEvent(tick=13, channel=0, data=[64, 0]),
   midi.NoteOnEvent(tick=45, channel=0, data=[68, 0]),
   midi.NoteOnEvent(tick=2, channel=0, data=[71, 85]),
   midi.NoteOnEvent(tick=50, channel=0, data=[71, 0]),
   midi.NoteOnEvent(tick=8, channel=0, data=[72, 88]),
   midi.ControlChangeEvent(tick=27, channel=0, data=[64, 127]),
   midi.NoteOnEvent(tick=92, channel=0, data=[72, 0]),
   midi.NoteOnEvent(tick=71, channel=0, data=[64, 78]),
   midi.NoteOnEvent(tick=60, channel=0, data=[64, 0]),
   midi.ControlChangeEvent(tick=0, channel=0, data=[64, 0]),
   midi.NoteOnEvent(tick=5, channel=0, data=[76, 81]),
   midi.NoteOnEvent(tick=58, channel=0, data=[75, 83]),
   midi.NoteOnEvent(tick=3, channel=0, data=[76, 0]),
   midi.NoteOnEvent(tick=54, channel=0, data=[76, 83]),
   midi.NoteOnEvent(tick=8, channel=0, data=[75, 0]),
   midi.NoteOnEvent(tick=53, channel=0, data=[75, 77]),
   midi.NoteOnEvent(tick=15, channel=0, data=[76, 0]),
   midi.NoteOnEvent(tick=40, channel=0, data=[75, 0]),
   midi.NoteOnEvent(tick=2, channel=0, data=[76, 78]),
   midi.NoteOnEvent(tick=56, channel=0, data=[71, 77]),
   midi.NoteOnEvent(tick=9, channel=0, data=[76, 0]),
   midi.NoteOnEvent(tick=48, channel=0, data=[74, 80]),
   midi.NoteOnEvent(tick=18, channel=0, data=[71, 0]),
   midi.NoteOnEvent(tick=42, channel=0, data=[74, 0]),
   midi.NoteOnEvent(tick=0, channel=0, data=[72, 75]),
   midi.NoteOnEvent(tick=64, channel=0, data=[69, 76]),
   midi.NoteOnEvent(tick=4, channel=0, data=[72, 0]),
   midi.ControlChangeEvent(tick=37, channel=0, data=[64, 127]),
   midi.NoteOnEvent(tick=108, channel=0, data=[69, 0]),
   midi.NoteOnEvent(tick=31, channel=0, data=[60, 71]),
   midi.ControlChangeEvent(tick=10, channel=0, data=[64, 0]),
   midi.NoteOnEvent(tick=55, channel=0, data=[64, 75]),
   midi.NoteOnEvent(tick=15, channel=0, data=[60, 0]),
   midi.NoteOnEvent(tick=46, channel=0, data=[69, 78]),
   midi.NoteOnEvent(tick=4, channel=0, data=[64, 0]),
   midi.NoteOnEvent(tick=49, channel=0, data=[69, 0]),
   midi.NoteOnEvent(tick=4, channel=0, data=[71, 78]),
   midi.ControlChangeEvent(tick=32, channel=0, data=[64, 127]),
   midi.NoteOnEvent(tick=87, channel=0, data=[71, 0]),
   midi.NoteOnEvent(tick=60, channel=0, data=[64, 78]),
   midi.ControlChangeEvent(tick=24, channel=0, data=[64, 0]),
   midi.NoteOnEvent(tick=39, channel=0, data=[72, 83]),
   midi.NoteOnEvent(tick=14, channel=0, data=[64, 0]),
   midi.NoteOnEvent(tick=53, channel=0, data=[72, 0]),
   midi.NoteOnEvent(tick=4, channel=0, data=[71, 72]),
   midi.NoteOnEvent(tick=57, channel=0, data=[71, 0]),
   midi.NoteOnEvent(tick=13, channel=0, data=[69, 80]),
   midi.ControlChangeEvent(tick=24, channel=0, data=[64, 127]),
   midi.NoteOnEvent(tick=155, channel=0, data=[69, 0]),
   midi.NoteOnEvent(tick=70, channel=0, data=[72, 77]),
   midi.NoteOnEvent(tick=0, channel=0, data=[64, 63]),
   midi.NoteOnEvent(tick=0, channel=0, data=[60, 87]),
   midi.ControlChangeEvent(tick=5, channel=0, data=[64, 0]),
   midi.NoteOnEvent(tick=31, channel=0, data=[64, 0]),
   midi.NoteOnEvent(tick=2, channel=0, data=[60, 0]),
   midi.ControlChangeEvent(tick=3, channel=0, data=[64, 127]),
   midi.NoteOnEvent(tick=18, channel=0, data=[72, 0]),
   midi.NoteOnEvent(tick=25, channel=0, data=[65, 75]),
   midi.NoteOnEvent(tick=0, channel=0, data=[72, 84]),
   midi.NoteOnEvent(tick=1, channel=0, data=[60, 82]),
   midi.NoteOnEvent(tick=29, channel=0, data=[65, 0]),
   midi.NoteOnEvent(tick=8, channel=0, data=[60, 0]),
   midi.NoteOnEvent(tick=21, channel=0, data=[72, 0]),
   midi.NoteOnEvent(tick=12, channel=0, data=[67, 82]),
   midi.NoteOnEvent(tick=0, channel=0, data=[60, 73]),
   midi.NoteOnEvent(tick=0, channel=0, data=[64, 71]),
   midi.NoteOnEvent(tick=0, channel=0, data=[72, 93]),
   midi.NoteOnEvent(tick=59, channel=0, data=[72, 0]),
   midi.NoteOnEvent(tick=0, channel=0, data=[67, 0]),
   midi.NoteOnEvent(tick=0, channel=0, data=[60, 0]),
   midi.NoteOnEvent(tick=0, channel=0, data=[64, 0]),
   midi.NoteOnEvent(tick=7, channel=0, data=[65, 76]),
   midi.NoteOnEvent(tick=23, channel=0, data=[69, 81]),
   midi.NoteOnEvent(tick=5, channel=0, data=[65, 0]),
   midi.ControlChangeEvent(tick=8, channel=0, data=[64, 0]),
   midi.NoteOnEvent(tick=13, channel=0, data=[72, 103]),
   midi.NoteOnEvent(tick=4, channel=0, data=[69, 0]),
   midi.ControlChangeEvent(tick=41, channel=0, data=[64, 127]),
   midi.NoteOnEvent(tick=40, channel=0, data=[72, 0]),
   midi.NoteOnEvent(tick=20, channel=0, data=[60, 80]),
   midi.NoteOnEvent(tick=50, channel=0, data=[60, 0]),
   midi.NoteOnEvent(tick=44, channel=0, data=[60, 89]),
   midi.NoteOnEvent(tick=1, channel=0, data=[77, 112]),
   midi.NoteOnEvent(tick=45, channel=0, data=[77, 0]),
   midi.NoteOnEvent(tick=5, channel=0, data=[60, 0]),
   midi.NoteOnEvent(tick=27, channel=0, data=[76, 97]),
   midi.NoteOnEvent(tick=15, channel=0, data=[76, 0]),
   midi.NoteOnEvent(tick=8, channel=0, data=[76, 106]),
   midi.ControlChangeEvent(tick=5, channel=0, data=[64, 0]),
   midi.ControlChangeEvent(tick=45, channel=0, data=[64, 127]),
   midi.NoteOnEvent(tick=47, channel=0, data=[76, 0]),
   midi.NoteOnEvent(tick=0, channel=0, data=[74, 110]),
   midi.NoteOnEvent(tick=3, channel=0, data=[62, 75]),
   midi.NoteOnEvent(tick=43, channel=0, data=[62, 0]),
   midi.NoteOnEvent(tick=17, channel=0, data=[74, 0]),
   midi.NoteOnEvent(tick=27, channel=0, data=[82, 110]),
   midi.NoteOnEvent(tick=3, channel=0, data=[62, 75]),
   midi.NoteOnEvent(tick=20, channel=0, data=[82, 0]),
   midi.NoteOnEvent(tick=25, channel=0, data=[62, 0]),
   midi.NoteOnEvent(tick=26, channel=0, data=[81, 103]),
   midi.NoteOnEvent(tick=16, channel=0, data=[81, 0]),
   midi.ControlChangeEvent(tick=13, channel=0, data=[64, 0]),
   midi.NoteOnEvent(tick=0, channel=0, data=[81, 112]),
   midi.ControlChangeEvent(tick=45, channel=0, data=[64, 127]),
   midi.NoteOnEvent(tick=3, channel=0, data=[64, 76]),
   midi.NoteOnEvent(tick=3, channel=0, data=[79, 109]),
   midi.NoteOnEvent(tick=19, channel=0, data=[81, 0]),
   midi.NoteOnEvent(tick=25, channel=0, data=[77, 110]),
   midi.NoteOnEvent(tick=1, channel=0, data=[64, 0]),
   midi.NoteOnEvent(tick=5, channel=0, data=[79, 0]),
   midi.ControlChangeEvent(tick=5, channel=0, data=[64, 0]),
   midi.ControlChangeEvent(tick=34, channel=0, data=[64, 127]),
   midi.NoteOnEvent(tick=6, channel=0, data=[76, 117]),
   midi.NoteOnEvent(tick=0, channel=0, data=[64, 83]),
   midi.NoteOnEvent(tick=12, channel=0, data=[77, 0]),
   midi.NoteOnEvent(tick=28, channel=0, data=[64, 0]),
   midi.ControlChangeEvent(tick=0, channel=0, data=[64, 0]),
   midi.NoteOnEvent(tick=9, channel=0, data=[74, 107]),
   midi.ControlChangeEvent(tick=15, channel=0, data=[64, 127]),
   midi.NoteOnEvent(tick=2, channel=0, data=[76, 0]),
   midi.NoteOnEvent(tick=25, channel=0, data=[74, 0]),
   midi.NoteOnEvent(tick=10, channel=0, data=[72, 109]),
   midi.NoteOnEvent(tick=0, channel=0, data=[64, 76]),
   midi.NoteOnEvent(tick=23, channel=0, data=[64, 0]),
   midi.ControlChangeEvent(tick=17, channel=0, data=[64, 0]),
   midi.NoteOnEvent(tick=8, channel=0, data=[70, 115]),
   midi.NoteOnEvent(tick=22, channel=0, data=[72, 0]),
   midi.ControlChangeEvent(tick=33, channel=0, data=[64, 127]),
   midi.NoteOnEvent(tick=47, channel=0, data=[70, 0]),
   midi.NoteOnEvent(tick=6, channel=0, data=[69, 103]),
   midi.NoteOnEvent(tick=0, channel=0, data=[60, 74]),
   midi.NoteOnEvent(tick=25, channel=0, data=[69, 0]),
   midi.NoteOnEvent(tick=20, channel=0, data=[60, 0]),
   midi.NoteOnEvent(tick=47, channel=0, data=[70, 98]),
   midi.NoteOnEvent(tick=1, channel=0, data=[60, 97]),
   midi.NoteOnEvent(tick=16, channel=0, data=[69, 101]),
   midi.NoteOnEvent(tick=5, channel=0, data=[70, 0]),
   midi.ControlChangeEvent(tick=5, channel=0, data=[64, 0]),
   midi.NoteOnEvent(tick=8, channel=0, data=[69, 0]),
   midi.NoteOnEvent(tick=1, channel=0, data=[67, 100]),
   midi.NoteOnEvent(tick=15, channel=0, data=[60, 0]),
   midi.NoteOnEvent(tick=3, channel=0, data=[67, 0]),
   midi.NoteOnEvent(tick=1, channel=0, data=[69, 107]),
   midi.NoteOnEvent(tick=25, channel=0, data=[70, 99]),
   midi.NoteOnEvent(tick=5, channel=0, data=[69, 0]),
   midi.NoteOnEvent(tick=23, channel=0, data=[72, 109]),
   midi.NoteOnEvent(tick=5, channel=0, data=[70, 0]),
   midi.ControlChangeEvent(tick=44, channel=0, data=[64, 127]),
   midi.NoteOnEvent(tick=50, channel=0, data=[60, 80]),
   midi.NoteOnEvent(tick=50, channel=0, data=[72, 0]),
   midi.NoteOnEvent(tick=7, channel=0, data=[60, 0]),
   midi.NoteOnEvent(tick=42, channel=0, data=[74, 111]),
   midi.NoteOnEvent(tick=1, channel=0, data=[60, 89]),
   midi.NoteOnEvent(tick=50, channel=0, data=[60, 0]),
   midi.NoteOnEvent(tick=5, channel=0, data=[75, 112]),
   midi.NoteOnEvent(tick=4, channel=0, data=[74, 0]),
   midi.NoteOnEvent(tick=54, channel=0, data=[76, 115]),
   midi.NoteOnEvent(tick=7, channel=0, data=[75, 0]),
   midi.ControlChangeEvent(tick=0, channel=0, data=[64, 0]),
   midi.ControlChangeEvent(tick=63, channel=0, data=[64, 127]),
   midi.NoteOnEvent(tick=31, channel=0, data=[60, 90]),
   midi.NoteOnEvent(tick=19, channel=0, data=[76, 0]),
   midi.NoteOnEvent(tick=24, channel=0, data=[60, 0]),
   midi.NoteOnEvent(tick=6, channel=0, data=[76, 115]),
   midi.NoteOnEvent(tick=55, channel=0, data=[76, 0]),
   midi.ControlChangeEvent(tick=0, channel=0, data=[64, 0]),
   midi.NoteOnEvent(tick=2, channel=0, data=[62, 71]),
   midi.NoteOnEvent(tick=0, channel=0, data=[77, 115]),
   midi.ControlChangeEvent(tick=43, channel=0, data=[64, 127]),
   midi.NoteOnEvent(tick=3, channel=0, data=[62, 0]),
   midi.NoteOnEvent(tick=3, channel=0, data=[69, 106]),
   midi.NoteOnEvent(tick=16, channel=0, data=[77, 0]),
   midi.NoteOnEvent(tick=38, channel=0, data=[72, 117]),
   midi.ControlChangeEvent(tick=1, channel=0, data=[64, 0]),
   midi.NoteOnEvent(tick=5, channel=0, data=[69, 0]),
   midi.NoteOnEvent(tick=44, channel=0, data=[64, 78]),
   midi.ControlChangeEvent(tick=5, channel=0, data=[64, 127]),
   midi.NoteOnEvent(tick=40, channel=0, data=[64, 0]),
   midi.NoteOnEvent(tick=11, channel=0, data=[72, 0]),
   midi.NoteOnEvent(tick=34, channel=0, data=[74, 102]),
   midi.NoteOnEvent(tick=2, channel=0, data=[64, 76]),
   midi.NoteOnEvent(tick=18, channel=0, data=[72, 100]),
   midi.NoteOnEvent(tick=7, channel=0, data=[64, 0]),
   midi.NoteOnEvent(tick=3, channel=0, data=[74, 0]),
   midi.NoteOnEvent(tick=10, channel=0, data=[72, 0]),
   midi.NoteOnEvent(tick=0, channel=0, data=[71, 93]),
   midi.NoteOnEvent(tick=20, channel=0, data=[71, 0]),
   midi.NoteOnEvent(tick=0, channel=0, data=[72, 94]),
   midi.ControlChangeEvent(tick=7, channel=0, data=[64, 0]),
   midi.NoteOnEvent(tick=8, channel=0, data=[74, 108]),
   midi.NoteOnEvent(tick=5, channel=0, data=[72, 0]),
   midi.ControlChangeEvent(tick=36, channel=0, data=[64, 127]),
   midi.NoteOnEvent(tick=4, channel=0, data=[65, 76]),
   midi.NoteOnEvent(tick=15, channel=0, data=[65, 0]),
   midi.NoteOnEvent(tick=3, channel=0, data=[74, 0]),
   midi.NoteOnEvent(tick=3, channel=0, data=[71, 104]),
   midi.NoteOnEvent(tick=18, channel=0, data=[71, 0]),
   midi.ControlChangeEvent(tick=11, channel=0, data=[64, 0]),
   midi.NoteOnEvent(tick=6, channel=0, data=[72, 100]),
   midi.NoteOnEvent(tick=0, channel=0, data=[60, 77]),
   midi.NoteOnEvent(tick=1, channel=0, data=[64, 62]),
   midi.NoteOnEvent(tick=25, channel=0, data=[72, 0]),
   midi.NoteOnEvent(tick=4, channel=0, data=[79, 102]),
   midi.ControlChangeEvent(tick=11, channel=0, data=[64, 127]),
   midi.NoteOnEvent(tick=18, channel=0, data=[67, 104]),
   midi.NoteOnEvent(tick=2, channel=0, data=[79, 0]),
   midi.NoteOnEvent(tick=15, channel=0, data=[64, 0]),
   midi.NoteOnEvent(tick=5, channel=0, data=[60, 0]),
   midi.NoteOnEvent(tick=3, channel=0, data=[67, 0]),
   midi.NoteOnEvent(tick=2, channel=0, data=[79, 98]),
   midi.NoteOnEvent(tick=28, channel=0, data=[69, 102]),
   midi.NoteOnEvent(tick=3, channel=0, data=[79, 0]),
   midi.NoteOnEvent(tick=22, channel=0, data=[69, 0]),
   midi.NoteOnEvent(tick=0, channel=0, data=[79, 97]),
   midi.NoteOnEvent(tick=24, channel=0, data=[67, 83]),
   midi.NoteOnEvent(tick=1, channel=0, data=[65, 92]),
   midi.NoteOnEvent(tick=0, channel=0, data=[71, 103]),
   midi.NoteOnEvent(tick=10, channel=0, data=[79, 0]),
   midi.ControlChangeEvent(tick=2, channel=0, data=[64, 0]),
   midi.NoteOnEvent(tick=7, channel=0, data=[67, 0]),
   midi.NoteOnEvent(tick=6, channel=0, data=[65, 0]),
   midi.NoteOnEvent(tick=0, channel=0, data=[71, 0]),
   midi.NoteOnEvent(tick=1, channel=0, data=[79, 103]),
   midi.NoteOnEvent(tick=24, channel=0, data=[72, 108]),
   midi.NoteOnEvent(tick=3, channel=0, data=[67, 83]),
   midi.NoteOnEvent(tick=0, channel=0, data=[64, 89]),
   midi.NoteOnEvent(tick=4, channel=0, data=[79, 0]),
   midi.NoteOnEvent(tick=11, channel=0, data=[67, 0]),
   midi.NoteOnEvent(tick=1, channel=0, data=[64, 0]),
   midi.NoteOnEvent(tick=11, channel=0, data=[72, 0]),
   midi.NoteOnEvent(tick=1, channel=0, data=[79, 101]),
   midi.NoteOnEvent(tick=28, channel=0, data=[74, 102]),
   midi.NoteOnEvent(tick=1, channel=0, data=[62, 76]),
   midi.NoteOnEvent(tick=0, channel=0, data=[67, 80]),
   midi.NoteOnEvent(tick=4, channel=0, data=[79, 0]),
   midi.NoteOnEvent(tick=11, channel=0, data=[67, 0]),
   midi.NoteOnEvent(tick=1, channel=0, data=[62, 0]),
   midi.NoteOnEvent(tick=11, channel=0, data=[74, 0]),
   midi.NoteOnEvent(tick=3, channel=0, data=[79, 98]),
   midi.NoteOnEvent(tick=31, channel=0, data=[79, 0]),
   midi.NoteOnEvent(tick=4, channel=0, data=[64, 63]),
   midi.NoteOnEvent(tick=0, channel=0, data=[67, 66]),
   midi.NoteOnEvent(tick=0, channel=0, data=[60, 86]),
   midi.NoteOnEvent(tick=1, channel=0, data=[76, 98]),
   midi.ControlChangeEvent(tick=29, channel=0, data=[64, 127]),
   midi.NoteOnEvent(tick=0, channel=0, data=[79, 102]),
   midi.NoteOnEvent(tick=4, channel=0, data=[76, 0]),
   midi.NoteOnEvent(tick=9, channel=0, data=[67, 0]),
   midi.NoteOnEvent(tick=12, channel=0, data=[60, 0]),
   midi.NoteOnEvent(tick=5, channel=0, data=[64, 0]),
   midi.NoteOnEvent(tick=1, channel=0, data=[84, 119]),
   midi.NoteOnEvent(tick=10, channel=0, data=[79, 0]),
   midi.NoteOnEvent(tick=19, channel=0, data=[83, 113]),
   midi.NoteOnEvent(tick=14, channel=0, data=[84, 0]),
   midi.NoteOnEvent(tick=21, channel=0, data=[81, 110]),
   midi.ControlChangeEvent(tick=2, channel=0, data=[64, 0]),
   midi.NoteOnEvent(tick=8, channel=0, data=[83, 0]),
   midi.NoteOnEvent(tick=21, channel=0, data=[79, 110]),
   midi.NoteOnEvent(tick=17, channel=0, data=[81, 0]),
   midi.NoteOnEvent(tick=7, channel=0, data=[77, 117]),
   midi.NoteOnEvent(tick=6, channel=0, data=[79, 0]),
   midi.NoteOnEvent(tick=24, channel=0, data=[76, 101]),
   midi.NoteOnEvent(tick=10, channel=0, data=[77, 0]),
   midi.NoteOnEvent(tick=20, channel=0, data=[74, 106]),
   midi.NoteOnEvent(tick=5, channel=0, data=[76, 0]),
   midi.NoteOnEvent(tick=22, channel=0, data=[79, 104]),
   midi.NoteOnEvent(tick=3, channel=0, data=[74, 0]),
   midi.NoteOnEvent(tick=25, channel=0, data=[77, 100]),
   midi.NoteOnEvent(tick=7, channel=0, data=[79, 0]),
   midi.NoteOnEvent(tick=18, channel=0, data=[74, 101]),
   midi.NoteOnEvent(tick=5, channel=0, data=[77, 0]),
   midi.NoteOnEvent(tick=30, channel=0, data=[74, 0]),
   midi.NoteOnEvent(tick=0, channel=0, data=[72, 105]),
   midi.NoteOnEvent(tick=2, channel=0, data=[60, 91]),
   midi.NoteOnEvent(tick=26, channel=0, data=[72, 0]),
   midi.NoteOnEvent(tick=7, channel=0, data=[79, 102]),
   midi.NoteOnEvent(tick=30, channel=0, data=[67, 102]),
   midi.NoteOnEvent(tick=5, channel=0, data=[79, 0]),
   midi.NoteOnEvent(tick=20, channel=0, data=[60, 0]),
   midi.NoteOnEvent(tick=1, channel=0, data=[67, 0]),
   midi.NoteOnEvent(tick=1, channel=0, data=[79, 94]),
   midi.NoteOnEvent(tick=28, channel=0, data=[69, 103]),
   midi.NoteOnEvent(tick=5, channel=0, data=[79, 0]),
   midi.NoteOnEvent(tick=20, channel=0, data=[69, 0]),
   midi.NoteOnEvent(tick=0, channel=0, data=[79, 93]),
   midi.NoteOnEvent(tick=26, channel=0, data=[67, 92]),
   midi.NoteOnEvent(tick=0, channel=0, data=[65, 100]),
   midi.NoteOnEvent(tick=1, channel=0, data=[71, 103]),
   midi.NoteOnEvent(tick=13, channel=0, data=[79, 0]),
   midi.NoteOnEvent(tick=13, channel=0, data=[71, 0]),
   midi.NoteOnEvent(tick=2, channel=0, data=[67, 0]),
   midi.NoteOnEvent(tick=1, channel=0, data=[65, 0]),
   midi.NoteOnEvent(tick=0, channel=0, data=[79, 103]),
   midi.NoteOnEvent(tick=29, channel=0, data=[67, 87]),
   midi.NoteOnEvent(tick=0, channel=0, data=[72, 108]),
   midi.NoteOnEvent(tick=1, channel=0, data=[64, 83]),
   midi.NoteOnEvent(tick=8, channel=0, data=[79, 0]),
   midi.NoteOnEvent(tick=16, channel=0, data=[72, 0]),
   midi.NoteOnEvent(tick=1, channel=0, data=[79, 106]),
   midi.NoteOnEvent(tick=3, channel=0, data=[67, 0]),
   midi.NoteOnEvent(tick=1, channel=0, data=[64, 0]),
   midi.NoteOnEvent(tick=25, channel=0, data=[62, 80]),
   midi.NoteOnEvent(tick=0, channel=0, data=[74, 104]),
   midi.NoteOnEvent(tick=1, channel=0, data=[67, 81]),
   midi.NoteOnEvent(tick=10, channel=0, data=[79, 0]),
   midi.NoteOnEvent(tick=14, channel=0, data=[74, 0]),
   midi.NoteOnEvent(tick=4, channel=0, data=[62, 0]),
   midi.NoteOnEvent(tick=1, channel=0, data=[67, 0]),
   midi.NoteOnEvent(tick=4, channel=0, data=[79, 112]),
   midi.NoteOnEvent(tick=36, channel=0, data=[67, 61]),
   midi.NoteOnEvent(tick=0, channel=0, data=[76, 96]),
   midi.NoteOnEvent(tick=1, channel=0, data=[64, 57]),
   midi.NoteOnEvent(tick=0, channel=0, data=[60, 65]),
   midi.NoteOnEvent(tick=1, channel=0, data=[79, 0]),
   midi.NoteOnEvent(tick=29, channel=0, data=[79, 107]),
   midi.NoteOnEvent(tick=4, channel=0, data=[67, 0]),
   midi.NoteOnEvent(tick=0, channel=0, data=[76, 0]),
   midi.ControlChangeEvent(tick=0, channel=0, data=[64, 127]),
   midi.NoteOnEvent(tick=19, channel=0, data=[60, 0]),
   midi.NoteOnEvent(tick=3, channel=0, data=[64, 0]),
   midi.NoteOnEvent(tick=4, channel=0, data=[84, 119]),
   midi.NoteOnEvent(tick=10, channel=0, data=[79, 0]),
   midi.NoteOnEvent(tick=24, channel=0, data=[83, 118]),
   midi.NoteOnEvent(tick=6, channel=0, data=[84, 0]),
   midi.ControlChangeEvent(tick=29, channel=0, data=[64, 0]),
   midi.NoteOnEvent(tick=0, channel=0, data=[81, 109]),
   midi.NoteOnEvent(tick=10, channel=0, data=[83, 0]),
   midi.NoteOnEvent(tick=20, channel=0, data=[79, 105]),
   midi.NoteOnEvent(tick=20, channel=0, data=[81, 0]),
   midi.NoteOnEvent(tick=5, channel=0, data=[77, 100]),
   midi.NoteOnEvent(tick=5, channel=0, data=[79, 0]),
   midi.NoteOnEvent(tick=25, channel=0, data=[76, 98]),
   midi.NoteOnEvent(tick=10, channel=0, data=[77, 0]),
   midi.NoteOnEvent(tick=23, channel=0, data=[74, 104]),
   midi.NoteOnEvent(tick=7, channel=0, data=[76, 0]),
   midi.NoteOnEvent(tick=21, channel=0, data=[79, 103]),
   midi.NoteOnEvent(tick=2, channel=0, data=[74, 0]),
   midi.NoteOnEvent(tick=34, channel=0, data=[77, 106]),
   midi.NoteOnEvent(tick=7, channel=0, data=[79, 0]),
   midi.NoteOnEvent(tick=26, channel=0, data=[74, 98]),
   midi.NoteOnEvent(tick=2, channel=0, data=[77, 0]),
   midi.NoteOnEvent(tick=28, channel=0, data=[74, 0]),
   midi.NoteOnEvent(tick=9, channel=0, data=[76, 94]),
   midi.NoteOnEvent(tick=33, channel=0, data=[76, 0]),
   midi.NoteOnEvent(tick=3, channel=0, data=[77, 92]),
   midi.NoteOnEvent(tick=33, channel=0, data=[76, 91]),
   midi.NoteOnEvent(tick=2, channel=0, data=[77, 0]),
   midi.NoteOnEvent(tick=30, channel=0, data=[75, 93]),
   midi.NoteOnEvent(tick=6, channel=0, data=[76, 0]),
   midi.NoteOnEvent(tick=24, channel=0, data=[75, 0]),
   midi.NoteOnEvent(tick=5, channel=0, data=[76, 97]),
   midi.NoteOnEvent(tick=36, channel=0, data=[76, 0]),
   midi.NoteOnEvent(tick=0, channel=0, data=[71, 92]),
   midi.NoteOnEvent(tick=28, channel=0, data=[71, 0]),
   midi.NoteOnEvent(tick=6, channel=0, data=[76, 91]),
   midi.NoteOnEvent(tick=35, channel=0, data=[76, 0]),
   midi.NoteOnEvent(tick=3, channel=0, data=[75, 85]),
   midi.NoteOnEvent(tick=37, channel=0, data=[76, 86]),
   midi.NoteOnEvent(tick=1, channel=0, data=[75, 0]),
   midi.NoteOnEvent(tick=34, channel=0, data=[76, 0]),
   midi.NoteOnEvent(tick=0, channel=0, data=[71, 76]),
   midi.NoteOnEvent(tick=25, channel=0, data=[71, 0]),
   midi.NoteOnEvent(tick=12, channel=0, data=[76, 93]),
   midi.NoteOnEvent(tick=36, channel=0, data=[76, 0]),
   midi.NoteOnEvent(tick=2, channel=0, data=[75, 83]),
   midi.NoteOnEvent(tick=60, channel=0, data=[75, 0]),
   midi.NoteOnEvent(tick=0, channel=0, data=[76, 74]),
   midi.NoteOnEvent(tick=240, channel=0, data=[76, 0]),
   midi.NoteOnEvent(tick=0, channel=0, data=[71, 74]),
   midi.NoteOnEvent(tick=70, channel=0, data=[76, 73]),
   midi.NoteOnEvent(tick=5, channel=0, data=[71, 0]),
   midi.NoteOnEvent(tick=66, channel=0, data=[75, 76]),
   midi.NoteOnEvent(tick=1, channel=0, data=[76, 0]),
   midi.NoteOnEvent(tick=84, channel=0, data=[75, 0]),
   midi.NoteOnEvent(tick=9, channel=0, data=[76, 66]),
   midi.NoteOnEvent(tick=266, channel=0, data=[76, 0]),
   midi.NoteOnEvent(tick=0, channel=0, data=[71, 69]),
   midi.NoteOnEvent(tick=95, channel=0, data=[71, 0]),
   midi.NoteOnEvent(tick=14, channel=0, data=[76, 62]),
   midi.NoteOnEvent(tick=100, channel=0, data=[75, 61]),
   midi.NoteOnEvent(tick=13, channel=0, data=[76, 0]),
   midi.NoteOnEvent(tick=87, channel=0, data=[76, 65]),
   midi.NoteOnEvent(tick=23, channel=0, data=[75, 0]),
   midi.NoteOnEvent(tick=36, channel=0, data=[76, 0]),
   midi.NoteOnEvent(tick=21, channel=0, data=[75, 60]),
   midi.NoteOnEvent(tick=87, channel=0, data=[76, 69]),
   midi.NoteOnEvent(tick=8, channel=0, data=[75, 0]),
   midi.NoteOnEvent(tick=51, channel=0, data=[76, 0]),
   midi.NoteOnEvent(tick=29, channel=0, data=[75, 65]),
   midi.NoteOnEvent(tick=131, channel=0, data=[76, 66]),
   midi.NoteOnEvent(tick=32, channel=0, data=[75, 0]),
   midi.NoteOnEvent(tick=57, channel=0, data=[76, 0]),
   midi.NoteOnEvent(tick=30, channel=0, data=[75, 64]),
   midi.NoteOnEvent(tick=93, channel=0, data=[75, 0]),
   midi.NoteOnEvent(tick=8, channel=0, data=[76, 59]),
   midi.NoteOnEvent(tick=74, channel=0, data=[75, 60]),
   midi.NoteOnEvent(tick=12, channel=0, data=[76, 0]),
   midi.NoteOnEvent(tick=63, channel=0, data=[76, 73]),
   midi.NoteOnEvent(tick=3, channel=0, data=[75, 0]),
   midi.NoteOnEvent(tick=64, channel=0, data=[71, 73]),
   midi.NoteOnEvent(tick=14, channel=0, data=[76, 0]),
   midi.NoteOnEvent(tick=50, channel=0, data=[74, 81]),
   midi.NoteOnEvent(tick=46, channel=0, data=[71, 0]),
   midi.NoteOnEvent(tick=17, channel=0, data=[74, 0]),
   midi.NoteOnEvent(tick=2, channel=0, data=[72, 76]),
   midi.NoteOnEvent(tick=71, channel=0, data=[69, 73]),
   midi.NoteOnEvent(tick=12, channel=0, data=[72, 0]),
   midi.ControlChangeEvent(tick=32, channel=0, data=[64, 127]),
   midi.NoteOnEvent(tick=105, channel=0, data=[69, 0]),
   midi.NoteOnEvent(tick=29, channel=0, data=[60, 78]),
   midi.NoteOnEvent(tick=55, channel=0, data=[64, 75]),
   midi.NoteOnEvent(tick=1, channel=0, data=[60, 0]),
   midi.ControlChangeEvent(tick=31, channel=0, data=[64, 0]),
   midi.NoteOnEvent(tick=23, channel=0, data=[64, 0]),
   midi.NoteOnEvent(tick=5, channel=0, data=[69, 78]),
   midi.NoteOnEvent(tick=51, channel=0, data=[69, 0]),
   midi.NoteOnEvent(tick=3, channel=0, data=[71, 80]),
   midi.ControlChangeEvent(tick=31, channel=0, data=[64, 127]),
   midi.NoteOnEvent(tick=88, channel=0, data=[71, 0]),
   midi.NoteOnEvent(tick=37, channel=0, data=[64, 91]),
   midi.NoteOnEvent(tick=47, channel=0, data=[68, 96]),
   midi.NoteOnEvent(tick=28, channel=0, data=[64, 0]),
   midi.ControlChangeEvent(tick=25, channel=0, data=[64, 0]),
   midi.NoteOnEvent(tick=5, channel=0, data=[71, 93]),
   midi.NoteOnEvent(tick=7, channel=0, data=[68, 0]),
   midi.NoteOnEvent(tick=53, channel=0, data=[71, 0]),
   midi.NoteOnEvent(tick=5, channel=0, data=[72, 86]),
   midi.ControlChangeEvent(tick=61, channel=0, data=[64, 127]),
   midi.NoteOnEvent(tick=58, channel=0, data=[72, 0]),
   midi.NoteOnEvent(tick=63, channel=0, data=[64, 82]),
   midi.ControlChangeEvent(tick=44, channel=0, data=[64, 0]),
   midi.NoteOnEvent(tick=11, channel=0, data=[64, 0]),
   midi.NoteOnEvent(tick=10, channel=0, data=[76, 84]),
   midi.NoteOnEvent(tick=58, channel=0, data=[75, 84]),
   midi.NoteOnEvent(tick=3, channel=0, data=[76, 0]),
   midi.NoteOnEvent(tick=62, channel=0, data=[76, 92]),
   midi.NoteOnEvent(tick=2, channel=0, data=[75, 0]),
   midi.NoteOnEvent(tick=58, channel=0, data=[75, 85]),
   midi.NoteOnEvent(tick=18, channel=0, data=[76, 0]),
   midi.NoteOnEvent(tick=33, channel=0, data=[76, 90]),
   midi.NoteOnEvent(tick=2, channel=0, data=[75, 0]),
   midi.NoteOnEvent(tick=52, channel=0, data=[71, 86]),
   midi.NoteOnEvent(tick=11, channel=0, data=[76, 0]),
   midi.NoteOnEvent(tick=45, channel=0, data=[74, 88]),
   midi.NoteOnEvent(tick=19, channel=0, data=[71, 0]),
   midi.NoteOnEvent(tick=35, channel=0, data=[72, 92]),
   midi.NoteOnEvent(tick=6, channel=0, data=[74, 0]),
   midi.NoteOnEvent(tick=64, channel=0, data=[69, 83]),
   midi.NoteOnEvent(tick=3, channel=0, data=[72, 0]),
   midi.ControlChangeEvent(tick=42, channel=0, data=[64, 127]),
   midi.NoteOnEvent(tick=21, channel=0, data=[69, 0]),
   midi.NoteOnEvent(tick=109, channel=0, data=[60, 82]),
   midi.ControlChangeEvent(tick=50, channel=0, data=[64, 0]),
   midi.NoteOnEvent(tick=1, channel=0, data=[64, 75]),
   midi.NoteOnEvent(tick=4, channel=0, data=[60, 0]),
   midi.NoteOnEvent(tick=47, channel=0, data=[69, 85]),
   midi.NoteOnEvent(tick=9, channel=0, data=[64, 0]),
   midi.NoteOnEvent(tick=42, channel=0, data=[69, 0]),
   midi.NoteOnEvent(tick=2, channel=0, data=[71, 90]),
   midi.ControlChangeEvent(tick=30, channel=0, data=[64, 127]),
   midi.NoteOnEvent(tick=59, channel=0, data=[71, 0]),
   midi.NoteOnEvent(tick=67, channel=0, data=[64, 75]),
   midi.ControlChangeEvent(tick=25, channel=0, data=[64, 0]),
   midi.NoteOnEvent(tick=31, channel=0, data=[72, 94]),
   midi.NoteOnEvent(tick=14, channel=0, data=[64, 0]),
   midi.NoteOnEvent(tick=41, channel=0, data=[71, 83]),
   midi.NoteOnEvent(tick=3, channel=0, data=[72, 0]),
   midi.NoteOnEvent(tick=56, channel=0, data=[71, 0]),
   midi.NoteOnEvent(tick=2, channel=0, data=[69, 80]),
   midi.ControlChangeEvent(tick=53, channel=0, data=[64, 127]),
   midi.NoteOnEvent(tick=27, channel=0, data=[69, 0]),
   midi.NoteOnEvent(tick=93, channel=0, data=[71, 96]),
   midi.ControlChangeEvent(tick=49, channel=0, data=[64, 0]),
   midi.NoteOnEvent(tick=10, channel=0, data=[72, 103]),
   midi.NoteOnEvent(tick=19, channel=0, data=[71, 0]),
   midi.NoteOnEvent(tick=33, channel=0, data=[74, 109]),
   midi.NoteOnEvent(tick=13, channel=0, data=[72, 0]),
   midi.NoteOnEvent(tick=45, channel=0, data=[76, 107]),
   midi.NoteOnEvent(tick=5, channel=0, data=[74, 0]),
   midi.ControlChangeEvent(tick=35, channel=0, data=[64, 127]),
   midi.NoteOnEvent(tick=70, channel=0, data=[60, 103]),
   midi.NoteOnEvent(tick=9, channel=0, data=[76, 0]),
   midi.NoteOnEvent(tick=36, channel=0, data=[67, 104]),
   midi.NoteOnEvent(tick=7, channel=0, data=[60, 0]),
   midi.NoteOnEvent(tick=49, channel=0, data=[77, 106]),
   midi.ControlChangeEvent(tick=15, channel=0, data=[64, 0]),
   midi.NoteOnEvent(tick=5, channel=0, data=[67, 0]),
   midi.NoteOnEvent(tick=34, channel=0, data=[76, 96]),
   midi.NoteOnEvent(tick=24, channel=0, data=[77, 0]),
   midi.NoteOnEvent(tick=36, channel=0, data=[74, 101]),
   midi.NoteOnEvent(tick=10, channel=0, data=[76, 0]),
   midi.ControlChangeEvent(tick=15, channel=0, data=[64, 127]),
   midi.NoteOnEvent(tick=94, channel=0, data=[74, 0]),
   midi.NoteOnEvent(tick=41, channel=0, data=[65, 94]),
   midi.ControlChangeEvent(tick=41, channel=0, data=[64, 0]),
   midi.NoteOnEvent(tick=15, channel=0, data=[76, 98]),
   midi.NoteOnEvent(tick=9, channel=0, data=[65, 0]),
   midi.NoteOnEvent(tick=47, channel=0, data=[74, 88]),
   midi.NoteOnEvent(tick=5, channel=0, data=[76, 0]),
   midi.NoteOnEvent(tick=51, channel=0, data=[74, 0]),
   midi.NoteOnEvent(tick=7, channel=0, data=[72, 82]),
   midi.NoteOnEvent(tick=149, channel=0, data=[72, 0]),
   midi.NoteOnEvent(tick=26, channel=0, data=[64, 81]),
   midi.NoteOnEvent(tick=62, channel=0, data=[74, 83]),
   midi.NoteOnEvent(tick=3, channel=0, data=[64, 0]),
   midi.NoteOnEvent(tick=56, channel=0, data=[74, 0]),
   midi.NoteOnEvent(tick=2, channel=0, data=[72, 81]),
   midi.NoteOnEvent(tick=72, channel=0, data=[71, 74]),
   midi.ControlChangeEvent(tick=2, channel=0, data=[64, 127]),
   midi.NoteOnEvent(tick=15, channel=0, data=[72, 0]),
   midi.NoteOnEvent(tick=113, channel=0, data=[64, 65]),
   midi.NoteOnEvent(tick=19, channel=0, data=[71, 0]),
   midi.NoteOnEvent(tick=11, channel=0, data=[64, 0]),
   midi.NoteOnEvent(tick=35, channel=0, data=[64, 62]),
   midi.NoteOnEvent(tick=60, channel=0, data=[64, 0]),
   midi.NoteOnEvent(tick=5, channel=0, data=[76, 71]),
   midi.NoteOnEvent(tick=56, channel=0, data=[64, 76]),
   midi.NoteOnEvent(tick=3, channel=0, data=[76, 0]),
   midi.NoteOnEvent(tick=57, channel=0, data=[64, 0]),
   midi.NoteOnEvent(tick=6, channel=0, data=[76, 69]),
   midi.NoteOnEvent(tick=45, channel=0, data=[76, 0]),
   midi.NoteOnEvent(tick=24, channel=0, data=[76, 63]),
   midi.NoteOnEvent(tick=79, channel=0, data=[88, 61]),
   midi.NoteOnEvent(tick=11, channel=0, data=[76, 0]),
   midi.NoteOnEvent(tick=49, channel=0, data=[88, 0]),
   midi.ControlChangeEvent(tick=17, channel=0, data=[64, 0]),
   midi.NoteOnEvent(tick=0, channel=0, data=[75, 63]),
   midi.NoteOnEvent(tick=97, channel=0, data=[75, 0]),
   midi.NoteOnEvent(tick=7, channel=0, data=[76, 60]),
   midi.NoteOnEvent(tick=89, channel=0, data=[76, 0]),
   midi.NoteOnEvent(tick=30, channel=0, data=[75, 64]),
   midi.NoteOnEvent(tick=97, channel=0, data=[75, 0]),
   midi.NoteOnEvent(tick=3, channel=0, data=[76, 62]),
   midi.NoteOnEvent(tick=67, channel=0, data=[76, 0]),
   midi.NoteOnEvent(tick=14, channel=0, data=[75, 73]),
   midi.NoteOnEvent(tick=85, channel=0, data=[76, 71]),
   midi.NoteOnEvent(tick=5, channel=0, data=[75, 0]),
   midi.NoteOnEvent(tick=75, channel=0, data=[76, 0]),
   midi.NoteOnEvent(tick=15, channel=0, data=[75, 64]),
   midi.NoteOnEvent(tick=85, channel=0, data=[75, 0]),
   midi.NoteOnEvent(tick=9, channel=0, data=[76, 61]),
   midi.NoteOnEvent(tick=85, channel=0, data=[75, 69]),
   midi.NoteOnEvent(tick=3, channel=0, data=[76, 0]),
   midi.NoteOnEvent(tick=72, channel=0, data=[75, 0]),
   midi.NoteOnEvent(tick=0, channel=0, data=[76, 66]),
   midi.NoteOnEvent(tick=60, channel=0, data=[75, 84]),
   midi.NoteOnEvent(tick=6, channel=0, data=[76, 0]),
   midi.NoteOnEvent(tick=49, channel=0, data=[75, 0]),
   midi.NoteOnEvent(tick=5, channel=0, data=[76, 82]),
   midi.NoteOnEvent(tick=55, channel=0, data=[71, 87]),
   midi.NoteOnEvent(tick=15, channel=0, data=[76, 0]),
   midi.NoteOnEvent(tick=50, channel=0, data=[74, 76]),
   midi.NoteOnEvent(tick=20, channel=0, data=[71, 0]),
   midi.NoteOnEvent(tick=51, channel=0, data=[72, 78]),
   midi.NoteOnEvent(tick=11, channel=0, data=[74, 0]),
   midi.NoteOnEvent(tick=73, channel=0, data=[69, 76]),
   midi.NoteOnEvent(tick=4, channel=0, data=[72, 0]),
   midi.ControlChangeEvent(tick=41, channel=0, data=[64, 127]),
   midi.NoteOnEvent(tick=32, channel=0, data=[69, 0]),
   midi.NoteOnEvent(tick=98, channel=0, data=[60, 80]),
   midi.NoteOnEvent(tick=46, channel=0, data=[60, 0]),
   midi.NoteOnEvent(tick=4, channel=0, data=[64, 73]),
   midi.ControlChangeEvent(tick=11, channel=0, data=[64, 0]),
   midi.NoteOnEvent(tick=44, channel=0, data=[64, 0]),
   midi.NoteOnEvent(tick=0, channel=0, data=[69, 73]),
   midi.NoteOnEvent(tick=50, channel=0, data=[69, 0]),
   midi.NoteOnEvent(tick=5, channel=0, data=[71, 76]),
   midi.ControlChangeEvent(tick=30, channel=0, data=[64, 127]),
   midi.NoteOnEvent(tick=89, channel=0, data=[71, 0]),
   midi.NoteOnEvent(tick=46, channel=0, data=[64, 75]),
   midi.NoteOnEvent(tick=45, channel=0, data=[68, 77]),
   midi.ControlChangeEvent(tick=15, channel=0, data=[64, 0]),
   midi.NoteOnEvent(tick=7, channel=0, data=[64, 0]),
   midi.NoteOnEvent(tick=33, channel=0, data=[71, 93]),
   midi.NoteOnEvent(tick=6, channel=0, data=[68, 0]),
   midi.NoteOnEvent(tick=49, channel=0, data=[71, 0]),
   midi.NoteOnEvent(tick=10, channel=0, data=[72, 87]),
   midi.ControlChangeEvent(tick=42, channel=0, data=[64, 127]),
   midi.NoteOnEvent(tick=107, channel=0, data=[72, 0]),
   midi.NoteOnEvent(tick=31, channel=0, data=[64, 63]),
   midi.NoteOnEvent(tick=51, channel=0, data=[64, 0]),
   midi.ControlChangeEvent(tick=11, channel=0, data=[64, 0]),
   midi.NoteOnEvent(tick=3, channel=0, data=[76, 71]),
   midi.NoteOnEvent(tick=66, channel=0, data=[75, 71]),
   midi.NoteOnEvent(tick=7, channel=0, data=[76, 0]),
   midi.NoteOnEvent(tick=52, channel=0, data=[76, 77]),
   midi.NoteOnEvent(tick=4, channel=0, data=[75, 0]),
   midi.NoteOnEvent(tick=58, channel=0, data=[75, 76]),
   midi.NoteOnEvent(tick=16, channel=0, data=[76, 0]),
   midi.NoteOnEvent(tick=37, channel=0, data=[76, 88]),
   midi.NoteOnEvent(tick=3, channel=0, data=[75, 0]),
   midi.NoteOnEvent(tick=47, channel=0, data=[71, 84]),
   midi.NoteOnEvent(tick=12, channel=0, data=[76, 0]),
   midi.NoteOnEvent(tick=45, channel=0, data=[74, 88]),
   midi.NoteOnEvent(tick=20, channel=0, data=[71, 0]),
   midi.NoteOnEvent(tick=33, channel=0, data=[74, 0]),
   midi.NoteOnEvent(tick=0, channel=0, data=[72, 83]),
   midi.NoteOnEvent(tick=60, channel=0, data=[72, 0]),
   midi.NoteOnEvent(tick=0, channel=0, data=[69, 80]),
   midi.ControlChangeEvent(tick=45, channel=0, data=[64, 127]),
   midi.NoteOnEvent(tick=74, channel=0, data=[69, 0]),
   midi.NoteOnEvent(tick=41, channel=0, data=[60, 84]),
   midi.NoteOnEvent(tick=42, channel=0, data=[60, 0]),
   midi.NoteOnEvent(tick=9, channel=0, data=[64, 75]),
   midi.NoteOnEvent(tick=54, channel=0, data=[69, 89]),
   midi.NoteOnEvent(tick=6, channel=0, data=[64, 0]),
   midi.ControlChangeEvent(tick=19, channel=0, data=[64, 0]),
   midi.NoteOnEvent(tick=25, channel=0, data=[69, 0]),
   midi.NoteOnEvent(tick=8, channel=0, data=[71, 89]),
   midi.ControlChangeEvent(tick=47, channel=0, data=[64, 127]),
   midi.NoteOnEvent(tick=102, channel=0, data=[71, 0]),
   midi.NoteOnEvent(tick=8, channel=0, data=[64, 82]),
   midi.NoteOnEvent(tick=55, channel=0, data=[72, 90]),
   midi.NoteOnEvent(tick=26, channel=0, data=[64, 0]),
   midi.ControlChangeEvent(tick=24, channel=0, data=[64, 0]),
   midi.NoteOnEvent(tick=11, channel=0, data=[71, 89]),
   midi.NoteOnEvent(tick=4, channel=0, data=[72, 0]),
   midi.NoteOnEvent(tick=66, channel=0, data=[71, 0]),
   midi.NoteOnEvent(tick=4, channel=0, data=[69, 76]),
   midi.ControlChangeEvent(tick=45, channel=0, data=[64, 127]),
   midi.NoteOnEvent(tick=134, channel=0, data=[69, 0]),
   midi.ControlChangeEvent(tick=161, channel=0, data=[64, 0]),
   midi.NoteOnEvent(tick=1, channel=0, data=[73, 85]),
   midi.NoteOnEvent(tick=0, channel=0, data=[70, 74]),
   midi.NoteOnEvent(tick=0, channel=0, data=[67, 67]),
   midi.NoteOnEvent(tick=0, channel=0, data=[64, 58]),
   midi.ControlChangeEvent(tick=51, channel=0, data=[64, 127]),
   midi.NoteOnEvent(tick=50, channel=0, data=[64, 0]),
   midi.NoteOnEvent(tick=19, channel=0, data=[67, 0]),
   midi.NoteOnEvent(tick=30, channel=0, data=[70, 0]),
   midi.NoteOnEvent(tick=60, channel=0, data=[73, 0]),
   midi.NoteOnEvent(tick=106, channel=0, data=[74, 96]),
   midi.NoteOnEvent(tick=1, channel=0, data=[65, 93]),
   midi.ControlChangeEvent(tick=2, channel=0, data=[64, 0]),
   midi.NoteOnEvent(tick=0, channel=0, data=[69, 94]),
   midi.ControlChangeEvent(tick=46, channel=0, data=[64, 127]),
   midi.NoteOnEvent(tick=38, channel=0, data=[65, 0]),
   midi.NoteOnEvent(tick=2, channel=0, data=[69, 0]),
   midi.NoteOnEvent(tick=11, channel=0, data=[74, 0]),
   midi.ControlChangeEvent(tick=103, channel=0, data=[64, 0]),
   midi.NoteOnEvent(tick=0, channel=0, data=[76, 94]),
   midi.NoteOnEvent(tick=0, channel=0, data=[73, 91]),
   midi.ControlChangeEvent(tick=16, channel=0, data=[64, 127]),
   midi.NoteOnEvent(tick=16, channel=0, data=[73, 0]),
   midi.NoteOnEvent(tick=8, channel=0, data=[76, 0]),
   midi.NoteOnEvent(tick=10, channel=0, data=[77, 102]),
   midi.NoteOnEvent(tick=0, channel=0, data=[74, 98]),
   midi.NoteOnEvent(tick=30, channel=0, data=[74, 0]),
   midi.NoteOnEvent(tick=15, channel=0, data=[77, 0]),
   midi.NoteOnEvent(tick=10, channel=0, data=[74, 105]),
   midi.NoteOnEvent(tick=0, channel=0, data=[77, 107]),
   midi.NoteOnEvent(tick=1, channel=0, data=[68, 101]),
   midi.ControlChangeEvent(tick=14, channel=0, data=[64, 0]),
   midi.ControlChangeEvent(tick=50, channel=0, data=[64, 127]),
   midi.NoteOnEvent(tick=46, channel=0, data=[68, 0]),
   midi.NoteOnEvent(tick=1, channel=0, data=[74, 0]),
   midi.NoteOnEvent(tick=8, channel=0, data=[77, 0]),
   midi.NoteOnEvent(tick=90, channel=0, data=[68, 101]),
   midi.NoteOnEvent(tick=0, channel=0, data=[74, 108]),
   midi.NoteOnEvent(tick=0, channel=0, data=[77, 107]),
   midi.ControlChangeEvent(tick=2, channel=0, data=[64, 0]),
   midi.ControlChangeEvent(tick=23, channel=0, data=[64, 127]),
   midi.NoteOnEvent(tick=25, channel=0, data=[74, 0]),
   midi.NoteOnEvent(tick=0, channel=0, data=[68, 0]),
   midi.NoteOnEvent(tick=7, channel=0, data=[77, 0]),
   midi.NoteOnEvent(tick=43, channel=0, data=[72, 106]),
   midi.NoteOnEvent(tick=0, channel=0, data=[76, 109]),
   midi.NoteOnEvent(tick=1, channel=0, data=[69, 107]),
   midi.ControlChangeEvent(tick=4, channel=0, data=[64, 0]),
   midi.ControlChangeEvent(tick=40, channel=0, data=[64, 127]),
   midi.ControlChangeEvent(tick=80, channel=0, data=[64, 0]),
   midi.ControlChangeEvent(tick=66, channel=0, data=[64, 127]),
   midi.NoteOnEvent(tick=11, channel=0, data=[76, 0]),
   midi.NoteOnEvent(tick=3, channel=0, data=[72, 0]),
   midi.NoteOnEvent(tick=7, channel=0, data=[69, 0]),
   midi.NoteOnEvent(tick=90, channel=0, data=[65, 112]),
   midi.NoteOnEvent(tick=0, channel=0, data=[74, 106]),
   midi.ControlChangeEvent(tick=5, channel=0, data=[64, 0]),
   midi.ControlChangeEvent(tick=45, channel=0, data=[64, 127]),
   midi.NoteOnEvent(tick=129, channel=0, data=[74, 0]),
   midi.NoteOnEvent(tick=0, channel=0, data=[65, 0]),
   midi.NoteOnEvent(tick=22, channel=0, data=[72, 113]),
   midi.NoteOnEvent(tick=0, channel=0, data=[64, 97]),
   midi.NoteOnEvent(tick=42, channel=0, data=[62, 89]),
   midi.NoteOnEvent(tick=0, channel=0, data=[71, 111]),
   midi.NoteOnEvent(tick=17, channel=0, data=[64, 0]),
   midi.NoteOnEvent(tick=0, channel=0, data=[72, 0]),
   midi.NoteOnEvent(tick=38, channel=0, data=[60, 100]),
   midi.NoteOnEvent(tick=0, channel=0, data=[66, 102]),
   midi.NoteOnEvent(tick=0, channel=0, data=[69, 113]),
   midi.NoteOnEvent(tick=4, channel=0, data=[62, 0]),
   midi.NoteOnEvent(tick=0, channel=0, data=[71, 0]),
   midi.ControlChangeEvent(tick=1, channel=0, data=[64, 0]),
   midi.ControlChangeEvent(tick=45, channel=0, data=[64, 127]),
   midi.NoteOnEvent(tick=35, channel=0, data=[66, 0]),
   midi.NoteOnEvent(tick=5, channel=0, data=[60, 0]),
   midi.NoteOnEvent(tick=3, channel=0, data=[69, 0]),
   midi.ControlChangeEvent(tick=92, channel=0, data=[64, 0]),
   midi.NoteOnEvent(tick=9, channel=0, data=[69, 117]),
   midi.NoteOnEvent(tick=0, channel=0, data=[60, 115]),
   midi.NoteOnEvent(tick=65, channel=0, data=[60, 0]),
   midi.NoteOnEvent(tick=5, channel=0, data=[69, 0]),
   midi.NoteOnEvent(tick=31, channel=0, data=[60, 112]),
   midi.NoteOnEvent(tick=1, channel=0, data=[69, 115]),
   midi.NoteOnEvent(tick=101, channel=0, data=[72, 100]),
   midi.NoteOnEvent(tick=0, channel=0, data=[64, 76]),
   midi.NoteOnEvent(tick=2, channel=0, data=[69, 0]),
   midi.NoteOnEvent(tick=15, channel=0, data=[60, 0]),
   midi.NoteOnEvent(tick=77, channel=0, data=[62, 70]),
   midi.NoteOnEvent(tick=0, channel=0, data=[71, 96]),
   midi.NoteOnEvent(tick=16, channel=0, data=[72, 0]),
   midi.NoteOnEvent(tick=9, channel=0, data=[64, 0]),
   midi.NoteOnEvent(tick=88, channel=0, data=[71, 0]),
   midi.NoteOnEvent(tick=6, channel=0, data=[62, 0]),
   midi.NoteOnEvent(tick=0, channel=0, data=[69, 87]),
   midi.NoteOnEvent(tick=1, channel=0, data=[60, 80]),
   midi.ControlChangeEvent(tick=39, channel=0, data=[64, 127]),
   midi.NoteOnEvent(tick=169, channel=0, data=[69, 0]),
   midi.NoteOnEvent(tick=1, channel=0, data=[60, 0]),
   midi.ControlChangeEvent(tick=96, channel=0, data=[64, 0]),
   midi.NoteOnEvent(tick=2, channel=0, data=[73, 102]),
   midi.NoteOnEvent(tick=2, channel=0, data=[64, 100]),
   midi.NoteOnEvent(tick=0, channel=0, data=[67, 95]),
   midi.NoteOnEvent(tick=0, channel=0, data=[70, 103]),
   midi.ControlChangeEvent(tick=45, channel=0, data=[64, 127]),
   midi.NoteOnEvent(tick=162, channel=0, data=[73, 0]),
   midi.NoteOnEvent(tick=2, channel=0, data=[64, 0]),
   midi.NoteOnEvent(tick=0, channel=0, data=[67, 0]),
   midi.NoteOnEvent(tick=0, channel=0, data=[70, 0]),
   midi.NoteOnEvent(tick=83, channel=0, data=[74, 99]),
   midi.NoteOnEvent(tick=3, channel=0, data=[69, 95]),
   midi.NoteOnEvent(tick=0, channel=0, data=[65, 90]),
   midi.ControlChangeEvent(tick=5, channel=0, data=[64, 0]),
   midi.ControlChangeEvent(tick=36, channel=0, data=[64, 127]),
   midi.NoteOnEvent(tick=105, channel=0, data=[74, 0]),
   midi.NoteOnEvent(tick=3, channel=0, data=[65, 0]),
   midi.NoteOnEvent(tick=0, channel=0, data=[69, 0]),
   midi.ControlChangeEvent(tick=27, channel=0, data=[64, 0]),
   midi.NoteOnEvent(tick=10, channel=0, data=[73, 92]),
   midi.NoteOnEvent(tick=1, channel=0, data=[76, 96]),
   midi.ControlChangeEvent(tick=23, channel=0, data=[64, 127]),
   midi.NoteOnEvent(tick=6, channel=0, data=[73, 0]),
   midi.NoteOnEvent(tick=6, channel=0, data=[76, 0]),
   midi.NoteOnEvent(tick=17, channel=0, data=[77, 97]),
   midi.NoteOnEvent(tick=0, channel=0, data=[74, 96]),
   midi.NoteOnEvent(tick=21, channel=0, data=[74, 0]),
   midi.NoteOnEvent(tick=8, channel=0, data=[77, 0]),
   midi.NoteOnEvent(tick=22, channel=0, data=[74, 97]),
   midi.NoteOnEvent(tick=1, channel=0, data=[77, 96]),
   midi.ControlChangeEvent(tick=5, channel=0, data=[64, 0]),
   midi.ControlChangeEvent(tick=44, channel=0, data=[64, 127]),
   midi.NoteOnEvent(tick=129, channel=0, data=[74, 0]),
   midi.NoteOnEvent(tick=1, channel=0, data=[77, 0]),
   midi.ControlChangeEvent(tick=0, channel=0, data=[64, 0]),
   midi.NoteOnEvent(tick=10, channel=0, data=[77, 107]),
   midi.NoteOnEvent(tick=0, channel=0, data=[74, 98]),
   midi.ControlChangeEvent(tick=21, channel=0, data=[64, 127]),
   midi.NoteOnEvent(tick=68, channel=0, data=[74, 0]),
   midi.NoteOnEvent(tick=0, channel=0, data=[77, 0]),
   midi.NoteOnEvent(tick=11, channel=0, data=[74, 97]),
   midi.NoteOnEvent(tick=0, channel=0, data=[77, 103]),
   midi.ControlChangeEvent(tick=5, channel=0, data=[64, 0]),
   midi.ControlChangeEvent(tick=40, channel=0, data=[64, 127]),
   midi.NoteOnEvent(tick=120, channel=0, data=[77, 0]),
   midi.NoteOnEvent(tick=5, channel=0, data=[74, 0]),
   midi.ControlChangeEvent(tick=105, channel=0, data=[64, 0]),
   midi.NoteOnEvent(tick=15, channel=0, data=[75, 97]),
   midi.NoteOnEvent(tick=1, channel=0, data=[67, 90]),
   midi.ControlChangeEvent(tick=35, channel=0, data=[64, 127]),
   midi.ControlChangeEvent(tick=1, channel=0, data=[64, 0]),
   midi.ControlChangeEvent(tick=0, channel=0, data=[64, 127]),
   midi.NoteOnEvent(tick=23, channel=0, data=[75, 0]),
   midi.NoteOnEvent(tick=19, channel=0, data=[67, 0]),
   midi.NoteOnEvent(tick=114, channel=0, data=[65, 87]),
   midi.NoteOnEvent(tick=0, channel=0, data=[74, 100]),
   midi.NoteOnEvent(tick=47, channel=0, data=[63, 91]),
   midi.NoteOnEvent(tick=0, channel=0, data=[72, 95]),
   midi.NoteOnEvent(tick=12, channel=0, data=[74, 0]),
   midi.NoteOnEvent(tick=0, channel=0, data=[65, 0]),
   midi.NoteOnEvent(tick=44, channel=0, data=[65, 97]),
   midi.NoteOnEvent(tick=0, channel=0, data=[70, 98]),
   midi.NoteOnEvent(tick=1, channel=0, data=[62, 93]),
   midi.NoteOnEvent(tick=2, channel=0, data=[63, 0]),
   midi.NoteOnEvent(tick=0, channel=0, data=[72, 0]),
   midi.ControlChangeEvent(tick=6, channel=0, data=[64, 0]),
   midi.NoteOnEvent(tick=107, channel=0, data=[62, 0]),
   midi.NoteOnEvent(tick=9, channel=0, data=[65, 0]),
   midi.NoteOnEvent(tick=15, channel=0, data=[70, 0]),
   midi.NoteOnEvent(tick=59, channel=0, data=[65, 87]),
   midi.NoteOnEvent(tick=0, channel=0, data=[69, 87]),
   midi.NoteOnEvent(tick=1, channel=0, data=[62, 80]),
   midi.NoteOnEvent(tick=35, channel=0, data=[62, 0]),
   midi.NoteOnEvent(tick=14, channel=0, data=[65, 0]),
   midi.NoteOnEvent(tick=50, channel=0, data=[69, 0]),
   midi.NoteOnEvent(tick=3, channel=0, data=[62, 71]),
   midi.NoteOnEvent(tick=0, channel=0, data=[65, 76]),
   midi.NoteOnEvent(tick=0, channel=0, data=[68, 88]),
   midi.NoteOnEvent(tick=90, channel=0, data=[62, 0]),
   midi.NoteOnEvent(tick=7, channel=0, data=[65, 0]),
   midi.NoteOnEvent(tick=5, channel=0, data=[68, 0]),
   midi.NoteOnEvent(tick=95, channel=0, data=[68, 93]),
   midi.NoteOnEvent(tick=0, channel=0, data=[62, 83]),
   midi.NoteOnEvent(tick=1, channel=0, data=[65, 80]),
   midi.NoteOnEvent(tick=88, channel=0, data=[62, 0]),
   midi.NoteOnEvent(tick=0, channel=0, data=[68, 0]),
   midi.NoteOnEvent(tick=1, channel=0, data=[65, 0]),
   midi.NoteOnEvent(tick=25, channel=0, data=[60, 73]),
   midi.NoteOnEvent(tick=1, channel=0, data=[64, 73]),
   midi.NoteOnEvent(tick=1, channel=0, data=[69, 77]),
   midi.NoteOnEvent(tick=147, channel=0, data=[60, 0]),
   midi.NoteOnEvent(tick=1, channel=0, data=[64, 0]),
   midi.NoteOnEvent(tick=1, channel=0, data=[69, 0]),
   midi.NoteOnEvent(tick=225, channel=0, data=[71, 74]),
   midi.NoteOnEvent(tick=0, channel=0, data=[64, 62]),
   midi.NoteOnEvent(tick=0, channel=0, data=[62, 59]),
   midi.NoteOnEvent(tick=149, channel=0, data=[62, 0]),
   midi.NoteOnEvent(tick=0, channel=0, data=[64, 0]),
   midi.NoteOnEvent(tick=30, channel=0, data=[71, 0]),
   midi.ControlChangeEvent(tick=240, channel=0, data=[64, 127]),
   midi.NoteOnEvent(tick=16, channel=0, data=[60, 81]),
   midi.NoteOnEvent(tick=34, channel=0, data=[64, 80]),
   midi.NoteOnEvent(tick=25, channel=0, data=[60, 0]),
   midi.NoteOnEvent(tick=12, channel=0, data=[69, 98]),
   midi.NoteOnEvent(tick=22, channel=0, data=[64, 0]),
   midi.NoteOnEvent(tick=15, channel=0, data=[72, 101]),
   midi.NoteOnEvent(tick=22, channel=0, data=[69, 0]),
   midi.NoteOnEvent(tick=14, channel=0, data=[76, 96]),
   midi.NoteOnEvent(tick=2, channel=0, data=[72, 0]),
   midi.NoteOnEvent(tick=33, channel=0, data=[74, 103]),
   midi.ControlChangeEvent(tick=1, channel=0, data=[64, 0]),
   midi.NoteOnEvent(tick=0, channel=0, data=[64, 70]),
   midi.NoteOnEvent(tick=0, channel=0, data=[60, 83]),
   midi.NoteOnEvent(tick=9, channel=0, data=[76, 0]),
   midi.NoteOnEvent(tick=27, channel=0, data=[72, 103]),
   midi.ControlChangeEvent(tick=3, channel=0, data=[64, 127]),
   midi.NoteOnEvent(tick=2, channel=0, data=[74, 0]),
   midi.NoteOnEvent(tick=18, channel=0, data=[60, 0]),
   midi.NoteOnEvent(tick=0, channel=0, data=[64, 0]),
   midi.NoteOnEvent(tick=12, channel=0, data=[71, 103]),
   midi.NoteOnEvent(tick=5, channel=0, data=[72, 0]),
   midi.NoteOnEvent(tick=23, channel=0, data=[71, 0]),
   midi.NoteOnEvent(tick=5, channel=0, data=[69, 103]),
   midi.NoteOnEvent(tick=0, channel=0, data=[64, 81]),
   midi.NoteOnEvent(tick=0, channel=0, data=[60, 84]),
   midi.ControlChangeEvent(tick=5, channel=0, data=[64, 0]),
   midi.NoteOnEvent(tick=35, channel=0, data=[72, 109]),
   midi.NoteOnEvent(tick=5, channel=0, data=[69, 0]),
   midi.ControlChangeEvent(tick=10, channel=0, data=[64, 127]),
   midi.NoteOnEvent(tick=20, channel=0, data=[72, 0]),
   midi.NoteOnEvent(tick=0, channel=0, data=[76, 99]),
   midi.NoteOnEvent(tick=2, channel=0, data=[60, 0]),
   midi.NoteOnEvent(tick=12, channel=0, data=[64, 0]),
   midi.NoteOnEvent(tick=16, channel=0, data=[76, 0]),
   midi.NoteOnEvent(tick=5, channel=0, data=[81, 105]),
   midi.NoteOnEvent(tick=30, channel=0, data=[81, 0]),
   midi.NoteOnEvent(tick=5, channel=0, data=[84, 113]),
   midi.NoteOnEvent(tick=36, channel=0, data=[88, 110]),
   midi.NoteOnEvent(tick=7, channel=0, data=[84, 0]),
   midi.ControlChangeEvent(tick=22, channel=0, data=[64, 0]),
   midi.NoteOnEvent(tick=5, channel=0, data=[60, 96]),
   midi.NoteOnEvent(tick=0, channel=0, data=[64, 73]),
   midi.NoteOnEvent(tick=1, channel=0, data=[86, 108]),
   midi.NoteOnEvent(tick=20, channel=0, data=[88, 0]),
   midi.NoteOnEvent(tick=14, channel=0, data=[60, 0]),
   midi.NoteOnEvent(tick=0, channel=0, data=[64, 0]),
   midi.NoteOnEvent(tick=2, channel=0, data=[86, 0]),
   midi.NoteOnEvent(tick=3, channel=0, data=[84, 110]),
   midi.ControlChangeEvent(tick=0, channel=0, data=[64, 127]),
   midi.NoteOnEvent(tick=33, channel=0, data=[83, 107]),
   midi.NoteOnEvent(tick=4, channel=0, data=[84, 0]),
   midi.NoteOnEvent(tick=26, channel=0, data=[83, 0]),
   midi.ControlChangeEvent(tick=2, channel=0, data=[64, 0]),
   midi.NoteOnEvent(tick=1, channel=0, data=[60, 94]),
   midi.NoteOnEvent(tick=0, channel=0, data=[64, 81]),
   midi.NoteOnEvent(tick=0, channel=0, data=[81, 101]),
   midi.NoteOnEvent(tick=36, channel=0, data=[84, 110]),
   midi.NoteOnEvent(tick=14, channel=0, data=[81, 0]),
   midi.ControlChangeEvent(tick=4, channel=0, data=[64, 127]),
   midi.NoteOnEvent(tick=20, channel=0, data=[88, 107]),
   midi.NoteOnEvent(tick=5, channel=0, data=[84, 0]),
   midi.NoteOnEvent(tick=15, channel=0, data=[88, 0]),
   midi.NoteOnEvent(tick=20, channel=0, data=[93, 113]),
   midi.NoteOnEvent(tick=22, channel=0, data=[60, 0]),
   midi.NoteOnEvent(tick=4, channel=0, data=[64, 0]),
   midi.NoteOnEvent(tick=14, channel=0, data=[96, 108]),
   midi.NoteOnEvent(tick=15, channel=0, data=[93, 0]),
   midi.NoteOnEvent(tick=22, channel=0, data=[100, 115]),
   midi.NoteOnEvent(tick=18, channel=0, data=[96, 0]),
   midi.ControlChangeEvent(tick=20, channel=0, data=[64, 0]),
   midi.NoteOnEvent(tick=5, channel=0, data=[64, 78]),
   midi.NoteOnEvent(tick=0, channel=0, data=[98, 116]),
   midi.NoteOnEvent(tick=1, channel=0, data=[60, 94]),
   midi.NoteOnEvent(tick=26, channel=0, data=[100, 0]),
   midi.ControlChangeEvent(tick=13, channel=0, data=[64, 127]),
   midi.NoteOnEvent(tick=5, channel=0, data=[96, 111]),
   midi.NoteOnEvent(tick=14, channel=0, data=[60, 0]),
   midi.NoteOnEvent(tick=1, channel=0, data=[64, 0]),
   midi.NoteOnEvent(tick=0, channel=0, data=[98, 0]),
   midi.NoteOnEvent(tick=20, channel=0, data=[95, 109]),
   midi.NoteOnEvent(tick=5, channel=0, data=[96, 0]),
   midi.NoteOnEvent(tick=44, channel=0, data=[60, 92]),
   midi.NoteOnEvent(tick=1, channel=0, data=[94, 110]),
   midi.NoteOnEvent(tick=1, channel=0, data=[64, 70]),
   midi.ControlChangeEvent(tick=4, channel=0, data=[64, 0]),
   midi.NoteOnEvent(tick=13, channel=0, data=[95, 0]),
   midi.NoteOnEvent(tick=32, channel=0, data=[93, 106]),
   midi.NoteOnEvent(tick=15, channel=0, data=[94, 0]),
   midi.NoteOnEvent(tick=30, channel=0, data=[92, 106]),
   midi.NoteOnEvent(tick=10, channel=0, data=[93, 0]),
   midi.NoteOnEvent(tick=30, channel=0, data=[91, 99]),
   midi.NoteOnEvent(tick=3, channel=0, data=[92, 0]),
   midi.NoteOnEvent(tick=37, channel=0, data=[90, 97]),
   midi.NoteOnEvent(tick=5, channel=0, data=[91, 0]),
   midi.NoteOnEvent(tick=9, channel=0, data=[64, 0]),
   midi.NoteOnEvent(tick=0, channel=0, data=[60, 0]),
   midi.NoteOnEvent(tick=26, channel=0, data=[89, 94]),
   midi.NoteOnEvent(tick=10, channel=0, data=[90, 0]),
   midi.NoteOnEvent(tick=30, channel=0, data=[89, 0]),
   midi.NoteOnEvent(tick=0, channel=0, data=[88, 91]),
   midi.NoteOnEvent(tick=35, channel=0, data=[87, 87]),
   midi.NoteOnEvent(tick=7, channel=0, data=[88, 0]),
   midi.NoteOnEvent(tick=33, channel=0, data=[86, 84]),
   midi.NoteOnEvent(tick=19, channel=0, data=[87, 0]),
   midi.NoteOnEvent(tick=21, channel=0, data=[85, 81]),
   midi.NoteOnEvent(tick=10, channel=0, data=[86, 0]),
   midi.NoteOnEvent(tick=35, channel=0, data=[84, 81]),
   midi.NoteOnEvent(tick=15, channel=0, data=[85, 0]),
   midi.NoteOnEvent(tick=25, channel=0, data=[84, 0]),
   midi.NoteOnEvent(tick=0, channel=0, data=[83, 76]),
   midi.NoteOnEvent(tick=40, channel=0, data=[82, 75]),
   midi.NoteOnEvent(tick=5, channel=0, data=[83, 0]),
   midi.NoteOnEvent(tick=35, channel=0, data=[81, 78]),
   midi.NoteOnEvent(tick=5, channel=0, data=[82, 0]),
   midi.NoteOnEvent(tick=42, channel=0, data=[80, 72]),
   midi.NoteOnEvent(tick=3, channel=0, data=[81, 0]),
   midi.NoteOnEvent(tick=45, channel=0, data=[80, 0]),
   midi.NoteOnEvent(tick=5, channel=0, data=[79, 72]),
   midi.NoteOnEvent(tick=66, channel=0, data=[78, 64]),
   midi.NoteOnEvent(tick=9, channel=0, data=[79, 0]),
   midi.NoteOnEvent(tick=70, channel=0, data=[77, 72]),
   midi.NoteOnEvent(tick=4, channel=0, data=[78, 0]),
   midi.NoteOnEvent(tick=106, channel=0, data=[77, 0]),
   midi.NoteOnEvent(tick=0, channel=0, data=[76, 72]),
   midi.NoteOnEvent(tick=95, channel=0, data=[75, 71]),
   midi.NoteOnEvent(tick=7, channel=0, data=[76, 0]),
   midi.NoteOnEvent(tick=63, channel=0, data=[76, 77]),
   midi.NoteOnEvent(tick=1, channel=0, data=[75, 0]),
   midi.NoteOnEvent(tick=56, channel=0, data=[71, 71]),
   midi.NoteOnEvent(tick=24, channel=0, data=[76, 0]),
   midi.NoteOnEvent(tick=34, channel=0, data=[74, 74]),
   midi.NoteOnEvent(tick=42, channel=0, data=[71, 0]),
   midi.NoteOnEvent(tick=20, channel=0, data=[72, 75]),
   midi.NoteOnEvent(tick=5, channel=0, data=[74, 0]),
   midi.NoteOnEvent(tick=83, channel=0, data=[72, 0]),
   midi.NoteOnEvent(tick=0, channel=0, data=[69, 69]),
   midi.ControlChangeEvent(tick=45, channel=0, data=[64, 127]),
   midi.NoteOnEvent(tick=35, channel=0, data=[69, 0]),
   midi.NoteOnEvent(tick=100, channel=0, data=[60, 75]),
   midi.NoteOnEvent(tick=50, channel=0, data=[60, 0]),
   midi.NoteOnEvent(tick=1, channel=0, data=[64, 71]),
   midi.NoteOnEvent(tick=41, channel=0, data=[64, 0]),
   midi.NoteOnEvent(tick=8, channel=0, data=[69, 78]),
   midi.ControlChangeEvent(tick=46, channel=0, data=[64, 0]),
   midi.NoteOnEvent(tick=2, channel=0, data=[69, 0]),
   midi.NoteOnEvent(tick=4, channel=0, data=[71, 77]),
   midi.ControlChangeEvent(tick=30, channel=0, data=[64, 127]),
   midi.NoteOnEvent(tick=80, channel=0, data=[71, 0]),
   midi.NoteOnEvent(tick=29, channel=0, data=[64, 75]),
   midi.NoteOnEvent(tick=44, channel=0, data=[68, 78]),
   midi.NoteOnEvent(tick=4, channel=0, data=[64, 0]),
   midi.NoteOnEvent(tick=41, channel=0, data=[71, 90]),
   midi.NoteOnEvent(tick=12, channel=0, data=[68, 0]),
   midi.NoteOnEvent(tick=39, channel=0, data=[71, 0]),
   midi.NoteOnEvent(tick=4, channel=0, data=[72, 91]),
   midi.ControlChangeEvent(tick=10, channel=0, data=[64, 0]),
   midi.ControlChangeEvent(tick=45, channel=0, data=[64, 127]),
   midi.NoteOnEvent(tick=100, channel=0, data=[72, 0]),
   midi.NoteOnEvent(tick=5, channel=0, data=[64, 68]),
   midi.NoteOnEvent(tick=55, channel=0, data=[64, 0]),
   midi.NoteOnEvent(tick=0, channel=0, data=[76, 76]),
   midi.ControlChangeEvent(tick=10, channel=0, data=[64, 0]),
   midi.NoteOnEvent(tick=46, channel=0, data=[75, 69]),
   midi.NoteOnEvent(tick=12, channel=0, data=[76, 0]),
   midi.NoteOnEvent(tick=47, channel=0, data=[76, 76]),
   midi.NoteOnEvent(tick=1, channel=0, data=[75, 0]),
   midi.NoteOnEvent(tick=54, channel=0, data=[75, 73]),
   midi.NoteOnEvent(tick=20, channel=0, data=[76, 0]),
   midi.NoteOnEvent(tick=25, channel=0, data=[76, 87]),
   midi.NoteOnEvent(tick=5, channel=0, data=[75, 0]),
   midi.NoteOnEvent(tick=45, channel=0, data=[71, 84]),
   midi.NoteOnEvent(tick=22, channel=0, data=[76, 0]),
   midi.NoteOnEvent(tick=23, channel=0, data=[74, 77]),
   midi.NoteOnEvent(tick=21, channel=0, data=[71, 0]),
   midi.NoteOnEvent(tick=32, channel=0, data=[74, 0]),
   midi.NoteOnEvent(tick=2, channel=0, data=[72, 75]),
   midi.NoteOnEvent(tick=55, channel=0, data=[69, 71]),
   midi.NoteOnEvent(tick=5, channel=0, data=[72, 0]),
   midi.ControlChangeEvent(tick=27, channel=0, data=[64, 127]),
   midi.NoteOnEvent(tick=103, channel=0, data=[69, 0]),
   midi.NoteOnEvent(tick=17, channel=0, data=[60, 70]),
   midi.NoteOnEvent(tick=40, channel=0, data=[60, 0]),
   midi.NoteOnEvent(tick=3, channel=0, data=[64, 75]),
   midi.NoteOnEvent(tick=45, channel=0, data=[64, 0]),
   midi.NoteOnEvent(tick=5, channel=0, data=[69, 77]),
   midi.NoteOnEvent(tick=42, channel=0, data=[69, 0]),
   midi.ControlChangeEvent(tick=3, channel=0, data=[64, 0]),
   midi.NoteOnEvent(tick=0, channel=0, data=[71, 74]),
   midi.ControlChangeEvent(tick=32, channel=0, data=[64, 127]),
   midi.NoteOnEvent(tick=88, channel=0, data=[71, 0]),
   midi.NoteOnEvent(tick=45, channel=0, data=[64, 66]),
   midi.NoteOnEvent(tick=48, channel=0, data=[64, 0]),
   midi.NoteOnEvent(tick=2, channel=0, data=[72, 83]),
   midi.NoteOnEvent(tick=45, channel=0, data=[72, 0]),
   midi.NoteOnEvent(tick=5, channel=0, data=[71, 71]),
   midi.ControlChangeEvent(tick=37, channel=0, data=[64, 0]),
   midi.NoteOnEvent(tick=8, channel=0, data=[71, 0]),
   midi.NoteOnEvent(tick=8, channel=0, data=[69, 66]),
   midi.ControlChangeEvent(tick=42, channel=0, data=[64, 127]),
   midi.NoteOnEvent(tick=77, channel=0, data=[69, 0]),
   midi.NoteOnEvent(tick=63, channel=0, data=[71, 94]),
   midi.ControlChangeEvent(tick=31, channel=0, data=[64, 0]),
   midi.NoteOnEvent(tick=24, channel=0, data=[72, 96]),
   midi.NoteOnEvent(tick=30, channel=0, data=[71, 0]),
   midi.NoteOnEvent(tick=28, channel=0, data=[74, 104]),
   midi.NoteOnEvent(tick=12, channel=0, data=[72, 0]),
   midi.NoteOnEvent(tick=45, channel=0, data=[76, 103]),
   midi.NoteOnEvent(tick=3, channel=0, data=[74, 0]),
   midi.ControlChangeEvent(tick=37, channel=0, data=[64, 127]),
   midi.NoteOnEvent(tick=22, channel=0, data=[76, 0]),
   midi.NoteOnEvent(tick=49, channel=0, data=[60, 91]),
   midi.NoteOnEvent(tick=40, channel=0, data=[67, 103]),
   midi.NoteOnEvent(tick=27, channel=0, data=[60, 0]),
   midi.NoteOnEvent(tick=27, channel=0, data=[77, 107]),
   midi.NoteOnEvent(tick=21, channel=0, data=[67, 0]),
   midi.NoteOnEvent(tick=30, channel=0, data=[76, 104]),
   midi.NoteOnEvent(tick=14, channel=0, data=[77, 0]),
   midi.ControlChangeEvent(tick=30, channel=0, data=[64, 0]),
   midi.NoteOnEvent(tick=5, channel=0, data=[74, 104]),
   midi.NoteOnEvent(tick=14, channel=0, data=[76, 0]),
   midi.ControlChangeEvent(tick=26, channel=0, data=[64, 127]),
   midi.NoteOnEvent(tick=20, channel=0, data=[74, 0]),
   midi.NoteOnEvent(tick=91, channel=0, data=[65, 91]),
   midi.NoteOnEvent(tick=51, channel=0, data=[76, 97]),
   midi.NoteOnEvent(tick=19, channel=0, data=[65, 0]),
   midi.ControlChangeEvent(tick=15, channel=0, data=[64, 0]),
   midi.NoteOnEvent(tick=19, channel=0, data=[74, 91]),
   midi.NoteOnEvent(tick=13, channel=0, data=[76, 0]),
   midi.NoteOnEvent(tick=42, channel=0, data=[72, 91]),
   midi.NoteOnEvent(tick=7, channel=0, data=[74, 0]),
   midi.ControlChangeEvent(tick=30, channel=0, data=[64, 127]),
   midi.NoteOnEvent(tick=23, channel=0, data=[72, 0]),
   midi.NoteOnEvent(tick=110, channel=0, data=[64, 83]),
   midi.ControlChangeEvent(tick=21, channel=0, data=[64, 0]),
   midi.NoteOnEvent(tick=39, channel=0, data=[74, 79]),
   midi.NoteOnEvent(tick=10, channel=0, data=[64, 0]),
   midi.NoteOnEvent(tick=45, channel=0, data=[74, 0]),
   midi.NoteOnEvent(tick=5, channel=0, data=[72, 78]),
   midi.NoteOnEvent(tick=70, channel=0, data=[71, 75]),
   midi.NoteOnEvent(tick=5, channel=0, data=[72, 0]),
   midi.ControlChangeEvent(tick=25, channel=0, data=[64, 127]),
   midi.NoteOnEvent(tick=89, channel=0, data=[71, 0]),
   midi.NoteOnEvent(tick=32, channel=0, data=[64, 72]),
   midi.NoteOnEvent(tick=35, channel=0, data=[64, 0]),
   midi.NoteOnEvent(tick=35, channel=0, data=[64, 69]),
   midi.NoteOnEvent(tick=41, channel=0, data=[64, 0]),
   midi.NoteOnEvent(tick=34, channel=0, data=[76, 72]),
   midi.NoteOnEvent(tick=38, channel=0, data=[76, 0]),
   midi.NoteOnEvent(tick=21, channel=0, data=[64, 59]),
   midi.NoteOnEvent(tick=45, channel=0, data=[64, 0]),
   midi.NoteOnEvent(tick=30, channel=0, data=[76, 66]),
   midi.NoteOnEvent(tick=30, channel=0, data=[76, 0]),
   midi.NoteOnEvent(tick=45, channel=0, data=[76, 66]),
   midi.NoteOnEvent(tick=66, channel=0, data=[76, 0]),
   midi.NoteOnEvent(tick=24, channel=0, data=[88, 64]),
   midi.ControlChangeEvent(tick=25, channel=0, data=[64, 0]),
   midi.NoteOnEvent(tick=45, channel=0, data=[88, 0]),
   midi.NoteOnEvent(tick=16, channel=0, data=[75, 77]),
   midi.NoteOnEvent(tick=115, channel=0, data=[76, 67]),
   midi.NoteOnEvent(tick=5, channel=0, data=[75, 0]),
   midi.NoteOnEvent(tick=60, channel=0, data=[76, 0]),
   midi.NoteOnEvent(tick=24, channel=0, data=[75, 65]),
   midi.NoteOnEvent(tick=71, channel=0, data=[75, 0]),
   midi.NoteOnEvent(tick=19, channel=0, data=[76, 64]),
   midi.NoteOnEvent(tick=72, channel=0, data=[76, 0]),
   midi.NoteOnEvent(tick=8, channel=0, data=[75, 60]),
   midi.NoteOnEvent(tick=125, channel=0, data=[76, 59]),
   midi.NoteOnEvent(tick=10, channel=0, data=[75, 0]),
   midi.NoteOnEvent(tick=78, channel=0, data=[76, 0]),
   midi.NoteOnEvent(tick=19, channel=0, data=[75, 67]),
   midi.NoteOnEvent(tick=98, channel=0, data=[75, 0]),
   midi.NoteOnEvent(tick=1, channel=0, data=[76, 64]),
   midi.NoteOnEvent(tick=84, channel=0, data=[75, 74]),
   midi.NoteOnEvent(tick=1, channel=0, data=[76, 0]),
   midi.NoteOnEvent(tick=74, channel=0, data=[76, 71]),
   midi.NoteOnEvent(tick=5, channel=0, data=[75, 0]),
   midi.NoteOnEvent(tick=67, channel=0, data=[75, 79]),
   midi.NoteOnEvent(tick=18, channel=0, data=[76, 0]),
   midi.NoteOnEvent(tick=37, channel=0, data=[76, 78]),
   midi.NoteOnEvent(tick=6, channel=0, data=[75, 0]),
   midi.NoteOnEvent(tick=57, channel=0, data=[71, 73]),
   midi.NoteOnEvent(tick=30, channel=0, data=[76, 0]),
   midi.NoteOnEvent(tick=26, channel=0, data=[74, 75]),
   midi.NoteOnEvent(tick=32, channel=0, data=[71, 0]),
   midi.NoteOnEvent(tick=34, channel=0, data=[72, 77]),
   midi.NoteOnEvent(tick=12, channel=0, data=[74, 0]),
   midi.NoteOnEvent(tick=63, channel=0, data=[69, 68]),
   midi.NoteOnEvent(tick=5, channel=0, data=[72, 0]),
   midi.ControlChangeEvent(tick=40, channel=0, data=[64, 127]),
   midi.NoteOnEvent(tick=28, channel=0, data=[69, 0]),
   midi.NoteOnEvent(tick=100, channel=0, data=[60, 78]),
   midi.NoteOnEvent(tick=45, channel=0, data=[60, 0]),
   midi.NoteOnEvent(tick=5, channel=0, data=[64, 77]),
   midi.NoteOnEvent(tick=45, channel=0, data=[64, 0]),
   midi.NoteOnEvent(tick=7, channel=0, data=[69, 78]),
   midi.ControlChangeEvent(tick=28, channel=0, data=[64, 0]),
   midi.NoteOnEvent(tick=23, channel=0, data=[71, 84]),
   midi.NoteOnEvent(tick=8, channel=0, data=[69, 0]),
   midi.ControlChangeEvent(tick=29, channel=0, data=[64, 127]),
   midi.NoteOnEvent(tick=82, channel=0, data=[71, 0]),
   midi.NoteOnEvent(tick=39, channel=0, data=[64, 70]),
   midi.NoteOnEvent(tick=49, channel=0, data=[68, 72]),
   midi.NoteOnEvent(tick=16, channel=0, data=[64, 0]),
   midi.ControlChangeEvent(tick=34, channel=0, data=[64, 0]),
   midi.NoteOnEvent(tick=5, channel=0, data=[71, 74]),
   midi.NoteOnEvent(tick=15, channel=0, data=[68, 0]),
   midi.NoteOnEvent(tick=53, channel=0, data=[72, 80]),
   midi.NoteOnEvent(tick=21, channel=0, data=[71, 0]),
   midi.ControlChangeEvent(tick=31, channel=0, data=[64, 127]),
   midi.NoteOnEvent(tick=36, channel=0, data=[72, 0]),
   midi.NoteOnEvent(tick=109, channel=0, data=[64, 81]),
   midi.NoteOnEvent(tick=60, channel=0, data=[64, 0]),
   midi.ControlChangeEvent(tick=1, channel=0, data=[64, 0]),
   midi.NoteOnEvent(tick=4, channel=0, data=[76, 84]),
   midi.NoteOnEvent(tick=56, channel=0, data=[75, 81]),
   midi.NoteOnEvent(tick=9, channel=0, data=[76, 0]),
   midi.NoteOnEvent(tick=45, channel=0, data=[76, 88]),
   midi.NoteOnEvent(tick=1, channel=0, data=[75, 0]),
   midi.NoteOnEvent(tick=59, channel=0, data=[75, 79]),
   midi.NoteOnEvent(tick=15, channel=0, data=[76, 0]),
   midi.NoteOnEvent(tick=36, channel=0, data=[76, 81]),
   midi.NoteOnEvent(tick=6, channel=0, data=[75, 0]),
   midi.NoteOnEvent(tick=49, channel=0, data=[71, 77]),
   midi.NoteOnEvent(tick=23, channel=0, data=[76, 0]),
   midi.NoteOnEvent(tick=31, channel=0, data=[74, 83]),
   midi.NoteOnEvent(tick=26, channel=0, data=[71, 0]),
   midi.NoteOnEvent(tick=33, channel=0, data=[72, 77]),
   midi.NoteOnEvent(tick=1, channel=0, data=[74, 0]),
   midi.NoteOnEvent(tick=64, channel=0, data=[69, 74]),
   midi.NoteOnEvent(tick=10, channel=0, data=[72, 0]),
   midi.ControlChangeEvent(tick=31, channel=0, data=[64, 127]),
   midi.NoteOnEvent(tick=27, channel=0, data=[69, 0]),
   midi.NoteOnEvent(tick=99, channel=0, data=[60, 81]),
   midi.NoteOnEvent(tick=54, channel=0, data=[64, 80]),
   midi.NoteOnEvent(tick=1, channel=0, data=[60, 0]),
   midi.NoteOnEvent(tick=59, channel=0, data=[64, 0]),
   midi.NoteOnEvent(tick=5, channel=0, data=[69, 81]),
   midi.NoteOnEvent(tick=50, channel=0, data=[69, 0]),
   midi.ControlChangeEvent(tick=0, channel=0, data=[64, 0]),
   midi.NoteOnEvent(tick=8, channel=0, data=[71, 80]),
   midi.ControlChangeEvent(tick=39, channel=0, data=[64, 127]),
   midi.NoteOnEvent(tick=80, channel=0, data=[71, 0]),
   midi.NoteOnEvent(tick=78, channel=0, data=[62, 70]),
   midi.ControlChangeEvent(tick=70, channel=0, data=[64, 0]),
   midi.NoteOnEvent(tick=15, channel=0, data=[72, 82]),
   midi.NoteOnEvent(tick=95, channel=0, data=[71, 75]),
   midi.NoteOnEvent(tick=5, channel=0, data=[62, 0]),
   midi.NoteOnEvent(tick=5, channel=0, data=[72, 0]),
   midi.NoteOnEvent(tick=118, channel=0, data=[69, 68]),
   midi.NoteOnEvent(tick=0, channel=0, data=[60, 55]),
   midi.NoteOnEvent(tick=21, channel=0, data=[71, 0]),
   midi.ControlChangeEvent(tick=81, channel=0, data=[121, 0]),
   midi.NoteOnEvent(tick=287, channel=0, data=[60, 0]),
   midi.NoteOnEvent(tick=0, channel=0, data=[69, 0]),
   midi.EndOfTrackEvent(tick=0, data=[])]),
 midi.Track(\
  [midi.PortEvent(tick=0, data=[0]),
   midi.TrackNameEvent(tick=0, text='Piano L', data=[80, 105, 97, 110, 111, 32, 76]),
   midi.ControlChangeEvent(tick=0, channel=1, data=[0, 0]),
   midi.ControlChangeEvent(tick=0, channel=1, data=[32, 0]),
   midi.ProgramChangeEvent(tick=0, channel=1, data=[0]),
   midi.ControlChangeEvent(tick=0, channel=1, data=[7, 127]),
   midi.ControlChangeEvent(tick=0, channel=1, data=[10, 70]),
   midi.ControlChangeEvent(tick=0, channel=1, data=[91, 127]),
   midi.ControlChangeEvent(tick=106, channel=1, data=[121, 0]),
   midi.ControlChangeEvent(tick=53, channel=1, data=[7, 127]),
   midi.NoteOnEvent(tick=556, channel=1, data=[45, 65]),
   midi.ControlChangeEvent(tick=45, channel=1, data=[64, 127]),
   midi.NoteOnEvent(tick=12, channel=1, data=[45, 0]),
   midi.NoteOnEvent(tick=3, channel=1, data=[52, 66]),
   midi.NoteOnEvent(tick=60, channel=1, data=[57, 63]),
   midi.NoteOnEvent(tick=15, channel=1, data=[52, 0]),
   midi.NoteOnEvent(tick=44, channel=1, data=[57, 0]),
   midi.ControlChangeEvent(tick=62, channel=1, data=[64, 0]),
   midi.NoteOnEvent(tick=110, channel=1, data=[40, 68]),
   midi.ControlChangeEvent(tick=29, channel=1, data=[64, 127]),
   midi.NoteOnEvent(tick=27, channel=1, data=[52, 70]),
   midi.NoteOnEvent(tick=3, channel=1, data=[40, 0]),
   midi.NoteOnEvent(tick=50, channel=1, data=[56, 74]),
   midi.NoteOnEvent(tick=6, channel=1, data=[52, 0]),
   midi.NoteOnEvent(tick=53, channel=1, data=[56, 0]),
   midi.ControlChangeEvent(tick=51, channel=1, data=[64, 0]),
   midi.NoteOnEvent(tick=135, channel=1, data=[45, 64]),
   midi.ControlChangeEvent(tick=51, channel=1, data=[64, 127]),
   midi.NoteOnEvent(tick=16, channel=1, data=[52, 62]),
   midi.NoteOnEvent(tick=8, channel=1, data=[45, 0]),
   midi.NoteOnEvent(tick=55, channel=1, data=[57, 60]),
   midi.NoteOnEvent(tick=12, channel=1, data=[52, 0]),
   midi.NoteOnEvent(tick=47, channel=1, data=[57, 0]),
   midi.ControlChangeEvent(tick=71, channel=1, data=[64, 0]),
   midi.NoteOnEvent(tick=466, channel=1, data=[45, 66]),
   midi.ControlChangeEvent(tick=34, channel=1, data=[64, 127]),
   midi.NoteOnEvent(tick=21, channel=1, data=[45, 0]),
   midi.NoteOnEvent(tick=9, channel=1, data=[52, 61]),
   midi.NoteOnEvent(tick=55, channel=1, data=[52, 0]),
   midi.NoteOnEvent(tick=6, channel=1, data=[57, 58]),
   midi.NoteOnEvent(tick=59, channel=1, data=[57, 0]),
   midi.ControlChangeEvent(tick=55, channel=1, data=[64, 0]),
   midi.NoteOnEvent(tick=115, channel=1, data=[40, 62]),
   midi.ControlChangeEvent(tick=31, channel=1, data=[64, 127]),
   midi.NoteOnEvent(tick=14, channel=1, data=[40, 0]),
   midi.NoteOnEvent(tick=15, channel=1, data=[52, 78]),
   midi.NoteOnEvent(tick=50, channel=1, data=[52, 0]),
   midi.NoteOnEvent(tick=10, channel=1, data=[56, 79]),
   midi.NoteOnEvent(tick=59, channel=1, data=[56, 0]),
   midi.ControlChangeEvent(tick=26, channel=1, data=[64, 0]),
   midi.NoteOnEvent(tick=161, channel=1, data=[45, 61]),
   midi.ControlChangeEvent(tick=51, channel=1, data=[64, 127]),
   midi.NoteOnEvent(tick=18, channel=1, data=[52, 70]),
   midi.NoteOnEvent(tick=4, channel=1, data=[45, 0]),
   midi.NoteOnEvent(tick=71, channel=1, data=[52, 0]),
   midi.NoteOnEvent(tick=0, channel=1, data=[57, 57]),
   midi.ControlChangeEvent(tick=117, channel=1, data=[64, 0]),
   midi.NoteOnEvent(tick=32, channel=1, data=[57, 0]),
   midi.NoteOnEvent(tick=461, channel=1, data=[45, 40]),
   midi.ControlChangeEvent(tick=31, channel=1, data=[64, 127]),
   midi.NoteOnEvent(tick=21, channel=1, data=[45, 0]),
   midi.NoteOnEvent(tick=3, channel=1, data=[52, 44]),
   midi.NoteOnEvent(tick=56, channel=1, data=[57, 48]),
   midi.NoteOnEvent(tick=4, channel=1, data=[52, 0]),
   midi.NoteOnEvent(tick=55, channel=1, data=[57, 0]),
   midi.ControlChangeEvent(tick=42, channel=1, data=[64, 0]),
   midi.NoteOnEvent(tick=129, channel=1, data=[40, 59]),
   midi.ControlChangeEvent(tick=41, channel=1, data=[64, 127]),
   midi.NoteOnEvent(tick=4, channel=1, data=[40, 0]),
   midi.NoteOnEvent(tick=14, channel=1, data=[52, 46]),
   midi.NoteOnEvent(tick=48, channel=1, data=[52, 0]),
   midi.NoteOnEvent(tick=9, channel=1, data=[56, 54]),
   midi.NoteOnEvent(tick=59, channel=1, data=[56, 0]),
   midi.ControlChangeEvent(tick=29, channel=1, data=[64, 0]),
   midi.NoteOnEvent(tick=145, channel=1, data=[45, 57]),
   midi.ControlChangeEvent(tick=51, channel=1, data=[64, 127]),
   midi.NoteOnEvent(tick=9, channel=1, data=[45, 0]),
   midi.NoteOnEvent(tick=0, channel=1, data=[52, 48]),
   midi.NoteOnEvent(tick=60, channel=1, data=[52, 0]),
   midi.NoteOnEvent(tick=1, channel=1, data=[57, 44]),
   midi.NoteOnEvent(tick=59, channel=1, data=[57, 0]),
   midi.ControlChangeEvent(tick=31, channel=1, data=[64, 0]),
   midi.NoteOnEvent(tick=515, channel=1, data=[45, 62]),
   midi.ControlChangeEvent(tick=30, channel=1, data=[64, 127]),
   midi.NoteOnEvent(tick=28, channel=1, data=[45, 0]),
   midi.NoteOnEvent(tick=6, channel=1, data=[52, 69]),
   midi.NoteOnEvent(tick=55, channel=1, data=[57, 69]),
   midi.NoteOnEvent(tick=3, channel=1, data=[52, 0]),
   midi.NoteOnEvent(tick=56, channel=1, data=[57, 0]),
   midi.ControlChangeEvent(tick=11, channel=1, data=[64, 0]),
   midi.NoteOnEvent(tick=160, channel=1, data=[40, 65]),
   midi.ControlChangeEvent(tick=40, channel=1, data=[64, 127]),
   midi.NoteOnEvent(tick=5, channel=1, data=[40, 0]),
   midi.NoteOnEvent(tick=15, channel=1, data=[52, 68]),
   midi.NoteOnEvent(tick=58, channel=1, data=[52, 0]),
   midi.NoteOnEvent(tick=7, channel=1, data=[56, 75]),
   midi.NoteOnEvent(tick=50, channel=1, data=[56, 0]),
   midi.ControlChangeEvent(tick=25, channel=1, data=[64, 0]),
   midi.NoteOnEvent(tick=175, channel=1, data=[45, 65]),
   midi.ControlChangeEvent(tick=50, channel=1, data=[64, 127]),
   midi.NoteOnEvent(tick=15, channel=1, data=[45, 0]),
   midi.NoteOnEvent(tick=0, channel=1, data=[52, 67]),
   midi.NoteOnEvent(tick=65, channel=1, data=[57, 66]),
   midi.NoteOnEvent(tick=10, channel=1, data=[52, 0]),
   midi.NoteOnEvent(tick=31, channel=1, data=[57, 0]),
   midi.ControlChangeEvent(tick=79, channel=1, data=[64, 0]),
   midi.NoteOnEvent(tick=123, channel=1, data=[48, 68]),
   midi.NoteOnEvent(tick=60, channel=1, data=[48, 0]),
   midi.NoteOnEvent(tick=2, channel=1, data=[55, 80]),
   midi.ControlChangeEvent(tick=6, channel=1, data=[64, 127]),
   midi.NoteOnEvent(tick=76, channel=1, data=[55, 0]),
   midi.ControlChangeEvent(tick=83, channel=1, data=[64, 0]),
   midi.NoteOnEvent(tick=126, channel=1, data=[43, 76]),
   midi.ControlChangeEvent(tick=44, channel=1, data=[64, 127]),
   midi.NoteOnEvent(tick=9, channel=1, data=[43, 0]),
   midi.NoteOnEvent(tick=8, channel=1, data=[55, 86]),
   midi.NoteOnEvent(tick=53, channel=1, data=[55, 0]),
   midi.NoteOnEvent(tick=5, channel=1, data=[59, 84]),
   midi.NoteOnEvent(tick=45, channel=1, data=[59, 0]),
   midi.ControlChangeEvent(tick=56, channel=1, data=[64, 0]),
   midi.NoteOnEvent(tick=142, channel=1, data=[45, 71]),
   midi.ControlChangeEvent(tick=39, channel=1, data=[64, 127]),
   midi.NoteOnEvent(tick=24, channel=1, data=[52, 81]),
   midi.NoteOnEvent(tick=12, channel=1, data=[45, 0]),
   midi.NoteOnEvent(tick=50, channel=1, data=[57, 66]),
   midi.NoteOnEvent(tick=6, channel=1, data=[52, 0]),
   midi.NoteOnEvent(tick=61, channel=1, data=[57, 0]),
   midi.ControlChangeEvent(tick=16, channel=1, data=[64, 0]),
   midi.NoteOnEvent(tick=165, channel=1, data=[40, 63]),
   midi.ControlChangeEvent(tick=39, channel=1, data=[64, 127]),
   midi.NoteOnEvent(tick=19, channel=1, data=[40, 0]),
   midi.NoteOnEvent(tick=11, channel=1, data=[52, 64]),
   midi.NoteOnEvent(tick=55, channel=1, data=[52, 0]),
   midi.ControlChangeEvent(tick=641, channel=1, data=[64, 0]),
   midi.NoteOnEvent(tick=1031, channel=1, data=[45, 69]),
   midi.ControlChangeEvent(tick=39, channel=1, data=[64, 127]),
   midi.NoteOnEvent(tick=16, channel=1, data=[45, 0]),
   midi.NoteOnEvent(tick=4, channel=1, data=[52, 66]),
   midi.NoteOnEvent(tick=60, channel=1, data=[52, 0]),
   midi.NoteOnEvent(tick=0, channel=1, data=[57, 68]),
   midi.NoteOnEvent(tick=28, channel=1, data=[57, 0]),
   midi.ControlChangeEvent(tick=93, channel=1, data=[64, 0]),
   midi.NoteOnEvent(tick=103, channel=1, data=[40, 65]),
   midi.ControlChangeEvent(tick=30, channel=1, data=[64, 127]),
   midi.NoteOnEvent(tick=10, channel=1, data=[40, 0]),
   midi.NoteOnEvent(tick=17, channel=1, data=[52, 73]),
   midi.NoteOnEvent(tick=52, channel=1, data=[52, 0]),
   midi.NoteOnEvent(tick=6, channel=1, data=[56, 81]),
   midi.NoteOnEvent(tick=52, channel=1, data=[56, 0]),
   midi.ControlChangeEvent(tick=45, channel=1, data=[64, 0]),
   midi.NoteOnEvent(tick=133, channel=1, data=[45, 66]),
   midi.ControlChangeEvent(tick=27, channel=1, data=[64, 127]),
   midi.NoteOnEvent(tick=30, channel=1, data=[45, 0]),
   midi.NoteOnEvent(tick=3, channel=1, data=[52, 63]),
   midi.NoteOnEvent(tick=61, channel=1, data=[57, 67]),
   midi.NoteOnEvent(tick=4, channel=1, data=[52, 0]),
   midi.NoteOnEvent(tick=63, channel=1, data=[57, 0]),
   midi.ControlChangeEvent(tick=62, channel=1, data=[64, 0]),
   midi.NoteOnEvent(tick=478, channel=1, data=[45, 62]),
   midi.ControlChangeEvent(tick=38, channel=1, data=[64, 127]),
   midi.NoteOnEvent(tick=19, channel=1, data=[52, 68]),
   midi.NoteOnEvent(tick=3, channel=1, data=[45, 0]),
   midi.NoteOnEvent(tick=52, channel=1, data=[52, 0]),
   midi.NoteOnEvent(tick=5, channel=1, data=[57, 63]),
   midi.NoteOnEvent(tick=60, channel=1, data=[57, 0]),
   midi.ControlChangeEvent(tick=10, channel=1, data=[64, 0]),
   midi.NoteOnEvent(tick=172, channel=1, data=[40, 66]),
   midi.ControlChangeEvent(tick=33, channel=1, data=[64, 127]),
   midi.NoteOnEvent(tick=12, channel=1, data=[40, 0]),
   midi.NoteOnEvent(tick=13, channel=1, data=[52, 80]),
   midi.NoteOnEvent(tick=50, channel=1, data=[52, 0]),
   midi.NoteOnEvent(tick=10, channel=1, data=[56, 74]),
   midi.NoteOnEvent(tick=60, channel=1, data=[56, 0]),
   midi.ControlChangeEvent(tick=26, channel=1, data=[64, 0]),
   midi.NoteOnEvent(tick=179, channel=1, data=[45, 69]),
   midi.ControlChangeEvent(tick=25, channel=1, data=[64, 127]),
   midi.NoteOnEvent(tick=45, channel=1, data=[52, 78]),
   midi.NoteOnEvent(tick=15, channel=1, data=[45, 0]),
   midi.NoteOnEvent(tick=60, channel=1, data=[52, 0]),
   midi.NoteOnEvent(tick=2, channel=1, data=[57, 67]),
   midi.NoteOnEvent(tick=67, channel=1, data=[57, 0]),
   midi.NoteOnEvent(tick=38, channel=1, data=[58, 60]),
   midi.ControlChangeEvent(tick=3, channel=1, data=[64, 0]),
   midi.ControlChangeEvent(tick=36, channel=1, data=[64, 127]),
   midi.NoteOnEvent(tick=36, channel=1, data=[58, 0]),
   midi.NoteOnEvent(tick=8, channel=1, data=[57, 69]),
   midi.NoteOnEvent(tick=55, channel=1, data=[57, 0]),
   midi.NoteOnEvent(tick=15, channel=1, data=[55, 77]),
   midi.NoteOnEvent(tick=0, channel=1, data=[58, 67]),
   midi.NoteOnEvent(tick=59, channel=1, data=[58, 0]),
   midi.NoteOnEvent(tick=0, channel=1, data=[55, 0]),
   midi.ControlChangeEvent(tick=43, channel=1, data=[64, 0]),
   midi.NoteOnEvent(tick=14, channel=1, data=[53, 85]),
   midi.ControlChangeEvent(tick=44, channel=1, data=[64, 127]),
   midi.NoteOnEvent(tick=7, channel=1, data=[57, 71]),
   midi.NoteOnEvent(tick=34, channel=1, data=[53, 0]),
   midi.NoteOnEvent(tick=31, channel=1, data=[57, 0]),
   midi.NoteOnEvent(tick=35, channel=1, data=[57, 91]),
   midi.NoteOnEvent(tick=45, channel=1, data=[57, 0]),
   midi.NoteOnEvent(tick=47, channel=1, data=[57, 82]),
   midi.NoteOnEvent(tick=51, channel=1, data=[57, 0]),
   midi.NoteOnEvent(tick=6, channel=1, data=[53, 80]),
   midi.ControlChangeEvent(tick=4, channel=1, data=[64, 0]),
   midi.ControlChangeEvent(tick=45, channel=1, data=[64, 127]),
   midi.NoteOnEvent(tick=0, channel=1, data=[58, 99]),
   midi.NoteOnEvent(tick=9, channel=1, data=[53, 0]),
   midi.NoteOnEvent(tick=41, channel=1, data=[58, 0]),
   midi.NoteOnEvent(tick=40, channel=1, data=[58, 97]),
   midi.NoteOnEvent(tick=45, channel=1, data=[58, 0]),
   midi.NoteOnEvent(tick=45, channel=1, data=[58, 84]),
   midi.NoteOnEvent(tick=53, channel=1, data=[58, 0]),
   midi.ControlChangeEvent(tick=7, channel=1, data=[64, 0]),
   midi.NoteOnEvent(tick=1, channel=1, data=[53, 84]),
   midi.ControlChangeEvent(tick=44, channel=1, data=[64, 127]),
   midi.NoteOnEvent(tick=6, channel=1, data=[53, 0]),
   midi.NoteOnEvent(tick=45, channel=1, data=[58, 81]),
   midi.NoteOnEvent(tick=1, channel=1, data=[53, 57]),
   midi.NoteOnEvent(tick=1, channel=1, data=[55, 81]),
   midi.ControlChangeEvent(tick=8, channel=1, data=[64, 0]),
   midi.NoteOnEvent(tick=21, channel=1, data=[53, 0]),
   midi.ControlChangeEvent(tick=13, channel=1, data=[64, 127]),
   midi.NoteOnEvent(tick=1, channel=1, data=[58, 0]),
   midi.NoteOnEvent(tick=2, channel=1, data=[55, 0]),
   midi.ControlChangeEvent(tick=43, channel=1, data=[64, 0]),
   midi.NoteOnEvent(tick=9, channel=1, data=[55, 73]),
   midi.NoteOnEvent(tick=1, channel=1, data=[58, 66]),
   midi.NoteOnEvent(tick=1, channel=1, data=[53, 75]),
   midi.ControlChangeEvent(tick=13, channel=1, data=[64, 127]),
   midi.NoteOnEvent(tick=29, channel=1, data=[53, 0]),
   midi.NoteOnEvent(tick=2, channel=1, data=[58, 0]),
   midi.NoteOnEvent(tick=0, channel=1, data=[55, 0]),
   midi.ControlChangeEvent(tick=46, channel=1, data=[64, 0]),
   midi.NoteOnEvent(tick=10, channel=1, data=[53, 70]),
   midi.NoteOnEvent(tick=51, channel=1, data=[53, 0]),
   midi.NoteOnEvent(tick=2, channel=1, data=[57, 71]),
   midi.ControlChangeEvent(tick=0, channel=1, data=[64, 127]),
   midi.NoteOnEvent(tick=48, channel=1, data=[57, 0]),
   midi.NoteOnEvent(tick=54, channel=1, data=[57, 78]),
   midi.NoteOnEvent(tick=30, channel=1, data=[57, 0]),
   midi.ControlChangeEvent(tick=40, channel=1, data=[64, 0]),
   midi.NoteOnEvent(tick=29, channel=1, data=[57, 77]),
   midi.NoteOnEvent(tick=46, channel=1, data=[57, 0]),
   midi.NoteOnEvent(tick=6, channel=1, data=[53, 74]),
   midi.NoteOnEvent(tick=46, channel=1, data=[53, 0]),
   midi.ControlChangeEvent(tick=3, channel=1, data=[64, 127]),
   midi.NoteOnEvent(tick=0, channel=1, data=[57, 74]),
   midi.NoteOnEvent(tick=55, channel=1, data=[57, 0]),
   midi.NoteOnEvent(tick=44, channel=1, data=[57, 71]),
   midi.NoteOnEvent(tick=43, channel=1, data=[57, 0]),
   midi.NoteOnEvent(tick=63, channel=1, data=[57, 84]),
   midi.NoteOnEvent(tick=23, channel=1, data=[57, 0]),
   midi.NoteOnEvent(tick=35, channel=1, data=[52, 69]),
   midi.ControlChangeEvent(tick=7, channel=1, data=[64, 0]),
   midi.NoteOnEvent(tick=43, channel=1, data=[57, 84]),
   midi.ControlChangeEvent(tick=20, channel=1, data=[64, 127]),
   midi.NoteOnEvent(tick=33, channel=1, data=[57, 0]),
   midi.NoteOnEvent(tick=37, channel=1, data=[52, 0]),
   midi.NoteOnEvent(tick=10, channel=1, data=[57, 83]),
   midi.NoteOnEvent(tick=46, channel=1, data=[57, 0]),
   midi.ControlChangeEvent(tick=9, channel=1, data=[64, 0]),
   midi.NoteOnEvent(tick=1, channel=1, data=[50, 77]),
   midi.ControlChangeEvent(tick=44, channel=1, data=[64, 127]),
   midi.NoteOnEvent(tick=6, channel=1, data=[53, 93]),
   midi.NoteOnEvent(tick=5, channel=1, data=[50, 0]),
   midi.NoteOnEvent(tick=48, channel=1, data=[55, 97]),
   midi.ControlChangeEvent(tick=2, channel=1, data=[64, 0]),
   midi.NoteOnEvent(tick=4, channel=1, data=[53, 0]),
   midi.NoteOnEvent(tick=39, channel=1, data=[55, 0]),
   midi.ControlChangeEvent(tick=11, channel=1, data=[64, 127]),
   midi.NoteOnEvent(tick=45, channel=1, data=[55, 98]),
   midi.NoteOnEvent(tick=37, channel=1, data=[55, 0]),
   midi.ControlChangeEvent(tick=70, channel=1, data=[64, 0]),
   midi.NoteOnEvent(tick=8, channel=1, data=[55, 92]),
   midi.ControlChangeEvent(tick=41, channel=1, data=[64, 127]),
   midi.NoteOnEvent(tick=15, channel=1, data=[55, 0]),
   midi.ControlChangeEvent(tick=39, channel=1, data=[64, 0]),
   midi.ControlChangeEvent(tick=47, channel=1, data=[64, 127]),
   midi.ControlChangeEvent(tick=135, channel=1, data=[64, 0]),
   midi.ControlChangeEvent(tick=193, channel=1, data=[64, 127]),
   midi.NoteOnEvent(tick=95, channel=1, data=[57, 65]),
   midi.NoteOnEvent(tick=0, channel=1, data=[53, 71]),
   midi.ControlChangeEvent(tick=2, channel=1, data=[64, 0]),
   midi.NoteOnEvent(tick=88, channel=1, data=[57, 0]),
   midi.NoteOnEvent(tick=16, channel=1, data=[53, 0]),
   midi.NoteOnEvent(tick=9, channel=1, data=[59, 81]),
   midi.NoteOnEvent(tick=0, channel=1, data=[55, 66]),
   midi.NoteOnEvent(tick=111, channel=1, data=[59, 0]),
   midi.NoteOnEvent(tick=9, channel=1, data=[55, 0]),
   midi.ControlChangeEvent(tick=385, channel=1, data=[64, 127]),
   midi.ControlChangeEvent(tick=95, channel=1, data=[64, 0]),
   midi.NoteOnEvent(tick=1, channel=1, data=[53, 83]),
   midi.NoteOnEvent(tick=0, channel=1, data=[57, 65]),
   midi.NoteOnEvent(tick=106, channel=1, data=[57, 0]),
   midi.NoteOnEvent(tick=10, channel=1, data=[59, 71]),
   midi.NoteOnEvent(tick=1, channel=1, data=[55, 62]),
   midi.NoteOnEvent(tick=3, channel=1, data=[53, 0]),
   midi.NoteOnEvent(tick=114, channel=1, data=[55, 0]),
   midi.NoteOnEvent(tick=1, channel=1, data=[59, 0]),
   midi.NoteOnEvent(tick=19, channel=1, data=[56, 72]),
   midi.NoteOnEvent(tick=2, channel=1, data=[59, 78]),
   midi.NoteOnEvent(tick=195, channel=1, data=[59, 0]),
   midi.NoteOnEvent(tick=6, channel=1, data=[56, 0]),
   midi.NoteOnEvent(tick=2323, channel=1, data=[45, 65]),
   midi.ControlChangeEvent(tick=40, channel=1, data=[64, 127]),
   midi.NoteOnEvent(tick=20, channel=1, data=[52, 67]),
   midi.NoteOnEvent(tick=3, channel=1, data=[45, 0]),
   midi.NoteOnEvent(tick=51, channel=1, data=[57, 67]),
   midi.NoteOnEvent(tick=19, channel=1, data=[52, 0]),
   midi.NoteOnEvent(tick=41, channel=1, data=[57, 0]),
   midi.ControlChangeEvent(tick=87, channel=1, data=[64, 0]),
   midi.NoteOnEvent(tick=83, channel=1, data=[40, 77]),
   midi.ControlChangeEvent(tick=30, channel=1, data=[64, 127]),
   midi.NoteOnEvent(tick=10, channel=1, data=[40, 0]),
   midi.NoteOnEvent(tick=12, channel=1, data=[52, 87]),
   midi.NoteOnEvent(tick=48, channel=1, data=[52, 0]),
   midi.NoteOnEvent(tick=6, channel=1, data=[56, 86]),
   midi.NoteOnEvent(tick=59, channel=1, data=[56, 0]),
   midi.ControlChangeEvent(tick=90, channel=1, data=[64, 0]),
   midi.NoteOnEvent(tick=70, channel=1, data=[45, 63]),
   midi.ControlChangeEvent(tick=61, channel=1, data=[64, 127]),
   midi.NoteOnEvent(tick=9, channel=1, data=[52, 67]),
   midi.NoteOnEvent(tick=2, channel=1, data=[45, 0]),
   midi.NoteOnEvent(tick=58, channel=1, data=[57, 62]),
   midi.NoteOnEvent(tick=30, channel=1, data=[52, 0]),
   midi.NoteOnEvent(tick=29, channel=1, data=[57, 0]),
   midi.ControlChangeEvent(tick=37, channel=1, data=[64, 0]),
   midi.NoteOnEvent(tick=491, channel=1, data=[45, 71]),
   midi.ControlChangeEvent(tick=43, channel=1, data=[64, 127]),
   midi.NoteOnEvent(tick=13, channel=1, data=[45, 0]),
   midi.NoteOnEvent(tick=4, channel=1, data=[52, 73]),
   midi.NoteOnEvent(tick=60, channel=1, data=[57, 68]),
   midi.NoteOnEvent(tick=15, channel=1, data=[52, 0]),
   midi.NoteOnEvent(tick=45, channel=1, data=[57, 0]),
   midi.ControlChangeEvent(tick=43, channel=1, data=[64, 0]),
   midi.NoteOnEvent(tick=105, channel=1, data=[40, 71]),
   midi.ControlChangeEvent(tick=30, channel=1, data=[64, 127]),
   midi.NoteOnEvent(tick=12, channel=1, data=[40, 0]),
   midi.NoteOnEvent(tick=15, channel=1, data=[52, 69]),
   midi.NoteOnEvent(tick=36, channel=1, data=[52, 0]),
   midi.NoteOnEvent(tick=12, channel=1, data=[56, 84]),
   midi.NoteOnEvent(tick=59, channel=1, data=[56, 0]),
   midi.ControlChangeEvent(tick=17, channel=1, data=[64, 0]),
   midi.NoteOnEvent(tick=150, channel=1, data=[45, 71]),
   midi.ControlChangeEvent(tick=50, channel=1, data=[64, 127]),
   midi.NoteOnEvent(tick=5, channel=1, data=[45, 0]),
   midi.NoteOnEvent(tick=5, channel=1, data=[52, 73]),
   midi.NoteOnEvent(tick=61, channel=1, data=[57, 69]),
   midi.NoteOnEvent(tick=12, channel=1, data=[52, 0]),
   midi.NoteOnEvent(tick=26, channel=1, data=[57, 0]),
   midi.ControlChangeEvent(tick=60, channel=1, data=[64, 0]),
   midi.NoteOnEvent(tick=122, channel=1, data=[48, 76]),
   midi.ControlChangeEvent(tick=38, channel=1, data=[64, 127]),
   midi.NoteOnEvent(tick=15, channel=1, data=[55, 94]),
   midi.NoteOnEvent(tick=2, channel=1, data=[48, 0]),
   midi.NoteOnEvent(tick=73, channel=1, data=[55, 0]),
   midi.ControlChangeEvent(tick=96, channel=1, data=[64, 0]),
   midi.NoteOnEvent(tick=97, channel=1, data=[43, 81]),
   midi.ControlChangeEvent(tick=27, channel=1, data=[64, 127]),
   midi.NoteOnEvent(tick=20, channel=1, data=[43, 0]),
   midi.NoteOnEvent(tick=11, channel=1, data=[55, 73]),
   midi.NoteOnEvent(tick=43, channel=1, data=[55, 0]),
   midi.NoteOnEvent(tick=11, channel=1, data=[59, 76]),
   midi.NoteOnEvent(tick=60, channel=1, data=[59, 0]),
   midi.ControlChangeEvent(tick=31, channel=1, data=[64, 0]),
   midi.NoteOnEvent(tick=135, channel=1, data=[45, 66]),
   midi.NoteOnEvent(tick=56, channel=1, data=[52, 81]),
   midi.NoteOnEvent(tick=9, channel=1, data=[45, 0]),
   midi.NoteOnEvent(tick=49, channel=1, data=[57, 69]),
   midi.NoteOnEvent(tick=15, channel=1, data=[52, 0]),
   midi.NoteOnEvent(tick=45, channel=1, data=[57, 0]),
   midi.NoteOnEvent(tick=197, channel=1, data=[40, 67]),
   midi.ControlChangeEvent(tick=0, channel=1, data=[64, 127]),
   midi.NoteOnEvent(tick=52, channel=1, data=[40, 0]),
   midi.NoteOnEvent(tick=16, channel=1, data=[52, 64]),
   midi.NoteOnEvent(tick=60, channel=1, data=[52, 0]),
   midi.ControlChangeEvent(tick=477, channel=1, data=[64, 0]),
   midi.NoteOnEvent(tick=1233, channel=1, data=[45, 68]),
   midi.ControlChangeEvent(tick=45, channel=1, data=[64, 127]),
   midi.NoteOnEvent(tick=6, channel=1, data=[45, 0]),
   midi.NoteOnEvent(tick=10, channel=1, data=[52, 68]),
   midi.NoteOnEvent(tick=54, channel=1, data=[57, 65]),
   midi.NoteOnEvent(tick=6, channel=1, data=[52, 0]),
   midi.NoteOnEvent(tick=39, channel=1, data=[57, 0]),
   midi.ControlChangeEvent(tick=76, channel=1, data=[64, 0]),
   midi.NoteOnEvent(tick=99, channel=1, data=[40, 65]),
   midi.ControlChangeEvent(tick=30, channel=1, data=[64, 127]),
   midi.NoteOnEvent(tick=7, channel=1, data=[40, 0]),
   midi.NoteOnEvent(tick=19, channel=1, data=[52, 70]),
   midi.NoteOnEvent(tick=45, channel=1, data=[52, 0]),
   midi.NoteOnEvent(tick=9, channel=1, data=[56, 78]),
   midi.NoteOnEvent(tick=52, channel=1, data=[56, 0]),
   midi.ControlChangeEvent(tick=63, channel=1, data=[64, 0]),
   midi.NoteOnEvent(tick=107, channel=1, data=[45, 61]),
   midi.ControlChangeEvent(tick=40, channel=1, data=[64, 127]),
   midi.NoteOnEvent(tick=23, channel=1, data=[52, 65]),
   midi.NoteOnEvent(tick=5, channel=1, data=[45, 0]),
   midi.NoteOnEvent(tick=50, channel=1, data=[57, 59]),
   midi.NoteOnEvent(tick=2, channel=1, data=[52, 0]),
   midi.NoteOnEvent(tick=65, channel=1, data=[57, 0]),
   midi.ControlChangeEvent(tick=55, channel=1, data=[64, 0]),
   midi.NoteOnEvent(tick=468, channel=1, data=[45, 63]),
   midi.ControlChangeEvent(tick=40, channel=1, data=[64, 127]),
   midi.NoteOnEvent(tick=15, channel=1, data=[45, 0]),
   midi.NoteOnEvent(tick=0, channel=1, data=[52, 71]),
   midi.NoteOnEvent(tick=45, channel=1, data=[57, 64]),
   midi.NoteOnEvent(tick=5, channel=1, data=[52, 0]),
   midi.NoteOnEvent(tick=47, channel=1, data=[57, 0]),
   midi.ControlChangeEvent(tick=133, channel=1, data=[64, 0]),
   midi.NoteOnEvent(tick=35, channel=1, data=[40, 64]),
   midi.NoteOnEvent(tick=40, channel=1, data=[40, 0]),
   midi.ControlChangeEvent(tick=5, channel=1, data=[64, 127]),
   midi.NoteOnEvent(tick=7, channel=1, data=[52, 74]),
   midi.NoteOnEvent(tick=53, channel=1, data=[52, 0]),
   midi.NoteOnEvent(tick=5, channel=1, data=[56, 86]),
   midi.NoteOnEvent(tick=45, channel=1, data=[56, 0]),
   midi.ControlChangeEvent(tick=105, channel=1, data=[64, 0]),
   midi.NoteOnEvent(tick=87, channel=1, data=[45, 80]),
   midi.NoteOnEvent(tick=26, channel=1, data=[45, 0]),
   midi.ControlChangeEvent(tick=17, channel=1, data=[64, 127]),
   midi.NoteOnEvent(tick=20, channel=1, data=[45, 80]),
   midi.NoteOnEvent(tick=20, channel=1, data=[45, 0]),
   midi.NoteOnEvent(tick=35, channel=1, data=[45, 86]),
   midi.NoteOnEvent(tick=18, channel=1, data=[45, 0]),
   midi.NoteOnEvent(tick=34, channel=1, data=[45, 87]),
   midi.NoteOnEvent(tick=20, channel=1, data=[45, 0]),
   midi.NoteOnEvent(tick=34, channel=1, data=[45, 81]),
   midi.NoteOnEvent(tick=30, channel=1, data=[45, 0]),
   midi.NoteOnEvent(tick=29, channel=1, data=[45, 72]),
   midi.NoteOnEvent(tick=18, channel=1, data=[45, 0]),
   midi.ControlChangeEvent(tick=37, channel=1, data=[64, 0]),
   midi.NoteOnEvent(tick=1, channel=1, data=[45, 80]),
   midi.NoteOnEvent(tick=25, channel=1, data=[45, 0]),
   midi.ControlChangeEvent(tick=26, channel=1, data=[64, 127]),
   midi.NoteOnEvent(tick=8, channel=1, data=[45, 83]),
   midi.NoteOnEvent(tick=20, channel=1, data=[45, 0]),
   midi.NoteOnEvent(tick=30, channel=1, data=[45, 83]),
   midi.NoteOnEvent(tick=20, channel=1, data=[45, 0]),
   midi.NoteOnEvent(tick=30, channel=1, data=[45, 79]),
   midi.NoteOnEvent(tick=20, channel=1, data=[45, 0]),
   midi.NoteOnEvent(tick=35, channel=1, data=[45, 79]),
   midi.NoteOnEvent(tick=20, channel=1, data=[45, 0]),
   midi.NoteOnEvent(tick=33, channel=1, data=[45, 80]),
   midi.NoteOnEvent(tick=20, channel=1, data=[45, 0]),
   midi.ControlChangeEvent(tick=32, channel=1, data=[64, 0]),
   midi.NoteOnEvent(tick=1, channel=1, data=[45, 81]),
   midi.NoteOnEvent(tick=20, channel=1, data=[45, 0]),
   midi.ControlChangeEvent(tick=25, channel=1, data=[64, 127]),
   midi.NoteOnEvent(tick=9, channel=1, data=[45, 81]),
   midi.NoteOnEvent(tick=15, channel=1, data=[45, 0]),
   midi.NoteOnEvent(tick=35, channel=1, data=[45, 86]),
   midi.NoteOnEvent(tick=18, channel=1, data=[45, 0]),
   midi.NoteOnEvent(tick=28, channel=1, data=[45, 87]),
   midi.NoteOnEvent(tick=16, channel=1, data=[45, 0]),
   midi.ControlChangeEvent(tick=33, channel=1, data=[64, 0]),
   midi.NoteOnEvent(tick=0, channel=1, data=[45, 93]),
   midi.NoteOnEvent(tick=15, channel=1, data=[45, 0]),
   midi.ControlChangeEvent(tick=1, channel=1, data=[64, 127]),
   midi.NoteOnEvent(tick=34, channel=1, data=[45, 90]),
   midi.NoteOnEvent(tick=18, channel=1, data=[45, 0]),
   midi.NoteOnEvent(tick=37, channel=1, data=[45, 86]),
   midi.ControlChangeEvent(tick=15, channel=1, data=[64, 0]),
   midi.NoteOnEvent(tick=5, channel=1, data=[45, 0]),
   midi.NoteOnEvent(tick=35, channel=1, data=[45, 90]),
   midi.ControlChangeEvent(tick=10, channel=1, data=[64, 127]),
   midi.NoteOnEvent(tick=10, channel=1, data=[45, 0]),
   midi.NoteOnEvent(tick=30, channel=1, data=[45, 90]),
   midi.NoteOnEvent(tick=16, channel=1, data=[45, 0]),
   midi.NoteOnEvent(tick=37, channel=1, data=[45, 89]),
   midi.NoteOnEvent(tick=16, channel=1, data=[45, 0]),
   midi.NoteOnEvent(tick=35, channel=1, data=[45, 86]),
   midi.ControlChangeEvent(tick=3, channel=1, data=[64, 0]),
   midi.NoteOnEvent(tick=22, channel=1, data=[45, 0]),
   midi.ControlChangeEvent(tick=1, channel=1, data=[64, 127]),
   midi.NoteOnEvent(tick=25, channel=1, data=[45, 102]),
   midi.NoteOnEvent(tick=18, channel=1, data=[45, 0]),
   midi.NoteOnEvent(tick=33, channel=1, data=[45, 101]),
   midi.ControlChangeEvent(tick=4, channel=1, data=[64, 0]),
   midi.NoteOnEvent(tick=21, channel=1, data=[45, 0]),
   midi.ControlChangeEvent(tick=19, channel=1, data=[64, 127]),
   midi.NoteOnEvent(tick=5, channel=1, data=[45, 105]),
   midi.NoteOnEvent(tick=15, channel=1, data=[45, 0]),
   midi.NoteOnEvent(tick=35, channel=1, data=[45, 108]),
   midi.NoteOnEvent(tick=18, channel=1, data=[45, 0]),
   midi.ControlChangeEvent(tick=7, channel=1, data=[64, 0]),
   midi.NoteOnEvent(tick=25, channel=1, data=[45, 103]),
   midi.NoteOnEvent(tick=15, channel=1, data=[45, 0]),
   midi.ControlChangeEvent(tick=26, channel=1, data=[64, 127]),
   midi.NoteOnEvent(tick=10, channel=1, data=[45, 105]),
   midi.NoteOnEvent(tick=15, channel=1, data=[45, 0]),
   midi.NoteOnEvent(tick=34, channel=1, data=[45, 102]),
   midi.NoteOnEvent(tick=15, channel=1, data=[45, 0]),
   midi.NoteOnEvent(tick=38, channel=1, data=[38, 83]),
   midi.NoteOnEvent(tick=0, channel=1, data=[45, 92]),
   midi.ControlChangeEvent(tick=4, channel=1, data=[64, 0]),
   midi.NoteOnEvent(tick=17, channel=1, data=[45, 0]),
   midi.NoteOnEvent(tick=9, channel=1, data=[38, 0]),
   midi.ControlChangeEvent(tick=19, channel=1, data=[64, 127]),
   midi.NoteOnEvent(tick=6, channel=1, data=[45, 96]),
   midi.NoteOnEvent(tick=0, channel=1, data=[38, 86]),
   midi.NoteOnEvent(tick=20, channel=1, data=[38, 0]),
   midi.NoteOnEvent(tick=0, channel=1, data=[45, 0]),
   midi.NoteOnEvent(tick=27, channel=1, data=[38, 99]),
   midi.NoteOnEvent(tick=1, channel=1, data=[45, 98]),
   midi.NoteOnEvent(tick=20, channel=1, data=[45, 0]),
   midi.NoteOnEvent(tick=2, channel=1, data=[38, 0]),
   midi.NoteOnEvent(tick=24, channel=1, data=[45, 103]),
   midi.NoteOnEvent(tick=1, channel=1, data=[38, 104]),
   midi.NoteOnEvent(tick=15, channel=1, data=[38, 0]),
   midi.NoteOnEvent(tick=2, channel=1, data=[45, 0]),
   midi.NoteOnEvent(tick=30, channel=1, data=[38, 103]),
   midi.NoteOnEvent(tick=3, channel=1, data=[45, 112]),
   midi.NoteOnEvent(tick=12, channel=1, data=[38, 0]),
   midi.NoteOnEvent(tick=8, channel=1, data=[45, 0]),
   midi.NoteOnEvent(tick=22, channel=1, data=[45, 95]),
   midi.NoteOnEvent(tick=0, channel=1, data=[38, 95]),
   midi.NoteOnEvent(tick=15, channel=1, data=[45, 0]),
   midi.NoteOnEvent(tick=1, channel=1, data=[38, 0]),
   midi.NoteOnEvent(tick=39, channel=1, data=[45, 81]),
   midi.NoteOnEvent(tick=0, channel=1, data=[39, 87]),
   midi.ControlChangeEvent(tick=5, channel=1, data=[64, 0]),
   midi.NoteOnEvent(tick=15, channel=1, data=[39, 0]),
   midi.NoteOnEvent(tick=11, channel=1, data=[45, 0]),
   midi.ControlChangeEvent(tick=19, channel=1, data=[64, 127]),
   midi.NoteOnEvent(tick=5, channel=1, data=[45, 87]),
   midi.NoteOnEvent(tick=0, channel=1, data=[39, 98]),
   midi.NoteOnEvent(tick=18, channel=1, data=[39, 0]),
   midi.NoteOnEvent(tick=3, channel=1, data=[45, 0]),
   midi.NoteOnEvent(tick=24, channel=1, data=[39, 96]),
   midi.NoteOnEvent(tick=0, channel=1, data=[45, 94]),
   midi.NoteOnEvent(tick=17, channel=1, data=[39, 0]),
   midi.NoteOnEvent(tick=3, channel=1, data=[45, 0]),
   midi.NoteOnEvent(tick=25, channel=1, data=[39, 104]),
   midi.NoteOnEvent(tick=0, channel=1, data=[45, 93]),
   midi.NoteOnEvent(tick=16, channel=1, data=[39, 0]),
   midi.NoteOnEvent(tick=4, channel=1, data=[45, 0]),
   midi.ControlChangeEvent(tick=20, channel=1, data=[64, 0]),
   midi.NoteOnEvent(tick=9, channel=1, data=[45, 101]),
   midi.NoteOnEvent(tick=0, channel=1, data=[39, 97]),
   midi.NoteOnEvent(tick=21, channel=1, data=[39, 0]),
   midi.NoteOnEvent(tick=0, channel=1, data=[45, 0]),
   midi.NoteOnEvent(tick=25, channel=1, data=[39, 105]),
   midi.NoteOnEvent(tick=1, channel=1, data=[45, 101]),
   midi.NoteOnEvent(tick=24, channel=1, data=[39, 0]),
   midi.NoteOnEvent(tick=1, channel=1, data=[45, 0]),
   midi.NoteOnEvent(tick=29, channel=1, data=[45, 92]),
   midi.NoteOnEvent(tick=0, channel=1, data=[40, 84]),
   midi.NoteOnEvent(tick=20, channel=1, data=[40, 0]),
   midi.NoteOnEvent(tick=0, channel=1, data=[45, 0]),
   midi.NoteOnEvent(tick=30, channel=1, data=[45, 83]),
   midi.NoteOnEvent(tick=2, channel=1, data=[40, 83]),
   midi.NoteOnEvent(tick=20, channel=1, data=[40, 0]),
   midi.NoteOnEvent(tick=0, channel=1, data=[45, 0]),
   midi.NoteOnEvent(tick=30, channel=1, data=[45, 86]),
   midi.NoteOnEvent(tick=0, channel=1, data=[40, 79]),
   midi.NoteOnEvent(tick=17, channel=1, data=[40, 0]),
   midi.NoteOnEvent(tick=3, channel=1, data=[45, 0]),
   midi.NoteOnEvent(tick=26, channel=1, data=[40, 86]),
   midi.NoteOnEvent(tick=2, channel=1, data=[45, 93]),
   midi.NoteOnEvent(tick=16, channel=1, data=[45, 0]),
   midi.NoteOnEvent(tick=0, channel=1, data=[40, 0]),
   midi.NoteOnEvent(tick=30, channel=1, data=[44, 95]),
   midi.NoteOnEvent(tick=1, channel=1, data=[40, 86]),
   midi.NoteOnEvent(tick=17, channel=1, data=[44, 0]),
   midi.NoteOnEvent(tick=1, channel=1, data=[40, 0]),
   midi.NoteOnEvent(tick=38, channel=1, data=[44, 103]),
   midi.NoteOnEvent(tick=0, channel=1, data=[40, 66]),
   midi.NoteOnEvent(tick=15, channel=1, data=[44, 0]),
   midi.NoteOnEvent(tick=3, channel=1, data=[40, 0]),
   midi.NoteOnEvent(tick=43, channel=1, data=[45, 66]),
   midi.NoteOnEvent(tick=2, channel=1, data=[33, 77]),
   midi.NoteOnEvent(tick=23, channel=1, data=[45, 0]),
   midi.NoteOnEvent(tick=7, channel=1, data=[33, 0]),
   midi.ControlChangeEvent(tick=9, channel=1, data=[64, 127]),
   midi.NoteOnEvent(tick=20, channel=1, data=[45, 66]),
   midi.NoteOnEvent(tick=21, channel=1, data=[45, 0]),
   midi.NoteOnEvent(tick=29, channel=1, data=[45, 81]),
   midi.NoteOnEvent(tick=20, channel=1, data=[45, 0]),
   midi.NoteOnEvent(tick=31, channel=1, data=[45, 76]),
   midi.NoteOnEvent(tick=18, channel=1, data=[45, 0]),
   midi.NoteOnEvent(tick=32, channel=1, data=[45, 75]),
   midi.NoteOnEvent(tick=15, channel=1, data=[45, 0]),
   midi.NoteOnEvent(tick=30, channel=1, data=[45, 75]),
   midi.NoteOnEvent(tick=16, channel=1, data=[45, 0]),
   midi.ControlChangeEvent(tick=34, channel=1, data=[64, 0]),
   midi.NoteOnEvent(tick=5, channel=1, data=[45, 98]),
   midi.NoteOnEvent(tick=25, channel=1, data=[45, 0]),
   midi.ControlChangeEvent(tick=19, channel=1, data=[64, 127]),
   midi.NoteOnEvent(tick=2, channel=1, data=[45, 93]),
   midi.NoteOnEvent(tick=28, channel=1, data=[45, 0]),
   midi.NoteOnEvent(tick=21, channel=1, data=[45, 92]),
   midi.NoteOnEvent(tick=25, channel=1, data=[45, 0]),
   midi.NoteOnEvent(tick=25, channel=1, data=[45, 89]),
   midi.NoteOnEvent(tick=28, channel=1, data=[45, 0]),
   midi.NoteOnEvent(tick=21, channel=1, data=[45, 93]),
   midi.NoteOnEvent(tick=30, channel=1, data=[45, 0]),
   midi.NoteOnEvent(tick=20, channel=1, data=[45, 95]),
   midi.NoteOnEvent(tick=25, channel=1, data=[45, 0]),
   midi.NoteOnEvent(tick=25, channel=1, data=[45, 96]),
   midi.ControlChangeEvent(tick=5, channel=1, data=[64, 0]),
   midi.NoteOnEvent(tick=10, channel=1, data=[45, 0]),
   midi.ControlChangeEvent(tick=26, channel=1, data=[64, 127]),
   midi.NoteOnEvent(tick=9, channel=1, data=[45, 93]),
   midi.NoteOnEvent(tick=15, channel=1, data=[45, 0]),
   midi.NoteOnEvent(tick=30, channel=1, data=[45, 90]),
   midi.NoteOnEvent(tick=27, channel=1, data=[45, 0]),
   midi.NoteOnEvent(tick=20, channel=1, data=[45, 92]),
   midi.NoteOnEvent(tick=22, channel=1, data=[45, 0]),
   midi.ControlChangeEvent(tick=12, channel=1, data=[64, 0]),
   midi.NoteOnEvent(tick=9, channel=1, data=[45, 87]),
   midi.NoteOnEvent(tick=20, channel=1, data=[45, 0]),
   midi.ControlChangeEvent(tick=5, channel=1, data=[64, 127]),
   midi.NoteOnEvent(tick=28, channel=1, data=[45, 90]),
   midi.NoteOnEvent(tick=17, channel=1, data=[45, 0]),
   midi.NoteOnEvent(tick=35, channel=1, data=[45, 93]),
   midi.ControlChangeEvent(tick=6, channel=1, data=[64, 0]),
   midi.NoteOnEvent(tick=19, channel=1, data=[45, 0]),
   midi.NoteOnEvent(tick=20, channel=1, data=[45, 91]),
   midi.ControlChangeEvent(tick=5, channel=1, data=[64, 127]),
   midi.NoteOnEvent(tick=12, channel=1, data=[45, 0]),
   midi.NoteOnEvent(tick=28, channel=1, data=[45, 93]),
   midi.NoteOnEvent(tick=17, channel=1, data=[45, 0]),
   midi.NoteOnEvent(tick=31, channel=1, data=[45, 90]),
   midi.NoteOnEvent(tick=15, channel=1, data=[45, 0]),
   midi.ControlChangeEvent(tick=27, channel=1, data=[64, 0]),
   midi.NoteOnEvent(tick=8, channel=1, data=[45, 86]),
   midi.NoteOnEvent(tick=15, channel=1, data=[45, 0]),
   midi.ControlChangeEvent(tick=8, channel=1, data=[64, 127]),
   midi.NoteOnEvent(tick=28, channel=1, data=[45, 96]),
   midi.NoteOnEvent(tick=20, channel=1, data=[45, 0]),
   midi.NoteOnEvent(tick=31, channel=1, data=[46, 88]),
   midi.ControlChangeEvent(tick=5, channel=1, data=[64, 0]),
   midi.NoteOnEvent(tick=31, channel=1, data=[46, 0]),
   midi.ControlChangeEvent(tick=9, channel=1, data=[64, 127]),
   midi.NoteOnEvent(tick=15, channel=1, data=[46, 93]),
   midi.NoteOnEvent(tick=15, channel=1, data=[46, 0]),
   midi.NoteOnEvent(tick=30, channel=1, data=[46, 87]),
   midi.NoteOnEvent(tick=17, channel=1, data=[46, 0]),
   midi.NoteOnEvent(tick=23, channel=1, data=[46, 87]),
   midi.NoteOnEvent(tick=18, channel=1, data=[46, 0]),
   midi.NoteOnEvent(tick=27, channel=1, data=[46, 91]),
   midi.NoteOnEvent(tick=15, channel=1, data=[46, 0]),
   midi.NoteOnEvent(tick=33, channel=1, data=[46, 93]),
   midi.NoteOnEvent(tick=15, channel=1, data=[46, 0]),
   midi.ControlChangeEvent(tick=22, channel=1, data=[64, 0]),
   midi.NoteOnEvent(tick=15, channel=1, data=[46, 86]),
   midi.NoteOnEvent(tick=20, channel=1, data=[46, 0]),
   midi.ControlChangeEvent(tick=16, channel=1, data=[64, 127]),
   midi.ControlChangeEvent(tick=1, channel=1, data=[64, 0]),
   midi.ControlChangeEvent(tick=0, channel=1, data=[64, 127]),
   midi.NoteOnEvent(tick=10, channel=1, data=[46, 89]),
   midi.NoteOnEvent(tick=20, channel=1, data=[46, 0]),
   midi.NoteOnEvent(tick=29, channel=1, data=[46, 90]),
   midi.NoteOnEvent(tick=20, channel=1, data=[46, 0]),
   midi.NoteOnEvent(tick=29, channel=1, data=[46, 92]),
   midi.NoteOnEvent(tick=15, channel=1, data=[46, 0]),
   midi.NoteOnEvent(tick=33, channel=1, data=[46, 88]),
   midi.NoteOnEvent(tick=15, channel=1, data=[46, 0]),
   midi.NoteOnEvent(tick=32, channel=1, data=[46, 88]),
   midi.NoteOnEvent(tick=18, channel=1, data=[46, 0]),
   midi.NoteOnEvent(tick=37, channel=1, data=[46, 88]),
   midi.ControlChangeEvent(tick=10, channel=1, data=[64, 0]),
   midi.NoteOnEvent(tick=10, channel=1, data=[46, 0]),
   midi.NoteOnEvent(tick=28, channel=1, data=[46, 87]),
   midi.NoteOnEvent(tick=15, channel=1, data=[46, 0]),
   midi.NoteOnEvent(tick=32, channel=1, data=[46, 91]),
   midi.NoteOnEvent(tick=20, channel=1, data=[46, 0]),
   midi.NoteOnEvent(tick=30, channel=1, data=[46, 89]),
   midi.NoteOnEvent(tick=20, channel=1, data=[46, 0]),
   midi.NoteOnEvent(tick=36, channel=1, data=[46, 89]),
   midi.NoteOnEvent(tick=20, channel=1, data=[46, 0]),
   midi.NoteOnEvent(tick=29, channel=1, data=[46, 87]),
   midi.NoteOnEvent(tick=20, channel=1, data=[46, 0]),
   midi.NoteOnEvent(tick=33, channel=1, data=[47, 73]),
   midi.NoteOnEvent(tick=25, channel=1, data=[47, 0]),
   midi.NoteOnEvent(tick=25, channel=1, data=[47, 81]),
   midi.NoteOnEvent(tick=23, channel=1, data=[47, 0]),
   midi.NoteOnEvent(tick=27, channel=1, data=[47, 87]),
   midi.NoteOnEvent(tick=20, channel=1, data=[47, 0]),
   midi.NoteOnEvent(tick=30, channel=1, data=[47, 78]),
   midi.NoteOnEvent(tick=18, channel=1, data=[47, 0]),
   midi.NoteOnEvent(tick=29, channel=1, data=[47, 83]),
   midi.NoteOnEvent(tick=20, channel=1, data=[47, 0]),
   midi.NoteOnEvent(tick=33, channel=1, data=[47, 97]),
   midi.NoteOnEvent(tick=15, channel=1, data=[47, 0]),
   midi.NoteOnEvent(tick=47, channel=1, data=[48, 68]),
   midi.NoteOnEvent(tick=149, channel=1, data=[48, 0]),
   midi.NoteOnEvent(tick=227, channel=1, data=[56, 58]),
   midi.NoteOnEvent(tick=0, channel=1, data=[52, 61]),
   midi.NoteOnEvent(tick=149, channel=1, data=[52, 0]),
   midi.NoteOnEvent(tick=0, channel=1, data=[56, 0]),
   midi.NoteOnEvent(tick=245, channel=1, data=[33, 64]),
   midi.NoteOnEvent(tick=1, channel=1, data=[57, 67]),
   midi.ControlChangeEvent(tick=24, channel=1, data=[64, 127]),
   midi.NoteOnEvent(tick=14, channel=1, data=[57, 0]),
   midi.NoteOnEvent(tick=50, channel=1, data=[33, 0]),
   midi.ControlChangeEvent(tick=132, channel=1, data=[64, 0]),
   midi.NoteOnEvent(tick=0, channel=1, data=[57, 73]),
   midi.ControlChangeEvent(tick=39, channel=1, data=[64, 127]),
   midi.NoteOnEvent(tick=20, channel=1, data=[57, 0]),
   midi.NoteOnEvent(tick=45, channel=1, data=[57, 74]),
   midi.ControlChangeEvent(tick=5, channel=1, data=[64, 0]),
   midi.ControlChangeEvent(tick=50, channel=1, data=[64, 127]),
   midi.NoteOnEvent(tick=34, channel=1, data=[57, 0]),
   midi.ControlChangeEvent(tick=121, channel=1, data=[64, 0]),
   midi.NoteOnEvent(tick=5, channel=1, data=[57, 77]),
   midi.NoteOnEvent(tick=35, channel=1, data=[57, 0]),
   midi.ControlChangeEvent(tick=5, channel=1, data=[64, 127]),
   midi.ControlChangeEvent(tick=65, channel=1, data=[64, 0]),
   midi.NoteOnEvent(tick=1, channel=1, data=[57, 81]),
   midi.ControlChangeEvent(tick=54, channel=1, data=[64, 127]),
   midi.NoteOnEvent(tick=81, channel=1, data=[57, 0]),
   midi.ControlChangeEvent(tick=94, channel=1, data=[64, 0]),
   midi.NoteOnEvent(tick=6, channel=1, data=[57, 77]),
   midi.ControlChangeEvent(tick=39, channel=1, data=[64, 127]),
   midi.NoteOnEvent(tick=16, channel=1, data=[57, 0]),
   midi.NoteOnEvent(tick=74, channel=1, data=[57, 69]),
   midi.ControlChangeEvent(tick=5, channel=1, data=[64, 0]),
   midi.NoteOnEvent(tick=173, channel=1, data=[57, 0]),
   midi.NoteOnEvent(tick=1144, channel=1, data=[45, 63]),
   midi.ControlChangeEvent(tick=43, channel=1, data=[64, 127]),
   midi.NoteOnEvent(tick=20, channel=1, data=[52, 61]),
   midi.NoteOnEvent(tick=7, channel=1, data=[45, 0]),
   midi.NoteOnEvent(tick=53, channel=1, data=[57, 63]),
   midi.NoteOnEvent(tick=23, channel=1, data=[52, 0]),
   midi.NoteOnEvent(tick=20, channel=1, data=[57, 0]),
   midi.ControlChangeEvent(tick=158, channel=1, data=[64, 0]),
   midi.NoteOnEvent(tick=6, channel=1, data=[40, 74]),
   midi.ControlChangeEvent(tick=30, channel=1, data=[64, 127]),
   midi.NoteOnEvent(tick=8, channel=1, data=[40, 0]),
   midi.NoteOnEvent(tick=10, channel=1, data=[52, 71]),
   midi.NoteOnEvent(tick=47, channel=1, data=[56, 79]),
   midi.NoteOnEvent(tick=3, channel=1, data=[52, 0]),
   midi.NoteOnEvent(tick=18, channel=1, data=[56, 0]),
   midi.NoteOnEvent(tick=170, channel=1, data=[45, 63]),
   midi.ControlChangeEvent(tick=7, channel=1, data=[64, 0]),
   midi.ControlChangeEvent(tick=45, channel=1, data=[64, 127]),
   midi.NoteOnEvent(tick=5, channel=1, data=[52, 76]),
   midi.NoteOnEvent(tick=18, channel=1, data=[45, 0]),
   midi.NoteOnEvent(tick=32, channel=1, data=[57, 68]),
   midi.NoteOnEvent(tick=15, channel=1, data=[52, 0]),
   midi.NoteOnEvent(tick=44, channel=1, data=[57, 0]),
   midi.ControlChangeEvent(tick=56, channel=1, data=[64, 0]),
   midi.NoteOnEvent(tick=409, channel=1, data=[45, 62]),
   midi.ControlChangeEvent(tick=33, channel=1, data=[64, 127]),
   midi.NoteOnEvent(tick=22, channel=1, data=[45, 0]),
   midi.NoteOnEvent(tick=6, channel=1, data=[52, 60]),
   midi.NoteOnEvent(tick=45, channel=1, data=[57, 65]),
   midi.NoteOnEvent(tick=15, channel=1, data=[52, 0]),
   midi.NoteOnEvent(tick=37, channel=1, data=[57, 0]),
   midi.ControlChangeEvent(tick=133, channel=1, data=[64, 0]),
   midi.NoteOnEvent(tick=1, channel=1, data=[40, 69]),
   midi.ControlChangeEvent(tick=31, channel=1, data=[64, 127]),
   midi.NoteOnEvent(tick=10, channel=1, data=[40, 0]),
   midi.NoteOnEvent(tick=18, channel=1, data=[52, 67]),
   midi.NoteOnEvent(tick=48, channel=1, data=[52, 0]),
   midi.NoteOnEvent(tick=7, channel=1, data=[56, 76]),
   midi.NoteOnEvent(tick=37, channel=1, data=[56, 0]),
   midi.ControlChangeEvent(tick=150, channel=1, data=[64, 0]),
   midi.NoteOnEvent(tick=15, channel=1, data=[45, 55]),
   midi.ControlChangeEvent(tick=43, channel=1, data=[64, 127]),
   midi.NoteOnEvent(tick=21, channel=1, data=[52, 67]),
   midi.NoteOnEvent(tick=4, channel=1, data=[45, 0]),
   midi.NoteOnEvent(tick=60, channel=1, data=[57, 58]),
   midi.NoteOnEvent(tick=4, channel=1, data=[52, 0]),
   midi.NoteOnEvent(tick=56, channel=1, data=[57, 0]),
   midi.ControlChangeEvent(tick=26, channel=1, data=[64, 0]),
   midi.NoteOnEvent(tick=139, channel=1, data=[48, 64]),
   midi.ControlChangeEvent(tick=40, channel=1, data=[64, 127]),
   midi.NoteOnEvent(tick=20, channel=1, data=[55, 74]),
   midi.NoteOnEvent(tick=5, channel=1, data=[48, 0]),
   midi.NoteOnEvent(tick=77, channel=1, data=[55, 0]),
   midi.ControlChangeEvent(tick=158, channel=1, data=[64, 0]),
   midi.NoteOnEvent(tick=5, channel=1, data=[43, 71]),
   midi.ControlChangeEvent(tick=40, channel=1, data=[64, 127]),
   midi.NoteOnEvent(tick=8, channel=1, data=[43, 0]),
   midi.NoteOnEvent(tick=7, channel=1, data=[55, 71]),
   midi.NoteOnEvent(tick=50, channel=1, data=[59, 67]),
   midi.NoteOnEvent(tick=3, channel=1, data=[55, 0]),
   midi.NoteOnEvent(tick=40, channel=1, data=[59, 0]),
   midi.ControlChangeEvent(tick=88, channel=1, data=[64, 0]),
   midi.NoteOnEvent(tick=74, channel=1, data=[45, 64]),
   midi.ControlChangeEvent(tick=37, channel=1, data=[64, 127]),
   midi.NoteOnEvent(tick=20, channel=1, data=[45, 0]),
   midi.NoteOnEvent(tick=3, channel=1, data=[52, 62]),
   midi.NoteOnEvent(tick=51, channel=1, data=[57, 64]),
   midi.NoteOnEvent(tick=19, channel=1, data=[52, 0]),
   midi.NoteOnEvent(tick=40, channel=1, data=[57, 0]),
   midi.ControlChangeEvent(tick=21, channel=1, data=[64, 0]),
   midi.NoteOnEvent(tick=170, channel=1, data=[40, 61]),
   midi.ControlChangeEvent(tick=29, channel=1, data=[64, 127]),
   midi.NoteOnEvent(tick=34, channel=1, data=[40, 0]),
   midi.NoteOnEvent(tick=18, channel=1, data=[52, 63]),
   midi.NoteOnEvent(tick=58, channel=1, data=[52, 0]),
   midi.ControlChangeEvent(tick=480, channel=1, data=[64, 0]),
   midi.NoteOnEvent(tick=1313, channel=1, data=[45, 64]),
   midi.ControlChangeEvent(tick=44, channel=1, data=[64, 127]),
   midi.NoteOnEvent(tick=19, channel=1, data=[52, 61]),
   midi.NoteOnEvent(tick=12, channel=1, data=[45, 0]),
   midi.NoteOnEvent(tick=38, channel=1, data=[52, 0]),
   midi.NoteOnEvent(tick=9, channel=1, data=[57, 57]),
   midi.NoteOnEvent(tick=59, channel=1, data=[57, 0]),
   midi.ControlChangeEvent(tick=121, channel=1, data=[64, 0]),
   midi.NoteOnEvent(tick=23, channel=1, data=[40, 66]),
   midi.ControlChangeEvent(tick=37, channel=1, data=[64, 127]),
   midi.NoteOnEvent(tick=3, channel=1, data=[40, 0]),
   midi.NoteOnEvent(tick=13, channel=1, data=[52, 71]),
   midi.NoteOnEvent(tick=55, channel=1, data=[56, 78]),
   midi.NoteOnEvent(tick=4, channel=1, data=[52, 0]),
   midi.NoteOnEvent(tick=55, channel=1, data=[56, 0]),
   midi.ControlChangeEvent(tick=90, channel=1, data=[64, 0]),
   midi.NoteOnEvent(tick=75, channel=1, data=[45, 58]),
   midi.ControlChangeEvent(tick=50, channel=1, data=[64, 127]),
   midi.NoteOnEvent(tick=20, channel=1, data=[52, 62]),
   midi.NoteOnEvent(tick=5, channel=1, data=[45, 0]),
   midi.NoteOnEvent(tick=60, channel=1, data=[57, 62]),
   midi.NoteOnEvent(tick=6, channel=1, data=[52, 0]),
   midi.NoteOnEvent(tick=54, channel=1, data=[57, 0]),
   midi.ControlChangeEvent(tick=61, channel=1, data=[64, 0]),
   midi.NoteOnEvent(tick=458, channel=1, data=[45, 67]),
   midi.ControlChangeEvent(tick=41, channel=1, data=[64, 127]),
   midi.NoteOnEvent(tick=24, channel=1, data=[45, 0]),
   midi.NoteOnEvent(tick=1, channel=1, data=[52, 68]),
   midi.NoteOnEvent(tick=50, channel=1, data=[57, 74]),
   midi.NoteOnEvent(tick=17, channel=1, data=[52, 0]),
   midi.NoteOnEvent(tick=43, channel=1, data=[57, 0]),
   midi.ControlChangeEvent(tick=160, channel=1, data=[64, 0]),
   midi.NoteOnEvent(tick=7, channel=1, data=[40, 65]),
   midi.ControlChangeEvent(tick=40, channel=1, data=[64, 127]),
   midi.NoteOnEvent(tick=5, channel=1, data=[40, 0]),
   midi.NoteOnEvent(tick=20, channel=1, data=[52, 63]),
   midi.NoteOnEvent(tick=46, channel=1, data=[52, 0]),
   midi.NoteOnEvent(tick=22, channel=1, data=[56, 68]),
   midi.NoteOnEvent(tick=36, channel=1, data=[56, 0]),
   midi.ControlChangeEvent(tick=99, channel=1, data=[64, 0]),
   midi.NoteOnEvent(tick=238, channel=1, data=[45, 58]),
   midi.NoteOnEvent(tick=0, channel=1, data=[33, 55]),
   midi.ControlChangeEvent(tick=102, channel=1, data=[121, 0]),
   midi.NoteOnEvent(tick=287, channel=1, data=[33, 0]),
   midi.NoteOnEvent(tick=0, channel=1, data=[45, 0]),
   midi.EndOfTrackEvent(tick=0, data=[])])])
