midi.Pattern(format=1, resolution=120, tracks=\
[midi.Track(\
  [midi.TimeSignatureEvent(tick=0, data=[4, 2, 24, 8]),
   midi.KeySignatureEvent(tick=0, data=[0, 0]),
   midi.SetTempoEvent(tick=0, data=[8, 184, 37]),
   midi.EndOfTrackEvent(tick=0, data=[])]),
 midi.Track(\
  [midi.PortEvent(tick=0, data=[0]),
   midi.TrackNameEvent(tick=0, text='Gladiolus Rag', data=[71, 108, 97, 100, 105, 111, 108, 117, 115, 32, 82, 97, 103]),
   midi.ProgramChangeEvent(tick=0, channel=0, data=[0]),
   midi.ControlChangeEvent(tick=0, channel=0, data=[7, 127]),
   midi.ControlChangeEvent(tick=0, channel=0, data=[10, 64]),
   midi.ControlChangeEvent(tick=446, channel=0, data=[91, 120]),
   midi.ControlChangeEvent(tick=0, channel=0, data=[93, 50]),
   midi.NoteOnEvent(tick=0, channel=0, data=[39, 45]),
   midi.NoteOnEvent(tick=5, channel=0, data=[51, 43]),
   midi.ControlChangeEvent(tick=17, channel=0, data=[64, 24]),
   midi.ControlChangeEvent(tick=5, channel=0, data=[64, 56]),
   midi.ControlChangeEvent(tick=4, channel=0, data=[64, 72]),
   midi.NoteOnEvent(tick=1, channel=0, data=[51, 0]),
   midi.NoteOnEvent(tick=0, channel=0, data=[39, 0]),
   midi.ControlChangeEvent(tick=3, channel=0, data=[64, 88]),
   midi.ControlChangeEvent(tick=4, channel=0, data=[64, 104]),
   midi.ControlChangeEvent(tick=4, channel=0, data=[64, 127]),
   midi.ControlChangeEvent(tick=28, channel=0, data=[64, 56]),
   midi.ControlChangeEvent(tick=5, channel=0, data=[64, 0]),
   midi.NoteOnEvent(tick=37, channel=0, data=[56, 49]),
   midi.NoteOnEvent(tick=0, channel=0, data=[44, 53]),
   midi.ControlChangeEvent(tick=2, channel=0, data=[64, 40]),
   midi.ControlChangeEvent(tick=4, channel=0, data=[64, 104]),
   midi.ControlChangeEvent(tick=5, channel=0, data=[64, 127]),
   midi.NoteOnEvent(tick=8, channel=0, data=[44, 0]),
   midi.NoteOnEvent(tick=0, channel=0, data=[56, 0]),
   midi.NoteOnEvent(tick=34, channel=0, data=[84, 74]),
   midi.NoteOnEvent(tick=35, channel=0, data=[84, 0]),
   midi.NoteOnEvent(tick=13, channel=0, data=[80, 70]),
   midi.NoteOnEvent(tick=5, channel=0, data=[51, 42]),
   midi.NoteOnEvent(tick=1, channel=0, data=[60, 50]),
   midi.NoteOnEvent(tick=4, channel=0, data=[56, 41]),
   midi.NoteOnEvent(tick=6, channel=0, data=[60, 0]),
   midi.NoteOnEvent(tick=3, channel=0, data=[56, 0]),
   midi.NoteOnEvent(tick=8, channel=0, data=[51, 0]),
   midi.NoteOnEvent(tick=14, channel=0, data=[80, 0]),
   midi.NoteOnEvent(tick=11, channel=0, data=[77, 81]),
   midi.NoteOnEvent(tick=33, channel=0, data=[77, 0]),
   midi.ControlChangeEvent(tick=14, channel=0, data=[64, 56]),
   midi.NoteOnEvent(tick=5, channel=0, data=[74, 71]),
   midi.ControlChangeEvent(tick=0, channel=0, data=[64, 0]),
   midi.NoteOnEvent(tick=2, channel=0, data=[39, 44]),
   midi.NoteOnEvent(tick=2, channel=0, data=[51, 40]),
   midi.NoteOnEvent(tick=10, channel=0, data=[39, 0]),
   midi.NoteOnEvent(tick=6, channel=0, data=[51, 0]),
   midi.ControlChangeEvent(tick=0, channel=0, data=[64, 56]),
   midi.ControlChangeEvent(tick=4, channel=0, data=[64, 127]),
   midi.NoteOnEvent(tick=10, channel=0, data=[74, 0]),
   midi.NoteOnEvent(tick=15, channel=0, data=[75, 74]),
   midi.NoteOnEvent(tick=29, channel=0, data=[75, 0]),
   midi.ControlChangeEvent(tick=10, channel=0, data=[64, 88]),
   midi.ControlChangeEvent(tick=3, channel=0, data=[64, 24]),
   midi.ControlChangeEvent(tick=4, channel=0, data=[64, 0]),
   midi.NoteOnEvent(tick=2, channel=0, data=[68, 64]),
   midi.NoteOnEvent(tick=5, channel=0, data=[51, 42]),
   midi.NoteOnEvent(tick=1, channel=0, data=[60, 51]),
   midi.NoteOnEvent(tick=4, channel=0, data=[56, 42]),
   midi.ControlChangeEvent(tick=1, channel=0, data=[64, 56]),
   midi.ControlChangeEvent(tick=4, channel=0, data=[64, 104]),
   midi.NoteOnEvent(tick=3, channel=0, data=[60, 0]),
   midi.NoteOnEvent(tick=1, channel=0, data=[56, 0]),
   midi.ControlChangeEvent(tick=0, channel=0, data=[64, 127]),
   midi.NoteOnEvent(tick=10, channel=0, data=[51, 0]),
   midi.NoteOnEvent(tick=4, channel=0, data=[68, 0]),
   midi.NoteOnEvent(tick=16, channel=0, data=[70, 70]),
   midi.NoteOnEvent(tick=21, channel=0, data=[70, 0]),
   midi.ControlChangeEvent(tick=18, channel=0, data=[64, 104]),
   midi.ControlChangeEvent(tick=3, channel=0, data=[64, 40]),
   midi.ControlChangeEvent(tick=5, channel=0, data=[64, 0]),
   midi.NoteOnEvent(tick=9, channel=0, data=[71, 71]),
   midi.NoteOnEvent(tick=2, channel=0, data=[62, 54]),
   midi.NoteOnEvent(tick=0, channel=0, data=[53, 46]),
   midi.NoteOnEvent(tick=1, channel=0, data=[41, 44]),
   midi.ControlChangeEvent(tick=12, channel=0, data=[64, 40]),
   midi.ControlChangeEvent(tick=4, channel=0, data=[64, 127]),
   midi.NoteOnEvent(tick=2, channel=0, data=[53, 0]),
   midi.NoteOnEvent(tick=1, channel=0, data=[41, 0]),
   midi.NoteOnEvent(tick=20, channel=0, data=[71, 0]),
   midi.NoteOnEvent(tick=8, channel=0, data=[67, 73]),
   midi.NoteOnEvent(tick=22, channel=0, data=[62, 0]),
   midi.ControlChangeEvent(tick=11, channel=0, data=[64, 56]),
   midi.ControlChangeEvent(tick=5, channel=0, data=[64, 0]),
   midi.NoteOnEvent(tick=8, channel=0, data=[67, 0]),
   midi.NoteOnEvent(tick=0, channel=0, data=[68, 72]),
   midi.NoteOnEvent(tick=7, channel=0, data=[52, 50]),
   midi.ControlChangeEvent(tick=1, channel=0, data=[64, 72]),
   midi.NoteOnEvent(tick=2, channel=0, data=[40, 45]),
   midi.ControlChangeEvent(tick=2, channel=0, data=[64, 127]),
   midi.NoteOnEvent(tick=6, channel=0, data=[52, 0]),
   midi.NoteOnEvent(tick=2, channel=0, data=[40, 0]),
   midi.NoteOnEvent(tick=12, channel=0, data=[68, 0]),
   midi.NoteOnEvent(tick=23, channel=0, data=[70, 73]),
   midi.NoteOnEvent(tick=3, channel=0, data=[61, 44]),
   midi.NoteOnEvent(tick=2, channel=0, data=[67, 53]),
   midi.ControlChangeEvent(tick=12, channel=0, data=[64, 88]),
   midi.ControlChangeEvent(tick=4, channel=0, data=[64, 40]),
   midi.ControlChangeEvent(tick=4, channel=0, data=[64, 0]),
   midi.NoteOnEvent(tick=29, channel=0, data=[39, 45]),
   midi.NoteOnEvent(tick=2, channel=0, data=[61, 0]),
   midi.NoteOnEvent(tick=0, channel=0, data=[51, 50]),
   midi.ControlChangeEvent(tick=2, channel=0, data=[64, 104]),
   midi.NoteOnEvent(tick=2, channel=0, data=[67, 0]),
   midi.ControlChangeEvent(tick=2, channel=0, data=[64, 127]),
   midi.NoteOnEvent(tick=9, channel=0, data=[70, 0]),
   midi.NoteOnEvent(tick=4, channel=0, data=[39, 0]),
   midi.NoteOnEvent(tick=0, channel=0, data=[51, 0]),
   midi.NoteOnEvent(tick=32, channel=0, data=[75, 78]),
   midi.NoteOnEvent(tick=48, channel=0, data=[87, 76]),
   midi.NoteOnEvent(tick=3, channel=0, data=[75, 0]),
   midi.NoteOnEvent(tick=6, channel=0, data=[61, 44]),
   midi.NoteOnEvent(tick=2, channel=0, data=[55, 40]),
   midi.NoteOnEvent(tick=2, channel=0, data=[51, 42]),
   midi.NoteOnEvent(tick=8, channel=0, data=[55, 0]),
   midi.NoteOnEvent(tick=5, channel=0, data=[61, 0]),
   midi.NoteOnEvent(tick=5, channel=0, data=[51, 0]),
   midi.NoteOnEvent(tick=5, channel=0, data=[87, 0]),
   midi.NoteOnEvent(tick=16, channel=0, data=[85, 76]),
   midi.NoteOnEvent(tick=21, channel=0, data=[85, 0]),
   midi.ControlChangeEvent(tick=19, channel=0, data=[64, 72]),
   midi.ControlChangeEvent(tick=4, channel=0, data=[64, 0]),
   midi.NoteOnEvent(tick=7, channel=0, data=[44, 52]),
   midi.NoteOnEvent(tick=1, channel=0, data=[56, 48]),
   midi.NoteOnEvent(tick=18, channel=0, data=[44, 0]),
   midi.NoteOnEvent(tick=2, channel=0, data=[56, 0]),
   midi.ControlChangeEvent(tick=1, channel=0, data=[64, 88]),
   midi.ControlChangeEvent(tick=4, channel=0, data=[64, 127]),
   midi.NoteOnEvent(tick=20, channel=0, data=[84, 75]),
   midi.NoteOnEvent(tick=30, channel=0, data=[84, 0]),
   midi.NoteOnEvent(tick=20, channel=0, data=[80, 71]),
   midi.NoteOnEvent(tick=4, channel=0, data=[56, 44]),
   midi.NoteOnEvent(tick=1, channel=0, data=[60, 49]),
   midi.NoteOnEvent(tick=5, channel=0, data=[51, 41]),
   midi.NoteOnEvent(tick=4, channel=0, data=[60, 0]),
   midi.NoteOnEvent(tick=5, channel=0, data=[56, 0]),
   midi.NoteOnEvent(tick=1, channel=0, data=[51, 0]),
   midi.NoteOnEvent(tick=13, channel=0, data=[80, 0]),
   midi.NoteOnEvent(tick=18, channel=0, data=[77, 80]),
   midi.NoteOnEvent(tick=35, channel=0, data=[77, 0]),
   midi.ControlChangeEvent(tick=1, channel=0, data=[64, 72]),
   midi.ControlChangeEvent(tick=4, channel=0, data=[64, 0]),
   midi.NoteOnEvent(tick=8, channel=0, data=[74, 66]),
   midi.NoteOnEvent(tick=6, channel=0, data=[39, 43]),
   midi.NoteOnEvent(tick=1, channel=0, data=[51, 41]),
   midi.NoteOnEvent(tick=8, channel=0, data=[39, 0]),
   midi.ControlChangeEvent(tick=1, channel=0, data=[64, 56]),
   midi.NoteOnEvent(tick=3, channel=0, data=[51, 0]),
   midi.ControlChangeEvent(tick=1, channel=0, data=[64, 127]),
   midi.NoteOnEvent(tick=16, channel=0, data=[74, 0]),
   midi.NoteOnEvent(tick=16, channel=0, data=[75, 72]),
   midi.NoteOnEvent(tick=32, channel=0, data=[75, 0]),
   midi.ControlChangeEvent(tick=9, channel=0, data=[64, 72]),
   midi.ControlChangeEvent(tick=4, channel=0, data=[64, 40]),
   midi.NoteOnEvent(tick=4, channel=0, data=[68, 58]),
   midi.NoteOnEvent(tick=1, channel=0, data=[60, 55]),
   midi.NoteOnEvent(tick=0, channel=0, data=[51, 48]),
   midi.NoteOnEvent(tick=0, channel=0, data=[56, 44]),
   midi.ControlChangeEvent(tick=6, channel=0, data=[64, 104]),
   midi.NoteOnEvent(tick=2, channel=0, data=[60, 0]),
   midi.NoteOnEvent(tick=2, channel=0, data=[56, 0]),
   midi.ControlChangeEvent(tick=1, channel=0, data=[64, 127]),
   midi.NoteOnEvent(tick=5, channel=0, data=[51, 0]),
   midi.NoteOnEvent(tick=17, channel=0, data=[68, 0]),
   midi.NoteOnEvent(tick=12, channel=0, data=[70, 76]),
   midi.NoteOnEvent(tick=21, channel=0, data=[70, 0]),
   midi.ControlChangeEvent(tick=22, channel=0, data=[64, 56]),
   midi.ControlChangeEvent(tick=4, channel=0, data=[64, 0]),
   midi.NoteOnEvent(tick=7, channel=0, data=[71, 73]),
   midi.NoteOnEvent(tick=3, channel=0, data=[53, 50]),
   midi.NoteOnEvent(tick=1, channel=0, data=[62, 56]),
   midi.NoteOnEvent(tick=1, channel=0, data=[41, 45]),
   midi.ControlChangeEvent(tick=12, channel=0, data=[64, 72]),
   midi.NoteOnEvent(tick=3, channel=0, data=[53, 0]),
   midi.ControlChangeEvent(tick=1, channel=0, data=[64, 127]),
   midi.NoteOnEvent(tick=5, channel=0, data=[41, 0]),
   midi.NoteOnEvent(tick=15, channel=0, data=[71, 0]),
   midi.NoteOnEvent(tick=10, channel=0, data=[67, 71]),
   midi.NoteOnEvent(tick=16, channel=0, data=[62, 0]),
   midi.ControlChangeEvent(tick=6, channel=0, data=[64, 104]),
   midi.ControlChangeEvent(tick=4, channel=0, data=[64, 56]),
   midi.ControlChangeEvent(tick=4, channel=0, data=[64, 24]),
   midi.ControlChangeEvent(tick=4, channel=0, data=[64, 0]),
   midi.NoteOnEvent(tick=8, channel=0, data=[67, 0]),
   midi.ControlChangeEvent(tick=4, channel=0, data=[64, 40]),
   midi.NoteOnEvent(tick=2, channel=0, data=[68, 59]),
   midi.ControlChangeEvent(tick=2, channel=0, data=[64, 88]),
   midi.NoteOnEvent(tick=2, channel=0, data=[52, 45]),
   midi.NoteOnEvent(tick=2, channel=0, data=[40, 43]),
   midi.ControlChangeEvent(tick=1, channel=0, data=[64, 127]),
   midi.NoteOnEvent(tick=8, channel=0, data=[52, 0]),
   midi.NoteOnEvent(tick=3, channel=0, data=[40, 0]),
   midi.NoteOnEvent(tick=14, channel=0, data=[68, 0]),
   midi.NoteOnEvent(tick=22, channel=0, data=[70, 68]),
   midi.NoteOnEvent(tick=2, channel=0, data=[61, 48]),
   midi.NoteOnEvent(tick=2, channel=0, data=[67, 50]),
   midi.ControlChangeEvent(tick=25, channel=0, data=[64, 56]),
   midi.ControlChangeEvent(tick=4, channel=0, data=[64, 0]),
   midi.NoteOnEvent(tick=19, channel=0, data=[39, 49]),
   midi.NoteOnEvent(tick=2, channel=0, data=[51, 48]),
   midi.ControlChangeEvent(tick=12, channel=0, data=[64, 88]),
   midi.ControlChangeEvent(tick=4, channel=0, data=[64, 127]),
   midi.NoteOnEvent(tick=3, channel=0, data=[67, 0]),
   midi.NoteOnEvent(tick=1, channel=0, data=[51, 0]),
   midi.NoteOnEvent(tick=0, channel=0, data=[70, 0]),
   midi.NoteOnEvent(tick=3, channel=0, data=[39, 0]),
   midi.NoteOnEvent(tick=4, channel=0, data=[61, 0]),
   midi.ControlChangeEvent(tick=60, channel=0, data=[64, 88]),
   midi.ControlChangeEvent(tick=5, channel=0, data=[64, 24]),
   midi.ControlChangeEvent(tick=4, channel=0, data=[64, 0]),
   midi.NoteOnEvent(tick=7, channel=0, data=[58, 56]),
   midi.NoteOnEvent(tick=4, channel=0, data=[46, 48]),
   midi.NoteOnEvent(tick=9, channel=0, data=[46, 0]),
   midi.ControlChangeEvent(tick=1, channel=0, data=[64, 56]),
   midi.ControlChangeEvent(tick=3, channel=0, data=[64, 104]),
   midi.ControlChangeEvent(tick=4, channel=0, data=[64, 127]),
   midi.NoteOnEvent(tick=12, channel=0, data=[58, 0]),
   midi.NoteOnEvent(tick=18, channel=0, data=[60, 69]),
   midi.NoteOnEvent(tick=7, channel=0, data=[48, 43]),
   midi.NoteOnEvent(tick=11, channel=0, data=[48, 0]),
   midi.NoteOnEvent(tick=5, channel=0, data=[60, 0]),
   midi.ControlChangeEvent(tick=11, channel=0, data=[64, 88]),
   midi.ControlChangeEvent(tick=5, channel=0, data=[64, 40]),
   midi.ControlChangeEvent(tick=4, channel=0, data=[64, 0]),
   midi.NoteOnEvent(tick=16, channel=0, data=[53, 69]),
   midi.NoteOnEvent(tick=11, channel=0, data=[41, 46]),
   midi.NoteOnEvent(tick=8, channel=0, data=[53, 0]),
   midi.ControlChangeEvent(tick=1, channel=0, data=[64, 88]),
   midi.NoteOnEvent(tick=1, channel=0, data=[41, 0]),
   midi.ControlChangeEvent(tick=4, channel=0, data=[64, 127]),
   midi.ControlChangeEvent(tick=72, channel=0, data=[64, 88]),
   midi.ControlChangeEvent(tick=4, channel=0, data=[64, 40]),
   midi.ControlChangeEvent(tick=4, channel=0, data=[64, 0]),
   midi.NoteOnEvent(tick=0, channel=0, data=[73, 67]),
   midi.NoteOnEvent(tick=4, channel=0, data=[67, 48]),
   midi.NoteOnEvent(tick=0, channel=0, data=[70, 52]),
   midi.NoteOnEvent(tick=1, channel=0, data=[65, 44]),
   midi.ControlChangeEvent(tick=7, channel=0, data=[64, 56]),
   midi.ControlChangeEvent(tick=3, channel=0, data=[64, 104]),
   midi.ControlChangeEvent(tick=5, channel=0, data=[64, 127]),
   midi.NoteOnEvent(tick=40, channel=0, data=[73, 0]),
   midi.NoteOnEvent(tick=6, channel=0, data=[70, 0]),
   midi.NoteOnEvent(tick=3, channel=0, data=[65, 0]),
   midi.NoteOnEvent(tick=14, channel=0, data=[67, 0]),
   midi.ControlChangeEvent(tick=26, channel=0, data=[64, 88]),
   midi.NoteOnEvent(tick=1, channel=0, data=[64, 44]),
   midi.NoteOnEvent(tick=2, channel=0, data=[72, 67]),
   midi.ControlChangeEvent(tick=1, channel=0, data=[64, 24]),
   midi.ControlChangeEvent(tick=3, channel=0, data=[64, 0]),
   midi.ControlChangeEvent(tick=17, channel=0, data=[64, 72]),
   midi.NoteOnEvent(tick=1, channel=0, data=[64, 0]),
   midi.NoteOnEvent(tick=3, channel=0, data=[72, 0]),
   midi.ControlChangeEvent(tick=0, channel=0, data=[64, 127]),
   midi.ControlChangeEvent(tick=73, channel=0, data=[64, 104]),
   midi.ControlChangeEvent(tick=3, channel=0, data=[64, 56]),
   midi.ControlChangeEvent(tick=4, channel=0, data=[64, 40]),
   midi.NoteOnEvent(tick=3, channel=0, data=[46, 55]),
   midi.NoteOnEvent(tick=1, channel=0, data=[58, 57]),
   midi.ControlChangeEvent(tick=1, channel=0, data=[64, 56]),
   midi.ControlChangeEvent(tick=4, channel=0, data=[64, 72]),
   midi.ControlChangeEvent(tick=4, channel=0, data=[64, 127]),
   midi.NoteOnEvent(tick=22, channel=0, data=[58, 0]),
   midi.NoteOnEvent(tick=0, channel=0, data=[46, 0]),
   midi.NoteOnEvent(tick=15, channel=0, data=[60, 76]),
   midi.NoteOnEvent(tick=3, channel=0, data=[48, 60]),
   midi.NoteOnEvent(tick=8, channel=0, data=[48, 0]),
   midi.NoteOnEvent(tick=18, channel=0, data=[60, 0]),
   midi.ControlChangeEvent(tick=10, channel=0, data=[64, 72]),
   midi.ControlChangeEvent(tick=4, channel=0, data=[64, 0]),
   midi.NoteOnEvent(tick=15, channel=0, data=[53, 77]),
   midi.NoteOnEvent(tick=9, channel=0, data=[41, 45]),
   midi.ControlChangeEvent(tick=9, channel=0, data=[64, 56]),
   midi.NoteOnEvent(tick=3, channel=0, data=[53, 0]),
   midi.ControlChangeEvent(tick=1, channel=0, data=[64, 127]),
   midi.NoteOnEvent(tick=9, channel=0, data=[41, 0]),
   midi.NoteOnEvent(tick=72, channel=0, data=[77, 77]),
   midi.NoteOnEvent(tick=2, channel=0, data=[61, 45]),
   midi.ControlChangeEvent(tick=2, channel=0, data=[64, 104]),
   midi.NoteOnEvent(tick=2, channel=0, data=[67, 43]),
   midi.NoteOnEvent(tick=0, channel=0, data=[70, 40]),
   midi.ControlChangeEvent(tick=2, channel=0, data=[64, 24]),
   midi.ControlChangeEvent(tick=4, channel=0, data=[64, 0]),
   midi.ControlChangeEvent(tick=12, channel=0, data=[64, 72]),
   midi.ControlChangeEvent(tick=3, channel=0, data=[64, 127]),
   midi.NoteOnEvent(tick=45, channel=0, data=[77, 0]),
   midi.NoteOnEvent(tick=8, channel=0, data=[61, 0]),
   midi.NoteOnEvent(tick=36, channel=0, data=[60, 35]),
   midi.NoteOnEvent(tick=0, channel=0, data=[76, 66]),
   midi.ControlChangeEvent(tick=17, channel=0, data=[64, 72]),
   midi.ControlChangeEvent(tick=4, channel=0, data=[64, 0]),
   midi.ControlChangeEvent(tick=39, channel=0, data=[64, 88]),
   midi.ControlChangeEvent(tick=4, channel=0, data=[64, 127]),
   midi.NoteOnEvent(tick=14, channel=0, data=[76, 0]),
   midi.NoteOnEvent(tick=4, channel=0, data=[70, 0]),
   midi.NoteOnEvent(tick=1, channel=0, data=[67, 0]),
   midi.NoteOnEvent(tick=2, channel=0, data=[60, 0]),
   midi.ControlChangeEvent(tick=80, channel=0, data=[64, 88]),
   midi.ControlChangeEvent(tick=5, channel=0, data=[64, 40]),
   midi.ControlChangeEvent(tick=4, channel=0, data=[64, 0]),
   midi.NoteOnEvent(tick=32, channel=0, data=[41, 54]),
   midi.NoteOnEvent(tick=7, channel=0, data=[29, 38]),
   midi.ControlChangeEvent(tick=0, channel=0, data=[64, 40]),
   midi.ControlChangeEvent(tick=5, channel=0, data=[64, 88]),
   midi.ControlChangeEvent(tick=4, channel=0, data=[64, 127]),
   midi.NoteOnEvent(tick=25, channel=0, data=[41, 0]),
   midi.NoteOnEvent(tick=3, channel=0, data=[29, 0]),
   midi.NoteOnEvent(tick=8, channel=0, data=[43, 57]),
   midi.NoteOnEvent(tick=10, channel=0, data=[31, 30]),
   midi.NoteOnEvent(tick=21, channel=0, data=[43, 0]),
   midi.ControlChangeEvent(tick=6, channel=0, data=[64, 40]),
   midi.NoteOnEvent(tick=3, channel=0, data=[31, 0]),
   midi.ControlChangeEvent(tick=1, channel=0, data=[64, 0]),
   midi.NoteOnEvent(tick=7, channel=0, data=[32, 40]),
   midi.NoteOnEvent(tick=2, channel=0, data=[44, 56]),
   midi.NoteOnEvent(tick=35, channel=0, data=[32, 0]),
   midi.ControlChangeEvent(tick=4, channel=0, data=[64, 56]),
   midi.ControlChangeEvent(tick=4, channel=0, data=[64, 127]),
   midi.NoteOnEvent(tick=2, channel=0, data=[44, 0]),
   midi.NoteOnEvent(tick=7, channel=0, data=[48, 67]),
   midi.NoteOnEvent(tick=4, channel=0, data=[36, 30]),
   midi.NoteOnEvent(tick=8, channel=0, data=[48, 0]),
   midi.ControlChangeEvent(tick=27, channel=0, data=[64, 56]),
   midi.NoteOnEvent(tick=2, channel=0, data=[36, 0]),
   midi.ControlChangeEvent(tick=2, channel=0, data=[64, 0]),
   midi.NoteOnEvent(tick=7, channel=0, data=[53, 70]),
   midi.NoteOnEvent(tick=5, channel=0, data=[41, 47]),
   midi.ControlChangeEvent(tick=13, channel=0, data=[64, 24]),
   midi.ControlChangeEvent(tick=4, channel=0, data=[64, 88]),
   midi.ControlChangeEvent(tick=4, channel=0, data=[64, 127]),
   midi.ControlChangeEvent(tick=16, channel=0, data=[64, 88]),
   midi.NoteOnEvent(tick=1, channel=0, data=[41, 0]),
   midi.NoteOnEvent(tick=2, channel=0, data=[53, 0]),
   midi.ControlChangeEvent(tick=1, channel=0, data=[64, 24]),
   midi.NoteOnEvent(tick=4, channel=0, data=[55, 71]),
   midi.ControlChangeEvent(tick=0, channel=0, data=[64, 0]),
   midi.NoteOnEvent(tick=5, channel=0, data=[43, 40]),
   midi.ControlChangeEvent(tick=15, channel=0, data=[64, 56]),
   midi.ControlChangeEvent(tick=4, channel=0, data=[64, 88]),
   midi.ControlChangeEvent(tick=12, channel=0, data=[64, 0]),
   midi.NoteOnEvent(tick=6, channel=0, data=[55, 0]),
   midi.NoteOnEvent(tick=3, channel=0, data=[43, 0]),
   midi.NoteOnEvent(tick=8, channel=0, data=[56, 64]),
   midi.NoteOnEvent(tick=0, channel=0, data=[44, 46]),
   midi.ControlChangeEvent(tick=12, channel=0, data=[64, 40]),
   midi.ControlChangeEvent(tick=12, channel=0, data=[64, 0]),
   midi.ControlChangeEvent(tick=7, channel=0, data=[64, 40]),
   midi.NoteOnEvent(tick=4, channel=0, data=[44, 0]),
   midi.ControlChangeEvent(tick=1, channel=0, data=[64, 88]),
   midi.ControlChangeEvent(tick=4, channel=0, data=[64, 127]),
   midi.NoteOnEvent(tick=3, channel=0, data=[56, 0]),
   midi.NoteOnEvent(tick=4, channel=0, data=[60, 75]),
   midi.NoteOnEvent(tick=2, channel=0, data=[48, 49]),
   midi.NoteOnEvent(tick=13, channel=0, data=[60, 0]),
   midi.ControlChangeEvent(tick=18, channel=0, data=[64, 40]),
   midi.ControlChangeEvent(tick=4, channel=0, data=[64, 0]),
   midi.NoteOnEvent(tick=2, channel=0, data=[48, 0]),
   midi.NoteOnEvent(tick=9, channel=0, data=[65, 77]),
   midi.NoteOnEvent(tick=6, channel=0, data=[53, 51]),
   midi.ControlChangeEvent(tick=8, channel=0, data=[64, 40]),
   midi.ControlChangeEvent(tick=4, channel=0, data=[64, 104]),
   midi.ControlChangeEvent(tick=4, channel=0, data=[64, 127]),
   midi.NoteOnEvent(tick=22, channel=0, data=[65, 0]),
   midi.NoteOnEvent(tick=1, channel=0, data=[53, 0]),
   midi.NoteOnEvent(tick=4, channel=0, data=[67, 74]),
   midi.ControlChangeEvent(tick=1, channel=0, data=[64, 56]),
   midi.ControlChangeEvent(tick=4, channel=0, data=[64, 0]),
   midi.NoteOnEvent(tick=6, channel=0, data=[55, 22]),
   midi.ControlChangeEvent(tick=10, channel=0, data=[64, 24]),
   midi.ControlChangeEvent(tick=4, channel=0, data=[64, 72]),
   midi.ControlChangeEvent(tick=3, channel=0, data=[64, 127]),
   midi.NoteOnEvent(tick=10, channel=0, data=[67, 0]),
   midi.ControlChangeEvent(tick=7, channel=0, data=[64, 56]),
   midi.NoteOnEvent(tick=3, channel=0, data=[55, 0]),
   midi.ControlChangeEvent(tick=1, channel=0, data=[64, 0]),
   midi.NoteOnEvent(tick=1, channel=0, data=[68, 70]),
   midi.NoteOnEvent(tick=1, channel=0, data=[56, 50]),
   midi.ControlChangeEvent(tick=10, channel=0, data=[64, 24]),
   midi.ControlChangeEvent(tick=4, channel=0, data=[64, 72]),
   midi.ControlChangeEvent(tick=4, channel=0, data=[64, 127]),
   midi.NoteOnEvent(tick=13, channel=0, data=[56, 0]),
   midi.NoteOnEvent(tick=7, channel=0, data=[68, 0]),
   midi.NoteOnEvent(tick=5, channel=0, data=[72, 86]),
   midi.NoteOnEvent(tick=12, channel=0, data=[60, 49]),
   midi.NoteOnEvent(tick=7, channel=0, data=[72, 0]),
   midi.ControlChangeEvent(tick=21, channel=0, data=[64, 104]),
   midi.NoteOnEvent(tick=4, channel=0, data=[60, 0]),
   midi.ControlChangeEvent(tick=0, channel=0, data=[64, 0]),
   midi.NoteOnEvent(tick=6, channel=0, data=[77, 89]),
   midi.NoteOnEvent(tick=8, channel=0, data=[65, 55]),
   midi.ControlChangeEvent(tick=14, channel=0, data=[64, 56]),
   midi.ControlChangeEvent(tick=4, channel=0, data=[64, 127]),
   midi.NoteOnEvent(tick=13, channel=0, data=[77, 0]),
   midi.NoteOnEvent(tick=8, channel=0, data=[79, 81]),
   midi.NoteOnEvent(tick=6, channel=0, data=[67, 50]),
   midi.NoteOnEvent(tick=5, channel=0, data=[65, 0]),
   midi.NoteOnEvent(tick=21, channel=0, data=[79, 0]),
   midi.NoteOnEvent(tick=6, channel=0, data=[67, 0]),
   midi.NoteOnEvent(tick=8, channel=0, data=[80, 82]),
   midi.NoteOnEvent(tick=1, channel=0, data=[68, 48]),
   midi.NoteOnEvent(tick=29, channel=0, data=[80, 0]),
   midi.NoteOnEvent(tick=7, channel=0, data=[68, 0]),
   midi.NoteOnEvent(tick=8, channel=0, data=[84, 86]),
   midi.NoteOnEvent(tick=4, channel=0, data=[72, 60]),
   midi.NoteOnEvent(tick=8, channel=0, data=[72, 0]),
   midi.NoteOnEvent(tick=8, channel=0, data=[84, 0]),
   midi.ControlChangeEvent(tick=38, channel=0, data=[64, 88]),
   midi.NoteOnEvent(tick=1, channel=0, data=[89, 91]),
   midi.NoteOnEvent(tick=0, channel=0, data=[77, 78]),
   midi.ControlChangeEvent(tick=3, channel=0, data=[64, 24]),
   midi.NoteOnEvent(tick=3, channel=0, data=[62, 45]),
   midi.NoteOnEvent(tick=0, channel=0, data=[71, 49]),
   midi.NoteOnEvent(tick=1, channel=0, data=[65, 52]),
   midi.ControlChangeEvent(tick=0, channel=0, data=[64, 0]),
   midi.NoteOnEvent(tick=3, channel=0, data=[68, 32]),
   midi.NoteOnEvent(tick=8, channel=0, data=[77, 0]),
   midi.ControlChangeEvent(tick=13, channel=0, data=[64, 72]),
   midi.ControlChangeEvent(tick=4, channel=0, data=[64, 127]),
   midi.NoteOnEvent(tick=5, channel=0, data=[62, 0]),
   midi.NoteOnEvent(tick=4, channel=0, data=[71, 0]),
   midi.NoteOnEvent(tick=0, channel=0, data=[89, 0]),
   midi.NoteOnEvent(tick=0, channel=0, data=[65, 0]),
   midi.NoteOnEvent(tick=5, channel=0, data=[68, 0]),
   midi.NoteOnEvent(tick=50, channel=0, data=[91, 88]),
   midi.NoteOnEvent(tick=3, channel=0, data=[79, 66]),
   midi.ControlChangeEvent(tick=2, channel=0, data=[64, 104]),
   midi.ControlChangeEvent(tick=4, channel=0, data=[64, 56]),
   midi.NoteOnEvent(tick=2, channel=0, data=[65, 46]),
   midi.NoteOnEvent(tick=1, channel=0, data=[62, 44]),
   midi.NoteOnEvent(tick=0, channel=0, data=[71, 41]),
   midi.NoteOnEvent(tick=1, channel=0, data=[68, 29]),
   midi.ControlChangeEvent(tick=0, channel=0, data=[64, 40]),
   midi.ControlChangeEvent(tick=4, channel=0, data=[64, 56]),
   midi.ControlChangeEvent(tick=4, channel=0, data=[64, 88]),
   midi.NoteOnEvent(tick=1, channel=0, data=[79, 0]),
   midi.NoteOnEvent(tick=2, channel=0, data=[91, 0]),
   midi.ControlChangeEvent(tick=1, channel=0, data=[64, 127]),
   midi.NoteOnEvent(tick=3, channel=0, data=[62, 0]),
   midi.NoteOnEvent(tick=5, channel=0, data=[71, 0]),
   midi.NoteOnEvent(tick=2, channel=0, data=[68, 0]),
   midi.NoteOnEvent(tick=0, channel=0, data=[65, 0]),
   midi.NoteOnEvent(tick=25, channel=0, data=[89, 86]),
   midi.NoteOnEvent(tick=1, channel=0, data=[77, 77]),
   midi.ControlChangeEvent(tick=16, channel=0, data=[64, 56]),
   midi.ControlChangeEvent(tick=4, channel=0, data=[64, 0]),
   midi.ControlChangeEvent(tick=20, channel=0, data=[64, 88]),
   midi.ControlChangeEvent(tick=4, channel=0, data=[64, 127]),
   midi.NoteOnEvent(tick=1, channel=0, data=[77, 0]),
   midi.NoteOnEvent(tick=2, channel=0, data=[65, 44]),
   midi.NoteOnEvent(tick=1, channel=0, data=[62, 40]),
   midi.NoteOnEvent(tick=0, channel=0, data=[68, 40]),
   midi.NoteOnEvent(tick=2, channel=0, data=[71, 43]),
   midi.NoteOnEvent(tick=6, channel=0, data=[89, 0]),
   midi.NoteOnEvent(tick=6, channel=0, data=[62, 0]),
   midi.NoteOnEvent(tick=3, channel=0, data=[71, 0]),
   midi.NoteOnEvent(tick=0, channel=0, data=[68, 0]),
   midi.NoteOnEvent(tick=1, channel=0, data=[65, 0]),
   midi.NoteOnEvent(tick=24, channel=0, data=[91, 86]),
   midi.NoteOnEvent(tick=2, channel=0, data=[79, 67]),
   midi.NoteOnEvent(tick=14, channel=0, data=[79, 0]),
   midi.NoteOnEvent(tick=0, channel=0, data=[91, 0]),
   midi.NoteOnEvent(tick=34, channel=0, data=[89, 89]),
   midi.NoteOnEvent(tick=1, channel=0, data=[62, 44]),
   midi.NoteOnEvent(tick=1, channel=0, data=[77, 75]),
   midi.NoteOnEvent(tick=1, channel=0, data=[65, 43]),
   midi.NoteOnEvent(tick=1, channel=0, data=[71, 42]),
   midi.NoteOnEvent(tick=3, channel=0, data=[68, 45]),
   midi.NoteOnEvent(tick=7, channel=0, data=[62, 0]),
   midi.NoteOnEvent(tick=2, channel=0, data=[65, 0]),
   midi.NoteOnEvent(tick=0, channel=0, data=[77, 0]),
   midi.NoteOnEvent(tick=3, channel=0, data=[68, 0]),
   midi.NoteOnEvent(tick=0, channel=0, data=[71, 0]),
   midi.NoteOnEvent(tick=1, channel=0, data=[89, 0]),
   midi.ControlChangeEvent(tick=22, channel=0, data=[64, 88]),
   midi.ControlChangeEvent(tick=4, channel=0, data=[64, 0]),
   midi.NoteOnEvent(tick=5, channel=0, data=[89, 84]),
   midi.NoteOnEvent(tick=4, channel=0, data=[77, 67]),
   midi.NoteOnEvent(tick=31, channel=0, data=[77, 0]),
   midi.NoteOnEvent(tick=14, channel=0, data=[63, 45]),
   midi.NoteOnEvent(tick=2, channel=0, data=[72, 44]),
   midi.ControlChangeEvent(tick=0, channel=0, data=[64, 127]),
   midi.NoteOnEvent(tick=1, channel=0, data=[68, 33]),
   midi.NoteOnEvent(tick=22, channel=0, data=[72, 0]),
   midi.NoteOnEvent(tick=0, channel=0, data=[63, 0]),
   midi.NoteOnEvent(tick=5, channel=0, data=[89, 0]),
   midi.NoteOnEvent(tick=0, channel=0, data=[68, 0]),
   midi.NoteOnEvent(tick=18, channel=0, data=[87, 73]),
   midi.NoteOnEvent(tick=37, channel=0, data=[87, 0]),
   midi.NoteOnEvent(tick=11, channel=0, data=[84, 71]),
   midi.NoteOnEvent(tick=4, channel=0, data=[63, 38]),
   midi.NoteOnEvent(tick=0, channel=0, data=[68, 39]),
   midi.NoteOnEvent(tick=2, channel=0, data=[72, 44]),
   midi.NoteOnEvent(tick=14, channel=0, data=[72, 0]),
   midi.NoteOnEvent(tick=2, channel=0, data=[68, 0]),
   midi.NoteOnEvent(tick=1, channel=0, data=[63, 0]),
   midi.NoteOnEvent(tick=10, channel=0, data=[84, 0]),
   midi.NoteOnEvent(tick=15, channel=0, data=[82, 67]),
   midi.ControlChangeEvent(tick=36, channel=0, data=[64, 40]),
   midi.ControlChangeEvent(tick=4, channel=0, data=[64, 0]),
   midi.NoteOnEvent(tick=5, channel=0, data=[82, 0]),
   midi.NoteOnEvent(tick=5, channel=0, data=[80, 74]),
   midi.NoteOnEvent(tick=4, channel=0, data=[66, 45]),
   midi.NoteOnEvent(tick=2, channel=0, data=[72, 37]),
   midi.NoteOnEvent(tick=0, channel=0, data=[68, 34]),
   midi.ControlChangeEvent(tick=12, channel=0, data=[64, 127]),
   midi.NoteOnEvent(tick=5, channel=0, data=[72, 0]),
   midi.NoteOnEvent(tick=4, channel=0, data=[66, 0]),
   midi.NoteOnEvent(tick=2, channel=0, data=[68, 0]),
   midi.NoteOnEvent(tick=23, channel=0, data=[87, 82]),
   midi.NoteOnEvent(tick=4, channel=0, data=[80, 0]),
   midi.NoteOnEvent(tick=48, channel=0, data=[66, 45]),
   midi.NoteOnEvent(tick=4, channel=0, data=[72, 43]),
   midi.NoteOnEvent(tick=3, channel=0, data=[68, 26]),
   midi.NoteOnEvent(tick=10, channel=0, data=[68, 0]),
   midi.NoteOnEvent(tick=2, channel=0, data=[72, 0]),
   midi.NoteOnEvent(tick=0, channel=0, data=[66, 0]),
   midi.NoteOnEvent(tick=25, channel=0, data=[87, 0]),
   midi.NoteOnEvent(tick=4, channel=0, data=[85, 81]),
   midi.ControlChangeEvent(tick=27, channel=0, data=[64, 88]),
   midi.ControlChangeEvent(tick=4, channel=0, data=[64, 0]),
   midi.NoteOnEvent(tick=22, channel=0, data=[73, 36]),
   midi.NoteOnEvent(tick=3, channel=0, data=[65, 42]),
   midi.ControlChangeEvent(tick=0, channel=0, data=[64, 56]),
   midi.NoteOnEvent(tick=3, channel=0, data=[68, 23]),
   midi.ControlChangeEvent(tick=1, channel=0, data=[64, 127]),
   midi.NoteOnEvent(tick=6, channel=0, data=[65, 0]),
   midi.NoteOnEvent(tick=3, channel=0, data=[68, 0]),
   midi.NoteOnEvent(tick=4, channel=0, data=[73, 0]),
   midi.NoteOnEvent(tick=18, channel=0, data=[85, 0]),
   midi.NoteOnEvent(tick=2, channel=0, data=[82, 80]),
   midi.ControlChangeEvent(tick=43, channel=0, data=[64, 104]),
   midi.ControlChangeEvent(tick=4, channel=0, data=[64, 24]),
   midi.NoteOnEvent(tick=4, channel=0, data=[94, 79]),
   midi.ControlChangeEvent(tick=0, channel=0, data=[64, 0]),
   midi.NoteOnEvent(tick=4, channel=0, data=[73, 36]),
   midi.NoteOnEvent(tick=3, channel=0, data=[64, 38]),
   midi.NoteOnEvent(tick=1, channel=0, data=[68, 30]),
   midi.ControlChangeEvent(tick=4, channel=0, data=[64, 72]),
   midi.ControlChangeEvent(tick=4, channel=0, data=[64, 127]),
   midi.NoteOnEvent(tick=1, channel=0, data=[64, 0]),
   midi.NoteOnEvent(tick=1, channel=0, data=[68, 0]),
   midi.NoteOnEvent(tick=4, channel=0, data=[73, 0]),
   midi.NoteOnEvent(tick=6, channel=0, data=[82, 0]),
   midi.NoteOnEvent(tick=4, channel=0, data=[94, 0]),
   midi.NoteOnEvent(tick=14, channel=0, data=[92, 88]),
   midi.NoteOnEvent(tick=21, channel=0, data=[92, 0]),
   midi.ControlChangeEvent(tick=29, channel=0, data=[64, 88]),
   midi.NoteOnEvent(tick=4, channel=0, data=[80, 78]),
   midi.NoteOnEvent(tick=1, channel=0, data=[63, 38]),
   midi.ControlChangeEvent(tick=0, channel=0, data=[64, 0]),
   midi.NoteOnEvent(tick=3, channel=0, data=[72, 51]),
   midi.NoteOnEvent(tick=2, channel=0, data=[68, 35]),
   midi.ControlChangeEvent(tick=11, channel=0, data=[64, 40]),
   midi.ControlChangeEvent(tick=4, channel=0, data=[64, 104]),
   midi.ControlChangeEvent(tick=4, channel=0, data=[64, 127]),
   midi.NoteOnEvent(tick=3, channel=0, data=[72, 0]),
   midi.NoteOnEvent(tick=3, channel=0, data=[63, 0]),
   midi.NoteOnEvent(tick=4, channel=0, data=[68, 0]),
   midi.NoteOnEvent(tick=10, channel=0, data=[80, 0]),
   midi.NoteOnEvent(tick=5, channel=0, data=[84, 84]),
   midi.NoteOnEvent(tick=51, channel=0, data=[68, 42]),
   midi.NoteOnEvent(tick=3, channel=0, data=[63, 38]),
   midi.NoteOnEvent(tick=16, channel=0, data=[63, 0]),
   midi.NoteOnEvent(tick=0, channel=0, data=[68, 0]),
   midi.NoteOnEvent(tick=20, channel=0, data=[84, 0]),
   midi.NoteOnEvent(tick=7, channel=0, data=[89, 88]),
   midi.NoteOnEvent(tick=41, channel=0, data=[89, 0]),
   midi.ControlChangeEvent(tick=7, channel=0, data=[64, 24]),
   midi.NoteOnEvent(tick=4, channel=0, data=[87, 76]),
   midi.ControlChangeEvent(tick=0, channel=0, data=[64, 0]),
   midi.NoteOnEvent(tick=4, channel=0, data=[73, 42]),
   midi.NoteOnEvent(tick=0, channel=0, data=[63, 29]),
   midi.NoteOnEvent(tick=2, channel=0, data=[67, 35]),
   midi.NoteOnEvent(tick=12, channel=0, data=[67, 0]),
   midi.ControlChangeEvent(tick=2, channel=0, data=[64, 72]),
   midi.ControlChangeEvent(tick=4, channel=0, data=[64, 127]),
   midi.NoteOnEvent(tick=1, channel=0, data=[63, 0]),
   midi.NoteOnEvent(tick=3, channel=0, data=[73, 0]),
   midi.NoteOnEvent(tick=13, channel=0, data=[87, 0]),
   midi.NoteOnEvent(tick=8, channel=0, data=[82, 75]),
   midi.NoteOnEvent(tick=34, channel=0, data=[82, 0]),
   midi.NoteOnEvent(tick=16, channel=0, data=[83, 80]),
   midi.NoteOnEvent(tick=2, channel=0, data=[63, 30]),
   midi.NoteOnEvent(tick=0, channel=0, data=[73, 41]),
   midi.NoteOnEvent(tick=14, channel=0, data=[63, 0]),
   midi.NoteOnEvent(tick=2, channel=0, data=[73, 0]),
   midi.NoteOnEvent(tick=23, channel=0, data=[83, 0]),
   midi.NoteOnEvent(tick=11, channel=0, data=[84, 80]),
   midi.ControlChangeEvent(tick=10, channel=0, data=[64, 56]),
   midi.ControlChangeEvent(tick=4, channel=0, data=[64, 0]),
   midi.ControlChangeEvent(tick=24, channel=0, data=[64, 72]),
   midi.NoteOnEvent(tick=4, channel=0, data=[84, 0]),
   midi.ControlChangeEvent(tick=0, channel=0, data=[64, 127]),
   midi.NoteOnEvent(tick=3, channel=0, data=[63, 38]),
   midi.NoteOnEvent(tick=4, channel=0, data=[72, 43]),
   midi.NoteOnEvent(tick=3, channel=0, data=[68, 40]),
   midi.NoteOnEvent(tick=12, channel=0, data=[68, 0]),
   midi.NoteOnEvent(tick=3, channel=0, data=[63, 0]),
   midi.NoteOnEvent(tick=1, channel=0, data=[72, 0]),
   midi.NoteOnEvent(tick=25, channel=0, data=[74, 68]),
   midi.NoteOnEvent(tick=32, channel=0, data=[74, 0]),
   midi.ControlChangeEvent(tick=1, channel=0, data=[64, 88]),
   midi.ControlChangeEvent(tick=4, channel=0, data=[64, 24]),
   midi.ControlChangeEvent(tick=5, channel=0, data=[64, 0]),
   midi.NoteOnEvent(tick=9, channel=0, data=[75, 72]),
   midi.NoteOnEvent(tick=0, channel=0, data=[63, 45]),
   midi.NoteOnEvent(tick=2, channel=0, data=[72, 46]),
   midi.ControlChangeEvent(tick=1, channel=0, data=[64, 72]),
   midi.NoteOnEvent(tick=1, channel=0, data=[68, 33]),
   midi.ControlChangeEvent(tick=3, channel=0, data=[64, 127]),
   midi.NoteOnEvent(tick=4, channel=0, data=[72, 0]),
   midi.NoteOnEvent(tick=2, channel=0, data=[68, 0]),
   midi.NoteOnEvent(tick=0, channel=0, data=[63, 0]),
   midi.NoteOnEvent(tick=13, channel=0, data=[75, 0]),
   midi.NoteOnEvent(tick=30, channel=0, data=[77, 77]),
   midi.NoteOnEvent(tick=0, channel=0, data=[65, 60]),
   midi.ControlChangeEvent(tick=28, channel=0, data=[64, 0]),
   midi.NoteOnEvent(tick=22, channel=0, data=[59, 40]),
   midi.NoteOnEvent(tick=2, channel=0, data=[53, 35]),
   midi.ControlChangeEvent(tick=0, channel=0, data=[64, 72]),
   midi.NoteOnEvent(tick=2, channel=0, data=[50, 34]),
   midi.NoteOnEvent(tick=1, channel=0, data=[56, 36]),
   midi.ControlChangeEvent(tick=1, channel=0, data=[64, 127]),
   midi.NoteOnEvent(tick=2, channel=0, data=[65, 0]),
   midi.NoteOnEvent(tick=6, channel=0, data=[59, 0]),
   midi.NoteOnEvent(tick=0, channel=0, data=[50, 0]),
   midi.NoteOnEvent(tick=0, channel=0, data=[56, 0]),
   midi.NoteOnEvent(tick=4, channel=0, data=[53, 0]),
   midi.NoteOnEvent(tick=44, channel=0, data=[77, 0]),
   midi.NoteOnEvent(tick=34, channel=0, data=[79, 79]),
   midi.NoteOnEvent(tick=2, channel=0, data=[67, 66]),
   midi.NoteOnEvent(tick=2, channel=0, data=[50, 32]),
   midi.NoteOnEvent(tick=0, channel=0, data=[59, 30]),
   midi.NoteOnEvent(tick=3, channel=0, data=[53, 26]),
   midi.NoteOnEvent(tick=4, channel=0, data=[56, 35]),
   midi.NoteOnEvent(tick=6, channel=0, data=[50, 0]),
   midi.NoteOnEvent(tick=3, channel=0, data=[67, 0]),
   midi.NoteOnEvent(tick=0, channel=0, data=[59, 0]),
   midi.NoteOnEvent(tick=0, channel=0, data=[79, 0]),
   midi.NoteOnEvent(tick=0, channel=0, data=[56, 0]),
   midi.NoteOnEvent(tick=0, channel=0, data=[53, 0]),
   midi.NoteOnEvent(tick=33, channel=0, data=[77, 84]),
   midi.NoteOnEvent(tick=1, channel=0, data=[65, 63]),
   midi.ControlChangeEvent(tick=22, channel=0, data=[64, 56]),
   midi.ControlChangeEvent(tick=4, channel=0, data=[64, 0]),
   midi.NoteOnEvent(tick=14, channel=0, data=[65, 0]),
   midi.ControlChangeEvent(tick=2, channel=0, data=[64, 72]),
   midi.ControlChangeEvent(tick=4, channel=0, data=[64, 127]),
   midi.NoteOnEvent(tick=1, channel=0, data=[59, 37]),
   midi.NoteOnEvent(tick=0, channel=0, data=[50, 38]),
   midi.NoteOnEvent(tick=5, channel=0, data=[53, 34]),
   midi.NoteOnEvent(tick=0, channel=0, data=[56, 28]),
   midi.NoteOnEvent(tick=6, channel=0, data=[77, 0]),
   midi.NoteOnEvent(tick=7, channel=0, data=[53, 0]),
   midi.NoteOnEvent(tick=1, channel=0, data=[50, 0]),
   midi.NoteOnEvent(tick=4, channel=0, data=[59, 0]),
   midi.NoteOnEvent(tick=1, channel=0, data=[56, 0]),
   midi.NoteOnEvent(tick=23, channel=0, data=[79, 86]),
   midi.NoteOnEvent(tick=2, channel=0, data=[67, 67]),
   midi.NoteOnEvent(tick=16, channel=0, data=[67, 0]),
   midi.NoteOnEvent(tick=0, channel=0, data=[79, 0]),
   midi.NoteOnEvent(tick=32, channel=0, data=[53, 36]),
   midi.NoteOnEvent(tick=3, channel=0, data=[77, 86]),
   midi.NoteOnEvent(tick=1, channel=0, data=[59, 35]),
   midi.NoteOnEvent(tick=1, channel=0, data=[65, 69]),
   midi.NoteOnEvent(tick=8, channel=0, data=[53, 0]),
   midi.NoteOnEvent(tick=4, channel=0, data=[59, 0]),
   midi.NoteOnEvent(tick=2, channel=0, data=[65, 0]),
   midi.NoteOnEvent(tick=1, channel=0, data=[77, 0]),
   midi.ControlChangeEvent(tick=19, channel=0, data=[64, 104]),
   midi.ControlChangeEvent(tick=4, channel=0, data=[64, 24]),
   midi.ControlChangeEvent(tick=4, channel=0, data=[64, 0]),
   midi.NoteOnEvent(tick=5, channel=0, data=[77, 84]),
   midi.NoteOnEvent(tick=4, channel=0, data=[65, 54]),
   midi.NoteOnEvent(tick=42, channel=0, data=[65, 0]),
   midi.ControlChangeEvent(tick=5, channel=0, data=[64, 56]),
   midi.NoteOnEvent(tick=2, channel=0, data=[51, 46]),
   midi.NoteOnEvent(tick=0, channel=0, data=[60, 46]),
   midi.NoteOnEvent(tick=1, channel=0, data=[56, 36]),
   midi.ControlChangeEvent(tick=2, channel=0, data=[64, 127]),
   midi.NoteOnEvent(tick=18, channel=0, data=[60, 0]),
   midi.NoteOnEvent(tick=2, channel=0, data=[51, 0]),
   midi.NoteOnEvent(tick=2, channel=0, data=[56, 0]),
   midi.NoteOnEvent(tick=5, channel=0, data=[77, 0]),
   midi.NoteOnEvent(tick=16, channel=0, data=[75, 79]),
   midi.NoteOnEvent(tick=35, channel=0, data=[75, 0]),
   midi.NoteOnEvent(tick=14, channel=0, data=[72, 77]),
   midi.NoteOnEvent(tick=2, channel=0, data=[51, 42]),
   midi.NoteOnEvent(tick=1, channel=0, data=[56, 33]),
   midi.NoteOnEvent(tick=1, channel=0, data=[60, 36]),
   midi.NoteOnEvent(tick=13, channel=0, data=[60, 0]),
   midi.NoteOnEvent(tick=4, channel=0, data=[51, 0]),
   midi.NoteOnEvent(tick=1, channel=0, data=[56, 0]),
   midi.NoteOnEvent(tick=13, channel=0, data=[72, 0]),
   midi.NoteOnEvent(tick=15, channel=0, data=[70, 71]),
   midi.ControlChangeEvent(tick=35, channel=0, data=[64, 104]),
   midi.ControlChangeEvent(tick=4, channel=0, data=[64, 0]),
   midi.NoteOnEvent(tick=8, channel=0, data=[70, 0]),
   midi.NoteOnEvent(tick=3, channel=0, data=[68, 71]),
   midi.NoteOnEvent(tick=2, channel=0, data=[60, 46]),
   midi.NoteOnEvent(tick=2, channel=0, data=[56, 35]),
   midi.NoteOnEvent(tick=0, channel=0, data=[54, 44]),
   midi.ControlChangeEvent(tick=21, channel=0, data=[64, 127]),
   midi.NoteOnEvent(tick=1, channel=0, data=[60, 0]),
   midi.NoteOnEvent(tick=2, channel=0, data=[54, 0]),
   midi.NoteOnEvent(tick=0, channel=0, data=[56, 0]),
   midi.NoteOnEvent(tick=25, channel=0, data=[75, 79]),
   midi.NoteOnEvent(tick=9, channel=0, data=[68, 0]),
   midi.NoteOnEvent(tick=42, channel=0, data=[60, 47]),
   midi.NoteOnEvent(tick=1, channel=0, data=[54, 40]),
   midi.NoteOnEvent(tick=4, channel=0, data=[56, 38]),
   midi.NoteOnEvent(tick=10, channel=0, data=[56, 0]),
   midi.NoteOnEvent(tick=3, channel=0, data=[54, 0]),
   midi.NoteOnEvent(tick=6, channel=0, data=[60, 0]),
   midi.NoteOnEvent(tick=16, channel=0, data=[75, 0]),
   midi.NoteOnEvent(tick=9, channel=0, data=[73, 75]),
   midi.ControlChangeEvent(tick=29, channel=0, data=[64, 0]),
   midi.NoteOnEvent(tick=22, channel=0, data=[61, 43]),
   midi.NoteOnEvent(tick=0, channel=0, data=[56, 38]),
   midi.NoteOnEvent(tick=2, channel=0, data=[53, 43]),
   midi.ControlChangeEvent(tick=9, channel=0, data=[64, 88]),
   midi.NoteOnEvent(tick=2, channel=0, data=[53, 0]),
   midi.ControlChangeEvent(tick=2, channel=0, data=[64, 127]),
   midi.NoteOnEvent(tick=5, channel=0, data=[56, 0]),
   midi.NoteOnEvent(tick=1, channel=0, data=[61, 0]),
   midi.NoteOnEvent(tick=18, channel=0, data=[73, 0]),
   midi.NoteOnEvent(tick=1, channel=0, data=[70, 78]),
   midi.ControlChangeEvent(tick=39, channel=0, data=[64, 104]),
   midi.ControlChangeEvent(tick=4, channel=0, data=[64, 24]),
   midi.ControlChangeEvent(tick=4, channel=0, data=[64, 0]),
   midi.NoteOnEvent(tick=5, channel=0, data=[61, 41]),
   midi.NoteOnEvent(tick=2, channel=0, data=[82, 87]),
   midi.NoteOnEvent(tick=2, channel=0, data=[52, 38]),
   midi.NoteOnEvent(tick=3, channel=0, data=[56, 38]),
   midi.ControlChangeEvent(tick=1, channel=0, data=[64, 72]),
   midi.ControlChangeEvent(tick=4, channel=0, data=[64, 127]),
   midi.NoteOnEvent(tick=2, channel=0, data=[70, 0]),
   midi.NoteOnEvent(tick=2, channel=0, data=[52, 0]),
   midi.NoteOnEvent(tick=1, channel=0, data=[56, 0]),
   midi.NoteOnEvent(tick=5, channel=0, data=[61, 0]),
   midi.NoteOnEvent(tick=11, channel=0, data=[82, 0]),
   midi.NoteOnEvent(tick=16, channel=0, data=[80, 88]),
   midi.NoteOnEvent(tick=21, channel=0, data=[80, 0]),
   midi.ControlChangeEvent(tick=21, channel=0, data=[64, 40]),
   midi.ControlChangeEvent(tick=4, channel=0, data=[64, 0]),
   midi.NoteOnEvent(tick=4, channel=0, data=[56, 32]),
   midi.NoteOnEvent(tick=1, channel=0, data=[72, 87]),
   midi.NoteOnEvent(tick=1, channel=0, data=[60, 43]),
   midi.NoteOnEvent(tick=1, channel=0, data=[51, 38]),
   midi.ControlChangeEvent(tick=18, channel=0, data=[64, 72]),
   midi.ControlChangeEvent(tick=4, channel=0, data=[64, 127]),
   midi.NoteOnEvent(tick=2, channel=0, data=[60, 0]),
   midi.NoteOnEvent(tick=2, channel=0, data=[56, 0]),
   midi.NoteOnEvent(tick=4, channel=0, data=[72, 0]),
   midi.NoteOnEvent(tick=0, channel=0, data=[51, 0]),
   midi.NoteOnEvent(tick=19, channel=0, data=[77, 84]),
   midi.NoteOnEvent(tick=5, channel=0, data=[68, 47]),
   midi.ControlChangeEvent(tick=25, channel=0, data=[64, 24]),
   midi.ControlChangeEvent(tick=3, channel=0, data=[64, 0]),
   midi.ControlChangeEvent(tick=17, channel=0, data=[64, 40]),
   midi.NoteOnEvent(tick=2, channel=0, data=[56, 40]),
   midi.NoteOnEvent(tick=2, channel=0, data=[60, 44]),
   midi.NoteOnEvent(tick=0, channel=0, data=[51, 37]),
   midi.ControlChangeEvent(tick=1, channel=0, data=[64, 127]),
   midi.NoteOnEvent(tick=8, channel=0, data=[60, 0]),
   midi.NoteOnEvent(tick=1, channel=0, data=[56, 0]),
   midi.NoteOnEvent(tick=6, channel=0, data=[51, 0]),
   midi.NoteOnEvent(tick=2, channel=0, data=[77, 0]),
   midi.NoteOnEvent(tick=25, channel=0, data=[68, 0]),
   midi.NoteOnEvent(tick=0, channel=0, data=[75, 80]),
   midi.NoteOnEvent(tick=19, channel=0, data=[75, 0]),
   midi.ControlChangeEvent(tick=18, channel=0, data=[64, 88]),
   midi.ControlChangeEvent(tick=5, channel=0, data=[64, 0]),
   midi.NoteOnEvent(tick=9, channel=0, data=[68, 66]),
   midi.NoteOnEvent(tick=1, channel=0, data=[62, 57]),
   midi.NoteOnEvent(tick=2, channel=0, data=[53, 55]),
   midi.NoteOnEvent(tick=3, channel=0, data=[41, 43]),
   midi.ControlChangeEvent(tick=1, channel=0, data=[64, 40]),
   midi.ControlChangeEvent(tick=4, channel=0, data=[64, 104]),
   midi.NoteOnEvent(tick=4, channel=0, data=[53, 0]),
   midi.ControlChangeEvent(tick=0, channel=0, data=[64, 127]),
   midi.NoteOnEvent(tick=2, channel=0, data=[41, 0]),
   midi.NoteOnEvent(tick=8, channel=0, data=[68, 0]),
   midi.NoteOnEvent(tick=11, channel=0, data=[62, 0]),
   midi.NoteOnEvent(tick=12, channel=0, data=[70, 73]),
   midi.NoteOnEvent(tick=23, channel=0, data=[70, 0]),
   midi.ControlChangeEvent(tick=12, channel=0, data=[64, 40]),
   midi.ControlChangeEvent(tick=5, channel=0, data=[64, 0]),
   midi.NoteOnEvent(tick=10, channel=0, data=[51, 56]),
   midi.NoteOnEvent(tick=3, channel=0, data=[70, 61]),
   midi.NoteOnEvent(tick=0, channel=0, data=[39, 45]),
   midi.NoteOnEvent(tick=1, channel=0, data=[61, 45]),
   midi.NoteOnEvent(tick=4, channel=0, data=[63, 44]),
   midi.NoteOnEvent(tick=1, channel=0, data=[67, 48]),
   midi.ControlChangeEvent(tick=5, channel=0, data=[64, 104]),
   midi.ControlChangeEvent(tick=4, channel=0, data=[64, 127]),
   midi.NoteOnEvent(tick=2, channel=0, data=[51, 0]),
   midi.NoteOnEvent(tick=1, channel=0, data=[39, 0]),
   midi.NoteOnEvent(tick=4, channel=0, data=[67, 0]),
   midi.NoteOnEvent(tick=1, channel=0, data=[63, 0]),
   midi.NoteOnEvent(tick=2, channel=0, data=[61, 0]),
   midi.NoteOnEvent(tick=15, channel=0, data=[70, 0]),
   midi.ControlChangeEvent(tick=31, channel=0, data=[64, 104]),
   midi.ControlChangeEvent(tick=4, channel=0, data=[64, 56]),
   midi.ControlChangeEvent(tick=4, channel=0, data=[64, 0]),
   midi.NoteOnEvent(tick=23, channel=0, data=[56, 45]),
   midi.NoteOnEvent(tick=1, channel=0, data=[68, 63]),
   midi.NoteOnEvent(tick=5, channel=0, data=[44, 39]),
   midi.NoteOnEvent(tick=2, channel=0, data=[60, 50]),
   midi.NoteOnEvent(tick=0, channel=0, data=[63, 40]),
   midi.NoteOnEvent(tick=10, channel=0, data=[56, 0]),
   midi.ControlChangeEvent(tick=0, channel=0, data=[64, 88]),
   midi.ControlChangeEvent(tick=3, channel=0, data=[64, 127]),
   midi.NoteOnEvent(tick=1, channel=0, data=[44, 0]),
   midi.NoteOnEvent(tick=18, channel=0, data=[60, 0]),
   midi.NoteOnEvent(tick=6, channel=0, data=[63, 0]),
   midi.NoteOnEvent(tick=13, channel=0, data=[68, 0]),
   midi.NoteOnEvent(tick=43, channel=0, data=[51, 50]),
   midi.NoteOnEvent(tick=2, channel=0, data=[39, 36]),
   midi.NoteOnEvent(tick=19, channel=0, data=[51, 0]),
   midi.NoteOnEvent(tick=1, channel=0, data=[39, 0]),
   midi.ControlChangeEvent(tick=55, channel=0, data=[64, 72]),
   midi.ControlChangeEvent(tick=4, channel=0, data=[64, 0]),
   midi.NoteOnEvent(tick=21, channel=0, data=[56, 59]),
   midi.NoteOnEvent(tick=0, channel=0, data=[44, 54]),
   midi.ControlChangeEvent(tick=11, channel=0, data=[64, 88]),
   midi.ControlChangeEvent(tick=4, channel=0, data=[64, 127]),
   midi.NoteOnEvent(tick=3, channel=0, data=[44, 0]),
   midi.NoteOnEvent(tick=2, channel=0, data=[56, 0]),
   midi.NoteOnEvent(tick=37, channel=0, data=[84, 76]),
   midi.NoteOnEvent(tick=31, channel=0, data=[84, 0]),
   midi.NoteOnEvent(tick=15, channel=0, data=[80, 74]),
   midi.NoteOnEvent(tick=1, channel=0, data=[56, 39]),
   midi.NoteOnEvent(tick=2, channel=0, data=[60, 44]),
   midi.NoteOnEvent(tick=1, channel=0, data=[51, 38]),
   midi.NoteOnEvent(tick=7, channel=0, data=[60, 0]),
   midi.NoteOnEvent(tick=2, channel=0, data=[56, 0]),
   midi.NoteOnEvent(tick=5, channel=0, data=[51, 0]),
   midi.NoteOnEvent(tick=16, channel=0, data=[80, 0]),
   midi.NoteOnEvent(tick=15, channel=0, data=[77, 79]),
   midi.ControlChangeEvent(tick=33, channel=0, data=[64, 72]),
   midi.NoteOnEvent(tick=3, channel=0, data=[77, 0]),
   midi.ControlChangeEvent(tick=1, channel=0, data=[64, 0]),
   midi.NoteOnEvent(tick=14, channel=0, data=[74, 71]),
   midi.NoteOnEvent(tick=0, channel=0, data=[39, 47]),
   midi.NoteOnEvent(tick=1, channel=0, data=[51, 47]),
   midi.NoteOnEvent(tick=8, channel=0, data=[39, 0]),
   midi.ControlChangeEvent(tick=1, channel=0, data=[64, 56]),
   midi.ControlChangeEvent(tick=4, channel=0, data=[64, 127]),
   midi.NoteOnEvent(tick=1, channel=0, data=[51, 0]),
   midi.NoteOnEvent(tick=15, channel=0, data=[74, 0]),
   midi.NoteOnEvent(tick=20, channel=0, data=[75, 74]),
   midi.NoteOnEvent(tick=33, channel=0, data=[75, 0]),
   midi.ControlChangeEvent(tick=12, channel=0, data=[64, 56]),
   midi.NoteOnEvent(tick=4, channel=0, data=[68, 64]),
   midi.ControlChangeEvent(tick=0, channel=0, data=[64, 40]),
   midi.NoteOnEvent(tick=3, channel=0, data=[60, 48]),
   midi.NoteOnEvent(tick=0, channel=0, data=[51, 48]),
   midi.ControlChangeEvent(tick=1, channel=0, data=[64, 56]),
   midi.NoteOnEvent(tick=1, channel=0, data=[56, 36]),
   midi.ControlChangeEvent(tick=2, channel=0, data=[64, 104]),
   midi.NoteOnEvent(tick=5, channel=0, data=[60, 0]),
   midi.ControlChangeEvent(tick=0, channel=0, data=[64, 127]),
   midi.NoteOnEvent(tick=1, channel=0, data=[56, 0]),
   midi.NoteOnEvent(tick=3, channel=0, data=[51, 0]),
   midi.NoteOnEvent(tick=12, channel=0, data=[68, 0]),
   midi.NoteOnEvent(tick=20, channel=0, data=[70, 71]),
   midi.NoteOnEvent(tick=21, channel=0, data=[70, 0]),
   midi.ControlChangeEvent(tick=11, channel=0, data=[64, 72]),
   midi.ControlChangeEvent(tick=4, channel=0, data=[64, 0]),
   midi.NoteOnEvent(tick=18, channel=0, data=[71, 67]),
   midi.NoteOnEvent(tick=2, channel=0, data=[41, 44]),
   midi.NoteOnEvent(tick=0, channel=0, data=[53, 46]),
   midi.NoteOnEvent(tick=2, channel=0, data=[62, 58]),
   midi.ControlChangeEvent(tick=7, channel=0, data=[64, 127]),
   midi.NoteOnEvent(tick=3, channel=0, data=[53, 0]),
   midi.NoteOnEvent(tick=4, channel=0, data=[41, 0]),
   midi.NoteOnEvent(tick=19, channel=0, data=[71, 0]),
   midi.NoteOnEvent(tick=15, channel=0, data=[67, 71]),
   midi.NoteOnEvent(tick=17, channel=0, data=[62, 0]),
   midi.ControlChangeEvent(tick=14, channel=0, data=[64, 88]),
   midi.ControlChangeEvent(tick=4, channel=0, data=[64, 24]),
   midi.ControlChangeEvent(tick=4, channel=0, data=[64, 0]),
   midi.NoteOnEvent(tick=3, channel=0, data=[67, 0]),
   midi.ControlChangeEvent(tick=2, channel=0, data=[64, 24]),
   midi.NoteOnEvent(tick=3, channel=0, data=[68, 66]),
   midi.ControlChangeEvent(tick=1, channel=0, data=[64, 72]),
   midi.ControlChangeEvent(tick=4, channel=0, data=[64, 127]),
   midi.NoteOnEvent(tick=2, channel=0, data=[52, 41]),
   midi.NoteOnEvent(tick=0, channel=0, data=[40, 37]),
   midi.NoteOnEvent(tick=11, channel=0, data=[40, 0]),
   midi.NoteOnEvent(tick=0, channel=0, data=[52, 0]),
   midi.NoteOnEvent(tick=17, channel=0, data=[68, 0]),
   midi.ControlChangeEvent(tick=22, channel=0, data=[64, 40]),
   midi.NoteOnEvent(tick=1, channel=0, data=[70, 64]),
   midi.NoteOnEvent(tick=1, channel=0, data=[67, 63]),
   midi.NoteOnEvent(tick=0, channel=0, data=[61, 40]),
   midi.ControlChangeEvent(tick=2, channel=0, data=[64, 0]),
   midi.NoteOnEvent(tick=40, channel=0, data=[61, 0]),
   midi.ControlChangeEvent(tick=0, channel=0, data=[64, 127]),
   midi.NoteOnEvent(tick=4, channel=0, data=[67, 0]),
   midi.NoteOnEvent(tick=2, channel=0, data=[51, 37]),
   midi.NoteOnEvent(tick=0, channel=0, data=[39, 33]),
   midi.NoteOnEvent(tick=10, channel=0, data=[70, 0]),
   midi.NoteOnEvent(tick=4, channel=0, data=[39, 0]),
   midi.NoteOnEvent(tick=6, channel=0, data=[51, 0]),
   midi.NoteOnEvent(tick=30, channel=0, data=[75, 79]),
   midi.NoteOnEvent(tick=51, channel=0, data=[87, 84]),
   midi.NoteOnEvent(tick=4, channel=0, data=[61, 38]),
   midi.NoteOnEvent(tick=5, channel=0, data=[55, 35]),
   midi.NoteOnEvent(tick=3, channel=0, data=[51, 33]),
   midi.NoteOnEvent(tick=2, channel=0, data=[61, 0]),
   midi.NoteOnEvent(tick=2, channel=0, data=[55, 0]),
   midi.NoteOnEvent(tick=4, channel=0, data=[75, 0]),
   midi.NoteOnEvent(tick=2, channel=0, data=[51, 0]),
   midi.NoteOnEvent(tick=13, channel=0, data=[87, 0]),
   midi.NoteOnEvent(tick=14, channel=0, data=[85, 75]),
   midi.NoteOnEvent(tick=23, channel=0, data=[85, 0]),
   midi.ControlChangeEvent(tick=7, channel=0, data=[64, 56]),
   midi.ControlChangeEvent(tick=4, channel=0, data=[64, 0]),
   midi.NoteOnEvent(tick=16, channel=0, data=[56, 52]),
   midi.NoteOnEvent(tick=0, channel=0, data=[44, 56]),
   midi.NoteOnEvent(tick=19, channel=0, data=[44, 0]),
   midi.ControlChangeEvent(tick=0, channel=0, data=[64, 127]),
   midi.NoteOnEvent(tick=2, channel=0, data=[56, 0]),
   midi.NoteOnEvent(tick=26, channel=0, data=[84, 78]),
   midi.NoteOnEvent(tick=31, channel=0, data=[84, 0]),
   midi.NoteOnEvent(tick=17, channel=0, data=[80, 72]),
   midi.NoteOnEvent(tick=1, channel=0, data=[60, 58]),
   midi.NoteOnEvent(tick=5, channel=0, data=[56, 30]),
   midi.NoteOnEvent(tick=0, channel=0, data=[51, 36]),
   midi.NoteOnEvent(tick=4, channel=0, data=[60, 0]),
   midi.NoteOnEvent(tick=4, channel=0, data=[56, 0]),
   midi.NoteOnEvent(tick=2, channel=0, data=[51, 0]),
   midi.NoteOnEvent(tick=17, channel=0, data=[80, 0]),
   midi.NoteOnEvent(tick=16, channel=0, data=[77, 74]),
   midi.ControlChangeEvent(tick=25, channel=0, data=[64, 104]),
   midi.ControlChangeEvent(tick=5, channel=0, data=[64, 0]),
   midi.NoteOnEvent(tick=8, channel=0, data=[77, 0]),
   midi.NoteOnEvent(tick=12, channel=0, data=[39, 48]),
   midi.NoteOnEvent(tick=0, channel=0, data=[51, 53]),
   midi.NoteOnEvent(tick=1, channel=0, data=[74, 67]),
   midi.ControlChangeEvent(tick=11, channel=0, data=[64, 88]),
   midi.NoteOnEvent(tick=1, channel=0, data=[39, 0]),
   midi.ControlChangeEvent(tick=3, channel=0, data=[64, 127]),
   midi.NoteOnEvent(tick=1, channel=0, data=[51, 0]),
   midi.NoteOnEvent(tick=14, channel=0, data=[74, 0]),
   midi.NoteOnEvent(tick=17, channel=0, data=[75, 76]),
   midi.NoteOnEvent(tick=29, channel=0, data=[75, 0]),
   midi.NoteOnEvent(tick=20, channel=0, data=[68, 65]),
   midi.NoteOnEvent(tick=0, channel=0, data=[60, 54]),
   midi.NoteOnEvent(tick=2, channel=0, data=[56, 36]),
   midi.NoteOnEvent(tick=1, channel=0, data=[51, 42]),
   midi.NoteOnEvent(tick=6, channel=0, data=[60, 0]),
   midi.NoteOnEvent(tick=2, channel=0, data=[56, 0]),
   midi.NoteOnEvent(tick=6, channel=0, data=[51, 0]),
   midi.NoteOnEvent(tick=12, channel=0, data=[68, 0]),
   midi.NoteOnEvent(tick=21, channel=0, data=[70, 74]),
   midi.NoteOnEvent(tick=25, channel=0, data=[70, 0]),
   midi.ControlChangeEvent(tick=9, channel=0, data=[64, 40]),
   midi.ControlChangeEvent(tick=4, channel=0, data=[64, 0]),
   midi.NoteOnEvent(tick=12, channel=0, data=[71, 73]),
   midi.NoteOnEvent(tick=4, channel=0, data=[53, 58]),
   midi.NoteOnEvent(tick=0, channel=0, data=[62, 56]),
   midi.NoteOnEvent(tick=1, channel=0, data=[41, 46]),
   midi.NoteOnEvent(tick=15, channel=0, data=[53, 0]),
   midi.ControlChangeEvent(tick=1, channel=0, data=[64, 127]),
   midi.NoteOnEvent(tick=1, channel=0, data=[41, 0]),
   midi.NoteOnEvent(tick=15, channel=0, data=[71, 0]),
   midi.NoteOnEvent(tick=12, channel=0, data=[67, 72]),
   midi.NoteOnEvent(tick=13, channel=0, data=[62, 0]),
   midi.NoteOnEvent(tick=26, channel=0, data=[67, 0]),
   midi.NoteOnEvent(tick=11, channel=0, data=[68, 60]),
   midi.NoteOnEvent(tick=2, channel=0, data=[52, 53]),
   midi.NoteOnEvent(tick=5, channel=0, data=[40, 36]),
   midi.NoteOnEvent(tick=7, channel=0, data=[52, 0]),
   midi.NoteOnEvent(tick=4, channel=0, data=[40, 0]),
   midi.NoteOnEvent(tick=13, channel=0, data=[68, 0]),
   midi.NoteOnEvent(tick=22, channel=0, data=[70, 67]),
   midi.NoteOnEvent(tick=3, channel=0, data=[61, 39]),
   midi.NoteOnEvent(tick=2, channel=0, data=[67, 47]),
   midi.ControlChangeEvent(tick=4, channel=0, data=[64, 72]),
   midi.ControlChangeEvent(tick=4, channel=0, data=[64, 40]),
   midi.ControlChangeEvent(tick=5, channel=0, data=[64, 0]),
   midi.NoteOnEvent(tick=33, channel=0, data=[39, 49]),
   midi.NoteOnEvent(tick=2, channel=0, data=[51, 48]),
   midi.ControlChangeEvent(tick=5, channel=0, data=[64, 104]),
   midi.ControlChangeEvent(tick=4, channel=0, data=[64, 127]),
   midi.NoteOnEvent(tick=1, channel=0, data=[70, 0]),
   midi.NoteOnEvent(tick=4, channel=0, data=[67, 0]),
   midi.NoteOnEvent(tick=4, channel=0, data=[51, 0]),
   midi.NoteOnEvent(tick=1, channel=0, data=[39, 0]),
   midi.NoteOnEvent(tick=1, channel=0, data=[61, 0]),
   midi.ControlChangeEvent(tick=66, channel=0, data=[64, 72]),
   midi.ControlChangeEvent(tick=4, channel=0, data=[64, 0]),
   midi.NoteOnEvent(tick=6, channel=0, data=[58, 60]),
   midi.NoteOnEvent(tick=3, channel=0, data=[46, 51]),
   midi.ControlChangeEvent(tick=10, channel=0, data=[64, 24]),
   midi.ControlChangeEvent(tick=5, channel=0, data=[64, 88]),
   midi.ControlChangeEvent(tick=4, channel=0, data=[64, 127]),
   midi.NoteOnEvent(tick=5, channel=0, data=[46, 0]),
   midi.NoteOnEvent(tick=8, channel=0, data=[58, 0]),
   midi.ControlChangeEvent(tick=11, channel=0, data=[64, 104]),
   midi.NoteOnEvent(tick=0, channel=0, data=[60, 68]),
   midi.ControlChangeEvent(tick=4, channel=0, data=[64, 72]),
   midi.ControlChangeEvent(tick=4, channel=0, data=[64, 24]),
   midi.ControlChangeEvent(tick=3, channel=0, data=[64, 0]),
   midi.NoteOnEvent(tick=3, channel=0, data=[48, 34]),
   midi.NoteOnEvent(tick=10, channel=0, data=[48, 0]),
   midi.NoteOnEvent(tick=5, channel=0, data=[60, 0]),
   midi.NoteOnEvent(tick=29, channel=0, data=[53, 73]),
   midi.NoteOnEvent(tick=9, channel=0, data=[41, 45]),
   midi.ControlChangeEvent(tick=2, channel=0, data=[64, 56]),
   midi.ControlChangeEvent(tick=4, channel=0, data=[64, 127]),
   midi.NoteOnEvent(tick=3, channel=0, data=[53, 0]),
   midi.NoteOnEvent(tick=1, channel=0, data=[41, 0]),
   midi.ControlChangeEvent(tick=84, channel=0, data=[64, 104]),
   midi.NoteOnEvent(tick=2, channel=0, data=[73, 67]),
   midi.ControlChangeEvent(tick=2, channel=0, data=[64, 56]),
   midi.NoteOnEvent(tick=3, channel=0, data=[70, 55]),
   midi.NoteOnEvent(tick=0, channel=0, data=[65, 49]),
   midi.ControlChangeEvent(tick=2, channel=0, data=[64, 24]),
   midi.NoteOnEvent(tick=0, channel=0, data=[67, 53]),
   midi.ControlChangeEvent(tick=8, channel=0, data=[64, 72]),
   midi.ControlChangeEvent(tick=4, channel=0, data=[64, 127]),
   midi.NoteOnEvent(tick=44, channel=0, data=[73, 0]),
   midi.NoteOnEvent(tick=18, channel=0, data=[65, 0]),
   midi.ControlChangeEvent(tick=22, channel=0, data=[64, 88]),
   midi.ControlChangeEvent(tick=4, channel=0, data=[64, 0]),
   midi.NoteOnEvent(tick=3, channel=0, data=[72, 66]),
   midi.NoteOnEvent(tick=2, channel=0, data=[64, 43]),
   midi.NoteOnEvent(tick=12, channel=0, data=[64, 0]),
   midi.NoteOnEvent(tick=9, channel=0, data=[72, 0]),
   midi.NoteOnEvent(tick=2, channel=0, data=[70, 0]),
   midi.ControlChangeEvent(tick=0, channel=0, data=[64, 104]),
   midi.NoteOnEvent(tick=2, channel=0, data=[67, 0]),
   midi.ControlChangeEvent(tick=2, channel=0, data=[64, 127]),
   midi.ControlChangeEvent(tick=65, channel=0, data=[64, 88]),
   midi.ControlChangeEvent(tick=4, channel=0, data=[64, 24]),
   midi.ControlChangeEvent(tick=4, channel=0, data=[64, 0]),
   midi.NoteOnEvent(tick=5, channel=0, data=[58, 68]),
   midi.NoteOnEvent(tick=0, channel=0, data=[46, 50]),
   midi.ControlChangeEvent(tick=11, channel=0, data=[64, 40]),
   midi.ControlChangeEvent(tick=4, channel=0, data=[64, 104]),
   midi.ControlChangeEvent(tick=4, channel=0, data=[64, 127]),
   midi.NoteOnEvent(tick=12, channel=0, data=[46, 0]),
   midi.NoteOnEvent(tick=5, channel=0, data=[58, 0]),
   midi.NoteOnEvent(tick=12, channel=0, data=[60, 80]),
   midi.NoteOnEvent(tick=4, channel=0, data=[48, 54]),
   midi.NoteOnEvent(tick=11, channel=0, data=[48, 0]),
   midi.ControlChangeEvent(tick=17, channel=0, data=[64, 104]),
   midi.ControlChangeEvent(tick=4, channel=0, data=[64, 40]),
   midi.NoteOnEvent(tick=3, channel=0, data=[60, 0]),
   midi.ControlChangeEvent(tick=1, channel=0, data=[64, 0]),
   midi.NoteOnEvent(tick=16, channel=0, data=[53, 87]),
   midi.NoteOnEvent(tick=6, channel=0, data=[41, 56]),
   midi.NoteOnEvent(tick=11, channel=0, data=[41, 0]),
   midi.ControlChangeEvent(tick=6, channel=0, data=[64, 127]),
   midi.NoteOnEvent(tick=2, channel=0, data=[53, 0]),
   midi.NoteOnEvent(tick=78, channel=0, data=[77, 86]),
   midi.NoteOnEvent(tick=5, channel=0, data=[61, 48]),
   midi.NoteOnEvent(tick=1, channel=0, data=[70, 56]),
   midi.ControlChangeEvent(tick=0, channel=0, data=[64, 104]),
   midi.NoteOnEvent(tick=1, channel=0, data=[67, 51]),
   midi.ControlChangeEvent(tick=3, channel=0, data=[64, 40]),
   midi.ControlChangeEvent(tick=3, channel=0, data=[64, 0]),
   midi.ControlChangeEvent(tick=13, channel=0, data=[64, 88]),
   midi.ControlChangeEvent(tick=4, channel=0, data=[64, 127]),
   midi.NoteOnEvent(tick=45, channel=0, data=[61, 0]),
   midi.NoteOnEvent(tick=0, channel=0, data=[77, 0]),
   midi.NoteOnEvent(tick=43, channel=0, data=[76, 73]),
   midi.NoteOnEvent(tick=9, channel=0, data=[60, 49]),
   midi.ControlChangeEvent(tick=8, channel=0, data=[64, 56]),
   midi.ControlChangeEvent(tick=4, channel=0, data=[64, 0]),
   midi.ControlChangeEvent(tick=44, channel=0, data=[64, 56]),
   midi.ControlChangeEvent(tick=4, channel=0, data=[64, 127]),
   midi.NoteOnEvent(tick=11, channel=0, data=[76, 0]),
   midi.NoteOnEvent(tick=4, channel=0, data=[67, 0]),
   midi.NoteOnEvent(tick=0, channel=0, data=[70, 0]),
   midi.NoteOnEvent(tick=1, channel=0, data=[60, 0]),
   midi.ControlChangeEvent(tick=109, channel=0, data=[64, 40]),
   midi.ControlChangeEvent(tick=4, channel=0, data=[64, 0]),
   midi.NoteOnEvent(tick=13, channel=0, data=[41, 67]),
   midi.NoteOnEvent(tick=3, channel=0, data=[29, 45]),
   midi.ControlChangeEvent(tick=21, channel=0, data=[64, 24]),
   midi.ControlChangeEvent(tick=4, channel=0, data=[64, 72]),
   midi.NoteOnEvent(tick=2, channel=0, data=[29, 0]),
   midi.ControlChangeEvent(tick=1, channel=0, data=[64, 127]),
   midi.NoteOnEvent(tick=11, channel=0, data=[41, 0]),
   midi.NoteOnEvent(tick=8, channel=0, data=[43, 70]),
   midi.NoteOnEvent(tick=5, channel=0, data=[31, 33]),
   midi.ControlChangeEvent(tick=5, channel=0, data=[64, 104]),
   midi.ControlChangeEvent(tick=4, channel=0, data=[64, 40]),
   midi.ControlChangeEvent(tick=4, channel=0, data=[64, 0]),
   midi.NoteOnEvent(tick=13, channel=0, data=[31, 0]),
   midi.NoteOnEvent(tick=0, channel=0, data=[43, 0]),
   midi.ControlChangeEvent(tick=11, channel=0, data=[64, 40]),
   midi.NoteOnEvent(tick=4, channel=0, data=[32, 34]),
   midi.NoteOnEvent(tick=1, channel=0, data=[44, 66]),
   midi.ControlChangeEvent(tick=11, channel=0, data=[64, 0]),
   midi.NoteOnEvent(tick=20, channel=0, data=[32, 0]),
   midi.ControlChangeEvent(tick=1, channel=0, data=[64, 24]),
   midi.ControlChangeEvent(tick=3, channel=0, data=[64, 72]),
   midi.NoteOnEvent(tick=3, channel=0, data=[44, 0]),
   midi.ControlChangeEvent(tick=2, channel=0, data=[64, 104]),
   midi.ControlChangeEvent(tick=4, channel=0, data=[64, 127]),
   midi.NoteOnEvent(tick=2, channel=0, data=[48, 81]),
   midi.NoteOnEvent(tick=2, channel=0, data=[36, 45]),
   midi.NoteOnEvent(tick=14, channel=0, data=[48, 0]),
   midi.ControlChangeEvent(tick=14, channel=0, data=[64, 104]),
   midi.ControlChangeEvent(tick=3, channel=0, data=[64, 56]),
   midi.NoteOnEvent(tick=4, channel=0, data=[36, 0]),
   midi.ControlChangeEvent(tick=1, channel=0, data=[64, 0]),
   midi.NoteOnEvent(tick=12, channel=0, data=[53, 85]),
   midi.NoteOnEvent(tick=3, channel=0, data=[41, 42]),
   midi.ControlChangeEvent(tick=21, channel=0, data=[64, 40]),
   midi.ControlChangeEvent(tick=4, channel=0, data=[64, 88]),
   midi.NoteOnEvent(tick=9, channel=0, data=[41, 0]),
   midi.NoteOnEvent(tick=6, channel=0, data=[53, 0]),
   midi.NoteOnEvent(tick=5, channel=0, data=[55, 73]),
   midi.NoteOnEvent(tick=1, channel=0, data=[43, 49]),
   midi.ControlChangeEvent(tick=4, channel=0, data=[64, 72]),
   midi.ControlChangeEvent(tick=4, channel=0, data=[64, 56]),
   midi.ControlChangeEvent(tick=4, channel=0, data=[64, 24]),
   midi.ControlChangeEvent(tick=4, channel=0, data=[64, 0]),
   midi.NoteOnEvent(tick=15, channel=0, data=[55, 0]),
   midi.NoteOnEvent(tick=2, channel=0, data=[43, 0]),
   midi.NoteOnEvent(tick=12, channel=0, data=[44, 44]),
   midi.NoteOnEvent(tick=2, channel=0, data=[56, 65]),
   midi.ControlChangeEvent(tick=9, channel=0, data=[64, 72]),
   midi.ControlChangeEvent(tick=4, channel=0, data=[64, 104]),
   midi.ControlChangeEvent(tick=4, channel=0, data=[64, 127]),
   midi.NoteOnEvent(tick=17, channel=0, data=[44, 0]),
   midi.NoteOnEvent(tick=2, channel=0, data=[56, 0]),
   midi.NoteOnEvent(tick=12, channel=0, data=[60, 74]),
   midi.NoteOnEvent(tick=4, channel=0, data=[48, 47]),
   midi.NoteOnEvent(tick=13, channel=0, data=[60, 0]),
   midi.ControlChangeEvent(tick=16, channel=0, data=[64, 56]),
   midi.ControlChangeEvent(tick=5, channel=0, data=[64, 0]),
   midi.NoteOnEvent(tick=1, channel=0, data=[48, 0]),
   midi.NoteOnEvent(tick=9, channel=0, data=[65, 80]),
   midi.NoteOnEvent(tick=4, channel=0, data=[53, 54]),
   midi.ControlChangeEvent(tick=18, channel=0, data=[64, 40]),
   midi.ControlChangeEvent(tick=4, channel=0, data=[64, 104]),
   midi.ControlChangeEvent(tick=3, channel=0, data=[64, 127]),
   midi.NoteOnEvent(tick=10, channel=0, data=[53, 0]),
   midi.NoteOnEvent(tick=4, channel=0, data=[65, 0]),
   midi.NoteOnEvent(tick=4, channel=0, data=[67, 72]),
   midi.NoteOnEvent(tick=1, channel=0, data=[55, 53]),
   midi.ControlChangeEvent(tick=26, channel=0, data=[64, 104]),
   midi.ControlChangeEvent(tick=4, channel=0, data=[64, 40]),
   midi.NoteOnEvent(tick=3, channel=0, data=[67, 0]),
   midi.ControlChangeEvent(tick=1, channel=0, data=[64, 0]),
   midi.NoteOnEvent(tick=9, channel=0, data=[55, 0]),
   midi.NoteOnEvent(tick=6, channel=0, data=[68, 67]),
   midi.NoteOnEvent(tick=1, channel=0, data=[56, 48]),
   midi.ControlChangeEvent(tick=5, channel=0, data=[64, 40]),
   midi.ControlChangeEvent(tick=4, channel=0, data=[64, 104]),
   midi.ControlChangeEvent(tick=4, channel=0, data=[64, 127]),
   midi.NoteOnEvent(tick=20, channel=0, data=[56, 0]),
   midi.NoteOnEvent(tick=3, channel=0, data=[68, 0]),
   midi.NoteOnEvent(tick=11, channel=0, data=[72, 80]),
   midi.NoteOnEvent(tick=4, channel=0, data=[60, 51]),
   midi.NoteOnEvent(tick=10, channel=0, data=[72, 0]),
   midi.NoteOnEvent(tick=27, channel=0, data=[60, 0]),
   midi.ControlChangeEvent(tick=1, channel=0, data=[64, 56]),
   midi.ControlChangeEvent(tick=4, channel=0, data=[64, 0]),
   midi.NoteOnEvent(tick=2, channel=0, data=[77, 86]),
   midi.NoteOnEvent(tick=7, channel=0, data=[65, 47]),
   midi.ControlChangeEvent(tick=11, channel=0, data=[64, 24]),
   midi.ControlChangeEvent(tick=4, channel=0, data=[64, 104]),
   midi.ControlChangeEvent(tick=4, channel=0, data=[64, 127]),
   midi.NoteOnEvent(tick=10, channel=0, data=[77, 0]),
   midi.NoteOnEvent(tick=6, channel=0, data=[65, 0]),
   midi.NoteOnEvent(tick=5, channel=0, data=[79, 82]),
   midi.NoteOnEvent(tick=3, channel=0, data=[67, 54]),
   midi.NoteOnEvent(tick=26, channel=0, data=[67, 0]),
   midi.NoteOnEvent(tick=4, channel=0, data=[79, 0]),
   midi.NoteOnEvent(tick=11, channel=0, data=[68, 42]),
   midi.NoteOnEvent(tick=2, channel=0, data=[80, 82]),
   midi.NoteOnEvent(tick=30, channel=0, data=[80, 0]),
   midi.NoteOnEvent(tick=1, channel=0, data=[68, 0]),
   midi.NoteOnEvent(tick=16, channel=0, data=[84, 86]),
   midi.NoteOnEvent(tick=0, channel=0, data=[72, 67]),
   midi.NoteOnEvent(tick=10, channel=0, data=[72, 0]),
   midi.NoteOnEvent(tick=12, channel=0, data=[84, 0]),
   midi.NoteOnEvent(tick=32, channel=0, data=[89, 87]),
   midi.ControlChangeEvent(tick=2, channel=0, data=[64, 72]),
   midi.NoteOnEvent(tick=0, channel=0, data=[77, 72]),
   midi.ControlChangeEvent(tick=4, channel=0, data=[64, 0]),
   midi.NoteOnEvent(tick=0, channel=0, data=[65, 33]),
   midi.NoteOnEvent(tick=1, channel=0, data=[62, 42]),
   midi.NoteOnEvent(tick=3, channel=0, data=[71, 30]),
   midi.NoteOnEvent(tick=1, channel=0, data=[68, 29]),
   midi.ControlChangeEvent(tick=18, channel=0, data=[64, 40]),
   midi.ControlChangeEvent(tick=5, channel=0, data=[64, 127]),
   midi.NoteOnEvent(tick=7, channel=0, data=[77, 0]),
   midi.NoteOnEvent(tick=2, channel=0, data=[62, 0]),
   midi.NoteOnEvent(tick=2, channel=0, data=[65, 0]),
   midi.NoteOnEvent(tick=1, channel=0, data=[68, 0]),
   midi.NoteOnEvent(tick=2, channel=0, data=[71, 0]),
   midi.NoteOnEvent(tick=6, channel=0, data=[89, 0]),
   midi.NoteOnEvent(tick=49, channel=0, data=[91, 92]),
   midi.NoteOnEvent(tick=3, channel=0, data=[79, 77]),
   midi.NoteOnEvent(tick=0, channel=0, data=[65, 39]),
   midi.NoteOnEvent(tick=1, channel=0, data=[71, 39]),
   midi.NoteOnEvent(tick=2, channel=0, data=[62, 32]),
   midi.NoteOnEvent(tick=1, channel=0, data=[68, 26]),
   midi.NoteOnEvent(tick=10, channel=0, data=[79, 0]),
   midi.NoteOnEvent(tick=2, channel=0, data=[62, 0]),
   midi.NoteOnEvent(tick=0, channel=0, data=[91, 0]),
   midi.NoteOnEvent(tick=4, channel=0, data=[71, 0]),
   midi.NoteOnEvent(tick=2, channel=0, data=[68, 0]),
   midi.NoteOnEvent(tick=0, channel=0, data=[65, 0]),
   midi.NoteOnEvent(tick=27, channel=0, data=[89, 92]),
   midi.NoteOnEvent(tick=2, channel=0, data=[77, 78]),
   midi.ControlChangeEvent(tick=23, channel=0, data=[64, 104]),
   midi.ControlChangeEvent(tick=4, channel=0, data=[64, 0]),
   midi.NoteOnEvent(tick=18, channel=0, data=[77, 0]),
   midi.NoteOnEvent(tick=2, channel=0, data=[65, 37]),
   midi.NoteOnEvent(tick=1, channel=0, data=[62, 35]),
   midi.NoteOnEvent(tick=2, channel=0, data=[71, 30]),
   midi.NoteOnEvent(tick=0, channel=0, data=[68, 31]),
   midi.ControlChangeEvent(tick=1, channel=0, data=[64, 104]),
   midi.ControlChangeEvent(tick=4, channel=0, data=[64, 127]),
   midi.NoteOnEvent(tick=6, channel=0, data=[89, 0]),
   midi.NoteOnEvent(tick=8, channel=0, data=[71, 0]),
   midi.NoteOnEvent(tick=2, channel=0, data=[62, 0]),
   midi.NoteOnEvent(tick=3, channel=0, data=[65, 0]),
   midi.NoteOnEvent(tick=2, channel=0, data=[68, 0]),
   midi.NoteOnEvent(tick=15, channel=0, data=[91, 88]),
   midi.NoteOnEvent(tick=4, channel=0, data=[79, 71]),
   midi.NoteOnEvent(tick=15, channel=0, data=[79, 0]),
   midi.NoteOnEvent(tick=1, channel=0, data=[91, 0]),
   midi.NoteOnEvent(tick=32, channel=0, data=[89, 89]),
   midi.NoteOnEvent(tick=0, channel=0, data=[65, 28]),
   midi.NoteOnEvent(tick=2, channel=0, data=[71, 37]),
   midi.NoteOnEvent(tick=0, channel=0, data=[77, 74]),
   midi.NoteOnEvent(tick=0, channel=0, data=[62, 30]),
   midi.NoteOnEvent(tick=2, channel=0, data=[68, 29]),
   midi.NoteOnEvent(tick=10, channel=0, data=[62, 0]),
   midi.NoteOnEvent(tick=2, channel=0, data=[65, 0]),
   midi.NoteOnEvent(tick=2, channel=0, data=[77, 0]),
   midi.NoteOnEvent(tick=0, channel=0, data=[68, 0]),
   midi.NoteOnEvent(tick=2, channel=0, data=[71, 0]),
   midi.NoteOnEvent(tick=1, channel=0, data=[89, 0]),
   midi.ControlChangeEvent(tick=28, channel=0, data=[64, 88]),
   midi.NoteOnEvent(tick=3, channel=0, data=[89, 87]),
   midi.ControlChangeEvent(tick=1, channel=0, data=[64, 0]),
   midi.NoteOnEvent(tick=2, channel=0, data=[77, 76]),
   midi.NoteOnEvent(tick=38, channel=0, data=[77, 0]),
   midi.ControlChangeEvent(tick=8, channel=0, data=[64, 127]),
   midi.NoteOnEvent(tick=2, channel=0, data=[68, 45]),
   midi.NoteOnEvent(tick=2, channel=0, data=[72, 55]),
   midi.NoteOnEvent(tick=0, channel=0, data=[63, 46]),
   midi.NoteOnEvent(tick=18, channel=0, data=[72, 0]),
   midi.NoteOnEvent(tick=1, channel=0, data=[63, 0]),
   midi.NoteOnEvent(tick=4, channel=0, data=[68, 0]),
   midi.NoteOnEvent(tick=4, channel=0, data=[89, 0]),
   midi.NoteOnEvent(tick=15, channel=0, data=[87, 74]),
   midi.NoteOnEvent(tick=36, channel=0, data=[87, 0]),
   midi.NoteOnEvent(tick=11, channel=0, data=[84, 77]),
   midi.NoteOnEvent(tick=4, channel=0, data=[63, 47]),
   midi.NoteOnEvent(tick=4, channel=0, data=[72, 39]),
   midi.NoteOnEvent(tick=0, channel=0, data=[68, 30]),
   midi.NoteOnEvent(tick=13, channel=0, data=[72, 0]),
   midi.NoteOnEvent(tick=2, channel=0, data=[68, 0]),
   midi.NoteOnEvent(tick=1, channel=0, data=[63, 0]),
   midi.NoteOnEvent(tick=9, channel=0, data=[84, 0]),
   midi.NoteOnEvent(tick=15, channel=0, data=[82, 76]),
   midi.ControlChangeEvent(tick=37, channel=0, data=[64, 104]),
   midi.ControlChangeEvent(tick=4, channel=0, data=[64, 24]),
   midi.NoteOnEvent(tick=4, channel=0, data=[82, 0]),
   midi.ControlChangeEvent(tick=0, channel=0, data=[64, 0]),
   midi.NoteOnEvent(tick=3, channel=0, data=[80, 80]),
   midi.NoteOnEvent(tick=6, channel=0, data=[72, 51]),
   midi.NoteOnEvent(tick=0, channel=0, data=[68, 36]),
   midi.NoteOnEvent(tick=2, channel=0, data=[66, 39]),
   midi.ControlChangeEvent(tick=17, channel=0, data=[64, 127]),
   midi.NoteOnEvent(tick=2, channel=0, data=[72, 0]),
   midi.NoteOnEvent(tick=2, channel=0, data=[66, 0]),
   midi.NoteOnEvent(tick=1, channel=0, data=[68, 0]),
   midi.NoteOnEvent(tick=21, channel=0, data=[87, 80]),
   midi.NoteOnEvent(tick=6, channel=0, data=[80, 0]),
   midi.NoteOnEvent(tick=49, channel=0, data=[72, 46]),
   midi.NoteOnEvent(tick=1, channel=0, data=[66, 31]),
   midi.NoteOnEvent(tick=17, channel=0, data=[72, 0]),
   midi.NoteOnEvent(tick=2, channel=0, data=[66, 0]),
   midi.NoteOnEvent(tick=14, channel=0, data=[87, 0]),
   midi.NoteOnEvent(tick=10, channel=0, data=[85, 76]),
   midi.ControlChangeEvent(tick=28, channel=0, data=[64, 88]),
   midi.ControlChangeEvent(tick=4, channel=0, data=[64, 0]),
   midi.NoteOnEvent(tick=20, channel=0, data=[65, 39]),
   midi.NoteOnEvent(tick=2, channel=0, data=[73, 26]),
   midi.NoteOnEvent(tick=0, channel=0, data=[68, 27]),
   midi.ControlChangeEvent(tick=2, channel=0, data=[64, 40]),
   midi.ControlChangeEvent(tick=4, channel=0, data=[64, 127]),
   midi.NoteOnEvent(tick=4, channel=0, data=[65, 0]),
   midi.NoteOnEvent(tick=4, channel=0, data=[68, 0]),
   midi.NoteOnEvent(tick=3, channel=0, data=[73, 0]),
   midi.NoteOnEvent(tick=22, channel=0, data=[85, 0]),
   midi.NoteOnEvent(tick=1, channel=0, data=[82, 76]),
   midi.NoteOnEvent(tick=45, channel=0, data=[94, 78]),
   midi.NoteOnEvent(tick=2, channel=0, data=[73, 31]),
   midi.NoteOnEvent(tick=1, channel=0, data=[64, 40]),
   midi.NoteOnEvent(tick=5, channel=0, data=[68, 27]),
   midi.NoteOnEvent(tick=7, channel=0, data=[64, 0]),
   midi.NoteOnEvent(tick=3, channel=0, data=[82, 0]),
   midi.NoteOnEvent(tick=0, channel=0, data=[68, 0]),
   midi.NoteOnEvent(tick=3, channel=0, data=[73, 0]),
   midi.NoteOnEvent(tick=12, channel=0, data=[94, 0]),
   midi.NoteOnEvent(tick=17, channel=0, data=[92, 84]),
   midi.NoteOnEvent(tick=19, channel=0, data=[92, 0]),
   midi.ControlChangeEvent(tick=26, channel=0, data=[64, 56]),
   midi.ControlChangeEvent(tick=4, channel=0, data=[64, 0]),
   midi.NoteOnEvent(tick=4, channel=0, data=[80, 72]),
   midi.NoteOnEvent(tick=0, channel=0, data=[63, 33]),
   midi.NoteOnEvent(tick=2, channel=0, data=[68, 33]),
   midi.NoteOnEvent(tick=2, channel=0, data=[72, 42]),
   midi.ControlChangeEvent(tick=12, channel=0, data=[64, 72]),
   midi.ControlChangeEvent(tick=4, channel=0, data=[64, 127]),
   midi.NoteOnEvent(tick=6, channel=0, data=[63, 0]),
   midi.NoteOnEvent(tick=1, channel=0, data=[72, 0]),
   midi.NoteOnEvent(tick=10, channel=0, data=[68, 0]),
   midi.NoteOnEvent(tick=1, channel=0, data=[80, 0]),
   midi.NoteOnEvent(tick=8, channel=0, data=[84, 85]),
   midi.NoteOnEvent(tick=54, channel=0, data=[63, 34]),
   midi.NoteOnEvent(tick=0, channel=0, data=[68, 30]),
   midi.NoteOnEvent(tick=3, channel=0, data=[72, 30]),
   midi.NoteOnEvent(tick=13, channel=0, data=[72, 0]),
   midi.NoteOnEvent(tick=2, channel=0, data=[68, 0]),
   midi.NoteOnEvent(tick=1, channel=0, data=[63, 0]),
   midi.NoteOnEvent(tick=25, channel=0, data=[84, 0]),
   midi.NoteOnEvent(tick=1, channel=0, data=[89, 90]),
   midi.NoteOnEvent(tick=33, channel=0, data=[89, 0]),
   midi.ControlChangeEvent(tick=12, channel=0, data=[64, 40]),
   midi.ControlChangeEvent(tick=4, channel=0, data=[64, 0]),
   midi.NoteOnEvent(tick=2, channel=0, data=[87, 77]),
   midi.NoteOnEvent(tick=4, channel=0, data=[73, 30]),
   midi.NoteOnEvent(tick=2, channel=0, data=[67, 37]),
   midi.NoteOnEvent(tick=0, channel=0, data=[63, 26]),
   midi.ControlChangeEvent(tick=8, channel=0, data=[64, 40]),
   midi.ControlChangeEvent(tick=4, channel=0, data=[64, 127]),
   midi.NoteOnEvent(tick=1, channel=0, data=[67, 0]),
   midi.NoteOnEvent(tick=7, channel=0, data=[63, 0]),
   midi.NoteOnEvent(tick=4, channel=0, data=[73, 0]),
   midi.NoteOnEvent(tick=6, channel=0, data=[87, 0]),
   midi.NoteOnEvent(tick=11, channel=0, data=[82, 74]),
   midi.NoteOnEvent(tick=36, channel=0, data=[82, 0]),
   midi.NoteOnEvent(tick=11, channel=0, data=[83, 78]),
   midi.NoteOnEvent(tick=0, channel=0, data=[73, 35]),
   midi.NoteOnEvent(tick=8, channel=0, data=[67, 32]),
   midi.NoteOnEvent(tick=0, channel=0, data=[63, 24]),
   midi.NoteOnEvent(tick=11, channel=0, data=[67, 0]),
   midi.NoteOnEvent(tick=1, channel=0, data=[63, 0]),
   midi.NoteOnEvent(tick=5, channel=0, data=[73, 0]),
   midi.NoteOnEvent(tick=11, channel=0, data=[83, 0]),
   midi.NoteOnEvent(tick=16, channel=0, data=[84, 77]),
   midi.ControlChangeEvent(tick=21, channel=0, data=[64, 104]),
   midi.ControlChangeEvent(tick=4, channel=0, data=[64, 0]),
   midi.NoteOnEvent(tick=21, channel=0, data=[63, 34]),
   midi.NoteOnEvent(tick=2, channel=0, data=[84, 0]),
   midi.ControlChangeEvent(tick=1, channel=0, data=[64, 56]),
   midi.NoteOnEvent(tick=1, channel=0, data=[72, 38]),
   midi.ControlChangeEvent(tick=3, channel=0, data=[64, 127]),
   midi.NoteOnEvent(tick=13, channel=0, data=[72, 0]),
   midi.NoteOnEvent(tick=4, channel=0, data=[63, 0]),
   midi.NoteOnEvent(tick=21, channel=0, data=[74, 76]),
   midi.NoteOnEvent(tick=37, channel=0, data=[74, 0]),
   midi.ControlChangeEvent(tick=2, channel=0, data=[64, 56]),
   midi.ControlChangeEvent(tick=4, channel=0, data=[64, 24]),
   midi.NoteOnEvent(tick=10, channel=0, data=[75, 77]),
   midi.NoteOnEvent(tick=2, channel=0, data=[63, 31]),
   midi.ControlChangeEvent(tick=0, channel=0, data=[64, 127]),
   midi.NoteOnEvent(tick=1, channel=0, data=[72, 38]),
   midi.NoteOnEvent(tick=1, channel=0, data=[68, 28]),
   midi.NoteOnEvent(tick=7, channel=0, data=[72, 0]),
   midi.NoteOnEvent(tick=2, channel=0, data=[68, 0]),
   midi.NoteOnEvent(tick=3, channel=0, data=[63, 0]),
   midi.NoteOnEvent(tick=15, channel=0, data=[75, 0]),
   midi.NoteOnEvent(tick=19, channel=0, data=[77, 86]),
   midi.NoteOnEvent(tick=2, channel=0, data=[65, 46]),
   midi.ControlChangeEvent(tick=31, channel=0, data=[64, 56]),
   midi.ControlChangeEvent(tick=4, channel=0, data=[64, 0]),
   midi.NoteOnEvent(tick=15, channel=0, data=[50, 39]),
   midi.NoteOnEvent(tick=2, channel=0, data=[59, 38]),
   midi.NoteOnEvent(tick=2, channel=0, data=[53, 43]),
   midi.NoteOnEvent(tick=0, channel=0, data=[56, 32]),
   midi.ControlChangeEvent(tick=5, channel=0, data=[64, 56]),
   midi.NoteOnEvent(tick=3, channel=0, data=[65, 0]),
   midi.ControlChangeEvent(tick=1, channel=0, data=[64, 127]),
   midi.NoteOnEvent(tick=2, channel=0, data=[56, 0]),
   midi.NoteOnEvent(tick=1, channel=0, data=[53, 0]),
   midi.NoteOnEvent(tick=0, channel=0, data=[50, 0]),
   midi.NoteOnEvent(tick=2, channel=0, data=[59, 0]),
   midi.NoteOnEvent(tick=38, channel=0, data=[77, 0]),
   midi.NoteOnEvent(tick=39, channel=0, data=[79, 80]),
   midi.NoteOnEvent(tick=2, channel=0, data=[67, 66]),
   midi.NoteOnEvent(tick=2, channel=0, data=[50, 39]),
   midi.NoteOnEvent(tick=2, channel=0, data=[59, 35]),
   midi.NoteOnEvent(tick=4, channel=0, data=[53, 25]),
   midi.NoteOnEvent(tick=2, channel=0, data=[56, 23]),
   midi.NoteOnEvent(tick=7, channel=0, data=[59, 0]),
   midi.NoteOnEvent(tick=0, channel=0, data=[67, 0]),
   midi.NoteOnEvent(tick=0, channel=0, data=[79, 0]),
   midi.NoteOnEvent(tick=1, channel=0, data=[50, 0]),
   midi.NoteOnEvent(tick=1, channel=0, data=[56, 0]),
   midi.NoteOnEvent(tick=0, channel=0, data=[53, 0]),
   midi.NoteOnEvent(tick=31, channel=0, data=[77, 86]),
   midi.NoteOnEvent(tick=0, channel=0, data=[65, 71]),
   midi.ControlChangeEvent(tick=27, channel=0, data=[64, 104]),
   midi.ControlChangeEvent(tick=4, channel=0, data=[64, 24]),
   midi.ControlChangeEvent(tick=4, channel=0, data=[64, 0]),
   midi.NoteOnEvent(tick=10, channel=0, data=[65, 0]),
   midi.ControlChangeEvent(tick=2, channel=0, data=[64, 40]),
   midi.NoteOnEvent(tick=4, channel=0, data=[53, 43]),
   midi.NoteOnEvent(tick=1, channel=0, data=[50, 36]),
   midi.NoteOnEvent(tick=0, channel=0, data=[59, 34]),
   midi.ControlChangeEvent(tick=0, channel=0, data=[64, 127]),
   midi.NoteOnEvent(tick=1, channel=0, data=[56, 33]),
   midi.NoteOnEvent(tick=9, channel=0, data=[77, 0]),
   midi.NoteOnEvent(tick=3, channel=0, data=[50, 0]),
   midi.NoteOnEvent(tick=2, channel=0, data=[56, 0]),
   midi.NoteOnEvent(tick=1, channel=0, data=[59, 0]),
   midi.NoteOnEvent(tick=0, channel=0, data=[53, 0]),
   midi.NoteOnEvent(tick=27, channel=0, data=[79, 88]),
   midi.NoteOnEvent(tick=2, channel=0, data=[67, 70]),
   midi.NoteOnEvent(tick=15, channel=0, data=[79, 0]),
   midi.NoteOnEvent(tick=1, channel=0, data=[67, 0]),
   midi.NoteOnEvent(tick=33, channel=0, data=[77, 90]),
   midi.NoteOnEvent(tick=0, channel=0, data=[65, 71]),
   midi.NoteOnEvent(tick=1, channel=0, data=[53, 37]),
   midi.NoteOnEvent(tick=0, channel=0, data=[59, 35]),
   midi.NoteOnEvent(tick=2, channel=0, data=[50, 23]),
   midi.NoteOnEvent(tick=9, channel=0, data=[50, 0]),
   midi.NoteOnEvent(tick=3, channel=0, data=[53, 0]),
   midi.NoteOnEvent(tick=1, channel=0, data=[65, 0]),
   midi.NoteOnEvent(tick=1, channel=0, data=[59, 0]),
   midi.NoteOnEvent(tick=2, channel=0, data=[77, 0]),
   midi.ControlChangeEvent(tick=19, channel=0, data=[64, 104]),
   midi.ControlChangeEvent(tick=5, channel=0, data=[64, 24]),
   midi.ControlChangeEvent(tick=4, channel=0, data=[64, 0]),
   midi.NoteOnEvent(tick=3, channel=0, data=[77, 84]),
   midi.NoteOnEvent(tick=3, channel=0, data=[65, 66]),
   midi.NoteOnEvent(tick=28, channel=0, data=[65, 0]),
   midi.ControlChangeEvent(tick=22, channel=0, data=[64, 127]),
   midi.NoteOnEvent(tick=1, channel=0, data=[51, 51]),
   midi.NoteOnEvent(tick=1, channel=0, data=[56, 40]),
   midi.NoteOnEvent(tick=0, channel=0, data=[60, 47]),
   midi.NoteOnEvent(tick=22, channel=0, data=[60, 0]),
   midi.NoteOnEvent(tick=0, channel=0, data=[51, 0]),
   midi.NoteOnEvent(tick=1, channel=0, data=[56, 0]),
   midi.NoteOnEvent(tick=1, channel=0, data=[77, 0]),
   midi.NoteOnEvent(tick=19, channel=0, data=[75, 79]),
   midi.NoteOnEvent(tick=39, channel=0, data=[75, 0]),
   midi.NoteOnEvent(tick=10, channel=0, data=[72, 76]),
   midi.NoteOnEvent(tick=2, channel=0, data=[51, 49]),
   midi.NoteOnEvent(tick=4, channel=0, data=[60, 37]),
   midi.NoteOnEvent(tick=0, channel=0, data=[56, 29]),
   midi.NoteOnEvent(tick=12, channel=0, data=[60, 0]),
   midi.NoteOnEvent(tick=2, channel=0, data=[56, 0]),
   midi.NoteOnEvent(tick=3, channel=0, data=[51, 0]),
   midi.NoteOnEvent(tick=13, channel=0, data=[72, 0]),
   midi.NoteOnEvent(tick=12, channel=0, data=[70, 74]),
   midi.ControlChangeEvent(tick=40, channel=0, data=[64, 104]),
   midi.ControlChangeEvent(tick=4, channel=0, data=[64, 24]),
   midi.ControlChangeEvent(tick=4, channel=0, data=[64, 0]),
   midi.NoteOnEvent(tick=1, channel=0, data=[70, 0]),
   midi.NoteOnEvent(tick=1, channel=0, data=[68, 72]),
   midi.NoteOnEvent(tick=4, channel=0, data=[60, 40]),
   midi.NoteOnEvent(tick=0, channel=0, data=[56, 32]),
   midi.NoteOnEvent(tick=1, channel=0, data=[54, 35]),
   midi.NoteOnEvent(tick=19, channel=0, data=[60, 0]),
   midi.ControlChangeEvent(tick=1, channel=0, data=[64, 56]),
   midi.NoteOnEvent(tick=4, channel=0, data=[54, 0]),
   midi.NoteOnEvent(tick=0, channel=0, data=[56, 0]),
   midi.ControlChangeEvent(tick=1, channel=0, data=[64, 127]),
   midi.NoteOnEvent(tick=25, channel=0, data=[75, 81]),
   midi.NoteOnEvent(tick=9, channel=0, data=[68, 0]),
   midi.NoteOnEvent(tick=39, channel=0, data=[60, 40]),
   midi.NoteOnEvent(tick=2, channel=0, data=[54, 30]),
   midi.NoteOnEvent(tick=16, channel=0, data=[54, 0]),
   midi.NoteOnEvent(tick=1, channel=0, data=[60, 0]),
   midi.NoteOnEvent(tick=26, channel=0, data=[75, 0]),
   midi.NoteOnEvent(tick=5, channel=0, data=[73, 80]),
   midi.ControlChangeEvent(tick=22, channel=0, data=[64, 56]),
   midi.ControlChangeEvent(tick=5, channel=0, data=[64, 0]),
   midi.NoteOnEvent(tick=16, channel=0, data=[53, 44]),
   midi.NoteOnEvent(tick=3, channel=0, data=[61, 26]),
   midi.NoteOnEvent(tick=3, channel=0, data=[56, 26]),
   midi.ControlChangeEvent(tick=6, channel=0, data=[64, 88]),
   midi.ControlChangeEvent(tick=4, channel=0, data=[64, 127]),
   midi.NoteOnEvent(tick=3, channel=0, data=[56, 0]),
   midi.NoteOnEvent(tick=6, channel=0, data=[53, 0]),
   midi.NoteOnEvent(tick=4, channel=0, data=[61, 0]),
   midi.NoteOnEvent(tick=18, channel=0, data=[73, 0]),
   midi.NoteOnEvent(tick=3, channel=0, data=[70, 78]),
   midi.NoteOnEvent(tick=47, channel=0, data=[61, 33]),
   midi.NoteOnEvent(tick=3, channel=0, data=[82, 78]),
   midi.NoteOnEvent(tick=2, channel=0, data=[52, 42]),
   midi.NoteOnEvent(tick=2, channel=0, data=[56, 26]),
   midi.NoteOnEvent(tick=8, channel=0, data=[52, 0]),
   midi.NoteOnEvent(tick=3, channel=0, data=[56, 0]),
   midi.NoteOnEvent(tick=3, channel=0, data=[70, 0]),
   midi.NoteOnEvent(tick=2, channel=0, data=[61, 0]),
   midi.NoteOnEvent(tick=10, channel=0, data=[82, 0]),
   midi.NoteOnEvent(tick=18, channel=0, data=[80, 86]),
   midi.NoteOnEvent(tick=20, channel=0, data=[80, 0]),
   midi.ControlChangeEvent(tick=21, channel=0, data=[64, 88]),
   midi.ControlChangeEvent(tick=4, channel=0, data=[64, 24]),
   midi.ControlChangeEvent(tick=4, channel=0, data=[64, 0]),
   midi.NoteOnEvent(tick=2, channel=0, data=[56, 30]),
   midi.NoteOnEvent(tick=1, channel=0, data=[72, 88]),
   midi.NoteOnEvent(tick=1, channel=0, data=[51, 36]),
   midi.NoteOnEvent(tick=2, channel=0, data=[60, 26]),
   midi.NoteOnEvent(tick=21, channel=0, data=[60, 0]),
   midi.ControlChangeEvent(tick=2, channel=0, data=[64, 56]),
   midi.NoteOnEvent(tick=4, channel=0, data=[51, 0]),
   midi.ControlChangeEvent(tick=0, channel=0, data=[64, 127]),
   midi.NoteOnEvent(tick=5, channel=0, data=[56, 0]),
   midi.NoteOnEvent(tick=9, channel=0, data=[72, 0]),
   midi.NoteOnEvent(tick=8, channel=0, data=[77, 82]),
   midi.NoteOnEvent(tick=3, channel=0, data=[68, 55]),
   midi.ControlChangeEvent(tick=19, channel=0, data=[64, 72]),
   midi.ControlChangeEvent(tick=4, channel=0, data=[64, 24]),
   midi.ControlChangeEvent(tick=4, channel=0, data=[64, 0]),
   midi.ControlChangeEvent(tick=4, channel=0, data=[64, 24]),
   midi.ControlChangeEvent(tick=4, channel=0, data=[64, 72]),
   midi.ControlChangeEvent(tick=4, channel=0, data=[64, 127]),
   midi.NoteOnEvent(tick=6, channel=0, data=[56, 34]),
   midi.NoteOnEvent(tick=6, channel=0, data=[51, 31]),
   midi.NoteOnEvent(tick=4, channel=0, data=[56, 0]),
   midi.NoteOnEvent(tick=5, channel=0, data=[51, 0]),
   midi.NoteOnEvent(tick=0, channel=0, data=[77, 0]),
   midi.NoteOnEvent(tick=25, channel=0, data=[68, 0]),
   midi.NoteOnEvent(tick=5, channel=0, data=[75, 79]),
   midi.NoteOnEvent(tick=21, channel=0, data=[75, 0]),
   midi.ControlChangeEvent(tick=17, channel=0, data=[64, 72]),
   midi.ControlChangeEvent(tick=4, channel=0, data=[64, 0]),
   midi.NoteOnEvent(tick=9, channel=0, data=[68, 69]),
   midi.NoteOnEvent(tick=3, channel=0, data=[53, 50]),
   midi.NoteOnEvent(tick=1, channel=0, data=[62, 49]),
   midi.NoteOnEvent(tick=2, channel=0, data=[41, 44]),
   midi.NoteOnEvent(tick=10, channel=0, data=[53, 0]),
   midi.NoteOnEvent(tick=2, channel=0, data=[41, 0]),
   midi.ControlChangeEvent(tick=1, channel=0, data=[64, 88]),
   midi.ControlChangeEvent(tick=4, channel=0, data=[64, 127]),
   midi.NoteOnEvent(tick=10, channel=0, data=[68, 0]),
   midi.NoteOnEvent(tick=2, channel=0, data=[62, 0]),
   midi.NoteOnEvent(tick=15, channel=0, data=[70, 78]),
   midi.NoteOnEvent(tick=24, channel=0, data=[70, 0]),
   midi.ControlChangeEvent(tick=10, channel=0, data=[64, 40]),
   midi.ControlChangeEvent(tick=4, channel=0, data=[64, 0]),
   midi.NoteOnEvent(tick=11, channel=0, data=[51, 51]),
   midi.NoteOnEvent(tick=1, channel=0, data=[70, 73]),
   midi.NoteOnEvent(tick=1, channel=0, data=[39, 45]),
   midi.NoteOnEvent(tick=1, channel=0, data=[61, 59]),
   midi.NoteOnEvent(tick=0, channel=0, data=[67, 65]),
   midi.ControlChangeEvent(tick=14, channel=0, data=[64, 88]),
   midi.NoteOnEvent(tick=2, channel=0, data=[51, 0]),
   midi.NoteOnEvent(tick=2, channel=0, data=[39, 0]),
   midi.ControlChangeEvent(tick=0, channel=0, data=[64, 127]),
   midi.NoteOnEvent(tick=14, channel=0, data=[67, 0]),
   midi.NoteOnEvent(tick=2, channel=0, data=[61, 0]),
   midi.NoteOnEvent(tick=6, channel=0, data=[70, 0]),
   midi.ControlChangeEvent(tick=34, channel=0, data=[64, 88]),
   midi.ControlChangeEvent(tick=4, channel=0, data=[64, 0]),
   midi.NoteOnEvent(tick=18, channel=0, data=[68, 71]),
   midi.NoteOnEvent(tick=6, channel=0, data=[60, 65]),
   midi.NoteOnEvent(tick=0, channel=0, data=[56, 55]),
   midi.NoteOnEvent(tick=4, channel=0, data=[44, 47]),
   midi.NoteOnEvent(tick=4, channel=0, data=[60, 0]),
   midi.ControlChangeEvent(tick=1, channel=0, data=[64, 88]),
   midi.ControlChangeEvent(tick=4, channel=0, data=[64, 127]),
   midi.NoteOnEvent(tick=8, channel=0, data=[56, 0]),
   midi.NoteOnEvent(tick=2, channel=0, data=[44, 0]),
   midi.NoteOnEvent(tick=3, channel=0, data=[68, 0]),
   midi.ControlChangeEvent(tick=71, channel=0, data=[64, 24]),
   midi.NoteOnEvent(tick=2, channel=0, data=[75, 80]),
   midi.ControlChangeEvent(tick=3, channel=0, data=[64, 0]),
   midi.NoteOnEvent(tick=3, channel=0, data=[57, 49]),
   midi.NoteOnEvent(tick=1, channel=0, data=[45, 60]),
   midi.NoteOnEvent(tick=8, channel=0, data=[45, 0]),
   midi.NoteOnEvent(tick=6, channel=0, data=[57, 0]),
   midi.ControlChangeEvent(tick=2, channel=0, data=[64, 56]),
   midi.ControlChangeEvent(tick=4, channel=0, data=[64, 127]),
   midi.NoteOnEvent(tick=13, channel=0, data=[75, 0]),
   midi.ControlChangeEvent(tick=47, channel=0, data=[64, 0]),
   midi.NoteOnEvent(tick=17, channel=0, data=[58, 67]),
   midi.NoteOnEvent(tick=1, channel=0, data=[46, 66]),
   midi.NoteOnEvent(tick=15, channel=0, data=[46, 0]),
   midi.ControlChangeEvent(tick=3, channel=0, data=[64, 127]),
   midi.NoteOnEvent(tick=3, channel=0, data=[58, 0]),
   midi.NoteOnEvent(tick=25, channel=0, data=[79, 82]),
   midi.NoteOnEvent(tick=49, channel=0, data=[82, 82]),
   midi.NoteOnEvent(tick=1, channel=0, data=[61, 53]),
   midi.NoteOnEvent(tick=4, channel=0, data=[55, 58]),
   midi.NoteOnEvent(tick=4, channel=0, data=[51, 38]),
   midi.NoteOnEvent(tick=4, channel=0, data=[55, 0]),
   midi.NoteOnEvent(tick=6, channel=0, data=[61, 0]),
   midi.NoteOnEvent(tick=2, channel=0, data=[51, 0]),
   midi.NoteOnEvent(tick=1, channel=0, data=[79, 0]),
   midi.NoteOnEvent(tick=18, channel=0, data=[82, 0]),
   midi.NoteOnEvent(tick=10, channel=0, data=[85, 89]),
   midi.ControlChangeEvent(tick=43, channel=0, data=[64, 88]),
   midi.NoteOnEvent(tick=1, channel=0, data=[85, 0]),
   midi.ControlChangeEvent(tick=2, channel=0, data=[64, 0]),
   midi.NoteOnEvent(tick=4, channel=0, data=[89, 90]),
   midi.NoteOnEvent(tick=5, channel=0, data=[79, 72]),
   midi.NoteOnEvent(tick=2, channel=0, data=[51, 46]),
   midi.NoteOnEvent(tick=4, channel=0, data=[39, 50]),
   midi.ControlChangeEvent(tick=10, channel=0, data=[64, 56]),
   midi.NoteOnEvent(tick=2, channel=0, data=[39, 0]),
   midi.NoteOnEvent(tick=2, channel=0, data=[51, 0]),
   midi.ControlChangeEvent(tick=0, channel=0, data=[64, 127]),
   midi.NoteOnEvent(tick=16, channel=0, data=[89, 0]),
   midi.NoteOnEvent(tick=7, channel=0, data=[87, 81]),
   midi.NoteOnEvent(tick=50, channel=0, data=[61, 63]),
   midi.NoteOnEvent(tick=3, channel=0, data=[55, 55]),
   midi.NoteOnEvent(tick=1, channel=0, data=[51, 47]),
   midi.NoteOnEvent(tick=6, channel=0, data=[61, 0]),
   midi.NoteOnEvent(tick=1, channel=0, data=[55, 0]),
   midi.NoteOnEvent(tick=3, channel=0, data=[51, 0]),
   midi.NoteOnEvent(tick=6, channel=0, data=[79, 0]),
   midi.NoteOnEvent(tick=11, channel=0, data=[87, 0]),
   midi.NoteOnEvent(tick=16, channel=0, data=[85, 81]),
   midi.NoteOnEvent(tick=26, channel=0, data=[85, 0]),
   midi.ControlChangeEvent(tick=15, channel=0, data=[64, 40]),
   midi.ControlChangeEvent(tick=4, channel=0, data=[64, 0]),
   midi.NoteOnEvent(tick=7, channel=0, data=[75, 73]),
   midi.NoteOnEvent(tick=3, channel=0, data=[43, 53]),
   midi.NoteOnEvent(tick=1, channel=0, data=[55, 58]),
   midi.NoteOnEvent(tick=8, channel=0, data=[43, 0]),
   midi.NoteOnEvent(tick=6, channel=0, data=[55, 0]),
   midi.ControlChangeEvent(tick=0, channel=0, data=[64, 104]),
   midi.ControlChangeEvent(tick=4, channel=0, data=[64, 127]),
   midi.NoteOnEvent(tick=12, channel=0, data=[75, 0]),
   midi.NoteOnEvent(tick=14, channel=0, data=[79, 80]),
   midi.NoteOnEvent(tick=36, channel=0, data=[79, 0]),
   midi.NoteOnEvent(tick=11, channel=0, data=[82, 79]),
   midi.NoteOnEvent(tick=2, channel=0, data=[61, 50]),
   midi.NoteOnEvent(tick=4, channel=0, data=[55, 49]),
   midi.NoteOnEvent(tick=1, channel=0, data=[51, 47]),
   midi.NoteOnEvent(tick=3, channel=0, data=[61, 0]),
   midi.NoteOnEvent(tick=3, channel=0, data=[55, 0]),
   midi.NoteOnEvent(tick=9, channel=0, data=[51, 0]),
   midi.NoteOnEvent(tick=11, channel=0, data=[82, 0]),
   midi.NoteOnEvent(tick=15, channel=0, data=[87, 89]),
   midi.NoteOnEvent(tick=3, channel=0, data=[75, 64]),
   midi.NoteOnEvent(tick=2, channel=0, data=[79, 73]),
   midi.ControlChangeEvent(tick=7, channel=0, data=[64, 88]),
   midi.ControlChangeEvent(tick=4, channel=0, data=[64, 0]),
   midi.NoteOnEvent(tick=21, channel=0, data=[87, 0]),
   midi.NoteOnEvent(tick=2, channel=0, data=[79, 0]),
   midi.ControlChangeEvent(tick=1, channel=0, data=[64, 104]),
   midi.NoteOnEvent(tick=3, channel=0, data=[75, 0]),
   midi.ControlChangeEvent(tick=1, channel=0, data=[64, 127]),
   midi.NoteOnEvent(tick=9, channel=0, data=[51, 48]),
   midi.NoteOnEvent(tick=0, channel=0, data=[39, 45]),
   midi.NoteOnEvent(tick=11, channel=0, data=[39, 0]),
   midi.NoteOnEvent(tick=7, channel=0, data=[51, 0]),
   midi.NoteOnEvent(tick=30, channel=0, data=[79, 86]),
   midi.NoteOnEvent(tick=6, channel=0, data=[67, 61]),
   midi.NoteOnEvent(tick=0, channel=0, data=[73, 61]),
   midi.NoteOnEvent(tick=8, channel=0, data=[67, 0]),
   midi.NoteOnEvent(tick=7, channel=0, data=[79, 0]),
   midi.NoteOnEvent(tick=5, channel=0, data=[73, 0]),
   midi.NoteOnEvent(tick=25, channel=0, data=[80, 90]),
   midi.NoteOnEvent(tick=0, channel=0, data=[68, 74]),
   midi.NoteOnEvent(tick=1, channel=0, data=[73, 74]),
   midi.NoteOnEvent(tick=0, channel=0, data=[61, 35]),
   midi.NoteOnEvent(tick=4, channel=0, data=[51, 35]),
   midi.NoteOnEvent(tick=1, channel=0, data=[55, 31]),
   midi.NoteOnEvent(tick=3, channel=0, data=[61, 0]),
   midi.NoteOnEvent(tick=2, channel=0, data=[68, 0]),
   midi.NoteOnEvent(tick=2, channel=0, data=[55, 0]),
   midi.NoteOnEvent(tick=2, channel=0, data=[73, 0]),
   midi.NoteOnEvent(tick=2, channel=0, data=[51, 0]),
   midi.NoteOnEvent(tick=0, channel=0, data=[80, 0]),
   midi.NoteOnEvent(tick=27, channel=0, data=[82, 87]),
   midi.NoteOnEvent(tick=2, channel=0, data=[73, 78]),
   midi.NoteOnEvent(tick=1, channel=0, data=[70, 74]),
   midi.NoteOnEvent(tick=14, channel=0, data=[70, 0]),
   midi.NoteOnEvent(tick=6, channel=0, data=[73, 0]),
   midi.NoteOnEvent(tick=2, channel=0, data=[82, 0]),
   midi.ControlChangeEvent(tick=4, channel=0, data=[64, 56]),
   midi.ControlChangeEvent(tick=4, channel=0, data=[64, 0]),
   midi.NoteOnEvent(tick=22, channel=0, data=[83, 93]),
   midi.NoteOnEvent(tick=1, channel=0, data=[56, 58]),
   midi.NoteOnEvent(tick=0, channel=0, data=[44, 59]),
   midi.NoteOnEvent(tick=0, channel=0, data=[74, 85]),
   midi.NoteOnEvent(tick=1, channel=0, data=[71, 69]),
   midi.ControlChangeEvent(tick=5, channel=0, data=[64, 104]),
   midi.NoteOnEvent(tick=4, channel=0, data=[71, 0]),
   midi.ControlChangeEvent(tick=0, channel=0, data=[64, 127]),
   midi.NoteOnEvent(tick=6, channel=0, data=[74, 0]),
   midi.NoteOnEvent(tick=3, channel=0, data=[44, 0]),
   midi.NoteOnEvent(tick=0, channel=0, data=[56, 0]),
   midi.NoteOnEvent(tick=2, channel=0, data=[83, 0]),
   midi.NoteOnEvent(tick=32, channel=0, data=[84, 93]),
   midi.NoteOnEvent(tick=2, channel=0, data=[75, 71]),
   midi.NoteOnEvent(tick=1, channel=0, data=[72, 70]),
   midi.ControlChangeEvent(tick=15, channel=0, data=[64, 104]),
   midi.ControlChangeEvent(tick=4, channel=0, data=[64, 40]),
   midi.ControlChangeEvent(tick=4, channel=0, data=[64, 0]),
   midi.ControlChangeEvent(tick=12, channel=0, data=[64, 88]),
   midi.NoteOnEvent(tick=2, channel=0, data=[84, 0]),
   midi.ControlChangeEvent(tick=2, channel=0, data=[64, 127]),
   midi.NoteOnEvent(tick=8, channel=0, data=[72, 0]),
   midi.NoteOnEvent(tick=3, channel=0, data=[56, 35]),
   midi.NoteOnEvent(tick=1, channel=0, data=[60, 46]),
   midi.NoteOnEvent(tick=7, channel=0, data=[75, 0]),
   midi.NoteOnEvent(tick=0, channel=0, data=[51, 24]),
   midi.NoteOnEvent(tick=1, channel=0, data=[60, 0]),
   midi.NoteOnEvent(tick=0, channel=0, data=[56, 0]),
   midi.NoteOnEvent(tick=7, channel=0, data=[51, 0]),
   midi.NoteOnEvent(tick=25, channel=0, data=[83, 90]),
   midi.NoteOnEvent(tick=0, channel=0, data=[71, 68]),
   midi.NoteOnEvent(tick=3, channel=0, data=[74, 73]),
   midi.NoteOnEvent(tick=7, channel=0, data=[74, 0]),
   midi.NoteOnEvent(tick=0, channel=0, data=[71, 0]),
   midi.NoteOnEvent(tick=10, channel=0, data=[83, 0]),
   midi.ControlChangeEvent(tick=12, channel=0, data=[64, 0]),
   midi.NoteOnEvent(tick=20, channel=0, data=[51, 60]),
   midi.NoteOnEvent(tick=0, channel=0, data=[39, 58]),
   midi.NoteOnEvent(tick=0, channel=0, data=[84, 93]),
   midi.NoteOnEvent(tick=1, channel=0, data=[75, 78]),
   midi.NoteOnEvent(tick=1, channel=0, data=[72, 77]),
   midi.ControlChangeEvent(tick=6, channel=0, data=[64, 127]),
   midi.NoteOnEvent(tick=8, channel=0, data=[51, 0]),
   midi.NoteOnEvent(tick=1, channel=0, data=[39, 0]),
   midi.NoteOnEvent(tick=9, channel=0, data=[84, 0]),
   midi.NoteOnEvent(tick=1, channel=0, data=[75, 0]),
   midi.NoteOnEvent(tick=4, channel=0, data=[72, 0]),
   midi.NoteOnEvent(tick=63, channel=0, data=[83, 86]),
   midi.NoteOnEvent(tick=3, channel=0, data=[71, 65]),
   midi.NoteOnEvent(tick=1, channel=0, data=[74, 69]),
   midi.NoteOnEvent(tick=0, channel=0, data=[60, 60]),
   midi.NoteOnEvent(tick=1, channel=0, data=[56, 48]),
   midi.NoteOnEvent(tick=1, channel=0, data=[51, 50]),
   midi.NoteOnEvent(tick=7, channel=0, data=[60, 0]),
   midi.NoteOnEvent(tick=1, channel=0, data=[74, 0]),
   midi.NoteOnEvent(tick=1, channel=0, data=[56, 0]),
   midi.NoteOnEvent(tick=0, channel=0, data=[71, 0]),
   midi.NoteOnEvent(tick=5, channel=0, data=[83, 0]),
   midi.NoteOnEvent(tick=0, channel=0, data=[51, 0]),
   midi.NoteOnEvent(tick=31, channel=0, data=[84, 92]),
   midi.NoteOnEvent(tick=2, channel=0, data=[75, 70]),
   midi.NoteOnEvent(tick=0, channel=0, data=[72, 74]),
   midi.ControlChangeEvent(tick=19, channel=0, data=[64, 88]),
   midi.ControlChangeEvent(tick=4, channel=0, data=[64, 56]),
   midi.ControlChangeEvent(tick=4, channel=0, data=[64, 40]),
   midi.ControlChangeEvent(tick=4, channel=0, data=[64, 0]),
   midi.NoteOnEvent(tick=14, channel=0, data=[56, 72]),
   midi.NoteOnEvent(tick=6, channel=0, data=[44, 36]),
   midi.NoteOnEvent(tick=7, channel=0, data=[44, 0]),
   midi.NoteOnEvent(tick=4, channel=0, data=[56, 0]),
   midi.NoteOnEvent(tick=33, channel=0, data=[55, 77]),
   midi.NoteOnEvent(tick=0, channel=0, data=[43, 67]),
   midi.NoteOnEvent(tick=8, channel=0, data=[55, 0]),
   midi.NoteOnEvent(tick=4, channel=0, data=[43, 0]),
   midi.NoteOnEvent(tick=34, channel=0, data=[56, 75]),
   midi.NoteOnEvent(tick=0, channel=0, data=[44, 70]),
   midi.NoteOnEvent(tick=10, channel=0, data=[44, 0]),
   midi.NoteOnEvent(tick=2, channel=0, data=[56, 0]),
   midi.NoteOnEvent(tick=35, channel=0, data=[60, 80]),
   midi.NoteOnEvent(tick=4, channel=0, data=[48, 66]),
   midi.NoteOnEvent(tick=7, channel=0, data=[48, 0]),
   midi.NoteOnEvent(tick=4, channel=0, data=[60, 0]),
   midi.NoteOnEvent(tick=39, channel=0, data=[63, 76]),
   midi.NoteOnEvent(tick=1, channel=0, data=[51, 75]),
   midi.NoteOnEvent(tick=11, channel=0, data=[63, 0]),
   midi.NoteOnEvent(tick=1, channel=0, data=[51, 0]),
   midi.ControlChangeEvent(tick=2, channel=0, data=[64, 72]),
   midi.ControlChangeEvent(tick=4, channel=0, data=[64, 127]),
   midi.NoteOnEvent(tick=11, channel=0, data=[84, 0]),
   midi.ControlChangeEvent(tick=1, channel=0, data=[64, 104]),
   midi.NoteOnEvent(tick=4, channel=0, data=[75, 0]),
   midi.ControlChangeEvent(tick=0, channel=0, data=[64, 88]),
   midi.ControlChangeEvent(tick=4, channel=0, data=[64, 56]),
   midi.NoteOnEvent(tick=2, channel=0, data=[72, 0]),
   midi.ControlChangeEvent(tick=2, channel=0, data=[64, 0]),
   midi.ControlChangeEvent(tick=52, channel=0, data=[64, 56]),
   midi.ControlChangeEvent(tick=4, channel=0, data=[64, 104]),
   midi.ControlChangeEvent(tick=4, channel=0, data=[64, 127]),
   midi.NoteOnEvent(tick=2, channel=0, data=[75, 76]),
   midi.NoteOnEvent(tick=1, channel=0, data=[45, 63]),
   midi.NoteOnEvent(tick=1, channel=0, data=[57, 50]),
   midi.NoteOnEvent(tick=3, channel=0, data=[72, 63]),
   midi.NoteOnEvent(tick=5, channel=0, data=[45, 0]),
   midi.NoteOnEvent(tick=5, channel=0, data=[72, 0]),
   midi.NoteOnEvent(tick=0, channel=0, data=[57, 0]),
   midi.NoteOnEvent(tick=13, channel=0, data=[75, 0]),
   midi.ControlChangeEvent(tick=7, channel=0, data=[64, 88]),
   midi.ControlChangeEvent(tick=4, channel=0, data=[64, 56]),
   midi.ControlChangeEvent(tick=4, channel=0, data=[64, 24]),
   midi.ControlChangeEvent(tick=3, channel=0, data=[64, 0]),
   midi.NoteOnEvent(tick=46, channel=0, data=[76, 78]),
   midi.NoteOnEvent(tick=3, channel=0, data=[73, 60]),
   midi.NoteOnEvent(tick=1, channel=0, data=[46, 54]),
   midi.NoteOnEvent(tick=0, channel=0, data=[58, 50]),
   midi.ControlChangeEvent(tick=8, channel=0, data=[64, 104]),
   midi.ControlChangeEvent(tick=4, channel=0, data=[64, 127]),
   midi.NoteOnEvent(tick=3, channel=0, data=[46, 0]),
   midi.NoteOnEvent(tick=3, channel=0, data=[58, 0]),
   midi.NoteOnEvent(tick=6, channel=0, data=[73, 0]),
   midi.NoteOnEvent(tick=1, channel=0, data=[76, 0]),
   midi.NoteOnEvent(tick=25, channel=0, data=[77, 79]),
   midi.NoteOnEvent(tick=3, channel=0, data=[73, 48]),
   midi.ControlChangeEvent(tick=15, channel=0, data=[64, 56]),
   midi.ControlChangeEvent(tick=4, channel=0, data=[64, 0]),
   midi.ControlChangeEvent(tick=15, channel=0, data=[64, 40]),
   midi.ControlChangeEvent(tick=4, channel=0, data=[64, 72]),
   midi.ControlChangeEvent(tick=4, channel=0, data=[64, 127]),
   midi.NoteOnEvent(tick=2, channel=0, data=[61, 51]),
   midi.NoteOnEvent(tick=7, channel=0, data=[51, 42]),
   midi.NoteOnEvent(tick=3, channel=0, data=[55, 36]),
   midi.NoteOnEvent(tick=6, channel=0, data=[61, 0]),
   midi.NoteOnEvent(tick=2, channel=0, data=[55, 0]),
   midi.NoteOnEvent(tick=1, channel=0, data=[73, 0]),
   midi.NoteOnEvent(tick=4, channel=0, data=[51, 0]),
   midi.NoteOnEvent(tick=7, channel=0, data=[77, 0]),
   midi.NoteOnEvent(tick=21, channel=0, data=[73, 78]),
   midi.NoteOnEvent(tick=4, channel=0, data=[70, 53]),
   midi.ControlChangeEvent(tick=5, channel=0, data=[64, 88]),
   midi.ControlChangeEvent(tick=4, channel=0, data=[64, 56]),
   midi.ControlChangeEvent(tick=4, channel=0, data=[64, 40]),
   midi.ControlChangeEvent(tick=4, channel=0, data=[64, 0]),
   midi.NoteOnEvent(tick=30, channel=0, data=[39, 66]),
   midi.NoteOnEvent(tick=1, channel=0, data=[51, 76]),
   midi.NoteOnEvent(tick=13, channel=0, data=[51, 0]),
   midi.NoteOnEvent(tick=4, channel=0, data=[39, 0]),
   midi.NoteOnEvent(tick=28, channel=0, data=[70, 0]),
   midi.NoteOnEvent(tick=3, channel=0, data=[52, 85]),
   midi.NoteOnEvent(tick=0, channel=0, data=[40, 74]),
   midi.NoteOnEvent(tick=16, channel=0, data=[40, 0]),
   midi.NoteOnEvent(tick=0, channel=0, data=[52, 0]),
   midi.NoteOnEvent(tick=31, channel=0, data=[53, 82]),
   midi.NoteOnEvent(tick=2, channel=0, data=[41, 69]),
   midi.NoteOnEvent(tick=11, channel=0, data=[41, 0]),
   midi.NoteOnEvent(tick=2, channel=0, data=[53, 0]),
   midi.NoteOnEvent(tick=32, channel=0, data=[54, 84]),
   midi.NoteOnEvent(tick=0, channel=0, data=[42, 72]),
   midi.NoteOnEvent(tick=16, channel=0, data=[42, 0]),
   midi.NoteOnEvent(tick=0, channel=0, data=[54, 0]),
   midi.NoteOnEvent(tick=9, channel=0, data=[73, 0]),
   midi.NoteOnEvent(tick=29, channel=0, data=[73, 63]),
   midi.NoteOnEvent(tick=0, channel=0, data=[76, 81]),
   midi.NoteOnEvent(tick=3, channel=0, data=[43, 69]),
   midi.NoteOnEvent(tick=0, channel=0, data=[55, 72]),
   midi.NoteOnEvent(tick=12, channel=0, data=[43, 0]),
   midi.ControlChangeEvent(tick=4, channel=0, data=[64, 40]),
   midi.NoteOnEvent(tick=4, channel=0, data=[55, 0]),
   midi.ControlChangeEvent(tick=0, channel=0, data=[64, 104]),
   midi.ControlChangeEvent(tick=3, channel=0, data=[64, 127]),
   midi.NoteOnEvent(tick=4, channel=0, data=[73, 0]),
   midi.NoteOnEvent(tick=2, channel=0, data=[76, 0]),
   midi.NoteOnEvent(tick=21, channel=0, data=[77, 81]),
   midi.NoteOnEvent(tick=3, channel=0, data=[73, 51]),
   midi.ControlChangeEvent(tick=15, channel=0, data=[64, 72]),
   midi.ControlChangeEvent(tick=4, channel=0, data=[64, 0]),
   midi.ControlChangeEvent(tick=21, channel=0, data=[64, 40]),
   midi.ControlChangeEvent(tick=4, channel=0, data=[64, 104]),
   midi.NoteOnEvent(tick=2, channel=0, data=[61, 53]),
   midi.ControlChangeEvent(tick=2, channel=0, data=[64, 127]),
   midi.NoteOnEvent(tick=2, channel=0, data=[51, 49]),
   midi.NoteOnEvent(tick=1, channel=0, data=[55, 47]),
   midi.NoteOnEvent(tick=5, channel=0, data=[61, 0]),
   midi.NoteOnEvent(tick=3, channel=0, data=[55, 0]),
   midi.NoteOnEvent(tick=5, channel=0, data=[73, 0]),
   midi.NoteOnEvent(tick=3, channel=0, data=[51, 0]),
   midi.NoteOnEvent(tick=2, channel=0, data=[77, 0]),
   midi.NoteOnEvent(tick=27, channel=0, data=[73, 78]),
   midi.NoteOnEvent(tick=7, channel=0, data=[70, 45]),
   midi.ControlChangeEvent(tick=1, channel=0, data=[64, 88]),
   midi.ControlChangeEvent(tick=4, channel=0, data=[64, 24]),
   midi.ControlChangeEvent(tick=3, channel=0, data=[64, 0]),
   midi.ControlChangeEvent(tick=29, channel=0, data=[64, 104]),
   midi.ControlChangeEvent(tick=4, channel=0, data=[64, 127]),
   midi.NoteOnEvent(tick=7, channel=0, data=[51, 74]),
   midi.NoteOnEvent(tick=1, channel=0, data=[39, 60]),
   midi.NoteOnEvent(tick=14, channel=0, data=[51, 0]),
   midi.NoteOnEvent(tick=2, channel=0, data=[39, 0]),
   midi.ControlChangeEvent(tick=9, channel=0, data=[64, 104]),
   midi.ControlChangeEvent(tick=4, channel=0, data=[64, 88]),
   midi.ControlChangeEvent(tick=4, channel=0, data=[64, 56]),
   midi.ControlChangeEvent(tick=4, channel=0, data=[64, 24]),
   midi.ControlChangeEvent(tick=4, channel=0, data=[64, 0]),
   midi.NoteOnEvent(tick=6, channel=0, data=[52, 79]),
   midi.NoteOnEvent(tick=2, channel=0, data=[40, 54]),
   midi.NoteOnEvent(tick=11, channel=0, data=[52, 0]),
   midi.NoteOnEvent(tick=2, channel=0, data=[40, 0]),
   midi.NoteOnEvent(tick=21, channel=0, data=[70, 0]),
   midi.NoteOnEvent(tick=12, channel=0, data=[53, 77]),
   midi.NoteOnEvent(tick=2, channel=0, data=[41, 55]),
   midi.NoteOnEvent(tick=8, channel=0, data=[53, 0]),
   midi.NoteOnEvent(tick=3, channel=0, data=[41, 0]),
   midi.NoteOnEvent(tick=32, channel=0, data=[55, 77]),
   midi.NoteOnEvent(tick=3, channel=0, data=[43, 66]),
   midi.NoteOnEvent(tick=6, channel=0, data=[43, 0]),
   midi.NoteOnEvent(tick=5, channel=0, data=[55, 0]),
   midi.NoteOnEvent(tick=12, channel=0, data=[73, 0]),
   midi.NoteOnEvent(tick=26, channel=0, data=[76, 86]),
   midi.NoteOnEvent(tick=4, channel=0, data=[72, 65]),
   midi.NoteOnEvent(tick=1, channel=0, data=[56, 61]),
   midi.NoteOnEvent(tick=1, channel=0, data=[44, 67]),
   midi.ControlChangeEvent(tick=3, channel=0, data=[64, 72]),
   midi.NoteOnEvent(tick=3, channel=0, data=[72, 0]),
   midi.ControlChangeEvent(tick=2, channel=0, data=[64, 127]),
   midi.NoteOnEvent(tick=4, channel=0, data=[44, 0]),
   midi.NoteOnEvent(tick=2, channel=0, data=[56, 0]),
   midi.NoteOnEvent(tick=12, channel=0, data=[76, 0]),
   midi.NoteOnEvent(tick=20, channel=0, data=[77, 88]),
   midi.NoteOnEvent(tick=5, channel=0, data=[72, 66]),
   midi.ControlChangeEvent(tick=6, channel=0, data=[64, 40]),
   midi.ControlChangeEvent(tick=4, channel=0, data=[64, 0]),
   midi.ControlChangeEvent(tick=28, channel=0, data=[64, 72]),
   midi.ControlChangeEvent(tick=3, channel=0, data=[64, 127]),
   midi.NoteOnEvent(tick=1, channel=0, data=[56, 50]),
   midi.NoteOnEvent(tick=1, channel=0, data=[60, 61]),
   midi.NoteOnEvent(tick=2, channel=0, data=[51, 51]),
   midi.NoteOnEvent(tick=4, channel=0, data=[60, 0]),
   midi.NoteOnEvent(tick=2, channel=0, data=[56, 0]),
   midi.NoteOnEvent(tick=8, channel=0, data=[51, 0]),
   midi.NoteOnEvent(tick=9, channel=0, data=[77, 0]),
   midi.NoteOnEvent(tick=1, channel=0, data=[72, 0]),
   midi.NoteOnEvent(tick=22, channel=0, data=[79, 87]),
   midi.NoteOnEvent(tick=27, channel=0, data=[79, 0]),
   midi.ControlChangeEvent(tick=5, channel=0, data=[64, 56]),
   midi.ControlChangeEvent(tick=4, channel=0, data=[64, 0]),
   midi.NoteOnEvent(tick=13, channel=0, data=[51, 67]),
   midi.NoteOnEvent(tick=0, channel=0, data=[77, 89]),
   midi.NoteOnEvent(tick=1, channel=0, data=[39, 53]),
   midi.NoteOnEvent(tick=3, channel=0, data=[72, 65]),
   midi.NoteOnEvent(tick=6, channel=0, data=[39, 0]),
   midi.ControlChangeEvent(tick=1, channel=0, data=[64, 72]),
   midi.NoteOnEvent(tick=3, channel=0, data=[72, 0]),
   midi.ControlChangeEvent(tick=1, channel=0, data=[64, 127]),
   midi.NoteOnEvent(tick=1, channel=0, data=[51, 0]),
   midi.NoteOnEvent(tick=11, channel=0, data=[77, 0]),
   midi.NoteOnEvent(tick=24, channel=0, data=[72, 84]),
   midi.ControlChangeEvent(tick=24, channel=0, data=[64, 104]),
   midi.ControlChangeEvent(tick=4, channel=0, data=[64, 24]),
   midi.ControlChangeEvent(tick=4, channel=0, data=[64, 0]),
   midi.ControlChangeEvent(tick=12, channel=0, data=[64, 24]),
   midi.NoteOnEvent(tick=3, channel=0, data=[60, 63]),
   midi.NoteOnEvent(tick=0, channel=0, data=[56, 50]),
   midi.NoteOnEvent(tick=1, channel=0, data=[51, 54]),
   midi.NoteOnEvent(tick=1, channel=0, data=[75, 76]),
   midi.ControlChangeEvent(tick=0, channel=0, data=[64, 56]),
   midi.ControlChangeEvent(tick=4, channel=0, data=[64, 104]),
   midi.NoteOnEvent(tick=3, channel=0, data=[60, 0]),
   midi.ControlChangeEvent(tick=1, channel=0, data=[64, 127]),
   midi.NoteOnEvent(tick=2, channel=0, data=[56, 0]),
   midi.NoteOnEvent(tick=6, channel=0, data=[51, 0]),
   midi.NoteOnEvent(tick=14, channel=0, data=[75, 0]),
   midi.NoteOnEvent(tick=2, channel=0, data=[72, 0]),
   midi.NoteOnEvent(tick=10, channel=0, data=[80, 88]),
   midi.ControlChangeEvent(tick=14, channel=0, data=[64, 104]),
   midi.ControlChangeEvent(tick=4, channel=0, data=[64, 24]),
   midi.ControlChangeEvent(tick=4, channel=0, data=[64, 0]),
   midi.NoteOnEvent(tick=7, channel=0, data=[80, 0]),
   midi.ControlChangeEvent(tick=21, channel=0, data=[64, 40]),
   midi.NoteOnEvent(tick=3, channel=0, data=[84, 90]),
   midi.ControlChangeEvent(tick=2, channel=0, data=[64, 88]),
   midi.NoteOnEvent(tick=0, channel=0, data=[56, 64]),
   midi.NoteOnEvent(tick=0, channel=0, data=[72, 68]),
   midi.NoteOnEvent(tick=1, channel=0, data=[75, 65]),
   midi.NoteOnEvent(tick=0, channel=0, data=[44, 64]),
   midi.ControlChangeEvent(tick=3, channel=0, data=[64, 127]),
   midi.NoteOnEvent(tick=7, channel=0, data=[56, 0]),
   midi.ControlChangeEvent(tick=5, channel=0, data=[64, 88]),
   midi.NoteOnEvent(tick=2, channel=0, data=[44, 0]),
   midi.ControlChangeEvent(tick=2, channel=0, data=[64, 56]),
   midi.ControlChangeEvent(tick=4, channel=0, data=[64, 40]),
   midi.ControlChangeEvent(tick=4, channel=0, data=[64, 24]),
   midi.ControlChangeEvent(tick=4, channel=0, data=[64, 0]),
   midi.NoteOnEvent(tick=17, channel=0, data=[39, 74]),
   midi.NoteOnEvent(tick=0, channel=0, data=[51, 80]),
   midi.NoteOnEvent(tick=14, channel=0, data=[51, 0]),
   midi.NoteOnEvent(tick=3, channel=0, data=[39, 0]),
   midi.NoteOnEvent(tick=32, channel=0, data=[52, 71]),
   midi.NoteOnEvent(tick=0, channel=0, data=[40, 68]),
   midi.NoteOnEvent(tick=15, channel=0, data=[52, 0]),
   midi.NoteOnEvent(tick=3, channel=0, data=[40, 0]),
   midi.NoteOnEvent(tick=30, channel=0, data=[53, 79]),
   midi.NoteOnEvent(tick=2, channel=0, data=[41, 71]),
   midi.NoteOnEvent(tick=14, channel=0, data=[53, 0]),
   midi.NoteOnEvent(tick=3, channel=0, data=[41, 0]),
   midi.NoteOnEvent(tick=27, channel=0, data=[54, 86]),
   midi.NoteOnEvent(tick=3, channel=0, data=[42, 71]),
   midi.NoteOnEvent(tick=13, channel=0, data=[54, 0]),
   midi.NoteOnEvent(tick=2, channel=0, data=[42, 0]),
   midi.NoteOnEvent(tick=29, channel=0, data=[55, 78]),
   midi.NoteOnEvent(tick=2, channel=0, data=[43, 74]),
   midi.NoteOnEvent(tick=11, channel=0, data=[55, 0]),
   midi.NoteOnEvent(tick=2, channel=0, data=[43, 0]),
   midi.NoteOnEvent(tick=37, channel=0, data=[44, 74]),
   midi.NoteOnEvent(tick=0, channel=0, data=[56, 81]),
   midi.NoteOnEvent(tick=16, channel=0, data=[56, 0]),
   midi.NoteOnEvent(tick=0, channel=0, data=[44, 0]),
   midi.NoteOnEvent(tick=23, channel=0, data=[72, 0]),
   midi.NoteOnEvent(tick=3, channel=0, data=[75, 0]),
   midi.ControlChangeEvent(tick=0, channel=0, data=[64, 24]),
   midi.ControlChangeEvent(tick=4, channel=0, data=[64, 56]),
   midi.NoteOnEvent(tick=4, channel=0, data=[45, 78]),
   midi.NoteOnEvent(tick=1, channel=0, data=[57, 82]),
   midi.ControlChangeEvent(tick=0, channel=0, data=[64, 88]),
   midi.ControlChangeEvent(tick=4, channel=0, data=[64, 104]),
   midi.NoteOnEvent(tick=3, channel=0, data=[45, 0]),
   midi.ControlChangeEvent(tick=1, channel=0, data=[64, 127]),
   midi.NoteOnEvent(tick=5, channel=0, data=[84, 0]),
   midi.NoteOnEvent(tick=2, channel=0, data=[57, 0]),
   midi.ControlChangeEvent(tick=13, channel=0, data=[64, 72]),
   midi.ControlChangeEvent(tick=4, channel=0, data=[64, 24]),
   midi.ControlChangeEvent(tick=4, channel=0, data=[64, 0]),
   midi.NoteOnEvent(tick=16, channel=0, data=[58, 78]),
   midi.NoteOnEvent(tick=0, channel=0, data=[46, 80]),
   midi.NoteOnEvent(tick=14, channel=0, data=[46, 0]),
   midi.NoteOnEvent(tick=1, channel=0, data=[58, 0]),
   midi.ControlChangeEvent(tick=6, channel=0, data=[64, 72]),
   midi.ControlChangeEvent(tick=4, channel=0, data=[64, 127]),
   midi.NoteOnEvent(tick=23, channel=0, data=[79, 80]),
   midi.NoteOnEvent(tick=47, channel=0, data=[82, 78]),
   midi.NoteOnEvent(tick=7, channel=0, data=[61, 63]),
   midi.NoteOnEvent(tick=4, channel=0, data=[55, 53]),
   midi.NoteOnEvent(tick=0, channel=0, data=[51, 49]),
   midi.NoteOnEvent(tick=4, channel=0, data=[79, 0]),
   midi.NoteOnEvent(tick=2, channel=0, data=[55, 0]),
   midi.NoteOnEvent(tick=4, channel=0, data=[61, 0]),
   midi.NoteOnEvent(tick=8, channel=0, data=[51, 0]),
   midi.NoteOnEvent(tick=8, channel=0, data=[82, 0]),
   midi.NoteOnEvent(tick=13, channel=0, data=[85, 84]),
   midi.ControlChangeEvent(tick=25, channel=0, data=[64, 88]),
   midi.ControlChangeEvent(tick=4, channel=0, data=[64, 24]),
   midi.ControlChangeEvent(tick=4, channel=0, data=[64, 0]),
   midi.NoteOnEvent(tick=11, channel=0, data=[85, 0]),
   midi.NoteOnEvent(tick=9, channel=0, data=[89, 86]),
   midi.NoteOnEvent(tick=2, channel=0, data=[51, 65]),
   midi.NoteOnEvent(tick=0, channel=0, data=[39, 56]),
   midi.NoteOnEvent(tick=1, channel=0, data=[79, 67]),
   midi.ControlChangeEvent(tick=9, channel=0, data=[64, 88]),
   midi.NoteOnEvent(tick=4, channel=0, data=[39, 0]),
   midi.ControlChangeEvent(tick=0, channel=0, data=[64, 127]),
   midi.NoteOnEvent(tick=2, channel=0, data=[51, 0]),
   midi.NoteOnEvent(tick=18, channel=0, data=[89, 0]),
   midi.NoteOnEvent(tick=13, channel=0, data=[87, 80]),
   midi.NoteOnEvent(tick=17, channel=0, data=[79, 0]),
   midi.NoteOnEvent(tick=32, channel=0, data=[61, 57]),
   midi.NoteOnEvent(tick=6, channel=0, data=[51, 46]),
   midi.NoteOnEvent(tick=0, channel=0, data=[55, 48]),
   midi.NoteOnEvent(tick=5, channel=0, data=[61, 0]),
   midi.NoteOnEvent(tick=3, channel=0, data=[55, 0]),
   midi.NoteOnEvent(tick=5, channel=0, data=[51, 0]),
   midi.NoteOnEvent(tick=14, channel=0, data=[87, 0]),
   midi.NoteOnEvent(tick=15, channel=0, data=[85, 84]),
   midi.NoteOnEvent(tick=25, channel=0, data=[85, 0]),
   midi.ControlChangeEvent(tick=15, channel=0, data=[64, 56]),
   midi.ControlChangeEvent(tick=4, channel=0, data=[64, 0]),
   midi.NoteOnEvent(tick=4, channel=0, data=[75, 78]),
   midi.NoteOnEvent(tick=7, channel=0, data=[43, 57]),
   midi.NoteOnEvent(tick=1, channel=0, data=[55, 63]),
   midi.NoteOnEvent(tick=12, channel=0, data=[43, 0]),
   midi.ControlChangeEvent(tick=4, channel=0, data=[64, 72]),
   midi.NoteOnEvent(tick=4, channel=0, data=[55, 0]),
   midi.ControlChangeEvent(tick=0, channel=0, data=[64, 127]),
   midi.NoteOnEvent(tick=7, channel=0, data=[75, 0]),
   midi.NoteOnEvent(tick=14, channel=0, data=[79, 84]),
   midi.NoteOnEvent(tick=37, channel=0, data=[79, 0]),
   midi.NoteOnEvent(tick=11, channel=0, data=[82, 81]),
   midi.NoteOnEvent(tick=8, channel=0, data=[61, 45]),
   midi.NoteOnEvent(tick=3, channel=0, data=[55, 47]),
   midi.NoteOnEvent(tick=5, channel=0, data=[61, 0]),
   midi.NoteOnEvent(tick=0, channel=0, data=[51, 37]),
   midi.NoteOnEvent(tick=2, channel=0, data=[55, 0]),
   midi.NoteOnEvent(tick=7, channel=0, data=[51, 0]),
   midi.NoteOnEvent(tick=10, channel=0, data=[82, 0]),
   midi.NoteOnEvent(tick=12, channel=0, data=[87, 89]),
   midi.NoteOnEvent(tick=3, channel=0, data=[75, 71]),
   midi.NoteOnEvent(tick=2, channel=0, data=[79, 78]),
   midi.ControlChangeEvent(tick=16, channel=0, data=[64, 104]),
   midi.ControlChangeEvent(tick=4, channel=0, data=[64, 24]),
   midi.ControlChangeEvent(tick=4, channel=0, data=[64, 0]),
   midi.NoteOnEvent(tick=7, channel=0, data=[87, 0]),
   midi.NoteOnEvent(tick=2, channel=0, data=[79, 0]),
   midi.NoteOnEvent(tick=2, channel=0, data=[75, 0]),
   midi.ControlChangeEvent(tick=6, channel=0, data=[64, 56]),
   midi.ControlChangeEvent(tick=4, channel=0, data=[64, 127]),
   midi.NoteOnEvent(tick=4, channel=0, data=[39, 48]),
   midi.NoteOnEvent(tick=2, channel=0, data=[51, 49]),
   midi.NoteOnEvent(tick=12, channel=0, data=[51, 0]),
   midi.NoteOnEvent(tick=2, channel=0, data=[39, 0]),
   midi.NoteOnEvent(tick=33, channel=0, data=[79, 87]),
   midi.NoteOnEvent(tick=3, channel=0, data=[67, 68]),
   midi.NoteOnEvent(tick=2, channel=0, data=[73, 60]),
   midi.NoteOnEvent(tick=8, channel=0, data=[67, 0]),
   midi.NoteOnEvent(tick=4, channel=0, data=[79, 0]),
   midi.NoteOnEvent(tick=7, channel=0, data=[73, 0]),
   midi.NoteOnEvent(tick=25, channel=0, data=[80, 88]),
   midi.NoteOnEvent(tick=0, channel=0, data=[68, 74]),
   midi.NoteOnEvent(tick=0, channel=0, data=[61, 48]),
   midi.NoteOnEvent(tick=2, channel=0, data=[73, 71]),
   midi.NoteOnEvent(tick=2, channel=0, data=[51, 49]),
   midi.NoteOnEvent(tick=4, channel=0, data=[61, 0]),
   midi.NoteOnEvent(tick=6, channel=0, data=[68, 0]),
   midi.NoteOnEvent(tick=2, channel=0, data=[80, 0]),
   midi.NoteOnEvent(tick=0, channel=0, data=[73, 0]),
   midi.NoteOnEvent(tick=5, channel=0, data=[51, 0]),
   midi.NoteOnEvent(tick=24, channel=0, data=[82, 88]),
   midi.NoteOnEvent(tick=2, channel=0, data=[70, 70]),
   midi.NoteOnEvent(tick=1, channel=0, data=[73, 72]),
   midi.NoteOnEvent(tick=14, channel=0, data=[70, 0]),
   midi.ControlChangeEvent(tick=4, channel=0, data=[64, 88]),
   midi.NoteOnEvent(tick=3, channel=0, data=[73, 0]),
   midi.NoteOnEvent(tick=1, channel=0, data=[82, 0]),
   midi.ControlChangeEvent(tick=0, channel=0, data=[64, 0]),
   midi.NoteOnEvent(tick=28, channel=0, data=[83, 91]),
   midi.NoteOnEvent(tick=1, channel=0, data=[74, 82]),
   midi.NoteOnEvent(tick=0, channel=0, data=[44, 54]),
   midi.NoteOnEvent(tick=1, channel=0, data=[71, 67]),
   midi.NoteOnEvent(tick=1, channel=0, data=[56, 49]),
   midi.ControlChangeEvent(tick=2, channel=0, data=[64, 127]),
   midi.NoteOnEvent(tick=8, channel=0, data=[71, 0]),
   midi.NoteOnEvent(tick=3, channel=0, data=[74, 0]),
   midi.NoteOnEvent(tick=2, channel=0, data=[56, 0]),
   midi.NoteOnEvent(tick=1, channel=0, data=[44, 0]),
   midi.NoteOnEvent(tick=1, channel=0, data=[83, 0]),
   midi.NoteOnEvent(tick=32, channel=0, data=[84, 92]),
   midi.NoteOnEvent(tick=1, channel=0, data=[72, 80]),
   midi.NoteOnEvent(tick=1, channel=0, data=[75, 76]),
   midi.ControlChangeEvent(tick=24, channel=0, data=[64, 104]),
   midi.ControlChangeEvent(tick=4, channel=0, data=[64, 56]),
   midi.ControlChangeEvent(tick=4, channel=0, data=[64, 24]),
   midi.ControlChangeEvent(tick=12, channel=0, data=[64, 104]),
   midi.NoteOnEvent(tick=2, channel=0, data=[75, 0]),
   midi.ControlChangeEvent(tick=2, channel=0, data=[64, 127]),
   midi.NoteOnEvent(tick=4, channel=0, data=[60, 59]),
   midi.NoteOnEvent(tick=0, channel=0, data=[51, 54]),
   midi.NoteOnEvent(tick=0, channel=0, data=[56, 39]),
   midi.NoteOnEvent(tick=7, channel=0, data=[60, 0]),
   midi.NoteOnEvent(tick=2, channel=0, data=[56, 0]),
   midi.NoteOnEvent(tick=0, channel=0, data=[72, 0]),
   midi.NoteOnEvent(tick=1, channel=0, data=[84, 0]),
   midi.NoteOnEvent(tick=7, channel=0, data=[51, 0]),
   midi.NoteOnEvent(tick=31, channel=0, data=[84, 84]),
   midi.NoteOnEvent(tick=2, channel=0, data=[72, 70]),
   midi.NoteOnEvent(tick=2, channel=0, data=[76, 74]),
   midi.ControlChangeEvent(tick=8, channel=0, data=[64, 56]),
   midi.ControlChangeEvent(tick=5, channel=0, data=[64, 0]),
   midi.NoteOnEvent(tick=34, channel=0, data=[43, 56]),
   midi.NoteOnEvent(tick=1, channel=0, data=[55, 55]),
   midi.ControlChangeEvent(tick=1, channel=0, data=[64, 127]),
   midi.NoteOnEvent(tick=5, channel=0, data=[43, 0]),
   midi.NoteOnEvent(tick=8, channel=0, data=[55, 0]),
   midi.NoteOnEvent(tick=2, channel=0, data=[84, 0]),
   midi.NoteOnEvent(tick=6, channel=0, data=[72, 0]),
   midi.NoteOnEvent(tick=3, channel=0, data=[76, 0]),
   midi.NoteOnEvent(tick=20, channel=0, data=[79, 86]),
   midi.NoteOnEvent(tick=21, channel=0, data=[79, 0]),
   midi.NoteOnEvent(tick=25, channel=0, data=[84, 91]),
   midi.NoteOnEvent(tick=4, channel=0, data=[72, 77]),
   midi.NoteOnEvent(tick=0, channel=0, data=[79, 75]),
   midi.NoteOnEvent(tick=1, channel=0, data=[76, 70]),
   midi.NoteOnEvent(tick=1, channel=0, data=[58, 45]),
   midi.NoteOnEvent(tick=1, channel=0, data=[60, 49]),
   midi.NoteOnEvent(tick=2, channel=0, data=[52, 46]),
   midi.NoteOnEvent(tick=8, channel=0, data=[60, 0]),
   midi.NoteOnEvent(tick=1, channel=0, data=[58, 0]),
   midi.NoteOnEvent(tick=1, channel=0, data=[52, 0]),
   midi.NoteOnEvent(tick=12, channel=0, data=[76, 0]),
   midi.NoteOnEvent(tick=4, channel=0, data=[79, 0]),
   midi.NoteOnEvent(tick=0, channel=0, data=[72, 0]),
   midi.NoteOnEvent(tick=10, channel=0, data=[84, 0]),
   midi.ControlChangeEvent(tick=30, channel=0, data=[64, 104]),
   midi.ControlChangeEvent(tick=4, channel=0, data=[64, 0]),
   midi.NoteOnEvent(tick=32, channel=0, data=[84, 90]),
   midi.NoteOnEvent(tick=1, channel=0, data=[80, 68]),
   midi.NoteOnEvent(tick=0, channel=0, data=[72, 77]),
   midi.NoteOnEvent(tick=2, channel=0, data=[77, 73]),
   midi.NoteOnEvent(tick=1, channel=0, data=[41, 61]),
   midi.NoteOnEvent(tick=3, channel=0, data=[53, 46]),
   midi.ControlChangeEvent(tick=6, channel=0, data=[64, 72]),
   midi.NoteOnEvent(tick=1, channel=0, data=[41, 0]),
   midi.ControlChangeEvent(tick=3, channel=0, data=[64, 127]),
   midi.NoteOnEvent(tick=11, channel=0, data=[53, 0]),
   midi.NoteOnEvent(tick=27, channel=0, data=[84, 0]),
   midi.NoteOnEvent(tick=1, channel=0, data=[72, 0]),
   midi.NoteOnEvent(tick=9, channel=0, data=[77, 0]),
   midi.NoteOnEvent(tick=2, channel=0, data=[80, 0]),
   midi.NoteOnEvent(tick=33, channel=0, data=[84, 91]),
   midi.NoteOnEvent(tick=1, channel=0, data=[56, 47]),
   midi.NoteOnEvent(tick=1, channel=0, data=[80, 67]),
   midi.NoteOnEvent(tick=0, channel=0, data=[72, 77]),
   midi.NoteOnEvent(tick=1, channel=0, data=[53, 51]),
   midi.NoteOnEvent(tick=0, channel=0, data=[60, 45]),
   midi.NoteOnEvent(tick=7, channel=0, data=[77, 42]),
   midi.NoteOnEvent(tick=1, channel=0, data=[60, 0]),
   midi.NoteOnEvent(tick=1, channel=0, data=[53, 0]),
   midi.NoteOnEvent(tick=3, channel=0, data=[56, 0]),
   midi.NoteOnEvent(tick=3, channel=0, data=[77, 0]),
   midi.NoteOnEvent(tick=9, channel=0, data=[72, 0]),
   midi.NoteOnEvent(tick=5, channel=0, data=[80, 0]),
   midi.NoteOnEvent(tick=3, channel=0, data=[84, 0]),
   midi.NoteOnEvent(tick=17, channel=0, data=[77, 93]),
   midi.ControlChangeEvent(tick=25, channel=0, data=[64, 104]),
   midi.ControlChangeEvent(tick=4, channel=0, data=[64, 0]),
   midi.NoteOnEvent(tick=15, channel=0, data=[77, 0]),
   midi.NoteOnEvent(tick=6, channel=0, data=[80, 82]),
   midi.NoteOnEvent(tick=2, channel=0, data=[53, 68]),
   midi.NoteOnEvent(tick=0, channel=0, data=[41, 59]),
   midi.ControlChangeEvent(tick=2, channel=0, data=[64, 72]),
   midi.ControlChangeEvent(tick=4, channel=0, data=[64, 127]),
   midi.NoteOnEvent(tick=10, channel=0, data=[53, 0]),
   midi.NoteOnEvent(tick=2, channel=0, data=[41, 0]),
   midi.NoteOnEvent(tick=14, channel=0, data=[80, 0]),
   midi.NoteOnEvent(tick=16, channel=0, data=[84, 94]),
   midi.NoteOnEvent(tick=1, channel=0, data=[80, 60]),
   midi.NoteOnEvent(tick=2, channel=0, data=[72, 77]),
   midi.NoteOnEvent(tick=1, channel=0, data=[77, 76]),
   midi.NoteOnEvent(tick=42, channel=0, data=[72, 0]),
   midi.NoteOnEvent(tick=5, channel=0, data=[39, 66]),
   midi.NoteOnEvent(tick=0, channel=0, data=[51, 77]),
   midi.NoteOnEvent(tick=5, channel=0, data=[84, 0]),
   midi.NoteOnEvent(tick=3, channel=0, data=[77, 0]),
   midi.NoteOnEvent(tick=2, channel=0, data=[51, 0]),
   midi.NoteOnEvent(tick=3, channel=0, data=[39, 0]),
   midi.NoteOnEvent(tick=7, channel=0, data=[80, 0]),
   midi.NoteOnEvent(tick=29, channel=0, data=[84, 96]),
   midi.NoteOnEvent(tick=0, channel=0, data=[73, 76]),
   midi.NoteOnEvent(tick=1, channel=0, data=[77, 80]),
   midi.ControlChangeEvent(tick=14, channel=0, data=[64, 56]),
   midi.ControlChangeEvent(tick=4, channel=0, data=[64, 0]),
   midi.NoteOnEvent(tick=33, channel=0, data=[37, 56]),
   midi.NoteOnEvent(tick=1, channel=0, data=[49, 57]),
   midi.ControlChangeEvent(tick=7, channel=0, data=[64, 127]),
   midi.NoteOnEvent(tick=9, channel=0, data=[37, 0]),
   midi.NoteOnEvent(tick=1, channel=0, data=[49, 0]),
   midi.NoteOnEvent(tick=88, channel=0, data=[61, 67]),
   midi.NoteOnEvent(tick=4, channel=0, data=[53, 55]),
   midi.NoteOnEvent(tick=1, channel=0, data=[56, 38]),
   midi.NoteOnEvent(tick=7, channel=0, data=[56, 0]),
   midi.NoteOnEvent(tick=0, channel=0, data=[53, 0]),
   midi.NoteOnEvent(tick=2, channel=0, data=[61, 0]),
   midi.NoteOnEvent(tick=6, channel=0, data=[84, 0]),
   midi.NoteOnEvent(tick=19, channel=0, data=[77, 0]),
   midi.NoteOnEvent(tick=5, channel=0, data=[73, 0]),
   midi.NoteOnEvent(tick=5, channel=0, data=[82, 80]),
   midi.ControlChangeEvent(tick=31, channel=0, data=[64, 104]),
   midi.ControlChangeEvent(tick=4, channel=0, data=[64, 0]),
   midi.NoteOnEvent(tick=6, channel=0, data=[82, 0]),
   midi.NoteOnEvent(tick=8, channel=0, data=[80, 81]),
   midi.NoteOnEvent(tick=3, channel=0, data=[53, 70]),
   midi.NoteOnEvent(tick=2, channel=0, data=[41, 58]),
   midi.NoteOnEvent(tick=13, channel=0, data=[41, 0]),
   midi.ControlChangeEvent(tick=0, channel=0, data=[64, 104]),
   midi.NoteOnEvent(tick=2, channel=0, data=[53, 0]),
   midi.ControlChangeEvent(tick=2, channel=0, data=[64, 127]),
   midi.NoteOnEvent(tick=16, channel=0, data=[80, 0]),
   midi.NoteOnEvent(tick=10, channel=0, data=[77, 85]),
   midi.ControlChangeEvent(tick=34, channel=0, data=[64, 72]),
   midi.ControlChangeEvent(tick=4, channel=0, data=[64, 0]),
   midi.NoteOnEvent(tick=12, channel=0, data=[77, 0]),
   midi.NoteOnEvent(tick=2, channel=0, data=[73, 76]),
   midi.NoteOnEvent(tick=6, channel=0, data=[52, 65]),
   midi.NoteOnEvent(tick=3, channel=0, data=[40, 45]),
   midi.ControlChangeEvent(tick=6, channel=0, data=[64, 104]),
   midi.NoteOnEvent(tick=2, channel=0, data=[52, 0]),
   midi.ControlChangeEvent(tick=2, channel=0, data=[64, 127]),
   midi.NoteOnEvent(tick=1, channel=0, data=[40, 0]),
   midi.NoteOnEvent(tick=9, channel=0, data=[73, 0]),
   midi.ControlChangeEvent(tick=30, channel=0, data=[64, 104]),
   midi.ControlChangeEvent(tick=4, channel=0, data=[64, 24]),
   midi.ControlChangeEvent(tick=4, channel=0, data=[64, 0]),
   midi.NoteOnEvent(tick=35, channel=0, data=[39, 56]),
   midi.NoteOnEvent(tick=1, channel=0, data=[51, 65]),
   midi.NoteOnEvent(tick=1, channel=0, data=[84, 86]),
   midi.NoteOnEvent(tick=3, channel=0, data=[75, 65]),
   midi.NoteOnEvent(tick=1, channel=0, data=[72, 66]),
   midi.ControlChangeEvent(tick=4, channel=0, data=[64, 56]),
   midi.ControlChangeEvent(tick=4, channel=0, data=[64, 127]),
   midi.NoteOnEvent(tick=4, channel=0, data=[39, 0]),
   midi.NoteOnEvent(tick=2, channel=0, data=[51, 0]),
   midi.NoteOnEvent(tick=81, channel=0, data=[60, 57]),
   midi.NoteOnEvent(tick=2, channel=0, data=[56, 42]),
   midi.NoteOnEvent(tick=0, channel=0, data=[51, 51]),
   midi.NoteOnEvent(tick=3, channel=0, data=[75, 0]),
   midi.NoteOnEvent(tick=5, channel=0, data=[60, 0]),
   midi.NoteOnEvent(tick=1, channel=0, data=[56, 0]),
   midi.NoteOnEvent(tick=8, channel=0, data=[51, 0]),
   midi.NoteOnEvent(tick=3, channel=0, data=[84, 0]),
   midi.NoteOnEvent(tick=27, channel=0, data=[82, 77]),
   midi.NoteOnEvent(tick=28, channel=0, data=[72, 0]),
   midi.ControlChangeEvent(tick=5, channel=0, data=[64, 104]),
   midi.NoteOnEvent(tick=2, channel=0, data=[82, 0]),
   midi.ControlChangeEvent(tick=2, channel=0, data=[64, 0]),
   midi.NoteOnEvent(tick=7, channel=0, data=[80, 78]),
   midi.NoteOnEvent(tick=8, channel=0, data=[60, 61]),
   midi.NoteOnEvent(tick=4, channel=0, data=[48, 59]),
   midi.NoteOnEvent(tick=4, channel=0, data=[60, 0]),
   midi.NoteOnEvent(tick=5, channel=0, data=[48, 0]),
   midi.ControlChangeEvent(tick=0, channel=0, data=[64, 72]),
   midi.ControlChangeEvent(tick=4, channel=0, data=[64, 127]),
   midi.NoteOnEvent(tick=12, channel=0, data=[80, 0]),
   midi.NoteOnEvent(tick=10, channel=0, data=[75, 74]),
   midi.NoteOnEvent(tick=52, channel=0, data=[75, 0]),
   midi.NoteOnEvent(tick=3, channel=0, data=[57, 52]),
   midi.NoteOnEvent(tick=2, channel=0, data=[45, 54]),
   midi.NoteOnEvent(tick=1, channel=0, data=[72, 70]),
   midi.NoteOnEvent(tick=8, channel=0, data=[57, 0]),
   midi.NoteOnEvent(tick=1, channel=0, data=[45, 0]),
   midi.NoteOnEvent(tick=27, channel=0, data=[72, 0]),
   midi.ControlChangeEvent(tick=9, channel=0, data=[64, 88]),
   midi.ControlChangeEvent(tick=4, channel=0, data=[64, 0]),
   midi.NoteOnEvent(tick=44, channel=0, data=[76, 80]),
   midi.NoteOnEvent(tick=2, channel=0, data=[73, 70]),
   midi.NoteOnEvent(tick=4, channel=0, data=[46, 63]),
   midi.NoteOnEvent(tick=2, channel=0, data=[58, 47]),
   midi.ControlChangeEvent(tick=1, channel=0, data=[64, 56]),
   midi.ControlChangeEvent(tick=4, channel=0, data=[64, 127]),
   midi.NoteOnEvent(tick=10, channel=0, data=[58, 0]),
   midi.NoteOnEvent(tick=0, channel=0, data=[46, 0]),
   midi.NoteOnEvent(tick=2, channel=0, data=[73, 0]),
   midi.NoteOnEvent(tick=4, channel=0, data=[76, 0]),
   midi.NoteOnEvent(tick=23, channel=0, data=[77, 86]),
   midi.NoteOnEvent(tick=6, channel=0, data=[73, 60]),
   midi.ControlChangeEvent(tick=7, channel=0, data=[64, 104]),
   midi.ControlChangeEvent(tick=4, channel=0, data=[64, 0]),
   midi.ControlChangeEvent(tick=24, channel=0, data=[64, 88]),
   midi.ControlChangeEvent(tick=4, channel=0, data=[64, 127]),
   midi.NoteOnEvent(tick=6, channel=0, data=[61, 48]),
   midi.NoteOnEvent(tick=6, channel=0, data=[51, 40]),
   midi.NoteOnEvent(tick=1, channel=0, data=[61, 0]),
   midi.NoteOnEvent(tick=2, channel=0, data=[55, 30]),
   midi.NoteOnEvent(tick=6, channel=0, data=[55, 0]),
   midi.NoteOnEvent(tick=5, channel=0, data=[51, 0]),
   midi.NoteOnEvent(tick=7, channel=0, data=[77, 0]),
   midi.NoteOnEvent(tick=2, channel=0, data=[73, 0]),
   midi.NoteOnEvent(tick=17, channel=0, data=[79, 76]),
   midi.NoteOnEvent(tick=6, channel=0, data=[73, 57]),
   midi.NoteOnEvent(tick=23, channel=0, data=[79, 0]),
   midi.ControlChangeEvent(tick=4, channel=0, data=[64, 56]),
   midi.ControlChangeEvent(tick=3, channel=0, data=[64, 0]),
   midi.NoteOnEvent(tick=7, channel=0, data=[73, 0]),
   midi.NoteOnEvent(tick=7, channel=0, data=[77, 82]),
   midi.NoteOnEvent(tick=1, channel=0, data=[39, 53]),
   midi.NoteOnEvent(tick=1, channel=0, data=[51, 58]),
   midi.NoteOnEvent(tick=2, channel=0, data=[73, 18]),
   midi.ControlChangeEvent(tick=7, channel=0, data=[64, 72]),
   midi.NoteOnEvent(tick=4, channel=0, data=[73, 0]),
   midi.ControlChangeEvent(tick=0, channel=0, data=[64, 127]),
   midi.NoteOnEvent(tick=2, channel=0, data=[39, 0]),
   midi.NoteOnEvent(tick=2, channel=0, data=[51, 0]),
   midi.NoteOnEvent(tick=3, channel=0, data=[77, 0]),
   midi.NoteOnEvent(tick=26, channel=0, data=[67, 69]),
   midi.ControlChangeEvent(tick=20, channel=0, data=[64, 72]),
   midi.ControlChangeEvent(tick=4, channel=0, data=[64, 0]),
   midi.NoteOnEvent(tick=17, channel=0, data=[67, 0]),
   midi.NoteOnEvent(tick=9, channel=0, data=[70, 68]),
   midi.NoteOnEvent(tick=3, channel=0, data=[61, 38]),
   midi.NoteOnEvent(tick=1, channel=0, data=[51, 44]),
   midi.ControlChangeEvent(tick=2, channel=0, data=[64, 104]),
   midi.NoteOnEvent(tick=1, channel=0, data=[55, 33]),
   midi.ControlChangeEvent(tick=3, channel=0, data=[64, 127]),
   midi.NoteOnEvent(tick=2, channel=0, data=[61, 0]),
   midi.NoteOnEvent(tick=2, channel=0, data=[51, 0]),
   midi.NoteOnEvent(tick=2, channel=0, data=[55, 0]),
   midi.NoteOnEvent(tick=23, channel=0, data=[70, 0]),
   midi.NoteOnEvent(tick=6, channel=0, data=[75, 75]),
   midi.ControlChangeEvent(tick=26, channel=0, data=[64, 88]),
   midi.ControlChangeEvent(tick=4, channel=0, data=[64, 24]),
   midi.NoteOnEvent(tick=1, channel=0, data=[75, 0]),
   midi.ControlChangeEvent(tick=3, channel=0, data=[64, 0]),
   midi.NoteOnEvent(tick=19, channel=0, data=[68, 71]),
   midi.NoteOnEvent(tick=1, channel=0, data=[56, 51]),
   midi.NoteOnEvent(tick=0, channel=0, data=[60, 57]),
   midi.NoteOnEvent(tick=10, channel=0, data=[60, 0]),
   midi.NoteOnEvent(tick=4, channel=0, data=[56, 0]),
   midi.NoteOnEvent(tick=84, channel=0, data=[51, 68]),
   midi.NoteOnEvent(tick=1, channel=0, data=[39, 59]),
   midi.NoteOnEvent(tick=14, channel=0, data=[51, 0]),
   midi.NoteOnEvent(tick=1, channel=0, data=[39, 0]),
   midi.NoteOnEvent(tick=86, channel=0, data=[56, 73]),
   midi.NoteOnEvent(tick=2, channel=0, data=[44, 61]),
   midi.NoteOnEvent(tick=14, channel=0, data=[56, 0]),
   midi.NoteOnEvent(tick=3, channel=0, data=[44, 0]),
   midi.NoteOnEvent(tick=87, channel=0, data=[57, 65]),
   midi.NoteOnEvent(tick=1, channel=0, data=[75, 79]),
   midi.NoteOnEvent(tick=1, channel=0, data=[45, 63]),
   midi.ControlChangeEvent(tick=6, channel=0, data=[64, 40]),
   midi.NoteOnEvent(tick=1, channel=0, data=[68, 0]),
   midi.ControlChangeEvent(tick=3, channel=0, data=[64, 104]),
   midi.NoteOnEvent(tick=1, channel=0, data=[45, 0]),
   midi.ControlChangeEvent(tick=3, channel=0, data=[64, 127]),
   midi.NoteOnEvent(tick=4, channel=0, data=[57, 0]),
   midi.NoteOnEvent(tick=8, channel=0, data=[75, 0]),
   midi.ControlChangeEvent(tick=52, channel=0, data=[64, 40]),
   midi.ControlChangeEvent(tick=5, channel=0, data=[64, 0]),
   midi.NoteOnEvent(tick=20, channel=0, data=[46, 72]),
   midi.NoteOnEvent(tick=2, channel=0, data=[58, 70]),
   midi.ControlChangeEvent(tick=6, channel=0, data=[64, 56]),
   midi.ControlChangeEvent(tick=4, channel=0, data=[64, 127]),
   midi.NoteOnEvent(tick=5, channel=0, data=[46, 0]),
   midi.NoteOnEvent(tick=1, channel=0, data=[58, 0]),
   midi.NoteOnEvent(tick=37, channel=0, data=[79, 84]),
   midi.NoteOnEvent(tick=44, channel=0, data=[82, 81]),
   midi.NoteOnEvent(tick=2, channel=0, data=[61, 60]),
   midi.NoteOnEvent(tick=2, channel=0, data=[55, 61]),
   midi.NoteOnEvent(tick=10, channel=0, data=[55, 0]),
   midi.NoteOnEvent(tick=2, channel=0, data=[79, 0]),
   midi.NoteOnEvent(tick=0, channel=0, data=[51, 38]),
   midi.NoteOnEvent(tick=1, channel=0, data=[61, 0]),
   midi.NoteOnEvent(tick=12, channel=0, data=[51, 0]),
   midi.NoteOnEvent(tick=8, channel=0, data=[82, 0]),
   midi.NoteOnEvent(tick=12, channel=0, data=[85, 86]),
   midi.ControlChangeEvent(tick=34, channel=0, data=[64, 104]),
   midi.ControlChangeEvent(tick=4, channel=0, data=[64, 0]),
   midi.NoteOnEvent(tick=5, channel=0, data=[85, 0]),
   midi.NoteOnEvent(tick=8, channel=0, data=[89, 89]),
   midi.NoteOnEvent(tick=0, channel=0, data=[39, 55]),
   midi.NoteOnEvent(tick=1, channel=0, data=[51, 58]),
   midi.NoteOnEvent(tick=3, channel=0, data=[79, 69]),
   midi.ControlChangeEvent(tick=6, channel=0, data=[64, 72]),
   midi.NoteOnEvent(tick=4, channel=0, data=[39, 0]),
   midi.ControlChangeEvent(tick=1, channel=0, data=[64, 127]),
   midi.NoteOnEvent(tick=1, channel=0, data=[51, 0]),
   midi.NoteOnEvent(tick=19, channel=0, data=[89, 0]),
   midi.NoteOnEvent(tick=15, channel=0, data=[87, 82]),
   midi.NoteOnEvent(tick=16, channel=0, data=[79, 0]),
   midi.NoteOnEvent(tick=34, channel=0, data=[61, 56]),
   midi.NoteOnEvent(tick=1, channel=0, data=[51, 55]),
   midi.NoteOnEvent(tick=5, channel=0, data=[55, 35]),
   midi.NoteOnEvent(tick=1, channel=0, data=[61, 0]),
   midi.NoteOnEvent(tick=6, channel=0, data=[55, 0]),
   midi.NoteOnEvent(tick=7, channel=0, data=[51, 0]),
   midi.NoteOnEvent(tick=5, channel=0, data=[87, 0]),
   midi.NoteOnEvent(tick=17, channel=0, data=[85, 81]),
   midi.NoteOnEvent(tick=26, channel=0, data=[85, 0]),
   midi.ControlChangeEvent(tick=16, channel=0, data=[64, 72]),
   midi.ControlChangeEvent(tick=4, channel=0, data=[64, 0]),
   midi.NoteOnEvent(tick=6, channel=0, data=[75, 77]),
   midi.NoteOnEvent(tick=4, channel=0, data=[43, 58]),
   midi.NoteOnEvent(tick=3, channel=0, data=[55, 59]),
   midi.NoteOnEvent(tick=5, channel=0, data=[43, 0]),
   midi.ControlChangeEvent(tick=3, channel=0, data=[64, 56]),
   midi.ControlChangeEvent(tick=4, channel=0, data=[64, 127]),
   midi.NoteOnEvent(tick=1, channel=0, data=[55, 0]),
   midi.NoteOnEvent(tick=10, channel=0, data=[75, 0]),
   midi.NoteOnEvent(tick=16, channel=0, data=[79, 86]),
   midi.NoteOnEvent(tick=34, channel=0, data=[79, 0]),
   midi.NoteOnEvent(tick=14, channel=0, data=[82, 78]),
   midi.NoteOnEvent(tick=4, channel=0, data=[61, 51]),
   midi.NoteOnEvent(tick=3, channel=0, data=[51, 53]),
   midi.NoteOnEvent(tick=4, channel=0, data=[55, 36]),
   midi.NoteOnEvent(tick=1, channel=0, data=[61, 0]),
   midi.NoteOnEvent(tick=7, channel=0, data=[55, 0]),
   midi.NoteOnEvent(tick=5, channel=0, data=[51, 0]),
   midi.NoteOnEvent(tick=12, channel=0, data=[82, 0]),
   midi.NoteOnEvent(tick=13, channel=0, data=[87, 88]),
   midi.NoteOnEvent(tick=2, channel=0, data=[75, 70]),
   midi.NoteOnEvent(tick=2, channel=0, data=[79, 79]),
   midi.ControlChangeEvent(tick=8, channel=0, data=[64, 72]),
   midi.ControlChangeEvent(tick=5, channel=0, data=[64, 0]),
   midi.NoteOnEvent(tick=11, channel=0, data=[75, 0]),
   midi.NoteOnEvent(tick=1, channel=0, data=[79, 0]),
   midi.NoteOnEvent(tick=1, channel=0, data=[87, 0]),
   midi.ControlChangeEvent(tick=3, channel=0, data=[64, 40]),
   midi.ControlChangeEvent(tick=4, channel=0, data=[64, 127]),
   midi.NoteOnEvent(tick=11, channel=0, data=[39, 46]),
   midi.NoteOnEvent(tick=3, channel=0, data=[51, 49]),
   midi.NoteOnEvent(tick=11, channel=0, data=[39, 0]),
   midi.NoteOnEvent(tick=5, channel=0, data=[51, 0]),
   midi.NoteOnEvent(tick=32, channel=0, data=[79, 86]),
   midi.NoteOnEvent(tick=4, channel=0, data=[67, 64]),
   midi.NoteOnEvent(tick=2, channel=0, data=[73, 59]),
   midi.NoteOnEvent(tick=9, channel=0, data=[67, 0]),
   midi.NoteOnEvent(tick=4, channel=0, data=[79, 0]),
   midi.NoteOnEvent(tick=7, channel=0, data=[73, 0]),
   midi.NoteOnEvent(tick=23, channel=0, data=[80, 89]),
   midi.NoteOnEvent(tick=0, channel=0, data=[68, 76]),
   midi.NoteOnEvent(tick=1, channel=0, data=[73, 75]),
   midi.NoteOnEvent(tick=3, channel=0, data=[51, 40]),
   midi.NoteOnEvent(tick=1, channel=0, data=[61, 26]),
   midi.NoteOnEvent(tick=6, channel=0, data=[61, 0]),
   midi.NoteOnEvent(tick=2, channel=0, data=[68, 0]),
   midi.NoteOnEvent(tick=4, channel=0, data=[73, 0]),
   midi.NoteOnEvent(tick=1, channel=0, data=[80, 0]),
   midi.NoteOnEvent(tick=3, channel=0, data=[51, 0]),
   midi.NoteOnEvent(tick=25, channel=0, data=[82, 81]),
   midi.NoteOnEvent(tick=1, channel=0, data=[70, 74]),
   midi.NoteOnEvent(tick=1, channel=0, data=[73, 76]),
   midi.NoteOnEvent(tick=15, channel=0, data=[70, 0]),
   midi.NoteOnEvent(tick=8, channel=0, data=[73, 0]),
   midi.ControlChangeEvent(tick=0, channel=0, data=[64, 56]),
   midi.NoteOnEvent(tick=1, channel=0, data=[82, 0]),
   midi.ControlChangeEvent(tick=3, channel=0, data=[64, 0]),
   midi.NoteOnEvent(tick=21, channel=0, data=[83, 89]),
   midi.NoteOnEvent(tick=4, channel=0, data=[74, 72]),
   midi.NoteOnEvent(tick=0, channel=0, data=[71, 66]),
   midi.NoteOnEvent(tick=1, channel=0, data=[44, 44]),
   midi.ControlChangeEvent(tick=2, channel=0, data=[64, 127]),
   midi.NoteOnEvent(tick=0, channel=0, data=[56, 40]),
   midi.NoteOnEvent(tick=11, channel=0, data=[71, 0]),
   midi.NoteOnEvent(tick=1, channel=0, data=[74, 0]),
   midi.NoteOnEvent(tick=2, channel=0, data=[56, 0]),
   midi.NoteOnEvent(tick=1, channel=0, data=[83, 0]),
   midi.NoteOnEvent(tick=1, channel=0, data=[44, 0]),
   midi.NoteOnEvent(tick=32, channel=0, data=[84, 96]),
   midi.NoteOnEvent(tick=1, channel=0, data=[75, 74]),
   midi.NoteOnEvent(tick=1, channel=0, data=[72, 73]),
   midi.ControlChangeEvent(tick=22, channel=0, data=[64, 88]),
   midi.ControlChangeEvent(tick=4, channel=0, data=[64, 0]),
   midi.ControlChangeEvent(tick=21, channel=0, data=[64, 88]),
   midi.NoteOnEvent(tick=1, channel=0, data=[84, 0]),
   midi.ControlChangeEvent(tick=3, channel=0, data=[64, 127]),
   midi.NoteOnEvent(tick=2, channel=0, data=[56, 42]),
   midi.NoteOnEvent(tick=1, channel=0, data=[60, 53]),
   midi.NoteOnEvent(tick=1, channel=0, data=[51, 48]),
   midi.NoteOnEvent(tick=4, channel=0, data=[72, 0]),
   midi.NoteOnEvent(tick=2, channel=0, data=[60, 0]),
   midi.NoteOnEvent(tick=2, channel=0, data=[75, 0]),
   midi.NoteOnEvent(tick=1, channel=0, data=[56, 0]),
   midi.NoteOnEvent(tick=7, channel=0, data=[51, 0]),
   midi.NoteOnEvent(tick=29, channel=0, data=[83, 88]),
   midi.NoteOnEvent(tick=2, channel=0, data=[71, 66]),
   midi.NoteOnEvent(tick=1, channel=0, data=[74, 74]),
   midi.NoteOnEvent(tick=9, channel=0, data=[71, 0]),
   midi.NoteOnEvent(tick=4, channel=0, data=[74, 0]),
   midi.NoteOnEvent(tick=5, channel=0, data=[83, 0]),
   midi.ControlChangeEvent(tick=14, channel=0, data=[64, 88]),
   midi.ControlChangeEvent(tick=5, channel=0, data=[64, 0]),
   midi.NoteOnEvent(tick=12, channel=0, data=[84, 90]),
   midi.NoteOnEvent(tick=2, channel=0, data=[39, 59]),
   midi.NoteOnEvent(tick=0, channel=0, data=[75, 75]),
   midi.NoteOnEvent(tick=1, channel=0, data=[72, 71]),
   midi.NoteOnEvent(tick=0, channel=0, data=[51, 60]),
   midi.ControlChangeEvent(tick=5, channel=0, data=[64, 56]),
   midi.ControlChangeEvent(tick=4, channel=0, data=[64, 127]),
   midi.NoteOnEvent(tick=4, channel=0, data=[51, 0]),
   midi.NoteOnEvent(tick=0, channel=0, data=[39, 0]),
   midi.NoteOnEvent(tick=10, channel=0, data=[75, 0]),
   midi.NoteOnEvent(tick=2, channel=0, data=[84, 0]),
   midi.NoteOnEvent(tick=5, channel=0, data=[72, 0]),
   midi.NoteOnEvent(tick=62, channel=0, data=[83, 84]),
   midi.NoteOnEvent(tick=3, channel=0, data=[71, 65]),
   midi.NoteOnEvent(tick=1, channel=0, data=[74, 75]),
   midi.NoteOnEvent(tick=3, channel=0, data=[60, 60]),
   midi.NoteOnEvent(tick=2, channel=0, data=[51, 46]),
   midi.NoteOnEvent(tick=2, channel=0, data=[56, 33]),
   midi.NoteOnEvent(tick=6, channel=0, data=[60, 0]),
   midi.NoteOnEvent(tick=0, channel=0, data=[71, 0]),
   midi.NoteOnEvent(tick=2, channel=0, data=[74, 0]),
   midi.NoteOnEvent(tick=0, channel=0, data=[56, 0]),
   midi.NoteOnEvent(tick=4, channel=0, data=[83, 0]),
   midi.NoteOnEvent(tick=0, channel=0, data=[51, 0]),
   midi.NoteOnEvent(tick=29, channel=0, data=[84, 89]),
   midi.NoteOnEvent(tick=1, channel=0, data=[72, 76]),
   midi.ControlChangeEvent(tick=1, channel=0, data=[64, 104]),
   midi.NoteOnEvent(tick=0, channel=0, data=[75, 72]),
   midi.ControlChangeEvent(tick=4, channel=0, data=[64, 88]),
   midi.ControlChangeEvent(tick=4, channel=0, data=[64, 72]),
   midi.ControlChangeEvent(tick=4, channel=0, data=[64, 40]),
   midi.ControlChangeEvent(tick=4, channel=0, data=[64, 24]),
   midi.ControlChangeEvent(tick=3, channel=0, data=[64, 0]),
   midi.NoteOnEvent(tick=28, channel=0, data=[44, 74]),
   midi.NoteOnEvent(tick=0, channel=0, data=[56, 77]),
   midi.NoteOnEvent(tick=13, channel=0, data=[56, 0]),
   midi.NoteOnEvent(tick=4, channel=0, data=[44, 0]),
   midi.NoteOnEvent(tick=31, channel=0, data=[55, 82]),
   midi.NoteOnEvent(tick=1, channel=0, data=[43, 76]),
   midi.NoteOnEvent(tick=15, channel=0, data=[55, 0]),
   midi.NoteOnEvent(tick=3, channel=0, data=[43, 0]),
   midi.NoteOnEvent(tick=31, channel=0, data=[56, 74]),
   midi.NoteOnEvent(tick=0, channel=0, data=[44, 72]),
   midi.NoteOnEvent(tick=14, channel=0, data=[56, 0]),
   midi.NoteOnEvent(tick=2, channel=0, data=[44, 0]),
   midi.NoteOnEvent(tick=33, channel=0, data=[60, 85]),
   midi.NoteOnEvent(tick=1, channel=0, data=[48, 80]),
   midi.NoteOnEvent(tick=8, channel=0, data=[48, 0]),
   midi.NoteOnEvent(tick=6, channel=0, data=[60, 0]),
   midi.NoteOnEvent(tick=36, channel=0, data=[63, 81]),
   midi.NoteOnEvent(tick=1, channel=0, data=[51, 80]),
   midi.ControlChangeEvent(tick=4, channel=0, data=[64, 56]),
   midi.ControlChangeEvent(tick=4, channel=0, data=[64, 127]),
   midi.NoteOnEvent(tick=7, channel=0, data=[51, 0]),
   midi.NoteOnEvent(tick=0, channel=0, data=[63, 0]),
   midi.NoteOnEvent(tick=15, channel=0, data=[84, 0]),
   midi.NoteOnEvent(tick=7, channel=0, data=[75, 0]),
   midi.NoteOnEvent(tick=5, channel=0, data=[72, 0]),
   midi.ControlChangeEvent(tick=10, channel=0, data=[64, 72]),
   midi.ControlChangeEvent(tick=4, channel=0, data=[64, 24]),
   midi.ControlChangeEvent(tick=4, channel=0, data=[64, 0]),
   midi.NoteOnEvent(tick=48, channel=0, data=[75, 80]),
   midi.NoteOnEvent(tick=2, channel=0, data=[57, 56]),
   midi.NoteOnEvent(tick=1, channel=0, data=[45, 61]),
   midi.NoteOnEvent(tick=1, channel=0, data=[72, 69]),
   midi.ControlChangeEvent(tick=1, channel=0, data=[64, 56]),
   midi.ControlChangeEvent(tick=3, channel=0, data=[64, 127]),
   midi.NoteOnEvent(tick=4, channel=0, data=[45, 0]),
   midi.NoteOnEvent(tick=0, channel=0, data=[57, 0]),
   midi.NoteOnEvent(tick=21, channel=0, data=[75, 0]),
   midi.NoteOnEvent(tick=12, channel=0, data=[72, 0]),
   midi.ControlChangeEvent(tick=4, channel=0, data=[64, 72]),
   midi.ControlChangeEvent(tick=3, channel=0, data=[64, 0]),
   midi.NoteOnEvent(tick=47, channel=0, data=[76, 81]),
   midi.NoteOnEvent(tick=2, channel=0, data=[46, 60]),
   midi.NoteOnEvent(tick=1, channel=0, data=[58, 47]),
   midi.NoteOnEvent(tick=3, channel=0, data=[73, 63]),
   midi.ControlChangeEvent(tick=9, channel=0, data=[64, 72]),
   midi.NoteOnEvent(tick=1, channel=0, data=[46, 0]),
   midi.NoteOnEvent(tick=3, channel=0, data=[58, 0]),
   midi.ControlChangeEvent(tick=0, channel=0, data=[64, 127]),
   midi.NoteOnEvent(tick=4, channel=0, data=[73, 0]),
   midi.NoteOnEvent(tick=6, channel=0, data=[76, 0]),
   midi.NoteOnEvent(tick=27, channel=0, data=[77, 81]),
   midi.NoteOnEvent(tick=6, channel=0, data=[73, 48]),
   midi.ControlChangeEvent(tick=25, channel=0, data=[64, 88]),
   midi.ControlChangeEvent(tick=4, channel=0, data=[64, 40]),
   midi.ControlChangeEvent(tick=4, channel=0, data=[64, 0]),
   midi.NoteOnEvent(tick=11, channel=0, data=[61, 37]),
   midi.NoteOnEvent(tick=2, channel=0, data=[73, 0]),
   midi.NoteOnEvent(tick=2, channel=0, data=[51, 38]),
   midi.ControlChangeEvent(tick=2, channel=0, data=[64, 56]),
   midi.NoteOnEvent(tick=2, channel=0, data=[55, 28]),
   midi.NoteOnEvent(tick=2, channel=0, data=[61, 0]),
   midi.ControlChangeEvent(tick=0, channel=0, data=[64, 104]),
   midi.ControlChangeEvent(tick=4, channel=0, data=[64, 127]),
   midi.NoteOnEvent(tick=2, channel=0, data=[55, 0]),
   midi.NoteOnEvent(tick=4, channel=0, data=[77, 0]),
   midi.NoteOnEvent(tick=2, channel=0, data=[51, 0]),
   midi.NoteOnEvent(tick=25, channel=0, data=[73, 74]),
   midi.NoteOnEvent(tick=5, channel=0, data=[70, 49]),
   midi.ControlChangeEvent(tick=10, channel=0, data=[64, 104]),
   midi.ControlChangeEvent(tick=4, channel=0, data=[64, 88]),
   midi.ControlChangeEvent(tick=4, channel=0, data=[64, 56]),
   midi.ControlChangeEvent(tick=4, channel=0, data=[64, 24]),
   midi.ControlChangeEvent(tick=4, channel=0, data=[64, 0]),
   midi.NoteOnEvent(tick=20, channel=0, data=[51, 76]),
   midi.NoteOnEvent(tick=0, channel=0, data=[39, 63]),
   midi.NoteOnEvent(tick=14, channel=0, data=[51, 0]),
   midi.NoteOnEvent(tick=1, channel=0, data=[39, 0]),
   midi.NoteOnEvent(tick=33, channel=0, data=[52, 79]),
   midi.NoteOnEvent(tick=1, channel=0, data=[40, 57]),
   midi.NoteOnEvent(tick=16, channel=0, data=[40, 0]),
   midi.NoteOnEvent(tick=1, channel=0, data=[52, 0]),
   midi.NoteOnEvent(tick=20, channel=0, data=[70, 0]),
   midi.NoteOnEvent(tick=11, channel=0, data=[53, 82]),
   midi.NoteOnEvent(tick=2, channel=0, data=[41, 65]),
   midi.NoteOnEvent(tick=16, channel=0, data=[41, 0]),
   midi.NoteOnEvent(tick=0, channel=0, data=[53, 0]),
   midi.NoteOnEvent(tick=29, channel=0, data=[54, 85]),
   midi.NoteOnEvent(tick=2, channel=0, data=[42, 72]),
   midi.NoteOnEvent(tick=15, channel=0, data=[42, 0]),
   midi.NoteOnEvent(tick=2, channel=0, data=[54, 0]),
   midi.NoteOnEvent(tick=8, channel=0, data=[73, 0]),
   midi.NoteOnEvent(tick=27, channel=0, data=[76, 78]),
   midi.NoteOnEvent(tick=0, channel=0, data=[73, 60]),
   midi.NoteOnEvent(tick=2, channel=0, data=[55, 76]),
   midi.NoteOnEvent(tick=0, channel=0, data=[43, 66]),
   midi.NoteOnEvent(tick=16, channel=0, data=[43, 0]),
   midi.NoteOnEvent(tick=10, channel=0, data=[55, 0]),
   midi.ControlChangeEvent(tick=0, channel=0, data=[64, 72]),
   midi.ControlChangeEvent(tick=3, channel=0, data=[64, 127]),
   midi.NoteOnEvent(tick=12, channel=0, data=[73, 0]),
   midi.NoteOnEvent(tick=1, channel=0, data=[76, 0]),
   midi.NoteOnEvent(tick=8, channel=0, data=[77, 85]),
   midi.ControlChangeEvent(tick=28, channel=0, data=[64, 104]),
   midi.ControlChangeEvent(tick=5, channel=0, data=[64, 56]),
   midi.ControlChangeEvent(tick=4, channel=0, data=[64, 40]),
   midi.ControlChangeEvent(tick=12, channel=0, data=[64, 88]),
   midi.NoteOnEvent(tick=0, channel=0, data=[61, 59]),
   midi.ControlChangeEvent(tick=4, channel=0, data=[64, 127]),
   midi.NoteOnEvent(tick=2, channel=0, data=[51, 47]),
   midi.NoteOnEvent(tick=1, channel=0, data=[55, 46]),
   midi.NoteOnEvent(tick=7, channel=0, data=[61, 0]),
   midi.NoteOnEvent(tick=1, channel=0, data=[55, 0]),
   midi.NoteOnEvent(tick=3, channel=0, data=[77, 0]),
   midi.NoteOnEvent(tick=3, channel=0, data=[51, 0]),
   midi.NoteOnEvent(tick=29, channel=0, data=[73, 81]),
   midi.NoteOnEvent(tick=4, channel=0, data=[70, 56]),
   midi.ControlChangeEvent(tick=2, channel=0, data=[64, 88]),
   midi.ControlChangeEvent(tick=4, channel=0, data=[64, 40]),
   midi.ControlChangeEvent(tick=4, channel=0, data=[64, 0]),
   midi.ControlChangeEvent(tick=33, channel=0, data=[64, 88]),
   midi.NoteOnEvent(tick=4, channel=0, data=[39, 56]),
   midi.ControlChangeEvent(tick=0, channel=0, data=[64, 127]),
   midi.NoteOnEvent(tick=0, channel=0, data=[51, 64]),
   midi.NoteOnEvent(tick=17, channel=0, data=[51, 0]),
   midi.NoteOnEvent(tick=2, channel=0, data=[39, 0]),
   midi.ControlChangeEvent(tick=17, channel=0, data=[64, 104]),
   midi.ControlChangeEvent(tick=4, channel=0, data=[64, 72]),
   midi.ControlChangeEvent(tick=4, channel=0, data=[64, 40]),
   midi.NoteOnEvent(tick=4, channel=0, data=[52, 77]),
   midi.ControlChangeEvent(tick=0, channel=0, data=[64, 0]),
   midi.NoteOnEvent(tick=1, channel=0, data=[40, 60]),
   midi.NoteOnEvent(tick=13, channel=0, data=[40, 0]),
   midi.NoteOnEvent(tick=0, channel=0, data=[52, 0]),
   midi.NoteOnEvent(tick=2, channel=0, data=[70, 0]),
   midi.NoteOnEvent(tick=32, channel=0, data=[53, 75]),
   midi.NoteOnEvent(tick=3, channel=0, data=[41, 48]),
   midi.NoteOnEvent(tick=9, channel=0, data=[53, 0]),
   midi.NoteOnEvent(tick=2, channel=0, data=[41, 0]),
   midi.NoteOnEvent(tick=32, channel=0, data=[55, 80]),
   midi.NoteOnEvent(tick=2, channel=0, data=[43, 69]),
   midi.NoteOnEvent(tick=7, channel=0, data=[43, 0]),
   midi.NoteOnEvent(tick=7, channel=0, data=[55, 0]),
   midi.NoteOnEvent(tick=2, channel=0, data=[73, 0]),
   midi.NoteOnEvent(tick=35, channel=0, data=[76, 82]),
   midi.NoteOnEvent(tick=1, channel=0, data=[44, 66]),
   midi.NoteOnEvent(tick=0, channel=0, data=[56, 63]),
   midi.NoteOnEvent(tick=3, channel=0, data=[72, 69]),
   midi.ControlChangeEvent(tick=2, channel=0, data=[64, 24]),
   midi.ControlChangeEvent(tick=4, channel=0, data=[64, 88]),
   midi.ControlChangeEvent(tick=4, channel=0, data=[64, 127]),
   midi.NoteOnEvent(tick=2, channel=0, data=[56, 0]),
   midi.NoteOnEvent(tick=0, channel=0, data=[44, 0]),
   midi.NoteOnEvent(tick=7, channel=0, data=[72, 0]),
   midi.NoteOnEvent(tick=12, channel=0, data=[76, 0]),
   midi.NoteOnEvent(tick=18, channel=0, data=[77, 90]),
   midi.NoteOnEvent(tick=4, channel=0, data=[72, 61]),
   midi.ControlChangeEvent(tick=2, channel=0, data=[64, 104]),
   midi.ControlChangeEvent(tick=3, channel=0, data=[64, 40]),
   midi.ControlChangeEvent(tick=4, channel=0, data=[64, 0]),
   midi.ControlChangeEvent(tick=21, channel=0, data=[64, 72]),
   midi.ControlChangeEvent(tick=4, channel=0, data=[64, 127]),
   midi.NoteOnEvent(tick=8, channel=0, data=[60, 61]),
   midi.NoteOnEvent(tick=7, channel=0, data=[56, 26]),
   midi.NoteOnEvent(tick=2, channel=0, data=[60, 0]),
   midi.NoteOnEvent(tick=0, channel=0, data=[51, 27]),
   midi.NoteOnEvent(tick=6, channel=0, data=[56, 0]),
   midi.NoteOnEvent(tick=2, channel=0, data=[51, 0]),
   midi.NoteOnEvent(tick=12, channel=0, data=[77, 0]),
   midi.NoteOnEvent(tick=8, channel=0, data=[72, 0]),
   midi.NoteOnEvent(tick=15, channel=0, data=[79, 85]),
   midi.NoteOnEvent(tick=2, channel=0, data=[72, 49]),
   midi.ControlChangeEvent(tick=27, channel=0, data=[64, 40]),
   midi.NoteOnEvent(tick=2, channel=0, data=[72, 0]),
   midi.NoteOnEvent(tick=2, channel=0, data=[79, 0]),
   midi.ControlChangeEvent(tick=0, channel=0, data=[64, 0]),
   midi.NoteOnEvent(tick=16, channel=0, data=[77, 89]),
   midi.NoteOnEvent(tick=2, channel=0, data=[51, 57]),
   midi.NoteOnEvent(tick=1, channel=0, data=[39, 44]),
   midi.ControlChangeEvent(tick=4, channel=0, data=[64, 40]),
   midi.NoteOnEvent(tick=2, channel=0, data=[39, 0]),
   midi.NoteOnEvent(tick=1, channel=0, data=[51, 0]),
   midi.ControlChangeEvent(tick=2, channel=0, data=[64, 127]),
   midi.NoteOnEvent(tick=20, channel=0, data=[77, 0]),
   midi.NoteOnEvent(tick=18, channel=0, data=[72, 84]),
   midi.ControlChangeEvent(tick=23, channel=0, data=[64, 72]),
   midi.ControlChangeEvent(tick=4, channel=0, data=[64, 40]),
   midi.ControlChangeEvent(tick=4, channel=0, data=[64, 0]),
   midi.ControlChangeEvent(tick=16, channel=0, data=[64, 40]),
   midi.NoteOnEvent(tick=0, channel=0, data=[60, 57]),
   midi.NoteOnEvent(tick=1, channel=0, data=[75, 80]),
   midi.NoteOnEvent(tick=2, channel=0, data=[51, 46]),
   midi.ControlChangeEvent(tick=0, channel=0, data=[64, 72]),
   midi.ControlChangeEvent(tick=4, channel=0, data=[64, 104]),
   midi.NoteOnEvent(tick=2, channel=0, data=[60, 0]),
   midi.ControlChangeEvent(tick=3, channel=0, data=[64, 127]),
   midi.NoteOnEvent(tick=4, channel=0, data=[51, 0]),
   midi.NoteOnEvent(tick=6, channel=0, data=[72, 0]),
   midi.NoteOnEvent(tick=10, channel=0, data=[75, 0]),
   midi.NoteOnEvent(tick=14, channel=0, data=[80, 90]),
   midi.ControlChangeEvent(tick=14, channel=0, data=[64, 104]),
   midi.ControlChangeEvent(tick=4, channel=0, data=[64, 72]),
   midi.ControlChangeEvent(tick=4, channel=0, data=[64, 56]),
   midi.ControlChangeEvent(tick=4, channel=0, data=[64, 24]),
   midi.NoteOnEvent(tick=1, channel=0, data=[80, 0]),
   midi.ControlChangeEvent(tick=3, channel=0, data=[64, 0]),
   midi.NoteOnEvent(tick=20, channel=0, data=[84, 90]),
   midi.NoteOnEvent(tick=2, channel=0, data=[56, 68]),
   midi.NoteOnEvent(tick=0, channel=0, data=[72, 73]),
   midi.NoteOnEvent(tick=1, channel=0, data=[75, 71]),
   midi.NoteOnEvent(tick=0, channel=0, data=[44, 68]),
   midi.NoteOnEvent(tick=14, channel=0, data=[56, 0]),
   midi.NoteOnEvent(tick=3, channel=0, data=[44, 0]),
   midi.NoteOnEvent(tick=32, channel=0, data=[51, 80]),
   midi.NoteOnEvent(tick=0, channel=0, data=[39, 74]),
   midi.NoteOnEvent(tick=14, channel=0, data=[51, 0]),
   midi.NoteOnEvent(tick=3, channel=0, data=[39, 0]),
   midi.NoteOnEvent(tick=32, channel=0, data=[52, 74]),
   midi.NoteOnEvent(tick=1, channel=0, data=[40, 71]),
   midi.NoteOnEvent(tick=16, channel=0, data=[52, 0]),
   midi.NoteOnEvent(tick=2, channel=0, data=[40, 0]),
   midi.NoteOnEvent(tick=29, channel=0, data=[53, 84]),
   midi.NoteOnEvent(tick=2, channel=0, data=[41, 75]),
   midi.NoteOnEvent(tick=14, channel=0, data=[53, 0]),
   midi.NoteOnEvent(tick=4, channel=0, data=[41, 0]),
   midi.NoteOnEvent(tick=29, channel=0, data=[54, 80]),
   midi.NoteOnEvent(tick=1, channel=0, data=[42, 68]),
   midi.NoteOnEvent(tick=13, channel=0, data=[54, 0]),
   midi.NoteOnEvent(tick=5, channel=0, data=[42, 0]),
   midi.NoteOnEvent(tick=27, channel=0, data=[55, 84]),
   midi.NoteOnEvent(tick=1, channel=0, data=[43, 74]),
   midi.NoteOnEvent(tick=15, channel=0, data=[55, 0]),
   midi.NoteOnEvent(tick=3, channel=0, data=[43, 0]),
   midi.NoteOnEvent(tick=33, channel=0, data=[56, 86]),
   midi.NoteOnEvent(tick=0, channel=0, data=[44, 75]),
   midi.NoteOnEvent(tick=18, channel=0, data=[56, 0]),
   midi.NoteOnEvent(tick=2, channel=0, data=[44, 0]),
   midi.NoteOnEvent(tick=7, channel=0, data=[75, 0]),
   midi.NoteOnEvent(tick=3, channel=0, data=[72, 0]),
   midi.NoteOnEvent(tick=21, channel=0, data=[57, 86]),
   midi.NoteOnEvent(tick=1, channel=0, data=[45, 90]),
   midi.NoteOnEvent(tick=3, channel=0, data=[84, 0]),
   midi.NoteOnEvent(tick=11, channel=0, data=[57, 0]),
   midi.NoteOnEvent(tick=2, channel=0, data=[45, 0]),
   midi.NoteOnEvent(tick=35, channel=0, data=[58, 84]),
   midi.NoteOnEvent(tick=2, channel=0, data=[46, 81]),
   midi.NoteOnEvent(tick=31, channel=0, data=[46, 0]),
   midi.NoteOnEvent(tick=4, channel=0, data=[58, 0]),
   midi.ControlChangeEvent(tick=0, channel=0, data=[64, 88]),
   midi.ControlChangeEvent(tick=3, channel=0, data=[64, 127]),
   midi.NoteOnEvent(tick=8, channel=0, data=[79, 79]),
   midi.NoteOnEvent(tick=50, channel=0, data=[82, 84]),
   midi.NoteOnEvent(tick=2, channel=0, data=[61, 58]),
   midi.NoteOnEvent(tick=3, channel=0, data=[51, 55]),
   midi.NoteOnEvent(tick=2, channel=0, data=[55, 56]),
   midi.NoteOnEvent(tick=7, channel=0, data=[55, 0]),
   midi.NoteOnEvent(tick=0, channel=0, data=[79, 0]),
   midi.NoteOnEvent(tick=5, channel=0, data=[61, 0]),
   midi.NoteOnEvent(tick=7, channel=0, data=[51, 0]),
   midi.NoteOnEvent(tick=9, channel=0, data=[82, 0]),
   midi.NoteOnEvent(tick=13, channel=0, data=[85, 88]),
   midi.NoteOnEvent(tick=34, channel=0, data=[85, 0]),
   midi.ControlChangeEvent(tick=2, channel=0, data=[64, 72]),
   midi.ControlChangeEvent(tick=4, channel=0, data=[64, 0]),
   midi.NoteOnEvent(tick=14, channel=0, data=[89, 90]),
   midi.NoteOnEvent(tick=1, channel=0, data=[79, 77]),
   midi.NoteOnEvent(tick=2, channel=0, data=[39, 53]),
   midi.NoteOnEvent(tick=0, channel=0, data=[51, 63]),
   midi.NoteOnEvent(tick=14, channel=0, data=[39, 0]),
   midi.NoteOnEvent(tick=2, channel=0, data=[51, 0]),
   midi.ControlChangeEvent(tick=4, channel=0, data=[64, 88]),
   midi.ControlChangeEvent(tick=4, channel=0, data=[64, 127]),
   midi.NoteOnEvent(tick=13, channel=0, data=[89, 0]),
   midi.NoteOnEvent(tick=11, channel=0, data=[87, 85]),
   midi.NoteOnEvent(tick=26, channel=0, data=[79, 0]),
   midi.NoteOnEvent(tick=25, channel=0, data=[61, 57]),
   midi.NoteOnEvent(tick=6, channel=0, data=[55, 54]),
   midi.NoteOnEvent(tick=1, channel=0, data=[51, 50]),
   midi.NoteOnEvent(tick=6, channel=0, data=[55, 0]),
   midi.NoteOnEvent(tick=2, channel=0, data=[61, 0]),
   midi.NoteOnEvent(tick=10, channel=0, data=[51, 0]),
   midi.NoteOnEvent(tick=4, channel=0, data=[87, 0]),
   midi.NoteOnEvent(tick=17, channel=0, data=[85, 81]),
   midi.NoteOnEvent(tick=26, channel=0, data=[85, 0]),
   midi.ControlChangeEvent(tick=18, channel=0, data=[64, 72]),
   midi.ControlChangeEvent(tick=4, channel=0, data=[64, 0]),
   midi.NoteOnEvent(tick=1, channel=0, data=[75, 77]),
   midi.NoteOnEvent(tick=7, channel=0, data=[43, 59]),
   midi.NoteOnEvent(tick=1, channel=0, data=[55, 65]),
   midi.NoteOnEvent(tick=10, channel=0, data=[43, 0]),
   midi.ControlChangeEvent(tick=9, channel=0, data=[64, 24]),
   midi.NoteOnEvent(tick=2, channel=0, data=[55, 0]),
   midi.ControlChangeEvent(tick=2, channel=0, data=[64, 104]),
   midi.ControlChangeEvent(tick=4, channel=0, data=[64, 127]),
   midi.NoteOnEvent(tick=1, channel=0, data=[75, 0]),
   midi.NoteOnEvent(tick=12, channel=0, data=[79, 82]),
   midi.NoteOnEvent(tick=34, channel=0, data=[79, 0]),
   midi.NoteOnEvent(tick=12, channel=0, data=[82, 80]),
   midi.NoteOnEvent(tick=7, channel=0, data=[61, 56]),
   midi.NoteOnEvent(tick=4, channel=0, data=[55, 55]),
   midi.NoteOnEvent(tick=2, channel=0, data=[51, 47]),
   midi.NoteOnEvent(tick=3, channel=0, data=[61, 0]),
   midi.NoteOnEvent(tick=2, channel=0, data=[55, 0]),
   midi.NoteOnEvent(tick=5, channel=0, data=[51, 0]),
   midi.NoteOnEvent(tick=11, channel=0, data=[82, 0]),
   midi.NoteOnEvent(tick=17, channel=0, data=[87, 89]),
   midi.NoteOnEvent(tick=2, channel=0, data=[75, 75]),
   midi.NoteOnEvent(tick=2, channel=0, data=[79, 78]),
   midi.ControlChangeEvent(tick=15, channel=0, data=[64, 72]),
   midi.ControlChangeEvent(tick=4, channel=0, data=[64, 0]),
   midi.NoteOnEvent(tick=21, channel=0, data=[87, 0]),
   midi.NoteOnEvent(tick=2, channel=0, data=[79, 0]),
   midi.ControlChangeEvent(tick=2, channel=0, data=[64, 72]),
   midi.NoteOnEvent(tick=2, channel=0, data=[75, 0]),
   midi.NoteOnEvent(tick=1, channel=0, data=[39, 51]),
   midi.ControlChangeEvent(tick=1, channel=0, data=[64, 127]),
   midi.NoteOnEvent(tick=1, channel=0, data=[51, 58]),
   midi.NoteOnEvent(tick=14, channel=0, data=[39, 0]),
   midi.NoteOnEvent(tick=4, channel=0, data=[51, 0]),
   midi.NoteOnEvent(tick=32, channel=0, data=[79, 90]),
   midi.NoteOnEvent(tick=3, channel=0, data=[67, 72]),
   midi.NoteOnEvent(tick=1, channel=0, data=[73, 65]),
   midi.NoteOnEvent(tick=11, channel=0, data=[67, 0]),
   midi.NoteOnEvent(tick=4, channel=0, data=[79, 0]),
   midi.NoteOnEvent(tick=7, channel=0, data=[73, 0]),
   midi.NoteOnEvent(tick=22, channel=0, data=[80, 90]),
   midi.NoteOnEvent(tick=0, channel=0, data=[61, 40]),
   midi.NoteOnEvent(tick=0, channel=0, data=[73, 75]),
   midi.NoteOnEvent(tick=1, channel=0, data=[68, 70]),
   midi.NoteOnEvent(tick=8, channel=0, data=[61, 0]),
   midi.NoteOnEvent(tick=1, channel=0, data=[51, 29]),
   midi.NoteOnEvent(tick=3, channel=0, data=[68, 0]),
   midi.NoteOnEvent(tick=4, channel=0, data=[73, 0]),
   midi.NoteOnEvent(tick=1, channel=0, data=[80, 0]),
   midi.NoteOnEvent(tick=1, channel=0, data=[51, 0]),
   midi.NoteOnEvent(tick=26, channel=0, data=[82, 90]),
   midi.NoteOnEvent(tick=2, channel=0, data=[70, 73]),
   midi.NoteOnEvent(tick=1, channel=0, data=[73, 81]),
   midi.NoteOnEvent(tick=14, channel=0, data=[70, 0]),
   midi.NoteOnEvent(tick=8, channel=0, data=[82, 0]),
   midi.ControlChangeEvent(tick=0, channel=0, data=[64, 104]),
   midi.ControlChangeEvent(tick=3, channel=0, data=[64, 24]),
   midi.NoteOnEvent(tick=4, channel=0, data=[73, 0]),
   midi.ControlChangeEvent(tick=1, channel=0, data=[64, 0]),
   midi.NoteOnEvent(tick=20, channel=0, data=[44, 56]),
   midi.NoteOnEvent(tick=0, channel=0, data=[83, 94]),
   midi.NoteOnEvent(tick=0, channel=0, data=[74, 86]),
   midi.NoteOnEvent(tick=2, channel=0, data=[56, 47]),
   midi.NoteOnEvent(tick=0, channel=0, data=[71, 72]),
   midi.ControlChangeEvent(tick=6, channel=0, data=[64, 127]),
   midi.NoteOnEvent(tick=3, channel=0, data=[71, 0]),
   midi.NoteOnEvent(tick=5, channel=0, data=[74, 0]),
   midi.NoteOnEvent(tick=2, channel=0, data=[83, 0]),
   midi.NoteOnEvent(tick=2, channel=0, data=[44, 0]),
   midi.NoteOnEvent(tick=0, channel=0, data=[56, 0]),
   midi.NoteOnEvent(tick=30, channel=0, data=[84, 96]),
   midi.NoteOnEvent(tick=1, channel=0, data=[75, 81]),
   midi.NoteOnEvent(tick=0, channel=0, data=[72, 81]),
   midi.ControlChangeEvent(tick=17, channel=0, data=[64, 24]),
   midi.ControlChangeEvent(tick=4, channel=0, data=[64, 0]),
   midi.ControlChangeEvent(tick=21, channel=0, data=[64, 88]),
   midi.ControlChangeEvent(tick=4, channel=0, data=[64, 127]),
   midi.NoteOnEvent(tick=10, channel=0, data=[60, 57]),
   midi.NoteOnEvent(tick=0, channel=0, data=[56, 38]),
   midi.NoteOnEvent(tick=2, channel=0, data=[75, 0]),
   midi.NoteOnEvent(tick=3, channel=0, data=[51, 29]),
   midi.NoteOnEvent(tick=3, channel=0, data=[60, 0]),
   midi.NoteOnEvent(tick=2, channel=0, data=[56, 0]),
   midi.NoteOnEvent(tick=0, channel=0, data=[72, 0]),
   midi.NoteOnEvent(tick=1, channel=0, data=[84, 0]),
   midi.NoteOnEvent(tick=4, channel=0, data=[51, 0]),
   midi.NoteOnEvent(tick=32, channel=0, data=[84, 89]),
   midi.NoteOnEvent(tick=3, channel=0, data=[72, 90]),
   midi.ControlChangeEvent(tick=1, channel=0, data=[64, 72]),
   midi.NoteOnEvent(tick=1, channel=0, data=[76, 79]),
   midi.ControlChangeEvent(tick=2, channel=0, data=[64, 0]),
   midi.ControlChangeEvent(tick=37, channel=0, data=[64, 72]),
   midi.ControlChangeEvent(tick=4, channel=0, data=[64, 127]),
   midi.NoteOnEvent(tick=2, channel=0, data=[43, 46]),
   midi.NoteOnEvent(tick=0, channel=0, data=[55, 51]),
   midi.NoteOnEvent(tick=9, channel=0, data=[43, 0]),
   midi.NoteOnEvent(tick=5, channel=0, data=[55, 0]),
   midi.NoteOnEvent(tick=4, channel=0, data=[84, 0]),
   midi.NoteOnEvent(tick=0, channel=0, data=[72, 0]),
   midi.NoteOnEvent(tick=7, channel=0, data=[76, 0]),
   midi.NoteOnEvent(tick=21, channel=0, data=[79, 91]),
   midi.NoteOnEvent(tick=23, channel=0, data=[79, 0]),
   midi.NoteOnEvent(tick=25, channel=0, data=[84, 96]),
   midi.NoteOnEvent(tick=2, channel=0, data=[72, 86]),
   midi.NoteOnEvent(tick=1, channel=0, data=[76, 79]),
   midi.NoteOnEvent(tick=0, channel=0, data=[79, 76]),
   midi.NoteOnEvent(tick=1, channel=0, data=[60, 53]),
   midi.NoteOnEvent(tick=0, channel=0, data=[58, 40]),
   midi.NoteOnEvent(tick=2, channel=0, data=[52, 51]),
   midi.NoteOnEvent(tick=8, channel=0, data=[60, 0]),
   midi.NoteOnEvent(tick=2, channel=0, data=[52, 0]),
   midi.NoteOnEvent(tick=4, channel=0, data=[58, 0]),
   midi.NoteOnEvent(tick=10, channel=0, data=[72, 0]),
   midi.NoteOnEvent(tick=2, channel=0, data=[79, 0]),
   midi.NoteOnEvent(tick=0, channel=0, data=[76, 0]),
   midi.NoteOnEvent(tick=8, channel=0, data=[84, 0]),
   midi.ControlChangeEvent(tick=26, channel=0, data=[64, 72]),
   midi.ControlChangeEvent(tick=4, channel=0, data=[64, 0]),
   midi.NoteOnEvent(tick=37, channel=0, data=[80, 79]),
   midi.NoteOnEvent(tick=1, channel=0, data=[84, 96]),
   midi.NoteOnEvent(tick=1, channel=0, data=[72, 82]),
   midi.NoteOnEvent(tick=0, channel=0, data=[77, 76]),
   midi.NoteOnEvent(tick=1, channel=0, data=[41, 58]),
   midi.NoteOnEvent(tick=2, channel=0, data=[53, 55]),
   midi.NoteOnEvent(tick=6, channel=0, data=[41, 0]),
   midi.ControlChangeEvent(tick=0, channel=0, data=[64, 127]),
   midi.NoteOnEvent(tick=14, channel=0, data=[53, 0]),
   midi.NoteOnEvent(tick=27, channel=0, data=[84, 0]),
   midi.NoteOnEvent(tick=8, channel=0, data=[72, 0]),
   midi.NoteOnEvent(tick=4, channel=0, data=[77, 0]),
   midi.NoteOnEvent(tick=6, channel=0, data=[80, 0]),
   midi.NoteOnEvent(tick=29, channel=0, data=[84, 90]),
   midi.NoteOnEvent(tick=0, channel=0, data=[56, 47]),
   midi.NoteOnEvent(tick=1, channel=0, data=[60, 49]),
   midi.NoteOnEvent(tick=2, channel=0, data=[72, 77]),
   midi.NoteOnEvent(tick=0, channel=0, data=[80, 66]),
   midi.NoteOnEvent(tick=1, channel=0, data=[53, 48]),
   midi.NoteOnEvent(tick=6, channel=0, data=[60, 0]),
   midi.NoteOnEvent(tick=1, channel=0, data=[53, 0]),
   midi.NoteOnEvent(tick=2, channel=0, data=[56, 0]),
   midi.NoteOnEvent(tick=0, channel=0, data=[77, 35]),
   midi.NoteOnEvent(tick=10, channel=0, data=[77, 0]),
   midi.NoteOnEvent(tick=7, channel=0, data=[80, 0]),
   midi.NoteOnEvent(tick=0, channel=0, data=[72, 0]),
   midi.NoteOnEvent(tick=5, channel=0, data=[84, 0]),
   midi.NoteOnEvent(tick=15, channel=0, data=[77, 92]),
   midi.ControlChangeEvent(tick=35, channel=0, data=[64, 88]),
   midi.ControlChangeEvent(tick=4, channel=0, data=[64, 0]),
   midi.NoteOnEvent(tick=4, channel=0, data=[77, 0]),
   midi.NoteOnEvent(tick=9, channel=0, data=[80, 89]),
   midi.NoteOnEvent(tick=2, channel=0, data=[53, 72]),
   midi.NoteOnEvent(tick=0, channel=0, data=[41, 63]),
   midi.ControlChangeEvent(tick=6, channel=0, data=[64, 72]),
   midi.ControlChangeEvent(tick=4, channel=0, data=[64, 127]),
   midi.NoteOnEvent(tick=4, channel=0, data=[53, 0]),
   midi.NoteOnEvent(tick=2, channel=0, data=[41, 0]),
   midi.NoteOnEvent(tick=16, channel=0, data=[80, 0]),
   midi.NoteOnEvent(tick=13, channel=0, data=[84, 93]),
   midi.NoteOnEvent(tick=3, channel=0, data=[77, 80]),
   midi.NoteOnEvent(tick=2, channel=0, data=[72, 74]),
   midi.NoteOnEvent(tick=0, channel=0, data=[80, 31]),
   midi.NoteOnEvent(tick=24, channel=0, data=[80, 0]),
   midi.NoteOnEvent(tick=23, channel=0, data=[72, 0]),
   midi.NoteOnEvent(tick=0, channel=0, data=[51, 77]),
   midi.NoteOnEvent(tick=1, channel=0, data=[39, 67]),
   midi.NoteOnEvent(tick=7, channel=0, data=[84, 0]),
   midi.NoteOnEvent(tick=4, channel=0, data=[51, 0]),
   midi.NoteOnEvent(tick=1, channel=0, data=[77, 0]),
   midi.NoteOnEvent(tick=3, channel=0, data=[39, 0]),
   midi.NoteOnEvent(tick=30, channel=0, data=[84, 88]),
   midi.NoteOnEvent(tick=3, channel=0, data=[77, 80]),
   midi.NoteOnEvent(tick=1, channel=0, data=[73, 59]),
   midi.ControlChangeEvent(tick=24, channel=0, data=[64, 88]),
   midi.ControlChangeEvent(tick=3, channel=0, data=[64, 0]),
   midi.NoteOnEvent(tick=23, channel=0, data=[37, 56]),
   midi.NoteOnEvent(tick=1, channel=0, data=[49, 66]),
   midi.ControlChangeEvent(tick=13, channel=0, data=[64, 127]),
   midi.NoteOnEvent(tick=4, channel=0, data=[37, 0]),
   midi.NoteOnEvent(tick=2, channel=0, data=[49, 0]),
   midi.NoteOnEvent(tick=87, channel=0, data=[61, 67]),
   midi.NoteOnEvent(tick=2, channel=0, data=[56, 46]),
   midi.NoteOnEvent(tick=2, channel=0, data=[53, 48]),
   midi.NoteOnEvent(tick=6, channel=0, data=[56, 0]),
   midi.NoteOnEvent(tick=2, channel=0, data=[53, 0]),
   midi.NoteOnEvent(tick=2, channel=0, data=[61, 0]),
   midi.NoteOnEvent(tick=10, channel=0, data=[84, 0]),
   midi.NoteOnEvent(tick=3, channel=0, data=[77, 0]),
   midi.NoteOnEvent(tick=3, channel=0, data=[73, 0]),
   midi.NoteOnEvent(tick=15, channel=0, data=[82, 78]),
   midi.ControlChangeEvent(tick=27, channel=0, data=[64, 88]),
   midi.ControlChangeEvent(tick=5, channel=0, data=[64, 0]),
   midi.NoteOnEvent(tick=7, channel=0, data=[82, 0]),
   midi.NoteOnEvent(tick=10, channel=0, data=[80, 81]),
   midi.NoteOnEvent(tick=4, channel=0, data=[53, 74]),
   midi.NoteOnEvent(tick=2, channel=0, data=[41, 56]),
   midi.ControlChangeEvent(tick=5, channel=0, data=[64, 40]),
   midi.ControlChangeEvent(tick=4, channel=0, data=[64, 127]),
   midi.NoteOnEvent(tick=1, channel=0, data=[53, 0]),
   midi.NoteOnEvent(tick=3, channel=0, data=[41, 0]),
   midi.NoteOnEvent(tick=21, channel=0, data=[80, 0]),
   midi.NoteOnEvent(tick=10, channel=0, data=[77, 82]),
   midi.ControlChangeEvent(tick=25, channel=0, data=[64, 72]),
   midi.ControlChangeEvent(tick=5, channel=0, data=[64, 0]),
   midi.NoteOnEvent(tick=22, channel=0, data=[73, 74]),
   midi.NoteOnEvent(tick=2, channel=0, data=[52, 71]),
   midi.NoteOnEvent(tick=1, channel=0, data=[77, 0]),
   midi.ControlChangeEvent(tick=3, channel=0, data=[64, 104]),
   midi.NoteOnEvent(tick=1, channel=0, data=[40, 46]),
   midi.ControlChangeEvent(tick=3, channel=0, data=[64, 127]),
   midi.NoteOnEvent(tick=5, channel=0, data=[40, 0]),
   midi.NoteOnEvent(tick=2, channel=0, data=[52, 0]),
   midi.NoteOnEvent(tick=9, channel=0, data=[73, 0]),
   midi.ControlChangeEvent(tick=24, channel=0, data=[64, 88]),
   midi.ControlChangeEvent(tick=4, channel=0, data=[64, 0]),
   midi.NoteOnEvent(tick=47, channel=0, data=[39, 57]),
   midi.NoteOnEvent(tick=1, channel=0, data=[51, 58]),
   midi.NoteOnEvent(tick=2, channel=0, data=[84, 89]),
   midi.NoteOnEvent(tick=1, channel=0, data=[75, 67]),
   midi.NoteOnEvent(tick=3, channel=0, data=[72, 66]),
   midi.ControlChangeEvent(tick=6, channel=0, data=[64, 104]),
   midi.ControlChangeEvent(tick=4, channel=0, data=[64, 127]),
   midi.NoteOnEvent(tick=1, channel=0, data=[39, 0]),
   midi.NoteOnEvent(tick=1, channel=0, data=[51, 0]),
   midi.NoteOnEvent(tick=82, channel=0, data=[60, 60]),
   midi.NoteOnEvent(tick=0, channel=0, data=[56, 45]),
   midi.NoteOnEvent(tick=1, channel=0, data=[51, 48]),
   midi.NoteOnEvent(tick=6, channel=0, data=[60, 0]),
   midi.NoteOnEvent(tick=2, channel=0, data=[56, 0]),
   midi.NoteOnEvent(tick=6, channel=0, data=[51, 0]),
   midi.NoteOnEvent(tick=4, channel=0, data=[75, 0]),
   midi.NoteOnEvent(tick=5, channel=0, data=[84, 0]),
   midi.NoteOnEvent(tick=22, channel=0, data=[82, 68]),
   midi.ControlChangeEvent(tick=32, channel=0, data=[64, 40]),
   midi.ControlChangeEvent(tick=4, channel=0, data=[64, 0]),
   midi.NoteOnEvent(tick=1, channel=0, data=[82, 0]),
   midi.NoteOnEvent(tick=11, channel=0, data=[80, 75]),
   midi.NoteOnEvent(tick=5, channel=0, data=[60, 60]),
   midi.NoteOnEvent(tick=3, channel=0, data=[48, 65]),
   midi.ControlChangeEvent(tick=4, channel=0, data=[64, 40]),
   midi.NoteOnEvent(tick=2, channel=0, data=[60, 0]),
   midi.ControlChangeEvent(tick=1, channel=0, data=[64, 127]),
   midi.NoteOnEvent(tick=3, channel=0, data=[48, 0]),
   midi.NoteOnEvent(tick=1, channel=0, data=[72, 0]),
   midi.NoteOnEvent(tick=15, channel=0, data=[80, 0]),
   midi.NoteOnEvent(tick=11, channel=0, data=[75, 74]),
   midi.ControlChangeEvent(tick=32, channel=0, data=[64, 104]),
   midi.ControlChangeEvent(tick=4, channel=0, data=[64, 40]),
   midi.ControlChangeEvent(tick=4, channel=0, data=[64, 0]),
   midi.NoteOnEvent(tick=10, channel=0, data=[75, 0]),
   midi.NoteOnEvent(tick=3, channel=0, data=[72, 76]),
   midi.NoteOnEvent(tick=1, channel=0, data=[57, 63]),
   midi.ControlChangeEvent(tick=1, channel=0, data=[64, 40]),
   midi.NoteOnEvent(tick=2, channel=0, data=[45, 45]),
   midi.ControlChangeEvent(tick=3, channel=0, data=[64, 104]),
   midi.NoteOnEvent(tick=3, channel=0, data=[57, 0]),
   midi.ControlChangeEvent(tick=0, channel=0, data=[64, 127]),
   midi.NoteOnEvent(tick=4, channel=0, data=[45, 0]),
   midi.NoteOnEvent(tick=17, channel=0, data=[72, 0]),
   midi.ControlChangeEvent(tick=8, channel=0, data=[64, 88]),
   midi.ControlChangeEvent(tick=4, channel=0, data=[64, 56]),
   midi.ControlChangeEvent(tick=4, channel=0, data=[64, 40]),
   midi.ControlChangeEvent(tick=4, channel=0, data=[64, 0]),
   midi.NoteOnEvent(tick=43, channel=0, data=[76, 85]),
   midi.NoteOnEvent(tick=5, channel=0, data=[73, 60]),
   midi.NoteOnEvent(tick=3, channel=0, data=[46, 60]),
   midi.NoteOnEvent(tick=1, channel=0, data=[58, 50]),
   midi.ControlChangeEvent(tick=1, channel=0, data=[64, 56]),
   midi.ControlChangeEvent(tick=3, channel=0, data=[64, 127]),
   midi.NoteOnEvent(tick=10, channel=0, data=[46, 0]),
   midi.NoteOnEvent(tick=3, channel=0, data=[58, 0]),
   midi.NoteOnEvent(tick=16, channel=0, data=[73, 0]),
   midi.NoteOnEvent(tick=0, channel=0, data=[76, 0]),
   midi.ControlChangeEvent(tick=4, channel=0, data=[64, 88]),
   midi.ControlChangeEvent(tick=4, channel=0, data=[64, 40]),
   midi.NoteOnEvent(tick=4, channel=0, data=[77, 85]),
   midi.ControlChangeEvent(tick=0, channel=0, data=[64, 0]),
   midi.NoteOnEvent(tick=4, channel=0, data=[73, 23]),
   midi.ControlChangeEvent(tick=16, channel=0, data=[64, 40]),
   midi.ControlChangeEvent(tick=4, channel=0, data=[64, 104]),
   midi.ControlChangeEvent(tick=4, channel=0, data=[64, 127]),
   midi.NoteOnEvent(tick=18, channel=0, data=[61, 48]),
   midi.NoteOnEvent(tick=4, channel=0, data=[51, 51]),
   midi.NoteOnEvent(tick=2, channel=0, data=[73, 0]),
   midi.NoteOnEvent(tick=0, channel=0, data=[55, 46]),
   midi.NoteOnEvent(tick=4, channel=0, data=[77, 0]),
   midi.NoteOnEvent(tick=0, channel=0, data=[61, 0]),
   midi.NoteOnEvent(tick=2, channel=0, data=[55, 0]),
   midi.NoteOnEvent(tick=11, channel=0, data=[51, 0]),
   midi.NoteOnEvent(tick=21, channel=0, data=[79, 75]),
   midi.NoteOnEvent(tick=6, channel=0, data=[73, 57]),
   midi.ControlChangeEvent(tick=21, channel=0, data=[64, 56]),
   midi.NoteOnEvent(tick=2, channel=0, data=[79, 0]),
   midi.NoteOnEvent(tick=2, channel=0, data=[73, 0]),
   midi.ControlChangeEvent(tick=0, channel=0, data=[64, 0]),
   midi.NoteOnEvent(tick=18, channel=0, data=[77, 84]),
   midi.NoteOnEvent(tick=4, channel=0, data=[39, 58]),
   midi.NoteOnEvent(tick=4, channel=0, data=[51, 46]),
   midi.ControlChangeEvent(tick=2, channel=0, data=[64, 88]),
   midi.ControlChangeEvent(tick=4, channel=0, data=[64, 127]),
   midi.NoteOnEvent(tick=4, channel=0, data=[51, 0]),
   midi.NoteOnEvent(tick=2, channel=0, data=[39, 0]),
   midi.NoteOnEvent(tick=3, channel=0, data=[77, 0]),
   midi.NoteOnEvent(tick=24, channel=0, data=[67, 66]),
   midi.ControlChangeEvent(tick=24, channel=0, data=[64, 88]),
   midi.ControlChangeEvent(tick=4, channel=0, data=[64, 40]),
   midi.ControlChangeEvent(tick=4, channel=0, data=[64, 0]),
   midi.NoteOnEvent(tick=14, channel=0, data=[61, 46]),
   midi.NoteOnEvent(tick=0, channel=0, data=[51, 47]),
   midi.NoteOnEvent(tick=4, channel=0, data=[70, 71]),
   midi.ControlChangeEvent(tick=2, channel=0, data=[64, 40]),
   midi.NoteOnEvent(tick=2, channel=0, data=[55, 39]),
   midi.ControlChangeEvent(tick=2, channel=0, data=[64, 72]),
   midi.NoteOnEvent(tick=2, channel=0, data=[61, 0]),
   midi.ControlChangeEvent(tick=1, channel=0, data=[64, 104]),
   midi.NoteOnEvent(tick=3, channel=0, data=[55, 0]),
   midi.ControlChangeEvent(tick=2, channel=0, data=[64, 127]),
   midi.NoteOnEvent(tick=1, channel=0, data=[51, 0]),
   midi.NoteOnEvent(tick=2, channel=0, data=[67, 0]),
   midi.ControlChangeEvent(tick=21, channel=0, data=[64, 104]),
   midi.ControlChangeEvent(tick=4, channel=0, data=[64, 72]),
   midi.NoteOnEvent(tick=1, channel=0, data=[75, 74]),
   midi.ControlChangeEvent(tick=3, channel=0, data=[64, 56]),
   midi.ControlChangeEvent(tick=4, channel=0, data=[64, 40]),
   midi.ControlChangeEvent(tick=4, channel=0, data=[64, 24]),
   midi.ControlChangeEvent(tick=4, channel=0, data=[64, 0]),
   midi.NoteOnEvent(tick=2, channel=0, data=[70, 0]),
   midi.NoteOnEvent(tick=21, channel=0, data=[75, 0]),
   midi.NoteOnEvent(tick=14, channel=0, data=[68, 68]),
   midi.NoteOnEvent(tick=6, channel=0, data=[60, 58]),
   midi.NoteOnEvent(tick=0, channel=0, data=[56, 47]),
   midi.NoteOnEvent(tick=18, channel=0, data=[56, 0]),
   midi.NoteOnEvent(tick=0, channel=0, data=[60, 0]),
   midi.NoteOnEvent(tick=35, channel=0, data=[68, 0]),
   midi.NoteOnEvent(tick=30, channel=0, data=[74, 63]),
   midi.NoteOnEvent(tick=16, channel=0, data=[75, 87]),
   midi.NoteOnEvent(tick=7, channel=0, data=[74, 0]),
   midi.NoteOnEvent(tick=8, channel=0, data=[75, 0]),
   midi.NoteOnEvent(tick=58, channel=0, data=[62, 66]),
   midi.NoteOnEvent(tick=18, channel=0, data=[63, 79]),
   midi.NoteOnEvent(tick=4, channel=0, data=[62, 0]),
   midi.NoteOnEvent(tick=11, channel=0, data=[63, 0]),
   midi.NoteOnEvent(tick=83, channel=0, data=[51, 72]),
   midi.NoteOnEvent(tick=2, channel=0, data=[39, 58]),
   midi.NoteOnEvent(tick=16, channel=0, data=[51, 0]),
   midi.NoteOnEvent(tick=3, channel=0, data=[39, 0]),
   midi.NoteOnEvent(tick=83, channel=0, data=[44, 53]),
   midi.NoteOnEvent(tick=2, channel=0, data=[56, 59]),
   midi.ControlChangeEvent(tick=1, channel=0, data=[64, 56]),
   midi.ControlChangeEvent(tick=4, channel=0, data=[64, 127]),
   midi.NoteOnEvent(tick=6, channel=0, data=[56, 0]),
   midi.NoteOnEvent(tick=4, channel=0, data=[44, 0]),
   midi.NoteOnEvent(tick=31, channel=0, data=[84, 83]),
   midi.NoteOnEvent(tick=30, channel=0, data=[84, 0]),
   midi.NoteOnEvent(tick=19, channel=0, data=[80, 77]),
   midi.NoteOnEvent(tick=2, channel=0, data=[60, 59]),
   midi.NoteOnEvent(tick=4, channel=0, data=[51, 42]),
   midi.NoteOnEvent(tick=4, channel=0, data=[60, 0]),
   midi.NoteOnEvent(tick=5, channel=0, data=[51, 0]),
   midi.NoteOnEvent(tick=16, channel=0, data=[80, 0]),
   midi.NoteOnEvent(tick=15, channel=0, data=[77, 79]),
   midi.ControlChangeEvent(tick=22, channel=0, data=[64, 72]),
   midi.ControlChangeEvent(tick=4, channel=0, data=[64, 0]),
   midi.NoteOnEvent(tick=8, channel=0, data=[77, 0]),
   midi.NoteOnEvent(tick=14, channel=0, data=[74, 73]),
   midi.NoteOnEvent(tick=3, channel=0, data=[51, 58]),
   midi.NoteOnEvent(tick=1, channel=0, data=[39, 47]),
   midi.NoteOnEvent(tick=6, channel=0, data=[39, 0]),
   midi.ControlChangeEvent(tick=0, channel=0, data=[64, 72]),
   midi.NoteOnEvent(tick=2, channel=0, data=[51, 0]),
   midi.ControlChangeEvent(tick=2, channel=0, data=[64, 127]),
   midi.NoteOnEvent(tick=16, channel=0, data=[74, 0]),
   midi.NoteOnEvent(tick=17, channel=0, data=[75, 76]),
   midi.NoteOnEvent(tick=29, channel=0, data=[75, 0]),
   midi.ControlChangeEvent(tick=2, channel=0, data=[64, 104]),
   midi.ControlChangeEvent(tick=4, channel=0, data=[64, 56]),
   midi.ControlChangeEvent(tick=4, channel=0, data=[64, 0]),
   midi.NoteOnEvent(tick=12, channel=0, data=[68, 67]),
   midi.NoteOnEvent(tick=1, channel=0, data=[60, 59]),
   midi.NoteOnEvent(tick=1, channel=0, data=[51, 58]),
   midi.NoteOnEvent(tick=1, channel=0, data=[56, 39]),
   midi.ControlChangeEvent(tick=2, channel=0, data=[64, 56]),
   midi.ControlChangeEvent(tick=4, channel=0, data=[64, 88]),
   midi.NoteOnEvent(tick=1, channel=0, data=[60, 0]),
   midi.NoteOnEvent(tick=1, channel=0, data=[56, 0]),
   midi.ControlChangeEvent(tick=2, channel=0, data=[64, 127]),
   midi.NoteOnEvent(tick=4, channel=0, data=[51, 0]),
   midi.NoteOnEvent(tick=10, channel=0, data=[68, 0]),
   midi.NoteOnEvent(tick=21, channel=0, data=[70, 76]),
   midi.NoteOnEvent(tick=23, channel=0, data=[70, 0]),
   midi.ControlChangeEvent(tick=2, channel=0, data=[64, 104]),
   midi.ControlChangeEvent(tick=4, channel=0, data=[64, 40]),
   midi.ControlChangeEvent(tick=4, channel=0, data=[64, 0]),
   midi.NoteOnEvent(tick=19, channel=0, data=[71, 77]),
   midi.NoteOnEvent(tick=4, channel=0, data=[62, 61]),
   midi.NoteOnEvent(tick=0, channel=0, data=[53, 59]),
   midi.NoteOnEvent(tick=0, channel=0, data=[41, 50]),
   midi.NoteOnEvent(tick=13, channel=0, data=[53, 0]),
   midi.NoteOnEvent(tick=1, channel=0, data=[41, 0]),
   midi.ControlChangeEvent(tick=0, channel=0, data=[64, 56]),
   midi.ControlChangeEvent(tick=4, channel=0, data=[64, 104]),
   midi.ControlChangeEvent(tick=3, channel=0, data=[64, 127]),
   midi.NoteOnEvent(tick=9, channel=0, data=[62, 0]),
   midi.NoteOnEvent(tick=5, channel=0, data=[71, 0]),
   midi.NoteOnEvent(tick=11, channel=0, data=[67, 73]),
   midi.ControlChangeEvent(tick=23, channel=0, data=[64, 72]),
   midi.ControlChangeEvent(tick=4, channel=0, data=[64, 24]),
   midi.ControlChangeEvent(tick=5, channel=0, data=[64, 0]),
   midi.NoteOnEvent(tick=9, channel=0, data=[67, 0]),
   midi.NoteOnEvent(tick=6, channel=0, data=[68, 70]),
   midi.NoteOnEvent(tick=5, channel=0, data=[52, 59]),
   midi.ControlChangeEvent(tick=0, channel=0, data=[64, 56]),
   midi.NoteOnEvent(tick=3, channel=0, data=[40, 42]),
   midi.ControlChangeEvent(tick=1, channel=0, data=[64, 104]),
   midi.ControlChangeEvent(tick=4, channel=0, data=[64, 127]),
   midi.NoteOnEvent(tick=2, channel=0, data=[52, 0]),
   midi.NoteOnEvent(tick=4, channel=0, data=[40, 0]),
   midi.NoteOnEvent(tick=16, channel=0, data=[68, 0]),
   midi.ControlChangeEvent(tick=15, channel=0, data=[64, 56]),
   midi.ControlChangeEvent(tick=4, channel=0, data=[64, 0]),
   midi.NoteOnEvent(tick=3, channel=0, data=[70, 67]),
   midi.NoteOnEvent(tick=3, channel=0, data=[61, 46]),
   midi.NoteOnEvent(tick=1, channel=0, data=[67, 57]),
   midi.NoteOnEvent(tick=37, channel=0, data=[61, 0]),
   midi.ControlChangeEvent(tick=0, channel=0, data=[64, 72]),
   midi.NoteOnEvent(tick=4, channel=0, data=[67, 0]),
   midi.ControlChangeEvent(tick=0, channel=0, data=[64, 127]),
   midi.NoteOnEvent(tick=2, channel=0, data=[39, 42]),
   midi.NoteOnEvent(tick=5, channel=0, data=[51, 30]),
   midi.NoteOnEvent(tick=5, channel=0, data=[70, 0]),
   midi.NoteOnEvent(tick=4, channel=0, data=[39, 0]),
   midi.NoteOnEvent(tick=2, channel=0, data=[51, 0]),
   midi.NoteOnEvent(tick=31, channel=0, data=[75, 87]),
   midi.NoteOnEvent(tick=52, channel=0, data=[87, 88]),
   midi.NoteOnEvent(tick=6, channel=0, data=[61, 35]),
   midi.NoteOnEvent(tick=2, channel=0, data=[55, 44]),
   midi.NoteOnEvent(tick=6, channel=0, data=[61, 0]),
   midi.NoteOnEvent(tick=3, channel=0, data=[55, 0]),
   midi.NoteOnEvent(tick=16, channel=0, data=[87, 0]),
   midi.NoteOnEvent(tick=8, channel=0, data=[75, 0]),
   midi.NoteOnEvent(tick=7, channel=0, data=[85, 85]),
   midi.NoteOnEvent(tick=24, channel=0, data=[85, 0]),
   midi.ControlChangeEvent(tick=9, channel=0, data=[64, 56]),
   midi.ControlChangeEvent(tick=4, channel=0, data=[64, 0]),
   midi.NoteOnEvent(tick=14, channel=0, data=[44, 51]),
   midi.NoteOnEvent(tick=1, channel=0, data=[56, 51]),
   midi.NoteOnEvent(tick=17, channel=0, data=[44, 0]),
   midi.ControlChangeEvent(tick=0, channel=0, data=[64, 127]),
   midi.NoteOnEvent(tick=1, channel=0, data=[56, 0]),
   midi.NoteOnEvent(tick=27, channel=0, data=[84, 76]),
   midi.NoteOnEvent(tick=31, channel=0, data=[84, 0]),
   midi.NoteOnEvent(tick=20, channel=0, data=[80, 75]),
   midi.NoteOnEvent(tick=1, channel=0, data=[60, 59]),
   midi.NoteOnEvent(tick=2, channel=0, data=[51, 48]),
   midi.NoteOnEvent(tick=1, channel=0, data=[56, 34]),
   midi.NoteOnEvent(tick=7, channel=0, data=[60, 0]),
   midi.NoteOnEvent(tick=1, channel=0, data=[56, 0]),
   midi.NoteOnEvent(tick=6, channel=0, data=[51, 0]),
   midi.NoteOnEvent(tick=14, channel=0, data=[80, 0]),
   midi.NoteOnEvent(tick=18, channel=0, data=[77, 80]),
   midi.ControlChangeEvent(tick=32, channel=0, data=[64, 72]),
   midi.NoteOnEvent(tick=1, channel=0, data=[77, 0]),
   midi.ControlChangeEvent(tick=3, channel=0, data=[64, 0]),
   midi.NoteOnEvent(tick=12, channel=0, data=[74, 77]),
   midi.NoteOnEvent(tick=0, channel=0, data=[39, 46]),
   midi.NoteOnEvent(tick=1, channel=0, data=[51, 53]),
   midi.ControlChangeEvent(tick=7, channel=0, data=[64, 24]),
   midi.NoteOnEvent(tick=4, channel=0, data=[39, 0]),
   midi.ControlChangeEvent(tick=0, channel=0, data=[64, 88]),
   midi.NoteOnEvent(tick=4, channel=0, data=[51, 0]),
   midi.ControlChangeEvent(tick=1, channel=0, data=[64, 127]),
   midi.NoteOnEvent(tick=14, channel=0, data=[74, 0]),
   midi.NoteOnEvent(tick=17, channel=0, data=[75, 78]),
   midi.NoteOnEvent(tick=31, channel=0, data=[75, 0]),
   midi.NoteOnEvent(tick=17, channel=0, data=[60, 55]),
   midi.NoteOnEvent(tick=0, channel=0, data=[51, 50]),
   midi.NoteOnEvent(tick=2, channel=0, data=[68, 65]),
   midi.NoteOnEvent(tick=2, channel=0, data=[56, 30]),
   midi.NoteOnEvent(tick=4, channel=0, data=[60, 0]),
   midi.NoteOnEvent(tick=4, channel=0, data=[56, 0]),
   midi.NoteOnEvent(tick=7, channel=0, data=[51, 0]),
   midi.NoteOnEvent(tick=13, channel=0, data=[68, 0]),
   midi.NoteOnEvent(tick=18, channel=0, data=[70, 80]),
   midi.NoteOnEvent(tick=21, channel=0, data=[70, 0]),
   midi.ControlChangeEvent(tick=19, channel=0, data=[64, 56]),
   midi.ControlChangeEvent(tick=4, channel=0, data=[64, 0]),
   midi.NoteOnEvent(tick=7, channel=0, data=[71, 80]),
   midi.NoteOnEvent(tick=3, channel=0, data=[62, 70]),
   midi.NoteOnEvent(tick=0, channel=0, data=[41, 55]),
   midi.NoteOnEvent(tick=1, channel=0, data=[53, 52]),
   midi.NoteOnEvent(tick=15, channel=0, data=[53, 0]),
   midi.ControlChangeEvent(tick=2, channel=0, data=[64, 88]),
   midi.ControlChangeEvent(tick=4, channel=0, data=[64, 127]),
   midi.NoteOnEvent(tick=1, channel=0, data=[41, 0]),
   midi.NoteOnEvent(tick=6, channel=0, data=[62, 0]),
   midi.NoteOnEvent(tick=11, channel=0, data=[71, 0]),
   midi.NoteOnEvent(tick=6, channel=0, data=[67, 75]),
   midi.NoteOnEvent(tick=6, channel=0, data=[62, 16]),
   midi.NoteOnEvent(tick=13, channel=0, data=[62, 0]),
   midi.NoteOnEvent(tick=24, channel=0, data=[67, 0]),
   midi.NoteOnEvent(tick=11, channel=0, data=[68, 68]),
   midi.NoteOnEvent(tick=0, channel=0, data=[52, 49]),
   midi.NoteOnEvent(tick=2, channel=0, data=[40, 40]),
   midi.NoteOnEvent(tick=10, channel=0, data=[40, 0]),
   midi.NoteOnEvent(tick=1, channel=0, data=[52, 0]),
   midi.NoteOnEvent(tick=18, channel=0, data=[68, 0]),
   midi.NoteOnEvent(tick=23, channel=0, data=[70, 71]),
   midi.NoteOnEvent(tick=1, channel=0, data=[61, 55]),
   midi.NoteOnEvent(tick=1, channel=0, data=[67, 61]),
   midi.ControlChangeEvent(tick=8, channel=0, data=[64, 56]),
   midi.ControlChangeEvent(tick=4, channel=0, data=[64, 0]),
   midi.NoteOnEvent(tick=37, channel=0, data=[39, 52]),
   midi.NoteOnEvent(tick=2, channel=0, data=[51, 49]),
   midi.ControlChangeEvent(tick=5, channel=0, data=[64, 56]),
   midi.ControlChangeEvent(tick=4, channel=0, data=[64, 127]),
   midi.NoteOnEvent(tick=2, channel=0, data=[67, 0]),
   midi.NoteOnEvent(tick=0, channel=0, data=[70, 0]),
   midi.NoteOnEvent(tick=2, channel=0, data=[51, 0]),
   midi.NoteOnEvent(tick=4, channel=0, data=[39, 0]),
   midi.NoteOnEvent(tick=2, channel=0, data=[61, 0]),
   midi.ControlChangeEvent(tick=71, channel=0, data=[64, 56]),
   midi.ControlChangeEvent(tick=4, channel=0, data=[64, 0]),
   midi.NoteOnEvent(tick=4, channel=0, data=[58, 68]),
   midi.NoteOnEvent(tick=4, channel=0, data=[46, 55]),
   midi.ControlChangeEvent(tick=16, channel=0, data=[64, 24]),
   midi.ControlChangeEvent(tick=4, channel=0, data=[64, 88]),
   midi.ControlChangeEvent(tick=4, channel=0, data=[64, 127]),
   midi.NoteOnEvent(tick=2, channel=0, data=[46, 0]),
   midi.NoteOnEvent(tick=4, channel=0, data=[58, 0]),
   midi.NoteOnEvent(tick=13, channel=0, data=[60, 80]),
   midi.NoteOnEvent(tick=6, channel=0, data=[48, 55]),
   midi.ControlChangeEvent(tick=7, channel=0, data=[64, 72]),
   midi.ControlChangeEvent(tick=4, channel=0, data=[64, 0]),
   midi.NoteOnEvent(tick=1, channel=0, data=[48, 0]),
   midi.NoteOnEvent(tick=15, channel=0, data=[60, 0]),
   midi.NoteOnEvent(tick=23, channel=0, data=[53, 80]),
   midi.NoteOnEvent(tick=9, channel=0, data=[41, 48]),
   midi.ControlChangeEvent(tick=1, channel=0, data=[64, 56]),
   midi.ControlChangeEvent(tick=4, channel=0, data=[64, 127]),
   midi.NoteOnEvent(tick=4, channel=0, data=[41, 0]),
   midi.NoteOnEvent(tick=1, channel=0, data=[53, 0]),
   midi.ControlChangeEvent(tick=83, channel=0, data=[64, 88]),
   midi.NoteOnEvent(tick=3, channel=0, data=[73, 73]),
   midi.ControlChangeEvent(tick=1, channel=0, data=[64, 0]),
   midi.NoteOnEvent(tick=3, channel=0, data=[70, 57]),
   midi.NoteOnEvent(tick=2, channel=0, data=[67, 51]),
   midi.NoteOnEvent(tick=1, channel=0, data=[65, 48]),
   midi.ControlChangeEvent(tick=14, channel=0, data=[64, 24]),
   midi.ControlChangeEvent(tick=4, channel=0, data=[64, 88]),
   midi.ControlChangeEvent(tick=4, channel=0, data=[64, 127]),
   midi.NoteOnEvent(tick=31, channel=0, data=[65, 0]),
   midi.NoteOnEvent(tick=1, channel=0, data=[73, 0]),
   midi.NoteOnEvent(tick=1, channel=0, data=[67, 0]),
   midi.NoteOnEvent(tick=8, channel=0, data=[70, 0]),
   midi.ControlChangeEvent(tick=28, channel=0, data=[64, 104]),
   midi.ControlChangeEvent(tick=4, channel=0, data=[64, 40]),
   midi.NoteOnEvent(tick=0, channel=0, data=[72, 70]),
   midi.ControlChangeEvent(tick=4, channel=0, data=[64, 0]),
   midi.NoteOnEvent(tick=2, channel=0, data=[64, 50]),
   midi.NoteOnEvent(tick=2, channel=0, data=[70, 26]),
   midi.ControlChangeEvent(tick=8, channel=0, data=[64, 24]),
   midi.NoteOnEvent(tick=2, channel=0, data=[64, 0]),
   midi.ControlChangeEvent(tick=2, channel=0, data=[64, 72]),
   midi.NoteOnEvent(tick=3, channel=0, data=[70, 0]),
   midi.NoteOnEvent(tick=0, channel=0, data=[72, 0]),
   midi.ControlChangeEvent(tick=2, channel=0, data=[64, 127]),
   midi.ControlChangeEvent(tick=68, channel=0, data=[64, 72]),
   midi.ControlChangeEvent(tick=4, channel=0, data=[64, 0]),
   midi.NoteOnEvent(tick=8, channel=0, data=[58, 67]),
   midi.NoteOnEvent(tick=4, channel=0, data=[46, 55]),
   midi.ControlChangeEvent(tick=11, channel=0, data=[64, 56]),
   midi.ControlChangeEvent(tick=5, channel=0, data=[64, 127]),
   midi.NoteOnEvent(tick=13, channel=0, data=[46, 0]),
   midi.NoteOnEvent(tick=3, channel=0, data=[58, 0]),
   midi.NoteOnEvent(tick=10, channel=0, data=[60, 79]),
   midi.NoteOnEvent(tick=4, channel=0, data=[48, 61]),
   midi.NoteOnEvent(tick=18, channel=0, data=[48, 0]),
   midi.NoteOnEvent(tick=13, channel=0, data=[60, 0]),
   midi.ControlChangeEvent(tick=4, channel=0, data=[64, 104]),
   midi.ControlChangeEvent(tick=4, channel=0, data=[64, 0]),
   midi.NoteOnEvent(tick=13, channel=0, data=[53, 82]),
   midi.NoteOnEvent(tick=10, channel=0, data=[41, 55]),
   midi.NoteOnEvent(tick=8, channel=0, data=[41, 0]),
   midi.ControlChangeEvent(tick=1, channel=0, data=[64, 127]),
   midi.NoteOnEvent(tick=1, channel=0, data=[53, 0]),
   midi.NoteOnEvent(tick=85, channel=0, data=[77, 85]),
   midi.NoteOnEvent(tick=6, channel=0, data=[70, 54]),
   midi.NoteOnEvent(tick=0, channel=0, data=[61, 46]),
   midi.ControlChangeEvent(tick=0, channel=0, data=[64, 72]),
   midi.NoteOnEvent(tick=1, channel=0, data=[67, 49]),
   midi.ControlChangeEvent(tick=4, channel=0, data=[64, 0]),
   midi.ControlChangeEvent(tick=12, channel=0, data=[64, 127]),
   midi.NoteOnEvent(tick=57, channel=0, data=[77, 0]),
   midi.NoteOnEvent(tick=4, channel=0, data=[61, 0]),
   midi.NoteOnEvent(tick=13, channel=0, data=[67, 0]),
   midi.NoteOnEvent(tick=19, channel=0, data=[76, 69]),
   midi.NoteOnEvent(tick=10, channel=0, data=[60, 32]),
   midi.ControlChangeEvent(tick=18, channel=0, data=[64, 40]),
   midi.ControlChangeEvent(tick=3, channel=0, data=[64, 0]),
   midi.ControlChangeEvent(tick=37, channel=0, data=[64, 88]),
   midi.ControlChangeEvent(tick=4, channel=0, data=[64, 127]),
   midi.NoteOnEvent(tick=17, channel=0, data=[76, 0]),
   midi.NoteOnEvent(tick=2, channel=0, data=[70, 0]),
   midi.NoteOnEvent(tick=1, channel=0, data=[60, 0]),
   midi.ControlChangeEvent(tick=57, channel=0, data=[64, 104]),
   midi.ControlChangeEvent(tick=4, channel=0, data=[64, 56]),
   midi.ControlChangeEvent(tick=4, channel=0, data=[64, 0]),
   midi.NoteOnEvent(tick=55, channel=0, data=[41, 58]),
   midi.ControlChangeEvent(tick=5, channel=0, data=[64, 56]),
   midi.NoteOnEvent(tick=3, channel=0, data=[29, 36]),
   midi.ControlChangeEvent(tick=1, channel=0, data=[64, 104]),
   midi.ControlChangeEvent(tick=4, channel=0, data=[64, 127]),
   midi.NoteOnEvent(tick=17, channel=0, data=[41, 0]),
   midi.ControlChangeEvent(tick=8, channel=0, data=[64, 104]),
   midi.NoteOnEvent(tick=2, channel=0, data=[29, 0]),
   midi.ControlChangeEvent(tick=2, channel=0, data=[64, 72]),
   midi.ControlChangeEvent(tick=4, channel=0, data=[64, 40]),
   midi.NoteOnEvent(tick=0, channel=0, data=[43, 68]),
   midi.ControlChangeEvent(tick=4, channel=0, data=[64, 24]),
   midi.NoteOnEvent(tick=4, channel=0, data=[31, 40]),
   midi.ControlChangeEvent(tick=8, channel=0, data=[64, 88]),
   midi.ControlChangeEvent(tick=3, channel=0, data=[64, 127]),
   midi.NoteOnEvent(tick=12, channel=0, data=[31, 0]),
   midi.NoteOnEvent(tick=0, channel=0, data=[43, 0]),
   midi.NoteOnEvent(tick=17, channel=0, data=[32, 42]),
   midi.NoteOnEvent(tick=1, channel=0, data=[44, 60]),
   midi.ControlChangeEvent(tick=11, channel=0, data=[64, 56]),
   midi.ControlChangeEvent(tick=4, channel=0, data=[64, 0]),
   midi.NoteOnEvent(tick=13, channel=0, data=[32, 0]),
   midi.NoteOnEvent(tick=6, channel=0, data=[44, 0]),
   midi.ControlChangeEvent(tick=10, channel=0, data=[64, 56]),
   midi.ControlChangeEvent(tick=4, channel=0, data=[64, 104]),
   midi.NoteOnEvent(tick=1, channel=0, data=[48, 72]),
   midi.ControlChangeEvent(tick=3, channel=0, data=[64, 127]),
   midi.NoteOnEvent(tick=2, channel=0, data=[36, 34]),
   midi.NoteOnEvent(tick=9, channel=0, data=[48, 0]),
   midi.ControlChangeEvent(tick=21, channel=0, data=[64, 88]),
   midi.NoteOnEvent(tick=4, channel=0, data=[36, 0]),
   midi.ControlChangeEvent(tick=0, channel=0, data=[64, 24]),
   midi.ControlChangeEvent(tick=4, channel=0, data=[64, 0]),
   midi.NoteOnEvent(tick=6, channel=0, data=[53, 77]),
   midi.NoteOnEvent(tick=2, channel=0, data=[41, 44]),
   midi.ControlChangeEvent(tick=24, channel=0, data=[64, 40]),
   midi.ControlChangeEvent(tick=4, channel=0, data=[64, 72]),
   midi.NoteOnEvent(tick=3, channel=0, data=[41, 0]),
   midi.ControlChangeEvent(tick=1, channel=0, data=[64, 88]),
   midi.NoteOnEvent(tick=10, channel=0, data=[53, 0]),
   midi.NoteOnEvent(tick=0, channel=0, data=[43, 45]),
   midi.NoteOnEvent(tick=3, channel=0, data=[55, 75]),
   midi.ControlChangeEvent(tick=11, channel=0, data=[64, 40]),
   midi.ControlChangeEvent(tick=4, channel=0, data=[64, 0]),
   midi.NoteOnEvent(tick=25, channel=0, data=[55, 0]),
   midi.NoteOnEvent(tick=2, channel=0, data=[43, 0]),
   midi.NoteOnEvent(tick=4, channel=0, data=[44, 52]),
   midi.NoteOnEvent(tick=2, channel=0, data=[56, 70]),
   midi.ControlChangeEvent(tick=32, channel=0, data=[64, 40]),
   midi.ControlChangeEvent(tick=4, channel=0, data=[64, 72]),
   midi.NoteOnEvent(tick=1, channel=0, data=[44, 0]),
   midi.NoteOnEvent(tick=2, channel=0, data=[56, 0]),
   midi.ControlChangeEvent(tick=1, channel=0, data=[64, 104]),
   midi.NoteOnEvent(tick=4, channel=0, data=[60, 77]),
   midi.ControlChangeEvent(tick=4, channel=0, data=[64, 127]),
   midi.NoteOnEvent(tick=3, channel=0, data=[48, 52]),
   midi.NoteOnEvent(tick=10, channel=0, data=[60, 0]),
   midi.ControlChangeEvent(tick=20, channel=0, data=[64, 56]),
   midi.NoteOnEvent(tick=4, channel=0, data=[48, 0]),
   midi.ControlChangeEvent(tick=0, channel=0, data=[64, 0]),
   midi.NoteOnEvent(tick=8, channel=0, data=[65, 78]),
   midi.NoteOnEvent(tick=5, channel=0, data=[53, 58]),
   midi.ControlChangeEvent(tick=23, channel=0, data=[64, 24]),
   midi.ControlChangeEvent(tick=4, channel=0, data=[64, 56]),
   midi.ControlChangeEvent(tick=4, channel=0, data=[64, 72]),
   midi.NoteOnEvent(tick=2, channel=0, data=[53, 0]),
   midi.NoteOnEvent(tick=5, channel=0, data=[65, 0]),
   midi.NoteOnEvent(tick=3, channel=0, data=[55, 56]),
   midi.NoteOnEvent(tick=2, channel=0, data=[67, 75]),
   midi.ControlChangeEvent(tick=16, channel=0, data=[64, 56]),
   midi.ControlChangeEvent(tick=3, channel=0, data=[64, 40]),
   midi.ControlChangeEvent(tick=5, channel=0, data=[64, 0]),
   midi.NoteOnEvent(tick=13, channel=0, data=[55, 0]),
   midi.NoteOnEvent(tick=2, channel=0, data=[67, 0]),
   midi.NoteOnEvent(tick=8, channel=0, data=[56, 57]),
   midi.NoteOnEvent(tick=1, channel=0, data=[68, 72]),
   midi.ControlChangeEvent(tick=12, channel=0, data=[64, 72]),
   midi.ControlChangeEvent(tick=4, channel=0, data=[64, 127]),
   midi.NoteOnEvent(tick=17, channel=0, data=[56, 0]),
   midi.NoteOnEvent(tick=6, channel=0, data=[68, 0]),
   midi.NoteOnEvent(tick=6, channel=0, data=[72, 79]),
   midi.NoteOnEvent(tick=6, channel=0, data=[60, 42]),
   midi.NoteOnEvent(tick=9, channel=0, data=[72, 0]),
   midi.ControlChangeEvent(tick=17, channel=0, data=[64, 88]),
   midi.ControlChangeEvent(tick=4, channel=0, data=[64, 0]),
   midi.NoteOnEvent(tick=4, channel=0, data=[60, 0]),
   midi.NoteOnEvent(tick=9, channel=0, data=[77, 86]),
   midi.NoteOnEvent(tick=5, channel=0, data=[65, 57]),
   midi.ControlChangeEvent(tick=14, channel=0, data=[64, 56]),
   midi.ControlChangeEvent(tick=4, channel=0, data=[64, 127]),
   midi.NoteOnEvent(tick=17, channel=0, data=[77, 0]),
   midi.NoteOnEvent(tick=6, channel=0, data=[79, 86]),
   midi.NoteOnEvent(tick=1, channel=0, data=[67, 61]),
   midi.NoteOnEvent(tick=1, channel=0, data=[65, 0]),
   midi.NoteOnEvent(tick=25, channel=0, data=[67, 0]),
   midi.NoteOnEvent(tick=6, channel=0, data=[79, 0]),
   midi.NoteOnEvent(tick=6, channel=0, data=[68, 48]),
   midi.NoteOnEvent(tick=6, channel=0, data=[80, 85]),
   midi.NoteOnEvent(tick=32, channel=0, data=[68, 0]),
   midi.NoteOnEvent(tick=1, channel=0, data=[80, 0]),
   midi.NoteOnEvent(tick=15, channel=0, data=[84, 88]),
   midi.NoteOnEvent(tick=1, channel=0, data=[72, 69]),
   midi.NoteOnEvent(tick=11, channel=0, data=[72, 0]),
   midi.NoteOnEvent(tick=11, channel=0, data=[84, 0]),
   midi.ControlChangeEvent(tick=31, channel=0, data=[64, 40]),
   midi.NoteOnEvent(tick=3, channel=0, data=[89, 88]),
   midi.ControlChangeEvent(tick=1, channel=0, data=[64, 0]),
   midi.NoteOnEvent(tick=0, channel=0, data=[77, 75]),
   midi.NoteOnEvent(tick=4, channel=0, data=[71, 47]),
   midi.NoteOnEvent(tick=1, channel=0, data=[65, 40]),
   midi.NoteOnEvent(tick=1, channel=0, data=[62, 45]),
   midi.NoteOnEvent(tick=3, channel=0, data=[68, 29]),
   midi.ControlChangeEvent(tick=19, channel=0, data=[64, 88]),
   midi.ControlChangeEvent(tick=4, channel=0, data=[64, 127]),
   midi.NoteOnEvent(tick=4, channel=0, data=[62, 0]),
   midi.NoteOnEvent(tick=5, channel=0, data=[77, 0]),
   midi.NoteOnEvent(tick=1, channel=0, data=[65, 0]),
   midi.NoteOnEvent(tick=0, channel=0, data=[71, 0]),
   midi.NoteOnEvent(tick=5, channel=0, data=[68, 0]),
   midi.NoteOnEvent(tick=4, channel=0, data=[89, 0]),
   midi.NoteOnEvent(tick=50, channel=0, data=[91, 92]),
   midi.NoteOnEvent(tick=2, channel=0, data=[65, 45]),
   midi.NoteOnEvent(tick=0, channel=0, data=[79, 73]),
   midi.NoteOnEvent(tick=0, channel=0, data=[68, 28]),
   midi.NoteOnEvent(tick=1, channel=0, data=[71, 37]),
   midi.NoteOnEvent(tick=2, channel=0, data=[62, 31]),
   midi.NoteOnEvent(tick=10, channel=0, data=[79, 0]),
   midi.NoteOnEvent(tick=2, channel=0, data=[62, 0]),
   midi.NoteOnEvent(tick=1, channel=0, data=[91, 0]),
   midi.NoteOnEvent(tick=1, channel=0, data=[71, 0]),
   midi.NoteOnEvent(tick=4, channel=0, data=[68, 0]),
   midi.NoteOnEvent(tick=0, channel=0, data=[65, 0]),
   midi.NoteOnEvent(tick=27, channel=0, data=[89, 91]),
   midi.NoteOnEvent(tick=4, channel=0, data=[77, 77]),
   midi.ControlChangeEvent(tick=22, channel=0, data=[64, 104]),
   midi.ControlChangeEvent(tick=4, channel=0, data=[64, 24]),
   midi.ControlChangeEvent(tick=4, channel=0, data=[64, 0]),
   midi.ControlChangeEvent(tick=16, channel=0, data=[64, 56]),
   midi.NoteOnEvent(tick=2, channel=0, data=[77, 0]),
   midi.NoteOnEvent(tick=0, channel=0, data=[71, 34]),
   midi.NoteOnEvent(tick=2, channel=0, data=[65, 37]),
   midi.NoteOnEvent(tick=0, channel=0, data=[62, 35]),
   midi.NoteOnEvent(tick=0, channel=0, data=[68, 34]),
   midi.ControlChangeEvent(tick=1, channel=0, data=[64, 127]),
   midi.NoteOnEvent(tick=9, channel=0, data=[89, 0]),
   midi.NoteOnEvent(tick=2, channel=0, data=[62, 0]),
   midi.NoteOnEvent(tick=2, channel=0, data=[65, 0]),
   midi.NoteOnEvent(tick=4, channel=0, data=[71, 0]),
   midi.NoteOnEvent(tick=1, channel=0, data=[68, 0]),
   midi.NoteOnEvent(tick=19, channel=0, data=[91, 94]),
   midi.NoteOnEvent(tick=3, channel=0, data=[79, 80]),
   midi.NoteOnEvent(tick=13, channel=0, data=[79, 0]),
   midi.NoteOnEvent(tick=2, channel=0, data=[91, 0]),
   midi.NoteOnEvent(tick=31, channel=0, data=[65, 39]),
   midi.NoteOnEvent(tick=1, channel=0, data=[89, 94]),
   midi.NoteOnEvent(tick=2, channel=0, data=[62, 33]),
   midi.NoteOnEvent(tick=1, channel=0, data=[77, 81]),
   midi.NoteOnEvent(tick=2, channel=0, data=[71, 26]),
   midi.NoteOnEvent(tick=8, channel=0, data=[62, 0]),
   midi.NoteOnEvent(tick=5, channel=0, data=[77, 0]),
   midi.NoteOnEvent(tick=0, channel=0, data=[65, 0]),
   midi.NoteOnEvent(tick=2, channel=0, data=[89, 0]),
   midi.NoteOnEvent(tick=0, channel=0, data=[71, 0]),
   midi.NoteOnEvent(tick=30, channel=0, data=[89, 92]),
   midi.ControlChangeEvent(tick=0, channel=0, data=[64, 72]),
   midi.ControlChangeEvent(tick=3, channel=0, data=[64, 0]),
   midi.NoteOnEvent(tick=2, channel=0, data=[77, 77]),
   midi.NoteOnEvent(tick=13, channel=0, data=[77, 0]),
   midi.NoteOnEvent(tick=35, channel=0, data=[63, 53]),
   midi.NoteOnEvent(tick=0, channel=0, data=[68, 42]),
   midi.NoteOnEvent(tick=2, channel=0, data=[72, 55]),
   midi.ControlChangeEvent(tick=1, channel=0, data=[64, 72]),
   midi.ControlChangeEvent(tick=4, channel=0, data=[64, 127]),
   midi.NoteOnEvent(tick=13, channel=0, data=[63, 0]),
   midi.NoteOnEvent(tick=2, channel=0, data=[72, 0]),
   midi.NoteOnEvent(tick=0, channel=0, data=[68, 0]),
   midi.NoteOnEvent(tick=5, channel=0, data=[89, 0]),
   midi.NoteOnEvent(tick=16, channel=0, data=[87, 79]),
   midi.NoteOnEvent(tick=35, channel=0, data=[87, 0]),
   midi.NoteOnEvent(tick=12, channel=0, data=[84, 80]),
   midi.NoteOnEvent(tick=2, channel=0, data=[63, 44]),
   midi.NoteOnEvent(tick=2, channel=0, data=[68, 34]),
   midi.NoteOnEvent(tick=1, channel=0, data=[72, 42]),
   midi.NoteOnEvent(tick=14, channel=0, data=[72, 0]),
   midi.NoteOnEvent(tick=2, channel=0, data=[68, 0]),
   midi.NoteOnEvent(tick=1, channel=0, data=[63, 0]),
   midi.NoteOnEvent(tick=10, channel=0, data=[84, 0]),
   midi.NoteOnEvent(tick=16, channel=0, data=[82, 75]),
   midi.NoteOnEvent(tick=43, channel=0, data=[82, 0]),
   midi.ControlChangeEvent(tick=0, channel=0, data=[64, 88]),
   midi.NoteOnEvent(tick=4, channel=0, data=[80, 80]),
   midi.ControlChangeEvent(tick=0, channel=0, data=[64, 0]),
   midi.NoteOnEvent(tick=6, channel=0, data=[72, 49]),
   midi.NoteOnEvent(tick=1, channel=0, data=[68, 35]),
   midi.NoteOnEvent(tick=2, channel=0, data=[66, 40]),
   midi.NoteOnEvent(tick=21, channel=0, data=[66, 0]),
   midi.NoteOnEvent(tick=0, channel=0, data=[72, 0]),
   midi.NoteOnEvent(tick=1, channel=0, data=[68, 0]),
   midi.ControlChangeEvent(tick=1, channel=0, data=[64, 127]),
   midi.NoteOnEvent(tick=19, channel=0, data=[87, 89]),
   midi.NoteOnEvent(tick=13, channel=0, data=[80, 0]),
   midi.NoteOnEvent(tick=42, channel=0, data=[66, 36]),
   midi.NoteOnEvent(tick=0, channel=0, data=[72, 46]),
   midi.NoteOnEvent(tick=17, channel=0, data=[66, 0]),
   midi.NoteOnEvent(tick=5, channel=0, data=[72, 0]),
   midi.NoteOnEvent(tick=22, channel=0, data=[87, 0]),
   midi.NoteOnEvent(tick=2, channel=0, data=[85, 79]),
   midi.ControlChangeEvent(tick=33, channel=0, data=[64, 88]),
   midi.ControlChangeEvent(tick=4, channel=0, data=[64, 0]),
   midi.NoteOnEvent(tick=19, channel=0, data=[65, 39]),
   midi.NoteOnEvent(tick=3, channel=0, data=[73, 24]),
   midi.NoteOnEvent(tick=3, channel=0, data=[68, 23]),
   midi.ControlChangeEvent(tick=0, channel=0, data=[64, 72]),
   midi.ControlChangeEvent(tick=4, channel=0, data=[64, 127]),
   midi.NoteOnEvent(tick=6, channel=0, data=[65, 0]),
   midi.NoteOnEvent(tick=2, channel=0, data=[68, 0]),
   midi.NoteOnEvent(tick=4, channel=0, data=[73, 0]),
   midi.NoteOnEvent(tick=19, channel=0, data=[82, 78]),
   midi.NoteOnEvent(tick=1, channel=0, data=[85, 0]),
   midi.NoteOnEvent(tick=47, channel=0, data=[94, 79]),
   midi.NoteOnEvent(tick=4, channel=0, data=[73, 39]),
   midi.NoteOnEvent(tick=4, channel=0, data=[64, 33]),
   midi.NoteOnEvent(tick=6, channel=0, data=[68, 26]),
   midi.NoteOnEvent(tick=6, channel=0, data=[64, 0]),
   midi.NoteOnEvent(tick=0, channel=0, data=[82, 0]),
   midi.NoteOnEvent(tick=2, channel=0, data=[68, 0]),
   midi.NoteOnEvent(tick=2, channel=0, data=[73, 0]),
   midi.NoteOnEvent(tick=7, channel=0, data=[94, 0]),
   midi.NoteOnEvent(tick=14, channel=0, data=[92, 88]),
   midi.NoteOnEvent(tick=19, channel=0, data=[92, 0]),
   midi.ControlChangeEvent(tick=30, channel=0, data=[64, 40]),
   midi.NoteOnEvent(tick=3, channel=0, data=[80, 81]),
   midi.ControlChangeEvent(tick=0, channel=0, data=[64, 0]),
   midi.NoteOnEvent(tick=4, channel=0, data=[68, 37]),
   midi.NoteOnEvent(tick=2, channel=0, data=[72, 48]),
   midi.NoteOnEvent(tick=0, channel=0, data=[63, 33]),
   midi.ControlChangeEvent(tick=19, channel=0, data=[64, 88]),
   midi.NoteOnEvent(tick=1, channel=0, data=[68, 0]),
   midi.NoteOnEvent(tick=3, channel=0, data=[72, 0]),
   midi.ControlChangeEvent(tick=0, channel=0, data=[64, 127]),
   midi.NoteOnEvent(tick=2, channel=0, data=[63, 0]),
   midi.NoteOnEvent(tick=16, channel=0, data=[84, 89]),
   midi.NoteOnEvent(tick=5, channel=0, data=[80, 0]),
   midi.NoteOnEvent(tick=49, channel=0, data=[68, 40]),
   midi.NoteOnEvent(tick=4, channel=0, data=[72, 33]),
   midi.NoteOnEvent(tick=0, channel=0, data=[63, 27]),
   midi.NoteOnEvent(tick=11, channel=0, data=[72, 0]),
   midi.NoteOnEvent(tick=1, channel=0, data=[63, 0]),
   midi.NoteOnEvent(tick=2, channel=0, data=[68, 0]),
   midi.NoteOnEvent(tick=15, channel=0, data=[84, 0]),
   midi.NoteOnEvent(tick=9, channel=0, data=[89, 91]),
   midi.NoteOnEvent(tick=31, channel=0, data=[89, 0]),
   midi.ControlChangeEvent(tick=16, channel=0, data=[64, 72]),
   midi.NoteOnEvent(tick=2, channel=0, data=[87, 76]),
   midi.ControlChangeEvent(tick=2, channel=0, data=[64, 0]),
   midi.NoteOnEvent(tick=6, channel=0, data=[73, 36]),
   midi.NoteOnEvent(tick=2, channel=0, data=[63, 30]),
   midi.NoteOnEvent(tick=2, channel=0, data=[67, 37]),
   midi.NoteOnEvent(tick=11, channel=0, data=[67, 0]),
   midi.ControlChangeEvent(tick=0, channel=0, data=[64, 56]),
   midi.NoteOnEvent(tick=3, channel=0, data=[63, 0]),
   midi.ControlChangeEvent(tick=1, channel=0, data=[64, 127]),
   midi.NoteOnEvent(tick=2, channel=0, data=[73, 0]),
   midi.NoteOnEvent(tick=8, channel=0, data=[87, 0]),
   midi.NoteOnEvent(tick=11, channel=0, data=[82, 74]),
   midi.NoteOnEvent(tick=38, channel=0, data=[82, 0]),
   midi.NoteOnEvent(tick=12, channel=0, data=[83, 77]),
   midi.NoteOnEvent(tick=0, channel=0, data=[73, 34]),
   midi.NoteOnEvent(tick=3, channel=0, data=[63, 29]),
   midi.NoteOnEvent(tick=1, channel=0, data=[67, 30]),
   midi.NoteOnEvent(tick=12, channel=0, data=[67, 0]),
   midi.NoteOnEvent(tick=4, channel=0, data=[63, 0]),
   midi.NoteOnEvent(tick=0, channel=0, data=[73, 0]),
   midi.NoteOnEvent(tick=19, channel=0, data=[83, 0]),
   midi.NoteOnEvent(tick=12, channel=0, data=[84, 77]),
   midi.ControlChangeEvent(tick=15, channel=0, data=[64, 40]),
   midi.ControlChangeEvent(tick=4, channel=0, data=[64, 0]),
   midi.ControlChangeEvent(tick=23, channel=0, data=[64, 56]),
   midi.NoteOnEvent(tick=4, channel=0, data=[63, 28]),
   midi.ControlChangeEvent(tick=0, channel=0, data=[64, 127]),
   midi.NoteOnEvent(tick=4, channel=0, data=[72, 36]),
   midi.NoteOnEvent(tick=1, channel=0, data=[68, 33]),
   midi.NoteOnEvent(tick=6, channel=0, data=[84, 0]),
   midi.NoteOnEvent(tick=14, channel=0, data=[72, 0]),
   midi.NoteOnEvent(tick=1, channel=0, data=[63, 0]),
   midi.NoteOnEvent(tick=2, channel=0, data=[68, 0]),
   midi.NoteOnEvent(tick=22, channel=0, data=[74, 73]),
   midi.NoteOnEvent(tick=28, channel=0, data=[74, 0]),
   midi.NoteOnEvent(tick=18, channel=0, data=[75, 80]),
   midi.NoteOnEvent(tick=1, channel=0, data=[68, 36]),
   midi.NoteOnEvent(tick=2, channel=0, data=[72, 31]),
   midi.NoteOnEvent(tick=0, channel=0, data=[63, 33]),
   midi.NoteOnEvent(tick=6, channel=0, data=[72, 0]),
   midi.NoteOnEvent(tick=1, channel=0, data=[68, 0]),
   midi.NoteOnEvent(tick=4, channel=0, data=[63, 0]),
   midi.NoteOnEvent(tick=19, channel=0, data=[75, 0]),
   midi.NoteOnEvent(tick=17, channel=0, data=[77, 84]),
   midi.NoteOnEvent(tick=3, channel=0, data=[65, 63]),
   midi.ControlChangeEvent(tick=18, channel=0, data=[64, 72]),
   midi.ControlChangeEvent(tick=4, channel=0, data=[64, 0]),
   midi.NoteOnEvent(tick=29, channel=0, data=[59, 51]),
   midi.NoteOnEvent(tick=1, channel=0, data=[53, 46]),
   midi.NoteOnEvent(tick=1, channel=0, data=[65, 0]),
   midi.NoteOnEvent(tick=1, channel=0, data=[50, 46]),
   midi.ControlChangeEvent(tick=0, channel=0, data=[64, 104]),
   midi.NoteOnEvent(tick=2, channel=0, data=[56, 38]),
   midi.ControlChangeEvent(tick=2, channel=0, data=[64, 127]),
   midi.NoteOnEvent(tick=6, channel=0, data=[56, 0]),
   midi.NoteOnEvent(tick=0, channel=0, data=[50, 0]),
   midi.NoteOnEvent(tick=3, channel=0, data=[53, 0]),
   midi.NoteOnEvent(tick=3, channel=0, data=[59, 0]),
   midi.NoteOnEvent(tick=41, channel=0, data=[77, 0]),
   midi.NoteOnEvent(tick=34, channel=0, data=[79, 88]),
   midi.NoteOnEvent(tick=2, channel=0, data=[67, 69]),
   midi.NoteOnEvent(tick=5, channel=0, data=[59, 43]),
   midi.NoteOnEvent(tick=0, channel=0, data=[53, 44]),
   midi.NoteOnEvent(tick=1, channel=0, data=[50, 39]),
   midi.NoteOnEvent(tick=4, channel=0, data=[56, 24]),
   midi.NoteOnEvent(tick=6, channel=0, data=[67, 0]),
   midi.NoteOnEvent(tick=1, channel=0, data=[79, 0]),
   midi.NoteOnEvent(tick=0, channel=0, data=[59, 0]),
   midi.NoteOnEvent(tick=1, channel=0, data=[56, 0]),
   midi.NoteOnEvent(tick=1, channel=0, data=[50, 0]),
   midi.NoteOnEvent(tick=0, channel=0, data=[53, 0]),
   midi.NoteOnEvent(tick=28, channel=0, data=[77, 93]),
   midi.NoteOnEvent(tick=2, channel=0, data=[65, 76]),
   midi.ControlChangeEvent(tick=27, channel=0, data=[64, 24]),
   midi.ControlChangeEvent(tick=4, channel=0, data=[64, 0]),
   midi.NoteOnEvent(tick=16, channel=0, data=[65, 0]),
   midi.NoteOnEvent(tick=3, channel=0, data=[50, 45]),
   midi.NoteOnEvent(tick=2, channel=0, data=[53, 43]),
   midi.ControlChangeEvent(tick=0, channel=0, data=[64, 56]),
   midi.NoteOnEvent(tick=0, channel=0, data=[59, 33]),
   midi.NoteOnEvent(tick=2, channel=0, data=[56, 26]),
   midi.ControlChangeEvent(tick=2, channel=0, data=[64, 127]),
   midi.NoteOnEvent(tick=8, channel=0, data=[77, 0]),
   midi.NoteOnEvent(tick=2, channel=0, data=[56, 0]),
   midi.NoteOnEvent(tick=1, channel=0, data=[53, 0]),
   midi.NoteOnEvent(tick=1, channel=0, data=[59, 0]),
   midi.NoteOnEvent(tick=2, channel=0, data=[50, 0]),
   midi.NoteOnEvent(tick=26, channel=0, data=[79, 90]),
   midi.NoteOnEvent(tick=2, channel=0, data=[67, 71]),
   midi.NoteOnEvent(tick=13, channel=0, data=[67, 0]),
   midi.NoteOnEvent(tick=3, channel=0, data=[79, 0]),
   midi.NoteOnEvent(tick=25, channel=0, data=[53, 43]),
   midi.NoteOnEvent(tick=5, channel=0, data=[77, 92]),
   midi.NoteOnEvent(tick=0, channel=0, data=[59, 29]),
   midi.NoteOnEvent(tick=2, channel=0, data=[50, 25]),
   midi.NoteOnEvent(tick=0, channel=0, data=[65, 71]),
   midi.NoteOnEvent(tick=8, channel=0, data=[50, 0]),
   midi.NoteOnEvent(tick=3, channel=0, data=[53, 0]),
   midi.NoteOnEvent(tick=2, channel=0, data=[59, 0]),
   midi.NoteOnEvent(tick=2, channel=0, data=[65, 0]),
   midi.NoteOnEvent(tick=2, channel=0, data=[77, 0]),
   midi.ControlChangeEvent(tick=9, channel=0, data=[64, 88]),
   midi.ControlChangeEvent(tick=4, channel=0, data=[64, 24]),
   midi.ControlChangeEvent(tick=4, channel=0, data=[64, 0]),
   midi.NoteOnEvent(tick=14, channel=0, data=[77, 86]),
   midi.NoteOnEvent(tick=3, channel=0, data=[65, 63]),
   midi.NoteOnEvent(tick=35, channel=0, data=[65, 0]),
   midi.NoteOnEvent(tick=12, channel=0, data=[51, 53]),
   midi.ControlChangeEvent(tick=1, channel=0, data=[64, 88]),
   midi.NoteOnEvent(tick=1, channel=0, data=[56, 37]),
   midi.NoteOnEvent(tick=0, channel=0, data=[60, 42]),
   midi.ControlChangeEvent(tick=3, channel=0, data=[64, 127]),
   midi.NoteOnEvent(tick=18, channel=0, data=[60, 0]),
   midi.NoteOnEvent(tick=1, channel=0, data=[51, 0]),
   midi.NoteOnEvent(tick=1, channel=0, data=[56, 0]),
   midi.NoteOnEvent(tick=5, channel=0, data=[77, 0]),
   midi.NoteOnEvent(tick=18, channel=0, data=[75, 74]),
   midi.NoteOnEvent(tick=37, channel=0, data=[75, 0]),
   midi.NoteOnEvent(tick=13, channel=0, data=[72, 78]),
   midi.NoteOnEvent(tick=3, channel=0, data=[51, 48]),
   midi.NoteOnEvent(tick=1, channel=0, data=[56, 38]),
   midi.NoteOnEvent(tick=4, channel=0, data=[60, 38]),
   midi.NoteOnEvent(tick=10, channel=0, data=[60, 0]),
   midi.NoteOnEvent(tick=5, channel=0, data=[56, 0]),
   midi.NoteOnEvent(tick=1, channel=0, data=[51, 0]),
   midi.NoteOnEvent(tick=11, channel=0, data=[72, 0]),
   midi.NoteOnEvent(tick=12, channel=0, data=[70, 72]),
   midi.NoteOnEvent(tick=46, channel=0, data=[70, 0]),
   midi.ControlChangeEvent(tick=0, channel=0, data=[64, 88]),
   midi.NoteOnEvent(tick=2, channel=0, data=[68, 74]),
   midi.ControlChangeEvent(tick=2, channel=0, data=[64, 0]),
   midi.NoteOnEvent(tick=6, channel=0, data=[56, 32]),
   midi.NoteOnEvent(tick=1, channel=0, data=[60, 37]),
   midi.NoteOnEvent(tick=1, channel=0, data=[54, 37]),
   midi.NoteOnEvent(tick=14, channel=0, data=[60, 0]),
   midi.NoteOnEvent(tick=7, channel=0, data=[54, 0]),
   midi.NoteOnEvent(tick=0, channel=0, data=[56, 0]),
   midi.ControlChangeEvent(tick=2, channel=0, data=[64, 72]),
   midi.ControlChangeEvent(tick=5, channel=0, data=[64, 127]),
   midi.NoteOnEvent(tick=17, channel=0, data=[75, 86]),
   midi.NoteOnEvent(tick=9, channel=0, data=[68, 0]),
   midi.NoteOnEvent(tick=37, channel=0, data=[60, 50]),
   midi.NoteOnEvent(tick=4, channel=0, data=[54, 30]),
   midi.NoteOnEvent(tick=0, channel=0, data=[56, 31]),
   midi.NoteOnEvent(tick=8, channel=0, data=[54, 0]),
   midi.NoteOnEvent(tick=3, channel=0, data=[56, 0]),
   midi.NoteOnEvent(tick=8, channel=0, data=[60, 0]),
   midi.NoteOnEvent(tick=26, channel=0, data=[75, 0]),
   midi.NoteOnEvent(tick=5, channel=0, data=[73, 76]),
   midi.ControlChangeEvent(tick=40, channel=0, data=[64, 24]),
   midi.ControlChangeEvent(tick=4, channel=0, data=[64, 0]),
   midi.NoteOnEvent(tick=6, channel=0, data=[61, 33]),
   midi.NoteOnEvent(tick=2, channel=0, data=[53, 36]),
   midi.ControlChangeEvent(tick=12, channel=0, data=[64, 40]),
   midi.NoteOnEvent(tick=4, channel=0, data=[53, 0]),
   midi.ControlChangeEvent(tick=0, channel=0, data=[64, 127]),
   midi.NoteOnEvent(tick=6, channel=0, data=[61, 0]),
   midi.NoteOnEvent(tick=20, channel=0, data=[73, 0]),
   midi.NoteOnEvent(tick=1, channel=0, data=[70, 85]),
   midi.ControlChangeEvent(tick=38, channel=0, data=[64, 104]),
   midi.ControlChangeEvent(tick=4, channel=0, data=[64, 0]),
   midi.NoteOnEvent(tick=3, channel=0, data=[82, 79]),
   midi.NoteOnEvent(tick=2, channel=0, data=[61, 35]),
   midi.NoteOnEvent(tick=3, channel=0, data=[52, 44]),
   midi.NoteOnEvent(tick=0, channel=0, data=[56, 33]),
   midi.ControlChangeEvent(tick=4, channel=0, data=[64, 40]),
   midi.ControlChangeEvent(tick=4, channel=0, data=[64, 88]),
   midi.NoteOnEvent(tick=2, channel=0, data=[52, 0]),
   midi.NoteOnEvent(tick=2, channel=0, data=[56, 0]),
   midi.ControlChangeEvent(tick=1, channel=0, data=[64, 127]),
   midi.NoteOnEvent(tick=2, channel=0, data=[61, 0]),
   midi.NoteOnEvent(tick=1, channel=0, data=[70, 0]),
   midi.NoteOnEvent(tick=9, channel=0, data=[82, 0]),
   midi.NoteOnEvent(tick=20, channel=0, data=[80, 84]),
   midi.NoteOnEvent(tick=18, channel=0, data=[80, 0]),
   midi.ControlChangeEvent(tick=30, channel=0, data=[64, 24]),
   midi.NoteOnEvent(tick=2, channel=0, data=[72, 87]),
   midi.NoteOnEvent(tick=0, channel=0, data=[56, 35]),
   midi.ControlChangeEvent(tick=2, channel=0, data=[64, 0]),
   midi.NoteOnEvent(tick=0, channel=0, data=[51, 45]),
   midi.NoteOnEvent(tick=2, channel=0, data=[60, 35]),
   midi.NoteOnEvent(tick=16, channel=0, data=[60, 0]),
   midi.ControlChangeEvent(tick=5, channel=0, data=[64, 88]),
   midi.ControlChangeEvent(tick=5, channel=0, data=[64, 127]),
   midi.NoteOnEvent(tick=1, channel=0, data=[51, 0]),
   midi.NoteOnEvent(tick=0, channel=0, data=[56, 0]),
   midi.NoteOnEvent(tick=12, channel=0, data=[72, 0]),
   midi.NoteOnEvent(tick=9, channel=0, data=[77, 80]),
   midi.NoteOnEvent(tick=8, channel=0, data=[68, 44]),
   midi.ControlChangeEvent(tick=14, channel=0, data=[64, 56]),
   midi.ControlChangeEvent(tick=5, channel=0, data=[64, 0]),
   midi.ControlChangeEvent(tick=20, channel=0, data=[64, 56]),
   midi.ControlChangeEvent(tick=4, channel=0, data=[64, 127]),
   midi.NoteOnEvent(tick=3, channel=0, data=[56, 36]),
   midi.NoteOnEvent(tick=2, channel=0, data=[51, 39]),
   midi.NoteOnEvent(tick=4, channel=0, data=[60, 25]),
   midi.NoteOnEvent(tick=4, channel=0, data=[77, 0]),
   midi.NoteOnEvent(tick=4, channel=0, data=[60, 0]),
   midi.NoteOnEvent(tick=0, channel=0, data=[56, 0]),
   midi.NoteOnEvent(tick=7, channel=0, data=[51, 0]),
   midi.NoteOnEvent(tick=12, channel=0, data=[68, 0]),
   midi.NoteOnEvent(tick=8, channel=0, data=[75, 80]),
   midi.NoteOnEvent(tick=19, channel=0, data=[75, 0]),
   midi.ControlChangeEvent(tick=22, channel=0, data=[64, 72]),
   midi.ControlChangeEvent(tick=4, channel=0, data=[64, 0]),
   midi.NoteOnEvent(tick=6, channel=0, data=[68, 76]),
   midi.NoteOnEvent(tick=1, channel=0, data=[62, 65]),
   midi.NoteOnEvent(tick=4, channel=0, data=[53, 58]),
   midi.NoteOnEvent(tick=3, channel=0, data=[41, 48]),
   midi.ControlChangeEvent(tick=1, channel=0, data=[64, 24]),
   midi.ControlChangeEvent(tick=4, channel=0, data=[64, 88]),
   midi.NoteOnEvent(tick=2, channel=0, data=[53, 0]),
   midi.NoteOnEvent(tick=3, channel=0, data=[41, 0]),
   midi.ControlChangeEvent(tick=0, channel=0, data=[64, 127]),
   midi.NoteOnEvent(tick=2, channel=0, data=[62, 0]),
   midi.NoteOnEvent(tick=8, channel=0, data=[68, 0]),
   midi.NoteOnEvent(tick=20, channel=0, data=[70, 79]),
   midi.NoteOnEvent(tick=26, channel=0, data=[70, 0]),
   midi.ControlChangeEvent(tick=4, channel=0, data=[64, 104]),
   midi.ControlChangeEvent(tick=4, channel=0, data=[64, 0]),
   midi.NoteOnEvent(tick=19, channel=0, data=[70, 71]),
   midi.NoteOnEvent(tick=3, channel=0, data=[67, 61]),
   midi.NoteOnEvent(tick=0, channel=0, data=[39, 46]),
   midi.NoteOnEvent(tick=0, channel=0, data=[61, 48]),
   midi.NoteOnEvent(tick=0, channel=0, data=[51, 49]),
   midi.NoteOnEvent(tick=0, channel=0, data=[63, 48]),
   midi.ControlChangeEvent(tick=2, channel=0, data=[64, 72]),
   midi.ControlChangeEvent(tick=4, channel=0, data=[64, 127]),
   midi.NoteOnEvent(tick=6, channel=0, data=[51, 0]),
   midi.NoteOnEvent(tick=0, channel=0, data=[39, 0]),
   midi.NoteOnEvent(tick=3, channel=0, data=[63, 0]),
   midi.NoteOnEvent(tick=4, channel=0, data=[61, 0]),
   midi.NoteOnEvent(tick=2, channel=0, data=[67, 0]),
   midi.NoteOnEvent(tick=11, channel=0, data=[70, 0]),
   midi.ControlChangeEvent(tick=39, channel=0, data=[64, 40]),
   midi.ControlChangeEvent(tick=4, channel=0, data=[64, 0]),
   midi.NoteOnEvent(tick=21, channel=0, data=[68, 70]),
   midi.NoteOnEvent(tick=5, channel=0, data=[60, 66]),
   midi.NoteOnEvent(tick=0, channel=0, data=[56, 45]),
   midi.NoteOnEvent(tick=1, channel=0, data=[44, 48]),
   midi.ControlChangeEvent(tick=10, channel=0, data=[64, 88]),
   midi.ControlChangeEvent(tick=4, channel=0, data=[64, 127]),
   midi.NoteOnEvent(tick=2, channel=0, data=[60, 0]),
   midi.NoteOnEvent(tick=2, channel=0, data=[56, 0]),
   midi.NoteOnEvent(tick=4, channel=0, data=[44, 0]),
   midi.NoteOnEvent(tick=8, channel=0, data=[68, 0]),
   midi.ControlChangeEvent(tick=52, channel=0, data=[64, 104]),
   midi.ControlChangeEvent(tick=4, channel=0, data=[64, 24]),
   midi.ControlChangeEvent(tick=4, channel=0, data=[64, 0]),
   midi.NoteOnEvent(tick=15, channel=0, data=[80, 89]),
   midi.NoteOnEvent(tick=2, channel=0, data=[68, 72]),
   midi.ControlChangeEvent(tick=15, channel=0, data=[64, 104]),
   midi.ControlChangeEvent(tick=4, channel=0, data=[64, 127]),
   midi.NoteOnEvent(tick=16, channel=0, data=[80, 0]),
   midi.NoteOnEvent(tick=10, channel=0, data=[68, 0]),
   midi.ControlChangeEvent(tick=7, channel=0, data=[64, 72]),
   midi.ControlChangeEvent(tick=4, channel=0, data=[64, 0]),
   midi.NoteOnEvent(tick=48, channel=0, data=[80, 90]),
   midi.NoteOnEvent(tick=1, channel=0, data=[68, 72]),
   midi.NoteOnEvent(tick=2, channel=0, data=[77, 71]),
   midi.NoteOnEvent(tick=0, channel=0, data=[49, 56]),
   midi.NoteOnEvent(tick=1, channel=0, data=[37, 53]),
   midi.NoteOnEvent(tick=1, channel=0, data=[73, 63]),
   midi.NoteOnEvent(tick=11, channel=0, data=[73, 0]),
   midi.ControlChangeEvent(tick=0, channel=0, data=[64, 127]),
   midi.NoteOnEvent(tick=3, channel=0, data=[37, 0]),
   midi.NoteOnEvent(tick=1, channel=0, data=[49, 0]),
   midi.NoteOnEvent(tick=15, channel=0, data=[77, 0]),
   midi.NoteOnEvent(tick=6, channel=0, data=[68, 0]),
   midi.NoteOnEvent(tick=4, channel=0, data=[80, 0]),
   midi.NoteOnEvent(tick=8, channel=0, data=[73, 74]),
   midi.NoteOnEvent(tick=42, channel=0, data=[73, 0]),
   midi.NoteOnEvent(tick=7, channel=0, data=[61, 50]),
   midi.NoteOnEvent(tick=1, channel=0, data=[77, 84]),
   midi.NoteOnEvent(tick=2, channel=0, data=[56, 53]),
   midi.NoteOnEvent(tick=4, channel=0, data=[61, 0]),
   midi.NoteOnEvent(tick=0, channel=0, data=[53, 36]),
   midi.NoteOnEvent(tick=2, channel=0, data=[56, 0]),
   midi.NoteOnEvent(tick=6, channel=0, data=[53, 0]),
   midi.NoteOnEvent(tick=4, channel=0, data=[77, 0]),
   midi.NoteOnEvent(tick=31, channel=0, data=[82, 92]),
   midi.NoteOnEvent(tick=1, channel=0, data=[73, 76]),
   midi.NoteOnEvent(tick=0, channel=0, data=[70, 76]),
   midi.NoteOnEvent(tick=2, channel=0, data=[78, 56]),
   midi.ControlChangeEvent(tick=2, channel=0, data=[64, 104]),
   midi.ControlChangeEvent(tick=4, channel=0, data=[64, 0]),
   midi.NoteOnEvent(tick=3, channel=0, data=[78, 0]),
   midi.NoteOnEvent(tick=25, channel=0, data=[73, 0]),
   midi.NoteOnEvent(tick=14, channel=0, data=[70, 0]),
   midi.ControlChangeEvent(tick=3, channel=0, data=[64, 127]),
   midi.NoteOnEvent(tick=1, channel=0, data=[54, 53]),
   midi.NoteOnEvent(tick=1, channel=0, data=[42, 50]),
   midi.NoteOnEvent(tick=2, channel=0, data=[82, 0]),
   midi.NoteOnEvent(tick=7, channel=0, data=[42, 0]),
   midi.NoteOnEvent(tick=7, channel=0, data=[54, 0]),
   midi.NoteOnEvent(tick=29, channel=0, data=[84, 98]),
   midi.NoteOnEvent(tick=2, channel=0, data=[72, 86]),
   midi.NoteOnEvent(tick=14, channel=0, data=[72, 0]),
   midi.NoteOnEvent(tick=6, channel=0, data=[84, 0]),
   midi.NoteOnEvent(tick=24, channel=0, data=[85, 90]),
   midi.NoteOnEvent(tick=1, channel=0, data=[73, 87]),
   midi.NoteOnEvent(tick=1, channel=0, data=[61, 45]),
   midi.NoteOnEvent(tick=0, channel=0, data=[58, 41]),
   midi.NoteOnEvent(tick=3, channel=0, data=[54, 40]),
   midi.NoteOnEvent(tick=4, channel=0, data=[58, 0]),
   midi.NoteOnEvent(tick=0, channel=0, data=[61, 0]),
   midi.NoteOnEvent(tick=4, channel=0, data=[54, 0]),
   midi.NoteOnEvent(tick=2, channel=0, data=[73, 0]),
   midi.NoteOnEvent(tick=4, channel=0, data=[85, 0]),
   midi.NoteOnEvent(tick=26, channel=0, data=[87, 89]),
   midi.NoteOnEvent(tick=1, channel=0, data=[75, 89]),
   midi.NoteOnEvent(tick=14, channel=0, data=[75, 0]),
   midi.NoteOnEvent(tick=7, channel=0, data=[87, 0]),
   midi.ControlChangeEvent(tick=4, channel=0, data=[64, 0]),
   midi.NoteOnEvent(tick=23, channel=0, data=[89, 96]),
   midi.NoteOnEvent(tick=0, channel=0, data=[49, 61]),
   midi.NoteOnEvent(tick=0, channel=0, data=[77, 89]),
   midi.NoteOnEvent(tick=1, channel=0, data=[49, 54]),
   midi.NoteOnEvent(tick=0, channel=0, data=[37, 54]),
   midi.ControlChangeEvent(tick=5, channel=0, data=[64, 127]),
   midi.NoteOnEvent(tick=1, channel=0, data=[37, 0]),
   midi.NoteOnEvent(tick=0, channel=0, data=[49, 0]),
   midi.NoteOnEvent(tick=3, channel=0, data=[49, 0]),
   midi.NoteOnEvent(tick=4, channel=0, data=[77, 0]),
   midi.NoteOnEvent(tick=4, channel=0, data=[89, 0]),
   midi.NoteOnEvent(tick=29, channel=0, data=[92, 95]),
   midi.NoteOnEvent(tick=1, channel=0, data=[80, 85]),
   midi.NoteOnEvent(tick=13, channel=0, data=[80, 0]),
   midi.NoteOnEvent(tick=2, channel=0, data=[92, 0]),
   midi.NoteOnEvent(tick=32, channel=0, data=[61, 61]),
   midi.NoteOnEvent(tick=4, channel=0, data=[89, 93]),
   midi.NoteOnEvent(tick=2, channel=0, data=[77, 87]),
   midi.NoteOnEvent(tick=0, channel=0, data=[53, 53]),
   midi.NoteOnEvent(tick=2, channel=0, data=[56, 39]),
   midi.NoteOnEvent(tick=6, channel=0, data=[61, 0]),
   midi.NoteOnEvent(tick=1, channel=0, data=[53, 0]),
   midi.NoteOnEvent(tick=0, channel=0, data=[56, 0]),
   midi.NoteOnEvent(tick=0, channel=0, data=[77, 0]),
   midi.NoteOnEvent(tick=6, channel=0, data=[89, 0]),
   midi.NoteOnEvent(tick=30, channel=0, data=[87, 88]),
   midi.NoteOnEvent(tick=1, channel=0, data=[75, 84]),
   midi.NoteOnEvent(tick=17, channel=0, data=[75, 0]),
   midi.NoteOnEvent(tick=4, channel=0, data=[87, 0]),
   midi.ControlChangeEvent(tick=4, channel=0, data=[64, 0]),
   midi.NoteOnEvent(tick=18, channel=0, data=[41, 56]),
   midi.NoteOnEvent(tick=4, channel=0, data=[53, 47]),
   midi.NoteOnEvent(tick=2, channel=0, data=[85, 80]),
   midi.ControlChangeEvent(tick=0, channel=0, data=[64, 127]),
   midi.NoteOnEvent(tick=1, channel=0, data=[73, 76]),
   midi.NoteOnEvent(tick=3, channel=0, data=[41, 0]),
   midi.NoteOnEvent(tick=11, channel=0, data=[53, 0]),
   midi.NoteOnEvent(tick=2, channel=0, data=[73, 0]),
   midi.NoteOnEvent(tick=3, channel=0, data=[85, 0]),
   midi.NoteOnEvent(tick=26, channel=0, data=[82, 78]),
   midi.NoteOnEvent(tick=2, channel=0, data=[70, 68]),
   midi.NoteOnEvent(tick=14, channel=0, data=[70, 0]),
   midi.NoteOnEvent(tick=4, channel=0, data=[82, 0]),
   midi.NoteOnEvent(tick=26, channel=0, data=[61, 39]),
   midi.NoteOnEvent(tick=1, channel=0, data=[53, 47]),
   midi.NoteOnEvent(tick=1, channel=0, data=[56, 35]),
   midi.NoteOnEvent(tick=2, channel=0, data=[80, 80]),
   midi.NoteOnEvent(tick=2, channel=0, data=[61, 0]),
   midi.NoteOnEvent(tick=0, channel=0, data=[68, 72]),
   midi.NoteOnEvent(tick=3, channel=0, data=[56, 0]),
   midi.NoteOnEvent(tick=1, channel=0, data=[53, 0]),
   midi.NoteOnEvent(tick=6, channel=0, data=[68, 0]),
   midi.NoteOnEvent(tick=4, channel=0, data=[80, 0]),
   midi.NoteOnEvent(tick=28, channel=0, data=[77, 92]),
   midi.NoteOnEvent(tick=2, channel=0, data=[65, 71]),
   midi.NoteOnEvent(tick=7, channel=0, data=[65, 0]),
   midi.NoteOnEvent(tick=7, channel=0, data=[77, 0]),
   midi.ControlChangeEvent(tick=34, channel=0, data=[64, 40]),
   midi.ControlChangeEvent(tick=4, channel=0, data=[64, 0]),
   midi.NoteOnEvent(tick=1, channel=0, data=[77, 86]),
   midi.NoteOnEvent(tick=0, channel=0, data=[66, 57]),
   midi.NoteOnEvent(tick=0, channel=0, data=[78, 49]),
   midi.NoteOnEvent(tick=3, channel=0, data=[72, 66]),
   midi.NoteOnEvent(tick=2, channel=0, data=[32, 36]),
   midi.ControlChangeEvent(tick=18, channel=0, data=[64, 127]),
   midi.NoteOnEvent(tick=1, channel=0, data=[32, 0]),
   midi.NoteOnEvent(tick=2, channel=0, data=[78, 0]),
   midi.NoteOnEvent(tick=7, channel=0, data=[77, 0]),
   midi.NoteOnEvent(tick=8, channel=0, data=[66, 0]),
   midi.NoteOnEvent(tick=2, channel=0, data=[72, 0]),
   midi.NoteOnEvent(tick=8, channel=0, data=[75, 84]),
   midi.NoteOnEvent(tick=3, channel=0, data=[72, 19]),
   midi.NoteOnEvent(tick=45, channel=0, data=[60, 65]),
   midi.NoteOnEvent(tick=0, channel=0, data=[54, 55]),
   midi.NoteOnEvent(tick=4, channel=0, data=[56, 36]),
   midi.NoteOnEvent(tick=4, channel=0, data=[60, 0]),
   midi.NoteOnEvent(tick=4, channel=0, data=[56, 0]),
   midi.NoteOnEvent(tick=2, channel=0, data=[72, 0]),
   midi.NoteOnEvent(tick=3, channel=0, data=[54, 0]),
   midi.NoteOnEvent(tick=7, channel=0, data=[75, 0]),
   midi.NoteOnEvent(tick=26, channel=0, data=[66, 74]),
   midi.ControlChangeEvent(tick=23, channel=0, data=[64, 24]),
   midi.ControlChangeEvent(tick=4, channel=0, data=[64, 0]),
   midi.NoteOnEvent(tick=22, channel=0, data=[48, 63]),
   midi.NoteOnEvent(tick=0, channel=0, data=[36, 56]),
   midi.NoteOnEvent(tick=7, channel=0, data=[36, 0]),
   midi.ControlChangeEvent(tick=0, channel=0, data=[64, 88]),
   midi.ControlChangeEvent(tick=4, channel=0, data=[64, 127]),
   midi.NoteOnEvent(tick=8, channel=0, data=[48, 0]),
   midi.NoteOnEvent(tick=29, channel=0, data=[77, 79]),
   midi.NoteOnEvent(tick=13, channel=0, data=[66, 0]),
   midi.NoteOnEvent(tick=14, channel=0, data=[77, 0]),
   midi.NoteOnEvent(tick=23, channel=0, data=[75, 82]),
   midi.NoteOnEvent(tick=2, channel=0, data=[60, 58]),
   midi.NoteOnEvent(tick=0, channel=0, data=[54, 48]),
   midi.NoteOnEvent(tick=2, channel=0, data=[66, 55]),
   midi.NoteOnEvent(tick=1, channel=0, data=[56, 36]),
   midi.NoteOnEvent(tick=1, channel=0, data=[72, 61]),
   midi.NoteOnEvent(tick=5, channel=0, data=[60, 0]),
   midi.NoteOnEvent(tick=1, channel=0, data=[72, 0]),
   midi.NoteOnEvent(tick=1, channel=0, data=[56, 0]),
   midi.NoteOnEvent(tick=4, channel=0, data=[66, 0]),
   midi.NoteOnEvent(tick=4, channel=0, data=[54, 0]),
   midi.NoteOnEvent(tick=4, channel=0, data=[75, 0]),
   midi.ControlChangeEvent(tick=41, channel=0, data=[64, 40]),
   midi.ControlChangeEvent(tick=4, channel=0, data=[64, 0]),
   midi.NoteOnEvent(tick=31, channel=0, data=[75, 80]),
   midi.NoteOnEvent(tick=4, channel=0, data=[37, 48]),
   midi.NoteOnEvent(tick=0, channel=0, data=[49, 50]),
   midi.NoteOnEvent(tick=2, channel=0, data=[68, 58]),
   midi.NoteOnEvent(tick=0, channel=0, data=[65, 57]),
   midi.ControlChangeEvent(tick=7, channel=0, data=[64, 72]),
   midi.ControlChangeEvent(tick=4, channel=0, data=[64, 127]),
   midi.NoteOnEvent(tick=2, channel=0, data=[37, 0]),
   midi.NoteOnEvent(tick=2, channel=0, data=[49, 0]),
   midi.NoteOnEvent(tick=11, channel=0, data=[65, 0]),
   midi.NoteOnEvent(tick=3, channel=0, data=[75, 0]),
   midi.NoteOnEvent(tick=9, channel=0, data=[68, 0]),
   midi.NoteOnEvent(tick=9, channel=0, data=[73, 75]),
   midi.NoteOnEvent(tick=49, channel=0, data=[61, 50]),
   midi.NoteOnEvent(tick=4, channel=0, data=[56, 35]),
   midi.NoteOnEvent(tick=3, channel=0, data=[61, 0]),
   midi.NoteOnEvent(tick=0, channel=0, data=[53, 29]),
   midi.NoteOnEvent(tick=5, channel=0, data=[56, 0]),
   midi.NoteOnEvent(tick=4, channel=0, data=[53, 0]),
   midi.NoteOnEvent(tick=19, channel=0, data=[73, 0]),
   midi.NoteOnEvent(tick=15, channel=0, data=[65, 75]),
   midi.ControlChangeEvent(tick=26, channel=0, data=[64, 88]),
   midi.ControlChangeEvent(tick=4, channel=0, data=[64, 0]),
   midi.NoteOnEvent(tick=19, channel=0, data=[49, 63]),
   midi.NoteOnEvent(tick=1, channel=0, data=[37, 45]),
   midi.ControlChangeEvent(tick=5, channel=0, data=[64, 127]),
   midi.NoteOnEvent(tick=1, channel=0, data=[49, 0]),
   midi.NoteOnEvent(tick=3, channel=0, data=[37, 0]),
   midi.NoteOnEvent(tick=31, channel=0, data=[75, 81]),
   midi.NoteOnEvent(tick=14, channel=0, data=[65, 0]),
   midi.NoteOnEvent(tick=15, channel=0, data=[75, 0]),
   midi.ControlChangeEvent(tick=12, channel=0, data=[64, 40]),
   midi.ControlChangeEvent(tick=4, channel=0, data=[64, 0]),
   midi.NoteOnEvent(tick=4, channel=0, data=[73, 82]),
   midi.NoteOnEvent(tick=2, channel=0, data=[70, 59]),
   midi.NoteOnEvent(tick=1, channel=0, data=[46, 52]),
   midi.NoteOnEvent(tick=0, channel=0, data=[34, 51]),
   midi.NoteOnEvent(tick=1, channel=0, data=[65, 61]),
   midi.ControlChangeEvent(tick=5, channel=0, data=[64, 56]),
   midi.ControlChangeEvent(tick=4, channel=0, data=[64, 127]),
   midi.NoteOnEvent(tick=2, channel=0, data=[34, 0]),
   midi.NoteOnEvent(tick=2, channel=0, data=[46, 0]),
   midi.NoteOnEvent(tick=3, channel=0, data=[65, 0]),
   midi.NoteOnEvent(tick=4, channel=0, data=[70, 0]),
   midi.NoteOnEvent(tick=3, channel=0, data=[73, 0]),
   midi.ControlChangeEvent(tick=34, channel=0, data=[64, 72]),
   midi.ControlChangeEvent(tick=4, channel=0, data=[64, 0]),
   midi.NoteOnEvent(tick=36, channel=0, data=[72, 80]),
   midi.NoteOnEvent(tick=1, channel=0, data=[36, 52]),
   midi.NoteOnEvent(tick=2, channel=0, data=[65, 61]),
   midi.NoteOnEvent(tick=0, channel=0, data=[48, 54]),
   midi.NoteOnEvent(tick=1, channel=0, data=[68, 54]),
   midi.ControlChangeEvent(tick=0, channel=0, data=[64, 127]),
   midi.NoteOnEvent(tick=5, channel=0, data=[36, 0]),
   midi.NoteOnEvent(tick=12, channel=0, data=[48, 0]),
   midi.NoteOnEvent(tick=2, channel=0, data=[68, 0]),
   midi.NoteOnEvent(tick=5, channel=0, data=[65, 0]),
   midi.NoteOnEvent(tick=8, channel=0, data=[72, 0]),
   midi.NoteOnEvent(tick=11, channel=0, data=[68, 74]),
   midi.NoteOnEvent(tick=10, channel=0, data=[65, 33]),
   midi.NoteOnEvent(tick=10, channel=0, data=[65, 0]),
   midi.NoteOnEvent(tick=27, channel=0, data=[68, 0]),
   midi.NoteOnEvent(tick=1, channel=0, data=[60, 53]),
   midi.NoteOnEvent(tick=1, channel=0, data=[72, 86]),
   midi.NoteOnEvent(tick=1, channel=0, data=[53, 52]),
   midi.NoteOnEvent(tick=2, channel=0, data=[56, 33]),
   midi.NoteOnEvent(tick=3, channel=0, data=[60, 0]),
   midi.NoteOnEvent(tick=3, channel=0, data=[53, 0]),
   midi.NoteOnEvent(tick=2, channel=0, data=[56, 0]),
   midi.NoteOnEvent(tick=15, channel=0, data=[72, 0]),
   midi.NoteOnEvent(tick=25, channel=0, data=[73, 80]),
   midi.NoteOnEvent(tick=3, channel=0, data=[70, 54]),
   midi.NoteOnEvent(tick=2, channel=0, data=[64, 61]),
   midi.ControlChangeEvent(tick=10, channel=0, data=[64, 72]),
   midi.ControlChangeEvent(tick=4, channel=0, data=[64, 0]),
   midi.NoteOnEvent(tick=21, channel=0, data=[64, 0]),
   midi.ControlChangeEvent(tick=11, channel=0, data=[64, 127]),
   midi.NoteOnEvent(tick=2, channel=0, data=[55, 54]),
   midi.NoteOnEvent(tick=2, channel=0, data=[43, 51]),
   midi.NoteOnEvent(tick=6, channel=0, data=[55, 0]),
   midi.NoteOnEvent(tick=4, channel=0, data=[43, 0]),
   midi.NoteOnEvent(tick=17, channel=0, data=[70, 0]),
   midi.NoteOnEvent(tick=4, channel=0, data=[73, 0]),
   midi.NoteOnEvent(tick=13, channel=0, data=[64, 66]),
   midi.NoteOnEvent(tick=18, channel=0, data=[64, 0]),
   midi.ControlChangeEvent(tick=23, channel=0, data=[64, 88]),
   midi.ControlChangeEvent(tick=4, channel=0, data=[64, 0]),
   midi.NoteOnEvent(tick=4, channel=0, data=[64, 65]),
   midi.NoteOnEvent(tick=0, channel=0, data=[72, 78]),
   midi.NoteOnEvent(tick=2, channel=0, data=[48, 58]),
   midi.NoteOnEvent(tick=0, channel=0, data=[70, 49]),
   midi.NoteOnEvent(tick=2, channel=0, data=[36, 26]),
   midi.ControlChangeEvent(tick=4, channel=0, data=[64, 40]),
   midi.NoteOnEvent(tick=2, channel=0, data=[48, 0]),
   midi.NoteOnEvent(tick=1, channel=0, data=[36, 0]),
   midi.ControlChangeEvent(tick=1, channel=0, data=[64, 127]),
   midi.NoteOnEvent(tick=5, channel=0, data=[64, 0]),
   midi.NoteOnEvent(tick=3, channel=0, data=[70, 0]),
   midi.NoteOnEvent(tick=6, channel=0, data=[72, 0]),
   midi.ControlChangeEvent(tick=30, channel=0, data=[64, 104]),
   midi.ControlChangeEvent(tick=4, channel=0, data=[64, 0]),
   midi.NoteOnEvent(tick=39, channel=0, data=[72, 85]),
   midi.NoteOnEvent(tick=2, channel=0, data=[65, 65]),
   midi.NoteOnEvent(tick=1, channel=0, data=[68, 55]),
   midi.NoteOnEvent(tick=1, channel=0, data=[53, 63]),
   midi.NoteOnEvent(tick=1, channel=0, data=[41, 53]),
   midi.ControlChangeEvent(tick=1, channel=0, data=[64, 127]),
   midi.NoteOnEvent(tick=7, channel=0, data=[41, 0]),
   midi.NoteOnEvent(tick=7, channel=0, data=[68, 0]),
   midi.NoteOnEvent(tick=1, channel=0, data=[53, 0]),
   midi.NoteOnEvent(tick=3, channel=0, data=[65, 0]),
   midi.NoteOnEvent(tick=11, channel=0, data=[72, 0]),
   midi.NoteOnEvent(tick=13, channel=0, data=[68, 78]),
   midi.NoteOnEvent(tick=8, channel=0, data=[65, 35]),
   midi.NoteOnEvent(tick=11, channel=0, data=[65, 0]),
   midi.NoteOnEvent(tick=22, channel=0, data=[68, 0]),
   midi.NoteOnEvent(tick=8, channel=0, data=[63, 70]),
   midi.NoteOnEvent(tick=1, channel=0, data=[72, 86]),
   midi.NoteOnEvent(tick=2, channel=0, data=[51, 63]),
   midi.NoteOnEvent(tick=12, channel=0, data=[63, 0]),
   midi.NoteOnEvent(tick=2, channel=0, data=[51, 0]),
   midi.NoteOnEvent(tick=6, channel=0, data=[72, 0]),
   midi.NoteOnEvent(tick=26, channel=0, data=[71, 79]),
   midi.NoteOnEvent(tick=4, channel=0, data=[68, 45]),
   midi.NoteOnEvent(tick=1, channel=0, data=[65, 49]),
   midi.ControlChangeEvent(tick=20, channel=0, data=[64, 88]),
   midi.ControlChangeEvent(tick=4, channel=0, data=[64, 0]),
   midi.NoteOnEvent(tick=26, channel=0, data=[62, 56]),
   midi.NoteOnEvent(tick=2, channel=0, data=[50, 58]),
   midi.NoteOnEvent(tick=1, channel=0, data=[65, 0]),
   midi.ControlChangeEvent(tick=3, channel=0, data=[64, 127]),
   midi.NoteOnEvent(tick=5, channel=0, data=[50, 0]),
   midi.NoteOnEvent(tick=4, channel=0, data=[62, 0]),
   midi.NoteOnEvent(tick=10, channel=0, data=[68, 0]),
   midi.NoteOnEvent(tick=11, channel=0, data=[71, 0]),
   midi.NoteOnEvent(tick=7, channel=0, data=[65, 75]),
   midi.NoteOnEvent(tick=21, channel=0, data=[65, 0]),
   midi.NoteOnEvent(tick=31, channel=0, data=[70, 72]),
   midi.ControlChangeEvent(tick=0, channel=0, data=[64, 88]),
   midi.NoteOnEvent(tick=2, channel=0, data=[68, 53]),
   midi.NoteOnEvent(tick=0, channel=0, data=[64, 60]),
   midi.ControlChangeEvent(tick=2, channel=0, data=[64, 0]),
   midi.NoteOnEvent(tick=2, channel=0, data=[61, 51]),
   midi.NoteOnEvent(tick=2, channel=0, data=[49, 57]),
   midi.ControlChangeEvent(tick=16, channel=0, data=[64, 40]),
   midi.NoteOnEvent(tick=1, channel=0, data=[49, 0]),
   midi.NoteOnEvent(tick=0, channel=0, data=[61, 0]),
   midi.ControlChangeEvent(tick=3, channel=0, data=[64, 127]),
   midi.NoteOnEvent(tick=10, channel=0, data=[64, 0]),
   midi.NoteOnEvent(tick=9, channel=0, data=[68, 0]),
   midi.NoteOnEvent(tick=15, channel=0, data=[70, 0]),
   midi.ControlChangeEvent(tick=39, channel=0, data=[64, 56]),
   midi.NoteOnEvent(tick=2, channel=0, data=[68, 70]),
   midi.NoteOnEvent(tick=0, channel=0, data=[63, 67]),
   midi.NoteOnEvent(tick=1, channel=0, data=[60, 63]),
   midi.ControlChangeEvent(tick=1, channel=0, data=[64, 0]),
   midi.NoteOnEvent(tick=2, channel=0, data=[48, 60]),
   midi.NoteOnEvent(tick=9, channel=0, data=[48, 0]),
   midi.ControlChangeEvent(tick=5, channel=0, data=[64, 88]),
   midi.NoteOnEvent(tick=1, channel=0, data=[60, 0]),
   midi.ControlChangeEvent(tick=3, channel=0, data=[64, 127]),
   midi.NoteOnEvent(tick=5, channel=0, data=[63, 0]),
   midi.NoteOnEvent(tick=11, channel=0, data=[68, 0]),
   midi.NoteOnEvent(tick=9, channel=0, data=[75, 88]),
   midi.NoteOnEvent(tick=26, channel=0, data=[75, 0]),
   midi.ControlChangeEvent(tick=18, channel=0, data=[64, 72]),
   midi.ControlChangeEvent(tick=4, channel=0, data=[64, 0]),
   midi.NoteOnEvent(tick=1, channel=0, data=[76, 82]),
   midi.NoteOnEvent(tick=1, channel=0, data=[59, 64]),
   midi.NoteOnEvent(tick=1, channel=0, data=[68, 60]),
   midi.NoteOnEvent(tick=1, channel=0, data=[59, 60]),
   midi.NoteOnEvent(tick=0, channel=0, data=[47, 53]),
   midi.NoteOnEvent(tick=1, channel=0, data=[71, 63]),
   midi.ControlChangeEvent(tick=11, channel=0, data=[64, 104]),
   midi.ControlChangeEvent(tick=4, channel=0, data=[64, 127]),
   midi.NoteOnEvent(tick=11, channel=0, data=[71, 0]),
   midi.NoteOnEvent(tick=5, channel=0, data=[59, 0]),
   midi.NoteOnEvent(tick=4, channel=0, data=[59, 0]),
   midi.NoteOnEvent(tick=0, channel=0, data=[76, 0]),
   midi.NoteOnEvent(tick=0, channel=0, data=[47, 0]),
   midi.NoteOnEvent(tick=12, channel=0, data=[68, 0]),
   midi.NoteOnEvent(tick=54, channel=0, data=[76, 94]),
   midi.NoteOnEvent(tick=2, channel=0, data=[73, 60]),
   midi.ControlChangeEvent(tick=1, channel=0, data=[64, 24]),
   midi.NoteOnEvent(tick=0, channel=0, data=[67, 76]),
   midi.NoteOnEvent(tick=3, channel=0, data=[58, 61]),
   midi.NoteOnEvent(tick=0, channel=0, data=[46, 50]),
   midi.ControlChangeEvent(tick=1, channel=0, data=[64, 0]),
   midi.NoteOnEvent(tick=9, channel=0, data=[46, 0]),
   midi.NoteOnEvent(tick=0, channel=0, data=[58, 0]),
   midi.ControlChangeEvent(tick=7, channel=0, data=[64, 88]),
   midi.ControlChangeEvent(tick=4, channel=0, data=[64, 127]),
   midi.NoteOnEvent(tick=4, channel=0, data=[67, 0]),
   midi.NoteOnEvent(tick=21, channel=0, data=[73, 0]),
   midi.NoteOnEvent(tick=0, channel=0, data=[76, 0]),
   midi.NoteOnEvent(tick=52, channel=0, data=[75, 88]),
   midi.NoteOnEvent(tick=2, channel=0, data=[66, 66]),
   midi.ControlChangeEvent(tick=1, channel=0, data=[64, 40]),
   midi.NoteOnEvent(tick=1, channel=0, data=[73, 68]),
   midi.NoteOnEvent(tick=2, channel=0, data=[45, 65]),
   midi.NoteOnEvent(tick=0, channel=0, data=[57, 56]),
   midi.ControlChangeEvent(tick=2, channel=0, data=[64, 0]),
   midi.ControlChangeEvent(tick=12, channel=0, data=[64, 40]),
   midi.ControlChangeEvent(tick=4, channel=0, data=[64, 127]),
   midi.NoteOnEvent(tick=6, channel=0, data=[45, 0]),
   midi.NoteOnEvent(tick=2, channel=0, data=[57, 0]),
   midi.NoteOnEvent(tick=13, channel=0, data=[75, 0]),
   midi.NoteOnEvent(tick=1, channel=0, data=[66, 0]),
   midi.NoteOnEvent(tick=5, channel=0, data=[73, 0]),
   midi.ControlChangeEvent(tick=40, channel=0, data=[64, 88]),
   midi.ControlChangeEvent(tick=4, channel=0, data=[64, 0]),
   midi.NoteOnEvent(tick=8, channel=0, data=[75, 86]),
   midi.NoteOnEvent(tick=4, channel=0, data=[66, 63]),
   midi.NoteOnEvent(tick=3, channel=0, data=[72, 67]),
   midi.NoteOnEvent(tick=1, channel=0, data=[56, 65]),
   midi.NoteOnEvent(tick=2, channel=0, data=[44, 61]),
   midi.ControlChangeEvent(tick=11, channel=0, data=[64, 127]),
   midi.NoteOnEvent(tick=10, channel=0, data=[56, 0]),
   midi.NoteOnEvent(tick=2, channel=0, data=[66, 0]),
   midi.NoteOnEvent(tick=4, channel=0, data=[44, 0]),
   midi.NoteOnEvent(tick=8, channel=0, data=[75, 0]),
   midi.NoteOnEvent(tick=9, channel=0, data=[72, 0]),
   midi.NoteOnEvent(tick=51, channel=0, data=[80, 89]),
   midi.NoteOnEvent(tick=1, channel=0, data=[75, 74]),
   midi.NoteOnEvent(tick=0, channel=0, data=[68, 73]),
   midi.ControlChangeEvent(tick=1, channel=0, data=[64, 0]),
   midi.NoteOnEvent(tick=2, channel=0, data=[54, 68]),
   midi.NoteOnEvent(tick=3, channel=0, data=[42, 59]),
   midi.ControlChangeEvent(tick=10, channel=0, data=[64, 72]),
   midi.ControlChangeEvent(tick=4, channel=0, data=[64, 127]),
   midi.NoteOnEvent(tick=7, channel=0, data=[54, 0]),
   midi.NoteOnEvent(tick=1, channel=0, data=[42, 0]),
   midi.NoteOnEvent(tick=4, channel=0, data=[68, 0]),
   midi.NoteOnEvent(tick=2, channel=0, data=[75, 0]),
   midi.NoteOnEvent(tick=3, channel=0, data=[80, 0]),
   midi.NoteOnEvent(tick=10, channel=0, data=[72, 87]),
   midi.NoteOnEvent(tick=38, channel=0, data=[72, 0]),
   midi.NoteOnEvent(tick=10, channel=0, data=[75, 80]),
   midi.ControlChangeEvent(tick=2, channel=0, data=[64, 0]),
   midi.NoteOnEvent(tick=2, channel=0, data=[41, 64]),
   midi.NoteOnEvent(tick=1, channel=0, data=[53, 66]),
   midi.ControlChangeEvent(tick=5, channel=0, data=[64, 40]),
   midi.ControlChangeEvent(tick=4, channel=0, data=[64, 127]),
   midi.NoteOnEvent(tick=2, channel=0, data=[53, 0]),
   midi.NoteOnEvent(tick=2, channel=0, data=[41, 0]),
   midi.NoteOnEvent(tick=12, channel=0, data=[75, 0]),
   midi.NoteOnEvent(tick=19, channel=0, data=[80, 90]),
   midi.NoteOnEvent(tick=0, channel=0, data=[68, 64]),
   midi.NoteOnEvent(tick=1, channel=0, data=[75, 60]),
   midi.NoteOnEvent(tick=1, channel=0, data=[72, 73]),
   midi.ControlChangeEvent(tick=11, channel=0, data=[64, 24]),
   midi.ControlChangeEvent(tick=4, channel=0, data=[64, 0]),
   midi.ControlChangeEvent(tick=21, channel=0, data=[64, 104]),
   midi.NoteOnEvent(tick=2, channel=0, data=[72, 0]),
   midi.ControlChangeEvent(tick=2, channel=0, data=[64, 127]),
   midi.NoteOnEvent(tick=9, channel=0, data=[75, 0]),
   midi.NoteOnEvent(tick=2, channel=0, data=[51, 74]),
   midi.NoteOnEvent(tick=1, channel=0, data=[39, 65]),
   midi.NoteOnEvent(tick=9, channel=0, data=[68, 0]),
   midi.NoteOnEvent(tick=2, channel=0, data=[51, 0]),
   midi.NoteOnEvent(tick=4, channel=0, data=[80, 0]),
   midi.NoteOnEvent(tick=0, channel=0, data=[39, 0]),
   midi.NoteOnEvent(tick=31, channel=0, data=[80, 91]),
   midi.NoteOnEvent(tick=2, channel=0, data=[77, 85]),
   midi.NoteOnEvent(tick=0, channel=0, data=[68, 74]),
   midi.NoteOnEvent(tick=1, channel=0, data=[73, 72]),
   midi.ControlChangeEvent(tick=3, channel=0, data=[64, 40]),
   midi.ControlChangeEvent(tick=4, channel=0, data=[64, 0]),
   midi.NoteOnEvent(tick=31, channel=0, data=[73, 0]),
   midi.NoteOnEvent(tick=10, channel=0, data=[37, 51]),
   midi.NoteOnEvent(tick=2, channel=0, data=[49, 52]),
   midi.ControlChangeEvent(tick=6, channel=0, data=[64, 127]),
   midi.NoteOnEvent(tick=8, channel=0, data=[37, 0]),
   midi.NoteOnEvent(tick=1, channel=0, data=[49, 0]),
   midi.NoteOnEvent(tick=1, channel=0, data=[77, 0]),
   midi.NoteOnEvent(tick=32, channel=0, data=[73, 74]),
   midi.NoteOnEvent(tick=10, channel=0, data=[68, 0]),
   midi.NoteOnEvent(tick=14, channel=0, data=[80, 0]),
   midi.NoteOnEvent(tick=13, channel=0, data=[73, 0]),
   midi.NoteOnEvent(tick=12, channel=0, data=[77, 91]),
   midi.NoteOnEvent(tick=4, channel=0, data=[61, 59]),
   midi.NoteOnEvent(tick=3, channel=0, data=[53, 53]),
   midi.NoteOnEvent(tick=4, channel=0, data=[61, 0]),
   midi.NoteOnEvent(tick=0, channel=0, data=[56, 27]),
   midi.NoteOnEvent(tick=4, channel=0, data=[53, 0]),
   midi.NoteOnEvent(tick=3, channel=0, data=[56, 0]),
   midi.NoteOnEvent(tick=6, channel=0, data=[77, 0]),
   midi.NoteOnEvent(tick=28, channel=0, data=[82, 89]),
   midi.NoteOnEvent(tick=1, channel=0, data=[70, 80]),
   midi.NoteOnEvent(tick=1, channel=0, data=[78, 68]),
   midi.NoteOnEvent(tick=1, channel=0, data=[73, 67]),
   midi.ControlChangeEvent(tick=15, channel=0, data=[64, 0]),
   midi.NoteOnEvent(tick=24, channel=0, data=[78, 0]),
   midi.NoteOnEvent(tick=4, channel=0, data=[73, 0]),
   midi.NoteOnEvent(tick=10, channel=0, data=[42, 63]),
   midi.NoteOnEvent(tick=0, channel=0, data=[54, 68]),
   midi.ControlChangeEvent(tick=2, channel=0, data=[64, 127]),
   midi.NoteOnEvent(tick=11, channel=0, data=[70, 0]),
   midi.NoteOnEvent(tick=3, channel=0, data=[54, 0]),
   midi.NoteOnEvent(tick=1, channel=0, data=[42, 0]),
   midi.NoteOnEvent(tick=2, channel=0, data=[82, 0]),
   midi.NoteOnEvent(tick=29, channel=0, data=[84, 92]),
   midi.NoteOnEvent(tick=4, channel=0, data=[72, 77]),
   midi.NoteOnEvent(tick=14, channel=0, data=[72, 0]),
   midi.NoteOnEvent(tick=7, channel=0, data=[84, 0]),
   midi.NoteOnEvent(tick=22, channel=0, data=[85, 89]),
   midi.NoteOnEvent(tick=0, channel=0, data=[61, 49]),
   midi.NoteOnEvent(tick=1, channel=0, data=[73, 82]),
   midi.NoteOnEvent(tick=2, channel=0, data=[54, 42]),
   midi.NoteOnEvent(tick=1, channel=0, data=[58, 45]),
   midi.NoteOnEvent(tick=3, channel=0, data=[61, 0]),
   midi.NoteOnEvent(tick=4, channel=0, data=[58, 0]),
   midi.NoteOnEvent(tick=1, channel=0, data=[54, 0]),
   midi.NoteOnEvent(tick=6, channel=0, data=[73, 0]),
   midi.NoteOnEvent(tick=3, channel=0, data=[85, 0]),
   midi.NoteOnEvent(tick=25, channel=0, data=[87, 93]),
   midi.NoteOnEvent(tick=2, channel=0, data=[75, 92]),
   midi.NoteOnEvent(tick=15, channel=0, data=[75, 0]),
   midi.NoteOnEvent(tick=8, channel=0, data=[87, 0]),
   midi.ControlChangeEvent(tick=10, channel=0, data=[64, 56]),
   midi.ControlChangeEvent(tick=4, channel=0, data=[64, 0]),
   midi.NoteOnEvent(tick=11, channel=0, data=[37, 46]),
   midi.NoteOnEvent(tick=2, channel=0, data=[49, 59]),
   midi.NoteOnEvent(tick=1, channel=0, data=[77, 91]),
   midi.NoteOnEvent(tick=1, channel=0, data=[89, 94]),
   midi.ControlChangeEvent(tick=4, channel=0, data=[64, 127]),
   midi.NoteOnEvent(tick=6, channel=0, data=[37, 0]),
   midi.NoteOnEvent(tick=1, channel=0, data=[49, 0]),
   midi.NoteOnEvent(tick=2, channel=0, data=[77, 0]),
   midi.NoteOnEvent(tick=9, channel=0, data=[89, 0]),
   midi.NoteOnEvent(tick=25, channel=0, data=[92, 97]),
   midi.NoteOnEvent(tick=2, channel=0, data=[80, 89]),
   midi.NoteOnEvent(tick=13, channel=0, data=[80, 0]),
   midi.NoteOnEvent(tick=2, channel=0, data=[92, 0]),
   midi.NoteOnEvent(tick=33, channel=0, data=[61, 55]),
   midi.NoteOnEvent(tick=0, channel=0, data=[89, 96]),
   midi.NoteOnEvent(tick=2, channel=0, data=[77, 86]),
   midi.NoteOnEvent(tick=0, channel=0, data=[56, 38]),
   midi.NoteOnEvent(tick=4, channel=0, data=[53, 37]),
   midi.NoteOnEvent(tick=3, channel=0, data=[61, 0]),
   midi.NoteOnEvent(tick=1, channel=0, data=[56, 0]),
   midi.NoteOnEvent(tick=0, channel=0, data=[77, 0]),
   midi.NoteOnEvent(tick=4, channel=0, data=[89, 0]),
   midi.NoteOnEvent(tick=2, channel=0, data=[53, 0]),
   midi.NoteOnEvent(tick=30, channel=0, data=[87, 86]),
   midi.NoteOnEvent(tick=2, channel=0, data=[75, 87]),
   midi.NoteOnEvent(tick=16, channel=0, data=[75, 0]),
   midi.NoteOnEvent(tick=6, channel=0, data=[87, 0]),
   midi.ControlChangeEvent(tick=11, channel=0, data=[64, 24]),
   midi.ControlChangeEvent(tick=4, channel=0, data=[64, 0]),
   midi.NoteOnEvent(tick=10, channel=0, data=[85, 78]),
   midi.NoteOnEvent(tick=0, channel=0, data=[41, 53]),
   midi.NoteOnEvent(tick=1, channel=0, data=[73, 71]),
   midi.NoteOnEvent(tick=2, channel=0, data=[53, 49]),
   midi.ControlChangeEvent(tick=4, channel=0, data=[64, 104]),
   midi.NoteOnEvent(tick=2, channel=0, data=[41, 0]),
   midi.ControlChangeEvent(tick=2, channel=0, data=[64, 127]),
   midi.NoteOnEvent(tick=7, channel=0, data=[73, 0]),
   midi.NoteOnEvent(tick=2, channel=0, data=[53, 0]),
   midi.NoteOnEvent(tick=1, channel=0, data=[85, 0]),
   midi.NoteOnEvent(tick=27, channel=0, data=[82, 80]),
   midi.NoteOnEvent(tick=2, channel=0, data=[70, 75]),
   midi.NoteOnEvent(tick=14, channel=0, data=[70, 0]),
   midi.NoteOnEvent(tick=5, channel=0, data=[82, 0]),
   midi.NoteOnEvent(tick=21, channel=0, data=[61, 52]),
   midi.NoteOnEvent(tick=5, channel=0, data=[80, 82]),
   midi.NoteOnEvent(tick=1, channel=0, data=[53, 43]),
   midi.NoteOnEvent(tick=1, channel=0, data=[56, 31]),
   midi.NoteOnEvent(tick=0, channel=0, data=[68, 68]),
   midi.NoteOnEvent(tick=3, channel=0, data=[61, 0]),
   midi.NoteOnEvent(tick=4, channel=0, data=[56, 0]),
   midi.NoteOnEvent(tick=0, channel=0, data=[53, 0]),
   midi.NoteOnEvent(tick=4, channel=0, data=[68, 0]),
   midi.NoteOnEvent(tick=6, channel=0, data=[80, 0]),
   midi.NoteOnEvent(tick=27, channel=0, data=[77, 87]),
   midi.NoteOnEvent(tick=3, channel=0, data=[65, 59]),
   midi.NoteOnEvent(tick=9, channel=0, data=[65, 0]),
   midi.NoteOnEvent(tick=7, channel=0, data=[77, 0]),
   midi.ControlChangeEvent(tick=8, channel=0, data=[64, 104]),
   midi.ControlChangeEvent(tick=4, channel=0, data=[64, 0]),
   midi.NoteOnEvent(tick=21, channel=0, data=[41, 60]),
   midi.NoteOnEvent(tick=2, channel=0, data=[65, 75]),
   midi.NoteOnEvent(tick=6, channel=0, data=[53, 40]),
   midi.NoteOnEvent(tick=1, channel=0, data=[41, 0]),
   midi.ControlChangeEvent(tick=6, channel=0, data=[64, 88]),
   midi.ControlChangeEvent(tick=4, channel=0, data=[64, 127]),
   midi.NoteOnEvent(tick=5, channel=0, data=[53, 0]),
   midi.NoteOnEvent(tick=9, channel=0, data=[65, 0]),
   midi.NoteOnEvent(tick=17, channel=0, data=[77, 82]),
   midi.NoteOnEvent(tick=2, channel=0, data=[69, 59]),
   midi.NoteOnEvent(tick=2, channel=0, data=[72, 57]),
   midi.NoteOnEvent(tick=47, channel=0, data=[63, 56]),
   midi.NoteOnEvent(tick=7, channel=0, data=[60, 44]),
   midi.NoteOnEvent(tick=3, channel=0, data=[57, 34]),
   midi.NoteOnEvent(tick=5, channel=0, data=[60, 0]),
   midi.NoteOnEvent(tick=0, channel=0, data=[77, 0]),
   midi.NoteOnEvent(tick=1, channel=0, data=[63, 0]),
   midi.NoteOnEvent(tick=0, channel=0, data=[69, 0]),
   midi.NoteOnEvent(tick=2, channel=0, data=[72, 0]),
   midi.NoteOnEvent(tick=1, channel=0, data=[57, 0]),
   midi.NoteOnEvent(tick=29, channel=0, data=[65, 72]),
   midi.NoteOnEvent(tick=37, channel=0, data=[65, 0]),
   midi.ControlChangeEvent(tick=11, channel=0, data=[64, 24]),
   midi.NoteOnEvent(tick=3, channel=0, data=[77, 80]),
   midi.ControlChangeEvent(tick=1, channel=0, data=[64, 0]),
   midi.NoteOnEvent(tick=1, channel=0, data=[48, 67]),
   midi.NoteOnEvent(tick=0, channel=0, data=[69, 61]),
   midi.NoteOnEvent(tick=1, channel=0, data=[72, 65]),
   midi.NoteOnEvent(tick=1, channel=0, data=[60, 48]),
   midi.NoteOnEvent(tick=5, channel=0, data=[48, 0]),
   midi.ControlChangeEvent(tick=15, channel=0, data=[64, 88]),
   midi.NoteOnEvent(tick=3, channel=0, data=[60, 0]),
   midi.ControlChangeEvent(tick=1, channel=0, data=[64, 127]),
   midi.NoteOnEvent(tick=39, channel=0, data=[69, 0]),
   midi.NoteOnEvent(tick=6, channel=0, data=[77, 0]),
   midi.NoteOnEvent(tick=15, channel=0, data=[72, 0]),
   midi.NoteOnEvent(tick=12, channel=0, data=[63, 46]),
   midi.NoteOnEvent(tick=5, channel=0, data=[65, 72]),
   midi.NoteOnEvent(tick=5, channel=0, data=[63, 0]),
   midi.NoteOnEvent(tick=2, channel=0, data=[57, 34]),
   midi.NoteOnEvent(tick=3, channel=0, data=[53, 25]),
   midi.NoteOnEvent(tick=4, channel=0, data=[57, 0]),
   midi.NoteOnEvent(tick=4, channel=0, data=[53, 0]),
   midi.NoteOnEvent(tick=3, channel=0, data=[65, 0]),
   midi.NoteOnEvent(tick=30, channel=0, data=[77, 77]),
   midi.NoteOnEvent(tick=1, channel=0, data=[65, 60]),
   midi.NoteOnEvent(tick=2, channel=0, data=[70, 47]),
   midi.NoteOnEvent(tick=0, channel=0, data=[73, 39]),
   midi.ControlChangeEvent(tick=15, channel=0, data=[64, 56]),
   midi.ControlChangeEvent(tick=5, channel=0, data=[64, 0]),
   midi.NoteOnEvent(tick=8, channel=0, data=[65, 0]),
   midi.NoteOnEvent(tick=8, channel=0, data=[70, 0]),
   midi.NoteOnEvent(tick=1, channel=0, data=[73, 0]),
   midi.NoteOnEvent(tick=2, channel=0, data=[46, 51]),
   midi.ControlChangeEvent(tick=1, channel=0, data=[64, 88]),
   midi.NoteOnEvent(tick=1, channel=0, data=[77, 0]),
   midi.NoteOnEvent(tick=3, channel=0, data=[58, 31]),
   midi.ControlChangeEvent(tick=0, channel=0, data=[64, 127]),
   midi.NoteOnEvent(tick=16, channel=0, data=[46, 0]),
   midi.NoteOnEvent(tick=8, channel=0, data=[58, 0]),
   midi.NoteOnEvent(tick=24, channel=0, data=[81, 85]),
   midi.NoteOnEvent(tick=2, channel=0, data=[69, 73]),
   midi.NoteOnEvent(tick=15, channel=0, data=[69, 0]),
   midi.NoteOnEvent(tick=4, channel=0, data=[81, 0]),
   midi.NoteOnEvent(tick=25, channel=0, data=[61, 48]),
   midi.NoteOnEvent(tick=2, channel=0, data=[58, 39]),
   midi.NoteOnEvent(tick=0, channel=0, data=[82, 89]),
   midi.NoteOnEvent(tick=2, channel=0, data=[70, 86]),
   midi.NoteOnEvent(tick=1, channel=0, data=[53, 49]),
   midi.NoteOnEvent(tick=5, channel=0, data=[58, 0]),
   midi.NoteOnEvent(tick=0, channel=0, data=[61, 0]),
   midi.NoteOnEvent(tick=4, channel=0, data=[53, 0]),
   midi.NoteOnEvent(tick=7, channel=0, data=[70, 0]),
   midi.NoteOnEvent(tick=10, channel=0, data=[82, 0]),
   midi.NoteOnEvent(tick=18, channel=0, data=[84, 94]),
   midi.NoteOnEvent(tick=0, channel=0, data=[72, 86]),
   midi.NoteOnEvent(tick=16, channel=0, data=[72, 0]),
   midi.NoteOnEvent(tick=5, channel=0, data=[84, 0]),
   midi.ControlChangeEvent(tick=13, channel=0, data=[64, 88]),
   midi.ControlChangeEvent(tick=4, channel=0, data=[64, 24]),
   midi.ControlChangeEvent(tick=4, channel=0, data=[64, 0]),
   midi.NoteOnEvent(tick=3, channel=0, data=[58, 59]),
   midi.NoteOnEvent(tick=2, channel=0, data=[85, 89]),
   midi.NoteOnEvent(tick=0, channel=0, data=[46, 57]),
   midi.NoteOnEvent(tick=2, channel=0, data=[73, 81]),
   midi.ControlChangeEvent(tick=1, channel=0, data=[64, 56]),
   midi.ControlChangeEvent(tick=4, channel=0, data=[64, 127]),
   midi.NoteOnEvent(tick=6, channel=0, data=[58, 0]),
   midi.NoteOnEvent(tick=3, channel=0, data=[46, 0]),
   midi.NoteOnEvent(tick=1, channel=0, data=[73, 0]),
   midi.NoteOnEvent(tick=5, channel=0, data=[85, 0]),
   midi.NoteOnEvent(tick=26, channel=0, data=[87, 90]),
   midi.NoteOnEvent(tick=1, channel=0, data=[75, 89]),
   midi.NoteOnEvent(tick=18, channel=0, data=[75, 0]),
   midi.NoteOnEvent(tick=12, channel=0, data=[87, 0]),
   midi.ControlChangeEvent(tick=1, channel=0, data=[64, 24]),
   midi.ControlChangeEvent(tick=4, channel=0, data=[64, 0]),
   midi.NoteOnEvent(tick=13, channel=0, data=[89, 96]),
   midi.NoteOnEvent(tick=0, channel=0, data=[56, 63]),
   midi.NoteOnEvent(tick=1, channel=0, data=[44, 56]),
   midi.NoteOnEvent(tick=2, channel=0, data=[77, 74]),
   midi.ControlChangeEvent(tick=0, channel=0, data=[64, 56]),
   midi.NoteOnEvent(tick=1, channel=0, data=[83, 78]),
   midi.ControlChangeEvent(tick=3, channel=0, data=[64, 127]),
   midi.NoteOnEvent(tick=7, channel=0, data=[56, 0]),
   midi.NoteOnEvent(tick=4, channel=0, data=[77, 0]),
   midi.NoteOnEvent(tick=0, channel=0, data=[83, 0]),
   midi.NoteOnEvent(tick=0, channel=0, data=[44, 0]),
   midi.NoteOnEvent(tick=6, channel=0, data=[89, 0]),
   midi.ControlChangeEvent(tick=31, channel=0, data=[64, 88]),
   midi.ControlChangeEvent(tick=4, channel=0, data=[64, 0]),
   midi.NoteOnEvent(tick=48, channel=0, data=[89, 96]),
   midi.NoteOnEvent(tick=2, channel=0, data=[78, 85]),
   midi.NoteOnEvent(tick=0, channel=0, data=[54, 64]),
   midi.NoteOnEvent(tick=0, channel=0, data=[42, 54]),
   midi.NoteOnEvent(tick=1, channel=0, data=[82, 74]),
   midi.ControlChangeEvent(tick=6, channel=0, data=[64, 127]),
   midi.NoteOnEvent(tick=7, channel=0, data=[42, 0]),
   midi.NoteOnEvent(tick=3, channel=0, data=[54, 0]),
   midi.NoteOnEvent(tick=84, channel=0, data=[66, 63]),
   midi.NoteOnEvent(tick=4, channel=0, data=[58, 42]),
   midi.NoteOnEvent(tick=3, channel=0, data=[61, 36]),
   midi.NoteOnEvent(tick=8, channel=0, data=[61, 0]),
   midi.NoteOnEvent(tick=2, channel=0, data=[66, 0]),
   midi.NoteOnEvent(tick=6, channel=0, data=[58, 0]),
   midi.NoteOnEvent(tick=8, channel=0, data=[89, 0]),
   midi.NoteOnEvent(tick=14, channel=0, data=[82, 0]),
   midi.NoteOnEvent(tick=4, channel=0, data=[87, 87]),
   midi.NoteOnEvent(tick=15, channel=0, data=[78, 0]),
   midi.NoteOnEvent(tick=23, channel=0, data=[87, 0]),
   midi.NoteOnEvent(tick=8, channel=0, data=[85, 80]),
   midi.ControlChangeEvent(tick=1, channel=0, data=[64, 56]),
   midi.ControlChangeEvent(tick=4, channel=0, data=[64, 0]),
   midi.NoteOnEvent(tick=2, channel=0, data=[58, 67]),
   midi.ControlChangeEvent(tick=2, channel=0, data=[64, 24]),
   midi.NoteOnEvent(tick=1, channel=0, data=[46, 65]),
   midi.ControlChangeEvent(tick=3, channel=0, data=[64, 88]),
   midi.NoteOnEvent(tick=4, channel=0, data=[46, 0]),
   midi.ControlChangeEvent(tick=0, channel=0, data=[64, 127]),
   midi.NoteOnEvent(tick=5, channel=0, data=[58, 0]),
   midi.NoteOnEvent(tick=17, channel=0, data=[85, 0]),
   midi.NoteOnEvent(tick=9, channel=0, data=[82, 77]),
   midi.ControlChangeEvent(tick=45, channel=0, data=[64, 104]),
   midi.ControlChangeEvent(tick=4, channel=0, data=[64, 0]),
   midi.NoteOnEvent(tick=2, channel=0, data=[82, 0]),
   midi.NoteOnEvent(tick=2, channel=0, data=[78, 84]),
   midi.NoteOnEvent(tick=9, channel=0, data=[57, 55]),
   midi.NoteOnEvent(tick=4, channel=0, data=[45, 52]),
   midi.ControlChangeEvent(tick=4, channel=0, data=[64, 72]),
   midi.NoteOnEvent(tick=2, channel=0, data=[57, 0]),
   midi.ControlChangeEvent(tick=2, channel=0, data=[64, 127]),
   midi.NoteOnEvent(tick=2, channel=0, data=[45, 0]),
   midi.NoteOnEvent(tick=6, channel=0, data=[78, 0]),
   midi.ControlChangeEvent(tick=36, channel=0, data=[64, 24]),
   midi.ControlChangeEvent(tick=4, channel=0, data=[64, 0]),
   midi.NoteOnEvent(tick=33, channel=0, data=[89, 96]),
   midi.NoteOnEvent(tick=3, channel=0, data=[77, 67]),
   midi.NoteOnEvent(tick=0, channel=0, data=[80, 74]),
   midi.NoteOnEvent(tick=1, channel=0, data=[44, 60]),
   midi.NoteOnEvent(tick=0, channel=0, data=[56, 68]),
   midi.ControlChangeEvent(tick=7, channel=0, data=[64, 127]),
   midi.NoteOnEvent(tick=9, channel=0, data=[44, 0]),
   midi.NoteOnEvent(tick=1, channel=0, data=[56, 0]),
   midi.NoteOnEvent(tick=61, channel=0, data=[80, 0]),
   midi.NoteOnEvent(tick=21, channel=0, data=[65, 66]),
   midi.NoteOnEvent(tick=2, channel=0, data=[56, 48]),
   midi.NoteOnEvent(tick=1, channel=0, data=[61, 35]),
   midi.NoteOnEvent(tick=4, channel=0, data=[65, 0]),
   midi.NoteOnEvent(tick=5, channel=0, data=[61, 0]),
   midi.NoteOnEvent(tick=4, channel=0, data=[89, 0]),
   midi.NoteOnEvent(tick=3, channel=0, data=[56, 0]),
   midi.NoteOnEvent(tick=27, channel=0, data=[87, 84]),
   midi.NoteOnEvent(tick=20, channel=0, data=[77, 0]),
   midi.NoteOnEvent(tick=14, channel=0, data=[87, 0]),
   midi.ControlChangeEvent(tick=10, channel=0, data=[64, 56]),
   midi.NoteOnEvent(tick=3, channel=0, data=[85, 84]),
   midi.ControlChangeEvent(tick=1, channel=0, data=[64, 0]),
   midi.NoteOnEvent(tick=1, channel=0, data=[41, 61]),
   midi.NoteOnEvent(tick=2, channel=0, data=[53, 63]),
   midi.NoteOnEvent(tick=6, channel=0, data=[41, 0]),
   midi.NoteOnEvent(tick=11, channel=0, data=[53, 0]),
   midi.ControlChangeEvent(tick=0, channel=0, data=[64, 56]),
   midi.ControlChangeEvent(tick=4, channel=0, data=[64, 127]),
   midi.NoteOnEvent(tick=15, channel=0, data=[85, 0]),
   midi.NoteOnEvent(tick=8, channel=0, data=[80, 84]),
   midi.NoteOnEvent(tick=51, channel=0, data=[80, 0]),
   midi.NoteOnEvent(tick=1, channel=0, data=[77, 82]),
   midi.NoteOnEvent(tick=3, channel=0, data=[56, 66]),
   midi.NoteOnEvent(tick=1, channel=0, data=[44, 58]),
   midi.NoteOnEvent(tick=8, channel=0, data=[56, 0]),
   midi.NoteOnEvent(tick=2, channel=0, data=[77, 0]),
   midi.NoteOnEvent(tick=7, channel=0, data=[44, 0]),
   midi.ControlChangeEvent(tick=45, channel=0, data=[64, 88]),
   midi.ControlChangeEvent(tick=4, channel=0, data=[64, 0]),
   midi.NoteOnEvent(tick=27, channel=0, data=[77, 80]),
   midi.NoteOnEvent(tick=4, channel=0, data=[32, 55]),
   midi.NoteOnEvent(tick=0, channel=0, data=[66, 61]),
   midi.NoteOnEvent(tick=1, channel=0, data=[44, 51]),
   midi.ControlChangeEvent(tick=1, channel=0, data=[64, 56]),
   midi.NoteOnEvent(tick=2, channel=0, data=[72, 66]),
   midi.ControlChangeEvent(tick=2, channel=0, data=[64, 127]),
   midi.NoteOnEvent(tick=6, channel=0, data=[72, 0]),
   midi.NoteOnEvent(tick=3, channel=0, data=[32, 0]),
   midi.NoteOnEvent(tick=1, channel=0, data=[44, 0]),
   midi.NoteOnEvent(tick=9, channel=0, data=[66, 0]),
   midi.NoteOnEvent(tick=4, channel=0, data=[77, 0]),
   midi.NoteOnEvent(tick=19, channel=0, data=[75, 81]),
   midi.NoteOnEvent(tick=51, channel=0, data=[60, 66]),
   midi.NoteOnEvent(tick=1, channel=0, data=[54, 54]),
   midi.NoteOnEvent(tick=2, channel=0, data=[56, 44]),
   midi.NoteOnEvent(tick=5, channel=0, data=[60, 0]),
   midi.NoteOnEvent(tick=2, channel=0, data=[56, 0]),
   midi.NoteOnEvent(tick=5, channel=0, data=[54, 0]),
   midi.NoteOnEvent(tick=10, channel=0, data=[75, 0]),
   midi.NoteOnEvent(tick=23, channel=0, data=[66, 76]),
   midi.ControlChangeEvent(tick=36, channel=0, data=[64, 104]),
   midi.ControlChangeEvent(tick=4, channel=0, data=[64, 0]),
   midi.NoteOnEvent(tick=7, channel=0, data=[44, 57]),
   midi.NoteOnEvent(tick=2, channel=0, data=[32, 52]),
   midi.NoteOnEvent(tick=9, channel=0, data=[32, 0]),
   midi.ControlChangeEvent(tick=2, channel=0, data=[64, 88]),
   midi.NoteOnEvent(tick=3, channel=0, data=[44, 0]),
   midi.ControlChangeEvent(tick=1, channel=0, data=[64, 127]),
   midi.NoteOnEvent(tick=31, channel=0, data=[77, 84]),
   midi.NoteOnEvent(tick=19, channel=0, data=[66, 0]),
   midi.NoteOnEvent(tick=13, channel=0, data=[77, 0]),
   midi.NoteOnEvent(tick=19, channel=0, data=[75, 81]),
   midi.NoteOnEvent(tick=1, channel=0, data=[60, 66]),
   midi.NoteOnEvent(tick=1, channel=0, data=[54, 52]),
   midi.NoteOnEvent(tick=0, channel=0, data=[56, 46]),
   midi.NoteOnEvent(tick=1, channel=0, data=[66, 56]),
   midi.NoteOnEvent(tick=6, channel=0, data=[60, 0]),
   midi.NoteOnEvent(tick=0, channel=0, data=[72, 56]),
   midi.NoteOnEvent(tick=1, channel=0, data=[56, 0]),
   midi.NoteOnEvent(tick=6, channel=0, data=[72, 0]),
   midi.NoteOnEvent(tick=1, channel=0, data=[54, 0]),
   midi.NoteOnEvent(tick=8, channel=0, data=[66, 0]),
   midi.NoteOnEvent(tick=3, channel=0, data=[75, 0]),
   midi.ControlChangeEvent(tick=51, channel=0, data=[64, 40]),
   midi.ControlChangeEvent(tick=5, channel=0, data=[64, 0]),
   midi.NoteOnEvent(tick=23, channel=0, data=[73, 80]),
   midi.NoteOnEvent(tick=0, channel=0, data=[49, 63]),
   midi.NoteOnEvent(tick=1, channel=0, data=[37, 51]),
   midi.NoteOnEvent(tick=1, channel=0, data=[68, 65]),
   midi.NoteOnEvent(tick=1, channel=0, data=[65, 67]),
   midi.ControlChangeEvent(tick=6, channel=0, data=[64, 127]),
   midi.NoteOnEvent(tick=4, channel=0, data=[37, 0]),
   midi.NoteOnEvent(tick=2, channel=0, data=[49, 0]),
   midi.NoteOnEvent(tick=1, channel=0, data=[65, 0]),
   midi.NoteOnEvent(tick=4, channel=0, data=[68, 0]),
   midi.NoteOnEvent(tick=11, channel=0, data=[73, 0]),
   midi.NoteOnEvent(tick=59, channel=0, data=[56, 82]),
   midi.NoteOnEvent(tick=2, channel=0, data=[44, 75]),
   midi.NoteOnEvent(tick=14, channel=0, data=[56, 0]),
   midi.NoteOnEvent(tick=1, channel=0, data=[44, 0]),
   midi.NoteOnEvent(tick=35, channel=0, data=[58, 81]),
   midi.NoteOnEvent(tick=2, channel=0, data=[46, 76]),
   midi.NoteOnEvent(tick=16, channel=0, data=[58, 0]),
   midi.NoteOnEvent(tick=16, channel=0, data=[58, 9]),
   midi.NoteOnEvent(tick=17, channel=0, data=[80, 84]),
   midi.NoteOnEvent(tick=1, channel=0, data=[68, 67]),
   midi.NoteOnEvent(tick=3, channel=0, data=[75, 61]),
   midi.ControlChangeEvent(tick=1, channel=0, data=[64, 56]),
   midi.NoteOnEvent(tick=0, channel=0, data=[72, 71]),
   midi.NoteOnEvent(tick=1, channel=0, data=[58, 0]),
   midi.NoteOnEvent(tick=0, channel=0, data=[46, 0]),
   midi.ControlChangeEvent(tick=3, channel=0, data=[64, 0]),
   midi.ControlChangeEvent(tick=37, channel=0, data=[64, 40]),
   midi.ControlChangeEvent(tick=4, channel=0, data=[64, 127]),
   midi.NoteOnEvent(tick=0, channel=0, data=[56, 74]),
   midi.NoteOnEvent(tick=1, channel=0, data=[44, 70]),
   midi.NoteOnEvent(tick=13, channel=0, data=[56, 0]),
   midi.NoteOnEvent(tick=3, channel=0, data=[44, 0]),
   midi.ControlChangeEvent(tick=15, channel=0, data=[64, 104]),
   midi.ControlChangeEvent(tick=4, channel=0, data=[64, 127]),
   midi.NoteOnEvent(tick=11, channel=0, data=[54, 79]),
   midi.NoteOnEvent(tick=1, channel=0, data=[42, 64]),
   midi.NoteOnEvent(tick=7, channel=0, data=[42, 0]),
   midi.NoteOnEvent(tick=3, channel=0, data=[54, 0]),
   midi.NoteOnEvent(tick=21, channel=0, data=[72, 0]),
   midi.NoteOnEvent(tick=8, channel=0, data=[75, 0]),
   midi.NoteOnEvent(tick=6, channel=0, data=[51, 75]),
   midi.NoteOnEvent(tick=1, channel=0, data=[80, 0]),
   midi.NoteOnEvent(tick=1, channel=0, data=[68, 0]),
   midi.NoteOnEvent(tick=0, channel=0, data=[39, 65]),
   midi.NoteOnEvent(tick=7, channel=0, data=[51, 0]),
   midi.NoteOnEvent(tick=1, channel=0, data=[39, 0]),
   midi.ControlChangeEvent(tick=26, channel=0, data=[64, 104]),
   midi.ControlChangeEvent(tick=4, channel=0, data=[64, 0]),
   midi.NoteOnEvent(tick=16, channel=0, data=[80, 91]),
   midi.NoteOnEvent(tick=0, channel=0, data=[68, 74]),
   midi.NoteOnEvent(tick=4, channel=0, data=[77, 75]),
   midi.NoteOnEvent(tick=6, channel=0, data=[37, 54]),
   midi.NoteOnEvent(tick=3, channel=0, data=[49, 56]),
   midi.ControlChangeEvent(tick=7, channel=0, data=[64, 127]),
   midi.NoteOnEvent(tick=1, channel=0, data=[37, 0]),
   midi.NoteOnEvent(tick=3, channel=0, data=[49, 0]),
   midi.NoteOnEvent(tick=12, channel=0, data=[77, 0]),
   midi.NoteOnEvent(tick=6, channel=0, data=[68, 0]),
   midi.NoteOnEvent(tick=8, channel=0, data=[80, 0]),
   midi.NoteOnEvent(tick=3, channel=0, data=[73, 74]),
   midi.NoteOnEvent(tick=36, channel=0, data=[73, 0]),
   midi.NoteOnEvent(tick=13, channel=0, data=[77, 86]),
   midi.NoteOnEvent(tick=1, channel=0, data=[61, 59]),
   midi.NoteOnEvent(tick=3, channel=0, data=[56, 45]),
   midi.NoteOnEvent(tick=1, channel=0, data=[53, 50]),
   midi.NoteOnEvent(tick=4, channel=0, data=[61, 0]),
   midi.NoteOnEvent(tick=1, channel=0, data=[56, 0]),
   midi.NoteOnEvent(tick=2, channel=0, data=[53, 0]),
   midi.NoteOnEvent(tick=10, channel=0, data=[77, 0]),
   midi.ControlChangeEvent(tick=25, channel=0, data=[64, 56]),
   midi.NoteOnEvent(tick=2, channel=0, data=[82, 89]),
   midi.NoteOnEvent(tick=2, channel=0, data=[70, 80]),
   midi.ControlChangeEvent(tick=0, channel=0, data=[64, 0]),
   midi.NoteOnEvent(tick=1, channel=0, data=[73, 67]),
   midi.NoteOnEvent(tick=5, channel=0, data=[78, 38]),
   midi.NoteOnEvent(tick=10, channel=0, data=[78, 0]),
   midi.NoteOnEvent(tick=23, channel=0, data=[73, 0]),
   midi.NoteOnEvent(tick=11, channel=0, data=[42, 53]),
   midi.NoteOnEvent(tick=3, channel=0, data=[70, 0]),
   midi.NoteOnEvent(tick=0, channel=0, data=[54, 55]),
   midi.ControlChangeEvent(tick=3, channel=0, data=[64, 127]),
   midi.NoteOnEvent(tick=2, channel=0, data=[82, 0]),
   midi.NoteOnEvent(tick=10, channel=0, data=[42, 0]),
   midi.NoteOnEvent(tick=1, channel=0, data=[54, 0]),
   midi.NoteOnEvent(tick=28, channel=0, data=[84, 93]),
   midi.NoteOnEvent(tick=2, channel=0, data=[72, 74]),
   midi.NoteOnEvent(tick=14, channel=0, data=[72, 0]),
   midi.NoteOnEvent(tick=6, channel=0, data=[84, 0]),
   midi.NoteOnEvent(tick=22, channel=0, data=[85, 89]),
   midi.NoteOnEvent(tick=0, channel=0, data=[61, 60]),
   midi.NoteOnEvent(tick=0, channel=0, data=[58, 53]),
   midi.NoteOnEvent(tick=2, channel=0, data=[73, 80]),
   midi.NoteOnEvent(tick=5, channel=0, data=[54, 46]),
   midi.NoteOnEvent(tick=3, channel=0, data=[58, 0]),
   midi.NoteOnEvent(tick=0, channel=0, data=[61, 0]),
   midi.NoteOnEvent(tick=5, channel=0, data=[54, 0]),
   midi.NoteOnEvent(tick=2, channel=0, data=[73, 0]),
   midi.NoteOnEvent(tick=6, channel=0, data=[85, 0]),
   midi.NoteOnEvent(tick=26, channel=0, data=[87, 87]),
   midi.NoteOnEvent(tick=1, channel=0, data=[75, 89]),
   midi.NoteOnEvent(tick=16, channel=0, data=[75, 0]),
   midi.NoteOnEvent(tick=6, channel=0, data=[87, 0]),
   midi.ControlChangeEvent(tick=1, channel=0, data=[64, 88]),
   midi.ControlChangeEvent(tick=4, channel=0, data=[64, 0]),
   midi.NoteOnEvent(tick=18, channel=0, data=[37, 51]),
   midi.NoteOnEvent(tick=1, channel=0, data=[49, 59]),
   midi.ControlChangeEvent(tick=1, channel=0, data=[64, 104]),
   midi.NoteOnEvent(tick=3, channel=0, data=[89, 89]),
   midi.NoteOnEvent(tick=0, channel=0, data=[77, 81]),
   midi.ControlChangeEvent(tick=1, channel=0, data=[64, 127]),
   midi.NoteOnEvent(tick=5, channel=0, data=[37, 0]),
   midi.NoteOnEvent(tick=4, channel=0, data=[49, 0]),
   midi.NoteOnEvent(tick=6, channel=0, data=[77, 0]),
   midi.NoteOnEvent(tick=4, channel=0, data=[89, 0]),
   midi.NoteOnEvent(tick=28, channel=0, data=[92, 89]),
   midi.NoteOnEvent(tick=1, channel=0, data=[80, 80]),
   midi.NoteOnEvent(tick=15, channel=0, data=[80, 0]),
   midi.NoteOnEvent(tick=2, channel=0, data=[92, 0]),
   midi.NoteOnEvent(tick=23, channel=0, data=[61, 57]),
   midi.NoteOnEvent(tick=5, channel=0, data=[56, 38]),
   midi.NoteOnEvent(tick=3, channel=0, data=[89, 91]),
   midi.NoteOnEvent(tick=2, channel=0, data=[53, 33]),
   midi.NoteOnEvent(tick=1, channel=0, data=[61, 0]),
   midi.NoteOnEvent(tick=0, channel=0, data=[77, 82]),
   midi.NoteOnEvent(tick=1, channel=0, data=[56, 0]),
   midi.NoteOnEvent(tick=7, channel=0, data=[53, 0]),
   midi.NoteOnEvent(tick=1, channel=0, data=[77, 0]),
   midi.NoteOnEvent(tick=3, channel=0, data=[89, 0]),
   midi.NoteOnEvent(tick=30, channel=0, data=[87, 86]),
   midi.NoteOnEvent(tick=3, channel=0, data=[75, 85]),
   midi.NoteOnEvent(tick=17, channel=0, data=[75, 0]),
   midi.NoteOnEvent(tick=5, channel=0, data=[87, 0]),
   midi.ControlChangeEvent(tick=4, channel=0, data=[64, 104]),
   midi.ControlChangeEvent(tick=4, channel=0, data=[64, 0]),
   midi.NoteOnEvent(tick=17, channel=0, data=[85, 79]),
   midi.NoteOnEvent(tick=1, channel=0, data=[41, 46]),
   midi.NoteOnEvent(tick=1, channel=0, data=[73, 75]),
   midi.NoteOnEvent(tick=0, channel=0, data=[53, 54]),
   midi.ControlChangeEvent(tick=4, channel=0, data=[64, 104]),
   midi.NoteOnEvent(tick=4, channel=0, data=[41, 0]),
   midi.ControlChangeEvent(tick=1, channel=0, data=[64, 127]),
   midi.NoteOnEvent(tick=8, channel=0, data=[73, 0]),
   midi.NoteOnEvent(tick=2, channel=0, data=[53, 0]),
   midi.NoteOnEvent(tick=1, channel=0, data=[85, 0]),
   midi.NoteOnEvent(tick=25, channel=0, data=[82, 77]),
   midi.NoteOnEvent(tick=4, channel=0, data=[70, 70]),
   midi.NoteOnEvent(tick=15, channel=0, data=[70, 0]),
   midi.NoteOnEvent(tick=4, channel=0, data=[82, 0]),
   midi.NoteOnEvent(tick=19, channel=0, data=[61, 48]),
   midi.NoteOnEvent(tick=6, channel=0, data=[80, 86]),
   midi.NoteOnEvent(tick=1, channel=0, data=[56, 34]),
   midi.NoteOnEvent(tick=1, channel=0, data=[53, 32]),
   midi.NoteOnEvent(tick=3, channel=0, data=[61, 0]),
   midi.NoteOnEvent(tick=0, channel=0, data=[68, 65]),
   midi.NoteOnEvent(tick=3, channel=0, data=[56, 0]),
   midi.NoteOnEvent(tick=3, channel=0, data=[53, 0]),
   midi.NoteOnEvent(tick=2, channel=0, data=[68, 0]),
   midi.NoteOnEvent(tick=7, channel=0, data=[80, 0]),
   midi.NoteOnEvent(tick=25, channel=0, data=[77, 96]),
   midi.NoteOnEvent(tick=3, channel=0, data=[65, 74]),
   midi.NoteOnEvent(tick=8, channel=0, data=[65, 0]),
   midi.NoteOnEvent(tick=7, channel=0, data=[77, 0]),
   midi.ControlChangeEvent(tick=26, channel=0, data=[64, 0]),
   midi.NoteOnEvent(tick=13, channel=0, data=[77, 90]),
   midi.NoteOnEvent(tick=2, channel=0, data=[32, 56]),
   midi.NoteOnEvent(tick=0, channel=0, data=[66, 55]),
   midi.NoteOnEvent(tick=0, channel=0, data=[44, 53]),
   midi.NoteOnEvent(tick=3, channel=0, data=[72, 65]),
   midi.NoteOnEvent(tick=7, channel=0, data=[72, 0]),
   midi.NoteOnEvent(tick=7, channel=0, data=[32, 0]),
   midi.NoteOnEvent(tick=3, channel=0, data=[44, 0]),
   midi.ControlChangeEvent(tick=6, channel=0, data=[64, 127]),
   midi.NoteOnEvent(tick=3, channel=0, data=[77, 0]),
   midi.NoteOnEvent(tick=9, channel=0, data=[66, 0]),
   midi.NoteOnEvent(tick=7, channel=0, data=[75, 77]),
   midi.NoteOnEvent(tick=54, channel=0, data=[60, 67]),
   midi.NoteOnEvent(tick=2, channel=0, data=[54, 53]),
   midi.NoteOnEvent(tick=0, channel=0, data=[56, 46]),
   midi.NoteOnEvent(tick=6, channel=0, data=[60, 0]),
   midi.NoteOnEvent(tick=2, channel=0, data=[56, 0]),
   midi.NoteOnEvent(tick=4, channel=0, data=[54, 0]),
   midi.NoteOnEvent(tick=8, channel=0, data=[75, 0]),
   midi.NoteOnEvent(tick=25, channel=0, data=[66, 77]),
   midi.ControlChangeEvent(tick=25, channel=0, data=[64, 88]),
   midi.ControlChangeEvent(tick=4, channel=0, data=[64, 0]),
   midi.NoteOnEvent(tick=25, channel=0, data=[48, 68]),
   midi.NoteOnEvent(tick=0, channel=0, data=[36, 56]),
   midi.ControlChangeEvent(tick=7, channel=0, data=[64, 127]),
   midi.NoteOnEvent(tick=1, channel=0, data=[36, 0]),
   midi.NoteOnEvent(tick=0, channel=0, data=[48, 0]),
   midi.NoteOnEvent(tick=38, channel=0, data=[77, 85]),
   midi.NoteOnEvent(tick=14, channel=0, data=[66, 0]),
   midi.NoteOnEvent(tick=12, channel=0, data=[77, 0]),
   midi.NoteOnEvent(tick=23, channel=0, data=[75, 81]),
   midi.NoteOnEvent(tick=2, channel=0, data=[66, 56]),
   midi.NoteOnEvent(tick=2, channel=0, data=[54, 50]),
   midi.NoteOnEvent(tick=0, channel=0, data=[60, 61]),
   midi.NoteOnEvent(tick=0, channel=0, data=[72, 67]),
   midi.NoteOnEvent(tick=2, channel=0, data=[56, 37]),
   midi.NoteOnEvent(tick=6, channel=0, data=[72, 0]),
   midi.NoteOnEvent(tick=1, channel=0, data=[60, 0]),
   midi.NoteOnEvent(tick=1, channel=0, data=[56, 0]),
   midi.NoteOnEvent(tick=2, channel=0, data=[66, 0]),
   midi.NoteOnEvent(tick=4, channel=0, data=[54, 0]),
   midi.NoteOnEvent(tick=5, channel=0, data=[75, 0]),
   midi.ControlChangeEvent(tick=29, channel=0, data=[64, 104]),
   midi.ControlChangeEvent(tick=4, channel=0, data=[64, 0]),
   midi.NoteOnEvent(tick=43, channel=0, data=[75, 78]),
   midi.NoteOnEvent(tick=5, channel=0, data=[68, 57]),
   midi.NoteOnEvent(tick=0, channel=0, data=[65, 60]),
   midi.NoteOnEvent(tick=0, channel=0, data=[49, 52]),
   midi.NoteOnEvent(tick=1, channel=0, data=[37, 53]),
   midi.ControlChangeEvent(tick=7, channel=0, data=[64, 127]),
   midi.NoteOnEvent(tick=4, channel=0, data=[37, 0]),
   midi.NoteOnEvent(tick=4, channel=0, data=[49, 0]),
   midi.NoteOnEvent(tick=15, channel=0, data=[75, 0]),
   midi.NoteOnEvent(tick=2, channel=0, data=[65, 0]),
   midi.NoteOnEvent(tick=6, channel=0, data=[68, 0]),
   midi.NoteOnEvent(tick=7, channel=0, data=[73, 80]),
   midi.NoteOnEvent(tick=52, channel=0, data=[61, 48]),
   midi.NoteOnEvent(tick=4, channel=0, data=[56, 36]),
   midi.NoteOnEvent(tick=5, channel=0, data=[61, 0]),
   midi.NoteOnEvent(tick=3, channel=0, data=[56, 0]),
   midi.NoteOnEvent(tick=18, channel=0, data=[73, 0]),
   midi.NoteOnEvent(tick=18, channel=0, data=[65, 79]),
   midi.ControlChangeEvent(tick=35, channel=0, data=[64, 40]),
   midi.ControlChangeEvent(tick=4, channel=0, data=[64, 0]),
   midi.NoteOnEvent(tick=11, channel=0, data=[49, 66]),
   midi.NoteOnEvent(tick=2, channel=0, data=[37, 52]),
   midi.ControlChangeEvent(tick=4, channel=0, data=[64, 56]),
   midi.ControlChangeEvent(tick=4, channel=0, data=[64, 127]),
   midi.NoteOnEvent(tick=2, channel=0, data=[49, 0]),
   midi.NoteOnEvent(tick=7, channel=0, data=[37, 0]),
   midi.NoteOnEvent(tick=26, channel=0, data=[75, 84]),
   midi.NoteOnEvent(tick=2, channel=0, data=[65, 0]),
   midi.NoteOnEvent(tick=27, channel=0, data=[75, 0]),
   midi.ControlChangeEvent(tick=15, channel=0, data=[64, 56]),
   midi.NoteOnEvent(tick=5, channel=0, data=[73, 85]),
   midi.ControlChangeEvent(tick=0, channel=0, data=[64, 0]),
   midi.NoteOnEvent(tick=3, channel=0, data=[70, 63]),
   midi.NoteOnEvent(tick=0, channel=0, data=[34, 55]),
   midi.NoteOnEvent(tick=1, channel=0, data=[46, 59]),
   midi.NoteOnEvent(tick=0, channel=0, data=[65, 66]),
   midi.ControlChangeEvent(tick=8, channel=0, data=[64, 56]),
   midi.ControlChangeEvent(tick=4, channel=0, data=[64, 127]),
   midi.NoteOnEvent(tick=5, channel=0, data=[65, 0]),
   midi.NoteOnEvent(tick=0, channel=0, data=[34, 0]),
   midi.NoteOnEvent(tick=0, channel=0, data=[70, 0]),
   midi.NoteOnEvent(tick=1, channel=0, data=[46, 0]),
   midi.NoteOnEvent(tick=12, channel=0, data=[73, 0]),
   midi.ControlChangeEvent(tick=27, channel=0, data=[64, 88]),
   midi.ControlChangeEvent(tick=4, channel=0, data=[64, 0]),
   midi.NoteOnEvent(tick=37, channel=0, data=[72, 85]),
   midi.NoteOnEvent(tick=0, channel=0, data=[36, 50]),
   midi.NoteOnEvent(tick=1, channel=0, data=[65, 65]),
   midi.NoteOnEvent(tick=0, channel=0, data=[48, 64]),
   midi.NoteOnEvent(tick=2, channel=0, data=[68, 56]),
   midi.ControlChangeEvent(tick=0, channel=0, data=[64, 127]),
   midi.NoteOnEvent(tick=5, channel=0, data=[36, 0]),
   midi.NoteOnEvent(tick=10, channel=0, data=[48, 0]),
   midi.NoteOnEvent(tick=5, channel=0, data=[68, 0]),
   midi.NoteOnEvent(tick=13, channel=0, data=[72, 0]),
   midi.NoteOnEvent(tick=4, channel=0, data=[65, 0]),
   midi.NoteOnEvent(tick=6, channel=0, data=[68, 77]),
   midi.NoteOnEvent(tick=4, channel=0, data=[65, 13]),
   midi.NoteOnEvent(tick=32, channel=0, data=[65, 0]),
   midi.NoteOnEvent(tick=9, channel=0, data=[56, 56]),
   midi.ControlChangeEvent(tick=1, channel=0, data=[64, 72]),
   midi.NoteOnEvent(tick=1, channel=0, data=[60, 44]),
   midi.NoteOnEvent(tick=1, channel=0, data=[53, 49]),
   midi.ControlChangeEvent(tick=2, channel=0, data=[64, 88]),
   midi.NoteOnEvent(tick=1, channel=0, data=[72, 85]),
   midi.ControlChangeEvent(tick=3, channel=0, data=[64, 127]),
   midi.NoteOnEvent(tick=2, channel=0, data=[53, 0]),
   midi.NoteOnEvent(tick=0, channel=0, data=[60, 0]),
   midi.NoteOnEvent(tick=4, channel=0, data=[56, 0]),
   midi.NoteOnEvent(tick=2, channel=0, data=[68, 0]),
   midi.NoteOnEvent(tick=18, channel=0, data=[72, 0]),
   midi.NoteOnEvent(tick=23, channel=0, data=[73, 84]),
   midi.NoteOnEvent(tick=6, channel=0, data=[64, 57]),
   midi.NoteOnEvent(tick=0, channel=0, data=[70, 46]),
   midi.ControlChangeEvent(tick=5, channel=0, data=[64, 56]),
   midi.ControlChangeEvent(tick=4, channel=0, data=[64, 0]),
   midi.ControlChangeEvent(tick=33, channel=0, data=[64, 72]),
   midi.NoteOnEvent(tick=1, channel=0, data=[64, 0]),
   midi.ControlChangeEvent(tick=3, channel=0, data=[64, 127]),
   midi.NoteOnEvent(tick=2, channel=0, data=[55, 60]),
   midi.NoteOnEvent(tick=0, channel=0, data=[43, 58]),
   midi.NoteOnEvent(tick=8, channel=0, data=[55, 0]),
   midi.NoteOnEvent(tick=11, channel=0, data=[43, 0]),
   midi.NoteOnEvent(tick=10, channel=0, data=[70, 0]),
   midi.NoteOnEvent(tick=2, channel=0, data=[73, 0]),
   midi.NoteOnEvent(tick=13, channel=0, data=[64, 71]),
   midi.NoteOnEvent(tick=22, channel=0, data=[64, 0]),
   midi.ControlChangeEvent(tick=17, channel=0, data=[64, 104]),
   midi.ControlChangeEvent(tick=4, channel=0, data=[64, 0]),
   midi.NoteOnEvent(tick=6, channel=0, data=[72, 81]),
   midi.NoteOnEvent(tick=1, channel=0, data=[64, 61]),
   midi.NoteOnEvent(tick=1, channel=0, data=[70, 52]),
   midi.NoteOnEvent(tick=0, channel=0, data=[48, 61]),
   midi.NoteOnEvent(tick=0, channel=0, data=[36, 55]),
   midi.NoteOnEvent(tick=8, channel=0, data=[48, 0]),
   midi.ControlChangeEvent(tick=0, channel=0, data=[64, 56]),
   midi.NoteOnEvent(tick=1, channel=0, data=[36, 0]),
   midi.NoteOnEvent(tick=3, channel=0, data=[64, 0]),
   midi.ControlChangeEvent(tick=0, channel=0, data=[64, 127]),
   midi.NoteOnEvent(tick=4, channel=0, data=[70, 0]),
   midi.NoteOnEvent(tick=3, channel=0, data=[72, 0]),
   midi.ControlChangeEvent(tick=33, channel=0, data=[64, 40]),
   midi.ControlChangeEvent(tick=4, channel=0, data=[64, 0]),
   midi.NoteOnEvent(tick=42, channel=0, data=[72, 80]),
   midi.NoteOnEvent(tick=2, channel=0, data=[68, 56]),
   midi.NoteOnEvent(tick=1, channel=0, data=[65, 61]),
   midi.NoteOnEvent(tick=1, channel=0, data=[53, 65]),
   midi.NoteOnEvent(tick=0, channel=0, data=[41, 53]),
   midi.ControlChangeEvent(tick=2, channel=0, data=[64, 127]),
   midi.NoteOnEvent(tick=6, channel=0, data=[41, 0]),
   midi.NoteOnEvent(tick=4, channel=0, data=[53, 0]),
   midi.NoteOnEvent(tick=8, channel=0, data=[68, 0]),
   midi.NoteOnEvent(tick=3, channel=0, data=[65, 0]),
   midi.NoteOnEvent(tick=7, channel=0, data=[72, 0]),
   midi.NoteOnEvent(tick=14, channel=0, data=[68, 75]),
   midi.NoteOnEvent(tick=8, channel=0, data=[65, 40]),
   midi.NoteOnEvent(tick=12, channel=0, data=[65, 0]),
   midi.NoteOnEvent(tick=22, channel=0, data=[68, 0]),
   midi.NoteOnEvent(tick=3, channel=0, data=[63, 72]),
   midi.NoteOnEvent(tick=5, channel=0, data=[51, 58]),
   midi.NoteOnEvent(tick=1, channel=0, data=[72, 87]),
   midi.NoteOnEvent(tick=6, channel=0, data=[51, 0]),
   midi.NoteOnEvent(tick=6, channel=0, data=[63, 0]),
   midi.NoteOnEvent(tick=9, channel=0, data=[72, 0]),
   midi.NoteOnEvent(tick=27, channel=0, data=[71, 86]),
   midi.NoteOnEvent(tick=2, channel=0, data=[68, 56]),
   midi.NoteOnEvent(tick=2, channel=0, data=[65, 57]),
   midi.ControlChangeEvent(tick=25, channel=0, data=[64, 56]),
   midi.ControlChangeEvent(tick=4, channel=0, data=[64, 0]),
   midi.NoteOnEvent(tick=16, channel=0, data=[62, 65]),
   midi.NoteOnEvent(tick=4, channel=0, data=[50, 53]),
   midi.NoteOnEvent(tick=2, channel=0, data=[65, 0]),
   midi.ControlChangeEvent(tick=1, channel=0, data=[64, 72]),
   midi.ControlChangeEvent(tick=4, channel=0, data=[64, 127]),
   midi.NoteOnEvent(tick=2, channel=0, data=[50, 0]),
   midi.NoteOnEvent(tick=1, channel=0, data=[62, 0]),
   midi.NoteOnEvent(tick=10, channel=0, data=[68, 0]),
   midi.NoteOnEvent(tick=12, channel=0, data=[71, 0]),
   midi.NoteOnEvent(tick=10, channel=0, data=[65, 71]),
   midi.NoteOnEvent(tick=20, channel=0, data=[65, 0]),
   midi.ControlChangeEvent(tick=23, channel=0, data=[64, 104]),
   midi.ControlChangeEvent(tick=4, channel=0, data=[64, 0]),
   midi.NoteOnEvent(tick=2, channel=0, data=[70, 78]),
   midi.NoteOnEvent(tick=2, channel=0, data=[64, 65]),
   midi.NoteOnEvent(tick=1, channel=0, data=[68, 52]),
   midi.NoteOnEvent(tick=4, channel=0, data=[61, 58]),
   midi.NoteOnEvent(tick=1, channel=0, data=[49, 61]),
   midi.ControlChangeEvent(tick=10, channel=0, data=[64, 104]),
   midi.ControlChangeEvent(tick=4, channel=0, data=[64, 127]),
   midi.NoteOnEvent(tick=3, channel=0, data=[61, 0]),
   midi.NoteOnEvent(tick=2, channel=0, data=[64, 0]),
   midi.NoteOnEvent(tick=0, channel=0, data=[49, 0]),
   midi.NoteOnEvent(tick=11, channel=0, data=[68, 0]),
   midi.NoteOnEvent(tick=24, channel=0, data=[70, 0]),
   midi.ControlChangeEvent(tick=41, channel=0, data=[64, 40]),
   midi.NoteOnEvent(tick=1, channel=0, data=[60, 64]),
   midi.NoteOnEvent(tick=0, channel=0, data=[63, 72]),
   midi.NoteOnEvent(tick=1, channel=0, data=[68, 72]),
   midi.NoteOnEvent(tick=2, channel=0, data=[48, 65]),
   midi.ControlChangeEvent(tick=0, channel=0, data=[64, 0]),
   midi.NoteOnEvent(tick=9, channel=0, data=[48, 0]),
   midi.NoteOnEvent(tick=5, channel=0, data=[60, 0]),
   midi.ControlChangeEvent(tick=2, channel=0, data=[64, 72]),
   midi.ControlChangeEvent(tick=4, channel=0, data=[64, 127]),
   midi.NoteOnEvent(tick=2, channel=0, data=[63, 0]),
   midi.NoteOnEvent(tick=12, channel=0, data=[68, 0]),
   midi.NoteOnEvent(tick=8, channel=0, data=[75, 90]),
   midi.NoteOnEvent(tick=26, channel=0, data=[75, 0]),
   midi.ControlChangeEvent(tick=20, channel=0, data=[64, 0]),
   midi.NoteOnEvent(tick=4, channel=0, data=[76, 88]),
   midi.NoteOnEvent(tick=0, channel=0, data=[71, 70]),
   midi.NoteOnEvent(tick=2, channel=0, data=[68, 63]),
   midi.NoteOnEvent(tick=3, channel=0, data=[59, 63]),
   midi.NoteOnEvent(tick=1, channel=0, data=[47, 65]),
   midi.ControlChangeEvent(tick=15, channel=0, data=[64, 72]),
   midi.NoteOnEvent(tick=2, channel=0, data=[47, 0]),
   midi.ControlChangeEvent(tick=2, channel=0, data=[64, 127]),
   midi.NoteOnEvent(tick=1, channel=0, data=[59, 0]),
   midi.NoteOnEvent(tick=3, channel=0, data=[71, 0]),
   midi.NoteOnEvent(tick=3, channel=0, data=[68, 0]),
   midi.NoteOnEvent(tick=9, channel=0, data=[76, 0]),
   midi.ControlChangeEvent(tick=52, channel=0, data=[64, 40]),
   midi.ControlChangeEvent(tick=4, channel=0, data=[64, 0]),
   midi.NoteOnEvent(tick=7, channel=0, data=[76, 91]),
   midi.NoteOnEvent(tick=2, channel=0, data=[73, 70]),
   midi.NoteOnEvent(tick=0, channel=0, data=[58, 59]),
   midi.NoteOnEvent(tick=1, channel=0, data=[67, 72]),
   midi.NoteOnEvent(tick=1, channel=0, data=[46, 64]),
   midi.ControlChangeEvent(tick=10, channel=0, data=[64, 88]),
   midi.ControlChangeEvent(tick=4, channel=0, data=[64, 127]),
   midi.NoteOnEvent(tick=6, channel=0, data=[67, 0]),
   midi.NoteOnEvent(tick=2, channel=0, data=[58, 0]),
   midi.NoteOnEvent(tick=0, channel=0, data=[46, 0]),
   midi.NoteOnEvent(tick=2, channel=0, data=[76, 0]),
   midi.NoteOnEvent(tick=8, channel=0, data=[73, 0]),
   midi.NoteOnEvent(tick=65, channel=0, data=[75, 81]),
   midi.NoteOnEvent(tick=0, channel=0, data=[66, 75]),
   midi.ControlChangeEvent(tick=1, channel=0, data=[64, 0]),
   midi.NoteOnEvent(tick=1, channel=0, data=[73, 70]),
   midi.NoteOnEvent(tick=3, channel=0, data=[57, 65]),
   midi.NoteOnEvent(tick=3, channel=0, data=[45, 66]),
   midi.ControlChangeEvent(tick=9, channel=0, data=[64, 56]),
   midi.NoteOnEvent(tick=1, channel=0, data=[45, 0]),
   midi.ControlChangeEvent(tick=3, channel=0, data=[64, 127]),
   midi.NoteOnEvent(tick=5, channel=0, data=[57, 0]),
   midi.NoteOnEvent(tick=5, channel=0, data=[73, 0]),
   midi.NoteOnEvent(tick=0, channel=0, data=[66, 0]),
   midi.NoteOnEvent(tick=6, channel=0, data=[75, 0]),
   midi.ControlChangeEvent(tick=56, channel=0, data=[64, 0]),
   midi.NoteOnEvent(tick=10, channel=0, data=[75, 86]),
   midi.NoteOnEvent(tick=1, channel=0, data=[66, 72]),
   midi.NoteOnEvent(tick=2, channel=0, data=[72, 81]),
   midi.NoteOnEvent(tick=1, channel=0, data=[56, 68]),
   midi.NoteOnEvent(tick=1, channel=0, data=[44, 59]),
   midi.ControlChangeEvent(tick=14, channel=0, data=[64, 127]),
   midi.NoteOnEvent(tick=6, channel=0, data=[56, 0]),
   midi.NoteOnEvent(tick=1, channel=0, data=[66, 0]),
   midi.NoteOnEvent(tick=6, channel=0, data=[44, 0]),
   midi.NoteOnEvent(tick=7, channel=0, data=[75, 0]),
   midi.NoteOnEvent(tick=4, channel=0, data=[72, 0]),
   midi.ControlChangeEvent(tick=53, channel=0, data=[64, 40]),
   midi.NoteOnEvent(tick=1, channel=0, data=[80, 91]),
   midi.NoteOnEvent(tick=2, channel=0, data=[75, 74]),
   midi.NoteOnEvent(tick=0, channel=0, data=[68, 76]),
   midi.ControlChangeEvent(tick=1, channel=0, data=[64, 0]),
   midi.NoteOnEvent(tick=7, channel=0, data=[54, 72]),
   midi.NoteOnEvent(tick=1, channel=0, data=[42, 58]),
   midi.ControlChangeEvent(tick=4, channel=0, data=[64, 127]),
   midi.NoteOnEvent(tick=9, channel=0, data=[54, 0]),
   midi.NoteOnEvent(tick=5, channel=0, data=[42, 0]),
   midi.NoteOnEvent(tick=7, channel=0, data=[68, 0]),
   midi.NoteOnEvent(tick=1, channel=0, data=[75, 0]),
   midi.NoteOnEvent(tick=4, channel=0, data=[80, 0]),
   midi.NoteOnEvent(tick=10, channel=0, data=[72, 89]),
   midi.NoteOnEvent(tick=39, channel=0, data=[72, 0]),
   midi.NoteOnEvent(tick=9, channel=0, data=[75, 78]),
   midi.NoteOnEvent(tick=1, channel=0, data=[53, 67]),
   midi.NoteOnEvent(tick=2, channel=0, data=[41, 51]),
   midi.NoteOnEvent(tick=7, channel=0, data=[53, 0]),
   midi.NoteOnEvent(tick=2, channel=0, data=[41, 0]),
   midi.NoteOnEvent(tick=18, channel=0, data=[75, 0]),
   midi.NoteOnEvent(tick=18, channel=0, data=[80, 93]),
   midi.NoteOnEvent(tick=0, channel=0, data=[68, 76]),
   midi.NoteOnEvent(tick=0, channel=0, data=[75, 67]),
   midi.NoteOnEvent(tick=2, channel=0, data=[72, 87]),
   midi.ControlChangeEvent(tick=11, channel=0, data=[64, 56]),
   midi.ControlChangeEvent(tick=4, channel=0, data=[64, 0]),
   midi.NoteOnEvent(tick=15, channel=0, data=[72, 0]),
   midi.ControlChangeEvent(tick=6, channel=0, data=[64, 127]),
   midi.NoteOnEvent(tick=4, channel=0, data=[51, 73]),
   midi.NoteOnEvent(tick=1, channel=0, data=[39, 66]),
   midi.NoteOnEvent(tick=5, channel=0, data=[75, 0]),
   midi.NoteOnEvent(tick=10, channel=0, data=[51, 0]),
   midi.NoteOnEvent(tick=3, channel=0, data=[39, 0]),
   midi.NoteOnEvent(tick=5, channel=0, data=[68, 0]),
   midi.NoteOnEvent(tick=3, channel=0, data=[80, 0]),
   midi.NoteOnEvent(tick=28, channel=0, data=[80, 94]),
   midi.NoteOnEvent(tick=2, channel=0, data=[68, 80]),
   midi.NoteOnEvent(tick=1, channel=0, data=[77, 81]),
   midi.NoteOnEvent(tick=1, channel=0, data=[73, 72]),
   midi.ControlChangeEvent(tick=20, channel=0, data=[64, 0]),
   midi.NoteOnEvent(tick=25, channel=0, data=[73, 0]),
   midi.NoteOnEvent(tick=3, channel=0, data=[37, 52]),
   midi.NoteOnEvent(tick=1, channel=0, data=[49, 58]),
   midi.ControlChangeEvent(tick=4, channel=0, data=[64, 127]),
   midi.NoteOnEvent(tick=2, channel=0, data=[37, 0]),
   midi.NoteOnEvent(tick=6, channel=0, data=[77, 0]),
   midi.NoteOnEvent(tick=2, channel=0, data=[49, 0]),
   midi.NoteOnEvent(tick=23, channel=0, data=[68, 0]),
   midi.NoteOnEvent(tick=10, channel=0, data=[73, 79]),
   midi.NoteOnEvent(tick=25, channel=0, data=[80, 0]),
   midi.NoteOnEvent(tick=18, channel=0, data=[73, 0]),
   midi.NoteOnEvent(tick=7, channel=0, data=[77, 86]),
   midi.NoteOnEvent(tick=1, channel=0, data=[61, 64]),
   midi.NoteOnEvent(tick=3, channel=0, data=[56, 51]),
   midi.NoteOnEvent(tick=4, channel=0, data=[73, 46]),
   midi.NoteOnEvent(tick=2, channel=0, data=[61, 0]),
   midi.NoteOnEvent(tick=1, channel=0, data=[56, 0]),
   midi.NoteOnEvent(tick=0, channel=0, data=[53, 44]),
   midi.NoteOnEvent(tick=3, channel=0, data=[73, 0]),
   midi.NoteOnEvent(tick=4, channel=0, data=[53, 0]),
   midi.NoteOnEvent(tick=3, channel=0, data=[77, 0]),
   midi.NoteOnEvent(tick=26, channel=0, data=[82, 91]),
   midi.NoteOnEvent(tick=2, channel=0, data=[70, 82]),
   midi.NoteOnEvent(tick=0, channel=0, data=[78, 71]),
   midi.NoteOnEvent(tick=1, channel=0, data=[73, 67]),
   midi.ControlChangeEvent(tick=11, channel=0, data=[64, 40]),
   midi.ControlChangeEvent(tick=4, channel=0, data=[64, 0]),
   midi.NoteOnEvent(tick=19, channel=0, data=[73, 0]),
   midi.NoteOnEvent(tick=5, channel=0, data=[78, 0]),
   midi.NoteOnEvent(tick=12, channel=0, data=[42, 65]),
   midi.NoteOnEvent(tick=1, channel=0, data=[54, 64]),
   midi.ControlChangeEvent(tick=3, channel=0, data=[64, 127]),
   midi.NoteOnEvent(tick=2, channel=0, data=[70, 0]),
   midi.NoteOnEvent(tick=8, channel=0, data=[82, 0]),
   midi.NoteOnEvent(tick=1, channel=0, data=[54, 0]),
   midi.NoteOnEvent(tick=2, channel=0, data=[42, 0]),
   midi.NoteOnEvent(tick=29, channel=0, data=[84, 94]),
   midi.NoteOnEvent(tick=2, channel=0, data=[72, 82]),
   midi.NoteOnEvent(tick=16, channel=0, data=[72, 0]),
   midi.NoteOnEvent(tick=6, channel=0, data=[84, 0]),
   midi.NoteOnEvent(tick=23, channel=0, data=[85, 90]),
   midi.NoteOnEvent(tick=1, channel=0, data=[61, 58]),
   midi.NoteOnEvent(tick=2, channel=0, data=[73, 86]),
   midi.NoteOnEvent(tick=1, channel=0, data=[54, 46]),
   midi.NoteOnEvent(tick=0, channel=0, data=[58, 39]),
   midi.NoteOnEvent(tick=4, channel=0, data=[61, 0]),
   midi.NoteOnEvent(tick=3, channel=0, data=[58, 0]),
   midi.NoteOnEvent(tick=2, channel=0, data=[54, 0]),
   midi.NoteOnEvent(tick=5, channel=0, data=[73, 0]),
   midi.NoteOnEvent(tick=7, channel=0, data=[85, 0]),
   midi.NoteOnEvent(tick=24, channel=0, data=[87, 89]),
   midi.NoteOnEvent(tick=0, channel=0, data=[75, 92]),
   midi.NoteOnEvent(tick=18, channel=0, data=[75, 0]),
   midi.NoteOnEvent(tick=8, channel=0, data=[87, 0]),
   midi.ControlChangeEvent(tick=6, channel=0, data=[64, 24]),
   midi.ControlChangeEvent(tick=4, channel=0, data=[64, 0]),
   midi.NoteOnEvent(tick=11, channel=0, data=[37, 51]),
   midi.NoteOnEvent(tick=1, channel=0, data=[49, 63]),
   midi.NoteOnEvent(tick=3, channel=0, data=[89, 93]),
   midi.ControlChangeEvent(tick=1, channel=0, data=[64, 104]),
   midi.NoteOnEvent(tick=0, channel=0, data=[77, 80]),
   midi.ControlChangeEvent(tick=4, channel=0, data=[64, 127]),
   midi.NoteOnEvent(tick=5, channel=0, data=[37, 0]),
   midi.NoteOnEvent(tick=2, channel=0, data=[49, 0]),
   midi.NoteOnEvent(tick=3, channel=0, data=[77, 0]),
   midi.NoteOnEvent(tick=5, channel=0, data=[89, 0]),
   midi.NoteOnEvent(tick=27, channel=0, data=[92, 96]),
   midi.NoteOnEvent(tick=0, channel=0, data=[80, 86]),
   midi.NoteOnEvent(tick=14, channel=0, data=[80, 0]),
   midi.NoteOnEvent(tick=3, channel=0, data=[92, 0]),
   midi.NoteOnEvent(tick=30, channel=0, data=[61, 57]),
   midi.NoteOnEvent(tick=4, channel=0, data=[89, 93]),
   midi.NoteOnEvent(tick=1, channel=0, data=[77, 88]),
   midi.NoteOnEvent(tick=2, channel=0, data=[56, 35]),
   midi.NoteOnEvent(tick=2, channel=0, data=[53, 32]),
   midi.NoteOnEvent(tick=4, channel=0, data=[61, 0]),
   midi.NoteOnEvent(tick=2, channel=0, data=[56, 0]),
   midi.NoteOnEvent(tick=1, channel=0, data=[77, 0]),
   midi.NoteOnEvent(tick=2, channel=0, data=[89, 0]),
   midi.NoteOnEvent(tick=0, channel=0, data=[53, 0]),
   midi.NoteOnEvent(tick=30, channel=0, data=[87, 89]),
   midi.NoteOnEvent(tick=3, channel=0, data=[75, 89]),
   midi.NoteOnEvent(tick=16, channel=0, data=[75, 0]),
   midi.NoteOnEvent(tick=6, channel=0, data=[87, 0]),
   midi.ControlChangeEvent(tick=15, channel=0, data=[64, 40]),
   midi.ControlChangeEvent(tick=4, channel=0, data=[64, 0]),
   midi.NoteOnEvent(tick=6, channel=0, data=[85, 86]),
   midi.NoteOnEvent(tick=2, channel=0, data=[41, 50]),
   midi.NoteOnEvent(tick=0, channel=0, data=[73, 74]),
   midi.NoteOnEvent(tick=2, channel=0, data=[53, 54]),
   midi.ControlChangeEvent(tick=6, channel=0, data=[64, 127]),
   midi.NoteOnEvent(tick=1, channel=0, data=[41, 0]),
   midi.NoteOnEvent(tick=8, channel=0, data=[73, 0]),
   midi.NoteOnEvent(tick=4, channel=0, data=[85, 0]),
   midi.NoteOnEvent(tick=0, channel=0, data=[53, 0]),
   midi.NoteOnEvent(tick=29, channel=0, data=[82, 80]),
   midi.NoteOnEvent(tick=4, channel=0, data=[70, 70]),
   midi.NoteOnEvent(tick=11, channel=0, data=[70, 0]),
   midi.NoteOnEvent(tick=6, channel=0, data=[82, 0]),
   midi.NoteOnEvent(tick=18, channel=0, data=[61, 50]),
   midi.NoteOnEvent(tick=4, channel=0, data=[56, 39]),
   midi.NoteOnEvent(tick=3, channel=0, data=[80, 88]),
   midi.NoteOnEvent(tick=1, channel=0, data=[53, 42]),
   midi.NoteOnEvent(tick=4, channel=0, data=[56, 0]),
   midi.NoteOnEvent(tick=1, channel=0, data=[61, 0]),
   midi.NoteOnEvent(tick=0, channel=0, data=[68, 53]),
   midi.NoteOnEvent(tick=4, channel=0, data=[53, 0]),
   midi.NoteOnEvent(tick=3, channel=0, data=[68, 0]),
   midi.NoteOnEvent(tick=9, channel=0, data=[80, 0]),
   midi.NoteOnEvent(tick=23, channel=0, data=[77, 88]),
   midi.NoteOnEvent(tick=4, channel=0, data=[65, 60]),
   midi.NoteOnEvent(tick=9, channel=0, data=[65, 0]),
   midi.NoteOnEvent(tick=3, channel=0, data=[77, 0]),
   midi.ControlChangeEvent(tick=21, channel=0, data=[64, 104]),
   midi.ControlChangeEvent(tick=4, channel=0, data=[64, 0]),
   midi.NoteOnEvent(tick=14, channel=0, data=[65, 75]),
   midi.NoteOnEvent(tick=0, channel=0, data=[41, 58]),
   midi.NoteOnEvent(tick=3, channel=0, data=[53, 47]),
   midi.NoteOnEvent(tick=8, channel=0, data=[41, 0]),
   midi.ControlChangeEvent(tick=11, channel=0, data=[64, 127]),
   midi.NoteOnEvent(tick=3, channel=0, data=[53, 0]),
   midi.NoteOnEvent(tick=4, channel=0, data=[65, 0]),
   midi.NoteOnEvent(tick=22, channel=0, data=[77, 74]),
   midi.NoteOnEvent(tick=2, channel=0, data=[72, 60]),
   midi.NoteOnEvent(tick=0, channel=0, data=[69, 57]),
   midi.NoteOnEvent(tick=49, channel=0, data=[63, 55]),
   midi.NoteOnEvent(tick=9, channel=0, data=[69, 0]),
   midi.NoteOnEvent(tick=0, channel=0, data=[77, 0]),
   midi.NoteOnEvent(tick=0, channel=0, data=[57, 32]),
   midi.NoteOnEvent(tick=4, channel=0, data=[72, 0]),
   midi.NoteOnEvent(tick=2, channel=0, data=[63, 0]),
   midi.NoteOnEvent(tick=3, channel=0, data=[57, 0]),
   midi.NoteOnEvent(tick=27, channel=0, data=[65, 77]),
   midi.NoteOnEvent(tick=40, channel=0, data=[65, 0]),
   midi.ControlChangeEvent(tick=4, channel=0, data=[64, 0]),
   midi.NoteOnEvent(tick=7, channel=0, data=[77, 80]),
   midi.NoteOnEvent(tick=3, channel=0, data=[69, 58]),
   midi.NoteOnEvent(tick=1, channel=0, data=[72, 60]),
   midi.NoteOnEvent(tick=3, channel=0, data=[48, 61]),
   midi.NoteOnEvent(tick=2, channel=0, data=[60, 40]),
   midi.NoteOnEvent(tick=5, channel=0, data=[48, 0]),
   midi.NoteOnEvent(tick=8, channel=0, data=[60, 0]),
   midi.ControlChangeEvent(tick=0, channel=0, data=[64, 88]),
   midi.ControlChangeEvent(tick=4, channel=0, data=[64, 127]),
   midi.NoteOnEvent(tick=21, channel=0, data=[69, 0]),
   midi.NoteOnEvent(tick=30, channel=0, data=[72, 0]),
   midi.NoteOnEvent(tick=6, channel=0, data=[77, 0]),
   midi.NoteOnEvent(tick=20, channel=0, data=[63, 49]),
   midi.NoteOnEvent(tick=1, channel=0, data=[65, 70]),
   midi.NoteOnEvent(tick=5, channel=0, data=[57, 47]),
   midi.NoteOnEvent(tick=0, channel=0, data=[60, 42]),
   midi.NoteOnEvent(tick=4, channel=0, data=[63, 0]),
   midi.NoteOnEvent(tick=0, channel=0, data=[53, 28]),
   midi.NoteOnEvent(tick=4, channel=0, data=[60, 0]),
   midi.NoteOnEvent(tick=1, channel=0, data=[57, 0]),
   midi.NoteOnEvent(tick=7, channel=0, data=[53, 0]),
   midi.NoteOnEvent(tick=5, channel=0, data=[65, 0]),
   midi.NoteOnEvent(tick=23, channel=0, data=[77, 80]),
   midi.NoteOnEvent(tick=2, channel=0, data=[73, 54]),
   midi.NoteOnEvent(tick=0, channel=0, data=[65, 36]),
   midi.NoteOnEvent(tick=1, channel=0, data=[70, 53]),
   midi.ControlChangeEvent(tick=19, channel=0, data=[64, 88]),
   midi.ControlChangeEvent(tick=4, channel=0, data=[64, 0]),
   midi.NoteOnEvent(tick=10, channel=0, data=[65, 0]),
   midi.NoteOnEvent(tick=9, channel=0, data=[70, 0]),
   midi.NoteOnEvent(tick=0, channel=0, data=[73, 0]),
   midi.NoteOnEvent(tick=5, channel=0, data=[77, 0]),
   midi.NoteOnEvent(tick=0, channel=0, data=[46, 51]),
   midi.ControlChangeEvent(tick=1, channel=0, data=[64, 127]),
   midi.NoteOnEvent(tick=1, channel=0, data=[58, 31]),
   midi.NoteOnEvent(tick=15, channel=0, data=[46, 0]),
   midi.NoteOnEvent(tick=5, channel=0, data=[58, 0]),
   midi.NoteOnEvent(tick=25, channel=0, data=[81, 80]),
   midi.NoteOnEvent(tick=2, channel=0, data=[69, 66]),
   midi.NoteOnEvent(tick=10, channel=0, data=[69, 0]),
   midi.NoteOnEvent(tick=8, channel=0, data=[81, 0]),
   midi.NoteOnEvent(tick=27, channel=0, data=[61, 40]),
   midi.NoteOnEvent(tick=0, channel=0, data=[82, 88]),
   midi.NoteOnEvent(tick=2, channel=0, data=[58, 38]),
   midi.NoteOnEvent(tick=0, channel=0, data=[70, 80]),
   midi.NoteOnEvent(tick=6, channel=0, data=[53, 34]),
   midi.NoteOnEvent(tick=3, channel=0, data=[58, 0]),
   midi.NoteOnEvent(tick=0, channel=0, data=[61, 0]),
   midi.NoteOnEvent(tick=7, channel=0, data=[53, 0]),
   midi.NoteOnEvent(tick=0, channel=0, data=[70, 0]),
   midi.NoteOnEvent(tick=12, channel=0, data=[82, 0]),
   midi.NoteOnEvent(tick=18, channel=0, data=[84, 96]),
   midi.NoteOnEvent(tick=2, channel=0, data=[72, 84]),
   midi.NoteOnEvent(tick=14, channel=0, data=[72, 0]),
   midi.NoteOnEvent(tick=4, channel=0, data=[84, 0]),
   midi.NoteOnEvent(tick=25, channel=0, data=[85, 88]),
   midi.NoteOnEvent(tick=1, channel=0, data=[46, 58]),
   midi.NoteOnEvent(tick=0, channel=0, data=[58, 55]),
   midi.NoteOnEvent(tick=2, channel=0, data=[73, 84]),
   midi.NoteOnEvent(tick=9, channel=0, data=[58, 0]),
   midi.NoteOnEvent(tick=5, channel=0, data=[73, 0]),
   midi.NoteOnEvent(tick=0, channel=0, data=[46, 0]),
   midi.NoteOnEvent(tick=6, channel=0, data=[85, 0]),
   midi.NoteOnEvent(tick=26, channel=0, data=[87, 94]),
   midi.NoteOnEvent(tick=2, channel=0, data=[75, 92]),
   midi.NoteOnEvent(tick=15, channel=0, data=[75, 0]),
   midi.NoteOnEvent(tick=17, channel=0, data=[87, 0]),
   midi.NoteOnEvent(tick=16, channel=0, data=[89, 97]),
   midi.NoteOnEvent(tick=0, channel=0, data=[56, 65]),
   midi.NoteOnEvent(tick=3, channel=0, data=[77, 73]),
   midi.NoteOnEvent(tick=0, channel=0, data=[44, 52]),
   midi.NoteOnEvent(tick=1, channel=0, data=[83, 79]),
   midi.NoteOnEvent(tick=8, channel=0, data=[44, 0]),
   midi.NoteOnEvent(tick=0, channel=0, data=[56, 0]),
   midi.NoteOnEvent(tick=10, channel=0, data=[77, 0]),
   midi.NoteOnEvent(tick=2, channel=0, data=[83, 0]),
   midi.NoteOnEvent(tick=10, channel=0, data=[89, 0]),
   midi.ControlChangeEvent(tick=31, channel=0, data=[64, 0]),
   midi.NoteOnEvent(tick=35, channel=0, data=[89, 100]),
   midi.NoteOnEvent(tick=3, channel=0, data=[42, 63]),
   midi.NoteOnEvent(tick=1, channel=0, data=[82, 77]),
   midi.NoteOnEvent(tick=0, channel=0, data=[78, 76]),
   midi.NoteOnEvent(tick=0, channel=0, data=[54, 68]),
   midi.NoteOnEvent(tick=15, channel=0, data=[42, 0]),
   midi.NoteOnEvent(tick=1, channel=0, data=[54, 0]),
   midi.ControlChangeEvent(tick=1, channel=0, data=[64, 127]),
   midi.NoteOnEvent(tick=84, channel=0, data=[66, 58]),
   midi.NoteOnEvent(tick=1, channel=0, data=[61, 46]),
   midi.NoteOnEvent(tick=6, channel=0, data=[58, 28]),
   midi.NoteOnEvent(tick=2, channel=0, data=[61, 0]),
   midi.NoteOnEvent(tick=0, channel=0, data=[66, 0]),
   midi.NoteOnEvent(tick=8, channel=0, data=[58, 0]),
   midi.NoteOnEvent(tick=9, channel=0, data=[89, 0]),
   midi.NoteOnEvent(tick=4, channel=0, data=[82, 0]),
   midi.NoteOnEvent(tick=0, channel=0, data=[78, 0]),
   midi.NoteOnEvent(tick=14, channel=0, data=[87, 88]),
   midi.NoteOnEvent(tick=35, channel=0, data=[87, 0]),
   midi.NoteOnEvent(tick=14, channel=0, data=[85, 86]),
   midi.NoteOnEvent(tick=5, channel=0, data=[58, 67]),
   midi.NoteOnEvent(tick=2, channel=0, data=[46, 68]),
   midi.NoteOnEvent(tick=6, channel=0, data=[46, 0]),
   midi.NoteOnEvent(tick=4, channel=0, data=[58, 0]),
   midi.NoteOnEvent(tick=19, channel=0, data=[85, 0]),
   midi.NoteOnEvent(tick=8, channel=0, data=[82, 84]),
   midi.NoteOnEvent(tick=50, channel=0, data=[82, 0]),
   midi.NoteOnEvent(tick=2, channel=0, data=[78, 86]),
   midi.NoteOnEvent(tick=4, channel=0, data=[57, 69]),
   midi.NoteOnEvent(tick=4, channel=0, data=[45, 60]),
   midi.NoteOnEvent(tick=8, channel=0, data=[45, 0]),
   midi.NoteOnEvent(tick=1, channel=0, data=[57, 0]),
   midi.NoteOnEvent(tick=11, channel=0, data=[78, 0]),
   midi.ControlChangeEvent(tick=26, channel=0, data=[64, 24]),
   midi.ControlChangeEvent(tick=4, channel=0, data=[64, 0]),
   midi.NoteOnEvent(tick=45, channel=0, data=[89, 94]),
   midi.NoteOnEvent(tick=3, channel=0, data=[77, 77]),
   midi.NoteOnEvent(tick=0, channel=0, data=[56, 65]),
   midi.NoteOnEvent(tick=0, channel=0, data=[44, 56]),
   midi.NoteOnEvent(tick=1, channel=0, data=[80, 74]),
   midi.ControlChangeEvent(tick=12, channel=0, data=[64, 127]),
   midi.NoteOnEvent(tick=1, channel=0, data=[44, 0]),
   midi.NoteOnEvent(tick=4, channel=0, data=[56, 0]),
   midi.NoteOnEvent(tick=65, channel=0, data=[80, 0]),
   midi.NoteOnEvent(tick=15, channel=0, data=[65, 64]),
   midi.NoteOnEvent(tick=0, channel=0, data=[56, 58]),
   midi.NoteOnEvent(tick=4, channel=0, data=[61, 36]),
   midi.NoteOnEvent(tick=3, channel=0, data=[65, 0]),
   midi.NoteOnEvent(tick=3, channel=0, data=[61, 0]),
   midi.NoteOnEvent(tick=3, channel=0, data=[89, 0]),
   midi.NoteOnEvent(tick=4, channel=0, data=[56, 0]),
   midi.NoteOnEvent(tick=9, channel=0, data=[77, 0]),
   midi.NoteOnEvent(tick=14, channel=0, data=[87, 79]),
   midi.NoteOnEvent(tick=35, channel=0, data=[87, 0]),
   midi.NoteOnEvent(tick=14, channel=0, data=[85, 80]),
   midi.ControlChangeEvent(tick=3, channel=0, data=[64, 24]),
   midi.ControlChangeEvent(tick=4, channel=0, data=[64, 0]),
   midi.NoteOnEvent(tick=2, channel=0, data=[53, 65]),
   midi.NoteOnEvent(tick=0, channel=0, data=[41, 49]),
   midi.NoteOnEvent(tick=10, channel=0, data=[41, 0]),
   midi.NoteOnEvent(tick=9, channel=0, data=[53, 0]),
   midi.ControlChangeEvent(tick=0, channel=0, data=[64, 72]),
   midi.ControlChangeEvent(tick=4, channel=0, data=[64, 127]),
   midi.NoteOnEvent(tick=11, channel=0, data=[85, 0]),
   midi.NoteOnEvent(tick=5, channel=0, data=[80, 80]),
   midi.NoteOnEvent(tick=48, channel=0, data=[77, 81]),
   midi.NoteOnEvent(tick=2, channel=0, data=[80, 0]),
   midi.NoteOnEvent(tick=2, channel=0, data=[56, 57]),
   midi.NoteOnEvent(tick=2, channel=0, data=[44, 55]),
   midi.NoteOnEvent(tick=5, channel=0, data=[56, 0]),
   midi.NoteOnEvent(tick=5, channel=0, data=[77, 0]),
   midi.NoteOnEvent(tick=4, channel=0, data=[44, 0]),
   midi.ControlChangeEvent(tick=37, channel=0, data=[64, 72]),
   midi.ControlChangeEvent(tick=4, channel=0, data=[64, 0]),
   midi.NoteOnEvent(tick=36, channel=0, data=[32, 58]),
   midi.NoteOnEvent(tick=0, channel=0, data=[44, 57]),
   midi.NoteOnEvent(tick=2, channel=0, data=[77, 86]),
   midi.ControlChangeEvent(tick=2, channel=0, data=[64, 72]),
   midi.NoteOnEvent(tick=0, channel=0, data=[66, 58]),
   midi.ControlChangeEvent(tick=4, channel=0, data=[64, 127]),
   midi.NoteOnEvent(tick=1, channel=0, data=[32, 0]),
   midi.NoteOnEvent(tick=1, channel=0, data=[72, 69]),
   midi.NoteOnEvent(tick=4, channel=0, data=[44, 0]),
   midi.NoteOnEvent(tick=19, channel=0, data=[77, 0]),
   midi.NoteOnEvent(tick=10, channel=0, data=[72, 0]),
   midi.NoteOnEvent(tick=6, channel=0, data=[75, 81]),
   midi.NoteOnEvent(tick=11, channel=0, data=[66, 0]),
   midi.ControlChangeEvent(tick=29, channel=0, data=[64, 72]),
   midi.ControlChangeEvent(tick=4, channel=0, data=[64, 40]),
   midi.ControlChangeEvent(tick=4, channel=0, data=[64, 56]),
   midi.NoteOnEvent(tick=3, channel=0, data=[60, 64]),
   midi.NoteOnEvent(tick=0, channel=0, data=[54, 53]),
   midi.ControlChangeEvent(tick=1, channel=0, data=[64, 104]),
   midi.NoteOnEvent(tick=1, channel=0, data=[56, 42]),
   midi.ControlChangeEvent(tick=3, channel=0, data=[64, 127]),
   midi.NoteOnEvent(tick=2, channel=0, data=[60, 0]),
   midi.NoteOnEvent(tick=3, channel=0, data=[56, 0]),
   midi.NoteOnEvent(tick=4, channel=0, data=[54, 0]),
   midi.NoteOnEvent(tick=23, channel=0, data=[75, 0]),
   midi.NoteOnEvent(tick=9, channel=0, data=[66, 80]),
   midi.ControlChangeEvent(tick=36, channel=0, data=[64, 56]),
   midi.ControlChangeEvent(tick=4, channel=0, data=[64, 0]),
   midi.NoteOnEvent(tick=6, channel=0, data=[44, 50]),
   midi.NoteOnEvent(tick=2, channel=0, data=[32, 46]),
   midi.NoteOnEvent(tick=8, channel=0, data=[32, 0]),
   midi.ControlChangeEvent(tick=0, channel=0, data=[64, 40]),
   midi.NoteOnEvent(tick=3, channel=0, data=[44, 0]),
   midi.ControlChangeEvent(tick=1, channel=0, data=[64, 104]),
   midi.ControlChangeEvent(tick=3, channel=0, data=[64, 127]),
   midi.NoteOnEvent(tick=27, channel=0, data=[77, 86]),
   midi.NoteOnEvent(tick=12, channel=0, data=[66, 0]),
   midi.NoteOnEvent(tick=18, channel=0, data=[77, 0]),
   midi.ControlChangeEvent(tick=12, channel=0, data=[64, 56]),
   midi.ControlChangeEvent(tick=4, channel=0, data=[64, 24]),
   midi.NoteOnEvent(tick=2, channel=0, data=[75, 87]),
   midi.ControlChangeEvent(tick=2, channel=0, data=[64, 56]),
   midi.NoteOnEvent(tick=2, channel=0, data=[66, 58]),
   midi.NoteOnEvent(tick=1, channel=0, data=[54, 56]),
   midi.NoteOnEvent(tick=1, channel=0, data=[60, 65]),
   midi.ControlChangeEvent(tick=0, channel=0, data=[64, 104]),
   midi.NoteOnEvent(tick=2, channel=0, data=[56, 38]),
   midi.NoteOnEvent(tick=0, channel=0, data=[72, 63]),
   midi.ControlChangeEvent(tick=2, channel=0, data=[64, 127]),
   midi.NoteOnEvent(tick=2, channel=0, data=[60, 0]),
   midi.NoteOnEvent(tick=2, channel=0, data=[72, 0]),
   midi.NoteOnEvent(tick=2, channel=0, data=[56, 0]),
   midi.NoteOnEvent(tick=6, channel=0, data=[54, 0]),
   midi.NoteOnEvent(tick=2, channel=0, data=[66, 0]),
   midi.NoteOnEvent(tick=4, channel=0, data=[75, 0]),
   midi.ControlChangeEvent(tick=31, channel=0, data=[64, 40]),
   midi.ControlChangeEvent(tick=4, channel=0, data=[64, 0]),
   midi.ControlChangeEvent(tick=32, channel=0, data=[64, 72]),
   midi.ControlChangeEvent(tick=4, channel=0, data=[64, 127]),
   midi.NoteOnEvent(tick=1, channel=0, data=[73, 85]),
   midi.NoteOnEvent(tick=1, channel=0, data=[49, 72]),
   midi.NoteOnEvent(tick=1, channel=0, data=[37, 61]),
   midi.NoteOnEvent(tick=1, channel=0, data=[68, 64]),
   midi.NoteOnEvent(tick=1, channel=0, data=[65, 69]),
   midi.NoteOnEvent(tick=8, channel=0, data=[49, 0]),
   midi.NoteOnEvent(tick=2, channel=0, data=[37, 0]),
   midi.ControlChangeEvent(tick=14, channel=0, data=[64, 104]),
   midi.ControlChangeEvent(tick=4, channel=0, data=[64, 24]),
   midi.ControlChangeEvent(tick=4, channel=0, data=[64, 0]),
   midi.NoteOnEvent(tick=68, channel=0, data=[61, 89]),
   midi.NoteOnEvent(tick=1, channel=0, data=[49, 80]),
   midi.ControlChangeEvent(tick=3, channel=0, data=[64, 72]),
   midi.ControlChangeEvent(tick=4, channel=0, data=[64, 127]),
   midi.NoteOnEvent(tick=7, channel=0, data=[61, 0]),
   midi.NoteOnEvent(tick=1, channel=0, data=[49, 0]),
   midi.ControlChangeEvent(tick=4, channel=0, data=[64, 56]),
   midi.ControlChangeEvent(tick=4, channel=0, data=[64, 0]),
   midi.ControlChangeEvent(tick=57, channel=0, data=[64, 56]),
   midi.NoteOnEvent(tick=2, channel=0, data=[65, 0]),
   midi.ControlChangeEvent(tick=2, channel=0, data=[64, 104]),
   midi.NoteOnEvent(tick=2, channel=0, data=[68, 0]),
   midi.ControlChangeEvent(tick=2, channel=0, data=[64, 127]),
   midi.NoteOnEvent(tick=8, channel=0, data=[73, 0]),
   midi.NoteOnEvent(tick=1, channel=0, data=[60, 92]),
   midi.NoteOnEvent(tick=2, channel=0, data=[48, 82]),
   midi.NoteOnEvent(tick=16, channel=0, data=[48, 0]),
   midi.NoteOnEvent(tick=0, channel=0, data=[60, 0]),
   midi.ControlChangeEvent(tick=21, channel=0, data=[64, 88]),
   midi.ControlChangeEvent(tick=4, channel=0, data=[64, 56]),
   midi.ControlChangeEvent(tick=4, channel=0, data=[64, 0]),
   midi.ControlChangeEvent(tick=41, channel=0, data=[64, 56]),
   midi.ControlChangeEvent(tick=4, channel=0, data=[64, 127]),
   midi.NoteOnEvent(tick=2, channel=0, data=[85, 95]),
   midi.NoteOnEvent(tick=2, channel=0, data=[73, 78]),
   midi.NoteOnEvent(tick=1, channel=0, data=[80, 81]),
   midi.NoteOnEvent(tick=1, channel=0, data=[59, 81]),
   midi.NoteOnEvent(tick=2, channel=0, data=[77, 80]),
   midi.NoteOnEvent(tick=0, channel=0, data=[47, 76]),
   midi.NoteOnEvent(tick=7, channel=0, data=[47, 0]),
   midi.NoteOnEvent(tick=0, channel=0, data=[77, 0]),
   midi.NoteOnEvent(tick=7, channel=0, data=[59, 0]),
   midi.NoteOnEvent(tick=11, channel=0, data=[80, 0]),
   midi.NoteOnEvent(tick=3, channel=0, data=[73, 0]),
   midi.NoteOnEvent(tick=1, channel=0, data=[85, 0]),
   midi.ControlChangeEvent(tick=3, channel=0, data=[64, 72]),
   midi.ControlChangeEvent(tick=4, channel=0, data=[64, 0]),
   midi.NoteOnEvent(tick=8, channel=0, data=[73, 15]),
   midi.NoteOnEvent(tick=19, channel=0, data=[73, 0]),
   midi.NoteOnEvent(tick=29, channel=0, data=[46, 68]),
   midi.NoteOnEvent(tick=1, channel=0, data=[85, 95]),
   midi.NoteOnEvent(tick=1, channel=0, data=[58, 58]),
   midi.NoteOnEvent(tick=14, channel=0, data=[46, 0]),
   midi.ControlChangeEvent(tick=1, channel=0, data=[64, 88]),
   midi.NoteOnEvent(tick=1, channel=0, data=[58, 0]),
   midi.ControlChangeEvent(tick=3, channel=0, data=[64, 127]),
   midi.NoteOnEvent(tick=17, channel=0, data=[85, 0]),
   midi.NoteOnEvent(tick=10, channel=0, data=[82, 80]),
   midi.NoteOnEvent(tick=1, channel=0, data=[73, 73]),
   midi.NoteOnEvent(tick=1, channel=0, data=[78, 65]),
   midi.NoteOnEvent(tick=45, channel=0, data=[66, 60]),
   midi.NoteOnEvent(tick=4, channel=0, data=[61, 42]),
   midi.NoteOnEvent(tick=3, channel=0, data=[58, 32]),
   midi.NoteOnEvent(tick=2, channel=0, data=[66, 0]),
   midi.NoteOnEvent(tick=3, channel=0, data=[61, 0]),
   midi.NoteOnEvent(tick=3, channel=0, data=[58, 0]),
   midi.NoteOnEvent(tick=4, channel=0, data=[73, 0]),
   midi.NoteOnEvent(tick=8, channel=0, data=[82, 0]),
   midi.NoteOnEvent(tick=4, channel=0, data=[78, 0]),
   midi.NoteOnEvent(tick=15, channel=0, data=[85, 94]),
   midi.NoteOnEvent(tick=35, channel=0, data=[85, 0]),
   midi.ControlChangeEvent(tick=2, channel=0, data=[64, 40]),
   midi.ControlChangeEvent(tick=4, channel=0, data=[64, 0]),
   midi.NoteOnEvent(tick=10, channel=0, data=[82, 80]),
   midi.NoteOnEvent(tick=0, channel=0, data=[75, 79]),
   midi.NoteOnEvent(tick=1, channel=0, data=[54, 70]),
   midi.NoteOnEvent(tick=1, channel=0, data=[78, 68]),
   midi.NoteOnEvent(tick=0, channel=0, data=[42, 63]),
   midi.ControlChangeEvent(tick=7, channel=0, data=[64, 104]),
   midi.ControlChangeEvent(tick=4, channel=0, data=[64, 127]),
   midi.NoteOnEvent(tick=2, channel=0, data=[42, 0]),
   midi.NoteOnEvent(tick=2, channel=0, data=[54, 0]),
   midi.NoteOnEvent(tick=37, channel=0, data=[82, 0]),
   midi.NoteOnEvent(tick=4, channel=0, data=[75, 0]),
   midi.NoteOnEvent(tick=6, channel=0, data=[78, 0]),
   midi.NoteOnEvent(tick=33, channel=0, data=[85, 86]),
   midi.NoteOnEvent(tick=1, channel=0, data=[57, 61]),
   midi.NoteOnEvent(tick=13, channel=0, data=[57, 0]),
   midi.NoteOnEvent(tick=17, channel=0, data=[85, 0]),
   midi.NoteOnEvent(tick=16, channel=0, data=[82, 81]),
   midi.NoteOnEvent(tick=1, channel=0, data=[77, 78]),
   midi.NoteOnEvent(tick=2, channel=0, data=[78, 60]),
   midi.ControlChangeEvent(tick=12, channel=0, data=[64, 56]),
   midi.ControlChangeEvent(tick=4, channel=0, data=[64, 0]),
   midi.NoteOnEvent(tick=29, channel=0, data=[46, 60]),
   midi.NoteOnEvent(tick=2, channel=0, data=[58, 51]),
   midi.ControlChangeEvent(tick=6, channel=0, data=[64, 127]),
   midi.NoteOnEvent(tick=3, channel=0, data=[77, 0]),
   midi.NoteOnEvent(tick=2, channel=0, data=[46, 0]),
   midi.NoteOnEvent(tick=6, channel=0, data=[58, 0]),
   midi.NoteOnEvent(tick=17, channel=0, data=[78, 0]),
   midi.NoteOnEvent(tick=1, channel=0, data=[82, 0]),
   midi.NoteOnEvent(tick=9, channel=0, data=[85, 87]),
   midi.NoteOnEvent(tick=31, channel=0, data=[85, 0]),
   midi.NoteOnEvent(tick=17, channel=0, data=[82, 78]),
   midi.NoteOnEvent(tick=1, channel=0, data=[66, 64]),
   midi.NoteOnEvent(tick=0, channel=0, data=[75, 67]),
   midi.NoteOnEvent(tick=1, channel=0, data=[78, 70]),
   midi.NoteOnEvent(tick=2, channel=0, data=[58, 46]),
   midi.NoteOnEvent(tick=2, channel=0, data=[61, 44]),
   midi.NoteOnEvent(tick=6, channel=0, data=[61, 0]),
   midi.NoteOnEvent(tick=2, channel=0, data=[66, 0]),
   midi.NoteOnEvent(tick=6, channel=0, data=[58, 0]),
   midi.NoteOnEvent(tick=3, channel=0, data=[75, 0]),
   midi.NoteOnEvent(tick=4, channel=0, data=[78, 0]),
   midi.ControlChangeEvent(tick=0, channel=0, data=[64, 88]),
   midi.ControlChangeEvent(tick=4, channel=0, data=[64, 56]),
   midi.NoteOnEvent(tick=2, channel=0, data=[82, 0]),
   midi.ControlChangeEvent(tick=2, channel=0, data=[64, 0]),
   midi.NoteOnEvent(tick=67, channel=0, data=[85, 89]),
   midi.ControlChangeEvent(tick=1, channel=0, data=[64, 88]),
   midi.NoteOnEvent(tick=1, channel=0, data=[73, 77]),
   midi.NoteOnEvent(tick=1, channel=0, data=[82, 72]),
   midi.NoteOnEvent(tick=1, channel=0, data=[78, 68]),
   midi.NoteOnEvent(tick=0, channel=0, data=[58, 67]),
   midi.ControlChangeEvent(tick=2, channel=0, data=[64, 127]),
   midi.NoteOnEvent(tick=0, channel=0, data=[46, 59]),
   midi.NoteOnEvent(tick=18, channel=0, data=[58, 0]),
   midi.NoteOnEvent(tick=0, channel=0, data=[78, 0]),
   midi.NoteOnEvent(tick=2, channel=0, data=[82, 0]),
   midi.NoteOnEvent(tick=0, channel=0, data=[85, 0]),
   midi.NoteOnEvent(tick=0, channel=0, data=[46, 0]),
   midi.NoteOnEvent(tick=0, channel=0, data=[73, 0]),
   midi.ControlChangeEvent(tick=35, channel=0, data=[64, 24]),
   midi.ControlChangeEvent(tick=5, channel=0, data=[64, 0]),
   midi.NoteOnEvent(tick=31, channel=0, data=[82, 87]),
   midi.ControlChangeEvent(tick=1, channel=0, data=[64, 72]),
   midi.NoteOnEvent(tick=2, channel=0, data=[70, 67]),
   midi.NoteOnEvent(tick=0, channel=0, data=[78, 65]),
   midi.NoteOnEvent(tick=1, channel=0, data=[73, 63]),
   midi.ControlChangeEvent(tick=1, channel=0, data=[64, 127]),
   midi.NoteOnEvent(tick=2, channel=0, data=[54, 63]),
   midi.NoteOnEvent(tick=1, channel=0, data=[42, 51]),
   midi.NoteOnEvent(tick=16, channel=0, data=[54, 0]),
   midi.NoteOnEvent(tick=2, channel=0, data=[78, 0]),
   midi.NoteOnEvent(tick=0, channel=0, data=[82, 0]),
   midi.NoteOnEvent(tick=2, channel=0, data=[42, 0]),
   midi.NoteOnEvent(tick=1, channel=0, data=[73, 0]),
   midi.NoteOnEvent(tick=4, channel=0, data=[70, 0]),
   midi.ControlChangeEvent(tick=20, channel=0, data=[64, 88]),
   midi.ControlChangeEvent(tick=4, channel=0, data=[64, 0]),
   midi.NoteOnEvent(tick=45, channel=0, data=[80, 90]),
   midi.NoteOnEvent(tick=3, channel=0, data=[41, 61]),
   midi.NoteOnEvent(tick=2, channel=0, data=[53, 57]),
   midi.NoteOnEvent(tick=6, channel=0, data=[41, 0]),
   midi.ControlChangeEvent(tick=1, channel=0, data=[64, 72]),
   midi.ControlChangeEvent(tick=4, channel=0, data=[64, 127]),
   midi.NoteOnEvent(tick=7, channel=0, data=[53, 0]),
   midi.NoteOnEvent(tick=11, channel=0, data=[80, 0]),
   midi.NoteOnEvent(tick=17, channel=0, data=[68, 73]),
   midi.NoteOnEvent(tick=1, channel=0, data=[77, 86]),
   midi.NoteOnEvent(tick=2, channel=0, data=[73, 63]),
   midi.NoteOnEvent(tick=46, channel=0, data=[65, 64]),
   midi.NoteOnEvent(tick=0, channel=0, data=[56, 52]),
   midi.NoteOnEvent(tick=2, channel=0, data=[61, 40]),
   midi.NoteOnEvent(tick=2, channel=0, data=[68, 0]),
   midi.NoteOnEvent(tick=6, channel=0, data=[61, 0]),
   midi.NoteOnEvent(tick=4, channel=0, data=[65, 0]),
   midi.NoteOnEvent(tick=3, channel=0, data=[56, 0]),
   midi.NoteOnEvent(tick=5, channel=0, data=[77, 0]),
   midi.NoteOnEvent(tick=2, channel=0, data=[73, 0]),
   midi.NoteOnEvent(tick=19, channel=0, data=[80, 92]),
   midi.ControlChangeEvent(tick=26, channel=0, data=[64, 0]),
   midi.NoteOnEvent(tick=9, channel=0, data=[80, 0]),
   midi.NoteOnEvent(tick=12, channel=0, data=[70, 92]),
   midi.NoteOnEvent(tick=3, channel=0, data=[65, 54]),
   midi.ControlChangeEvent(tick=1, channel=0, data=[64, 127]),
   midi.NoteOnEvent(tick=1, channel=0, data=[77, 84]),
   midi.NoteOnEvent(tick=0, channel=0, data=[73, 65]),
   midi.NoteOnEvent(tick=0, channel=0, data=[56, 44]),
   midi.NoteOnEvent(tick=1, channel=0, data=[61, 42]),
   midi.NoteOnEvent(tick=5, channel=0, data=[65, 0]),
   midi.NoteOnEvent(tick=4, channel=0, data=[61, 0]),
   midi.NoteOnEvent(tick=7, channel=0, data=[56, 0]),
   midi.NoteOnEvent(tick=44, channel=0, data=[77, 0]),
   midi.NoteOnEvent(tick=14, channel=0, data=[70, 0]),
   midi.NoteOnEvent(tick=8, channel=0, data=[73, 0]),
   midi.NoteOnEvent(tick=6, channel=0, data=[44, 57]),
   midi.NoteOnEvent(tick=2, channel=0, data=[80, 85]),
   midi.NoteOnEvent(tick=0, channel=0, data=[32, 49]),
   midi.NoteOnEvent(tick=8, channel=0, data=[32, 0]),
   midi.NoteOnEvent(tick=2, channel=0, data=[44, 0]),
   midi.NoteOnEvent(tick=23, channel=0, data=[80, 0]),
   midi.NoteOnEvent(tick=14, channel=0, data=[72, 87]),
   midi.NoteOnEvent(tick=5, channel=0, data=[77, 80]),
   midi.NoteOnEvent(tick=2, channel=0, data=[73, 61]),
   midi.ControlChangeEvent(tick=7, channel=0, data=[64, 40]),
   midi.ControlChangeEvent(tick=4, channel=0, data=[64, 0]),
   midi.ControlChangeEvent(tick=32, channel=0, data=[64, 88]),
   midi.ControlChangeEvent(tick=3, channel=0, data=[64, 127]),
   midi.NoteOnEvent(tick=2, channel=0, data=[49, 46]),
   midi.NoteOnEvent(tick=0, channel=0, data=[37, 38]),
   midi.NoteOnEvent(tick=8, channel=0, data=[37, 0]),
   midi.NoteOnEvent(tick=5, channel=0, data=[49, 0]),
   midi.NoteOnEvent(tick=11, channel=0, data=[72, 0]),
   midi.NoteOnEvent(tick=10, channel=0, data=[77, 0]),
   midi.NoteOnEvent(tick=3, channel=0, data=[73, 0]),
   midi.NoteOnEvent(tick=4, channel=0, data=[80, 82]),
   midi.NoteOnEvent(tick=36, channel=0, data=[80, 0]),
   midi.NoteOnEvent(tick=13, channel=0, data=[70, 73]),
   midi.NoteOnEvent(tick=0, channel=0, data=[77, 86]),
   midi.NoteOnEvent(tick=1, channel=0, data=[73, 68]),
   midi.NoteOnEvent(tick=1, channel=0, data=[65, 69]),
   midi.NoteOnEvent(tick=2, channel=0, data=[56, 57]),
   midi.NoteOnEvent(tick=3, channel=0, data=[61, 48]),
   midi.NoteOnEvent(tick=4, channel=0, data=[65, 0]),
   midi.NoteOnEvent(tick=2, channel=0, data=[61, 0]),
   midi.NoteOnEvent(tick=4, channel=0, data=[70, 0]),
   midi.NoteOnEvent(tick=3, channel=0, data=[56, 0]),
   midi.NoteOnEvent(tick=1, channel=0, data=[73, 0]),
   midi.NoteOnEvent(tick=7, channel=0, data=[77, 0]),
   midi.ControlChangeEvent(tick=6, channel=0, data=[64, 104]),
   midi.ControlChangeEvent(tick=4, channel=0, data=[64, 56]),
   midi.ControlChangeEvent(tick=4, channel=0, data=[64, 0]),
   midi.ControlChangeEvent(tick=45, channel=0, data=[64, 56]),
   midi.ControlChangeEvent(tick=4, channel=0, data=[64, 127]),
   midi.NoteOnEvent(tick=6, channel=0, data=[80, 89]),
   midi.NoteOnEvent(tick=3, channel=0, data=[68, 68]),
   midi.NoteOnEvent(tick=2, channel=0, data=[77, 73]),
   midi.NoteOnEvent(tick=0, channel=0, data=[73, 64]),
   midi.NoteOnEvent(tick=1, channel=0, data=[41, 66]),
   midi.NoteOnEvent(tick=1, channel=0, data=[53, 65]),
   midi.NoteOnEvent(tick=10, channel=0, data=[53, 0]),
   midi.NoteOnEvent(tick=3, channel=0, data=[68, 0]),
   midi.NoteOnEvent(tick=2, channel=0, data=[41, 0]),
   midi.NoteOnEvent(tick=1, channel=0, data=[73, 0]),
   midi.NoteOnEvent(tick=1, channel=0, data=[77, 0]),
   midi.NoteOnEvent(tick=4, channel=0, data=[80, 0]),
   midi.ControlChangeEvent(tick=21, channel=0, data=[64, 72]),
   midi.ControlChangeEvent(tick=5, channel=0, data=[64, 0]),
   midi.NoteOnEvent(tick=1, channel=0, data=[78, 38]),
   midi.NoteOnEvent(tick=9, channel=0, data=[78, 0]),
   midi.ControlChangeEvent(tick=30, channel=0, data=[64, 40]),
   midi.NoteOnEvent(tick=2, channel=0, data=[79, 89]),
   midi.NoteOnEvent(tick=2, channel=0, data=[70, 61]),
   midi.ControlChangeEvent(tick=0, channel=0, data=[64, 104]),
   midi.NoteOnEvent(tick=1, channel=0, data=[73, 65]),
   midi.NoteOnEvent(tick=1, channel=0, data=[67, 66]),
   midi.ControlChangeEvent(tick=2, channel=0, data=[64, 127]),
   midi.NoteOnEvent(tick=2, channel=0, data=[52, 64]),
   midi.NoteOnEvent(tick=1, channel=0, data=[40, 56]),
   midi.NoteOnEvent(tick=8, channel=0, data=[40, 0]),
   midi.NoteOnEvent(tick=0, channel=0, data=[52, 0]),
   midi.NoteOnEvent(tick=4, channel=0, data=[67, 0]),
   midi.NoteOnEvent(tick=3, channel=0, data=[79, 0]),
   midi.NoteOnEvent(tick=2, channel=0, data=[70, 0]),
   midi.NoteOnEvent(tick=3, channel=0, data=[73, 0]),
   midi.ControlChangeEvent(tick=21, channel=0, data=[64, 104]),
   midi.ControlChangeEvent(tick=5, channel=0, data=[64, 40]),
   midi.ControlChangeEvent(tick=4, channel=0, data=[64, 0]),
   midi.NoteOnEvent(tick=38, channel=0, data=[78, 89]),
   midi.NoteOnEvent(tick=2, channel=0, data=[39, 59]),
   midi.NoteOnEvent(tick=3, channel=0, data=[51, 56]),
   midi.ControlChangeEvent(tick=2, channel=0, data=[64, 104]),
   midi.ControlChangeEvent(tick=4, channel=0, data=[64, 127]),
   midi.NoteOnEvent(tick=6, channel=0, data=[39, 0]),
   midi.NoteOnEvent(tick=4, channel=0, data=[51, 0]),
   midi.NoteOnEvent(tick=19, channel=0, data=[78, 0]),
   midi.NoteOnEvent(tick=13, channel=0, data=[75, 78]),
   midi.NoteOnEvent(tick=1, channel=0, data=[66, 65]),
   midi.NoteOnEvent(tick=5, channel=0, data=[72, 69]),
   midi.NoteOnEvent(tick=41, channel=0, data=[63, 46]),
   midi.NoteOnEvent(tick=4, channel=0, data=[60, 46]),
   midi.NoteOnEvent(tick=0, channel=0, data=[56, 46]),
   midi.NoteOnEvent(tick=4, channel=0, data=[63, 0]),
   midi.NoteOnEvent(tick=3, channel=0, data=[60, 0]),
   midi.NoteOnEvent(tick=3, channel=0, data=[66, 0]),
   midi.NoteOnEvent(tick=2, channel=0, data=[56, 0]),
   midi.NoteOnEvent(tick=15, channel=0, data=[72, 0]),
   midi.NoteOnEvent(tick=4, channel=0, data=[75, 0]),
   midi.NoteOnEvent(tick=8, channel=0, data=[78, 80]),
   midi.NoteOnEvent(tick=13, channel=0, data=[44, 37]),
   midi.NoteOnEvent(tick=8, channel=0, data=[44, 0]),
   midi.ControlChangeEvent(tick=12, channel=0, data=[64, 0]),
   midi.NoteOnEvent(tick=5, channel=0, data=[78, 0]),
   midi.NoteOnEvent(tick=11, channel=0, data=[75, 79]),
   midi.NoteOnEvent(tick=1, channel=0, data=[68, 71]),
   midi.NoteOnEvent(tick=2, channel=0, data=[32, 64]),
   midi.NoteOnEvent(tick=0, channel=0, data=[72, 77]),
   midi.NoteOnEvent(tick=1, channel=0, data=[44, 66]),
   midi.NoteOnEvent(tick=5, channel=0, data=[32, 0]),
   midi.ControlChangeEvent(tick=3, channel=0, data=[64, 72]),
   midi.NoteOnEvent(tick=1, channel=0, data=[44, 0]),
   midi.ControlChangeEvent(tick=3, channel=0, data=[64, 127]),
   midi.NoteOnEvent(tick=47, channel=0, data=[68, 0]),
   midi.NoteOnEvent(tick=1, channel=0, data=[75, 0]),
   midi.NoteOnEvent(tick=0, channel=0, data=[72, 0]),
   midi.NoteOnEvent(tick=30, channel=0, data=[78, 87]),
   midi.NoteOnEvent(tick=2, channel=0, data=[50, 66]),
   midi.NoteOnEvent(tick=10, channel=0, data=[50, 0]),
   midi.NoteOnEvent(tick=21, channel=0, data=[78, 0]),
   midi.ControlChangeEvent(tick=14, channel=0, data=[64, 56]),
   midi.NoteOnEvent(tick=2, channel=0, data=[75, 76]),
   midi.NoteOnEvent(tick=1, channel=0, data=[70, 68]),
   midi.ControlChangeEvent(tick=0, channel=0, data=[64, 0]),
   midi.NoteOnEvent(tick=2, channel=0, data=[72, 79]),
   midi.NoteOnEvent(tick=37, channel=0, data=[39, 45]),
   midi.NoteOnEvent(tick=2, channel=0, data=[51, 52]),
   midi.ControlChangeEvent(tick=4, channel=0, data=[64, 127]),
   midi.NoteOnEvent(tick=6, channel=0, data=[39, 0]),
   midi.NoteOnEvent(tick=3, channel=0, data=[51, 0]),
   midi.NoteOnEvent(tick=22, channel=0, data=[72, 0]),
   midi.NoteOnEvent(tick=6, channel=0, data=[70, 0]),
   midi.NoteOnEvent(tick=3, channel=0, data=[75, 0]),
   midi.NoteOnEvent(tick=6, channel=0, data=[78, 80]),
   midi.NoteOnEvent(tick=36, channel=0, data=[78, 0]),
   midi.NoteOnEvent(tick=9, channel=0, data=[63, 60]),
   midi.NoteOnEvent(tick=2, channel=0, data=[75, 80]),
   midi.NoteOnEvent(tick=2, channel=0, data=[60, 57]),
   midi.NoteOnEvent(tick=1, channel=0, data=[68, 59]),
   midi.NoteOnEvent(tick=0, channel=0, data=[56, 47]),
   midi.NoteOnEvent(tick=1, channel=0, data=[72, 74]),
   midi.NoteOnEvent(tick=5, channel=0, data=[60, 0]),
   midi.NoteOnEvent(tick=4, channel=0, data=[63, 0]),
   midi.NoteOnEvent(tick=6, channel=0, data=[56, 0]),
   midi.NoteOnEvent(tick=2, channel=0, data=[68, 0]),
   midi.NoteOnEvent(tick=6, channel=0, data=[72, 0]),
   midi.NoteOnEvent(tick=9, channel=0, data=[75, 0]),
   midi.ControlChangeEvent(tick=17, channel=0, data=[64, 88]),
   midi.ControlChangeEvent(tick=3, channel=0, data=[64, 0]),
   midi.ControlChangeEvent(tick=37, channel=0, data=[64, 88]),
   midi.NoteOnEvent(tick=2, channel=0, data=[80, 93]),
   midi.NoteOnEvent(tick=0, channel=0, data=[68, 72]),
   midi.NoteOnEvent(tick=1, channel=0, data=[75, 76]),
   midi.ControlChangeEvent(tick=1, channel=0, data=[64, 127]),
   midi.NoteOnEvent(tick=2, channel=0, data=[72, 74]),
   midi.NoteOnEvent(tick=2, channel=0, data=[56, 74]),
   midi.NoteOnEvent(tick=2, channel=0, data=[44, 59]),
   midi.NoteOnEvent(tick=4, channel=0, data=[72, 0]),
   midi.NoteOnEvent(tick=5, channel=0, data=[68, 0]),
   midi.NoteOnEvent(tick=3, channel=0, data=[56, 0]),
   midi.NoteOnEvent(tick=4, channel=0, data=[75, 0]),
   midi.NoteOnEvent(tick=2, channel=0, data=[44, 0]),
   midi.NoteOnEvent(tick=3, channel=0, data=[80, 0]),
   midi.ControlChangeEvent(tick=50, channel=0, data=[64, 88]),
   midi.ControlChangeEvent(tick=4, channel=0, data=[64, 0]),
   midi.NoteOnEvent(tick=18, channel=0, data=[87, 99]),
   midi.NoteOnEvent(tick=1, channel=0, data=[75, 87]),
   midi.NoteOnEvent(tick=2, channel=0, data=[84, 84]),
   midi.NoteOnEvent(tick=0, channel=0, data=[80, 74]),
   midi.NoteOnEvent(tick=2, channel=0, data=[54, 70]),
   midi.NoteOnEvent(tick=1, channel=0, data=[42, 68]),
   midi.ControlChangeEvent(tick=3, channel=0, data=[64, 88]),
   midi.ControlChangeEvent(tick=5, channel=0, data=[64, 127]),
   midi.NoteOnEvent(tick=1, channel=0, data=[80, 0]),
   midi.NoteOnEvent(tick=2, channel=0, data=[75, 0]),
   midi.NoteOnEvent(tick=2, channel=0, data=[54, 0]),
   midi.NoteOnEvent(tick=1, channel=0, data=[42, 0]),
   midi.NoteOnEvent(tick=3, channel=0, data=[84, 0]),
   midi.NoteOnEvent(tick=3, channel=0, data=[87, 0]),
   midi.ControlChangeEvent(tick=69, channel=0, data=[64, 0]),
   midi.NoteOnEvent(tick=6, channel=0, data=[87, 89]),
   midi.NoteOnEvent(tick=2, channel=0, data=[75, 82]),
   midi.NoteOnEvent(tick=1, channel=0, data=[80, 78]),
   midi.NoteOnEvent(tick=6, channel=0, data=[41, 57]),
   midi.NoteOnEvent(tick=0, channel=0, data=[53, 58]),
   midi.NoteOnEvent(tick=7, channel=0, data=[41, 0]),
   midi.NoteOnEvent(tick=6, channel=0, data=[75, 0]),
   midi.ControlChangeEvent(tick=0, channel=0, data=[64, 127]),
   midi.NoteOnEvent(tick=4, channel=0, data=[53, 0]),
   midi.NoteOnEvent(tick=0, channel=0, data=[80, 0]),
   midi.NoteOnEvent(tick=2, channel=0, data=[87, 0]),
   midi.NoteOnEvent(tick=23, channel=0, data=[85, 90]),
   midi.NoteOnEvent(tick=4, channel=0, data=[80, 78]),
   midi.NoteOnEvent(tick=0, channel=0, data=[73, 77]),
   midi.NoteOnEvent(tick=35, channel=0, data=[80, 0]),
   midi.NoteOnEvent(tick=4, channel=0, data=[85, 0]),
   midi.NoteOnEvent(tick=3, channel=0, data=[73, 0]),
   midi.NoteOnEvent(tick=6, channel=0, data=[56, 58]),
   midi.NoteOnEvent(tick=1, channel=0, data=[65, 65]),
   midi.NoteOnEvent(tick=1, channel=0, data=[61, 51]),
   midi.NoteOnEvent(tick=8, channel=0, data=[61, 0]),
   midi.NoteOnEvent(tick=0, channel=0, data=[65, 0]),
   midi.NoteOnEvent(tick=0, channel=0, data=[56, 0]),
   midi.NoteOnEvent(tick=37, channel=0, data=[84, 90]),
   midi.NoteOnEvent(tick=2, channel=0, data=[73, 60]),
   midi.NoteOnEvent(tick=2, channel=0, data=[76, 73]),
   midi.ControlChangeEvent(tick=9, channel=0, data=[64, 104]),
   midi.ControlChangeEvent(tick=4, channel=0, data=[64, 0]),
   midi.NoteOnEvent(tick=30, channel=0, data=[55, 76]),
   midi.ControlChangeEvent(tick=7, channel=0, data=[64, 56]),
   midi.ControlChangeEvent(tick=4, channel=0, data=[64, 127]),
   midi.NoteOnEvent(tick=13, channel=0, data=[55, 0]),
   midi.NoteOnEvent(tick=13, channel=0, data=[76, 0]),
   midi.NoteOnEvent(tick=2, channel=0, data=[84, 0]),
   midi.NoteOnEvent(tick=3, channel=0, data=[58, 64]),
   midi.NoteOnEvent(tick=6, channel=0, data=[73, 0]),
   midi.NoteOnEvent(tick=28, channel=0, data=[58, 0]),
   midi.NoteOnEvent(tick=14, channel=0, data=[82, 85]),
   midi.NoteOnEvent(tick=2, channel=0, data=[61, 61]),
   midi.NoteOnEvent(tick=1, channel=0, data=[73, 70]),
   midi.NoteOnEvent(tick=3, channel=0, data=[76, 71]),
   midi.NoteOnEvent(tick=6, channel=0, data=[76, 0]),
   midi.NoteOnEvent(tick=18, channel=0, data=[73, 0]),
   midi.NoteOnEvent(tick=1, channel=0, data=[82, 0]),
   midi.NoteOnEvent(tick=8, channel=0, data=[61, 0]),
   midi.NoteOnEvent(tick=12, channel=0, data=[64, 69]),
   midi.NoteOnEvent(tick=23, channel=0, data=[64, 0]),
   midi.ControlChangeEvent(tick=8, channel=0, data=[64, 56]),
   midi.ControlChangeEvent(tick=4, channel=0, data=[64, 0]),
   midi.NoteOnEvent(tick=11, channel=0, data=[80, 90]),
   midi.NoteOnEvent(tick=5, channel=0, data=[65, 71]),
   midi.NoteOnEvent(tick=1, channel=0, data=[77, 70]),
   midi.NoteOnEvent(tick=0, channel=0, data=[73, 59]),
   midi.NoteOnEvent(tick=15, channel=0, data=[65, 0]),
   midi.ControlChangeEvent(tick=0, channel=0, data=[64, 104]),
   midi.ControlChangeEvent(tick=4, channel=0, data=[64, 127]),
   midi.ControlChangeEvent(tick=69, channel=0, data=[64, 40]),
   midi.ControlChangeEvent(tick=4, channel=0, data=[64, 0]),
   midi.NoteOnEvent(tick=7, channel=0, data=[61, 74]),
   midi.NoteOnEvent(tick=0, channel=0, data=[49, 71]),
   midi.NoteOnEvent(tick=13, channel=0, data=[49, 0]),
   midi.ControlChangeEvent(tick=0, channel=0, data=[64, 56]),
   midi.NoteOnEvent(tick=1, channel=0, data=[61, 0]),
   midi.ControlChangeEvent(tick=3, channel=0, data=[64, 127]),
   midi.ControlChangeEvent(tick=35, channel=0, data=[64, 40]),
   midi.ControlChangeEvent(tick=5, channel=0, data=[64, 0]),
   midi.ControlChangeEvent(tick=32, channel=0, data=[64, 88]),
   midi.ControlChangeEvent(tick=4, channel=0, data=[64, 127]),
   midi.NoteOnEvent(tick=6, channel=0, data=[60, 87]),
   midi.NoteOnEvent(tick=2, channel=0, data=[48, 81]),
   midi.NoteOnEvent(tick=4, channel=0, data=[73, 0]),
   midi.NoteOnEvent(tick=0, channel=0, data=[77, 0]),
   midi.NoteOnEvent(tick=11, channel=0, data=[48, 0]),
   midi.NoteOnEvent(tick=1, channel=0, data=[60, 0]),
   midi.NoteOnEvent(tick=5, channel=0, data=[80, 0]),
   midi.ControlChangeEvent(tick=44, channel=0, data=[64, 104]),
   midi.ControlChangeEvent(tick=4, channel=0, data=[64, 24]),
   midi.ControlChangeEvent(tick=4, channel=0, data=[64, 0]),
   midi.NoteOnEvent(tick=22, channel=0, data=[85, 88]),
   midi.NoteOnEvent(tick=2, channel=0, data=[80, 75]),
   midi.NoteOnEvent(tick=1, channel=0, data=[73, 72]),
   midi.ControlChangeEvent(tick=4, channel=0, data=[64, 40]),
   midi.NoteOnEvent(tick=0, channel=0, data=[77, 74]),
   midi.NoteOnEvent(tick=0, channel=0, data=[59, 71]),
   midi.NoteOnEvent(tick=3, channel=0, data=[47, 60]),
   midi.ControlChangeEvent(tick=1, channel=0, data=[64, 127]),
   midi.NoteOnEvent(tick=2, channel=0, data=[77, 0]),
   midi.NoteOnEvent(tick=4, channel=0, data=[59, 0]),
   midi.NoteOnEvent(tick=0, channel=0, data=[47, 0]),
   midi.NoteOnEvent(tick=12, channel=0, data=[73, 0]),
   midi.NoteOnEvent(tick=1, channel=0, data=[80, 0]),
   midi.NoteOnEvent(tick=6, channel=0, data=[85, 0]),
   midi.ControlChangeEvent(tick=23, channel=0, data=[64, 56]),
   midi.ControlChangeEvent(tick=4, channel=0, data=[64, 0]),
   midi.NoteOnEvent(tick=40, channel=0, data=[85, 93]),
   midi.NoteOnEvent(tick=0, channel=0, data=[46, 58]),
   midi.NoteOnEvent(tick=1, channel=0, data=[58, 50]),
   midi.NoteOnEvent(tick=11, channel=0, data=[46, 0]),
   midi.ControlChangeEvent(tick=0, channel=0, data=[64, 127]),
   midi.NoteOnEvent(tick=6, channel=0, data=[58, 0]),
   midi.NoteOnEvent(tick=20, channel=0, data=[85, 0]),
   midi.NoteOnEvent(tick=10, channel=0, data=[82, 88]),
   midi.NoteOnEvent(tick=2, channel=0, data=[73, 76]),
   midi.NoteOnEvent(tick=1, channel=0, data=[78, 75]),
   midi.NoteOnEvent(tick=45, channel=0, data=[66, 57]),
   midi.NoteOnEvent(tick=5, channel=0, data=[61, 40]),
   midi.NoteOnEvent(tick=0, channel=0, data=[58, 35]),
   midi.NoteOnEvent(tick=5, channel=0, data=[66, 0]),
   midi.NoteOnEvent(tick=3, channel=0, data=[61, 0]),
   midi.NoteOnEvent(tick=6, channel=0, data=[58, 0]),
   midi.NoteOnEvent(tick=2, channel=0, data=[73, 0]),
   midi.NoteOnEvent(tick=4, channel=0, data=[82, 0]),
   midi.NoteOnEvent(tick=1, channel=0, data=[78, 0]),
   midi.NoteOnEvent(tick=25, channel=0, data=[85, 91]),
   midi.ControlChangeEvent(tick=31, channel=0, data=[64, 104]),
   midi.ControlChangeEvent(tick=3, channel=0, data=[64, 0]),
   midi.NoteOnEvent(tick=3, channel=0, data=[85, 0]),
   midi.NoteOnEvent(tick=10, channel=0, data=[82, 87]),
   midi.NoteOnEvent(tick=2, channel=0, data=[75, 77]),
   midi.NoteOnEvent(tick=1, channel=0, data=[78, 71]),
   midi.NoteOnEvent(tick=0, channel=0, data=[54, 65]),
   midi.NoteOnEvent(tick=4, channel=0, data=[42, 33]),
   midi.ControlChangeEvent(tick=5, channel=0, data=[64, 88]),
   midi.NoteOnEvent(tick=3, channel=0, data=[42, 0]),
   midi.ControlChangeEvent(tick=1, channel=0, data=[64, 127]),
   midi.NoteOnEvent(tick=8, channel=0, data=[54, 0]),
   midi.NoteOnEvent(tick=44, channel=0, data=[75, 0]),
   midi.NoteOnEvent(tick=14, channel=0, data=[82, 0]),
   midi.NoteOnEvent(tick=6, channel=0, data=[78, 0]),
   midi.NoteOnEvent(tick=11, channel=0, data=[85, 85]),
   midi.NoteOnEvent(tick=1, channel=0, data=[45, 65]),
   midi.NoteOnEvent(tick=0, channel=0, data=[57, 65]),
   midi.NoteOnEvent(tick=4, channel=0, data=[78, 51]),
   midi.NoteOnEvent(tick=3, channel=0, data=[45, 0]),
   midi.NoteOnEvent(tick=1, channel=0, data=[57, 0]),
   midi.NoteOnEvent(tick=3, channel=0, data=[78, 0]),
   midi.NoteOnEvent(tick=21, channel=0, data=[85, 0]),
   midi.NoteOnEvent(tick=16, channel=0, data=[82, 88]),
   midi.NoteOnEvent(tick=0, channel=0, data=[77, 85]),
   midi.NoteOnEvent(tick=2, channel=0, data=[78, 67]),
   midi.ControlChangeEvent(tick=7, channel=0, data=[64, 40]),
   midi.ControlChangeEvent(tick=4, channel=0, data=[64, 0]),
   midi.NoteOnEvent(tick=34, channel=0, data=[46, 63]),
   midi.NoteOnEvent(tick=1, channel=0, data=[58, 59]),
   midi.ControlChangeEvent(tick=6, channel=0, data=[64, 127]),
   midi.NoteOnEvent(tick=6, channel=0, data=[46, 0]),
   midi.NoteOnEvent(tick=6, channel=0, data=[58, 0]),
   midi.NoteOnEvent(tick=8, channel=0, data=[77, 0]),
   midi.NoteOnEvent(tick=14, channel=0, data=[78, 0]),
   midi.NoteOnEvent(tick=7, channel=0, data=[82, 0]),
   midi.NoteOnEvent(tick=2, channel=0, data=[85, 85]),
   midi.NoteOnEvent(tick=36, channel=0, data=[85, 0]),
   midi.NoteOnEvent(tick=12, channel=0, data=[82, 77]),
   midi.NoteOnEvent(tick=0, channel=0, data=[66, 53]),
   midi.NoteOnEvent(tick=1, channel=0, data=[78, 70]),
   midi.NoteOnEvent(tick=1, channel=0, data=[75, 63]),
   midi.NoteOnEvent(tick=0, channel=0, data=[58, 42]),
   midi.NoteOnEvent(tick=4, channel=0, data=[61, 35]),
   midi.NoteOnEvent(tick=3, channel=0, data=[66, 0]),
   midi.NoteOnEvent(tick=4, channel=0, data=[61, 0]),
   midi.NoteOnEvent(tick=4, channel=0, data=[58, 0]),
   midi.ControlChangeEvent(tick=1, channel=0, data=[64, 104]),
   midi.ControlChangeEvent(tick=3, channel=0, data=[64, 72]),
   midi.ControlChangeEvent(tick=4, channel=0, data=[64, 40]),
   midi.NoteOnEvent(tick=2, channel=0, data=[75, 0]),
   midi.ControlChangeEvent(tick=2, channel=0, data=[64, 0]),
   midi.NoteOnEvent(tick=3, channel=0, data=[78, 0]),
   midi.NoteOnEvent(tick=1, channel=0, data=[82, 0]),
   midi.NoteOnEvent(tick=64, channel=0, data=[85, 87]),
   midi.ControlChangeEvent(tick=1, channel=0, data=[64, 56]),
   midi.NoteOnEvent(tick=1, channel=0, data=[73, 77]),
   midi.NoteOnEvent(tick=2, channel=0, data=[78, 67]),
   midi.NoteOnEvent(tick=0, channel=0, data=[82, 65]),
   midi.NoteOnEvent(tick=0, channel=0, data=[58, 65]),
   midi.NoteOnEvent(tick=1, channel=0, data=[46, 59]),
   midi.ControlChangeEvent(tick=1, channel=0, data=[64, 127]),
   midi.NoteOnEvent(tick=14, channel=0, data=[58, 0]),
   midi.NoteOnEvent(tick=2, channel=0, data=[82, 0]),
   midi.NoteOnEvent(tick=0, channel=0, data=[78, 0]),
   midi.NoteOnEvent(tick=0, channel=0, data=[46, 0]),
   midi.NoteOnEvent(tick=1, channel=0, data=[85, 0]),
   midi.NoteOnEvent(tick=0, channel=0, data=[73, 0]),
   midi.ControlChangeEvent(tick=39, channel=0, data=[64, 88]),
   midi.ControlChangeEvent(tick=4, channel=0, data=[64, 40]),
   midi.ControlChangeEvent(tick=4, channel=0, data=[64, 0]),
   midi.NoteOnEvent(tick=32, channel=0, data=[82, 85]),
   midi.NoteOnEvent(tick=3, channel=0, data=[70, 76]),
   midi.NoteOnEvent(tick=1, channel=0, data=[54, 70]),
   midi.NoteOnEvent(tick=0, channel=0, data=[78, 67]),
   midi.NoteOnEvent(tick=0, channel=0, data=[42, 57]),
   midi.ControlChangeEvent(tick=0, channel=0, data=[64, 88]),
   midi.NoteOnEvent(tick=2, channel=0, data=[73, 59]),
   midi.ControlChangeEvent(tick=2, channel=0, data=[64, 127]),
   midi.NoteOnEvent(tick=4, channel=0, data=[54, 0]),
   midi.NoteOnEvent(tick=5, channel=0, data=[42, 0]),
   midi.NoteOnEvent(tick=6, channel=0, data=[73, 0]),
   midi.NoteOnEvent(tick=4, channel=0, data=[82, 0]),
   midi.NoteOnEvent(tick=0, channel=0, data=[78, 0]),
   midi.NoteOnEvent(tick=4, channel=0, data=[70, 0]),
   midi.ControlChangeEvent(tick=21, channel=0, data=[64, 104]),
   midi.ControlChangeEvent(tick=4, channel=0, data=[64, 56]),
   midi.ControlChangeEvent(tick=4, channel=0, data=[64, 0]),
   midi.NoteOnEvent(tick=43, channel=0, data=[80, 91]),
   midi.NoteOnEvent(tick=5, channel=0, data=[41, 57]),
   midi.NoteOnEvent(tick=1, channel=0, data=[53, 60]),
   midi.ControlChangeEvent(tick=0, channel=0, data=[64, 88]),
   midi.ControlChangeEvent(tick=4, channel=0, data=[64, 127]),
   midi.NoteOnEvent(tick=3, channel=0, data=[41, 0]),
   midi.NoteOnEvent(tick=10, channel=0, data=[53, 0]),
   midi.NoteOnEvent(tick=12, channel=0, data=[80, 0]),
   midi.NoteOnEvent(tick=15, channel=0, data=[77, 89]),
   midi.NoteOnEvent(tick=1, channel=0, data=[68, 67]),
   midi.NoteOnEvent(tick=3, channel=0, data=[73, 67]),
   midi.ControlChangeEvent(tick=16, channel=0, data=[64, 104]),
   midi.ControlChangeEvent(tick=5, channel=0, data=[64, 40]),
   midi.ControlChangeEvent(tick=4, channel=0, data=[64, 0]),
   midi.ControlChangeEvent(tick=8, channel=0, data=[64, 24]),
   midi.ControlChangeEvent(tick=4, channel=0, data=[64, 72]),
   midi.ControlChangeEvent(tick=4, channel=0, data=[64, 127]),
   midi.NoteOnEvent(tick=2, channel=0, data=[65, 64]),
   midi.NoteOnEvent(tick=1, channel=0, data=[61, 52]),
   midi.NoteOnEvent(tick=0, channel=0, data=[56, 52]),
   midi.NoteOnEvent(tick=9, channel=0, data=[68, 0]),
   midi.NoteOnEvent(tick=7, channel=0, data=[61, 0]),
   midi.NoteOnEvent(tick=0, channel=0, data=[65, 0]),
   midi.NoteOnEvent(tick=3, channel=0, data=[56, 0]),
   midi.NoteOnEvent(tick=9, channel=0, data=[77, 0]),
   midi.NoteOnEvent(tick=0, channel=0, data=[73, 0]),
   midi.NoteOnEvent(tick=17, channel=0, data=[80, 87]),
   midi.ControlChangeEvent(tick=28, channel=0, data=[64, 40]),
   midi.ControlChangeEvent(tick=4, channel=0, data=[64, 0]),
   midi.NoteOnEvent(tick=3, channel=0, data=[80, 0]),
   midi.NoteOnEvent(tick=12, channel=0, data=[70, 74]),
   midi.NoteOnEvent(tick=1, channel=0, data=[77, 90]),
   midi.NoteOnEvent(tick=2, channel=0, data=[73, 72]),
   midi.NoteOnEvent(tick=0, channel=0, data=[61, 50]),
   midi.NoteOnEvent(tick=0, channel=0, data=[65, 53]),
   midi.NoteOnEvent(tick=1, channel=0, data=[56, 48]),
   midi.ControlChangeEvent(tick=2, channel=0, data=[64, 88]),
   midi.ControlChangeEvent(tick=3, channel=0, data=[64, 127]),
   midi.NoteOnEvent(tick=2, channel=0, data=[65, 0]),
   midi.NoteOnEvent(tick=2, channel=0, data=[61, 0]),
   midi.NoteOnEvent(tick=8, channel=0, data=[56, 0]),
   midi.NoteOnEvent(tick=34, channel=0, data=[70, 0]),
   midi.NoteOnEvent(tick=29, channel=0, data=[77, 0]),
   midi.NoteOnEvent(tick=1, channel=0, data=[73, 0]),
   midi.NoteOnEvent(tick=12, channel=0, data=[44, 57]),
   midi.NoteOnEvent(tick=1, channel=0, data=[80, 85]),
   midi.NoteOnEvent(tick=2, channel=0, data=[32, 46]),
   midi.NoteOnEvent(tick=7, channel=0, data=[32, 0]),
   midi.NoteOnEvent(tick=1, channel=0, data=[44, 0]),
   midi.NoteOnEvent(tick=23, channel=0, data=[80, 0]),
   midi.NoteOnEvent(tick=16, channel=0, data=[77, 85]),
   midi.NoteOnEvent(tick=0, channel=0, data=[72, 74]),
   midi.ControlChangeEvent(tick=0, channel=0, data=[64, 56]),
   midi.NoteOnEvent(tick=2, channel=0, data=[73, 63]),
   midi.ControlChangeEvent(tick=2, channel=0, data=[64, 0]),
   midi.ControlChangeEvent(tick=40, channel=0, data=[64, 104]),
   midi.NoteOnEvent(tick=2, channel=0, data=[49, 63]),
   midi.NoteOnEvent(tick=0, channel=0, data=[37, 53]),
   midi.ControlChangeEvent(tick=2, channel=0, data=[64, 127]),
   midi.NoteOnEvent(tick=8, channel=0, data=[37, 0]),
   midi.NoteOnEvent(tick=6, channel=0, data=[49, 0]),
   midi.NoteOnEvent(tick=7, channel=0, data=[72, 0]),
   midi.NoteOnEvent(tick=14, channel=0, data=[77, 0]),
   midi.NoteOnEvent(tick=6, channel=0, data=[73, 0]),
   midi.NoteOnEvent(tick=4, channel=0, data=[80, 79]),
   midi.NoteOnEvent(tick=35, channel=0, data=[80, 0]),
   midi.NoteOnEvent(tick=13, channel=0, data=[70, 65]),
   midi.NoteOnEvent(tick=0, channel=0, data=[77, 81]),
   midi.NoteOnEvent(tick=1, channel=0, data=[65, 65]),
   midi.NoteOnEvent(tick=1, channel=0, data=[73, 66]),
   midi.NoteOnEvent(tick=1, channel=0, data=[56, 49]),
   midi.NoteOnEvent(tick=0, channel=0, data=[61, 46]),
   midi.NoteOnEvent(tick=5, channel=0, data=[65, 0]),
   midi.NoteOnEvent(tick=3, channel=0, data=[61, 0]),
   midi.NoteOnEvent(tick=7, channel=0, data=[56, 0]),
   midi.NoteOnEvent(tick=5, channel=0, data=[70, 0]),
   midi.NoteOnEvent(tick=2, channel=0, data=[73, 0]),
   midi.NoteOnEvent(tick=8, channel=0, data=[77, 0]),
   midi.ControlChangeEvent(tick=7, channel=0, data=[64, 104]),
   midi.ControlChangeEvent(tick=4, channel=0, data=[64, 72]),
   midi.ControlChangeEvent(tick=4, channel=0, data=[64, 24]),
   midi.ControlChangeEvent(tick=4, channel=0, data=[64, 0]),
   midi.NoteOnEvent(tick=45, channel=0, data=[80, 84]),
   midi.NoteOnEvent(tick=3, channel=0, data=[68, 64]),
   midi.NoteOnEvent(tick=2, channel=0, data=[77, 66]),
   midi.NoteOnEvent(tick=1, channel=0, data=[73, 59]),
   midi.NoteOnEvent(tick=1, channel=0, data=[53, 71]),
   midi.NoteOnEvent(tick=1, channel=0, data=[41, 57]),
   midi.ControlChangeEvent(tick=0, channel=0, data=[64, 104]),
   midi.ControlChangeEvent(tick=4, channel=0, data=[64, 127]),
   midi.NoteOnEvent(tick=2, channel=0, data=[53, 0]),
   midi.NoteOnEvent(tick=1, channel=0, data=[77, 0]),
   midi.NoteOnEvent(tick=0, channel=0, data=[41, 0]),
   midi.NoteOnEvent(tick=8, channel=0, data=[68, 0]),
   midi.NoteOnEvent(tick=0, channel=0, data=[73, 0]),
   midi.NoteOnEvent(tick=2, channel=0, data=[80, 0]),
   midi.ControlChangeEvent(tick=46, channel=0, data=[64, 88]),
   midi.ControlChangeEvent(tick=5, channel=0, data=[64, 0]),
   midi.NoteOnEvent(tick=26, channel=0, data=[77, 86]),
   midi.NoteOnEvent(tick=2, channel=0, data=[68, 52]),
   midi.NoteOnEvent(tick=0, channel=0, data=[65, 65]),
   midi.NoteOnEvent(tick=1, channel=0, data=[73, 58]),
   midi.NoteOnEvent(tick=2, channel=0, data=[56, 64]),
   midi.NoteOnEvent(tick=1, channel=0, data=[44, 49]),
   midi.ControlChangeEvent(tick=1, channel=0, data=[64, 88]),
   midi.ControlChangeEvent(tick=3, channel=0, data=[64, 127]),
   midi.NoteOnEvent(tick=10, channel=0, data=[68, 0]),
   midi.NoteOnEvent(tick=2, channel=0, data=[56, 0]),
   midi.NoteOnEvent(tick=1, channel=0, data=[44, 0]),
   midi.NoteOnEvent(tick=1, channel=0, data=[65, 0]),
   midi.NoteOnEvent(tick=0, channel=0, data=[77, 0]),
   midi.NoteOnEvent(tick=1, channel=0, data=[73, 0]),
   midi.ControlChangeEvent(tick=37, channel=0, data=[64, 40]),
   midi.ControlChangeEvent(tick=5, channel=0, data=[64, 0]),
   midi.NoteOnEvent(tick=40, channel=0, data=[57, 72]),
   midi.NoteOnEvent(tick=2, channel=0, data=[45, 67]),
   midi.ControlChangeEvent(tick=6, channel=0, data=[64, 127]),
   midi.NoteOnEvent(tick=1, channel=0, data=[45, 0]),
   midi.NoteOnEvent(tick=12, channel=0, data=[57, 0]),
   midi.NoteOnEvent(tick=23, channel=0, data=[73, 76]),
   midi.NoteOnEvent(tick=43, channel=0, data=[73, 0]),
   midi.NoteOnEvent(tick=6, channel=0, data=[61, 45]),
   midi.NoteOnEvent(tick=1, channel=0, data=[64, 73]),
   midi.NoteOnEvent(tick=2, channel=0, data=[57, 44]),
   midi.NoteOnEvent(tick=8, channel=0, data=[57, 0]),
   midi.NoteOnEvent(tick=4, channel=0, data=[61, 0]),
   midi.NoteOnEvent(tick=20, channel=0, data=[64, 0]),
   midi.NoteOnEvent(tick=11, channel=0, data=[69, 81]),
   midi.ControlChangeEvent(tick=35, channel=0, data=[64, 56]),
   midi.ControlChangeEvent(tick=4, channel=0, data=[64, 0]),
   midi.NoteOnEvent(tick=1, channel=0, data=[69, 0]),
   midi.NoteOnEvent(tick=15, channel=0, data=[76, 86]),
   midi.NoteOnEvent(tick=2, channel=0, data=[44, 57]),
   midi.NoteOnEvent(tick=2, channel=0, data=[56, 48]),
   midi.NoteOnEvent(tick=23, channel=0, data=[44, 0]),
   midi.ControlChangeEvent(tick=1, channel=0, data=[64, 127]),
   midi.NoteOnEvent(tick=5, channel=0, data=[56, 0]),
   midi.NoteOnEvent(tick=10, channel=0, data=[76, 0]),
   midi.NoteOnEvent(tick=9, channel=0, data=[71, 76]),
   midi.NoteOnEvent(tick=5, channel=0, data=[68, 59]),
   midi.NoteOnEvent(tick=3, channel=0, data=[64, 36]),
   midi.NoteOnEvent(tick=15, channel=0, data=[64, 0]),
   midi.NoteOnEvent(tick=22, channel=0, data=[56, 45]),
   midi.NoteOnEvent(tick=1, channel=0, data=[59, 49]),
   midi.NoteOnEvent(tick=2, channel=0, data=[64, 53]),
   midi.NoteOnEvent(tick=2, channel=0, data=[52, 40]),
   midi.NoteOnEvent(tick=4, channel=0, data=[59, 0]),
   midi.NoteOnEvent(tick=0, channel=0, data=[68, 0]),
   midi.NoteOnEvent(tick=4, channel=0, data=[52, 0]),
   midi.NoteOnEvent(tick=1, channel=0, data=[56, 0]),
   midi.NoteOnEvent(tick=8, channel=0, data=[64, 0]),
   midi.NoteOnEvent(tick=1, channel=0, data=[71, 0]),
   midi.NoteOnEvent(tick=25, channel=0, data=[73, 84]),
   midi.ControlChangeEvent(tick=24, channel=0, data=[64, 88]),
   midi.ControlChangeEvent(tick=4, channel=0, data=[64, 0]),
   midi.NoteOnEvent(tick=22, channel=0, data=[45, 58]),
   midi.NoteOnEvent(tick=5, channel=0, data=[57, 37]),
   midi.ControlChangeEvent(tick=2, channel=0, data=[64, 72]),
   midi.NoteOnEvent(tick=1, channel=0, data=[45, 0]),
   midi.ControlChangeEvent(tick=3, channel=0, data=[64, 127]),
   midi.NoteOnEvent(tick=10, channel=0, data=[57, 0]),
   midi.NoteOnEvent(tick=20, channel=0, data=[73, 0]),
   midi.NoteOnEvent(tick=1, channel=0, data=[64, 80]),
   midi.NoteOnEvent(tick=45, channel=0, data=[61, 51]),
   midi.NoteOnEvent(tick=2, channel=0, data=[69, 79]),
   midi.NoteOnEvent(tick=3, channel=0, data=[57, 48]),
   midi.NoteOnEvent(tick=2, channel=0, data=[52, 44]),
   midi.NoteOnEvent(tick=5, channel=0, data=[57, 0]),
   midi.NoteOnEvent(tick=1, channel=0, data=[61, 0]),
   midi.NoteOnEvent(tick=4, channel=0, data=[52, 0]),
   midi.NoteOnEvent(tick=9, channel=0, data=[64, 0]),
   midi.NoteOnEvent(tick=13, channel=0, data=[69, 0]),
   midi.NoteOnEvent(tick=8, channel=0, data=[76, 91]),
   midi.NoteOnEvent(tick=22, channel=0, data=[76, 0]),
   midi.ControlChangeEvent(tick=16, channel=0, data=[64, 88]),
   midi.ControlChangeEvent(tick=4, channel=0, data=[64, 24]),
   midi.ControlChangeEvent(tick=4, channel=0, data=[64, 0]),
   midi.NoteOnEvent(tick=4, channel=0, data=[77, 97]),
   midi.NoteOnEvent(tick=2, channel=0, data=[68, 74]),
   midi.NoteOnEvent(tick=0, channel=0, data=[65, 78]),
   midi.NoteOnEvent(tick=0, channel=0, data=[73, 72]),
   midi.NoteOnEvent(tick=0, channel=0, data=[44, 59]),
   midi.ControlChangeEvent(tick=26, channel=0, data=[64, 56]),
   midi.NoteOnEvent(tick=2, channel=0, data=[44, 0]),
   midi.ControlChangeEvent(tick=2, channel=0, data=[64, 127]),
   midi.NoteOnEvent(tick=18, channel=0, data=[49, 58]),
   midi.NoteOnEvent(tick=30, channel=0, data=[49, 0]),
   midi.NoteOnEvent(tick=14, channel=0, data=[53, 69]),
   midi.NoteOnEvent(tick=23, channel=0, data=[68, 0]),
   midi.NoteOnEvent(tick=9, channel=0, data=[53, 0]),
   midi.NoteOnEvent(tick=1, channel=0, data=[65, 0]),
   midi.NoteOnEvent(tick=13, channel=0, data=[77, 0]),
   midi.NoteOnEvent(tick=0, channel=0, data=[73, 0]),
   midi.NoteOnEvent(tick=0, channel=0, data=[56, 67]),
   midi.NoteOnEvent(tick=17, channel=0, data=[56, 0]),
   midi.ControlChangeEvent(tick=13, channel=0, data=[64, 88]),
   midi.ControlChangeEvent(tick=4, channel=0, data=[64, 0]),
   midi.NoteOnEvent(tick=22, channel=0, data=[77, 89]),
   midi.NoteOnEvent(tick=3, channel=0, data=[66, 67]),
   midi.NoteOnEvent(tick=1, channel=0, data=[72, 78]),
   midi.NoteOnEvent(tick=0, channel=0, data=[44, 60]),
   midi.ControlChangeEvent(tick=10, channel=0, data=[64, 72]),
   midi.ControlChangeEvent(tick=4, channel=0, data=[64, 127]),
   midi.NoteOnEvent(tick=2, channel=0, data=[44, 0]),
   midi.NoteOnEvent(tick=18, channel=0, data=[72, 0]),
   midi.NoteOnEvent(tick=0, channel=0, data=[77, 0]),
   midi.NoteOnEvent(tick=10, channel=0, data=[75, 87]),
   midi.NoteOnEvent(tick=12, channel=0, data=[66, 0]),
   midi.ControlChangeEvent(tick=14, channel=0, data=[64, 88]),
   midi.ControlChangeEvent(tick=4, channel=0, data=[64, 40]),
   midi.ControlChangeEvent(tick=4, channel=0, data=[64, 24]),
   midi.ControlChangeEvent(tick=12, channel=0, data=[64, 88]),
   midi.NoteOnEvent(tick=4, channel=0, data=[54, 57]),
   midi.ControlChangeEvent(tick=1, channel=0, data=[64, 127]),
   midi.NoteOnEvent(tick=0, channel=0, data=[60, 65]),
   midi.NoteOnEvent(tick=3, channel=0, data=[56, 35]),
   midi.NoteOnEvent(tick=4, channel=0, data=[60, 0]),
   midi.NoteOnEvent(tick=3, channel=0, data=[56, 0]),
   midi.NoteOnEvent(tick=2, channel=0, data=[54, 0]),
   midi.NoteOnEvent(tick=35, channel=0, data=[75, 0]),
   midi.NoteOnEvent(tick=1, channel=0, data=[66, 80]),
   midi.ControlChangeEvent(tick=24, channel=0, data=[64, 88]),
   midi.ControlChangeEvent(tick=4, channel=0, data=[64, 0]),
   midi.NoteOnEvent(tick=16, channel=0, data=[44, 61]),
   midi.NoteOnEvent(tick=0, channel=0, data=[32, 52]),
   midi.NoteOnEvent(tick=8, channel=0, data=[32, 0]),
   midi.ControlChangeEvent(tick=0, channel=0, data=[64, 72]),
   midi.ControlChangeEvent(tick=5, channel=0, data=[64, 127]),
   midi.NoteOnEvent(tick=2, channel=0, data=[44, 0]),
   midi.NoteOnEvent(tick=33, channel=0, data=[77, 86]),
   midi.NoteOnEvent(tick=15, channel=0, data=[66, 0]),
   midi.NoteOnEvent(tick=15, channel=0, data=[77, 0]),
   midi.NoteOnEvent(tick=17, channel=0, data=[54, 60]),
   midi.NoteOnEvent(tick=1, channel=0, data=[60, 69]),
   midi.NoteOnEvent(tick=0, channel=0, data=[75, 87]),
   midi.NoteOnEvent(tick=1, channel=0, data=[56, 54]),
   midi.NoteOnEvent(tick=2, channel=0, data=[66, 60]),
   midi.NoteOnEvent(tick=3, channel=0, data=[72, 68]),
   midi.NoteOnEvent(tick=3, channel=0, data=[60, 0]),
   midi.NoteOnEvent(tick=3, channel=0, data=[56, 0]),
   midi.NoteOnEvent(tick=4, channel=0, data=[72, 0]),
   midi.NoteOnEvent(tick=1, channel=0, data=[54, 0]),
   midi.NoteOnEvent(tick=10, channel=0, data=[66, 0]),
   midi.NoteOnEvent(tick=1, channel=0, data=[75, 0]),
   midi.ControlChangeEvent(tick=13, channel=0, data=[64, 104]),
   midi.ControlChangeEvent(tick=4, channel=0, data=[64, 56]),
   midi.ControlChangeEvent(tick=4, channel=0, data=[64, 24]),
   midi.ControlChangeEvent(tick=4, channel=0, data=[64, 0]),
   midi.NoteOnEvent(tick=49, channel=0, data=[73, 86]),
   midi.NoteOnEvent(tick=1, channel=0, data=[37, 68]),
   midi.NoteOnEvent(tick=2, channel=0, data=[49, 76]),
   midi.NoteOnEvent(tick=0, channel=0, data=[65, 66]),
   midi.NoteOnEvent(tick=1, channel=0, data=[68, 59]),
   midi.ControlChangeEvent(tick=0, channel=0, data=[64, 127]),
   midi.NoteOnEvent(tick=11, channel=0, data=[49, 0]),
   midi.NoteOnEvent(tick=1, channel=0, data=[37, 0]),
   midi.ControlChangeEvent(tick=28, channel=0, data=[64, 104]),
   midi.ControlChangeEvent(tick=4, channel=0, data=[64, 72]),
   midi.ControlChangeEvent(tick=4, channel=0, data=[64, 40]),
   midi.ControlChangeEvent(tick=5, channel=0, data=[64, 0]),
   midi.NoteOnEvent(tick=46, channel=0, data=[61, 91]),
   midi.NoteOnEvent(tick=1, channel=0, data=[49, 84]),
   midi.ControlChangeEvent(tick=1, channel=0, data=[64, 72]),
   midi.ControlChangeEvent(tick=4, channel=0, data=[64, 127]),
   midi.NoteOnEvent(tick=9, channel=0, data=[49, 0]),
   midi.NoteOnEvent(tick=0, channel=0, data=[61, 0]),
   midi.ControlChangeEvent(tick=11, channel=0, data=[64, 104]),
   midi.ControlChangeEvent(tick=4, channel=0, data=[64, 88]),
   midi.ControlChangeEvent(tick=4, channel=0, data=[64, 40]),
   midi.ControlChangeEvent(tick=4, channel=0, data=[64, 0]),
   midi.ControlChangeEvent(tick=48, channel=0, data=[64, 72]),
   midi.ControlChangeEvent(tick=4, channel=0, data=[64, 127]),
   midi.NoteOnEvent(tick=8, channel=0, data=[65, 0]),
   midi.NoteOnEvent(tick=0, channel=0, data=[60, 94]),
   midi.NoteOnEvent(tick=2, channel=0, data=[48, 82]),
   midi.NoteOnEvent(tick=5, channel=0, data=[68, 0]),
   midi.NoteOnEvent(tick=11, channel=0, data=[48, 0]),
   midi.NoteOnEvent(tick=0, channel=0, data=[60, 0]),
   midi.NoteOnEvent(tick=4, channel=0, data=[73, 0]),
   midi.ControlChangeEvent(tick=26, channel=0, data=[64, 88]),
   midi.ControlChangeEvent(tick=5, channel=0, data=[64, 56]),
   midi.ControlChangeEvent(tick=4, channel=0, data=[64, 24]),
   midi.ControlChangeEvent(tick=4, channel=0, data=[64, 0]),
   midi.NoteOnEvent(tick=34, channel=0, data=[85, 93]),
   midi.NoteOnEvent(tick=2, channel=0, data=[73, 84]),
   midi.ControlChangeEvent(tick=0, channel=0, data=[64, 40]),
   midi.NoteOnEvent(tick=1, channel=0, data=[80, 79]),
   midi.NoteOnEvent(tick=3, channel=0, data=[77, 82]),
   midi.ControlChangeEvent(tick=1, channel=0, data=[64, 104]),
   midi.NoteOnEvent(tick=0, channel=0, data=[59, 73]),
   midi.NoteOnEvent(tick=2, channel=0, data=[47, 68]),
   midi.ControlChangeEvent(tick=2, channel=0, data=[64, 127]),
   midi.NoteOnEvent(tick=2, channel=0, data=[77, 0]),
   midi.NoteOnEvent(tick=2, channel=0, data=[47, 0]),
   midi.NoteOnEvent(tick=2, channel=0, data=[59, 0]),
   midi.NoteOnEvent(tick=16, channel=0, data=[80, 0]),
   midi.NoteOnEvent(tick=2, channel=0, data=[73, 0]),
   midi.NoteOnEvent(tick=2, channel=0, data=[85, 0]),
   midi.ControlChangeEvent(tick=9, channel=0, data=[64, 104]),
   midi.ControlChangeEvent(tick=4, channel=0, data=[64, 56]),
   midi.ControlChangeEvent(tick=5, channel=0, data=[64, 0]),
   midi.NoteOnEvent(tick=45, channel=0, data=[46, 61]),
   midi.NoteOnEvent(tick=1, channel=0, data=[85, 95]),
   midi.NoteOnEvent(tick=2, channel=0, data=[58, 39]),
   midi.NoteOnEvent(tick=12, channel=0, data=[46, 0]),
   midi.ControlChangeEvent(tick=0, channel=0, data=[64, 72]),
   midi.NoteOnEvent(tick=3, channel=0, data=[58, 0]),
   midi.ControlChangeEvent(tick=1, channel=0, data=[64, 127]),
   midi.NoteOnEvent(tick=27, channel=0, data=[85, 0]),
   midi.NoteOnEvent(tick=3, channel=0, data=[73, 87]),
   midi.NoteOnEvent(tick=0, channel=0, data=[82, 85]),
   midi.NoteOnEvent(tick=2, channel=0, data=[78, 74]),
   midi.NoteOnEvent(tick=48, channel=0, data=[66, 59]),
   midi.NoteOnEvent(tick=2, channel=0, data=[58, 47]),
   midi.NoteOnEvent(tick=0, channel=0, data=[61, 46]),
   midi.NoteOnEvent(tick=6, channel=0, data=[66, 0]),
   midi.NoteOnEvent(tick=3, channel=0, data=[61, 0]),
   midi.NoteOnEvent(tick=4, channel=0, data=[58, 0]),
   midi.NoteOnEvent(tick=5, channel=0, data=[73, 0]),
   midi.NoteOnEvent(tick=9, channel=0, data=[82, 0]),
   midi.NoteOnEvent(tick=1, channel=0, data=[78, 0]),
   midi.NoteOnEvent(tick=15, channel=0, data=[85, 90]),
   midi.ControlChangeEvent(tick=33, channel=0, data=[64, 88]),
   midi.NoteOnEvent(tick=4, channel=0, data=[85, 0]),
   midi.ControlChangeEvent(tick=0, channel=0, data=[64, 0]),
   midi.NoteOnEvent(tick=10, channel=0, data=[82, 85]),
   midi.NoteOnEvent(tick=1, channel=0, data=[75, 81]),
   midi.NoteOnEvent(tick=0, channel=0, data=[78, 75]),
   midi.NoteOnEvent(tick=2, channel=0, data=[42, 65]),
   midi.NoteOnEvent(tick=0, channel=0, data=[54, 72]),
   midi.ControlChangeEvent(tick=11, channel=0, data=[64, 104]),
   midi.NoteOnEvent(tick=3, channel=0, data=[42, 0]),
   midi.NoteOnEvent(tick=1, channel=0, data=[54, 0]),
   midi.ControlChangeEvent(tick=0, channel=0, data=[64, 127]),
   midi.NoteOnEvent(tick=65, channel=0, data=[75, 0]),
   midi.NoteOnEvent(tick=7, channel=0, data=[78, 0]),
   midi.NoteOnEvent(tick=2, channel=0, data=[82, 0]),
   midi.NoteOnEvent(tick=7, channel=0, data=[57, 65]),
   midi.NoteOnEvent(tick=1, channel=0, data=[85, 89]),
   midi.NoteOnEvent(tick=9, channel=0, data=[57, 0]),
   midi.NoteOnEvent(tick=35, channel=0, data=[85, 0]),
   midi.NoteOnEvent(tick=8, channel=0, data=[77, 84]),
   midi.NoteOnEvent(tick=0, channel=0, data=[82, 87]),
   midi.NoteOnEvent(tick=1, channel=0, data=[78, 67]),
   midi.ControlChangeEvent(tick=18, channel=0, data=[64, 40]),
   midi.ControlChangeEvent(tick=4, channel=0, data=[64, 0]),
   midi.NoteOnEvent(tick=23, channel=0, data=[58, 55]),
   midi.NoteOnEvent(tick=1, channel=0, data=[46, 53]),
   midi.ControlChangeEvent(tick=5, channel=0, data=[64, 72]),
   midi.NoteOnEvent(tick=2, channel=0, data=[46, 0]),
   midi.ControlChangeEvent(tick=2, channel=0, data=[64, 127]),
   midi.NoteOnEvent(tick=3, channel=0, data=[58, 0]),
   midi.NoteOnEvent(tick=12, channel=0, data=[77, 0]),
   midi.NoteOnEvent(tick=14, channel=0, data=[78, 0]),
   midi.NoteOnEvent(tick=2, channel=0, data=[82, 0]),
   midi.NoteOnEvent(tick=5, channel=0, data=[85, 87]),
   midi.NoteOnEvent(tick=37, channel=0, data=[85, 0]),
   midi.NoteOnEvent(tick=10, channel=0, data=[82, 80]),
   midi.NoteOnEvent(tick=0, channel=0, data=[66, 57]),
   midi.NoteOnEvent(tick=2, channel=0, data=[75, 74]),
   midi.NoteOnEvent(tick=0, channel=0, data=[58, 45]),
   midi.NoteOnEvent(tick=1, channel=0, data=[78, 70]),
   midi.NoteOnEvent(tick=2, channel=0, data=[61, 33]),
   midi.NoteOnEvent(tick=3, channel=0, data=[66, 0]),
   midi.NoteOnEvent(tick=4, channel=0, data=[61, 0]),
   midi.NoteOnEvent(tick=4, channel=0, data=[58, 0]),
   midi.NoteOnEvent(tick=6, channel=0, data=[78, 0]),
   midi.NoteOnEvent(tick=3, channel=0, data=[75, 0]),
   midi.NoteOnEvent(tick=6, channel=0, data=[82, 0]),
   midi.ControlChangeEvent(tick=2, channel=0, data=[64, 104]),
   midi.ControlChangeEvent(tick=4, channel=0, data=[64, 56]),
   midi.ControlChangeEvent(tick=4, channel=0, data=[64, 0]),
   midi.NoteOnEvent(tick=54, channel=0, data=[85, 92]),
   midi.NoteOnEvent(tick=2, channel=0, data=[73, 81]),
   midi.ControlChangeEvent(tick=1, channel=0, data=[64, 127]),
   midi.NoteOnEvent(tick=1, channel=0, data=[82, 68]),
   midi.NoteOnEvent(tick=0, channel=0, data=[78, 68]),
   midi.NoteOnEvent(tick=3, channel=0, data=[58, 66]),
   midi.NoteOnEvent(tick=1, channel=0, data=[46, 56]),
   midi.NoteOnEvent(tick=14, channel=0, data=[73, 0]),
   midi.NoteOnEvent(tick=1, channel=0, data=[58, 0]),
   midi.NoteOnEvent(tick=1, channel=0, data=[78, 0]),
   midi.NoteOnEvent(tick=1, channel=0, data=[82, 0]),
   midi.NoteOnEvent(tick=0, channel=0, data=[46, 0]),
   midi.NoteOnEvent(tick=3, channel=0, data=[85, 0]),
   midi.ControlChangeEvent(tick=36, channel=0, data=[64, 72]),
   midi.ControlChangeEvent(tick=4, channel=0, data=[64, 24]),
   midi.ControlChangeEvent(tick=4, channel=0, data=[64, 0]),
   midi.NoteOnEvent(tick=25, channel=0, data=[82, 85]),
   midi.ControlChangeEvent(tick=3, channel=0, data=[64, 72]),
   midi.NoteOnEvent(tick=0, channel=0, data=[78, 71]),
   midi.NoteOnEvent(tick=0, channel=0, data=[70, 70]),
   midi.NoteOnEvent(tick=2, channel=0, data=[73, 64]),
   midi.ControlChangeEvent(tick=2, channel=0, data=[64, 127]),
   midi.NoteOnEvent(tick=2, channel=0, data=[54, 59]),
   midi.NoteOnEvent(tick=1, channel=0, data=[42, 48]),
   midi.NoteOnEvent(tick=7, channel=0, data=[54, 0]),
   midi.NoteOnEvent(tick=6, channel=0, data=[73, 0]),
   midi.NoteOnEvent(tick=4, channel=0, data=[78, 0]),
   midi.NoteOnEvent(tick=0, channel=0, data=[82, 0]),
   midi.NoteOnEvent(tick=0, channel=0, data=[42, 0]),
   midi.NoteOnEvent(tick=2, channel=0, data=[70, 0]),
   midi.ControlChangeEvent(tick=26, channel=0, data=[64, 104]),
   midi.ControlChangeEvent(tick=4, channel=0, data=[64, 40]),
   midi.ControlChangeEvent(tick=4, channel=0, data=[64, 0]),
   midi.NoteOnEvent(tick=36, channel=0, data=[80, 91]),
   midi.ControlChangeEvent(tick=5, channel=0, data=[64, 40]),
   midi.NoteOnEvent(tick=0, channel=0, data=[41, 45]),
   midi.NoteOnEvent(tick=3, channel=0, data=[53, 44]),
   midi.ControlChangeEvent(tick=1, channel=0, data=[64, 127]),
   midi.NoteOnEvent(tick=4, channel=0, data=[41, 0]),
   midi.NoteOnEvent(tick=6, channel=0, data=[53, 0]),
   midi.NoteOnEvent(tick=18, channel=0, data=[80, 0]),
   midi.NoteOnEvent(tick=13, channel=0, data=[68, 76]),
   midi.NoteOnEvent(tick=2, channel=0, data=[77, 82]),
   midi.NoteOnEvent(tick=2, channel=0, data=[73, 68]),
   midi.ControlChangeEvent(tick=19, channel=0, data=[64, 0]),
   midi.ControlChangeEvent(tick=25, channel=0, data=[64, 56]),
   midi.NoteOnEvent(tick=2, channel=0, data=[56, 53]),
   midi.NoteOnEvent(tick=0, channel=0, data=[65, 60]),
   midi.ControlChangeEvent(tick=2, channel=0, data=[64, 127]),
   midi.NoteOnEvent(tick=2, channel=0, data=[61, 31]),
   midi.NoteOnEvent(tick=11, channel=0, data=[61, 0]),
   midi.NoteOnEvent(tick=2, channel=0, data=[65, 0]),
   midi.NoteOnEvent(tick=4, channel=0, data=[68, 0]),
   midi.NoteOnEvent(tick=0, channel=0, data=[56, 0]),
   midi.NoteOnEvent(tick=10, channel=0, data=[77, 0]),
   midi.NoteOnEvent(tick=2, channel=0, data=[73, 0]),
   midi.NoteOnEvent(tick=12, channel=0, data=[80, 80]),
   midi.ControlChangeEvent(tick=25, channel=0, data=[64, 88]),
   midi.ControlChangeEvent(tick=3, channel=0, data=[64, 0]),
   midi.NoteOnEvent(tick=6, channel=0, data=[80, 0]),
   midi.NoteOnEvent(tick=12, channel=0, data=[70, 84]),
   midi.NoteOnEvent(tick=2, channel=0, data=[77, 82]),
   midi.NoteOnEvent(tick=1, channel=0, data=[73, 68]),
   midi.NoteOnEvent(tick=0, channel=0, data=[65, 58]),
   midi.ControlChangeEvent(tick=1, channel=0, data=[64, 72]),
   midi.NoteOnEvent(tick=2, channel=0, data=[61, 42]),
   midi.NoteOnEvent(tick=0, channel=0, data=[56, 44]),
   midi.ControlChangeEvent(tick=1, channel=0, data=[64, 127]),
   midi.NoteOnEvent(tick=3, channel=0, data=[65, 0]),
   midi.NoteOnEvent(tick=3, channel=0, data=[61, 0]),
   midi.NoteOnEvent(tick=6, channel=0, data=[56, 0]),
   midi.NoteOnEvent(tick=60, channel=0, data=[77, 0]),
   midi.NoteOnEvent(tick=8, channel=0, data=[70, 0]),
   midi.NoteOnEvent(tick=10, channel=0, data=[44, 59]),
   midi.NoteOnEvent(tick=2, channel=0, data=[32, 35]),
   midi.NoteOnEvent(tick=4, channel=0, data=[80, 73]),
   midi.NoteOnEvent(tick=3, channel=0, data=[32, 0]),
   midi.NoteOnEvent(tick=1, channel=0, data=[44, 0]),
   midi.NoteOnEvent(tick=11, channel=0, data=[73, 0]),
   midi.NoteOnEvent(tick=15, channel=0, data=[80, 0]),
   midi.NoteOnEvent(tick=16, channel=0, data=[72, 82]),
   midi.NoteOnEvent(tick=4, channel=0, data=[77, 80]),
   midi.NoteOnEvent(tick=0, channel=0, data=[73, 72]),
   midi.ControlChangeEvent(tick=12, channel=0, data=[64, 40]),
   midi.ControlChangeEvent(tick=4, channel=0, data=[64, 0]),
   midi.ControlChangeEvent(tick=28, channel=0, data=[64, 72]),
   midi.ControlChangeEvent(tick=4, channel=0, data=[64, 127]),
   midi.NoteOnEvent(tick=1, channel=0, data=[49, 53]),
   midi.NoteOnEvent(tick=0, channel=0, data=[37, 44]),
   midi.NoteOnEvent(tick=7, channel=0, data=[37, 0]),
   midi.NoteOnEvent(tick=5, channel=0, data=[49, 0]),
   midi.NoteOnEvent(tick=16, channel=0, data=[72, 0]),
   midi.NoteOnEvent(tick=6, channel=0, data=[77, 0]),
   midi.NoteOnEvent(tick=2, channel=0, data=[73, 0]),
   midi.NoteOnEvent(tick=7, channel=0, data=[80, 79]),
   midi.NoteOnEvent(tick=31, channel=0, data=[80, 0]),
   midi.ControlChangeEvent(tick=2, channel=0, data=[64, 72]),
   midi.ControlChangeEvent(tick=4, channel=0, data=[64, 0]),
   midi.ControlChangeEvent(tick=8, channel=0, data=[64, 24]),
   midi.NoteOnEvent(tick=0, channel=0, data=[70, 66]),
   midi.NoteOnEvent(tick=2, channel=0, data=[77, 82]),
   midi.NoteOnEvent(tick=1, channel=0, data=[65, 65]),
   midi.ControlChangeEvent(tick=1, channel=0, data=[64, 56]),
   midi.NoteOnEvent(tick=0, channel=0, data=[73, 63]),
   midi.NoteOnEvent(tick=1, channel=0, data=[56, 50]),
   midi.ControlChangeEvent(tick=3, channel=0, data=[64, 127]),
   midi.NoteOnEvent(tick=2, channel=0, data=[65, 0]),
   midi.NoteOnEvent(tick=10, channel=0, data=[56, 0]),
   midi.NoteOnEvent(tick=2, channel=0, data=[73, 0]),
   midi.NoteOnEvent(tick=7, channel=0, data=[70, 0]),
   midi.NoteOnEvent(tick=4, channel=0, data=[77, 0]),
   midi.ControlChangeEvent(tick=11, channel=0, data=[64, 72]),
   midi.ControlChangeEvent(tick=4, channel=0, data=[64, 0]),
   midi.ControlChangeEvent(tick=49, channel=0, data=[64, 104]),
   midi.NoteOnEvent(tick=0, channel=0, data=[80, 81]),
   midi.NoteOnEvent(tick=2, channel=0, data=[68, 67]),
   midi.NoteOnEvent(tick=2, channel=0, data=[77, 72]),
   midi.ControlChangeEvent(tick=0, channel=0, data=[64, 127]),
   midi.NoteOnEvent(tick=0, channel=0, data=[53, 67]),
   midi.NoteOnEvent(tick=1, channel=0, data=[73, 58]),
   midi.NoteOnEvent(tick=1, channel=0, data=[41, 53]),
   midi.NoteOnEvent(tick=11, channel=0, data=[53, 0]),
   midi.NoteOnEvent(tick=3, channel=0, data=[73, 0]),
   midi.NoteOnEvent(tick=0, channel=0, data=[41, 0]),
   midi.NoteOnEvent(tick=2, channel=0, data=[77, 0]),
   midi.NoteOnEvent(tick=1, channel=0, data=[68, 0]),
   midi.NoteOnEvent(tick=5, channel=0, data=[80, 0]),
   midi.ControlChangeEvent(tick=24, channel=0, data=[64, 88]),
   midi.ControlChangeEvent(tick=4, channel=0, data=[64, 0]),
   midi.NoteOnEvent(tick=39, channel=0, data=[79, 88]),
   midi.ControlChangeEvent(tick=1, channel=0, data=[64, 40]),
   midi.NoteOnEvent(tick=2, channel=0, data=[67, 69]),
   midi.NoteOnEvent(tick=0, channel=0, data=[70, 67]),
   midi.NoteOnEvent(tick=2, channel=0, data=[73, 68]),
   midi.ControlChangeEvent(tick=0, channel=0, data=[64, 127]),
   midi.NoteOnEvent(tick=3, channel=0, data=[52, 61]),
   midi.NoteOnEvent(tick=4, channel=0, data=[40, 40]),
   midi.NoteOnEvent(tick=5, channel=0, data=[52, 0]),
   midi.NoteOnEvent(tick=6, channel=0, data=[67, 0]),
   midi.NoteOnEvent(tick=0, channel=0, data=[40, 0]),
   midi.NoteOnEvent(tick=2, channel=0, data=[70, 0]),
   midi.NoteOnEvent(tick=0, channel=0, data=[79, 0]),
   midi.NoteOnEvent(tick=4, channel=0, data=[73, 0]),
   midi.ControlChangeEvent(tick=25, channel=0, data=[64, 72]),
   midi.ControlChangeEvent(tick=4, channel=0, data=[64, 0]),
   midi.NoteOnEvent(tick=41, channel=0, data=[39, 53]),
   midi.NoteOnEvent(tick=1, channel=0, data=[78, 85]),
   midi.NoteOnEvent(tick=1, channel=0, data=[51, 53]),
   midi.ControlChangeEvent(tick=9, channel=0, data=[64, 72]),
   midi.ControlChangeEvent(tick=4, channel=0, data=[64, 127]),
   midi.NoteOnEvent(tick=1, channel=0, data=[39, 0]),
   midi.NoteOnEvent(tick=2, channel=0, data=[51, 0]),
   midi.NoteOnEvent(tick=18, channel=0, data=[78, 0]),
   midi.NoteOnEvent(tick=16, channel=0, data=[75, 76]),
   midi.NoteOnEvent(tick=2, channel=0, data=[66, 57]),
   midi.NoteOnEvent(tick=5, channel=0, data=[72, 65]),
   midi.NoteOnEvent(tick=42, channel=0, data=[63, 52]),
   midi.NoteOnEvent(tick=3, channel=0, data=[56, 49]),
   midi.NoteOnEvent(tick=0, channel=0, data=[60, 40]),
   midi.NoteOnEvent(tick=4, channel=0, data=[63, 0]),
   midi.NoteOnEvent(tick=4, channel=0, data=[56, 0]),
   midi.NoteOnEvent(tick=1, channel=0, data=[60, 0]),
   midi.NoteOnEvent(tick=1, channel=0, data=[66, 0]),
   midi.NoteOnEvent(tick=15, channel=0, data=[72, 0]),
   midi.NoteOnEvent(tick=4, channel=0, data=[75, 0]),
   midi.NoteOnEvent(tick=8, channel=0, data=[78, 86]),
   midi.NoteOnEvent(tick=38, channel=0, data=[78, 0]),
   midi.ControlChangeEvent(tick=6, channel=0, data=[64, 72]),
   midi.ControlChangeEvent(tick=4, channel=0, data=[64, 0]),
   midi.NoteOnEvent(tick=2, channel=0, data=[75, 74]),
   midi.NoteOnEvent(tick=1, channel=0, data=[68, 65]),
   midi.NoteOnEvent(tick=3, channel=0, data=[44, 68]),
   midi.NoteOnEvent(tick=0, channel=0, data=[32, 60]),
   midi.NoteOnEvent(tick=1, channel=0, data=[72, 71]),
   midi.NoteOnEvent(tick=5, channel=0, data=[32, 0]),
   midi.ControlChangeEvent(tick=0, channel=0, data=[64, 40]),
   midi.NoteOnEvent(tick=1, channel=0, data=[44, 0]),
   midi.ControlChangeEvent(tick=3, channel=0, data=[64, 104]),
   midi.ControlChangeEvent(tick=4, channel=0, data=[64, 127]),
   midi.NoteOnEvent(tick=53, channel=0, data=[72, 0]),
   midi.NoteOnEvent(tick=6, channel=0, data=[68, 0]),
   midi.NoteOnEvent(tick=3, channel=0, data=[75, 0]),
   midi.NoteOnEvent(tick=11, channel=0, data=[78, 88]),
   midi.NoteOnEvent(tick=6, channel=0, data=[50, 72]),
   midi.NoteOnEvent(tick=4, channel=0, data=[38, 47]),
   midi.NoteOnEvent(tick=4, channel=0, data=[50, 0]),
   midi.NoteOnEvent(tick=4, channel=0, data=[38, 0]),
   midi.NoteOnEvent(tick=22, channel=0, data=[78, 0]),
   midi.NoteOnEvent(tick=10, channel=0, data=[75, 78]),
   midi.NoteOnEvent(tick=2, channel=0, data=[70, 67]),
   midi.ControlChangeEvent(tick=0, channel=0, data=[64, 88]),
   midi.NoteOnEvent(tick=2, channel=0, data=[72, 77]),
   midi.ControlChangeEvent(tick=2, channel=0, data=[64, 0]),
   midi.NoteOnEvent(tick=39, channel=0, data=[39, 51]),
   midi.NoteOnEvent(tick=4, channel=0, data=[51, 57]),
   midi.ControlChangeEvent(tick=1, channel=0, data=[64, 72]),
   midi.ControlChangeEvent(tick=4, channel=0, data=[64, 127]),
   midi.NoteOnEvent(tick=3, channel=0, data=[39, 0]),
   midi.NoteOnEvent(tick=1, channel=0, data=[51, 0]),
   midi.NoteOnEvent(tick=22, channel=0, data=[72, 0]),
   midi.NoteOnEvent(tick=4, channel=0, data=[70, 0]),
   midi.NoteOnEvent(tick=3, channel=0, data=[75, 0]),
   midi.NoteOnEvent(tick=4, channel=0, data=[78, 78]),
   midi.NoteOnEvent(tick=35, channel=0, data=[78, 0]),
   midi.NoteOnEvent(tick=10, channel=0, data=[75, 78]),
   midi.NoteOnEvent(tick=2, channel=0, data=[68, 63]),
   midi.NoteOnEvent(tick=0, channel=0, data=[63, 56]),
   midi.NoteOnEvent(tick=2, channel=0, data=[72, 78]),
   midi.NoteOnEvent(tick=0, channel=0, data=[60, 63]),
   midi.NoteOnEvent(tick=4, channel=0, data=[56, 46]),
   midi.NoteOnEvent(tick=3, channel=0, data=[60, 0]),
   midi.NoteOnEvent(tick=1, channel=0, data=[63, 0]),
   midi.NoteOnEvent(tick=7, channel=0, data=[56, 0]),
   midi.NoteOnEvent(tick=5, channel=0, data=[68, 0]),
   midi.NoteOnEvent(tick=3, channel=0, data=[72, 0]),
   midi.NoteOnEvent(tick=8, channel=0, data=[75, 0]),
   midi.ControlChangeEvent(tick=25, channel=0, data=[64, 56]),
   midi.ControlChangeEvent(tick=4, channel=0, data=[64, 0]),
   midi.ControlChangeEvent(tick=36, channel=0, data=[64, 72]),
   midi.NoteOnEvent(tick=0, channel=0, data=[78, 89]),
   midi.NoteOnEvent(tick=2, channel=0, data=[66, 76]),
   midi.NoteOnEvent(tick=2, channel=0, data=[75, 70]),
   midi.ControlChangeEvent(tick=0, channel=0, data=[64, 127]),
   midi.NoteOnEvent(tick=0, channel=0, data=[56, 61]),
   midi.NoteOnEvent(tick=2, channel=0, data=[44, 54]),
   midi.NoteOnEvent(tick=1, channel=0, data=[72, 71]),
   midi.NoteOnEvent(tick=7, channel=0, data=[72, 0]),
   midi.NoteOnEvent(tick=4, channel=0, data=[66, 0]),
   midi.NoteOnEvent(tick=1, channel=0, data=[56, 0]),
   midi.NoteOnEvent(tick=1, channel=0, data=[44, 0]),
   midi.NoteOnEvent(tick=10, channel=0, data=[75, 0]),
   midi.NoteOnEvent(tick=1, channel=0, data=[78, 0]),
   midi.ControlChangeEvent(tick=41, channel=0, data=[64, 24]),
   midi.ControlChangeEvent(tick=4, channel=0, data=[64, 0]),
   midi.NoteOnEvent(tick=23, channel=0, data=[87, 91]),
   midi.NoteOnEvent(tick=2, channel=0, data=[75, 78]),
   midi.NoteOnEvent(tick=2, channel=0, data=[84, 77]),
   midi.NoteOnEvent(tick=1, channel=0, data=[80, 74]),
   midi.ControlChangeEvent(tick=1, channel=0, data=[64, 72]),
   midi.NoteOnEvent(tick=1, channel=0, data=[54, 72]),
   midi.NoteOnEvent(tick=1, channel=0, data=[42, 63]),
   midi.ControlChangeEvent(tick=2, channel=0, data=[64, 127]),
   midi.NoteOnEvent(tick=7, channel=0, data=[42, 0]),
   midi.NoteOnEvent(tick=4, channel=0, data=[54, 0]),
   midi.NoteOnEvent(tick=4, channel=0, data=[75, 0]),
   midi.NoteOnEvent(tick=0, channel=0, data=[80, 0]),
   midi.NoteOnEvent(tick=2, channel=0, data=[84, 0]),
   midi.NoteOnEvent(tick=2, channel=0, data=[87, 0]),
   midi.ControlChangeEvent(tick=66, channel=0, data=[64, 88]),
   midi.ControlChangeEvent(tick=4, channel=0, data=[64, 0]),
   midi.NoteOnEvent(tick=4, channel=0, data=[87, 91]),
   midi.NoteOnEvent(tick=1, channel=0, data=[75, 79]),
   midi.NoteOnEvent(tick=2, channel=0, data=[80, 76]),
   midi.NoteOnEvent(tick=3, channel=0, data=[41, 60]),
   midi.NoteOnEvent(tick=1, channel=0, data=[53, 50]),
   midi.NoteOnEvent(tick=7, channel=0, data=[41, 0]),
   midi.ControlChangeEvent(tick=6, channel=0, data=[64, 88]),
   midi.NoteOnEvent(tick=3, channel=0, data=[75, 0]),
   midi.ControlChangeEvent(tick=0, channel=0, data=[64, 127]),
   midi.NoteOnEvent(tick=2, channel=0, data=[53, 0]),
   midi.NoteOnEvent(tick=4, channel=0, data=[80, 0]),
   midi.NoteOnEvent(tick=0, channel=0, data=[87, 0]),
   midi.NoteOnEvent(tick=23, channel=0, data=[85, 90]),
   midi.NoteOnEvent(tick=2, channel=0, data=[73, 80]),
   midi.NoteOnEvent(tick=0, channel=0, data=[80, 79]),
   midi.ControlChangeEvent(tick=22, channel=0, data=[64, 56]),
   midi.ControlChangeEvent(tick=4, channel=0, data=[64, 0]),
   midi.ControlChangeEvent(tick=12, channel=0, data=[64, 56]),
   midi.ControlChangeEvent(tick=4, channel=0, data=[64, 127]),
   midi.NoteOnEvent(tick=3, channel=0, data=[80, 0]),
   midi.NoteOnEvent(tick=3, channel=0, data=[56, 58]),
   midi.NoteOnEvent(tick=1, channel=0, data=[65, 65]),
   midi.NoteOnEvent(tick=3, channel=0, data=[61, 40]),
   midi.NoteOnEvent(tick=2, channel=0, data=[85, 0]),
   midi.NoteOnEvent(tick=2, channel=0, data=[65, 0]),
   midi.NoteOnEvent(tick=2, channel=0, data=[61, 0]),
   midi.NoteOnEvent(tick=6, channel=0, data=[56, 0]),
   midi.NoteOnEvent(tick=0, channel=0, data=[73, 0]),
   midi.NoteOnEvent(tick=29, channel=0, data=[84, 92]),
   midi.NoteOnEvent(tick=4, channel=0, data=[76, 79]),
   midi.NoteOnEvent(tick=1, channel=0, data=[73, 63]),
   midi.ControlChangeEvent(tick=21, channel=0, data=[64, 104]),
   midi.ControlChangeEvent(tick=4, channel=0, data=[64, 0]),
   midi.NoteOnEvent(tick=16, channel=0, data=[55, 65]),
   midi.ControlChangeEvent(tick=12, channel=0, data=[64, 104]),
   midi.ControlChangeEvent(tick=4, channel=0, data=[64, 127]),
   midi.NoteOnEvent(tick=8, channel=0, data=[55, 0]),
   midi.NoteOnEvent(tick=19, channel=0, data=[58, 47]),
   midi.NoteOnEvent(tick=14, channel=0, data=[84, 0]),
   midi.NoteOnEvent(tick=3, channel=0, data=[76, 0]),
   midi.NoteOnEvent(tick=2, channel=0, data=[73, 0]),
   midi.NoteOnEvent(tick=9, channel=0, data=[58, 0]),
   midi.NoteOnEvent(tick=22, channel=0, data=[61, 53]),
   midi.NoteOnEvent(tick=1, channel=0, data=[82, 84]),
   midi.NoteOnEvent(tick=3, channel=0, data=[73, 70]),
   midi.NoteOnEvent(tick=2, channel=0, data=[76, 71]),
   midi.NoteOnEvent(tick=6, channel=0, data=[76, 0]),
   midi.NoteOnEvent(tick=21, channel=0, data=[61, 0]),
   midi.NoteOnEvent(tick=0, channel=0, data=[82, 0]),
   midi.NoteOnEvent(tick=4, channel=0, data=[73, 0]),
   midi.NoteOnEvent(tick=8, channel=0, data=[64, 64]),
   midi.NoteOnEvent(tick=27, channel=0, data=[64, 0]),
   midi.ControlChangeEvent(tick=13, channel=0, data=[64, 56]),
   midi.ControlChangeEvent(tick=4, channel=0, data=[64, 0]),
   midi.NoteOnEvent(tick=7, channel=0, data=[80, 87]),
   midi.NoteOnEvent(tick=5, channel=0, data=[65, 67]),
   midi.NoteOnEvent(tick=0, channel=0, data=[77, 67]),
   midi.NoteOnEvent(tick=2, channel=0, data=[73, 57]),
   midi.NoteOnEvent(tick=9, channel=0, data=[65, 0]),
   midi.ControlChangeEvent(tick=4, channel=0, data=[64, 88]),
   midi.NoteOnEvent(tick=4, channel=0, data=[68, 5]),
   midi.ControlChangeEvent(tick=0, channel=0, data=[64, 127]),
   midi.ControlChangeEvent(tick=58, channel=0, data=[64, 88]),
   midi.ControlChangeEvent(tick=4, channel=0, data=[64, 0]),
   midi.NoteOnEvent(tick=15, channel=0, data=[61, 75]),
   midi.NoteOnEvent(tick=2, channel=0, data=[49, 59]),
   midi.ControlChangeEvent(tick=7, channel=0, data=[64, 104]),
   midi.NoteOnEvent(tick=2, channel=0, data=[49, 0]),
   midi.ControlChangeEvent(tick=2, channel=0, data=[64, 127]),
   midi.NoteOnEvent(tick=3, channel=0, data=[61, 0]),
   midi.ControlChangeEvent(tick=29, channel=0, data=[64, 72]),
   midi.ControlChangeEvent(tick=4, channel=0, data=[64, 0]),
   midi.ControlChangeEvent(tick=44, channel=0, data=[64, 40]),
   midi.NoteOnEvent(tick=4, channel=0, data=[60, 84]),
   midi.ControlChangeEvent(tick=0, channel=0, data=[64, 127]),
   midi.NoteOnEvent(tick=2, channel=0, data=[48, 74]),
   midi.NoteOnEvent(tick=12, channel=0, data=[48, 0]),
   midi.NoteOnEvent(tick=2, channel=0, data=[60, 0]),
   midi.NoteOnEvent(tick=2, channel=0, data=[68, 0]),
   midi.NoteOnEvent(tick=4, channel=0, data=[77, 0]),
   midi.NoteOnEvent(tick=2, channel=0, data=[73, 0]),
   midi.NoteOnEvent(tick=9, channel=0, data=[80, 0]),
   midi.ControlChangeEvent(tick=32, channel=0, data=[64, 88]),
   midi.ControlChangeEvent(tick=3, channel=0, data=[64, 24]),
   midi.ControlChangeEvent(tick=4, channel=0, data=[64, 0]),
   midi.NoteOnEvent(tick=25, channel=0, data=[85, 89]),
   midi.NoteOnEvent(tick=3, channel=0, data=[73, 74]),
   midi.NoteOnEvent(tick=0, channel=0, data=[80, 74]),
   midi.ControlChangeEvent(tick=1, channel=0, data=[64, 72]),
   midi.NoteOnEvent(tick=1, channel=0, data=[59, 69]),
   midi.NoteOnEvent(tick=2, channel=0, data=[77, 70]),
   midi.NoteOnEvent(tick=0, channel=0, data=[47, 55]),
   midi.ControlChangeEvent(tick=1, channel=0, data=[64, 127]),
   midi.NoteOnEvent(tick=6, channel=0, data=[47, 0]),
   midi.NoteOnEvent(tick=2, channel=0, data=[77, 0]),
   midi.NoteOnEvent(tick=2, channel=0, data=[59, 0]),
   midi.NoteOnEvent(tick=15, channel=0, data=[80, 0]),
   midi.NoteOnEvent(tick=6, channel=0, data=[73, 0]),
   midi.NoteOnEvent(tick=0, channel=0, data=[85, 0]),
   midi.NoteOnEvent(tick=19, channel=0, data=[73, 11]),
   midi.ControlChangeEvent(tick=3, channel=0, data=[64, 88]),
   midi.ControlChangeEvent(tick=4, channel=0, data=[64, 0]),
   midi.NoteOnEvent(tick=10, channel=0, data=[73, 0]),
   midi.NoteOnEvent(tick=24, channel=0, data=[85, 90]),
   midi.NoteOnEvent(tick=2, channel=0, data=[46, 61]),
   midi.NoteOnEvent(tick=0, channel=0, data=[58, 54]),
   midi.NoteOnEvent(tick=6, channel=0, data=[46, 0]),
   midi.ControlChangeEvent(tick=2, channel=0, data=[64, 104]),
   midi.ControlChangeEvent(tick=4, channel=0, data=[64, 127]),
   midi.NoteOnEvent(tick=4, channel=0, data=[58, 0]),
   midi.NoteOnEvent(tick=19, channel=0, data=[85, 0]),
   midi.NoteOnEvent(tick=11, channel=0, data=[82, 84]),
   midi.NoteOnEvent(tick=3, channel=0, data=[73, 75]),
   midi.NoteOnEvent(tick=1, channel=0, data=[78, 68]),
   midi.NoteOnEvent(tick=47, channel=0, data=[66, 50]),
   midi.NoteOnEvent(tick=2, channel=0, data=[61, 42]),
   midi.NoteOnEvent(tick=1, channel=0, data=[58, 35]),
   midi.NoteOnEvent(tick=4, channel=0, data=[66, 0]),
   midi.NoteOnEvent(tick=3, channel=0, data=[61, 0]),
   midi.NoteOnEvent(tick=5, channel=0, data=[58, 0]),
   midi.NoteOnEvent(tick=4, channel=0, data=[73, 0]),
   midi.NoteOnEvent(tick=8, channel=0, data=[78, 0]),
   midi.NoteOnEvent(tick=0, channel=0, data=[82, 0]),
   midi.NoteOnEvent(tick=17, channel=0, data=[85, 90]),
   midi.ControlChangeEvent(tick=33, channel=0, data=[64, 88]),
   midi.NoteOnEvent(tick=4, channel=0, data=[85, 0]),
   midi.ControlChangeEvent(tick=0, channel=0, data=[64, 0]),
   midi.NoteOnEvent(tick=12, channel=0, data=[75, 77]),
   midi.NoteOnEvent(tick=0, channel=0, data=[82, 79]),
   midi.NoteOnEvent(tick=0, channel=0, data=[78, 72]),
   midi.NoteOnEvent(tick=4, channel=0, data=[54, 63]),
   midi.NoteOnEvent(tick=1, channel=0, data=[42, 47]),
   midi.ControlChangeEvent(tick=7, channel=0, data=[64, 104]),
   midi.NoteOnEvent(tick=1, channel=0, data=[42, 0]),
   midi.ControlChangeEvent(tick=3, channel=0, data=[64, 127]),
   midi.NoteOnEvent(tick=4, channel=0, data=[54, 0]),
   midi.NoteOnEvent(tick=45, channel=0, data=[75, 0]),
   midi.NoteOnEvent(tick=8, channel=0, data=[82, 0]),
   midi.NoteOnEvent(tick=8, channel=0, data=[78, 0]),
   midi.NoteOnEvent(tick=14, channel=0, data=[85, 87]),
   midi.NoteOnEvent(tick=1, channel=0, data=[57, 63]),
   midi.NoteOnEvent(tick=6, channel=0, data=[45, 33]),
   midi.NoteOnEvent(tick=0, channel=0, data=[78, 36]),
   midi.NoteOnEvent(tick=4, channel=0, data=[57, 0]),
   midi.NoteOnEvent(tick=2, channel=0, data=[45, 0]),
   midi.NoteOnEvent(tick=2, channel=0, data=[78, 0]),
   midi.NoteOnEvent(tick=20, channel=0, data=[85, 0]),
   midi.NoteOnEvent(tick=13, channel=0, data=[82, 78]),
   midi.NoteOnEvent(tick=1, channel=0, data=[77, 79]),
   midi.NoteOnEvent(tick=0, channel=0, data=[78, 65]),
   midi.ControlChangeEvent(tick=13, channel=0, data=[64, 56]),
   midi.ControlChangeEvent(tick=3, channel=0, data=[64, 0]),
   midi.ControlChangeEvent(tick=29, channel=0, data=[64, 72]),
   midi.NoteOnEvent(tick=3, channel=0, data=[46, 50]),
   midi.NoteOnEvent(tick=1, channel=0, data=[58, 59]),
   midi.ControlChangeEvent(tick=0, channel=0, data=[64, 127]),
   midi.NoteOnEvent(tick=6, channel=0, data=[46, 0]),
   midi.NoteOnEvent(tick=11, channel=0, data=[77, 0]),
   midi.NoteOnEvent(tick=0, channel=0, data=[58, 0]),
   midi.NoteOnEvent(tick=18, channel=0, data=[78, 0]),
   midi.NoteOnEvent(tick=0, channel=0, data=[82, 0]),
   midi.NoteOnEvent(tick=6, channel=0, data=[85, 81]),
   midi.NoteOnEvent(tick=36, channel=0, data=[85, 0]),
   midi.NoteOnEvent(tick=12, channel=0, data=[82, 80]),
   midi.NoteOnEvent(tick=2, channel=0, data=[75, 73]),
   midi.NoteOnEvent(tick=0, channel=0, data=[78, 70]),
   midi.NoteOnEvent(tick=0, channel=0, data=[66, 60]),
   midi.NoteOnEvent(tick=4, channel=0, data=[58, 37]),
   midi.NoteOnEvent(tick=0, channel=0, data=[61, 39]),
   midi.NoteOnEvent(tick=8, channel=0, data=[61, 0]),
   midi.NoteOnEvent(tick=0, channel=0, data=[66, 0]),
   midi.NoteOnEvent(tick=7, channel=0, data=[58, 0]),
   midi.NoteOnEvent(tick=6, channel=0, data=[75, 0]),
   midi.NoteOnEvent(tick=2, channel=0, data=[78, 0]),
   midi.ControlChangeEvent(tick=3, channel=0, data=[64, 88]),
   midi.NoteOnEvent(tick=2, channel=0, data=[82, 0]),
   midi.ControlChangeEvent(tick=2, channel=0, data=[64, 40]),
   midi.ControlChangeEvent(tick=4, channel=0, data=[64, 0]),
   midi.NoteOnEvent(tick=59, channel=0, data=[85, 85]),
   midi.ControlChangeEvent(tick=2, channel=0, data=[64, 104]),
   midi.NoteOnEvent(tick=2, channel=0, data=[73, 74]),
   midi.NoteOnEvent(tick=0, channel=0, data=[82, 71]),
   midi.NoteOnEvent(tick=1, channel=0, data=[78, 70]),
   midi.NoteOnEvent(tick=0, channel=0, data=[58, 67]),
   midi.ControlChangeEvent(tick=0, channel=0, data=[64, 127]),
   midi.NoteOnEvent(tick=2, channel=0, data=[46, 57]),
   midi.NoteOnEvent(tick=14, channel=0, data=[58, 0]),
   midi.NoteOnEvent(tick=4, channel=0, data=[46, 0]),
   midi.NoteOnEvent(tick=1, channel=0, data=[85, 0]),
   midi.NoteOnEvent(tick=0, channel=0, data=[78, 0]),
   midi.NoteOnEvent(tick=1, channel=0, data=[82, 0]),
   midi.NoteOnEvent(tick=0, channel=0, data=[73, 0]),
   midi.ControlChangeEvent(tick=31, channel=0, data=[64, 104]),
   midi.ControlChangeEvent(tick=4, channel=0, data=[64, 24]),
   midi.ControlChangeEvent(tick=4, channel=0, data=[64, 0]),
   midi.NoteOnEvent(tick=35, channel=0, data=[82, 88]),
   midi.ControlChangeEvent(tick=1, channel=0, data=[64, 104]),
   midi.NoteOnEvent(tick=0, channel=0, data=[70, 79]),
   midi.NoteOnEvent(tick=2, channel=0, data=[78, 72]),
   midi.NoteOnEvent(tick=0, channel=0, data=[73, 68]),
   midi.NoteOnEvent(tick=2, channel=0, data=[54, 67]),
   midi.ControlChangeEvent(tick=1, channel=0, data=[64, 127]),
   midi.NoteOnEvent(tick=2, channel=0, data=[42, 46]),
   midi.NoteOnEvent(tick=11, channel=0, data=[54, 0]),
   midi.NoteOnEvent(tick=1, channel=0, data=[42, 0]),
   midi.NoteOnEvent(tick=4, channel=0, data=[73, 0]),
   midi.NoteOnEvent(tick=1, channel=0, data=[78, 0]),
   midi.NoteOnEvent(tick=1, channel=0, data=[82, 0]),
   midi.NoteOnEvent(tick=2, channel=0, data=[70, 0]),
   midi.ControlChangeEvent(tick=25, channel=0, data=[64, 72]),
   midi.ControlChangeEvent(tick=4, channel=0, data=[64, 0]),
   midi.NoteOnEvent(tick=43, channel=0, data=[80, 89]),
   midi.NoteOnEvent(tick=2, channel=0, data=[41, 60]),
   midi.NoteOnEvent(tick=2, channel=0, data=[53, 67]),
   midi.NoteOnEvent(tick=6, channel=0, data=[41, 0]),
   midi.NoteOnEvent(tick=1, channel=0, data=[73, 28]),
   midi.ControlChangeEvent(tick=8, channel=0, data=[64, 127]),
   midi.NoteOnEvent(tick=1, channel=0, data=[73, 0]),
   midi.NoteOnEvent(tick=3, channel=0, data=[53, 0]),
   midi.NoteOnEvent(tick=14, channel=0, data=[80, 0]),
   midi.NoteOnEvent(tick=13, channel=0, data=[77, 86]),
   midi.NoteOnEvent(tick=0, channel=0, data=[68, 66]),
   midi.NoteOnEvent(tick=2, channel=0, data=[73, 63]),
   midi.NoteOnEvent(tick=39, channel=0, data=[68, 0]),
   midi.NoteOnEvent(tick=6, channel=0, data=[65, 66]),
   midi.NoteOnEvent(tick=1, channel=0, data=[56, 58]),
   midi.NoteOnEvent(tick=1, channel=0, data=[61, 50]),
   midi.NoteOnEvent(tick=15, channel=0, data=[65, 0]),
   midi.NoteOnEvent(tick=2, channel=0, data=[56, 0]),
   midi.NoteOnEvent(tick=0, channel=0, data=[77, 0]),
   midi.NoteOnEvent(tick=2, channel=0, data=[61, 0]),
   midi.NoteOnEvent(tick=6, channel=0, data=[73, 0]),
   midi.NoteOnEvent(tick=16, channel=0, data=[80, 85]),
   midi.NoteOnEvent(tick=34, channel=0, data=[80, 0]),
   midi.NoteOnEvent(tick=15, channel=0, data=[70, 76]),
   midi.NoteOnEvent(tick=2, channel=0, data=[77, 84]),
   midi.NoteOnEvent(tick=1, channel=0, data=[73, 68]),
   midi.NoteOnEvent(tick=0, channel=0, data=[65, 57]),
   midi.NoteOnEvent(tick=0, channel=0, data=[61, 48]),
   midi.NoteOnEvent(tick=1, channel=0, data=[56, 49]),
   midi.NoteOnEvent(tick=7, channel=0, data=[61, 0]),
   midi.NoteOnEvent(tick=0, channel=0, data=[65, 0]),
   midi.NoteOnEvent(tick=9, channel=0, data=[56, 0]),
   midi.NoteOnEvent(tick=60, channel=0, data=[77, 0]),
   midi.NoteOnEvent(tick=3, channel=0, data=[70, 0]),
   midi.NoteOnEvent(tick=4, channel=0, data=[73, 0]),
   midi.NoteOnEvent(tick=3, channel=0, data=[80, 85]),
   midi.NoteOnEvent(tick=5, channel=0, data=[44, 52]),
   midi.NoteOnEvent(tick=4, channel=0, data=[32, 31]),
   midi.NoteOnEvent(tick=6, channel=0, data=[44, 0]),
   midi.NoteOnEvent(tick=2, channel=0, data=[32, 0]),
   midi.NoteOnEvent(tick=18, channel=0, data=[80, 0]),
   midi.ControlChangeEvent(tick=7, channel=0, data=[64, 72]),
   midi.ControlChangeEvent(tick=4, channel=0, data=[64, 0]),
   midi.NoteOnEvent(tick=4, channel=0, data=[72, 73]),
   midi.NoteOnEvent(tick=1, channel=0, data=[77, 81]),
   midi.NoteOnEvent(tick=1, channel=0, data=[73, 60]),
   midi.NoteOnEvent(tick=44, channel=0, data=[49, 60]),
   midi.NoteOnEvent(tick=2, channel=0, data=[37, 45]),
   midi.ControlChangeEvent(tick=5, channel=0, data=[64, 127]),
   midi.NoteOnEvent(tick=3, channel=0, data=[37, 0]),
   midi.NoteOnEvent(tick=6, channel=0, data=[49, 0]),
   midi.NoteOnEvent(tick=12, channel=0, data=[72, 0]),
   midi.NoteOnEvent(tick=14, channel=0, data=[77, 0]),
   midi.NoteOnEvent(tick=1, channel=0, data=[73, 0]),
   midi.NoteOnEvent(tick=6, channel=0, data=[80, 76]),
   midi.NoteOnEvent(tick=35, channel=0, data=[80, 0]),
   midi.NoteOnEvent(tick=14, channel=0, data=[77, 82]),
   midi.NoteOnEvent(tick=0, channel=0, data=[70, 65]),
   midi.NoteOnEvent(tick=1, channel=0, data=[65, 69]),
   midi.NoteOnEvent(tick=1, channel=0, data=[56, 59]),
   midi.NoteOnEvent(tick=0, channel=0, data=[73, 67]),
   midi.NoteOnEvent(tick=3, channel=0, data=[61, 39]),
   midi.NoteOnEvent(tick=2, channel=0, data=[65, 0]),
   midi.NoteOnEvent(tick=4, channel=0, data=[61, 0]),
   midi.NoteOnEvent(tick=9, channel=0, data=[56, 0]),
   midi.NoteOnEvent(tick=5, channel=0, data=[70, 0]),
   midi.NoteOnEvent(tick=3, channel=0, data=[73, 0]),
   midi.NoteOnEvent(tick=8, channel=0, data=[77, 0]),
   midi.ControlChangeEvent(tick=6, channel=0, data=[64, 104]),
   midi.ControlChangeEvent(tick=4, channel=0, data=[64, 40]),
   midi.ControlChangeEvent(tick=4, channel=0, data=[64, 0]),
   midi.NoteOnEvent(tick=47, channel=0, data=[80, 75]),
   midi.ControlChangeEvent(tick=1, channel=0, data=[64, 40]),
   midi.NoteOnEvent(tick=1, channel=0, data=[68, 67]),
   midi.NoteOnEvent(tick=2, channel=0, data=[77, 71]),
   midi.NoteOnEvent(tick=1, channel=0, data=[73, 63]),
   midi.ControlChangeEvent(tick=1, channel=0, data=[64, 127]),
   midi.NoteOnEvent(tick=0, channel=0, data=[53, 66]),
   midi.NoteOnEvent(tick=2, channel=0, data=[41, 44]),
   midi.NoteOnEvent(tick=5, channel=0, data=[77, 0]),
   midi.NoteOnEvent(tick=1, channel=0, data=[53, 0]),
   midi.NoteOnEvent(tick=3, channel=0, data=[41, 0]),
   midi.NoteOnEvent(tick=3, channel=0, data=[68, 0]),
   midi.NoteOnEvent(tick=0, channel=0, data=[73, 0]),
   midi.NoteOnEvent(tick=2, channel=0, data=[80, 0]),
   midi.ControlChangeEvent(tick=48, channel=0, data=[64, 104]),
   midi.ControlChangeEvent(tick=4, channel=0, data=[64, 40]),
   midi.ControlChangeEvent(tick=4, channel=0, data=[64, 0]),
   midi.NoteOnEvent(tick=22, channel=0, data=[77, 88]),
   midi.NoteOnEvent(tick=2, channel=0, data=[65, 65]),
   midi.ControlChangeEvent(tick=0, channel=0, data=[64, 56]),
   midi.NoteOnEvent(tick=1, channel=0, data=[68, 58]),
   midi.NoteOnEvent(tick=0, channel=0, data=[73, 60]),
   midi.NoteOnEvent(tick=3, channel=0, data=[56, 68]),
   midi.ControlChangeEvent(tick=0, channel=0, data=[64, 127]),
   midi.NoteOnEvent(tick=1, channel=0, data=[44, 57]),
   midi.NoteOnEvent(tick=14, channel=0, data=[68, 0]),
   midi.NoteOnEvent(tick=2, channel=0, data=[65, 0]),
   midi.NoteOnEvent(tick=0, channel=0, data=[56, 0]),
   midi.NoteOnEvent(tick=0, channel=0, data=[44, 0]),
   midi.NoteOnEvent(tick=2, channel=0, data=[77, 0]),
   midi.NoteOnEvent(tick=0, channel=0, data=[73, 0]),
   midi.ControlChangeEvent(tick=54, channel=0, data=[64, 72]),
   midi.ControlChangeEvent(tick=4, channel=0, data=[64, 0]),
   midi.NoteOnEvent(tick=16, channel=0, data=[45, 69]),
   midi.NoteOnEvent(tick=1, channel=0, data=[57, 70]),
   midi.NoteOnEvent(tick=8, channel=0, data=[45, 0]),
   midi.ControlChangeEvent(tick=2, channel=0, data=[64, 56]),
   midi.ControlChangeEvent(tick=5, channel=0, data=[64, 127]),
   midi.NoteOnEvent(tick=5, channel=0, data=[57, 0]),
   midi.NoteOnEvent(tick=27, channel=0, data=[73, 79]),
   midi.ControlChangeEvent(tick=37, channel=0, data=[64, 56]),
   midi.NoteOnEvent(tick=1, channel=0, data=[73, 0]),
   midi.ControlChangeEvent(tick=3, channel=0, data=[64, 24]),
   midi.NoteOnEvent(tick=7, channel=0, data=[64, 78]),
   midi.NoteOnEvent(tick=2, channel=0, data=[61, 46]),
   midi.ControlChangeEvent(tick=3, channel=0, data=[64, 104]),
   midi.NoteOnEvent(tick=1, channel=0, data=[52, 50]),
   midi.NoteOnEvent(tick=1, channel=0, data=[57, 36]),
   midi.ControlChangeEvent(tick=2, channel=0, data=[64, 127]),
   midi.NoteOnEvent(tick=6, channel=0, data=[52, 0]),
   midi.NoteOnEvent(tick=1, channel=0, data=[57, 0]),
   midi.NoteOnEvent(tick=1, channel=0, data=[61, 0]),
   midi.NoteOnEvent(tick=18, channel=0, data=[64, 0]),
   midi.NoteOnEvent(tick=13, channel=0, data=[69, 82]),
   midi.ControlChangeEvent(tick=25, channel=0, data=[64, 56]),
   midi.ControlChangeEvent(tick=4, channel=0, data=[64, 0]),
   midi.NoteOnEvent(tick=9, channel=0, data=[69, 0]),
   midi.NoteOnEvent(tick=13, channel=0, data=[76, 86]),
   midi.NoteOnEvent(tick=0, channel=0, data=[44, 56]),
   midi.NoteOnEvent(tick=2, channel=0, data=[56, 58]),
   midi.ControlChangeEvent(tick=13, channel=0, data=[64, 127]),
   midi.NoteOnEvent(tick=1, channel=0, data=[44, 0]),
   midi.NoteOnEvent(tick=5, channel=0, data=[56, 0]),
   midi.NoteOnEvent(tick=14, channel=0, data=[76, 0]),
   midi.NoteOnEvent(tick=14, channel=0, data=[71, 73]),
   midi.NoteOnEvent(tick=3, channel=0, data=[68, 58]),
   midi.NoteOnEvent(tick=4, channel=0, data=[64, 37]),
   midi.NoteOnEvent(tick=38, channel=0, data=[56, 51]),
   midi.NoteOnEvent(tick=2, channel=0, data=[52, 55]),
   midi.NoteOnEvent(tick=1, channel=0, data=[59, 46]),
   midi.NoteOnEvent(tick=8, channel=0, data=[59, 0]),
   midi.NoteOnEvent(tick=1, channel=0, data=[52, 0]),
   midi.NoteOnEvent(tick=4, channel=0, data=[56, 0]),
   midi.NoteOnEvent(tick=12, channel=0, data=[71, 0]),
   midi.NoteOnEvent(tick=2, channel=0, data=[68, 0]),
   midi.NoteOnEvent(tick=2, channel=0, data=[64, 0]),
   midi.NoteOnEvent(tick=18, channel=0, data=[73, 81]),
   midi.ControlChangeEvent(tick=28, channel=0, data=[64, 40]),
   midi.ControlChangeEvent(tick=4, channel=0, data=[64, 0]),
   midi.NoteOnEvent(tick=12, channel=0, data=[45, 66]),
   midi.NoteOnEvent(tick=2, channel=0, data=[57, 55]),
   midi.NoteOnEvent(tick=6, channel=0, data=[45, 0]),
   midi.ControlChangeEvent(tick=0, channel=0, data=[64, 40]),
   midi.NoteOnEvent(tick=2, channel=0, data=[57, 0]),
   midi.ControlChangeEvent(tick=1, channel=0, data=[64, 127]),
   midi.NoteOnEvent(tick=32, channel=0, data=[73, 0]),
   midi.NoteOnEvent(tick=5, channel=0, data=[64, 81]),
   midi.NoteOnEvent(tick=42, channel=0, data=[61, 52]),
   midi.NoteOnEvent(tick=1, channel=0, data=[57, 54]),
   midi.NoteOnEvent(tick=2, channel=0, data=[69, 81]),
   midi.NoteOnEvent(tick=2, channel=0, data=[52, 44]),
   midi.NoteOnEvent(tick=6, channel=0, data=[57, 0]),
   midi.NoteOnEvent(tick=4, channel=0, data=[52, 0]),
   midi.NoteOnEvent(tick=0, channel=0, data=[61, 0]),
   midi.NoteOnEvent(tick=13, channel=0, data=[64, 0]),
   midi.NoteOnEvent(tick=10, channel=0, data=[69, 0]),
   midi.NoteOnEvent(tick=10, channel=0, data=[76, 88]),
   midi.NoteOnEvent(tick=21, channel=0, data=[76, 0]),
   midi.ControlChangeEvent(tick=19, channel=0, data=[64, 104]),
   midi.ControlChangeEvent(tick=4, channel=0, data=[64, 0]),
   midi.NoteOnEvent(tick=9, channel=0, data=[77, 94]),
   midi.NoteOnEvent(tick=1, channel=0, data=[65, 82]),
   midi.NoteOnEvent(tick=0, channel=0, data=[68, 72]),
   midi.NoteOnEvent(tick=1, channel=0, data=[73, 58]),
   midi.NoteOnEvent(tick=2, channel=0, data=[44, 57]),
   midi.ControlChangeEvent(tick=23, channel=0, data=[64, 72]),
   midi.ControlChangeEvent(tick=4, channel=0, data=[64, 127]),
   midi.NoteOnEvent(tick=1, channel=0, data=[44, 0]),
   midi.NoteOnEvent(tick=13, channel=0, data=[49, 64]),
   midi.NoteOnEvent(tick=31, channel=0, data=[49, 0]),
   midi.NoteOnEvent(tick=13, channel=0, data=[53, 65]),
   midi.NoteOnEvent(tick=23, channel=0, data=[68, 0]),
   midi.NoteOnEvent(tick=6, channel=0, data=[53, 0]),
   midi.NoteOnEvent(tick=5, channel=0, data=[65, 0]),
   midi.NoteOnEvent(tick=11, channel=0, data=[56, 60]),
   midi.NoteOnEvent(tick=4, channel=0, data=[77, 0]),
   midi.NoteOnEvent(tick=4, channel=0, data=[73, 0]),
   midi.NoteOnEvent(tick=14, channel=0, data=[56, 0]),
   midi.ControlChangeEvent(tick=16, channel=0, data=[64, 40]),
   midi.ControlChangeEvent(tick=4, channel=0, data=[64, 0]),
   midi.NoteOnEvent(tick=16, channel=0, data=[77, 90]),
   midi.NoteOnEvent(tick=1, channel=0, data=[44, 53]),
   midi.NoteOnEvent(tick=2, channel=0, data=[66, 68]),
   midi.NoteOnEvent(tick=5, channel=0, data=[72, 75]),
   midi.ControlChangeEvent(tick=4, channel=0, data=[64, 104]),
   midi.ControlChangeEvent(tick=4, channel=0, data=[64, 127]),
   midi.NoteOnEvent(tick=4, channel=0, data=[44, 0]),
   midi.NoteOnEvent(tick=17, channel=0, data=[77, 0]),
   midi.NoteOnEvent(tick=4, channel=0, data=[72, 0]),
   midi.NoteOnEvent(tick=6, channel=0, data=[75, 89]),
   midi.ControlChangeEvent(tick=10, channel=0, data=[64, 104]),
   midi.ControlChangeEvent(tick=3, channel=0, data=[64, 24]),
   midi.ControlChangeEvent(tick=4, channel=0, data=[64, 0]),
   midi.NoteOnEvent(tick=2, channel=0, data=[66, 0]),
   midi.ControlChangeEvent(tick=15, channel=0, data=[64, 40]),
   midi.ControlChangeEvent(tick=4, channel=0, data=[64, 104]),
   midi.ControlChangeEvent(tick=4, channel=0, data=[64, 127]),
   midi.NoteOnEvent(tick=4, channel=0, data=[60, 64]),
   midi.NoteOnEvent(tick=2, channel=0, data=[54, 52]),
   midi.NoteOnEvent(tick=1, channel=0, data=[56, 45]),
   midi.NoteOnEvent(tick=5, channel=0, data=[60, 0]),
   midi.NoteOnEvent(tick=2, channel=0, data=[56, 0]),
   midi.NoteOnEvent(tick=6, channel=0, data=[54, 0]),
   midi.NoteOnEvent(tick=35, channel=0, data=[66, 78]),
   midi.NoteOnEvent(tick=5, channel=0, data=[75, 0]),
   midi.ControlChangeEvent(tick=17, channel=0, data=[64, 88]),
   midi.ControlChangeEvent(tick=4, channel=0, data=[64, 0]),
   midi.NoteOnEvent(tick=16, channel=0, data=[44, 53]),
   midi.NoteOnEvent(tick=3, channel=0, data=[32, 46]),
   midi.ControlChangeEvent(tick=5, channel=0, data=[64, 88]),
   midi.NoteOnEvent(tick=2, channel=0, data=[32, 0]),
   midi.ControlChangeEvent(tick=2, channel=0, data=[64, 127]),
   midi.NoteOnEvent(tick=3, channel=0, data=[44, 0]),
   midi.NoteOnEvent(tick=33, channel=0, data=[77, 87]),
   midi.NoteOnEvent(tick=17, channel=0, data=[66, 0]),
   midi.NoteOnEvent(tick=14, channel=0, data=[77, 0]),
   midi.NoteOnEvent(tick=18, channel=0, data=[75, 89]),
   midi.NoteOnEvent(tick=2, channel=0, data=[60, 66]),
   midi.NoteOnEvent(tick=0, channel=0, data=[66, 65]),
   midi.NoteOnEvent(tick=0, channel=0, data=[54, 59]),
   midi.NoteOnEvent(tick=2, channel=0, data=[56, 40]),
   midi.NoteOnEvent(tick=4, channel=0, data=[72, 51]),
   midi.NoteOnEvent(tick=1, channel=0, data=[60, 0]),
   midi.NoteOnEvent(tick=2, channel=0, data=[56, 0]),
   midi.NoteOnEvent(tick=4, channel=0, data=[72, 0]),
   midi.NoteOnEvent(tick=2, channel=0, data=[54, 0]),
   midi.NoteOnEvent(tick=7, channel=0, data=[66, 0]),
   midi.NoteOnEvent(tick=3, channel=0, data=[75, 0]),
   midi.ControlChangeEvent(tick=9, channel=0, data=[64, 88]),
   midi.ControlChangeEvent(tick=4, channel=0, data=[64, 56]),
   midi.ControlChangeEvent(tick=4, channel=0, data=[64, 24]),
   midi.ControlChangeEvent(tick=4, channel=0, data=[64, 0]),
   midi.NoteOnEvent(tick=43, channel=0, data=[37, 52]),
   midi.ControlChangeEvent(tick=1, channel=0, data=[64, 56]),
   midi.NoteOnEvent(tick=2, channel=0, data=[49, 66]),
   midi.NoteOnEvent(tick=2, channel=0, data=[73, 86]),
   midi.ControlChangeEvent(tick=0, channel=0, data=[64, 127]),
   midi.NoteOnEvent(tick=3, channel=0, data=[68, 64]),
   midi.NoteOnEvent(tick=0, channel=0, data=[65, 69]),
   midi.NoteOnEvent(tick=9, channel=0, data=[49, 0]),
   midi.NoteOnEvent(tick=2, channel=0, data=[37, 0]),
   midi.ControlChangeEvent(tick=15, channel=0, data=[64, 104]),
   midi.ControlChangeEvent(tick=4, channel=0, data=[64, 72]),
   midi.ControlChangeEvent(tick=4, channel=0, data=[64, 40]),
   midi.ControlChangeEvent(tick=4, channel=0, data=[64, 0]),
   midi.NoteOnEvent(tick=39, channel=0, data=[43, 73]),
   midi.NoteOnEvent(tick=20, channel=0, data=[44, 85]),
   midi.NoteOnEvent(tick=3, channel=0, data=[43, 0]),
   midi.NoteOnEvent(tick=18, channel=0, data=[44, 0]),
   midi.NoteOnEvent(tick=7, channel=0, data=[65, 0]),
   midi.NoteOnEvent(tick=1, channel=0, data=[68, 0]),
   midi.NoteOnEvent(tick=15, channel=0, data=[73, 0]),
   midi.NoteOnEvent(tick=65, channel=0, data=[85, 89]),
   midi.NoteOnEvent(tick=3, channel=0, data=[73, 71]),
   midi.NoteOnEvent(tick=2, channel=0, data=[37, 57]),
   midi.NoteOnEvent(tick=1, channel=0, data=[80, 67]),
   midi.NoteOnEvent(tick=2, channel=0, data=[77, 72]),
   midi.ControlChangeEvent(tick=5, channel=0, data=[64, 72]),
   midi.NoteOnEvent(tick=2, channel=0, data=[77, 0]),
   midi.ControlChangeEvent(tick=2, channel=0, data=[64, 127]),
   midi.NoteOnEvent(tick=4, channel=0, data=[37, 0]),
   midi.NoteOnEvent(tick=2, channel=0, data=[73, 0]),
   midi.NoteOnEvent(tick=2, channel=0, data=[80, 0]),
   midi.NoteOnEvent(tick=5, channel=0, data=[85, 0]),
   midi.ControlChangeEvent(tick=176, channel=0, data=[64, 104]),
   midi.ControlChangeEvent(tick=5, channel=0, data=[64, 88]),
   midi.ControlChangeEvent(tick=4, channel=0, data=[64, 72]),
   midi.ControlChangeEvent(tick=4, channel=0, data=[64, 56]),
   midi.ControlChangeEvent(tick=4, channel=0, data=[64, 40]),
   midi.ControlChangeEvent(tick=4, channel=0, data=[64, 0]),
   midi.EndOfTrackEvent(tick=0, data=[])]),
 midi.Track(\
  [midi.PortEvent(tick=0, data=[0]),
   midi.TrackNameEvent(tick=0, text='Scott Joplin', data=[83, 99, 111, 116, 116, 32, 74, 111, 112, 108, 105, 110]),
   midi.EndOfTrackEvent(tick=0, data=[])]),
 midi.Track(\
  [midi.PortEvent(tick=0, data=[0]),
   midi.TrackNameEvent(tick=0, text='Copyright 1999', data=[67, 111, 112, 121, 114, 105, 103, 104, 116, 32, 49, 57, 57, 57]),
   midi.EndOfTrackEvent(tick=0, data=[])]),
 midi.Track(\
  [midi.PortEvent(tick=0, data=[0]),
   midi.TrackNameEvent(tick=0, text='Robert Finley', data=[82, 111, 98, 101, 114, 116, 32, 70, 105, 110, 108, 101, 121]),
   midi.EndOfTrackEvent(tick=0, data=[])])])
