midi.Pattern(format=1, resolution=240, tracks=\
[midi.Track(\
  [midi.TimeSignatureEvent(tick=0, data=[3, 2, 24, 8]),
   midi.KeySignatureEvent(tick=0, data=[0, 0]),
   midi.SetTempoEvent(tick=0, data=[17, 155, 54]),
   midi.MarkerEvent(tick=0, text='Adagio in G-min      Albinoni, Tommaso (1671-1750) Italian ', data=[65, 100, 97, 103, 105, 111, 32, 105, 110, 32, 71, 45, 109, 105, 110, 32, 32, 32, 32, 32, 32, 65, 108, 98, 105, 110, 111, 110, 105, 44, 32, 84, 111, 109, 109, 97, 115, 111, 32, 40, 49, 54, 55, 49, 45, 49, 55, 53, 48, 41, 32, 73, 116, 97, 108, 105, 97, 110, 32]),
   midi.EndOfTrackEvent(tick=0, data=[])]),
 midi.Track(\
  [midi.PortEvent(tick=0, data=[0]),
   midi.TrackNameEvent(tick=0, text='Strings', data=[83, 116, 114, 105, 110, 103, 115]),
   midi.ProgramChangeEvent(tick=0, channel=0, data=[49]),
   midi.ControlChangeEvent(tick=0, channel=0, data=[7, 110]),
   midi.ControlChangeEvent(tick=0, channel=0, data=[10, 25]),
   midi.NoteOnEvent(tick=90660, channel=0, data=[72, 110]),
   midi.NoteOnEvent(tick=0, channel=0, data=[69, 110]),
   midi.NoteOnEvent(tick=0, channel=0, data=[75, 110]),
   midi.NoteOnEvent(tick=60, channel=0, data=[75, 0]),
   midi.NoteOnEvent(tick=0, channel=0, data=[69, 0]),
   midi.NoteOnEvent(tick=0, channel=0, data=[72, 0]),
   midi.NoteOnEvent(tick=0, channel=0, data=[72, 110]),
   midi.NoteOnEvent(tick=0, channel=0, data=[67, 110]),
   midi.NoteOnEvent(tick=0, channel=0, data=[74, 110]),
   midi.NoteOnEvent(tick=240, channel=0, data=[72, 0]),
   midi.NoteOnEvent(tick=0, channel=0, data=[71, 110]),
   midi.NoteOnEvent(tick=480, channel=0, data=[71, 0]),
   midi.NoteOnEvent(tick=0, channel=0, data=[74, 0]),
   midi.NoteOnEvent(tick=0, channel=0, data=[67, 0]),
   midi.NoteOnEvent(tick=0, channel=0, data=[68, 110]),
   midi.NoteOnEvent(tick=0, channel=0, data=[74, 110]),
   midi.NoteOnEvent(tick=0, channel=0, data=[77, 110]),
   midi.NoteOnEvent(tick=480, channel=0, data=[77, 0]),
   midi.NoteOnEvent(tick=0, channel=0, data=[74, 0]),
   midi.NoteOnEvent(tick=0, channel=0, data=[68, 0]),
   midi.NoteOnEvent(tick=180, channel=0, data=[68, 110]),
   midi.NoteOnEvent(tick=0, channel=0, data=[74, 110]),
   midi.NoteOnEvent(tick=0, channel=0, data=[77, 110]),
   midi.NoteOnEvent(tick=60, channel=0, data=[77, 0]),
   midi.NoteOnEvent(tick=0, channel=0, data=[74, 0]),
   midi.NoteOnEvent(tick=0, channel=0, data=[68, 0]),
   midi.NoteOnEvent(tick=0, channel=0, data=[74, 110]),
   midi.NoteOnEvent(tick=0, channel=0, data=[67, 110]),
   midi.NoteOnEvent(tick=0, channel=0, data=[75, 110]),
   midi.NoteOnEvent(tick=240, channel=0, data=[74, 0]),
   midi.NoteOnEvent(tick=0, channel=0, data=[72, 110]),
   midi.NoteOnEvent(tick=480, channel=0, data=[72, 0]),
   midi.NoteOnEvent(tick=0, channel=0, data=[75, 0]),
   midi.NoteOnEvent(tick=0, channel=0, data=[67, 0]),
   midi.NoteOnEvent(tick=0, channel=0, data=[76, 110]),
   midi.NoteOnEvent(tick=0, channel=0, data=[70, 110]),
   midi.NoteOnEvent(tick=0, channel=0, data=[79, 110]),
   midi.NoteOnEvent(tick=480, channel=0, data=[79, 0]),
   midi.NoteOnEvent(tick=0, channel=0, data=[70, 0]),
   midi.NoteOnEvent(tick=0, channel=0, data=[76, 0]),
   midi.NoteOnEvent(tick=180, channel=0, data=[70, 110]),
   midi.NoteOnEvent(tick=0, channel=0, data=[76, 110]),
   midi.NoteOnEvent(tick=0, channel=0, data=[79, 110]),
   midi.NoteOnEvent(tick=60, channel=0, data=[79, 0]),
   midi.NoteOnEvent(tick=0, channel=0, data=[76, 0]),
   midi.NoteOnEvent(tick=0, channel=0, data=[70, 0]),
   midi.NoteOnEvent(tick=0, channel=0, data=[69, 110]),
   midi.NoteOnEvent(tick=0, channel=0, data=[76, 110]),
   midi.NoteOnEvent(tick=0, channel=0, data=[79, 110]),
   midi.NoteOnEvent(tick=240, channel=0, data=[79, 0]),
   midi.NoteOnEvent(tick=0, channel=0, data=[76, 0]),
   midi.NoteOnEvent(tick=0, channel=0, data=[74, 110]),
   midi.NoteOnEvent(tick=0, channel=0, data=[77, 110]),
   midi.NoteOnEvent(tick=480, channel=0, data=[77, 0]),
   midi.NoteOnEvent(tick=0, channel=0, data=[74, 0]),
   midi.NoteOnEvent(tick=0, channel=0, data=[69, 0]),
   midi.NoteOnEvent(tick=0, channel=0, data=[63, 110]),
   midi.NoteOnEvent(tick=0, channel=0, data=[70, 110]),
   midi.NoteOnEvent(tick=0, channel=0, data=[75, 110]),
   midi.NoteOnEvent(tick=480, channel=0, data=[75, 0]),
   midi.NoteOnEvent(tick=0, channel=0, data=[70, 0]),
   midi.NoteOnEvent(tick=0, channel=0, data=[63, 0]),
   midi.NoteOnEvent(tick=180, channel=0, data=[63, 110]),
   midi.NoteOnEvent(tick=0, channel=0, data=[70, 110]),
   midi.NoteOnEvent(tick=0, channel=0, data=[75, 110]),
   midi.NoteOnEvent(tick=60, channel=0, data=[75, 0]),
   midi.NoteOnEvent(tick=0, channel=0, data=[70, 0]),
   midi.NoteOnEvent(tick=0, channel=0, data=[63, 0]),
   midi.NoteOnEvent(tick=0, channel=0, data=[63, 110]),
   midi.NoteOnEvent(tick=0, channel=0, data=[70, 110]),
   midi.NoteOnEvent(tick=0, channel=0, data=[75, 110]),
   midi.NoteOnEvent(tick=240, channel=0, data=[75, 0]),
   midi.NoteOnEvent(tick=0, channel=0, data=[63, 0]),
   midi.NoteOnEvent(tick=0, channel=0, data=[64, 110]),
   midi.NoteOnEvent(tick=0, channel=0, data=[73, 110]),
   midi.NoteOnEvent(tick=240, channel=0, data=[70, 0]),
   midi.NoteOnEvent(tick=0, channel=0, data=[69, 110]),
   midi.NoteOnEvent(tick=120, channel=0, data=[69, 0]),
   midi.NoteOnEvent(tick=0, channel=0, data=[67, 110]),
   midi.NoteOnEvent(tick=120, channel=0, data=[67, 0]),
   midi.NoteOnEvent(tick=0, channel=0, data=[73, 0]),
   midi.NoteOnEvent(tick=0, channel=0, data=[64, 0]),
   midi.NoteOnEvent(tick=0, channel=0, data=[62, 110]),
   midi.NoteOnEvent(tick=0, channel=0, data=[65, 110]),
   midi.NoteOnEvent(tick=0, channel=0, data=[74, 110]),
   midi.NoteOnEvent(tick=720, channel=0, data=[74, 0]),
   midi.NoteOnEvent(tick=0, channel=0, data=[65, 0]),
   midi.NoteOnEvent(tick=0, channel=0, data=[62, 0]),
   midi.NoteOnEvent(tick=0, channel=0, data=[63, 110]),
   midi.NoteOnEvent(tick=0, channel=0, data=[72, 110]),
   midi.NoteOnEvent(tick=0, channel=0, data=[81, 110]),
   midi.NoteOnEvent(tick=480, channel=0, data=[81, 0]),
   midi.NoteOnEvent(tick=0, channel=0, data=[72, 0]),
   midi.NoteOnEvent(tick=0, channel=0, data=[63, 0]),
   midi.NoteOnEvent(tick=180, channel=0, data=[63, 110]),
   midi.NoteOnEvent(tick=0, channel=0, data=[72, 110]),
   midi.NoteOnEvent(tick=0, channel=0, data=[81, 110]),
   midi.NoteOnEvent(tick=60, channel=0, data=[81, 0]),
   midi.NoteOnEvent(tick=0, channel=0, data=[72, 0]),
   midi.NoteOnEvent(tick=0, channel=0, data=[63, 0]),
   midi.NoteOnEvent(tick=0, channel=0, data=[62, 110]),
   midi.NoteOnEvent(tick=0, channel=0, data=[70, 110]),
   midi.NoteOnEvent(tick=0, channel=0, data=[81, 110]),
   midi.NoteOnEvent(tick=240, channel=0, data=[81, 0]),
   midi.NoteOnEvent(tick=0, channel=0, data=[79, 110]),
   midi.NoteOnEvent(tick=480, channel=0, data=[79, 0]),
   midi.NoteOnEvent(tick=0, channel=0, data=[70, 0]),
   midi.NoteOnEvent(tick=0, channel=0, data=[62, 0]),
   midi.NoteOnEvent(tick=0, channel=0, data=[62, 110]),
   midi.NoteOnEvent(tick=0, channel=0, data=[68, 110]),
   midi.NoteOnEvent(tick=0, channel=0, data=[77, 110]),
   midi.NoteOnEvent(tick=480, channel=0, data=[77, 0]),
   midi.NoteOnEvent(tick=0, channel=0, data=[68, 0]),
   midi.NoteOnEvent(tick=0, channel=0, data=[62, 0]),
   midi.NoteOnEvent(tick=180, channel=0, data=[62, 110]),
   midi.NoteOnEvent(tick=0, channel=0, data=[68, 110]),
   midi.NoteOnEvent(tick=0, channel=0, data=[77, 110]),
   midi.NoteOnEvent(tick=60, channel=0, data=[77, 0]),
   midi.NoteOnEvent(tick=0, channel=0, data=[68, 0]),
   midi.NoteOnEvent(tick=0, channel=0, data=[62, 0]),
   midi.NoteOnEvent(tick=0, channel=0, data=[62, 110]),
   midi.NoteOnEvent(tick=0, channel=0, data=[67, 110]),
   midi.NoteOnEvent(tick=0, channel=0, data=[77, 110]),
   midi.NoteOnEvent(tick=240, channel=0, data=[77, 0]),
   midi.NoteOnEvent(tick=0, channel=0, data=[62, 0]),
   midi.NoteOnEvent(tick=0, channel=0, data=[60, 110]),
   midi.NoteOnEvent(tick=0, channel=0, data=[75, 110]),
   midi.NoteOnEvent(tick=480, channel=0, data=[75, 0]),
   midi.NoteOnEvent(tick=0, channel=0, data=[60, 0]),
   midi.NoteOnEvent(tick=0, channel=0, data=[67, 0]),
   midi.NoteOnEvent(tick=0, channel=0, data=[64, 110]),
   midi.NoteOnEvent(tick=0, channel=0, data=[67, 110]),
   midi.NoteOnEvent(tick=0, channel=0, data=[70, 110]),
   midi.NoteOnEvent(tick=480, channel=0, data=[70, 0]),
   midi.NoteOnEvent(tick=0, channel=0, data=[67, 0]),
   midi.NoteOnEvent(tick=0, channel=0, data=[64, 0]),
   midi.EndOfTrackEvent(tick=0, data=[])]),
 midi.Track(\
  [midi.PortEvent(tick=0, data=[0]),
   midi.TrackNameEvent(tick=0, text='Strings', data=[83, 116, 114, 105, 110, 103, 115]),
   midi.ProgramChangeEvent(tick=0, channel=1, data=[49]),
   midi.ControlChangeEvent(tick=0, channel=1, data=[7, 110]),
   midi.ControlChangeEvent(tick=0, channel=1, data=[10, 40]),
   midi.NoteOnEvent(tick=6480, channel=1, data=[74, 90]),
   midi.NoteOnEvent(tick=240, channel=1, data=[74, 0]),
   midi.NoteOnEvent(tick=0, channel=1, data=[72, 90]),
   midi.NoteOnEvent(tick=180, channel=1, data=[72, 0]),
   midi.NoteOnEvent(tick=0, channel=1, data=[70, 90]),
   midi.NoteOnEvent(tick=60, channel=1, data=[70, 0]),
   midi.NoteOnEvent(tick=0, channel=1, data=[69, 90]),
   midi.NoteOnEvent(tick=180, channel=1, data=[69, 0]),
   midi.NoteOnEvent(tick=0, channel=1, data=[67, 90]),
   midi.NoteOnEvent(tick=60, channel=1, data=[67, 0]),
   midi.NoteOnEvent(tick=0, channel=1, data=[67, 90]),
   midi.NoteOnEvent(tick=480, channel=1, data=[67, 0]),
   midi.NoteOnEvent(tick=0, channel=1, data=[66, 90]),
   midi.NoteOnEvent(tick=240, channel=1, data=[66, 0]),
   midi.NoteOnEvent(tick=0, channel=1, data=[75, 90]),
   midi.NoteOnEvent(tick=240, channel=1, data=[75, 0]),
   midi.NoteOnEvent(tick=0, channel=1, data=[74, 90]),
   midi.NoteOnEvent(tick=180, channel=1, data=[74, 0]),
   midi.NoteOnEvent(tick=0, channel=1, data=[72, 90]),
   midi.NoteOnEvent(tick=60, channel=1, data=[72, 0]),
   midi.NoteOnEvent(tick=0, channel=1, data=[70, 90]),
   midi.NoteOnEvent(tick=180, channel=1, data=[70, 0]),
   midi.NoteOnEvent(tick=0, channel=1, data=[69, 90]),
   midi.NoteOnEvent(tick=60, channel=1, data=[69, 0]),
   midi.NoteOnEvent(tick=0, channel=1, data=[69, 90]),
   midi.NoteOnEvent(tick=480, channel=1, data=[69, 0]),
   midi.NoteOnEvent(tick=0, channel=1, data=[67, 90]),
   midi.NoteOnEvent(tick=240, channel=1, data=[67, 0]),
   midi.NoteOnEvent(tick=0, channel=1, data=[79, 90]),
   midi.NoteOnEvent(tick=240, channel=1, data=[79, 0]),
   midi.NoteOnEvent(tick=0, channel=1, data=[77, 90]),
   midi.NoteOnEvent(tick=120, channel=1, data=[77, 0]),
   midi.NoteOnEvent(tick=0, channel=1, data=[79, 90]),
   midi.NoteOnEvent(tick=120, channel=1, data=[79, 0]),
   midi.NoteOnEvent(tick=0, channel=1, data=[75, 90]),
   midi.NoteOnEvent(tick=80, channel=1, data=[75, 0]),
   midi.NoteOnEvent(tick=0, channel=1, data=[77, 90]),
   midi.NoteOnEvent(tick=80, channel=1, data=[77, 0]),
   midi.NoteOnEvent(tick=0, channel=1, data=[74, 90]),
   midi.NoteOnEvent(tick=80, channel=1, data=[74, 0]),
   midi.NoteOnEvent(tick=0, channel=1, data=[75, 90]),
   midi.NoteOnEvent(tick=720, channel=1, data=[75, 0]),
   midi.NoteOnEvent(tick=0, channel=1, data=[77, 90]),
   midi.NoteOnEvent(tick=240, channel=1, data=[77, 0]),
   midi.NoteOnEvent(tick=0, channel=1, data=[75, 90]),
   midi.NoteOnEvent(tick=120, channel=1, data=[75, 0]),
   midi.NoteOnEvent(tick=0, channel=1, data=[77, 90]),
   midi.NoteOnEvent(tick=120, channel=1, data=[77, 0]),
   midi.NoteOnEvent(tick=0, channel=1, data=[74, 90]),
   midi.NoteOnEvent(tick=80, channel=1, data=[74, 0]),
   midi.NoteOnEvent(tick=0, channel=1, data=[75, 90]),
   midi.NoteOnEvent(tick=80, channel=1, data=[75, 0]),
   midi.NoteOnEvent(tick=0, channel=1, data=[72, 90]),
   midi.NoteOnEvent(tick=80, channel=1, data=[72, 0]),
   midi.NoteOnEvent(tick=0, channel=1, data=[74, 90]),
   midi.NoteOnEvent(tick=720, channel=1, data=[74, 0]),
   midi.NoteOnEvent(tick=0, channel=1, data=[75, 90]),
   midi.NoteOnEvent(tick=240, channel=1, data=[75, 0]),
   midi.NoteOnEvent(tick=0, channel=1, data=[74, 90]),
   midi.NoteOnEvent(tick=120, channel=1, data=[74, 0]),
   midi.NoteOnEvent(tick=0, channel=1, data=[75, 90]),
   midi.NoteOnEvent(tick=120, channel=1, data=[75, 0]),
   midi.NoteOnEvent(tick=0, channel=1, data=[72, 90]),
   midi.NoteOnEvent(tick=80, channel=1, data=[72, 0]),
   midi.NoteOnEvent(tick=0, channel=1, data=[74, 90]),
   midi.NoteOnEvent(tick=80, channel=1, data=[74, 0]),
   midi.NoteOnEvent(tick=0, channel=1, data=[70, 90]),
   midi.NoteOnEvent(tick=80, channel=1, data=[70, 0]),
   midi.NoteOnEvent(tick=0, channel=1, data=[72, 90]),
   midi.NoteOnEvent(tick=720, channel=1, data=[72, 0]),
   midi.NoteOnEvent(tick=0, channel=1, data=[74, 90]),
   midi.NoteOnEvent(tick=480, channel=1, data=[74, 0]),
   midi.NoteOnEvent(tick=0, channel=1, data=[75, 90]),
   midi.NoteOnEvent(tick=240, channel=1, data=[75, 0]),
   midi.NoteOnEvent(tick=0, channel=1, data=[74, 90]),
   midi.NoteOnEvent(tick=1200, channel=1, data=[74, 0]),
   midi.NoteOnEvent(tick=120, channel=1, data=[79, 90]),
   midi.NoteOnEvent(tick=120, channel=1, data=[79, 0]),
   midi.NoteOnEvent(tick=0, channel=1, data=[81, 90]),
   midi.NoteOnEvent(tick=120, channel=1, data=[81, 0]),
   midi.NoteOnEvent(tick=0, channel=1, data=[82, 90]),
   midi.NoteOnEvent(tick=120, channel=1, data=[82, 0]),
   midi.NoteOnEvent(tick=0, channel=1, data=[81, 90]),
   midi.NoteOnEvent(tick=120, channel=1, data=[81, 0]),
   midi.NoteOnEvent(tick=0, channel=1, data=[79, 90]),
   midi.NoteOnEvent(tick=120, channel=1, data=[79, 0]),
   midi.NoteOnEvent(tick=0, channel=1, data=[78, 90]),
   midi.NoteOnEvent(tick=120, channel=1, data=[78, 0]),
   midi.NoteOnEvent(tick=0, channel=1, data=[79, 90]),
   midi.NoteOnEvent(tick=120, channel=1, data=[79, 0]),
   midi.NoteOnEvent(tick=0, channel=1, data=[77, 90]),
   midi.NoteOnEvent(tick=720, channel=1, data=[77, 0]),
   midi.NoteOnEvent(tick=0, channel=1, data=[75, 90]),
   midi.NoteOnEvent(tick=360, channel=1, data=[75, 0]),
   midi.NoteOnEvent(tick=0, channel=1, data=[72, 90]),
   midi.NoteOnEvent(tick=120, channel=1, data=[72, 0]),
   midi.NoteOnEvent(tick=0, channel=1, data=[75, 90]),
   midi.NoteOnEvent(tick=180, channel=1, data=[75, 0]),
   midi.NoteOnEvent(tick=0, channel=1, data=[79, 90]),
   midi.NoteOnEvent(tick=60, channel=1, data=[79, 0]),
   midi.NoteOnEvent(tick=0, channel=1, data=[74, 90]),
   midi.NoteOnEvent(tick=360, channel=1, data=[74, 0]),
   midi.NoteOnEvent(tick=0, channel=1, data=[70, 90]),
   midi.NoteOnEvent(tick=120, channel=1, data=[70, 0]),
   midi.NoteOnEvent(tick=0, channel=1, data=[74, 90]),
   midi.NoteOnEvent(tick=180, channel=1, data=[74, 0]),
   midi.NoteOnEvent(tick=0, channel=1, data=[79, 90]),
   midi.NoteOnEvent(tick=60, channel=1, data=[79, 0]),
   midi.NoteOnEvent(tick=0, channel=1, data=[72, 90]),
   midi.NoteOnEvent(tick=720, channel=1, data=[72, 0]),
   midi.NoteOnEvent(tick=0, channel=1, data=[70, 90]),
   midi.NoteOnEvent(tick=720, channel=1, data=[70, 0]),
   midi.NoteOnEvent(tick=0, channel=1, data=[69, 90]),
   midi.NoteOnEvent(tick=720, channel=1, data=[69, 0]),
   midi.NoteOnEvent(tick=0, channel=1, data=[67, 90]),
   midi.NoteOnEvent(tick=720, channel=1, data=[67, 0]),
   midi.NoteOnEvent(tick=5040, channel=1, data=[74, 90]),
   midi.NoteOnEvent(tick=240, channel=1, data=[74, 0]),
   midi.NoteOnEvent(tick=0, channel=1, data=[72, 90]),
   midi.NoteOnEvent(tick=180, channel=1, data=[72, 0]),
   midi.NoteOnEvent(tick=0, channel=1, data=[70, 90]),
   midi.NoteOnEvent(tick=60, channel=1, data=[70, 0]),
   midi.NoteOnEvent(tick=0, channel=1, data=[69, 90]),
   midi.NoteOnEvent(tick=180, channel=1, data=[69, 0]),
   midi.NoteOnEvent(tick=0, channel=1, data=[67, 90]),
   midi.NoteOnEvent(tick=60, channel=1, data=[67, 0]),
   midi.NoteOnEvent(tick=0, channel=1, data=[67, 90]),
   midi.NoteOnEvent(tick=480, channel=1, data=[67, 0]),
   midi.NoteOnEvent(tick=0, channel=1, data=[66, 90]),
   midi.NoteOnEvent(tick=240, channel=1, data=[66, 0]),
   midi.NoteOnEvent(tick=0, channel=1, data=[75, 90]),
   midi.NoteOnEvent(tick=240, channel=1, data=[75, 0]),
   midi.NoteOnEvent(tick=0, channel=1, data=[74, 90]),
   midi.NoteOnEvent(tick=180, channel=1, data=[74, 0]),
   midi.NoteOnEvent(tick=0, channel=1, data=[72, 90]),
   midi.NoteOnEvent(tick=60, channel=1, data=[72, 0]),
   midi.NoteOnEvent(tick=0, channel=1, data=[70, 90]),
   midi.NoteOnEvent(tick=180, channel=1, data=[70, 0]),
   midi.NoteOnEvent(tick=0, channel=1, data=[69, 90]),
   midi.NoteOnEvent(tick=60, channel=1, data=[69, 0]),
   midi.NoteOnEvent(tick=0, channel=1, data=[69, 90]),
   midi.NoteOnEvent(tick=480, channel=1, data=[69, 0]),
   midi.NoteOnEvent(tick=0, channel=1, data=[67, 90]),
   midi.NoteOnEvent(tick=240, channel=1, data=[67, 0]),
   midi.NoteOnEvent(tick=0, channel=1, data=[79, 90]),
   midi.NoteOnEvent(tick=240, channel=1, data=[79, 0]),
   midi.NoteOnEvent(tick=0, channel=1, data=[77, 90]),
   midi.NoteOnEvent(tick=120, channel=1, data=[77, 0]),
   midi.NoteOnEvent(tick=0, channel=1, data=[79, 90]),
   midi.NoteOnEvent(tick=120, channel=1, data=[79, 0]),
   midi.NoteOnEvent(tick=0, channel=1, data=[75, 90]),
   midi.NoteOnEvent(tick=80, channel=1, data=[75, 0]),
   midi.NoteOnEvent(tick=0, channel=1, data=[77, 90]),
   midi.NoteOnEvent(tick=80, channel=1, data=[77, 0]),
   midi.NoteOnEvent(tick=0, channel=1, data=[74, 90]),
   midi.NoteOnEvent(tick=80, channel=1, data=[74, 0]),
   midi.NoteOnEvent(tick=0, channel=1, data=[75, 90]),
   midi.NoteOnEvent(tick=720, channel=1, data=[75, 0]),
   midi.NoteOnEvent(tick=0, channel=1, data=[77, 90]),
   midi.NoteOnEvent(tick=240, channel=1, data=[77, 0]),
   midi.NoteOnEvent(tick=0, channel=1, data=[75, 90]),
   midi.NoteOnEvent(tick=120, channel=1, data=[75, 0]),
   midi.NoteOnEvent(tick=0, channel=1, data=[77, 90]),
   midi.NoteOnEvent(tick=120, channel=1, data=[77, 0]),
   midi.NoteOnEvent(tick=0, channel=1, data=[74, 90]),
   midi.NoteOnEvent(tick=80, channel=1, data=[74, 0]),
   midi.NoteOnEvent(tick=0, channel=1, data=[75, 90]),
   midi.NoteOnEvent(tick=80, channel=1, data=[75, 0]),
   midi.NoteOnEvent(tick=0, channel=1, data=[72, 90]),
   midi.NoteOnEvent(tick=80, channel=1, data=[72, 0]),
   midi.NoteOnEvent(tick=0, channel=1, data=[74, 90]),
   midi.NoteOnEvent(tick=720, channel=1, data=[74, 0]),
   midi.NoteOnEvent(tick=0, channel=1, data=[75, 90]),
   midi.NoteOnEvent(tick=240, channel=1, data=[75, 0]),
   midi.NoteOnEvent(tick=0, channel=1, data=[74, 90]),
   midi.NoteOnEvent(tick=120, channel=1, data=[74, 0]),
   midi.NoteOnEvent(tick=0, channel=1, data=[75, 90]),
   midi.NoteOnEvent(tick=120, channel=1, data=[75, 0]),
   midi.NoteOnEvent(tick=0, channel=1, data=[72, 90]),
   midi.NoteOnEvent(tick=80, channel=1, data=[72, 0]),
   midi.NoteOnEvent(tick=0, channel=1, data=[74, 90]),
   midi.NoteOnEvent(tick=80, channel=1, data=[74, 0]),
   midi.NoteOnEvent(tick=0, channel=1, data=[70, 90]),
   midi.NoteOnEvent(tick=80, channel=1, data=[70, 0]),
   midi.NoteOnEvent(tick=0, channel=1, data=[72, 90]),
   midi.NoteOnEvent(tick=720, channel=1, data=[72, 0]),
   midi.NoteOnEvent(tick=0, channel=1, data=[74, 90]),
   midi.NoteOnEvent(tick=480, channel=1, data=[74, 0]),
   midi.NoteOnEvent(tick=0, channel=1, data=[75, 90]),
   midi.NoteOnEvent(tick=240, channel=1, data=[75, 0]),
   midi.NoteOnEvent(tick=0, channel=1, data=[74, 90]),
   midi.NoteOnEvent(tick=1200, channel=1, data=[74, 0]),
   midi.NoteOnEvent(tick=120, channel=1, data=[79, 90]),
   midi.NoteOnEvent(tick=120, channel=1, data=[79, 0]),
   midi.NoteOnEvent(tick=0, channel=1, data=[81, 90]),
   midi.NoteOnEvent(tick=120, channel=1, data=[81, 0]),
   midi.NoteOnEvent(tick=0, channel=1, data=[82, 90]),
   midi.NoteOnEvent(tick=120, channel=1, data=[82, 0]),
   midi.NoteOnEvent(tick=0, channel=1, data=[81, 90]),
   midi.NoteOnEvent(tick=120, channel=1, data=[81, 0]),
   midi.NoteOnEvent(tick=0, channel=1, data=[79, 90]),
   midi.NoteOnEvent(tick=120, channel=1, data=[79, 0]),
   midi.NoteOnEvent(tick=0, channel=1, data=[78, 90]),
   midi.NoteOnEvent(tick=120, channel=1, data=[78, 0]),
   midi.NoteOnEvent(tick=0, channel=1, data=[79, 90]),
   midi.NoteOnEvent(tick=120, channel=1, data=[79, 0]),
   midi.NoteOnEvent(tick=0, channel=1, data=[77, 90]),
   midi.NoteOnEvent(tick=720, channel=1, data=[77, 0]),
   midi.NoteOnEvent(tick=0, channel=1, data=[75, 90]),
   midi.NoteOnEvent(tick=360, channel=1, data=[75, 0]),
   midi.NoteOnEvent(tick=0, channel=1, data=[72, 90]),
   midi.NoteOnEvent(tick=120, channel=1, data=[72, 0]),
   midi.NoteOnEvent(tick=0, channel=1, data=[75, 90]),
   midi.NoteOnEvent(tick=180, channel=1, data=[75, 0]),
   midi.NoteOnEvent(tick=0, channel=1, data=[79, 90]),
   midi.NoteOnEvent(tick=60, channel=1, data=[79, 0]),
   midi.NoteOnEvent(tick=0, channel=1, data=[74, 90]),
   midi.NoteOnEvent(tick=360, channel=1, data=[74, 0]),
   midi.NoteOnEvent(tick=0, channel=1, data=[70, 90]),
   midi.NoteOnEvent(tick=120, channel=1, data=[70, 0]),
   midi.NoteOnEvent(tick=0, channel=1, data=[74, 90]),
   midi.NoteOnEvent(tick=180, channel=1, data=[74, 0]),
   midi.NoteOnEvent(tick=0, channel=1, data=[79, 90]),
   midi.NoteOnEvent(tick=60, channel=1, data=[79, 0]),
   midi.NoteOnEvent(tick=0, channel=1, data=[72, 90]),
   midi.NoteOnEvent(tick=720, channel=1, data=[72, 0]),
   midi.NoteOnEvent(tick=0, channel=1, data=[70, 90]),
   midi.NoteOnEvent(tick=720, channel=1, data=[70, 0]),
   midi.NoteOnEvent(tick=0, channel=1, data=[69, 90]),
   midi.NoteOnEvent(tick=720, channel=1, data=[69, 0]),
   midi.NoteOnEvent(tick=0, channel=1, data=[67, 54]),
   midi.NoteOnEvent(tick=1080, channel=1, data=[67, 0]),
   midi.NoteOnEvent(tick=12960, channel=1, data=[72, 110]),
   midi.NoteOnEvent(tick=120, channel=1, data=[72, 0]),
   midi.NoteOnEvent(tick=0, channel=1, data=[74, 110]),
   midi.NoteOnEvent(tick=120, channel=1, data=[74, 0]),
   midi.NoteOnEvent(tick=0, channel=1, data=[75, 110]),
   midi.NoteOnEvent(tick=120, channel=1, data=[75, 0]),
   midi.NoteOnEvent(tick=0, channel=1, data=[75, 110]),
   midi.NoteOnEvent(tick=60, channel=1, data=[75, 0]),
   midi.NoteOnEvent(tick=0, channel=1, data=[74, 108]),
   midi.NoteOnEvent(tick=60, channel=1, data=[74, 0]),
   midi.NoteOnEvent(tick=0, channel=1, data=[77, 107]),
   midi.NoteOnEvent(tick=60, channel=1, data=[77, 0]),
   midi.NoteOnEvent(tick=0, channel=1, data=[75, 105]),
   midi.NoteOnEvent(tick=60, channel=1, data=[75, 0]),
   midi.NoteOnEvent(tick=0, channel=1, data=[75, 103]),
   midi.NoteOnEvent(tick=60, channel=1, data=[75, 0]),
   midi.NoteOnEvent(tick=0, channel=1, data=[74, 102]),
   midi.NoteOnEvent(tick=60, channel=1, data=[74, 0]),
   midi.NoteOnEvent(tick=0, channel=1, data=[74, 100]),
   midi.NoteOnEvent(tick=60, channel=1, data=[74, 0]),
   midi.NoteOnEvent(tick=0, channel=1, data=[72, 98]),
   midi.NoteOnEvent(tick=60, channel=1, data=[72, 0]),
   midi.NoteOnEvent(tick=0, channel=1, data=[72, 97]),
   midi.NoteOnEvent(tick=60, channel=1, data=[72, 0]),
   midi.NoteOnEvent(tick=0, channel=1, data=[71, 95]),
   midi.NoteOnEvent(tick=60, channel=1, data=[71, 0]),
   midi.NoteOnEvent(tick=0, channel=1, data=[71, 93]),
   midi.NoteOnEvent(tick=60, channel=1, data=[71, 0]),
   midi.NoteOnEvent(tick=0, channel=1, data=[72, 92]),
   midi.NoteOnEvent(tick=60, channel=1, data=[72, 0]),
   midi.NoteOnEvent(tick=0, channel=1, data=[71, 90]),
   midi.NoteOnEvent(tick=30, channel=1, data=[71, 0]),
   midi.NoteOnEvent(tick=0, channel=1, data=[72, 90]),
   midi.NoteOnEvent(tick=30, channel=1, data=[72, 0]),
   midi.NoteOnEvent(tick=0, channel=1, data=[74, 90]),
   midi.NoteOnEvent(tick=540, channel=1, data=[74, 0]),
   midi.NoteOnEvent(tick=0, channel=1, data=[72, 90]),
   midi.NoteOnEvent(tick=120, channel=1, data=[72, 0]),
   midi.NoteOnEvent(tick=0, channel=1, data=[72, 80]),
   midi.NoteOnEvent(tick=720, channel=1, data=[72, 0]),
   midi.NoteOnEvent(tick=5760, channel=1, data=[79, 110]),
   midi.NoteOnEvent(tick=240, channel=1, data=[79, 0]),
   midi.NoteOnEvent(tick=0, channel=1, data=[77, 110]),
   midi.NoteOnEvent(tick=180, channel=1, data=[77, 0]),
   midi.NoteOnEvent(tick=0, channel=1, data=[75, 110]),
   midi.NoteOnEvent(tick=60, channel=1, data=[75, 0]),
   midi.NoteOnEvent(tick=0, channel=1, data=[74, 110]),
   midi.NoteOnEvent(tick=180, channel=1, data=[74, 0]),
   midi.NoteOnEvent(tick=0, channel=1, data=[72, 110]),
   midi.NoteOnEvent(tick=60, channel=1, data=[72, 0]),
   midi.NoteOnEvent(tick=0, channel=1, data=[72, 110]),
   midi.NoteOnEvent(tick=480, channel=1, data=[72, 0]),
   midi.NoteOnEvent(tick=0, channel=1, data=[71, 110]),
   midi.NoteOnEvent(tick=240, channel=1, data=[71, 0]),
   midi.NoteOnEvent(tick=0, channel=1, data=[80, 110]),
   midi.NoteOnEvent(tick=240, channel=1, data=[80, 0]),
   midi.NoteOnEvent(tick=0, channel=1, data=[79, 110]),
   midi.NoteOnEvent(tick=180, channel=1, data=[79, 0]),
   midi.NoteOnEvent(tick=0, channel=1, data=[77, 110]),
   midi.NoteOnEvent(tick=60, channel=1, data=[77, 0]),
   midi.NoteOnEvent(tick=0, channel=1, data=[75, 110]),
   midi.NoteOnEvent(tick=180, channel=1, data=[75, 0]),
   midi.NoteOnEvent(tick=0, channel=1, data=[74, 110]),
   midi.NoteOnEvent(tick=60, channel=1, data=[74, 0]),
   midi.NoteOnEvent(tick=0, channel=1, data=[74, 110]),
   midi.NoteOnEvent(tick=480, channel=1, data=[74, 0]),
   midi.NoteOnEvent(tick=0, channel=1, data=[72, 110]),
   midi.NoteOnEvent(tick=240, channel=1, data=[72, 0]),
   midi.NoteOnEvent(tick=0, channel=1, data=[84, 110]),
   midi.NoteOnEvent(tick=240, channel=1, data=[84, 0]),
   midi.NoteOnEvent(tick=0, channel=1, data=[82, 110]),
   midi.NoteOnEvent(tick=120, channel=1, data=[82, 0]),
   midi.NoteOnEvent(tick=0, channel=1, data=[84, 110]),
   midi.NoteOnEvent(tick=120, channel=1, data=[84, 0]),
   midi.NoteOnEvent(tick=0, channel=1, data=[80, 110]),
   midi.NoteOnEvent(tick=80, channel=1, data=[80, 0]),
   midi.NoteOnEvent(tick=0, channel=1, data=[82, 110]),
   midi.NoteOnEvent(tick=80, channel=1, data=[82, 0]),
   midi.NoteOnEvent(tick=0, channel=1, data=[79, 110]),
   midi.NoteOnEvent(tick=80, channel=1, data=[79, 0]),
   midi.NoteOnEvent(tick=0, channel=1, data=[80, 110]),
   midi.NoteOnEvent(tick=720, channel=1, data=[80, 0]),
   midi.NoteOnEvent(tick=0, channel=1, data=[82, 110]),
   midi.NoteOnEvent(tick=240, channel=1, data=[82, 0]),
   midi.NoteOnEvent(tick=0, channel=1, data=[80, 110]),
   midi.NoteOnEvent(tick=120, channel=1, data=[80, 0]),
   midi.NoteOnEvent(tick=0, channel=1, data=[82, 110]),
   midi.NoteOnEvent(tick=120, channel=1, data=[82, 0]),
   midi.NoteOnEvent(tick=0, channel=1, data=[79, 110]),
   midi.NoteOnEvent(tick=80, channel=1, data=[79, 0]),
   midi.NoteOnEvent(tick=0, channel=1, data=[80, 110]),
   midi.NoteOnEvent(tick=80, channel=1, data=[80, 0]),
   midi.NoteOnEvent(tick=0, channel=1, data=[77, 110]),
   midi.NoteOnEvent(tick=80, channel=1, data=[77, 0]),
   midi.NoteOnEvent(tick=0, channel=1, data=[79, 110]),
   midi.NoteOnEvent(tick=720, channel=1, data=[79, 0]),
   midi.NoteOnEvent(tick=0, channel=1, data=[77, 90]),
   midi.NoteOnEvent(tick=1080, channel=1, data=[77, 0]),
   midi.NoteOnEvent(tick=0, channel=1, data=[77, 90]),
   midi.NoteOnEvent(tick=120, channel=1, data=[77, 0]),
   midi.NoteOnEvent(tick=0, channel=1, data=[74, 90]),
   midi.NoteOnEvent(tick=180, channel=1, data=[74, 0]),
   midi.NoteOnEvent(tick=0, channel=1, data=[70, 90]),
   midi.NoteOnEvent(tick=60, channel=1, data=[70, 0]),
   midi.NoteOnEvent(tick=0, channel=1, data=[70, 90]),
   midi.NoteOnEvent(tick=240, channel=1, data=[70, 0]),
   midi.NoteOnEvent(tick=840, channel=1, data=[77, 90]),
   midi.NoteOnEvent(tick=120, channel=1, data=[77, 0]),
   midi.NoteOnEvent(tick=0, channel=1, data=[74, 90]),
   midi.NoteOnEvent(tick=180, channel=1, data=[74, 0]),
   midi.NoteOnEvent(tick=0, channel=1, data=[70, 90]),
   midi.NoteOnEvent(tick=60, channel=1, data=[70, 0]),
   midi.NoteOnEvent(tick=0, channel=1, data=[70, 90]),
   midi.NoteOnEvent(tick=240, channel=1, data=[70, 0]),
   midi.NoteOnEvent(tick=480, channel=1, data=[70, 90]),
   midi.NoteOnEvent(tick=1440, channel=1, data=[70, 0]),
   midi.NoteOnEvent(tick=840, channel=1, data=[79, 90]),
   midi.NoteOnEvent(tick=440, channel=1, data=[79, 0]),
   midi.NoteOnEvent(tick=0, channel=1, data=[75, 90]),
   midi.NoteOnEvent(tick=80, channel=1, data=[75, 0]),
   midi.NoteOnEvent(tick=0, channel=1, data=[72, 90]),
   midi.NoteOnEvent(tick=80, channel=1, data=[72, 0]),
   midi.NoteOnEvent(tick=0, channel=1, data=[70, 90]),
   midi.NoteOnEvent(tick=480, channel=1, data=[70, 0]),
   midi.NoteOnEvent(tick=0, channel=1, data=[68, 90]),
   midi.NoteOnEvent(tick=240, channel=1, data=[68, 0]),
   midi.NoteOnEvent(tick=0, channel=1, data=[77, 90]),
   midi.NoteOnEvent(tick=560, channel=1, data=[77, 0]),
   midi.NoteOnEvent(tick=0, channel=1, data=[74, 90]),
   midi.NoteOnEvent(tick=80, channel=1, data=[74, 0]),
   midi.NoteOnEvent(tick=0, channel=1, data=[70, 90]),
   midi.NoteOnEvent(tick=80, channel=1, data=[70, 0]),
   midi.NoteOnEvent(tick=0, channel=1, data=[68, 90]),
   midi.NoteOnEvent(tick=240, channel=1, data=[68, 0]),
   midi.NoteOnEvent(tick=0, channel=1, data=[67, 90]),
   midi.NoteOnEvent(tick=480, channel=1, data=[67, 0]),
   midi.NoteOnEvent(tick=0, channel=1, data=[65, 90]),
   midi.NoteOnEvent(tick=720, channel=1, data=[65, 0]),
   midi.NoteOnEvent(tick=0, channel=1, data=[67, 90]),
   midi.NoteOnEvent(tick=360, channel=1, data=[67, 0]),
   midi.NoteOnEvent(tick=0, channel=1, data=[72, 90]),
   midi.NoteOnEvent(tick=120, channel=1, data=[72, 0]),
   midi.NoteOnEvent(tick=0, channel=1, data=[67, 90]),
   midi.NoteOnEvent(tick=180, channel=1, data=[67, 0]),
   midi.NoteOnEvent(tick=0, channel=1, data=[63, 90]),
   midi.NoteOnEvent(tick=60, channel=1, data=[63, 0]),
   midi.NoteOnEvent(tick=0, channel=1, data=[60, 90]),
   midi.NoteOnEvent(tick=360, channel=1, data=[60, 0]),
   midi.NoteOnEvent(tick=360, channel=1, data=[60, 90]),
   midi.NoteOnEvent(tick=360, channel=1, data=[60, 0]),
   midi.NoteOnEvent(tick=0, channel=1, data=[72, 90]),
   midi.NoteOnEvent(tick=120, channel=1, data=[72, 0]),
   midi.NoteOnEvent(tick=0, channel=1, data=[67, 90]),
   midi.NoteOnEvent(tick=180, channel=1, data=[67, 0]),
   midi.NoteOnEvent(tick=0, channel=1, data=[63, 90]),
   midi.NoteOnEvent(tick=60, channel=1, data=[63, 0]),
   midi.NoteOnEvent(tick=0, channel=1, data=[60, 90]),
   midi.NoteOnEvent(tick=360, channel=1, data=[60, 0]),
   midi.NoteOnEvent(tick=720, channel=1, data=[72, 110]),
   midi.NoteOnEvent(tick=120, channel=1, data=[72, 0]),
   midi.NoteOnEvent(tick=0, channel=1, data=[71, 110]),
   midi.NoteOnEvent(tick=120, channel=1, data=[71, 0]),
   midi.NoteOnEvent(tick=0, channel=1, data=[72, 110]),
   midi.NoteOnEvent(tick=120, channel=1, data=[72, 0]),
   midi.NoteOnEvent(tick=0, channel=1, data=[73, 110]),
   midi.NoteOnEvent(tick=480, channel=1, data=[73, 0]),
   midi.NoteOnEvent(tick=0, channel=1, data=[73, 110]),
   midi.NoteOnEvent(tick=30, channel=1, data=[73, 0]),
   midi.NoteOnEvent(tick=0, channel=1, data=[75, 110]),
   midi.NoteOnEvent(tick=30, channel=1, data=[75, 0]),
   midi.NoteOnEvent(tick=0, channel=1, data=[77, 110]),
   midi.NoteOnEvent(tick=120, channel=1, data=[77, 0]),
   midi.NoteOnEvent(tick=0, channel=1, data=[75, 110]),
   midi.NoteOnEvent(tick=30, channel=1, data=[75, 0]),
   midi.NoteOnEvent(tick=0, channel=1, data=[73, 110]),
   midi.NoteOnEvent(tick=30, channel=1, data=[73, 0]),
   midi.NoteOnEvent(tick=0, channel=1, data=[72, 110]),
   midi.NoteOnEvent(tick=480, channel=1, data=[72, 0]),
   midi.NoteOnEvent(tick=120, channel=1, data=[84, 110]),
   midi.NoteOnEvent(tick=120, channel=1, data=[84, 0]),
   midi.NoteOnEvent(tick=0, channel=1, data=[86, 110]),
   midi.NoteOnEvent(tick=120, channel=1, data=[86, 0]),
   midi.NoteOnEvent(tick=0, channel=1, data=[87, 110]),
   midi.NoteOnEvent(tick=120, channel=1, data=[87, 0]),
   midi.NoteOnEvent(tick=0, channel=1, data=[86, 110]),
   midi.NoteOnEvent(tick=120, channel=1, data=[86, 0]),
   midi.NoteOnEvent(tick=0, channel=1, data=[84, 110]),
   midi.NoteOnEvent(tick=120, channel=1, data=[84, 0]),
   midi.NoteOnEvent(tick=0, channel=1, data=[83, 110]),
   midi.NoteOnEvent(tick=120, channel=1, data=[83, 0]),
   midi.NoteOnEvent(tick=0, channel=1, data=[84, 110]),
   midi.NoteOnEvent(tick=120, channel=1, data=[84, 0]),
   midi.NoteOnEvent(tick=0, channel=1, data=[82, 110]),
   midi.NoteOnEvent(tick=480, channel=1, data=[82, 0]),
   midi.NoteOnEvent(tick=0, channel=1, data=[82, 110]),
   midi.NoteOnEvent(tick=30, channel=1, data=[82, 0]),
   midi.NoteOnEvent(tick=0, channel=1, data=[84, 110]),
   midi.NoteOnEvent(tick=30, channel=1, data=[84, 0]),
   midi.NoteOnEvent(tick=0, channel=1, data=[85, 110]),
   midi.NoteOnEvent(tick=120, channel=1, data=[85, 0]),
   midi.NoteOnEvent(tick=0, channel=1, data=[84, 110]),
   midi.NoteOnEvent(tick=30, channel=1, data=[84, 0]),
   midi.NoteOnEvent(tick=0, channel=1, data=[82, 110]),
   midi.NoteOnEvent(tick=30, channel=1, data=[82, 0]),
   midi.NoteOnEvent(tick=0, channel=1, data=[80, 110]),
   midi.NoteOnEvent(tick=360, channel=1, data=[80, 0]),
   midi.NoteOnEvent(tick=0, channel=1, data=[77, 110]),
   midi.NoteOnEvent(tick=120, channel=1, data=[77, 0]),
   midi.NoteOnEvent(tick=0, channel=1, data=[80, 110]),
   midi.NoteOnEvent(tick=180, channel=1, data=[80, 0]),
   midi.NoteOnEvent(tick=0, channel=1, data=[84, 110]),
   midi.NoteOnEvent(tick=60, channel=1, data=[84, 0]),
   midi.NoteOnEvent(tick=0, channel=1, data=[79, 110]),
   midi.NoteOnEvent(tick=360, channel=1, data=[79, 0]),
   midi.NoteOnEvent(tick=0, channel=1, data=[75, 110]),
   midi.NoteOnEvent(tick=120, channel=1, data=[75, 0]),
   midi.NoteOnEvent(tick=0, channel=1, data=[79, 110]),
   midi.NoteOnEvent(tick=180, channel=1, data=[79, 0]),
   midi.NoteOnEvent(tick=0, channel=1, data=[84, 110]),
   midi.NoteOnEvent(tick=60, channel=1, data=[84, 0]),
   midi.NoteOnEvent(tick=0, channel=1, data=[77, 110]),
   midi.NoteOnEvent(tick=480, channel=1, data=[77, 0]),
   midi.NoteOnEvent(tick=0, channel=1, data=[77, 110]),
   midi.NoteOnEvent(tick=30, channel=1, data=[77, 0]),
   midi.NoteOnEvent(tick=0, channel=1, data=[79, 110]),
   midi.NoteOnEvent(tick=30, channel=1, data=[79, 0]),
   midi.NoteOnEvent(tick=0, channel=1, data=[80, 110]),
   midi.NoteOnEvent(tick=120, channel=1, data=[80, 0]),
   midi.NoteOnEvent(tick=0, channel=1, data=[79, 110]),
   midi.NoteOnEvent(tick=30, channel=1, data=[79, 0]),
   midi.NoteOnEvent(tick=0, channel=1, data=[77, 110]),
   midi.NoteOnEvent(tick=30, channel=1, data=[77, 0]),
   midi.NoteOnEvent(tick=0, channel=1, data=[75, 110]),
   midi.NoteOnEvent(tick=480, channel=1, data=[75, 0]),
   midi.NoteOnEvent(tick=0, channel=1, data=[75, 110]),
   midi.NoteOnEvent(tick=30, channel=1, data=[75, 0]),
   midi.NoteOnEvent(tick=0, channel=1, data=[77, 110]),
   midi.NoteOnEvent(tick=30, channel=1, data=[77, 0]),
   midi.NoteOnEvent(tick=0, channel=1, data=[79, 110]),
   midi.NoteOnEvent(tick=120, channel=1, data=[79, 0]),
   midi.NoteOnEvent(tick=0, channel=1, data=[77, 110]),
   midi.NoteOnEvent(tick=30, channel=1, data=[77, 0]),
   midi.NoteOnEvent(tick=0, channel=1, data=[75, 110]),
   midi.NoteOnEvent(tick=30, channel=1, data=[75, 0]),
   midi.NoteOnEvent(tick=0, channel=1, data=[74, 110]),
   midi.NoteOnEvent(tick=480, channel=1, data=[74, 0]),
   midi.NoteOnEvent(tick=0, channel=1, data=[74, 110]),
   midi.NoteOnEvent(tick=30, channel=1, data=[74, 0]),
   midi.NoteOnEvent(tick=0, channel=1, data=[75, 110]),
   midi.NoteOnEvent(tick=30, channel=1, data=[75, 0]),
   midi.NoteOnEvent(tick=0, channel=1, data=[77, 110]),
   midi.NoteOnEvent(tick=120, channel=1, data=[77, 0]),
   midi.NoteOnEvent(tick=0, channel=1, data=[75, 110]),
   midi.NoteOnEvent(tick=30, channel=1, data=[75, 0]),
   midi.NoteOnEvent(tick=0, channel=1, data=[74, 110]),
   midi.NoteOnEvent(tick=30, channel=1, data=[74, 0]),
   midi.NoteOnEvent(tick=0, channel=1, data=[72, 64]),
   midi.NoteOnEvent(tick=0, channel=1, data=[72, 64]),
   midi.NoteOnEvent(tick=576, channel=1, data=[72, 0]),
   midi.NoteOnEvent(tick=384, channel=1, data=[72, 110]),
   midi.NoteOnEvent(tick=480, channel=1, data=[72, 0]),
   midi.NoteOnEvent(tick=0, channel=1, data=[72, 110]),
   midi.NoteOnEvent(tick=30, channel=1, data=[72, 0]),
   midi.NoteOnEvent(tick=0, channel=1, data=[74, 110]),
   midi.NoteOnEvent(tick=30, channel=1, data=[74, 0]),
   midi.NoteOnEvent(tick=0, channel=1, data=[75, 110]),
   midi.NoteOnEvent(tick=180, channel=1, data=[72, 0]),
   midi.NoteOnEvent(tick=240, channel=1, data=[75, 0]),
   midi.NoteOnEvent(tick=9540, channel=1, data=[70, 90]),
   midi.NoteOnEvent(tick=60, channel=1, data=[70, 0]),
   midi.NoteOnEvent(tick=0, channel=1, data=[70, 90]),
   midi.NoteOnEvent(tick=720, channel=1, data=[70, 0]),
   midi.NoteOnEvent(tick=0, channel=1, data=[69, 100]),
   midi.NoteOnEvent(tick=30, channel=1, data=[69, 0]),
   midi.NoteOnEvent(tick=0, channel=1, data=[70, 100]),
   midi.NoteOnEvent(tick=30, channel=1, data=[70, 0]),
   midi.NoteOnEvent(tick=0, channel=1, data=[72, 100]),
   midi.NoteOnEvent(tick=660, channel=1, data=[72, 0]),
   midi.NoteOnEvent(tick=0, channel=1, data=[70, 100]),
   midi.NoteOnEvent(tick=30, channel=1, data=[70, 0]),
   midi.NoteOnEvent(tick=0, channel=1, data=[69, 100]),
   midi.NoteOnEvent(tick=30, channel=1, data=[69, 0]),
   midi.NoteOnEvent(tick=0, channel=1, data=[70, 100]),
   midi.NoteOnEvent(tick=660, channel=1, data=[70, 0]),
   midi.NoteOnEvent(tick=0, channel=1, data=[69, 100]),
   midi.NoteOnEvent(tick=30, channel=1, data=[69, 0]),
   midi.NoteOnEvent(tick=0, channel=1, data=[67, 100]),
   midi.NoteOnEvent(tick=30, channel=1, data=[67, 0]),
   midi.NoteOnEvent(tick=0, channel=1, data=[69, 100]),
   midi.NoteOnEvent(tick=500, channel=1, data=[69, 0]),
   midi.NoteOnEvent(tick=0, channel=1, data=[67, 100]),
   midi.NoteOnEvent(tick=80, channel=1, data=[67, 0]),
   midi.NoteOnEvent(tick=0, channel=1, data=[66, 100]),
   midi.NoteOnEvent(tick=80, channel=1, data=[66, 0]),
   midi.NoteOnEvent(tick=0, channel=1, data=[67, 80]),
   midi.NoteOnEvent(tick=2160, channel=1, data=[67, 0]),
   midi.EndOfTrackEvent(tick=0, data=[])]),
 midi.Track(\
  [midi.PortEvent(tick=0, data=[0]),
   midi.TrackNameEvent(tick=0, text='Strings', data=[83, 116, 114, 105, 110, 103, 115]),
   midi.ProgramChangeEvent(tick=0, channel=2, data=[49]),
   midi.ControlChangeEvent(tick=0, channel=2, data=[7, 110]),
   midi.ControlChangeEvent(tick=0, channel=2, data=[10, 35]),
   midi.NoteOnEvent(tick=7200, channel=2, data=[60, 90]),
   midi.NoteOnEvent(tick=180, channel=2, data=[60, 0]),
   midi.NoteOnEvent(tick=0, channel=2, data=[62, 90]),
   midi.NoteOnEvent(tick=60, channel=2, data=[62, 0]),
   midi.NoteOnEvent(tick=0, channel=2, data=[63, 90]),
   midi.NoteOnEvent(tick=180, channel=2, data=[63, 0]),
   midi.NoteOnEvent(tick=0, channel=2, data=[62, 90]),
   midi.NoteOnEvent(tick=60, channel=2, data=[62, 0]),
   midi.NoteOnEvent(tick=0, channel=2, data=[63, 90]),
   midi.NoteOnEvent(tick=180, channel=2, data=[63, 0]),
   midi.NoteOnEvent(tick=0, channel=2, data=[60, 90]),
   midi.NoteOnEvent(tick=60, channel=2, data=[60, 0]),
   midi.NoteOnEvent(tick=0, channel=2, data=[66, 90]),
   midi.NoteOnEvent(tick=360, channel=2, data=[66, 0]),
   midi.NoteOnEvent(tick=360, channel=2, data=[62, 90]),
   midi.NoteOnEvent(tick=180, channel=2, data=[62, 0]),
   midi.NoteOnEvent(tick=0, channel=2, data=[64, 90]),
   midi.NoteOnEvent(tick=60, channel=2, data=[64, 0]),
   midi.NoteOnEvent(tick=0, channel=2, data=[66, 90]),
   midi.NoteOnEvent(tick=180, channel=2, data=[66, 0]),
   midi.NoteOnEvent(tick=0, channel=2, data=[62, 90]),
   midi.NoteOnEvent(tick=60, channel=2, data=[62, 0]),
   midi.NoteOnEvent(tick=0, channel=2, data=[67, 90]),
   midi.NoteOnEvent(tick=600, channel=2, data=[67, 0]),
   midi.NoteOnEvent(tick=120, channel=2, data=[62, 90]),
   midi.NoteOnEvent(tick=480, channel=2, data=[62, 0]),
   midi.NoteOnEvent(tick=0, channel=2, data=[60, 90]),
   midi.NoteOnEvent(tick=120, channel=2, data=[60, 0]),
   midi.NoteOnEvent(tick=0, channel=2, data=[62, 90]),
   midi.NoteOnEvent(tick=120, channel=2, data=[62, 0]),
   midi.NoteOnEvent(tick=0, channel=2, data=[58, 90]),
   midi.NoteOnEvent(tick=80, channel=2, data=[58, 0]),
   midi.NoteOnEvent(tick=0, channel=2, data=[60, 90]),
   midi.NoteOnEvent(tick=80, channel=2, data=[60, 0]),
   midi.NoteOnEvent(tick=0, channel=2, data=[57, 90]),
   midi.NoteOnEvent(tick=80, channel=2, data=[57, 0]),
   midi.NoteOnEvent(tick=0, channel=2, data=[65, 90]),
   midi.NoteOnEvent(tick=480, channel=2, data=[65, 0]),
   midi.NoteOnEvent(tick=0, channel=2, data=[60, 90]),
   midi.NoteOnEvent(tick=480, channel=2, data=[60, 0]),
   midi.NoteOnEvent(tick=0, channel=2, data=[58, 90]),
   midi.NoteOnEvent(tick=120, channel=2, data=[58, 0]),
   midi.NoteOnEvent(tick=0, channel=2, data=[60, 90]),
   midi.NoteOnEvent(tick=120, channel=2, data=[60, 0]),
   midi.NoteOnEvent(tick=0, channel=2, data=[57, 90]),
   midi.NoteOnEvent(tick=80, channel=2, data=[57, 0]),
   midi.NoteOnEvent(tick=0, channel=2, data=[58, 90]),
   midi.NoteOnEvent(tick=80, channel=2, data=[58, 0]),
   midi.NoteOnEvent(tick=0, channel=2, data=[55, 90]),
   midi.NoteOnEvent(tick=80, channel=2, data=[55, 0]),
   midi.NoteOnEvent(tick=0, channel=2, data=[63, 90]),
   midi.NoteOnEvent(tick=480, channel=2, data=[63, 0]),
   midi.NoteOnEvent(tick=0, channel=2, data=[58, 90]),
   midi.NoteOnEvent(tick=480, channel=2, data=[58, 0]),
   midi.NoteOnEvent(tick=0, channel=2, data=[57, 90]),
   midi.NoteOnEvent(tick=120, channel=2, data=[57, 0]),
   midi.NoteOnEvent(tick=0, channel=2, data=[58, 90]),
   midi.NoteOnEvent(tick=120, channel=2, data=[58, 0]),
   midi.NoteOnEvent(tick=0, channel=2, data=[60, 90]),
   midi.NoteOnEvent(tick=80, channel=2, data=[60, 0]),
   midi.NoteOnEvent(tick=0, channel=2, data=[58, 90]),
   midi.NoteOnEvent(tick=80, channel=2, data=[58, 0]),
   midi.NoteOnEvent(tick=0, channel=2, data=[57, 90]),
   midi.NoteOnEvent(tick=320, channel=2, data=[57, 0]),
   midi.NoteOnEvent(tick=0, channel=2, data=[55, 90]),
   midi.NoteOnEvent(tick=120, channel=2, data=[55, 0]),
   midi.NoteOnEvent(tick=0, channel=2, data=[66, 90]),
   midi.NoteOnEvent(tick=120, channel=2, data=[66, 0]),
   midi.NoteOnEvent(tick=0, channel=2, data=[67, 90]),
   midi.NoteOnEvent(tick=120, channel=2, data=[67, 0]),
   midi.NoteOnEvent(tick=0, channel=2, data=[69, 90]),
   midi.NoteOnEvent(tick=120, channel=2, data=[69, 0]),
   midi.NoteOnEvent(tick=0, channel=2, data=[67, 90]),
   midi.NoteOnEvent(tick=0, channel=2, data=[74, 90]),
   midi.NoteOnEvent(tick=1200, channel=2, data=[74, 0]),
   midi.NoteOnEvent(tick=0, channel=2, data=[67, 0]),
   midi.NoteOnEvent(tick=11760, channel=2, data=[60, 90]),
   midi.NoteOnEvent(tick=180, channel=2, data=[60, 0]),
   midi.NoteOnEvent(tick=0, channel=2, data=[62, 90]),
   midi.NoteOnEvent(tick=60, channel=2, data=[62, 0]),
   midi.NoteOnEvent(tick=0, channel=2, data=[63, 90]),
   midi.NoteOnEvent(tick=180, channel=2, data=[63, 0]),
   midi.NoteOnEvent(tick=0, channel=2, data=[62, 90]),
   midi.NoteOnEvent(tick=60, channel=2, data=[62, 0]),
   midi.NoteOnEvent(tick=0, channel=2, data=[63, 90]),
   midi.NoteOnEvent(tick=180, channel=2, data=[63, 0]),
   midi.NoteOnEvent(tick=0, channel=2, data=[60, 90]),
   midi.NoteOnEvent(tick=60, channel=2, data=[60, 0]),
   midi.NoteOnEvent(tick=0, channel=2, data=[66, 90]),
   midi.NoteOnEvent(tick=360, channel=2, data=[66, 0]),
   midi.NoteOnEvent(tick=360, channel=2, data=[62, 90]),
   midi.NoteOnEvent(tick=180, channel=2, data=[62, 0]),
   midi.NoteOnEvent(tick=0, channel=2, data=[64, 90]),
   midi.NoteOnEvent(tick=60, channel=2, data=[64, 0]),
   midi.NoteOnEvent(tick=0, channel=2, data=[66, 90]),
   midi.NoteOnEvent(tick=180, channel=2, data=[66, 0]),
   midi.NoteOnEvent(tick=0, channel=2, data=[62, 90]),
   midi.NoteOnEvent(tick=60, channel=2, data=[62, 0]),
   midi.NoteOnEvent(tick=0, channel=2, data=[67, 90]),
   midi.NoteOnEvent(tick=600, channel=2, data=[67, 0]),
   midi.NoteOnEvent(tick=120, channel=2, data=[62, 90]),
   midi.NoteOnEvent(tick=480, channel=2, data=[62, 0]),
   midi.NoteOnEvent(tick=0, channel=2, data=[60, 90]),
   midi.NoteOnEvent(tick=120, channel=2, data=[60, 0]),
   midi.NoteOnEvent(tick=0, channel=2, data=[62, 90]),
   midi.NoteOnEvent(tick=120, channel=2, data=[62, 0]),
   midi.NoteOnEvent(tick=0, channel=2, data=[58, 90]),
   midi.NoteOnEvent(tick=80, channel=2, data=[58, 0]),
   midi.NoteOnEvent(tick=0, channel=2, data=[60, 90]),
   midi.NoteOnEvent(tick=80, channel=2, data=[60, 0]),
   midi.NoteOnEvent(tick=0, channel=2, data=[57, 90]),
   midi.NoteOnEvent(tick=80, channel=2, data=[57, 0]),
   midi.NoteOnEvent(tick=0, channel=2, data=[65, 90]),
   midi.NoteOnEvent(tick=480, channel=2, data=[65, 0]),
   midi.NoteOnEvent(tick=0, channel=2, data=[60, 90]),
   midi.NoteOnEvent(tick=480, channel=2, data=[60, 0]),
   midi.NoteOnEvent(tick=0, channel=2, data=[58, 90]),
   midi.NoteOnEvent(tick=120, channel=2, data=[58, 0]),
   midi.NoteOnEvent(tick=0, channel=2, data=[60, 90]),
   midi.NoteOnEvent(tick=120, channel=2, data=[60, 0]),
   midi.NoteOnEvent(tick=0, channel=2, data=[57, 90]),
   midi.NoteOnEvent(tick=80, channel=2, data=[57, 0]),
   midi.NoteOnEvent(tick=0, channel=2, data=[58, 90]),
   midi.NoteOnEvent(tick=80, channel=2, data=[58, 0]),
   midi.NoteOnEvent(tick=0, channel=2, data=[55, 90]),
   midi.NoteOnEvent(tick=80, channel=2, data=[55, 0]),
   midi.NoteOnEvent(tick=0, channel=2, data=[63, 90]),
   midi.NoteOnEvent(tick=480, channel=2, data=[63, 0]),
   midi.NoteOnEvent(tick=0, channel=2, data=[58, 90]),
   midi.NoteOnEvent(tick=480, channel=2, data=[58, 0]),
   midi.NoteOnEvent(tick=0, channel=2, data=[57, 90]),
   midi.NoteOnEvent(tick=120, channel=2, data=[57, 0]),
   midi.NoteOnEvent(tick=0, channel=2, data=[58, 90]),
   midi.NoteOnEvent(tick=120, channel=2, data=[58, 0]),
   midi.NoteOnEvent(tick=0, channel=2, data=[60, 90]),
   midi.NoteOnEvent(tick=80, channel=2, data=[60, 0]),
   midi.NoteOnEvent(tick=0, channel=2, data=[58, 90]),
   midi.NoteOnEvent(tick=80, channel=2, data=[58, 0]),
   midi.NoteOnEvent(tick=0, channel=2, data=[57, 90]),
   midi.NoteOnEvent(tick=320, channel=2, data=[57, 0]),
   midi.NoteOnEvent(tick=0, channel=2, data=[55, 90]),
   midi.NoteOnEvent(tick=120, channel=2, data=[55, 0]),
   midi.NoteOnEvent(tick=0, channel=2, data=[66, 90]),
   midi.NoteOnEvent(tick=120, channel=2, data=[66, 0]),
   midi.NoteOnEvent(tick=0, channel=2, data=[67, 90]),
   midi.NoteOnEvent(tick=120, channel=2, data=[67, 0]),
   midi.NoteOnEvent(tick=0, channel=2, data=[69, 90]),
   midi.NoteOnEvent(tick=120, channel=2, data=[69, 0]),
   midi.NoteOnEvent(tick=0, channel=2, data=[74, 90]),
   midi.NoteOnEvent(tick=0, channel=2, data=[67, 90]),
   midi.NoteOnEvent(tick=1200, channel=2, data=[67, 0]),
   midi.NoteOnEvent(tick=0, channel=2, data=[74, 0]),
   midi.NoteOnEvent(tick=27600, channel=2, data=[67, 110]),
   midi.NoteOnEvent(tick=240, channel=2, data=[67, 0]),
   midi.NoteOnEvent(tick=0, channel=2, data=[65, 110]),
   midi.NoteOnEvent(tick=180, channel=2, data=[65, 0]),
   midi.NoteOnEvent(tick=0, channel=2, data=[63, 110]),
   midi.NoteOnEvent(tick=60, channel=2, data=[63, 0]),
   midi.NoteOnEvent(tick=0, channel=2, data=[62, 110]),
   midi.NoteOnEvent(tick=180, channel=2, data=[62, 0]),
   midi.NoteOnEvent(tick=0, channel=2, data=[60, 110]),
   midi.NoteOnEvent(tick=60, channel=2, data=[60, 0]),
   midi.NoteOnEvent(tick=0, channel=2, data=[60, 110]),
   midi.NoteOnEvent(tick=480, channel=2, data=[60, 0]),
   midi.NoteOnEvent(tick=0, channel=2, data=[59, 110]),
   midi.NoteOnEvent(tick=240, channel=2, data=[59, 0]),
   midi.NoteOnEvent(tick=0, channel=2, data=[68, 110]),
   midi.NoteOnEvent(tick=240, channel=2, data=[68, 0]),
   midi.NoteOnEvent(tick=0, channel=2, data=[67, 110]),
   midi.NoteOnEvent(tick=180, channel=2, data=[67, 0]),
   midi.NoteOnEvent(tick=0, channel=2, data=[65, 110]),
   midi.NoteOnEvent(tick=60, channel=2, data=[65, 0]),
   midi.NoteOnEvent(tick=0, channel=2, data=[63, 110]),
   midi.NoteOnEvent(tick=180, channel=2, data=[63, 0]),
   midi.NoteOnEvent(tick=0, channel=2, data=[62, 110]),
   midi.NoteOnEvent(tick=60, channel=2, data=[62, 0]),
   midi.NoteOnEvent(tick=0, channel=2, data=[62, 110]),
   midi.NoteOnEvent(tick=480, channel=2, data=[62, 0]),
   midi.NoteOnEvent(tick=0, channel=2, data=[60, 110]),
   midi.NoteOnEvent(tick=240, channel=2, data=[60, 0]),
   midi.NoteOnEvent(tick=0, channel=2, data=[72, 110]),
   midi.NoteOnEvent(tick=240, channel=2, data=[72, 0]),
   midi.NoteOnEvent(tick=0, channel=2, data=[70, 110]),
   midi.NoteOnEvent(tick=120, channel=2, data=[70, 0]),
   midi.NoteOnEvent(tick=0, channel=2, data=[72, 110]),
   midi.NoteOnEvent(tick=120, channel=2, data=[72, 0]),
   midi.NoteOnEvent(tick=0, channel=2, data=[68, 110]),
   midi.NoteOnEvent(tick=80, channel=2, data=[68, 0]),
   midi.NoteOnEvent(tick=0, channel=2, data=[70, 110]),
   midi.NoteOnEvent(tick=80, channel=2, data=[70, 0]),
   midi.NoteOnEvent(tick=0, channel=2, data=[67, 110]),
   midi.NoteOnEvent(tick=80, channel=2, data=[67, 0]),
   midi.NoteOnEvent(tick=0, channel=2, data=[68, 110]),
   midi.NoteOnEvent(tick=720, channel=2, data=[68, 0]),
   midi.NoteOnEvent(tick=0, channel=2, data=[70, 110]),
   midi.NoteOnEvent(tick=240, channel=2, data=[70, 0]),
   midi.NoteOnEvent(tick=0, channel=2, data=[68, 110]),
   midi.NoteOnEvent(tick=120, channel=2, data=[68, 0]),
   midi.NoteOnEvent(tick=0, channel=2, data=[70, 110]),
   midi.NoteOnEvent(tick=120, channel=2, data=[70, 0]),
   midi.NoteOnEvent(tick=0, channel=2, data=[67, 110]),
   midi.NoteOnEvent(tick=80, channel=2, data=[67, 0]),
   midi.NoteOnEvent(tick=0, channel=2, data=[68, 110]),
   midi.NoteOnEvent(tick=80, channel=2, data=[68, 0]),
   midi.NoteOnEvent(tick=0, channel=2, data=[65, 110]),
   midi.NoteOnEvent(tick=80, channel=2, data=[65, 0]),
   midi.NoteOnEvent(tick=0, channel=2, data=[67, 110]),
   midi.NoteOnEvent(tick=720, channel=2, data=[67, 0]),
   midi.NoteOnEvent(tick=0, channel=2, data=[69, 90]),
   midi.NoteOnEvent(tick=360, channel=2, data=[69, 0]),
   midi.NoteOnEvent(tick=0, channel=2, data=[69, 90]),
   midi.NoteOnEvent(tick=120, channel=2, data=[69, 0]),
   midi.NoteOnEvent(tick=0, channel=2, data=[70, 90]),
   midi.NoteOnEvent(tick=180, channel=2, data=[70, 0]),
   midi.NoteOnEvent(tick=0, channel=2, data=[72, 90]),
   midi.NoteOnEvent(tick=60, channel=2, data=[72, 0]),
   midi.NoteOnEvent(tick=0, channel=2, data=[70, 90]),
   midi.NoteOnEvent(tick=1080, channel=2, data=[70, 0]),
   midi.NoteOnEvent(tick=0, channel=2, data=[69, 90]),
   midi.NoteOnEvent(tick=120, channel=2, data=[69, 0]),
   midi.NoteOnEvent(tick=0, channel=2, data=[70, 90]),
   midi.NoteOnEvent(tick=180, channel=2, data=[70, 0]),
   midi.NoteOnEvent(tick=0, channel=2, data=[72, 90]),
   midi.NoteOnEvent(tick=60, channel=2, data=[72, 0]),
   midi.NoteOnEvent(tick=0, channel=2, data=[70, 90]),
   midi.NoteOnEvent(tick=1080, channel=2, data=[70, 0]),
   midi.NoteOnEvent(tick=0, channel=2, data=[69, 90]),
   midi.NoteOnEvent(tick=120, channel=2, data=[69, 0]),
   midi.NoteOnEvent(tick=0, channel=2, data=[70, 90]),
   midi.NoteOnEvent(tick=180, channel=2, data=[70, 0]),
   midi.NoteOnEvent(tick=0, channel=2, data=[72, 90]),
   midi.NoteOnEvent(tick=60, channel=2, data=[72, 0]),
   midi.NoteOnEvent(tick=10680, channel=2, data=[72, 110]),
   midi.NoteOnEvent(tick=120, channel=2, data=[72, 0]),
   midi.NoteOnEvent(tick=0, channel=2, data=[74, 110]),
   midi.NoteOnEvent(tick=120, channel=2, data=[74, 0]),
   midi.NoteOnEvent(tick=0, channel=2, data=[75, 110]),
   midi.NoteOnEvent(tick=120, channel=2, data=[75, 0]),
   midi.NoteOnEvent(tick=0, channel=2, data=[74, 110]),
   midi.NoteOnEvent(tick=120, channel=2, data=[74, 0]),
   midi.NoteOnEvent(tick=0, channel=2, data=[72, 110]),
   midi.NoteOnEvent(tick=120, channel=2, data=[72, 0]),
   midi.NoteOnEvent(tick=0, channel=2, data=[71, 110]),
   midi.NoteOnEvent(tick=120, channel=2, data=[71, 0]),
   midi.NoteOnEvent(tick=0, channel=2, data=[72, 110]),
   midi.NoteOnEvent(tick=120, channel=2, data=[72, 0]),
   midi.NoteOnEvent(tick=0, channel=2, data=[70, 110]),
   midi.NoteOnEvent(tick=480, channel=2, data=[70, 0]),
   midi.NoteOnEvent(tick=0, channel=2, data=[70, 110]),
   midi.NoteOnEvent(tick=30, channel=2, data=[70, 0]),
   midi.NoteOnEvent(tick=0, channel=2, data=[72, 110]),
   midi.NoteOnEvent(tick=30, channel=2, data=[72, 0]),
   midi.NoteOnEvent(tick=0, channel=2, data=[73, 110]),
   midi.NoteOnEvent(tick=120, channel=2, data=[73, 0]),
   midi.NoteOnEvent(tick=0, channel=2, data=[72, 110]),
   midi.NoteOnEvent(tick=30, channel=2, data=[72, 0]),
   midi.NoteOnEvent(tick=0, channel=2, data=[70, 110]),
   midi.NoteOnEvent(tick=30, channel=2, data=[70, 0]),
   midi.NoteOnEvent(tick=0, channel=2, data=[68, 110]),
   midi.NoteOnEvent(tick=360, channel=2, data=[68, 0]),
   midi.NoteOnEvent(tick=0, channel=2, data=[65, 110]),
   midi.NoteOnEvent(tick=120, channel=2, data=[65, 0]),
   midi.NoteOnEvent(tick=0, channel=2, data=[68, 110]),
   midi.NoteOnEvent(tick=180, channel=2, data=[68, 0]),
   midi.NoteOnEvent(tick=0, channel=2, data=[72, 110]),
   midi.NoteOnEvent(tick=60, channel=2, data=[72, 0]),
   midi.NoteOnEvent(tick=0, channel=2, data=[67, 110]),
   midi.NoteOnEvent(tick=360, channel=2, data=[67, 0]),
   midi.NoteOnEvent(tick=0, channel=2, data=[63, 110]),
   midi.NoteOnEvent(tick=120, channel=2, data=[63, 0]),
   midi.NoteOnEvent(tick=0, channel=2, data=[67, 110]),
   midi.NoteOnEvent(tick=180, channel=2, data=[67, 0]),
   midi.NoteOnEvent(tick=0, channel=2, data=[72, 110]),
   midi.NoteOnEvent(tick=60, channel=2, data=[72, 0]),
   midi.NoteOnEvent(tick=0, channel=2, data=[65, 110]),
   midi.NoteOnEvent(tick=480, channel=2, data=[65, 0]),
   midi.NoteOnEvent(tick=0, channel=2, data=[65, 110]),
   midi.NoteOnEvent(tick=30, channel=2, data=[65, 0]),
   midi.NoteOnEvent(tick=0, channel=2, data=[67, 110]),
   midi.NoteOnEvent(tick=30, channel=2, data=[67, 0]),
   midi.NoteOnEvent(tick=0, channel=2, data=[68, 110]),
   midi.NoteOnEvent(tick=120, channel=2, data=[68, 0]),
   midi.NoteOnEvent(tick=0, channel=2, data=[67, 110]),
   midi.NoteOnEvent(tick=30, channel=2, data=[67, 0]),
   midi.NoteOnEvent(tick=0, channel=2, data=[65, 110]),
   midi.NoteOnEvent(tick=30, channel=2, data=[65, 0]),
   midi.NoteOnEvent(tick=0, channel=2, data=[63, 110]),
   midi.NoteOnEvent(tick=480, channel=2, data=[63, 0]),
   midi.NoteOnEvent(tick=0, channel=2, data=[63, 110]),
   midi.NoteOnEvent(tick=30, channel=2, data=[63, 0]),
   midi.NoteOnEvent(tick=0, channel=2, data=[65, 110]),
   midi.NoteOnEvent(tick=30, channel=2, data=[65, 0]),
   midi.NoteOnEvent(tick=0, channel=2, data=[67, 110]),
   midi.NoteOnEvent(tick=120, channel=2, data=[67, 0]),
   midi.NoteOnEvent(tick=0, channel=2, data=[65, 110]),
   midi.NoteOnEvent(tick=30, channel=2, data=[65, 0]),
   midi.NoteOnEvent(tick=0, channel=2, data=[63, 110]),
   midi.NoteOnEvent(tick=30, channel=2, data=[63, 0]),
   midi.NoteOnEvent(tick=0, channel=2, data=[62, 110]),
   midi.NoteOnEvent(tick=480, channel=2, data=[62, 0]),
   midi.NoteOnEvent(tick=0, channel=2, data=[62, 110]),
   midi.NoteOnEvent(tick=30, channel=2, data=[62, 0]),
   midi.NoteOnEvent(tick=0, channel=2, data=[63, 110]),
   midi.NoteOnEvent(tick=30, channel=2, data=[63, 0]),
   midi.NoteOnEvent(tick=0, channel=2, data=[65, 110]),
   midi.NoteOnEvent(tick=120, channel=2, data=[65, 0]),
   midi.NoteOnEvent(tick=0, channel=2, data=[63, 110]),
   midi.NoteOnEvent(tick=30, channel=2, data=[63, 0]),
   midi.NoteOnEvent(tick=0, channel=2, data=[62, 110]),
   midi.NoteOnEvent(tick=30, channel=2, data=[62, 0]),
   midi.NoteOnEvent(tick=0, channel=2, data=[60, 90]),
   midi.NoteOnEvent(tick=0, channel=2, data=[60, 110]),
   midi.NoteOnEvent(tick=120, channel=2, data=[60, 0]),
   midi.NoteOnEvent(tick=600, channel=2, data=[60, 0]),
   midi.NoteOnEvent(tick=0, channel=2, data=[60, 110]),
   midi.NoteOnEvent(tick=30, channel=2, data=[60, 0]),
   midi.NoteOnEvent(tick=0, channel=2, data=[62, 110]),
   midi.NoteOnEvent(tick=30, channel=2, data=[62, 0]),
   midi.NoteOnEvent(tick=0, channel=2, data=[63, 110]),
   midi.NoteOnEvent(tick=660, channel=2, data=[63, 0]),
   midi.NoteOnEvent(tick=0, channel=2, data=[60, 110]),
   midi.NoteOnEvent(tick=30, channel=2, data=[60, 0]),
   midi.NoteOnEvent(tick=0, channel=2, data=[62, 110]),
   midi.NoteOnEvent(tick=30, channel=2, data=[62, 0]),
   midi.NoteOnEvent(tick=0, channel=2, data=[63, 110]),
   midi.NoteOnEvent(tick=420, channel=2, data=[63, 0]),
   midi.NoteOnEvent(tick=9540, channel=2, data=[67, 90]),
   midi.NoteOnEvent(tick=60, channel=2, data=[67, 0]),
   midi.NoteOnEvent(tick=0, channel=2, data=[67, 90]),
   midi.NoteOnEvent(tick=720, channel=2, data=[67, 0]),
   midi.NoteOnEvent(tick=0, channel=2, data=[67, 80]),
   midi.NoteOnEvent(tick=0, channel=2, data=[69, 80]),
   midi.NoteOnEvent(tick=720, channel=2, data=[69, 0]),
   midi.NoteOnEvent(tick=0, channel=2, data=[67, 0]),
   midi.NoteOnEvent(tick=0, channel=2, data=[64, 80]),
   midi.NoteOnEvent(tick=0, channel=2, data=[67, 80]),
   midi.NoteOnEvent(tick=720, channel=2, data=[67, 0]),
   midi.NoteOnEvent(tick=0, channel=2, data=[64, 0]),
   midi.NoteOnEvent(tick=0, channel=2, data=[67, 80]),
   midi.NoteOnEvent(tick=480, channel=2, data=[67, 0]),
   midi.NoteOnEvent(tick=0, channel=2, data=[66, 80]),
   midi.NoteOnEvent(tick=240, channel=2, data=[66, 0]),
   midi.EndOfTrackEvent(tick=0, data=[])]),
 midi.Track(\
  [midi.PortEvent(tick=0, data=[0]),
   midi.TrackNameEvent(tick=0, text='Strings', data=[83, 116, 114, 105, 110, 103, 115]),
   midi.ProgramChangeEvent(tick=0, channel=3, data=[49]),
   midi.ControlChangeEvent(tick=0, channel=3, data=[7, 110]),
   midi.ControlChangeEvent(tick=0, channel=3, data=[10, 75]),
   midi.NoteOnEvent(tick=6480, channel=3, data=[62, 90]),
   midi.NoteOnEvent(tick=420, channel=3, data=[62, 0]),
   midi.NoteOnEvent(tick=0, channel=3, data=[55, 90]),
   midi.NoteOnEvent(tick=60, channel=3, data=[55, 0]),
   midi.NoteOnEvent(tick=0, channel=3, data=[57, 90]),
   midi.NoteOnEvent(tick=180, channel=3, data=[57, 0]),
   midi.NoteOnEvent(tick=0, channel=3, data=[58, 90]),
   midi.NoteOnEvent(tick=60, channel=3, data=[58, 0]),
   midi.NoteOnEvent(tick=0, channel=3, data=[60, 90]),
   midi.NoteOnEvent(tick=1140, channel=3, data=[60, 0]),
   midi.NoteOnEvent(tick=0, channel=3, data=[57, 90]),
   midi.NoteOnEvent(tick=60, channel=3, data=[57, 0]),
   midi.NoteOnEvent(tick=0, channel=3, data=[58, 90]),
   midi.NoteOnEvent(tick=180, channel=3, data=[58, 0]),
   midi.NoteOnEvent(tick=0, channel=3, data=[60, 90]),
   midi.NoteOnEvent(tick=60, channel=3, data=[60, 0]),
   midi.NoteOnEvent(tick=0, channel=3, data=[62, 90]),
   midi.NoteOnEvent(tick=720, channel=3, data=[62, 0]),
   midi.NoteOnEvent(tick=0, channel=3, data=[62, 90]),
   midi.NoteOnEvent(tick=480, channel=3, data=[62, 0]),
   midi.NoteOnEvent(tick=0, channel=3, data=[67, 90]),
   midi.NoteOnEvent(tick=480, channel=3, data=[67, 0]),
   midi.NoteOnEvent(tick=0, channel=3, data=[63, 90]),
   midi.NoteOnEvent(tick=240, channel=3, data=[63, 0]),
   midi.NoteOnEvent(tick=0, channel=3, data=[67, 90]),
   midi.NoteOnEvent(tick=240, channel=3, data=[67, 0]),
   midi.NoteOnEvent(tick=0, channel=3, data=[60, 90]),
   midi.NoteOnEvent(tick=480, channel=3, data=[60, 0]),
   midi.NoteOnEvent(tick=0, channel=3, data=[65, 90]),
   midi.NoteOnEvent(tick=480, channel=3, data=[65, 0]),
   midi.NoteOnEvent(tick=0, channel=3, data=[62, 90]),
   midi.NoteOnEvent(tick=240, channel=3, data=[62, 0]),
   midi.NoteOnEvent(tick=0, channel=3, data=[65, 90]),
   midi.NoteOnEvent(tick=240, channel=3, data=[65, 0]),
   midi.NoteOnEvent(tick=0, channel=3, data=[58, 90]),
   midi.NoteOnEvent(tick=480, channel=3, data=[58, 0]),
   midi.NoteOnEvent(tick=0, channel=3, data=[63, 90]),
   midi.NoteOnEvent(tick=480, channel=3, data=[63, 0]),
   midi.NoteOnEvent(tick=0, channel=3, data=[60, 90]),
   midi.NoteOnEvent(tick=240, channel=3, data=[60, 0]),
   midi.NoteOnEvent(tick=0, channel=3, data=[63, 90]),
   midi.NoteOnEvent(tick=240, channel=3, data=[63, 0]),
   midi.NoteOnEvent(tick=0, channel=3, data=[62, 90]),
   midi.NoteOnEvent(tick=480, channel=3, data=[62, 0]),
   midi.NoteOnEvent(tick=0, channel=3, data=[60, 90]),
   midi.NoteOnEvent(tick=240, channel=3, data=[60, 0]),
   midi.NoteOnEvent(tick=0, channel=3, data=[58, 90]),
   midi.NoteOnEvent(tick=1200, channel=3, data=[58, 0]),
   midi.NoteOnEvent(tick=1440, channel=3, data=[62, 90]),
   midi.NoteOnEvent(tick=30, channel=3, data=[62, 0]),
   midi.NoteOnEvent(tick=0, channel=3, data=[63, 90]),
   midi.NoteOnEvent(tick=30, channel=3, data=[63, 0]),
   midi.NoteOnEvent(tick=0, channel=3, data=[65, 90]),
   midi.NoteOnEvent(tick=120, channel=3, data=[65, 0]),
   midi.NoteOnEvent(tick=0, channel=3, data=[63, 90]),
   midi.NoteOnEvent(tick=30, channel=3, data=[63, 0]),
   midi.NoteOnEvent(tick=0, channel=3, data=[62, 90]),
   midi.NoteOnEvent(tick=30, channel=3, data=[62, 0]),
   midi.NoteOnEvent(tick=0, channel=3, data=[60, 90]),
   midi.NoteOnEvent(tick=720, channel=3, data=[60, 0]),
   midi.NoteOnEvent(tick=0, channel=3, data=[62, 90]),
   midi.NoteOnEvent(tick=720, channel=3, data=[62, 0]),
   midi.NoteOnEvent(tick=0, channel=3, data=[63, 90]),
   midi.NoteOnEvent(tick=480, channel=3, data=[63, 0]),
   midi.NoteOnEvent(tick=0, channel=3, data=[68, 90]),
   midi.NoteOnEvent(tick=30, channel=3, data=[68, 0]),
   midi.NoteOnEvent(tick=0, channel=3, data=[70, 90]),
   midi.NoteOnEvent(tick=30, channel=3, data=[70, 0]),
   midi.NoteOnEvent(tick=0, channel=3, data=[72, 90]),
   midi.NoteOnEvent(tick=120, channel=3, data=[72, 0]),
   midi.NoteOnEvent(tick=0, channel=3, data=[70, 90]),
   midi.NoteOnEvent(tick=30, channel=3, data=[70, 0]),
   midi.NoteOnEvent(tick=0, channel=3, data=[68, 90]),
   midi.NoteOnEvent(tick=30, channel=3, data=[68, 0]),
   midi.NoteOnEvent(tick=0, channel=3, data=[67, 90]),
   midi.NoteOnEvent(tick=480, channel=3, data=[67, 0]),
   midi.NoteOnEvent(tick=0, channel=3, data=[67, 90]),
   midi.NoteOnEvent(tick=30, channel=3, data=[67, 0]),
   midi.NoteOnEvent(tick=0, channel=3, data=[69, 90]),
   midi.NoteOnEvent(tick=30, channel=3, data=[69, 0]),
   midi.NoteOnEvent(tick=0, channel=3, data=[70, 90]),
   midi.NoteOnEvent(tick=120, channel=3, data=[70, 0]),
   midi.NoteOnEvent(tick=0, channel=3, data=[69, 90]),
   midi.NoteOnEvent(tick=30, channel=3, data=[69, 0]),
   midi.NoteOnEvent(tick=0, channel=3, data=[67, 90]),
   midi.NoteOnEvent(tick=30, channel=3, data=[67, 0]),
   midi.NoteOnEvent(tick=0, channel=3, data=[66, 90]),
   midi.NoteOnEvent(tick=480, channel=3, data=[66, 0]),
   midi.NoteOnEvent(tick=0, channel=3, data=[66, 90]),
   midi.NoteOnEvent(tick=30, channel=3, data=[66, 0]),
   midi.NoteOnEvent(tick=0, channel=3, data=[67, 90]),
   midi.NoteOnEvent(tick=30, channel=3, data=[67, 0]),
   midi.NoteOnEvent(tick=0, channel=3, data=[69, 90]),
   midi.NoteOnEvent(tick=120, channel=3, data=[69, 0]),
   midi.NoteOnEvent(tick=0, channel=3, data=[67, 90]),
   midi.NoteOnEvent(tick=30, channel=3, data=[67, 0]),
   midi.NoteOnEvent(tick=0, channel=3, data=[66, 90]),
   midi.NoteOnEvent(tick=30, channel=3, data=[66, 0]),
   midi.NoteOnEvent(tick=0, channel=3, data=[67, 90]),
   midi.NoteOnEvent(tick=720, channel=3, data=[67, 0]),
   midi.NoteOnEvent(tick=5040, channel=3, data=[62, 90]),
   midi.NoteOnEvent(tick=420, channel=3, data=[62, 0]),
   midi.NoteOnEvent(tick=0, channel=3, data=[55, 90]),
   midi.NoteOnEvent(tick=60, channel=3, data=[55, 0]),
   midi.NoteOnEvent(tick=0, channel=3, data=[57, 90]),
   midi.NoteOnEvent(tick=180, channel=3, data=[57, 0]),
   midi.NoteOnEvent(tick=0, channel=3, data=[58, 90]),
   midi.NoteOnEvent(tick=60, channel=3, data=[58, 0]),
   midi.NoteOnEvent(tick=0, channel=3, data=[60, 90]),
   midi.NoteOnEvent(tick=1140, channel=3, data=[60, 0]),
   midi.NoteOnEvent(tick=0, channel=3, data=[57, 90]),
   midi.NoteOnEvent(tick=60, channel=3, data=[57, 0]),
   midi.NoteOnEvent(tick=0, channel=3, data=[58, 90]),
   midi.NoteOnEvent(tick=180, channel=3, data=[58, 0]),
   midi.NoteOnEvent(tick=0, channel=3, data=[60, 90]),
   midi.NoteOnEvent(tick=60, channel=3, data=[60, 0]),
   midi.NoteOnEvent(tick=0, channel=3, data=[62, 90]),
   midi.NoteOnEvent(tick=720, channel=3, data=[62, 0]),
   midi.NoteOnEvent(tick=0, channel=3, data=[62, 90]),
   midi.NoteOnEvent(tick=480, channel=3, data=[62, 0]),
   midi.NoteOnEvent(tick=0, channel=3, data=[67, 90]),
   midi.NoteOnEvent(tick=480, channel=3, data=[67, 0]),
   midi.NoteOnEvent(tick=0, channel=3, data=[63, 90]),
   midi.NoteOnEvent(tick=240, channel=3, data=[63, 0]),
   midi.NoteOnEvent(tick=0, channel=3, data=[67, 90]),
   midi.NoteOnEvent(tick=240, channel=3, data=[67, 0]),
   midi.NoteOnEvent(tick=0, channel=3, data=[60, 90]),
   midi.NoteOnEvent(tick=480, channel=3, data=[60, 0]),
   midi.NoteOnEvent(tick=0, channel=3, data=[65, 90]),
   midi.NoteOnEvent(tick=480, channel=3, data=[65, 0]),
   midi.NoteOnEvent(tick=0, channel=3, data=[62, 90]),
   midi.NoteOnEvent(tick=240, channel=3, data=[62, 0]),
   midi.NoteOnEvent(tick=0, channel=3, data=[65, 90]),
   midi.NoteOnEvent(tick=240, channel=3, data=[65, 0]),
   midi.NoteOnEvent(tick=0, channel=3, data=[58, 90]),
   midi.NoteOnEvent(tick=480, channel=3, data=[58, 0]),
   midi.NoteOnEvent(tick=0, channel=3, data=[63, 90]),
   midi.NoteOnEvent(tick=480, channel=3, data=[63, 0]),
   midi.NoteOnEvent(tick=0, channel=3, data=[60, 90]),
   midi.NoteOnEvent(tick=240, channel=3, data=[60, 0]),
   midi.NoteOnEvent(tick=0, channel=3, data=[63, 90]),
   midi.NoteOnEvent(tick=240, channel=3, data=[63, 0]),
   midi.NoteOnEvent(tick=0, channel=3, data=[62, 90]),
   midi.NoteOnEvent(tick=480, channel=3, data=[62, 0]),
   midi.NoteOnEvent(tick=0, channel=3, data=[60, 90]),
   midi.NoteOnEvent(tick=240, channel=3, data=[60, 0]),
   midi.NoteOnEvent(tick=0, channel=3, data=[58, 90]),
   midi.NoteOnEvent(tick=1200, channel=3, data=[58, 0]),
   midi.NoteOnEvent(tick=1440, channel=3, data=[62, 90]),
   midi.NoteOnEvent(tick=30, channel=3, data=[62, 0]),
   midi.NoteOnEvent(tick=0, channel=3, data=[63, 90]),
   midi.NoteOnEvent(tick=30, channel=3, data=[63, 0]),
   midi.NoteOnEvent(tick=0, channel=3, data=[65, 90]),
   midi.NoteOnEvent(tick=120, channel=3, data=[65, 0]),
   midi.NoteOnEvent(tick=0, channel=3, data=[63, 90]),
   midi.NoteOnEvent(tick=30, channel=3, data=[63, 0]),
   midi.NoteOnEvent(tick=0, channel=3, data=[62, 90]),
   midi.NoteOnEvent(tick=30, channel=3, data=[62, 0]),
   midi.NoteOnEvent(tick=0, channel=3, data=[60, 90]),
   midi.NoteOnEvent(tick=720, channel=3, data=[60, 0]),
   midi.NoteOnEvent(tick=0, channel=3, data=[62, 90]),
   midi.NoteOnEvent(tick=720, channel=3, data=[62, 0]),
   midi.NoteOnEvent(tick=0, channel=3, data=[63, 90]),
   midi.NoteOnEvent(tick=480, channel=3, data=[63, 0]),
   midi.NoteOnEvent(tick=0, channel=3, data=[68, 90]),
   midi.NoteOnEvent(tick=30, channel=3, data=[68, 0]),
   midi.NoteOnEvent(tick=0, channel=3, data=[70, 90]),
   midi.NoteOnEvent(tick=30, channel=3, data=[70, 0]),
   midi.NoteOnEvent(tick=0, channel=3, data=[72, 90]),
   midi.NoteOnEvent(tick=120, channel=3, data=[72, 0]),
   midi.NoteOnEvent(tick=0, channel=3, data=[70, 90]),
   midi.NoteOnEvent(tick=30, channel=3, data=[70, 0]),
   midi.NoteOnEvent(tick=0, channel=3, data=[68, 90]),
   midi.NoteOnEvent(tick=30, channel=3, data=[68, 0]),
   midi.NoteOnEvent(tick=0, channel=3, data=[67, 90]),
   midi.NoteOnEvent(tick=480, channel=3, data=[67, 0]),
   midi.NoteOnEvent(tick=0, channel=3, data=[67, 90]),
   midi.NoteOnEvent(tick=30, channel=3, data=[67, 0]),
   midi.NoteOnEvent(tick=0, channel=3, data=[69, 90]),
   midi.NoteOnEvent(tick=30, channel=3, data=[69, 0]),
   midi.NoteOnEvent(tick=0, channel=3, data=[70, 90]),
   midi.NoteOnEvent(tick=120, channel=3, data=[70, 0]),
   midi.NoteOnEvent(tick=0, channel=3, data=[69, 90]),
   midi.NoteOnEvent(tick=30, channel=3, data=[69, 0]),
   midi.NoteOnEvent(tick=0, channel=3, data=[67, 90]),
   midi.NoteOnEvent(tick=30, channel=3, data=[67, 0]),
   midi.NoteOnEvent(tick=0, channel=3, data=[66, 90]),
   midi.NoteOnEvent(tick=480, channel=3, data=[66, 0]),
   midi.NoteOnEvent(tick=0, channel=3, data=[66, 90]),
   midi.NoteOnEvent(tick=30, channel=3, data=[66, 0]),
   midi.NoteOnEvent(tick=0, channel=3, data=[67, 90]),
   midi.NoteOnEvent(tick=30, channel=3, data=[67, 0]),
   midi.NoteOnEvent(tick=0, channel=3, data=[69, 90]),
   midi.NoteOnEvent(tick=120, channel=3, data=[69, 0]),
   midi.NoteOnEvent(tick=0, channel=3, data=[67, 90]),
   midi.NoteOnEvent(tick=30, channel=3, data=[67, 0]),
   midi.NoteOnEvent(tick=0, channel=3, data=[66, 90]),
   midi.NoteOnEvent(tick=30, channel=3, data=[66, 0]),
   midi.NoteOnEvent(tick=0, channel=3, data=[67, 54]),
   midi.NoteOnEvent(tick=1080, channel=3, data=[67, 0]),
   midi.NoteOnEvent(tick=21240, channel=3, data=[67, 110]),
   midi.NoteOnEvent(tick=420, channel=3, data=[67, 0]),
   midi.NoteOnEvent(tick=0, channel=3, data=[60, 110]),
   midi.NoteOnEvent(tick=60, channel=3, data=[60, 0]),
   midi.NoteOnEvent(tick=0, channel=3, data=[62, 110]),
   midi.NoteOnEvent(tick=180, channel=3, data=[62, 0]),
   midi.NoteOnEvent(tick=0, channel=3, data=[63, 110]),
   midi.NoteOnEvent(tick=60, channel=3, data=[63, 0]),
   midi.NoteOnEvent(tick=0, channel=3, data=[65, 110]),
   midi.NoteOnEvent(tick=180, channel=3, data=[65, 0]),
   midi.NoteOnEvent(tick=0, channel=3, data=[67, 110]),
   midi.NoteOnEvent(tick=60, channel=3, data=[67, 0]),
   midi.NoteOnEvent(tick=0, channel=3, data=[68, 110]),
   midi.NoteOnEvent(tick=180, channel=3, data=[68, 0]),
   midi.NoteOnEvent(tick=0, channel=3, data=[67, 110]),
   midi.NoteOnEvent(tick=60, channel=3, data=[67, 0]),
   midi.NoteOnEvent(tick=0, channel=3, data=[68, 110]),
   midi.NoteOnEvent(tick=180, channel=3, data=[68, 0]),
   midi.NoteOnEvent(tick=0, channel=3, data=[65, 110]),
   midi.NoteOnEvent(tick=60, channel=3, data=[65, 0]),
   midi.NoteOnEvent(tick=0, channel=3, data=[71, 110]),
   midi.NoteOnEvent(tick=420, channel=3, data=[71, 0]),
   midi.NoteOnEvent(tick=0, channel=3, data=[62, 110]),
   midi.NoteOnEvent(tick=60, channel=3, data=[62, 0]),
   midi.NoteOnEvent(tick=0, channel=3, data=[63, 110]),
   midi.NoteOnEvent(tick=180, channel=3, data=[63, 0]),
   midi.NoteOnEvent(tick=0, channel=3, data=[65, 110]),
   midi.NoteOnEvent(tick=60, channel=3, data=[65, 0]),
   midi.NoteOnEvent(tick=0, channel=3, data=[67, 110]),
   midi.NoteOnEvent(tick=180, channel=3, data=[67, 0]),
   midi.NoteOnEvent(tick=0, channel=3, data=[69, 110]),
   midi.NoteOnEvent(tick=60, channel=3, data=[69, 0]),
   midi.NoteOnEvent(tick=0, channel=3, data=[71, 110]),
   midi.NoteOnEvent(tick=180, channel=3, data=[71, 0]),
   midi.NoteOnEvent(tick=0, channel=3, data=[67, 110]),
   midi.NoteOnEvent(tick=60, channel=3, data=[67, 0]),
   midi.NoteOnEvent(tick=0, channel=3, data=[72, 110]),
   midi.NoteOnEvent(tick=240, channel=3, data=[72, 0]),
   midi.NoteOnEvent(tick=0, channel=3, data=[72, 110]),
   midi.NoteOnEvent(tick=240, channel=3, data=[72, 0]),
   midi.NoteOnEvent(tick=0, channel=3, data=[67, 110]),
   midi.NoteOnEvent(tick=240, channel=3, data=[67, 0]),
   midi.NoteOnEvent(tick=0, channel=3, data=[60, 110]),
   midi.NoteOnEvent(tick=240, channel=3, data=[60, 0]),
   midi.NoteOnEvent(tick=0, channel=3, data=[67, 110]),
   midi.NoteOnEvent(tick=240, channel=3, data=[67, 0]),
   midi.NoteOnEvent(tick=0, channel=3, data=[65, 110]),
   midi.NoteOnEvent(tick=120, channel=3, data=[65, 0]),
   midi.NoteOnEvent(tick=0, channel=3, data=[67, 110]),
   midi.NoteOnEvent(tick=120, channel=3, data=[67, 0]),
   midi.NoteOnEvent(tick=0, channel=3, data=[63, 110]),
   midi.NoteOnEvent(tick=80, channel=3, data=[63, 0]),
   midi.NoteOnEvent(tick=0, channel=3, data=[65, 110]),
   midi.NoteOnEvent(tick=80, channel=3, data=[65, 0]),
   midi.NoteOnEvent(tick=0, channel=3, data=[62, 110]),
   midi.NoteOnEvent(tick=80, channel=3, data=[62, 0]),
   midi.NoteOnEvent(tick=0, channel=3, data=[65, 110]),
   midi.NoteOnEvent(tick=480, channel=3, data=[65, 0]),
   midi.NoteOnEvent(tick=0, channel=3, data=[58, 110]),
   midi.NoteOnEvent(tick=240, channel=3, data=[58, 0]),
   midi.NoteOnEvent(tick=0, channel=3, data=[65, 110]),
   midi.NoteOnEvent(tick=240, channel=3, data=[65, 0]),
   midi.NoteOnEvent(tick=0, channel=3, data=[63, 110]),
   midi.NoteOnEvent(tick=120, channel=3, data=[63, 0]),
   midi.NoteOnEvent(tick=0, channel=3, data=[65, 110]),
   midi.NoteOnEvent(tick=120, channel=3, data=[65, 0]),
   midi.NoteOnEvent(tick=0, channel=3, data=[62, 110]),
   midi.NoteOnEvent(tick=80, channel=3, data=[62, 0]),
   midi.NoteOnEvent(tick=0, channel=3, data=[63, 110]),
   midi.NoteOnEvent(tick=80, channel=3, data=[63, 0]),
   midi.NoteOnEvent(tick=0, channel=3, data=[60, 110]),
   midi.NoteOnEvent(tick=80, channel=3, data=[60, 0]),
   midi.NoteOnEvent(tick=0, channel=3, data=[63, 90]),
   midi.NoteOnEvent(tick=720, channel=3, data=[63, 0]),
   midi.NoteOnEvent(tick=0, channel=3, data=[62, 90]),
   midi.NoteOnEvent(tick=480, channel=3, data=[62, 0]),
   midi.NoteOnEvent(tick=0, channel=3, data=[65, 90]),
   midi.NoteOnEvent(tick=240, channel=3, data=[65, 0]),
   midi.NoteOnEvent(tick=0, channel=3, data=[67, 90]),
   midi.NoteOnEvent(tick=720, channel=3, data=[67, 0]),
   midi.NoteOnEvent(tick=0, channel=3, data=[65, 90]),
   midi.NoteOnEvent(tick=720, channel=3, data=[65, 0]),
   midi.NoteOnEvent(tick=0, channel=3, data=[67, 90]),
   midi.NoteOnEvent(tick=720, channel=3, data=[67, 0]),
   midi.NoteOnEvent(tick=0, channel=3, data=[65, 90]),
   midi.NoteOnEvent(tick=1440, channel=3, data=[65, 0]),
   midi.NoteOnEvent(tick=1440, channel=3, data=[60, 90]),
   midi.NoteOnEvent(tick=720, channel=3, data=[60, 0]),
   midi.NoteOnEvent(tick=0, channel=3, data=[58, 90]),
   midi.NoteOnEvent(tick=720, channel=3, data=[58, 0]),
   midi.NoteOnEvent(tick=360, channel=3, data=[63, 90]),
   midi.NoteOnEvent(tick=120, channel=3, data=[63, 0]),
   midi.NoteOnEvent(tick=0, channel=3, data=[58, 90]),
   midi.NoteOnEvent(tick=180, channel=3, data=[58, 0]),
   midi.NoteOnEvent(tick=0, channel=3, data=[55, 90]),
   midi.NoteOnEvent(tick=60, channel=3, data=[55, 0]),
   midi.NoteOnEvent(tick=0, channel=3, data=[59, 90]),
   midi.NoteOnEvent(tick=360, channel=3, data=[59, 0]),
   midi.NoteOnEvent(tick=0, channel=3, data=[59, 90]),
   midi.NoteOnEvent(tick=120, channel=3, data=[59, 0]),
   midi.NoteOnEvent(tick=0, channel=3, data=[60, 90]),
   midi.NoteOnEvent(tick=180, channel=3, data=[60, 0]),
   midi.NoteOnEvent(tick=0, channel=3, data=[62, 90]),
   midi.NoteOnEvent(tick=60, channel=3, data=[62, 0]),
   midi.NoteOnEvent(tick=0, channel=3, data=[60, 90]),
   midi.NoteOnEvent(tick=720, channel=3, data=[60, 0]),
   midi.NoteOnEvent(tick=360, channel=3, data=[59, 90]),
   midi.NoteOnEvent(tick=120, channel=3, data=[59, 0]),
   midi.NoteOnEvent(tick=0, channel=3, data=[60, 90]),
   midi.NoteOnEvent(tick=180, channel=3, data=[60, 0]),
   midi.NoteOnEvent(tick=0, channel=3, data=[62, 90]),
   midi.NoteOnEvent(tick=60, channel=3, data=[62, 0]),
   midi.NoteOnEvent(tick=0, channel=3, data=[60, 90]),
   midi.NoteOnEvent(tick=1080, channel=3, data=[60, 0]),
   midi.NoteOnEvent(tick=0, channel=3, data=[59, 90]),
   midi.NoteOnEvent(tick=120, channel=3, data=[59, 0]),
   midi.NoteOnEvent(tick=0, channel=3, data=[60, 90]),
   midi.NoteOnEvent(tick=180, channel=3, data=[60, 0]),
   midi.NoteOnEvent(tick=0, channel=3, data=[62, 90]),
   midi.NoteOnEvent(tick=60, channel=3, data=[62, 0]),
   midi.NoteOnEvent(tick=0, channel=3, data=[60, 90]),
   midi.NoteOnEvent(tick=360, channel=3, data=[60, 0]),
   midi.NoteOnEvent(tick=0, channel=3, data=[60, 110]),
   midi.NoteOnEvent(tick=120, channel=3, data=[60, 0]),
   midi.NoteOnEvent(tick=0, channel=3, data=[59, 110]),
   midi.NoteOnEvent(tick=120, channel=3, data=[59, 0]),
   midi.NoteOnEvent(tick=0, channel=3, data=[60, 110]),
   midi.NoteOnEvent(tick=120, channel=3, data=[60, 0]),
   midi.NoteOnEvent(tick=0, channel=3, data=[61, 110]),
   midi.NoteOnEvent(tick=480, channel=3, data=[61, 0]),
   midi.NoteOnEvent(tick=0, channel=3, data=[68, 110]),
   midi.NoteOnEvent(tick=240, channel=3, data=[68, 0]),
   midi.NoteOnEvent(tick=0, channel=3, data=[63, 110]),
   midi.NoteOnEvent(tick=0, channel=3, data=[67, 110]),
   midi.NoteOnEvent(tick=480, channel=3, data=[67, 0]),
   midi.NoteOnEvent(tick=0, channel=3, data=[63, 0]),
   midi.NoteOnEvent(tick=120, channel=3, data=[60, 110]),
   midi.NoteOnEvent(tick=120, channel=3, data=[60, 0]),
   midi.NoteOnEvent(tick=0, channel=3, data=[62, 110]),
   midi.NoteOnEvent(tick=120, channel=3, data=[62, 0]),
   midi.NoteOnEvent(tick=0, channel=3, data=[63, 110]),
   midi.NoteOnEvent(tick=120, channel=3, data=[63, 0]),
   midi.NoteOnEvent(tick=0, channel=3, data=[62, 110]),
   midi.NoteOnEvent(tick=120, channel=3, data=[62, 0]),
   midi.NoteOnEvent(tick=0, channel=3, data=[60, 110]),
   midi.NoteOnEvent(tick=120, channel=3, data=[60, 0]),
   midi.NoteOnEvent(tick=0, channel=3, data=[59, 110]),
   midi.NoteOnEvent(tick=120, channel=3, data=[59, 0]),
   midi.NoteOnEvent(tick=0, channel=3, data=[60, 110]),
   midi.NoteOnEvent(tick=120, channel=3, data=[60, 0]),
   midi.NoteOnEvent(tick=0, channel=3, data=[58, 110]),
   midi.NoteOnEvent(tick=480, channel=3, data=[58, 0]),
   midi.NoteOnEvent(tick=0, channel=3, data=[55, 110]),
   midi.NoteOnEvent(tick=30, channel=3, data=[55, 0]),
   midi.NoteOnEvent(tick=0, channel=3, data=[56, 110]),
   midi.NoteOnEvent(tick=30, channel=3, data=[56, 0]),
   midi.NoteOnEvent(tick=0, channel=3, data=[58, 110]),
   midi.NoteOnEvent(tick=120, channel=3, data=[58, 0]),
   midi.NoteOnEvent(tick=0, channel=3, data=[56, 110]),
   midi.NoteOnEvent(tick=30, channel=3, data=[56, 0]),
   midi.NoteOnEvent(tick=0, channel=3, data=[55, 110]),
   midi.NoteOnEvent(tick=30, channel=3, data=[55, 0]),
   midi.NoteOnEvent(tick=0, channel=3, data=[60, 110]),
   midi.NoteOnEvent(tick=480, channel=3, data=[60, 0]),
   midi.NoteOnEvent(tick=0, channel=3, data=[65, 110]),
   midi.NoteOnEvent(tick=240, channel=3, data=[65, 0]),
   midi.NoteOnEvent(tick=0, channel=3, data=[60, 110]),
   midi.NoteOnEvent(tick=720, channel=3, data=[60, 0]),
   midi.NoteOnEvent(tick=0, channel=3, data=[56, 110]),
   midi.NoteOnEvent(tick=480, channel=3, data=[56, 0]),
   midi.NoteOnEvent(tick=0, channel=3, data=[61, 110]),
   midi.NoteOnEvent(tick=30, channel=3, data=[61, 0]),
   midi.NoteOnEvent(tick=0, channel=3, data=[63, 110]),
   midi.NoteOnEvent(tick=30, channel=3, data=[63, 0]),
   midi.NoteOnEvent(tick=0, channel=3, data=[65, 110]),
   midi.NoteOnEvent(tick=120, channel=3, data=[65, 0]),
   midi.NoteOnEvent(tick=0, channel=3, data=[63, 110]),
   midi.NoteOnEvent(tick=30, channel=3, data=[63, 0]),
   midi.NoteOnEvent(tick=0, channel=3, data=[61, 110]),
   midi.NoteOnEvent(tick=30, channel=3, data=[61, 0]),
   midi.NoteOnEvent(tick=0, channel=3, data=[60, 110]),
   midi.NoteOnEvent(tick=480, channel=3, data=[60, 0]),
   midi.NoteOnEvent(tick=0, channel=3, data=[60, 110]),
   midi.NoteOnEvent(tick=30, channel=3, data=[60, 0]),
   midi.NoteOnEvent(tick=0, channel=3, data=[62, 110]),
   midi.NoteOnEvent(tick=30, channel=3, data=[62, 0]),
   midi.NoteOnEvent(tick=0, channel=3, data=[63, 110]),
   midi.NoteOnEvent(tick=120, channel=3, data=[63, 0]),
   midi.NoteOnEvent(tick=0, channel=3, data=[62, 110]),
   midi.NoteOnEvent(tick=30, channel=3, data=[62, 0]),
   midi.NoteOnEvent(tick=0, channel=3, data=[60, 110]),
   midi.NoteOnEvent(tick=30, channel=3, data=[60, 0]),
   midi.NoteOnEvent(tick=0, channel=3, data=[59, 110]),
   midi.NoteOnEvent(tick=480, channel=3, data=[59, 0]),
   midi.NoteOnEvent(tick=0, channel=3, data=[59, 110]),
   midi.NoteOnEvent(tick=30, channel=3, data=[59, 0]),
   midi.NoteOnEvent(tick=0, channel=3, data=[60, 110]),
   midi.NoteOnEvent(tick=30, channel=3, data=[60, 0]),
   midi.NoteOnEvent(tick=0, channel=3, data=[62, 110]),
   midi.NoteOnEvent(tick=120, channel=3, data=[62, 0]),
   midi.NoteOnEvent(tick=0, channel=3, data=[63, 110]),
   midi.NoteOnEvent(tick=30, channel=3, data=[63, 0]),
   midi.NoteOnEvent(tick=0, channel=3, data=[65, 110]),
   midi.NoteOnEvent(tick=30, channel=3, data=[65, 0]),
   midi.NoteOnEvent(tick=0, channel=3, data=[63, 80]),
   midi.NoteOnEvent(tick=720, channel=3, data=[63, 0]),
   midi.NoteOnEvent(tick=720, channel=3, data=[69, 110]),
   midi.NoteOnEvent(tick=480, channel=3, data=[69, 0]),
   midi.NoteOnEvent(tick=9540, channel=3, data=[64, 90]),
   midi.NoteOnEvent(tick=60, channel=3, data=[64, 0]),
   midi.NoteOnEvent(tick=0, channel=3, data=[62, 90]),
   midi.NoteOnEvent(tick=720, channel=3, data=[62, 0]),
   midi.NoteOnEvent(tick=0, channel=3, data=[63, 80]),
   midi.NoteOnEvent(tick=720, channel=3, data=[63, 0]),
   midi.NoteOnEvent(tick=0, channel=3, data=[64, 80]),
   midi.NoteOnEvent(tick=720, channel=3, data=[64, 0]),
   midi.NoteOnEvent(tick=0, channel=3, data=[62, 80]),
   midi.NoteOnEvent(tick=480, channel=3, data=[62, 0]),
   midi.NoteOnEvent(tick=0, channel=3, data=[60, 80]),
   midi.NoteOnEvent(tick=240, channel=3, data=[60, 0]),
   midi.NoteOnEvent(tick=0, channel=3, data=[58, 80]),
   midi.NoteOnEvent(tick=2160, channel=3, data=[58, 0]),
   midi.EndOfTrackEvent(tick=0, data=[])]),
 midi.Track(\
  [midi.PortEvent(tick=0, data=[0]),
   midi.TrackNameEvent(tick=0, text='Strings', data=[83, 116, 114, 105, 110, 103, 115]),
   midi.ProgramChangeEvent(tick=0, channel=4, data=[49]),
   midi.ControlChangeEvent(tick=0, channel=4, data=[7, 110]),
   midi.ControlChangeEvent(tick=0, channel=4, data=[10, 100]),
   midi.NoteOnEvent(tick=14400, channel=4, data=[38, 90]),
   midi.NoteOnEvent(tick=0, channel=4, data=[50, 90]),
   midi.NoteOnEvent(tick=1200, channel=4, data=[50, 0]),
   midi.NoteOnEvent(tick=0, channel=4, data=[38, 0]),
   midi.NoteOnEvent(tick=18960, channel=4, data=[50, 90]),
   midi.NoteOnEvent(tick=0, channel=4, data=[38, 90]),
   midi.NoteOnEvent(tick=1200, channel=4, data=[38, 0]),
   midi.NoteOnEvent(tick=0, channel=4, data=[50, 0]),
   midi.NoteOnEvent(tick=5280, channel=4, data=[31, 54]),
   midi.NoteOnEvent(tick=0, channel=4, data=[43, 54]),
   midi.NoteOnEvent(tick=7200, channel=4, data=[31, 0]),
   midi.NoteOnEvent(tick=2100, channel=4, data=[43, 0]),
   midi.NoteOnEvent(tick=0, channel=4, data=[43, 64]),
   midi.NoteOnEvent(tick=60, channel=4, data=[43, 0]),
   midi.NoteOnEvent(tick=0, channel=4, data=[41, 64]),
   midi.NoteOnEvent(tick=4260, channel=4, data=[41, 0]),
   midi.NoteOnEvent(tick=0, channel=4, data=[41, 77]),
   midi.NoteOnEvent(tick=60, channel=4, data=[41, 0]),
   midi.NoteOnEvent(tick=0, channel=4, data=[26, 80]),
   midi.NoteOnEvent(tick=0, channel=4, data=[38, 80]),
   midi.NoteOnEvent(tick=1440, channel=4, data=[38, 0]),
   midi.NoteOnEvent(tick=0, channel=4, data=[26, 0]),
   midi.NoteOnEvent(tick=16560, channel=4, data=[38, 90]),
   midi.NoteOnEvent(tick=0, channel=4, data=[50, 90]),
   midi.NoteOnEvent(tick=1440, channel=4, data=[50, 0]),
   midi.NoteOnEvent(tick=0, channel=4, data=[38, 0]),
   midi.NoteOnEvent(tick=3240, channel=4, data=[63, 100]),
   midi.NoteOnEvent(tick=120, channel=4, data=[63, 0]),
   midi.NoteOnEvent(tick=0, channel=4, data=[58, 100]),
   midi.NoteOnEvent(tick=180, channel=4, data=[58, 0]),
   midi.NoteOnEvent(tick=0, channel=4, data=[55, 100]),
   midi.NoteOnEvent(tick=60, channel=4, data=[55, 0]),
   midi.NoteOnEvent(tick=0, channel=4, data=[53, 90]),
   midi.NoteOnEvent(tick=720, channel=4, data=[53, 0]),
   midi.NoteOnEvent(tick=0, channel=4, data=[55, 90]),
   midi.NoteOnEvent(tick=720, channel=4, data=[55, 0]),
   midi.NoteOnEvent(tick=0, channel=4, data=[56, 90]),
   midi.NoteOnEvent(tick=720, channel=4, data=[56, 0]),
   midi.NoteOnEvent(tick=0, channel=4, data=[55, 90]),
   midi.NoteOnEvent(tick=720, channel=4, data=[55, 0]),
   midi.NoteOnEvent(tick=0, channel=4, data=[56, 90]),
   midi.NoteOnEvent(tick=720, channel=4, data=[56, 0]),
   midi.NoteOnEvent(tick=0, channel=4, data=[39, 90]),
   midi.NoteOnEvent(tick=0, channel=4, data=[55, 90]),
   midi.NoteOnEvent(tick=720, channel=4, data=[55, 0]),
   midi.NoteOnEvent(tick=0, channel=4, data=[39, 0]),
   midi.NoteOnEvent(tick=720, channel=4, data=[31, 110]),
   midi.NoteOnEvent(tick=0, channel=4, data=[43, 110]),
   midi.NoteOnEvent(tick=480, channel=4, data=[43, 0]),
   midi.NoteOnEvent(tick=0, channel=4, data=[31, 0]),
   midi.NoteOnEvent(tick=6720, channel=4, data=[30, 110]),
   midi.NoteOnEvent(tick=0, channel=4, data=[42, 110]),
   midi.NoteOnEvent(tick=480, channel=4, data=[42, 0]),
   midi.NoteOnEvent(tick=0, channel=4, data=[30, 0]),
   midi.NoteOnEvent(tick=180, channel=4, data=[30, 110]),
   midi.NoteOnEvent(tick=0, channel=4, data=[42, 110]),
   midi.NoteOnEvent(tick=60, channel=4, data=[42, 0]),
   midi.NoteOnEvent(tick=0, channel=4, data=[30, 0]),
   midi.NoteOnEvent(tick=0, channel=4, data=[31, 110]),
   midi.NoteOnEvent(tick=0, channel=4, data=[43, 110]),
   midi.NoteOnEvent(tick=720, channel=4, data=[43, 0]),
   midi.NoteOnEvent(tick=0, channel=4, data=[31, 0]),
   midi.NoteOnEvent(tick=0, channel=4, data=[35, 110]),
   midi.NoteOnEvent(tick=0, channel=4, data=[47, 110]),
   midi.NoteOnEvent(tick=480, channel=4, data=[47, 0]),
   midi.NoteOnEvent(tick=0, channel=4, data=[35, 0]),
   midi.NoteOnEvent(tick=180, channel=4, data=[35, 110]),
   midi.NoteOnEvent(tick=0, channel=4, data=[47, 110]),
   midi.NoteOnEvent(tick=60, channel=4, data=[47, 0]),
   midi.NoteOnEvent(tick=0, channel=4, data=[35, 0]),
   midi.NoteOnEvent(tick=0, channel=4, data=[36, 110]),
   midi.NoteOnEvent(tick=0, channel=4, data=[48, 110]),
   midi.NoteOnEvent(tick=720, channel=4, data=[48, 0]),
   midi.NoteOnEvent(tick=0, channel=4, data=[36, 0]),
   midi.NoteOnEvent(tick=0, channel=4, data=[37, 110]),
   midi.NoteOnEvent(tick=0, channel=4, data=[49, 110]),
   midi.NoteOnEvent(tick=480, channel=4, data=[49, 0]),
   midi.NoteOnEvent(tick=0, channel=4, data=[37, 0]),
   midi.NoteOnEvent(tick=180, channel=4, data=[37, 110]),
   midi.NoteOnEvent(tick=0, channel=4, data=[49, 110]),
   midi.NoteOnEvent(tick=60, channel=4, data=[49, 0]),
   midi.NoteOnEvent(tick=0, channel=4, data=[37, 0]),
   midi.NoteOnEvent(tick=0, channel=4, data=[38, 110]),
   midi.NoteOnEvent(tick=0, channel=4, data=[50, 110]),
   midi.NoteOnEvent(tick=720, channel=4, data=[50, 0]),
   midi.NoteOnEvent(tick=0, channel=4, data=[38, 0]),
   midi.NoteOnEvent(tick=0, channel=4, data=[31, 110]),
   midi.NoteOnEvent(tick=0, channel=4, data=[43, 110]),
   midi.NoteOnEvent(tick=480, channel=4, data=[43, 0]),
   midi.NoteOnEvent(tick=0, channel=4, data=[31, 0]),
   midi.NoteOnEvent(tick=180, channel=4, data=[31, 110]),
   midi.NoteOnEvent(tick=0, channel=4, data=[43, 110]),
   midi.NoteOnEvent(tick=60, channel=4, data=[43, 0]),
   midi.NoteOnEvent(tick=0, channel=4, data=[31, 0]),
   midi.NoteOnEvent(tick=0, channel=4, data=[33, 110]),
   midi.NoteOnEvent(tick=0, channel=4, data=[45, 110]),
   midi.NoteOnEvent(tick=720, channel=4, data=[45, 0]),
   midi.NoteOnEvent(tick=0, channel=4, data=[33, 0]),
   midi.NoteOnEvent(tick=0, channel=4, data=[34, 110]),
   midi.NoteOnEvent(tick=0, channel=4, data=[46, 110]),
   midi.NoteOnEvent(tick=720, channel=4, data=[46, 0]),
   midi.NoteOnEvent(tick=0, channel=4, data=[34, 0]),
   midi.NoteOnEvent(tick=0, channel=4, data=[30, 110]),
   midi.NoteOnEvent(tick=0, channel=4, data=[42, 110]),
   midi.NoteOnEvent(tick=480, channel=4, data=[42, 0]),
   midi.NoteOnEvent(tick=0, channel=4, data=[30, 0]),
   midi.NoteOnEvent(tick=180, channel=4, data=[30, 110]),
   midi.NoteOnEvent(tick=0, channel=4, data=[42, 110]),
   midi.NoteOnEvent(tick=60, channel=4, data=[42, 0]),
   midi.NoteOnEvent(tick=0, channel=4, data=[30, 0]),
   midi.NoteOnEvent(tick=0, channel=4, data=[31, 105]),
   midi.NoteOnEvent(tick=0, channel=4, data=[43, 105]),
   midi.NoteOnEvent(tick=720, channel=4, data=[43, 0]),
   midi.NoteOnEvent(tick=0, channel=4, data=[31, 0]),
   midi.NoteOnEvent(tick=0, channel=4, data=[35, 105]),
   midi.NoteOnEvent(tick=0, channel=4, data=[47, 105]),
   midi.NoteOnEvent(tick=480, channel=4, data=[47, 0]),
   midi.NoteOnEvent(tick=0, channel=4, data=[35, 0]),
   midi.NoteOnEvent(tick=180, channel=4, data=[35, 105]),
   midi.NoteOnEvent(tick=0, channel=4, data=[47, 105]),
   midi.NoteOnEvent(tick=60, channel=4, data=[47, 0]),
   midi.NoteOnEvent(tick=0, channel=4, data=[35, 0]),
   midi.NoteOnEvent(tick=0, channel=4, data=[36, 105]),
   midi.NoteOnEvent(tick=0, channel=4, data=[48, 105]),
   midi.NoteOnEvent(tick=720, channel=4, data=[48, 0]),
   midi.NoteOnEvent(tick=0, channel=4, data=[36, 0]),
   midi.NoteOnEvent(tick=0, channel=4, data=[37, 105]),
   midi.NoteOnEvent(tick=0, channel=4, data=[49, 105]),
   midi.NoteOnEvent(tick=480, channel=4, data=[49, 0]),
   midi.NoteOnEvent(tick=0, channel=4, data=[37, 0]),
   midi.NoteOnEvent(tick=3120, channel=4, data=[31, 90]),
   midi.NoteOnEvent(tick=0, channel=4, data=[43, 90]),
   midi.NoteOnEvent(tick=2160, channel=4, data=[43, 0]),
   midi.NoteOnEvent(tick=0, channel=4, data=[31, 0]),
   midi.EndOfTrackEvent(tick=0, data=[])]),
 midi.Track(\
  [midi.PortEvent(tick=0, data=[0]),
   midi.TrackNameEvent(tick=0, text='Pizzicato', data=[80, 105, 122, 122, 105, 99, 97, 116, 111]),
   midi.ProgramChangeEvent(tick=0, channel=5, data=[45]),
   midi.ControlChangeEvent(tick=0, channel=5, data=[7, 110]),
   midi.ControlChangeEvent(tick=0, channel=5, data=[10, 127]),
   midi.NoteOnEvent(tick=720, channel=5, data=[31, 80]),
   midi.NoteOnEvent(tick=0, channel=5, data=[43, 80]),
   midi.NoteOnEvent(tick=240, channel=5, data=[43, 0]),
   midi.NoteOnEvent(tick=0, channel=5, data=[31, 0]),
   midi.NoteOnEvent(tick=0, channel=5, data=[43, 80]),
   midi.NoteOnEvent(tick=0, channel=5, data=[55, 80]),
   midi.NoteOnEvent(tick=240, channel=5, data=[55, 0]),
   midi.NoteOnEvent(tick=0, channel=5, data=[43, 0]),
   midi.NoteOnEvent(tick=0, channel=5, data=[31, 80]),
   midi.NoteOnEvent(tick=0, channel=5, data=[43, 80]),
   midi.NoteOnEvent(tick=240, channel=5, data=[43, 0]),
   midi.NoteOnEvent(tick=0, channel=5, data=[31, 0]),
   midi.NoteOnEvent(tick=0, channel=5, data=[29, 80]),
   midi.NoteOnEvent(tick=0, channel=5, data=[41, 80]),
   midi.NoteOnEvent(tick=240, channel=5, data=[41, 0]),
   midi.NoteOnEvent(tick=0, channel=5, data=[29, 0]),
   midi.NoteOnEvent(tick=0, channel=5, data=[41, 80]),
   midi.NoteOnEvent(tick=0, channel=5, data=[53, 80]),
   midi.NoteOnEvent(tick=240, channel=5, data=[53, 0]),
   midi.NoteOnEvent(tick=0, channel=5, data=[41, 0]),
   midi.NoteOnEvent(tick=0, channel=5, data=[29, 80]),
   midi.NoteOnEvent(tick=0, channel=5, data=[41, 80]),
   midi.NoteOnEvent(tick=240, channel=5, data=[41, 0]),
   midi.NoteOnEvent(tick=0, channel=5, data=[29, 0]),
   midi.NoteOnEvent(tick=0, channel=5, data=[27, 80]),
   midi.NoteOnEvent(tick=0, channel=5, data=[39, 80]),
   midi.NoteOnEvent(tick=240, channel=5, data=[39, 0]),
   midi.NoteOnEvent(tick=0, channel=5, data=[27, 0]),
   midi.NoteOnEvent(tick=0, channel=5, data=[39, 80]),
   midi.NoteOnEvent(tick=0, channel=5, data=[51, 80]),
   midi.NoteOnEvent(tick=240, channel=5, data=[51, 0]),
   midi.NoteOnEvent(tick=0, channel=5, data=[39, 0]),
   midi.NoteOnEvent(tick=0, channel=5, data=[27, 80]),
   midi.NoteOnEvent(tick=0, channel=5, data=[39, 80]),
   midi.NoteOnEvent(tick=240, channel=5, data=[39, 0]),
   midi.NoteOnEvent(tick=0, channel=5, data=[27, 0]),
   midi.NoteOnEvent(tick=0, channel=5, data=[26, 80]),
   midi.NoteOnEvent(tick=0, channel=5, data=[38, 80]),
   midi.NoteOnEvent(tick=240, channel=5, data=[38, 0]),
   midi.NoteOnEvent(tick=0, channel=5, data=[26, 0]),
   midi.NoteOnEvent(tick=0, channel=5, data=[38, 80]),
   midi.NoteOnEvent(tick=0, channel=5, data=[50, 80]),
   midi.NoteOnEvent(tick=240, channel=5, data=[50, 0]),
   midi.NoteOnEvent(tick=0, channel=5, data=[38, 0]),
   midi.NoteOnEvent(tick=0, channel=5, data=[26, 80]),
   midi.NoteOnEvent(tick=0, channel=5, data=[38, 80]),
   midi.NoteOnEvent(tick=240, channel=5, data=[38, 0]),
   midi.NoteOnEvent(tick=0, channel=5, data=[26, 0]),
   midi.NoteOnEvent(tick=0, channel=5, data=[24, 80]),
   midi.NoteOnEvent(tick=0, channel=5, data=[36, 80]),
   midi.NoteOnEvent(tick=240, channel=5, data=[36, 0]),
   midi.NoteOnEvent(tick=0, channel=5, data=[24, 0]),
   midi.NoteOnEvent(tick=0, channel=5, data=[36, 80]),
   midi.NoteOnEvent(tick=0, channel=5, data=[48, 80]),
   midi.NoteOnEvent(tick=240, channel=5, data=[48, 0]),
   midi.NoteOnEvent(tick=0, channel=5, data=[36, 0]),
   midi.NoteOnEvent(tick=0, channel=5, data=[24, 80]),
   midi.NoteOnEvent(tick=0, channel=5, data=[36, 80]),
   midi.NoteOnEvent(tick=240, channel=5, data=[36, 0]),
   midi.NoteOnEvent(tick=0, channel=5, data=[24, 0]),
   midi.NoteOnEvent(tick=0, channel=5, data=[25, 80]),
   midi.NoteOnEvent(tick=0, channel=5, data=[37, 80]),
   midi.NoteOnEvent(tick=240, channel=5, data=[37, 0]),
   midi.NoteOnEvent(tick=0, channel=5, data=[25, 0]),
   midi.NoteOnEvent(tick=0, channel=5, data=[37, 80]),
   midi.NoteOnEvent(tick=0, channel=5, data=[49, 80]),
   midi.NoteOnEvent(tick=240, channel=5, data=[49, 0]),
   midi.NoteOnEvent(tick=0, channel=5, data=[37, 0]),
   midi.NoteOnEvent(tick=0, channel=5, data=[25, 80]),
   midi.NoteOnEvent(tick=0, channel=5, data=[37, 80]),
   midi.NoteOnEvent(tick=240, channel=5, data=[37, 0]),
   midi.NoteOnEvent(tick=0, channel=5, data=[25, 0]),
   midi.NoteOnEvent(tick=0, channel=5, data=[26, 80]),
   midi.NoteOnEvent(tick=0, channel=5, data=[38, 80]),
   midi.NoteOnEvent(tick=240, channel=5, data=[38, 0]),
   midi.NoteOnEvent(tick=0, channel=5, data=[26, 0]),
   midi.NoteOnEvent(tick=0, channel=5, data=[38, 80]),
   midi.NoteOnEvent(tick=0, channel=5, data=[50, 80]),
   midi.NoteOnEvent(tick=240, channel=5, data=[50, 0]),
   midi.NoteOnEvent(tick=0, channel=5, data=[38, 0]),
   midi.NoteOnEvent(tick=0, channel=5, data=[26, 80]),
   midi.NoteOnEvent(tick=0, channel=5, data=[38, 80]),
   midi.NoteOnEvent(tick=240, channel=5, data=[38, 0]),
   midi.NoteOnEvent(tick=0, channel=5, data=[26, 0]),
   midi.NoteOnEvent(tick=0, channel=5, data=[31, 80]),
   midi.NoteOnEvent(tick=0, channel=5, data=[43, 80]),
   midi.NoteOnEvent(tick=240, channel=5, data=[43, 0]),
   midi.NoteOnEvent(tick=0, channel=5, data=[31, 0]),
   midi.NoteOnEvent(tick=0, channel=5, data=[43, 80]),
   midi.NoteOnEvent(tick=0, channel=5, data=[55, 80]),
   midi.NoteOnEvent(tick=240, channel=5, data=[55, 0]),
   midi.NoteOnEvent(tick=0, channel=5, data=[43, 0]),
   midi.NoteOnEvent(tick=0, channel=5, data=[31, 80]),
   midi.NoteOnEvent(tick=0, channel=5, data=[43, 80]),
   midi.NoteOnEvent(tick=240, channel=5, data=[43, 0]),
   midi.NoteOnEvent(tick=0, channel=5, data=[31, 0]),
   midi.NoteOnEvent(tick=0, channel=5, data=[31, 80]),
   midi.NoteOnEvent(tick=0, channel=5, data=[43, 80]),
   midi.NoteOnEvent(tick=240, channel=5, data=[43, 0]),
   midi.NoteOnEvent(tick=0, channel=5, data=[31, 0]),
   midi.NoteOnEvent(tick=0, channel=5, data=[43, 80]),
   midi.NoteOnEvent(tick=0, channel=5, data=[55, 80]),
   midi.NoteOnEvent(tick=240, channel=5, data=[55, 0]),
   midi.NoteOnEvent(tick=0, channel=5, data=[43, 0]),
   midi.NoteOnEvent(tick=0, channel=5, data=[31, 80]),
   midi.NoteOnEvent(tick=0, channel=5, data=[43, 80]),
   midi.NoteOnEvent(tick=240, channel=5, data=[43, 0]),
   midi.NoteOnEvent(tick=0, channel=5, data=[31, 0]),
   midi.NoteOnEvent(tick=0, channel=5, data=[33, 80]),
   midi.NoteOnEvent(tick=0, channel=5, data=[45, 80]),
   midi.NoteOnEvent(tick=240, channel=5, data=[45, 0]),
   midi.NoteOnEvent(tick=0, channel=5, data=[33, 0]),
   midi.NoteOnEvent(tick=0, channel=5, data=[45, 80]),
   midi.NoteOnEvent(tick=0, channel=5, data=[57, 80]),
   midi.NoteOnEvent(tick=240, channel=5, data=[57, 0]),
   midi.NoteOnEvent(tick=0, channel=5, data=[45, 0]),
   midi.NoteOnEvent(tick=0, channel=5, data=[33, 80]),
   midi.NoteOnEvent(tick=0, channel=5, data=[45, 80]),
   midi.NoteOnEvent(tick=240, channel=5, data=[45, 0]),
   midi.NoteOnEvent(tick=0, channel=5, data=[33, 0]),
   midi.NoteOnEvent(tick=0, channel=5, data=[45, 80]),
   midi.NoteOnEvent(tick=0, channel=5, data=[33, 80]),
   midi.NoteOnEvent(tick=240, channel=5, data=[33, 0]),
   midi.NoteOnEvent(tick=0, channel=5, data=[45, 0]),
   midi.NoteOnEvent(tick=0, channel=5, data=[57, 80]),
   midi.NoteOnEvent(tick=0, channel=5, data=[45, 80]),
   midi.NoteOnEvent(tick=240, channel=5, data=[45, 0]),
   midi.NoteOnEvent(tick=0, channel=5, data=[57, 0]),
   midi.NoteOnEvent(tick=0, channel=5, data=[45, 80]),
   midi.NoteOnEvent(tick=0, channel=5, data=[33, 80]),
   midi.NoteOnEvent(tick=240, channel=5, data=[33, 0]),
   midi.NoteOnEvent(tick=0, channel=5, data=[45, 0]),
   midi.NoteOnEvent(tick=0, channel=5, data=[34, 80]),
   midi.NoteOnEvent(tick=0, channel=5, data=[46, 80]),
   midi.NoteOnEvent(tick=240, channel=5, data=[46, 0]),
   midi.NoteOnEvent(tick=0, channel=5, data=[34, 0]),
   midi.NoteOnEvent(tick=0, channel=5, data=[46, 80]),
   midi.NoteOnEvent(tick=0, channel=5, data=[58, 80]),
   midi.NoteOnEvent(tick=240, channel=5, data=[58, 0]),
   midi.NoteOnEvent(tick=0, channel=5, data=[46, 0]),
   midi.NoteOnEvent(tick=0, channel=5, data=[34, 80]),
   midi.NoteOnEvent(tick=0, channel=5, data=[46, 80]),
   midi.NoteOnEvent(tick=240, channel=5, data=[46, 0]),
   midi.NoteOnEvent(tick=0, channel=5, data=[34, 0]),
   midi.NoteOnEvent(tick=0, channel=5, data=[34, 80]),
   midi.NoteOnEvent(tick=0, channel=5, data=[46, 80]),
   midi.NoteOnEvent(tick=240, channel=5, data=[46, 0]),
   midi.NoteOnEvent(tick=0, channel=5, data=[34, 0]),
   midi.NoteOnEvent(tick=0, channel=5, data=[46, 80]),
   midi.NoteOnEvent(tick=0, channel=5, data=[58, 80]),
   midi.NoteOnEvent(tick=240, channel=5, data=[58, 0]),
   midi.NoteOnEvent(tick=0, channel=5, data=[46, 0]),
   midi.NoteOnEvent(tick=0, channel=5, data=[34, 80]),
   midi.NoteOnEvent(tick=0, channel=5, data=[46, 80]),
   midi.NoteOnEvent(tick=240, channel=5, data=[46, 0]),
   midi.NoteOnEvent(tick=0, channel=5, data=[34, 0]),
   midi.NoteOnEvent(tick=0, channel=5, data=[36, 80]),
   midi.NoteOnEvent(tick=0, channel=5, data=[48, 80]),
   midi.NoteOnEvent(tick=240, channel=5, data=[48, 0]),
   midi.NoteOnEvent(tick=0, channel=5, data=[36, 0]),
   midi.NoteOnEvent(tick=0, channel=5, data=[48, 80]),
   midi.NoteOnEvent(tick=0, channel=5, data=[60, 80]),
   midi.NoteOnEvent(tick=240, channel=5, data=[60, 0]),
   midi.NoteOnEvent(tick=0, channel=5, data=[48, 0]),
   midi.NoteOnEvent(tick=0, channel=5, data=[36, 80]),
   midi.NoteOnEvent(tick=0, channel=5, data=[48, 80]),
   midi.NoteOnEvent(tick=240, channel=5, data=[48, 0]),
   midi.NoteOnEvent(tick=0, channel=5, data=[36, 0]),
   midi.NoteOnEvent(tick=0, channel=5, data=[33, 80]),
   midi.NoteOnEvent(tick=0, channel=5, data=[45, 80]),
   midi.NoteOnEvent(tick=240, channel=5, data=[45, 0]),
   midi.NoteOnEvent(tick=0, channel=5, data=[33, 0]),
   midi.NoteOnEvent(tick=0, channel=5, data=[45, 80]),
   midi.NoteOnEvent(tick=0, channel=5, data=[57, 80]),
   midi.NoteOnEvent(tick=240, channel=5, data=[57, 0]),
   midi.NoteOnEvent(tick=0, channel=5, data=[45, 0]),
   midi.NoteOnEvent(tick=0, channel=5, data=[33, 80]),
   midi.NoteOnEvent(tick=0, channel=5, data=[45, 80]),
   midi.NoteOnEvent(tick=240, channel=5, data=[45, 0]),
   midi.NoteOnEvent(tick=0, channel=5, data=[33, 0]),
   midi.NoteOnEvent(tick=0, channel=5, data=[34, 80]),
   midi.NoteOnEvent(tick=0, channel=5, data=[46, 80]),
   midi.NoteOnEvent(tick=240, channel=5, data=[46, 0]),
   midi.NoteOnEvent(tick=0, channel=5, data=[34, 0]),
   midi.NoteOnEvent(tick=0, channel=5, data=[46, 80]),
   midi.NoteOnEvent(tick=0, channel=5, data=[58, 80]),
   midi.NoteOnEvent(tick=240, channel=5, data=[58, 0]),
   midi.NoteOnEvent(tick=0, channel=5, data=[46, 0]),
   midi.NoteOnEvent(tick=0, channel=5, data=[34, 80]),
   midi.NoteOnEvent(tick=0, channel=5, data=[46, 80]),
   midi.NoteOnEvent(tick=240, channel=5, data=[46, 0]),
   midi.NoteOnEvent(tick=0, channel=5, data=[34, 0]),
   midi.NoteOnEvent(tick=0, channel=5, data=[31, 80]),
   midi.NoteOnEvent(tick=0, channel=5, data=[43, 80]),
   midi.NoteOnEvent(tick=240, channel=5, data=[43, 0]),
   midi.NoteOnEvent(tick=0, channel=5, data=[31, 0]),
   midi.NoteOnEvent(tick=0, channel=5, data=[43, 80]),
   midi.NoteOnEvent(tick=0, channel=5, data=[55, 80]),
   midi.NoteOnEvent(tick=240, channel=5, data=[55, 0]),
   midi.NoteOnEvent(tick=0, channel=5, data=[43, 0]),
   midi.NoteOnEvent(tick=0, channel=5, data=[31, 80]),
   midi.NoteOnEvent(tick=0, channel=5, data=[43, 80]),
   midi.NoteOnEvent(tick=240, channel=5, data=[43, 0]),
   midi.NoteOnEvent(tick=0, channel=5, data=[31, 0]),
   midi.NoteOnEvent(tick=0, channel=5, data=[33, 80]),
   midi.NoteOnEvent(tick=0, channel=5, data=[45, 80]),
   midi.NoteOnEvent(tick=240, channel=5, data=[45, 0]),
   midi.NoteOnEvent(tick=0, channel=5, data=[33, 0]),
   midi.NoteOnEvent(tick=0, channel=5, data=[45, 80]),
   midi.NoteOnEvent(tick=0, channel=5, data=[57, 80]),
   midi.NoteOnEvent(tick=240, channel=5, data=[57, 0]),
   midi.NoteOnEvent(tick=0, channel=5, data=[45, 0]),
   midi.NoteOnEvent(tick=0, channel=5, data=[33, 80]),
   midi.NoteOnEvent(tick=0, channel=5, data=[45, 80]),
   midi.NoteOnEvent(tick=240, channel=5, data=[45, 0]),
   midi.NoteOnEvent(tick=0, channel=5, data=[33, 0]),
   midi.NoteOnEvent(tick=0, channel=5, data=[34, 80]),
   midi.NoteOnEvent(tick=0, channel=5, data=[46, 80]),
   midi.NoteOnEvent(tick=240, channel=5, data=[46, 0]),
   midi.NoteOnEvent(tick=0, channel=5, data=[34, 0]),
   midi.NoteOnEvent(tick=0, channel=5, data=[46, 80]),
   midi.NoteOnEvent(tick=0, channel=5, data=[58, 80]),
   midi.NoteOnEvent(tick=240, channel=5, data=[58, 0]),
   midi.NoteOnEvent(tick=0, channel=5, data=[46, 0]),
   midi.NoteOnEvent(tick=0, channel=5, data=[36, 80]),
   midi.NoteOnEvent(tick=0, channel=5, data=[48, 80]),
   midi.NoteOnEvent(tick=240, channel=5, data=[48, 0]),
   midi.NoteOnEvent(tick=0, channel=5, data=[36, 0]),
   midi.NoteOnEvent(tick=2160, channel=5, data=[35, 80]),
   midi.NoteOnEvent(tick=0, channel=5, data=[47, 80]),
   midi.NoteOnEvent(tick=240, channel=5, data=[47, 0]),
   midi.NoteOnEvent(tick=0, channel=5, data=[35, 0]),
   midi.NoteOnEvent(tick=0, channel=5, data=[47, 80]),
   midi.NoteOnEvent(tick=0, channel=5, data=[59, 80]),
   midi.NoteOnEvent(tick=240, channel=5, data=[59, 0]),
   midi.NoteOnEvent(tick=0, channel=5, data=[47, 0]),
   midi.NoteOnEvent(tick=0, channel=5, data=[35, 80]),
   midi.NoteOnEvent(tick=0, channel=5, data=[47, 80]),
   midi.NoteOnEvent(tick=240, channel=5, data=[47, 0]),
   midi.NoteOnEvent(tick=0, channel=5, data=[35, 0]),
   midi.NoteOnEvent(tick=0, channel=5, data=[36, 80]),
   midi.NoteOnEvent(tick=0, channel=5, data=[48, 80]),
   midi.NoteOnEvent(tick=240, channel=5, data=[48, 0]),
   midi.NoteOnEvent(tick=0, channel=5, data=[36, 0]),
   midi.NoteOnEvent(tick=0, channel=5, data=[48, 80]),
   midi.NoteOnEvent(tick=0, channel=5, data=[60, 80]),
   midi.NoteOnEvent(tick=240, channel=5, data=[60, 0]),
   midi.NoteOnEvent(tick=0, channel=5, data=[48, 0]),
   midi.NoteOnEvent(tick=0, channel=5, data=[36, 80]),
   midi.NoteOnEvent(tick=0, channel=5, data=[48, 80]),
   midi.NoteOnEvent(tick=240, channel=5, data=[48, 0]),
   midi.NoteOnEvent(tick=0, channel=5, data=[36, 0]),
   midi.NoteOnEvent(tick=0, channel=5, data=[34, 80]),
   midi.NoteOnEvent(tick=0, channel=5, data=[46, 80]),
   midi.NoteOnEvent(tick=240, channel=5, data=[46, 0]),
   midi.NoteOnEvent(tick=0, channel=5, data=[34, 0]),
   midi.NoteOnEvent(tick=0, channel=5, data=[46, 80]),
   midi.NoteOnEvent(tick=0, channel=5, data=[58, 80]),
   midi.NoteOnEvent(tick=240, channel=5, data=[58, 0]),
   midi.NoteOnEvent(tick=0, channel=5, data=[46, 0]),
   midi.NoteOnEvent(tick=0, channel=5, data=[34, 80]),
   midi.NoteOnEvent(tick=0, channel=5, data=[46, 80]),
   midi.NoteOnEvent(tick=240, channel=5, data=[46, 0]),
   midi.NoteOnEvent(tick=0, channel=5, data=[34, 0]),
   midi.NoteOnEvent(tick=0, channel=5, data=[32, 80]),
   midi.NoteOnEvent(tick=0, channel=5, data=[44, 80]),
   midi.NoteOnEvent(tick=240, channel=5, data=[44, 0]),
   midi.NoteOnEvent(tick=0, channel=5, data=[32, 0]),
   midi.NoteOnEvent(tick=0, channel=5, data=[44, 80]),
   midi.NoteOnEvent(tick=0, channel=5, data=[56, 80]),
   midi.NoteOnEvent(tick=240, channel=5, data=[56, 0]),
   midi.NoteOnEvent(tick=0, channel=5, data=[44, 0]),
   midi.NoteOnEvent(tick=0, channel=5, data=[32, 80]),
   midi.NoteOnEvent(tick=0, channel=5, data=[44, 80]),
   midi.NoteOnEvent(tick=240, channel=5, data=[44, 0]),
   midi.NoteOnEvent(tick=0, channel=5, data=[32, 0]),
   midi.NoteOnEvent(tick=0, channel=5, data=[26, 80]),
   midi.NoteOnEvent(tick=0, channel=5, data=[38, 80]),
   midi.NoteOnEvent(tick=240, channel=5, data=[38, 0]),
   midi.NoteOnEvent(tick=0, channel=5, data=[26, 0]),
   midi.NoteOnEvent(tick=0, channel=5, data=[38, 80]),
   midi.NoteOnEvent(tick=0, channel=5, data=[50, 80]),
   midi.NoteOnEvent(tick=240, channel=5, data=[50, 0]),
   midi.NoteOnEvent(tick=0, channel=5, data=[38, 0]),
   midi.NoteOnEvent(tick=0, channel=5, data=[26, 80]),
   midi.NoteOnEvent(tick=0, channel=5, data=[38, 80]),
   midi.NoteOnEvent(tick=240, channel=5, data=[38, 0]),
   midi.NoteOnEvent(tick=0, channel=5, data=[26, 0]),
   midi.NoteOnEvent(tick=0, channel=5, data=[26, 80]),
   midi.NoteOnEvent(tick=0, channel=5, data=[38, 80]),
   midi.NoteOnEvent(tick=240, channel=5, data=[38, 0]),
   midi.NoteOnEvent(tick=0, channel=5, data=[26, 0]),
   midi.NoteOnEvent(tick=0, channel=5, data=[38, 80]),
   midi.NoteOnEvent(tick=0, channel=5, data=[50, 80]),
   midi.NoteOnEvent(tick=240, channel=5, data=[50, 0]),
   midi.NoteOnEvent(tick=0, channel=5, data=[38, 0]),
   midi.NoteOnEvent(tick=0, channel=5, data=[26, 80]),
   midi.NoteOnEvent(tick=0, channel=5, data=[38, 80]),
   midi.NoteOnEvent(tick=240, channel=5, data=[38, 0]),
   midi.NoteOnEvent(tick=0, channel=5, data=[26, 0]),
   midi.NoteOnEvent(tick=0, channel=5, data=[31, 80]),
   midi.NoteOnEvent(tick=0, channel=5, data=[43, 80]),
   midi.NoteOnEvent(tick=240, channel=5, data=[43, 0]),
   midi.NoteOnEvent(tick=0, channel=5, data=[31, 0]),
   midi.NoteOnEvent(tick=0, channel=5, data=[43, 80]),
   midi.NoteOnEvent(tick=0, channel=5, data=[55, 80]),
   midi.NoteOnEvent(tick=240, channel=5, data=[55, 0]),
   midi.NoteOnEvent(tick=0, channel=5, data=[43, 0]),
   midi.NoteOnEvent(tick=0, channel=5, data=[31, 80]),
   midi.NoteOnEvent(tick=0, channel=5, data=[43, 80]),
   midi.NoteOnEvent(tick=240, channel=5, data=[43, 0]),
   midi.NoteOnEvent(tick=0, channel=5, data=[31, 0]),
   midi.NoteOnEvent(tick=0, channel=5, data=[41, 80]),
   midi.NoteOnEvent(tick=0, channel=5, data=[29, 80]),
   midi.NoteOnEvent(tick=240, channel=5, data=[29, 0]),
   midi.NoteOnEvent(tick=0, channel=5, data=[41, 0]),
   midi.NoteOnEvent(tick=0, channel=5, data=[53, 80]),
   midi.NoteOnEvent(tick=0, channel=5, data=[41, 80]),
   midi.NoteOnEvent(tick=240, channel=5, data=[41, 0]),
   midi.NoteOnEvent(tick=0, channel=5, data=[53, 0]),
   midi.NoteOnEvent(tick=0, channel=5, data=[41, 80]),
   midi.NoteOnEvent(tick=0, channel=5, data=[29, 80]),
   midi.NoteOnEvent(tick=240, channel=5, data=[29, 0]),
   midi.NoteOnEvent(tick=0, channel=5, data=[41, 0]),
   midi.NoteOnEvent(tick=0, channel=5, data=[39, 80]),
   midi.NoteOnEvent(tick=0, channel=5, data=[27, 80]),
   midi.NoteOnEvent(tick=240, channel=5, data=[27, 0]),
   midi.NoteOnEvent(tick=0, channel=5, data=[39, 0]),
   midi.NoteOnEvent(tick=0, channel=5, data=[51, 80]),
   midi.NoteOnEvent(tick=0, channel=5, data=[39, 80]),
   midi.NoteOnEvent(tick=240, channel=5, data=[39, 0]),
   midi.NoteOnEvent(tick=0, channel=5, data=[51, 0]),
   midi.NoteOnEvent(tick=0, channel=5, data=[39, 80]),
   midi.NoteOnEvent(tick=0, channel=5, data=[27, 80]),
   midi.NoteOnEvent(tick=240, channel=5, data=[27, 0]),
   midi.NoteOnEvent(tick=0, channel=5, data=[39, 0]),
   midi.NoteOnEvent(tick=0, channel=5, data=[38, 80]),
   midi.NoteOnEvent(tick=0, channel=5, data=[26, 80]),
   midi.NoteOnEvent(tick=240, channel=5, data=[26, 0]),
   midi.NoteOnEvent(tick=0, channel=5, data=[38, 0]),
   midi.NoteOnEvent(tick=0, channel=5, data=[50, 80]),
   midi.NoteOnEvent(tick=0, channel=5, data=[38, 80]),
   midi.NoteOnEvent(tick=240, channel=5, data=[38, 0]),
   midi.NoteOnEvent(tick=0, channel=5, data=[50, 0]),
   midi.NoteOnEvent(tick=0, channel=5, data=[38, 80]),
   midi.NoteOnEvent(tick=0, channel=5, data=[26, 80]),
   midi.NoteOnEvent(tick=240, channel=5, data=[26, 0]),
   midi.NoteOnEvent(tick=0, channel=5, data=[38, 0]),
   midi.NoteOnEvent(tick=0, channel=5, data=[36, 80]),
   midi.NoteOnEvent(tick=0, channel=5, data=[24, 80]),
   midi.NoteOnEvent(tick=240, channel=5, data=[24, 0]),
   midi.NoteOnEvent(tick=0, channel=5, data=[36, 0]),
   midi.NoteOnEvent(tick=0, channel=5, data=[48, 80]),
   midi.NoteOnEvent(tick=0, channel=5, data=[36, 80]),
   midi.NoteOnEvent(tick=240, channel=5, data=[36, 0]),
   midi.NoteOnEvent(tick=0, channel=5, data=[48, 0]),
   midi.NoteOnEvent(tick=0, channel=5, data=[36, 80]),
   midi.NoteOnEvent(tick=0, channel=5, data=[24, 80]),
   midi.NoteOnEvent(tick=240, channel=5, data=[24, 0]),
   midi.NoteOnEvent(tick=0, channel=5, data=[36, 0]),
   midi.NoteOnEvent(tick=0, channel=5, data=[37, 80]),
   midi.NoteOnEvent(tick=0, channel=5, data=[25, 80]),
   midi.NoteOnEvent(tick=240, channel=5, data=[25, 0]),
   midi.NoteOnEvent(tick=0, channel=5, data=[37, 0]),
   midi.NoteOnEvent(tick=0, channel=5, data=[49, 80]),
   midi.NoteOnEvent(tick=0, channel=5, data=[37, 80]),
   midi.NoteOnEvent(tick=240, channel=5, data=[37, 0]),
   midi.NoteOnEvent(tick=0, channel=5, data=[49, 0]),
   midi.NoteOnEvent(tick=0, channel=5, data=[37, 80]),
   midi.NoteOnEvent(tick=0, channel=5, data=[25, 80]),
   midi.NoteOnEvent(tick=240, channel=5, data=[25, 0]),
   midi.NoteOnEvent(tick=0, channel=5, data=[37, 0]),
   midi.NoteOnEvent(tick=0, channel=5, data=[38, 80]),
   midi.NoteOnEvent(tick=0, channel=5, data=[26, 80]),
   midi.NoteOnEvent(tick=240, channel=5, data=[26, 0]),
   midi.NoteOnEvent(tick=0, channel=5, data=[38, 0]),
   midi.NoteOnEvent(tick=0, channel=5, data=[50, 80]),
   midi.NoteOnEvent(tick=0, channel=5, data=[38, 80]),
   midi.NoteOnEvent(tick=240, channel=5, data=[38, 0]),
   midi.NoteOnEvent(tick=0, channel=5, data=[50, 0]),
   midi.NoteOnEvent(tick=0, channel=5, data=[38, 80]),
   midi.NoteOnEvent(tick=0, channel=5, data=[26, 80]),
   midi.NoteOnEvent(tick=240, channel=5, data=[26, 0]),
   midi.NoteOnEvent(tick=0, channel=5, data=[38, 0]),
   midi.NoteOnEvent(tick=0, channel=5, data=[43, 80]),
   midi.NoteOnEvent(tick=0, channel=5, data=[31, 80]),
   midi.NoteOnEvent(tick=240, channel=5, data=[31, 0]),
   midi.NoteOnEvent(tick=0, channel=5, data=[43, 0]),
   midi.NoteOnEvent(tick=0, channel=5, data=[55, 80]),
   midi.NoteOnEvent(tick=0, channel=5, data=[43, 80]),
   midi.NoteOnEvent(tick=240, channel=5, data=[43, 0]),
   midi.NoteOnEvent(tick=0, channel=5, data=[55, 0]),
   midi.NoteOnEvent(tick=0, channel=5, data=[43, 80]),
   midi.NoteOnEvent(tick=0, channel=5, data=[31, 80]),
   midi.NoteOnEvent(tick=240, channel=5, data=[31, 0]),
   midi.NoteOnEvent(tick=0, channel=5, data=[43, 0]),
   midi.NoteOnEvent(tick=0, channel=5, data=[43, 80]),
   midi.NoteOnEvent(tick=0, channel=5, data=[31, 80]),
   midi.NoteOnEvent(tick=240, channel=5, data=[31, 0]),
   midi.NoteOnEvent(tick=0, channel=5, data=[43, 0]),
   midi.NoteOnEvent(tick=0, channel=5, data=[55, 80]),
   midi.NoteOnEvent(tick=0, channel=5, data=[43, 80]),
   midi.NoteOnEvent(tick=240, channel=5, data=[43, 0]),
   midi.NoteOnEvent(tick=0, channel=5, data=[55, 0]),
   midi.NoteOnEvent(tick=0, channel=5, data=[43, 80]),
   midi.NoteOnEvent(tick=0, channel=5, data=[31, 80]),
   midi.NoteOnEvent(tick=240, channel=5, data=[31, 0]),
   midi.NoteOnEvent(tick=0, channel=5, data=[43, 0]),
   midi.NoteOnEvent(tick=0, channel=5, data=[45, 80]),
   midi.NoteOnEvent(tick=0, channel=5, data=[33, 80]),
   midi.NoteOnEvent(tick=240, channel=5, data=[33, 0]),
   midi.NoteOnEvent(tick=0, channel=5, data=[45, 0]),
   midi.NoteOnEvent(tick=0, channel=5, data=[57, 80]),
   midi.NoteOnEvent(tick=0, channel=5, data=[45, 80]),
   midi.NoteOnEvent(tick=240, channel=5, data=[45, 0]),
   midi.NoteOnEvent(tick=0, channel=5, data=[57, 0]),
   midi.NoteOnEvent(tick=0, channel=5, data=[45, 80]),
   midi.NoteOnEvent(tick=0, channel=5, data=[33, 80]),
   midi.NoteOnEvent(tick=240, channel=5, data=[33, 0]),
   midi.NoteOnEvent(tick=0, channel=5, data=[45, 0]),
   midi.NoteOnEvent(tick=0, channel=5, data=[33, 80]),
   midi.NoteOnEvent(tick=0, channel=5, data=[45, 80]),
   midi.NoteOnEvent(tick=240, channel=5, data=[45, 0]),
   midi.NoteOnEvent(tick=0, channel=5, data=[33, 0]),
   midi.NoteOnEvent(tick=0, channel=5, data=[45, 80]),
   midi.NoteOnEvent(tick=0, channel=5, data=[57, 80]),
   midi.NoteOnEvent(tick=240, channel=5, data=[57, 0]),
   midi.NoteOnEvent(tick=0, channel=5, data=[45, 0]),
   midi.NoteOnEvent(tick=0, channel=5, data=[33, 80]),
   midi.NoteOnEvent(tick=0, channel=5, data=[45, 80]),
   midi.NoteOnEvent(tick=240, channel=5, data=[45, 0]),
   midi.NoteOnEvent(tick=0, channel=5, data=[33, 0]),
   midi.NoteOnEvent(tick=0, channel=5, data=[46, 80]),
   midi.NoteOnEvent(tick=0, channel=5, data=[34, 80]),
   midi.NoteOnEvent(tick=240, channel=5, data=[34, 0]),
   midi.NoteOnEvent(tick=0, channel=5, data=[46, 0]),
   midi.NoteOnEvent(tick=0, channel=5, data=[58, 80]),
   midi.NoteOnEvent(tick=0, channel=5, data=[46, 80]),
   midi.NoteOnEvent(tick=240, channel=5, data=[46, 0]),
   midi.NoteOnEvent(tick=0, channel=5, data=[58, 0]),
   midi.NoteOnEvent(tick=0, channel=5, data=[46, 80]),
   midi.NoteOnEvent(tick=0, channel=5, data=[34, 80]),
   midi.NoteOnEvent(tick=240, channel=5, data=[34, 0]),
   midi.NoteOnEvent(tick=0, channel=5, data=[46, 0]),
   midi.NoteOnEvent(tick=0, channel=5, data=[46, 80]),
   midi.NoteOnEvent(tick=0, channel=5, data=[34, 80]),
   midi.NoteOnEvent(tick=240, channel=5, data=[34, 0]),
   midi.NoteOnEvent(tick=0, channel=5, data=[46, 0]),
   midi.NoteOnEvent(tick=0, channel=5, data=[58, 80]),
   midi.NoteOnEvent(tick=0, channel=5, data=[46, 80]),
   midi.NoteOnEvent(tick=240, channel=5, data=[46, 0]),
   midi.NoteOnEvent(tick=0, channel=5, data=[58, 0]),
   midi.NoteOnEvent(tick=0, channel=5, data=[46, 80]),
   midi.NoteOnEvent(tick=0, channel=5, data=[34, 80]),
   midi.NoteOnEvent(tick=240, channel=5, data=[34, 0]),
   midi.NoteOnEvent(tick=0, channel=5, data=[46, 0]),
   midi.NoteOnEvent(tick=0, channel=5, data=[48, 80]),
   midi.NoteOnEvent(tick=0, channel=5, data=[36, 80]),
   midi.NoteOnEvent(tick=240, channel=5, data=[36, 0]),
   midi.NoteOnEvent(tick=0, channel=5, data=[48, 0]),
   midi.NoteOnEvent(tick=0, channel=5, data=[60, 80]),
   midi.NoteOnEvent(tick=0, channel=5, data=[48, 80]),
   midi.NoteOnEvent(tick=240, channel=5, data=[48, 0]),
   midi.NoteOnEvent(tick=0, channel=5, data=[60, 0]),
   midi.NoteOnEvent(tick=0, channel=5, data=[48, 80]),
   midi.NoteOnEvent(tick=0, channel=5, data=[36, 80]),
   midi.NoteOnEvent(tick=240, channel=5, data=[36, 0]),
   midi.NoteOnEvent(tick=0, channel=5, data=[48, 0]),
   midi.NoteOnEvent(tick=0, channel=5, data=[45, 80]),
   midi.NoteOnEvent(tick=0, channel=5, data=[33, 80]),
   midi.NoteOnEvent(tick=240, channel=5, data=[33, 0]),
   midi.NoteOnEvent(tick=0, channel=5, data=[45, 0]),
   midi.NoteOnEvent(tick=0, channel=5, data=[57, 80]),
   midi.NoteOnEvent(tick=0, channel=5, data=[45, 80]),
   midi.NoteOnEvent(tick=240, channel=5, data=[45, 0]),
   midi.NoteOnEvent(tick=0, channel=5, data=[57, 0]),
   midi.NoteOnEvent(tick=0, channel=5, data=[45, 80]),
   midi.NoteOnEvent(tick=0, channel=5, data=[33, 80]),
   midi.NoteOnEvent(tick=240, channel=5, data=[33, 0]),
   midi.NoteOnEvent(tick=0, channel=5, data=[45, 0]),
   midi.NoteOnEvent(tick=0, channel=5, data=[46, 80]),
   midi.NoteOnEvent(tick=0, channel=5, data=[34, 80]),
   midi.NoteOnEvent(tick=240, channel=5, data=[34, 0]),
   midi.NoteOnEvent(tick=0, channel=5, data=[46, 0]),
   midi.NoteOnEvent(tick=0, channel=5, data=[58, 80]),
   midi.NoteOnEvent(tick=0, channel=5, data=[46, 80]),
   midi.NoteOnEvent(tick=240, channel=5, data=[46, 0]),
   midi.NoteOnEvent(tick=0, channel=5, data=[58, 0]),
   midi.NoteOnEvent(tick=0, channel=5, data=[46, 80]),
   midi.NoteOnEvent(tick=0, channel=5, data=[34, 80]),
   midi.NoteOnEvent(tick=240, channel=5, data=[34, 0]),
   midi.NoteOnEvent(tick=0, channel=5, data=[46, 0]),
   midi.NoteOnEvent(tick=0, channel=5, data=[43, 80]),
   midi.NoteOnEvent(tick=0, channel=5, data=[31, 80]),
   midi.NoteOnEvent(tick=240, channel=5, data=[31, 0]),
   midi.NoteOnEvent(tick=0, channel=5, data=[43, 0]),
   midi.NoteOnEvent(tick=0, channel=5, data=[55, 80]),
   midi.NoteOnEvent(tick=0, channel=5, data=[43, 80]),
   midi.NoteOnEvent(tick=240, channel=5, data=[43, 0]),
   midi.NoteOnEvent(tick=0, channel=5, data=[55, 0]),
   midi.NoteOnEvent(tick=0, channel=5, data=[43, 80]),
   midi.NoteOnEvent(tick=0, channel=5, data=[31, 80]),
   midi.NoteOnEvent(tick=240, channel=5, data=[31, 0]),
   midi.NoteOnEvent(tick=0, channel=5, data=[43, 0]),
   midi.NoteOnEvent(tick=0, channel=5, data=[45, 80]),
   midi.NoteOnEvent(tick=0, channel=5, data=[33, 80]),
   midi.NoteOnEvent(tick=240, channel=5, data=[33, 0]),
   midi.NoteOnEvent(tick=0, channel=5, data=[45, 0]),
   midi.NoteOnEvent(tick=0, channel=5, data=[57, 80]),
   midi.NoteOnEvent(tick=0, channel=5, data=[45, 80]),
   midi.NoteOnEvent(tick=240, channel=5, data=[45, 0]),
   midi.NoteOnEvent(tick=0, channel=5, data=[57, 0]),
   midi.NoteOnEvent(tick=0, channel=5, data=[45, 80]),
   midi.NoteOnEvent(tick=0, channel=5, data=[33, 80]),
   midi.NoteOnEvent(tick=240, channel=5, data=[33, 0]),
   midi.NoteOnEvent(tick=0, channel=5, data=[45, 0]),
   midi.NoteOnEvent(tick=0, channel=5, data=[46, 80]),
   midi.NoteOnEvent(tick=0, channel=5, data=[34, 80]),
   midi.NoteOnEvent(tick=240, channel=5, data=[34, 0]),
   midi.NoteOnEvent(tick=0, channel=5, data=[46, 0]),
   midi.NoteOnEvent(tick=0, channel=5, data=[58, 80]),
   midi.NoteOnEvent(tick=0, channel=5, data=[46, 80]),
   midi.NoteOnEvent(tick=240, channel=5, data=[46, 0]),
   midi.NoteOnEvent(tick=0, channel=5, data=[58, 0]),
   midi.NoteOnEvent(tick=0, channel=5, data=[48, 80]),
   midi.NoteOnEvent(tick=0, channel=5, data=[36, 80]),
   midi.NoteOnEvent(tick=240, channel=5, data=[36, 0]),
   midi.NoteOnEvent(tick=0, channel=5, data=[48, 0]),
   midi.NoteOnEvent(tick=2160, channel=5, data=[47, 80]),
   midi.NoteOnEvent(tick=0, channel=5, data=[35, 80]),
   midi.NoteOnEvent(tick=240, channel=5, data=[35, 0]),
   midi.NoteOnEvent(tick=0, channel=5, data=[47, 0]),
   midi.NoteOnEvent(tick=0, channel=5, data=[59, 80]),
   midi.NoteOnEvent(tick=0, channel=5, data=[47, 80]),
   midi.NoteOnEvent(tick=240, channel=5, data=[47, 0]),
   midi.NoteOnEvent(tick=0, channel=5, data=[59, 0]),
   midi.NoteOnEvent(tick=0, channel=5, data=[47, 80]),
   midi.NoteOnEvent(tick=0, channel=5, data=[35, 80]),
   midi.NoteOnEvent(tick=240, channel=5, data=[35, 0]),
   midi.NoteOnEvent(tick=0, channel=5, data=[47, 0]),
   midi.NoteOnEvent(tick=0, channel=5, data=[48, 80]),
   midi.NoteOnEvent(tick=0, channel=5, data=[36, 80]),
   midi.NoteOnEvent(tick=240, channel=5, data=[36, 0]),
   midi.NoteOnEvent(tick=0, channel=5, data=[48, 0]),
   midi.NoteOnEvent(tick=0, channel=5, data=[60, 80]),
   midi.NoteOnEvent(tick=0, channel=5, data=[48, 80]),
   midi.NoteOnEvent(tick=240, channel=5, data=[48, 0]),
   midi.NoteOnEvent(tick=0, channel=5, data=[60, 0]),
   midi.NoteOnEvent(tick=0, channel=5, data=[48, 80]),
   midi.NoteOnEvent(tick=0, channel=5, data=[36, 80]),
   midi.NoteOnEvent(tick=240, channel=5, data=[36, 0]),
   midi.NoteOnEvent(tick=0, channel=5, data=[48, 0]),
   midi.NoteOnEvent(tick=0, channel=5, data=[46, 80]),
   midi.NoteOnEvent(tick=0, channel=5, data=[34, 80]),
   midi.NoteOnEvent(tick=240, channel=5, data=[34, 0]),
   midi.NoteOnEvent(tick=0, channel=5, data=[46, 0]),
   midi.NoteOnEvent(tick=0, channel=5, data=[58, 80]),
   midi.NoteOnEvent(tick=0, channel=5, data=[46, 80]),
   midi.NoteOnEvent(tick=240, channel=5, data=[46, 0]),
   midi.NoteOnEvent(tick=0, channel=5, data=[58, 0]),
   midi.NoteOnEvent(tick=0, channel=5, data=[46, 80]),
   midi.NoteOnEvent(tick=0, channel=5, data=[34, 80]),
   midi.NoteOnEvent(tick=240, channel=5, data=[34, 0]),
   midi.NoteOnEvent(tick=0, channel=5, data=[46, 0]),
   midi.NoteOnEvent(tick=0, channel=5, data=[44, 80]),
   midi.NoteOnEvent(tick=0, channel=5, data=[32, 80]),
   midi.NoteOnEvent(tick=240, channel=5, data=[32, 0]),
   midi.NoteOnEvent(tick=0, channel=5, data=[44, 0]),
   midi.NoteOnEvent(tick=0, channel=5, data=[56, 80]),
   midi.NoteOnEvent(tick=0, channel=5, data=[44, 80]),
   midi.NoteOnEvent(tick=240, channel=5, data=[44, 0]),
   midi.NoteOnEvent(tick=0, channel=5, data=[56, 0]),
   midi.NoteOnEvent(tick=0, channel=5, data=[44, 80]),
   midi.NoteOnEvent(tick=0, channel=5, data=[32, 80]),
   midi.NoteOnEvent(tick=240, channel=5, data=[32, 0]),
   midi.NoteOnEvent(tick=0, channel=5, data=[44, 0]),
   midi.NoteOnEvent(tick=0, channel=5, data=[38, 80]),
   midi.NoteOnEvent(tick=0, channel=5, data=[26, 80]),
   midi.NoteOnEvent(tick=240, channel=5, data=[26, 0]),
   midi.NoteOnEvent(tick=0, channel=5, data=[38, 0]),
   midi.NoteOnEvent(tick=0, channel=5, data=[50, 80]),
   midi.NoteOnEvent(tick=0, channel=5, data=[38, 80]),
   midi.NoteOnEvent(tick=240, channel=5, data=[38, 0]),
   midi.NoteOnEvent(tick=0, channel=5, data=[50, 0]),
   midi.NoteOnEvent(tick=0, channel=5, data=[38, 80]),
   midi.NoteOnEvent(tick=0, channel=5, data=[26, 80]),
   midi.NoteOnEvent(tick=240, channel=5, data=[26, 0]),
   midi.NoteOnEvent(tick=0, channel=5, data=[38, 0]),
   midi.NoteOnEvent(tick=0, channel=5, data=[38, 80]),
   midi.NoteOnEvent(tick=0, channel=5, data=[26, 80]),
   midi.NoteOnEvent(tick=240, channel=5, data=[26, 0]),
   midi.NoteOnEvent(tick=0, channel=5, data=[38, 0]),
   midi.NoteOnEvent(tick=0, channel=5, data=[50, 80]),
   midi.NoteOnEvent(tick=0, channel=5, data=[38, 80]),
   midi.NoteOnEvent(tick=240, channel=5, data=[38, 0]),
   midi.NoteOnEvent(tick=0, channel=5, data=[50, 0]),
   midi.NoteOnEvent(tick=0, channel=5, data=[38, 80]),
   midi.NoteOnEvent(tick=0, channel=5, data=[26, 80]),
   midi.NoteOnEvent(tick=240, channel=5, data=[26, 0]),
   midi.NoteOnEvent(tick=0, channel=5, data=[38, 0]),
   midi.NoteOnEvent(tick=15120, channel=5, data=[31, 64]),
   midi.NoteOnEvent(tick=0, channel=5, data=[43, 64]),
   midi.NoteOnEvent(tick=240, channel=5, data=[43, 0]),
   midi.NoteOnEvent(tick=0, channel=5, data=[31, 0]),
   midi.NoteOnEvent(tick=0, channel=5, data=[43, 64]),
   midi.NoteOnEvent(tick=0, channel=5, data=[55, 64]),
   midi.NoteOnEvent(tick=240, channel=5, data=[55, 0]),
   midi.NoteOnEvent(tick=0, channel=5, data=[43, 0]),
   midi.NoteOnEvent(tick=0, channel=5, data=[31, 64]),
   midi.NoteOnEvent(tick=0, channel=5, data=[43, 64]),
   midi.NoteOnEvent(tick=240, channel=5, data=[43, 0]),
   midi.NoteOnEvent(tick=0, channel=5, data=[31, 0]),
   midi.NoteOnEvent(tick=0, channel=5, data=[36, 64]),
   midi.NoteOnEvent(tick=0, channel=5, data=[48, 64]),
   midi.NoteOnEvent(tick=240, channel=5, data=[48, 0]),
   midi.NoteOnEvent(tick=0, channel=5, data=[36, 0]),
   midi.NoteOnEvent(tick=0, channel=5, data=[48, 64]),
   midi.NoteOnEvent(tick=0, channel=5, data=[60, 64]),
   midi.NoteOnEvent(tick=240, channel=5, data=[60, 0]),
   midi.NoteOnEvent(tick=0, channel=5, data=[48, 0]),
   midi.NoteOnEvent(tick=0, channel=5, data=[36, 64]),
   midi.NoteOnEvent(tick=0, channel=5, data=[48, 64]),
   midi.NoteOnEvent(tick=240, channel=5, data=[48, 0]),
   midi.NoteOnEvent(tick=0, channel=5, data=[36, 0]),
   midi.NoteOnEvent(tick=0, channel=5, data=[36, 64]),
   midi.NoteOnEvent(tick=0, channel=5, data=[48, 64]),
   midi.NoteOnEvent(tick=240, channel=5, data=[48, 0]),
   midi.NoteOnEvent(tick=0, channel=5, data=[36, 0]),
   midi.NoteOnEvent(tick=0, channel=5, data=[48, 64]),
   midi.NoteOnEvent(tick=0, channel=5, data=[60, 64]),
   midi.NoteOnEvent(tick=240, channel=5, data=[60, 0]),
   midi.NoteOnEvent(tick=0, channel=5, data=[48, 0]),
   midi.NoteOnEvent(tick=0, channel=5, data=[36, 64]),
   midi.NoteOnEvent(tick=0, channel=5, data=[48, 64]),
   midi.NoteOnEvent(tick=240, channel=5, data=[48, 0]),
   midi.NoteOnEvent(tick=0, channel=5, data=[36, 0]),
   midi.NoteOnEvent(tick=0, channel=5, data=[34, 64]),
   midi.NoteOnEvent(tick=0, channel=5, data=[46, 64]),
   midi.NoteOnEvent(tick=240, channel=5, data=[46, 0]),
   midi.NoteOnEvent(tick=0, channel=5, data=[34, 0]),
   midi.NoteOnEvent(tick=0, channel=5, data=[46, 64]),
   midi.NoteOnEvent(tick=0, channel=5, data=[58, 64]),
   midi.NoteOnEvent(tick=240, channel=5, data=[58, 0]),
   midi.NoteOnEvent(tick=0, channel=5, data=[46, 0]),
   midi.NoteOnEvent(tick=0, channel=5, data=[34, 64]),
   midi.NoteOnEvent(tick=0, channel=5, data=[46, 64]),
   midi.NoteOnEvent(tick=240, channel=5, data=[46, 0]),
   midi.NoteOnEvent(tick=0, channel=5, data=[34, 0]),
   midi.NoteOnEvent(tick=0, channel=5, data=[32, 64]),
   midi.NoteOnEvent(tick=0, channel=5, data=[44, 64]),
   midi.NoteOnEvent(tick=240, channel=5, data=[44, 0]),
   midi.NoteOnEvent(tick=0, channel=5, data=[32, 0]),
   midi.NoteOnEvent(tick=0, channel=5, data=[44, 64]),
   midi.NoteOnEvent(tick=0, channel=5, data=[56, 64]),
   midi.NoteOnEvent(tick=240, channel=5, data=[56, 0]),
   midi.NoteOnEvent(tick=0, channel=5, data=[44, 0]),
   midi.NoteOnEvent(tick=0, channel=5, data=[32, 64]),
   midi.NoteOnEvent(tick=0, channel=5, data=[44, 64]),
   midi.NoteOnEvent(tick=240, channel=5, data=[44, 0]),
   midi.NoteOnEvent(tick=0, channel=5, data=[32, 0]),
   midi.NoteOnEvent(tick=0, channel=5, data=[31, 64]),
   midi.NoteOnEvent(tick=0, channel=5, data=[43, 64]),
   midi.NoteOnEvent(tick=240, channel=5, data=[43, 0]),
   midi.NoteOnEvent(tick=0, channel=5, data=[31, 0]),
   midi.NoteOnEvent(tick=0, channel=5, data=[43, 64]),
   midi.NoteOnEvent(tick=0, channel=5, data=[55, 64]),
   midi.NoteOnEvent(tick=240, channel=5, data=[55, 0]),
   midi.NoteOnEvent(tick=0, channel=5, data=[43, 0]),
   midi.NoteOnEvent(tick=0, channel=5, data=[31, 64]),
   midi.NoteOnEvent(tick=0, channel=5, data=[43, 64]),
   midi.NoteOnEvent(tick=240, channel=5, data=[43, 0]),
   midi.NoteOnEvent(tick=0, channel=5, data=[31, 0]),
   midi.NoteOnEvent(tick=0, channel=5, data=[29, 64]),
   midi.NoteOnEvent(tick=0, channel=5, data=[41, 64]),
   midi.NoteOnEvent(tick=240, channel=5, data=[41, 0]),
   midi.NoteOnEvent(tick=0, channel=5, data=[29, 0]),
   midi.NoteOnEvent(tick=0, channel=5, data=[41, 64]),
   midi.NoteOnEvent(tick=0, channel=5, data=[53, 64]),
   midi.NoteOnEvent(tick=240, channel=5, data=[53, 0]),
   midi.NoteOnEvent(tick=0, channel=5, data=[41, 0]),
   midi.NoteOnEvent(tick=0, channel=5, data=[29, 64]),
   midi.NoteOnEvent(tick=0, channel=5, data=[41, 64]),
   midi.NoteOnEvent(tick=240, channel=5, data=[41, 0]),
   midi.NoteOnEvent(tick=0, channel=5, data=[29, 0]),
   midi.NoteOnEvent(tick=0, channel=5, data=[30, 64]),
   midi.NoteOnEvent(tick=0, channel=5, data=[42, 64]),
   midi.NoteOnEvent(tick=240, channel=5, data=[42, 0]),
   midi.NoteOnEvent(tick=0, channel=5, data=[30, 0]),
   midi.NoteOnEvent(tick=0, channel=5, data=[42, 64]),
   midi.NoteOnEvent(tick=0, channel=5, data=[54, 64]),
   midi.NoteOnEvent(tick=240, channel=5, data=[54, 0]),
   midi.NoteOnEvent(tick=0, channel=5, data=[42, 0]),
   midi.NoteOnEvent(tick=0, channel=5, data=[30, 64]),
   midi.NoteOnEvent(tick=0, channel=5, data=[42, 64]),
   midi.NoteOnEvent(tick=240, channel=5, data=[42, 0]),
   midi.NoteOnEvent(tick=0, channel=5, data=[30, 0]),
   midi.NoteOnEvent(tick=0, channel=5, data=[31, 64]),
   midi.NoteOnEvent(tick=0, channel=5, data=[43, 64]),
   midi.NoteOnEvent(tick=240, channel=5, data=[43, 0]),
   midi.NoteOnEvent(tick=0, channel=5, data=[31, 0]),
   midi.NoteOnEvent(tick=0, channel=5, data=[43, 64]),
   midi.NoteOnEvent(tick=0, channel=5, data=[55, 64]),
   midi.NoteOnEvent(tick=240, channel=5, data=[55, 0]),
   midi.NoteOnEvent(tick=0, channel=5, data=[43, 0]),
   midi.NoteOnEvent(tick=0, channel=5, data=[31, 64]),
   midi.NoteOnEvent(tick=0, channel=5, data=[43, 64]),
   midi.NoteOnEvent(tick=240, channel=5, data=[43, 0]),
   midi.NoteOnEvent(tick=0, channel=5, data=[31, 0]),
   midi.NoteOnEvent(tick=0, channel=5, data=[36, 64]),
   midi.NoteOnEvent(tick=0, channel=5, data=[48, 64]),
   midi.NoteOnEvent(tick=240, channel=5, data=[48, 0]),
   midi.NoteOnEvent(tick=0, channel=5, data=[36, 0]),
   midi.NoteOnEvent(tick=0, channel=5, data=[48, 64]),
   midi.NoteOnEvent(tick=0, channel=5, data=[60, 64]),
   midi.NoteOnEvent(tick=240, channel=5, data=[60, 0]),
   midi.NoteOnEvent(tick=0, channel=5, data=[48, 0]),
   midi.NoteOnEvent(tick=0, channel=5, data=[36, 64]),
   midi.NoteOnEvent(tick=0, channel=5, data=[48, 64]),
   midi.NoteOnEvent(tick=240, channel=5, data=[48, 0]),
   midi.NoteOnEvent(tick=0, channel=5, data=[36, 0]),
   midi.NoteOnEvent(tick=0, channel=5, data=[36, 80]),
   midi.NoteOnEvent(tick=0, channel=5, data=[48, 80]),
   midi.NoteOnEvent(tick=240, channel=5, data=[48, 0]),
   midi.NoteOnEvent(tick=0, channel=5, data=[36, 0]),
   midi.NoteOnEvent(tick=0, channel=5, data=[48, 80]),
   midi.NoteOnEvent(tick=0, channel=5, data=[60, 80]),
   midi.NoteOnEvent(tick=240, channel=5, data=[60, 0]),
   midi.NoteOnEvent(tick=0, channel=5, data=[48, 0]),
   midi.NoteOnEvent(tick=0, channel=5, data=[36, 80]),
   midi.NoteOnEvent(tick=0, channel=5, data=[48, 80]),
   midi.NoteOnEvent(tick=240, channel=5, data=[48, 0]),
   midi.NoteOnEvent(tick=0, channel=5, data=[36, 0]),
   midi.NoteOnEvent(tick=0, channel=5, data=[38, 80]),
   midi.NoteOnEvent(tick=0, channel=5, data=[50, 80]),
   midi.NoteOnEvent(tick=240, channel=5, data=[50, 0]),
   midi.NoteOnEvent(tick=0, channel=5, data=[38, 0]),
   midi.NoteOnEvent(tick=0, channel=5, data=[50, 80]),
   midi.NoteOnEvent(tick=0, channel=5, data=[62, 80]),
   midi.NoteOnEvent(tick=240, channel=5, data=[62, 0]),
   midi.NoteOnEvent(tick=0, channel=5, data=[50, 0]),
   midi.NoteOnEvent(tick=0, channel=5, data=[38, 80]),
   midi.NoteOnEvent(tick=0, channel=5, data=[50, 80]),
   midi.NoteOnEvent(tick=240, channel=5, data=[50, 0]),
   midi.NoteOnEvent(tick=0, channel=5, data=[38, 0]),
   midi.NoteOnEvent(tick=0, channel=5, data=[38, 80]),
   midi.NoteOnEvent(tick=0, channel=5, data=[50, 80]),
   midi.NoteOnEvent(tick=240, channel=5, data=[50, 0]),
   midi.NoteOnEvent(tick=0, channel=5, data=[38, 0]),
   midi.NoteOnEvent(tick=0, channel=5, data=[50, 80]),
   midi.NoteOnEvent(tick=0, channel=5, data=[62, 80]),
   midi.NoteOnEvent(tick=240, channel=5, data=[62, 0]),
   midi.NoteOnEvent(tick=0, channel=5, data=[50, 0]),
   midi.NoteOnEvent(tick=0, channel=5, data=[38, 80]),
   midi.NoteOnEvent(tick=0, channel=5, data=[50, 80]),
   midi.NoteOnEvent(tick=240, channel=5, data=[50, 0]),
   midi.NoteOnEvent(tick=0, channel=5, data=[38, 0]),
   midi.NoteOnEvent(tick=0, channel=5, data=[39, 80]),
   midi.NoteOnEvent(tick=0, channel=5, data=[51, 80]),
   midi.NoteOnEvent(tick=240, channel=5, data=[51, 0]),
   midi.NoteOnEvent(tick=0, channel=5, data=[39, 0]),
   midi.NoteOnEvent(tick=0, channel=5, data=[51, 80]),
   midi.NoteOnEvent(tick=0, channel=5, data=[63, 80]),
   midi.NoteOnEvent(tick=240, channel=5, data=[63, 0]),
   midi.NoteOnEvent(tick=0, channel=5, data=[51, 0]),
   midi.NoteOnEvent(tick=0, channel=5, data=[39, 80]),
   midi.NoteOnEvent(tick=0, channel=5, data=[51, 80]),
   midi.NoteOnEvent(tick=240, channel=5, data=[51, 0]),
   midi.NoteOnEvent(tick=0, channel=5, data=[39, 0]),
   midi.NoteOnEvent(tick=0, channel=5, data=[39, 80]),
   midi.NoteOnEvent(tick=0, channel=5, data=[51, 80]),
   midi.NoteOnEvent(tick=240, channel=5, data=[51, 0]),
   midi.NoteOnEvent(tick=0, channel=5, data=[39, 0]),
   midi.NoteOnEvent(tick=0, channel=5, data=[51, 80]),
   midi.NoteOnEvent(tick=0, channel=5, data=[63, 80]),
   midi.NoteOnEvent(tick=240, channel=5, data=[63, 0]),
   midi.NoteOnEvent(tick=0, channel=5, data=[51, 0]),
   midi.NoteOnEvent(tick=0, channel=5, data=[39, 80]),
   midi.NoteOnEvent(tick=0, channel=5, data=[51, 80]),
   midi.NoteOnEvent(tick=240, channel=5, data=[51, 0]),
   midi.NoteOnEvent(tick=0, channel=5, data=[39, 0]),
   midi.NoteOnEvent(tick=0, channel=5, data=[41, 80]),
   midi.NoteOnEvent(tick=0, channel=5, data=[53, 80]),
   midi.NoteOnEvent(tick=240, channel=5, data=[53, 0]),
   midi.NoteOnEvent(tick=0, channel=5, data=[41, 0]),
   midi.NoteOnEvent(tick=0, channel=5, data=[53, 80]),
   midi.NoteOnEvent(tick=0, channel=5, data=[65, 80]),
   midi.NoteOnEvent(tick=240, channel=5, data=[65, 0]),
   midi.NoteOnEvent(tick=0, channel=5, data=[53, 0]),
   midi.NoteOnEvent(tick=0, channel=5, data=[41, 80]),
   midi.NoteOnEvent(tick=0, channel=5, data=[53, 80]),
   midi.NoteOnEvent(tick=240, channel=5, data=[53, 0]),
   midi.NoteOnEvent(tick=0, channel=5, data=[41, 0]),
   midi.NoteOnEvent(tick=0, channel=5, data=[38, 80]),
   midi.NoteOnEvent(tick=0, channel=5, data=[50, 80]),
   midi.NoteOnEvent(tick=240, channel=5, data=[50, 0]),
   midi.NoteOnEvent(tick=0, channel=5, data=[38, 0]),
   midi.NoteOnEvent(tick=0, channel=5, data=[50, 80]),
   midi.NoteOnEvent(tick=0, channel=5, data=[62, 80]),
   midi.NoteOnEvent(tick=240, channel=5, data=[62, 0]),
   midi.NoteOnEvent(tick=0, channel=5, data=[50, 0]),
   midi.NoteOnEvent(tick=0, channel=5, data=[38, 80]),
   midi.NoteOnEvent(tick=0, channel=5, data=[50, 80]),
   midi.NoteOnEvent(tick=240, channel=5, data=[50, 0]),
   midi.NoteOnEvent(tick=0, channel=5, data=[38, 0]),
   midi.NoteOnEvent(tick=0, channel=5, data=[39, 80]),
   midi.NoteOnEvent(tick=0, channel=5, data=[51, 80]),
   midi.NoteOnEvent(tick=240, channel=5, data=[51, 0]),
   midi.NoteOnEvent(tick=0, channel=5, data=[39, 0]),
   midi.NoteOnEvent(tick=0, channel=5, data=[51, 80]),
   midi.NoteOnEvent(tick=0, channel=5, data=[63, 80]),
   midi.NoteOnEvent(tick=240, channel=5, data=[63, 0]),
   midi.NoteOnEvent(tick=0, channel=5, data=[51, 0]),
   midi.NoteOnEvent(tick=0, channel=5, data=[39, 80]),
   midi.NoteOnEvent(tick=0, channel=5, data=[51, 80]),
   midi.NoteOnEvent(tick=240, channel=5, data=[51, 0]),
   midi.NoteOnEvent(tick=0, channel=5, data=[39, 0]),
   midi.NoteOnEvent(tick=0, channel=5, data=[36, 64]),
   midi.NoteOnEvent(tick=0, channel=5, data=[48, 64]),
   midi.NoteOnEvent(tick=240, channel=5, data=[48, 0]),
   midi.NoteOnEvent(tick=0, channel=5, data=[36, 0]),
   midi.NoteOnEvent(tick=0, channel=5, data=[48, 64]),
   midi.NoteOnEvent(tick=0, channel=5, data=[60, 64]),
   midi.NoteOnEvent(tick=240, channel=5, data=[60, 0]),
   midi.NoteOnEvent(tick=0, channel=5, data=[48, 0]),
   midi.NoteOnEvent(tick=0, channel=5, data=[36, 64]),
   midi.NoteOnEvent(tick=0, channel=5, data=[48, 64]),
   midi.NoteOnEvent(tick=240, channel=5, data=[48, 0]),
   midi.NoteOnEvent(tick=0, channel=5, data=[36, 0]),
   midi.NoteOnEvent(tick=0, channel=5, data=[38, 64]),
   midi.NoteOnEvent(tick=0, channel=5, data=[50, 64]),
   midi.NoteOnEvent(tick=240, channel=5, data=[50, 0]),
   midi.NoteOnEvent(tick=0, channel=5, data=[38, 0]),
   midi.NoteOnEvent(tick=0, channel=5, data=[50, 64]),
   midi.NoteOnEvent(tick=0, channel=5, data=[62, 64]),
   midi.NoteOnEvent(tick=240, channel=5, data=[62, 0]),
   midi.NoteOnEvent(tick=0, channel=5, data=[50, 0]),
   midi.NoteOnEvent(tick=0, channel=5, data=[38, 64]),
   midi.NoteOnEvent(tick=0, channel=5, data=[50, 64]),
   midi.NoteOnEvent(tick=240, channel=5, data=[50, 0]),
   midi.NoteOnEvent(tick=0, channel=5, data=[38, 0]),
   midi.NoteOnEvent(tick=0, channel=5, data=[39, 64]),
   midi.NoteOnEvent(tick=0, channel=5, data=[51, 64]),
   midi.NoteOnEvent(tick=240, channel=5, data=[51, 0]),
   midi.NoteOnEvent(tick=0, channel=5, data=[39, 0]),
   midi.NoteOnEvent(tick=0, channel=5, data=[51, 64]),
   midi.NoteOnEvent(tick=0, channel=5, data=[63, 64]),
   midi.NoteOnEvent(tick=240, channel=5, data=[63, 0]),
   midi.NoteOnEvent(tick=0, channel=5, data=[51, 0]),
   midi.NoteOnEvent(tick=0, channel=5, data=[39, 64]),
   midi.NoteOnEvent(tick=0, channel=5, data=[51, 64]),
   midi.NoteOnEvent(tick=240, channel=5, data=[51, 0]),
   midi.NoteOnEvent(tick=0, channel=5, data=[39, 0]),
   midi.NoteOnEvent(tick=0, channel=5, data=[38, 64]),
   midi.NoteOnEvent(tick=0, channel=5, data=[50, 64]),
   midi.NoteOnEvent(tick=240, channel=5, data=[50, 0]),
   midi.NoteOnEvent(tick=0, channel=5, data=[38, 0]),
   midi.NoteOnEvent(tick=0, channel=5, data=[50, 64]),
   midi.NoteOnEvent(tick=0, channel=5, data=[62, 64]),
   midi.NoteOnEvent(tick=240, channel=5, data=[62, 0]),
   midi.NoteOnEvent(tick=0, channel=5, data=[50, 0]),
   midi.NoteOnEvent(tick=0, channel=5, data=[38, 64]),
   midi.NoteOnEvent(tick=0, channel=5, data=[50, 64]),
   midi.NoteOnEvent(tick=240, channel=5, data=[50, 0]),
   midi.NoteOnEvent(tick=0, channel=5, data=[38, 0]),
   midi.NoteOnEvent(tick=0, channel=5, data=[39, 64]),
   midi.NoteOnEvent(tick=0, channel=5, data=[51, 64]),
   midi.NoteOnEvent(tick=240, channel=5, data=[51, 0]),
   midi.NoteOnEvent(tick=0, channel=5, data=[39, 0]),
   midi.NoteOnEvent(tick=0, channel=5, data=[51, 64]),
   midi.NoteOnEvent(tick=0, channel=5, data=[63, 64]),
   midi.NoteOnEvent(tick=240, channel=5, data=[63, 0]),
   midi.NoteOnEvent(tick=0, channel=5, data=[51, 0]),
   midi.NoteOnEvent(tick=0, channel=5, data=[39, 64]),
   midi.NoteOnEvent(tick=0, channel=5, data=[51, 64]),
   midi.NoteOnEvent(tick=240, channel=5, data=[51, 0]),
   midi.NoteOnEvent(tick=0, channel=5, data=[39, 0]),
   midi.NoteOnEvent(tick=2880, channel=5, data=[41, 64]),
   midi.NoteOnEvent(tick=240, channel=5, data=[41, 0]),
   midi.NoteOnEvent(tick=0, channel=5, data=[53, 64]),
   midi.NoteOnEvent(tick=240, channel=5, data=[53, 0]),
   midi.NoteOnEvent(tick=0, channel=5, data=[41, 64]),
   midi.NoteOnEvent(tick=240, channel=5, data=[41, 0]),
   midi.NoteOnEvent(tick=0, channel=5, data=[38, 64]),
   midi.NoteOnEvent(tick=240, channel=5, data=[38, 0]),
   midi.NoteOnEvent(tick=0, channel=5, data=[50, 64]),
   midi.NoteOnEvent(tick=240, channel=5, data=[50, 0]),
   midi.NoteOnEvent(tick=0, channel=5, data=[38, 64]),
   midi.NoteOnEvent(tick=240, channel=5, data=[38, 0]),
   midi.NoteOnEvent(tick=0, channel=5, data=[39, 64]),
   midi.NoteOnEvent(tick=240, channel=5, data=[39, 0]),
   midi.NoteOnEvent(tick=0, channel=5, data=[51, 64]),
   midi.NoteOnEvent(tick=240, channel=5, data=[51, 0]),
   midi.NoteOnEvent(tick=0, channel=5, data=[39, 64]),
   midi.NoteOnEvent(tick=240, channel=5, data=[39, 0]),
   midi.NoteOnEvent(tick=0, channel=5, data=[38, 64]),
   midi.NoteOnEvent(tick=240, channel=5, data=[38, 0]),
   midi.NoteOnEvent(tick=0, channel=5, data=[50, 64]),
   midi.NoteOnEvent(tick=240, channel=5, data=[50, 0]),
   midi.NoteOnEvent(tick=0, channel=5, data=[38, 64]),
   midi.NoteOnEvent(tick=240, channel=5, data=[38, 0]),
   midi.NoteOnEvent(tick=0, channel=5, data=[39, 64]),
   midi.NoteOnEvent(tick=240, channel=5, data=[39, 0]),
   midi.NoteOnEvent(tick=0, channel=5, data=[51, 64]),
   midi.NoteOnEvent(tick=240, channel=5, data=[51, 0]),
   midi.NoteOnEvent(tick=0, channel=5, data=[39, 64]),
   midi.NoteOnEvent(tick=240, channel=5, data=[39, 0]),
   midi.NoteOnEvent(tick=0, channel=5, data=[41, 64]),
   midi.NoteOnEvent(tick=240, channel=5, data=[41, 0]),
   midi.NoteOnEvent(tick=0, channel=5, data=[53, 64]),
   midi.NoteOnEvent(tick=240, channel=5, data=[53, 0]),
   midi.NoteOnEvent(tick=0, channel=5, data=[41, 64]),
   midi.NoteOnEvent(tick=240, channel=5, data=[41, 0]),
   midi.NoteOnEvent(tick=0, channel=5, data=[39, 64]),
   midi.NoteOnEvent(tick=240, channel=5, data=[39, 0]),
   midi.NoteOnEvent(tick=0, channel=5, data=[51, 64]),
   midi.NoteOnEvent(tick=240, channel=5, data=[51, 0]),
   midi.NoteOnEvent(tick=0, channel=5, data=[39, 64]),
   midi.NoteOnEvent(tick=240, channel=5, data=[39, 0]),
   midi.NoteOnEvent(tick=0, channel=5, data=[41, 64]),
   midi.NoteOnEvent(tick=240, channel=5, data=[41, 0]),
   midi.NoteOnEvent(tick=0, channel=5, data=[53, 64]),
   midi.NoteOnEvent(tick=240, channel=5, data=[53, 0]),
   midi.NoteOnEvent(tick=0, channel=5, data=[41, 64]),
   midi.NoteOnEvent(tick=240, channel=5, data=[41, 0]),
   midi.NoteOnEvent(tick=720, channel=5, data=[29, 80]),
   midi.NoteOnEvent(tick=0, channel=5, data=[41, 80]),
   midi.NoteOnEvent(tick=240, channel=5, data=[41, 0]),
   midi.NoteOnEvent(tick=0, channel=5, data=[29, 0]),
   midi.NoteOnEvent(tick=0, channel=5, data=[41, 80]),
   midi.NoteOnEvent(tick=0, channel=5, data=[53, 80]),
   midi.NoteOnEvent(tick=240, channel=5, data=[53, 0]),
   midi.NoteOnEvent(tick=0, channel=5, data=[41, 0]),
   midi.NoteOnEvent(tick=0, channel=5, data=[29, 80]),
   midi.NoteOnEvent(tick=0, channel=5, data=[41, 80]),
   midi.NoteOnEvent(tick=240, channel=5, data=[41, 0]),
   midi.NoteOnEvent(tick=0, channel=5, data=[29, 0]),
   midi.NoteOnEvent(tick=1440, channel=5, data=[28, 80]),
   midi.NoteOnEvent(tick=0, channel=5, data=[40, 80]),
   midi.NoteOnEvent(tick=240, channel=5, data=[40, 0]),
   midi.NoteOnEvent(tick=0, channel=5, data=[28, 0]),
   midi.NoteOnEvent(tick=0, channel=5, data=[40, 80]),
   midi.NoteOnEvent(tick=0, channel=5, data=[52, 80]),
   midi.NoteOnEvent(tick=240, channel=5, data=[52, 0]),
   midi.NoteOnEvent(tick=0, channel=5, data=[40, 0]),
   midi.NoteOnEvent(tick=0, channel=5, data=[28, 80]),
   midi.NoteOnEvent(tick=0, channel=5, data=[40, 80]),
   midi.NoteOnEvent(tick=240, channel=5, data=[40, 0]),
   midi.NoteOnEvent(tick=0, channel=5, data=[28, 0]),
   midi.NoteOnEvent(tick=0, channel=5, data=[29, 80]),
   midi.NoteOnEvent(tick=0, channel=5, data=[41, 80]),
   midi.NoteOnEvent(tick=240, channel=5, data=[41, 0]),
   midi.NoteOnEvent(tick=0, channel=5, data=[29, 0]),
   midi.NoteOnEvent(tick=0, channel=5, data=[41, 80]),
   midi.NoteOnEvent(tick=0, channel=5, data=[53, 80]),
   midi.NoteOnEvent(tick=240, channel=5, data=[53, 0]),
   midi.NoteOnEvent(tick=0, channel=5, data=[41, 0]),
   midi.NoteOnEvent(tick=0, channel=5, data=[29, 80]),
   midi.NoteOnEvent(tick=0, channel=5, data=[41, 80]),
   midi.NoteOnEvent(tick=240, channel=5, data=[41, 0]),
   midi.NoteOnEvent(tick=0, channel=5, data=[29, 0]),
   midi.NoteOnEvent(tick=0, channel=5, data=[27, 80]),
   midi.NoteOnEvent(tick=0, channel=5, data=[39, 80]),
   midi.NoteOnEvent(tick=240, channel=5, data=[39, 0]),
   midi.NoteOnEvent(tick=0, channel=5, data=[27, 0]),
   midi.NoteOnEvent(tick=0, channel=5, data=[39, 80]),
   midi.NoteOnEvent(tick=0, channel=5, data=[51, 80]),
   midi.NoteOnEvent(tick=240, channel=5, data=[51, 0]),
   midi.NoteOnEvent(tick=0, channel=5, data=[39, 0]),
   midi.NoteOnEvent(tick=0, channel=5, data=[27, 80]),
   midi.NoteOnEvent(tick=0, channel=5, data=[39, 80]),
   midi.NoteOnEvent(tick=240, channel=5, data=[39, 0]),
   midi.NoteOnEvent(tick=0, channel=5, data=[27, 0]),
   midi.NoteOnEvent(tick=0, channel=5, data=[25, 80]),
   midi.NoteOnEvent(tick=0, channel=5, data=[37, 80]),
   midi.NoteOnEvent(tick=240, channel=5, data=[37, 0]),
   midi.NoteOnEvent(tick=0, channel=5, data=[25, 0]),
   midi.NoteOnEvent(tick=0, channel=5, data=[37, 80]),
   midi.NoteOnEvent(tick=0, channel=5, data=[49, 80]),
   midi.NoteOnEvent(tick=240, channel=5, data=[49, 0]),
   midi.NoteOnEvent(tick=0, channel=5, data=[37, 0]),
   midi.NoteOnEvent(tick=0, channel=5, data=[25, 80]),
   midi.NoteOnEvent(tick=0, channel=5, data=[37, 80]),
   midi.NoteOnEvent(tick=240, channel=5, data=[37, 0]),
   midi.NoteOnEvent(tick=0, channel=5, data=[25, 0]),
   midi.NoteOnEvent(tick=0, channel=5, data=[31, 80]),
   midi.NoteOnEvent(tick=0, channel=5, data=[43, 80]),
   midi.NoteOnEvent(tick=240, channel=5, data=[43, 0]),
   midi.NoteOnEvent(tick=0, channel=5, data=[31, 0]),
   midi.NoteOnEvent(tick=0, channel=5, data=[43, 80]),
   midi.NoteOnEvent(tick=0, channel=5, data=[55, 80]),
   midi.NoteOnEvent(tick=240, channel=5, data=[55, 0]),
   midi.NoteOnEvent(tick=0, channel=5, data=[43, 0]),
   midi.NoteOnEvent(tick=0, channel=5, data=[31, 80]),
   midi.NoteOnEvent(tick=0, channel=5, data=[43, 80]),
   midi.NoteOnEvent(tick=240, channel=5, data=[43, 0]),
   midi.NoteOnEvent(tick=0, channel=5, data=[31, 0]),
   midi.NoteOnEvent(tick=0, channel=5, data=[31, 64]),
   midi.NoteOnEvent(tick=0, channel=5, data=[43, 64]),
   midi.NoteOnEvent(tick=240, channel=5, data=[43, 0]),
   midi.NoteOnEvent(tick=0, channel=5, data=[31, 0]),
   midi.NoteOnEvent(tick=0, channel=5, data=[43, 64]),
   midi.NoteOnEvent(tick=0, channel=5, data=[55, 64]),
   midi.NoteOnEvent(tick=240, channel=5, data=[55, 0]),
   midi.NoteOnEvent(tick=0, channel=5, data=[43, 0]),
   midi.NoteOnEvent(tick=0, channel=5, data=[31, 64]),
   midi.NoteOnEvent(tick=0, channel=5, data=[43, 64]),
   midi.NoteOnEvent(tick=240, channel=5, data=[43, 0]),
   midi.NoteOnEvent(tick=0, channel=5, data=[31, 0]),
   midi.NoteOnEvent(tick=0, channel=5, data=[32, 50]),
   midi.NoteOnEvent(tick=0, channel=5, data=[44, 50]),
   midi.NoteOnEvent(tick=240, channel=5, data=[44, 0]),
   midi.NoteOnEvent(tick=0, channel=5, data=[32, 0]),
   midi.NoteOnEvent(tick=0, channel=5, data=[44, 53]),
   midi.NoteOnEvent(tick=0, channel=5, data=[56, 53]),
   midi.NoteOnEvent(tick=240, channel=5, data=[56, 0]),
   midi.NoteOnEvent(tick=0, channel=5, data=[44, 0]),
   midi.NoteOnEvent(tick=0, channel=5, data=[32, 57]),
   midi.NoteOnEvent(tick=0, channel=5, data=[44, 57]),
   midi.NoteOnEvent(tick=240, channel=5, data=[44, 0]),
   midi.NoteOnEvent(tick=0, channel=5, data=[32, 0]),
   midi.NoteOnEvent(tick=0, channel=5, data=[31, 80]),
   midi.NoteOnEvent(tick=0, channel=5, data=[43, 80]),
   midi.NoteOnEvent(tick=240, channel=5, data=[43, 0]),
   midi.NoteOnEvent(tick=0, channel=5, data=[31, 0]),
   midi.NoteOnEvent(tick=0, channel=5, data=[43, 80]),
   midi.NoteOnEvent(tick=0, channel=5, data=[55, 80]),
   midi.NoteOnEvent(tick=240, channel=5, data=[55, 0]),
   midi.NoteOnEvent(tick=0, channel=5, data=[43, 0]),
   midi.NoteOnEvent(tick=0, channel=5, data=[31, 80]),
   midi.NoteOnEvent(tick=0, channel=5, data=[43, 80]),
   midi.NoteOnEvent(tick=240, channel=5, data=[43, 0]),
   midi.NoteOnEvent(tick=0, channel=5, data=[31, 0]),
   midi.NoteOnEvent(tick=10020, channel=5, data=[37, 64]),
   midi.NoteOnEvent(tick=0, channel=5, data=[49, 64]),
   midi.NoteOnEvent(tick=48, channel=5, data=[49, 0]),
   midi.NoteOnEvent(tick=0, channel=5, data=[37, 0]),
   midi.NoteOnEvent(tick=12, channel=5, data=[26, 64]),
   midi.NoteOnEvent(tick=0, channel=5, data=[38, 64]),
   midi.NoteOnEvent(tick=192, channel=5, data=[38, 0]),
   midi.NoteOnEvent(tick=0, channel=5, data=[26, 0]),
   midi.NoteOnEvent(tick=48, channel=5, data=[38, 64]),
   midi.NoteOnEvent(tick=0, channel=5, data=[50, 64]),
   midi.NoteOnEvent(tick=192, channel=5, data=[50, 0]),
   midi.NoteOnEvent(tick=0, channel=5, data=[38, 0]),
   midi.NoteOnEvent(tick=48, channel=5, data=[26, 64]),
   midi.NoteOnEvent(tick=0, channel=5, data=[38, 64]),
   midi.NoteOnEvent(tick=192, channel=5, data=[38, 0]),
   midi.NoteOnEvent(tick=0, channel=5, data=[26, 0]),
   midi.NoteOnEvent(tick=48, channel=5, data=[24, 64]),
   midi.NoteOnEvent(tick=0, channel=5, data=[36, 64]),
   midi.NoteOnEvent(tick=192, channel=5, data=[36, 0]),
   midi.NoteOnEvent(tick=0, channel=5, data=[24, 0]),
   midi.NoteOnEvent(tick=48, channel=5, data=[36, 64]),
   midi.NoteOnEvent(tick=0, channel=5, data=[48, 64]),
   midi.NoteOnEvent(tick=192, channel=5, data=[48, 0]),
   midi.NoteOnEvent(tick=0, channel=5, data=[36, 0]),
   midi.NoteOnEvent(tick=48, channel=5, data=[24, 64]),
   midi.NoteOnEvent(tick=0, channel=5, data=[36, 64]),
   midi.NoteOnEvent(tick=192, channel=5, data=[36, 0]),
   midi.NoteOnEvent(tick=0, channel=5, data=[24, 0]),
   midi.NoteOnEvent(tick=48, channel=5, data=[25, 64]),
   midi.NoteOnEvent(tick=0, channel=5, data=[37, 64]),
   midi.NoteOnEvent(tick=192, channel=5, data=[37, 0]),
   midi.NoteOnEvent(tick=0, channel=5, data=[25, 0]),
   midi.NoteOnEvent(tick=48, channel=5, data=[37, 64]),
   midi.NoteOnEvent(tick=0, channel=5, data=[49, 64]),
   midi.NoteOnEvent(tick=192, channel=5, data=[49, 0]),
   midi.NoteOnEvent(tick=0, channel=5, data=[37, 0]),
   midi.NoteOnEvent(tick=48, channel=5, data=[25, 64]),
   midi.NoteOnEvent(tick=0, channel=5, data=[37, 64]),
   midi.NoteOnEvent(tick=192, channel=5, data=[37, 0]),
   midi.NoteOnEvent(tick=0, channel=5, data=[25, 0]),
   midi.NoteOnEvent(tick=48, channel=5, data=[26, 64]),
   midi.NoteOnEvent(tick=0, channel=5, data=[38, 64]),
   midi.NoteOnEvent(tick=192, channel=5, data=[38, 0]),
   midi.NoteOnEvent(tick=0, channel=5, data=[26, 0]),
   midi.NoteOnEvent(tick=48, channel=5, data=[38, 64]),
   midi.NoteOnEvent(tick=0, channel=5, data=[50, 64]),
   midi.NoteOnEvent(tick=192, channel=5, data=[50, 0]),
   midi.NoteOnEvent(tick=0, channel=5, data=[38, 0]),
   midi.NoteOnEvent(tick=48, channel=5, data=[26, 64]),
   midi.NoteOnEvent(tick=0, channel=5, data=[38, 64]),
   midi.NoteOnEvent(tick=192, channel=5, data=[38, 0]),
   midi.NoteOnEvent(tick=0, channel=5, data=[26, 0]),
   midi.EndOfTrackEvent(tick=0, data=[])]),
 midi.Track(\
  [midi.PortEvent(tick=0, data=[0]),
   midi.TrackNameEvent(tick=0, text='Violin', data=[86, 105, 111, 108, 105, 110]),
   midi.ProgramChangeEvent(tick=0, channel=6, data=[40]),
   midi.ControlChangeEvent(tick=0, channel=6, data=[7, 110]),
   midi.ControlChangeEvent(tick=0, channel=6, data=[10, 55]),
   midi.NoteOnEvent(tick=42120, channel=6, data=[67, 80]),
   midi.NoteOnEvent(tick=120, channel=6, data=[67, 0]),
   midi.NoteOnEvent(tick=0, channel=6, data=[68, 80]),
   midi.NoteOnEvent(tick=60, channel=6, data=[68, 0]),
   midi.NoteOnEvent(tick=0, channel=6, data=[67, 80]),
   midi.NoteOnEvent(tick=60, channel=6, data=[67, 0]),
   midi.NoteOnEvent(tick=0, channel=6, data=[66, 80]),
   midi.NoteOnEvent(tick=60, channel=6, data=[66, 0]),
   midi.NoteOnEvent(tick=0, channel=6, data=[67, 80]),
   midi.NoteOnEvent(tick=60, channel=6, data=[67, 0]),
   midi.NoteOnEvent(tick=0, channel=6, data=[65, 80]),
   midi.NoteOnEvent(tick=60, channel=6, data=[65, 0]),
   midi.NoteOnEvent(tick=0, channel=6, data=[63, 80]),
   midi.NoteOnEvent(tick=60, channel=6, data=[63, 0]),
   midi.NoteOnEvent(tick=0, channel=6, data=[62, 80]),
   midi.NoteOnEvent(tick=60, channel=6, data=[62, 0]),
   midi.NoteOnEvent(tick=0, channel=6, data=[63, 80]),
   midi.NoteOnEvent(tick=60, channel=6, data=[63, 0]),
   midi.NoteOnEvent(tick=0, channel=6, data=[65, 80]),
   midi.NoteOnEvent(tick=60, channel=6, data=[65, 0]),
   midi.NoteOnEvent(tick=0, channel=6, data=[63, 80]),
   midi.NoteOnEvent(tick=60, channel=6, data=[63, 0]),
   midi.NoteOnEvent(tick=0, channel=6, data=[62, 80]),
   midi.NoteOnEvent(tick=60, channel=6, data=[62, 0]),
   midi.NoteOnEvent(tick=0, channel=6, data=[63, 80]),
   midi.NoteOnEvent(tick=60, channel=6, data=[63, 0]),
   midi.NoteOnEvent(tick=0, channel=6, data=[62, 80]),
   midi.NoteOnEvent(tick=60, channel=6, data=[62, 0]),
   midi.NoteOnEvent(tick=0, channel=6, data=[60, 80]),
   midi.NoteOnEvent(tick=60, channel=6, data=[60, 0]),
   midi.NoteOnEvent(tick=0, channel=6, data=[59, 80]),
   midi.NoteOnEvent(tick=60, channel=6, data=[59, 0]),
   midi.NoteOnEvent(tick=0, channel=6, data=[60, 80]),
   midi.NoteOnEvent(tick=60, channel=6, data=[60, 0]),
   midi.NoteOnEvent(tick=0, channel=6, data=[62, 80]),
   midi.NoteOnEvent(tick=720, channel=6, data=[62, 0]),
   midi.NoteOnEvent(tick=360, channel=6, data=[67, 80]),
   midi.NoteOnEvent(tick=120, channel=6, data=[67, 0]),
   midi.NoteOnEvent(tick=0, channel=6, data=[68, 80]),
   midi.NoteOnEvent(tick=60, channel=6, data=[68, 0]),
   midi.NoteOnEvent(tick=0, channel=6, data=[67, 80]),
   midi.NoteOnEvent(tick=60, channel=6, data=[67, 0]),
   midi.NoteOnEvent(tick=0, channel=6, data=[66, 80]),
   midi.NoteOnEvent(tick=60, channel=6, data=[66, 0]),
   midi.NoteOnEvent(tick=0, channel=6, data=[67, 80]),
   midi.NoteOnEvent(tick=60, channel=6, data=[67, 0]),
   midi.NoteOnEvent(tick=0, channel=6, data=[65, 80]),
   midi.NoteOnEvent(tick=60, channel=6, data=[65, 0]),
   midi.NoteOnEvent(tick=0, channel=6, data=[63, 80]),
   midi.NoteOnEvent(tick=60, channel=6, data=[63, 0]),
   midi.NoteOnEvent(tick=0, channel=6, data=[62, 80]),
   midi.NoteOnEvent(tick=60, channel=6, data=[62, 0]),
   midi.NoteOnEvent(tick=0, channel=6, data=[63, 80]),
   midi.NoteOnEvent(tick=60, channel=6, data=[63, 0]),
   midi.NoteOnEvent(tick=0, channel=6, data=[65, 80]),
   midi.NoteOnEvent(tick=60, channel=6, data=[65, 0]),
   midi.NoteOnEvent(tick=0, channel=6, data=[63, 80]),
   midi.NoteOnEvent(tick=60, channel=6, data=[63, 0]),
   midi.NoteOnEvent(tick=0, channel=6, data=[62, 80]),
   midi.NoteOnEvent(tick=60, channel=6, data=[62, 0]),
   midi.NoteOnEvent(tick=0, channel=6, data=[63, 80]),
   midi.NoteOnEvent(tick=60, channel=6, data=[63, 0]),
   midi.NoteOnEvent(tick=0, channel=6, data=[63, 80]),
   midi.NoteOnEvent(tick=60, channel=6, data=[63, 0]),
   midi.NoteOnEvent(tick=0, channel=6, data=[62, 80]),
   midi.NoteOnEvent(tick=60, channel=6, data=[62, 0]),
   midi.NoteOnEvent(tick=0, channel=6, data=[60, 80]),
   midi.NoteOnEvent(tick=60, channel=6, data=[60, 0]),
   midi.NoteOnEvent(tick=0, channel=6, data=[59, 80]),
   midi.NoteOnEvent(tick=60, channel=6, data=[59, 0]),
   midi.NoteOnEvent(tick=0, channel=6, data=[60, 80]),
   midi.NoteOnEvent(tick=360, channel=6, data=[60, 0]),
   midi.NoteOnEvent(tick=0, channel=6, data=[55, 80]),
   midi.NoteOnEvent(tick=120, channel=6, data=[55, 0]),
   midi.NoteOnEvent(tick=0, channel=6, data=[60, 80]),
   midi.NoteOnEvent(tick=60, channel=6, data=[60, 0]),
   midi.NoteOnEvent(tick=0, channel=6, data=[63, 80]),
   midi.NoteOnEvent(tick=60, channel=6, data=[63, 0]),
   midi.NoteOnEvent(tick=0, channel=6, data=[67, 80]),
   midi.NoteOnEvent(tick=60, channel=6, data=[67, 0]),
   midi.NoteOnEvent(tick=0, channel=6, data=[72, 80]),
   midi.NoteOnEvent(tick=60, channel=6, data=[72, 0]),
   midi.NoteOnEvent(tick=0, channel=6, data=[75, 80]),
   midi.NoteOnEvent(tick=60, channel=6, data=[75, 0]),
   midi.NoteOnEvent(tick=0, channel=6, data=[72, 80]),
   midi.NoteOnEvent(tick=60, channel=6, data=[72, 0]),
   midi.NoteOnEvent(tick=0, channel=6, data=[67, 80]),
   midi.NoteOnEvent(tick=60, channel=6, data=[67, 0]),
   midi.NoteOnEvent(tick=0, channel=6, data=[63, 80]),
   midi.NoteOnEvent(tick=60, channel=6, data=[63, 0]),
   midi.NoteOnEvent(tick=0, channel=6, data=[67, 80]),
   midi.NoteOnEvent(tick=60, channel=6, data=[67, 0]),
   midi.NoteOnEvent(tick=0, channel=6, data=[72, 80]),
   midi.NoteOnEvent(tick=60, channel=6, data=[72, 0]),
   midi.NoteOnEvent(tick=0, channel=6, data=[75, 80]),
   midi.NoteOnEvent(tick=60, channel=6, data=[75, 0]),
   midi.NoteOnEvent(tick=0, channel=6, data=[79, 80]),
   midi.NoteOnEvent(tick=60, channel=6, data=[79, 0]),
   midi.NoteOnEvent(tick=0, channel=6, data=[75, 80]),
   midi.NoteOnEvent(tick=60, channel=6, data=[75, 0]),
   midi.NoteOnEvent(tick=0, channel=6, data=[72, 80]),
   midi.NoteOnEvent(tick=60, channel=6, data=[72, 0]),
   midi.NoteOnEvent(tick=0, channel=6, data=[67, 80]),
   midi.NoteOnEvent(tick=60, channel=6, data=[67, 0]),
   midi.NoteOnEvent(tick=0, channel=6, data=[72, 80]),
   midi.NoteOnEvent(tick=60, channel=6, data=[72, 0]),
   midi.NoteOnEvent(tick=0, channel=6, data=[75, 80]),
   midi.NoteOnEvent(tick=60, channel=6, data=[75, 0]),
   midi.NoteOnEvent(tick=0, channel=6, data=[79, 80]),
   midi.NoteOnEvent(tick=60, channel=6, data=[79, 0]),
   midi.NoteOnEvent(tick=0, channel=6, data=[84, 80]),
   midi.NoteOnEvent(tick=60, channel=6, data=[84, 0]),
   midi.NoteOnEvent(tick=0, channel=6, data=[87, 80]),
   midi.NoteOnEvent(tick=60, channel=6, data=[87, 0]),
   midi.NoteOnEvent(tick=0, channel=6, data=[84, 80]),
   midi.NoteOnEvent(tick=60, channel=6, data=[84, 0]),
   midi.NoteOnEvent(tick=0, channel=6, data=[79, 80]),
   midi.NoteOnEvent(tick=60, channel=6, data=[79, 0]),
   midi.NoteOnEvent(tick=0, channel=6, data=[75, 80]),
   midi.NoteOnEvent(tick=60, channel=6, data=[75, 0]),
   midi.NoteOnEvent(tick=0, channel=6, data=[72, 80]),
   midi.NoteOnEvent(tick=60, channel=6, data=[72, 0]),
   midi.NoteOnEvent(tick=0, channel=6, data=[75, 80]),
   midi.NoteOnEvent(tick=60, channel=6, data=[75, 0]),
   midi.NoteOnEvent(tick=0, channel=6, data=[79, 80]),
   midi.NoteOnEvent(tick=60, channel=6, data=[79, 0]),
   midi.NoteOnEvent(tick=0, channel=6, data=[84, 80]),
   midi.NoteOnEvent(tick=60, channel=6, data=[84, 0]),
   midi.NoteOnEvent(tick=0, channel=6, data=[87, 80]),
   midi.NoteOnEvent(tick=60, channel=6, data=[87, 0]),
   midi.NoteOnEvent(tick=0, channel=6, data=[91, 80]),
   midi.NoteOnEvent(tick=360, channel=6, data=[91, 0]),
   midi.NoteOnEvent(tick=720, channel=6, data=[72, 80]),
   midi.NoteOnEvent(tick=120, channel=6, data=[72, 0]),
   midi.NoteOnEvent(tick=0, channel=6, data=[73, 80]),
   midi.NoteOnEvent(tick=60, channel=6, data=[73, 0]),
   midi.NoteOnEvent(tick=0, channel=6, data=[72, 80]),
   midi.NoteOnEvent(tick=60, channel=6, data=[72, 0]),
   midi.NoteOnEvent(tick=0, channel=6, data=[71, 80]),
   midi.NoteOnEvent(tick=60, channel=6, data=[71, 0]),
   midi.NoteOnEvent(tick=0, channel=6, data=[72, 80]),
   midi.NoteOnEvent(tick=60, channel=6, data=[72, 0]),
   midi.NoteOnEvent(tick=0, channel=6, data=[70, 80]),
   midi.NoteOnEvent(tick=60, channel=6, data=[70, 0]),
   midi.NoteOnEvent(tick=0, channel=6, data=[68, 80]),
   midi.NoteOnEvent(tick=60, channel=6, data=[68, 0]),
   midi.NoteOnEvent(tick=0, channel=6, data=[67, 80]),
   midi.NoteOnEvent(tick=60, channel=6, data=[67, 0]),
   midi.NoteOnEvent(tick=0, channel=6, data=[68, 80]),
   midi.NoteOnEvent(tick=60, channel=6, data=[68, 0]),
   midi.NoteOnEvent(tick=0, channel=6, data=[70, 80]),
   midi.NoteOnEvent(tick=60, channel=6, data=[70, 0]),
   midi.NoteOnEvent(tick=0, channel=6, data=[68, 80]),
   midi.NoteOnEvent(tick=60, channel=6, data=[68, 0]),
   midi.NoteOnEvent(tick=0, channel=6, data=[67, 80]),
   midi.NoteOnEvent(tick=60, channel=6, data=[67, 0]),
   midi.NoteOnEvent(tick=0, channel=6, data=[68, 80]),
   midi.NoteOnEvent(tick=60, channel=6, data=[68, 0]),
   midi.NoteOnEvent(tick=0, channel=6, data=[67, 80]),
   midi.NoteOnEvent(tick=60, channel=6, data=[67, 0]),
   midi.NoteOnEvent(tick=0, channel=6, data=[65, 80]),
   midi.NoteOnEvent(tick=60, channel=6, data=[65, 0]),
   midi.NoteOnEvent(tick=0, channel=6, data=[64, 80]),
   midi.NoteOnEvent(tick=60, channel=6, data=[64, 0]),
   midi.NoteOnEvent(tick=0, channel=6, data=[65, 80]),
   midi.NoteOnEvent(tick=60, channel=6, data=[65, 0]),
   midi.NoteOnEvent(tick=0, channel=6, data=[67, 80]),
   midi.NoteOnEvent(tick=720, channel=6, data=[67, 0]),
   midi.NoteOnEvent(tick=360, channel=6, data=[72, 80]),
   midi.NoteOnEvent(tick=120, channel=6, data=[72, 0]),
   midi.NoteOnEvent(tick=0, channel=6, data=[73, 80]),
   midi.NoteOnEvent(tick=60, channel=6, data=[73, 0]),
   midi.NoteOnEvent(tick=0, channel=6, data=[72, 80]),
   midi.NoteOnEvent(tick=60, channel=6, data=[72, 0]),
   midi.NoteOnEvent(tick=0, channel=6, data=[71, 80]),
   midi.NoteOnEvent(tick=60, channel=6, data=[71, 0]),
   midi.NoteOnEvent(tick=0, channel=6, data=[72, 80]),
   midi.NoteOnEvent(tick=60, channel=6, data=[72, 0]),
   midi.NoteOnEvent(tick=0, channel=6, data=[70, 80]),
   midi.NoteOnEvent(tick=60, channel=6, data=[70, 0]),
   midi.NoteOnEvent(tick=0, channel=6, data=[68, 80]),
   midi.NoteOnEvent(tick=60, channel=6, data=[68, 0]),
   midi.NoteOnEvent(tick=0, channel=6, data=[67, 80]),
   midi.NoteOnEvent(tick=60, channel=6, data=[67, 0]),
   midi.NoteOnEvent(tick=0, channel=6, data=[68, 80]),
   midi.NoteOnEvent(tick=60, channel=6, data=[68, 0]),
   midi.NoteOnEvent(tick=0, channel=6, data=[70, 80]),
   midi.NoteOnEvent(tick=60, channel=6, data=[70, 0]),
   midi.NoteOnEvent(tick=0, channel=6, data=[68, 80]),
   midi.NoteOnEvent(tick=60, channel=6, data=[68, 0]),
   midi.NoteOnEvent(tick=0, channel=6, data=[67, 80]),
   midi.NoteOnEvent(tick=60, channel=6, data=[67, 0]),
   midi.NoteOnEvent(tick=0, channel=6, data=[68, 80]),
   midi.NoteOnEvent(tick=60, channel=6, data=[68, 0]),
   midi.NoteOnEvent(tick=0, channel=6, data=[68, 80]),
   midi.NoteOnEvent(tick=60, channel=6, data=[68, 0]),
   midi.NoteOnEvent(tick=0, channel=6, data=[67, 80]),
   midi.NoteOnEvent(tick=60, channel=6, data=[67, 0]),
   midi.NoteOnEvent(tick=0, channel=6, data=[65, 80]),
   midi.NoteOnEvent(tick=60, channel=6, data=[65, 0]),
   midi.NoteOnEvent(tick=0, channel=6, data=[64, 80]),
   midi.NoteOnEvent(tick=60, channel=6, data=[64, 0]),
   midi.NoteOnEvent(tick=0, channel=6, data=[65, 80]),
   midi.NoteOnEvent(tick=360, channel=6, data=[65, 0]),
   midi.NoteOnEvent(tick=0, channel=6, data=[56, 80]),
   midi.NoteOnEvent(tick=120, channel=6, data=[56, 0]),
   midi.NoteOnEvent(tick=0, channel=6, data=[60, 80]),
   midi.NoteOnEvent(tick=60, channel=6, data=[60, 0]),
   midi.NoteOnEvent(tick=0, channel=6, data=[65, 80]),
   midi.NoteOnEvent(tick=60, channel=6, data=[65, 0]),
   midi.NoteOnEvent(tick=0, channel=6, data=[68, 80]),
   midi.NoteOnEvent(tick=60, channel=6, data=[68, 0]),
   midi.NoteOnEvent(tick=0, channel=6, data=[72, 80]),
   midi.NoteOnEvent(tick=60, channel=6, data=[72, 0]),
   midi.NoteOnEvent(tick=0, channel=6, data=[68, 80]),
   midi.NoteOnEvent(tick=60, channel=6, data=[68, 0]),
   midi.NoteOnEvent(tick=0, channel=6, data=[65, 80]),
   midi.NoteOnEvent(tick=60, channel=6, data=[65, 0]),
   midi.NoteOnEvent(tick=0, channel=6, data=[60, 80]),
   midi.NoteOnEvent(tick=60, channel=6, data=[60, 0]),
   midi.NoteOnEvent(tick=0, channel=6, data=[65, 80]),
   midi.NoteOnEvent(tick=60, channel=6, data=[65, 0]),
   midi.NoteOnEvent(tick=0, channel=6, data=[68, 80]),
   midi.NoteOnEvent(tick=60, channel=6, data=[68, 0]),
   midi.NoteOnEvent(tick=0, channel=6, data=[72, 80]),
   midi.NoteOnEvent(tick=60, channel=6, data=[72, 0]),
   midi.NoteOnEvent(tick=0, channel=6, data=[77, 80]),
   midi.NoteOnEvent(tick=60, channel=6, data=[77, 0]),
   midi.NoteOnEvent(tick=0, channel=6, data=[80, 80]),
   midi.NoteOnEvent(tick=60, channel=6, data=[80, 0]),
   midi.NoteOnEvent(tick=0, channel=6, data=[77, 80]),
   midi.NoteOnEvent(tick=60, channel=6, data=[77, 0]),
   midi.NoteOnEvent(tick=0, channel=6, data=[72, 80]),
   midi.NoteOnEvent(tick=60, channel=6, data=[72, 0]),
   midi.NoteOnEvent(tick=0, channel=6, data=[68, 80]),
   midi.NoteOnEvent(tick=60, channel=6, data=[68, 0]),
   midi.NoteOnEvent(tick=0, channel=6, data=[65, 80]),
   midi.NoteOnEvent(tick=60, channel=6, data=[65, 0]),
   midi.NoteOnEvent(tick=0, channel=6, data=[68, 80]),
   midi.NoteOnEvent(tick=60, channel=6, data=[68, 0]),
   midi.NoteOnEvent(tick=0, channel=6, data=[72, 80]),
   midi.NoteOnEvent(tick=60, channel=6, data=[72, 0]),
   midi.NoteOnEvent(tick=0, channel=6, data=[77, 80]),
   midi.NoteOnEvent(tick=60, channel=6, data=[77, 0]),
   midi.NoteOnEvent(tick=0, channel=6, data=[80, 80]),
   midi.NoteOnEvent(tick=60, channel=6, data=[80, 0]),
   midi.NoteOnEvent(tick=0, channel=6, data=[84, 80]),
   midi.NoteOnEvent(tick=60, channel=6, data=[84, 0]),
   midi.NoteOnEvent(tick=0, channel=6, data=[80, 80]),
   midi.NoteOnEvent(tick=60, channel=6, data=[80, 0]),
   midi.NoteOnEvent(tick=0, channel=6, data=[77, 80]),
   midi.NoteOnEvent(tick=60, channel=6, data=[77, 0]),
   midi.NoteOnEvent(tick=0, channel=6, data=[72, 80]),
   midi.NoteOnEvent(tick=60, channel=6, data=[72, 0]),
   midi.NoteOnEvent(tick=0, channel=6, data=[77, 80]),
   midi.NoteOnEvent(tick=60, channel=6, data=[77, 0]),
   midi.NoteOnEvent(tick=0, channel=6, data=[80, 80]),
   midi.NoteOnEvent(tick=60, channel=6, data=[80, 0]),
   midi.NoteOnEvent(tick=0, channel=6, data=[84, 80]),
   midi.NoteOnEvent(tick=60, channel=6, data=[84, 0]),
   midi.NoteOnEvent(tick=0, channel=6, data=[89, 80]),
   midi.NoteOnEvent(tick=60, channel=6, data=[89, 0]),
   midi.NoteOnEvent(tick=0, channel=6, data=[92, 80]),
   midi.NoteOnEvent(tick=360, channel=6, data=[92, 0]),
   midi.NoteOnEvent(tick=19800, channel=6, data=[82, 80]),
   midi.NoteOnEvent(tick=300, channel=6, data=[82, 0]),
   midi.NoteOnEvent(tick=0, channel=6, data=[81, 80]),
   midi.NoteOnEvent(tick=60, channel=6, data=[81, 0]),
   midi.NoteOnEvent(tick=0, channel=6, data=[79, 80]),
   midi.NoteOnEvent(tick=60, channel=6, data=[79, 0]),
   midi.NoteOnEvent(tick=0, channel=6, data=[77, 80]),
   midi.NoteOnEvent(tick=60, channel=6, data=[77, 0]),
   midi.NoteOnEvent(tick=0, channel=6, data=[75, 80]),
   midi.NoteOnEvent(tick=60, channel=6, data=[75, 0]),
   midi.NoteOnEvent(tick=0, channel=6, data=[74, 80]),
   midi.NoteOnEvent(tick=60, channel=6, data=[74, 0]),
   midi.NoteOnEvent(tick=0, channel=6, data=[72, 80]),
   midi.NoteOnEvent(tick=60, channel=6, data=[72, 0]),
   midi.NoteOnEvent(tick=0, channel=6, data=[70, 80]),
   midi.NoteOnEvent(tick=60, channel=6, data=[70, 0]),
   midi.NoteOnEvent(tick=0, channel=6, data=[67, 80]),
   midi.NoteOnEvent(tick=480, channel=6, data=[67, 0]),
   midi.NoteOnEvent(tick=27960, channel=6, data=[55, 100]),
   midi.NoteOnEvent(tick=120, channel=6, data=[55, 0]),
   midi.NoteOnEvent(tick=0, channel=6, data=[58, 100]),
   midi.NoteOnEvent(tick=60, channel=6, data=[58, 0]),
   midi.NoteOnEvent(tick=0, channel=6, data=[62, 100]),
   midi.NoteOnEvent(tick=60, channel=6, data=[62, 0]),
   midi.NoteOnEvent(tick=0, channel=6, data=[67, 100]),
   midi.NoteOnEvent(tick=60, channel=6, data=[67, 0]),
   midi.NoteOnEvent(tick=0, channel=6, data=[70, 100]),
   midi.NoteOnEvent(tick=60, channel=6, data=[70, 0]),
   midi.NoteOnEvent(tick=0, channel=6, data=[67, 100]),
   midi.NoteOnEvent(tick=60, channel=6, data=[67, 0]),
   midi.NoteOnEvent(tick=0, channel=6, data=[62, 98]),
   midi.NoteOnEvent(tick=60, channel=6, data=[62, 0]),
   midi.NoteOnEvent(tick=0, channel=6, data=[58, 97]),
   midi.NoteOnEvent(tick=60, channel=6, data=[58, 0]),
   midi.NoteOnEvent(tick=0, channel=6, data=[62, 95]),
   midi.NoteOnEvent(tick=60, channel=6, data=[62, 0]),
   midi.NoteOnEvent(tick=0, channel=6, data=[67, 93]),
   midi.NoteOnEvent(tick=60, channel=6, data=[67, 0]),
   midi.NoteOnEvent(tick=0, channel=6, data=[70, 92]),
   midi.NoteOnEvent(tick=60, channel=6, data=[70, 0]),
   midi.NoteOnEvent(tick=0, channel=6, data=[74, 90]),
   midi.NoteOnEvent(tick=60, channel=6, data=[74, 0]),
   midi.NoteOnEvent(tick=0, channel=6, data=[79, 88]),
   midi.NoteOnEvent(tick=60, channel=6, data=[79, 0]),
   midi.NoteOnEvent(tick=0, channel=6, data=[82, 87]),
   midi.NoteOnEvent(tick=60, channel=6, data=[82, 0]),
   midi.NoteOnEvent(tick=0, channel=6, data=[79, 85]),
   midi.NoteOnEvent(tick=60, channel=6, data=[79, 0]),
   midi.NoteOnEvent(tick=0, channel=6, data=[82, 83]),
   midi.NoteOnEvent(tick=60, channel=6, data=[82, 0]),
   midi.NoteOnEvent(tick=0, channel=6, data=[86, 82]),
   midi.NoteOnEvent(tick=60, channel=6, data=[86, 0]),
   midi.NoteOnEvent(tick=0, channel=6, data=[91, 80]),
   midi.NoteOnEvent(tick=720, channel=6, data=[91, 0]),
   midi.EndOfTrackEvent(tick=0, data=[])]),
 midi.Track(\
  [midi.PortEvent(tick=0, data=[0]),
   midi.TrackNameEvent(tick=0, text='Organ', data=[79, 114, 103, 97, 110]),
   midi.ProgramChangeEvent(tick=0, channel=7, data=[19]),
   midi.ControlChangeEvent(tick=0, channel=7, data=[7, 90]),
   midi.ControlChangeEvent(tick=0, channel=7, data=[10, 73]),
   midi.NoteOnEvent(tick=2160, channel=7, data=[67, 61]),
   midi.NoteOnEvent(tick=0, channel=7, data=[58, 61]),
   midi.NoteOnEvent(tick=0, channel=7, data=[63, 61]),
   midi.NoteOnEvent(tick=0, channel=7, data=[67, 61]),
   midi.NoteOnEvent(tick=30, channel=7, data=[67, 0]),
   midi.NoteOnEvent(tick=0, channel=7, data=[69, 61]),
   midi.NoteOnEvent(tick=30, channel=7, data=[69, 0]),
   midi.NoteOnEvent(tick=0, channel=7, data=[70, 61]),
   midi.NoteOnEvent(tick=540, channel=7, data=[70, 0]),
   midi.NoteOnEvent(tick=0, channel=7, data=[67, 60]),
   midi.NoteOnEvent(tick=120, channel=7, data=[67, 0]),
   midi.NoteOnEvent(tick=0, channel=7, data=[67, 60]),
   midi.NoteOnEvent(tick=480, channel=7, data=[67, 0]),
   midi.NoteOnEvent(tick=240, channel=7, data=[67, 0]),
   midi.NoteOnEvent(tick=0, channel=7, data=[58, 0]),
   midi.NoteOnEvent(tick=0, channel=7, data=[63, 0]),
   midi.NoteOnEvent(tick=0, channel=7, data=[69, 59]),
   midi.NoteOnEvent(tick=0, channel=7, data=[60, 59]),
   midi.NoteOnEvent(tick=0, channel=7, data=[63, 59]),
   midi.NoteOnEvent(tick=30, channel=7, data=[69, 0]),
   midi.NoteOnEvent(tick=0, channel=7, data=[70, 59]),
   midi.NoteOnEvent(tick=30, channel=7, data=[70, 0]),
   midi.NoteOnEvent(tick=0, channel=7, data=[72, 59]),
   midi.NoteOnEvent(tick=660, channel=7, data=[72, 0]),
   midi.NoteOnEvent(tick=0, channel=7, data=[63, 0]),
   midi.NoteOnEvent(tick=0, channel=7, data=[60, 0]),
   midi.NoteOnEvent(tick=0, channel=7, data=[70, 58]),
   midi.NoteOnEvent(tick=0, channel=7, data=[64, 58]),
   midi.NoteOnEvent(tick=0, channel=7, data=[67, 58]),
   midi.NoteOnEvent(tick=30, channel=7, data=[70, 0]),
   midi.NoteOnEvent(tick=0, channel=7, data=[69, 58]),
   midi.NoteOnEvent(tick=30, channel=7, data=[69, 0]),
   midi.NoteOnEvent(tick=0, channel=7, data=[70, 58]),
   midi.NoteOnEvent(tick=660, channel=7, data=[70, 0]),
   midi.NoteOnEvent(tick=0, channel=7, data=[67, 0]),
   midi.NoteOnEvent(tick=0, channel=7, data=[64, 0]),
   midi.NoteOnEvent(tick=0, channel=7, data=[69, 57]),
   midi.NoteOnEvent(tick=0, channel=7, data=[62, 57]),
   midi.NoteOnEvent(tick=0, channel=7, data=[67, 57]),
   midi.NoteOnEvent(tick=30, channel=7, data=[69, 0]),
   midi.NoteOnEvent(tick=0, channel=7, data=[67, 57]),
   midi.NoteOnEvent(tick=30, channel=7, data=[67, 0]),
   midi.NoteOnEvent(tick=0, channel=7, data=[69, 57]),
   midi.NoteOnEvent(tick=420, channel=7, data=[67, 0]),
   midi.NoteOnEvent(tick=0, channel=7, data=[62, 0]),
   midi.NoteOnEvent(tick=0, channel=7, data=[60, 56]),
   midi.NoteOnEvent(tick=0, channel=7, data=[66, 56]),
   midi.NoteOnEvent(tick=80, channel=7, data=[69, 0]),
   midi.NoteOnEvent(tick=0, channel=7, data=[67, 56]),
   midi.NoteOnEvent(tick=80, channel=7, data=[67, 0]),
   midi.NoteOnEvent(tick=0, channel=7, data=[66, 56]),
   midi.NoteOnEvent(tick=80, channel=7, data=[66, 0]),
   midi.NoteOnEvent(tick=0, channel=7, data=[66, 0]),
   midi.NoteOnEvent(tick=0, channel=7, data=[60, 0]),
   midi.NoteOnEvent(tick=0, channel=7, data=[58, 64]),
   midi.NoteOnEvent(tick=0, channel=7, data=[62, 64]),
   midi.NoteOnEvent(tick=0, channel=7, data=[67, 64]),
   midi.NoteOnEvent(tick=1440, channel=7, data=[67, 0]),
   midi.NoteOnEvent(tick=0, channel=7, data=[62, 0]),
   midi.NoteOnEvent(tick=0, channel=7, data=[58, 0]),
   midi.NoteOnEvent(tick=0, channel=7, data=[60, 64]),
   midi.NoteOnEvent(tick=0, channel=7, data=[60, 64]),
   midi.NoteOnEvent(tick=180, channel=7, data=[60, 0]),
   midi.NoteOnEvent(tick=0, channel=7, data=[62, 64]),
   midi.NoteOnEvent(tick=60, channel=7, data=[62, 0]),
   midi.NoteOnEvent(tick=0, channel=7, data=[63, 64]),
   midi.NoteOnEvent(tick=180, channel=7, data=[63, 0]),
   midi.NoteOnEvent(tick=0, channel=7, data=[62, 64]),
   midi.NoteOnEvent(tick=60, channel=7, data=[62, 0]),
   midi.NoteOnEvent(tick=0, channel=7, data=[63, 64]),
   midi.NoteOnEvent(tick=180, channel=7, data=[63, 0]),
   midi.NoteOnEvent(tick=0, channel=7, data=[60, 64]),
   midi.NoteOnEvent(tick=60, channel=7, data=[60, 0]),
   midi.NoteOnEvent(tick=0, channel=7, data=[66, 64]),
   midi.NoteOnEvent(tick=720, channel=7, data=[66, 0]),
   midi.NoteOnEvent(tick=0, channel=7, data=[60, 0]),
   midi.NoteOnEvent(tick=0, channel=7, data=[62, 64]),
   midi.NoteOnEvent(tick=0, channel=7, data=[62, 64]),
   midi.NoteOnEvent(tick=180, channel=7, data=[62, 0]),
   midi.NoteOnEvent(tick=0, channel=7, data=[64, 64]),
   midi.NoteOnEvent(tick=60, channel=7, data=[64, 0]),
   midi.NoteOnEvent(tick=0, channel=7, data=[66, 64]),
   midi.NoteOnEvent(tick=180, channel=7, data=[66, 0]),
   midi.NoteOnEvent(tick=0, channel=7, data=[62, 64]),
   midi.NoteOnEvent(tick=60, channel=7, data=[62, 0]),
   midi.NoteOnEvent(tick=0, channel=7, data=[67, 64]),
   midi.NoteOnEvent(tick=240, channel=7, data=[67, 0]),
   midi.NoteOnEvent(tick=0, channel=7, data=[67, 64]),
   midi.NoteOnEvent(tick=0, channel=7, data=[67, 64]),
   midi.NoteOnEvent(tick=480, channel=7, data=[67, 0]),
   midi.NoteOnEvent(tick=0, channel=7, data=[62, 64]),
   midi.NoteOnEvent(tick=240, channel=7, data=[62, 0]),
   midi.NoteOnEvent(tick=0, channel=7, data=[67, 0]),
   midi.NoteOnEvent(tick=0, channel=7, data=[63, 64]),
   midi.NoteOnEvent(tick=0, channel=7, data=[67, 64]),
   midi.NoteOnEvent(tick=240, channel=7, data=[62, 0]),
   midi.NoteOnEvent(tick=0, channel=7, data=[60, 64]),
   midi.NoteOnEvent(tick=120, channel=7, data=[60, 0]),
   midi.NoteOnEvent(tick=0, channel=7, data=[62, 64]),
   midi.NoteOnEvent(tick=120, channel=7, data=[62, 0]),
   midi.NoteOnEvent(tick=0, channel=7, data=[58, 64]),
   midi.NoteOnEvent(tick=80, channel=7, data=[58, 0]),
   midi.NoteOnEvent(tick=0, channel=7, data=[60, 64]),
   midi.NoteOnEvent(tick=80, channel=7, data=[60, 0]),
   midi.NoteOnEvent(tick=0, channel=7, data=[57, 64]),
   midi.NoteOnEvent(tick=80, channel=7, data=[57, 0]),
   midi.NoteOnEvent(tick=0, channel=7, data=[67, 0]),
   midi.NoteOnEvent(tick=0, channel=7, data=[63, 0]),
   midi.NoteOnEvent(tick=0, channel=7, data=[60, 64]),
   midi.NoteOnEvent(tick=0, channel=7, data=[65, 64]),
   midi.NoteOnEvent(tick=0, channel=7, data=[65, 64]),
   midi.NoteOnEvent(tick=480, channel=7, data=[65, 0]),
   midi.NoteOnEvent(tick=0, channel=7, data=[60, 64]),
   midi.NoteOnEvent(tick=240, channel=7, data=[60, 0]),
   midi.NoteOnEvent(tick=0, channel=7, data=[62, 64]),
   midi.NoteOnEvent(tick=240, channel=7, data=[60, 0]),
   midi.NoteOnEvent(tick=0, channel=7, data=[58, 64]),
   midi.NoteOnEvent(tick=120, channel=7, data=[58, 0]),
   midi.NoteOnEvent(tick=0, channel=7, data=[60, 64]),
   midi.NoteOnEvent(tick=120, channel=7, data=[60, 0]),
   midi.NoteOnEvent(tick=0, channel=7, data=[57, 64]),
   midi.NoteOnEvent(tick=80, channel=7, data=[57, 0]),
   midi.NoteOnEvent(tick=0, channel=7, data=[58, 64]),
   midi.NoteOnEvent(tick=80, channel=7, data=[58, 0]),
   midi.NoteOnEvent(tick=0, channel=7, data=[55, 64]),
   midi.NoteOnEvent(tick=80, channel=7, data=[55, 0]),
   midi.NoteOnEvent(tick=0, channel=7, data=[62, 0]),
   midi.NoteOnEvent(tick=0, channel=7, data=[65, 0]),
   midi.NoteOnEvent(tick=0, channel=7, data=[58, 64]),
   midi.NoteOnEvent(tick=0, channel=7, data=[63, 64]),
   midi.NoteOnEvent(tick=0, channel=7, data=[63, 64]),
   midi.NoteOnEvent(tick=480, channel=7, data=[63, 0]),
   midi.NoteOnEvent(tick=0, channel=7, data=[58, 64]),
   midi.NoteOnEvent(tick=240, channel=7, data=[58, 0]),
   midi.NoteOnEvent(tick=0, channel=7, data=[63, 0]),
   midi.NoteOnEvent(tick=0, channel=7, data=[60, 64]),
   midi.NoteOnEvent(tick=0, channel=7, data=[63, 64]),
   midi.NoteOnEvent(tick=240, channel=7, data=[58, 0]),
   midi.NoteOnEvent(tick=0, channel=7, data=[57, 64]),
   midi.NoteOnEvent(tick=120, channel=7, data=[57, 0]),
   midi.NoteOnEvent(tick=0, channel=7, data=[58, 64]),
   midi.NoteOnEvent(tick=120, channel=7, data=[58, 0]),
   midi.NoteOnEvent(tick=0, channel=7, data=[60, 64]),
   midi.NoteOnEvent(tick=80, channel=7, data=[60, 0]),
   midi.NoteOnEvent(tick=0, channel=7, data=[58, 64]),
   midi.NoteOnEvent(tick=80, channel=7, data=[58, 0]),
   midi.NoteOnEvent(tick=0, channel=7, data=[57, 64]),
   midi.NoteOnEvent(tick=80, channel=7, data=[63, 0]),
   midi.NoteOnEvent(tick=0, channel=7, data=[60, 0]),
   midi.NoteOnEvent(tick=0, channel=7, data=[62, 64]),
   midi.NoteOnEvent(tick=240, channel=7, data=[57, 0]),
   midi.NoteOnEvent(tick=0, channel=7, data=[55, 64]),
   midi.NoteOnEvent(tick=120, channel=7, data=[55, 0]),
   midi.NoteOnEvent(tick=0, channel=7, data=[66, 64]),
   midi.NoteOnEvent(tick=120, channel=7, data=[66, 0]),
   midi.NoteOnEvent(tick=0, channel=7, data=[62, 0]),
   midi.NoteOnEvent(tick=0, channel=7, data=[63, 64]),
   midi.NoteOnEvent(tick=0, channel=7, data=[67, 64]),
   midi.NoteOnEvent(tick=120, channel=7, data=[67, 0]),
   midi.NoteOnEvent(tick=0, channel=7, data=[69, 64]),
   midi.NoteOnEvent(tick=120, channel=7, data=[69, 0]),
   midi.NoteOnEvent(tick=0, channel=7, data=[63, 0]),
   midi.NoteOnEvent(tick=0, channel=7, data=[67, 64]),
   midi.NoteOnEvent(tick=2160, channel=7, data=[67, 0]),
   midi.NoteOnEvent(tick=0, channel=7, data=[77, 64]),
   midi.NoteOnEvent(tick=0, channel=7, data=[68, 64]),
   midi.NoteOnEvent(tick=0, channel=7, data=[74, 64]),
   midi.NoteOnEvent(tick=480, channel=7, data=[77, 0]),
   midi.NoteOnEvent(tick=0, channel=7, data=[77, 64]),
   midi.NoteOnEvent(tick=30, channel=7, data=[77, 0]),
   midi.NoteOnEvent(tick=0, channel=7, data=[79, 64]),
   midi.NoteOnEvent(tick=30, channel=7, data=[79, 0]),
   midi.NoteOnEvent(tick=0, channel=7, data=[80, 64]),
   midi.NoteOnEvent(tick=120, channel=7, data=[80, 0]),
   midi.NoteOnEvent(tick=0, channel=7, data=[79, 64]),
   midi.NoteOnEvent(tick=30, channel=7, data=[79, 0]),
   midi.NoteOnEvent(tick=0, channel=7, data=[77, 64]),
   midi.NoteOnEvent(tick=30, channel=7, data=[77, 0]),
   midi.NoteOnEvent(tick=0, channel=7, data=[74, 0]),
   midi.NoteOnEvent(tick=0, channel=7, data=[68, 0]),
   midi.NoteOnEvent(tick=0, channel=7, data=[67, 64]),
   midi.NoteOnEvent(tick=0, channel=7, data=[72, 64]),
   midi.NoteOnEvent(tick=0, channel=7, data=[75, 64]),
   midi.NoteOnEvent(tick=720, channel=7, data=[75, 0]),
   midi.NoteOnEvent(tick=0, channel=7, data=[72, 0]),
   midi.NoteOnEvent(tick=0, channel=7, data=[67, 0]),
   midi.NoteOnEvent(tick=0, channel=7, data=[67, 64]),
   midi.NoteOnEvent(tick=0, channel=7, data=[74, 64]),
   midi.NoteOnEvent(tick=720, channel=7, data=[74, 0]),
   midi.NoteOnEvent(tick=0, channel=7, data=[67, 0]),
   midi.NoteOnEvent(tick=0, channel=7, data=[72, 64]),
   midi.NoteOnEvent(tick=0, channel=7, data=[68, 64]),
   midi.NoteOnEvent(tick=480, channel=7, data=[72, 0]),
   midi.NoteOnEvent(tick=0, channel=7, data=[72, 64]),
   midi.NoteOnEvent(tick=30, channel=7, data=[72, 0]),
   midi.NoteOnEvent(tick=0, channel=7, data=[74, 64]),
   midi.NoteOnEvent(tick=30, channel=7, data=[74, 0]),
   midi.NoteOnEvent(tick=0, channel=7, data=[75, 64]),
   midi.NoteOnEvent(tick=120, channel=7, data=[75, 0]),
   midi.NoteOnEvent(tick=0, channel=7, data=[74, 64]),
   midi.NoteOnEvent(tick=30, channel=7, data=[74, 0]),
   midi.NoteOnEvent(tick=0, channel=7, data=[72, 64]),
   midi.NoteOnEvent(tick=30, channel=7, data=[72, 0]),
   midi.NoteOnEvent(tick=0, channel=7, data=[68, 0]),
   midi.NoteOnEvent(tick=0, channel=7, data=[70, 64]),
   midi.NoteOnEvent(tick=0, channel=7, data=[67, 64]),
   midi.NoteOnEvent(tick=480, channel=7, data=[70, 0]),
   midi.NoteOnEvent(tick=0, channel=7, data=[70, 64]),
   midi.NoteOnEvent(tick=30, channel=7, data=[70, 0]),
   midi.NoteOnEvent(tick=0, channel=7, data=[72, 64]),
   midi.NoteOnEvent(tick=30, channel=7, data=[72, 0]),
   midi.NoteOnEvent(tick=0, channel=7, data=[74, 64]),
   midi.NoteOnEvent(tick=120, channel=7, data=[74, 0]),
   midi.NoteOnEvent(tick=0, channel=7, data=[72, 64]),
   midi.NoteOnEvent(tick=30, channel=7, data=[72, 0]),
   midi.NoteOnEvent(tick=0, channel=7, data=[70, 64]),
   midi.NoteOnEvent(tick=30, channel=7, data=[70, 0]),
   midi.NoteOnEvent(tick=0, channel=7, data=[67, 0]),
   midi.NoteOnEvent(tick=0, channel=7, data=[69, 64]),
   midi.NoteOnEvent(tick=0, channel=7, data=[66, 64]),
   midi.NoteOnEvent(tick=480, channel=7, data=[69, 0]),
   midi.NoteOnEvent(tick=0, channel=7, data=[69, 64]),
   midi.NoteOnEvent(tick=30, channel=7, data=[69, 0]),
   midi.NoteOnEvent(tick=0, channel=7, data=[70, 64]),
   midi.NoteOnEvent(tick=30, channel=7, data=[70, 0]),
   midi.NoteOnEvent(tick=0, channel=7, data=[72, 64]),
   midi.NoteOnEvent(tick=120, channel=7, data=[72, 0]),
   midi.NoteOnEvent(tick=0, channel=7, data=[70, 64]),
   midi.NoteOnEvent(tick=30, channel=7, data=[70, 0]),
   midi.NoteOnEvent(tick=0, channel=7, data=[69, 64]),
   midi.NoteOnEvent(tick=30, channel=7, data=[69, 0]),
   midi.NoteOnEvent(tick=0, channel=7, data=[66, 0]),
   midi.NoteOnEvent(tick=0, channel=7, data=[67, 64]),
   midi.NoteOnEvent(tick=0, channel=7, data=[62, 64]),
   midi.NoteOnEvent(tick=0, channel=7, data=[58, 64]),
   midi.NoteOnEvent(tick=1440, channel=7, data=[58, 0]),
   midi.NoteOnEvent(tick=0, channel=7, data=[62, 0]),
   midi.NoteOnEvent(tick=0, channel=7, data=[67, 0]),
   midi.NoteOnEvent(tick=0, channel=7, data=[67, 80]),
   midi.NoteOnEvent(tick=0, channel=7, data=[63, 80]),
   midi.NoteOnEvent(tick=0, channel=7, data=[58, 80]),
   midi.NoteOnEvent(tick=0, channel=7, data=[67, 80]),
   midi.NoteOnEvent(tick=30, channel=7, data=[67, 0]),
   midi.NoteOnEvent(tick=0, channel=7, data=[69, 80]),
   midi.NoteOnEvent(tick=30, channel=7, data=[69, 0]),
   midi.NoteOnEvent(tick=0, channel=7, data=[70, 80]),
   midi.NoteOnEvent(tick=540, channel=7, data=[70, 0]),
   midi.NoteOnEvent(tick=0, channel=7, data=[67, 80]),
   midi.NoteOnEvent(tick=120, channel=7, data=[67, 0]),
   midi.NoteOnEvent(tick=720, channel=7, data=[58, 0]),
   midi.NoteOnEvent(tick=0, channel=7, data=[63, 0]),
   midi.NoteOnEvent(tick=0, channel=7, data=[67, 0]),
   midi.NoteOnEvent(tick=0, channel=7, data=[63, 80]),
   midi.NoteOnEvent(tick=0, channel=7, data=[60, 80]),
   midi.NoteOnEvent(tick=0, channel=7, data=[69, 80]),
   midi.NoteOnEvent(tick=30, channel=7, data=[69, 0]),
   midi.NoteOnEvent(tick=0, channel=7, data=[70, 80]),
   midi.NoteOnEvent(tick=30, channel=7, data=[70, 0]),
   midi.NoteOnEvent(tick=0, channel=7, data=[72, 80]),
   midi.NoteOnEvent(tick=660, channel=7, data=[72, 0]),
   midi.NoteOnEvent(tick=0, channel=7, data=[60, 0]),
   midi.NoteOnEvent(tick=0, channel=7, data=[63, 0]),
   midi.NoteOnEvent(tick=0, channel=7, data=[67, 80]),
   midi.NoteOnEvent(tick=0, channel=7, data=[64, 80]),
   midi.NoteOnEvent(tick=0, channel=7, data=[70, 80]),
   midi.NoteOnEvent(tick=30, channel=7, data=[70, 0]),
   midi.NoteOnEvent(tick=0, channel=7, data=[69, 80]),
   midi.NoteOnEvent(tick=30, channel=7, data=[69, 0]),
   midi.NoteOnEvent(tick=0, channel=7, data=[70, 80]),
   midi.NoteOnEvent(tick=660, channel=7, data=[70, 0]),
   midi.NoteOnEvent(tick=0, channel=7, data=[64, 0]),
   midi.NoteOnEvent(tick=0, channel=7, data=[67, 0]),
   midi.NoteOnEvent(tick=0, channel=7, data=[67, 80]),
   midi.NoteOnEvent(tick=0, channel=7, data=[62, 80]),
   midi.NoteOnEvent(tick=0, channel=7, data=[69, 80]),
   midi.NoteOnEvent(tick=30, channel=7, data=[69, 0]),
   midi.NoteOnEvent(tick=0, channel=7, data=[67, 80]),
   midi.NoteOnEvent(tick=30, channel=7, data=[67, 0]),
   midi.NoteOnEvent(tick=0, channel=7, data=[69, 80]),
   midi.NoteOnEvent(tick=420, channel=7, data=[62, 0]),
   midi.NoteOnEvent(tick=0, channel=7, data=[67, 0]),
   midi.NoteOnEvent(tick=0, channel=7, data=[66, 80]),
   midi.NoteOnEvent(tick=0, channel=7, data=[60, 80]),
   midi.NoteOnEvent(tick=80, channel=7, data=[69, 0]),
   midi.NoteOnEvent(tick=0, channel=7, data=[67, 80]),
   midi.NoteOnEvent(tick=80, channel=7, data=[67, 0]),
   midi.NoteOnEvent(tick=0, channel=7, data=[66, 80]),
   midi.NoteOnEvent(tick=80, channel=7, data=[66, 0]),
   midi.NoteOnEvent(tick=0, channel=7, data=[60, 0]),
   midi.NoteOnEvent(tick=0, channel=7, data=[66, 0]),
   midi.NoteOnEvent(tick=0, channel=7, data=[67, 64]),
   midi.NoteOnEvent(tick=0, channel=7, data=[62, 64]),
   midi.NoteOnEvent(tick=0, channel=7, data=[58, 64]),
   midi.NoteOnEvent(tick=1440, channel=7, data=[58, 0]),
   midi.NoteOnEvent(tick=0, channel=7, data=[62, 0]),
   midi.NoteOnEvent(tick=0, channel=7, data=[67, 0]),
   midi.NoteOnEvent(tick=0, channel=7, data=[60, 64]),
   midi.NoteOnEvent(tick=0, channel=7, data=[60, 64]),
   midi.NoteOnEvent(tick=180, channel=7, data=[60, 0]),
   midi.NoteOnEvent(tick=0, channel=7, data=[62, 64]),
   midi.NoteOnEvent(tick=60, channel=7, data=[62, 0]),
   midi.NoteOnEvent(tick=0, channel=7, data=[63, 64]),
   midi.NoteOnEvent(tick=180, channel=7, data=[63, 0]),
   midi.NoteOnEvent(tick=0, channel=7, data=[62, 64]),
   midi.NoteOnEvent(tick=60, channel=7, data=[62, 0]),
   midi.NoteOnEvent(tick=0, channel=7, data=[63, 64]),
   midi.NoteOnEvent(tick=180, channel=7, data=[63, 0]),
   midi.NoteOnEvent(tick=0, channel=7, data=[60, 64]),
   midi.NoteOnEvent(tick=60, channel=7, data=[60, 0]),
   midi.NoteOnEvent(tick=0, channel=7, data=[66, 64]),
   midi.NoteOnEvent(tick=720, channel=7, data=[66, 0]),
   midi.NoteOnEvent(tick=0, channel=7, data=[60, 0]),
   midi.NoteOnEvent(tick=0, channel=7, data=[62, 64]),
   midi.NoteOnEvent(tick=0, channel=7, data=[62, 64]),
   midi.NoteOnEvent(tick=180, channel=7, data=[62, 0]),
   midi.NoteOnEvent(tick=0, channel=7, data=[64, 64]),
   midi.NoteOnEvent(tick=60, channel=7, data=[64, 0]),
   midi.NoteOnEvent(tick=0, channel=7, data=[66, 64]),
   midi.NoteOnEvent(tick=180, channel=7, data=[66, 0]),
   midi.NoteOnEvent(tick=0, channel=7, data=[62, 64]),
   midi.NoteOnEvent(tick=60, channel=7, data=[62, 0]),
   midi.NoteOnEvent(tick=0, channel=7, data=[67, 64]),
   midi.NoteOnEvent(tick=240, channel=7, data=[67, 0]),
   midi.NoteOnEvent(tick=0, channel=7, data=[67, 64]),
   midi.NoteOnEvent(tick=0, channel=7, data=[67, 64]),
   midi.NoteOnEvent(tick=480, channel=7, data=[67, 0]),
   midi.NoteOnEvent(tick=0, channel=7, data=[62, 64]),
   midi.NoteOnEvent(tick=240, channel=7, data=[62, 0]),
   midi.NoteOnEvent(tick=0, channel=7, data=[67, 0]),
   midi.NoteOnEvent(tick=0, channel=7, data=[67, 64]),
   midi.NoteOnEvent(tick=0, channel=7, data=[63, 64]),
   midi.NoteOnEvent(tick=240, channel=7, data=[62, 0]),
   midi.NoteOnEvent(tick=0, channel=7, data=[60, 64]),
   midi.NoteOnEvent(tick=120, channel=7, data=[60, 0]),
   midi.NoteOnEvent(tick=0, channel=7, data=[62, 64]),
   midi.NoteOnEvent(tick=120, channel=7, data=[62, 0]),
   midi.NoteOnEvent(tick=0, channel=7, data=[58, 64]),
   midi.NoteOnEvent(tick=80, channel=7, data=[58, 0]),
   midi.NoteOnEvent(tick=0, channel=7, data=[60, 64]),
   midi.NoteOnEvent(tick=80, channel=7, data=[60, 0]),
   midi.NoteOnEvent(tick=0, channel=7, data=[57, 64]),
   midi.NoteOnEvent(tick=80, channel=7, data=[57, 0]),
   midi.NoteOnEvent(tick=0, channel=7, data=[63, 0]),
   midi.NoteOnEvent(tick=0, channel=7, data=[67, 0]),
   midi.NoteOnEvent(tick=0, channel=7, data=[65, 64]),
   midi.NoteOnEvent(tick=0, channel=7, data=[65, 64]),
   midi.NoteOnEvent(tick=0, channel=7, data=[60, 64]),
   midi.NoteOnEvent(tick=480, channel=7, data=[65, 0]),
   midi.NoteOnEvent(tick=0, channel=7, data=[60, 64]),
   midi.NoteOnEvent(tick=240, channel=7, data=[60, 0]),
   midi.NoteOnEvent(tick=0, channel=7, data=[62, 64]),
   midi.NoteOnEvent(tick=240, channel=7, data=[60, 0]),
   midi.NoteOnEvent(tick=0, channel=7, data=[58, 64]),
   midi.NoteOnEvent(tick=120, channel=7, data=[58, 0]),
   midi.NoteOnEvent(tick=0, channel=7, data=[60, 64]),
   midi.NoteOnEvent(tick=120, channel=7, data=[60, 0]),
   midi.NoteOnEvent(tick=0, channel=7, data=[57, 64]),
   midi.NoteOnEvent(tick=80, channel=7, data=[57, 0]),
   midi.NoteOnEvent(tick=0, channel=7, data=[58, 64]),
   midi.NoteOnEvent(tick=80, channel=7, data=[58, 0]),
   midi.NoteOnEvent(tick=0, channel=7, data=[55, 64]),
   midi.NoteOnEvent(tick=80, channel=7, data=[55, 0]),
   midi.NoteOnEvent(tick=0, channel=7, data=[62, 0]),
   midi.NoteOnEvent(tick=0, channel=7, data=[65, 0]),
   midi.NoteOnEvent(tick=0, channel=7, data=[63, 64]),
   midi.NoteOnEvent(tick=0, channel=7, data=[63, 64]),
   midi.NoteOnEvent(tick=0, channel=7, data=[58, 64]),
   midi.NoteOnEvent(tick=480, channel=7, data=[63, 0]),
   midi.NoteOnEvent(tick=0, channel=7, data=[58, 64]),
   midi.NoteOnEvent(tick=240, channel=7, data=[58, 0]),
   midi.NoteOnEvent(tick=0, channel=7, data=[63, 0]),
   midi.NoteOnEvent(tick=0, channel=7, data=[63, 64]),
   midi.NoteOnEvent(tick=0, channel=7, data=[60, 64]),
   midi.NoteOnEvent(tick=240, channel=7, data=[58, 0]),
   midi.NoteOnEvent(tick=0, channel=7, data=[57, 64]),
   midi.NoteOnEvent(tick=120, channel=7, data=[57, 0]),
   midi.NoteOnEvent(tick=0, channel=7, data=[58, 64]),
   midi.NoteOnEvent(tick=120, channel=7, data=[58, 0]),
   midi.NoteOnEvent(tick=0, channel=7, data=[60, 64]),
   midi.NoteOnEvent(tick=80, channel=7, data=[60, 0]),
   midi.NoteOnEvent(tick=0, channel=7, data=[58, 64]),
   midi.NoteOnEvent(tick=80, channel=7, data=[58, 0]),
   midi.NoteOnEvent(tick=0, channel=7, data=[57, 64]),
   midi.NoteOnEvent(tick=80, channel=7, data=[60, 0]),
   midi.NoteOnEvent(tick=0, channel=7, data=[63, 0]),
   midi.NoteOnEvent(tick=0, channel=7, data=[62, 64]),
   midi.NoteOnEvent(tick=240, channel=7, data=[57, 0]),
   midi.NoteOnEvent(tick=0, channel=7, data=[55, 64]),
   midi.NoteOnEvent(tick=120, channel=7, data=[55, 0]),
   midi.NoteOnEvent(tick=0, channel=7, data=[66, 64]),
   midi.NoteOnEvent(tick=120, channel=7, data=[66, 0]),
   midi.NoteOnEvent(tick=0, channel=7, data=[62, 0]),
   midi.NoteOnEvent(tick=0, channel=7, data=[67, 64]),
   midi.NoteOnEvent(tick=0, channel=7, data=[63, 64]),
   midi.NoteOnEvent(tick=120, channel=7, data=[67, 0]),
   midi.NoteOnEvent(tick=0, channel=7, data=[69, 64]),
   midi.NoteOnEvent(tick=120, channel=7, data=[69, 0]),
   midi.NoteOnEvent(tick=0, channel=7, data=[63, 0]),
   midi.NoteOnEvent(tick=0, channel=7, data=[67, 64]),
   midi.NoteOnEvent(tick=2160, channel=7, data=[67, 0]),
   midi.NoteOnEvent(tick=0, channel=7, data=[74, 64]),
   midi.NoteOnEvent(tick=0, channel=7, data=[68, 64]),
   midi.NoteOnEvent(tick=0, channel=7, data=[77, 64]),
   midi.NoteOnEvent(tick=480, channel=7, data=[77, 0]),
   midi.NoteOnEvent(tick=0, channel=7, data=[77, 64]),
   midi.NoteOnEvent(tick=30, channel=7, data=[77, 0]),
   midi.NoteOnEvent(tick=0, channel=7, data=[79, 64]),
   midi.NoteOnEvent(tick=30, channel=7, data=[79, 0]),
   midi.NoteOnEvent(tick=0, channel=7, data=[80, 64]),
   midi.NoteOnEvent(tick=120, channel=7, data=[80, 0]),
   midi.NoteOnEvent(tick=0, channel=7, data=[79, 64]),
   midi.NoteOnEvent(tick=30, channel=7, data=[79, 0]),
   midi.NoteOnEvent(tick=0, channel=7, data=[77, 64]),
   midi.NoteOnEvent(tick=30, channel=7, data=[77, 0]),
   midi.NoteOnEvent(tick=0, channel=7, data=[68, 0]),
   midi.NoteOnEvent(tick=0, channel=7, data=[74, 0]),
   midi.NoteOnEvent(tick=0, channel=7, data=[75, 64]),
   midi.NoteOnEvent(tick=0, channel=7, data=[72, 64]),
   midi.NoteOnEvent(tick=0, channel=7, data=[67, 64]),
   midi.NoteOnEvent(tick=720, channel=7, data=[67, 0]),
   midi.NoteOnEvent(tick=0, channel=7, data=[72, 0]),
   midi.NoteOnEvent(tick=0, channel=7, data=[75, 0]),
   midi.NoteOnEvent(tick=0, channel=7, data=[74, 64]),
   midi.NoteOnEvent(tick=0, channel=7, data=[67, 64]),
   midi.NoteOnEvent(tick=720, channel=7, data=[67, 0]),
   midi.NoteOnEvent(tick=0, channel=7, data=[74, 0]),
   midi.NoteOnEvent(tick=0, channel=7, data=[68, 64]),
   midi.NoteOnEvent(tick=0, channel=7, data=[72, 64]),
   midi.NoteOnEvent(tick=480, channel=7, data=[72, 0]),
   midi.NoteOnEvent(tick=0, channel=7, data=[72, 64]),
   midi.NoteOnEvent(tick=30, channel=7, data=[72, 0]),
   midi.NoteOnEvent(tick=0, channel=7, data=[74, 64]),
   midi.NoteOnEvent(tick=30, channel=7, data=[74, 0]),
   midi.NoteOnEvent(tick=0, channel=7, data=[75, 64]),
   midi.NoteOnEvent(tick=120, channel=7, data=[75, 0]),
   midi.NoteOnEvent(tick=0, channel=7, data=[74, 64]),
   midi.NoteOnEvent(tick=30, channel=7, data=[74, 0]),
   midi.NoteOnEvent(tick=0, channel=7, data=[72, 64]),
   midi.NoteOnEvent(tick=30, channel=7, data=[72, 0]),
   midi.NoteOnEvent(tick=0, channel=7, data=[68, 0]),
   midi.NoteOnEvent(tick=0, channel=7, data=[67, 64]),
   midi.NoteOnEvent(tick=0, channel=7, data=[70, 64]),
   midi.NoteOnEvent(tick=480, channel=7, data=[70, 0]),
   midi.NoteOnEvent(tick=0, channel=7, data=[70, 64]),
   midi.NoteOnEvent(tick=30, channel=7, data=[70, 0]),
   midi.NoteOnEvent(tick=0, channel=7, data=[72, 64]),
   midi.NoteOnEvent(tick=30, channel=7, data=[72, 0]),
   midi.NoteOnEvent(tick=0, channel=7, data=[74, 64]),
   midi.NoteOnEvent(tick=120, channel=7, data=[74, 0]),
   midi.NoteOnEvent(tick=0, channel=7, data=[72, 64]),
   midi.NoteOnEvent(tick=30, channel=7, data=[72, 0]),
   midi.NoteOnEvent(tick=0, channel=7, data=[70, 64]),
   midi.NoteOnEvent(tick=30, channel=7, data=[70, 0]),
   midi.NoteOnEvent(tick=0, channel=7, data=[67, 0]),
   midi.NoteOnEvent(tick=0, channel=7, data=[66, 64]),
   midi.NoteOnEvent(tick=0, channel=7, data=[69, 64]),
   midi.NoteOnEvent(tick=480, channel=7, data=[69, 0]),
   midi.NoteOnEvent(tick=0, channel=7, data=[69, 64]),
   midi.NoteOnEvent(tick=30, channel=7, data=[69, 0]),
   midi.NoteOnEvent(tick=0, channel=7, data=[70, 64]),
   midi.NoteOnEvent(tick=30, channel=7, data=[70, 0]),
   midi.NoteOnEvent(tick=0, channel=7, data=[72, 64]),
   midi.NoteOnEvent(tick=120, channel=7, data=[72, 0]),
   midi.NoteOnEvent(tick=0, channel=7, data=[70, 64]),
   midi.NoteOnEvent(tick=30, channel=7, data=[70, 0]),
   midi.NoteOnEvent(tick=0, channel=7, data=[69, 64]),
   midi.NoteOnEvent(tick=30, channel=7, data=[69, 0]),
   midi.NoteOnEvent(tick=0, channel=7, data=[66, 0]),
   midi.NoteOnEvent(tick=0, channel=7, data=[59, 38]),
   midi.NoteOnEvent(tick=0, channel=7, data=[62, 38]),
   midi.NoteOnEvent(tick=0, channel=7, data=[67, 38]),
   midi.NoteOnEvent(tick=2820, channel=7, data=[67, 0]),
   midi.NoteOnEvent(tick=0, channel=7, data=[62, 0]),
   midi.NoteOnEvent(tick=0, channel=7, data=[59, 0]),
   midi.NoteOnEvent(tick=0, channel=7, data=[59, 38]),
   midi.NoteOnEvent(tick=0, channel=7, data=[62, 38]),
   midi.NoteOnEvent(tick=0, channel=7, data=[67, 38]),
   midi.NoteOnEvent(tick=60, channel=7, data=[67, 0]),
   midi.NoteOnEvent(tick=0, channel=7, data=[62, 0]),
   midi.NoteOnEvent(tick=0, channel=7, data=[59, 0]),
   midi.NoteOnEvent(tick=0, channel=7, data=[60, 51]),
   midi.NoteOnEvent(tick=0, channel=7, data=[67, 51]),
   midi.NoteOnEvent(tick=4260, channel=7, data=[67, 0]),
   midi.NoteOnEvent(tick=0, channel=7, data=[60, 0]),
   midi.NoteOnEvent(tick=0, channel=7, data=[55, 51]),
   midi.NoteOnEvent(tick=0, channel=7, data=[60, 51]),
   midi.NoteOnEvent(tick=60, channel=7, data=[60, 0]),
   midi.NoteOnEvent(tick=0, channel=7, data=[55, 0]),
   midi.NoteOnEvent(tick=0, channel=7, data=[58, 51]),
   midi.NoteOnEvent(tick=0, channel=7, data=[60, 51]),
   midi.NoteOnEvent(tick=2100, channel=7, data=[60, 0]),
   midi.NoteOnEvent(tick=0, channel=7, data=[58, 0]),
   midi.NoteOnEvent(tick=0, channel=7, data=[58, 51]),
   midi.NoteOnEvent(tick=0, channel=7, data=[60, 51]),
   midi.NoteOnEvent(tick=60, channel=7, data=[60, 0]),
   midi.NoteOnEvent(tick=0, channel=7, data=[58, 0]),
   midi.NoteOnEvent(tick=0, channel=7, data=[56, 51]),
   midi.NoteOnEvent(tick=0, channel=7, data=[60, 51]),
   midi.NoteOnEvent(tick=0, channel=7, data=[65, 51]),
   midi.NoteOnEvent(tick=4260, channel=7, data=[65, 0]),
   midi.NoteOnEvent(tick=0, channel=7, data=[60, 0]),
   midi.NoteOnEvent(tick=0, channel=7, data=[56, 0]),
   midi.NoteOnEvent(tick=0, channel=7, data=[56, 61]),
   midi.NoteOnEvent(tick=0, channel=7, data=[60, 61]),
   midi.NoteOnEvent(tick=0, channel=7, data=[65, 61]),
   midi.NoteOnEvent(tick=60, channel=7, data=[65, 0]),
   midi.NoteOnEvent(tick=0, channel=7, data=[60, 0]),
   midi.NoteOnEvent(tick=0, channel=7, data=[56, 0]),
   midi.NoteOnEvent(tick=0, channel=7, data=[57, 64]),
   midi.NoteOnEvent(tick=0, channel=7, data=[60, 64]),
   midi.NoteOnEvent(tick=0, channel=7, data=[66, 64]),
   midi.NoteOnEvent(tick=1440, channel=7, data=[66, 0]),
   midi.NoteOnEvent(tick=0, channel=7, data=[60, 0]),
   midi.NoteOnEvent(tick=0, channel=7, data=[57, 0]),
   midi.NoteOnEvent(tick=0, channel=7, data=[59, 64]),
   midi.NoteOnEvent(tick=0, channel=7, data=[65, 64]),
   midi.NoteOnEvent(tick=720, channel=7, data=[65, 0]),
   midi.NoteOnEvent(tick=0, channel=7, data=[59, 0]),
   midi.NoteOnEvent(tick=0, channel=7, data=[60, 64]),
   midi.NoteOnEvent(tick=0, channel=7, data=[63, 64]),
   midi.NoteOnEvent(tick=720, channel=7, data=[63, 0]),
   midi.NoteOnEvent(tick=0, channel=7, data=[60, 0]),
   midi.NoteOnEvent(tick=0, channel=7, data=[63, 64]),
   midi.NoteOnEvent(tick=0, channel=7, data=[67, 64]),
   midi.NoteOnEvent(tick=0, channel=7, data=[72, 64]),
   midi.NoteOnEvent(tick=1440, channel=7, data=[72, 0]),
   midi.NoteOnEvent(tick=0, channel=7, data=[67, 0]),
   midi.NoteOnEvent(tick=0, channel=7, data=[63, 0]),
   midi.NoteOnEvent(tick=0, channel=7, data=[72, 64]),
   midi.NoteOnEvent(tick=0, channel=7, data=[63, 64]),
   midi.NoteOnEvent(tick=0, channel=7, data=[68, 64]),
   midi.NoteOnEvent(tick=0, channel=7, data=[72, 64]),
   midi.NoteOnEvent(tick=30, channel=7, data=[72, 0]),
   midi.NoteOnEvent(tick=0, channel=7, data=[74, 64]),
   midi.NoteOnEvent(tick=30, channel=7, data=[74, 0]),
   midi.NoteOnEvent(tick=0, channel=7, data=[75, 64]),
   midi.NoteOnEvent(tick=540, channel=7, data=[75, 0]),
   midi.NoteOnEvent(tick=0, channel=7, data=[72, 64]),
   midi.NoteOnEvent(tick=120, channel=7, data=[72, 0]),
   midi.NoteOnEvent(tick=0, channel=7, data=[72, 64]),
   midi.NoteOnEvent(tick=720, channel=7, data=[72, 0]),
   midi.NoteOnEvent(tick=0, channel=7, data=[72, 0]),
   midi.NoteOnEvent(tick=0, channel=7, data=[63, 0]),
   midi.NoteOnEvent(tick=0, channel=7, data=[68, 0]),
   midi.NoteOnEvent(tick=0, channel=7, data=[74, 64]),
   midi.NoteOnEvent(tick=0, channel=7, data=[65, 64]),
   midi.NoteOnEvent(tick=0, channel=7, data=[68, 64]),
   midi.NoteOnEvent(tick=30, channel=7, data=[74, 0]),
   midi.NoteOnEvent(tick=0, channel=7, data=[75, 64]),
   midi.NoteOnEvent(tick=30, channel=7, data=[75, 0]),
   midi.NoteOnEvent(tick=0, channel=7, data=[77, 64]),
   midi.NoteOnEvent(tick=660, channel=7, data=[77, 0]),
   midi.NoteOnEvent(tick=0, channel=7, data=[68, 0]),
   midi.NoteOnEvent(tick=0, channel=7, data=[65, 0]),
   midi.NoteOnEvent(tick=0, channel=7, data=[69, 64]),
   midi.NoteOnEvent(tick=0, channel=7, data=[72, 64]),
   midi.NoteOnEvent(tick=0, channel=7, data=[75, 64]),
   midi.NoteOnEvent(tick=30, channel=7, data=[75, 0]),
   midi.NoteOnEvent(tick=0, channel=7, data=[74, 64]),
   midi.NoteOnEvent(tick=30, channel=7, data=[74, 0]),
   midi.NoteOnEvent(tick=0, channel=7, data=[75, 64]),
   midi.NoteOnEvent(tick=660, channel=7, data=[75, 0]),
   midi.NoteOnEvent(tick=0, channel=7, data=[72, 0]),
   midi.NoteOnEvent(tick=0, channel=7, data=[69, 0]),
   midi.NoteOnEvent(tick=0, channel=7, data=[67, 64]),
   midi.NoteOnEvent(tick=0, channel=7, data=[72, 64]),
   midi.NoteOnEvent(tick=0, channel=7, data=[74, 64]),
   midi.NoteOnEvent(tick=30, channel=7, data=[74, 0]),
   midi.NoteOnEvent(tick=0, channel=7, data=[72, 64]),
   midi.NoteOnEvent(tick=30, channel=7, data=[72, 0]),
   midi.NoteOnEvent(tick=0, channel=7, data=[74, 64]),
   midi.NoteOnEvent(tick=420, channel=7, data=[72, 0]),
   midi.NoteOnEvent(tick=0, channel=7, data=[67, 0]),
   midi.NoteOnEvent(tick=0, channel=7, data=[65, 64]),
   midi.NoteOnEvent(tick=0, channel=7, data=[71, 64]),
   midi.NoteOnEvent(tick=80, channel=7, data=[74, 0]),
   midi.NoteOnEvent(tick=0, channel=7, data=[72, 64]),
   midi.NoteOnEvent(tick=80, channel=7, data=[72, 0]),
   midi.NoteOnEvent(tick=0, channel=7, data=[71, 64]),
   midi.NoteOnEvent(tick=80, channel=7, data=[71, 0]),
   midi.NoteOnEvent(tick=0, channel=7, data=[71, 0]),
   midi.NoteOnEvent(tick=0, channel=7, data=[65, 0]),
   midi.NoteOnEvent(tick=0, channel=7, data=[63, 64]),
   midi.NoteOnEvent(tick=0, channel=7, data=[67, 64]),
   midi.NoteOnEvent(tick=0, channel=7, data=[72, 64]),
   midi.NoteOnEvent(tick=1440, channel=7, data=[72, 0]),
   midi.NoteOnEvent(tick=0, channel=7, data=[67, 0]),
   midi.NoteOnEvent(tick=0, channel=7, data=[63, 0]),
   midi.NoteOnEvent(tick=0, channel=7, data=[65, 64]),
   midi.NoteOnEvent(tick=0, channel=7, data=[65, 64]),
   midi.NoteOnEvent(tick=180, channel=7, data=[65, 0]),
   midi.NoteOnEvent(tick=0, channel=7, data=[67, 64]),
   midi.NoteOnEvent(tick=60, channel=7, data=[67, 0]),
   midi.NoteOnEvent(tick=0, channel=7, data=[68, 64]),
   midi.NoteOnEvent(tick=180, channel=7, data=[68, 0]),
   midi.NoteOnEvent(tick=0, channel=7, data=[67, 64]),
   midi.NoteOnEvent(tick=60, channel=7, data=[67, 0]),
   midi.NoteOnEvent(tick=0, channel=7, data=[68, 64]),
   midi.NoteOnEvent(tick=180, channel=7, data=[68, 0]),
   midi.NoteOnEvent(tick=0, channel=7, data=[65, 64]),
   midi.NoteOnEvent(tick=60, channel=7, data=[65, 0]),
   midi.NoteOnEvent(tick=0, channel=7, data=[65, 0]),
   midi.NoteOnEvent(tick=0, channel=7, data=[65, 64]),
   midi.NoteOnEvent(tick=0, channel=7, data=[71, 64]),
   midi.NoteOnEvent(tick=720, channel=7, data=[71, 0]),
   midi.NoteOnEvent(tick=0, channel=7, data=[65, 0]),
   midi.NoteOnEvent(tick=0, channel=7, data=[67, 64]),
   midi.NoteOnEvent(tick=0, channel=7, data=[67, 64]),
   midi.NoteOnEvent(tick=180, channel=7, data=[67, 0]),
   midi.NoteOnEvent(tick=0, channel=7, data=[69, 64]),
   midi.NoteOnEvent(tick=60, channel=7, data=[69, 0]),
   midi.NoteOnEvent(tick=0, channel=7, data=[71, 64]),
   midi.NoteOnEvent(tick=180, channel=7, data=[71, 0]),
   midi.NoteOnEvent(tick=0, channel=7, data=[67, 64]),
   midi.NoteOnEvent(tick=60, channel=7, data=[67, 0]),
   midi.NoteOnEvent(tick=0, channel=7, data=[72, 64]),
   midi.NoteOnEvent(tick=960, channel=7, data=[72, 0]),
   midi.NoteOnEvent(tick=0, channel=7, data=[67, 0]),
   midi.NoteOnEvent(tick=0, channel=7, data=[68, 64]),
   midi.NoteOnEvent(tick=0, channel=7, data=[72, 64]),
   midi.NoteOnEvent(tick=0, channel=7, data=[67, 64]),
   midi.NoteOnEvent(tick=240, channel=7, data=[67, 0]),
   midi.NoteOnEvent(tick=0, channel=7, data=[65, 64]),
   midi.NoteOnEvent(tick=120, channel=7, data=[65, 0]),
   midi.NoteOnEvent(tick=0, channel=7, data=[67, 64]),
   midi.NoteOnEvent(tick=120, channel=7, data=[67, 0]),
   midi.NoteOnEvent(tick=0, channel=7, data=[63, 64]),
   midi.NoteOnEvent(tick=80, channel=7, data=[63, 0]),
   midi.NoteOnEvent(tick=0, channel=7, data=[65, 64]),
   midi.NoteOnEvent(tick=80, channel=7, data=[65, 0]),
   midi.NoteOnEvent(tick=0, channel=7, data=[62, 64]),
   midi.NoteOnEvent(tick=80, channel=7, data=[62, 0]),
   midi.NoteOnEvent(tick=0, channel=7, data=[72, 0]),
   midi.NoteOnEvent(tick=0, channel=7, data=[68, 0]),
   midi.NoteOnEvent(tick=0, channel=7, data=[70, 64]),
   midi.NoteOnEvent(tick=0, channel=7, data=[65, 64]),
   midi.NoteOnEvent(tick=600, channel=7, data=[70, 0]),
   midi.NoteOnEvent(tick=0, channel=7, data=[70, 64]),
   midi.NoteOnEvent(tick=120, channel=7, data=[70, 0]),
   midi.NoteOnEvent(tick=0, channel=7, data=[65, 0]),
   midi.NoteOnEvent(tick=0, channel=7, data=[67, 64]),
   midi.NoteOnEvent(tick=0, channel=7, data=[70, 64]),
   midi.NoteOnEvent(tick=0, channel=7, data=[65, 64]),
   midi.NoteOnEvent(tick=240, channel=7, data=[65, 0]),
   midi.NoteOnEvent(tick=0, channel=7, data=[63, 64]),
   midi.NoteOnEvent(tick=120, channel=7, data=[63, 0]),
   midi.NoteOnEvent(tick=0, channel=7, data=[65, 64]),
   midi.NoteOnEvent(tick=120, channel=7, data=[65, 0]),
   midi.NoteOnEvent(tick=0, channel=7, data=[62, 64]),
   midi.NoteOnEvent(tick=80, channel=7, data=[62, 0]),
   midi.NoteOnEvent(tick=0, channel=7, data=[63, 64]),
   midi.NoteOnEvent(tick=80, channel=7, data=[63, 0]),
   midi.NoteOnEvent(tick=0, channel=7, data=[60, 64]),
   midi.NoteOnEvent(tick=80, channel=7, data=[60, 0]),
   midi.NoteOnEvent(tick=0, channel=7, data=[70, 0]),
   midi.NoteOnEvent(tick=0, channel=7, data=[67, 0]),
   midi.NoteOnEvent(tick=0, channel=7, data=[60, 64]),
   midi.NoteOnEvent(tick=0, channel=7, data=[63, 64]),
   midi.NoteOnEvent(tick=0, channel=7, data=[69, 64]),
   midi.NoteOnEvent(tick=720, channel=7, data=[69, 0]),
   midi.NoteOnEvent(tick=0, channel=7, data=[63, 0]),
   midi.NoteOnEvent(tick=0, channel=7, data=[60, 0]),
   midi.NoteOnEvent(tick=0, channel=7, data=[58, 64]),
   midi.NoteOnEvent(tick=0, channel=7, data=[65, 64]),
   midi.NoteOnEvent(tick=0, channel=7, data=[70, 64]),
   midi.NoteOnEvent(tick=720, channel=7, data=[70, 0]),
   midi.NoteOnEvent(tick=0, channel=7, data=[65, 0]),
   midi.NoteOnEvent(tick=0, channel=7, data=[58, 0]),
   midi.NoteOnEvent(tick=0, channel=7, data=[58, 64]),
   midi.NoteOnEvent(tick=0, channel=7, data=[67, 64]),
   midi.NoteOnEvent(tick=0, channel=7, data=[70, 64]),
   midi.NoteOnEvent(tick=720, channel=7, data=[70, 0]),
   midi.NoteOnEvent(tick=0, channel=7, data=[67, 0]),
   midi.NoteOnEvent(tick=0, channel=7, data=[58, 0]),
   midi.NoteOnEvent(tick=0, channel=7, data=[58, 64]),
   midi.NoteOnEvent(tick=0, channel=7, data=[65, 64]),
   midi.NoteOnEvent(tick=0, channel=7, data=[70, 64]),
   midi.NoteOnEvent(tick=720, channel=7, data=[70, 0]),
   midi.NoteOnEvent(tick=0, channel=7, data=[65, 0]),
   midi.NoteOnEvent(tick=0, channel=7, data=[58, 0]),
   midi.NoteOnEvent(tick=0, channel=7, data=[58, 64]),
   midi.NoteOnEvent(tick=0, channel=7, data=[67, 64]),
   midi.NoteOnEvent(tick=0, channel=7, data=[70, 64]),
   midi.NoteOnEvent(tick=720, channel=7, data=[70, 0]),
   midi.NoteOnEvent(tick=0, channel=7, data=[67, 0]),
   midi.NoteOnEvent(tick=0, channel=7, data=[58, 0]),
   midi.NoteOnEvent(tick=0, channel=7, data=[58, 64]),
   midi.NoteOnEvent(tick=0, channel=7, data=[65, 64]),
   midi.NoteOnEvent(tick=0, channel=7, data=[70, 64]),
   midi.NoteOnEvent(tick=2160, channel=7, data=[70, 0]),
   midi.NoteOnEvent(tick=0, channel=7, data=[65, 0]),
   midi.NoteOnEvent(tick=0, channel=7, data=[58, 0]),
   midi.NoteOnEvent(tick=0, channel=7, data=[55, 64]),
   midi.NoteOnEvent(tick=0, channel=7, data=[60, 64]),
   midi.NoteOnEvent(tick=0, channel=7, data=[67, 64]),
   midi.NoteOnEvent(tick=720, channel=7, data=[67, 0]),
   midi.NoteOnEvent(tick=0, channel=7, data=[60, 0]),
   midi.NoteOnEvent(tick=0, channel=7, data=[55, 0]),
   midi.NoteOnEvent(tick=0, channel=7, data=[58, 64]),
   midi.NoteOnEvent(tick=0, channel=7, data=[60, 64]),
   midi.NoteOnEvent(tick=0, channel=7, data=[65, 64]),
   midi.NoteOnEvent(tick=480, channel=7, data=[58, 0]),
   midi.NoteOnEvent(tick=0, channel=7, data=[56, 64]),
   midi.NoteOnEvent(tick=240, channel=7, data=[56, 0]),
   midi.NoteOnEvent(tick=0, channel=7, data=[65, 0]),
   midi.NoteOnEvent(tick=0, channel=7, data=[60, 0]),
   midi.NoteOnEvent(tick=0, channel=7, data=[58, 64]),
   midi.NoteOnEvent(tick=0, channel=7, data=[65, 64]),
   midi.NoteOnEvent(tick=720, channel=7, data=[65, 0]),
   midi.NoteOnEvent(tick=0, channel=7, data=[58, 0]),
   midi.NoteOnEvent(tick=0, channel=7, data=[58, 64]),
   midi.NoteOnEvent(tick=0, channel=7, data=[63, 64]),
   midi.NoteOnEvent(tick=720, channel=7, data=[63, 0]),
   midi.NoteOnEvent(tick=0, channel=7, data=[58, 0]),
   midi.NoteOnEvent(tick=4200, channel=7, data=[60, 64]),
   midi.NoteOnEvent(tick=0, channel=7, data=[67, 64]),
   midi.NoteOnEvent(tick=0, channel=7, data=[72, 64]),
   midi.NoteOnEvent(tick=120, channel=7, data=[72, 0]),
   midi.NoteOnEvent(tick=0, channel=7, data=[67, 0]),
   midi.NoteOnEvent(tick=0, channel=7, data=[60, 0]),
   midi.NoteOnEvent(tick=0, channel=7, data=[61, 80]),
   midi.NoteOnEvent(tick=0, channel=7, data=[68, 80]),
   midi.NoteOnEvent(tick=0, channel=7, data=[73, 80]),
   midi.NoteOnEvent(tick=720, channel=7, data=[73, 0]),
   midi.NoteOnEvent(tick=0, channel=7, data=[68, 0]),
   midi.NoteOnEvent(tick=0, channel=7, data=[61, 0]),
   midi.NoteOnEvent(tick=0, channel=7, data=[63, 80]),
   midi.NoteOnEvent(tick=0, channel=7, data=[67, 80]),
   midi.NoteOnEvent(tick=0, channel=7, data=[72, 80]),
   midi.NoteOnEvent(tick=480, channel=7, data=[72, 0]),
   midi.NoteOnEvent(tick=0, channel=7, data=[67, 0]),
   midi.NoteOnEvent(tick=0, channel=7, data=[63, 0]),
   midi.NoteOnEvent(tick=960, channel=7, data=[73, 80]),
   midi.NoteOnEvent(tick=0, channel=7, data=[76, 80]),
   midi.NoteOnEvent(tick=0, channel=7, data=[79, 80]),
   midi.NoteOnEvent(tick=0, channel=7, data=[82, 110]),
   midi.NoteOnEvent(tick=480, channel=7, data=[82, 0]),
   midi.NoteOnEvent(tick=0, channel=7, data=[73, 0]),
   midi.NoteOnEvent(tick=0, channel=7, data=[76, 0]),
   midi.NoteOnEvent(tick=0, channel=7, data=[79, 0]),
   midi.NoteOnEvent(tick=0, channel=7, data=[82, 110]),
   midi.NoteOnEvent(tick=30, channel=7, data=[82, 0]),
   midi.NoteOnEvent(tick=0, channel=7, data=[84, 110]),
   midi.NoteOnEvent(tick=30, channel=7, data=[84, 0]),
   midi.NoteOnEvent(tick=0, channel=7, data=[85, 110]),
   midi.NoteOnEvent(tick=120, channel=7, data=[85, 0]),
   midi.NoteOnEvent(tick=0, channel=7, data=[84, 110]),
   midi.NoteOnEvent(tick=30, channel=7, data=[84, 0]),
   midi.NoteOnEvent(tick=0, channel=7, data=[82, 110]),
   midi.NoteOnEvent(tick=30, channel=7, data=[82, 0]),
   midi.NoteOnEvent(tick=0, channel=7, data=[72, 80]),
   midi.NoteOnEvent(tick=0, channel=7, data=[77, 80]),
   midi.NoteOnEvent(tick=0, channel=7, data=[80, 80]),
   midi.NoteOnEvent(tick=480, channel=7, data=[80, 0]),
   midi.NoteOnEvent(tick=0, channel=7, data=[77, 0]),
   midi.NoteOnEvent(tick=0, channel=7, data=[72, 0]),
   midi.NoteOnEvent(tick=0, channel=7, data=[60, 80]),
   midi.NoteOnEvent(tick=0, channel=7, data=[65, 80]),
   midi.NoteOnEvent(tick=0, channel=7, data=[68, 80]),
   midi.NoteOnEvent(tick=240, channel=7, data=[68, 0]),
   midi.NoteOnEvent(tick=0, channel=7, data=[65, 0]),
   midi.NoteOnEvent(tick=0, channel=7, data=[60, 0]),
   midi.NoteOnEvent(tick=0, channel=7, data=[60, 80]),
   midi.NoteOnEvent(tick=0, channel=7, data=[63, 80]),
   midi.NoteOnEvent(tick=0, channel=7, data=[67, 80]),
   midi.NoteOnEvent(tick=480, channel=7, data=[67, 0]),
   midi.NoteOnEvent(tick=0, channel=7, data=[63, 0]),
   midi.NoteOnEvent(tick=0, channel=7, data=[60, 0]),
   midi.NoteOnEvent(tick=0, channel=7, data=[72, 80]),
   midi.NoteOnEvent(tick=0, channel=7, data=[75, 80]),
   midi.NoteOnEvent(tick=0, channel=7, data=[79, 80]),
   midi.NoteOnEvent(tick=240, channel=7, data=[79, 0]),
   midi.NoteOnEvent(tick=0, channel=7, data=[75, 0]),
   midi.NoteOnEvent(tick=0, channel=7, data=[72, 0]),
   midi.NoteOnEvent(tick=0, channel=7, data=[68, 110]),
   midi.NoteOnEvent(tick=0, channel=7, data=[73, 110]),
   midi.NoteOnEvent(tick=0, channel=7, data=[77, 110]),
   midi.NoteOnEvent(tick=480, channel=7, data=[77, 0]),
   midi.NoteOnEvent(tick=0, channel=7, data=[73, 0]),
   midi.NoteOnEvent(tick=0, channel=7, data=[68, 0]),
   midi.NoteOnEvent(tick=0, channel=7, data=[61, 110]),
   midi.NoteOnEvent(tick=0, channel=7, data=[77, 110]),
   midi.NoteOnEvent(tick=30, channel=7, data=[77, 0]),
   midi.NoteOnEvent(tick=0, channel=7, data=[61, 0]),
   midi.NoteOnEvent(tick=0, channel=7, data=[63, 110]),
   midi.NoteOnEvent(tick=0, channel=7, data=[79, 110]),
   midi.NoteOnEvent(tick=30, channel=7, data=[79, 0]),
   midi.NoteOnEvent(tick=0, channel=7, data=[63, 0]),
   midi.NoteOnEvent(tick=0, channel=7, data=[65, 110]),
   midi.NoteOnEvent(tick=0, channel=7, data=[80, 110]),
   midi.NoteOnEvent(tick=120, channel=7, data=[80, 0]),
   midi.NoteOnEvent(tick=0, channel=7, data=[65, 0]),
   midi.NoteOnEvent(tick=0, channel=7, data=[63, 110]),
   midi.NoteOnEvent(tick=0, channel=7, data=[79, 110]),
   midi.NoteOnEvent(tick=30, channel=7, data=[79, 0]),
   midi.NoteOnEvent(tick=0, channel=7, data=[63, 0]),
   midi.NoteOnEvent(tick=0, channel=7, data=[61, 110]),
   midi.NoteOnEvent(tick=0, channel=7, data=[77, 110]),
   midi.NoteOnEvent(tick=30, channel=7, data=[77, 0]),
   midi.NoteOnEvent(tick=0, channel=7, data=[61, 0]),
   midi.NoteOnEvent(tick=0, channel=7, data=[60, 110]),
   midi.NoteOnEvent(tick=0, channel=7, data=[63, 110]),
   midi.NoteOnEvent(tick=0, channel=7, data=[67, 110]),
   midi.NoteOnEvent(tick=0, channel=7, data=[75, 110]),
   midi.NoteOnEvent(tick=480, channel=7, data=[75, 0]),
   midi.NoteOnEvent(tick=0, channel=7, data=[60, 0]),
   midi.NoteOnEvent(tick=0, channel=7, data=[63, 0]),
   midi.NoteOnEvent(tick=0, channel=7, data=[67, 0]),
   midi.NoteOnEvent(tick=0, channel=7, data=[60, 110]),
   midi.NoteOnEvent(tick=0, channel=7, data=[75, 110]),
   midi.NoteOnEvent(tick=30, channel=7, data=[75, 0]),
   midi.NoteOnEvent(tick=0, channel=7, data=[60, 0]),
   midi.NoteOnEvent(tick=0, channel=7, data=[62, 110]),
   midi.NoteOnEvent(tick=0, channel=7, data=[77, 110]),
   midi.NoteOnEvent(tick=30, channel=7, data=[77, 0]),
   midi.NoteOnEvent(tick=0, channel=7, data=[62, 0]),
   midi.NoteOnEvent(tick=0, channel=7, data=[63, 110]),
   midi.NoteOnEvent(tick=0, channel=7, data=[79, 110]),
   midi.NoteOnEvent(tick=120, channel=7, data=[79, 0]),
   midi.NoteOnEvent(tick=0, channel=7, data=[63, 0]),
   midi.NoteOnEvent(tick=0, channel=7, data=[62, 110]),
   midi.NoteOnEvent(tick=0, channel=7, data=[77, 110]),
   midi.NoteOnEvent(tick=30, channel=7, data=[77, 0]),
   midi.NoteOnEvent(tick=0, channel=7, data=[62, 0]),
   midi.NoteOnEvent(tick=0, channel=7, data=[60, 110]),
   midi.NoteOnEvent(tick=0, channel=7, data=[75, 110]),
   midi.NoteOnEvent(tick=30, channel=7, data=[75, 0]),
   midi.NoteOnEvent(tick=0, channel=7, data=[60, 0]),
   midi.NoteOnEvent(tick=0, channel=7, data=[62, 110]),
   midi.NoteOnEvent(tick=0, channel=7, data=[71, 110]),
   midi.NoteOnEvent(tick=0, channel=7, data=[74, 110]),
   midi.NoteOnEvent(tick=480, channel=7, data=[74, 0]),
   midi.NoteOnEvent(tick=0, channel=7, data=[71, 0]),
   midi.NoteOnEvent(tick=0, channel=7, data=[62, 0]),
   midi.NoteOnEvent(tick=0, channel=7, data=[74, 110]),
   midi.NoteOnEvent(tick=30, channel=7, data=[74, 0]),
   midi.NoteOnEvent(tick=0, channel=7, data=[75, 110]),
   midi.NoteOnEvent(tick=30, channel=7, data=[75, 0]),
   midi.NoteOnEvent(tick=0, channel=7, data=[77, 110]),
   midi.NoteOnEvent(tick=120, channel=7, data=[77, 0]),
   midi.NoteOnEvent(tick=0, channel=7, data=[75, 110]),
   midi.NoteOnEvent(tick=30, channel=7, data=[75, 0]),
   midi.NoteOnEvent(tick=0, channel=7, data=[74, 110]),
   midi.NoteOnEvent(tick=30, channel=7, data=[74, 0]),
   midi.NoteOnEvent(tick=0, channel=7, data=[60, 64]),
   midi.NoteOnEvent(tick=0, channel=7, data=[63, 64]),
   midi.NoteOnEvent(tick=0, channel=7, data=[68, 64]),
   midi.NoteOnEvent(tick=0, channel=7, data=[72, 64]),
   midi.NoteOnEvent(tick=720, channel=7, data=[72, 0]),
   midi.NoteOnEvent(tick=0, channel=7, data=[60, 0]),
   midi.NoteOnEvent(tick=0, channel=7, data=[63, 0]),
   midi.NoteOnEvent(tick=0, channel=7, data=[68, 0]),
   midi.NoteOnEvent(tick=0, channel=7, data=[60, 64]),
   midi.NoteOnEvent(tick=30, channel=7, data=[60, 0]),
   midi.NoteOnEvent(tick=0, channel=7, data=[62, 64]),
   midi.NoteOnEvent(tick=30, channel=7, data=[62, 0]),
   midi.NoteOnEvent(tick=0, channel=7, data=[63, 64]),
   midi.NoteOnEvent(tick=660, channel=7, data=[63, 0]),
   midi.NoteOnEvent(tick=0, channel=7, data=[72, 80]),
   midi.NoteOnEvent(tick=30, channel=7, data=[72, 0]),
   midi.NoteOnEvent(tick=0, channel=7, data=[74, 80]),
   midi.NoteOnEvent(tick=30, channel=7, data=[74, 0]),
   midi.NoteOnEvent(tick=0, channel=7, data=[75, 80]),
   midi.NoteOnEvent(tick=420, channel=7, data=[75, 0]),
   midi.NoteOnEvent(tick=180, channel=7, data=[63, 80]),
   midi.NoteOnEvent(tick=0, channel=7, data=[69, 80]),
   midi.NoteOnEvent(tick=0, channel=7, data=[72, 80]),
   midi.NoteOnEvent(tick=0, channel=7, data=[75, 80]),
   midi.NoteOnEvent(tick=60, channel=7, data=[75, 0]),
   midi.NoteOnEvent(tick=0, channel=7, data=[63, 0]),
   midi.NoteOnEvent(tick=0, channel=7, data=[69, 0]),
   midi.NoteOnEvent(tick=0, channel=7, data=[72, 0]),
   midi.NoteOnEvent(tick=0, channel=7, data=[62, 110]),
   midi.NoteOnEvent(tick=0, channel=7, data=[74, 110]),
   midi.NoteOnEvent(tick=0, channel=7, data=[67, 110]),
   midi.NoteOnEvent(tick=0, channel=7, data=[72, 110]),
   midi.NoteOnEvent(tick=240, channel=7, data=[72, 0]),
   midi.NoteOnEvent(tick=0, channel=7, data=[71, 110]),
   midi.NoteOnEvent(tick=480, channel=7, data=[71, 0]),
   midi.NoteOnEvent(tick=0, channel=7, data=[67, 0]),
   midi.NoteOnEvent(tick=0, channel=7, data=[74, 0]),
   midi.NoteOnEvent(tick=0, channel=7, data=[62, 0]),
   midi.NoteOnEvent(tick=0, channel=7, data=[65, 110]),
   midi.NoteOnEvent(tick=0, channel=7, data=[77, 110]),
   midi.NoteOnEvent(tick=0, channel=7, data=[74, 110]),
   midi.NoteOnEvent(tick=0, channel=7, data=[68, 110]),
   midi.NoteOnEvent(tick=480, channel=7, data=[68, 0]),
   midi.NoteOnEvent(tick=0, channel=7, data=[65, 0]),
   midi.NoteOnEvent(tick=0, channel=7, data=[77, 0]),
   midi.NoteOnEvent(tick=0, channel=7, data=[74, 0]),
   midi.NoteOnEvent(tick=180, channel=7, data=[65, 110]),
   midi.NoteOnEvent(tick=0, channel=7, data=[77, 110]),
   midi.NoteOnEvent(tick=0, channel=7, data=[74, 110]),
   midi.NoteOnEvent(tick=0, channel=7, data=[68, 110]),
   midi.NoteOnEvent(tick=60, channel=7, data=[68, 0]),
   midi.NoteOnEvent(tick=0, channel=7, data=[65, 0]),
   midi.NoteOnEvent(tick=0, channel=7, data=[77, 0]),
   midi.NoteOnEvent(tick=0, channel=7, data=[74, 0]),
   midi.NoteOnEvent(tick=0, channel=7, data=[63, 110]),
   midi.NoteOnEvent(tick=0, channel=7, data=[75, 110]),
   midi.NoteOnEvent(tick=0, channel=7, data=[67, 110]),
   midi.NoteOnEvent(tick=0, channel=7, data=[74, 110]),
   midi.NoteOnEvent(tick=240, channel=7, data=[74, 0]),
   midi.NoteOnEvent(tick=0, channel=7, data=[72, 110]),
   midi.NoteOnEvent(tick=480, channel=7, data=[72, 0]),
   midi.NoteOnEvent(tick=0, channel=7, data=[67, 0]),
   midi.NoteOnEvent(tick=0, channel=7, data=[75, 0]),
   midi.NoteOnEvent(tick=0, channel=7, data=[63, 0]),
   midi.NoteOnEvent(tick=0, channel=7, data=[67, 110]),
   midi.NoteOnEvent(tick=0, channel=7, data=[79, 110]),
   midi.NoteOnEvent(tick=0, channel=7, data=[70, 110]),
   midi.NoteOnEvent(tick=0, channel=7, data=[76, 110]),
   midi.NoteOnEvent(tick=480, channel=7, data=[76, 0]),
   midi.NoteOnEvent(tick=0, channel=7, data=[67, 0]),
   midi.NoteOnEvent(tick=0, channel=7, data=[79, 0]),
   midi.NoteOnEvent(tick=0, channel=7, data=[70, 0]),
   midi.NoteOnEvent(tick=180, channel=7, data=[67, 110]),
   midi.NoteOnEvent(tick=0, channel=7, data=[79, 110]),
   midi.NoteOnEvent(tick=0, channel=7, data=[76, 110]),
   midi.NoteOnEvent(tick=0, channel=7, data=[70, 110]),
   midi.NoteOnEvent(tick=60, channel=7, data=[70, 0]),
   midi.NoteOnEvent(tick=0, channel=7, data=[67, 0]),
   midi.NoteOnEvent(tick=0, channel=7, data=[79, 0]),
   midi.NoteOnEvent(tick=0, channel=7, data=[76, 0]),
   midi.NoteOnEvent(tick=0, channel=7, data=[67, 99]),
   midi.NoteOnEvent(tick=0, channel=7, data=[79, 99]),
   midi.NoteOnEvent(tick=0, channel=7, data=[76, 99]),
   midi.NoteOnEvent(tick=0, channel=7, data=[69, 99]),
   midi.NoteOnEvent(tick=240, channel=7, data=[76, 0]),
   midi.NoteOnEvent(tick=0, channel=7, data=[67, 0]),
   midi.NoteOnEvent(tick=0, channel=7, data=[79, 0]),
   midi.NoteOnEvent(tick=0, channel=7, data=[65, 99]),
   midi.NoteOnEvent(tick=0, channel=7, data=[77, 99]),
   midi.NoteOnEvent(tick=0, channel=7, data=[74, 99]),
   midi.NoteOnEvent(tick=480, channel=7, data=[74, 0]),
   midi.NoteOnEvent(tick=0, channel=7, data=[69, 0]),
   midi.NoteOnEvent(tick=0, channel=7, data=[65, 0]),
   midi.NoteOnEvent(tick=0, channel=7, data=[77, 0]),
   midi.NoteOnEvent(tick=0, channel=7, data=[75, 99]),
   midi.NoteOnEvent(tick=0, channel=7, data=[70, 99]),
   midi.NoteOnEvent(tick=0, channel=7, data=[63, 99]),
   midi.NoteOnEvent(tick=480, channel=7, data=[63, 0]),
   midi.NoteOnEvent(tick=0, channel=7, data=[70, 0]),
   midi.NoteOnEvent(tick=0, channel=7, data=[75, 0]),
   midi.NoteOnEvent(tick=180, channel=7, data=[75, 99]),
   midi.NoteOnEvent(tick=0, channel=7, data=[70, 99]),
   midi.NoteOnEvent(tick=0, channel=7, data=[63, 99]),
   midi.NoteOnEvent(tick=60, channel=7, data=[63, 0]),
   midi.NoteOnEvent(tick=0, channel=7, data=[70, 0]),
   midi.NoteOnEvent(tick=0, channel=7, data=[75, 0]),
   midi.NoteOnEvent(tick=0, channel=7, data=[75, 99]),
   midi.NoteOnEvent(tick=0, channel=7, data=[70, 99]),
   midi.NoteOnEvent(tick=0, channel=7, data=[63, 99]),
   midi.NoteOnEvent(tick=240, channel=7, data=[63, 0]),
   midi.NoteOnEvent(tick=0, channel=7, data=[75, 0]),
   midi.NoteOnEvent(tick=0, channel=7, data=[73, 99]),
   midi.NoteOnEvent(tick=0, channel=7, data=[64, 99]),
   midi.NoteOnEvent(tick=240, channel=7, data=[70, 0]),
   midi.NoteOnEvent(tick=0, channel=7, data=[69, 99]),
   midi.NoteOnEvent(tick=120, channel=7, data=[69, 0]),
   midi.NoteOnEvent(tick=0, channel=7, data=[67, 99]),
   midi.NoteOnEvent(tick=120, channel=7, data=[67, 0]),
   midi.NoteOnEvent(tick=0, channel=7, data=[64, 0]),
   midi.NoteOnEvent(tick=0, channel=7, data=[73, 0]),
   midi.NoteOnEvent(tick=0, channel=7, data=[74, 99]),
   midi.NoteOnEvent(tick=0, channel=7, data=[65, 99]),
   midi.NoteOnEvent(tick=0, channel=7, data=[62, 99]),
   midi.NoteOnEvent(tick=720, channel=7, data=[62, 0]),
   midi.NoteOnEvent(tick=0, channel=7, data=[65, 0]),
   midi.NoteOnEvent(tick=0, channel=7, data=[74, 0]),
   midi.NoteOnEvent(tick=0, channel=7, data=[75, 99]),
   midi.NoteOnEvent(tick=0, channel=7, data=[69, 99]),
   midi.NoteOnEvent(tick=0, channel=7, data=[81, 99]),
   midi.NoteOnEvent(tick=0, channel=7, data=[72, 99]),
   midi.NoteOnEvent(tick=480, channel=7, data=[72, 0]),
   midi.NoteOnEvent(tick=0, channel=7, data=[75, 0]),
   midi.NoteOnEvent(tick=0, channel=7, data=[69, 0]),
   midi.NoteOnEvent(tick=0, channel=7, data=[81, 0]),
   midi.NoteOnEvent(tick=180, channel=7, data=[69, 99]),
   midi.NoteOnEvent(tick=0, channel=7, data=[75, 99]),
   midi.NoteOnEvent(tick=0, channel=7, data=[81, 99]),
   midi.NoteOnEvent(tick=0, channel=7, data=[72, 99]),
   midi.NoteOnEvent(tick=60, channel=7, data=[72, 0]),
   midi.NoteOnEvent(tick=0, channel=7, data=[69, 0]),
   midi.NoteOnEvent(tick=0, channel=7, data=[75, 0]),
   midi.NoteOnEvent(tick=0, channel=7, data=[81, 0]),
   midi.NoteOnEvent(tick=0, channel=7, data=[69, 110]),
   midi.NoteOnEvent(tick=0, channel=7, data=[74, 110]),
   midi.NoteOnEvent(tick=0, channel=7, data=[81, 110]),
   midi.NoteOnEvent(tick=0, channel=7, data=[70, 110]),
   midi.NoteOnEvent(tick=240, channel=7, data=[81, 0]),
   midi.NoteOnEvent(tick=0, channel=7, data=[69, 0]),
   midi.NoteOnEvent(tick=0, channel=7, data=[67, 110]),
   midi.NoteOnEvent(tick=0, channel=7, data=[79, 110]),
   midi.NoteOnEvent(tick=480, channel=7, data=[79, 0]),
   midi.NoteOnEvent(tick=0, channel=7, data=[70, 0]),
   midi.NoteOnEvent(tick=0, channel=7, data=[74, 0]),
   midi.NoteOnEvent(tick=0, channel=7, data=[67, 0]),
   midi.NoteOnEvent(tick=0, channel=7, data=[65, 110]),
   midi.NoteOnEvent(tick=0, channel=7, data=[77, 110]),
   midi.NoteOnEvent(tick=0, channel=7, data=[68, 110]),
   midi.NoteOnEvent(tick=0, channel=7, data=[74, 110]),
   midi.NoteOnEvent(tick=480, channel=7, data=[74, 0]),
   midi.NoteOnEvent(tick=0, channel=7, data=[65, 0]),
   midi.NoteOnEvent(tick=0, channel=7, data=[77, 0]),
   midi.NoteOnEvent(tick=0, channel=7, data=[68, 0]),
   midi.NoteOnEvent(tick=180, channel=7, data=[65, 110]),
   midi.NoteOnEvent(tick=0, channel=7, data=[74, 110]),
   midi.NoteOnEvent(tick=0, channel=7, data=[77, 110]),
   midi.NoteOnEvent(tick=0, channel=7, data=[68, 110]),
   midi.NoteOnEvent(tick=60, channel=7, data=[68, 0]),
   midi.NoteOnEvent(tick=0, channel=7, data=[65, 0]),
   midi.NoteOnEvent(tick=0, channel=7, data=[74, 0]),
   midi.NoteOnEvent(tick=0, channel=7, data=[77, 0]),
   midi.NoteOnEvent(tick=0, channel=7, data=[74, 110]),
   midi.NoteOnEvent(tick=0, channel=7, data=[77, 110]),
   midi.NoteOnEvent(tick=0, channel=7, data=[67, 110]),
   midi.NoteOnEvent(tick=0, channel=7, data=[62, 110]),
   midi.NoteOnEvent(tick=240, channel=7, data=[62, 0]),
   midi.NoteOnEvent(tick=0, channel=7, data=[74, 0]),
   midi.NoteOnEvent(tick=0, channel=7, data=[77, 0]),
   midi.NoteOnEvent(tick=0, channel=7, data=[72, 110]),
   midi.NoteOnEvent(tick=0, channel=7, data=[75, 110]),
   midi.NoteOnEvent(tick=0, channel=7, data=[60, 110]),
   midi.NoteOnEvent(tick=480, channel=7, data=[60, 0]),
   midi.NoteOnEvent(tick=0, channel=7, data=[67, 0]),
   midi.NoteOnEvent(tick=0, channel=7, data=[72, 0]),
   midi.NoteOnEvent(tick=0, channel=7, data=[75, 0]),
   midi.NoteOnEvent(tick=0, channel=7, data=[58, 80]),
   midi.NoteOnEvent(tick=0, channel=7, data=[64, 80]),
   midi.NoteOnEvent(tick=0, channel=7, data=[67, 80]),
   midi.NoteOnEvent(tick=0, channel=7, data=[70, 80]),
   midi.NoteOnEvent(tick=480, channel=7, data=[70, 0]),
   midi.NoteOnEvent(tick=0, channel=7, data=[58, 0]),
   midi.NoteOnEvent(tick=0, channel=7, data=[64, 0]),
   midi.NoteOnEvent(tick=0, channel=7, data=[67, 0]),
   midi.NoteOnEvent(tick=180, channel=7, data=[58, 64]),
   midi.NoteOnEvent(tick=0, channel=7, data=[64, 64]),
   midi.NoteOnEvent(tick=0, channel=7, data=[67, 64]),
   midi.NoteOnEvent(tick=0, channel=7, data=[70, 64]),
   midi.NoteOnEvent(tick=60, channel=7, data=[70, 0]),
   midi.NoteOnEvent(tick=0, channel=7, data=[58, 0]),
   midi.NoteOnEvent(tick=0, channel=7, data=[64, 0]),
   midi.NoteOnEvent(tick=0, channel=7, data=[67, 0]),
   midi.NoteOnEvent(tick=0, channel=7, data=[62, 64]),
   midi.NoteOnEvent(tick=0, channel=7, data=[67, 64]),
   midi.NoteOnEvent(tick=0, channel=7, data=[70, 64]),
   midi.NoteOnEvent(tick=720, channel=7, data=[70, 0]),
   midi.NoteOnEvent(tick=0, channel=7, data=[67, 0]),
   midi.NoteOnEvent(tick=0, channel=7, data=[62, 0]),
   midi.NoteOnEvent(tick=0, channel=7, data=[63, 64]),
   midi.NoteOnEvent(tick=0, channel=7, data=[67, 64]),
   midi.NoteOnEvent(tick=0, channel=7, data=[69, 64]),
   midi.NoteOnEvent(tick=720, channel=7, data=[69, 0]),
   midi.NoteOnEvent(tick=0, channel=7, data=[67, 0]),
   midi.NoteOnEvent(tick=0, channel=7, data=[63, 0]),
   midi.NoteOnEvent(tick=0, channel=7, data=[64, 64]),
   midi.NoteOnEvent(tick=0, channel=7, data=[67, 64]),
   midi.NoteOnEvent(tick=720, channel=7, data=[67, 0]),
   midi.NoteOnEvent(tick=0, channel=7, data=[64, 0]),
   midi.NoteOnEvent(tick=0, channel=7, data=[62, 64]),
   midi.NoteOnEvent(tick=0, channel=7, data=[57, 64]),
   midi.NoteOnEvent(tick=0, channel=7, data=[67, 64]),
   midi.NoteOnEvent(tick=480, channel=7, data=[67, 0]),
   midi.NoteOnEvent(tick=0, channel=7, data=[57, 0]),
   midi.NoteOnEvent(tick=0, channel=7, data=[62, 0]),
   midi.NoteOnEvent(tick=0, channel=7, data=[62, 64]),
   midi.NoteOnEvent(tick=0, channel=7, data=[60, 64]),
   midi.NoteOnEvent(tick=0, channel=7, data=[66, 64]),
   midi.NoteOnEvent(tick=240, channel=7, data=[66, 0]),
   midi.NoteOnEvent(tick=0, channel=7, data=[60, 0]),
   midi.NoteOnEvent(tick=0, channel=7, data=[62, 0]),
   midi.NoteOnEvent(tick=0, channel=7, data=[58, 64]),
   midi.NoteOnEvent(tick=0, channel=7, data=[62, 64]),
   midi.NoteOnEvent(tick=0, channel=7, data=[67, 64]),
   midi.NoteOnEvent(tick=2160, channel=7, data=[67, 0]),
   midi.NoteOnEvent(tick=0, channel=7, data=[62, 0]),
   midi.NoteOnEvent(tick=0, channel=7, data=[58, 0]),
   midi.EndOfTrackEvent(tick=0, data=[])]),
 midi.Track(\
  [midi.PortEvent(tick=0, data=[0]),
   midi.TrackNameEvent(tick=0, text='Organ', data=[79, 114, 103, 97, 110]),
   midi.ProgramChangeEvent(tick=0, channel=8, data=[19]),
   midi.ControlChangeEvent(tick=0, channel=8, data=[7, 95]),
   midi.ControlChangeEvent(tick=0, channel=8, data=[10, 30]),
   midi.NoteOnEvent(tick=1440, channel=8, data=[41, 62]),
   midi.NoteOnEvent(tick=720, channel=8, data=[41, 0]),
   midi.NoteOnEvent(tick=0, channel=8, data=[39, 61]),
   midi.NoteOnEvent(tick=720, channel=8, data=[39, 0]),
   midi.NoteOnEvent(tick=0, channel=8, data=[38, 60]),
   midi.NoteOnEvent(tick=720, channel=8, data=[38, 0]),
   midi.NoteOnEvent(tick=0, channel=8, data=[36, 59]),
   midi.NoteOnEvent(tick=720, channel=8, data=[36, 0]),
   midi.NoteOnEvent(tick=0, channel=8, data=[37, 58]),
   midi.NoteOnEvent(tick=720, channel=8, data=[37, 0]),
   midi.NoteOnEvent(tick=0, channel=8, data=[38, 57]),
   midi.NoteOnEvent(tick=720, channel=8, data=[38, 0]),
   midi.NoteOnEvent(tick=0, channel=8, data=[43, 64]),
   midi.NoteOnEvent(tick=720, channel=8, data=[43, 0]),
   midi.NoteOnEvent(tick=0, channel=8, data=[43, 64]),
   midi.NoteOnEvent(tick=720, channel=8, data=[43, 0]),
   midi.NoteOnEvent(tick=0, channel=8, data=[45, 64]),
   midi.NoteOnEvent(tick=1440, channel=8, data=[45, 0]),
   midi.NoteOnEvent(tick=0, channel=8, data=[46, 64]),
   midi.NoteOnEvent(tick=1440, channel=8, data=[46, 0]),
   midi.NoteOnEvent(tick=0, channel=8, data=[48, 64]),
   midi.NoteOnEvent(tick=720, channel=8, data=[48, 0]),
   midi.NoteOnEvent(tick=0, channel=8, data=[45, 64]),
   midi.NoteOnEvent(tick=720, channel=8, data=[45, 0]),
   midi.NoteOnEvent(tick=0, channel=8, data=[46, 64]),
   midi.NoteOnEvent(tick=720, channel=8, data=[46, 0]),
   midi.NoteOnEvent(tick=0, channel=8, data=[43, 64]),
   midi.NoteOnEvent(tick=720, channel=8, data=[43, 0]),
   midi.NoteOnEvent(tick=0, channel=8, data=[45, 64]),
   midi.NoteOnEvent(tick=720, channel=8, data=[45, 0]),
   midi.NoteOnEvent(tick=0, channel=8, data=[46, 64]),
   midi.NoteOnEvent(tick=240, channel=8, data=[46, 0]),
   midi.NoteOnEvent(tick=0, channel=8, data=[55, 64]),
   midi.NoteOnEvent(tick=240, channel=8, data=[55, 0]),
   midi.NoteOnEvent(tick=0, channel=8, data=[48, 64]),
   midi.NoteOnEvent(tick=240, channel=8, data=[48, 0]),
   midi.NoteOnEvent(tick=0, channel=8, data=[50, 64]),
   midi.NoteOnEvent(tick=0, channel=8, data=[58, 64]),
   midi.NoteOnEvent(tick=2160, channel=8, data=[58, 0]),
   midi.NoteOnEvent(tick=0, channel=8, data=[50, 0]),
   midi.NoteOnEvent(tick=0, channel=8, data=[47, 64]),
   midi.NoteOnEvent(tick=720, channel=8, data=[47, 0]),
   midi.NoteOnEvent(tick=0, channel=8, data=[48, 64]),
   midi.NoteOnEvent(tick=720, channel=8, data=[48, 0]),
   midi.NoteOnEvent(tick=0, channel=8, data=[46, 64]),
   midi.NoteOnEvent(tick=720, channel=8, data=[46, 0]),
   midi.NoteOnEvent(tick=0, channel=8, data=[44, 64]),
   midi.NoteOnEvent(tick=720, channel=8, data=[44, 0]),
   midi.NoteOnEvent(tick=0, channel=8, data=[50, 64]),
   midi.NoteOnEvent(tick=1440, channel=8, data=[50, 0]),
   midi.NoteOnEvent(tick=0, channel=8, data=[43, 80]),
   midi.NoteOnEvent(tick=720, channel=8, data=[43, 0]),
   midi.NoteOnEvent(tick=0, channel=8, data=[41, 80]),
   midi.NoteOnEvent(tick=720, channel=8, data=[41, 0]),
   midi.NoteOnEvent(tick=0, channel=8, data=[39, 80]),
   midi.NoteOnEvent(tick=720, channel=8, data=[39, 0]),
   midi.NoteOnEvent(tick=0, channel=8, data=[38, 80]),
   midi.NoteOnEvent(tick=720, channel=8, data=[38, 0]),
   midi.NoteOnEvent(tick=0, channel=8, data=[36, 80]),
   midi.NoteOnEvent(tick=720, channel=8, data=[36, 0]),
   midi.NoteOnEvent(tick=0, channel=8, data=[37, 80]),
   midi.NoteOnEvent(tick=720, channel=8, data=[37, 0]),
   midi.NoteOnEvent(tick=0, channel=8, data=[38, 80]),
   midi.NoteOnEvent(tick=720, channel=8, data=[38, 0]),
   midi.NoteOnEvent(tick=0, channel=8, data=[43, 64]),
   midi.NoteOnEvent(tick=720, channel=8, data=[43, 0]),
   midi.NoteOnEvent(tick=0, channel=8, data=[43, 64]),
   midi.NoteOnEvent(tick=720, channel=8, data=[43, 0]),
   midi.NoteOnEvent(tick=0, channel=8, data=[45, 64]),
   midi.NoteOnEvent(tick=1440, channel=8, data=[45, 0]),
   midi.NoteOnEvent(tick=0, channel=8, data=[46, 64]),
   midi.NoteOnEvent(tick=1440, channel=8, data=[46, 0]),
   midi.NoteOnEvent(tick=0, channel=8, data=[48, 64]),
   midi.NoteOnEvent(tick=720, channel=8, data=[48, 0]),
   midi.NoteOnEvent(tick=0, channel=8, data=[45, 64]),
   midi.NoteOnEvent(tick=720, channel=8, data=[45, 0]),
   midi.NoteOnEvent(tick=0, channel=8, data=[46, 64]),
   midi.NoteOnEvent(tick=720, channel=8, data=[46, 0]),
   midi.NoteOnEvent(tick=0, channel=8, data=[43, 64]),
   midi.NoteOnEvent(tick=720, channel=8, data=[43, 0]),
   midi.NoteOnEvent(tick=0, channel=8, data=[45, 64]),
   midi.NoteOnEvent(tick=720, channel=8, data=[45, 0]),
   midi.NoteOnEvent(tick=0, channel=8, data=[46, 64]),
   midi.NoteOnEvent(tick=240, channel=8, data=[46, 0]),
   midi.NoteOnEvent(tick=0, channel=8, data=[55, 64]),
   midi.NoteOnEvent(tick=240, channel=8, data=[55, 0]),
   midi.NoteOnEvent(tick=0, channel=8, data=[48, 64]),
   midi.NoteOnEvent(tick=240, channel=8, data=[48, 0]),
   midi.NoteOnEvent(tick=0, channel=8, data=[58, 64]),
   midi.NoteOnEvent(tick=0, channel=8, data=[50, 64]),
   midi.NoteOnEvent(tick=2160, channel=8, data=[50, 0]),
   midi.NoteOnEvent(tick=0, channel=8, data=[58, 0]),
   midi.NoteOnEvent(tick=0, channel=8, data=[47, 64]),
   midi.NoteOnEvent(tick=720, channel=8, data=[47, 0]),
   midi.NoteOnEvent(tick=0, channel=8, data=[48, 64]),
   midi.NoteOnEvent(tick=720, channel=8, data=[48, 0]),
   midi.NoteOnEvent(tick=0, channel=8, data=[46, 64]),
   midi.NoteOnEvent(tick=720, channel=8, data=[46, 0]),
   midi.NoteOnEvent(tick=0, channel=8, data=[44, 64]),
   midi.NoteOnEvent(tick=720, channel=8, data=[44, 0]),
   midi.NoteOnEvent(tick=0, channel=8, data=[50, 64]),
   midi.NoteOnEvent(tick=1440, channel=8, data=[50, 0]),
   midi.NoteOnEvent(tick=0, channel=8, data=[43, 38]),
   midi.NoteOnEvent(tick=0, channel=8, data=[50, 38]),
   midi.NoteOnEvent(tick=0, channel=8, data=[53, 38]),
   midi.NoteOnEvent(tick=2820, channel=8, data=[53, 0]),
   midi.NoteOnEvent(tick=0, channel=8, data=[50, 0]),
   midi.NoteOnEvent(tick=0, channel=8, data=[43, 0]),
   midi.NoteOnEvent(tick=0, channel=8, data=[43, 38]),
   midi.NoteOnEvent(tick=0, channel=8, data=[50, 38]),
   midi.NoteOnEvent(tick=0, channel=8, data=[53, 38]),
   midi.NoteOnEvent(tick=60, channel=8, data=[53, 0]),
   midi.NoteOnEvent(tick=0, channel=8, data=[50, 0]),
   midi.NoteOnEvent(tick=0, channel=8, data=[43, 0]),
   midi.NoteOnEvent(tick=0, channel=8, data=[43, 51]),
   midi.NoteOnEvent(tick=0, channel=8, data=[51, 51]),
   midi.NoteOnEvent(tick=4260, channel=8, data=[51, 0]),
   midi.NoteOnEvent(tick=0, channel=8, data=[43, 0]),
   midi.NoteOnEvent(tick=0, channel=8, data=[43, 51]),
   midi.NoteOnEvent(tick=0, channel=8, data=[51, 51]),
   midi.NoteOnEvent(tick=60, channel=8, data=[51, 0]),
   midi.NoteOnEvent(tick=0, channel=8, data=[43, 0]),
   midi.NoteOnEvent(tick=0, channel=8, data=[43, 51]),
   midi.NoteOnEvent(tick=0, channel=8, data=[51, 51]),
   midi.NoteOnEvent(tick=2100, channel=8, data=[51, 0]),
   midi.NoteOnEvent(tick=0, channel=8, data=[43, 0]),
   midi.NoteOnEvent(tick=0, channel=8, data=[43, 51]),
   midi.NoteOnEvent(tick=0, channel=8, data=[51, 51]),
   midi.NoteOnEvent(tick=60, channel=8, data=[51, 0]),
   midi.NoteOnEvent(tick=0, channel=8, data=[43, 0]),
   midi.NoteOnEvent(tick=0, channel=8, data=[41, 51]),
   midi.NoteOnEvent(tick=0, channel=8, data=[53, 51]),
   midi.NoteOnEvent(tick=4260, channel=8, data=[53, 0]),
   midi.NoteOnEvent(tick=0, channel=8, data=[41, 0]),
   midi.NoteOnEvent(tick=0, channel=8, data=[41, 61]),
   midi.NoteOnEvent(tick=60, channel=8, data=[41, 0]),
   midi.NoteOnEvent(tick=0, channel=8, data=[38, 64]),
   midi.NoteOnEvent(tick=1440, channel=8, data=[38, 0]),
   midi.NoteOnEvent(tick=0, channel=8, data=[43, 64]),
   midi.NoteOnEvent(tick=720, channel=8, data=[43, 0]),
   midi.NoteOnEvent(tick=0, channel=8, data=[36, 64]),
   midi.NoteOnEvent(tick=720, channel=8, data=[36, 0]),
   midi.NoteOnEvent(tick=0, channel=8, data=[48, 64]),
   midi.NoteOnEvent(tick=720, channel=8, data=[48, 0]),
   midi.NoteOnEvent(tick=0, channel=8, data=[46, 64]),
   midi.NoteOnEvent(tick=720, channel=8, data=[46, 0]),
   midi.NoteOnEvent(tick=0, channel=8, data=[44, 64]),
   midi.NoteOnEvent(tick=720, channel=8, data=[44, 0]),
   midi.NoteOnEvent(tick=0, channel=8, data=[43, 64]),
   midi.NoteOnEvent(tick=720, channel=8, data=[43, 0]),
   midi.NoteOnEvent(tick=0, channel=8, data=[41, 64]),
   midi.NoteOnEvent(tick=720, channel=8, data=[41, 0]),
   midi.NoteOnEvent(tick=0, channel=8, data=[42, 64]),
   midi.NoteOnEvent(tick=720, channel=8, data=[42, 0]),
   midi.NoteOnEvent(tick=0, channel=8, data=[43, 64]),
   midi.NoteOnEvent(tick=720, channel=8, data=[43, 0]),
   midi.NoteOnEvent(tick=0, channel=8, data=[48, 64]),
   midi.NoteOnEvent(tick=1440, channel=8, data=[48, 0]),
   midi.NoteOnEvent(tick=0, channel=8, data=[50, 64]),
   midi.NoteOnEvent(tick=720, channel=8, data=[50, 0]),
   midi.NoteOnEvent(tick=0, channel=8, data=[50, 64]),
   midi.NoteOnEvent(tick=720, channel=8, data=[50, 0]),
   midi.NoteOnEvent(tick=0, channel=8, data=[51, 64]),
   midi.NoteOnEvent(tick=1440, channel=8, data=[51, 0]),
   midi.NoteOnEvent(tick=0, channel=8, data=[53, 64]),
   midi.NoteOnEvent(tick=720, channel=8, data=[53, 0]),
   midi.NoteOnEvent(tick=0, channel=8, data=[50, 64]),
   midi.NoteOnEvent(tick=720, channel=8, data=[50, 0]),
   midi.NoteOnEvent(tick=0, channel=8, data=[51, 64]),
   midi.NoteOnEvent(tick=720, channel=8, data=[51, 0]),
   midi.NoteOnEvent(tick=0, channel=8, data=[48, 64]),
   midi.NoteOnEvent(tick=720, channel=8, data=[48, 0]),
   midi.NoteOnEvent(tick=0, channel=8, data=[50, 64]),
   midi.NoteOnEvent(tick=720, channel=8, data=[50, 0]),
   midi.NoteOnEvent(tick=0, channel=8, data=[51, 64]),
   midi.NoteOnEvent(tick=720, channel=8, data=[51, 0]),
   midi.NoteOnEvent(tick=0, channel=8, data=[50, 64]),
   midi.NoteOnEvent(tick=720, channel=8, data=[50, 0]),
   midi.NoteOnEvent(tick=0, channel=8, data=[51, 64]),
   midi.NoteOnEvent(tick=720, channel=8, data=[51, 0]),
   midi.NoteOnEvent(tick=0, channel=8, data=[38, 64]),
   midi.NoteOnEvent(tick=0, channel=8, data=[50, 64]),
   midi.NoteOnEvent(tick=2160, channel=8, data=[50, 0]),
   midi.NoteOnEvent(tick=0, channel=8, data=[38, 0]),
   midi.NoteOnEvent(tick=0, channel=8, data=[39, 64]),
   midi.NoteOnEvent(tick=0, channel=8, data=[51, 64]),
   midi.NoteOnEvent(tick=720, channel=8, data=[51, 0]),
   midi.NoteOnEvent(tick=0, channel=8, data=[39, 0]),
   midi.NoteOnEvent(tick=0, channel=8, data=[41, 64]),
   midi.NoteOnEvent(tick=720, channel=8, data=[41, 0]),
   midi.NoteOnEvent(tick=0, channel=8, data=[53, 64]),
   midi.NoteOnEvent(tick=0, channel=8, data=[38, 64]),
   midi.NoteOnEvent(tick=720, channel=8, data=[38, 0]),
   midi.NoteOnEvent(tick=0, channel=8, data=[53, 0]),
   midi.NoteOnEvent(tick=0, channel=8, data=[56, 64]),
   midi.NoteOnEvent(tick=0, channel=8, data=[39, 64]),
   midi.NoteOnEvent(tick=240, channel=8, data=[56, 0]),
   midi.NoteOnEvent(tick=0, channel=8, data=[55, 64]),
   midi.NoteOnEvent(tick=480, channel=8, data=[55, 0]),
   midi.NoteOnEvent(tick=0, channel=8, data=[39, 0]),
   midi.NoteOnEvent(tick=0, channel=8, data=[53, 64]),
   midi.NoteOnEvent(tick=0, channel=8, data=[59, 64]),
   midi.NoteOnEvent(tick=0, channel=8, data=[38, 64]),
   midi.NoteOnEvent(tick=480, channel=8, data=[38, 0]),
   midi.NoteOnEvent(tick=0, channel=8, data=[59, 0]),
   midi.NoteOnEvent(tick=0, channel=8, data=[53, 0]),
   midi.NoteOnEvent(tick=180, channel=8, data=[53, 64]),
   midi.NoteOnEvent(tick=0, channel=8, data=[59, 64]),
   midi.NoteOnEvent(tick=0, channel=8, data=[38, 64]),
   midi.NoteOnEvent(tick=60, channel=8, data=[38, 0]),
   midi.NoteOnEvent(tick=0, channel=8, data=[59, 0]),
   midi.NoteOnEvent(tick=0, channel=8, data=[53, 0]),
   midi.NoteOnEvent(tick=0, channel=8, data=[39, 64]),
   midi.NoteOnEvent(tick=0, channel=8, data=[55, 64]),
   midi.NoteOnEvent(tick=0, channel=8, data=[60, 64]),
   midi.NoteOnEvent(tick=720, channel=8, data=[60, 0]),
   midi.NoteOnEvent(tick=0, channel=8, data=[55, 0]),
   midi.NoteOnEvent(tick=0, channel=8, data=[39, 0]),
   midi.NoteOnEvent(tick=0, channel=8, data=[41, 64]),
   midi.NoteOnEvent(tick=0, channel=8, data=[56, 64]),
   midi.NoteOnEvent(tick=0, channel=8, data=[60, 64]),
   midi.NoteOnEvent(tick=480, channel=8, data=[60, 0]),
   midi.NoteOnEvent(tick=0, channel=8, data=[56, 0]),
   midi.NoteOnEvent(tick=0, channel=8, data=[41, 0]),
   midi.NoteOnEvent(tick=180, channel=8, data=[41, 64]),
   midi.NoteOnEvent(tick=0, channel=8, data=[56, 64]),
   midi.NoteOnEvent(tick=0, channel=8, data=[60, 64]),
   midi.NoteOnEvent(tick=60, channel=8, data=[60, 0]),
   midi.NoteOnEvent(tick=0, channel=8, data=[56, 0]),
   midi.NoteOnEvent(tick=0, channel=8, data=[41, 0]),
   midi.NoteOnEvent(tick=0, channel=8, data=[39, 64]),
   midi.NoteOnEvent(tick=0, channel=8, data=[55, 64]),
   midi.NoteOnEvent(tick=0, channel=8, data=[60, 64]),
   midi.NoteOnEvent(tick=720, channel=8, data=[60, 0]),
   midi.NoteOnEvent(tick=0, channel=8, data=[55, 0]),
   midi.NoteOnEvent(tick=0, channel=8, data=[39, 0]),
   midi.NoteOnEvent(tick=0, channel=8, data=[41, 64]),
   midi.NoteOnEvent(tick=0, channel=8, data=[56, 64]),
   midi.NoteOnEvent(tick=0, channel=8, data=[60, 64]),
   midi.NoteOnEvent(tick=480, channel=8, data=[60, 0]),
   midi.NoteOnEvent(tick=0, channel=8, data=[56, 0]),
   midi.NoteOnEvent(tick=0, channel=8, data=[41, 0]),
   midi.NoteOnEvent(tick=180, channel=8, data=[41, 64]),
   midi.NoteOnEvent(tick=0, channel=8, data=[56, 64]),
   midi.NoteOnEvent(tick=0, channel=8, data=[60, 64]),
   midi.NoteOnEvent(tick=60, channel=8, data=[60, 0]),
   midi.NoteOnEvent(tick=0, channel=8, data=[56, 0]),
   midi.NoteOnEvent(tick=0, channel=8, data=[41, 0]),
   midi.NoteOnEvent(tick=0, channel=8, data=[39, 64]),
   midi.NoteOnEvent(tick=0, channel=8, data=[55, 64]),
   midi.NoteOnEvent(tick=0, channel=8, data=[60, 64]),
   midi.NoteOnEvent(tick=480, channel=8, data=[60, 0]),
   midi.NoteOnEvent(tick=0, channel=8, data=[55, 0]),
   midi.NoteOnEvent(tick=0, channel=8, data=[39, 0]),
   midi.NoteOnEvent(tick=120, channel=8, data=[39, 64]),
   midi.NoteOnEvent(tick=0, channel=8, data=[51, 64]),
   midi.NoteOnEvent(tick=120, channel=8, data=[51, 0]),
   midi.NoteOnEvent(tick=0, channel=8, data=[39, 0]),
   midi.NoteOnEvent(tick=0, channel=8, data=[41, 80]),
   midi.NoteOnEvent(tick=0, channel=8, data=[53, 80]),
   midi.NoteOnEvent(tick=720, channel=8, data=[53, 0]),
   midi.NoteOnEvent(tick=0, channel=8, data=[41, 0]),
   midi.NoteOnEvent(tick=0, channel=8, data=[43, 80]),
   midi.NoteOnEvent(tick=0, channel=8, data=[55, 80]),
   midi.NoteOnEvent(tick=480, channel=8, data=[55, 0]),
   midi.NoteOnEvent(tick=0, channel=8, data=[43, 0]),
   midi.NoteOnEvent(tick=960, channel=8, data=[49, 80]),
   midi.NoteOnEvent(tick=0, channel=8, data=[52, 80]),
   midi.NoteOnEvent(tick=0, channel=8, data=[55, 80]),
   midi.NoteOnEvent(tick=0, channel=8, data=[58, 80]),
   midi.NoteOnEvent(tick=480, channel=8, data=[58, 0]),
   midi.NoteOnEvent(tick=0, channel=8, data=[49, 0]),
   midi.NoteOnEvent(tick=0, channel=8, data=[52, 0]),
   midi.NoteOnEvent(tick=0, channel=8, data=[55, 0]),
   midi.NoteOnEvent(tick=0, channel=8, data=[55, 80]),
   midi.NoteOnEvent(tick=30, channel=8, data=[55, 0]),
   midi.NoteOnEvent(tick=0, channel=8, data=[56, 80]),
   midi.NoteOnEvent(tick=30, channel=8, data=[56, 0]),
   midi.NoteOnEvent(tick=0, channel=8, data=[58, 80]),
   midi.NoteOnEvent(tick=120, channel=8, data=[58, 0]),
   midi.NoteOnEvent(tick=0, channel=8, data=[56, 80]),
   midi.NoteOnEvent(tick=30, channel=8, data=[56, 0]),
   midi.NoteOnEvent(tick=0, channel=8, data=[55, 80]),
   midi.NoteOnEvent(tick=30, channel=8, data=[55, 0]),
   midi.NoteOnEvent(tick=0, channel=8, data=[48, 80]),
   midi.NoteOnEvent(tick=0, channel=8, data=[53, 80]),
   midi.NoteOnEvent(tick=0, channel=8, data=[56, 80]),
   midi.NoteOnEvent(tick=480, channel=8, data=[56, 0]),
   midi.NoteOnEvent(tick=0, channel=8, data=[53, 0]),
   midi.NoteOnEvent(tick=0, channel=8, data=[48, 0]),
   midi.NoteOnEvent(tick=0, channel=8, data=[48, 80]),
   midi.NoteOnEvent(tick=0, channel=8, data=[53, 80]),
   midi.NoteOnEvent(tick=0, channel=8, data=[56, 80]),
   midi.NoteOnEvent(tick=240, channel=8, data=[56, 0]),
   midi.NoteOnEvent(tick=0, channel=8, data=[53, 0]),
   midi.NoteOnEvent(tick=0, channel=8, data=[48, 0]),
   midi.NoteOnEvent(tick=0, channel=8, data=[48, 80]),
   midi.NoteOnEvent(tick=0, channel=8, data=[51, 80]),
   midi.NoteOnEvent(tick=0, channel=8, data=[55, 80]),
   midi.NoteOnEvent(tick=480, channel=8, data=[55, 0]),
   midi.NoteOnEvent(tick=0, channel=8, data=[51, 0]),
   midi.NoteOnEvent(tick=0, channel=8, data=[48, 0]),
   midi.NoteOnEvent(tick=0, channel=8, data=[48, 80]),
   midi.NoteOnEvent(tick=0, channel=8, data=[51, 80]),
   midi.NoteOnEvent(tick=0, channel=8, data=[55, 80]),
   midi.NoteOnEvent(tick=240, channel=8, data=[55, 0]),
   midi.NoteOnEvent(tick=0, channel=8, data=[51, 0]),
   midi.NoteOnEvent(tick=0, channel=8, data=[48, 0]),
   midi.NoteOnEvent(tick=0, channel=8, data=[44, 80]),
   midi.NoteOnEvent(tick=0, channel=8, data=[49, 80]),
   midi.NoteOnEvent(tick=0, channel=8, data=[53, 80]),
   midi.NoteOnEvent(tick=720, channel=8, data=[53, 0]),
   midi.NoteOnEvent(tick=0, channel=8, data=[49, 0]),
   midi.NoteOnEvent(tick=0, channel=8, data=[44, 0]),
   midi.NoteOnEvent(tick=0, channel=8, data=[55, 80]),
   midi.NoteOnEvent(tick=720, channel=8, data=[55, 0]),
   midi.NoteOnEvent(tick=0, channel=8, data=[43, 80]),
   midi.NoteOnEvent(tick=0, channel=8, data=[53, 80]),
   midi.NoteOnEvent(tick=0, channel=8, data=[59, 80]),
   midi.NoteOnEvent(tick=480, channel=8, data=[59, 0]),
   midi.NoteOnEvent(tick=0, channel=8, data=[53, 0]),
   midi.NoteOnEvent(tick=0, channel=8, data=[59, 80]),
   midi.NoteOnEvent(tick=30, channel=8, data=[59, 0]),
   midi.NoteOnEvent(tick=0, channel=8, data=[60, 80]),
   midi.NoteOnEvent(tick=30, channel=8, data=[60, 0]),
   midi.NoteOnEvent(tick=0, channel=8, data=[62, 80]),
   midi.NoteOnEvent(tick=120, channel=8, data=[62, 0]),
   midi.NoteOnEvent(tick=0, channel=8, data=[60, 80]),
   midi.NoteOnEvent(tick=30, channel=8, data=[60, 0]),
   midi.NoteOnEvent(tick=0, channel=8, data=[59, 80]),
   midi.NoteOnEvent(tick=30, channel=8, data=[59, 0]),
   midi.NoteOnEvent(tick=0, channel=8, data=[43, 0]),
   midi.NoteOnEvent(tick=0, channel=8, data=[44, 64]),
   midi.NoteOnEvent(tick=0, channel=8, data=[51, 64]),
   midi.NoteOnEvent(tick=0, channel=8, data=[56, 64]),
   midi.NoteOnEvent(tick=720, channel=8, data=[56, 0]),
   midi.NoteOnEvent(tick=0, channel=8, data=[51, 0]),
   midi.NoteOnEvent(tick=0, channel=8, data=[44, 0]),
   midi.NoteOnEvent(tick=0, channel=8, data=[43, 64]),
   midi.NoteOnEvent(tick=0, channel=8, data=[55, 64]),
   midi.NoteOnEvent(tick=720, channel=8, data=[55, 0]),
   midi.NoteOnEvent(tick=0, channel=8, data=[43, 0]),
   midi.NoteOnEvent(tick=0, channel=8, data=[42, 80]),
   midi.NoteOnEvent(tick=480, channel=8, data=[42, 0]),
   midi.NoteOnEvent(tick=180, channel=8, data=[42, 80]),
   midi.NoteOnEvent(tick=60, channel=8, data=[42, 0]),
   midi.NoteOnEvent(tick=0, channel=8, data=[43, 80]),
   midi.NoteOnEvent(tick=720, channel=8, data=[43, 0]),
   midi.NoteOnEvent(tick=0, channel=8, data=[47, 110]),
   midi.NoteOnEvent(tick=0, channel=8, data=[35, 110]),
   midi.NoteOnEvent(tick=480, channel=8, data=[35, 0]),
   midi.NoteOnEvent(tick=0, channel=8, data=[47, 0]),
   midi.NoteOnEvent(tick=180, channel=8, data=[47, 110]),
   midi.NoteOnEvent(tick=0, channel=8, data=[35, 110]),
   midi.NoteOnEvent(tick=60, channel=8, data=[35, 0]),
   midi.NoteOnEvent(tick=0, channel=8, data=[47, 0]),
   midi.NoteOnEvent(tick=0, channel=8, data=[48, 110]),
   midi.NoteOnEvent(tick=0, channel=8, data=[36, 110]),
   midi.NoteOnEvent(tick=720, channel=8, data=[36, 0]),
   midi.NoteOnEvent(tick=0, channel=8, data=[48, 0]),
   midi.NoteOnEvent(tick=0, channel=8, data=[49, 110]),
   midi.NoteOnEvent(tick=0, channel=8, data=[37, 110]),
   midi.NoteOnEvent(tick=480, channel=8, data=[37, 0]),
   midi.NoteOnEvent(tick=0, channel=8, data=[49, 0]),
   midi.NoteOnEvent(tick=180, channel=8, data=[49, 110]),
   midi.NoteOnEvent(tick=0, channel=8, data=[37, 110]),
   midi.NoteOnEvent(tick=60, channel=8, data=[37, 0]),
   midi.NoteOnEvent(tick=0, channel=8, data=[49, 0]),
   midi.NoteOnEvent(tick=0, channel=8, data=[50, 99]),
   midi.NoteOnEvent(tick=0, channel=8, data=[38, 99]),
   midi.NoteOnEvent(tick=720, channel=8, data=[38, 0]),
   midi.NoteOnEvent(tick=0, channel=8, data=[50, 0]),
   midi.NoteOnEvent(tick=0, channel=8, data=[43, 99]),
   midi.NoteOnEvent(tick=0, channel=8, data=[31, 99]),
   midi.NoteOnEvent(tick=480, channel=8, data=[31, 0]),
   midi.NoteOnEvent(tick=0, channel=8, data=[43, 0]),
   midi.NoteOnEvent(tick=180, channel=8, data=[43, 99]),
   midi.NoteOnEvent(tick=0, channel=8, data=[31, 99]),
   midi.NoteOnEvent(tick=60, channel=8, data=[31, 0]),
   midi.NoteOnEvent(tick=0, channel=8, data=[43, 0]),
   midi.NoteOnEvent(tick=0, channel=8, data=[45, 99]),
   midi.NoteOnEvent(tick=0, channel=8, data=[33, 99]),
   midi.NoteOnEvent(tick=720, channel=8, data=[33, 0]),
   midi.NoteOnEvent(tick=0, channel=8, data=[45, 0]),
   midi.NoteOnEvent(tick=0, channel=8, data=[46, 99]),
   midi.NoteOnEvent(tick=0, channel=8, data=[34, 99]),
   midi.NoteOnEvent(tick=720, channel=8, data=[34, 0]),
   midi.NoteOnEvent(tick=0, channel=8, data=[46, 0]),
   midi.NoteOnEvent(tick=0, channel=8, data=[42, 99]),
   midi.NoteOnEvent(tick=0, channel=8, data=[30, 99]),
   midi.NoteOnEvent(tick=480, channel=8, data=[30, 0]),
   midi.NoteOnEvent(tick=0, channel=8, data=[42, 0]),
   midi.NoteOnEvent(tick=180, channel=8, data=[42, 99]),
   midi.NoteOnEvent(tick=0, channel=8, data=[30, 99]),
   midi.NoteOnEvent(tick=60, channel=8, data=[30, 0]),
   midi.NoteOnEvent(tick=0, channel=8, data=[42, 0]),
   midi.NoteOnEvent(tick=0, channel=8, data=[43, 80]),
   midi.NoteOnEvent(tick=0, channel=8, data=[31, 80]),
   midi.NoteOnEvent(tick=720, channel=8, data=[31, 0]),
   midi.NoteOnEvent(tick=0, channel=8, data=[43, 0]),
   midi.NoteOnEvent(tick=0, channel=8, data=[47, 80]),
   midi.NoteOnEvent(tick=0, channel=8, data=[35, 80]),
   midi.NoteOnEvent(tick=480, channel=8, data=[35, 0]),
   midi.NoteOnEvent(tick=0, channel=8, data=[47, 0]),
   midi.NoteOnEvent(tick=180, channel=8, data=[47, 80]),
   midi.NoteOnEvent(tick=0, channel=8, data=[35, 80]),
   midi.NoteOnEvent(tick=60, channel=8, data=[35, 0]),
   midi.NoteOnEvent(tick=0, channel=8, data=[47, 0]),
   midi.NoteOnEvent(tick=0, channel=8, data=[48, 80]),
   midi.NoteOnEvent(tick=0, channel=8, data=[36, 80]),
   midi.NoteOnEvent(tick=720, channel=8, data=[36, 0]),
   midi.NoteOnEvent(tick=0, channel=8, data=[48, 0]),
   midi.NoteOnEvent(tick=0, channel=8, data=[49, 80]),
   midi.NoteOnEvent(tick=480, channel=8, data=[49, 0]),
   midi.NoteOnEvent(tick=180, channel=8, data=[49, 64]),
   midi.NoteOnEvent(tick=60, channel=8, data=[49, 0]),
   midi.NoteOnEvent(tick=0, channel=8, data=[38, 64]),
   midi.NoteOnEvent(tick=720, channel=8, data=[38, 0]),
   midi.NoteOnEvent(tick=0, channel=8, data=[48, 64]),
   midi.NoteOnEvent(tick=720, channel=8, data=[48, 0]),
   midi.NoteOnEvent(tick=0, channel=8, data=[49, 64]),
   midi.NoteOnEvent(tick=720, channel=8, data=[49, 0]),
   midi.NoteOnEvent(tick=0, channel=8, data=[50, 64]),
   midi.NoteOnEvent(tick=720, channel=8, data=[50, 0]),
   midi.NoteOnEvent(tick=0, channel=8, data=[43, 64]),
   midi.NoteOnEvent(tick=2160, channel=8, data=[43, 0]),
   midi.EndOfTrackEvent(tick=0, data=[])]),
 midi.Track(\
  [midi.PortEvent(tick=0, data=[0]),
   midi.TrackNameEvent(tick=0, text='Organ', data=[79, 114, 103, 97, 110]),
   midi.ProgramChangeEvent(tick=0, channel=10, data=[19]),
   midi.ControlChangeEvent(tick=0, channel=10, data=[7, 95]),
   midi.ControlChangeEvent(tick=0, channel=10, data=[10, 40]),
   midi.NoteOnEvent(tick=720, channel=10, data=[62, 63]),
   midi.NoteOnEvent(tick=0, channel=10, data=[67, 63]),
   midi.NoteOnEvent(tick=0, channel=10, data=[58, 63]),
   midi.NoteOnEvent(tick=0, channel=10, data=[58, 63]),
   midi.NoteOnEvent(tick=0, channel=10, data=[31, 63]),
   midi.NoteOnEvent(tick=720, channel=10, data=[31, 0]),
   midi.NoteOnEvent(tick=0, channel=10, data=[29, 62]),
   midi.NoteOnEvent(tick=720, channel=10, data=[29, 0]),
   midi.NoteOnEvent(tick=0, channel=10, data=[58, 0]),
   midi.NoteOnEvent(tick=0, channel=10, data=[62, 0]),
   midi.NoteOnEvent(tick=0, channel=10, data=[67, 0]),
   midi.NoteOnEvent(tick=0, channel=10, data=[58, 0]),
   midi.NoteOnEvent(tick=0, channel=10, data=[27, 61]),
   midi.NoteOnEvent(tick=720, channel=10, data=[27, 0]),
   midi.NoteOnEvent(tick=0, channel=10, data=[26, 60]),
   midi.NoteOnEvent(tick=720, channel=10, data=[26, 0]),
   midi.NoteOnEvent(tick=0, channel=10, data=[24, 59]),
   midi.NoteOnEvent(tick=720, channel=10, data=[24, 0]),
   midi.NoteOnEvent(tick=0, channel=10, data=[25, 58]),
   midi.NoteOnEvent(tick=720, channel=10, data=[25, 0]),
   midi.NoteOnEvent(tick=0, channel=10, data=[26, 57]),
   midi.NoteOnEvent(tick=720, channel=10, data=[26, 0]),
   midi.NoteOnEvent(tick=0, channel=10, data=[31, 64]),
   midi.NoteOnEvent(tick=720, channel=10, data=[31, 0]),
   midi.NoteOnEvent(tick=12960, channel=10, data=[26, 64]),
   midi.NoteOnEvent(tick=1440, channel=10, data=[26, 0]),
   midi.NoteOnEvent(tick=0, channel=10, data=[31, 80]),
   midi.NoteOnEvent(tick=720, channel=10, data=[31, 0]),
   midi.NoteOnEvent(tick=0, channel=10, data=[29, 80]),
   midi.NoteOnEvent(tick=720, channel=10, data=[29, 0]),
   midi.NoteOnEvent(tick=0, channel=10, data=[27, 80]),
   midi.NoteOnEvent(tick=720, channel=10, data=[27, 0]),
   midi.NoteOnEvent(tick=0, channel=10, data=[26, 80]),
   midi.NoteOnEvent(tick=720, channel=10, data=[26, 0]),
   midi.NoteOnEvent(tick=0, channel=10, data=[24, 80]),
   midi.NoteOnEvent(tick=720, channel=10, data=[24, 0]),
   midi.NoteOnEvent(tick=0, channel=10, data=[25, 80]),
   midi.NoteOnEvent(tick=720, channel=10, data=[25, 0]),
   midi.NoteOnEvent(tick=0, channel=10, data=[26, 80]),
   midi.NoteOnEvent(tick=720, channel=10, data=[26, 0]),
   midi.NoteOnEvent(tick=0, channel=10, data=[31, 64]),
   midi.NoteOnEvent(tick=720, channel=10, data=[31, 0]),
   midi.NoteOnEvent(tick=12960, channel=10, data=[26, 64]),
   midi.NoteOnEvent(tick=1440, channel=10, data=[26, 0]),
   midi.NoteOnEvent(tick=0, channel=10, data=[31, 38]),
   midi.NoteOnEvent(tick=2880, channel=10, data=[31, 0]),
   midi.NoteOnEvent(tick=0, channel=10, data=[31, 51]),
   midi.NoteOnEvent(tick=6420, channel=10, data=[31, 0]),
   midi.NoteOnEvent(tick=0, channel=10, data=[31, 51]),
   midi.NoteOnEvent(tick=60, channel=10, data=[31, 0]),
   midi.NoteOnEvent(tick=0, channel=10, data=[29, 51]),
   midi.NoteOnEvent(tick=4080, channel=10, data=[29, 0]),
   midi.NoteOnEvent(tick=3120, channel=10, data=[36, 64]),
   midi.NoteOnEvent(tick=720, channel=10, data=[36, 0]),
   midi.NoteOnEvent(tick=0, channel=10, data=[34, 64]),
   midi.NoteOnEvent(tick=720, channel=10, data=[34, 0]),
   midi.NoteOnEvent(tick=0, channel=10, data=[32, 64]),
   midi.NoteOnEvent(tick=720, channel=10, data=[32, 0]),
   midi.NoteOnEvent(tick=0, channel=10, data=[31, 64]),
   midi.NoteOnEvent(tick=720, channel=10, data=[31, 0]),
   midi.NoteOnEvent(tick=0, channel=10, data=[29, 64]),
   midi.NoteOnEvent(tick=720, channel=10, data=[29, 0]),
   midi.NoteOnEvent(tick=0, channel=10, data=[30, 64]),
   midi.NoteOnEvent(tick=720, channel=10, data=[30, 0]),
   midi.NoteOnEvent(tick=0, channel=10, data=[31, 64]),
   midi.NoteOnEvent(tick=720, channel=10, data=[31, 0]),
   midi.NoteOnEvent(tick=0, channel=10, data=[36, 64]),
   midi.NoteOnEvent(tick=720, channel=10, data=[36, 0]),
   midi.NoteOnEvent(tick=18600, channel=10, data=[27, 80]),
   midi.NoteOnEvent(tick=120, channel=10, data=[27, 0]),
   midi.NoteOnEvent(tick=0, channel=10, data=[29, 80]),
   midi.NoteOnEvent(tick=720, channel=10, data=[29, 0]),
   midi.NoteOnEvent(tick=0, channel=10, data=[31, 80]),
   midi.NoteOnEvent(tick=480, channel=10, data=[31, 0]),
   midi.NoteOnEvent(tick=960, channel=10, data=[28, 80]),
   midi.NoteOnEvent(tick=720, channel=10, data=[28, 0]),
   midi.NoteOnEvent(tick=0, channel=10, data=[29, 80]),
   midi.NoteOnEvent(tick=720, channel=10, data=[29, 0]),
   midi.NoteOnEvent(tick=0, channel=10, data=[39, 80]),
   midi.NoteOnEvent(tick=720, channel=10, data=[39, 0]),
   midi.NoteOnEvent(tick=0, channel=10, data=[37, 80]),
   midi.NoteOnEvent(tick=720, channel=10, data=[37, 0]),
   midi.NoteOnEvent(tick=0, channel=10, data=[31, 80]),
   midi.NoteOnEvent(tick=720, channel=10, data=[31, 0]),
   midi.NoteOnEvent(tick=0, channel=10, data=[31, 80]),
   midi.NoteOnEvent(tick=720, channel=10, data=[31, 0]),
   midi.NoteOnEvent(tick=0, channel=10, data=[32, 64]),
   midi.NoteOnEvent(tick=720, channel=10, data=[32, 0]),
   midi.NoteOnEvent(tick=0, channel=10, data=[31, 64]),
   midi.NoteOnEvent(tick=720, channel=10, data=[31, 0]),
   midi.NoteOnEvent(tick=0, channel=10, data=[30, 80]),
   midi.NoteOnEvent(tick=480, channel=10, data=[30, 0]),
   midi.NoteOnEvent(tick=180, channel=10, data=[30, 80]),
   midi.NoteOnEvent(tick=60, channel=10, data=[30, 0]),
   midi.NoteOnEvent(tick=0, channel=10, data=[31, 80]),
   midi.NoteOnEvent(tick=720, channel=10, data=[31, 0]),
   midi.NoteOnEvent(tick=7920, channel=10, data=[37, 80]),
   midi.NoteOnEvent(tick=480, channel=10, data=[37, 0]),
   midi.NoteOnEvent(tick=180, channel=10, data=[37, 64]),
   midi.NoteOnEvent(tick=60, channel=10, data=[37, 0]),
   midi.NoteOnEvent(tick=0, channel=10, data=[26, 64]),
   midi.NoteOnEvent(tick=720, channel=10, data=[26, 0]),
   midi.NoteOnEvent(tick=0, channel=10, data=[24, 64]),
   midi.NoteOnEvent(tick=720, channel=10, data=[24, 0]),
   midi.NoteOnEvent(tick=0, channel=10, data=[25, 64]),
   midi.NoteOnEvent(tick=720, channel=10, data=[25, 0]),
   midi.NoteOnEvent(tick=0, channel=10, data=[26, 64]),
   midi.NoteOnEvent(tick=720, channel=10, data=[26, 0]),
   midi.NoteOnEvent(tick=0, channel=10, data=[31, 64]),
   midi.NoteOnEvent(tick=2160, channel=10, data=[31, 0]),
   midi.EndOfTrackEvent(tick=0, data=[])]),
 midi.Track(\
  [midi.PortEvent(tick=0, data=[0]),
   midi.TrackNameEvent(tick=0, text='Albinoni : Adagio in G-min', data=[65, 108, 98, 105, 110, 111, 110, 105, 32, 58, 32, 65, 100, 97, 103, 105, 111, 32, 105, 110, 32, 71, 45, 109, 105, 110]),
   midi.EndOfTrackEvent(tick=0, data=[])])])
