midi.Pattern(format=0, resolution=120, tracks=\
[midi.Track(\
  [midi.TrackNameEvent(tick=0, text='untitled', data=[117, 110, 116, 105, 116, 108, 101, 100]),
   midi.CopyrightMetaEvent(tick=0, text='Copyright \xa9 1997 by Jennifer Weir', data=[67, 111, 112, 121, 114, 105, 103, 104, 116, 32, 169, 32, 49, 57, 57, 55, 32, 98, 121, 32, 74, 101, 110, 110, 105, 102, 101, 114, 32, 87, 101, 105, 114]),
   midi.TextMetaEvent(tick=0, text='Jennifer Weir', data=[74, 101, 110, 110, 105, 102, 101, 114, 32, 87, 101, 105, 114]),
   midi.TimeSignatureEvent(tick=0, data=[4, 2, 24, 8]),
   midi.KeySignatureEvent(tick=0, data=[4, 0]),
   midi.SetTempoEvent(tick=0, data=[6, 114, 135]),
   midi.NoteOnEvent(tick=4, channel=0, data=[71, 66]),
   midi.ControlChangeEvent(tick=1, channel=0, data=[64, 127]),
   midi.ControlChangeEvent(tick=13, channel=0, data=[64, 127]),
   midi.NoteOnEvent(tick=34, channel=0, data=[52, 50]),
   midi.NoteOnEvent(tick=2, channel=0, data=[56, 40]),
   midi.NoteOnEvent(tick=3, channel=0, data=[59, 19]),
   midi.NoteOnEvent(tick=5, channel=0, data=[52, 0]),
   midi.NoteOnEvent(tick=6, channel=0, data=[59, 0]),
   midi.NoteOnEvent(tick=1, channel=0, data=[56, 0]),
   midi.NoteOnEvent(tick=26, channel=0, data=[56, 47]),
   midi.NoteOnEvent(tick=3, channel=0, data=[52, 45]),
   midi.NoteOnEvent(tick=5, channel=0, data=[59, 33]),
   midi.NoteOnEvent(tick=4, channel=0, data=[52, 0]),
   midi.NoteOnEvent(tick=2, channel=0, data=[56, 0]),
   midi.NoteOnEvent(tick=3, channel=0, data=[59, 0]),
   midi.NoteOnEvent(tick=26, channel=0, data=[56, 41]),
   midi.NoteOnEvent(tick=4, channel=0, data=[52, 41]),
   midi.NoteOnEvent(tick=3, channel=0, data=[59, 33]),
   midi.NoteOnEvent(tick=6, channel=0, data=[52, 0]),
   midi.NoteOnEvent(tick=4, channel=0, data=[59, 0]),
   midi.NoteOnEvent(tick=3, channel=0, data=[56, 0]),
   midi.NoteOnEvent(tick=29, channel=0, data=[76, 81]),
   midi.NoteOnEvent(tick=2, channel=0, data=[71, 0]),
   midi.NoteOnEvent(tick=0, channel=0, data=[64, 73]),
   midi.NoteOnEvent(tick=43, channel=0, data=[59, 54]),
   midi.NoteOnEvent(tick=1, channel=0, data=[56, 47]),
   midi.NoteOnEvent(tick=1, channel=0, data=[52, 40]),
   midi.NoteOnEvent(tick=8, channel=0, data=[56, 0]),
   midi.NoteOnEvent(tick=0, channel=0, data=[59, 0]),
   midi.NoteOnEvent(tick=2, channel=0, data=[52, 0]),
   midi.NoteOnEvent(tick=32, channel=0, data=[56, 40]),
   midi.NoteOnEvent(tick=1, channel=0, data=[52, 50]),
   midi.NoteOnEvent(tick=2, channel=0, data=[59, 41]),
   midi.NoteOnEvent(tick=7, channel=0, data=[52, 0]),
   midi.NoteOnEvent(tick=0, channel=0, data=[56, 0]),
   midi.NoteOnEvent(tick=3, channel=0, data=[59, 0]),
   midi.NoteOnEvent(tick=12, channel=0, data=[64, 0]),
   midi.NoteOnEvent(tick=20, channel=0, data=[52, 54]),
   midi.NoteOnEvent(tick=0, channel=0, data=[56, 52]),
   midi.NoteOnEvent(tick=1, channel=0, data=[59, 47]),
   midi.NoteOnEvent(tick=7, channel=0, data=[52, 0]),
   midi.NoteOnEvent(tick=3, channel=0, data=[59, 0]),
   midi.NoteOnEvent(tick=7, channel=0, data=[56, 0]),
   midi.NoteOnEvent(tick=9, channel=0, data=[76, 0]),
   midi.NoteOnEvent(tick=20, channel=0, data=[73, 81]),
   midi.ControlChangeEvent(tick=16, channel=0, data=[64, 0]),
   midi.NoteOnEvent(tick=20, channel=0, data=[52, 54]),
   midi.NoteOnEvent(tick=3, channel=0, data=[61, 57]),
   midi.NoteOnEvent(tick=1, channel=0, data=[57, 73]),
   midi.NoteOnEvent(tick=9, channel=0, data=[57, 0]),
   midi.ControlChangeEvent(tick=2, channel=0, data=[64, 127]),
   midi.NoteOnEvent(tick=2, channel=0, data=[52, 0]),
   midi.NoteOnEvent(tick=2, channel=0, data=[61, 0]),
   midi.NoteOnEvent(tick=25, channel=0, data=[57, 59]),
   midi.NoteOnEvent(tick=1, channel=0, data=[52, 41]),
   midi.NoteOnEvent(tick=1, channel=0, data=[61, 35]),
   midi.NoteOnEvent(tick=8, channel=0, data=[57, 0]),
   midi.NoteOnEvent(tick=1, channel=0, data=[52, 0]),
   midi.NoteOnEvent(tick=1, channel=0, data=[61, 0]),
   midi.NoteOnEvent(tick=26, channel=0, data=[52, 52]),
   midi.NoteOnEvent(tick=2, channel=0, data=[57, 54]),
   midi.NoteOnEvent(tick=0, channel=0, data=[61, 54]),
   midi.NoteOnEvent(tick=11, channel=0, data=[52, 0]),
   midi.NoteOnEvent(tick=1, channel=0, data=[61, 0]),
   midi.NoteOnEvent(tick=0, channel=0, data=[57, 0]),
   midi.NoteOnEvent(tick=41, channel=0, data=[73, 0]),
   midi.NoteOnEvent(tick=0, channel=0, data=[78, 86]),
   midi.NoteOnEvent(tick=1, channel=0, data=[66, 86]),
   midi.NoteOnEvent(tick=44, channel=0, data=[52, 66]),
   midi.NoteOnEvent(tick=1, channel=0, data=[57, 77]),
   midi.NoteOnEvent(tick=0, channel=0, data=[61, 59]),
   midi.NoteOnEvent(tick=9, channel=0, data=[57, 0]),
   midi.NoteOnEvent(tick=0, channel=0, data=[52, 0]),
   midi.NoteOnEvent(tick=1, channel=0, data=[61, 0]),
   midi.NoteOnEvent(tick=29, channel=0, data=[52, 66]),
   midi.NoteOnEvent(tick=3, channel=0, data=[57, 59]),
   midi.NoteOnEvent(tick=3, channel=0, data=[61, 27]),
   midi.NoteOnEvent(tick=6, channel=0, data=[57, 0]),
   midi.NoteOnEvent(tick=2, channel=0, data=[61, 0]),
   midi.NoteOnEvent(tick=1, channel=0, data=[52, 0]),
   midi.NoteOnEvent(tick=20, channel=0, data=[66, 0]),
   midi.NoteOnEvent(tick=10, channel=0, data=[52, 50]),
   midi.NoteOnEvent(tick=5, channel=0, data=[61, 40]),
   midi.NoteOnEvent(tick=1, channel=0, data=[57, 57]),
   midi.NoteOnEvent(tick=7, channel=0, data=[61, 0]),
   midi.NoteOnEvent(tick=2, channel=0, data=[57, 0]),
   midi.NoteOnEvent(tick=3, channel=0, data=[52, 0]),
   midi.NoteOnEvent(tick=15, channel=0, data=[78, 0]),
   midi.NoteOnEvent(tick=18, channel=0, data=[75, 108]),
   midi.ControlChangeEvent(tick=9, channel=0, data=[64, 0]),
   midi.ControlChangeEvent(tick=33, channel=0, data=[64, 127]),
   midi.NoteOnEvent(tick=2, channel=0, data=[54, 69]),
   midi.NoteOnEvent(tick=0, channel=0, data=[63, 66]),
   midi.NoteOnEvent(tick=4, channel=0, data=[57, 59]),
   midi.NoteOnEvent(tick=0, channel=0, data=[52, 45]),
   midi.NoteOnEvent(tick=8, channel=0, data=[57, 0]),
   midi.NoteOnEvent(tick=0, channel=0, data=[63, 0]),
   midi.NoteOnEvent(tick=2, channel=0, data=[52, 0]),
   midi.NoteOnEvent(tick=2, channel=0, data=[54, 0]),
   midi.NoteOnEvent(tick=24, channel=0, data=[63, 66]),
   midi.NoteOnEvent(tick=1, channel=0, data=[54, 50]),
   midi.NoteOnEvent(tick=3, channel=0, data=[52, 52]),
   midi.NoteOnEvent(tick=2, channel=0, data=[57, 50]),
   midi.NoteOnEvent(tick=8, channel=0, data=[52, 0]),
   midi.NoteOnEvent(tick=1, channel=0, data=[57, 0]),
   midi.NoteOnEvent(tick=1, channel=0, data=[63, 0]),
   midi.NoteOnEvent(tick=1, channel=0, data=[54, 0]),
   midi.NoteOnEvent(tick=26, channel=0, data=[63, 66]),
   midi.NoteOnEvent(tick=2, channel=0, data=[54, 47]),
   midi.NoteOnEvent(tick=2, channel=0, data=[52, 38]),
   midi.NoteOnEvent(tick=2, channel=0, data=[57, 57]),
   midi.NoteOnEvent(tick=7, channel=0, data=[52, 0]),
   midi.NoteOnEvent(tick=1, channel=0, data=[63, 0]),
   midi.NoteOnEvent(tick=1, channel=0, data=[57, 0]),
   midi.NoteOnEvent(tick=4, channel=0, data=[54, 0]),
   midi.NoteOnEvent(tick=8, channel=0, data=[75, 0]),
   midi.NoteOnEvent(tick=19, channel=0, data=[83, 91]),
   midi.NoteOnEvent(tick=1, channel=0, data=[71, 91]),
   midi.NoteOnEvent(tick=43, channel=0, data=[63, 66]),
   midi.NoteOnEvent(tick=3, channel=0, data=[54, 54]),
   midi.NoteOnEvent(tick=3, channel=0, data=[52, 54]),
   midi.NoteOnEvent(tick=1, channel=0, data=[57, 59]),
   midi.NoteOnEvent(tick=6, channel=0, data=[63, 0]),
   midi.NoteOnEvent(tick=2, channel=0, data=[52, 0]),
   midi.NoteOnEvent(tick=2, channel=0, data=[57, 0]),
   midi.NoteOnEvent(tick=2, channel=0, data=[54, 0]),
   midi.NoteOnEvent(tick=26, channel=0, data=[54, 52]),
   midi.NoteOnEvent(tick=0, channel=0, data=[63, 52]),
   midi.NoteOnEvent(tick=2, channel=0, data=[52, 45]),
   midi.NoteOnEvent(tick=4, channel=0, data=[57, 50]),
   midi.NoteOnEvent(tick=6, channel=0, data=[52, 0]),
   midi.NoteOnEvent(tick=1, channel=0, data=[57, 0]),
   midi.NoteOnEvent(tick=3, channel=0, data=[71, 0]),
   midi.NoteOnEvent(tick=0, channel=0, data=[63, 0]),
   midi.NoteOnEvent(tick=2, channel=0, data=[54, 0]),
   midi.NoteOnEvent(tick=15, channel=0, data=[83, 0]),
   midi.NoteOnEvent(tick=6, channel=0, data=[54, 54]),
   midi.NoteOnEvent(tick=1, channel=0, data=[63, 54]),
   midi.NoteOnEvent(tick=6, channel=0, data=[52, 40]),
   midi.NoteOnEvent(tick=4, channel=0, data=[63, 0]),
   midi.NoteOnEvent(tick=4, channel=0, data=[52, 0]),
   midi.NoteOnEvent(tick=2, channel=0, data=[54, 0]),
   midi.NoteOnEvent(tick=40, channel=0, data=[64, 50]),
   midi.NoteOnEvent(tick=1, channel=0, data=[83, 81]),
   midi.NoteOnEvent(tick=1, channel=0, data=[52, 66]),
   midi.NoteOnEvent(tick=0, channel=0, data=[56, 66]),
   midi.NoteOnEvent(tick=1, channel=0, data=[59, 66]),
   midi.ControlChangeEvent(tick=1, channel=0, data=[64, 0]),
   midi.ControlChangeEvent(tick=38, channel=0, data=[64, 127]),
   midi.NoteOnEvent(tick=102, channel=0, data=[83, 0]),
   midi.NoteOnEvent(tick=0, channel=0, data=[85, 73]),
   midi.NoteOnEvent(tick=14, channel=0, data=[85, 0]),
   midi.NoteOnEvent(tick=6, channel=0, data=[87, 59]),
   midi.NoteOnEvent(tick=8, channel=0, data=[87, 0]),
   midi.ControlChangeEvent(tick=5, channel=0, data=[64, 0]),
   midi.NoteOnEvent(tick=10, channel=0, data=[88, 73]),
   midi.NoteOnEvent(tick=107, channel=0, data=[88, 0]),
   midi.NoteOnEvent(tick=10, channel=0, data=[52, 0]),
   midi.NoteOnEvent(tick=2, channel=0, data=[64, 0]),
   midi.NoteOnEvent(tick=3, channel=0, data=[59, 0]),
   midi.NoteOnEvent(tick=3, channel=0, data=[56, 0]),
   midi.NoteOnEvent(tick=63, channel=0, data=[80, 69]),
   midi.NoteOnEvent(tick=18, channel=0, data=[80, 0]),
   midi.NoteOnEvent(tick=4, channel=0, data=[76, 69]),
   midi.NoteOnEvent(tick=13, channel=0, data=[76, 0]),
   midi.NoteOnEvent(tick=12, channel=0, data=[81, 52]),
   midi.NoteOnEvent(tick=16, channel=0, data=[81, 0]),
   midi.NoteOnEvent(tick=6, channel=0, data=[78, 54]),
   midi.NoteOnEvent(tick=20, channel=0, data=[78, 0]),
   midi.NoteOnEvent(tick=5, channel=0, data=[83, 54]),
   midi.NoteOnEvent(tick=20, channel=0, data=[83, 0]),
   midi.NoteOnEvent(tick=3, channel=0, data=[80, 54]),
   midi.NoteOnEvent(tick=22, channel=0, data=[80, 0]),
   midi.NoteOnEvent(tick=3, channel=0, data=[85, 54]),
   midi.NoteOnEvent(tick=27, channel=0, data=[81, 57]),
   midi.NoteOnEvent(tick=1, channel=0, data=[85, 0]),
   midi.NoteOnEvent(tick=16, channel=0, data=[81, 0]),
   midi.NoteOnEvent(tick=9, channel=0, data=[83, 66]),
   midi.NoteOnEvent(tick=1, channel=0, data=[68, 50]),
   midi.NoteOnEvent(tick=22, channel=0, data=[83, 0]),
   midi.NoteOnEvent(tick=3, channel=0, data=[68, 0]),
   midi.NoteOnEvent(tick=1, channel=0, data=[64, 69]),
   midi.NoteOnEvent(tick=31, channel=0, data=[69, 54]),
   midi.NoteOnEvent(tick=4, channel=0, data=[64, 0]),
   midi.NoteOnEvent(tick=17, channel=0, data=[66, 52]),
   midi.NoteOnEvent(tick=4, channel=0, data=[69, 0]),
   midi.NoteOnEvent(tick=29, channel=0, data=[66, 0]),
   midi.NoteOnEvent(tick=1, channel=0, data=[71, 47]),
   midi.NoteOnEvent(tick=17, channel=0, data=[71, 0]),
   midi.NoteOnEvent(tick=2, channel=0, data=[68, 57]),
   midi.NoteOnEvent(tick=26, channel=0, data=[73, 66]),
   midi.NoteOnEvent(tick=2, channel=0, data=[68, 0]),
   midi.NoteOnEvent(tick=22, channel=0, data=[73, 0]),
   midi.NoteOnEvent(tick=2, channel=0, data=[69, 66]),
   midi.NoteOnEvent(tick=29, channel=0, data=[56, 66]),
   midi.NoteOnEvent(tick=5, channel=0, data=[71, 66]),
   midi.NoteOnEvent(tick=4, channel=0, data=[69, 0]),
   midi.NoteOnEvent(tick=14, channel=0, data=[56, 0]),
   midi.NoteOnEvent(tick=2, channel=0, data=[52, 69]),
   midi.NoteOnEvent(tick=21, channel=0, data=[71, 0]),
   midi.NoteOnEvent(tick=1, channel=0, data=[52, 0]),
   midi.NoteOnEvent(tick=6, channel=0, data=[57, 59]),
   midi.NoteOnEvent(tick=25, channel=0, data=[57, 0]),
   midi.NoteOnEvent(tick=0, channel=0, data=[54, 54]),
   midi.NoteOnEvent(tick=25, channel=0, data=[54, 0]),
   midi.NoteOnEvent(tick=2, channel=0, data=[59, 59]),
   midi.NoteOnEvent(tick=24, channel=0, data=[59, 0]),
   midi.NoteOnEvent(tick=2, channel=0, data=[56, 69]),
   midi.NoteOnEvent(tick=22, channel=0, data=[56, 0]),
   midi.NoteOnEvent(tick=1, channel=0, data=[61, 66]),
   midi.NoteOnEvent(tick=27, channel=0, data=[57, 69]),
   midi.NoteOnEvent(tick=3, channel=0, data=[61, 0]),
   midi.NoteOnEvent(tick=16, channel=0, data=[44, 66]),
   midi.NoteOnEvent(tick=3, channel=0, data=[57, 0]),
   midi.NoteOnEvent(tick=8, channel=0, data=[59, 73]),
   midi.NoteOnEvent(tick=19, channel=0, data=[40, 81]),
   midi.NoteOnEvent(tick=1, channel=0, data=[44, 0]),
   midi.NoteOnEvent(tick=27, channel=0, data=[45, 77]),
   midi.NoteOnEvent(tick=7, channel=0, data=[40, 0]),
   midi.NoteOnEvent(tick=12, channel=0, data=[59, 0]),
   midi.NoteOnEvent(tick=6, channel=0, data=[42, 69]),
   midi.NoteOnEvent(tick=3, channel=0, data=[45, 0]),
   midi.NoteOnEvent(tick=25, channel=0, data=[47, 73]),
   midi.NoteOnEvent(tick=2, channel=0, data=[42, 0]),
   midi.NoteOnEvent(tick=22, channel=0, data=[47, 0]),
   midi.NoteOnEvent(tick=0, channel=0, data=[44, 66]),
   midi.NoteOnEvent(tick=27, channel=0, data=[49, 73]),
   midi.NoteOnEvent(tick=7, channel=0, data=[44, 0]),
   midi.NoteOnEvent(tick=16, channel=0, data=[46, 73]),
   midi.NoteOnEvent(tick=7, channel=0, data=[49, 0]),
   midi.NoteOnEvent(tick=26, channel=0, data=[47, 91]),
   midi.NoteOnEvent(tick=4, channel=0, data=[46, 0]),
   midi.NoteOnEvent(tick=51, channel=0, data=[59, 69]),
   midi.NoteOnEvent(tick=53, channel=0, data=[68, 66]),
   midi.NoteOnEvent(tick=46, channel=0, data=[68, 0]),
   midi.NoteOnEvent(tick=5, channel=0, data=[56, 52]),
   midi.NoteOnEvent(tick=2, channel=0, data=[64, 69]),
   midi.NoteOnEvent(tick=42, channel=0, data=[64, 0]),
   midi.NoteOnEvent(tick=10, channel=0, data=[56, 0]),
   midi.NoteOnEvent(tick=2, channel=0, data=[69, 54]),
   midi.NoteOnEvent(tick=0, channel=0, data=[51, 45]),
   midi.NoteOnEvent(tick=16, channel=0, data=[59, 0]),
   midi.NoteOnEvent(tick=31, channel=0, data=[69, 0]),
   midi.NoteOnEvent(tick=4, channel=0, data=[66, 50]),
   midi.NoteOnEvent(tick=2, channel=0, data=[54, 40]),
   midi.ControlChangeEvent(tick=5, channel=0, data=[64, 127]),
   midi.NoteOnEvent(tick=28, channel=0, data=[66, 0]),
   midi.NoteOnEvent(tick=0, channel=0, data=[51, 0]),
   midi.NoteOnEvent(tick=2, channel=0, data=[47, 0]),
   midi.NoteOnEvent(tick=9, channel=0, data=[54, 0]),
   midi.NoteOnEvent(tick=4, channel=0, data=[57, 52]),
   midi.NoteOnEvent(tick=5, channel=0, data=[63, 69]),
   midi.NoteOnEvent(tick=21, channel=0, data=[57, 0]),
   midi.NoteOnEvent(tick=2, channel=0, data=[63, 0]),
   midi.NoteOnEvent(tick=24, channel=0, data=[71, 69]),
   midi.NoteOnEvent(tick=9, channel=0, data=[71, 0]),
   midi.NoteOnEvent(tick=20, channel=0, data=[47, 66]),
   midi.NoteOnEvent(tick=12, channel=0, data=[52, 73]),
   midi.NoteOnEvent(tick=7, channel=0, data=[47, 0]),
   midi.NoteOnEvent(tick=8, channel=0, data=[56, 73]),
   midi.ControlChangeEvent(tick=4, channel=0, data=[64, 0]),
   midi.NoteOnEvent(tick=7, channel=0, data=[52, 0]),
   midi.NoteOnEvent(tick=4, channel=0, data=[59, 69]),
   midi.NoteOnEvent(tick=6, channel=0, data=[73, 73]),
   midi.NoteOnEvent(tick=6, channel=0, data=[56, 0]),
   midi.NoteOnEvent(tick=8, channel=0, data=[73, 0]),
   midi.NoteOnEvent(tick=4, channel=0, data=[71, 69]),
   midi.ControlChangeEvent(tick=6, channel=0, data=[64, 127]),
   midi.NoteOnEvent(tick=5, channel=0, data=[71, 0]),
   midi.NoteOnEvent(tick=4, channel=0, data=[70, 73]),
   midi.NoteOnEvent(tick=15, channel=0, data=[70, 0]),
   midi.NoteOnEvent(tick=6, channel=0, data=[71, 73]),
   midi.NoteOnEvent(tick=30, channel=0, data=[80, 81]),
   midi.NoteOnEvent(tick=32, channel=0, data=[80, 0]),
   midi.NoteOnEvent(tick=18, channel=0, data=[68, 69]),
   midi.NoteOnEvent(tick=2, channel=0, data=[76, 86]),
   midi.NoteOnEvent(tick=18, channel=0, data=[59, 0]),
   midi.NoteOnEvent(tick=4, channel=0, data=[76, 0]),
   midi.NoteOnEvent(tick=11, channel=0, data=[68, 0]),
   midi.NoteOnEvent(tick=21, channel=0, data=[63, 57]),
   midi.NoteOnEvent(tick=2, channel=0, data=[81, 77]),
   midi.ControlChangeEvent(tick=3, channel=0, data=[64, 0]),
   midi.NoteOnEvent(tick=49, channel=0, data=[66, 57]),
   midi.NoteOnEvent(tick=1, channel=0, data=[78, 77]),
   midi.NoteOnEvent(tick=4, channel=0, data=[81, 0]),
   midi.NoteOnEvent(tick=1, channel=0, data=[71, 0]),
   midi.ControlChangeEvent(tick=13, channel=0, data=[64, 127]),
   midi.NoteOnEvent(tick=30, channel=0, data=[63, 0]),
   midi.NoteOnEvent(tick=1, channel=0, data=[78, 0]),
   midi.NoteOnEvent(tick=3, channel=0, data=[66, 0]),
   midi.NoteOnEvent(tick=1, channel=0, data=[69, 73]),
   midi.NoteOnEvent(tick=1, channel=0, data=[75, 86]),
   midi.NoteOnEvent(tick=21, channel=0, data=[69, 0]),
   midi.NoteOnEvent(tick=16, channel=0, data=[75, 0]),
   midi.NoteOnEvent(tick=16, channel=0, data=[83, 86]),
   midi.NoteOnEvent(tick=19, channel=0, data=[83, 0]),
   midi.NoteOnEvent(tick=33, channel=0, data=[64, 77]),
   midi.NoteOnEvent(tick=0, channel=0, data=[68, 57]),
   midi.ControlChangeEvent(tick=3, channel=0, data=[64, 0]),
   midi.NoteOnEvent(tick=3, channel=0, data=[71, 86]),
   midi.NoteOnEvent(tick=0, channel=0, data=[83, 102]),
   midi.NoteOnEvent(tick=20, channel=0, data=[71, 0]),
   midi.NoteOnEvent(tick=12, channel=0, data=[64, 0]),
   midi.NoteOnEvent(tick=2, channel=0, data=[71, 8]),
   midi.ControlChangeEvent(tick=0, channel=0, data=[64, 127]),
   midi.NoteOnEvent(tick=68, channel=0, data=[56, 69]),
   midi.NoteOnEvent(tick=31, channel=0, data=[71, 0]),
   midi.NoteOnEvent(tick=23, channel=0, data=[83, 0]),
   midi.NoteOnEvent(tick=1, channel=0, data=[81, 77]),
   midi.NoteOnEvent(tick=2, channel=0, data=[56, 0]),
   midi.NoteOnEvent(tick=20, channel=0, data=[81, 0]),
   midi.NoteOnEvent(tick=2, channel=0, data=[80, 59]),
   midi.ControlChangeEvent(tick=27, channel=0, data=[64, 0]),
   midi.NoteOnEvent(tick=0, channel=0, data=[78, 77]),
   midi.NoteOnEvent(tick=1, channel=0, data=[73, 69]),
   midi.NoteOnEvent(tick=2, channel=0, data=[57, 73]),
   midi.NoteOnEvent(tick=1, channel=0, data=[80, 0]),
   midi.NoteOnEvent(tick=20, channel=0, data=[78, 0]),
   midi.ControlChangeEvent(tick=14, channel=0, data=[64, 127]),
   midi.NoteOnEvent(tick=13, channel=0, data=[76, 77]),
   midi.NoteOnEvent(tick=6, channel=0, data=[73, 0]),
   midi.NoteOnEvent(tick=9, channel=0, data=[57, 0]),
   midi.NoteOnEvent(tick=11, channel=0, data=[76, 0]),
   midi.NoteOnEvent(tick=27, channel=0, data=[75, 81]),
   midi.NoteOnEvent(tick=2, channel=0, data=[58, 69]),
   midi.NoteOnEvent(tick=2, channel=0, data=[68, 0]),
   midi.NoteOnEvent(tick=16, channel=0, data=[75, 0]),
   midi.NoteOnEvent(tick=35, channel=0, data=[73, 81]),
   midi.NoteOnEvent(tick=10, channel=0, data=[73, 0]),
   midi.NoteOnEvent(tick=44, channel=0, data=[64, 66]),
   midi.NoteOnEvent(tick=1, channel=0, data=[58, 0]),
   midi.NoteOnEvent(tick=0, channel=0, data=[68, 73]),
   midi.NoteOnEvent(tick=0, channel=0, data=[59, 69]),
   midi.NoteOnEvent(tick=0, channel=0, data=[71, 66]),
   midi.ControlChangeEvent(tick=3, channel=0, data=[64, 0]),
   midi.ControlChangeEvent(tick=44, channel=0, data=[64, 127]),
   midi.NoteOnEvent(tick=6, channel=0, data=[68, 0]),
   midi.NoteOnEvent(tick=48, channel=0, data=[59, 0]),
   midi.NoteOnEvent(tick=12, channel=0, data=[67, 77]),
   midi.NoteOnEvent(tick=16, channel=0, data=[64, 0]),
   midi.NoteOnEvent(tick=91, channel=0, data=[58, 37]),
   midi.NoteOnEvent(tick=0, channel=0, data=[66, 45]),
   midi.ControlChangeEvent(tick=0, channel=0, data=[64, 0]),
   midi.NoteOnEvent(tick=2, channel=0, data=[47, 52]),
   midi.NoteOnEvent(tick=4, channel=0, data=[67, 0]),
   midi.ControlChangeEvent(tick=35, channel=0, data=[64, 127]),
   midi.NoteOnEvent(tick=9, channel=0, data=[58, 0]),
   midi.NoteOnEvent(tick=18, channel=0, data=[71, 0]),
   midi.NoteOnEvent(tick=13, channel=0, data=[47, 0]),
   midi.NoteOnEvent(tick=25, channel=0, data=[66, 0]),
   midi.NoteOnEvent(tick=2, channel=0, data=[63, 59]),
   midi.NoteOnEvent(tick=0, channel=0, data=[57, 57]),
   midi.NoteOnEvent(tick=24, channel=0, data=[63, 0]),
   midi.NoteOnEvent(tick=5, channel=0, data=[57, 0]),
   midi.NoteOnEvent(tick=71, channel=0, data=[52, 73]),
   midi.ControlChangeEvent(tick=1, channel=0, data=[64, 0]),
   midi.NoteOnEvent(tick=1, channel=0, data=[56, 52]),
   midi.NoteOnEvent(tick=1, channel=0, data=[71, 77]),
   midi.NoteOnEvent(tick=0, channel=0, data=[59, 77]),
   midi.NoteOnEvent(tick=3, channel=0, data=[64, 81]),
   midi.ControlChangeEvent(tick=34, channel=0, data=[64, 127]),
   midi.NoteOnEvent(tick=5, channel=0, data=[52, 0]),
   midi.NoteOnEvent(tick=68, channel=0, data=[44, 69]),
   midi.ControlChangeEvent(tick=2, channel=0, data=[64, 0]),
   midi.ControlChangeEvent(tick=38, channel=0, data=[64, 127]),
   midi.NoteOnEvent(tick=6, channel=0, data=[64, 0]),
   midi.NoteOnEvent(tick=4, channel=0, data=[59, 0]),
   midi.NoteOnEvent(tick=5, channel=0, data=[69, 81]),
   midi.NoteOnEvent(tick=7, channel=0, data=[71, 0]),
   midi.NoteOnEvent(tick=3, channel=0, data=[44, 0]),
   midi.NoteOnEvent(tick=10, channel=0, data=[68, 59]),
   midi.NoteOnEvent(tick=2, channel=0, data=[69, 0]),
   midi.ControlChangeEvent(tick=19, channel=0, data=[64, 0]),
   midi.NoteOnEvent(tick=7, channel=0, data=[66, 69]),
   midi.NoteOnEvent(tick=1, channel=0, data=[68, 0]),
   midi.NoteOnEvent(tick=1, channel=0, data=[45, 73]),
   midi.NoteOnEvent(tick=3, channel=0, data=[61, 66]),
   midi.NoteOnEvent(tick=20, channel=0, data=[66, 0]),
   midi.ControlChangeEvent(tick=5, channel=0, data=[64, 127]),
   midi.NoteOnEvent(tick=26, channel=0, data=[64, 77]),
   midi.NoteOnEvent(tick=4, channel=0, data=[61, 0]),
   midi.NoteOnEvent(tick=28, channel=0, data=[64, 0]),
   midi.NoteOnEvent(tick=9, channel=0, data=[56, 0]),
   midi.NoteOnEvent(tick=6, channel=0, data=[45, 0]),
   midi.NoteOnEvent(tick=0, channel=0, data=[46, 73]),
   midi.NoteOnEvent(tick=1, channel=0, data=[63, 81]),
   midi.NoteOnEvent(tick=28, channel=0, data=[63, 0]),
   midi.NoteOnEvent(tick=21, channel=0, data=[61, 77]),
   midi.NoteOnEvent(tick=13, channel=0, data=[61, 0]),
   midi.NoteOnEvent(tick=37, channel=0, data=[46, 0]),
   midi.NoteOnEvent(tick=0, channel=0, data=[47, 69]),
   midi.NoteOnEvent(tick=1, channel=0, data=[56, 50]),
   midi.NoteOnEvent(tick=5, channel=0, data=[59, 54]),
   midi.NoteOnEvent(tick=1, channel=0, data=[52, 52]),
   midi.ControlChangeEvent(tick=0, channel=0, data=[64, 0]),
   midi.ControlChangeEvent(tick=42, channel=0, data=[64, 127]),
   midi.NoteOnEvent(tick=16, channel=0, data=[56, 0]),
   midi.NoteOnEvent(tick=42, channel=0, data=[47, 0]),
   midi.NoteOnEvent(tick=7, channel=0, data=[55, 59]),
   midi.NoteOnEvent(tick=28, channel=0, data=[52, 0]),
   midi.ControlChangeEvent(tick=75, channel=0, data=[64, 0]),
   midi.NoteOnEvent(tick=2, channel=0, data=[54, 57]),
   midi.NoteOnEvent(tick=1, channel=0, data=[35, 57]),
   midi.NoteOnEvent(tick=5, channel=0, data=[55, 0]),
   midi.NoteOnEvent(tick=0, channel=0, data=[46, 29]),
   midi.NoteOnEvent(tick=5, channel=0, data=[59, 0]),
   midi.ControlChangeEvent(tick=24, channel=0, data=[64, 127]),
   midi.NoteOnEvent(tick=9, channel=0, data=[46, 0]),
   midi.NoteOnEvent(tick=59, channel=0, data=[45, 69]),
   midi.NoteOnEvent(tick=7, channel=0, data=[51, 69]),
   midi.NoteOnEvent(tick=6, channel=0, data=[54, 0]),
   midi.NoteOnEvent(tick=12, channel=0, data=[35, 0]),
   midi.NoteOnEvent(tick=63, channel=0, data=[45, 0]),
   midi.NoteOnEvent(tick=18, channel=0, data=[59, 66]),
   midi.NoteOnEvent(tick=9, channel=0, data=[51, 0]),
   midi.ControlChangeEvent(tick=4, channel=0, data=[64, 0]),
   midi.NoteOnEvent(tick=41, channel=0, data=[44, 40]),
   midi.NoteOnEvent(tick=1, channel=0, data=[40, 54]),
   midi.ControlChangeEvent(tick=5, channel=0, data=[64, 127]),
   midi.NoteOnEvent(tick=4, channel=0, data=[44, 0]),
   midi.NoteOnEvent(tick=1, channel=0, data=[40, 0]),
   midi.NoteOnEvent(tick=44, channel=0, data=[40, 47]),
   midi.NoteOnEvent(tick=1, channel=0, data=[44, 29]),
   midi.NoteOnEvent(tick=9, channel=0, data=[40, 0]),
   midi.NoteOnEvent(tick=1, channel=0, data=[44, 0]),
   midi.NoteOnEvent(tick=33, channel=0, data=[44, 40]),
   midi.NoteOnEvent(tick=6, channel=0, data=[40, 35]),
   midi.NoteOnEvent(tick=9, channel=0, data=[40, 0]),
   midi.NoteOnEvent(tick=2, channel=0, data=[44, 0]),
   midi.NoteOnEvent(tick=38, channel=0, data=[59, 0]),
   midi.NoteOnEvent(tick=5, channel=0, data=[52, 77]),
   midi.NoteOnEvent(tick=1, channel=0, data=[64, 86]),
   midi.ControlChangeEvent(tick=9, channel=0, data=[64, 0]),
   midi.ControlChangeEvent(tick=37, channel=0, data=[64, 127]),
   midi.NoteOnEvent(tick=3, channel=0, data=[44, 57]),
   midi.NoteOnEvent(tick=3, channel=0, data=[40, 47]),
   midi.NoteOnEvent(tick=9, channel=0, data=[40, 0]),
   midi.NoteOnEvent(tick=6, channel=0, data=[44, 0]),
   midi.NoteOnEvent(tick=35, channel=0, data=[44, 45]),
   midi.NoteOnEvent(tick=5, channel=0, data=[40, 52]),
   midi.NoteOnEvent(tick=9, channel=0, data=[40, 0]),
   midi.NoteOnEvent(tick=0, channel=0, data=[44, 0]),
   midi.NoteOnEvent(tick=9, channel=0, data=[52, 0]),
   midi.NoteOnEvent(tick=24, channel=0, data=[44, 52]),
   midi.NoteOnEvent(tick=6, channel=0, data=[40, 47]),
   midi.NoteOnEvent(tick=9, channel=0, data=[40, 0]),
   midi.NoteOnEvent(tick=3, channel=0, data=[44, 0]),
   midi.NoteOnEvent(tick=16, channel=0, data=[64, 0]),
   midi.NoteOnEvent(tick=25, channel=0, data=[61, 81]),
   midi.ControlChangeEvent(tick=14, channel=0, data=[64, 0]),
   midi.ControlChangeEvent(tick=36, channel=0, data=[64, 127]),
   midi.NoteOnEvent(tick=2, channel=0, data=[40, 54]),
   midi.NoteOnEvent(tick=0, channel=0, data=[45, 54]),
   midi.NoteOnEvent(tick=8, channel=0, data=[40, 0]),
   midi.NoteOnEvent(tick=3, channel=0, data=[45, 0]),
   midi.NoteOnEvent(tick=41, channel=0, data=[45, 54]),
   midi.NoteOnEvent(tick=1, channel=0, data=[40, 50]),
   midi.NoteOnEvent(tick=8, channel=0, data=[45, 0]),
   midi.NoteOnEvent(tick=1, channel=0, data=[40, 0]),
   midi.NoteOnEvent(tick=40, channel=0, data=[45, 69]),
   midi.NoteOnEvent(tick=3, channel=0, data=[40, 50]),
   midi.NoteOnEvent(tick=7, channel=0, data=[45, 0]),
   midi.NoteOnEvent(tick=1, channel=0, data=[40, 0]),
   midi.NoteOnEvent(tick=38, channel=0, data=[61, 0]),
   midi.NoteOnEvent(tick=4, channel=0, data=[66, 86]),
   midi.NoteOnEvent(tick=2, channel=0, data=[54, 86]),
   midi.ControlChangeEvent(tick=7, channel=0, data=[64, 0]),
   midi.ControlChangeEvent(tick=38, channel=0, data=[64, 127]),
   midi.NoteOnEvent(tick=6, channel=0, data=[46, 57]),
   midi.NoteOnEvent(tick=0, channel=0, data=[40, 57]),
   midi.NoteOnEvent(tick=8, channel=0, data=[46, 0]),
   midi.NoteOnEvent(tick=2, channel=0, data=[40, 0]),
   midi.NoteOnEvent(tick=42, channel=0, data=[54, 0]),
   midi.NoteOnEvent(tick=1, channel=0, data=[46, 54]),
   midi.NoteOnEvent(tick=2, channel=0, data=[40, 57]),
   midi.NoteOnEvent(tick=8, channel=0, data=[46, 0]),
   midi.NoteOnEvent(tick=1, channel=0, data=[40, 0]),
   midi.NoteOnEvent(tick=7, channel=0, data=[66, 0]),
   midi.NoteOnEvent(tick=28, channel=0, data=[46, 54]),
   midi.NoteOnEvent(tick=5, channel=0, data=[40, 54]),
   midi.NoteOnEvent(tick=9, channel=0, data=[40, 0]),
   midi.NoteOnEvent(tick=3, channel=0, data=[46, 0]),
   midi.NoteOnEvent(tick=43, channel=0, data=[68, 86]),
   midi.NoteOnEvent(tick=1, channel=0, data=[56, 91]),
   midi.ControlChangeEvent(tick=9, channel=0, data=[64, 0]),
   midi.ControlChangeEvent(tick=35, channel=0, data=[64, 127]),
   midi.NoteOnEvent(tick=6, channel=0, data=[40, 59]),
   midi.NoteOnEvent(tick=2, channel=0, data=[47, 66]),
   midi.NoteOnEvent(tick=8, channel=0, data=[40, 0]),
   midi.NoteOnEvent(tick=1, channel=0, data=[47, 0]),
   midi.NoteOnEvent(tick=28, channel=0, data=[56, 0]),
   midi.NoteOnEvent(tick=16, channel=0, data=[47, 57]),
   midi.NoteOnEvent(tick=1, channel=0, data=[68, 0]),
   midi.NoteOnEvent(tick=1, channel=0, data=[40, 52]),
   midi.NoteOnEvent(tick=7, channel=0, data=[40, 0]),
   midi.NoteOnEvent(tick=2, channel=0, data=[47, 0]),
   midi.NoteOnEvent(tick=40, channel=0, data=[47, 59]),
   midi.NoteOnEvent(tick=1, channel=0, data=[40, 50]),
   midi.NoteOnEvent(tick=8, channel=0, data=[47, 0]),
   midi.NoteOnEvent(tick=1, channel=0, data=[40, 0]),
   midi.NoteOnEvent(tick=46, channel=0, data=[57, 91]),
   midi.NoteOnEvent(tick=1, channel=0, data=[69, 102]),
   midi.ControlChangeEvent(tick=8, channel=0, data=[64, 0]),
   midi.ControlChangeEvent(tick=35, channel=0, data=[64, 127]),
   midi.NoteOnEvent(tick=5, channel=0, data=[40, 66]),
   midi.NoteOnEvent(tick=3, channel=0, data=[48, 69]),
   midi.NoteOnEvent(tick=6, channel=0, data=[57, 0]),
   midi.NoteOnEvent(tick=1, channel=0, data=[48, 0]),
   midi.NoteOnEvent(tick=0, channel=0, data=[40, 0]),
   midi.NoteOnEvent(tick=42, channel=0, data=[48, 73]),
   midi.NoteOnEvent(tick=2, channel=0, data=[69, 0]),
   midi.NoteOnEvent(tick=2, channel=0, data=[40, 41]),
   midi.NoteOnEvent(tick=6, channel=0, data=[48, 0]),
   midi.NoteOnEvent(tick=3, channel=0, data=[40, 0]),
   midi.NoteOnEvent(tick=38, channel=0, data=[48, 66]),
   midi.NoteOnEvent(tick=1, channel=0, data=[40, 57]),
   midi.NoteOnEvent(tick=9, channel=0, data=[48, 0]),
   midi.NoteOnEvent(tick=1, channel=0, data=[40, 0]),
   midi.NoteOnEvent(tick=46, channel=0, data=[70, 91]),
   midi.NoteOnEvent(tick=0, channel=0, data=[58, 91]),
   midi.ControlChangeEvent(tick=2, channel=0, data=[64, 0]),
   midi.ControlChangeEvent(tick=35, channel=0, data=[64, 127]),
   midi.NoteOnEvent(tick=13, channel=0, data=[49, 69]),
   midi.NoteOnEvent(tick=2, channel=0, data=[40, 69]),
   midi.NoteOnEvent(tick=9, channel=0, data=[40, 0]),
   midi.NoteOnEvent(tick=4, channel=0, data=[49, 0]),
   midi.NoteOnEvent(tick=39, channel=0, data=[49, 66]),
   midi.NoteOnEvent(tick=2, channel=0, data=[40, 57]),
   midi.NoteOnEvent(tick=2, channel=0, data=[58, 0]),
   midi.NoteOnEvent(tick=7, channel=0, data=[40, 0]),
   midi.NoteOnEvent(tick=3, channel=0, data=[49, 0]),
   midi.NoteOnEvent(tick=3, channel=0, data=[70, 0]),
   midi.NoteOnEvent(tick=30, channel=0, data=[40, 59]),
   midi.NoteOnEvent(tick=1, channel=0, data=[49, 57]),
   midi.NoteOnEvent(tick=9, channel=0, data=[40, 0]),
   midi.NoteOnEvent(tick=3, channel=0, data=[49, 0]),
   midi.NoteOnEvent(tick=39, channel=0, data=[71, 102]),
   midi.NoteOnEvent(tick=1, channel=0, data=[50, 81]),
   midi.NoteOnEvent(tick=0, channel=0, data=[59, 91]),
   midi.ControlChangeEvent(tick=2, channel=0, data=[64, 0]),
   midi.NoteOnEvent(tick=2, channel=0, data=[41, 81]),
   midi.NoteOnEvent(tick=16, channel=0, data=[41, 0]),
   midi.ControlChangeEvent(tick=18, channel=0, data=[64, 127]),
   midi.NoteOnEvent(tick=13, channel=0, data=[41, 69]),
   midi.NoteOnEvent(tick=8, channel=0, data=[41, 0]),
   midi.NoteOnEvent(tick=44, channel=0, data=[41, 73]),
   midi.NoteOnEvent(tick=10, channel=0, data=[41, 0]),
   midi.NoteOnEvent(tick=3, channel=0, data=[59, 0]),
   midi.NoteOnEvent(tick=38, channel=0, data=[41, 66]),
   midi.NoteOnEvent(tick=7, channel=0, data=[71, 0]),
   midi.NoteOnEvent(tick=1, channel=0, data=[50, 0]),
   midi.NoteOnEvent(tick=3, channel=0, data=[41, 0]),
   midi.NoteOnEvent(tick=44, channel=0, data=[42, 73]),
   midi.ControlChangeEvent(tick=3, channel=0, data=[64, 0]),
   midi.NoteOnEvent(tick=1, channel=0, data=[49, 86]),
   midi.NoteOnEvent(tick=0, channel=0, data=[58, 81]),
   midi.NoteOnEvent(tick=0, channel=0, data=[70, 81]),
   midi.NoteOnEvent(tick=20, channel=0, data=[42, 0]),
   midi.ControlChangeEvent(tick=12, channel=0, data=[64, 127]),
   midi.NoteOnEvent(tick=14, channel=0, data=[42, 73]),
   midi.NoteOnEvent(tick=21, channel=0, data=[42, 0]),
   midi.NoteOnEvent(tick=3, channel=0, data=[58, 0]),
   midi.NoteOnEvent(tick=33, channel=0, data=[42, 66]),
   midi.NoteOnEvent(tick=2, channel=0, data=[66, 77]),
   midi.NoteOnEvent(tick=3, channel=0, data=[70, 0]),
   midi.NoteOnEvent(tick=10, channel=0, data=[42, 0]),
   midi.NoteOnEvent(tick=32, channel=0, data=[42, 66]),
   midi.NoteOnEvent(tick=6, channel=0, data=[49, 0]),
   midi.NoteOnEvent(tick=11, channel=0, data=[42, 0]),
   midi.NoteOnEvent(tick=29, channel=0, data=[66, 0]),
   midi.ControlChangeEvent(tick=5, channel=0, data=[64, 0]),
   midi.NoteOnEvent(tick=6, channel=0, data=[65, 77]),
   midi.NoteOnEvent(tick=0, channel=0, data=[74, 73]),
   midi.NoteOnEvent(tick=1, channel=0, data=[54, 21]),
   midi.NoteOnEvent(tick=2, channel=0, data=[42, 41]),
   midi.NoteOnEvent(tick=1, channel=0, data=[56, 40]),
   midi.NoteOnEvent(tick=2, channel=0, data=[47, 66]),
   midi.NoteOnEvent(tick=18, channel=0, data=[42, 0]),
   midi.ControlChangeEvent(tick=4, channel=0, data=[64, 127]),
   midi.NoteOnEvent(tick=23, channel=0, data=[42, 66]),
   midi.NoteOnEvent(tick=13, channel=0, data=[42, 0]),
   midi.NoteOnEvent(tick=4, channel=0, data=[54, 0]),
   midi.NoteOnEvent(tick=6, channel=0, data=[56, 0]),
   midi.NoteOnEvent(tick=26, channel=0, data=[42, 59]),
   midi.NoteOnEvent(tick=18, channel=0, data=[42, 0]),
   midi.NoteOnEvent(tick=2, channel=0, data=[47, 0]),
   midi.NoteOnEvent(tick=14, channel=0, data=[74, 0]),
   midi.NoteOnEvent(tick=15, channel=0, data=[42, 54]),
   midi.NoteOnEvent(tick=3, channel=0, data=[65, 0]),
   midi.NoteOnEvent(tick=2, channel=0, data=[66, 73]),
   midi.NoteOnEvent(tick=11, channel=0, data=[42, 0]),
   midi.NoteOnEvent(tick=9, channel=0, data=[66, 0]),
   midi.NoteOnEvent(tick=1, channel=0, data=[68, 52]),
   midi.ControlChangeEvent(tick=23, channel=0, data=[64, 0]),
   midi.NoteOnEvent(tick=6, channel=0, data=[68, 0]),
   midi.NoteOnEvent(tick=0, channel=0, data=[42, 57]),
   midi.NoteOnEvent(tick=1, channel=0, data=[73, 81]),
   midi.NoteOnEvent(tick=1, channel=0, data=[54, 57]),
   midi.NoteOnEvent(tick=0, channel=0, data=[46, 59]),
   midi.NoteOnEvent(tick=0, channel=0, data=[61, 69]),
   midi.NoteOnEvent(tick=15, channel=0, data=[42, 0]),
   midi.NoteOnEvent(tick=5, channel=0, data=[46, 0]),
   midi.ControlChangeEvent(tick=8, channel=0, data=[64, 127]),
   midi.NoteOnEvent(tick=16, channel=0, data=[42, 50]),
   midi.NoteOnEvent(tick=18, channel=0, data=[42, 0]),
   midi.NoteOnEvent(tick=12, channel=0, data=[73, 0]),
   midi.NoteOnEvent(tick=22, channel=0, data=[42, 59]),
   midi.NoteOnEvent(tick=3, channel=0, data=[70, 69]),
   midi.NoteOnEvent(tick=7, channel=0, data=[61, 0]),
   midi.NoteOnEvent(tick=6, channel=0, data=[42, 0]),
   midi.NoteOnEvent(tick=28, channel=0, data=[70, 0]),
   midi.NoteOnEvent(tick=2, channel=0, data=[54, 0]),
   midi.NoteOnEvent(tick=4, channel=0, data=[42, 69]),
   midi.NoteOnEvent(tick=21, channel=0, data=[42, 0]),
   midi.NoteOnEvent(tick=29, channel=0, data=[56, 66]),
   midi.ControlChangeEvent(tick=2, channel=0, data=[64, 0]),
   midi.NoteOnEvent(tick=2, channel=0, data=[71, 91]),
   midi.NoteOnEvent(tick=0, channel=0, data=[42, 29]),
   midi.NoteOnEvent(tick=1, channel=0, data=[59, 86]),
   midi.NoteOnEvent(tick=0, channel=0, data=[65, 91]),
   midi.NoteOnEvent(tick=1, channel=0, data=[50, 86]),
   midi.NoteOnEvent(tick=14, channel=0, data=[42, 0]),
   midi.ControlChangeEvent(tick=20, channel=0, data=[64, 127]),
   midi.NoteOnEvent(tick=12, channel=0, data=[42, 69]),
   midi.NoteOnEvent(tick=21, channel=0, data=[42, 0]),
   midi.NoteOnEvent(tick=23, channel=0, data=[56, 0]),
   midi.NoteOnEvent(tick=10, channel=0, data=[42, 59]),
   midi.NoteOnEvent(tick=11, channel=0, data=[59, 0]),
   midi.NoteOnEvent(tick=4, channel=0, data=[50, 0]),
   midi.NoteOnEvent(tick=4, channel=0, data=[42, 0]),
   midi.NoteOnEvent(tick=18, channel=0, data=[65, 0]),
   midi.NoteOnEvent(tick=6, channel=0, data=[71, 0]),
   midi.NoteOnEvent(tick=3, channel=0, data=[42, 66]),
   midi.NoteOnEvent(tick=18, channel=0, data=[42, 0]),
   midi.NoteOnEvent(tick=37, channel=0, data=[42, 66]),
   midi.ControlChangeEvent(tick=1, channel=0, data=[64, 0]),
   midi.NoteOnEvent(tick=1, channel=0, data=[49, 66]),
   midi.NoteOnEvent(tick=0, channel=0, data=[54, 57]),
   midi.NoteOnEvent(tick=1, channel=0, data=[70, 77]),
   midi.NoteOnEvent(tick=0, channel=0, data=[58, 73]),
   midi.NoteOnEvent(tick=19, channel=0, data=[42, 0]),
   midi.NoteOnEvent(tick=2, channel=0, data=[49, 0]),
   midi.ControlChangeEvent(tick=13, channel=0, data=[64, 127]),
   midi.NoteOnEvent(tick=13, channel=0, data=[42, 57]),
   midi.NoteOnEvent(tick=17, channel=0, data=[42, 0]),
   midi.NoteOnEvent(tick=8, channel=0, data=[58, 0]),
   midi.NoteOnEvent(tick=20, channel=0, data=[42, 59]),
   midi.NoteOnEvent(tick=8, channel=0, data=[66, 66]),
   midi.NoteOnEvent(tick=1, channel=0, data=[70, 0]),
   midi.NoteOnEvent(tick=12, channel=0, data=[42, 0]),
   midi.NoteOnEvent(tick=22, channel=0, data=[54, 0]),
   midi.NoteOnEvent(tick=7, channel=0, data=[42, 59]),
   midi.NoteOnEvent(tick=21, channel=0, data=[42, 0]),
   midi.NoteOnEvent(tick=29, channel=0, data=[42, 50]),
   midi.NoteOnEvent(tick=4, channel=0, data=[66, 0]),
   midi.ControlChangeEvent(tick=0, channel=0, data=[64, 0]),
   midi.NoteOnEvent(tick=2, channel=0, data=[74, 77]),
   midi.NoteOnEvent(tick=1, channel=0, data=[65, 73]),
   midi.NoteOnEvent(tick=0, channel=0, data=[56, 33]),
   midi.NoteOnEvent(tick=1, channel=0, data=[50, 66]),
   midi.NoteOnEvent(tick=2, channel=0, data=[47, 57]),
   midi.NoteOnEvent(tick=11, channel=0, data=[42, 0]),
   midi.NoteOnEvent(tick=9, channel=0, data=[47, 0]),
   midi.ControlChangeEvent(tick=8, channel=0, data=[64, 127]),
   midi.NoteOnEvent(tick=15, channel=0, data=[42, 69]),
   midi.NoteOnEvent(tick=19, channel=0, data=[50, 0]),
   midi.NoteOnEvent(tick=6, channel=0, data=[42, 0]),
   midi.NoteOnEvent(tick=5, channel=0, data=[56, 0]),
   midi.NoteOnEvent(tick=23, channel=0, data=[42, 73]),
   midi.NoteOnEvent(tick=18, channel=0, data=[42, 0]),
   midi.NoteOnEvent(tick=9, channel=0, data=[74, 0]),
   midi.NoteOnEvent(tick=18, channel=0, data=[65, 0]),
   midi.NoteOnEvent(tick=2, channel=0, data=[66, 77]),
   midi.NoteOnEvent(tick=21, channel=0, data=[68, 66]),
   midi.NoteOnEvent(tick=1, channel=0, data=[66, 0]),
   midi.NoteOnEvent(tick=23, channel=0, data=[68, 0]),
   midi.ControlChangeEvent(tick=0, channel=0, data=[64, 0]),
   midi.NoteOnEvent(tick=1, channel=0, data=[42, 77]),
   midi.NoteOnEvent(tick=3, channel=0, data=[73, 81]),
   midi.NoteOnEvent(tick=2, channel=0, data=[61, 81]),
   midi.NoteOnEvent(tick=0, channel=0, data=[49, 54]),
   midi.NoteOnEvent(tick=1, channel=0, data=[54, 37]),
   midi.NoteOnEvent(tick=15, channel=0, data=[42, 0]),
   midi.NoteOnEvent(tick=2, channel=0, data=[49, 0]),
   midi.ControlChangeEvent(tick=10, channel=0, data=[64, 127]),
   midi.NoteOnEvent(tick=15, channel=0, data=[42, 59]),
   midi.NoteOnEvent(tick=16, channel=0, data=[42, 0]),
   midi.NoteOnEvent(tick=21, channel=0, data=[73, 0]),
   midi.NoteOnEvent(tick=15, channel=0, data=[42, 69]),
   midi.NoteOnEvent(tick=1, channel=0, data=[70, 81]),
   midi.NoteOnEvent(tick=6, channel=0, data=[61, 0]),
   midi.NoteOnEvent(tick=11, channel=0, data=[42, 0]),
   midi.NoteOnEvent(tick=5, channel=0, data=[70, 0]),
   midi.NoteOnEvent(tick=23, channel=0, data=[54, 0]),
   midi.NoteOnEvent(tick=3, channel=0, data=[42, 54]),
   midi.NoteOnEvent(tick=23, channel=0, data=[42, 0]),
   midi.ControlChangeEvent(tick=30, channel=0, data=[64, 0]),
   midi.NoteOnEvent(tick=0, channel=0, data=[68, 86]),
   midi.NoteOnEvent(tick=1, channel=0, data=[56, 50]),
   midi.NoteOnEvent(tick=0, channel=0, data=[77, 91]),
   midi.NoteOnEvent(tick=0, channel=0, data=[71, 86]),
   midi.NoteOnEvent(tick=0, channel=0, data=[42, 40]),
   midi.NoteOnEvent(tick=4, channel=0, data=[54, 26]),
   midi.NoteOnEvent(tick=0, channel=0, data=[47, 73]),
   midi.NoteOnEvent(tick=0, channel=0, data=[50, 73]),
   midi.NoteOnEvent(tick=12, channel=0, data=[42, 0]),
   midi.NoteOnEvent(tick=2, channel=0, data=[54, 0]),
   midi.NoteOnEvent(tick=5, channel=0, data=[47, 0]),
   midi.ControlChangeEvent(tick=7, channel=0, data=[64, 127]),
   midi.NoteOnEvent(tick=1, channel=0, data=[50, 0]),
   midi.NoteOnEvent(tick=19, channel=0, data=[42, 69]),
   midi.NoteOnEvent(tick=10, channel=0, data=[56, 0]),
   midi.NoteOnEvent(tick=8, channel=0, data=[71, 0]),
   midi.NoteOnEvent(tick=1, channel=0, data=[42, 0]),
   midi.NoteOnEvent(tick=13, channel=0, data=[77, 0]),
   midi.NoteOnEvent(tick=19, channel=0, data=[42, 73]),
   midi.NoteOnEvent(tick=14, channel=0, data=[68, 0]),
   midi.NoteOnEvent(tick=5, channel=0, data=[42, 0]),
   midi.NoteOnEvent(tick=26, channel=0, data=[42, 73]),
   midi.NoteOnEvent(tick=3, channel=0, data=[73, 86]),
   midi.NoteOnEvent(tick=18, channel=0, data=[42, 0]),
   midi.NoteOnEvent(tick=0, channel=0, data=[74, 86]),
   midi.NoteOnEvent(tick=5, channel=0, data=[73, 0]),
   midi.NoteOnEvent(tick=14, channel=0, data=[74, 0]),
   midi.NoteOnEvent(tick=13, channel=0, data=[73, 86]),
   midi.NoteOnEvent(tick=1, channel=0, data=[78, 102]),
   midi.NoteOnEvent(tick=0, channel=0, data=[42, 77]),
   midi.NoteOnEvent(tick=2, channel=0, data=[70, 77]),
   midi.NoteOnEvent(tick=2, channel=0, data=[54, 77]),
   midi.NoteOnEvent(tick=1, channel=0, data=[49, 86]),
   midi.ControlChangeEvent(tick=5, channel=0, data=[64, 0]),
   midi.NoteOnEvent(tick=10, channel=0, data=[70, 0]),
   midi.NoteOnEvent(tick=1, channel=0, data=[54, 0]),
   midi.NoteOnEvent(tick=4, channel=0, data=[42, 0]),
   midi.NoteOnEvent(tick=4, channel=0, data=[78, 0]),
   midi.NoteOnEvent(tick=3, channel=0, data=[49, 0]),
   midi.NoteOnEvent(tick=1, channel=0, data=[73, 0]),
   midi.NoteOnEvent(tick=181, channel=0, data=[66, 91]),
   midi.NoteOnEvent(tick=2, channel=0, data=[42, 86]),
   midi.NoteOnEvent(tick=0, channel=0, data=[58, 91]),
   midi.NoteOnEvent(tick=0, channel=0, data=[61, 91]),
   midi.NoteOnEvent(tick=1, channel=0, data=[54, 86]),
   midi.NoteOnEvent(tick=24, channel=0, data=[58, 0]),
   midi.NoteOnEvent(tick=6, channel=0, data=[54, 0]),
   midi.NoteOnEvent(tick=3, channel=0, data=[42, 0]),
   midi.NoteOnEvent(tick=4, channel=0, data=[66, 0]),
   midi.NoteOnEvent(tick=4, channel=0, data=[61, 0]),
   midi.NoteOnEvent(tick=175, channel=0, data=[54, 91]),
   midi.NoteOnEvent(tick=1, channel=0, data=[46, 86]),
   midi.NoteOnEvent(tick=0, channel=0, data=[30, 86]),
   midi.NoteOnEvent(tick=0, channel=0, data=[42, 91]),
   midi.NoteOnEvent(tick=1, channel=0, data=[49, 91]),
   midi.NoteOnEvent(tick=60, channel=0, data=[46, 0]),
   midi.NoteOnEvent(tick=1, channel=0, data=[42, 0]),
   midi.NoteOnEvent(tick=0, channel=0, data=[30, 0]),
   midi.NoteOnEvent(tick=2, channel=0, data=[54, 0]),
   midi.NoteOnEvent(tick=1, channel=0, data=[49, 0]),
   midi.NoteOnEvent(tick=163, channel=0, data=[78, 57]),
   midi.NoteOnEvent(tick=44, channel=0, data=[78, 0]),
   midi.NoteOnEvent(tick=10, channel=0, data=[76, 50]),
   midi.NoteOnEvent(tick=40, channel=0, data=[76, 0]),
   midi.NoteOnEvent(tick=4, channel=0, data=[75, 66]),
   midi.NoteOnEvent(tick=47, channel=0, data=[75, 0]),
   midi.NoteOnEvent(tick=3, channel=0, data=[73, 59]),
   midi.NoteOnEvent(tick=45, channel=0, data=[73, 0]),
   midi.NoteOnEvent(tick=4, channel=0, data=[71, 66]),
   midi.NoteOnEvent(tick=140, channel=0, data=[71, 0]),
   midi.NoteOnEvent(tick=57, channel=0, data=[72, 66]),
   midi.NoteOnEvent(tick=93, channel=0, data=[73, 59]),
   midi.NoteOnEvent(tick=11, channel=0, data=[72, 0]),
   midi.NoteOnEvent(tick=82, channel=0, data=[74, 77]),
   midi.NoteOnEvent(tick=2, channel=0, data=[73, 0]),
   midi.NoteOnEvent(tick=26, channel=0, data=[74, 0]),
   midi.NoteOnEvent(tick=64, channel=0, data=[75, 73]),
   midi.NoteOnEvent(tick=94, channel=0, data=[75, 0]),
   midi.NoteOnEvent(tick=3, channel=0, data=[76, 86]),
   midi.NoteOnEvent(tick=98, channel=0, data=[78, 81]),
   midi.NoteOnEvent(tick=3, channel=0, data=[76, 0]),
   midi.NoteOnEvent(tick=94, channel=0, data=[78, 0]),
   midi.NoteOnEvent(tick=0, channel=0, data=[79, 91]),
   midi.NoteOnEvent(tick=88, channel=0, data=[80, 86]),
   midi.NoteOnEvent(tick=1, channel=0, data=[79, 0]),
   midi.NoteOnEvent(tick=91, channel=0, data=[68, 57]),
   midi.NoteOnEvent(tick=1, channel=0, data=[63, 29]),
   midi.NoteOnEvent(tick=1, channel=0, data=[60, 32]),
   midi.ControlChangeEvent(tick=30, channel=0, data=[64, 127]),
   midi.NoteOnEvent(tick=60, channel=0, data=[78, 77]),
   midi.NoteOnEvent(tick=1, channel=0, data=[68, 0]),
   midi.NoteOnEvent(tick=5, channel=0, data=[80, 0]),
   midi.NoteOnEvent(tick=53, channel=0, data=[60, 0]),
   midi.NoteOnEvent(tick=32, channel=0, data=[63, 0]),
   midi.ControlChangeEvent(tick=1, channel=0, data=[64, 0]),
   midi.NoteOnEvent(tick=0, channel=0, data=[61, 41]),
   midi.NoteOnEvent(tick=2, channel=0, data=[64, 40]),
   midi.ControlChangeEvent(tick=44, channel=0, data=[64, 127]),
   midi.NoteOnEvent(tick=43, channel=0, data=[61, 0]),
   midi.NoteOnEvent(tick=3, channel=0, data=[76, 86]),
   midi.NoteOnEvent(tick=2, channel=0, data=[64, 0]),
   midi.NoteOnEvent(tick=3, channel=0, data=[78, 0]),
   midi.NoteOnEvent(tick=12, channel=0, data=[76, 0]),
   midi.NoteOnEvent(tick=29, channel=0, data=[75, 77]),
   midi.ControlChangeEvent(tick=16, channel=0, data=[64, 0]),
   midi.NoteOnEvent(tick=4, channel=0, data=[75, 0]),
   midi.NoteOnEvent(tick=1, channel=0, data=[76, 81]),
   midi.NoteOnEvent(tick=8, channel=0, data=[76, 0]),
   midi.NoteOnEvent(tick=4, channel=0, data=[78, 73]),
   midi.NoteOnEvent(tick=11, channel=0, data=[78, 0]),
   midi.NoteOnEvent(tick=3, channel=0, data=[77, 52]),
   midi.NoteOnEvent(tick=3, channel=0, data=[76, 86]),
   midi.NoteOnEvent(tick=5, channel=0, data=[77, 0]),
   midi.NoteOnEvent(tick=13, channel=0, data=[76, 0]),
   midi.NoteOnEvent(tick=11, channel=0, data=[76, 45]),
   midi.NoteOnEvent(tick=15, channel=0, data=[75, 81]),
   midi.NoteOnEvent(tick=1, channel=0, data=[76, 0]),
   midi.NoteOnEvent(tick=41, channel=0, data=[75, 0]),
   midi.NoteOnEvent(tick=6, channel=0, data=[73, 77]),
   midi.NoteOnEvent(tick=47, channel=0, data=[71, 73]),
   midi.NoteOnEvent(tick=7, channel=0, data=[73, 0]),
   midi.NoteOnEvent(tick=40, channel=0, data=[71, 0]),
   midi.NoteOnEvent(tick=2, channel=0, data=[70, 59]),
   midi.NoteOnEvent(tick=134, channel=0, data=[70, 0]),
   midi.NoteOnEvent(tick=59, channel=0, data=[71, 66]),
   midi.NoteOnEvent(tick=93, channel=0, data=[71, 0]),
   midi.NoteOnEvent(tick=1, channel=0, data=[72, 69]),
   midi.NoteOnEvent(tick=91, channel=0, data=[73, 57]),
   midi.NoteOnEvent(tick=1, channel=0, data=[72, 0]),
   midi.NoteOnEvent(tick=15, channel=0, data=[73, 0]),
   midi.NoteOnEvent(tick=74, channel=0, data=[74, 73]),
   midi.NoteOnEvent(tick=58, channel=0, data=[74, 0]),
   midi.NoteOnEvent(tick=32, channel=0, data=[75, 81]),
   midi.NoteOnEvent(tick=32, channel=0, data=[75, 0]),
   midi.NoteOnEvent(tick=59, channel=0, data=[76, 86]),
   midi.NoteOnEvent(tick=91, channel=0, data=[76, 0]),
   midi.NoteOnEvent(tick=2, channel=0, data=[77, 91]),
   midi.NoteOnEvent(tick=94, channel=0, data=[77, 0]),
   midi.NoteOnEvent(tick=0, channel=0, data=[78, 77]),
   midi.NoteOnEvent(tick=84, channel=0, data=[78, 0]),
   midi.NoteOnEvent(tick=4, channel=0, data=[61, 37]),
   midi.NoteOnEvent(tick=4, channel=0, data=[66, 40]),
   midi.NoteOnEvent(tick=1, channel=0, data=[58, 25]),
   midi.ControlChangeEvent(tick=31, channel=0, data=[64, 127]),
   midi.NoteOnEvent(tick=60, channel=0, data=[76, 59]),
   midi.NoteOnEvent(tick=12, channel=0, data=[66, 0]),
   midi.NoteOnEvent(tick=40, channel=0, data=[58, 0]),
   midi.NoteOnEvent(tick=2, channel=0, data=[61, 0]),
   midi.NoteOnEvent(tick=26, channel=0, data=[63, 37]),
   midi.NoteOnEvent(tick=7, channel=0, data=[59, 47]),
   midi.ControlChangeEvent(tick=6, channel=0, data=[64, 0]),
   midi.ControlChangeEvent(tick=59, channel=0, data=[64, 127]),
   midi.NoteOnEvent(tick=18, channel=0, data=[59, 0]),
   midi.NoteOnEvent(tick=4, channel=0, data=[63, 0]),
   midi.NoteOnEvent(tick=6, channel=0, data=[76, 0]),
   midi.NoteOnEvent(tick=0, channel=0, data=[75, 81]),
   midi.NoteOnEvent(tick=59, channel=0, data=[75, 0]),
   midi.NoteOnEvent(tick=32, channel=0, data=[66, 59]),
   midi.ControlChangeEvent(tick=11, channel=0, data=[64, 0]),
   midi.NoteOnEvent(tick=29, channel=0, data=[66, 0]),
   midi.NoteOnEvent(tick=4, channel=0, data=[64, 59]),
   midi.NoteOnEvent(tick=45, channel=0, data=[64, 0]),
   midi.NoteOnEvent(tick=0, channel=0, data=[63, 54]),
   midi.NoteOnEvent(tick=36, channel=0, data=[63, 0]),
   midi.NoteOnEvent(tick=6, channel=0, data=[61, 54]),
   midi.NoteOnEvent(tick=46, channel=0, data=[61, 0]),
   midi.NoteOnEvent(tick=8, channel=0, data=[59, 50]),
   midi.NoteOnEvent(tick=185, channel=0, data=[59, 0]),
   midi.NoteOnEvent(tick=5, channel=0, data=[60, 40]),
   midi.NoteOnEvent(tick=3, channel=0, data=[54, 52]),
   midi.NoteOnEvent(tick=40, channel=0, data=[52, 59]),
   midi.NoteOnEvent(tick=5, channel=0, data=[54, 0]),
   midi.NoteOnEvent(tick=43, channel=0, data=[52, 0]),
   midi.NoteOnEvent(tick=1, channel=0, data=[61, 66]),
   midi.NoteOnEvent(tick=1, channel=0, data=[60, 0]),
   midi.NoteOnEvent(tick=1, channel=0, data=[51, 69]),
   midi.NoteOnEvent(tick=41, channel=0, data=[49, 69]),
   midi.NoteOnEvent(tick=2, channel=0, data=[51, 0]),
   midi.NoteOnEvent(tick=44, channel=0, data=[61, 0]),
   midi.NoteOnEvent(tick=1, channel=0, data=[48, 77]),
   midi.NoteOnEvent(tick=1, channel=0, data=[62, 81]),
   midi.NoteOnEvent(tick=1, channel=0, data=[49, 0]),
   midi.NoteOnEvent(tick=55, channel=0, data=[48, 0]),
   midi.NoteOnEvent(tick=34, channel=0, data=[63, 81]),
   midi.NoteOnEvent(tick=9, channel=0, data=[62, 0]),
   midi.NoteOnEvent(tick=83, channel=0, data=[64, 77]),
   midi.NoteOnEvent(tick=3, channel=0, data=[63, 0]),
   midi.NoteOnEvent(tick=2, channel=0, data=[78, 73]),
   midi.NoteOnEvent(tick=39, channel=0, data=[76, 81]),
   midi.NoteOnEvent(tick=9, channel=0, data=[78, 0]),
   midi.ControlChangeEvent(tick=36, channel=0, data=[64, 127]),
   midi.NoteOnEvent(tick=3, channel=0, data=[75, 81]),
   midi.NoteOnEvent(tick=2, channel=0, data=[76, 0]),
   midi.NoteOnEvent(tick=0, channel=0, data=[66, 66]),
   midi.NoteOnEvent(tick=3, channel=0, data=[64, 0]),
   midi.NoteOnEvent(tick=30, channel=0, data=[66, 0]),
   midi.NoteOnEvent(tick=7, channel=0, data=[73, 81]),
   midi.NoteOnEvent(tick=1, channel=0, data=[75, 0]),
   midi.NoteOnEvent(tick=39, channel=0, data=[73, 0]),
   midi.ControlChangeEvent(tick=12, channel=0, data=[64, 0]),
   midi.NoteOnEvent(tick=0, channel=0, data=[56, 69]),
   midi.NoteOnEvent(tick=0, channel=0, data=[67, 77]),
   midi.NoteOnEvent(tick=3, channel=0, data=[72, 69]),
   midi.ControlChangeEvent(tick=36, channel=0, data=[64, 127]),
   midi.NoteOnEvent(tick=7, channel=0, data=[67, 0]),
   midi.NoteOnEvent(tick=51, channel=0, data=[68, 77]),
   midi.NoteOnEvent(tick=11, channel=0, data=[72, 0]),
   midi.NoteOnEvent(tick=86, channel=0, data=[75, 66]),
   midi.NoteOnEvent(tick=0, channel=0, data=[81, 69]),
   midi.NoteOnEvent(tick=1, channel=0, data=[72, 66]),
   midi.NoteOnEvent(tick=1, channel=0, data=[68, 0]),
   midi.NoteOnEvent(tick=94, channel=0, data=[66, 52]),
   midi.ControlChangeEvent(tick=88, channel=0, data=[64, 0]),
   midi.NoteOnEvent(tick=0, channel=0, data=[61, 52]),
   midi.NoteOnEvent(tick=3, channel=0, data=[66, 0]),
   midi.NoteOnEvent(tick=10, channel=0, data=[72, 0]),
   midi.NoteOnEvent(tick=26, channel=0, data=[75, 0]),
   midi.ControlChangeEvent(tick=1, channel=0, data=[64, 127]),
   midi.NoteOnEvent(tick=41, channel=0, data=[61, 0]),
   midi.NoteOnEvent(tick=8, channel=0, data=[56, 0]),
   midi.NoteOnEvent(tick=1, channel=0, data=[81, 0]),
   midi.NoteOnEvent(tick=3, channel=0, data=[64, 50]),
   midi.NoteOnEvent(tick=5, channel=0, data=[76, 59]),
   midi.NoteOnEvent(tick=1, channel=0, data=[80, 47]),
   midi.NoteOnEvent(tick=0, channel=0, data=[73, 52]),
   midi.ControlChangeEvent(tick=6, channel=0, data=[64, 0]),
   midi.NoteOnEvent(tick=42, channel=0, data=[64, 0]),
   midi.NoteOnEvent(tick=30, channel=0, data=[73, 0]),
   midi.NoteOnEvent(tick=4, channel=0, data=[76, 0]),
   midi.NoteOnEvent(tick=4, channel=0, data=[80, 0]),
   midi.NoteOnEvent(tick=2, channel=0, data=[64, 81]),
   midi.NoteOnEvent(tick=46, channel=0, data=[63, 73]),
   midi.NoteOnEvent(tick=4, channel=0, data=[64, 0]),
   midi.NoteOnEvent(tick=36, channel=0, data=[61, 66]),
   midi.NoteOnEvent(tick=6, channel=0, data=[63, 0]),
   midi.NoteOnEvent(tick=32, channel=0, data=[61, 0]),
   midi.NoteOnEvent(tick=5, channel=0, data=[59, 57]),
   midi.NoteOnEvent(tick=46, channel=0, data=[59, 0]),
   midi.NoteOnEvent(tick=3, channel=0, data=[58, 54]),
   midi.NoteOnEvent(tick=192, channel=0, data=[52, 54]),
   midi.NoteOnEvent(tick=1, channel=0, data=[58, 0]),
   midi.NoteOnEvent(tick=0, channel=0, data=[59, 52]),
   midi.NoteOnEvent(tick=39, channel=0, data=[52, 0]),
   midi.NoteOnEvent(tick=1, channel=0, data=[51, 59]),
   midi.NoteOnEvent(tick=43, channel=0, data=[59, 0]),
   midi.NoteOnEvent(tick=6, channel=0, data=[51, 0]),
   midi.NoteOnEvent(tick=0, channel=0, data=[49, 69]),
   midi.NoteOnEvent(tick=1, channel=0, data=[60, 66]),
   midi.NoteOnEvent(tick=38, channel=0, data=[49, 0]),
   midi.NoteOnEvent(tick=4, channel=0, data=[47, 73]),
   midi.NoteOnEvent(tick=50, channel=0, data=[46, 73]),
   midi.NoteOnEvent(tick=3, channel=0, data=[61, 73]),
   midi.NoteOnEvent(tick=2, channel=0, data=[47, 0]),
   midi.NoteOnEvent(tick=6, channel=0, data=[60, 0]),
   midi.NoteOnEvent(tick=50, channel=0, data=[46, 0]),
   midi.NoteOnEvent(tick=40, channel=0, data=[63, 73]),
   midi.NoteOnEvent(tick=8, channel=0, data=[61, 0]),
   midi.NoteOnEvent(tick=84, channel=0, data=[64, 77]),
   midi.NoteOnEvent(tick=3, channel=0, data=[76, 81]),
   midi.NoteOnEvent(tick=5, channel=0, data=[63, 0]),
   midi.NoteOnEvent(tick=38, channel=0, data=[75, 86]),
   midi.NoteOnEvent(tick=4, channel=0, data=[76, 0]),
   midi.NoteOnEvent(tick=38, channel=0, data=[64, 0]),
   midi.NoteOnEvent(tick=1, channel=0, data=[65, 66]),
   midi.NoteOnEvent(tick=3, channel=0, data=[73, 77]),
   midi.NoteOnEvent(tick=1, channel=0, data=[75, 0]),
   midi.NoteOnEvent(tick=39, channel=0, data=[73, 0]),
   midi.NoteOnEvent(tick=2, channel=0, data=[71, 73]),
   midi.NoteOnEvent(tick=46, channel=0, data=[71, 0]),
   midi.NoteOnEvent(tick=0, channel=0, data=[65, 0]),
   midi.NoteOnEvent(tick=2, channel=0, data=[70, 54]),
   midi.NoteOnEvent(tick=3, channel=0, data=[54, 38]),
   midi.ControlChangeEvent(tick=74, channel=0, data=[64, 127]),
   midi.NoteOnEvent(tick=19, channel=0, data=[66, 57]),
   midi.NoteOnEvent(tick=1, channel=0, data=[70, 0]),
   midi.NoteOnEvent(tick=71, channel=0, data=[54, 0]),
   midi.NoteOnEvent(tick=26, channel=0, data=[73, 66]),
   midi.NoteOnEvent(tick=2, channel=0, data=[70, 54]),
   midi.NoteOnEvent(tick=1, channel=0, data=[79, 66]),
   midi.NoteOnEvent(tick=86, channel=0, data=[64, 54]),
   midi.ControlChangeEvent(tick=6, channel=0, data=[64, 0]),
   midi.NoteOnEvent(tick=12, channel=0, data=[66, 0]),
   midi.ControlChangeEvent(tick=31, channel=0, data=[64, 127]),
   midi.ControlChangeEvent(tick=37, channel=0, data=[64, 0]),
   midi.NoteOnEvent(tick=6, channel=0, data=[73, 0]),
   midi.NoteOnEvent(tick=2, channel=0, data=[64, 0]),
   midi.NoteOnEvent(tick=2, channel=0, data=[70, 0]),
   midi.NoteOnEvent(tick=6, channel=0, data=[59, 50]),
   midi.NoteOnEvent(tick=82, channel=0, data=[59, 0]),
   midi.NoteOnEvent(tick=3, channel=0, data=[79, 0]),
   midi.NoteOnEvent(tick=7, channel=0, data=[78, 45]),
   midi.NoteOnEvent(tick=2, channel=0, data=[75, 50]),
   midi.NoteOnEvent(tick=2, channel=0, data=[63, 45]),
   midi.NoteOnEvent(tick=1, channel=0, data=[71, 33]),
   midi.ControlChangeEvent(tick=1, channel=0, data=[64, 127]),
   midi.NoteOnEvent(tick=22, channel=0, data=[63, 0]),
   midi.NoteOnEvent(tick=11, channel=0, data=[71, 0]),
   midi.ControlChangeEvent(tick=41, channel=0, data=[64, 0]),
   midi.NoteOnEvent(tick=5, channel=0, data=[75, 0]),
   midi.NoteOnEvent(tick=12, channel=0, data=[78, 0]),
   midi.NoteOnEvent(tick=2, channel=0, data=[51, 45]),
   midi.NoteOnEvent(tick=8, channel=0, data=[59, 38]),
   midi.ControlChangeEvent(tick=11, channel=0, data=[64, 127]),
   midi.NoteOnEvent(tick=18, channel=0, data=[59, 0]),
   midi.NoteOnEvent(tick=0, channel=0, data=[51, 0]),
   midi.NoteOnEvent(tick=9, channel=0, data=[54, 40]),
   midi.ControlChangeEvent(tick=32, channel=0, data=[64, 0]),
   midi.NoteOnEvent(tick=8, channel=0, data=[54, 0]),
   midi.NoteOnEvent(tick=6, channel=0, data=[51, 47]),
   midi.NoteOnEvent(tick=0, channel=0, data=[78, 57]),
   midi.NoteOnEvent(tick=4, channel=0, data=[71, 54]),
   midi.NoteOnEvent(tick=0, channel=0, data=[59, 41]),
   midi.NoteOnEvent(tick=22, channel=0, data=[71, 0]),
   midi.NoteOnEvent(tick=2, channel=0, data=[78, 0]),
   midi.NoteOnEvent(tick=2, channel=0, data=[59, 0]),
   midi.NoteOnEvent(tick=3, channel=0, data=[51, 0]),
   midi.NoteOnEvent(tick=10, channel=0, data=[54, 47]),
   midi.NoteOnEvent(tick=35, channel=0, data=[54, 0]),
   midi.NoteOnEvent(tick=12, channel=0, data=[52, 54]),
   midi.NoteOnEvent(tick=2, channel=0, data=[61, 41]),
   midi.NoteOnEvent(tick=1, channel=0, data=[78, 66]),
   midi.NoteOnEvent(tick=0, channel=0, data=[70, 57]),
   midi.ControlChangeEvent(tick=6, channel=0, data=[64, 127]),
   midi.NoteOnEvent(tick=19, channel=0, data=[78, 0]),
   midi.NoteOnEvent(tick=8, channel=0, data=[52, 0]),
   midi.NoteOnEvent(tick=4, channel=0, data=[80, 59]),
   midi.NoteOnEvent(tick=4, channel=0, data=[54, 50]),
   midi.NoteOnEvent(tick=12, channel=0, data=[80, 0]),
   midi.NoteOnEvent(tick=2, channel=0, data=[78, 47]),
   midi.NoteOnEvent(tick=9, channel=0, data=[78, 0]),
   midi.NoteOnEvent(tick=3, channel=0, data=[77, 69]),
   midi.NoteOnEvent(tick=6, channel=0, data=[54, 0]),
   midi.NoteOnEvent(tick=2, channel=0, data=[70, 0]),
   midi.NoteOnEvent(tick=8, channel=0, data=[78, 73]),
   midi.NoteOnEvent(tick=0, channel=0, data=[52, 54]),
   midi.NoteOnEvent(tick=4, channel=0, data=[77, 0]),
   midi.NoteOnEvent(tick=35, channel=0, data=[61, 0]),
   midi.NoteOnEvent(tick=5, channel=0, data=[52, 0]),
   midi.NoteOnEvent(tick=1, channel=0, data=[54, 57]),
   midi.NoteOnEvent(tick=1, channel=0, data=[82, 66]),
   midi.NoteOnEvent(tick=9, channel=0, data=[78, 0]),
   midi.NoteOnEvent(tick=26, channel=0, data=[82, 0]),
   midi.NoteOnEvent(tick=5, channel=0, data=[54, 0]),
   midi.NoteOnEvent(tick=7, channel=0, data=[51, 45]),
   midi.NoteOnEvent(tick=2, channel=0, data=[71, 54]),
   midi.NoteOnEvent(tick=2, channel=0, data=[83, 57]),
   midi.NoteOnEvent(tick=1, channel=0, data=[59, 47]),
   midi.ControlChangeEvent(tick=2, channel=0, data=[64, 0]),
   midi.NoteOnEvent(tick=6, channel=0, data=[71, 0]),
   midi.NoteOnEvent(tick=4, channel=0, data=[83, 0]),
   midi.NoteOnEvent(tick=14, channel=0, data=[51, 0]),
   midi.NoteOnEvent(tick=5, channel=0, data=[59, 0]),
   midi.NoteOnEvent(tick=9, channel=0, data=[54, 38]),
   midi.NoteOnEvent(tick=40, channel=0, data=[54, 0]),
   midi.NoteOnEvent(tick=10, channel=0, data=[51, 38]),
   midi.NoteOnEvent(tick=1, channel=0, data=[78, 52]),
   midi.NoteOnEvent(tick=1, channel=0, data=[59, 38]),
   midi.NoteOnEvent(tick=0, channel=0, data=[71, 41]),
   midi.NoteOnEvent(tick=9, channel=0, data=[78, 0]),
   midi.NoteOnEvent(tick=2, channel=0, data=[71, 0]),
   midi.NoteOnEvent(tick=9, channel=0, data=[59, 0]),
   midi.NoteOnEvent(tick=6, channel=0, data=[51, 0]),
   midi.NoteOnEvent(tick=13, channel=0, data=[54, 38]),
   midi.NoteOnEvent(tick=41, channel=0, data=[54, 0]),
   midi.NoteOnEvent(tick=4, channel=0, data=[61, 47]),
   midi.NoteOnEvent(tick=1, channel=0, data=[70, 59]),
   midi.NoteOnEvent(tick=2, channel=0, data=[78, 69]),
   midi.ControlChangeEvent(tick=1, channel=0, data=[64, 127]),
   midi.NoteOnEvent(tick=1, channel=0, data=[52, 57]),
   midi.NoteOnEvent(tick=18, channel=0, data=[78, 0]),
   midi.NoteOnEvent(tick=14, channel=0, data=[52, 0]),
   midi.NoteOnEvent(tick=2, channel=0, data=[80, 59]),
   midi.NoteOnEvent(tick=7, channel=0, data=[54, 50]),
   midi.NoteOnEvent(tick=8, channel=0, data=[78, 66]),
   midi.NoteOnEvent(tick=2, channel=0, data=[80, 0]),
   midi.NoteOnEvent(tick=12, channel=0, data=[78, 0]),
   midi.NoteOnEvent(tick=3, channel=0, data=[77, 77]),
   midi.NoteOnEvent(tick=4, channel=0, data=[54, 0]),
   midi.NoteOnEvent(tick=3, channel=0, data=[70, 0]),
   midi.NoteOnEvent(tick=6, channel=0, data=[78, 66]),
   midi.NoteOnEvent(tick=5, channel=0, data=[77, 0]),
   midi.NoteOnEvent(tick=0, channel=0, data=[52, 52]),
   midi.NoteOnEvent(tick=32, channel=0, data=[61, 0]),
   midi.NoteOnEvent(tick=7, channel=0, data=[82, 77]),
   midi.NoteOnEvent(tick=2, channel=0, data=[52, 0]),
   midi.NoteOnEvent(tick=2, channel=0, data=[78, 0]),
   midi.NoteOnEvent(tick=0, channel=0, data=[54, 57]),
   midi.NoteOnEvent(tick=36, channel=0, data=[82, 0]),
   midi.NoteOnEvent(tick=7, channel=0, data=[54, 0]),
   midi.NoteOnEvent(tick=2, channel=0, data=[51, 59]),
   midi.NoteOnEvent(tick=0, channel=0, data=[71, 59]),
   midi.NoteOnEvent(tick=2, channel=0, data=[83, 77]),
   midi.NoteOnEvent(tick=2, channel=0, data=[59, 54]),
   midi.ControlChangeEvent(tick=5, channel=0, data=[64, 0]),
   midi.NoteOnEvent(tick=3, channel=0, data=[71, 0]),
   midi.NoteOnEvent(tick=6, channel=0, data=[83, 0]),
   midi.NoteOnEvent(tick=16, channel=0, data=[59, 0]),
   midi.NoteOnEvent(tick=7, channel=0, data=[51, 0]),
   midi.NoteOnEvent(tick=0, channel=0, data=[54, 57]),
   midi.NoteOnEvent(tick=48, channel=0, data=[54, 0]),
   midi.NoteOnEvent(tick=3, channel=0, data=[51, 57]),
   midi.NoteOnEvent(tick=0, channel=0, data=[72, 81]),
   midi.NoteOnEvent(tick=1, channel=0, data=[84, 86]),
   midi.NoteOnEvent(tick=0, channel=0, data=[57, 66]),
   midi.ControlChangeEvent(tick=3, channel=0, data=[64, 127]),
   midi.NoteOnEvent(tick=16, channel=0, data=[72, 0]),
   midi.NoteOnEvent(tick=13, channel=0, data=[57, 0]),
   midi.NoteOnEvent(tick=2, channel=0, data=[51, 0]),
   midi.NoteOnEvent(tick=6, channel=0, data=[54, 66]),
   midi.NoteOnEvent(tick=28, channel=0, data=[84, 0]),
   midi.NoteOnEvent(tick=15, channel=0, data=[54, 0]),
   midi.ControlChangeEvent(tick=7, channel=0, data=[64, 0]),
   midi.NoteOnEvent(tick=2, channel=0, data=[52, 59]),
   midi.NoteOnEvent(tick=2, channel=0, data=[56, 59]),
   midi.NoteOnEvent(tick=0, channel=0, data=[73, 81]),
   midi.NoteOnEvent(tick=0, channel=0, data=[85, 81]),
   midi.NoteOnEvent(tick=19, channel=0, data=[73, 0]),
   midi.NoteOnEvent(tick=4, channel=0, data=[52, 0]),
   midi.ControlChangeEvent(tick=10, channel=0, data=[64, 127]),
   midi.NoteOnEvent(tick=10, channel=0, data=[61, 54]),
   midi.NoteOnEvent(tick=5, channel=0, data=[56, 0]),
   midi.NoteOnEvent(tick=27, channel=0, data=[85, 0]),
   midi.NoteOnEvent(tick=10, channel=0, data=[61, 0]),
   midi.NoteOnEvent(tick=6, channel=0, data=[56, 66]),
   midi.NoteOnEvent(tick=0, channel=0, data=[75, 86]),
   midi.NoteOnEvent(tick=0, channel=0, data=[52, 57]),
   midi.NoteOnEvent(tick=0, channel=0, data=[87, 86]),
   midi.NoteOnEvent(tick=19, channel=0, data=[75, 0]),
   midi.NoteOnEvent(tick=6, channel=0, data=[52, 0]),
   midi.NoteOnEvent(tick=15, channel=0, data=[56, 0]),
   midi.NoteOnEvent(tick=4, channel=0, data=[61, 59]),
   midi.NoteOnEvent(tick=7, channel=0, data=[87, 0]),
   midi.NoteOnEvent(tick=36, channel=0, data=[61, 0]),
   midi.ControlChangeEvent(tick=0, channel=0, data=[64, 0]),
   midi.NoteOnEvent(tick=6, channel=0, data=[76, 86]),
   midi.NoteOnEvent(tick=0, channel=0, data=[88, 102]),
   midi.NoteOnEvent(tick=0, channel=0, data=[58, 66]),
   midi.NoteOnEvent(tick=2, channel=0, data=[54, 57]),
   midi.NoteOnEvent(tick=18, channel=0, data=[76, 0]),
   midi.ControlChangeEvent(tick=7, channel=0, data=[64, 127]),
   midi.NoteOnEvent(tick=7, channel=0, data=[54, 0]),
   midi.NoteOnEvent(tick=17, channel=0, data=[61, 52]),
   midi.NoteOnEvent(tick=1, channel=0, data=[58, 0]),
   midi.NoteOnEvent(tick=25, channel=0, data=[88, 0]),
   midi.NoteOnEvent(tick=4, channel=0, data=[61, 0]),
   midi.NoteOnEvent(tick=15, channel=0, data=[58, 54]),
   midi.NoteOnEvent(tick=0, channel=0, data=[78, 73]),
   midi.NoteOnEvent(tick=0, channel=0, data=[54, 52]),
   midi.NoteOnEvent(tick=2, channel=0, data=[90, 81]),
   midi.NoteOnEvent(tick=15, channel=0, data=[78, 0]),
   midi.NoteOnEvent(tick=6, channel=0, data=[90, 0]),
   midi.NoteOnEvent(tick=6, channel=0, data=[54, 0]),
   midi.NoteOnEvent(tick=6, channel=0, data=[58, 0]),
   midi.NoteOnEvent(tick=4, channel=0, data=[61, 66]),
   midi.NoteOnEvent(tick=8, channel=0, data=[61, 0]),
   midi.NoteOnEvent(tick=44, channel=0, data=[59, 54]),
   midi.ControlChangeEvent(tick=2, channel=0, data=[64, 0]),
   midi.NoteOnEvent(tick=1, channel=0, data=[47, 59]),
   midi.NoteOnEvent(tick=2, channel=0, data=[76, 66]),
   midi.NoteOnEvent(tick=0, channel=0, data=[88, 77]),
   midi.ControlChangeEvent(tick=37, channel=0, data=[64, 127]),
   midi.NoteOnEvent(tick=4, channel=0, data=[76, 0]),
   midi.NoteOnEvent(tick=0, channel=0, data=[54, 52]),
   midi.NoteOnEvent(tick=2, channel=0, data=[59, 0]),
   midi.NoteOnEvent(tick=38, channel=0, data=[54, 0]),
   midi.NoteOnEvent(tick=12, channel=0, data=[59, 26]),
   midi.NoteOnEvent(tick=45, channel=0, data=[59, 0]),
   midi.NoteOnEvent(tick=0, channel=0, data=[54, 40]),
   midi.NoteOnEvent(tick=28, channel=0, data=[54, 0]),
   midi.NoteOnEvent(tick=15, channel=0, data=[87, 66]),
   midi.NoteOnEvent(tick=1, channel=0, data=[75, 57]),
   midi.NoteOnEvent(tick=2, channel=0, data=[88, 0]),
   midi.NoteOnEvent(tick=4, channel=0, data=[59, 37]),
   midi.NoteOnEvent(tick=17, channel=0, data=[75, 0]),
   midi.NoteOnEvent(tick=5, channel=0, data=[87, 0]),
   midi.NoteOnEvent(tick=11, channel=0, data=[47, 0]),
   midi.NoteOnEvent(tick=2, channel=0, data=[59, 0]),
   midi.NoteOnEvent(tick=4, channel=0, data=[54, 54]),
   midi.NoteOnEvent(tick=48, channel=0, data=[54, 0]),
   midi.NoteOnEvent(tick=3, channel=0, data=[78, 57]),
   midi.NoteOnEvent(tick=1, channel=0, data=[71, 47]),
   midi.NoteOnEvent(tick=0, channel=0, data=[51, 50]),
   midi.ControlChangeEvent(tick=2, channel=0, data=[64, 0]),
   midi.NoteOnEvent(tick=3, channel=0, data=[59, 47]),
   midi.NoteOnEvent(tick=8, channel=0, data=[71, 0]),
   midi.NoteOnEvent(tick=2, channel=0, data=[78, 0]),
   midi.NoteOnEvent(tick=14, channel=0, data=[51, 0]),
   midi.NoteOnEvent(tick=2, channel=0, data=[59, 0]),
   midi.NoteOnEvent(tick=15, channel=0, data=[54, 41]),
   midi.NoteOnEvent(tick=33, channel=0, data=[54, 0]),
   midi.NoteOnEvent(tick=12, channel=0, data=[52, 52]),
   midi.NoteOnEvent(tick=0, channel=0, data=[61, 37]),
   midi.NoteOnEvent(tick=4, channel=0, data=[70, 54]),
   midi.NoteOnEvent(tick=0, channel=0, data=[78, 57]),
   midi.ControlChangeEvent(tick=6, channel=0, data=[64, 127]),
   midi.NoteOnEvent(tick=15, channel=0, data=[78, 0]),
   midi.NoteOnEvent(tick=9, channel=0, data=[52, 0]),
   midi.NoteOnEvent(tick=5, channel=0, data=[80, 59]),
   midi.NoteOnEvent(tick=4, channel=0, data=[54, 47]),
   midi.NoteOnEvent(tick=12, channel=0, data=[78, 52]),
   midi.NoteOnEvent(tick=1, channel=0, data=[80, 0]),
   midi.NoteOnEvent(tick=7, channel=0, data=[78, 0]),
   midi.NoteOnEvent(tick=8, channel=0, data=[77, 73]),
   midi.NoteOnEvent(tick=4, channel=0, data=[54, 0]),
   midi.NoteOnEvent(tick=0, channel=0, data=[70, 0]),
   midi.NoteOnEvent(tick=12, channel=0, data=[78, 81]),
   midi.NoteOnEvent(tick=1, channel=0, data=[52, 52]),
   midi.NoteOnEvent(tick=1, channel=0, data=[77, 0]),
   midi.NoteOnEvent(tick=39, channel=0, data=[52, 0]),
   midi.NoteOnEvent(tick=2, channel=0, data=[61, 0]),
   midi.NoteOnEvent(tick=1, channel=0, data=[78, 0]),
   midi.NoteOnEvent(tick=1, channel=0, data=[82, 69]),
   midi.NoteOnEvent(tick=0, channel=0, data=[54, 54]),
   midi.NoteOnEvent(tick=36, channel=0, data=[82, 0]),
   midi.NoteOnEvent(tick=5, channel=0, data=[54, 0]),
   midi.NoteOnEvent(tick=5, channel=0, data=[51, 45]),
   midi.NoteOnEvent(tick=2, channel=0, data=[71, 52]),
   midi.NoteOnEvent(tick=3, channel=0, data=[83, 59]),
   midi.NoteOnEvent(tick=2, channel=0, data=[59, 50]),
   midi.ControlChangeEvent(tick=7, channel=0, data=[64, 0]),
   midi.NoteOnEvent(tick=1, channel=0, data=[71, 0]),
   midi.NoteOnEvent(tick=3, channel=0, data=[83, 0]),
   midi.NoteOnEvent(tick=14, channel=0, data=[51, 0]),
   midi.NoteOnEvent(tick=2, channel=0, data=[59, 0]),
   midi.NoteOnEvent(tick=15, channel=0, data=[54, 37]),
   midi.NoteOnEvent(tick=36, channel=0, data=[54, 0]),
   midi.NoteOnEvent(tick=11, channel=0, data=[78, 59]),
   midi.NoteOnEvent(tick=2, channel=0, data=[59, 41]),
   midi.NoteOnEvent(tick=0, channel=0, data=[51, 37]),
   midi.NoteOnEvent(tick=2, channel=0, data=[71, 52]),
   midi.NoteOnEvent(tick=9, channel=0, data=[71, 0]),
   midi.NoteOnEvent(tick=3, channel=0, data=[78, 0]),
   midi.NoteOnEvent(tick=10, channel=0, data=[59, 0]),
   midi.NoteOnEvent(tick=6, channel=0, data=[51, 0]),
   midi.NoteOnEvent(tick=10, channel=0, data=[54, 45]),
   midi.NoteOnEvent(tick=44, channel=0, data=[54, 0]),
   midi.NoteOnEvent(tick=5, channel=0, data=[52, 66]),
   midi.NoteOnEvent(tick=1, channel=0, data=[70, 59]),
   midi.NoteOnEvent(tick=0, channel=0, data=[61, 37]),
   midi.ControlChangeEvent(tick=1, channel=0, data=[64, 127]),
   midi.NoteOnEvent(tick=1, channel=0, data=[78, 66]),
   midi.NoteOnEvent(tick=18, channel=0, data=[78, 0]),
   midi.NoteOnEvent(tick=5, channel=0, data=[52, 0]),
   midi.NoteOnEvent(tick=9, channel=0, data=[80, 66]),
   midi.NoteOnEvent(tick=9, channel=0, data=[54, 47]),
   midi.NoteOnEvent(tick=6, channel=0, data=[78, 57]),
   midi.NoteOnEvent(tick=6, channel=0, data=[80, 0]),
   midi.NoteOnEvent(tick=9, channel=0, data=[78, 0]),
   midi.NoteOnEvent(tick=2, channel=0, data=[77, 81]),
   midi.NoteOnEvent(tick=4, channel=0, data=[54, 0]),
   midi.NoteOnEvent(tick=0, channel=0, data=[70, 0]),
   midi.NoteOnEvent(tick=10, channel=0, data=[78, 66]),
   midi.NoteOnEvent(tick=4, channel=0, data=[77, 0]),
   midi.NoteOnEvent(tick=2, channel=0, data=[52, 47]),
   midi.NoteOnEvent(tick=42, channel=0, data=[52, 0]),
   midi.NoteOnEvent(tick=0, channel=0, data=[82, 73]),
   midi.NoteOnEvent(tick=2, channel=0, data=[61, 0]),
   midi.NoteOnEvent(tick=2, channel=0, data=[78, 0]),
   midi.NoteOnEvent(tick=1, channel=0, data=[54, 54]),
   midi.NoteOnEvent(tick=41, channel=0, data=[54, 0]),
   midi.NoteOnEvent(tick=1, channel=0, data=[82, 0]),
   midi.NoteOnEvent(tick=3, channel=0, data=[51, 59]),
   midi.NoteOnEvent(tick=2, channel=0, data=[59, 66]),
   midi.NoteOnEvent(tick=0, channel=0, data=[83, 81]),
   midi.NoteOnEvent(tick=1, channel=0, data=[71, 47]),
   midi.ControlChangeEvent(tick=3, channel=0, data=[64, 0]),
   midi.NoteOnEvent(tick=8, channel=0, data=[71, 0]),
   midi.NoteOnEvent(tick=8, channel=0, data=[83, 0]),
   midi.NoteOnEvent(tick=14, channel=0, data=[59, 0]),
   midi.NoteOnEvent(tick=5, channel=0, data=[54, 59]),
   midi.NoteOnEvent(tick=1, channel=0, data=[51, 0]),
   midi.NoteOnEvent(tick=45, channel=0, data=[54, 0]),
   midi.NoteOnEvent(tick=1, channel=0, data=[51, 54]),
   midi.NoteOnEvent(tick=3, channel=0, data=[57, 59]),
   midi.NoteOnEvent(tick=1, channel=0, data=[84, 86]),
   midi.NoteOnEvent(tick=0, channel=0, data=[72, 77]),
   midi.ControlChangeEvent(tick=0, channel=0, data=[64, 127]),
   midi.NoteOnEvent(tick=16, channel=0, data=[72, 0]),
   midi.NoteOnEvent(tick=10, channel=0, data=[51, 0]),
   midi.NoteOnEvent(tick=9, channel=0, data=[57, 0]),
   midi.NoteOnEvent(tick=7, channel=0, data=[54, 59]),
   midi.NoteOnEvent(tick=20, channel=0, data=[84, 0]),
   midi.ControlChangeEvent(tick=24, channel=0, data=[64, 0]),
   midi.NoteOnEvent(tick=1, channel=0, data=[54, 0]),
   midi.NoteOnEvent(tick=3, channel=0, data=[52, 69]),
   midi.NoteOnEvent(tick=2, channel=0, data=[85, 86]),
   midi.NoteOnEvent(tick=0, channel=0, data=[73, 81]),
   midi.NoteOnEvent(tick=2, channel=0, data=[56, 57]),
   midi.NoteOnEvent(tick=20, channel=0, data=[73, 0]),
   midi.NoteOnEvent(tick=5, channel=0, data=[52, 0]),
   midi.ControlChangeEvent(tick=1, channel=0, data=[64, 127]),
   midi.NoteOnEvent(tick=18, channel=0, data=[61, 54]),
   midi.NoteOnEvent(tick=2, channel=0, data=[56, 0]),
   midi.NoteOnEvent(tick=18, channel=0, data=[85, 0]),
   midi.NoteOnEvent(tick=15, channel=0, data=[61, 0]),
   midi.NoteOnEvent(tick=9, channel=0, data=[56, 66]),
   midi.NoteOnEvent(tick=0, channel=0, data=[75, 86]),
   midi.NoteOnEvent(tick=2, channel=0, data=[87, 86]),
   midi.NoteOnEvent(tick=0, channel=0, data=[52, 50]),
   midi.NoteOnEvent(tick=16, channel=0, data=[75, 0]),
   midi.NoteOnEvent(tick=5, channel=0, data=[52, 0]),
   midi.NoteOnEvent(tick=7, channel=0, data=[56, 0]),
   midi.NoteOnEvent(tick=3, channel=0, data=[87, 0]),
   midi.NoteOnEvent(tick=8, channel=0, data=[61, 59]),
   midi.NoteOnEvent(tick=19, channel=0, data=[61, 0]),
   midi.ControlChangeEvent(tick=29, channel=0, data=[64, 0]),
   midi.NoteOnEvent(tick=4, channel=0, data=[54, 66]),
   midi.NoteOnEvent(tick=1, channel=0, data=[61, 57]),
   midi.NoteOnEvent(tick=1, channel=0, data=[76, 86]),
   midi.NoteOnEvent(tick=1, channel=0, data=[88, 86]),
   midi.NoteOnEvent(tick=22, channel=0, data=[76, 0]),
   midi.NoteOnEvent(tick=3, channel=0, data=[88, 0]),
   midi.NoteOnEvent(tick=3, channel=0, data=[54, 0]),
   midi.ControlChangeEvent(tick=2, channel=0, data=[64, 127]),
   midi.NoteOnEvent(tick=9, channel=0, data=[61, 0]),
   midi.NoteOnEvent(tick=3, channel=0, data=[64, 50]),
   midi.NoteOnEvent(tick=26, channel=0, data=[64, 0]),
   midi.NoteOnEvent(tick=21, channel=0, data=[82, 73]),
   midi.NoteOnEvent(tick=1, channel=0, data=[70, 69]),
   midi.NoteOnEvent(tick=2, channel=0, data=[54, 37]),
   midi.NoteOnEvent(tick=0, channel=0, data=[61, 40]),
   midi.NoteOnEvent(tick=13, channel=0, data=[70, 0]),
   midi.NoteOnEvent(tick=9, channel=0, data=[82, 0]),
   midi.NoteOnEvent(tick=1, channel=0, data=[54, 0]),
   midi.NoteOnEvent(tick=5, channel=0, data=[61, 0]),
   midi.NoteOnEvent(tick=14, channel=0, data=[64, 50]),
   midi.NoteOnEvent(tick=9, channel=0, data=[64, 0]),
   midi.ControlChangeEvent(tick=37, channel=0, data=[64, 0]),
   midi.NoteOnEvent(tick=4, channel=0, data=[71, 77]),
   midi.NoteOnEvent(tick=2, channel=0, data=[83, 81]),
   midi.NoteOnEvent(tick=1, channel=0, data=[59, 33]),
   midi.NoteOnEvent(tick=4, channel=0, data=[47, 66]),
   midi.NoteOnEvent(tick=16, channel=0, data=[83, 0]),
   midi.NoteOnEvent(tick=6, channel=0, data=[71, 0]),
   midi.NoteOnEvent(tick=1, channel=0, data=[59, 0]),
   midi.ControlChangeEvent(tick=3, channel=0, data=[64, 127]),
   midi.NoteOnEvent(tick=66, channel=0, data=[66, 73]),
   midi.NoteOnEvent(tick=0, channel=0, data=[63, 81]),
   midi.NoteOnEvent(tick=1, channel=0, data=[59, 77]),
   midi.ControlChangeEvent(tick=1, channel=0, data=[64, 0]),
   midi.NoteOnEvent(tick=80, channel=0, data=[66, 0]),
   midi.NoteOnEvent(tick=14, channel=0, data=[64, 91]),
   midi.NoteOnEvent(tick=1, channel=0, data=[67, 81]),
   midi.NoteOnEvent(tick=6, channel=0, data=[63, 0]),
   midi.NoteOnEvent(tick=3, channel=0, data=[59, 0]),
   midi.NoteOnEvent(tick=37, channel=0, data=[47, 0]),
   midi.NoteOnEvent(tick=52, channel=0, data=[58, 81]),
   midi.NoteOnEvent(tick=42, channel=0, data=[42, 66]),
   midi.NoteOnEvent(tick=11, channel=0, data=[58, 0]),
   midi.NoteOnEvent(tick=5, channel=0, data=[44, 69]),
   midi.NoteOnEvent(tick=10, channel=0, data=[67, 0]),
   midi.NoteOnEvent(tick=2, channel=0, data=[42, 0]),
   midi.NoteOnEvent(tick=1, channel=0, data=[64, 0]),
   midi.NoteOnEvent(tick=0, channel=0, data=[46, 81]),
   midi.NoteOnEvent(tick=10, channel=0, data=[44, 0]),
   midi.NoteOnEvent(tick=6, channel=0, data=[47, 77]),
   midi.NoteOnEvent(tick=0, channel=0, data=[59, 77]),
   midi.NoteOnEvent(tick=9, channel=0, data=[46, 0]),
   midi.NoteOnEvent(tick=88, channel=0, data=[63, 91]),
   midi.NoteOnEvent(tick=0, channel=0, data=[66, 81]),
   midi.NoteOnEvent(tick=15, channel=0, data=[47, 0]),
   midi.NoteOnEvent(tick=73, channel=0, data=[66, 0]),
   midi.NoteOnEvent(tick=6, channel=0, data=[59, 0]),
   midi.NoteOnEvent(tick=1, channel=0, data=[68, 81]),
   midi.NoteOnEvent(tick=1, channel=0, data=[64, 102]),
   midi.NoteOnEvent(tick=7, channel=0, data=[63, 0]),
   midi.NoteOnEvent(tick=84, channel=0, data=[58, 73]),
   midi.NoteOnEvent(tick=21, channel=0, data=[64, 0]),
   midi.NoteOnEvent(tick=16, channel=0, data=[42, 66]),
   midi.NoteOnEvent(tick=20, channel=0, data=[44, 73]),
   midi.NoteOnEvent(tick=2, channel=0, data=[58, 0]),
   midi.NoteOnEvent(tick=8, channel=0, data=[46, 81]),
   midi.NoteOnEvent(tick=3, channel=0, data=[42, 0]),
   midi.NoteOnEvent(tick=3, channel=0, data=[68, 0]),
   midi.NoteOnEvent(tick=7, channel=0, data=[44, 0]),
   midi.NoteOnEvent(tick=7, channel=0, data=[59, 66]),
   midi.NoteOnEvent(tick=2, channel=0, data=[47, 81]),
   midi.NoteOnEvent(tick=8, channel=0, data=[46, 0]),
   midi.NoteOnEvent(tick=87, channel=0, data=[66, 73]),
   midi.NoteOnEvent(tick=1, channel=0, data=[63, 86]),
   midi.NoteOnEvent(tick=62, channel=0, data=[47, 0]),
   midi.NoteOnEvent(tick=29, channel=0, data=[66, 0]),
   midi.NoteOnEvent(tick=6, channel=0, data=[67, 91]),
   midi.NoteOnEvent(tick=1, channel=0, data=[63, 0]),
   midi.NoteOnEvent(tick=1, channel=0, data=[64, 91]),
   midi.NoteOnEvent(tick=9, channel=0, data=[59, 0]),
   midi.NoteOnEvent(tick=83, channel=0, data=[58, 77]),
   midi.NoteOnEvent(tick=34, channel=0, data=[42, 69]),
   midi.NoteOnEvent(tick=13, channel=0, data=[58, 0]),
   midi.NoteOnEvent(tick=4, channel=0, data=[44, 69]),
   midi.NoteOnEvent(tick=7, channel=0, data=[64, 0]),
   midi.NoteOnEvent(tick=4, channel=0, data=[46, 77]),
   midi.NoteOnEvent(tick=2, channel=0, data=[42, 0]),
   midi.NoteOnEvent(tick=7, channel=0, data=[67, 0]),
   midi.NoteOnEvent(tick=3, channel=0, data=[44, 0]),
   midi.NoteOnEvent(tick=12, channel=0, data=[59, 69]),
   midi.NoteOnEvent(tick=1, channel=0, data=[47, 81]),
   midi.NoteOnEvent(tick=6, channel=0, data=[46, 0]),
   midi.NoteOnEvent(tick=90, channel=0, data=[66, 81]),
   midi.NoteOnEvent(tick=0, channel=0, data=[63, 86]),
   midi.NoteOnEvent(tick=87, channel=0, data=[66, 0]),
   midi.NoteOnEvent(tick=2, channel=0, data=[47, 0]),
   midi.NoteOnEvent(tick=5, channel=0, data=[68, 81]),
   midi.NoteOnEvent(tick=1, channel=0, data=[64, 102]),
   midi.NoteOnEvent(tick=5, channel=0, data=[59, 0]),
   midi.NoteOnEvent(tick=4, channel=0, data=[63, 0]),
   midi.NoteOnEvent(tick=80, channel=0, data=[58, 81]),
   midi.NoteOnEvent(tick=40, channel=0, data=[42, 69]),
   midi.NoteOnEvent(tick=10, channel=0, data=[58, 0]),
   midi.NoteOnEvent(tick=12, channel=0, data=[44, 73]),
   midi.NoteOnEvent(tick=1, channel=0, data=[64, 0]),
   midi.NoteOnEvent(tick=5, channel=0, data=[68, 0]),
   midi.NoteOnEvent(tick=4, channel=0, data=[46, 69]),
   midi.NoteOnEvent(tick=3, channel=0, data=[42, 0]),
   midi.NoteOnEvent(tick=12, channel=0, data=[44, 0]),
   midi.NoteOnEvent(tick=4, channel=0, data=[59, 73]),
   midi.NoteOnEvent(tick=5, channel=0, data=[47, 77]),
   midi.NoteOnEvent(tick=8, channel=0, data=[46, 0]),
   midi.NoteOnEvent(tick=6, channel=0, data=[59, 0]),
   midi.NoteOnEvent(tick=8, channel=0, data=[47, 0]),
   midi.NoteOnEvent(tick=59, channel=0, data=[54, 52]),
   midi.NoteOnEvent(tick=3, channel=0, data=[66, 52]),
   midi.NoteOnEvent(tick=1, channel=0, data=[47, 59]),
   midi.NoteOnEvent(tick=0, channel=0, data=[63, 59]),
   midi.NoteOnEvent(tick=16, channel=0, data=[63, 0]),
   midi.NoteOnEvent(tick=1, channel=0, data=[66, 0]),
   midi.NoteOnEvent(tick=2, channel=0, data=[54, 0]),
   midi.NoteOnEvent(tick=2, channel=0, data=[47, 0]),
   midi.NoteOnEvent(tick=67, channel=0, data=[54, 54]),
   midi.NoteOnEvent(tick=2, channel=0, data=[70, 57]),
   midi.NoteOnEvent(tick=1, channel=0, data=[49, 57]),
   midi.NoteOnEvent(tick=0, channel=0, data=[64, 59]),
   midi.NoteOnEvent(tick=10, channel=0, data=[64, 0]),
   midi.NoteOnEvent(tick=6, channel=0, data=[70, 0]),
   midi.NoteOnEvent(tick=4, channel=0, data=[49, 0]),
   midi.NoteOnEvent(tick=0, channel=0, data=[54, 0]),
   midi.NoteOnEvent(tick=70, channel=0, data=[51, 69]),
   midi.NoteOnEvent(tick=0, channel=0, data=[66, 59]),
   midi.NoteOnEvent(tick=1, channel=0, data=[54, 59]),
   midi.NoteOnEvent(tick=1, channel=0, data=[71, 73]),
   midi.NoteOnEvent(tick=16, channel=0, data=[51, 0]),
   midi.NoteOnEvent(tick=2, channel=0, data=[66, 0]),
   midi.NoteOnEvent(tick=2, channel=0, data=[54, 0]),
   midi.NoteOnEvent(tick=1, channel=0, data=[71, 0]),
   midi.NoteOnEvent(tick=70, channel=0, data=[61, 50]),
   midi.NoteOnEvent(tick=0, channel=0, data=[68, 69]),
   midi.NoteOnEvent(tick=1, channel=0, data=[52, 59]),
   midi.NoteOnEvent(tick=0, channel=0, data=[75, 59]),
   midi.NoteOnEvent(tick=1, channel=0, data=[64, 57]),
   midi.NoteOnEvent(tick=1, channel=0, data=[56, 54]),
   midi.ControlChangeEvent(tick=14, channel=0, data=[64, 127]),
   midi.NoteOnEvent(tick=53, channel=0, data=[64, 0]),
   midi.NoteOnEvent(tick=3, channel=0, data=[52, 0]),
   midi.NoteOnEvent(tick=5, channel=0, data=[56, 0]),
   midi.NoteOnEvent(tick=11, channel=0, data=[61, 0]),
   midi.NoteOnEvent(tick=23, channel=0, data=[75, 0]),
   midi.NoteOnEvent(tick=1, channel=0, data=[68, 0]),
   midi.NoteOnEvent(tick=27, channel=0, data=[73, 59]),
   midi.NoteOnEvent(tick=27, channel=0, data=[73, 0]),
   midi.NoteOnEvent(tick=20, channel=0, data=[71, 59]),
   midi.ControlChangeEvent(tick=0, channel=0, data=[64, 0]),
   midi.NoteOnEvent(tick=0, channel=0, data=[66, 50]),
   midi.NoteOnEvent(tick=0, channel=0, data=[54, 52]),
   midi.NoteOnEvent(tick=2, channel=0, data=[63, 54]),
   midi.NoteOnEvent(tick=19, channel=0, data=[71, 0]),
   midi.NoteOnEvent(tick=1, channel=0, data=[66, 0]),
   midi.NoteOnEvent(tick=0, channel=0, data=[54, 0]),
   midi.NoteOnEvent(tick=5, channel=0, data=[63, 0]),
   midi.NoteOnEvent(tick=65, channel=0, data=[70, 57]),
   midi.NoteOnEvent(tick=0, channel=0, data=[66, 47]),
   midi.NoteOnEvent(tick=2, channel=0, data=[54, 50]),
   midi.NoteOnEvent(tick=2, channel=0, data=[61, 52]),
   midi.NoteOnEvent(tick=18, channel=0, data=[54, 0]),
   midi.NoteOnEvent(tick=2, channel=0, data=[61, 0]),
   midi.NoteOnEvent(tick=3, channel=0, data=[70, 0]),
   midi.NoteOnEvent(tick=1, channel=0, data=[66, 0]),
   midi.NoteOnEvent(tick=67, channel=0, data=[66, 81]),
   midi.ControlChangeEvent(tick=5, channel=0, data=[64, 127]),
   midi.NoteOnEvent(tick=19, channel=0, data=[66, 0]),
   midi.ControlChangeEvent(tick=59, channel=0, data=[64, 0]),
   midi.NoteOnEvent(tick=9, channel=0, data=[66, 77]),
   midi.NoteOnEvent(tick=2, channel=0, data=[71, 86]),
   midi.NoteOnEvent(tick=1, channel=0, data=[51, 73]),
   midi.NoteOnEvent(tick=2, channel=0, data=[59, 73]),
   midi.NoteOnEvent(tick=10, channel=0, data=[59, 0]),
   midi.ControlChangeEvent(tick=11, channel=0, data=[64, 127]),
   midi.NoteOnEvent(tick=1, channel=0, data=[66, 0]),
   midi.NoteOnEvent(tick=2, channel=0, data=[51, 0]),
   midi.NoteOnEvent(tick=1, channel=0, data=[71, 0]),
   midi.ControlChangeEvent(tick=55, channel=0, data=[64, 0]),
   midi.NoteOnEvent(tick=8, channel=0, data=[66, 81]),
   midi.NoteOnEvent(tick=1, channel=0, data=[58, 81]),
   midi.NoteOnEvent(tick=1, channel=0, data=[73, 86]),
   midi.NoteOnEvent(tick=1, channel=0, data=[49, 77]),
   midi.NoteOnEvent(tick=15, channel=0, data=[49, 0]),
   midi.NoteOnEvent(tick=1, channel=0, data=[58, 0]),
   midi.NoteOnEvent(tick=2, channel=0, data=[66, 0]),
   midi.ControlChangeEvent(tick=5, channel=0, data=[64, 127]),
   midi.NoteOnEvent(tick=2, channel=0, data=[73, 0]),
   midi.ControlChangeEvent(tick=55, channel=0, data=[64, 0]),
   midi.NoteOnEvent(tick=11, channel=0, data=[47, 91]),
   midi.NoteOnEvent(tick=2, channel=0, data=[59, 77]),
   midi.NoteOnEvent(tick=0, channel=0, data=[66, 81]),
   midi.NoteOnEvent(tick=0, channel=0, data=[75, 91]),
   midi.NoteOnEvent(tick=17, channel=0, data=[59, 0]),
   midi.NoteOnEvent(tick=0, channel=0, data=[47, 0]),
   midi.NoteOnEvent(tick=2, channel=0, data=[66, 0]),
   midi.ControlChangeEvent(tick=2, channel=0, data=[64, 127]),
   midi.NoteOnEvent(tick=6, channel=0, data=[75, 0]),
   midi.ControlChangeEvent(tick=61, channel=0, data=[64, 0]),
   midi.NoteOnEvent(tick=5, channel=0, data=[78, 86]),
   midi.NoteOnEvent(tick=1, channel=0, data=[68, 86]),
   midi.NoteOnEvent(tick=1, channel=0, data=[63, 81]),
   midi.NoteOnEvent(tick=2, channel=0, data=[52, 77]),
   midi.NoteOnEvent(tick=19, channel=0, data=[63, 0]),
   midi.ControlChangeEvent(tick=10, channel=0, data=[64, 127]),
   midi.NoteOnEvent(tick=70, channel=0, data=[78, 0]),
   midi.NoteOnEvent(tick=20, channel=0, data=[68, 0]),
   midi.NoteOnEvent(tick=16, channel=0, data=[61, 59]),
   midi.NoteOnEvent(tick=3, channel=0, data=[76, 86]),
   midi.NoteOnEvent(tick=11, channel=0, data=[52, 0]),
   midi.NoteOnEvent(tick=2, channel=0, data=[61, 0]),
   midi.NoteOnEvent(tick=10, channel=0, data=[76, 0]),
   midi.ControlChangeEvent(tick=23, channel=0, data=[64, 0]),
   midi.NoteOnEvent(tick=0, channel=0, data=[54, 73]),
   midi.NoteOnEvent(tick=0, channel=0, data=[59, 77]),
   midi.NoteOnEvent(tick=1, channel=0, data=[75, 77]),
   midi.NoteOnEvent(tick=1, channel=0, data=[66, 77]),
   midi.NoteOnEvent(tick=13, channel=0, data=[59, 0]),
   midi.NoteOnEvent(tick=7, channel=0, data=[66, 0]),
   midi.NoteOnEvent(tick=3, channel=0, data=[54, 0]),
   midi.NoteOnEvent(tick=1, channel=0, data=[75, 0]),
   midi.NoteOnEvent(tick=66, channel=0, data=[66, 77]),
   midi.NoteOnEvent(tick=0, channel=0, data=[73, 86]),
   midi.NoteOnEvent(tick=2, channel=0, data=[58, 77]),
   midi.NoteOnEvent(tick=1, channel=0, data=[54, 81]),
   midi.NoteOnEvent(tick=19, channel=0, data=[66, 0]),
   midi.NoteOnEvent(tick=2, channel=0, data=[58, 0]),
   midi.NoteOnEvent(tick=5, channel=0, data=[54, 0]),
   midi.NoteOnEvent(tick=1, channel=0, data=[73, 0]),
   midi.NoteOnEvent(tick=70, channel=0, data=[66, 81]),
   midi.NoteOnEvent(tick=0, channel=0, data=[78, 86]),
   midi.ControlChangeEvent(tick=2, channel=0, data=[64, 127]),
   midi.NoteOnEvent(tick=17, channel=0, data=[66, 0]),
   midi.NoteOnEvent(tick=6, channel=0, data=[78, 0]),
   midi.ControlChangeEvent(tick=59, channel=0, data=[64, 0]),
   midi.NoteOnEvent(tick=10, channel=0, data=[66, 77]),
   midi.NoteOnEvent(tick=1, channel=0, data=[78, 77]),
   midi.NoteOnEvent(tick=0, channel=0, data=[71, 91]),
   midi.NoteOnEvent(tick=2, channel=0, data=[54, 66]),
   midi.NoteOnEvent(tick=2, channel=0, data=[51, 66]),
   midi.NoteOnEvent(tick=1, channel=0, data=[59, 69]),
   midi.NoteOnEvent(tick=9, channel=0, data=[59, 0]),
   midi.NoteOnEvent(tick=7, channel=0, data=[66, 0]),
   midi.NoteOnEvent(tick=1, channel=0, data=[51, 0]),
   midi.ControlChangeEvent(tick=2, channel=0, data=[64, 127]),
   midi.NoteOnEvent(tick=2, channel=0, data=[78, 0]),
   midi.NoteOnEvent(tick=1, channel=0, data=[71, 0]),
   midi.NoteOnEvent(tick=4, channel=0, data=[54, 0]),
   midi.ControlChangeEvent(tick=51, channel=0, data=[64, 0]),
   midi.NoteOnEvent(tick=10, channel=0, data=[49, 73]),
   midi.NoteOnEvent(tick=0, channel=0, data=[52, 77]),
   midi.NoteOnEvent(tick=0, channel=0, data=[66, 77]),
   midi.NoteOnEvent(tick=1, channel=0, data=[58, 69]),
   midi.NoteOnEvent(tick=1, channel=0, data=[78, 77]),
   midi.NoteOnEvent(tick=1, channel=0, data=[70, 81]),
   midi.NoteOnEvent(tick=0, channel=0, data=[73, 77]),
   midi.NoteOnEvent(tick=13, channel=0, data=[58, 0]),
   midi.NoteOnEvent(tick=0, channel=0, data=[66, 0]),
   midi.NoteOnEvent(tick=2, channel=0, data=[52, 0]),
   midi.NoteOnEvent(tick=3, channel=0, data=[70, 0]),
   midi.NoteOnEvent(tick=1, channel=0, data=[73, 0]),
   midi.NoteOnEvent(tick=2, channel=0, data=[49, 0]),
   midi.ControlChangeEvent(tick=1, channel=0, data=[64, 127]),
   midi.NoteOnEvent(tick=2, channel=0, data=[78, 0]),
   midi.ControlChangeEvent(tick=60, channel=0, data=[64, 0]),
   midi.NoteOnEvent(tick=7, channel=0, data=[59, 66]),
   midi.NoteOnEvent(tick=0, channel=0, data=[66, 81]),
   midi.NoteOnEvent(tick=2, channel=0, data=[51, 77]),
   midi.NoteOnEvent(tick=1, channel=0, data=[78, 77]),
   midi.NoteOnEvent(tick=0, channel=0, data=[47, 81]),
   midi.NoteOnEvent(tick=1, channel=0, data=[75, 77]),
   midi.NoteOnEvent(tick=0, channel=0, data=[54, 69]),
   midi.NoteOnEvent(tick=2, channel=0, data=[71, 86]),
   midi.NoteOnEvent(tick=7, channel=0, data=[66, 0]),
   midi.NoteOnEvent(tick=0, channel=0, data=[59, 0]),
   midi.NoteOnEvent(tick=1, channel=0, data=[54, 0]),
   midi.NoteOnEvent(tick=7, channel=0, data=[78, 0]),
   midi.NoteOnEvent(tick=0, channel=0, data=[51, 0]),
   midi.NoteOnEvent(tick=1, channel=0, data=[47, 0]),
   midi.NoteOnEvent(tick=1, channel=0, data=[71, 0]),
   midi.NoteOnEvent(tick=3, channel=0, data=[75, 0]),
   midi.ControlChangeEvent(tick=1, channel=0, data=[64, 127]),
   midi.NoteOnEvent(tick=69, channel=0, data=[40, 73]),
   midi.ControlChangeEvent(tick=0, channel=0, data=[64, 0]),
   midi.NoteOnEvent(tick=2, channel=0, data=[44, 59]),
   midi.NoteOnEvent(tick=0, channel=0, data=[52, 59]),
   midi.NoteOnEvent(tick=2, channel=0, data=[79, 102]),
   midi.NoteOnEvent(tick=0, channel=0, data=[49, 77]),
   midi.NoteOnEvent(tick=1, channel=0, data=[67, 102]),
   midi.NoteOnEvent(tick=17, channel=0, data=[67, 0]),
   midi.NoteOnEvent(tick=12, channel=0, data=[79, 0]),
   midi.ControlChangeEvent(tick=3, channel=0, data=[64, 127]),
   midi.NoteOnEvent(tick=59, channel=0, data=[68, 91]),
   midi.NoteOnEvent(tick=0, channel=0, data=[80, 91]),
   midi.ControlChangeEvent(tick=6, channel=0, data=[64, 0]),
   midi.NoteOnEvent(tick=64, channel=0, data=[68, 0]),
   midi.NoteOnEvent(tick=1, channel=0, data=[80, 0]),
   midi.NoteOnEvent(tick=5, channel=0, data=[40, 0]),
   midi.NoteOnEvent(tick=1, channel=0, data=[52, 0]),
   midi.NoteOnEvent(tick=1, channel=0, data=[49, 0]),
   midi.NoteOnEvent(tick=6, channel=0, data=[44, 0]),
   midi.NoteOnEvent(tick=165, channel=0, data=[42, 50]),
   midi.NoteOnEvent(tick=99, channel=0, data=[58, 40]),
   midi.NoteOnEvent(tick=3, channel=0, data=[52, 50]),
   midi.NoteOnEvent(tick=77, channel=0, data=[58, 0]),
   midi.NoteOnEvent(tick=6, channel=0, data=[52, 0]),
   midi.NoteOnEvent(tick=8, channel=0, data=[42, 0]),
   midi.NoteOnEvent(tick=194, channel=0, data=[35, 66]),
   midi.ControlChangeEvent(tick=0, channel=0, data=[64, 127]),
   midi.NoteOnEvent(tick=38, channel=0, data=[47, 45]),
   midi.NoteOnEvent(tick=2, channel=0, data=[59, 32]),
   midi.NoteOnEvent(tick=1, channel=0, data=[51, 35]),
   midi.NoteOnEvent(tick=7, channel=0, data=[47, 0]),
   midi.NoteOnEvent(tick=4, channel=0, data=[51, 0]),
   midi.NoteOnEvent(tick=0, channel=0, data=[59, 0]),
   midi.NoteOnEvent(tick=35, channel=0, data=[47, 29]),
   midi.NoteOnEvent(tick=6, channel=0, data=[51, 20]),
   midi.NoteOnEvent(tick=9, channel=0, data=[51, 0]),
   midi.NoteOnEvent(tick=2, channel=0, data=[47, 0]),
   midi.NoteOnEvent(tick=31, channel=0, data=[51, 52]),
   midi.NoteOnEvent(tick=3, channel=0, data=[47, 37]),
   midi.NoteOnEvent(tick=0, channel=0, data=[59, 29]),
   midi.NoteOnEvent(tick=12, channel=0, data=[59, 0]),
   midi.NoteOnEvent(tick=1, channel=0, data=[47, 0]),
   midi.NoteOnEvent(tick=5, channel=0, data=[51, 0]),
   midi.NoteOnEvent(tick=22, channel=0, data=[35, 0]),
   midi.NoteOnEvent(tick=5, channel=0, data=[40, 69]),
   midi.ControlChangeEvent(tick=1, channel=0, data=[64, 0]),
   midi.ControlChangeEvent(tick=38, channel=0, data=[64, 127]),
   midi.NoteOnEvent(tick=5, channel=0, data=[47, 54]),
   midi.NoteOnEvent(tick=3, channel=0, data=[56, 45]),
   midi.NoteOnEvent(tick=9, channel=0, data=[56, 0]),
   midi.NoteOnEvent(tick=3, channel=0, data=[47, 0]),
   midi.NoteOnEvent(tick=31, channel=0, data=[47, 47]),
   midi.NoteOnEvent(tick=4, channel=0, data=[56, 37]),
   midi.NoteOnEvent(tick=2, channel=0, data=[59, 26]),
   midi.NoteOnEvent(tick=7, channel=0, data=[56, 0]),
   midi.NoteOnEvent(tick=2, channel=0, data=[59, 0]),
   midi.NoteOnEvent(tick=1, channel=0, data=[47, 0]),
   midi.NoteOnEvent(tick=31, channel=0, data=[47, 38]),
   midi.NoteOnEvent(tick=1, channel=0, data=[56, 33]),
   midi.NoteOnEvent(tick=2, channel=0, data=[59, 25]),
   midi.NoteOnEvent(tick=12, channel=0, data=[59, 0]),
   midi.NoteOnEvent(tick=1, channel=0, data=[47, 0]),
   midi.NoteOnEvent(tick=2, channel=0, data=[56, 0]),
   midi.NoteOnEvent(tick=31, channel=0, data=[40, 0]),
   midi.NoteOnEvent(tick=1, channel=0, data=[39, 77]),
   midi.ControlChangeEvent(tick=1, channel=0, data=[64, 0]),
   midi.ControlChangeEvent(tick=35, channel=0, data=[64, 127]),
   midi.NoteOnEvent(tick=10, channel=0, data=[47, 50]),
   midi.NoteOnEvent(tick=1, channel=0, data=[54, 54]),
   midi.NoteOnEvent(tick=0, channel=0, data=[59, 47]),
   midi.NoteOnEvent(tick=12, channel=0, data=[59, 0]),
   midi.NoteOnEvent(tick=3, channel=0, data=[47, 0]),
   midi.NoteOnEvent(tick=4, channel=0, data=[54, 0]),
   midi.NoteOnEvent(tick=28, channel=0, data=[54, 40]),
   midi.NoteOnEvent(tick=1, channel=0, data=[47, 41]),
   midi.NoteOnEvent(tick=2, channel=0, data=[59, 38]),
   midi.NoteOnEvent(tick=12, channel=0, data=[59, 0]),
   midi.NoteOnEvent(tick=1, channel=0, data=[54, 0]),
   midi.NoteOnEvent(tick=1, channel=0, data=[47, 0]),
   midi.NoteOnEvent(tick=28, channel=0, data=[47, 57]),
   midi.NoteOnEvent(tick=2, channel=0, data=[54, 47]),
   midi.NoteOnEvent(tick=4, channel=0, data=[59, 37]),
   midi.NoteOnEvent(tick=11, channel=0, data=[59, 0]),
   midi.NoteOnEvent(tick=4, channel=0, data=[47, 0]),
   midi.NoteOnEvent(tick=6, channel=0, data=[54, 0]),
   midi.NoteOnEvent(tick=15, channel=0, data=[39, 0]),
   midi.NoteOnEvent(tick=7, channel=0, data=[44, 81]),
   midi.ControlChangeEvent(tick=3, channel=0, data=[64, 0]),
   midi.ControlChangeEvent(tick=37, channel=0, data=[64, 127]),
   midi.NoteOnEvent(tick=8, channel=0, data=[47, 54]),
   midi.NoteOnEvent(tick=0, channel=0, data=[59, 52]),
   midi.NoteOnEvent(tick=2, channel=0, data=[52, 59]),
   midi.NoteOnEvent(tick=10, channel=0, data=[52, 0]),
   midi.NoteOnEvent(tick=0, channel=0, data=[59, 0]),
   midi.NoteOnEvent(tick=2, channel=0, data=[47, 0]),
   midi.NoteOnEvent(tick=32, channel=0, data=[47, 50]),
   midi.NoteOnEvent(tick=1, channel=0, data=[52, 59]),
   midi.NoteOnEvent(tick=4, channel=0, data=[59, 41]),
   midi.NoteOnEvent(tick=9, channel=0, data=[59, 0]),
   midi.NoteOnEvent(tick=3, channel=0, data=[47, 0]),
   midi.NoteOnEvent(tick=3, channel=0, data=[52, 0]),
   midi.NoteOnEvent(tick=22, channel=0, data=[52, 50]),
   midi.NoteOnEvent(tick=4, channel=0, data=[47, 54]),
   midi.NoteOnEvent(tick=4, channel=0, data=[59, 37]),
   midi.NoteOnEvent(tick=14, channel=0, data=[59, 0]),
   midi.NoteOnEvent(tick=1, channel=0, data=[47, 0]),
   midi.NoteOnEvent(tick=2, channel=0, data=[52, 0]),
   midi.NoteOnEvent(tick=23, channel=0, data=[42, 77]),
   midi.NoteOnEvent(tick=3, channel=0, data=[44, 0]),
   midi.ControlChangeEvent(tick=2, channel=0, data=[64, 0]),
   midi.ControlChangeEvent(tick=38, channel=0, data=[64, 127]),
   midi.NoteOnEvent(tick=3, channel=0, data=[47, 73]),
   midi.NoteOnEvent(tick=4, channel=0, data=[59, 50]),
   midi.NoteOnEvent(tick=1, channel=0, data=[51, 47]),
   midi.NoteOnEvent(tick=9, channel=0, data=[51, 0]),
   midi.NoteOnEvent(tick=1, channel=0, data=[47, 0]),
   midi.NoteOnEvent(tick=1, channel=0, data=[59, 0]),
   midi.NoteOnEvent(tick=33, channel=0, data=[51, 57]),
   midi.NoteOnEvent(tick=2, channel=0, data=[59, 40]),
   midi.NoteOnEvent(tick=10, channel=0, data=[59, 0]),
   midi.NoteOnEvent(tick=3, channel=0, data=[51, 0]),
   midi.NoteOnEvent(tick=27, channel=0, data=[47, 69]),
   midi.NoteOnEvent(tick=1, channel=0, data=[51, 45]),
   midi.NoteOnEvent(tick=8, channel=0, data=[47, 0]),
   midi.NoteOnEvent(tick=8, channel=0, data=[51, 0]),
   midi.ControlChangeEvent(tick=29, channel=0, data=[64, 0]),
   midi.NoteOnEvent(tick=2, channel=0, data=[40, 81]),
   midi.NoteOnEvent(tick=2, channel=0, data=[42, 0]),
   midi.ControlChangeEvent(tick=29, channel=0, data=[64, 127]),
   midi.NoteOnEvent(tick=13, channel=0, data=[47, 73]),
   midi.NoteOnEvent(tick=3, channel=0, data=[49, 66]),
   midi.NoteOnEvent(tick=0, channel=0, data=[58, 59]),
   midi.NoteOnEvent(tick=2, channel=0, data=[59, 66]),
   midi.NoteOnEvent(tick=8, channel=0, data=[49, 0]),
   midi.NoteOnEvent(tick=1, channel=0, data=[59, 0]),
   midi.NoteOnEvent(tick=1, channel=0, data=[47, 0]),
   midi.NoteOnEvent(tick=4, channel=0, data=[58, 0]),
   midi.NoteOnEvent(tick=28, channel=0, data=[47, 73]),
   midi.NoteOnEvent(tick=2, channel=0, data=[49, 52]),
   midi.NoteOnEvent(tick=1, channel=0, data=[58, 50]),
   midi.NoteOnEvent(tick=2, channel=0, data=[59, 47]),
   midi.NoteOnEvent(tick=4, channel=0, data=[47, 0]),
   midi.NoteOnEvent(tick=5, channel=0, data=[59, 0]),
   midi.NoteOnEvent(tick=2, channel=0, data=[49, 0]),
   midi.NoteOnEvent(tick=1, channel=0, data=[58, 0]),
   midi.NoteOnEvent(tick=23, channel=0, data=[49, 59]),
   midi.NoteOnEvent(tick=1, channel=0, data=[58, 45]),
   midi.NoteOnEvent(tick=2, channel=0, data=[47, 77]),
   midi.NoteOnEvent(tick=7, channel=0, data=[40, 0]),
   midi.NoteOnEvent(tick=4, channel=0, data=[49, 0]),
   midi.NoteOnEvent(tick=4, channel=0, data=[58, 0]),
   midi.NoteOnEvent(tick=8, channel=0, data=[47, 0]),
   midi.NoteOnEvent(tick=26, channel=0, data=[39, 81]),
   midi.ControlChangeEvent(tick=0, channel=0, data=[64, 0]),
   midi.ControlChangeEvent(tick=37, channel=0, data=[64, 127]),
   midi.NoteOnEvent(tick=8, channel=0, data=[47, 73]),
   midi.NoteOnEvent(tick=3, channel=0, data=[59, 57]),
   midi.NoteOnEvent(tick=12, channel=0, data=[47, 0]),
   midi.NoteOnEvent(tick=3, channel=0, data=[59, 0]),
   midi.NoteOnEvent(tick=27, channel=0, data=[59, 47]),
   midi.NoteOnEvent(tick=1, channel=0, data=[47, 54]),
   midi.NoteOnEvent(tick=15, channel=0, data=[47, 0]),
   midi.NoteOnEvent(tick=3, channel=0, data=[59, 0]),
   midi.NoteOnEvent(tick=26, channel=0, data=[47, 57]),
   midi.NoteOnEvent(tick=0, channel=0, data=[59, 50]),
   midi.NoteOnEvent(tick=15, channel=0, data=[47, 0]),
   midi.NoteOnEvent(tick=5, channel=0, data=[59, 0]),
   midi.NoteOnEvent(tick=19, channel=0, data=[39, 0]),
   midi.NoteOnEvent(tick=6, channel=0, data=[35, 69]),
   midi.ControlChangeEvent(tick=3, channel=0, data=[64, 0]),
   midi.ControlChangeEvent(tick=34, channel=0, data=[64, 127]),
   midi.NoteOnEvent(tick=6, channel=0, data=[47, 59]),
   midi.NoteOnEvent(tick=5, channel=0, data=[59, 54]),
   midi.NoteOnEvent(tick=1, channel=0, data=[51, 57]),
   midi.NoteOnEvent(tick=2, channel=0, data=[57, 69]),
   midi.NoteOnEvent(tick=8, channel=0, data=[51, 0]),
   midi.NoteOnEvent(tick=1, channel=0, data=[57, 0]),
   midi.NoteOnEvent(tick=3, channel=0, data=[47, 0]),
   midi.NoteOnEvent(tick=1, channel=0, data=[59, 0]),
   midi.NoteOnEvent(tick=28, channel=0, data=[47, 73]),
   midi.NoteOnEvent(tick=1, channel=0, data=[51, 52]),
   midi.NoteOnEvent(tick=2, channel=0, data=[59, 50]),
   midi.NoteOnEvent(tick=2, channel=0, data=[57, 66]),
   midi.NoteOnEvent(tick=5, channel=0, data=[47, 0]),
   midi.NoteOnEvent(tick=4, channel=0, data=[57, 0]),
   midi.NoteOnEvent(tick=2, channel=0, data=[51, 0]),
   midi.NoteOnEvent(tick=2, channel=0, data=[59, 0]),
   midi.NoteOnEvent(tick=28, channel=0, data=[51, 59]),
   midi.NoteOnEvent(tick=2, channel=0, data=[47, 69]),
   midi.NoteOnEvent(tick=0, channel=0, data=[59, 47]),
   midi.NoteOnEvent(tick=1, channel=0, data=[57, 73]),
   midi.NoteOnEvent(tick=5, channel=0, data=[51, 0]),
   midi.NoteOnEvent(tick=3, channel=0, data=[35, 0]),
   midi.NoteOnEvent(tick=2, channel=0, data=[59, 0]),
   midi.NoteOnEvent(tick=2, channel=0, data=[57, 0]),
   midi.NoteOnEvent(tick=9, channel=0, data=[47, 0]),
   midi.ControlChangeEvent(tick=27, channel=0, data=[64, 0]),
   midi.NoteOnEvent(tick=2, channel=0, data=[40, 81]),
   midi.NoteOnEvent(tick=15, channel=0, data=[41, 33]),
   midi.NoteOnEvent(tick=5, channel=0, data=[71, 86]),
   midi.NoteOnEvent(tick=3, channel=0, data=[41, 0]),
   midi.NoteOnEvent(tick=3, channel=0, data=[40, 0]),
   midi.ControlChangeEvent(tick=6, channel=0, data=[64, 127]),
   midi.NoteOnEvent(tick=45, channel=0, data=[56, 28]),
   midi.NoteOnEvent(tick=2, channel=0, data=[59, 69]),
   midi.NoteOnEvent(tick=3, channel=0, data=[52, 69]),
   midi.NoteOnEvent(tick=14, channel=0, data=[56, 0]),
   midi.NoteOnEvent(tick=1, channel=0, data=[59, 0]),
   midi.NoteOnEvent(tick=1, channel=0, data=[52, 0]),
   midi.NoteOnEvent(tick=27, channel=0, data=[56, 59]),
   midi.NoteOnEvent(tick=1, channel=0, data=[52, 50]),
   midi.NoteOnEvent(tick=4, channel=0, data=[59, 52]),
   midi.NoteOnEvent(tick=10, channel=0, data=[59, 0]),
   midi.NoteOnEvent(tick=2, channel=0, data=[52, 0]),
   midi.NoteOnEvent(tick=3, channel=0, data=[56, 0]),
   midi.NoteOnEvent(tick=25, channel=0, data=[52, 45]),
   midi.NoteOnEvent(tick=3, channel=0, data=[56, 50]),
   midi.NoteOnEvent(tick=0, channel=0, data=[59, 57]),
   midi.NoteOnEvent(tick=8, channel=0, data=[59, 0]),
   midi.NoteOnEvent(tick=2, channel=0, data=[52, 0]),
   midi.NoteOnEvent(tick=13, channel=0, data=[56, 0]),
   midi.NoteOnEvent(tick=17, channel=0, data=[71, 0]),
   midi.NoteOnEvent(tick=6, channel=0, data=[76, 86]),
   midi.NoteOnEvent(tick=0, channel=0, data=[64, 81]),
   midi.NoteOnEvent(tick=45, channel=0, data=[56, 59]),
   midi.NoteOnEvent(tick=4, channel=0, data=[59, 50]),
   midi.NoteOnEvent(tick=1, channel=0, data=[52, 41]),
   midi.NoteOnEvent(tick=8, channel=0, data=[59, 0]),
   midi.NoteOnEvent(tick=2, channel=0, data=[52, 0]),
   midi.NoteOnEvent(tick=2, channel=0, data=[56, 0]),
   midi.NoteOnEvent(tick=33, channel=0, data=[56, 38]),
   midi.NoteOnEvent(tick=2, channel=0, data=[52, 47]),
   midi.NoteOnEvent(tick=1, channel=0, data=[59, 47]),
   midi.NoteOnEvent(tick=9, channel=0, data=[52, 0]),
   midi.NoteOnEvent(tick=1, channel=0, data=[56, 0]),
   midi.NoteOnEvent(tick=0, channel=0, data=[59, 0]),
   midi.NoteOnEvent(tick=30, channel=0, data=[56, 40]),
   midi.NoteOnEvent(tick=5, channel=0, data=[59, 32]),
   midi.NoteOnEvent(tick=3, channel=0, data=[52, 33]),
   midi.NoteOnEvent(tick=10, channel=0, data=[59, 0]),
   midi.NoteOnEvent(tick=1, channel=0, data=[52, 0]),
   midi.NoteOnEvent(tick=2, channel=0, data=[56, 0]),
   midi.NoteOnEvent(tick=27, channel=0, data=[72, 86]),
   midi.NoteOnEvent(tick=10, channel=0, data=[76, 0]),
   midi.ControlChangeEvent(tick=3, channel=0, data=[64, 0]),
   midi.ControlChangeEvent(tick=34, channel=0, data=[64, 127]),
   midi.NoteOnEvent(tick=1, channel=0, data=[52, 52]),
   midi.NoteOnEvent(tick=0, channel=0, data=[57, 59]),
   midi.NoteOnEvent(tick=2, channel=0, data=[60, 54]),
   midi.NoteOnEvent(tick=7, channel=0, data=[52, 0]),
   midi.NoteOnEvent(tick=2, channel=0, data=[60, 0]),
   midi.NoteOnEvent(tick=6, channel=0, data=[57, 0]),
   midi.NoteOnEvent(tick=14, channel=0, data=[64, 0]),
   midi.NoteOnEvent(tick=16, channel=0, data=[57, 59]),
   midi.NoteOnEvent(tick=3, channel=0, data=[52, 47]),
   midi.NoteOnEvent(tick=0, channel=0, data=[60, 57]),
   midi.NoteOnEvent(tick=9, channel=0, data=[60, 0]),
   midi.NoteOnEvent(tick=1, channel=0, data=[52, 0]),
   midi.NoteOnEvent(tick=8, channel=0, data=[57, 0]),
   midi.NoteOnEvent(tick=25, channel=0, data=[57, 57]),
   midi.NoteOnEvent(tick=1, channel=0, data=[52, 59]),
   midi.NoteOnEvent(tick=6, channel=0, data=[60, 27]),
   midi.NoteOnEvent(tick=7, channel=0, data=[52, 0]),
   midi.NoteOnEvent(tick=2, channel=0, data=[60, 0]),
   midi.NoteOnEvent(tick=6, channel=0, data=[57, 0]),
   midi.NoteOnEvent(tick=28, channel=0, data=[72, 0]),
   midi.NoteOnEvent(tick=1, channel=0, data=[65, 91]),
   midi.NoteOnEvent(tick=2, channel=0, data=[77, 86]),
   midi.NoteOnEvent(tick=41, channel=0, data=[52, 66]),
   midi.NoteOnEvent(tick=3, channel=0, data=[57, 57]),
   midi.NoteOnEvent(tick=0, channel=0, data=[60, 59]),
   midi.NoteOnEvent(tick=9, channel=0, data=[60, 0]),
   midi.NoteOnEvent(tick=0, channel=0, data=[52, 0]),
   midi.NoteOnEvent(tick=0, channel=0, data=[57, 0]),
   midi.NoteOnEvent(tick=21, channel=0, data=[77, 0]),
   midi.NoteOnEvent(tick=16, channel=0, data=[52, 45]),
   midi.NoteOnEvent(tick=0, channel=0, data=[57, 66]),
   midi.NoteOnEvent(tick=2, channel=0, data=[60, 57]),
   midi.NoteOnEvent(tick=7, channel=0, data=[57, 0]),
   midi.NoteOnEvent(tick=2, channel=0, data=[60, 0]),
   midi.NoteOnEvent(tick=3, channel=0, data=[52, 0]),
   midi.NoteOnEvent(tick=32, channel=0, data=[60, 66]),
   midi.NoteOnEvent(tick=3, channel=0, data=[57, 57]),
   midi.NoteOnEvent(tick=2, channel=0, data=[52, 25]),
   midi.NoteOnEvent(tick=4, channel=0, data=[60, 0]),
   midi.NoteOnEvent(tick=4, channel=0, data=[57, 0]),
   midi.NoteOnEvent(tick=1, channel=0, data=[52, 0]),
   midi.NoteOnEvent(tick=34, channel=0, data=[71, 91]),
   midi.NoteOnEvent(tick=0, channel=0, data=[77, 91]),
   midi.ControlChangeEvent(tick=5, channel=0, data=[64, 0]),
   midi.ControlChangeEvent(tick=34, channel=0, data=[64, 127]),
   midi.NoteOnEvent(tick=7, channel=0, data=[50, 59]),
   midi.NoteOnEvent(tick=1, channel=0, data=[53, 52]),
   midi.NoteOnEvent(tick=1, channel=0, data=[65, 0]),
   midi.NoteOnEvent(tick=0, channel=0, data=[59, 45]),
   midi.NoteOnEvent(tick=0, channel=0, data=[57, 47]),
   midi.NoteOnEvent(tick=7, channel=0, data=[50, 0]),
   midi.NoteOnEvent(tick=1, channel=0, data=[59, 0]),
   midi.NoteOnEvent(tick=1, channel=0, data=[57, 0]),
   midi.NoteOnEvent(tick=2, channel=0, data=[71, 0]),
   midi.NoteOnEvent(tick=1, channel=0, data=[53, 0]),
   midi.NoteOnEvent(tick=5, channel=0, data=[77, 0]),
   midi.NoteOnEvent(tick=28, channel=0, data=[57, 57]),
   midi.NoteOnEvent(tick=0, channel=0, data=[53, 50]),
   midi.NoteOnEvent(tick=1, channel=0, data=[50, 57]),
   midi.NoteOnEvent(tick=1, channel=0, data=[59, 50]),
   midi.NoteOnEvent(tick=6, channel=0, data=[57, 0]),
   midi.NoteOnEvent(tick=2, channel=0, data=[53, 0]),
   midi.NoteOnEvent(tick=0, channel=0, data=[50, 0]),
   midi.NoteOnEvent(tick=0, channel=0, data=[59, 0]),
   midi.NoteOnEvent(tick=39, channel=0, data=[57, 57]),
   midi.NoteOnEvent(tick=0, channel=0, data=[50, 57]),
   midi.NoteOnEvent(tick=1, channel=0, data=[59, 40]),
   midi.NoteOnEvent(tick=1, channel=0, data=[53, 54]),
   midi.NoteOnEvent(tick=6, channel=0, data=[57, 0]),
   midi.NoteOnEvent(tick=1, channel=0, data=[50, 0]),
   midi.NoteOnEvent(tick=2, channel=0, data=[59, 0]),
   midi.NoteOnEvent(tick=1, channel=0, data=[53, 0]),
   midi.NoteOnEvent(tick=35, channel=0, data=[83, 91]),
   midi.NoteOnEvent(tick=1, channel=0, data=[71, 91]),
   midi.NoteOnEvent(tick=43, channel=0, data=[57, 59]),
   midi.NoteOnEvent(tick=1, channel=0, data=[50, 57]),
   midi.NoteOnEvent(tick=0, channel=0, data=[53, 59]),
   midi.NoteOnEvent(tick=3, channel=0, data=[71, 0]),
   midi.NoteOnEvent(tick=1, channel=0, data=[59, 28]),
   midi.NoteOnEvent(tick=5, channel=0, data=[50, 0]),
   midi.NoteOnEvent(tick=0, channel=0, data=[53, 0]),
   midi.NoteOnEvent(tick=0, channel=0, data=[57, 0]),
   midi.NoteOnEvent(tick=4, channel=0, data=[59, 0]),
   midi.NoteOnEvent(tick=11, channel=0, data=[83, 0]),
   midi.NoteOnEvent(tick=24, channel=0, data=[59, 57]),
   midi.NoteOnEvent(tick=1, channel=0, data=[57, 69]),
   midi.NoteOnEvent(tick=0, channel=0, data=[50, 59]),
   midi.NoteOnEvent(tick=2, channel=0, data=[53, 54]),
   midi.NoteOnEvent(tick=6, channel=0, data=[57, 0]),
   midi.NoteOnEvent(tick=0, channel=0, data=[59, 0]),
   midi.NoteOnEvent(tick=2, channel=0, data=[50, 0]),
   midi.NoteOnEvent(tick=1, channel=0, data=[53, 0]),
   midi.NoteOnEvent(tick=31, channel=0, data=[57, 54]),
   midi.NoteOnEvent(tick=3, channel=0, data=[50, 50]),
   midi.NoteOnEvent(tick=0, channel=0, data=[53, 54]),
   midi.NoteOnEvent(tick=0, channel=0, data=[59, 50]),
   midi.NoteOnEvent(tick=6, channel=0, data=[57, 0]),
   midi.NoteOnEvent(tick=3, channel=0, data=[59, 0]),
   midi.NoteOnEvent(tick=0, channel=0, data=[53, 0]),
   midi.NoteOnEvent(tick=1, channel=0, data=[50, 0]),
   midi.NoteOnEvent(tick=42, channel=0, data=[86, 102]),
   midi.NoteOnEvent(tick=0, channel=0, data=[74, 102]),
   midi.ControlChangeEvent(tick=8, channel=0, data=[64, 0]),
   midi.ControlChangeEvent(tick=27, channel=0, data=[64, 127]),
   midi.NoteOnEvent(tick=13, channel=0, data=[50, 59]),
   midi.NoteOnEvent(tick=1, channel=0, data=[56, 57]),
   midi.NoteOnEvent(tick=0, channel=0, data=[59, 54]),
   midi.NoteOnEvent(tick=1, channel=0, data=[53, 57]),
   midi.NoteOnEvent(tick=7, channel=0, data=[50, 0]),
   midi.NoteOnEvent(tick=2, channel=0, data=[59, 0]),
   midi.NoteOnEvent(tick=0, channel=0, data=[56, 0]),
   midi.NoteOnEvent(tick=1, channel=0, data=[53, 0]),
   midi.NoteOnEvent(tick=14, channel=0, data=[74, 0]),
   midi.NoteOnEvent(tick=15, channel=0, data=[86, 0]),
   midi.NoteOnEvent(tick=8, channel=0, data=[50, 66]),
   midi.NoteOnEvent(tick=2, channel=0, data=[56, 45]),
   midi.NoteOnEvent(tick=1, channel=0, data=[59, 54]),
   midi.NoteOnEvent(tick=1, channel=0, data=[53, 57]),
   midi.NoteOnEvent(tick=8, channel=0, data=[59, 0]),
   midi.NoteOnEvent(tick=0, channel=0, data=[50, 0]),
   midi.NoteOnEvent(tick=1, channel=0, data=[53, 0]),
   midi.NoteOnEvent(tick=3, channel=0, data=[56, 0]),
   midi.NoteOnEvent(tick=32, channel=0, data=[50, 52]),
   midi.NoteOnEvent(tick=1, channel=0, data=[56, 37]),
   midi.NoteOnEvent(tick=3, channel=0, data=[59, 59]),
   midi.NoteOnEvent(tick=1, channel=0, data=[53, 59]),
   midi.NoteOnEvent(tick=6, channel=0, data=[50, 0]),
   midi.NoteOnEvent(tick=3, channel=0, data=[59, 0]),
   midi.NoteOnEvent(tick=1, channel=0, data=[53, 0]),
   midi.NoteOnEvent(tick=1, channel=0, data=[56, 0]),
   midi.NoteOnEvent(tick=35, channel=0, data=[77, 102]),
   midi.NoteOnEvent(tick=0, channel=0, data=[89, 102]),
   midi.NoteOnEvent(tick=42, channel=0, data=[50, 69]),
   midi.NoteOnEvent(tick=1, channel=0, data=[56, 57]),
   midi.NoteOnEvent(tick=1, channel=0, data=[53, 66]),
   midi.NoteOnEvent(tick=3, channel=0, data=[59, 41]),
   midi.NoteOnEvent(tick=4, channel=0, data=[50, 0]),
   midi.NoteOnEvent(tick=1, channel=0, data=[77, 0]),
   midi.NoteOnEvent(tick=1, channel=0, data=[56, 0]),
   midi.NoteOnEvent(tick=0, channel=0, data=[53, 0]),
   midi.NoteOnEvent(tick=4, channel=0, data=[59, 0]),
   midi.NoteOnEvent(tick=3, channel=0, data=[89, 0]),
   midi.NoteOnEvent(tick=33, channel=0, data=[53, 69]),
   midi.NoteOnEvent(tick=1, channel=0, data=[50, 59]),
   midi.NoteOnEvent(tick=0, channel=0, data=[56, 52]),
   midi.NoteOnEvent(tick=9, channel=0, data=[50, 0]),
   midi.NoteOnEvent(tick=0, channel=0, data=[53, 0]),
   midi.NoteOnEvent(tick=1, channel=0, data=[56, 0]),
   midi.NoteOnEvent(tick=30, channel=0, data=[56, 54]),
   midi.NoteOnEvent(tick=2, channel=0, data=[53, 59]),
   midi.NoteOnEvent(tick=2, channel=0, data=[50, 47]),
   midi.NoteOnEvent(tick=1, channel=0, data=[59, 59]),
   midi.NoteOnEvent(tick=7, channel=0, data=[53, 0]),
   midi.NoteOnEvent(tick=1, channel=0, data=[50, 0]),
   midi.NoteOnEvent(tick=1, channel=0, data=[59, 0]),
   midi.NoteOnEvent(tick=1, channel=0, data=[56, 0]),
   midi.ControlChangeEvent(tick=34, channel=0, data=[64, 0]),
   midi.NoteOnEvent(tick=3, channel=0, data=[48, 69]),
   midi.NoteOnEvent(tick=6, channel=0, data=[88, 77]),
   midi.NoteOnEvent(tick=0, channel=0, data=[76, 73]),
   midi.NoteOnEvent(tick=18, channel=0, data=[52, 69]),
   midi.ControlChangeEvent(tick=9, channel=0, data=[64, 127]),
   midi.NoteOnEvent(tick=2, channel=0, data=[48, 0]),
   midi.NoteOnEvent(tick=17, channel=0, data=[57, 52]),
   midi.NoteOnEvent(tick=8, channel=0, data=[52, 0]),
   midi.NoteOnEvent(tick=12, channel=0, data=[60, 59]),
   midi.NoteOnEvent(tick=10, channel=0, data=[57, 0]),
   midi.NoteOnEvent(tick=18, channel=0, data=[60, 0]),
   midi.NoteOnEvent(tick=4, channel=0, data=[48, 73]),
   midi.ControlChangeEvent(tick=1, channel=0, data=[64, 0]),
   midi.NoteOnEvent(tick=15, channel=0, data=[52, 54]),
   midi.ControlChangeEvent(tick=11, channel=0, data=[64, 127]),
   midi.NoteOnEvent(tick=5, channel=0, data=[48, 0]),
   midi.NoteOnEvent(tick=8, channel=0, data=[57, 57]),
   midi.NoteOnEvent(tick=16, channel=0, data=[52, 0]),
   midi.NoteOnEvent(tick=8, channel=0, data=[60, 37]),
   midi.NoteOnEvent(tick=6, channel=0, data=[57, 0]),
   midi.NoteOnEvent(tick=20, channel=0, data=[60, 0]),
   midi.ControlChangeEvent(tick=2, channel=0, data=[64, 0]),
   midi.NoteOnEvent(tick=6, channel=0, data=[48, 73]),
   midi.ControlChangeEvent(tick=17, channel=0, data=[64, 127]),
   midi.NoteOnEvent(tick=2, channel=0, data=[52, 57]),
   midi.NoteOnEvent(tick=4, channel=0, data=[76, 0]),
   midi.NoteOnEvent(tick=13, channel=0, data=[88, 0]),
   midi.NoteOnEvent(tick=3, channel=0, data=[48, 0]),
   midi.NoteOnEvent(tick=6, channel=0, data=[57, 57]),
   midi.NoteOnEvent(tick=16, channel=0, data=[52, 0]),
   midi.NoteOnEvent(tick=2, channel=0, data=[60, 47]),
   midi.NoteOnEvent(tick=14, channel=0, data=[57, 0]),
   midi.NoteOnEvent(tick=12, channel=0, data=[60, 0]),
   midi.NoteOnEvent(tick=15, channel=0, data=[48, 73]),
   midi.NoteOnEvent(tick=3, channel=0, data=[74, 81]),
   midi.NoteOnEvent(tick=0, channel=0, data=[86, 81]),
   midi.NoteOnEvent(tick=13, channel=0, data=[74, 0]),
   midi.NoteOnEvent(tick=1, channel=0, data=[52, 50]),
   midi.NoteOnEvent(tick=3, channel=0, data=[86, 0]),
   midi.NoteOnEvent(tick=4, channel=0, data=[48, 0]),
   midi.NoteOnEvent(tick=28, channel=0, data=[57, 66]),
   midi.NoteOnEvent(tick=0, channel=0, data=[72, 59]),
   midi.NoteOnEvent(tick=2, channel=0, data=[84, 66]),
   midi.NoteOnEvent(tick=7, channel=0, data=[52, 0]),
   midi.NoteOnEvent(tick=7, channel=0, data=[84, 0]),
   midi.NoteOnEvent(tick=1, channel=0, data=[72, 0]),
   midi.NoteOnEvent(tick=7, channel=0, data=[60, 32]),
   midi.NoteOnEvent(tick=4, channel=0, data=[57, 0]),
   midi.NoteOnEvent(tick=7, channel=0, data=[60, 0]),
   midi.ControlChangeEvent(tick=9, channel=0, data=[64, 0]),
   midi.NoteOnEvent(tick=6, channel=0, data=[71, 66]),
   midi.NoteOnEvent(tick=0, channel=0, data=[83, 86]),
   midi.NoteOnEvent(tick=1, channel=0, data=[48, 77]),
   midi.NoteOnEvent(tick=17, channel=0, data=[83, 0]),
   midi.NoteOnEvent(tick=1, channel=0, data=[71, 0]),
   midi.NoteOnEvent(tick=1, channel=0, data=[52, 59]),
   midi.ControlChangeEvent(tick=3, channel=0, data=[64, 127]),
   midi.NoteOnEvent(tick=3, channel=0, data=[48, 0]),
   midi.NoteOnEvent(tick=21, channel=0, data=[57, 59]),
   midi.NoteOnEvent(tick=4, channel=0, data=[81, 77]),
   midi.NoteOnEvent(tick=2, channel=0, data=[69, 40]),
   midi.NoteOnEvent(tick=5, channel=0, data=[52, 0]),
   midi.NoteOnEvent(tick=5, channel=0, data=[69, 0]),
   midi.NoteOnEvent(tick=5, channel=0, data=[60, 50]),
   midi.NoteOnEvent(tick=8, channel=0, data=[81, 0]),
   midi.NoteOnEvent(tick=3, channel=0, data=[57, 0]),
   midi.NoteOnEvent(tick=2, channel=0, data=[60, 0]),
   midi.NoteOnEvent(tick=17, channel=0, data=[80, 77]),
   midi.NoteOnEvent(tick=2, channel=0, data=[48, 77]),
   midi.NoteOnEvent(tick=2, channel=0, data=[68, 45]),
   midi.NoteOnEvent(tick=9, channel=0, data=[68, 0]),
   midi.NoteOnEvent(tick=9, channel=0, data=[48, 0]),
   midi.NoteOnEvent(tick=0, channel=0, data=[52, 59]),
   midi.NoteOnEvent(tick=4, channel=0, data=[80, 0]),
   midi.NoteOnEvent(tick=21, channel=0, data=[69, 81]),
   midi.NoteOnEvent(tick=3, channel=0, data=[81, 77]),
   midi.NoteOnEvent(tick=2, channel=0, data=[57, 57]),
   midi.NoteOnEvent(tick=10, channel=0, data=[69, 0]),
   midi.NoteOnEvent(tick=0, channel=0, data=[52, 0]),
   midi.NoteOnEvent(tick=6, channel=0, data=[81, 0]),
   midi.NoteOnEvent(tick=13, channel=0, data=[60, 25]),
   midi.NoteOnEvent(tick=8, channel=0, data=[60, 0]),
   midi.NoteOnEvent(tick=3, channel=0, data=[57, 0]),
   midi.ControlChangeEvent(tick=6, channel=0, data=[64, 0]),
   midi.NoteOnEvent(tick=3, channel=0, data=[80, 69]),
   midi.NoteOnEvent(tick=3, channel=0, data=[48, 77]),
   midi.NoteOnEvent(tick=1, channel=0, data=[68, 50]),
   midi.NoteOnEvent(tick=11, channel=0, data=[68, 0]),
   midi.ControlChangeEvent(tick=5, channel=0, data=[64, 127]),
   midi.NoteOnEvent(tick=3, channel=0, data=[52, 73]),
   midi.NoteOnEvent(tick=3, channel=0, data=[80, 0]),
   midi.NoteOnEvent(tick=5, channel=0, data=[48, 0]),
   midi.NoteOnEvent(tick=20, channel=0, data=[57, 69]),
   midi.NoteOnEvent(tick=0, channel=0, data=[69, 69]),
   midi.NoteOnEvent(tick=2, channel=0, data=[81, 73]),
   midi.NoteOnEvent(tick=11, channel=0, data=[69, 0]),
   midi.NoteOnEvent(tick=3, channel=0, data=[52, 0]),
   midi.NoteOnEvent(tick=2, channel=0, data=[81, 0]),
   midi.NoteOnEvent(tick=3, channel=0, data=[60, 45]),
   midi.NoteOnEvent(tick=9, channel=0, data=[57, 0]),
   midi.NoteOnEvent(tick=2, channel=0, data=[60, 0]),
   midi.NoteOnEvent(tick=19, channel=0, data=[83, 81]),
   midi.NoteOnEvent(tick=0, channel=0, data=[71, 77]),
   midi.NoteOnEvent(tick=2, channel=0, data=[48, 77]),
   midi.NoteOnEvent(tick=12, channel=0, data=[71, 0]),
   midi.NoteOnEvent(tick=1, channel=0, data=[83, 0]),
   midi.NoteOnEvent(tick=7, channel=0, data=[52, 59]),
   midi.NoteOnEvent(tick=9, channel=0, data=[48, 0]),
   midi.NoteOnEvent(tick=20, channel=0, data=[69, 86]),
   midi.NoteOnEvent(tick=1, channel=0, data=[81, 86]),
   midi.NoteOnEvent(tick=2, channel=0, data=[57, 54]),
   midi.NoteOnEvent(tick=10, channel=0, data=[52, 0]),
   midi.NoteOnEvent(tick=3, channel=0, data=[69, 0]),
   midi.NoteOnEvent(tick=1, channel=0, data=[81, 0]),
   midi.NoteOnEvent(tick=3, channel=0, data=[60, 57]),
   midi.NoteOnEvent(tick=10, channel=0, data=[57, 0]),
   midi.NoteOnEvent(tick=12, channel=0, data=[60, 0]),
   midi.ControlChangeEvent(tick=8, channel=0, data=[64, 0]),
   midi.NoteOnEvent(tick=0, channel=0, data=[69, 77]),
   midi.NoteOnEvent(tick=2, channel=0, data=[50, 73]),
   midi.NoteOnEvent(tick=0, channel=0, data=[81, 77]),
   midi.NoteOnEvent(tick=23, channel=0, data=[53, 69]),
   midi.NoteOnEvent(tick=3, channel=0, data=[50, 0]),
   midi.ControlChangeEvent(tick=6, channel=0, data=[64, 127]),
   midi.NoteOnEvent(tick=17, channel=0, data=[57, 57]),
   midi.NoteOnEvent(tick=7, channel=0, data=[53, 0]),
   midi.NoteOnEvent(tick=12, channel=0, data=[60, 40]),
   midi.NoteOnEvent(tick=4, channel=0, data=[57, 0]),
   midi.ControlChangeEvent(tick=26, channel=0, data=[64, 0]),
   midi.NoteOnEvent(tick=1, channel=0, data=[60, 0]),
   midi.NoteOnEvent(tick=0, channel=0, data=[50, 57]),
   midi.NoteOnEvent(tick=19, channel=0, data=[53, 59]),
   midi.NoteOnEvent(tick=9, channel=0, data=[50, 0]),
   midi.ControlChangeEvent(tick=1, channel=0, data=[64, 127]),
   midi.NoteOnEvent(tick=16, channel=0, data=[57, 59]),
   midi.NoteOnEvent(tick=11, channel=0, data=[53, 0]),
   midi.NoteOnEvent(tick=9, channel=0, data=[69, 0]),
   midi.NoteOnEvent(tick=2, channel=0, data=[60, 52]),
   midi.NoteOnEvent(tick=7, channel=0, data=[57, 0]),
   midi.NoteOnEvent(tick=12, channel=0, data=[81, 0]),
   midi.NoteOnEvent(tick=4, channel=0, data=[60, 0]),
   midi.NoteOnEvent(tick=7, channel=0, data=[50, 66]),
   midi.NoteOnEvent(tick=21, channel=0, data=[53, 69]),
   midi.NoteOnEvent(tick=2, channel=0, data=[50, 0]),
   midi.NoteOnEvent(tick=24, channel=0, data=[57, 57]),
   midi.NoteOnEvent(tick=9, channel=0, data=[53, 0]),
   midi.NoteOnEvent(tick=11, channel=0, data=[60, 57]),
   midi.NoteOnEvent(tick=8, channel=0, data=[57, 0]),
   midi.NoteOnEvent(tick=19, channel=0, data=[60, 0]),
   midi.NoteOnEvent(tick=7, channel=0, data=[50, 59]),
   midi.NoteOnEvent(tick=6, channel=0, data=[86, 81]),
   midi.NoteOnEvent(tick=0, channel=0, data=[74, 77]),
   midi.NoteOnEvent(tick=12, channel=0, data=[74, 0]),
   midi.NoteOnEvent(tick=5, channel=0, data=[86, 0]),
   midi.NoteOnEvent(tick=4, channel=0, data=[50, 0]),
   midi.NoteOnEvent(tick=3, channel=0, data=[53, 66]),
   midi.NoteOnEvent(tick=27, channel=0, data=[72, 77]),
   midi.NoteOnEvent(tick=0, channel=0, data=[84, 81]),
   midi.NoteOnEvent(tick=0, channel=0, data=[57, 59]),
   midi.NoteOnEvent(tick=6, channel=0, data=[53, 0]),
   midi.NoteOnEvent(tick=9, channel=0, data=[84, 0]),
   midi.NoteOnEvent(tick=1, channel=0, data=[72, 0]),
   midi.NoteOnEvent(tick=3, channel=0, data=[60, 38]),
   midi.NoteOnEvent(tick=6, channel=0, data=[57, 0]),
   midi.ControlChangeEvent(tick=10, channel=0, data=[64, 0]),
   midi.NoteOnEvent(tick=12, channel=0, data=[60, 0]),
   midi.NoteOnEvent(tick=1, channel=0, data=[50, 69]),
   midi.NoteOnEvent(tick=1, channel=0, data=[71, 81]),
   midi.NoteOnEvent(tick=3, channel=0, data=[83, 81]),
   midi.NoteOnEvent(tick=16, channel=0, data=[83, 0]),
   midi.ControlChangeEvent(tick=0, channel=0, data=[64, 127]),
   midi.NoteOnEvent(tick=1, channel=0, data=[71, 0]),
   midi.NoteOnEvent(tick=4, channel=0, data=[53, 66]),
   midi.NoteOnEvent(tick=1, channel=0, data=[50, 0]),
   midi.NoteOnEvent(tick=24, channel=0, data=[57, 54]),
   midi.NoteOnEvent(tick=5, channel=0, data=[81, 86]),
   midi.NoteOnEvent(tick=0, channel=0, data=[69, 77]),
   midi.NoteOnEvent(tick=4, channel=0, data=[53, 0]),
   midi.NoteOnEvent(tick=9, channel=0, data=[69, 0]),
   midi.NoteOnEvent(tick=5, channel=0, data=[60, 40]),
   midi.NoteOnEvent(tick=1, channel=0, data=[81, 0]),
   midi.NoteOnEvent(tick=4, channel=0, data=[57, 0]),
   midi.NoteOnEvent(tick=13, channel=0, data=[60, 0]),
   midi.NoteOnEvent(tick=11, channel=0, data=[50, 69]),
   midi.NoteOnEvent(tick=3, channel=0, data=[68, 77]),
   midi.NoteOnEvent(tick=0, channel=0, data=[80, 77]),
   midi.NoteOnEvent(tick=12, channel=0, data=[68, 0]),
   midi.NoteOnEvent(tick=6, channel=0, data=[50, 0]),
   midi.NoteOnEvent(tick=3, channel=0, data=[53, 69]),
   midi.NoteOnEvent(tick=1, channel=0, data=[80, 0]),
   midi.NoteOnEvent(tick=23, channel=0, data=[57, 69]),
   midi.NoteOnEvent(tick=2, channel=0, data=[69, 81]),
   midi.NoteOnEvent(tick=2, channel=0, data=[81, 77]),
   midi.NoteOnEvent(tick=5, channel=0, data=[53, 0]),
   midi.NoteOnEvent(tick=6, channel=0, data=[69, 0]),
   midi.NoteOnEvent(tick=7, channel=0, data=[81, 0]),
   midi.NoteOnEvent(tick=5, channel=0, data=[60, 50]),
   midi.NoteOnEvent(tick=1, channel=0, data=[57, 0]),
   midi.ControlChangeEvent(tick=16, channel=0, data=[64, 0]),
   midi.NoteOnEvent(tick=5, channel=0, data=[60, 0]),
   midi.NoteOnEvent(tick=3, channel=0, data=[80, 77]),
   midi.NoteOnEvent(tick=2, channel=0, data=[68, 57]),
   midi.NoteOnEvent(tick=0, channel=0, data=[50, 73]),
   midi.NoteOnEvent(tick=13, channel=0, data=[68, 0]),
   midi.ControlChangeEvent(tick=4, channel=0, data=[64, 127]),
   midi.NoteOnEvent(tick=7, channel=0, data=[50, 0]),
   midi.NoteOnEvent(tick=0, channel=0, data=[80, 0]),
   midi.NoteOnEvent(tick=1, channel=0, data=[53, 69]),
   midi.NoteOnEvent(tick=24, channel=0, data=[69, 77]),
   midi.NoteOnEvent(tick=0, channel=0, data=[57, 69]),
   midi.NoteOnEvent(tick=3, channel=0, data=[81, 77]),
   midi.NoteOnEvent(tick=2, channel=0, data=[53, 0]),
   midi.NoteOnEvent(tick=12, channel=0, data=[69, 0]),
   midi.NoteOnEvent(tick=0, channel=0, data=[81, 0]),
   midi.NoteOnEvent(tick=9, channel=0, data=[60, 47]),
   midi.NoteOnEvent(tick=2, channel=0, data=[57, 0]),
   midi.NoteOnEvent(tick=13, channel=0, data=[60, 0]),
   midi.NoteOnEvent(tick=9, channel=0, data=[71, 73]),
   midi.NoteOnEvent(tick=1, channel=0, data=[83, 81]),
   midi.NoteOnEvent(tick=1, channel=0, data=[50, 77]),
   midi.NoteOnEvent(tick=14, channel=0, data=[71, 0]),
   midi.NoteOnEvent(tick=2, channel=0, data=[83, 0]),
   midi.NoteOnEvent(tick=13, channel=0, data=[50, 0]),
   midi.NoteOnEvent(tick=1, channel=0, data=[53, 69]),
   midi.NoteOnEvent(tick=13, channel=0, data=[57, 69]),
   midi.NoteOnEvent(tick=4, channel=0, data=[53, 0]),
   midi.NoteOnEvent(tick=5, channel=0, data=[69, 81]),
   midi.NoteOnEvent(tick=1, channel=0, data=[81, 81]),
   midi.NoteOnEvent(tick=9, channel=0, data=[57, 0]),
   midi.NoteOnEvent(tick=5, channel=0, data=[69, 0]),
   midi.NoteOnEvent(tick=1, channel=0, data=[81, 0]),
   midi.NoteOnEvent(tick=1, channel=0, data=[60, 66]),
   midi.NoteOnEvent(tick=27, channel=0, data=[60, 0]),
   midi.NoteOnEvent(tick=2, channel=0, data=[52, 66]),
   midi.ControlChangeEvent(tick=3, channel=0, data=[64, 0]),
   midi.NoteOnEvent(tick=4, channel=0, data=[69, 81]),
   midi.NoteOnEvent(tick=0, channel=0, data=[81, 81]),
   midi.NoteOnEvent(tick=12, channel=0, data=[58, 66]),
   midi.NoteOnEvent(tick=8, channel=0, data=[52, 0]),
   midi.NoteOnEvent(tick=4, channel=0, data=[58, 0]),
   midi.NoteOnEvent(tick=2, channel=0, data=[57, 66]),
   midi.ControlChangeEvent(tick=4, channel=0, data=[64, 127]),
   midi.NoteOnEvent(tick=18, channel=0, data=[60, 57]),
   midi.NoteOnEvent(tick=14, channel=0, data=[57, 0]),
   midi.NoteOnEvent(tick=10, channel=0, data=[64, 54]),
   midi.NoteOnEvent(tick=8, channel=0, data=[60, 0]),
   midi.NoteOnEvent(tick=8, channel=0, data=[64, 0]),
   midi.NoteOnEvent(tick=13, channel=0, data=[52, 81]),
   midi.NoteOnEvent(tick=22, channel=0, data=[57, 66]),
   midi.NoteOnEvent(tick=3, channel=0, data=[52, 0]),
   midi.NoteOnEvent(tick=10, channel=0, data=[69, 0]),
   midi.NoteOnEvent(tick=9, channel=0, data=[60, 59]),
   midi.NoteOnEvent(tick=13, channel=0, data=[81, 0]),
   midi.NoteOnEvent(tick=2, channel=0, data=[57, 0]),
   midi.NoteOnEvent(tick=8, channel=0, data=[64, 57]),
   midi.NoteOnEvent(tick=10, channel=0, data=[60, 0]),
   midi.NoteOnEvent(tick=7, channel=0, data=[64, 0]),
   midi.NoteOnEvent(tick=13, channel=0, data=[52, 77]),
   midi.NoteOnEvent(tick=24, channel=0, data=[52, 0]),
   midi.NoteOnEvent(tick=0, channel=0, data=[57, 73]),
   midi.NoteOnEvent(tick=23, channel=0, data=[60, 59]),
   midi.NoteOnEvent(tick=5, channel=0, data=[88, 102]),
   midi.NoteOnEvent(tick=0, channel=0, data=[76, 102]),
   midi.NoteOnEvent(tick=7, channel=0, data=[57, 0]),
   midi.NoteOnEvent(tick=6, channel=0, data=[76, 0]),
   midi.NoteOnEvent(tick=1, channel=0, data=[88, 0]),
   midi.NoteOnEvent(tick=1, channel=0, data=[64, 54]),
   midi.NoteOnEvent(tick=12, channel=0, data=[64, 0]),
   midi.NoteOnEvent(tick=1, channel=0, data=[60, 0]),
   midi.NoteOnEvent(tick=22, channel=0, data=[74, 102]),
   midi.NoteOnEvent(tick=0, channel=0, data=[52, 77]),
   midi.NoteOnEvent(tick=0, channel=0, data=[86, 91]),
   midi.NoteOnEvent(tick=13, channel=0, data=[74, 0]),
   midi.NoteOnEvent(tick=1, channel=0, data=[86, 0]),
   midi.NoteOnEvent(tick=8, channel=0, data=[52, 0]),
   midi.NoteOnEvent(tick=2, channel=0, data=[57, 69]),
   midi.NoteOnEvent(tick=24, channel=0, data=[72, 91]),
   midi.NoteOnEvent(tick=1, channel=0, data=[84, 86]),
   midi.NoteOnEvent(tick=0, channel=0, data=[60, 66]),
   midi.NoteOnEvent(tick=10, channel=0, data=[57, 0]),
   midi.NoteOnEvent(tick=3, channel=0, data=[72, 0]),
   midi.NoteOnEvent(tick=0, channel=0, data=[84, 0]),
   midi.NoteOnEvent(tick=5, channel=0, data=[64, 66]),
   midi.NoteOnEvent(tick=11, channel=0, data=[60, 0]),
   midi.NoteOnEvent(tick=2, channel=0, data=[64, 0]),
   midi.ControlChangeEvent(tick=15, channel=0, data=[64, 0]),
   midi.NoteOnEvent(tick=3, channel=0, data=[52, 81]),
   midi.NoteOnEvent(tick=2, channel=0, data=[71, 91]),
   midi.NoteOnEvent(tick=0, channel=0, data=[83, 102]),
   midi.NoteOnEvent(tick=18, channel=0, data=[83, 0]),
   midi.NoteOnEvent(tick=1, channel=0, data=[71, 0]),
   midi.NoteOnEvent(tick=5, channel=0, data=[52, 0]),
   midi.NoteOnEvent(tick=0, channel=0, data=[57, 73]),
   midi.ControlChangeEvent(tick=2, channel=0, data=[64, 127]),
   midi.NoteOnEvent(tick=20, channel=0, data=[60, 66]),
   midi.NoteOnEvent(tick=8, channel=0, data=[69, 91]),
   midi.NoteOnEvent(tick=0, channel=0, data=[81, 91]),
   midi.NoteOnEvent(tick=4, channel=0, data=[57, 0]),
   midi.NoteOnEvent(tick=10, channel=0, data=[69, 0]),
   midi.NoteOnEvent(tick=0, channel=0, data=[64, 66]),
   midi.NoteOnEvent(tick=4, channel=0, data=[81, 0]),
   midi.NoteOnEvent(tick=3, channel=0, data=[60, 0]),
   midi.NoteOnEvent(tick=4, channel=0, data=[64, 0]),
   midi.NoteOnEvent(tick=18, channel=0, data=[52, 81]),
   midi.NoteOnEvent(tick=5, channel=0, data=[80, 81]),
   midi.NoteOnEvent(tick=1, channel=0, data=[68, 86]),
   midi.NoteOnEvent(tick=11, channel=0, data=[68, 0]),
   midi.NoteOnEvent(tick=6, channel=0, data=[52, 0]),
   midi.NoteOnEvent(tick=1, channel=0, data=[57, 73]),
   midi.NoteOnEvent(tick=2, channel=0, data=[80, 0]),
   midi.NoteOnEvent(tick=24, channel=0, data=[60, 69]),
   midi.NoteOnEvent(tick=6, channel=0, data=[69, 86]),
   midi.NoteOnEvent(tick=3, channel=0, data=[81, 81]),
   midi.NoteOnEvent(tick=1, channel=0, data=[57, 0]),
   midi.NoteOnEvent(tick=1, channel=0, data=[71, 69]),
   midi.NoteOnEvent(tick=8, channel=0, data=[69, 0]),
   midi.NoteOnEvent(tick=1, channel=0, data=[71, 0]),
   midi.NoteOnEvent(tick=3, channel=0, data=[64, 69]),
   midi.NoteOnEvent(tick=2, channel=0, data=[81, 0]),
   midi.NoteOnEvent(tick=6, channel=0, data=[60, 0]),
   midi.NoteOnEvent(tick=2, channel=0, data=[64, 0]),
   midi.NoteOnEvent(tick=20, channel=0, data=[52, 77]),
   midi.NoteOnEvent(tick=6, channel=0, data=[80, 86]),
   midi.NoteOnEvent(tick=0, channel=0, data=[68, 91]),
   midi.NoteOnEvent(tick=10, channel=0, data=[68, 0]),
   midi.NoteOnEvent(tick=5, channel=0, data=[80, 0]),
   midi.NoteOnEvent(tick=4, channel=0, data=[52, 0]),
   midi.NoteOnEvent(tick=0, channel=0, data=[57, 73]),
   midi.NoteOnEvent(tick=21, channel=0, data=[60, 66]),
   midi.NoteOnEvent(tick=10, channel=0, data=[69, 86]),
   midi.NoteOnEvent(tick=0, channel=0, data=[81, 81]),
   midi.NoteOnEvent(tick=1, channel=0, data=[57, 0]),
   midi.NoteOnEvent(tick=12, channel=0, data=[69, 0]),
   midi.NoteOnEvent(tick=2, channel=0, data=[81, 0]),
   midi.NoteOnEvent(tick=3, channel=0, data=[64, 59]),
   midi.NoteOnEvent(tick=7, channel=0, data=[60, 0]),
   midi.NoteOnEvent(tick=2, channel=0, data=[64, 0]),
   midi.NoteOnEvent(tick=16, channel=0, data=[52, 73]),
   midi.NoteOnEvent(tick=7, channel=0, data=[71, 86]),
   midi.NoteOnEvent(tick=1, channel=0, data=[83, 91]),
   midi.NoteOnEvent(tick=10, channel=0, data=[71, 0]),
   midi.NoteOnEvent(tick=1, channel=0, data=[83, 0]),
   midi.NoteOnEvent(tick=7, channel=0, data=[57, 73]),
   midi.NoteOnEvent(tick=2, channel=0, data=[52, 0]),
   midi.NoteOnEvent(tick=19, channel=0, data=[60, 59]),
   midi.NoteOnEvent(tick=9, channel=0, data=[69, 86]),
   midi.NoteOnEvent(tick=2, channel=0, data=[57, 0]),
   midi.NoteOnEvent(tick=0, channel=0, data=[81, 81]),
   midi.NoteOnEvent(tick=13, channel=0, data=[64, 69]),
   midi.NoteOnEvent(tick=2, channel=0, data=[69, 0]),
   midi.NoteOnEvent(tick=2, channel=0, data=[81, 0]),
   midi.NoteOnEvent(tick=8, channel=0, data=[60, 0]),
   midi.NoteOnEvent(tick=9, channel=0, data=[64, 0]),
   midi.NoteOnEvent(tick=9, channel=0, data=[53, 66]),
   midi.ControlChangeEvent(tick=2, channel=0, data=[64, 0]),
   midi.NoteOnEvent(tick=4, channel=0, data=[69, 77]),
   midi.NoteOnEvent(tick=1, channel=0, data=[81, 77]),
   midi.NoteOnEvent(tick=22, channel=0, data=[57, 57]),
   midi.NoteOnEvent(tick=7, channel=0, data=[53, 0]),
   midi.ControlChangeEvent(tick=1, channel=0, data=[64, 127]),
   midi.NoteOnEvent(tick=12, channel=0, data=[60, 54]),
   midi.NoteOnEvent(tick=5, channel=0, data=[57, 0]),
   midi.NoteOnEvent(tick=24, channel=0, data=[62, 54]),
   midi.NoteOnEvent(tick=1, channel=0, data=[60, 0]),
   midi.NoteOnEvent(tick=24, channel=0, data=[62, 0]),
   midi.NoteOnEvent(tick=3, channel=0, data=[53, 54]),
   midi.NoteOnEvent(tick=26, channel=0, data=[53, 0]),
   midi.NoteOnEvent(tick=1, channel=0, data=[57, 41]),
   midi.NoteOnEvent(tick=11, channel=0, data=[57, 0]),
   midi.NoteOnEvent(tick=3, channel=0, data=[60, 52]),
   midi.NoteOnEvent(tick=29, channel=0, data=[60, 0]),
   midi.NoteOnEvent(tick=6, channel=0, data=[62, 40]),
   midi.NoteOnEvent(tick=24, channel=0, data=[69, 0]),
   midi.NoteOnEvent(tick=1, channel=0, data=[53, 50]),
   midi.NoteOnEvent(tick=1, channel=0, data=[62, 0]),
   midi.NoteOnEvent(tick=21, channel=0, data=[57, 57]),
   midi.NoteOnEvent(tick=5, channel=0, data=[53, 0]),
   midi.NoteOnEvent(tick=16, channel=0, data=[60, 57]),
   midi.NoteOnEvent(tick=3, channel=0, data=[57, 0]),
   midi.NoteOnEvent(tick=15, channel=0, data=[81, 0]),
   midi.NoteOnEvent(tick=9, channel=0, data=[62, 50]),
   midi.NoteOnEvent(tick=1, channel=0, data=[60, 0]),
   midi.NoteOnEvent(tick=15, channel=0, data=[62, 0]),
   midi.NoteOnEvent(tick=16, channel=0, data=[53, 66]),
   midi.NoteOnEvent(tick=4, channel=0, data=[68, 77]),
   midi.NoteOnEvent(tick=0, channel=0, data=[80, 77]),
   midi.NoteOnEvent(tick=12, channel=0, data=[68, 0]),
   midi.NoteOnEvent(tick=10, channel=0, data=[80, 0]),
   midi.NoteOnEvent(tick=3, channel=0, data=[57, 59]),
   midi.NoteOnEvent(tick=2, channel=0, data=[53, 0]),
   midi.NoteOnEvent(tick=17, channel=0, data=[60, 69]),
   midi.NoteOnEvent(tick=3, channel=0, data=[57, 0]),
   midi.NoteOnEvent(tick=5, channel=0, data=[69, 86]),
   midi.NoteOnEvent(tick=2, channel=0, data=[81, 81]),
   midi.NoteOnEvent(tick=12, channel=0, data=[69, 0]),
   midi.NoteOnEvent(tick=6, channel=0, data=[81, 0]),
   midi.NoteOnEvent(tick=4, channel=0, data=[60, 0]),
   midi.ControlChangeEvent(tick=15, channel=0, data=[64, 0]),
   midi.NoteOnEvent(tick=7, channel=0, data=[54, 73]),
   midi.NoteOnEvent(tick=2, channel=0, data=[80, 81]),
   midi.NoteOnEvent(tick=3, channel=0, data=[68, 73]),
   midi.NoteOnEvent(tick=14, channel=0, data=[68, 0]),
   midi.ControlChangeEvent(tick=4, channel=0, data=[64, 127]),
   midi.NoteOnEvent(tick=7, channel=0, data=[57, 73]),
   midi.NoteOnEvent(tick=1, channel=0, data=[80, 0]),
   midi.NoteOnEvent(tick=5, channel=0, data=[54, 0]),
   midi.NoteOnEvent(tick=16, channel=0, data=[60, 57]),
   midi.NoteOnEvent(tick=6, channel=0, data=[69, 91]),
   midi.NoteOnEvent(tick=1, channel=0, data=[81, 81]),
   midi.NoteOnEvent(tick=1, channel=0, data=[57, 0]),
   midi.NoteOnEvent(tick=10, channel=0, data=[69, 0]),
   midi.NoteOnEvent(tick=1, channel=0, data=[81, 0]),
   midi.NoteOnEvent(tick=12, channel=0, data=[62, 47]),
   midi.NoteOnEvent(tick=3, channel=0, data=[60, 0]),
   midi.NoteOnEvent(tick=19, channel=0, data=[54, 66]),
   midi.NoteOnEvent(tick=1, channel=0, data=[71, 81]),
   midi.NoteOnEvent(tick=0, channel=0, data=[83, 86]),
   midi.NoteOnEvent(tick=3, channel=0, data=[62, 0]),
   midi.NoteOnEvent(tick=7, channel=0, data=[71, 0]),
   midi.NoteOnEvent(tick=5, channel=0, data=[83, 0]),
   midi.NoteOnEvent(tick=16, channel=0, data=[57, 69]),
   midi.NoteOnEvent(tick=1, channel=0, data=[54, 0]),
   midi.NoteOnEvent(tick=18, channel=0, data=[69, 86]),
   midi.NoteOnEvent(tick=3, channel=0, data=[81, 77]),
   midi.NoteOnEvent(tick=7, channel=0, data=[60, 66]),
   midi.NoteOnEvent(tick=3, channel=0, data=[69, 0]),
   midi.NoteOnEvent(tick=1, channel=0, data=[57, 0]),
   midi.NoteOnEvent(tick=5, channel=0, data=[81, 0]),
   midi.NoteOnEvent(tick=22, channel=0, data=[60, 0]),
   midi.ControlChangeEvent(tick=2, channel=0, data=[64, 0]),
   midi.NoteOnEvent(tick=2, channel=0, data=[62, 47]),
   midi.NoteOnEvent(tick=5, channel=0, data=[80, 81]),
   midi.NoteOnEvent(tick=0, channel=0, data=[68, 86]),
   midi.NoteOnEvent(tick=3, channel=0, data=[54, 73]),
   midi.NoteOnEvent(tick=4, channel=0, data=[62, 0]),
   midi.NoteOnEvent(tick=6, channel=0, data=[68, 0]),
   midi.ControlChangeEvent(tick=1, channel=0, data=[64, 127]),
   midi.NoteOnEvent(tick=7, channel=0, data=[80, 0]),
   midi.NoteOnEvent(tick=9, channel=0, data=[57, 73]),
   midi.NoteOnEvent(tick=8, channel=0, data=[54, 0]),
   midi.NoteOnEvent(tick=13, channel=0, data=[60, 66]),
   midi.NoteOnEvent(tick=0, channel=0, data=[69, 91]),
   midi.NoteOnEvent(tick=2, channel=0, data=[81, 86]),
   midi.NoteOnEvent(tick=6, channel=0, data=[57, 0]),
   midi.NoteOnEvent(tick=6, channel=0, data=[69, 0]),
   midi.NoteOnEvent(tick=2, channel=0, data=[81, 0]),
   midi.NoteOnEvent(tick=21, channel=0, data=[62, 47]),
   midi.NoteOnEvent(tick=10, channel=0, data=[60, 0]),
   midi.NoteOnEvent(tick=2, channel=0, data=[54, 73]),
   midi.NoteOnEvent(tick=6, channel=0, data=[62, 0]),
   midi.NoteOnEvent(tick=0, channel=0, data=[71, 91]),
   midi.NoteOnEvent(tick=0, channel=0, data=[83, 86]),
   midi.NoteOnEvent(tick=13, channel=0, data=[71, 0]),
   midi.NoteOnEvent(tick=2, channel=0, data=[83, 0]),
   midi.NoteOnEvent(tick=7, channel=0, data=[57, 69]),
   midi.NoteOnEvent(tick=8, channel=0, data=[54, 0]),
   midi.NoteOnEvent(tick=12, channel=0, data=[60, 69]),
   midi.NoteOnEvent(tick=7, channel=0, data=[57, 0]),
   midi.NoteOnEvent(tick=4, channel=0, data=[72, 91]),
   midi.NoteOnEvent(tick=0, channel=0, data=[84, 86]),
   midi.NoteOnEvent(tick=14, channel=0, data=[84, 0]),
   midi.NoteOnEvent(tick=1, channel=0, data=[60, 0]),
   midi.NoteOnEvent(tick=1, channel=0, data=[72, 0]),
   midi.NoteOnEvent(tick=0, channel=0, data=[62, 66]),
   midi.NoteOnEvent(tick=22, channel=0, data=[62, 0]),
   midi.NoteOnEvent(tick=3, channel=0, data=[55, 81]),
   midi.ControlChangeEvent(tick=12, channel=0, data=[64, 0]),
   midi.NoteOnEvent(tick=3, channel=0, data=[72, 91]),
   midi.NoteOnEvent(tick=0, channel=0, data=[84, 86]),
   midi.NoteOnEvent(tick=5, channel=0, data=[60, 66]),
   midi.NoteOnEvent(tick=11, channel=0, data=[55, 0]),
   midi.ControlChangeEvent(tick=11, channel=0, data=[64, 127]),
   midi.NoteOnEvent(tick=13, channel=0, data=[64, 66]),
   midi.NoteOnEvent(tick=12, channel=0, data=[60, 0]),
   midi.NoteOnEvent(tick=2, channel=0, data=[67, 57]),
   midi.NoteOnEvent(tick=14, channel=0, data=[64, 0]),
   midi.NoteOnEvent(tick=8, channel=0, data=[67, 0]),
   midi.NoteOnEvent(tick=15, channel=0, data=[55, 73]),
   midi.NoteOnEvent(tick=19, channel=0, data=[60, 77]),
   midi.NoteOnEvent(tick=6, channel=0, data=[55, 0]),
   midi.NoteOnEvent(tick=23, channel=0, data=[64, 69]),
   midi.NoteOnEvent(tick=3, channel=0, data=[72, 0]),
   midi.NoteOnEvent(tick=12, channel=0, data=[67, 57]),
   midi.NoteOnEvent(tick=2, channel=0, data=[60, 0]),
   midi.NoteOnEvent(tick=9, channel=0, data=[84, 0]),
   midi.NoteOnEvent(tick=5, channel=0, data=[64, 0]),
   midi.NoteOnEvent(tick=2, channel=0, data=[67, 0]),
   midi.NoteOnEvent(tick=18, channel=0, data=[55, 73]),
   midi.NoteOnEvent(tick=21, channel=0, data=[60, 73]),
   midi.NoteOnEvent(tick=6, channel=0, data=[55, 0]),
   midi.NoteOnEvent(tick=20, channel=0, data=[64, 69]),
   midi.NoteOnEvent(tick=21, channel=0, data=[67, 54]),
   midi.NoteOnEvent(tick=2, channel=0, data=[60, 0]),
   midi.NoteOnEvent(tick=9, channel=0, data=[67, 0]),
   midi.NoteOnEvent(tick=3, channel=0, data=[64, 0]),
   midi.NoteOnEvent(tick=20, channel=0, data=[55, 77]),
   midi.NoteOnEvent(tick=9, channel=0, data=[74, 86]),
   midi.NoteOnEvent(tick=0, channel=0, data=[86, 91]),
   midi.NoteOnEvent(tick=15, channel=0, data=[74, 0]),
   midi.NoteOnEvent(tick=5, channel=0, data=[86, 0]),
   midi.NoteOnEvent(tick=5, channel=0, data=[55, 0]),
   midi.NoteOnEvent(tick=2, channel=0, data=[60, 69]),
   midi.NoteOnEvent(tick=25, channel=0, data=[76, 102]),
   midi.NoteOnEvent(tick=0, channel=0, data=[88, 102]),
   midi.NoteOnEvent(tick=5, channel=0, data=[64, 77]),
   midi.NoteOnEvent(tick=7, channel=0, data=[67, 66]),
   midi.NoteOnEvent(tick=3, channel=0, data=[88, 0]),
   midi.NoteOnEvent(tick=0, channel=0, data=[76, 0]),
   midi.NoteOnEvent(tick=1, channel=0, data=[60, 0]),
   midi.NoteOnEvent(tick=6, channel=0, data=[67, 0]),
   midi.NoteOnEvent(tick=3, channel=0, data=[64, 0]),
   midi.ControlChangeEvent(tick=26, channel=0, data=[64, 0]),
   midi.NoteOnEvent(tick=1, channel=0, data=[88, 91]),
   midi.NoteOnEvent(tick=0, channel=0, data=[76, 102]),
   midi.NoteOnEvent(tick=12, channel=0, data=[43, 27]),
   midi.NoteOnEvent(tick=7, channel=0, data=[76, 0]),
   midi.ControlChangeEvent(tick=8, channel=0, data=[64, 127]),
   midi.NoteOnEvent(tick=8, channel=0, data=[50, 77]),
   midi.NoteOnEvent(tick=2, channel=0, data=[43, 0]),
   midi.NoteOnEvent(tick=26, channel=0, data=[53, 59]),
   midi.NoteOnEvent(tick=2, channel=0, data=[88, 0]),
   midi.NoteOnEvent(tick=7, channel=0, data=[55, 66]),
   midi.NoteOnEvent(tick=1, channel=0, data=[50, 0]),
   midi.NoteOnEvent(tick=8, channel=0, data=[53, 0]),
   midi.NoteOnEvent(tick=1, channel=0, data=[55, 0]),
   midi.NoteOnEvent(tick=21, channel=0, data=[43, 66]),
   midi.NoteOnEvent(tick=2, channel=0, data=[77, 77]),
   midi.NoteOnEvent(tick=1, channel=0, data=[89, 86]),
   midi.NoteOnEvent(tick=24, channel=0, data=[50, 73]),
   midi.NoteOnEvent(tick=1, channel=0, data=[43, 0]),
   midi.NoteOnEvent(tick=20, channel=0, data=[53, 77]),
   midi.NoteOnEvent(tick=7, channel=0, data=[50, 0]),
   midi.NoteOnEvent(tick=17, channel=0, data=[55, 59]),
   midi.NoteOnEvent(tick=4, channel=0, data=[53, 0]),
   midi.NoteOnEvent(tick=8, channel=0, data=[55, 0]),
   midi.NoteOnEvent(tick=13, channel=0, data=[43, 69]),
   midi.NoteOnEvent(tick=4, channel=0, data=[89, 0]),
   midi.NoteOnEvent(tick=8, channel=0, data=[77, 0]),
   midi.NoteOnEvent(tick=15, channel=0, data=[50, 77]),
   midi.NoteOnEvent(tick=4, channel=0, data=[43, 0]),
   midi.NoteOnEvent(tick=22, channel=0, data=[53, 73]),
   midi.NoteOnEvent(tick=18, channel=0, data=[50, 0]),
   midi.NoteOnEvent(tick=4, channel=0, data=[55, 54]),
   midi.NoteOnEvent(tick=4, channel=0, data=[53, 0]),
   midi.NoteOnEvent(tick=6, channel=0, data=[55, 0]),
   midi.NoteOnEvent(tick=13, channel=0, data=[43, 69]),
   midi.NoteOnEvent(tick=15, channel=0, data=[71, 81]),
   midi.NoteOnEvent(tick=1, channel=0, data=[83, 77]),
   midi.NoteOnEvent(tick=10, channel=0, data=[50, 77]),
   midi.NoteOnEvent(tick=6, channel=0, data=[43, 0]),
   midi.NoteOnEvent(tick=7, channel=0, data=[71, 0]),
   midi.NoteOnEvent(tick=14, channel=0, data=[53, 69]),
   midi.NoteOnEvent(tick=2, channel=0, data=[50, 0]),
   midi.NoteOnEvent(tick=22, channel=0, data=[55, 59]),
   midi.NoteOnEvent(tick=2, channel=0, data=[53, 0]),
   midi.NoteOnEvent(tick=26, channel=0, data=[55, 0]),
   midi.NoteOnEvent(tick=2, channel=0, data=[83, 0]),
   midi.NoteOnEvent(tick=0, channel=0, data=[48, 73]),
   midi.ControlChangeEvent(tick=19, channel=0, data=[64, 0]),
   midi.NoteOnEvent(tick=0, channel=0, data=[84, 73]),
   midi.NoteOnEvent(tick=1, channel=0, data=[72, 69]),
   midi.NoteOnEvent(tick=6, channel=0, data=[52, 66]),
   midi.NoteOnEvent(tick=7, channel=0, data=[48, 0]),
   midi.NoteOnEvent(tick=19, channel=0, data=[55, 59]),
   midi.ControlChangeEvent(tick=2, channel=0, data=[64, 127]),
   midi.NoteOnEvent(tick=10, channel=0, data=[52, 0]),
   midi.NoteOnEvent(tick=14, channel=0, data=[60, 50]),
   midi.NoteOnEvent(tick=2, channel=0, data=[55, 0]),
   midi.NoteOnEvent(tick=31, channel=0, data=[60, 0]),
   midi.NoteOnEvent(tick=0, channel=0, data=[48, 59]),
   midi.NoteOnEvent(tick=20, channel=0, data=[52, 54]),
   midi.NoteOnEvent(tick=1, channel=0, data=[48, 0]),
   midi.NoteOnEvent(tick=22, channel=0, data=[55, 57]),
   midi.NoteOnEvent(tick=5, channel=0, data=[52, 0]),
   midi.NoteOnEvent(tick=23, channel=0, data=[60, 50]),
   midi.NoteOnEvent(tick=8, channel=0, data=[55, 0]),
   midi.NoteOnEvent(tick=12, channel=0, data=[72, 0]),
   midi.NoteOnEvent(tick=4, channel=0, data=[84, 0]),
   midi.NoteOnEvent(tick=4, channel=0, data=[60, 0]),
   midi.NoteOnEvent(tick=9, channel=0, data=[48, 52]),
   midi.NoteOnEvent(tick=19, channel=0, data=[52, 52]),
   midi.NoteOnEvent(tick=2, channel=0, data=[48, 0]),
   midi.NoteOnEvent(tick=21, channel=0, data=[55, 52]),
   midi.NoteOnEvent(tick=11, channel=0, data=[52, 0]),
   midi.NoteOnEvent(tick=12, channel=0, data=[60, 41]),
   midi.NoteOnEvent(tick=6, channel=0, data=[55, 0]),
   midi.NoteOnEvent(tick=20, channel=0, data=[60, 0]),
   midi.NoteOnEvent(tick=11, channel=0, data=[67, 73]),
   midi.NoteOnEvent(tick=0, channel=0, data=[79, 73]),
   midi.NoteOnEvent(tick=0, channel=0, data=[48, 69]),
   midi.NoteOnEvent(tick=15, channel=0, data=[67, 0]),
   midi.NoteOnEvent(tick=2, channel=0, data=[79, 0]),
   midi.NoteOnEvent(tick=1, channel=0, data=[52, 59]),
   midi.NoteOnEvent(tick=5, channel=0, data=[48, 0]),
   midi.NoteOnEvent(tick=24, channel=0, data=[55, 66]),
   midi.NoteOnEvent(tick=9, channel=0, data=[77, 73]),
   midi.NoteOnEvent(tick=1, channel=0, data=[65, 52]),
   midi.NoteOnEvent(tick=1, channel=0, data=[52, 0]),
   midi.NoteOnEvent(tick=8, channel=0, data=[77, 0]),
   midi.NoteOnEvent(tick=1, channel=0, data=[60, 52]),
   midi.NoteOnEvent(tick=3, channel=0, data=[65, 0]),
   midi.NoteOnEvent(tick=6, channel=0, data=[55, 0]),
   midi.NoteOnEvent(tick=13, channel=0, data=[60, 0]),
   midi.ControlChangeEvent(tick=6, channel=0, data=[64, 0]),
   midi.NoteOnEvent(tick=7, channel=0, data=[48, 69]),
   midi.NoteOnEvent(tick=5, channel=0, data=[65, 77]),
   midi.NoteOnEvent(tick=1, channel=0, data=[77, 73]),
   midi.ControlChangeEvent(tick=17, channel=0, data=[64, 127]),
   midi.NoteOnEvent(tick=2, channel=0, data=[77, 0]),
   midi.NoteOnEvent(tick=0, channel=0, data=[65, 0]),
   midi.NoteOnEvent(tick=0, channel=0, data=[52, 66]),
   midi.NoteOnEvent(tick=5, channel=0, data=[48, 0]),
   midi.NoteOnEvent(tick=21, channel=0, data=[55, 66]),
   midi.NoteOnEvent(tick=6, channel=0, data=[64, 77]),
   midi.NoteOnEvent(tick=0, channel=0, data=[76, 77]),
   midi.NoteOnEvent(tick=4, channel=0, data=[52, 0]),
   midi.NoteOnEvent(tick=4, channel=0, data=[64, 0]),
   midi.NoteOnEvent(tick=5, channel=0, data=[60, 54]),
   midi.NoteOnEvent(tick=5, channel=0, data=[55, 0]),
   midi.NoteOnEvent(tick=9, channel=0, data=[76, 0]),
   midi.NoteOnEvent(tick=5, channel=0, data=[60, 0]),
   midi.NoteOnEvent(tick=14, channel=0, data=[48, 73]),
   midi.NoteOnEvent(tick=3, channel=0, data=[75, 81]),
   midi.NoteOnEvent(tick=3, channel=0, data=[63, 52]),
   midi.NoteOnEvent(tick=10, channel=0, data=[63, 0]),
   midi.NoteOnEvent(tick=6, channel=0, data=[52, 69]),
   midi.NoteOnEvent(tick=1, channel=0, data=[48, 0]),
   midi.NoteOnEvent(tick=2, channel=0, data=[75, 0]),
   midi.NoteOnEvent(tick=24, channel=0, data=[55, 69]),
   midi.NoteOnEvent(tick=6, channel=0, data=[64, 77]),
   midi.NoteOnEvent(tick=5, channel=0, data=[52, 0]),
   midi.NoteOnEvent(tick=0, channel=0, data=[76, 66]),
   midi.NoteOnEvent(tick=5, channel=0, data=[64, 0]),
   midi.NoteOnEvent(tick=6, channel=0, data=[60, 57]),
   midi.NoteOnEvent(tick=6, channel=0, data=[55, 0]),
   midi.NoteOnEvent(tick=1, channel=0, data=[76, 0]),
   midi.NoteOnEvent(tick=3, channel=0, data=[60, 0]),
   midi.NoteOnEvent(tick=21, channel=0, data=[48, 77]),
   midi.NoteOnEvent(tick=4, channel=0, data=[75, 69]),
   midi.NoteOnEvent(tick=2, channel=0, data=[63, 50]),
   midi.NoteOnEvent(tick=10, channel=0, data=[63, 0]),
   midi.NoteOnEvent(tick=7, channel=0, data=[52, 73]),
   midi.NoteOnEvent(tick=4, channel=0, data=[48, 0]),
   midi.NoteOnEvent(tick=1, channel=0, data=[75, 0]),
   midi.NoteOnEvent(tick=25, channel=0, data=[55, 69]),
   midi.NoteOnEvent(tick=5, channel=0, data=[64, 81]),
   midi.NoteOnEvent(tick=1, channel=0, data=[76, 77]),
   midi.NoteOnEvent(tick=7, channel=0, data=[52, 0]),
   midi.NoteOnEvent(tick=5, channel=0, data=[60, 59]),
   midi.NoteOnEvent(tick=1, channel=0, data=[64, 0]),
   midi.NoteOnEvent(tick=2, channel=0, data=[76, 0]),
   midi.NoteOnEvent(tick=7, channel=0, data=[55, 0]),
   midi.NoteOnEvent(tick=12, channel=0, data=[60, 0]),
   midi.NoteOnEvent(tick=14, channel=0, data=[48, 66]),
   midi.NoteOnEvent(tick=2, channel=0, data=[65, 77]),
   midi.NoteOnEvent(tick=0, channel=0, data=[77, 81]),
   midi.NoteOnEvent(tick=12, channel=0, data=[65, 0]),
   midi.NoteOnEvent(tick=3, channel=0, data=[77, 0]),
   midi.NoteOnEvent(tick=3, channel=0, data=[52, 66]),
   midi.NoteOnEvent(tick=8, channel=0, data=[48, 0]),
   midi.NoteOnEvent(tick=18, channel=0, data=[55, 66]),
   midi.NoteOnEvent(tick=8, channel=0, data=[64, 86]),
   midi.NoteOnEvent(tick=2, channel=0, data=[76, 81]),
   midi.NoteOnEvent(tick=4, channel=0, data=[52, 0]),
   midi.NoteOnEvent(tick=1, channel=0, data=[60, 69]),
   midi.NoteOnEvent(tick=8, channel=0, data=[64, 0]),
   midi.NoteOnEvent(tick=2, channel=0, data=[76, 0]),
   midi.NoteOnEvent(tick=1, channel=0, data=[55, 0]),
   midi.NoteOnEvent(tick=8, channel=0, data=[60, 0]),
   midi.NoteOnEvent(tick=18, channel=0, data=[47, 66]),
   midi.ControlChangeEvent(tick=7, channel=0, data=[64, 0]),
   midi.NoteOnEvent(tick=2, channel=0, data=[64, 77]),
   midi.NoteOnEvent(tick=0, channel=0, data=[76, 81]),
   midi.NoteOnEvent(tick=14, channel=0, data=[52, 69]),
   midi.NoteOnEvent(tick=8, channel=0, data=[47, 0]),
   midi.ControlChangeEvent(tick=10, channel=0, data=[64, 127]),
   midi.NoteOnEvent(tick=12, channel=0, data=[55, 66]),
   midi.NoteOnEvent(tick=12, channel=0, data=[52, 0]),
   midi.NoteOnEvent(tick=8, channel=0, data=[59, 47]),
   midi.NoteOnEvent(tick=10, channel=0, data=[55, 0]),
   midi.NoteOnEvent(tick=13, channel=0, data=[59, 0]),
   midi.NoteOnEvent(tick=13, channel=0, data=[47, 59]),
   midi.ControlChangeEvent(tick=3, channel=0, data=[64, 0]),
   midi.NoteOnEvent(tick=21, channel=0, data=[52, 66]),
   midi.ControlChangeEvent(tick=4, channel=0, data=[64, 127]),
   midi.NoteOnEvent(tick=6, channel=0, data=[47, 0]),
   midi.NoteOnEvent(tick=17, channel=0, data=[55, 59]),
   midi.NoteOnEvent(tick=13, channel=0, data=[52, 0]),
   midi.NoteOnEvent(tick=15, channel=0, data=[59, 35]),
   midi.NoteOnEvent(tick=4, channel=0, data=[64, 0]),
   midi.NoteOnEvent(tick=5, channel=0, data=[55, 0]),
   midi.NoteOnEvent(tick=3, channel=0, data=[59, 0]),
   midi.NoteOnEvent(tick=15, channel=0, data=[47, 59]),
   midi.NoteOnEvent(tick=1, channel=0, data=[76, 0]),
   midi.NoteOnEvent(tick=23, channel=0, data=[52, 69]),
   midi.NoteOnEvent(tick=7, channel=0, data=[47, 0]),
   midi.NoteOnEvent(tick=25, channel=0, data=[55, 57]),
   midi.NoteOnEvent(tick=11, channel=0, data=[52, 0]),
   midi.NoteOnEvent(tick=3, channel=0, data=[59, 54]),
   midi.NoteOnEvent(tick=11, channel=0, data=[55, 0]),
   midi.NoteOnEvent(tick=11, channel=0, data=[59, 0]),
   midi.NoteOnEvent(tick=15, channel=0, data=[47, 66]),
   midi.NoteOnEvent(tick=1, channel=0, data=[79, 81]),
   midi.NoteOnEvent(tick=0, channel=0, data=[67, 77]),
   midi.NoteOnEvent(tick=9, channel=0, data=[67, 0]),
   midi.NoteOnEvent(tick=11, channel=0, data=[79, 0]),
   midi.NoteOnEvent(tick=4, channel=0, data=[52, 73]),
   midi.NoteOnEvent(tick=1, channel=0, data=[47, 0]),
   midi.NoteOnEvent(tick=26, channel=0, data=[78, 77]),
   midi.NoteOnEvent(tick=1, channel=0, data=[66, 73]),
   midi.NoteOnEvent(tick=0, channel=0, data=[55, 73]),
   midi.NoteOnEvent(tick=9, channel=0, data=[52, 0]),
   midi.NoteOnEvent(tick=6, channel=0, data=[66, 0]),
   midi.NoteOnEvent(tick=3, channel=0, data=[78, 0]),
   midi.NoteOnEvent(tick=3, channel=0, data=[59, 50]),
   midi.NoteOnEvent(tick=9, channel=0, data=[55, 0]),
   midi.ControlChangeEvent(tick=10, channel=0, data=[64, 0]),
   midi.NoteOnEvent(tick=3, channel=0, data=[59, 0]),
   midi.NoteOnEvent(tick=6, channel=0, data=[66, 77]),
   midi.NoteOnEvent(tick=2, channel=0, data=[78, 81]),
   midi.NoteOnEvent(tick=1, channel=0, data=[47, 81]),
   midi.NoteOnEvent(tick=15, channel=0, data=[66, 0]),
   midi.ControlChangeEvent(tick=5, channel=0, data=[64, 127]),
   midi.NoteOnEvent(tick=2, channel=0, data=[78, 0]),
   midi.NoteOnEvent(tick=4, channel=0, data=[52, 69]),
   midi.NoteOnEvent(tick=2, channel=0, data=[47, 0]),
   midi.NoteOnEvent(tick=23, channel=0, data=[64, 81]),
   midi.NoteOnEvent(tick=1, channel=0, data=[76, 81]),
   midi.NoteOnEvent(tick=1, channel=0, data=[55, 59]),
   midi.NoteOnEvent(tick=11, channel=0, data=[52, 0]),
   midi.NoteOnEvent(tick=2, channel=0, data=[64, 0]),
   midi.NoteOnEvent(tick=4, channel=0, data=[59, 54]),
   midi.NoteOnEvent(tick=6, channel=0, data=[76, 0]),
   midi.NoteOnEvent(tick=4, channel=0, data=[55, 0]),
   midi.NoteOnEvent(tick=12, channel=0, data=[59, 0]),
   midi.NoteOnEvent(tick=10, channel=0, data=[75, 81]),
   midi.NoteOnEvent(tick=2, channel=0, data=[47, 77]),
   midi.NoteOnEvent(tick=0, channel=0, data=[63, 73]),
   midi.NoteOnEvent(tick=9, channel=0, data=[63, 0]),
   midi.NoteOnEvent(tick=12, channel=0, data=[75, 0]),
   midi.NoteOnEvent(tick=3, channel=0, data=[52, 69]),
   midi.NoteOnEvent(tick=2, channel=0, data=[47, 0]),
   midi.NoteOnEvent(tick=24, channel=0, data=[64, 91]),
   midi.NoteOnEvent(tick=2, channel=0, data=[55, 66]),
   midi.NoteOnEvent(tick=0, channel=0, data=[76, 81]),
   midi.NoteOnEvent(tick=10, channel=0, data=[52, 0]),
   midi.NoteOnEvent(tick=2, channel=0, data=[64, 0]),
   midi.NoteOnEvent(tick=3, channel=0, data=[76, 0]),
   midi.NoteOnEvent(tick=6, channel=0, data=[59, 50]),
   midi.NoteOnEvent(tick=5, channel=0, data=[55, 0]),
   midi.NoteOnEvent(tick=10, channel=0, data=[59, 0]),
   midi.NoteOnEvent(tick=13, channel=0, data=[75, 81]),
   midi.NoteOnEvent(tick=1, channel=0, data=[47, 77]),
   midi.NoteOnEvent(tick=2, channel=0, data=[63, 69]),
   midi.NoteOnEvent(tick=8, channel=0, data=[63, 0]),
   midi.NoteOnEvent(tick=10, channel=0, data=[75, 0]),
   midi.NoteOnEvent(tick=7, channel=0, data=[52, 73]),
   midi.NoteOnEvent(tick=3, channel=0, data=[47, 0]),
   midi.NoteOnEvent(tick=21, channel=0, data=[64, 91]),
   midi.NoteOnEvent(tick=1, channel=0, data=[76, 91]),
   midi.NoteOnEvent(tick=0, channel=0, data=[55, 73]),
   midi.NoteOnEvent(tick=10, channel=0, data=[64, 0]),
   midi.NoteOnEvent(tick=3, channel=0, data=[52, 0]),
   midi.NoteOnEvent(tick=1, channel=0, data=[76, 0]),
   midi.NoteOnEvent(tick=9, channel=0, data=[59, 59]),
   midi.NoteOnEvent(tick=11, channel=0, data=[55, 0]),
   midi.NoteOnEvent(tick=8, channel=0, data=[59, 0]),
   midi.NoteOnEvent(tick=8, channel=0, data=[66, 73]),
   midi.NoteOnEvent(tick=6, channel=0, data=[47, 81]),
   midi.NoteOnEvent(tick=7, channel=0, data=[66, 0]),
   midi.NoteOnEvent(tick=17, channel=0, data=[52, 77]),
   midi.NoteOnEvent(tick=6, channel=0, data=[47, 0]),
   midi.NoteOnEvent(tick=12, channel=0, data=[64, 86]),
   midi.NoteOnEvent(tick=0, channel=0, data=[76, 86]),
   midi.NoteOnEvent(tick=8, channel=0, data=[55, 66]),
   midi.NoteOnEvent(tick=7, channel=0, data=[64, 0]),
   midi.NoteOnEvent(tick=1, channel=0, data=[76, 0]),
   midi.NoteOnEvent(tick=4, channel=0, data=[59, 66]),
   midi.NoteOnEvent(tick=1, channel=0, data=[52, 0]),
   midi.NoteOnEvent(tick=10, channel=0, data=[59, 0]),
   midi.NoteOnEvent(tick=3, channel=0, data=[55, 0]),
   midi.ControlChangeEvent(tick=17, channel=0, data=[64, 0]),
   midi.NoteOnEvent(tick=3, channel=0, data=[64, 91]),
   midi.NoteOnEvent(tick=1, channel=0, data=[76, 91]),
   midi.NoteOnEvent(tick=0, channel=0, data=[46, 57]),
   midi.NoteOnEvent(tick=24, channel=0, data=[52, 69]),
   midi.ControlChangeEvent(tick=5, channel=0, data=[64, 127]),
   midi.NoteOnEvent(tick=4, channel=0, data=[46, 0]),
   midi.NoteOnEvent(tick=23, channel=0, data=[55, 59]),
   midi.NoteOnEvent(tick=11, channel=0, data=[52, 0]),
   midi.NoteOnEvent(tick=2, channel=0, data=[61, 54]),
   midi.NoteOnEvent(tick=16, channel=0, data=[61, 0]),
   midi.NoteOnEvent(tick=6, channel=0, data=[55, 0]),
   midi.NoteOnEvent(tick=14, channel=0, data=[46, 66]),
   midi.NoteOnEvent(tick=22, channel=0, data=[52, 69]),
   midi.NoteOnEvent(tick=12, channel=0, data=[46, 0]),
   midi.NoteOnEvent(tick=17, channel=0, data=[55, 77]),
   midi.NoteOnEvent(tick=19, channel=0, data=[52, 0]),
   midi.NoteOnEvent(tick=9, channel=0, data=[61, 54]),
   midi.NoteOnEvent(tick=9, channel=0, data=[61, 0]),
   midi.NoteOnEvent(tick=12, channel=0, data=[55, 0]),
   midi.NoteOnEvent(tick=2, channel=0, data=[64, 0]),
   midi.NoteOnEvent(tick=6, channel=0, data=[46, 66]),
   midi.NoteOnEvent(tick=11, channel=0, data=[76, 0]),
   midi.NoteOnEvent(tick=8, channel=0, data=[52, 77]),
   midi.NoteOnEvent(tick=9, channel=0, data=[46, 0]),
   midi.NoteOnEvent(tick=18, channel=0, data=[55, 69]),
   midi.NoteOnEvent(tick=19, channel=0, data=[52, 0]),
   midi.NoteOnEvent(tick=1, channel=0, data=[61, 59]),
   midi.NoteOnEvent(tick=17, channel=0, data=[61, 0]),
   midi.NoteOnEvent(tick=7, channel=0, data=[55, 0]),
   midi.NoteOnEvent(tick=12, channel=0, data=[46, 73]),
   midi.NoteOnEvent(tick=6, channel=0, data=[76, 91]),
   midi.NoteOnEvent(tick=1, channel=0, data=[88, 91]),
   midi.NoteOnEvent(tick=14, channel=0, data=[52, 73]),
   midi.NoteOnEvent(tick=3, channel=0, data=[76, 0]),
   midi.NoteOnEvent(tick=5, channel=0, data=[88, 0]),
   midi.NoteOnEvent(tick=1, channel=0, data=[46, 0]),
   midi.NoteOnEvent(tick=18, channel=0, data=[55, 77]),
   midi.NoteOnEvent(tick=21, channel=0, data=[52, 0]),
   midi.NoteOnEvent(tick=1, channel=0, data=[61, 47]),
   midi.NoteOnEvent(tick=16, channel=0, data=[61, 0]),
   midi.NoteOnEvent(tick=11, channel=0, data=[55, 0]),
   midi.NoteOnEvent(tick=6, channel=0, data=[46, 69]),
   midi.NoteOnEvent(tick=5, channel=0, data=[76, 102]),
   midi.NoteOnEvent(tick=0, channel=0, data=[88, 91]),
   midi.NoteOnEvent(tick=18, channel=0, data=[52, 73]),
   midi.NoteOnEvent(tick=7, channel=0, data=[46, 0]),
   midi.NoteOnEvent(tick=15, channel=0, data=[55, 77]),
   midi.NoteOnEvent(tick=21, channel=0, data=[52, 0]),
   midi.NoteOnEvent(tick=4, channel=0, data=[61, 57]),
   midi.NoteOnEvent(tick=16, channel=0, data=[61, 0]),
   midi.NoteOnEvent(tick=15, channel=0, data=[55, 0]),
   midi.NoteOnEvent(tick=6, channel=0, data=[46, 66]),
   midi.NoteOnEvent(tick=13, channel=0, data=[49, 35]),
   midi.NoteOnEvent(tick=4, channel=0, data=[52, 69]),
   midi.NoteOnEvent(tick=10, channel=0, data=[46, 0]),
   midi.NoteOnEvent(tick=5, channel=0, data=[49, 0]),
   midi.NoteOnEvent(tick=8, channel=0, data=[76, 0]),
   midi.NoteOnEvent(tick=2, channel=0, data=[88, 0]),
   midi.NoteOnEvent(tick=3, channel=0, data=[55, 69]),
   midi.NoteOnEvent(tick=18, channel=0, data=[61, 59]),
   midi.NoteOnEvent(tick=7, channel=0, data=[52, 0]),
   midi.NoteOnEvent(tick=11, channel=0, data=[61, 0]),
   midi.NoteOnEvent(tick=10, channel=0, data=[55, 0]),
   midi.NoteOnEvent(tick=6, channel=0, data=[46, 66]),
   midi.NoteOnEvent(tick=16, channel=0, data=[52, 73]),
   midi.NoteOnEvent(tick=12, channel=0, data=[46, 0]),
   midi.NoteOnEvent(tick=15, channel=0, data=[55, 73]),
   midi.NoteOnEvent(tick=8, channel=0, data=[67, 86]),
   midi.NoteOnEvent(tick=2, channel=0, data=[79, 81]),
   midi.NoteOnEvent(tick=3, channel=0, data=[61, 69]),
   midi.NoteOnEvent(tick=9, channel=0, data=[67, 0]),
   midi.NoteOnEvent(tick=6, channel=0, data=[79, 0]),
   midi.NoteOnEvent(tick=3, channel=0, data=[52, 0]),
   midi.NoteOnEvent(tick=3, channel=0, data=[61, 0]),
   midi.NoteOnEvent(tick=1, channel=0, data=[55, 0]),
   midi.NoteOnEvent(tick=23, channel=0, data=[46, 73]),
   midi.NoteOnEvent(tick=1, channel=0, data=[66, 81]),
   midi.NoteOnEvent(tick=1, channel=0, data=[78, 86]),
   midi.NoteOnEvent(tick=8, channel=0, data=[52, 59]),
   midi.NoteOnEvent(tick=3, channel=0, data=[66, 0]),
   midi.NoteOnEvent(tick=7, channel=0, data=[78, 0]),
   midi.NoteOnEvent(tick=9, channel=0, data=[46, 0]),
   midi.NoteOnEvent(tick=15, channel=0, data=[55, 66]),
   midi.NoteOnEvent(tick=8, channel=0, data=[61, 69]),
   midi.NoteOnEvent(tick=0, channel=0, data=[64, 57]),
   midi.NoteOnEvent(tick=2, channel=0, data=[65, 59]),
   midi.NoteOnEvent(tick=0, channel=0, data=[77, 57]),
   midi.NoteOnEvent(tick=0, channel=0, data=[76, 66]),
   midi.NoteOnEvent(tick=8, channel=0, data=[64, 0]),
   midi.NoteOnEvent(tick=1, channel=0, data=[65, 0]),
   midi.NoteOnEvent(tick=1, channel=0, data=[77, 0]),
   midi.NoteOnEvent(tick=1, channel=0, data=[76, 0]),
   midi.NoteOnEvent(tick=3, channel=0, data=[61, 0]),
   midi.NoteOnEvent(tick=0, channel=0, data=[52, 0]),
   midi.NoteOnEvent(tick=4, channel=0, data=[55, 0]),
   midi.ControlChangeEvent(tick=28, channel=0, data=[64, 0]),
   midi.NoteOnEvent(tick=4, channel=0, data=[47, 91]),
   midi.NoteOnEvent(tick=2, channel=0, data=[75, 86]),
   midi.NoteOnEvent(tick=0, channel=0, data=[63, 81]),
   midi.NoteOnEvent(tick=14, channel=0, data=[63, 0]),
   midi.NoteOnEvent(tick=4, channel=0, data=[75, 0]),
   midi.ControlChangeEvent(tick=10, channel=0, data=[64, 127]),
   midi.NoteOnEvent(tick=24, channel=0, data=[59, 66]),
   midi.NoteOnEvent(tick=3, channel=0, data=[71, 54]),
   midi.NoteOnEvent(tick=11, channel=0, data=[71, 0]),
   midi.NoteOnEvent(tick=2, channel=0, data=[59, 0]),
   midi.NoteOnEvent(tick=35, channel=0, data=[59, 41]),
   midi.NoteOnEvent(tick=7, channel=0, data=[63, 33]),
   midi.NoteOnEvent(tick=5, channel=0, data=[59, 0]),
   midi.NoteOnEvent(tick=5, channel=0, data=[63, 0]),
   midi.NoteOnEvent(tick=36, channel=0, data=[59, 40]),
   midi.NoteOnEvent(tick=3, channel=0, data=[63, 37]),
   midi.NoteOnEvent(tick=0, channel=0, data=[71, 32]),
   midi.NoteOnEvent(tick=14, channel=0, data=[71, 0]),
   midi.NoteOnEvent(tick=1, channel=0, data=[63, 0]),
   midi.NoteOnEvent(tick=1, channel=0, data=[59, 0]),
   midi.NoteOnEvent(tick=35, channel=0, data=[52, 73]),
   midi.ControlChangeEvent(tick=11, channel=0, data=[64, 0]),
   midi.ControlChangeEvent(tick=35, channel=0, data=[64, 127]),
   midi.NoteOnEvent(tick=6, channel=0, data=[59, 52]),
   midi.NoteOnEvent(tick=3, channel=0, data=[71, 24]),
   midi.NoteOnEvent(tick=3, channel=0, data=[67, 47]),
   midi.NoteOnEvent(tick=8, channel=0, data=[59, 0]),
   midi.NoteOnEvent(tick=2, channel=0, data=[67, 0]),
   midi.NoteOnEvent(tick=2, channel=0, data=[71, 0]),
   midi.NoteOnEvent(tick=35, channel=0, data=[59, 40]),
   midi.NoteOnEvent(tick=1, channel=0, data=[67, 54]),
   midi.NoteOnEvent(tick=1, channel=0, data=[71, 38]),
   midi.NoteOnEvent(tick=12, channel=0, data=[71, 0]),
   midi.NoteOnEvent(tick=0, channel=0, data=[59, 0]),
   midi.NoteOnEvent(tick=4, channel=0, data=[67, 0]),
   midi.NoteOnEvent(tick=35, channel=0, data=[59, 41]),
   midi.NoteOnEvent(tick=4, channel=0, data=[67, 50]),
   midi.NoteOnEvent(tick=10, channel=0, data=[59, 0]),
   midi.NoteOnEvent(tick=9, channel=0, data=[67, 0]),
   midi.NoteOnEvent(tick=31, channel=0, data=[51, 73]),
   midi.NoteOnEvent(tick=3, channel=0, data=[52, 0]),
   midi.ControlChangeEvent(tick=8, channel=0, data=[64, 0]),
   midi.ControlChangeEvent(tick=38, channel=0, data=[64, 127]),
   midi.NoteOnEvent(tick=6, channel=0, data=[59, 45]),
   midi.NoteOnEvent(tick=0, channel=0, data=[71, 47]),
   midi.NoteOnEvent(tick=1, channel=0, data=[66, 45]),
   midi.NoteOnEvent(tick=10, channel=0, data=[71, 0]),
   midi.NoteOnEvent(tick=0, channel=0, data=[59, 0]),
   midi.NoteOnEvent(tick=2, channel=0, data=[66, 0]),
   midi.NoteOnEvent(tick=36, channel=0, data=[66, 45]),
   midi.NoteOnEvent(tick=1, channel=0, data=[59, 52]),
   midi.NoteOnEvent(tick=4, channel=0, data=[71, 41]),
   midi.NoteOnEvent(tick=8, channel=0, data=[59, 0]),
   midi.NoteOnEvent(tick=3, channel=0, data=[71, 0]),
   midi.NoteOnEvent(tick=4, channel=0, data=[66, 0]),
   midi.NoteOnEvent(tick=32, channel=0, data=[59, 54]),
   midi.NoteOnEvent(tick=0, channel=0, data=[66, 50]),
   midi.NoteOnEvent(tick=2, channel=0, data=[71, 52]),
   midi.NoteOnEvent(tick=14, channel=0, data=[59, 0]),
   midi.NoteOnEvent(tick=2, channel=0, data=[71, 0]),
   midi.NoteOnEvent(tick=11, channel=0, data=[66, 0]),
   midi.NoteOnEvent(tick=5, channel=0, data=[51, 0]),
   midi.NoteOnEvent(tick=20, channel=0, data=[55, 69]),
   midi.ControlChangeEvent(tick=9, channel=0, data=[64, 0]),
   midi.ControlChangeEvent(tick=34, channel=0, data=[64, 127]),
   midi.NoteOnEvent(tick=5, channel=0, data=[71, 59]),
   midi.NoteOnEvent(tick=4, channel=0, data=[59, 45]),
   midi.NoteOnEvent(tick=0, channel=0, data=[64, 57]),
   midi.NoteOnEvent(tick=8, channel=0, data=[64, 0]),
   midi.NoteOnEvent(tick=0, channel=0, data=[59, 0]),
   midi.NoteOnEvent(tick=3, channel=0, data=[71, 0]),
   midi.NoteOnEvent(tick=37, channel=0, data=[59, 52]),
   midi.NoteOnEvent(tick=2, channel=0, data=[71, 45]),
   midi.NoteOnEvent(tick=0, channel=0, data=[64, 52]),
   midi.NoteOnEvent(tick=10, channel=0, data=[64, 0]),
   midi.NoteOnEvent(tick=0, channel=0, data=[47, 0]),
   midi.NoteOnEvent(tick=2, channel=0, data=[71, 0]),
   midi.NoteOnEvent(tick=2, channel=0, data=[59, 0]),
   midi.NoteOnEvent(tick=31, channel=0, data=[59, 69]),
   midi.NoteOnEvent(tick=3, channel=0, data=[71, 59]),
   midi.NoteOnEvent(tick=3, channel=0, data=[64, 38]),
   midi.NoteOnEvent(tick=7, channel=0, data=[71, 0]),
   midi.NoteOnEvent(tick=2, channel=0, data=[64, 0]),
   midi.NoteOnEvent(tick=2, channel=0, data=[59, 0]),
   midi.NoteOnEvent(tick=8, channel=0, data=[55, 0]),
   midi.ControlChangeEvent(tick=19, channel=0, data=[64, 0]),
   midi.NoteOnEvent(tick=7, channel=0, data=[47, 66]),
   midi.NoteOnEvent(tick=0, channel=0, data=[54, 69]),
   midi.NoteOnEvent(tick=2, channel=0, data=[71, 77]),
   midi.NoteOnEvent(tick=18, channel=0, data=[47, 0]),
   midi.ControlChangeEvent(tick=5, channel=0, data=[64, 127]),
   midi.NoteOnEvent(tick=8, channel=0, data=[71, 0]),
   midi.NoteOnEvent(tick=2, channel=0, data=[54, 0]),
   midi.NoteOnEvent(tick=19, channel=0, data=[59, 41]),
   midi.NoteOnEvent(tick=15, channel=0, data=[59, 0]),
   midi.NoteOnEvent(tick=39, channel=0, data=[63, 54]),
   midi.NoteOnEvent(tick=2, channel=0, data=[59, 41]),
   midi.NoteOnEvent(tick=9, channel=0, data=[59, 0]),
   midi.NoteOnEvent(tick=0, channel=0, data=[63, 0]),
   midi.NoteOnEvent(tick=32, channel=0, data=[63, 57]),
   midi.NoteOnEvent(tick=3, channel=0, data=[59, 54]),
   midi.NoteOnEvent(tick=8, channel=0, data=[63, 0]),
   midi.NoteOnEvent(tick=1, channel=0, data=[59, 0]),
   midi.NoteOnEvent(tick=45, channel=0, data=[76, 81]),
   midi.ControlChangeEvent(tick=7, channel=0, data=[64, 0]),
   midi.ControlChangeEvent(tick=30, channel=0, data=[64, 127]),
   midi.NoteOnEvent(tick=10, channel=0, data=[64, 59]),
   midi.NoteOnEvent(tick=1, channel=0, data=[67, 50]),
   midi.NoteOnEvent(tick=1, channel=0, data=[59, 47]),
   midi.NoteOnEvent(tick=10, channel=0, data=[59, 0]),
   midi.NoteOnEvent(tick=3, channel=0, data=[64, 0]),
   midi.NoteOnEvent(tick=5, channel=0, data=[67, 0]),
   midi.NoteOnEvent(tick=31, channel=0, data=[64, 57]),
   midi.NoteOnEvent(tick=1, channel=0, data=[59, 50]),
   midi.NoteOnEvent(tick=5, channel=0, data=[67, 27]),
   midi.NoteOnEvent(tick=4, channel=0, data=[64, 0]),
   midi.NoteOnEvent(tick=1, channel=0, data=[59, 0]),
   midi.NoteOnEvent(tick=5, channel=0, data=[67, 0]),
   midi.NoteOnEvent(tick=12, channel=0, data=[76, 0]),
   midi.NoteOnEvent(tick=19, channel=0, data=[64, 59]),
   midi.NoteOnEvent(tick=2, channel=0, data=[67, 57]),
   midi.NoteOnEvent(tick=0, channel=0, data=[59, 57]),
   midi.NoteOnEvent(tick=11, channel=0, data=[59, 0]),
   midi.NoteOnEvent(tick=2, channel=0, data=[64, 0]),
   midi.NoteOnEvent(tick=4, channel=0, data=[67, 0]),
   midi.NoteOnEvent(tick=35, channel=0, data=[75, 77]),
   midi.ControlChangeEvent(tick=14, channel=0, data=[64, 0]),
   midi.ControlChangeEvent(tick=34, channel=0, data=[64, 127]),
   midi.NoteOnEvent(tick=0, channel=0, data=[63, 45]),
   midi.NoteOnEvent(tick=3, channel=0, data=[66, 54]),
   midi.NoteOnEvent(tick=4, channel=0, data=[59, 37]),
   midi.NoteOnEvent(tick=6, channel=0, data=[66, 0]),
   midi.NoteOnEvent(tick=2, channel=0, data=[63, 0]),
   midi.NoteOnEvent(tick=1, channel=0, data=[59, 0]),
   midi.NoteOnEvent(tick=35, channel=0, data=[59, 54]),
   midi.NoteOnEvent(tick=4, channel=0, data=[66, 40]),
   midi.NoteOnEvent(tick=1, channel=0, data=[63, 40]),
   midi.NoteOnEvent(tick=5, channel=0, data=[59, 0]),
   midi.NoteOnEvent(tick=2, channel=0, data=[66, 0]),
   midi.NoteOnEvent(tick=1, channel=0, data=[63, 0]),
   midi.NoteOnEvent(tick=30, channel=0, data=[75, 0]),
   midi.NoteOnEvent(tick=4, channel=0, data=[63, 40]),
   midi.NoteOnEvent(tick=4, channel=0, data=[59, 50]),
   midi.NoteOnEvent(tick=1, channel=0, data=[66, 50]),
   midi.NoteOnEvent(tick=9, channel=0, data=[59, 0]),
   midi.NoteOnEvent(tick=8, channel=0, data=[63, 0]),
   midi.NoteOnEvent(tick=6, channel=0, data=[66, 0]),
   midi.NoteOnEvent(tick=26, channel=0, data=[70, 59]),
   midi.ControlChangeEvent(tick=2, channel=0, data=[64, 0]),
   midi.ControlChangeEvent(tick=36, channel=0, data=[64, 127]),
   midi.NoteOnEvent(tick=12, channel=0, data=[70, 0]),
   midi.NoteOnEvent(tick=0, channel=0, data=[61, 40]),
   midi.NoteOnEvent(tick=1, channel=0, data=[59, 57]),
   midi.NoteOnEvent(tick=0, channel=0, data=[64, 59]),
   midi.NoteOnEvent(tick=8, channel=0, data=[59, 0]),
   midi.NoteOnEvent(tick=2, channel=0, data=[61, 0]),
   midi.NoteOnEvent(tick=1, channel=0, data=[64, 0]),
   midi.NoteOnEvent(tick=39, channel=0, data=[59, 38]),
   midi.NoteOnEvent(tick=2, channel=0, data=[61, 45]),
   midi.NoteOnEvent(tick=0, channel=0, data=[64, 54]),
   midi.NoteOnEvent(tick=8, channel=0, data=[59, 0]),
   midi.NoteOnEvent(tick=1, channel=0, data=[61, 0]),
   midi.NoteOnEvent(tick=1, channel=0, data=[64, 0]),
   midi.NoteOnEvent(tick=34, channel=0, data=[61, 50]),
   midi.NoteOnEvent(tick=2, channel=0, data=[59, 59]),
   midi.NoteOnEvent(tick=2, channel=0, data=[64, 57]),
   midi.NoteOnEvent(tick=7, channel=0, data=[61, 0]),
   midi.NoteOnEvent(tick=1, channel=0, data=[59, 0]),
   midi.NoteOnEvent(tick=4, channel=0, data=[64, 0]),
   midi.NoteOnEvent(tick=35, channel=0, data=[47, 73]),
   midi.ControlChangeEvent(tick=5, channel=0, data=[64, 0]),
   midi.ControlChangeEvent(tick=35, channel=0, data=[64, 127]),
   midi.NoteOnEvent(tick=14, channel=0, data=[59, 41]),
   midi.NoteOnEvent(tick=0, channel=0, data=[71, 45]),
   midi.NoteOnEvent(tick=5, channel=0, data=[63, 38]),
   midi.NoteOnEvent(tick=6, channel=0, data=[71, 0]),
   midi.NoteOnEvent(tick=2, channel=0, data=[63, 0]),
   midi.NoteOnEvent(tick=0, channel=0, data=[59, 0]),
   midi.NoteOnEvent(tick=38, channel=0, data=[59, 41]),
   midi.NoteOnEvent(tick=3, channel=0, data=[63, 47]),
   midi.NoteOnEvent(tick=0, channel=0, data=[71, 38]),
   midi.NoteOnEvent(tick=9, channel=0, data=[63, 0]),
   midi.NoteOnEvent(tick=1, channel=0, data=[59, 0]),
   midi.NoteOnEvent(tick=1, channel=0, data=[71, 0]),
   midi.NoteOnEvent(tick=34, channel=0, data=[63, 47]),
   midi.NoteOnEvent(tick=2, channel=0, data=[59, 50]),
   midi.NoteOnEvent(tick=6, channel=0, data=[71, 25]),
   midi.NoteOnEvent(tick=11, channel=0, data=[71, 0]),
   midi.NoteOnEvent(tick=2, channel=0, data=[59, 0]),
   midi.NoteOnEvent(tick=4, channel=0, data=[63, 0]),
   midi.NoteOnEvent(tick=29, channel=0, data=[52, 77]),
   midi.ControlChangeEvent(tick=3, channel=0, data=[64, 0]),
   midi.ControlChangeEvent(tick=38, channel=0, data=[64, 127]),
   midi.NoteOnEvent(tick=4, channel=0, data=[59, 54]),
   midi.NoteOnEvent(tick=5, channel=0, data=[71, 24]),
   midi.NoteOnEvent(tick=0, channel=0, data=[67, 54]),
   midi.NoteOnEvent(tick=11, channel=0, data=[67, 0]),
   midi.NoteOnEvent(tick=0, channel=0, data=[71, 0]),
   midi.NoteOnEvent(tick=1, channel=0, data=[59, 0]),
   midi.NoteOnEvent(tick=36, channel=0, data=[59, 47]),
   midi.NoteOnEvent(tick=2, channel=0, data=[67, 54]),
   midi.NoteOnEvent(tick=1, channel=0, data=[71, 33]),
   midi.NoteOnEvent(tick=10, channel=0, data=[67, 0]),
   midi.NoteOnEvent(tick=1, channel=0, data=[59, 0]),
   midi.NoteOnEvent(tick=2, channel=0, data=[71, 0]),
   midi.NoteOnEvent(tick=36, channel=0, data=[71, 54]),
   midi.NoteOnEvent(tick=1, channel=0, data=[67, 54]),
   midi.NoteOnEvent(tick=18, channel=0, data=[67, 0]),
   midi.NoteOnEvent(tick=4, channel=0, data=[71, 0]),
   midi.NoteOnEvent(tick=28, channel=0, data=[51, 73]),
   midi.NoteOnEvent(tick=4, channel=0, data=[52, 0]),
   midi.ControlChangeEvent(tick=4, channel=0, data=[64, 0]),
   midi.ControlChangeEvent(tick=37, channel=0, data=[64, 127]),
   midi.NoteOnEvent(tick=5, channel=0, data=[59, 57]),
   midi.NoteOnEvent(tick=2, channel=0, data=[66, 52]),
   midi.NoteOnEvent(tick=0, channel=0, data=[71, 41]),
   midi.NoteOnEvent(tick=10, channel=0, data=[59, 0]),
   midi.NoteOnEvent(tick=1, channel=0, data=[71, 0]),
   midi.NoteOnEvent(tick=6, channel=0, data=[66, 0]),
   midi.NoteOnEvent(tick=32, channel=0, data=[59, 47]),
   midi.NoteOnEvent(tick=2, channel=0, data=[66, 41]),
   midi.NoteOnEvent(tick=6, channel=0, data=[71, 35]),
   midi.NoteOnEvent(tick=7, channel=0, data=[59, 0]),
   midi.NoteOnEvent(tick=2, channel=0, data=[71, 0]),
   midi.NoteOnEvent(tick=2, channel=0, data=[66, 0]),
   midi.NoteOnEvent(tick=31, channel=0, data=[66, 59]),
   midi.NoteOnEvent(tick=4, channel=0, data=[59, 59]),
   midi.NoteOnEvent(tick=2, channel=0, data=[71, 38]),
   midi.NoteOnEvent(tick=9, channel=0, data=[59, 0]),
   midi.NoteOnEvent(tick=3, channel=0, data=[71, 0]),
   midi.NoteOnEvent(tick=6, channel=0, data=[66, 0]),
   midi.NoteOnEvent(tick=23, channel=0, data=[51, 0]),
   midi.NoteOnEvent(tick=2, channel=0, data=[55, 73]),
   midi.ControlChangeEvent(tick=8, channel=0, data=[64, 0]),
   midi.ControlChangeEvent(tick=38, channel=0, data=[64, 127]),
   midi.NoteOnEvent(tick=7, channel=0, data=[59, 52]),
   midi.NoteOnEvent(tick=1, channel=0, data=[71, 47]),
   midi.NoteOnEvent(tick=0, channel=0, data=[64, 57]),
   midi.NoteOnEvent(tick=9, channel=0, data=[59, 0]),
   midi.NoteOnEvent(tick=1, channel=0, data=[64, 0]),
   midi.NoteOnEvent(tick=1, channel=0, data=[71, 0]),
   midi.NoteOnEvent(tick=36, channel=0, data=[59, 52]),
   midi.NoteOnEvent(tick=1, channel=0, data=[71, 47]),
   midi.NoteOnEvent(tick=0, channel=0, data=[64, 57]),
   midi.NoteOnEvent(tick=11, channel=0, data=[71, 0]),
   midi.NoteOnEvent(tick=0, channel=0, data=[59, 0]),
   midi.NoteOnEvent(tick=3, channel=0, data=[64, 0]),
   midi.NoteOnEvent(tick=3, channel=0, data=[47, 0]),
   midi.NoteOnEvent(tick=27, channel=0, data=[59, 66]),
   midi.NoteOnEvent(tick=6, channel=0, data=[64, 52]),
   midi.NoteOnEvent(tick=0, channel=0, data=[71, 35]),
   midi.NoteOnEvent(tick=10, channel=0, data=[64, 0]),
   midi.NoteOnEvent(tick=1, channel=0, data=[59, 0]),
   midi.NoteOnEvent(tick=1, channel=0, data=[71, 0]),
   midi.NoteOnEvent(tick=10, channel=0, data=[55, 0]),
   midi.ControlChangeEvent(tick=18, channel=0, data=[64, 0]),
   midi.NoteOnEvent(tick=8, channel=0, data=[54, 66]),
   midi.NoteOnEvent(tick=0, channel=0, data=[47, 54]),
   midi.NoteOnEvent(tick=1, channel=0, data=[71, 73]),
   midi.NoteOnEvent(tick=11, channel=0, data=[47, 0]),
   midi.ControlChangeEvent(tick=13, channel=0, data=[64, 127]),
   midi.NoteOnEvent(tick=7, channel=0, data=[54, 0]),
   midi.NoteOnEvent(tick=1, channel=0, data=[71, 0]),
   midi.NoteOnEvent(tick=17, channel=0, data=[59, 50]),
   midi.NoteOnEvent(tick=4, channel=0, data=[63, 52]),
   midi.NoteOnEvent(tick=8, channel=0, data=[59, 0]),
   midi.NoteOnEvent(tick=3, channel=0, data=[63, 0]),
   midi.NoteOnEvent(tick=39, channel=0, data=[63, 52]),
   midi.NoteOnEvent(tick=1, channel=0, data=[59, 41]),
   midi.NoteOnEvent(tick=9, channel=0, data=[59, 0]),
   midi.NoteOnEvent(tick=0, channel=0, data=[63, 0]),
   midi.NoteOnEvent(tick=35, channel=0, data=[63, 57]),
   midi.NoteOnEvent(tick=2, channel=0, data=[59, 52]),
   midi.NoteOnEvent(tick=7, channel=0, data=[63, 0]),
   midi.NoteOnEvent(tick=2, channel=0, data=[59, 0]),
   midi.NoteOnEvent(tick=42, channel=0, data=[76, 77]),
   midi.ControlChangeEvent(tick=8, channel=0, data=[64, 0]),
   midi.ControlChangeEvent(tick=32, channel=0, data=[64, 127]),
   midi.NoteOnEvent(tick=5, channel=0, data=[67, 52]),
   midi.NoteOnEvent(tick=3, channel=0, data=[59, 54]),
   midi.NoteOnEvent(tick=2, channel=0, data=[64, 23]),
   midi.NoteOnEvent(tick=10, channel=0, data=[59, 0]),
   midi.NoteOnEvent(tick=2, channel=0, data=[64, 0]),
   midi.NoteOnEvent(tick=5, channel=0, data=[76, 0]),
   midi.NoteOnEvent(tick=1, channel=0, data=[67, 0]),
   midi.NoteOnEvent(tick=30, channel=0, data=[59, 52]),
   midi.NoteOnEvent(tick=2, channel=0, data=[64, 47]),
   midi.NoteOnEvent(tick=0, channel=0, data=[67, 52]),
   midi.NoteOnEvent(tick=6, channel=0, data=[59, 0]),
   midi.NoteOnEvent(tick=5, channel=0, data=[67, 0]),
   midi.NoteOnEvent(tick=0, channel=0, data=[64, 0]),
   midi.NoteOnEvent(tick=34, channel=0, data=[59, 57]),
   midi.NoteOnEvent(tick=2, channel=0, data=[64, 54]),
   midi.NoteOnEvent(tick=2, channel=0, data=[67, 57]),
   midi.NoteOnEvent(tick=6, channel=0, data=[59, 0]),
   midi.NoteOnEvent(tick=1, channel=0, data=[64, 0]),
   midi.NoteOnEvent(tick=1, channel=0, data=[67, 0]),
   midi.NoteOnEvent(tick=40, channel=0, data=[75, 69]),
   midi.ControlChangeEvent(tick=14, channel=0, data=[64, 0]),
   midi.NoteOnEvent(tick=32, channel=0, data=[63, 50]),
   midi.ControlChangeEvent(tick=3, channel=0, data=[64, 127]),
   midi.NoteOnEvent(tick=2, channel=0, data=[66, 50]),
   midi.NoteOnEvent(tick=1, channel=0, data=[59, 45]),
   midi.NoteOnEvent(tick=7, channel=0, data=[66, 0]),
   midi.NoteOnEvent(tick=2, channel=0, data=[59, 0]),
   midi.NoteOnEvent(tick=1, channel=0, data=[63, 0]),
   midi.NoteOnEvent(tick=36, channel=0, data=[63, 41]),
   midi.NoteOnEvent(tick=3, channel=0, data=[59, 47]),
   midi.NoteOnEvent(tick=1, channel=0, data=[66, 41]),
   midi.NoteOnEvent(tick=7, channel=0, data=[59, 0]),
   midi.NoteOnEvent(tick=1, channel=0, data=[66, 0]),
   midi.NoteOnEvent(tick=2, channel=0, data=[63, 0]),
   midi.NoteOnEvent(tick=17, channel=0, data=[75, 0]),
   midi.NoteOnEvent(tick=19, channel=0, data=[59, 57]),
   midi.NoteOnEvent(tick=0, channel=0, data=[63, 54]),
   midi.NoteOnEvent(tick=2, channel=0, data=[66, 52]),
   midi.NoteOnEvent(tick=6, channel=0, data=[59, 0]),
   midi.NoteOnEvent(tick=13, channel=0, data=[63, 0]),
   midi.NoteOnEvent(tick=10, channel=0, data=[66, 0]),
   midi.NoteOnEvent(tick=20, channel=0, data=[70, 69]),
   midi.ControlChangeEvent(tick=1, channel=0, data=[64, 0]),
   midi.ControlChangeEvent(tick=35, channel=0, data=[64, 127]),
   midi.NoteOnEvent(tick=12, channel=0, data=[59, 52]),
   midi.NoteOnEvent(tick=3, channel=0, data=[61, 45]),
   midi.NoteOnEvent(tick=4, channel=0, data=[64, 54]),
   midi.NoteOnEvent(tick=3, channel=0, data=[59, 0]),
   midi.NoteOnEvent(tick=3, channel=0, data=[70, 0]),
   midi.NoteOnEvent(tick=4, channel=0, data=[64, 0]),
   midi.NoteOnEvent(tick=2, channel=0, data=[61, 0]),
   midi.NoteOnEvent(tick=34, channel=0, data=[61, 47]),
   midi.NoteOnEvent(tick=0, channel=0, data=[59, 50]),
   midi.NoteOnEvent(tick=2, channel=0, data=[64, 54]),
   midi.NoteOnEvent(tick=7, channel=0, data=[59, 0]),
   midi.NoteOnEvent(tick=2, channel=0, data=[64, 0]),
   midi.NoteOnEvent(tick=6, channel=0, data=[61, 0]),
   midi.NoteOnEvent(tick=31, channel=0, data=[59, 57]),
   midi.NoteOnEvent(tick=0, channel=0, data=[61, 47]),
   midi.NoteOnEvent(tick=6, channel=0, data=[64, 57]),
   midi.NoteOnEvent(tick=4, channel=0, data=[61, 0]),
   midi.NoteOnEvent(tick=0, channel=0, data=[59, 0]),
   midi.NoteOnEvent(tick=6, channel=0, data=[64, 0]),
   midi.NoteOnEvent(tick=38, channel=0, data=[71, 73]),
   midi.ControlChangeEvent(tick=21, channel=0, data=[64, 0]),
   midi.NoteOnEvent(tick=26, channel=0, data=[47, 69]),
   midi.NoteOnEvent(tick=4, channel=0, data=[63, 57]),
   midi.NoteOnEvent(tick=2, channel=0, data=[59, 47]),
   midi.NoteOnEvent(tick=3, channel=0, data=[47, 0]),
   midi.ControlChangeEvent(tick=2, channel=0, data=[64, 127]),
   midi.NoteOnEvent(tick=5, channel=0, data=[59, 0]),
   midi.NoteOnEvent(tick=6, channel=0, data=[63, 0]),
   midi.NoteOnEvent(tick=29, channel=0, data=[47, 69]),
   midi.NoteOnEvent(tick=3, channel=0, data=[63, 47]),
   midi.NoteOnEvent(tick=3, channel=0, data=[59, 52]),
   midi.NoteOnEvent(tick=3, channel=0, data=[47, 0]),
   midi.NoteOnEvent(tick=7, channel=0, data=[59, 0]),
   midi.NoteOnEvent(tick=3, channel=0, data=[63, 0]),
   midi.ControlChangeEvent(tick=28, channel=0, data=[64, 0]),
   midi.NoteOnEvent(tick=1, channel=0, data=[47, 69]),
   midi.NoteOnEvent(tick=3, channel=0, data=[63, 54]),
   midi.NoteOnEvent(tick=1, channel=0, data=[59, 54]),
   midi.NoteOnEvent(tick=20, channel=0, data=[59, 0]),
   midi.ControlChangeEvent(tick=5, channel=0, data=[64, 127]),
   midi.NoteOnEvent(tick=7, channel=0, data=[63, 0]),
   midi.NoteOnEvent(tick=10, channel=0, data=[47, 0]),
   midi.NoteOnEvent(tick=5, channel=0, data=[71, 0]),
   midi.NoteOnEvent(tick=2, channel=0, data=[69, 81]),
   midi.NoteOnEvent(tick=39, channel=0, data=[69, 0]),
   midi.NoteOnEvent(tick=8, channel=0, data=[47, 66]),
   midi.NoteOnEvent(tick=1, channel=0, data=[64, 73]),
   midi.NoteOnEvent(tick=3, channel=0, data=[61, 52]),
   midi.NoteOnEvent(tick=5, channel=0, data=[47, 0]),
   midi.NoteOnEvent(tick=4, channel=0, data=[61, 0]),
   midi.NoteOnEvent(tick=8, channel=0, data=[64, 0]),
   midi.NoteOnEvent(tick=31, channel=0, data=[61, 54]),
   midi.NoteOnEvent(tick=1, channel=0, data=[64, 69]),
   midi.NoteOnEvent(tick=1, channel=0, data=[47, 59]),
   midi.NoteOnEvent(tick=9, channel=0, data=[47, 0]),
   midi.NoteOnEvent(tick=2, channel=0, data=[64, 0]),
   midi.NoteOnEvent(tick=2, channel=0, data=[61, 0]),
   midi.NoteOnEvent(tick=33, channel=0, data=[47, 73]),
   midi.NoteOnEvent(tick=2, channel=0, data=[61, 52]),
   midi.NoteOnEvent(tick=1, channel=0, data=[64, 81]),
   midi.NoteOnEvent(tick=12, channel=0, data=[47, 0]),
   midi.NoteOnEvent(tick=3, channel=0, data=[61, 0]),
   midi.NoteOnEvent(tick=8, channel=0, data=[64, 0]),
   midi.NoteOnEvent(tick=28, channel=0, data=[68, 81]),
   midi.ControlChangeEvent(tick=8, channel=0, data=[64, 0]),
   midi.ControlChangeEvent(tick=37, channel=0, data=[64, 127]),
   midi.NoteOnEvent(tick=4, channel=0, data=[59, 66]),
   midi.NoteOnEvent(tick=1, channel=0, data=[64, 66]),
   midi.NoteOnEvent(tick=0, channel=0, data=[47, 73]),
   midi.NoteOnEvent(tick=2, channel=0, data=[35, 66]),
   midi.NoteOnEvent(tick=11, channel=0, data=[47, 0]),
   midi.NoteOnEvent(tick=1, channel=0, data=[35, 0]),
   midi.NoteOnEvent(tick=2, channel=0, data=[59, 0]),
   midi.NoteOnEvent(tick=2, channel=0, data=[64, 0]),
   midi.NoteOnEvent(tick=36, channel=0, data=[47, 66]),
   midi.NoteOnEvent(tick=1, channel=0, data=[68, 0]),
   midi.NoteOnEvent(tick=0, channel=0, data=[35, 66]),
   midi.NoteOnEvent(tick=2, channel=0, data=[64, 73]),
   midi.NoteOnEvent(tick=0, channel=0, data=[59, 69]),
   midi.NoteOnEvent(tick=6, channel=0, data=[47, 0]),
   midi.NoteOnEvent(tick=1, channel=0, data=[64, 0]),
   midi.NoteOnEvent(tick=1, channel=0, data=[59, 0]),
   midi.NoteOnEvent(tick=5, channel=0, data=[35, 0]),
   midi.NoteOnEvent(tick=34, channel=0, data=[47, 69]),
   midi.NoteOnEvent(tick=1, channel=0, data=[35, 66]),
   midi.NoteOnEvent(tick=0, channel=0, data=[59, 69]),
   midi.NoteOnEvent(tick=3, channel=0, data=[64, 69]),
   midi.NoteOnEvent(tick=6, channel=0, data=[47, 0]),
   midi.NoteOnEvent(tick=4, channel=0, data=[35, 0]),
   midi.NoteOnEvent(tick=6, channel=0, data=[59, 0]),
   midi.NoteOnEvent(tick=7, channel=0, data=[64, 0]),
   midi.NoteOnEvent(tick=30, channel=0, data=[66, 77]),
   midi.ControlChangeEvent(tick=9, channel=0, data=[64, 0]),
   midi.ControlChangeEvent(tick=39, channel=0, data=[64, 127]),
   midi.NoteOnEvent(tick=6, channel=0, data=[35, 73]),
   midi.NoteOnEvent(tick=0, channel=0, data=[47, 73]),
   midi.NoteOnEvent(tick=2, channel=0, data=[63, 69]),
   midi.NoteOnEvent(tick=1, channel=0, data=[66, 0]),
   midi.NoteOnEvent(tick=3, channel=0, data=[57, 69]),
   midi.NoteOnEvent(tick=10, channel=0, data=[47, 0]),
   midi.NoteOnEvent(tick=1, channel=0, data=[57, 0]),
   midi.NoteOnEvent(tick=1, channel=0, data=[35, 0]),
   midi.NoteOnEvent(tick=4, channel=0, data=[63, 0]),
   midi.NoteOnEvent(tick=39, channel=0, data=[47, 73]),
   midi.NoteOnEvent(tick=0, channel=0, data=[35, 69]),
   midi.NoteOnEvent(tick=2, channel=0, data=[63, 73]),
   midi.NoteOnEvent(tick=2, channel=0, data=[57, 73]),
   midi.NoteOnEvent(tick=5, channel=0, data=[47, 0]),
   midi.NoteOnEvent(tick=3, channel=0, data=[57, 0]),
   midi.NoteOnEvent(tick=3, channel=0, data=[35, 0]),
   midi.NoteOnEvent(tick=2, channel=0, data=[63, 0]),
   midi.NoteOnEvent(tick=39, channel=0, data=[35, 69]),
   midi.NoteOnEvent(tick=1, channel=0, data=[47, 77]),
   midi.NoteOnEvent(tick=0, channel=0, data=[63, 73]),
   midi.NoteOnEvent(tick=2, channel=0, data=[57, 73]),
   midi.NoteOnEvent(tick=8, channel=0, data=[35, 0]),
   midi.NoteOnEvent(tick=3, channel=0, data=[47, 0]),
   midi.NoteOnEvent(tick=0, channel=0, data=[57, 0]),
   midi.NoteOnEvent(tick=2, channel=0, data=[63, 0]),
   midi.NoteOnEvent(tick=48, channel=0, data=[59, 81]),
   midi.NoteOnEvent(tick=1, channel=0, data=[71, 81]),
   midi.NoteOnEvent(tick=1, channel=0, data=[68, 77]),
   midi.NoteOnEvent(tick=1, channel=0, data=[64, 86]),
   midi.ControlChangeEvent(tick=0, channel=0, data=[64, 0]),
   midi.NoteOnEvent(tick=19, channel=0, data=[40, 81]),
   midi.ControlChangeEvent(tick=21, channel=0, data=[64, 127]),
   midi.NoteOnEvent(tick=5, channel=0, data=[42, 73]),
   midi.NoteOnEvent(tick=13, channel=0, data=[40, 0]),
   midi.NoteOnEvent(tick=1, channel=0, data=[59, 0]),
   midi.NoteOnEvent(tick=3, channel=0, data=[64, 0]),
   midi.NoteOnEvent(tick=6, channel=0, data=[44, 69]),
   midi.NoteOnEvent(tick=7, channel=0, data=[68, 0]),
   midi.NoteOnEvent(tick=3, channel=0, data=[42, 0]),
   midi.NoteOnEvent(tick=3, channel=0, data=[71, 0]),
   midi.NoteOnEvent(tick=16, channel=0, data=[45, 81]),
   midi.NoteOnEvent(tick=2, channel=0, data=[44, 0]),
   midi.NoteOnEvent(tick=18, channel=0, data=[45, 0]),
   midi.NoteOnEvent(tick=2, channel=0, data=[47, 73]),
   midi.NoteOnEvent(tick=25, channel=0, data=[49, 77]),
   midi.NoteOnEvent(tick=3, channel=0, data=[47, 0]),
   midi.NoteOnEvent(tick=21, channel=0, data=[51, 54]),
   midi.NoteOnEvent(tick=5, channel=0, data=[49, 0]),
   midi.NoteOnEvent(tick=25, channel=0, data=[51, 0]),
   midi.NoteOnEvent(tick=5, channel=0, data=[52, 81]),
   midi.ControlChangeEvent(tick=2, channel=0, data=[64, 0]),
   midi.NoteOnEvent(tick=1, channel=0, data=[76, 86]),
   midi.NoteOnEvent(tick=0, channel=0, data=[64, 91]),
   midi.NoteOnEvent(tick=0, channel=0, data=[68, 81]),
   midi.NoteOnEvent(tick=2, channel=0, data=[71, 81]),
   midi.ControlChangeEvent(tick=27, channel=0, data=[64, 127]),
   midi.NoteOnEvent(tick=1, channel=0, data=[54, 69]),
   midi.NoteOnEvent(tick=1, channel=0, data=[52, 0]),
   midi.NoteOnEvent(tick=22, channel=0, data=[56, 69]),
   midi.NoteOnEvent(tick=6, channel=0, data=[54, 0]),
   midi.NoteOnEvent(tick=3, channel=0, data=[64, 0]),
   midi.NoteOnEvent(tick=18, channel=0, data=[57, 69]),
   midi.NoteOnEvent(tick=4, channel=0, data=[56, 0]),
   midi.NoteOnEvent(tick=5, channel=0, data=[71, 0]),
   midi.NoteOnEvent(tick=2, channel=0, data=[68, 0]),
   midi.NoteOnEvent(tick=9, channel=0, data=[57, 0]),
   midi.NoteOnEvent(tick=5, channel=0, data=[59, 66]),
   midi.NoteOnEvent(tick=23, channel=0, data=[76, 0]),
   midi.NoteOnEvent(tick=2, channel=0, data=[61, 69]),
   midi.NoteOnEvent(tick=1, channel=0, data=[59, 0]),
   midi.NoteOnEvent(tick=19, channel=0, data=[63, 66]),
   midi.NoteOnEvent(tick=3, channel=0, data=[61, 0]),
   midi.NoteOnEvent(tick=21, channel=0, data=[64, 81]),
   midi.NoteOnEvent(tick=4, channel=0, data=[63, 0]),
   midi.NoteOnEvent(tick=6, channel=0, data=[64, 0]),
   midi.NoteOnEvent(tick=23, channel=0, data=[73, 86]),
   midi.NoteOnEvent(tick=0, channel=0, data=[69, 86]),
   midi.ControlChangeEvent(tick=8, channel=0, data=[64, 0]),
   midi.NoteOnEvent(tick=20, channel=0, data=[40, 73]),
   midi.ControlChangeEvent(tick=13, channel=0, data=[64, 127]),
   midi.NoteOnEvent(tick=11, channel=0, data=[42, 69]),
   midi.NoteOnEvent(tick=15, channel=0, data=[40, 0]),
   midi.NoteOnEvent(tick=4, channel=0, data=[44, 73]),
   midi.NoteOnEvent(tick=10, channel=0, data=[69, 0]),
   midi.NoteOnEvent(tick=1, channel=0, data=[42, 0]),
   midi.NoteOnEvent(tick=20, channel=0, data=[45, 77]),
   midi.NoteOnEvent(tick=3, channel=0, data=[44, 0]),
   midi.NoteOnEvent(tick=6, channel=0, data=[45, 0]),
   midi.NoteOnEvent(tick=10, channel=0, data=[47, 73]),
   midi.NoteOnEvent(tick=23, channel=0, data=[49, 77]),
   midi.NoteOnEvent(tick=4, channel=0, data=[47, 0]),
   midi.NoteOnEvent(tick=11, channel=0, data=[73, 0]),
   midi.NoteOnEvent(tick=7, channel=0, data=[51, 59]),
   midi.NoteOnEvent(tick=6, channel=0, data=[49, 0]),
   midi.NoteOnEvent(tick=26, channel=0, data=[51, 0]),
   midi.NoteOnEvent(tick=4, channel=0, data=[52, 81]),
   midi.NoteOnEvent(tick=5, channel=0, data=[73, 86]),
   midi.ControlChangeEvent(tick=1, channel=0, data=[64, 0]),
   midi.NoteOnEvent(tick=0, channel=0, data=[78, 86]),
   midi.NoteOnEvent(tick=0, channel=0, data=[69, 91]),
   midi.NoteOnEvent(tick=26, channel=0, data=[54, 69]),
   midi.NoteOnEvent(tick=3, channel=0, data=[52, 0]),
   midi.ControlChangeEvent(tick=3, channel=0, data=[64, 127]),
   midi.NoteOnEvent(tick=14, channel=0, data=[56, 69]),
   midi.NoteOnEvent(tick=10, channel=0, data=[54, 0]),
   midi.NoteOnEvent(tick=15, channel=0, data=[57, 77]),
   midi.NoteOnEvent(tick=5, channel=0, data=[56, 0]),
   midi.NoteOnEvent(tick=15, channel=0, data=[57, 0]),
   midi.NoteOnEvent(tick=9, channel=0, data=[59, 69]),
   midi.NoteOnEvent(tick=1, channel=0, data=[69, 0]),
   midi.NoteOnEvent(tick=20, channel=0, data=[61, 69]),
   midi.NoteOnEvent(tick=3, channel=0, data=[59, 0]),
   midi.NoteOnEvent(tick=12, channel=0, data=[73, 0]),
   midi.NoteOnEvent(tick=7, channel=0, data=[63, 54]),
   midi.NoteOnEvent(tick=3, channel=0, data=[61, 0]),
   midi.NoteOnEvent(tick=16, channel=0, data=[78, 0]),
   midi.NoteOnEvent(tick=9, channel=0, data=[64, 81]),
   midi.NoteOnEvent(tick=2, channel=0, data=[63, 0]),
   midi.NoteOnEvent(tick=14, channel=0, data=[64, 0]),
   midi.NoteOnEvent(tick=19, channel=0, data=[71, 81]),
   midi.NoteOnEvent(tick=0, channel=0, data=[75, 77]),
   midi.NoteOnEvent(tick=0, channel=0, data=[69, 77]),
   midi.ControlChangeEvent(tick=4, channel=0, data=[64, 0]),
   midi.NoteOnEvent(tick=16, channel=0, data=[52, 73]),
   midi.NoteOnEvent(tick=10, channel=0, data=[69, 0]),
   midi.NoteOnEvent(tick=2, channel=0, data=[71, 0]),
   midi.ControlChangeEvent(tick=7, channel=0, data=[64, 127]),
   midi.NoteOnEvent(tick=7, channel=0, data=[54, 73]),
   midi.NoteOnEvent(tick=1, channel=0, data=[75, 0]),
   midi.NoteOnEvent(tick=11, channel=0, data=[52, 0]),
   midi.NoteOnEvent(tick=9, channel=0, data=[56, 66]),
   midi.NoteOnEvent(tick=9, channel=0, data=[54, 0]),
   midi.NoteOnEvent(tick=18, channel=0, data=[57, 73]),
   midi.NoteOnEvent(tick=3, channel=0, data=[56, 0]),
   midi.NoteOnEvent(tick=17, channel=0, data=[57, 0]),
   midi.NoteOnEvent(tick=5, channel=0, data=[59, 66]),
   midi.NoteOnEvent(tick=23, channel=0, data=[61, 73]),
   midi.NoteOnEvent(tick=4, channel=0, data=[59, 0]),
   midi.NoteOnEvent(tick=15, channel=0, data=[63, 69]),
   midi.NoteOnEvent(tick=7, channel=0, data=[61, 0]),
   midi.NoteOnEvent(tick=24, channel=0, data=[63, 0]),
   midi.NoteOnEvent(tick=4, channel=0, data=[64, 81]),
   midi.NoteOnEvent(tick=2, channel=0, data=[78, 77]),
   midi.ControlChangeEvent(tick=0, channel=0, data=[64, 0]),
   midi.NoteOnEvent(tick=1, channel=0, data=[81, 86]),
   midi.NoteOnEvent(tick=1, channel=0, data=[83, 81]),
   midi.NoteOnEvent(tick=24, channel=0, data=[64, 0]),
   midi.NoteOnEvent(tick=0, channel=0, data=[66, 69]),
   midi.ControlChangeEvent(tick=8, channel=0, data=[64, 127]),
   midi.NoteOnEvent(tick=1, channel=0, data=[78, 0]),
   midi.NoteOnEvent(tick=3, channel=0, data=[83, 0]),
   midi.NoteOnEvent(tick=2, channel=0, data=[81, 0]),
   midi.NoteOnEvent(tick=8, channel=0, data=[68, 66]),
   midi.NoteOnEvent(tick=9, channel=0, data=[66, 0]),
   midi.NoteOnEvent(tick=11, channel=0, data=[69, 66]),
   midi.NoteOnEvent(tick=8, channel=0, data=[68, 0]),
   midi.NoteOnEvent(tick=12, channel=0, data=[69, 0]),
   midi.NoteOnEvent(tick=5, channel=0, data=[71, 69]),
   midi.NoteOnEvent(tick=9, channel=0, data=[78, 81]),
   midi.NoteOnEvent(tick=2, channel=0, data=[81, 86]),
   midi.NoteOnEvent(tick=1, channel=0, data=[83, 77]),
   midi.NoteOnEvent(tick=10, channel=0, data=[78, 0]),
   midi.NoteOnEvent(tick=1, channel=0, data=[71, 0]),
   midi.NoteOnEvent(tick=4, channel=0, data=[81, 0]),
   midi.NoteOnEvent(tick=0, channel=0, data=[73, 77]),
   midi.NoteOnEvent(tick=3, channel=0, data=[83, 0]),
   midi.NoteOnEvent(tick=23, channel=0, data=[73, 0]),
   midi.NoteOnEvent(tick=6, channel=0, data=[74, 86]),
   midi.NoteOnEvent(tick=17, channel=0, data=[74, 0]),
   midi.NoteOnEvent(tick=3, channel=0, data=[75, 77]),
   midi.NoteOnEvent(tick=26, channel=0, data=[75, 0]),
   midi.ControlChangeEvent(tick=4, channel=0, data=[64, 0]),
   midi.NoteOnEvent(tick=1, channel=0, data=[76, 91]),
   midi.NoteOnEvent(tick=1, channel=0, data=[80, 81]),
   midi.NoteOnEvent(tick=1, channel=0, data=[83, 91]),
   midi.NoteOnEvent(tick=150, channel=0, data=[83, 0]),
   midi.NoteOnEvent(tick=8, channel=0, data=[85, 69]),
   midi.NoteOnEvent(tick=11, channel=0, data=[85, 0]),
   midi.NoteOnEvent(tick=14, channel=0, data=[87, 57]),
   midi.NoteOnEvent(tick=12, channel=0, data=[87, 0]),
   midi.NoteOnEvent(tick=16, channel=0, data=[88, 77]),
   midi.NoteOnEvent(tick=130, channel=0, data=[88, 0]),
   midi.NoteOnEvent(tick=5, channel=0, data=[76, 0]),
   midi.NoteOnEvent(tick=5, channel=0, data=[80, 0]),
   midi.NoteOnEvent(tick=80, channel=0, data=[80, 66]),
   midi.NoteOnEvent(tick=17, channel=0, data=[80, 0]),
   midi.NoteOnEvent(tick=6, channel=0, data=[76, 66]),
   midi.NoteOnEvent(tick=18, channel=0, data=[76, 0]),
   midi.NoteOnEvent(tick=7, channel=0, data=[81, 69]),
   midi.NoteOnEvent(tick=20, channel=0, data=[81, 0]),
   midi.NoteOnEvent(tick=4, channel=0, data=[78, 47]),
   midi.NoteOnEvent(tick=20, channel=0, data=[78, 0]),
   midi.NoteOnEvent(tick=2, channel=0, data=[83, 57]),
   midi.NoteOnEvent(tick=26, channel=0, data=[83, 0]),
   midi.NoteOnEvent(tick=2, channel=0, data=[80, 57]),
   midi.NoteOnEvent(tick=17, channel=0, data=[80, 0]),
   midi.NoteOnEvent(tick=3, channel=0, data=[85, 54]),
   midi.NoteOnEvent(tick=24, channel=0, data=[81, 57]),
   midi.NoteOnEvent(tick=4, channel=0, data=[85, 0]),
   midi.NoteOnEvent(tick=13, channel=0, data=[81, 0]),
   midi.NoteOnEvent(tick=4, channel=0, data=[68, 59]),
   midi.NoteOnEvent(tick=4, channel=0, data=[83, 69]),
   midi.NoteOnEvent(tick=21, channel=0, data=[68, 0]),
   midi.NoteOnEvent(tick=2, channel=0, data=[64, 69]),
   midi.NoteOnEvent(tick=7, channel=0, data=[83, 0]),
   midi.NoteOnEvent(tick=19, channel=0, data=[69, 69]),
   midi.NoteOnEvent(tick=12, channel=0, data=[64, 0]),
   midi.NoteOnEvent(tick=10, channel=0, data=[66, 59]),
   midi.NoteOnEvent(tick=8, channel=0, data=[69, 0]),
   midi.NoteOnEvent(tick=21, channel=0, data=[66, 0]),
   midi.NoteOnEvent(tick=1, channel=0, data=[71, 66]),
   midi.NoteOnEvent(tick=16, channel=0, data=[71, 0]),
   midi.NoteOnEvent(tick=5, channel=0, data=[68, 57]),
   midi.NoteOnEvent(tick=27, channel=0, data=[73, 69]),
   midi.NoteOnEvent(tick=4, channel=0, data=[68, 0]),
   midi.NoteOnEvent(tick=13, channel=0, data=[69, 73]),
   midi.NoteOnEvent(tick=2, channel=0, data=[73, 0]),
   midi.NoteOnEvent(tick=25, channel=0, data=[56, 66]),
   midi.NoteOnEvent(tick=7, channel=0, data=[71, 66]),
   midi.NoteOnEvent(tick=5, channel=0, data=[69, 0]),
   midi.NoteOnEvent(tick=15, channel=0, data=[52, 77]),
   midi.NoteOnEvent(tick=1, channel=0, data=[56, 0]),
   midi.NoteOnEvent(tick=17, channel=0, data=[52, 0]),
   midi.NoteOnEvent(tick=5, channel=0, data=[71, 0]),
   midi.NoteOnEvent(tick=1, channel=0, data=[57, 69]),
   midi.NoteOnEvent(tick=25, channel=0, data=[54, 66]),
   midi.NoteOnEvent(tick=2, channel=0, data=[57, 0]),
   midi.NoteOnEvent(tick=23, channel=0, data=[59, 66]),
   midi.NoteOnEvent(tick=1, channel=0, data=[54, 0]),
   midi.NoteOnEvent(tick=24, channel=0, data=[56, 73]),
   midi.NoteOnEvent(tick=2, channel=0, data=[59, 0]),
   midi.NoteOnEvent(tick=20, channel=0, data=[61, 69]),
   midi.NoteOnEvent(tick=2, channel=0, data=[56, 0]),
   midi.NoteOnEvent(tick=28, channel=0, data=[57, 66]),
   midi.NoteOnEvent(tick=6, channel=0, data=[61, 0]),
   midi.NoteOnEvent(tick=6, channel=0, data=[44, 69]),
   midi.NoteOnEvent(tick=8, channel=0, data=[57, 0]),
   midi.NoteOnEvent(tick=6, channel=0, data=[59, 73]),
   midi.NoteOnEvent(tick=20, channel=0, data=[44, 0]),
   midi.NoteOnEvent(tick=0, channel=0, data=[40, 73]),
   midi.NoteOnEvent(tick=20, channel=0, data=[45, 81]),
   midi.NoteOnEvent(tick=8, channel=0, data=[40, 0]),
   midi.NoteOnEvent(tick=18, channel=0, data=[59, 0]),
   midi.NoteOnEvent(tick=0, channel=0, data=[42, 69]),
   midi.NoteOnEvent(tick=7, channel=0, data=[45, 0]),
   midi.NoteOnEvent(tick=17, channel=0, data=[47, 77]),
   midi.NoteOnEvent(tick=4, channel=0, data=[42, 0]),
   midi.NoteOnEvent(tick=17, channel=0, data=[47, 0]),
   midi.NoteOnEvent(tick=3, channel=0, data=[44, 54]),
   midi.NoteOnEvent(tick=26, channel=0, data=[49, 66]),
   midi.NoteOnEvent(tick=3, channel=0, data=[44, 0]),
   midi.NoteOnEvent(tick=17, channel=0, data=[46, 73]),
   midi.NoteOnEvent(tick=6, channel=0, data=[49, 0]),
   midi.NoteOnEvent(tick=26, channel=0, data=[47, 91]),
   midi.NoteOnEvent(tick=4, channel=0, data=[46, 0]),
   midi.ControlChangeEvent(tick=48, channel=0, data=[64, 127]),
   midi.NoteOnEvent(tick=3, channel=0, data=[59, 69]),
   midi.NoteOnEvent(tick=54, channel=0, data=[68, 73]),
   midi.NoteOnEvent(tick=45, channel=0, data=[68, 0]),
   midi.NoteOnEvent(tick=6, channel=0, data=[56, 54]),
   midi.NoteOnEvent(tick=2, channel=0, data=[64, 66]),
   midi.ControlChangeEvent(tick=10, channel=0, data=[64, 0]),
   midi.NoteOnEvent(tick=7, channel=0, data=[59, 0]),
   midi.NoteOnEvent(tick=30, channel=0, data=[64, 0]),
   midi.NoteOnEvent(tick=8, channel=0, data=[51, 50]),
   midi.NoteOnEvent(tick=1, channel=0, data=[56, 0]),
   midi.NoteOnEvent(tick=2, channel=0, data=[69, 45]),
   midi.NoteOnEvent(tick=48, channel=0, data=[54, 50]),
   midi.NoteOnEvent(tick=2, channel=0, data=[66, 54]),
   midi.NoteOnEvent(tick=4, channel=0, data=[69, 0]),
   midi.ControlChangeEvent(tick=12, channel=0, data=[64, 127]),
   midi.NoteOnEvent(tick=27, channel=0, data=[47, 0]),
   midi.NoteOnEvent(tick=0, channel=0, data=[51, 0]),
   midi.NoteOnEvent(tick=8, channel=0, data=[66, 0]),
   midi.NoteOnEvent(tick=1, channel=0, data=[54, 0]),
   midi.NoteOnEvent(tick=1, channel=0, data=[57, 52]),
   midi.NoteOnEvent(tick=4, channel=0, data=[63, 73]),
   midi.NoteOnEvent(tick=25, channel=0, data=[57, 0]),
   midi.NoteOnEvent(tick=1, channel=0, data=[63, 0]),
   midi.NoteOnEvent(tick=20, channel=0, data=[71, 73]),
   midi.NoteOnEvent(tick=17, channel=0, data=[71, 0]),
   midi.NoteOnEvent(tick=20, channel=0, data=[47, 69]),
   midi.NoteOnEvent(tick=10, channel=0, data=[52, 77]),
   midi.ControlChangeEvent(tick=10, channel=0, data=[64, 0]),
   midi.NoteOnEvent(tick=2, channel=0, data=[47, 0]),
   midi.NoteOnEvent(tick=9, channel=0, data=[56, 77]),
   midi.NoteOnEvent(tick=8, channel=0, data=[73, 69]),
   midi.NoteOnEvent(tick=4, channel=0, data=[59, 59]),
   midi.NoteOnEvent(tick=1, channel=0, data=[52, 0]),
   midi.NoteOnEvent(tick=10, channel=0, data=[73, 0]),
   midi.NoteOnEvent(tick=0, channel=0, data=[71, 69]),
   midi.NoteOnEvent(tick=4, channel=0, data=[56, 0]),
   midi.ControlChangeEvent(tick=2, channel=0, data=[64, 127]),
   midi.NoteOnEvent(tick=13, channel=0, data=[71, 0]),
   midi.NoteOnEvent(tick=2, channel=0, data=[70, 66]),
   midi.NoteOnEvent(tick=13, channel=0, data=[70, 0]),
   midi.NoteOnEvent(tick=6, channel=0, data=[71, 66]),
   midi.NoteOnEvent(tick=34, channel=0, data=[80, 77]),
   midi.NoteOnEvent(tick=16, channel=0, data=[71, 0]),
   midi.NoteOnEvent(tick=10, channel=0, data=[80, 0]),
   midi.NoteOnEvent(tick=2, channel=0, data=[59, 0]),
   midi.NoteOnEvent(tick=23, channel=0, data=[76, 86]),
   midi.NoteOnEvent(tick=3, channel=0, data=[68, 59]),
   midi.NoteOnEvent(tick=0, channel=0, data=[59, 6]),
   midi.NoteOnEvent(tick=30, channel=0, data=[76, 0]),
   midi.NoteOnEvent(tick=2, channel=0, data=[68, 0]),
   midi.NoteOnEvent(tick=17, channel=0, data=[63, 69]),
   midi.NoteOnEvent(tick=6, channel=0, data=[81, 73]),
   midi.ControlChangeEvent(tick=11, channel=0, data=[64, 0]),
   midi.NoteOnEvent(tick=39, channel=0, data=[66, 54]),
   midi.NoteOnEvent(tick=1, channel=0, data=[78, 73]),
   midi.ControlChangeEvent(tick=4, channel=0, data=[64, 127]),
   midi.NoteOnEvent(tick=1, channel=0, data=[81, 0]),
   midi.NoteOnEvent(tick=46, channel=0, data=[66, 0]),
   midi.NoteOnEvent(tick=1, channel=0, data=[78, 0]),
   midi.NoteOnEvent(tick=0, channel=0, data=[69, 66]),
   midi.NoteOnEvent(tick=4, channel=0, data=[75, 81]),
   midi.NoteOnEvent(tick=14, channel=0, data=[63, 0]),
   midi.NoteOnEvent(tick=3, channel=0, data=[69, 0]),
   midi.NoteOnEvent(tick=17, channel=0, data=[59, 0]),
   midi.NoteOnEvent(tick=6, channel=0, data=[75, 0]),
   midi.NoteOnEvent(tick=8, channel=0, data=[83, 91]),
   midi.NoteOnEvent(tick=18, channel=0, data=[83, 0]),
   midi.ControlChangeEvent(tick=30, channel=0, data=[64, 0]),
   midi.NoteOnEvent(tick=1, channel=0, data=[64, 73]),
   midi.NoteOnEvent(tick=3, channel=0, data=[68, 59]),
   midi.NoteOnEvent(tick=8, channel=0, data=[71, 91]),
   midi.NoteOnEvent(tick=1, channel=0, data=[83, 91]),
   midi.ControlChangeEvent(tick=25, channel=0, data=[64, 127]),
   midi.NoteOnEvent(tick=4, channel=0, data=[64, 0]),
   midi.ControlChangeEvent(tick=68, channel=0, data=[64, 0]),
   midi.NoteOnEvent(tick=10, channel=0, data=[56, 54]),
   midi.ControlChangeEvent(tick=30, channel=0, data=[64, 127]),
   midi.NoteOnEvent(tick=20, channel=0, data=[71, 0]),
   midi.NoteOnEvent(tick=3, channel=0, data=[81, 81]),
   midi.NoteOnEvent(tick=5, channel=0, data=[56, 0]),
   midi.NoteOnEvent(tick=2, channel=0, data=[83, 0]),
   midi.NoteOnEvent(tick=16, channel=0, data=[81, 0]),
   midi.NoteOnEvent(tick=1, channel=0, data=[80, 66]),
   midi.ControlChangeEvent(tick=21, channel=0, data=[64, 0]),
   midi.NoteOnEvent(tick=4, channel=0, data=[57, 69]),
   midi.NoteOnEvent(tick=1, channel=0, data=[78, 73]),
   midi.NoteOnEvent(tick=2, channel=0, data=[73, 73]),
   midi.NoteOnEvent(tick=1, channel=0, data=[80, 0]),
   midi.NoteOnEvent(tick=23, channel=0, data=[78, 0]),
   midi.ControlChangeEvent(tick=5, channel=0, data=[64, 127]),
   midi.NoteOnEvent(tick=24, channel=0, data=[76, 77]),
   midi.NoteOnEvent(tick=2, channel=0, data=[73, 0]),
   midi.NoteOnEvent(tick=36, channel=0, data=[76, 0]),
   midi.NoteOnEvent(tick=6, channel=0, data=[57, 0]),
   midi.NoteOnEvent(tick=6, channel=0, data=[75, 81]),
   midi.NoteOnEvent(tick=2, channel=0, data=[68, 0]),
   midi.NoteOnEvent(tick=0, channel=0, data=[58, 66]),
   midi.NoteOnEvent(tick=24, channel=0, data=[75, 0]),
   midi.NoteOnEvent(tick=26, channel=0, data=[73, 77]),
   midi.NoteOnEvent(tick=12, channel=0, data=[73, 0]),
   midi.NoteOnEvent(tick=38, channel=0, data=[59, 59]),
   midi.ControlChangeEvent(tick=0, channel=0, data=[64, 0]),
   midi.NoteOnEvent(tick=5, channel=0, data=[68, 69]),
   midi.NoteOnEvent(tick=1, channel=0, data=[58, 0]),
   midi.NoteOnEvent(tick=0, channel=0, data=[71, 77]),
   midi.NoteOnEvent(tick=2, channel=0, data=[64, 69]),
   midi.ControlChangeEvent(tick=34, channel=0, data=[64, 127]),
   midi.NoteOnEvent(tick=16, channel=0, data=[68, 0]),
   midi.NoteOnEvent(tick=37, channel=0, data=[59, 0]),
   midi.NoteOnEvent(tick=20, channel=0, data=[67, 77]),
   midi.NoteOnEvent(tick=16, channel=0, data=[64, 0]),
   midi.NoteOnEvent(tick=4, channel=0, data=[71, 0]),
   midi.ControlChangeEvent(tick=75, channel=0, data=[64, 0]),
   midi.NoteOnEvent(tick=7, channel=0, data=[47, 45]),
   midi.NoteOnEvent(tick=1, channel=0, data=[58, 35]),
   midi.NoteOnEvent(tick=0, channel=0, data=[66, 52]),
   midi.ControlChangeEvent(tick=32, channel=0, data=[64, 127]),
   midi.NoteOnEvent(tick=14, channel=0, data=[58, 0]),
   midi.NoteOnEvent(tick=24, channel=0, data=[67, 0]),
   midi.NoteOnEvent(tick=20, channel=0, data=[66, 0]),
   midi.NoteOnEvent(tick=11, channel=0, data=[57, 54]),
   midi.NoteOnEvent(tick=3, channel=0, data=[63, 66]),
   midi.NoteOnEvent(tick=25, channel=0, data=[63, 0]),
   midi.NoteOnEvent(tick=5, channel=0, data=[57, 0]),
   midi.NoteOnEvent(tick=26, channel=0, data=[47, 0]),
   midi.NoteOnEvent(tick=43, channel=0, data=[52, 59]),
   midi.ControlChangeEvent(tick=1, channel=0, data=[64, 0]),
   midi.NoteOnEvent(tick=1, channel=0, data=[56, 52]),
   midi.NoteOnEvent(tick=2, channel=0, data=[71, 73]),
   midi.NoteOnEvent(tick=1, channel=0, data=[64, 77]),
   midi.NoteOnEvent(tick=3, channel=0, data=[59, 59]),
   midi.ControlChangeEvent(tick=30, channel=0, data=[64, 127]),
   midi.NoteOnEvent(tick=7, channel=0, data=[52, 0]),
   midi.NoteOnEvent(tick=66, channel=0, data=[44, 59]),
   midi.ControlChangeEvent(tick=2, channel=0, data=[64, 0]),
   midi.NoteOnEvent(tick=26, channel=0, data=[59, 0]),
   midi.ControlChangeEvent(tick=8, channel=0, data=[64, 127]),
   midi.NoteOnEvent(tick=1, channel=0, data=[64, 0]),
   midi.NoteOnEvent(tick=10, channel=0, data=[71, 0]),
   midi.NoteOnEvent(tick=2, channel=0, data=[69, 73]),
   midi.NoteOnEvent(tick=16, channel=0, data=[44, 0]),
   midi.NoteOnEvent(tick=4, channel=0, data=[69, 0]),
   midi.NoteOnEvent(tick=2, channel=0, data=[68, 54]),
   midi.ControlChangeEvent(tick=19, channel=0, data=[64, 0]),
   midi.NoteOnEvent(tick=4, channel=0, data=[45, 73]),
   midi.NoteOnEvent(tick=0, channel=0, data=[66, 73]),
   midi.NoteOnEvent(tick=2, channel=0, data=[61, 59]),
   midi.NoteOnEvent(tick=2, channel=0, data=[68, 0]),
   midi.NoteOnEvent(tick=24, channel=0, data=[66, 0]),
   midi.ControlChangeEvent(tick=2, channel=0, data=[64, 127]),
   midi.NoteOnEvent(tick=24, channel=0, data=[64, 73]),
   midi.NoteOnEvent(tick=1, channel=0, data=[61, 0]),
   midi.NoteOnEvent(tick=37, channel=0, data=[45, 0]),
   midi.NoteOnEvent(tick=2, channel=0, data=[56, 0]),
   midi.NoteOnEvent(tick=0, channel=0, data=[64, 0]),
   midi.NoteOnEvent(tick=5, channel=0, data=[46, 69]),
   midi.NoteOnEvent(tick=2, channel=0, data=[63, 73]),
   midi.NoteOnEvent(tick=23, channel=0, data=[63, 0]),
   midi.NoteOnEvent(tick=23, channel=0, data=[61, 69]),
   midi.NoteOnEvent(tick=11, channel=0, data=[61, 0]),
   midi.NoteOnEvent(tick=33, channel=0, data=[46, 0]),
   midi.NoteOnEvent(tick=5, channel=0, data=[47, 57]),
   midi.ControlChangeEvent(tick=6, channel=0, data=[64, 0]),
   midi.NoteOnEvent(tick=0, channel=0, data=[56, 57]),
   midi.NoteOnEvent(tick=1, channel=0, data=[59, 57]),
   midi.NoteOnEvent(tick=1, channel=0, data=[52, 59]),
   midi.ControlChangeEvent(tick=40, channel=0, data=[64, 127]),
   midi.NoteOnEvent(tick=12, channel=0, data=[56, 0]),
   midi.NoteOnEvent(tick=55, channel=0, data=[55, 66]),
   midi.NoteOnEvent(tick=19, channel=0, data=[52, 0]),
   midi.NoteOnEvent(tick=74, channel=0, data=[35, 52]),
   midi.ControlChangeEvent(tick=2, channel=0, data=[64, 0]),
   midi.NoteOnEvent(tick=11, channel=0, data=[54, 47]),
   midi.ControlChangeEvent(tick=40, channel=0, data=[64, 127]),
   midi.NoteOnEvent(tick=26, channel=0, data=[55, 0]),
   midi.NoteOnEvent(tick=25, channel=0, data=[59, 0]),
   midi.NoteOnEvent(tick=3, channel=0, data=[54, 0]),
   midi.NoteOnEvent(tick=1, channel=0, data=[51, 59]),
   midi.NoteOnEvent(tick=2, channel=0, data=[35, 0]),
   midi.NoteOnEvent(tick=18, channel=0, data=[51, 0]),
   midi.NoteOnEvent(tick=3, channel=0, data=[47, 0]),
   midi.NoteOnEvent(tick=69, channel=0, data=[52, 59]),
   midi.NoteOnEvent(tick=0, channel=0, data=[55, 59]),
   midi.ControlChangeEvent(tick=12, channel=0, data=[64, 0]),
   midi.NoteOnEvent(tick=17, channel=0, data=[36, 66]),
   midi.NoteOnEvent(tick=20, channel=0, data=[38, 69]),
   midi.NoteOnEvent(tick=9, channel=0, data=[36, 0]),
   midi.NoteOnEvent(tick=15, channel=0, data=[40, 66]),
   midi.NoteOnEvent(tick=7, channel=0, data=[38, 0]),
   midi.NoteOnEvent(tick=18, channel=0, data=[52, 0]),
   midi.NoteOnEvent(tick=0, channel=0, data=[41, 77]),
   midi.NoteOnEvent(tick=4, channel=0, data=[40, 0]),
   midi.NoteOnEvent(tick=14, channel=0, data=[55, 0]),
   midi.NoteOnEvent(tick=4, channel=0, data=[41, 0]),
   midi.NoteOnEvent(tick=7, channel=0, data=[43, 59]),
   midi.NoteOnEvent(tick=24, channel=0, data=[45, 73]),
   midi.NoteOnEvent(tick=1, channel=0, data=[43, 0]),
   midi.NoteOnEvent(tick=22, channel=0, data=[47, 66]),
   midi.NoteOnEvent(tick=2, channel=0, data=[45, 0]),
   midi.NoteOnEvent(tick=23, channel=0, data=[60, 73]),
   midi.NoteOnEvent(tick=1, channel=0, data=[47, 0]),
   midi.NoteOnEvent(tick=0, channel=0, data=[55, 73]),
   midi.NoteOnEvent(tick=1, channel=0, data=[52, 66]),
   midi.NoteOnEvent(tick=0, channel=0, data=[48, 81]),
   midi.NoteOnEvent(tick=9, channel=0, data=[48, 0]),
   midi.NoteOnEvent(tick=45, channel=0, data=[48, 69]),
   midi.NoteOnEvent(tick=9, channel=0, data=[48, 0]),
   midi.NoteOnEvent(tick=40, channel=0, data=[48, 73]),
   midi.ControlChangeEvent(tick=8, channel=0, data=[64, 127]),
   midi.NoteOnEvent(tick=2, channel=0, data=[48, 0]),
   midi.NoteOnEvent(tick=39, channel=0, data=[48, 73]),
   midi.NoteOnEvent(tick=1, channel=0, data=[55, 0]),
   midi.NoteOnEvent(tick=3, channel=0, data=[52, 0]),
   midi.NoteOnEvent(tick=10, channel=0, data=[48, 0]),
   midi.NoteOnEvent(tick=11, channel=0, data=[60, 0]),
   midi.NoteOnEvent(tick=22, channel=0, data=[50, 66]),
   midi.NoteOnEvent(tick=4, channel=0, data=[53, 69]),
   midi.NoteOnEvent(tick=1, channel=0, data=[59, 73]),
   midi.ControlChangeEvent(tick=2, channel=0, data=[64, 0]),
   midi.NoteOnEvent(tick=24, channel=0, data=[50, 0]),
   midi.NoteOnEvent(tick=0, channel=0, data=[36, 77]),
   midi.NoteOnEvent(tick=26, channel=0, data=[38, 73]),
   midi.ControlChangeEvent(tick=2, channel=0, data=[64, 127]),
   midi.NoteOnEvent(tick=7, channel=0, data=[53, 0]),
   midi.NoteOnEvent(tick=3, channel=0, data=[36, 0]),
   midi.NoteOnEvent(tick=12, channel=0, data=[40, 69]),
   midi.NoteOnEvent(tick=6, channel=0, data=[59, 0]),
   midi.NoteOnEvent(tick=1, channel=0, data=[38, 0]),
   midi.NoteOnEvent(tick=15, channel=0, data=[41, 81]),
   midi.NoteOnEvent(tick=4, channel=0, data=[40, 0]),
   midi.NoteOnEvent(tick=19, channel=0, data=[41, 0]),
   midi.NoteOnEvent(tick=7, channel=0, data=[43, 69]),
   midi.NoteOnEvent(tick=23, channel=0, data=[43, 0]),
   midi.NoteOnEvent(tick=0, channel=0, data=[45, 77]),
   midi.NoteOnEvent(tick=23, channel=0, data=[45, 0]),
   midi.NoteOnEvent(tick=1, channel=0, data=[47, 59]),
   midi.ControlChangeEvent(tick=20, channel=0, data=[64, 0]),
   midi.NoteOnEvent(tick=3, channel=0, data=[47, 0]),
   midi.NoteOnEvent(tick=0, channel=0, data=[48, 86]),
   midi.NoteOnEvent(tick=2, channel=0, data=[55, 69]),
   midi.NoteOnEvent(tick=0, channel=0, data=[65, 69]),
   midi.NoteOnEvent(tick=0, channel=0, data=[62, 73]),
   midi.NoteOnEvent(tick=1, channel=0, data=[59, 69]),
   midi.NoteOnEvent(tick=7, channel=0, data=[48, 0]),
   midi.NoteOnEvent(tick=43, channel=0, data=[48, 73]),
   midi.NoteOnEvent(tick=10, channel=0, data=[48, 0]),
   midi.NoteOnEvent(tick=40, channel=0, data=[48, 69]),
   midi.NoteOnEvent(tick=9, channel=0, data=[48, 0]),
   midi.ControlChangeEvent(tick=3, channel=0, data=[64, 127]),
   midi.NoteOnEvent(tick=13, channel=0, data=[55, 0]),
   midi.NoteOnEvent(tick=11, channel=0, data=[59, 0]),
   midi.NoteOnEvent(tick=5, channel=0, data=[62, 0]),
   midi.NoteOnEvent(tick=6, channel=0, data=[48, 73]),
   midi.NoteOnEvent(tick=1, channel=0, data=[65, 0]),
   midi.NoteOnEvent(tick=10, channel=0, data=[48, 0]),
   midi.ControlChangeEvent(tick=36, channel=0, data=[64, 0]),
   midi.NoteOnEvent(tick=3, channel=0, data=[48, 81]),
   midi.NoteOnEvent(tick=3, channel=0, data=[55, 69]),
   midi.NoteOnEvent(tick=26, channel=0, data=[64, 81]),
   midi.ControlChangeEvent(tick=10, channel=0, data=[64, 127]),
   midi.NoteOnEvent(tick=6, channel=0, data=[64, 0]),
   midi.NoteOnEvent(tick=6, channel=0, data=[65, 73]),
   midi.NoteOnEvent(tick=15, channel=0, data=[55, 0]),
   midi.NoteOnEvent(tick=4, channel=0, data=[65, 0]),
   midi.NoteOnEvent(tick=5, channel=0, data=[67, 69]),
   midi.NoteOnEvent(tick=9, channel=0, data=[67, 0]),
   midi.NoteOnEvent(tick=12, channel=0, data=[69, 86]),
   midi.NoteOnEvent(tick=17, channel=0, data=[69, 0]),
   midi.NoteOnEvent(tick=6, channel=0, data=[71, 73]),
   midi.NoteOnEvent(tick=18, channel=0, data=[71, 0]),
   midi.NoteOnEvent(tick=2, channel=0, data=[72, 77]),
   midi.NoteOnEvent(tick=16, channel=0, data=[72, 0]),
   midi.NoteOnEvent(tick=8, channel=0, data=[74, 69]),
   midi.ControlChangeEvent(tick=25, channel=0, data=[64, 0]),
   midi.NoteOnEvent(tick=3, channel=0, data=[60, 77]),
   midi.NoteOnEvent(tick=1, channel=0, data=[74, 0]),
   midi.NoteOnEvent(tick=1, channel=0, data=[76, 77]),
   midi.NoteOnEvent(tick=19, channel=0, data=[76, 0]),
   midi.ControlChangeEvent(tick=6, channel=0, data=[64, 127]),
   midi.NoteOnEvent(tick=29, channel=0, data=[77, 81]),
   midi.NoteOnEvent(tick=16, channel=0, data=[77, 0]),
   midi.NoteOnEvent(tick=0, channel=0, data=[60, 0]),
   midi.NoteOnEvent(tick=2, channel=0, data=[79, 77]),
   midi.NoteOnEvent(tick=21, channel=0, data=[79, 0]),
   midi.NoteOnEvent(tick=2, channel=0, data=[81, 77]),
   midi.NoteOnEvent(tick=14, channel=0, data=[81, 0]),
   midi.NoteOnEvent(tick=11, channel=0, data=[83, 81]),
   midi.NoteOnEvent(tick=17, channel=0, data=[83, 0]),
   midi.NoteOnEvent(tick=5, channel=0, data=[84, 81]),
   midi.NoteOnEvent(tick=18, channel=0, data=[84, 0]),
   midi.NoteOnEvent(tick=4, channel=0, data=[86, 73]),
   midi.NoteOnEvent(tick=18, channel=0, data=[86, 0]),
   midi.NoteOnEvent(tick=11, channel=0, data=[88, 91]),
   midi.ControlChangeEvent(tick=1, channel=0, data=[64, 0]),
   midi.NoteOnEvent(tick=2, channel=0, data=[58, 73]),
   midi.NoteOnEvent(tick=32, channel=0, data=[88, 0]),
   midi.ControlChangeEvent(tick=2, channel=0, data=[64, 127]),
   midi.NoteOnEvent(tick=59, channel=0, data=[75, 81]),
   midi.NoteOnEvent(tick=20, channel=0, data=[75, 0]),
   midi.NoteOnEvent(tick=5, channel=0, data=[76, 77]),
   midi.NoteOnEvent(tick=3, channel=0, data=[48, 0]),
   midi.NoteOnEvent(tick=21, channel=0, data=[76, 0]),
   midi.NoteOnEvent(tick=1, channel=0, data=[75, 81]),
   midi.NoteOnEvent(tick=3, channel=0, data=[58, 0]),
   midi.NoteOnEvent(tick=13, channel=0, data=[75, 0]),
   midi.NoteOnEvent(tick=0, channel=0, data=[76, 57]),
   midi.NoteOnEvent(tick=9, channel=0, data=[76, 0]),
   midi.ControlChangeEvent(tick=10, channel=0, data=[64, 0]),
   midi.NoteOnEvent(tick=12, channel=0, data=[48, 69]),
   midi.NoteOnEvent(tick=11, channel=0, data=[63, 77]),
   midi.ControlChangeEvent(tick=14, channel=0, data=[64, 127]),
   midi.NoteOnEvent(tick=10, channel=0, data=[63, 0]),
   midi.NoteOnEvent(tick=0, channel=0, data=[64, 91]),
   midi.NoteOnEvent(tick=26, channel=0, data=[64, 0]),
   midi.NoteOnEvent(tick=3, channel=0, data=[63, 73]),
   midi.NoteOnEvent(tick=17, channel=0, data=[63, 0]),
   midi.NoteOnEvent(tick=1, channel=0, data=[64, 69]),
   midi.NoteOnEvent(tick=24, channel=0, data=[64, 0]),
   midi.NoteOnEvent(tick=2, channel=0, data=[63, 69]),
   midi.NoteOnEvent(tick=20, channel=0, data=[63, 0]),
   midi.NoteOnEvent(tick=0, channel=0, data=[64, 69]),
   midi.NoteOnEvent(tick=20, channel=0, data=[64, 0]),
   midi.NoteOnEvent(tick=4, channel=0, data=[67, 77]),
   midi.NoteOnEvent(tick=2, channel=0, data=[48, 0]),
   midi.NoteOnEvent(tick=16, channel=0, data=[64, 59]),
   midi.NoteOnEvent(tick=11, channel=0, data=[67, 0]),
   midi.ControlChangeEvent(tick=18, channel=0, data=[64, 0]),
   midi.NoteOnEvent(tick=1, channel=0, data=[64, 0]),
   midi.NoteOnEvent(tick=0, channel=0, data=[63, 86]),
   midi.NoteOnEvent(tick=2, channel=0, data=[47, 73]),
   midi.NoteOnEvent(tick=4, channel=0, data=[59, 50]),
   midi.NoteOnEvent(tick=25, channel=0, data=[59, 0]),
   midi.NoteOnEvent(tick=0, channel=0, data=[47, 0]),
   midi.ControlChangeEvent(tick=3, channel=0, data=[64, 127]),
   midi.NoteOnEvent(tick=21, channel=0, data=[47, 59]),
   midi.NoteOnEvent(tick=19, channel=0, data=[47, 0]),
   midi.NoteOnEvent(tick=18, channel=0, data=[63, 0]),
   midi.NoteOnEvent(tick=9, channel=0, data=[59, 81]),
   midi.NoteOnEvent(tick=3, channel=0, data=[47, 77]),
   midi.NoteOnEvent(tick=16, channel=0, data=[47, 0]),
   midi.NoteOnEvent(tick=0, channel=0, data=[59, 0]),
   midi.NoteOnEvent(tick=32, channel=0, data=[47, 77]),
   midi.NoteOnEvent(tick=19, channel=0, data=[47, 0]),
   midi.ControlChangeEvent(tick=32, channel=0, data=[64, 0]),
   midi.NoteOnEvent(tick=0, channel=0, data=[47, 73]),
   midi.NoteOnEvent(tick=1, channel=0, data=[52, 69]),
   midi.NoteOnEvent(tick=4, channel=0, data=[58, 81]),
   midi.NoteOnEvent(tick=0, channel=0, data=[67, 91]),
   midi.NoteOnEvent(tick=1, channel=0, data=[61, 81]),
   midi.NoteOnEvent(tick=21, channel=0, data=[47, 0]),
   midi.ControlChangeEvent(tick=9, channel=0, data=[64, 127]),
   midi.NoteOnEvent(tick=21, channel=0, data=[47, 59]),
   midi.NoteOnEvent(tick=9, channel=0, data=[47, 0]),
   midi.NoteOnEvent(tick=43, channel=0, data=[47, 57]),
   midi.NoteOnEvent(tick=8, channel=0, data=[47, 0]),
   midi.NoteOnEvent(tick=31, channel=0, data=[58, 0]),
   midi.NoteOnEvent(tick=7, channel=0, data=[47, 69]),
   midi.NoteOnEvent(tick=10, channel=0, data=[47, 0]),
   midi.NoteOnEvent(tick=16, channel=0, data=[67, 0]),
   midi.NoteOnEvent(tick=12, channel=0, data=[61, 0]),
   midi.ControlChangeEvent(tick=9, channel=0, data=[64, 0]),
   midi.NoteOnEvent(tick=3, channel=0, data=[47, 69]),
   midi.NoteOnEvent(tick=1, channel=0, data=[51, 66]),
   midi.NoteOnEvent(tick=0, channel=0, data=[66, 77]),
   midi.NoteOnEvent(tick=1, channel=0, data=[52, 0]),
   midi.NoteOnEvent(tick=1, channel=0, data=[59, 73]),
   midi.NoteOnEvent(tick=18, channel=0, data=[47, 0]),
   midi.ControlChangeEvent(tick=14, channel=0, data=[64, 127]),
   midi.NoteOnEvent(tick=20, channel=0, data=[47, 52]),
   midi.NoteOnEvent(tick=13, channel=0, data=[47, 0]),
   midi.NoteOnEvent(tick=26, channel=0, data=[59, 0]),
   midi.NoteOnEvent(tick=11, channel=0, data=[63, 69]),
   midi.NoteOnEvent(tick=1, channel=0, data=[66, 0]),
   midi.NoteOnEvent(tick=2, channel=0, data=[47, 52]),
   midi.NoteOnEvent(tick=8, channel=0, data=[47, 0]),
   midi.NoteOnEvent(tick=39, channel=0, data=[47, 66]),
   midi.NoteOnEvent(tick=10, channel=0, data=[47, 0]),
   midi.NoteOnEvent(tick=8, channel=0, data=[51, 0]),
   midi.NoteOnEvent(tick=25, channel=0, data=[63, 0]),
   midi.ControlChangeEvent(tick=1, channel=0, data=[64, 0]),
   midi.NoteOnEvent(tick=4, channel=0, data=[47, 57]),
   midi.NoteOnEvent(tick=3, channel=0, data=[70, 59]),
   midi.NoteOnEvent(tick=0, channel=0, data=[55, 54]),
   midi.NoteOnEvent(tick=1, channel=0, data=[61, 59]),
   midi.NoteOnEvent(tick=19, channel=0, data=[47, 0]),
   midi.ControlChangeEvent(tick=9, channel=0, data=[64, 127]),
   midi.NoteOnEvent(tick=24, channel=0, data=[47, 52]),
   midi.NoteOnEvent(tick=9, channel=0, data=[47, 0]),
   midi.NoteOnEvent(tick=28, channel=0, data=[61, 0]),
   midi.NoteOnEvent(tick=13, channel=0, data=[47, 52]),
   midi.NoteOnEvent(tick=8, channel=0, data=[47, 0]),
   midi.NoteOnEvent(tick=27, channel=0, data=[70, 0]),
   midi.NoteOnEvent(tick=9, channel=0, data=[47, 57]),
   midi.NoteOnEvent(tick=1, channel=0, data=[63, 73]),
   midi.NoteOnEvent(tick=8, channel=0, data=[47, 0]),
   midi.NoteOnEvent(tick=12, channel=0, data=[63, 0]),
   midi.NoteOnEvent(tick=2, channel=0, data=[64, 77]),
   midi.ControlChangeEvent(tick=17, channel=0, data=[64, 0]),
   midi.NoteOnEvent(tick=5, channel=0, data=[64, 0]),
   midi.NoteOnEvent(tick=1, channel=0, data=[55, 0]),
   midi.NoteOnEvent(tick=3, channel=0, data=[47, 73]),
   midi.NoteOnEvent(tick=3, channel=0, data=[63, 66]),
   midi.NoteOnEvent(tick=0, channel=0, data=[54, 77]),
   midi.NoteOnEvent(tick=3, channel=0, data=[71, 86]),
   midi.NoteOnEvent(tick=12, channel=0, data=[47, 0]),
   midi.ControlChangeEvent(tick=11, channel=0, data=[64, 127]),
   midi.NoteOnEvent(tick=21, channel=0, data=[47, 59]),
   midi.NoteOnEvent(tick=1, channel=0, data=[71, 0]),
   midi.NoteOnEvent(tick=11, channel=0, data=[47, 0]),
   midi.NoteOnEvent(tick=28, channel=0, data=[63, 0]),
   midi.NoteOnEvent(tick=12, channel=0, data=[47, 73]),
   midi.NoteOnEvent(tick=0, channel=0, data=[59, 86]),
   midi.NoteOnEvent(tick=8, channel=0, data=[59, 0]),
   midi.NoteOnEvent(tick=9, channel=0, data=[47, 0]),
   midi.NoteOnEvent(tick=32, channel=0, data=[47, 59]),
   midi.NoteOnEvent(tick=4, channel=0, data=[54, 0]),
   midi.NoteOnEvent(tick=5, channel=0, data=[47, 0]),
   midi.ControlChangeEvent(tick=41, channel=0, data=[64, 0]),
   midi.NoteOnEvent(tick=2, channel=0, data=[70, 86]),
   midi.NoteOnEvent(tick=0, channel=0, data=[73, 91]),
   midi.NoteOnEvent(tick=1, channel=0, data=[79, 91]),
   midi.NoteOnEvent(tick=0, channel=0, data=[64, 81]),
   midi.NoteOnEvent(tick=0, channel=0, data=[59, 77]),
   midi.NoteOnEvent(tick=24, channel=0, data=[59, 0]),
   midi.ControlChangeEvent(tick=9, channel=0, data=[64, 127]),
   midi.NoteOnEvent(tick=18, channel=0, data=[59, 50]),
   midi.NoteOnEvent(tick=13, channel=0, data=[59, 0]),
   midi.NoteOnEvent(tick=39, channel=0, data=[59, 66]),
   midi.NoteOnEvent(tick=11, channel=0, data=[59, 0]),
   midi.NoteOnEvent(tick=4, channel=0, data=[70, 0]),
   midi.NoteOnEvent(tick=35, channel=0, data=[59, 54]),
   midi.NoteOnEvent(tick=9, channel=0, data=[59, 0]),
   midi.NoteOnEvent(tick=16, channel=0, data=[79, 0]),
   midi.NoteOnEvent(tick=23, channel=0, data=[73, 0]),
   midi.NoteOnEvent(tick=2, channel=0, data=[59, 66]),
   midi.ControlChangeEvent(tick=0, channel=0, data=[64, 0]),
   midi.NoteOnEvent(tick=1, channel=0, data=[71, 81]),
   midi.NoteOnEvent(tick=1, channel=0, data=[78, 77]),
   midi.NoteOnEvent(tick=0, channel=0, data=[63, 77]),
   midi.NoteOnEvent(tick=1, channel=0, data=[64, 0]),
   midi.NoteOnEvent(tick=16, channel=0, data=[59, 0]),
   midi.ControlChangeEvent(tick=14, channel=0, data=[64, 127]),
   midi.NoteOnEvent(tick=18, channel=0, data=[59, 52]),
   midi.NoteOnEvent(tick=12, channel=0, data=[59, 0]),
   midi.NoteOnEvent(tick=21, channel=0, data=[71, 0]),
   midi.NoteOnEvent(tick=18, channel=0, data=[78, 0]),
   midi.NoteOnEvent(tick=2, channel=0, data=[75, 77]),
   midi.NoteOnEvent(tick=3, channel=0, data=[59, 45]),
   midi.NoteOnEvent(tick=8, channel=0, data=[59, 0]),
   midi.NoteOnEvent(tick=40, channel=0, data=[59, 57]),
   midi.NoteOnEvent(tick=8, channel=0, data=[59, 0]),
   midi.NoteOnEvent(tick=20, channel=0, data=[63, 0]),
   midi.ControlChangeEvent(tick=15, channel=0, data=[64, 0]),
   midi.NoteOnEvent(tick=5, channel=0, data=[75, 0]),
   midi.NoteOnEvent(tick=2, channel=0, data=[59, 57]),
   midi.NoteOnEvent(tick=0, channel=0, data=[67, 69]),
   midi.NoteOnEvent(tick=1, channel=0, data=[73, 73]),
   midi.NoteOnEvent(tick=2, channel=0, data=[82, 57]),
   midi.NoteOnEvent(tick=16, channel=0, data=[59, 0]),
   midi.ControlChangeEvent(tick=9, channel=0, data=[64, 127]),
   midi.NoteOnEvent(tick=24, channel=0, data=[59, 54]),
   midi.NoteOnEvent(tick=11, channel=0, data=[59, 0]),
   midi.NoteOnEvent(tick=37, channel=0, data=[73, 0]),
   midi.NoteOnEvent(tick=0, channel=0, data=[59, 52]),
   midi.NoteOnEvent(tick=13, channel=0, data=[59, 0]),
   midi.NoteOnEvent(tick=30, channel=0, data=[59, 66]),
   midi.NoteOnEvent(tick=3, channel=0, data=[75, 81]),
   midi.NoteOnEvent(tick=5, channel=0, data=[82, 0]),
   midi.NoteOnEvent(tick=9, channel=0, data=[59, 0]),
   midi.NoteOnEvent(tick=3, channel=0, data=[67, 0]),
   midi.NoteOnEvent(tick=5, channel=0, data=[75, 0]),
   midi.NoteOnEvent(tick=0, channel=0, data=[76, 66]),
   midi.NoteOnEvent(tick=17, channel=0, data=[76, 0]),
   midi.ControlChangeEvent(tick=1, channel=0, data=[64, 0]),
   midi.NoteOnEvent(tick=9, channel=0, data=[59, 66]),
   midi.NoteOnEvent(tick=1, channel=0, data=[75, 59]),
   midi.NoteOnEvent(tick=1, channel=0, data=[66, 69]),
   midi.NoteOnEvent(tick=2, channel=0, data=[83, 81]),
   midi.NoteOnEvent(tick=12, channel=0, data=[59, 0]),
   midi.ControlChangeEvent(tick=14, channel=0, data=[64, 127]),
   midi.NoteOnEvent(tick=46, channel=0, data=[83, 0]),
   midi.NoteOnEvent(tick=26, channel=0, data=[59, 50]),
   midi.NoteOnEvent(tick=0, channel=0, data=[71, 77]),
   midi.NoteOnEvent(tick=10, channel=0, data=[59, 0]),
   midi.NoteOnEvent(tick=0, channel=0, data=[75, 0]),
   midi.NoteOnEvent(tick=11, channel=0, data=[71, 0]),
   midi.NoteOnEvent(tick=23, channel=0, data=[66, 0]),
   midi.NoteOnEvent(tick=6, channel=0, data=[59, 40]),
   midi.NoteOnEvent(tick=10, channel=0, data=[59, 0]),
   midi.ControlChangeEvent(tick=28, channel=0, data=[64, 0]),
   midi.NoteOnEvent(tick=9, channel=0, data=[82, 81]),
   midi.NoteOnEvent(tick=2, channel=0, data=[73, 77]),
   midi.NoteOnEvent(tick=0, channel=0, data=[59, 59]),
   midi.NoteOnEvent(tick=0, channel=0, data=[64, 69]),
   midi.NoteOnEvent(tick=0, channel=0, data=[67, 59]),
   midi.NoteOnEvent(tick=0, channel=0, data=[76, 86]),
   midi.NoteOnEvent(tick=15, channel=0, data=[59, 0]),
   midi.NoteOnEvent(tick=8, channel=0, data=[64, 0]),
   midi.ControlChangeEvent(tick=0, channel=0, data=[64, 127]),
   midi.NoteOnEvent(tick=26, channel=0, data=[76, 0]),
   midi.NoteOnEvent(tick=4, channel=0, data=[59, 41]),
   midi.NoteOnEvent(tick=8, channel=0, data=[59, 0]),
   midi.NoteOnEvent(tick=22, channel=0, data=[67, 0]),
   midi.NoteOnEvent(tick=11, channel=0, data=[82, 0]),
   midi.NoteOnEvent(tick=11, channel=0, data=[59, 77]),
   midi.NoteOnEvent(tick=3, channel=0, data=[73, 0]),
   midi.NoteOnEvent(tick=14, channel=0, data=[59, 0]),
   midi.NoteOnEvent(tick=24, channel=0, data=[59, 69]),
   midi.NoteOnEvent(tick=2, channel=0, data=[78, 86]),
   midi.NoteOnEvent(tick=16, channel=0, data=[59, 0]),
   midi.NoteOnEvent(tick=7, channel=0, data=[79, 69]),
   midi.NoteOnEvent(tick=1, channel=0, data=[78, 0]),
   midi.NoteOnEvent(tick=14, channel=0, data=[79, 0]),
   midi.ControlChangeEvent(tick=13, channel=0, data=[64, 0]),
   midi.NoteOnEvent(tick=1, channel=0, data=[78, 66]),
   midi.NoteOnEvent(tick=3, channel=0, data=[75, 86]),
   midi.NoteOnEvent(tick=1, channel=0, data=[83, 102]),
   midi.NoteOnEvent(tick=0, channel=0, data=[59, 81]),
   midi.NoteOnEvent(tick=0, channel=0, data=[66, 73]),
   midi.NoteOnEvent(tick=1, channel=0, data=[63, 81]),
   midi.NoteOnEvent(tick=21, channel=0, data=[75, 0]),
   midi.NoteOnEvent(tick=6, channel=0, data=[66, 0]),
   midi.NoteOnEvent(tick=1, channel=0, data=[59, 0]),
   midi.NoteOnEvent(tick=2, channel=0, data=[83, 0]),
   midi.NoteOnEvent(tick=5, channel=0, data=[78, 0]),
   midi.NoteOnEvent(tick=1, channel=0, data=[63, 0]),
   midi.NoteOnEvent(tick=169, channel=0, data=[71, 91]),
   midi.NoteOnEvent(tick=2, channel=0, data=[66, 81]),
   midi.NoteOnEvent(tick=0, channel=0, data=[63, 86]),
   midi.NoteOnEvent(tick=2, channel=0, data=[54, 77]),
   midi.NoteOnEvent(tick=0, channel=0, data=[51, 73]),
   midi.NoteOnEvent(tick=2, channel=0, data=[59, 81]),
   midi.NoteOnEvent(tick=19, channel=0, data=[63, 0]),
   midi.NoteOnEvent(tick=4, channel=0, data=[59, 0]),
   midi.NoteOnEvent(tick=8, channel=0, data=[71, 0]),
   midi.NoteOnEvent(tick=4, channel=0, data=[54, 0]),
   midi.NoteOnEvent(tick=5, channel=0, data=[51, 0]),
   midi.NoteOnEvent(tick=2, channel=0, data=[66, 0]),
   midi.NoteOnEvent(tick=159, channel=0, data=[59, 91]),
   midi.NoteOnEvent(tick=0, channel=0, data=[54, 86]),
   midi.NoteOnEvent(tick=1, channel=0, data=[51, 86]),
   midi.NoteOnEvent(tick=0, channel=0, data=[47, 86]),
   midi.NoteOnEvent(tick=1, channel=0, data=[35, 86]),
   midi.NoteOnEvent(tick=52, channel=0, data=[51, 0]),
   midi.NoteOnEvent(tick=4, channel=0, data=[35, 0]),
   midi.NoteOnEvent(tick=1, channel=0, data=[47, 0]),
   midi.NoteOnEvent(tick=3, channel=0, data=[59, 0]),
   midi.NoteOnEvent(tick=2, channel=0, data=[54, 0]),
   midi.NoteOnEvent(tick=146, channel=0, data=[83, 57]),
   midi.NoteOnEvent(tick=43, channel=0, data=[83, 0]),
   midi.NoteOnEvent(tick=2, channel=0, data=[81, 54]),
   midi.NoteOnEvent(tick=43, channel=0, data=[81, 0]),
   midi.NoteOnEvent(tick=4, channel=0, data=[80, 54]),
   midi.NoteOnEvent(tick=46, channel=0, data=[80, 0]),
   midi.NoteOnEvent(tick=2, channel=0, data=[78, 57]),
   midi.NoteOnEvent(tick=48, channel=0, data=[78, 0]),
   midi.NoteOnEvent(tick=4, channel=0, data=[76, 66]),
   midi.NoteOnEvent(tick=110, channel=0, data=[76, 0]),
   midi.NoteOnEvent(tick=72, channel=0, data=[78, 59]),
   midi.NoteOnEvent(tick=91, channel=0, data=[79, 69]),
   midi.NoteOnEvent(tick=1, channel=0, data=[78, 0]),
   midi.NoteOnEvent(tick=88, channel=0, data=[79, 0]),
   midi.NoteOnEvent(tick=1, channel=0, data=[80, 69]),
   midi.NoteOnEvent(tick=15, channel=0, data=[80, 0]),
   midi.NoteOnEvent(tick=79, channel=0, data=[81, 73]),
   midi.NoteOnEvent(tick=87, channel=0, data=[82, 73]),
   midi.NoteOnEvent(tick=4, channel=0, data=[81, 0]),
   midi.NoteOnEvent(tick=88, channel=0, data=[83, 91]),
   midi.NoteOnEvent(tick=4, channel=0, data=[82, 0]),
   midi.NoteOnEvent(tick=87, channel=0, data=[84, 102]),
   midi.NoteOnEvent(tick=7, channel=0, data=[83, 0]),
   midi.NoteOnEvent(tick=85, channel=0, data=[85, 86]),
   midi.NoteOnEvent(tick=4, channel=0, data=[84, 0]),
   midi.NoteOnEvent(tick=86, channel=0, data=[65, 40]),
   midi.NoteOnEvent(tick=0, channel=0, data=[68, 41]),
   midi.NoteOnEvent(tick=3, channel=0, data=[73, 47]),
   midi.ControlChangeEvent(tick=24, channel=0, data=[64, 127]),
   midi.NoteOnEvent(tick=63, channel=0, data=[85, 0]),
   midi.NoteOnEvent(tick=3, channel=0, data=[83, 77]),
   midi.NoteOnEvent(tick=1, channel=0, data=[73, 0]),
   midi.NoteOnEvent(tick=32, channel=0, data=[65, 0]),
   midi.NoteOnEvent(tick=42, channel=0, data=[68, 0]),
   midi.ControlChangeEvent(tick=11, channel=0, data=[64, 0]),
   midi.NoteOnEvent(tick=1, channel=0, data=[66, 38]),
   midi.NoteOnEvent(tick=5, channel=0, data=[69, 27]),
   midi.ControlChangeEvent(tick=38, channel=0, data=[64, 127]),
   midi.NoteOnEvent(tick=44, channel=0, data=[83, 0]),
   midi.NoteOnEvent(tick=0, channel=0, data=[81, 77]),
   midi.NoteOnEvent(tick=6, channel=0, data=[69, 0]),
   midi.NoteOnEvent(tick=3, channel=0, data=[66, 0]),
   midi.NoteOnEvent(tick=8, channel=0, data=[81, 0]),
   midi.NoteOnEvent(tick=28, channel=0, data=[80, 66]),
   midi.ControlChangeEvent(tick=14, channel=0, data=[64, 0]),
   midi.NoteOnEvent(tick=2, channel=0, data=[80, 0]),
   midi.NoteOnEvent(tick=3, channel=0, data=[81, 45]),
   midi.NoteOnEvent(tick=8, channel=0, data=[83, 77]),
   midi.NoteOnEvent(tick=2, channel=0, data=[81, 0]),
   midi.NoteOnEvent(tick=14, channel=0, data=[81, 77]),
   midi.NoteOnEvent(tick=4, channel=0, data=[83, 0]),
   midi.NoteOnEvent(tick=35, channel=0, data=[81, 0]),
   midi.NoteOnEvent(tick=1, channel=0, data=[80, 69]),
   midi.NoteOnEvent(tick=45, channel=0, data=[80, 0]),
   midi.NoteOnEvent(tick=2, channel=0, data=[78, 66]),
   midi.NoteOnEvent(tick=43, channel=0, data=[76, 73]),
   midi.NoteOnEvent(tick=8, channel=0, data=[78, 0]),
   midi.NoteOnEvent(tick=41, channel=0, data=[76, 0]),
   midi.NoteOnEvent(tick=2, channel=0, data=[75, 69]),
   midi.NoteOnEvent(tick=128, channel=0, data=[75, 0]),
   midi.NoteOnEvent(tick=58, channel=0, data=[76, 66]),
   midi.NoteOnEvent(tick=83, channel=0, data=[76, 0]),
   midi.NoteOnEvent(tick=5, channel=0, data=[77, 66]),
   midi.NoteOnEvent(tick=86, channel=0, data=[77, 0]),
   midi.NoteOnEvent(tick=0, channel=0, data=[78, 54]),
   midi.NoteOnEvent(tick=13, channel=0, data=[78, 0]),
   midi.NoteOnEvent(tick=78, channel=0, data=[79, 59]),
   midi.NoteOnEvent(tick=89, channel=0, data=[80, 77]),
   midi.NoteOnEvent(tick=2, channel=0, data=[79, 0]),
   midi.NoteOnEvent(tick=88, channel=0, data=[81, 77]),
   midi.NoteOnEvent(tick=24, channel=0, data=[80, 0]),
   midi.NoteOnEvent(tick=64, channel=0, data=[81, 0]),
   midi.NoteOnEvent(tick=1, channel=0, data=[82, 86]),
   midi.NoteOnEvent(tick=93, channel=0, data=[83, 91]),
   midi.NoteOnEvent(tick=2, channel=0, data=[82, 0]),
   midi.NoteOnEvent(tick=87, channel=0, data=[66, 33]),
   midi.NoteOnEvent(tick=1, channel=0, data=[71, 50]),
   midi.NoteOnEvent(tick=1, channel=0, data=[63, 26]),
   midi.ControlChangeEvent(tick=14, channel=0, data=[64, 127]),
   midi.NoteOnEvent(tick=74, channel=0, data=[71, 0]),
   midi.NoteOnEvent(tick=4, channel=0, data=[81, 77]),
   midi.NoteOnEvent(tick=8, channel=0, data=[83, 0]),
   midi.NoteOnEvent(tick=24, channel=0, data=[66, 0]),
   midi.NoteOnEvent(tick=26, channel=0, data=[63, 0]),
   midi.NoteOnEvent(tick=34, channel=0, data=[64, 40]),
   midi.NoteOnEvent(tick=1, channel=0, data=[68, 26]),
   midi.ControlChangeEvent(tick=3, channel=0, data=[64, 0]),
   midi.ControlChangeEvent(tick=54, channel=0, data=[64, 127]),
   midi.NoteOnEvent(tick=19, channel=0, data=[64, 0]),
   midi.NoteOnEvent(tick=10, channel=0, data=[81, 0]),
   midi.NoteOnEvent(tick=1, channel=0, data=[80, 77]),
   midi.NoteOnEvent(tick=1, channel=0, data=[68, 0]),
   midi.NoteOnEvent(tick=47, channel=0, data=[80, 0]),
   midi.NoteOnEvent(tick=42, channel=0, data=[71, 73]),
   midi.ControlChangeEvent(tick=3, channel=0, data=[64, 0]),
   midi.NoteOnEvent(tick=41, channel=0, data=[69, 59]),
   midi.NoteOnEvent(tick=1, channel=0, data=[71, 0]),
   midi.NoteOnEvent(tick=39, channel=0, data=[69, 0]),
   midi.NoteOnEvent(tick=4, channel=0, data=[68, 52]),
   midi.NoteOnEvent(tick=40, channel=0, data=[68, 0]),
   midi.NoteOnEvent(tick=5, channel=0, data=[66, 47]),
   midi.NoteOnEvent(tick=44, channel=0, data=[66, 0]),
   midi.NoteOnEvent(tick=7, channel=0, data=[64, 57]),
   midi.NoteOnEvent(tick=179, channel=0, data=[66, 50]),
   midi.NoteOnEvent(tick=7, channel=0, data=[59, 45]),
   midi.NoteOnEvent(tick=1, channel=0, data=[64, 0]),
   midi.NoteOnEvent(tick=36, channel=0, data=[59, 0]),
   midi.NoteOnEvent(tick=2, channel=0, data=[57, 59]),
   midi.NoteOnEvent(tick=42, channel=0, data=[57, 0]),
   midi.NoteOnEvent(tick=2, channel=0, data=[68, 66]),
   midi.NoteOnEvent(tick=2, channel=0, data=[66, 0]),
   midi.NoteOnEvent(tick=0, channel=0, data=[56, 69]),
   midi.NoteOnEvent(tick=40, channel=0, data=[54, 66]),
   midi.NoteOnEvent(tick=3, channel=0, data=[56, 0]),
   midi.NoteOnEvent(tick=41, channel=0, data=[68, 0]),
   midi.NoteOnEvent(tick=1, channel=0, data=[53, 81]),
   midi.NoteOnEvent(tick=1, channel=0, data=[54, 0]),
   midi.NoteOnEvent(tick=1, channel=0, data=[69, 86]),
   midi.NoteOnEvent(tick=47, channel=0, data=[53, 0]),
   midi.NoteOnEvent(tick=43, channel=0, data=[70, 77]),
   midi.NoteOnEvent(tick=13, channel=0, data=[69, 0]),
   midi.NoteOnEvent(tick=73, channel=0, data=[71, 81]),
   midi.NoteOnEvent(tick=2, channel=0, data=[83, 81]),
   midi.NoteOnEvent(tick=5, channel=0, data=[70, 0]),
   midi.NoteOnEvent(tick=37, channel=0, data=[83, 0]),
   midi.NoteOnEvent(tick=0, channel=0, data=[81, 77]),
   midi.NoteOnEvent(tick=45, channel=0, data=[80, 77]),
   midi.NoteOnEvent(tick=2, channel=0, data=[71, 0]),
   midi.NoteOnEvent(tick=1, channel=0, data=[81, 0]),
   midi.NoteOnEvent(tick=0, channel=0, data=[72, 66]),
   midi.NoteOnEvent(tick=36, channel=0, data=[78, 81]),
   midi.NoteOnEvent(tick=6, channel=0, data=[80, 0]),
   midi.NoteOnEvent(tick=39, channel=0, data=[78, 0]),
   midi.NoteOnEvent(tick=3, channel=0, data=[77, 59]),
   midi.NoteOnEvent(tick=3, channel=0, data=[61, 52]),
   midi.NoteOnEvent(tick=1, channel=0, data=[72, 0]),
   midi.ControlChangeEvent(tick=63, channel=0, data=[64, 127]),
   midi.NoteOnEvent(tick=26, channel=0, data=[73, 54]),
   midi.NoteOnEvent(tick=12, channel=0, data=[77, 0]),
   midi.NoteOnEvent(tick=64, channel=0, data=[61, 0]),
   midi.NoteOnEvent(tick=16, channel=0, data=[86, 81]),
   midi.NoteOnEvent(tick=1, channel=0, data=[80, 73]),
   midi.NoteOnEvent(tick=0, channel=0, data=[77, 73]),
   midi.NoteOnEvent(tick=87, channel=0, data=[73, 0]),
   midi.NoteOnEvent(tick=7, channel=0, data=[71, 50]),
   midi.NoteOnEvent(tick=1, channel=0, data=[77, 0]),
   midi.NoteOnEvent(tick=75, channel=0, data=[80, 0]),
   midi.NoteOnEvent(tick=10, channel=0, data=[66, 52]),
   midi.NoteOnEvent(tick=3, channel=0, data=[71, 0]),
   midi.ControlChangeEvent(tick=2, channel=0, data=[64, 0]),
   midi.NoteOnEvent(tick=80, channel=0, data=[86, 0]),
   midi.NoteOnEvent(tick=6, channel=0, data=[78, 40]),
   midi.NoteOnEvent(tick=0, channel=0, data=[69, 54]),
   midi.NoteOnEvent(tick=1, channel=0, data=[85, 50]),
   midi.NoteOnEvent(tick=2, channel=0, data=[81, 54]),
   midi.NoteOnEvent(tick=1, channel=0, data=[66, 0]),
   midi.NoteOnEvent(tick=38, channel=0, data=[69, 0]),
   midi.NoteOnEvent(tick=27, channel=0, data=[78, 0]),
   midi.NoteOnEvent(tick=8, channel=0, data=[81, 0]),
   midi.NoteOnEvent(tick=5, channel=0, data=[85, 0]),
   midi.NoteOnEvent(tick=7, channel=0, data=[69, 77]),
   midi.NoteOnEvent(tick=42, channel=0, data=[68, 73]),
   midi.NoteOnEvent(tick=5, channel=0, data=[69, 0]),
   midi.NoteOnEvent(tick=37, channel=0, data=[66, 59]),
   midi.NoteOnEvent(tick=8, channel=0, data=[68, 0]),
   midi.NoteOnEvent(tick=28, channel=0, data=[66, 0]),
   midi.NoteOnEvent(tick=7, channel=0, data=[64, 69]),
   midi.NoteOnEvent(tick=44, channel=0, data=[64, 0]),
   midi.NoteOnEvent(tick=4, channel=0, data=[63, 57]),
   midi.NoteOnEvent(tick=185, channel=0, data=[57, 52]),
   midi.NoteOnEvent(tick=2, channel=0, data=[64, 52]),
   midi.NoteOnEvent(tick=4, channel=0, data=[63, 0]),
   midi.NoteOnEvent(tick=32, channel=0, data=[57, 0]),
   midi.NoteOnEvent(tick=5, channel=0, data=[56, 57]),
   midi.NoteOnEvent(tick=38, channel=0, data=[64, 0]),
   midi.NoteOnEvent(tick=6, channel=0, data=[56, 0]),
   midi.NoteOnEvent(tick=2, channel=0, data=[54, 57]),
   midi.NoteOnEvent(tick=8, channel=0, data=[66, 54]),
   midi.NoteOnEvent(tick=27, channel=0, data=[54, 0]),
   midi.NoteOnEvent(tick=5, channel=0, data=[52, 69]),
   midi.NoteOnEvent(tick=50, channel=0, data=[51, 66]),
   midi.NoteOnEvent(tick=3, channel=0, data=[52, 0]),
   midi.NoteOnEvent(tick=4, channel=0, data=[66, 0]),
   midi.NoteOnEvent(tick=1, channel=0, data=[67, 57]),
   midi.NoteOnEvent(tick=53, channel=0, data=[51, 0]),
   midi.NoteOnEvent(tick=30, channel=0, data=[68, 77]),
   midi.NoteOnEvent(tick=19, channel=0, data=[67, 0]),
   midi.NoteOnEvent(tick=67, channel=0, data=[69, 77]),
   midi.NoteOnEvent(tick=3, channel=0, data=[81, 77]),
   midi.NoteOnEvent(tick=8, channel=0, data=[68, 0]),
   midi.NoteOnEvent(tick=29, channel=0, data=[80, 77]),
   midi.NoteOnEvent(tick=4, channel=0, data=[81, 0]),
   midi.NoteOnEvent(tick=42, channel=0, data=[78, 73]),
   midi.NoteOnEvent(tick=1, channel=0, data=[69, 0]),
   midi.NoteOnEvent(tick=2, channel=0, data=[80, 0]),
   midi.ControlChangeEvent(tick=6, channel=0, data=[64, 127]),
   midi.NoteOnEvent(tick=6, channel=0, data=[70, 54]),
   midi.NoteOnEvent(tick=23, channel=0, data=[78, 0]),
   midi.NoteOnEvent(tick=2, channel=0, data=[76, 81]),
   midi.NoteOnEvent(tick=8, channel=0, data=[70, 0]),
   midi.NoteOnEvent(tick=48, channel=0, data=[75, 59]),
   midi.NoteOnEvent(tick=7, channel=0, data=[76, 0]),
   midi.ControlChangeEvent(tick=8, channel=0, data=[64, 0]),
   midi.NoteOnEvent(tick=12, channel=0, data=[59, 24]),
   midi.ControlChangeEvent(tick=32, channel=0, data=[64, 127]),
   midi.NoteOnEvent(tick=29, channel=0, data=[75, 0]),
   midi.NoteOnEvent(tick=11, channel=0, data=[71, 35]),
   midi.NoteOnEvent(tick=44, channel=0, data=[71, 0]),
   midi.NoteOnEvent(tick=41, channel=0, data=[84, 77]),
   midi.NoteOnEvent(tick=2, channel=0, data=[78, 69]),
   midi.NoteOnEvent(tick=0, channel=0, data=[75, 69]),
   midi.NoteOnEvent(tick=67, channel=0, data=[59, 0]),
   midi.NoteOnEvent(tick=18, channel=0, data=[69, 59]),
   midi.NoteOnEvent(tick=51, channel=0, data=[75, 0]),
   midi.NoteOnEvent(tick=22, channel=0, data=[78, 0]),
   midi.NoteOnEvent(tick=13, channel=0, data=[69, 0]),
   midi.ControlChangeEvent(tick=1, channel=0, data=[64, 0]),
   midi.NoteOnEvent(tick=3, channel=0, data=[64, 57]),
   midi.ControlChangeEvent(tick=72, channel=0, data=[64, 127]),
   midi.NoteOnEvent(tick=15, channel=0, data=[64, 0]),
   midi.NoteOnEvent(tick=1, channel=0, data=[84, 0]),
   midi.NoteOnEvent(tick=2, channel=0, data=[68, 54]),
   midi.NoteOnEvent(tick=0, channel=0, data=[76, 54]),
   midi.NoteOnEvent(tick=0, channel=0, data=[80, 52]),
   midi.NoteOnEvent(tick=0, channel=0, data=[83, 54]),
   midi.NoteOnEvent(tick=13, channel=0, data=[68, 0]),
   midi.NoteOnEvent(tick=6, channel=0, data=[83, 0]),
   midi.NoteOnEvent(tick=1, channel=0, data=[76, 0]),
   midi.NoteOnEvent(tick=1, channel=0, data=[80, 0]),
   midi.ControlChangeEvent(tick=71, channel=0, data=[64, 0]),
   midi.NoteOnEvent(tick=2, channel=0, data=[56, 38]),
   midi.NoteOnEvent(tick=37, channel=0, data=[56, 0]),
   midi.NoteOnEvent(tick=7, channel=0, data=[59, 41]),
   midi.NoteOnEvent(tick=33, channel=0, data=[59, 0]),
   midi.NoteOnEvent(tick=4, channel=0, data=[56, 52]),
   midi.NoteOnEvent(tick=6, channel=0, data=[71, 73]),
   midi.NoteOnEvent(tick=0, channel=0, data=[64, 69]),
   midi.NoteOnEvent(tick=16, channel=0, data=[64, 0]),
   midi.NoteOnEvent(tick=4, channel=0, data=[71, 0]),
   midi.NoteOnEvent(tick=14, channel=0, data=[56, 0]),
   midi.NoteOnEvent(tick=7, channel=0, data=[59, 47]),
   midi.NoteOnEvent(tick=26, channel=0, data=[59, 0]),
   midi.NoteOnEvent(tick=15, channel=0, data=[57, 54]),
   midi.NoteOnEvent(tick=1, channel=0, data=[71, 73]),
   midi.NoteOnEvent(tick=1, channel=0, data=[63, 57]),
   midi.ControlChangeEvent(tick=11, channel=0, data=[64, 127]),
   midi.NoteOnEvent(tick=10, channel=0, data=[71, 0]),
   midi.NoteOnEvent(tick=6, channel=0, data=[73, 69]),
   midi.NoteOnEvent(tick=7, channel=0, data=[57, 0]),
   midi.NoteOnEvent(tick=6, channel=0, data=[59, 47]),
   midi.NoteOnEvent(tick=7, channel=0, data=[71, 66]),
   midi.NoteOnEvent(tick=1, channel=0, data=[73, 0]),
   midi.NoteOnEvent(tick=7, channel=0, data=[63, 0]),
   midi.NoteOnEvent(tick=7, channel=0, data=[70, 77]),
   midi.NoteOnEvent(tick=1, channel=0, data=[71, 0]),
   midi.NoteOnEvent(tick=8, channel=0, data=[59, 0]),
   midi.NoteOnEvent(tick=8, channel=0, data=[71, 77]),
   midi.NoteOnEvent(tick=3, channel=0, data=[70, 0]),
   midi.NoteOnEvent(tick=0, channel=0, data=[57, 52]),
   midi.NoteOnEvent(tick=37, channel=0, data=[57, 0]),
   midi.NoteOnEvent(tick=4, channel=0, data=[75, 66]),
   midi.NoteOnEvent(tick=3, channel=0, data=[59, 47]),
   midi.NoteOnEvent(tick=35, channel=0, data=[75, 0]),
   midi.NoteOnEvent(tick=4, channel=0, data=[71, 0]),
   midi.NoteOnEvent(tick=2, channel=0, data=[59, 0]),
   midi.NoteOnEvent(tick=0, channel=0, data=[56, 54]),
   midi.NoteOnEvent(tick=1, channel=0, data=[64, 66]),
   midi.NoteOnEvent(tick=2, channel=0, data=[76, 77]),
   midi.ControlChangeEvent(tick=3, channel=0, data=[64, 0]),
   midi.NoteOnEvent(tick=11, channel=0, data=[64, 0]),
   midi.NoteOnEvent(tick=2, channel=0, data=[76, 0]),
   midi.NoteOnEvent(tick=18, channel=0, data=[56, 0]),
   midi.NoteOnEvent(tick=3, channel=0, data=[59, 52]),
   midi.NoteOnEvent(tick=36, channel=0, data=[59, 0]),
   midi.NoteOnEvent(tick=9, channel=0, data=[56, 50]),
   midi.NoteOnEvent(tick=3, channel=0, data=[64, 59]),
   midi.NoteOnEvent(tick=1, channel=0, data=[71, 69]),
   midi.NoteOnEvent(tick=8, channel=0, data=[71, 0]),
   midi.NoteOnEvent(tick=0, channel=0, data=[64, 0]),
   midi.NoteOnEvent(tick=22, channel=0, data=[56, 0]),
   midi.NoteOnEvent(tick=8, channel=0, data=[59, 40]),
   midi.NoteOnEvent(tick=39, channel=0, data=[59, 0]),
   midi.NoteOnEvent(tick=7, channel=0, data=[63, 69]),
   midi.NoteOnEvent(tick=1, channel=0, data=[57, 52]),
   midi.NoteOnEvent(tick=1, channel=0, data=[71, 73]),
   midi.ControlChangeEvent(tick=4, channel=0, data=[64, 127]),
   midi.NoteOnEvent(tick=19, channel=0, data=[71, 0]),
   midi.NoteOnEvent(tick=9, channel=0, data=[73, 69]),
   midi.NoteOnEvent(tick=2, channel=0, data=[57, 0]),
   midi.NoteOnEvent(tick=6, channel=0, data=[59, 50]),
   midi.NoteOnEvent(tick=12, channel=0, data=[73, 0]),
   midi.NoteOnEvent(tick=0, channel=0, data=[71, 54]),
   midi.NoteOnEvent(tick=1, channel=0, data=[63, 0]),
   midi.NoteOnEvent(tick=8, channel=0, data=[71, 0]),
   midi.NoteOnEvent(tick=1, channel=0, data=[70, 69]),
   midi.NoteOnEvent(tick=14, channel=0, data=[71, 77]),
   midi.NoteOnEvent(tick=3, channel=0, data=[59, 0]),
   midi.NoteOnEvent(tick=3, channel=0, data=[70, 0]),
   midi.NoteOnEvent(tick=0, channel=0, data=[57, 52]),
   midi.NoteOnEvent(tick=41, channel=0, data=[57, 0]),
   midi.NoteOnEvent(tick=0, channel=0, data=[75, 77]),
   midi.NoteOnEvent(tick=6, channel=0, data=[59, 50]),
   midi.NoteOnEvent(tick=7, channel=0, data=[71, 0]),
   midi.NoteOnEvent(tick=27, channel=0, data=[75, 0]),
   midi.NoteOnEvent(tick=6, channel=0, data=[59, 0]),
   midi.NoteOnEvent(tick=3, channel=0, data=[56, 52]),
   midi.NoteOnEvent(tick=0, channel=0, data=[64, 69]),
   midi.NoteOnEvent(tick=2, channel=0, data=[76, 77]),
   midi.ControlChangeEvent(tick=6, channel=0, data=[64, 0]),
   midi.NoteOnEvent(tick=7, channel=0, data=[64, 0]),
   midi.NoteOnEvent(tick=4, channel=0, data=[76, 0]),
   midi.NoteOnEvent(tick=12, channel=0, data=[56, 0]),
   midi.NoteOnEvent(tick=13, channel=0, data=[59, 37]),
   midi.NoteOnEvent(tick=33, channel=0, data=[59, 0]),
   midi.NoteOnEvent(tick=11, channel=0, data=[56, 57]),
   midi.ControlChangeEvent(tick=1, channel=0, data=[64, 127]),
   midi.NoteOnEvent(tick=2, channel=0, data=[77, 86]),
   midi.NoteOnEvent(tick=0, channel=0, data=[65, 86]),
   midi.NoteOnEvent(tick=17, channel=0, data=[65, 0]),
   midi.NoteOnEvent(tick=9, channel=0, data=[56, 0]),
   midi.NoteOnEvent(tick=17, channel=0, data=[59, 45]),
   midi.NoteOnEvent(tick=36, channel=0, data=[59, 0]),
   midi.NoteOnEvent(tick=0, channel=0, data=[77, 0]),
   midi.ControlChangeEvent(tick=7, channel=0, data=[64, 0]),
   midi.NoteOnEvent(tick=1, channel=0, data=[57, 57]),
   midi.NoteOnEvent(tick=3, channel=0, data=[66, 59]),
   midi.NoteOnEvent(tick=0, channel=0, data=[78, 73]),
   midi.NoteOnEvent(tick=28, channel=0, data=[66, 0]),
   midi.ControlChangeEvent(tick=2, channel=0, data=[64, 127]),
   midi.NoteOnEvent(tick=13, channel=0, data=[61, 45]),
   midi.NoteOnEvent(tick=3, channel=0, data=[57, 0]),
   midi.NoteOnEvent(tick=32, channel=0, data=[78, 0]),
   midi.NoteOnEvent(tick=5, channel=0, data=[61, 0]),
   midi.NoteOnEvent(tick=4, channel=0, data=[80, 73]),
   midi.NoteOnEvent(tick=0, channel=0, data=[68, 77]),
   midi.NoteOnEvent(tick=1, channel=0, data=[57, 54]),
   midi.NoteOnEvent(tick=24, channel=0, data=[68, 0]),
   midi.NoteOnEvent(tick=19, channel=0, data=[57, 0]),
   midi.NoteOnEvent(tick=1, channel=0, data=[61, 52]),
   midi.NoteOnEvent(tick=29, channel=0, data=[80, 0]),
   midi.ControlChangeEvent(tick=11, channel=0, data=[64, 0]),
   midi.NoteOnEvent(tick=2, channel=0, data=[61, 0]),
   midi.NoteOnEvent(tick=2, channel=0, data=[59, 59]),
   midi.NoteOnEvent(tick=3, channel=0, data=[69, 73]),
   midi.NoteOnEvent(tick=1, channel=0, data=[81, 91]),
   midi.ControlChangeEvent(tick=26, channel=0, data=[64, 127]),
   midi.NoteOnEvent(tick=9, channel=0, data=[69, 0]),
   midi.NoteOnEvent(tick=2, channel=0, data=[59, 0]),
   midi.NoteOnEvent(tick=7, channel=0, data=[63, 57]),
   midi.NoteOnEvent(tick=10, channel=0, data=[81, 0]),
   midi.NoteOnEvent(tick=25, channel=0, data=[63, 0]),
   midi.NoteOnEvent(tick=7, channel=0, data=[59, 57]),
   midi.NoteOnEvent(tick=4, channel=0, data=[71, 77]),
   midi.NoteOnEvent(tick=1, channel=0, data=[83, 86]),
   midi.NoteOnEvent(tick=24, channel=0, data=[71, 0]),
   midi.NoteOnEvent(tick=5, channel=0, data=[83, 0]),
   midi.NoteOnEvent(tick=13, channel=0, data=[59, 0]),
   midi.NoteOnEvent(tick=0, channel=0, data=[63, 50]),
   midi.NoteOnEvent(tick=38, channel=0, data=[63, 0]),
   midi.ControlChangeEvent(tick=6, channel=0, data=[64, 0]),
   midi.NoteOnEvent(tick=1, channel=0, data=[52, 59]),
   midi.NoteOnEvent(tick=2, channel=0, data=[69, 69]),
   midi.NoteOnEvent(tick=3, channel=0, data=[81, 69]),
   midi.ControlChangeEvent(tick=31, channel=0, data=[64, 127]),
   midi.NoteOnEvent(tick=12, channel=0, data=[69, 0]),
   midi.NoteOnEvent(tick=0, channel=0, data=[59, 47]),
   midi.NoteOnEvent(tick=44, channel=0, data=[59, 0]),
   midi.NoteOnEvent(tick=4, channel=0, data=[52, 0]),
   midi.NoteOnEvent(tick=0, channel=0, data=[63, 35]),
   midi.NoteOnEvent(tick=36, channel=0, data=[63, 0]),
   midi.NoteOnEvent(tick=6, channel=0, data=[59, 41]),
   midi.NoteOnEvent(tick=36, channel=0, data=[81, 0]),
   midi.ControlChangeEvent(tick=5, channel=0, data=[64, 0]),
   midi.NoteOnEvent(tick=5, channel=0, data=[59, 0]),
   midi.NoteOnEvent(tick=2, channel=0, data=[68, 57]),
   midi.NoteOnEvent(tick=0, channel=0, data=[80, 59]),
   midi.NoteOnEvent(tick=2, channel=0, data=[64, 57]),
   midi.NoteOnEvent(tick=18, channel=0, data=[68, 0]),
   midi.NoteOnEvent(tick=20, channel=0, data=[64, 0]),
   midi.NoteOnEvent(tick=2, channel=0, data=[59, 52]),
   midi.NoteOnEvent(tick=38, channel=0, data=[80, 0]),
   midi.NoteOnEvent(tick=7, channel=0, data=[59, 0]),
   midi.NoteOnEvent(tick=2, channel=0, data=[71, 69]),
   midi.NoteOnEvent(tick=0, channel=0, data=[56, 52]),
   midi.NoteOnEvent(tick=0, channel=0, data=[83, 73]),
   midi.NoteOnEvent(tick=6, channel=0, data=[64, 47]),
   midi.NoteOnEvent(tick=6, channel=0, data=[71, 0]),
   midi.NoteOnEvent(tick=10, channel=0, data=[83, 0]),
   midi.NoteOnEvent(tick=10, channel=0, data=[56, 0]),
   midi.NoteOnEvent(tick=4, channel=0, data=[64, 0]),
   midi.NoteOnEvent(tick=9, channel=0, data=[59, 57]),
   midi.NoteOnEvent(tick=33, channel=0, data=[59, 0]),
   midi.NoteOnEvent(tick=13, channel=0, data=[75, 66]),
   midi.NoteOnEvent(tick=1, channel=0, data=[57, 50]),
   midi.NoteOnEvent(tick=0, channel=0, data=[83, 73]),
   midi.NoteOnEvent(tick=1, channel=0, data=[66, 38]),
   midi.ControlChangeEvent(tick=13, channel=0, data=[64, 127]),
   midi.NoteOnEvent(tick=10, channel=0, data=[83, 0]),
   midi.NoteOnEvent(tick=6, channel=0, data=[57, 0]),
   midi.NoteOnEvent(tick=2, channel=0, data=[85, 59]),
   midi.NoteOnEvent(tick=10, channel=0, data=[59, 50]),
   midi.NoteOnEvent(tick=9, channel=0, data=[83, 59]),
   midi.NoteOnEvent(tick=2, channel=0, data=[85, 0]),
   midi.NoteOnEvent(tick=10, channel=0, data=[83, 0]),
   midi.NoteOnEvent(tick=1, channel=0, data=[82, 77]),
   midi.NoteOnEvent(tick=1, channel=0, data=[75, 0]),
   midi.NoteOnEvent(tick=5, channel=0, data=[59, 0]),
   midi.NoteOnEvent(tick=9, channel=0, data=[83, 73]),
   midi.NoteOnEvent(tick=5, channel=0, data=[82, 0]),
   midi.NoteOnEvent(tick=3, channel=0, data=[57, 47]),
   midi.NoteOnEvent(tick=29, channel=0, data=[66, 0]),
   midi.NoteOnEvent(tick=10, channel=0, data=[57, 0]),
   midi.NoteOnEvent(tick=4, channel=0, data=[87, 73]),
   midi.NoteOnEvent(tick=2, channel=0, data=[59, 50]),
   midi.NoteOnEvent(tick=5, channel=0, data=[83, 0]),
   midi.NoteOnEvent(tick=24, channel=0, data=[87, 0]),
   midi.NoteOnEvent(tick=2, channel=0, data=[59, 0]),
   midi.NoteOnEvent(tick=14, channel=0, data=[64, 59]),
   midi.NoteOnEvent(tick=0, channel=0, data=[76, 57]),
   midi.NoteOnEvent(tick=1, channel=0, data=[88, 73]),
   midi.ControlChangeEvent(tick=0, channel=0, data=[64, 0]),
   midi.NoteOnEvent(tick=3, channel=0, data=[56, 50]),
   midi.NoteOnEvent(tick=5, channel=0, data=[88, 0]),
   midi.NoteOnEvent(tick=3, channel=0, data=[76, 0]),
   midi.NoteOnEvent(tick=12, channel=0, data=[64, 0]),
   midi.NoteOnEvent(tick=13, channel=0, data=[56, 0]),
   midi.NoteOnEvent(tick=10, channel=0, data=[59, 47]),
   midi.NoteOnEvent(tick=35, channel=0, data=[59, 0]),
   midi.NoteOnEvent(tick=10, channel=0, data=[64, 57]),
   midi.NoteOnEvent(tick=4, channel=0, data=[83, 77]),
   midi.NoteOnEvent(tick=1, channel=0, data=[71, 52]),
   midi.NoteOnEvent(tick=2, channel=0, data=[56, 32]),
   midi.NoteOnEvent(tick=7, channel=0, data=[71, 0]),
   midi.NoteOnEvent(tick=10, channel=0, data=[64, 0]),
   midi.NoteOnEvent(tick=5, channel=0, data=[83, 0]),
   midi.NoteOnEvent(tick=0, channel=0, data=[56, 0]),
   midi.NoteOnEvent(tick=18, channel=0, data=[59, 47]),
   midi.ControlChangeEvent(tick=39, channel=0, data=[64, 127]),
   midi.NoteOnEvent(tick=3, channel=0, data=[75, 69]),
   midi.NoteOnEvent(tick=1, channel=0, data=[59, 0]),
   midi.NoteOnEvent(tick=0, channel=0, data=[66, 54]),
   midi.NoteOnEvent(tick=1, channel=0, data=[83, 77]),
   midi.NoteOnEvent(tick=7, channel=0, data=[57, 59]),
   midi.NoteOnEvent(tick=10, channel=0, data=[57, 0]),
   midi.NoteOnEvent(tick=8, channel=0, data=[75, 0]),
   midi.NoteOnEvent(tick=6, channel=0, data=[83, 0]),
   midi.NoteOnEvent(tick=7, channel=0, data=[85, 66]),
   midi.NoteOnEvent(tick=4, channel=0, data=[75, 7]),
   midi.NoteOnEvent(tick=7, channel=0, data=[59, 47]),
   midi.NoteOnEvent(tick=10, channel=0, data=[83, 66]),
   midi.NoteOnEvent(tick=1, channel=0, data=[75, 0]),
   midi.NoteOnEvent(tick=2, channel=0, data=[85, 0]),
   midi.NoteOnEvent(tick=11, channel=0, data=[83, 0]),
   midi.NoteOnEvent(tick=0, channel=0, data=[82, 77]),
   midi.NoteOnEvent(tick=1, channel=0, data=[59, 0]),
   midi.NoteOnEvent(tick=14, channel=0, data=[83, 73]),
   midi.NoteOnEvent(tick=0, channel=0, data=[57, 47]),
   midi.NoteOnEvent(tick=4, channel=0, data=[82, 0]),
   midi.NoteOnEvent(tick=34, channel=0, data=[57, 0]),
   midi.NoteOnEvent(tick=7, channel=0, data=[87, 77]),
   midi.NoteOnEvent(tick=2, channel=0, data=[66, 0]),
   midi.NoteOnEvent(tick=0, channel=0, data=[59, 57]),
   midi.NoteOnEvent(tick=27, channel=0, data=[87, 0]),
   midi.NoteOnEvent(tick=5, channel=0, data=[83, 0]),
   midi.NoteOnEvent(tick=6, channel=0, data=[59, 0]),
   midi.NoteOnEvent(tick=8, channel=0, data=[76, 77]),
   midi.NoteOnEvent(tick=0, channel=0, data=[88, 81]),
   midi.NoteOnEvent(tick=2, channel=0, data=[56, 66]),
   midi.NoteOnEvent(tick=2, channel=0, data=[64, 66]),
   midi.ControlChangeEvent(tick=1, channel=0, data=[64, 0]),
   midi.NoteOnEvent(tick=9, channel=0, data=[76, 0]),
   midi.NoteOnEvent(tick=5, channel=0, data=[88, 0]),
   midi.NoteOnEvent(tick=6, channel=0, data=[56, 0]),
   midi.NoteOnEvent(tick=18, channel=0, data=[59, 54]),
   midi.NoteOnEvent(tick=2, channel=0, data=[64, 0]),
   midi.NoteOnEvent(tick=44, channel=0, data=[59, 0]),
   midi.NoteOnEvent(tick=5, channel=0, data=[56, 54]),
   midi.NoteOnEvent(tick=1, channel=0, data=[86, 86]),
   midi.NoteOnEvent(tick=0, channel=0, data=[77, 91]),
   midi.NoteOnEvent(tick=6, channel=0, data=[65, 73]),
   midi.ControlChangeEvent(tick=2, channel=0, data=[64, 127]),
   midi.NoteOnEvent(tick=30, channel=0, data=[56, 0]),
   midi.NoteOnEvent(tick=6, channel=0, data=[65, 0]),
   midi.NoteOnEvent(tick=2, channel=0, data=[59, 59]),
   midi.NoteOnEvent(tick=41, channel=0, data=[66, 19]),
   midi.ControlChangeEvent(tick=0, channel=0, data=[64, 0]),
   midi.NoteOnEvent(tick=3, channel=0, data=[59, 0]),
   midi.NoteOnEvent(tick=1, channel=0, data=[77, 0]),
   midi.NoteOnEvent(tick=3, channel=0, data=[85, 77]),
   midi.NoteOnEvent(tick=0, channel=0, data=[78, 81]),
   midi.NoteOnEvent(tick=1, channel=0, data=[57, 69]),
   midi.NoteOnEvent(tick=6, channel=0, data=[86, 0]),
   midi.NoteOnEvent(tick=18, channel=0, data=[85, 0]),
   midi.ControlChangeEvent(tick=3, channel=0, data=[64, 127]),
   midi.NoteOnEvent(tick=9, channel=0, data=[78, 0]),
   midi.NoteOnEvent(tick=1, channel=0, data=[57, 0]),
   midi.NoteOnEvent(tick=2, channel=0, data=[66, 0]),
   midi.NoteOnEvent(tick=5, channel=0, data=[61, 52]),
   midi.NoteOnEvent(tick=26, channel=0, data=[61, 0]),
   midi.NoteOnEvent(tick=20, channel=0, data=[68, 81]),
   midi.NoteOnEvent(tick=0, channel=0, data=[80, 81]),
   midi.NoteOnEvent(tick=0, channel=0, data=[57, 54]),
   midi.NoteOnEvent(tick=18, channel=0, data=[68, 0]),
   midi.NoteOnEvent(tick=10, channel=0, data=[57, 0]),
   midi.NoteOnEvent(tick=8, channel=0, data=[80, 0]),
   midi.NoteOnEvent(tick=3, channel=0, data=[61, 59]),
   midi.NoteOnEvent(tick=9, channel=0, data=[61, 0]),
   midi.ControlChangeEvent(tick=35, channel=0, data=[64, 0]),
   midi.NoteOnEvent(tick=8, channel=0, data=[69, 86]),
   midi.NoteOnEvent(tick=1, channel=0, data=[81, 91]),
   midi.NoteOnEvent(tick=0, channel=0, data=[54, 66]),
   midi.NoteOnEvent(tick=2, channel=0, data=[47, 66]),
   midi.NoteOnEvent(tick=26, channel=0, data=[81, 0]),
   midi.ControlChangeEvent(tick=1, channel=0, data=[64, 127]),
   midi.NoteOnEvent(tick=2, channel=0, data=[69, 0]),
   midi.NoteOnEvent(tick=10, channel=0, data=[57, 52]),
   midi.NoteOnEvent(tick=3, channel=0, data=[54, 0]),
   midi.NoteOnEvent(tick=21, channel=0, data=[57, 0]),
   midi.NoteOnEvent(tick=25, channel=0, data=[54, 59]),
   midi.NoteOnEvent(tick=1, channel=0, data=[63, 86]),
   midi.NoteOnEvent(tick=1, channel=0, data=[75, 86]),
   midi.NoteOnEvent(tick=17, channel=0, data=[63, 0]),
   midi.NoteOnEvent(tick=5, channel=0, data=[47, 0]),
   midi.NoteOnEvent(tick=7, channel=0, data=[75, 0]),
   midi.NoteOnEvent(tick=5, channel=0, data=[54, 0]),
   midi.NoteOnEvent(tick=10, channel=0, data=[57, 54]),
   midi.NoteOnEvent(tick=28, channel=0, data=[57, 0]),
   midi.ControlChangeEvent(tick=13, channel=0, data=[64, 0]),
   midi.NoteOnEvent(tick=7, channel=0, data=[52, 59]),
   midi.NoteOnEvent(tick=1, channel=0, data=[56, 54]),
   midi.NoteOnEvent(tick=0, channel=0, data=[64, 86]),
   midi.NoteOnEvent(tick=1, channel=0, data=[76, 86]),
   midi.ControlChangeEvent(tick=33, channel=0, data=[64, 127]),
   midi.NoteOnEvent(tick=4, channel=0, data=[76, 0]),
   midi.NoteOnEvent(tick=26, channel=0, data=[52, 0]),
   midi.NoteOnEvent(tick=1, channel=0, data=[56, 0]),
   midi.NoteOnEvent(tick=29, channel=0, data=[71, 86]),
   midi.NoteOnEvent(tick=2, channel=0, data=[68, 81]),
   midi.ControlChangeEvent(tick=1, channel=0, data=[64, 0]),
   midi.NoteOnEvent(tick=85, channel=0, data=[71, 0]),
   midi.NoteOnEvent(tick=4, channel=0, data=[72, 81]),
   midi.NoteOnEvent(tick=1, channel=0, data=[69, 86]),
   midi.NoteOnEvent(tick=6, channel=0, data=[64, 0]),
   midi.NoteOnEvent(tick=3, channel=0, data=[68, 0]),
   midi.NoteOnEvent(tick=83, channel=0, data=[63, 81]),
   midi.NoteOnEvent(tick=37, channel=0, data=[47, 77]),
   midi.NoteOnEvent(tick=7, channel=0, data=[63, 0]),
   midi.NoteOnEvent(tick=3, channel=0, data=[72, 0]),
   midi.NoteOnEvent(tick=5, channel=0, data=[69, 0]),
   midi.NoteOnEvent(tick=0, channel=0, data=[49, 86]),
   midi.NoteOnEvent(tick=12, channel=0, data=[47, 0]),
   midi.NoteOnEvent(tick=3, channel=0, data=[51, 73]),
   midi.NoteOnEvent(tick=11, channel=0, data=[49, 0]),
   midi.NoteOnEvent(tick=2, channel=0, data=[64, 77]),
   midi.NoteOnEvent(tick=7, channel=0, data=[52, 77]),
   midi.NoteOnEvent(tick=6, channel=0, data=[51, 0]),
   midi.NoteOnEvent(tick=76, channel=0, data=[68, 86]),
   midi.NoteOnEvent(tick=2, channel=0, data=[71, 86]),
   midi.NoteOnEvent(tick=23, channel=0, data=[52, 0]),
   midi.NoteOnEvent(tick=65, channel=0, data=[71, 0]),
   midi.NoteOnEvent(tick=4, channel=0, data=[73, 86]),
   midi.NoteOnEvent(tick=0, channel=0, data=[69, 91]),
   midi.NoteOnEvent(tick=1, channel=0, data=[64, 0]),
   midi.NoteOnEvent(tick=9, channel=0, data=[68, 0]),
   midi.NoteOnEvent(tick=84, channel=0, data=[63, 81]),
   midi.NoteOnEvent(tick=35, channel=0, data=[35, 77]),
   midi.NoteOnEvent(tick=7, channel=0, data=[63, 0]),
   midi.NoteOnEvent(tick=12, channel=0, data=[37, 73]),
   midi.NoteOnEvent(tick=7, channel=0, data=[73, 0]),
   midi.NoteOnEvent(tick=1, channel=0, data=[69, 0]),
   midi.NoteOnEvent(tick=3, channel=0, data=[39, 69]),
   midi.NoteOnEvent(tick=1, channel=0, data=[35, 0]),
   midi.NoteOnEvent(tick=13, channel=0, data=[37, 0]),
   midi.NoteOnEvent(tick=7, channel=0, data=[64, 52]),
   midi.NoteOnEvent(tick=1, channel=0, data=[40, 73]),
   midi.NoteOnEvent(tick=9, channel=0, data=[39, 0]),
   midi.NoteOnEvent(tick=79, channel=0, data=[68, 81]),
   midi.NoteOnEvent(tick=0, channel=0, data=[71, 81]),
   midi.NoteOnEvent(tick=22, channel=0, data=[40, 0]),
   midi.NoteOnEvent(tick=64, channel=0, data=[71, 0]),
   midi.NoteOnEvent(tick=4, channel=0, data=[64, 0]),
   midi.NoteOnEvent(tick=6, channel=0, data=[72, 86]),
   midi.NoteOnEvent(tick=1, channel=0, data=[69, 91]),
   midi.NoteOnEvent(tick=5, channel=0, data=[68, 0]),
   midi.NoteOnEvent(tick=84, channel=0, data=[63, 86]),
   midi.NoteOnEvent(tick=38, channel=0, data=[47, 81]),
   midi.NoteOnEvent(tick=10, channel=0, data=[63, 0]),
   midi.NoteOnEvent(tick=3, channel=0, data=[72, 0]),
   midi.NoteOnEvent(tick=3, channel=0, data=[49, 91]),
   midi.NoteOnEvent(tick=5, channel=0, data=[69, 0]),
   midi.NoteOnEvent(tick=8, channel=0, data=[51, 77]),
   midi.NoteOnEvent(tick=1, channel=0, data=[47, 0]),
   midi.NoteOnEvent(tick=15, channel=0, data=[49, 0]),
   midi.NoteOnEvent(tick=2, channel=0, data=[52, 102]),
   midi.NoteOnEvent(tick=6, channel=0, data=[64, 91]),
   midi.NoteOnEvent(tick=5, channel=0, data=[51, 0]),
   midi.NoteOnEvent(tick=84, channel=0, data=[68, 86]),
   midi.NoteOnEvent(tick=1, channel=0, data=[71, 86]),
   midi.NoteOnEvent(tick=21, channel=0, data=[52, 0]),
   midi.NoteOnEvent(tick=63, channel=0, data=[71, 0]),
   midi.NoteOnEvent(tick=9, channel=0, data=[69, 102]),
   midi.NoteOnEvent(tick=0, channel=0, data=[73, 81]),
   midi.NoteOnEvent(tick=6, channel=0, data=[64, 0]),
   midi.NoteOnEvent(tick=3, channel=0, data=[68, 0]),
   midi.NoteOnEvent(tick=80, channel=0, data=[63, 77]),
   midi.NoteOnEvent(tick=33, channel=0, data=[35, 77]),
   midi.NoteOnEvent(tick=15, channel=0, data=[63, 0]),
   midi.NoteOnEvent(tick=2, channel=0, data=[37, 73]),
   midi.NoteOnEvent(tick=6, channel=0, data=[73, 0]),
   midi.NoteOnEvent(tick=2, channel=0, data=[69, 0]),
   midi.NoteOnEvent(tick=5, channel=0, data=[39, 77]),
   midi.NoteOnEvent(tick=4, channel=0, data=[35, 0]),
   midi.NoteOnEvent(tick=15, channel=0, data=[37, 0]),
   midi.NoteOnEvent(tick=1, channel=0, data=[40, 86]),
   midi.NoteOnEvent(tick=5, channel=0, data=[64, 81]),
   midi.NoteOnEvent(tick=8, channel=0, data=[39, 0]),
   midi.NoteOnEvent(tick=12, channel=0, data=[40, 0]),
   midi.NoteOnEvent(tick=4, channel=0, data=[64, 0]),
   midi.NoteOnEvent(tick=67, channel=0, data=[68, 66]),
   midi.NoteOnEvent(tick=2, channel=0, data=[52, 66]),
   midi.NoteOnEvent(tick=0, channel=0, data=[59, 59]),
   midi.NoteOnEvent(tick=1, channel=0, data=[71, 57]),
   midi.NoteOnEvent(tick=10, channel=0, data=[71, 0]),
   midi.NoteOnEvent(tick=0, channel=0, data=[59, 0]),
   midi.NoteOnEvent(tick=3, channel=0, data=[52, 0]),
   midi.NoteOnEvent(tick=0, channel=0, data=[68, 0]),
   midi.NoteOnEvent(tick=76, channel=0, data=[54, 50]),
   midi.NoteOnEvent(tick=0, channel=0, data=[59, 54]),
   midi.NoteOnEvent(tick=1, channel=0, data=[69, 69]),
   midi.NoteOnEvent(tick=1, channel=0, data=[75, 57]),
   midi.NoteOnEvent(tick=8, channel=0, data=[59, 0]),
   midi.NoteOnEvent(tick=1, channel=0, data=[69, 0]),
   midi.NoteOnEvent(tick=2, channel=0, data=[54, 0]),
   midi.NoteOnEvent(tick=5, channel=0, data=[75, 0]),
   midi.NoteOnEvent(tick=74, channel=0, data=[59, 57]),
   midi.NoteOnEvent(tick=0, channel=0, data=[76, 69]),
   midi.NoteOnEvent(tick=1, channel=0, data=[71, 66]),
   midi.NoteOnEvent(tick=1, channel=0, data=[56, 54]),
   midi.NoteOnEvent(tick=12, channel=0, data=[76, 0]),
   midi.NoteOnEvent(tick=1, channel=0, data=[56, 0]),
   midi.NoteOnEvent(tick=2, channel=0, data=[71, 0]),
   midi.NoteOnEvent(tick=3, channel=0, data=[59, 0]),
   midi.NoteOnEvent(tick=73, channel=0, data=[66, 54]),
   midi.NoteOnEvent(tick=0, channel=0, data=[69, 66]),
   midi.NoteOnEvent(tick=0, channel=0, data=[73, 69]),
   midi.NoteOnEvent(tick=1, channel=0, data=[61, 50]),
   midi.NoteOnEvent(tick=2, channel=0, data=[80, 59]),
   midi.NoteOnEvent(tick=0, channel=0, data=[57, 54]),
   midi.ControlChangeEvent(tick=4, channel=0, data=[64, 127]),
   midi.NoteOnEvent(tick=56, channel=0, data=[69, 0]),
   midi.NoteOnEvent(tick=21, channel=0, data=[61, 0]),
   midi.NoteOnEvent(tick=1, channel=0, data=[73, 0]),
   midi.NoteOnEvent(tick=2, channel=0, data=[57, 0]),
   midi.NoteOnEvent(tick=4, channel=0, data=[80, 0]),
   midi.NoteOnEvent(tick=10, channel=0, data=[66, 0]),
   midi.NoteOnEvent(tick=34, channel=0, data=[78, 57]),
   midi.NoteOnEvent(tick=24, channel=0, data=[78, 0]),
   midi.NoteOnEvent(tick=24, channel=0, data=[76, 66]),
   midi.NoteOnEvent(tick=0, channel=0, data=[68, 50]),
   midi.ControlChangeEvent(tick=1, channel=0, data=[64, 0]),
   midi.NoteOnEvent(tick=0, channel=0, data=[71, 50]),
   midi.NoteOnEvent(tick=1, channel=0, data=[59, 52]),
   midi.NoteOnEvent(tick=9, channel=0, data=[71, 0]),
   midi.NoteOnEvent(tick=3, channel=0, data=[59, 0]),
   midi.NoteOnEvent(tick=2, channel=0, data=[76, 0]),
   midi.NoteOnEvent(tick=1, channel=0, data=[68, 0]),
   midi.NoteOnEvent(tick=73, channel=0, data=[75, 59]),
   midi.NoteOnEvent(tick=0, channel=0, data=[66, 50]),
   midi.NoteOnEvent(tick=1, channel=0, data=[59, 57]),
   midi.NoteOnEvent(tick=2, channel=0, data=[71, 54]),
   midi.NoteOnEvent(tick=11, channel=0, data=[71, 0]),
   midi.NoteOnEvent(tick=1, channel=0, data=[59, 0]),
   midi.NoteOnEvent(tick=5, channel=0, data=[75, 0]),
   midi.NoteOnEvent(tick=1, channel=0, data=[66, 0]),
   midi.ControlChangeEvent(tick=70, channel=0, data=[64, 127]),
   midi.NoteOnEvent(tick=2, channel=0, data=[71, 86]),
   midi.NoteOnEvent(tick=25, channel=0, data=[71, 0]),
   midi.ControlChangeEvent(tick=53, channel=0, data=[64, 0]),
   midi.NoteOnEvent(tick=9, channel=0, data=[59, 69]),
   midi.NoteOnEvent(tick=3, channel=0, data=[56, 69]),
   midi.NoteOnEvent(tick=1, channel=0, data=[71, 81]),
   midi.NoteOnEvent(tick=1, channel=0, data=[76, 91]),
   midi.NoteOnEvent(tick=17, channel=0, data=[59, 0]),
   midi.ControlChangeEvent(tick=1, channel=0, data=[64, 127]),
   midi.NoteOnEvent(tick=1, channel=0, data=[71, 0]),
   midi.NoteOnEvent(tick=3, channel=0, data=[76, 0]),
   midi.NoteOnEvent(tick=1, channel=0, data=[56, 0]),
   midi.ControlChangeEvent(tick=51, channel=0, data=[64, 0]),
   midi.NoteOnEvent(tick=15, channel=0, data=[63, 77]),
   midi.NoteOnEvent(tick=1, channel=0, data=[78, 86]),
   midi.NoteOnEvent(tick=0, channel=0, data=[54, 69]),
   midi.NoteOnEvent(tick=1, channel=0, data=[71, 81]),
   midi.ControlChangeEvent(tick=13, channel=0, data=[64, 127]),
   midi.NoteOnEvent(tick=3, channel=0, data=[71, 0]),
   midi.NoteOnEvent(tick=2, channel=0, data=[63, 0]),
   midi.NoteOnEvent(tick=2, channel=0, data=[78, 0]),
   midi.NoteOnEvent(tick=1, channel=0, data=[54, 0]),
   midi.ControlChangeEvent(tick=62, channel=0, data=[64, 0]),
   midi.NoteOnEvent(tick=13, channel=0, data=[80, 86]),
   midi.NoteOnEvent(tick=1, channel=0, data=[52, 91]),
   midi.NoteOnEvent(tick=0, channel=0, data=[71, 91]),
   midi.NoteOnEvent(tick=1, channel=0, data=[64, 81]),
   midi.NoteOnEvent(tick=14, channel=0, data=[64, 0]),
   midi.NoteOnEvent(tick=1, channel=0, data=[71, 0]),
   midi.NoteOnEvent(tick=3, channel=0, data=[52, 0]),
   midi.ControlChangeEvent(tick=0, channel=0, data=[64, 127]),
   midi.NoteOnEvent(tick=6, channel=0, data=[80, 0]),
   midi.ControlChangeEvent(tick=64, channel=0, data=[64, 0]),
   midi.NoteOnEvent(tick=4, channel=0, data=[73, 91]),
   midi.NoteOnEvent(tick=1, channel=0, data=[83, 91]),
   midi.NoteOnEvent(tick=3, channel=0, data=[68, 77]),
   midi.NoteOnEvent(tick=2, channel=0, data=[57, 66]),
   midi.ControlChangeEvent(tick=27, channel=0, data=[64, 127]),
   midi.NoteOnEvent(tick=2, channel=0, data=[68, 0]),
   midi.NoteOnEvent(tick=64, channel=0, data=[83, 0]),
   midi.NoteOnEvent(tick=14, channel=0, data=[73, 0]),
   midi.NoteOnEvent(tick=17, channel=0, data=[66, 73]),
   midi.NoteOnEvent(tick=4, channel=0, data=[81, 86]),
   midi.NoteOnEvent(tick=9, channel=0, data=[57, 0]),
   midi.NoteOnEvent(tick=3, channel=0, data=[66, 0]),
   midi.NoteOnEvent(tick=14, channel=0, data=[81, 0]),
   midi.ControlChangeEvent(tick=13, channel=0, data=[64, 0]),
   midi.NoteOnEvent(tick=4, channel=0, data=[80, 81]),
   midi.NoteOnEvent(tick=3, channel=0, data=[71, 81]),
   midi.NoteOnEvent(tick=0, channel=0, data=[64, 77]),
   midi.NoteOnEvent(tick=0, channel=0, data=[59, 77]),
   midi.NoteOnEvent(tick=14, channel=0, data=[64, 0]),
   midi.NoteOnEvent(tick=6, channel=0, data=[80, 0]),
   midi.NoteOnEvent(tick=0, channel=0, data=[71, 0]),
   midi.NoteOnEvent(tick=3, channel=0, data=[59, 0]),
   midi.NoteOnEvent(tick=65, channel=0, data=[78, 81]),
   midi.NoteOnEvent(tick=0, channel=0, data=[63, 77]),
   midi.NoteOnEvent(tick=0, channel=0, data=[71, 86]),
   midi.NoteOnEvent(tick=2, channel=0, data=[59, 77]),
   midi.NoteOnEvent(tick=18, channel=0, data=[59, 0]),
   midi.NoteOnEvent(tick=0, channel=0, data=[71, 0]),
   midi.NoteOnEvent(tick=1, channel=0, data=[63, 0]),
   midi.NoteOnEvent(tick=4, channel=0, data=[78, 0]),
   midi.NoteOnEvent(tick=69, channel=0, data=[71, 86]),
   midi.NoteOnEvent(tick=0, channel=0, data=[83, 102]),
   midi.ControlChangeEvent(tick=3, channel=0, data=[64, 127]),
   midi.NoteOnEvent(tick=16, channel=0, data=[71, 0]),
   midi.NoteOnEvent(tick=7, channel=0, data=[83, 0]),
   midi.ControlChangeEvent(tick=58, channel=0, data=[64, 0]),
   midi.NoteOnEvent(tick=8, channel=0, data=[56, 73]),
   midi.NoteOnEvent(tick=2, channel=0, data=[71, 86]),
   midi.NoteOnEvent(tick=0, channel=0, data=[83, 91]),
   midi.NoteOnEvent(tick=1, channel=0, data=[76, 91]),
   midi.NoteOnEvent(tick=2, channel=0, data=[59, 66]),
   midi.NoteOnEvent(tick=1, channel=0, data=[64, 66]),
   midi.NoteOnEvent(tick=9, channel=0, data=[64, 0]),
   midi.NoteOnEvent(tick=3, channel=0, data=[71, 0]),
   midi.ControlChangeEvent(tick=5, channel=0, data=[64, 127]),
   midi.NoteOnEvent(tick=1, channel=0, data=[76, 0]),
   midi.NoteOnEvent(tick=2, channel=0, data=[83, 0]),
   midi.NoteOnEvent(tick=1, channel=0, data=[59, 0]),
   midi.NoteOnEvent(tick=1, channel=0, data=[56, 0]),
   midi.ControlChangeEvent(tick=53, channel=0, data=[64, 0]),
   midi.NoteOnEvent(tick=15, channel=0, data=[75, 91]),
   midi.NoteOnEvent(tick=0, channel=0, data=[83, 91]),
   midi.NoteOnEvent(tick=0, channel=0, data=[71, 91]),
   midi.NoteOnEvent(tick=0, channel=0, data=[54, 59]),
   midi.NoteOnEvent(tick=0, channel=0, data=[63, 66]),
   midi.NoteOnEvent(tick=0, channel=0, data=[57, 73]),
   midi.NoteOnEvent(tick=1, channel=0, data=[78, 86]),
   midi.NoteOnEvent(tick=3, channel=0, data=[59, 69]),
   midi.NoteOnEvent(tick=7, channel=0, data=[63, 0]),
   midi.NoteOnEvent(tick=2, channel=0, data=[71, 0]),
   midi.NoteOnEvent(tick=5, channel=0, data=[75, 0]),
   midi.ControlChangeEvent(tick=0, channel=0, data=[64, 127]),
   midi.NoteOnEvent(tick=1, channel=0, data=[54, 0]),
   midi.NoteOnEvent(tick=2, channel=0, data=[57, 0]),
   midi.NoteOnEvent(tick=1, channel=0, data=[83, 0]),
   midi.NoteOnEvent(tick=2, channel=0, data=[78, 0]),
   midi.NoteOnEvent(tick=4, channel=0, data=[59, 0]),
   midi.ControlChangeEvent(tick=54, channel=0, data=[64, 0]),
   midi.NoteOnEvent(tick=10, channel=0, data=[64, 77]),
   midi.NoteOnEvent(tick=2, channel=0, data=[80, 81]),
   midi.NoteOnEvent(tick=0, channel=0, data=[71, 91]),
   midi.NoteOnEvent(tick=0, channel=0, data=[56, 77]),
   midi.NoteOnEvent(tick=0, channel=0, data=[52, 73]),
   midi.NoteOnEvent(tick=0, channel=0, data=[83, 86]),
   midi.NoteOnEvent(tick=1, channel=0, data=[76, 102]),
   midi.NoteOnEvent(tick=2, channel=0, data=[59, 73]),
   midi.NoteOnEvent(tick=8, channel=0, data=[59, 0]),
   midi.NoteOnEvent(tick=1, channel=0, data=[71, 0]),
   midi.NoteOnEvent(tick=0, channel=0, data=[64, 0]),
   midi.ControlChangeEvent(tick=8, channel=0, data=[64, 127]),
   midi.NoteOnEvent(tick=1, channel=0, data=[76, 0]),
   midi.NoteOnEvent(tick=1, channel=0, data=[56, 0]),
   midi.NoteOnEvent(tick=1, channel=0, data=[52, 0]),
   midi.NoteOnEvent(tick=3, channel=0, data=[83, 0]),
   midi.NoteOnEvent(tick=0, channel=0, data=[80, 0]),
   midi.ControlChangeEvent(tick=66, channel=0, data=[64, 0]),
   midi.NoteOnEvent(tick=1, channel=0, data=[54, 52]),
   midi.NoteOnEvent(tick=3, channel=0, data=[84, 102]),
   midi.NoteOnEvent(tick=0, channel=0, data=[72, 91]),
   midi.NoteOnEvent(tick=0, channel=0, data=[49, 77]),
   midi.NoteOnEvent(tick=2, channel=0, data=[45, 69]),
   midi.NoteOnEvent(tick=19, channel=0, data=[72, 0]),
   midi.ControlChangeEvent(tick=9, channel=0, data=[64, 127]),
   midi.NoteOnEvent(tick=5, channel=0, data=[84, 0]),
   midi.NoteOnEvent(tick=54, channel=0, data=[73, 91]),
   midi.NoteOnEvent(tick=0, channel=0, data=[85, 91]),
   midi.ControlChangeEvent(tick=11, channel=0, data=[64, 0]),
   midi.NoteOnEvent(tick=72, channel=0, data=[85, 0]),
   midi.NoteOnEvent(tick=1, channel=0, data=[54, 0]),
   midi.NoteOnEvent(tick=3, channel=0, data=[73, 0]),
   midi.NoteOnEvent(tick=1, channel=0, data=[49, 0]),
   midi.NoteOnEvent(tick=5, channel=0, data=[45, 0]),
   midi.NoteOnEvent(tick=148, channel=0, data=[35, 54]),
   midi.NoteOnEvent(tick=0, channel=0, data=[47, 52]),
   midi.NoteOnEvent(tick=93, channel=0, data=[63, 50]),
   midi.NoteOnEvent(tick=1, channel=0, data=[57, 50]),
   midi.NoteOnEvent(tick=62, channel=0, data=[47, 0]),
   midi.NoteOnEvent(tick=4, channel=0, data=[63, 0]),
   midi.NoteOnEvent(tick=4, channel=0, data=[35, 0]),
   midi.NoteOnEvent(tick=0, channel=0, data=[57, 0]),
   midi.NoteOnEvent(tick=151, channel=0, data=[40, 50]),
   midi.ControlChangeEvent(tick=10, channel=0, data=[64, 127]),
   midi.NoteOnEvent(tick=32, channel=0, data=[52, 57]),
   midi.NoteOnEvent(tick=1, channel=0, data=[64, 57]),
   midi.NoteOnEvent(tick=4, channel=0, data=[56, 38]),
   midi.NoteOnEvent(tick=10, channel=0, data=[56, 0]),
   midi.NoteOnEvent(tick=1, channel=0, data=[52, 0]),
   midi.NoteOnEvent(tick=3, channel=0, data=[64, 0]),
   midi.NoteOnEvent(tick=31, channel=0, data=[56, 29]),
   midi.NoteOnEvent(tick=2, channel=0, data=[64, 28]),
   midi.NoteOnEvent(tick=1, channel=0, data=[52, 27]),
   midi.NoteOnEvent(tick=9, channel=0, data=[64, 0]),
   midi.NoteOnEvent(tick=1, channel=0, data=[56, 0]),
   midi.NoteOnEvent(tick=2, channel=0, data=[52, 0]),
   midi.NoteOnEvent(tick=22, channel=0, data=[52, 50]),
   midi.NoteOnEvent(tick=0, channel=0, data=[56, 45]),
   midi.NoteOnEvent(tick=2, channel=0, data=[64, 35]),
   midi.NoteOnEvent(tick=13, channel=0, data=[52, 0]),
   midi.NoteOnEvent(tick=3, channel=0, data=[64, 0]),
   midi.NoteOnEvent(tick=2, channel=0, data=[56, 0]),
   midi.NoteOnEvent(tick=25, channel=0, data=[45, 77]),
   midi.NoteOnEvent(tick=8, channel=0, data=[40, 0]),
   midi.ControlChangeEvent(tick=1, channel=0, data=[64, 0]),
   midi.NoteOnEvent(tick=34, channel=0, data=[52, 50]),
   midi.NoteOnEvent(tick=0, channel=0, data=[64, 50]),
   midi.ControlChangeEvent(tick=1, channel=0, data=[64, 127]),
   midi.NoteOnEvent(tick=3, channel=0, data=[61, 41]),
   midi.NoteOnEvent(tick=5, channel=0, data=[52, 0]),
   midi.NoteOnEvent(tick=2, channel=0, data=[61, 0]),
   midi.NoteOnEvent(tick=1, channel=0, data=[64, 0]),
   midi.NoteOnEvent(tick=32, channel=0, data=[64, 41]),
   midi.NoteOnEvent(tick=0, channel=0, data=[52, 59]),
   midi.NoteOnEvent(tick=1, channel=0, data=[61, 37]),
   midi.NoteOnEvent(tick=11, channel=0, data=[64, 0]),
   midi.NoteOnEvent(tick=3, channel=0, data=[61, 0]),
   midi.NoteOnEvent(tick=1, channel=0, data=[52, 0]),
   midi.NoteOnEvent(tick=26, channel=0, data=[64, 47]),
   midi.NoteOnEvent(tick=1, channel=0, data=[61, 37]),
   midi.NoteOnEvent(tick=0, channel=0, data=[52, 59]),
   midi.NoteOnEvent(tick=21, channel=0, data=[52, 0]),
   midi.NoteOnEvent(tick=4, channel=0, data=[64, 0]),
   midi.NoteOnEvent(tick=3, channel=0, data=[61, 0]),
   midi.NoteOnEvent(tick=16, channel=0, data=[44, 77]),
   midi.NoteOnEvent(tick=1, channel=0, data=[45, 0]),
   midi.ControlChangeEvent(tick=8, channel=0, data=[64, 0]),
   midi.NoteOnEvent(tick=33, channel=0, data=[64, 41]),
   midi.NoteOnEvent(tick=3, channel=0, data=[59, 50]),
   midi.ControlChangeEvent(tick=1, channel=0, data=[64, 127]),
   midi.NoteOnEvent(tick=2, channel=0, data=[52, 17]),
   midi.NoteOnEvent(tick=4, channel=0, data=[64, 0]),
   midi.NoteOnEvent(tick=3, channel=0, data=[59, 0]),
   midi.NoteOnEvent(tick=4, channel=0, data=[52, 0]),
   midi.NoteOnEvent(tick=31, channel=0, data=[64, 47]),
   midi.NoteOnEvent(tick=0, channel=0, data=[52, 41]),
   midi.NoteOnEvent(tick=2, channel=0, data=[59, 50]),
   midi.NoteOnEvent(tick=10, channel=0, data=[59, 0]),
   midi.NoteOnEvent(tick=0, channel=0, data=[64, 0]),
   midi.NoteOnEvent(tick=4, channel=0, data=[52, 0]),
   midi.NoteOnEvent(tick=29, channel=0, data=[64, 47]),
   midi.NoteOnEvent(tick=2, channel=0, data=[52, 41]),
   midi.NoteOnEvent(tick=0, channel=0, data=[59, 59]),
   midi.NoteOnEvent(tick=11, channel=0, data=[64, 0]),
   midi.NoteOnEvent(tick=1, channel=0, data=[52, 0]),
   midi.NoteOnEvent(tick=10, channel=0, data=[59, 0]),
   midi.NoteOnEvent(tick=6, channel=0, data=[44, 0]),
   midi.NoteOnEvent(tick=16, channel=0, data=[49, 86]),
   midi.ControlChangeEvent(tick=4, channel=0, data=[64, 0]),
   midi.NoteOnEvent(tick=39, channel=0, data=[52, 59]),
   midi.NoteOnEvent(tick=0, channel=0, data=[64, 57]),
   midi.ControlChangeEvent(tick=3, channel=0, data=[64, 127]),
   midi.NoteOnEvent(tick=2, channel=0, data=[57, 54]),
   midi.NoteOnEvent(tick=7, channel=0, data=[64, 0]),
   midi.NoteOnEvent(tick=0, channel=0, data=[52, 0]),
   midi.NoteOnEvent(tick=2, channel=0, data=[57, 0]),
   midi.NoteOnEvent(tick=33, channel=0, data=[52, 45]),
   midi.NoteOnEvent(tick=2, channel=0, data=[57, 50]),
   midi.NoteOnEvent(tick=3, channel=0, data=[64, 37]),
   midi.NoteOnEvent(tick=7, channel=0, data=[57, 0]),
   midi.NoteOnEvent(tick=1, channel=0, data=[52, 0]),
   midi.NoteOnEvent(tick=1, channel=0, data=[64, 0]),
   midi.NoteOnEvent(tick=27, channel=0, data=[52, 45]),
   midi.NoteOnEvent(tick=2, channel=0, data=[57, 47]),
   midi.NoteOnEvent(tick=3, channel=0, data=[64, 40]),
   midi.NoteOnEvent(tick=9, channel=0, data=[52, 0]),
   midi.NoteOnEvent(tick=2, channel=0, data=[57, 0]),
   midi.NoteOnEvent(tick=1, channel=0, data=[64, 0]),
   midi.NoteOnEvent(tick=28, channel=0, data=[47, 81]),
   midi.NoteOnEvent(tick=7, channel=0, data=[49, 0]),
   midi.ControlChangeEvent(tick=2, channel=0, data=[64, 0]),
   midi.ControlChangeEvent(tick=34, channel=0, data=[64, 127]),
   midi.NoteOnEvent(tick=2, channel=0, data=[52, 59]),
   midi.NoteOnEvent(tick=2, channel=0, data=[64, 57]),
   midi.NoteOnEvent(tick=0, channel=0, data=[56, 52]),
   midi.NoteOnEvent(tick=9, channel=0, data=[56, 0]),
   midi.NoteOnEvent(tick=0, channel=0, data=[64, 0]),
   midi.NoteOnEvent(tick=3, channel=0, data=[52, 0]),
   midi.NoteOnEvent(tick=30, channel=0, data=[52, 47]),
   midi.NoteOnEvent(tick=1, channel=0, data=[56, 57]),
   midi.NoteOnEvent(tick=2, channel=0, data=[64, 52]),
   midi.NoteOnEvent(tick=10, channel=0, data=[64, 0]),
   midi.NoteOnEvent(tick=3, channel=0, data=[56, 0]),
   midi.NoteOnEvent(tick=0, channel=0, data=[52, 0]),
   midi.NoteOnEvent(tick=24, channel=0, data=[52, 59]),
   midi.NoteOnEvent(tick=3, channel=0, data=[64, 54]),
   midi.NoteOnEvent(tick=1, channel=0, data=[56, 50]),
   midi.NoteOnEvent(tick=17, channel=0, data=[52, 0]),
   midi.NoteOnEvent(tick=7, channel=0, data=[56, 0]),
   midi.NoteOnEvent(tick=1, channel=0, data=[64, 0]),
   midi.NoteOnEvent(tick=11, channel=0, data=[47, 0]),
   midi.NoteOnEvent(tick=8, channel=0, data=[45, 91]),
   midi.ControlChangeEvent(tick=9, channel=0, data=[64, 0]),
   midi.ControlChangeEvent(tick=35, channel=0, data=[64, 127]),
   midi.NoteOnEvent(tick=1, channel=0, data=[52, 69]),
   midi.NoteOnEvent(tick=0, channel=0, data=[61, 66]),
   midi.NoteOnEvent(tick=2, channel=0, data=[64, 59]),
   midi.NoteOnEvent(tick=8, channel=0, data=[64, 0]),
   midi.NoteOnEvent(tick=2, channel=0, data=[52, 0]),
   midi.NoteOnEvent(tick=2, channel=0, data=[61, 0]),
   midi.NoteOnEvent(tick=30, channel=0, data=[52, 57]),
   midi.NoteOnEvent(tick=3, channel=0, data=[61, 47]),
   midi.NoteOnEvent(tick=0, channel=0, data=[64, 57]),
   midi.NoteOnEvent(tick=11, channel=0, data=[64, 0]),
   midi.NoteOnEvent(tick=3, channel=0, data=[52, 0]),
   midi.NoteOnEvent(tick=1, channel=0, data=[61, 0]),
   midi.NoteOnEvent(tick=23, channel=0, data=[52, 52]),
   midi.NoteOnEvent(tick=3, channel=0, data=[64, 52]),
   midi.NoteOnEvent(tick=2, channel=0, data=[61, 40]),
   midi.NoteOnEvent(tick=20, channel=0, data=[52, 0]),
   midi.NoteOnEvent(tick=2, channel=0, data=[64, 0]),
   midi.NoteOnEvent(tick=2, channel=0, data=[61, 0]),
   midi.NoteOnEvent(tick=18, channel=0, data=[45, 0]),
   midi.NoteOnEvent(tick=3, channel=0, data=[44, 86]),
   midi.ControlChangeEvent(tick=2, channel=0, data=[64, 0]),
   midi.ControlChangeEvent(tick=35, channel=0, data=[64, 127]),
   midi.NoteOnEvent(tick=6, channel=0, data=[52, 69]),
   midi.NoteOnEvent(tick=3, channel=0, data=[64, 52]),
   midi.NoteOnEvent(tick=1, channel=0, data=[59, 69]),
   midi.NoteOnEvent(tick=10, channel=0, data=[59, 0]),
   midi.NoteOnEvent(tick=1, channel=0, data=[64, 0]),
   midi.NoteOnEvent(tick=2, channel=0, data=[52, 0]),
   midi.NoteOnEvent(tick=6, channel=0, data=[44, 0]),
   midi.NoteOnEvent(tick=23, channel=0, data=[52, 57]),
   midi.NoteOnEvent(tick=1, channel=0, data=[59, 59]),
   midi.NoteOnEvent(tick=2, channel=0, data=[64, 66]),
   midi.NoteOnEvent(tick=9, channel=0, data=[64, 0]),
   midi.NoteOnEvent(tick=0, channel=0, data=[59, 0]),
   midi.NoteOnEvent(tick=4, channel=0, data=[52, 0]),
   midi.NoteOnEvent(tick=24, channel=0, data=[52, 54]),
   midi.NoteOnEvent(tick=1, channel=0, data=[59, 59]),
   midi.NoteOnEvent(tick=3, channel=0, data=[64, 59]),
   midi.NoteOnEvent(tick=10, channel=0, data=[64, 0]),
   midi.NoteOnEvent(tick=4, channel=0, data=[52, 0]),
   midi.NoteOnEvent(tick=5, channel=0, data=[59, 0]),
   midi.NoteOnEvent(tick=25, channel=0, data=[29, 91]),
   midi.NoteOnEvent(tick=0, channel=0, data=[41, 102]),
   midi.ControlChangeEvent(tick=2, channel=0, data=[64, 0]),
   midi.ControlChangeEvent(tick=32, channel=0, data=[64, 127]),
   midi.NoteOnEvent(tick=8, channel=0, data=[52, 69]),
   midi.NoteOnEvent(tick=2, channel=0, data=[63, 57]),
   midi.NoteOnEvent(tick=1, channel=0, data=[64, 66]),
   midi.NoteOnEvent(tick=2, channel=0, data=[57, 73]),
   midi.NoteOnEvent(tick=6, channel=0, data=[64, 0]),
   midi.NoteOnEvent(tick=3, channel=0, data=[57, 0]),
   midi.NoteOnEvent(tick=1, channel=0, data=[52, 0]),
   midi.NoteOnEvent(tick=3, channel=0, data=[63, 0]),
   midi.NoteOnEvent(tick=17, channel=0, data=[41, 0]),
   midi.NoteOnEvent(tick=9, channel=0, data=[52, 37]),
   midi.NoteOnEvent(tick=2, channel=0, data=[63, 41]),
   midi.NoteOnEvent(tick=2, channel=0, data=[57, 66]),
   midi.NoteOnEvent(tick=1, channel=0, data=[64, 52]),
   midi.NoteOnEvent(tick=1, channel=0, data=[29, 0]),
   midi.NoteOnEvent(tick=8, channel=0, data=[64, 0]),
   midi.NoteOnEvent(tick=5, channel=0, data=[63, 0]),
   midi.NoteOnEvent(tick=1, channel=0, data=[52, 0]),
   midi.NoteOnEvent(tick=2, channel=0, data=[57, 0]),
   midi.NoteOnEvent(tick=19, channel=0, data=[52, 54]),
   midi.NoteOnEvent(tick=2, channel=0, data=[57, 52]),
   midi.NoteOnEvent(tick=4, channel=0, data=[63, 28]),
   midi.NoteOnEvent(tick=1, channel=0, data=[64, 54]),
   midi.NoteOnEvent(tick=11, channel=0, data=[64, 0]),
   midi.NoteOnEvent(tick=12, channel=0, data=[57, 0]),
   midi.NoteOnEvent(tick=1, channel=0, data=[63, 0]),
   midi.NoteOnEvent(tick=1, channel=0, data=[52, 0]),
   midi.NoteOnEvent(tick=18, channel=0, data=[40, 91]),
   midi.NoteOnEvent(tick=1, channel=0, data=[28, 91]),
   midi.ControlChangeEvent(tick=2, channel=0, data=[64, 0]),
   midi.ControlChangeEvent(tick=37, channel=0, data=[64, 127]),
   midi.NoteOnEvent(tick=4, channel=0, data=[52, 59]),
   midi.NoteOnEvent(tick=1, channel=0, data=[64, 50]),
   midi.NoteOnEvent(tick=1, channel=0, data=[56, 50]),
   midi.NoteOnEvent(tick=9, channel=0, data=[64, 0]),
   midi.NoteOnEvent(tick=1, channel=0, data=[56, 0]),
   midi.NoteOnEvent(tick=1, channel=0, data=[52, 0]),
   midi.NoteOnEvent(tick=6, channel=0, data=[40, 0]),
   midi.NoteOnEvent(tick=10, channel=0, data=[28, 0]),
   midi.NoteOnEvent(tick=13, channel=0, data=[52, 47]),
   midi.NoteOnEvent(tick=1, channel=0, data=[56, 50]),
   midi.NoteOnEvent(tick=1, channel=0, data=[64, 52]),
   midi.NoteOnEvent(tick=11, channel=0, data=[64, 0]),
   midi.NoteOnEvent(tick=2, channel=0, data=[52, 0]),
   midi.NoteOnEvent(tick=2, channel=0, data=[56, 0]),
   midi.NoteOnEvent(tick=26, channel=0, data=[52, 50]),
   midi.NoteOnEvent(tick=0, channel=0, data=[56, 54]),
   midi.NoteOnEvent(tick=4, channel=0, data=[64, 57]),
   midi.NoteOnEvent(tick=15, channel=0, data=[52, 0]),
   midi.NoteOnEvent(tick=2, channel=0, data=[56, 0]),
   midi.NoteOnEvent(tick=3, channel=0, data=[64, 0]),
   midi.NoteOnEvent(tick=24, channel=0, data=[30, 77]),
   midi.NoteOnEvent(tick=1, channel=0, data=[42, 86]),
   midi.ControlChangeEvent(tick=0, channel=0, data=[64, 0]),
   midi.ControlChangeEvent(tick=35, channel=0, data=[64, 127]),
   midi.NoteOnEvent(tick=9, channel=0, data=[52, 66]),
   midi.NoteOnEvent(tick=2, channel=0, data=[64, 54]),
   midi.NoteOnEvent(tick=1, channel=0, data=[63, 45]),
   midi.NoteOnEvent(tick=2, channel=0, data=[57, 59]),
   midi.NoteOnEvent(tick=7, channel=0, data=[64, 0]),
   midi.NoteOnEvent(tick=1, channel=0, data=[63, 0]),
   midi.NoteOnEvent(tick=0, channel=0, data=[57, 0]),
   midi.NoteOnEvent(tick=3, channel=0, data=[52, 0]),
   midi.NoteOnEvent(tick=9, channel=0, data=[42, 0]),
   midi.NoteOnEvent(tick=17, channel=0, data=[52, 45]),
   midi.NoteOnEvent(tick=1, channel=0, data=[30, 0]),
   midi.NoteOnEvent(tick=3, channel=0, data=[63, 27]),
   midi.NoteOnEvent(tick=1, channel=0, data=[57, 52]),
   midi.NoteOnEvent(tick=3, channel=0, data=[64, 17]),
   midi.NoteOnEvent(tick=5, channel=0, data=[63, 0]),
   midi.NoteOnEvent(tick=2, channel=0, data=[57, 0]),
   midi.NoteOnEvent(tick=1, channel=0, data=[52, 0]),
   midi.NoteOnEvent(tick=1, channel=0, data=[64, 0]),
   midi.NoteOnEvent(tick=23, channel=0, data=[52, 59]),
   midi.NoteOnEvent(tick=2, channel=0, data=[57, 54]),
   midi.NoteOnEvent(tick=3, channel=0, data=[63, 37]),
   midi.NoteOnEvent(tick=0, channel=0, data=[64, 45]),
   midi.NoteOnEvent(tick=10, channel=0, data=[63, 0]),
   midi.NoteOnEvent(tick=3, channel=0, data=[64, 0]),
   midi.NoteOnEvent(tick=2, channel=0, data=[52, 0]),
   midi.NoteOnEvent(tick=6, channel=0, data=[57, 0]),
   midi.ControlChangeEvent(tick=20, channel=0, data=[64, 0]),
   midi.NoteOnEvent(tick=3, channel=0, data=[28, 81]),
   midi.NoteOnEvent(tick=0, channel=0, data=[40, 73]),
   midi.ControlChangeEvent(tick=36, channel=0, data=[64, 127]),
   midi.NoteOnEvent(tick=5, channel=0, data=[56, 50]),
   midi.NoteOnEvent(tick=0, channel=0, data=[52, 50]),
   midi.NoteOnEvent(tick=0, channel=0, data=[64, 52]),
   midi.NoteOnEvent(tick=11, channel=0, data=[64, 0]),
   midi.NoteOnEvent(tick=1, channel=0, data=[52, 0]),
   midi.NoteOnEvent(tick=3, channel=0, data=[56, 0]),
   midi.NoteOnEvent(tick=14, channel=0, data=[28, 0]),
   midi.NoteOnEvent(tick=1, channel=0, data=[40, 0]),
   midi.NoteOnEvent(tick=17, channel=0, data=[52, 54]),
   midi.NoteOnEvent(tick=2, channel=0, data=[56, 47]),
   midi.NoteOnEvent(tick=0, channel=0, data=[64, 38]),
   midi.NoteOnEvent(tick=9, channel=0, data=[52, 0]),
   midi.NoteOnEvent(tick=1, channel=0, data=[64, 0]),
   midi.NoteOnEvent(tick=1, channel=0, data=[56, 0]),
   midi.NoteOnEvent(tick=27, channel=0, data=[56, 50]),
   midi.NoteOnEvent(tick=1, channel=0, data=[52, 50]),
   midi.NoteOnEvent(tick=1, channel=0, data=[64, 50]),
   midi.NoteOnEvent(tick=16, channel=0, data=[52, 0]),
   midi.NoteOnEvent(tick=6, channel=0, data=[64, 0]),
   midi.NoteOnEvent(tick=0, channel=0, data=[56, 0]),
   midi.NoteOnEvent(tick=20, channel=0, data=[41, 102]),
   midi.NoteOnEvent(tick=0, channel=0, data=[29, 102]),
   midi.ControlChangeEvent(tick=4, channel=0, data=[64, 0]),
   midi.ControlChangeEvent(tick=31, channel=0, data=[64, 127]),
   midi.NoteOnEvent(tick=12, channel=0, data=[52, 69]),
   midi.NoteOnEvent(tick=3, channel=0, data=[63, 52]),
   midi.NoteOnEvent(tick=0, channel=0, data=[64, 54]),
   midi.NoteOnEvent(tick=1, channel=0, data=[57, 66]),
   midi.NoteOnEvent(tick=8, channel=0, data=[64, 0]),
   midi.NoteOnEvent(tick=3, channel=0, data=[57, 0]),
   midi.NoteOnEvent(tick=1, channel=0, data=[63, 0]),
   midi.NoteOnEvent(tick=1, channel=0, data=[52, 0]),
   midi.NoteOnEvent(tick=14, channel=0, data=[41, 0]),
   midi.NoteOnEvent(tick=13, channel=0, data=[52, 52]),
   midi.NoteOnEvent(tick=3, channel=0, data=[63, 40]),
   midi.NoteOnEvent(tick=2, channel=0, data=[29, 0]),
   midi.NoteOnEvent(tick=0, channel=0, data=[57, 47]),
   midi.NoteOnEvent(tick=2, channel=0, data=[64, 45]),
   midi.NoteOnEvent(tick=8, channel=0, data=[64, 0]),
   midi.NoteOnEvent(tick=0, channel=0, data=[57, 0]),
   midi.NoteOnEvent(tick=3, channel=0, data=[63, 0]),
   midi.NoteOnEvent(tick=0, channel=0, data=[52, 0]),
   midi.NoteOnEvent(tick=23, channel=0, data=[52, 57]),
   midi.NoteOnEvent(tick=4, channel=0, data=[57, 59]),
   midi.NoteOnEvent(tick=1, channel=0, data=[64, 41]),
   midi.NoteOnEvent(tick=1, channel=0, data=[63, 17]),
   midi.NoteOnEvent(tick=9, channel=0, data=[64, 0]),
   midi.NoteOnEvent(tick=6, channel=0, data=[63, 0]),
   midi.NoteOnEvent(tick=0, channel=0, data=[52, 0]),
   midi.NoteOnEvent(tick=4, channel=0, data=[57, 0]),
   midi.NoteOnEvent(tick=24, channel=0, data=[40, 91]),
   midi.NoteOnEvent(tick=1, channel=0, data=[28, 86]),
   midi.ControlChangeEvent(tick=4, channel=0, data=[64, 0]),
   midi.ControlChangeEvent(tick=34, channel=0, data=[64, 127]),
   midi.NoteOnEvent(tick=4, channel=0, data=[52, 69]),
   midi.NoteOnEvent(tick=3, channel=0, data=[64, 54]),
   midi.NoteOnEvent(tick=1, channel=0, data=[56, 57]),
   midi.NoteOnEvent(tick=8, channel=0, data=[56, 0]),
   midi.NoteOnEvent(tick=0, channel=0, data=[64, 0]),
   midi.NoteOnEvent(tick=3, channel=0, data=[52, 0]),
   midi.NoteOnEvent(tick=13, channel=0, data=[40, 0]),
   midi.NoteOnEvent(tick=3, channel=0, data=[28, 0]),
   midi.NoteOnEvent(tick=14, channel=0, data=[52, 57]),
   midi.NoteOnEvent(tick=2, channel=0, data=[56, 59]),
   midi.NoteOnEvent(tick=1, channel=0, data=[64, 50]),
   midi.NoteOnEvent(tick=9, channel=0, data=[64, 0]),
   midi.NoteOnEvent(tick=2, channel=0, data=[52, 0]),
   midi.NoteOnEvent(tick=2, channel=0, data=[56, 0]),
   midi.NoteOnEvent(tick=24, channel=0, data=[56, 52]),
   midi.NoteOnEvent(tick=1, channel=0, data=[52, 57]),
   midi.NoteOnEvent(tick=4, channel=0, data=[64, 59]),
   midi.NoteOnEvent(tick=13, channel=0, data=[52, 0]),
   midi.NoteOnEvent(tick=2, channel=0, data=[56, 0]),
   midi.NoteOnEvent(tick=4, channel=0, data=[64, 0]),
   midi.NoteOnEvent(tick=25, channel=0, data=[30, 86]),
   midi.NoteOnEvent(tick=1, channel=0, data=[42, 91]),
   midi.ControlChangeEvent(tick=1, channel=0, data=[64, 0]),
   midi.ControlChangeEvent(tick=31, channel=0, data=[64, 127]),
   midi.NoteOnEvent(tick=11, channel=0, data=[52, 73]),
   midi.NoteOnEvent(tick=1, channel=0, data=[63, 66]),
   midi.NoteOnEvent(tick=2, channel=0, data=[57, 69]),
   midi.NoteOnEvent(tick=3, channel=0, data=[64, 50]),
   midi.NoteOnEvent(tick=7, channel=0, data=[30, 0]),
   midi.NoteOnEvent(tick=1, channel=0, data=[57, 0]),
   midi.NoteOnEvent(tick=2, channel=0, data=[64, 0]),
   midi.NoteOnEvent(tick=1, channel=0, data=[52, 0]),
   midi.NoteOnEvent(tick=3, channel=0, data=[63, 0]),
   midi.NoteOnEvent(tick=10, channel=0, data=[42, 0]),
   midi.NoteOnEvent(tick=14, channel=0, data=[63, 45]),
   midi.NoteOnEvent(tick=2, channel=0, data=[52, 69]),
   midi.NoteOnEvent(tick=3, channel=0, data=[64, 57]),
   midi.NoteOnEvent(tick=0, channel=0, data=[57, 57]),
   midi.NoteOnEvent(tick=9, channel=0, data=[64, 0]),
   midi.NoteOnEvent(tick=1, channel=0, data=[57, 0]),
   midi.NoteOnEvent(tick=4, channel=0, data=[52, 0]),
   midi.NoteOnEvent(tick=2, channel=0, data=[63, 0]),
   midi.NoteOnEvent(tick=21, channel=0, data=[52, 54]),
   midi.NoteOnEvent(tick=4, channel=0, data=[63, 26]),
   midi.NoteOnEvent(tick=3, channel=0, data=[57, 59]),
   midi.NoteOnEvent(tick=9, channel=0, data=[57, 0]),
   midi.NoteOnEvent(tick=6, channel=0, data=[52, 0]),
   midi.NoteOnEvent(tick=4, channel=0, data=[63, 0]),
   midi.NoteOnEvent(tick=24, channel=0, data=[64, 81]),
   midi.ControlChangeEvent(tick=2, channel=0, data=[64, 0]),
   midi.ControlChangeEvent(tick=36, channel=0, data=[64, 127]),
   midi.NoteOnEvent(tick=4, channel=0, data=[56, 66]),
   midi.NoteOnEvent(tick=0, channel=0, data=[40, 59]),
   midi.NoteOnEvent(tick=2, channel=0, data=[59, 69]),
   midi.NoteOnEvent(tick=14, channel=0, data=[56, 0]),
   midi.NoteOnEvent(tick=3, channel=0, data=[40, 0]),
   midi.NoteOnEvent(tick=3, channel=0, data=[64, 0]),
   midi.NoteOnEvent(tick=1, channel=0, data=[59, 0]),
   midi.NoteOnEvent(tick=21, channel=0, data=[56, 52]),
   midi.NoteOnEvent(tick=0, channel=0, data=[59, 41]),
   midi.NoteOnEvent(tick=6, channel=0, data=[40, 66]),
   midi.NoteOnEvent(tick=10, channel=0, data=[56, 0]),
   midi.NoteOnEvent(tick=2, channel=0, data=[40, 0]),
   midi.NoteOnEvent(tick=2, channel=0, data=[59, 0]),
   midi.NoteOnEvent(tick=23, channel=0, data=[40, 57]),
   midi.NoteOnEvent(tick=0, channel=0, data=[56, 57]),
   midi.NoteOnEvent(tick=0, channel=0, data=[59, 47]),
   midi.NoteOnEvent(tick=10, channel=0, data=[56, 0]),
   midi.NoteOnEvent(tick=4, channel=0, data=[59, 0]),
   midi.NoteOnEvent(tick=5, channel=0, data=[40, 0]),
   midi.NoteOnEvent(tick=25, channel=0, data=[69, 81]),
   midi.ControlChangeEvent(tick=13, channel=0, data=[64, 0]),
   midi.NoteOnEvent(tick=28, channel=0, data=[66, 57]),
   midi.NoteOnEvent(tick=3, channel=0, data=[51, 57]),
   midi.NoteOnEvent(tick=0, channel=0, data=[59, 66]),
   midi.NoteOnEvent(tick=1, channel=0, data=[40, 50]),
   midi.ControlChangeEvent(tick=4, channel=0, data=[64, 127]),
   midi.NoteOnEvent(tick=6, channel=0, data=[40, 0]),
   midi.NoteOnEvent(tick=3, channel=0, data=[66, 0]),
   midi.NoteOnEvent(tick=1, channel=0, data=[59, 0]),
   midi.NoteOnEvent(tick=4, channel=0, data=[51, 0]),
   midi.NoteOnEvent(tick=28, channel=0, data=[66, 41]),
   midi.NoteOnEvent(tick=0, channel=0, data=[59, 59]),
   midi.NoteOnEvent(tick=0, channel=0, data=[40, 54]),
   midi.NoteOnEvent(tick=0, channel=0, data=[51, 57]),
   midi.NoteOnEvent(tick=12, channel=0, data=[59, 0]),
   midi.NoteOnEvent(tick=1, channel=0, data=[40, 0]),
   midi.NoteOnEvent(tick=1, channel=0, data=[66, 0]),
   midi.NoteOnEvent(tick=3, channel=0, data=[51, 0]),
   midi.NoteOnEvent(tick=22, channel=0, data=[51, 59]),
   midi.NoteOnEvent(tick=1, channel=0, data=[66, 52]),
   midi.NoteOnEvent(tick=1, channel=0, data=[40, 59]),
   midi.NoteOnEvent(tick=2, channel=0, data=[59, 57]),
   midi.NoteOnEvent(tick=10, channel=0, data=[40, 0]),
   midi.NoteOnEvent(tick=3, channel=0, data=[51, 0]),
   midi.NoteOnEvent(tick=14, channel=0, data=[59, 0]),
   midi.NoteOnEvent(tick=12, channel=0, data=[68, 86]),
   midi.ControlChangeEvent(tick=4, channel=0, data=[64, 0]),
   midi.NoteOnEvent(tick=8, channel=0, data=[69, 0]),
   midi.NoteOnEvent(tick=4, channel=0, data=[66, 0]),
   midi.ControlChangeEvent(tick=18, channel=0, data=[64, 127]),
   midi.NoteOnEvent(tick=9, channel=0, data=[59, 52]),
   midi.NoteOnEvent(tick=0, channel=0, data=[40, 59]),
   midi.NoteOnEvent(tick=2, channel=0, data=[64, 69]),
   midi.NoteOnEvent(tick=1, channel=0, data=[52, 35]),
   midi.NoteOnEvent(tick=6, channel=0, data=[40, 0]),
   midi.NoteOnEvent(tick=3, channel=0, data=[64, 0]),
   midi.NoteOnEvent(tick=1, channel=0, data=[59, 0]),
   midi.NoteOnEvent(tick=1, channel=0, data=[52, 0]),
   midi.NoteOnEvent(tick=32, channel=0, data=[59, 59]),
   midi.NoteOnEvent(tick=1, channel=0, data=[40, 52]),
   midi.NoteOnEvent(tick=0, channel=0, data=[52, 54]),
   midi.NoteOnEvent(tick=0, channel=0, data=[64, 73]),
   midi.NoteOnEvent(tick=9, channel=0, data=[40, 0]),
   midi.NoteOnEvent(tick=0, channel=0, data=[68, 0]),
   midi.NoteOnEvent(tick=1, channel=0, data=[52, 0]),
   midi.NoteOnEvent(tick=2, channel=0, data=[59, 0]),
   midi.NoteOnEvent(tick=2, channel=0, data=[64, 0]),
   midi.NoteOnEvent(tick=23, channel=0, data=[64, 66]),
   midi.NoteOnEvent(tick=2, channel=0, data=[59, 57]),
   midi.NoteOnEvent(tick=1, channel=0, data=[52, 69]),
   midi.NoteOnEvent(tick=2, channel=0, data=[40, 52]),
   midi.NoteOnEvent(tick=6, channel=0, data=[59, 0]),
   midi.NoteOnEvent(tick=2, channel=0, data=[52, 0]),
   midi.NoteOnEvent(tick=2, channel=0, data=[64, 0]),
   midi.NoteOnEvent(tick=2, channel=0, data=[40, 0]),
   midi.ControlChangeEvent(tick=29, channel=0, data=[64, 0]),
   midi.NoteOnEvent(tick=2, channel=0, data=[75, 81]),
   midi.ControlChangeEvent(tick=33, channel=0, data=[64, 127]),
   midi.NoteOnEvent(tick=9, channel=0, data=[52, 66]),
   midi.NoteOnEvent(tick=1, channel=0, data=[63, 69]),
   midi.NoteOnEvent(tick=2, channel=0, data=[42, 47]),
   midi.NoteOnEvent(tick=2, channel=0, data=[45, 59]),
   midi.NoteOnEvent(tick=0, channel=0, data=[71, 69]),
   midi.NoteOnEvent(tick=8, channel=0, data=[45, 0]),
   midi.NoteOnEvent(tick=2, channel=0, data=[63, 0]),
   midi.NoteOnEvent(tick=0, channel=0, data=[71, 0]),
   midi.NoteOnEvent(tick=2, channel=0, data=[42, 0]),
   midi.NoteOnEvent(tick=1, channel=0, data=[52, 0]),
   midi.NoteOnEvent(tick=25, channel=0, data=[63, 66]),
   midi.NoteOnEvent(tick=4, channel=0, data=[71, 52]),
   midi.NoteOnEvent(tick=1, channel=0, data=[42, 54]),
   midi.NoteOnEvent(tick=1, channel=0, data=[52, 66]),
   midi.NoteOnEvent(tick=1, channel=0, data=[40, 45]),
   midi.NoteOnEvent(tick=1, channel=0, data=[45, 52]),
   midi.NoteOnEvent(tick=10, channel=0, data=[40, 0]),
   midi.NoteOnEvent(tick=1, channel=0, data=[63, 0]),
   midi.NoteOnEvent(tick=0, channel=0, data=[45, 0]),
   midi.NoteOnEvent(tick=1, channel=0, data=[52, 0]),
   midi.NoteOnEvent(tick=3, channel=0, data=[71, 0]),
   midi.NoteOnEvent(tick=1, channel=0, data=[42, 0]),
   midi.NoteOnEvent(tick=17, channel=0, data=[42, 41]),
   midi.NoteOnEvent(tick=3, channel=0, data=[52, 59]),
   midi.NoteOnEvent(tick=0, channel=0, data=[71, 57]),
   midi.NoteOnEvent(tick=0, channel=0, data=[63, 69]),
   midi.NoteOnEvent(tick=2, channel=0, data=[45, 59]),
   midi.NoteOnEvent(tick=3, channel=0, data=[75, 0]),
   midi.NoteOnEvent(tick=0, channel=0, data=[40, 33]),
   midi.NoteOnEvent(tick=7, channel=0, data=[45, 0]),
   midi.NoteOnEvent(tick=2, channel=0, data=[40, 0]),
   midi.NoteOnEvent(tick=1, channel=0, data=[63, 0]),
   midi.NoteOnEvent(tick=2, channel=0, data=[52, 0]),
   midi.NoteOnEvent(tick=2, channel=0, data=[42, 0]),
   midi.NoteOnEvent(tick=21, channel=0, data=[71, 0]),
   midi.NoteOnEvent(tick=2, channel=0, data=[76, 102]),
   midi.ControlChangeEvent(tick=7, channel=0, data=[64, 0]),
   midi.ControlChangeEvent(tick=33, channel=0, data=[64, 127]),
   midi.NoteOnEvent(tick=4, channel=0, data=[71, 59]),
   midi.NoteOnEvent(tick=0, channel=0, data=[44, 57]),
   midi.NoteOnEvent(tick=2, channel=0, data=[52, 59]),
   midi.NoteOnEvent(tick=0, channel=0, data=[40, 59]),
   midi.NoteOnEvent(tick=0, channel=0, data=[64, 52]),
   midi.NoteOnEvent(tick=14, channel=0, data=[40, 0]),
   midi.NoteOnEvent(tick=1, channel=0, data=[52, 0]),
   midi.NoteOnEvent(tick=0, channel=0, data=[64, 0]),
   midi.NoteOnEvent(tick=1, channel=0, data=[44, 0]),
   midi.NoteOnEvent(tick=3, channel=0, data=[71, 0]),
   midi.NoteOnEvent(tick=25, channel=0, data=[44, 47]),
   midi.NoteOnEvent(tick=1, channel=0, data=[71, 59]),
   midi.NoteOnEvent(tick=1, channel=0, data=[40, 57]),
   midi.NoteOnEvent(tick=1, channel=0, data=[52, 59]),
   midi.NoteOnEvent(tick=0, channel=0, data=[64, 66]),
   midi.NoteOnEvent(tick=9, channel=0, data=[64, 0]),
   midi.NoteOnEvent(tick=0, channel=0, data=[52, 0]),
   midi.NoteOnEvent(tick=2, channel=0, data=[40, 0]),
   midi.NoteOnEvent(tick=4, channel=0, data=[44, 0]),
   midi.NoteOnEvent(tick=2, channel=0, data=[71, 0]),
   midi.NoteOnEvent(tick=3, channel=0, data=[76, 0]),
   midi.NoteOnEvent(tick=17, channel=0, data=[71, 66]),
   midi.NoteOnEvent(tick=2, channel=0, data=[44, 50]),
   midi.NoteOnEvent(tick=1, channel=0, data=[64, 73]),
   midi.NoteOnEvent(tick=0, channel=0, data=[52, 59]),
   midi.NoteOnEvent(tick=3, channel=0, data=[40, 50]),
   midi.NoteOnEvent(tick=6, channel=0, data=[64, 0]),
   midi.NoteOnEvent(tick=4, channel=0, data=[40, 0]),
   midi.NoteOnEvent(tick=0, channel=0, data=[71, 0]),
   midi.NoteOnEvent(tick=3, channel=0, data=[52, 0]),
   midi.NoteOnEvent(tick=4, channel=0, data=[44, 0]),
   midi.NoteOnEvent(tick=23, channel=0, data=[81, 102]),
   midi.ControlChangeEvent(tick=7, channel=0, data=[64, 0]),
   midi.ControlChangeEvent(tick=33, channel=0, data=[64, 127]),
   midi.NoteOnEvent(tick=3, channel=0, data=[78, 69]),
   midi.NoteOnEvent(tick=0, channel=0, data=[51, 66]),
   midi.NoteOnEvent(tick=1, channel=0, data=[40, 69]),
   midi.NoteOnEvent(tick=0, channel=0, data=[71, 73]),
   midi.NoteOnEvent(tick=14, channel=0, data=[71, 0]),
   midi.NoteOnEvent(tick=0, channel=0, data=[51, 0]),
   midi.NoteOnEvent(tick=1, channel=0, data=[40, 0]),
   midi.NoteOnEvent(tick=1, channel=0, data=[78, 0]),
   midi.NoteOnEvent(tick=26, channel=0, data=[78, 59]),
   midi.NoteOnEvent(tick=2, channel=0, data=[71, 73]),
   midi.NoteOnEvent(tick=0, channel=0, data=[51, 57]),
   midi.NoteOnEvent(tick=2, channel=0, data=[40, 59]),
   midi.NoteOnEvent(tick=9, channel=0, data=[40, 0]),
   midi.NoteOnEvent(tick=3, channel=0, data=[71, 0]),
   midi.NoteOnEvent(tick=1, channel=0, data=[78, 0]),
   midi.NoteOnEvent(tick=2, channel=0, data=[51, 0]),
   midi.NoteOnEvent(tick=24, channel=0, data=[51, 66]),
   midi.NoteOnEvent(tick=1, channel=0, data=[40, 66]),
   midi.NoteOnEvent(tick=0, channel=0, data=[78, 73]),
   midi.NoteOnEvent(tick=1, channel=0, data=[71, 73]),
   midi.NoteOnEvent(tick=11, channel=0, data=[81, 0]),
   midi.NoteOnEvent(tick=2, channel=0, data=[51, 0]),
   midi.NoteOnEvent(tick=4, channel=0, data=[40, 0]),
   midi.NoteOnEvent(tick=1, channel=0, data=[71, 0]),
   midi.NoteOnEvent(tick=15, channel=0, data=[78, 0]),
   midi.NoteOnEvent(tick=8, channel=0, data=[80, 81]),
   midi.ControlChangeEvent(tick=6, channel=0, data=[64, 0]),
   midi.ControlChangeEvent(tick=33, channel=0, data=[64, 127]),
   midi.NoteOnEvent(tick=3, channel=0, data=[52, 73]),
   midi.NoteOnEvent(tick=0, channel=0, data=[40, 69]),
   midi.NoteOnEvent(tick=0, channel=0, data=[71, 77]),
   midi.NoteOnEvent(tick=1, channel=0, data=[76, 86]),
   midi.NoteOnEvent(tick=11, channel=0, data=[71, 0]),
   midi.NoteOnEvent(tick=0, channel=0, data=[40, 0]),
   midi.NoteOnEvent(tick=1, channel=0, data=[52, 0]),
   midi.NoteOnEvent(tick=6, channel=0, data=[76, 0]),
   midi.NoteOnEvent(tick=21, channel=0, data=[76, 57]),
   midi.NoteOnEvent(tick=2, channel=0, data=[71, 73]),
   midi.NoteOnEvent(tick=1, channel=0, data=[52, 73]),
   midi.NoteOnEvent(tick=0, channel=0, data=[40, 73]),
   midi.NoteOnEvent(tick=11, channel=0, data=[52, 0]),
   midi.NoteOnEvent(tick=4, channel=0, data=[71, 0]),
   midi.NoteOnEvent(tick=1, channel=0, data=[40, 0]),
   midi.NoteOnEvent(tick=1, channel=0, data=[76, 0]),
   midi.NoteOnEvent(tick=14, channel=0, data=[80, 0]),
   midi.NoteOnEvent(tick=11, channel=0, data=[40, 69]),
   midi.NoteOnEvent(tick=0, channel=0, data=[52, 69]),
   midi.NoteOnEvent(tick=2, channel=0, data=[71, 77]),
   midi.NoteOnEvent(tick=1, channel=0, data=[76, 77]),
   midi.NoteOnEvent(tick=8, channel=0, data=[71, 0]),
   midi.NoteOnEvent(tick=4, channel=0, data=[52, 0]),
   midi.NoteOnEvent(tick=4, channel=0, data=[76, 0]),
   midi.NoteOnEvent(tick=1, channel=0, data=[40, 0]),
   midi.ControlChangeEvent(tick=22, channel=0, data=[64, 0]),
   midi.NoteOnEvent(tick=3, channel=0, data=[87, 86]),
   midi.ControlChangeEvent(tick=32, channel=0, data=[64, 127]),
   midi.NoteOnEvent(tick=3, channel=0, data=[42, 57]),
   midi.NoteOnEvent(tick=2, channel=0, data=[52, 57]),
   midi.NoteOnEvent(tick=2, channel=0, data=[75, 69]),
   midi.NoteOnEvent(tick=2, channel=0, data=[45, 59]),
   midi.NoteOnEvent(tick=5, channel=0, data=[40, 23]),
   midi.NoteOnEvent(tick=1, channel=0, data=[83, 69]),
   midi.NoteOnEvent(tick=2, channel=0, data=[45, 0]),
   midi.NoteOnEvent(tick=4, channel=0, data=[52, 0]),
   midi.NoteOnEvent(tick=1, channel=0, data=[75, 0]),
   midi.NoteOnEvent(tick=2, channel=0, data=[42, 0]),
   midi.NoteOnEvent(tick=1, channel=0, data=[40, 0]),
   midi.NoteOnEvent(tick=1, channel=0, data=[83, 0]),
   midi.NoteOnEvent(tick=24, channel=0, data=[75, 69]),
   midi.NoteOnEvent(tick=1, channel=0, data=[42, 54]),
   midi.NoteOnEvent(tick=1, channel=0, data=[52, 69]),
   midi.NoteOnEvent(tick=2, channel=0, data=[83, 73]),
   midi.NoteOnEvent(tick=1, channel=0, data=[40, 45]),
   midi.NoteOnEvent(tick=3, channel=0, data=[45, 57]),
   midi.NoteOnEvent(tick=8, channel=0, data=[75, 0]),
   midi.NoteOnEvent(tick=1, channel=0, data=[40, 0]),
   midi.NoteOnEvent(tick=0, channel=0, data=[45, 0]),
   midi.NoteOnEvent(tick=1, channel=0, data=[52, 0]),
   midi.NoteOnEvent(tick=3, channel=0, data=[83, 0]),
   midi.NoteOnEvent(tick=1, channel=0, data=[42, 0]),
   midi.NoteOnEvent(tick=5, channel=0, data=[87, 0]),
   midi.NoteOnEvent(tick=13, channel=0, data=[75, 81]),
   midi.NoteOnEvent(tick=2, channel=0, data=[83, 77]),
   midi.NoteOnEvent(tick=1, channel=0, data=[42, 45]),
   midi.NoteOnEvent(tick=1, channel=0, data=[52, 54]),
   midi.NoteOnEvent(tick=2, channel=0, data=[45, 66]),
   midi.NoteOnEvent(tick=3, channel=0, data=[40, 33]),
   midi.NoteOnEvent(tick=7, channel=0, data=[45, 0]),
   midi.NoteOnEvent(tick=1, channel=0, data=[75, 0]),
   midi.NoteOnEvent(tick=2, channel=0, data=[40, 0]),
   midi.NoteOnEvent(tick=3, channel=0, data=[52, 0]),
   midi.NoteOnEvent(tick=2, channel=0, data=[42, 0]),
   midi.NoteOnEvent(tick=6, channel=0, data=[83, 0]),
   midi.NoteOnEvent(tick=13, channel=0, data=[88, 86]),
   midi.ControlChangeEvent(tick=6, channel=0, data=[64, 0]),
   midi.ControlChangeEvent(tick=34, channel=0, data=[64, 127]),
   midi.NoteOnEvent(tick=5, channel=0, data=[44, 57]),
   midi.NoteOnEvent(tick=2, channel=0, data=[76, 32]),
   midi.NoteOnEvent(tick=0, channel=0, data=[52, 59]),
   midi.NoteOnEvent(tick=2, channel=0, data=[83, 47]),
   midi.NoteOnEvent(tick=2, channel=0, data=[40, 50]),
   midi.NoteOnEvent(tick=5, channel=0, data=[52, 0]),
   midi.NoteOnEvent(tick=4, channel=0, data=[83, 0]),
   midi.NoteOnEvent(tick=1, channel=0, data=[76, 0]),
   midi.NoteOnEvent(tick=1, channel=0, data=[40, 0]),
   midi.NoteOnEvent(tick=2, channel=0, data=[44, 0]),
   midi.NoteOnEvent(tick=26, channel=0, data=[44, 45]),
   midi.NoteOnEvent(tick=1, channel=0, data=[76, 54]),
   midi.NoteOnEvent(tick=1, channel=0, data=[40, 45]),
   midi.NoteOnEvent(tick=3, channel=0, data=[52, 38]),
   midi.NoteOnEvent(tick=6, channel=0, data=[76, 0]),
   midi.NoteOnEvent(tick=2, channel=0, data=[40, 0]),
   midi.NoteOnEvent(tick=2, channel=0, data=[52, 0]),
   midi.NoteOnEvent(tick=2, channel=0, data=[44, 0]),
   midi.NoteOnEvent(tick=22, channel=0, data=[44, 57]),
   midi.NoteOnEvent(tick=3, channel=0, data=[76, 66]),
   midi.NoteOnEvent(tick=3, channel=0, data=[52, 52]),
   midi.NoteOnEvent(tick=1, channel=0, data=[83, 52]),
   midi.NoteOnEvent(tick=1, channel=0, data=[40, 37]),
   midi.NoteOnEvent(tick=4, channel=0, data=[76, 0]),
   midi.NoteOnEvent(tick=4, channel=0, data=[52, 0]),
   midi.NoteOnEvent(tick=3, channel=0, data=[44, 0]),
   midi.NoteOnEvent(tick=0, channel=0, data=[40, 0]),
   midi.NoteOnEvent(tick=9, channel=0, data=[83, 0]),
   midi.NoteOnEvent(tick=17, channel=0, data=[87, 81]),
   midi.NoteOnEvent(tick=6, channel=0, data=[88, 0]),
   midi.ControlChangeEvent(tick=2, channel=0, data=[64, 0]),
   midi.NoteOnEvent(tick=34, channel=0, data=[75, 47]),
   midi.NoteOnEvent(tick=1, channel=0, data=[42, 45]),
   midi.NoteOnEvent(tick=0, channel=0, data=[52, 47]),
   midi.ControlChangeEvent(tick=1, channel=0, data=[64, 127]),
   midi.NoteOnEvent(tick=1, channel=0, data=[83, 66]),
   midi.NoteOnEvent(tick=0, channel=0, data=[45, 66]),
   midi.NoteOnEvent(tick=8, channel=0, data=[45, 0]),
   midi.NoteOnEvent(tick=3, channel=0, data=[75, 0]),
   midi.NoteOnEvent(tick=1, channel=0, data=[52, 0]),
   midi.NoteOnEvent(tick=4, channel=0, data=[42, 0]),
   midi.NoteOnEvent(tick=2, channel=0, data=[83, 0]),
   midi.NoteOnEvent(tick=21, channel=0, data=[75, 52]),
   midi.NoteOnEvent(tick=3, channel=0, data=[83, 38]),
   midi.NoteOnEvent(tick=1, channel=0, data=[42, 23]),
   midi.NoteOnEvent(tick=0, channel=0, data=[52, 52]),
   midi.NoteOnEvent(tick=3, channel=0, data=[45, 47]),
   midi.NoteOnEvent(tick=2, channel=0, data=[40, 32]),
   midi.NoteOnEvent(tick=4, channel=0, data=[52, 0]),
   midi.NoteOnEvent(tick=1, channel=0, data=[75, 0]),
   midi.NoteOnEvent(tick=2, channel=0, data=[83, 0]),
   midi.NoteOnEvent(tick=1, channel=0, data=[45, 0]),
   midi.NoteOnEvent(tick=1, channel=0, data=[40, 0]),
   midi.NoteOnEvent(tick=2, channel=0, data=[42, 0]),
   midi.NoteOnEvent(tick=22, channel=0, data=[75, 54]),
   midi.NoteOnEvent(tick=2, channel=0, data=[52, 57]),
   midi.NoteOnEvent(tick=3, channel=0, data=[42, 28]),
   midi.NoteOnEvent(tick=3, channel=0, data=[87, 0]),
   midi.NoteOnEvent(tick=0, channel=0, data=[45, 59]),
   midi.NoteOnEvent(tick=0, channel=0, data=[83, 50]),
   midi.NoteOnEvent(tick=2, channel=0, data=[40, 25]),
   midi.NoteOnEvent(tick=5, channel=0, data=[52, 0]),
   midi.NoteOnEvent(tick=1, channel=0, data=[42, 0]),
   midi.NoteOnEvent(tick=1, channel=0, data=[45, 0]),
   midi.NoteOnEvent(tick=1, channel=0, data=[75, 0]),
   midi.NoteOnEvent(tick=3, channel=0, data=[40, 0]),
   midi.NoteOnEvent(tick=6, channel=0, data=[83, 0]),
   midi.NoteOnEvent(tick=21, channel=0, data=[88, 77]),
   midi.ControlChangeEvent(tick=1, channel=0, data=[64, 0]),
   midi.ControlChangeEvent(tick=35, channel=0, data=[64, 127]),
   midi.NoteOnEvent(tick=5, channel=0, data=[44, 59]),
   midi.NoteOnEvent(tick=2, channel=0, data=[76, 66]),
   midi.NoteOnEvent(tick=1, channel=0, data=[40, 54]),
   midi.NoteOnEvent(tick=1, channel=0, data=[52, 50]),
   midi.NoteOnEvent(tick=6, channel=0, data=[83, 37]),
   midi.NoteOnEvent(tick=5, channel=0, data=[52, 0]),
   midi.NoteOnEvent(tick=0, channel=0, data=[40, 0]),
   midi.NoteOnEvent(tick=2, channel=0, data=[76, 0]),
   midi.NoteOnEvent(tick=2, channel=0, data=[44, 0]),
   midi.NoteOnEvent(tick=1, channel=0, data=[83, 0]),
   midi.NoteOnEvent(tick=24, channel=0, data=[76, 57]),
   midi.NoteOnEvent(tick=1, channel=0, data=[44, 37]),
   midi.NoteOnEvent(tick=2, channel=0, data=[83, 41]),
   midi.NoteOnEvent(tick=2, channel=0, data=[52, 57]),
   midi.NoteOnEvent(tick=1, channel=0, data=[40, 45]),
   midi.NoteOnEvent(tick=11, channel=0, data=[52, 0]),
   midi.NoteOnEvent(tick=1, channel=0, data=[76, 0]),
   midi.NoteOnEvent(tick=2, channel=0, data=[40, 0]),
   midi.NoteOnEvent(tick=1, channel=0, data=[83, 0]),
   midi.NoteOnEvent(tick=5, channel=0, data=[44, 0]),
   midi.NoteOnEvent(tick=17, channel=0, data=[44, 66]),
   midi.NoteOnEvent(tick=1, channel=0, data=[76, 66]),
   midi.NoteOnEvent(tick=2, channel=0, data=[52, 59]),
   midi.NoteOnEvent(tick=0, channel=0, data=[83, 52]),
   midi.NoteOnEvent(tick=3, channel=0, data=[40, 38]),
   midi.NoteOnEvent(tick=11, channel=0, data=[40, 0]),
   midi.NoteOnEvent(tick=1, channel=0, data=[76, 0]),
   midi.NoteOnEvent(tick=0, channel=0, data=[52, 0]),
   midi.NoteOnEvent(tick=1, channel=0, data=[88, 0]),
   midi.NoteOnEvent(tick=1, channel=0, data=[44, 0]),
   midi.NoteOnEvent(tick=14, channel=0, data=[83, 0]),
   midi.NoteOnEvent(tick=10, channel=0, data=[87, 77]),
   midi.ControlChangeEvent(tick=6, channel=0, data=[64, 0]),
   midi.NoteOnEvent(tick=35, channel=0, data=[52, 54]),
   midi.NoteOnEvent(tick=1, channel=0, data=[42, 41]),
   midi.NoteOnEvent(tick=1, channel=0, data=[83, 66]),
   midi.NoteOnEvent(tick=0, channel=0, data=[75, 47]),
   midi.NoteOnEvent(tick=2, channel=0, data=[45, 54]),
   midi.ControlChangeEvent(tick=0, channel=0, data=[64, 127]),
   midi.NoteOnEvent(tick=8, channel=0, data=[45, 0]),
   midi.NoteOnEvent(tick=1, channel=0, data=[75, 0]),
   midi.NoteOnEvent(tick=4, channel=0, data=[42, 0]),
   midi.NoteOnEvent(tick=3, channel=0, data=[52, 0]),
   midi.NoteOnEvent(tick=2, channel=0, data=[83, 0]),
   midi.NoteOnEvent(tick=27, channel=0, data=[42, 41]),
   midi.NoteOnEvent(tick=1, channel=0, data=[52, 50]),
   midi.NoteOnEvent(tick=1, channel=0, data=[75, 21]),
   midi.NoteOnEvent(tick=0, channel=0, data=[83, 47]),
   midi.NoteOnEvent(tick=1, channel=0, data=[45, 57]),
   midi.NoteOnEvent(tick=8, channel=0, data=[75, 0]),
   midi.NoteOnEvent(tick=2, channel=0, data=[52, 0]),
   midi.NoteOnEvent(tick=1, channel=0, data=[83, 0]),
   midi.NoteOnEvent(tick=0, channel=0, data=[45, 0]),
   midi.NoteOnEvent(tick=5, channel=0, data=[42, 0]),
   midi.NoteOnEvent(tick=5, channel=0, data=[87, 0]),
   midi.NoteOnEvent(tick=12, channel=0, data=[75, 59]),
   midi.NoteOnEvent(tick=5, channel=0, data=[52, 54]),
   midi.NoteOnEvent(tick=1, channel=0, data=[83, 47]),
   midi.NoteOnEvent(tick=0, channel=0, data=[42, 32]),
   midi.NoteOnEvent(tick=2, channel=0, data=[45, 59]),
   midi.NoteOnEvent(tick=1, channel=0, data=[40, 32]),
   midi.NoteOnEvent(tick=7, channel=0, data=[75, 0]),
   midi.NoteOnEvent(tick=1, channel=0, data=[45, 0]),
   midi.NoteOnEvent(tick=2, channel=0, data=[52, 0]),
   midi.NoteOnEvent(tick=2, channel=0, data=[42, 0]),
   midi.NoteOnEvent(tick=0, channel=0, data=[40, 0]),
   midi.NoteOnEvent(tick=2, channel=0, data=[83, 0]),
   midi.NoteOnEvent(tick=27, channel=0, data=[88, 73]),
   midi.ControlChangeEvent(tick=1, channel=0, data=[64, 0]),
   midi.ControlChangeEvent(tick=40, channel=0, data=[64, 127]),
   midi.NoteOnEvent(tick=2, channel=0, data=[44, 52]),
   midi.NoteOnEvent(tick=2, channel=0, data=[52, 57]),
   midi.NoteOnEvent(tick=1, channel=0, data=[76, 47]),
   midi.NoteOnEvent(tick=0, channel=0, data=[47, 52]),
   midi.NoteOnEvent(tick=3, channel=0, data=[83, 57]),
   midi.NoteOnEvent(tick=1, channel=0, data=[40, 24]),
   midi.NoteOnEvent(tick=5, channel=0, data=[47, 0]),
   midi.NoteOnEvent(tick=0, channel=0, data=[52, 0]),
   midi.NoteOnEvent(tick=2, channel=0, data=[76, 0]),
   midi.NoteOnEvent(tick=2, channel=0, data=[40, 0]),
   midi.NoteOnEvent(tick=1, channel=0, data=[44, 0]),
   midi.NoteOnEvent(tick=1, channel=0, data=[83, 0]),
   midi.NoteOnEvent(tick=28, channel=0, data=[44, 37]),
   midi.NoteOnEvent(tick=2, channel=0, data=[83, 35]),
   midi.NoteOnEvent(tick=0, channel=0, data=[80, 40]),
   midi.NoteOnEvent(tick=0, channel=0, data=[52, 50]),
   midi.NoteOnEvent(tick=1, channel=0, data=[47, 41]),
   midi.NoteOnEvent(tick=1, channel=0, data=[76, 41]),
   midi.NoteOnEvent(tick=7, channel=0, data=[52, 0]),
   midi.NoteOnEvent(tick=1, channel=0, data=[44, 0]),
   midi.NoteOnEvent(tick=0, channel=0, data=[47, 0]),
   midi.NoteOnEvent(tick=2, channel=0, data=[76, 0]),
   midi.NoteOnEvent(tick=2, channel=0, data=[80, 0]),
   midi.NoteOnEvent(tick=0, channel=0, data=[83, 0]),
   midi.NoteOnEvent(tick=28, channel=0, data=[80, 47]),
   midi.NoteOnEvent(tick=0, channel=0, data=[47, 57]),
   midi.NoteOnEvent(tick=1, channel=0, data=[52, 52]),
   midi.NoteOnEvent(tick=0, channel=0, data=[44, 45]),
   midi.NoteOnEvent(tick=2, channel=0, data=[76, 45]),
   midi.NoteOnEvent(tick=1, channel=0, data=[83, 54]),
   midi.NoteOnEvent(tick=1, channel=0, data=[88, 0]),
   midi.NoteOnEvent(tick=5, channel=0, data=[52, 0]),
   midi.NoteOnEvent(tick=0, channel=0, data=[47, 0]),
   midi.NoteOnEvent(tick=2, channel=0, data=[44, 0]),
   midi.NoteOnEvent(tick=6, channel=0, data=[76, 0]),
   midi.NoteOnEvent(tick=6, channel=0, data=[80, 0]),
   midi.NoteOnEvent(tick=7, channel=0, data=[83, 0]),
   midi.NoteOnEvent(tick=15, channel=0, data=[88, 69]),
   midi.ControlChangeEvent(tick=1, channel=0, data=[64, 0]),
   midi.ControlChangeEvent(tick=40, channel=0, data=[64, 127]),
   midi.NoteOnEvent(tick=4, channel=0, data=[76, 45]),
   midi.NoteOnEvent(tick=1, channel=0, data=[44, 47]),
   midi.NoteOnEvent(tick=0, channel=0, data=[52, 59]),
   midi.NoteOnEvent(tick=0, channel=0, data=[83, 52]),
   midi.NoteOnEvent(tick=3, channel=0, data=[80, 35]),
   midi.NoteOnEvent(tick=0, channel=0, data=[47, 57]),
   midi.NoteOnEvent(tick=1, channel=0, data=[40, 38]),
   midi.NoteOnEvent(tick=6, channel=0, data=[83, 0]),
   midi.NoteOnEvent(tick=0, channel=0, data=[52, 0]),
   midi.NoteOnEvent(tick=1, channel=0, data=[80, 0]),
   midi.NoteOnEvent(tick=2, channel=0, data=[76, 0]),
   midi.NoteOnEvent(tick=1, channel=0, data=[40, 0]),
   midi.NoteOnEvent(tick=0, channel=0, data=[47, 0]),
   midi.NoteOnEvent(tick=3, channel=0, data=[44, 0]),
   midi.NoteOnEvent(tick=29, channel=0, data=[76, 45]),
   midi.NoteOnEvent(tick=2, channel=0, data=[47, 41]),
   midi.NoteOnEvent(tick=0, channel=0, data=[83, 41]),
   midi.NoteOnEvent(tick=0, channel=0, data=[40, 38]),
   midi.NoteOnEvent(tick=0, channel=0, data=[80, 29]),
   midi.NoteOnEvent(tick=3, channel=0, data=[44, 21]),
   midi.NoteOnEvent(tick=0, channel=0, data=[52, 38]),
   midi.NoteOnEvent(tick=7, channel=0, data=[83, 0]),
   midi.NoteOnEvent(tick=0, channel=0, data=[47, 0]),
   midi.NoteOnEvent(tick=1, channel=0, data=[40, 0]),
   midi.NoteOnEvent(tick=0, channel=0, data=[76, 0]),
   midi.NoteOnEvent(tick=2, channel=0, data=[80, 0]),
   midi.NoteOnEvent(tick=1, channel=0, data=[44, 0]),
   midi.NoteOnEvent(tick=1, channel=0, data=[52, 0]),
   midi.NoteOnEvent(tick=27, channel=0, data=[83, 57]),
   midi.NoteOnEvent(tick=1, channel=0, data=[52, 47]),
   midi.NoteOnEvent(tick=0, channel=0, data=[76, 52]),
   midi.NoteOnEvent(tick=0, channel=0, data=[80, 40]),
   midi.NoteOnEvent(tick=0, channel=0, data=[44, 35]),
   midi.NoteOnEvent(tick=1, channel=0, data=[40, 41]),
   midi.NoteOnEvent(tick=2, channel=0, data=[47, 47]),
   midi.NoteOnEvent(tick=5, channel=0, data=[88, 0]),
   midi.NoteOnEvent(tick=3, channel=0, data=[40, 0]),
   midi.NoteOnEvent(tick=0, channel=0, data=[52, 0]),
   midi.NoteOnEvent(tick=2, channel=0, data=[47, 0]),
   midi.NoteOnEvent(tick=2, channel=0, data=[44, 0]),
   midi.NoteOnEvent(tick=6, channel=0, data=[76, 0]),
   midi.NoteOnEvent(tick=6, channel=0, data=[83, 0]),
   midi.NoteOnEvent(tick=5, channel=0, data=[80, 0]),
   midi.NoteOnEvent(tick=16, channel=0, data=[88, 66]),
   midi.ControlChangeEvent(tick=6, channel=0, data=[64, 0]),
   midi.NoteOnEvent(tick=98, channel=0, data=[44, 40]),
   midi.NoteOnEvent(tick=2, channel=0, data=[52, 47]),
   midi.NoteOnEvent(tick=0, channel=0, data=[40, 45]),
   midi.NoteOnEvent(tick=1, channel=0, data=[83, 45]),
   midi.NoteOnEvent(tick=2, channel=0, data=[80, 41]),
   midi.NoteOnEvent(tick=0, channel=0, data=[76, 33]),
   midi.NoteOnEvent(tick=5, channel=0, data=[47, 47]),
   midi.NoteOnEvent(tick=251, channel=0, data=[88, 0]),
   midi.NoteOnEvent(tick=11, channel=0, data=[76, 0]),
   midi.NoteOnEvent(tick=4, channel=0, data=[83, 0]),
   midi.NoteOnEvent(tick=7, channel=0, data=[47, 0]),
   midi.NoteOnEvent(tick=0, channel=0, data=[40, 0]),
   midi.NoteOnEvent(tick=2, channel=0, data=[52, 0]),
   midi.NoteOnEvent(tick=1, channel=0, data=[44, 0]),
   midi.NoteOnEvent(tick=2, channel=0, data=[80, 0]),
   midi.EndOfTrackEvent(tick=0, data=[])])])
<built-in method close of file object at 0x1050fb390>
