midi.Pattern(format=1, resolution=120, tracks=\
[midi.Track(\
  [midi.TimeSignatureEvent(tick=0, data=[2, 1, 48, 8]),
   midi.KeySignatureEvent(tick=0, data=[0, 0]),
   midi.SetTempoEvent(tick=0, data=[11, 113, 176]),
   midi.MarkerEvent(tick=0, text='Cosi fan Tutte  K588 (Overture)', data=[67, 111, 115, 105, 32, 102, 97, 110, 32, 84, 117, 116, 116, 101, 32, 32, 75, 53, 56, 56, 32, 40, 79, 118, 101, 114, 116, 117, 114, 101, 41]),
   midi.MarkerEvent(tick=0, text='By Mozart', data=[66, 121, 32, 77, 111, 122, 97, 114, 116]),
   midi.MarkerEvent(tick=0, text='Midi  by Andrew Silverman, Rev Aug 1997   Enviro@measure.demon.co.uk', data=[77, 105, 100, 105, 32, 32, 98, 121, 32, 65, 110, 100, 114, 101, 119, 32, 83, 105, 108, 118, 101, 114, 109, 97, 110, 44, 32, 82, 101, 118, 32, 65, 117, 103, 32, 49, 57, 57, 55, 32, 32, 32, 69, 110, 118, 105, 114, 111, 64, 109, 101, 97, 115, 117, 114, 101, 46, 100, 101, 109, 111, 110, 46, 99, 111, 46, 117, 107]),
   midi.MarkerEvent(tick=0, text='Generated by NoteWorthy Composer', data=[71, 101, 110, 101, 114, 97, 116, 101, 100, 32, 98, 121, 32, 78, 111, 116, 101, 87, 111, 114, 116, 104, 121, 32, 67, 111, 109, 112, 111, 115, 101, 114]),
   midi.SetTempoEvent(tick=6720, data=[3, 208, 144]),
   midi.SetTempoEvent(tick=102240, data=[4, 66, 29]),
   midi.SetTempoEvent(tick=6240, data=[3, 208, 144]),
   midi.EndOfTrackEvent(tick=0, data=[])]),
 midi.Track(\
  [midi.PortEvent(tick=0, data=[0]),
   midi.TrackNameEvent(tick=0, text='Flutes', data=[70, 108, 117, 116, 101, 115]),
   midi.ProgramChangeEvent(tick=0, channel=0, data=[73]),
   midi.ControlChangeEvent(tick=0, channel=0, data=[7, 127]),
   midi.ControlChangeEvent(tick=0, channel=0, data=[10, 16]),
   midi.NoteOnEvent(tick=0, channel=0, data=[79, 92]),
   midi.NoteOnEvent(tick=0, channel=0, data=[84, 92]),
   midi.NoteOnEvent(tick=100, channel=0, data=[84, 0]),
   midi.NoteOnEvent(tick=0, channel=0, data=[79, 0]),
   midi.NoteOnEvent(tick=110, channel=0, data=[72, 92]),
   midi.NoteOnEvent(tick=28, channel=0, data=[72, 0]),
   midi.NoteOnEvent(tick=2, channel=0, data=[72, 92]),
   midi.NoteOnEvent(tick=100, channel=0, data=[72, 0]),
   midi.NoteOnEvent(tick=1550, channel=0, data=[83, 92]),
   midi.NoteOnEvent(tick=0, channel=0, data=[86, 92]),
   midi.NoteOnEvent(tick=28, channel=0, data=[86, 0]),
   midi.NoteOnEvent(tick=0, channel=0, data=[83, 0]),
   midi.NoteOnEvent(tick=2, channel=0, data=[83, 92]),
   midi.NoteOnEvent(tick=0, channel=0, data=[86, 92]),
   midi.NoteOnEvent(tick=100, channel=0, data=[86, 0]),
   midi.NoteOnEvent(tick=0, channel=0, data=[83, 0]),
   midi.NoteOnEvent(tick=110, channel=0, data=[79, 92]),
   midi.NoteOnEvent(tick=28, channel=0, data=[79, 0]),
   midi.NoteOnEvent(tick=2, channel=0, data=[79, 92]),
   midi.NoteOnEvent(tick=100, channel=0, data=[79, 0]),
   midi.NoteOnEvent(tick=3260, channel=0, data=[84, 92]),
   midi.NoteOnEvent(tick=0, channel=0, data=[88, 92]),
   midi.NoteOnEvent(tick=240, channel=0, data=[88, 0]),
   midi.NoteOnEvent(tick=0, channel=0, data=[89, 92]),
   midi.NoteOnEvent(tick=240, channel=0, data=[89, 0]),
   midi.NoteOnEvent(tick=0, channel=0, data=[93, 92]),
   midi.NoteOnEvent(tick=240, channel=0, data=[93, 0]),
   midi.NoteOnEvent(tick=0, channel=0, data=[86, 92]),
   midi.NoteOnEvent(tick=240, channel=0, data=[86, 0]),
   midi.NoteOnEvent(tick=0, channel=0, data=[84, 0]),
   midi.NoteOnEvent(tick=0, channel=0, data=[83, 92]),
   midi.NoteOnEvent(tick=0, channel=0, data=[91, 92]),
   midi.NoteOnEvent(tick=100, channel=0, data=[91, 0]),
   midi.NoteOnEvent(tick=110, channel=0, data=[83, 0]),
   midi.NoteOnEvent(tick=30, channel=0, data=[84, 92]),
   midi.NoteOnEvent(tick=0, channel=0, data=[88, 92]),
   midi.NoteOnEvent(tick=100, channel=0, data=[88, 0]),
   midi.NoteOnEvent(tick=0, channel=0, data=[84, 0]),
   midi.NoteOnEvent(tick=4700, channel=0, data=[84, 92]),
   midi.NoteOnEvent(tick=100, channel=0, data=[84, 0]),
   midi.NoteOnEvent(tick=20, channel=0, data=[84, 92]),
   midi.NoteOnEvent(tick=210, channel=0, data=[84, 0]),
   midi.NoteOnEvent(tick=30, channel=0, data=[84, 92]),
   midi.NoteOnEvent(tick=100, channel=0, data=[84, 0]),
   midi.NoteOnEvent(tick=20, channel=0, data=[84, 92]),
   midi.NoteOnEvent(tick=100, channel=0, data=[84, 0]),
   midi.NoteOnEvent(tick=20, channel=0, data=[84, 92]),
   midi.NoteOnEvent(tick=100, channel=0, data=[84, 0]),
   midi.NoteOnEvent(tick=20, channel=0, data=[84, 92]),
   midi.NoteOnEvent(tick=100, channel=0, data=[84, 0]),
   midi.NoteOnEvent(tick=20, channel=0, data=[84, 92]),
   midi.NoteOnEvent(tick=100, channel=0, data=[84, 0]),
   midi.NoteOnEvent(tick=20, channel=0, data=[84, 92]),
   midi.NoteOnEvent(tick=100, channel=0, data=[84, 0]),
   midi.NoteOnEvent(tick=20, channel=0, data=[84, 92]),
   midi.NoteOnEvent(tick=210, channel=0, data=[84, 0]),
   midi.NoteOnEvent(tick=30, channel=0, data=[84, 92]),
   midi.NoteOnEvent(tick=100, channel=0, data=[84, 0]),
   midi.NoteOnEvent(tick=20, channel=0, data=[84, 92]),
   midi.NoteOnEvent(tick=100, channel=0, data=[84, 0]),
   midi.NoteOnEvent(tick=20, channel=0, data=[84, 92]),
   midi.NoteOnEvent(tick=100, channel=0, data=[84, 0]),
   midi.NoteOnEvent(tick=20, channel=0, data=[84, 92]),
   midi.NoteOnEvent(tick=100, channel=0, data=[84, 0]),
   midi.NoteOnEvent(tick=20, channel=0, data=[84, 92]),
   midi.NoteOnEvent(tick=100, channel=0, data=[84, 0]),
   midi.NoteOnEvent(tick=20, channel=0, data=[84, 92]),
   midi.NoteOnEvent(tick=100, channel=0, data=[84, 0]),
   midi.NoteOnEvent(tick=860, channel=0, data=[81, 60]),
   midi.NoteOnEvent(tick=58, channel=0, data=[81, 0]),
   midi.NoteOnEvent(tick=2, channel=0, data=[84, 60]),
   midi.NoteOnEvent(tick=58, channel=0, data=[84, 0]),
   midi.NoteOnEvent(tick=2, channel=0, data=[82, 60]),
   midi.NoteOnEvent(tick=58, channel=0, data=[82, 0]),
   midi.NoteOnEvent(tick=2, channel=0, data=[81, 60]),
   midi.NoteOnEvent(tick=58, channel=0, data=[81, 0]),
   midi.NoteOnEvent(tick=2, channel=0, data=[79, 60]),
   midi.NoteOnEvent(tick=58, channel=0, data=[79, 0]),
   midi.NoteOnEvent(tick=2, channel=0, data=[77, 60]),
   midi.NoteOnEvent(tick=58, channel=0, data=[77, 0]),
   midi.NoteOnEvent(tick=2, channel=0, data=[76, 60]),
   midi.NoteOnEvent(tick=58, channel=0, data=[76, 0]),
   midi.NoteOnEvent(tick=2, channel=0, data=[77, 60]),
   midi.NoteOnEvent(tick=58, channel=0, data=[77, 0]),
   midi.NoteOnEvent(tick=2, channel=0, data=[81, 60]),
   midi.NoteOnEvent(tick=58, channel=0, data=[81, 0]),
   midi.NoteOnEvent(tick=2, channel=0, data=[84, 60]),
   midi.NoteOnEvent(tick=58, channel=0, data=[84, 0]),
   midi.NoteOnEvent(tick=2, channel=0, data=[82, 60]),
   midi.NoteOnEvent(tick=58, channel=0, data=[82, 0]),
   midi.NoteOnEvent(tick=2, channel=0, data=[81, 60]),
   midi.NoteOnEvent(tick=58, channel=0, data=[81, 0]),
   midi.NoteOnEvent(tick=2, channel=0, data=[79, 60]),
   midi.NoteOnEvent(tick=58, channel=0, data=[79, 0]),
   midi.NoteOnEvent(tick=2, channel=0, data=[77, 60]),
   midi.NoteOnEvent(tick=58, channel=0, data=[77, 0]),
   midi.NoteOnEvent(tick=2, channel=0, data=[76, 60]),
   midi.NoteOnEvent(tick=58, channel=0, data=[76, 0]),
   midi.NoteOnEvent(tick=2, channel=0, data=[77, 60]),
   midi.NoteOnEvent(tick=58, channel=0, data=[77, 0]),
   midi.NoteOnEvent(tick=962, channel=0, data=[79, 60]),
   midi.NoteOnEvent(tick=58, channel=0, data=[79, 0]),
   midi.NoteOnEvent(tick=2, channel=0, data=[81, 60]),
   midi.NoteOnEvent(tick=58, channel=0, data=[81, 0]),
   midi.NoteOnEvent(tick=2, channel=0, data=[79, 60]),
   midi.NoteOnEvent(tick=58, channel=0, data=[79, 0]),
   midi.NoteOnEvent(tick=2, channel=0, data=[81, 60]),
   midi.NoteOnEvent(tick=58, channel=0, data=[81, 0]),
   midi.NoteOnEvent(tick=2, channel=0, data=[79, 60]),
   midi.NoteOnEvent(tick=58, channel=0, data=[79, 0]),
   midi.NoteOnEvent(tick=2, channel=0, data=[81, 60]),
   midi.NoteOnEvent(tick=58, channel=0, data=[81, 0]),
   midi.NoteOnEvent(tick=2, channel=0, data=[79, 60]),
   midi.NoteOnEvent(tick=58, channel=0, data=[79, 0]),
   midi.NoteOnEvent(tick=2, channel=0, data=[81, 60]),
   midi.NoteOnEvent(tick=58, channel=0, data=[81, 0]),
   midi.NoteOnEvent(tick=2, channel=0, data=[79, 60]),
   midi.NoteOnEvent(tick=58, channel=0, data=[79, 0]),
   midi.NoteOnEvent(tick=2, channel=0, data=[81, 60]),
   midi.NoteOnEvent(tick=58, channel=0, data=[81, 0]),
   midi.NoteOnEvent(tick=2, channel=0, data=[79, 60]),
   midi.NoteOnEvent(tick=58, channel=0, data=[79, 0]),
   midi.NoteOnEvent(tick=2, channel=0, data=[81, 60]),
   midi.NoteOnEvent(tick=58, channel=0, data=[81, 0]),
   midi.NoteOnEvent(tick=2, channel=0, data=[79, 60]),
   midi.NoteOnEvent(tick=58, channel=0, data=[79, 0]),
   midi.NoteOnEvent(tick=2, channel=0, data=[77, 60]),
   midi.NoteOnEvent(tick=58, channel=0, data=[77, 0]),
   midi.NoteOnEvent(tick=2, channel=0, data=[76, 60]),
   midi.NoteOnEvent(tick=58, channel=0, data=[76, 0]),
   midi.NoteOnEvent(tick=2, channel=0, data=[74, 60]),
   midi.NoteOnEvent(tick=58, channel=0, data=[74, 0]),
   midi.NoteOnEvent(tick=2, channel=0, data=[72, 60]),
   midi.NoteOnEvent(tick=100, channel=0, data=[72, 0]),
   midi.NoteOnEvent(tick=860, channel=0, data=[81, 60]),
   midi.NoteOnEvent(tick=58, channel=0, data=[81, 0]),
   midi.NoteOnEvent(tick=2, channel=0, data=[84, 60]),
   midi.NoteOnEvent(tick=58, channel=0, data=[84, 0]),
   midi.NoteOnEvent(tick=2, channel=0, data=[82, 60]),
   midi.NoteOnEvent(tick=58, channel=0, data=[82, 0]),
   midi.NoteOnEvent(tick=2, channel=0, data=[81, 60]),
   midi.NoteOnEvent(tick=58, channel=0, data=[81, 0]),
   midi.NoteOnEvent(tick=2, channel=0, data=[79, 60]),
   midi.NoteOnEvent(tick=58, channel=0, data=[79, 0]),
   midi.NoteOnEvent(tick=2, channel=0, data=[77, 60]),
   midi.NoteOnEvent(tick=58, channel=0, data=[77, 0]),
   midi.NoteOnEvent(tick=2, channel=0, data=[76, 60]),
   midi.NoteOnEvent(tick=58, channel=0, data=[76, 0]),
   midi.NoteOnEvent(tick=2, channel=0, data=[77, 60]),
   midi.NoteOnEvent(tick=58, channel=0, data=[77, 0]),
   midi.NoteOnEvent(tick=2, channel=0, data=[81, 60]),
   midi.NoteOnEvent(tick=58, channel=0, data=[81, 0]),
   midi.NoteOnEvent(tick=2, channel=0, data=[84, 60]),
   midi.NoteOnEvent(tick=58, channel=0, data=[84, 0]),
   midi.NoteOnEvent(tick=2, channel=0, data=[82, 60]),
   midi.NoteOnEvent(tick=58, channel=0, data=[82, 0]),
   midi.NoteOnEvent(tick=2, channel=0, data=[81, 60]),
   midi.NoteOnEvent(tick=58, channel=0, data=[81, 0]),
   midi.NoteOnEvent(tick=2, channel=0, data=[79, 60]),
   midi.NoteOnEvent(tick=58, channel=0, data=[79, 0]),
   midi.NoteOnEvent(tick=2, channel=0, data=[77, 60]),
   midi.NoteOnEvent(tick=58, channel=0, data=[77, 0]),
   midi.NoteOnEvent(tick=2, channel=0, data=[76, 60]),
   midi.NoteOnEvent(tick=58, channel=0, data=[76, 0]),
   midi.NoteOnEvent(tick=2, channel=0, data=[77, 60]),
   midi.NoteOnEvent(tick=58, channel=0, data=[77, 0]),
   midi.NoteOnEvent(tick=962, channel=0, data=[79, 60]),
   midi.NoteOnEvent(tick=58, channel=0, data=[79, 0]),
   midi.NoteOnEvent(tick=2, channel=0, data=[81, 60]),
   midi.NoteOnEvent(tick=58, channel=0, data=[81, 0]),
   midi.NoteOnEvent(tick=2, channel=0, data=[79, 60]),
   midi.NoteOnEvent(tick=58, channel=0, data=[79, 0]),
   midi.NoteOnEvent(tick=2, channel=0, data=[81, 60]),
   midi.NoteOnEvent(tick=58, channel=0, data=[81, 0]),
   midi.NoteOnEvent(tick=2, channel=0, data=[79, 60]),
   midi.NoteOnEvent(tick=58, channel=0, data=[79, 0]),
   midi.NoteOnEvent(tick=2, channel=0, data=[81, 60]),
   midi.NoteOnEvent(tick=58, channel=0, data=[81, 0]),
   midi.NoteOnEvent(tick=2, channel=0, data=[79, 60]),
   midi.NoteOnEvent(tick=58, channel=0, data=[79, 0]),
   midi.NoteOnEvent(tick=2, channel=0, data=[81, 60]),
   midi.NoteOnEvent(tick=58, channel=0, data=[81, 0]),
   midi.NoteOnEvent(tick=2, channel=0, data=[79, 60]),
   midi.NoteOnEvent(tick=58, channel=0, data=[79, 0]),
   midi.NoteOnEvent(tick=2, channel=0, data=[81, 60]),
   midi.NoteOnEvent(tick=58, channel=0, data=[81, 0]),
   midi.NoteOnEvent(tick=2, channel=0, data=[79, 60]),
   midi.NoteOnEvent(tick=58, channel=0, data=[79, 0]),
   midi.NoteOnEvent(tick=2, channel=0, data=[81, 60]),
   midi.NoteOnEvent(tick=58, channel=0, data=[81, 0]),
   midi.NoteOnEvent(tick=2, channel=0, data=[79, 60]),
   midi.NoteOnEvent(tick=58, channel=0, data=[79, 0]),
   midi.NoteOnEvent(tick=2, channel=0, data=[77, 60]),
   midi.NoteOnEvent(tick=58, channel=0, data=[77, 0]),
   midi.NoteOnEvent(tick=2, channel=0, data=[76, 60]),
   midi.NoteOnEvent(tick=58, channel=0, data=[76, 0]),
   midi.NoteOnEvent(tick=2, channel=0, data=[74, 60]),
   midi.NoteOnEvent(tick=58, channel=0, data=[74, 0]),
   midi.NoteOnEvent(tick=2, channel=0, data=[72, 60]),
   midi.NoteOnEvent(tick=100, channel=0, data=[72, 0]),
   midi.NoteOnEvent(tick=3740, channel=0, data=[86, 92]),
   midi.NoteOnEvent(tick=100, channel=0, data=[86, 0]),
   midi.NoteOnEvent(tick=20, channel=0, data=[86, 92]),
   midi.NoteOnEvent(tick=210, channel=0, data=[86, 0]),
   midi.NoteOnEvent(tick=30, channel=0, data=[86, 92]),
   midi.NoteOnEvent(tick=100, channel=0, data=[86, 0]),
   midi.NoteOnEvent(tick=20, channel=0, data=[86, 92]),
   midi.NoteOnEvent(tick=100, channel=0, data=[86, 0]),
   midi.NoteOnEvent(tick=20, channel=0, data=[86, 92]),
   midi.NoteOnEvent(tick=100, channel=0, data=[86, 0]),
   midi.NoteOnEvent(tick=20, channel=0, data=[86, 92]),
   midi.NoteOnEvent(tick=100, channel=0, data=[86, 0]),
   midi.NoteOnEvent(tick=20, channel=0, data=[86, 92]),
   midi.NoteOnEvent(tick=100, channel=0, data=[86, 0]),
   midi.NoteOnEvent(tick=20, channel=0, data=[86, 92]),
   midi.NoteOnEvent(tick=100, channel=0, data=[86, 0]),
   midi.NoteOnEvent(tick=20, channel=0, data=[86, 92]),
   midi.NoteOnEvent(tick=210, channel=0, data=[86, 0]),
   midi.NoteOnEvent(tick=30, channel=0, data=[86, 92]),
   midi.NoteOnEvent(tick=100, channel=0, data=[86, 0]),
   midi.NoteOnEvent(tick=20, channel=0, data=[86, 92]),
   midi.NoteOnEvent(tick=100, channel=0, data=[86, 0]),
   midi.NoteOnEvent(tick=20, channel=0, data=[86, 92]),
   midi.NoteOnEvent(tick=100, channel=0, data=[86, 0]),
   midi.NoteOnEvent(tick=20, channel=0, data=[86, 92]),
   midi.NoteOnEvent(tick=100, channel=0, data=[86, 0]),
   midi.NoteOnEvent(tick=20, channel=0, data=[86, 92]),
   midi.NoteOnEvent(tick=100, channel=0, data=[86, 0]),
   midi.NoteOnEvent(tick=20, channel=0, data=[86, 92]),
   midi.NoteOnEvent(tick=100, channel=0, data=[86, 0]),
   midi.NoteOnEvent(tick=20, channel=0, data=[86, 60]),
   midi.NoteOnEvent(tick=210, channel=0, data=[86, 0]),
   midi.NoteOnEvent(tick=30, channel=0, data=[86, 60]),
   midi.NoteOnEvent(tick=220, channel=0, data=[86, 0]),
   midi.NoteOnEvent(tick=20, channel=0, data=[86, 60]),
   midi.NoteOnEvent(tick=100, channel=0, data=[86, 0]),
   midi.NoteOnEvent(tick=20, channel=0, data=[86, 60]),
   midi.NoteOnEvent(tick=100, channel=0, data=[86, 0]),
   midi.NoteOnEvent(tick=20, channel=0, data=[86, 60]),
   midi.NoteOnEvent(tick=120, channel=0, data=[87, 60]),
   midi.NoteOnEvent(tick=100, channel=0, data=[87, 0]),
   midi.NoteOnEvent(tick=0, channel=0, data=[86, 0]),
   midi.NoteOnEvent(tick=20, channel=0, data=[86, 60]),
   midi.NoteOnEvent(tick=0, channel=0, data=[87, 60]),
   midi.NoteOnEvent(tick=210, channel=0, data=[87, 0]),
   midi.NoteOnEvent(tick=0, channel=0, data=[86, 0]),
   midi.NoteOnEvent(tick=30, channel=0, data=[86, 60]),
   midi.NoteOnEvent(tick=0, channel=0, data=[87, 60]),
   midi.NoteOnEvent(tick=100, channel=0, data=[87, 0]),
   midi.NoteOnEvent(tick=20, channel=0, data=[86, 0]),
   midi.NoteOnEvent(tick=0, channel=0, data=[84, 60]),
   midi.NoteOnEvent(tick=0, channel=0, data=[87, 60]),
   midi.NoteOnEvent(tick=100, channel=0, data=[87, 0]),
   midi.NoteOnEvent(tick=0, channel=0, data=[84, 0]),
   midi.NoteOnEvent(tick=20, channel=0, data=[84, 60]),
   midi.NoteOnEvent(tick=0, channel=0, data=[87, 60]),
   midi.NoteOnEvent(tick=100, channel=0, data=[87, 0]),
   midi.NoteOnEvent(tick=0, channel=0, data=[84, 0]),
   midi.NoteOnEvent(tick=20, channel=0, data=[84, 60]),
   midi.NoteOnEvent(tick=0, channel=0, data=[87, 60]),
   midi.NoteOnEvent(tick=100, channel=0, data=[87, 0]),
   midi.NoteOnEvent(tick=0, channel=0, data=[84, 0]),
   midi.NoteOnEvent(tick=20, channel=0, data=[84, 60]),
   midi.NoteOnEvent(tick=0, channel=0, data=[87, 60]),
   midi.NoteOnEvent(tick=120, channel=0, data=[87, 0]),
   midi.NoteOnEvent(tick=0, channel=0, data=[86, 60]),
   midi.NoteOnEvent(tick=100, channel=0, data=[86, 0]),
   midi.NoteOnEvent(tick=0, channel=0, data=[84, 0]),
   midi.NoteOnEvent(tick=20, channel=0, data=[84, 60]),
   midi.NoteOnEvent(tick=0, channel=0, data=[86, 60]),
   midi.NoteOnEvent(tick=210, channel=0, data=[86, 0]),
   midi.NoteOnEvent(tick=0, channel=0, data=[84, 0]),
   midi.NoteOnEvent(tick=30, channel=0, data=[84, 60]),
   midi.NoteOnEvent(tick=0, channel=0, data=[86, 60]),
   midi.NoteOnEvent(tick=120, channel=0, data=[84, 0]),
   midi.NoteOnEvent(tick=0, channel=0, data=[82, 60]),
   midi.NoteOnEvent(tick=100, channel=0, data=[82, 0]),
   midi.NoteOnEvent(tick=0, channel=0, data=[86, 0]),
   midi.NoteOnEvent(tick=20, channel=0, data=[82, 60]),
   midi.NoteOnEvent(tick=0, channel=0, data=[86, 60]),
   midi.NoteOnEvent(tick=100, channel=0, data=[86, 0]),
   midi.NoteOnEvent(tick=0, channel=0, data=[82, 0]),
   midi.NoteOnEvent(tick=20, channel=0, data=[82, 60]),
   midi.NoteOnEvent(tick=0, channel=0, data=[86, 60]),
   midi.NoteOnEvent(tick=100, channel=0, data=[86, 0]),
   midi.NoteOnEvent(tick=0, channel=0, data=[82, 0]),
   midi.NoteOnEvent(tick=20, channel=0, data=[82, 60]),
   midi.NoteOnEvent(tick=0, channel=0, data=[86, 60]),
   midi.NoteOnEvent(tick=120, channel=0, data=[86, 0]),
   midi.NoteOnEvent(tick=0, channel=0, data=[84, 60]),
   midi.NoteOnEvent(tick=100, channel=0, data=[84, 0]),
   midi.NoteOnEvent(tick=0, channel=0, data=[82, 0]),
   midi.NoteOnEvent(tick=20, channel=0, data=[82, 60]),
   midi.NoteOnEvent(tick=0, channel=0, data=[84, 60]),
   midi.NoteOnEvent(tick=210, channel=0, data=[84, 0]),
   midi.NoteOnEvent(tick=0, channel=0, data=[82, 0]),
   midi.NoteOnEvent(tick=30, channel=0, data=[82, 60]),
   midi.NoteOnEvent(tick=0, channel=0, data=[84, 60]),
   midi.NoteOnEvent(tick=120, channel=0, data=[82, 0]),
   midi.NoteOnEvent(tick=0, channel=0, data=[81, 60]),
   midi.NoteOnEvent(tick=100, channel=0, data=[81, 0]),
   midi.NoteOnEvent(tick=0, channel=0, data=[84, 0]),
   midi.NoteOnEvent(tick=20, channel=0, data=[81, 60]),
   midi.NoteOnEvent(tick=0, channel=0, data=[84, 60]),
   midi.NoteOnEvent(tick=100, channel=0, data=[84, 0]),
   midi.NoteOnEvent(tick=0, channel=0, data=[81, 0]),
   midi.NoteOnEvent(tick=20, channel=0, data=[81, 60]),
   midi.NoteOnEvent(tick=0, channel=0, data=[84, 60]),
   midi.NoteOnEvent(tick=100, channel=0, data=[84, 0]),
   midi.NoteOnEvent(tick=0, channel=0, data=[81, 0]),
   midi.NoteOnEvent(tick=20, channel=0, data=[81, 60]),
   midi.NoteOnEvent(tick=0, channel=0, data=[84, 60]),
   midi.NoteOnEvent(tick=100, channel=0, data=[84, 0]),
   midi.NoteOnEvent(tick=0, channel=0, data=[81, 0]),
   midi.NoteOnEvent(tick=20, channel=0, data=[79, 60]),
   midi.NoteOnEvent(tick=0, channel=0, data=[83, 60]),
   midi.NoteOnEvent(tick=100, channel=0, data=[83, 0]),
   midi.NoteOnEvent(tick=0, channel=0, data=[79, 0]),
   midi.NoteOnEvent(tick=20, channel=0, data=[83, 92]),
   midi.NoteOnEvent(tick=0, channel=0, data=[86, 92]),
   midi.NoteOnEvent(tick=210, channel=0, data=[86, 0]),
   midi.NoteOnEvent(tick=0, channel=0, data=[83, 0]),
   midi.NoteOnEvent(tick=30, channel=0, data=[82, 92]),
   midi.NoteOnEvent(tick=0, channel=0, data=[86, 92]),
   midi.NoteOnEvent(tick=100, channel=0, data=[86, 0]),
   midi.NoteOnEvent(tick=0, channel=0, data=[82, 0]),
   midi.NoteOnEvent(tick=20, channel=0, data=[83, 92]),
   midi.NoteOnEvent(tick=0, channel=0, data=[86, 92]),
   midi.NoteOnEvent(tick=100, channel=0, data=[86, 0]),
   midi.NoteOnEvent(tick=0, channel=0, data=[83, 0]),
   midi.NoteOnEvent(tick=20, channel=0, data=[82, 92]),
   midi.NoteOnEvent(tick=0, channel=0, data=[86, 92]),
   midi.NoteOnEvent(tick=100, channel=0, data=[86, 0]),
   midi.NoteOnEvent(tick=0, channel=0, data=[82, 0]),
   midi.NoteOnEvent(tick=20, channel=0, data=[83, 92]),
   midi.NoteOnEvent(tick=0, channel=0, data=[86, 92]),
   midi.NoteOnEvent(tick=100, channel=0, data=[86, 0]),
   midi.NoteOnEvent(tick=0, channel=0, data=[83, 0]),
   midi.NoteOnEvent(tick=20, channel=0, data=[83, 92]),
   midi.NoteOnEvent(tick=0, channel=0, data=[90, 92]),
   midi.NoteOnEvent(tick=100, channel=0, data=[90, 0]),
   midi.NoteOnEvent(tick=0, channel=0, data=[83, 0]),
   midi.NoteOnEvent(tick=20, channel=0, data=[83, 92]),
   midi.NoteOnEvent(tick=0, channel=0, data=[91, 92]),
   midi.NoteOnEvent(tick=100, channel=0, data=[91, 0]),
   midi.NoteOnEvent(tick=0, channel=0, data=[83, 0]),
   midi.NoteOnEvent(tick=20, channel=0, data=[83, 92]),
   midi.NoteOnEvent(tick=0, channel=0, data=[91, 92]),
   midi.NoteOnEvent(tick=210, channel=0, data=[91, 0]),
   midi.NoteOnEvent(tick=0, channel=0, data=[83, 0]),
   midi.NoteOnEvent(tick=30, channel=0, data=[83, 92]),
   midi.NoteOnEvent(tick=0, channel=0, data=[90, 92]),
   midi.NoteOnEvent(tick=100, channel=0, data=[90, 0]),
   midi.NoteOnEvent(tick=0, channel=0, data=[83, 0]),
   midi.NoteOnEvent(tick=20, channel=0, data=[83, 92]),
   midi.NoteOnEvent(tick=0, channel=0, data=[91, 92]),
   midi.NoteOnEvent(tick=100, channel=0, data=[91, 0]),
   midi.NoteOnEvent(tick=0, channel=0, data=[83, 0]),
   midi.NoteOnEvent(tick=20, channel=0, data=[83, 92]),
   midi.NoteOnEvent(tick=0, channel=0, data=[90, 92]),
   midi.NoteOnEvent(tick=100, channel=0, data=[90, 0]),
   midi.NoteOnEvent(tick=0, channel=0, data=[83, 0]),
   midi.NoteOnEvent(tick=20, channel=0, data=[83, 92]),
   midi.NoteOnEvent(tick=0, channel=0, data=[91, 92]),
   midi.NoteOnEvent(tick=100, channel=0, data=[91, 0]),
   midi.NoteOnEvent(tick=0, channel=0, data=[83, 0]),
   midi.NoteOnEvent(tick=20, channel=0, data=[87, 92]),
   midi.NoteOnEvent(tick=0, channel=0, data=[91, 92]),
   midi.NoteOnEvent(tick=100, channel=0, data=[91, 0]),
   midi.NoteOnEvent(tick=0, channel=0, data=[87, 0]),
   midi.NoteOnEvent(tick=20, channel=0, data=[88, 92]),
   midi.NoteOnEvent(tick=0, channel=0, data=[91, 92]),
   midi.NoteOnEvent(tick=100, channel=0, data=[91, 0]),
   midi.NoteOnEvent(tick=0, channel=0, data=[88, 0]),
   midi.NoteOnEvent(tick=20, channel=0, data=[88, 92]),
   midi.NoteOnEvent(tick=0, channel=0, data=[91, 92]),
   midi.NoteOnEvent(tick=210, channel=0, data=[91, 0]),
   midi.NoteOnEvent(tick=0, channel=0, data=[88, 0]),
   midi.NoteOnEvent(tick=30, channel=0, data=[87, 92]),
   midi.NoteOnEvent(tick=0, channel=0, data=[91, 92]),
   midi.NoteOnEvent(tick=100, channel=0, data=[91, 0]),
   midi.NoteOnEvent(tick=0, channel=0, data=[87, 0]),
   midi.NoteOnEvent(tick=20, channel=0, data=[88, 92]),
   midi.NoteOnEvent(tick=0, channel=0, data=[91, 92]),
   midi.NoteOnEvent(tick=100, channel=0, data=[91, 0]),
   midi.NoteOnEvent(tick=0, channel=0, data=[88, 0]),
   midi.NoteOnEvent(tick=20, channel=0, data=[87, 92]),
   midi.NoteOnEvent(tick=0, channel=0, data=[91, 92]),
   midi.NoteOnEvent(tick=100, channel=0, data=[91, 0]),
   midi.NoteOnEvent(tick=0, channel=0, data=[87, 0]),
   midi.NoteOnEvent(tick=20, channel=0, data=[88, 92]),
   midi.NoteOnEvent(tick=0, channel=0, data=[91, 92]),
   midi.NoteOnEvent(tick=100, channel=0, data=[91, 0]),
   midi.NoteOnEvent(tick=0, channel=0, data=[88, 0]),
   midi.NoteOnEvent(tick=20, channel=0, data=[83, 92]),
   midi.NoteOnEvent(tick=0, channel=0, data=[89, 92]),
   midi.NoteOnEvent(tick=100, channel=0, data=[89, 0]),
   midi.NoteOnEvent(tick=0, channel=0, data=[83, 0]),
   midi.NoteOnEvent(tick=20, channel=0, data=[84, 92]),
   midi.NoteOnEvent(tick=0, channel=0, data=[88, 92]),
   midi.NoteOnEvent(tick=120, channel=0, data=[84, 0]),
   midi.NoteOnEvent(tick=0, channel=0, data=[86, 92]),
   midi.NoteOnEvent(tick=120, channel=0, data=[86, 0]),
   midi.NoteOnEvent(tick=0, channel=0, data=[84, 92]),
   midi.NoteOnEvent(tick=120, channel=0, data=[84, 0]),
   midi.NoteOnEvent(tick=0, channel=0, data=[82, 92]),
   midi.NoteOnEvent(tick=90, channel=0, data=[88, 0]),
   midi.NoteOnEvent(tick=10, channel=0, data=[82, 0]),
   midi.NoteOnEvent(tick=20, channel=0, data=[81, 92]),
   midi.NoteOnEvent(tick=0, channel=0, data=[86, 92]),
   midi.NoteOnEvent(tick=100, channel=0, data=[86, 0]),
   midi.NoteOnEvent(tick=0, channel=0, data=[81, 0]),
   midi.NoteOnEvent(tick=20, channel=0, data=[78, 92]),
   midi.NoteOnEvent(tick=0, channel=0, data=[83, 92]),
   midi.NoteOnEvent(tick=100, channel=0, data=[83, 0]),
   midi.NoteOnEvent(tick=0, channel=0, data=[78, 0]),
   midi.NoteOnEvent(tick=20, channel=0, data=[79, 92]),
   midi.NoteOnEvent(tick=0, channel=0, data=[84, 92]),
   midi.NoteOnEvent(tick=100, channel=0, data=[84, 0]),
   midi.NoteOnEvent(tick=0, channel=0, data=[79, 0]),
   midi.NoteOnEvent(tick=20, channel=0, data=[74, 92]),
   midi.NoteOnEvent(tick=0, channel=0, data=[81, 92]),
   midi.NoteOnEvent(tick=100, channel=0, data=[81, 0]),
   midi.NoteOnEvent(tick=0, channel=0, data=[74, 0]),
   midi.NoteOnEvent(tick=20, channel=0, data=[83, 92]),
   midi.NoteOnEvent(tick=0, channel=0, data=[91, 92]),
   midi.NoteOnEvent(tick=930, channel=0, data=[83, 0]),
   midi.NoteOnEvent(tick=30, channel=0, data=[81, 92]),
   midi.NoteOnEvent(tick=240, channel=0, data=[91, 0]),
   midi.NoteOnEvent(tick=0, channel=0, data=[90, 92]),
   midi.NoteOnEvent(tick=120, channel=0, data=[90, 0]),
   midi.NoteOnEvent(tick=0, channel=0, data=[86, 92]),
   midi.NoteOnEvent(tick=90, channel=0, data=[81, 0]),
   midi.NoteOnEvent(tick=10, channel=0, data=[86, 0]),
   midi.NoteOnEvent(tick=20, channel=0, data=[83, 92]),
   midi.NoteOnEvent(tick=0, channel=0, data=[91, 92]),
   midi.NoteOnEvent(tick=930, channel=0, data=[83, 0]),
   midi.NoteOnEvent(tick=30, channel=0, data=[81, 92]),
   midi.NoteOnEvent(tick=210, channel=0, data=[91, 0]),
   midi.NoteOnEvent(tick=30, channel=0, data=[90, 92]),
   midi.NoteOnEvent(tick=210, channel=0, data=[90, 0]),
   midi.NoteOnEvent(tick=0, channel=0, data=[81, 0]),
   midi.NoteOnEvent(tick=30, channel=0, data=[79, 92]),
   midi.NoteOnEvent(tick=0, channel=0, data=[91, 92]),
   midi.NoteOnEvent(tick=100, channel=0, data=[91, 0]),
   midi.NoteOnEvent(tick=0, channel=0, data=[79, 0]),
   midi.NoteOnEvent(tick=1820, channel=0, data=[83, 60]),
   midi.NoteOnEvent(tick=60, channel=0, data=[83, 0]),
   midi.NoteOnEvent(tick=0, channel=0, data=[86, 60]),
   midi.NoteOnEvent(tick=60, channel=0, data=[86, 0]),
   midi.NoteOnEvent(tick=0, channel=0, data=[84, 60]),
   midi.NoteOnEvent(tick=60, channel=0, data=[84, 0]),
   midi.NoteOnEvent(tick=0, channel=0, data=[83, 60]),
   midi.NoteOnEvent(tick=60, channel=0, data=[83, 0]),
   midi.NoteOnEvent(tick=0, channel=0, data=[81, 60]),
   midi.NoteOnEvent(tick=60, channel=0, data=[81, 0]),
   midi.NoteOnEvent(tick=0, channel=0, data=[79, 60]),
   midi.NoteOnEvent(tick=60, channel=0, data=[79, 0]),
   midi.NoteOnEvent(tick=0, channel=0, data=[78, 60]),
   midi.NoteOnEvent(tick=60, channel=0, data=[78, 0]),
   midi.NoteOnEvent(tick=0, channel=0, data=[79, 60]),
   midi.NoteOnEvent(tick=58, channel=0, data=[79, 0]),
   midi.NoteOnEvent(tick=2, channel=0, data=[83, 60]),
   midi.NoteOnEvent(tick=60, channel=0, data=[83, 0]),
   midi.NoteOnEvent(tick=0, channel=0, data=[86, 60]),
   midi.NoteOnEvent(tick=60, channel=0, data=[86, 0]),
   midi.NoteOnEvent(tick=0, channel=0, data=[84, 60]),
   midi.NoteOnEvent(tick=60, channel=0, data=[84, 0]),
   midi.NoteOnEvent(tick=0, channel=0, data=[83, 60]),
   midi.NoteOnEvent(tick=60, channel=0, data=[83, 0]),
   midi.NoteOnEvent(tick=0, channel=0, data=[81, 60]),
   midi.NoteOnEvent(tick=60, channel=0, data=[81, 0]),
   midi.NoteOnEvent(tick=0, channel=0, data=[79, 60]),
   midi.NoteOnEvent(tick=60, channel=0, data=[79, 0]),
   midi.NoteOnEvent(tick=0, channel=0, data=[78, 60]),
   midi.NoteOnEvent(tick=60, channel=0, data=[78, 0]),
   midi.NoteOnEvent(tick=0, channel=0, data=[79, 60]),
   midi.NoteOnEvent(tick=58, channel=0, data=[79, 0]),
   midi.NoteOnEvent(tick=2, channel=0, data=[78, 60]),
   midi.NoteOnEvent(tick=0, channel=0, data=[81, 60]),
   midi.NoteOnEvent(tick=240, channel=0, data=[81, 0]),
   midi.NoteOnEvent(tick=0, channel=0, data=[78, 0]),
   midi.NoteOnEvent(tick=0, channel=0, data=[79, 60]),
   midi.NoteOnEvent(tick=0, channel=0, data=[83, 60]),
   midi.NoteOnEvent(tick=240, channel=0, data=[83, 0]),
   midi.NoteOnEvent(tick=0, channel=0, data=[79, 0]),
   midi.NoteOnEvent(tick=0, channel=0, data=[81, 60]),
   midi.NoteOnEvent(tick=0, channel=0, data=[84, 60]),
   midi.NoteOnEvent(tick=240, channel=0, data=[84, 0]),
   midi.NoteOnEvent(tick=0, channel=0, data=[81, 0]),
   midi.NoteOnEvent(tick=0, channel=0, data=[78, 60]),
   midi.NoteOnEvent(tick=0, channel=0, data=[81, 60]),
   midi.NoteOnEvent(tick=210, channel=0, data=[81, 0]),
   midi.NoteOnEvent(tick=0, channel=0, data=[78, 0]),
   midi.NoteOnEvent(tick=30, channel=0, data=[79, 60]),
   midi.NoteOnEvent(tick=100, channel=0, data=[79, 0]),
   midi.NoteOnEvent(tick=1820, channel=0, data=[83, 60]),
   midi.NoteOnEvent(tick=60, channel=0, data=[83, 0]),
   midi.NoteOnEvent(tick=0, channel=0, data=[86, 60]),
   midi.NoteOnEvent(tick=60, channel=0, data=[86, 0]),
   midi.NoteOnEvent(tick=0, channel=0, data=[84, 60]),
   midi.NoteOnEvent(tick=60, channel=0, data=[84, 0]),
   midi.NoteOnEvent(tick=0, channel=0, data=[83, 60]),
   midi.NoteOnEvent(tick=60, channel=0, data=[83, 0]),
   midi.NoteOnEvent(tick=0, channel=0, data=[81, 60]),
   midi.NoteOnEvent(tick=60, channel=0, data=[81, 0]),
   midi.NoteOnEvent(tick=0, channel=0, data=[79, 60]),
   midi.NoteOnEvent(tick=60, channel=0, data=[79, 0]),
   midi.NoteOnEvent(tick=0, channel=0, data=[78, 60]),
   midi.NoteOnEvent(tick=60, channel=0, data=[78, 0]),
   midi.NoteOnEvent(tick=0, channel=0, data=[79, 60]),
   midi.NoteOnEvent(tick=58, channel=0, data=[79, 0]),
   midi.NoteOnEvent(tick=2, channel=0, data=[83, 60]),
   midi.NoteOnEvent(tick=60, channel=0, data=[83, 0]),
   midi.NoteOnEvent(tick=0, channel=0, data=[86, 60]),
   midi.NoteOnEvent(tick=60, channel=0, data=[86, 0]),
   midi.NoteOnEvent(tick=0, channel=0, data=[84, 60]),
   midi.NoteOnEvent(tick=60, channel=0, data=[84, 0]),
   midi.NoteOnEvent(tick=0, channel=0, data=[83, 60]),
   midi.NoteOnEvent(tick=60, channel=0, data=[83, 0]),
   midi.NoteOnEvent(tick=0, channel=0, data=[81, 60]),
   midi.NoteOnEvent(tick=60, channel=0, data=[81, 0]),
   midi.NoteOnEvent(tick=0, channel=0, data=[79, 60]),
   midi.NoteOnEvent(tick=60, channel=0, data=[79, 0]),
   midi.NoteOnEvent(tick=0, channel=0, data=[78, 60]),
   midi.NoteOnEvent(tick=60, channel=0, data=[78, 0]),
   midi.NoteOnEvent(tick=0, channel=0, data=[79, 60]),
   midi.NoteOnEvent(tick=58, channel=0, data=[79, 0]),
   midi.NoteOnEvent(tick=2, channel=0, data=[78, 60]),
   midi.NoteOnEvent(tick=0, channel=0, data=[81, 60]),
   midi.NoteOnEvent(tick=240, channel=0, data=[81, 0]),
   midi.NoteOnEvent(tick=0, channel=0, data=[78, 0]),
   midi.NoteOnEvent(tick=0, channel=0, data=[79, 60]),
   midi.NoteOnEvent(tick=0, channel=0, data=[83, 60]),
   midi.NoteOnEvent(tick=240, channel=0, data=[83, 0]),
   midi.NoteOnEvent(tick=0, channel=0, data=[79, 0]),
   midi.NoteOnEvent(tick=0, channel=0, data=[81, 60]),
   midi.NoteOnEvent(tick=0, channel=0, data=[84, 60]),
   midi.NoteOnEvent(tick=240, channel=0, data=[84, 0]),
   midi.NoteOnEvent(tick=0, channel=0, data=[81, 0]),
   midi.NoteOnEvent(tick=0, channel=0, data=[78, 60]),
   midi.NoteOnEvent(tick=0, channel=0, data=[81, 60]),
   midi.NoteOnEvent(tick=210, channel=0, data=[81, 0]),
   midi.NoteOnEvent(tick=0, channel=0, data=[78, 0]),
   midi.NoteOnEvent(tick=30, channel=0, data=[79, 60]),
   midi.NoteOnEvent(tick=100, channel=0, data=[79, 0]),
   midi.NoteOnEvent(tick=2780, channel=0, data=[88, 92]),
   midi.NoteOnEvent(tick=100, channel=0, data=[88, 0]),
   midi.NoteOnEvent(tick=20, channel=0, data=[88, 92]),
   midi.NoteOnEvent(tick=210, channel=0, data=[88, 0]),
   midi.NoteOnEvent(tick=30, channel=0, data=[88, 92]),
   midi.NoteOnEvent(tick=100, channel=0, data=[88, 0]),
   midi.NoteOnEvent(tick=20, channel=0, data=[88, 92]),
   midi.NoteOnEvent(tick=100, channel=0, data=[88, 0]),
   midi.NoteOnEvent(tick=20, channel=0, data=[88, 92]),
   midi.NoteOnEvent(tick=100, channel=0, data=[88, 0]),
   midi.NoteOnEvent(tick=20, channel=0, data=[88, 92]),
   midi.NoteOnEvent(tick=100, channel=0, data=[88, 0]),
   midi.NoteOnEvent(tick=20, channel=0, data=[88, 92]),
   midi.NoteOnEvent(tick=100, channel=0, data=[88, 0]),
   midi.NoteOnEvent(tick=20, channel=0, data=[88, 92]),
   midi.NoteOnEvent(tick=100, channel=0, data=[88, 0]),
   midi.NoteOnEvent(tick=20, channel=0, data=[88, 92]),
   midi.NoteOnEvent(tick=210, channel=0, data=[88, 0]),
   midi.NoteOnEvent(tick=30, channel=0, data=[88, 92]),
   midi.NoteOnEvent(tick=100, channel=0, data=[88, 0]),
   midi.NoteOnEvent(tick=20, channel=0, data=[88, 92]),
   midi.NoteOnEvent(tick=100, channel=0, data=[88, 0]),
   midi.NoteOnEvent(tick=20, channel=0, data=[88, 92]),
   midi.NoteOnEvent(tick=100, channel=0, data=[88, 0]),
   midi.NoteOnEvent(tick=20, channel=0, data=[88, 92]),
   midi.NoteOnEvent(tick=100, channel=0, data=[88, 0]),
   midi.NoteOnEvent(tick=20, channel=0, data=[88, 92]),
   midi.NoteOnEvent(tick=100, channel=0, data=[88, 0]),
   midi.NoteOnEvent(tick=20, channel=0, data=[88, 92]),
   midi.NoteOnEvent(tick=100, channel=0, data=[88, 0]),
   midi.NoteOnEvent(tick=860, channel=0, data=[81, 60]),
   midi.NoteOnEvent(tick=60, channel=0, data=[81, 0]),
   midi.NoteOnEvent(tick=0, channel=0, data=[83, 60]),
   midi.NoteOnEvent(tick=60, channel=0, data=[83, 0]),
   midi.NoteOnEvent(tick=0, channel=0, data=[84, 60]),
   midi.NoteOnEvent(tick=60, channel=0, data=[84, 0]),
   midi.NoteOnEvent(tick=0, channel=0, data=[83, 60]),
   midi.NoteOnEvent(tick=60, channel=0, data=[83, 0]),
   midi.NoteOnEvent(tick=0, channel=0, data=[81, 60]),
   midi.NoteOnEvent(tick=100, channel=0, data=[81, 0]),
   midi.NoteOnEvent(tick=140, channel=0, data=[83, 60]),
   midi.NoteOnEvent(tick=60, channel=0, data=[83, 0]),
   midi.NoteOnEvent(tick=0, channel=0, data=[84, 60]),
   midi.NoteOnEvent(tick=60, channel=0, data=[84, 0]),
   midi.NoteOnEvent(tick=0, channel=0, data=[86, 60]),
   midi.NoteOnEvent(tick=60, channel=0, data=[86, 0]),
   midi.NoteOnEvent(tick=0, channel=0, data=[84, 60]),
   midi.NoteOnEvent(tick=60, channel=0, data=[84, 0]),
   midi.NoteOnEvent(tick=0, channel=0, data=[83, 60]),
   midi.NoteOnEvent(tick=60, channel=0, data=[83, 0]),
   midi.NoteOnEvent(tick=0, channel=0, data=[84, 60]),
   midi.NoteOnEvent(tick=60, channel=0, data=[84, 0]),
   midi.NoteOnEvent(tick=0, channel=0, data=[83, 60]),
   midi.NoteOnEvent(tick=60, channel=0, data=[83, 0]),
   midi.NoteOnEvent(tick=0, channel=0, data=[81, 60]),
   midi.NoteOnEvent(tick=60, channel=0, data=[81, 0]),
   midi.NoteOnEvent(tick=0, channel=0, data=[80, 60]),
   midi.NoteOnEvent(tick=60, channel=0, data=[80, 0]),
   midi.NoteOnEvent(tick=0, channel=0, data=[81, 60]),
   midi.NoteOnEvent(tick=60, channel=0, data=[81, 0]),
   midi.NoteOnEvent(tick=0, channel=0, data=[83, 60]),
   midi.NoteOnEvent(tick=60, channel=0, data=[83, 0]),
   midi.NoteOnEvent(tick=0, channel=0, data=[81, 60]),
   midi.NoteOnEvent(tick=60, channel=0, data=[81, 0]),
   midi.NoteOnEvent(tick=0, channel=0, data=[80, 60]),
   midi.NoteOnEvent(tick=100, channel=0, data=[80, 0]),
   midi.NoteOnEvent(tick=140, channel=0, data=[81, 60]),
   midi.NoteOnEvent(tick=60, channel=0, data=[81, 0]),
   midi.NoteOnEvent(tick=0, channel=0, data=[83, 60]),
   midi.NoteOnEvent(tick=60, channel=0, data=[83, 0]),
   midi.NoteOnEvent(tick=0, channel=0, data=[84, 60]),
   midi.NoteOnEvent(tick=60, channel=0, data=[84, 0]),
   midi.NoteOnEvent(tick=0, channel=0, data=[83, 60]),
   midi.NoteOnEvent(tick=60, channel=0, data=[83, 0]),
   midi.NoteOnEvent(tick=0, channel=0, data=[81, 60]),
   midi.NoteOnEvent(tick=60, channel=0, data=[81, 0]),
   midi.NoteOnEvent(tick=0, channel=0, data=[83, 60]),
   midi.NoteOnEvent(tick=60, channel=0, data=[83, 0]),
   midi.NoteOnEvent(tick=0, channel=0, data=[81, 60]),
   midi.NoteOnEvent(tick=60, channel=0, data=[81, 0]),
   midi.NoteOnEvent(tick=0, channel=0, data=[79, 60]),
   midi.NoteOnEvent(tick=60, channel=0, data=[79, 0]),
   midi.NoteOnEvent(tick=0, channel=0, data=[78, 60]),
   midi.NoteOnEvent(tick=60, channel=0, data=[78, 0]),
   midi.NoteOnEvent(tick=0, channel=0, data=[80, 60]),
   midi.NoteOnEvent(tick=60, channel=0, data=[80, 0]),
   midi.NoteOnEvent(tick=0, channel=0, data=[81, 60]),
   midi.NoteOnEvent(tick=60, channel=0, data=[81, 0]),
   midi.NoteOnEvent(tick=0, channel=0, data=[80, 60]),
   midi.NoteOnEvent(tick=60, channel=0, data=[80, 0]),
   midi.NoteOnEvent(tick=0, channel=0, data=[78, 60]),
   midi.NoteOnEvent(tick=100, channel=0, data=[78, 0]),
   midi.NoteOnEvent(tick=140, channel=0, data=[80, 60]),
   midi.NoteOnEvent(tick=60, channel=0, data=[80, 0]),
   midi.NoteOnEvent(tick=0, channel=0, data=[81, 60]),
   midi.NoteOnEvent(tick=60, channel=0, data=[81, 0]),
   midi.NoteOnEvent(tick=0, channel=0, data=[83, 60]),
   midi.NoteOnEvent(tick=60, channel=0, data=[83, 0]),
   midi.NoteOnEvent(tick=0, channel=0, data=[81, 60]),
   midi.NoteOnEvent(tick=60, channel=0, data=[81, 0]),
   midi.NoteOnEvent(tick=0, channel=0, data=[80, 60]),
   midi.NoteOnEvent(tick=60, channel=0, data=[80, 0]),
   midi.NoteOnEvent(tick=0, channel=0, data=[76, 60]),
   midi.NoteOnEvent(tick=60, channel=0, data=[76, 0]),
   midi.NoteOnEvent(tick=0, channel=0, data=[78, 60]),
   midi.NoteOnEvent(tick=60, channel=0, data=[78, 0]),
   midi.NoteOnEvent(tick=0, channel=0, data=[80, 60]),
   midi.NoteOnEvent(tick=58, channel=0, data=[80, 0]),
   midi.NoteOnEvent(tick=2, channel=0, data=[81, 92]),
   midi.NoteOnEvent(tick=100, channel=0, data=[81, 0]),
   midi.NoteOnEvent(tick=20, channel=0, data=[85, 92]),
   midi.NoteOnEvent(tick=0, channel=0, data=[88, 92]),
   midi.NoteOnEvent(tick=210, channel=0, data=[88, 0]),
   midi.NoteOnEvent(tick=0, channel=0, data=[85, 0]),
   midi.NoteOnEvent(tick=30, channel=0, data=[86, 92]),
   midi.NoteOnEvent(tick=0, channel=0, data=[89, 92]),
   midi.NoteOnEvent(tick=100, channel=0, data=[89, 0]),
   midi.NoteOnEvent(tick=0, channel=0, data=[86, 0]),
   midi.NoteOnEvent(tick=20, channel=0, data=[85, 92]),
   midi.NoteOnEvent(tick=0, channel=0, data=[88, 92]),
   midi.NoteOnEvent(tick=100, channel=0, data=[88, 0]),
   midi.NoteOnEvent(tick=0, channel=0, data=[85, 0]),
   midi.NoteOnEvent(tick=20, channel=0, data=[86, 92]),
   midi.NoteOnEvent(tick=0, channel=0, data=[89, 92]),
   midi.NoteOnEvent(tick=100, channel=0, data=[89, 0]),
   midi.NoteOnEvent(tick=0, channel=0, data=[86, 0]),
   midi.NoteOnEvent(tick=20, channel=0, data=[85, 92]),
   midi.NoteOnEvent(tick=0, channel=0, data=[88, 92]),
   midi.NoteOnEvent(tick=100, channel=0, data=[88, 0]),
   midi.NoteOnEvent(tick=0, channel=0, data=[85, 0]),
   midi.NoteOnEvent(tick=20, channel=0, data=[86, 92]),
   midi.NoteOnEvent(tick=0, channel=0, data=[89, 92]),
   midi.NoteOnEvent(tick=100, channel=0, data=[89, 0]),
   midi.NoteOnEvent(tick=0, channel=0, data=[86, 0]),
   midi.NoteOnEvent(tick=20, channel=0, data=[85, 92]),
   midi.NoteOnEvent(tick=0, channel=0, data=[88, 92]),
   midi.NoteOnEvent(tick=100, channel=0, data=[88, 0]),
   midi.NoteOnEvent(tick=0, channel=0, data=[85, 0]),
   midi.NoteOnEvent(tick=2780, channel=0, data=[86, 92]),
   midi.NoteOnEvent(tick=100, channel=0, data=[86, 0]),
   midi.NoteOnEvent(tick=20, channel=0, data=[86, 92]),
   midi.NoteOnEvent(tick=210, channel=0, data=[86, 0]),
   midi.NoteOnEvent(tick=30, channel=0, data=[86, 92]),
   midi.NoteOnEvent(tick=100, channel=0, data=[86, 0]),
   midi.NoteOnEvent(tick=20, channel=0, data=[86, 92]),
   midi.NoteOnEvent(tick=100, channel=0, data=[86, 0]),
   midi.NoteOnEvent(tick=20, channel=0, data=[86, 92]),
   midi.NoteOnEvent(tick=100, channel=0, data=[86, 0]),
   midi.NoteOnEvent(tick=20, channel=0, data=[86, 92]),
   midi.NoteOnEvent(tick=100, channel=0, data=[86, 0]),
   midi.NoteOnEvent(tick=20, channel=0, data=[86, 92]),
   midi.NoteOnEvent(tick=100, channel=0, data=[86, 0]),
   midi.NoteOnEvent(tick=20, channel=0, data=[86, 92]),
   midi.NoteOnEvent(tick=100, channel=0, data=[86, 0]),
   midi.NoteOnEvent(tick=3740, channel=0, data=[86, 92]),
   midi.NoteOnEvent(tick=0, channel=0, data=[91, 92]),
   midi.NoteOnEvent(tick=100, channel=0, data=[91, 0]),
   midi.NoteOnEvent(tick=0, channel=0, data=[86, 0]),
   midi.NoteOnEvent(tick=20, channel=0, data=[86, 92]),
   midi.NoteOnEvent(tick=0, channel=0, data=[91, 92]),
   midi.NoteOnEvent(tick=210, channel=0, data=[91, 0]),
   midi.NoteOnEvent(tick=0, channel=0, data=[86, 0]),
   midi.NoteOnEvent(tick=30, channel=0, data=[87, 92]),
   midi.NoteOnEvent(tick=0, channel=0, data=[91, 92]),
   midi.NoteOnEvent(tick=100, channel=0, data=[91, 0]),
   midi.NoteOnEvent(tick=0, channel=0, data=[87, 0]),
   midi.NoteOnEvent(tick=20, channel=0, data=[86, 92]),
   midi.NoteOnEvent(tick=0, channel=0, data=[91, 92]),
   midi.NoteOnEvent(tick=100, channel=0, data=[91, 0]),
   midi.NoteOnEvent(tick=0, channel=0, data=[86, 0]),
   midi.NoteOnEvent(tick=20, channel=0, data=[87, 92]),
   midi.NoteOnEvent(tick=0, channel=0, data=[91, 92]),
   midi.NoteOnEvent(tick=100, channel=0, data=[91, 0]),
   midi.NoteOnEvent(tick=0, channel=0, data=[87, 0]),
   midi.NoteOnEvent(tick=20, channel=0, data=[86, 92]),
   midi.NoteOnEvent(tick=0, channel=0, data=[91, 92]),
   midi.NoteOnEvent(tick=100, channel=0, data=[91, 0]),
   midi.NoteOnEvent(tick=0, channel=0, data=[86, 0]),
   midi.NoteOnEvent(tick=20, channel=0, data=[87, 92]),
   midi.NoteOnEvent(tick=0, channel=0, data=[91, 92]),
   midi.NoteOnEvent(tick=100, channel=0, data=[91, 0]),
   midi.NoteOnEvent(tick=0, channel=0, data=[87, 0]),
   midi.NoteOnEvent(tick=20, channel=0, data=[86, 92]),
   midi.NoteOnEvent(tick=0, channel=0, data=[91, 92]),
   midi.NoteOnEvent(tick=100, channel=0, data=[91, 0]),
   midi.NoteOnEvent(tick=0, channel=0, data=[86, 0]),
   midi.NoteOnEvent(tick=2780, channel=0, data=[84, 92]),
   midi.NoteOnEvent(tick=100, channel=0, data=[84, 0]),
   midi.NoteOnEvent(tick=20, channel=0, data=[84, 92]),
   midi.NoteOnEvent(tick=210, channel=0, data=[84, 0]),
   midi.NoteOnEvent(tick=30, channel=0, data=[84, 92]),
   midi.NoteOnEvent(tick=100, channel=0, data=[84, 0]),
   midi.NoteOnEvent(tick=20, channel=0, data=[84, 92]),
   midi.NoteOnEvent(tick=100, channel=0, data=[84, 0]),
   midi.NoteOnEvent(tick=20, channel=0, data=[84, 92]),
   midi.NoteOnEvent(tick=100, channel=0, data=[84, 0]),
   midi.NoteOnEvent(tick=20, channel=0, data=[84, 92]),
   midi.NoteOnEvent(tick=100, channel=0, data=[84, 0]),
   midi.NoteOnEvent(tick=20, channel=0, data=[84, 92]),
   midi.NoteOnEvent(tick=100, channel=0, data=[84, 0]),
   midi.NoteOnEvent(tick=20, channel=0, data=[84, 92]),
   midi.NoteOnEvent(tick=100, channel=0, data=[84, 0]),
   midi.NoteOnEvent(tick=20, channel=0, data=[84, 60]),
   midi.NoteOnEvent(tick=210, channel=0, data=[84, 0]),
   midi.NoteOnEvent(tick=30, channel=0, data=[84, 60]),
   midi.NoteOnEvent(tick=220, channel=0, data=[84, 0]),
   midi.NoteOnEvent(tick=20, channel=0, data=[84, 60]),
   midi.NoteOnEvent(tick=100, channel=0, data=[84, 0]),
   midi.NoteOnEvent(tick=20, channel=0, data=[84, 60]),
   midi.NoteOnEvent(tick=100, channel=0, data=[84, 0]),
   midi.NoteOnEvent(tick=20, channel=0, data=[84, 60]),
   midi.NoteOnEvent(tick=120, channel=0, data=[86, 60]),
   midi.NoteOnEvent(tick=100, channel=0, data=[86, 0]),
   midi.NoteOnEvent(tick=0, channel=0, data=[84, 0]),
   midi.NoteOnEvent(tick=20, channel=0, data=[84, 60]),
   midi.NoteOnEvent(tick=0, channel=0, data=[86, 60]),
   midi.NoteOnEvent(tick=210, channel=0, data=[86, 0]),
   midi.NoteOnEvent(tick=0, channel=0, data=[84, 0]),
   midi.NoteOnEvent(tick=30, channel=0, data=[84, 60]),
   midi.NoteOnEvent(tick=0, channel=0, data=[86, 60]),
   midi.NoteOnEvent(tick=120, channel=0, data=[84, 0]),
   midi.NoteOnEvent(tick=0, channel=0, data=[82, 60]),
   midi.NoteOnEvent(tick=100, channel=0, data=[82, 0]),
   midi.NoteOnEvent(tick=0, channel=0, data=[86, 0]),
   midi.NoteOnEvent(tick=20, channel=0, data=[82, 60]),
   midi.NoteOnEvent(tick=0, channel=0, data=[86, 60]),
   midi.NoteOnEvent(tick=100, channel=0, data=[86, 0]),
   midi.NoteOnEvent(tick=0, channel=0, data=[82, 0]),
   midi.NoteOnEvent(tick=20, channel=0, data=[82, 60]),
   midi.NoteOnEvent(tick=0, channel=0, data=[86, 60]),
   midi.NoteOnEvent(tick=100, channel=0, data=[86, 0]),
   midi.NoteOnEvent(tick=0, channel=0, data=[82, 0]),
   midi.NoteOnEvent(tick=20, channel=0, data=[82, 60]),
   midi.NoteOnEvent(tick=0, channel=0, data=[86, 60]),
   midi.NoteOnEvent(tick=120, channel=0, data=[86, 0]),
   midi.NoteOnEvent(tick=0, channel=0, data=[84, 60]),
   midi.NoteOnEvent(tick=100, channel=0, data=[84, 0]),
   midi.NoteOnEvent(tick=0, channel=0, data=[82, 0]),
   midi.NoteOnEvent(tick=20, channel=0, data=[82, 60]),
   midi.NoteOnEvent(tick=0, channel=0, data=[84, 60]),
   midi.NoteOnEvent(tick=210, channel=0, data=[84, 0]),
   midi.NoteOnEvent(tick=0, channel=0, data=[82, 0]),
   midi.NoteOnEvent(tick=30, channel=0, data=[82, 60]),
   midi.NoteOnEvent(tick=0, channel=0, data=[84, 60]),
   midi.NoteOnEvent(tick=120, channel=0, data=[82, 0]),
   midi.NoteOnEvent(tick=0, channel=0, data=[81, 60]),
   midi.NoteOnEvent(tick=100, channel=0, data=[81, 0]),
   midi.NoteOnEvent(tick=0, channel=0, data=[84, 0]),
   midi.NoteOnEvent(tick=20, channel=0, data=[81, 60]),
   midi.NoteOnEvent(tick=0, channel=0, data=[84, 60]),
   midi.NoteOnEvent(tick=100, channel=0, data=[84, 0]),
   midi.NoteOnEvent(tick=0, channel=0, data=[81, 0]),
   midi.NoteOnEvent(tick=20, channel=0, data=[81, 60]),
   midi.NoteOnEvent(tick=0, channel=0, data=[84, 60]),
   midi.NoteOnEvent(tick=100, channel=0, data=[84, 0]),
   midi.NoteOnEvent(tick=0, channel=0, data=[81, 0]),
   midi.NoteOnEvent(tick=20, channel=0, data=[81, 60]),
   midi.NoteOnEvent(tick=0, channel=0, data=[84, 60]),
   midi.NoteOnEvent(tick=120, channel=0, data=[84, 0]),
   midi.NoteOnEvent(tick=0, channel=0, data=[82, 60]),
   midi.NoteOnEvent(tick=100, channel=0, data=[82, 0]),
   midi.NoteOnEvent(tick=0, channel=0, data=[81, 0]),
   midi.NoteOnEvent(tick=20, channel=0, data=[81, 60]),
   midi.NoteOnEvent(tick=0, channel=0, data=[82, 60]),
   midi.NoteOnEvent(tick=210, channel=0, data=[82, 0]),
   midi.NoteOnEvent(tick=0, channel=0, data=[81, 0]),
   midi.NoteOnEvent(tick=30, channel=0, data=[81, 60]),
   midi.NoteOnEvent(tick=0, channel=0, data=[82, 60]),
   midi.NoteOnEvent(tick=120, channel=0, data=[81, 0]),
   midi.NoteOnEvent(tick=0, channel=0, data=[79, 60]),
   midi.NoteOnEvent(tick=100, channel=0, data=[79, 0]),
   midi.NoteOnEvent(tick=0, channel=0, data=[82, 0]),
   midi.NoteOnEvent(tick=20, channel=0, data=[79, 60]),
   midi.NoteOnEvent(tick=0, channel=0, data=[82, 60]),
   midi.NoteOnEvent(tick=100, channel=0, data=[82, 0]),
   midi.NoteOnEvent(tick=0, channel=0, data=[79, 0]),
   midi.NoteOnEvent(tick=20, channel=0, data=[79, 60]),
   midi.NoteOnEvent(tick=0, channel=0, data=[82, 60]),
   midi.NoteOnEvent(tick=100, channel=0, data=[82, 0]),
   midi.NoteOnEvent(tick=0, channel=0, data=[79, 0]),
   midi.NoteOnEvent(tick=20, channel=0, data=[79, 60]),
   midi.NoteOnEvent(tick=0, channel=0, data=[82, 60]),
   midi.NoteOnEvent(tick=100, channel=0, data=[82, 0]),
   midi.NoteOnEvent(tick=0, channel=0, data=[79, 0]),
   midi.NoteOnEvent(tick=20, channel=0, data=[77, 60]),
   midi.NoteOnEvent(tick=0, channel=0, data=[81, 60]),
   midi.NoteOnEvent(tick=100, channel=0, data=[81, 0]),
   midi.NoteOnEvent(tick=0, channel=0, data=[77, 0]),
   midi.NoteOnEvent(tick=1820, channel=0, data=[81, 60]),
   midi.NoteOnEvent(tick=60, channel=0, data=[81, 0]),
   midi.NoteOnEvent(tick=0, channel=0, data=[84, 60]),
   midi.NoteOnEvent(tick=60, channel=0, data=[84, 0]),
   midi.NoteOnEvent(tick=0, channel=0, data=[82, 60]),
   midi.NoteOnEvent(tick=60, channel=0, data=[82, 0]),
   midi.NoteOnEvent(tick=0, channel=0, data=[81, 60]),
   midi.NoteOnEvent(tick=60, channel=0, data=[81, 0]),
   midi.NoteOnEvent(tick=0, channel=0, data=[79, 60]),
   midi.NoteOnEvent(tick=60, channel=0, data=[79, 0]),
   midi.NoteOnEvent(tick=0, channel=0, data=[77, 60]),
   midi.NoteOnEvent(tick=60, channel=0, data=[77, 0]),
   midi.NoteOnEvent(tick=0, channel=0, data=[76, 60]),
   midi.NoteOnEvent(tick=60, channel=0, data=[76, 0]),
   midi.NoteOnEvent(tick=0, channel=0, data=[77, 60]),
   midi.NoteOnEvent(tick=58, channel=0, data=[77, 0]),
   midi.NoteOnEvent(tick=2, channel=0, data=[81, 60]),
   midi.NoteOnEvent(tick=60, channel=0, data=[81, 0]),
   midi.NoteOnEvent(tick=0, channel=0, data=[84, 60]),
   midi.NoteOnEvent(tick=60, channel=0, data=[84, 0]),
   midi.NoteOnEvent(tick=0, channel=0, data=[82, 60]),
   midi.NoteOnEvent(tick=60, channel=0, data=[82, 0]),
   midi.NoteOnEvent(tick=0, channel=0, data=[81, 60]),
   midi.NoteOnEvent(tick=60, channel=0, data=[81, 0]),
   midi.NoteOnEvent(tick=0, channel=0, data=[79, 60]),
   midi.NoteOnEvent(tick=60, channel=0, data=[79, 0]),
   midi.NoteOnEvent(tick=0, channel=0, data=[77, 60]),
   midi.NoteOnEvent(tick=60, channel=0, data=[77, 0]),
   midi.NoteOnEvent(tick=0, channel=0, data=[76, 60]),
   midi.NoteOnEvent(tick=60, channel=0, data=[76, 0]),
   midi.NoteOnEvent(tick=0, channel=0, data=[77, 60]),
   midi.NoteOnEvent(tick=58, channel=0, data=[77, 0]),
   midi.NoteOnEvent(tick=2, channel=0, data=[76, 60]),
   midi.NoteOnEvent(tick=0, channel=0, data=[79, 60]),
   midi.NoteOnEvent(tick=240, channel=0, data=[79, 0]),
   midi.NoteOnEvent(tick=0, channel=0, data=[76, 0]),
   midi.NoteOnEvent(tick=0, channel=0, data=[77, 60]),
   midi.NoteOnEvent(tick=0, channel=0, data=[81, 60]),
   midi.NoteOnEvent(tick=240, channel=0, data=[81, 0]),
   midi.NoteOnEvent(tick=0, channel=0, data=[77, 0]),
   midi.NoteOnEvent(tick=0, channel=0, data=[79, 60]),
   midi.NoteOnEvent(tick=0, channel=0, data=[82, 60]),
   midi.NoteOnEvent(tick=240, channel=0, data=[82, 0]),
   midi.NoteOnEvent(tick=0, channel=0, data=[79, 0]),
   midi.NoteOnEvent(tick=0, channel=0, data=[76, 60]),
   midi.NoteOnEvent(tick=0, channel=0, data=[79, 60]),
   midi.NoteOnEvent(tick=210, channel=0, data=[79, 0]),
   midi.NoteOnEvent(tick=0, channel=0, data=[76, 0]),
   midi.NoteOnEvent(tick=30, channel=0, data=[77, 60]),
   midi.NoteOnEvent(tick=0, channel=0, data=[81, 60]),
   midi.NoteOnEvent(tick=100, channel=0, data=[81, 0]),
   midi.NoteOnEvent(tick=0, channel=0, data=[77, 0]),
   midi.NoteOnEvent(tick=1820, channel=0, data=[81, 60]),
   midi.NoteOnEvent(tick=60, channel=0, data=[81, 0]),
   midi.NoteOnEvent(tick=0, channel=0, data=[84, 60]),
   midi.NoteOnEvent(tick=60, channel=0, data=[84, 0]),
   midi.NoteOnEvent(tick=0, channel=0, data=[82, 60]),
   midi.NoteOnEvent(tick=60, channel=0, data=[82, 0]),
   midi.NoteOnEvent(tick=0, channel=0, data=[81, 60]),
   midi.NoteOnEvent(tick=60, channel=0, data=[81, 0]),
   midi.NoteOnEvent(tick=0, channel=0, data=[79, 60]),
   midi.NoteOnEvent(tick=60, channel=0, data=[79, 0]),
   midi.NoteOnEvent(tick=0, channel=0, data=[77, 60]),
   midi.NoteOnEvent(tick=60, channel=0, data=[77, 0]),
   midi.NoteOnEvent(tick=0, channel=0, data=[76, 60]),
   midi.NoteOnEvent(tick=60, channel=0, data=[76, 0]),
   midi.NoteOnEvent(tick=0, channel=0, data=[77, 60]),
   midi.NoteOnEvent(tick=58, channel=0, data=[77, 0]),
   midi.NoteOnEvent(tick=2, channel=0, data=[81, 60]),
   midi.NoteOnEvent(tick=60, channel=0, data=[81, 0]),
   midi.NoteOnEvent(tick=0, channel=0, data=[84, 60]),
   midi.NoteOnEvent(tick=60, channel=0, data=[84, 0]),
   midi.NoteOnEvent(tick=0, channel=0, data=[82, 60]),
   midi.NoteOnEvent(tick=60, channel=0, data=[82, 0]),
   midi.NoteOnEvent(tick=0, channel=0, data=[81, 60]),
   midi.NoteOnEvent(tick=60, channel=0, data=[81, 0]),
   midi.NoteOnEvent(tick=0, channel=0, data=[79, 60]),
   midi.NoteOnEvent(tick=60, channel=0, data=[79, 0]),
   midi.NoteOnEvent(tick=0, channel=0, data=[77, 60]),
   midi.NoteOnEvent(tick=60, channel=0, data=[77, 0]),
   midi.NoteOnEvent(tick=0, channel=0, data=[76, 60]),
   midi.NoteOnEvent(tick=60, channel=0, data=[76, 0]),
   midi.NoteOnEvent(tick=0, channel=0, data=[77, 60]),
   midi.NoteOnEvent(tick=58, channel=0, data=[77, 0]),
   midi.NoteOnEvent(tick=2, channel=0, data=[76, 60]),
   midi.NoteOnEvent(tick=0, channel=0, data=[79, 60]),
   midi.NoteOnEvent(tick=240, channel=0, data=[79, 0]),
   midi.NoteOnEvent(tick=0, channel=0, data=[76, 0]),
   midi.NoteOnEvent(tick=0, channel=0, data=[77, 60]),
   midi.NoteOnEvent(tick=0, channel=0, data=[81, 60]),
   midi.NoteOnEvent(tick=240, channel=0, data=[81, 0]),
   midi.NoteOnEvent(tick=0, channel=0, data=[77, 0]),
   midi.NoteOnEvent(tick=0, channel=0, data=[79, 60]),
   midi.NoteOnEvent(tick=0, channel=0, data=[82, 60]),
   midi.NoteOnEvent(tick=240, channel=0, data=[82, 0]),
   midi.NoteOnEvent(tick=0, channel=0, data=[79, 0]),
   midi.NoteOnEvent(tick=0, channel=0, data=[76, 60]),
   midi.NoteOnEvent(tick=0, channel=0, data=[79, 60]),
   midi.NoteOnEvent(tick=210, channel=0, data=[79, 0]),
   midi.NoteOnEvent(tick=0, channel=0, data=[76, 0]),
   midi.NoteOnEvent(tick=30, channel=0, data=[77, 60]),
   midi.NoteOnEvent(tick=100, channel=0, data=[77, 0]),
   midi.NoteOnEvent(tick=20, channel=0, data=[81, 92]),
   midi.NoteOnEvent(tick=0, channel=0, data=[84, 92]),
   midi.NoteOnEvent(tick=210, channel=0, data=[84, 0]),
   midi.NoteOnEvent(tick=0, channel=0, data=[81, 0]),
   midi.NoteOnEvent(tick=30, channel=0, data=[80, 92]),
   midi.NoteOnEvent(tick=0, channel=0, data=[84, 92]),
   midi.NoteOnEvent(tick=100, channel=0, data=[84, 0]),
   midi.NoteOnEvent(tick=0, channel=0, data=[80, 0]),
   midi.NoteOnEvent(tick=20, channel=0, data=[81, 92]),
   midi.NoteOnEvent(tick=0, channel=0, data=[84, 92]),
   midi.NoteOnEvent(tick=100, channel=0, data=[84, 0]),
   midi.NoteOnEvent(tick=0, channel=0, data=[81, 0]),
   midi.NoteOnEvent(tick=20, channel=0, data=[80, 92]),
   midi.NoteOnEvent(tick=0, channel=0, data=[84, 92]),
   midi.NoteOnEvent(tick=100, channel=0, data=[84, 0]),
   midi.NoteOnEvent(tick=0, channel=0, data=[80, 0]),
   midi.NoteOnEvent(tick=20, channel=0, data=[81, 92]),
   midi.NoteOnEvent(tick=0, channel=0, data=[84, 92]),
   midi.NoteOnEvent(tick=100, channel=0, data=[84, 0]),
   midi.NoteOnEvent(tick=0, channel=0, data=[81, 0]),
   midi.NoteOnEvent(tick=20, channel=0, data=[81, 92]),
   midi.NoteOnEvent(tick=0, channel=0, data=[88, 92]),
   midi.NoteOnEvent(tick=100, channel=0, data=[88, 0]),
   midi.NoteOnEvent(tick=0, channel=0, data=[81, 0]),
   midi.NoteOnEvent(tick=20, channel=0, data=[81, 92]),
   midi.NoteOnEvent(tick=0, channel=0, data=[89, 92]),
   midi.NoteOnEvent(tick=100, channel=0, data=[89, 0]),
   midi.NoteOnEvent(tick=0, channel=0, data=[81, 0]),
   midi.NoteOnEvent(tick=20, channel=0, data=[81, 92]),
   midi.NoteOnEvent(tick=0, channel=0, data=[89, 92]),
   midi.NoteOnEvent(tick=210, channel=0, data=[89, 0]),
   midi.NoteOnEvent(tick=0, channel=0, data=[81, 0]),
   midi.NoteOnEvent(tick=30, channel=0, data=[81, 92]),
   midi.NoteOnEvent(tick=0, channel=0, data=[88, 92]),
   midi.NoteOnEvent(tick=100, channel=0, data=[88, 0]),
   midi.NoteOnEvent(tick=0, channel=0, data=[81, 0]),
   midi.NoteOnEvent(tick=20, channel=0, data=[81, 92]),
   midi.NoteOnEvent(tick=0, channel=0, data=[89, 92]),
   midi.NoteOnEvent(tick=100, channel=0, data=[89, 0]),
   midi.NoteOnEvent(tick=0, channel=0, data=[81, 0]),
   midi.NoteOnEvent(tick=20, channel=0, data=[81, 92]),
   midi.NoteOnEvent(tick=0, channel=0, data=[88, 92]),
   midi.NoteOnEvent(tick=100, channel=0, data=[88, 0]),
   midi.NoteOnEvent(tick=0, channel=0, data=[81, 0]),
   midi.NoteOnEvent(tick=20, channel=0, data=[81, 92]),
   midi.NoteOnEvent(tick=0, channel=0, data=[89, 92]),
   midi.NoteOnEvent(tick=100, channel=0, data=[89, 0]),
   midi.NoteOnEvent(tick=0, channel=0, data=[81, 0]),
   midi.NoteOnEvent(tick=20, channel=0, data=[86, 92]),
   midi.NoteOnEvent(tick=0, channel=0, data=[91, 92]),
   midi.NoteOnEvent(tick=100, channel=0, data=[91, 0]),
   midi.NoteOnEvent(tick=0, channel=0, data=[86, 0]),
   midi.NoteOnEvent(tick=20, channel=0, data=[87, 92]),
   midi.NoteOnEvent(tick=0, channel=0, data=[91, 92]),
   midi.NoteOnEvent(tick=100, channel=0, data=[91, 0]),
   midi.NoteOnEvent(tick=0, channel=0, data=[87, 0]),
   midi.NoteOnEvent(tick=20, channel=0, data=[87, 92]),
   midi.NoteOnEvent(tick=0, channel=0, data=[91, 92]),
   midi.NoteOnEvent(tick=210, channel=0, data=[91, 0]),
   midi.NoteOnEvent(tick=0, channel=0, data=[87, 0]),
   midi.NoteOnEvent(tick=30, channel=0, data=[86, 92]),
   midi.NoteOnEvent(tick=0, channel=0, data=[91, 92]),
   midi.NoteOnEvent(tick=100, channel=0, data=[91, 0]),
   midi.NoteOnEvent(tick=0, channel=0, data=[86, 0]),
   midi.NoteOnEvent(tick=20, channel=0, data=[87, 92]),
   midi.NoteOnEvent(tick=0, channel=0, data=[91, 92]),
   midi.NoteOnEvent(tick=100, channel=0, data=[91, 0]),
   midi.NoteOnEvent(tick=0, channel=0, data=[87, 0]),
   midi.NoteOnEvent(tick=20, channel=0, data=[86, 92]),
   midi.NoteOnEvent(tick=0, channel=0, data=[91, 92]),
   midi.NoteOnEvent(tick=100, channel=0, data=[91, 0]),
   midi.NoteOnEvent(tick=0, channel=0, data=[86, 0]),
   midi.NoteOnEvent(tick=20, channel=0, data=[87, 92]),
   midi.NoteOnEvent(tick=0, channel=0, data=[91, 92]),
   midi.NoteOnEvent(tick=100, channel=0, data=[91, 0]),
   midi.NoteOnEvent(tick=0, channel=0, data=[87, 0]),
   midi.NoteOnEvent(tick=20, channel=0, data=[83, 92]),
   midi.NoteOnEvent(tick=0, channel=0, data=[87, 92]),
   midi.NoteOnEvent(tick=100, channel=0, data=[87, 0]),
   midi.NoteOnEvent(tick=0, channel=0, data=[83, 0]),
   midi.NoteOnEvent(tick=20, channel=0, data=[84, 92]),
   midi.NoteOnEvent(tick=0, channel=0, data=[87, 92]),
   midi.NoteOnEvent(tick=100, channel=0, data=[87, 0]),
   midi.NoteOnEvent(tick=0, channel=0, data=[84, 0]),
   midi.NoteOnEvent(tick=20, channel=0, data=[83, 92]),
   midi.NoteOnEvent(tick=0, channel=0, data=[87, 92]),
   midi.NoteOnEvent(tick=100, channel=0, data=[87, 0]),
   midi.NoteOnEvent(tick=0, channel=0, data=[83, 0]),
   midi.NoteOnEvent(tick=20, channel=0, data=[84, 92]),
   midi.NoteOnEvent(tick=0, channel=0, data=[87, 92]),
   midi.NoteOnEvent(tick=100, channel=0, data=[87, 0]),
   midi.NoteOnEvent(tick=0, channel=0, data=[84, 0]),
   midi.NoteOnEvent(tick=20, channel=0, data=[79, 92]),
   midi.NoteOnEvent(tick=0, channel=0, data=[84, 92]),
   midi.NoteOnEvent(tick=100, channel=0, data=[84, 0]),
   midi.NoteOnEvent(tick=0, channel=0, data=[79, 0]),
   midi.NoteOnEvent(tick=20, channel=0, data=[80, 92]),
   midi.NoteOnEvent(tick=0, channel=0, data=[84, 92]),
   midi.NoteOnEvent(tick=100, channel=0, data=[84, 0]),
   midi.NoteOnEvent(tick=0, channel=0, data=[80, 0]),
   midi.NoteOnEvent(tick=20, channel=0, data=[79, 92]),
   midi.NoteOnEvent(tick=0, channel=0, data=[84, 92]),
   midi.NoteOnEvent(tick=100, channel=0, data=[84, 0]),
   midi.NoteOnEvent(tick=0, channel=0, data=[79, 0]),
   midi.NoteOnEvent(tick=20, channel=0, data=[80, 92]),
   midi.NoteOnEvent(tick=0, channel=0, data=[84, 92]),
   midi.NoteOnEvent(tick=100, channel=0, data=[84, 0]),
   midi.NoteOnEvent(tick=0, channel=0, data=[80, 0]),
   midi.NoteOnEvent(tick=20, channel=0, data=[76, 92]),
   midi.NoteOnEvent(tick=0, channel=0, data=[84, 92]),
   midi.NoteOnEvent(tick=100, channel=0, data=[84, 0]),
   midi.NoteOnEvent(tick=0, channel=0, data=[76, 0]),
   midi.NoteOnEvent(tick=20, channel=0, data=[77, 92]),
   midi.NoteOnEvent(tick=0, channel=0, data=[84, 92]),
   midi.NoteOnEvent(tick=100, channel=0, data=[77, 0]),
   midi.NoteOnEvent(tick=20, channel=0, data=[76, 92]),
   midi.NoteOnEvent(tick=100, channel=0, data=[76, 0]),
   midi.NoteOnEvent(tick=20, channel=0, data=[80, 92]),
   midi.NoteOnEvent(tick=100, channel=0, data=[80, 0]),
   midi.NoteOnEvent(tick=20, channel=0, data=[79, 92]),
   midi.NoteOnEvent(tick=90, channel=0, data=[84, 0]),
   midi.NoteOnEvent(tick=10, channel=0, data=[79, 0]),
   midi.NoteOnEvent(tick=20, channel=0, data=[77, 92]),
   midi.NoteOnEvent(tick=0, channel=0, data=[89, 92]),
   midi.NoteOnEvent(tick=100, channel=0, data=[89, 0]),
   midi.NoteOnEvent(tick=0, channel=0, data=[77, 0]),
   midi.NoteOnEvent(tick=20, channel=0, data=[75, 92]),
   midi.NoteOnEvent(tick=0, channel=0, data=[87, 92]),
   midi.NoteOnEvent(tick=100, channel=0, data=[87, 0]),
   midi.NoteOnEvent(tick=0, channel=0, data=[75, 0]),
   midi.NoteOnEvent(tick=20, channel=0, data=[74, 92]),
   midi.NoteOnEvent(tick=0, channel=0, data=[86, 92]),
   midi.NoteOnEvent(tick=100, channel=0, data=[86, 0]),
   midi.NoteOnEvent(tick=0, channel=0, data=[74, 0]),
   midi.NoteOnEvent(tick=20, channel=0, data=[72, 92]),
   midi.NoteOnEvent(tick=0, channel=0, data=[84, 92]),
   midi.NoteOnEvent(tick=100, channel=0, data=[84, 0]),
   midi.NoteOnEvent(tick=0, channel=0, data=[72, 0]),
   midi.NoteOnEvent(tick=20, channel=0, data=[79, 92]),
   midi.NoteOnEvent(tick=100, channel=0, data=[79, 0]),
   midi.NoteOnEvent(tick=6620, channel=0, data=[84, 92]),
   midi.NoteOnEvent(tick=100, channel=0, data=[84, 0]),
   midi.NoteOnEvent(tick=20, channel=0, data=[84, 92]),
   midi.NoteOnEvent(tick=210, channel=0, data=[84, 0]),
   midi.NoteOnEvent(tick=30, channel=0, data=[84, 92]),
   midi.NoteOnEvent(tick=100, channel=0, data=[84, 0]),
   midi.NoteOnEvent(tick=20, channel=0, data=[84, 92]),
   midi.NoteOnEvent(tick=100, channel=0, data=[84, 0]),
   midi.NoteOnEvent(tick=20, channel=0, data=[84, 92]),
   midi.NoteOnEvent(tick=100, channel=0, data=[84, 0]),
   midi.NoteOnEvent(tick=20, channel=0, data=[84, 92]),
   midi.NoteOnEvent(tick=100, channel=0, data=[84, 0]),
   midi.NoteOnEvent(tick=20, channel=0, data=[84, 92]),
   midi.NoteOnEvent(tick=100, channel=0, data=[84, 0]),
   midi.NoteOnEvent(tick=20, channel=0, data=[84, 92]),
   midi.NoteOnEvent(tick=100, channel=0, data=[84, 0]),
   midi.NoteOnEvent(tick=20, channel=0, data=[84, 92]),
   midi.NoteOnEvent(tick=210, channel=0, data=[84, 0]),
   midi.NoteOnEvent(tick=30, channel=0, data=[84, 92]),
   midi.NoteOnEvent(tick=100, channel=0, data=[84, 0]),
   midi.NoteOnEvent(tick=20, channel=0, data=[84, 92]),
   midi.NoteOnEvent(tick=100, channel=0, data=[84, 0]),
   midi.NoteOnEvent(tick=20, channel=0, data=[84, 92]),
   midi.NoteOnEvent(tick=100, channel=0, data=[84, 0]),
   midi.NoteOnEvent(tick=20, channel=0, data=[84, 92]),
   midi.NoteOnEvent(tick=100, channel=0, data=[84, 0]),
   midi.NoteOnEvent(tick=20, channel=0, data=[84, 92]),
   midi.NoteOnEvent(tick=100, channel=0, data=[84, 0]),
   midi.NoteOnEvent(tick=20, channel=0, data=[84, 92]),
   midi.NoteOnEvent(tick=100, channel=0, data=[84, 0]),
   midi.NoteOnEvent(tick=860, channel=0, data=[81, 75]),
   midi.NoteOnEvent(tick=60, channel=0, data=[81, 0]),
   midi.NoteOnEvent(tick=0, channel=0, data=[84, 75]),
   midi.NoteOnEvent(tick=60, channel=0, data=[84, 0]),
   midi.NoteOnEvent(tick=0, channel=0, data=[82, 75]),
   midi.NoteOnEvent(tick=60, channel=0, data=[82, 0]),
   midi.NoteOnEvent(tick=0, channel=0, data=[81, 75]),
   midi.NoteOnEvent(tick=60, channel=0, data=[81, 0]),
   midi.NoteOnEvent(tick=0, channel=0, data=[79, 75]),
   midi.NoteOnEvent(tick=60, channel=0, data=[79, 0]),
   midi.NoteOnEvent(tick=0, channel=0, data=[77, 75]),
   midi.NoteOnEvent(tick=60, channel=0, data=[77, 0]),
   midi.NoteOnEvent(tick=0, channel=0, data=[76, 75]),
   midi.NoteOnEvent(tick=60, channel=0, data=[76, 0]),
   midi.NoteOnEvent(tick=0, channel=0, data=[77, 75]),
   midi.NoteOnEvent(tick=58, channel=0, data=[77, 0]),
   midi.NoteOnEvent(tick=2, channel=0, data=[81, 75]),
   midi.NoteOnEvent(tick=60, channel=0, data=[81, 0]),
   midi.NoteOnEvent(tick=0, channel=0, data=[84, 75]),
   midi.NoteOnEvent(tick=60, channel=0, data=[84, 0]),
   midi.NoteOnEvent(tick=0, channel=0, data=[82, 75]),
   midi.NoteOnEvent(tick=60, channel=0, data=[82, 0]),
   midi.NoteOnEvent(tick=0, channel=0, data=[81, 75]),
   midi.NoteOnEvent(tick=60, channel=0, data=[81, 0]),
   midi.NoteOnEvent(tick=0, channel=0, data=[79, 75]),
   midi.NoteOnEvent(tick=60, channel=0, data=[79, 0]),
   midi.NoteOnEvent(tick=0, channel=0, data=[77, 75]),
   midi.NoteOnEvent(tick=60, channel=0, data=[77, 0]),
   midi.NoteOnEvent(tick=0, channel=0, data=[76, 75]),
   midi.NoteOnEvent(tick=60, channel=0, data=[76, 0]),
   midi.NoteOnEvent(tick=0, channel=0, data=[77, 75]),
   midi.NoteOnEvent(tick=58, channel=0, data=[77, 0]),
   midi.NoteOnEvent(tick=962, channel=0, data=[79, 75]),
   midi.NoteOnEvent(tick=60, channel=0, data=[79, 0]),
   midi.NoteOnEvent(tick=0, channel=0, data=[81, 75]),
   midi.NoteOnEvent(tick=60, channel=0, data=[81, 0]),
   midi.NoteOnEvent(tick=0, channel=0, data=[79, 75]),
   midi.NoteOnEvent(tick=60, channel=0, data=[79, 0]),
   midi.NoteOnEvent(tick=0, channel=0, data=[81, 75]),
   midi.NoteOnEvent(tick=60, channel=0, data=[81, 0]),
   midi.NoteOnEvent(tick=0, channel=0, data=[79, 75]),
   midi.NoteOnEvent(tick=60, channel=0, data=[79, 0]),
   midi.NoteOnEvent(tick=0, channel=0, data=[81, 75]),
   midi.NoteOnEvent(tick=60, channel=0, data=[81, 0]),
   midi.NoteOnEvent(tick=0, channel=0, data=[79, 75]),
   midi.NoteOnEvent(tick=60, channel=0, data=[79, 0]),
   midi.NoteOnEvent(tick=0, channel=0, data=[81, 75]),
   midi.NoteOnEvent(tick=60, channel=0, data=[81, 0]),
   midi.NoteOnEvent(tick=0, channel=0, data=[79, 75]),
   midi.NoteOnEvent(tick=60, channel=0, data=[79, 0]),
   midi.NoteOnEvent(tick=0, channel=0, data=[81, 75]),
   midi.NoteOnEvent(tick=60, channel=0, data=[81, 0]),
   midi.NoteOnEvent(tick=0, channel=0, data=[79, 75]),
   midi.NoteOnEvent(tick=60, channel=0, data=[79, 0]),
   midi.NoteOnEvent(tick=0, channel=0, data=[81, 75]),
   midi.NoteOnEvent(tick=60, channel=0, data=[81, 0]),
   midi.NoteOnEvent(tick=0, channel=0, data=[79, 75]),
   midi.NoteOnEvent(tick=60, channel=0, data=[79, 0]),
   midi.NoteOnEvent(tick=0, channel=0, data=[77, 75]),
   midi.NoteOnEvent(tick=60, channel=0, data=[77, 0]),
   midi.NoteOnEvent(tick=0, channel=0, data=[76, 75]),
   midi.NoteOnEvent(tick=60, channel=0, data=[76, 0]),
   midi.NoteOnEvent(tick=0, channel=0, data=[74, 75]),
   midi.NoteOnEvent(tick=58, channel=0, data=[74, 0]),
   midi.NoteOnEvent(tick=2, channel=0, data=[72, 75]),
   midi.NoteOnEvent(tick=100, channel=0, data=[72, 0]),
   midi.NoteOnEvent(tick=860, channel=0, data=[81, 75]),
   midi.NoteOnEvent(tick=60, channel=0, data=[81, 0]),
   midi.NoteOnEvent(tick=0, channel=0, data=[84, 75]),
   midi.NoteOnEvent(tick=60, channel=0, data=[84, 0]),
   midi.NoteOnEvent(tick=0, channel=0, data=[82, 75]),
   midi.NoteOnEvent(tick=60, channel=0, data=[82, 0]),
   midi.NoteOnEvent(tick=0, channel=0, data=[81, 75]),
   midi.NoteOnEvent(tick=60, channel=0, data=[81, 0]),
   midi.NoteOnEvent(tick=0, channel=0, data=[79, 75]),
   midi.NoteOnEvent(tick=60, channel=0, data=[79, 0]),
   midi.NoteOnEvent(tick=0, channel=0, data=[77, 75]),
   midi.NoteOnEvent(tick=60, channel=0, data=[77, 0]),
   midi.NoteOnEvent(tick=0, channel=0, data=[76, 75]),
   midi.NoteOnEvent(tick=60, channel=0, data=[76, 0]),
   midi.NoteOnEvent(tick=0, channel=0, data=[77, 75]),
   midi.NoteOnEvent(tick=58, channel=0, data=[77, 0]),
   midi.NoteOnEvent(tick=2, channel=0, data=[81, 75]),
   midi.NoteOnEvent(tick=60, channel=0, data=[81, 0]),
   midi.NoteOnEvent(tick=0, channel=0, data=[84, 75]),
   midi.NoteOnEvent(tick=60, channel=0, data=[84, 0]),
   midi.NoteOnEvent(tick=0, channel=0, data=[82, 75]),
   midi.NoteOnEvent(tick=60, channel=0, data=[82, 0]),
   midi.NoteOnEvent(tick=0, channel=0, data=[81, 75]),
   midi.NoteOnEvent(tick=60, channel=0, data=[81, 0]),
   midi.NoteOnEvent(tick=0, channel=0, data=[79, 75]),
   midi.NoteOnEvent(tick=60, channel=0, data=[79, 0]),
   midi.NoteOnEvent(tick=0, channel=0, data=[77, 75]),
   midi.NoteOnEvent(tick=60, channel=0, data=[77, 0]),
   midi.NoteOnEvent(tick=0, channel=0, data=[76, 75]),
   midi.NoteOnEvent(tick=60, channel=0, data=[76, 0]),
   midi.NoteOnEvent(tick=0, channel=0, data=[77, 75]),
   midi.NoteOnEvent(tick=58, channel=0, data=[77, 0]),
   midi.NoteOnEvent(tick=962, channel=0, data=[79, 75]),
   midi.NoteOnEvent(tick=60, channel=0, data=[79, 0]),
   midi.NoteOnEvent(tick=0, channel=0, data=[81, 75]),
   midi.NoteOnEvent(tick=60, channel=0, data=[81, 0]),
   midi.NoteOnEvent(tick=0, channel=0, data=[79, 75]),
   midi.NoteOnEvent(tick=60, channel=0, data=[79, 0]),
   midi.NoteOnEvent(tick=0, channel=0, data=[81, 75]),
   midi.NoteOnEvent(tick=60, channel=0, data=[81, 0]),
   midi.NoteOnEvent(tick=0, channel=0, data=[79, 75]),
   midi.NoteOnEvent(tick=60, channel=0, data=[79, 0]),
   midi.NoteOnEvent(tick=0, channel=0, data=[81, 75]),
   midi.NoteOnEvent(tick=60, channel=0, data=[81, 0]),
   midi.NoteOnEvent(tick=0, channel=0, data=[79, 75]),
   midi.NoteOnEvent(tick=60, channel=0, data=[79, 0]),
   midi.NoteOnEvent(tick=0, channel=0, data=[81, 75]),
   midi.NoteOnEvent(tick=60, channel=0, data=[81, 0]),
   midi.NoteOnEvent(tick=0, channel=0, data=[79, 75]),
   midi.NoteOnEvent(tick=60, channel=0, data=[79, 0]),
   midi.NoteOnEvent(tick=0, channel=0, data=[81, 75]),
   midi.NoteOnEvent(tick=60, channel=0, data=[81, 0]),
   midi.NoteOnEvent(tick=0, channel=0, data=[79, 75]),
   midi.NoteOnEvent(tick=60, channel=0, data=[79, 0]),
   midi.NoteOnEvent(tick=0, channel=0, data=[81, 75]),
   midi.NoteOnEvent(tick=60, channel=0, data=[81, 0]),
   midi.NoteOnEvent(tick=0, channel=0, data=[79, 75]),
   midi.NoteOnEvent(tick=60, channel=0, data=[79, 0]),
   midi.NoteOnEvent(tick=0, channel=0, data=[77, 75]),
   midi.NoteOnEvent(tick=60, channel=0, data=[77, 0]),
   midi.NoteOnEvent(tick=0, channel=0, data=[76, 75]),
   midi.NoteOnEvent(tick=60, channel=0, data=[76, 0]),
   midi.NoteOnEvent(tick=0, channel=0, data=[74, 75]),
   midi.NoteOnEvent(tick=58, channel=0, data=[74, 0]),
   midi.NoteOnEvent(tick=2, channel=0, data=[72, 75]),
   midi.NoteOnEvent(tick=100, channel=0, data=[72, 0]),
   midi.NoteOnEvent(tick=20, channel=0, data=[88, 92]),
   midi.NoteOnEvent(tick=0, channel=0, data=[91, 92]),
   midi.NoteOnEvent(tick=210, channel=0, data=[91, 0]),
   midi.NoteOnEvent(tick=0, channel=0, data=[88, 0]),
   midi.NoteOnEvent(tick=30, channel=0, data=[87, 92]),
   midi.NoteOnEvent(tick=0, channel=0, data=[91, 92]),
   midi.NoteOnEvent(tick=100, channel=0, data=[91, 0]),
   midi.NoteOnEvent(tick=0, channel=0, data=[87, 0]),
   midi.NoteOnEvent(tick=20, channel=0, data=[88, 92]),
   midi.NoteOnEvent(tick=0, channel=0, data=[91, 92]),
   midi.NoteOnEvent(tick=100, channel=0, data=[91, 0]),
   midi.NoteOnEvent(tick=0, channel=0, data=[88, 0]),
   midi.NoteOnEvent(tick=20, channel=0, data=[87, 92]),
   midi.NoteOnEvent(tick=0, channel=0, data=[91, 92]),
   midi.NoteOnEvent(tick=100, channel=0, data=[91, 0]),
   midi.NoteOnEvent(tick=0, channel=0, data=[87, 0]),
   midi.NoteOnEvent(tick=20, channel=0, data=[88, 92]),
   midi.NoteOnEvent(tick=0, channel=0, data=[91, 92]),
   midi.NoteOnEvent(tick=100, channel=0, data=[91, 0]),
   midi.NoteOnEvent(tick=0, channel=0, data=[88, 0]),
   midi.NoteOnEvent(tick=20, channel=0, data=[83, 92]),
   midi.NoteOnEvent(tick=0, channel=0, data=[88, 92]),
   midi.NoteOnEvent(tick=100, channel=0, data=[88, 0]),
   midi.NoteOnEvent(tick=0, channel=0, data=[83, 0]),
   midi.NoteOnEvent(tick=20, channel=0, data=[84, 92]),
   midi.NoteOnEvent(tick=0, channel=0, data=[88, 92]),
   midi.NoteOnEvent(tick=100, channel=0, data=[88, 0]),
   midi.NoteOnEvent(tick=0, channel=0, data=[84, 0]),
   midi.NoteOnEvent(tick=20, channel=0, data=[84, 92]),
   midi.NoteOnEvent(tick=0, channel=0, data=[88, 92]),
   midi.NoteOnEvent(tick=210, channel=0, data=[88, 0]),
   midi.NoteOnEvent(tick=0, channel=0, data=[84, 0]),
   midi.NoteOnEvent(tick=30, channel=0, data=[83, 92]),
   midi.NoteOnEvent(tick=0, channel=0, data=[88, 92]),
   midi.NoteOnEvent(tick=100, channel=0, data=[88, 0]),
   midi.NoteOnEvent(tick=0, channel=0, data=[83, 0]),
   midi.NoteOnEvent(tick=20, channel=0, data=[84, 92]),
   midi.NoteOnEvent(tick=0, channel=0, data=[88, 92]),
   midi.NoteOnEvent(tick=100, channel=0, data=[88, 0]),
   midi.NoteOnEvent(tick=0, channel=0, data=[84, 0]),
   midi.NoteOnEvent(tick=20, channel=0, data=[83, 92]),
   midi.NoteOnEvent(tick=0, channel=0, data=[88, 92]),
   midi.NoteOnEvent(tick=100, channel=0, data=[88, 0]),
   midi.NoteOnEvent(tick=0, channel=0, data=[83, 0]),
   midi.NoteOnEvent(tick=20, channel=0, data=[84, 92]),
   midi.NoteOnEvent(tick=0, channel=0, data=[88, 92]),
   midi.NoteOnEvent(tick=100, channel=0, data=[88, 0]),
   midi.NoteOnEvent(tick=0, channel=0, data=[84, 0]),
   midi.NoteOnEvent(tick=20, channel=0, data=[80, 92]),
   midi.NoteOnEvent(tick=0, channel=0, data=[84, 92]),
   midi.NoteOnEvent(tick=100, channel=0, data=[84, 0]),
   midi.NoteOnEvent(tick=0, channel=0, data=[80, 0]),
   midi.NoteOnEvent(tick=20, channel=0, data=[81, 92]),
   midi.NoteOnEvent(tick=0, channel=0, data=[84, 92]),
   midi.NoteOnEvent(tick=100, channel=0, data=[84, 0]),
   midi.NoteOnEvent(tick=0, channel=0, data=[81, 0]),
   midi.NoteOnEvent(tick=20, channel=0, data=[81, 92]),
   midi.NoteOnEvent(tick=0, channel=0, data=[84, 92]),
   midi.NoteOnEvent(tick=210, channel=0, data=[84, 0]),
   midi.NoteOnEvent(tick=0, channel=0, data=[81, 0]),
   midi.NoteOnEvent(tick=30, channel=0, data=[80, 92]),
   midi.NoteOnEvent(tick=0, channel=0, data=[84, 92]),
   midi.NoteOnEvent(tick=100, channel=0, data=[84, 0]),
   midi.NoteOnEvent(tick=0, channel=0, data=[80, 0]),
   midi.NoteOnEvent(tick=20, channel=0, data=[81, 92]),
   midi.NoteOnEvent(tick=0, channel=0, data=[84, 92]),
   midi.NoteOnEvent(tick=100, channel=0, data=[84, 0]),
   midi.NoteOnEvent(tick=0, channel=0, data=[81, 0]),
   midi.NoteOnEvent(tick=20, channel=0, data=[80, 92]),
   midi.NoteOnEvent(tick=0, channel=0, data=[84, 92]),
   midi.NoteOnEvent(tick=100, channel=0, data=[84, 0]),
   midi.NoteOnEvent(tick=0, channel=0, data=[80, 0]),
   midi.NoteOnEvent(tick=20, channel=0, data=[81, 92]),
   midi.NoteOnEvent(tick=0, channel=0, data=[84, 92]),
   midi.NoteOnEvent(tick=100, channel=0, data=[84, 0]),
   midi.NoteOnEvent(tick=0, channel=0, data=[81, 0]),
   midi.NoteOnEvent(tick=20, channel=0, data=[82, 92]),
   midi.NoteOnEvent(tick=0, channel=0, data=[85, 92]),
   midi.NoteOnEvent(tick=100, channel=0, data=[85, 0]),
   midi.NoteOnEvent(tick=0, channel=0, data=[82, 0]),
   midi.NoteOnEvent(tick=20, channel=0, data=[81, 92]),
   midi.NoteOnEvent(tick=0, channel=0, data=[86, 92]),
   midi.NoteOnEvent(tick=100, channel=0, data=[86, 0]),
   midi.NoteOnEvent(tick=0, channel=0, data=[81, 0]),
   midi.NoteOnEvent(tick=20, channel=0, data=[82, 92]),
   midi.NoteOnEvent(tick=0, channel=0, data=[85, 92]),
   midi.NoteOnEvent(tick=100, channel=0, data=[85, 0]),
   midi.NoteOnEvent(tick=0, channel=0, data=[82, 0]),
   midi.NoteOnEvent(tick=20, channel=0, data=[81, 92]),
   midi.NoteOnEvent(tick=0, channel=0, data=[86, 92]),
   midi.NoteOnEvent(tick=120, channel=0, data=[86, 0]),
   midi.NoteOnEvent(tick=0, channel=0, data=[88, 92]),
   midi.NoteOnEvent(tick=100, channel=0, data=[88, 0]),
   midi.NoteOnEvent(tick=20, channel=0, data=[89, 92]),
   midi.NoteOnEvent(tick=100, channel=0, data=[89, 0]),
   midi.NoteOnEvent(tick=0, channel=0, data=[81, 0]),
   midi.NoteOnEvent(tick=20, channel=0, data=[87, 92]),
   midi.NoteOnEvent(tick=0, channel=0, data=[90, 92]),
   midi.NoteOnEvent(tick=100, channel=0, data=[90, 0]),
   midi.NoteOnEvent(tick=0, channel=0, data=[87, 0]),
   midi.NoteOnEvent(tick=20, channel=0, data=[86, 92]),
   midi.NoteOnEvent(tick=0, channel=0, data=[91, 92]),
   midi.NoteOnEvent(tick=100, channel=0, data=[91, 0]),
   midi.NoteOnEvent(tick=0, channel=0, data=[86, 0]),
   midi.NoteOnEvent(tick=20, channel=0, data=[83, 92]),
   midi.NoteOnEvent(tick=0, channel=0, data=[89, 92]),
   midi.NoteOnEvent(tick=100, channel=0, data=[89, 0]),
   midi.NoteOnEvent(tick=0, channel=0, data=[83, 0]),
   midi.NoteOnEvent(tick=20, channel=0, data=[84, 92]),
   midi.NoteOnEvent(tick=0, channel=0, data=[88, 92]),
   midi.NoteOnEvent(tick=450, channel=0, data=[88, 0]),
   midi.NoteOnEvent(tick=30, channel=0, data=[86, 92]),
   midi.NoteOnEvent(tick=210, channel=0, data=[84, 0]),
   midi.NoteOnEvent(tick=30, channel=0, data=[83, 92]),
   midi.NoteOnEvent(tick=210, channel=0, data=[83, 0]),
   midi.NoteOnEvent(tick=0, channel=0, data=[86, 0]),
   midi.NoteOnEvent(tick=30, channel=0, data=[84, 92]),
   midi.NoteOnEvent(tick=100, channel=0, data=[84, 0]),
   midi.NoteOnEvent(tick=20, channel=0, data=[88, 92]),
   midi.NoteOnEvent(tick=0, channel=0, data=[91, 92]),
   midi.NoteOnEvent(tick=210, channel=0, data=[91, 0]),
   midi.NoteOnEvent(tick=0, channel=0, data=[88, 0]),
   midi.NoteOnEvent(tick=30, channel=0, data=[87, 92]),
   midi.NoteOnEvent(tick=0, channel=0, data=[91, 92]),
   midi.NoteOnEvent(tick=100, channel=0, data=[91, 0]),
   midi.NoteOnEvent(tick=0, channel=0, data=[87, 0]),
   midi.NoteOnEvent(tick=20, channel=0, data=[88, 92]),
   midi.NoteOnEvent(tick=0, channel=0, data=[91, 92]),
   midi.NoteOnEvent(tick=100, channel=0, data=[91, 0]),
   midi.NoteOnEvent(tick=0, channel=0, data=[88, 0]),
   midi.NoteOnEvent(tick=20, channel=0, data=[87, 92]),
   midi.NoteOnEvent(tick=0, channel=0, data=[91, 92]),
   midi.NoteOnEvent(tick=100, channel=0, data=[91, 0]),
   midi.NoteOnEvent(tick=0, channel=0, data=[87, 0]),
   midi.NoteOnEvent(tick=20, channel=0, data=[88, 92]),
   midi.NoteOnEvent(tick=0, channel=0, data=[91, 92]),
   midi.NoteOnEvent(tick=100, channel=0, data=[91, 0]),
   midi.NoteOnEvent(tick=0, channel=0, data=[88, 0]),
   midi.NoteOnEvent(tick=20, channel=0, data=[83, 92]),
   midi.NoteOnEvent(tick=0, channel=0, data=[88, 92]),
   midi.NoteOnEvent(tick=100, channel=0, data=[88, 0]),
   midi.NoteOnEvent(tick=0, channel=0, data=[83, 0]),
   midi.NoteOnEvent(tick=20, channel=0, data=[84, 92]),
   midi.NoteOnEvent(tick=0, channel=0, data=[88, 92]),
   midi.NoteOnEvent(tick=100, channel=0, data=[88, 0]),
   midi.NoteOnEvent(tick=0, channel=0, data=[84, 0]),
   midi.NoteOnEvent(tick=20, channel=0, data=[84, 92]),
   midi.NoteOnEvent(tick=0, channel=0, data=[88, 92]),
   midi.NoteOnEvent(tick=210, channel=0, data=[88, 0]),
   midi.NoteOnEvent(tick=0, channel=0, data=[84, 0]),
   midi.NoteOnEvent(tick=30, channel=0, data=[83, 92]),
   midi.NoteOnEvent(tick=0, channel=0, data=[88, 92]),
   midi.NoteOnEvent(tick=100, channel=0, data=[88, 0]),
   midi.NoteOnEvent(tick=0, channel=0, data=[83, 0]),
   midi.NoteOnEvent(tick=20, channel=0, data=[84, 92]),
   midi.NoteOnEvent(tick=0, channel=0, data=[88, 92]),
   midi.NoteOnEvent(tick=100, channel=0, data=[88, 0]),
   midi.NoteOnEvent(tick=0, channel=0, data=[84, 0]),
   midi.NoteOnEvent(tick=20, channel=0, data=[83, 92]),
   midi.NoteOnEvent(tick=0, channel=0, data=[88, 92]),
   midi.NoteOnEvent(tick=100, channel=0, data=[88, 0]),
   midi.NoteOnEvent(tick=0, channel=0, data=[83, 0]),
   midi.NoteOnEvent(tick=20, channel=0, data=[84, 92]),
   midi.NoteOnEvent(tick=0, channel=0, data=[88, 92]),
   midi.NoteOnEvent(tick=100, channel=0, data=[88, 0]),
   midi.NoteOnEvent(tick=0, channel=0, data=[84, 0]),
   midi.NoteOnEvent(tick=20, channel=0, data=[80, 92]),
   midi.NoteOnEvent(tick=0, channel=0, data=[84, 92]),
   midi.NoteOnEvent(tick=100, channel=0, data=[84, 0]),
   midi.NoteOnEvent(tick=0, channel=0, data=[80, 0]),
   midi.NoteOnEvent(tick=20, channel=0, data=[81, 92]),
   midi.NoteOnEvent(tick=0, channel=0, data=[84, 92]),
   midi.NoteOnEvent(tick=100, channel=0, data=[84, 0]),
   midi.NoteOnEvent(tick=0, channel=0, data=[81, 0]),
   midi.NoteOnEvent(tick=20, channel=0, data=[81, 92]),
   midi.NoteOnEvent(tick=0, channel=0, data=[84, 92]),
   midi.NoteOnEvent(tick=210, channel=0, data=[84, 0]),
   midi.NoteOnEvent(tick=0, channel=0, data=[81, 0]),
   midi.NoteOnEvent(tick=30, channel=0, data=[80, 92]),
   midi.NoteOnEvent(tick=0, channel=0, data=[84, 92]),
   midi.NoteOnEvent(tick=100, channel=0, data=[84, 0]),
   midi.NoteOnEvent(tick=0, channel=0, data=[80, 0]),
   midi.NoteOnEvent(tick=20, channel=0, data=[81, 92]),
   midi.NoteOnEvent(tick=0, channel=0, data=[84, 92]),
   midi.NoteOnEvent(tick=100, channel=0, data=[84, 0]),
   midi.NoteOnEvent(tick=0, channel=0, data=[81, 0]),
   midi.NoteOnEvent(tick=20, channel=0, data=[80, 92]),
   midi.NoteOnEvent(tick=0, channel=0, data=[84, 92]),
   midi.NoteOnEvent(tick=100, channel=0, data=[84, 0]),
   midi.NoteOnEvent(tick=0, channel=0, data=[80, 0]),
   midi.NoteOnEvent(tick=20, channel=0, data=[81, 92]),
   midi.NoteOnEvent(tick=0, channel=0, data=[84, 92]),
   midi.NoteOnEvent(tick=100, channel=0, data=[84, 0]),
   midi.NoteOnEvent(tick=0, channel=0, data=[81, 0]),
   midi.NoteOnEvent(tick=20, channel=0, data=[82, 92]),
   midi.NoteOnEvent(tick=0, channel=0, data=[85, 92]),
   midi.NoteOnEvent(tick=100, channel=0, data=[85, 0]),
   midi.NoteOnEvent(tick=0, channel=0, data=[82, 0]),
   midi.NoteOnEvent(tick=20, channel=0, data=[81, 92]),
   midi.NoteOnEvent(tick=0, channel=0, data=[86, 92]),
   midi.NoteOnEvent(tick=100, channel=0, data=[86, 0]),
   midi.NoteOnEvent(tick=0, channel=0, data=[81, 0]),
   midi.NoteOnEvent(tick=20, channel=0, data=[82, 92]),
   midi.NoteOnEvent(tick=0, channel=0, data=[85, 92]),
   midi.NoteOnEvent(tick=100, channel=0, data=[85, 0]),
   midi.NoteOnEvent(tick=0, channel=0, data=[82, 0]),
   midi.NoteOnEvent(tick=20, channel=0, data=[81, 92]),
   midi.NoteOnEvent(tick=0, channel=0, data=[86, 92]),
   midi.NoteOnEvent(tick=100, channel=0, data=[86, 0]),
   midi.NoteOnEvent(tick=20, channel=0, data=[88, 92]),
   midi.NoteOnEvent(tick=100, channel=0, data=[88, 0]),
   midi.NoteOnEvent(tick=20, channel=0, data=[89, 92]),
   midi.NoteOnEvent(tick=100, channel=0, data=[89, 0]),
   midi.NoteOnEvent(tick=0, channel=0, data=[81, 0]),
   midi.NoteOnEvent(tick=20, channel=0, data=[87, 92]),
   midi.NoteOnEvent(tick=0, channel=0, data=[90, 92]),
   midi.NoteOnEvent(tick=100, channel=0, data=[90, 0]),
   midi.NoteOnEvent(tick=0, channel=0, data=[87, 0]),
   midi.NoteOnEvent(tick=20, channel=0, data=[86, 92]),
   midi.NoteOnEvent(tick=0, channel=0, data=[91, 92]),
   midi.NoteOnEvent(tick=100, channel=0, data=[91, 0]),
   midi.NoteOnEvent(tick=0, channel=0, data=[86, 0]),
   midi.NoteOnEvent(tick=20, channel=0, data=[83, 92]),
   midi.NoteOnEvent(tick=0, channel=0, data=[89, 92]),
   midi.NoteOnEvent(tick=100, channel=0, data=[89, 0]),
   midi.NoteOnEvent(tick=0, channel=0, data=[83, 0]),
   midi.NoteOnEvent(tick=20, channel=0, data=[84, 92]),
   midi.NoteOnEvent(tick=0, channel=0, data=[88, 92]),
   midi.NoteOnEvent(tick=100, channel=0, data=[88, 0]),
   midi.NoteOnEvent(tick=0, channel=0, data=[84, 0]),
   midi.NoteOnEvent(tick=4220, channel=0, data=[84, 92]),
   midi.NoteOnEvent(tick=0, channel=0, data=[88, 92]),
   midi.NoteOnEvent(tick=450, channel=0, data=[88, 0]),
   midi.NoteOnEvent(tick=30, channel=0, data=[89, 92]),
   midi.NoteOnEvent(tick=450, channel=0, data=[89, 0]),
   midi.NoteOnEvent(tick=30, channel=0, data=[93, 92]),
   midi.NoteOnEvent(tick=450, channel=0, data=[93, 0]),
   midi.NoteOnEvent(tick=30, channel=0, data=[86, 92]),
   midi.NoteOnEvent(tick=450, channel=0, data=[86, 0]),
   midi.NoteOnEvent(tick=0, channel=0, data=[84, 0]),
   midi.NoteOnEvent(tick=30, channel=0, data=[83, 92]),
   midi.NoteOnEvent(tick=0, channel=0, data=[91, 92]),
   midi.NoteOnEvent(tick=450, channel=0, data=[91, 0]),
   midi.NoteOnEvent(tick=0, channel=0, data=[83, 0]),
   midi.NoteOnEvent(tick=30, channel=0, data=[84, 92]),
   midi.NoteOnEvent(tick=100, channel=0, data=[84, 0]),
   midi.ControlChangeEvent(tick=1820, channel=0, data=[7, 32]),
   midi.NoteOnEvent(tick=0, channel=0, data=[88, 60]),
   midi.NoteOnEvent(tick=0, channel=0, data=[91, 60]),
   midi.ControlChangeEvent(tick=1440, channel=0, data=[7, 48]),
   midi.ControlChangeEvent(tick=480, channel=0, data=[7, 64]),
   midi.ControlChangeEvent(tick=480, channel=0, data=[7, 80]),
   midi.ControlChangeEvent(tick=480, channel=0, data=[7, 96]),
   midi.NoteOnEvent(tick=930, channel=0, data=[91, 0]),
   midi.NoteOnEvent(tick=0, channel=0, data=[88, 0]),
   midi.NoteOnEvent(tick=30, channel=0, data=[84, 108]),
   midi.NoteOnEvent(tick=100, channel=0, data=[84, 0]),
   midi.NoteOnEvent(tick=20, channel=0, data=[84, 108]),
   midi.NoteOnEvent(tick=210, channel=0, data=[84, 0]),
   midi.NoteOnEvent(tick=30, channel=0, data=[84, 108]),
   midi.NoteOnEvent(tick=100, channel=0, data=[84, 0]),
   midi.NoteOnEvent(tick=20, channel=0, data=[84, 108]),
   midi.NoteOnEvent(tick=100, channel=0, data=[84, 0]),
   midi.NoteOnEvent(tick=20, channel=0, data=[84, 108]),
   midi.NoteOnEvent(tick=100, channel=0, data=[84, 0]),
   midi.NoteOnEvent(tick=20, channel=0, data=[84, 108]),
   midi.NoteOnEvent(tick=100, channel=0, data=[84, 0]),
   midi.NoteOnEvent(tick=20, channel=0, data=[83, 108]),
   midi.NoteOnEvent(tick=0, channel=0, data=[91, 108]),
   midi.NoteOnEvent(tick=100, channel=0, data=[91, 0]),
   midi.NoteOnEvent(tick=0, channel=0, data=[83, 0]),
   midi.NoteOnEvent(tick=20, channel=0, data=[84, 108]),
   midi.NoteOnEvent(tick=100, channel=0, data=[84, 0]),
   midi.NoteOnEvent(tick=20, channel=0, data=[84, 108]),
   midi.NoteOnEvent(tick=210, channel=0, data=[84, 0]),
   midi.NoteOnEvent(tick=30, channel=0, data=[84, 108]),
   midi.NoteOnEvent(tick=100, channel=0, data=[84, 0]),
   midi.NoteOnEvent(tick=20, channel=0, data=[84, 108]),
   midi.NoteOnEvent(tick=100, channel=0, data=[84, 0]),
   midi.NoteOnEvent(tick=20, channel=0, data=[84, 108]),
   midi.NoteOnEvent(tick=100, channel=0, data=[84, 0]),
   midi.NoteOnEvent(tick=20, channel=0, data=[84, 108]),
   midi.NoteOnEvent(tick=100, channel=0, data=[84, 0]),
   midi.NoteOnEvent(tick=20, channel=0, data=[83, 108]),
   midi.NoteOnEvent(tick=0, channel=0, data=[91, 108]),
   midi.NoteOnEvent(tick=100, channel=0, data=[91, 0]),
   midi.NoteOnEvent(tick=0, channel=0, data=[83, 0]),
   midi.NoteOnEvent(tick=20, channel=0, data=[84, 108]),
   midi.NoteOnEvent(tick=100, channel=0, data=[84, 0]),
   midi.NoteOnEvent(tick=20, channel=0, data=[79, 108]),
   midi.NoteOnEvent(tick=100, channel=0, data=[79, 0]),
   midi.NoteOnEvent(tick=20, channel=0, data=[84, 108]),
   midi.NoteOnEvent(tick=100, channel=0, data=[84, 0]),
   midi.NoteOnEvent(tick=20, channel=0, data=[79, 108]),
   midi.NoteOnEvent(tick=100, channel=0, data=[79, 0]),
   midi.NoteOnEvent(tick=20, channel=0, data=[84, 108]),
   midi.NoteOnEvent(tick=100, channel=0, data=[84, 0]),
   midi.NoteOnEvent(tick=20, channel=0, data=[79, 108]),
   midi.NoteOnEvent(tick=100, channel=0, data=[79, 0]),
   midi.NoteOnEvent(tick=20, channel=0, data=[84, 108]),
   midi.NoteOnEvent(tick=100, channel=0, data=[84, 0]),
   midi.NoteOnEvent(tick=20, channel=0, data=[79, 108]),
   midi.NoteOnEvent(tick=100, channel=0, data=[79, 0]),
   midi.NoteOnEvent(tick=20, channel=0, data=[84, 108]),
   midi.NoteOnEvent(tick=100, channel=0, data=[84, 0]),
   midi.NoteOnEvent(tick=380, channel=0, data=[84, 108]),
   midi.NoteOnEvent(tick=100, channel=0, data=[84, 0]),
   midi.NoteOnEvent(tick=140, channel=0, data=[84, 108]),
   midi.NoteOnEvent(tick=100, channel=0, data=[84, 0]),
   midi.NoteOnEvent(tick=140, channel=0, data=[84, 108]),
   midi.NoteOnEvent(tick=210, channel=0, data=[84, 0]),
   midi.EndOfTrackEvent(tick=0, data=[])]),
 midi.Track(\
  [midi.PortEvent(tick=0, data=[0]),
   midi.TrackNameEvent(tick=0, text='Oboes', data=[79, 98, 111, 101, 115]),
   midi.ProgramChangeEvent(tick=0, channel=1, data=[68]),
   midi.ControlChangeEvent(tick=0, channel=1, data=[7, 127]),
   midi.ControlChangeEvent(tick=0, channel=1, data=[10, 48]),
   midi.NoteOnEvent(tick=0, channel=1, data=[76, 92]),
   midi.NoteOnEvent(tick=0, channel=1, data=[79, 92]),
   midi.NoteOnEvent(tick=100, channel=1, data=[79, 0]),
   midi.NoteOnEvent(tick=0, channel=1, data=[76, 0]),
   midi.NoteOnEvent(tick=110, channel=1, data=[72, 92]),
   midi.NoteOnEvent(tick=28, channel=1, data=[72, 0]),
   midi.NoteOnEvent(tick=2, channel=1, data=[72, 92]),
   midi.NoteOnEvent(tick=100, channel=1, data=[72, 0]),
   midi.NoteOnEvent(tick=140, channel=1, data=[67, 60]),
   midi.NoteOnEvent(tick=240, channel=1, data=[67, 0]),
   midi.NoteOnEvent(tick=0, channel=1, data=[72, 60]),
   midi.NoteOnEvent(tick=120, channel=1, data=[72, 0]),
   midi.NoteOnEvent(tick=0, channel=1, data=[76, 60]),
   midi.NoteOnEvent(tick=100, channel=1, data=[76, 0]),
   midi.NoteOnEvent(tick=20, channel=1, data=[79, 60]),
   midi.NoteOnEvent(tick=120, channel=1, data=[67, 60]),
   midi.NoteOnEvent(tick=90, channel=1, data=[79, 0]),
   midi.NoteOnEvent(tick=10, channel=1, data=[67, 0]),
   midi.NoteOnEvent(tick=20, channel=1, data=[67, 60]),
   midi.NoteOnEvent(tick=0, channel=1, data=[79, 60]),
   midi.NoteOnEvent(tick=60, channel=1, data=[79, 0]),
   midi.NoteOnEvent(tick=0, channel=1, data=[81, 60]),
   midi.NoteOnEvent(tick=30, channel=1, data=[81, 0]),
   midi.NoteOnEvent(tick=0, channel=1, data=[79, 60]),
   midi.NoteOnEvent(tick=10, channel=1, data=[67, 0]),
   midi.NoteOnEvent(tick=20, channel=1, data=[79, 0]),
   midi.NoteOnEvent(tick=0, channel=1, data=[67, 60]),
   midi.NoteOnEvent(tick=0, channel=1, data=[77, 60]),
   midi.NoteOnEvent(tick=30, channel=1, data=[77, 0]),
   midi.NoteOnEvent(tick=0, channel=1, data=[76, 60]),
   midi.NoteOnEvent(tick=30, channel=1, data=[76, 0]),
   midi.NoteOnEvent(tick=0, channel=1, data=[74, 60]),
   midi.NoteOnEvent(tick=30, channel=1, data=[74, 0]),
   midi.NoteOnEvent(tick=0, channel=1, data=[72, 60]),
   midi.NoteOnEvent(tick=10, channel=1, data=[67, 0]),
   midi.NoteOnEvent(tick=18, channel=1, data=[72, 0]),
   midi.NoteOnEvent(tick=2, channel=1, data=[67, 60]),
   midi.NoteOnEvent(tick=0, channel=1, data=[72, 60]),
   midi.NoteOnEvent(tick=120, channel=1, data=[72, 0]),
   midi.NoteOnEvent(tick=0, channel=1, data=[67, 0]),
   midi.NoteOnEvent(tick=0, channel=1, data=[72, 60]),
   midi.NoteOnEvent(tick=0, channel=1, data=[76, 60]),
   midi.NoteOnEvent(tick=90, channel=1, data=[76, 0]),
   midi.NoteOnEvent(tick=0, channel=1, data=[72, 0]),
   midi.NoteOnEvent(tick=0, channel=1, data=[71, 60]),
   midi.NoteOnEvent(tick=0, channel=1, data=[74, 60]),
   midi.NoteOnEvent(tick=28, channel=1, data=[74, 0]),
   midi.NoteOnEvent(tick=0, channel=1, data=[71, 0]),
   midi.NoteOnEvent(tick=2, channel=1, data=[71, 60]),
   midi.NoteOnEvent(tick=0, channel=1, data=[74, 60]),
   midi.NoteOnEvent(tick=100, channel=1, data=[74, 0]),
   midi.NoteOnEvent(tick=0, channel=1, data=[71, 0]),
   midi.NoteOnEvent(tick=110, channel=1, data=[79, 92]),
   midi.NoteOnEvent(tick=0, channel=1, data=[83, 92]),
   midi.NoteOnEvent(tick=28, channel=1, data=[83, 0]),
   midi.NoteOnEvent(tick=0, channel=1, data=[79, 0]),
   midi.NoteOnEvent(tick=2, channel=1, data=[79, 92]),
   midi.NoteOnEvent(tick=0, channel=1, data=[83, 92]),
   midi.NoteOnEvent(tick=100, channel=1, data=[83, 0]),
   midi.NoteOnEvent(tick=0, channel=1, data=[79, 0]),
   midi.NoteOnEvent(tick=110, channel=1, data=[71, 92]),
   midi.NoteOnEvent(tick=0, channel=1, data=[74, 92]),
   midi.NoteOnEvent(tick=28, channel=1, data=[74, 0]),
   midi.NoteOnEvent(tick=0, channel=1, data=[71, 0]),
   midi.NoteOnEvent(tick=2, channel=1, data=[71, 92]),
   midi.NoteOnEvent(tick=0, channel=1, data=[74, 92]),
   midi.NoteOnEvent(tick=100, channel=1, data=[74, 0]),
   midi.NoteOnEvent(tick=0, channel=1, data=[71, 0]),
   midi.NoteOnEvent(tick=140, channel=1, data=[67, 60]),
   midi.NoteOnEvent(tick=240, channel=1, data=[67, 0]),
   midi.NoteOnEvent(tick=0, channel=1, data=[71, 60]),
   midi.NoteOnEvent(tick=120, channel=1, data=[71, 0]),
   midi.NoteOnEvent(tick=0, channel=1, data=[74, 60]),
   midi.NoteOnEvent(tick=100, channel=1, data=[74, 0]),
   midi.NoteOnEvent(tick=20, channel=1, data=[77, 60]),
   midi.NoteOnEvent(tick=120, channel=1, data=[71, 60]),
   midi.NoteOnEvent(tick=100, channel=1, data=[71, 0]),
   midi.NoteOnEvent(tick=20, channel=1, data=[71, 60]),
   midi.NoteOnEvent(tick=60, channel=1, data=[77, 0]),
   midi.NoteOnEvent(tick=0, channel=1, data=[79, 60]),
   midi.NoteOnEvent(tick=30, channel=1, data=[79, 0]),
   midi.NoteOnEvent(tick=0, channel=1, data=[81, 60]),
   midi.NoteOnEvent(tick=10, channel=1, data=[71, 0]),
   midi.NoteOnEvent(tick=20, channel=1, data=[81, 0]),
   midi.NoteOnEvent(tick=0, channel=1, data=[71, 60]),
   midi.NoteOnEvent(tick=0, channel=1, data=[79, 60]),
   midi.NoteOnEvent(tick=30, channel=1, data=[79, 0]),
   midi.NoteOnEvent(tick=0, channel=1, data=[77, 60]),
   midi.NoteOnEvent(tick=30, channel=1, data=[77, 0]),
   midi.NoteOnEvent(tick=0, channel=1, data=[76, 60]),
   midi.NoteOnEvent(tick=30, channel=1, data=[76, 0]),
   midi.NoteOnEvent(tick=0, channel=1, data=[74, 60]),
   midi.NoteOnEvent(tick=10, channel=1, data=[71, 0]),
   midi.NoteOnEvent(tick=18, channel=1, data=[74, 0]),
   midi.NoteOnEvent(tick=2, channel=1, data=[71, 60]),
   midi.NoteOnEvent(tick=0, channel=1, data=[74, 60]),
   midi.NoteOnEvent(tick=120, channel=1, data=[74, 0]),
   midi.NoteOnEvent(tick=0, channel=1, data=[77, 60]),
   midi.NoteOnEvent(tick=70, channel=1, data=[71, 0]),
   midi.NoteOnEvent(tick=20, channel=1, data=[77, 0]),
   midi.NoteOnEvent(tick=0, channel=1, data=[72, 60]),
   midi.NoteOnEvent(tick=0, channel=1, data=[76, 60]),
   midi.NoteOnEvent(tick=28, channel=1, data=[76, 0]),
   midi.NoteOnEvent(tick=0, channel=1, data=[72, 0]),
   midi.NoteOnEvent(tick=2, channel=1, data=[72, 60]),
   midi.NoteOnEvent(tick=0, channel=1, data=[76, 60]),
   midi.NoteOnEvent(tick=100, channel=1, data=[76, 0]),
   midi.NoteOnEvent(tick=0, channel=1, data=[72, 0]),
   midi.NoteOnEvent(tick=1820, channel=1, data=[72, 92]),
   midi.NoteOnEvent(tick=0, channel=1, data=[76, 92]),
   midi.NoteOnEvent(tick=240, channel=1, data=[76, 0]),
   midi.NoteOnEvent(tick=0, channel=1, data=[77, 92]),
   midi.NoteOnEvent(tick=240, channel=1, data=[77, 0]),
   midi.NoteOnEvent(tick=0, channel=1, data=[81, 92]),
   midi.NoteOnEvent(tick=240, channel=1, data=[81, 0]),
   midi.NoteOnEvent(tick=0, channel=1, data=[74, 92]),
   midi.NoteOnEvent(tick=240, channel=1, data=[74, 0]),
   midi.NoteOnEvent(tick=0, channel=1, data=[72, 0]),
   midi.NoteOnEvent(tick=0, channel=1, data=[71, 92]),
   midi.NoteOnEvent(tick=0, channel=1, data=[79, 92]),
   midi.NoteOnEvent(tick=210, channel=1, data=[79, 0]),
   midi.NoteOnEvent(tick=0, channel=1, data=[71, 0]),
   midi.NoteOnEvent(tick=30, channel=1, data=[72, 92]),
   midi.NoteOnEvent(tick=0, channel=1, data=[76, 92]),
   midi.NoteOnEvent(tick=100, channel=1, data=[76, 0]),
   midi.NoteOnEvent(tick=0, channel=1, data=[72, 0]),
   midi.NoteOnEvent(tick=4700, channel=1, data=[76, 92]),
   midi.NoteOnEvent(tick=0, channel=1, data=[79, 92]),
   midi.NoteOnEvent(tick=100, channel=1, data=[79, 0]),
   midi.NoteOnEvent(tick=0, channel=1, data=[76, 0]),
   midi.NoteOnEvent(tick=20, channel=1, data=[76, 92]),
   midi.NoteOnEvent(tick=0, channel=1, data=[79, 92]),
   midi.NoteOnEvent(tick=210, channel=1, data=[79, 0]),
   midi.NoteOnEvent(tick=0, channel=1, data=[76, 0]),
   midi.NoteOnEvent(tick=30, channel=1, data=[77, 92]),
   midi.NoteOnEvent(tick=0, channel=1, data=[81, 92]),
   midi.NoteOnEvent(tick=100, channel=1, data=[81, 0]),
   midi.NoteOnEvent(tick=0, channel=1, data=[77, 0]),
   midi.NoteOnEvent(tick=20, channel=1, data=[76, 92]),
   midi.NoteOnEvent(tick=0, channel=1, data=[79, 92]),
   midi.NoteOnEvent(tick=100, channel=1, data=[79, 0]),
   midi.NoteOnEvent(tick=0, channel=1, data=[76, 0]),
   midi.NoteOnEvent(tick=20, channel=1, data=[77, 92]),
   midi.NoteOnEvent(tick=0, channel=1, data=[81, 92]),
   midi.NoteOnEvent(tick=100, channel=1, data=[81, 0]),
   midi.NoteOnEvent(tick=0, channel=1, data=[77, 0]),
   midi.NoteOnEvent(tick=20, channel=1, data=[76, 92]),
   midi.NoteOnEvent(tick=0, channel=1, data=[79, 92]),
   midi.NoteOnEvent(tick=100, channel=1, data=[79, 0]),
   midi.NoteOnEvent(tick=0, channel=1, data=[76, 0]),
   midi.NoteOnEvent(tick=20, channel=1, data=[77, 92]),
   midi.NoteOnEvent(tick=0, channel=1, data=[81, 92]),
   midi.NoteOnEvent(tick=100, channel=1, data=[81, 0]),
   midi.NoteOnEvent(tick=0, channel=1, data=[77, 0]),
   midi.NoteOnEvent(tick=20, channel=1, data=[76, 92]),
   midi.NoteOnEvent(tick=0, channel=1, data=[79, 92]),
   midi.NoteOnEvent(tick=100, channel=1, data=[79, 0]),
   midi.NoteOnEvent(tick=0, channel=1, data=[76, 0]),
   midi.NoteOnEvent(tick=20, channel=1, data=[76, 92]),
   midi.NoteOnEvent(tick=0, channel=1, data=[79, 92]),
   midi.NoteOnEvent(tick=210, channel=1, data=[79, 0]),
   midi.NoteOnEvent(tick=0, channel=1, data=[76, 0]),
   midi.NoteOnEvent(tick=30, channel=1, data=[77, 92]),
   midi.NoteOnEvent(tick=0, channel=1, data=[81, 92]),
   midi.NoteOnEvent(tick=100, channel=1, data=[81, 0]),
   midi.NoteOnEvent(tick=0, channel=1, data=[77, 0]),
   midi.NoteOnEvent(tick=20, channel=1, data=[76, 92]),
   midi.NoteOnEvent(tick=0, channel=1, data=[79, 92]),
   midi.NoteOnEvent(tick=100, channel=1, data=[79, 0]),
   midi.NoteOnEvent(tick=0, channel=1, data=[76, 0]),
   midi.NoteOnEvent(tick=20, channel=1, data=[77, 92]),
   midi.NoteOnEvent(tick=0, channel=1, data=[81, 92]),
   midi.NoteOnEvent(tick=100, channel=1, data=[81, 0]),
   midi.NoteOnEvent(tick=0, channel=1, data=[77, 0]),
   midi.NoteOnEvent(tick=20, channel=1, data=[76, 92]),
   midi.NoteOnEvent(tick=0, channel=1, data=[79, 92]),
   midi.NoteOnEvent(tick=100, channel=1, data=[79, 0]),
   midi.NoteOnEvent(tick=0, channel=1, data=[76, 0]),
   midi.NoteOnEvent(tick=20, channel=1, data=[77, 92]),
   midi.NoteOnEvent(tick=0, channel=1, data=[81, 92]),
   midi.NoteOnEvent(tick=100, channel=1, data=[81, 0]),
   midi.NoteOnEvent(tick=0, channel=1, data=[77, 0]),
   midi.NoteOnEvent(tick=20, channel=1, data=[76, 60]),
   midi.NoteOnEvent(tick=60, channel=1, data=[79, 60]),
   midi.NoteOnEvent(tick=40, channel=1, data=[76, 0]),
   midi.NoteOnEvent(tick=20, channel=1, data=[79, 0]),
   midi.NoteOnEvent(tick=0, channel=1, data=[77, 60]),
   midi.NoteOnEvent(tick=60, channel=1, data=[77, 0]),
   midi.NoteOnEvent(tick=0, channel=1, data=[76, 60]),
   midi.NoteOnEvent(tick=60, channel=1, data=[76, 0]),
   midi.NoteOnEvent(tick=0, channel=1, data=[74, 60]),
   midi.NoteOnEvent(tick=60, channel=1, data=[74, 0]),
   midi.NoteOnEvent(tick=0, channel=1, data=[72, 60]),
   midi.NoteOnEvent(tick=60, channel=1, data=[72, 0]),
   midi.NoteOnEvent(tick=0, channel=1, data=[71, 60]),
   midi.NoteOnEvent(tick=60, channel=1, data=[71, 0]),
   midi.NoteOnEvent(tick=0, channel=1, data=[72, 60]),
   midi.NoteOnEvent(tick=58, channel=1, data=[72, 0]),
   midi.NoteOnEvent(tick=2, channel=1, data=[76, 60]),
   midi.NoteOnEvent(tick=60, channel=1, data=[76, 0]),
   midi.NoteOnEvent(tick=0, channel=1, data=[79, 60]),
   midi.NoteOnEvent(tick=60, channel=1, data=[79, 0]),
   midi.NoteOnEvent(tick=0, channel=1, data=[77, 60]),
   midi.NoteOnEvent(tick=60, channel=1, data=[77, 0]),
   midi.NoteOnEvent(tick=0, channel=1, data=[76, 60]),
   midi.NoteOnEvent(tick=60, channel=1, data=[76, 0]),
   midi.NoteOnEvent(tick=0, channel=1, data=[74, 60]),
   midi.NoteOnEvent(tick=60, channel=1, data=[74, 0]),
   midi.NoteOnEvent(tick=0, channel=1, data=[72, 60]),
   midi.NoteOnEvent(tick=60, channel=1, data=[72, 0]),
   midi.NoteOnEvent(tick=0, channel=1, data=[71, 60]),
   midi.NoteOnEvent(tick=60, channel=1, data=[71, 0]),
   midi.NoteOnEvent(tick=0, channel=1, data=[72, 60]),
   midi.NoteOnEvent(tick=58, channel=1, data=[72, 0]),
   midi.NoteOnEvent(tick=962, channel=1, data=[76, 60]),
   midi.NoteOnEvent(tick=60, channel=1, data=[76, 0]),
   midi.NoteOnEvent(tick=0, channel=1, data=[79, 60]),
   midi.NoteOnEvent(tick=60, channel=1, data=[79, 0]),
   midi.NoteOnEvent(tick=0, channel=1, data=[77, 60]),
   midi.NoteOnEvent(tick=60, channel=1, data=[77, 0]),
   midi.NoteOnEvent(tick=0, channel=1, data=[76, 60]),
   midi.NoteOnEvent(tick=60, channel=1, data=[76, 0]),
   midi.NoteOnEvent(tick=0, channel=1, data=[74, 60]),
   midi.NoteOnEvent(tick=60, channel=1, data=[74, 0]),
   midi.NoteOnEvent(tick=0, channel=1, data=[72, 60]),
   midi.NoteOnEvent(tick=60, channel=1, data=[72, 0]),
   midi.NoteOnEvent(tick=0, channel=1, data=[71, 60]),
   midi.NoteOnEvent(tick=60, channel=1, data=[71, 0]),
   midi.NoteOnEvent(tick=0, channel=1, data=[72, 60]),
   midi.NoteOnEvent(tick=58, channel=1, data=[72, 0]),
   midi.NoteOnEvent(tick=2, channel=1, data=[76, 60]),
   midi.NoteOnEvent(tick=60, channel=1, data=[76, 0]),
   midi.NoteOnEvent(tick=0, channel=1, data=[79, 60]),
   midi.NoteOnEvent(tick=60, channel=1, data=[79, 0]),
   midi.NoteOnEvent(tick=0, channel=1, data=[77, 60]),
   midi.NoteOnEvent(tick=60, channel=1, data=[77, 0]),
   midi.NoteOnEvent(tick=0, channel=1, data=[76, 60]),
   midi.NoteOnEvent(tick=60, channel=1, data=[76, 0]),
   midi.NoteOnEvent(tick=0, channel=1, data=[74, 60]),
   midi.NoteOnEvent(tick=60, channel=1, data=[74, 0]),
   midi.NoteOnEvent(tick=0, channel=1, data=[72, 60]),
   midi.NoteOnEvent(tick=60, channel=1, data=[72, 0]),
   midi.NoteOnEvent(tick=0, channel=1, data=[71, 60]),
   midi.NoteOnEvent(tick=60, channel=1, data=[71, 0]),
   midi.NoteOnEvent(tick=0, channel=1, data=[72, 60]),
   midi.NoteOnEvent(tick=58, channel=1, data=[72, 0]),
   midi.NoteOnEvent(tick=2, channel=1, data=[71, 60]),
   midi.NoteOnEvent(tick=0, channel=1, data=[74, 60]),
   midi.NoteOnEvent(tick=240, channel=1, data=[74, 0]),
   midi.NoteOnEvent(tick=0, channel=1, data=[71, 0]),
   midi.NoteOnEvent(tick=0, channel=1, data=[72, 60]),
   midi.NoteOnEvent(tick=0, channel=1, data=[76, 60]),
   midi.NoteOnEvent(tick=240, channel=1, data=[76, 0]),
   midi.NoteOnEvent(tick=0, channel=1, data=[72, 0]),
   midi.NoteOnEvent(tick=0, channel=1, data=[74, 60]),
   midi.NoteOnEvent(tick=0, channel=1, data=[77, 60]),
   midi.NoteOnEvent(tick=240, channel=1, data=[77, 0]),
   midi.NoteOnEvent(tick=0, channel=1, data=[74, 0]),
   midi.NoteOnEvent(tick=0, channel=1, data=[71, 60]),
   midi.NoteOnEvent(tick=0, channel=1, data=[74, 60]),
   midi.NoteOnEvent(tick=210, channel=1, data=[74, 0]),
   midi.NoteOnEvent(tick=0, channel=1, data=[71, 0]),
   midi.NoteOnEvent(tick=30, channel=1, data=[72, 60]),
   midi.NoteOnEvent(tick=0, channel=1, data=[76, 60]),
   midi.NoteOnEvent(tick=60, channel=1, data=[76, 0]),
   midi.NoteOnEvent(tick=0, channel=1, data=[79, 60]),
   midi.NoteOnEvent(tick=40, channel=1, data=[72, 0]),
   midi.NoteOnEvent(tick=20, channel=1, data=[79, 0]),
   midi.NoteOnEvent(tick=0, channel=1, data=[77, 60]),
   midi.NoteOnEvent(tick=60, channel=1, data=[77, 0]),
   midi.NoteOnEvent(tick=0, channel=1, data=[76, 60]),
   midi.NoteOnEvent(tick=60, channel=1, data=[76, 0]),
   midi.NoteOnEvent(tick=0, channel=1, data=[74, 60]),
   midi.NoteOnEvent(tick=60, channel=1, data=[74, 0]),
   midi.NoteOnEvent(tick=0, channel=1, data=[72, 60]),
   midi.NoteOnEvent(tick=60, channel=1, data=[72, 0]),
   midi.NoteOnEvent(tick=0, channel=1, data=[71, 60]),
   midi.NoteOnEvent(tick=60, channel=1, data=[71, 0]),
   midi.NoteOnEvent(tick=0, channel=1, data=[72, 60]),
   midi.NoteOnEvent(tick=58, channel=1, data=[72, 0]),
   midi.NoteOnEvent(tick=2, channel=1, data=[76, 60]),
   midi.NoteOnEvent(tick=60, channel=1, data=[76, 0]),
   midi.NoteOnEvent(tick=0, channel=1, data=[79, 60]),
   midi.NoteOnEvent(tick=60, channel=1, data=[79, 0]),
   midi.NoteOnEvent(tick=0, channel=1, data=[77, 60]),
   midi.NoteOnEvent(tick=60, channel=1, data=[77, 0]),
   midi.NoteOnEvent(tick=0, channel=1, data=[76, 60]),
   midi.NoteOnEvent(tick=60, channel=1, data=[76, 0]),
   midi.NoteOnEvent(tick=0, channel=1, data=[74, 60]),
   midi.NoteOnEvent(tick=60, channel=1, data=[74, 0]),
   midi.NoteOnEvent(tick=0, channel=1, data=[72, 60]),
   midi.NoteOnEvent(tick=60, channel=1, data=[72, 0]),
   midi.NoteOnEvent(tick=0, channel=1, data=[71, 60]),
   midi.NoteOnEvent(tick=60, channel=1, data=[71, 0]),
   midi.NoteOnEvent(tick=0, channel=1, data=[72, 60]),
   midi.NoteOnEvent(tick=58, channel=1, data=[72, 0]),
   midi.NoteOnEvent(tick=962, channel=1, data=[76, 60]),
   midi.NoteOnEvent(tick=60, channel=1, data=[76, 0]),
   midi.NoteOnEvent(tick=0, channel=1, data=[79, 60]),
   midi.NoteOnEvent(tick=60, channel=1, data=[79, 0]),
   midi.NoteOnEvent(tick=0, channel=1, data=[77, 60]),
   midi.NoteOnEvent(tick=60, channel=1, data=[77, 0]),
   midi.NoteOnEvent(tick=0, channel=1, data=[76, 60]),
   midi.NoteOnEvent(tick=60, channel=1, data=[76, 0]),
   midi.NoteOnEvent(tick=0, channel=1, data=[74, 60]),
   midi.NoteOnEvent(tick=60, channel=1, data=[74, 0]),
   midi.NoteOnEvent(tick=0, channel=1, data=[72, 60]),
   midi.NoteOnEvent(tick=60, channel=1, data=[72, 0]),
   midi.NoteOnEvent(tick=0, channel=1, data=[71, 60]),
   midi.NoteOnEvent(tick=60, channel=1, data=[71, 0]),
   midi.NoteOnEvent(tick=0, channel=1, data=[72, 60]),
   midi.NoteOnEvent(tick=58, channel=1, data=[72, 0]),
   midi.NoteOnEvent(tick=2, channel=1, data=[76, 60]),
   midi.NoteOnEvent(tick=60, channel=1, data=[76, 0]),
   midi.NoteOnEvent(tick=0, channel=1, data=[79, 60]),
   midi.NoteOnEvent(tick=60, channel=1, data=[79, 0]),
   midi.NoteOnEvent(tick=0, channel=1, data=[77, 60]),
   midi.NoteOnEvent(tick=60, channel=1, data=[77, 0]),
   midi.NoteOnEvent(tick=0, channel=1, data=[76, 60]),
   midi.NoteOnEvent(tick=60, channel=1, data=[76, 0]),
   midi.NoteOnEvent(tick=0, channel=1, data=[74, 60]),
   midi.NoteOnEvent(tick=60, channel=1, data=[74, 0]),
   midi.NoteOnEvent(tick=0, channel=1, data=[72, 60]),
   midi.NoteOnEvent(tick=60, channel=1, data=[72, 0]),
   midi.NoteOnEvent(tick=0, channel=1, data=[71, 60]),
   midi.NoteOnEvent(tick=60, channel=1, data=[71, 0]),
   midi.NoteOnEvent(tick=0, channel=1, data=[72, 60]),
   midi.NoteOnEvent(tick=58, channel=1, data=[72, 0]),
   midi.NoteOnEvent(tick=2, channel=1, data=[71, 60]),
   midi.NoteOnEvent(tick=0, channel=1, data=[74, 60]),
   midi.NoteOnEvent(tick=210, channel=1, data=[74, 0]),
   midi.NoteOnEvent(tick=0, channel=1, data=[71, 0]),
   midi.NoteOnEvent(tick=30, channel=1, data=[72, 60]),
   midi.NoteOnEvent(tick=0, channel=1, data=[76, 60]),
   midi.NoteOnEvent(tick=210, channel=1, data=[76, 0]),
   midi.NoteOnEvent(tick=0, channel=1, data=[72, 0]),
   midi.NoteOnEvent(tick=30, channel=1, data=[74, 60]),
   midi.NoteOnEvent(tick=0, channel=1, data=[77, 60]),
   midi.NoteOnEvent(tick=210, channel=1, data=[77, 0]),
   midi.NoteOnEvent(tick=0, channel=1, data=[74, 0]),
   midi.NoteOnEvent(tick=30, channel=1, data=[71, 60]),
   midi.NoteOnEvent(tick=0, channel=1, data=[74, 60]),
   midi.NoteOnEvent(tick=210, channel=1, data=[74, 0]),
   midi.NoteOnEvent(tick=0, channel=1, data=[71, 0]),
   midi.NoteOnEvent(tick=30, channel=1, data=[72, 60]),
   midi.NoteOnEvent(tick=100, channel=1, data=[72, 0]),
   midi.NoteOnEvent(tick=3740, channel=1, data=[78, 92]),
   midi.NoteOnEvent(tick=0, channel=1, data=[81, 92]),
   midi.NoteOnEvent(tick=100, channel=1, data=[81, 0]),
   midi.NoteOnEvent(tick=0, channel=1, data=[78, 0]),
   midi.NoteOnEvent(tick=20, channel=1, data=[78, 92]),
   midi.NoteOnEvent(tick=0, channel=1, data=[81, 92]),
   midi.NoteOnEvent(tick=210, channel=1, data=[81, 0]),
   midi.NoteOnEvent(tick=0, channel=1, data=[78, 0]),
   midi.NoteOnEvent(tick=30, channel=1, data=[79, 92]),
   midi.NoteOnEvent(tick=0, channel=1, data=[83, 92]),
   midi.NoteOnEvent(tick=100, channel=1, data=[83, 0]),
   midi.NoteOnEvent(tick=0, channel=1, data=[79, 0]),
   midi.NoteOnEvent(tick=20, channel=1, data=[78, 92]),
   midi.NoteOnEvent(tick=0, channel=1, data=[81, 92]),
   midi.NoteOnEvent(tick=100, channel=1, data=[81, 0]),
   midi.NoteOnEvent(tick=0, channel=1, data=[78, 0]),
   midi.NoteOnEvent(tick=20, channel=1, data=[79, 92]),
   midi.NoteOnEvent(tick=0, channel=1, data=[83, 92]),
   midi.NoteOnEvent(tick=100, channel=1, data=[83, 0]),
   midi.NoteOnEvent(tick=0, channel=1, data=[79, 0]),
   midi.NoteOnEvent(tick=20, channel=1, data=[81, 92]),
   midi.NoteOnEvent(tick=0, channel=1, data=[84, 92]),
   midi.NoteOnEvent(tick=100, channel=1, data=[84, 0]),
   midi.NoteOnEvent(tick=0, channel=1, data=[81, 0]),
   midi.NoteOnEvent(tick=20, channel=1, data=[79, 92]),
   midi.NoteOnEvent(tick=0, channel=1, data=[83, 92]),
   midi.NoteOnEvent(tick=100, channel=1, data=[83, 0]),
   midi.NoteOnEvent(tick=0, channel=1, data=[79, 0]),
   midi.NoteOnEvent(tick=20, channel=1, data=[78, 92]),
   midi.NoteOnEvent(tick=0, channel=1, data=[81, 92]),
   midi.NoteOnEvent(tick=100, channel=1, data=[81, 0]),
   midi.NoteOnEvent(tick=0, channel=1, data=[78, 0]),
   midi.NoteOnEvent(tick=20, channel=1, data=[78, 92]),
   midi.NoteOnEvent(tick=0, channel=1, data=[81, 92]),
   midi.NoteOnEvent(tick=210, channel=1, data=[81, 0]),
   midi.NoteOnEvent(tick=0, channel=1, data=[78, 0]),
   midi.NoteOnEvent(tick=30, channel=1, data=[79, 92]),
   midi.NoteOnEvent(tick=0, channel=1, data=[83, 92]),
   midi.NoteOnEvent(tick=100, channel=1, data=[83, 0]),
   midi.NoteOnEvent(tick=0, channel=1, data=[79, 0]),
   midi.NoteOnEvent(tick=20, channel=1, data=[78, 92]),
   midi.NoteOnEvent(tick=0, channel=1, data=[81, 92]),
   midi.NoteOnEvent(tick=100, channel=1, data=[81, 0]),
   midi.NoteOnEvent(tick=0, channel=1, data=[78, 0]),
   midi.NoteOnEvent(tick=20, channel=1, data=[79, 92]),
   midi.NoteOnEvent(tick=0, channel=1, data=[83, 92]),
   midi.NoteOnEvent(tick=100, channel=1, data=[83, 0]),
   midi.NoteOnEvent(tick=0, channel=1, data=[79, 0]),
   midi.NoteOnEvent(tick=20, channel=1, data=[81, 92]),
   midi.NoteOnEvent(tick=0, channel=1, data=[84, 92]),
   midi.NoteOnEvent(tick=100, channel=1, data=[84, 0]),
   midi.NoteOnEvent(tick=0, channel=1, data=[81, 0]),
   midi.NoteOnEvent(tick=20, channel=1, data=[79, 92]),
   midi.NoteOnEvent(tick=0, channel=1, data=[83, 92]),
   midi.NoteOnEvent(tick=100, channel=1, data=[83, 0]),
   midi.NoteOnEvent(tick=0, channel=1, data=[79, 0]),
   midi.NoteOnEvent(tick=20, channel=1, data=[78, 92]),
   midi.NoteOnEvent(tick=0, channel=1, data=[81, 92]),
   midi.NoteOnEvent(tick=100, channel=1, data=[81, 0]),
   midi.NoteOnEvent(tick=0, channel=1, data=[78, 0]),
   midi.NoteOnEvent(tick=20, channel=1, data=[74, 60]),
   midi.NoteOnEvent(tick=210, channel=1, data=[74, 0]),
   midi.NoteOnEvent(tick=30, channel=1, data=[74, 60]),
   midi.NoteOnEvent(tick=220, channel=1, data=[74, 0]),
   midi.NoteOnEvent(tick=20, channel=1, data=[74, 60]),
   midi.NoteOnEvent(tick=100, channel=1, data=[74, 0]),
   midi.NoteOnEvent(tick=20, channel=1, data=[74, 60]),
   midi.NoteOnEvent(tick=100, channel=1, data=[74, 0]),
   midi.NoteOnEvent(tick=20, channel=1, data=[74, 60]),
   midi.NoteOnEvent(tick=120, channel=1, data=[75, 60]),
   midi.NoteOnEvent(tick=100, channel=1, data=[75, 0]),
   midi.NoteOnEvent(tick=0, channel=1, data=[74, 0]),
   midi.NoteOnEvent(tick=20, channel=1, data=[74, 60]),
   midi.NoteOnEvent(tick=0, channel=1, data=[75, 60]),
   midi.NoteOnEvent(tick=210, channel=1, data=[75, 0]),
   midi.NoteOnEvent(tick=0, channel=1, data=[74, 0]),
   midi.NoteOnEvent(tick=30, channel=1, data=[74, 60]),
   midi.NoteOnEvent(tick=0, channel=1, data=[75, 60]),
   midi.NoteOnEvent(tick=120, channel=1, data=[74, 0]),
   midi.NoteOnEvent(tick=0, channel=1, data=[72, 60]),
   midi.NoteOnEvent(tick=100, channel=1, data=[72, 0]),
   midi.NoteOnEvent(tick=0, channel=1, data=[75, 0]),
   midi.NoteOnEvent(tick=20, channel=1, data=[72, 60]),
   midi.NoteOnEvent(tick=0, channel=1, data=[75, 60]),
   midi.NoteOnEvent(tick=100, channel=1, data=[75, 0]),
   midi.NoteOnEvent(tick=0, channel=1, data=[72, 0]),
   midi.NoteOnEvent(tick=20, channel=1, data=[72, 60]),
   midi.NoteOnEvent(tick=0, channel=1, data=[75, 60]),
   midi.NoteOnEvent(tick=100, channel=1, data=[75, 0]),
   midi.NoteOnEvent(tick=0, channel=1, data=[72, 0]),
   midi.NoteOnEvent(tick=20, channel=1, data=[72, 60]),
   midi.NoteOnEvent(tick=0, channel=1, data=[75, 60]),
   midi.NoteOnEvent(tick=120, channel=1, data=[75, 0]),
   midi.NoteOnEvent(tick=0, channel=1, data=[74, 60]),
   midi.NoteOnEvent(tick=100, channel=1, data=[74, 0]),
   midi.NoteOnEvent(tick=0, channel=1, data=[72, 0]),
   midi.NoteOnEvent(tick=20, channel=1, data=[72, 60]),
   midi.NoteOnEvent(tick=0, channel=1, data=[74, 60]),
   midi.NoteOnEvent(tick=210, channel=1, data=[74, 0]),
   midi.NoteOnEvent(tick=0, channel=1, data=[72, 0]),
   midi.NoteOnEvent(tick=30, channel=1, data=[72, 60]),
   midi.NoteOnEvent(tick=0, channel=1, data=[74, 60]),
   midi.NoteOnEvent(tick=120, channel=1, data=[72, 0]),
   midi.NoteOnEvent(tick=0, channel=1, data=[70, 60]),
   midi.NoteOnEvent(tick=100, channel=1, data=[70, 0]),
   midi.NoteOnEvent(tick=0, channel=1, data=[74, 0]),
   midi.NoteOnEvent(tick=20, channel=1, data=[70, 60]),
   midi.NoteOnEvent(tick=0, channel=1, data=[74, 60]),
   midi.NoteOnEvent(tick=100, channel=1, data=[74, 0]),
   midi.NoteOnEvent(tick=0, channel=1, data=[70, 0]),
   midi.NoteOnEvent(tick=20, channel=1, data=[70, 60]),
   midi.NoteOnEvent(tick=0, channel=1, data=[74, 60]),
   midi.NoteOnEvent(tick=100, channel=1, data=[74, 0]),
   midi.NoteOnEvent(tick=0, channel=1, data=[70, 0]),
   midi.NoteOnEvent(tick=20, channel=1, data=[70, 60]),
   midi.NoteOnEvent(tick=0, channel=1, data=[74, 60]),
   midi.NoteOnEvent(tick=120, channel=1, data=[74, 0]),
   midi.NoteOnEvent(tick=0, channel=1, data=[72, 60]),
   midi.NoteOnEvent(tick=100, channel=1, data=[72, 0]),
   midi.NoteOnEvent(tick=0, channel=1, data=[70, 0]),
   midi.NoteOnEvent(tick=20, channel=1, data=[70, 60]),
   midi.NoteOnEvent(tick=0, channel=1, data=[72, 60]),
   midi.NoteOnEvent(tick=210, channel=1, data=[72, 0]),
   midi.NoteOnEvent(tick=0, channel=1, data=[70, 0]),
   midi.NoteOnEvent(tick=30, channel=1, data=[70, 60]),
   midi.NoteOnEvent(tick=0, channel=1, data=[72, 60]),
   midi.NoteOnEvent(tick=120, channel=1, data=[70, 0]),
   midi.NoteOnEvent(tick=0, channel=1, data=[69, 60]),
   midi.NoteOnEvent(tick=100, channel=1, data=[69, 0]),
   midi.NoteOnEvent(tick=0, channel=1, data=[72, 0]),
   midi.NoteOnEvent(tick=20, channel=1, data=[69, 60]),
   midi.NoteOnEvent(tick=0, channel=1, data=[72, 60]),
   midi.NoteOnEvent(tick=100, channel=1, data=[72, 0]),
   midi.NoteOnEvent(tick=0, channel=1, data=[69, 0]),
   midi.NoteOnEvent(tick=20, channel=1, data=[69, 60]),
   midi.NoteOnEvent(tick=0, channel=1, data=[72, 60]),
   midi.NoteOnEvent(tick=100, channel=1, data=[72, 0]),
   midi.NoteOnEvent(tick=0, channel=1, data=[69, 0]),
   midi.NoteOnEvent(tick=20, channel=1, data=[69, 60]),
   midi.NoteOnEvent(tick=0, channel=1, data=[72, 60]),
   midi.NoteOnEvent(tick=100, channel=1, data=[72, 0]),
   midi.NoteOnEvent(tick=0, channel=1, data=[69, 0]),
   midi.NoteOnEvent(tick=20, channel=1, data=[67, 60]),
   midi.NoteOnEvent(tick=0, channel=1, data=[71, 60]),
   midi.NoteOnEvent(tick=100, channel=1, data=[71, 0]),
   midi.NoteOnEvent(tick=0, channel=1, data=[67, 0]),
   midi.NoteOnEvent(tick=20, channel=1, data=[74, 92]),
   midi.NoteOnEvent(tick=0, channel=1, data=[83, 92]),
   midi.NoteOnEvent(tick=210, channel=1, data=[83, 0]),
   midi.NoteOnEvent(tick=0, channel=1, data=[74, 0]),
   midi.NoteOnEvent(tick=30, channel=1, data=[74, 92]),
   midi.NoteOnEvent(tick=0, channel=1, data=[82, 92]),
   midi.NoteOnEvent(tick=100, channel=1, data=[82, 0]),
   midi.NoteOnEvent(tick=0, channel=1, data=[74, 0]),
   midi.NoteOnEvent(tick=20, channel=1, data=[74, 92]),
   midi.NoteOnEvent(tick=0, channel=1, data=[83, 92]),
   midi.NoteOnEvent(tick=100, channel=1, data=[83, 0]),
   midi.NoteOnEvent(tick=0, channel=1, data=[74, 0]),
   midi.NoteOnEvent(tick=20, channel=1, data=[74, 92]),
   midi.NoteOnEvent(tick=0, channel=1, data=[82, 92]),
   midi.NoteOnEvent(tick=100, channel=1, data=[82, 0]),
   midi.NoteOnEvent(tick=0, channel=1, data=[74, 0]),
   midi.NoteOnEvent(tick=20, channel=1, data=[74, 92]),
   midi.NoteOnEvent(tick=0, channel=1, data=[83, 92]),
   midi.NoteOnEvent(tick=100, channel=1, data=[83, 0]),
   midi.NoteOnEvent(tick=0, channel=1, data=[74, 0]),
   midi.NoteOnEvent(tick=20, channel=1, data=[78, 92]),
   midi.NoteOnEvent(tick=0, channel=1, data=[83, 92]),
   midi.NoteOnEvent(tick=100, channel=1, data=[83, 0]),
   midi.NoteOnEvent(tick=0, channel=1, data=[78, 0]),
   midi.NoteOnEvent(tick=20, channel=1, data=[79, 92]),
   midi.NoteOnEvent(tick=0, channel=1, data=[83, 92]),
   midi.NoteOnEvent(tick=100, channel=1, data=[83, 0]),
   midi.NoteOnEvent(tick=0, channel=1, data=[79, 0]),
   midi.NoteOnEvent(tick=20, channel=1, data=[79, 92]),
   midi.NoteOnEvent(tick=0, channel=1, data=[83, 92]),
   midi.NoteOnEvent(tick=210, channel=1, data=[83, 0]),
   midi.NoteOnEvent(tick=0, channel=1, data=[79, 0]),
   midi.NoteOnEvent(tick=30, channel=1, data=[78, 92]),
   midi.NoteOnEvent(tick=0, channel=1, data=[83, 92]),
   midi.NoteOnEvent(tick=100, channel=1, data=[83, 0]),
   midi.NoteOnEvent(tick=0, channel=1, data=[78, 0]),
   midi.NoteOnEvent(tick=20, channel=1, data=[79, 92]),
   midi.NoteOnEvent(tick=0, channel=1, data=[83, 92]),
   midi.NoteOnEvent(tick=100, channel=1, data=[83, 0]),
   midi.NoteOnEvent(tick=0, channel=1, data=[79, 0]),
   midi.NoteOnEvent(tick=20, channel=1, data=[78, 92]),
   midi.NoteOnEvent(tick=0, channel=1, data=[83, 92]),
   midi.NoteOnEvent(tick=100, channel=1, data=[83, 0]),
   midi.NoteOnEvent(tick=0, channel=1, data=[78, 0]),
   midi.NoteOnEvent(tick=20, channel=1, data=[79, 92]),
   midi.NoteOnEvent(tick=0, channel=1, data=[83, 92]),
   midi.NoteOnEvent(tick=100, channel=1, data=[83, 0]),
   midi.NoteOnEvent(tick=0, channel=1, data=[79, 0]),
   midi.NoteOnEvent(tick=20, channel=1, data=[75, 92]),
   midi.NoteOnEvent(tick=0, channel=1, data=[79, 92]),
   midi.NoteOnEvent(tick=100, channel=1, data=[79, 0]),
   midi.NoteOnEvent(tick=0, channel=1, data=[75, 0]),
   midi.NoteOnEvent(tick=20, channel=1, data=[76, 92]),
   midi.NoteOnEvent(tick=0, channel=1, data=[79, 92]),
   midi.NoteOnEvent(tick=100, channel=1, data=[79, 0]),
   midi.NoteOnEvent(tick=0, channel=1, data=[76, 0]),
   midi.NoteOnEvent(tick=20, channel=1, data=[76, 92]),
   midi.NoteOnEvent(tick=0, channel=1, data=[79, 92]),
   midi.NoteOnEvent(tick=210, channel=1, data=[79, 0]),
   midi.NoteOnEvent(tick=0, channel=1, data=[76, 0]),
   midi.NoteOnEvent(tick=30, channel=1, data=[75, 92]),
   midi.NoteOnEvent(tick=0, channel=1, data=[79, 92]),
   midi.NoteOnEvent(tick=100, channel=1, data=[79, 0]),
   midi.NoteOnEvent(tick=0, channel=1, data=[75, 0]),
   midi.NoteOnEvent(tick=20, channel=1, data=[76, 92]),
   midi.NoteOnEvent(tick=0, channel=1, data=[79, 92]),
   midi.NoteOnEvent(tick=100, channel=1, data=[79, 0]),
   midi.NoteOnEvent(tick=0, channel=1, data=[76, 0]),
   midi.NoteOnEvent(tick=20, channel=1, data=[75, 92]),
   midi.NoteOnEvent(tick=0, channel=1, data=[79, 92]),
   midi.NoteOnEvent(tick=100, channel=1, data=[79, 0]),
   midi.NoteOnEvent(tick=0, channel=1, data=[75, 0]),
   midi.NoteOnEvent(tick=20, channel=1, data=[76, 92]),
   midi.NoteOnEvent(tick=0, channel=1, data=[79, 92]),
   midi.NoteOnEvent(tick=100, channel=1, data=[79, 0]),
   midi.NoteOnEvent(tick=0, channel=1, data=[76, 0]),
   midi.NoteOnEvent(tick=20, channel=1, data=[77, 92]),
   midi.NoteOnEvent(tick=0, channel=1, data=[80, 92]),
   midi.NoteOnEvent(tick=100, channel=1, data=[80, 0]),
   midi.NoteOnEvent(tick=0, channel=1, data=[77, 0]),
   midi.NoteOnEvent(tick=20, channel=1, data=[76, 92]),
   midi.NoteOnEvent(tick=0, channel=1, data=[81, 92]),
   midi.NoteOnEvent(tick=120, channel=1, data=[81, 0]),
   midi.NoteOnEvent(tick=0, channel=1, data=[83, 92]),
   midi.NoteOnEvent(tick=120, channel=1, data=[83, 0]),
   midi.NoteOnEvent(tick=0, channel=1, data=[84, 92]),
   midi.NoteOnEvent(tick=90, channel=1, data=[76, 0]),
   midi.NoteOnEvent(tick=30, channel=1, data=[84, 0]),
   midi.NoteOnEvent(tick=0, channel=1, data=[82, 92]),
   midi.NoteOnEvent(tick=0, channel=1, data=[85, 92]),
   midi.NoteOnEvent(tick=100, channel=1, data=[85, 0]),
   midi.NoteOnEvent(tick=0, channel=1, data=[82, 0]),
   midi.NoteOnEvent(tick=20, channel=1, data=[81, 92]),
   midi.NoteOnEvent(tick=0, channel=1, data=[86, 92]),
   midi.NoteOnEvent(tick=100, channel=1, data=[86, 0]),
   midi.NoteOnEvent(tick=0, channel=1, data=[81, 0]),
   midi.NoteOnEvent(tick=20, channel=1, data=[78, 92]),
   midi.NoteOnEvent(tick=0, channel=1, data=[83, 92]),
   midi.NoteOnEvent(tick=100, channel=1, data=[83, 0]),
   midi.NoteOnEvent(tick=0, channel=1, data=[78, 0]),
   midi.NoteOnEvent(tick=20, channel=1, data=[79, 92]),
   midi.NoteOnEvent(tick=0, channel=1, data=[84, 92]),
   midi.NoteOnEvent(tick=100, channel=1, data=[84, 0]),
   midi.NoteOnEvent(tick=0, channel=1, data=[79, 0]),
   midi.NoteOnEvent(tick=20, channel=1, data=[74, 92]),
   midi.NoteOnEvent(tick=0, channel=1, data=[81, 92]),
   midi.NoteOnEvent(tick=100, channel=1, data=[81, 0]),
   midi.NoteOnEvent(tick=0, channel=1, data=[74, 0]),
   midi.NoteOnEvent(tick=20, channel=1, data=[79, 92]),
   midi.NoteOnEvent(tick=0, channel=1, data=[83, 92]),
   midi.NoteOnEvent(tick=930, channel=1, data=[83, 0]),
   midi.NoteOnEvent(tick=30, channel=1, data=[81, 92]),
   midi.NoteOnEvent(tick=210, channel=1, data=[79, 0]),
   midi.NoteOnEvent(tick=30, channel=1, data=[78, 92]),
   midi.NoteOnEvent(tick=210, channel=1, data=[78, 0]),
   midi.NoteOnEvent(tick=0, channel=1, data=[81, 0]),
   midi.NoteOnEvent(tick=30, channel=1, data=[79, 92]),
   midi.NoteOnEvent(tick=0, channel=1, data=[83, 92]),
   midi.NoteOnEvent(tick=930, channel=1, data=[83, 0]),
   midi.NoteOnEvent(tick=30, channel=1, data=[81, 92]),
   midi.NoteOnEvent(tick=210, channel=1, data=[79, 0]),
   midi.NoteOnEvent(tick=30, channel=1, data=[78, 92]),
   midi.NoteOnEvent(tick=210, channel=1, data=[78, 0]),
   midi.NoteOnEvent(tick=0, channel=1, data=[81, 0]),
   midi.NoteOnEvent(tick=30, channel=1, data=[79, 92]),
   midi.NoteOnEvent(tick=100, channel=1, data=[79, 0]),
   midi.NoteOnEvent(tick=860, channel=1, data=[76, 60]),
   midi.NoteOnEvent(tick=60, channel=1, data=[76, 0]),
   midi.NoteOnEvent(tick=0, channel=1, data=[79, 60]),
   midi.NoteOnEvent(tick=60, channel=1, data=[79, 0]),
   midi.NoteOnEvent(tick=0, channel=1, data=[77, 60]),
   midi.NoteOnEvent(tick=60, channel=1, data=[77, 0]),
   midi.NoteOnEvent(tick=0, channel=1, data=[76, 60]),
   midi.NoteOnEvent(tick=60, channel=1, data=[76, 0]),
   midi.NoteOnEvent(tick=0, channel=1, data=[74, 60]),
   midi.NoteOnEvent(tick=60, channel=1, data=[74, 0]),
   midi.NoteOnEvent(tick=0, channel=1, data=[72, 60]),
   midi.NoteOnEvent(tick=60, channel=1, data=[72, 0]),
   midi.NoteOnEvent(tick=0, channel=1, data=[71, 60]),
   midi.NoteOnEvent(tick=60, channel=1, data=[71, 0]),
   midi.NoteOnEvent(tick=0, channel=1, data=[72, 60]),
   midi.NoteOnEvent(tick=58, channel=1, data=[72, 0]),
   midi.NoteOnEvent(tick=2, channel=1, data=[76, 60]),
   midi.NoteOnEvent(tick=60, channel=1, data=[76, 0]),
   midi.NoteOnEvent(tick=0, channel=1, data=[79, 60]),
   midi.NoteOnEvent(tick=60, channel=1, data=[79, 0]),
   midi.NoteOnEvent(tick=0, channel=1, data=[77, 60]),
   midi.NoteOnEvent(tick=60, channel=1, data=[77, 0]),
   midi.NoteOnEvent(tick=0, channel=1, data=[76, 60]),
   midi.NoteOnEvent(tick=60, channel=1, data=[76, 0]),
   midi.NoteOnEvent(tick=0, channel=1, data=[74, 60]),
   midi.NoteOnEvent(tick=60, channel=1, data=[74, 0]),
   midi.NoteOnEvent(tick=0, channel=1, data=[72, 60]),
   midi.NoteOnEvent(tick=60, channel=1, data=[72, 0]),
   midi.NoteOnEvent(tick=0, channel=1, data=[71, 60]),
   midi.NoteOnEvent(tick=60, channel=1, data=[71, 0]),
   midi.NoteOnEvent(tick=0, channel=1, data=[72, 60]),
   midi.NoteOnEvent(tick=58, channel=1, data=[72, 0]),
   midi.NoteOnEvent(tick=962, channel=1, data=[74, 60]),
   midi.NoteOnEvent(tick=60, channel=1, data=[74, 0]),
   midi.NoteOnEvent(tick=0, channel=1, data=[76, 60]),
   midi.NoteOnEvent(tick=60, channel=1, data=[76, 0]),
   midi.NoteOnEvent(tick=0, channel=1, data=[74, 60]),
   midi.NoteOnEvent(tick=60, channel=1, data=[74, 0]),
   midi.NoteOnEvent(tick=0, channel=1, data=[76, 60]),
   midi.NoteOnEvent(tick=60, channel=1, data=[76, 0]),
   midi.NoteOnEvent(tick=0, channel=1, data=[74, 60]),
   midi.NoteOnEvent(tick=60, channel=1, data=[74, 0]),
   midi.NoteOnEvent(tick=0, channel=1, data=[76, 60]),
   midi.NoteOnEvent(tick=60, channel=1, data=[76, 0]),
   midi.NoteOnEvent(tick=0, channel=1, data=[74, 60]),
   midi.NoteOnEvent(tick=60, channel=1, data=[74, 0]),
   midi.NoteOnEvent(tick=0, channel=1, data=[76, 60]),
   midi.NoteOnEvent(tick=60, channel=1, data=[76, 0]),
   midi.NoteOnEvent(tick=0, channel=1, data=[74, 60]),
   midi.NoteOnEvent(tick=60, channel=1, data=[74, 0]),
   midi.NoteOnEvent(tick=0, channel=1, data=[76, 60]),
   midi.NoteOnEvent(tick=60, channel=1, data=[76, 0]),
   midi.NoteOnEvent(tick=0, channel=1, data=[74, 60]),
   midi.NoteOnEvent(tick=60, channel=1, data=[74, 0]),
   midi.NoteOnEvent(tick=0, channel=1, data=[76, 60]),
   midi.NoteOnEvent(tick=60, channel=1, data=[76, 0]),
   midi.NoteOnEvent(tick=0, channel=1, data=[74, 60]),
   midi.NoteOnEvent(tick=60, channel=1, data=[74, 0]),
   midi.NoteOnEvent(tick=0, channel=1, data=[72, 60]),
   midi.NoteOnEvent(tick=60, channel=1, data=[72, 0]),
   midi.NoteOnEvent(tick=0, channel=1, data=[71, 60]),
   midi.NoteOnEvent(tick=60, channel=1, data=[71, 0]),
   midi.NoteOnEvent(tick=0, channel=1, data=[69, 60]),
   midi.NoteOnEvent(tick=58, channel=1, data=[69, 0]),
   midi.NoteOnEvent(tick=2, channel=1, data=[67, 60]),
   midi.NoteOnEvent(tick=100, channel=1, data=[67, 0]),
   midi.NoteOnEvent(tick=860, channel=1, data=[76, 60]),
   midi.NoteOnEvent(tick=60, channel=1, data=[76, 0]),
   midi.NoteOnEvent(tick=0, channel=1, data=[79, 60]),
   midi.NoteOnEvent(tick=60, channel=1, data=[79, 0]),
   midi.NoteOnEvent(tick=0, channel=1, data=[77, 60]),
   midi.NoteOnEvent(tick=60, channel=1, data=[77, 0]),
   midi.NoteOnEvent(tick=0, channel=1, data=[76, 60]),
   midi.NoteOnEvent(tick=60, channel=1, data=[76, 0]),
   midi.NoteOnEvent(tick=0, channel=1, data=[74, 60]),
   midi.NoteOnEvent(tick=60, channel=1, data=[74, 0]),
   midi.NoteOnEvent(tick=0, channel=1, data=[72, 60]),
   midi.NoteOnEvent(tick=60, channel=1, data=[72, 0]),
   midi.NoteOnEvent(tick=0, channel=1, data=[71, 60]),
   midi.NoteOnEvent(tick=60, channel=1, data=[71, 0]),
   midi.NoteOnEvent(tick=0, channel=1, data=[72, 60]),
   midi.NoteOnEvent(tick=58, channel=1, data=[72, 0]),
   midi.NoteOnEvent(tick=2, channel=1, data=[76, 60]),
   midi.NoteOnEvent(tick=60, channel=1, data=[76, 0]),
   midi.NoteOnEvent(tick=0, channel=1, data=[79, 60]),
   midi.NoteOnEvent(tick=60, channel=1, data=[79, 0]),
   midi.NoteOnEvent(tick=0, channel=1, data=[77, 60]),
   midi.NoteOnEvent(tick=60, channel=1, data=[77, 0]),
   midi.NoteOnEvent(tick=0, channel=1, data=[76, 60]),
   midi.NoteOnEvent(tick=60, channel=1, data=[76, 0]),
   midi.NoteOnEvent(tick=0, channel=1, data=[74, 60]),
   midi.NoteOnEvent(tick=60, channel=1, data=[74, 0]),
   midi.NoteOnEvent(tick=0, channel=1, data=[72, 60]),
   midi.NoteOnEvent(tick=60, channel=1, data=[72, 0]),
   midi.NoteOnEvent(tick=0, channel=1, data=[71, 60]),
   midi.NoteOnEvent(tick=60, channel=1, data=[71, 0]),
   midi.NoteOnEvent(tick=0, channel=1, data=[72, 60]),
   midi.NoteOnEvent(tick=58, channel=1, data=[72, 0]),
   midi.NoteOnEvent(tick=962, channel=1, data=[74, 60]),
   midi.NoteOnEvent(tick=60, channel=1, data=[74, 0]),
   midi.NoteOnEvent(tick=0, channel=1, data=[76, 60]),
   midi.NoteOnEvent(tick=60, channel=1, data=[76, 0]),
   midi.NoteOnEvent(tick=0, channel=1, data=[74, 60]),
   midi.NoteOnEvent(tick=60, channel=1, data=[74, 0]),
   midi.NoteOnEvent(tick=0, channel=1, data=[76, 60]),
   midi.NoteOnEvent(tick=60, channel=1, data=[76, 0]),
   midi.NoteOnEvent(tick=0, channel=1, data=[74, 60]),
   midi.NoteOnEvent(tick=60, channel=1, data=[74, 0]),
   midi.NoteOnEvent(tick=0, channel=1, data=[76, 60]),
   midi.NoteOnEvent(tick=60, channel=1, data=[76, 0]),
   midi.NoteOnEvent(tick=0, channel=1, data=[74, 60]),
   midi.NoteOnEvent(tick=60, channel=1, data=[74, 0]),
   midi.NoteOnEvent(tick=0, channel=1, data=[76, 60]),
   midi.NoteOnEvent(tick=60, channel=1, data=[76, 0]),
   midi.NoteOnEvent(tick=0, channel=1, data=[74, 60]),
   midi.NoteOnEvent(tick=60, channel=1, data=[74, 0]),
   midi.NoteOnEvent(tick=0, channel=1, data=[76, 60]),
   midi.NoteOnEvent(tick=60, channel=1, data=[76, 0]),
   midi.NoteOnEvent(tick=0, channel=1, data=[74, 60]),
   midi.NoteOnEvent(tick=60, channel=1, data=[74, 0]),
   midi.NoteOnEvent(tick=0, channel=1, data=[76, 60]),
   midi.NoteOnEvent(tick=60, channel=1, data=[76, 0]),
   midi.NoteOnEvent(tick=0, channel=1, data=[74, 60]),
   midi.NoteOnEvent(tick=60, channel=1, data=[74, 0]),
   midi.NoteOnEvent(tick=0, channel=1, data=[72, 60]),
   midi.NoteOnEvent(tick=60, channel=1, data=[72, 0]),
   midi.NoteOnEvent(tick=0, channel=1, data=[71, 60]),
   midi.NoteOnEvent(tick=60, channel=1, data=[71, 0]),
   midi.NoteOnEvent(tick=0, channel=1, data=[69, 60]),
   midi.NoteOnEvent(tick=58, channel=1, data=[69, 0]),
   midi.NoteOnEvent(tick=2, channel=1, data=[67, 60]),
   midi.NoteOnEvent(tick=100, channel=1, data=[67, 0]),
   midi.NoteOnEvent(tick=2780, channel=1, data=[71, 92]),
   midi.NoteOnEvent(tick=0, channel=1, data=[80, 92]),
   midi.NoteOnEvent(tick=100, channel=1, data=[80, 0]),
   midi.NoteOnEvent(tick=0, channel=1, data=[71, 0]),
   midi.NoteOnEvent(tick=20, channel=1, data=[71, 92]),
   midi.NoteOnEvent(tick=0, channel=1, data=[80, 92]),
   midi.NoteOnEvent(tick=210, channel=1, data=[80, 0]),
   midi.NoteOnEvent(tick=0, channel=1, data=[71, 0]),
   midi.NoteOnEvent(tick=30, channel=1, data=[72, 92]),
   midi.NoteOnEvent(tick=0, channel=1, data=[81, 92]),
   midi.NoteOnEvent(tick=100, channel=1, data=[81, 0]),
   midi.NoteOnEvent(tick=0, channel=1, data=[72, 0]),
   midi.NoteOnEvent(tick=20, channel=1, data=[71, 92]),
   midi.NoteOnEvent(tick=0, channel=1, data=[80, 92]),
   midi.NoteOnEvent(tick=100, channel=1, data=[80, 0]),
   midi.NoteOnEvent(tick=0, channel=1, data=[71, 0]),
   midi.NoteOnEvent(tick=20, channel=1, data=[72, 92]),
   midi.NoteOnEvent(tick=0, channel=1, data=[81, 92]),
   midi.NoteOnEvent(tick=100, channel=1, data=[81, 0]),
   midi.NoteOnEvent(tick=0, channel=1, data=[72, 0]),
   midi.NoteOnEvent(tick=20, channel=1, data=[74, 92]),
   midi.NoteOnEvent(tick=0, channel=1, data=[83, 92]),
   midi.NoteOnEvent(tick=100, channel=1, data=[83, 0]),
   midi.NoteOnEvent(tick=0, channel=1, data=[74, 0]),
   midi.NoteOnEvent(tick=20, channel=1, data=[72, 92]),
   midi.NoteOnEvent(tick=0, channel=1, data=[81, 92]),
   midi.NoteOnEvent(tick=100, channel=1, data=[81, 0]),
   midi.NoteOnEvent(tick=0, channel=1, data=[72, 0]),
   midi.NoteOnEvent(tick=20, channel=1, data=[71, 92]),
   midi.NoteOnEvent(tick=0, channel=1, data=[80, 92]),
   midi.NoteOnEvent(tick=100, channel=1, data=[80, 0]),
   midi.NoteOnEvent(tick=0, channel=1, data=[71, 0]),
   midi.NoteOnEvent(tick=20, channel=1, data=[71, 92]),
   midi.NoteOnEvent(tick=0, channel=1, data=[80, 92]),
   midi.NoteOnEvent(tick=210, channel=1, data=[80, 0]),
   midi.NoteOnEvent(tick=0, channel=1, data=[71, 0]),
   midi.NoteOnEvent(tick=30, channel=1, data=[72, 92]),
   midi.NoteOnEvent(tick=0, channel=1, data=[81, 92]),
   midi.NoteOnEvent(tick=100, channel=1, data=[81, 0]),
   midi.NoteOnEvent(tick=0, channel=1, data=[72, 0]),
   midi.NoteOnEvent(tick=20, channel=1, data=[71, 92]),
   midi.NoteOnEvent(tick=0, channel=1, data=[80, 92]),
   midi.NoteOnEvent(tick=100, channel=1, data=[80, 0]),
   midi.NoteOnEvent(tick=0, channel=1, data=[71, 0]),
   midi.NoteOnEvent(tick=20, channel=1, data=[72, 92]),
   midi.NoteOnEvent(tick=0, channel=1, data=[81, 92]),
   midi.NoteOnEvent(tick=100, channel=1, data=[81, 0]),
   midi.NoteOnEvent(tick=0, channel=1, data=[72, 0]),
   midi.NoteOnEvent(tick=20, channel=1, data=[74, 92]),
   midi.NoteOnEvent(tick=0, channel=1, data=[83, 92]),
   midi.NoteOnEvent(tick=100, channel=1, data=[83, 0]),
   midi.NoteOnEvent(tick=0, channel=1, data=[74, 0]),
   midi.NoteOnEvent(tick=20, channel=1, data=[72, 92]),
   midi.NoteOnEvent(tick=0, channel=1, data=[81, 92]),
   midi.NoteOnEvent(tick=100, channel=1, data=[81, 0]),
   midi.NoteOnEvent(tick=0, channel=1, data=[72, 0]),
   midi.NoteOnEvent(tick=20, channel=1, data=[71, 92]),
   midi.NoteOnEvent(tick=0, channel=1, data=[80, 92]),
   midi.NoteOnEvent(tick=100, channel=1, data=[80, 0]),
   midi.NoteOnEvent(tick=0, channel=1, data=[71, 0]),
   midi.NoteOnEvent(tick=3740, channel=1, data=[69, 92]),
   midi.NoteOnEvent(tick=0, channel=1, data=[81, 92]),
   midi.NoteOnEvent(tick=100, channel=1, data=[81, 0]),
   midi.NoteOnEvent(tick=0, channel=1, data=[69, 0]),
   midi.NoteOnEvent(tick=20, channel=1, data=[69, 92]),
   midi.NoteOnEvent(tick=0, channel=1, data=[81, 92]),
   midi.NoteOnEvent(tick=210, channel=1, data=[81, 0]),
   midi.NoteOnEvent(tick=0, channel=1, data=[69, 0]),
   midi.NoteOnEvent(tick=30, channel=1, data=[69, 92]),
   midi.NoteOnEvent(tick=0, channel=1, data=[81, 92]),
   midi.NoteOnEvent(tick=100, channel=1, data=[81, 0]),
   midi.NoteOnEvent(tick=0, channel=1, data=[69, 0]),
   midi.NoteOnEvent(tick=20, channel=1, data=[69, 92]),
   midi.NoteOnEvent(tick=0, channel=1, data=[81, 92]),
   midi.NoteOnEvent(tick=100, channel=1, data=[81, 0]),
   midi.NoteOnEvent(tick=0, channel=1, data=[69, 0]),
   midi.NoteOnEvent(tick=20, channel=1, data=[69, 92]),
   midi.NoteOnEvent(tick=0, channel=1, data=[81, 92]),
   midi.NoteOnEvent(tick=100, channel=1, data=[81, 0]),
   midi.NoteOnEvent(tick=0, channel=1, data=[69, 0]),
   midi.NoteOnEvent(tick=20, channel=1, data=[69, 92]),
   midi.NoteOnEvent(tick=0, channel=1, data=[81, 92]),
   midi.NoteOnEvent(tick=100, channel=1, data=[81, 0]),
   midi.NoteOnEvent(tick=0, channel=1, data=[69, 0]),
   midi.NoteOnEvent(tick=20, channel=1, data=[69, 92]),
   midi.NoteOnEvent(tick=0, channel=1, data=[81, 92]),
   midi.NoteOnEvent(tick=100, channel=1, data=[81, 0]),
   midi.NoteOnEvent(tick=0, channel=1, data=[69, 0]),
   midi.NoteOnEvent(tick=20, channel=1, data=[69, 92]),
   midi.NoteOnEvent(tick=0, channel=1, data=[81, 92]),
   midi.NoteOnEvent(tick=100, channel=1, data=[81, 0]),
   midi.NoteOnEvent(tick=0, channel=1, data=[69, 0]),
   midi.NoteOnEvent(tick=2780, channel=1, data=[78, 92]),
   midi.NoteOnEvent(tick=0, channel=1, data=[81, 92]),
   midi.NoteOnEvent(tick=100, channel=1, data=[81, 0]),
   midi.NoteOnEvent(tick=0, channel=1, data=[78, 0]),
   midi.NoteOnEvent(tick=20, channel=1, data=[78, 92]),
   midi.NoteOnEvent(tick=0, channel=1, data=[81, 92]),
   midi.NoteOnEvent(tick=210, channel=1, data=[81, 0]),
   midi.NoteOnEvent(tick=0, channel=1, data=[78, 0]),
   midi.NoteOnEvent(tick=30, channel=1, data=[79, 92]),
   midi.NoteOnEvent(tick=0, channel=1, data=[82, 92]),
   midi.NoteOnEvent(tick=100, channel=1, data=[82, 0]),
   midi.NoteOnEvent(tick=0, channel=1, data=[79, 0]),
   midi.NoteOnEvent(tick=20, channel=1, data=[78, 92]),
   midi.NoteOnEvent(tick=0, channel=1, data=[81, 92]),
   midi.NoteOnEvent(tick=100, channel=1, data=[81, 0]),
   midi.NoteOnEvent(tick=0, channel=1, data=[78, 0]),
   midi.NoteOnEvent(tick=20, channel=1, data=[79, 92]),
   midi.NoteOnEvent(tick=0, channel=1, data=[82, 92]),
   midi.NoteOnEvent(tick=100, channel=1, data=[82, 0]),
   midi.NoteOnEvent(tick=0, channel=1, data=[79, 0]),
   midi.NoteOnEvent(tick=20, channel=1, data=[78, 92]),
   midi.NoteOnEvent(tick=0, channel=1, data=[81, 92]),
   midi.NoteOnEvent(tick=100, channel=1, data=[81, 0]),
   midi.NoteOnEvent(tick=0, channel=1, data=[78, 0]),
   midi.NoteOnEvent(tick=20, channel=1, data=[79, 92]),
   midi.NoteOnEvent(tick=0, channel=1, data=[82, 92]),
   midi.NoteOnEvent(tick=100, channel=1, data=[82, 0]),
   midi.NoteOnEvent(tick=0, channel=1, data=[79, 0]),
   midi.NoteOnEvent(tick=20, channel=1, data=[78, 92]),
   midi.NoteOnEvent(tick=0, channel=1, data=[81, 92]),
   midi.NoteOnEvent(tick=100, channel=1, data=[81, 0]),
   midi.NoteOnEvent(tick=0, channel=1, data=[78, 0]),
   midi.NoteOnEvent(tick=860, channel=1, data=[67, 60]),
   midi.NoteOnEvent(tick=60, channel=1, data=[67, 0]),
   midi.NoteOnEvent(tick=0, channel=1, data=[69, 60]),
   midi.NoteOnEvent(tick=60, channel=1, data=[69, 0]),
   midi.NoteOnEvent(tick=0, channel=1, data=[70, 60]),
   midi.NoteOnEvent(tick=60, channel=1, data=[70, 0]),
   midi.NoteOnEvent(tick=0, channel=1, data=[69, 60]),
   midi.NoteOnEvent(tick=60, channel=1, data=[69, 0]),
   midi.NoteOnEvent(tick=0, channel=1, data=[67, 60]),
   midi.NoteOnEvent(tick=100, channel=1, data=[67, 0]),
   midi.NoteOnEvent(tick=140, channel=1, data=[69, 60]),
   midi.NoteOnEvent(tick=60, channel=1, data=[69, 0]),
   midi.NoteOnEvent(tick=0, channel=1, data=[70, 60]),
   midi.NoteOnEvent(tick=60, channel=1, data=[70, 0]),
   midi.NoteOnEvent(tick=0, channel=1, data=[72, 60]),
   midi.NoteOnEvent(tick=60, channel=1, data=[72, 0]),
   midi.NoteOnEvent(tick=0, channel=1, data=[70, 60]),
   midi.NoteOnEvent(tick=60, channel=1, data=[70, 0]),
   midi.NoteOnEvent(tick=0, channel=1, data=[69, 60]),
   midi.NoteOnEvent(tick=60, channel=1, data=[69, 0]),
   midi.NoteOnEvent(tick=0, channel=1, data=[70, 60]),
   midi.NoteOnEvent(tick=60, channel=1, data=[70, 0]),
   midi.NoteOnEvent(tick=0, channel=1, data=[69, 60]),
   midi.NoteOnEvent(tick=60, channel=1, data=[69, 0]),
   midi.NoteOnEvent(tick=0, channel=1, data=[67, 60]),
   midi.NoteOnEvent(tick=60, channel=1, data=[67, 0]),
   midi.NoteOnEvent(tick=0, channel=1, data=[66, 60]),
   midi.NoteOnEvent(tick=60, channel=1, data=[66, 0]),
   midi.NoteOnEvent(tick=0, channel=1, data=[67, 60]),
   midi.NoteOnEvent(tick=60, channel=1, data=[67, 0]),
   midi.NoteOnEvent(tick=0, channel=1, data=[69, 60]),
   midi.NoteOnEvent(tick=60, channel=1, data=[69, 0]),
   midi.NoteOnEvent(tick=0, channel=1, data=[67, 60]),
   midi.NoteOnEvent(tick=60, channel=1, data=[67, 0]),
   midi.NoteOnEvent(tick=0, channel=1, data=[66, 60]),
   midi.NoteOnEvent(tick=100, channel=1, data=[66, 0]),
   midi.NoteOnEvent(tick=140, channel=1, data=[67, 60]),
   midi.NoteOnEvent(tick=60, channel=1, data=[67, 0]),
   midi.NoteOnEvent(tick=0, channel=1, data=[69, 60]),
   midi.NoteOnEvent(tick=60, channel=1, data=[69, 0]),
   midi.NoteOnEvent(tick=0, channel=1, data=[70, 60]),
   midi.NoteOnEvent(tick=60, channel=1, data=[70, 0]),
   midi.NoteOnEvent(tick=0, channel=1, data=[69, 60]),
   midi.NoteOnEvent(tick=60, channel=1, data=[69, 0]),
   midi.NoteOnEvent(tick=0, channel=1, data=[67, 60]),
   midi.NoteOnEvent(tick=60, channel=1, data=[67, 0]),
   midi.NoteOnEvent(tick=0, channel=1, data=[69, 60]),
   midi.NoteOnEvent(tick=60, channel=1, data=[69, 0]),
   midi.NoteOnEvent(tick=0, channel=1, data=[67, 60]),
   midi.NoteOnEvent(tick=60, channel=1, data=[67, 0]),
   midi.NoteOnEvent(tick=0, channel=1, data=[65, 60]),
   midi.NoteOnEvent(tick=60, channel=1, data=[65, 0]),
   midi.NoteOnEvent(tick=0, channel=1, data=[64, 60]),
   midi.NoteOnEvent(tick=60, channel=1, data=[64, 0]),
   midi.NoteOnEvent(tick=0, channel=1, data=[66, 60]),
   midi.NoteOnEvent(tick=60, channel=1, data=[66, 0]),
   midi.NoteOnEvent(tick=0, channel=1, data=[67, 60]),
   midi.NoteOnEvent(tick=60, channel=1, data=[67, 0]),
   midi.NoteOnEvent(tick=0, channel=1, data=[66, 60]),
   midi.NoteOnEvent(tick=60, channel=1, data=[66, 0]),
   midi.NoteOnEvent(tick=0, channel=1, data=[64, 60]),
   midi.NoteOnEvent(tick=100, channel=1, data=[64, 0]),
   midi.NoteOnEvent(tick=140, channel=1, data=[66, 60]),
   midi.NoteOnEvent(tick=60, channel=1, data=[66, 0]),
   midi.NoteOnEvent(tick=0, channel=1, data=[67, 60]),
   midi.NoteOnEvent(tick=60, channel=1, data=[67, 0]),
   midi.NoteOnEvent(tick=0, channel=1, data=[69, 60]),
   midi.NoteOnEvent(tick=60, channel=1, data=[69, 0]),
   midi.NoteOnEvent(tick=0, channel=1, data=[67, 60]),
   midi.NoteOnEvent(tick=60, channel=1, data=[67, 0]),
   midi.NoteOnEvent(tick=0, channel=1, data=[66, 60]),
   midi.NoteOnEvent(tick=60, channel=1, data=[66, 0]),
   midi.NoteOnEvent(tick=0, channel=1, data=[62, 60]),
   midi.NoteOnEvent(tick=60, channel=1, data=[62, 0]),
   midi.NoteOnEvent(tick=0, channel=1, data=[64, 60]),
   midi.NoteOnEvent(tick=60, channel=1, data=[64, 0]),
   midi.NoteOnEvent(tick=0, channel=1, data=[66, 60]),
   midi.NoteOnEvent(tick=58, channel=1, data=[66, 0]),
   midi.NoteOnEvent(tick=2, channel=1, data=[67, 92]),
   midi.NoteOnEvent(tick=100, channel=1, data=[67, 0]),
   midi.NoteOnEvent(tick=20, channel=1, data=[79, 92]),
   midi.NoteOnEvent(tick=0, channel=1, data=[83, 92]),
   midi.NoteOnEvent(tick=210, channel=1, data=[83, 0]),
   midi.NoteOnEvent(tick=0, channel=1, data=[79, 0]),
   midi.NoteOnEvent(tick=30, channel=1, data=[79, 92]),
   midi.NoteOnEvent(tick=0, channel=1, data=[84, 92]),
   midi.NoteOnEvent(tick=100, channel=1, data=[84, 0]),
   midi.NoteOnEvent(tick=0, channel=1, data=[79, 0]),
   midi.NoteOnEvent(tick=20, channel=1, data=[79, 92]),
   midi.NoteOnEvent(tick=0, channel=1, data=[83, 92]),
   midi.NoteOnEvent(tick=100, channel=1, data=[83, 0]),
   midi.NoteOnEvent(tick=0, channel=1, data=[79, 0]),
   midi.NoteOnEvent(tick=20, channel=1, data=[79, 92]),
   midi.NoteOnEvent(tick=0, channel=1, data=[84, 92]),
   midi.NoteOnEvent(tick=100, channel=1, data=[84, 0]),
   midi.NoteOnEvent(tick=0, channel=1, data=[79, 0]),
   midi.NoteOnEvent(tick=20, channel=1, data=[79, 92]),
   midi.NoteOnEvent(tick=0, channel=1, data=[83, 92]),
   midi.NoteOnEvent(tick=100, channel=1, data=[83, 0]),
   midi.NoteOnEvent(tick=0, channel=1, data=[79, 0]),
   midi.NoteOnEvent(tick=20, channel=1, data=[79, 92]),
   midi.NoteOnEvent(tick=0, channel=1, data=[84, 92]),
   midi.NoteOnEvent(tick=100, channel=1, data=[84, 0]),
   midi.NoteOnEvent(tick=0, channel=1, data=[79, 0]),
   midi.NoteOnEvent(tick=20, channel=1, data=[79, 92]),
   midi.NoteOnEvent(tick=0, channel=1, data=[83, 92]),
   midi.NoteOnEvent(tick=100, channel=1, data=[83, 0]),
   midi.NoteOnEvent(tick=0, channel=1, data=[79, 0]),
   midi.NoteOnEvent(tick=2780, channel=1, data=[76, 92]),
   midi.NoteOnEvent(tick=0, channel=1, data=[79, 92]),
   midi.NoteOnEvent(tick=100, channel=1, data=[79, 0]),
   midi.NoteOnEvent(tick=0, channel=1, data=[76, 0]),
   midi.NoteOnEvent(tick=20, channel=1, data=[76, 92]),
   midi.NoteOnEvent(tick=0, channel=1, data=[79, 92]),
   midi.NoteOnEvent(tick=210, channel=1, data=[79, 0]),
   midi.NoteOnEvent(tick=0, channel=1, data=[76, 0]),
   midi.NoteOnEvent(tick=30, channel=1, data=[77, 92]),
   midi.NoteOnEvent(tick=0, channel=1, data=[80, 92]),
   midi.NoteOnEvent(tick=100, channel=1, data=[80, 0]),
   midi.NoteOnEvent(tick=0, channel=1, data=[77, 0]),
   midi.NoteOnEvent(tick=20, channel=1, data=[76, 92]),
   midi.NoteOnEvent(tick=0, channel=1, data=[79, 92]),
   midi.NoteOnEvent(tick=100, channel=1, data=[79, 0]),
   midi.NoteOnEvent(tick=0, channel=1, data=[76, 0]),
   midi.NoteOnEvent(tick=20, channel=1, data=[77, 92]),
   midi.NoteOnEvent(tick=0, channel=1, data=[80, 92]),
   midi.NoteOnEvent(tick=100, channel=1, data=[80, 0]),
   midi.NoteOnEvent(tick=0, channel=1, data=[77, 0]),
   midi.NoteOnEvent(tick=20, channel=1, data=[76, 92]),
   midi.NoteOnEvent(tick=0, channel=1, data=[79, 92]),
   midi.NoteOnEvent(tick=100, channel=1, data=[79, 0]),
   midi.NoteOnEvent(tick=0, channel=1, data=[76, 0]),
   midi.NoteOnEvent(tick=20, channel=1, data=[77, 92]),
   midi.NoteOnEvent(tick=0, channel=1, data=[80, 92]),
   midi.NoteOnEvent(tick=100, channel=1, data=[80, 0]),
   midi.NoteOnEvent(tick=0, channel=1, data=[77, 0]),
   midi.NoteOnEvent(tick=20, channel=1, data=[76, 92]),
   midi.NoteOnEvent(tick=0, channel=1, data=[79, 92]),
   midi.NoteOnEvent(tick=100, channel=1, data=[79, 0]),
   midi.NoteOnEvent(tick=0, channel=1, data=[76, 0]),
   midi.NoteOnEvent(tick=4700, channel=1, data=[74, 60]),
   midi.NoteOnEvent(tick=60, channel=1, data=[74, 0]),
   midi.NoteOnEvent(tick=0, channel=1, data=[77, 60]),
   midi.NoteOnEvent(tick=60, channel=1, data=[77, 0]),
   midi.NoteOnEvent(tick=0, channel=1, data=[75, 60]),
   midi.NoteOnEvent(tick=60, channel=1, data=[75, 0]),
   midi.NoteOnEvent(tick=0, channel=1, data=[74, 60]),
   midi.NoteOnEvent(tick=60, channel=1, data=[74, 0]),
   midi.NoteOnEvent(tick=0, channel=1, data=[72, 60]),
   midi.NoteOnEvent(tick=60, channel=1, data=[72, 0]),
   midi.NoteOnEvent(tick=0, channel=1, data=[70, 60]),
   midi.NoteOnEvent(tick=60, channel=1, data=[70, 0]),
   midi.NoteOnEvent(tick=0, channel=1, data=[69, 60]),
   midi.NoteOnEvent(tick=60, channel=1, data=[69, 0]),
   midi.NoteOnEvent(tick=0, channel=1, data=[70, 60]),
   midi.NoteOnEvent(tick=58, channel=1, data=[70, 0]),
   midi.NoteOnEvent(tick=2, channel=1, data=[74, 60]),
   midi.NoteOnEvent(tick=60, channel=1, data=[74, 0]),
   midi.NoteOnEvent(tick=0, channel=1, data=[77, 60]),
   midi.NoteOnEvent(tick=60, channel=1, data=[77, 0]),
   midi.NoteOnEvent(tick=0, channel=1, data=[75, 60]),
   midi.NoteOnEvent(tick=60, channel=1, data=[75, 0]),
   midi.NoteOnEvent(tick=0, channel=1, data=[74, 60]),
   midi.NoteOnEvent(tick=60, channel=1, data=[74, 0]),
   midi.NoteOnEvent(tick=0, channel=1, data=[72, 60]),
   midi.NoteOnEvent(tick=60, channel=1, data=[72, 0]),
   midi.NoteOnEvent(tick=0, channel=1, data=[70, 60]),
   midi.NoteOnEvent(tick=60, channel=1, data=[70, 0]),
   midi.NoteOnEvent(tick=0, channel=1, data=[69, 60]),
   midi.NoteOnEvent(tick=60, channel=1, data=[69, 0]),
   midi.NoteOnEvent(tick=0, channel=1, data=[70, 60]),
   midi.NoteOnEvent(tick=58, channel=1, data=[70, 0]),
   midi.NoteOnEvent(tick=2882, channel=1, data=[74, 60]),
   midi.NoteOnEvent(tick=60, channel=1, data=[74, 0]),
   midi.NoteOnEvent(tick=0, channel=1, data=[77, 60]),
   midi.NoteOnEvent(tick=60, channel=1, data=[77, 0]),
   midi.NoteOnEvent(tick=0, channel=1, data=[75, 60]),
   midi.NoteOnEvent(tick=60, channel=1, data=[75, 0]),
   midi.NoteOnEvent(tick=0, channel=1, data=[74, 60]),
   midi.NoteOnEvent(tick=60, channel=1, data=[74, 0]),
   midi.NoteOnEvent(tick=0, channel=1, data=[72, 60]),
   midi.NoteOnEvent(tick=60, channel=1, data=[72, 0]),
   midi.NoteOnEvent(tick=0, channel=1, data=[70, 60]),
   midi.NoteOnEvent(tick=60, channel=1, data=[70, 0]),
   midi.NoteOnEvent(tick=0, channel=1, data=[69, 60]),
   midi.NoteOnEvent(tick=60, channel=1, data=[69, 0]),
   midi.NoteOnEvent(tick=0, channel=1, data=[70, 60]),
   midi.NoteOnEvent(tick=58, channel=1, data=[70, 0]),
   midi.NoteOnEvent(tick=2, channel=1, data=[74, 60]),
   midi.NoteOnEvent(tick=60, channel=1, data=[74, 0]),
   midi.NoteOnEvent(tick=0, channel=1, data=[77, 60]),
   midi.NoteOnEvent(tick=60, channel=1, data=[77, 0]),
   midi.NoteOnEvent(tick=0, channel=1, data=[75, 60]),
   midi.NoteOnEvent(tick=60, channel=1, data=[75, 0]),
   midi.NoteOnEvent(tick=0, channel=1, data=[74, 60]),
   midi.NoteOnEvent(tick=60, channel=1, data=[74, 0]),
   midi.NoteOnEvent(tick=0, channel=1, data=[72, 60]),
   midi.NoteOnEvent(tick=60, channel=1, data=[72, 0]),
   midi.NoteOnEvent(tick=0, channel=1, data=[70, 60]),
   midi.NoteOnEvent(tick=60, channel=1, data=[70, 0]),
   midi.NoteOnEvent(tick=0, channel=1, data=[69, 60]),
   midi.NoteOnEvent(tick=60, channel=1, data=[69, 0]),
   midi.NoteOnEvent(tick=0, channel=1, data=[70, 60]),
   midi.NoteOnEvent(tick=58, channel=1, data=[70, 0]),
   midi.NoteOnEvent(tick=962, channel=1, data=[72, 60]),
   midi.NoteOnEvent(tick=58, channel=1, data=[72, 0]),
   midi.NoteOnEvent(tick=2, channel=1, data=[74, 60]),
   midi.NoteOnEvent(tick=58, channel=1, data=[74, 0]),
   midi.NoteOnEvent(tick=2, channel=1, data=[72, 60]),
   midi.NoteOnEvent(tick=58, channel=1, data=[72, 0]),
   midi.NoteOnEvent(tick=2, channel=1, data=[74, 60]),
   midi.NoteOnEvent(tick=58, channel=1, data=[74, 0]),
   midi.NoteOnEvent(tick=2, channel=1, data=[72, 60]),
   midi.NoteOnEvent(tick=58, channel=1, data=[72, 0]),
   midi.NoteOnEvent(tick=2, channel=1, data=[74, 60]),
   midi.NoteOnEvent(tick=58, channel=1, data=[74, 0]),
   midi.NoteOnEvent(tick=2, channel=1, data=[72, 60]),
   midi.NoteOnEvent(tick=58, channel=1, data=[72, 0]),
   midi.NoteOnEvent(tick=2, channel=1, data=[74, 60]),
   midi.NoteOnEvent(tick=58, channel=1, data=[74, 0]),
   midi.NoteOnEvent(tick=2, channel=1, data=[72, 60]),
   midi.NoteOnEvent(tick=58, channel=1, data=[72, 0]),
   midi.NoteOnEvent(tick=2, channel=1, data=[74, 60]),
   midi.NoteOnEvent(tick=58, channel=1, data=[74, 0]),
   midi.NoteOnEvent(tick=2, channel=1, data=[72, 60]),
   midi.NoteOnEvent(tick=58, channel=1, data=[72, 0]),
   midi.NoteOnEvent(tick=2, channel=1, data=[74, 60]),
   midi.NoteOnEvent(tick=58, channel=1, data=[74, 0]),
   midi.NoteOnEvent(tick=2, channel=1, data=[72, 60]),
   midi.NoteOnEvent(tick=58, channel=1, data=[72, 0]),
   midi.NoteOnEvent(tick=2, channel=1, data=[70, 60]),
   midi.NoteOnEvent(tick=58, channel=1, data=[70, 0]),
   midi.NoteOnEvent(tick=2, channel=1, data=[69, 60]),
   midi.NoteOnEvent(tick=58, channel=1, data=[69, 0]),
   midi.NoteOnEvent(tick=2, channel=1, data=[67, 60]),
   midi.NoteOnEvent(tick=58, channel=1, data=[67, 0]),
   midi.NoteOnEvent(tick=2, channel=1, data=[65, 60]),
   midi.NoteOnEvent(tick=100, channel=1, data=[65, 0]),
   midi.NoteOnEvent(tick=20, channel=1, data=[81, 92]),
   midi.NoteOnEvent(tick=0, channel=1, data=[84, 92]),
   midi.NoteOnEvent(tick=210, channel=1, data=[84, 0]),
   midi.NoteOnEvent(tick=0, channel=1, data=[81, 0]),
   midi.NoteOnEvent(tick=30, channel=1, data=[80, 92]),
   midi.NoteOnEvent(tick=0, channel=1, data=[84, 92]),
   midi.NoteOnEvent(tick=100, channel=1, data=[84, 0]),
   midi.NoteOnEvent(tick=0, channel=1, data=[80, 0]),
   midi.NoteOnEvent(tick=20, channel=1, data=[81, 92]),
   midi.NoteOnEvent(tick=0, channel=1, data=[84, 92]),
   midi.NoteOnEvent(tick=100, channel=1, data=[84, 0]),
   midi.NoteOnEvent(tick=0, channel=1, data=[81, 0]),
   midi.NoteOnEvent(tick=20, channel=1, data=[80, 92]),
   midi.NoteOnEvent(tick=0, channel=1, data=[84, 92]),
   midi.NoteOnEvent(tick=100, channel=1, data=[84, 0]),
   midi.NoteOnEvent(tick=0, channel=1, data=[80, 0]),
   midi.NoteOnEvent(tick=20, channel=1, data=[81, 92]),
   midi.NoteOnEvent(tick=0, channel=1, data=[84, 92]),
   midi.NoteOnEvent(tick=100, channel=1, data=[84, 0]),
   midi.NoteOnEvent(tick=0, channel=1, data=[81, 0]),
   midi.NoteOnEvent(tick=20, channel=1, data=[76, 92]),
   midi.NoteOnEvent(tick=0, channel=1, data=[81, 92]),
   midi.NoteOnEvent(tick=100, channel=1, data=[81, 0]),
   midi.NoteOnEvent(tick=0, channel=1, data=[76, 0]),
   midi.NoteOnEvent(tick=20, channel=1, data=[77, 92]),
   midi.NoteOnEvent(tick=0, channel=1, data=[81, 92]),
   midi.NoteOnEvent(tick=100, channel=1, data=[81, 0]),
   midi.NoteOnEvent(tick=0, channel=1, data=[77, 0]),
   midi.NoteOnEvent(tick=20, channel=1, data=[77, 92]),
   midi.NoteOnEvent(tick=0, channel=1, data=[81, 92]),
   midi.NoteOnEvent(tick=210, channel=1, data=[81, 0]),
   midi.NoteOnEvent(tick=0, channel=1, data=[77, 0]),
   midi.NoteOnEvent(tick=30, channel=1, data=[76, 92]),
   midi.NoteOnEvent(tick=0, channel=1, data=[81, 92]),
   midi.NoteOnEvent(tick=100, channel=1, data=[81, 0]),
   midi.NoteOnEvent(tick=0, channel=1, data=[76, 0]),
   midi.NoteOnEvent(tick=20, channel=1, data=[77, 92]),
   midi.NoteOnEvent(tick=0, channel=1, data=[81, 92]),
   midi.NoteOnEvent(tick=100, channel=1, data=[81, 0]),
   midi.NoteOnEvent(tick=0, channel=1, data=[77, 0]),
   midi.NoteOnEvent(tick=20, channel=1, data=[76, 92]),
   midi.NoteOnEvent(tick=0, channel=1, data=[81, 92]),
   midi.NoteOnEvent(tick=100, channel=1, data=[81, 0]),
   midi.NoteOnEvent(tick=0, channel=1, data=[76, 0]),
   midi.NoteOnEvent(tick=20, channel=1, data=[77, 92]),
   midi.NoteOnEvent(tick=0, channel=1, data=[81, 92]),
   midi.NoteOnEvent(tick=100, channel=1, data=[81, 0]),
   midi.NoteOnEvent(tick=0, channel=1, data=[77, 0]),
   midi.NoteOnEvent(tick=20, channel=1, data=[74, 92]),
   midi.NoteOnEvent(tick=0, channel=1, data=[79, 92]),
   midi.NoteOnEvent(tick=100, channel=1, data=[79, 0]),
   midi.NoteOnEvent(tick=0, channel=1, data=[74, 0]),
   midi.NoteOnEvent(tick=20, channel=1, data=[75, 92]),
   midi.NoteOnEvent(tick=0, channel=1, data=[79, 92]),
   midi.NoteOnEvent(tick=100, channel=1, data=[79, 0]),
   midi.NoteOnEvent(tick=0, channel=1, data=[75, 0]),
   midi.NoteOnEvent(tick=20, channel=1, data=[75, 92]),
   midi.NoteOnEvent(tick=0, channel=1, data=[79, 92]),
   midi.NoteOnEvent(tick=210, channel=1, data=[79, 0]),
   midi.NoteOnEvent(tick=0, channel=1, data=[75, 0]),
   midi.NoteOnEvent(tick=30, channel=1, data=[74, 92]),
   midi.NoteOnEvent(tick=0, channel=1, data=[79, 92]),
   midi.NoteOnEvent(tick=100, channel=1, data=[79, 0]),
   midi.NoteOnEvent(tick=0, channel=1, data=[74, 0]),
   midi.NoteOnEvent(tick=20, channel=1, data=[75, 92]),
   midi.NoteOnEvent(tick=0, channel=1, data=[79, 92]),
   midi.NoteOnEvent(tick=100, channel=1, data=[79, 0]),
   midi.NoteOnEvent(tick=0, channel=1, data=[75, 0]),
   midi.NoteOnEvent(tick=20, channel=1, data=[74, 92]),
   midi.NoteOnEvent(tick=0, channel=1, data=[79, 92]),
   midi.NoteOnEvent(tick=100, channel=1, data=[79, 0]),
   midi.NoteOnEvent(tick=0, channel=1, data=[74, 0]),
   midi.NoteOnEvent(tick=20, channel=1, data=[75, 92]),
   midi.NoteOnEvent(tick=0, channel=1, data=[79, 92]),
   midi.NoteOnEvent(tick=100, channel=1, data=[79, 0]),
   midi.NoteOnEvent(tick=0, channel=1, data=[75, 0]),
   midi.NoteOnEvent(tick=20, channel=1, data=[75, 92]),
   midi.NoteOnEvent(tick=0, channel=1, data=[83, 92]),
   midi.NoteOnEvent(tick=100, channel=1, data=[83, 0]),
   midi.NoteOnEvent(tick=0, channel=1, data=[75, 0]),
   midi.NoteOnEvent(tick=20, channel=1, data=[75, 92]),
   midi.NoteOnEvent(tick=0, channel=1, data=[84, 92]),
   midi.NoteOnEvent(tick=100, channel=1, data=[84, 0]),
   midi.NoteOnEvent(tick=0, channel=1, data=[75, 0]),
   midi.NoteOnEvent(tick=20, channel=1, data=[75, 92]),
   midi.NoteOnEvent(tick=0, channel=1, data=[83, 92]),
   midi.NoteOnEvent(tick=100, channel=1, data=[83, 0]),
   midi.NoteOnEvent(tick=0, channel=1, data=[75, 0]),
   midi.NoteOnEvent(tick=20, channel=1, data=[75, 92]),
   midi.NoteOnEvent(tick=0, channel=1, data=[84, 92]),
   midi.NoteOnEvent(tick=100, channel=1, data=[84, 0]),
   midi.NoteOnEvent(tick=0, channel=1, data=[75, 0]),
   midi.NoteOnEvent(tick=20, channel=1, data=[72, 92]),
   midi.NoteOnEvent(tick=0, channel=1, data=[79, 92]),
   midi.NoteOnEvent(tick=100, channel=1, data=[79, 0]),
   midi.NoteOnEvent(tick=0, channel=1, data=[72, 0]),
   midi.NoteOnEvent(tick=20, channel=1, data=[72, 92]),
   midi.NoteOnEvent(tick=0, channel=1, data=[80, 92]),
   midi.NoteOnEvent(tick=100, channel=1, data=[80, 0]),
   midi.NoteOnEvent(tick=0, channel=1, data=[72, 0]),
   midi.NoteOnEvent(tick=20, channel=1, data=[72, 92]),
   midi.NoteOnEvent(tick=0, channel=1, data=[79, 92]),
   midi.NoteOnEvent(tick=100, channel=1, data=[79, 0]),
   midi.NoteOnEvent(tick=0, channel=1, data=[72, 0]),
   midi.NoteOnEvent(tick=20, channel=1, data=[72, 92]),
   midi.NoteOnEvent(tick=0, channel=1, data=[80, 92]),
   midi.NoteOnEvent(tick=100, channel=1, data=[80, 0]),
   midi.NoteOnEvent(tick=0, channel=1, data=[72, 0]),
   midi.NoteOnEvent(tick=20, channel=1, data=[72, 92]),
   midi.NoteOnEvent(tick=0, channel=1, data=[76, 92]),
   midi.NoteOnEvent(tick=100, channel=1, data=[76, 0]),
   midi.NoteOnEvent(tick=0, channel=1, data=[72, 0]),
   midi.NoteOnEvent(tick=20, channel=1, data=[72, 92]),
   midi.NoteOnEvent(tick=0, channel=1, data=[77, 92]),
   midi.NoteOnEvent(tick=100, channel=1, data=[77, 0]),
   midi.NoteOnEvent(tick=20, channel=1, data=[76, 92]),
   midi.NoteOnEvent(tick=100, channel=1, data=[76, 0]),
   midi.NoteOnEvent(tick=20, channel=1, data=[80, 92]),
   midi.NoteOnEvent(tick=100, channel=1, data=[80, 0]),
   midi.NoteOnEvent(tick=20, channel=1, data=[79, 92]),
   midi.NoteOnEvent(tick=90, channel=1, data=[72, 0]),
   midi.NoteOnEvent(tick=10, channel=1, data=[79, 0]),
   midi.NoteOnEvent(tick=20, channel=1, data=[77, 92]),
   midi.NoteOnEvent(tick=100, channel=1, data=[77, 0]),
   midi.NoteOnEvent(tick=20, channel=1, data=[75, 92]),
   midi.NoteOnEvent(tick=100, channel=1, data=[75, 0]),
   midi.NoteOnEvent(tick=20, channel=1, data=[74, 92]),
   midi.NoteOnEvent(tick=100, channel=1, data=[74, 0]),
   midi.NoteOnEvent(tick=20, channel=1, data=[72, 92]),
   midi.NoteOnEvent(tick=100, channel=1, data=[72, 0]),
   midi.NoteOnEvent(tick=20, channel=1, data=[67, 92]),
   midi.NoteOnEvent(tick=100, channel=1, data=[67, 0]),
   midi.NoteOnEvent(tick=1820, channel=1, data=[71, 60]),
   midi.NoteOnEvent(tick=60, channel=1, data=[71, 0]),
   midi.NoteOnEvent(tick=0, channel=1, data=[74, 60]),
   midi.NoteOnEvent(tick=60, channel=1, data=[74, 0]),
   midi.NoteOnEvent(tick=0, channel=1, data=[72, 60]),
   midi.NoteOnEvent(tick=60, channel=1, data=[72, 0]),
   midi.NoteOnEvent(tick=0, channel=1, data=[71, 60]),
   midi.NoteOnEvent(tick=60, channel=1, data=[71, 0]),
   midi.NoteOnEvent(tick=0, channel=1, data=[69, 60]),
   midi.NoteOnEvent(tick=60, channel=1, data=[69, 0]),
   midi.NoteOnEvent(tick=0, channel=1, data=[67, 60]),
   midi.NoteOnEvent(tick=60, channel=1, data=[67, 0]),
   midi.NoteOnEvent(tick=0, channel=1, data=[66, 60]),
   midi.NoteOnEvent(tick=60, channel=1, data=[66, 0]),
   midi.NoteOnEvent(tick=0, channel=1, data=[67, 60]),
   midi.NoteOnEvent(tick=58, channel=1, data=[67, 0]),
   midi.NoteOnEvent(tick=2, channel=1, data=[71, 60]),
   midi.NoteOnEvent(tick=60, channel=1, data=[71, 0]),
   midi.NoteOnEvent(tick=0, channel=1, data=[74, 60]),
   midi.NoteOnEvent(tick=60, channel=1, data=[74, 0]),
   midi.NoteOnEvent(tick=0, channel=1, data=[72, 60]),
   midi.NoteOnEvent(tick=60, channel=1, data=[72, 0]),
   midi.NoteOnEvent(tick=0, channel=1, data=[71, 60]),
   midi.NoteOnEvent(tick=60, channel=1, data=[71, 0]),
   midi.NoteOnEvent(tick=0, channel=1, data=[69, 60]),
   midi.NoteOnEvent(tick=60, channel=1, data=[69, 0]),
   midi.NoteOnEvent(tick=0, channel=1, data=[67, 60]),
   midi.NoteOnEvent(tick=60, channel=1, data=[67, 0]),
   midi.NoteOnEvent(tick=0, channel=1, data=[66, 60]),
   midi.NoteOnEvent(tick=60, channel=1, data=[66, 0]),
   midi.NoteOnEvent(tick=0, channel=1, data=[67, 60]),
   midi.NoteOnEvent(tick=58, channel=1, data=[67, 0]),
   midi.NoteOnEvent(tick=2, channel=1, data=[75, 60]),
   midi.NoteOnEvent(tick=60, channel=1, data=[75, 0]),
   midi.NoteOnEvent(tick=0, channel=1, data=[79, 60]),
   midi.NoteOnEvent(tick=60, channel=1, data=[79, 0]),
   midi.NoteOnEvent(tick=0, channel=1, data=[77, 60]),
   midi.NoteOnEvent(tick=60, channel=1, data=[77, 0]),
   midi.NoteOnEvent(tick=0, channel=1, data=[75, 60]),
   midi.NoteOnEvent(tick=60, channel=1, data=[75, 0]),
   midi.NoteOnEvent(tick=0, channel=1, data=[74, 60]),
   midi.NoteOnEvent(tick=60, channel=1, data=[74, 0]),
   midi.NoteOnEvent(tick=0, channel=1, data=[72, 60]),
   midi.NoteOnEvent(tick=60, channel=1, data=[72, 0]),
   midi.NoteOnEvent(tick=0, channel=1, data=[71, 60]),
   midi.NoteOnEvent(tick=60, channel=1, data=[71, 0]),
   midi.NoteOnEvent(tick=0, channel=1, data=[72, 60]),
   midi.NoteOnEvent(tick=58, channel=1, data=[72, 0]),
   midi.NoteOnEvent(tick=2, channel=1, data=[75, 60]),
   midi.NoteOnEvent(tick=58, channel=1, data=[75, 0]),
   midi.NoteOnEvent(tick=2, channel=1, data=[79, 60]),
   midi.NoteOnEvent(tick=58, channel=1, data=[79, 0]),
   midi.NoteOnEvent(tick=2, channel=1, data=[77, 60]),
   midi.NoteOnEvent(tick=58, channel=1, data=[77, 0]),
   midi.NoteOnEvent(tick=2, channel=1, data=[75, 60]),
   midi.NoteOnEvent(tick=58, channel=1, data=[75, 0]),
   midi.NoteOnEvent(tick=2, channel=1, data=[74, 60]),
   midi.NoteOnEvent(tick=58, channel=1, data=[74, 0]),
   midi.NoteOnEvent(tick=2, channel=1, data=[72, 60]),
   midi.NoteOnEvent(tick=58, channel=1, data=[72, 0]),
   midi.NoteOnEvent(tick=2, channel=1, data=[71, 60]),
   midi.NoteOnEvent(tick=58, channel=1, data=[71, 0]),
   midi.NoteOnEvent(tick=2, channel=1, data=[72, 60]),
   midi.NoteOnEvent(tick=58, channel=1, data=[72, 0]),
   midi.NoteOnEvent(tick=2, channel=1, data=[67, 60]),
   midi.NoteOnEvent(tick=100, channel=1, data=[67, 0]),
   midi.NoteOnEvent(tick=2780, channel=1, data=[76, 92]),
   midi.NoteOnEvent(tick=0, channel=1, data=[79, 92]),
   midi.NoteOnEvent(tick=100, channel=1, data=[79, 0]),
   midi.NoteOnEvent(tick=0, channel=1, data=[76, 0]),
   midi.NoteOnEvent(tick=20, channel=1, data=[76, 92]),
   midi.NoteOnEvent(tick=0, channel=1, data=[79, 92]),
   midi.NoteOnEvent(tick=210, channel=1, data=[79, 0]),
   midi.NoteOnEvent(tick=0, channel=1, data=[76, 0]),
   midi.NoteOnEvent(tick=30, channel=1, data=[77, 92]),
   midi.NoteOnEvent(tick=0, channel=1, data=[81, 92]),
   midi.NoteOnEvent(tick=100, channel=1, data=[81, 0]),
   midi.NoteOnEvent(tick=0, channel=1, data=[77, 0]),
   midi.NoteOnEvent(tick=20, channel=1, data=[76, 92]),
   midi.NoteOnEvent(tick=0, channel=1, data=[79, 92]),
   midi.NoteOnEvent(tick=100, channel=1, data=[79, 0]),
   midi.NoteOnEvent(tick=0, channel=1, data=[76, 0]),
   midi.NoteOnEvent(tick=20, channel=1, data=[77, 92]),
   midi.NoteOnEvent(tick=0, channel=1, data=[81, 92]),
   midi.NoteOnEvent(tick=100, channel=1, data=[81, 0]),
   midi.NoteOnEvent(tick=0, channel=1, data=[77, 0]),
   midi.NoteOnEvent(tick=20, channel=1, data=[76, 92]),
   midi.NoteOnEvent(tick=0, channel=1, data=[79, 92]),
   midi.NoteOnEvent(tick=100, channel=1, data=[79, 0]),
   midi.NoteOnEvent(tick=0, channel=1, data=[76, 0]),
   midi.NoteOnEvent(tick=20, channel=1, data=[77, 92]),
   midi.NoteOnEvent(tick=0, channel=1, data=[81, 92]),
   midi.NoteOnEvent(tick=100, channel=1, data=[81, 0]),
   midi.NoteOnEvent(tick=0, channel=1, data=[77, 0]),
   midi.NoteOnEvent(tick=20, channel=1, data=[76, 92]),
   midi.NoteOnEvent(tick=0, channel=1, data=[79, 92]),
   midi.NoteOnEvent(tick=100, channel=1, data=[79, 0]),
   midi.NoteOnEvent(tick=0, channel=1, data=[76, 0]),
   midi.NoteOnEvent(tick=20, channel=1, data=[76, 92]),
   midi.NoteOnEvent(tick=0, channel=1, data=[79, 92]),
   midi.NoteOnEvent(tick=210, channel=1, data=[79, 0]),
   midi.NoteOnEvent(tick=0, channel=1, data=[76, 0]),
   midi.NoteOnEvent(tick=30, channel=1, data=[77, 92]),
   midi.NoteOnEvent(tick=0, channel=1, data=[81, 92]),
   midi.NoteOnEvent(tick=100, channel=1, data=[81, 0]),
   midi.NoteOnEvent(tick=0, channel=1, data=[77, 0]),
   midi.NoteOnEvent(tick=20, channel=1, data=[76, 92]),
   midi.NoteOnEvent(tick=0, channel=1, data=[79, 92]),
   midi.NoteOnEvent(tick=100, channel=1, data=[79, 0]),
   midi.NoteOnEvent(tick=0, channel=1, data=[76, 0]),
   midi.NoteOnEvent(tick=20, channel=1, data=[77, 92]),
   midi.NoteOnEvent(tick=0, channel=1, data=[81, 92]),
   midi.NoteOnEvent(tick=100, channel=1, data=[81, 0]),
   midi.NoteOnEvent(tick=0, channel=1, data=[77, 0]),
   midi.NoteOnEvent(tick=20, channel=1, data=[76, 92]),
   midi.NoteOnEvent(tick=0, channel=1, data=[79, 92]),
   midi.NoteOnEvent(tick=100, channel=1, data=[79, 0]),
   midi.NoteOnEvent(tick=0, channel=1, data=[76, 0]),
   midi.NoteOnEvent(tick=20, channel=1, data=[77, 92]),
   midi.NoteOnEvent(tick=0, channel=1, data=[81, 92]),
   midi.NoteOnEvent(tick=100, channel=1, data=[81, 0]),
   midi.NoteOnEvent(tick=0, channel=1, data=[77, 0]),
   midi.NoteOnEvent(tick=20, channel=1, data=[76, 75]),
   midi.NoteOnEvent(tick=60, channel=1, data=[79, 75]),
   midi.NoteOnEvent(tick=40, channel=1, data=[76, 0]),
   midi.NoteOnEvent(tick=20, channel=1, data=[79, 0]),
   midi.NoteOnEvent(tick=0, channel=1, data=[77, 75]),
   midi.NoteOnEvent(tick=60, channel=1, data=[77, 0]),
   midi.NoteOnEvent(tick=0, channel=1, data=[76, 75]),
   midi.NoteOnEvent(tick=60, channel=1, data=[76, 0]),
   midi.NoteOnEvent(tick=0, channel=1, data=[74, 75]),
   midi.NoteOnEvent(tick=60, channel=1, data=[74, 0]),
   midi.NoteOnEvent(tick=0, channel=1, data=[72, 75]),
   midi.NoteOnEvent(tick=60, channel=1, data=[72, 0]),
   midi.NoteOnEvent(tick=0, channel=1, data=[71, 75]),
   midi.NoteOnEvent(tick=60, channel=1, data=[71, 0]),
   midi.NoteOnEvent(tick=0, channel=1, data=[72, 75]),
   midi.NoteOnEvent(tick=58, channel=1, data=[72, 0]),
   midi.NoteOnEvent(tick=2, channel=1, data=[76, 75]),
   midi.NoteOnEvent(tick=60, channel=1, data=[76, 0]),
   midi.NoteOnEvent(tick=0, channel=1, data=[79, 75]),
   midi.NoteOnEvent(tick=60, channel=1, data=[79, 0]),
   midi.NoteOnEvent(tick=0, channel=1, data=[77, 75]),
   midi.NoteOnEvent(tick=60, channel=1, data=[77, 0]),
   midi.NoteOnEvent(tick=0, channel=1, data=[76, 75]),
   midi.NoteOnEvent(tick=60, channel=1, data=[76, 0]),
   midi.NoteOnEvent(tick=0, channel=1, data=[74, 75]),
   midi.NoteOnEvent(tick=60, channel=1, data=[74, 0]),
   midi.NoteOnEvent(tick=0, channel=1, data=[72, 75]),
   midi.NoteOnEvent(tick=60, channel=1, data=[72, 0]),
   midi.NoteOnEvent(tick=0, channel=1, data=[71, 75]),
   midi.NoteOnEvent(tick=60, channel=1, data=[71, 0]),
   midi.NoteOnEvent(tick=0, channel=1, data=[72, 75]),
   midi.NoteOnEvent(tick=58, channel=1, data=[72, 0]),
   midi.NoteOnEvent(tick=962, channel=1, data=[76, 75]),
   midi.NoteOnEvent(tick=60, channel=1, data=[76, 0]),
   midi.NoteOnEvent(tick=0, channel=1, data=[79, 75]),
   midi.NoteOnEvent(tick=60, channel=1, data=[79, 0]),
   midi.NoteOnEvent(tick=0, channel=1, data=[77, 75]),
   midi.NoteOnEvent(tick=60, channel=1, data=[77, 0]),
   midi.NoteOnEvent(tick=0, channel=1, data=[76, 75]),
   midi.NoteOnEvent(tick=60, channel=1, data=[76, 0]),
   midi.NoteOnEvent(tick=0, channel=1, data=[74, 75]),
   midi.NoteOnEvent(tick=60, channel=1, data=[74, 0]),
   midi.NoteOnEvent(tick=0, channel=1, data=[72, 75]),
   midi.NoteOnEvent(tick=60, channel=1, data=[72, 0]),
   midi.NoteOnEvent(tick=0, channel=1, data=[71, 75]),
   midi.NoteOnEvent(tick=60, channel=1, data=[71, 0]),
   midi.NoteOnEvent(tick=0, channel=1, data=[72, 75]),
   midi.NoteOnEvent(tick=58, channel=1, data=[72, 0]),
   midi.NoteOnEvent(tick=2, channel=1, data=[76, 75]),
   midi.NoteOnEvent(tick=60, channel=1, data=[76, 0]),
   midi.NoteOnEvent(tick=0, channel=1, data=[79, 75]),
   midi.NoteOnEvent(tick=60, channel=1, data=[79, 0]),
   midi.NoteOnEvent(tick=0, channel=1, data=[77, 75]),
   midi.NoteOnEvent(tick=60, channel=1, data=[77, 0]),
   midi.NoteOnEvent(tick=0, channel=1, data=[76, 75]),
   midi.NoteOnEvent(tick=60, channel=1, data=[76, 0]),
   midi.NoteOnEvent(tick=0, channel=1, data=[74, 75]),
   midi.NoteOnEvent(tick=60, channel=1, data=[74, 0]),
   midi.NoteOnEvent(tick=0, channel=1, data=[72, 75]),
   midi.NoteOnEvent(tick=60, channel=1, data=[72, 0]),
   midi.NoteOnEvent(tick=0, channel=1, data=[71, 75]),
   midi.NoteOnEvent(tick=60, channel=1, data=[71, 0]),
   midi.NoteOnEvent(tick=0, channel=1, data=[72, 75]),
   midi.NoteOnEvent(tick=58, channel=1, data=[72, 0]),
   midi.NoteOnEvent(tick=2, channel=1, data=[71, 75]),
   midi.NoteOnEvent(tick=0, channel=1, data=[74, 75]),
   midi.NoteOnEvent(tick=240, channel=1, data=[74, 0]),
   midi.NoteOnEvent(tick=0, channel=1, data=[71, 0]),
   midi.NoteOnEvent(tick=0, channel=1, data=[72, 75]),
   midi.NoteOnEvent(tick=0, channel=1, data=[76, 75]),
   midi.NoteOnEvent(tick=240, channel=1, data=[76, 0]),
   midi.NoteOnEvent(tick=0, channel=1, data=[72, 0]),
   midi.NoteOnEvent(tick=0, channel=1, data=[74, 75]),
   midi.NoteOnEvent(tick=0, channel=1, data=[77, 75]),
   midi.NoteOnEvent(tick=240, channel=1, data=[77, 0]),
   midi.NoteOnEvent(tick=0, channel=1, data=[74, 0]),
   midi.NoteOnEvent(tick=0, channel=1, data=[71, 75]),
   midi.NoteOnEvent(tick=0, channel=1, data=[74, 75]),
   midi.NoteOnEvent(tick=210, channel=1, data=[74, 0]),
   midi.NoteOnEvent(tick=0, channel=1, data=[71, 0]),
   midi.NoteOnEvent(tick=30, channel=1, data=[72, 75]),
   midi.NoteOnEvent(tick=0, channel=1, data=[76, 75]),
   midi.NoteOnEvent(tick=60, channel=1, data=[76, 0]),
   midi.NoteOnEvent(tick=0, channel=1, data=[79, 75]),
   midi.NoteOnEvent(tick=40, channel=1, data=[72, 0]),
   midi.NoteOnEvent(tick=20, channel=1, data=[79, 0]),
   midi.NoteOnEvent(tick=0, channel=1, data=[77, 75]),
   midi.NoteOnEvent(tick=60, channel=1, data=[77, 0]),
   midi.NoteOnEvent(tick=0, channel=1, data=[76, 75]),
   midi.NoteOnEvent(tick=60, channel=1, data=[76, 0]),
   midi.NoteOnEvent(tick=0, channel=1, data=[74, 75]),
   midi.NoteOnEvent(tick=60, channel=1, data=[74, 0]),
   midi.NoteOnEvent(tick=0, channel=1, data=[72, 75]),
   midi.NoteOnEvent(tick=60, channel=1, data=[72, 0]),
   midi.NoteOnEvent(tick=0, channel=1, data=[71, 75]),
   midi.NoteOnEvent(tick=60, channel=1, data=[71, 0]),
   midi.NoteOnEvent(tick=0, channel=1, data=[72, 75]),
   midi.NoteOnEvent(tick=58, channel=1, data=[72, 0]),
   midi.NoteOnEvent(tick=2, channel=1, data=[76, 75]),
   midi.NoteOnEvent(tick=60, channel=1, data=[76, 0]),
   midi.NoteOnEvent(tick=0, channel=1, data=[79, 75]),
   midi.NoteOnEvent(tick=60, channel=1, data=[79, 0]),
   midi.NoteOnEvent(tick=0, channel=1, data=[77, 75]),
   midi.NoteOnEvent(tick=60, channel=1, data=[77, 0]),
   midi.NoteOnEvent(tick=0, channel=1, data=[76, 75]),
   midi.NoteOnEvent(tick=60, channel=1, data=[76, 0]),
   midi.NoteOnEvent(tick=0, channel=1, data=[74, 75]),
   midi.NoteOnEvent(tick=60, channel=1, data=[74, 0]),
   midi.NoteOnEvent(tick=0, channel=1, data=[72, 75]),
   midi.NoteOnEvent(tick=60, channel=1, data=[72, 0]),
   midi.NoteOnEvent(tick=0, channel=1, data=[71, 75]),
   midi.NoteOnEvent(tick=60, channel=1, data=[71, 0]),
   midi.NoteOnEvent(tick=0, channel=1, data=[72, 75]),
   midi.NoteOnEvent(tick=58, channel=1, data=[72, 0]),
   midi.NoteOnEvent(tick=962, channel=1, data=[76, 75]),
   midi.NoteOnEvent(tick=60, channel=1, data=[76, 0]),
   midi.NoteOnEvent(tick=0, channel=1, data=[79, 75]),
   midi.NoteOnEvent(tick=60, channel=1, data=[79, 0]),
   midi.NoteOnEvent(tick=0, channel=1, data=[77, 75]),
   midi.NoteOnEvent(tick=60, channel=1, data=[77, 0]),
   midi.NoteOnEvent(tick=0, channel=1, data=[76, 75]),
   midi.NoteOnEvent(tick=60, channel=1, data=[76, 0]),
   midi.NoteOnEvent(tick=0, channel=1, data=[74, 75]),
   midi.NoteOnEvent(tick=60, channel=1, data=[74, 0]),
   midi.NoteOnEvent(tick=0, channel=1, data=[72, 75]),
   midi.NoteOnEvent(tick=60, channel=1, data=[72, 0]),
   midi.NoteOnEvent(tick=0, channel=1, data=[71, 75]),
   midi.NoteOnEvent(tick=60, channel=1, data=[71, 0]),
   midi.NoteOnEvent(tick=0, channel=1, data=[72, 75]),
   midi.NoteOnEvent(tick=58, channel=1, data=[72, 0]),
   midi.NoteOnEvent(tick=2, channel=1, data=[76, 75]),
   midi.NoteOnEvent(tick=60, channel=1, data=[76, 0]),
   midi.NoteOnEvent(tick=0, channel=1, data=[79, 75]),
   midi.NoteOnEvent(tick=60, channel=1, data=[79, 0]),
   midi.NoteOnEvent(tick=0, channel=1, data=[77, 75]),
   midi.NoteOnEvent(tick=60, channel=1, data=[77, 0]),
   midi.NoteOnEvent(tick=0, channel=1, data=[76, 75]),
   midi.NoteOnEvent(tick=60, channel=1, data=[76, 0]),
   midi.NoteOnEvent(tick=0, channel=1, data=[74, 75]),
   midi.NoteOnEvent(tick=60, channel=1, data=[74, 0]),
   midi.NoteOnEvent(tick=0, channel=1, data=[72, 75]),
   midi.NoteOnEvent(tick=60, channel=1, data=[72, 0]),
   midi.NoteOnEvent(tick=0, channel=1, data=[71, 75]),
   midi.NoteOnEvent(tick=60, channel=1, data=[71, 0]),
   midi.NoteOnEvent(tick=0, channel=1, data=[72, 75]),
   midi.NoteOnEvent(tick=58, channel=1, data=[72, 0]),
   midi.NoteOnEvent(tick=2, channel=1, data=[71, 75]),
   midi.NoteOnEvent(tick=0, channel=1, data=[74, 75]),
   midi.NoteOnEvent(tick=240, channel=1, data=[74, 0]),
   midi.NoteOnEvent(tick=0, channel=1, data=[71, 0]),
   midi.NoteOnEvent(tick=0, channel=1, data=[72, 75]),
   midi.NoteOnEvent(tick=0, channel=1, data=[76, 75]),
   midi.NoteOnEvent(tick=240, channel=1, data=[76, 0]),
   midi.NoteOnEvent(tick=0, channel=1, data=[72, 0]),
   midi.NoteOnEvent(tick=0, channel=1, data=[74, 75]),
   midi.NoteOnEvent(tick=0, channel=1, data=[77, 75]),
   midi.NoteOnEvent(tick=240, channel=1, data=[77, 0]),
   midi.NoteOnEvent(tick=0, channel=1, data=[74, 0]),
   midi.NoteOnEvent(tick=0, channel=1, data=[71, 75]),
   midi.NoteOnEvent(tick=0, channel=1, data=[74, 75]),
   midi.NoteOnEvent(tick=210, channel=1, data=[74, 0]),
   midi.NoteOnEvent(tick=0, channel=1, data=[71, 0]),
   midi.NoteOnEvent(tick=30, channel=1, data=[72, 75]),
   midi.NoteOnEvent(tick=0, channel=1, data=[76, 75]),
   midi.NoteOnEvent(tick=100, channel=1, data=[76, 0]),
   midi.NoteOnEvent(tick=0, channel=1, data=[72, 0]),
   midi.NoteOnEvent(tick=20, channel=1, data=[76, 92]),
   midi.NoteOnEvent(tick=0, channel=1, data=[79, 92]),
   midi.NoteOnEvent(tick=210, channel=1, data=[79, 0]),
   midi.NoteOnEvent(tick=0, channel=1, data=[76, 0]),
   midi.NoteOnEvent(tick=30, channel=1, data=[75, 92]),
   midi.NoteOnEvent(tick=0, channel=1, data=[79, 92]),
   midi.NoteOnEvent(tick=100, channel=1, data=[79, 0]),
   midi.NoteOnEvent(tick=0, channel=1, data=[75, 0]),
   midi.NoteOnEvent(tick=20, channel=1, data=[76, 92]),
   midi.NoteOnEvent(tick=0, channel=1, data=[79, 92]),
   midi.NoteOnEvent(tick=100, channel=1, data=[79, 0]),
   midi.NoteOnEvent(tick=0, channel=1, data=[76, 0]),
   midi.NoteOnEvent(tick=20, channel=1, data=[75, 92]),
   midi.NoteOnEvent(tick=0, channel=1, data=[79, 92]),
   midi.NoteOnEvent(tick=100, channel=1, data=[79, 0]),
   midi.NoteOnEvent(tick=0, channel=1, data=[75, 0]),
   midi.NoteOnEvent(tick=20, channel=1, data=[76, 92]),
   midi.NoteOnEvent(tick=0, channel=1, data=[79, 92]),
   midi.NoteOnEvent(tick=100, channel=1, data=[79, 0]),
   midi.NoteOnEvent(tick=0, channel=1, data=[76, 0]),
   midi.NoteOnEvent(tick=20, channel=1, data=[76, 92]),
   midi.NoteOnEvent(tick=0, channel=1, data=[83, 92]),
   midi.NoteOnEvent(tick=100, channel=1, data=[83, 0]),
   midi.NoteOnEvent(tick=0, channel=1, data=[76, 0]),
   midi.NoteOnEvent(tick=20, channel=1, data=[76, 92]),
   midi.NoteOnEvent(tick=0, channel=1, data=[84, 92]),
   midi.NoteOnEvent(tick=100, channel=1, data=[84, 0]),
   midi.NoteOnEvent(tick=0, channel=1, data=[76, 0]),
   midi.NoteOnEvent(tick=20, channel=1, data=[76, 92]),
   midi.NoteOnEvent(tick=0, channel=1, data=[84, 92]),
   midi.NoteOnEvent(tick=210, channel=1, data=[84, 0]),
   midi.NoteOnEvent(tick=0, channel=1, data=[76, 0]),
   midi.NoteOnEvent(tick=30, channel=1, data=[76, 92]),
   midi.NoteOnEvent(tick=0, channel=1, data=[83, 92]),
   midi.NoteOnEvent(tick=100, channel=1, data=[83, 0]),
   midi.NoteOnEvent(tick=0, channel=1, data=[76, 0]),
   midi.NoteOnEvent(tick=20, channel=1, data=[76, 92]),
   midi.NoteOnEvent(tick=0, channel=1, data=[84, 92]),
   midi.NoteOnEvent(tick=100, channel=1, data=[84, 0]),
   midi.NoteOnEvent(tick=0, channel=1, data=[76, 0]),
   midi.NoteOnEvent(tick=20, channel=1, data=[76, 92]),
   midi.NoteOnEvent(tick=0, channel=1, data=[83, 92]),
   midi.NoteOnEvent(tick=100, channel=1, data=[83, 0]),
   midi.NoteOnEvent(tick=0, channel=1, data=[76, 0]),
   midi.NoteOnEvent(tick=20, channel=1, data=[76, 92]),
   midi.NoteOnEvent(tick=0, channel=1, data=[84, 92]),
   midi.NoteOnEvent(tick=100, channel=1, data=[84, 0]),
   midi.NoteOnEvent(tick=0, channel=1, data=[76, 0]),
   midi.NoteOnEvent(tick=20, channel=1, data=[72, 92]),
   midi.NoteOnEvent(tick=0, channel=1, data=[80, 92]),
   midi.NoteOnEvent(tick=100, channel=1, data=[80, 0]),
   midi.NoteOnEvent(tick=0, channel=1, data=[72, 0]),
   midi.NoteOnEvent(tick=20, channel=1, data=[72, 92]),
   midi.NoteOnEvent(tick=0, channel=1, data=[81, 92]),
   midi.NoteOnEvent(tick=100, channel=1, data=[81, 0]),
   midi.NoteOnEvent(tick=0, channel=1, data=[72, 0]),
   midi.NoteOnEvent(tick=20, channel=1, data=[72, 92]),
   midi.NoteOnEvent(tick=0, channel=1, data=[81, 92]),
   midi.NoteOnEvent(tick=210, channel=1, data=[81, 0]),
   midi.NoteOnEvent(tick=0, channel=1, data=[72, 0]),
   midi.NoteOnEvent(tick=30, channel=1, data=[72, 92]),
   midi.NoteOnEvent(tick=0, channel=1, data=[80, 92]),
   midi.NoteOnEvent(tick=100, channel=1, data=[80, 0]),
   midi.NoteOnEvent(tick=0, channel=1, data=[72, 0]),
   midi.NoteOnEvent(tick=20, channel=1, data=[72, 92]),
   midi.NoteOnEvent(tick=0, channel=1, data=[81, 92]),
   midi.NoteOnEvent(tick=100, channel=1, data=[81, 0]),
   midi.NoteOnEvent(tick=0, channel=1, data=[72, 0]),
   midi.NoteOnEvent(tick=20, channel=1, data=[72, 92]),
   midi.NoteOnEvent(tick=0, channel=1, data=[80, 92]),
   midi.NoteOnEvent(tick=100, channel=1, data=[80, 0]),
   midi.NoteOnEvent(tick=0, channel=1, data=[72, 0]),
   midi.NoteOnEvent(tick=20, channel=1, data=[72, 92]),
   midi.NoteOnEvent(tick=0, channel=1, data=[81, 92]),
   midi.NoteOnEvent(tick=100, channel=1, data=[81, 0]),
   midi.NoteOnEvent(tick=0, channel=1, data=[72, 0]),
   midi.NoteOnEvent(tick=20, channel=1, data=[73, 92]),
   midi.NoteOnEvent(tick=0, channel=1, data=[82, 92]),
   midi.NoteOnEvent(tick=100, channel=1, data=[82, 0]),
   midi.NoteOnEvent(tick=0, channel=1, data=[73, 0]),
   midi.NoteOnEvent(tick=20, channel=1, data=[74, 92]),
   midi.NoteOnEvent(tick=0, channel=1, data=[81, 92]),
   midi.NoteOnEvent(tick=100, channel=1, data=[81, 0]),
   midi.NoteOnEvent(tick=0, channel=1, data=[74, 0]),
   midi.NoteOnEvent(tick=20, channel=1, data=[70, 92]),
   midi.NoteOnEvent(tick=0, channel=1, data=[73, 92]),
   midi.NoteOnEvent(tick=100, channel=1, data=[73, 0]),
   midi.NoteOnEvent(tick=0, channel=1, data=[70, 0]),
   midi.NoteOnEvent(tick=20, channel=1, data=[69, 92]),
   midi.NoteOnEvent(tick=0, channel=1, data=[74, 92]),
   midi.NoteOnEvent(tick=100, channel=1, data=[74, 0]),
   midi.NoteOnEvent(tick=20, channel=1, data=[76, 92]),
   midi.NoteOnEvent(tick=100, channel=1, data=[76, 0]),
   midi.NoteOnEvent(tick=20, channel=1, data=[77, 92]),
   midi.NoteOnEvent(tick=100, channel=1, data=[77, 0]),
   midi.NoteOnEvent(tick=0, channel=1, data=[69, 0]),
   midi.NoteOnEvent(tick=20, channel=1, data=[75, 92]),
   midi.NoteOnEvent(tick=0, channel=1, data=[78, 92]),
   midi.NoteOnEvent(tick=100, channel=1, data=[78, 0]),
   midi.NoteOnEvent(tick=0, channel=1, data=[75, 0]),
   midi.NoteOnEvent(tick=20, channel=1, data=[74, 92]),
   midi.NoteOnEvent(tick=0, channel=1, data=[79, 92]),
   midi.NoteOnEvent(tick=100, channel=1, data=[79, 0]),
   midi.NoteOnEvent(tick=0, channel=1, data=[74, 0]),
   midi.NoteOnEvent(tick=20, channel=1, data=[71, 92]),
   midi.NoteOnEvent(tick=0, channel=1, data=[77, 92]),
   midi.NoteOnEvent(tick=100, channel=1, data=[77, 0]),
   midi.NoteOnEvent(tick=0, channel=1, data=[71, 0]),
   midi.NoteOnEvent(tick=20, channel=1, data=[72, 92]),
   midi.NoteOnEvent(tick=0, channel=1, data=[76, 92]),
   midi.NoteOnEvent(tick=450, channel=1, data=[76, 0]),
   midi.NoteOnEvent(tick=30, channel=1, data=[74, 92]),
   midi.NoteOnEvent(tick=210, channel=1, data=[72, 0]),
   midi.NoteOnEvent(tick=30, channel=1, data=[71, 92]),
   midi.NoteOnEvent(tick=210, channel=1, data=[71, 0]),
   midi.NoteOnEvent(tick=0, channel=1, data=[74, 0]),
   midi.NoteOnEvent(tick=30, channel=1, data=[72, 92]),
   midi.NoteOnEvent(tick=100, channel=1, data=[72, 0]),
   midi.NoteOnEvent(tick=20, channel=1, data=[76, 92]),
   midi.NoteOnEvent(tick=0, channel=1, data=[79, 92]),
   midi.NoteOnEvent(tick=210, channel=1, data=[79, 0]),
   midi.NoteOnEvent(tick=0, channel=1, data=[76, 0]),
   midi.NoteOnEvent(tick=30, channel=1, data=[75, 92]),
   midi.NoteOnEvent(tick=0, channel=1, data=[79, 92]),
   midi.NoteOnEvent(tick=100, channel=1, data=[79, 0]),
   midi.NoteOnEvent(tick=0, channel=1, data=[75, 0]),
   midi.NoteOnEvent(tick=20, channel=1, data=[76, 92]),
   midi.NoteOnEvent(tick=0, channel=1, data=[79, 92]),
   midi.NoteOnEvent(tick=100, channel=1, data=[79, 0]),
   midi.NoteOnEvent(tick=0, channel=1, data=[76, 0]),
   midi.NoteOnEvent(tick=20, channel=1, data=[75, 92]),
   midi.NoteOnEvent(tick=0, channel=1, data=[79, 92]),
   midi.NoteOnEvent(tick=100, channel=1, data=[79, 0]),
   midi.NoteOnEvent(tick=0, channel=1, data=[75, 0]),
   midi.NoteOnEvent(tick=20, channel=1, data=[76, 92]),
   midi.NoteOnEvent(tick=0, channel=1, data=[79, 92]),
   midi.NoteOnEvent(tick=100, channel=1, data=[79, 0]),
   midi.NoteOnEvent(tick=0, channel=1, data=[76, 0]),
   midi.NoteOnEvent(tick=20, channel=1, data=[76, 92]),
   midi.NoteOnEvent(tick=0, channel=1, data=[83, 92]),
   midi.NoteOnEvent(tick=100, channel=1, data=[83, 0]),
   midi.NoteOnEvent(tick=0, channel=1, data=[76, 0]),
   midi.NoteOnEvent(tick=20, channel=1, data=[76, 92]),
   midi.NoteOnEvent(tick=0, channel=1, data=[84, 92]),
   midi.NoteOnEvent(tick=100, channel=1, data=[84, 0]),
   midi.NoteOnEvent(tick=0, channel=1, data=[76, 0]),
   midi.NoteOnEvent(tick=20, channel=1, data=[76, 92]),
   midi.NoteOnEvent(tick=0, channel=1, data=[84, 92]),
   midi.NoteOnEvent(tick=210, channel=1, data=[84, 0]),
   midi.NoteOnEvent(tick=0, channel=1, data=[76, 0]),
   midi.NoteOnEvent(tick=30, channel=1, data=[76, 92]),
   midi.NoteOnEvent(tick=0, channel=1, data=[83, 92]),
   midi.NoteOnEvent(tick=100, channel=1, data=[83, 0]),
   midi.NoteOnEvent(tick=0, channel=1, data=[76, 0]),
   midi.NoteOnEvent(tick=20, channel=1, data=[76, 92]),
   midi.NoteOnEvent(tick=0, channel=1, data=[84, 92]),
   midi.NoteOnEvent(tick=100, channel=1, data=[84, 0]),
   midi.NoteOnEvent(tick=0, channel=1, data=[76, 0]),
   midi.NoteOnEvent(tick=20, channel=1, data=[76, 92]),
   midi.NoteOnEvent(tick=0, channel=1, data=[83, 92]),
   midi.NoteOnEvent(tick=100, channel=1, data=[83, 0]),
   midi.NoteOnEvent(tick=0, channel=1, data=[76, 0]),
   midi.NoteOnEvent(tick=20, channel=1, data=[76, 92]),
   midi.NoteOnEvent(tick=0, channel=1, data=[84, 92]),
   midi.NoteOnEvent(tick=100, channel=1, data=[84, 0]),
   midi.NoteOnEvent(tick=0, channel=1, data=[76, 0]),
   midi.NoteOnEvent(tick=20, channel=1, data=[72, 92]),
   midi.NoteOnEvent(tick=0, channel=1, data=[80, 92]),
   midi.NoteOnEvent(tick=100, channel=1, data=[80, 0]),
   midi.NoteOnEvent(tick=0, channel=1, data=[72, 0]),
   midi.NoteOnEvent(tick=20, channel=1, data=[72, 92]),
   midi.NoteOnEvent(tick=0, channel=1, data=[81, 92]),
   midi.NoteOnEvent(tick=100, channel=1, data=[81, 0]),
   midi.NoteOnEvent(tick=0, channel=1, data=[72, 0]),
   midi.NoteOnEvent(tick=20, channel=1, data=[72, 92]),
   midi.NoteOnEvent(tick=0, channel=1, data=[81, 92]),
   midi.NoteOnEvent(tick=210, channel=1, data=[81, 0]),
   midi.NoteOnEvent(tick=0, channel=1, data=[72, 0]),
   midi.NoteOnEvent(tick=30, channel=1, data=[72, 92]),
   midi.NoteOnEvent(tick=0, channel=1, data=[80, 92]),
   midi.NoteOnEvent(tick=100, channel=1, data=[80, 0]),
   midi.NoteOnEvent(tick=0, channel=1, data=[72, 0]),
   midi.NoteOnEvent(tick=20, channel=1, data=[72, 92]),
   midi.NoteOnEvent(tick=0, channel=1, data=[81, 92]),
   midi.NoteOnEvent(tick=100, channel=1, data=[81, 0]),
   midi.NoteOnEvent(tick=0, channel=1, data=[72, 0]),
   midi.NoteOnEvent(tick=20, channel=1, data=[72, 92]),
   midi.NoteOnEvent(tick=0, channel=1, data=[80, 92]),
   midi.NoteOnEvent(tick=100, channel=1, data=[80, 0]),
   midi.NoteOnEvent(tick=0, channel=1, data=[72, 0]),
   midi.NoteOnEvent(tick=20, channel=1, data=[72, 92]),
   midi.NoteOnEvent(tick=0, channel=1, data=[81, 92]),
   midi.NoteOnEvent(tick=100, channel=1, data=[81, 0]),
   midi.NoteOnEvent(tick=0, channel=1, data=[72, 0]),
   midi.NoteOnEvent(tick=20, channel=1, data=[73, 92]),
   midi.NoteOnEvent(tick=0, channel=1, data=[82, 92]),
   midi.NoteOnEvent(tick=100, channel=1, data=[82, 0]),
   midi.NoteOnEvent(tick=0, channel=1, data=[73, 0]),
   midi.NoteOnEvent(tick=20, channel=1, data=[74, 92]),
   midi.NoteOnEvent(tick=0, channel=1, data=[81, 92]),
   midi.NoteOnEvent(tick=100, channel=1, data=[81, 0]),
   midi.NoteOnEvent(tick=0, channel=1, data=[74, 0]),
   midi.NoteOnEvent(tick=20, channel=1, data=[70, 92]),
   midi.NoteOnEvent(tick=0, channel=1, data=[73, 92]),
   midi.NoteOnEvent(tick=100, channel=1, data=[73, 0]),
   midi.NoteOnEvent(tick=0, channel=1, data=[70, 0]),
   midi.NoteOnEvent(tick=20, channel=1, data=[69, 92]),
   midi.NoteOnEvent(tick=0, channel=1, data=[74, 92]),
   midi.NoteOnEvent(tick=100, channel=1, data=[74, 0]),
   midi.NoteOnEvent(tick=20, channel=1, data=[76, 92]),
   midi.NoteOnEvent(tick=100, channel=1, data=[76, 0]),
   midi.NoteOnEvent(tick=20, channel=1, data=[77, 92]),
   midi.NoteOnEvent(tick=100, channel=1, data=[77, 0]),
   midi.NoteOnEvent(tick=0, channel=1, data=[69, 0]),
   midi.NoteOnEvent(tick=20, channel=1, data=[75, 92]),
   midi.NoteOnEvent(tick=0, channel=1, data=[78, 92]),
   midi.NoteOnEvent(tick=100, channel=1, data=[78, 0]),
   midi.NoteOnEvent(tick=0, channel=1, data=[75, 0]),
   midi.NoteOnEvent(tick=20, channel=1, data=[74, 92]),
   midi.NoteOnEvent(tick=0, channel=1, data=[79, 92]),
   midi.NoteOnEvent(tick=100, channel=1, data=[79, 0]),
   midi.NoteOnEvent(tick=0, channel=1, data=[74, 0]),
   midi.NoteOnEvent(tick=20, channel=1, data=[71, 92]),
   midi.NoteOnEvent(tick=0, channel=1, data=[77, 92]),
   midi.NoteOnEvent(tick=100, channel=1, data=[77, 0]),
   midi.NoteOnEvent(tick=0, channel=1, data=[71, 0]),
   midi.NoteOnEvent(tick=20, channel=1, data=[72, 92]),
   midi.NoteOnEvent(tick=0, channel=1, data=[76, 92]),
   midi.NoteOnEvent(tick=100, channel=1, data=[76, 0]),
   midi.NoteOnEvent(tick=0, channel=1, data=[72, 0]),
   midi.NoteOnEvent(tick=1820, channel=1, data=[72, 60]),
   midi.NoteOnEvent(tick=0, channel=1, data=[74, 60]),
   midi.NoteOnEvent(tick=450, channel=1, data=[72, 0]),
   midi.NoteOnEvent(tick=30, channel=1, data=[71, 60]),
   midi.NoteOnEvent(tick=240, channel=1, data=[74, 0]),
   midi.NoteOnEvent(tick=0, channel=1, data=[76, 60]),
   midi.NoteOnEvent(tick=180, channel=1, data=[76, 0]),
   midi.NoteOnEvent(tick=0, channel=1, data=[77, 60]),
   midi.NoteOnEvent(tick=30, channel=1, data=[71, 0]),
   midi.NoteOnEvent(tick=28, channel=1, data=[77, 0]),
   midi.NoteOnEvent(tick=2, channel=1, data=[72, 60]),
   midi.NoteOnEvent(tick=0, channel=1, data=[77, 60]),
   midi.NoteOnEvent(tick=480, channel=1, data=[77, 0]),
   midi.NoteOnEvent(tick=0, channel=1, data=[76, 60]),
   midi.NoteOnEvent(tick=100, channel=1, data=[76, 0]),
   midi.NoteOnEvent(tick=0, channel=1, data=[72, 0]),
   midi.NoteOnEvent(tick=860, channel=1, data=[72, 92]),
   midi.NoteOnEvent(tick=0, channel=1, data=[76, 92]),
   midi.NoteOnEvent(tick=450, channel=1, data=[76, 0]),
   midi.NoteOnEvent(tick=30, channel=1, data=[77, 92]),
   midi.NoteOnEvent(tick=450, channel=1, data=[77, 0]),
   midi.NoteOnEvent(tick=30, channel=1, data=[81, 92]),
   midi.NoteOnEvent(tick=450, channel=1, data=[81, 0]),
   midi.NoteOnEvent(tick=30, channel=1, data=[74, 92]),
   midi.NoteOnEvent(tick=450, channel=1, data=[74, 0]),
   midi.NoteOnEvent(tick=0, channel=1, data=[72, 0]),
   midi.NoteOnEvent(tick=30, channel=1, data=[71, 92]),
   midi.NoteOnEvent(tick=0, channel=1, data=[79, 92]),
   midi.NoteOnEvent(tick=450, channel=1, data=[79, 0]),
   midi.NoteOnEvent(tick=0, channel=1, data=[71, 0]),
   midi.NoteOnEvent(tick=30, channel=1, data=[72, 92]),
   midi.NoteOnEvent(tick=100, channel=1, data=[72, 0]),
   midi.ControlChangeEvent(tick=1820, channel=1, data=[7, 32]),
   midi.NoteOnEvent(tick=0, channel=1, data=[79, 60]),
   midi.NoteOnEvent(tick=0, channel=1, data=[84, 60]),
   midi.ControlChangeEvent(tick=1440, channel=1, data=[7, 48]),
   midi.ControlChangeEvent(tick=480, channel=1, data=[7, 64]),
   midi.ControlChangeEvent(tick=480, channel=1, data=[7, 80]),
   midi.ControlChangeEvent(tick=480, channel=1, data=[7, 96]),
   midi.NoteOnEvent(tick=930, channel=1, data=[84, 0]),
   midi.NoteOnEvent(tick=0, channel=1, data=[79, 0]),
   midi.NoteOnEvent(tick=30, channel=1, data=[76, 108]),
   midi.NoteOnEvent(tick=0, channel=1, data=[79, 108]),
   midi.NoteOnEvent(tick=100, channel=1, data=[79, 0]),
   midi.NoteOnEvent(tick=0, channel=1, data=[76, 0]),
   midi.NoteOnEvent(tick=20, channel=1, data=[76, 108]),
   midi.NoteOnEvent(tick=0, channel=1, data=[79, 108]),
   midi.NoteOnEvent(tick=210, channel=1, data=[79, 0]),
   midi.NoteOnEvent(tick=0, channel=1, data=[76, 0]),
   midi.NoteOnEvent(tick=30, channel=1, data=[77, 108]),
   midi.NoteOnEvent(tick=0, channel=1, data=[81, 108]),
   midi.NoteOnEvent(tick=100, channel=1, data=[81, 0]),
   midi.NoteOnEvent(tick=0, channel=1, data=[77, 0]),
   midi.NoteOnEvent(tick=20, channel=1, data=[76, 108]),
   midi.NoteOnEvent(tick=0, channel=1, data=[79, 108]),
   midi.NoteOnEvent(tick=100, channel=1, data=[79, 0]),
   midi.NoteOnEvent(tick=0, channel=1, data=[76, 0]),
   midi.NoteOnEvent(tick=20, channel=1, data=[77, 108]),
   midi.NoteOnEvent(tick=0, channel=1, data=[81, 108]),
   midi.NoteOnEvent(tick=100, channel=1, data=[81, 0]),
   midi.NoteOnEvent(tick=0, channel=1, data=[77, 0]),
   midi.NoteOnEvent(tick=20, channel=1, data=[76, 108]),
   midi.NoteOnEvent(tick=0, channel=1, data=[79, 108]),
   midi.NoteOnEvent(tick=100, channel=1, data=[79, 0]),
   midi.NoteOnEvent(tick=0, channel=1, data=[76, 0]),
   midi.NoteOnEvent(tick=20, channel=1, data=[77, 108]),
   midi.NoteOnEvent(tick=0, channel=1, data=[83, 108]),
   midi.NoteOnEvent(tick=100, channel=1, data=[83, 0]),
   midi.NoteOnEvent(tick=0, channel=1, data=[77, 0]),
   midi.NoteOnEvent(tick=20, channel=1, data=[76, 108]),
   midi.NoteOnEvent(tick=0, channel=1, data=[84, 108]),
   midi.NoteOnEvent(tick=100, channel=1, data=[84, 0]),
   midi.NoteOnEvent(tick=0, channel=1, data=[76, 0]),
   midi.NoteOnEvent(tick=20, channel=1, data=[76, 108]),
   midi.NoteOnEvent(tick=0, channel=1, data=[79, 108]),
   midi.NoteOnEvent(tick=210, channel=1, data=[79, 0]),
   midi.NoteOnEvent(tick=0, channel=1, data=[76, 0]),
   midi.NoteOnEvent(tick=30, channel=1, data=[77, 108]),
   midi.NoteOnEvent(tick=0, channel=1, data=[81, 108]),
   midi.NoteOnEvent(tick=100, channel=1, data=[81, 0]),
   midi.NoteOnEvent(tick=0, channel=1, data=[77, 0]),
   midi.NoteOnEvent(tick=20, channel=1, data=[76, 108]),
   midi.NoteOnEvent(tick=0, channel=1, data=[79, 108]),
   midi.NoteOnEvent(tick=100, channel=1, data=[79, 0]),
   midi.NoteOnEvent(tick=0, channel=1, data=[76, 0]),
   midi.NoteOnEvent(tick=20, channel=1, data=[77, 108]),
   midi.NoteOnEvent(tick=0, channel=1, data=[81, 108]),
   midi.NoteOnEvent(tick=100, channel=1, data=[81, 0]),
   midi.NoteOnEvent(tick=0, channel=1, data=[77, 0]),
   midi.NoteOnEvent(tick=20, channel=1, data=[76, 108]),
   midi.NoteOnEvent(tick=0, channel=1, data=[79, 108]),
   midi.NoteOnEvent(tick=100, channel=1, data=[79, 0]),
   midi.NoteOnEvent(tick=0, channel=1, data=[76, 0]),
   midi.NoteOnEvent(tick=20, channel=1, data=[77, 108]),
   midi.NoteOnEvent(tick=0, channel=1, data=[83, 108]),
   midi.NoteOnEvent(tick=100, channel=1, data=[83, 0]),
   midi.NoteOnEvent(tick=0, channel=1, data=[77, 0]),
   midi.NoteOnEvent(tick=20, channel=1, data=[76, 108]),
   midi.NoteOnEvent(tick=0, channel=1, data=[84, 108]),
   midi.NoteOnEvent(tick=100, channel=1, data=[84, 0]),
   midi.NoteOnEvent(tick=0, channel=1, data=[76, 0]),
   midi.NoteOnEvent(tick=20, channel=1, data=[79, 108]),
   midi.NoteOnEvent(tick=100, channel=1, data=[79, 0]),
   midi.NoteOnEvent(tick=20, channel=1, data=[84, 108]),
   midi.NoteOnEvent(tick=100, channel=1, data=[84, 0]),
   midi.NoteOnEvent(tick=20, channel=1, data=[79, 108]),
   midi.NoteOnEvent(tick=100, channel=1, data=[79, 0]),
   midi.NoteOnEvent(tick=20, channel=1, data=[84, 108]),
   midi.NoteOnEvent(tick=100, channel=1, data=[84, 0]),
   midi.NoteOnEvent(tick=20, channel=1, data=[79, 108]),
   midi.NoteOnEvent(tick=100, channel=1, data=[79, 0]),
   midi.NoteOnEvent(tick=20, channel=1, data=[84, 108]),
   midi.NoteOnEvent(tick=100, channel=1, data=[84, 0]),
   midi.NoteOnEvent(tick=20, channel=1, data=[79, 108]),
   midi.NoteOnEvent(tick=100, channel=1, data=[79, 0]),
   midi.NoteOnEvent(tick=20, channel=1, data=[84, 108]),
   midi.NoteOnEvent(tick=100, channel=1, data=[84, 0]),
   midi.NoteOnEvent(tick=380, channel=1, data=[76, 108]),
   midi.NoteOnEvent(tick=0, channel=1, data=[79, 108]),
   midi.NoteOnEvent(tick=100, channel=1, data=[79, 0]),
   midi.NoteOnEvent(tick=0, channel=1, data=[76, 0]),
   midi.NoteOnEvent(tick=140, channel=1, data=[76, 108]),
   midi.NoteOnEvent(tick=0, channel=1, data=[79, 108]),
   midi.NoteOnEvent(tick=100, channel=1, data=[79, 0]),
   midi.NoteOnEvent(tick=0, channel=1, data=[76, 0]),
   midi.NoteOnEvent(tick=140, channel=1, data=[76, 108]),
   midi.NoteOnEvent(tick=0, channel=1, data=[79, 108]),
   midi.NoteOnEvent(tick=210, channel=1, data=[79, 0]),
   midi.NoteOnEvent(tick=0, channel=1, data=[76, 0]),
   midi.EndOfTrackEvent(tick=0, data=[])]),
 midi.Track(\
  [midi.PortEvent(tick=0, data=[0]),
   midi.TrackNameEvent(tick=0, text='Clarinets (C)', data=[67, 108, 97, 114, 105, 110, 101, 116, 115, 32, 40, 67, 41]),
   midi.ProgramChangeEvent(tick=0, channel=2, data=[71]),
   midi.ControlChangeEvent(tick=0, channel=2, data=[7, 127]),
   midi.ControlChangeEvent(tick=0, channel=2, data=[10, 80]),
   midi.NoteOnEvent(tick=0, channel=2, data=[72, 92]),
   midi.NoteOnEvent(tick=0, channel=2, data=[76, 92]),
   midi.NoteOnEvent(tick=100, channel=2, data=[76, 0]),
   midi.NoteOnEvent(tick=0, channel=2, data=[72, 0]),
   midi.NoteOnEvent(tick=110, channel=2, data=[72, 92]),
   midi.NoteOnEvent(tick=28, channel=2, data=[72, 0]),
   midi.NoteOnEvent(tick=2, channel=2, data=[72, 92]),
   midi.NoteOnEvent(tick=100, channel=2, data=[72, 0]),
   midi.NoteOnEvent(tick=1550, channel=2, data=[71, 92]),
   midi.NoteOnEvent(tick=0, channel=2, data=[74, 92]),
   midi.NoteOnEvent(tick=28, channel=2, data=[74, 0]),
   midi.NoteOnEvent(tick=0, channel=2, data=[71, 0]),
   midi.NoteOnEvent(tick=2, channel=2, data=[71, 92]),
   midi.NoteOnEvent(tick=0, channel=2, data=[74, 92]),
   midi.NoteOnEvent(tick=100, channel=2, data=[74, 0]),
   midi.NoteOnEvent(tick=0, channel=2, data=[71, 0]),
   midi.NoteOnEvent(tick=110, channel=2, data=[71, 92]),
   midi.NoteOnEvent(tick=0, channel=2, data=[74, 92]),
   midi.NoteOnEvent(tick=28, channel=2, data=[74, 0]),
   midi.NoteOnEvent(tick=0, channel=2, data=[71, 0]),
   midi.NoteOnEvent(tick=2, channel=2, data=[71, 92]),
   midi.NoteOnEvent(tick=0, channel=2, data=[74, 92]),
   midi.NoteOnEvent(tick=100, channel=2, data=[74, 0]),
   midi.NoteOnEvent(tick=0, channel=2, data=[71, 0]),
   midi.NoteOnEvent(tick=740, channel=2, data=[67, 60]),
   midi.NoteOnEvent(tick=100, channel=2, data=[67, 0]),
   midi.NoteOnEvent(tick=20, channel=2, data=[67, 60]),
   midi.NoteOnEvent(tick=100, channel=2, data=[67, 0]),
   midi.NoteOnEvent(tick=20, channel=2, data=[67, 60]),
   midi.NoteOnEvent(tick=100, channel=2, data=[67, 0]),
   midi.NoteOnEvent(tick=20, channel=2, data=[67, 60]),
   midi.NoteOnEvent(tick=240, channel=2, data=[67, 0]),
   midi.NoteOnEvent(tick=0, channel=2, data=[67, 60]),
   midi.NoteOnEvent(tick=100, channel=2, data=[67, 0]),
   midi.NoteOnEvent(tick=1820, channel=2, data=[72, 92]),
   midi.NoteOnEvent(tick=0, channel=2, data=[76, 92]),
   midi.NoteOnEvent(tick=240, channel=2, data=[76, 0]),
   midi.NoteOnEvent(tick=0, channel=2, data=[77, 92]),
   midi.NoteOnEvent(tick=240, channel=2, data=[77, 0]),
   midi.NoteOnEvent(tick=0, channel=2, data=[81, 92]),
   midi.NoteOnEvent(tick=240, channel=2, data=[81, 0]),
   midi.NoteOnEvent(tick=0, channel=2, data=[74, 92]),
   midi.NoteOnEvent(tick=240, channel=2, data=[74, 0]),
   midi.NoteOnEvent(tick=0, channel=2, data=[72, 0]),
   midi.NoteOnEvent(tick=0, channel=2, data=[71, 92]),
   midi.NoteOnEvent(tick=0, channel=2, data=[79, 92]),
   midi.NoteOnEvent(tick=210, channel=2, data=[79, 0]),
   midi.NoteOnEvent(tick=0, channel=2, data=[71, 0]),
   midi.NoteOnEvent(tick=30, channel=2, data=[72, 92]),
   midi.NoteOnEvent(tick=0, channel=2, data=[76, 92]),
   midi.NoteOnEvent(tick=100, channel=2, data=[76, 0]),
   midi.NoteOnEvent(tick=0, channel=2, data=[72, 0]),
   midi.NoteOnEvent(tick=4700, channel=2, data=[76, 92]),
   midi.NoteOnEvent(tick=0, channel=2, data=[79, 92]),
   midi.NoteOnEvent(tick=100, channel=2, data=[79, 0]),
   midi.NoteOnEvent(tick=0, channel=2, data=[76, 0]),
   midi.NoteOnEvent(tick=20, channel=2, data=[76, 92]),
   midi.NoteOnEvent(tick=0, channel=2, data=[79, 92]),
   midi.NoteOnEvent(tick=210, channel=2, data=[79, 0]),
   midi.NoteOnEvent(tick=0, channel=2, data=[76, 0]),
   midi.NoteOnEvent(tick=30, channel=2, data=[77, 92]),
   midi.NoteOnEvent(tick=0, channel=2, data=[81, 92]),
   midi.NoteOnEvent(tick=100, channel=2, data=[81, 0]),
   midi.NoteOnEvent(tick=0, channel=2, data=[77, 0]),
   midi.NoteOnEvent(tick=20, channel=2, data=[76, 92]),
   midi.NoteOnEvent(tick=0, channel=2, data=[79, 92]),
   midi.NoteOnEvent(tick=100, channel=2, data=[79, 0]),
   midi.NoteOnEvent(tick=0, channel=2, data=[76, 0]),
   midi.NoteOnEvent(tick=20, channel=2, data=[77, 92]),
   midi.NoteOnEvent(tick=0, channel=2, data=[81, 92]),
   midi.NoteOnEvent(tick=100, channel=2, data=[81, 0]),
   midi.NoteOnEvent(tick=0, channel=2, data=[77, 0]),
   midi.NoteOnEvent(tick=20, channel=2, data=[76, 92]),
   midi.NoteOnEvent(tick=0, channel=2, data=[79, 92]),
   midi.NoteOnEvent(tick=100, channel=2, data=[79, 0]),
   midi.NoteOnEvent(tick=0, channel=2, data=[76, 0]),
   midi.NoteOnEvent(tick=20, channel=2, data=[77, 92]),
   midi.NoteOnEvent(tick=0, channel=2, data=[81, 92]),
   midi.NoteOnEvent(tick=100, channel=2, data=[81, 0]),
   midi.NoteOnEvent(tick=0, channel=2, data=[77, 0]),
   midi.NoteOnEvent(tick=20, channel=2, data=[76, 92]),
   midi.NoteOnEvent(tick=0, channel=2, data=[79, 92]),
   midi.NoteOnEvent(tick=100, channel=2, data=[79, 0]),
   midi.NoteOnEvent(tick=0, channel=2, data=[76, 0]),
   midi.NoteOnEvent(tick=20, channel=2, data=[76, 92]),
   midi.NoteOnEvent(tick=0, channel=2, data=[79, 92]),
   midi.NoteOnEvent(tick=210, channel=2, data=[79, 0]),
   midi.NoteOnEvent(tick=0, channel=2, data=[76, 0]),
   midi.NoteOnEvent(tick=30, channel=2, data=[77, 92]),
   midi.NoteOnEvent(tick=0, channel=2, data=[81, 92]),
   midi.NoteOnEvent(tick=100, channel=2, data=[81, 0]),
   midi.NoteOnEvent(tick=0, channel=2, data=[77, 0]),
   midi.NoteOnEvent(tick=20, channel=2, data=[76, 92]),
   midi.NoteOnEvent(tick=0, channel=2, data=[79, 92]),
   midi.NoteOnEvent(tick=100, channel=2, data=[79, 0]),
   midi.NoteOnEvent(tick=0, channel=2, data=[76, 0]),
   midi.NoteOnEvent(tick=20, channel=2, data=[77, 92]),
   midi.NoteOnEvent(tick=0, channel=2, data=[81, 92]),
   midi.NoteOnEvent(tick=100, channel=2, data=[81, 0]),
   midi.NoteOnEvent(tick=0, channel=2, data=[77, 0]),
   midi.NoteOnEvent(tick=20, channel=2, data=[76, 92]),
   midi.NoteOnEvent(tick=0, channel=2, data=[79, 92]),
   midi.NoteOnEvent(tick=100, channel=2, data=[79, 0]),
   midi.NoteOnEvent(tick=0, channel=2, data=[76, 0]),
   midi.NoteOnEvent(tick=20, channel=2, data=[77, 92]),
   midi.NoteOnEvent(tick=0, channel=2, data=[81, 92]),
   midi.NoteOnEvent(tick=100, channel=2, data=[81, 0]),
   midi.NoteOnEvent(tick=0, channel=2, data=[77, 0]),
   midi.NoteOnEvent(tick=20, channel=2, data=[76, 92]),
   midi.NoteOnEvent(tick=0, channel=2, data=[79, 92]),
   midi.NoteOnEvent(tick=100, channel=2, data=[79, 0]),
   midi.NoteOnEvent(tick=0, channel=2, data=[76, 0]),
   midi.NoteOnEvent(tick=11420, channel=2, data=[78, 92]),
   midi.NoteOnEvent(tick=0, channel=2, data=[81, 92]),
   midi.NoteOnEvent(tick=100, channel=2, data=[81, 0]),
   midi.NoteOnEvent(tick=0, channel=2, data=[78, 0]),
   midi.NoteOnEvent(tick=20, channel=2, data=[78, 92]),
   midi.NoteOnEvent(tick=0, channel=2, data=[81, 92]),
   midi.NoteOnEvent(tick=210, channel=2, data=[81, 0]),
   midi.NoteOnEvent(tick=0, channel=2, data=[78, 0]),
   midi.NoteOnEvent(tick=30, channel=2, data=[79, 92]),
   midi.NoteOnEvent(tick=0, channel=2, data=[83, 92]),
   midi.NoteOnEvent(tick=100, channel=2, data=[83, 0]),
   midi.NoteOnEvent(tick=0, channel=2, data=[79, 0]),
   midi.NoteOnEvent(tick=20, channel=2, data=[78, 92]),
   midi.NoteOnEvent(tick=0, channel=2, data=[81, 92]),
   midi.NoteOnEvent(tick=100, channel=2, data=[81, 0]),
   midi.NoteOnEvent(tick=0, channel=2, data=[78, 0]),
   midi.NoteOnEvent(tick=20, channel=2, data=[79, 92]),
   midi.NoteOnEvent(tick=0, channel=2, data=[83, 92]),
   midi.NoteOnEvent(tick=100, channel=2, data=[83, 0]),
   midi.NoteOnEvent(tick=0, channel=2, data=[79, 0]),
   midi.NoteOnEvent(tick=20, channel=2, data=[81, 92]),
   midi.NoteOnEvent(tick=0, channel=2, data=[84, 92]),
   midi.NoteOnEvent(tick=100, channel=2, data=[84, 0]),
   midi.NoteOnEvent(tick=0, channel=2, data=[81, 0]),
   midi.NoteOnEvent(tick=20, channel=2, data=[79, 92]),
   midi.NoteOnEvent(tick=0, channel=2, data=[83, 92]),
   midi.NoteOnEvent(tick=100, channel=2, data=[83, 0]),
   midi.NoteOnEvent(tick=0, channel=2, data=[79, 0]),
   midi.NoteOnEvent(tick=20, channel=2, data=[78, 92]),
   midi.NoteOnEvent(tick=0, channel=2, data=[81, 92]),
   midi.NoteOnEvent(tick=100, channel=2, data=[81, 0]),
   midi.NoteOnEvent(tick=0, channel=2, data=[78, 0]),
   midi.NoteOnEvent(tick=20, channel=2, data=[78, 92]),
   midi.NoteOnEvent(tick=0, channel=2, data=[81, 92]),
   midi.NoteOnEvent(tick=210, channel=2, data=[81, 0]),
   midi.NoteOnEvent(tick=0, channel=2, data=[78, 0]),
   midi.NoteOnEvent(tick=30, channel=2, data=[79, 92]),
   midi.NoteOnEvent(tick=0, channel=2, data=[83, 92]),
   midi.NoteOnEvent(tick=100, channel=2, data=[83, 0]),
   midi.NoteOnEvent(tick=0, channel=2, data=[79, 0]),
   midi.NoteOnEvent(tick=20, channel=2, data=[78, 92]),
   midi.NoteOnEvent(tick=0, channel=2, data=[81, 92]),
   midi.NoteOnEvent(tick=100, channel=2, data=[81, 0]),
   midi.NoteOnEvent(tick=0, channel=2, data=[78, 0]),
   midi.NoteOnEvent(tick=20, channel=2, data=[79, 92]),
   midi.NoteOnEvent(tick=0, channel=2, data=[83, 92]),
   midi.NoteOnEvent(tick=100, channel=2, data=[83, 0]),
   midi.NoteOnEvent(tick=0, channel=2, data=[79, 0]),
   midi.NoteOnEvent(tick=20, channel=2, data=[81, 92]),
   midi.NoteOnEvent(tick=0, channel=2, data=[84, 92]),
   midi.NoteOnEvent(tick=100, channel=2, data=[84, 0]),
   midi.NoteOnEvent(tick=0, channel=2, data=[81, 0]),
   midi.NoteOnEvent(tick=20, channel=2, data=[79, 92]),
   midi.NoteOnEvent(tick=0, channel=2, data=[83, 92]),
   midi.NoteOnEvent(tick=100, channel=2, data=[83, 0]),
   midi.NoteOnEvent(tick=0, channel=2, data=[79, 0]),
   midi.NoteOnEvent(tick=20, channel=2, data=[78, 92]),
   midi.NoteOnEvent(tick=0, channel=2, data=[81, 92]),
   midi.NoteOnEvent(tick=100, channel=2, data=[81, 0]),
   midi.NoteOnEvent(tick=0, channel=2, data=[78, 0]),
   midi.NoteOnEvent(tick=3860, channel=2, data=[74, 92]),
   midi.NoteOnEvent(tick=0, channel=2, data=[83, 92]),
   midi.NoteOnEvent(tick=210, channel=2, data=[83, 0]),
   midi.NoteOnEvent(tick=0, channel=2, data=[74, 0]),
   midi.NoteOnEvent(tick=30, channel=2, data=[74, 92]),
   midi.NoteOnEvent(tick=0, channel=2, data=[82, 92]),
   midi.NoteOnEvent(tick=100, channel=2, data=[82, 0]),
   midi.NoteOnEvent(tick=0, channel=2, data=[74, 0]),
   midi.NoteOnEvent(tick=20, channel=2, data=[74, 92]),
   midi.NoteOnEvent(tick=0, channel=2, data=[83, 92]),
   midi.NoteOnEvent(tick=100, channel=2, data=[83, 0]),
   midi.NoteOnEvent(tick=0, channel=2, data=[74, 0]),
   midi.NoteOnEvent(tick=20, channel=2, data=[74, 92]),
   midi.NoteOnEvent(tick=0, channel=2, data=[82, 92]),
   midi.NoteOnEvent(tick=100, channel=2, data=[82, 0]),
   midi.NoteOnEvent(tick=0, channel=2, data=[74, 0]),
   midi.NoteOnEvent(tick=20, channel=2, data=[74, 92]),
   midi.NoteOnEvent(tick=0, channel=2, data=[83, 92]),
   midi.NoteOnEvent(tick=100, channel=2, data=[83, 0]),
   midi.NoteOnEvent(tick=0, channel=2, data=[74, 0]),
   midi.NoteOnEvent(tick=20, channel=2, data=[71, 92]),
   midi.NoteOnEvent(tick=0, channel=2, data=[78, 92]),
   midi.NoteOnEvent(tick=100, channel=2, data=[78, 0]),
   midi.NoteOnEvent(tick=0, channel=2, data=[71, 0]),
   midi.NoteOnEvent(tick=20, channel=2, data=[71, 92]),
   midi.NoteOnEvent(tick=0, channel=2, data=[79, 92]),
   midi.NoteOnEvent(tick=100, channel=2, data=[79, 0]),
   midi.NoteOnEvent(tick=0, channel=2, data=[71, 0]),
   midi.NoteOnEvent(tick=20, channel=2, data=[71, 92]),
   midi.NoteOnEvent(tick=0, channel=2, data=[79, 92]),
   midi.NoteOnEvent(tick=210, channel=2, data=[79, 0]),
   midi.NoteOnEvent(tick=0, channel=2, data=[71, 0]),
   midi.NoteOnEvent(tick=30, channel=2, data=[71, 92]),
   midi.NoteOnEvent(tick=0, channel=2, data=[78, 92]),
   midi.NoteOnEvent(tick=100, channel=2, data=[78, 0]),
   midi.NoteOnEvent(tick=0, channel=2, data=[71, 0]),
   midi.NoteOnEvent(tick=20, channel=2, data=[71, 92]),
   midi.NoteOnEvent(tick=0, channel=2, data=[79, 92]),
   midi.NoteOnEvent(tick=100, channel=2, data=[79, 0]),
   midi.NoteOnEvent(tick=0, channel=2, data=[71, 0]),
   midi.NoteOnEvent(tick=20, channel=2, data=[71, 92]),
   midi.NoteOnEvent(tick=0, channel=2, data=[78, 92]),
   midi.NoteOnEvent(tick=100, channel=2, data=[78, 0]),
   midi.NoteOnEvent(tick=0, channel=2, data=[71, 0]),
   midi.NoteOnEvent(tick=20, channel=2, data=[71, 92]),
   midi.NoteOnEvent(tick=0, channel=2, data=[79, 92]),
   midi.NoteOnEvent(tick=100, channel=2, data=[79, 0]),
   midi.NoteOnEvent(tick=0, channel=2, data=[71, 0]),
   midi.NoteOnEvent(tick=20, channel=2, data=[67, 92]),
   midi.NoteOnEvent(tick=0, channel=2, data=[75, 92]),
   midi.NoteOnEvent(tick=100, channel=2, data=[75, 0]),
   midi.NoteOnEvent(tick=0, channel=2, data=[67, 0]),
   midi.NoteOnEvent(tick=20, channel=2, data=[67, 92]),
   midi.NoteOnEvent(tick=0, channel=2, data=[76, 92]),
   midi.NoteOnEvent(tick=100, channel=2, data=[76, 0]),
   midi.NoteOnEvent(tick=0, channel=2, data=[67, 0]),
   midi.NoteOnEvent(tick=20, channel=2, data=[67, 92]),
   midi.NoteOnEvent(tick=0, channel=2, data=[76, 92]),
   midi.NoteOnEvent(tick=210, channel=2, data=[76, 0]),
   midi.NoteOnEvent(tick=0, channel=2, data=[67, 0]),
   midi.NoteOnEvent(tick=30, channel=2, data=[67, 92]),
   midi.NoteOnEvent(tick=0, channel=2, data=[75, 92]),
   midi.NoteOnEvent(tick=100, channel=2, data=[75, 0]),
   midi.NoteOnEvent(tick=0, channel=2, data=[67, 0]),
   midi.NoteOnEvent(tick=20, channel=2, data=[67, 92]),
   midi.NoteOnEvent(tick=0, channel=2, data=[76, 92]),
   midi.NoteOnEvent(tick=100, channel=2, data=[76, 0]),
   midi.NoteOnEvent(tick=0, channel=2, data=[67, 0]),
   midi.NoteOnEvent(tick=20, channel=2, data=[67, 92]),
   midi.NoteOnEvent(tick=0, channel=2, data=[75, 92]),
   midi.NoteOnEvent(tick=100, channel=2, data=[75, 0]),
   midi.NoteOnEvent(tick=0, channel=2, data=[67, 0]),
   midi.NoteOnEvent(tick=20, channel=2, data=[67, 92]),
   midi.NoteOnEvent(tick=0, channel=2, data=[76, 92]),
   midi.NoteOnEvent(tick=100, channel=2, data=[76, 0]),
   midi.NoteOnEvent(tick=0, channel=2, data=[67, 0]),
   midi.NoteOnEvent(tick=20, channel=2, data=[75, 92]),
   midi.NoteOnEvent(tick=0, channel=2, data=[77, 92]),
   midi.NoteOnEvent(tick=100, channel=2, data=[77, 0]),
   midi.NoteOnEvent(tick=0, channel=2, data=[75, 0]),
   midi.NoteOnEvent(tick=20, channel=2, data=[72, 92]),
   midi.NoteOnEvent(tick=0, channel=2, data=[76, 92]),
   midi.NoteOnEvent(tick=120, channel=2, data=[76, 0]),
   midi.NoteOnEvent(tick=0, channel=2, data=[72, 0]),
   midi.NoteOnEvent(tick=0, channel=2, data=[71, 92]),
   midi.NoteOnEvent(tick=0, channel=2, data=[74, 92]),
   midi.NoteOnEvent(tick=120, channel=2, data=[74, 0]),
   midi.NoteOnEvent(tick=0, channel=2, data=[71, 0]),
   midi.NoteOnEvent(tick=0, channel=2, data=[69, 92]),
   midi.NoteOnEvent(tick=0, channel=2, data=[72, 92]),
   midi.NoteOnEvent(tick=120, channel=2, data=[72, 0]),
   midi.NoteOnEvent(tick=0, channel=2, data=[69, 0]),
   midi.NoteOnEvent(tick=0, channel=2, data=[70, 92]),
   midi.NoteOnEvent(tick=0, channel=2, data=[73, 92]),
   midi.NoteOnEvent(tick=100, channel=2, data=[73, 0]),
   midi.NoteOnEvent(tick=0, channel=2, data=[70, 0]),
   midi.NoteOnEvent(tick=20, channel=2, data=[69, 92]),
   midi.NoteOnEvent(tick=0, channel=2, data=[74, 92]),
   midi.NoteOnEvent(tick=100, channel=2, data=[74, 0]),
   midi.NoteOnEvent(tick=0, channel=2, data=[69, 0]),
   midi.NoteOnEvent(tick=380, channel=2, data=[71, 92]),
   midi.NoteOnEvent(tick=0, channel=2, data=[79, 92]),
   midi.NoteOnEvent(tick=930, channel=2, data=[71, 0]),
   midi.NoteOnEvent(tick=30, channel=2, data=[69, 92]),
   midi.NoteOnEvent(tick=210, channel=2, data=[79, 0]),
   midi.NoteOnEvent(tick=30, channel=2, data=[78, 92]),
   midi.NoteOnEvent(tick=210, channel=2, data=[78, 0]),
   midi.NoteOnEvent(tick=0, channel=2, data=[69, 0]),
   midi.NoteOnEvent(tick=30, channel=2, data=[71, 92]),
   midi.NoteOnEvent(tick=0, channel=2, data=[79, 92]),
   midi.NoteOnEvent(tick=930, channel=2, data=[71, 0]),
   midi.NoteOnEvent(tick=30, channel=2, data=[69, 92]),
   midi.NoteOnEvent(tick=210, channel=2, data=[79, 0]),
   midi.NoteOnEvent(tick=30, channel=2, data=[78, 92]),
   midi.NoteOnEvent(tick=210, channel=2, data=[78, 0]),
   midi.NoteOnEvent(tick=0, channel=2, data=[69, 0]),
   midi.NoteOnEvent(tick=30, channel=2, data=[67, 92]),
   midi.NoteOnEvent(tick=0, channel=2, data=[79, 92]),
   midi.NoteOnEvent(tick=100, channel=2, data=[79, 0]),
   midi.NoteOnEvent(tick=0, channel=2, data=[67, 0]),
   midi.NoteOnEvent(tick=5660, channel=2, data=[71, 60]),
   midi.NoteOnEvent(tick=60, channel=2, data=[71, 0]),
   midi.NoteOnEvent(tick=0, channel=2, data=[74, 60]),
   midi.NoteOnEvent(tick=60, channel=2, data=[74, 0]),
   midi.NoteOnEvent(tick=0, channel=2, data=[72, 60]),
   midi.NoteOnEvent(tick=60, channel=2, data=[72, 0]),
   midi.NoteOnEvent(tick=0, channel=2, data=[71, 60]),
   midi.NoteOnEvent(tick=60, channel=2, data=[71, 0]),
   midi.NoteOnEvent(tick=0, channel=2, data=[69, 60]),
   midi.NoteOnEvent(tick=60, channel=2, data=[69, 0]),
   midi.NoteOnEvent(tick=0, channel=2, data=[67, 60]),
   midi.NoteOnEvent(tick=60, channel=2, data=[67, 0]),
   midi.NoteOnEvent(tick=0, channel=2, data=[66, 60]),
   midi.NoteOnEvent(tick=60, channel=2, data=[66, 0]),
   midi.NoteOnEvent(tick=0, channel=2, data=[67, 60]),
   midi.NoteOnEvent(tick=58, channel=2, data=[67, 0]),
   midi.NoteOnEvent(tick=2, channel=2, data=[71, 60]),
   midi.NoteOnEvent(tick=60, channel=2, data=[71, 0]),
   midi.NoteOnEvent(tick=0, channel=2, data=[74, 60]),
   midi.NoteOnEvent(tick=60, channel=2, data=[74, 0]),
   midi.NoteOnEvent(tick=0, channel=2, data=[72, 60]),
   midi.NoteOnEvent(tick=60, channel=2, data=[72, 0]),
   midi.NoteOnEvent(tick=0, channel=2, data=[71, 60]),
   midi.NoteOnEvent(tick=60, channel=2, data=[71, 0]),
   midi.NoteOnEvent(tick=0, channel=2, data=[69, 60]),
   midi.NoteOnEvent(tick=60, channel=2, data=[69, 0]),
   midi.NoteOnEvent(tick=0, channel=2, data=[67, 60]),
   midi.NoteOnEvent(tick=60, channel=2, data=[67, 0]),
   midi.NoteOnEvent(tick=0, channel=2, data=[66, 60]),
   midi.NoteOnEvent(tick=60, channel=2, data=[66, 0]),
   midi.NoteOnEvent(tick=0, channel=2, data=[67, 60]),
   midi.NoteOnEvent(tick=58, channel=2, data=[67, 0]),
   midi.NoteOnEvent(tick=2, channel=2, data=[66, 60]),
   midi.NoteOnEvent(tick=0, channel=2, data=[69, 60]),
   midi.NoteOnEvent(tick=210, channel=2, data=[69, 0]),
   midi.NoteOnEvent(tick=0, channel=2, data=[66, 0]),
   midi.NoteOnEvent(tick=30, channel=2, data=[67, 60]),
   midi.NoteOnEvent(tick=0, channel=2, data=[71, 60]),
   midi.NoteOnEvent(tick=210, channel=2, data=[71, 0]),
   midi.NoteOnEvent(tick=0, channel=2, data=[67, 0]),
   midi.NoteOnEvent(tick=30, channel=2, data=[69, 60]),
   midi.NoteOnEvent(tick=0, channel=2, data=[72, 60]),
   midi.NoteOnEvent(tick=210, channel=2, data=[72, 0]),
   midi.NoteOnEvent(tick=0, channel=2, data=[69, 0]),
   midi.NoteOnEvent(tick=30, channel=2, data=[66, 60]),
   midi.NoteOnEvent(tick=0, channel=2, data=[69, 60]),
   midi.NoteOnEvent(tick=210, channel=2, data=[69, 0]),
   midi.NoteOnEvent(tick=0, channel=2, data=[66, 0]),
   midi.NoteOnEvent(tick=30, channel=2, data=[67, 60]),
   midi.NoteOnEvent(tick=100, channel=2, data=[67, 0]),
   midi.NoteOnEvent(tick=2780, channel=2, data=[71, 92]),
   midi.NoteOnEvent(tick=0, channel=2, data=[80, 92]),
   midi.NoteOnEvent(tick=100, channel=2, data=[80, 0]),
   midi.NoteOnEvent(tick=0, channel=2, data=[71, 0]),
   midi.NoteOnEvent(tick=20, channel=2, data=[71, 92]),
   midi.NoteOnEvent(tick=0, channel=2, data=[80, 92]),
   midi.NoteOnEvent(tick=210, channel=2, data=[80, 0]),
   midi.NoteOnEvent(tick=0, channel=2, data=[71, 0]),
   midi.NoteOnEvent(tick=30, channel=2, data=[72, 92]),
   midi.NoteOnEvent(tick=0, channel=2, data=[81, 92]),
   midi.NoteOnEvent(tick=100, channel=2, data=[81, 0]),
   midi.NoteOnEvent(tick=0, channel=2, data=[72, 0]),
   midi.NoteOnEvent(tick=20, channel=2, data=[71, 92]),
   midi.NoteOnEvent(tick=0, channel=2, data=[80, 92]),
   midi.NoteOnEvent(tick=100, channel=2, data=[80, 0]),
   midi.NoteOnEvent(tick=0, channel=2, data=[71, 0]),
   midi.NoteOnEvent(tick=20, channel=2, data=[72, 92]),
   midi.NoteOnEvent(tick=0, channel=2, data=[81, 92]),
   midi.NoteOnEvent(tick=100, channel=2, data=[81, 0]),
   midi.NoteOnEvent(tick=0, channel=2, data=[72, 0]),
   midi.NoteOnEvent(tick=20, channel=2, data=[74, 92]),
   midi.NoteOnEvent(tick=0, channel=2, data=[83, 92]),
   midi.NoteOnEvent(tick=100, channel=2, data=[83, 0]),
   midi.NoteOnEvent(tick=0, channel=2, data=[74, 0]),
   midi.NoteOnEvent(tick=20, channel=2, data=[72, 92]),
   midi.NoteOnEvent(tick=0, channel=2, data=[81, 92]),
   midi.NoteOnEvent(tick=100, channel=2, data=[81, 0]),
   midi.NoteOnEvent(tick=0, channel=2, data=[72, 0]),
   midi.NoteOnEvent(tick=20, channel=2, data=[71, 92]),
   midi.NoteOnEvent(tick=0, channel=2, data=[80, 92]),
   midi.NoteOnEvent(tick=100, channel=2, data=[80, 0]),
   midi.NoteOnEvent(tick=0, channel=2, data=[71, 0]),
   midi.NoteOnEvent(tick=20, channel=2, data=[71, 92]),
   midi.NoteOnEvent(tick=0, channel=2, data=[80, 92]),
   midi.NoteOnEvent(tick=210, channel=2, data=[80, 0]),
   midi.NoteOnEvent(tick=0, channel=2, data=[71, 0]),
   midi.NoteOnEvent(tick=30, channel=2, data=[72, 92]),
   midi.NoteOnEvent(tick=0, channel=2, data=[81, 92]),
   midi.NoteOnEvent(tick=100, channel=2, data=[81, 0]),
   midi.NoteOnEvent(tick=0, channel=2, data=[72, 0]),
   midi.NoteOnEvent(tick=20, channel=2, data=[71, 92]),
   midi.NoteOnEvent(tick=0, channel=2, data=[80, 92]),
   midi.NoteOnEvent(tick=100, channel=2, data=[80, 0]),
   midi.NoteOnEvent(tick=0, channel=2, data=[71, 0]),
   midi.NoteOnEvent(tick=20, channel=2, data=[72, 92]),
   midi.NoteOnEvent(tick=0, channel=2, data=[81, 92]),
   midi.NoteOnEvent(tick=100, channel=2, data=[81, 0]),
   midi.NoteOnEvent(tick=0, channel=2, data=[72, 0]),
   midi.NoteOnEvent(tick=20, channel=2, data=[74, 92]),
   midi.NoteOnEvent(tick=0, channel=2, data=[83, 92]),
   midi.NoteOnEvent(tick=100, channel=2, data=[83, 0]),
   midi.NoteOnEvent(tick=0, channel=2, data=[74, 0]),
   midi.NoteOnEvent(tick=20, channel=2, data=[72, 92]),
   midi.NoteOnEvent(tick=0, channel=2, data=[81, 92]),
   midi.NoteOnEvent(tick=100, channel=2, data=[81, 0]),
   midi.NoteOnEvent(tick=0, channel=2, data=[72, 0]),
   midi.NoteOnEvent(tick=20, channel=2, data=[71, 92]),
   midi.NoteOnEvent(tick=0, channel=2, data=[80, 92]),
   midi.NoteOnEvent(tick=100, channel=2, data=[80, 0]),
   midi.NoteOnEvent(tick=0, channel=2, data=[71, 0]),
   midi.NoteOnEvent(tick=3740, channel=2, data=[69, 92]),
   midi.NoteOnEvent(tick=0, channel=2, data=[81, 92]),
   midi.NoteOnEvent(tick=100, channel=2, data=[81, 0]),
   midi.NoteOnEvent(tick=0, channel=2, data=[69, 0]),
   midi.NoteOnEvent(tick=20, channel=2, data=[69, 92]),
   midi.NoteOnEvent(tick=0, channel=2, data=[81, 92]),
   midi.NoteOnEvent(tick=210, channel=2, data=[81, 0]),
   midi.NoteOnEvent(tick=0, channel=2, data=[69, 0]),
   midi.NoteOnEvent(tick=30, channel=2, data=[69, 92]),
   midi.NoteOnEvent(tick=0, channel=2, data=[81, 92]),
   midi.NoteOnEvent(tick=100, channel=2, data=[81, 0]),
   midi.NoteOnEvent(tick=0, channel=2, data=[69, 0]),
   midi.NoteOnEvent(tick=20, channel=2, data=[69, 92]),
   midi.NoteOnEvent(tick=0, channel=2, data=[81, 92]),
   midi.NoteOnEvent(tick=100, channel=2, data=[81, 0]),
   midi.NoteOnEvent(tick=0, channel=2, data=[69, 0]),
   midi.NoteOnEvent(tick=20, channel=2, data=[69, 92]),
   midi.NoteOnEvent(tick=0, channel=2, data=[81, 92]),
   midi.NoteOnEvent(tick=100, channel=2, data=[81, 0]),
   midi.NoteOnEvent(tick=0, channel=2, data=[69, 0]),
   midi.NoteOnEvent(tick=20, channel=2, data=[69, 92]),
   midi.NoteOnEvent(tick=0, channel=2, data=[81, 92]),
   midi.NoteOnEvent(tick=100, channel=2, data=[81, 0]),
   midi.NoteOnEvent(tick=0, channel=2, data=[69, 0]),
   midi.NoteOnEvent(tick=20, channel=2, data=[69, 92]),
   midi.NoteOnEvent(tick=0, channel=2, data=[81, 92]),
   midi.NoteOnEvent(tick=100, channel=2, data=[81, 0]),
   midi.NoteOnEvent(tick=0, channel=2, data=[69, 0]),
   midi.NoteOnEvent(tick=20, channel=2, data=[69, 92]),
   midi.NoteOnEvent(tick=0, channel=2, data=[81, 92]),
   midi.NoteOnEvent(tick=100, channel=2, data=[81, 0]),
   midi.NoteOnEvent(tick=0, channel=2, data=[69, 0]),
   midi.NoteOnEvent(tick=2780, channel=2, data=[78, 92]),
   midi.NoteOnEvent(tick=0, channel=2, data=[81, 92]),
   midi.NoteOnEvent(tick=100, channel=2, data=[81, 0]),
   midi.NoteOnEvent(tick=0, channel=2, data=[78, 0]),
   midi.NoteOnEvent(tick=20, channel=2, data=[78, 92]),
   midi.NoteOnEvent(tick=0, channel=2, data=[81, 92]),
   midi.NoteOnEvent(tick=210, channel=2, data=[81, 0]),
   midi.NoteOnEvent(tick=0, channel=2, data=[78, 0]),
   midi.NoteOnEvent(tick=30, channel=2, data=[79, 92]),
   midi.NoteOnEvent(tick=0, channel=2, data=[82, 92]),
   midi.NoteOnEvent(tick=100, channel=2, data=[82, 0]),
   midi.NoteOnEvent(tick=0, channel=2, data=[79, 0]),
   midi.NoteOnEvent(tick=20, channel=2, data=[78, 92]),
   midi.NoteOnEvent(tick=0, channel=2, data=[81, 92]),
   midi.NoteOnEvent(tick=100, channel=2, data=[81, 0]),
   midi.NoteOnEvent(tick=0, channel=2, data=[78, 0]),
   midi.NoteOnEvent(tick=20, channel=2, data=[79, 92]),
   midi.NoteOnEvent(tick=0, channel=2, data=[82, 92]),
   midi.NoteOnEvent(tick=100, channel=2, data=[82, 0]),
   midi.NoteOnEvent(tick=0, channel=2, data=[79, 0]),
   midi.NoteOnEvent(tick=20, channel=2, data=[78, 92]),
   midi.NoteOnEvent(tick=0, channel=2, data=[81, 92]),
   midi.NoteOnEvent(tick=100, channel=2, data=[81, 0]),
   midi.NoteOnEvent(tick=0, channel=2, data=[78, 0]),
   midi.NoteOnEvent(tick=20, channel=2, data=[79, 92]),
   midi.NoteOnEvent(tick=0, channel=2, data=[82, 92]),
   midi.NoteOnEvent(tick=100, channel=2, data=[82, 0]),
   midi.NoteOnEvent(tick=0, channel=2, data=[79, 0]),
   midi.NoteOnEvent(tick=20, channel=2, data=[78, 92]),
   midi.NoteOnEvent(tick=0, channel=2, data=[81, 92]),
   midi.NoteOnEvent(tick=100, channel=2, data=[81, 0]),
   midi.NoteOnEvent(tick=0, channel=2, data=[78, 0]),
   midi.NoteOnEvent(tick=3740, channel=2, data=[71, 92]),
   midi.NoteOnEvent(tick=0, channel=2, data=[74, 92]),
   midi.NoteOnEvent(tick=100, channel=2, data=[74, 0]),
   midi.NoteOnEvent(tick=0, channel=2, data=[71, 0]),
   midi.NoteOnEvent(tick=20, channel=2, data=[71, 92]),
   midi.NoteOnEvent(tick=0, channel=2, data=[74, 92]),
   midi.NoteOnEvent(tick=210, channel=2, data=[74, 0]),
   midi.NoteOnEvent(tick=0, channel=2, data=[71, 0]),
   midi.NoteOnEvent(tick=30, channel=2, data=[72, 92]),
   midi.NoteOnEvent(tick=0, channel=2, data=[75, 92]),
   midi.NoteOnEvent(tick=100, channel=2, data=[75, 0]),
   midi.NoteOnEvent(tick=0, channel=2, data=[72, 0]),
   midi.NoteOnEvent(tick=20, channel=2, data=[71, 92]),
   midi.NoteOnEvent(tick=0, channel=2, data=[74, 92]),
   midi.NoteOnEvent(tick=100, channel=2, data=[74, 0]),
   midi.NoteOnEvent(tick=0, channel=2, data=[71, 0]),
   midi.NoteOnEvent(tick=20, channel=2, data=[72, 92]),
   midi.NoteOnEvent(tick=0, channel=2, data=[75, 92]),
   midi.NoteOnEvent(tick=100, channel=2, data=[75, 0]),
   midi.NoteOnEvent(tick=0, channel=2, data=[72, 0]),
   midi.NoteOnEvent(tick=20, channel=2, data=[71, 92]),
   midi.NoteOnEvent(tick=0, channel=2, data=[74, 92]),
   midi.NoteOnEvent(tick=100, channel=2, data=[74, 0]),
   midi.NoteOnEvent(tick=0, channel=2, data=[71, 0]),
   midi.NoteOnEvent(tick=20, channel=2, data=[72, 92]),
   midi.NoteOnEvent(tick=0, channel=2, data=[75, 92]),
   midi.NoteOnEvent(tick=100, channel=2, data=[75, 0]),
   midi.NoteOnEvent(tick=0, channel=2, data=[72, 0]),
   midi.NoteOnEvent(tick=20, channel=2, data=[71, 92]),
   midi.NoteOnEvent(tick=0, channel=2, data=[74, 92]),
   midi.NoteOnEvent(tick=100, channel=2, data=[74, 0]),
   midi.NoteOnEvent(tick=0, channel=2, data=[71, 0]),
   midi.NoteOnEvent(tick=2780, channel=2, data=[76, 92]),
   midi.NoteOnEvent(tick=0, channel=2, data=[79, 92]),
   midi.NoteOnEvent(tick=100, channel=2, data=[79, 0]),
   midi.NoteOnEvent(tick=0, channel=2, data=[76, 0]),
   midi.NoteOnEvent(tick=20, channel=2, data=[76, 92]),
   midi.NoteOnEvent(tick=0, channel=2, data=[79, 92]),
   midi.NoteOnEvent(tick=210, channel=2, data=[79, 0]),
   midi.NoteOnEvent(tick=0, channel=2, data=[76, 0]),
   midi.NoteOnEvent(tick=30, channel=2, data=[77, 92]),
   midi.NoteOnEvent(tick=0, channel=2, data=[80, 92]),
   midi.NoteOnEvent(tick=100, channel=2, data=[80, 0]),
   midi.NoteOnEvent(tick=0, channel=2, data=[77, 0]),
   midi.NoteOnEvent(tick=20, channel=2, data=[76, 92]),
   midi.NoteOnEvent(tick=0, channel=2, data=[79, 92]),
   midi.NoteOnEvent(tick=100, channel=2, data=[79, 0]),
   midi.NoteOnEvent(tick=0, channel=2, data=[76, 0]),
   midi.NoteOnEvent(tick=20, channel=2, data=[77, 92]),
   midi.NoteOnEvent(tick=0, channel=2, data=[80, 92]),
   midi.NoteOnEvent(tick=100, channel=2, data=[80, 0]),
   midi.NoteOnEvent(tick=0, channel=2, data=[77, 0]),
   midi.NoteOnEvent(tick=20, channel=2, data=[76, 92]),
   midi.NoteOnEvent(tick=0, channel=2, data=[79, 92]),
   midi.NoteOnEvent(tick=100, channel=2, data=[79, 0]),
   midi.NoteOnEvent(tick=0, channel=2, data=[76, 0]),
   midi.NoteOnEvent(tick=20, channel=2, data=[77, 92]),
   midi.NoteOnEvent(tick=0, channel=2, data=[80, 92]),
   midi.NoteOnEvent(tick=100, channel=2, data=[80, 0]),
   midi.NoteOnEvent(tick=0, channel=2, data=[77, 0]),
   midi.NoteOnEvent(tick=20, channel=2, data=[76, 92]),
   midi.NoteOnEvent(tick=0, channel=2, data=[79, 92]),
   midi.NoteOnEvent(tick=100, channel=2, data=[79, 0]),
   midi.NoteOnEvent(tick=0, channel=2, data=[76, 0]),
   midi.NoteOnEvent(tick=20, channel=2, data=[72, 60]),
   midi.NoteOnEvent(tick=210, channel=2, data=[72, 0]),
   midi.NoteOnEvent(tick=30, channel=2, data=[72, 60]),
   midi.NoteOnEvent(tick=220, channel=2, data=[72, 0]),
   midi.NoteOnEvent(tick=20, channel=2, data=[72, 60]),
   midi.NoteOnEvent(tick=100, channel=2, data=[72, 0]),
   midi.NoteOnEvent(tick=20, channel=2, data=[72, 60]),
   midi.NoteOnEvent(tick=100, channel=2, data=[72, 0]),
   midi.NoteOnEvent(tick=20, channel=2, data=[72, 60]),
   midi.NoteOnEvent(tick=120, channel=2, data=[74, 60]),
   midi.NoteOnEvent(tick=100, channel=2, data=[74, 0]),
   midi.NoteOnEvent(tick=0, channel=2, data=[72, 0]),
   midi.NoteOnEvent(tick=20, channel=2, data=[72, 60]),
   midi.NoteOnEvent(tick=0, channel=2, data=[74, 60]),
   midi.NoteOnEvent(tick=210, channel=2, data=[74, 0]),
   midi.NoteOnEvent(tick=0, channel=2, data=[72, 0]),
   midi.NoteOnEvent(tick=30, channel=2, data=[72, 60]),
   midi.NoteOnEvent(tick=0, channel=2, data=[74, 60]),
   midi.NoteOnEvent(tick=120, channel=2, data=[72, 0]),
   midi.NoteOnEvent(tick=0, channel=2, data=[70, 60]),
   midi.NoteOnEvent(tick=100, channel=2, data=[70, 0]),
   midi.NoteOnEvent(tick=0, channel=2, data=[74, 0]),
   midi.NoteOnEvent(tick=20, channel=2, data=[70, 60]),
   midi.NoteOnEvent(tick=0, channel=2, data=[74, 60]),
   midi.NoteOnEvent(tick=100, channel=2, data=[74, 0]),
   midi.NoteOnEvent(tick=0, channel=2, data=[70, 0]),
   midi.NoteOnEvent(tick=20, channel=2, data=[70, 60]),
   midi.NoteOnEvent(tick=0, channel=2, data=[74, 60]),
   midi.NoteOnEvent(tick=100, channel=2, data=[74, 0]),
   midi.NoteOnEvent(tick=0, channel=2, data=[70, 0]),
   midi.NoteOnEvent(tick=20, channel=2, data=[70, 60]),
   midi.NoteOnEvent(tick=0, channel=2, data=[74, 60]),
   midi.NoteOnEvent(tick=120, channel=2, data=[74, 0]),
   midi.NoteOnEvent(tick=0, channel=2, data=[72, 60]),
   midi.NoteOnEvent(tick=100, channel=2, data=[72, 0]),
   midi.NoteOnEvent(tick=0, channel=2, data=[70, 0]),
   midi.NoteOnEvent(tick=20, channel=2, data=[70, 60]),
   midi.NoteOnEvent(tick=0, channel=2, data=[72, 60]),
   midi.NoteOnEvent(tick=210, channel=2, data=[72, 0]),
   midi.NoteOnEvent(tick=0, channel=2, data=[70, 0]),
   midi.NoteOnEvent(tick=30, channel=2, data=[70, 60]),
   midi.NoteOnEvent(tick=0, channel=2, data=[72, 60]),
   midi.NoteOnEvent(tick=120, channel=2, data=[70, 0]),
   midi.NoteOnEvent(tick=0, channel=2, data=[69, 60]),
   midi.NoteOnEvent(tick=100, channel=2, data=[69, 0]),
   midi.NoteOnEvent(tick=0, channel=2, data=[72, 0]),
   midi.NoteOnEvent(tick=20, channel=2, data=[69, 60]),
   midi.NoteOnEvent(tick=0, channel=2, data=[72, 60]),
   midi.NoteOnEvent(tick=100, channel=2, data=[72, 0]),
   midi.NoteOnEvent(tick=0, channel=2, data=[69, 0]),
   midi.NoteOnEvent(tick=20, channel=2, data=[69, 60]),
   midi.NoteOnEvent(tick=0, channel=2, data=[72, 60]),
   midi.NoteOnEvent(tick=100, channel=2, data=[72, 0]),
   midi.NoteOnEvent(tick=0, channel=2, data=[69, 0]),
   midi.NoteOnEvent(tick=20, channel=2, data=[69, 60]),
   midi.NoteOnEvent(tick=0, channel=2, data=[72, 60]),
   midi.NoteOnEvent(tick=120, channel=2, data=[72, 0]),
   midi.NoteOnEvent(tick=0, channel=2, data=[70, 60]),
   midi.NoteOnEvent(tick=100, channel=2, data=[70, 0]),
   midi.NoteOnEvent(tick=0, channel=2, data=[69, 0]),
   midi.NoteOnEvent(tick=20, channel=2, data=[69, 60]),
   midi.NoteOnEvent(tick=0, channel=2, data=[70, 60]),
   midi.NoteOnEvent(tick=210, channel=2, data=[70, 0]),
   midi.NoteOnEvent(tick=0, channel=2, data=[69, 0]),
   midi.NoteOnEvent(tick=30, channel=2, data=[69, 60]),
   midi.NoteOnEvent(tick=0, channel=2, data=[70, 60]),
   midi.NoteOnEvent(tick=120, channel=2, data=[69, 0]),
   midi.NoteOnEvent(tick=0, channel=2, data=[67, 60]),
   midi.NoteOnEvent(tick=100, channel=2, data=[67, 0]),
   midi.NoteOnEvent(tick=0, channel=2, data=[70, 0]),
   midi.NoteOnEvent(tick=20, channel=2, data=[67, 60]),
   midi.NoteOnEvent(tick=0, channel=2, data=[70, 60]),
   midi.NoteOnEvent(tick=100, channel=2, data=[70, 0]),
   midi.NoteOnEvent(tick=0, channel=2, data=[67, 0]),
   midi.NoteOnEvent(tick=20, channel=2, data=[67, 60]),
   midi.NoteOnEvent(tick=0, channel=2, data=[70, 60]),
   midi.NoteOnEvent(tick=100, channel=2, data=[70, 0]),
   midi.NoteOnEvent(tick=0, channel=2, data=[67, 0]),
   midi.NoteOnEvent(tick=20, channel=2, data=[67, 60]),
   midi.NoteOnEvent(tick=0, channel=2, data=[70, 60]),
   midi.NoteOnEvent(tick=100, channel=2, data=[70, 0]),
   midi.NoteOnEvent(tick=0, channel=2, data=[67, 0]),
   midi.NoteOnEvent(tick=20, channel=2, data=[65, 60]),
   midi.NoteOnEvent(tick=0, channel=2, data=[69, 60]),
   midi.NoteOnEvent(tick=60, channel=2, data=[69, 0]),
   midi.NoteOnEvent(tick=0, channel=2, data=[72, 60]),
   midi.NoteOnEvent(tick=40, channel=2, data=[65, 0]),
   midi.NoteOnEvent(tick=20, channel=2, data=[72, 0]),
   midi.NoteOnEvent(tick=0, channel=2, data=[70, 60]),
   midi.NoteOnEvent(tick=60, channel=2, data=[70, 0]),
   midi.NoteOnEvent(tick=0, channel=2, data=[69, 60]),
   midi.NoteOnEvent(tick=60, channel=2, data=[69, 0]),
   midi.NoteOnEvent(tick=0, channel=2, data=[67, 60]),
   midi.NoteOnEvent(tick=60, channel=2, data=[67, 0]),
   midi.NoteOnEvent(tick=0, channel=2, data=[65, 60]),
   midi.NoteOnEvent(tick=60, channel=2, data=[65, 0]),
   midi.NoteOnEvent(tick=0, channel=2, data=[64, 60]),
   midi.NoteOnEvent(tick=60, channel=2, data=[64, 0]),
   midi.NoteOnEvent(tick=0, channel=2, data=[65, 60]),
   midi.NoteOnEvent(tick=58, channel=2, data=[65, 0]),
   midi.NoteOnEvent(tick=2, channel=2, data=[69, 60]),
   midi.NoteOnEvent(tick=60, channel=2, data=[69, 0]),
   midi.NoteOnEvent(tick=0, channel=2, data=[72, 60]),
   midi.NoteOnEvent(tick=60, channel=2, data=[72, 0]),
   midi.NoteOnEvent(tick=0, channel=2, data=[70, 60]),
   midi.NoteOnEvent(tick=60, channel=2, data=[70, 0]),
   midi.NoteOnEvent(tick=0, channel=2, data=[69, 60]),
   midi.NoteOnEvent(tick=60, channel=2, data=[69, 0]),
   midi.NoteOnEvent(tick=0, channel=2, data=[67, 60]),
   midi.NoteOnEvent(tick=60, channel=2, data=[67, 0]),
   midi.NoteOnEvent(tick=0, channel=2, data=[65, 60]),
   midi.NoteOnEvent(tick=60, channel=2, data=[65, 0]),
   midi.NoteOnEvent(tick=0, channel=2, data=[64, 60]),
   midi.NoteOnEvent(tick=60, channel=2, data=[64, 0]),
   midi.NoteOnEvent(tick=0, channel=2, data=[65, 60]),
   midi.NoteOnEvent(tick=58, channel=2, data=[65, 0]),
   midi.NoteOnEvent(tick=1922, channel=2, data=[72, 60]),
   midi.NoteOnEvent(tick=60, channel=2, data=[72, 0]),
   midi.NoteOnEvent(tick=0, channel=2, data=[74, 60]),
   midi.NoteOnEvent(tick=60, channel=2, data=[74, 0]),
   midi.NoteOnEvent(tick=0, channel=2, data=[72, 60]),
   midi.NoteOnEvent(tick=60, channel=2, data=[72, 0]),
   midi.NoteOnEvent(tick=0, channel=2, data=[74, 60]),
   midi.NoteOnEvent(tick=60, channel=2, data=[74, 0]),
   midi.NoteOnEvent(tick=0, channel=2, data=[72, 60]),
   midi.NoteOnEvent(tick=60, channel=2, data=[72, 0]),
   midi.NoteOnEvent(tick=0, channel=2, data=[74, 60]),
   midi.NoteOnEvent(tick=60, channel=2, data=[74, 0]),
   midi.NoteOnEvent(tick=0, channel=2, data=[72, 60]),
   midi.NoteOnEvent(tick=60, channel=2, data=[72, 0]),
   midi.NoteOnEvent(tick=0, channel=2, data=[74, 60]),
   midi.NoteOnEvent(tick=58, channel=2, data=[74, 0]),
   midi.NoteOnEvent(tick=2, channel=2, data=[72, 60]),
   midi.NoteOnEvent(tick=60, channel=2, data=[72, 0]),
   midi.NoteOnEvent(tick=0, channel=2, data=[74, 60]),
   midi.NoteOnEvent(tick=60, channel=2, data=[74, 0]),
   midi.NoteOnEvent(tick=0, channel=2, data=[72, 60]),
   midi.NoteOnEvent(tick=60, channel=2, data=[72, 0]),
   midi.NoteOnEvent(tick=0, channel=2, data=[74, 60]),
   midi.NoteOnEvent(tick=60, channel=2, data=[74, 0]),
   midi.NoteOnEvent(tick=0, channel=2, data=[72, 60]),
   midi.NoteOnEvent(tick=60, channel=2, data=[72, 0]),
   midi.NoteOnEvent(tick=0, channel=2, data=[70, 60]),
   midi.NoteOnEvent(tick=60, channel=2, data=[70, 0]),
   midi.NoteOnEvent(tick=0, channel=2, data=[69, 60]),
   midi.NoteOnEvent(tick=60, channel=2, data=[69, 0]),
   midi.NoteOnEvent(tick=0, channel=2, data=[67, 60]),
   midi.NoteOnEvent(tick=58, channel=2, data=[67, 0]),
   midi.NoteOnEvent(tick=2, channel=2, data=[69, 60]),
   midi.NoteOnEvent(tick=60, channel=2, data=[69, 0]),
   midi.NoteOnEvent(tick=0, channel=2, data=[72, 60]),
   midi.NoteOnEvent(tick=60, channel=2, data=[72, 0]),
   midi.NoteOnEvent(tick=0, channel=2, data=[70, 60]),
   midi.NoteOnEvent(tick=60, channel=2, data=[70, 0]),
   midi.NoteOnEvent(tick=0, channel=2, data=[69, 60]),
   midi.NoteOnEvent(tick=60, channel=2, data=[69, 0]),
   midi.NoteOnEvent(tick=0, channel=2, data=[67, 60]),
   midi.NoteOnEvent(tick=60, channel=2, data=[67, 0]),
   midi.NoteOnEvent(tick=0, channel=2, data=[65, 60]),
   midi.NoteOnEvent(tick=60, channel=2, data=[65, 0]),
   midi.NoteOnEvent(tick=0, channel=2, data=[64, 60]),
   midi.NoteOnEvent(tick=60, channel=2, data=[64, 0]),
   midi.NoteOnEvent(tick=0, channel=2, data=[65, 60]),
   midi.NoteOnEvent(tick=58, channel=2, data=[65, 0]),
   midi.NoteOnEvent(tick=2, channel=2, data=[69, 60]),
   midi.NoteOnEvent(tick=60, channel=2, data=[69, 0]),
   midi.NoteOnEvent(tick=0, channel=2, data=[72, 60]),
   midi.NoteOnEvent(tick=60, channel=2, data=[72, 0]),
   midi.NoteOnEvent(tick=0, channel=2, data=[70, 60]),
   midi.NoteOnEvent(tick=60, channel=2, data=[70, 0]),
   midi.NoteOnEvent(tick=0, channel=2, data=[69, 60]),
   midi.NoteOnEvent(tick=60, channel=2, data=[69, 0]),
   midi.NoteOnEvent(tick=0, channel=2, data=[67, 60]),
   midi.NoteOnEvent(tick=60, channel=2, data=[67, 0]),
   midi.NoteOnEvent(tick=0, channel=2, data=[65, 60]),
   midi.NoteOnEvent(tick=60, channel=2, data=[65, 0]),
   midi.NoteOnEvent(tick=0, channel=2, data=[64, 60]),
   midi.NoteOnEvent(tick=60, channel=2, data=[64, 0]),
   midi.NoteOnEvent(tick=0, channel=2, data=[65, 60]),
   midi.NoteOnEvent(tick=58, channel=2, data=[65, 0]),
   midi.NoteOnEvent(tick=962, channel=2, data=[69, 60]),
   midi.NoteOnEvent(tick=60, channel=2, data=[69, 0]),
   midi.NoteOnEvent(tick=0, channel=2, data=[72, 60]),
   midi.NoteOnEvent(tick=60, channel=2, data=[72, 0]),
   midi.NoteOnEvent(tick=0, channel=2, data=[70, 60]),
   midi.NoteOnEvent(tick=60, channel=2, data=[70, 0]),
   midi.NoteOnEvent(tick=0, channel=2, data=[69, 60]),
   midi.NoteOnEvent(tick=60, channel=2, data=[69, 0]),
   midi.NoteOnEvent(tick=0, channel=2, data=[67, 60]),
   midi.NoteOnEvent(tick=60, channel=2, data=[67, 0]),
   midi.NoteOnEvent(tick=0, channel=2, data=[65, 60]),
   midi.NoteOnEvent(tick=60, channel=2, data=[65, 0]),
   midi.NoteOnEvent(tick=0, channel=2, data=[64, 60]),
   midi.NoteOnEvent(tick=60, channel=2, data=[64, 0]),
   midi.NoteOnEvent(tick=0, channel=2, data=[65, 60]),
   midi.NoteOnEvent(tick=58, channel=2, data=[65, 0]),
   midi.NoteOnEvent(tick=2, channel=2, data=[69, 60]),
   midi.NoteOnEvent(tick=60, channel=2, data=[69, 0]),
   midi.NoteOnEvent(tick=0, channel=2, data=[72, 60]),
   midi.NoteOnEvent(tick=60, channel=2, data=[72, 0]),
   midi.NoteOnEvent(tick=0, channel=2, data=[70, 60]),
   midi.NoteOnEvent(tick=60, channel=2, data=[70, 0]),
   midi.NoteOnEvent(tick=0, channel=2, data=[69, 60]),
   midi.NoteOnEvent(tick=60, channel=2, data=[69, 0]),
   midi.NoteOnEvent(tick=0, channel=2, data=[67, 60]),
   midi.NoteOnEvent(tick=60, channel=2, data=[67, 0]),
   midi.NoteOnEvent(tick=0, channel=2, data=[65, 60]),
   midi.NoteOnEvent(tick=60, channel=2, data=[65, 0]),
   midi.NoteOnEvent(tick=0, channel=2, data=[64, 60]),
   midi.NoteOnEvent(tick=60, channel=2, data=[64, 0]),
   midi.NoteOnEvent(tick=0, channel=2, data=[65, 60]),
   midi.NoteOnEvent(tick=58, channel=2, data=[65, 0]),
   midi.NoteOnEvent(tick=2, channel=2, data=[64, 60]),
   midi.NoteOnEvent(tick=0, channel=2, data=[67, 60]),
   midi.NoteOnEvent(tick=240, channel=2, data=[67, 0]),
   midi.NoteOnEvent(tick=0, channel=2, data=[64, 0]),
   midi.NoteOnEvent(tick=0, channel=2, data=[65, 60]),
   midi.NoteOnEvent(tick=0, channel=2, data=[69, 60]),
   midi.NoteOnEvent(tick=240, channel=2, data=[69, 0]),
   midi.NoteOnEvent(tick=0, channel=2, data=[65, 0]),
   midi.NoteOnEvent(tick=0, channel=2, data=[67, 60]),
   midi.NoteOnEvent(tick=0, channel=2, data=[70, 60]),
   midi.NoteOnEvent(tick=240, channel=2, data=[70, 0]),
   midi.NoteOnEvent(tick=0, channel=2, data=[67, 0]),
   midi.NoteOnEvent(tick=0, channel=2, data=[64, 60]),
   midi.NoteOnEvent(tick=0, channel=2, data=[67, 60]),
   midi.NoteOnEvent(tick=210, channel=2, data=[67, 0]),
   midi.NoteOnEvent(tick=0, channel=2, data=[64, 0]),
   midi.NoteOnEvent(tick=30, channel=2, data=[65, 60]),
   midi.NoteOnEvent(tick=100, channel=2, data=[65, 0]),
   midi.NoteOnEvent(tick=20, channel=2, data=[72, 92]),
   midi.NoteOnEvent(tick=0, channel=2, data=[81, 92]),
   midi.NoteOnEvent(tick=210, channel=2, data=[81, 0]),
   midi.NoteOnEvent(tick=0, channel=2, data=[72, 0]),
   midi.NoteOnEvent(tick=30, channel=2, data=[72, 92]),
   midi.NoteOnEvent(tick=0, channel=2, data=[80, 92]),
   midi.NoteOnEvent(tick=100, channel=2, data=[80, 0]),
   midi.NoteOnEvent(tick=0, channel=2, data=[72, 0]),
   midi.NoteOnEvent(tick=20, channel=2, data=[72, 92]),
   midi.NoteOnEvent(tick=0, channel=2, data=[81, 92]),
   midi.NoteOnEvent(tick=100, channel=2, data=[81, 0]),
   midi.NoteOnEvent(tick=0, channel=2, data=[72, 0]),
   midi.NoteOnEvent(tick=20, channel=2, data=[72, 92]),
   midi.NoteOnEvent(tick=0, channel=2, data=[80, 92]),
   midi.NoteOnEvent(tick=100, channel=2, data=[80, 0]),
   midi.NoteOnEvent(tick=0, channel=2, data=[72, 0]),
   midi.NoteOnEvent(tick=20, channel=2, data=[72, 92]),
   midi.NoteOnEvent(tick=0, channel=2, data=[81, 92]),
   midi.NoteOnEvent(tick=100, channel=2, data=[81, 0]),
   midi.NoteOnEvent(tick=0, channel=2, data=[72, 0]),
   midi.NoteOnEvent(tick=20, channel=2, data=[69, 92]),
   midi.NoteOnEvent(tick=0, channel=2, data=[76, 92]),
   midi.NoteOnEvent(tick=100, channel=2, data=[76, 0]),
   midi.NoteOnEvent(tick=0, channel=2, data=[69, 0]),
   midi.NoteOnEvent(tick=20, channel=2, data=[69, 92]),
   midi.NoteOnEvent(tick=0, channel=2, data=[77, 92]),
   midi.NoteOnEvent(tick=100, channel=2, data=[77, 0]),
   midi.NoteOnEvent(tick=0, channel=2, data=[69, 0]),
   midi.NoteOnEvent(tick=20, channel=2, data=[69, 92]),
   midi.NoteOnEvent(tick=0, channel=2, data=[77, 92]),
   midi.NoteOnEvent(tick=210, channel=2, data=[77, 0]),
   midi.NoteOnEvent(tick=0, channel=2, data=[69, 0]),
   midi.NoteOnEvent(tick=30, channel=2, data=[69, 92]),
   midi.NoteOnEvent(tick=0, channel=2, data=[76, 92]),
   midi.NoteOnEvent(tick=100, channel=2, data=[76, 0]),
   midi.NoteOnEvent(tick=0, channel=2, data=[69, 0]),
   midi.NoteOnEvent(tick=20, channel=2, data=[69, 92]),
   midi.NoteOnEvent(tick=0, channel=2, data=[77, 92]),
   midi.NoteOnEvent(tick=100, channel=2, data=[77, 0]),
   midi.NoteOnEvent(tick=0, channel=2, data=[69, 0]),
   midi.NoteOnEvent(tick=20, channel=2, data=[69, 92]),
   midi.NoteOnEvent(tick=0, channel=2, data=[76, 92]),
   midi.NoteOnEvent(tick=100, channel=2, data=[76, 0]),
   midi.NoteOnEvent(tick=0, channel=2, data=[69, 0]),
   midi.NoteOnEvent(tick=20, channel=2, data=[69, 92]),
   midi.NoteOnEvent(tick=0, channel=2, data=[77, 92]),
   midi.NoteOnEvent(tick=100, channel=2, data=[77, 0]),
   midi.NoteOnEvent(tick=0, channel=2, data=[69, 0]),
   midi.NoteOnEvent(tick=20, channel=2, data=[67, 92]),
   midi.NoteOnEvent(tick=0, channel=2, data=[74, 92]),
   midi.NoteOnEvent(tick=100, channel=2, data=[74, 0]),
   midi.NoteOnEvent(tick=0, channel=2, data=[67, 0]),
   midi.NoteOnEvent(tick=20, channel=2, data=[67, 92]),
   midi.NoteOnEvent(tick=0, channel=2, data=[75, 92]),
   midi.NoteOnEvent(tick=100, channel=2, data=[75, 0]),
   midi.NoteOnEvent(tick=0, channel=2, data=[67, 0]),
   midi.NoteOnEvent(tick=20, channel=2, data=[67, 92]),
   midi.NoteOnEvent(tick=0, channel=2, data=[75, 92]),
   midi.NoteOnEvent(tick=210, channel=2, data=[75, 0]),
   midi.NoteOnEvent(tick=0, channel=2, data=[67, 0]),
   midi.NoteOnEvent(tick=30, channel=2, data=[67, 92]),
   midi.NoteOnEvent(tick=0, channel=2, data=[74, 92]),
   midi.NoteOnEvent(tick=100, channel=2, data=[74, 0]),
   midi.NoteOnEvent(tick=0, channel=2, data=[67, 0]),
   midi.NoteOnEvent(tick=20, channel=2, data=[67, 92]),
   midi.NoteOnEvent(tick=0, channel=2, data=[75, 92]),
   midi.NoteOnEvent(tick=100, channel=2, data=[75, 0]),
   midi.NoteOnEvent(tick=0, channel=2, data=[67, 0]),
   midi.NoteOnEvent(tick=20, channel=2, data=[67, 92]),
   midi.NoteOnEvent(tick=0, channel=2, data=[74, 92]),
   midi.NoteOnEvent(tick=100, channel=2, data=[74, 0]),
   midi.NoteOnEvent(tick=0, channel=2, data=[67, 0]),
   midi.NoteOnEvent(tick=20, channel=2, data=[67, 92]),
   midi.NoteOnEvent(tick=0, channel=2, data=[75, 92]),
   midi.NoteOnEvent(tick=100, channel=2, data=[75, 0]),
   midi.NoteOnEvent(tick=0, channel=2, data=[67, 0]),
   midi.NoteOnEvent(tick=20, channel=2, data=[63, 92]),
   midi.NoteOnEvent(tick=0, channel=2, data=[71, 92]),
   midi.NoteOnEvent(tick=100, channel=2, data=[71, 0]),
   midi.NoteOnEvent(tick=0, channel=2, data=[63, 0]),
   midi.NoteOnEvent(tick=20, channel=2, data=[63, 92]),
   midi.NoteOnEvent(tick=0, channel=2, data=[72, 92]),
   midi.NoteOnEvent(tick=100, channel=2, data=[72, 0]),
   midi.NoteOnEvent(tick=0, channel=2, data=[63, 0]),
   midi.NoteOnEvent(tick=20, channel=2, data=[63, 92]),
   midi.NoteOnEvent(tick=0, channel=2, data=[71, 92]),
   midi.NoteOnEvent(tick=100, channel=2, data=[71, 0]),
   midi.NoteOnEvent(tick=0, channel=2, data=[63, 0]),
   midi.NoteOnEvent(tick=20, channel=2, data=[63, 92]),
   midi.NoteOnEvent(tick=0, channel=2, data=[72, 92]),
   midi.NoteOnEvent(tick=100, channel=2, data=[72, 0]),
   midi.NoteOnEvent(tick=0, channel=2, data=[63, 0]),
   midi.NoteOnEvent(tick=20, channel=2, data=[67, 92]),
   midi.NoteOnEvent(tick=0, channel=2, data=[72, 92]),
   midi.NoteOnEvent(tick=100, channel=2, data=[72, 0]),
   midi.NoteOnEvent(tick=0, channel=2, data=[67, 0]),
   midi.NoteOnEvent(tick=20, channel=2, data=[68, 92]),
   midi.NoteOnEvent(tick=0, channel=2, data=[72, 92]),
   midi.NoteOnEvent(tick=100, channel=2, data=[72, 0]),
   midi.NoteOnEvent(tick=0, channel=2, data=[68, 0]),
   midi.NoteOnEvent(tick=20, channel=2, data=[67, 92]),
   midi.NoteOnEvent(tick=0, channel=2, data=[72, 92]),
   midi.NoteOnEvent(tick=100, channel=2, data=[72, 0]),
   midi.NoteOnEvent(tick=0, channel=2, data=[67, 0]),
   midi.NoteOnEvent(tick=20, channel=2, data=[68, 92]),
   midi.NoteOnEvent(tick=0, channel=2, data=[72, 92]),
   midi.NoteOnEvent(tick=100, channel=2, data=[72, 0]),
   midi.NoteOnEvent(tick=0, channel=2, data=[68, 0]),
   midi.NoteOnEvent(tick=20, channel=2, data=[64, 92]),
   midi.NoteOnEvent(tick=0, channel=2, data=[72, 92]),
   midi.NoteOnEvent(tick=100, channel=2, data=[72, 0]),
   midi.NoteOnEvent(tick=0, channel=2, data=[64, 0]),
   midi.NoteOnEvent(tick=20, channel=2, data=[65, 92]),
   midi.NoteOnEvent(tick=0, channel=2, data=[72, 92]),
   midi.NoteOnEvent(tick=100, channel=2, data=[65, 0]),
   midi.NoteOnEvent(tick=20, channel=2, data=[64, 92]),
   midi.NoteOnEvent(tick=100, channel=2, data=[64, 0]),
   midi.NoteOnEvent(tick=20, channel=2, data=[68, 92]),
   midi.NoteOnEvent(tick=100, channel=2, data=[68, 0]),
   midi.NoteOnEvent(tick=20, channel=2, data=[67, 92]),
   midi.NoteOnEvent(tick=90, channel=2, data=[72, 0]),
   midi.NoteOnEvent(tick=10, channel=2, data=[67, 0]),
   midi.NoteOnEvent(tick=20, channel=2, data=[77, 92]),
   midi.NoteOnEvent(tick=100, channel=2, data=[77, 0]),
   midi.NoteOnEvent(tick=20, channel=2, data=[75, 92]),
   midi.NoteOnEvent(tick=100, channel=2, data=[75, 0]),
   midi.NoteOnEvent(tick=20, channel=2, data=[74, 92]),
   midi.NoteOnEvent(tick=100, channel=2, data=[74, 0]),
   midi.NoteOnEvent(tick=20, channel=2, data=[72, 92]),
   midi.NoteOnEvent(tick=100, channel=2, data=[72, 0]),
   midi.NoteOnEvent(tick=20, channel=2, data=[67, 92]),
   midi.NoteOnEvent(tick=100, channel=2, data=[67, 0]),
   midi.NoteOnEvent(tick=6620, channel=2, data=[76, 92]),
   midi.NoteOnEvent(tick=0, channel=2, data=[79, 92]),
   midi.NoteOnEvent(tick=100, channel=2, data=[79, 0]),
   midi.NoteOnEvent(tick=0, channel=2, data=[76, 0]),
   midi.NoteOnEvent(tick=20, channel=2, data=[76, 92]),
   midi.NoteOnEvent(tick=0, channel=2, data=[79, 92]),
   midi.NoteOnEvent(tick=210, channel=2, data=[79, 0]),
   midi.NoteOnEvent(tick=0, channel=2, data=[76, 0]),
   midi.NoteOnEvent(tick=30, channel=2, data=[77, 92]),
   midi.NoteOnEvent(tick=0, channel=2, data=[81, 92]),
   midi.NoteOnEvent(tick=100, channel=2, data=[81, 0]),
   midi.NoteOnEvent(tick=0, channel=2, data=[77, 0]),
   midi.NoteOnEvent(tick=20, channel=2, data=[76, 92]),
   midi.NoteOnEvent(tick=0, channel=2, data=[79, 92]),
   midi.NoteOnEvent(tick=100, channel=2, data=[79, 0]),
   midi.NoteOnEvent(tick=0, channel=2, data=[76, 0]),
   midi.NoteOnEvent(tick=20, channel=2, data=[77, 92]),
   midi.NoteOnEvent(tick=0, channel=2, data=[81, 92]),
   midi.NoteOnEvent(tick=100, channel=2, data=[81, 0]),
   midi.NoteOnEvent(tick=0, channel=2, data=[77, 0]),
   midi.NoteOnEvent(tick=20, channel=2, data=[76, 92]),
   midi.NoteOnEvent(tick=0, channel=2, data=[79, 92]),
   midi.NoteOnEvent(tick=100, channel=2, data=[79, 0]),
   midi.NoteOnEvent(tick=0, channel=2, data=[76, 0]),
   midi.NoteOnEvent(tick=20, channel=2, data=[77, 92]),
   midi.NoteOnEvent(tick=0, channel=2, data=[81, 92]),
   midi.NoteOnEvent(tick=100, channel=2, data=[81, 0]),
   midi.NoteOnEvent(tick=0, channel=2, data=[77, 0]),
   midi.NoteOnEvent(tick=20, channel=2, data=[76, 92]),
   midi.NoteOnEvent(tick=0, channel=2, data=[79, 92]),
   midi.NoteOnEvent(tick=100, channel=2, data=[79, 0]),
   midi.NoteOnEvent(tick=0, channel=2, data=[76, 0]),
   midi.NoteOnEvent(tick=20, channel=2, data=[76, 92]),
   midi.NoteOnEvent(tick=0, channel=2, data=[79, 92]),
   midi.NoteOnEvent(tick=210, channel=2, data=[79, 0]),
   midi.NoteOnEvent(tick=0, channel=2, data=[76, 0]),
   midi.NoteOnEvent(tick=30, channel=2, data=[77, 92]),
   midi.NoteOnEvent(tick=0, channel=2, data=[81, 92]),
   midi.NoteOnEvent(tick=100, channel=2, data=[81, 0]),
   midi.NoteOnEvent(tick=0, channel=2, data=[77, 0]),
   midi.NoteOnEvent(tick=20, channel=2, data=[76, 92]),
   midi.NoteOnEvent(tick=0, channel=2, data=[79, 92]),
   midi.NoteOnEvent(tick=100, channel=2, data=[79, 0]),
   midi.NoteOnEvent(tick=0, channel=2, data=[76, 0]),
   midi.NoteOnEvent(tick=20, channel=2, data=[77, 92]),
   midi.NoteOnEvent(tick=0, channel=2, data=[81, 92]),
   midi.NoteOnEvent(tick=100, channel=2, data=[81, 0]),
   midi.NoteOnEvent(tick=0, channel=2, data=[77, 0]),
   midi.NoteOnEvent(tick=20, channel=2, data=[76, 92]),
   midi.NoteOnEvent(tick=0, channel=2, data=[79, 92]),
   midi.NoteOnEvent(tick=100, channel=2, data=[79, 0]),
   midi.NoteOnEvent(tick=0, channel=2, data=[76, 0]),
   midi.NoteOnEvent(tick=20, channel=2, data=[77, 92]),
   midi.NoteOnEvent(tick=0, channel=2, data=[81, 92]),
   midi.NoteOnEvent(tick=100, channel=2, data=[81, 0]),
   midi.NoteOnEvent(tick=0, channel=2, data=[77, 0]),
   midi.NoteOnEvent(tick=20, channel=2, data=[76, 92]),
   midi.NoteOnEvent(tick=0, channel=2, data=[79, 92]),
   midi.NoteOnEvent(tick=100, channel=2, data=[79, 0]),
   midi.NoteOnEvent(tick=0, channel=2, data=[76, 0]),
   midi.NoteOnEvent(tick=7700, channel=2, data=[76, 92]),
   midi.NoteOnEvent(tick=0, channel=2, data=[79, 92]),
   midi.NoteOnEvent(tick=210, channel=2, data=[79, 0]),
   midi.NoteOnEvent(tick=0, channel=2, data=[76, 0]),
   midi.NoteOnEvent(tick=30, channel=2, data=[75, 92]),
   midi.NoteOnEvent(tick=0, channel=2, data=[79, 92]),
   midi.NoteOnEvent(tick=100, channel=2, data=[79, 0]),
   midi.NoteOnEvent(tick=0, channel=2, data=[75, 0]),
   midi.NoteOnEvent(tick=20, channel=2, data=[76, 92]),
   midi.NoteOnEvent(tick=0, channel=2, data=[79, 92]),
   midi.NoteOnEvent(tick=100, channel=2, data=[79, 0]),
   midi.NoteOnEvent(tick=0, channel=2, data=[76, 0]),
   midi.NoteOnEvent(tick=20, channel=2, data=[75, 92]),
   midi.NoteOnEvent(tick=0, channel=2, data=[79, 92]),
   midi.NoteOnEvent(tick=100, channel=2, data=[79, 0]),
   midi.NoteOnEvent(tick=0, channel=2, data=[75, 0]),
   midi.NoteOnEvent(tick=20, channel=2, data=[76, 92]),
   midi.NoteOnEvent(tick=0, channel=2, data=[79, 92]),
   midi.NoteOnEvent(tick=100, channel=2, data=[79, 0]),
   midi.NoteOnEvent(tick=0, channel=2, data=[76, 0]),
   midi.NoteOnEvent(tick=20, channel=2, data=[71, 92]),
   midi.NoteOnEvent(tick=0, channel=2, data=[76, 92]),
   midi.NoteOnEvent(tick=100, channel=2, data=[76, 0]),
   midi.NoteOnEvent(tick=0, channel=2, data=[71, 0]),
   midi.NoteOnEvent(tick=20, channel=2, data=[72, 92]),
   midi.NoteOnEvent(tick=0, channel=2, data=[76, 92]),
   midi.NoteOnEvent(tick=100, channel=2, data=[76, 0]),
   midi.NoteOnEvent(tick=0, channel=2, data=[72, 0]),
   midi.NoteOnEvent(tick=20, channel=2, data=[72, 92]),
   midi.NoteOnEvent(tick=0, channel=2, data=[76, 92]),
   midi.NoteOnEvent(tick=210, channel=2, data=[76, 0]),
   midi.NoteOnEvent(tick=0, channel=2, data=[72, 0]),
   midi.NoteOnEvent(tick=30, channel=2, data=[71, 92]),
   midi.NoteOnEvent(tick=0, channel=2, data=[76, 92]),
   midi.NoteOnEvent(tick=100, channel=2, data=[76, 0]),
   midi.NoteOnEvent(tick=0, channel=2, data=[71, 0]),
   midi.NoteOnEvent(tick=20, channel=2, data=[72, 92]),
   midi.NoteOnEvent(tick=0, channel=2, data=[76, 92]),
   midi.NoteOnEvent(tick=100, channel=2, data=[76, 0]),
   midi.NoteOnEvent(tick=0, channel=2, data=[72, 0]),
   midi.NoteOnEvent(tick=20, channel=2, data=[71, 92]),
   midi.NoteOnEvent(tick=0, channel=2, data=[76, 92]),
   midi.NoteOnEvent(tick=100, channel=2, data=[76, 0]),
   midi.NoteOnEvent(tick=0, channel=2, data=[71, 0]),
   midi.NoteOnEvent(tick=20, channel=2, data=[72, 92]),
   midi.NoteOnEvent(tick=0, channel=2, data=[76, 92]),
   midi.NoteOnEvent(tick=100, channel=2, data=[76, 0]),
   midi.NoteOnEvent(tick=0, channel=2, data=[72, 0]),
   midi.NoteOnEvent(tick=20, channel=2, data=[68, 92]),
   midi.NoteOnEvent(tick=0, channel=2, data=[72, 92]),
   midi.NoteOnEvent(tick=100, channel=2, data=[72, 0]),
   midi.NoteOnEvent(tick=0, channel=2, data=[68, 0]),
   midi.NoteOnEvent(tick=20, channel=2, data=[69, 92]),
   midi.NoteOnEvent(tick=0, channel=2, data=[72, 92]),
   midi.NoteOnEvent(tick=100, channel=2, data=[72, 0]),
   midi.NoteOnEvent(tick=0, channel=2, data=[69, 0]),
   midi.NoteOnEvent(tick=20, channel=2, data=[69, 92]),
   midi.NoteOnEvent(tick=0, channel=2, data=[72, 92]),
   midi.NoteOnEvent(tick=210, channel=2, data=[72, 0]),
   midi.NoteOnEvent(tick=0, channel=2, data=[69, 0]),
   midi.NoteOnEvent(tick=30, channel=2, data=[68, 92]),
   midi.NoteOnEvent(tick=0, channel=2, data=[72, 92]),
   midi.NoteOnEvent(tick=100, channel=2, data=[72, 0]),
   midi.NoteOnEvent(tick=0, channel=2, data=[68, 0]),
   midi.NoteOnEvent(tick=20, channel=2, data=[69, 92]),
   midi.NoteOnEvent(tick=0, channel=2, data=[72, 92]),
   midi.NoteOnEvent(tick=100, channel=2, data=[72, 0]),
   midi.NoteOnEvent(tick=0, channel=2, data=[69, 0]),
   midi.NoteOnEvent(tick=20, channel=2, data=[68, 92]),
   midi.NoteOnEvent(tick=0, channel=2, data=[72, 92]),
   midi.NoteOnEvent(tick=100, channel=2, data=[72, 0]),
   midi.NoteOnEvent(tick=0, channel=2, data=[68, 0]),
   midi.NoteOnEvent(tick=20, channel=2, data=[69, 92]),
   midi.NoteOnEvent(tick=0, channel=2, data=[72, 92]),
   midi.NoteOnEvent(tick=100, channel=2, data=[72, 0]),
   midi.NoteOnEvent(tick=0, channel=2, data=[69, 0]),
   midi.NoteOnEvent(tick=20, channel=2, data=[70, 92]),
   midi.NoteOnEvent(tick=0, channel=2, data=[73, 92]),
   midi.NoteOnEvent(tick=100, channel=2, data=[73, 0]),
   midi.NoteOnEvent(tick=0, channel=2, data=[70, 0]),
   midi.NoteOnEvent(tick=20, channel=2, data=[69, 92]),
   midi.NoteOnEvent(tick=0, channel=2, data=[74, 92]),
   midi.NoteOnEvent(tick=100, channel=2, data=[74, 0]),
   midi.NoteOnEvent(tick=0, channel=2, data=[69, 0]),
   midi.NoteOnEvent(tick=20, channel=2, data=[70, 92]),
   midi.NoteOnEvent(tick=0, channel=2, data=[73, 92]),
   midi.NoteOnEvent(tick=100, channel=2, data=[73, 0]),
   midi.NoteOnEvent(tick=0, channel=2, data=[70, 0]),
   midi.NoteOnEvent(tick=20, channel=2, data=[69, 92]),
   midi.NoteOnEvent(tick=0, channel=2, data=[74, 92]),
   midi.NoteOnEvent(tick=100, channel=2, data=[74, 0]),
   midi.NoteOnEvent(tick=20, channel=2, data=[76, 92]),
   midi.NoteOnEvent(tick=100, channel=2, data=[76, 0]),
   midi.NoteOnEvent(tick=20, channel=2, data=[77, 92]),
   midi.NoteOnEvent(tick=100, channel=2, data=[77, 0]),
   midi.NoteOnEvent(tick=0, channel=2, data=[69, 0]),
   midi.NoteOnEvent(tick=20, channel=2, data=[75, 92]),
   midi.NoteOnEvent(tick=0, channel=2, data=[78, 92]),
   midi.NoteOnEvent(tick=100, channel=2, data=[78, 0]),
   midi.NoteOnEvent(tick=0, channel=2, data=[75, 0]),
   midi.NoteOnEvent(tick=20, channel=2, data=[74, 92]),
   midi.NoteOnEvent(tick=0, channel=2, data=[79, 92]),
   midi.NoteOnEvent(tick=100, channel=2, data=[79, 0]),
   midi.NoteOnEvent(tick=0, channel=2, data=[74, 0]),
   midi.NoteOnEvent(tick=20, channel=2, data=[71, 92]),
   midi.NoteOnEvent(tick=0, channel=2, data=[77, 92]),
   midi.NoteOnEvent(tick=100, channel=2, data=[77, 0]),
   midi.NoteOnEvent(tick=0, channel=2, data=[71, 0]),
   midi.NoteOnEvent(tick=20, channel=2, data=[72, 92]),
   midi.NoteOnEvent(tick=0, channel=2, data=[76, 92]),
   midi.NoteOnEvent(tick=450, channel=2, data=[76, 0]),
   midi.NoteOnEvent(tick=30, channel=2, data=[74, 92]),
   midi.NoteOnEvent(tick=210, channel=2, data=[72, 0]),
   midi.NoteOnEvent(tick=30, channel=2, data=[71, 92]),
   midi.NoteOnEvent(tick=210, channel=2, data=[71, 0]),
   midi.NoteOnEvent(tick=0, channel=2, data=[74, 0]),
   midi.NoteOnEvent(tick=30, channel=2, data=[72, 92]),
   midi.NoteOnEvent(tick=100, channel=2, data=[72, 0]),
   midi.NoteOnEvent(tick=20, channel=2, data=[76, 92]),
   midi.NoteOnEvent(tick=0, channel=2, data=[79, 92]),
   midi.NoteOnEvent(tick=210, channel=2, data=[79, 0]),
   midi.NoteOnEvent(tick=0, channel=2, data=[76, 0]),
   midi.NoteOnEvent(tick=30, channel=2, data=[75, 92]),
   midi.NoteOnEvent(tick=0, channel=2, data=[79, 92]),
   midi.NoteOnEvent(tick=100, channel=2, data=[79, 0]),
   midi.NoteOnEvent(tick=0, channel=2, data=[75, 0]),
   midi.NoteOnEvent(tick=20, channel=2, data=[76, 92]),
   midi.NoteOnEvent(tick=0, channel=2, data=[79, 92]),
   midi.NoteOnEvent(tick=100, channel=2, data=[79, 0]),
   midi.NoteOnEvent(tick=0, channel=2, data=[76, 0]),
   midi.NoteOnEvent(tick=20, channel=2, data=[75, 92]),
   midi.NoteOnEvent(tick=0, channel=2, data=[79, 92]),
   midi.NoteOnEvent(tick=100, channel=2, data=[79, 0]),
   midi.NoteOnEvent(tick=0, channel=2, data=[75, 0]),
   midi.NoteOnEvent(tick=20, channel=2, data=[76, 92]),
   midi.NoteOnEvent(tick=0, channel=2, data=[79, 92]),
   midi.NoteOnEvent(tick=100, channel=2, data=[79, 0]),
   midi.NoteOnEvent(tick=0, channel=2, data=[76, 0]),
   midi.NoteOnEvent(tick=20, channel=2, data=[71, 92]),
   midi.NoteOnEvent(tick=0, channel=2, data=[76, 92]),
   midi.NoteOnEvent(tick=100, channel=2, data=[76, 0]),
   midi.NoteOnEvent(tick=0, channel=2, data=[71, 0]),
   midi.NoteOnEvent(tick=20, channel=2, data=[72, 92]),
   midi.NoteOnEvent(tick=0, channel=2, data=[76, 92]),
   midi.NoteOnEvent(tick=100, channel=2, data=[76, 0]),
   midi.NoteOnEvent(tick=0, channel=2, data=[72, 0]),
   midi.NoteOnEvent(tick=20, channel=2, data=[72, 92]),
   midi.NoteOnEvent(tick=0, channel=2, data=[76, 92]),
   midi.NoteOnEvent(tick=210, channel=2, data=[76, 0]),
   midi.NoteOnEvent(tick=0, channel=2, data=[72, 0]),
   midi.NoteOnEvent(tick=30, channel=2, data=[71, 92]),
   midi.NoteOnEvent(tick=0, channel=2, data=[76, 92]),
   midi.NoteOnEvent(tick=100, channel=2, data=[76, 0]),
   midi.NoteOnEvent(tick=0, channel=2, data=[71, 0]),
   midi.NoteOnEvent(tick=20, channel=2, data=[72, 92]),
   midi.NoteOnEvent(tick=0, channel=2, data=[76, 92]),
   midi.NoteOnEvent(tick=100, channel=2, data=[76, 0]),
   midi.NoteOnEvent(tick=0, channel=2, data=[72, 0]),
   midi.NoteOnEvent(tick=20, channel=2, data=[71, 92]),
   midi.NoteOnEvent(tick=0, channel=2, data=[76, 92]),
   midi.NoteOnEvent(tick=100, channel=2, data=[76, 0]),
   midi.NoteOnEvent(tick=0, channel=2, data=[71, 0]),
   midi.NoteOnEvent(tick=20, channel=2, data=[72, 92]),
   midi.NoteOnEvent(tick=0, channel=2, data=[76, 92]),
   midi.NoteOnEvent(tick=100, channel=2, data=[76, 0]),
   midi.NoteOnEvent(tick=0, channel=2, data=[72, 0]),
   midi.NoteOnEvent(tick=20, channel=2, data=[68, 92]),
   midi.NoteOnEvent(tick=0, channel=2, data=[72, 92]),
   midi.NoteOnEvent(tick=100, channel=2, data=[72, 0]),
   midi.NoteOnEvent(tick=0, channel=2, data=[68, 0]),
   midi.NoteOnEvent(tick=20, channel=2, data=[69, 92]),
   midi.NoteOnEvent(tick=0, channel=2, data=[72, 92]),
   midi.NoteOnEvent(tick=100, channel=2, data=[72, 0]),
   midi.NoteOnEvent(tick=0, channel=2, data=[69, 0]),
   midi.NoteOnEvent(tick=20, channel=2, data=[69, 92]),
   midi.NoteOnEvent(tick=0, channel=2, data=[72, 92]),
   midi.NoteOnEvent(tick=210, channel=2, data=[72, 0]),
   midi.NoteOnEvent(tick=0, channel=2, data=[69, 0]),
   midi.NoteOnEvent(tick=30, channel=2, data=[68, 92]),
   midi.NoteOnEvent(tick=0, channel=2, data=[72, 92]),
   midi.NoteOnEvent(tick=100, channel=2, data=[72, 0]),
   midi.NoteOnEvent(tick=0, channel=2, data=[68, 0]),
   midi.NoteOnEvent(tick=20, channel=2, data=[69, 92]),
   midi.NoteOnEvent(tick=0, channel=2, data=[72, 92]),
   midi.NoteOnEvent(tick=100, channel=2, data=[72, 0]),
   midi.NoteOnEvent(tick=0, channel=2, data=[69, 0]),
   midi.NoteOnEvent(tick=20, channel=2, data=[68, 92]),
   midi.NoteOnEvent(tick=0, channel=2, data=[72, 92]),
   midi.NoteOnEvent(tick=100, channel=2, data=[72, 0]),
   midi.NoteOnEvent(tick=0, channel=2, data=[68, 0]),
   midi.NoteOnEvent(tick=20, channel=2, data=[69, 92]),
   midi.NoteOnEvent(tick=0, channel=2, data=[72, 92]),
   midi.NoteOnEvent(tick=100, channel=2, data=[72, 0]),
   midi.NoteOnEvent(tick=0, channel=2, data=[69, 0]),
   midi.NoteOnEvent(tick=20, channel=2, data=[70, 92]),
   midi.NoteOnEvent(tick=0, channel=2, data=[73, 92]),
   midi.NoteOnEvent(tick=100, channel=2, data=[73, 0]),
   midi.NoteOnEvent(tick=0, channel=2, data=[70, 0]),
   midi.NoteOnEvent(tick=20, channel=2, data=[69, 92]),
   midi.NoteOnEvent(tick=0, channel=2, data=[74, 92]),
   midi.NoteOnEvent(tick=100, channel=2, data=[74, 0]),
   midi.NoteOnEvent(tick=0, channel=2, data=[69, 0]),
   midi.NoteOnEvent(tick=20, channel=2, data=[70, 92]),
   midi.NoteOnEvent(tick=0, channel=2, data=[73, 92]),
   midi.NoteOnEvent(tick=100, channel=2, data=[73, 0]),
   midi.NoteOnEvent(tick=0, channel=2, data=[70, 0]),
   midi.NoteOnEvent(tick=20, channel=2, data=[69, 92]),
   midi.NoteOnEvent(tick=0, channel=2, data=[74, 92]),
   midi.NoteOnEvent(tick=100, channel=2, data=[74, 0]),
   midi.NoteOnEvent(tick=20, channel=2, data=[76, 92]),
   midi.NoteOnEvent(tick=100, channel=2, data=[76, 0]),
   midi.NoteOnEvent(tick=20, channel=2, data=[77, 92]),
   midi.NoteOnEvent(tick=100, channel=2, data=[77, 0]),
   midi.NoteOnEvent(tick=0, channel=2, data=[69, 0]),
   midi.NoteOnEvent(tick=20, channel=2, data=[75, 92]),
   midi.NoteOnEvent(tick=0, channel=2, data=[78, 92]),
   midi.NoteOnEvent(tick=100, channel=2, data=[78, 0]),
   midi.NoteOnEvent(tick=0, channel=2, data=[75, 0]),
   midi.NoteOnEvent(tick=20, channel=2, data=[74, 92]),
   midi.NoteOnEvent(tick=0, channel=2, data=[79, 92]),
   midi.NoteOnEvent(tick=100, channel=2, data=[79, 0]),
   midi.NoteOnEvent(tick=0, channel=2, data=[74, 0]),
   midi.NoteOnEvent(tick=20, channel=2, data=[71, 92]),
   midi.NoteOnEvent(tick=0, channel=2, data=[77, 92]),
   midi.NoteOnEvent(tick=100, channel=2, data=[77, 0]),
   midi.NoteOnEvent(tick=0, channel=2, data=[71, 0]),
   midi.NoteOnEvent(tick=20, channel=2, data=[72, 92]),
   midi.NoteOnEvent(tick=0, channel=2, data=[76, 92]),
   midi.NoteOnEvent(tick=100, channel=2, data=[76, 0]),
   midi.NoteOnEvent(tick=0, channel=2, data=[72, 0]),
   midi.NoteOnEvent(tick=4220, channel=2, data=[72, 92]),
   midi.NoteOnEvent(tick=0, channel=2, data=[76, 92]),
   midi.NoteOnEvent(tick=450, channel=2, data=[76, 0]),
   midi.NoteOnEvent(tick=30, channel=2, data=[77, 92]),
   midi.NoteOnEvent(tick=450, channel=2, data=[77, 0]),
   midi.NoteOnEvent(tick=30, channel=2, data=[81, 92]),
   midi.NoteOnEvent(tick=450, channel=2, data=[81, 0]),
   midi.NoteOnEvent(tick=30, channel=2, data=[74, 92]),
   midi.NoteOnEvent(tick=450, channel=2, data=[74, 0]),
   midi.NoteOnEvent(tick=0, channel=2, data=[72, 0]),
   midi.NoteOnEvent(tick=30, channel=2, data=[71, 92]),
   midi.NoteOnEvent(tick=0, channel=2, data=[79, 92]),
   midi.NoteOnEvent(tick=450, channel=2, data=[79, 0]),
   midi.NoteOnEvent(tick=0, channel=2, data=[71, 0]),
   midi.NoteOnEvent(tick=30, channel=2, data=[72, 92]),
   midi.NoteOnEvent(tick=100, channel=2, data=[72, 0]),
   midi.ControlChangeEvent(tick=1820, channel=2, data=[7, 32]),
   midi.NoteOnEvent(tick=0, channel=2, data=[72, 60]),
   midi.NoteOnEvent(tick=0, channel=2, data=[76, 60]),
   midi.ControlChangeEvent(tick=1440, channel=2, data=[7, 48]),
   midi.ControlChangeEvent(tick=480, channel=2, data=[7, 64]),
   midi.ControlChangeEvent(tick=480, channel=2, data=[7, 80]),
   midi.ControlChangeEvent(tick=480, channel=2, data=[7, 96]),
   midi.NoteOnEvent(tick=930, channel=2, data=[76, 0]),
   midi.NoteOnEvent(tick=0, channel=2, data=[72, 0]),
   midi.NoteOnEvent(tick=30, channel=2, data=[76, 108]),
   midi.NoteOnEvent(tick=0, channel=2, data=[79, 108]),
   midi.NoteOnEvent(tick=100, channel=2, data=[79, 0]),
   midi.NoteOnEvent(tick=0, channel=2, data=[76, 0]),
   midi.NoteOnEvent(tick=20, channel=2, data=[76, 108]),
   midi.NoteOnEvent(tick=0, channel=2, data=[79, 108]),
   midi.NoteOnEvent(tick=210, channel=2, data=[79, 0]),
   midi.NoteOnEvent(tick=0, channel=2, data=[76, 0]),
   midi.NoteOnEvent(tick=30, channel=2, data=[77, 108]),
   midi.NoteOnEvent(tick=0, channel=2, data=[81, 108]),
   midi.NoteOnEvent(tick=100, channel=2, data=[81, 0]),
   midi.NoteOnEvent(tick=0, channel=2, data=[77, 0]),
   midi.NoteOnEvent(tick=20, channel=2, data=[76, 108]),
   midi.NoteOnEvent(tick=0, channel=2, data=[79, 108]),
   midi.NoteOnEvent(tick=100, channel=2, data=[79, 0]),
   midi.NoteOnEvent(tick=0, channel=2, data=[76, 0]),
   midi.NoteOnEvent(tick=20, channel=2, data=[77, 108]),
   midi.NoteOnEvent(tick=0, channel=2, data=[81, 108]),
   midi.NoteOnEvent(tick=100, channel=2, data=[81, 0]),
   midi.NoteOnEvent(tick=0, channel=2, data=[77, 0]),
   midi.NoteOnEvent(tick=20, channel=2, data=[76, 108]),
   midi.NoteOnEvent(tick=0, channel=2, data=[79, 108]),
   midi.NoteOnEvent(tick=100, channel=2, data=[79, 0]),
   midi.NoteOnEvent(tick=0, channel=2, data=[76, 0]),
   midi.NoteOnEvent(tick=20, channel=2, data=[74, 108]),
   midi.NoteOnEvent(tick=0, channel=2, data=[77, 108]),
   midi.NoteOnEvent(tick=100, channel=2, data=[77, 0]),
   midi.NoteOnEvent(tick=0, channel=2, data=[74, 0]),
   midi.NoteOnEvent(tick=20, channel=2, data=[72, 108]),
   midi.NoteOnEvent(tick=0, channel=2, data=[76, 108]),
   midi.NoteOnEvent(tick=100, channel=2, data=[76, 0]),
   midi.NoteOnEvent(tick=0, channel=2, data=[72, 0]),
   midi.NoteOnEvent(tick=20, channel=2, data=[76, 108]),
   midi.NoteOnEvent(tick=0, channel=2, data=[79, 108]),
   midi.NoteOnEvent(tick=210, channel=2, data=[79, 0]),
   midi.NoteOnEvent(tick=0, channel=2, data=[76, 0]),
   midi.NoteOnEvent(tick=30, channel=2, data=[77, 108]),
   midi.NoteOnEvent(tick=0, channel=2, data=[81, 108]),
   midi.NoteOnEvent(tick=100, channel=2, data=[81, 0]),
   midi.NoteOnEvent(tick=0, channel=2, data=[77, 0]),
   midi.NoteOnEvent(tick=20, channel=2, data=[76, 108]),
   midi.NoteOnEvent(tick=0, channel=2, data=[79, 108]),
   midi.NoteOnEvent(tick=100, channel=2, data=[79, 0]),
   midi.NoteOnEvent(tick=0, channel=2, data=[76, 0]),
   midi.NoteOnEvent(tick=20, channel=2, data=[77, 108]),
   midi.NoteOnEvent(tick=0, channel=2, data=[81, 108]),
   midi.NoteOnEvent(tick=100, channel=2, data=[81, 0]),
   midi.NoteOnEvent(tick=0, channel=2, data=[77, 0]),
   midi.NoteOnEvent(tick=20, channel=2, data=[76, 108]),
   midi.NoteOnEvent(tick=0, channel=2, data=[79, 108]),
   midi.NoteOnEvent(tick=100, channel=2, data=[79, 0]),
   midi.NoteOnEvent(tick=0, channel=2, data=[76, 0]),
   midi.NoteOnEvent(tick=20, channel=2, data=[74, 108]),
   midi.NoteOnEvent(tick=0, channel=2, data=[77, 108]),
   midi.NoteOnEvent(tick=100, channel=2, data=[77, 0]),
   midi.NoteOnEvent(tick=0, channel=2, data=[74, 0]),
   midi.NoteOnEvent(tick=20, channel=2, data=[72, 108]),
   midi.NoteOnEvent(tick=0, channel=2, data=[76, 108]),
   midi.NoteOnEvent(tick=100, channel=2, data=[76, 0]),
   midi.NoteOnEvent(tick=0, channel=2, data=[72, 0]),
   midi.NoteOnEvent(tick=20, channel=2, data=[67, 108]),
   midi.NoteOnEvent(tick=100, channel=2, data=[67, 0]),
   midi.NoteOnEvent(tick=20, channel=2, data=[72, 108]),
   midi.NoteOnEvent(tick=100, channel=2, data=[72, 0]),
   midi.NoteOnEvent(tick=20, channel=2, data=[67, 108]),
   midi.NoteOnEvent(tick=100, channel=2, data=[67, 0]),
   midi.NoteOnEvent(tick=20, channel=2, data=[72, 108]),
   midi.NoteOnEvent(tick=100, channel=2, data=[72, 0]),
   midi.NoteOnEvent(tick=20, channel=2, data=[67, 108]),
   midi.NoteOnEvent(tick=100, channel=2, data=[67, 0]),
   midi.NoteOnEvent(tick=20, channel=2, data=[72, 108]),
   midi.NoteOnEvent(tick=100, channel=2, data=[72, 0]),
   midi.NoteOnEvent(tick=20, channel=2, data=[67, 108]),
   midi.NoteOnEvent(tick=100, channel=2, data=[67, 0]),
   midi.NoteOnEvent(tick=20, channel=2, data=[72, 108]),
   midi.NoteOnEvent(tick=100, channel=2, data=[72, 0]),
   midi.NoteOnEvent(tick=380, channel=2, data=[64, 108]),
   midi.NoteOnEvent(tick=0, channel=2, data=[72, 108]),
   midi.NoteOnEvent(tick=100, channel=2, data=[72, 0]),
   midi.NoteOnEvent(tick=0, channel=2, data=[64, 0]),
   midi.NoteOnEvent(tick=140, channel=2, data=[64, 108]),
   midi.NoteOnEvent(tick=0, channel=2, data=[72, 108]),
   midi.NoteOnEvent(tick=100, channel=2, data=[72, 0]),
   midi.NoteOnEvent(tick=0, channel=2, data=[64, 0]),
   midi.NoteOnEvent(tick=140, channel=2, data=[64, 108]),
   midi.NoteOnEvent(tick=0, channel=2, data=[72, 108]),
   midi.NoteOnEvent(tick=210, channel=2, data=[72, 0]),
   midi.NoteOnEvent(tick=0, channel=2, data=[64, 0]),
   midi.EndOfTrackEvent(tick=0, data=[])]),
 midi.Track(\
  [midi.PortEvent(tick=0, data=[0]),
   midi.TrackNameEvent(tick=0, text='Bassoons', data=[66, 97, 115, 115, 111, 111, 110, 115]),
   midi.ProgramChangeEvent(tick=0, channel=3, data=[70]),
   midi.ControlChangeEvent(tick=0, channel=3, data=[7, 127]),
   midi.ControlChangeEvent(tick=0, channel=3, data=[10, 96]),
   midi.NoteOnEvent(tick=0, channel=3, data=[60, 92]),
   midi.NoteOnEvent(tick=100, channel=3, data=[60, 0]),
   midi.NoteOnEvent(tick=110, channel=3, data=[48, 92]),
   midi.NoteOnEvent(tick=28, channel=3, data=[48, 0]),
   midi.NoteOnEvent(tick=2, channel=3, data=[48, 92]),
   midi.NoteOnEvent(tick=100, channel=3, data=[48, 0]),
   midi.NoteOnEvent(tick=740, channel=3, data=[60, 60]),
   midi.NoteOnEvent(tick=0, channel=3, data=[64, 60]),
   midi.NoteOnEvent(tick=100, channel=3, data=[64, 0]),
   midi.NoteOnEvent(tick=0, channel=3, data=[60, 0]),
   midi.NoteOnEvent(tick=20, channel=3, data=[60, 60]),
   midi.NoteOnEvent(tick=0, channel=3, data=[64, 60]),
   midi.NoteOnEvent(tick=100, channel=3, data=[64, 0]),
   midi.NoteOnEvent(tick=0, channel=3, data=[60, 0]),
   midi.NoteOnEvent(tick=20, channel=3, data=[60, 60]),
   midi.NoteOnEvent(tick=0, channel=3, data=[64, 60]),
   midi.NoteOnEvent(tick=100, channel=3, data=[64, 0]),
   midi.NoteOnEvent(tick=0, channel=3, data=[60, 0]),
   midi.NoteOnEvent(tick=20, channel=3, data=[55, 60]),
   midi.NoteOnEvent(tick=0, channel=3, data=[64, 60]),
   midi.NoteOnEvent(tick=120, channel=3, data=[64, 0]),
   midi.NoteOnEvent(tick=0, channel=3, data=[60, 60]),
   midi.NoteOnEvent(tick=90, channel=3, data=[55, 0]),
   midi.NoteOnEvent(tick=10, channel=3, data=[60, 0]),
   midi.NoteOnEvent(tick=20, channel=3, data=[55, 60]),
   midi.NoteOnEvent(tick=0, channel=3, data=[67, 60]),
   midi.NoteOnEvent(tick=100, channel=3, data=[67, 0]),
   midi.NoteOnEvent(tick=0, channel=3, data=[55, 0]),
   midi.NoteOnEvent(tick=110, channel=3, data=[55, 92]),
   midi.NoteOnEvent(tick=28, channel=3, data=[55, 0]),
   midi.NoteOnEvent(tick=2, channel=3, data=[55, 92]),
   midi.NoteOnEvent(tick=100, channel=3, data=[55, 0]),
   midi.NoteOnEvent(tick=110, channel=3, data=[43, 92]),
   midi.NoteOnEvent(tick=28, channel=3, data=[43, 0]),
   midi.NoteOnEvent(tick=2, channel=3, data=[43, 92]),
   midi.NoteOnEvent(tick=100, channel=3, data=[43, 0]),
   midi.NoteOnEvent(tick=740, channel=3, data=[55, 60]),
   midi.NoteOnEvent(tick=0, channel=3, data=[62, 60]),
   midi.NoteOnEvent(tick=100, channel=3, data=[62, 0]),
   midi.NoteOnEvent(tick=0, channel=3, data=[55, 0]),
   midi.NoteOnEvent(tick=20, channel=3, data=[55, 60]),
   midi.NoteOnEvent(tick=0, channel=3, data=[62, 60]),
   midi.NoteOnEvent(tick=100, channel=3, data=[62, 0]),
   midi.NoteOnEvent(tick=0, channel=3, data=[55, 0]),
   midi.NoteOnEvent(tick=20, channel=3, data=[55, 60]),
   midi.NoteOnEvent(tick=0, channel=3, data=[62, 60]),
   midi.NoteOnEvent(tick=100, channel=3, data=[62, 0]),
   midi.NoteOnEvent(tick=0, channel=3, data=[55, 0]),
   midi.NoteOnEvent(tick=20, channel=3, data=[55, 60]),
   midi.NoteOnEvent(tick=0, channel=3, data=[65, 60]),
   midi.NoteOnEvent(tick=120, channel=3, data=[65, 0]),
   midi.NoteOnEvent(tick=0, channel=3, data=[62, 60]),
   midi.NoteOnEvent(tick=70, channel=3, data=[55, 0]),
   midi.NoteOnEvent(tick=20, channel=3, data=[62, 0]),
   midi.NoteOnEvent(tick=0, channel=3, data=[48, 60]),
   midi.NoteOnEvent(tick=0, channel=3, data=[60, 60]),
   midi.NoteOnEvent(tick=28, channel=3, data=[60, 0]),
   midi.NoteOnEvent(tick=0, channel=3, data=[48, 0]),
   midi.NoteOnEvent(tick=2, channel=3, data=[48, 60]),
   midi.NoteOnEvent(tick=0, channel=3, data=[60, 60]),
   midi.NoteOnEvent(tick=100, channel=3, data=[60, 0]),
   midi.NoteOnEvent(tick=0, channel=3, data=[48, 0]),
   midi.NoteOnEvent(tick=620, channel=3, data=[60, 60]),
   midi.NoteOnEvent(tick=0, channel=3, data=[62, 60]),
   midi.NoteOnEvent(tick=240, channel=3, data=[60, 0]),
   midi.NoteOnEvent(tick=0, channel=3, data=[59, 60]),
   midi.NoteOnEvent(tick=120, channel=3, data=[62, 0]),
   midi.NoteOnEvent(tick=0, channel=3, data=[64, 60]),
   midi.NoteOnEvent(tick=90, channel=3, data=[64, 0]),
   midi.NoteOnEvent(tick=0, channel=3, data=[59, 0]),
   midi.NoteOnEvent(tick=0, channel=3, data=[65, 60]),
   midi.NoteOnEvent(tick=28, channel=3, data=[65, 0]),
   midi.NoteOnEvent(tick=2, channel=3, data=[60, 60]),
   midi.NoteOnEvent(tick=0, channel=3, data=[65, 60]),
   midi.NoteOnEvent(tick=240, channel=3, data=[65, 0]),
   midi.NoteOnEvent(tick=0, channel=3, data=[60, 0]),
   midi.NoteOnEvent(tick=0, channel=3, data=[60, 60]),
   midi.NoteOnEvent(tick=0, channel=3, data=[64, 60]),
   midi.NoteOnEvent(tick=100, channel=3, data=[64, 0]),
   midi.NoteOnEvent(tick=0, channel=3, data=[60, 0]),
   midi.NoteOnEvent(tick=380, channel=3, data=[60, 92]),
   midi.NoteOnEvent(tick=0, channel=3, data=[64, 92]),
   midi.NoteOnEvent(tick=240, channel=3, data=[64, 0]),
   midi.NoteOnEvent(tick=0, channel=3, data=[65, 92]),
   midi.NoteOnEvent(tick=240, channel=3, data=[65, 0]),
   midi.NoteOnEvent(tick=0, channel=3, data=[69, 92]),
   midi.NoteOnEvent(tick=240, channel=3, data=[69, 0]),
   midi.NoteOnEvent(tick=0, channel=3, data=[62, 92]),
   midi.NoteOnEvent(tick=240, channel=3, data=[62, 0]),
   midi.NoteOnEvent(tick=0, channel=3, data=[60, 0]),
   midi.NoteOnEvent(tick=0, channel=3, data=[59, 92]),
   midi.NoteOnEvent(tick=0, channel=3, data=[67, 92]),
   midi.NoteOnEvent(tick=210, channel=3, data=[67, 0]),
   midi.NoteOnEvent(tick=0, channel=3, data=[59, 0]),
   midi.NoteOnEvent(tick=30, channel=3, data=[60, 92]),
   midi.NoteOnEvent(tick=0, channel=3, data=[64, 92]),
   midi.NoteOnEvent(tick=100, channel=3, data=[64, 0]),
   midi.NoteOnEvent(tick=0, channel=3, data=[60, 0]),
   midi.NoteOnEvent(tick=4700, channel=3, data=[64, 92]),
   midi.NoteOnEvent(tick=100, channel=3, data=[64, 0]),
   midi.NoteOnEvent(tick=20, channel=3, data=[64, 92]),
   midi.NoteOnEvent(tick=210, channel=3, data=[64, 0]),
   midi.NoteOnEvent(tick=30, channel=3, data=[65, 92]),
   midi.NoteOnEvent(tick=100, channel=3, data=[65, 0]),
   midi.NoteOnEvent(tick=20, channel=3, data=[64, 92]),
   midi.NoteOnEvent(tick=100, channel=3, data=[64, 0]),
   midi.NoteOnEvent(tick=20, channel=3, data=[65, 92]),
   midi.NoteOnEvent(tick=100, channel=3, data=[65, 0]),
   midi.NoteOnEvent(tick=20, channel=3, data=[64, 92]),
   midi.NoteOnEvent(tick=100, channel=3, data=[64, 0]),
   midi.NoteOnEvent(tick=20, channel=3, data=[65, 92]),
   midi.NoteOnEvent(tick=100, channel=3, data=[65, 0]),
   midi.NoteOnEvent(tick=20, channel=3, data=[64, 92]),
   midi.NoteOnEvent(tick=100, channel=3, data=[64, 0]),
   midi.NoteOnEvent(tick=20, channel=3, data=[64, 92]),
   midi.NoteOnEvent(tick=210, channel=3, data=[64, 0]),
   midi.NoteOnEvent(tick=30, channel=3, data=[65, 92]),
   midi.NoteOnEvent(tick=100, channel=3, data=[65, 0]),
   midi.NoteOnEvent(tick=20, channel=3, data=[64, 92]),
   midi.NoteOnEvent(tick=100, channel=3, data=[64, 0]),
   midi.NoteOnEvent(tick=20, channel=3, data=[65, 92]),
   midi.NoteOnEvent(tick=100, channel=3, data=[65, 0]),
   midi.NoteOnEvent(tick=20, channel=3, data=[64, 92]),
   midi.NoteOnEvent(tick=100, channel=3, data=[64, 0]),
   midi.NoteOnEvent(tick=20, channel=3, data=[65, 92]),
   midi.NoteOnEvent(tick=100, channel=3, data=[65, 0]),
   midi.NoteOnEvent(tick=20, channel=3, data=[64, 92]),
   midi.NoteOnEvent(tick=100, channel=3, data=[64, 0]),
   midi.NoteOnEvent(tick=1820, channel=3, data=[64, 60]),
   midi.NoteOnEvent(tick=60, channel=3, data=[64, 0]),
   midi.NoteOnEvent(tick=0, channel=3, data=[67, 60]),
   midi.NoteOnEvent(tick=60, channel=3, data=[67, 0]),
   midi.NoteOnEvent(tick=0, channel=3, data=[65, 60]),
   midi.NoteOnEvent(tick=60, channel=3, data=[65, 0]),
   midi.NoteOnEvent(tick=0, channel=3, data=[64, 60]),
   midi.NoteOnEvent(tick=60, channel=3, data=[64, 0]),
   midi.NoteOnEvent(tick=0, channel=3, data=[62, 60]),
   midi.NoteOnEvent(tick=60, channel=3, data=[62, 0]),
   midi.NoteOnEvent(tick=0, channel=3, data=[60, 60]),
   midi.NoteOnEvent(tick=60, channel=3, data=[60, 0]),
   midi.NoteOnEvent(tick=0, channel=3, data=[59, 60]),
   midi.NoteOnEvent(tick=60, channel=3, data=[59, 0]),
   midi.NoteOnEvent(tick=0, channel=3, data=[60, 60]),
   midi.NoteOnEvent(tick=58, channel=3, data=[60, 0]),
   midi.NoteOnEvent(tick=2, channel=3, data=[64, 60]),
   midi.NoteOnEvent(tick=60, channel=3, data=[64, 0]),
   midi.NoteOnEvent(tick=0, channel=3, data=[67, 60]),
   midi.NoteOnEvent(tick=60, channel=3, data=[67, 0]),
   midi.NoteOnEvent(tick=0, channel=3, data=[65, 60]),
   midi.NoteOnEvent(tick=60, channel=3, data=[65, 0]),
   midi.NoteOnEvent(tick=0, channel=3, data=[64, 60]),
   midi.NoteOnEvent(tick=60, channel=3, data=[64, 0]),
   midi.NoteOnEvent(tick=0, channel=3, data=[62, 60]),
   midi.NoteOnEvent(tick=60, channel=3, data=[62, 0]),
   midi.NoteOnEvent(tick=0, channel=3, data=[60, 60]),
   midi.NoteOnEvent(tick=60, channel=3, data=[60, 0]),
   midi.NoteOnEvent(tick=0, channel=3, data=[59, 60]),
   midi.NoteOnEvent(tick=60, channel=3, data=[59, 0]),
   midi.NoteOnEvent(tick=0, channel=3, data=[60, 60]),
   midi.NoteOnEvent(tick=58, channel=3, data=[60, 0]),
   midi.NoteOnEvent(tick=2, channel=3, data=[59, 60]),
   midi.NoteOnEvent(tick=0, channel=3, data=[62, 60]),
   midi.NoteOnEvent(tick=240, channel=3, data=[62, 0]),
   midi.NoteOnEvent(tick=0, channel=3, data=[59, 0]),
   midi.NoteOnEvent(tick=0, channel=3, data=[60, 60]),
   midi.NoteOnEvent(tick=0, channel=3, data=[64, 60]),
   midi.NoteOnEvent(tick=240, channel=3, data=[64, 0]),
   midi.NoteOnEvent(tick=0, channel=3, data=[60, 0]),
   midi.NoteOnEvent(tick=0, channel=3, data=[62, 60]),
   midi.NoteOnEvent(tick=0, channel=3, data=[65, 60]),
   midi.NoteOnEvent(tick=240, channel=3, data=[65, 0]),
   midi.NoteOnEvent(tick=0, channel=3, data=[62, 0]),
   midi.NoteOnEvent(tick=0, channel=3, data=[59, 60]),
   midi.NoteOnEvent(tick=0, channel=3, data=[62, 60]),
   midi.NoteOnEvent(tick=210, channel=3, data=[62, 0]),
   midi.NoteOnEvent(tick=0, channel=3, data=[59, 0]),
   midi.NoteOnEvent(tick=30, channel=3, data=[60, 60]),
   midi.NoteOnEvent(tick=0, channel=3, data=[64, 60]),
   midi.NoteOnEvent(tick=100, channel=3, data=[64, 0]),
   midi.NoteOnEvent(tick=0, channel=3, data=[60, 0]),
   midi.NoteOnEvent(tick=1820, channel=3, data=[64, 60]),
   midi.NoteOnEvent(tick=60, channel=3, data=[64, 0]),
   midi.NoteOnEvent(tick=0, channel=3, data=[67, 60]),
   midi.NoteOnEvent(tick=60, channel=3, data=[67, 0]),
   midi.NoteOnEvent(tick=0, channel=3, data=[65, 60]),
   midi.NoteOnEvent(tick=60, channel=3, data=[65, 0]),
   midi.NoteOnEvent(tick=0, channel=3, data=[64, 60]),
   midi.NoteOnEvent(tick=60, channel=3, data=[64, 0]),
   midi.NoteOnEvent(tick=0, channel=3, data=[62, 60]),
   midi.NoteOnEvent(tick=60, channel=3, data=[62, 0]),
   midi.NoteOnEvent(tick=0, channel=3, data=[60, 60]),
   midi.NoteOnEvent(tick=60, channel=3, data=[60, 0]),
   midi.NoteOnEvent(tick=0, channel=3, data=[59, 60]),
   midi.NoteOnEvent(tick=60, channel=3, data=[59, 0]),
   midi.NoteOnEvent(tick=0, channel=3, data=[60, 60]),
   midi.NoteOnEvent(tick=58, channel=3, data=[60, 0]),
   midi.NoteOnEvent(tick=2, channel=3, data=[64, 60]),
   midi.NoteOnEvent(tick=60, channel=3, data=[64, 0]),
   midi.NoteOnEvent(tick=0, channel=3, data=[67, 60]),
   midi.NoteOnEvent(tick=60, channel=3, data=[67, 0]),
   midi.NoteOnEvent(tick=0, channel=3, data=[65, 60]),
   midi.NoteOnEvent(tick=60, channel=3, data=[65, 0]),
   midi.NoteOnEvent(tick=0, channel=3, data=[64, 60]),
   midi.NoteOnEvent(tick=60, channel=3, data=[64, 0]),
   midi.NoteOnEvent(tick=0, channel=3, data=[62, 60]),
   midi.NoteOnEvent(tick=60, channel=3, data=[62, 0]),
   midi.NoteOnEvent(tick=0, channel=3, data=[60, 60]),
   midi.NoteOnEvent(tick=60, channel=3, data=[60, 0]),
   midi.NoteOnEvent(tick=0, channel=3, data=[59, 60]),
   midi.NoteOnEvent(tick=60, channel=3, data=[59, 0]),
   midi.NoteOnEvent(tick=0, channel=3, data=[60, 60]),
   midi.NoteOnEvent(tick=58, channel=3, data=[60, 0]),
   midi.NoteOnEvent(tick=2, channel=3, data=[59, 60]),
   midi.NoteOnEvent(tick=0, channel=3, data=[62, 60]),
   midi.NoteOnEvent(tick=240, channel=3, data=[62, 0]),
   midi.NoteOnEvent(tick=0, channel=3, data=[59, 0]),
   midi.NoteOnEvent(tick=0, channel=3, data=[60, 60]),
   midi.NoteOnEvent(tick=0, channel=3, data=[64, 60]),
   midi.NoteOnEvent(tick=240, channel=3, data=[64, 0]),
   midi.NoteOnEvent(tick=0, channel=3, data=[60, 0]),
   midi.NoteOnEvent(tick=0, channel=3, data=[62, 60]),
   midi.NoteOnEvent(tick=0, channel=3, data=[65, 60]),
   midi.NoteOnEvent(tick=240, channel=3, data=[65, 0]),
   midi.NoteOnEvent(tick=0, channel=3, data=[62, 0]),
   midi.NoteOnEvent(tick=0, channel=3, data=[59, 60]),
   midi.NoteOnEvent(tick=0, channel=3, data=[62, 60]),
   midi.NoteOnEvent(tick=210, channel=3, data=[62, 0]),
   midi.NoteOnEvent(tick=0, channel=3, data=[59, 0]),
   midi.NoteOnEvent(tick=30, channel=3, data=[60, 60]),
   midi.NoteOnEvent(tick=100, channel=3, data=[60, 0]),
   midi.NoteOnEvent(tick=1820, channel=3, data=[55, 60]),
   midi.NoteOnEvent(tick=0, channel=3, data=[59, 60]),
   midi.NoteOnEvent(tick=930, channel=3, data=[59, 0]),
   midi.NoteOnEvent(tick=0, channel=3, data=[55, 0]),
   midi.NoteOnEvent(tick=30, channel=3, data=[55, 60]),
   midi.NoteOnEvent(tick=0, channel=3, data=[61, 60]),
   midi.NoteOnEvent(tick=930, channel=3, data=[61, 0]),
   midi.NoteOnEvent(tick=0, channel=3, data=[55, 0]),
   midi.NoteOnEvent(tick=30, channel=3, data=[54, 92]),
   midi.NoteOnEvent(tick=0, channel=3, data=[62, 92]),
   midi.NoteOnEvent(tick=100, channel=3, data=[62, 0]),
   midi.NoteOnEvent(tick=0, channel=3, data=[54, 0]),
   midi.NoteOnEvent(tick=20, channel=3, data=[54, 92]),
   midi.NoteOnEvent(tick=0, channel=3, data=[57, 92]),
   midi.NoteOnEvent(tick=210, channel=3, data=[57, 0]),
   midi.NoteOnEvent(tick=0, channel=3, data=[54, 0]),
   midi.NoteOnEvent(tick=30, channel=3, data=[55, 92]),
   midi.NoteOnEvent(tick=0, channel=3, data=[59, 92]),
   midi.NoteOnEvent(tick=100, channel=3, data=[59, 0]),
   midi.NoteOnEvent(tick=0, channel=3, data=[55, 0]),
   midi.NoteOnEvent(tick=20, channel=3, data=[54, 92]),
   midi.NoteOnEvent(tick=0, channel=3, data=[57, 92]),
   midi.NoteOnEvent(tick=100, channel=3, data=[57, 0]),
   midi.NoteOnEvent(tick=0, channel=3, data=[54, 0]),
   midi.NoteOnEvent(tick=20, channel=3, data=[55, 92]),
   midi.NoteOnEvent(tick=0, channel=3, data=[59, 92]),
   midi.NoteOnEvent(tick=100, channel=3, data=[59, 0]),
   midi.NoteOnEvent(tick=0, channel=3, data=[55, 0]),
   midi.NoteOnEvent(tick=20, channel=3, data=[57, 92]),
   midi.NoteOnEvent(tick=0, channel=3, data=[60, 92]),
   midi.NoteOnEvent(tick=100, channel=3, data=[60, 0]),
   midi.NoteOnEvent(tick=0, channel=3, data=[57, 0]),
   midi.NoteOnEvent(tick=20, channel=3, data=[55, 92]),
   midi.NoteOnEvent(tick=0, channel=3, data=[59, 92]),
   midi.NoteOnEvent(tick=100, channel=3, data=[59, 0]),
   midi.NoteOnEvent(tick=0, channel=3, data=[55, 0]),
   midi.NoteOnEvent(tick=20, channel=3, data=[54, 92]),
   midi.NoteOnEvent(tick=0, channel=3, data=[57, 92]),
   midi.NoteOnEvent(tick=100, channel=3, data=[57, 0]),
   midi.NoteOnEvent(tick=0, channel=3, data=[54, 0]),
   midi.NoteOnEvent(tick=20, channel=3, data=[54, 92]),
   midi.NoteOnEvent(tick=0, channel=3, data=[57, 92]),
   midi.NoteOnEvent(tick=210, channel=3, data=[57, 0]),
   midi.NoteOnEvent(tick=0, channel=3, data=[54, 0]),
   midi.NoteOnEvent(tick=30, channel=3, data=[55, 92]),
   midi.NoteOnEvent(tick=0, channel=3, data=[59, 92]),
   midi.NoteOnEvent(tick=100, channel=3, data=[59, 0]),
   midi.NoteOnEvent(tick=0, channel=3, data=[55, 0]),
   midi.NoteOnEvent(tick=20, channel=3, data=[54, 92]),
   midi.NoteOnEvent(tick=0, channel=3, data=[57, 92]),
   midi.NoteOnEvent(tick=100, channel=3, data=[57, 0]),
   midi.NoteOnEvent(tick=0, channel=3, data=[54, 0]),
   midi.NoteOnEvent(tick=20, channel=3, data=[55, 92]),
   midi.NoteOnEvent(tick=0, channel=3, data=[59, 92]),
   midi.NoteOnEvent(tick=100, channel=3, data=[59, 0]),
   midi.NoteOnEvent(tick=0, channel=3, data=[55, 0]),
   midi.NoteOnEvent(tick=20, channel=3, data=[57, 92]),
   midi.NoteOnEvent(tick=0, channel=3, data=[60, 92]),
   midi.NoteOnEvent(tick=100, channel=3, data=[60, 0]),
   midi.NoteOnEvent(tick=0, channel=3, data=[57, 0]),
   midi.NoteOnEvent(tick=20, channel=3, data=[55, 92]),
   midi.NoteOnEvent(tick=0, channel=3, data=[59, 92]),
   midi.NoteOnEvent(tick=100, channel=3, data=[59, 0]),
   midi.NoteOnEvent(tick=0, channel=3, data=[55, 0]),
   midi.NoteOnEvent(tick=20, channel=3, data=[54, 92]),
   midi.NoteOnEvent(tick=0, channel=3, data=[57, 92]),
   midi.NoteOnEvent(tick=100, channel=3, data=[57, 0]),
   midi.NoteOnEvent(tick=0, channel=3, data=[54, 0]),
   midi.NoteOnEvent(tick=3860, channel=3, data=[67, 92]),
   midi.NoteOnEvent(tick=210, channel=3, data=[67, 0]),
   midi.NoteOnEvent(tick=30, channel=3, data=[66, 92]),
   midi.NoteOnEvent(tick=100, channel=3, data=[66, 0]),
   midi.NoteOnEvent(tick=20, channel=3, data=[67, 92]),
   midi.NoteOnEvent(tick=100, channel=3, data=[67, 0]),
   midi.NoteOnEvent(tick=20, channel=3, data=[66, 92]),
   midi.NoteOnEvent(tick=100, channel=3, data=[66, 0]),
   midi.NoteOnEvent(tick=20, channel=3, data=[67, 92]),
   midi.NoteOnEvent(tick=100, channel=3, data=[67, 0]),
   midi.NoteOnEvent(tick=20, channel=3, data=[63, 92]),
   midi.NoteOnEvent(tick=100, channel=3, data=[63, 0]),
   midi.NoteOnEvent(tick=20, channel=3, data=[64, 92]),
   midi.NoteOnEvent(tick=100, channel=3, data=[64, 0]),
   midi.NoteOnEvent(tick=20, channel=3, data=[64, 92]),
   midi.NoteOnEvent(tick=210, channel=3, data=[64, 0]),
   midi.NoteOnEvent(tick=30, channel=3, data=[63, 92]),
   midi.NoteOnEvent(tick=100, channel=3, data=[63, 0]),
   midi.NoteOnEvent(tick=20, channel=3, data=[64, 92]),
   midi.NoteOnEvent(tick=100, channel=3, data=[64, 0]),
   midi.NoteOnEvent(tick=20, channel=3, data=[63, 92]),
   midi.NoteOnEvent(tick=100, channel=3, data=[63, 0]),
   midi.NoteOnEvent(tick=20, channel=3, data=[64, 92]),
   midi.NoteOnEvent(tick=100, channel=3, data=[64, 0]),
   midi.NoteOnEvent(tick=20, channel=3, data=[59, 92]),
   midi.NoteOnEvent(tick=100, channel=3, data=[59, 0]),
   midi.NoteOnEvent(tick=20, channel=3, data=[60, 92]),
   midi.NoteOnEvent(tick=100, channel=3, data=[60, 0]),
   midi.NoteOnEvent(tick=20, channel=3, data=[60, 92]),
   midi.NoteOnEvent(tick=210, channel=3, data=[60, 0]),
   midi.NoteOnEvent(tick=30, channel=3, data=[59, 92]),
   midi.NoteOnEvent(tick=100, channel=3, data=[59, 0]),
   midi.NoteOnEvent(tick=20, channel=3, data=[60, 92]),
   midi.NoteOnEvent(tick=100, channel=3, data=[60, 0]),
   midi.NoteOnEvent(tick=20, channel=3, data=[59, 92]),
   midi.NoteOnEvent(tick=100, channel=3, data=[59, 0]),
   midi.NoteOnEvent(tick=20, channel=3, data=[60, 92]),
   midi.NoteOnEvent(tick=100, channel=3, data=[60, 0]),
   midi.NoteOnEvent(tick=20, channel=3, data=[62, 92]),
   midi.NoteOnEvent(tick=100, channel=3, data=[62, 0]),
   midi.NoteOnEvent(tick=20, channel=3, data=[60, 92]),
   midi.NoteOnEvent(tick=100, channel=3, data=[60, 0]),
   midi.NoteOnEvent(tick=20, channel=3, data=[56, 92]),
   midi.NoteOnEvent(tick=100, channel=3, data=[56, 0]),
   midi.NoteOnEvent(tick=20, channel=3, data=[57, 92]),
   midi.NoteOnEvent(tick=100, channel=3, data=[57, 0]),
   midi.NoteOnEvent(tick=20, channel=3, data=[55, 92]),
   midi.NoteOnEvent(tick=100, channel=3, data=[55, 0]),
   midi.NoteOnEvent(tick=20, channel=3, data=[54, 92]),
   midi.NoteOnEvent(tick=100, channel=3, data=[54, 0]),
   midi.NoteOnEvent(tick=20, channel=3, data=[50, 92]),
   midi.NoteOnEvent(tick=100, channel=3, data=[50, 0]),
   midi.NoteOnEvent(tick=20, channel=3, data=[52, 92]),
   midi.NoteOnEvent(tick=100, channel=3, data=[52, 0]),
   midi.NoteOnEvent(tick=20, channel=3, data=[54, 92]),
   midi.NoteOnEvent(tick=100, channel=3, data=[54, 0]),
   midi.NoteOnEvent(tick=20, channel=3, data=[55, 92]),
   midi.NoteOnEvent(tick=30, channel=3, data=[55, 0]),
   midi.NoteOnEvent(tick=90, channel=3, data=[59, 92]),
   midi.NoteOnEvent(tick=30, channel=3, data=[59, 0]),
   midi.NoteOnEvent(tick=90, channel=3, data=[62, 92]),
   midi.NoteOnEvent(tick=210, channel=3, data=[62, 0]),
   midi.NoteOnEvent(tick=30, channel=3, data=[52, 92]),
   midi.NoteOnEvent(tick=30, channel=3, data=[52, 0]),
   midi.NoteOnEvent(tick=90, channel=3, data=[55, 92]),
   midi.NoteOnEvent(tick=30, channel=3, data=[55, 0]),
   midi.NoteOnEvent(tick=90, channel=3, data=[59, 92]),
   midi.NoteOnEvent(tick=210, channel=3, data=[59, 0]),
   midi.NoteOnEvent(tick=30, channel=3, data=[48, 92]),
   midi.NoteOnEvent(tick=30, channel=3, data=[48, 0]),
   midi.NoteOnEvent(tick=90, channel=3, data=[52, 92]),
   midi.NoteOnEvent(tick=30, channel=3, data=[52, 0]),
   midi.NoteOnEvent(tick=90, channel=3, data=[50, 92]),
   midi.NoteOnEvent(tick=30, channel=3, data=[50, 0]),
   midi.NoteOnEvent(tick=90, channel=3, data=[54, 92]),
   midi.NoteOnEvent(tick=30, channel=3, data=[54, 0]),
   midi.NoteOnEvent(tick=90, channel=3, data=[55, 92]),
   midi.NoteOnEvent(tick=30, channel=3, data=[55, 0]),
   midi.NoteOnEvent(tick=90, channel=3, data=[59, 92]),
   midi.NoteOnEvent(tick=30, channel=3, data=[59, 0]),
   midi.NoteOnEvent(tick=90, channel=3, data=[62, 92]),
   midi.NoteOnEvent(tick=210, channel=3, data=[62, 0]),
   midi.NoteOnEvent(tick=30, channel=3, data=[52, 92]),
   midi.NoteOnEvent(tick=30, channel=3, data=[52, 0]),
   midi.NoteOnEvent(tick=90, channel=3, data=[55, 92]),
   midi.NoteOnEvent(tick=30, channel=3, data=[55, 0]),
   midi.NoteOnEvent(tick=90, channel=3, data=[59, 92]),
   midi.NoteOnEvent(tick=210, channel=3, data=[59, 0]),
   midi.NoteOnEvent(tick=30, channel=3, data=[48, 92]),
   midi.NoteOnEvent(tick=30, channel=3, data=[48, 0]),
   midi.NoteOnEvent(tick=90, channel=3, data=[52, 92]),
   midi.NoteOnEvent(tick=30, channel=3, data=[52, 0]),
   midi.NoteOnEvent(tick=90, channel=3, data=[50, 92]),
   midi.NoteOnEvent(tick=30, channel=3, data=[50, 0]),
   midi.NoteOnEvent(tick=90, channel=3, data=[50, 92]),
   midi.NoteOnEvent(tick=30, channel=3, data=[50, 0]),
   midi.NoteOnEvent(tick=90, channel=3, data=[59, 60]),
   midi.NoteOnEvent(tick=60, channel=3, data=[59, 0]),
   midi.NoteOnEvent(tick=0, channel=3, data=[62, 60]),
   midi.NoteOnEvent(tick=60, channel=3, data=[62, 0]),
   midi.NoteOnEvent(tick=0, channel=3, data=[60, 60]),
   midi.NoteOnEvent(tick=60, channel=3, data=[60, 0]),
   midi.NoteOnEvent(tick=0, channel=3, data=[59, 60]),
   midi.NoteOnEvent(tick=60, channel=3, data=[59, 0]),
   midi.NoteOnEvent(tick=0, channel=3, data=[57, 60]),
   midi.NoteOnEvent(tick=60, channel=3, data=[57, 0]),
   midi.NoteOnEvent(tick=0, channel=3, data=[55, 60]),
   midi.NoteOnEvent(tick=60, channel=3, data=[55, 0]),
   midi.NoteOnEvent(tick=0, channel=3, data=[54, 60]),
   midi.NoteOnEvent(tick=60, channel=3, data=[54, 0]),
   midi.NoteOnEvent(tick=0, channel=3, data=[55, 60]),
   midi.NoteOnEvent(tick=58, channel=3, data=[55, 0]),
   midi.NoteOnEvent(tick=2, channel=3, data=[59, 60]),
   midi.NoteOnEvent(tick=60, channel=3, data=[59, 0]),
   midi.NoteOnEvent(tick=0, channel=3, data=[62, 60]),
   midi.NoteOnEvent(tick=60, channel=3, data=[62, 0]),
   midi.NoteOnEvent(tick=0, channel=3, data=[60, 60]),
   midi.NoteOnEvent(tick=60, channel=3, data=[60, 0]),
   midi.NoteOnEvent(tick=0, channel=3, data=[59, 60]),
   midi.NoteOnEvent(tick=60, channel=3, data=[59, 0]),
   midi.NoteOnEvent(tick=0, channel=3, data=[57, 60]),
   midi.NoteOnEvent(tick=60, channel=3, data=[57, 0]),
   midi.NoteOnEvent(tick=0, channel=3, data=[55, 60]),
   midi.NoteOnEvent(tick=60, channel=3, data=[55, 0]),
   midi.NoteOnEvent(tick=0, channel=3, data=[54, 60]),
   midi.NoteOnEvent(tick=60, channel=3, data=[54, 0]),
   midi.NoteOnEvent(tick=0, channel=3, data=[55, 60]),
   midi.NoteOnEvent(tick=58, channel=3, data=[55, 0]),
   midi.NoteOnEvent(tick=1922, channel=3, data=[54, 60]),
   midi.NoteOnEvent(tick=0, channel=3, data=[57, 60]),
   midi.NoteOnEvent(tick=240, channel=3, data=[57, 0]),
   midi.NoteOnEvent(tick=0, channel=3, data=[54, 0]),
   midi.NoteOnEvent(tick=0, channel=3, data=[55, 60]),
   midi.NoteOnEvent(tick=0, channel=3, data=[59, 60]),
   midi.NoteOnEvent(tick=240, channel=3, data=[59, 0]),
   midi.NoteOnEvent(tick=0, channel=3, data=[55, 0]),
   midi.NoteOnEvent(tick=0, channel=3, data=[57, 60]),
   midi.NoteOnEvent(tick=0, channel=3, data=[60, 60]),
   midi.NoteOnEvent(tick=240, channel=3, data=[60, 0]),
   midi.NoteOnEvent(tick=0, channel=3, data=[57, 0]),
   midi.NoteOnEvent(tick=0, channel=3, data=[54, 60]),
   midi.NoteOnEvent(tick=0, channel=3, data=[57, 60]),
   midi.NoteOnEvent(tick=210, channel=3, data=[57, 0]),
   midi.NoteOnEvent(tick=0, channel=3, data=[54, 0]),
   midi.NoteOnEvent(tick=30, channel=3, data=[55, 60]),
   midi.NoteOnEvent(tick=0, channel=3, data=[59, 60]),
   midi.NoteOnEvent(tick=60, channel=3, data=[59, 0]),
   midi.NoteOnEvent(tick=0, channel=3, data=[62, 60]),
   midi.NoteOnEvent(tick=40, channel=3, data=[55, 0]),
   midi.NoteOnEvent(tick=20, channel=3, data=[62, 0]),
   midi.NoteOnEvent(tick=0, channel=3, data=[60, 60]),
   midi.NoteOnEvent(tick=60, channel=3, data=[60, 0]),
   midi.NoteOnEvent(tick=0, channel=3, data=[59, 60]),
   midi.NoteOnEvent(tick=60, channel=3, data=[59, 0]),
   midi.NoteOnEvent(tick=0, channel=3, data=[57, 60]),
   midi.NoteOnEvent(tick=60, channel=3, data=[57, 0]),
   midi.NoteOnEvent(tick=0, channel=3, data=[55, 60]),
   midi.NoteOnEvent(tick=60, channel=3, data=[55, 0]),
   midi.NoteOnEvent(tick=0, channel=3, data=[54, 60]),
   midi.NoteOnEvent(tick=60, channel=3, data=[54, 0]),
   midi.NoteOnEvent(tick=0, channel=3, data=[55, 60]),
   midi.NoteOnEvent(tick=58, channel=3, data=[55, 0]),
   midi.NoteOnEvent(tick=2, channel=3, data=[59, 60]),
   midi.NoteOnEvent(tick=60, channel=3, data=[59, 0]),
   midi.NoteOnEvent(tick=0, channel=3, data=[62, 60]),
   midi.NoteOnEvent(tick=60, channel=3, data=[62, 0]),
   midi.NoteOnEvent(tick=0, channel=3, data=[60, 60]),
   midi.NoteOnEvent(tick=60, channel=3, data=[60, 0]),
   midi.NoteOnEvent(tick=0, channel=3, data=[59, 60]),
   midi.NoteOnEvent(tick=60, channel=3, data=[59, 0]),
   midi.NoteOnEvent(tick=0, channel=3, data=[57, 60]),
   midi.NoteOnEvent(tick=60, channel=3, data=[57, 0]),
   midi.NoteOnEvent(tick=0, channel=3, data=[55, 60]),
   midi.NoteOnEvent(tick=60, channel=3, data=[55, 0]),
   midi.NoteOnEvent(tick=0, channel=3, data=[54, 60]),
   midi.NoteOnEvent(tick=60, channel=3, data=[54, 0]),
   midi.NoteOnEvent(tick=0, channel=3, data=[55, 60]),
   midi.NoteOnEvent(tick=58, channel=3, data=[55, 0]),
   midi.NoteOnEvent(tick=1922, channel=3, data=[62, 60]),
   midi.NoteOnEvent(tick=60, channel=3, data=[62, 0]),
   midi.NoteOnEvent(tick=0, channel=3, data=[64, 60]),
   midi.NoteOnEvent(tick=60, channel=3, data=[64, 0]),
   midi.NoteOnEvent(tick=0, channel=3, data=[62, 60]),
   midi.NoteOnEvent(tick=60, channel=3, data=[62, 0]),
   midi.NoteOnEvent(tick=0, channel=3, data=[64, 60]),
   midi.NoteOnEvent(tick=60, channel=3, data=[64, 0]),
   midi.NoteOnEvent(tick=0, channel=3, data=[62, 60]),
   midi.NoteOnEvent(tick=60, channel=3, data=[62, 0]),
   midi.NoteOnEvent(tick=0, channel=3, data=[64, 60]),
   midi.NoteOnEvent(tick=60, channel=3, data=[64, 0]),
   midi.NoteOnEvent(tick=0, channel=3, data=[62, 60]),
   midi.NoteOnEvent(tick=60, channel=3, data=[62, 0]),
   midi.NoteOnEvent(tick=0, channel=3, data=[64, 60]),
   midi.NoteOnEvent(tick=60, channel=3, data=[64, 0]),
   midi.NoteOnEvent(tick=0, channel=3, data=[62, 60]),
   midi.NoteOnEvent(tick=60, channel=3, data=[62, 0]),
   midi.NoteOnEvent(tick=0, channel=3, data=[64, 60]),
   midi.NoteOnEvent(tick=60, channel=3, data=[64, 0]),
   midi.NoteOnEvent(tick=0, channel=3, data=[62, 60]),
   midi.NoteOnEvent(tick=60, channel=3, data=[62, 0]),
   midi.NoteOnEvent(tick=0, channel=3, data=[64, 60]),
   midi.NoteOnEvent(tick=60, channel=3, data=[64, 0]),
   midi.NoteOnEvent(tick=0, channel=3, data=[62, 60]),
   midi.NoteOnEvent(tick=60, channel=3, data=[62, 0]),
   midi.NoteOnEvent(tick=0, channel=3, data=[60, 60]),
   midi.NoteOnEvent(tick=60, channel=3, data=[60, 0]),
   midi.NoteOnEvent(tick=0, channel=3, data=[59, 60]),
   midi.NoteOnEvent(tick=60, channel=3, data=[59, 0]),
   midi.NoteOnEvent(tick=0, channel=3, data=[57, 60]),
   midi.NoteOnEvent(tick=58, channel=3, data=[57, 0]),
   midi.NoteOnEvent(tick=2, channel=3, data=[55, 60]),
   midi.NoteOnEvent(tick=100, channel=3, data=[55, 0]),
   midi.NoteOnEvent(tick=2780, channel=3, data=[56, 92]),
   midi.NoteOnEvent(tick=0, channel=3, data=[59, 92]),
   midi.NoteOnEvent(tick=100, channel=3, data=[59, 0]),
   midi.NoteOnEvent(tick=0, channel=3, data=[56, 0]),
   midi.NoteOnEvent(tick=20, channel=3, data=[56, 92]),
   midi.NoteOnEvent(tick=0, channel=3, data=[59, 92]),
   midi.NoteOnEvent(tick=210, channel=3, data=[59, 0]),
   midi.NoteOnEvent(tick=0, channel=3, data=[56, 0]),
   midi.NoteOnEvent(tick=30, channel=3, data=[57, 92]),
   midi.NoteOnEvent(tick=0, channel=3, data=[60, 92]),
   midi.NoteOnEvent(tick=100, channel=3, data=[60, 0]),
   midi.NoteOnEvent(tick=0, channel=3, data=[57, 0]),
   midi.NoteOnEvent(tick=20, channel=3, data=[56, 92]),
   midi.NoteOnEvent(tick=0, channel=3, data=[59, 92]),
   midi.NoteOnEvent(tick=100, channel=3, data=[59, 0]),
   midi.NoteOnEvent(tick=0, channel=3, data=[56, 0]),
   midi.NoteOnEvent(tick=20, channel=3, data=[57, 92]),
   midi.NoteOnEvent(tick=0, channel=3, data=[60, 92]),
   midi.NoteOnEvent(tick=100, channel=3, data=[60, 0]),
   midi.NoteOnEvent(tick=0, channel=3, data=[57, 0]),
   midi.NoteOnEvent(tick=20, channel=3, data=[59, 92]),
   midi.NoteOnEvent(tick=0, channel=3, data=[62, 92]),
   midi.NoteOnEvent(tick=100, channel=3, data=[62, 0]),
   midi.NoteOnEvent(tick=0, channel=3, data=[59, 0]),
   midi.NoteOnEvent(tick=20, channel=3, data=[57, 92]),
   midi.NoteOnEvent(tick=0, channel=3, data=[60, 92]),
   midi.NoteOnEvent(tick=100, channel=3, data=[60, 0]),
   midi.NoteOnEvent(tick=0, channel=3, data=[57, 0]),
   midi.NoteOnEvent(tick=20, channel=3, data=[56, 92]),
   midi.NoteOnEvent(tick=0, channel=3, data=[59, 92]),
   midi.NoteOnEvent(tick=100, channel=3, data=[59, 0]),
   midi.NoteOnEvent(tick=0, channel=3, data=[56, 0]),
   midi.NoteOnEvent(tick=20, channel=3, data=[56, 92]),
   midi.NoteOnEvent(tick=0, channel=3, data=[59, 92]),
   midi.NoteOnEvent(tick=210, channel=3, data=[59, 0]),
   midi.NoteOnEvent(tick=0, channel=3, data=[56, 0]),
   midi.NoteOnEvent(tick=30, channel=3, data=[57, 92]),
   midi.NoteOnEvent(tick=0, channel=3, data=[60, 92]),
   midi.NoteOnEvent(tick=100, channel=3, data=[60, 0]),
   midi.NoteOnEvent(tick=0, channel=3, data=[57, 0]),
   midi.NoteOnEvent(tick=20, channel=3, data=[56, 92]),
   midi.NoteOnEvent(tick=0, channel=3, data=[59, 92]),
   midi.NoteOnEvent(tick=100, channel=3, data=[59, 0]),
   midi.NoteOnEvent(tick=0, channel=3, data=[56, 0]),
   midi.NoteOnEvent(tick=20, channel=3, data=[57, 92]),
   midi.NoteOnEvent(tick=0, channel=3, data=[60, 92]),
   midi.NoteOnEvent(tick=100, channel=3, data=[60, 0]),
   midi.NoteOnEvent(tick=0, channel=3, data=[57, 0]),
   midi.NoteOnEvent(tick=20, channel=3, data=[59, 92]),
   midi.NoteOnEvent(tick=0, channel=3, data=[62, 92]),
   midi.NoteOnEvent(tick=100, channel=3, data=[62, 0]),
   midi.NoteOnEvent(tick=0, channel=3, data=[59, 0]),
   midi.NoteOnEvent(tick=20, channel=3, data=[57, 92]),
   midi.NoteOnEvent(tick=0, channel=3, data=[60, 92]),
   midi.NoteOnEvent(tick=100, channel=3, data=[60, 0]),
   midi.NoteOnEvent(tick=0, channel=3, data=[57, 0]),
   midi.NoteOnEvent(tick=20, channel=3, data=[56, 92]),
   midi.NoteOnEvent(tick=0, channel=3, data=[59, 92]),
   midi.NoteOnEvent(tick=100, channel=3, data=[59, 0]),
   midi.NoteOnEvent(tick=0, channel=3, data=[56, 0]),
   midi.NoteOnEvent(tick=3740, channel=3, data=[61, 92]),
   midi.NoteOnEvent(tick=0, channel=3, data=[64, 92]),
   midi.NoteOnEvent(tick=100, channel=3, data=[64, 0]),
   midi.NoteOnEvent(tick=0, channel=3, data=[61, 0]),
   midi.NoteOnEvent(tick=20, channel=3, data=[61, 92]),
   midi.NoteOnEvent(tick=0, channel=3, data=[64, 92]),
   midi.NoteOnEvent(tick=210, channel=3, data=[64, 0]),
   midi.NoteOnEvent(tick=0, channel=3, data=[61, 0]),
   midi.NoteOnEvent(tick=30, channel=3, data=[62, 92]),
   midi.NoteOnEvent(tick=0, channel=3, data=[65, 92]),
   midi.NoteOnEvent(tick=100, channel=3, data=[65, 0]),
   midi.NoteOnEvent(tick=0, channel=3, data=[62, 0]),
   midi.NoteOnEvent(tick=20, channel=3, data=[61, 92]),
   midi.NoteOnEvent(tick=0, channel=3, data=[64, 92]),
   midi.NoteOnEvent(tick=100, channel=3, data=[64, 0]),
   midi.NoteOnEvent(tick=0, channel=3, data=[61, 0]),
   midi.NoteOnEvent(tick=20, channel=3, data=[62, 92]),
   midi.NoteOnEvent(tick=0, channel=3, data=[65, 92]),
   midi.NoteOnEvent(tick=100, channel=3, data=[65, 0]),
   midi.NoteOnEvent(tick=0, channel=3, data=[62, 0]),
   midi.NoteOnEvent(tick=20, channel=3, data=[61, 92]),
   midi.NoteOnEvent(tick=0, channel=3, data=[64, 92]),
   midi.NoteOnEvent(tick=100, channel=3, data=[64, 0]),
   midi.NoteOnEvent(tick=0, channel=3, data=[61, 0]),
   midi.NoteOnEvent(tick=20, channel=3, data=[62, 92]),
   midi.NoteOnEvent(tick=0, channel=3, data=[65, 92]),
   midi.NoteOnEvent(tick=100, channel=3, data=[65, 0]),
   midi.NoteOnEvent(tick=0, channel=3, data=[62, 0]),
   midi.NoteOnEvent(tick=20, channel=3, data=[61, 92]),
   midi.NoteOnEvent(tick=0, channel=3, data=[64, 92]),
   midi.NoteOnEvent(tick=100, channel=3, data=[64, 0]),
   midi.NoteOnEvent(tick=0, channel=3, data=[61, 0]),
   midi.NoteOnEvent(tick=2780, channel=3, data=[54, 92]),
   midi.NoteOnEvent(tick=0, channel=3, data=[57, 92]),
   midi.NoteOnEvent(tick=100, channel=3, data=[57, 0]),
   midi.NoteOnEvent(tick=0, channel=3, data=[54, 0]),
   midi.NoteOnEvent(tick=20, channel=3, data=[54, 92]),
   midi.NoteOnEvent(tick=0, channel=3, data=[57, 92]),
   midi.NoteOnEvent(tick=210, channel=3, data=[57, 0]),
   midi.NoteOnEvent(tick=0, channel=3, data=[54, 0]),
   midi.NoteOnEvent(tick=30, channel=3, data=[55, 92]),
   midi.NoteOnEvent(tick=0, channel=3, data=[58, 92]),
   midi.NoteOnEvent(tick=100, channel=3, data=[58, 0]),
   midi.NoteOnEvent(tick=0, channel=3, data=[55, 0]),
   midi.NoteOnEvent(tick=20, channel=3, data=[54, 92]),
   midi.NoteOnEvent(tick=0, channel=3, data=[57, 92]),
   midi.NoteOnEvent(tick=100, channel=3, data=[57, 0]),
   midi.NoteOnEvent(tick=0, channel=3, data=[54, 0]),
   midi.NoteOnEvent(tick=20, channel=3, data=[55, 92]),
   midi.NoteOnEvent(tick=0, channel=3, data=[58, 92]),
   midi.NoteOnEvent(tick=100, channel=3, data=[58, 0]),
   midi.NoteOnEvent(tick=0, channel=3, data=[55, 0]),
   midi.NoteOnEvent(tick=20, channel=3, data=[54, 92]),
   midi.NoteOnEvent(tick=0, channel=3, data=[57, 92]),
   midi.NoteOnEvent(tick=100, channel=3, data=[57, 0]),
   midi.NoteOnEvent(tick=0, channel=3, data=[54, 0]),
   midi.NoteOnEvent(tick=20, channel=3, data=[55, 92]),
   midi.NoteOnEvent(tick=0, channel=3, data=[58, 92]),
   midi.NoteOnEvent(tick=100, channel=3, data=[58, 0]),
   midi.NoteOnEvent(tick=0, channel=3, data=[55, 0]),
   midi.NoteOnEvent(tick=20, channel=3, data=[54, 92]),
   midi.NoteOnEvent(tick=0, channel=3, data=[57, 92]),
   midi.NoteOnEvent(tick=100, channel=3, data=[57, 0]),
   midi.NoteOnEvent(tick=0, channel=3, data=[54, 0]),
   midi.NoteOnEvent(tick=3740, channel=3, data=[59, 92]),
   midi.NoteOnEvent(tick=0, channel=3, data=[62, 92]),
   midi.NoteOnEvent(tick=100, channel=3, data=[62, 0]),
   midi.NoteOnEvent(tick=0, channel=3, data=[59, 0]),
   midi.NoteOnEvent(tick=20, channel=3, data=[59, 92]),
   midi.NoteOnEvent(tick=0, channel=3, data=[62, 92]),
   midi.NoteOnEvent(tick=210, channel=3, data=[62, 0]),
   midi.NoteOnEvent(tick=0, channel=3, data=[59, 0]),
   midi.NoteOnEvent(tick=30, channel=3, data=[60, 92]),
   midi.NoteOnEvent(tick=0, channel=3, data=[63, 92]),
   midi.NoteOnEvent(tick=100, channel=3, data=[63, 0]),
   midi.NoteOnEvent(tick=0, channel=3, data=[60, 0]),
   midi.NoteOnEvent(tick=20, channel=3, data=[59, 92]),
   midi.NoteOnEvent(tick=0, channel=3, data=[62, 92]),
   midi.NoteOnEvent(tick=100, channel=3, data=[62, 0]),
   midi.NoteOnEvent(tick=0, channel=3, data=[59, 0]),
   midi.NoteOnEvent(tick=20, channel=3, data=[60, 92]),
   midi.NoteOnEvent(tick=0, channel=3, data=[63, 92]),
   midi.NoteOnEvent(tick=100, channel=3, data=[63, 0]),
   midi.NoteOnEvent(tick=0, channel=3, data=[60, 0]),
   midi.NoteOnEvent(tick=20, channel=3, data=[59, 92]),
   midi.NoteOnEvent(tick=0, channel=3, data=[62, 92]),
   midi.NoteOnEvent(tick=100, channel=3, data=[62, 0]),
   midi.NoteOnEvent(tick=0, channel=3, data=[59, 0]),
   midi.NoteOnEvent(tick=20, channel=3, data=[60, 92]),
   midi.NoteOnEvent(tick=0, channel=3, data=[63, 92]),
   midi.NoteOnEvent(tick=100, channel=3, data=[63, 0]),
   midi.NoteOnEvent(tick=0, channel=3, data=[60, 0]),
   midi.NoteOnEvent(tick=20, channel=3, data=[59, 92]),
   midi.NoteOnEvent(tick=0, channel=3, data=[62, 92]),
   midi.NoteOnEvent(tick=100, channel=3, data=[62, 0]),
   midi.NoteOnEvent(tick=0, channel=3, data=[59, 0]),
   midi.NoteOnEvent(tick=2780, channel=3, data=[52, 92]),
   midi.NoteOnEvent(tick=0, channel=3, data=[55, 92]),
   midi.NoteOnEvent(tick=100, channel=3, data=[55, 0]),
   midi.NoteOnEvent(tick=0, channel=3, data=[52, 0]),
   midi.NoteOnEvent(tick=20, channel=3, data=[52, 92]),
   midi.NoteOnEvent(tick=0, channel=3, data=[55, 92]),
   midi.NoteOnEvent(tick=210, channel=3, data=[55, 0]),
   midi.NoteOnEvent(tick=0, channel=3, data=[52, 0]),
   midi.NoteOnEvent(tick=30, channel=3, data=[53, 92]),
   midi.NoteOnEvent(tick=0, channel=3, data=[56, 92]),
   midi.NoteOnEvent(tick=100, channel=3, data=[56, 0]),
   midi.NoteOnEvent(tick=0, channel=3, data=[53, 0]),
   midi.NoteOnEvent(tick=20, channel=3, data=[52, 92]),
   midi.NoteOnEvent(tick=0, channel=3, data=[55, 92]),
   midi.NoteOnEvent(tick=100, channel=3, data=[55, 0]),
   midi.NoteOnEvent(tick=0, channel=3, data=[52, 0]),
   midi.NoteOnEvent(tick=20, channel=3, data=[53, 92]),
   midi.NoteOnEvent(tick=0, channel=3, data=[56, 92]),
   midi.NoteOnEvent(tick=100, channel=3, data=[56, 0]),
   midi.NoteOnEvent(tick=0, channel=3, data=[53, 0]),
   midi.NoteOnEvent(tick=20, channel=3, data=[52, 92]),
   midi.NoteOnEvent(tick=0, channel=3, data=[55, 92]),
   midi.NoteOnEvent(tick=100, channel=3, data=[55, 0]),
   midi.NoteOnEvent(tick=0, channel=3, data=[52, 0]),
   midi.NoteOnEvent(tick=20, channel=3, data=[53, 92]),
   midi.NoteOnEvent(tick=0, channel=3, data=[56, 92]),
   midi.NoteOnEvent(tick=100, channel=3, data=[56, 0]),
   midi.NoteOnEvent(tick=0, channel=3, data=[53, 0]),
   midi.NoteOnEvent(tick=20, channel=3, data=[52, 92]),
   midi.NoteOnEvent(tick=0, channel=3, data=[55, 92]),
   midi.NoteOnEvent(tick=100, channel=3, data=[55, 0]),
   midi.NoteOnEvent(tick=0, channel=3, data=[52, 0]),
   midi.NoteOnEvent(tick=860, channel=3, data=[54, 60]),
   midi.NoteOnEvent(tick=60, channel=3, data=[54, 0]),
   midi.NoteOnEvent(tick=0, channel=3, data=[55, 60]),
   midi.NoteOnEvent(tick=60, channel=3, data=[55, 0]),
   midi.NoteOnEvent(tick=0, channel=3, data=[57, 60]),
   midi.NoteOnEvent(tick=60, channel=3, data=[57, 0]),
   midi.NoteOnEvent(tick=0, channel=3, data=[55, 60]),
   midi.NoteOnEvent(tick=60, channel=3, data=[55, 0]),
   midi.NoteOnEvent(tick=0, channel=3, data=[54, 60]),
   midi.NoteOnEvent(tick=100, channel=3, data=[54, 0]),
   midi.NoteOnEvent(tick=140, channel=3, data=[55, 60]),
   midi.NoteOnEvent(tick=60, channel=3, data=[55, 0]),
   midi.NoteOnEvent(tick=0, channel=3, data=[57, 60]),
   midi.NoteOnEvent(tick=60, channel=3, data=[57, 0]),
   midi.NoteOnEvent(tick=0, channel=3, data=[58, 60]),
   midi.NoteOnEvent(tick=60, channel=3, data=[58, 0]),
   midi.NoteOnEvent(tick=0, channel=3, data=[57, 60]),
   midi.NoteOnEvent(tick=60, channel=3, data=[57, 0]),
   midi.NoteOnEvent(tick=0, channel=3, data=[55, 60]),
   midi.NoteOnEvent(tick=60, channel=3, data=[55, 0]),
   midi.NoteOnEvent(tick=0, channel=3, data=[57, 60]),
   midi.NoteOnEvent(tick=60, channel=3, data=[57, 0]),
   midi.NoteOnEvent(tick=0, channel=3, data=[55, 60]),
   midi.NoteOnEvent(tick=60, channel=3, data=[55, 0]),
   midi.NoteOnEvent(tick=0, channel=3, data=[53, 60]),
   midi.NoteOnEvent(tick=58, channel=3, data=[53, 0]),
   midi.NoteOnEvent(tick=2, channel=3, data=[52, 60]),
   midi.NoteOnEvent(tick=60, channel=3, data=[52, 0]),
   midi.NoteOnEvent(tick=0, channel=3, data=[53, 60]),
   midi.NoteOnEvent(tick=60, channel=3, data=[53, 0]),
   midi.NoteOnEvent(tick=0, channel=3, data=[55, 60]),
   midi.NoteOnEvent(tick=60, channel=3, data=[55, 0]),
   midi.NoteOnEvent(tick=0, channel=3, data=[53, 60]),
   midi.NoteOnEvent(tick=60, channel=3, data=[53, 0]),
   midi.NoteOnEvent(tick=0, channel=3, data=[52, 60]),
   midi.NoteOnEvent(tick=100, channel=3, data=[52, 0]),
   midi.NoteOnEvent(tick=140, channel=3, data=[53, 60]),
   midi.NoteOnEvent(tick=60, channel=3, data=[53, 0]),
   midi.NoteOnEvent(tick=0, channel=3, data=[55, 60]),
   midi.NoteOnEvent(tick=60, channel=3, data=[55, 0]),
   midi.NoteOnEvent(tick=0, channel=3, data=[57, 60]),
   midi.NoteOnEvent(tick=60, channel=3, data=[57, 0]),
   midi.NoteOnEvent(tick=0, channel=3, data=[55, 60]),
   midi.NoteOnEvent(tick=60, channel=3, data=[55, 0]),
   midi.NoteOnEvent(tick=0, channel=3, data=[53, 60]),
   midi.NoteOnEvent(tick=60, channel=3, data=[53, 0]),
   midi.NoteOnEvent(tick=0, channel=3, data=[55, 60]),
   midi.NoteOnEvent(tick=60, channel=3, data=[55, 0]),
   midi.NoteOnEvent(tick=0, channel=3, data=[53, 60]),
   midi.NoteOnEvent(tick=60, channel=3, data=[53, 0]),
   midi.NoteOnEvent(tick=0, channel=3, data=[52, 60]),
   midi.NoteOnEvent(tick=58, channel=3, data=[52, 0]),
   midi.NoteOnEvent(tick=2, channel=3, data=[50, 60]),
   midi.NoteOnEvent(tick=60, channel=3, data=[50, 0]),
   midi.NoteOnEvent(tick=0, channel=3, data=[52, 60]),
   midi.NoteOnEvent(tick=60, channel=3, data=[52, 0]),
   midi.NoteOnEvent(tick=0, channel=3, data=[53, 60]),
   midi.NoteOnEvent(tick=60, channel=3, data=[53, 0]),
   midi.NoteOnEvent(tick=0, channel=3, data=[52, 60]),
   midi.NoteOnEvent(tick=60, channel=3, data=[52, 0]),
   midi.NoteOnEvent(tick=0, channel=3, data=[50, 60]),
   midi.NoteOnEvent(tick=100, channel=3, data=[50, 0]),
   midi.NoteOnEvent(tick=140, channel=3, data=[52, 60]),
   midi.NoteOnEvent(tick=60, channel=3, data=[52, 0]),
   midi.NoteOnEvent(tick=0, channel=3, data=[53, 60]),
   midi.NoteOnEvent(tick=60, channel=3, data=[53, 0]),
   midi.NoteOnEvent(tick=0, channel=3, data=[55, 60]),
   midi.NoteOnEvent(tick=60, channel=3, data=[55, 0]),
   midi.NoteOnEvent(tick=0, channel=3, data=[53, 60]),
   midi.NoteOnEvent(tick=60, channel=3, data=[53, 0]),
   midi.NoteOnEvent(tick=0, channel=3, data=[52, 60]),
   midi.NoteOnEvent(tick=60, channel=3, data=[52, 0]),
   midi.NoteOnEvent(tick=0, channel=3, data=[48, 60]),
   midi.NoteOnEvent(tick=60, channel=3, data=[48, 0]),
   midi.NoteOnEvent(tick=0, channel=3, data=[50, 60]),
   midi.NoteOnEvent(tick=60, channel=3, data=[50, 0]),
   midi.NoteOnEvent(tick=0, channel=3, data=[52, 60]),
   midi.NoteOnEvent(tick=58, channel=3, data=[52, 0]),
   midi.NoteOnEvent(tick=2, channel=3, data=[53, 60]),
   midi.NoteOnEvent(tick=100, channel=3, data=[53, 0]),
   midi.NoteOnEvent(tick=3740, channel=3, data=[57, 60]),
   midi.NoteOnEvent(tick=60, channel=3, data=[57, 0]),
   midi.NoteOnEvent(tick=0, channel=3, data=[60, 60]),
   midi.NoteOnEvent(tick=60, channel=3, data=[60, 0]),
   midi.NoteOnEvent(tick=0, channel=3, data=[58, 60]),
   midi.NoteOnEvent(tick=60, channel=3, data=[58, 0]),
   midi.NoteOnEvent(tick=0, channel=3, data=[57, 60]),
   midi.NoteOnEvent(tick=60, channel=3, data=[57, 0]),
   midi.NoteOnEvent(tick=0, channel=3, data=[55, 60]),
   midi.NoteOnEvent(tick=60, channel=3, data=[55, 0]),
   midi.NoteOnEvent(tick=0, channel=3, data=[53, 60]),
   midi.NoteOnEvent(tick=60, channel=3, data=[53, 0]),
   midi.NoteOnEvent(tick=0, channel=3, data=[52, 60]),
   midi.NoteOnEvent(tick=60, channel=3, data=[52, 0]),
   midi.NoteOnEvent(tick=0, channel=3, data=[53, 60]),
   midi.NoteOnEvent(tick=58, channel=3, data=[53, 0]),
   midi.NoteOnEvent(tick=2, channel=3, data=[57, 60]),
   midi.NoteOnEvent(tick=60, channel=3, data=[57, 0]),
   midi.NoteOnEvent(tick=0, channel=3, data=[60, 60]),
   midi.NoteOnEvent(tick=60, channel=3, data=[60, 0]),
   midi.NoteOnEvent(tick=0, channel=3, data=[58, 60]),
   midi.NoteOnEvent(tick=60, channel=3, data=[58, 0]),
   midi.NoteOnEvent(tick=0, channel=3, data=[57, 60]),
   midi.NoteOnEvent(tick=60, channel=3, data=[57, 0]),
   midi.NoteOnEvent(tick=0, channel=3, data=[55, 60]),
   midi.NoteOnEvent(tick=60, channel=3, data=[55, 0]),
   midi.NoteOnEvent(tick=0, channel=3, data=[53, 60]),
   midi.NoteOnEvent(tick=60, channel=3, data=[53, 0]),
   midi.NoteOnEvent(tick=0, channel=3, data=[52, 60]),
   midi.NoteOnEvent(tick=60, channel=3, data=[52, 0]),
   midi.NoteOnEvent(tick=0, channel=3, data=[53, 60]),
   midi.NoteOnEvent(tick=58, channel=3, data=[53, 0]),
   midi.NoteOnEvent(tick=2, channel=3, data=[62, 60]),
   midi.NoteOnEvent(tick=60, channel=3, data=[62, 0]),
   midi.NoteOnEvent(tick=0, channel=3, data=[65, 60]),
   midi.NoteOnEvent(tick=60, channel=3, data=[65, 0]),
   midi.NoteOnEvent(tick=0, channel=3, data=[63, 60]),
   midi.NoteOnEvent(tick=60, channel=3, data=[63, 0]),
   midi.NoteOnEvent(tick=0, channel=3, data=[62, 60]),
   midi.NoteOnEvent(tick=60, channel=3, data=[62, 0]),
   midi.NoteOnEvent(tick=0, channel=3, data=[60, 60]),
   midi.NoteOnEvent(tick=60, channel=3, data=[60, 0]),
   midi.NoteOnEvent(tick=0, channel=3, data=[58, 60]),
   midi.NoteOnEvent(tick=60, channel=3, data=[58, 0]),
   midi.NoteOnEvent(tick=0, channel=3, data=[57, 60]),
   midi.NoteOnEvent(tick=60, channel=3, data=[57, 0]),
   midi.NoteOnEvent(tick=0, channel=3, data=[58, 60]),
   midi.NoteOnEvent(tick=58, channel=3, data=[58, 0]),
   midi.NoteOnEvent(tick=2, channel=3, data=[62, 60]),
   midi.NoteOnEvent(tick=60, channel=3, data=[62, 0]),
   midi.NoteOnEvent(tick=0, channel=3, data=[65, 60]),
   midi.NoteOnEvent(tick=60, channel=3, data=[65, 0]),
   midi.NoteOnEvent(tick=0, channel=3, data=[63, 60]),
   midi.NoteOnEvent(tick=60, channel=3, data=[63, 0]),
   midi.NoteOnEvent(tick=0, channel=3, data=[62, 60]),
   midi.NoteOnEvent(tick=60, channel=3, data=[62, 0]),
   midi.NoteOnEvent(tick=0, channel=3, data=[60, 60]),
   midi.NoteOnEvent(tick=60, channel=3, data=[60, 0]),
   midi.NoteOnEvent(tick=0, channel=3, data=[58, 60]),
   midi.NoteOnEvent(tick=60, channel=3, data=[58, 0]),
   midi.NoteOnEvent(tick=0, channel=3, data=[57, 60]),
   midi.NoteOnEvent(tick=60, channel=3, data=[57, 0]),
   midi.NoteOnEvent(tick=0, channel=3, data=[58, 60]),
   midi.NoteOnEvent(tick=58, channel=3, data=[58, 0]),
   midi.NoteOnEvent(tick=962, channel=3, data=[60, 60]),
   midi.NoteOnEvent(tick=60, channel=3, data=[60, 0]),
   midi.NoteOnEvent(tick=0, channel=3, data=[62, 60]),
   midi.NoteOnEvent(tick=60, channel=3, data=[62, 0]),
   midi.NoteOnEvent(tick=0, channel=3, data=[60, 60]),
   midi.NoteOnEvent(tick=60, channel=3, data=[60, 0]),
   midi.NoteOnEvent(tick=0, channel=3, data=[62, 60]),
   midi.NoteOnEvent(tick=60, channel=3, data=[62, 0]),
   midi.NoteOnEvent(tick=0, channel=3, data=[60, 60]),
   midi.NoteOnEvent(tick=60, channel=3, data=[60, 0]),
   midi.NoteOnEvent(tick=0, channel=3, data=[62, 60]),
   midi.NoteOnEvent(tick=60, channel=3, data=[62, 0]),
   midi.NoteOnEvent(tick=0, channel=3, data=[60, 60]),
   midi.NoteOnEvent(tick=60, channel=3, data=[60, 0]),
   midi.NoteOnEvent(tick=0, channel=3, data=[62, 60]),
   midi.NoteOnEvent(tick=60, channel=3, data=[62, 0]),
   midi.NoteOnEvent(tick=0, channel=3, data=[60, 60]),
   midi.NoteOnEvent(tick=60, channel=3, data=[60, 0]),
   midi.NoteOnEvent(tick=0, channel=3, data=[62, 60]),
   midi.NoteOnEvent(tick=60, channel=3, data=[62, 0]),
   midi.NoteOnEvent(tick=0, channel=3, data=[60, 60]),
   midi.NoteOnEvent(tick=60, channel=3, data=[60, 0]),
   midi.NoteOnEvent(tick=0, channel=3, data=[62, 60]),
   midi.NoteOnEvent(tick=60, channel=3, data=[62, 0]),
   midi.NoteOnEvent(tick=0, channel=3, data=[60, 60]),
   midi.NoteOnEvent(tick=60, channel=3, data=[60, 0]),
   midi.NoteOnEvent(tick=0, channel=3, data=[58, 60]),
   midi.NoteOnEvent(tick=60, channel=3, data=[58, 0]),
   midi.NoteOnEvent(tick=0, channel=3, data=[57, 60]),
   midi.NoteOnEvent(tick=60, channel=3, data=[57, 0]),
   midi.NoteOnEvent(tick=0, channel=3, data=[55, 60]),
   midi.NoteOnEvent(tick=58, channel=3, data=[55, 0]),
   midi.NoteOnEvent(tick=2, channel=3, data=[53, 60]),
   midi.NoteOnEvent(tick=100, channel=3, data=[53, 0]),
   midi.NoteOnEvent(tick=20, channel=3, data=[65, 92]),
   midi.NoteOnEvent(tick=210, channel=3, data=[65, 0]),
   midi.NoteOnEvent(tick=30, channel=3, data=[64, 92]),
   midi.NoteOnEvent(tick=100, channel=3, data=[64, 0]),
   midi.NoteOnEvent(tick=20, channel=3, data=[65, 92]),
   midi.NoteOnEvent(tick=100, channel=3, data=[65, 0]),
   midi.NoteOnEvent(tick=20, channel=3, data=[64, 92]),
   midi.NoteOnEvent(tick=100, channel=3, data=[64, 0]),
   midi.NoteOnEvent(tick=20, channel=3, data=[65, 92]),
   midi.NoteOnEvent(tick=100, channel=3, data=[65, 0]),
   midi.NoteOnEvent(tick=20, channel=3, data=[61, 92]),
   midi.NoteOnEvent(tick=100, channel=3, data=[61, 0]),
   midi.NoteOnEvent(tick=20, channel=3, data=[62, 92]),
   midi.NoteOnEvent(tick=100, channel=3, data=[62, 0]),
   midi.NoteOnEvent(tick=20, channel=3, data=[62, 92]),
   midi.NoteOnEvent(tick=210, channel=3, data=[62, 0]),
   midi.NoteOnEvent(tick=30, channel=3, data=[61, 92]),
   midi.NoteOnEvent(tick=100, channel=3, data=[61, 0]),
   midi.NoteOnEvent(tick=20, channel=3, data=[62, 92]),
   midi.NoteOnEvent(tick=100, channel=3, data=[62, 0]),
   midi.NoteOnEvent(tick=20, channel=3, data=[61, 92]),
   midi.NoteOnEvent(tick=100, channel=3, data=[61, 0]),
   midi.NoteOnEvent(tick=20, channel=3, data=[62, 92]),
   midi.NoteOnEvent(tick=100, channel=3, data=[62, 0]),
   midi.NoteOnEvent(tick=20, channel=3, data=[59, 92]),
   midi.NoteOnEvent(tick=100, channel=3, data=[59, 0]),
   midi.NoteOnEvent(tick=20, channel=3, data=[60, 92]),
   midi.NoteOnEvent(tick=100, channel=3, data=[60, 0]),
   midi.NoteOnEvent(tick=20, channel=3, data=[60, 92]),
   midi.NoteOnEvent(tick=210, channel=3, data=[60, 0]),
   midi.NoteOnEvent(tick=30, channel=3, data=[59, 92]),
   midi.NoteOnEvent(tick=100, channel=3, data=[59, 0]),
   midi.NoteOnEvent(tick=20, channel=3, data=[60, 92]),
   midi.NoteOnEvent(tick=100, channel=3, data=[60, 0]),
   midi.NoteOnEvent(tick=20, channel=3, data=[59, 92]),
   midi.NoteOnEvent(tick=100, channel=3, data=[59, 0]),
   midi.NoteOnEvent(tick=20, channel=3, data=[60, 92]),
   midi.NoteOnEvent(tick=100, channel=3, data=[60, 0]),
   midi.NoteOnEvent(tick=20, channel=3, data=[55, 92]),
   midi.NoteOnEvent(tick=100, channel=3, data=[55, 0]),
   midi.NoteOnEvent(tick=20, channel=3, data=[56, 92]),
   midi.NoteOnEvent(tick=100, channel=3, data=[56, 0]),
   midi.NoteOnEvent(tick=20, channel=3, data=[55, 92]),
   midi.NoteOnEvent(tick=100, channel=3, data=[55, 0]),
   midi.NoteOnEvent(tick=20, channel=3, data=[56, 92]),
   midi.NoteOnEvent(tick=100, channel=3, data=[56, 0]),
   midi.NoteOnEvent(tick=20, channel=3, data=[52, 92]),
   midi.NoteOnEvent(tick=100, channel=3, data=[52, 0]),
   midi.NoteOnEvent(tick=20, channel=3, data=[53, 92]),
   midi.NoteOnEvent(tick=100, channel=3, data=[53, 0]),
   midi.NoteOnEvent(tick=20, channel=3, data=[52, 92]),
   midi.NoteOnEvent(tick=100, channel=3, data=[52, 0]),
   midi.NoteOnEvent(tick=20, channel=3, data=[53, 92]),
   midi.NoteOnEvent(tick=100, channel=3, data=[53, 0]),
   midi.NoteOnEvent(tick=20, channel=3, data=[48, 92]),
   midi.NoteOnEvent(tick=100, channel=3, data=[48, 0]),
   midi.NoteOnEvent(tick=20, channel=3, data=[56, 92]),
   midi.NoteOnEvent(tick=100, channel=3, data=[56, 0]),
   midi.NoteOnEvent(tick=20, channel=3, data=[55, 92]),
   midi.NoteOnEvent(tick=100, channel=3, data=[55, 0]),
   midi.NoteOnEvent(tick=20, channel=3, data=[53, 92]),
   midi.NoteOnEvent(tick=100, channel=3, data=[53, 0]),
   midi.NoteOnEvent(tick=20, channel=3, data=[52, 92]),
   midi.NoteOnEvent(tick=100, channel=3, data=[52, 0]),
   midi.NoteOnEvent(tick=20, channel=3, data=[56, 92]),
   midi.NoteOnEvent(tick=100, channel=3, data=[56, 0]),
   midi.NoteOnEvent(tick=20, channel=3, data=[55, 92]),
   midi.NoteOnEvent(tick=100, channel=3, data=[55, 0]),
   midi.NoteOnEvent(tick=20, channel=3, data=[53, 92]),
   midi.NoteOnEvent(tick=100, channel=3, data=[53, 0]),
   midi.NoteOnEvent(tick=20, channel=3, data=[54, 92]),
   midi.NoteOnEvent(tick=100, channel=3, data=[54, 0]),
   midi.NoteOnEvent(tick=20, channel=3, data=[55, 60]),
   midi.NoteOnEvent(tick=0, channel=3, data=[59, 60]),
   midi.NoteOnEvent(tick=60, channel=3, data=[59, 0]),
   midi.NoteOnEvent(tick=0, channel=3, data=[62, 60]),
   midi.NoteOnEvent(tick=40, channel=3, data=[55, 0]),
   midi.NoteOnEvent(tick=20, channel=3, data=[62, 0]),
   midi.NoteOnEvent(tick=0, channel=3, data=[60, 60]),
   midi.NoteOnEvent(tick=60, channel=3, data=[60, 0]),
   midi.NoteOnEvent(tick=0, channel=3, data=[59, 60]),
   midi.NoteOnEvent(tick=60, channel=3, data=[59, 0]),
   midi.NoteOnEvent(tick=0, channel=3, data=[57, 60]),
   midi.NoteOnEvent(tick=60, channel=3, data=[57, 0]),
   midi.NoteOnEvent(tick=0, channel=3, data=[55, 60]),
   midi.NoteOnEvent(tick=60, channel=3, data=[55, 0]),
   midi.NoteOnEvent(tick=0, channel=3, data=[54, 60]),
   midi.NoteOnEvent(tick=60, channel=3, data=[54, 0]),
   midi.NoteOnEvent(tick=0, channel=3, data=[55, 60]),
   midi.NoteOnEvent(tick=58, channel=3, data=[55, 0]),
   midi.NoteOnEvent(tick=2, channel=3, data=[59, 60]),
   midi.NoteOnEvent(tick=60, channel=3, data=[59, 0]),
   midi.NoteOnEvent(tick=0, channel=3, data=[62, 60]),
   midi.NoteOnEvent(tick=60, channel=3, data=[62, 0]),
   midi.NoteOnEvent(tick=0, channel=3, data=[60, 60]),
   midi.NoteOnEvent(tick=60, channel=3, data=[60, 0]),
   midi.NoteOnEvent(tick=0, channel=3, data=[59, 60]),
   midi.NoteOnEvent(tick=60, channel=3, data=[59, 0]),
   midi.NoteOnEvent(tick=0, channel=3, data=[57, 60]),
   midi.NoteOnEvent(tick=60, channel=3, data=[57, 0]),
   midi.NoteOnEvent(tick=0, channel=3, data=[55, 60]),
   midi.NoteOnEvent(tick=60, channel=3, data=[55, 0]),
   midi.NoteOnEvent(tick=0, channel=3, data=[54, 60]),
   midi.NoteOnEvent(tick=60, channel=3, data=[54, 0]),
   midi.NoteOnEvent(tick=0, channel=3, data=[55, 60]),
   midi.NoteOnEvent(tick=58, channel=3, data=[55, 0]),
   midi.NoteOnEvent(tick=2, channel=3, data=[63, 60]),
   midi.NoteOnEvent(tick=60, channel=3, data=[63, 0]),
   midi.NoteOnEvent(tick=0, channel=3, data=[67, 60]),
   midi.NoteOnEvent(tick=60, channel=3, data=[67, 0]),
   midi.NoteOnEvent(tick=0, channel=3, data=[65, 60]),
   midi.NoteOnEvent(tick=60, channel=3, data=[65, 0]),
   midi.NoteOnEvent(tick=0, channel=3, data=[63, 60]),
   midi.NoteOnEvent(tick=60, channel=3, data=[63, 0]),
   midi.NoteOnEvent(tick=0, channel=3, data=[62, 60]),
   midi.NoteOnEvent(tick=60, channel=3, data=[62, 0]),
   midi.NoteOnEvent(tick=0, channel=3, data=[60, 60]),
   midi.NoteOnEvent(tick=60, channel=3, data=[60, 0]),
   midi.NoteOnEvent(tick=0, channel=3, data=[59, 60]),
   midi.NoteOnEvent(tick=60, channel=3, data=[59, 0]),
   midi.NoteOnEvent(tick=0, channel=3, data=[60, 60]),
   midi.NoteOnEvent(tick=58, channel=3, data=[60, 0]),
   midi.NoteOnEvent(tick=2, channel=3, data=[63, 60]),
   midi.NoteOnEvent(tick=60, channel=3, data=[63, 0]),
   midi.NoteOnEvent(tick=0, channel=3, data=[67, 60]),
   midi.NoteOnEvent(tick=60, channel=3, data=[67, 0]),
   midi.NoteOnEvent(tick=0, channel=3, data=[65, 60]),
   midi.NoteOnEvent(tick=60, channel=3, data=[65, 0]),
   midi.NoteOnEvent(tick=0, channel=3, data=[63, 60]),
   midi.NoteOnEvent(tick=60, channel=3, data=[63, 0]),
   midi.NoteOnEvent(tick=0, channel=3, data=[62, 60]),
   midi.NoteOnEvent(tick=60, channel=3, data=[62, 0]),
   midi.NoteOnEvent(tick=0, channel=3, data=[60, 60]),
   midi.NoteOnEvent(tick=60, channel=3, data=[60, 0]),
   midi.NoteOnEvent(tick=0, channel=3, data=[59, 60]),
   midi.NoteOnEvent(tick=60, channel=3, data=[59, 0]),
   midi.NoteOnEvent(tick=0, channel=3, data=[60, 60]),
   midi.NoteOnEvent(tick=58, channel=3, data=[60, 0]),
   midi.NoteOnEvent(tick=4802, channel=3, data=[64, 92]),
   midi.NoteOnEvent(tick=100, channel=3, data=[64, 0]),
   midi.NoteOnEvent(tick=20, channel=3, data=[64, 92]),
   midi.NoteOnEvent(tick=210, channel=3, data=[64, 0]),
   midi.NoteOnEvent(tick=30, channel=3, data=[65, 92]),
   midi.NoteOnEvent(tick=100, channel=3, data=[65, 0]),
   midi.NoteOnEvent(tick=20, channel=3, data=[64, 92]),
   midi.NoteOnEvent(tick=100, channel=3, data=[64, 0]),
   midi.NoteOnEvent(tick=20, channel=3, data=[65, 92]),
   midi.NoteOnEvent(tick=100, channel=3, data=[65, 0]),
   midi.NoteOnEvent(tick=20, channel=3, data=[64, 92]),
   midi.NoteOnEvent(tick=100, channel=3, data=[64, 0]),
   midi.NoteOnEvent(tick=20, channel=3, data=[65, 92]),
   midi.NoteOnEvent(tick=100, channel=3, data=[65, 0]),
   midi.NoteOnEvent(tick=20, channel=3, data=[64, 92]),
   midi.NoteOnEvent(tick=100, channel=3, data=[64, 0]),
   midi.NoteOnEvent(tick=20, channel=3, data=[64, 92]),
   midi.NoteOnEvent(tick=210, channel=3, data=[64, 0]),
   midi.NoteOnEvent(tick=30, channel=3, data=[65, 92]),
   midi.NoteOnEvent(tick=100, channel=3, data=[65, 0]),
   midi.NoteOnEvent(tick=20, channel=3, data=[64, 92]),
   midi.NoteOnEvent(tick=100, channel=3, data=[64, 0]),
   midi.NoteOnEvent(tick=20, channel=3, data=[65, 92]),
   midi.NoteOnEvent(tick=100, channel=3, data=[65, 0]),
   midi.NoteOnEvent(tick=20, channel=3, data=[64, 92]),
   midi.NoteOnEvent(tick=100, channel=3, data=[64, 0]),
   midi.NoteOnEvent(tick=20, channel=3, data=[65, 92]),
   midi.NoteOnEvent(tick=100, channel=3, data=[65, 0]),
   midi.NoteOnEvent(tick=20, channel=3, data=[64, 92]),
   midi.NoteOnEvent(tick=100, channel=3, data=[64, 0]),
   midi.NoteOnEvent(tick=1820, channel=3, data=[64, 75]),
   midi.NoteOnEvent(tick=60, channel=3, data=[64, 0]),
   midi.NoteOnEvent(tick=0, channel=3, data=[67, 75]),
   midi.NoteOnEvent(tick=60, channel=3, data=[67, 0]),
   midi.NoteOnEvent(tick=0, channel=3, data=[65, 75]),
   midi.NoteOnEvent(tick=60, channel=3, data=[65, 0]),
   midi.NoteOnEvent(tick=0, channel=3, data=[64, 75]),
   midi.NoteOnEvent(tick=60, channel=3, data=[64, 0]),
   midi.NoteOnEvent(tick=0, channel=3, data=[62, 75]),
   midi.NoteOnEvent(tick=60, channel=3, data=[62, 0]),
   midi.NoteOnEvent(tick=0, channel=3, data=[60, 75]),
   midi.NoteOnEvent(tick=60, channel=3, data=[60, 0]),
   midi.NoteOnEvent(tick=0, channel=3, data=[59, 75]),
   midi.NoteOnEvent(tick=60, channel=3, data=[59, 0]),
   midi.NoteOnEvent(tick=0, channel=3, data=[60, 75]),
   midi.NoteOnEvent(tick=58, channel=3, data=[60, 0]),
   midi.NoteOnEvent(tick=2, channel=3, data=[64, 75]),
   midi.NoteOnEvent(tick=60, channel=3, data=[64, 0]),
   midi.NoteOnEvent(tick=0, channel=3, data=[67, 75]),
   midi.NoteOnEvent(tick=60, channel=3, data=[67, 0]),
   midi.NoteOnEvent(tick=0, channel=3, data=[65, 75]),
   midi.NoteOnEvent(tick=60, channel=3, data=[65, 0]),
   midi.NoteOnEvent(tick=0, channel=3, data=[64, 75]),
   midi.NoteOnEvent(tick=60, channel=3, data=[64, 0]),
   midi.NoteOnEvent(tick=0, channel=3, data=[62, 75]),
   midi.NoteOnEvent(tick=60, channel=3, data=[62, 0]),
   midi.NoteOnEvent(tick=0, channel=3, data=[60, 75]),
   midi.NoteOnEvent(tick=60, channel=3, data=[60, 0]),
   midi.NoteOnEvent(tick=0, channel=3, data=[59, 75]),
   midi.NoteOnEvent(tick=60, channel=3, data=[59, 0]),
   midi.NoteOnEvent(tick=0, channel=3, data=[60, 75]),
   midi.NoteOnEvent(tick=58, channel=3, data=[60, 0]),
   midi.NoteOnEvent(tick=2, channel=3, data=[59, 60]),
   midi.NoteOnEvent(tick=0, channel=3, data=[62, 60]),
   midi.NoteOnEvent(tick=240, channel=3, data=[62, 0]),
   midi.NoteOnEvent(tick=0, channel=3, data=[59, 0]),
   midi.NoteOnEvent(tick=0, channel=3, data=[60, 60]),
   midi.NoteOnEvent(tick=0, channel=3, data=[64, 60]),
   midi.NoteOnEvent(tick=240, channel=3, data=[64, 0]),
   midi.NoteOnEvent(tick=0, channel=3, data=[60, 0]),
   midi.NoteOnEvent(tick=0, channel=3, data=[62, 60]),
   midi.NoteOnEvent(tick=0, channel=3, data=[65, 60]),
   midi.NoteOnEvent(tick=240, channel=3, data=[65, 0]),
   midi.NoteOnEvent(tick=0, channel=3, data=[62, 0]),
   midi.NoteOnEvent(tick=0, channel=3, data=[59, 60]),
   midi.NoteOnEvent(tick=0, channel=3, data=[62, 60]),
   midi.NoteOnEvent(tick=210, channel=3, data=[62, 0]),
   midi.NoteOnEvent(tick=0, channel=3, data=[59, 0]),
   midi.NoteOnEvent(tick=30, channel=3, data=[60, 60]),
   midi.NoteOnEvent(tick=100, channel=3, data=[60, 0]),
   midi.NoteOnEvent(tick=1820, channel=3, data=[64, 60]),
   midi.NoteOnEvent(tick=60, channel=3, data=[64, 0]),
   midi.NoteOnEvent(tick=0, channel=3, data=[67, 60]),
   midi.NoteOnEvent(tick=60, channel=3, data=[67, 0]),
   midi.NoteOnEvent(tick=0, channel=3, data=[65, 60]),
   midi.NoteOnEvent(tick=60, channel=3, data=[65, 0]),
   midi.NoteOnEvent(tick=0, channel=3, data=[64, 60]),
   midi.NoteOnEvent(tick=60, channel=3, data=[64, 0]),
   midi.NoteOnEvent(tick=0, channel=3, data=[62, 60]),
   midi.NoteOnEvent(tick=60, channel=3, data=[62, 0]),
   midi.NoteOnEvent(tick=0, channel=3, data=[60, 60]),
   midi.NoteOnEvent(tick=60, channel=3, data=[60, 0]),
   midi.NoteOnEvent(tick=0, channel=3, data=[59, 60]),
   midi.NoteOnEvent(tick=60, channel=3, data=[59, 0]),
   midi.NoteOnEvent(tick=0, channel=3, data=[60, 60]),
   midi.NoteOnEvent(tick=58, channel=3, data=[60, 0]),
   midi.NoteOnEvent(tick=2, channel=3, data=[64, 60]),
   midi.NoteOnEvent(tick=60, channel=3, data=[64, 0]),
   midi.NoteOnEvent(tick=0, channel=3, data=[67, 60]),
   midi.NoteOnEvent(tick=60, channel=3, data=[67, 0]),
   midi.NoteOnEvent(tick=0, channel=3, data=[65, 60]),
   midi.NoteOnEvent(tick=60, channel=3, data=[65, 0]),
   midi.NoteOnEvent(tick=0, channel=3, data=[64, 60]),
   midi.NoteOnEvent(tick=60, channel=3, data=[64, 0]),
   midi.NoteOnEvent(tick=0, channel=3, data=[62, 60]),
   midi.NoteOnEvent(tick=60, channel=3, data=[62, 0]),
   midi.NoteOnEvent(tick=0, channel=3, data=[60, 60]),
   midi.NoteOnEvent(tick=60, channel=3, data=[60, 0]),
   midi.NoteOnEvent(tick=0, channel=3, data=[59, 60]),
   midi.NoteOnEvent(tick=60, channel=3, data=[59, 0]),
   midi.NoteOnEvent(tick=0, channel=3, data=[60, 60]),
   midi.NoteOnEvent(tick=58, channel=3, data=[60, 0]),
   midi.NoteOnEvent(tick=2, channel=3, data=[59, 60]),
   midi.NoteOnEvent(tick=0, channel=3, data=[62, 60]),
   midi.NoteOnEvent(tick=240, channel=3, data=[62, 0]),
   midi.NoteOnEvent(tick=0, channel=3, data=[59, 0]),
   midi.NoteOnEvent(tick=0, channel=3, data=[60, 60]),
   midi.NoteOnEvent(tick=0, channel=3, data=[64, 60]),
   midi.NoteOnEvent(tick=240, channel=3, data=[64, 0]),
   midi.NoteOnEvent(tick=0, channel=3, data=[60, 0]),
   midi.NoteOnEvent(tick=0, channel=3, data=[62, 60]),
   midi.NoteOnEvent(tick=0, channel=3, data=[65, 60]),
   midi.NoteOnEvent(tick=240, channel=3, data=[65, 0]),
   midi.NoteOnEvent(tick=0, channel=3, data=[62, 0]),
   midi.NoteOnEvent(tick=0, channel=3, data=[59, 60]),
   midi.NoteOnEvent(tick=0, channel=3, data=[62, 60]),
   midi.NoteOnEvent(tick=210, channel=3, data=[62, 0]),
   midi.NoteOnEvent(tick=0, channel=3, data=[59, 0]),
   midi.NoteOnEvent(tick=30, channel=3, data=[60, 60]),
   midi.NoteOnEvent(tick=0, channel=3, data=[64, 60]),
   midi.NoteOnEvent(tick=100, channel=3, data=[64, 0]),
   midi.NoteOnEvent(tick=0, channel=3, data=[60, 0]),
   midi.NoteOnEvent(tick=20, channel=3, data=[60, 92]),
   midi.NoteOnEvent(tick=210, channel=3, data=[60, 0]),
   midi.NoteOnEvent(tick=30, channel=3, data=[59, 92]),
   midi.NoteOnEvent(tick=100, channel=3, data=[59, 0]),
   midi.NoteOnEvent(tick=20, channel=3, data=[60, 92]),
   midi.NoteOnEvent(tick=100, channel=3, data=[60, 0]),
   midi.NoteOnEvent(tick=20, channel=3, data=[59, 92]),
   midi.NoteOnEvent(tick=100, channel=3, data=[59, 0]),
   midi.NoteOnEvent(tick=20, channel=3, data=[60, 92]),
   midi.NoteOnEvent(tick=100, channel=3, data=[60, 0]),
   midi.NoteOnEvent(tick=20, channel=3, data=[56, 92]),
   midi.NoteOnEvent(tick=100, channel=3, data=[56, 0]),
   midi.NoteOnEvent(tick=20, channel=3, data=[57, 92]),
   midi.NoteOnEvent(tick=100, channel=3, data=[57, 0]),
   midi.NoteOnEvent(tick=20, channel=3, data=[57, 92]),
   midi.NoteOnEvent(tick=210, channel=3, data=[57, 0]),
   midi.NoteOnEvent(tick=30, channel=3, data=[56, 92]),
   midi.NoteOnEvent(tick=100, channel=3, data=[56, 0]),
   midi.NoteOnEvent(tick=20, channel=3, data=[57, 92]),
   midi.NoteOnEvent(tick=100, channel=3, data=[57, 0]),
   midi.NoteOnEvent(tick=20, channel=3, data=[56, 92]),
   midi.NoteOnEvent(tick=100, channel=3, data=[56, 0]),
   midi.NoteOnEvent(tick=20, channel=3, data=[57, 92]),
   midi.NoteOnEvent(tick=100, channel=3, data=[57, 0]),
   midi.NoteOnEvent(tick=20, channel=3, data=[52, 92]),
   midi.NoteOnEvent(tick=100, channel=3, data=[52, 0]),
   midi.NoteOnEvent(tick=20, channel=3, data=[53, 92]),
   midi.NoteOnEvent(tick=100, channel=3, data=[53, 0]),
   midi.NoteOnEvent(tick=20, channel=3, data=[53, 92]),
   midi.NoteOnEvent(tick=210, channel=3, data=[53, 0]),
   midi.NoteOnEvent(tick=30, channel=3, data=[52, 92]),
   midi.NoteOnEvent(tick=100, channel=3, data=[52, 0]),
   midi.NoteOnEvent(tick=20, channel=3, data=[53, 92]),
   midi.NoteOnEvent(tick=100, channel=3, data=[53, 0]),
   midi.NoteOnEvent(tick=20, channel=3, data=[52, 92]),
   midi.NoteOnEvent(tick=100, channel=3, data=[52, 0]),
   midi.NoteOnEvent(tick=20, channel=3, data=[53, 92]),
   midi.NoteOnEvent(tick=100, channel=3, data=[53, 0]),
   midi.NoteOnEvent(tick=20, channel=3, data=[55, 92]),
   midi.NoteOnEvent(tick=100, channel=3, data=[55, 0]),
   midi.NoteOnEvent(tick=20, channel=3, data=[53, 92]),
   midi.NoteOnEvent(tick=100, channel=3, data=[53, 0]),
   midi.NoteOnEvent(tick=20, channel=3, data=[52, 92]),
   midi.NoteOnEvent(tick=100, channel=3, data=[52, 0]),
   midi.NoteOnEvent(tick=20, channel=3, data=[53, 92]),
   midi.NoteOnEvent(tick=100, channel=3, data=[53, 0]),
   midi.NoteOnEvent(tick=20, channel=3, data=[61, 92]),
   midi.NoteOnEvent(tick=100, channel=3, data=[61, 0]),
   midi.NoteOnEvent(tick=20, channel=3, data=[62, 92]),
   midi.NoteOnEvent(tick=100, channel=3, data=[62, 0]),
   midi.NoteOnEvent(tick=20, channel=3, data=[60, 92]),
   midi.NoteOnEvent(tick=100, channel=3, data=[60, 0]),
   midi.NoteOnEvent(tick=20, channel=3, data=[59, 92]),
   midi.NoteOnEvent(tick=100, channel=3, data=[59, 0]),
   midi.NoteOnEvent(tick=20, channel=3, data=[55, 92]),
   midi.NoteOnEvent(tick=100, channel=3, data=[55, 0]),
   midi.NoteOnEvent(tick=20, channel=3, data=[60, 92]),
   midi.NoteOnEvent(tick=100, channel=3, data=[60, 0]),
   midi.NoteOnEvent(tick=20, channel=3, data=[64, 92]),
   midi.NoteOnEvent(tick=100, channel=3, data=[64, 0]),
   midi.NoteOnEvent(tick=20, channel=3, data=[57, 92]),
   midi.NoteOnEvent(tick=100, channel=3, data=[57, 0]),
   midi.NoteOnEvent(tick=20, channel=3, data=[60, 92]),
   midi.NoteOnEvent(tick=100, channel=3, data=[60, 0]),
   midi.NoteOnEvent(tick=20, channel=3, data=[53, 92]),
   midi.NoteOnEvent(tick=100, channel=3, data=[53, 0]),
   midi.NoteOnEvent(tick=20, channel=3, data=[57, 92]),
   midi.NoteOnEvent(tick=100, channel=3, data=[57, 0]),
   midi.NoteOnEvent(tick=20, channel=3, data=[55, 92]),
   midi.NoteOnEvent(tick=100, channel=3, data=[55, 0]),
   midi.NoteOnEvent(tick=20, channel=3, data=[43, 92]),
   midi.NoteOnEvent(tick=100, channel=3, data=[43, 0]),
   midi.NoteOnEvent(tick=20, channel=3, data=[48, 92]),
   midi.NoteOnEvent(tick=100, channel=3, data=[48, 0]),
   midi.NoteOnEvent(tick=20, channel=3, data=[60, 92]),
   midi.NoteOnEvent(tick=210, channel=3, data=[60, 0]),
   midi.NoteOnEvent(tick=30, channel=3, data=[59, 92]),
   midi.NoteOnEvent(tick=100, channel=3, data=[59, 0]),
   midi.NoteOnEvent(tick=20, channel=3, data=[60, 92]),
   midi.NoteOnEvent(tick=100, channel=3, data=[60, 0]),
   midi.NoteOnEvent(tick=20, channel=3, data=[59, 92]),
   midi.NoteOnEvent(tick=100, channel=3, data=[59, 0]),
   midi.NoteOnEvent(tick=20, channel=3, data=[60, 92]),
   midi.NoteOnEvent(tick=100, channel=3, data=[60, 0]),
   midi.NoteOnEvent(tick=20, channel=3, data=[56, 92]),
   midi.NoteOnEvent(tick=100, channel=3, data=[56, 0]),
   midi.NoteOnEvent(tick=20, channel=3, data=[57, 92]),
   midi.NoteOnEvent(tick=100, channel=3, data=[57, 0]),
   midi.NoteOnEvent(tick=20, channel=3, data=[57, 92]),
   midi.NoteOnEvent(tick=210, channel=3, data=[57, 0]),
   midi.NoteOnEvent(tick=30, channel=3, data=[56, 92]),
   midi.NoteOnEvent(tick=100, channel=3, data=[56, 0]),
   midi.NoteOnEvent(tick=20, channel=3, data=[57, 92]),
   midi.NoteOnEvent(tick=100, channel=3, data=[57, 0]),
   midi.NoteOnEvent(tick=20, channel=3, data=[56, 92]),
   midi.NoteOnEvent(tick=100, channel=3, data=[56, 0]),
   midi.NoteOnEvent(tick=20, channel=3, data=[57, 92]),
   midi.NoteOnEvent(tick=100, channel=3, data=[57, 0]),
   midi.NoteOnEvent(tick=20, channel=3, data=[52, 92]),
   midi.NoteOnEvent(tick=100, channel=3, data=[52, 0]),
   midi.NoteOnEvent(tick=20, channel=3, data=[53, 92]),
   midi.NoteOnEvent(tick=100, channel=3, data=[53, 0]),
   midi.NoteOnEvent(tick=20, channel=3, data=[53, 92]),
   midi.NoteOnEvent(tick=210, channel=3, data=[53, 0]),
   midi.NoteOnEvent(tick=30, channel=3, data=[52, 92]),
   midi.NoteOnEvent(tick=100, channel=3, data=[52, 0]),
   midi.NoteOnEvent(tick=20, channel=3, data=[53, 92]),
   midi.NoteOnEvent(tick=100, channel=3, data=[53, 0]),
   midi.NoteOnEvent(tick=20, channel=3, data=[52, 92]),
   midi.NoteOnEvent(tick=100, channel=3, data=[52, 0]),
   midi.NoteOnEvent(tick=20, channel=3, data=[53, 92]),
   midi.NoteOnEvent(tick=100, channel=3, data=[53, 0]),
   midi.NoteOnEvent(tick=20, channel=3, data=[55, 92]),
   midi.NoteOnEvent(tick=100, channel=3, data=[55, 0]),
   midi.NoteOnEvent(tick=20, channel=3, data=[53, 92]),
   midi.NoteOnEvent(tick=100, channel=3, data=[53, 0]),
   midi.NoteOnEvent(tick=20, channel=3, data=[52, 92]),
   midi.NoteOnEvent(tick=100, channel=3, data=[52, 0]),
   midi.NoteOnEvent(tick=20, channel=3, data=[53, 92]),
   midi.NoteOnEvent(tick=100, channel=3, data=[53, 0]),
   midi.NoteOnEvent(tick=20, channel=3, data=[61, 92]),
   midi.NoteOnEvent(tick=100, channel=3, data=[61, 0]),
   midi.NoteOnEvent(tick=20, channel=3, data=[62, 92]),
   midi.NoteOnEvent(tick=100, channel=3, data=[62, 0]),
   midi.NoteOnEvent(tick=20, channel=3, data=[60, 92]),
   midi.NoteOnEvent(tick=100, channel=3, data=[60, 0]),
   midi.NoteOnEvent(tick=20, channel=3, data=[59, 92]),
   midi.NoteOnEvent(tick=100, channel=3, data=[59, 0]),
   midi.NoteOnEvent(tick=20, channel=3, data=[55, 92]),
   midi.NoteOnEvent(tick=100, channel=3, data=[55, 0]),
   midi.NoteOnEvent(tick=20, channel=3, data=[60, 92]),
   midi.NoteOnEvent(tick=100, channel=3, data=[60, 0]),
   midi.NoteOnEvent(tick=1820, channel=3, data=[60, 60]),
   midi.NoteOnEvent(tick=0, channel=3, data=[62, 60]),
   midi.NoteOnEvent(tick=450, channel=3, data=[60, 0]),
   midi.NoteOnEvent(tick=30, channel=3, data=[59, 60]),
   midi.NoteOnEvent(tick=240, channel=3, data=[62, 0]),
   midi.NoteOnEvent(tick=0, channel=3, data=[64, 60]),
   midi.NoteOnEvent(tick=180, channel=3, data=[64, 0]),
   midi.NoteOnEvent(tick=0, channel=3, data=[65, 60]),
   midi.NoteOnEvent(tick=30, channel=3, data=[59, 0]),
   midi.NoteOnEvent(tick=28, channel=3, data=[65, 0]),
   midi.NoteOnEvent(tick=2, channel=3, data=[60, 60]),
   midi.NoteOnEvent(tick=0, channel=3, data=[65, 60]),
   midi.NoteOnEvent(tick=480, channel=3, data=[65, 0]),
   midi.NoteOnEvent(tick=0, channel=3, data=[64, 60]),
   midi.NoteOnEvent(tick=100, channel=3, data=[64, 0]),
   midi.NoteOnEvent(tick=0, channel=3, data=[60, 0]),
   midi.NoteOnEvent(tick=860, channel=3, data=[60, 92]),
   midi.NoteOnEvent(tick=0, channel=3, data=[64, 92]),
   midi.NoteOnEvent(tick=450, channel=3, data=[64, 0]),
   midi.NoteOnEvent(tick=30, channel=3, data=[65, 92]),
   midi.NoteOnEvent(tick=450, channel=3, data=[65, 0]),
   midi.NoteOnEvent(tick=30, channel=3, data=[69, 92]),
   midi.NoteOnEvent(tick=450, channel=3, data=[69, 0]),
   midi.NoteOnEvent(tick=30, channel=3, data=[62, 92]),
   midi.NoteOnEvent(tick=450, channel=3, data=[62, 0]),
   midi.NoteOnEvent(tick=0, channel=3, data=[60, 0]),
   midi.NoteOnEvent(tick=30, channel=3, data=[59, 92]),
   midi.NoteOnEvent(tick=0, channel=3, data=[67, 92]),
   midi.NoteOnEvent(tick=450, channel=3, data=[67, 0]),
   midi.NoteOnEvent(tick=0, channel=3, data=[59, 0]),
   midi.NoteOnEvent(tick=30, channel=3, data=[60, 92]),
   midi.NoteOnEvent(tick=100, channel=3, data=[60, 0]),
   midi.ControlChangeEvent(tick=1820, channel=3, data=[7, 32]),
   midi.NoteOnEvent(tick=0, channel=3, data=[48, 60]),
   midi.NoteOnEvent(tick=0, channel=3, data=[52, 60]),
   midi.ControlChangeEvent(tick=1440, channel=3, data=[7, 48]),
   midi.ControlChangeEvent(tick=480, channel=3, data=[7, 64]),
   midi.ControlChangeEvent(tick=480, channel=3, data=[7, 80]),
   midi.ControlChangeEvent(tick=480, channel=3, data=[7, 96]),
   midi.NoteOnEvent(tick=930, channel=3, data=[52, 0]),
   midi.NoteOnEvent(tick=0, channel=3, data=[48, 0]),
   midi.NoteOnEvent(tick=30, channel=3, data=[64, 108]),
   midi.NoteOnEvent(tick=100, channel=3, data=[64, 0]),
   midi.NoteOnEvent(tick=20, channel=3, data=[64, 108]),
   midi.NoteOnEvent(tick=210, channel=3, data=[64, 0]),
   midi.NoteOnEvent(tick=30, channel=3, data=[65, 108]),
   midi.NoteOnEvent(tick=100, channel=3, data=[65, 0]),
   midi.NoteOnEvent(tick=20, channel=3, data=[64, 108]),
   midi.NoteOnEvent(tick=100, channel=3, data=[64, 0]),
   midi.NoteOnEvent(tick=20, channel=3, data=[65, 108]),
   midi.NoteOnEvent(tick=100, channel=3, data=[65, 0]),
   midi.NoteOnEvent(tick=20, channel=3, data=[64, 108]),
   midi.NoteOnEvent(tick=100, channel=3, data=[64, 0]),
   midi.NoteOnEvent(tick=20, channel=3, data=[65, 108]),
   midi.NoteOnEvent(tick=100, channel=3, data=[65, 0]),
   midi.NoteOnEvent(tick=20, channel=3, data=[64, 108]),
   midi.NoteOnEvent(tick=100, channel=3, data=[64, 0]),
   midi.NoteOnEvent(tick=20, channel=3, data=[64, 108]),
   midi.NoteOnEvent(tick=210, channel=3, data=[64, 0]),
   midi.NoteOnEvent(tick=30, channel=3, data=[65, 108]),
   midi.NoteOnEvent(tick=100, channel=3, data=[65, 0]),
   midi.NoteOnEvent(tick=20, channel=3, data=[64, 108]),
   midi.NoteOnEvent(tick=100, channel=3, data=[64, 0]),
   midi.NoteOnEvent(tick=20, channel=3, data=[65, 108]),
   midi.NoteOnEvent(tick=100, channel=3, data=[65, 0]),
   midi.NoteOnEvent(tick=20, channel=3, data=[64, 108]),
   midi.NoteOnEvent(tick=100, channel=3, data=[64, 0]),
   midi.NoteOnEvent(tick=20, channel=3, data=[65, 108]),
   midi.NoteOnEvent(tick=100, channel=3, data=[65, 0]),
   midi.NoteOnEvent(tick=20, channel=3, data=[64, 108]),
   midi.NoteOnEvent(tick=100, channel=3, data=[64, 0]),
   midi.NoteOnEvent(tick=20, channel=3, data=[55, 108]),
   midi.NoteOnEvent(tick=100, channel=3, data=[55, 0]),
   midi.NoteOnEvent(tick=20, channel=3, data=[60, 108]),
   midi.NoteOnEvent(tick=100, channel=3, data=[60, 0]),
   midi.NoteOnEvent(tick=20, channel=3, data=[55, 108]),
   midi.NoteOnEvent(tick=100, channel=3, data=[55, 0]),
   midi.NoteOnEvent(tick=20, channel=3, data=[60, 108]),
   midi.NoteOnEvent(tick=100, channel=3, data=[60, 0]),
   midi.NoteOnEvent(tick=20, channel=3, data=[55, 108]),
   midi.NoteOnEvent(tick=100, channel=3, data=[55, 0]),
   midi.NoteOnEvent(tick=20, channel=3, data=[60, 108]),
   midi.NoteOnEvent(tick=100, channel=3, data=[60, 0]),
   midi.NoteOnEvent(tick=20, channel=3, data=[55, 108]),
   midi.NoteOnEvent(tick=100, channel=3, data=[55, 0]),
   midi.NoteOnEvent(tick=20, channel=3, data=[60, 108]),
   midi.NoteOnEvent(tick=100, channel=3, data=[60, 0]),
   midi.NoteOnEvent(tick=380, channel=3, data=[48, 108]),
   midi.NoteOnEvent(tick=100, channel=3, data=[48, 0]),
   midi.NoteOnEvent(tick=140, channel=3, data=[60, 108]),
   midi.NoteOnEvent(tick=100, channel=3, data=[60, 0]),
   midi.NoteOnEvent(tick=140, channel=3, data=[48, 108]),
   midi.NoteOnEvent(tick=210, channel=3, data=[48, 0]),
   midi.EndOfTrackEvent(tick=0, data=[])]),
 midi.Track(\
  [midi.PortEvent(tick=0, data=[0]),
   midi.TrackNameEvent(tick=0, text='Horns (G)', data=[72, 111, 114, 110, 115, 32, 40, 71, 41]),
   midi.ProgramChangeEvent(tick=0, channel=4, data=[60]),
   midi.ControlChangeEvent(tick=0, channel=4, data=[7, 127]),
   midi.ControlChangeEvent(tick=0, channel=4, data=[10, 40]),
   midi.NoteOnEvent(tick=0, channel=4, data=[55, 92]),
   midi.NoteOnEvent(tick=0, channel=4, data=[67, 92]),
   midi.NoteOnEvent(tick=100, channel=4, data=[67, 0]),
   midi.NoteOnEvent(tick=0, channel=4, data=[55, 0]),
   midi.NoteOnEvent(tick=110, channel=4, data=[55, 92]),
   midi.NoteOnEvent(tick=0, channel=4, data=[67, 92]),
   midi.NoteOnEvent(tick=28, channel=4, data=[67, 0]),
   midi.NoteOnEvent(tick=0, channel=4, data=[55, 0]),
   midi.NoteOnEvent(tick=2, channel=4, data=[55, 92]),
   midi.NoteOnEvent(tick=0, channel=4, data=[67, 92]),
   midi.NoteOnEvent(tick=100, channel=4, data=[67, 0]),
   midi.NoteOnEvent(tick=0, channel=4, data=[55, 0]),
   midi.NoteOnEvent(tick=1550, channel=4, data=[59, 92]),
   midi.NoteOnEvent(tick=0, channel=4, data=[62, 92]),
   midi.NoteOnEvent(tick=28, channel=4, data=[62, 0]),
   midi.NoteOnEvent(tick=0, channel=4, data=[59, 0]),
   midi.NoteOnEvent(tick=2, channel=4, data=[59, 92]),
   midi.NoteOnEvent(tick=0, channel=4, data=[62, 92]),
   midi.NoteOnEvent(tick=100, channel=4, data=[62, 0]),
   midi.NoteOnEvent(tick=0, channel=4, data=[59, 0]),
   midi.NoteOnEvent(tick=110, channel=4, data=[59, 92]),
   midi.NoteOnEvent(tick=0, channel=4, data=[62, 92]),
   midi.NoteOnEvent(tick=28, channel=4, data=[62, 0]),
   midi.NoteOnEvent(tick=0, channel=4, data=[59, 0]),
   midi.NoteOnEvent(tick=2, channel=4, data=[59, 92]),
   midi.NoteOnEvent(tick=0, channel=4, data=[62, 92]),
   midi.NoteOnEvent(tick=100, channel=4, data=[62, 0]),
   midi.NoteOnEvent(tick=0, channel=4, data=[59, 0]),
   midi.NoteOnEvent(tick=3260, channel=4, data=[67, 92]),
   midi.NoteOnEvent(tick=100, channel=4, data=[67, 0]),
   midi.NoteOnEvent(tick=140, channel=4, data=[69, 92]),
   midi.NoteOnEvent(tick=100, channel=4, data=[69, 0]),
   midi.NoteOnEvent(tick=140, channel=4, data=[69, 92]),
   midi.NoteOnEvent(tick=100, channel=4, data=[69, 0]),
   midi.NoteOnEvent(tick=140, channel=4, data=[55, 92]),
   midi.NoteOnEvent(tick=0, channel=4, data=[67, 92]),
   midi.NoteOnEvent(tick=100, channel=4, data=[67, 0]),
   midi.NoteOnEvent(tick=0, channel=4, data=[55, 0]),
   midi.NoteOnEvent(tick=140, channel=4, data=[55, 92]),
   midi.NoteOnEvent(tick=0, channel=4, data=[67, 92]),
   midi.NoteOnEvent(tick=100, channel=4, data=[67, 0]),
   midi.NoteOnEvent(tick=0, channel=4, data=[55, 0]),
   midi.NoteOnEvent(tick=140, channel=4, data=[55, 92]),
   midi.NoteOnEvent(tick=0, channel=4, data=[67, 92]),
   midi.NoteOnEvent(tick=100, channel=4, data=[67, 0]),
   midi.NoteOnEvent(tick=0, channel=4, data=[55, 0]),
   midi.NoteOnEvent(tick=4700, channel=4, data=[67, 92]),
   midi.NoteOnEvent(tick=100, channel=4, data=[67, 0]),
   midi.NoteOnEvent(tick=20, channel=4, data=[67, 92]),
   midi.NoteOnEvent(tick=210, channel=4, data=[67, 0]),
   midi.NoteOnEvent(tick=30, channel=4, data=[69, 92]),
   midi.NoteOnEvent(tick=100, channel=4, data=[69, 0]),
   midi.NoteOnEvent(tick=20, channel=4, data=[67, 92]),
   midi.NoteOnEvent(tick=100, channel=4, data=[67, 0]),
   midi.NoteOnEvent(tick=20, channel=4, data=[69, 92]),
   midi.NoteOnEvent(tick=100, channel=4, data=[69, 0]),
   midi.NoteOnEvent(tick=20, channel=4, data=[67, 92]),
   midi.NoteOnEvent(tick=100, channel=4, data=[67, 0]),
   midi.NoteOnEvent(tick=20, channel=4, data=[69, 92]),
   midi.NoteOnEvent(tick=100, channel=4, data=[69, 0]),
   midi.NoteOnEvent(tick=20, channel=4, data=[67, 92]),
   midi.NoteOnEvent(tick=100, channel=4, data=[67, 0]),
   midi.NoteOnEvent(tick=20, channel=4, data=[67, 92]),
   midi.NoteOnEvent(tick=210, channel=4, data=[67, 0]),
   midi.NoteOnEvent(tick=30, channel=4, data=[69, 92]),
   midi.NoteOnEvent(tick=100, channel=4, data=[69, 0]),
   midi.NoteOnEvent(tick=20, channel=4, data=[67, 92]),
   midi.NoteOnEvent(tick=100, channel=4, data=[67, 0]),
   midi.NoteOnEvent(tick=20, channel=4, data=[69, 92]),
   midi.NoteOnEvent(tick=100, channel=4, data=[69, 0]),
   midi.NoteOnEvent(tick=20, channel=4, data=[67, 92]),
   midi.NoteOnEvent(tick=100, channel=4, data=[67, 0]),
   midi.NoteOnEvent(tick=20, channel=4, data=[69, 92]),
   midi.NoteOnEvent(tick=100, channel=4, data=[69, 0]),
   midi.NoteOnEvent(tick=20, channel=4, data=[67, 92]),
   midi.NoteOnEvent(tick=100, channel=4, data=[67, 0]),
   midi.NoteOnEvent(tick=11420, channel=4, data=[62, 92]),
   midi.NoteOnEvent(tick=100, channel=4, data=[62, 0]),
   midi.NoteOnEvent(tick=20, channel=4, data=[62, 92]),
   midi.NoteOnEvent(tick=210, channel=4, data=[62, 0]),
   midi.NoteOnEvent(tick=30, channel=4, data=[62, 92]),
   midi.NoteOnEvent(tick=100, channel=4, data=[62, 0]),
   midi.NoteOnEvent(tick=20, channel=4, data=[62, 92]),
   midi.NoteOnEvent(tick=100, channel=4, data=[62, 0]),
   midi.NoteOnEvent(tick=20, channel=4, data=[62, 92]),
   midi.NoteOnEvent(tick=100, channel=4, data=[62, 0]),
   midi.NoteOnEvent(tick=20, channel=4, data=[62, 92]),
   midi.NoteOnEvent(tick=100, channel=4, data=[62, 0]),
   midi.NoteOnEvent(tick=20, channel=4, data=[62, 92]),
   midi.NoteOnEvent(tick=100, channel=4, data=[62, 0]),
   midi.NoteOnEvent(tick=20, channel=4, data=[62, 92]),
   midi.NoteOnEvent(tick=100, channel=4, data=[62, 0]),
   midi.NoteOnEvent(tick=20, channel=4, data=[62, 92]),
   midi.NoteOnEvent(tick=210, channel=4, data=[62, 0]),
   midi.NoteOnEvent(tick=30, channel=4, data=[62, 92]),
   midi.NoteOnEvent(tick=100, channel=4, data=[62, 0]),
   midi.NoteOnEvent(tick=20, channel=4, data=[62, 92]),
   midi.NoteOnEvent(tick=100, channel=4, data=[62, 0]),
   midi.NoteOnEvent(tick=20, channel=4, data=[62, 92]),
   midi.NoteOnEvent(tick=100, channel=4, data=[62, 0]),
   midi.NoteOnEvent(tick=20, channel=4, data=[62, 92]),
   midi.NoteOnEvent(tick=100, channel=4, data=[62, 0]),
   midi.NoteOnEvent(tick=20, channel=4, data=[62, 92]),
   midi.NoteOnEvent(tick=100, channel=4, data=[62, 0]),
   midi.NoteOnEvent(tick=20, channel=4, data=[62, 92]),
   midi.NoteOnEvent(tick=100, channel=4, data=[62, 0]),
   midi.NoteOnEvent(tick=3860, channel=4, data=[67, 92]),
   midi.NoteOnEvent(tick=0, channel=4, data=[74, 92]),
   midi.NoteOnEvent(tick=210, channel=4, data=[74, 0]),
   midi.NoteOnEvent(tick=0, channel=4, data=[67, 0]),
   midi.NoteOnEvent(tick=30, channel=4, data=[62, 92]),
   midi.NoteOnEvent(tick=0, channel=4, data=[74, 92]),
   midi.NoteOnEvent(tick=100, channel=4, data=[74, 0]),
   midi.NoteOnEvent(tick=0, channel=4, data=[62, 0]),
   midi.NoteOnEvent(tick=20, channel=4, data=[67, 92]),
   midi.NoteOnEvent(tick=0, channel=4, data=[74, 92]),
   midi.NoteOnEvent(tick=100, channel=4, data=[74, 0]),
   midi.NoteOnEvent(tick=0, channel=4, data=[67, 0]),
   midi.NoteOnEvent(tick=20, channel=4, data=[62, 92]),
   midi.NoteOnEvent(tick=0, channel=4, data=[74, 92]),
   midi.NoteOnEvent(tick=100, channel=4, data=[74, 0]),
   midi.NoteOnEvent(tick=0, channel=4, data=[62, 0]),
   midi.NoteOnEvent(tick=20, channel=4, data=[67, 92]),
   midi.NoteOnEvent(tick=0, channel=4, data=[74, 92]),
   midi.NoteOnEvent(tick=100, channel=4, data=[74, 0]),
   midi.NoteOnEvent(tick=0, channel=4, data=[67, 0]),
   midi.NoteOnEvent(tick=20, channel=4, data=[59, 92]),
   midi.NoteOnEvent(tick=0, channel=4, data=[71, 92]),
   midi.NoteOnEvent(tick=100, channel=4, data=[71, 0]),
   midi.NoteOnEvent(tick=0, channel=4, data=[59, 0]),
   midi.NoteOnEvent(tick=20, channel=4, data=[59, 92]),
   midi.NoteOnEvent(tick=0, channel=4, data=[71, 92]),
   midi.NoteOnEvent(tick=100, channel=4, data=[71, 0]),
   midi.NoteOnEvent(tick=0, channel=4, data=[59, 0]),
   midi.NoteOnEvent(tick=20, channel=4, data=[59, 92]),
   midi.NoteOnEvent(tick=0, channel=4, data=[71, 92]),
   midi.NoteOnEvent(tick=210, channel=4, data=[71, 0]),
   midi.NoteOnEvent(tick=0, channel=4, data=[59, 0]),
   midi.NoteOnEvent(tick=30, channel=4, data=[59, 92]),
   midi.NoteOnEvent(tick=0, channel=4, data=[71, 92]),
   midi.NoteOnEvent(tick=100, channel=4, data=[71, 0]),
   midi.NoteOnEvent(tick=0, channel=4, data=[59, 0]),
   midi.NoteOnEvent(tick=20, channel=4, data=[59, 92]),
   midi.NoteOnEvent(tick=0, channel=4, data=[71, 92]),
   midi.NoteOnEvent(tick=100, channel=4, data=[71, 0]),
   midi.NoteOnEvent(tick=0, channel=4, data=[59, 0]),
   midi.NoteOnEvent(tick=20, channel=4, data=[59, 92]),
   midi.NoteOnEvent(tick=0, channel=4, data=[71, 92]),
   midi.NoteOnEvent(tick=100, channel=4, data=[71, 0]),
   midi.NoteOnEvent(tick=0, channel=4, data=[59, 0]),
   midi.NoteOnEvent(tick=20, channel=4, data=[59, 92]),
   midi.NoteOnEvent(tick=0, channel=4, data=[71, 92]),
   midi.NoteOnEvent(tick=100, channel=4, data=[71, 0]),
   midi.NoteOnEvent(tick=0, channel=4, data=[59, 0]),
   midi.NoteOnEvent(tick=20, channel=4, data=[55, 92]),
   midi.NoteOnEvent(tick=0, channel=4, data=[67, 92]),
   midi.NoteOnEvent(tick=100, channel=4, data=[67, 0]),
   midi.NoteOnEvent(tick=0, channel=4, data=[55, 0]),
   midi.NoteOnEvent(tick=20, channel=4, data=[55, 92]),
   midi.NoteOnEvent(tick=0, channel=4, data=[67, 92]),
   midi.NoteOnEvent(tick=100, channel=4, data=[67, 0]),
   midi.NoteOnEvent(tick=0, channel=4, data=[55, 0]),
   midi.NoteOnEvent(tick=20, channel=4, data=[55, 92]),
   midi.NoteOnEvent(tick=0, channel=4, data=[67, 92]),
   midi.NoteOnEvent(tick=210, channel=4, data=[67, 0]),
   midi.NoteOnEvent(tick=0, channel=4, data=[55, 0]),
   midi.NoteOnEvent(tick=30, channel=4, data=[55, 92]),
   midi.NoteOnEvent(tick=0, channel=4, data=[67, 92]),
   midi.NoteOnEvent(tick=100, channel=4, data=[67, 0]),
   midi.NoteOnEvent(tick=0, channel=4, data=[55, 0]),
   midi.NoteOnEvent(tick=20, channel=4, data=[55, 92]),
   midi.NoteOnEvent(tick=0, channel=4, data=[67, 92]),
   midi.NoteOnEvent(tick=100, channel=4, data=[67, 0]),
   midi.NoteOnEvent(tick=0, channel=4, data=[55, 0]),
   midi.NoteOnEvent(tick=20, channel=4, data=[55, 92]),
   midi.NoteOnEvent(tick=0, channel=4, data=[67, 92]),
   midi.NoteOnEvent(tick=100, channel=4, data=[67, 0]),
   midi.NoteOnEvent(tick=0, channel=4, data=[55, 0]),
   midi.NoteOnEvent(tick=20, channel=4, data=[55, 92]),
   midi.NoteOnEvent(tick=0, channel=4, data=[67, 92]),
   midi.NoteOnEvent(tick=100, channel=4, data=[67, 0]),
   midi.NoteOnEvent(tick=0, channel=4, data=[55, 0]),
   midi.NoteOnEvent(tick=1100, channel=4, data=[55, 92]),
   midi.NoteOnEvent(tick=0, channel=4, data=[67, 92]),
   midi.NoteOnEvent(tick=30, channel=4, data=[67, 0]),
   midi.NoteOnEvent(tick=0, channel=4, data=[55, 0]),
   midi.NoteOnEvent(tick=90, channel=4, data=[59, 92]),
   midi.NoteOnEvent(tick=0, channel=4, data=[71, 92]),
   midi.NoteOnEvent(tick=30, channel=4, data=[71, 0]),
   midi.NoteOnEvent(tick=0, channel=4, data=[59, 0]),
   midi.NoteOnEvent(tick=90, channel=4, data=[62, 92]),
   midi.NoteOnEvent(tick=0, channel=4, data=[74, 92]),
   midi.NoteOnEvent(tick=210, channel=4, data=[74, 0]),
   midi.NoteOnEvent(tick=0, channel=4, data=[62, 0]),
   midi.NoteOnEvent(tick=270, channel=4, data=[59, 92]),
   midi.NoteOnEvent(tick=0, channel=4, data=[71, 92]),
   midi.NoteOnEvent(tick=210, channel=4, data=[71, 0]),
   midi.NoteOnEvent(tick=0, channel=4, data=[59, 0]),
   midi.NoteOnEvent(tick=270, channel=4, data=[62, 92]),
   midi.NoteOnEvent(tick=0, channel=4, data=[69, 92]),
   midi.NoteOnEvent(tick=210, channel=4, data=[69, 0]),
   midi.NoteOnEvent(tick=0, channel=4, data=[62, 0]),
   midi.NoteOnEvent(tick=30, channel=4, data=[55, 92]),
   midi.NoteOnEvent(tick=0, channel=4, data=[67, 92]),
   midi.NoteOnEvent(tick=30, channel=4, data=[67, 0]),
   midi.NoteOnEvent(tick=0, channel=4, data=[55, 0]),
   midi.NoteOnEvent(tick=90, channel=4, data=[59, 92]),
   midi.NoteOnEvent(tick=0, channel=4, data=[71, 92]),
   midi.NoteOnEvent(tick=30, channel=4, data=[71, 0]),
   midi.NoteOnEvent(tick=0, channel=4, data=[59, 0]),
   midi.NoteOnEvent(tick=90, channel=4, data=[62, 92]),
   midi.NoteOnEvent(tick=0, channel=4, data=[74, 92]),
   midi.NoteOnEvent(tick=210, channel=4, data=[74, 0]),
   midi.NoteOnEvent(tick=0, channel=4, data=[62, 0]),
   midi.NoteOnEvent(tick=270, channel=4, data=[59, 92]),
   midi.NoteOnEvent(tick=0, channel=4, data=[71, 92]),
   midi.NoteOnEvent(tick=210, channel=4, data=[71, 0]),
   midi.NoteOnEvent(tick=0, channel=4, data=[59, 0]),
   midi.NoteOnEvent(tick=270, channel=4, data=[62, 92]),
   midi.NoteOnEvent(tick=0, channel=4, data=[69, 92]),
   midi.NoteOnEvent(tick=210, channel=4, data=[69, 0]),
   midi.NoteOnEvent(tick=0, channel=4, data=[62, 0]),
   midi.NoteOnEvent(tick=30, channel=4, data=[59, 92]),
   midi.NoteOnEvent(tick=0, channel=4, data=[67, 92]),
   midi.NoteOnEvent(tick=100, channel=4, data=[67, 0]),
   midi.NoteOnEvent(tick=0, channel=4, data=[59, 0]),
   midi.NoteOnEvent(tick=3740, channel=4, data=[55, 60]),
   midi.NoteOnEvent(tick=0, channel=4, data=[67, 60]),
   midi.NoteOnEvent(tick=2850, channel=4, data=[67, 0]),
   midi.NoteOnEvent(tick=0, channel=4, data=[55, 0]),
   midi.NoteOnEvent(tick=30, channel=4, data=[62, 60]),
   midi.NoteOnEvent(tick=930, channel=4, data=[62, 0]),
   midi.NoteOnEvent(tick=30, channel=4, data=[55, 60]),
   midi.NoteOnEvent(tick=100, channel=4, data=[55, 0]),
   midi.NoteOnEvent(tick=8540, channel=4, data=[69, 92]),
   midi.NoteOnEvent(tick=100, channel=4, data=[69, 0]),
   midi.NoteOnEvent(tick=20, channel=4, data=[69, 92]),
   midi.NoteOnEvent(tick=210, channel=4, data=[69, 0]),
   midi.NoteOnEvent(tick=30, channel=4, data=[69, 92]),
   midi.NoteOnEvent(tick=100, channel=4, data=[69, 0]),
   midi.NoteOnEvent(tick=20, channel=4, data=[69, 92]),
   midi.NoteOnEvent(tick=100, channel=4, data=[69, 0]),
   midi.NoteOnEvent(tick=20, channel=4, data=[69, 92]),
   midi.NoteOnEvent(tick=100, channel=4, data=[69, 0]),
   midi.NoteOnEvent(tick=20, channel=4, data=[69, 92]),
   midi.NoteOnEvent(tick=100, channel=4, data=[69, 0]),
   midi.NoteOnEvent(tick=20, channel=4, data=[69, 92]),
   midi.NoteOnEvent(tick=100, channel=4, data=[69, 0]),
   midi.NoteOnEvent(tick=20, channel=4, data=[69, 92]),
   midi.NoteOnEvent(tick=100, channel=4, data=[69, 0]),
   midi.NoteOnEvent(tick=2780, channel=4, data=[62, 92]),
   midi.NoteOnEvent(tick=100, channel=4, data=[62, 0]),
   midi.NoteOnEvent(tick=20, channel=4, data=[62, 92]),
   midi.NoteOnEvent(tick=210, channel=4, data=[62, 0]),
   midi.NoteOnEvent(tick=30, channel=4, data=[62, 92]),
   midi.NoteOnEvent(tick=100, channel=4, data=[62, 0]),
   midi.NoteOnEvent(tick=20, channel=4, data=[62, 92]),
   midi.NoteOnEvent(tick=100, channel=4, data=[62, 0]),
   midi.NoteOnEvent(tick=20, channel=4, data=[62, 92]),
   midi.NoteOnEvent(tick=100, channel=4, data=[62, 0]),
   midi.NoteOnEvent(tick=20, channel=4, data=[62, 92]),
   midi.NoteOnEvent(tick=100, channel=4, data=[62, 0]),
   midi.NoteOnEvent(tick=20, channel=4, data=[62, 92]),
   midi.NoteOnEvent(tick=100, channel=4, data=[62, 0]),
   midi.NoteOnEvent(tick=20, channel=4, data=[62, 92]),
   midi.NoteOnEvent(tick=100, channel=4, data=[62, 0]),
   midi.NoteOnEvent(tick=3740, channel=4, data=[55, 92]),
   midi.NoteOnEvent(tick=0, channel=4, data=[67, 92]),
   midi.NoteOnEvent(tick=100, channel=4, data=[67, 0]),
   midi.NoteOnEvent(tick=0, channel=4, data=[55, 0]),
   midi.NoteOnEvent(tick=20, channel=4, data=[55, 92]),
   midi.NoteOnEvent(tick=0, channel=4, data=[67, 92]),
   midi.NoteOnEvent(tick=210, channel=4, data=[67, 0]),
   midi.NoteOnEvent(tick=0, channel=4, data=[55, 0]),
   midi.NoteOnEvent(tick=30, channel=4, data=[55, 92]),
   midi.NoteOnEvent(tick=0, channel=4, data=[67, 92]),
   midi.NoteOnEvent(tick=100, channel=4, data=[67, 0]),
   midi.NoteOnEvent(tick=0, channel=4, data=[55, 0]),
   midi.NoteOnEvent(tick=20, channel=4, data=[55, 92]),
   midi.NoteOnEvent(tick=0, channel=4, data=[67, 92]),
   midi.NoteOnEvent(tick=100, channel=4, data=[67, 0]),
   midi.NoteOnEvent(tick=0, channel=4, data=[55, 0]),
   midi.NoteOnEvent(tick=20, channel=4, data=[55, 92]),
   midi.NoteOnEvent(tick=0, channel=4, data=[67, 92]),
   midi.NoteOnEvent(tick=100, channel=4, data=[67, 0]),
   midi.NoteOnEvent(tick=0, channel=4, data=[55, 0]),
   midi.NoteOnEvent(tick=20, channel=4, data=[55, 92]),
   midi.NoteOnEvent(tick=0, channel=4, data=[67, 92]),
   midi.NoteOnEvent(tick=100, channel=4, data=[67, 0]),
   midi.NoteOnEvent(tick=0, channel=4, data=[55, 0]),
   midi.NoteOnEvent(tick=20, channel=4, data=[55, 92]),
   midi.NoteOnEvent(tick=0, channel=4, data=[67, 92]),
   midi.NoteOnEvent(tick=100, channel=4, data=[67, 0]),
   midi.NoteOnEvent(tick=0, channel=4, data=[55, 0]),
   midi.NoteOnEvent(tick=20, channel=4, data=[55, 92]),
   midi.NoteOnEvent(tick=0, channel=4, data=[67, 92]),
   midi.NoteOnEvent(tick=100, channel=4, data=[67, 0]),
   midi.NoteOnEvent(tick=0, channel=4, data=[55, 0]),
   midi.NoteOnEvent(tick=17060, channel=4, data=[55, 92]),
   midi.NoteOnEvent(tick=0, channel=4, data=[67, 92]),
   midi.NoteOnEvent(tick=100, channel=4, data=[67, 0]),
   midi.NoteOnEvent(tick=0, channel=4, data=[55, 0]),
   midi.NoteOnEvent(tick=20, channel=4, data=[55, 92]),
   midi.NoteOnEvent(tick=0, channel=4, data=[67, 92]),
   midi.NoteOnEvent(tick=100, channel=4, data=[67, 0]),
   midi.NoteOnEvent(tick=0, channel=4, data=[55, 0]),
   midi.NoteOnEvent(tick=20, channel=4, data=[55, 92]),
   midi.NoteOnEvent(tick=0, channel=4, data=[67, 92]),
   midi.NoteOnEvent(tick=210, channel=4, data=[67, 0]),
   midi.NoteOnEvent(tick=0, channel=4, data=[55, 0]),
   midi.NoteOnEvent(tick=30, channel=4, data=[55, 92]),
   midi.NoteOnEvent(tick=0, channel=4, data=[67, 92]),
   midi.NoteOnEvent(tick=100, channel=4, data=[67, 0]),
   midi.NoteOnEvent(tick=0, channel=4, data=[55, 0]),
   midi.NoteOnEvent(tick=20, channel=4, data=[55, 92]),
   midi.NoteOnEvent(tick=0, channel=4, data=[67, 92]),
   midi.NoteOnEvent(tick=100, channel=4, data=[67, 0]),
   midi.NoteOnEvent(tick=0, channel=4, data=[55, 0]),
   midi.NoteOnEvent(tick=2300, channel=4, data=[55, 60]),
   midi.NoteOnEvent(tick=0, channel=4, data=[67, 60]),
   midi.NoteOnEvent(tick=3940, channel=4, data=[67, 0]),
   midi.NoteOnEvent(tick=0, channel=4, data=[55, 0]),
   midi.NoteOnEvent(tick=2780, channel=4, data=[67, 92]),
   midi.NoteOnEvent(tick=100, channel=4, data=[67, 0]),
   midi.NoteOnEvent(tick=20, channel=4, data=[67, 92]),
   midi.NoteOnEvent(tick=210, channel=4, data=[67, 0]),
   midi.NoteOnEvent(tick=30, channel=4, data=[69, 92]),
   midi.NoteOnEvent(tick=100, channel=4, data=[69, 0]),
   midi.NoteOnEvent(tick=20, channel=4, data=[67, 92]),
   midi.NoteOnEvent(tick=100, channel=4, data=[67, 0]),
   midi.NoteOnEvent(tick=20, channel=4, data=[69, 92]),
   midi.NoteOnEvent(tick=100, channel=4, data=[69, 0]),
   midi.NoteOnEvent(tick=20, channel=4, data=[67, 92]),
   midi.NoteOnEvent(tick=100, channel=4, data=[67, 0]),
   midi.NoteOnEvent(tick=20, channel=4, data=[69, 92]),
   midi.NoteOnEvent(tick=100, channel=4, data=[69, 0]),
   midi.NoteOnEvent(tick=20, channel=4, data=[67, 92]),
   midi.NoteOnEvent(tick=100, channel=4, data=[67, 0]),
   midi.NoteOnEvent(tick=20, channel=4, data=[67, 92]),
   midi.NoteOnEvent(tick=210, channel=4, data=[67, 0]),
   midi.NoteOnEvent(tick=30, channel=4, data=[69, 92]),
   midi.NoteOnEvent(tick=100, channel=4, data=[69, 0]),
   midi.NoteOnEvent(tick=20, channel=4, data=[67, 92]),
   midi.NoteOnEvent(tick=100, channel=4, data=[67, 0]),
   midi.NoteOnEvent(tick=20, channel=4, data=[69, 92]),
   midi.NoteOnEvent(tick=100, channel=4, data=[69, 0]),
   midi.NoteOnEvent(tick=20, channel=4, data=[67, 92]),
   midi.NoteOnEvent(tick=100, channel=4, data=[67, 0]),
   midi.NoteOnEvent(tick=20, channel=4, data=[69, 92]),
   midi.NoteOnEvent(tick=100, channel=4, data=[69, 0]),
   midi.NoteOnEvent(tick=20, channel=4, data=[67, 92]),
   midi.NoteOnEvent(tick=100, channel=4, data=[67, 0]),
   midi.NoteOnEvent(tick=7700, channel=4, data=[55, 92]),
   midi.NoteOnEvent(tick=0, channel=4, data=[67, 92]),
   midi.NoteOnEvent(tick=210, channel=4, data=[67, 0]),
   midi.NoteOnEvent(tick=0, channel=4, data=[55, 0]),
   midi.NoteOnEvent(tick=30, channel=4, data=[55, 92]),
   midi.NoteOnEvent(tick=0, channel=4, data=[67, 92]),
   midi.NoteOnEvent(tick=100, channel=4, data=[67, 0]),
   midi.NoteOnEvent(tick=0, channel=4, data=[55, 0]),
   midi.NoteOnEvent(tick=20, channel=4, data=[55, 92]),
   midi.NoteOnEvent(tick=0, channel=4, data=[67, 92]),
   midi.NoteOnEvent(tick=100, channel=4, data=[67, 0]),
   midi.NoteOnEvent(tick=0, channel=4, data=[55, 0]),
   midi.NoteOnEvent(tick=3020, channel=4, data=[55, 92]),
   midi.NoteOnEvent(tick=0, channel=4, data=[67, 92]),
   midi.NoteOnEvent(tick=210, channel=4, data=[67, 0]),
   midi.NoteOnEvent(tick=0, channel=4, data=[55, 0]),
   midi.NoteOnEvent(tick=30, channel=4, data=[55, 92]),
   midi.NoteOnEvent(tick=0, channel=4, data=[67, 92]),
   midi.NoteOnEvent(tick=100, channel=4, data=[67, 0]),
   midi.NoteOnEvent(tick=0, channel=4, data=[55, 0]),
   midi.NoteOnEvent(tick=140, channel=4, data=[69, 92]),
   midi.NoteOnEvent(tick=100, channel=4, data=[69, 0]),
   midi.NoteOnEvent(tick=140, channel=4, data=[69, 92]),
   midi.NoteOnEvent(tick=100, channel=4, data=[69, 0]),
   midi.NoteOnEvent(tick=140, channel=4, data=[55, 92]),
   midi.NoteOnEvent(tick=0, channel=4, data=[67, 92]),
   midi.NoteOnEvent(tick=100, channel=4, data=[67, 0]),
   midi.NoteOnEvent(tick=0, channel=4, data=[55, 0]),
   midi.NoteOnEvent(tick=20, channel=4, data=[55, 92]),
   midi.NoteOnEvent(tick=0, channel=4, data=[67, 92]),
   midi.NoteOnEvent(tick=100, channel=4, data=[67, 0]),
   midi.NoteOnEvent(tick=0, channel=4, data=[55, 0]),
   midi.NoteOnEvent(tick=20, channel=4, data=[55, 92]),
   midi.NoteOnEvent(tick=0, channel=4, data=[67, 92]),
   midi.NoteOnEvent(tick=100, channel=4, data=[67, 0]),
   midi.NoteOnEvent(tick=0, channel=4, data=[55, 0]),
   midi.NoteOnEvent(tick=20, channel=4, data=[55, 92]),
   midi.NoteOnEvent(tick=0, channel=4, data=[67, 92]),
   midi.NoteOnEvent(tick=210, channel=4, data=[67, 0]),
   midi.NoteOnEvent(tick=0, channel=4, data=[55, 0]),
   midi.NoteOnEvent(tick=30, channel=4, data=[55, 92]),
   midi.NoteOnEvent(tick=0, channel=4, data=[67, 92]),
   midi.NoteOnEvent(tick=100, channel=4, data=[67, 0]),
   midi.NoteOnEvent(tick=0, channel=4, data=[55, 0]),
   midi.NoteOnEvent(tick=20, channel=4, data=[55, 92]),
   midi.NoteOnEvent(tick=0, channel=4, data=[67, 92]),
   midi.NoteOnEvent(tick=100, channel=4, data=[67, 0]),
   midi.NoteOnEvent(tick=0, channel=4, data=[55, 0]),
   midi.NoteOnEvent(tick=3020, channel=4, data=[55, 92]),
   midi.NoteOnEvent(tick=0, channel=4, data=[67, 92]),
   midi.NoteOnEvent(tick=210, channel=4, data=[67, 0]),
   midi.NoteOnEvent(tick=0, channel=4, data=[55, 0]),
   midi.NoteOnEvent(tick=30, channel=4, data=[55, 92]),
   midi.NoteOnEvent(tick=0, channel=4, data=[67, 92]),
   midi.NoteOnEvent(tick=100, channel=4, data=[67, 0]),
   midi.NoteOnEvent(tick=0, channel=4, data=[55, 0]),
   midi.NoteOnEvent(tick=4220, channel=4, data=[67, 92]),
   midi.NoteOnEvent(tick=100, channel=4, data=[67, 0]),
   midi.NoteOnEvent(tick=380, channel=4, data=[69, 92]),
   midi.NoteOnEvent(tick=100, channel=4, data=[69, 0]),
   midi.NoteOnEvent(tick=380, channel=4, data=[69, 92]),
   midi.NoteOnEvent(tick=100, channel=4, data=[69, 0]),
   midi.NoteOnEvent(tick=380, channel=4, data=[55, 92]),
   midi.NoteOnEvent(tick=0, channel=4, data=[67, 92]),
   midi.NoteOnEvent(tick=100, channel=4, data=[67, 0]),
   midi.NoteOnEvent(tick=0, channel=4, data=[55, 0]),
   midi.NoteOnEvent(tick=380, channel=4, data=[55, 92]),
   midi.NoteOnEvent(tick=0, channel=4, data=[67, 92]),
   midi.NoteOnEvent(tick=100, channel=4, data=[67, 0]),
   midi.NoteOnEvent(tick=0, channel=4, data=[55, 0]),
   midi.NoteOnEvent(tick=380, channel=4, data=[55, 92]),
   midi.NoteOnEvent(tick=0, channel=4, data=[67, 92]),
   midi.NoteOnEvent(tick=100, channel=4, data=[67, 0]),
   midi.NoteOnEvent(tick=0, channel=4, data=[55, 0]),
   midi.ControlChangeEvent(tick=1820, channel=4, data=[7, 32]),
   midi.NoteOnEvent(tick=0, channel=4, data=[55, 60]),
   midi.NoteOnEvent(tick=0, channel=4, data=[67, 60]),
   midi.ControlChangeEvent(tick=1440, channel=4, data=[7, 48]),
   midi.ControlChangeEvent(tick=480, channel=4, data=[7, 64]),
   midi.ControlChangeEvent(tick=480, channel=4, data=[7, 80]),
   midi.ControlChangeEvent(tick=480, channel=4, data=[7, 96]),
   midi.NoteOnEvent(tick=930, channel=4, data=[67, 0]),
   midi.NoteOnEvent(tick=0, channel=4, data=[55, 0]),
   midi.NoteOnEvent(tick=30, channel=4, data=[67, 108]),
   midi.NoteOnEvent(tick=100, channel=4, data=[67, 0]),
   midi.NoteOnEvent(tick=20, channel=4, data=[67, 108]),
   midi.NoteOnEvent(tick=210, channel=4, data=[67, 0]),
   midi.NoteOnEvent(tick=30, channel=4, data=[69, 108]),
   midi.NoteOnEvent(tick=100, channel=4, data=[69, 0]),
   midi.NoteOnEvent(tick=20, channel=4, data=[67, 108]),
   midi.NoteOnEvent(tick=100, channel=4, data=[67, 0]),
   midi.NoteOnEvent(tick=20, channel=4, data=[69, 108]),
   midi.NoteOnEvent(tick=100, channel=4, data=[69, 0]),
   midi.NoteOnEvent(tick=20, channel=4, data=[67, 108]),
   midi.NoteOnEvent(tick=100, channel=4, data=[67, 0]),
   midi.NoteOnEvent(tick=20, channel=4, data=[55, 108]),
   midi.NoteOnEvent(tick=0, channel=4, data=[67, 108]),
   midi.NoteOnEvent(tick=100, channel=4, data=[67, 0]),
   midi.NoteOnEvent(tick=0, channel=4, data=[55, 0]),
   midi.NoteOnEvent(tick=20, channel=4, data=[55, 108]),
   midi.NoteOnEvent(tick=0, channel=4, data=[67, 108]),
   midi.NoteOnEvent(tick=100, channel=4, data=[67, 0]),
   midi.NoteOnEvent(tick=0, channel=4, data=[55, 0]),
   midi.NoteOnEvent(tick=20, channel=4, data=[67, 108]),
   midi.NoteOnEvent(tick=210, channel=4, data=[67, 0]),
   midi.NoteOnEvent(tick=30, channel=4, data=[69, 108]),
   midi.NoteOnEvent(tick=100, channel=4, data=[69, 0]),
   midi.NoteOnEvent(tick=20, channel=4, data=[67, 108]),
   midi.NoteOnEvent(tick=100, channel=4, data=[67, 0]),
   midi.NoteOnEvent(tick=20, channel=4, data=[69, 108]),
   midi.NoteOnEvent(tick=100, channel=4, data=[69, 0]),
   midi.NoteOnEvent(tick=20, channel=4, data=[67, 108]),
   midi.NoteOnEvent(tick=100, channel=4, data=[67, 0]),
   midi.NoteOnEvent(tick=20, channel=4, data=[55, 108]),
   midi.NoteOnEvent(tick=0, channel=4, data=[67, 108]),
   midi.NoteOnEvent(tick=100, channel=4, data=[67, 0]),
   midi.NoteOnEvent(tick=0, channel=4, data=[55, 0]),
   midi.NoteOnEvent(tick=20, channel=4, data=[55, 108]),
   midi.NoteOnEvent(tick=0, channel=4, data=[67, 108]),
   midi.NoteOnEvent(tick=100, channel=4, data=[67, 0]),
   midi.NoteOnEvent(tick=0, channel=4, data=[55, 0]),
   midi.NoteOnEvent(tick=20, channel=4, data=[55, 108]),
   midi.NoteOnEvent(tick=0, channel=4, data=[67, 108]),
   midi.NoteOnEvent(tick=100, channel=4, data=[67, 0]),
   midi.NoteOnEvent(tick=0, channel=4, data=[55, 0]),
   midi.NoteOnEvent(tick=20, channel=4, data=[55, 108]),
   midi.NoteOnEvent(tick=0, channel=4, data=[67, 108]),
   midi.NoteOnEvent(tick=100, channel=4, data=[67, 0]),
   midi.NoteOnEvent(tick=0, channel=4, data=[55, 0]),
   midi.NoteOnEvent(tick=20, channel=4, data=[55, 108]),
   midi.NoteOnEvent(tick=0, channel=4, data=[67, 108]),
   midi.NoteOnEvent(tick=100, channel=4, data=[67, 0]),
   midi.NoteOnEvent(tick=0, channel=4, data=[55, 0]),
   midi.NoteOnEvent(tick=20, channel=4, data=[55, 108]),
   midi.NoteOnEvent(tick=0, channel=4, data=[67, 108]),
   midi.NoteOnEvent(tick=100, channel=4, data=[67, 0]),
   midi.NoteOnEvent(tick=0, channel=4, data=[55, 0]),
   midi.NoteOnEvent(tick=20, channel=4, data=[55, 108]),
   midi.NoteOnEvent(tick=0, channel=4, data=[67, 108]),
   midi.NoteOnEvent(tick=100, channel=4, data=[67, 0]),
   midi.NoteOnEvent(tick=0, channel=4, data=[55, 0]),
   midi.NoteOnEvent(tick=20, channel=4, data=[55, 108]),
   midi.NoteOnEvent(tick=0, channel=4, data=[67, 108]),
   midi.NoteOnEvent(tick=100, channel=4, data=[67, 0]),
   midi.NoteOnEvent(tick=0, channel=4, data=[55, 0]),
   midi.NoteOnEvent(tick=20, channel=4, data=[55, 108]),
   midi.NoteOnEvent(tick=0, channel=4, data=[67, 108]),
   midi.NoteOnEvent(tick=100, channel=4, data=[67, 0]),
   midi.NoteOnEvent(tick=0, channel=4, data=[55, 0]),
   midi.NoteOnEvent(tick=20, channel=4, data=[55, 108]),
   midi.NoteOnEvent(tick=0, channel=4, data=[67, 108]),
   midi.NoteOnEvent(tick=100, channel=4, data=[67, 0]),
   midi.NoteOnEvent(tick=0, channel=4, data=[55, 0]),
   midi.NoteOnEvent(tick=380, channel=4, data=[55, 108]),
   midi.NoteOnEvent(tick=0, channel=4, data=[67, 108]),
   midi.NoteOnEvent(tick=100, channel=4, data=[67, 0]),
   midi.NoteOnEvent(tick=0, channel=4, data=[55, 0]),
   midi.NoteOnEvent(tick=140, channel=4, data=[55, 108]),
   midi.NoteOnEvent(tick=0, channel=4, data=[67, 108]),
   midi.NoteOnEvent(tick=100, channel=4, data=[67, 0]),
   midi.NoteOnEvent(tick=0, channel=4, data=[55, 0]),
   midi.NoteOnEvent(tick=140, channel=4, data=[55, 108]),
   midi.NoteOnEvent(tick=0, channel=4, data=[67, 108]),
   midi.NoteOnEvent(tick=210, channel=4, data=[67, 0]),
   midi.NoteOnEvent(tick=0, channel=4, data=[55, 0]),
   midi.EndOfTrackEvent(tick=0, data=[])]),
 midi.Track(\
  [midi.PortEvent(tick=0, data=[0]),
   midi.TrackNameEvent(tick=0, text='Trumpets (C)', data=[84, 114, 117, 109, 112, 101, 116, 115, 32, 40, 67, 41]),
   midi.ProgramChangeEvent(tick=0, channel=5, data=[56]),
   midi.ControlChangeEvent(tick=0, channel=5, data=[7, 127]),
   midi.ControlChangeEvent(tick=0, channel=5, data=[10, 90]),
   midi.NoteOnEvent(tick=0, channel=5, data=[64, 92]),
   midi.NoteOnEvent(tick=0, channel=5, data=[72, 92]),
   midi.NoteOnEvent(tick=100, channel=5, data=[72, 0]),
   midi.NoteOnEvent(tick=0, channel=5, data=[64, 0]),
   midi.NoteOnEvent(tick=110, channel=5, data=[60, 92]),
   midi.NoteOnEvent(tick=0, channel=5, data=[64, 92]),
   midi.NoteOnEvent(tick=28, channel=5, data=[64, 0]),
   midi.NoteOnEvent(tick=0, channel=5, data=[60, 0]),
   midi.NoteOnEvent(tick=2, channel=5, data=[60, 92]),
   midi.NoteOnEvent(tick=0, channel=5, data=[64, 92]),
   midi.NoteOnEvent(tick=100, channel=5, data=[64, 0]),
   midi.NoteOnEvent(tick=0, channel=5, data=[60, 0]),
   midi.NoteOnEvent(tick=1550, channel=5, data=[55, 92]),
   midi.NoteOnEvent(tick=0, channel=5, data=[67, 92]),
   midi.NoteOnEvent(tick=28, channel=5, data=[67, 0]),
   midi.NoteOnEvent(tick=0, channel=5, data=[55, 0]),
   midi.NoteOnEvent(tick=2, channel=5, data=[55, 92]),
   midi.NoteOnEvent(tick=0, channel=5, data=[67, 92]),
   midi.NoteOnEvent(tick=100, channel=5, data=[67, 0]),
   midi.NoteOnEvent(tick=0, channel=5, data=[55, 0]),
   midi.NoteOnEvent(tick=110, channel=5, data=[55, 92]),
   midi.NoteOnEvent(tick=0, channel=5, data=[67, 92]),
   midi.NoteOnEvent(tick=28, channel=5, data=[67, 0]),
   midi.NoteOnEvent(tick=0, channel=5, data=[55, 0]),
   midi.NoteOnEvent(tick=2, channel=5, data=[55, 92]),
   midi.NoteOnEvent(tick=0, channel=5, data=[67, 92]),
   midi.NoteOnEvent(tick=100, channel=5, data=[67, 0]),
   midi.NoteOnEvent(tick=0, channel=5, data=[55, 0]),
   midi.NoteOnEvent(tick=3260, channel=5, data=[60, 92]),
   midi.NoteOnEvent(tick=0, channel=5, data=[72, 92]),
   midi.NoteOnEvent(tick=100, channel=5, data=[72, 0]),
   midi.NoteOnEvent(tick=0, channel=5, data=[60, 0]),
   midi.NoteOnEvent(tick=140, channel=5, data=[60, 92]),
   midi.NoteOnEvent(tick=0, channel=5, data=[72, 92]),
   midi.NoteOnEvent(tick=100, channel=5, data=[72, 0]),
   midi.NoteOnEvent(tick=0, channel=5, data=[60, 0]),
   midi.NoteOnEvent(tick=140, channel=5, data=[60, 92]),
   midi.NoteOnEvent(tick=0, channel=5, data=[72, 92]),
   midi.NoteOnEvent(tick=100, channel=5, data=[72, 0]),
   midi.NoteOnEvent(tick=0, channel=5, data=[60, 0]),
   midi.NoteOnEvent(tick=140, channel=5, data=[55, 92]),
   midi.NoteOnEvent(tick=0, channel=5, data=[67, 92]),
   midi.NoteOnEvent(tick=100, channel=5, data=[67, 0]),
   midi.NoteOnEvent(tick=0, channel=5, data=[55, 0]),
   midi.NoteOnEvent(tick=140, channel=5, data=[55, 92]),
   midi.NoteOnEvent(tick=0, channel=5, data=[67, 92]),
   midi.NoteOnEvent(tick=100, channel=5, data=[67, 0]),
   midi.NoteOnEvent(tick=0, channel=5, data=[55, 0]),
   midi.NoteOnEvent(tick=140, channel=5, data=[60, 92]),
   midi.NoteOnEvent(tick=0, channel=5, data=[64, 92]),
   midi.NoteOnEvent(tick=100, channel=5, data=[64, 0]),
   midi.NoteOnEvent(tick=0, channel=5, data=[60, 0]),
   midi.NoteOnEvent(tick=4700, channel=5, data=[60, 92]),
   midi.NoteOnEvent(tick=0, channel=5, data=[72, 92]),
   midi.NoteOnEvent(tick=100, channel=5, data=[72, 0]),
   midi.NoteOnEvent(tick=0, channel=5, data=[60, 0]),
   midi.NoteOnEvent(tick=20, channel=5, data=[60, 92]),
   midi.NoteOnEvent(tick=0, channel=5, data=[72, 92]),
   midi.NoteOnEvent(tick=210, channel=5, data=[72, 0]),
   midi.NoteOnEvent(tick=0, channel=5, data=[60, 0]),
   midi.NoteOnEvent(tick=30, channel=5, data=[60, 92]),
   midi.NoteOnEvent(tick=0, channel=5, data=[72, 92]),
   midi.NoteOnEvent(tick=100, channel=5, data=[72, 0]),
   midi.NoteOnEvent(tick=0, channel=5, data=[60, 0]),
   midi.NoteOnEvent(tick=20, channel=5, data=[60, 92]),
   midi.NoteOnEvent(tick=0, channel=5, data=[72, 92]),
   midi.NoteOnEvent(tick=100, channel=5, data=[72, 0]),
   midi.NoteOnEvent(tick=0, channel=5, data=[60, 0]),
   midi.NoteOnEvent(tick=20, channel=5, data=[60, 92]),
   midi.NoteOnEvent(tick=0, channel=5, data=[72, 92]),
   midi.NoteOnEvent(tick=100, channel=5, data=[72, 0]),
   midi.NoteOnEvent(tick=0, channel=5, data=[60, 0]),
   midi.NoteOnEvent(tick=20, channel=5, data=[60, 92]),
   midi.NoteOnEvent(tick=0, channel=5, data=[72, 92]),
   midi.NoteOnEvent(tick=100, channel=5, data=[72, 0]),
   midi.NoteOnEvent(tick=0, channel=5, data=[60, 0]),
   midi.NoteOnEvent(tick=20, channel=5, data=[60, 92]),
   midi.NoteOnEvent(tick=0, channel=5, data=[72, 92]),
   midi.NoteOnEvent(tick=100, channel=5, data=[72, 0]),
   midi.NoteOnEvent(tick=0, channel=5, data=[60, 0]),
   midi.NoteOnEvent(tick=20, channel=5, data=[60, 92]),
   midi.NoteOnEvent(tick=0, channel=5, data=[72, 92]),
   midi.NoteOnEvent(tick=100, channel=5, data=[72, 0]),
   midi.NoteOnEvent(tick=0, channel=5, data=[60, 0]),
   midi.NoteOnEvent(tick=20, channel=5, data=[60, 92]),
   midi.NoteOnEvent(tick=0, channel=5, data=[72, 92]),
   midi.NoteOnEvent(tick=210, channel=5, data=[72, 0]),
   midi.NoteOnEvent(tick=0, channel=5, data=[60, 0]),
   midi.NoteOnEvent(tick=30, channel=5, data=[60, 92]),
   midi.NoteOnEvent(tick=0, channel=5, data=[72, 92]),
   midi.NoteOnEvent(tick=100, channel=5, data=[72, 0]),
   midi.NoteOnEvent(tick=0, channel=5, data=[60, 0]),
   midi.NoteOnEvent(tick=20, channel=5, data=[60, 92]),
   midi.NoteOnEvent(tick=0, channel=5, data=[72, 92]),
   midi.NoteOnEvent(tick=100, channel=5, data=[72, 0]),
   midi.NoteOnEvent(tick=0, channel=5, data=[60, 0]),
   midi.NoteOnEvent(tick=20, channel=5, data=[60, 92]),
   midi.NoteOnEvent(tick=0, channel=5, data=[72, 92]),
   midi.NoteOnEvent(tick=100, channel=5, data=[72, 0]),
   midi.NoteOnEvent(tick=0, channel=5, data=[60, 0]),
   midi.NoteOnEvent(tick=20, channel=5, data=[60, 92]),
   midi.NoteOnEvent(tick=0, channel=5, data=[72, 92]),
   midi.NoteOnEvent(tick=100, channel=5, data=[72, 0]),
   midi.NoteOnEvent(tick=0, channel=5, data=[60, 0]),
   midi.NoteOnEvent(tick=20, channel=5, data=[60, 92]),
   midi.NoteOnEvent(tick=0, channel=5, data=[72, 92]),
   midi.NoteOnEvent(tick=100, channel=5, data=[72, 0]),
   midi.NoteOnEvent(tick=0, channel=5, data=[60, 0]),
   midi.NoteOnEvent(tick=20, channel=5, data=[60, 92]),
   midi.NoteOnEvent(tick=0, channel=5, data=[72, 92]),
   midi.NoteOnEvent(tick=100, channel=5, data=[72, 0]),
   midi.NoteOnEvent(tick=0, channel=5, data=[60, 0]),
   midi.NoteOnEvent(tick=6620, channel=5, data=[55, 60]),
   midi.NoteOnEvent(tick=0, channel=5, data=[67, 60]),
   midi.NoteOnEvent(tick=930, channel=5, data=[67, 0]),
   midi.NoteOnEvent(tick=0, channel=5, data=[55, 0]),
   midi.NoteOnEvent(tick=30, channel=5, data=[60, 60]),
   midi.NoteOnEvent(tick=100, channel=5, data=[60, 0]),
   midi.NoteOnEvent(tick=9620, channel=5, data=[67, 92]),
   midi.NoteOnEvent(tick=0, channel=5, data=[74, 92]),
   midi.NoteOnEvent(tick=210, channel=5, data=[74, 0]),
   midi.NoteOnEvent(tick=0, channel=5, data=[67, 0]),
   midi.NoteOnEvent(tick=30, channel=5, data=[74, 92]),
   midi.NoteOnEvent(tick=100, channel=5, data=[74, 0]),
   midi.NoteOnEvent(tick=20, channel=5, data=[67, 92]),
   midi.NoteOnEvent(tick=0, channel=5, data=[74, 92]),
   midi.NoteOnEvent(tick=100, channel=5, data=[74, 0]),
   midi.NoteOnEvent(tick=0, channel=5, data=[67, 0]),
   midi.NoteOnEvent(tick=20, channel=5, data=[74, 92]),
   midi.NoteOnEvent(tick=100, channel=5, data=[74, 0]),
   midi.NoteOnEvent(tick=20, channel=5, data=[67, 92]),
   midi.NoteOnEvent(tick=0, channel=5, data=[74, 92]),
   midi.NoteOnEvent(tick=100, channel=5, data=[74, 0]),
   midi.NoteOnEvent(tick=0, channel=5, data=[67, 0]),
   midi.NoteOnEvent(tick=980, channel=5, data=[55, 92]),
   midi.NoteOnEvent(tick=0, channel=5, data=[67, 92]),
   midi.NoteOnEvent(tick=100, channel=5, data=[67, 0]),
   midi.NoteOnEvent(tick=0, channel=5, data=[55, 0]),
   midi.NoteOnEvent(tick=20, channel=5, data=[55, 92]),
   midi.NoteOnEvent(tick=0, channel=5, data=[67, 92]),
   midi.NoteOnEvent(tick=100, channel=5, data=[67, 0]),
   midi.NoteOnEvent(tick=0, channel=5, data=[55, 0]),
   midi.NoteOnEvent(tick=20, channel=5, data=[55, 92]),
   midi.NoteOnEvent(tick=0, channel=5, data=[67, 92]),
   midi.NoteOnEvent(tick=210, channel=5, data=[67, 0]),
   midi.NoteOnEvent(tick=0, channel=5, data=[55, 0]),
   midi.NoteOnEvent(tick=30, channel=5, data=[55, 92]),
   midi.NoteOnEvent(tick=0, channel=5, data=[67, 92]),
   midi.NoteOnEvent(tick=100, channel=5, data=[67, 0]),
   midi.NoteOnEvent(tick=0, channel=5, data=[55, 0]),
   midi.NoteOnEvent(tick=20, channel=5, data=[55, 92]),
   midi.NoteOnEvent(tick=0, channel=5, data=[67, 92]),
   midi.NoteOnEvent(tick=100, channel=5, data=[67, 0]),
   midi.NoteOnEvent(tick=0, channel=5, data=[55, 0]),
   midi.NoteOnEvent(tick=1340, channel=5, data=[67, 92]),
   midi.NoteOnEvent(tick=0, channel=5, data=[79, 92]),
   midi.NoteOnEvent(tick=210, channel=5, data=[79, 0]),
   midi.NoteOnEvent(tick=0, channel=5, data=[67, 0]),
   midi.NoteOnEvent(tick=270, channel=5, data=[64, 92]),
   midi.NoteOnEvent(tick=0, channel=5, data=[76, 92]),
   midi.NoteOnEvent(tick=210, channel=5, data=[76, 0]),
   midi.NoteOnEvent(tick=0, channel=5, data=[64, 0]),
   midi.NoteOnEvent(tick=270, channel=5, data=[72, 92]),
   midi.NoteOnEvent(tick=210, channel=5, data=[72, 0]),
   midi.NoteOnEvent(tick=30, channel=5, data=[74, 92]),
   midi.NoteOnEvent(tick=210, channel=5, data=[74, 0]),
   midi.NoteOnEvent(tick=30, channel=5, data=[67, 92]),
   midi.NoteOnEvent(tick=0, channel=5, data=[79, 92]),
   midi.NoteOnEvent(tick=210, channel=5, data=[79, 0]),
   midi.NoteOnEvent(tick=0, channel=5, data=[67, 0]),
   midi.NoteOnEvent(tick=270, channel=5, data=[64, 92]),
   midi.NoteOnEvent(tick=0, channel=5, data=[76, 92]),
   midi.NoteOnEvent(tick=210, channel=5, data=[76, 0]),
   midi.NoteOnEvent(tick=0, channel=5, data=[64, 0]),
   midi.NoteOnEvent(tick=270, channel=5, data=[72, 92]),
   midi.NoteOnEvent(tick=210, channel=5, data=[72, 0]),
   midi.NoteOnEvent(tick=30, channel=5, data=[74, 92]),
   midi.NoteOnEvent(tick=210, channel=5, data=[74, 0]),
   midi.NoteOnEvent(tick=30, channel=5, data=[67, 92]),
   midi.NoteOnEvent(tick=100, channel=5, data=[67, 0]),
   midi.NoteOnEvent(tick=10460, channel=5, data=[64, 92]),
   midi.NoteOnEvent(tick=0, channel=5, data=[76, 92]),
   midi.NoteOnEvent(tick=100, channel=5, data=[76, 0]),
   midi.NoteOnEvent(tick=0, channel=5, data=[64, 0]),
   midi.NoteOnEvent(tick=20, channel=5, data=[64, 92]),
   midi.NoteOnEvent(tick=0, channel=5, data=[76, 92]),
   midi.NoteOnEvent(tick=210, channel=5, data=[76, 0]),
   midi.NoteOnEvent(tick=0, channel=5, data=[64, 0]),
   midi.NoteOnEvent(tick=30, channel=5, data=[64, 92]),
   midi.NoteOnEvent(tick=0, channel=5, data=[76, 92]),
   midi.NoteOnEvent(tick=100, channel=5, data=[76, 0]),
   midi.NoteOnEvent(tick=0, channel=5, data=[64, 0]),
   midi.NoteOnEvent(tick=20, channel=5, data=[64, 92]),
   midi.NoteOnEvent(tick=0, channel=5, data=[76, 92]),
   midi.NoteOnEvent(tick=100, channel=5, data=[76, 0]),
   midi.NoteOnEvent(tick=0, channel=5, data=[64, 0]),
   midi.NoteOnEvent(tick=20, channel=5, data=[64, 92]),
   midi.NoteOnEvent(tick=0, channel=5, data=[76, 92]),
   midi.NoteOnEvent(tick=100, channel=5, data=[76, 0]),
   midi.NoteOnEvent(tick=0, channel=5, data=[64, 0]),
   midi.NoteOnEvent(tick=20, channel=5, data=[64, 92]),
   midi.NoteOnEvent(tick=0, channel=5, data=[76, 92]),
   midi.NoteOnEvent(tick=100, channel=5, data=[76, 0]),
   midi.NoteOnEvent(tick=0, channel=5, data=[64, 0]),
   midi.NoteOnEvent(tick=20, channel=5, data=[64, 92]),
   midi.NoteOnEvent(tick=0, channel=5, data=[76, 92]),
   midi.NoteOnEvent(tick=100, channel=5, data=[76, 0]),
   midi.NoteOnEvent(tick=0, channel=5, data=[64, 0]),
   midi.NoteOnEvent(tick=20, channel=5, data=[64, 92]),
   midi.NoteOnEvent(tick=0, channel=5, data=[76, 92]),
   midi.NoteOnEvent(tick=100, channel=5, data=[76, 0]),
   midi.NoteOnEvent(tick=0, channel=5, data=[64, 0]),
   midi.NoteOnEvent(tick=20, channel=5, data=[64, 92]),
   midi.NoteOnEvent(tick=0, channel=5, data=[76, 92]),
   midi.NoteOnEvent(tick=210, channel=5, data=[76, 0]),
   midi.NoteOnEvent(tick=0, channel=5, data=[64, 0]),
   midi.NoteOnEvent(tick=30, channel=5, data=[64, 92]),
   midi.NoteOnEvent(tick=0, channel=5, data=[76, 92]),
   midi.NoteOnEvent(tick=100, channel=5, data=[76, 0]),
   midi.NoteOnEvent(tick=0, channel=5, data=[64, 0]),
   midi.NoteOnEvent(tick=20, channel=5, data=[64, 92]),
   midi.NoteOnEvent(tick=0, channel=5, data=[76, 92]),
   midi.NoteOnEvent(tick=100, channel=5, data=[76, 0]),
   midi.NoteOnEvent(tick=0, channel=5, data=[64, 0]),
   midi.NoteOnEvent(tick=20, channel=5, data=[64, 92]),
   midi.NoteOnEvent(tick=0, channel=5, data=[76, 92]),
   midi.NoteOnEvent(tick=100, channel=5, data=[76, 0]),
   midi.NoteOnEvent(tick=0, channel=5, data=[64, 0]),
   midi.NoteOnEvent(tick=20, channel=5, data=[64, 92]),
   midi.NoteOnEvent(tick=0, channel=5, data=[76, 92]),
   midi.NoteOnEvent(tick=100, channel=5, data=[76, 0]),
   midi.NoteOnEvent(tick=0, channel=5, data=[64, 0]),
   midi.NoteOnEvent(tick=20, channel=5, data=[64, 92]),
   midi.NoteOnEvent(tick=0, channel=5, data=[76, 92]),
   midi.NoteOnEvent(tick=100, channel=5, data=[76, 0]),
   midi.NoteOnEvent(tick=0, channel=5, data=[64, 0]),
   midi.NoteOnEvent(tick=20, channel=5, data=[64, 92]),
   midi.NoteOnEvent(tick=0, channel=5, data=[76, 92]),
   midi.NoteOnEvent(tick=100, channel=5, data=[76, 0]),
   midi.NoteOnEvent(tick=0, channel=5, data=[64, 0]),
   midi.NoteOnEvent(tick=7580, channel=5, data=[74, 92]),
   midi.NoteOnEvent(tick=100, channel=5, data=[74, 0]),
   midi.NoteOnEvent(tick=20, channel=5, data=[74, 92]),
   midi.NoteOnEvent(tick=210, channel=5, data=[74, 0]),
   midi.NoteOnEvent(tick=30, channel=5, data=[74, 92]),
   midi.NoteOnEvent(tick=100, channel=5, data=[74, 0]),
   midi.NoteOnEvent(tick=20, channel=5, data=[74, 92]),
   midi.NoteOnEvent(tick=100, channel=5, data=[74, 0]),
   midi.NoteOnEvent(tick=20, channel=5, data=[74, 92]),
   midi.NoteOnEvent(tick=100, channel=5, data=[74, 0]),
   midi.NoteOnEvent(tick=20, channel=5, data=[74, 92]),
   midi.NoteOnEvent(tick=100, channel=5, data=[74, 0]),
   midi.NoteOnEvent(tick=20, channel=5, data=[74, 92]),
   midi.NoteOnEvent(tick=100, channel=5, data=[74, 0]),
   midi.NoteOnEvent(tick=20, channel=5, data=[74, 92]),
   midi.NoteOnEvent(tick=100, channel=5, data=[74, 0]),
   midi.NoteOnEvent(tick=3740, channel=5, data=[55, 92]),
   midi.NoteOnEvent(tick=0, channel=5, data=[67, 92]),
   midi.NoteOnEvent(tick=100, channel=5, data=[67, 0]),
   midi.NoteOnEvent(tick=0, channel=5, data=[55, 0]),
   midi.NoteOnEvent(tick=20, channel=5, data=[55, 92]),
   midi.NoteOnEvent(tick=0, channel=5, data=[67, 92]),
   midi.NoteOnEvent(tick=210, channel=5, data=[67, 0]),
   midi.NoteOnEvent(tick=0, channel=5, data=[55, 0]),
   midi.NoteOnEvent(tick=30, channel=5, data=[55, 92]),
   midi.NoteOnEvent(tick=0, channel=5, data=[67, 92]),
   midi.NoteOnEvent(tick=100, channel=5, data=[67, 0]),
   midi.NoteOnEvent(tick=0, channel=5, data=[55, 0]),
   midi.NoteOnEvent(tick=20, channel=5, data=[55, 92]),
   midi.NoteOnEvent(tick=0, channel=5, data=[67, 92]),
   midi.NoteOnEvent(tick=100, channel=5, data=[67, 0]),
   midi.NoteOnEvent(tick=0, channel=5, data=[55, 0]),
   midi.NoteOnEvent(tick=20, channel=5, data=[55, 92]),
   midi.NoteOnEvent(tick=0, channel=5, data=[67, 92]),
   midi.NoteOnEvent(tick=100, channel=5, data=[67, 0]),
   midi.NoteOnEvent(tick=0, channel=5, data=[55, 0]),
   midi.NoteOnEvent(tick=20, channel=5, data=[55, 92]),
   midi.NoteOnEvent(tick=0, channel=5, data=[67, 92]),
   midi.NoteOnEvent(tick=100, channel=5, data=[67, 0]),
   midi.NoteOnEvent(tick=0, channel=5, data=[55, 0]),
   midi.NoteOnEvent(tick=20, channel=5, data=[55, 92]),
   midi.NoteOnEvent(tick=0, channel=5, data=[67, 92]),
   midi.NoteOnEvent(tick=100, channel=5, data=[67, 0]),
   midi.NoteOnEvent(tick=0, channel=5, data=[55, 0]),
   midi.NoteOnEvent(tick=20, channel=5, data=[55, 92]),
   midi.NoteOnEvent(tick=0, channel=5, data=[67, 92]),
   midi.NoteOnEvent(tick=100, channel=5, data=[67, 0]),
   midi.NoteOnEvent(tick=0, channel=5, data=[55, 0]),
   midi.NoteOnEvent(tick=2780, channel=5, data=[60, 92]),
   midi.NoteOnEvent(tick=0, channel=5, data=[72, 92]),
   midi.NoteOnEvent(tick=100, channel=5, data=[72, 0]),
   midi.NoteOnEvent(tick=0, channel=5, data=[60, 0]),
   midi.NoteOnEvent(tick=20, channel=5, data=[60, 92]),
   midi.NoteOnEvent(tick=0, channel=5, data=[72, 92]),
   midi.NoteOnEvent(tick=210, channel=5, data=[72, 0]),
   midi.NoteOnEvent(tick=0, channel=5, data=[60, 0]),
   midi.NoteOnEvent(tick=30, channel=5, data=[60, 92]),
   midi.NoteOnEvent(tick=0, channel=5, data=[72, 92]),
   midi.NoteOnEvent(tick=100, channel=5, data=[72, 0]),
   midi.NoteOnEvent(tick=0, channel=5, data=[60, 0]),
   midi.NoteOnEvent(tick=20, channel=5, data=[60, 92]),
   midi.NoteOnEvent(tick=0, channel=5, data=[72, 92]),
   midi.NoteOnEvent(tick=100, channel=5, data=[72, 0]),
   midi.NoteOnEvent(tick=0, channel=5, data=[60, 0]),
   midi.NoteOnEvent(tick=20, channel=5, data=[60, 92]),
   midi.NoteOnEvent(tick=0, channel=5, data=[72, 92]),
   midi.NoteOnEvent(tick=100, channel=5, data=[72, 0]),
   midi.NoteOnEvent(tick=0, channel=5, data=[60, 0]),
   midi.NoteOnEvent(tick=20, channel=5, data=[60, 92]),
   midi.NoteOnEvent(tick=0, channel=5, data=[72, 92]),
   midi.NoteOnEvent(tick=100, channel=5, data=[72, 0]),
   midi.NoteOnEvent(tick=0, channel=5, data=[60, 0]),
   midi.NoteOnEvent(tick=20, channel=5, data=[60, 92]),
   midi.NoteOnEvent(tick=0, channel=5, data=[72, 92]),
   midi.NoteOnEvent(tick=100, channel=5, data=[72, 0]),
   midi.NoteOnEvent(tick=0, channel=5, data=[60, 0]),
   midi.NoteOnEvent(tick=20, channel=5, data=[60, 92]),
   midi.NoteOnEvent(tick=0, channel=5, data=[72, 92]),
   midi.NoteOnEvent(tick=100, channel=5, data=[72, 0]),
   midi.NoteOnEvent(tick=0, channel=5, data=[60, 0]),
   midi.NoteOnEvent(tick=11420, channel=5, data=[60, 92]),
   midi.NoteOnEvent(tick=0, channel=5, data=[72, 92]),
   midi.NoteOnEvent(tick=100, channel=5, data=[72, 0]),
   midi.NoteOnEvent(tick=0, channel=5, data=[60, 0]),
   midi.NoteOnEvent(tick=20, channel=5, data=[60, 92]),
   midi.NoteOnEvent(tick=0, channel=5, data=[72, 92]),
   midi.NoteOnEvent(tick=210, channel=5, data=[72, 0]),
   midi.NoteOnEvent(tick=0, channel=5, data=[60, 0]),
   midi.NoteOnEvent(tick=30, channel=5, data=[60, 92]),
   midi.NoteOnEvent(tick=0, channel=5, data=[72, 92]),
   midi.NoteOnEvent(tick=100, channel=5, data=[72, 0]),
   midi.NoteOnEvent(tick=0, channel=5, data=[60, 0]),
   midi.NoteOnEvent(tick=20, channel=5, data=[60, 92]),
   midi.NoteOnEvent(tick=0, channel=5, data=[72, 92]),
   midi.NoteOnEvent(tick=100, channel=5, data=[72, 0]),
   midi.NoteOnEvent(tick=0, channel=5, data=[60, 0]),
   midi.NoteOnEvent(tick=1220, channel=5, data=[55, 92]),
   midi.NoteOnEvent(tick=0, channel=5, data=[67, 92]),
   midi.NoteOnEvent(tick=100, channel=5, data=[67, 0]),
   midi.NoteOnEvent(tick=0, channel=5, data=[55, 0]),
   midi.NoteOnEvent(tick=20, channel=5, data=[60, 92]),
   midi.NoteOnEvent(tick=0, channel=5, data=[72, 92]),
   midi.NoteOnEvent(tick=100, channel=5, data=[72, 0]),
   midi.NoteOnEvent(tick=0, channel=5, data=[60, 0]),
   midi.NoteOnEvent(tick=20, channel=5, data=[60, 92]),
   midi.NoteOnEvent(tick=0, channel=5, data=[72, 92]),
   midi.NoteOnEvent(tick=210, channel=5, data=[72, 0]),
   midi.NoteOnEvent(tick=0, channel=5, data=[60, 0]),
   midi.NoteOnEvent(tick=30, channel=5, data=[55, 92]),
   midi.NoteOnEvent(tick=0, channel=5, data=[67, 92]),
   midi.NoteOnEvent(tick=100, channel=5, data=[67, 0]),
   midi.NoteOnEvent(tick=0, channel=5, data=[55, 0]),
   midi.NoteOnEvent(tick=20, channel=5, data=[60, 92]),
   midi.NoteOnEvent(tick=0, channel=5, data=[72, 92]),
   midi.NoteOnEvent(tick=100, channel=5, data=[72, 0]),
   midi.NoteOnEvent(tick=0, channel=5, data=[60, 0]),
   midi.NoteOnEvent(tick=1340, channel=5, data=[60, 92]),
   midi.NoteOnEvent(tick=0, channel=5, data=[72, 92]),
   midi.NoteOnEvent(tick=580, channel=5, data=[72, 0]),
   midi.NoteOnEvent(tick=0, channel=5, data=[60, 0]),
   midi.NoteOnEvent(tick=20, channel=5, data=[60, 92]),
   midi.NoteOnEvent(tick=0, channel=5, data=[72, 92]),
   midi.NoteOnEvent(tick=100, channel=5, data=[72, 0]),
   midi.NoteOnEvent(tick=0, channel=5, data=[60, 0]),
   midi.NoteOnEvent(tick=20, channel=5, data=[60, 92]),
   midi.NoteOnEvent(tick=0, channel=5, data=[72, 92]),
   midi.NoteOnEvent(tick=100, channel=5, data=[72, 0]),
   midi.NoteOnEvent(tick=0, channel=5, data=[60, 0]),
   midi.NoteOnEvent(tick=20, channel=5, data=[60, 92]),
   midi.NoteOnEvent(tick=0, channel=5, data=[72, 92]),
   midi.NoteOnEvent(tick=100, channel=5, data=[72, 0]),
   midi.NoteOnEvent(tick=0, channel=5, data=[60, 0]),
   midi.NoteOnEvent(tick=20, channel=5, data=[55, 92]),
   midi.NoteOnEvent(tick=0, channel=5, data=[67, 92]),
   midi.NoteOnEvent(tick=100, channel=5, data=[67, 0]),
   midi.NoteOnEvent(tick=0, channel=5, data=[55, 0]),
   midi.NoteOnEvent(tick=6620, channel=5, data=[60, 92]),
   midi.NoteOnEvent(tick=0, channel=5, data=[72, 92]),
   midi.NoteOnEvent(tick=100, channel=5, data=[72, 0]),
   midi.NoteOnEvent(tick=0, channel=5, data=[60, 0]),
   midi.NoteOnEvent(tick=20, channel=5, data=[60, 92]),
   midi.NoteOnEvent(tick=0, channel=5, data=[72, 92]),
   midi.NoteOnEvent(tick=210, channel=5, data=[72, 0]),
   midi.NoteOnEvent(tick=0, channel=5, data=[60, 0]),
   midi.NoteOnEvent(tick=30, channel=5, data=[60, 92]),
   midi.NoteOnEvent(tick=0, channel=5, data=[72, 92]),
   midi.NoteOnEvent(tick=100, channel=5, data=[72, 0]),
   midi.NoteOnEvent(tick=0, channel=5, data=[60, 0]),
   midi.NoteOnEvent(tick=20, channel=5, data=[60, 92]),
   midi.NoteOnEvent(tick=0, channel=5, data=[72, 92]),
   midi.NoteOnEvent(tick=100, channel=5, data=[72, 0]),
   midi.NoteOnEvent(tick=0, channel=5, data=[60, 0]),
   midi.NoteOnEvent(tick=20, channel=5, data=[60, 92]),
   midi.NoteOnEvent(tick=0, channel=5, data=[72, 92]),
   midi.NoteOnEvent(tick=100, channel=5, data=[72, 0]),
   midi.NoteOnEvent(tick=0, channel=5, data=[60, 0]),
   midi.NoteOnEvent(tick=20, channel=5, data=[60, 92]),
   midi.NoteOnEvent(tick=0, channel=5, data=[72, 92]),
   midi.NoteOnEvent(tick=100, channel=5, data=[72, 0]),
   midi.NoteOnEvent(tick=0, channel=5, data=[60, 0]),
   midi.NoteOnEvent(tick=20, channel=5, data=[60, 92]),
   midi.NoteOnEvent(tick=0, channel=5, data=[72, 92]),
   midi.NoteOnEvent(tick=100, channel=5, data=[72, 0]),
   midi.NoteOnEvent(tick=0, channel=5, data=[60, 0]),
   midi.NoteOnEvent(tick=20, channel=5, data=[60, 92]),
   midi.NoteOnEvent(tick=0, channel=5, data=[72, 92]),
   midi.NoteOnEvent(tick=100, channel=5, data=[72, 0]),
   midi.NoteOnEvent(tick=0, channel=5, data=[60, 0]),
   midi.NoteOnEvent(tick=20, channel=5, data=[60, 92]),
   midi.NoteOnEvent(tick=0, channel=5, data=[72, 92]),
   midi.NoteOnEvent(tick=210, channel=5, data=[72, 0]),
   midi.NoteOnEvent(tick=0, channel=5, data=[60, 0]),
   midi.NoteOnEvent(tick=30, channel=5, data=[60, 92]),
   midi.NoteOnEvent(tick=0, channel=5, data=[72, 92]),
   midi.NoteOnEvent(tick=100, channel=5, data=[72, 0]),
   midi.NoteOnEvent(tick=0, channel=5, data=[60, 0]),
   midi.NoteOnEvent(tick=20, channel=5, data=[60, 92]),
   midi.NoteOnEvent(tick=0, channel=5, data=[72, 92]),
   midi.NoteOnEvent(tick=100, channel=5, data=[72, 0]),
   midi.NoteOnEvent(tick=0, channel=5, data=[60, 0]),
   midi.NoteOnEvent(tick=20, channel=5, data=[60, 92]),
   midi.NoteOnEvent(tick=0, channel=5, data=[72, 92]),
   midi.NoteOnEvent(tick=100, channel=5, data=[72, 0]),
   midi.NoteOnEvent(tick=0, channel=5, data=[60, 0]),
   midi.NoteOnEvent(tick=20, channel=5, data=[60, 92]),
   midi.NoteOnEvent(tick=0, channel=5, data=[72, 92]),
   midi.NoteOnEvent(tick=100, channel=5, data=[72, 0]),
   midi.NoteOnEvent(tick=0, channel=5, data=[60, 0]),
   midi.NoteOnEvent(tick=20, channel=5, data=[60, 92]),
   midi.NoteOnEvent(tick=0, channel=5, data=[72, 92]),
   midi.NoteOnEvent(tick=100, channel=5, data=[72, 0]),
   midi.NoteOnEvent(tick=0, channel=5, data=[60, 0]),
   midi.NoteOnEvent(tick=20, channel=5, data=[60, 92]),
   midi.NoteOnEvent(tick=0, channel=5, data=[72, 92]),
   midi.NoteOnEvent(tick=100, channel=5, data=[72, 0]),
   midi.NoteOnEvent(tick=0, channel=5, data=[60, 0]),
   midi.NoteOnEvent(tick=3740, channel=5, data=[60, 60]),
   midi.NoteOnEvent(tick=0, channel=5, data=[72, 60]),
   midi.NoteOnEvent(tick=100, channel=5, data=[72, 0]),
   midi.NoteOnEvent(tick=0, channel=5, data=[60, 0]),
   midi.NoteOnEvent(tick=380, channel=5, data=[60, 60]),
   midi.NoteOnEvent(tick=0, channel=5, data=[72, 60]),
   midi.NoteOnEvent(tick=100, channel=5, data=[72, 0]),
   midi.NoteOnEvent(tick=0, channel=5, data=[60, 0]),
   midi.NoteOnEvent(tick=380, channel=5, data=[60, 60]),
   midi.NoteOnEvent(tick=0, channel=5, data=[72, 60]),
   midi.NoteOnEvent(tick=100, channel=5, data=[72, 0]),
   midi.NoteOnEvent(tick=0, channel=5, data=[60, 0]),
   midi.NoteOnEvent(tick=380, channel=5, data=[60, 60]),
   midi.NoteOnEvent(tick=0, channel=5, data=[72, 60]),
   midi.NoteOnEvent(tick=100, channel=5, data=[72, 0]),
   midi.NoteOnEvent(tick=0, channel=5, data=[60, 0]),
   midi.NoteOnEvent(tick=380, channel=5, data=[60, 60]),
   midi.NoteOnEvent(tick=0, channel=5, data=[72, 60]),
   midi.NoteOnEvent(tick=100, channel=5, data=[72, 0]),
   midi.NoteOnEvent(tick=0, channel=5, data=[60, 0]),
   midi.NoteOnEvent(tick=380, channel=5, data=[60, 60]),
   midi.NoteOnEvent(tick=0, channel=5, data=[72, 60]),
   midi.NoteOnEvent(tick=100, channel=5, data=[72, 0]),
   midi.NoteOnEvent(tick=0, channel=5, data=[60, 0]),
   midi.NoteOnEvent(tick=380, channel=5, data=[55, 60]),
   midi.NoteOnEvent(tick=0, channel=5, data=[67, 60]),
   midi.NoteOnEvent(tick=930, channel=5, data=[67, 0]),
   midi.NoteOnEvent(tick=0, channel=5, data=[55, 0]),
   midi.NoteOnEvent(tick=30, channel=5, data=[60, 60]),
   midi.NoteOnEvent(tick=0, channel=5, data=[67, 60]),
   midi.NoteOnEvent(tick=100, channel=5, data=[67, 0]),
   midi.NoteOnEvent(tick=0, channel=5, data=[60, 0]),
   midi.NoteOnEvent(tick=20, channel=5, data=[60, 92]),
   midi.NoteOnEvent(tick=0, channel=5, data=[72, 92]),
   midi.NoteOnEvent(tick=210, channel=5, data=[72, 0]),
   midi.NoteOnEvent(tick=0, channel=5, data=[60, 0]),
   midi.NoteOnEvent(tick=30, channel=5, data=[55, 92]),
   midi.NoteOnEvent(tick=0, channel=5, data=[67, 92]),
   midi.NoteOnEvent(tick=100, channel=5, data=[67, 0]),
   midi.NoteOnEvent(tick=0, channel=5, data=[55, 0]),
   midi.NoteOnEvent(tick=20, channel=5, data=[60, 92]),
   midi.NoteOnEvent(tick=0, channel=5, data=[72, 92]),
   midi.NoteOnEvent(tick=100, channel=5, data=[72, 0]),
   midi.NoteOnEvent(tick=0, channel=5, data=[60, 0]),
   midi.NoteOnEvent(tick=20, channel=5, data=[55, 92]),
   midi.NoteOnEvent(tick=0, channel=5, data=[67, 92]),
   midi.NoteOnEvent(tick=100, channel=5, data=[67, 0]),
   midi.NoteOnEvent(tick=0, channel=5, data=[55, 0]),
   midi.NoteOnEvent(tick=20, channel=5, data=[60, 92]),
   midi.NoteOnEvent(tick=0, channel=5, data=[72, 92]),
   midi.NoteOnEvent(tick=100, channel=5, data=[72, 0]),
   midi.NoteOnEvent(tick=0, channel=5, data=[60, 0]),
   midi.NoteOnEvent(tick=20, channel=5, data=[64, 92]),
   midi.NoteOnEvent(tick=0, channel=5, data=[76, 92]),
   midi.NoteOnEvent(tick=100, channel=5, data=[76, 0]),
   midi.NoteOnEvent(tick=0, channel=5, data=[64, 0]),
   midi.NoteOnEvent(tick=20, channel=5, data=[64, 92]),
   midi.NoteOnEvent(tick=0, channel=5, data=[76, 92]),
   midi.NoteOnEvent(tick=100, channel=5, data=[76, 0]),
   midi.NoteOnEvent(tick=0, channel=5, data=[64, 0]),
   midi.NoteOnEvent(tick=20, channel=5, data=[64, 92]),
   midi.NoteOnEvent(tick=0, channel=5, data=[76, 92]),
   midi.NoteOnEvent(tick=210, channel=5, data=[76, 0]),
   midi.NoteOnEvent(tick=0, channel=5, data=[64, 0]),
   midi.NoteOnEvent(tick=30, channel=5, data=[64, 92]),
   midi.NoteOnEvent(tick=0, channel=5, data=[76, 92]),
   midi.NoteOnEvent(tick=100, channel=5, data=[76, 0]),
   midi.NoteOnEvent(tick=0, channel=5, data=[64, 0]),
   midi.NoteOnEvent(tick=20, channel=5, data=[64, 92]),
   midi.NoteOnEvent(tick=0, channel=5, data=[76, 92]),
   midi.NoteOnEvent(tick=100, channel=5, data=[76, 0]),
   midi.NoteOnEvent(tick=0, channel=5, data=[64, 0]),
   midi.NoteOnEvent(tick=20, channel=5, data=[64, 92]),
   midi.NoteOnEvent(tick=0, channel=5, data=[76, 92]),
   midi.NoteOnEvent(tick=100, channel=5, data=[76, 0]),
   midi.NoteOnEvent(tick=0, channel=5, data=[64, 0]),
   midi.NoteOnEvent(tick=20, channel=5, data=[64, 92]),
   midi.NoteOnEvent(tick=0, channel=5, data=[76, 92]),
   midi.NoteOnEvent(tick=100, channel=5, data=[76, 0]),
   midi.NoteOnEvent(tick=0, channel=5, data=[64, 0]),
   midi.NoteOnEvent(tick=20, channel=5, data=[60, 92]),
   midi.NoteOnEvent(tick=0, channel=5, data=[72, 92]),
   midi.NoteOnEvent(tick=100, channel=5, data=[72, 0]),
   midi.NoteOnEvent(tick=0, channel=5, data=[60, 0]),
   midi.NoteOnEvent(tick=20, channel=5, data=[60, 92]),
   midi.NoteOnEvent(tick=0, channel=5, data=[72, 92]),
   midi.NoteOnEvent(tick=100, channel=5, data=[72, 0]),
   midi.NoteOnEvent(tick=0, channel=5, data=[60, 0]),
   midi.NoteOnEvent(tick=20, channel=5, data=[60, 92]),
   midi.NoteOnEvent(tick=0, channel=5, data=[72, 92]),
   midi.NoteOnEvent(tick=210, channel=5, data=[72, 0]),
   midi.NoteOnEvent(tick=0, channel=5, data=[60, 0]),
   midi.NoteOnEvent(tick=30, channel=5, data=[60, 92]),
   midi.NoteOnEvent(tick=0, channel=5, data=[72, 92]),
   midi.NoteOnEvent(tick=100, channel=5, data=[72, 0]),
   midi.NoteOnEvent(tick=0, channel=5, data=[60, 0]),
   midi.NoteOnEvent(tick=20, channel=5, data=[60, 92]),
   midi.NoteOnEvent(tick=0, channel=5, data=[72, 92]),
   midi.NoteOnEvent(tick=100, channel=5, data=[72, 0]),
   midi.NoteOnEvent(tick=0, channel=5, data=[60, 0]),
   midi.NoteOnEvent(tick=1100, channel=5, data=[67, 92]),
   midi.NoteOnEvent(tick=0, channel=5, data=[74, 92]),
   midi.NoteOnEvent(tick=210, channel=5, data=[74, 0]),
   midi.NoteOnEvent(tick=0, channel=5, data=[67, 0]),
   midi.NoteOnEvent(tick=30, channel=5, data=[72, 92]),
   midi.NoteOnEvent(tick=0, channel=5, data=[76, 92]),
   midi.NoteOnEvent(tick=450, channel=5, data=[76, 0]),
   midi.NoteOnEvent(tick=30, channel=5, data=[74, 92]),
   midi.NoteOnEvent(tick=210, channel=5, data=[72, 0]),
   midi.NoteOnEvent(tick=30, channel=5, data=[67, 92]),
   midi.NoteOnEvent(tick=210, channel=5, data=[67, 0]),
   midi.NoteOnEvent(tick=0, channel=5, data=[74, 0]),
   midi.NoteOnEvent(tick=30, channel=5, data=[60, 92]),
   midi.NoteOnEvent(tick=0, channel=5, data=[72, 92]),
   midi.NoteOnEvent(tick=100, channel=5, data=[72, 0]),
   midi.NoteOnEvent(tick=0, channel=5, data=[60, 0]),
   midi.NoteOnEvent(tick=20, channel=5, data=[60, 92]),
   midi.NoteOnEvent(tick=0, channel=5, data=[72, 92]),
   midi.NoteOnEvent(tick=210, channel=5, data=[72, 0]),
   midi.NoteOnEvent(tick=0, channel=5, data=[60, 0]),
   midi.NoteOnEvent(tick=30, channel=5, data=[55, 92]),
   midi.NoteOnEvent(tick=0, channel=5, data=[67, 92]),
   midi.NoteOnEvent(tick=100, channel=5, data=[67, 0]),
   midi.NoteOnEvent(tick=0, channel=5, data=[55, 0]),
   midi.NoteOnEvent(tick=20, channel=5, data=[60, 92]),
   midi.NoteOnEvent(tick=0, channel=5, data=[72, 92]),
   midi.NoteOnEvent(tick=100, channel=5, data=[72, 0]),
   midi.NoteOnEvent(tick=0, channel=5, data=[60, 0]),
   midi.NoteOnEvent(tick=20, channel=5, data=[55, 92]),
   midi.NoteOnEvent(tick=0, channel=5, data=[67, 92]),
   midi.NoteOnEvent(tick=100, channel=5, data=[67, 0]),
   midi.NoteOnEvent(tick=0, channel=5, data=[55, 0]),
   midi.NoteOnEvent(tick=20, channel=5, data=[60, 92]),
   midi.NoteOnEvent(tick=0, channel=5, data=[72, 92]),
   midi.NoteOnEvent(tick=100, channel=5, data=[72, 0]),
   midi.NoteOnEvent(tick=0, channel=5, data=[60, 0]),
   midi.NoteOnEvent(tick=20, channel=5, data=[64, 92]),
   midi.NoteOnEvent(tick=0, channel=5, data=[76, 92]),
   midi.NoteOnEvent(tick=100, channel=5, data=[76, 0]),
   midi.NoteOnEvent(tick=0, channel=5, data=[64, 0]),
   midi.NoteOnEvent(tick=20, channel=5, data=[64, 92]),
   midi.NoteOnEvent(tick=0, channel=5, data=[76, 92]),
   midi.NoteOnEvent(tick=100, channel=5, data=[76, 0]),
   midi.NoteOnEvent(tick=0, channel=5, data=[64, 0]),
   midi.NoteOnEvent(tick=20, channel=5, data=[64, 92]),
   midi.NoteOnEvent(tick=0, channel=5, data=[76, 92]),
   midi.NoteOnEvent(tick=210, channel=5, data=[76, 0]),
   midi.NoteOnEvent(tick=0, channel=5, data=[64, 0]),
   midi.NoteOnEvent(tick=30, channel=5, data=[64, 92]),
   midi.NoteOnEvent(tick=0, channel=5, data=[76, 92]),
   midi.NoteOnEvent(tick=100, channel=5, data=[76, 0]),
   midi.NoteOnEvent(tick=0, channel=5, data=[64, 0]),
   midi.NoteOnEvent(tick=20, channel=5, data=[64, 92]),
   midi.NoteOnEvent(tick=0, channel=5, data=[76, 92]),
   midi.NoteOnEvent(tick=100, channel=5, data=[76, 0]),
   midi.NoteOnEvent(tick=0, channel=5, data=[64, 0]),
   midi.NoteOnEvent(tick=20, channel=5, data=[64, 92]),
   midi.NoteOnEvent(tick=0, channel=5, data=[76, 92]),
   midi.NoteOnEvent(tick=100, channel=5, data=[76, 0]),
   midi.NoteOnEvent(tick=0, channel=5, data=[64, 0]),
   midi.NoteOnEvent(tick=20, channel=5, data=[64, 92]),
   midi.NoteOnEvent(tick=0, channel=5, data=[76, 92]),
   midi.NoteOnEvent(tick=100, channel=5, data=[76, 0]),
   midi.NoteOnEvent(tick=0, channel=5, data=[64, 0]),
   midi.NoteOnEvent(tick=20, channel=5, data=[60, 92]),
   midi.NoteOnEvent(tick=0, channel=5, data=[72, 92]),
   midi.NoteOnEvent(tick=100, channel=5, data=[72, 0]),
   midi.NoteOnEvent(tick=0, channel=5, data=[60, 0]),
   midi.NoteOnEvent(tick=20, channel=5, data=[60, 92]),
   midi.NoteOnEvent(tick=0, channel=5, data=[72, 92]),
   midi.NoteOnEvent(tick=100, channel=5, data=[72, 0]),
   midi.NoteOnEvent(tick=0, channel=5, data=[60, 0]),
   midi.NoteOnEvent(tick=20, channel=5, data=[60, 92]),
   midi.NoteOnEvent(tick=0, channel=5, data=[72, 92]),
   midi.NoteOnEvent(tick=210, channel=5, data=[72, 0]),
   midi.NoteOnEvent(tick=0, channel=5, data=[60, 0]),
   midi.NoteOnEvent(tick=30, channel=5, data=[60, 92]),
   midi.NoteOnEvent(tick=0, channel=5, data=[72, 92]),
   midi.NoteOnEvent(tick=100, channel=5, data=[72, 0]),
   midi.NoteOnEvent(tick=0, channel=5, data=[60, 0]),
   midi.NoteOnEvent(tick=20, channel=5, data=[60, 92]),
   midi.NoteOnEvent(tick=0, channel=5, data=[72, 92]),
   midi.NoteOnEvent(tick=100, channel=5, data=[72, 0]),
   midi.NoteOnEvent(tick=0, channel=5, data=[60, 0]),
   midi.NoteOnEvent(tick=1100, channel=5, data=[67, 92]),
   midi.NoteOnEvent(tick=0, channel=5, data=[74, 92]),
   midi.NoteOnEvent(tick=210, channel=5, data=[74, 0]),
   midi.NoteOnEvent(tick=0, channel=5, data=[67, 0]),
   midi.NoteOnEvent(tick=30, channel=5, data=[72, 92]),
   midi.NoteOnEvent(tick=0, channel=5, data=[76, 92]),
   midi.NoteOnEvent(tick=100, channel=5, data=[76, 0]),
   midi.NoteOnEvent(tick=0, channel=5, data=[72, 0]),
   midi.NoteOnEvent(tick=4220, channel=5, data=[60, 92]),
   midi.NoteOnEvent(tick=0, channel=5, data=[72, 92]),
   midi.NoteOnEvent(tick=100, channel=5, data=[72, 0]),
   midi.NoteOnEvent(tick=0, channel=5, data=[60, 0]),
   midi.NoteOnEvent(tick=380, channel=5, data=[60, 92]),
   midi.NoteOnEvent(tick=0, channel=5, data=[72, 92]),
   midi.NoteOnEvent(tick=100, channel=5, data=[72, 0]),
   midi.NoteOnEvent(tick=0, channel=5, data=[60, 0]),
   midi.NoteOnEvent(tick=380, channel=5, data=[60, 92]),
   midi.NoteOnEvent(tick=0, channel=5, data=[72, 92]),
   midi.NoteOnEvent(tick=100, channel=5, data=[72, 0]),
   midi.NoteOnEvent(tick=0, channel=5, data=[60, 0]),
   midi.NoteOnEvent(tick=380, channel=5, data=[55, 92]),
   midi.NoteOnEvent(tick=0, channel=5, data=[67, 92]),
   midi.NoteOnEvent(tick=100, channel=5, data=[67, 0]),
   midi.NoteOnEvent(tick=0, channel=5, data=[55, 0]),
   midi.NoteOnEvent(tick=380, channel=5, data=[55, 92]),
   midi.NoteOnEvent(tick=0, channel=5, data=[67, 92]),
   midi.NoteOnEvent(tick=100, channel=5, data=[67, 0]),
   midi.NoteOnEvent(tick=0, channel=5, data=[55, 0]),
   midi.NoteOnEvent(tick=380, channel=5, data=[60, 92]),
   midi.NoteOnEvent(tick=0, channel=5, data=[64, 92]),
   midi.NoteOnEvent(tick=100, channel=5, data=[64, 0]),
   midi.NoteOnEvent(tick=0, channel=5, data=[60, 0]),
   midi.ControlChangeEvent(tick=1820, channel=5, data=[7, 32]),
   midi.NoteOnEvent(tick=0, channel=5, data=[60, 60]),
   midi.NoteOnEvent(tick=0, channel=5, data=[64, 60]),
   midi.ControlChangeEvent(tick=1440, channel=5, data=[7, 48]),
   midi.ControlChangeEvent(tick=480, channel=5, data=[7, 64]),
   midi.ControlChangeEvent(tick=480, channel=5, data=[7, 80]),
   midi.ControlChangeEvent(tick=480, channel=5, data=[7, 96]),
   midi.NoteOnEvent(tick=930, channel=5, data=[64, 0]),
   midi.NoteOnEvent(tick=0, channel=5, data=[60, 0]),
   midi.NoteOnEvent(tick=30, channel=5, data=[60, 108]),
   midi.NoteOnEvent(tick=0, channel=5, data=[72, 108]),
   midi.NoteOnEvent(tick=100, channel=5, data=[72, 0]),
   midi.NoteOnEvent(tick=0, channel=5, data=[60, 0]),
   midi.NoteOnEvent(tick=20, channel=5, data=[60, 108]),
   midi.NoteOnEvent(tick=0, channel=5, data=[72, 108]),
   midi.NoteOnEvent(tick=210, channel=5, data=[72, 0]),
   midi.NoteOnEvent(tick=0, channel=5, data=[60, 0]),
   midi.NoteOnEvent(tick=30, channel=5, data=[60, 108]),
   midi.NoteOnEvent(tick=0, channel=5, data=[72, 108]),
   midi.NoteOnEvent(tick=100, channel=5, data=[72, 0]),
   midi.NoteOnEvent(tick=0, channel=5, data=[60, 0]),
   midi.NoteOnEvent(tick=20, channel=5, data=[60, 108]),
   midi.NoteOnEvent(tick=0, channel=5, data=[72, 108]),
   midi.NoteOnEvent(tick=100, channel=5, data=[72, 0]),
   midi.NoteOnEvent(tick=0, channel=5, data=[60, 0]),
   midi.NoteOnEvent(tick=20, channel=5, data=[60, 108]),
   midi.NoteOnEvent(tick=0, channel=5, data=[72, 108]),
   midi.NoteOnEvent(tick=100, channel=5, data=[72, 0]),
   midi.NoteOnEvent(tick=0, channel=5, data=[60, 0]),
   midi.NoteOnEvent(tick=20, channel=5, data=[60, 108]),
   midi.NoteOnEvent(tick=0, channel=5, data=[72, 108]),
   midi.NoteOnEvent(tick=100, channel=5, data=[72, 0]),
   midi.NoteOnEvent(tick=0, channel=5, data=[60, 0]),
   midi.NoteOnEvent(tick=20, channel=5, data=[67, 108]),
   midi.NoteOnEvent(tick=0, channel=5, data=[74, 108]),
   midi.NoteOnEvent(tick=100, channel=5, data=[74, 0]),
   midi.NoteOnEvent(tick=0, channel=5, data=[67, 0]),
   midi.NoteOnEvent(tick=20, channel=5, data=[60, 108]),
   midi.NoteOnEvent(tick=0, channel=5, data=[72, 108]),
   midi.NoteOnEvent(tick=100, channel=5, data=[72, 0]),
   midi.NoteOnEvent(tick=0, channel=5, data=[60, 0]),
   midi.NoteOnEvent(tick=20, channel=5, data=[60, 108]),
   midi.NoteOnEvent(tick=0, channel=5, data=[72, 108]),
   midi.NoteOnEvent(tick=210, channel=5, data=[72, 0]),
   midi.NoteOnEvent(tick=0, channel=5, data=[60, 0]),
   midi.NoteOnEvent(tick=30, channel=5, data=[60, 108]),
   midi.NoteOnEvent(tick=0, channel=5, data=[72, 108]),
   midi.NoteOnEvent(tick=100, channel=5, data=[72, 0]),
   midi.NoteOnEvent(tick=0, channel=5, data=[60, 0]),
   midi.NoteOnEvent(tick=20, channel=5, data=[60, 108]),
   midi.NoteOnEvent(tick=0, channel=5, data=[72, 108]),
   midi.NoteOnEvent(tick=100, channel=5, data=[72, 0]),
   midi.NoteOnEvent(tick=0, channel=5, data=[60, 0]),
   midi.NoteOnEvent(tick=20, channel=5, data=[60, 108]),
   midi.NoteOnEvent(tick=0, channel=5, data=[72, 108]),
   midi.NoteOnEvent(tick=100, channel=5, data=[72, 0]),
   midi.NoteOnEvent(tick=0, channel=5, data=[60, 0]),
   midi.NoteOnEvent(tick=20, channel=5, data=[60, 108]),
   midi.NoteOnEvent(tick=0, channel=5, data=[72, 108]),
   midi.NoteOnEvent(tick=100, channel=5, data=[72, 0]),
   midi.NoteOnEvent(tick=0, channel=5, data=[60, 0]),
   midi.NoteOnEvent(tick=20, channel=5, data=[67, 108]),
   midi.NoteOnEvent(tick=0, channel=5, data=[74, 108]),
   midi.NoteOnEvent(tick=100, channel=5, data=[74, 0]),
   midi.NoteOnEvent(tick=0, channel=5, data=[67, 0]),
   midi.NoteOnEvent(tick=20, channel=5, data=[60, 108]),
   midi.NoteOnEvent(tick=0, channel=5, data=[72, 108]),
   midi.NoteOnEvent(tick=100, channel=5, data=[72, 0]),
   midi.NoteOnEvent(tick=0, channel=5, data=[60, 0]),
   midi.NoteOnEvent(tick=20, channel=5, data=[55, 108]),
   midi.NoteOnEvent(tick=0, channel=5, data=[67, 108]),
   midi.NoteOnEvent(tick=100, channel=5, data=[67, 0]),
   midi.NoteOnEvent(tick=0, channel=5, data=[55, 0]),
   midi.NoteOnEvent(tick=20, channel=5, data=[60, 108]),
   midi.NoteOnEvent(tick=0, channel=5, data=[72, 108]),
   midi.NoteOnEvent(tick=100, channel=5, data=[72, 0]),
   midi.NoteOnEvent(tick=0, channel=5, data=[60, 0]),
   midi.NoteOnEvent(tick=20, channel=5, data=[55, 108]),
   midi.NoteOnEvent(tick=0, channel=5, data=[67, 108]),
   midi.NoteOnEvent(tick=100, channel=5, data=[67, 0]),
   midi.NoteOnEvent(tick=0, channel=5, data=[55, 0]),
   midi.NoteOnEvent(tick=20, channel=5, data=[60, 108]),
   midi.NoteOnEvent(tick=0, channel=5, data=[72, 108]),
   midi.NoteOnEvent(tick=100, channel=5, data=[72, 0]),
   midi.NoteOnEvent(tick=0, channel=5, data=[60, 0]),
   midi.NoteOnEvent(tick=20, channel=5, data=[55, 108]),
   midi.NoteOnEvent(tick=0, channel=5, data=[67, 108]),
   midi.NoteOnEvent(tick=100, channel=5, data=[67, 0]),
   midi.NoteOnEvent(tick=0, channel=5, data=[55, 0]),
   midi.NoteOnEvent(tick=20, channel=5, data=[60, 108]),
   midi.NoteOnEvent(tick=0, channel=5, data=[72, 108]),
   midi.NoteOnEvent(tick=100, channel=5, data=[72, 0]),
   midi.NoteOnEvent(tick=0, channel=5, data=[60, 0]),
   midi.NoteOnEvent(tick=20, channel=5, data=[55, 108]),
   midi.NoteOnEvent(tick=0, channel=5, data=[67, 108]),
   midi.NoteOnEvent(tick=100, channel=5, data=[67, 0]),
   midi.NoteOnEvent(tick=0, channel=5, data=[55, 0]),
   midi.NoteOnEvent(tick=20, channel=5, data=[60, 108]),
   midi.NoteOnEvent(tick=0, channel=5, data=[72, 108]),
   midi.NoteOnEvent(tick=100, channel=5, data=[72, 0]),
   midi.NoteOnEvent(tick=0, channel=5, data=[60, 0]),
   midi.NoteOnEvent(tick=380, channel=5, data=[60, 108]),
   midi.NoteOnEvent(tick=0, channel=5, data=[64, 108]),
   midi.NoteOnEvent(tick=100, channel=5, data=[64, 0]),
   midi.NoteOnEvent(tick=0, channel=5, data=[60, 0]),
   midi.NoteOnEvent(tick=140, channel=5, data=[60, 108]),
   midi.NoteOnEvent(tick=0, channel=5, data=[64, 108]),
   midi.NoteOnEvent(tick=100, channel=5, data=[64, 0]),
   midi.NoteOnEvent(tick=0, channel=5, data=[60, 0]),
   midi.NoteOnEvent(tick=140, channel=5, data=[60, 108]),
   midi.NoteOnEvent(tick=0, channel=5, data=[64, 108]),
   midi.NoteOnEvent(tick=210, channel=5, data=[64, 0]),
   midi.NoteOnEvent(tick=0, channel=5, data=[60, 0]),
   midi.EndOfTrackEvent(tick=0, data=[])]),
 midi.Track(\
  [midi.PortEvent(tick=0, data=[0]),
   midi.TrackNameEvent(tick=0, text='Timpani (C,G)', data=[84, 105, 109, 112, 97, 110, 105, 32, 40, 67, 44, 71, 41]),
   midi.ProgramChangeEvent(tick=0, channel=6, data=[47]),
   midi.ControlChangeEvent(tick=0, channel=6, data=[7, 127]),
   midi.ControlChangeEvent(tick=0, channel=6, data=[10, 64]),
   midi.NoteOnEvent(tick=0, channel=6, data=[48, 92]),
   midi.NoteOnEvent(tick=100, channel=6, data=[48, 0]),
   midi.NoteOnEvent(tick=110, channel=6, data=[48, 92]),
   midi.NoteOnEvent(tick=28, channel=6, data=[48, 0]),
   midi.NoteOnEvent(tick=2, channel=6, data=[48, 92]),
   midi.NoteOnEvent(tick=100, channel=6, data=[48, 0]),
   midi.NoteOnEvent(tick=1550, channel=6, data=[43, 92]),
   midi.NoteOnEvent(tick=28, channel=6, data=[43, 0]),
   midi.NoteOnEvent(tick=2, channel=6, data=[43, 92]),
   midi.NoteOnEvent(tick=100, channel=6, data=[43, 0]),
   midi.NoteOnEvent(tick=110, channel=6, data=[43, 92]),
   midi.NoteOnEvent(tick=28, channel=6, data=[43, 0]),
   midi.NoteOnEvent(tick=2, channel=6, data=[43, 92]),
   midi.NoteOnEvent(tick=100, channel=6, data=[43, 0]),
   midi.NoteOnEvent(tick=3260, channel=6, data=[48, 92]),
   midi.NoteOnEvent(tick=100, channel=6, data=[48, 0]),
   midi.NoteOnEvent(tick=140, channel=6, data=[48, 92]),
   midi.NoteOnEvent(tick=100, channel=6, data=[48, 0]),
   midi.NoteOnEvent(tick=140, channel=6, data=[48, 92]),
   midi.NoteOnEvent(tick=100, channel=6, data=[48, 0]),
   midi.NoteOnEvent(tick=140, channel=6, data=[43, 92]),
   midi.NoteOnEvent(tick=100, channel=6, data=[43, 0]),
   midi.NoteOnEvent(tick=140, channel=6, data=[43, 92]),
   midi.NoteOnEvent(tick=100, channel=6, data=[43, 0]),
   midi.NoteOnEvent(tick=140, channel=6, data=[48, 92]),
   midi.NoteOnEvent(tick=100, channel=6, data=[48, 0]),
   midi.NoteOnEvent(tick=4700, channel=6, data=[48, 92]),
   midi.NoteOnEvent(tick=210, channel=6, data=[48, 0]),
   midi.NoteOnEvent(tick=30, channel=6, data=[48, 92]),
   midi.NoteOnEvent(tick=160, channel=6, data=[48, 0]),
   midi.NoteOnEvent(tick=20, channel=6, data=[48, 92]),
   midi.NoteOnEvent(tick=58, channel=6, data=[48, 0]),
   midi.NoteOnEvent(tick=2, channel=6, data=[48, 92]),
   midi.NoteOnEvent(tick=210, channel=6, data=[48, 0]),
   midi.NoteOnEvent(tick=30, channel=6, data=[48, 92]),
   midi.NoteOnEvent(tick=210, channel=6, data=[48, 0]),
   midi.NoteOnEvent(tick=30, channel=6, data=[48, 92]),
   midi.NoteOnEvent(tick=210, channel=6, data=[48, 0]),
   midi.NoteOnEvent(tick=30, channel=6, data=[48, 92]),
   midi.NoteOnEvent(tick=160, channel=6, data=[48, 0]),
   midi.NoteOnEvent(tick=20, channel=6, data=[48, 92]),
   midi.NoteOnEvent(tick=58, channel=6, data=[48, 0]),
   midi.NoteOnEvent(tick=2, channel=6, data=[48, 92]),
   midi.NoteOnEvent(tick=210, channel=6, data=[48, 0]),
   midi.NoteOnEvent(tick=30, channel=6, data=[48, 92]),
   midi.NoteOnEvent(tick=210, channel=6, data=[48, 0]),
   midi.NoteOnEvent(tick=30, channel=6, data=[48, 92]),
   midi.NoteOnEvent(tick=100, channel=6, data=[48, 0]),
   midi.NoteOnEvent(tick=6620, channel=6, data=[43, 45]),
   midi.NoteOnEvent(tick=30, channel=6, data=[43, 0]),
   midi.NoteOnEvent(tick=0, channel=6, data=[43, 45]),
   midi.NoteOnEvent(tick=30, channel=6, data=[43, 0]),
   midi.NoteOnEvent(tick=0, channel=6, data=[43, 45]),
   midi.NoteOnEvent(tick=30, channel=6, data=[43, 0]),
   midi.NoteOnEvent(tick=0, channel=6, data=[43, 45]),
   midi.NoteOnEvent(tick=30, channel=6, data=[43, 0]),
   midi.NoteOnEvent(tick=0, channel=6, data=[43, 45]),
   midi.NoteOnEvent(tick=30, channel=6, data=[43, 0]),
   midi.NoteOnEvent(tick=0, channel=6, data=[43, 45]),
   midi.NoteOnEvent(tick=30, channel=6, data=[43, 0]),
   midi.NoteOnEvent(tick=0, channel=6, data=[43, 45]),
   midi.NoteOnEvent(tick=30, channel=6, data=[43, 0]),
   midi.NoteOnEvent(tick=0, channel=6, data=[43, 45]),
   midi.NoteOnEvent(tick=30, channel=6, data=[43, 0]),
   midi.NoteOnEvent(tick=0, channel=6, data=[43, 45]),
   midi.NoteOnEvent(tick=30, channel=6, data=[43, 0]),
   midi.NoteOnEvent(tick=0, channel=6, data=[43, 45]),
   midi.NoteOnEvent(tick=30, channel=6, data=[43, 0]),
   midi.NoteOnEvent(tick=0, channel=6, data=[43, 45]),
   midi.NoteOnEvent(tick=30, channel=6, data=[43, 0]),
   midi.NoteOnEvent(tick=0, channel=6, data=[43, 45]),
   midi.NoteOnEvent(tick=30, channel=6, data=[43, 0]),
   midi.NoteOnEvent(tick=0, channel=6, data=[43, 45]),
   midi.NoteOnEvent(tick=30, channel=6, data=[43, 0]),
   midi.NoteOnEvent(tick=0, channel=6, data=[43, 45]),
   midi.NoteOnEvent(tick=30, channel=6, data=[43, 0]),
   midi.NoteOnEvent(tick=0, channel=6, data=[43, 45]),
   midi.NoteOnEvent(tick=30, channel=6, data=[43, 0]),
   midi.NoteOnEvent(tick=0, channel=6, data=[43, 45]),
   midi.NoteOnEvent(tick=30, channel=6, data=[43, 0]),
   midi.NoteOnEvent(tick=0, channel=6, data=[43, 45]),
   midi.NoteOnEvent(tick=30, channel=6, data=[43, 0]),
   midi.NoteOnEvent(tick=0, channel=6, data=[43, 45]),
   midi.NoteOnEvent(tick=30, channel=6, data=[43, 0]),
   midi.NoteOnEvent(tick=0, channel=6, data=[43, 45]),
   midi.NoteOnEvent(tick=30, channel=6, data=[43, 0]),
   midi.NoteOnEvent(tick=0, channel=6, data=[43, 45]),
   midi.NoteOnEvent(tick=30, channel=6, data=[43, 0]),
   midi.NoteOnEvent(tick=0, channel=6, data=[43, 45]),
   midi.NoteOnEvent(tick=30, channel=6, data=[43, 0]),
   midi.NoteOnEvent(tick=0, channel=6, data=[43, 45]),
   midi.NoteOnEvent(tick=30, channel=6, data=[43, 0]),
   midi.NoteOnEvent(tick=0, channel=6, data=[43, 45]),
   midi.NoteOnEvent(tick=30, channel=6, data=[43, 0]),
   midi.NoteOnEvent(tick=0, channel=6, data=[43, 45]),
   midi.NoteOnEvent(tick=30, channel=6, data=[43, 0]),
   midi.NoteOnEvent(tick=0, channel=6, data=[43, 45]),
   midi.NoteOnEvent(tick=30, channel=6, data=[43, 0]),
   midi.NoteOnEvent(tick=0, channel=6, data=[43, 45]),
   midi.NoteOnEvent(tick=30, channel=6, data=[43, 0]),
   midi.NoteOnEvent(tick=0, channel=6, data=[43, 45]),
   midi.NoteOnEvent(tick=30, channel=6, data=[43, 0]),
   midi.NoteOnEvent(tick=0, channel=6, data=[43, 45]),
   midi.NoteOnEvent(tick=30, channel=6, data=[43, 0]),
   midi.NoteOnEvent(tick=0, channel=6, data=[43, 45]),
   midi.NoteOnEvent(tick=30, channel=6, data=[43, 0]),
   midi.NoteOnEvent(tick=0, channel=6, data=[43, 45]),
   midi.NoteOnEvent(tick=30, channel=6, data=[43, 0]),
   midi.NoteOnEvent(tick=0, channel=6, data=[43, 45]),
   midi.NoteOnEvent(tick=30, channel=6, data=[43, 0]),
   midi.NoteOnEvent(tick=0, channel=6, data=[43, 45]),
   midi.NoteOnEvent(tick=28, channel=6, data=[43, 0]),
   midi.NoteOnEvent(tick=2, channel=6, data=[48, 45]),
   midi.NoteOnEvent(tick=100, channel=6, data=[48, 0]),
   midi.NoteOnEvent(tick=13340, channel=6, data=[43, 92]),
   midi.NoteOnEvent(tick=210, channel=6, data=[43, 0]),
   midi.NoteOnEvent(tick=270, channel=6, data=[43, 92]),
   midi.NoteOnEvent(tick=210, channel=6, data=[43, 0]),
   midi.NoteOnEvent(tick=750, channel=6, data=[43, 92]),
   midi.NoteOnEvent(tick=210, channel=6, data=[43, 0]),
   midi.NoteOnEvent(tick=270, channel=6, data=[43, 92]),
   midi.NoteOnEvent(tick=210, channel=6, data=[43, 0]),
   midi.NoteOnEvent(tick=25710, channel=6, data=[43, 92]),
   midi.NoteOnEvent(tick=210, channel=6, data=[43, 0]),
   midi.NoteOnEvent(tick=30, channel=6, data=[43, 92]),
   midi.NoteOnEvent(tick=160, channel=6, data=[43, 0]),
   midi.NoteOnEvent(tick=20, channel=6, data=[43, 92]),
   midi.NoteOnEvent(tick=58, channel=6, data=[43, 0]),
   midi.NoteOnEvent(tick=2, channel=6, data=[43, 92]),
   midi.NoteOnEvent(tick=210, channel=6, data=[43, 0]),
   midi.NoteOnEvent(tick=30, channel=6, data=[43, 92]),
   midi.NoteOnEvent(tick=160, channel=6, data=[43, 0]),
   midi.NoteOnEvent(tick=20, channel=6, data=[43, 92]),
   midi.NoteOnEvent(tick=58, channel=6, data=[43, 0]),
   midi.NoteOnEvent(tick=2, channel=6, data=[43, 92]),
   midi.NoteOnEvent(tick=100, channel=6, data=[43, 0]),
   midi.NoteOnEvent(tick=2780, channel=6, data=[48, 92]),
   midi.NoteOnEvent(tick=210, channel=6, data=[48, 0]),
   midi.NoteOnEvent(tick=30, channel=6, data=[48, 92]),
   midi.NoteOnEvent(tick=160, channel=6, data=[48, 0]),
   midi.NoteOnEvent(tick=20, channel=6, data=[48, 92]),
   midi.NoteOnEvent(tick=58, channel=6, data=[48, 0]),
   midi.NoteOnEvent(tick=2, channel=6, data=[48, 92]),
   midi.NoteOnEvent(tick=210, channel=6, data=[48, 0]),
   midi.NoteOnEvent(tick=30, channel=6, data=[48, 92]),
   midi.NoteOnEvent(tick=160, channel=6, data=[48, 0]),
   midi.NoteOnEvent(tick=20, channel=6, data=[48, 92]),
   midi.NoteOnEvent(tick=58, channel=6, data=[48, 0]),
   midi.NoteOnEvent(tick=2, channel=6, data=[48, 92]),
   midi.NoteOnEvent(tick=100, channel=6, data=[48, 0]),
   midi.NoteOnEvent(tick=11420, channel=6, data=[48, 92]),
   midi.NoteOnEvent(tick=210, channel=6, data=[48, 0]),
   midi.NoteOnEvent(tick=30, channel=6, data=[48, 92]),
   midi.NoteOnEvent(tick=160, channel=6, data=[48, 0]),
   midi.NoteOnEvent(tick=20, channel=6, data=[48, 92]),
   midi.NoteOnEvent(tick=58, channel=6, data=[48, 0]),
   midi.NoteOnEvent(tick=2, channel=6, data=[48, 92]),
   midi.NoteOnEvent(tick=100, channel=6, data=[48, 0]),
   midi.NoteOnEvent(tick=1220, channel=6, data=[43, 92]),
   midi.NoteOnEvent(tick=100, channel=6, data=[43, 0]),
   midi.NoteOnEvent(tick=20, channel=6, data=[48, 92]),
   midi.NoteOnEvent(tick=210, channel=6, data=[48, 0]),
   midi.NoteOnEvent(tick=30, channel=6, data=[43, 92]),
   midi.NoteOnEvent(tick=210, channel=6, data=[43, 0]),
   midi.NoteOnEvent(tick=30, channel=6, data=[48, 92]),
   midi.NoteOnEvent(tick=100, channel=6, data=[48, 0]),
   midi.NoteOnEvent(tick=1340, channel=6, data=[48, 60]),
   midi.NoteOnEvent(tick=28, channel=6, data=[48, 0]),
   midi.NoteOnEvent(tick=2, channel=6, data=[48, 60]),
   midi.NoteOnEvent(tick=28, channel=6, data=[48, 0]),
   midi.NoteOnEvent(tick=2, channel=6, data=[48, 60]),
   midi.NoteOnEvent(tick=28, channel=6, data=[48, 0]),
   midi.NoteOnEvent(tick=2, channel=6, data=[48, 60]),
   midi.NoteOnEvent(tick=28, channel=6, data=[48, 0]),
   midi.NoteOnEvent(tick=2, channel=6, data=[48, 60]),
   midi.NoteOnEvent(tick=28, channel=6, data=[48, 0]),
   midi.NoteOnEvent(tick=2, channel=6, data=[48, 60]),
   midi.NoteOnEvent(tick=28, channel=6, data=[48, 0]),
   midi.NoteOnEvent(tick=2, channel=6, data=[48, 60]),
   midi.NoteOnEvent(tick=28, channel=6, data=[48, 0]),
   midi.NoteOnEvent(tick=2, channel=6, data=[48, 60]),
   midi.NoteOnEvent(tick=28, channel=6, data=[48, 0]),
   midi.NoteOnEvent(tick=2, channel=6, data=[48, 60]),
   midi.NoteOnEvent(tick=28, channel=6, data=[48, 0]),
   midi.NoteOnEvent(tick=2, channel=6, data=[48, 60]),
   midi.NoteOnEvent(tick=28, channel=6, data=[48, 0]),
   midi.NoteOnEvent(tick=2, channel=6, data=[48, 60]),
   midi.NoteOnEvent(tick=28, channel=6, data=[48, 0]),
   midi.NoteOnEvent(tick=2, channel=6, data=[48, 60]),
   midi.NoteOnEvent(tick=28, channel=6, data=[48, 0]),
   midi.NoteOnEvent(tick=2, channel=6, data=[48, 60]),
   midi.NoteOnEvent(tick=28, channel=6, data=[48, 0]),
   midi.NoteOnEvent(tick=2, channel=6, data=[48, 60]),
   midi.NoteOnEvent(tick=28, channel=6, data=[48, 0]),
   midi.NoteOnEvent(tick=2, channel=6, data=[48, 60]),
   midi.NoteOnEvent(tick=28, channel=6, data=[48, 0]),
   midi.NoteOnEvent(tick=2, channel=6, data=[48, 60]),
   midi.NoteOnEvent(tick=28, channel=6, data=[48, 0]),
   midi.NoteOnEvent(tick=2, channel=6, data=[48, 60]),
   midi.NoteOnEvent(tick=28, channel=6, data=[48, 0]),
   midi.NoteOnEvent(tick=2, channel=6, data=[48, 60]),
   midi.NoteOnEvent(tick=28, channel=6, data=[48, 0]),
   midi.NoteOnEvent(tick=2, channel=6, data=[48, 60]),
   midi.NoteOnEvent(tick=28, channel=6, data=[48, 0]),
   midi.NoteOnEvent(tick=2, channel=6, data=[48, 60]),
   midi.NoteOnEvent(tick=28, channel=6, data=[48, 0]),
   midi.NoteOnEvent(tick=2, channel=6, data=[48, 60]),
   midi.NoteOnEvent(tick=28, channel=6, data=[48, 0]),
   midi.NoteOnEvent(tick=2, channel=6, data=[48, 60]),
   midi.NoteOnEvent(tick=28, channel=6, data=[48, 0]),
   midi.NoteOnEvent(tick=2, channel=6, data=[48, 60]),
   midi.NoteOnEvent(tick=28, channel=6, data=[48, 0]),
   midi.NoteOnEvent(tick=2, channel=6, data=[48, 60]),
   midi.NoteOnEvent(tick=28, channel=6, data=[48, 0]),
   midi.NoteOnEvent(tick=2, channel=6, data=[48, 60]),
   midi.NoteOnEvent(tick=28, channel=6, data=[48, 0]),
   midi.NoteOnEvent(tick=2, channel=6, data=[48, 60]),
   midi.NoteOnEvent(tick=28, channel=6, data=[48, 0]),
   midi.NoteOnEvent(tick=2, channel=6, data=[48, 60]),
   midi.NoteOnEvent(tick=28, channel=6, data=[48, 0]),
   midi.NoteOnEvent(tick=2, channel=6, data=[48, 60]),
   midi.NoteOnEvent(tick=28, channel=6, data=[48, 0]),
   midi.NoteOnEvent(tick=2, channel=6, data=[48, 60]),
   midi.NoteOnEvent(tick=28, channel=6, data=[48, 0]),
   midi.NoteOnEvent(tick=2, channel=6, data=[48, 60]),
   midi.NoteOnEvent(tick=28, channel=6, data=[48, 0]),
   midi.NoteOnEvent(tick=2, channel=6, data=[48, 60]),
   midi.NoteOnEvent(tick=28, channel=6, data=[48, 0]),
   midi.NoteOnEvent(tick=2, channel=6, data=[48, 60]),
   midi.NoteOnEvent(tick=28, channel=6, data=[48, 0]),
   midi.NoteOnEvent(tick=2, channel=6, data=[43, 60]),
   midi.NoteOnEvent(tick=100, channel=6, data=[43, 0]),
   midi.NoteOnEvent(tick=6620, channel=6, data=[48, 92]),
   midi.NoteOnEvent(tick=210, channel=6, data=[48, 0]),
   midi.NoteOnEvent(tick=30, channel=6, data=[48, 92]),
   midi.NoteOnEvent(tick=160, channel=6, data=[48, 0]),
   midi.NoteOnEvent(tick=20, channel=6, data=[48, 92]),
   midi.NoteOnEvent(tick=58, channel=6, data=[48, 0]),
   midi.NoteOnEvent(tick=2, channel=6, data=[48, 92]),
   midi.NoteOnEvent(tick=210, channel=6, data=[48, 0]),
   midi.NoteOnEvent(tick=30, channel=6, data=[48, 92]),
   midi.NoteOnEvent(tick=210, channel=6, data=[48, 0]),
   midi.NoteOnEvent(tick=30, channel=6, data=[48, 92]),
   midi.NoteOnEvent(tick=210, channel=6, data=[48, 0]),
   midi.NoteOnEvent(tick=30, channel=6, data=[48, 92]),
   midi.NoteOnEvent(tick=160, channel=6, data=[48, 0]),
   midi.NoteOnEvent(tick=20, channel=6, data=[48, 92]),
   midi.NoteOnEvent(tick=58, channel=6, data=[48, 0]),
   midi.NoteOnEvent(tick=2, channel=6, data=[48, 92]),
   midi.NoteOnEvent(tick=210, channel=6, data=[48, 0]),
   midi.NoteOnEvent(tick=30, channel=6, data=[48, 92]),
   midi.NoteOnEvent(tick=210, channel=6, data=[48, 0]),
   midi.NoteOnEvent(tick=30, channel=6, data=[48, 92]),
   midi.NoteOnEvent(tick=100, channel=6, data=[48, 0]),
   midi.NoteOnEvent(tick=3740, channel=6, data=[48, 45]),
   midi.NoteOnEvent(tick=100, channel=6, data=[48, 0]),
   midi.NoteOnEvent(tick=380, channel=6, data=[48, 45]),
   midi.NoteOnEvent(tick=100, channel=6, data=[48, 0]),
   midi.NoteOnEvent(tick=380, channel=6, data=[48, 45]),
   midi.NoteOnEvent(tick=100, channel=6, data=[48, 0]),
   midi.NoteOnEvent(tick=380, channel=6, data=[48, 45]),
   midi.NoteOnEvent(tick=100, channel=6, data=[48, 0]),
   midi.NoteOnEvent(tick=380, channel=6, data=[48, 45]),
   midi.NoteOnEvent(tick=100, channel=6, data=[48, 0]),
   midi.NoteOnEvent(tick=380, channel=6, data=[48, 45]),
   midi.NoteOnEvent(tick=100, channel=6, data=[48, 0]),
   midi.NoteOnEvent(tick=380, channel=6, data=[43, 45]),
   midi.NoteOnEvent(tick=28, channel=6, data=[43, 0]),
   midi.NoteOnEvent(tick=2, channel=6, data=[43, 45]),
   midi.NoteOnEvent(tick=28, channel=6, data=[43, 0]),
   midi.NoteOnEvent(tick=2, channel=6, data=[43, 45]),
   midi.NoteOnEvent(tick=28, channel=6, data=[43, 0]),
   midi.NoteOnEvent(tick=2, channel=6, data=[43, 45]),
   midi.NoteOnEvent(tick=28, channel=6, data=[43, 0]),
   midi.NoteOnEvent(tick=2, channel=6, data=[43, 45]),
   midi.NoteOnEvent(tick=28, channel=6, data=[43, 0]),
   midi.NoteOnEvent(tick=2, channel=6, data=[43, 45]),
   midi.NoteOnEvent(tick=28, channel=6, data=[43, 0]),
   midi.NoteOnEvent(tick=2, channel=6, data=[43, 45]),
   midi.NoteOnEvent(tick=28, channel=6, data=[43, 0]),
   midi.NoteOnEvent(tick=2, channel=6, data=[43, 45]),
   midi.NoteOnEvent(tick=28, channel=6, data=[43, 0]),
   midi.NoteOnEvent(tick=2, channel=6, data=[43, 45]),
   midi.NoteOnEvent(tick=28, channel=6, data=[43, 0]),
   midi.NoteOnEvent(tick=2, channel=6, data=[43, 45]),
   midi.NoteOnEvent(tick=28, channel=6, data=[43, 0]),
   midi.NoteOnEvent(tick=2, channel=6, data=[43, 45]),
   midi.NoteOnEvent(tick=28, channel=6, data=[43, 0]),
   midi.NoteOnEvent(tick=2, channel=6, data=[43, 45]),
   midi.NoteOnEvent(tick=28, channel=6, data=[43, 0]),
   midi.NoteOnEvent(tick=2, channel=6, data=[43, 45]),
   midi.NoteOnEvent(tick=28, channel=6, data=[43, 0]),
   midi.NoteOnEvent(tick=2, channel=6, data=[43, 45]),
   midi.NoteOnEvent(tick=28, channel=6, data=[43, 0]),
   midi.NoteOnEvent(tick=2, channel=6, data=[43, 45]),
   midi.NoteOnEvent(tick=28, channel=6, data=[43, 0]),
   midi.NoteOnEvent(tick=2, channel=6, data=[43, 45]),
   midi.NoteOnEvent(tick=28, channel=6, data=[43, 0]),
   midi.NoteOnEvent(tick=2, channel=6, data=[43, 45]),
   midi.NoteOnEvent(tick=28, channel=6, data=[43, 0]),
   midi.NoteOnEvent(tick=2, channel=6, data=[43, 45]),
   midi.NoteOnEvent(tick=28, channel=6, data=[43, 0]),
   midi.NoteOnEvent(tick=2, channel=6, data=[43, 45]),
   midi.NoteOnEvent(tick=28, channel=6, data=[43, 0]),
   midi.NoteOnEvent(tick=2, channel=6, data=[43, 45]),
   midi.NoteOnEvent(tick=28, channel=6, data=[43, 0]),
   midi.NoteOnEvent(tick=2, channel=6, data=[43, 45]),
   midi.NoteOnEvent(tick=28, channel=6, data=[43, 0]),
   midi.NoteOnEvent(tick=2, channel=6, data=[43, 45]),
   midi.NoteOnEvent(tick=28, channel=6, data=[43, 0]),
   midi.NoteOnEvent(tick=2, channel=6, data=[43, 45]),
   midi.NoteOnEvent(tick=28, channel=6, data=[43, 0]),
   midi.NoteOnEvent(tick=2, channel=6, data=[43, 45]),
   midi.NoteOnEvent(tick=28, channel=6, data=[43, 0]),
   midi.NoteOnEvent(tick=2, channel=6, data=[43, 45]),
   midi.NoteOnEvent(tick=28, channel=6, data=[43, 0]),
   midi.NoteOnEvent(tick=2, channel=6, data=[43, 45]),
   midi.NoteOnEvent(tick=28, channel=6, data=[43, 0]),
   midi.NoteOnEvent(tick=2, channel=6, data=[43, 45]),
   midi.NoteOnEvent(tick=28, channel=6, data=[43, 0]),
   midi.NoteOnEvent(tick=2, channel=6, data=[43, 45]),
   midi.NoteOnEvent(tick=28, channel=6, data=[43, 0]),
   midi.NoteOnEvent(tick=2, channel=6, data=[43, 45]),
   midi.NoteOnEvent(tick=28, channel=6, data=[43, 0]),
   midi.NoteOnEvent(tick=2, channel=6, data=[43, 45]),
   midi.NoteOnEvent(tick=28, channel=6, data=[43, 0]),
   midi.NoteOnEvent(tick=2, channel=6, data=[43, 45]),
   midi.NoteOnEvent(tick=28, channel=6, data=[43, 0]),
   midi.NoteOnEvent(tick=2, channel=6, data=[43, 45]),
   midi.NoteOnEvent(tick=28, channel=6, data=[43, 0]),
   midi.NoteOnEvent(tick=2, channel=6, data=[48, 45]),
   midi.NoteOnEvent(tick=100, channel=6, data=[48, 0]),
   midi.NoteOnEvent(tick=140, channel=6, data=[43, 92]),
   midi.NoteOnEvent(tick=160, channel=6, data=[43, 0]),
   midi.NoteOnEvent(tick=20, channel=6, data=[43, 92]),
   midi.NoteOnEvent(tick=58, channel=6, data=[43, 0]),
   midi.NoteOnEvent(tick=2, channel=6, data=[48, 92]),
   midi.NoteOnEvent(tick=100, channel=6, data=[48, 0]),
   midi.NoteOnEvent(tick=20, channel=6, data=[43, 92]),
   midi.NoteOnEvent(tick=100, channel=6, data=[43, 0]),
   midi.NoteOnEvent(tick=20, channel=6, data=[48, 92]),
   midi.NoteOnEvent(tick=100, channel=6, data=[48, 0]),
   midi.NoteOnEvent(tick=980, channel=6, data=[48, 92]),
   midi.NoteOnEvent(tick=100, channel=6, data=[48, 0]),
   midi.NoteOnEvent(tick=20, channel=6, data=[48, 92]),
   midi.NoteOnEvent(tick=210, channel=6, data=[48, 0]),
   midi.NoteOnEvent(tick=30, channel=6, data=[48, 92]),
   midi.NoteOnEvent(tick=160, channel=6, data=[48, 0]),
   midi.NoteOnEvent(tick=20, channel=6, data=[48, 92]),
   midi.NoteOnEvent(tick=58, channel=6, data=[48, 0]),
   midi.NoteOnEvent(tick=2, channel=6, data=[48, 92]),
   midi.NoteOnEvent(tick=100, channel=6, data=[48, 0]),
   midi.NoteOnEvent(tick=1100, channel=6, data=[43, 92]),
   midi.NoteOnEvent(tick=100, channel=6, data=[43, 0]),
   midi.NoteOnEvent(tick=140, channel=6, data=[48, 92]),
   midi.NoteOnEvent(tick=100, channel=6, data=[48, 0]),
   midi.NoteOnEvent(tick=140, channel=6, data=[48, 92]),
   midi.NoteOnEvent(tick=160, channel=6, data=[48, 0]),
   midi.NoteOnEvent(tick=20, channel=6, data=[48, 92]),
   midi.NoteOnEvent(tick=58, channel=6, data=[48, 0]),
   midi.NoteOnEvent(tick=2, channel=6, data=[48, 92]),
   midi.NoteOnEvent(tick=100, channel=6, data=[48, 0]),
   midi.NoteOnEvent(tick=140, channel=6, data=[43, 92]),
   midi.NoteOnEvent(tick=100, channel=6, data=[43, 0]),
   midi.NoteOnEvent(tick=140, channel=6, data=[48, 92]),
   midi.NoteOnEvent(tick=100, channel=6, data=[48, 0]),
   midi.NoteOnEvent(tick=140, channel=6, data=[43, 92]),
   midi.NoteOnEvent(tick=160, channel=6, data=[43, 0]),
   midi.NoteOnEvent(tick=20, channel=6, data=[43, 92]),
   midi.NoteOnEvent(tick=58, channel=6, data=[43, 0]),
   midi.NoteOnEvent(tick=2, channel=6, data=[48, 92]),
   midi.NoteOnEvent(tick=100, channel=6, data=[48, 0]),
   midi.NoteOnEvent(tick=20, channel=6, data=[43, 92]),
   midi.NoteOnEvent(tick=100, channel=6, data=[43, 0]),
   midi.NoteOnEvent(tick=20, channel=6, data=[48, 92]),
   midi.NoteOnEvent(tick=100, channel=6, data=[48, 0]),
   midi.NoteOnEvent(tick=980, channel=6, data=[48, 92]),
   midi.NoteOnEvent(tick=100, channel=6, data=[48, 0]),
   midi.NoteOnEvent(tick=20, channel=6, data=[48, 92]),
   midi.NoteOnEvent(tick=210, channel=6, data=[48, 0]),
   midi.NoteOnEvent(tick=30, channel=6, data=[48, 92]),
   midi.NoteOnEvent(tick=160, channel=6, data=[48, 0]),
   midi.NoteOnEvent(tick=20, channel=6, data=[48, 92]),
   midi.NoteOnEvent(tick=58, channel=6, data=[48, 0]),
   midi.NoteOnEvent(tick=2, channel=6, data=[48, 92]),
   midi.NoteOnEvent(tick=100, channel=6, data=[48, 0]),
   midi.NoteOnEvent(tick=1100, channel=6, data=[43, 92]),
   midi.NoteOnEvent(tick=160, channel=6, data=[43, 0]),
   midi.NoteOnEvent(tick=20, channel=6, data=[43, 92]),
   midi.NoteOnEvent(tick=58, channel=6, data=[43, 0]),
   midi.NoteOnEvent(tick=2, channel=6, data=[48, 92]),
   midi.NoteOnEvent(tick=100, channel=6, data=[48, 0]),
   midi.NoteOnEvent(tick=4220, channel=6, data=[48, 92]),
   midi.NoteOnEvent(tick=100, channel=6, data=[48, 0]),
   midi.NoteOnEvent(tick=380, channel=6, data=[48, 92]),
   midi.NoteOnEvent(tick=100, channel=6, data=[48, 0]),
   midi.NoteOnEvent(tick=380, channel=6, data=[48, 92]),
   midi.NoteOnEvent(tick=100, channel=6, data=[48, 0]),
   midi.NoteOnEvent(tick=380, channel=6, data=[43, 92]),
   midi.NoteOnEvent(tick=100, channel=6, data=[43, 0]),
   midi.NoteOnEvent(tick=380, channel=6, data=[43, 92]),
   midi.NoteOnEvent(tick=100, channel=6, data=[43, 0]),
   midi.NoteOnEvent(tick=380, channel=6, data=[48, 92]),
   midi.NoteOnEvent(tick=100, channel=6, data=[48, 0]),
   midi.NoteOnEvent(tick=1820, channel=6, data=[48, 45]),
   midi.NoteOnEvent(tick=28, channel=6, data=[48, 0]),
   midi.NoteOnEvent(tick=2, channel=6, data=[48, 45]),
   midi.NoteOnEvent(tick=28, channel=6, data=[48, 0]),
   midi.NoteOnEvent(tick=2, channel=6, data=[48, 45]),
   midi.NoteOnEvent(tick=28, channel=6, data=[48, 0]),
   midi.NoteOnEvent(tick=2, channel=6, data=[48, 45]),
   midi.NoteOnEvent(tick=28, channel=6, data=[48, 0]),
   midi.NoteOnEvent(tick=2, channel=6, data=[48, 45]),
   midi.NoteOnEvent(tick=28, channel=6, data=[48, 0]),
   midi.NoteOnEvent(tick=2, channel=6, data=[48, 45]),
   midi.NoteOnEvent(tick=28, channel=6, data=[48, 0]),
   midi.NoteOnEvent(tick=2, channel=6, data=[48, 45]),
   midi.NoteOnEvent(tick=28, channel=6, data=[48, 0]),
   midi.NoteOnEvent(tick=2, channel=6, data=[48, 45]),
   midi.NoteOnEvent(tick=28, channel=6, data=[48, 0]),
   midi.NoteOnEvent(tick=2, channel=6, data=[48, 45]),
   midi.NoteOnEvent(tick=28, channel=6, data=[48, 0]),
   midi.NoteOnEvent(tick=2, channel=6, data=[48, 45]),
   midi.NoteOnEvent(tick=28, channel=6, data=[48, 0]),
   midi.NoteOnEvent(tick=2, channel=6, data=[48, 45]),
   midi.NoteOnEvent(tick=28, channel=6, data=[48, 0]),
   midi.NoteOnEvent(tick=2, channel=6, data=[48, 45]),
   midi.NoteOnEvent(tick=28, channel=6, data=[48, 0]),
   midi.NoteOnEvent(tick=2, channel=6, data=[48, 45]),
   midi.NoteOnEvent(tick=28, channel=6, data=[48, 0]),
   midi.NoteOnEvent(tick=2, channel=6, data=[48, 45]),
   midi.NoteOnEvent(tick=28, channel=6, data=[48, 0]),
   midi.NoteOnEvent(tick=2, channel=6, data=[48, 45]),
   midi.NoteOnEvent(tick=28, channel=6, data=[48, 0]),
   midi.NoteOnEvent(tick=2, channel=6, data=[48, 45]),
   midi.NoteOnEvent(tick=28, channel=6, data=[48, 0]),
   midi.NoteOnEvent(tick=2, channel=6, data=[48, 45]),
   midi.NoteOnEvent(tick=28, channel=6, data=[48, 0]),
   midi.NoteOnEvent(tick=2, channel=6, data=[48, 45]),
   midi.NoteOnEvent(tick=28, channel=6, data=[48, 0]),
   midi.NoteOnEvent(tick=2, channel=6, data=[48, 45]),
   midi.NoteOnEvent(tick=28, channel=6, data=[48, 0]),
   midi.NoteOnEvent(tick=2, channel=6, data=[48, 45]),
   midi.NoteOnEvent(tick=28, channel=6, data=[48, 0]),
   midi.NoteOnEvent(tick=2, channel=6, data=[48, 45]),
   midi.NoteOnEvent(tick=28, channel=6, data=[48, 0]),
   midi.NoteOnEvent(tick=2, channel=6, data=[48, 45]),
   midi.NoteOnEvent(tick=28, channel=6, data=[48, 0]),
   midi.NoteOnEvent(tick=2, channel=6, data=[48, 45]),
   midi.NoteOnEvent(tick=28, channel=6, data=[48, 0]),
   midi.NoteOnEvent(tick=2, channel=6, data=[48, 45]),
   midi.NoteOnEvent(tick=28, channel=6, data=[48, 0]),
   midi.NoteOnEvent(tick=2, channel=6, data=[48, 45]),
   midi.NoteOnEvent(tick=28, channel=6, data=[48, 0]),
   midi.NoteOnEvent(tick=2, channel=6, data=[48, 45]),
   midi.NoteOnEvent(tick=28, channel=6, data=[48, 0]),
   midi.NoteOnEvent(tick=2, channel=6, data=[48, 45]),
   midi.NoteOnEvent(tick=28, channel=6, data=[48, 0]),
   midi.NoteOnEvent(tick=2, channel=6, data=[48, 45]),
   midi.NoteOnEvent(tick=28, channel=6, data=[48, 0]),
   midi.NoteOnEvent(tick=2, channel=6, data=[48, 45]),
   midi.NoteOnEvent(tick=28, channel=6, data=[48, 0]),
   midi.NoteOnEvent(tick=2, channel=6, data=[48, 45]),
   midi.NoteOnEvent(tick=28, channel=6, data=[48, 0]),
   midi.NoteOnEvent(tick=2, channel=6, data=[48, 45]),
   midi.NoteOnEvent(tick=28, channel=6, data=[48, 0]),
   midi.NoteOnEvent(tick=2, channel=6, data=[48, 45]),
   midi.NoteOnEvent(tick=28, channel=6, data=[48, 0]),
   midi.NoteOnEvent(tick=2, channel=6, data=[48, 45]),
   midi.NoteOnEvent(tick=28, channel=6, data=[48, 0]),
   midi.NoteOnEvent(tick=2, channel=6, data=[48, 45]),
   midi.NoteOnEvent(tick=28, channel=6, data=[48, 0]),
   midi.NoteOnEvent(tick=2, channel=6, data=[48, 45]),
   midi.NoteOnEvent(tick=28, channel=6, data=[48, 0]),
   midi.NoteOnEvent(tick=2, channel=6, data=[48, 45]),
   midi.NoteOnEvent(tick=28, channel=6, data=[48, 0]),
   midi.NoteOnEvent(tick=2, channel=6, data=[48, 45]),
   midi.NoteOnEvent(tick=28, channel=6, data=[48, 0]),
   midi.NoteOnEvent(tick=2, channel=6, data=[48, 45]),
   midi.NoteOnEvent(tick=28, channel=6, data=[48, 0]),
   midi.NoteOnEvent(tick=2, channel=6, data=[48, 45]),
   midi.NoteOnEvent(tick=28, channel=6, data=[48, 0]),
   midi.NoteOnEvent(tick=2, channel=6, data=[48, 45]),
   midi.NoteOnEvent(tick=28, channel=6, data=[48, 0]),
   midi.NoteOnEvent(tick=2, channel=6, data=[48, 45]),
   midi.NoteOnEvent(tick=28, channel=6, data=[48, 0]),
   midi.NoteOnEvent(tick=2, channel=6, data=[48, 45]),
   midi.NoteOnEvent(tick=28, channel=6, data=[48, 0]),
   midi.NoteOnEvent(tick=2, channel=6, data=[48, 45]),
   midi.NoteOnEvent(tick=28, channel=6, data=[48, 0]),
   midi.NoteOnEvent(tick=2, channel=6, data=[48, 45]),
   midi.NoteOnEvent(tick=28, channel=6, data=[48, 0]),
   midi.NoteOnEvent(tick=2, channel=6, data=[48, 45]),
   midi.NoteOnEvent(tick=28, channel=6, data=[48, 0]),
   midi.NoteOnEvent(tick=2, channel=6, data=[48, 45]),
   midi.NoteOnEvent(tick=28, channel=6, data=[48, 0]),
   midi.NoteOnEvent(tick=2, channel=6, data=[48, 45]),
   midi.NoteOnEvent(tick=28, channel=6, data=[48, 0]),
   midi.NoteOnEvent(tick=2, channel=6, data=[48, 45]),
   midi.NoteOnEvent(tick=28, channel=6, data=[48, 0]),
   midi.NoteOnEvent(tick=2, channel=6, data=[48, 45]),
   midi.NoteOnEvent(tick=28, channel=6, data=[48, 0]),
   midi.NoteOnEvent(tick=2, channel=6, data=[48, 45]),
   midi.NoteOnEvent(tick=28, channel=6, data=[48, 0]),
   midi.NoteOnEvent(tick=2, channel=6, data=[48, 45]),
   midi.NoteOnEvent(tick=28, channel=6, data=[48, 0]),
   midi.NoteOnEvent(tick=2, channel=6, data=[48, 46]),
   midi.NoteOnEvent(tick=28, channel=6, data=[48, 0]),
   midi.NoteOnEvent(tick=2, channel=6, data=[48, 47]),
   midi.NoteOnEvent(tick=28, channel=6, data=[48, 0]),
   midi.NoteOnEvent(tick=2, channel=6, data=[48, 48]),
   midi.NoteOnEvent(tick=28, channel=6, data=[48, 0]),
   midi.NoteOnEvent(tick=2, channel=6, data=[48, 49]),
   midi.NoteOnEvent(tick=28, channel=6, data=[48, 0]),
   midi.NoteOnEvent(tick=2, channel=6, data=[48, 50]),
   midi.NoteOnEvent(tick=28, channel=6, data=[48, 0]),
   midi.NoteOnEvent(tick=2, channel=6, data=[48, 51]),
   midi.NoteOnEvent(tick=28, channel=6, data=[48, 0]),
   midi.NoteOnEvent(tick=2, channel=6, data=[48, 52]),
   midi.NoteOnEvent(tick=28, channel=6, data=[48, 0]),
   midi.NoteOnEvent(tick=2, channel=6, data=[48, 53]),
   midi.NoteOnEvent(tick=28, channel=6, data=[48, 0]),
   midi.NoteOnEvent(tick=2, channel=6, data=[48, 54]),
   midi.NoteOnEvent(tick=28, channel=6, data=[48, 0]),
   midi.NoteOnEvent(tick=2, channel=6, data=[48, 55]),
   midi.NoteOnEvent(tick=28, channel=6, data=[48, 0]),
   midi.NoteOnEvent(tick=2, channel=6, data=[48, 56]),
   midi.NoteOnEvent(tick=28, channel=6, data=[48, 0]),
   midi.NoteOnEvent(tick=2, channel=6, data=[48, 57]),
   midi.NoteOnEvent(tick=28, channel=6, data=[48, 0]),
   midi.NoteOnEvent(tick=2, channel=6, data=[48, 58]),
   midi.NoteOnEvent(tick=28, channel=6, data=[48, 0]),
   midi.NoteOnEvent(tick=2, channel=6, data=[48, 59]),
   midi.NoteOnEvent(tick=28, channel=6, data=[48, 0]),
   midi.NoteOnEvent(tick=2, channel=6, data=[48, 60]),
   midi.NoteOnEvent(tick=28, channel=6, data=[48, 0]),
   midi.NoteOnEvent(tick=2, channel=6, data=[48, 61]),
   midi.NoteOnEvent(tick=28, channel=6, data=[48, 0]),
   midi.NoteOnEvent(tick=2, channel=6, data=[48, 62]),
   midi.NoteOnEvent(tick=28, channel=6, data=[48, 0]),
   midi.NoteOnEvent(tick=2, channel=6, data=[48, 63]),
   midi.NoteOnEvent(tick=28, channel=6, data=[48, 0]),
   midi.NoteOnEvent(tick=2, channel=6, data=[48, 64]),
   midi.NoteOnEvent(tick=28, channel=6, data=[48, 0]),
   midi.NoteOnEvent(tick=2, channel=6, data=[48, 65]),
   midi.NoteOnEvent(tick=28, channel=6, data=[48, 0]),
   midi.NoteOnEvent(tick=2, channel=6, data=[48, 66]),
   midi.NoteOnEvent(tick=28, channel=6, data=[48, 0]),
   midi.NoteOnEvent(tick=2, channel=6, data=[48, 67]),
   midi.NoteOnEvent(tick=28, channel=6, data=[48, 0]),
   midi.NoteOnEvent(tick=2, channel=6, data=[48, 68]),
   midi.NoteOnEvent(tick=28, channel=6, data=[48, 0]),
   midi.NoteOnEvent(tick=2, channel=6, data=[48, 69]),
   midi.NoteOnEvent(tick=28, channel=6, data=[48, 0]),
   midi.NoteOnEvent(tick=2, channel=6, data=[48, 70]),
   midi.NoteOnEvent(tick=28, channel=6, data=[48, 0]),
   midi.NoteOnEvent(tick=2, channel=6, data=[48, 71]),
   midi.NoteOnEvent(tick=28, channel=6, data=[48, 0]),
   midi.NoteOnEvent(tick=2, channel=6, data=[48, 72]),
   midi.NoteOnEvent(tick=28, channel=6, data=[48, 0]),
   midi.NoteOnEvent(tick=2, channel=6, data=[48, 73]),
   midi.NoteOnEvent(tick=28, channel=6, data=[48, 0]),
   midi.NoteOnEvent(tick=2, channel=6, data=[48, 74]),
   midi.NoteOnEvent(tick=28, channel=6, data=[48, 0]),
   midi.NoteOnEvent(tick=2, channel=6, data=[48, 75]),
   midi.NoteOnEvent(tick=28, channel=6, data=[48, 0]),
   midi.NoteOnEvent(tick=2, channel=6, data=[48, 76]),
   midi.NoteOnEvent(tick=28, channel=6, data=[48, 0]),
   midi.NoteOnEvent(tick=2, channel=6, data=[48, 77]),
   midi.NoteOnEvent(tick=28, channel=6, data=[48, 0]),
   midi.NoteOnEvent(tick=2, channel=6, data=[48, 78]),
   midi.NoteOnEvent(tick=28, channel=6, data=[48, 0]),
   midi.NoteOnEvent(tick=2, channel=6, data=[48, 79]),
   midi.NoteOnEvent(tick=28, channel=6, data=[48, 0]),
   midi.NoteOnEvent(tick=2, channel=6, data=[48, 80]),
   midi.NoteOnEvent(tick=28, channel=6, data=[48, 0]),
   midi.NoteOnEvent(tick=2, channel=6, data=[48, 81]),
   midi.NoteOnEvent(tick=28, channel=6, data=[48, 0]),
   midi.NoteOnEvent(tick=2, channel=6, data=[48, 82]),
   midi.NoteOnEvent(tick=28, channel=6, data=[48, 0]),
   midi.NoteOnEvent(tick=2, channel=6, data=[48, 83]),
   midi.NoteOnEvent(tick=28, channel=6, data=[48, 0]),
   midi.NoteOnEvent(tick=2, channel=6, data=[48, 84]),
   midi.NoteOnEvent(tick=28, channel=6, data=[48, 0]),
   midi.NoteOnEvent(tick=2, channel=6, data=[48, 85]),
   midi.NoteOnEvent(tick=28, channel=6, data=[48, 0]),
   midi.NoteOnEvent(tick=2, channel=6, data=[48, 86]),
   midi.NoteOnEvent(tick=28, channel=6, data=[48, 0]),
   midi.NoteOnEvent(tick=2, channel=6, data=[48, 87]),
   midi.NoteOnEvent(tick=28, channel=6, data=[48, 0]),
   midi.NoteOnEvent(tick=2, channel=6, data=[48, 88]),
   midi.NoteOnEvent(tick=28, channel=6, data=[48, 0]),
   midi.NoteOnEvent(tick=2, channel=6, data=[48, 89]),
   midi.NoteOnEvent(tick=28, channel=6, data=[48, 0]),
   midi.NoteOnEvent(tick=2, channel=6, data=[48, 90]),
   midi.NoteOnEvent(tick=28, channel=6, data=[48, 0]),
   midi.NoteOnEvent(tick=2, channel=6, data=[48, 92]),
   midi.NoteOnEvent(tick=28, channel=6, data=[48, 0]),
   midi.NoteOnEvent(tick=2, channel=6, data=[48, 92]),
   midi.NoteOnEvent(tick=28, channel=6, data=[48, 0]),
   midi.NoteOnEvent(tick=2, channel=6, data=[48, 92]),
   midi.NoteOnEvent(tick=28, channel=6, data=[48, 0]),
   midi.NoteOnEvent(tick=2, channel=6, data=[48, 92]),
   midi.NoteOnEvent(tick=28, channel=6, data=[48, 0]),
   midi.NoteOnEvent(tick=2, channel=6, data=[48, 92]),
   midi.NoteOnEvent(tick=28, channel=6, data=[48, 0]),
   midi.NoteOnEvent(tick=2, channel=6, data=[48, 92]),
   midi.NoteOnEvent(tick=28, channel=6, data=[48, 0]),
   midi.NoteOnEvent(tick=2, channel=6, data=[48, 92]),
   midi.NoteOnEvent(tick=28, channel=6, data=[48, 0]),
   midi.NoteOnEvent(tick=2, channel=6, data=[48, 92]),
   midi.NoteOnEvent(tick=28, channel=6, data=[48, 0]),
   midi.NoteOnEvent(tick=2, channel=6, data=[48, 92]),
   midi.NoteOnEvent(tick=28, channel=6, data=[48, 0]),
   midi.NoteOnEvent(tick=2, channel=6, data=[48, 92]),
   midi.NoteOnEvent(tick=28, channel=6, data=[48, 0]),
   midi.NoteOnEvent(tick=2, channel=6, data=[48, 92]),
   midi.NoteOnEvent(tick=28, channel=6, data=[48, 0]),
   midi.NoteOnEvent(tick=2, channel=6, data=[48, 92]),
   midi.NoteOnEvent(tick=28, channel=6, data=[48, 0]),
   midi.NoteOnEvent(tick=2, channel=6, data=[48, 92]),
   midi.NoteOnEvent(tick=28, channel=6, data=[48, 0]),
   midi.NoteOnEvent(tick=2, channel=6, data=[48, 92]),
   midi.NoteOnEvent(tick=28, channel=6, data=[48, 0]),
   midi.NoteOnEvent(tick=2, channel=6, data=[48, 92]),
   midi.NoteOnEvent(tick=28, channel=6, data=[48, 0]),
   midi.NoteOnEvent(tick=2, channel=6, data=[48, 92]),
   midi.NoteOnEvent(tick=28, channel=6, data=[48, 0]),
   midi.NoteOnEvent(tick=2, channel=6, data=[48, 92]),
   midi.NoteOnEvent(tick=28, channel=6, data=[48, 0]),
   midi.NoteOnEvent(tick=2, channel=6, data=[48, 92]),
   midi.NoteOnEvent(tick=28, channel=6, data=[48, 0]),
   midi.NoteOnEvent(tick=2, channel=6, data=[48, 92]),
   midi.NoteOnEvent(tick=28, channel=6, data=[48, 0]),
   midi.NoteOnEvent(tick=2, channel=6, data=[48, 92]),
   midi.NoteOnEvent(tick=28, channel=6, data=[48, 0]),
   midi.NoteOnEvent(tick=2, channel=6, data=[48, 92]),
   midi.NoteOnEvent(tick=28, channel=6, data=[48, 0]),
   midi.NoteOnEvent(tick=2, channel=6, data=[48, 92]),
   midi.NoteOnEvent(tick=28, channel=6, data=[48, 0]),
   midi.NoteOnEvent(tick=2, channel=6, data=[48, 92]),
   midi.NoteOnEvent(tick=28, channel=6, data=[48, 0]),
   midi.NoteOnEvent(tick=2, channel=6, data=[48, 92]),
   midi.NoteOnEvent(tick=28, channel=6, data=[48, 0]),
   midi.NoteOnEvent(tick=2, channel=6, data=[48, 92]),
   midi.NoteOnEvent(tick=28, channel=6, data=[48, 0]),
   midi.NoteOnEvent(tick=2, channel=6, data=[48, 92]),
   midi.NoteOnEvent(tick=28, channel=6, data=[48, 0]),
   midi.NoteOnEvent(tick=2, channel=6, data=[48, 92]),
   midi.NoteOnEvent(tick=28, channel=6, data=[48, 0]),
   midi.NoteOnEvent(tick=2, channel=6, data=[48, 92]),
   midi.NoteOnEvent(tick=28, channel=6, data=[48, 0]),
   midi.NoteOnEvent(tick=2, channel=6, data=[48, 92]),
   midi.NoteOnEvent(tick=28, channel=6, data=[48, 0]),
   midi.NoteOnEvent(tick=2, channel=6, data=[48, 92]),
   midi.NoteOnEvent(tick=28, channel=6, data=[48, 0]),
   midi.NoteOnEvent(tick=2, channel=6, data=[48, 92]),
   midi.NoteOnEvent(tick=28, channel=6, data=[48, 0]),
   midi.NoteOnEvent(tick=2, channel=6, data=[48, 92]),
   midi.NoteOnEvent(tick=28, channel=6, data=[48, 0]),
   midi.NoteOnEvent(tick=2, channel=6, data=[48, 108]),
   midi.NoteOnEvent(tick=28, channel=6, data=[48, 0]),
   midi.NoteOnEvent(tick=2, channel=6, data=[48, 108]),
   midi.NoteOnEvent(tick=28, channel=6, data=[48, 0]),
   midi.NoteOnEvent(tick=2, channel=6, data=[48, 108]),
   midi.NoteOnEvent(tick=28, channel=6, data=[48, 0]),
   midi.NoteOnEvent(tick=2, channel=6, data=[48, 108]),
   midi.NoteOnEvent(tick=28, channel=6, data=[48, 0]),
   midi.NoteOnEvent(tick=2, channel=6, data=[48, 108]),
   midi.NoteOnEvent(tick=28, channel=6, data=[48, 0]),
   midi.NoteOnEvent(tick=2, channel=6, data=[48, 108]),
   midi.NoteOnEvent(tick=28, channel=6, data=[48, 0]),
   midi.NoteOnEvent(tick=2, channel=6, data=[48, 108]),
   midi.NoteOnEvent(tick=28, channel=6, data=[48, 0]),
   midi.NoteOnEvent(tick=2, channel=6, data=[48, 108]),
   midi.NoteOnEvent(tick=28, channel=6, data=[48, 0]),
   midi.NoteOnEvent(tick=2, channel=6, data=[48, 108]),
   midi.NoteOnEvent(tick=160, channel=6, data=[48, 0]),
   midi.NoteOnEvent(tick=20, channel=6, data=[48, 108]),
   midi.NoteOnEvent(tick=58, channel=6, data=[48, 0]),
   midi.NoteOnEvent(tick=2, channel=6, data=[48, 108]),
   midi.NoteOnEvent(tick=100, channel=6, data=[48, 0]),
   midi.NoteOnEvent(tick=20, channel=6, data=[48, 108]),
   midi.NoteOnEvent(tick=100, channel=6, data=[48, 0]),
   midi.NoteOnEvent(tick=20, channel=6, data=[48, 108]),
   midi.NoteOnEvent(tick=100, channel=6, data=[48, 0]),
   midi.NoteOnEvent(tick=20, channel=6, data=[43, 108]),
   midi.NoteOnEvent(tick=100, channel=6, data=[43, 0]),
   midi.NoteOnEvent(tick=20, channel=6, data=[48, 108]),
   midi.NoteOnEvent(tick=210, channel=6, data=[48, 0]),
   midi.NoteOnEvent(tick=30, channel=6, data=[48, 108]),
   midi.NoteOnEvent(tick=160, channel=6, data=[48, 0]),
   midi.NoteOnEvent(tick=20, channel=6, data=[48, 108]),
   midi.NoteOnEvent(tick=58, channel=6, data=[48, 0]),
   midi.NoteOnEvent(tick=2, channel=6, data=[48, 108]),
   midi.NoteOnEvent(tick=100, channel=6, data=[48, 0]),
   midi.NoteOnEvent(tick=20, channel=6, data=[48, 108]),
   midi.NoteOnEvent(tick=100, channel=6, data=[48, 0]),
   midi.NoteOnEvent(tick=20, channel=6, data=[48, 108]),
   midi.NoteOnEvent(tick=100, channel=6, data=[48, 0]),
   midi.NoteOnEvent(tick=20, channel=6, data=[43, 108]),
   midi.NoteOnEvent(tick=100, channel=6, data=[43, 0]),
   midi.NoteOnEvent(tick=20, channel=6, data=[48, 108]),
   midi.NoteOnEvent(tick=100, channel=6, data=[48, 0]),
   midi.NoteOnEvent(tick=20, channel=6, data=[43, 108]),
   midi.NoteOnEvent(tick=100, channel=6, data=[43, 0]),
   midi.NoteOnEvent(tick=20, channel=6, data=[48, 108]),
   midi.NoteOnEvent(tick=100, channel=6, data=[48, 0]),
   midi.NoteOnEvent(tick=20, channel=6, data=[43, 108]),
   midi.NoteOnEvent(tick=100, channel=6, data=[43, 0]),
   midi.NoteOnEvent(tick=20, channel=6, data=[48, 108]),
   midi.NoteOnEvent(tick=100, channel=6, data=[48, 0]),
   midi.NoteOnEvent(tick=20, channel=6, data=[43, 108]),
   midi.NoteOnEvent(tick=100, channel=6, data=[43, 0]),
   midi.NoteOnEvent(tick=20, channel=6, data=[48, 108]),
   midi.NoteOnEvent(tick=100, channel=6, data=[48, 0]),
   midi.NoteOnEvent(tick=20, channel=6, data=[43, 108]),
   midi.NoteOnEvent(tick=100, channel=6, data=[43, 0]),
   midi.NoteOnEvent(tick=20, channel=6, data=[48, 92]),
   midi.NoteOnEvent(tick=28, channel=6, data=[48, 0]),
   midi.NoteOnEvent(tick=2, channel=6, data=[48, 92]),
   midi.NoteOnEvent(tick=28, channel=6, data=[48, 0]),
   midi.NoteOnEvent(tick=2, channel=6, data=[48, 92]),
   midi.NoteOnEvent(tick=28, channel=6, data=[48, 0]),
   midi.NoteOnEvent(tick=2, channel=6, data=[48, 92]),
   midi.NoteOnEvent(tick=28, channel=6, data=[48, 0]),
   midi.NoteOnEvent(tick=2, channel=6, data=[48, 92]),
   midi.NoteOnEvent(tick=28, channel=6, data=[48, 0]),
   midi.NoteOnEvent(tick=2, channel=6, data=[48, 92]),
   midi.NoteOnEvent(tick=28, channel=6, data=[48, 0]),
   midi.NoteOnEvent(tick=2, channel=6, data=[48, 92]),
   midi.NoteOnEvent(tick=28, channel=6, data=[48, 0]),
   midi.NoteOnEvent(tick=2, channel=6, data=[48, 92]),
   midi.NoteOnEvent(tick=28, channel=6, data=[48, 0]),
   midi.NoteOnEvent(tick=2, channel=6, data=[48, 92]),
   midi.NoteOnEvent(tick=28, channel=6, data=[48, 0]),
   midi.NoteOnEvent(tick=2, channel=6, data=[48, 92]),
   midi.NoteOnEvent(tick=28, channel=6, data=[48, 0]),
   midi.NoteOnEvent(tick=2, channel=6, data=[48, 92]),
   midi.NoteOnEvent(tick=28, channel=6, data=[48, 0]),
   midi.NoteOnEvent(tick=2, channel=6, data=[48, 92]),
   midi.NoteOnEvent(tick=28, channel=6, data=[48, 0]),
   midi.NoteOnEvent(tick=2, channel=6, data=[48, 92]),
   midi.NoteOnEvent(tick=28, channel=6, data=[48, 0]),
   midi.NoteOnEvent(tick=2, channel=6, data=[48, 92]),
   midi.NoteOnEvent(tick=28, channel=6, data=[48, 0]),
   midi.NoteOnEvent(tick=2, channel=6, data=[48, 92]),
   midi.NoteOnEvent(tick=28, channel=6, data=[48, 0]),
   midi.NoteOnEvent(tick=2, channel=6, data=[48, 92]),
   midi.NoteOnEvent(tick=28, channel=6, data=[48, 0]),
   midi.NoteOnEvent(tick=2, channel=6, data=[48, 92]),
   midi.NoteOnEvent(tick=28, channel=6, data=[48, 0]),
   midi.NoteOnEvent(tick=2, channel=6, data=[48, 92]),
   midi.NoteOnEvent(tick=28, channel=6, data=[48, 0]),
   midi.NoteOnEvent(tick=2, channel=6, data=[48, 92]),
   midi.NoteOnEvent(tick=28, channel=6, data=[48, 0]),
   midi.NoteOnEvent(tick=2, channel=6, data=[48, 92]),
   midi.NoteOnEvent(tick=28, channel=6, data=[48, 0]),
   midi.NoteOnEvent(tick=2, channel=6, data=[48, 92]),
   midi.NoteOnEvent(tick=28, channel=6, data=[48, 0]),
   midi.NoteOnEvent(tick=2, channel=6, data=[48, 92]),
   midi.NoteOnEvent(tick=28, channel=6, data=[48, 0]),
   midi.NoteOnEvent(tick=2, channel=6, data=[48, 92]),
   midi.NoteOnEvent(tick=28, channel=6, data=[48, 0]),
   midi.NoteOnEvent(tick=2, channel=6, data=[48, 92]),
   midi.NoteOnEvent(tick=28, channel=6, data=[48, 0]),
   midi.NoteOnEvent(tick=2, channel=6, data=[48, 92]),
   midi.NoteOnEvent(tick=28, channel=6, data=[48, 0]),
   midi.NoteOnEvent(tick=2, channel=6, data=[48, 92]),
   midi.NoteOnEvent(tick=28, channel=6, data=[48, 0]),
   midi.NoteOnEvent(tick=2, channel=6, data=[48, 92]),
   midi.NoteOnEvent(tick=28, channel=6, data=[48, 0]),
   midi.NoteOnEvent(tick=2, channel=6, data=[48, 92]),
   midi.NoteOnEvent(tick=28, channel=6, data=[48, 0]),
   midi.NoteOnEvent(tick=2, channel=6, data=[48, 92]),
   midi.NoteOnEvent(tick=28, channel=6, data=[48, 0]),
   midi.NoteOnEvent(tick=2, channel=6, data=[48, 92]),
   midi.NoteOnEvent(tick=28, channel=6, data=[48, 0]),
   midi.NoteOnEvent(tick=2, channel=6, data=[48, 92]),
   midi.NoteOnEvent(tick=28, channel=6, data=[48, 0]),
   midi.NoteOnEvent(tick=2, channel=6, data=[48, 92]),
   midi.NoteOnEvent(tick=28, channel=6, data=[48, 0]),
   midi.NoteOnEvent(tick=2, channel=6, data=[48, 92]),
   midi.NoteOnEvent(tick=100, channel=6, data=[48, 0]),
   midi.EndOfTrackEvent(tick=0, data=[])]),
 midi.Track(\
  [midi.PortEvent(tick=0, data=[0]),
   midi.TrackNameEvent(tick=0, text='Violins I', data=[86, 105, 111, 108, 105, 110, 115, 32, 73]),
   midi.ProgramChangeEvent(tick=0, channel=7, data=[48]),
   midi.ControlChangeEvent(tick=0, channel=7, data=[7, 127]),
   midi.ControlChangeEvent(tick=0, channel=7, data=[10, 10]),
   midi.NoteOnEvent(tick=0, channel=7, data=[76, 92]),
   midi.NoteOnEvent(tick=0, channel=7, data=[84, 92]),
   midi.NoteOnEvent(tick=100, channel=7, data=[84, 0]),
   midi.NoteOnEvent(tick=0, channel=7, data=[76, 0]),
   midi.NoteOnEvent(tick=110, channel=7, data=[60, 92]),
   midi.NoteOnEvent(tick=28, channel=7, data=[60, 0]),
   midi.NoteOnEvent(tick=2, channel=7, data=[60, 92]),
   midi.NoteOnEvent(tick=100, channel=7, data=[60, 0]),
   midi.NoteOnEvent(tick=1550, channel=7, data=[86, 92]),
   midi.NoteOnEvent(tick=28, channel=7, data=[86, 0]),
   midi.NoteOnEvent(tick=2, channel=7, data=[86, 92]),
   midi.NoteOnEvent(tick=100, channel=7, data=[86, 0]),
   midi.NoteOnEvent(tick=110, channel=7, data=[55, 92]),
   midi.NoteOnEvent(tick=0, channel=7, data=[67, 92]),
   midi.NoteOnEvent(tick=28, channel=7, data=[67, 0]),
   midi.NoteOnEvent(tick=0, channel=7, data=[55, 0]),
   midi.NoteOnEvent(tick=2, channel=7, data=[55, 92]),
   midi.NoteOnEvent(tick=0, channel=7, data=[67, 92]),
   midi.NoteOnEvent(tick=100, channel=7, data=[67, 0]),
   midi.NoteOnEvent(tick=0, channel=7, data=[55, 0]),
   midi.NoteOnEvent(tick=2060, channel=7, data=[62, 45]),
   midi.NoteOnEvent(tick=360, channel=7, data=[62, 0]),
   midi.NoteOnEvent(tick=0, channel=7, data=[64, 45]),
   midi.NoteOnEvent(tick=90, channel=7, data=[64, 0]),
   midi.NoteOnEvent(tick=0, channel=7, data=[65, 45]),
   midi.NoteOnEvent(tick=28, channel=7, data=[65, 0]),
   midi.NoteOnEvent(tick=2, channel=7, data=[65, 45]),
   midi.NoteOnEvent(tick=240, channel=7, data=[65, 0]),
   midi.NoteOnEvent(tick=0, channel=7, data=[64, 45]),
   midi.NoteOnEvent(tick=100, channel=7, data=[64, 0]),
   midi.NoteOnEvent(tick=380, channel=7, data=[67, 92]),
   midi.NoteOnEvent(tick=0, channel=7, data=[72, 92]),
   midi.NoteOnEvent(tick=0, channel=7, data=[76, 92]),
   midi.NoteOnEvent(tick=100, channel=7, data=[76, 0]),
   midi.NoteOnEvent(tick=0, channel=7, data=[72, 0]),
   midi.NoteOnEvent(tick=0, channel=7, data=[67, 0]),
   midi.NoteOnEvent(tick=140, channel=7, data=[65, 92]),
   midi.NoteOnEvent(tick=0, channel=7, data=[72, 92]),
   midi.NoteOnEvent(tick=0, channel=7, data=[77, 92]),
   midi.NoteOnEvent(tick=100, channel=7, data=[77, 0]),
   midi.NoteOnEvent(tick=0, channel=7, data=[72, 0]),
   midi.NoteOnEvent(tick=0, channel=7, data=[65, 0]),
   midi.NoteOnEvent(tick=140, channel=7, data=[65, 92]),
   midi.NoteOnEvent(tick=0, channel=7, data=[72, 92]),
   midi.NoteOnEvent(tick=0, channel=7, data=[81, 92]),
   midi.NoteOnEvent(tick=100, channel=7, data=[81, 0]),
   midi.NoteOnEvent(tick=0, channel=7, data=[72, 0]),
   midi.NoteOnEvent(tick=0, channel=7, data=[65, 0]),
   midi.NoteOnEvent(tick=140, channel=7, data=[55, 92]),
   midi.NoteOnEvent(tick=100, channel=7, data=[55, 0]),
   midi.NoteOnEvent(tick=140, channel=7, data=[67, 92]),
   midi.NoteOnEvent(tick=0, channel=7, data=[74, 92]),
   midi.NoteOnEvent(tick=0, channel=7, data=[83, 92]),
   midi.NoteOnEvent(tick=100, channel=7, data=[83, 0]),
   midi.NoteOnEvent(tick=0, channel=7, data=[74, 0]),
   midi.NoteOnEvent(tick=0, channel=7, data=[67, 0]),
   midi.NoteOnEvent(tick=200, channel=7, data=[60, 60]),
   midi.NoteOnEvent(tick=58, channel=7, data=[60, 0]),
   midi.NoteOnEvent(tick=2, channel=7, data=[60, 60]),
   midi.NoteOnEvent(tick=58, channel=7, data=[60, 0]),
   midi.NoteOnEvent(tick=2, channel=7, data=[60, 60]),
   midi.NoteOnEvent(tick=58, channel=7, data=[60, 0]),
   midi.NoteOnEvent(tick=2, channel=7, data=[60, 60]),
   midi.NoteOnEvent(tick=58, channel=7, data=[60, 0]),
   midi.NoteOnEvent(tick=2, channel=7, data=[60, 60]),
   midi.NoteOnEvent(tick=58, channel=7, data=[60, 0]),
   midi.NoteOnEvent(tick=2, channel=7, data=[60, 60]),
   midi.NoteOnEvent(tick=58, channel=7, data=[60, 0]),
   midi.NoteOnEvent(tick=2, channel=7, data=[60, 60]),
   midi.NoteOnEvent(tick=58, channel=7, data=[60, 0]),
   midi.NoteOnEvent(tick=2, channel=7, data=[64, 60]),
   midi.NoteOnEvent(tick=13, channel=7, data=[64, 0]),
   midi.NoteOnEvent(tick=2, channel=7, data=[62, 60]),
   midi.NoteOnEvent(tick=43, channel=7, data=[62, 0]),
   midi.NoteOnEvent(tick=2, channel=7, data=[60, 60]),
   midi.NoteOnEvent(tick=58, channel=7, data=[60, 0]),
   midi.NoteOnEvent(tick=2, channel=7, data=[60, 60]),
   midi.NoteOnEvent(tick=20, channel=7, data=[60, 0]),
   midi.NoteOnEvent(tick=40, channel=7, data=[60, 60]),
   midi.NoteOnEvent(tick=20, channel=7, data=[60, 0]),
   midi.NoteOnEvent(tick=40, channel=7, data=[59, 60]),
   midi.NoteOnEvent(tick=58, channel=7, data=[59, 0]),
   midi.NoteOnEvent(tick=2, channel=7, data=[60, 60]),
   midi.NoteOnEvent(tick=58, channel=7, data=[60, 0]),
   midi.NoteOnEvent(tick=2, channel=7, data=[59, 60]),
   midi.NoteOnEvent(tick=58, channel=7, data=[59, 0]),
   midi.NoteOnEvent(tick=2, channel=7, data=[60, 60]),
   midi.NoteOnEvent(tick=58, channel=7, data=[60, 0]),
   midi.NoteOnEvent(tick=2, channel=7, data=[59, 60]),
   midi.NoteOnEvent(tick=58, channel=7, data=[59, 0]),
   midi.NoteOnEvent(tick=2, channel=7, data=[62, 60]),
   midi.NoteOnEvent(tick=58, channel=7, data=[62, 0]),
   midi.NoteOnEvent(tick=2, channel=7, data=[62, 60]),
   midi.NoteOnEvent(tick=58, channel=7, data=[62, 0]),
   midi.NoteOnEvent(tick=2, channel=7, data=[62, 60]),
   midi.NoteOnEvent(tick=58, channel=7, data=[62, 0]),
   midi.NoteOnEvent(tick=2, channel=7, data=[62, 60]),
   midi.NoteOnEvent(tick=58, channel=7, data=[62, 0]),
   midi.NoteOnEvent(tick=2, channel=7, data=[62, 60]),
   midi.NoteOnEvent(tick=58, channel=7, data=[62, 0]),
   midi.NoteOnEvent(tick=2, channel=7, data=[62, 60]),
   midi.NoteOnEvent(tick=58, channel=7, data=[62, 0]),
   midi.NoteOnEvent(tick=2, channel=7, data=[62, 60]),
   midi.NoteOnEvent(tick=58, channel=7, data=[62, 0]),
   midi.NoteOnEvent(tick=2, channel=7, data=[65, 60]),
   midi.NoteOnEvent(tick=13, channel=7, data=[65, 0]),
   midi.NoteOnEvent(tick=2, channel=7, data=[64, 60]),
   midi.NoteOnEvent(tick=43, channel=7, data=[64, 0]),
   midi.NoteOnEvent(tick=2, channel=7, data=[62, 60]),
   midi.NoteOnEvent(tick=58, channel=7, data=[62, 0]),
   midi.NoteOnEvent(tick=2, channel=7, data=[62, 60]),
   midi.NoteOnEvent(tick=20, channel=7, data=[62, 0]),
   midi.NoteOnEvent(tick=40, channel=7, data=[62, 60]),
   midi.NoteOnEvent(tick=20, channel=7, data=[62, 0]),
   midi.NoteOnEvent(tick=40, channel=7, data=[61, 60]),
   midi.NoteOnEvent(tick=58, channel=7, data=[61, 0]),
   midi.NoteOnEvent(tick=2, channel=7, data=[62, 60]),
   midi.NoteOnEvent(tick=58, channel=7, data=[62, 0]),
   midi.NoteOnEvent(tick=2, channel=7, data=[61, 60]),
   midi.NoteOnEvent(tick=58, channel=7, data=[61, 0]),
   midi.NoteOnEvent(tick=2, channel=7, data=[62, 60]),
   midi.NoteOnEvent(tick=58, channel=7, data=[62, 0]),
   midi.NoteOnEvent(tick=2, channel=7, data=[60, 60]),
   midi.NoteOnEvent(tick=58, channel=7, data=[60, 0]),
   midi.NoteOnEvent(tick=2, channel=7, data=[64, 60]),
   midi.NoteOnEvent(tick=58, channel=7, data=[64, 0]),
   midi.NoteOnEvent(tick=2, channel=7, data=[64, 60]),
   midi.NoteOnEvent(tick=58, channel=7, data=[64, 0]),
   midi.NoteOnEvent(tick=2, channel=7, data=[64, 60]),
   midi.NoteOnEvent(tick=58, channel=7, data=[64, 0]),
   midi.NoteOnEvent(tick=2, channel=7, data=[64, 60]),
   midi.NoteOnEvent(tick=58, channel=7, data=[64, 0]),
   midi.NoteOnEvent(tick=2, channel=7, data=[64, 60]),
   midi.NoteOnEvent(tick=58, channel=7, data=[64, 0]),
   midi.NoteOnEvent(tick=2, channel=7, data=[64, 60]),
   midi.NoteOnEvent(tick=58, channel=7, data=[64, 0]),
   midi.NoteOnEvent(tick=2, channel=7, data=[64, 60]),
   midi.NoteOnEvent(tick=58, channel=7, data=[64, 0]),
   midi.NoteOnEvent(tick=2, channel=7, data=[67, 60]),
   midi.NoteOnEvent(tick=13, channel=7, data=[67, 0]),
   midi.NoteOnEvent(tick=2, channel=7, data=[65, 60]),
   midi.NoteOnEvent(tick=43, channel=7, data=[65, 0]),
   midi.NoteOnEvent(tick=2, channel=7, data=[64, 60]),
   midi.NoteOnEvent(tick=58, channel=7, data=[64, 0]),
   midi.NoteOnEvent(tick=2, channel=7, data=[64, 60]),
   midi.NoteOnEvent(tick=20, channel=7, data=[64, 0]),
   midi.NoteOnEvent(tick=40, channel=7, data=[64, 60]),
   midi.NoteOnEvent(tick=20, channel=7, data=[64, 0]),
   midi.NoteOnEvent(tick=40, channel=7, data=[62, 60]),
   midi.NoteOnEvent(tick=58, channel=7, data=[62, 0]),
   midi.NoteOnEvent(tick=2, channel=7, data=[64, 60]),
   midi.NoteOnEvent(tick=58, channel=7, data=[64, 0]),
   midi.NoteOnEvent(tick=2, channel=7, data=[62, 60]),
   midi.NoteOnEvent(tick=58, channel=7, data=[62, 0]),
   midi.NoteOnEvent(tick=2, channel=7, data=[64, 60]),
   midi.NoteOnEvent(tick=58, channel=7, data=[64, 0]),
   midi.NoteOnEvent(tick=2, channel=7, data=[62, 60]),
   midi.NoteOnEvent(tick=58, channel=7, data=[62, 0]),
   midi.NoteOnEvent(tick=2, channel=7, data=[65, 60]),
   midi.NoteOnEvent(tick=58, channel=7, data=[65, 0]),
   midi.NoteOnEvent(tick=2, channel=7, data=[65, 60]),
   midi.NoteOnEvent(tick=58, channel=7, data=[65, 0]),
   midi.NoteOnEvent(tick=2, channel=7, data=[65, 60]),
   midi.NoteOnEvent(tick=58, channel=7, data=[65, 0]),
   midi.NoteOnEvent(tick=2, channel=7, data=[65, 60]),
   midi.NoteOnEvent(tick=58, channel=7, data=[65, 0]),
   midi.NoteOnEvent(tick=2, channel=7, data=[65, 60]),
   midi.NoteOnEvent(tick=58, channel=7, data=[65, 0]),
   midi.NoteOnEvent(tick=2, channel=7, data=[65, 60]),
   midi.NoteOnEvent(tick=58, channel=7, data=[65, 0]),
   midi.NoteOnEvent(tick=2, channel=7, data=[65, 60]),
   midi.NoteOnEvent(tick=58, channel=7, data=[65, 0]),
   midi.NoteOnEvent(tick=2, channel=7, data=[69, 60]),
   midi.NoteOnEvent(tick=13, channel=7, data=[69, 0]),
   midi.NoteOnEvent(tick=2, channel=7, data=[67, 60]),
   midi.NoteOnEvent(tick=43, channel=7, data=[67, 0]),
   midi.NoteOnEvent(tick=2, channel=7, data=[65, 60]),
   midi.NoteOnEvent(tick=58, channel=7, data=[65, 0]),
   midi.NoteOnEvent(tick=2, channel=7, data=[65, 60]),
   midi.NoteOnEvent(tick=20, channel=7, data=[65, 0]),
   midi.NoteOnEvent(tick=40, channel=7, data=[65, 60]),
   midi.NoteOnEvent(tick=20, channel=7, data=[65, 0]),
   midi.NoteOnEvent(tick=40, channel=7, data=[64, 60]),
   midi.NoteOnEvent(tick=58, channel=7, data=[64, 0]),
   midi.NoteOnEvent(tick=2, channel=7, data=[65, 60]),
   midi.NoteOnEvent(tick=58, channel=7, data=[65, 0]),
   midi.NoteOnEvent(tick=2, channel=7, data=[64, 60]),
   midi.NoteOnEvent(tick=58, channel=7, data=[64, 0]),
   midi.NoteOnEvent(tick=2, channel=7, data=[65, 60]),
   midi.NoteOnEvent(tick=58, channel=7, data=[65, 0]),
   midi.NoteOnEvent(tick=2, channel=7, data=[64, 60]),
   midi.NoteOnEvent(tick=58, channel=7, data=[64, 0]),
   midi.NoteOnEvent(tick=2, channel=7, data=[64, 60]),
   midi.NoteOnEvent(tick=58, channel=7, data=[64, 0]),
   midi.NoteOnEvent(tick=2, channel=7, data=[64, 60]),
   midi.NoteOnEvent(tick=58, channel=7, data=[64, 0]),
   midi.NoteOnEvent(tick=2, channel=7, data=[64, 60]),
   midi.NoteOnEvent(tick=58, channel=7, data=[64, 0]),
   midi.NoteOnEvent(tick=2, channel=7, data=[65, 60]),
   midi.NoteOnEvent(tick=58, channel=7, data=[65, 0]),
   midi.NoteOnEvent(tick=2, channel=7, data=[65, 60]),
   midi.NoteOnEvent(tick=58, channel=7, data=[65, 0]),
   midi.NoteOnEvent(tick=2, channel=7, data=[67, 60]),
   midi.NoteOnEvent(tick=58, channel=7, data=[67, 0]),
   midi.NoteOnEvent(tick=2, channel=7, data=[67, 60]),
   midi.NoteOnEvent(tick=58, channel=7, data=[67, 0]),
   midi.NoteOnEvent(tick=2, channel=7, data=[69, 60]),
   midi.NoteOnEvent(tick=58, channel=7, data=[69, 0]),
   midi.NoteOnEvent(tick=2, channel=7, data=[69, 60]),
   midi.NoteOnEvent(tick=58, channel=7, data=[69, 0]),
   midi.NoteOnEvent(tick=2, channel=7, data=[67, 60]),
   midi.NoteOnEvent(tick=58, channel=7, data=[67, 0]),
   midi.NoteOnEvent(tick=2, channel=7, data=[67, 60]),
   midi.NoteOnEvent(tick=58, channel=7, data=[67, 0]),
   midi.NoteOnEvent(tick=2, channel=7, data=[69, 60]),
   midi.NoteOnEvent(tick=58, channel=7, data=[69, 0]),
   midi.NoteOnEvent(tick=2, channel=7, data=[69, 60]),
   midi.NoteOnEvent(tick=58, channel=7, data=[69, 0]),
   midi.NoteOnEvent(tick=2, channel=7, data=[71, 60]),
   midi.NoteOnEvent(tick=58, channel=7, data=[71, 0]),
   midi.NoteOnEvent(tick=2, channel=7, data=[71, 60]),
   midi.NoteOnEvent(tick=58, channel=7, data=[71, 0]),
   midi.NoteOnEvent(tick=2, channel=7, data=[72, 92]),
   midi.NoteOnEvent(tick=100, channel=7, data=[72, 0]),
   midi.NoteOnEvent(tick=20, channel=7, data=[72, 92]),
   midi.NoteOnEvent(tick=0, channel=7, data=[84, 92]),
   midi.NoteOnEvent(tick=210, channel=7, data=[84, 0]),
   midi.NoteOnEvent(tick=0, channel=7, data=[72, 0]),
   midi.NoteOnEvent(tick=30, channel=7, data=[72, 92]),
   midi.NoteOnEvent(tick=0, channel=7, data=[84, 92]),
   midi.NoteOnEvent(tick=100, channel=7, data=[84, 0]),
   midi.NoteOnEvent(tick=0, channel=7, data=[72, 0]),
   midi.NoteOnEvent(tick=20, channel=7, data=[72, 92]),
   midi.NoteOnEvent(tick=0, channel=7, data=[84, 92]),
   midi.NoteOnEvent(tick=100, channel=7, data=[84, 0]),
   midi.NoteOnEvent(tick=0, channel=7, data=[72, 0]),
   midi.NoteOnEvent(tick=20, channel=7, data=[72, 92]),
   midi.NoteOnEvent(tick=0, channel=7, data=[84, 92]),
   midi.NoteOnEvent(tick=100, channel=7, data=[84, 0]),
   midi.NoteOnEvent(tick=0, channel=7, data=[72, 0]),
   midi.NoteOnEvent(tick=20, channel=7, data=[72, 92]),
   midi.NoteOnEvent(tick=0, channel=7, data=[84, 92]),
   midi.NoteOnEvent(tick=100, channel=7, data=[84, 0]),
   midi.NoteOnEvent(tick=0, channel=7, data=[72, 0]),
   midi.NoteOnEvent(tick=20, channel=7, data=[72, 92]),
   midi.NoteOnEvent(tick=0, channel=7, data=[84, 92]),
   midi.NoteOnEvent(tick=100, channel=7, data=[84, 0]),
   midi.NoteOnEvent(tick=0, channel=7, data=[72, 0]),
   midi.NoteOnEvent(tick=20, channel=7, data=[72, 92]),
   midi.NoteOnEvent(tick=0, channel=7, data=[84, 92]),
   midi.NoteOnEvent(tick=100, channel=7, data=[84, 0]),
   midi.NoteOnEvent(tick=0, channel=7, data=[72, 0]),
   midi.NoteOnEvent(tick=20, channel=7, data=[72, 92]),
   midi.NoteOnEvent(tick=0, channel=7, data=[84, 92]),
   midi.NoteOnEvent(tick=210, channel=7, data=[84, 0]),
   midi.NoteOnEvent(tick=0, channel=7, data=[72, 0]),
   midi.NoteOnEvent(tick=30, channel=7, data=[72, 92]),
   midi.NoteOnEvent(tick=0, channel=7, data=[84, 92]),
   midi.NoteOnEvent(tick=100, channel=7, data=[84, 0]),
   midi.NoteOnEvent(tick=0, channel=7, data=[72, 0]),
   midi.NoteOnEvent(tick=20, channel=7, data=[72, 92]),
   midi.NoteOnEvent(tick=0, channel=7, data=[84, 92]),
   midi.NoteOnEvent(tick=100, channel=7, data=[84, 0]),
   midi.NoteOnEvent(tick=0, channel=7, data=[72, 0]),
   midi.NoteOnEvent(tick=20, channel=7, data=[72, 92]),
   midi.NoteOnEvent(tick=0, channel=7, data=[84, 92]),
   midi.NoteOnEvent(tick=100, channel=7, data=[84, 0]),
   midi.NoteOnEvent(tick=0, channel=7, data=[72, 0]),
   midi.NoteOnEvent(tick=20, channel=7, data=[72, 92]),
   midi.NoteOnEvent(tick=0, channel=7, data=[84, 92]),
   midi.NoteOnEvent(tick=100, channel=7, data=[84, 0]),
   midi.NoteOnEvent(tick=0, channel=7, data=[72, 0]),
   midi.NoteOnEvent(tick=20, channel=7, data=[72, 92]),
   midi.NoteOnEvent(tick=0, channel=7, data=[84, 92]),
   midi.NoteOnEvent(tick=100, channel=7, data=[84, 0]),
   midi.NoteOnEvent(tick=0, channel=7, data=[72, 0]),
   midi.NoteOnEvent(tick=20, channel=7, data=[72, 92]),
   midi.NoteOnEvent(tick=0, channel=7, data=[84, 92]),
   midi.NoteOnEvent(tick=100, channel=7, data=[84, 0]),
   midi.NoteOnEvent(tick=0, channel=7, data=[72, 0]),
   midi.NoteOnEvent(tick=20, channel=7, data=[67, 60]),
   midi.NoteOnEvent(tick=100, channel=7, data=[67, 0]),
   midi.NoteOnEvent(tick=20, channel=7, data=[67, 60]),
   midi.NoteOnEvent(tick=100, channel=7, data=[67, 0]),
   midi.NoteOnEvent(tick=20, channel=7, data=[67, 60]),
   midi.NoteOnEvent(tick=100, channel=7, data=[67, 0]),
   midi.NoteOnEvent(tick=140, channel=7, data=[67, 60]),
   midi.NoteOnEvent(tick=100, channel=7, data=[67, 0]),
   midi.NoteOnEvent(tick=20, channel=7, data=[67, 60]),
   midi.NoteOnEvent(tick=100, channel=7, data=[67, 0]),
   midi.NoteOnEvent(tick=20, channel=7, data=[67, 60]),
   midi.NoteOnEvent(tick=100, channel=7, data=[67, 0]),
   midi.NoteOnEvent(tick=140, channel=7, data=[69, 60]),
   midi.NoteOnEvent(tick=100, channel=7, data=[69, 0]),
   midi.NoteOnEvent(tick=20, channel=7, data=[69, 60]),
   midi.NoteOnEvent(tick=100, channel=7, data=[69, 0]),
   midi.NoteOnEvent(tick=20, channel=7, data=[69, 60]),
   midi.NoteOnEvent(tick=100, channel=7, data=[69, 0]),
   midi.NoteOnEvent(tick=140, channel=7, data=[69, 60]),
   midi.NoteOnEvent(tick=100, channel=7, data=[69, 0]),
   midi.NoteOnEvent(tick=20, channel=7, data=[69, 60]),
   midi.NoteOnEvent(tick=100, channel=7, data=[69, 0]),
   midi.NoteOnEvent(tick=20, channel=7, data=[69, 60]),
   midi.NoteOnEvent(tick=100, channel=7, data=[69, 0]),
   midi.NoteOnEvent(tick=140, channel=7, data=[67, 60]),
   midi.NoteOnEvent(tick=100, channel=7, data=[67, 0]),
   midi.NoteOnEvent(tick=20, channel=7, data=[67, 60]),
   midi.NoteOnEvent(tick=100, channel=7, data=[67, 0]),
   midi.NoteOnEvent(tick=20, channel=7, data=[67, 60]),
   midi.NoteOnEvent(tick=100, channel=7, data=[67, 0]),
   midi.NoteOnEvent(tick=140, channel=7, data=[67, 60]),
   midi.NoteOnEvent(tick=100, channel=7, data=[67, 0]),
   midi.NoteOnEvent(tick=20, channel=7, data=[67, 60]),
   midi.NoteOnEvent(tick=100, channel=7, data=[67, 0]),
   midi.NoteOnEvent(tick=20, channel=7, data=[67, 60]),
   midi.NoteOnEvent(tick=100, channel=7, data=[67, 0]),
   midi.NoteOnEvent(tick=20, channel=7, data=[62, 60]),
   midi.NoteOnEvent(tick=120, channel=7, data=[62, 0]),
   midi.NoteOnEvent(tick=0, channel=7, data=[67, 60]),
   midi.NoteOnEvent(tick=120, channel=7, data=[67, 0]),
   midi.NoteOnEvent(tick=0, channel=7, data=[64, 60]),
   midi.NoteOnEvent(tick=120, channel=7, data=[64, 0]),
   midi.NoteOnEvent(tick=0, channel=7, data=[67, 60]),
   midi.NoteOnEvent(tick=120, channel=7, data=[67, 0]),
   midi.NoteOnEvent(tick=0, channel=7, data=[65, 60]),
   midi.NoteOnEvent(tick=120, channel=7, data=[65, 0]),
   midi.NoteOnEvent(tick=0, channel=7, data=[67, 60]),
   midi.NoteOnEvent(tick=120, channel=7, data=[67, 0]),
   midi.NoteOnEvent(tick=0, channel=7, data=[62, 60]),
   midi.NoteOnEvent(tick=120, channel=7, data=[62, 0]),
   midi.NoteOnEvent(tick=0, channel=7, data=[67, 60]),
   midi.NoteOnEvent(tick=100, channel=7, data=[67, 0]),
   midi.NoteOnEvent(tick=20, channel=7, data=[64, 60]),
   midi.NoteOnEvent(tick=100, channel=7, data=[64, 0]),
   midi.NoteOnEvent(tick=20, channel=7, data=[67, 60]),
   midi.NoteOnEvent(tick=100, channel=7, data=[67, 0]),
   midi.NoteOnEvent(tick=20, channel=7, data=[67, 60]),
   midi.NoteOnEvent(tick=100, channel=7, data=[67, 0]),
   midi.NoteOnEvent(tick=20, channel=7, data=[67, 60]),
   midi.NoteOnEvent(tick=100, channel=7, data=[67, 0]),
   midi.NoteOnEvent(tick=140, channel=7, data=[67, 60]),
   midi.NoteOnEvent(tick=100, channel=7, data=[67, 0]),
   midi.NoteOnEvent(tick=20, channel=7, data=[67, 60]),
   midi.NoteOnEvent(tick=100, channel=7, data=[67, 0]),
   midi.NoteOnEvent(tick=20, channel=7, data=[67, 60]),
   midi.NoteOnEvent(tick=100, channel=7, data=[67, 0]),
   midi.NoteOnEvent(tick=140, channel=7, data=[69, 60]),
   midi.NoteOnEvent(tick=100, channel=7, data=[69, 0]),
   midi.NoteOnEvent(tick=20, channel=7, data=[69, 60]),
   midi.NoteOnEvent(tick=100, channel=7, data=[69, 0]),
   midi.NoteOnEvent(tick=20, channel=7, data=[69, 60]),
   midi.NoteOnEvent(tick=100, channel=7, data=[69, 0]),
   midi.NoteOnEvent(tick=140, channel=7, data=[69, 60]),
   midi.NoteOnEvent(tick=100, channel=7, data=[69, 0]),
   midi.NoteOnEvent(tick=20, channel=7, data=[69, 60]),
   midi.NoteOnEvent(tick=100, channel=7, data=[69, 0]),
   midi.NoteOnEvent(tick=20, channel=7, data=[69, 60]),
   midi.NoteOnEvent(tick=100, channel=7, data=[69, 0]),
   midi.NoteOnEvent(tick=140, channel=7, data=[67, 60]),
   midi.NoteOnEvent(tick=100, channel=7, data=[67, 0]),
   midi.NoteOnEvent(tick=20, channel=7, data=[67, 60]),
   midi.NoteOnEvent(tick=100, channel=7, data=[67, 0]),
   midi.NoteOnEvent(tick=20, channel=7, data=[67, 60]),
   midi.NoteOnEvent(tick=100, channel=7, data=[67, 0]),
   midi.NoteOnEvent(tick=140, channel=7, data=[67, 60]),
   midi.NoteOnEvent(tick=100, channel=7, data=[67, 0]),
   midi.NoteOnEvent(tick=20, channel=7, data=[67, 60]),
   midi.NoteOnEvent(tick=100, channel=7, data=[67, 0]),
   midi.NoteOnEvent(tick=20, channel=7, data=[67, 60]),
   midi.NoteOnEvent(tick=100, channel=7, data=[67, 0]),
   midi.NoteOnEvent(tick=20, channel=7, data=[62, 60]),
   midi.NoteOnEvent(tick=120, channel=7, data=[62, 0]),
   midi.NoteOnEvent(tick=0, channel=7, data=[67, 60]),
   midi.NoteOnEvent(tick=120, channel=7, data=[67, 0]),
   midi.NoteOnEvent(tick=0, channel=7, data=[64, 60]),
   midi.NoteOnEvent(tick=120, channel=7, data=[64, 0]),
   midi.NoteOnEvent(tick=0, channel=7, data=[67, 60]),
   midi.NoteOnEvent(tick=120, channel=7, data=[67, 0]),
   midi.NoteOnEvent(tick=0, channel=7, data=[65, 60]),
   midi.NoteOnEvent(tick=120, channel=7, data=[65, 0]),
   midi.NoteOnEvent(tick=0, channel=7, data=[67, 60]),
   midi.NoteOnEvent(tick=120, channel=7, data=[67, 0]),
   midi.NoteOnEvent(tick=0, channel=7, data=[62, 60]),
   midi.NoteOnEvent(tick=120, channel=7, data=[62, 0]),
   midi.NoteOnEvent(tick=0, channel=7, data=[67, 60]),
   midi.NoteOnEvent(tick=100, channel=7, data=[67, 0]),
   midi.NoteOnEvent(tick=20, channel=7, data=[64, 60]),
   midi.NoteOnEvent(tick=100, channel=7, data=[64, 0]),
   midi.NoteOnEvent(tick=920, channel=7, data=[72, 60]),
   midi.NoteOnEvent(tick=58, channel=7, data=[72, 0]),
   midi.NoteOnEvent(tick=2, channel=7, data=[72, 60]),
   midi.NoteOnEvent(tick=58, channel=7, data=[72, 0]),
   midi.NoteOnEvent(tick=2, channel=7, data=[72, 60]),
   midi.NoteOnEvent(tick=58, channel=7, data=[72, 0]),
   midi.NoteOnEvent(tick=2, channel=7, data=[72, 60]),
   midi.NoteOnEvent(tick=58, channel=7, data=[72, 0]),
   midi.NoteOnEvent(tick=2, channel=7, data=[72, 60]),
   midi.NoteOnEvent(tick=58, channel=7, data=[72, 0]),
   midi.NoteOnEvent(tick=2, channel=7, data=[72, 60]),
   midi.NoteOnEvent(tick=58, channel=7, data=[72, 0]),
   midi.NoteOnEvent(tick=2, channel=7, data=[72, 60]),
   midi.NoteOnEvent(tick=58, channel=7, data=[72, 0]),
   midi.NoteOnEvent(tick=2, channel=7, data=[76, 60]),
   midi.NoteOnEvent(tick=15, channel=7, data=[76, 0]),
   midi.NoteOnEvent(tick=0, channel=7, data=[74, 60]),
   midi.NoteOnEvent(tick=45, channel=7, data=[74, 0]),
   midi.NoteOnEvent(tick=0, channel=7, data=[72, 60]),
   midi.NoteOnEvent(tick=58, channel=7, data=[72, 0]),
   midi.NoteOnEvent(tick=2, channel=7, data=[72, 60]),
   midi.NoteOnEvent(tick=20, channel=7, data=[72, 0]),
   midi.NoteOnEvent(tick=40, channel=7, data=[72, 60]),
   midi.NoteOnEvent(tick=20, channel=7, data=[72, 0]),
   midi.NoteOnEvent(tick=40, channel=7, data=[71, 60]),
   midi.NoteOnEvent(tick=60, channel=7, data=[71, 0]),
   midi.NoteOnEvent(tick=0, channel=7, data=[72, 60]),
   midi.NoteOnEvent(tick=58, channel=7, data=[72, 0]),
   midi.NoteOnEvent(tick=2, channel=7, data=[71, 60]),
   midi.NoteOnEvent(tick=60, channel=7, data=[71, 0]),
   midi.NoteOnEvent(tick=0, channel=7, data=[72, 60]),
   midi.NoteOnEvent(tick=58, channel=7, data=[72, 0]),
   midi.NoteOnEvent(tick=2, channel=7, data=[71, 60]),
   midi.NoteOnEvent(tick=100, channel=7, data=[71, 0]),
   midi.NoteOnEvent(tick=920, channel=7, data=[79, 60]),
   midi.NoteOnEvent(tick=58, channel=7, data=[79, 0]),
   midi.NoteOnEvent(tick=2, channel=7, data=[79, 60]),
   midi.NoteOnEvent(tick=58, channel=7, data=[79, 0]),
   midi.NoteOnEvent(tick=2, channel=7, data=[79, 60]),
   midi.NoteOnEvent(tick=58, channel=7, data=[79, 0]),
   midi.NoteOnEvent(tick=2, channel=7, data=[79, 60]),
   midi.NoteOnEvent(tick=58, channel=7, data=[79, 0]),
   midi.NoteOnEvent(tick=2, channel=7, data=[79, 60]),
   midi.NoteOnEvent(tick=58, channel=7, data=[79, 0]),
   midi.NoteOnEvent(tick=2, channel=7, data=[79, 60]),
   midi.NoteOnEvent(tick=58, channel=7, data=[79, 0]),
   midi.NoteOnEvent(tick=2, channel=7, data=[79, 60]),
   midi.NoteOnEvent(tick=58, channel=7, data=[79, 0]),
   midi.NoteOnEvent(tick=2, channel=7, data=[83, 60]),
   midi.NoteOnEvent(tick=15, channel=7, data=[83, 0]),
   midi.NoteOnEvent(tick=0, channel=7, data=[81, 60]),
   midi.NoteOnEvent(tick=45, channel=7, data=[81, 0]),
   midi.NoteOnEvent(tick=0, channel=7, data=[79, 60]),
   midi.NoteOnEvent(tick=58, channel=7, data=[79, 0]),
   midi.NoteOnEvent(tick=2, channel=7, data=[79, 60]),
   midi.NoteOnEvent(tick=20, channel=7, data=[79, 0]),
   midi.NoteOnEvent(tick=40, channel=7, data=[79, 60]),
   midi.NoteOnEvent(tick=20, channel=7, data=[79, 0]),
   midi.NoteOnEvent(tick=40, channel=7, data=[78, 60]),
   midi.NoteOnEvent(tick=60, channel=7, data=[78, 0]),
   midi.NoteOnEvent(tick=0, channel=7, data=[79, 60]),
   midi.NoteOnEvent(tick=58, channel=7, data=[79, 0]),
   midi.NoteOnEvent(tick=2, channel=7, data=[78, 60]),
   midi.NoteOnEvent(tick=60, channel=7, data=[78, 0]),
   midi.NoteOnEvent(tick=0, channel=7, data=[79, 60]),
   midi.NoteOnEvent(tick=58, channel=7, data=[79, 0]),
   midi.NoteOnEvent(tick=2, channel=7, data=[78, 92]),
   midi.NoteOnEvent(tick=100, channel=7, data=[78, 0]),
   midi.NoteOnEvent(tick=20, channel=7, data=[74, 92]),
   midi.NoteOnEvent(tick=0, channel=7, data=[86, 92]),
   midi.NoteOnEvent(tick=210, channel=7, data=[86, 0]),
   midi.NoteOnEvent(tick=0, channel=7, data=[74, 0]),
   midi.NoteOnEvent(tick=30, channel=7, data=[74, 92]),
   midi.NoteOnEvent(tick=0, channel=7, data=[86, 92]),
   midi.NoteOnEvent(tick=100, channel=7, data=[86, 0]),
   midi.NoteOnEvent(tick=0, channel=7, data=[74, 0]),
   midi.NoteOnEvent(tick=20, channel=7, data=[74, 92]),
   midi.NoteOnEvent(tick=0, channel=7, data=[86, 92]),
   midi.NoteOnEvent(tick=100, channel=7, data=[86, 0]),
   midi.NoteOnEvent(tick=0, channel=7, data=[74, 0]),
   midi.NoteOnEvent(tick=20, channel=7, data=[74, 92]),
   midi.NoteOnEvent(tick=0, channel=7, data=[86, 92]),
   midi.NoteOnEvent(tick=100, channel=7, data=[86, 0]),
   midi.NoteOnEvent(tick=0, channel=7, data=[74, 0]),
   midi.NoteOnEvent(tick=20, channel=7, data=[74, 92]),
   midi.NoteOnEvent(tick=0, channel=7, data=[86, 92]),
   midi.NoteOnEvent(tick=100, channel=7, data=[86, 0]),
   midi.NoteOnEvent(tick=0, channel=7, data=[74, 0]),
   midi.NoteOnEvent(tick=20, channel=7, data=[74, 92]),
   midi.NoteOnEvent(tick=0, channel=7, data=[86, 92]),
   midi.NoteOnEvent(tick=100, channel=7, data=[86, 0]),
   midi.NoteOnEvent(tick=0, channel=7, data=[74, 0]),
   midi.NoteOnEvent(tick=20, channel=7, data=[74, 92]),
   midi.NoteOnEvent(tick=0, channel=7, data=[86, 92]),
   midi.NoteOnEvent(tick=100, channel=7, data=[86, 0]),
   midi.NoteOnEvent(tick=0, channel=7, data=[74, 0]),
   midi.NoteOnEvent(tick=20, channel=7, data=[74, 92]),
   midi.NoteOnEvent(tick=0, channel=7, data=[86, 92]),
   midi.NoteOnEvent(tick=210, channel=7, data=[86, 0]),
   midi.NoteOnEvent(tick=0, channel=7, data=[74, 0]),
   midi.NoteOnEvent(tick=30, channel=7, data=[74, 92]),
   midi.NoteOnEvent(tick=0, channel=7, data=[86, 92]),
   midi.NoteOnEvent(tick=100, channel=7, data=[86, 0]),
   midi.NoteOnEvent(tick=0, channel=7, data=[74, 0]),
   midi.NoteOnEvent(tick=20, channel=7, data=[74, 92]),
   midi.NoteOnEvent(tick=0, channel=7, data=[86, 92]),
   midi.NoteOnEvent(tick=100, channel=7, data=[86, 0]),
   midi.NoteOnEvent(tick=0, channel=7, data=[74, 0]),
   midi.NoteOnEvent(tick=20, channel=7, data=[74, 92]),
   midi.NoteOnEvent(tick=0, channel=7, data=[86, 92]),
   midi.NoteOnEvent(tick=100, channel=7, data=[86, 0]),
   midi.NoteOnEvent(tick=0, channel=7, data=[74, 0]),
   midi.NoteOnEvent(tick=20, channel=7, data=[74, 92]),
   midi.NoteOnEvent(tick=0, channel=7, data=[86, 92]),
   midi.NoteOnEvent(tick=100, channel=7, data=[86, 0]),
   midi.NoteOnEvent(tick=0, channel=7, data=[74, 0]),
   midi.NoteOnEvent(tick=20, channel=7, data=[74, 92]),
   midi.NoteOnEvent(tick=0, channel=7, data=[86, 92]),
   midi.NoteOnEvent(tick=100, channel=7, data=[86, 0]),
   midi.NoteOnEvent(tick=0, channel=7, data=[74, 0]),
   midi.NoteOnEvent(tick=20, channel=7, data=[74, 92]),
   midi.NoteOnEvent(tick=0, channel=7, data=[86, 92]),
   midi.NoteOnEvent(tick=100, channel=7, data=[86, 0]),
   midi.NoteOnEvent(tick=0, channel=7, data=[74, 0]),
   midi.NoteOnEvent(tick=860, channel=7, data=[67, 60]),
   midi.NoteOnEvent(tick=60, channel=7, data=[67, 0]),
   midi.NoteOnEvent(tick=0, channel=7, data=[69, 60]),
   midi.NoteOnEvent(tick=60, channel=7, data=[69, 0]),
   midi.NoteOnEvent(tick=0, channel=7, data=[70, 60]),
   midi.NoteOnEvent(tick=60, channel=7, data=[70, 0]),
   midi.NoteOnEvent(tick=0, channel=7, data=[69, 60]),
   midi.NoteOnEvent(tick=60, channel=7, data=[69, 0]),
   midi.NoteOnEvent(tick=0, channel=7, data=[67, 60]),
   midi.NoteOnEvent(tick=100, channel=7, data=[67, 0]),
   midi.NoteOnEvent(tick=140, channel=7, data=[69, 60]),
   midi.NoteOnEvent(tick=60, channel=7, data=[69, 0]),
   midi.NoteOnEvent(tick=0, channel=7, data=[70, 60]),
   midi.NoteOnEvent(tick=60, channel=7, data=[70, 0]),
   midi.NoteOnEvent(tick=0, channel=7, data=[72, 60]),
   midi.NoteOnEvent(tick=60, channel=7, data=[72, 0]),
   midi.NoteOnEvent(tick=0, channel=7, data=[70, 60]),
   midi.NoteOnEvent(tick=60, channel=7, data=[70, 0]),
   midi.NoteOnEvent(tick=0, channel=7, data=[69, 60]),
   midi.NoteOnEvent(tick=60, channel=7, data=[69, 0]),
   midi.NoteOnEvent(tick=0, channel=7, data=[70, 60]),
   midi.NoteOnEvent(tick=60, channel=7, data=[70, 0]),
   midi.NoteOnEvent(tick=0, channel=7, data=[69, 60]),
   midi.NoteOnEvent(tick=60, channel=7, data=[69, 0]),
   midi.NoteOnEvent(tick=0, channel=7, data=[67, 60]),
   midi.NoteOnEvent(tick=60, channel=7, data=[67, 0]),
   midi.NoteOnEvent(tick=0, channel=7, data=[66, 60]),
   midi.NoteOnEvent(tick=60, channel=7, data=[66, 0]),
   midi.NoteOnEvent(tick=0, channel=7, data=[67, 60]),
   midi.NoteOnEvent(tick=60, channel=7, data=[67, 0]),
   midi.NoteOnEvent(tick=0, channel=7, data=[69, 60]),
   midi.NoteOnEvent(tick=60, channel=7, data=[69, 0]),
   midi.NoteOnEvent(tick=0, channel=7, data=[67, 60]),
   midi.NoteOnEvent(tick=60, channel=7, data=[67, 0]),
   midi.NoteOnEvent(tick=0, channel=7, data=[66, 60]),
   midi.NoteOnEvent(tick=100, channel=7, data=[66, 0]),
   midi.NoteOnEvent(tick=140, channel=7, data=[67, 60]),
   midi.NoteOnEvent(tick=60, channel=7, data=[67, 0]),
   midi.NoteOnEvent(tick=0, channel=7, data=[69, 60]),
   midi.NoteOnEvent(tick=60, channel=7, data=[69, 0]),
   midi.NoteOnEvent(tick=0, channel=7, data=[70, 60]),
   midi.NoteOnEvent(tick=60, channel=7, data=[70, 0]),
   midi.NoteOnEvent(tick=0, channel=7, data=[69, 60]),
   midi.NoteOnEvent(tick=60, channel=7, data=[69, 0]),
   midi.NoteOnEvent(tick=0, channel=7, data=[67, 60]),
   midi.NoteOnEvent(tick=60, channel=7, data=[67, 0]),
   midi.NoteOnEvent(tick=0, channel=7, data=[69, 60]),
   midi.NoteOnEvent(tick=60, channel=7, data=[69, 0]),
   midi.NoteOnEvent(tick=0, channel=7, data=[67, 60]),
   midi.NoteOnEvent(tick=60, channel=7, data=[67, 0]),
   midi.NoteOnEvent(tick=0, channel=7, data=[65, 60]),
   midi.NoteOnEvent(tick=60, channel=7, data=[65, 0]),
   midi.NoteOnEvent(tick=0, channel=7, data=[64, 60]),
   midi.NoteOnEvent(tick=60, channel=7, data=[64, 0]),
   midi.NoteOnEvent(tick=0, channel=7, data=[66, 60]),
   midi.NoteOnEvent(tick=60, channel=7, data=[66, 0]),
   midi.NoteOnEvent(tick=0, channel=7, data=[67, 60]),
   midi.NoteOnEvent(tick=60, channel=7, data=[67, 0]),
   midi.NoteOnEvent(tick=0, channel=7, data=[66, 60]),
   midi.NoteOnEvent(tick=60, channel=7, data=[66, 0]),
   midi.NoteOnEvent(tick=0, channel=7, data=[64, 60]),
   midi.NoteOnEvent(tick=100, channel=7, data=[64, 0]),
   midi.NoteOnEvent(tick=140, channel=7, data=[66, 60]),
   midi.NoteOnEvent(tick=60, channel=7, data=[66, 0]),
   midi.NoteOnEvent(tick=0, channel=7, data=[67, 60]),
   midi.NoteOnEvent(tick=60, channel=7, data=[67, 0]),
   midi.NoteOnEvent(tick=0, channel=7, data=[69, 60]),
   midi.NoteOnEvent(tick=60, channel=7, data=[69, 0]),
   midi.NoteOnEvent(tick=0, channel=7, data=[67, 60]),
   midi.NoteOnEvent(tick=60, channel=7, data=[67, 0]),
   midi.NoteOnEvent(tick=0, channel=7, data=[66, 60]),
   midi.NoteOnEvent(tick=60, channel=7, data=[66, 0]),
   midi.NoteOnEvent(tick=0, channel=7, data=[62, 60]),
   midi.NoteOnEvent(tick=60, channel=7, data=[62, 0]),
   midi.NoteOnEvent(tick=0, channel=7, data=[64, 60]),
   midi.NoteOnEvent(tick=60, channel=7, data=[64, 0]),
   midi.NoteOnEvent(tick=0, channel=7, data=[66, 60]),
   midi.NoteOnEvent(tick=58, channel=7, data=[66, 0]),
   midi.NoteOnEvent(tick=2, channel=7, data=[67, 60]),
   midi.NoteOnEvent(tick=100, channel=7, data=[67, 0]),
   midi.NoteOnEvent(tick=20, channel=7, data=[74, 92]),
   midi.NoteOnEvent(tick=0, channel=7, data=[86, 92]),
   midi.NoteOnEvent(tick=210, channel=7, data=[86, 0]),
   midi.NoteOnEvent(tick=0, channel=7, data=[74, 0]),
   midi.NoteOnEvent(tick=30, channel=7, data=[74, 92]),
   midi.NoteOnEvent(tick=0, channel=7, data=[86, 92]),
   midi.NoteOnEvent(tick=100, channel=7, data=[86, 0]),
   midi.NoteOnEvent(tick=0, channel=7, data=[74, 0]),
   midi.NoteOnEvent(tick=20, channel=7, data=[74, 92]),
   midi.NoteOnEvent(tick=0, channel=7, data=[86, 92]),
   midi.NoteOnEvent(tick=100, channel=7, data=[86, 0]),
   midi.NoteOnEvent(tick=0, channel=7, data=[74, 0]),
   midi.NoteOnEvent(tick=20, channel=7, data=[74, 92]),
   midi.NoteOnEvent(tick=0, channel=7, data=[86, 92]),
   midi.NoteOnEvent(tick=100, channel=7, data=[86, 0]),
   midi.NoteOnEvent(tick=0, channel=7, data=[74, 0]),
   midi.NoteOnEvent(tick=20, channel=7, data=[74, 92]),
   midi.NoteOnEvent(tick=0, channel=7, data=[86, 92]),
   midi.NoteOnEvent(tick=100, channel=7, data=[86, 0]),
   midi.NoteOnEvent(tick=0, channel=7, data=[74, 0]),
   midi.NoteOnEvent(tick=20, channel=7, data=[71, 92]),
   midi.NoteOnEvent(tick=0, channel=7, data=[83, 92]),
   midi.NoteOnEvent(tick=100, channel=7, data=[83, 0]),
   midi.NoteOnEvent(tick=0, channel=7, data=[71, 0]),
   midi.NoteOnEvent(tick=20, channel=7, data=[71, 92]),
   midi.NoteOnEvent(tick=0, channel=7, data=[83, 92]),
   midi.NoteOnEvent(tick=100, channel=7, data=[83, 0]),
   midi.NoteOnEvent(tick=0, channel=7, data=[71, 0]),
   midi.NoteOnEvent(tick=20, channel=7, data=[71, 92]),
   midi.NoteOnEvent(tick=0, channel=7, data=[83, 92]),
   midi.NoteOnEvent(tick=210, channel=7, data=[83, 0]),
   midi.NoteOnEvent(tick=0, channel=7, data=[71, 0]),
   midi.NoteOnEvent(tick=30, channel=7, data=[71, 92]),
   midi.NoteOnEvent(tick=0, channel=7, data=[83, 92]),
   midi.NoteOnEvent(tick=100, channel=7, data=[83, 0]),
   midi.NoteOnEvent(tick=0, channel=7, data=[71, 0]),
   midi.NoteOnEvent(tick=20, channel=7, data=[71, 92]),
   midi.NoteOnEvent(tick=0, channel=7, data=[83, 92]),
   midi.NoteOnEvent(tick=100, channel=7, data=[83, 0]),
   midi.NoteOnEvent(tick=0, channel=7, data=[71, 0]),
   midi.NoteOnEvent(tick=20, channel=7, data=[71, 92]),
   midi.NoteOnEvent(tick=0, channel=7, data=[83, 92]),
   midi.NoteOnEvent(tick=100, channel=7, data=[83, 0]),
   midi.NoteOnEvent(tick=0, channel=7, data=[71, 0]),
   midi.NoteOnEvent(tick=20, channel=7, data=[71, 92]),
   midi.NoteOnEvent(tick=0, channel=7, data=[83, 92]),
   midi.NoteOnEvent(tick=100, channel=7, data=[83, 0]),
   midi.NoteOnEvent(tick=0, channel=7, data=[71, 0]),
   midi.NoteOnEvent(tick=20, channel=7, data=[79, 92]),
   midi.NoteOnEvent(tick=100, channel=7, data=[79, 0]),
   midi.NoteOnEvent(tick=20, channel=7, data=[79, 92]),
   midi.NoteOnEvent(tick=100, channel=7, data=[79, 0]),
   midi.NoteOnEvent(tick=20, channel=7, data=[79, 92]),
   midi.NoteOnEvent(tick=210, channel=7, data=[79, 0]),
   midi.NoteOnEvent(tick=30, channel=7, data=[79, 92]),
   midi.NoteOnEvent(tick=100, channel=7, data=[79, 0]),
   midi.NoteOnEvent(tick=20, channel=7, data=[79, 92]),
   midi.NoteOnEvent(tick=100, channel=7, data=[79, 0]),
   midi.NoteOnEvent(tick=20, channel=7, data=[79, 92]),
   midi.NoteOnEvent(tick=100, channel=7, data=[79, 0]),
   midi.NoteOnEvent(tick=20, channel=7, data=[79, 92]),
   midi.NoteOnEvent(tick=100, channel=7, data=[79, 0]),
   midi.NoteOnEvent(tick=20, channel=7, data=[80, 92]),
   midi.NoteOnEvent(tick=100, channel=7, data=[80, 0]),
   midi.NoteOnEvent(tick=20, channel=7, data=[81, 92]),
   midi.NoteOnEvent(tick=58, channel=7, data=[81, 0]),
   midi.NoteOnEvent(tick=2, channel=7, data=[81, 92]),
   midi.NoteOnEvent(tick=58, channel=7, data=[81, 0]),
   midi.NoteOnEvent(tick=2, channel=7, data=[83, 92]),
   midi.NoteOnEvent(tick=58, channel=7, data=[83, 0]),
   midi.NoteOnEvent(tick=2, channel=7, data=[83, 92]),
   midi.NoteOnEvent(tick=58, channel=7, data=[83, 0]),
   midi.NoteOnEvent(tick=2, channel=7, data=[84, 92]),
   midi.NoteOnEvent(tick=58, channel=7, data=[84, 0]),
   midi.NoteOnEvent(tick=2, channel=7, data=[84, 92]),
   midi.NoteOnEvent(tick=58, channel=7, data=[84, 0]),
   midi.NoteOnEvent(tick=2, channel=7, data=[85, 92]),
   midi.NoteOnEvent(tick=58, channel=7, data=[85, 0]),
   midi.NoteOnEvent(tick=2, channel=7, data=[85, 92]),
   midi.NoteOnEvent(tick=58, channel=7, data=[85, 0]),
   midi.NoteOnEvent(tick=2, channel=7, data=[86, 92]),
   midi.NoteOnEvent(tick=58, channel=7, data=[86, 0]),
   midi.NoteOnEvent(tick=2, channel=7, data=[86, 92]),
   midi.NoteOnEvent(tick=58, channel=7, data=[86, 0]),
   midi.NoteOnEvent(tick=2, channel=7, data=[83, 92]),
   midi.NoteOnEvent(tick=58, channel=7, data=[83, 0]),
   midi.NoteOnEvent(tick=2, channel=7, data=[83, 92]),
   midi.NoteOnEvent(tick=58, channel=7, data=[83, 0]),
   midi.NoteOnEvent(tick=2, channel=7, data=[84, 92]),
   midi.NoteOnEvent(tick=58, channel=7, data=[84, 0]),
   midi.NoteOnEvent(tick=2, channel=7, data=[84, 92]),
   midi.NoteOnEvent(tick=58, channel=7, data=[84, 0]),
   midi.NoteOnEvent(tick=2, channel=7, data=[81, 92]),
   midi.NoteOnEvent(tick=58, channel=7, data=[81, 0]),
   midi.NoteOnEvent(tick=2, channel=7, data=[81, 92]),
   midi.NoteOnEvent(tick=58, channel=7, data=[81, 0]),
   midi.NoteOnEvent(tick=2, channel=7, data=[83, 92]),
   midi.NoteOnEvent(tick=58, channel=7, data=[83, 0]),
   midi.NoteOnEvent(tick=2, channel=7, data=[83, 92]),
   midi.NoteOnEvent(tick=58, channel=7, data=[83, 0]),
   midi.NoteOnEvent(tick=2, channel=7, data=[83, 92]),
   midi.NoteOnEvent(tick=58, channel=7, data=[83, 0]),
   midi.NoteOnEvent(tick=2, channel=7, data=[83, 92]),
   midi.NoteOnEvent(tick=58, channel=7, data=[83, 0]),
   midi.NoteOnEvent(tick=2, channel=7, data=[83, 92]),
   midi.NoteOnEvent(tick=58, channel=7, data=[83, 0]),
   midi.NoteOnEvent(tick=2, channel=7, data=[83, 92]),
   midi.NoteOnEvent(tick=58, channel=7, data=[83, 0]),
   midi.NoteOnEvent(tick=2, channel=7, data=[83, 92]),
   midi.NoteOnEvent(tick=58, channel=7, data=[83, 0]),
   midi.NoteOnEvent(tick=2, channel=7, data=[83, 92]),
   midi.NoteOnEvent(tick=58, channel=7, data=[83, 0]),
   midi.NoteOnEvent(tick=2, channel=7, data=[83, 92]),
   midi.NoteOnEvent(tick=58, channel=7, data=[83, 0]),
   midi.NoteOnEvent(tick=2, channel=7, data=[83, 92]),
   midi.NoteOnEvent(tick=58, channel=7, data=[83, 0]),
   midi.NoteOnEvent(tick=2, channel=7, data=[83, 92]),
   midi.NoteOnEvent(tick=58, channel=7, data=[83, 0]),
   midi.NoteOnEvent(tick=2, channel=7, data=[83, 92]),
   midi.NoteOnEvent(tick=58, channel=7, data=[83, 0]),
   midi.NoteOnEvent(tick=2, channel=7, data=[83, 92]),
   midi.NoteOnEvent(tick=58, channel=7, data=[83, 0]),
   midi.NoteOnEvent(tick=2, channel=7, data=[83, 92]),
   midi.NoteOnEvent(tick=58, channel=7, data=[83, 0]),
   midi.NoteOnEvent(tick=2, channel=7, data=[83, 92]),
   midi.NoteOnEvent(tick=58, channel=7, data=[83, 0]),
   midi.NoteOnEvent(tick=2, channel=7, data=[83, 92]),
   midi.NoteOnEvent(tick=58, channel=7, data=[83, 0]),
   midi.NoteOnEvent(tick=2, channel=7, data=[81, 92]),
   midi.NoteOnEvent(tick=58, channel=7, data=[81, 0]),
   midi.NoteOnEvent(tick=2, channel=7, data=[81, 92]),
   midi.NoteOnEvent(tick=58, channel=7, data=[81, 0]),
   midi.NoteOnEvent(tick=2, channel=7, data=[81, 92]),
   midi.NoteOnEvent(tick=58, channel=7, data=[81, 0]),
   midi.NoteOnEvent(tick=2, channel=7, data=[81, 92]),
   midi.NoteOnEvent(tick=58, channel=7, data=[81, 0]),
   midi.NoteOnEvent(tick=2, channel=7, data=[86, 92]),
   midi.NoteOnEvent(tick=58, channel=7, data=[86, 0]),
   midi.NoteOnEvent(tick=2, channel=7, data=[86, 92]),
   midi.NoteOnEvent(tick=58, channel=7, data=[86, 0]),
   midi.NoteOnEvent(tick=2, channel=7, data=[86, 92]),
   midi.NoteOnEvent(tick=58, channel=7, data=[86, 0]),
   midi.NoteOnEvent(tick=2, channel=7, data=[86, 92]),
   midi.NoteOnEvent(tick=58, channel=7, data=[86, 0]),
   midi.NoteOnEvent(tick=2, channel=7, data=[83, 92]),
   midi.NoteOnEvent(tick=58, channel=7, data=[83, 0]),
   midi.NoteOnEvent(tick=2, channel=7, data=[83, 92]),
   midi.NoteOnEvent(tick=58, channel=7, data=[83, 0]),
   midi.NoteOnEvent(tick=2, channel=7, data=[83, 92]),
   midi.NoteOnEvent(tick=58, channel=7, data=[83, 0]),
   midi.NoteOnEvent(tick=2, channel=7, data=[83, 92]),
   midi.NoteOnEvent(tick=58, channel=7, data=[83, 0]),
   midi.NoteOnEvent(tick=2, channel=7, data=[83, 92]),
   midi.NoteOnEvent(tick=58, channel=7, data=[83, 0]),
   midi.NoteOnEvent(tick=2, channel=7, data=[83, 92]),
   midi.NoteOnEvent(tick=58, channel=7, data=[83, 0]),
   midi.NoteOnEvent(tick=2, channel=7, data=[83, 92]),
   midi.NoteOnEvent(tick=58, channel=7, data=[83, 0]),
   midi.NoteOnEvent(tick=2, channel=7, data=[83, 92]),
   midi.NoteOnEvent(tick=58, channel=7, data=[83, 0]),
   midi.NoteOnEvent(tick=2, channel=7, data=[83, 92]),
   midi.NoteOnEvent(tick=58, channel=7, data=[83, 0]),
   midi.NoteOnEvent(tick=2, channel=7, data=[83, 92]),
   midi.NoteOnEvent(tick=58, channel=7, data=[83, 0]),
   midi.NoteOnEvent(tick=2, channel=7, data=[83, 92]),
   midi.NoteOnEvent(tick=58, channel=7, data=[83, 0]),
   midi.NoteOnEvent(tick=2, channel=7, data=[83, 92]),
   midi.NoteOnEvent(tick=58, channel=7, data=[83, 0]),
   midi.NoteOnEvent(tick=2, channel=7, data=[83, 92]),
   midi.NoteOnEvent(tick=58, channel=7, data=[83, 0]),
   midi.NoteOnEvent(tick=2, channel=7, data=[83, 92]),
   midi.NoteOnEvent(tick=58, channel=7, data=[83, 0]),
   midi.NoteOnEvent(tick=2, channel=7, data=[83, 92]),
   midi.NoteOnEvent(tick=58, channel=7, data=[83, 0]),
   midi.NoteOnEvent(tick=2, channel=7, data=[83, 92]),
   midi.NoteOnEvent(tick=58, channel=7, data=[83, 0]),
   midi.NoteOnEvent(tick=2, channel=7, data=[81, 92]),
   midi.NoteOnEvent(tick=58, channel=7, data=[81, 0]),
   midi.NoteOnEvent(tick=2, channel=7, data=[81, 92]),
   midi.NoteOnEvent(tick=58, channel=7, data=[81, 0]),
   midi.NoteOnEvent(tick=2, channel=7, data=[81, 92]),
   midi.NoteOnEvent(tick=58, channel=7, data=[81, 0]),
   midi.NoteOnEvent(tick=2, channel=7, data=[81, 92]),
   midi.NoteOnEvent(tick=58, channel=7, data=[81, 0]),
   midi.NoteOnEvent(tick=2, channel=7, data=[86, 92]),
   midi.NoteOnEvent(tick=58, channel=7, data=[86, 0]),
   midi.NoteOnEvent(tick=2, channel=7, data=[86, 92]),
   midi.NoteOnEvent(tick=58, channel=7, data=[86, 0]),
   midi.NoteOnEvent(tick=2, channel=7, data=[86, 92]),
   midi.NoteOnEvent(tick=58, channel=7, data=[86, 0]),
   midi.NoteOnEvent(tick=2, channel=7, data=[86, 92]),
   midi.NoteOnEvent(tick=58, channel=7, data=[86, 0]),
   midi.NoteOnEvent(tick=2, channel=7, data=[79, 92]),
   midi.NoteOnEvent(tick=100, channel=7, data=[79, 0]),
   midi.NoteOnEvent(tick=20, channel=7, data=[62, 60]),
   midi.NoteOnEvent(tick=100, channel=7, data=[62, 0]),
   midi.NoteOnEvent(tick=20, channel=7, data=[62, 60]),
   midi.NoteOnEvent(tick=100, channel=7, data=[62, 0]),
   midi.NoteOnEvent(tick=20, channel=7, data=[62, 60]),
   midi.NoteOnEvent(tick=100, channel=7, data=[62, 0]),
   midi.NoteOnEvent(tick=140, channel=7, data=[62, 60]),
   midi.NoteOnEvent(tick=100, channel=7, data=[62, 0]),
   midi.NoteOnEvent(tick=20, channel=7, data=[62, 60]),
   midi.NoteOnEvent(tick=100, channel=7, data=[62, 0]),
   midi.NoteOnEvent(tick=20, channel=7, data=[62, 60]),
   midi.NoteOnEvent(tick=100, channel=7, data=[62, 0]),
   midi.NoteOnEvent(tick=140, channel=7, data=[64, 60]),
   midi.NoteOnEvent(tick=100, channel=7, data=[64, 0]),
   midi.NoteOnEvent(tick=20, channel=7, data=[64, 60]),
   midi.NoteOnEvent(tick=100, channel=7, data=[64, 0]),
   midi.NoteOnEvent(tick=20, channel=7, data=[64, 60]),
   midi.NoteOnEvent(tick=100, channel=7, data=[64, 0]),
   midi.NoteOnEvent(tick=140, channel=7, data=[64, 60]),
   midi.NoteOnEvent(tick=100, channel=7, data=[64, 0]),
   midi.NoteOnEvent(tick=20, channel=7, data=[64, 60]),
   midi.NoteOnEvent(tick=100, channel=7, data=[64, 0]),
   midi.NoteOnEvent(tick=20, channel=7, data=[64, 60]),
   midi.NoteOnEvent(tick=100, channel=7, data=[64, 0]),
   midi.NoteOnEvent(tick=140, channel=7, data=[62, 60]),
   midi.NoteOnEvent(tick=100, channel=7, data=[62, 0]),
   midi.NoteOnEvent(tick=20, channel=7, data=[62, 60]),
   midi.NoteOnEvent(tick=100, channel=7, data=[62, 0]),
   midi.NoteOnEvent(tick=20, channel=7, data=[62, 60]),
   midi.NoteOnEvent(tick=100, channel=7, data=[62, 0]),
   midi.NoteOnEvent(tick=140, channel=7, data=[62, 60]),
   midi.NoteOnEvent(tick=100, channel=7, data=[62, 0]),
   midi.NoteOnEvent(tick=20, channel=7, data=[62, 60]),
   midi.NoteOnEvent(tick=100, channel=7, data=[62, 0]),
   midi.NoteOnEvent(tick=20, channel=7, data=[62, 60]),
   midi.NoteOnEvent(tick=100, channel=7, data=[62, 0]),
   midi.NoteOnEvent(tick=20, channel=7, data=[62, 60]),
   midi.NoteOnEvent(tick=1060, channel=7, data=[62, 0]),
   midi.NoteOnEvent(tick=20, channel=7, data=[62, 60]),
   midi.NoteOnEvent(tick=100, channel=7, data=[62, 0]),
   midi.NoteOnEvent(tick=20, channel=7, data=[62, 60]),
   midi.NoteOnEvent(tick=100, channel=7, data=[62, 0]),
   midi.NoteOnEvent(tick=20, channel=7, data=[62, 60]),
   midi.NoteOnEvent(tick=100, channel=7, data=[62, 0]),
   midi.NoteOnEvent(tick=140, channel=7, data=[62, 60]),
   midi.NoteOnEvent(tick=100, channel=7, data=[62, 0]),
   midi.NoteOnEvent(tick=20, channel=7, data=[62, 60]),
   midi.NoteOnEvent(tick=100, channel=7, data=[62, 0]),
   midi.NoteOnEvent(tick=20, channel=7, data=[62, 60]),
   midi.NoteOnEvent(tick=100, channel=7, data=[62, 0]),
   midi.NoteOnEvent(tick=140, channel=7, data=[64, 60]),
   midi.NoteOnEvent(tick=100, channel=7, data=[64, 0]),
   midi.NoteOnEvent(tick=20, channel=7, data=[64, 60]),
   midi.NoteOnEvent(tick=100, channel=7, data=[64, 0]),
   midi.NoteOnEvent(tick=20, channel=7, data=[64, 60]),
   midi.NoteOnEvent(tick=100, channel=7, data=[64, 0]),
   midi.NoteOnEvent(tick=140, channel=7, data=[64, 60]),
   midi.NoteOnEvent(tick=100, channel=7, data=[64, 0]),
   midi.NoteOnEvent(tick=20, channel=7, data=[64, 60]),
   midi.NoteOnEvent(tick=100, channel=7, data=[64, 0]),
   midi.NoteOnEvent(tick=20, channel=7, data=[64, 60]),
   midi.NoteOnEvent(tick=100, channel=7, data=[64, 0]),
   midi.NoteOnEvent(tick=140, channel=7, data=[62, 60]),
   midi.NoteOnEvent(tick=100, channel=7, data=[62, 0]),
   midi.NoteOnEvent(tick=20, channel=7, data=[62, 60]),
   midi.NoteOnEvent(tick=100, channel=7, data=[62, 0]),
   midi.NoteOnEvent(tick=20, channel=7, data=[62, 60]),
   midi.NoteOnEvent(tick=100, channel=7, data=[62, 0]),
   midi.NoteOnEvent(tick=140, channel=7, data=[62, 60]),
   midi.NoteOnEvent(tick=100, channel=7, data=[62, 0]),
   midi.NoteOnEvent(tick=20, channel=7, data=[62, 60]),
   midi.NoteOnEvent(tick=100, channel=7, data=[62, 0]),
   midi.NoteOnEvent(tick=20, channel=7, data=[62, 60]),
   midi.NoteOnEvent(tick=100, channel=7, data=[62, 0]),
   midi.NoteOnEvent(tick=20, channel=7, data=[62, 60]),
   midi.NoteOnEvent(tick=930, channel=7, data=[62, 0]),
   midi.NoteOnEvent(tick=90, channel=7, data=[67, 60]),
   midi.NoteOnEvent(tick=58, channel=7, data=[67, 0]),
   midi.NoteOnEvent(tick=2, channel=7, data=[67, 60]),
   midi.NoteOnEvent(tick=58, channel=7, data=[67, 0]),
   midi.NoteOnEvent(tick=2, channel=7, data=[67, 60]),
   midi.NoteOnEvent(tick=58, channel=7, data=[67, 0]),
   midi.NoteOnEvent(tick=2, channel=7, data=[67, 60]),
   midi.NoteOnEvent(tick=58, channel=7, data=[67, 0]),
   midi.NoteOnEvent(tick=2, channel=7, data=[67, 60]),
   midi.NoteOnEvent(tick=58, channel=7, data=[67, 0]),
   midi.NoteOnEvent(tick=2, channel=7, data=[67, 60]),
   midi.NoteOnEvent(tick=58, channel=7, data=[67, 0]),
   midi.NoteOnEvent(tick=2, channel=7, data=[67, 60]),
   midi.NoteOnEvent(tick=58, channel=7, data=[67, 0]),
   midi.NoteOnEvent(tick=2, channel=7, data=[71, 60]),
   midi.NoteOnEvent(tick=15, channel=7, data=[71, 0]),
   midi.NoteOnEvent(tick=0, channel=7, data=[69, 60]),
   midi.NoteOnEvent(tick=45, channel=7, data=[69, 0]),
   midi.NoteOnEvent(tick=0, channel=7, data=[67, 60]),
   midi.NoteOnEvent(tick=58, channel=7, data=[67, 0]),
   midi.NoteOnEvent(tick=2, channel=7, data=[67, 60]),
   midi.NoteOnEvent(tick=20, channel=7, data=[67, 0]),
   midi.NoteOnEvent(tick=40, channel=7, data=[67, 60]),
   midi.NoteOnEvent(tick=20, channel=7, data=[67, 0]),
   midi.NoteOnEvent(tick=40, channel=7, data=[66, 60]),
   midi.NoteOnEvent(tick=60, channel=7, data=[66, 0]),
   midi.NoteOnEvent(tick=0, channel=7, data=[67, 60]),
   midi.NoteOnEvent(tick=58, channel=7, data=[67, 0]),
   midi.NoteOnEvent(tick=2, channel=7, data=[66, 60]),
   midi.NoteOnEvent(tick=60, channel=7, data=[66, 0]),
   midi.NoteOnEvent(tick=0, channel=7, data=[67, 60]),
   midi.NoteOnEvent(tick=58, channel=7, data=[67, 0]),
   midi.NoteOnEvent(tick=2, channel=7, data=[66, 60]),
   midi.NoteOnEvent(tick=930, channel=7, data=[66, 0]),
   midi.NoteOnEvent(tick=90, channel=7, data=[77, 60]),
   midi.NoteOnEvent(tick=58, channel=7, data=[77, 0]),
   midi.NoteOnEvent(tick=2, channel=7, data=[77, 60]),
   midi.NoteOnEvent(tick=58, channel=7, data=[77, 0]),
   midi.NoteOnEvent(tick=2, channel=7, data=[77, 60]),
   midi.NoteOnEvent(tick=58, channel=7, data=[77, 0]),
   midi.NoteOnEvent(tick=2, channel=7, data=[77, 60]),
   midi.NoteOnEvent(tick=58, channel=7, data=[77, 0]),
   midi.NoteOnEvent(tick=2, channel=7, data=[77, 60]),
   midi.NoteOnEvent(tick=58, channel=7, data=[77, 0]),
   midi.NoteOnEvent(tick=2, channel=7, data=[77, 60]),
   midi.NoteOnEvent(tick=58, channel=7, data=[77, 0]),
   midi.NoteOnEvent(tick=2, channel=7, data=[77, 60]),
   midi.NoteOnEvent(tick=58, channel=7, data=[77, 0]),
   midi.NoteOnEvent(tick=2, channel=7, data=[81, 60]),
   midi.NoteOnEvent(tick=15, channel=7, data=[81, 0]),
   midi.NoteOnEvent(tick=0, channel=7, data=[79, 60]),
   midi.NoteOnEvent(tick=45, channel=7, data=[79, 0]),
   midi.NoteOnEvent(tick=0, channel=7, data=[77, 60]),
   midi.NoteOnEvent(tick=58, channel=7, data=[77, 0]),
   midi.NoteOnEvent(tick=2, channel=7, data=[77, 60]),
   midi.NoteOnEvent(tick=20, channel=7, data=[77, 0]),
   midi.NoteOnEvent(tick=40, channel=7, data=[77, 60]),
   midi.NoteOnEvent(tick=20, channel=7, data=[77, 0]),
   midi.NoteOnEvent(tick=40, channel=7, data=[76, 60]),
   midi.NoteOnEvent(tick=60, channel=7, data=[76, 0]),
   midi.NoteOnEvent(tick=0, channel=7, data=[77, 60]),
   midi.NoteOnEvent(tick=58, channel=7, data=[77, 0]),
   midi.NoteOnEvent(tick=2, channel=7, data=[76, 60]),
   midi.NoteOnEvent(tick=60, channel=7, data=[76, 0]),
   midi.NoteOnEvent(tick=0, channel=7, data=[77, 60]),
   midi.NoteOnEvent(tick=58, channel=7, data=[77, 0]),
   midi.NoteOnEvent(tick=2, channel=7, data=[76, 92]),
   midi.NoteOnEvent(tick=100, channel=7, data=[76, 0]),
   midi.NoteOnEvent(tick=20, channel=7, data=[88, 92]),
   midi.NoteOnEvent(tick=210, channel=7, data=[88, 0]),
   midi.NoteOnEvent(tick=30, channel=7, data=[88, 92]),
   midi.NoteOnEvent(tick=100, channel=7, data=[88, 0]),
   midi.NoteOnEvent(tick=20, channel=7, data=[88, 92]),
   midi.NoteOnEvent(tick=100, channel=7, data=[88, 0]),
   midi.NoteOnEvent(tick=20, channel=7, data=[88, 92]),
   midi.NoteOnEvent(tick=100, channel=7, data=[88, 0]),
   midi.NoteOnEvent(tick=20, channel=7, data=[88, 92]),
   midi.NoteOnEvent(tick=100, channel=7, data=[88, 0]),
   midi.NoteOnEvent(tick=20, channel=7, data=[88, 92]),
   midi.NoteOnEvent(tick=100, channel=7, data=[88, 0]),
   midi.NoteOnEvent(tick=20, channel=7, data=[88, 92]),
   midi.NoteOnEvent(tick=100, channel=7, data=[88, 0]),
   midi.NoteOnEvent(tick=20, channel=7, data=[88, 92]),
   midi.NoteOnEvent(tick=210, channel=7, data=[88, 0]),
   midi.NoteOnEvent(tick=30, channel=7, data=[88, 92]),
   midi.NoteOnEvent(tick=100, channel=7, data=[88, 0]),
   midi.NoteOnEvent(tick=20, channel=7, data=[88, 92]),
   midi.NoteOnEvent(tick=100, channel=7, data=[88, 0]),
   midi.NoteOnEvent(tick=20, channel=7, data=[88, 92]),
   midi.NoteOnEvent(tick=100, channel=7, data=[88, 0]),
   midi.NoteOnEvent(tick=20, channel=7, data=[88, 92]),
   midi.NoteOnEvent(tick=100, channel=7, data=[88, 0]),
   midi.NoteOnEvent(tick=20, channel=7, data=[88, 92]),
   midi.NoteOnEvent(tick=100, channel=7, data=[88, 0]),
   midi.NoteOnEvent(tick=20, channel=7, data=[88, 92]),
   midi.NoteOnEvent(tick=100, channel=7, data=[88, 0]),
   midi.NoteOnEvent(tick=860, channel=7, data=[81, 60]),
   midi.NoteOnEvent(tick=60, channel=7, data=[81, 0]),
   midi.NoteOnEvent(tick=0, channel=7, data=[83, 60]),
   midi.NoteOnEvent(tick=60, channel=7, data=[83, 0]),
   midi.NoteOnEvent(tick=0, channel=7, data=[84, 60]),
   midi.NoteOnEvent(tick=60, channel=7, data=[84, 0]),
   midi.NoteOnEvent(tick=0, channel=7, data=[83, 60]),
   midi.NoteOnEvent(tick=60, channel=7, data=[83, 0]),
   midi.NoteOnEvent(tick=0, channel=7, data=[81, 60]),
   midi.NoteOnEvent(tick=100, channel=7, data=[81, 0]),
   midi.NoteOnEvent(tick=140, channel=7, data=[83, 60]),
   midi.NoteOnEvent(tick=60, channel=7, data=[83, 0]),
   midi.NoteOnEvent(tick=0, channel=7, data=[84, 60]),
   midi.NoteOnEvent(tick=60, channel=7, data=[84, 0]),
   midi.NoteOnEvent(tick=0, channel=7, data=[86, 60]),
   midi.NoteOnEvent(tick=60, channel=7, data=[86, 0]),
   midi.NoteOnEvent(tick=0, channel=7, data=[84, 60]),
   midi.NoteOnEvent(tick=60, channel=7, data=[84, 0]),
   midi.NoteOnEvent(tick=0, channel=7, data=[83, 60]),
   midi.NoteOnEvent(tick=60, channel=7, data=[83, 0]),
   midi.NoteOnEvent(tick=0, channel=7, data=[84, 60]),
   midi.NoteOnEvent(tick=60, channel=7, data=[84, 0]),
   midi.NoteOnEvent(tick=0, channel=7, data=[83, 60]),
   midi.NoteOnEvent(tick=60, channel=7, data=[83, 0]),
   midi.NoteOnEvent(tick=0, channel=7, data=[81, 60]),
   midi.NoteOnEvent(tick=60, channel=7, data=[81, 0]),
   midi.NoteOnEvent(tick=0, channel=7, data=[80, 60]),
   midi.NoteOnEvent(tick=60, channel=7, data=[80, 0]),
   midi.NoteOnEvent(tick=0, channel=7, data=[81, 60]),
   midi.NoteOnEvent(tick=60, channel=7, data=[81, 0]),
   midi.NoteOnEvent(tick=0, channel=7, data=[83, 60]),
   midi.NoteOnEvent(tick=60, channel=7, data=[83, 0]),
   midi.NoteOnEvent(tick=0, channel=7, data=[81, 60]),
   midi.NoteOnEvent(tick=60, channel=7, data=[81, 0]),
   midi.NoteOnEvent(tick=0, channel=7, data=[80, 60]),
   midi.NoteOnEvent(tick=100, channel=7, data=[80, 0]),
   midi.NoteOnEvent(tick=140, channel=7, data=[81, 60]),
   midi.NoteOnEvent(tick=60, channel=7, data=[81, 0]),
   midi.NoteOnEvent(tick=0, channel=7, data=[83, 60]),
   midi.NoteOnEvent(tick=60, channel=7, data=[83, 0]),
   midi.NoteOnEvent(tick=0, channel=7, data=[84, 60]),
   midi.NoteOnEvent(tick=60, channel=7, data=[84, 0]),
   midi.NoteOnEvent(tick=0, channel=7, data=[83, 60]),
   midi.NoteOnEvent(tick=60, channel=7, data=[83, 0]),
   midi.NoteOnEvent(tick=0, channel=7, data=[81, 60]),
   midi.NoteOnEvent(tick=60, channel=7, data=[81, 0]),
   midi.NoteOnEvent(tick=0, channel=7, data=[83, 60]),
   midi.NoteOnEvent(tick=60, channel=7, data=[83, 0]),
   midi.NoteOnEvent(tick=0, channel=7, data=[81, 60]),
   midi.NoteOnEvent(tick=60, channel=7, data=[81, 0]),
   midi.NoteOnEvent(tick=0, channel=7, data=[79, 60]),
   midi.NoteOnEvent(tick=60, channel=7, data=[79, 0]),
   midi.NoteOnEvent(tick=0, channel=7, data=[78, 60]),
   midi.NoteOnEvent(tick=60, channel=7, data=[78, 0]),
   midi.NoteOnEvent(tick=0, channel=7, data=[80, 60]),
   midi.NoteOnEvent(tick=60, channel=7, data=[80, 0]),
   midi.NoteOnEvent(tick=0, channel=7, data=[81, 60]),
   midi.NoteOnEvent(tick=60, channel=7, data=[81, 0]),
   midi.NoteOnEvent(tick=0, channel=7, data=[80, 60]),
   midi.NoteOnEvent(tick=60, channel=7, data=[80, 0]),
   midi.NoteOnEvent(tick=0, channel=7, data=[78, 60]),
   midi.NoteOnEvent(tick=100, channel=7, data=[78, 0]),
   midi.NoteOnEvent(tick=140, channel=7, data=[80, 60]),
   midi.NoteOnEvent(tick=60, channel=7, data=[80, 0]),
   midi.NoteOnEvent(tick=0, channel=7, data=[81, 60]),
   midi.NoteOnEvent(tick=60, channel=7, data=[81, 0]),
   midi.NoteOnEvent(tick=0, channel=7, data=[83, 60]),
   midi.NoteOnEvent(tick=60, channel=7, data=[83, 0]),
   midi.NoteOnEvent(tick=0, channel=7, data=[81, 60]),
   midi.NoteOnEvent(tick=60, channel=7, data=[81, 0]),
   midi.NoteOnEvent(tick=0, channel=7, data=[80, 60]),
   midi.NoteOnEvent(tick=60, channel=7, data=[80, 0]),
   midi.NoteOnEvent(tick=0, channel=7, data=[76, 60]),
   midi.NoteOnEvent(tick=60, channel=7, data=[76, 0]),
   midi.NoteOnEvent(tick=0, channel=7, data=[78, 60]),
   midi.NoteOnEvent(tick=60, channel=7, data=[78, 0]),
   midi.NoteOnEvent(tick=0, channel=7, data=[80, 60]),
   midi.NoteOnEvent(tick=58, channel=7, data=[80, 0]),
   midi.NoteOnEvent(tick=2, channel=7, data=[81, 92]),
   midi.NoteOnEvent(tick=100, channel=7, data=[81, 0]),
   midi.NoteOnEvent(tick=20, channel=7, data=[69, 92]),
   midi.NoteOnEvent(tick=0, channel=7, data=[81, 92]),
   midi.NoteOnEvent(tick=210, channel=7, data=[81, 0]),
   midi.NoteOnEvent(tick=0, channel=7, data=[69, 0]),
   midi.NoteOnEvent(tick=30, channel=7, data=[69, 92]),
   midi.NoteOnEvent(tick=0, channel=7, data=[81, 92]),
   midi.NoteOnEvent(tick=100, channel=7, data=[81, 0]),
   midi.NoteOnEvent(tick=0, channel=7, data=[69, 0]),
   midi.NoteOnEvent(tick=20, channel=7, data=[69, 92]),
   midi.NoteOnEvent(tick=0, channel=7, data=[81, 92]),
   midi.NoteOnEvent(tick=100, channel=7, data=[81, 0]),
   midi.NoteOnEvent(tick=0, channel=7, data=[69, 0]),
   midi.NoteOnEvent(tick=20, channel=7, data=[69, 92]),
   midi.NoteOnEvent(tick=0, channel=7, data=[81, 92]),
   midi.NoteOnEvent(tick=100, channel=7, data=[81, 0]),
   midi.NoteOnEvent(tick=0, channel=7, data=[69, 0]),
   midi.NoteOnEvent(tick=20, channel=7, data=[69, 92]),
   midi.NoteOnEvent(tick=0, channel=7, data=[81, 92]),
   midi.NoteOnEvent(tick=100, channel=7, data=[81, 0]),
   midi.NoteOnEvent(tick=0, channel=7, data=[69, 0]),
   midi.NoteOnEvent(tick=20, channel=7, data=[69, 92]),
   midi.NoteOnEvent(tick=0, channel=7, data=[81, 92]),
   midi.NoteOnEvent(tick=100, channel=7, data=[81, 0]),
   midi.NoteOnEvent(tick=0, channel=7, data=[69, 0]),
   midi.NoteOnEvent(tick=20, channel=7, data=[81, 92]),
   midi.NoteOnEvent(tick=58, channel=7, data=[81, 0]),
   midi.NoteOnEvent(tick=2, channel=7, data=[69, 60]),
   midi.NoteOnEvent(tick=58, channel=7, data=[69, 0]),
   midi.NoteOnEvent(tick=2, channel=7, data=[69, 60]),
   midi.NoteOnEvent(tick=58, channel=7, data=[69, 0]),
   midi.NoteOnEvent(tick=2, channel=7, data=[69, 60]),
   midi.NoteOnEvent(tick=58, channel=7, data=[69, 0]),
   midi.NoteOnEvent(tick=2, channel=7, data=[69, 60]),
   midi.NoteOnEvent(tick=58, channel=7, data=[69, 0]),
   midi.NoteOnEvent(tick=2, channel=7, data=[69, 60]),
   midi.NoteOnEvent(tick=58, channel=7, data=[69, 0]),
   midi.NoteOnEvent(tick=2, channel=7, data=[69, 60]),
   midi.NoteOnEvent(tick=58, channel=7, data=[69, 0]),
   midi.NoteOnEvent(tick=2, channel=7, data=[69, 60]),
   midi.NoteOnEvent(tick=58, channel=7, data=[69, 0]),
   midi.NoteOnEvent(tick=2, channel=7, data=[72, 60]),
   midi.NoteOnEvent(tick=15, channel=7, data=[72, 0]),
   midi.NoteOnEvent(tick=0, channel=7, data=[71, 60]),
   midi.NoteOnEvent(tick=45, channel=7, data=[71, 0]),
   midi.NoteOnEvent(tick=0, channel=7, data=[69, 60]),
   midi.NoteOnEvent(tick=58, channel=7, data=[69, 0]),
   midi.NoteOnEvent(tick=2, channel=7, data=[69, 60]),
   midi.NoteOnEvent(tick=20, channel=7, data=[69, 0]),
   midi.NoteOnEvent(tick=40, channel=7, data=[69, 60]),
   midi.NoteOnEvent(tick=20, channel=7, data=[69, 0]),
   midi.NoteOnEvent(tick=40, channel=7, data=[68, 60]),
   midi.NoteOnEvent(tick=60, channel=7, data=[68, 0]),
   midi.NoteOnEvent(tick=0, channel=7, data=[69, 60]),
   midi.NoteOnEvent(tick=58, channel=7, data=[69, 0]),
   midi.NoteOnEvent(tick=2, channel=7, data=[68, 60]),
   midi.NoteOnEvent(tick=60, channel=7, data=[68, 0]),
   midi.NoteOnEvent(tick=0, channel=7, data=[69, 60]),
   midi.NoteOnEvent(tick=58, channel=7, data=[69, 0]),
   midi.NoteOnEvent(tick=2, channel=7, data=[68, 60]),
   midi.NoteOnEvent(tick=930, channel=7, data=[68, 0]),
   midi.NoteOnEvent(tick=90, channel=7, data=[79, 60]),
   midi.NoteOnEvent(tick=58, channel=7, data=[79, 0]),
   midi.NoteOnEvent(tick=2, channel=7, data=[79, 60]),
   midi.NoteOnEvent(tick=58, channel=7, data=[79, 0]),
   midi.NoteOnEvent(tick=2, channel=7, data=[79, 60]),
   midi.NoteOnEvent(tick=58, channel=7, data=[79, 0]),
   midi.NoteOnEvent(tick=2, channel=7, data=[79, 60]),
   midi.NoteOnEvent(tick=58, channel=7, data=[79, 0]),
   midi.NoteOnEvent(tick=2, channel=7, data=[79, 60]),
   midi.NoteOnEvent(tick=58, channel=7, data=[79, 0]),
   midi.NoteOnEvent(tick=2, channel=7, data=[79, 60]),
   midi.NoteOnEvent(tick=58, channel=7, data=[79, 0]),
   midi.NoteOnEvent(tick=2, channel=7, data=[79, 60]),
   midi.NoteOnEvent(tick=58, channel=7, data=[79, 0]),
   midi.NoteOnEvent(tick=2, channel=7, data=[82, 60]),
   midi.NoteOnEvent(tick=15, channel=7, data=[82, 0]),
   midi.NoteOnEvent(tick=0, channel=7, data=[81, 60]),
   midi.NoteOnEvent(tick=45, channel=7, data=[81, 0]),
   midi.NoteOnEvent(tick=0, channel=7, data=[79, 60]),
   midi.NoteOnEvent(tick=58, channel=7, data=[79, 0]),
   midi.NoteOnEvent(tick=2, channel=7, data=[79, 60]),
   midi.NoteOnEvent(tick=20, channel=7, data=[79, 0]),
   midi.NoteOnEvent(tick=40, channel=7, data=[79, 60]),
   midi.NoteOnEvent(tick=20, channel=7, data=[79, 0]),
   midi.NoteOnEvent(tick=40, channel=7, data=[78, 60]),
   midi.NoteOnEvent(tick=60, channel=7, data=[78, 0]),
   midi.NoteOnEvent(tick=0, channel=7, data=[79, 60]),
   midi.NoteOnEvent(tick=58, channel=7, data=[79, 0]),
   midi.NoteOnEvent(tick=2, channel=7, data=[78, 60]),
   midi.NoteOnEvent(tick=60, channel=7, data=[78, 0]),
   midi.NoteOnEvent(tick=0, channel=7, data=[79, 60]),
   midi.NoteOnEvent(tick=58, channel=7, data=[79, 0]),
   midi.NoteOnEvent(tick=2, channel=7, data=[78, 92]),
   midi.NoteOnEvent(tick=100, channel=7, data=[78, 0]),
   midi.NoteOnEvent(tick=20, channel=7, data=[74, 92]),
   midi.NoteOnEvent(tick=0, channel=7, data=[86, 92]),
   midi.NoteOnEvent(tick=210, channel=7, data=[86, 0]),
   midi.NoteOnEvent(tick=0, channel=7, data=[74, 0]),
   midi.NoteOnEvent(tick=30, channel=7, data=[74, 92]),
   midi.NoteOnEvent(tick=0, channel=7, data=[86, 92]),
   midi.NoteOnEvent(tick=100, channel=7, data=[86, 0]),
   midi.NoteOnEvent(tick=0, channel=7, data=[74, 0]),
   midi.NoteOnEvent(tick=20, channel=7, data=[74, 92]),
   midi.NoteOnEvent(tick=0, channel=7, data=[86, 92]),
   midi.NoteOnEvent(tick=100, channel=7, data=[86, 0]),
   midi.NoteOnEvent(tick=0, channel=7, data=[74, 0]),
   midi.NoteOnEvent(tick=20, channel=7, data=[74, 92]),
   midi.NoteOnEvent(tick=0, channel=7, data=[86, 92]),
   midi.NoteOnEvent(tick=100, channel=7, data=[86, 0]),
   midi.NoteOnEvent(tick=0, channel=7, data=[74, 0]),
   midi.NoteOnEvent(tick=20, channel=7, data=[74, 92]),
   midi.NoteOnEvent(tick=0, channel=7, data=[86, 92]),
   midi.NoteOnEvent(tick=100, channel=7, data=[86, 0]),
   midi.NoteOnEvent(tick=0, channel=7, data=[74, 0]),
   midi.NoteOnEvent(tick=20, channel=7, data=[74, 92]),
   midi.NoteOnEvent(tick=0, channel=7, data=[86, 92]),
   midi.NoteOnEvent(tick=100, channel=7, data=[86, 0]),
   midi.NoteOnEvent(tick=0, channel=7, data=[74, 0]),
   midi.NoteOnEvent(tick=20, channel=7, data=[74, 92]),
   midi.NoteOnEvent(tick=0, channel=7, data=[86, 92]),
   midi.NoteOnEvent(tick=100, channel=7, data=[86, 0]),
   midi.NoteOnEvent(tick=0, channel=7, data=[74, 0]),
   midi.NoteOnEvent(tick=20, channel=7, data=[86, 60]),
   midi.NoteOnEvent(tick=210, channel=7, data=[86, 0]),
   midi.NoteOnEvent(tick=30, channel=7, data=[86, 60]),
   midi.NoteOnEvent(tick=220, channel=7, data=[86, 0]),
   midi.NoteOnEvent(tick=20, channel=7, data=[86, 60]),
   midi.NoteOnEvent(tick=30, channel=7, data=[86, 0]),
   midi.NoteOnEvent(tick=90, channel=7, data=[86, 60]),
   midi.NoteOnEvent(tick=30, channel=7, data=[86, 0]),
   midi.NoteOnEvent(tick=90, channel=7, data=[86, 60]),
   midi.NoteOnEvent(tick=220, channel=7, data=[86, 0]),
   midi.NoteOnEvent(tick=20, channel=7, data=[86, 60]),
   midi.NoteOnEvent(tick=210, channel=7, data=[86, 0]),
   midi.NoteOnEvent(tick=30, channel=7, data=[86, 60]),
   midi.NoteOnEvent(tick=120, channel=7, data=[86, 0]),
   midi.NoteOnEvent(tick=0, channel=7, data=[84, 60]),
   midi.NoteOnEvent(tick=100, channel=7, data=[84, 0]),
   midi.NoteOnEvent(tick=20, channel=7, data=[84, 60]),
   midi.NoteOnEvent(tick=100, channel=7, data=[84, 0]),
   midi.NoteOnEvent(tick=20, channel=7, data=[84, 60]),
   midi.NoteOnEvent(tick=100, channel=7, data=[84, 0]),
   midi.NoteOnEvent(tick=20, channel=7, data=[84, 60]),
   midi.NoteOnEvent(tick=220, channel=7, data=[84, 0]),
   midi.NoteOnEvent(tick=20, channel=7, data=[84, 60]),
   midi.NoteOnEvent(tick=210, channel=7, data=[84, 0]),
   midi.NoteOnEvent(tick=30, channel=7, data=[84, 60]),
   midi.NoteOnEvent(tick=120, channel=7, data=[84, 0]),
   midi.NoteOnEvent(tick=0, channel=7, data=[82, 60]),
   midi.NoteOnEvent(tick=100, channel=7, data=[82, 0]),
   midi.NoteOnEvent(tick=20, channel=7, data=[82, 60]),
   midi.NoteOnEvent(tick=100, channel=7, data=[82, 0]),
   midi.NoteOnEvent(tick=20, channel=7, data=[82, 60]),
   midi.NoteOnEvent(tick=100, channel=7, data=[82, 0]),
   midi.NoteOnEvent(tick=20, channel=7, data=[82, 60]),
   midi.NoteOnEvent(tick=220, channel=7, data=[82, 0]),
   midi.NoteOnEvent(tick=20, channel=7, data=[82, 60]),
   midi.NoteOnEvent(tick=210, channel=7, data=[82, 0]),
   midi.NoteOnEvent(tick=30, channel=7, data=[82, 60]),
   midi.NoteOnEvent(tick=120, channel=7, data=[82, 0]),
   midi.NoteOnEvent(tick=0, channel=7, data=[81, 60]),
   midi.NoteOnEvent(tick=100, channel=7, data=[81, 0]),
   midi.NoteOnEvent(tick=20, channel=7, data=[81, 60]),
   midi.NoteOnEvent(tick=100, channel=7, data=[81, 0]),
   midi.NoteOnEvent(tick=20, channel=7, data=[81, 60]),
   midi.NoteOnEvent(tick=100, channel=7, data=[81, 0]),
   midi.NoteOnEvent(tick=20, channel=7, data=[81, 60]),
   midi.NoteOnEvent(tick=100, channel=7, data=[81, 0]),
   midi.NoteOnEvent(tick=20, channel=7, data=[79, 92]),
   midi.NoteOnEvent(tick=100, channel=7, data=[79, 0]),
   midi.NoteOnEvent(tick=20, channel=7, data=[79, 92]),
   midi.NoteOnEvent(tick=210, channel=7, data=[79, 0]),
   midi.NoteOnEvent(tick=30, channel=7, data=[79, 92]),
   midi.NoteOnEvent(tick=100, channel=7, data=[79, 0]),
   midi.NoteOnEvent(tick=20, channel=7, data=[79, 92]),
   midi.NoteOnEvent(tick=100, channel=7, data=[79, 0]),
   midi.NoteOnEvent(tick=20, channel=7, data=[79, 92]),
   midi.NoteOnEvent(tick=100, channel=7, data=[79, 0]),
   midi.NoteOnEvent(tick=20, channel=7, data=[79, 92]),
   midi.NoteOnEvent(tick=100, channel=7, data=[79, 0]),
   midi.NoteOnEvent(tick=20, channel=7, data=[79, 92]),
   midi.NoteOnEvent(tick=100, channel=7, data=[79, 0]),
   midi.NoteOnEvent(tick=20, channel=7, data=[79, 92]),
   midi.NoteOnEvent(tick=58, channel=7, data=[79, 0]),
   midi.NoteOnEvent(tick=2, channel=7, data=[67, 60]),
   midi.NoteOnEvent(tick=58, channel=7, data=[67, 0]),
   midi.NoteOnEvent(tick=2, channel=7, data=[67, 60]),
   midi.NoteOnEvent(tick=58, channel=7, data=[67, 0]),
   midi.NoteOnEvent(tick=2, channel=7, data=[67, 60]),
   midi.NoteOnEvent(tick=58, channel=7, data=[67, 0]),
   midi.NoteOnEvent(tick=2, channel=7, data=[67, 60]),
   midi.NoteOnEvent(tick=58, channel=7, data=[67, 0]),
   midi.NoteOnEvent(tick=2, channel=7, data=[67, 60]),
   midi.NoteOnEvent(tick=58, channel=7, data=[67, 0]),
   midi.NoteOnEvent(tick=2, channel=7, data=[67, 60]),
   midi.NoteOnEvent(tick=58, channel=7, data=[67, 0]),
   midi.NoteOnEvent(tick=2, channel=7, data=[67, 60]),
   midi.NoteOnEvent(tick=58, channel=7, data=[67, 0]),
   midi.NoteOnEvent(tick=2, channel=7, data=[71, 60]),
   midi.NoteOnEvent(tick=15, channel=7, data=[71, 0]),
   midi.NoteOnEvent(tick=0, channel=7, data=[69, 60]),
   midi.NoteOnEvent(tick=45, channel=7, data=[69, 0]),
   midi.NoteOnEvent(tick=0, channel=7, data=[67, 60]),
   midi.NoteOnEvent(tick=58, channel=7, data=[67, 0]),
   midi.NoteOnEvent(tick=2, channel=7, data=[67, 60]),
   midi.NoteOnEvent(tick=20, channel=7, data=[67, 0]),
   midi.NoteOnEvent(tick=40, channel=7, data=[67, 60]),
   midi.NoteOnEvent(tick=20, channel=7, data=[67, 0]),
   midi.NoteOnEvent(tick=40, channel=7, data=[66, 60]),
   midi.NoteOnEvent(tick=60, channel=7, data=[66, 0]),
   midi.NoteOnEvent(tick=0, channel=7, data=[67, 60]),
   midi.NoteOnEvent(tick=58, channel=7, data=[67, 0]),
   midi.NoteOnEvent(tick=2, channel=7, data=[66, 60]),
   midi.NoteOnEvent(tick=60, channel=7, data=[66, 0]),
   midi.NoteOnEvent(tick=0, channel=7, data=[67, 60]),
   midi.NoteOnEvent(tick=58, channel=7, data=[67, 0]),
   midi.NoteOnEvent(tick=2, channel=7, data=[66, 60]),
   midi.NoteOnEvent(tick=930, channel=7, data=[66, 0]),
   midi.NoteOnEvent(tick=90, channel=7, data=[77, 60]),
   midi.NoteOnEvent(tick=58, channel=7, data=[77, 0]),
   midi.NoteOnEvent(tick=2, channel=7, data=[77, 60]),
   midi.NoteOnEvent(tick=58, channel=7, data=[77, 0]),
   midi.NoteOnEvent(tick=2, channel=7, data=[77, 60]),
   midi.NoteOnEvent(tick=58, channel=7, data=[77, 0]),
   midi.NoteOnEvent(tick=2, channel=7, data=[77, 60]),
   midi.NoteOnEvent(tick=58, channel=7, data=[77, 0]),
   midi.NoteOnEvent(tick=2, channel=7, data=[77, 60]),
   midi.NoteOnEvent(tick=58, channel=7, data=[77, 0]),
   midi.NoteOnEvent(tick=2, channel=7, data=[77, 60]),
   midi.NoteOnEvent(tick=58, channel=7, data=[77, 0]),
   midi.NoteOnEvent(tick=2, channel=7, data=[77, 60]),
   midi.NoteOnEvent(tick=58, channel=7, data=[77, 0]),
   midi.NoteOnEvent(tick=2, channel=7, data=[81, 60]),
   midi.NoteOnEvent(tick=15, channel=7, data=[81, 0]),
   midi.NoteOnEvent(tick=0, channel=7, data=[79, 60]),
   midi.NoteOnEvent(tick=45, channel=7, data=[79, 0]),
   midi.NoteOnEvent(tick=0, channel=7, data=[77, 60]),
   midi.NoteOnEvent(tick=58, channel=7, data=[77, 0]),
   midi.NoteOnEvent(tick=2, channel=7, data=[77, 60]),
   midi.NoteOnEvent(tick=20, channel=7, data=[77, 0]),
   midi.NoteOnEvent(tick=40, channel=7, data=[77, 60]),
   midi.NoteOnEvent(tick=20, channel=7, data=[77, 0]),
   midi.NoteOnEvent(tick=40, channel=7, data=[76, 60]),
   midi.NoteOnEvent(tick=60, channel=7, data=[76, 0]),
   midi.NoteOnEvent(tick=0, channel=7, data=[77, 60]),
   midi.NoteOnEvent(tick=58, channel=7, data=[77, 0]),
   midi.NoteOnEvent(tick=2, channel=7, data=[76, 60]),
   midi.NoteOnEvent(tick=60, channel=7, data=[76, 0]),
   midi.NoteOnEvent(tick=0, channel=7, data=[77, 60]),
   midi.NoteOnEvent(tick=58, channel=7, data=[77, 0]),
   midi.NoteOnEvent(tick=2, channel=7, data=[76, 92]),
   midi.NoteOnEvent(tick=100, channel=7, data=[76, 0]),
   midi.NoteOnEvent(tick=20, channel=7, data=[72, 92]),
   midi.NoteOnEvent(tick=0, channel=7, data=[84, 92]),
   midi.NoteOnEvent(tick=210, channel=7, data=[84, 0]),
   midi.NoteOnEvent(tick=0, channel=7, data=[72, 0]),
   midi.NoteOnEvent(tick=30, channel=7, data=[72, 92]),
   midi.NoteOnEvent(tick=0, channel=7, data=[84, 92]),
   midi.NoteOnEvent(tick=100, channel=7, data=[84, 0]),
   midi.NoteOnEvent(tick=0, channel=7, data=[72, 0]),
   midi.NoteOnEvent(tick=20, channel=7, data=[72, 92]),
   midi.NoteOnEvent(tick=0, channel=7, data=[84, 92]),
   midi.NoteOnEvent(tick=100, channel=7, data=[84, 0]),
   midi.NoteOnEvent(tick=0, channel=7, data=[72, 0]),
   midi.NoteOnEvent(tick=20, channel=7, data=[72, 92]),
   midi.NoteOnEvent(tick=0, channel=7, data=[84, 92]),
   midi.NoteOnEvent(tick=100, channel=7, data=[84, 0]),
   midi.NoteOnEvent(tick=0, channel=7, data=[72, 0]),
   midi.NoteOnEvent(tick=20, channel=7, data=[72, 92]),
   midi.NoteOnEvent(tick=0, channel=7, data=[84, 92]),
   midi.NoteOnEvent(tick=100, channel=7, data=[84, 0]),
   midi.NoteOnEvent(tick=0, channel=7, data=[72, 0]),
   midi.NoteOnEvent(tick=20, channel=7, data=[72, 92]),
   midi.NoteOnEvent(tick=0, channel=7, data=[84, 92]),
   midi.NoteOnEvent(tick=100, channel=7, data=[84, 0]),
   midi.NoteOnEvent(tick=0, channel=7, data=[72, 0]),
   midi.NoteOnEvent(tick=20, channel=7, data=[72, 92]),
   midi.NoteOnEvent(tick=0, channel=7, data=[84, 92]),
   midi.NoteOnEvent(tick=100, channel=7, data=[84, 0]),
   midi.NoteOnEvent(tick=0, channel=7, data=[72, 0]),
   midi.NoteOnEvent(tick=860, channel=7, data=[66, 60]),
   midi.NoteOnEvent(tick=60, channel=7, data=[66, 0]),
   midi.NoteOnEvent(tick=0, channel=7, data=[67, 60]),
   midi.NoteOnEvent(tick=60, channel=7, data=[67, 0]),
   midi.NoteOnEvent(tick=0, channel=7, data=[69, 60]),
   midi.NoteOnEvent(tick=60, channel=7, data=[69, 0]),
   midi.NoteOnEvent(tick=0, channel=7, data=[67, 60]),
   midi.NoteOnEvent(tick=60, channel=7, data=[67, 0]),
   midi.NoteOnEvent(tick=0, channel=7, data=[66, 60]),
   midi.NoteOnEvent(tick=100, channel=7, data=[66, 0]),
   midi.NoteOnEvent(tick=140, channel=7, data=[67, 60]),
   midi.NoteOnEvent(tick=60, channel=7, data=[67, 0]),
   midi.NoteOnEvent(tick=0, channel=7, data=[69, 60]),
   midi.NoteOnEvent(tick=60, channel=7, data=[69, 0]),
   midi.NoteOnEvent(tick=0, channel=7, data=[70, 60]),
   midi.NoteOnEvent(tick=60, channel=7, data=[70, 0]),
   midi.NoteOnEvent(tick=0, channel=7, data=[69, 60]),
   midi.NoteOnEvent(tick=60, channel=7, data=[69, 0]),
   midi.NoteOnEvent(tick=0, channel=7, data=[67, 60]),
   midi.NoteOnEvent(tick=60, channel=7, data=[67, 0]),
   midi.NoteOnEvent(tick=0, channel=7, data=[69, 60]),
   midi.NoteOnEvent(tick=60, channel=7, data=[69, 0]),
   midi.NoteOnEvent(tick=0, channel=7, data=[67, 60]),
   midi.NoteOnEvent(tick=60, channel=7, data=[67, 0]),
   midi.NoteOnEvent(tick=0, channel=7, data=[65, 60]),
   midi.NoteOnEvent(tick=58, channel=7, data=[65, 0]),
   midi.NoteOnEvent(tick=2, channel=7, data=[64, 60]),
   midi.NoteOnEvent(tick=60, channel=7, data=[64, 0]),
   midi.NoteOnEvent(tick=0, channel=7, data=[65, 60]),
   midi.NoteOnEvent(tick=60, channel=7, data=[65, 0]),
   midi.NoteOnEvent(tick=0, channel=7, data=[67, 60]),
   midi.NoteOnEvent(tick=60, channel=7, data=[67, 0]),
   midi.NoteOnEvent(tick=0, channel=7, data=[65, 60]),
   midi.NoteOnEvent(tick=60, channel=7, data=[65, 0]),
   midi.NoteOnEvent(tick=0, channel=7, data=[64, 60]),
   midi.NoteOnEvent(tick=100, channel=7, data=[64, 0]),
   midi.NoteOnEvent(tick=140, channel=7, data=[65, 60]),
   midi.NoteOnEvent(tick=60, channel=7, data=[65, 0]),
   midi.NoteOnEvent(tick=0, channel=7, data=[67, 60]),
   midi.NoteOnEvent(tick=60, channel=7, data=[67, 0]),
   midi.NoteOnEvent(tick=0, channel=7, data=[69, 60]),
   midi.NoteOnEvent(tick=60, channel=7, data=[69, 0]),
   midi.NoteOnEvent(tick=0, channel=7, data=[67, 60]),
   midi.NoteOnEvent(tick=60, channel=7, data=[67, 0]),
   midi.NoteOnEvent(tick=0, channel=7, data=[65, 60]),
   midi.NoteOnEvent(tick=60, channel=7, data=[65, 0]),
   midi.NoteOnEvent(tick=0, channel=7, data=[67, 60]),
   midi.NoteOnEvent(tick=60, channel=7, data=[67, 0]),
   midi.NoteOnEvent(tick=0, channel=7, data=[65, 60]),
   midi.NoteOnEvent(tick=60, channel=7, data=[65, 0]),
   midi.NoteOnEvent(tick=0, channel=7, data=[64, 60]),
   midi.NoteOnEvent(tick=58, channel=7, data=[64, 0]),
   midi.NoteOnEvent(tick=2, channel=7, data=[62, 60]),
   midi.NoteOnEvent(tick=60, channel=7, data=[62, 0]),
   midi.NoteOnEvent(tick=0, channel=7, data=[64, 60]),
   midi.NoteOnEvent(tick=60, channel=7, data=[64, 0]),
   midi.NoteOnEvent(tick=0, channel=7, data=[65, 60]),
   midi.NoteOnEvent(tick=60, channel=7, data=[65, 0]),
   midi.NoteOnEvent(tick=0, channel=7, data=[64, 60]),
   midi.NoteOnEvent(tick=60, channel=7, data=[64, 0]),
   midi.NoteOnEvent(tick=0, channel=7, data=[62, 60]),
   midi.NoteOnEvent(tick=100, channel=7, data=[62, 0]),
   midi.NoteOnEvent(tick=140, channel=7, data=[64, 60]),
   midi.NoteOnEvent(tick=60, channel=7, data=[64, 0]),
   midi.NoteOnEvent(tick=0, channel=7, data=[65, 60]),
   midi.NoteOnEvent(tick=60, channel=7, data=[65, 0]),
   midi.NoteOnEvent(tick=0, channel=7, data=[67, 60]),
   midi.NoteOnEvent(tick=60, channel=7, data=[67, 0]),
   midi.NoteOnEvent(tick=0, channel=7, data=[65, 60]),
   midi.NoteOnEvent(tick=60, channel=7, data=[65, 0]),
   midi.NoteOnEvent(tick=0, channel=7, data=[64, 60]),
   midi.NoteOnEvent(tick=60, channel=7, data=[64, 0]),
   midi.NoteOnEvent(tick=0, channel=7, data=[60, 60]),
   midi.NoteOnEvent(tick=60, channel=7, data=[60, 0]),
   midi.NoteOnEvent(tick=0, channel=7, data=[62, 60]),
   midi.NoteOnEvent(tick=60, channel=7, data=[62, 0]),
   midi.NoteOnEvent(tick=0, channel=7, data=[64, 60]),
   midi.NoteOnEvent(tick=58, channel=7, data=[64, 0]),
   midi.NoteOnEvent(tick=2, channel=7, data=[65, 60]),
   midi.NoteOnEvent(tick=100, channel=7, data=[65, 0]),
   midi.NoteOnEvent(tick=20, channel=7, data=[60, 60]),
   midi.NoteOnEvent(tick=100, channel=7, data=[60, 0]),
   midi.NoteOnEvent(tick=20, channel=7, data=[60, 60]),
   midi.NoteOnEvent(tick=100, channel=7, data=[60, 0]),
   midi.NoteOnEvent(tick=20, channel=7, data=[60, 60]),
   midi.NoteOnEvent(tick=100, channel=7, data=[60, 0]),
   midi.NoteOnEvent(tick=140, channel=7, data=[60, 60]),
   midi.NoteOnEvent(tick=100, channel=7, data=[60, 0]),
   midi.NoteOnEvent(tick=20, channel=7, data=[60, 60]),
   midi.NoteOnEvent(tick=100, channel=7, data=[60, 0]),
   midi.NoteOnEvent(tick=20, channel=7, data=[60, 60]),
   midi.NoteOnEvent(tick=100, channel=7, data=[60, 0]),
   midi.NoteOnEvent(tick=140, channel=7, data=[62, 60]),
   midi.NoteOnEvent(tick=100, channel=7, data=[62, 0]),
   midi.NoteOnEvent(tick=20, channel=7, data=[62, 60]),
   midi.NoteOnEvent(tick=100, channel=7, data=[62, 0]),
   midi.NoteOnEvent(tick=20, channel=7, data=[62, 60]),
   midi.NoteOnEvent(tick=100, channel=7, data=[62, 0]),
   midi.NoteOnEvent(tick=140, channel=7, data=[62, 60]),
   midi.NoteOnEvent(tick=100, channel=7, data=[62, 0]),
   midi.NoteOnEvent(tick=20, channel=7, data=[62, 60]),
   midi.NoteOnEvent(tick=100, channel=7, data=[62, 0]),
   midi.NoteOnEvent(tick=20, channel=7, data=[62, 60]),
   midi.NoteOnEvent(tick=100, channel=7, data=[62, 0]),
   midi.NoteOnEvent(tick=140, channel=7, data=[60, 60]),
   midi.NoteOnEvent(tick=100, channel=7, data=[60, 0]),
   midi.NoteOnEvent(tick=20, channel=7, data=[60, 60]),
   midi.NoteOnEvent(tick=100, channel=7, data=[60, 0]),
   midi.NoteOnEvent(tick=20, channel=7, data=[60, 60]),
   midi.NoteOnEvent(tick=100, channel=7, data=[60, 0]),
   midi.NoteOnEvent(tick=140, channel=7, data=[60, 60]),
   midi.NoteOnEvent(tick=100, channel=7, data=[60, 0]),
   midi.NoteOnEvent(tick=20, channel=7, data=[60, 60]),
   midi.NoteOnEvent(tick=100, channel=7, data=[60, 0]),
   midi.NoteOnEvent(tick=20, channel=7, data=[60, 60]),
   midi.NoteOnEvent(tick=100, channel=7, data=[60, 0]),
   midi.NoteOnEvent(tick=20, channel=7, data=[60, 60]),
   midi.NoteOnEvent(tick=1060, channel=7, data=[60, 0]),
   midi.NoteOnEvent(tick=20, channel=7, data=[60, 60]),
   midi.NoteOnEvent(tick=100, channel=7, data=[60, 0]),
   midi.NoteOnEvent(tick=20, channel=7, data=[60, 60]),
   midi.NoteOnEvent(tick=100, channel=7, data=[60, 0]),
   midi.NoteOnEvent(tick=20, channel=7, data=[60, 60]),
   midi.NoteOnEvent(tick=100, channel=7, data=[60, 0]),
   midi.NoteOnEvent(tick=140, channel=7, data=[60, 60]),
   midi.NoteOnEvent(tick=100, channel=7, data=[60, 0]),
   midi.NoteOnEvent(tick=20, channel=7, data=[60, 60]),
   midi.NoteOnEvent(tick=100, channel=7, data=[60, 0]),
   midi.NoteOnEvent(tick=20, channel=7, data=[60, 60]),
   midi.NoteOnEvent(tick=100, channel=7, data=[60, 0]),
   midi.NoteOnEvent(tick=140, channel=7, data=[62, 60]),
   midi.NoteOnEvent(tick=100, channel=7, data=[62, 0]),
   midi.NoteOnEvent(tick=20, channel=7, data=[62, 60]),
   midi.NoteOnEvent(tick=100, channel=7, data=[62, 0]),
   midi.NoteOnEvent(tick=20, channel=7, data=[62, 60]),
   midi.NoteOnEvent(tick=100, channel=7, data=[62, 0]),
   midi.NoteOnEvent(tick=140, channel=7, data=[62, 60]),
   midi.NoteOnEvent(tick=100, channel=7, data=[62, 0]),
   midi.NoteOnEvent(tick=20, channel=7, data=[62, 60]),
   midi.NoteOnEvent(tick=100, channel=7, data=[62, 0]),
   midi.NoteOnEvent(tick=20, channel=7, data=[62, 60]),
   midi.NoteOnEvent(tick=100, channel=7, data=[62, 0]),
   midi.NoteOnEvent(tick=140, channel=7, data=[60, 60]),
   midi.NoteOnEvent(tick=100, channel=7, data=[60, 0]),
   midi.NoteOnEvent(tick=20, channel=7, data=[60, 60]),
   midi.NoteOnEvent(tick=100, channel=7, data=[60, 0]),
   midi.NoteOnEvent(tick=20, channel=7, data=[60, 60]),
   midi.NoteOnEvent(tick=100, channel=7, data=[60, 0]),
   midi.NoteOnEvent(tick=140, channel=7, data=[60, 60]),
   midi.NoteOnEvent(tick=100, channel=7, data=[60, 0]),
   midi.NoteOnEvent(tick=20, channel=7, data=[60, 60]),
   midi.NoteOnEvent(tick=100, channel=7, data=[60, 0]),
   midi.NoteOnEvent(tick=20, channel=7, data=[60, 60]),
   midi.NoteOnEvent(tick=100, channel=7, data=[60, 0]),
   midi.NoteOnEvent(tick=20, channel=7, data=[60, 60]),
   midi.NoteOnEvent(tick=1060, channel=7, data=[60, 0]),
   midi.NoteOnEvent(tick=20, channel=7, data=[84, 92]),
   midi.NoteOnEvent(tick=210, channel=7, data=[84, 0]),
   midi.NoteOnEvent(tick=30, channel=7, data=[84, 92]),
   midi.NoteOnEvent(tick=100, channel=7, data=[84, 0]),
   midi.NoteOnEvent(tick=20, channel=7, data=[84, 92]),
   midi.NoteOnEvent(tick=100, channel=7, data=[84, 0]),
   midi.NoteOnEvent(tick=20, channel=7, data=[84, 92]),
   midi.NoteOnEvent(tick=100, channel=7, data=[84, 0]),
   midi.NoteOnEvent(tick=20, channel=7, data=[84, 92]),
   midi.NoteOnEvent(tick=100, channel=7, data=[84, 0]),
   midi.NoteOnEvent(tick=20, channel=7, data=[81, 92]),
   midi.NoteOnEvent(tick=100, channel=7, data=[81, 0]),
   midi.NoteOnEvent(tick=20, channel=7, data=[81, 92]),
   midi.NoteOnEvent(tick=100, channel=7, data=[81, 0]),
   midi.NoteOnEvent(tick=20, channel=7, data=[81, 92]),
   midi.NoteOnEvent(tick=210, channel=7, data=[81, 0]),
   midi.NoteOnEvent(tick=30, channel=7, data=[81, 92]),
   midi.NoteOnEvent(tick=100, channel=7, data=[81, 0]),
   midi.NoteOnEvent(tick=20, channel=7, data=[81, 92]),
   midi.NoteOnEvent(tick=100, channel=7, data=[81, 0]),
   midi.NoteOnEvent(tick=20, channel=7, data=[81, 92]),
   midi.NoteOnEvent(tick=100, channel=7, data=[81, 0]),
   midi.NoteOnEvent(tick=20, channel=7, data=[81, 92]),
   midi.NoteOnEvent(tick=100, channel=7, data=[81, 0]),
   midi.NoteOnEvent(tick=20, channel=7, data=[79, 92]),
   midi.NoteOnEvent(tick=100, channel=7, data=[79, 0]),
   midi.NoteOnEvent(tick=20, channel=7, data=[79, 92]),
   midi.NoteOnEvent(tick=100, channel=7, data=[79, 0]),
   midi.NoteOnEvent(tick=20, channel=7, data=[87, 92]),
   midi.NoteOnEvent(tick=210, channel=7, data=[87, 0]),
   midi.NoteOnEvent(tick=30, channel=7, data=[86, 92]),
   midi.NoteOnEvent(tick=100, channel=7, data=[86, 0]),
   midi.NoteOnEvent(tick=20, channel=7, data=[87, 92]),
   midi.NoteOnEvent(tick=30, channel=7, data=[87, 0]),
   midi.NoteOnEvent(tick=90, channel=7, data=[86, 92]),
   midi.NoteOnEvent(tick=30, channel=7, data=[86, 0]),
   midi.NoteOnEvent(tick=90, channel=7, data=[87, 92]),
   midi.NoteOnEvent(tick=30, channel=7, data=[87, 0]),
   midi.NoteOnEvent(tick=90, channel=7, data=[83, 92]),
   midi.NoteOnEvent(tick=30, channel=7, data=[83, 0]),
   midi.NoteOnEvent(tick=90, channel=7, data=[84, 92]),
   midi.NoteOnEvent(tick=30, channel=7, data=[84, 0]),
   midi.NoteOnEvent(tick=90, channel=7, data=[83, 92]),
   midi.NoteOnEvent(tick=30, channel=7, data=[83, 0]),
   midi.NoteOnEvent(tick=90, channel=7, data=[84, 92]),
   midi.NoteOnEvent(tick=30, channel=7, data=[84, 0]),
   midi.NoteOnEvent(tick=90, channel=7, data=[79, 92]),
   midi.NoteOnEvent(tick=30, channel=7, data=[79, 0]),
   midi.NoteOnEvent(tick=90, channel=7, data=[80, 92]),
   midi.NoteOnEvent(tick=100, channel=7, data=[80, 0]),
   midi.NoteOnEvent(tick=20, channel=7, data=[79, 92]),
   midi.NoteOnEvent(tick=100, channel=7, data=[79, 0]),
   midi.NoteOnEvent(tick=20, channel=7, data=[80, 92]),
   midi.NoteOnEvent(tick=100, channel=7, data=[80, 0]),
   midi.NoteOnEvent(tick=20, channel=7, data=[76, 92]),
   midi.NoteOnEvent(tick=100, channel=7, data=[76, 0]),
   midi.NoteOnEvent(tick=20, channel=7, data=[77, 92]),
   midi.NoteOnEvent(tick=58, channel=7, data=[77, 0]),
   midi.NoteOnEvent(tick=2, channel=7, data=[77, 92]),
   midi.NoteOnEvent(tick=58, channel=7, data=[77, 0]),
   midi.NoteOnEvent(tick=2, channel=7, data=[76, 92]),
   midi.NoteOnEvent(tick=58, channel=7, data=[76, 0]),
   midi.NoteOnEvent(tick=2, channel=7, data=[76, 92]),
   midi.NoteOnEvent(tick=58, channel=7, data=[76, 0]),
   midi.NoteOnEvent(tick=2, channel=7, data=[80, 92]),
   midi.NoteOnEvent(tick=58, channel=7, data=[80, 0]),
   midi.NoteOnEvent(tick=2, channel=7, data=[80, 92]),
   midi.NoteOnEvent(tick=58, channel=7, data=[80, 0]),
   midi.NoteOnEvent(tick=2, channel=7, data=[79, 92]),
   midi.NoteOnEvent(tick=58, channel=7, data=[79, 0]),
   midi.NoteOnEvent(tick=2, channel=7, data=[79, 92]),
   midi.NoteOnEvent(tick=58, channel=7, data=[79, 0]),
   midi.NoteOnEvent(tick=2, channel=7, data=[77, 92]),
   midi.NoteOnEvent(tick=58, channel=7, data=[77, 0]),
   midi.NoteOnEvent(tick=2, channel=7, data=[77, 92]),
   midi.NoteOnEvent(tick=58, channel=7, data=[77, 0]),
   midi.NoteOnEvent(tick=2, channel=7, data=[75, 92]),
   midi.NoteOnEvent(tick=58, channel=7, data=[75, 0]),
   midi.NoteOnEvent(tick=2, channel=7, data=[75, 92]),
   midi.NoteOnEvent(tick=58, channel=7, data=[75, 0]),
   midi.NoteOnEvent(tick=2, channel=7, data=[74, 92]),
   midi.NoteOnEvent(tick=58, channel=7, data=[74, 0]),
   midi.NoteOnEvent(tick=2, channel=7, data=[74, 92]),
   midi.NoteOnEvent(tick=58, channel=7, data=[74, 0]),
   midi.NoteOnEvent(tick=2, channel=7, data=[72, 92]),
   midi.NoteOnEvent(tick=58, channel=7, data=[72, 0]),
   midi.NoteOnEvent(tick=2, channel=7, data=[72, 92]),
   midi.NoteOnEvent(tick=58, channel=7, data=[72, 0]),
   midi.NoteOnEvent(tick=2, channel=7, data=[71, 92]),
   midi.NoteOnEvent(tick=100, channel=7, data=[71, 0]),
   midi.NoteOnEvent(tick=20, channel=7, data=[62, 60]),
   midi.NoteOnEvent(tick=100, channel=7, data=[62, 0]),
   midi.NoteOnEvent(tick=20, channel=7, data=[62, 60]),
   midi.NoteOnEvent(tick=100, channel=7, data=[62, 0]),
   midi.NoteOnEvent(tick=20, channel=7, data=[62, 60]),
   midi.NoteOnEvent(tick=100, channel=7, data=[62, 0]),
   midi.NoteOnEvent(tick=140, channel=7, data=[62, 60]),
   midi.NoteOnEvent(tick=100, channel=7, data=[62, 0]),
   midi.NoteOnEvent(tick=20, channel=7, data=[62, 60]),
   midi.NoteOnEvent(tick=100, channel=7, data=[62, 0]),
   midi.NoteOnEvent(tick=20, channel=7, data=[62, 60]),
   midi.NoteOnEvent(tick=100, channel=7, data=[62, 0]),
   midi.NoteOnEvent(tick=140, channel=7, data=[63, 60]),
   midi.NoteOnEvent(tick=100, channel=7, data=[63, 0]),
   midi.NoteOnEvent(tick=20, channel=7, data=[63, 60]),
   midi.NoteOnEvent(tick=100, channel=7, data=[63, 0]),
   midi.NoteOnEvent(tick=20, channel=7, data=[63, 60]),
   midi.NoteOnEvent(tick=100, channel=7, data=[63, 0]),
   midi.NoteOnEvent(tick=140, channel=7, data=[63, 60]),
   midi.NoteOnEvent(tick=100, channel=7, data=[63, 0]),
   midi.NoteOnEvent(tick=20, channel=7, data=[63, 60]),
   midi.NoteOnEvent(tick=100, channel=7, data=[63, 0]),
   midi.NoteOnEvent(tick=20, channel=7, data=[63, 60]),
   midi.NoteOnEvent(tick=100, channel=7, data=[63, 0]),
   midi.NoteOnEvent(tick=140, channel=7, data=[62, 60]),
   midi.NoteOnEvent(tick=100, channel=7, data=[62, 0]),
   midi.NoteOnEvent(tick=20, channel=7, data=[62, 60]),
   midi.NoteOnEvent(tick=100, channel=7, data=[62, 0]),
   midi.NoteOnEvent(tick=20, channel=7, data=[62, 60]),
   midi.NoteOnEvent(tick=100, channel=7, data=[62, 0]),
   midi.NoteOnEvent(tick=140, channel=7, data=[62, 60]),
   midi.NoteOnEvent(tick=100, channel=7, data=[62, 0]),
   midi.NoteOnEvent(tick=20, channel=7, data=[62, 60]),
   midi.NoteOnEvent(tick=100, channel=7, data=[62, 0]),
   midi.NoteOnEvent(tick=20, channel=7, data=[62, 60]),
   midi.NoteOnEvent(tick=100, channel=7, data=[62, 0]),
   midi.NoteOnEvent(tick=140, channel=7, data=[63, 60]),
   midi.NoteOnEvent(tick=100, channel=7, data=[63, 0]),
   midi.NoteOnEvent(tick=20, channel=7, data=[63, 60]),
   midi.NoteOnEvent(tick=100, channel=7, data=[63, 0]),
   midi.NoteOnEvent(tick=20, channel=7, data=[63, 60]),
   midi.NoteOnEvent(tick=100, channel=7, data=[63, 0]),
   midi.NoteOnEvent(tick=140, channel=7, data=[63, 60]),
   midi.NoteOnEvent(tick=100, channel=7, data=[63, 0]),
   midi.NoteOnEvent(tick=20, channel=7, data=[63, 60]),
   midi.NoteOnEvent(tick=100, channel=7, data=[63, 0]),
   midi.NoteOnEvent(tick=20, channel=7, data=[63, 60]),
   midi.NoteOnEvent(tick=100, channel=7, data=[63, 0]),
   midi.NoteOnEvent(tick=20, channel=7, data=[62, 60]),
   midi.NoteOnEvent(tick=58, channel=7, data=[62, 0]),
   midi.NoteOnEvent(tick=2, channel=7, data=[67, 60]),
   midi.NoteOnEvent(tick=58, channel=7, data=[67, 0]),
   midi.NoteOnEvent(tick=2, channel=7, data=[67, 60]),
   midi.NoteOnEvent(tick=58, channel=7, data=[67, 0]),
   midi.NoteOnEvent(tick=2, channel=7, data=[67, 60]),
   midi.NoteOnEvent(tick=58, channel=7, data=[67, 0]),
   midi.NoteOnEvent(tick=2, channel=7, data=[67, 60]),
   midi.NoteOnEvent(tick=210, channel=7, data=[67, 0]),
   midi.NoteOnEvent(tick=30, channel=7, data=[71, 60]),
   midi.NoteOnEvent(tick=15, channel=7, data=[71, 0]),
   midi.NoteOnEvent(tick=0, channel=7, data=[69, 60]),
   midi.NoteOnEvent(tick=45, channel=7, data=[69, 0]),
   midi.NoteOnEvent(tick=0, channel=7, data=[67, 60]),
   midi.NoteOnEvent(tick=58, channel=7, data=[67, 0]),
   midi.NoteOnEvent(tick=2, channel=7, data=[67, 60]),
   midi.NoteOnEvent(tick=20, channel=7, data=[67, 0]),
   midi.NoteOnEvent(tick=40, channel=7, data=[67, 60]),
   midi.NoteOnEvent(tick=20, channel=7, data=[67, 0]),
   midi.NoteOnEvent(tick=40, channel=7, data=[66, 60]),
   midi.NoteOnEvent(tick=60, channel=7, data=[66, 0]),
   midi.NoteOnEvent(tick=0, channel=7, data=[67, 60]),
   midi.NoteOnEvent(tick=58, channel=7, data=[67, 0]),
   midi.NoteOnEvent(tick=2, channel=7, data=[66, 60]),
   midi.NoteOnEvent(tick=60, channel=7, data=[66, 0]),
   midi.NoteOnEvent(tick=0, channel=7, data=[67, 60]),
   midi.NoteOnEvent(tick=58, channel=7, data=[67, 0]),
   midi.NoteOnEvent(tick=2, channel=7, data=[66, 60]),
   midi.NoteOnEvent(tick=930, channel=7, data=[66, 0]),
   midi.NoteOnEvent(tick=90, channel=7, data=[77, 60]),
   midi.NoteOnEvent(tick=58, channel=7, data=[77, 0]),
   midi.NoteOnEvent(tick=2, channel=7, data=[77, 60]),
   midi.NoteOnEvent(tick=58, channel=7, data=[77, 0]),
   midi.NoteOnEvent(tick=2, channel=7, data=[77, 60]),
   midi.NoteOnEvent(tick=58, channel=7, data=[77, 0]),
   midi.NoteOnEvent(tick=2, channel=7, data=[77, 60]),
   midi.NoteOnEvent(tick=210, channel=7, data=[77, 0]),
   midi.NoteOnEvent(tick=30, channel=7, data=[81, 60]),
   midi.NoteOnEvent(tick=15, channel=7, data=[81, 0]),
   midi.NoteOnEvent(tick=0, channel=7, data=[79, 60]),
   midi.NoteOnEvent(tick=45, channel=7, data=[79, 0]),
   midi.NoteOnEvent(tick=0, channel=7, data=[77, 60]),
   midi.NoteOnEvent(tick=58, channel=7, data=[77, 0]),
   midi.NoteOnEvent(tick=2, channel=7, data=[77, 60]),
   midi.NoteOnEvent(tick=20, channel=7, data=[77, 0]),
   midi.NoteOnEvent(tick=40, channel=7, data=[77, 60]),
   midi.NoteOnEvent(tick=20, channel=7, data=[77, 0]),
   midi.NoteOnEvent(tick=40, channel=7, data=[76, 60]),
   midi.NoteOnEvent(tick=60, channel=7, data=[76, 0]),
   midi.NoteOnEvent(tick=0, channel=7, data=[77, 60]),
   midi.NoteOnEvent(tick=58, channel=7, data=[77, 0]),
   midi.NoteOnEvent(tick=2, channel=7, data=[76, 60]),
   midi.NoteOnEvent(tick=60, channel=7, data=[76, 0]),
   midi.NoteOnEvent(tick=0, channel=7, data=[77, 60]),
   midi.NoteOnEvent(tick=58, channel=7, data=[77, 0]),
   midi.NoteOnEvent(tick=2, channel=7, data=[76, 60]),
   midi.NoteOnEvent(tick=100, channel=7, data=[76, 0]),
   midi.NoteOnEvent(tick=20, channel=7, data=[72, 92]),
   midi.NoteOnEvent(tick=0, channel=7, data=[84, 92]),
   midi.NoteOnEvent(tick=210, channel=7, data=[84, 0]),
   midi.NoteOnEvent(tick=0, channel=7, data=[72, 0]),
   midi.NoteOnEvent(tick=30, channel=7, data=[72, 92]),
   midi.NoteOnEvent(tick=0, channel=7, data=[84, 92]),
   midi.NoteOnEvent(tick=100, channel=7, data=[84, 0]),
   midi.NoteOnEvent(tick=0, channel=7, data=[72, 0]),
   midi.NoteOnEvent(tick=20, channel=7, data=[72, 92]),
   midi.NoteOnEvent(tick=0, channel=7, data=[84, 92]),
   midi.NoteOnEvent(tick=100, channel=7, data=[84, 0]),
   midi.NoteOnEvent(tick=0, channel=7, data=[72, 0]),
   midi.NoteOnEvent(tick=20, channel=7, data=[72, 92]),
   midi.NoteOnEvent(tick=0, channel=7, data=[84, 92]),
   midi.NoteOnEvent(tick=100, channel=7, data=[84, 0]),
   midi.NoteOnEvent(tick=0, channel=7, data=[72, 0]),
   midi.NoteOnEvent(tick=20, channel=7, data=[72, 92]),
   midi.NoteOnEvent(tick=0, channel=7, data=[84, 92]),
   midi.NoteOnEvent(tick=100, channel=7, data=[84, 0]),
   midi.NoteOnEvent(tick=0, channel=7, data=[72, 0]),
   midi.NoteOnEvent(tick=20, channel=7, data=[72, 92]),
   midi.NoteOnEvent(tick=0, channel=7, data=[84, 92]),
   midi.NoteOnEvent(tick=100, channel=7, data=[84, 0]),
   midi.NoteOnEvent(tick=0, channel=7, data=[72, 0]),
   midi.NoteOnEvent(tick=20, channel=7, data=[72, 92]),
   midi.NoteOnEvent(tick=0, channel=7, data=[84, 92]),
   midi.NoteOnEvent(tick=100, channel=7, data=[84, 0]),
   midi.NoteOnEvent(tick=0, channel=7, data=[72, 0]),
   midi.NoteOnEvent(tick=20, channel=7, data=[72, 92]),
   midi.NoteOnEvent(tick=0, channel=7, data=[84, 92]),
   midi.NoteOnEvent(tick=210, channel=7, data=[84, 0]),
   midi.NoteOnEvent(tick=0, channel=7, data=[72, 0]),
   midi.NoteOnEvent(tick=30, channel=7, data=[72, 92]),
   midi.NoteOnEvent(tick=0, channel=7, data=[84, 92]),
   midi.NoteOnEvent(tick=100, channel=7, data=[84, 0]),
   midi.NoteOnEvent(tick=0, channel=7, data=[72, 0]),
   midi.NoteOnEvent(tick=20, channel=7, data=[72, 92]),
   midi.NoteOnEvent(tick=0, channel=7, data=[84, 92]),
   midi.NoteOnEvent(tick=100, channel=7, data=[84, 0]),
   midi.NoteOnEvent(tick=0, channel=7, data=[72, 0]),
   midi.NoteOnEvent(tick=20, channel=7, data=[72, 92]),
   midi.NoteOnEvent(tick=0, channel=7, data=[84, 92]),
   midi.NoteOnEvent(tick=100, channel=7, data=[84, 0]),
   midi.NoteOnEvent(tick=0, channel=7, data=[72, 0]),
   midi.NoteOnEvent(tick=20, channel=7, data=[72, 92]),
   midi.NoteOnEvent(tick=0, channel=7, data=[84, 92]),
   midi.NoteOnEvent(tick=100, channel=7, data=[84, 0]),
   midi.NoteOnEvent(tick=0, channel=7, data=[72, 0]),
   midi.NoteOnEvent(tick=20, channel=7, data=[72, 92]),
   midi.NoteOnEvent(tick=0, channel=7, data=[84, 92]),
   midi.NoteOnEvent(tick=100, channel=7, data=[84, 0]),
   midi.NoteOnEvent(tick=0, channel=7, data=[72, 0]),
   midi.NoteOnEvent(tick=20, channel=7, data=[72, 92]),
   midi.NoteOnEvent(tick=0, channel=7, data=[84, 92]),
   midi.NoteOnEvent(tick=100, channel=7, data=[84, 0]),
   midi.NoteOnEvent(tick=0, channel=7, data=[72, 0]),
   midi.NoteOnEvent(tick=20, channel=7, data=[67, 60]),
   midi.NoteOnEvent(tick=100, channel=7, data=[67, 0]),
   midi.NoteOnEvent(tick=20, channel=7, data=[67, 60]),
   midi.NoteOnEvent(tick=100, channel=7, data=[67, 0]),
   midi.NoteOnEvent(tick=20, channel=7, data=[67, 60]),
   midi.NoteOnEvent(tick=100, channel=7, data=[67, 0]),
   midi.NoteOnEvent(tick=140, channel=7, data=[67, 60]),
   midi.NoteOnEvent(tick=100, channel=7, data=[67, 0]),
   midi.NoteOnEvent(tick=20, channel=7, data=[67, 60]),
   midi.NoteOnEvent(tick=100, channel=7, data=[67, 0]),
   midi.NoteOnEvent(tick=20, channel=7, data=[67, 60]),
   midi.NoteOnEvent(tick=100, channel=7, data=[67, 0]),
   midi.NoteOnEvent(tick=140, channel=7, data=[69, 60]),
   midi.NoteOnEvent(tick=100, channel=7, data=[69, 0]),
   midi.NoteOnEvent(tick=20, channel=7, data=[69, 60]),
   midi.NoteOnEvent(tick=100, channel=7, data=[69, 0]),
   midi.NoteOnEvent(tick=20, channel=7, data=[69, 60]),
   midi.NoteOnEvent(tick=100, channel=7, data=[69, 0]),
   midi.NoteOnEvent(tick=140, channel=7, data=[69, 60]),
   midi.NoteOnEvent(tick=100, channel=7, data=[69, 0]),
   midi.NoteOnEvent(tick=20, channel=7, data=[69, 60]),
   midi.NoteOnEvent(tick=100, channel=7, data=[69, 0]),
   midi.NoteOnEvent(tick=20, channel=7, data=[69, 60]),
   midi.NoteOnEvent(tick=100, channel=7, data=[69, 0]),
   midi.NoteOnEvent(tick=140, channel=7, data=[67, 60]),
   midi.NoteOnEvent(tick=100, channel=7, data=[67, 0]),
   midi.NoteOnEvent(tick=20, channel=7, data=[67, 60]),
   midi.NoteOnEvent(tick=100, channel=7, data=[67, 0]),
   midi.NoteOnEvent(tick=20, channel=7, data=[67, 60]),
   midi.NoteOnEvent(tick=100, channel=7, data=[67, 0]),
   midi.NoteOnEvent(tick=140, channel=7, data=[67, 60]),
   midi.NoteOnEvent(tick=100, channel=7, data=[67, 0]),
   midi.NoteOnEvent(tick=20, channel=7, data=[67, 60]),
   midi.NoteOnEvent(tick=100, channel=7, data=[67, 0]),
   midi.NoteOnEvent(tick=20, channel=7, data=[67, 60]),
   midi.NoteOnEvent(tick=100, channel=7, data=[67, 0]),
   midi.NoteOnEvent(tick=20, channel=7, data=[62, 60]),
   midi.NoteOnEvent(tick=120, channel=7, data=[62, 0]),
   midi.NoteOnEvent(tick=0, channel=7, data=[67, 60]),
   midi.NoteOnEvent(tick=120, channel=7, data=[67, 0]),
   midi.NoteOnEvent(tick=0, channel=7, data=[64, 60]),
   midi.NoteOnEvent(tick=120, channel=7, data=[64, 0]),
   midi.NoteOnEvent(tick=0, channel=7, data=[67, 60]),
   midi.NoteOnEvent(tick=120, channel=7, data=[67, 0]),
   midi.NoteOnEvent(tick=0, channel=7, data=[65, 60]),
   midi.NoteOnEvent(tick=120, channel=7, data=[65, 0]),
   midi.NoteOnEvent(tick=0, channel=7, data=[67, 60]),
   midi.NoteOnEvent(tick=120, channel=7, data=[67, 0]),
   midi.NoteOnEvent(tick=0, channel=7, data=[62, 60]),
   midi.NoteOnEvent(tick=120, channel=7, data=[62, 0]),
   midi.NoteOnEvent(tick=0, channel=7, data=[67, 60]),
   midi.NoteOnEvent(tick=100, channel=7, data=[67, 0]),
   midi.NoteOnEvent(tick=20, channel=7, data=[64, 60]),
   midi.NoteOnEvent(tick=100, channel=7, data=[64, 0]),
   midi.NoteOnEvent(tick=20, channel=7, data=[67, 60]),
   midi.NoteOnEvent(tick=100, channel=7, data=[67, 0]),
   midi.NoteOnEvent(tick=20, channel=7, data=[67, 60]),
   midi.NoteOnEvent(tick=100, channel=7, data=[67, 0]),
   midi.NoteOnEvent(tick=20, channel=7, data=[67, 60]),
   midi.NoteOnEvent(tick=100, channel=7, data=[67, 0]),
   midi.NoteOnEvent(tick=140, channel=7, data=[67, 60]),
   midi.NoteOnEvent(tick=100, channel=7, data=[67, 0]),
   midi.NoteOnEvent(tick=20, channel=7, data=[67, 60]),
   midi.NoteOnEvent(tick=100, channel=7, data=[67, 0]),
   midi.NoteOnEvent(tick=20, channel=7, data=[67, 60]),
   midi.NoteOnEvent(tick=100, channel=7, data=[67, 0]),
   midi.NoteOnEvent(tick=140, channel=7, data=[69, 60]),
   midi.NoteOnEvent(tick=100, channel=7, data=[69, 0]),
   midi.NoteOnEvent(tick=20, channel=7, data=[69, 60]),
   midi.NoteOnEvent(tick=100, channel=7, data=[69, 0]),
   midi.NoteOnEvent(tick=20, channel=7, data=[69, 60]),
   midi.NoteOnEvent(tick=100, channel=7, data=[69, 0]),
   midi.NoteOnEvent(tick=140, channel=7, data=[69, 60]),
   midi.NoteOnEvent(tick=100, channel=7, data=[69, 0]),
   midi.NoteOnEvent(tick=20, channel=7, data=[69, 60]),
   midi.NoteOnEvent(tick=100, channel=7, data=[69, 0]),
   midi.NoteOnEvent(tick=20, channel=7, data=[69, 60]),
   midi.NoteOnEvent(tick=100, channel=7, data=[69, 0]),
   midi.NoteOnEvent(tick=140, channel=7, data=[67, 60]),
   midi.NoteOnEvent(tick=100, channel=7, data=[67, 0]),
   midi.NoteOnEvent(tick=20, channel=7, data=[67, 60]),
   midi.NoteOnEvent(tick=100, channel=7, data=[67, 0]),
   midi.NoteOnEvent(tick=20, channel=7, data=[67, 60]),
   midi.NoteOnEvent(tick=100, channel=7, data=[67, 0]),
   midi.NoteOnEvent(tick=140, channel=7, data=[67, 60]),
   midi.NoteOnEvent(tick=100, channel=7, data=[67, 0]),
   midi.NoteOnEvent(tick=20, channel=7, data=[67, 60]),
   midi.NoteOnEvent(tick=100, channel=7, data=[67, 0]),
   midi.NoteOnEvent(tick=20, channel=7, data=[67, 60]),
   midi.NoteOnEvent(tick=100, channel=7, data=[67, 0]),
   midi.NoteOnEvent(tick=20, channel=7, data=[62, 60]),
   midi.NoteOnEvent(tick=120, channel=7, data=[62, 0]),
   midi.NoteOnEvent(tick=0, channel=7, data=[67, 60]),
   midi.NoteOnEvent(tick=120, channel=7, data=[67, 0]),
   midi.NoteOnEvent(tick=0, channel=7, data=[64, 60]),
   midi.NoteOnEvent(tick=120, channel=7, data=[64, 0]),
   midi.NoteOnEvent(tick=0, channel=7, data=[67, 60]),
   midi.NoteOnEvent(tick=120, channel=7, data=[67, 0]),
   midi.NoteOnEvent(tick=0, channel=7, data=[65, 60]),
   midi.NoteOnEvent(tick=120, channel=7, data=[65, 0]),
   midi.NoteOnEvent(tick=0, channel=7, data=[67, 60]),
   midi.NoteOnEvent(tick=120, channel=7, data=[67, 0]),
   midi.NoteOnEvent(tick=0, channel=7, data=[62, 60]),
   midi.NoteOnEvent(tick=120, channel=7, data=[62, 0]),
   midi.NoteOnEvent(tick=0, channel=7, data=[67, 60]),
   midi.NoteOnEvent(tick=100, channel=7, data=[67, 0]),
   midi.NoteOnEvent(tick=20, channel=7, data=[64, 60]),
   midi.NoteOnEvent(tick=100, channel=7, data=[64, 0]),
   midi.NoteOnEvent(tick=20, channel=7, data=[88, 92]),
   midi.NoteOnEvent(tick=210, channel=7, data=[88, 0]),
   midi.NoteOnEvent(tick=30, channel=7, data=[87, 92]),
   midi.NoteOnEvent(tick=100, channel=7, data=[87, 0]),
   midi.NoteOnEvent(tick=20, channel=7, data=[88, 92]),
   midi.NoteOnEvent(tick=100, channel=7, data=[88, 0]),
   midi.NoteOnEvent(tick=20, channel=7, data=[87, 92]),
   midi.NoteOnEvent(tick=100, channel=7, data=[87, 0]),
   midi.NoteOnEvent(tick=20, channel=7, data=[88, 92]),
   midi.NoteOnEvent(tick=100, channel=7, data=[88, 0]),
   midi.NoteOnEvent(tick=20, channel=7, data=[83, 92]),
   midi.NoteOnEvent(tick=100, channel=7, data=[83, 0]),
   midi.NoteOnEvent(tick=20, channel=7, data=[84, 92]),
   midi.NoteOnEvent(tick=100, channel=7, data=[84, 0]),
   midi.NoteOnEvent(tick=20, channel=7, data=[84, 92]),
   midi.NoteOnEvent(tick=210, channel=7, data=[84, 0]),
   midi.NoteOnEvent(tick=30, channel=7, data=[83, 92]),
   midi.NoteOnEvent(tick=100, channel=7, data=[83, 0]),
   midi.NoteOnEvent(tick=20, channel=7, data=[84, 92]),
   midi.NoteOnEvent(tick=100, channel=7, data=[84, 0]),
   midi.NoteOnEvent(tick=20, channel=7, data=[83, 92]),
   midi.NoteOnEvent(tick=100, channel=7, data=[83, 0]),
   midi.NoteOnEvent(tick=20, channel=7, data=[84, 92]),
   midi.NoteOnEvent(tick=100, channel=7, data=[84, 0]),
   midi.NoteOnEvent(tick=20, channel=7, data=[80, 92]),
   midi.NoteOnEvent(tick=100, channel=7, data=[80, 0]),
   midi.NoteOnEvent(tick=20, channel=7, data=[81, 92]),
   midi.NoteOnEvent(tick=100, channel=7, data=[81, 0]),
   midi.NoteOnEvent(tick=20, channel=7, data=[81, 92]),
   midi.NoteOnEvent(tick=210, channel=7, data=[81, 0]),
   midi.NoteOnEvent(tick=30, channel=7, data=[80, 92]),
   midi.NoteOnEvent(tick=100, channel=7, data=[80, 0]),
   midi.NoteOnEvent(tick=20, channel=7, data=[81, 92]),
   midi.NoteOnEvent(tick=100, channel=7, data=[81, 0]),
   midi.NoteOnEvent(tick=20, channel=7, data=[80, 92]),
   midi.NoteOnEvent(tick=100, channel=7, data=[80, 0]),
   midi.NoteOnEvent(tick=20, channel=7, data=[81, 92]),
   midi.NoteOnEvent(tick=100, channel=7, data=[81, 0]),
   midi.NoteOnEvent(tick=20, channel=7, data=[82, 92]),
   midi.NoteOnEvent(tick=100, channel=7, data=[82, 0]),
   midi.NoteOnEvent(tick=20, channel=7, data=[81, 92]),
   midi.NoteOnEvent(tick=58, channel=7, data=[81, 0]),
   midi.NoteOnEvent(tick=2, channel=7, data=[81, 92]),
   midi.NoteOnEvent(tick=58, channel=7, data=[81, 0]),
   midi.NoteOnEvent(tick=2, channel=7, data=[85, 92]),
   midi.NoteOnEvent(tick=58, channel=7, data=[85, 0]),
   midi.NoteOnEvent(tick=2, channel=7, data=[85, 92]),
   midi.NoteOnEvent(tick=58, channel=7, data=[85, 0]),
   midi.NoteOnEvent(tick=2, channel=7, data=[86, 92]),
   midi.NoteOnEvent(tick=58, channel=7, data=[86, 0]),
   midi.NoteOnEvent(tick=2, channel=7, data=[86, 92]),
   midi.NoteOnEvent(tick=58, channel=7, data=[86, 0]),
   midi.NoteOnEvent(tick=2, channel=7, data=[88, 92]),
   midi.NoteOnEvent(tick=58, channel=7, data=[88, 0]),
   midi.NoteOnEvent(tick=2, channel=7, data=[88, 92]),
   midi.NoteOnEvent(tick=58, channel=7, data=[88, 0]),
   midi.NoteOnEvent(tick=2, channel=7, data=[89, 92]),
   midi.NoteOnEvent(tick=58, channel=7, data=[89, 0]),
   midi.NoteOnEvent(tick=2, channel=7, data=[89, 92]),
   midi.NoteOnEvent(tick=58, channel=7, data=[89, 0]),
   midi.NoteOnEvent(tick=2, channel=7, data=[90, 92]),
   midi.NoteOnEvent(tick=58, channel=7, data=[90, 0]),
   midi.NoteOnEvent(tick=2, channel=7, data=[90, 92]),
   midi.NoteOnEvent(tick=58, channel=7, data=[90, 0]),
   midi.NoteOnEvent(tick=2, channel=7, data=[91, 92]),
   midi.NoteOnEvent(tick=58, channel=7, data=[91, 0]),
   midi.NoteOnEvent(tick=2, channel=7, data=[91, 92]),
   midi.NoteOnEvent(tick=58, channel=7, data=[91, 0]),
   midi.NoteOnEvent(tick=2, channel=7, data=[89, 92]),
   midi.NoteOnEvent(tick=58, channel=7, data=[89, 0]),
   midi.NoteOnEvent(tick=2, channel=7, data=[89, 92]),
   midi.NoteOnEvent(tick=58, channel=7, data=[89, 0]),
   midi.NoteOnEvent(tick=2, channel=7, data=[88, 92]),
   midi.NoteOnEvent(tick=58, channel=7, data=[88, 0]),
   midi.NoteOnEvent(tick=2, channel=7, data=[88, 92]),
   midi.NoteOnEvent(tick=58, channel=7, data=[88, 0]),
   midi.NoteOnEvent(tick=2, channel=7, data=[88, 92]),
   midi.NoteOnEvent(tick=58, channel=7, data=[88, 0]),
   midi.NoteOnEvent(tick=2, channel=7, data=[88, 92]),
   midi.NoteOnEvent(tick=58, channel=7, data=[88, 0]),
   midi.NoteOnEvent(tick=2, channel=7, data=[88, 92]),
   midi.NoteOnEvent(tick=58, channel=7, data=[88, 0]),
   midi.NoteOnEvent(tick=2, channel=7, data=[88, 92]),
   midi.NoteOnEvent(tick=58, channel=7, data=[88, 0]),
   midi.NoteOnEvent(tick=2, channel=7, data=[88, 92]),
   midi.NoteOnEvent(tick=58, channel=7, data=[88, 0]),
   midi.NoteOnEvent(tick=2, channel=7, data=[88, 92]),
   midi.NoteOnEvent(tick=58, channel=7, data=[88, 0]),
   midi.NoteOnEvent(tick=2, channel=7, data=[86, 92]),
   midi.NoteOnEvent(tick=58, channel=7, data=[86, 0]),
   midi.NoteOnEvent(tick=2, channel=7, data=[86, 92]),
   midi.NoteOnEvent(tick=58, channel=7, data=[86, 0]),
   midi.NoteOnEvent(tick=2, channel=7, data=[86, 92]),
   midi.NoteOnEvent(tick=58, channel=7, data=[86, 0]),
   midi.NoteOnEvent(tick=2, channel=7, data=[86, 92]),
   midi.NoteOnEvent(tick=58, channel=7, data=[86, 0]),
   midi.NoteOnEvent(tick=2, channel=7, data=[86, 92]),
   midi.NoteOnEvent(tick=58, channel=7, data=[86, 0]),
   midi.NoteOnEvent(tick=2, channel=7, data=[86, 92]),
   midi.NoteOnEvent(tick=58, channel=7, data=[86, 0]),
   midi.NoteOnEvent(tick=2, channel=7, data=[86, 92]),
   midi.NoteOnEvent(tick=58, channel=7, data=[86, 0]),
   midi.NoteOnEvent(tick=2, channel=7, data=[86, 92]),
   midi.NoteOnEvent(tick=58, channel=7, data=[86, 0]),
   midi.NoteOnEvent(tick=2, channel=7, data=[84, 92]),
   midi.NoteOnEvent(tick=100, channel=7, data=[84, 0]),
   midi.NoteOnEvent(tick=20, channel=7, data=[88, 92]),
   midi.NoteOnEvent(tick=210, channel=7, data=[88, 0]),
   midi.NoteOnEvent(tick=30, channel=7, data=[87, 92]),
   midi.NoteOnEvent(tick=100, channel=7, data=[87, 0]),
   midi.NoteOnEvent(tick=20, channel=7, data=[88, 92]),
   midi.NoteOnEvent(tick=100, channel=7, data=[88, 0]),
   midi.NoteOnEvent(tick=20, channel=7, data=[87, 92]),
   midi.NoteOnEvent(tick=100, channel=7, data=[87, 0]),
   midi.NoteOnEvent(tick=20, channel=7, data=[88, 92]),
   midi.NoteOnEvent(tick=100, channel=7, data=[88, 0]),
   midi.NoteOnEvent(tick=20, channel=7, data=[83, 92]),
   midi.NoteOnEvent(tick=100, channel=7, data=[83, 0]),
   midi.NoteOnEvent(tick=20, channel=7, data=[84, 92]),
   midi.NoteOnEvent(tick=100, channel=7, data=[84, 0]),
   midi.NoteOnEvent(tick=20, channel=7, data=[84, 92]),
   midi.NoteOnEvent(tick=210, channel=7, data=[84, 0]),
   midi.NoteOnEvent(tick=30, channel=7, data=[83, 92]),
   midi.NoteOnEvent(tick=100, channel=7, data=[83, 0]),
   midi.NoteOnEvent(tick=20, channel=7, data=[84, 92]),
   midi.NoteOnEvent(tick=100, channel=7, data=[84, 0]),
   midi.NoteOnEvent(tick=20, channel=7, data=[83, 92]),
   midi.NoteOnEvent(tick=100, channel=7, data=[83, 0]),
   midi.NoteOnEvent(tick=20, channel=7, data=[84, 92]),
   midi.NoteOnEvent(tick=100, channel=7, data=[84, 0]),
   midi.NoteOnEvent(tick=20, channel=7, data=[80, 92]),
   midi.NoteOnEvent(tick=100, channel=7, data=[80, 0]),
   midi.NoteOnEvent(tick=20, channel=7, data=[81, 92]),
   midi.NoteOnEvent(tick=100, channel=7, data=[81, 0]),
   midi.NoteOnEvent(tick=20, channel=7, data=[81, 92]),
   midi.NoteOnEvent(tick=210, channel=7, data=[81, 0]),
   midi.NoteOnEvent(tick=30, channel=7, data=[80, 92]),
   midi.NoteOnEvent(tick=100, channel=7, data=[80, 0]),
   midi.NoteOnEvent(tick=20, channel=7, data=[81, 92]),
   midi.NoteOnEvent(tick=100, channel=7, data=[81, 0]),
   midi.NoteOnEvent(tick=20, channel=7, data=[80, 92]),
   midi.NoteOnEvent(tick=100, channel=7, data=[80, 0]),
   midi.NoteOnEvent(tick=20, channel=7, data=[81, 92]),
   midi.NoteOnEvent(tick=100, channel=7, data=[81, 0]),
   midi.NoteOnEvent(tick=20, channel=7, data=[82, 92]),
   midi.NoteOnEvent(tick=100, channel=7, data=[82, 0]),
   midi.NoteOnEvent(tick=20, channel=7, data=[81, 92]),
   midi.NoteOnEvent(tick=58, channel=7, data=[81, 0]),
   midi.NoteOnEvent(tick=2, channel=7, data=[81, 92]),
   midi.NoteOnEvent(tick=58, channel=7, data=[81, 0]),
   midi.NoteOnEvent(tick=2, channel=7, data=[85, 92]),
   midi.NoteOnEvent(tick=58, channel=7, data=[85, 0]),
   midi.NoteOnEvent(tick=2, channel=7, data=[85, 92]),
   midi.NoteOnEvent(tick=58, channel=7, data=[85, 0]),
   midi.NoteOnEvent(tick=2, channel=7, data=[86, 92]),
   midi.NoteOnEvent(tick=58, channel=7, data=[86, 0]),
   midi.NoteOnEvent(tick=2, channel=7, data=[86, 92]),
   midi.NoteOnEvent(tick=58, channel=7, data=[86, 0]),
   midi.NoteOnEvent(tick=2, channel=7, data=[88, 92]),
   midi.NoteOnEvent(tick=58, channel=7, data=[88, 0]),
   midi.NoteOnEvent(tick=2, channel=7, data=[88, 92]),
   midi.NoteOnEvent(tick=58, channel=7, data=[88, 0]),
   midi.NoteOnEvent(tick=2, channel=7, data=[89, 92]),
   midi.NoteOnEvent(tick=58, channel=7, data=[89, 0]),
   midi.NoteOnEvent(tick=2, channel=7, data=[89, 92]),
   midi.NoteOnEvent(tick=58, channel=7, data=[89, 0]),
   midi.NoteOnEvent(tick=2, channel=7, data=[90, 92]),
   midi.NoteOnEvent(tick=58, channel=7, data=[90, 0]),
   midi.NoteOnEvent(tick=2, channel=7, data=[90, 92]),
   midi.NoteOnEvent(tick=58, channel=7, data=[90, 0]),
   midi.NoteOnEvent(tick=2, channel=7, data=[91, 92]),
   midi.NoteOnEvent(tick=58, channel=7, data=[91, 0]),
   midi.NoteOnEvent(tick=2, channel=7, data=[91, 92]),
   midi.NoteOnEvent(tick=58, channel=7, data=[91, 0]),
   midi.NoteOnEvent(tick=2, channel=7, data=[89, 92]),
   midi.NoteOnEvent(tick=58, channel=7, data=[89, 0]),
   midi.NoteOnEvent(tick=2, channel=7, data=[89, 92]),
   midi.NoteOnEvent(tick=58, channel=7, data=[89, 0]),
   midi.NoteOnEvent(tick=2, channel=7, data=[88, 92]),
   midi.NoteOnEvent(tick=100, channel=7, data=[88, 0]),
   midi.NoteOnEvent(tick=1820, channel=7, data=[62, 60]),
   midi.NoteOnEvent(tick=720, channel=7, data=[62, 0]),
   midi.NoteOnEvent(tick=0, channel=7, data=[64, 60]),
   midi.NoteOnEvent(tick=180, channel=7, data=[64, 0]),
   midi.NoteOnEvent(tick=0, channel=7, data=[65, 60]),
   midi.NoteOnEvent(tick=58, channel=7, data=[65, 0]),
   midi.NoteOnEvent(tick=2, channel=7, data=[65, 60]),
   midi.NoteOnEvent(tick=480, channel=7, data=[65, 0]),
   midi.NoteOnEvent(tick=0, channel=7, data=[64, 60]),
   midi.NoteOnEvent(tick=100, channel=7, data=[64, 0]),
   midi.NoteOnEvent(tick=860, channel=7, data=[67, 92]),
   midi.NoteOnEvent(tick=0, channel=7, data=[72, 92]),
   midi.NoteOnEvent(tick=0, channel=7, data=[76, 92]),
   midi.NoteOnEvent(tick=100, channel=7, data=[76, 0]),
   midi.NoteOnEvent(tick=0, channel=7, data=[72, 0]),
   midi.NoteOnEvent(tick=0, channel=7, data=[67, 0]),
   midi.NoteOnEvent(tick=380, channel=7, data=[65, 92]),
   midi.NoteOnEvent(tick=0, channel=7, data=[72, 92]),
   midi.NoteOnEvent(tick=0, channel=7, data=[77, 92]),
   midi.NoteOnEvent(tick=100, channel=7, data=[77, 0]),
   midi.NoteOnEvent(tick=0, channel=7, data=[72, 0]),
   midi.NoteOnEvent(tick=0, channel=7, data=[65, 0]),
   midi.NoteOnEvent(tick=380, channel=7, data=[65, 92]),
   midi.NoteOnEvent(tick=0, channel=7, data=[72, 92]),
   midi.NoteOnEvent(tick=0, channel=7, data=[81, 92]),
   midi.NoteOnEvent(tick=100, channel=7, data=[81, 0]),
   midi.NoteOnEvent(tick=0, channel=7, data=[72, 0]),
   midi.NoteOnEvent(tick=0, channel=7, data=[65, 0]),
   midi.NoteOnEvent(tick=380, channel=7, data=[55, 92]),
   midi.NoteOnEvent(tick=100, channel=7, data=[55, 0]),
   midi.NoteOnEvent(tick=380, channel=7, data=[67, 92]),
   midi.NoteOnEvent(tick=0, channel=7, data=[74, 92]),
   midi.NoteOnEvent(tick=0, channel=7, data=[83, 92]),
   midi.NoteOnEvent(tick=100, channel=7, data=[83, 0]),
   midi.NoteOnEvent(tick=0, channel=7, data=[74, 0]),
   midi.NoteOnEvent(tick=0, channel=7, data=[67, 0]),
   midi.NoteOnEvent(tick=440, channel=7, data=[60, 60]),
   midi.NoteOnEvent(tick=58, channel=7, data=[60, 0]),
   midi.NoteOnEvent(tick=2, channel=7, data=[60, 60]),
   midi.NoteOnEvent(tick=58, channel=7, data=[60, 0]),
   midi.NoteOnEvent(tick=2, channel=7, data=[60, 60]),
   midi.NoteOnEvent(tick=58, channel=7, data=[60, 0]),
   midi.NoteOnEvent(tick=2, channel=7, data=[60, 60]),
   midi.NoteOnEvent(tick=58, channel=7, data=[60, 0]),
   midi.NoteOnEvent(tick=2, channel=7, data=[60, 60]),
   midi.NoteOnEvent(tick=58, channel=7, data=[60, 0]),
   midi.NoteOnEvent(tick=2, channel=7, data=[60, 60]),
   midi.NoteOnEvent(tick=58, channel=7, data=[60, 0]),
   midi.NoteOnEvent(tick=2, channel=7, data=[60, 60]),
   midi.NoteOnEvent(tick=58, channel=7, data=[60, 0]),
   midi.NoteOnEvent(tick=2, channel=7, data=[64, 60]),
   midi.NoteOnEvent(tick=15, channel=7, data=[64, 0]),
   midi.NoteOnEvent(tick=0, channel=7, data=[62, 60]),
   midi.NoteOnEvent(tick=45, channel=7, data=[62, 0]),
   midi.NoteOnEvent(tick=0, channel=7, data=[60, 60]),
   midi.NoteOnEvent(tick=58, channel=7, data=[60, 0]),
   midi.NoteOnEvent(tick=2, channel=7, data=[60, 60]),
   midi.NoteOnEvent(tick=20, channel=7, data=[60, 0]),
   midi.NoteOnEvent(tick=40, channel=7, data=[60, 60]),
   midi.NoteOnEvent(tick=20, channel=7, data=[60, 0]),
   midi.NoteOnEvent(tick=40, channel=7, data=[59, 60]),
   midi.NoteOnEvent(tick=60, channel=7, data=[59, 0]),
   midi.NoteOnEvent(tick=0, channel=7, data=[60, 60]),
   midi.NoteOnEvent(tick=58, channel=7, data=[60, 0]),
   midi.NoteOnEvent(tick=2, channel=7, data=[59, 60]),
   midi.NoteOnEvent(tick=60, channel=7, data=[59, 0]),
   midi.NoteOnEvent(tick=0, channel=7, data=[60, 60]),
   midi.NoteOnEvent(tick=58, channel=7, data=[60, 0]),
   midi.NoteOnEvent(tick=2, channel=7, data=[64, 60]),
   midi.NoteOnEvent(tick=58, channel=7, data=[64, 0]),
   midi.NoteOnEvent(tick=2, channel=7, data=[64, 60]),
   midi.NoteOnEvent(tick=58, channel=7, data=[64, 0]),
   midi.NoteOnEvent(tick=2, channel=7, data=[64, 60]),
   midi.NoteOnEvent(tick=58, channel=7, data=[64, 0]),
   midi.NoteOnEvent(tick=2, channel=7, data=[64, 60]),
   midi.NoteOnEvent(tick=58, channel=7, data=[64, 0]),
   midi.NoteOnEvent(tick=2, channel=7, data=[64, 60]),
   midi.NoteOnEvent(tick=58, channel=7, data=[64, 0]),
   midi.NoteOnEvent(tick=2, channel=7, data=[64, 60]),
   midi.NoteOnEvent(tick=58, channel=7, data=[64, 0]),
   midi.NoteOnEvent(tick=2, channel=7, data=[64, 60]),
   midi.NoteOnEvent(tick=58, channel=7, data=[64, 0]),
   midi.NoteOnEvent(tick=2, channel=7, data=[64, 60]),
   midi.NoteOnEvent(tick=58, channel=7, data=[64, 0]),
   midi.NoteOnEvent(tick=2, channel=7, data=[67, 60]),
   midi.NoteOnEvent(tick=15, channel=7, data=[67, 0]),
   midi.NoteOnEvent(tick=0, channel=7, data=[65, 60]),
   midi.NoteOnEvent(tick=45, channel=7, data=[65, 0]),
   midi.NoteOnEvent(tick=0, channel=7, data=[64, 60]),
   midi.NoteOnEvent(tick=58, channel=7, data=[64, 0]),
   midi.NoteOnEvent(tick=2, channel=7, data=[64, 60]),
   midi.NoteOnEvent(tick=20, channel=7, data=[64, 0]),
   midi.NoteOnEvent(tick=40, channel=7, data=[64, 60]),
   midi.NoteOnEvent(tick=20, channel=7, data=[64, 0]),
   midi.NoteOnEvent(tick=40, channel=7, data=[63, 60]),
   midi.NoteOnEvent(tick=60, channel=7, data=[63, 0]),
   midi.NoteOnEvent(tick=0, channel=7, data=[64, 60]),
   midi.NoteOnEvent(tick=58, channel=7, data=[64, 0]),
   midi.NoteOnEvent(tick=2, channel=7, data=[63, 60]),
   midi.NoteOnEvent(tick=60, channel=7, data=[63, 0]),
   midi.NoteOnEvent(tick=0, channel=7, data=[64, 60]),
   midi.NoteOnEvent(tick=58, channel=7, data=[64, 0]),
   midi.NoteOnEvent(tick=2, channel=7, data=[67, 60]),
   midi.NoteOnEvent(tick=58, channel=7, data=[67, 0]),
   midi.NoteOnEvent(tick=2, channel=7, data=[67, 60]),
   midi.NoteOnEvent(tick=58, channel=7, data=[67, 0]),
   midi.NoteOnEvent(tick=2, channel=7, data=[67, 60]),
   midi.NoteOnEvent(tick=58, channel=7, data=[67, 0]),
   midi.NoteOnEvent(tick=2, channel=7, data=[67, 60]),
   midi.NoteOnEvent(tick=58, channel=7, data=[67, 0]),
   midi.NoteOnEvent(tick=2, channel=7, data=[67, 60]),
   midi.NoteOnEvent(tick=58, channel=7, data=[67, 0]),
   midi.NoteOnEvent(tick=2, channel=7, data=[67, 60]),
   midi.NoteOnEvent(tick=58, channel=7, data=[67, 0]),
   midi.NoteOnEvent(tick=2, channel=7, data=[67, 60]),
   midi.NoteOnEvent(tick=58, channel=7, data=[67, 0]),
   midi.NoteOnEvent(tick=2, channel=7, data=[67, 60]),
   midi.NoteOnEvent(tick=58, channel=7, data=[67, 0]),
   midi.NoteOnEvent(tick=2, channel=7, data=[71, 60]),
   midi.NoteOnEvent(tick=15, channel=7, data=[71, 0]),
   midi.NoteOnEvent(tick=0, channel=7, data=[69, 60]),
   midi.NoteOnEvent(tick=45, channel=7, data=[69, 0]),
   midi.NoteOnEvent(tick=0, channel=7, data=[67, 60]),
   midi.NoteOnEvent(tick=58, channel=7, data=[67, 0]),
   midi.NoteOnEvent(tick=2, channel=7, data=[67, 60]),
   midi.NoteOnEvent(tick=20, channel=7, data=[67, 0]),
   midi.NoteOnEvent(tick=40, channel=7, data=[67, 60]),
   midi.NoteOnEvent(tick=20, channel=7, data=[67, 0]),
   midi.NoteOnEvent(tick=40, channel=7, data=[66, 60]),
   midi.NoteOnEvent(tick=60, channel=7, data=[66, 0]),
   midi.NoteOnEvent(tick=0, channel=7, data=[67, 60]),
   midi.NoteOnEvent(tick=58, channel=7, data=[67, 0]),
   midi.NoteOnEvent(tick=2, channel=7, data=[66, 60]),
   midi.NoteOnEvent(tick=60, channel=7, data=[66, 0]),
   midi.NoteOnEvent(tick=0, channel=7, data=[67, 60]),
   midi.NoteOnEvent(tick=58, channel=7, data=[67, 0]),
   midi.NoteOnEvent(tick=2, channel=7, data=[72, 60]),
   midi.NoteOnEvent(tick=58, channel=7, data=[72, 0]),
   midi.NoteOnEvent(tick=2, channel=7, data=[72, 60]),
   midi.NoteOnEvent(tick=58, channel=7, data=[72, 0]),
   midi.NoteOnEvent(tick=2, channel=7, data=[72, 60]),
   midi.NoteOnEvent(tick=58, channel=7, data=[72, 0]),
   midi.NoteOnEvent(tick=2, channel=7, data=[72, 60]),
   midi.NoteOnEvent(tick=58, channel=7, data=[72, 0]),
   midi.NoteOnEvent(tick=2, channel=7, data=[72, 60]),
   midi.NoteOnEvent(tick=58, channel=7, data=[72, 0]),
   midi.NoteOnEvent(tick=2, channel=7, data=[72, 60]),
   midi.NoteOnEvent(tick=58, channel=7, data=[72, 0]),
   midi.NoteOnEvent(tick=2, channel=7, data=[72, 60]),
   midi.NoteOnEvent(tick=58, channel=7, data=[72, 0]),
   midi.NoteOnEvent(tick=2, channel=7, data=[72, 60]),
   midi.NoteOnEvent(tick=58, channel=7, data=[72, 0]),
   midi.NoteOnEvent(tick=2, channel=7, data=[76, 60]),
   midi.NoteOnEvent(tick=15, channel=7, data=[76, 0]),
   midi.NoteOnEvent(tick=0, channel=7, data=[74, 60]),
   midi.NoteOnEvent(tick=45, channel=7, data=[74, 0]),
   midi.NoteOnEvent(tick=0, channel=7, data=[72, 61]),
   midi.NoteOnEvent(tick=58, channel=7, data=[72, 0]),
   midi.NoteOnEvent(tick=2, channel=7, data=[72, 62]),
   midi.NoteOnEvent(tick=20, channel=7, data=[72, 0]),
   midi.NoteOnEvent(tick=40, channel=7, data=[72, 63]),
   midi.NoteOnEvent(tick=20, channel=7, data=[72, 0]),
   midi.NoteOnEvent(tick=40, channel=7, data=[71, 64]),
   midi.NoteOnEvent(tick=60, channel=7, data=[71, 0]),
   midi.NoteOnEvent(tick=0, channel=7, data=[72, 65]),
   midi.NoteOnEvent(tick=58, channel=7, data=[72, 0]),
   midi.NoteOnEvent(tick=2, channel=7, data=[71, 66]),
   midi.NoteOnEvent(tick=60, channel=7, data=[71, 0]),
   midi.NoteOnEvent(tick=0, channel=7, data=[72, 67]),
   midi.NoteOnEvent(tick=58, channel=7, data=[72, 0]),
   midi.NoteOnEvent(tick=2, channel=7, data=[76, 68]),
   midi.NoteOnEvent(tick=58, channel=7, data=[76, 0]),
   midi.NoteOnEvent(tick=2, channel=7, data=[76, 69]),
   midi.NoteOnEvent(tick=58, channel=7, data=[76, 0]),
   midi.NoteOnEvent(tick=2, channel=7, data=[76, 70]),
   midi.NoteOnEvent(tick=58, channel=7, data=[76, 0]),
   midi.NoteOnEvent(tick=2, channel=7, data=[76, 71]),
   midi.NoteOnEvent(tick=58, channel=7, data=[76, 0]),
   midi.NoteOnEvent(tick=2, channel=7, data=[76, 72]),
   midi.NoteOnEvent(tick=58, channel=7, data=[76, 0]),
   midi.NoteOnEvent(tick=2, channel=7, data=[76, 73]),
   midi.NoteOnEvent(tick=58, channel=7, data=[76, 0]),
   midi.NoteOnEvent(tick=2, channel=7, data=[76, 74]),
   midi.NoteOnEvent(tick=58, channel=7, data=[76, 0]),
   midi.NoteOnEvent(tick=2, channel=7, data=[76, 75]),
   midi.NoteOnEvent(tick=58, channel=7, data=[76, 0]),
   midi.NoteOnEvent(tick=2, channel=7, data=[79, 76]),
   midi.NoteOnEvent(tick=15, channel=7, data=[79, 0]),
   midi.NoteOnEvent(tick=0, channel=7, data=[77, 76]),
   midi.NoteOnEvent(tick=45, channel=7, data=[77, 0]),
   midi.NoteOnEvent(tick=0, channel=7, data=[76, 77]),
   midi.NoteOnEvent(tick=58, channel=7, data=[76, 0]),
   midi.NoteOnEvent(tick=2, channel=7, data=[76, 79]),
   midi.NoteOnEvent(tick=20, channel=7, data=[76, 0]),
   midi.NoteOnEvent(tick=40, channel=7, data=[76, 81]),
   midi.NoteOnEvent(tick=20, channel=7, data=[76, 0]),
   midi.NoteOnEvent(tick=40, channel=7, data=[75, 83]),
   midi.NoteOnEvent(tick=60, channel=7, data=[75, 0]),
   midi.NoteOnEvent(tick=0, channel=7, data=[76, 85]),
   midi.NoteOnEvent(tick=58, channel=7, data=[76, 0]),
   midi.NoteOnEvent(tick=2, channel=7, data=[75, 87]),
   midi.NoteOnEvent(tick=60, channel=7, data=[75, 0]),
   midi.NoteOnEvent(tick=0, channel=7, data=[76, 89]),
   midi.NoteOnEvent(tick=58, channel=7, data=[76, 0]),
   midi.NoteOnEvent(tick=2, channel=7, data=[79, 92]),
   midi.NoteOnEvent(tick=58, channel=7, data=[79, 0]),
   midi.NoteOnEvent(tick=2, channel=7, data=[79, 92]),
   midi.NoteOnEvent(tick=58, channel=7, data=[79, 0]),
   midi.NoteOnEvent(tick=2, channel=7, data=[79, 92]),
   midi.NoteOnEvent(tick=58, channel=7, data=[79, 0]),
   midi.NoteOnEvent(tick=2, channel=7, data=[79, 92]),
   midi.NoteOnEvent(tick=58, channel=7, data=[79, 0]),
   midi.NoteOnEvent(tick=2, channel=7, data=[79, 92]),
   midi.NoteOnEvent(tick=58, channel=7, data=[79, 0]),
   midi.NoteOnEvent(tick=2, channel=7, data=[79, 92]),
   midi.NoteOnEvent(tick=58, channel=7, data=[79, 0]),
   midi.NoteOnEvent(tick=2, channel=7, data=[79, 92]),
   midi.NoteOnEvent(tick=58, channel=7, data=[79, 0]),
   midi.NoteOnEvent(tick=2, channel=7, data=[79, 92]),
   midi.NoteOnEvent(tick=58, channel=7, data=[79, 0]),
   midi.NoteOnEvent(tick=2, channel=7, data=[83, 92]),
   midi.NoteOnEvent(tick=15, channel=7, data=[83, 0]),
   midi.NoteOnEvent(tick=0, channel=7, data=[81, 92]),
   midi.NoteOnEvent(tick=45, channel=7, data=[81, 0]),
   midi.NoteOnEvent(tick=0, channel=7, data=[79, 92]),
   midi.NoteOnEvent(tick=58, channel=7, data=[79, 0]),
   midi.NoteOnEvent(tick=2, channel=7, data=[79, 92]),
   midi.NoteOnEvent(tick=20, channel=7, data=[79, 0]),
   midi.NoteOnEvent(tick=40, channel=7, data=[79, 92]),
   midi.NoteOnEvent(tick=20, channel=7, data=[79, 0]),
   midi.NoteOnEvent(tick=40, channel=7, data=[78, 92]),
   midi.NoteOnEvent(tick=60, channel=7, data=[78, 0]),
   midi.NoteOnEvent(tick=0, channel=7, data=[79, 92]),
   midi.NoteOnEvent(tick=58, channel=7, data=[79, 0]),
   midi.NoteOnEvent(tick=2, channel=7, data=[78, 92]),
   midi.NoteOnEvent(tick=60, channel=7, data=[78, 0]),
   midi.NoteOnEvent(tick=0, channel=7, data=[79, 92]),
   midi.NoteOnEvent(tick=58, channel=7, data=[79, 0]),
   midi.NoteOnEvent(tick=2, channel=7, data=[84, 108]),
   midi.NoteOnEvent(tick=100, channel=7, data=[84, 0]),
   midi.NoteOnEvent(tick=20, channel=7, data=[72, 108]),
   midi.NoteOnEvent(tick=0, channel=7, data=[84, 108]),
   midi.NoteOnEvent(tick=210, channel=7, data=[84, 0]),
   midi.NoteOnEvent(tick=0, channel=7, data=[72, 0]),
   midi.NoteOnEvent(tick=30, channel=7, data=[72, 108]),
   midi.NoteOnEvent(tick=0, channel=7, data=[84, 108]),
   midi.NoteOnEvent(tick=100, channel=7, data=[84, 0]),
   midi.NoteOnEvent(tick=0, channel=7, data=[72, 0]),
   midi.NoteOnEvent(tick=20, channel=7, data=[72, 108]),
   midi.NoteOnEvent(tick=0, channel=7, data=[84, 108]),
   midi.NoteOnEvent(tick=100, channel=7, data=[84, 0]),
   midi.NoteOnEvent(tick=0, channel=7, data=[72, 0]),
   midi.NoteOnEvent(tick=20, channel=7, data=[72, 108]),
   midi.NoteOnEvent(tick=0, channel=7, data=[84, 108]),
   midi.NoteOnEvent(tick=100, channel=7, data=[84, 0]),
   midi.NoteOnEvent(tick=0, channel=7, data=[72, 0]),
   midi.NoteOnEvent(tick=20, channel=7, data=[72, 108]),
   midi.NoteOnEvent(tick=0, channel=7, data=[84, 108]),
   midi.NoteOnEvent(tick=100, channel=7, data=[84, 0]),
   midi.NoteOnEvent(tick=0, channel=7, data=[72, 0]),
   midi.NoteOnEvent(tick=20, channel=7, data=[79, 108]),
   midi.NoteOnEvent(tick=100, channel=7, data=[79, 0]),
   midi.NoteOnEvent(tick=20, channel=7, data=[84, 108]),
   midi.NoteOnEvent(tick=100, channel=7, data=[84, 0]),
   midi.NoteOnEvent(tick=20, channel=7, data=[72, 108]),
   midi.NoteOnEvent(tick=0, channel=7, data=[84, 108]),
   midi.NoteOnEvent(tick=210, channel=7, data=[84, 0]),
   midi.NoteOnEvent(tick=0, channel=7, data=[72, 0]),
   midi.NoteOnEvent(tick=30, channel=7, data=[72, 108]),
   midi.NoteOnEvent(tick=0, channel=7, data=[84, 108]),
   midi.NoteOnEvent(tick=100, channel=7, data=[84, 0]),
   midi.NoteOnEvent(tick=0, channel=7, data=[72, 0]),
   midi.NoteOnEvent(tick=20, channel=7, data=[72, 108]),
   midi.NoteOnEvent(tick=0, channel=7, data=[84, 108]),
   midi.NoteOnEvent(tick=100, channel=7, data=[84, 0]),
   midi.NoteOnEvent(tick=0, channel=7, data=[72, 0]),
   midi.NoteOnEvent(tick=20, channel=7, data=[72, 108]),
   midi.NoteOnEvent(tick=0, channel=7, data=[84, 108]),
   midi.NoteOnEvent(tick=100, channel=7, data=[84, 0]),
   midi.NoteOnEvent(tick=0, channel=7, data=[72, 0]),
   midi.NoteOnEvent(tick=20, channel=7, data=[72, 108]),
   midi.NoteOnEvent(tick=0, channel=7, data=[84, 108]),
   midi.NoteOnEvent(tick=100, channel=7, data=[84, 0]),
   midi.NoteOnEvent(tick=0, channel=7, data=[72, 0]),
   midi.NoteOnEvent(tick=20, channel=7, data=[79, 108]),
   midi.NoteOnEvent(tick=100, channel=7, data=[79, 0]),
   midi.NoteOnEvent(tick=20, channel=7, data=[84, 108]),
   midi.NoteOnEvent(tick=100, channel=7, data=[84, 0]),
   midi.NoteOnEvent(tick=20, channel=7, data=[79, 108]),
   midi.NoteOnEvent(tick=58, channel=7, data=[79, 0]),
   midi.NoteOnEvent(tick=2, channel=7, data=[79, 108]),
   midi.NoteOnEvent(tick=58, channel=7, data=[79, 0]),
   midi.NoteOnEvent(tick=2, channel=7, data=[84, 108]),
   midi.NoteOnEvent(tick=58, channel=7, data=[84, 0]),
   midi.NoteOnEvent(tick=2, channel=7, data=[84, 108]),
   midi.NoteOnEvent(tick=58, channel=7, data=[84, 0]),
   midi.NoteOnEvent(tick=2, channel=7, data=[79, 108]),
   midi.NoteOnEvent(tick=58, channel=7, data=[79, 0]),
   midi.NoteOnEvent(tick=2, channel=7, data=[79, 108]),
   midi.NoteOnEvent(tick=58, channel=7, data=[79, 0]),
   midi.NoteOnEvent(tick=2, channel=7, data=[84, 108]),
   midi.NoteOnEvent(tick=58, channel=7, data=[84, 0]),
   midi.NoteOnEvent(tick=2, channel=7, data=[84, 108]),
   midi.NoteOnEvent(tick=58, channel=7, data=[84, 0]),
   midi.NoteOnEvent(tick=2, channel=7, data=[79, 108]),
   midi.NoteOnEvent(tick=58, channel=7, data=[79, 0]),
   midi.NoteOnEvent(tick=2, channel=7, data=[79, 108]),
   midi.NoteOnEvent(tick=58, channel=7, data=[79, 0]),
   midi.NoteOnEvent(tick=2, channel=7, data=[84, 108]),
   midi.NoteOnEvent(tick=58, channel=7, data=[84, 0]),
   midi.NoteOnEvent(tick=2, channel=7, data=[84, 108]),
   midi.NoteOnEvent(tick=58, channel=7, data=[84, 0]),
   midi.NoteOnEvent(tick=2, channel=7, data=[79, 108]),
   midi.NoteOnEvent(tick=58, channel=7, data=[79, 0]),
   midi.NoteOnEvent(tick=2, channel=7, data=[79, 108]),
   midi.NoteOnEvent(tick=58, channel=7, data=[79, 0]),
   midi.NoteOnEvent(tick=2, channel=7, data=[84, 108]),
   midi.NoteOnEvent(tick=100, channel=7, data=[84, 0]),
   midi.NoteOnEvent(tick=380, channel=7, data=[67, 108]),
   midi.NoteOnEvent(tick=0, channel=7, data=[76, 108]),
   midi.NoteOnEvent(tick=0, channel=7, data=[84, 108]),
   midi.NoteOnEvent(tick=100, channel=7, data=[84, 0]),
   midi.NoteOnEvent(tick=0, channel=7, data=[76, 0]),
   midi.NoteOnEvent(tick=0, channel=7, data=[67, 0]),
   midi.NoteOnEvent(tick=140, channel=7, data=[67, 108]),
   midi.NoteOnEvent(tick=0, channel=7, data=[76, 108]),
   midi.NoteOnEvent(tick=0, channel=7, data=[84, 108]),
   midi.NoteOnEvent(tick=100, channel=7, data=[84, 0]),
   midi.NoteOnEvent(tick=0, channel=7, data=[76, 0]),
   midi.NoteOnEvent(tick=0, channel=7, data=[67, 0]),
   midi.NoteOnEvent(tick=140, channel=7, data=[67, 108]),
   midi.NoteOnEvent(tick=0, channel=7, data=[76, 108]),
   midi.NoteOnEvent(tick=0, channel=7, data=[84, 108]),
   midi.NoteOnEvent(tick=210, channel=7, data=[84, 0]),
   midi.NoteOnEvent(tick=0, channel=7, data=[76, 0]),
   midi.NoteOnEvent(tick=0, channel=7, data=[67, 0]),
   midi.EndOfTrackEvent(tick=0, data=[])]),
 midi.Track(\
  [midi.PortEvent(tick=0, data=[0]),
   midi.TrackNameEvent(tick=0, text='Violins II', data=[86, 105, 111, 108, 105, 110, 115, 32, 73, 73]),
   midi.ProgramChangeEvent(tick=0, channel=8, data=[48]),
   midi.ControlChangeEvent(tick=0, channel=8, data=[7, 127]),
   midi.ControlChangeEvent(tick=0, channel=8, data=[10, 118]),
   midi.NoteOnEvent(tick=0, channel=8, data=[72, 92]),
   midi.NoteOnEvent(tick=0, channel=8, data=[76, 92]),
   midi.NoteOnEvent(tick=100, channel=8, data=[76, 0]),
   midi.NoteOnEvent(tick=0, channel=8, data=[72, 0]),
   midi.NoteOnEvent(tick=110, channel=8, data=[60, 92]),
   midi.NoteOnEvent(tick=28, channel=8, data=[60, 0]),
   midi.NoteOnEvent(tick=2, channel=8, data=[60, 92]),
   midi.NoteOnEvent(tick=100, channel=8, data=[60, 0]),
   midi.NoteOnEvent(tick=1550, channel=8, data=[83, 92]),
   midi.NoteOnEvent(tick=28, channel=8, data=[83, 0]),
   midi.NoteOnEvent(tick=2, channel=8, data=[83, 92]),
   midi.NoteOnEvent(tick=100, channel=8, data=[83, 0]),
   midi.NoteOnEvent(tick=110, channel=8, data=[59, 92]),
   midi.NoteOnEvent(tick=0, channel=8, data=[62, 92]),
   midi.NoteOnEvent(tick=28, channel=8, data=[62, 0]),
   midi.NoteOnEvent(tick=0, channel=8, data=[59, 0]),
   midi.NoteOnEvent(tick=2, channel=8, data=[59, 92]),
   midi.NoteOnEvent(tick=0, channel=8, data=[62, 92]),
   midi.NoteOnEvent(tick=100, channel=8, data=[62, 0]),
   midi.NoteOnEvent(tick=0, channel=8, data=[59, 0]),
   midi.NoteOnEvent(tick=2060, channel=8, data=[60, 45]),
   midi.NoteOnEvent(tick=240, channel=8, data=[60, 0]),
   midi.NoteOnEvent(tick=0, channel=8, data=[59, 45]),
   midi.NoteOnEvent(tick=210, channel=8, data=[59, 0]),
   midi.NoteOnEvent(tick=30, channel=8, data=[60, 45]),
   midi.NoteOnEvent(tick=240, channel=8, data=[60, 0]),
   midi.NoteOnEvent(tick=0, channel=8, data=[60, 45]),
   midi.NoteOnEvent(tick=100, channel=8, data=[60, 0]),
   midi.NoteOnEvent(tick=380, channel=8, data=[67, 92]),
   midi.NoteOnEvent(tick=0, channel=8, data=[72, 92]),
   midi.NoteOnEvent(tick=0, channel=8, data=[76, 92]),
   midi.NoteOnEvent(tick=100, channel=8, data=[76, 0]),
   midi.NoteOnEvent(tick=0, channel=8, data=[72, 0]),
   midi.NoteOnEvent(tick=0, channel=8, data=[67, 0]),
   midi.NoteOnEvent(tick=140, channel=8, data=[65, 92]),
   midi.NoteOnEvent(tick=0, channel=8, data=[72, 92]),
   midi.NoteOnEvent(tick=0, channel=8, data=[77, 92]),
   midi.NoteOnEvent(tick=100, channel=8, data=[77, 0]),
   midi.NoteOnEvent(tick=0, channel=8, data=[72, 0]),
   midi.NoteOnEvent(tick=0, channel=8, data=[65, 0]),
   midi.NoteOnEvent(tick=140, channel=8, data=[65, 92]),
   midi.NoteOnEvent(tick=0, channel=8, data=[72, 92]),
   midi.NoteOnEvent(tick=0, channel=8, data=[81, 92]),
   midi.NoteOnEvent(tick=100, channel=8, data=[81, 0]),
   midi.NoteOnEvent(tick=0, channel=8, data=[72, 0]),
   midi.NoteOnEvent(tick=0, channel=8, data=[65, 0]),
   midi.NoteOnEvent(tick=140, channel=8, data=[55, 92]),
   midi.NoteOnEvent(tick=100, channel=8, data=[55, 0]),
   midi.NoteOnEvent(tick=140, channel=8, data=[67, 92]),
   midi.NoteOnEvent(tick=0, channel=8, data=[74, 92]),
   midi.NoteOnEvent(tick=0, channel=8, data=[83, 92]),
   midi.NoteOnEvent(tick=100, channel=8, data=[83, 0]),
   midi.NoteOnEvent(tick=0, channel=8, data=[74, 0]),
   midi.NoteOnEvent(tick=0, channel=8, data=[67, 0]),
   midi.NoteOnEvent(tick=2120, channel=8, data=[60, 60]),
   midi.NoteOnEvent(tick=58, channel=8, data=[60, 0]),
   midi.NoteOnEvent(tick=2, channel=8, data=[60, 60]),
   midi.NoteOnEvent(tick=58, channel=8, data=[60, 0]),
   midi.NoteOnEvent(tick=2, channel=8, data=[60, 60]),
   midi.NoteOnEvent(tick=58, channel=8, data=[60, 0]),
   midi.NoteOnEvent(tick=2, channel=8, data=[60, 60]),
   midi.NoteOnEvent(tick=58, channel=8, data=[60, 0]),
   midi.NoteOnEvent(tick=2, channel=8, data=[60, 60]),
   midi.NoteOnEvent(tick=58, channel=8, data=[60, 0]),
   midi.NoteOnEvent(tick=2, channel=8, data=[60, 60]),
   midi.NoteOnEvent(tick=58, channel=8, data=[60, 0]),
   midi.NoteOnEvent(tick=2, channel=8, data=[60, 60]),
   midi.NoteOnEvent(tick=58, channel=8, data=[60, 0]),
   midi.NoteOnEvent(tick=2, channel=8, data=[64, 60]),
   midi.NoteOnEvent(tick=15, channel=8, data=[64, 0]),
   midi.NoteOnEvent(tick=0, channel=8, data=[62, 60]),
   midi.NoteOnEvent(tick=45, channel=8, data=[62, 0]),
   midi.NoteOnEvent(tick=0, channel=8, data=[60, 60]),
   midi.NoteOnEvent(tick=58, channel=8, data=[60, 0]),
   midi.NoteOnEvent(tick=2, channel=8, data=[60, 60]),
   midi.NoteOnEvent(tick=20, channel=8, data=[60, 0]),
   midi.NoteOnEvent(tick=40, channel=8, data=[60, 60]),
   midi.NoteOnEvent(tick=20, channel=8, data=[60, 0]),
   midi.NoteOnEvent(tick=40, channel=8, data=[59, 60]),
   midi.NoteOnEvent(tick=60, channel=8, data=[59, 0]),
   midi.NoteOnEvent(tick=0, channel=8, data=[60, 60]),
   midi.NoteOnEvent(tick=58, channel=8, data=[60, 0]),
   midi.NoteOnEvent(tick=2, channel=8, data=[59, 60]),
   midi.NoteOnEvent(tick=60, channel=8, data=[59, 0]),
   midi.NoteOnEvent(tick=0, channel=8, data=[60, 60]),
   midi.NoteOnEvent(tick=58, channel=8, data=[60, 0]),
   midi.NoteOnEvent(tick=2, channel=8, data=[59, 60]),
   midi.NoteOnEvent(tick=58, channel=8, data=[59, 0]),
   midi.NoteOnEvent(tick=2, channel=8, data=[62, 60]),
   midi.NoteOnEvent(tick=58, channel=8, data=[62, 0]),
   midi.NoteOnEvent(tick=2, channel=8, data=[62, 60]),
   midi.NoteOnEvent(tick=58, channel=8, data=[62, 0]),
   midi.NoteOnEvent(tick=2, channel=8, data=[62, 60]),
   midi.NoteOnEvent(tick=58, channel=8, data=[62, 0]),
   midi.NoteOnEvent(tick=2, channel=8, data=[62, 60]),
   midi.NoteOnEvent(tick=58, channel=8, data=[62, 0]),
   midi.NoteOnEvent(tick=2, channel=8, data=[62, 60]),
   midi.NoteOnEvent(tick=58, channel=8, data=[62, 0]),
   midi.NoteOnEvent(tick=2, channel=8, data=[62, 60]),
   midi.NoteOnEvent(tick=58, channel=8, data=[62, 0]),
   midi.NoteOnEvent(tick=2, channel=8, data=[62, 60]),
   midi.NoteOnEvent(tick=58, channel=8, data=[62, 0]),
   midi.NoteOnEvent(tick=2, channel=8, data=[65, 60]),
   midi.NoteOnEvent(tick=15, channel=8, data=[65, 0]),
   midi.NoteOnEvent(tick=0, channel=8, data=[64, 60]),
   midi.NoteOnEvent(tick=45, channel=8, data=[64, 0]),
   midi.NoteOnEvent(tick=0, channel=8, data=[62, 60]),
   midi.NoteOnEvent(tick=58, channel=8, data=[62, 0]),
   midi.NoteOnEvent(tick=2, channel=8, data=[62, 60]),
   midi.NoteOnEvent(tick=20, channel=8, data=[62, 0]),
   midi.NoteOnEvent(tick=40, channel=8, data=[62, 60]),
   midi.NoteOnEvent(tick=20, channel=8, data=[62, 0]),
   midi.NoteOnEvent(tick=40, channel=8, data=[61, 60]),
   midi.NoteOnEvent(tick=60, channel=8, data=[61, 0]),
   midi.NoteOnEvent(tick=0, channel=8, data=[62, 60]),
   midi.NoteOnEvent(tick=58, channel=8, data=[62, 0]),
   midi.NoteOnEvent(tick=2, channel=8, data=[61, 60]),
   midi.NoteOnEvent(tick=60, channel=8, data=[61, 0]),
   midi.NoteOnEvent(tick=0, channel=8, data=[62, 60]),
   midi.NoteOnEvent(tick=58, channel=8, data=[62, 0]),
   midi.NoteOnEvent(tick=2, channel=8, data=[60, 60]),
   midi.NoteOnEvent(tick=58, channel=8, data=[60, 0]),
   midi.NoteOnEvent(tick=2, channel=8, data=[60, 60]),
   midi.NoteOnEvent(tick=58, channel=8, data=[60, 0]),
   midi.NoteOnEvent(tick=2, channel=8, data=[60, 60]),
   midi.NoteOnEvent(tick=58, channel=8, data=[60, 0]),
   midi.NoteOnEvent(tick=2, channel=8, data=[60, 60]),
   midi.NoteOnEvent(tick=58, channel=8, data=[60, 0]),
   midi.NoteOnEvent(tick=2, channel=8, data=[62, 60]),
   midi.NoteOnEvent(tick=58, channel=8, data=[62, 0]),
   midi.NoteOnEvent(tick=2, channel=8, data=[62, 60]),
   midi.NoteOnEvent(tick=58, channel=8, data=[62, 0]),
   midi.NoteOnEvent(tick=2, channel=8, data=[64, 60]),
   midi.NoteOnEvent(tick=58, channel=8, data=[64, 0]),
   midi.NoteOnEvent(tick=2, channel=8, data=[64, 60]),
   midi.NoteOnEvent(tick=58, channel=8, data=[64, 0]),
   midi.NoteOnEvent(tick=2, channel=8, data=[65, 60]),
   midi.NoteOnEvent(tick=58, channel=8, data=[65, 0]),
   midi.NoteOnEvent(tick=2, channel=8, data=[65, 60]),
   midi.NoteOnEvent(tick=58, channel=8, data=[65, 0]),
   midi.NoteOnEvent(tick=2, channel=8, data=[64, 60]),
   midi.NoteOnEvent(tick=58, channel=8, data=[64, 0]),
   midi.NoteOnEvent(tick=2, channel=8, data=[64, 60]),
   midi.NoteOnEvent(tick=58, channel=8, data=[64, 0]),
   midi.NoteOnEvent(tick=2, channel=8, data=[65, 60]),
   midi.NoteOnEvent(tick=58, channel=8, data=[65, 0]),
   midi.NoteOnEvent(tick=2, channel=8, data=[65, 60]),
   midi.NoteOnEvent(tick=58, channel=8, data=[65, 0]),
   midi.NoteOnEvent(tick=2, channel=8, data=[62, 60]),
   midi.NoteOnEvent(tick=58, channel=8, data=[62, 0]),
   midi.NoteOnEvent(tick=2, channel=8, data=[62, 60]),
   midi.NoteOnEvent(tick=58, channel=8, data=[62, 0]),
   midi.NoteOnEvent(tick=2, channel=8, data=[64, 92]),
   midi.NoteOnEvent(tick=100, channel=8, data=[64, 0]),
   midi.NoteOnEvent(tick=20, channel=8, data=[67, 92]),
   midi.NoteOnEvent(tick=210, channel=8, data=[67, 0]),
   midi.NoteOnEvent(tick=30, channel=8, data=[69, 92]),
   midi.NoteOnEvent(tick=100, channel=8, data=[69, 0]),
   midi.NoteOnEvent(tick=20, channel=8, data=[67, 92]),
   midi.NoteOnEvent(tick=100, channel=8, data=[67, 0]),
   midi.NoteOnEvent(tick=20, channel=8, data=[69, 92]),
   midi.NoteOnEvent(tick=100, channel=8, data=[69, 0]),
   midi.NoteOnEvent(tick=20, channel=8, data=[67, 92]),
   midi.NoteOnEvent(tick=100, channel=8, data=[67, 0]),
   midi.NoteOnEvent(tick=20, channel=8, data=[69, 92]),
   midi.NoteOnEvent(tick=100, channel=8, data=[69, 0]),
   midi.NoteOnEvent(tick=20, channel=8, data=[67, 92]),
   midi.NoteOnEvent(tick=100, channel=8, data=[67, 0]),
   midi.NoteOnEvent(tick=20, channel=8, data=[67, 92]),
   midi.NoteOnEvent(tick=210, channel=8, data=[67, 0]),
   midi.NoteOnEvent(tick=30, channel=8, data=[69, 92]),
   midi.NoteOnEvent(tick=100, channel=8, data=[69, 0]),
   midi.NoteOnEvent(tick=20, channel=8, data=[67, 92]),
   midi.NoteOnEvent(tick=100, channel=8, data=[67, 0]),
   midi.NoteOnEvent(tick=20, channel=8, data=[69, 92]),
   midi.NoteOnEvent(tick=100, channel=8, data=[69, 0]),
   midi.NoteOnEvent(tick=20, channel=8, data=[67, 92]),
   midi.NoteOnEvent(tick=100, channel=8, data=[67, 0]),
   midi.NoteOnEvent(tick=20, channel=8, data=[69, 92]),
   midi.NoteOnEvent(tick=100, channel=8, data=[69, 0]),
   midi.NoteOnEvent(tick=20, channel=8, data=[67, 92]),
   midi.NoteOnEvent(tick=100, channel=8, data=[67, 0]),
   midi.NoteOnEvent(tick=20, channel=8, data=[64, 60]),
   midi.NoteOnEvent(tick=100, channel=8, data=[64, 0]),
   midi.NoteOnEvent(tick=20, channel=8, data=[64, 60]),
   midi.NoteOnEvent(tick=100, channel=8, data=[64, 0]),
   midi.NoteOnEvent(tick=20, channel=8, data=[64, 60]),
   midi.NoteOnEvent(tick=100, channel=8, data=[64, 0]),
   midi.NoteOnEvent(tick=140, channel=8, data=[64, 60]),
   midi.NoteOnEvent(tick=100, channel=8, data=[64, 0]),
   midi.NoteOnEvent(tick=20, channel=8, data=[64, 60]),
   midi.NoteOnEvent(tick=100, channel=8, data=[64, 0]),
   midi.NoteOnEvent(tick=20, channel=8, data=[64, 60]),
   midi.NoteOnEvent(tick=100, channel=8, data=[64, 0]),
   midi.NoteOnEvent(tick=140, channel=8, data=[65, 60]),
   midi.NoteOnEvent(tick=100, channel=8, data=[65, 0]),
   midi.NoteOnEvent(tick=20, channel=8, data=[65, 60]),
   midi.NoteOnEvent(tick=100, channel=8, data=[65, 0]),
   midi.NoteOnEvent(tick=20, channel=8, data=[65, 60]),
   midi.NoteOnEvent(tick=100, channel=8, data=[65, 0]),
   midi.NoteOnEvent(tick=140, channel=8, data=[65, 60]),
   midi.NoteOnEvent(tick=100, channel=8, data=[65, 0]),
   midi.NoteOnEvent(tick=20, channel=8, data=[65, 60]),
   midi.NoteOnEvent(tick=100, channel=8, data=[65, 0]),
   midi.NoteOnEvent(tick=20, channel=8, data=[65, 60]),
   midi.NoteOnEvent(tick=100, channel=8, data=[65, 0]),
   midi.NoteOnEvent(tick=140, channel=8, data=[64, 60]),
   midi.NoteOnEvent(tick=100, channel=8, data=[64, 0]),
   midi.NoteOnEvent(tick=20, channel=8, data=[64, 60]),
   midi.NoteOnEvent(tick=100, channel=8, data=[64, 0]),
   midi.NoteOnEvent(tick=20, channel=8, data=[64, 60]),
   midi.NoteOnEvent(tick=100, channel=8, data=[64, 0]),
   midi.NoteOnEvent(tick=140, channel=8, data=[64, 60]),
   midi.NoteOnEvent(tick=100, channel=8, data=[64, 0]),
   midi.NoteOnEvent(tick=20, channel=8, data=[64, 60]),
   midi.NoteOnEvent(tick=100, channel=8, data=[64, 0]),
   midi.NoteOnEvent(tick=20, channel=8, data=[64, 60]),
   midi.NoteOnEvent(tick=100, channel=8, data=[64, 0]),
   midi.NoteOnEvent(tick=20, channel=8, data=[59, 60]),
   midi.NoteOnEvent(tick=120, channel=8, data=[59, 0]),
   midi.NoteOnEvent(tick=0, channel=8, data=[55, 60]),
   midi.NoteOnEvent(tick=120, channel=8, data=[55, 0]),
   midi.NoteOnEvent(tick=0, channel=8, data=[60, 60]),
   midi.NoteOnEvent(tick=120, channel=8, data=[60, 0]),
   midi.NoteOnEvent(tick=0, channel=8, data=[55, 60]),
   midi.NoteOnEvent(tick=120, channel=8, data=[55, 0]),
   midi.NoteOnEvent(tick=0, channel=8, data=[62, 60]),
   midi.NoteOnEvent(tick=120, channel=8, data=[62, 0]),
   midi.NoteOnEvent(tick=0, channel=8, data=[55, 60]),
   midi.NoteOnEvent(tick=120, channel=8, data=[55, 0]),
   midi.NoteOnEvent(tick=0, channel=8, data=[59, 60]),
   midi.NoteOnEvent(tick=120, channel=8, data=[59, 0]),
   midi.NoteOnEvent(tick=0, channel=8, data=[55, 60]),
   midi.NoteOnEvent(tick=100, channel=8, data=[55, 0]),
   midi.NoteOnEvent(tick=20, channel=8, data=[60, 60]),
   midi.NoteOnEvent(tick=100, channel=8, data=[60, 0]),
   midi.NoteOnEvent(tick=20, channel=8, data=[64, 60]),
   midi.NoteOnEvent(tick=100, channel=8, data=[64, 0]),
   midi.NoteOnEvent(tick=20, channel=8, data=[64, 60]),
   midi.NoteOnEvent(tick=100, channel=8, data=[64, 0]),
   midi.NoteOnEvent(tick=20, channel=8, data=[64, 60]),
   midi.NoteOnEvent(tick=100, channel=8, data=[64, 0]),
   midi.NoteOnEvent(tick=140, channel=8, data=[64, 60]),
   midi.NoteOnEvent(tick=100, channel=8, data=[64, 0]),
   midi.NoteOnEvent(tick=20, channel=8, data=[64, 60]),
   midi.NoteOnEvent(tick=100, channel=8, data=[64, 0]),
   midi.NoteOnEvent(tick=20, channel=8, data=[64, 60]),
   midi.NoteOnEvent(tick=100, channel=8, data=[64, 0]),
   midi.NoteOnEvent(tick=140, channel=8, data=[65, 60]),
   midi.NoteOnEvent(tick=100, channel=8, data=[65, 0]),
   midi.NoteOnEvent(tick=20, channel=8, data=[65, 60]),
   midi.NoteOnEvent(tick=100, channel=8, data=[65, 0]),
   midi.NoteOnEvent(tick=20, channel=8, data=[65, 60]),
   midi.NoteOnEvent(tick=100, channel=8, data=[65, 0]),
   midi.NoteOnEvent(tick=140, channel=8, data=[65, 60]),
   midi.NoteOnEvent(tick=100, channel=8, data=[65, 0]),
   midi.NoteOnEvent(tick=20, channel=8, data=[65, 60]),
   midi.NoteOnEvent(tick=100, channel=8, data=[65, 0]),
   midi.NoteOnEvent(tick=20, channel=8, data=[65, 60]),
   midi.NoteOnEvent(tick=100, channel=8, data=[65, 0]),
   midi.NoteOnEvent(tick=140, channel=8, data=[64, 60]),
   midi.NoteOnEvent(tick=100, channel=8, data=[64, 0]),
   midi.NoteOnEvent(tick=20, channel=8, data=[64, 60]),
   midi.NoteOnEvent(tick=100, channel=8, data=[64, 0]),
   midi.NoteOnEvent(tick=20, channel=8, data=[64, 60]),
   midi.NoteOnEvent(tick=100, channel=8, data=[64, 0]),
   midi.NoteOnEvent(tick=140, channel=8, data=[64, 60]),
   midi.NoteOnEvent(tick=100, channel=8, data=[64, 0]),
   midi.NoteOnEvent(tick=20, channel=8, data=[64, 60]),
   midi.NoteOnEvent(tick=100, channel=8, data=[64, 0]),
   midi.NoteOnEvent(tick=20, channel=8, data=[64, 60]),
   midi.NoteOnEvent(tick=100, channel=8, data=[64, 0]),
   midi.NoteOnEvent(tick=20, channel=8, data=[59, 60]),
   midi.NoteOnEvent(tick=120, channel=8, data=[59, 0]),
   midi.NoteOnEvent(tick=0, channel=8, data=[55, 60]),
   midi.NoteOnEvent(tick=120, channel=8, data=[55, 0]),
   midi.NoteOnEvent(tick=0, channel=8, data=[60, 60]),
   midi.NoteOnEvent(tick=120, channel=8, data=[60, 0]),
   midi.NoteOnEvent(tick=0, channel=8, data=[55, 60]),
   midi.NoteOnEvent(tick=120, channel=8, data=[55, 0]),
   midi.NoteOnEvent(tick=0, channel=8, data=[62, 60]),
   midi.NoteOnEvent(tick=120, channel=8, data=[62, 0]),
   midi.NoteOnEvent(tick=0, channel=8, data=[55, 60]),
   midi.NoteOnEvent(tick=120, channel=8, data=[55, 0]),
   midi.NoteOnEvent(tick=0, channel=8, data=[59, 60]),
   midi.NoteOnEvent(tick=120, channel=8, data=[59, 0]),
   midi.NoteOnEvent(tick=0, channel=8, data=[55, 60]),
   midi.NoteOnEvent(tick=100, channel=8, data=[55, 0]),
   midi.NoteOnEvent(tick=20, channel=8, data=[60, 60]),
   midi.NoteOnEvent(tick=58, channel=8, data=[60, 0]),
   midi.NoteOnEvent(tick=2, channel=8, data=[60, 60]),
   midi.NoteOnEvent(tick=58, channel=8, data=[60, 0]),
   midi.NoteOnEvent(tick=2, channel=8, data=[60, 60]),
   midi.NoteOnEvent(tick=58, channel=8, data=[60, 0]),
   midi.NoteOnEvent(tick=2, channel=8, data=[60, 60]),
   midi.NoteOnEvent(tick=58, channel=8, data=[60, 0]),
   midi.NoteOnEvent(tick=2, channel=8, data=[60, 60]),
   midi.NoteOnEvent(tick=58, channel=8, data=[60, 0]),
   midi.NoteOnEvent(tick=2, channel=8, data=[60, 60]),
   midi.NoteOnEvent(tick=58, channel=8, data=[60, 0]),
   midi.NoteOnEvent(tick=2, channel=8, data=[60, 60]),
   midi.NoteOnEvent(tick=58, channel=8, data=[60, 0]),
   midi.NoteOnEvent(tick=2, channel=8, data=[60, 60]),
   midi.NoteOnEvent(tick=58, channel=8, data=[60, 0]),
   midi.NoteOnEvent(tick=2, channel=8, data=[64, 60]),
   midi.NoteOnEvent(tick=15, channel=8, data=[64, 0]),
   midi.NoteOnEvent(tick=0, channel=8, data=[62, 60]),
   midi.NoteOnEvent(tick=45, channel=8, data=[62, 0]),
   midi.NoteOnEvent(tick=0, channel=8, data=[60, 60]),
   midi.NoteOnEvent(tick=58, channel=8, data=[60, 0]),
   midi.NoteOnEvent(tick=2, channel=8, data=[60, 60]),
   midi.NoteOnEvent(tick=20, channel=8, data=[60, 0]),
   midi.NoteOnEvent(tick=40, channel=8, data=[60, 60]),
   midi.NoteOnEvent(tick=20, channel=8, data=[60, 0]),
   midi.NoteOnEvent(tick=40, channel=8, data=[59, 60]),
   midi.NoteOnEvent(tick=60, channel=8, data=[59, 0]),
   midi.NoteOnEvent(tick=0, channel=8, data=[60, 60]),
   midi.NoteOnEvent(tick=58, channel=8, data=[60, 0]),
   midi.NoteOnEvent(tick=2, channel=8, data=[59, 60]),
   midi.NoteOnEvent(tick=60, channel=8, data=[59, 0]),
   midi.NoteOnEvent(tick=0, channel=8, data=[60, 60]),
   midi.NoteOnEvent(tick=58, channel=8, data=[60, 0]),
   midi.NoteOnEvent(tick=2, channel=8, data=[66, 60]),
   midi.NoteOnEvent(tick=960, channel=8, data=[66, 0]),
   midi.NoteOnEvent(tick=0, channel=8, data=[67, 60]),
   midi.NoteOnEvent(tick=58, channel=8, data=[67, 0]),
   midi.NoteOnEvent(tick=2, channel=8, data=[67, 60]),
   midi.NoteOnEvent(tick=20, channel=8, data=[67, 0]),
   midi.NoteOnEvent(tick=40, channel=8, data=[67, 60]),
   midi.NoteOnEvent(tick=20, channel=8, data=[67, 0]),
   midi.NoteOnEvent(tick=40, channel=8, data=[67, 60]),
   midi.NoteOnEvent(tick=20, channel=8, data=[67, 0]),
   midi.NoteOnEvent(tick=40, channel=8, data=[67, 60]),
   midi.NoteOnEvent(tick=58, channel=8, data=[67, 0]),
   midi.NoteOnEvent(tick=2, channel=8, data=[67, 60]),
   midi.NoteOnEvent(tick=58, channel=8, data=[67, 0]),
   midi.NoteOnEvent(tick=2, channel=8, data=[67, 60]),
   midi.NoteOnEvent(tick=58, channel=8, data=[67, 0]),
   midi.NoteOnEvent(tick=2, channel=8, data=[67, 60]),
   midi.NoteOnEvent(tick=58, channel=8, data=[67, 0]),
   midi.NoteOnEvent(tick=2, channel=8, data=[71, 60]),
   midi.NoteOnEvent(tick=15, channel=8, data=[71, 0]),
   midi.NoteOnEvent(tick=0, channel=8, data=[69, 60]),
   midi.NoteOnEvent(tick=45, channel=8, data=[69, 0]),
   midi.NoteOnEvent(tick=0, channel=8, data=[67, 60]),
   midi.NoteOnEvent(tick=58, channel=8, data=[67, 0]),
   midi.NoteOnEvent(tick=2, channel=8, data=[67, 60]),
   midi.NoteOnEvent(tick=20, channel=8, data=[67, 0]),
   midi.NoteOnEvent(tick=40, channel=8, data=[67, 60]),
   midi.NoteOnEvent(tick=20, channel=8, data=[67, 0]),
   midi.NoteOnEvent(tick=40, channel=8, data=[66, 60]),
   midi.NoteOnEvent(tick=60, channel=8, data=[66, 0]),
   midi.NoteOnEvent(tick=0, channel=8, data=[67, 60]),
   midi.NoteOnEvent(tick=58, channel=8, data=[67, 0]),
   midi.NoteOnEvent(tick=2, channel=8, data=[66, 60]),
   midi.NoteOnEvent(tick=60, channel=8, data=[66, 0]),
   midi.NoteOnEvent(tick=0, channel=8, data=[67, 60]),
   midi.NoteOnEvent(tick=58, channel=8, data=[67, 0]),
   midi.NoteOnEvent(tick=2, channel=8, data=[73, 60]),
   midi.NoteOnEvent(tick=930, channel=8, data=[73, 0]),
   midi.NoteOnEvent(tick=30, channel=8, data=[74, 92]),
   midi.NoteOnEvent(tick=100, channel=8, data=[74, 0]),
   midi.NoteOnEvent(tick=20, channel=8, data=[69, 92]),
   midi.NoteOnEvent(tick=210, channel=8, data=[69, 0]),
   midi.NoteOnEvent(tick=30, channel=8, data=[71, 92]),
   midi.NoteOnEvent(tick=100, channel=8, data=[71, 0]),
   midi.NoteOnEvent(tick=20, channel=8, data=[69, 92]),
   midi.NoteOnEvent(tick=100, channel=8, data=[69, 0]),
   midi.NoteOnEvent(tick=20, channel=8, data=[71, 92]),
   midi.NoteOnEvent(tick=100, channel=8, data=[71, 0]),
   midi.NoteOnEvent(tick=20, channel=8, data=[72, 92]),
   midi.NoteOnEvent(tick=100, channel=8, data=[72, 0]),
   midi.NoteOnEvent(tick=20, channel=8, data=[71, 92]),
   midi.NoteOnEvent(tick=100, channel=8, data=[71, 0]),
   midi.NoteOnEvent(tick=20, channel=8, data=[69, 92]),
   midi.NoteOnEvent(tick=100, channel=8, data=[69, 0]),
   midi.NoteOnEvent(tick=20, channel=8, data=[69, 92]),
   midi.NoteOnEvent(tick=210, channel=8, data=[69, 0]),
   midi.NoteOnEvent(tick=30, channel=8, data=[71, 92]),
   midi.NoteOnEvent(tick=100, channel=8, data=[71, 0]),
   midi.NoteOnEvent(tick=20, channel=8, data=[69, 92]),
   midi.NoteOnEvent(tick=100, channel=8, data=[69, 0]),
   midi.NoteOnEvent(tick=20, channel=8, data=[71, 92]),
   midi.NoteOnEvent(tick=100, channel=8, data=[71, 0]),
   midi.NoteOnEvent(tick=20, channel=8, data=[72, 92]),
   midi.NoteOnEvent(tick=100, channel=8, data=[72, 0]),
   midi.NoteOnEvent(tick=20, channel=8, data=[71, 92]),
   midi.NoteOnEvent(tick=100, channel=8, data=[71, 0]),
   midi.NoteOnEvent(tick=20, channel=8, data=[69, 92]),
   midi.NoteOnEvent(tick=100, channel=8, data=[69, 0]),
   midi.NoteOnEvent(tick=860, channel=8, data=[67, 60]),
   midi.NoteOnEvent(tick=60, channel=8, data=[67, 0]),
   midi.NoteOnEvent(tick=0, channel=8, data=[69, 60]),
   midi.NoteOnEvent(tick=60, channel=8, data=[69, 0]),
   midi.NoteOnEvent(tick=0, channel=8, data=[70, 60]),
   midi.NoteOnEvent(tick=60, channel=8, data=[70, 0]),
   midi.NoteOnEvent(tick=0, channel=8, data=[69, 60]),
   midi.NoteOnEvent(tick=60, channel=8, data=[69, 0]),
   midi.NoteOnEvent(tick=0, channel=8, data=[67, 60]),
   midi.NoteOnEvent(tick=100, channel=8, data=[67, 0]),
   midi.NoteOnEvent(tick=140, channel=8, data=[69, 60]),
   midi.NoteOnEvent(tick=60, channel=8, data=[69, 0]),
   midi.NoteOnEvent(tick=0, channel=8, data=[70, 60]),
   midi.NoteOnEvent(tick=60, channel=8, data=[70, 0]),
   midi.NoteOnEvent(tick=0, channel=8, data=[72, 60]),
   midi.NoteOnEvent(tick=60, channel=8, data=[72, 0]),
   midi.NoteOnEvent(tick=0, channel=8, data=[70, 60]),
   midi.NoteOnEvent(tick=60, channel=8, data=[70, 0]),
   midi.NoteOnEvent(tick=0, channel=8, data=[69, 60]),
   midi.NoteOnEvent(tick=60, channel=8, data=[69, 0]),
   midi.NoteOnEvent(tick=0, channel=8, data=[70, 60]),
   midi.NoteOnEvent(tick=60, channel=8, data=[70, 0]),
   midi.NoteOnEvent(tick=0, channel=8, data=[69, 60]),
   midi.NoteOnEvent(tick=60, channel=8, data=[69, 0]),
   midi.NoteOnEvent(tick=0, channel=8, data=[67, 60]),
   midi.NoteOnEvent(tick=60, channel=8, data=[67, 0]),
   midi.NoteOnEvent(tick=0, channel=8, data=[66, 60]),
   midi.NoteOnEvent(tick=60, channel=8, data=[66, 0]),
   midi.NoteOnEvent(tick=0, channel=8, data=[67, 60]),
   midi.NoteOnEvent(tick=60, channel=8, data=[67, 0]),
   midi.NoteOnEvent(tick=0, channel=8, data=[69, 60]),
   midi.NoteOnEvent(tick=60, channel=8, data=[69, 0]),
   midi.NoteOnEvent(tick=0, channel=8, data=[67, 60]),
   midi.NoteOnEvent(tick=60, channel=8, data=[67, 0]),
   midi.NoteOnEvent(tick=0, channel=8, data=[66, 60]),
   midi.NoteOnEvent(tick=100, channel=8, data=[66, 0]),
   midi.NoteOnEvent(tick=140, channel=8, data=[67, 60]),
   midi.NoteOnEvent(tick=60, channel=8, data=[67, 0]),
   midi.NoteOnEvent(tick=0, channel=8, data=[69, 60]),
   midi.NoteOnEvent(tick=60, channel=8, data=[69, 0]),
   midi.NoteOnEvent(tick=0, channel=8, data=[70, 60]),
   midi.NoteOnEvent(tick=60, channel=8, data=[70, 0]),
   midi.NoteOnEvent(tick=0, channel=8, data=[69, 60]),
   midi.NoteOnEvent(tick=60, channel=8, data=[69, 0]),
   midi.NoteOnEvent(tick=0, channel=8, data=[67, 60]),
   midi.NoteOnEvent(tick=60, channel=8, data=[67, 0]),
   midi.NoteOnEvent(tick=0, channel=8, data=[69, 60]),
   midi.NoteOnEvent(tick=60, channel=8, data=[69, 0]),
   midi.NoteOnEvent(tick=0, channel=8, data=[67, 60]),
   midi.NoteOnEvent(tick=60, channel=8, data=[67, 0]),
   midi.NoteOnEvent(tick=0, channel=8, data=[65, 60]),
   midi.NoteOnEvent(tick=60, channel=8, data=[65, 0]),
   midi.NoteOnEvent(tick=0, channel=8, data=[64, 60]),
   midi.NoteOnEvent(tick=60, channel=8, data=[64, 0]),
   midi.NoteOnEvent(tick=0, channel=8, data=[66, 60]),
   midi.NoteOnEvent(tick=60, channel=8, data=[66, 0]),
   midi.NoteOnEvent(tick=0, channel=8, data=[67, 60]),
   midi.NoteOnEvent(tick=60, channel=8, data=[67, 0]),
   midi.NoteOnEvent(tick=0, channel=8, data=[66, 60]),
   midi.NoteOnEvent(tick=60, channel=8, data=[66, 0]),
   midi.NoteOnEvent(tick=0, channel=8, data=[64, 60]),
   midi.NoteOnEvent(tick=100, channel=8, data=[64, 0]),
   midi.NoteOnEvent(tick=140, channel=8, data=[66, 60]),
   midi.NoteOnEvent(tick=60, channel=8, data=[66, 0]),
   midi.NoteOnEvent(tick=0, channel=8, data=[67, 60]),
   midi.NoteOnEvent(tick=60, channel=8, data=[67, 0]),
   midi.NoteOnEvent(tick=0, channel=8, data=[69, 60]),
   midi.NoteOnEvent(tick=60, channel=8, data=[69, 0]),
   midi.NoteOnEvent(tick=0, channel=8, data=[67, 60]),
   midi.NoteOnEvent(tick=60, channel=8, data=[67, 0]),
   midi.NoteOnEvent(tick=0, channel=8, data=[66, 60]),
   midi.NoteOnEvent(tick=60, channel=8, data=[66, 0]),
   midi.NoteOnEvent(tick=0, channel=8, data=[62, 60]),
   midi.NoteOnEvent(tick=60, channel=8, data=[62, 0]),
   midi.NoteOnEvent(tick=0, channel=8, data=[64, 60]),
   midi.NoteOnEvent(tick=60, channel=8, data=[64, 0]),
   midi.NoteOnEvent(tick=0, channel=8, data=[66, 60]),
   midi.NoteOnEvent(tick=58, channel=8, data=[66, 0]),
   midi.NoteOnEvent(tick=2, channel=8, data=[67, 60]),
   midi.NoteOnEvent(tick=100, channel=8, data=[67, 0]),
   midi.NoteOnEvent(tick=20, channel=8, data=[83, 92]),
   midi.NoteOnEvent(tick=210, channel=8, data=[83, 0]),
   midi.NoteOnEvent(tick=30, channel=8, data=[82, 92]),
   midi.NoteOnEvent(tick=100, channel=8, data=[82, 0]),
   midi.NoteOnEvent(tick=20, channel=8, data=[83, 92]),
   midi.NoteOnEvent(tick=100, channel=8, data=[83, 0]),
   midi.NoteOnEvent(tick=20, channel=8, data=[82, 92]),
   midi.NoteOnEvent(tick=100, channel=8, data=[82, 0]),
   midi.NoteOnEvent(tick=20, channel=8, data=[83, 92]),
   midi.NoteOnEvent(tick=100, channel=8, data=[83, 0]),
   midi.NoteOnEvent(tick=20, channel=8, data=[78, 92]),
   midi.NoteOnEvent(tick=100, channel=8, data=[78, 0]),
   midi.NoteOnEvent(tick=20, channel=8, data=[79, 92]),
   midi.NoteOnEvent(tick=100, channel=8, data=[79, 0]),
   midi.NoteOnEvent(tick=20, channel=8, data=[79, 92]),
   midi.NoteOnEvent(tick=210, channel=8, data=[79, 0]),
   midi.NoteOnEvent(tick=30, channel=8, data=[78, 92]),
   midi.NoteOnEvent(tick=100, channel=8, data=[78, 0]),
   midi.NoteOnEvent(tick=20, channel=8, data=[79, 92]),
   midi.NoteOnEvent(tick=100, channel=8, data=[79, 0]),
   midi.NoteOnEvent(tick=20, channel=8, data=[78, 92]),
   midi.NoteOnEvent(tick=100, channel=8, data=[78, 0]),
   midi.NoteOnEvent(tick=20, channel=8, data=[79, 92]),
   midi.NoteOnEvent(tick=100, channel=8, data=[79, 0]),
   midi.NoteOnEvent(tick=20, channel=8, data=[75, 92]),
   midi.NoteOnEvent(tick=100, channel=8, data=[75, 0]),
   midi.NoteOnEvent(tick=20, channel=8, data=[76, 92]),
   midi.NoteOnEvent(tick=100, channel=8, data=[76, 0]),
   midi.NoteOnEvent(tick=20, channel=8, data=[76, 92]),
   midi.NoteOnEvent(tick=210, channel=8, data=[76, 0]),
   midi.NoteOnEvent(tick=30, channel=8, data=[75, 92]),
   midi.NoteOnEvent(tick=100, channel=8, data=[75, 0]),
   midi.NoteOnEvent(tick=20, channel=8, data=[76, 92]),
   midi.NoteOnEvent(tick=100, channel=8, data=[76, 0]),
   midi.NoteOnEvent(tick=20, channel=8, data=[75, 92]),
   midi.NoteOnEvent(tick=100, channel=8, data=[75, 0]),
   midi.NoteOnEvent(tick=20, channel=8, data=[76, 92]),
   midi.NoteOnEvent(tick=100, channel=8, data=[76, 0]),
   midi.NoteOnEvent(tick=20, channel=8, data=[77, 92]),
   midi.NoteOnEvent(tick=100, channel=8, data=[77, 0]),
   midi.NoteOnEvent(tick=20, channel=8, data=[76, 92]),
   midi.NoteOnEvent(tick=58, channel=8, data=[76, 0]),
   midi.NoteOnEvent(tick=2, channel=8, data=[76, 92]),
   midi.NoteOnEvent(tick=58, channel=8, data=[76, 0]),
   midi.NoteOnEvent(tick=2, channel=8, data=[76, 92]),
   midi.NoteOnEvent(tick=58, channel=8, data=[76, 0]),
   midi.NoteOnEvent(tick=2, channel=8, data=[76, 92]),
   midi.NoteOnEvent(tick=58, channel=8, data=[76, 0]),
   midi.NoteOnEvent(tick=2, channel=8, data=[76, 92]),
   midi.NoteOnEvent(tick=58, channel=8, data=[76, 0]),
   midi.NoteOnEvent(tick=2, channel=8, data=[76, 92]),
   midi.NoteOnEvent(tick=58, channel=8, data=[76, 0]),
   midi.NoteOnEvent(tick=2, channel=8, data=[82, 92]),
   midi.NoteOnEvent(tick=58, channel=8, data=[82, 0]),
   midi.NoteOnEvent(tick=2, channel=8, data=[82, 92]),
   midi.NoteOnEvent(tick=58, channel=8, data=[82, 0]),
   midi.NoteOnEvent(tick=2, channel=8, data=[81, 92]),
   midi.NoteOnEvent(tick=58, channel=8, data=[81, 0]),
   midi.NoteOnEvent(tick=2, channel=8, data=[81, 92]),
   midi.NoteOnEvent(tick=58, channel=8, data=[81, 0]),
   midi.NoteOnEvent(tick=2, channel=8, data=[78, 92]),
   midi.NoteOnEvent(tick=58, channel=8, data=[78, 0]),
   midi.NoteOnEvent(tick=2, channel=8, data=[78, 92]),
   midi.NoteOnEvent(tick=58, channel=8, data=[78, 0]),
   midi.NoteOnEvent(tick=2, channel=8, data=[79, 92]),
   midi.NoteOnEvent(tick=58, channel=8, data=[79, 0]),
   midi.NoteOnEvent(tick=2, channel=8, data=[79, 92]),
   midi.NoteOnEvent(tick=58, channel=8, data=[79, 0]),
   midi.NoteOnEvent(tick=2, channel=8, data=[74, 92]),
   midi.NoteOnEvent(tick=58, channel=8, data=[74, 0]),
   midi.NoteOnEvent(tick=2, channel=8, data=[74, 92]),
   midi.NoteOnEvent(tick=58, channel=8, data=[74, 0]),
   midi.NoteOnEvent(tick=2, channel=8, data=[79, 92]),
   midi.NoteOnEvent(tick=58, channel=8, data=[79, 0]),
   midi.NoteOnEvent(tick=2, channel=8, data=[79, 92]),
   midi.NoteOnEvent(tick=58, channel=8, data=[79, 0]),
   midi.NoteOnEvent(tick=2, channel=8, data=[79, 92]),
   midi.NoteOnEvent(tick=58, channel=8, data=[79, 0]),
   midi.NoteOnEvent(tick=2, channel=8, data=[79, 92]),
   midi.NoteOnEvent(tick=58, channel=8, data=[79, 0]),
   midi.NoteOnEvent(tick=2, channel=8, data=[79, 92]),
   midi.NoteOnEvent(tick=58, channel=8, data=[79, 0]),
   midi.NoteOnEvent(tick=2, channel=8, data=[79, 92]),
   midi.NoteOnEvent(tick=58, channel=8, data=[79, 0]),
   midi.NoteOnEvent(tick=2, channel=8, data=[79, 92]),
   midi.NoteOnEvent(tick=58, channel=8, data=[79, 0]),
   midi.NoteOnEvent(tick=2, channel=8, data=[79, 92]),
   midi.NoteOnEvent(tick=58, channel=8, data=[79, 0]),
   midi.NoteOnEvent(tick=2, channel=8, data=[79, 92]),
   midi.NoteOnEvent(tick=58, channel=8, data=[79, 0]),
   midi.NoteOnEvent(tick=2, channel=8, data=[79, 92]),
   midi.NoteOnEvent(tick=58, channel=8, data=[79, 0]),
   midi.NoteOnEvent(tick=2, channel=8, data=[79, 92]),
   midi.NoteOnEvent(tick=58, channel=8, data=[79, 0]),
   midi.NoteOnEvent(tick=2, channel=8, data=[79, 92]),
   midi.NoteOnEvent(tick=58, channel=8, data=[79, 0]),
   midi.NoteOnEvent(tick=2, channel=8, data=[79, 92]),
   midi.NoteOnEvent(tick=58, channel=8, data=[79, 0]),
   midi.NoteOnEvent(tick=2, channel=8, data=[79, 92]),
   midi.NoteOnEvent(tick=58, channel=8, data=[79, 0]),
   midi.NoteOnEvent(tick=2, channel=8, data=[79, 92]),
   midi.NoteOnEvent(tick=58, channel=8, data=[79, 0]),
   midi.NoteOnEvent(tick=2, channel=8, data=[79, 92]),
   midi.NoteOnEvent(tick=58, channel=8, data=[79, 0]),
   midi.NoteOnEvent(tick=2, channel=8, data=[79, 92]),
   midi.NoteOnEvent(tick=58, channel=8, data=[79, 0]),
   midi.NoteOnEvent(tick=2, channel=8, data=[79, 92]),
   midi.NoteOnEvent(tick=58, channel=8, data=[79, 0]),
   midi.NoteOnEvent(tick=2, channel=8, data=[79, 92]),
   midi.NoteOnEvent(tick=58, channel=8, data=[79, 0]),
   midi.NoteOnEvent(tick=2, channel=8, data=[79, 92]),
   midi.NoteOnEvent(tick=58, channel=8, data=[79, 0]),
   midi.NoteOnEvent(tick=2, channel=8, data=[78, 92]),
   midi.NoteOnEvent(tick=58, channel=8, data=[78, 0]),
   midi.NoteOnEvent(tick=2, channel=8, data=[78, 92]),
   midi.NoteOnEvent(tick=58, channel=8, data=[78, 0]),
   midi.NoteOnEvent(tick=2, channel=8, data=[81, 92]),
   midi.NoteOnEvent(tick=58, channel=8, data=[81, 0]),
   midi.NoteOnEvent(tick=2, channel=8, data=[81, 92]),
   midi.NoteOnEvent(tick=58, channel=8, data=[81, 0]),
   midi.NoteOnEvent(tick=2, channel=8, data=[79, 92]),
   midi.NoteOnEvent(tick=58, channel=8, data=[79, 0]),
   midi.NoteOnEvent(tick=2, channel=8, data=[79, 92]),
   midi.NoteOnEvent(tick=58, channel=8, data=[79, 0]),
   midi.NoteOnEvent(tick=2, channel=8, data=[79, 92]),
   midi.NoteOnEvent(tick=58, channel=8, data=[79, 0]),
   midi.NoteOnEvent(tick=2, channel=8, data=[79, 92]),
   midi.NoteOnEvent(tick=58, channel=8, data=[79, 0]),
   midi.NoteOnEvent(tick=2, channel=8, data=[79, 92]),
   midi.NoteOnEvent(tick=58, channel=8, data=[79, 0]),
   midi.NoteOnEvent(tick=2, channel=8, data=[79, 92]),
   midi.NoteOnEvent(tick=58, channel=8, data=[79, 0]),
   midi.NoteOnEvent(tick=2, channel=8, data=[79, 92]),
   midi.NoteOnEvent(tick=58, channel=8, data=[79, 0]),
   midi.NoteOnEvent(tick=2, channel=8, data=[79, 92]),
   midi.NoteOnEvent(tick=58, channel=8, data=[79, 0]),
   midi.NoteOnEvent(tick=2, channel=8, data=[79, 92]),
   midi.NoteOnEvent(tick=58, channel=8, data=[79, 0]),
   midi.NoteOnEvent(tick=2, channel=8, data=[79, 92]),
   midi.NoteOnEvent(tick=58, channel=8, data=[79, 0]),
   midi.NoteOnEvent(tick=2, channel=8, data=[79, 92]),
   midi.NoteOnEvent(tick=58, channel=8, data=[79, 0]),
   midi.NoteOnEvent(tick=2, channel=8, data=[79, 92]),
   midi.NoteOnEvent(tick=58, channel=8, data=[79, 0]),
   midi.NoteOnEvent(tick=2, channel=8, data=[79, 92]),
   midi.NoteOnEvent(tick=58, channel=8, data=[79, 0]),
   midi.NoteOnEvent(tick=2, channel=8, data=[79, 92]),
   midi.NoteOnEvent(tick=58, channel=8, data=[79, 0]),
   midi.NoteOnEvent(tick=2, channel=8, data=[79, 92]),
   midi.NoteOnEvent(tick=58, channel=8, data=[79, 0]),
   midi.NoteOnEvent(tick=2, channel=8, data=[79, 92]),
   midi.NoteOnEvent(tick=58, channel=8, data=[79, 0]),
   midi.NoteOnEvent(tick=2, channel=8, data=[79, 92]),
   midi.NoteOnEvent(tick=58, channel=8, data=[79, 0]),
   midi.NoteOnEvent(tick=2, channel=8, data=[79, 92]),
   midi.NoteOnEvent(tick=58, channel=8, data=[79, 0]),
   midi.NoteOnEvent(tick=2, channel=8, data=[79, 92]),
   midi.NoteOnEvent(tick=58, channel=8, data=[79, 0]),
   midi.NoteOnEvent(tick=2, channel=8, data=[79, 92]),
   midi.NoteOnEvent(tick=58, channel=8, data=[79, 0]),
   midi.NoteOnEvent(tick=2, channel=8, data=[78, 92]),
   midi.NoteOnEvent(tick=58, channel=8, data=[78, 0]),
   midi.NoteOnEvent(tick=2, channel=8, data=[78, 92]),
   midi.NoteOnEvent(tick=58, channel=8, data=[78, 0]),
   midi.NoteOnEvent(tick=2, channel=8, data=[78, 92]),
   midi.NoteOnEvent(tick=58, channel=8, data=[78, 0]),
   midi.NoteOnEvent(tick=2, channel=8, data=[78, 92]),
   midi.NoteOnEvent(tick=58, channel=8, data=[78, 0]),
   midi.NoteOnEvent(tick=2, channel=8, data=[79, 92]),
   midi.NoteOnEvent(tick=100, channel=8, data=[79, 0]),
   midi.NoteOnEvent(tick=20, channel=8, data=[59, 60]),
   midi.NoteOnEvent(tick=100, channel=8, data=[59, 0]),
   midi.NoteOnEvent(tick=20, channel=8, data=[59, 60]),
   midi.NoteOnEvent(tick=100, channel=8, data=[59, 0]),
   midi.NoteOnEvent(tick=20, channel=8, data=[59, 60]),
   midi.NoteOnEvent(tick=100, channel=8, data=[59, 0]),
   midi.NoteOnEvent(tick=140, channel=8, data=[59, 60]),
   midi.NoteOnEvent(tick=100, channel=8, data=[59, 0]),
   midi.NoteOnEvent(tick=20, channel=8, data=[59, 60]),
   midi.NoteOnEvent(tick=100, channel=8, data=[59, 0]),
   midi.NoteOnEvent(tick=20, channel=8, data=[59, 60]),
   midi.NoteOnEvent(tick=100, channel=8, data=[59, 0]),
   midi.NoteOnEvent(tick=140, channel=8, data=[60, 60]),
   midi.NoteOnEvent(tick=100, channel=8, data=[60, 0]),
   midi.NoteOnEvent(tick=20, channel=8, data=[60, 60]),
   midi.NoteOnEvent(tick=100, channel=8, data=[60, 0]),
   midi.NoteOnEvent(tick=20, channel=8, data=[60, 60]),
   midi.NoteOnEvent(tick=100, channel=8, data=[60, 0]),
   midi.NoteOnEvent(tick=140, channel=8, data=[60, 60]),
   midi.NoteOnEvent(tick=100, channel=8, data=[60, 0]),
   midi.NoteOnEvent(tick=20, channel=8, data=[60, 60]),
   midi.NoteOnEvent(tick=100, channel=8, data=[60, 0]),
   midi.NoteOnEvent(tick=20, channel=8, data=[60, 60]),
   midi.NoteOnEvent(tick=100, channel=8, data=[60, 0]),
   midi.NoteOnEvent(tick=140, channel=8, data=[59, 60]),
   midi.NoteOnEvent(tick=100, channel=8, data=[59, 0]),
   midi.NoteOnEvent(tick=20, channel=8, data=[59, 60]),
   midi.NoteOnEvent(tick=100, channel=8, data=[59, 0]),
   midi.NoteOnEvent(tick=20, channel=8, data=[59, 60]),
   midi.NoteOnEvent(tick=100, channel=8, data=[59, 0]),
   midi.NoteOnEvent(tick=140, channel=8, data=[59, 60]),
   midi.NoteOnEvent(tick=100, channel=8, data=[59, 0]),
   midi.NoteOnEvent(tick=20, channel=8, data=[59, 60]),
   midi.NoteOnEvent(tick=100, channel=8, data=[59, 0]),
   midi.NoteOnEvent(tick=20, channel=8, data=[59, 60]),
   midi.NoteOnEvent(tick=100, channel=8, data=[59, 0]),
   midi.NoteOnEvent(tick=20, channel=8, data=[57, 60]),
   midi.NoteOnEvent(tick=120, channel=8, data=[57, 0]),
   midi.NoteOnEvent(tick=0, channel=8, data=[62, 60]),
   midi.NoteOnEvent(tick=120, channel=8, data=[62, 0]),
   midi.NoteOnEvent(tick=0, channel=8, data=[59, 60]),
   midi.NoteOnEvent(tick=120, channel=8, data=[59, 0]),
   midi.NoteOnEvent(tick=0, channel=8, data=[62, 60]),
   midi.NoteOnEvent(tick=120, channel=8, data=[62, 0]),
   midi.NoteOnEvent(tick=0, channel=8, data=[60, 60]),
   midi.NoteOnEvent(tick=120, channel=8, data=[60, 0]),
   midi.NoteOnEvent(tick=0, channel=8, data=[62, 60]),
   midi.NoteOnEvent(tick=120, channel=8, data=[62, 0]),
   midi.NoteOnEvent(tick=0, channel=8, data=[57, 60]),
   midi.NoteOnEvent(tick=120, channel=8, data=[57, 0]),
   midi.NoteOnEvent(tick=0, channel=8, data=[62, 60]),
   midi.NoteOnEvent(tick=100, channel=8, data=[62, 0]),
   midi.NoteOnEvent(tick=20, channel=8, data=[59, 60]),
   midi.NoteOnEvent(tick=100, channel=8, data=[59, 0]),
   midi.NoteOnEvent(tick=20, channel=8, data=[59, 60]),
   midi.NoteOnEvent(tick=100, channel=8, data=[59, 0]),
   midi.NoteOnEvent(tick=20, channel=8, data=[59, 60]),
   midi.NoteOnEvent(tick=100, channel=8, data=[59, 0]),
   midi.NoteOnEvent(tick=20, channel=8, data=[59, 60]),
   midi.NoteOnEvent(tick=100, channel=8, data=[59, 0]),
   midi.NoteOnEvent(tick=140, channel=8, data=[59, 60]),
   midi.NoteOnEvent(tick=100, channel=8, data=[59, 0]),
   midi.NoteOnEvent(tick=20, channel=8, data=[59, 60]),
   midi.NoteOnEvent(tick=100, channel=8, data=[59, 0]),
   midi.NoteOnEvent(tick=20, channel=8, data=[59, 60]),
   midi.NoteOnEvent(tick=100, channel=8, data=[59, 0]),
   midi.NoteOnEvent(tick=140, channel=8, data=[60, 60]),
   midi.NoteOnEvent(tick=100, channel=8, data=[60, 0]),
   midi.NoteOnEvent(tick=20, channel=8, data=[60, 60]),
   midi.NoteOnEvent(tick=100, channel=8, data=[60, 0]),
   midi.NoteOnEvent(tick=20, channel=8, data=[60, 60]),
   midi.NoteOnEvent(tick=100, channel=8, data=[60, 0]),
   midi.NoteOnEvent(tick=140, channel=8, data=[60, 60]),
   midi.NoteOnEvent(tick=100, channel=8, data=[60, 0]),
   midi.NoteOnEvent(tick=20, channel=8, data=[60, 60]),
   midi.NoteOnEvent(tick=100, channel=8, data=[60, 0]),
   midi.NoteOnEvent(tick=20, channel=8, data=[60, 60]),
   midi.NoteOnEvent(tick=100, channel=8, data=[60, 0]),
   midi.NoteOnEvent(tick=140, channel=8, data=[59, 60]),
   midi.NoteOnEvent(tick=100, channel=8, data=[59, 0]),
   midi.NoteOnEvent(tick=20, channel=8, data=[59, 60]),
   midi.NoteOnEvent(tick=100, channel=8, data=[59, 0]),
   midi.NoteOnEvent(tick=20, channel=8, data=[59, 60]),
   midi.NoteOnEvent(tick=100, channel=8, data=[59, 0]),
   midi.NoteOnEvent(tick=140, channel=8, data=[59, 60]),
   midi.NoteOnEvent(tick=100, channel=8, data=[59, 0]),
   midi.NoteOnEvent(tick=20, channel=8, data=[59, 60]),
   midi.NoteOnEvent(tick=100, channel=8, data=[59, 0]),
   midi.NoteOnEvent(tick=20, channel=8, data=[59, 60]),
   midi.NoteOnEvent(tick=100, channel=8, data=[59, 0]),
   midi.NoteOnEvent(tick=20, channel=8, data=[57, 60]),
   midi.NoteOnEvent(tick=100, channel=8, data=[57, 0]),
   midi.NoteOnEvent(tick=20, channel=8, data=[62, 60]),
   midi.NoteOnEvent(tick=100, channel=8, data=[62, 0]),
   midi.NoteOnEvent(tick=20, channel=8, data=[59, 60]),
   midi.NoteOnEvent(tick=100, channel=8, data=[59, 0]),
   midi.NoteOnEvent(tick=20, channel=8, data=[62, 60]),
   midi.NoteOnEvent(tick=100, channel=8, data=[62, 0]),
   midi.NoteOnEvent(tick=20, channel=8, data=[60, 60]),
   midi.NoteOnEvent(tick=100, channel=8, data=[60, 0]),
   midi.NoteOnEvent(tick=20, channel=8, data=[62, 60]),
   midi.NoteOnEvent(tick=100, channel=8, data=[62, 0]),
   midi.NoteOnEvent(tick=20, channel=8, data=[57, 60]),
   midi.NoteOnEvent(tick=100, channel=8, data=[57, 0]),
   midi.NoteOnEvent(tick=20, channel=8, data=[62, 60]),
   midi.NoteOnEvent(tick=100, channel=8, data=[62, 0]),
   midi.NoteOnEvent(tick=20, channel=8, data=[55, 60]),
   midi.NoteOnEvent(tick=100, channel=8, data=[55, 0]),
   midi.NoteOnEvent(tick=920, channel=8, data=[72, 60]),
   midi.NoteOnEvent(tick=58, channel=8, data=[72, 0]),
   midi.NoteOnEvent(tick=2, channel=8, data=[72, 60]),
   midi.NoteOnEvent(tick=58, channel=8, data=[72, 0]),
   midi.NoteOnEvent(tick=2, channel=8, data=[72, 60]),
   midi.NoteOnEvent(tick=58, channel=8, data=[72, 0]),
   midi.NoteOnEvent(tick=2, channel=8, data=[72, 60]),
   midi.NoteOnEvent(tick=58, channel=8, data=[72, 0]),
   midi.NoteOnEvent(tick=2, channel=8, data=[72, 60]),
   midi.NoteOnEvent(tick=58, channel=8, data=[72, 0]),
   midi.NoteOnEvent(tick=2, channel=8, data=[72, 60]),
   midi.NoteOnEvent(tick=58, channel=8, data=[72, 0]),
   midi.NoteOnEvent(tick=2, channel=8, data=[72, 60]),
   midi.NoteOnEvent(tick=58, channel=8, data=[72, 0]),
   midi.NoteOnEvent(tick=2, channel=8, data=[76, 60]),
   midi.NoteOnEvent(tick=15, channel=8, data=[76, 0]),
   midi.NoteOnEvent(tick=0, channel=8, data=[74, 60]),
   midi.NoteOnEvent(tick=45, channel=8, data=[74, 0]),
   midi.NoteOnEvent(tick=0, channel=8, data=[72, 60]),
   midi.NoteOnEvent(tick=58, channel=8, data=[72, 0]),
   midi.NoteOnEvent(tick=2, channel=8, data=[72, 60]),
   midi.NoteOnEvent(tick=20, channel=8, data=[72, 0]),
   midi.NoteOnEvent(tick=40, channel=8, data=[72, 60]),
   midi.NoteOnEvent(tick=20, channel=8, data=[72, 0]),
   midi.NoteOnEvent(tick=40, channel=8, data=[71, 60]),
   midi.NoteOnEvent(tick=60, channel=8, data=[71, 0]),
   midi.NoteOnEvent(tick=0, channel=8, data=[72, 60]),
   midi.NoteOnEvent(tick=58, channel=8, data=[72, 0]),
   midi.NoteOnEvent(tick=2, channel=8, data=[71, 60]),
   midi.NoteOnEvent(tick=60, channel=8, data=[71, 0]),
   midi.NoteOnEvent(tick=0, channel=8, data=[72, 60]),
   midi.NoteOnEvent(tick=58, channel=8, data=[72, 0]),
   midi.NoteOnEvent(tick=2, channel=8, data=[71, 60]),
   midi.NoteOnEvent(tick=930, channel=8, data=[71, 0]),
   midi.NoteOnEvent(tick=30, channel=8, data=[71, 92]),
   midi.NoteOnEvent(tick=100, channel=8, data=[71, 0]),
   midi.NoteOnEvent(tick=20, channel=8, data=[71, 92]),
   midi.NoteOnEvent(tick=210, channel=8, data=[71, 0]),
   midi.NoteOnEvent(tick=30, channel=8, data=[72, 92]),
   midi.NoteOnEvent(tick=100, channel=8, data=[72, 0]),
   midi.NoteOnEvent(tick=20, channel=8, data=[71, 92]),
   midi.NoteOnEvent(tick=100, channel=8, data=[71, 0]),
   midi.NoteOnEvent(tick=20, channel=8, data=[72, 92]),
   midi.NoteOnEvent(tick=100, channel=8, data=[72, 0]),
   midi.NoteOnEvent(tick=20, channel=8, data=[74, 92]),
   midi.NoteOnEvent(tick=100, channel=8, data=[74, 0]),
   midi.NoteOnEvent(tick=20, channel=8, data=[72, 92]),
   midi.NoteOnEvent(tick=100, channel=8, data=[72, 0]),
   midi.NoteOnEvent(tick=20, channel=8, data=[71, 92]),
   midi.NoteOnEvent(tick=100, channel=8, data=[71, 0]),
   midi.NoteOnEvent(tick=20, channel=8, data=[71, 92]),
   midi.NoteOnEvent(tick=210, channel=8, data=[71, 0]),
   midi.NoteOnEvent(tick=30, channel=8, data=[72, 92]),
   midi.NoteOnEvent(tick=100, channel=8, data=[72, 0]),
   midi.NoteOnEvent(tick=20, channel=8, data=[71, 92]),
   midi.NoteOnEvent(tick=100, channel=8, data=[71, 0]),
   midi.NoteOnEvent(tick=20, channel=8, data=[72, 92]),
   midi.NoteOnEvent(tick=100, channel=8, data=[72, 0]),
   midi.NoteOnEvent(tick=20, channel=8, data=[74, 92]),
   midi.NoteOnEvent(tick=100, channel=8, data=[74, 0]),
   midi.NoteOnEvent(tick=20, channel=8, data=[72, 92]),
   midi.NoteOnEvent(tick=100, channel=8, data=[72, 0]),
   midi.NoteOnEvent(tick=20, channel=8, data=[71, 92]),
   midi.NoteOnEvent(tick=100, channel=8, data=[71, 0]),
   midi.NoteOnEvent(tick=20, channel=8, data=[76, 60]),
   midi.NoteOnEvent(tick=210, channel=8, data=[76, 0]),
   midi.NoteOnEvent(tick=30, channel=8, data=[76, 60]),
   midi.NoteOnEvent(tick=220, channel=8, data=[76, 0]),
   midi.NoteOnEvent(tick=20, channel=8, data=[76, 60]),
   midi.NoteOnEvent(tick=30, channel=8, data=[76, 0]),
   midi.NoteOnEvent(tick=90, channel=8, data=[76, 60]),
   midi.NoteOnEvent(tick=30, channel=8, data=[76, 0]),
   midi.NoteOnEvent(tick=90, channel=8, data=[76, 60]),
   midi.NoteOnEvent(tick=120, channel=8, data=[76, 0]),
   midi.NoteOnEvent(tick=0, channel=8, data=[77, 60]),
   midi.NoteOnEvent(tick=100, channel=8, data=[77, 0]),
   midi.NoteOnEvent(tick=20, channel=8, data=[77, 60]),
   midi.NoteOnEvent(tick=210, channel=8, data=[77, 0]),
   midi.NoteOnEvent(tick=30, channel=8, data=[77, 60]),
   midi.NoteOnEvent(tick=220, channel=8, data=[77, 0]),
   midi.NoteOnEvent(tick=20, channel=8, data=[77, 60]),
   midi.NoteOnEvent(tick=100, channel=8, data=[77, 0]),
   midi.NoteOnEvent(tick=20, channel=8, data=[77, 60]),
   midi.NoteOnEvent(tick=100, channel=8, data=[77, 0]),
   midi.NoteOnEvent(tick=20, channel=8, data=[77, 60]),
   midi.NoteOnEvent(tick=120, channel=8, data=[77, 0]),
   midi.NoteOnEvent(tick=0, channel=8, data=[76, 60]),
   midi.NoteOnEvent(tick=100, channel=8, data=[76, 0]),
   midi.NoteOnEvent(tick=20, channel=8, data=[76, 60]),
   midi.NoteOnEvent(tick=210, channel=8, data=[76, 0]),
   midi.NoteOnEvent(tick=30, channel=8, data=[76, 60]),
   midi.NoteOnEvent(tick=220, channel=8, data=[76, 0]),
   midi.NoteOnEvent(tick=20, channel=8, data=[76, 60]),
   midi.NoteOnEvent(tick=100, channel=8, data=[76, 0]),
   midi.NoteOnEvent(tick=20, channel=8, data=[76, 60]),
   midi.NoteOnEvent(tick=100, channel=8, data=[76, 0]),
   midi.NoteOnEvent(tick=20, channel=8, data=[76, 60]),
   midi.NoteOnEvent(tick=120, channel=8, data=[76, 0]),
   midi.NoteOnEvent(tick=0, channel=8, data=[74, 60]),
   midi.NoteOnEvent(tick=100, channel=8, data=[74, 0]),
   midi.NoteOnEvent(tick=20, channel=8, data=[74, 60]),
   midi.NoteOnEvent(tick=210, channel=8, data=[74, 0]),
   midi.NoteOnEvent(tick=30, channel=8, data=[74, 60]),
   midi.NoteOnEvent(tick=220, channel=8, data=[74, 0]),
   midi.NoteOnEvent(tick=20, channel=8, data=[74, 60]),
   midi.NoteOnEvent(tick=100, channel=8, data=[74, 0]),
   midi.NoteOnEvent(tick=20, channel=8, data=[74, 60]),
   midi.NoteOnEvent(tick=100, channel=8, data=[74, 0]),
   midi.NoteOnEvent(tick=20, channel=8, data=[74, 60]),
   midi.NoteOnEvent(tick=100, channel=8, data=[74, 0]),
   midi.NoteOnEvent(tick=20, channel=8, data=[73, 92]),
   midi.NoteOnEvent(tick=100, channel=8, data=[73, 0]),
   midi.NoteOnEvent(tick=20, channel=8, data=[76, 92]),
   midi.NoteOnEvent(tick=210, channel=8, data=[76, 0]),
   midi.NoteOnEvent(tick=30, channel=8, data=[77, 92]),
   midi.NoteOnEvent(tick=100, channel=8, data=[77, 0]),
   midi.NoteOnEvent(tick=20, channel=8, data=[76, 92]),
   midi.NoteOnEvent(tick=100, channel=8, data=[76, 0]),
   midi.NoteOnEvent(tick=20, channel=8, data=[77, 92]),
   midi.NoteOnEvent(tick=100, channel=8, data=[77, 0]),
   midi.NoteOnEvent(tick=20, channel=8, data=[76, 92]),
   midi.NoteOnEvent(tick=100, channel=8, data=[76, 0]),
   midi.NoteOnEvent(tick=20, channel=8, data=[77, 92]),
   midi.NoteOnEvent(tick=100, channel=8, data=[77, 0]),
   midi.NoteOnEvent(tick=20, channel=8, data=[76, 92]),
   midi.NoteOnEvent(tick=100, channel=8, data=[76, 0]),
   midi.NoteOnEvent(tick=920, channel=8, data=[74, 60]),
   midi.NoteOnEvent(tick=58, channel=8, data=[74, 0]),
   midi.NoteOnEvent(tick=2, channel=8, data=[74, 60]),
   midi.NoteOnEvent(tick=58, channel=8, data=[74, 0]),
   midi.NoteOnEvent(tick=2, channel=8, data=[74, 60]),
   midi.NoteOnEvent(tick=58, channel=8, data=[74, 0]),
   midi.NoteOnEvent(tick=2, channel=8, data=[74, 60]),
   midi.NoteOnEvent(tick=58, channel=8, data=[74, 0]),
   midi.NoteOnEvent(tick=2, channel=8, data=[74, 60]),
   midi.NoteOnEvent(tick=58, channel=8, data=[74, 0]),
   midi.NoteOnEvent(tick=2, channel=8, data=[74, 60]),
   midi.NoteOnEvent(tick=58, channel=8, data=[74, 0]),
   midi.NoteOnEvent(tick=2, channel=8, data=[74, 60]),
   midi.NoteOnEvent(tick=58, channel=8, data=[74, 0]),
   midi.NoteOnEvent(tick=2, channel=8, data=[77, 60]),
   midi.NoteOnEvent(tick=15, channel=8, data=[77, 0]),
   midi.NoteOnEvent(tick=0, channel=8, data=[76, 60]),
   midi.NoteOnEvent(tick=45, channel=8, data=[76, 0]),
   midi.NoteOnEvent(tick=0, channel=8, data=[74, 60]),
   midi.NoteOnEvent(tick=58, channel=8, data=[74, 0]),
   midi.NoteOnEvent(tick=2, channel=8, data=[74, 60]),
   midi.NoteOnEvent(tick=20, channel=8, data=[74, 0]),
   midi.NoteOnEvent(tick=40, channel=8, data=[74, 60]),
   midi.NoteOnEvent(tick=20, channel=8, data=[74, 0]),
   midi.NoteOnEvent(tick=40, channel=8, data=[73, 60]),
   midi.NoteOnEvent(tick=60, channel=8, data=[73, 0]),
   midi.NoteOnEvent(tick=0, channel=8, data=[74, 60]),
   midi.NoteOnEvent(tick=58, channel=8, data=[74, 0]),
   midi.NoteOnEvent(tick=2, channel=8, data=[73, 60]),
   midi.NoteOnEvent(tick=60, channel=8, data=[73, 0]),
   midi.NoteOnEvent(tick=0, channel=8, data=[74, 60]),
   midi.NoteOnEvent(tick=58, channel=8, data=[74, 0]),
   midi.NoteOnEvent(tick=2, channel=8, data=[73, 60]),
   midi.NoteOnEvent(tick=930, channel=8, data=[73, 0]),
   midi.NoteOnEvent(tick=30, channel=8, data=[74, 92]),
   midi.NoteOnEvent(tick=100, channel=8, data=[74, 0]),
   midi.NoteOnEvent(tick=20, channel=8, data=[69, 92]),
   midi.NoteOnEvent(tick=210, channel=8, data=[69, 0]),
   midi.NoteOnEvent(tick=30, channel=8, data=[70, 92]),
   midi.NoteOnEvent(tick=100, channel=8, data=[70, 0]),
   midi.NoteOnEvent(tick=20, channel=8, data=[69, 92]),
   midi.NoteOnEvent(tick=100, channel=8, data=[69, 0]),
   midi.NoteOnEvent(tick=20, channel=8, data=[70, 92]),
   midi.NoteOnEvent(tick=100, channel=8, data=[70, 0]),
   midi.NoteOnEvent(tick=20, channel=8, data=[69, 92]),
   midi.NoteOnEvent(tick=100, channel=8, data=[69, 0]),
   midi.NoteOnEvent(tick=20, channel=8, data=[70, 92]),
   midi.NoteOnEvent(tick=100, channel=8, data=[70, 0]),
   midi.NoteOnEvent(tick=20, channel=8, data=[69, 92]),
   midi.NoteOnEvent(tick=100, channel=8, data=[69, 0]),
   midi.NoteOnEvent(tick=740, channel=8, data=[74, 60]),
   midi.NoteOnEvent(tick=120, channel=8, data=[74, 0]),
   midi.NoteOnEvent(tick=0, channel=8, data=[75, 60]),
   midi.NoteOnEvent(tick=100, channel=8, data=[75, 0]),
   midi.NoteOnEvent(tick=20, channel=8, data=[75, 60]),
   midi.NoteOnEvent(tick=210, channel=8, data=[75, 0]),
   midi.NoteOnEvent(tick=30, channel=8, data=[75, 60]),
   midi.NoteOnEvent(tick=220, channel=8, data=[75, 0]),
   midi.NoteOnEvent(tick=20, channel=8, data=[75, 60]),
   midi.NoteOnEvent(tick=100, channel=8, data=[75, 0]),
   midi.NoteOnEvent(tick=20, channel=8, data=[75, 60]),
   midi.NoteOnEvent(tick=100, channel=8, data=[75, 0]),
   midi.NoteOnEvent(tick=20, channel=8, data=[75, 60]),
   midi.NoteOnEvent(tick=120, channel=8, data=[75, 0]),
   midi.NoteOnEvent(tick=0, channel=8, data=[74, 60]),
   midi.NoteOnEvent(tick=100, channel=8, data=[74, 0]),
   midi.NoteOnEvent(tick=20, channel=8, data=[74, 60]),
   midi.NoteOnEvent(tick=210, channel=8, data=[74, 0]),
   midi.NoteOnEvent(tick=30, channel=8, data=[74, 60]),
   midi.NoteOnEvent(tick=220, channel=8, data=[74, 0]),
   midi.NoteOnEvent(tick=20, channel=8, data=[74, 60]),
   midi.NoteOnEvent(tick=100, channel=8, data=[74, 0]),
   midi.NoteOnEvent(tick=20, channel=8, data=[74, 60]),
   midi.NoteOnEvent(tick=100, channel=8, data=[74, 0]),
   midi.NoteOnEvent(tick=20, channel=8, data=[74, 60]),
   midi.NoteOnEvent(tick=120, channel=8, data=[74, 0]),
   midi.NoteOnEvent(tick=0, channel=8, data=[72, 60]),
   midi.NoteOnEvent(tick=100, channel=8, data=[72, 0]),
   midi.NoteOnEvent(tick=20, channel=8, data=[72, 60]),
   midi.NoteOnEvent(tick=210, channel=8, data=[72, 0]),
   midi.NoteOnEvent(tick=30, channel=8, data=[72, 60]),
   midi.NoteOnEvent(tick=220, channel=8, data=[72, 0]),
   midi.NoteOnEvent(tick=20, channel=8, data=[72, 60]),
   midi.NoteOnEvent(tick=100, channel=8, data=[72, 0]),
   midi.NoteOnEvent(tick=20, channel=8, data=[72, 60]),
   midi.NoteOnEvent(tick=100, channel=8, data=[72, 0]),
   midi.NoteOnEvent(tick=20, channel=8, data=[72, 60]),
   midi.NoteOnEvent(tick=100, channel=8, data=[72, 0]),
   midi.NoteOnEvent(tick=20, channel=8, data=[71, 92]),
   midi.NoteOnEvent(tick=100, channel=8, data=[71, 0]),
   midi.NoteOnEvent(tick=20, channel=8, data=[62, 92]),
   midi.NoteOnEvent(tick=210, channel=8, data=[62, 0]),
   midi.NoteOnEvent(tick=30, channel=8, data=[63, 92]),
   midi.NoteOnEvent(tick=100, channel=8, data=[63, 0]),
   midi.NoteOnEvent(tick=20, channel=8, data=[62, 92]),
   midi.NoteOnEvent(tick=100, channel=8, data=[62, 0]),
   midi.NoteOnEvent(tick=20, channel=8, data=[63, 92]),
   midi.NoteOnEvent(tick=100, channel=8, data=[63, 0]),
   midi.NoteOnEvent(tick=20, channel=8, data=[62, 92]),
   midi.NoteOnEvent(tick=100, channel=8, data=[62, 0]),
   midi.NoteOnEvent(tick=20, channel=8, data=[63, 92]),
   midi.NoteOnEvent(tick=100, channel=8, data=[63, 0]),
   midi.NoteOnEvent(tick=20, channel=8, data=[62, 92]),
   midi.NoteOnEvent(tick=100, channel=8, data=[62, 0]),
   midi.NoteOnEvent(tick=920, channel=8, data=[72, 60]),
   midi.NoteOnEvent(tick=58, channel=8, data=[72, 0]),
   midi.NoteOnEvent(tick=2, channel=8, data=[72, 60]),
   midi.NoteOnEvent(tick=58, channel=8, data=[72, 0]),
   midi.NoteOnEvent(tick=2, channel=8, data=[72, 60]),
   midi.NoteOnEvent(tick=58, channel=8, data=[72, 0]),
   midi.NoteOnEvent(tick=2, channel=8, data=[72, 60]),
   midi.NoteOnEvent(tick=58, channel=8, data=[72, 0]),
   midi.NoteOnEvent(tick=2, channel=8, data=[72, 60]),
   midi.NoteOnEvent(tick=58, channel=8, data=[72, 0]),
   midi.NoteOnEvent(tick=2, channel=8, data=[72, 60]),
   midi.NoteOnEvent(tick=58, channel=8, data=[72, 0]),
   midi.NoteOnEvent(tick=2, channel=8, data=[72, 60]),
   midi.NoteOnEvent(tick=58, channel=8, data=[72, 0]),
   midi.NoteOnEvent(tick=2, channel=8, data=[76, 60]),
   midi.NoteOnEvent(tick=15, channel=8, data=[76, 0]),
   midi.NoteOnEvent(tick=0, channel=8, data=[74, 60]),
   midi.NoteOnEvent(tick=45, channel=8, data=[74, 0]),
   midi.NoteOnEvent(tick=0, channel=8, data=[72, 60]),
   midi.NoteOnEvent(tick=58, channel=8, data=[72, 0]),
   midi.NoteOnEvent(tick=2, channel=8, data=[72, 60]),
   midi.NoteOnEvent(tick=20, channel=8, data=[72, 0]),
   midi.NoteOnEvent(tick=40, channel=8, data=[72, 60]),
   midi.NoteOnEvent(tick=20, channel=8, data=[72, 0]),
   midi.NoteOnEvent(tick=40, channel=8, data=[71, 60]),
   midi.NoteOnEvent(tick=60, channel=8, data=[71, 0]),
   midi.NoteOnEvent(tick=0, channel=8, data=[72, 60]),
   midi.NoteOnEvent(tick=58, channel=8, data=[72, 0]),
   midi.NoteOnEvent(tick=2, channel=8, data=[71, 60]),
   midi.NoteOnEvent(tick=60, channel=8, data=[71, 0]),
   midi.NoteOnEvent(tick=0, channel=8, data=[72, 60]),
   midi.NoteOnEvent(tick=58, channel=8, data=[72, 0]),
   midi.NoteOnEvent(tick=2, channel=8, data=[71, 60]),
   midi.NoteOnEvent(tick=930, channel=8, data=[71, 0]),
   midi.NoteOnEvent(tick=30, channel=8, data=[72, 92]),
   midi.NoteOnEvent(tick=100, channel=8, data=[72, 0]),
   midi.NoteOnEvent(tick=20, channel=8, data=[67, 92]),
   midi.NoteOnEvent(tick=210, channel=8, data=[67, 0]),
   midi.NoteOnEvent(tick=30, channel=8, data=[68, 92]),
   midi.NoteOnEvent(tick=100, channel=8, data=[68, 0]),
   midi.NoteOnEvent(tick=20, channel=8, data=[67, 92]),
   midi.NoteOnEvent(tick=100, channel=8, data=[67, 0]),
   midi.NoteOnEvent(tick=20, channel=8, data=[68, 92]),
   midi.NoteOnEvent(tick=100, channel=8, data=[68, 0]),
   midi.NoteOnEvent(tick=20, channel=8, data=[67, 92]),
   midi.NoteOnEvent(tick=100, channel=8, data=[67, 0]),
   midi.NoteOnEvent(tick=20, channel=8, data=[68, 92]),
   midi.NoteOnEvent(tick=100, channel=8, data=[68, 0]),
   midi.NoteOnEvent(tick=20, channel=8, data=[67, 92]),
   midi.NoteOnEvent(tick=100, channel=8, data=[67, 0]),
   midi.NoteOnEvent(tick=860, channel=8, data=[66, 60]),
   midi.NoteOnEvent(tick=60, channel=8, data=[66, 0]),
   midi.NoteOnEvent(tick=0, channel=8, data=[67, 60]),
   midi.NoteOnEvent(tick=60, channel=8, data=[67, 0]),
   midi.NoteOnEvent(tick=0, channel=8, data=[69, 60]),
   midi.NoteOnEvent(tick=60, channel=8, data=[69, 0]),
   midi.NoteOnEvent(tick=0, channel=8, data=[67, 60]),
   midi.NoteOnEvent(tick=60, channel=8, data=[67, 0]),
   midi.NoteOnEvent(tick=0, channel=8, data=[66, 60]),
   midi.NoteOnEvent(tick=100, channel=8, data=[66, 0]),
   midi.NoteOnEvent(tick=140, channel=8, data=[67, 60]),
   midi.NoteOnEvent(tick=60, channel=8, data=[67, 0]),
   midi.NoteOnEvent(tick=0, channel=8, data=[69, 60]),
   midi.NoteOnEvent(tick=60, channel=8, data=[69, 0]),
   midi.NoteOnEvent(tick=0, channel=8, data=[70, 60]),
   midi.NoteOnEvent(tick=60, channel=8, data=[70, 0]),
   midi.NoteOnEvent(tick=0, channel=8, data=[69, 60]),
   midi.NoteOnEvent(tick=60, channel=8, data=[69, 0]),
   midi.NoteOnEvent(tick=0, channel=8, data=[67, 60]),
   midi.NoteOnEvent(tick=60, channel=8, data=[67, 0]),
   midi.NoteOnEvent(tick=0, channel=8, data=[69, 60]),
   midi.NoteOnEvent(tick=60, channel=8, data=[69, 0]),
   midi.NoteOnEvent(tick=0, channel=8, data=[67, 60]),
   midi.NoteOnEvent(tick=60, channel=8, data=[67, 0]),
   midi.NoteOnEvent(tick=0, channel=8, data=[65, 60]),
   midi.NoteOnEvent(tick=58, channel=8, data=[65, 0]),
   midi.NoteOnEvent(tick=2, channel=8, data=[64, 60]),
   midi.NoteOnEvent(tick=60, channel=8, data=[64, 0]),
   midi.NoteOnEvent(tick=0, channel=8, data=[65, 60]),
   midi.NoteOnEvent(tick=60, channel=8, data=[65, 0]),
   midi.NoteOnEvent(tick=0, channel=8, data=[67, 60]),
   midi.NoteOnEvent(tick=60, channel=8, data=[67, 0]),
   midi.NoteOnEvent(tick=0, channel=8, data=[65, 60]),
   midi.NoteOnEvent(tick=60, channel=8, data=[65, 0]),
   midi.NoteOnEvent(tick=0, channel=8, data=[64, 60]),
   midi.NoteOnEvent(tick=100, channel=8, data=[64, 0]),
   midi.NoteOnEvent(tick=140, channel=8, data=[65, 60]),
   midi.NoteOnEvent(tick=60, channel=8, data=[65, 0]),
   midi.NoteOnEvent(tick=0, channel=8, data=[67, 60]),
   midi.NoteOnEvent(tick=60, channel=8, data=[67, 0]),
   midi.NoteOnEvent(tick=0, channel=8, data=[69, 60]),
   midi.NoteOnEvent(tick=60, channel=8, data=[69, 0]),
   midi.NoteOnEvent(tick=0, channel=8, data=[67, 60]),
   midi.NoteOnEvent(tick=60, channel=8, data=[67, 0]),
   midi.NoteOnEvent(tick=0, channel=8, data=[65, 60]),
   midi.NoteOnEvent(tick=60, channel=8, data=[65, 0]),
   midi.NoteOnEvent(tick=0, channel=8, data=[67, 60]),
   midi.NoteOnEvent(tick=60, channel=8, data=[67, 0]),
   midi.NoteOnEvent(tick=0, channel=8, data=[65, 60]),
   midi.NoteOnEvent(tick=60, channel=8, data=[65, 0]),
   midi.NoteOnEvent(tick=0, channel=8, data=[64, 60]),
   midi.NoteOnEvent(tick=58, channel=8, data=[64, 0]),
   midi.NoteOnEvent(tick=2, channel=8, data=[62, 60]),
   midi.NoteOnEvent(tick=60, channel=8, data=[62, 0]),
   midi.NoteOnEvent(tick=0, channel=8, data=[64, 60]),
   midi.NoteOnEvent(tick=60, channel=8, data=[64, 0]),
   midi.NoteOnEvent(tick=0, channel=8, data=[65, 60]),
   midi.NoteOnEvent(tick=60, channel=8, data=[65, 0]),
   midi.NoteOnEvent(tick=0, channel=8, data=[64, 60]),
   midi.NoteOnEvent(tick=60, channel=8, data=[64, 0]),
   midi.NoteOnEvent(tick=0, channel=8, data=[62, 60]),
   midi.NoteOnEvent(tick=100, channel=8, data=[62, 0]),
   midi.NoteOnEvent(tick=140, channel=8, data=[64, 60]),
   midi.NoteOnEvent(tick=60, channel=8, data=[64, 0]),
   midi.NoteOnEvent(tick=0, channel=8, data=[65, 60]),
   midi.NoteOnEvent(tick=60, channel=8, data=[65, 0]),
   midi.NoteOnEvent(tick=0, channel=8, data=[67, 60]),
   midi.NoteOnEvent(tick=60, channel=8, data=[67, 0]),
   midi.NoteOnEvent(tick=0, channel=8, data=[65, 60]),
   midi.NoteOnEvent(tick=60, channel=8, data=[65, 0]),
   midi.NoteOnEvent(tick=0, channel=8, data=[64, 60]),
   midi.NoteOnEvent(tick=60, channel=8, data=[64, 0]),
   midi.NoteOnEvent(tick=0, channel=8, data=[60, 60]),
   midi.NoteOnEvent(tick=60, channel=8, data=[60, 0]),
   midi.NoteOnEvent(tick=0, channel=8, data=[62, 60]),
   midi.NoteOnEvent(tick=60, channel=8, data=[62, 0]),
   midi.NoteOnEvent(tick=0, channel=8, data=[64, 60]),
   midi.NoteOnEvent(tick=58, channel=8, data=[64, 0]),
   midi.NoteOnEvent(tick=2, channel=8, data=[65, 60]),
   midi.NoteOnEvent(tick=100, channel=8, data=[65, 0]),
   midi.NoteOnEvent(tick=20, channel=8, data=[57, 60]),
   midi.NoteOnEvent(tick=100, channel=8, data=[57, 0]),
   midi.NoteOnEvent(tick=20, channel=8, data=[57, 60]),
   midi.NoteOnEvent(tick=100, channel=8, data=[57, 0]),
   midi.NoteOnEvent(tick=20, channel=8, data=[57, 60]),
   midi.NoteOnEvent(tick=100, channel=8, data=[57, 0]),
   midi.NoteOnEvent(tick=140, channel=8, data=[57, 60]),
   midi.NoteOnEvent(tick=100, channel=8, data=[57, 0]),
   midi.NoteOnEvent(tick=20, channel=8, data=[57, 60]),
   midi.NoteOnEvent(tick=100, channel=8, data=[57, 0]),
   midi.NoteOnEvent(tick=20, channel=8, data=[57, 60]),
   midi.NoteOnEvent(tick=100, channel=8, data=[57, 0]),
   midi.NoteOnEvent(tick=140, channel=8, data=[58, 60]),
   midi.NoteOnEvent(tick=100, channel=8, data=[58, 0]),
   midi.NoteOnEvent(tick=20, channel=8, data=[58, 60]),
   midi.NoteOnEvent(tick=100, channel=8, data=[58, 0]),
   midi.NoteOnEvent(tick=20, channel=8, data=[58, 60]),
   midi.NoteOnEvent(tick=100, channel=8, data=[58, 0]),
   midi.NoteOnEvent(tick=140, channel=8, data=[58, 60]),
   midi.NoteOnEvent(tick=100, channel=8, data=[58, 0]),
   midi.NoteOnEvent(tick=20, channel=8, data=[58, 60]),
   midi.NoteOnEvent(tick=100, channel=8, data=[58, 0]),
   midi.NoteOnEvent(tick=20, channel=8, data=[58, 60]),
   midi.NoteOnEvent(tick=100, channel=8, data=[58, 0]),
   midi.NoteOnEvent(tick=140, channel=8, data=[57, 60]),
   midi.NoteOnEvent(tick=100, channel=8, data=[57, 0]),
   midi.NoteOnEvent(tick=20, channel=8, data=[57, 60]),
   midi.NoteOnEvent(tick=100, channel=8, data=[57, 0]),
   midi.NoteOnEvent(tick=20, channel=8, data=[57, 60]),
   midi.NoteOnEvent(tick=100, channel=8, data=[57, 0]),
   midi.NoteOnEvent(tick=140, channel=8, data=[57, 60]),
   midi.NoteOnEvent(tick=100, channel=8, data=[57, 0]),
   midi.NoteOnEvent(tick=20, channel=8, data=[57, 60]),
   midi.NoteOnEvent(tick=100, channel=8, data=[57, 0]),
   midi.NoteOnEvent(tick=20, channel=8, data=[57, 60]),
   midi.NoteOnEvent(tick=100, channel=8, data=[57, 0]),
   midi.NoteOnEvent(tick=20, channel=8, data=[55, 60]),
   midi.NoteOnEvent(tick=120, channel=8, data=[55, 0]),
   midi.NoteOnEvent(tick=0, channel=8, data=[60, 60]),
   midi.NoteOnEvent(tick=120, channel=8, data=[60, 0]),
   midi.NoteOnEvent(tick=0, channel=8, data=[57, 60]),
   midi.NoteOnEvent(tick=120, channel=8, data=[57, 0]),
   midi.NoteOnEvent(tick=0, channel=8, data=[60, 60]),
   midi.NoteOnEvent(tick=120, channel=8, data=[60, 0]),
   midi.NoteOnEvent(tick=0, channel=8, data=[58, 60]),
   midi.NoteOnEvent(tick=120, channel=8, data=[58, 0]),
   midi.NoteOnEvent(tick=0, channel=8, data=[60, 60]),
   midi.NoteOnEvent(tick=120, channel=8, data=[60, 0]),
   midi.NoteOnEvent(tick=0, channel=8, data=[55, 60]),
   midi.NoteOnEvent(tick=120, channel=8, data=[55, 0]),
   midi.NoteOnEvent(tick=0, channel=8, data=[60, 60]),
   midi.NoteOnEvent(tick=100, channel=8, data=[60, 0]),
   midi.NoteOnEvent(tick=20, channel=8, data=[57, 60]),
   midi.NoteOnEvent(tick=100, channel=8, data=[57, 0]),
   midi.NoteOnEvent(tick=20, channel=8, data=[57, 60]),
   midi.NoteOnEvent(tick=100, channel=8, data=[57, 0]),
   midi.NoteOnEvent(tick=20, channel=8, data=[57, 60]),
   midi.NoteOnEvent(tick=100, channel=8, data=[57, 0]),
   midi.NoteOnEvent(tick=20, channel=8, data=[57, 60]),
   midi.NoteOnEvent(tick=100, channel=8, data=[57, 0]),
   midi.NoteOnEvent(tick=140, channel=8, data=[57, 60]),
   midi.NoteOnEvent(tick=100, channel=8, data=[57, 0]),
   midi.NoteOnEvent(tick=20, channel=8, data=[57, 60]),
   midi.NoteOnEvent(tick=100, channel=8, data=[57, 0]),
   midi.NoteOnEvent(tick=20, channel=8, data=[57, 60]),
   midi.NoteOnEvent(tick=100, channel=8, data=[57, 0]),
   midi.NoteOnEvent(tick=140, channel=8, data=[58, 60]),
   midi.NoteOnEvent(tick=100, channel=8, data=[58, 0]),
   midi.NoteOnEvent(tick=20, channel=8, data=[58, 60]),
   midi.NoteOnEvent(tick=100, channel=8, data=[58, 0]),
   midi.NoteOnEvent(tick=20, channel=8, data=[58, 60]),
   midi.NoteOnEvent(tick=100, channel=8, data=[58, 0]),
   midi.NoteOnEvent(tick=140, channel=8, data=[58, 60]),
   midi.NoteOnEvent(tick=100, channel=8, data=[58, 0]),
   midi.NoteOnEvent(tick=20, channel=8, data=[58, 60]),
   midi.NoteOnEvent(tick=100, channel=8, data=[58, 0]),
   midi.NoteOnEvent(tick=20, channel=8, data=[58, 60]),
   midi.NoteOnEvent(tick=100, channel=8, data=[58, 0]),
   midi.NoteOnEvent(tick=140, channel=8, data=[57, 60]),
   midi.NoteOnEvent(tick=100, channel=8, data=[57, 0]),
   midi.NoteOnEvent(tick=20, channel=8, data=[57, 60]),
   midi.NoteOnEvent(tick=100, channel=8, data=[57, 0]),
   midi.NoteOnEvent(tick=20, channel=8, data=[57, 60]),
   midi.NoteOnEvent(tick=100, channel=8, data=[57, 0]),
   midi.NoteOnEvent(tick=140, channel=8, data=[57, 60]),
   midi.NoteOnEvent(tick=100, channel=8, data=[57, 0]),
   midi.NoteOnEvent(tick=20, channel=8, data=[57, 60]),
   midi.NoteOnEvent(tick=100, channel=8, data=[57, 0]),
   midi.NoteOnEvent(tick=20, channel=8, data=[57, 60]),
   midi.NoteOnEvent(tick=100, channel=8, data=[57, 0]),
   midi.NoteOnEvent(tick=20, channel=8, data=[55, 60]),
   midi.NoteOnEvent(tick=120, channel=8, data=[55, 0]),
   midi.NoteOnEvent(tick=0, channel=8, data=[60, 60]),
   midi.NoteOnEvent(tick=120, channel=8, data=[60, 0]),
   midi.NoteOnEvent(tick=0, channel=8, data=[57, 60]),
   midi.NoteOnEvent(tick=120, channel=8, data=[57, 0]),
   midi.NoteOnEvent(tick=0, channel=8, data=[60, 60]),
   midi.NoteOnEvent(tick=120, channel=8, data=[60, 0]),
   midi.NoteOnEvent(tick=0, channel=8, data=[58, 60]),
   midi.NoteOnEvent(tick=120, channel=8, data=[58, 0]),
   midi.NoteOnEvent(tick=0, channel=8, data=[60, 60]),
   midi.NoteOnEvent(tick=120, channel=8, data=[60, 0]),
   midi.NoteOnEvent(tick=0, channel=8, data=[55, 60]),
   midi.NoteOnEvent(tick=120, channel=8, data=[55, 0]),
   midi.NoteOnEvent(tick=0, channel=8, data=[60, 60]),
   midi.NoteOnEvent(tick=100, channel=8, data=[60, 0]),
   midi.NoteOnEvent(tick=20, channel=8, data=[57, 60]),
   midi.NoteOnEvent(tick=100, channel=8, data=[57, 0]),
   midi.NoteOnEvent(tick=20, channel=8, data=[81, 92]),
   midi.NoteOnEvent(tick=210, channel=8, data=[81, 0]),
   midi.NoteOnEvent(tick=30, channel=8, data=[80, 92]),
   midi.NoteOnEvent(tick=100, channel=8, data=[80, 0]),
   midi.NoteOnEvent(tick=20, channel=8, data=[81, 92]),
   midi.NoteOnEvent(tick=100, channel=8, data=[81, 0]),
   midi.NoteOnEvent(tick=20, channel=8, data=[80, 92]),
   midi.NoteOnEvent(tick=100, channel=8, data=[80, 0]),
   midi.NoteOnEvent(tick=20, channel=8, data=[81, 92]),
   midi.NoteOnEvent(tick=100, channel=8, data=[81, 0]),
   midi.NoteOnEvent(tick=20, channel=8, data=[76, 92]),
   midi.NoteOnEvent(tick=100, channel=8, data=[76, 0]),
   midi.NoteOnEvent(tick=20, channel=8, data=[77, 92]),
   midi.NoteOnEvent(tick=100, channel=8, data=[77, 0]),
   midi.NoteOnEvent(tick=20, channel=8, data=[77, 92]),
   midi.NoteOnEvent(tick=210, channel=8, data=[77, 0]),
   midi.NoteOnEvent(tick=30, channel=8, data=[76, 92]),
   midi.NoteOnEvent(tick=100, channel=8, data=[76, 0]),
   midi.NoteOnEvent(tick=20, channel=8, data=[77, 92]),
   midi.NoteOnEvent(tick=100, channel=8, data=[77, 0]),
   midi.NoteOnEvent(tick=20, channel=8, data=[76, 92]),
   midi.NoteOnEvent(tick=100, channel=8, data=[76, 0]),
   midi.NoteOnEvent(tick=20, channel=8, data=[77, 92]),
   midi.NoteOnEvent(tick=100, channel=8, data=[77, 0]),
   midi.NoteOnEvent(tick=20, channel=8, data=[74, 92]),
   midi.NoteOnEvent(tick=100, channel=8, data=[74, 0]),
   midi.NoteOnEvent(tick=20, channel=8, data=[75, 92]),
   midi.NoteOnEvent(tick=100, channel=8, data=[75, 0]),
   midi.NoteOnEvent(tick=20, channel=8, data=[79, 92]),
   midi.NoteOnEvent(tick=210, channel=8, data=[79, 0]),
   midi.NoteOnEvent(tick=30, channel=8, data=[79, 92]),
   midi.NoteOnEvent(tick=100, channel=8, data=[79, 0]),
   midi.NoteOnEvent(tick=20, channel=8, data=[79, 92]),
   midi.NoteOnEvent(tick=100, channel=8, data=[79, 0]),
   midi.NoteOnEvent(tick=20, channel=8, data=[79, 92]),
   midi.NoteOnEvent(tick=100, channel=8, data=[79, 0]),
   midi.NoteOnEvent(tick=20, channel=8, data=[79, 92]),
   midi.NoteOnEvent(tick=100, channel=8, data=[79, 0]),
   midi.NoteOnEvent(tick=20, channel=8, data=[75, 92]),
   midi.NoteOnEvent(tick=100, channel=8, data=[75, 0]),
   midi.NoteOnEvent(tick=20, channel=8, data=[75, 92]),
   midi.NoteOnEvent(tick=100, channel=8, data=[75, 0]),
   midi.NoteOnEvent(tick=20, channel=8, data=[75, 92]),
   midi.NoteOnEvent(tick=100, channel=8, data=[75, 0]),
   midi.NoteOnEvent(tick=20, channel=8, data=[75, 92]),
   midi.NoteOnEvent(tick=100, channel=8, data=[75, 0]),
   midi.NoteOnEvent(tick=20, channel=8, data=[72, 92]),
   midi.NoteOnEvent(tick=100, channel=8, data=[72, 0]),
   midi.NoteOnEvent(tick=20, channel=8, data=[72, 92]),
   midi.NoteOnEvent(tick=100, channel=8, data=[72, 0]),
   midi.NoteOnEvent(tick=20, channel=8, data=[72, 92]),
   midi.NoteOnEvent(tick=100, channel=8, data=[72, 0]),
   midi.NoteOnEvent(tick=20, channel=8, data=[72, 92]),
   midi.NoteOnEvent(tick=100, channel=8, data=[72, 0]),
   midi.NoteOnEvent(tick=20, channel=8, data=[76, 92]),
   midi.NoteOnEvent(tick=100, channel=8, data=[76, 0]),
   midi.NoteOnEvent(tick=20, channel=8, data=[77, 92]),
   midi.NoteOnEvent(tick=58, channel=8, data=[77, 0]),
   midi.NoteOnEvent(tick=2, channel=8, data=[77, 92]),
   midi.NoteOnEvent(tick=58, channel=8, data=[77, 0]),
   midi.NoteOnEvent(tick=2, channel=8, data=[76, 92]),
   midi.NoteOnEvent(tick=58, channel=8, data=[76, 0]),
   midi.NoteOnEvent(tick=2, channel=8, data=[76, 92]),
   midi.NoteOnEvent(tick=58, channel=8, data=[76, 0]),
   midi.NoteOnEvent(tick=2, channel=8, data=[80, 92]),
   midi.NoteOnEvent(tick=58, channel=8, data=[80, 0]),
   midi.NoteOnEvent(tick=2, channel=8, data=[80, 92]),
   midi.NoteOnEvent(tick=58, channel=8, data=[80, 0]),
   midi.NoteOnEvent(tick=2, channel=8, data=[79, 92]),
   midi.NoteOnEvent(tick=58, channel=8, data=[79, 0]),
   midi.NoteOnEvent(tick=2, channel=8, data=[79, 92]),
   midi.NoteOnEvent(tick=58, channel=8, data=[79, 0]),
   midi.NoteOnEvent(tick=2, channel=8, data=[77, 92]),
   midi.NoteOnEvent(tick=58, channel=8, data=[77, 0]),
   midi.NoteOnEvent(tick=2, channel=8, data=[77, 92]),
   midi.NoteOnEvent(tick=58, channel=8, data=[77, 0]),
   midi.NoteOnEvent(tick=2, channel=8, data=[75, 92]),
   midi.NoteOnEvent(tick=58, channel=8, data=[75, 0]),
   midi.NoteOnEvent(tick=2, channel=8, data=[75, 92]),
   midi.NoteOnEvent(tick=58, channel=8, data=[75, 0]),
   midi.NoteOnEvent(tick=2, channel=8, data=[74, 92]),
   midi.NoteOnEvent(tick=58, channel=8, data=[74, 0]),
   midi.NoteOnEvent(tick=2, channel=8, data=[74, 92]),
   midi.NoteOnEvent(tick=58, channel=8, data=[74, 0]),
   midi.NoteOnEvent(tick=2, channel=8, data=[72, 92]),
   midi.NoteOnEvent(tick=58, channel=8, data=[72, 0]),
   midi.NoteOnEvent(tick=2, channel=8, data=[72, 92]),
   midi.NoteOnEvent(tick=58, channel=8, data=[72, 0]),
   midi.NoteOnEvent(tick=2, channel=8, data=[71, 92]),
   midi.NoteOnEvent(tick=100, channel=8, data=[71, 0]),
   midi.NoteOnEvent(tick=20, channel=8, data=[59, 60]),
   midi.NoteOnEvent(tick=100, channel=8, data=[59, 0]),
   midi.NoteOnEvent(tick=20, channel=8, data=[59, 60]),
   midi.NoteOnEvent(tick=100, channel=8, data=[59, 0]),
   midi.NoteOnEvent(tick=20, channel=8, data=[59, 60]),
   midi.NoteOnEvent(tick=100, channel=8, data=[59, 0]),
   midi.NoteOnEvent(tick=140, channel=8, data=[59, 60]),
   midi.NoteOnEvent(tick=100, channel=8, data=[59, 0]),
   midi.NoteOnEvent(tick=20, channel=8, data=[59, 60]),
   midi.NoteOnEvent(tick=100, channel=8, data=[59, 0]),
   midi.NoteOnEvent(tick=20, channel=8, data=[59, 60]),
   midi.NoteOnEvent(tick=100, channel=8, data=[59, 0]),
   midi.NoteOnEvent(tick=140, channel=8, data=[60, 60]),
   midi.NoteOnEvent(tick=100, channel=8, data=[60, 0]),
   midi.NoteOnEvent(tick=20, channel=8, data=[60, 60]),
   midi.NoteOnEvent(tick=100, channel=8, data=[60, 0]),
   midi.NoteOnEvent(tick=20, channel=8, data=[60, 60]),
   midi.NoteOnEvent(tick=100, channel=8, data=[60, 0]),
   midi.NoteOnEvent(tick=140, channel=8, data=[60, 60]),
   midi.NoteOnEvent(tick=100, channel=8, data=[60, 0]),
   midi.NoteOnEvent(tick=20, channel=8, data=[60, 60]),
   midi.NoteOnEvent(tick=100, channel=8, data=[60, 0]),
   midi.NoteOnEvent(tick=20, channel=8, data=[60, 60]),
   midi.NoteOnEvent(tick=100, channel=8, data=[60, 0]),
   midi.NoteOnEvent(tick=140, channel=8, data=[59, 60]),
   midi.NoteOnEvent(tick=100, channel=8, data=[59, 0]),
   midi.NoteOnEvent(tick=20, channel=8, data=[59, 60]),
   midi.NoteOnEvent(tick=100, channel=8, data=[59, 0]),
   midi.NoteOnEvent(tick=20, channel=8, data=[59, 60]),
   midi.NoteOnEvent(tick=100, channel=8, data=[59, 0]),
   midi.NoteOnEvent(tick=140, channel=8, data=[59, 60]),
   midi.NoteOnEvent(tick=100, channel=8, data=[59, 0]),
   midi.NoteOnEvent(tick=20, channel=8, data=[59, 60]),
   midi.NoteOnEvent(tick=100, channel=8, data=[59, 0]),
   midi.NoteOnEvent(tick=20, channel=8, data=[59, 60]),
   midi.NoteOnEvent(tick=100, channel=8, data=[59, 0]),
   midi.NoteOnEvent(tick=140, channel=8, data=[60, 60]),
   midi.NoteOnEvent(tick=100, channel=8, data=[60, 0]),
   midi.NoteOnEvent(tick=20, channel=8, data=[60, 60]),
   midi.NoteOnEvent(tick=100, channel=8, data=[60, 0]),
   midi.NoteOnEvent(tick=20, channel=8, data=[60, 60]),
   midi.NoteOnEvent(tick=100, channel=8, data=[60, 0]),
   midi.NoteOnEvent(tick=140, channel=8, data=[60, 60]),
   midi.NoteOnEvent(tick=100, channel=8, data=[60, 0]),
   midi.NoteOnEvent(tick=20, channel=8, data=[60, 60]),
   midi.NoteOnEvent(tick=100, channel=8, data=[60, 0]),
   midi.NoteOnEvent(tick=20, channel=8, data=[60, 60]),
   midi.NoteOnEvent(tick=100, channel=8, data=[60, 0]),
   midi.NoteOnEvent(tick=20, channel=8, data=[55, 60]),
   midi.NoteOnEvent(tick=100, channel=8, data=[55, 0]),
   midi.NoteOnEvent(tick=920, channel=8, data=[72, 60]),
   midi.NoteOnEvent(tick=58, channel=8, data=[72, 0]),
   midi.NoteOnEvent(tick=2, channel=8, data=[72, 60]),
   midi.NoteOnEvent(tick=58, channel=8, data=[72, 0]),
   midi.NoteOnEvent(tick=2, channel=8, data=[72, 60]),
   midi.NoteOnEvent(tick=58, channel=8, data=[72, 0]),
   midi.NoteOnEvent(tick=2, channel=8, data=[72, 60]),
   midi.NoteOnEvent(tick=58, channel=8, data=[72, 0]),
   midi.NoteOnEvent(tick=2, channel=8, data=[72, 60]),
   midi.NoteOnEvent(tick=58, channel=8, data=[72, 0]),
   midi.NoteOnEvent(tick=2, channel=8, data=[72, 60]),
   midi.NoteOnEvent(tick=58, channel=8, data=[72, 0]),
   midi.NoteOnEvent(tick=2, channel=8, data=[72, 60]),
   midi.NoteOnEvent(tick=58, channel=8, data=[72, 0]),
   midi.NoteOnEvent(tick=2, channel=8, data=[76, 60]),
   midi.NoteOnEvent(tick=15, channel=8, data=[76, 0]),
   midi.NoteOnEvent(tick=0, channel=8, data=[74, 60]),
   midi.NoteOnEvent(tick=45, channel=8, data=[74, 0]),
   midi.NoteOnEvent(tick=0, channel=8, data=[72, 60]),
   midi.NoteOnEvent(tick=58, channel=8, data=[72, 0]),
   midi.NoteOnEvent(tick=2, channel=8, data=[72, 60]),
   midi.NoteOnEvent(tick=20, channel=8, data=[72, 0]),
   midi.NoteOnEvent(tick=40, channel=8, data=[72, 60]),
   midi.NoteOnEvent(tick=20, channel=8, data=[72, 0]),
   midi.NoteOnEvent(tick=40, channel=8, data=[71, 60]),
   midi.NoteOnEvent(tick=60, channel=8, data=[71, 0]),
   midi.NoteOnEvent(tick=0, channel=8, data=[72, 60]),
   midi.NoteOnEvent(tick=58, channel=8, data=[72, 0]),
   midi.NoteOnEvent(tick=2, channel=8, data=[71, 60]),
   midi.NoteOnEvent(tick=60, channel=8, data=[71, 0]),
   midi.NoteOnEvent(tick=0, channel=8, data=[72, 60]),
   midi.NoteOnEvent(tick=58, channel=8, data=[72, 0]),
   midi.NoteOnEvent(tick=2, channel=8, data=[71, 60]),
   midi.NoteOnEvent(tick=930, channel=8, data=[71, 0]),
   midi.NoteOnEvent(tick=30, channel=8, data=[72, 60]),
   midi.NoteOnEvent(tick=100, channel=8, data=[72, 0]),
   midi.NoteOnEvent(tick=20, channel=8, data=[67, 92]),
   midi.NoteOnEvent(tick=210, channel=8, data=[67, 0]),
   midi.NoteOnEvent(tick=30, channel=8, data=[69, 92]),
   midi.NoteOnEvent(tick=100, channel=8, data=[69, 0]),
   midi.NoteOnEvent(tick=20, channel=8, data=[67, 92]),
   midi.NoteOnEvent(tick=100, channel=8, data=[67, 0]),
   midi.NoteOnEvent(tick=20, channel=8, data=[69, 92]),
   midi.NoteOnEvent(tick=100, channel=8, data=[69, 0]),
   midi.NoteOnEvent(tick=20, channel=8, data=[67, 92]),
   midi.NoteOnEvent(tick=100, channel=8, data=[67, 0]),
   midi.NoteOnEvent(tick=20, channel=8, data=[69, 92]),
   midi.NoteOnEvent(tick=100, channel=8, data=[69, 0]),
   midi.NoteOnEvent(tick=20, channel=8, data=[67, 92]),
   midi.NoteOnEvent(tick=100, channel=8, data=[67, 0]),
   midi.NoteOnEvent(tick=20, channel=8, data=[67, 92]),
   midi.NoteOnEvent(tick=210, channel=8, data=[67, 0]),
   midi.NoteOnEvent(tick=30, channel=8, data=[69, 92]),
   midi.NoteOnEvent(tick=100, channel=8, data=[69, 0]),
   midi.NoteOnEvent(tick=20, channel=8, data=[67, 92]),
   midi.NoteOnEvent(tick=100, channel=8, data=[67, 0]),
   midi.NoteOnEvent(tick=20, channel=8, data=[69, 92]),
   midi.NoteOnEvent(tick=100, channel=8, data=[69, 0]),
   midi.NoteOnEvent(tick=20, channel=8, data=[67, 92]),
   midi.NoteOnEvent(tick=100, channel=8, data=[67, 0]),
   midi.NoteOnEvent(tick=20, channel=8, data=[69, 92]),
   midi.NoteOnEvent(tick=100, channel=8, data=[69, 0]),
   midi.NoteOnEvent(tick=20, channel=8, data=[67, 92]),
   midi.NoteOnEvent(tick=100, channel=8, data=[67, 0]),
   midi.NoteOnEvent(tick=20, channel=8, data=[64, 60]),
   midi.NoteOnEvent(tick=100, channel=8, data=[64, 0]),
   midi.NoteOnEvent(tick=20, channel=8, data=[64, 60]),
   midi.NoteOnEvent(tick=100, channel=8, data=[64, 0]),
   midi.NoteOnEvent(tick=20, channel=8, data=[64, 60]),
   midi.NoteOnEvent(tick=100, channel=8, data=[64, 0]),
   midi.NoteOnEvent(tick=140, channel=8, data=[64, 60]),
   midi.NoteOnEvent(tick=100, channel=8, data=[64, 0]),
   midi.NoteOnEvent(tick=20, channel=8, data=[64, 60]),
   midi.NoteOnEvent(tick=100, channel=8, data=[64, 0]),
   midi.NoteOnEvent(tick=20, channel=8, data=[64, 60]),
   midi.NoteOnEvent(tick=100, channel=8, data=[64, 0]),
   midi.NoteOnEvent(tick=140, channel=8, data=[65, 60]),
   midi.NoteOnEvent(tick=100, channel=8, data=[65, 0]),
   midi.NoteOnEvent(tick=20, channel=8, data=[65, 60]),
   midi.NoteOnEvent(tick=100, channel=8, data=[65, 0]),
   midi.NoteOnEvent(tick=20, channel=8, data=[65, 60]),
   midi.NoteOnEvent(tick=100, channel=8, data=[65, 0]),
   midi.NoteOnEvent(tick=140, channel=8, data=[65, 60]),
   midi.NoteOnEvent(tick=100, channel=8, data=[65, 0]),
   midi.NoteOnEvent(tick=20, channel=8, data=[65, 60]),
   midi.NoteOnEvent(tick=100, channel=8, data=[65, 0]),
   midi.NoteOnEvent(tick=20, channel=8, data=[65, 60]),
   midi.NoteOnEvent(tick=100, channel=8, data=[65, 0]),
   midi.NoteOnEvent(tick=140, channel=8, data=[64, 60]),
   midi.NoteOnEvent(tick=100, channel=8, data=[64, 0]),
   midi.NoteOnEvent(tick=20, channel=8, data=[64, 60]),
   midi.NoteOnEvent(tick=100, channel=8, data=[64, 0]),
   midi.NoteOnEvent(tick=20, channel=8, data=[64, 60]),
   midi.NoteOnEvent(tick=100, channel=8, data=[64, 0]),
   midi.NoteOnEvent(tick=140, channel=8, data=[64, 60]),
   midi.NoteOnEvent(tick=100, channel=8, data=[64, 0]),
   midi.NoteOnEvent(tick=20, channel=8, data=[64, 60]),
   midi.NoteOnEvent(tick=100, channel=8, data=[64, 0]),
   midi.NoteOnEvent(tick=20, channel=8, data=[64, 60]),
   midi.NoteOnEvent(tick=100, channel=8, data=[64, 0]),
   midi.NoteOnEvent(tick=20, channel=8, data=[59, 60]),
   midi.NoteOnEvent(tick=120, channel=8, data=[59, 0]),
   midi.NoteOnEvent(tick=0, channel=8, data=[55, 60]),
   midi.NoteOnEvent(tick=120, channel=8, data=[55, 0]),
   midi.NoteOnEvent(tick=0, channel=8, data=[60, 60]),
   midi.NoteOnEvent(tick=120, channel=8, data=[60, 0]),
   midi.NoteOnEvent(tick=0, channel=8, data=[55, 60]),
   midi.NoteOnEvent(tick=120, channel=8, data=[55, 0]),
   midi.NoteOnEvent(tick=0, channel=8, data=[62, 60]),
   midi.NoteOnEvent(tick=120, channel=8, data=[62, 0]),
   midi.NoteOnEvent(tick=0, channel=8, data=[55, 60]),
   midi.NoteOnEvent(tick=120, channel=8, data=[55, 0]),
   midi.NoteOnEvent(tick=0, channel=8, data=[59, 60]),
   midi.NoteOnEvent(tick=120, channel=8, data=[59, 0]),
   midi.NoteOnEvent(tick=0, channel=8, data=[55, 60]),
   midi.NoteOnEvent(tick=100, channel=8, data=[55, 0]),
   midi.NoteOnEvent(tick=20, channel=8, data=[60, 60]),
   midi.NoteOnEvent(tick=100, channel=8, data=[60, 0]),
   midi.NoteOnEvent(tick=20, channel=8, data=[64, 60]),
   midi.NoteOnEvent(tick=100, channel=8, data=[64, 0]),
   midi.NoteOnEvent(tick=20, channel=8, data=[64, 60]),
   midi.NoteOnEvent(tick=100, channel=8, data=[64, 0]),
   midi.NoteOnEvent(tick=20, channel=8, data=[64, 60]),
   midi.NoteOnEvent(tick=100, channel=8, data=[64, 0]),
   midi.NoteOnEvent(tick=140, channel=8, data=[64, 60]),
   midi.NoteOnEvent(tick=100, channel=8, data=[64, 0]),
   midi.NoteOnEvent(tick=20, channel=8, data=[64, 60]),
   midi.NoteOnEvent(tick=100, channel=8, data=[64, 0]),
   midi.NoteOnEvent(tick=20, channel=8, data=[64, 60]),
   midi.NoteOnEvent(tick=100, channel=8, data=[64, 0]),
   midi.NoteOnEvent(tick=140, channel=8, data=[65, 60]),
   midi.NoteOnEvent(tick=100, channel=8, data=[65, 0]),
   midi.NoteOnEvent(tick=20, channel=8, data=[65, 60]),
   midi.NoteOnEvent(tick=100, channel=8, data=[65, 0]),
   midi.NoteOnEvent(tick=20, channel=8, data=[65, 60]),
   midi.NoteOnEvent(tick=100, channel=8, data=[65, 0]),
   midi.NoteOnEvent(tick=140, channel=8, data=[65, 60]),
   midi.NoteOnEvent(tick=100, channel=8, data=[65, 0]),
   midi.NoteOnEvent(tick=20, channel=8, data=[65, 60]),
   midi.NoteOnEvent(tick=100, channel=8, data=[65, 0]),
   midi.NoteOnEvent(tick=20, channel=8, data=[65, 60]),
   midi.NoteOnEvent(tick=100, channel=8, data=[65, 0]),
   midi.NoteOnEvent(tick=140, channel=8, data=[64, 60]),
   midi.NoteOnEvent(tick=100, channel=8, data=[64, 0]),
   midi.NoteOnEvent(tick=20, channel=8, data=[64, 60]),
   midi.NoteOnEvent(tick=100, channel=8, data=[64, 0]),
   midi.NoteOnEvent(tick=20, channel=8, data=[64, 60]),
   midi.NoteOnEvent(tick=100, channel=8, data=[64, 0]),
   midi.NoteOnEvent(tick=140, channel=8, data=[64, 60]),
   midi.NoteOnEvent(tick=100, channel=8, data=[64, 0]),
   midi.NoteOnEvent(tick=20, channel=8, data=[64, 60]),
   midi.NoteOnEvent(tick=100, channel=8, data=[64, 0]),
   midi.NoteOnEvent(tick=20, channel=8, data=[64, 60]),
   midi.NoteOnEvent(tick=100, channel=8, data=[64, 0]),
   midi.NoteOnEvent(tick=20, channel=8, data=[59, 60]),
   midi.NoteOnEvent(tick=120, channel=8, data=[59, 0]),
   midi.NoteOnEvent(tick=0, channel=8, data=[55, 60]),
   midi.NoteOnEvent(tick=120, channel=8, data=[55, 0]),
   midi.NoteOnEvent(tick=0, channel=8, data=[60, 60]),
   midi.NoteOnEvent(tick=120, channel=8, data=[60, 0]),
   midi.NoteOnEvent(tick=0, channel=8, data=[55, 60]),
   midi.NoteOnEvent(tick=120, channel=8, data=[55, 0]),
   midi.NoteOnEvent(tick=0, channel=8, data=[62, 60]),
   midi.NoteOnEvent(tick=120, channel=8, data=[62, 0]),
   midi.NoteOnEvent(tick=0, channel=8, data=[55, 60]),
   midi.NoteOnEvent(tick=120, channel=8, data=[55, 0]),
   midi.NoteOnEvent(tick=0, channel=8, data=[59, 60]),
   midi.NoteOnEvent(tick=120, channel=8, data=[59, 0]),
   midi.NoteOnEvent(tick=0, channel=8, data=[55, 60]),
   midi.NoteOnEvent(tick=100, channel=8, data=[55, 0]),
   midi.NoteOnEvent(tick=20, channel=8, data=[60, 60]),
   midi.NoteOnEvent(tick=100, channel=8, data=[60, 0]),
   midi.NoteOnEvent(tick=20, channel=8, data=[79, 92]),
   midi.NoteOnEvent(tick=210, channel=8, data=[79, 0]),
   midi.NoteOnEvent(tick=30, channel=8, data=[79, 92]),
   midi.NoteOnEvent(tick=100, channel=8, data=[79, 0]),
   midi.NoteOnEvent(tick=20, channel=8, data=[79, 92]),
   midi.NoteOnEvent(tick=100, channel=8, data=[79, 0]),
   midi.NoteOnEvent(tick=20, channel=8, data=[79, 92]),
   midi.NoteOnEvent(tick=100, channel=8, data=[79, 0]),
   midi.NoteOnEvent(tick=20, channel=8, data=[79, 92]),
   midi.NoteOnEvent(tick=100, channel=8, data=[79, 0]),
   midi.NoteOnEvent(tick=20, channel=8, data=[76, 92]),
   midi.NoteOnEvent(tick=100, channel=8, data=[76, 0]),
   midi.NoteOnEvent(tick=20, channel=8, data=[76, 92]),
   midi.NoteOnEvent(tick=100, channel=8, data=[76, 0]),
   midi.NoteOnEvent(tick=20, channel=8, data=[76, 92]),
   midi.NoteOnEvent(tick=210, channel=8, data=[76, 0]),
   midi.NoteOnEvent(tick=30, channel=8, data=[76, 92]),
   midi.NoteOnEvent(tick=100, channel=8, data=[76, 0]),
   midi.NoteOnEvent(tick=20, channel=8, data=[76, 92]),
   midi.NoteOnEvent(tick=100, channel=8, data=[76, 0]),
   midi.NoteOnEvent(tick=20, channel=8, data=[76, 92]),
   midi.NoteOnEvent(tick=100, channel=8, data=[76, 0]),
   midi.NoteOnEvent(tick=20, channel=8, data=[76, 92]),
   midi.NoteOnEvent(tick=100, channel=8, data=[76, 0]),
   midi.NoteOnEvent(tick=20, channel=8, data=[72, 92]),
   midi.NoteOnEvent(tick=100, channel=8, data=[72, 0]),
   midi.NoteOnEvent(tick=20, channel=8, data=[72, 92]),
   midi.NoteOnEvent(tick=100, channel=8, data=[72, 0]),
   midi.NoteOnEvent(tick=20, channel=8, data=[72, 92]),
   midi.NoteOnEvent(tick=210, channel=8, data=[72, 0]),
   midi.NoteOnEvent(tick=30, channel=8, data=[72, 92]),
   midi.NoteOnEvent(tick=100, channel=8, data=[72, 0]),
   midi.NoteOnEvent(tick=20, channel=8, data=[72, 92]),
   midi.NoteOnEvent(tick=100, channel=8, data=[72, 0]),
   midi.NoteOnEvent(tick=20, channel=8, data=[72, 92]),
   midi.NoteOnEvent(tick=100, channel=8, data=[72, 0]),
   midi.NoteOnEvent(tick=20, channel=8, data=[72, 92]),
   midi.NoteOnEvent(tick=100, channel=8, data=[72, 0]),
   midi.NoteOnEvent(tick=20, channel=8, data=[73, 92]),
   midi.NoteOnEvent(tick=100, channel=8, data=[73, 0]),
   midi.NoteOnEvent(tick=20, channel=8, data=[74, 92]),
   midi.NoteOnEvent(tick=58, channel=8, data=[74, 0]),
   midi.NoteOnEvent(tick=2, channel=8, data=[74, 92]),
   midi.NoteOnEvent(tick=58, channel=8, data=[74, 0]),
   midi.NoteOnEvent(tick=2, channel=8, data=[82, 92]),
   midi.NoteOnEvent(tick=58, channel=8, data=[82, 0]),
   midi.NoteOnEvent(tick=2, channel=8, data=[82, 92]),
   midi.NoteOnEvent(tick=58, channel=8, data=[82, 0]),
   midi.NoteOnEvent(tick=2, channel=8, data=[81, 92]),
   midi.NoteOnEvent(tick=58, channel=8, data=[81, 0]),
   midi.NoteOnEvent(tick=2, channel=8, data=[81, 92]),
   midi.NoteOnEvent(tick=58, channel=8, data=[81, 0]),
   midi.NoteOnEvent(tick=2, channel=8, data=[81, 92]),
   midi.NoteOnEvent(tick=58, channel=8, data=[81, 0]),
   midi.NoteOnEvent(tick=2, channel=8, data=[81, 92]),
   midi.NoteOnEvent(tick=58, channel=8, data=[81, 0]),
   midi.NoteOnEvent(tick=2, channel=8, data=[81, 92]),
   midi.NoteOnEvent(tick=58, channel=8, data=[81, 0]),
   midi.NoteOnEvent(tick=2, channel=8, data=[81, 92]),
   midi.NoteOnEvent(tick=58, channel=8, data=[81, 0]),
   midi.NoteOnEvent(tick=2, channel=8, data=[87, 92]),
   midi.NoteOnEvent(tick=58, channel=8, data=[87, 0]),
   midi.NoteOnEvent(tick=2, channel=8, data=[87, 92]),
   midi.NoteOnEvent(tick=58, channel=8, data=[87, 0]),
   midi.NoteOnEvent(tick=2, channel=8, data=[86, 92]),
   midi.NoteOnEvent(tick=58, channel=8, data=[86, 0]),
   midi.NoteOnEvent(tick=2, channel=8, data=[86, 92]),
   midi.NoteOnEvent(tick=58, channel=8, data=[86, 0]),
   midi.NoteOnEvent(tick=2, channel=8, data=[83, 92]),
   midi.NoteOnEvent(tick=58, channel=8, data=[83, 0]),
   midi.NoteOnEvent(tick=2, channel=8, data=[83, 92]),
   midi.NoteOnEvent(tick=58, channel=8, data=[83, 0]),
   midi.NoteOnEvent(tick=2, channel=8, data=[84, 92]),
   midi.NoteOnEvent(tick=58, channel=8, data=[84, 0]),
   midi.NoteOnEvent(tick=2, channel=8, data=[84, 92]),
   midi.NoteOnEvent(tick=58, channel=8, data=[84, 0]),
   midi.NoteOnEvent(tick=2, channel=8, data=[84, 92]),
   midi.NoteOnEvent(tick=58, channel=8, data=[84, 0]),
   midi.NoteOnEvent(tick=2, channel=8, data=[84, 92]),
   midi.NoteOnEvent(tick=58, channel=8, data=[84, 0]),
   midi.NoteOnEvent(tick=2, channel=8, data=[84, 92]),
   midi.NoteOnEvent(tick=58, channel=8, data=[84, 0]),
   midi.NoteOnEvent(tick=2, channel=8, data=[84, 92]),
   midi.NoteOnEvent(tick=58, channel=8, data=[84, 0]),
   midi.NoteOnEvent(tick=2, channel=8, data=[84, 92]),
   midi.NoteOnEvent(tick=58, channel=8, data=[84, 0]),
   midi.NoteOnEvent(tick=2, channel=8, data=[84, 92]),
   midi.NoteOnEvent(tick=58, channel=8, data=[84, 0]),
   midi.NoteOnEvent(tick=2, channel=8, data=[84, 92]),
   midi.NoteOnEvent(tick=58, channel=8, data=[84, 0]),
   midi.NoteOnEvent(tick=2, channel=8, data=[84, 92]),
   midi.NoteOnEvent(tick=58, channel=8, data=[84, 0]),
   midi.NoteOnEvent(tick=2, channel=8, data=[84, 92]),
   midi.NoteOnEvent(tick=58, channel=8, data=[84, 0]),
   midi.NoteOnEvent(tick=2, channel=8, data=[84, 92]),
   midi.NoteOnEvent(tick=58, channel=8, data=[84, 0]),
   midi.NoteOnEvent(tick=2, channel=8, data=[83, 92]),
   midi.NoteOnEvent(tick=58, channel=8, data=[83, 0]),
   midi.NoteOnEvent(tick=2, channel=8, data=[83, 92]),
   midi.NoteOnEvent(tick=58, channel=8, data=[83, 0]),
   midi.NoteOnEvent(tick=2, channel=8, data=[83, 92]),
   midi.NoteOnEvent(tick=58, channel=8, data=[83, 0]),
   midi.NoteOnEvent(tick=2, channel=8, data=[83, 92]),
   midi.NoteOnEvent(tick=58, channel=8, data=[83, 0]),
   midi.NoteOnEvent(tick=2, channel=8, data=[84, 92]),
   midi.NoteOnEvent(tick=100, channel=8, data=[84, 0]),
   midi.NoteOnEvent(tick=20, channel=8, data=[79, 92]),
   midi.NoteOnEvent(tick=210, channel=8, data=[79, 0]),
   midi.NoteOnEvent(tick=30, channel=8, data=[79, 92]),
   midi.NoteOnEvent(tick=100, channel=8, data=[79, 0]),
   midi.NoteOnEvent(tick=20, channel=8, data=[79, 92]),
   midi.NoteOnEvent(tick=100, channel=8, data=[79, 0]),
   midi.NoteOnEvent(tick=20, channel=8, data=[79, 92]),
   midi.NoteOnEvent(tick=100, channel=8, data=[79, 0]),
   midi.NoteOnEvent(tick=20, channel=8, data=[79, 92]),
   midi.NoteOnEvent(tick=100, channel=8, data=[79, 0]),
   midi.NoteOnEvent(tick=20, channel=8, data=[76, 92]),
   midi.NoteOnEvent(tick=100, channel=8, data=[76, 0]),
   midi.NoteOnEvent(tick=20, channel=8, data=[76, 92]),
   midi.NoteOnEvent(tick=100, channel=8, data=[76, 0]),
   midi.NoteOnEvent(tick=20, channel=8, data=[76, 92]),
   midi.NoteOnEvent(tick=210, channel=8, data=[76, 0]),
   midi.NoteOnEvent(tick=30, channel=8, data=[76, 92]),
   midi.NoteOnEvent(tick=100, channel=8, data=[76, 0]),
   midi.NoteOnEvent(tick=20, channel=8, data=[76, 92]),
   midi.NoteOnEvent(tick=100, channel=8, data=[76, 0]),
   midi.NoteOnEvent(tick=20, channel=8, data=[76, 92]),
   midi.NoteOnEvent(tick=100, channel=8, data=[76, 0]),
   midi.NoteOnEvent(tick=20, channel=8, data=[76, 92]),
   midi.NoteOnEvent(tick=100, channel=8, data=[76, 0]),
   midi.NoteOnEvent(tick=20, channel=8, data=[72, 92]),
   midi.NoteOnEvent(tick=100, channel=8, data=[72, 0]),
   midi.NoteOnEvent(tick=20, channel=8, data=[72, 92]),
   midi.NoteOnEvent(tick=100, channel=8, data=[72, 0]),
   midi.NoteOnEvent(tick=20, channel=8, data=[72, 92]),
   midi.NoteOnEvent(tick=210, channel=8, data=[72, 0]),
   midi.NoteOnEvent(tick=30, channel=8, data=[72, 92]),
   midi.NoteOnEvent(tick=100, channel=8, data=[72, 0]),
   midi.NoteOnEvent(tick=20, channel=8, data=[72, 92]),
   midi.NoteOnEvent(tick=100, channel=8, data=[72, 0]),
   midi.NoteOnEvent(tick=20, channel=8, data=[72, 92]),
   midi.NoteOnEvent(tick=100, channel=8, data=[72, 0]),
   midi.NoteOnEvent(tick=20, channel=8, data=[72, 92]),
   midi.NoteOnEvent(tick=100, channel=8, data=[72, 0]),
   midi.NoteOnEvent(tick=20, channel=8, data=[73, 92]),
   midi.NoteOnEvent(tick=100, channel=8, data=[73, 0]),
   midi.NoteOnEvent(tick=20, channel=8, data=[74, 92]),
   midi.NoteOnEvent(tick=58, channel=8, data=[74, 0]),
   midi.NoteOnEvent(tick=2, channel=8, data=[74, 92]),
   midi.NoteOnEvent(tick=58, channel=8, data=[74, 0]),
   midi.NoteOnEvent(tick=2, channel=8, data=[82, 92]),
   midi.NoteOnEvent(tick=58, channel=8, data=[82, 0]),
   midi.NoteOnEvent(tick=2, channel=8, data=[82, 92]),
   midi.NoteOnEvent(tick=58, channel=8, data=[82, 0]),
   midi.NoteOnEvent(tick=2, channel=8, data=[81, 92]),
   midi.NoteOnEvent(tick=58, channel=8, data=[81, 0]),
   midi.NoteOnEvent(tick=2, channel=8, data=[81, 92]),
   midi.NoteOnEvent(tick=58, channel=8, data=[81, 0]),
   midi.NoteOnEvent(tick=2, channel=8, data=[81, 92]),
   midi.NoteOnEvent(tick=58, channel=8, data=[81, 0]),
   midi.NoteOnEvent(tick=2, channel=8, data=[81, 92]),
   midi.NoteOnEvent(tick=58, channel=8, data=[81, 0]),
   midi.NoteOnEvent(tick=2, channel=8, data=[81, 92]),
   midi.NoteOnEvent(tick=58, channel=8, data=[81, 0]),
   midi.NoteOnEvent(tick=2, channel=8, data=[81, 92]),
   midi.NoteOnEvent(tick=58, channel=8, data=[81, 0]),
   midi.NoteOnEvent(tick=2, channel=8, data=[87, 92]),
   midi.NoteOnEvent(tick=58, channel=8, data=[87, 0]),
   midi.NoteOnEvent(tick=2, channel=8, data=[87, 92]),
   midi.NoteOnEvent(tick=58, channel=8, data=[87, 0]),
   midi.NoteOnEvent(tick=2, channel=8, data=[86, 92]),
   midi.NoteOnEvent(tick=58, channel=8, data=[86, 0]),
   midi.NoteOnEvent(tick=2, channel=8, data=[86, 92]),
   midi.NoteOnEvent(tick=58, channel=8, data=[86, 0]),
   midi.NoteOnEvent(tick=2, channel=8, data=[83, 92]),
   midi.NoteOnEvent(tick=58, channel=8, data=[83, 0]),
   midi.NoteOnEvent(tick=2, channel=8, data=[83, 92]),
   midi.NoteOnEvent(tick=58, channel=8, data=[83, 0]),
   midi.NoteOnEvent(tick=2, channel=8, data=[84, 92]),
   midi.NoteOnEvent(tick=100, channel=8, data=[84, 0]),
   midi.NoteOnEvent(tick=1820, channel=8, data=[60, 60]),
   midi.NoteOnEvent(tick=480, channel=8, data=[60, 0]),
   midi.NoteOnEvent(tick=0, channel=8, data=[59, 60]),
   midi.NoteOnEvent(tick=450, channel=8, data=[59, 0]),
   midi.NoteOnEvent(tick=30, channel=8, data=[60, 60]),
   midi.NoteOnEvent(tick=580, channel=8, data=[60, 0]),
   midi.NoteOnEvent(tick=860, channel=8, data=[67, 92]),
   midi.NoteOnEvent(tick=0, channel=8, data=[72, 92]),
   midi.NoteOnEvent(tick=0, channel=8, data=[76, 92]),
   midi.NoteOnEvent(tick=100, channel=8, data=[76, 0]),
   midi.NoteOnEvent(tick=0, channel=8, data=[72, 0]),
   midi.NoteOnEvent(tick=0, channel=8, data=[67, 0]),
   midi.NoteOnEvent(tick=380, channel=8, data=[65, 92]),
   midi.NoteOnEvent(tick=0, channel=8, data=[72, 92]),
   midi.NoteOnEvent(tick=0, channel=8, data=[77, 92]),
   midi.NoteOnEvent(tick=100, channel=8, data=[77, 0]),
   midi.NoteOnEvent(tick=0, channel=8, data=[72, 0]),
   midi.NoteOnEvent(tick=0, channel=8, data=[65, 0]),
   midi.NoteOnEvent(tick=380, channel=8, data=[65, 92]),
   midi.NoteOnEvent(tick=0, channel=8, data=[72, 92]),
   midi.NoteOnEvent(tick=0, channel=8, data=[81, 92]),
   midi.NoteOnEvent(tick=100, channel=8, data=[81, 0]),
   midi.NoteOnEvent(tick=0, channel=8, data=[72, 0]),
   midi.NoteOnEvent(tick=0, channel=8, data=[65, 0]),
   midi.NoteOnEvent(tick=380, channel=8, data=[55, 92]),
   midi.NoteOnEvent(tick=100, channel=8, data=[55, 0]),
   midi.NoteOnEvent(tick=380, channel=8, data=[67, 92]),
   midi.NoteOnEvent(tick=0, channel=8, data=[74, 92]),
   midi.NoteOnEvent(tick=0, channel=8, data=[83, 92]),
   midi.NoteOnEvent(tick=100, channel=8, data=[83, 0]),
   midi.NoteOnEvent(tick=0, channel=8, data=[74, 0]),
   midi.NoteOnEvent(tick=0, channel=8, data=[67, 0]),
   midi.NoteOnEvent(tick=1400, channel=8, data=[60, 60]),
   midi.NoteOnEvent(tick=58, channel=8, data=[60, 0]),
   midi.NoteOnEvent(tick=2, channel=8, data=[60, 60]),
   midi.NoteOnEvent(tick=58, channel=8, data=[60, 0]),
   midi.NoteOnEvent(tick=2, channel=8, data=[60, 60]),
   midi.NoteOnEvent(tick=58, channel=8, data=[60, 0]),
   midi.NoteOnEvent(tick=2, channel=8, data=[60, 60]),
   midi.NoteOnEvent(tick=58, channel=8, data=[60, 0]),
   midi.NoteOnEvent(tick=2, channel=8, data=[60, 60]),
   midi.NoteOnEvent(tick=58, channel=8, data=[60, 0]),
   midi.NoteOnEvent(tick=2, channel=8, data=[60, 60]),
   midi.NoteOnEvent(tick=58, channel=8, data=[60, 0]),
   midi.NoteOnEvent(tick=2, channel=8, data=[60, 60]),
   midi.NoteOnEvent(tick=58, channel=8, data=[60, 0]),
   midi.NoteOnEvent(tick=2, channel=8, data=[64, 60]),
   midi.NoteOnEvent(tick=15, channel=8, data=[64, 0]),
   midi.NoteOnEvent(tick=0, channel=8, data=[62, 60]),
   midi.NoteOnEvent(tick=45, channel=8, data=[62, 0]),
   midi.NoteOnEvent(tick=0, channel=8, data=[60, 60]),
   midi.NoteOnEvent(tick=58, channel=8, data=[60, 0]),
   midi.NoteOnEvent(tick=2, channel=8, data=[60, 60]),
   midi.NoteOnEvent(tick=20, channel=8, data=[60, 0]),
   midi.NoteOnEvent(tick=40, channel=8, data=[60, 60]),
   midi.NoteOnEvent(tick=20, channel=8, data=[60, 0]),
   midi.NoteOnEvent(tick=40, channel=8, data=[59, 60]),
   midi.NoteOnEvent(tick=60, channel=8, data=[59, 0]),
   midi.NoteOnEvent(tick=0, channel=8, data=[60, 60]),
   midi.NoteOnEvent(tick=58, channel=8, data=[60, 0]),
   midi.NoteOnEvent(tick=2, channel=8, data=[59, 60]),
   midi.NoteOnEvent(tick=60, channel=8, data=[59, 0]),
   midi.NoteOnEvent(tick=0, channel=8, data=[60, 60]),
   midi.NoteOnEvent(tick=58, channel=8, data=[60, 0]),
   midi.NoteOnEvent(tick=2, channel=8, data=[64, 60]),
   midi.NoteOnEvent(tick=58, channel=8, data=[64, 0]),
   midi.NoteOnEvent(tick=2, channel=8, data=[64, 60]),
   midi.NoteOnEvent(tick=58, channel=8, data=[64, 0]),
   midi.NoteOnEvent(tick=2, channel=8, data=[64, 60]),
   midi.NoteOnEvent(tick=58, channel=8, data=[64, 0]),
   midi.NoteOnEvent(tick=2, channel=8, data=[64, 60]),
   midi.NoteOnEvent(tick=58, channel=8, data=[64, 0]),
   midi.NoteOnEvent(tick=2, channel=8, data=[64, 60]),
   midi.NoteOnEvent(tick=58, channel=8, data=[64, 0]),
   midi.NoteOnEvent(tick=2, channel=8, data=[64, 60]),
   midi.NoteOnEvent(tick=58, channel=8, data=[64, 0]),
   midi.NoteOnEvent(tick=2, channel=8, data=[64, 60]),
   midi.NoteOnEvent(tick=58, channel=8, data=[64, 0]),
   midi.NoteOnEvent(tick=2, channel=8, data=[64, 60]),
   midi.NoteOnEvent(tick=58, channel=8, data=[64, 0]),
   midi.NoteOnEvent(tick=2, channel=8, data=[67, 60]),
   midi.NoteOnEvent(tick=15, channel=8, data=[67, 0]),
   midi.NoteOnEvent(tick=0, channel=8, data=[65, 60]),
   midi.NoteOnEvent(tick=45, channel=8, data=[65, 0]),
   midi.NoteOnEvent(tick=0, channel=8, data=[64, 60]),
   midi.NoteOnEvent(tick=58, channel=8, data=[64, 0]),
   midi.NoteOnEvent(tick=2, channel=8, data=[64, 60]),
   midi.NoteOnEvent(tick=20, channel=8, data=[64, 0]),
   midi.NoteOnEvent(tick=40, channel=8, data=[64, 60]),
   midi.NoteOnEvent(tick=20, channel=8, data=[64, 0]),
   midi.NoteOnEvent(tick=40, channel=8, data=[63, 60]),
   midi.NoteOnEvent(tick=60, channel=8, data=[63, 0]),
   midi.NoteOnEvent(tick=0, channel=8, data=[64, 60]),
   midi.NoteOnEvent(tick=58, channel=8, data=[64, 0]),
   midi.NoteOnEvent(tick=2, channel=8, data=[63, 60]),
   midi.NoteOnEvent(tick=60, channel=8, data=[63, 0]),
   midi.NoteOnEvent(tick=0, channel=8, data=[64, 60]),
   midi.NoteOnEvent(tick=58, channel=8, data=[64, 0]),
   midi.NoteOnEvent(tick=2, channel=8, data=[64, 60]),
   midi.NoteOnEvent(tick=58, channel=8, data=[64, 0]),
   midi.NoteOnEvent(tick=2, channel=8, data=[64, 60]),
   midi.NoteOnEvent(tick=58, channel=8, data=[64, 0]),
   midi.NoteOnEvent(tick=2, channel=8, data=[64, 60]),
   midi.NoteOnEvent(tick=58, channel=8, data=[64, 0]),
   midi.NoteOnEvent(tick=2, channel=8, data=[64, 60]),
   midi.NoteOnEvent(tick=58, channel=8, data=[64, 0]),
   midi.NoteOnEvent(tick=2, channel=8, data=[64, 60]),
   midi.NoteOnEvent(tick=58, channel=8, data=[64, 0]),
   midi.NoteOnEvent(tick=2, channel=8, data=[64, 60]),
   midi.NoteOnEvent(tick=58, channel=8, data=[64, 0]),
   midi.NoteOnEvent(tick=2, channel=8, data=[64, 60]),
   midi.NoteOnEvent(tick=58, channel=8, data=[64, 0]),
   midi.NoteOnEvent(tick=2, channel=8, data=[64, 60]),
   midi.NoteOnEvent(tick=58, channel=8, data=[64, 0]),
   midi.NoteOnEvent(tick=2, channel=8, data=[67, 60]),
   midi.NoteOnEvent(tick=15, channel=8, data=[67, 0]),
   midi.NoteOnEvent(tick=0, channel=8, data=[65, 60]),
   midi.NoteOnEvent(tick=45, channel=8, data=[65, 0]),
   midi.NoteOnEvent(tick=0, channel=8, data=[64, 61]),
   midi.NoteOnEvent(tick=58, channel=8, data=[64, 0]),
   midi.NoteOnEvent(tick=2, channel=8, data=[64, 62]),
   midi.NoteOnEvent(tick=20, channel=8, data=[64, 0]),
   midi.NoteOnEvent(tick=40, channel=8, data=[64, 63]),
   midi.NoteOnEvent(tick=20, channel=8, data=[64, 0]),
   midi.NoteOnEvent(tick=40, channel=8, data=[63, 64]),
   midi.NoteOnEvent(tick=60, channel=8, data=[63, 0]),
   midi.NoteOnEvent(tick=0, channel=8, data=[64, 65]),
   midi.NoteOnEvent(tick=58, channel=8, data=[64, 0]),
   midi.NoteOnEvent(tick=2, channel=8, data=[63, 66]),
   midi.NoteOnEvent(tick=60, channel=8, data=[63, 0]),
   midi.NoteOnEvent(tick=0, channel=8, data=[64, 67]),
   midi.NoteOnEvent(tick=58, channel=8, data=[64, 0]),
   midi.NoteOnEvent(tick=2, channel=8, data=[72, 68]),
   midi.NoteOnEvent(tick=58, channel=8, data=[72, 0]),
   midi.NoteOnEvent(tick=2, channel=8, data=[72, 69]),
   midi.NoteOnEvent(tick=58, channel=8, data=[72, 0]),
   midi.NoteOnEvent(tick=2, channel=8, data=[72, 70]),
   midi.NoteOnEvent(tick=58, channel=8, data=[72, 0]),
   midi.NoteOnEvent(tick=2, channel=8, data=[72, 71]),
   midi.NoteOnEvent(tick=58, channel=8, data=[72, 0]),
   midi.NoteOnEvent(tick=2, channel=8, data=[72, 72]),
   midi.NoteOnEvent(tick=58, channel=8, data=[72, 0]),
   midi.NoteOnEvent(tick=2, channel=8, data=[72, 73]),
   midi.NoteOnEvent(tick=58, channel=8, data=[72, 0]),
   midi.NoteOnEvent(tick=2, channel=8, data=[72, 74]),
   midi.NoteOnEvent(tick=58, channel=8, data=[72, 0]),
   midi.NoteOnEvent(tick=2, channel=8, data=[72, 75]),
   midi.NoteOnEvent(tick=58, channel=8, data=[72, 0]),
   midi.NoteOnEvent(tick=2, channel=8, data=[76, 76]),
   midi.NoteOnEvent(tick=15, channel=8, data=[76, 0]),
   midi.NoteOnEvent(tick=0, channel=8, data=[74, 76]),
   midi.NoteOnEvent(tick=45, channel=8, data=[74, 0]),
   midi.NoteOnEvent(tick=0, channel=8, data=[72, 77]),
   midi.NoteOnEvent(tick=58, channel=8, data=[72, 0]),
   midi.NoteOnEvent(tick=2, channel=8, data=[72, 79]),
   midi.NoteOnEvent(tick=20, channel=8, data=[72, 0]),
   midi.NoteOnEvent(tick=40, channel=8, data=[72, 81]),
   midi.NoteOnEvent(tick=20, channel=8, data=[72, 0]),
   midi.NoteOnEvent(tick=40, channel=8, data=[71, 83]),
   midi.NoteOnEvent(tick=60, channel=8, data=[71, 0]),
   midi.NoteOnEvent(tick=0, channel=8, data=[72, 85]),
   midi.NoteOnEvent(tick=58, channel=8, data=[72, 0]),
   midi.NoteOnEvent(tick=2, channel=8, data=[71, 87]),
   midi.NoteOnEvent(tick=60, channel=8, data=[71, 0]),
   midi.NoteOnEvent(tick=0, channel=8, data=[72, 89]),
   midi.NoteOnEvent(tick=58, channel=8, data=[72, 0]),
   midi.NoteOnEvent(tick=2, channel=8, data=[76, 92]),
   midi.NoteOnEvent(tick=58, channel=8, data=[76, 0]),
   midi.NoteOnEvent(tick=2, channel=8, data=[76, 92]),
   midi.NoteOnEvent(tick=58, channel=8, data=[76, 0]),
   midi.NoteOnEvent(tick=2, channel=8, data=[76, 92]),
   midi.NoteOnEvent(tick=58, channel=8, data=[76, 0]),
   midi.NoteOnEvent(tick=2, channel=8, data=[76, 92]),
   midi.NoteOnEvent(tick=58, channel=8, data=[76, 0]),
   midi.NoteOnEvent(tick=2, channel=8, data=[76, 92]),
   midi.NoteOnEvent(tick=58, channel=8, data=[76, 0]),
   midi.NoteOnEvent(tick=2, channel=8, data=[76, 92]),
   midi.NoteOnEvent(tick=58, channel=8, data=[76, 0]),
   midi.NoteOnEvent(tick=2, channel=8, data=[76, 92]),
   midi.NoteOnEvent(tick=58, channel=8, data=[76, 0]),
   midi.NoteOnEvent(tick=2, channel=8, data=[76, 92]),
   midi.NoteOnEvent(tick=58, channel=8, data=[76, 0]),
   midi.NoteOnEvent(tick=2, channel=8, data=[79, 92]),
   midi.NoteOnEvent(tick=15, channel=8, data=[79, 0]),
   midi.NoteOnEvent(tick=0, channel=8, data=[77, 92]),
   midi.NoteOnEvent(tick=45, channel=8, data=[77, 0]),
   midi.NoteOnEvent(tick=0, channel=8, data=[76, 92]),
   midi.NoteOnEvent(tick=58, channel=8, data=[76, 0]),
   midi.NoteOnEvent(tick=2, channel=8, data=[76, 92]),
   midi.NoteOnEvent(tick=20, channel=8, data=[76, 0]),
   midi.NoteOnEvent(tick=40, channel=8, data=[76, 92]),
   midi.NoteOnEvent(tick=20, channel=8, data=[76, 0]),
   midi.NoteOnEvent(tick=40, channel=8, data=[75, 92]),
   midi.NoteOnEvent(tick=60, channel=8, data=[75, 0]),
   midi.NoteOnEvent(tick=0, channel=8, data=[76, 92]),
   midi.NoteOnEvent(tick=58, channel=8, data=[76, 0]),
   midi.NoteOnEvent(tick=2, channel=8, data=[75, 92]),
   midi.NoteOnEvent(tick=60, channel=8, data=[75, 0]),
   midi.NoteOnEvent(tick=0, channel=8, data=[76, 92]),
   midi.NoteOnEvent(tick=58, channel=8, data=[76, 0]),
   midi.NoteOnEvent(tick=2, channel=8, data=[67, 108]),
   midi.NoteOnEvent(tick=100, channel=8, data=[67, 0]),
   midi.NoteOnEvent(tick=20, channel=8, data=[67, 108]),
   midi.NoteOnEvent(tick=210, channel=8, data=[67, 0]),
   midi.NoteOnEvent(tick=30, channel=8, data=[69, 108]),
   midi.NoteOnEvent(tick=100, channel=8, data=[69, 0]),
   midi.NoteOnEvent(tick=20, channel=8, data=[67, 108]),
   midi.NoteOnEvent(tick=100, channel=8, data=[67, 0]),
   midi.NoteOnEvent(tick=20, channel=8, data=[69, 108]),
   midi.NoteOnEvent(tick=100, channel=8, data=[69, 0]),
   midi.NoteOnEvent(tick=20, channel=8, data=[67, 108]),
   midi.NoteOnEvent(tick=100, channel=8, data=[67, 0]),
   midi.NoteOnEvent(tick=20, channel=8, data=[55, 108]),
   midi.NoteOnEvent(tick=0, channel=8, data=[62, 108]),
   midi.NoteOnEvent(tick=0, channel=8, data=[71, 108]),
   midi.NoteOnEvent(tick=100, channel=8, data=[71, 0]),
   midi.NoteOnEvent(tick=0, channel=8, data=[62, 0]),
   midi.NoteOnEvent(tick=0, channel=8, data=[55, 0]),
   midi.NoteOnEvent(tick=20, channel=8, data=[55, 108]),
   midi.NoteOnEvent(tick=0, channel=8, data=[64, 108]),
   midi.NoteOnEvent(tick=0, channel=8, data=[72, 108]),
   midi.NoteOnEvent(tick=100, channel=8, data=[72, 0]),
   midi.NoteOnEvent(tick=0, channel=8, data=[64, 0]),
   midi.NoteOnEvent(tick=0, channel=8, data=[55, 0]),
   midi.NoteOnEvent(tick=20, channel=8, data=[67, 108]),
   midi.NoteOnEvent(tick=210, channel=8, data=[67, 0]),
   midi.NoteOnEvent(tick=30, channel=8, data=[69, 108]),
   midi.NoteOnEvent(tick=100, channel=8, data=[69, 0]),
   midi.NoteOnEvent(tick=20, channel=8, data=[67, 108]),
   midi.NoteOnEvent(tick=100, channel=8, data=[67, 0]),
   midi.NoteOnEvent(tick=20, channel=8, data=[69, 108]),
   midi.NoteOnEvent(tick=100, channel=8, data=[69, 0]),
   midi.NoteOnEvent(tick=20, channel=8, data=[67, 108]),
   midi.NoteOnEvent(tick=100, channel=8, data=[67, 0]),
   midi.NoteOnEvent(tick=20, channel=8, data=[55, 108]),
   midi.NoteOnEvent(tick=0, channel=8, data=[62, 108]),
   midi.NoteOnEvent(tick=0, channel=8, data=[71, 108]),
   midi.NoteOnEvent(tick=100, channel=8, data=[71, 0]),
   midi.NoteOnEvent(tick=0, channel=8, data=[62, 0]),
   midi.NoteOnEvent(tick=0, channel=8, data=[55, 0]),
   midi.NoteOnEvent(tick=20, channel=8, data=[55, 108]),
   midi.NoteOnEvent(tick=0, channel=8, data=[64, 108]),
   midi.NoteOnEvent(tick=0, channel=8, data=[72, 108]),
   midi.NoteOnEvent(tick=100, channel=8, data=[72, 0]),
   midi.NoteOnEvent(tick=0, channel=8, data=[64, 0]),
   midi.NoteOnEvent(tick=0, channel=8, data=[55, 0]),
   midi.NoteOnEvent(tick=20, channel=8, data=[79, 108]),
   midi.NoteOnEvent(tick=58, channel=8, data=[79, 0]),
   midi.NoteOnEvent(tick=2, channel=8, data=[79, 108]),
   midi.NoteOnEvent(tick=58, channel=8, data=[79, 0]),
   midi.NoteOnEvent(tick=2, channel=8, data=[84, 108]),
   midi.NoteOnEvent(tick=58, channel=8, data=[84, 0]),
   midi.NoteOnEvent(tick=2, channel=8, data=[84, 108]),
   midi.NoteOnEvent(tick=58, channel=8, data=[84, 0]),
   midi.NoteOnEvent(tick=2, channel=8, data=[79, 108]),
   midi.NoteOnEvent(tick=58, channel=8, data=[79, 0]),
   midi.NoteOnEvent(tick=2, channel=8, data=[79, 108]),
   midi.NoteOnEvent(tick=58, channel=8, data=[79, 0]),
   midi.NoteOnEvent(tick=2, channel=8, data=[84, 108]),
   midi.NoteOnEvent(tick=58, channel=8, data=[84, 0]),
   midi.NoteOnEvent(tick=2, channel=8, data=[84, 108]),
   midi.NoteOnEvent(tick=58, channel=8, data=[84, 0]),
   midi.NoteOnEvent(tick=2, channel=8, data=[79, 108]),
   midi.NoteOnEvent(tick=58, channel=8, data=[79, 0]),
   midi.NoteOnEvent(tick=2, channel=8, data=[79, 108]),
   midi.NoteOnEvent(tick=58, channel=8, data=[79, 0]),
   midi.NoteOnEvent(tick=2, channel=8, data=[84, 108]),
   midi.NoteOnEvent(tick=58, channel=8, data=[84, 0]),
   midi.NoteOnEvent(tick=2, channel=8, data=[84, 108]),
   midi.NoteOnEvent(tick=58, channel=8, data=[84, 0]),
   midi.NoteOnEvent(tick=2, channel=8, data=[79, 108]),
   midi.NoteOnEvent(tick=58, channel=8, data=[79, 0]),
   midi.NoteOnEvent(tick=2, channel=8, data=[79, 108]),
   midi.NoteOnEvent(tick=58, channel=8, data=[79, 0]),
   midi.NoteOnEvent(tick=2, channel=8, data=[84, 108]),
   midi.NoteOnEvent(tick=100, channel=8, data=[84, 0]),
   midi.NoteOnEvent(tick=380, channel=8, data=[67, 108]),
   midi.NoteOnEvent(tick=0, channel=8, data=[76, 108]),
   midi.NoteOnEvent(tick=0, channel=8, data=[84, 108]),
   midi.NoteOnEvent(tick=100, channel=8, data=[84, 0]),
   midi.NoteOnEvent(tick=0, channel=8, data=[76, 0]),
   midi.NoteOnEvent(tick=0, channel=8, data=[67, 0]),
   midi.NoteOnEvent(tick=140, channel=8, data=[67, 108]),
   midi.NoteOnEvent(tick=0, channel=8, data=[76, 108]),
   midi.NoteOnEvent(tick=0, channel=8, data=[84, 108]),
   midi.NoteOnEvent(tick=100, channel=8, data=[84, 0]),
   midi.NoteOnEvent(tick=0, channel=8, data=[76, 0]),
   midi.NoteOnEvent(tick=0, channel=8, data=[67, 0]),
   midi.NoteOnEvent(tick=140, channel=8, data=[67, 108]),
   midi.NoteOnEvent(tick=0, channel=8, data=[76, 108]),
   midi.NoteOnEvent(tick=0, channel=8, data=[84, 108]),
   midi.NoteOnEvent(tick=210, channel=8, data=[84, 0]),
   midi.NoteOnEvent(tick=0, channel=8, data=[76, 0]),
   midi.NoteOnEvent(tick=0, channel=8, data=[67, 0]),
   midi.EndOfTrackEvent(tick=0, data=[])]),
 midi.Track(\
  [midi.PortEvent(tick=0, data=[0]),
   midi.TrackNameEvent(tick=0, text='Violas', data=[86, 105, 111, 108, 97, 115]),
   midi.ProgramChangeEvent(tick=0, channel=10, data=[48]),
   midi.ControlChangeEvent(tick=0, channel=10, data=[7, 127]),
   midi.ControlChangeEvent(tick=0, channel=10, data=[10, 64]),
   midi.NoteOnEvent(tick=0, channel=10, data=[72, 92]),
   midi.NoteOnEvent(tick=100, channel=10, data=[72, 0]),
   midi.NoteOnEvent(tick=110, channel=10, data=[60, 92]),
   midi.NoteOnEvent(tick=28, channel=10, data=[60, 0]),
   midi.NoteOnEvent(tick=2, channel=10, data=[60, 92]),
   midi.NoteOnEvent(tick=100, channel=10, data=[60, 0]),
   midi.NoteOnEvent(tick=1550, channel=10, data=[67, 92]),
   midi.NoteOnEvent(tick=28, channel=10, data=[67, 0]),
   midi.NoteOnEvent(tick=2, channel=10, data=[67, 92]),
   midi.NoteOnEvent(tick=100, channel=10, data=[67, 0]),
   midi.NoteOnEvent(tick=110, channel=10, data=[55, 92]),
   midi.NoteOnEvent(tick=28, channel=10, data=[55, 0]),
   midi.NoteOnEvent(tick=2, channel=10, data=[55, 92]),
   midi.NoteOnEvent(tick=100, channel=10, data=[55, 0]),
   midi.NoteOnEvent(tick=1340, channel=10, data=[60, 45]),
   midi.NoteOnEvent(tick=30, channel=10, data=[60, 0]),
   midi.NoteOnEvent(tick=210, channel=10, data=[57, 45]),
   midi.NoteOnEvent(tick=30, channel=10, data=[57, 0]),
   midi.NoteOnEvent(tick=210, channel=10, data=[53, 45]),
   midi.NoteOnEvent(tick=30, channel=10, data=[53, 0]),
   midi.NoteOnEvent(tick=210, channel=10, data=[55, 45]),
   midi.NoteOnEvent(tick=450, channel=10, data=[55, 0]),
   midi.NoteOnEvent(tick=30, channel=10, data=[57, 45]),
   midi.NoteOnEvent(tick=240, channel=10, data=[57, 0]),
   midi.NoteOnEvent(tick=0, channel=10, data=[57, 45]),
   midi.NoteOnEvent(tick=100, channel=10, data=[57, 0]),
   midi.NoteOnEvent(tick=380, channel=10, data=[72, 92]),
   midi.NoteOnEvent(tick=100, channel=10, data=[72, 0]),
   midi.NoteOnEvent(tick=140, channel=10, data=[69, 92]),
   midi.NoteOnEvent(tick=100, channel=10, data=[69, 0]),
   midi.NoteOnEvent(tick=140, channel=10, data=[65, 92]),
   midi.NoteOnEvent(tick=100, channel=10, data=[65, 0]),
   midi.NoteOnEvent(tick=140, channel=10, data=[67, 92]),
   midi.NoteOnEvent(tick=100, channel=10, data=[67, 0]),
   midi.NoteOnEvent(tick=140, channel=10, data=[55, 92]),
   midi.NoteOnEvent(tick=100, channel=10, data=[55, 0]),
   midi.NoteOnEvent(tick=140, channel=10, data=[60, 45]),
   midi.NoteOnEvent(tick=100, channel=10, data=[60, 0]),
   midi.NoteOnEvent(tick=380, channel=10, data=[60, 45]),
   midi.NoteOnEvent(tick=100, channel=10, data=[60, 0]),
   midi.NoteOnEvent(tick=140, channel=10, data=[60, 45]),
   midi.NoteOnEvent(tick=100, channel=10, data=[60, 0]),
   midi.NoteOnEvent(tick=20, channel=10, data=[60, 45]),
   midi.NoteOnEvent(tick=100, channel=10, data=[60, 0]),
   midi.NoteOnEvent(tick=20, channel=10, data=[60, 45]),
   midi.NoteOnEvent(tick=100, channel=10, data=[60, 0]),
   midi.NoteOnEvent(tick=380, channel=10, data=[60, 45]),
   midi.NoteOnEvent(tick=100, channel=10, data=[60, 0]),
   midi.NoteOnEvent(tick=140, channel=10, data=[60, 45]),
   midi.NoteOnEvent(tick=100, channel=10, data=[60, 0]),
   midi.NoteOnEvent(tick=20, channel=10, data=[60, 45]),
   midi.NoteOnEvent(tick=100, channel=10, data=[60, 0]),
   midi.NoteOnEvent(tick=20, channel=10, data=[60, 45]),
   midi.NoteOnEvent(tick=100, channel=10, data=[60, 0]),
   midi.NoteOnEvent(tick=380, channel=10, data=[60, 45]),
   midi.NoteOnEvent(tick=100, channel=10, data=[60, 0]),
   midi.NoteOnEvent(tick=140, channel=10, data=[60, 45]),
   midi.NoteOnEvent(tick=100, channel=10, data=[60, 0]),
   midi.NoteOnEvent(tick=20, channel=10, data=[60, 45]),
   midi.NoteOnEvent(tick=100, channel=10, data=[60, 0]),
   midi.NoteOnEvent(tick=20, channel=10, data=[60, 45]),
   midi.NoteOnEvent(tick=100, channel=10, data=[60, 0]),
   midi.NoteOnEvent(tick=380, channel=10, data=[60, 45]),
   midi.NoteOnEvent(tick=100, channel=10, data=[60, 0]),
   midi.NoteOnEvent(tick=140, channel=10, data=[60, 45]),
   midi.NoteOnEvent(tick=100, channel=10, data=[60, 0]),
   midi.NoteOnEvent(tick=20, channel=10, data=[60, 45]),
   midi.NoteOnEvent(tick=100, channel=10, data=[60, 0]),
   midi.NoteOnEvent(tick=20, channel=10, data=[60, 45]),
   midi.NoteOnEvent(tick=100, channel=10, data=[60, 0]),
   midi.NoteOnEvent(tick=140, channel=10, data=[60, 45]),
   midi.NoteOnEvent(tick=100, channel=10, data=[60, 0]),
   midi.NoteOnEvent(tick=20, channel=10, data=[60, 45]),
   midi.NoteOnEvent(tick=100, channel=10, data=[60, 0]),
   midi.NoteOnEvent(tick=20, channel=10, data=[60, 45]),
   midi.NoteOnEvent(tick=100, channel=10, data=[60, 0]),
   midi.NoteOnEvent(tick=20, channel=10, data=[60, 45]),
   midi.NoteOnEvent(tick=100, channel=10, data=[60, 0]),
   midi.NoteOnEvent(tick=20, channel=10, data=[60, 45]),
   midi.NoteOnEvent(tick=100, channel=10, data=[60, 0]),
   midi.NoteOnEvent(tick=20, channel=10, data=[60, 45]),
   midi.NoteOnEvent(tick=100, channel=10, data=[60, 0]),
   midi.NoteOnEvent(tick=20, channel=10, data=[60, 92]),
   midi.NoteOnEvent(tick=100, channel=10, data=[60, 0]),
   midi.NoteOnEvent(tick=20, channel=10, data=[64, 92]),
   midi.NoteOnEvent(tick=210, channel=10, data=[64, 0]),
   midi.NoteOnEvent(tick=30, channel=10, data=[65, 92]),
   midi.NoteOnEvent(tick=100, channel=10, data=[65, 0]),
   midi.NoteOnEvent(tick=20, channel=10, data=[64, 92]),
   midi.NoteOnEvent(tick=100, channel=10, data=[64, 0]),
   midi.NoteOnEvent(tick=20, channel=10, data=[65, 92]),
   midi.NoteOnEvent(tick=100, channel=10, data=[65, 0]),
   midi.NoteOnEvent(tick=20, channel=10, data=[64, 92]),
   midi.NoteOnEvent(tick=100, channel=10, data=[64, 0]),
   midi.NoteOnEvent(tick=20, channel=10, data=[65, 92]),
   midi.NoteOnEvent(tick=100, channel=10, data=[65, 0]),
   midi.NoteOnEvent(tick=20, channel=10, data=[64, 92]),
   midi.NoteOnEvent(tick=100, channel=10, data=[64, 0]),
   midi.NoteOnEvent(tick=20, channel=10, data=[64, 92]),
   midi.NoteOnEvent(tick=210, channel=10, data=[64, 0]),
   midi.NoteOnEvent(tick=30, channel=10, data=[65, 92]),
   midi.NoteOnEvent(tick=100, channel=10, data=[65, 0]),
   midi.NoteOnEvent(tick=20, channel=10, data=[64, 92]),
   midi.NoteOnEvent(tick=100, channel=10, data=[64, 0]),
   midi.NoteOnEvent(tick=20, channel=10, data=[65, 92]),
   midi.NoteOnEvent(tick=100, channel=10, data=[65, 0]),
   midi.NoteOnEvent(tick=20, channel=10, data=[64, 92]),
   midi.NoteOnEvent(tick=100, channel=10, data=[64, 0]),
   midi.NoteOnEvent(tick=20, channel=10, data=[65, 92]),
   midi.NoteOnEvent(tick=100, channel=10, data=[65, 0]),
   midi.NoteOnEvent(tick=20, channel=10, data=[64, 92]),
   midi.NoteOnEvent(tick=100, channel=10, data=[64, 0]),
   midi.NoteOnEvent(tick=20, channel=10, data=[60, 60]),
   midi.NoteOnEvent(tick=100, channel=10, data=[60, 0]),
   midi.NoteOnEvent(tick=20, channel=10, data=[60, 60]),
   midi.NoteOnEvent(tick=100, channel=10, data=[60, 0]),
   midi.NoteOnEvent(tick=20, channel=10, data=[60, 60]),
   midi.NoteOnEvent(tick=100, channel=10, data=[60, 0]),
   midi.NoteOnEvent(tick=140, channel=10, data=[60, 60]),
   midi.NoteOnEvent(tick=100, channel=10, data=[60, 0]),
   midi.NoteOnEvent(tick=20, channel=10, data=[60, 60]),
   midi.NoteOnEvent(tick=100, channel=10, data=[60, 0]),
   midi.NoteOnEvent(tick=20, channel=10, data=[60, 60]),
   midi.NoteOnEvent(tick=100, channel=10, data=[60, 0]),
   midi.NoteOnEvent(tick=140, channel=10, data=[60, 60]),
   midi.NoteOnEvent(tick=100, channel=10, data=[60, 0]),
   midi.NoteOnEvent(tick=20, channel=10, data=[60, 60]),
   midi.NoteOnEvent(tick=100, channel=10, data=[60, 0]),
   midi.NoteOnEvent(tick=20, channel=10, data=[60, 60]),
   midi.NoteOnEvent(tick=100, channel=10, data=[60, 0]),
   midi.NoteOnEvent(tick=140, channel=10, data=[60, 60]),
   midi.NoteOnEvent(tick=100, channel=10, data=[60, 0]),
   midi.NoteOnEvent(tick=20, channel=10, data=[60, 60]),
   midi.NoteOnEvent(tick=100, channel=10, data=[60, 0]),
   midi.NoteOnEvent(tick=20, channel=10, data=[60, 60]),
   midi.NoteOnEvent(tick=100, channel=10, data=[60, 0]),
   midi.NoteOnEvent(tick=140, channel=10, data=[60, 60]),
   midi.NoteOnEvent(tick=100, channel=10, data=[60, 0]),
   midi.NoteOnEvent(tick=20, channel=10, data=[60, 60]),
   midi.NoteOnEvent(tick=100, channel=10, data=[60, 0]),
   midi.NoteOnEvent(tick=20, channel=10, data=[60, 60]),
   midi.NoteOnEvent(tick=100, channel=10, data=[60, 0]),
   midi.NoteOnEvent(tick=140, channel=10, data=[60, 60]),
   midi.NoteOnEvent(tick=100, channel=10, data=[60, 0]),
   midi.NoteOnEvent(tick=20, channel=10, data=[60, 60]),
   midi.NoteOnEvent(tick=100, channel=10, data=[60, 0]),
   midi.NoteOnEvent(tick=20, channel=10, data=[60, 60]),
   midi.NoteOnEvent(tick=100, channel=10, data=[60, 0]),
   midi.NoteOnEvent(tick=20, channel=10, data=[67, 60]),
   midi.NoteOnEvent(tick=930, channel=10, data=[67, 0]),
   midi.NoteOnEvent(tick=150, channel=10, data=[60, 60]),
   midi.NoteOnEvent(tick=100, channel=10, data=[60, 0]),
   midi.NoteOnEvent(tick=20, channel=10, data=[60, 60]),
   midi.NoteOnEvent(tick=100, channel=10, data=[60, 0]),
   midi.NoteOnEvent(tick=20, channel=10, data=[60, 60]),
   midi.NoteOnEvent(tick=100, channel=10, data=[60, 0]),
   midi.NoteOnEvent(tick=140, channel=10, data=[60, 60]),
   midi.NoteOnEvent(tick=100, channel=10, data=[60, 0]),
   midi.NoteOnEvent(tick=20, channel=10, data=[60, 60]),
   midi.NoteOnEvent(tick=100, channel=10, data=[60, 0]),
   midi.NoteOnEvent(tick=20, channel=10, data=[60, 60]),
   midi.NoteOnEvent(tick=100, channel=10, data=[60, 0]),
   midi.NoteOnEvent(tick=140, channel=10, data=[60, 60]),
   midi.NoteOnEvent(tick=100, channel=10, data=[60, 0]),
   midi.NoteOnEvent(tick=20, channel=10, data=[60, 60]),
   midi.NoteOnEvent(tick=100, channel=10, data=[60, 0]),
   midi.NoteOnEvent(tick=20, channel=10, data=[60, 60]),
   midi.NoteOnEvent(tick=100, channel=10, data=[60, 0]),
   midi.NoteOnEvent(tick=140, channel=10, data=[60, 60]),
   midi.NoteOnEvent(tick=100, channel=10, data=[60, 0]),
   midi.NoteOnEvent(tick=20, channel=10, data=[60, 60]),
   midi.NoteOnEvent(tick=100, channel=10, data=[60, 0]),
   midi.NoteOnEvent(tick=20, channel=10, data=[60, 60]),
   midi.NoteOnEvent(tick=100, channel=10, data=[60, 0]),
   midi.NoteOnEvent(tick=140, channel=10, data=[60, 60]),
   midi.NoteOnEvent(tick=100, channel=10, data=[60, 0]),
   midi.NoteOnEvent(tick=20, channel=10, data=[60, 60]),
   midi.NoteOnEvent(tick=100, channel=10, data=[60, 0]),
   midi.NoteOnEvent(tick=20, channel=10, data=[60, 60]),
   midi.NoteOnEvent(tick=100, channel=10, data=[60, 0]),
   midi.NoteOnEvent(tick=140, channel=10, data=[60, 60]),
   midi.NoteOnEvent(tick=100, channel=10, data=[60, 0]),
   midi.NoteOnEvent(tick=20, channel=10, data=[60, 60]),
   midi.NoteOnEvent(tick=100, channel=10, data=[60, 0]),
   midi.NoteOnEvent(tick=20, channel=10, data=[60, 60]),
   midi.NoteOnEvent(tick=100, channel=10, data=[60, 0]),
   midi.NoteOnEvent(tick=20, channel=10, data=[67, 60]),
   midi.NoteOnEvent(tick=930, channel=10, data=[67, 0]),
   midi.NoteOnEvent(tick=30, channel=10, data=[52, 60]),
   midi.NoteOnEvent(tick=930, channel=10, data=[52, 0]),
   midi.NoteOnEvent(tick=30, channel=10, data=[57, 60]),
   midi.NoteOnEvent(tick=930, channel=10, data=[57, 0]),
   midi.NoteOnEvent(tick=30, channel=10, data=[55, 60]),
   midi.NoteOnEvent(tick=240, channel=10, data=[55, 0]),
   midi.NoteOnEvent(tick=0, channel=10, data=[59, 60]),
   midi.NoteOnEvent(tick=480, channel=10, data=[59, 0]),
   midi.NoteOnEvent(tick=0, channel=10, data=[64, 60]),
   midi.NoteOnEvent(tick=1170, channel=10, data=[64, 0]),
   midi.NoteOnEvent(tick=30, channel=10, data=[62, 92]),
   midi.NoteOnEvent(tick=100, channel=10, data=[62, 0]),
   midi.NoteOnEvent(tick=20, channel=10, data=[66, 92]),
   midi.NoteOnEvent(tick=210, channel=10, data=[66, 0]),
   midi.NoteOnEvent(tick=30, channel=10, data=[67, 92]),
   midi.NoteOnEvent(tick=100, channel=10, data=[67, 0]),
   midi.NoteOnEvent(tick=20, channel=10, data=[66, 92]),
   midi.NoteOnEvent(tick=100, channel=10, data=[66, 0]),
   midi.NoteOnEvent(tick=20, channel=10, data=[67, 92]),
   midi.NoteOnEvent(tick=100, channel=10, data=[67, 0]),
   midi.NoteOnEvent(tick=20, channel=10, data=[69, 92]),
   midi.NoteOnEvent(tick=100, channel=10, data=[69, 0]),
   midi.NoteOnEvent(tick=20, channel=10, data=[67, 92]),
   midi.NoteOnEvent(tick=100, channel=10, data=[67, 0]),
   midi.NoteOnEvent(tick=20, channel=10, data=[66, 92]),
   midi.NoteOnEvent(tick=100, channel=10, data=[66, 0]),
   midi.NoteOnEvent(tick=20, channel=10, data=[66, 92]),
   midi.NoteOnEvent(tick=210, channel=10, data=[66, 0]),
   midi.NoteOnEvent(tick=30, channel=10, data=[67, 92]),
   midi.NoteOnEvent(tick=100, channel=10, data=[67, 0]),
   midi.NoteOnEvent(tick=20, channel=10, data=[66, 92]),
   midi.NoteOnEvent(tick=100, channel=10, data=[66, 0]),
   midi.NoteOnEvent(tick=20, channel=10, data=[67, 92]),
   midi.NoteOnEvent(tick=100, channel=10, data=[67, 0]),
   midi.NoteOnEvent(tick=20, channel=10, data=[69, 92]),
   midi.NoteOnEvent(tick=100, channel=10, data=[69, 0]),
   midi.NoteOnEvent(tick=20, channel=10, data=[67, 92]),
   midi.NoteOnEvent(tick=100, channel=10, data=[67, 0]),
   midi.NoteOnEvent(tick=20, channel=10, data=[66, 92]),
   midi.NoteOnEvent(tick=100, channel=10, data=[66, 0]),
   midi.NoteOnEvent(tick=3860, channel=10, data=[67, 92]),
   midi.NoteOnEvent(tick=210, channel=10, data=[67, 0]),
   midi.NoteOnEvent(tick=30, channel=10, data=[66, 92]),
   midi.NoteOnEvent(tick=100, channel=10, data=[66, 0]),
   midi.NoteOnEvent(tick=20, channel=10, data=[67, 92]),
   midi.NoteOnEvent(tick=100, channel=10, data=[67, 0]),
   midi.NoteOnEvent(tick=20, channel=10, data=[66, 92]),
   midi.NoteOnEvent(tick=100, channel=10, data=[66, 0]),
   midi.NoteOnEvent(tick=20, channel=10, data=[67, 92]),
   midi.NoteOnEvent(tick=100, channel=10, data=[67, 0]),
   midi.NoteOnEvent(tick=20, channel=10, data=[63, 92]),
   midi.NoteOnEvent(tick=100, channel=10, data=[63, 0]),
   midi.NoteOnEvent(tick=20, channel=10, data=[64, 92]),
   midi.NoteOnEvent(tick=100, channel=10, data=[64, 0]),
   midi.NoteOnEvent(tick=20, channel=10, data=[64, 92]),
   midi.NoteOnEvent(tick=210, channel=10, data=[64, 0]),
   midi.NoteOnEvent(tick=30, channel=10, data=[63, 92]),
   midi.NoteOnEvent(tick=100, channel=10, data=[63, 0]),
   midi.NoteOnEvent(tick=20, channel=10, data=[64, 92]),
   midi.NoteOnEvent(tick=100, channel=10, data=[64, 0]),
   midi.NoteOnEvent(tick=20, channel=10, data=[63, 92]),
   midi.NoteOnEvent(tick=100, channel=10, data=[63, 0]),
   midi.NoteOnEvent(tick=20, channel=10, data=[64, 92]),
   midi.NoteOnEvent(tick=100, channel=10, data=[64, 0]),
   midi.NoteOnEvent(tick=20, channel=10, data=[59, 92]),
   midi.NoteOnEvent(tick=100, channel=10, data=[59, 0]),
   midi.NoteOnEvent(tick=20, channel=10, data=[60, 92]),
   midi.NoteOnEvent(tick=100, channel=10, data=[60, 0]),
   midi.NoteOnEvent(tick=20, channel=10, data=[60, 92]),
   midi.NoteOnEvent(tick=210, channel=10, data=[60, 0]),
   midi.NoteOnEvent(tick=30, channel=10, data=[59, 92]),
   midi.NoteOnEvent(tick=100, channel=10, data=[59, 0]),
   midi.NoteOnEvent(tick=20, channel=10, data=[60, 92]),
   midi.NoteOnEvent(tick=100, channel=10, data=[60, 0]),
   midi.NoteOnEvent(tick=20, channel=10, data=[59, 92]),
   midi.NoteOnEvent(tick=100, channel=10, data=[59, 0]),
   midi.NoteOnEvent(tick=20, channel=10, data=[60, 92]),
   midi.NoteOnEvent(tick=100, channel=10, data=[60, 0]),
   midi.NoteOnEvent(tick=20, channel=10, data=[62, 92]),
   midi.NoteOnEvent(tick=100, channel=10, data=[62, 0]),
   midi.NoteOnEvent(tick=20, channel=10, data=[60, 92]),
   midi.NoteOnEvent(tick=100, channel=10, data=[60, 0]),
   midi.NoteOnEvent(tick=20, channel=10, data=[68, 92]),
   midi.NoteOnEvent(tick=100, channel=10, data=[68, 0]),
   midi.NoteOnEvent(tick=20, channel=10, data=[69, 92]),
   midi.NoteOnEvent(tick=100, channel=10, data=[69, 0]),
   midi.NoteOnEvent(tick=20, channel=10, data=[67, 92]),
   midi.NoteOnEvent(tick=100, channel=10, data=[67, 0]),
   midi.NoteOnEvent(tick=20, channel=10, data=[66, 92]),
   midi.NoteOnEvent(tick=100, channel=10, data=[66, 0]),
   midi.NoteOnEvent(tick=20, channel=10, data=[62, 92]),
   midi.NoteOnEvent(tick=100, channel=10, data=[62, 0]),
   midi.NoteOnEvent(tick=20, channel=10, data=[64, 92]),
   midi.NoteOnEvent(tick=100, channel=10, data=[64, 0]),
   midi.NoteOnEvent(tick=20, channel=10, data=[66, 92]),
   midi.NoteOnEvent(tick=100, channel=10, data=[66, 0]),
   midi.NoteOnEvent(tick=20, channel=10, data=[67, 92]),
   midi.NoteOnEvent(tick=30, channel=10, data=[67, 0]),
   midi.NoteOnEvent(tick=90, channel=10, data=[71, 92]),
   midi.NoteOnEvent(tick=30, channel=10, data=[71, 0]),
   midi.NoteOnEvent(tick=90, channel=10, data=[74, 92]),
   midi.NoteOnEvent(tick=210, channel=10, data=[74, 0]),
   midi.NoteOnEvent(tick=30, channel=10, data=[64, 92]),
   midi.NoteOnEvent(tick=30, channel=10, data=[64, 0]),
   midi.NoteOnEvent(tick=90, channel=10, data=[67, 92]),
   midi.NoteOnEvent(tick=30, channel=10, data=[67, 0]),
   midi.NoteOnEvent(tick=90, channel=10, data=[71, 92]),
   midi.NoteOnEvent(tick=210, channel=10, data=[71, 0]),
   midi.NoteOnEvent(tick=30, channel=10, data=[60, 92]),
   midi.NoteOnEvent(tick=30, channel=10, data=[60, 0]),
   midi.NoteOnEvent(tick=90, channel=10, data=[64, 92]),
   midi.NoteOnEvent(tick=30, channel=10, data=[64, 0]),
   midi.NoteOnEvent(tick=90, channel=10, data=[62, 92]),
   midi.NoteOnEvent(tick=30, channel=10, data=[62, 0]),
   midi.NoteOnEvent(tick=90, channel=10, data=[66, 92]),
   midi.NoteOnEvent(tick=30, channel=10, data=[66, 0]),
   midi.NoteOnEvent(tick=90, channel=10, data=[67, 92]),
   midi.NoteOnEvent(tick=30, channel=10, data=[67, 0]),
   midi.NoteOnEvent(tick=90, channel=10, data=[71, 92]),
   midi.NoteOnEvent(tick=30, channel=10, data=[71, 0]),
   midi.NoteOnEvent(tick=90, channel=10, data=[74, 92]),
   midi.NoteOnEvent(tick=210, channel=10, data=[74, 0]),
   midi.NoteOnEvent(tick=30, channel=10, data=[64, 92]),
   midi.NoteOnEvent(tick=30, channel=10, data=[64, 0]),
   midi.NoteOnEvent(tick=90, channel=10, data=[67, 92]),
   midi.NoteOnEvent(tick=30, channel=10, data=[67, 0]),
   midi.NoteOnEvent(tick=90, channel=10, data=[71, 92]),
   midi.NoteOnEvent(tick=210, channel=10, data=[71, 0]),
   midi.NoteOnEvent(tick=30, channel=10, data=[60, 92]),
   midi.NoteOnEvent(tick=100, channel=10, data=[60, 0]),
   midi.NoteOnEvent(tick=20, channel=10, data=[64, 92]),
   midi.NoteOnEvent(tick=100, channel=10, data=[64, 0]),
   midi.NoteOnEvent(tick=20, channel=10, data=[62, 92]),
   midi.NoteOnEvent(tick=100, channel=10, data=[62, 0]),
   midi.NoteOnEvent(tick=20, channel=10, data=[62, 92]),
   midi.NoteOnEvent(tick=100, channel=10, data=[62, 0]),
   midi.NoteOnEvent(tick=20, channel=10, data=[67, 92]),
   midi.NoteOnEvent(tick=100, channel=10, data=[67, 0]),
   midi.NoteOnEvent(tick=20, channel=10, data=[55, 60]),
   midi.NoteOnEvent(tick=100, channel=10, data=[55, 0]),
   midi.NoteOnEvent(tick=20, channel=10, data=[55, 60]),
   midi.NoteOnEvent(tick=100, channel=10, data=[55, 0]),
   midi.NoteOnEvent(tick=20, channel=10, data=[55, 60]),
   midi.NoteOnEvent(tick=100, channel=10, data=[55, 0]),
   midi.NoteOnEvent(tick=140, channel=10, data=[55, 60]),
   midi.NoteOnEvent(tick=100, channel=10, data=[55, 0]),
   midi.NoteOnEvent(tick=20, channel=10, data=[55, 60]),
   midi.NoteOnEvent(tick=100, channel=10, data=[55, 0]),
   midi.NoteOnEvent(tick=20, channel=10, data=[55, 60]),
   midi.NoteOnEvent(tick=100, channel=10, data=[55, 0]),
   midi.NoteOnEvent(tick=140, channel=10, data=[55, 60]),
   midi.NoteOnEvent(tick=100, channel=10, data=[55, 0]),
   midi.NoteOnEvent(tick=20, channel=10, data=[55, 60]),
   midi.NoteOnEvent(tick=100, channel=10, data=[55, 0]),
   midi.NoteOnEvent(tick=20, channel=10, data=[55, 60]),
   midi.NoteOnEvent(tick=100, channel=10, data=[55, 0]),
   midi.NoteOnEvent(tick=140, channel=10, data=[55, 60]),
   midi.NoteOnEvent(tick=100, channel=10, data=[55, 0]),
   midi.NoteOnEvent(tick=20, channel=10, data=[55, 60]),
   midi.NoteOnEvent(tick=100, channel=10, data=[55, 0]),
   midi.NoteOnEvent(tick=20, channel=10, data=[55, 60]),
   midi.NoteOnEvent(tick=100, channel=10, data=[55, 0]),
   midi.NoteOnEvent(tick=140, channel=10, data=[55, 60]),
   midi.NoteOnEvent(tick=100, channel=10, data=[55, 0]),
   midi.NoteOnEvent(tick=20, channel=10, data=[55, 60]),
   midi.NoteOnEvent(tick=100, channel=10, data=[55, 0]),
   midi.NoteOnEvent(tick=20, channel=10, data=[55, 60]),
   midi.NoteOnEvent(tick=100, channel=10, data=[55, 0]),
   midi.NoteOnEvent(tick=140, channel=10, data=[55, 60]),
   midi.NoteOnEvent(tick=100, channel=10, data=[55, 0]),
   midi.NoteOnEvent(tick=20, channel=10, data=[55, 60]),
   midi.NoteOnEvent(tick=100, channel=10, data=[55, 0]),
   midi.NoteOnEvent(tick=20, channel=10, data=[55, 60]),
   midi.NoteOnEvent(tick=100, channel=10, data=[55, 0]),
   midi.NoteOnEvent(tick=20, channel=10, data=[54, 60]),
   midi.NoteOnEvent(tick=120, channel=10, data=[54, 0]),
   midi.NoteOnEvent(tick=0, channel=10, data=[50, 60]),
   midi.NoteOnEvent(tick=120, channel=10, data=[50, 0]),
   midi.NoteOnEvent(tick=0, channel=10, data=[55, 60]),
   midi.NoteOnEvent(tick=120, channel=10, data=[55, 0]),
   midi.NoteOnEvent(tick=0, channel=10, data=[50, 60]),
   midi.NoteOnEvent(tick=120, channel=10, data=[50, 0]),
   midi.NoteOnEvent(tick=0, channel=10, data=[57, 60]),
   midi.NoteOnEvent(tick=120, channel=10, data=[57, 0]),
   midi.NoteOnEvent(tick=0, channel=10, data=[50, 60]),
   midi.NoteOnEvent(tick=120, channel=10, data=[50, 0]),
   midi.NoteOnEvent(tick=0, channel=10, data=[54, 60]),
   midi.NoteOnEvent(tick=120, channel=10, data=[54, 0]),
   midi.NoteOnEvent(tick=0, channel=10, data=[50, 60]),
   midi.NoteOnEvent(tick=100, channel=10, data=[50, 0]),
   midi.NoteOnEvent(tick=20, channel=10, data=[55, 60]),
   midi.NoteOnEvent(tick=100, channel=10, data=[55, 0]),
   midi.NoteOnEvent(tick=20, channel=10, data=[55, 60]),
   midi.NoteOnEvent(tick=100, channel=10, data=[55, 0]),
   midi.NoteOnEvent(tick=20, channel=10, data=[55, 60]),
   midi.NoteOnEvent(tick=100, channel=10, data=[55, 0]),
   midi.NoteOnEvent(tick=20, channel=10, data=[55, 60]),
   midi.NoteOnEvent(tick=100, channel=10, data=[55, 0]),
   midi.NoteOnEvent(tick=140, channel=10, data=[55, 60]),
   midi.NoteOnEvent(tick=100, channel=10, data=[55, 0]),
   midi.NoteOnEvent(tick=20, channel=10, data=[55, 60]),
   midi.NoteOnEvent(tick=100, channel=10, data=[55, 0]),
   midi.NoteOnEvent(tick=20, channel=10, data=[55, 60]),
   midi.NoteOnEvent(tick=100, channel=10, data=[55, 0]),
   midi.NoteOnEvent(tick=140, channel=10, data=[55, 60]),
   midi.NoteOnEvent(tick=100, channel=10, data=[55, 0]),
   midi.NoteOnEvent(tick=20, channel=10, data=[55, 60]),
   midi.NoteOnEvent(tick=100, channel=10, data=[55, 0]),
   midi.NoteOnEvent(tick=20, channel=10, data=[55, 60]),
   midi.NoteOnEvent(tick=100, channel=10, data=[55, 0]),
   midi.NoteOnEvent(tick=140, channel=10, data=[55, 60]),
   midi.NoteOnEvent(tick=100, channel=10, data=[55, 0]),
   midi.NoteOnEvent(tick=20, channel=10, data=[55, 60]),
   midi.NoteOnEvent(tick=100, channel=10, data=[55, 0]),
   midi.NoteOnEvent(tick=20, channel=10, data=[55, 60]),
   midi.NoteOnEvent(tick=100, channel=10, data=[55, 0]),
   midi.NoteOnEvent(tick=140, channel=10, data=[55, 60]),
   midi.NoteOnEvent(tick=100, channel=10, data=[55, 0]),
   midi.NoteOnEvent(tick=20, channel=10, data=[55, 60]),
   midi.NoteOnEvent(tick=100, channel=10, data=[55, 0]),
   midi.NoteOnEvent(tick=20, channel=10, data=[55, 60]),
   midi.NoteOnEvent(tick=100, channel=10, data=[55, 0]),
   midi.NoteOnEvent(tick=140, channel=10, data=[55, 60]),
   midi.NoteOnEvent(tick=100, channel=10, data=[55, 0]),
   midi.NoteOnEvent(tick=20, channel=10, data=[55, 60]),
   midi.NoteOnEvent(tick=100, channel=10, data=[55, 0]),
   midi.NoteOnEvent(tick=20, channel=10, data=[55, 60]),
   midi.NoteOnEvent(tick=100, channel=10, data=[55, 0]),
   midi.NoteOnEvent(tick=20, channel=10, data=[54, 60]),
   midi.NoteOnEvent(tick=120, channel=10, data=[54, 0]),
   midi.NoteOnEvent(tick=0, channel=10, data=[50, 60]),
   midi.NoteOnEvent(tick=120, channel=10, data=[50, 0]),
   midi.NoteOnEvent(tick=0, channel=10, data=[55, 60]),
   midi.NoteOnEvent(tick=120, channel=10, data=[55, 0]),
   midi.NoteOnEvent(tick=0, channel=10, data=[50, 60]),
   midi.NoteOnEvent(tick=120, channel=10, data=[50, 0]),
   midi.NoteOnEvent(tick=0, channel=10, data=[57, 60]),
   midi.NoteOnEvent(tick=120, channel=10, data=[57, 0]),
   midi.NoteOnEvent(tick=0, channel=10, data=[50, 60]),
   midi.NoteOnEvent(tick=120, channel=10, data=[50, 0]),
   midi.NoteOnEvent(tick=0, channel=10, data=[54, 60]),
   midi.NoteOnEvent(tick=120, channel=10, data=[54, 0]),
   midi.NoteOnEvent(tick=0, channel=10, data=[50, 60]),
   midi.NoteOnEvent(tick=100, channel=10, data=[50, 0]),
   midi.NoteOnEvent(tick=20, channel=10, data=[59, 60]),
   midi.NoteOnEvent(tick=930, channel=10, data=[59, 0]),
   midi.NoteOnEvent(tick=30, channel=10, data=[57, 60]),
   midi.NoteOnEvent(tick=930, channel=10, data=[57, 0]),
   midi.NoteOnEvent(tick=30, channel=10, data=[62, 60]),
   midi.NoteOnEvent(tick=930, channel=10, data=[62, 0]),
   midi.NoteOnEvent(tick=30, channel=10, data=[68, 92]),
   midi.NoteOnEvent(tick=100, channel=10, data=[68, 0]),
   midi.NoteOnEvent(tick=20, channel=10, data=[68, 92]),
   midi.NoteOnEvent(tick=210, channel=10, data=[68, 0]),
   midi.NoteOnEvent(tick=30, channel=10, data=[69, 92]),
   midi.NoteOnEvent(tick=100, channel=10, data=[69, 0]),
   midi.NoteOnEvent(tick=20, channel=10, data=[68, 92]),
   midi.NoteOnEvent(tick=100, channel=10, data=[68, 0]),
   midi.NoteOnEvent(tick=20, channel=10, data=[69, 92]),
   midi.NoteOnEvent(tick=100, channel=10, data=[69, 0]),
   midi.NoteOnEvent(tick=20, channel=10, data=[71, 92]),
   midi.NoteOnEvent(tick=100, channel=10, data=[71, 0]),
   midi.NoteOnEvent(tick=20, channel=10, data=[69, 92]),
   midi.NoteOnEvent(tick=100, channel=10, data=[69, 0]),
   midi.NoteOnEvent(tick=20, channel=10, data=[68, 92]),
   midi.NoteOnEvent(tick=100, channel=10, data=[68, 0]),
   midi.NoteOnEvent(tick=20, channel=10, data=[68, 92]),
   midi.NoteOnEvent(tick=210, channel=10, data=[68, 0]),
   midi.NoteOnEvent(tick=30, channel=10, data=[69, 92]),
   midi.NoteOnEvent(tick=100, channel=10, data=[69, 0]),
   midi.NoteOnEvent(tick=20, channel=10, data=[68, 92]),
   midi.NoteOnEvent(tick=100, channel=10, data=[68, 0]),
   midi.NoteOnEvent(tick=20, channel=10, data=[69, 92]),
   midi.NoteOnEvent(tick=100, channel=10, data=[69, 0]),
   midi.NoteOnEvent(tick=20, channel=10, data=[71, 92]),
   midi.NoteOnEvent(tick=100, channel=10, data=[71, 0]),
   midi.NoteOnEvent(tick=20, channel=10, data=[69, 92]),
   midi.NoteOnEvent(tick=100, channel=10, data=[69, 0]),
   midi.NoteOnEvent(tick=20, channel=10, data=[68, 92]),
   midi.NoteOnEvent(tick=100, channel=10, data=[68, 0]),
   midi.NoteOnEvent(tick=740, channel=10, data=[76, 60]),
   midi.NoteOnEvent(tick=220, channel=10, data=[76, 0]),
   midi.NoteOnEvent(tick=20, channel=10, data=[76, 60]),
   midi.NoteOnEvent(tick=210, channel=10, data=[76, 0]),
   midi.NoteOnEvent(tick=30, channel=10, data=[76, 60]),
   midi.NoteOnEvent(tick=120, channel=10, data=[76, 0]),
   midi.NoteOnEvent(tick=0, channel=10, data=[74, 60]),
   midi.NoteOnEvent(tick=100, channel=10, data=[74, 0]),
   midi.NoteOnEvent(tick=20, channel=10, data=[74, 60]),
   midi.NoteOnEvent(tick=100, channel=10, data=[74, 0]),
   midi.NoteOnEvent(tick=20, channel=10, data=[74, 60]),
   midi.NoteOnEvent(tick=100, channel=10, data=[74, 0]),
   midi.NoteOnEvent(tick=20, channel=10, data=[74, 60]),
   midi.NoteOnEvent(tick=220, channel=10, data=[74, 0]),
   midi.NoteOnEvent(tick=20, channel=10, data=[74, 60]),
   midi.NoteOnEvent(tick=210, channel=10, data=[74, 0]),
   midi.NoteOnEvent(tick=30, channel=10, data=[74, 60]),
   midi.NoteOnEvent(tick=120, channel=10, data=[74, 0]),
   midi.NoteOnEvent(tick=0, channel=10, data=[72, 60]),
   midi.NoteOnEvent(tick=100, channel=10, data=[72, 0]),
   midi.NoteOnEvent(tick=20, channel=10, data=[72, 60]),
   midi.NoteOnEvent(tick=100, channel=10, data=[72, 0]),
   midi.NoteOnEvent(tick=20, channel=10, data=[72, 60]),
   midi.NoteOnEvent(tick=100, channel=10, data=[72, 0]),
   midi.NoteOnEvent(tick=20, channel=10, data=[72, 60]),
   midi.NoteOnEvent(tick=220, channel=10, data=[72, 0]),
   midi.NoteOnEvent(tick=20, channel=10, data=[72, 60]),
   midi.NoteOnEvent(tick=210, channel=10, data=[72, 0]),
   midi.NoteOnEvent(tick=30, channel=10, data=[72, 60]),
   midi.NoteOnEvent(tick=120, channel=10, data=[72, 0]),
   midi.NoteOnEvent(tick=0, channel=10, data=[71, 60]),
   midi.NoteOnEvent(tick=100, channel=10, data=[71, 0]),
   midi.NoteOnEvent(tick=20, channel=10, data=[71, 60]),
   midi.NoteOnEvent(tick=100, channel=10, data=[71, 0]),
   midi.NoteOnEvent(tick=20, channel=10, data=[71, 60]),
   midi.NoteOnEvent(tick=100, channel=10, data=[71, 0]),
   midi.NoteOnEvent(tick=20, channel=10, data=[71, 60]),
   midi.NoteOnEvent(tick=100, channel=10, data=[71, 0]),
   midi.NoteOnEvent(tick=20, channel=10, data=[69, 92]),
   midi.NoteOnEvent(tick=100, channel=10, data=[69, 0]),
   midi.NoteOnEvent(tick=20, channel=10, data=[73, 92]),
   midi.NoteOnEvent(tick=210, channel=10, data=[73, 0]),
   midi.NoteOnEvent(tick=30, channel=10, data=[74, 92]),
   midi.NoteOnEvent(tick=100, channel=10, data=[74, 0]),
   midi.NoteOnEvent(tick=20, channel=10, data=[73, 92]),
   midi.NoteOnEvent(tick=100, channel=10, data=[73, 0]),
   midi.NoteOnEvent(tick=20, channel=10, data=[74, 92]),
   midi.NoteOnEvent(tick=100, channel=10, data=[74, 0]),
   midi.NoteOnEvent(tick=20, channel=10, data=[73, 92]),
   midi.NoteOnEvent(tick=100, channel=10, data=[73, 0]),
   midi.NoteOnEvent(tick=20, channel=10, data=[74, 92]),
   midi.NoteOnEvent(tick=100, channel=10, data=[74, 0]),
   midi.NoteOnEvent(tick=20, channel=10, data=[73, 92]),
   midi.NoteOnEvent(tick=100, channel=10, data=[73, 0]),
   midi.NoteOnEvent(tick=380, channel=10, data=[61, 60]),
   midi.NoteOnEvent(tick=450, channel=10, data=[61, 0]),
   midi.NoteOnEvent(tick=30, channel=10, data=[59, 60]),
   midi.NoteOnEvent(tick=930, channel=10, data=[59, 0]),
   midi.NoteOnEvent(tick=30, channel=10, data=[64, 60]),
   midi.NoteOnEvent(tick=930, channel=10, data=[64, 0]),
   midi.NoteOnEvent(tick=30, channel=10, data=[62, 92]),
   midi.NoteOnEvent(tick=100, channel=10, data=[62, 0]),
   midi.NoteOnEvent(tick=20, channel=10, data=[66, 92]),
   midi.NoteOnEvent(tick=210, channel=10, data=[66, 0]),
   midi.NoteOnEvent(tick=30, channel=10, data=[67, 92]),
   midi.NoteOnEvent(tick=100, channel=10, data=[67, 0]),
   midi.NoteOnEvent(tick=20, channel=10, data=[66, 92]),
   midi.NoteOnEvent(tick=100, channel=10, data=[66, 0]),
   midi.NoteOnEvent(tick=20, channel=10, data=[67, 92]),
   midi.NoteOnEvent(tick=100, channel=10, data=[67, 0]),
   midi.NoteOnEvent(tick=20, channel=10, data=[66, 92]),
   midi.NoteOnEvent(tick=100, channel=10, data=[66, 0]),
   midi.NoteOnEvent(tick=20, channel=10, data=[67, 92]),
   midi.NoteOnEvent(tick=100, channel=10, data=[67, 0]),
   midi.NoteOnEvent(tick=20, channel=10, data=[66, 92]),
   midi.NoteOnEvent(tick=100, channel=10, data=[66, 0]),
   midi.NoteOnEvent(tick=860, channel=10, data=[67, 60]),
   midi.NoteOnEvent(tick=60, channel=10, data=[67, 0]),
   midi.NoteOnEvent(tick=0, channel=10, data=[69, 60]),
   midi.NoteOnEvent(tick=60, channel=10, data=[69, 0]),
   midi.NoteOnEvent(tick=0, channel=10, data=[70, 60]),
   midi.NoteOnEvent(tick=60, channel=10, data=[70, 0]),
   midi.NoteOnEvent(tick=0, channel=10, data=[69, 60]),
   midi.NoteOnEvent(tick=60, channel=10, data=[69, 0]),
   midi.NoteOnEvent(tick=0, channel=10, data=[67, 60]),
   midi.NoteOnEvent(tick=100, channel=10, data=[67, 0]),
   midi.NoteOnEvent(tick=140, channel=10, data=[69, 60]),
   midi.NoteOnEvent(tick=60, channel=10, data=[69, 0]),
   midi.NoteOnEvent(tick=0, channel=10, data=[70, 60]),
   midi.NoteOnEvent(tick=60, channel=10, data=[70, 0]),
   midi.NoteOnEvent(tick=0, channel=10, data=[72, 60]),
   midi.NoteOnEvent(tick=60, channel=10, data=[72, 0]),
   midi.NoteOnEvent(tick=0, channel=10, data=[70, 60]),
   midi.NoteOnEvent(tick=60, channel=10, data=[70, 0]),
   midi.NoteOnEvent(tick=0, channel=10, data=[69, 60]),
   midi.NoteOnEvent(tick=60, channel=10, data=[69, 0]),
   midi.NoteOnEvent(tick=0, channel=10, data=[70, 60]),
   midi.NoteOnEvent(tick=60, channel=10, data=[70, 0]),
   midi.NoteOnEvent(tick=0, channel=10, data=[69, 60]),
   midi.NoteOnEvent(tick=60, channel=10, data=[69, 0]),
   midi.NoteOnEvent(tick=0, channel=10, data=[67, 60]),
   midi.NoteOnEvent(tick=60, channel=10, data=[67, 0]),
   midi.NoteOnEvent(tick=0, channel=10, data=[66, 60]),
   midi.NoteOnEvent(tick=60, channel=10, data=[66, 0]),
   midi.NoteOnEvent(tick=0, channel=10, data=[67, 60]),
   midi.NoteOnEvent(tick=60, channel=10, data=[67, 0]),
   midi.NoteOnEvent(tick=0, channel=10, data=[69, 60]),
   midi.NoteOnEvent(tick=60, channel=10, data=[69, 0]),
   midi.NoteOnEvent(tick=0, channel=10, data=[67, 60]),
   midi.NoteOnEvent(tick=60, channel=10, data=[67, 0]),
   midi.NoteOnEvent(tick=0, channel=10, data=[66, 60]),
   midi.NoteOnEvent(tick=100, channel=10, data=[66, 0]),
   midi.NoteOnEvent(tick=140, channel=10, data=[67, 60]),
   midi.NoteOnEvent(tick=60, channel=10, data=[67, 0]),
   midi.NoteOnEvent(tick=0, channel=10, data=[69, 60]),
   midi.NoteOnEvent(tick=60, channel=10, data=[69, 0]),
   midi.NoteOnEvent(tick=0, channel=10, data=[70, 60]),
   midi.NoteOnEvent(tick=60, channel=10, data=[70, 0]),
   midi.NoteOnEvent(tick=0, channel=10, data=[69, 60]),
   midi.NoteOnEvent(tick=60, channel=10, data=[69, 0]),
   midi.NoteOnEvent(tick=0, channel=10, data=[67, 60]),
   midi.NoteOnEvent(tick=60, channel=10, data=[67, 0]),
   midi.NoteOnEvent(tick=0, channel=10, data=[69, 60]),
   midi.NoteOnEvent(tick=60, channel=10, data=[69, 0]),
   midi.NoteOnEvent(tick=0, channel=10, data=[67, 60]),
   midi.NoteOnEvent(tick=60, channel=10, data=[67, 0]),
   midi.NoteOnEvent(tick=0, channel=10, data=[65, 60]),
   midi.NoteOnEvent(tick=60, channel=10, data=[65, 0]),
   midi.NoteOnEvent(tick=0, channel=10, data=[64, 60]),
   midi.NoteOnEvent(tick=60, channel=10, data=[64, 0]),
   midi.NoteOnEvent(tick=0, channel=10, data=[66, 60]),
   midi.NoteOnEvent(tick=60, channel=10, data=[66, 0]),
   midi.NoteOnEvent(tick=0, channel=10, data=[67, 60]),
   midi.NoteOnEvent(tick=60, channel=10, data=[67, 0]),
   midi.NoteOnEvent(tick=0, channel=10, data=[66, 60]),
   midi.NoteOnEvent(tick=60, channel=10, data=[66, 0]),
   midi.NoteOnEvent(tick=0, channel=10, data=[64, 60]),
   midi.NoteOnEvent(tick=100, channel=10, data=[64, 0]),
   midi.NoteOnEvent(tick=140, channel=10, data=[66, 60]),
   midi.NoteOnEvent(tick=60, channel=10, data=[66, 0]),
   midi.NoteOnEvent(tick=0, channel=10, data=[67, 60]),
   midi.NoteOnEvent(tick=60, channel=10, data=[67, 0]),
   midi.NoteOnEvent(tick=0, channel=10, data=[69, 60]),
   midi.NoteOnEvent(tick=60, channel=10, data=[69, 0]),
   midi.NoteOnEvent(tick=0, channel=10, data=[67, 60]),
   midi.NoteOnEvent(tick=60, channel=10, data=[67, 0]),
   midi.NoteOnEvent(tick=0, channel=10, data=[66, 60]),
   midi.NoteOnEvent(tick=60, channel=10, data=[66, 0]),
   midi.NoteOnEvent(tick=0, channel=10, data=[62, 60]),
   midi.NoteOnEvent(tick=60, channel=10, data=[62, 0]),
   midi.NoteOnEvent(tick=0, channel=10, data=[64, 60]),
   midi.NoteOnEvent(tick=60, channel=10, data=[64, 0]),
   midi.NoteOnEvent(tick=0, channel=10, data=[66, 60]),
   midi.NoteOnEvent(tick=58, channel=10, data=[66, 0]),
   midi.NoteOnEvent(tick=2, channel=10, data=[67, 92]),
   midi.NoteOnEvent(tick=100, channel=10, data=[67, 0]),
   midi.NoteOnEvent(tick=20, channel=10, data=[59, 92]),
   midi.NoteOnEvent(tick=210, channel=10, data=[59, 0]),
   midi.NoteOnEvent(tick=30, channel=10, data=[60, 92]),
   midi.NoteOnEvent(tick=100, channel=10, data=[60, 0]),
   midi.NoteOnEvent(tick=20, channel=10, data=[59, 92]),
   midi.NoteOnEvent(tick=100, channel=10, data=[59, 0]),
   midi.NoteOnEvent(tick=20, channel=10, data=[60, 92]),
   midi.NoteOnEvent(tick=100, channel=10, data=[60, 0]),
   midi.NoteOnEvent(tick=20, channel=10, data=[59, 92]),
   midi.NoteOnEvent(tick=100, channel=10, data=[59, 0]),
   midi.NoteOnEvent(tick=20, channel=10, data=[60, 92]),
   midi.NoteOnEvent(tick=100, channel=10, data=[60, 0]),
   midi.NoteOnEvent(tick=20, channel=10, data=[59, 92]),
   midi.NoteOnEvent(tick=100, channel=10, data=[59, 0]),
   midi.NoteOnEvent(tick=380, channel=10, data=[59, 60]),
   midi.NoteOnEvent(tick=450, channel=10, data=[59, 0]),
   midi.NoteOnEvent(tick=30, channel=10, data=[57, 60]),
   midi.NoteOnEvent(tick=930, channel=10, data=[57, 0]),
   midi.NoteOnEvent(tick=30, channel=10, data=[62, 60]),
   midi.NoteOnEvent(tick=930, channel=10, data=[62, 0]),
   midi.NoteOnEvent(tick=30, channel=10, data=[60, 92]),
   midi.NoteOnEvent(tick=100, channel=10, data=[60, 0]),
   midi.NoteOnEvent(tick=20, channel=10, data=[64, 92]),
   midi.NoteOnEvent(tick=210, channel=10, data=[64, 0]),
   midi.NoteOnEvent(tick=30, channel=10, data=[65, 92]),
   midi.NoteOnEvent(tick=100, channel=10, data=[65, 0]),
   midi.NoteOnEvent(tick=20, channel=10, data=[64, 92]),
   midi.NoteOnEvent(tick=100, channel=10, data=[64, 0]),
   midi.NoteOnEvent(tick=20, channel=10, data=[65, 92]),
   midi.NoteOnEvent(tick=100, channel=10, data=[65, 0]),
   midi.NoteOnEvent(tick=20, channel=10, data=[64, 92]),
   midi.NoteOnEvent(tick=100, channel=10, data=[64, 0]),
   midi.NoteOnEvent(tick=20, channel=10, data=[65, 92]),
   midi.NoteOnEvent(tick=100, channel=10, data=[65, 0]),
   midi.NoteOnEvent(tick=20, channel=10, data=[64, 92]),
   midi.NoteOnEvent(tick=100, channel=10, data=[64, 0]),
   midi.NoteOnEvent(tick=860, channel=10, data=[54, 60]),
   midi.NoteOnEvent(tick=60, channel=10, data=[54, 0]),
   midi.NoteOnEvent(tick=0, channel=10, data=[55, 60]),
   midi.NoteOnEvent(tick=60, channel=10, data=[55, 0]),
   midi.NoteOnEvent(tick=0, channel=10, data=[57, 60]),
   midi.NoteOnEvent(tick=60, channel=10, data=[57, 0]),
   midi.NoteOnEvent(tick=0, channel=10, data=[55, 60]),
   midi.NoteOnEvent(tick=60, channel=10, data=[55, 0]),
   midi.NoteOnEvent(tick=0, channel=10, data=[54, 60]),
   midi.NoteOnEvent(tick=100, channel=10, data=[54, 0]),
   midi.NoteOnEvent(tick=140, channel=10, data=[55, 60]),
   midi.NoteOnEvent(tick=60, channel=10, data=[55, 0]),
   midi.NoteOnEvent(tick=0, channel=10, data=[57, 60]),
   midi.NoteOnEvent(tick=60, channel=10, data=[57, 0]),
   midi.NoteOnEvent(tick=0, channel=10, data=[58, 60]),
   midi.NoteOnEvent(tick=60, channel=10, data=[58, 0]),
   midi.NoteOnEvent(tick=0, channel=10, data=[57, 60]),
   midi.NoteOnEvent(tick=60, channel=10, data=[57, 0]),
   midi.NoteOnEvent(tick=0, channel=10, data=[55, 60]),
   midi.NoteOnEvent(tick=60, channel=10, data=[55, 0]),
   midi.NoteOnEvent(tick=0, channel=10, data=[57, 60]),
   midi.NoteOnEvent(tick=60, channel=10, data=[57, 0]),
   midi.NoteOnEvent(tick=0, channel=10, data=[55, 60]),
   midi.NoteOnEvent(tick=60, channel=10, data=[55, 0]),
   midi.NoteOnEvent(tick=0, channel=10, data=[53, 60]),
   midi.NoteOnEvent(tick=58, channel=10, data=[53, 0]),
   midi.NoteOnEvent(tick=2, channel=10, data=[52, 60]),
   midi.NoteOnEvent(tick=60, channel=10, data=[52, 0]),
   midi.NoteOnEvent(tick=0, channel=10, data=[53, 60]),
   midi.NoteOnEvent(tick=60, channel=10, data=[53, 0]),
   midi.NoteOnEvent(tick=0, channel=10, data=[55, 60]),
   midi.NoteOnEvent(tick=60, channel=10, data=[55, 0]),
   midi.NoteOnEvent(tick=0, channel=10, data=[53, 60]),
   midi.NoteOnEvent(tick=60, channel=10, data=[53, 0]),
   midi.NoteOnEvent(tick=0, channel=10, data=[52, 60]),
   midi.NoteOnEvent(tick=100, channel=10, data=[52, 0]),
   midi.NoteOnEvent(tick=140, channel=10, data=[53, 60]),
   midi.NoteOnEvent(tick=60, channel=10, data=[53, 0]),
   midi.NoteOnEvent(tick=0, channel=10, data=[55, 60]),
   midi.NoteOnEvent(tick=60, channel=10, data=[55, 0]),
   midi.NoteOnEvent(tick=0, channel=10, data=[57, 60]),
   midi.NoteOnEvent(tick=60, channel=10, data=[57, 0]),
   midi.NoteOnEvent(tick=0, channel=10, data=[55, 60]),
   midi.NoteOnEvent(tick=60, channel=10, data=[55, 0]),
   midi.NoteOnEvent(tick=0, channel=10, data=[53, 60]),
   midi.NoteOnEvent(tick=60, channel=10, data=[53, 0]),
   midi.NoteOnEvent(tick=0, channel=10, data=[55, 60]),
   midi.NoteOnEvent(tick=60, channel=10, data=[55, 0]),
   midi.NoteOnEvent(tick=0, channel=10, data=[53, 60]),
   midi.NoteOnEvent(tick=60, channel=10, data=[53, 0]),
   midi.NoteOnEvent(tick=0, channel=10, data=[52, 60]),
   midi.NoteOnEvent(tick=58, channel=10, data=[52, 0]),
   midi.NoteOnEvent(tick=2, channel=10, data=[50, 60]),
   midi.NoteOnEvent(tick=60, channel=10, data=[50, 0]),
   midi.NoteOnEvent(tick=0, channel=10, data=[52, 60]),
   midi.NoteOnEvent(tick=60, channel=10, data=[52, 0]),
   midi.NoteOnEvent(tick=0, channel=10, data=[53, 60]),
   midi.NoteOnEvent(tick=60, channel=10, data=[53, 0]),
   midi.NoteOnEvent(tick=0, channel=10, data=[52, 60]),
   midi.NoteOnEvent(tick=60, channel=10, data=[52, 0]),
   midi.NoteOnEvent(tick=0, channel=10, data=[50, 60]),
   midi.NoteOnEvent(tick=100, channel=10, data=[50, 0]),
   midi.NoteOnEvent(tick=140, channel=10, data=[52, 60]),
   midi.NoteOnEvent(tick=60, channel=10, data=[52, 0]),
   midi.NoteOnEvent(tick=0, channel=10, data=[53, 60]),
   midi.NoteOnEvent(tick=60, channel=10, data=[53, 0]),
   midi.NoteOnEvent(tick=0, channel=10, data=[55, 60]),
   midi.NoteOnEvent(tick=60, channel=10, data=[55, 0]),
   midi.NoteOnEvent(tick=0, channel=10, data=[53, 60]),
   midi.NoteOnEvent(tick=60, channel=10, data=[53, 0]),
   midi.NoteOnEvent(tick=0, channel=10, data=[52, 60]),
   midi.NoteOnEvent(tick=60, channel=10, data=[52, 0]),
   midi.NoteOnEvent(tick=0, channel=10, data=[48, 60]),
   midi.NoteOnEvent(tick=60, channel=10, data=[48, 0]),
   midi.NoteOnEvent(tick=0, channel=10, data=[50, 60]),
   midi.NoteOnEvent(tick=60, channel=10, data=[50, 0]),
   midi.NoteOnEvent(tick=0, channel=10, data=[52, 60]),
   midi.NoteOnEvent(tick=58, channel=10, data=[52, 0]),
   midi.NoteOnEvent(tick=2, channel=10, data=[53, 60]),
   midi.NoteOnEvent(tick=100, channel=10, data=[53, 0]),
   midi.NoteOnEvent(tick=20, channel=10, data=[53, 60]),
   midi.NoteOnEvent(tick=100, channel=10, data=[53, 0]),
   midi.NoteOnEvent(tick=20, channel=10, data=[53, 60]),
   midi.NoteOnEvent(tick=100, channel=10, data=[53, 0]),
   midi.NoteOnEvent(tick=20, channel=10, data=[53, 60]),
   midi.NoteOnEvent(tick=100, channel=10, data=[53, 0]),
   midi.NoteOnEvent(tick=140, channel=10, data=[53, 60]),
   midi.NoteOnEvent(tick=100, channel=10, data=[53, 0]),
   midi.NoteOnEvent(tick=20, channel=10, data=[53, 60]),
   midi.NoteOnEvent(tick=100, channel=10, data=[53, 0]),
   midi.NoteOnEvent(tick=20, channel=10, data=[53, 60]),
   midi.NoteOnEvent(tick=100, channel=10, data=[53, 0]),
   midi.NoteOnEvent(tick=140, channel=10, data=[53, 60]),
   midi.NoteOnEvent(tick=100, channel=10, data=[53, 0]),
   midi.NoteOnEvent(tick=20, channel=10, data=[53, 60]),
   midi.NoteOnEvent(tick=100, channel=10, data=[53, 0]),
   midi.NoteOnEvent(tick=20, channel=10, data=[53, 60]),
   midi.NoteOnEvent(tick=100, channel=10, data=[53, 0]),
   midi.NoteOnEvent(tick=140, channel=10, data=[53, 60]),
   midi.NoteOnEvent(tick=100, channel=10, data=[53, 0]),
   midi.NoteOnEvent(tick=20, channel=10, data=[53, 60]),
   midi.NoteOnEvent(tick=100, channel=10, data=[53, 0]),
   midi.NoteOnEvent(tick=20, channel=10, data=[53, 60]),
   midi.NoteOnEvent(tick=100, channel=10, data=[53, 0]),
   midi.NoteOnEvent(tick=140, channel=10, data=[53, 60]),
   midi.NoteOnEvent(tick=100, channel=10, data=[53, 0]),
   midi.NoteOnEvent(tick=20, channel=10, data=[53, 60]),
   midi.NoteOnEvent(tick=100, channel=10, data=[53, 0]),
   midi.NoteOnEvent(tick=20, channel=10, data=[53, 60]),
   midi.NoteOnEvent(tick=100, channel=10, data=[53, 0]),
   midi.NoteOnEvent(tick=140, channel=10, data=[53, 60]),
   midi.NoteOnEvent(tick=100, channel=10, data=[53, 0]),
   midi.NoteOnEvent(tick=20, channel=10, data=[53, 60]),
   midi.NoteOnEvent(tick=100, channel=10, data=[53, 0]),
   midi.NoteOnEvent(tick=20, channel=10, data=[53, 60]),
   midi.NoteOnEvent(tick=100, channel=10, data=[53, 0]),
   midi.NoteOnEvent(tick=20, channel=10, data=[52, 60]),
   midi.NoteOnEvent(tick=120, channel=10, data=[52, 0]),
   midi.NoteOnEvent(tick=0, channel=10, data=[48, 60]),
   midi.NoteOnEvent(tick=120, channel=10, data=[48, 0]),
   midi.NoteOnEvent(tick=0, channel=10, data=[53, 60]),
   midi.NoteOnEvent(tick=120, channel=10, data=[53, 0]),
   midi.NoteOnEvent(tick=0, channel=10, data=[48, 60]),
   midi.NoteOnEvent(tick=120, channel=10, data=[48, 0]),
   midi.NoteOnEvent(tick=0, channel=10, data=[55, 60]),
   midi.NoteOnEvent(tick=120, channel=10, data=[55, 0]),
   midi.NoteOnEvent(tick=0, channel=10, data=[48, 60]),
   midi.NoteOnEvent(tick=120, channel=10, data=[48, 0]),
   midi.NoteOnEvent(tick=0, channel=10, data=[52, 60]),
   midi.NoteOnEvent(tick=120, channel=10, data=[52, 0]),
   midi.NoteOnEvent(tick=0, channel=10, data=[48, 60]),
   midi.NoteOnEvent(tick=100, channel=10, data=[48, 0]),
   midi.NoteOnEvent(tick=20, channel=10, data=[53, 60]),
   midi.NoteOnEvent(tick=100, channel=10, data=[53, 0]),
   midi.NoteOnEvent(tick=20, channel=10, data=[53, 60]),
   midi.NoteOnEvent(tick=100, channel=10, data=[53, 0]),
   midi.NoteOnEvent(tick=20, channel=10, data=[53, 60]),
   midi.NoteOnEvent(tick=100, channel=10, data=[53, 0]),
   midi.NoteOnEvent(tick=20, channel=10, data=[53, 60]),
   midi.NoteOnEvent(tick=100, channel=10, data=[53, 0]),
   midi.NoteOnEvent(tick=140, channel=10, data=[53, 60]),
   midi.NoteOnEvent(tick=100, channel=10, data=[53, 0]),
   midi.NoteOnEvent(tick=20, channel=10, data=[53, 60]),
   midi.NoteOnEvent(tick=100, channel=10, data=[53, 0]),
   midi.NoteOnEvent(tick=20, channel=10, data=[53, 60]),
   midi.NoteOnEvent(tick=100, channel=10, data=[53, 0]),
   midi.NoteOnEvent(tick=140, channel=10, data=[53, 60]),
   midi.NoteOnEvent(tick=100, channel=10, data=[53, 0]),
   midi.NoteOnEvent(tick=20, channel=10, data=[53, 60]),
   midi.NoteOnEvent(tick=100, channel=10, data=[53, 0]),
   midi.NoteOnEvent(tick=20, channel=10, data=[53, 60]),
   midi.NoteOnEvent(tick=100, channel=10, data=[53, 0]),
   midi.NoteOnEvent(tick=140, channel=10, data=[53, 60]),
   midi.NoteOnEvent(tick=100, channel=10, data=[53, 0]),
   midi.NoteOnEvent(tick=20, channel=10, data=[53, 60]),
   midi.NoteOnEvent(tick=100, channel=10, data=[53, 0]),
   midi.NoteOnEvent(tick=20, channel=10, data=[53, 60]),
   midi.NoteOnEvent(tick=100, channel=10, data=[53, 0]),
   midi.NoteOnEvent(tick=140, channel=10, data=[53, 60]),
   midi.NoteOnEvent(tick=100, channel=10, data=[53, 0]),
   midi.NoteOnEvent(tick=20, channel=10, data=[53, 60]),
   midi.NoteOnEvent(tick=100, channel=10, data=[53, 0]),
   midi.NoteOnEvent(tick=20, channel=10, data=[53, 60]),
   midi.NoteOnEvent(tick=100, channel=10, data=[53, 0]),
   midi.NoteOnEvent(tick=140, channel=10, data=[53, 60]),
   midi.NoteOnEvent(tick=100, channel=10, data=[53, 0]),
   midi.NoteOnEvent(tick=20, channel=10, data=[53, 60]),
   midi.NoteOnEvent(tick=100, channel=10, data=[53, 0]),
   midi.NoteOnEvent(tick=20, channel=10, data=[53, 60]),
   midi.NoteOnEvent(tick=100, channel=10, data=[53, 0]),
   midi.NoteOnEvent(tick=20, channel=10, data=[52, 60]),
   midi.NoteOnEvent(tick=120, channel=10, data=[52, 0]),
   midi.NoteOnEvent(tick=0, channel=10, data=[48, 60]),
   midi.NoteOnEvent(tick=120, channel=10, data=[48, 0]),
   midi.NoteOnEvent(tick=0, channel=10, data=[53, 60]),
   midi.NoteOnEvent(tick=120, channel=10, data=[53, 0]),
   midi.NoteOnEvent(tick=0, channel=10, data=[48, 60]),
   midi.NoteOnEvent(tick=120, channel=10, data=[48, 0]),
   midi.NoteOnEvent(tick=0, channel=10, data=[55, 60]),
   midi.NoteOnEvent(tick=120, channel=10, data=[55, 0]),
   midi.NoteOnEvent(tick=0, channel=10, data=[48, 60]),
   midi.NoteOnEvent(tick=120, channel=10, data=[48, 0]),
   midi.NoteOnEvent(tick=0, channel=10, data=[52, 60]),
   midi.NoteOnEvent(tick=120, channel=10, data=[52, 0]),
   midi.NoteOnEvent(tick=0, channel=10, data=[48, 60]),
   midi.NoteOnEvent(tick=100, channel=10, data=[48, 0]),
   midi.NoteOnEvent(tick=20, channel=10, data=[53, 60]),
   midi.NoteOnEvent(tick=100, channel=10, data=[53, 0]),
   midi.NoteOnEvent(tick=20, channel=10, data=[65, 92]),
   midi.NoteOnEvent(tick=210, channel=10, data=[65, 0]),
   midi.NoteOnEvent(tick=30, channel=10, data=[64, 92]),
   midi.NoteOnEvent(tick=100, channel=10, data=[64, 0]),
   midi.NoteOnEvent(tick=20, channel=10, data=[65, 92]),
   midi.NoteOnEvent(tick=100, channel=10, data=[65, 0]),
   midi.NoteOnEvent(tick=20, channel=10, data=[64, 92]),
   midi.NoteOnEvent(tick=100, channel=10, data=[64, 0]),
   midi.NoteOnEvent(tick=20, channel=10, data=[65, 92]),
   midi.NoteOnEvent(tick=100, channel=10, data=[65, 0]),
   midi.NoteOnEvent(tick=20, channel=10, data=[61, 92]),
   midi.NoteOnEvent(tick=100, channel=10, data=[61, 0]),
   midi.NoteOnEvent(tick=20, channel=10, data=[62, 92]),
   midi.NoteOnEvent(tick=100, channel=10, data=[62, 0]),
   midi.NoteOnEvent(tick=20, channel=10, data=[62, 92]),
   midi.NoteOnEvent(tick=210, channel=10, data=[62, 0]),
   midi.NoteOnEvent(tick=30, channel=10, data=[61, 92]),
   midi.NoteOnEvent(tick=100, channel=10, data=[61, 0]),
   midi.NoteOnEvent(tick=20, channel=10, data=[62, 92]),
   midi.NoteOnEvent(tick=100, channel=10, data=[62, 0]),
   midi.NoteOnEvent(tick=20, channel=10, data=[61, 92]),
   midi.NoteOnEvent(tick=100, channel=10, data=[61, 0]),
   midi.NoteOnEvent(tick=20, channel=10, data=[62, 92]),
   midi.NoteOnEvent(tick=100, channel=10, data=[62, 0]),
   midi.NoteOnEvent(tick=20, channel=10, data=[59, 92]),
   midi.NoteOnEvent(tick=100, channel=10, data=[59, 0]),
   midi.NoteOnEvent(tick=20, channel=10, data=[60, 92]),
   midi.NoteOnEvent(tick=100, channel=10, data=[60, 0]),
   midi.NoteOnEvent(tick=20, channel=10, data=[72, 92]),
   midi.NoteOnEvent(tick=210, channel=10, data=[72, 0]),
   midi.NoteOnEvent(tick=30, channel=10, data=[71, 92]),
   midi.NoteOnEvent(tick=100, channel=10, data=[71, 0]),
   midi.NoteOnEvent(tick=20, channel=10, data=[72, 92]),
   midi.NoteOnEvent(tick=30, channel=10, data=[72, 0]),
   midi.NoteOnEvent(tick=90, channel=10, data=[71, 92]),
   midi.NoteOnEvent(tick=30, channel=10, data=[71, 0]),
   midi.NoteOnEvent(tick=90, channel=10, data=[72, 92]),
   midi.NoteOnEvent(tick=30, channel=10, data=[72, 0]),
   midi.NoteOnEvent(tick=90, channel=10, data=[67, 92]),
   midi.NoteOnEvent(tick=30, channel=10, data=[67, 0]),
   midi.NoteOnEvent(tick=90, channel=10, data=[68, 92]),
   midi.NoteOnEvent(tick=30, channel=10, data=[68, 0]),
   midi.NoteOnEvent(tick=90, channel=10, data=[67, 92]),
   midi.NoteOnEvent(tick=30, channel=10, data=[67, 0]),
   midi.NoteOnEvent(tick=90, channel=10, data=[68, 92]),
   midi.NoteOnEvent(tick=30, channel=10, data=[68, 0]),
   midi.NoteOnEvent(tick=90, channel=10, data=[64, 92]),
   midi.NoteOnEvent(tick=30, channel=10, data=[64, 0]),
   midi.NoteOnEvent(tick=90, channel=10, data=[65, 92]),
   midi.NoteOnEvent(tick=30, channel=10, data=[65, 0]),
   midi.NoteOnEvent(tick=90, channel=10, data=[64, 92]),
   midi.NoteOnEvent(tick=30, channel=10, data=[64, 0]),
   midi.NoteOnEvent(tick=90, channel=10, data=[65, 92]),
   midi.NoteOnEvent(tick=30, channel=10, data=[65, 0]),
   midi.NoteOnEvent(tick=90, channel=10, data=[60, 92]),
   midi.NoteOnEvent(tick=30, channel=10, data=[60, 0]),
   midi.NoteOnEvent(tick=90, channel=10, data=[68, 92]),
   midi.NoteOnEvent(tick=30, channel=10, data=[68, 0]),
   midi.NoteOnEvent(tick=90, channel=10, data=[67, 92]),
   midi.NoteOnEvent(tick=30, channel=10, data=[67, 0]),
   midi.NoteOnEvent(tick=90, channel=10, data=[65, 92]),
   midi.NoteOnEvent(tick=30, channel=10, data=[65, 0]),
   midi.NoteOnEvent(tick=90, channel=10, data=[64, 92]),
   midi.NoteOnEvent(tick=30, channel=10, data=[64, 0]),
   midi.NoteOnEvent(tick=90, channel=10, data=[68, 92]),
   midi.NoteOnEvent(tick=30, channel=10, data=[68, 0]),
   midi.NoteOnEvent(tick=90, channel=10, data=[67, 92]),
   midi.NoteOnEvent(tick=30, channel=10, data=[67, 0]),
   midi.NoteOnEvent(tick=90, channel=10, data=[65, 92]),
   midi.NoteOnEvent(tick=30, channel=10, data=[65, 0]),
   midi.NoteOnEvent(tick=90, channel=10, data=[66, 92]),
   midi.NoteOnEvent(tick=30, channel=10, data=[66, 0]),
   midi.NoteOnEvent(tick=90, channel=10, data=[67, 92]),
   midi.NoteOnEvent(tick=100, channel=10, data=[67, 0]),
   midi.NoteOnEvent(tick=20, channel=10, data=[55, 60]),
   midi.NoteOnEvent(tick=100, channel=10, data=[55, 0]),
   midi.NoteOnEvent(tick=20, channel=10, data=[55, 60]),
   midi.NoteOnEvent(tick=100, channel=10, data=[55, 0]),
   midi.NoteOnEvent(tick=20, channel=10, data=[55, 60]),
   midi.NoteOnEvent(tick=100, channel=10, data=[55, 0]),
   midi.NoteOnEvent(tick=140, channel=10, data=[55, 60]),
   midi.NoteOnEvent(tick=100, channel=10, data=[55, 0]),
   midi.NoteOnEvent(tick=20, channel=10, data=[55, 60]),
   midi.NoteOnEvent(tick=100, channel=10, data=[55, 0]),
   midi.NoteOnEvent(tick=20, channel=10, data=[55, 60]),
   midi.NoteOnEvent(tick=100, channel=10, data=[55, 0]),
   midi.NoteOnEvent(tick=140, channel=10, data=[55, 60]),
   midi.NoteOnEvent(tick=100, channel=10, data=[55, 0]),
   midi.NoteOnEvent(tick=20, channel=10, data=[55, 60]),
   midi.NoteOnEvent(tick=100, channel=10, data=[55, 0]),
   midi.NoteOnEvent(tick=20, channel=10, data=[55, 60]),
   midi.NoteOnEvent(tick=100, channel=10, data=[55, 0]),
   midi.NoteOnEvent(tick=140, channel=10, data=[55, 60]),
   midi.NoteOnEvent(tick=100, channel=10, data=[55, 0]),
   midi.NoteOnEvent(tick=20, channel=10, data=[55, 60]),
   midi.NoteOnEvent(tick=100, channel=10, data=[55, 0]),
   midi.NoteOnEvent(tick=20, channel=10, data=[55, 60]),
   midi.NoteOnEvent(tick=100, channel=10, data=[55, 0]),
   midi.NoteOnEvent(tick=140, channel=10, data=[55, 60]),
   midi.NoteOnEvent(tick=100, channel=10, data=[55, 0]),
   midi.NoteOnEvent(tick=20, channel=10, data=[55, 60]),
   midi.NoteOnEvent(tick=100, channel=10, data=[55, 0]),
   midi.NoteOnEvent(tick=20, channel=10, data=[55, 60]),
   midi.NoteOnEvent(tick=100, channel=10, data=[55, 0]),
   midi.NoteOnEvent(tick=140, channel=10, data=[55, 60]),
   midi.NoteOnEvent(tick=100, channel=10, data=[55, 0]),
   midi.NoteOnEvent(tick=20, channel=10, data=[55, 60]),
   midi.NoteOnEvent(tick=100, channel=10, data=[55, 0]),
   midi.NoteOnEvent(tick=20, channel=10, data=[55, 60]),
   midi.NoteOnEvent(tick=100, channel=10, data=[55, 0]),
   midi.NoteOnEvent(tick=140, channel=10, data=[55, 60]),
   midi.NoteOnEvent(tick=100, channel=10, data=[55, 0]),
   midi.NoteOnEvent(tick=20, channel=10, data=[55, 60]),
   midi.NoteOnEvent(tick=100, channel=10, data=[55, 0]),
   midi.NoteOnEvent(tick=20, channel=10, data=[55, 60]),
   midi.NoteOnEvent(tick=100, channel=10, data=[55, 0]),
   midi.NoteOnEvent(tick=140, channel=10, data=[55, 60]),
   midi.NoteOnEvent(tick=100, channel=10, data=[55, 0]),
   midi.NoteOnEvent(tick=20, channel=10, data=[55, 60]),
   midi.NoteOnEvent(tick=100, channel=10, data=[55, 0]),
   midi.NoteOnEvent(tick=20, channel=10, data=[55, 60]),
   midi.NoteOnEvent(tick=100, channel=10, data=[55, 0]),
   midi.NoteOnEvent(tick=20, channel=10, data=[59, 60]),
   midi.NoteOnEvent(tick=930, channel=10, data=[59, 0]),
   midi.NoteOnEvent(tick=30, channel=10, data=[57, 60]),
   midi.NoteOnEvent(tick=930, channel=10, data=[57, 0]),
   midi.NoteOnEvent(tick=30, channel=10, data=[62, 60]),
   midi.NoteOnEvent(tick=930, channel=10, data=[62, 0]),
   midi.NoteOnEvent(tick=30, channel=10, data=[60, 60]),
   midi.NoteOnEvent(tick=100, channel=10, data=[60, 0]),
   midi.NoteOnEvent(tick=20, channel=10, data=[64, 92]),
   midi.NoteOnEvent(tick=210, channel=10, data=[64, 0]),
   midi.NoteOnEvent(tick=30, channel=10, data=[65, 92]),
   midi.NoteOnEvent(tick=100, channel=10, data=[65, 0]),
   midi.NoteOnEvent(tick=20, channel=10, data=[64, 92]),
   midi.NoteOnEvent(tick=100, channel=10, data=[64, 0]),
   midi.NoteOnEvent(tick=20, channel=10, data=[65, 92]),
   midi.NoteOnEvent(tick=100, channel=10, data=[65, 0]),
   midi.NoteOnEvent(tick=20, channel=10, data=[64, 92]),
   midi.NoteOnEvent(tick=100, channel=10, data=[64, 0]),
   midi.NoteOnEvent(tick=20, channel=10, data=[65, 92]),
   midi.NoteOnEvent(tick=100, channel=10, data=[65, 0]),
   midi.NoteOnEvent(tick=20, channel=10, data=[64, 92]),
   midi.NoteOnEvent(tick=100, channel=10, data=[64, 0]),
   midi.NoteOnEvent(tick=20, channel=10, data=[64, 92]),
   midi.NoteOnEvent(tick=210, channel=10, data=[64, 0]),
   midi.NoteOnEvent(tick=30, channel=10, data=[65, 92]),
   midi.NoteOnEvent(tick=100, channel=10, data=[65, 0]),
   midi.NoteOnEvent(tick=20, channel=10, data=[64, 92]),
   midi.NoteOnEvent(tick=100, channel=10, data=[64, 0]),
   midi.NoteOnEvent(tick=20, channel=10, data=[65, 92]),
   midi.NoteOnEvent(tick=100, channel=10, data=[65, 0]),
   midi.NoteOnEvent(tick=20, channel=10, data=[64, 92]),
   midi.NoteOnEvent(tick=100, channel=10, data=[64, 0]),
   midi.NoteOnEvent(tick=20, channel=10, data=[65, 92]),
   midi.NoteOnEvent(tick=100, channel=10, data=[65, 0]),
   midi.NoteOnEvent(tick=20, channel=10, data=[64, 92]),
   midi.NoteOnEvent(tick=100, channel=10, data=[64, 0]),
   midi.NoteOnEvent(tick=20, channel=10, data=[60, 60]),
   midi.NoteOnEvent(tick=100, channel=10, data=[60, 0]),
   midi.NoteOnEvent(tick=20, channel=10, data=[60, 60]),
   midi.NoteOnEvent(tick=100, channel=10, data=[60, 0]),
   midi.NoteOnEvent(tick=20, channel=10, data=[60, 60]),
   midi.NoteOnEvent(tick=100, channel=10, data=[60, 0]),
   midi.NoteOnEvent(tick=140, channel=10, data=[60, 60]),
   midi.NoteOnEvent(tick=100, channel=10, data=[60, 0]),
   midi.NoteOnEvent(tick=20, channel=10, data=[60, 60]),
   midi.NoteOnEvent(tick=100, channel=10, data=[60, 0]),
   midi.NoteOnEvent(tick=20, channel=10, data=[60, 60]),
   midi.NoteOnEvent(tick=100, channel=10, data=[60, 0]),
   midi.NoteOnEvent(tick=140, channel=10, data=[60, 60]),
   midi.NoteOnEvent(tick=100, channel=10, data=[60, 0]),
   midi.NoteOnEvent(tick=20, channel=10, data=[60, 60]),
   midi.NoteOnEvent(tick=100, channel=10, data=[60, 0]),
   midi.NoteOnEvent(tick=20, channel=10, data=[60, 60]),
   midi.NoteOnEvent(tick=100, channel=10, data=[60, 0]),
   midi.NoteOnEvent(tick=140, channel=10, data=[60, 60]),
   midi.NoteOnEvent(tick=100, channel=10, data=[60, 0]),
   midi.NoteOnEvent(tick=20, channel=10, data=[60, 60]),
   midi.NoteOnEvent(tick=100, channel=10, data=[60, 0]),
   midi.NoteOnEvent(tick=20, channel=10, data=[60, 60]),
   midi.NoteOnEvent(tick=100, channel=10, data=[60, 0]),
   midi.NoteOnEvent(tick=140, channel=10, data=[60, 60]),
   midi.NoteOnEvent(tick=100, channel=10, data=[60, 0]),
   midi.NoteOnEvent(tick=20, channel=10, data=[60, 60]),
   midi.NoteOnEvent(tick=100, channel=10, data=[60, 0]),
   midi.NoteOnEvent(tick=20, channel=10, data=[60, 60]),
   midi.NoteOnEvent(tick=100, channel=10, data=[60, 0]),
   midi.NoteOnEvent(tick=140, channel=10, data=[60, 60]),
   midi.NoteOnEvent(tick=100, channel=10, data=[60, 0]),
   midi.NoteOnEvent(tick=20, channel=10, data=[60, 60]),
   midi.NoteOnEvent(tick=100, channel=10, data=[60, 0]),
   midi.NoteOnEvent(tick=20, channel=10, data=[60, 60]),
   midi.NoteOnEvent(tick=100, channel=10, data=[60, 0]),
   midi.NoteOnEvent(tick=20, channel=10, data=[67, 60]),
   midi.NoteOnEvent(tick=1060, channel=10, data=[67, 0]),
   midi.NoteOnEvent(tick=20, channel=10, data=[60, 60]),
   midi.NoteOnEvent(tick=100, channel=10, data=[60, 0]),
   midi.NoteOnEvent(tick=20, channel=10, data=[60, 60]),
   midi.NoteOnEvent(tick=100, channel=10, data=[60, 0]),
   midi.NoteOnEvent(tick=20, channel=10, data=[60, 60]),
   midi.NoteOnEvent(tick=100, channel=10, data=[60, 0]),
   midi.NoteOnEvent(tick=140, channel=10, data=[60, 60]),
   midi.NoteOnEvent(tick=100, channel=10, data=[60, 0]),
   midi.NoteOnEvent(tick=20, channel=10, data=[60, 60]),
   midi.NoteOnEvent(tick=100, channel=10, data=[60, 0]),
   midi.NoteOnEvent(tick=20, channel=10, data=[60, 60]),
   midi.NoteOnEvent(tick=100, channel=10, data=[60, 0]),
   midi.NoteOnEvent(tick=140, channel=10, data=[60, 60]),
   midi.NoteOnEvent(tick=100, channel=10, data=[60, 0]),
   midi.NoteOnEvent(tick=20, channel=10, data=[60, 60]),
   midi.NoteOnEvent(tick=100, channel=10, data=[60, 0]),
   midi.NoteOnEvent(tick=20, channel=10, data=[60, 60]),
   midi.NoteOnEvent(tick=100, channel=10, data=[60, 0]),
   midi.NoteOnEvent(tick=140, channel=10, data=[60, 60]),
   midi.NoteOnEvent(tick=100, channel=10, data=[60, 0]),
   midi.NoteOnEvent(tick=20, channel=10, data=[60, 60]),
   midi.NoteOnEvent(tick=100, channel=10, data=[60, 0]),
   midi.NoteOnEvent(tick=20, channel=10, data=[60, 60]),
   midi.NoteOnEvent(tick=100, channel=10, data=[60, 0]),
   midi.NoteOnEvent(tick=140, channel=10, data=[60, 60]),
   midi.NoteOnEvent(tick=100, channel=10, data=[60, 0]),
   midi.NoteOnEvent(tick=20, channel=10, data=[60, 60]),
   midi.NoteOnEvent(tick=100, channel=10, data=[60, 0]),
   midi.NoteOnEvent(tick=20, channel=10, data=[60, 60]),
   midi.NoteOnEvent(tick=100, channel=10, data=[60, 0]),
   midi.NoteOnEvent(tick=140, channel=10, data=[60, 60]),
   midi.NoteOnEvent(tick=100, channel=10, data=[60, 0]),
   midi.NoteOnEvent(tick=20, channel=10, data=[60, 60]),
   midi.NoteOnEvent(tick=100, channel=10, data=[60, 0]),
   midi.NoteOnEvent(tick=20, channel=10, data=[60, 60]),
   midi.NoteOnEvent(tick=100, channel=10, data=[60, 0]),
   midi.NoteOnEvent(tick=20, channel=10, data=[67, 60]),
   midi.NoteOnEvent(tick=1060, channel=10, data=[67, 0]),
   midi.NoteOnEvent(tick=20, channel=10, data=[72, 92]),
   midi.NoteOnEvent(tick=210, channel=10, data=[72, 0]),
   midi.NoteOnEvent(tick=30, channel=10, data=[71, 92]),
   midi.NoteOnEvent(tick=100, channel=10, data=[71, 0]),
   midi.NoteOnEvent(tick=20, channel=10, data=[72, 92]),
   midi.NoteOnEvent(tick=100, channel=10, data=[72, 0]),
   midi.NoteOnEvent(tick=20, channel=10, data=[71, 92]),
   midi.NoteOnEvent(tick=100, channel=10, data=[71, 0]),
   midi.NoteOnEvent(tick=20, channel=10, data=[72, 92]),
   midi.NoteOnEvent(tick=100, channel=10, data=[72, 0]),
   midi.NoteOnEvent(tick=20, channel=10, data=[68, 92]),
   midi.NoteOnEvent(tick=100, channel=10, data=[68, 0]),
   midi.NoteOnEvent(tick=20, channel=10, data=[69, 92]),
   midi.NoteOnEvent(tick=100, channel=10, data=[69, 0]),
   midi.NoteOnEvent(tick=20, channel=10, data=[69, 92]),
   midi.NoteOnEvent(tick=210, channel=10, data=[69, 0]),
   midi.NoteOnEvent(tick=30, channel=10, data=[68, 92]),
   midi.NoteOnEvent(tick=100, channel=10, data=[68, 0]),
   midi.NoteOnEvent(tick=20, channel=10, data=[69, 92]),
   midi.NoteOnEvent(tick=100, channel=10, data=[69, 0]),
   midi.NoteOnEvent(tick=20, channel=10, data=[68, 92]),
   midi.NoteOnEvent(tick=100, channel=10, data=[68, 0]),
   midi.NoteOnEvent(tick=20, channel=10, data=[69, 92]),
   midi.NoteOnEvent(tick=100, channel=10, data=[69, 0]),
   midi.NoteOnEvent(tick=20, channel=10, data=[64, 92]),
   midi.NoteOnEvent(tick=100, channel=10, data=[64, 0]),
   midi.NoteOnEvent(tick=20, channel=10, data=[65, 92]),
   midi.NoteOnEvent(tick=100, channel=10, data=[65, 0]),
   midi.NoteOnEvent(tick=20, channel=10, data=[65, 92]),
   midi.NoteOnEvent(tick=210, channel=10, data=[65, 0]),
   midi.NoteOnEvent(tick=30, channel=10, data=[64, 92]),
   midi.NoteOnEvent(tick=100, channel=10, data=[64, 0]),
   midi.NoteOnEvent(tick=20, channel=10, data=[65, 92]),
   midi.NoteOnEvent(tick=100, channel=10, data=[65, 0]),
   midi.NoteOnEvent(tick=20, channel=10, data=[64, 92]),
   midi.NoteOnEvent(tick=100, channel=10, data=[64, 0]),
   midi.NoteOnEvent(tick=20, channel=10, data=[65, 92]),
   midi.NoteOnEvent(tick=100, channel=10, data=[65, 0]),
   midi.NoteOnEvent(tick=20, channel=10, data=[67, 92]),
   midi.NoteOnEvent(tick=100, channel=10, data=[67, 0]),
   midi.NoteOnEvent(tick=20, channel=10, data=[65, 92]),
   midi.NoteOnEvent(tick=100, channel=10, data=[65, 0]),
   midi.NoteOnEvent(tick=20, channel=10, data=[64, 92]),
   midi.NoteOnEvent(tick=100, channel=10, data=[64, 0]),
   midi.NoteOnEvent(tick=20, channel=10, data=[65, 92]),
   midi.NoteOnEvent(tick=100, channel=10, data=[65, 0]),
   midi.NoteOnEvent(tick=20, channel=10, data=[73, 92]),
   midi.NoteOnEvent(tick=100, channel=10, data=[73, 0]),
   midi.NoteOnEvent(tick=20, channel=10, data=[74, 92]),
   midi.NoteOnEvent(tick=100, channel=10, data=[74, 0]),
   midi.NoteOnEvent(tick=20, channel=10, data=[72, 92]),
   midi.NoteOnEvent(tick=100, channel=10, data=[72, 0]),
   midi.NoteOnEvent(tick=20, channel=10, data=[71, 92]),
   midi.NoteOnEvent(tick=100, channel=10, data=[71, 0]),
   midi.NoteOnEvent(tick=20, channel=10, data=[67, 92]),
   midi.NoteOnEvent(tick=100, channel=10, data=[67, 0]),
   midi.NoteOnEvent(tick=20, channel=10, data=[72, 92]),
   midi.NoteOnEvent(tick=100, channel=10, data=[72, 0]),
   midi.NoteOnEvent(tick=20, channel=10, data=[76, 92]),
   midi.NoteOnEvent(tick=100, channel=10, data=[76, 0]),
   midi.NoteOnEvent(tick=20, channel=10, data=[69, 92]),
   midi.NoteOnEvent(tick=100, channel=10, data=[69, 0]),
   midi.NoteOnEvent(tick=20, channel=10, data=[72, 92]),
   midi.NoteOnEvent(tick=100, channel=10, data=[72, 0]),
   midi.NoteOnEvent(tick=20, channel=10, data=[65, 92]),
   midi.NoteOnEvent(tick=100, channel=10, data=[65, 0]),
   midi.NoteOnEvent(tick=20, channel=10, data=[69, 92]),
   midi.NoteOnEvent(tick=100, channel=10, data=[69, 0]),
   midi.NoteOnEvent(tick=20, channel=10, data=[67, 92]),
   midi.NoteOnEvent(tick=100, channel=10, data=[67, 0]),
   midi.NoteOnEvent(tick=20, channel=10, data=[55, 92]),
   midi.NoteOnEvent(tick=100, channel=10, data=[55, 0]),
   midi.NoteOnEvent(tick=20, channel=10, data=[60, 92]),
   midi.NoteOnEvent(tick=100, channel=10, data=[60, 0]),
   midi.NoteOnEvent(tick=20, channel=10, data=[72, 92]),
   midi.NoteOnEvent(tick=210, channel=10, data=[72, 0]),
   midi.NoteOnEvent(tick=30, channel=10, data=[71, 92]),
   midi.NoteOnEvent(tick=100, channel=10, data=[71, 0]),
   midi.NoteOnEvent(tick=20, channel=10, data=[72, 92]),
   midi.NoteOnEvent(tick=100, channel=10, data=[72, 0]),
   midi.NoteOnEvent(tick=20, channel=10, data=[71, 92]),
   midi.NoteOnEvent(tick=100, channel=10, data=[71, 0]),
   midi.NoteOnEvent(tick=20, channel=10, data=[72, 92]),
   midi.NoteOnEvent(tick=100, channel=10, data=[72, 0]),
   midi.NoteOnEvent(tick=20, channel=10, data=[68, 92]),
   midi.NoteOnEvent(tick=100, channel=10, data=[68, 0]),
   midi.NoteOnEvent(tick=20, channel=10, data=[69, 92]),
   midi.NoteOnEvent(tick=100, channel=10, data=[69, 0]),
   midi.NoteOnEvent(tick=20, channel=10, data=[69, 92]),
   midi.NoteOnEvent(tick=210, channel=10, data=[69, 0]),
   midi.NoteOnEvent(tick=30, channel=10, data=[68, 92]),
   midi.NoteOnEvent(tick=100, channel=10, data=[68, 0]),
   midi.NoteOnEvent(tick=20, channel=10, data=[69, 92]),
   midi.NoteOnEvent(tick=100, channel=10, data=[69, 0]),
   midi.NoteOnEvent(tick=20, channel=10, data=[68, 92]),
   midi.NoteOnEvent(tick=100, channel=10, data=[68, 0]),
   midi.NoteOnEvent(tick=20, channel=10, data=[69, 92]),
   midi.NoteOnEvent(tick=100, channel=10, data=[69, 0]),
   midi.NoteOnEvent(tick=20, channel=10, data=[64, 92]),
   midi.NoteOnEvent(tick=100, channel=10, data=[64, 0]),
   midi.NoteOnEvent(tick=20, channel=10, data=[65, 92]),
   midi.NoteOnEvent(tick=100, channel=10, data=[65, 0]),
   midi.NoteOnEvent(tick=20, channel=10, data=[65, 92]),
   midi.NoteOnEvent(tick=210, channel=10, data=[65, 0]),
   midi.NoteOnEvent(tick=30, channel=10, data=[64, 92]),
   midi.NoteOnEvent(tick=100, channel=10, data=[64, 0]),
   midi.NoteOnEvent(tick=20, channel=10, data=[65, 92]),
   midi.NoteOnEvent(tick=100, channel=10, data=[65, 0]),
   midi.NoteOnEvent(tick=20, channel=10, data=[64, 92]),
   midi.NoteOnEvent(tick=100, channel=10, data=[64, 0]),
   midi.NoteOnEvent(tick=20, channel=10, data=[65, 92]),
   midi.NoteOnEvent(tick=100, channel=10, data=[65, 0]),
   midi.NoteOnEvent(tick=20, channel=10, data=[67, 92]),
   midi.NoteOnEvent(tick=100, channel=10, data=[67, 0]),
   midi.NoteOnEvent(tick=20, channel=10, data=[65, 92]),
   midi.NoteOnEvent(tick=100, channel=10, data=[65, 0]),
   midi.NoteOnEvent(tick=20, channel=10, data=[64, 92]),
   midi.NoteOnEvent(tick=100, channel=10, data=[64, 0]),
   midi.NoteOnEvent(tick=20, channel=10, data=[65, 92]),
   midi.NoteOnEvent(tick=100, channel=10, data=[65, 0]),
   midi.NoteOnEvent(tick=20, channel=10, data=[73, 92]),
   midi.NoteOnEvent(tick=100, channel=10, data=[73, 0]),
   midi.NoteOnEvent(tick=20, channel=10, data=[74, 92]),
   midi.NoteOnEvent(tick=100, channel=10, data=[74, 0]),
   midi.NoteOnEvent(tick=20, channel=10, data=[72, 92]),
   midi.NoteOnEvent(tick=100, channel=10, data=[72, 0]),
   midi.NoteOnEvent(tick=20, channel=10, data=[71, 92]),
   midi.NoteOnEvent(tick=100, channel=10, data=[71, 0]),
   midi.NoteOnEvent(tick=20, channel=10, data=[67, 92]),
   midi.NoteOnEvent(tick=100, channel=10, data=[67, 0]),
   midi.NoteOnEvent(tick=20, channel=10, data=[72, 92]),
   midi.NoteOnEvent(tick=100, channel=10, data=[72, 0]),
   midi.NoteOnEvent(tick=380, channel=10, data=[72, 60]),
   midi.NoteOnEvent(tick=100, channel=10, data=[72, 0]),
   midi.NoteOnEvent(tick=380, channel=10, data=[69, 60]),
   midi.NoteOnEvent(tick=100, channel=10, data=[69, 0]),
   midi.NoteOnEvent(tick=380, channel=10, data=[65, 60]),
   midi.NoteOnEvent(tick=100, channel=10, data=[65, 0]),
   midi.NoteOnEvent(tick=380, channel=10, data=[67, 60]),
   midi.NoteOnEvent(tick=930, channel=10, data=[67, 0]),
   midi.NoteOnEvent(tick=30, channel=10, data=[69, 60]),
   midi.NoteOnEvent(tick=580, channel=10, data=[69, 0]),
   midi.NoteOnEvent(tick=860, channel=10, data=[72, 92]),
   midi.NoteOnEvent(tick=100, channel=10, data=[72, 0]),
   midi.NoteOnEvent(tick=380, channel=10, data=[69, 92]),
   midi.NoteOnEvent(tick=100, channel=10, data=[69, 0]),
   midi.NoteOnEvent(tick=380, channel=10, data=[65, 92]),
   midi.NoteOnEvent(tick=100, channel=10, data=[65, 0]),
   midi.NoteOnEvent(tick=380, channel=10, data=[67, 92]),
   midi.NoteOnEvent(tick=100, channel=10, data=[67, 0]),
   midi.NoteOnEvent(tick=380, channel=10, data=[55, 92]),
   midi.NoteOnEvent(tick=100, channel=10, data=[55, 0]),
   midi.NoteOnEvent(tick=380, channel=10, data=[60, 60]),
   midi.NoteOnEvent(tick=100, channel=10, data=[60, 0]),
   midi.NoteOnEvent(tick=380, channel=10, data=[60, 60]),
   midi.NoteOnEvent(tick=100, channel=10, data=[60, 0]),
   midi.NoteOnEvent(tick=140, channel=10, data=[60, 60]),
   midi.NoteOnEvent(tick=100, channel=10, data=[60, 0]),
   midi.NoteOnEvent(tick=20, channel=10, data=[60, 60]),
   midi.NoteOnEvent(tick=100, channel=10, data=[60, 0]),
   midi.NoteOnEvent(tick=20, channel=10, data=[60, 60]),
   midi.NoteOnEvent(tick=100, channel=10, data=[60, 0]),
   midi.NoteOnEvent(tick=380, channel=10, data=[60, 60]),
   midi.NoteOnEvent(tick=100, channel=10, data=[60, 0]),
   midi.NoteOnEvent(tick=140, channel=10, data=[60, 60]),
   midi.NoteOnEvent(tick=100, channel=10, data=[60, 0]),
   midi.NoteOnEvent(tick=20, channel=10, data=[60, 60]),
   midi.NoteOnEvent(tick=100, channel=10, data=[60, 0]),
   midi.NoteOnEvent(tick=20, channel=10, data=[60, 60]),
   midi.NoteOnEvent(tick=100, channel=10, data=[60, 0]),
   midi.NoteOnEvent(tick=380, channel=10, data=[60, 60]),
   midi.NoteOnEvent(tick=100, channel=10, data=[60, 0]),
   midi.NoteOnEvent(tick=140, channel=10, data=[60, 60]),
   midi.NoteOnEvent(tick=100, channel=10, data=[60, 0]),
   midi.NoteOnEvent(tick=20, channel=10, data=[60, 60]),
   midi.NoteOnEvent(tick=100, channel=10, data=[60, 0]),
   midi.NoteOnEvent(tick=20, channel=10, data=[60, 60]),
   midi.NoteOnEvent(tick=100, channel=10, data=[60, 0]),
   midi.NoteOnEvent(tick=380, channel=10, data=[60, 60]),
   midi.NoteOnEvent(tick=100, channel=10, data=[60, 0]),
   midi.NoteOnEvent(tick=140, channel=10, data=[60, 64]),
   midi.NoteOnEvent(tick=100, channel=10, data=[60, 0]),
   midi.NoteOnEvent(tick=20, channel=10, data=[60, 66]),
   midi.NoteOnEvent(tick=100, channel=10, data=[60, 0]),
   midi.NoteOnEvent(tick=20, channel=10, data=[60, 68]),
   midi.NoteOnEvent(tick=100, channel=10, data=[60, 0]),
   midi.NoteOnEvent(tick=380, channel=10, data=[60, 80]),
   midi.NoteOnEvent(tick=100, channel=10, data=[60, 0]),
   midi.NoteOnEvent(tick=140, channel=10, data=[60, 86]),
   midi.NoteOnEvent(tick=100, channel=10, data=[60, 0]),
   midi.NoteOnEvent(tick=20, channel=10, data=[60, 89]),
   midi.NoteOnEvent(tick=100, channel=10, data=[60, 0]),
   midi.NoteOnEvent(tick=20, channel=10, data=[60, 92]),
   midi.NoteOnEvent(tick=100, channel=10, data=[60, 0]),
   midi.NoteOnEvent(tick=380, channel=10, data=[60, 92]),
   midi.NoteOnEvent(tick=100, channel=10, data=[60, 0]),
   midi.NoteOnEvent(tick=140, channel=10, data=[60, 92]),
   midi.NoteOnEvent(tick=100, channel=10, data=[60, 0]),
   midi.NoteOnEvent(tick=20, channel=10, data=[60, 92]),
   midi.NoteOnEvent(tick=100, channel=10, data=[60, 0]),
   midi.NoteOnEvent(tick=20, channel=10, data=[64, 108]),
   midi.NoteOnEvent(tick=100, channel=10, data=[64, 0]),
   midi.NoteOnEvent(tick=20, channel=10, data=[64, 108]),
   midi.NoteOnEvent(tick=210, channel=10, data=[64, 0]),
   midi.NoteOnEvent(tick=30, channel=10, data=[65, 108]),
   midi.NoteOnEvent(tick=100, channel=10, data=[65, 0]),
   midi.NoteOnEvent(tick=20, channel=10, data=[64, 108]),
   midi.NoteOnEvent(tick=100, channel=10, data=[64, 0]),
   midi.NoteOnEvent(tick=20, channel=10, data=[65, 108]),
   midi.NoteOnEvent(tick=100, channel=10, data=[65, 0]),
   midi.NoteOnEvent(tick=20, channel=10, data=[64, 108]),
   midi.NoteOnEvent(tick=100, channel=10, data=[64, 0]),
   midi.NoteOnEvent(tick=20, channel=10, data=[65, 108]),
   midi.NoteOnEvent(tick=100, channel=10, data=[65, 0]),
   midi.NoteOnEvent(tick=20, channel=10, data=[64, 108]),
   midi.NoteOnEvent(tick=100, channel=10, data=[64, 0]),
   midi.NoteOnEvent(tick=20, channel=10, data=[64, 108]),
   midi.NoteOnEvent(tick=210, channel=10, data=[64, 0]),
   midi.NoteOnEvent(tick=30, channel=10, data=[65, 108]),
   midi.NoteOnEvent(tick=100, channel=10, data=[65, 0]),
   midi.NoteOnEvent(tick=20, channel=10, data=[64, 108]),
   midi.NoteOnEvent(tick=100, channel=10, data=[64, 0]),
   midi.NoteOnEvent(tick=20, channel=10, data=[65, 108]),
   midi.NoteOnEvent(tick=100, channel=10, data=[65, 0]),
   midi.NoteOnEvent(tick=20, channel=10, data=[64, 108]),
   midi.NoteOnEvent(tick=100, channel=10, data=[64, 0]),
   midi.NoteOnEvent(tick=20, channel=10, data=[65, 108]),
   midi.NoteOnEvent(tick=100, channel=10, data=[65, 0]),
   midi.NoteOnEvent(tick=20, channel=10, data=[64, 108]),
   midi.NoteOnEvent(tick=100, channel=10, data=[64, 0]),
   midi.NoteOnEvent(tick=20, channel=10, data=[67, 108]),
   midi.NoteOnEvent(tick=58, channel=10, data=[67, 0]),
   midi.NoteOnEvent(tick=2, channel=10, data=[67, 108]),
   midi.NoteOnEvent(tick=58, channel=10, data=[67, 0]),
   midi.NoteOnEvent(tick=2, channel=10, data=[72, 108]),
   midi.NoteOnEvent(tick=58, channel=10, data=[72, 0]),
   midi.NoteOnEvent(tick=2, channel=10, data=[72, 108]),
   midi.NoteOnEvent(tick=58, channel=10, data=[72, 0]),
   midi.NoteOnEvent(tick=2, channel=10, data=[67, 108]),
   midi.NoteOnEvent(tick=58, channel=10, data=[67, 0]),
   midi.NoteOnEvent(tick=2, channel=10, data=[67, 108]),
   midi.NoteOnEvent(tick=58, channel=10, data=[67, 0]),
   midi.NoteOnEvent(tick=2, channel=10, data=[72, 108]),
   midi.NoteOnEvent(tick=58, channel=10, data=[72, 0]),
   midi.NoteOnEvent(tick=2, channel=10, data=[72, 108]),
   midi.NoteOnEvent(tick=58, channel=10, data=[72, 0]),
   midi.NoteOnEvent(tick=2, channel=10, data=[67, 108]),
   midi.NoteOnEvent(tick=58, channel=10, data=[67, 0]),
   midi.NoteOnEvent(tick=2, channel=10, data=[67, 108]),
   midi.NoteOnEvent(tick=58, channel=10, data=[67, 0]),
   midi.NoteOnEvent(tick=2, channel=10, data=[72, 108]),
   midi.NoteOnEvent(tick=58, channel=10, data=[72, 0]),
   midi.NoteOnEvent(tick=2, channel=10, data=[72, 108]),
   midi.NoteOnEvent(tick=58, channel=10, data=[72, 0]),
   midi.NoteOnEvent(tick=2, channel=10, data=[67, 108]),
   midi.NoteOnEvent(tick=58, channel=10, data=[67, 0]),
   midi.NoteOnEvent(tick=2, channel=10, data=[67, 108]),
   midi.NoteOnEvent(tick=58, channel=10, data=[67, 0]),
   midi.NoteOnEvent(tick=2, channel=10, data=[72, 108]),
   midi.NoteOnEvent(tick=100, channel=10, data=[72, 0]),
   midi.NoteOnEvent(tick=380, channel=10, data=[60, 108]),
   midi.NoteOnEvent(tick=100, channel=10, data=[60, 0]),
   midi.NoteOnEvent(tick=140, channel=10, data=[72, 108]),
   midi.NoteOnEvent(tick=100, channel=10, data=[72, 0]),
   midi.NoteOnEvent(tick=140, channel=10, data=[60, 108]),
   midi.NoteOnEvent(tick=210, channel=10, data=[60, 0]),
   midi.EndOfTrackEvent(tick=0, data=[])]),
 midi.Track(\
  [midi.PortEvent(tick=0, data=[0]),
   midi.TrackNameEvent(tick=0, text='Cellos', data=[67, 101, 108, 108, 111, 115]),
   midi.ProgramChangeEvent(tick=0, channel=11, data=[48]),
   midi.ControlChangeEvent(tick=0, channel=11, data=[7, 127]),
   midi.ControlChangeEvent(tick=0, channel=11, data=[10, 42]),
   midi.NoteOnEvent(tick=0, channel=11, data=[60, 92]),
   midi.NoteOnEvent(tick=100, channel=11, data=[60, 0]),
   midi.NoteOnEvent(tick=110, channel=11, data=[48, 92]),
   midi.NoteOnEvent(tick=28, channel=11, data=[48, 0]),
   midi.NoteOnEvent(tick=2, channel=11, data=[48, 92]),
   midi.NoteOnEvent(tick=100, channel=11, data=[48, 0]),
   midi.NoteOnEvent(tick=1550, channel=11, data=[55, 92]),
   midi.NoteOnEvent(tick=28, channel=11, data=[55, 0]),
   midi.NoteOnEvent(tick=2, channel=11, data=[55, 92]),
   midi.NoteOnEvent(tick=100, channel=11, data=[55, 0]),
   midi.NoteOnEvent(tick=110, channel=11, data=[43, 92]),
   midi.NoteOnEvent(tick=28, channel=11, data=[43, 0]),
   midi.NoteOnEvent(tick=2, channel=11, data=[43, 92]),
   midi.NoteOnEvent(tick=100, channel=11, data=[43, 0]),
   midi.NoteOnEvent(tick=1340, channel=11, data=[60, 45]),
   midi.NoteOnEvent(tick=30, channel=11, data=[60, 0]),
   midi.NoteOnEvent(tick=210, channel=11, data=[57, 45]),
   midi.NoteOnEvent(tick=30, channel=11, data=[57, 0]),
   midi.NoteOnEvent(tick=210, channel=11, data=[53, 45]),
   midi.NoteOnEvent(tick=30, channel=11, data=[53, 0]),
   midi.NoteOnEvent(tick=210, channel=11, data=[55, 45]),
   midi.NoteOnEvent(tick=450, channel=11, data=[55, 0]),
   midi.NoteOnEvent(tick=30, channel=11, data=[57, 45]),
   midi.NoteOnEvent(tick=240, channel=11, data=[57, 0]),
   midi.NoteOnEvent(tick=0, channel=11, data=[57, 45]),
   midi.NoteOnEvent(tick=100, channel=11, data=[57, 0]),
   midi.NoteOnEvent(tick=380, channel=11, data=[60, 92]),
   midi.NoteOnEvent(tick=30, channel=11, data=[60, 0]),
   midi.NoteOnEvent(tick=210, channel=11, data=[57, 92]),
   midi.NoteOnEvent(tick=30, channel=11, data=[57, 0]),
   midi.NoteOnEvent(tick=210, channel=11, data=[53, 92]),
   midi.NoteOnEvent(tick=30, channel=11, data=[53, 0]),
   midi.NoteOnEvent(tick=210, channel=11, data=[55, 92]),
   midi.NoteOnEvent(tick=100, channel=11, data=[55, 0]),
   midi.NoteOnEvent(tick=140, channel=11, data=[43, 92]),
   midi.NoteOnEvent(tick=100, channel=11, data=[43, 0]),
   midi.NoteOnEvent(tick=140, channel=11, data=[48, 45]),
   midi.NoteOnEvent(tick=100, channel=11, data=[48, 0]),
   midi.NoteOnEvent(tick=380, channel=11, data=[48, 45]),
   midi.NoteOnEvent(tick=100, channel=11, data=[48, 0]),
   midi.NoteOnEvent(tick=140, channel=11, data=[48, 45]),
   midi.NoteOnEvent(tick=100, channel=11, data=[48, 0]),
   midi.NoteOnEvent(tick=20, channel=11, data=[48, 45]),
   midi.NoteOnEvent(tick=100, channel=11, data=[48, 0]),
   midi.NoteOnEvent(tick=20, channel=11, data=[48, 45]),
   midi.NoteOnEvent(tick=100, channel=11, data=[48, 0]),
   midi.NoteOnEvent(tick=380, channel=11, data=[48, 45]),
   midi.NoteOnEvent(tick=100, channel=11, data=[48, 0]),
   midi.NoteOnEvent(tick=140, channel=11, data=[48, 45]),
   midi.NoteOnEvent(tick=100, channel=11, data=[48, 0]),
   midi.NoteOnEvent(tick=20, channel=11, data=[48, 45]),
   midi.NoteOnEvent(tick=100, channel=11, data=[48, 0]),
   midi.NoteOnEvent(tick=20, channel=11, data=[48, 45]),
   midi.NoteOnEvent(tick=100, channel=11, data=[48, 0]),
   midi.NoteOnEvent(tick=380, channel=11, data=[48, 45]),
   midi.NoteOnEvent(tick=100, channel=11, data=[48, 0]),
   midi.NoteOnEvent(tick=140, channel=11, data=[48, 45]),
   midi.NoteOnEvent(tick=100, channel=11, data=[48, 0]),
   midi.NoteOnEvent(tick=20, channel=11, data=[48, 45]),
   midi.NoteOnEvent(tick=100, channel=11, data=[48, 0]),
   midi.NoteOnEvent(tick=20, channel=11, data=[48, 45]),
   midi.NoteOnEvent(tick=100, channel=11, data=[48, 0]),
   midi.NoteOnEvent(tick=380, channel=11, data=[48, 45]),
   midi.NoteOnEvent(tick=100, channel=11, data=[48, 0]),
   midi.NoteOnEvent(tick=140, channel=11, data=[48, 45]),
   midi.NoteOnEvent(tick=100, channel=11, data=[48, 0]),
   midi.NoteOnEvent(tick=20, channel=11, data=[48, 45]),
   midi.NoteOnEvent(tick=100, channel=11, data=[48, 0]),
   midi.NoteOnEvent(tick=20, channel=11, data=[48, 45]),
   midi.NoteOnEvent(tick=100, channel=11, data=[48, 0]),
   midi.NoteOnEvent(tick=140, channel=11, data=[48, 45]),
   midi.NoteOnEvent(tick=100, channel=11, data=[48, 0]),
   midi.NoteOnEvent(tick=20, channel=11, data=[48, 45]),
   midi.NoteOnEvent(tick=100, channel=11, data=[48, 0]),
   midi.NoteOnEvent(tick=20, channel=11, data=[48, 45]),
   midi.NoteOnEvent(tick=100, channel=11, data=[48, 0]),
   midi.NoteOnEvent(tick=20, channel=11, data=[48, 45]),
   midi.NoteOnEvent(tick=100, channel=11, data=[48, 0]),
   midi.NoteOnEvent(tick=20, channel=11, data=[48, 45]),
   midi.NoteOnEvent(tick=100, channel=11, data=[48, 0]),
   midi.NoteOnEvent(tick=20, channel=11, data=[48, 45]),
   midi.NoteOnEvent(tick=100, channel=11, data=[48, 0]),
   midi.NoteOnEvent(tick=20, channel=11, data=[60, 92]),
   midi.NoteOnEvent(tick=100, channel=11, data=[60, 0]),
   midi.NoteOnEvent(tick=20, channel=11, data=[60, 92]),
   midi.NoteOnEvent(tick=210, channel=11, data=[60, 0]),
   midi.NoteOnEvent(tick=30, channel=11, data=[60, 92]),
   midi.NoteOnEvent(tick=100, channel=11, data=[60, 0]),
   midi.NoteOnEvent(tick=20, channel=11, data=[60, 92]),
   midi.NoteOnEvent(tick=100, channel=11, data=[60, 0]),
   midi.NoteOnEvent(tick=20, channel=11, data=[60, 92]),
   midi.NoteOnEvent(tick=100, channel=11, data=[60, 0]),
   midi.NoteOnEvent(tick=20, channel=11, data=[60, 92]),
   midi.NoteOnEvent(tick=100, channel=11, data=[60, 0]),
   midi.NoteOnEvent(tick=20, channel=11, data=[60, 92]),
   midi.NoteOnEvent(tick=100, channel=11, data=[60, 0]),
   midi.NoteOnEvent(tick=20, channel=11, data=[60, 92]),
   midi.NoteOnEvent(tick=100, channel=11, data=[60, 0]),
   midi.NoteOnEvent(tick=20, channel=11, data=[60, 92]),
   midi.NoteOnEvent(tick=210, channel=11, data=[60, 0]),
   midi.NoteOnEvent(tick=30, channel=11, data=[60, 92]),
   midi.NoteOnEvent(tick=100, channel=11, data=[60, 0]),
   midi.NoteOnEvent(tick=20, channel=11, data=[60, 92]),
   midi.NoteOnEvent(tick=100, channel=11, data=[60, 0]),
   midi.NoteOnEvent(tick=20, channel=11, data=[60, 92]),
   midi.NoteOnEvent(tick=100, channel=11, data=[60, 0]),
   midi.NoteOnEvent(tick=20, channel=11, data=[60, 92]),
   midi.NoteOnEvent(tick=100, channel=11, data=[60, 0]),
   midi.NoteOnEvent(tick=20, channel=11, data=[60, 92]),
   midi.NoteOnEvent(tick=100, channel=11, data=[60, 0]),
   midi.NoteOnEvent(tick=20, channel=11, data=[60, 92]),
   midi.NoteOnEvent(tick=100, channel=11, data=[60, 0]),
   midi.NoteOnEvent(tick=380, channel=11, data=[48, 60]),
   midi.NoteOnEvent(tick=100, channel=11, data=[48, 0]),
   midi.NoteOnEvent(tick=380, channel=11, data=[48, 60]),
   midi.NoteOnEvent(tick=100, channel=11, data=[48, 0]),
   midi.NoteOnEvent(tick=380, channel=11, data=[48, 60]),
   midi.NoteOnEvent(tick=100, channel=11, data=[48, 0]),
   midi.NoteOnEvent(tick=380, channel=11, data=[48, 60]),
   midi.NoteOnEvent(tick=100, channel=11, data=[48, 0]),
   midi.NoteOnEvent(tick=380, channel=11, data=[48, 60]),
   midi.NoteOnEvent(tick=100, channel=11, data=[48, 0]),
   midi.NoteOnEvent(tick=380, channel=11, data=[43, 60]),
   midi.NoteOnEvent(tick=930, channel=11, data=[43, 0]),
   midi.NoteOnEvent(tick=30, channel=11, data=[48, 60]),
   midi.NoteOnEvent(tick=100, channel=11, data=[48, 0]),
   midi.NoteOnEvent(tick=380, channel=11, data=[48, 60]),
   midi.NoteOnEvent(tick=100, channel=11, data=[48, 0]),
   midi.NoteOnEvent(tick=380, channel=11, data=[48, 60]),
   midi.NoteOnEvent(tick=100, channel=11, data=[48, 0]),
   midi.NoteOnEvent(tick=380, channel=11, data=[48, 60]),
   midi.NoteOnEvent(tick=100, channel=11, data=[48, 0]),
   midi.NoteOnEvent(tick=380, channel=11, data=[48, 60]),
   midi.NoteOnEvent(tick=100, channel=11, data=[48, 0]),
   midi.NoteOnEvent(tick=380, channel=11, data=[48, 60]),
   midi.NoteOnEvent(tick=100, channel=11, data=[48, 0]),
   midi.NoteOnEvent(tick=380, channel=11, data=[43, 60]),
   midi.NoteOnEvent(tick=930, channel=11, data=[43, 0]),
   midi.NoteOnEvent(tick=30, channel=11, data=[48, 60]),
   midi.NoteOnEvent(tick=100, channel=11, data=[48, 0]),
   midi.NoteOnEvent(tick=380, channel=11, data=[48, 60]),
   midi.NoteOnEvent(tick=100, channel=11, data=[48, 0]),
   midi.NoteOnEvent(tick=140, channel=11, data=[48, 60]),
   midi.NoteOnEvent(tick=100, channel=11, data=[48, 0]),
   midi.NoteOnEvent(tick=20, channel=11, data=[48, 60]),
   midi.NoteOnEvent(tick=100, channel=11, data=[48, 0]),
   midi.NoteOnEvent(tick=20, channel=11, data=[50, 60]),
   midi.NoteOnEvent(tick=100, channel=11, data=[50, 0]),
   midi.NoteOnEvent(tick=380, channel=11, data=[50, 60]),
   midi.NoteOnEvent(tick=100, channel=11, data=[50, 0]),
   midi.NoteOnEvent(tick=140, channel=11, data=[50, 60]),
   midi.NoteOnEvent(tick=100, channel=11, data=[50, 0]),
   midi.NoteOnEvent(tick=20, channel=11, data=[50, 60]),
   midi.NoteOnEvent(tick=100, channel=11, data=[50, 0]),
   midi.NoteOnEvent(tick=20, channel=11, data=[52, 60]),
   midi.NoteOnEvent(tick=100, channel=11, data=[52, 0]),
   midi.NoteOnEvent(tick=380, channel=11, data=[52, 60]),
   midi.NoteOnEvent(tick=100, channel=11, data=[52, 0]),
   midi.NoteOnEvent(tick=140, channel=11, data=[52, 60]),
   midi.NoteOnEvent(tick=100, channel=11, data=[52, 0]),
   midi.NoteOnEvent(tick=20, channel=11, data=[52, 60]),
   midi.NoteOnEvent(tick=100, channel=11, data=[52, 0]),
   midi.NoteOnEvent(tick=20, channel=11, data=[45, 60]),
   midi.NoteOnEvent(tick=100, channel=11, data=[45, 0]),
   midi.NoteOnEvent(tick=380, channel=11, data=[45, 60]),
   midi.NoteOnEvent(tick=100, channel=11, data=[45, 0]),
   midi.NoteOnEvent(tick=140, channel=11, data=[45, 60]),
   midi.NoteOnEvent(tick=100, channel=11, data=[45, 0]),
   midi.NoteOnEvent(tick=20, channel=11, data=[45, 60]),
   midi.NoteOnEvent(tick=100, channel=11, data=[45, 0]),
   midi.NoteOnEvent(tick=20, channel=11, data=[50, 92]),
   midi.NoteOnEvent(tick=100, channel=11, data=[50, 0]),
   midi.NoteOnEvent(tick=20, channel=11, data=[62, 92]),
   midi.NoteOnEvent(tick=210, channel=11, data=[62, 0]),
   midi.NoteOnEvent(tick=30, channel=11, data=[62, 92]),
   midi.NoteOnEvent(tick=100, channel=11, data=[62, 0]),
   midi.NoteOnEvent(tick=20, channel=11, data=[62, 92]),
   midi.NoteOnEvent(tick=100, channel=11, data=[62, 0]),
   midi.NoteOnEvent(tick=20, channel=11, data=[62, 92]),
   midi.NoteOnEvent(tick=100, channel=11, data=[62, 0]),
   midi.NoteOnEvent(tick=20, channel=11, data=[62, 92]),
   midi.NoteOnEvent(tick=100, channel=11, data=[62, 0]),
   midi.NoteOnEvent(tick=20, channel=11, data=[62, 92]),
   midi.NoteOnEvent(tick=100, channel=11, data=[62, 0]),
   midi.NoteOnEvent(tick=20, channel=11, data=[62, 92]),
   midi.NoteOnEvent(tick=100, channel=11, data=[62, 0]),
   midi.NoteOnEvent(tick=20, channel=11, data=[62, 92]),
   midi.NoteOnEvent(tick=210, channel=11, data=[62, 0]),
   midi.NoteOnEvent(tick=30, channel=11, data=[62, 92]),
   midi.NoteOnEvent(tick=100, channel=11, data=[62, 0]),
   midi.NoteOnEvent(tick=20, channel=11, data=[62, 92]),
   midi.NoteOnEvent(tick=100, channel=11, data=[62, 0]),
   midi.NoteOnEvent(tick=20, channel=11, data=[62, 92]),
   midi.NoteOnEvent(tick=100, channel=11, data=[62, 0]),
   midi.NoteOnEvent(tick=20, channel=11, data=[62, 92]),
   midi.NoteOnEvent(tick=100, channel=11, data=[62, 0]),
   midi.NoteOnEvent(tick=20, channel=11, data=[62, 92]),
   midi.NoteOnEvent(tick=100, channel=11, data=[62, 0]),
   midi.NoteOnEvent(tick=20, channel=11, data=[62, 92]),
   midi.NoteOnEvent(tick=100, channel=11, data=[62, 0]),
   midi.NoteOnEvent(tick=3860, channel=11, data=[67, 92]),
   midi.NoteOnEvent(tick=210, channel=11, data=[67, 0]),
   midi.NoteOnEvent(tick=30, channel=11, data=[66, 92]),
   midi.NoteOnEvent(tick=100, channel=11, data=[66, 0]),
   midi.NoteOnEvent(tick=20, channel=11, data=[67, 92]),
   midi.NoteOnEvent(tick=30, channel=11, data=[67, 0]),
   midi.NoteOnEvent(tick=90, channel=11, data=[66, 92]),
   midi.NoteOnEvent(tick=30, channel=11, data=[66, 0]),
   midi.NoteOnEvent(tick=90, channel=11, data=[67, 92]),
   midi.NoteOnEvent(tick=30, channel=11, data=[67, 0]),
   midi.NoteOnEvent(tick=90, channel=11, data=[63, 92]),
   midi.NoteOnEvent(tick=30, channel=11, data=[63, 0]),
   midi.NoteOnEvent(tick=90, channel=11, data=[64, 92]),
   midi.NoteOnEvent(tick=100, channel=11, data=[64, 0]),
   midi.NoteOnEvent(tick=20, channel=11, data=[64, 92]),
   midi.NoteOnEvent(tick=210, channel=11, data=[64, 0]),
   midi.NoteOnEvent(tick=30, channel=11, data=[63, 92]),
   midi.NoteOnEvent(tick=100, channel=11, data=[63, 0]),
   midi.NoteOnEvent(tick=20, channel=11, data=[64, 92]),
   midi.NoteOnEvent(tick=100, channel=11, data=[64, 0]),
   midi.NoteOnEvent(tick=20, channel=11, data=[63, 92]),
   midi.NoteOnEvent(tick=100, channel=11, data=[63, 0]),
   midi.NoteOnEvent(tick=20, channel=11, data=[64, 92]),
   midi.NoteOnEvent(tick=100, channel=11, data=[64, 0]),
   midi.NoteOnEvent(tick=20, channel=11, data=[59, 92]),
   midi.NoteOnEvent(tick=100, channel=11, data=[59, 0]),
   midi.NoteOnEvent(tick=20, channel=11, data=[60, 92]),
   midi.NoteOnEvent(tick=100, channel=11, data=[60, 0]),
   midi.NoteOnEvent(tick=20, channel=11, data=[60, 92]),
   midi.NoteOnEvent(tick=210, channel=11, data=[60, 0]),
   midi.NoteOnEvent(tick=30, channel=11, data=[59, 92]),
   midi.NoteOnEvent(tick=100, channel=11, data=[59, 0]),
   midi.NoteOnEvent(tick=20, channel=11, data=[60, 92]),
   midi.NoteOnEvent(tick=100, channel=11, data=[60, 0]),
   midi.NoteOnEvent(tick=20, channel=11, data=[59, 92]),
   midi.NoteOnEvent(tick=100, channel=11, data=[59, 0]),
   midi.NoteOnEvent(tick=20, channel=11, data=[60, 92]),
   midi.NoteOnEvent(tick=100, channel=11, data=[60, 0]),
   midi.NoteOnEvent(tick=20, channel=11, data=[62, 92]),
   midi.NoteOnEvent(tick=100, channel=11, data=[62, 0]),
   midi.NoteOnEvent(tick=20, channel=11, data=[60, 92]),
   midi.NoteOnEvent(tick=100, channel=11, data=[60, 0]),
   midi.NoteOnEvent(tick=20, channel=11, data=[56, 92]),
   midi.NoteOnEvent(tick=100, channel=11, data=[56, 0]),
   midi.NoteOnEvent(tick=20, channel=11, data=[57, 92]),
   midi.NoteOnEvent(tick=100, channel=11, data=[57, 0]),
   midi.NoteOnEvent(tick=20, channel=11, data=[55, 92]),
   midi.NoteOnEvent(tick=100, channel=11, data=[55, 0]),
   midi.NoteOnEvent(tick=20, channel=11, data=[54, 92]),
   midi.NoteOnEvent(tick=100, channel=11, data=[54, 0]),
   midi.NoteOnEvent(tick=20, channel=11, data=[50, 92]),
   midi.NoteOnEvent(tick=100, channel=11, data=[50, 0]),
   midi.NoteOnEvent(tick=20, channel=11, data=[52, 92]),
   midi.NoteOnEvent(tick=100, channel=11, data=[52, 0]),
   midi.NoteOnEvent(tick=20, channel=11, data=[54, 92]),
   midi.NoteOnEvent(tick=100, channel=11, data=[54, 0]),
   midi.NoteOnEvent(tick=20, channel=11, data=[55, 92]),
   midi.NoteOnEvent(tick=30, channel=11, data=[55, 0]),
   midi.NoteOnEvent(tick=90, channel=11, data=[59, 92]),
   midi.NoteOnEvent(tick=30, channel=11, data=[59, 0]),
   midi.NoteOnEvent(tick=90, channel=11, data=[62, 92]),
   midi.NoteOnEvent(tick=210, channel=11, data=[62, 0]),
   midi.NoteOnEvent(tick=30, channel=11, data=[52, 92]),
   midi.NoteOnEvent(tick=30, channel=11, data=[52, 0]),
   midi.NoteOnEvent(tick=90, channel=11, data=[55, 92]),
   midi.NoteOnEvent(tick=30, channel=11, data=[55, 0]),
   midi.NoteOnEvent(tick=90, channel=11, data=[59, 92]),
   midi.NoteOnEvent(tick=210, channel=11, data=[59, 0]),
   midi.NoteOnEvent(tick=30, channel=11, data=[48, 92]),
   midi.NoteOnEvent(tick=30, channel=11, data=[48, 0]),
   midi.NoteOnEvent(tick=90, channel=11, data=[52, 92]),
   midi.NoteOnEvent(tick=30, channel=11, data=[52, 0]),
   midi.NoteOnEvent(tick=90, channel=11, data=[50, 92]),
   midi.NoteOnEvent(tick=30, channel=11, data=[50, 0]),
   midi.NoteOnEvent(tick=90, channel=11, data=[54, 92]),
   midi.NoteOnEvent(tick=30, channel=11, data=[54, 0]),
   midi.NoteOnEvent(tick=90, channel=11, data=[55, 92]),
   midi.NoteOnEvent(tick=30, channel=11, data=[55, 0]),
   midi.NoteOnEvent(tick=90, channel=11, data=[59, 92]),
   midi.NoteOnEvent(tick=30, channel=11, data=[59, 0]),
   midi.NoteOnEvent(tick=90, channel=11, data=[62, 92]),
   midi.NoteOnEvent(tick=210, channel=11, data=[62, 0]),
   midi.NoteOnEvent(tick=30, channel=11, data=[52, 92]),
   midi.NoteOnEvent(tick=30, channel=11, data=[52, 0]),
   midi.NoteOnEvent(tick=90, channel=11, data=[55, 92]),
   midi.NoteOnEvent(tick=30, channel=11, data=[55, 0]),
   midi.NoteOnEvent(tick=90, channel=11, data=[59, 92]),
   midi.NoteOnEvent(tick=210, channel=11, data=[59, 0]),
   midi.NoteOnEvent(tick=30, channel=11, data=[48, 92]),
   midi.NoteOnEvent(tick=100, channel=11, data=[48, 0]),
   midi.NoteOnEvent(tick=20, channel=11, data=[52, 92]),
   midi.NoteOnEvent(tick=100, channel=11, data=[52, 0]),
   midi.NoteOnEvent(tick=20, channel=11, data=[50, 92]),
   midi.NoteOnEvent(tick=100, channel=11, data=[50, 0]),
   midi.NoteOnEvent(tick=20, channel=11, data=[50, 92]),
   midi.NoteOnEvent(tick=100, channel=11, data=[50, 0]),
   midi.NoteOnEvent(tick=20, channel=11, data=[55, 92]),
   midi.NoteOnEvent(tick=100, channel=11, data=[55, 0]),
   midi.NoteOnEvent(tick=380, channel=11, data=[55, 60]),
   midi.NoteOnEvent(tick=100, channel=11, data=[55, 0]),
   midi.NoteOnEvent(tick=380, channel=11, data=[55, 60]),
   midi.NoteOnEvent(tick=100, channel=11, data=[55, 0]),
   midi.NoteOnEvent(tick=380, channel=11, data=[55, 60]),
   midi.NoteOnEvent(tick=100, channel=11, data=[55, 0]),
   midi.NoteOnEvent(tick=380, channel=11, data=[55, 60]),
   midi.NoteOnEvent(tick=100, channel=11, data=[55, 0]),
   midi.NoteOnEvent(tick=380, channel=11, data=[55, 60]),
   midi.NoteOnEvent(tick=100, channel=11, data=[55, 0]),
   midi.NoteOnEvent(tick=380, channel=11, data=[50, 60]),
   midi.NoteOnEvent(tick=930, channel=11, data=[50, 0]),
   midi.NoteOnEvent(tick=30, channel=11, data=[55, 60]),
   midi.NoteOnEvent(tick=100, channel=11, data=[55, 0]),
   midi.NoteOnEvent(tick=380, channel=11, data=[55, 60]),
   midi.NoteOnEvent(tick=100, channel=11, data=[55, 0]),
   midi.NoteOnEvent(tick=380, channel=11, data=[55, 60]),
   midi.NoteOnEvent(tick=100, channel=11, data=[55, 0]),
   midi.NoteOnEvent(tick=380, channel=11, data=[55, 60]),
   midi.NoteOnEvent(tick=100, channel=11, data=[55, 0]),
   midi.NoteOnEvent(tick=380, channel=11, data=[55, 60]),
   midi.NoteOnEvent(tick=100, channel=11, data=[55, 0]),
   midi.NoteOnEvent(tick=380, channel=11, data=[55, 60]),
   midi.NoteOnEvent(tick=100, channel=11, data=[55, 0]),
   midi.NoteOnEvent(tick=380, channel=11, data=[50, 60]),
   midi.NoteOnEvent(tick=930, channel=11, data=[50, 0]),
   midi.NoteOnEvent(tick=30, channel=11, data=[55, 60]),
   midi.NoteOnEvent(tick=100, channel=11, data=[55, 0]),
   midi.NoteOnEvent(tick=380, channel=11, data=[55, 60]),
   midi.NoteOnEvent(tick=100, channel=11, data=[55, 0]),
   midi.NoteOnEvent(tick=140, channel=11, data=[55, 60]),
   midi.NoteOnEvent(tick=100, channel=11, data=[55, 0]),
   midi.NoteOnEvent(tick=20, channel=11, data=[55, 60]),
   midi.NoteOnEvent(tick=100, channel=11, data=[55, 0]),
   midi.NoteOnEvent(tick=20, channel=11, data=[55, 60]),
   midi.NoteOnEvent(tick=100, channel=11, data=[55, 0]),
   midi.NoteOnEvent(tick=380, channel=11, data=[55, 60]),
   midi.NoteOnEvent(tick=100, channel=11, data=[55, 0]),
   midi.NoteOnEvent(tick=140, channel=11, data=[55, 60]),
   midi.NoteOnEvent(tick=100, channel=11, data=[55, 0]),
   midi.NoteOnEvent(tick=20, channel=11, data=[55, 60]),
   midi.NoteOnEvent(tick=100, channel=11, data=[55, 0]),
   midi.NoteOnEvent(tick=20, channel=11, data=[55, 60]),
   midi.NoteOnEvent(tick=100, channel=11, data=[55, 0]),
   midi.NoteOnEvent(tick=380, channel=11, data=[55, 60]),
   midi.NoteOnEvent(tick=100, channel=11, data=[55, 0]),
   midi.NoteOnEvent(tick=140, channel=11, data=[55, 60]),
   midi.NoteOnEvent(tick=100, channel=11, data=[55, 0]),
   midi.NoteOnEvent(tick=20, channel=11, data=[55, 60]),
   midi.NoteOnEvent(tick=100, channel=11, data=[55, 0]),
   midi.NoteOnEvent(tick=20, channel=11, data=[64, 92]),
   midi.NoteOnEvent(tick=100, channel=11, data=[64, 0]),
   midi.NoteOnEvent(tick=20, channel=11, data=[64, 92]),
   midi.NoteOnEvent(tick=210, channel=11, data=[64, 0]),
   midi.NoteOnEvent(tick=30, channel=11, data=[64, 92]),
   midi.NoteOnEvent(tick=100, channel=11, data=[64, 0]),
   midi.NoteOnEvent(tick=20, channel=11, data=[64, 92]),
   midi.NoteOnEvent(tick=100, channel=11, data=[64, 0]),
   midi.NoteOnEvent(tick=20, channel=11, data=[64, 92]),
   midi.NoteOnEvent(tick=100, channel=11, data=[64, 0]),
   midi.NoteOnEvent(tick=20, channel=11, data=[64, 92]),
   midi.NoteOnEvent(tick=100, channel=11, data=[64, 0]),
   midi.NoteOnEvent(tick=20, channel=11, data=[64, 92]),
   midi.NoteOnEvent(tick=100, channel=11, data=[64, 0]),
   midi.NoteOnEvent(tick=20, channel=11, data=[64, 92]),
   midi.NoteOnEvent(tick=100, channel=11, data=[64, 0]),
   midi.NoteOnEvent(tick=20, channel=11, data=[64, 92]),
   midi.NoteOnEvent(tick=210, channel=11, data=[64, 0]),
   midi.NoteOnEvent(tick=30, channel=11, data=[64, 92]),
   midi.NoteOnEvent(tick=100, channel=11, data=[64, 0]),
   midi.NoteOnEvent(tick=20, channel=11, data=[64, 92]),
   midi.NoteOnEvent(tick=100, channel=11, data=[64, 0]),
   midi.NoteOnEvent(tick=20, channel=11, data=[64, 92]),
   midi.NoteOnEvent(tick=100, channel=11, data=[64, 0]),
   midi.NoteOnEvent(tick=20, channel=11, data=[64, 92]),
   midi.NoteOnEvent(tick=100, channel=11, data=[64, 0]),
   midi.NoteOnEvent(tick=20, channel=11, data=[64, 92]),
   midi.NoteOnEvent(tick=100, channel=11, data=[64, 0]),
   midi.NoteOnEvent(tick=20, channel=11, data=[64, 92]),
   midi.NoteOnEvent(tick=100, channel=11, data=[64, 0]),
   midi.NoteOnEvent(tick=3740, channel=11, data=[57, 92]),
   midi.NoteOnEvent(tick=100, channel=11, data=[57, 0]),
   midi.NoteOnEvent(tick=20, channel=11, data=[57, 92]),
   midi.NoteOnEvent(tick=210, channel=11, data=[57, 0]),
   midi.NoteOnEvent(tick=30, channel=11, data=[57, 92]),
   midi.NoteOnEvent(tick=100, channel=11, data=[57, 0]),
   midi.NoteOnEvent(tick=20, channel=11, data=[57, 92]),
   midi.NoteOnEvent(tick=100, channel=11, data=[57, 0]),
   midi.NoteOnEvent(tick=20, channel=11, data=[57, 92]),
   midi.NoteOnEvent(tick=100, channel=11, data=[57, 0]),
   midi.NoteOnEvent(tick=20, channel=11, data=[57, 92]),
   midi.NoteOnEvent(tick=100, channel=11, data=[57, 0]),
   midi.NoteOnEvent(tick=20, channel=11, data=[57, 92]),
   midi.NoteOnEvent(tick=100, channel=11, data=[57, 0]),
   midi.NoteOnEvent(tick=20, channel=11, data=[57, 92]),
   midi.NoteOnEvent(tick=100, channel=11, data=[57, 0]),
   midi.NoteOnEvent(tick=380, channel=11, data=[57, 60]),
   midi.NoteOnEvent(tick=100, channel=11, data=[57, 0]),
   midi.NoteOnEvent(tick=140, channel=11, data=[57, 60]),
   midi.NoteOnEvent(tick=100, channel=11, data=[57, 0]),
   midi.NoteOnEvent(tick=20, channel=11, data=[57, 60]),
   midi.NoteOnEvent(tick=100, channel=11, data=[57, 0]),
   midi.NoteOnEvent(tick=20, channel=11, data=[57, 60]),
   midi.NoteOnEvent(tick=100, channel=11, data=[57, 0]),
   midi.NoteOnEvent(tick=380, channel=11, data=[57, 60]),
   midi.NoteOnEvent(tick=100, channel=11, data=[57, 0]),
   midi.NoteOnEvent(tick=140, channel=11, data=[57, 60]),
   midi.NoteOnEvent(tick=100, channel=11, data=[57, 0]),
   midi.NoteOnEvent(tick=20, channel=11, data=[57, 60]),
   midi.NoteOnEvent(tick=100, channel=11, data=[57, 0]),
   midi.NoteOnEvent(tick=20, channel=11, data=[57, 60]),
   midi.NoteOnEvent(tick=100, channel=11, data=[57, 0]),
   midi.NoteOnEvent(tick=380, channel=11, data=[57, 60]),
   midi.NoteOnEvent(tick=100, channel=11, data=[57, 0]),
   midi.NoteOnEvent(tick=140, channel=11, data=[57, 60]),
   midi.NoteOnEvent(tick=100, channel=11, data=[57, 0]),
   midi.NoteOnEvent(tick=20, channel=11, data=[57, 60]),
   midi.NoteOnEvent(tick=100, channel=11, data=[57, 0]),
   midi.NoteOnEvent(tick=20, channel=11, data=[62, 92]),
   midi.NoteOnEvent(tick=100, channel=11, data=[62, 0]),
   midi.NoteOnEvent(tick=20, channel=11, data=[62, 92]),
   midi.NoteOnEvent(tick=210, channel=11, data=[62, 0]),
   midi.NoteOnEvent(tick=30, channel=11, data=[62, 92]),
   midi.NoteOnEvent(tick=100, channel=11, data=[62, 0]),
   midi.NoteOnEvent(tick=20, channel=11, data=[62, 92]),
   midi.NoteOnEvent(tick=100, channel=11, data=[62, 0]),
   midi.NoteOnEvent(tick=20, channel=11, data=[62, 92]),
   midi.NoteOnEvent(tick=100, channel=11, data=[62, 0]),
   midi.NoteOnEvent(tick=20, channel=11, data=[62, 92]),
   midi.NoteOnEvent(tick=100, channel=11, data=[62, 0]),
   midi.NoteOnEvent(tick=20, channel=11, data=[62, 92]),
   midi.NoteOnEvent(tick=100, channel=11, data=[62, 0]),
   midi.NoteOnEvent(tick=20, channel=11, data=[62, 92]),
   midi.NoteOnEvent(tick=100, channel=11, data=[62, 0]),
   midi.NoteOnEvent(tick=3740, channel=11, data=[55, 92]),
   midi.NoteOnEvent(tick=100, channel=11, data=[55, 0]),
   midi.NoteOnEvent(tick=20, channel=11, data=[55, 92]),
   midi.NoteOnEvent(tick=210, channel=11, data=[55, 0]),
   midi.NoteOnEvent(tick=30, channel=11, data=[55, 92]),
   midi.NoteOnEvent(tick=100, channel=11, data=[55, 0]),
   midi.NoteOnEvent(tick=20, channel=11, data=[55, 92]),
   midi.NoteOnEvent(tick=100, channel=11, data=[55, 0]),
   midi.NoteOnEvent(tick=20, channel=11, data=[55, 92]),
   midi.NoteOnEvent(tick=100, channel=11, data=[55, 0]),
   midi.NoteOnEvent(tick=20, channel=11, data=[55, 92]),
   midi.NoteOnEvent(tick=100, channel=11, data=[55, 0]),
   midi.NoteOnEvent(tick=20, channel=11, data=[55, 92]),
   midi.NoteOnEvent(tick=100, channel=11, data=[55, 0]),
   midi.NoteOnEvent(tick=20, channel=11, data=[55, 92]),
   midi.NoteOnEvent(tick=100, channel=11, data=[55, 0]),
   midi.NoteOnEvent(tick=380, channel=11, data=[55, 60]),
   midi.NoteOnEvent(tick=100, channel=11, data=[55, 0]),
   midi.NoteOnEvent(tick=140, channel=11, data=[55, 60]),
   midi.NoteOnEvent(tick=100, channel=11, data=[55, 0]),
   midi.NoteOnEvent(tick=20, channel=11, data=[55, 60]),
   midi.NoteOnEvent(tick=100, channel=11, data=[55, 0]),
   midi.NoteOnEvent(tick=20, channel=11, data=[55, 60]),
   midi.NoteOnEvent(tick=100, channel=11, data=[55, 0]),
   midi.NoteOnEvent(tick=380, channel=11, data=[55, 60]),
   midi.NoteOnEvent(tick=100, channel=11, data=[55, 0]),
   midi.NoteOnEvent(tick=140, channel=11, data=[55, 60]),
   midi.NoteOnEvent(tick=100, channel=11, data=[55, 0]),
   midi.NoteOnEvent(tick=20, channel=11, data=[55, 60]),
   midi.NoteOnEvent(tick=100, channel=11, data=[55, 0]),
   midi.NoteOnEvent(tick=20, channel=11, data=[55, 60]),
   midi.NoteOnEvent(tick=100, channel=11, data=[55, 0]),
   midi.NoteOnEvent(tick=380, channel=11, data=[55, 60]),
   midi.NoteOnEvent(tick=100, channel=11, data=[55, 0]),
   midi.NoteOnEvent(tick=140, channel=11, data=[55, 60]),
   midi.NoteOnEvent(tick=100, channel=11, data=[55, 0]),
   midi.NoteOnEvent(tick=20, channel=11, data=[55, 60]),
   midi.NoteOnEvent(tick=100, channel=11, data=[55, 0]),
   midi.NoteOnEvent(tick=20, channel=11, data=[60, 92]),
   midi.NoteOnEvent(tick=100, channel=11, data=[60, 0]),
   midi.NoteOnEvent(tick=20, channel=11, data=[60, 92]),
   midi.NoteOnEvent(tick=210, channel=11, data=[60, 0]),
   midi.NoteOnEvent(tick=30, channel=11, data=[60, 92]),
   midi.NoteOnEvent(tick=100, channel=11, data=[60, 0]),
   midi.NoteOnEvent(tick=20, channel=11, data=[60, 92]),
   midi.NoteOnEvent(tick=100, channel=11, data=[60, 0]),
   midi.NoteOnEvent(tick=20, channel=11, data=[60, 92]),
   midi.NoteOnEvent(tick=100, channel=11, data=[60, 0]),
   midi.NoteOnEvent(tick=20, channel=11, data=[60, 92]),
   midi.NoteOnEvent(tick=100, channel=11, data=[60, 0]),
   midi.NoteOnEvent(tick=20, channel=11, data=[60, 92]),
   midi.NoteOnEvent(tick=100, channel=11, data=[60, 0]),
   midi.NoteOnEvent(tick=20, channel=11, data=[60, 92]),
   midi.NoteOnEvent(tick=100, channel=11, data=[60, 0]),
   midi.NoteOnEvent(tick=3740, channel=11, data=[53, 60]),
   midi.NoteOnEvent(tick=100, channel=11, data=[53, 0]),
   midi.NoteOnEvent(tick=380, channel=11, data=[53, 60]),
   midi.NoteOnEvent(tick=100, channel=11, data=[53, 0]),
   midi.NoteOnEvent(tick=380, channel=11, data=[53, 60]),
   midi.NoteOnEvent(tick=100, channel=11, data=[53, 0]),
   midi.NoteOnEvent(tick=380, channel=11, data=[53, 60]),
   midi.NoteOnEvent(tick=100, channel=11, data=[53, 0]),
   midi.NoteOnEvent(tick=380, channel=11, data=[53, 60]),
   midi.NoteOnEvent(tick=100, channel=11, data=[53, 0]),
   midi.NoteOnEvent(tick=380, channel=11, data=[53, 60]),
   midi.NoteOnEvent(tick=100, channel=11, data=[53, 0]),
   midi.NoteOnEvent(tick=380, channel=11, data=[48, 60]),
   midi.NoteOnEvent(tick=930, channel=11, data=[48, 0]),
   midi.NoteOnEvent(tick=30, channel=11, data=[53, 60]),
   midi.NoteOnEvent(tick=100, channel=11, data=[53, 0]),
   midi.NoteOnEvent(tick=380, channel=11, data=[53, 60]),
   midi.NoteOnEvent(tick=100, channel=11, data=[53, 0]),
   midi.NoteOnEvent(tick=380, channel=11, data=[53, 60]),
   midi.NoteOnEvent(tick=100, channel=11, data=[53, 0]),
   midi.NoteOnEvent(tick=380, channel=11, data=[53, 60]),
   midi.NoteOnEvent(tick=100, channel=11, data=[53, 0]),
   midi.NoteOnEvent(tick=380, channel=11, data=[53, 60]),
   midi.NoteOnEvent(tick=100, channel=11, data=[53, 0]),
   midi.NoteOnEvent(tick=380, channel=11, data=[53, 60]),
   midi.NoteOnEvent(tick=100, channel=11, data=[53, 0]),
   midi.NoteOnEvent(tick=380, channel=11, data=[48, 60]),
   midi.NoteOnEvent(tick=930, channel=11, data=[48, 0]),
   midi.NoteOnEvent(tick=30, channel=11, data=[53, 60]),
   midi.NoteOnEvent(tick=100, channel=11, data=[53, 0]),
   midi.NoteOnEvent(tick=20, channel=11, data=[65, 92]),
   midi.NoteOnEvent(tick=210, channel=11, data=[65, 0]),
   midi.NoteOnEvent(tick=30, channel=11, data=[64, 92]),
   midi.NoteOnEvent(tick=100, channel=11, data=[64, 0]),
   midi.NoteOnEvent(tick=20, channel=11, data=[65, 92]),
   midi.NoteOnEvent(tick=100, channel=11, data=[65, 0]),
   midi.NoteOnEvent(tick=20, channel=11, data=[64, 92]),
   midi.NoteOnEvent(tick=100, channel=11, data=[64, 0]),
   midi.NoteOnEvent(tick=20, channel=11, data=[65, 92]),
   midi.NoteOnEvent(tick=100, channel=11, data=[65, 0]),
   midi.NoteOnEvent(tick=20, channel=11, data=[61, 92]),
   midi.NoteOnEvent(tick=100, channel=11, data=[61, 0]),
   midi.NoteOnEvent(tick=20, channel=11, data=[62, 92]),
   midi.NoteOnEvent(tick=100, channel=11, data=[62, 0]),
   midi.NoteOnEvent(tick=20, channel=11, data=[62, 92]),
   midi.NoteOnEvent(tick=210, channel=11, data=[62, 0]),
   midi.NoteOnEvent(tick=30, channel=11, data=[61, 92]),
   midi.NoteOnEvent(tick=100, channel=11, data=[61, 0]),
   midi.NoteOnEvent(tick=20, channel=11, data=[62, 92]),
   midi.NoteOnEvent(tick=100, channel=11, data=[62, 0]),
   midi.NoteOnEvent(tick=20, channel=11, data=[61, 92]),
   midi.NoteOnEvent(tick=100, channel=11, data=[61, 0]),
   midi.NoteOnEvent(tick=20, channel=11, data=[62, 92]),
   midi.NoteOnEvent(tick=100, channel=11, data=[62, 0]),
   midi.NoteOnEvent(tick=20, channel=11, data=[59, 92]),
   midi.NoteOnEvent(tick=100, channel=11, data=[59, 0]),
   midi.NoteOnEvent(tick=20, channel=11, data=[60, 92]),
   midi.NoteOnEvent(tick=100, channel=11, data=[60, 0]),
   midi.NoteOnEvent(tick=20, channel=11, data=[60, 92]),
   midi.NoteOnEvent(tick=210, channel=11, data=[60, 0]),
   midi.NoteOnEvent(tick=30, channel=11, data=[59, 92]),
   midi.NoteOnEvent(tick=100, channel=11, data=[59, 0]),
   midi.NoteOnEvent(tick=20, channel=11, data=[60, 92]),
   midi.NoteOnEvent(tick=30, channel=11, data=[60, 0]),
   midi.NoteOnEvent(tick=90, channel=11, data=[59, 92]),
   midi.NoteOnEvent(tick=30, channel=11, data=[59, 0]),
   midi.NoteOnEvent(tick=90, channel=11, data=[60, 92]),
   midi.NoteOnEvent(tick=30, channel=11, data=[60, 0]),
   midi.NoteOnEvent(tick=90, channel=11, data=[55, 92]),
   midi.NoteOnEvent(tick=30, channel=11, data=[55, 0]),
   midi.NoteOnEvent(tick=90, channel=11, data=[56, 92]),
   midi.NoteOnEvent(tick=30, channel=11, data=[56, 0]),
   midi.NoteOnEvent(tick=90, channel=11, data=[55, 92]),
   midi.NoteOnEvent(tick=30, channel=11, data=[55, 0]),
   midi.NoteOnEvent(tick=90, channel=11, data=[56, 92]),
   midi.NoteOnEvent(tick=30, channel=11, data=[56, 0]),
   midi.NoteOnEvent(tick=90, channel=11, data=[52, 92]),
   midi.NoteOnEvent(tick=30, channel=11, data=[52, 0]),
   midi.NoteOnEvent(tick=90, channel=11, data=[53, 92]),
   midi.NoteOnEvent(tick=30, channel=11, data=[53, 0]),
   midi.NoteOnEvent(tick=90, channel=11, data=[52, 92]),
   midi.NoteOnEvent(tick=30, channel=11, data=[52, 0]),
   midi.NoteOnEvent(tick=90, channel=11, data=[53, 92]),
   midi.NoteOnEvent(tick=30, channel=11, data=[53, 0]),
   midi.NoteOnEvent(tick=90, channel=11, data=[48, 92]),
   midi.NoteOnEvent(tick=30, channel=11, data=[48, 0]),
   midi.NoteOnEvent(tick=90, channel=11, data=[56, 92]),
   midi.NoteOnEvent(tick=30, channel=11, data=[56, 0]),
   midi.NoteOnEvent(tick=90, channel=11, data=[55, 92]),
   midi.NoteOnEvent(tick=30, channel=11, data=[55, 0]),
   midi.NoteOnEvent(tick=90, channel=11, data=[53, 92]),
   midi.NoteOnEvent(tick=30, channel=11, data=[53, 0]),
   midi.NoteOnEvent(tick=90, channel=11, data=[52, 92]),
   midi.NoteOnEvent(tick=30, channel=11, data=[52, 0]),
   midi.NoteOnEvent(tick=90, channel=11, data=[56, 92]),
   midi.NoteOnEvent(tick=30, channel=11, data=[56, 0]),
   midi.NoteOnEvent(tick=90, channel=11, data=[55, 92]),
   midi.NoteOnEvent(tick=30, channel=11, data=[55, 0]),
   midi.NoteOnEvent(tick=90, channel=11, data=[53, 92]),
   midi.NoteOnEvent(tick=30, channel=11, data=[53, 0]),
   midi.NoteOnEvent(tick=90, channel=11, data=[54, 92]),
   midi.NoteOnEvent(tick=30, channel=11, data=[54, 0]),
   midi.NoteOnEvent(tick=90, channel=11, data=[55, 92]),
   midi.NoteOnEvent(tick=100, channel=11, data=[55, 0]),
   midi.NoteOnEvent(tick=380, channel=11, data=[55, 60]),
   midi.NoteOnEvent(tick=100, channel=11, data=[55, 0]),
   midi.NoteOnEvent(tick=380, channel=11, data=[55, 60]),
   midi.NoteOnEvent(tick=100, channel=11, data=[55, 0]),
   midi.NoteOnEvent(tick=380, channel=11, data=[55, 60]),
   midi.NoteOnEvent(tick=100, channel=11, data=[55, 0]),
   midi.NoteOnEvent(tick=380, channel=11, data=[55, 60]),
   midi.NoteOnEvent(tick=100, channel=11, data=[55, 0]),
   midi.NoteOnEvent(tick=380, channel=11, data=[55, 60]),
   midi.NoteOnEvent(tick=100, channel=11, data=[55, 0]),
   midi.NoteOnEvent(tick=380, channel=11, data=[55, 60]),
   midi.NoteOnEvent(tick=100, channel=11, data=[55, 0]),
   midi.NoteOnEvent(tick=380, channel=11, data=[55, 60]),
   midi.NoteOnEvent(tick=100, channel=11, data=[55, 0]),
   midi.NoteOnEvent(tick=380, channel=11, data=[55, 60]),
   midi.NoteOnEvent(tick=100, channel=11, data=[55, 0]),
   midi.NoteOnEvent(tick=380, channel=11, data=[55, 60]),
   midi.NoteOnEvent(tick=100, channel=11, data=[55, 0]),
   midi.NoteOnEvent(tick=140, channel=11, data=[55, 60]),
   midi.NoteOnEvent(tick=100, channel=11, data=[55, 0]),
   midi.NoteOnEvent(tick=20, channel=11, data=[55, 60]),
   midi.NoteOnEvent(tick=100, channel=11, data=[55, 0]),
   midi.NoteOnEvent(tick=20, channel=11, data=[55, 60]),
   midi.NoteOnEvent(tick=100, channel=11, data=[55, 0]),
   midi.NoteOnEvent(tick=380, channel=11, data=[55, 60]),
   midi.NoteOnEvent(tick=100, channel=11, data=[55, 0]),
   midi.NoteOnEvent(tick=140, channel=11, data=[55, 60]),
   midi.NoteOnEvent(tick=100, channel=11, data=[55, 0]),
   midi.NoteOnEvent(tick=20, channel=11, data=[55, 60]),
   midi.NoteOnEvent(tick=100, channel=11, data=[55, 0]),
   midi.NoteOnEvent(tick=20, channel=11, data=[55, 60]),
   midi.NoteOnEvent(tick=100, channel=11, data=[55, 0]),
   midi.NoteOnEvent(tick=380, channel=11, data=[55, 60]),
   midi.NoteOnEvent(tick=100, channel=11, data=[55, 0]),
   midi.NoteOnEvent(tick=140, channel=11, data=[55, 60]),
   midi.NoteOnEvent(tick=100, channel=11, data=[55, 0]),
   midi.NoteOnEvent(tick=20, channel=11, data=[55, 60]),
   midi.NoteOnEvent(tick=100, channel=11, data=[55, 0]),
   midi.NoteOnEvent(tick=20, channel=11, data=[60, 60]),
   midi.NoteOnEvent(tick=100, channel=11, data=[60, 0]),
   midi.NoteOnEvent(tick=20, channel=11, data=[60, 92]),
   midi.NoteOnEvent(tick=210, channel=11, data=[60, 0]),
   midi.NoteOnEvent(tick=30, channel=11, data=[60, 92]),
   midi.NoteOnEvent(tick=100, channel=11, data=[60, 0]),
   midi.NoteOnEvent(tick=20, channel=11, data=[60, 92]),
   midi.NoteOnEvent(tick=100, channel=11, data=[60, 0]),
   midi.NoteOnEvent(tick=20, channel=11, data=[60, 92]),
   midi.NoteOnEvent(tick=100, channel=11, data=[60, 0]),
   midi.NoteOnEvent(tick=20, channel=11, data=[60, 92]),
   midi.NoteOnEvent(tick=100, channel=11, data=[60, 0]),
   midi.NoteOnEvent(tick=20, channel=11, data=[60, 92]),
   midi.NoteOnEvent(tick=100, channel=11, data=[60, 0]),
   midi.NoteOnEvent(tick=20, channel=11, data=[60, 92]),
   midi.NoteOnEvent(tick=100, channel=11, data=[60, 0]),
   midi.NoteOnEvent(tick=20, channel=11, data=[60, 92]),
   midi.NoteOnEvent(tick=210, channel=11, data=[60, 0]),
   midi.NoteOnEvent(tick=30, channel=11, data=[60, 92]),
   midi.NoteOnEvent(tick=100, channel=11, data=[60, 0]),
   midi.NoteOnEvent(tick=20, channel=11, data=[60, 92]),
   midi.NoteOnEvent(tick=100, channel=11, data=[60, 0]),
   midi.NoteOnEvent(tick=20, channel=11, data=[60, 92]),
   midi.NoteOnEvent(tick=100, channel=11, data=[60, 0]),
   midi.NoteOnEvent(tick=20, channel=11, data=[60, 92]),
   midi.NoteOnEvent(tick=100, channel=11, data=[60, 0]),
   midi.NoteOnEvent(tick=20, channel=11, data=[60, 92]),
   midi.NoteOnEvent(tick=100, channel=11, data=[60, 0]),
   midi.NoteOnEvent(tick=20, channel=11, data=[60, 92]),
   midi.NoteOnEvent(tick=100, channel=11, data=[60, 0]),
   midi.NoteOnEvent(tick=380, channel=11, data=[48, 60]),
   midi.NoteOnEvent(tick=100, channel=11, data=[48, 0]),
   midi.NoteOnEvent(tick=380, channel=11, data=[48, 60]),
   midi.NoteOnEvent(tick=100, channel=11, data=[48, 0]),
   midi.NoteOnEvent(tick=380, channel=11, data=[48, 60]),
   midi.NoteOnEvent(tick=100, channel=11, data=[48, 0]),
   midi.NoteOnEvent(tick=380, channel=11, data=[48, 60]),
   midi.NoteOnEvent(tick=100, channel=11, data=[48, 0]),
   midi.NoteOnEvent(tick=380, channel=11, data=[48, 60]),
   midi.NoteOnEvent(tick=100, channel=11, data=[48, 0]),
   midi.NoteOnEvent(tick=380, channel=11, data=[43, 60]),
   midi.NoteOnEvent(tick=930, channel=11, data=[43, 0]),
   midi.NoteOnEvent(tick=30, channel=11, data=[48, 60]),
   midi.NoteOnEvent(tick=100, channel=11, data=[48, 0]),
   midi.NoteOnEvent(tick=380, channel=11, data=[48, 60]),
   midi.NoteOnEvent(tick=100, channel=11, data=[48, 0]),
   midi.NoteOnEvent(tick=380, channel=11, data=[48, 60]),
   midi.NoteOnEvent(tick=100, channel=11, data=[48, 0]),
   midi.NoteOnEvent(tick=380, channel=11, data=[48, 60]),
   midi.NoteOnEvent(tick=100, channel=11, data=[48, 0]),
   midi.NoteOnEvent(tick=380, channel=11, data=[48, 60]),
   midi.NoteOnEvent(tick=100, channel=11, data=[48, 0]),
   midi.NoteOnEvent(tick=380, channel=11, data=[48, 60]),
   midi.NoteOnEvent(tick=100, channel=11, data=[48, 0]),
   midi.NoteOnEvent(tick=380, channel=11, data=[43, 60]),
   midi.NoteOnEvent(tick=930, channel=11, data=[43, 0]),
   midi.NoteOnEvent(tick=30, channel=11, data=[48, 60]),
   midi.NoteOnEvent(tick=100, channel=11, data=[48, 0]),
   midi.NoteOnEvent(tick=20, channel=11, data=[60, 92]),
   midi.NoteOnEvent(tick=210, channel=11, data=[60, 0]),
   midi.NoteOnEvent(tick=30, channel=11, data=[59, 92]),
   midi.NoteOnEvent(tick=100, channel=11, data=[59, 0]),
   midi.NoteOnEvent(tick=20, channel=11, data=[60, 92]),
   midi.NoteOnEvent(tick=100, channel=11, data=[60, 0]),
   midi.NoteOnEvent(tick=20, channel=11, data=[59, 92]),
   midi.NoteOnEvent(tick=100, channel=11, data=[59, 0]),
   midi.NoteOnEvent(tick=20, channel=11, data=[60, 92]),
   midi.NoteOnEvent(tick=100, channel=11, data=[60, 0]),
   midi.NoteOnEvent(tick=20, channel=11, data=[56, 92]),
   midi.NoteOnEvent(tick=100, channel=11, data=[56, 0]),
   midi.NoteOnEvent(tick=20, channel=11, data=[57, 92]),
   midi.NoteOnEvent(tick=100, channel=11, data=[57, 0]),
   midi.NoteOnEvent(tick=20, channel=11, data=[57, 92]),
   midi.NoteOnEvent(tick=210, channel=11, data=[57, 0]),
   midi.NoteOnEvent(tick=30, channel=11, data=[56, 92]),
   midi.NoteOnEvent(tick=100, channel=11, data=[56, 0]),
   midi.NoteOnEvent(tick=20, channel=11, data=[57, 92]),
   midi.NoteOnEvent(tick=100, channel=11, data=[57, 0]),
   midi.NoteOnEvent(tick=20, channel=11, data=[56, 92]),
   midi.NoteOnEvent(tick=100, channel=11, data=[56, 0]),
   midi.NoteOnEvent(tick=20, channel=11, data=[57, 92]),
   midi.NoteOnEvent(tick=100, channel=11, data=[57, 0]),
   midi.NoteOnEvent(tick=20, channel=11, data=[52, 92]),
   midi.NoteOnEvent(tick=100, channel=11, data=[52, 0]),
   midi.NoteOnEvent(tick=20, channel=11, data=[53, 92]),
   midi.NoteOnEvent(tick=100, channel=11, data=[53, 0]),
   midi.NoteOnEvent(tick=20, channel=11, data=[53, 92]),
   midi.NoteOnEvent(tick=210, channel=11, data=[53, 0]),
   midi.NoteOnEvent(tick=30, channel=11, data=[52, 92]),
   midi.NoteOnEvent(tick=100, channel=11, data=[52, 0]),
   midi.NoteOnEvent(tick=20, channel=11, data=[53, 92]),
   midi.NoteOnEvent(tick=100, channel=11, data=[53, 0]),
   midi.NoteOnEvent(tick=20, channel=11, data=[52, 92]),
   midi.NoteOnEvent(tick=100, channel=11, data=[52, 0]),
   midi.NoteOnEvent(tick=20, channel=11, data=[53, 92]),
   midi.NoteOnEvent(tick=100, channel=11, data=[53, 0]),
   midi.NoteOnEvent(tick=20, channel=11, data=[55, 92]),
   midi.NoteOnEvent(tick=100, channel=11, data=[55, 0]),
   midi.NoteOnEvent(tick=20, channel=11, data=[53, 92]),
   midi.NoteOnEvent(tick=100, channel=11, data=[53, 0]),
   midi.NoteOnEvent(tick=20, channel=11, data=[52, 92]),
   midi.NoteOnEvent(tick=100, channel=11, data=[52, 0]),
   midi.NoteOnEvent(tick=20, channel=11, data=[53, 92]),
   midi.NoteOnEvent(tick=100, channel=11, data=[53, 0]),
   midi.NoteOnEvent(tick=20, channel=11, data=[61, 92]),
   midi.NoteOnEvent(tick=100, channel=11, data=[61, 0]),
   midi.NoteOnEvent(tick=20, channel=11, data=[62, 92]),
   midi.NoteOnEvent(tick=100, channel=11, data=[62, 0]),
   midi.NoteOnEvent(tick=20, channel=11, data=[60, 92]),
   midi.NoteOnEvent(tick=100, channel=11, data=[60, 0]),
   midi.NoteOnEvent(tick=20, channel=11, data=[59, 92]),
   midi.NoteOnEvent(tick=100, channel=11, data=[59, 0]),
   midi.NoteOnEvent(tick=20, channel=11, data=[55, 92]),
   midi.NoteOnEvent(tick=100, channel=11, data=[55, 0]),
   midi.NoteOnEvent(tick=20, channel=11, data=[60, 92]),
   midi.NoteOnEvent(tick=100, channel=11, data=[60, 0]),
   midi.NoteOnEvent(tick=20, channel=11, data=[64, 92]),
   midi.NoteOnEvent(tick=100, channel=11, data=[64, 0]),
   midi.NoteOnEvent(tick=20, channel=11, data=[57, 92]),
   midi.NoteOnEvent(tick=100, channel=11, data=[57, 0]),
   midi.NoteOnEvent(tick=20, channel=11, data=[60, 92]),
   midi.NoteOnEvent(tick=100, channel=11, data=[60, 0]),
   midi.NoteOnEvent(tick=20, channel=11, data=[53, 92]),
   midi.NoteOnEvent(tick=100, channel=11, data=[53, 0]),
   midi.NoteOnEvent(tick=20, channel=11, data=[57, 92]),
   midi.NoteOnEvent(tick=100, channel=11, data=[57, 0]),
   midi.NoteOnEvent(tick=20, channel=11, data=[55, 92]),
   midi.NoteOnEvent(tick=100, channel=11, data=[55, 0]),
   midi.NoteOnEvent(tick=20, channel=11, data=[43, 92]),
   midi.NoteOnEvent(tick=100, channel=11, data=[43, 0]),
   midi.NoteOnEvent(tick=20, channel=11, data=[48, 92]),
   midi.NoteOnEvent(tick=100, channel=11, data=[48, 0]),
   midi.NoteOnEvent(tick=20, channel=11, data=[60, 92]),
   midi.NoteOnEvent(tick=210, channel=11, data=[60, 0]),
   midi.NoteOnEvent(tick=30, channel=11, data=[59, 92]),
   midi.NoteOnEvent(tick=100, channel=11, data=[59, 0]),
   midi.NoteOnEvent(tick=20, channel=11, data=[60, 92]),
   midi.NoteOnEvent(tick=100, channel=11, data=[60, 0]),
   midi.NoteOnEvent(tick=20, channel=11, data=[59, 92]),
   midi.NoteOnEvent(tick=100, channel=11, data=[59, 0]),
   midi.NoteOnEvent(tick=20, channel=11, data=[60, 92]),
   midi.NoteOnEvent(tick=100, channel=11, data=[60, 0]),
   midi.NoteOnEvent(tick=20, channel=11, data=[56, 92]),
   midi.NoteOnEvent(tick=100, channel=11, data=[56, 0]),
   midi.NoteOnEvent(tick=20, channel=11, data=[57, 92]),
   midi.NoteOnEvent(tick=100, channel=11, data=[57, 0]),
   midi.NoteOnEvent(tick=20, channel=11, data=[57, 92]),
   midi.NoteOnEvent(tick=210, channel=11, data=[57, 0]),
   midi.NoteOnEvent(tick=30, channel=11, data=[56, 92]),
   midi.NoteOnEvent(tick=100, channel=11, data=[56, 0]),
   midi.NoteOnEvent(tick=20, channel=11, data=[57, 92]),
   midi.NoteOnEvent(tick=100, channel=11, data=[57, 0]),
   midi.NoteOnEvent(tick=20, channel=11, data=[56, 92]),
   midi.NoteOnEvent(tick=100, channel=11, data=[56, 0]),
   midi.NoteOnEvent(tick=20, channel=11, data=[57, 92]),
   midi.NoteOnEvent(tick=100, channel=11, data=[57, 0]),
   midi.NoteOnEvent(tick=20, channel=11, data=[52, 92]),
   midi.NoteOnEvent(tick=100, channel=11, data=[52, 0]),
   midi.NoteOnEvent(tick=20, channel=11, data=[53, 92]),
   midi.NoteOnEvent(tick=100, channel=11, data=[53, 0]),
   midi.NoteOnEvent(tick=20, channel=11, data=[53, 92]),
   midi.NoteOnEvent(tick=210, channel=11, data=[53, 0]),
   midi.NoteOnEvent(tick=30, channel=11, data=[52, 92]),
   midi.NoteOnEvent(tick=100, channel=11, data=[52, 0]),
   midi.NoteOnEvent(tick=20, channel=11, data=[53, 92]),
   midi.NoteOnEvent(tick=100, channel=11, data=[53, 0]),
   midi.NoteOnEvent(tick=20, channel=11, data=[52, 92]),
   midi.NoteOnEvent(tick=100, channel=11, data=[52, 0]),
   midi.NoteOnEvent(tick=20, channel=11, data=[53, 92]),
   midi.NoteOnEvent(tick=100, channel=11, data=[53, 0]),
   midi.NoteOnEvent(tick=20, channel=11, data=[55, 92]),
   midi.NoteOnEvent(tick=100, channel=11, data=[55, 0]),
   midi.NoteOnEvent(tick=20, channel=11, data=[53, 92]),
   midi.NoteOnEvent(tick=100, channel=11, data=[53, 0]),
   midi.NoteOnEvent(tick=20, channel=11, data=[52, 92]),
   midi.NoteOnEvent(tick=100, channel=11, data=[52, 0]),
   midi.NoteOnEvent(tick=20, channel=11, data=[53, 92]),
   midi.NoteOnEvent(tick=100, channel=11, data=[53, 0]),
   midi.NoteOnEvent(tick=20, channel=11, data=[61, 92]),
   midi.NoteOnEvent(tick=100, channel=11, data=[61, 0]),
   midi.NoteOnEvent(tick=20, channel=11, data=[62, 92]),
   midi.NoteOnEvent(tick=100, channel=11, data=[62, 0]),
   midi.NoteOnEvent(tick=20, channel=11, data=[60, 92]),
   midi.NoteOnEvent(tick=100, channel=11, data=[60, 0]),
   midi.NoteOnEvent(tick=20, channel=11, data=[59, 92]),
   midi.NoteOnEvent(tick=100, channel=11, data=[59, 0]),
   midi.NoteOnEvent(tick=20, channel=11, data=[55, 92]),
   midi.NoteOnEvent(tick=100, channel=11, data=[55, 0]),
   midi.NoteOnEvent(tick=20, channel=11, data=[60, 92]),
   midi.NoteOnEvent(tick=100, channel=11, data=[60, 0]),
   midi.NoteOnEvent(tick=380, channel=11, data=[60, 60]),
   midi.NoteOnEvent(tick=100, channel=11, data=[60, 0]),
   midi.NoteOnEvent(tick=380, channel=11, data=[57, 60]),
   midi.NoteOnEvent(tick=100, channel=11, data=[57, 0]),
   midi.NoteOnEvent(tick=380, channel=11, data=[53, 60]),
   midi.NoteOnEvent(tick=100, channel=11, data=[53, 0]),
   midi.NoteOnEvent(tick=380, channel=11, data=[55, 60]),
   midi.NoteOnEvent(tick=930, channel=11, data=[55, 0]),
   midi.NoteOnEvent(tick=30, channel=11, data=[57, 60]),
   midi.NoteOnEvent(tick=580, channel=11, data=[57, 0]),
   midi.NoteOnEvent(tick=860, channel=11, data=[60, 92]),
   midi.NoteOnEvent(tick=100, channel=11, data=[60, 0]),
   midi.NoteOnEvent(tick=380, channel=11, data=[57, 92]),
   midi.NoteOnEvent(tick=100, channel=11, data=[57, 0]),
   midi.NoteOnEvent(tick=380, channel=11, data=[53, 92]),
   midi.NoteOnEvent(tick=100, channel=11, data=[53, 0]),
   midi.NoteOnEvent(tick=380, channel=11, data=[55, 92]),
   midi.NoteOnEvent(tick=100, channel=11, data=[55, 0]),
   midi.NoteOnEvent(tick=380, channel=11, data=[43, 92]),
   midi.NoteOnEvent(tick=100, channel=11, data=[43, 0]),
   midi.NoteOnEvent(tick=380, channel=11, data=[48, 60]),
   midi.NoteOnEvent(tick=100, channel=11, data=[48, 0]),
   midi.NoteOnEvent(tick=380, channel=11, data=[48, 60]),
   midi.NoteOnEvent(tick=100, channel=11, data=[48, 0]),
   midi.NoteOnEvent(tick=140, channel=11, data=[48, 60]),
   midi.NoteOnEvent(tick=100, channel=11, data=[48, 0]),
   midi.NoteOnEvent(tick=20, channel=11, data=[48, 60]),
   midi.NoteOnEvent(tick=100, channel=11, data=[48, 0]),
   midi.NoteOnEvent(tick=20, channel=11, data=[48, 60]),
   midi.NoteOnEvent(tick=100, channel=11, data=[48, 0]),
   midi.NoteOnEvent(tick=380, channel=11, data=[48, 60]),
   midi.NoteOnEvent(tick=100, channel=11, data=[48, 0]),
   midi.NoteOnEvent(tick=140, channel=11, data=[48, 60]),
   midi.NoteOnEvent(tick=100, channel=11, data=[48, 0]),
   midi.NoteOnEvent(tick=20, channel=11, data=[48, 60]),
   midi.NoteOnEvent(tick=100, channel=11, data=[48, 0]),
   midi.NoteOnEvent(tick=20, channel=11, data=[48, 60]),
   midi.NoteOnEvent(tick=100, channel=11, data=[48, 0]),
   midi.NoteOnEvent(tick=380, channel=11, data=[48, 60]),
   midi.NoteOnEvent(tick=100, channel=11, data=[48, 0]),
   midi.NoteOnEvent(tick=140, channel=11, data=[48, 60]),
   midi.NoteOnEvent(tick=100, channel=11, data=[48, 0]),
   midi.NoteOnEvent(tick=20, channel=11, data=[48, 60]),
   midi.NoteOnEvent(tick=100, channel=11, data=[48, 0]),
   midi.NoteOnEvent(tick=20, channel=11, data=[48, 60]),
   midi.NoteOnEvent(tick=100, channel=11, data=[48, 0]),
   midi.NoteOnEvent(tick=380, channel=11, data=[48, 60]),
   midi.NoteOnEvent(tick=100, channel=11, data=[48, 0]),
   midi.NoteOnEvent(tick=140, channel=11, data=[48, 64]),
   midi.NoteOnEvent(tick=100, channel=11, data=[48, 0]),
   midi.NoteOnEvent(tick=20, channel=11, data=[48, 66]),
   midi.NoteOnEvent(tick=100, channel=11, data=[48, 0]),
   midi.NoteOnEvent(tick=20, channel=11, data=[48, 68]),
   midi.NoteOnEvent(tick=100, channel=11, data=[48, 0]),
   midi.NoteOnEvent(tick=380, channel=11, data=[48, 80]),
   midi.NoteOnEvent(tick=100, channel=11, data=[48, 0]),
   midi.NoteOnEvent(tick=140, channel=11, data=[48, 86]),
   midi.NoteOnEvent(tick=100, channel=11, data=[48, 0]),
   midi.NoteOnEvent(tick=20, channel=11, data=[48, 89]),
   midi.NoteOnEvent(tick=100, channel=11, data=[48, 0]),
   midi.NoteOnEvent(tick=20, channel=11, data=[48, 92]),
   midi.NoteOnEvent(tick=100, channel=11, data=[48, 0]),
   midi.NoteOnEvent(tick=380, channel=11, data=[48, 92]),
   midi.NoteOnEvent(tick=100, channel=11, data=[48, 0]),
   midi.NoteOnEvent(tick=140, channel=11, data=[48, 92]),
   midi.NoteOnEvent(tick=100, channel=11, data=[48, 0]),
   midi.NoteOnEvent(tick=20, channel=11, data=[48, 92]),
   midi.NoteOnEvent(tick=100, channel=11, data=[48, 0]),
   midi.NoteOnEvent(tick=20, channel=11, data=[60, 108]),
   midi.NoteOnEvent(tick=100, channel=11, data=[60, 0]),
   midi.NoteOnEvent(tick=20, channel=11, data=[60, 108]),
   midi.NoteOnEvent(tick=210, channel=11, data=[60, 0]),
   midi.NoteOnEvent(tick=30, channel=11, data=[60, 108]),
   midi.NoteOnEvent(tick=100, channel=11, data=[60, 0]),
   midi.NoteOnEvent(tick=20, channel=11, data=[60, 108]),
   midi.NoteOnEvent(tick=100, channel=11, data=[60, 0]),
   midi.NoteOnEvent(tick=20, channel=11, data=[60, 108]),
   midi.NoteOnEvent(tick=100, channel=11, data=[60, 0]),
   midi.NoteOnEvent(tick=20, channel=11, data=[60, 108]),
   midi.NoteOnEvent(tick=100, channel=11, data=[60, 0]),
   midi.NoteOnEvent(tick=20, channel=11, data=[55, 108]),
   midi.NoteOnEvent(tick=100, channel=11, data=[55, 0]),
   midi.NoteOnEvent(tick=20, channel=11, data=[60, 108]),
   midi.NoteOnEvent(tick=100, channel=11, data=[60, 0]),
   midi.NoteOnEvent(tick=20, channel=11, data=[60, 108]),
   midi.NoteOnEvent(tick=210, channel=11, data=[60, 0]),
   midi.NoteOnEvent(tick=30, channel=11, data=[60, 108]),
   midi.NoteOnEvent(tick=100, channel=11, data=[60, 0]),
   midi.NoteOnEvent(tick=20, channel=11, data=[60, 108]),
   midi.NoteOnEvent(tick=100, channel=11, data=[60, 0]),
   midi.NoteOnEvent(tick=20, channel=11, data=[60, 108]),
   midi.NoteOnEvent(tick=100, channel=11, data=[60, 0]),
   midi.NoteOnEvent(tick=20, channel=11, data=[60, 108]),
   midi.NoteOnEvent(tick=100, channel=11, data=[60, 0]),
   midi.NoteOnEvent(tick=20, channel=11, data=[55, 108]),
   midi.NoteOnEvent(tick=100, channel=11, data=[55, 0]),
   midi.NoteOnEvent(tick=20, channel=11, data=[60, 108]),
   midi.NoteOnEvent(tick=100, channel=11, data=[60, 0]),
   midi.NoteOnEvent(tick=20, channel=11, data=[55, 108]),
   midi.NoteOnEvent(tick=100, channel=11, data=[55, 0]),
   midi.NoteOnEvent(tick=20, channel=11, data=[60, 108]),
   midi.NoteOnEvent(tick=100, channel=11, data=[60, 0]),
   midi.NoteOnEvent(tick=20, channel=11, data=[55, 108]),
   midi.NoteOnEvent(tick=100, channel=11, data=[55, 0]),
   midi.NoteOnEvent(tick=20, channel=11, data=[60, 108]),
   midi.NoteOnEvent(tick=100, channel=11, data=[60, 0]),
   midi.NoteOnEvent(tick=20, channel=11, data=[55, 108]),
   midi.NoteOnEvent(tick=100, channel=11, data=[55, 0]),
   midi.NoteOnEvent(tick=20, channel=11, data=[60, 108]),
   midi.NoteOnEvent(tick=100, channel=11, data=[60, 0]),
   midi.NoteOnEvent(tick=20, channel=11, data=[55, 108]),
   midi.NoteOnEvent(tick=100, channel=11, data=[55, 0]),
   midi.NoteOnEvent(tick=20, channel=11, data=[60, 108]),
   midi.NoteOnEvent(tick=100, channel=11, data=[60, 0]),
   midi.NoteOnEvent(tick=380, channel=11, data=[48, 108]),
   midi.NoteOnEvent(tick=100, channel=11, data=[48, 0]),
   midi.NoteOnEvent(tick=140, channel=11, data=[60, 108]),
   midi.NoteOnEvent(tick=100, channel=11, data=[60, 0]),
   midi.NoteOnEvent(tick=140, channel=11, data=[48, 108]),
   midi.NoteOnEvent(tick=210, channel=11, data=[48, 0]),
   midi.EndOfTrackEvent(tick=0, data=[])]),
 midi.Track(\
  [midi.PortEvent(tick=0, data=[0]),
   midi.TrackNameEvent(tick=0, text='Double Bass', data=[68, 111, 117, 98, 108, 101, 32, 66, 97, 115, 115]),
   midi.ProgramChangeEvent(tick=0, channel=12, data=[43]),
   midi.ControlChangeEvent(tick=0, channel=12, data=[7, 127]),
   midi.ControlChangeEvent(tick=0, channel=12, data=[10, 127]),
   midi.NoteOnEvent(tick=0, channel=12, data=[48, 92]),
   midi.NoteOnEvent(tick=100, channel=12, data=[48, 0]),
   midi.NoteOnEvent(tick=110, channel=12, data=[36, 92]),
   midi.NoteOnEvent(tick=28, channel=12, data=[36, 0]),
   midi.NoteOnEvent(tick=2, channel=12, data=[36, 92]),
   midi.NoteOnEvent(tick=100, channel=12, data=[36, 0]),
   midi.NoteOnEvent(tick=1550, channel=12, data=[43, 92]),
   midi.NoteOnEvent(tick=28, channel=12, data=[43, 0]),
   midi.NoteOnEvent(tick=2, channel=12, data=[43, 92]),
   midi.NoteOnEvent(tick=100, channel=12, data=[43, 0]),
   midi.NoteOnEvent(tick=110, channel=12, data=[31, 92]),
   midi.NoteOnEvent(tick=28, channel=12, data=[31, 0]),
   midi.NoteOnEvent(tick=2, channel=12, data=[31, 92]),
   midi.NoteOnEvent(tick=100, channel=12, data=[31, 0]),
   midi.NoteOnEvent(tick=1340, channel=12, data=[48, 45]),
   midi.NoteOnEvent(tick=30, channel=12, data=[48, 0]),
   midi.NoteOnEvent(tick=210, channel=12, data=[45, 45]),
   midi.NoteOnEvent(tick=30, channel=12, data=[45, 0]),
   midi.NoteOnEvent(tick=210, channel=12, data=[41, 45]),
   midi.NoteOnEvent(tick=30, channel=12, data=[41, 0]),
   midi.NoteOnEvent(tick=210, channel=12, data=[43, 45]),
   midi.NoteOnEvent(tick=450, channel=12, data=[43, 0]),
   midi.NoteOnEvent(tick=30, channel=12, data=[45, 45]),
   midi.NoteOnEvent(tick=240, channel=12, data=[45, 0]),
   midi.NoteOnEvent(tick=0, channel=12, data=[45, 45]),
   midi.NoteOnEvent(tick=100, channel=12, data=[45, 0]),
   midi.NoteOnEvent(tick=380, channel=12, data=[48, 92]),
   midi.NoteOnEvent(tick=30, channel=12, data=[48, 0]),
   midi.NoteOnEvent(tick=210, channel=12, data=[45, 92]),
   midi.NoteOnEvent(tick=30, channel=12, data=[45, 0]),
   midi.NoteOnEvent(tick=210, channel=12, data=[41, 92]),
   midi.NoteOnEvent(tick=30, channel=12, data=[41, 0]),
   midi.NoteOnEvent(tick=210, channel=12, data=[43, 92]),
   midi.NoteOnEvent(tick=100, channel=12, data=[43, 0]),
   midi.NoteOnEvent(tick=140, channel=12, data=[31, 92]),
   midi.NoteOnEvent(tick=100, channel=12, data=[31, 0]),
   midi.NoteOnEvent(tick=140, channel=12, data=[36, 45]),
   midi.NoteOnEvent(tick=100, channel=12, data=[36, 0]),
   midi.NoteOnEvent(tick=380, channel=12, data=[36, 45]),
   midi.NoteOnEvent(tick=100, channel=12, data=[36, 0]),
   midi.NoteOnEvent(tick=140, channel=12, data=[36, 45]),
   midi.NoteOnEvent(tick=100, channel=12, data=[36, 0]),
   midi.NoteOnEvent(tick=20, channel=12, data=[36, 45]),
   midi.NoteOnEvent(tick=100, channel=12, data=[36, 0]),
   midi.NoteOnEvent(tick=20, channel=12, data=[36, 45]),
   midi.NoteOnEvent(tick=100, channel=12, data=[36, 0]),
   midi.NoteOnEvent(tick=380, channel=12, data=[36, 45]),
   midi.NoteOnEvent(tick=100, channel=12, data=[36, 0]),
   midi.NoteOnEvent(tick=140, channel=12, data=[36, 45]),
   midi.NoteOnEvent(tick=100, channel=12, data=[36, 0]),
   midi.NoteOnEvent(tick=20, channel=12, data=[36, 45]),
   midi.NoteOnEvent(tick=100, channel=12, data=[36, 0]),
   midi.NoteOnEvent(tick=20, channel=12, data=[36, 45]),
   midi.NoteOnEvent(tick=100, channel=12, data=[36, 0]),
   midi.NoteOnEvent(tick=380, channel=12, data=[36, 45]),
   midi.NoteOnEvent(tick=100, channel=12, data=[36, 0]),
   midi.NoteOnEvent(tick=140, channel=12, data=[36, 45]),
   midi.NoteOnEvent(tick=100, channel=12, data=[36, 0]),
   midi.NoteOnEvent(tick=20, channel=12, data=[36, 45]),
   midi.NoteOnEvent(tick=100, channel=12, data=[36, 0]),
   midi.NoteOnEvent(tick=20, channel=12, data=[36, 45]),
   midi.NoteOnEvent(tick=100, channel=12, data=[36, 0]),
   midi.NoteOnEvent(tick=380, channel=12, data=[36, 45]),
   midi.NoteOnEvent(tick=100, channel=12, data=[36, 0]),
   midi.NoteOnEvent(tick=140, channel=12, data=[36, 45]),
   midi.NoteOnEvent(tick=100, channel=12, data=[36, 0]),
   midi.NoteOnEvent(tick=20, channel=12, data=[36, 45]),
   midi.NoteOnEvent(tick=100, channel=12, data=[36, 0]),
   midi.NoteOnEvent(tick=20, channel=12, data=[36, 45]),
   midi.NoteOnEvent(tick=100, channel=12, data=[36, 0]),
   midi.NoteOnEvent(tick=140, channel=12, data=[36, 45]),
   midi.NoteOnEvent(tick=100, channel=12, data=[36, 0]),
   midi.NoteOnEvent(tick=20, channel=12, data=[36, 45]),
   midi.NoteOnEvent(tick=100, channel=12, data=[36, 0]),
   midi.NoteOnEvent(tick=20, channel=12, data=[36, 45]),
   midi.NoteOnEvent(tick=100, channel=12, data=[36, 0]),
   midi.NoteOnEvent(tick=20, channel=12, data=[36, 45]),
   midi.NoteOnEvent(tick=100, channel=12, data=[36, 0]),
   midi.NoteOnEvent(tick=20, channel=12, data=[36, 45]),
   midi.NoteOnEvent(tick=100, channel=12, data=[36, 0]),
   midi.NoteOnEvent(tick=20, channel=12, data=[36, 45]),
   midi.NoteOnEvent(tick=100, channel=12, data=[36, 0]),
   midi.NoteOnEvent(tick=20, channel=12, data=[48, 92]),
   midi.NoteOnEvent(tick=100, channel=12, data=[48, 0]),
   midi.NoteOnEvent(tick=20, channel=12, data=[48, 92]),
   midi.NoteOnEvent(tick=210, channel=12, data=[48, 0]),
   midi.NoteOnEvent(tick=30, channel=12, data=[48, 92]),
   midi.NoteOnEvent(tick=100, channel=12, data=[48, 0]),
   midi.NoteOnEvent(tick=20, channel=12, data=[48, 92]),
   midi.NoteOnEvent(tick=100, channel=12, data=[48, 0]),
   midi.NoteOnEvent(tick=20, channel=12, data=[48, 92]),
   midi.NoteOnEvent(tick=100, channel=12, data=[48, 0]),
   midi.NoteOnEvent(tick=20, channel=12, data=[48, 92]),
   midi.NoteOnEvent(tick=100, channel=12, data=[48, 0]),
   midi.NoteOnEvent(tick=20, channel=12, data=[48, 92]),
   midi.NoteOnEvent(tick=100, channel=12, data=[48, 0]),
   midi.NoteOnEvent(tick=20, channel=12, data=[48, 92]),
   midi.NoteOnEvent(tick=100, channel=12, data=[48, 0]),
   midi.NoteOnEvent(tick=20, channel=12, data=[48, 92]),
   midi.NoteOnEvent(tick=210, channel=12, data=[48, 0]),
   midi.NoteOnEvent(tick=30, channel=12, data=[48, 92]),
   midi.NoteOnEvent(tick=100, channel=12, data=[48, 0]),
   midi.NoteOnEvent(tick=20, channel=12, data=[48, 92]),
   midi.NoteOnEvent(tick=100, channel=12, data=[48, 0]),
   midi.NoteOnEvent(tick=20, channel=12, data=[48, 92]),
   midi.NoteOnEvent(tick=100, channel=12, data=[48, 0]),
   midi.NoteOnEvent(tick=20, channel=12, data=[48, 92]),
   midi.NoteOnEvent(tick=100, channel=12, data=[48, 0]),
   midi.NoteOnEvent(tick=20, channel=12, data=[48, 92]),
   midi.NoteOnEvent(tick=100, channel=12, data=[48, 0]),
   midi.NoteOnEvent(tick=20, channel=12, data=[48, 92]),
   midi.NoteOnEvent(tick=100, channel=12, data=[48, 0]),
   midi.NoteOnEvent(tick=380, channel=12, data=[36, 60]),
   midi.NoteOnEvent(tick=100, channel=12, data=[36, 0]),
   midi.NoteOnEvent(tick=380, channel=12, data=[36, 60]),
   midi.NoteOnEvent(tick=100, channel=12, data=[36, 0]),
   midi.NoteOnEvent(tick=380, channel=12, data=[36, 60]),
   midi.NoteOnEvent(tick=100, channel=12, data=[36, 0]),
   midi.NoteOnEvent(tick=380, channel=12, data=[36, 60]),
   midi.NoteOnEvent(tick=100, channel=12, data=[36, 0]),
   midi.NoteOnEvent(tick=380, channel=12, data=[36, 60]),
   midi.NoteOnEvent(tick=100, channel=12, data=[36, 0]),
   midi.NoteOnEvent(tick=380, channel=12, data=[31, 60]),
   midi.NoteOnEvent(tick=930, channel=12, data=[31, 0]),
   midi.NoteOnEvent(tick=30, channel=12, data=[36, 60]),
   midi.NoteOnEvent(tick=100, channel=12, data=[36, 0]),
   midi.NoteOnEvent(tick=380, channel=12, data=[36, 60]),
   midi.NoteOnEvent(tick=100, channel=12, data=[36, 0]),
   midi.NoteOnEvent(tick=380, channel=12, data=[36, 60]),
   midi.NoteOnEvent(tick=100, channel=12, data=[36, 0]),
   midi.NoteOnEvent(tick=380, channel=12, data=[36, 60]),
   midi.NoteOnEvent(tick=100, channel=12, data=[36, 0]),
   midi.NoteOnEvent(tick=380, channel=12, data=[36, 60]),
   midi.NoteOnEvent(tick=100, channel=12, data=[36, 0]),
   midi.NoteOnEvent(tick=380, channel=12, data=[36, 60]),
   midi.NoteOnEvent(tick=100, channel=12, data=[36, 0]),
   midi.NoteOnEvent(tick=380, channel=12, data=[31, 60]),
   midi.NoteOnEvent(tick=930, channel=12, data=[31, 0]),
   midi.NoteOnEvent(tick=30, channel=12, data=[36, 60]),
   midi.NoteOnEvent(tick=100, channel=12, data=[36, 0]),
   midi.NoteOnEvent(tick=380, channel=12, data=[36, 60]),
   midi.NoteOnEvent(tick=100, channel=12, data=[36, 0]),
   midi.NoteOnEvent(tick=140, channel=12, data=[36, 60]),
   midi.NoteOnEvent(tick=100, channel=12, data=[36, 0]),
   midi.NoteOnEvent(tick=20, channel=12, data=[36, 60]),
   midi.NoteOnEvent(tick=100, channel=12, data=[36, 0]),
   midi.NoteOnEvent(tick=20, channel=12, data=[38, 60]),
   midi.NoteOnEvent(tick=100, channel=12, data=[38, 0]),
   midi.NoteOnEvent(tick=380, channel=12, data=[38, 60]),
   midi.NoteOnEvent(tick=100, channel=12, data=[38, 0]),
   midi.NoteOnEvent(tick=140, channel=12, data=[38, 60]),
   midi.NoteOnEvent(tick=100, channel=12, data=[38, 0]),
   midi.NoteOnEvent(tick=20, channel=12, data=[38, 60]),
   midi.NoteOnEvent(tick=100, channel=12, data=[38, 0]),
   midi.NoteOnEvent(tick=20, channel=12, data=[40, 60]),
   midi.NoteOnEvent(tick=100, channel=12, data=[40, 0]),
   midi.NoteOnEvent(tick=380, channel=12, data=[40, 60]),
   midi.NoteOnEvent(tick=100, channel=12, data=[40, 0]),
   midi.NoteOnEvent(tick=140, channel=12, data=[40, 60]),
   midi.NoteOnEvent(tick=100, channel=12, data=[40, 0]),
   midi.NoteOnEvent(tick=20, channel=12, data=[40, 60]),
   midi.NoteOnEvent(tick=100, channel=12, data=[40, 0]),
   midi.NoteOnEvent(tick=20, channel=12, data=[33, 60]),
   midi.NoteOnEvent(tick=100, channel=12, data=[33, 0]),
   midi.NoteOnEvent(tick=380, channel=12, data=[33, 60]),
   midi.NoteOnEvent(tick=100, channel=12, data=[33, 0]),
   midi.NoteOnEvent(tick=140, channel=12, data=[33, 60]),
   midi.NoteOnEvent(tick=100, channel=12, data=[33, 0]),
   midi.NoteOnEvent(tick=20, channel=12, data=[33, 60]),
   midi.NoteOnEvent(tick=100, channel=12, data=[33, 0]),
   midi.NoteOnEvent(tick=20, channel=12, data=[38, 92]),
   midi.NoteOnEvent(tick=100, channel=12, data=[38, 0]),
   midi.NoteOnEvent(tick=20, channel=12, data=[50, 92]),
   midi.NoteOnEvent(tick=210, channel=12, data=[50, 0]),
   midi.NoteOnEvent(tick=30, channel=12, data=[50, 92]),
   midi.NoteOnEvent(tick=100, channel=12, data=[50, 0]),
   midi.NoteOnEvent(tick=20, channel=12, data=[50, 92]),
   midi.NoteOnEvent(tick=100, channel=12, data=[50, 0]),
   midi.NoteOnEvent(tick=20, channel=12, data=[50, 92]),
   midi.NoteOnEvent(tick=100, channel=12, data=[50, 0]),
   midi.NoteOnEvent(tick=20, channel=12, data=[50, 92]),
   midi.NoteOnEvent(tick=100, channel=12, data=[50, 0]),
   midi.NoteOnEvent(tick=20, channel=12, data=[50, 92]),
   midi.NoteOnEvent(tick=100, channel=12, data=[50, 0]),
   midi.NoteOnEvent(tick=20, channel=12, data=[50, 92]),
   midi.NoteOnEvent(tick=100, channel=12, data=[50, 0]),
   midi.NoteOnEvent(tick=20, channel=12, data=[50, 92]),
   midi.NoteOnEvent(tick=210, channel=12, data=[50, 0]),
   midi.NoteOnEvent(tick=30, channel=12, data=[50, 92]),
   midi.NoteOnEvent(tick=100, channel=12, data=[50, 0]),
   midi.NoteOnEvent(tick=20, channel=12, data=[50, 92]),
   midi.NoteOnEvent(tick=100, channel=12, data=[50, 0]),
   midi.NoteOnEvent(tick=20, channel=12, data=[50, 92]),
   midi.NoteOnEvent(tick=100, channel=12, data=[50, 0]),
   midi.NoteOnEvent(tick=20, channel=12, data=[50, 92]),
   midi.NoteOnEvent(tick=100, channel=12, data=[50, 0]),
   midi.NoteOnEvent(tick=20, channel=12, data=[50, 92]),
   midi.NoteOnEvent(tick=100, channel=12, data=[50, 0]),
   midi.NoteOnEvent(tick=20, channel=12, data=[50, 92]),
   midi.NoteOnEvent(tick=100, channel=12, data=[50, 0]),
   midi.NoteOnEvent(tick=3860, channel=12, data=[55, 92]),
   midi.NoteOnEvent(tick=210, channel=12, data=[55, 0]),
   midi.NoteOnEvent(tick=30, channel=12, data=[54, 92]),
   midi.NoteOnEvent(tick=100, channel=12, data=[54, 0]),
   midi.NoteOnEvent(tick=20, channel=12, data=[55, 92]),
   midi.NoteOnEvent(tick=30, channel=12, data=[55, 0]),
   midi.NoteOnEvent(tick=90, channel=12, data=[54, 92]),
   midi.NoteOnEvent(tick=30, channel=12, data=[54, 0]),
   midi.NoteOnEvent(tick=90, channel=12, data=[55, 92]),
   midi.NoteOnEvent(tick=30, channel=12, data=[55, 0]),
   midi.NoteOnEvent(tick=90, channel=12, data=[51, 92]),
   midi.NoteOnEvent(tick=30, channel=12, data=[51, 0]),
   midi.NoteOnEvent(tick=90, channel=12, data=[52, 92]),
   midi.NoteOnEvent(tick=100, channel=12, data=[52, 0]),
   midi.NoteOnEvent(tick=20, channel=12, data=[52, 92]),
   midi.NoteOnEvent(tick=210, channel=12, data=[52, 0]),
   midi.NoteOnEvent(tick=30, channel=12, data=[51, 92]),
   midi.NoteOnEvent(tick=100, channel=12, data=[51, 0]),
   midi.NoteOnEvent(tick=20, channel=12, data=[52, 92]),
   midi.NoteOnEvent(tick=100, channel=12, data=[52, 0]),
   midi.NoteOnEvent(tick=20, channel=12, data=[51, 92]),
   midi.NoteOnEvent(tick=100, channel=12, data=[51, 0]),
   midi.NoteOnEvent(tick=20, channel=12, data=[52, 92]),
   midi.NoteOnEvent(tick=100, channel=12, data=[52, 0]),
   midi.NoteOnEvent(tick=20, channel=12, data=[47, 92]),
   midi.NoteOnEvent(tick=100, channel=12, data=[47, 0]),
   midi.NoteOnEvent(tick=20, channel=12, data=[48, 92]),
   midi.NoteOnEvent(tick=100, channel=12, data=[48, 0]),
   midi.NoteOnEvent(tick=20, channel=12, data=[48, 92]),
   midi.NoteOnEvent(tick=210, channel=12, data=[48, 0]),
   midi.NoteOnEvent(tick=30, channel=12, data=[47, 92]),
   midi.NoteOnEvent(tick=100, channel=12, data=[47, 0]),
   midi.NoteOnEvent(tick=20, channel=12, data=[48, 92]),
   midi.NoteOnEvent(tick=100, channel=12, data=[48, 0]),
   midi.NoteOnEvent(tick=20, channel=12, data=[47, 92]),
   midi.NoteOnEvent(tick=100, channel=12, data=[47, 0]),
   midi.NoteOnEvent(tick=20, channel=12, data=[48, 92]),
   midi.NoteOnEvent(tick=100, channel=12, data=[48, 0]),
   midi.NoteOnEvent(tick=20, channel=12, data=[50, 92]),
   midi.NoteOnEvent(tick=100, channel=12, data=[50, 0]),
   midi.NoteOnEvent(tick=20, channel=12, data=[48, 92]),
   midi.NoteOnEvent(tick=100, channel=12, data=[48, 0]),
   midi.NoteOnEvent(tick=20, channel=12, data=[44, 92]),
   midi.NoteOnEvent(tick=100, channel=12, data=[44, 0]),
   midi.NoteOnEvent(tick=20, channel=12, data=[45, 92]),
   midi.NoteOnEvent(tick=100, channel=12, data=[45, 0]),
   midi.NoteOnEvent(tick=20, channel=12, data=[43, 92]),
   midi.NoteOnEvent(tick=100, channel=12, data=[43, 0]),
   midi.NoteOnEvent(tick=20, channel=12, data=[42, 92]),
   midi.NoteOnEvent(tick=100, channel=12, data=[42, 0]),
   midi.NoteOnEvent(tick=20, channel=12, data=[38, 92]),
   midi.NoteOnEvent(tick=100, channel=12, data=[38, 0]),
   midi.NoteOnEvent(tick=20, channel=12, data=[40, 92]),
   midi.NoteOnEvent(tick=100, channel=12, data=[40, 0]),
   midi.NoteOnEvent(tick=20, channel=12, data=[42, 92]),
   midi.NoteOnEvent(tick=100, channel=12, data=[42, 0]),
   midi.NoteOnEvent(tick=20, channel=12, data=[43, 92]),
   midi.NoteOnEvent(tick=30, channel=12, data=[43, 0]),
   midi.NoteOnEvent(tick=90, channel=12, data=[47, 92]),
   midi.NoteOnEvent(tick=30, channel=12, data=[47, 0]),
   midi.NoteOnEvent(tick=90, channel=12, data=[50, 92]),
   midi.NoteOnEvent(tick=210, channel=12, data=[50, 0]),
   midi.NoteOnEvent(tick=30, channel=12, data=[40, 92]),
   midi.NoteOnEvent(tick=30, channel=12, data=[40, 0]),
   midi.NoteOnEvent(tick=90, channel=12, data=[43, 92]),
   midi.NoteOnEvent(tick=30, channel=12, data=[43, 0]),
   midi.NoteOnEvent(tick=90, channel=12, data=[47, 92]),
   midi.NoteOnEvent(tick=210, channel=12, data=[47, 0]),
   midi.NoteOnEvent(tick=30, channel=12, data=[36, 92]),
   midi.NoteOnEvent(tick=30, channel=12, data=[36, 0]),
   midi.NoteOnEvent(tick=90, channel=12, data=[40, 92]),
   midi.NoteOnEvent(tick=30, channel=12, data=[40, 0]),
   midi.NoteOnEvent(tick=90, channel=12, data=[38, 92]),
   midi.NoteOnEvent(tick=30, channel=12, data=[38, 0]),
   midi.NoteOnEvent(tick=90, channel=12, data=[42, 92]),
   midi.NoteOnEvent(tick=30, channel=12, data=[42, 0]),
   midi.NoteOnEvent(tick=90, channel=12, data=[43, 92]),
   midi.NoteOnEvent(tick=30, channel=12, data=[43, 0]),
   midi.NoteOnEvent(tick=90, channel=12, data=[47, 92]),
   midi.NoteOnEvent(tick=30, channel=12, data=[47, 0]),
   midi.NoteOnEvent(tick=90, channel=12, data=[50, 92]),
   midi.NoteOnEvent(tick=210, channel=12, data=[50, 0]),
   midi.NoteOnEvent(tick=30, channel=12, data=[40, 92]),
   midi.NoteOnEvent(tick=30, channel=12, data=[40, 0]),
   midi.NoteOnEvent(tick=90, channel=12, data=[43, 92]),
   midi.NoteOnEvent(tick=30, channel=12, data=[43, 0]),
   midi.NoteOnEvent(tick=90, channel=12, data=[47, 92]),
   midi.NoteOnEvent(tick=210, channel=12, data=[47, 0]),
   midi.NoteOnEvent(tick=30, channel=12, data=[36, 92]),
   midi.NoteOnEvent(tick=100, channel=12, data=[36, 0]),
   midi.NoteOnEvent(tick=20, channel=12, data=[40, 92]),
   midi.NoteOnEvent(tick=100, channel=12, data=[40, 0]),
   midi.NoteOnEvent(tick=20, channel=12, data=[38, 92]),
   midi.NoteOnEvent(tick=100, channel=12, data=[38, 0]),
   midi.NoteOnEvent(tick=20, channel=12, data=[38, 92]),
   midi.NoteOnEvent(tick=100, channel=12, data=[38, 0]),
   midi.NoteOnEvent(tick=20, channel=12, data=[43, 92]),
   midi.NoteOnEvent(tick=100, channel=12, data=[43, 0]),
   midi.NoteOnEvent(tick=380, channel=12, data=[43, 60]),
   midi.NoteOnEvent(tick=100, channel=12, data=[43, 0]),
   midi.NoteOnEvent(tick=380, channel=12, data=[43, 60]),
   midi.NoteOnEvent(tick=100, channel=12, data=[43, 0]),
   midi.NoteOnEvent(tick=380, channel=12, data=[43, 60]),
   midi.NoteOnEvent(tick=100, channel=12, data=[43, 0]),
   midi.NoteOnEvent(tick=380, channel=12, data=[43, 60]),
   midi.NoteOnEvent(tick=100, channel=12, data=[43, 0]),
   midi.NoteOnEvent(tick=380, channel=12, data=[43, 60]),
   midi.NoteOnEvent(tick=100, channel=12, data=[43, 0]),
   midi.NoteOnEvent(tick=380, channel=12, data=[38, 60]),
   midi.NoteOnEvent(tick=930, channel=12, data=[38, 0]),
   midi.NoteOnEvent(tick=30, channel=12, data=[43, 60]),
   midi.NoteOnEvent(tick=100, channel=12, data=[43, 0]),
   midi.NoteOnEvent(tick=380, channel=12, data=[43, 60]),
   midi.NoteOnEvent(tick=100, channel=12, data=[43, 0]),
   midi.NoteOnEvent(tick=380, channel=12, data=[43, 60]),
   midi.NoteOnEvent(tick=100, channel=12, data=[43, 0]),
   midi.NoteOnEvent(tick=380, channel=12, data=[43, 60]),
   midi.NoteOnEvent(tick=100, channel=12, data=[43, 0]),
   midi.NoteOnEvent(tick=380, channel=12, data=[43, 60]),
   midi.NoteOnEvent(tick=100, channel=12, data=[43, 0]),
   midi.NoteOnEvent(tick=380, channel=12, data=[43, 60]),
   midi.NoteOnEvent(tick=100, channel=12, data=[43, 0]),
   midi.NoteOnEvent(tick=380, channel=12, data=[38, 60]),
   midi.NoteOnEvent(tick=930, channel=12, data=[38, 0]),
   midi.NoteOnEvent(tick=30, channel=12, data=[43, 60]),
   midi.NoteOnEvent(tick=100, channel=12, data=[43, 0]),
   midi.NoteOnEvent(tick=380, channel=12, data=[43, 60]),
   midi.NoteOnEvent(tick=100, channel=12, data=[43, 0]),
   midi.NoteOnEvent(tick=140, channel=12, data=[43, 60]),
   midi.NoteOnEvent(tick=100, channel=12, data=[43, 0]),
   midi.NoteOnEvent(tick=20, channel=12, data=[43, 60]),
   midi.NoteOnEvent(tick=100, channel=12, data=[43, 0]),
   midi.NoteOnEvent(tick=20, channel=12, data=[43, 60]),
   midi.NoteOnEvent(tick=100, channel=12, data=[43, 0]),
   midi.NoteOnEvent(tick=380, channel=12, data=[43, 60]),
   midi.NoteOnEvent(tick=100, channel=12, data=[43, 0]),
   midi.NoteOnEvent(tick=140, channel=12, data=[43, 60]),
   midi.NoteOnEvent(tick=100, channel=12, data=[43, 0]),
   midi.NoteOnEvent(tick=20, channel=12, data=[43, 60]),
   midi.NoteOnEvent(tick=100, channel=12, data=[43, 0]),
   midi.NoteOnEvent(tick=20, channel=12, data=[43, 60]),
   midi.NoteOnEvent(tick=100, channel=12, data=[43, 0]),
   midi.NoteOnEvent(tick=380, channel=12, data=[43, 60]),
   midi.NoteOnEvent(tick=100, channel=12, data=[43, 0]),
   midi.NoteOnEvent(tick=140, channel=12, data=[43, 60]),
   midi.NoteOnEvent(tick=100, channel=12, data=[43, 0]),
   midi.NoteOnEvent(tick=20, channel=12, data=[43, 60]),
   midi.NoteOnEvent(tick=100, channel=12, data=[43, 0]),
   midi.NoteOnEvent(tick=20, channel=12, data=[52, 92]),
   midi.NoteOnEvent(tick=100, channel=12, data=[52, 0]),
   midi.NoteOnEvent(tick=20, channel=12, data=[52, 92]),
   midi.NoteOnEvent(tick=210, channel=12, data=[52, 0]),
   midi.NoteOnEvent(tick=30, channel=12, data=[52, 92]),
   midi.NoteOnEvent(tick=100, channel=12, data=[52, 0]),
   midi.NoteOnEvent(tick=20, channel=12, data=[52, 92]),
   midi.NoteOnEvent(tick=100, channel=12, data=[52, 0]),
   midi.NoteOnEvent(tick=20, channel=12, data=[52, 92]),
   midi.NoteOnEvent(tick=100, channel=12, data=[52, 0]),
   midi.NoteOnEvent(tick=20, channel=12, data=[52, 92]),
   midi.NoteOnEvent(tick=100, channel=12, data=[52, 0]),
   midi.NoteOnEvent(tick=20, channel=12, data=[52, 92]),
   midi.NoteOnEvent(tick=100, channel=12, data=[52, 0]),
   midi.NoteOnEvent(tick=20, channel=12, data=[52, 92]),
   midi.NoteOnEvent(tick=100, channel=12, data=[52, 0]),
   midi.NoteOnEvent(tick=20, channel=12, data=[52, 92]),
   midi.NoteOnEvent(tick=210, channel=12, data=[52, 0]),
   midi.NoteOnEvent(tick=30, channel=12, data=[52, 92]),
   midi.NoteOnEvent(tick=100, channel=12, data=[52, 0]),
   midi.NoteOnEvent(tick=20, channel=12, data=[52, 92]),
   midi.NoteOnEvent(tick=100, channel=12, data=[52, 0]),
   midi.NoteOnEvent(tick=20, channel=12, data=[52, 92]),
   midi.NoteOnEvent(tick=100, channel=12, data=[52, 0]),
   midi.NoteOnEvent(tick=20, channel=12, data=[52, 92]),
   midi.NoteOnEvent(tick=100, channel=12, data=[52, 0]),
   midi.NoteOnEvent(tick=20, channel=12, data=[52, 92]),
   midi.NoteOnEvent(tick=100, channel=12, data=[52, 0]),
   midi.NoteOnEvent(tick=20, channel=12, data=[52, 92]),
   midi.NoteOnEvent(tick=100, channel=12, data=[52, 0]),
   midi.NoteOnEvent(tick=3740, channel=12, data=[45, 92]),
   midi.NoteOnEvent(tick=100, channel=12, data=[45, 0]),
   midi.NoteOnEvent(tick=20, channel=12, data=[45, 92]),
   midi.NoteOnEvent(tick=210, channel=12, data=[45, 0]),
   midi.NoteOnEvent(tick=30, channel=12, data=[45, 92]),
   midi.NoteOnEvent(tick=100, channel=12, data=[45, 0]),
   midi.NoteOnEvent(tick=20, channel=12, data=[45, 92]),
   midi.NoteOnEvent(tick=100, channel=12, data=[45, 0]),
   midi.NoteOnEvent(tick=20, channel=12, data=[45, 92]),
   midi.NoteOnEvent(tick=100, channel=12, data=[45, 0]),
   midi.NoteOnEvent(tick=20, channel=12, data=[45, 92]),
   midi.NoteOnEvent(tick=100, channel=12, data=[45, 0]),
   midi.NoteOnEvent(tick=20, channel=12, data=[45, 92]),
   midi.NoteOnEvent(tick=100, channel=12, data=[45, 0]),
   midi.NoteOnEvent(tick=20, channel=12, data=[45, 92]),
   midi.NoteOnEvent(tick=100, channel=12, data=[45, 0]),
   midi.NoteOnEvent(tick=380, channel=12, data=[45, 60]),
   midi.NoteOnEvent(tick=100, channel=12, data=[45, 0]),
   midi.NoteOnEvent(tick=140, channel=12, data=[45, 60]),
   midi.NoteOnEvent(tick=100, channel=12, data=[45, 0]),
   midi.NoteOnEvent(tick=20, channel=12, data=[45, 60]),
   midi.NoteOnEvent(tick=100, channel=12, data=[45, 0]),
   midi.NoteOnEvent(tick=20, channel=12, data=[45, 60]),
   midi.NoteOnEvent(tick=100, channel=12, data=[45, 0]),
   midi.NoteOnEvent(tick=380, channel=12, data=[45, 60]),
   midi.NoteOnEvent(tick=100, channel=12, data=[45, 0]),
   midi.NoteOnEvent(tick=140, channel=12, data=[45, 60]),
   midi.NoteOnEvent(tick=100, channel=12, data=[45, 0]),
   midi.NoteOnEvent(tick=20, channel=12, data=[45, 60]),
   midi.NoteOnEvent(tick=100, channel=12, data=[45, 0]),
   midi.NoteOnEvent(tick=20, channel=12, data=[45, 60]),
   midi.NoteOnEvent(tick=100, channel=12, data=[45, 0]),
   midi.NoteOnEvent(tick=380, channel=12, data=[45, 60]),
   midi.NoteOnEvent(tick=100, channel=12, data=[45, 0]),
   midi.NoteOnEvent(tick=140, channel=12, data=[45, 60]),
   midi.NoteOnEvent(tick=100, channel=12, data=[45, 0]),
   midi.NoteOnEvent(tick=20, channel=12, data=[45, 60]),
   midi.NoteOnEvent(tick=100, channel=12, data=[45, 0]),
   midi.NoteOnEvent(tick=20, channel=12, data=[50, 92]),
   midi.NoteOnEvent(tick=100, channel=12, data=[50, 0]),
   midi.NoteOnEvent(tick=20, channel=12, data=[50, 92]),
   midi.NoteOnEvent(tick=210, channel=12, data=[50, 0]),
   midi.NoteOnEvent(tick=30, channel=12, data=[50, 92]),
   midi.NoteOnEvent(tick=100, channel=12, data=[50, 0]),
   midi.NoteOnEvent(tick=20, channel=12, data=[50, 92]),
   midi.NoteOnEvent(tick=100, channel=12, data=[50, 0]),
   midi.NoteOnEvent(tick=20, channel=12, data=[50, 92]),
   midi.NoteOnEvent(tick=100, channel=12, data=[50, 0]),
   midi.NoteOnEvent(tick=20, channel=12, data=[50, 92]),
   midi.NoteOnEvent(tick=100, channel=12, data=[50, 0]),
   midi.NoteOnEvent(tick=20, channel=12, data=[50, 92]),
   midi.NoteOnEvent(tick=100, channel=12, data=[50, 0]),
   midi.NoteOnEvent(tick=20, channel=12, data=[50, 92]),
   midi.NoteOnEvent(tick=100, channel=12, data=[50, 0]),
   midi.NoteOnEvent(tick=3740, channel=12, data=[43, 92]),
   midi.NoteOnEvent(tick=100, channel=12, data=[43, 0]),
   midi.NoteOnEvent(tick=20, channel=12, data=[43, 92]),
   midi.NoteOnEvent(tick=210, channel=12, data=[43, 0]),
   midi.NoteOnEvent(tick=30, channel=12, data=[43, 92]),
   midi.NoteOnEvent(tick=100, channel=12, data=[43, 0]),
   midi.NoteOnEvent(tick=20, channel=12, data=[43, 92]),
   midi.NoteOnEvent(tick=100, channel=12, data=[43, 0]),
   midi.NoteOnEvent(tick=20, channel=12, data=[43, 92]),
   midi.NoteOnEvent(tick=100, channel=12, data=[43, 0]),
   midi.NoteOnEvent(tick=20, channel=12, data=[43, 92]),
   midi.NoteOnEvent(tick=100, channel=12, data=[43, 0]),
   midi.NoteOnEvent(tick=20, channel=12, data=[43, 92]),
   midi.NoteOnEvent(tick=100, channel=12, data=[43, 0]),
   midi.NoteOnEvent(tick=20, channel=12, data=[43, 92]),
   midi.NoteOnEvent(tick=100, channel=12, data=[43, 0]),
   midi.NoteOnEvent(tick=380, channel=12, data=[43, 60]),
   midi.NoteOnEvent(tick=100, channel=12, data=[43, 0]),
   midi.NoteOnEvent(tick=140, channel=12, data=[43, 60]),
   midi.NoteOnEvent(tick=100, channel=12, data=[43, 0]),
   midi.NoteOnEvent(tick=20, channel=12, data=[43, 60]),
   midi.NoteOnEvent(tick=100, channel=12, data=[43, 0]),
   midi.NoteOnEvent(tick=20, channel=12, data=[43, 60]),
   midi.NoteOnEvent(tick=100, channel=12, data=[43, 0]),
   midi.NoteOnEvent(tick=380, channel=12, data=[43, 60]),
   midi.NoteOnEvent(tick=100, channel=12, data=[43, 0]),
   midi.NoteOnEvent(tick=140, channel=12, data=[43, 60]),
   midi.NoteOnEvent(tick=100, channel=12, data=[43, 0]),
   midi.NoteOnEvent(tick=20, channel=12, data=[43, 60]),
   midi.NoteOnEvent(tick=100, channel=12, data=[43, 0]),
   midi.NoteOnEvent(tick=20, channel=12, data=[43, 60]),
   midi.NoteOnEvent(tick=100, channel=12, data=[43, 0]),
   midi.NoteOnEvent(tick=380, channel=12, data=[43, 60]),
   midi.NoteOnEvent(tick=100, channel=12, data=[43, 0]),
   midi.NoteOnEvent(tick=140, channel=12, data=[43, 60]),
   midi.NoteOnEvent(tick=100, channel=12, data=[43, 0]),
   midi.NoteOnEvent(tick=20, channel=12, data=[43, 60]),
   midi.NoteOnEvent(tick=100, channel=12, data=[43, 0]),
   midi.NoteOnEvent(tick=20, channel=12, data=[48, 92]),
   midi.NoteOnEvent(tick=100, channel=12, data=[48, 0]),
   midi.NoteOnEvent(tick=20, channel=12, data=[48, 92]),
   midi.NoteOnEvent(tick=210, channel=12, data=[48, 0]),
   midi.NoteOnEvent(tick=30, channel=12, data=[48, 92]),
   midi.NoteOnEvent(tick=100, channel=12, data=[48, 0]),
   midi.NoteOnEvent(tick=20, channel=12, data=[48, 92]),
   midi.NoteOnEvent(tick=100, channel=12, data=[48, 0]),
   midi.NoteOnEvent(tick=20, channel=12, data=[48, 92]),
   midi.NoteOnEvent(tick=100, channel=12, data=[48, 0]),
   midi.NoteOnEvent(tick=20, channel=12, data=[48, 92]),
   midi.NoteOnEvent(tick=100, channel=12, data=[48, 0]),
   midi.NoteOnEvent(tick=20, channel=12, data=[48, 92]),
   midi.NoteOnEvent(tick=100, channel=12, data=[48, 0]),
   midi.NoteOnEvent(tick=20, channel=12, data=[48, 92]),
   midi.NoteOnEvent(tick=100, channel=12, data=[48, 0]),
   midi.NoteOnEvent(tick=3740, channel=12, data=[41, 60]),
   midi.NoteOnEvent(tick=100, channel=12, data=[41, 0]),
   midi.NoteOnEvent(tick=380, channel=12, data=[41, 60]),
   midi.NoteOnEvent(tick=100, channel=12, data=[41, 0]),
   midi.NoteOnEvent(tick=380, channel=12, data=[41, 60]),
   midi.NoteOnEvent(tick=100, channel=12, data=[41, 0]),
   midi.NoteOnEvent(tick=380, channel=12, data=[41, 60]),
   midi.NoteOnEvent(tick=100, channel=12, data=[41, 0]),
   midi.NoteOnEvent(tick=380, channel=12, data=[41, 60]),
   midi.NoteOnEvent(tick=100, channel=12, data=[41, 0]),
   midi.NoteOnEvent(tick=380, channel=12, data=[41, 60]),
   midi.NoteOnEvent(tick=100, channel=12, data=[41, 0]),
   midi.NoteOnEvent(tick=380, channel=12, data=[36, 60]),
   midi.NoteOnEvent(tick=930, channel=12, data=[36, 0]),
   midi.NoteOnEvent(tick=30, channel=12, data=[41, 60]),
   midi.NoteOnEvent(tick=100, channel=12, data=[41, 0]),
   midi.NoteOnEvent(tick=380, channel=12, data=[41, 60]),
   midi.NoteOnEvent(tick=100, channel=12, data=[41, 0]),
   midi.NoteOnEvent(tick=380, channel=12, data=[41, 60]),
   midi.NoteOnEvent(tick=100, channel=12, data=[41, 0]),
   midi.NoteOnEvent(tick=380, channel=12, data=[41, 60]),
   midi.NoteOnEvent(tick=100, channel=12, data=[41, 0]),
   midi.NoteOnEvent(tick=380, channel=12, data=[41, 60]),
   midi.NoteOnEvent(tick=100, channel=12, data=[41, 0]),
   midi.NoteOnEvent(tick=380, channel=12, data=[41, 60]),
   midi.NoteOnEvent(tick=100, channel=12, data=[41, 0]),
   midi.NoteOnEvent(tick=380, channel=12, data=[36, 60]),
   midi.NoteOnEvent(tick=930, channel=12, data=[36, 0]),
   midi.NoteOnEvent(tick=30, channel=12, data=[41, 60]),
   midi.NoteOnEvent(tick=100, channel=12, data=[41, 0]),
   midi.NoteOnEvent(tick=20, channel=12, data=[53, 92]),
   midi.NoteOnEvent(tick=210, channel=12, data=[53, 0]),
   midi.NoteOnEvent(tick=30, channel=12, data=[52, 92]),
   midi.NoteOnEvent(tick=100, channel=12, data=[52, 0]),
   midi.NoteOnEvent(tick=20, channel=12, data=[53, 92]),
   midi.NoteOnEvent(tick=100, channel=12, data=[53, 0]),
   midi.NoteOnEvent(tick=20, channel=12, data=[52, 92]),
   midi.NoteOnEvent(tick=100, channel=12, data=[52, 0]),
   midi.NoteOnEvent(tick=20, channel=12, data=[53, 92]),
   midi.NoteOnEvent(tick=100, channel=12, data=[53, 0]),
   midi.NoteOnEvent(tick=20, channel=12, data=[49, 92]),
   midi.NoteOnEvent(tick=100, channel=12, data=[49, 0]),
   midi.NoteOnEvent(tick=20, channel=12, data=[50, 92]),
   midi.NoteOnEvent(tick=100, channel=12, data=[50, 0]),
   midi.NoteOnEvent(tick=20, channel=12, data=[50, 92]),
   midi.NoteOnEvent(tick=210, channel=12, data=[50, 0]),
   midi.NoteOnEvent(tick=30, channel=12, data=[49, 92]),
   midi.NoteOnEvent(tick=100, channel=12, data=[49, 0]),
   midi.NoteOnEvent(tick=20, channel=12, data=[50, 92]),
   midi.NoteOnEvent(tick=100, channel=12, data=[50, 0]),
   midi.NoteOnEvent(tick=20, channel=12, data=[49, 92]),
   midi.NoteOnEvent(tick=100, channel=12, data=[49, 0]),
   midi.NoteOnEvent(tick=20, channel=12, data=[50, 92]),
   midi.NoteOnEvent(tick=100, channel=12, data=[50, 0]),
   midi.NoteOnEvent(tick=20, channel=12, data=[47, 92]),
   midi.NoteOnEvent(tick=100, channel=12, data=[47, 0]),
   midi.NoteOnEvent(tick=20, channel=12, data=[48, 92]),
   midi.NoteOnEvent(tick=100, channel=12, data=[48, 0]),
   midi.NoteOnEvent(tick=20, channel=12, data=[48, 92]),
   midi.NoteOnEvent(tick=210, channel=12, data=[48, 0]),
   midi.NoteOnEvent(tick=30, channel=12, data=[47, 92]),
   midi.NoteOnEvent(tick=100, channel=12, data=[47, 0]),
   midi.NoteOnEvent(tick=20, channel=12, data=[48, 92]),
   midi.NoteOnEvent(tick=30, channel=12, data=[48, 0]),
   midi.NoteOnEvent(tick=90, channel=12, data=[47, 92]),
   midi.NoteOnEvent(tick=30, channel=12, data=[47, 0]),
   midi.NoteOnEvent(tick=90, channel=12, data=[48, 92]),
   midi.NoteOnEvent(tick=30, channel=12, data=[48, 0]),
   midi.NoteOnEvent(tick=90, channel=12, data=[43, 92]),
   midi.NoteOnEvent(tick=30, channel=12, data=[43, 0]),
   midi.NoteOnEvent(tick=90, channel=12, data=[44, 92]),
   midi.NoteOnEvent(tick=30, channel=12, data=[44, 0]),
   midi.NoteOnEvent(tick=90, channel=12, data=[43, 92]),
   midi.NoteOnEvent(tick=30, channel=12, data=[43, 0]),
   midi.NoteOnEvent(tick=90, channel=12, data=[44, 92]),
   midi.NoteOnEvent(tick=30, channel=12, data=[44, 0]),
   midi.NoteOnEvent(tick=90, channel=12, data=[40, 92]),
   midi.NoteOnEvent(tick=30, channel=12, data=[40, 0]),
   midi.NoteOnEvent(tick=90, channel=12, data=[41, 92]),
   midi.NoteOnEvent(tick=30, channel=12, data=[41, 0]),
   midi.NoteOnEvent(tick=90, channel=12, data=[40, 92]),
   midi.NoteOnEvent(tick=30, channel=12, data=[40, 0]),
   midi.NoteOnEvent(tick=90, channel=12, data=[41, 92]),
   midi.NoteOnEvent(tick=30, channel=12, data=[41, 0]),
   midi.NoteOnEvent(tick=90, channel=12, data=[36, 92]),
   midi.NoteOnEvent(tick=30, channel=12, data=[36, 0]),
   midi.NoteOnEvent(tick=90, channel=12, data=[44, 92]),
   midi.NoteOnEvent(tick=30, channel=12, data=[44, 0]),
   midi.NoteOnEvent(tick=90, channel=12, data=[43, 92]),
   midi.NoteOnEvent(tick=30, channel=12, data=[43, 0]),
   midi.NoteOnEvent(tick=90, channel=12, data=[41, 92]),
   midi.NoteOnEvent(tick=30, channel=12, data=[41, 0]),
   midi.NoteOnEvent(tick=90, channel=12, data=[40, 92]),
   midi.NoteOnEvent(tick=30, channel=12, data=[40, 0]),
   midi.NoteOnEvent(tick=90, channel=12, data=[44, 92]),
   midi.NoteOnEvent(tick=30, channel=12, data=[44, 0]),
   midi.NoteOnEvent(tick=90, channel=12, data=[43, 92]),
   midi.NoteOnEvent(tick=30, channel=12, data=[43, 0]),
   midi.NoteOnEvent(tick=90, channel=12, data=[41, 92]),
   midi.NoteOnEvent(tick=30, channel=12, data=[41, 0]),
   midi.NoteOnEvent(tick=90, channel=12, data=[42, 92]),
   midi.NoteOnEvent(tick=30, channel=12, data=[42, 0]),
   midi.NoteOnEvent(tick=90, channel=12, data=[43, 92]),
   midi.NoteOnEvent(tick=100, channel=12, data=[43, 0]),
   midi.NoteOnEvent(tick=380, channel=12, data=[43, 60]),
   midi.NoteOnEvent(tick=100, channel=12, data=[43, 0]),
   midi.NoteOnEvent(tick=380, channel=12, data=[43, 60]),
   midi.NoteOnEvent(tick=100, channel=12, data=[43, 0]),
   midi.NoteOnEvent(tick=380, channel=12, data=[43, 60]),
   midi.NoteOnEvent(tick=100, channel=12, data=[43, 0]),
   midi.NoteOnEvent(tick=380, channel=12, data=[43, 60]),
   midi.NoteOnEvent(tick=100, channel=12, data=[43, 0]),
   midi.NoteOnEvent(tick=380, channel=12, data=[43, 60]),
   midi.NoteOnEvent(tick=100, channel=12, data=[43, 0]),
   midi.NoteOnEvent(tick=380, channel=12, data=[43, 60]),
   midi.NoteOnEvent(tick=100, channel=12, data=[43, 0]),
   midi.NoteOnEvent(tick=380, channel=12, data=[43, 60]),
   midi.NoteOnEvent(tick=100, channel=12, data=[43, 0]),
   midi.NoteOnEvent(tick=380, channel=12, data=[43, 60]),
   midi.NoteOnEvent(tick=100, channel=12, data=[43, 0]),
   midi.NoteOnEvent(tick=380, channel=12, data=[43, 60]),
   midi.NoteOnEvent(tick=100, channel=12, data=[43, 0]),
   midi.NoteOnEvent(tick=140, channel=12, data=[43, 60]),
   midi.NoteOnEvent(tick=100, channel=12, data=[43, 0]),
   midi.NoteOnEvent(tick=20, channel=12, data=[43, 60]),
   midi.NoteOnEvent(tick=100, channel=12, data=[43, 0]),
   midi.NoteOnEvent(tick=20, channel=12, data=[43, 60]),
   midi.NoteOnEvent(tick=100, channel=12, data=[43, 0]),
   midi.NoteOnEvent(tick=380, channel=12, data=[43, 60]),
   midi.NoteOnEvent(tick=100, channel=12, data=[43, 0]),
   midi.NoteOnEvent(tick=140, channel=12, data=[43, 60]),
   midi.NoteOnEvent(tick=100, channel=12, data=[43, 0]),
   midi.NoteOnEvent(tick=20, channel=12, data=[43, 60]),
   midi.NoteOnEvent(tick=100, channel=12, data=[43, 0]),
   midi.NoteOnEvent(tick=20, channel=12, data=[43, 60]),
   midi.NoteOnEvent(tick=100, channel=12, data=[43, 0]),
   midi.NoteOnEvent(tick=380, channel=12, data=[43, 60]),
   midi.NoteOnEvent(tick=100, channel=12, data=[43, 0]),
   midi.NoteOnEvent(tick=140, channel=12, data=[43, 60]),
   midi.NoteOnEvent(tick=100, channel=12, data=[43, 0]),
   midi.NoteOnEvent(tick=20, channel=12, data=[43, 60]),
   midi.NoteOnEvent(tick=100, channel=12, data=[43, 0]),
   midi.NoteOnEvent(tick=20, channel=12, data=[48, 60]),
   midi.NoteOnEvent(tick=100, channel=12, data=[48, 0]),
   midi.NoteOnEvent(tick=20, channel=12, data=[48, 92]),
   midi.NoteOnEvent(tick=210, channel=12, data=[48, 0]),
   midi.NoteOnEvent(tick=30, channel=12, data=[48, 92]),
   midi.NoteOnEvent(tick=100, channel=12, data=[48, 0]),
   midi.NoteOnEvent(tick=20, channel=12, data=[48, 92]),
   midi.NoteOnEvent(tick=100, channel=12, data=[48, 0]),
   midi.NoteOnEvent(tick=20, channel=12, data=[48, 92]),
   midi.NoteOnEvent(tick=100, channel=12, data=[48, 0]),
   midi.NoteOnEvent(tick=20, channel=12, data=[48, 92]),
   midi.NoteOnEvent(tick=100, channel=12, data=[48, 0]),
   midi.NoteOnEvent(tick=20, channel=12, data=[48, 92]),
   midi.NoteOnEvent(tick=100, channel=12, data=[48, 0]),
   midi.NoteOnEvent(tick=20, channel=12, data=[48, 92]),
   midi.NoteOnEvent(tick=100, channel=12, data=[48, 0]),
   midi.NoteOnEvent(tick=20, channel=12, data=[48, 92]),
   midi.NoteOnEvent(tick=210, channel=12, data=[48, 0]),
   midi.NoteOnEvent(tick=30, channel=12, data=[48, 92]),
   midi.NoteOnEvent(tick=100, channel=12, data=[48, 0]),
   midi.NoteOnEvent(tick=20, channel=12, data=[48, 92]),
   midi.NoteOnEvent(tick=100, channel=12, data=[48, 0]),
   midi.NoteOnEvent(tick=20, channel=12, data=[48, 92]),
   midi.NoteOnEvent(tick=100, channel=12, data=[48, 0]),
   midi.NoteOnEvent(tick=20, channel=12, data=[48, 92]),
   midi.NoteOnEvent(tick=100, channel=12, data=[48, 0]),
   midi.NoteOnEvent(tick=20, channel=12, data=[48, 92]),
   midi.NoteOnEvent(tick=100, channel=12, data=[48, 0]),
   midi.NoteOnEvent(tick=20, channel=12, data=[48, 92]),
   midi.NoteOnEvent(tick=100, channel=12, data=[48, 0]),
   midi.NoteOnEvent(tick=380, channel=12, data=[36, 60]),
   midi.NoteOnEvent(tick=100, channel=12, data=[36, 0]),
   midi.NoteOnEvent(tick=380, channel=12, data=[36, 60]),
   midi.NoteOnEvent(tick=100, channel=12, data=[36, 0]),
   midi.NoteOnEvent(tick=380, channel=12, data=[36, 60]),
   midi.NoteOnEvent(tick=100, channel=12, data=[36, 0]),
   midi.NoteOnEvent(tick=380, channel=12, data=[36, 60]),
   midi.NoteOnEvent(tick=100, channel=12, data=[36, 0]),
   midi.NoteOnEvent(tick=380, channel=12, data=[36, 60]),
   midi.NoteOnEvent(tick=100, channel=12, data=[36, 0]),
   midi.NoteOnEvent(tick=380, channel=12, data=[31, 60]),
   midi.NoteOnEvent(tick=930, channel=12, data=[31, 0]),
   midi.NoteOnEvent(tick=30, channel=12, data=[36, 60]),
   midi.NoteOnEvent(tick=100, channel=12, data=[36, 0]),
   midi.NoteOnEvent(tick=380, channel=12, data=[36, 60]),
   midi.NoteOnEvent(tick=100, channel=12, data=[36, 0]),
   midi.NoteOnEvent(tick=380, channel=12, data=[36, 60]),
   midi.NoteOnEvent(tick=100, channel=12, data=[36, 0]),
   midi.NoteOnEvent(tick=380, channel=12, data=[36, 60]),
   midi.NoteOnEvent(tick=100, channel=12, data=[36, 0]),
   midi.NoteOnEvent(tick=380, channel=12, data=[36, 60]),
   midi.NoteOnEvent(tick=100, channel=12, data=[36, 0]),
   midi.NoteOnEvent(tick=380, channel=12, data=[36, 60]),
   midi.NoteOnEvent(tick=100, channel=12, data=[36, 0]),
   midi.NoteOnEvent(tick=380, channel=12, data=[31, 60]),
   midi.NoteOnEvent(tick=930, channel=12, data=[31, 0]),
   midi.NoteOnEvent(tick=30, channel=12, data=[36, 60]),
   midi.NoteOnEvent(tick=100, channel=12, data=[36, 0]),
   midi.NoteOnEvent(tick=20, channel=12, data=[48, 92]),
   midi.NoteOnEvent(tick=210, channel=12, data=[48, 0]),
   midi.NoteOnEvent(tick=30, channel=12, data=[47, 92]),
   midi.NoteOnEvent(tick=100, channel=12, data=[47, 0]),
   midi.NoteOnEvent(tick=20, channel=12, data=[48, 92]),
   midi.NoteOnEvent(tick=100, channel=12, data=[48, 0]),
   midi.NoteOnEvent(tick=20, channel=12, data=[47, 92]),
   midi.NoteOnEvent(tick=100, channel=12, data=[47, 0]),
   midi.NoteOnEvent(tick=20, channel=12, data=[48, 92]),
   midi.NoteOnEvent(tick=100, channel=12, data=[48, 0]),
   midi.NoteOnEvent(tick=20, channel=12, data=[44, 92]),
   midi.NoteOnEvent(tick=100, channel=12, data=[44, 0]),
   midi.NoteOnEvent(tick=20, channel=12, data=[45, 92]),
   midi.NoteOnEvent(tick=100, channel=12, data=[45, 0]),
   midi.NoteOnEvent(tick=20, channel=12, data=[45, 92]),
   midi.NoteOnEvent(tick=210, channel=12, data=[45, 0]),
   midi.NoteOnEvent(tick=30, channel=12, data=[44, 92]),
   midi.NoteOnEvent(tick=100, channel=12, data=[44, 0]),
   midi.NoteOnEvent(tick=20, channel=12, data=[45, 92]),
   midi.NoteOnEvent(tick=100, channel=12, data=[45, 0]),
   midi.NoteOnEvent(tick=20, channel=12, data=[44, 92]),
   midi.NoteOnEvent(tick=100, channel=12, data=[44, 0]),
   midi.NoteOnEvent(tick=20, channel=12, data=[45, 92]),
   midi.NoteOnEvent(tick=100, channel=12, data=[45, 0]),
   midi.NoteOnEvent(tick=20, channel=12, data=[40, 92]),
   midi.NoteOnEvent(tick=100, channel=12, data=[40, 0]),
   midi.NoteOnEvent(tick=20, channel=12, data=[41, 92]),
   midi.NoteOnEvent(tick=100, channel=12, data=[41, 0]),
   midi.NoteOnEvent(tick=20, channel=12, data=[41, 92]),
   midi.NoteOnEvent(tick=210, channel=12, data=[41, 0]),
   midi.NoteOnEvent(tick=30, channel=12, data=[40, 92]),
   midi.NoteOnEvent(tick=100, channel=12, data=[40, 0]),
   midi.NoteOnEvent(tick=20, channel=12, data=[41, 92]),
   midi.NoteOnEvent(tick=100, channel=12, data=[41, 0]),
   midi.NoteOnEvent(tick=20, channel=12, data=[40, 92]),
   midi.NoteOnEvent(tick=100, channel=12, data=[40, 0]),
   midi.NoteOnEvent(tick=20, channel=12, data=[41, 92]),
   midi.NoteOnEvent(tick=100, channel=12, data=[41, 0]),
   midi.NoteOnEvent(tick=20, channel=12, data=[43, 92]),
   midi.NoteOnEvent(tick=100, channel=12, data=[43, 0]),
   midi.NoteOnEvent(tick=20, channel=12, data=[41, 92]),
   midi.NoteOnEvent(tick=100, channel=12, data=[41, 0]),
   midi.NoteOnEvent(tick=20, channel=12, data=[40, 92]),
   midi.NoteOnEvent(tick=100, channel=12, data=[40, 0]),
   midi.NoteOnEvent(tick=20, channel=12, data=[41, 92]),
   midi.NoteOnEvent(tick=100, channel=12, data=[41, 0]),
   midi.NoteOnEvent(tick=20, channel=12, data=[49, 92]),
   midi.NoteOnEvent(tick=100, channel=12, data=[49, 0]),
   midi.NoteOnEvent(tick=20, channel=12, data=[50, 92]),
   midi.NoteOnEvent(tick=100, channel=12, data=[50, 0]),
   midi.NoteOnEvent(tick=20, channel=12, data=[48, 92]),
   midi.NoteOnEvent(tick=100, channel=12, data=[48, 0]),
   midi.NoteOnEvent(tick=20, channel=12, data=[47, 92]),
   midi.NoteOnEvent(tick=100, channel=12, data=[47, 0]),
   midi.NoteOnEvent(tick=20, channel=12, data=[43, 92]),
   midi.NoteOnEvent(tick=100, channel=12, data=[43, 0]),
   midi.NoteOnEvent(tick=20, channel=12, data=[48, 92]),
   midi.NoteOnEvent(tick=100, channel=12, data=[48, 0]),
   midi.NoteOnEvent(tick=20, channel=12, data=[52, 92]),
   midi.NoteOnEvent(tick=100, channel=12, data=[52, 0]),
   midi.NoteOnEvent(tick=20, channel=12, data=[45, 92]),
   midi.NoteOnEvent(tick=100, channel=12, data=[45, 0]),
   midi.NoteOnEvent(tick=20, channel=12, data=[48, 92]),
   midi.NoteOnEvent(tick=100, channel=12, data=[48, 0]),
   midi.NoteOnEvent(tick=20, channel=12, data=[41, 92]),
   midi.NoteOnEvent(tick=100, channel=12, data=[41, 0]),
   midi.NoteOnEvent(tick=20, channel=12, data=[45, 92]),
   midi.NoteOnEvent(tick=100, channel=12, data=[45, 0]),
   midi.NoteOnEvent(tick=20, channel=12, data=[43, 92]),
   midi.NoteOnEvent(tick=100, channel=12, data=[43, 0]),
   midi.NoteOnEvent(tick=20, channel=12, data=[31, 92]),
   midi.NoteOnEvent(tick=100, channel=12, data=[31, 0]),
   midi.NoteOnEvent(tick=20, channel=12, data=[36, 92]),
   midi.NoteOnEvent(tick=100, channel=12, data=[36, 0]),
   midi.NoteOnEvent(tick=20, channel=12, data=[48, 92]),
   midi.NoteOnEvent(tick=210, channel=12, data=[48, 0]),
   midi.NoteOnEvent(tick=30, channel=12, data=[47, 92]),
   midi.NoteOnEvent(tick=100, channel=12, data=[47, 0]),
   midi.NoteOnEvent(tick=20, channel=12, data=[48, 92]),
   midi.NoteOnEvent(tick=100, channel=12, data=[48, 0]),
   midi.NoteOnEvent(tick=20, channel=12, data=[47, 92]),
   midi.NoteOnEvent(tick=100, channel=12, data=[47, 0]),
   midi.NoteOnEvent(tick=20, channel=12, data=[48, 92]),
   midi.NoteOnEvent(tick=100, channel=12, data=[48, 0]),
   midi.NoteOnEvent(tick=20, channel=12, data=[44, 92]),
   midi.NoteOnEvent(tick=100, channel=12, data=[44, 0]),
   midi.NoteOnEvent(tick=20, channel=12, data=[45, 92]),
   midi.NoteOnEvent(tick=100, channel=12, data=[45, 0]),
   midi.NoteOnEvent(tick=20, channel=12, data=[45, 92]),
   midi.NoteOnEvent(tick=210, channel=12, data=[45, 0]),
   midi.NoteOnEvent(tick=30, channel=12, data=[44, 92]),
   midi.NoteOnEvent(tick=100, channel=12, data=[44, 0]),
   midi.NoteOnEvent(tick=20, channel=12, data=[45, 92]),
   midi.NoteOnEvent(tick=100, channel=12, data=[45, 0]),
   midi.NoteOnEvent(tick=20, channel=12, data=[44, 92]),
   midi.NoteOnEvent(tick=100, channel=12, data=[44, 0]),
   midi.NoteOnEvent(tick=20, channel=12, data=[45, 92]),
   midi.NoteOnEvent(tick=100, channel=12, data=[45, 0]),
   midi.NoteOnEvent(tick=20, channel=12, data=[40, 92]),
   midi.NoteOnEvent(tick=100, channel=12, data=[40, 0]),
   midi.NoteOnEvent(tick=20, channel=12, data=[41, 92]),
   midi.NoteOnEvent(tick=100, channel=12, data=[41, 0]),
   midi.NoteOnEvent(tick=20, channel=12, data=[41, 92]),
   midi.NoteOnEvent(tick=210, channel=12, data=[41, 0]),
   midi.NoteOnEvent(tick=30, channel=12, data=[40, 92]),
   midi.NoteOnEvent(tick=100, channel=12, data=[40, 0]),
   midi.NoteOnEvent(tick=20, channel=12, data=[41, 92]),
   midi.NoteOnEvent(tick=100, channel=12, data=[41, 0]),
   midi.NoteOnEvent(tick=20, channel=12, data=[40, 92]),
   midi.NoteOnEvent(tick=100, channel=12, data=[40, 0]),
   midi.NoteOnEvent(tick=20, channel=12, data=[41, 92]),
   midi.NoteOnEvent(tick=100, channel=12, data=[41, 0]),
   midi.NoteOnEvent(tick=20, channel=12, data=[43, 92]),
   midi.NoteOnEvent(tick=100, channel=12, data=[43, 0]),
   midi.NoteOnEvent(tick=20, channel=12, data=[41, 92]),
   midi.NoteOnEvent(tick=100, channel=12, data=[41, 0]),
   midi.NoteOnEvent(tick=20, channel=12, data=[40, 92]),
   midi.NoteOnEvent(tick=100, channel=12, data=[40, 0]),
   midi.NoteOnEvent(tick=20, channel=12, data=[41, 92]),
   midi.NoteOnEvent(tick=100, channel=12, data=[41, 0]),
   midi.NoteOnEvent(tick=20, channel=12, data=[49, 92]),
   midi.NoteOnEvent(tick=100, channel=12, data=[49, 0]),
   midi.NoteOnEvent(tick=20, channel=12, data=[50, 92]),
   midi.NoteOnEvent(tick=100, channel=12, data=[50, 0]),
   midi.NoteOnEvent(tick=20, channel=12, data=[48, 92]),
   midi.NoteOnEvent(tick=100, channel=12, data=[48, 0]),
   midi.NoteOnEvent(tick=20, channel=12, data=[47, 92]),
   midi.NoteOnEvent(tick=100, channel=12, data=[47, 0]),
   midi.NoteOnEvent(tick=20, channel=12, data=[43, 92]),
   midi.NoteOnEvent(tick=100, channel=12, data=[43, 0]),
   midi.NoteOnEvent(tick=20, channel=12, data=[48, 92]),
   midi.NoteOnEvent(tick=100, channel=12, data=[48, 0]),
   midi.NoteOnEvent(tick=380, channel=12, data=[48, 60]),
   midi.NoteOnEvent(tick=100, channel=12, data=[48, 0]),
   midi.NoteOnEvent(tick=380, channel=12, data=[45, 60]),
   midi.NoteOnEvent(tick=100, channel=12, data=[45, 0]),
   midi.NoteOnEvent(tick=380, channel=12, data=[41, 60]),
   midi.NoteOnEvent(tick=100, channel=12, data=[41, 0]),
   midi.NoteOnEvent(tick=380, channel=12, data=[43, 60]),
   midi.NoteOnEvent(tick=930, channel=12, data=[43, 0]),
   midi.NoteOnEvent(tick=30, channel=12, data=[45, 60]),
   midi.NoteOnEvent(tick=580, channel=12, data=[45, 0]),
   midi.NoteOnEvent(tick=860, channel=12, data=[48, 92]),
   midi.NoteOnEvent(tick=100, channel=12, data=[48, 0]),
   midi.NoteOnEvent(tick=380, channel=12, data=[45, 92]),
   midi.NoteOnEvent(tick=100, channel=12, data=[45, 0]),
   midi.NoteOnEvent(tick=380, channel=12, data=[41, 92]),
   midi.NoteOnEvent(tick=100, channel=12, data=[41, 0]),
   midi.NoteOnEvent(tick=380, channel=12, data=[43, 92]),
   midi.NoteOnEvent(tick=100, channel=12, data=[43, 0]),
   midi.NoteOnEvent(tick=380, channel=12, data=[31, 92]),
   midi.NoteOnEvent(tick=100, channel=12, data=[31, 0]),
   midi.NoteOnEvent(tick=380, channel=12, data=[36, 60]),
   midi.NoteOnEvent(tick=100, channel=12, data=[36, 0]),
   midi.NoteOnEvent(tick=380, channel=12, data=[36, 60]),
   midi.NoteOnEvent(tick=100, channel=12, data=[36, 0]),
   midi.NoteOnEvent(tick=140, channel=12, data=[36, 60]),
   midi.NoteOnEvent(tick=100, channel=12, data=[36, 0]),
   midi.NoteOnEvent(tick=20, channel=12, data=[36, 60]),
   midi.NoteOnEvent(tick=100, channel=12, data=[36, 0]),
   midi.NoteOnEvent(tick=20, channel=12, data=[36, 60]),
   midi.NoteOnEvent(tick=100, channel=12, data=[36, 0]),
   midi.NoteOnEvent(tick=380, channel=12, data=[36, 60]),
   midi.NoteOnEvent(tick=100, channel=12, data=[36, 0]),
   midi.NoteOnEvent(tick=140, channel=12, data=[36, 60]),
   midi.NoteOnEvent(tick=100, channel=12, data=[36, 0]),
   midi.NoteOnEvent(tick=20, channel=12, data=[36, 60]),
   midi.NoteOnEvent(tick=100, channel=12, data=[36, 0]),
   midi.NoteOnEvent(tick=20, channel=12, data=[36, 60]),
   midi.NoteOnEvent(tick=100, channel=12, data=[36, 0]),
   midi.NoteOnEvent(tick=380, channel=12, data=[36, 60]),
   midi.NoteOnEvent(tick=100, channel=12, data=[36, 0]),
   midi.NoteOnEvent(tick=140, channel=12, data=[36, 60]),
   midi.NoteOnEvent(tick=100, channel=12, data=[36, 0]),
   midi.NoteOnEvent(tick=20, channel=12, data=[36, 60]),
   midi.NoteOnEvent(tick=100, channel=12, data=[36, 0]),
   midi.NoteOnEvent(tick=20, channel=12, data=[36, 60]),
   midi.NoteOnEvent(tick=100, channel=12, data=[36, 0]),
   midi.NoteOnEvent(tick=380, channel=12, data=[36, 60]),
   midi.NoteOnEvent(tick=100, channel=12, data=[36, 0]),
   midi.NoteOnEvent(tick=140, channel=12, data=[36, 64]),
   midi.NoteOnEvent(tick=100, channel=12, data=[36, 0]),
   midi.NoteOnEvent(tick=20, channel=12, data=[36, 66]),
   midi.NoteOnEvent(tick=100, channel=12, data=[36, 0]),
   midi.NoteOnEvent(tick=20, channel=12, data=[36, 68]),
   midi.NoteOnEvent(tick=100, channel=12, data=[36, 0]),
   midi.NoteOnEvent(tick=380, channel=12, data=[36, 80]),
   midi.NoteOnEvent(tick=100, channel=12, data=[36, 0]),
   midi.NoteOnEvent(tick=140, channel=12, data=[36, 86]),
   midi.NoteOnEvent(tick=100, channel=12, data=[36, 0]),
   midi.NoteOnEvent(tick=20, channel=12, data=[36, 89]),
   midi.NoteOnEvent(tick=100, channel=12, data=[36, 0]),
   midi.NoteOnEvent(tick=20, channel=12, data=[36, 92]),
   midi.NoteOnEvent(tick=100, channel=12, data=[36, 0]),
   midi.NoteOnEvent(tick=380, channel=12, data=[36, 92]),
   midi.NoteOnEvent(tick=100, channel=12, data=[36, 0]),
   midi.NoteOnEvent(tick=140, channel=12, data=[36, 92]),
   midi.NoteOnEvent(tick=100, channel=12, data=[36, 0]),
   midi.NoteOnEvent(tick=20, channel=12, data=[36, 92]),
   midi.NoteOnEvent(tick=100, channel=12, data=[36, 0]),
   midi.NoteOnEvent(tick=20, channel=12, data=[48, 108]),
   midi.NoteOnEvent(tick=100, channel=12, data=[48, 0]),
   midi.NoteOnEvent(tick=20, channel=12, data=[48, 108]),
   midi.NoteOnEvent(tick=210, channel=12, data=[48, 0]),
   midi.NoteOnEvent(tick=30, channel=12, data=[48, 108]),
   midi.NoteOnEvent(tick=100, channel=12, data=[48, 0]),
   midi.NoteOnEvent(tick=20, channel=12, data=[48, 108]),
   midi.NoteOnEvent(tick=100, channel=12, data=[48, 0]),
   midi.NoteOnEvent(tick=20, channel=12, data=[48, 108]),
   midi.NoteOnEvent(tick=100, channel=12, data=[48, 0]),
   midi.NoteOnEvent(tick=20, channel=12, data=[48, 108]),
   midi.NoteOnEvent(tick=100, channel=12, data=[48, 0]),
   midi.NoteOnEvent(tick=20, channel=12, data=[43, 108]),
   midi.NoteOnEvent(tick=100, channel=12, data=[43, 0]),
   midi.NoteOnEvent(tick=20, channel=12, data=[48, 108]),
   midi.NoteOnEvent(tick=100, channel=12, data=[48, 0]),
   midi.NoteOnEvent(tick=20, channel=12, data=[48, 108]),
   midi.NoteOnEvent(tick=210, channel=12, data=[48, 0]),
   midi.NoteOnEvent(tick=30, channel=12, data=[48, 108]),
   midi.NoteOnEvent(tick=100, channel=12, data=[48, 0]),
   midi.NoteOnEvent(tick=20, channel=12, data=[48, 108]),
   midi.NoteOnEvent(tick=100, channel=12, data=[48, 0]),
   midi.NoteOnEvent(tick=20, channel=12, data=[48, 108]),
   midi.NoteOnEvent(tick=100, channel=12, data=[48, 0]),
   midi.NoteOnEvent(tick=20, channel=12, data=[48, 108]),
   midi.NoteOnEvent(tick=100, channel=12, data=[48, 0]),
   midi.NoteOnEvent(tick=20, channel=12, data=[43, 108]),
   midi.NoteOnEvent(tick=100, channel=12, data=[43, 0]),
   midi.NoteOnEvent(tick=20, channel=12, data=[48, 108]),
   midi.NoteOnEvent(tick=100, channel=12, data=[48, 0]),
   midi.NoteOnEvent(tick=20, channel=12, data=[43, 108]),
   midi.NoteOnEvent(tick=100, channel=12, data=[43, 0]),
   midi.NoteOnEvent(tick=20, channel=12, data=[48, 108]),
   midi.NoteOnEvent(tick=100, channel=12, data=[48, 0]),
   midi.NoteOnEvent(tick=20, channel=12, data=[43, 108]),
   midi.NoteOnEvent(tick=100, channel=12, data=[43, 0]),
   midi.NoteOnEvent(tick=20, channel=12, data=[48, 108]),
   midi.NoteOnEvent(tick=100, channel=12, data=[48, 0]),
   midi.NoteOnEvent(tick=20, channel=12, data=[43, 108]),
   midi.NoteOnEvent(tick=100, channel=12, data=[43, 0]),
   midi.NoteOnEvent(tick=20, channel=12, data=[48, 108]),
   midi.NoteOnEvent(tick=100, channel=12, data=[48, 0]),
   midi.NoteOnEvent(tick=20, channel=12, data=[43, 108]),
   midi.NoteOnEvent(tick=100, channel=12, data=[43, 0]),
   midi.NoteOnEvent(tick=20, channel=12, data=[48, 108]),
   midi.NoteOnEvent(tick=100, channel=12, data=[48, 0]),
   midi.NoteOnEvent(tick=380, channel=12, data=[36, 108]),
   midi.NoteOnEvent(tick=100, channel=12, data=[36, 0]),
   midi.NoteOnEvent(tick=140, channel=12, data=[48, 108]),
   midi.NoteOnEvent(tick=100, channel=12, data=[48, 0]),
   midi.NoteOnEvent(tick=140, channel=12, data=[36, 108]),
   midi.NoteOnEvent(tick=210, channel=12, data=[36, 0]),
   midi.EndOfTrackEvent(tick=0, data=[])])])
