midi.Pattern(format=1, resolution=480, tracks=\
[midi.Track(\
  [midi.TimeSignatureEvent(tick=0, data=[3, 2, 24, 8]),
   midi.KeySignatureEvent(tick=0, data=[1, 0]),
   midi.SetTempoEvent(tick=0, data=[21, 201, 179]),
   midi.MarkerEvent(tick=0, text='Mozart Quartet #', data=[77, 111, 122, 97, 114, 116, 32, 81, 117, 97, 114, 116, 101, 116, 32, 35]),
   midi.TimeSignatureEvent(tick=96480, data=[4, 2, 24, 8]),
   midi.SetTempoEvent(tick=0, data=[5, 231, 81]),
   midi.TimeSignatureEvent(tick=228480, data=[3, 2, 24, 8]),
   midi.SetTempoEvent(tick=0, data=[7, 38, 50]),
   midi.KeySignatureEvent(tick=80640, data=[0, 0]),
   midi.TimeSignatureEvent(tick=110880, data=[2, 2, 24, 8]),
   midi.TimeSignatureEvent(tick=960, data=[4, 2, 24, 8]),
   midi.KeySignatureEvent(tick=0, data=[1, 0]),
   midi.TimeSignatureEvent(tick=120960, data=[2, 2, 24, 8]),
   midi.TimeSignatureEvent(tick=1920, data=[4, 2, 24, 8]),
   midi.TimeSignatureEvent(tick=117120, data=[2, 2, 24, 8]),
   midi.TimeSignatureEvent(tick=2880, data=[4, 2, 24, 8]),
   midi.EndOfTrackEvent(tick=0, data=[])]),
 midi.Track(\
  [midi.PortEvent(tick=0, data=[0]),
   midi.TrackNameEvent(tick=0, text='Violino I', data=[86, 105, 111, 108, 105, 110, 111, 32, 73]),
   midi.ProgramChangeEvent(tick=0, channel=0, data=[40]),
   midi.ControlChangeEvent(tick=0, channel=0, data=[7, 95]),
   midi.ControlChangeEvent(tick=0, channel=0, data=[10, 34]),
   midi.NoteOnEvent(tick=0, channel=0, data=[74, 36]),
   midi.TextMetaEvent(tick=0, text='Mozart First Quartett Series 14 No. 1\rK. Version No. 80\rComposed around 15 March 1770\r\rTranscribed by James Perdue using\rConcertWare Midi and lots of time!', data=[77, 111, 122, 97, 114, 116, 32, 70, 105, 114, 115, 116, 32, 81, 117, 97, 114, 116, 101, 116, 116, 32, 83, 101, 114, 105, 101, 115, 32, 49, 52, 32, 78, 111, 46, 32, 49, 13, 75, 46, 32, 86, 101, 114, 115, 105, 111, 110, 32, 78, 111, 46, 32, 56, 48, 13, 67, 111, 109, 112, 111, 115, 101, 100, 32, 97, 114, 111, 117, 110, 100, 32, 49, 53, 32, 77, 97, 114, 99, 104, 32, 49, 55, 55, 48, 13, 13, 84, 114, 97, 110, 115, 99, 114, 105, 98, 101, 100, 32, 98, 121, 32, 74, 97, 109, 101, 115, 32, 80, 101, 114, 100, 117, 101, 32, 117, 115, 105, 110, 103, 13, 67, 111, 110, 99, 101, 114, 116, 87, 97, 114, 101, 32, 77, 105, 100, 105, 32, 97, 110, 100, 32, 108, 111, 116, 115, 32, 111, 102, 32, 116, 105, 109, 101, 33]),
   midi.ControlChangeEvent(tick=48, channel=0, data=[7, 64]),
   midi.ControlChangeEvent(tick=48, channel=0, data=[7, 78]),
   midi.NoteOnEvent(tick=384, channel=0, data=[74, 0]),
   midi.NoteOnEvent(tick=0, channel=0, data=[74, 36]),
   midi.NoteOnEvent(tick=720, channel=0, data=[74, 0]),
   midi.NoteOnEvent(tick=0, channel=0, data=[79, 36]),
   midi.NoteOnEvent(tick=240, channel=0, data=[79, 0]),
   midi.NoteOnEvent(tick=0, channel=0, data=[81, 36]),
   midi.NoteOnEvent(tick=20, channel=0, data=[81, 0]),
   midi.NoteOnEvent(tick=0, channel=0, data=[79, 36]),
   midi.NoteOnEvent(tick=40, channel=0, data=[79, 0]),
   midi.NoteOnEvent(tick=0, channel=0, data=[81, 36]),
   midi.NoteOnEvent(tick=20, channel=0, data=[81, 0]),
   midi.NoteOnEvent(tick=0, channel=0, data=[79, 36]),
   midi.NoteOnEvent(tick=40, channel=0, data=[79, 0]),
   midi.NoteOnEvent(tick=0, channel=0, data=[81, 36]),
   midi.NoteOnEvent(tick=20, channel=0, data=[81, 0]),
   midi.NoteOnEvent(tick=0, channel=0, data=[79, 36]),
   midi.NoteOnEvent(tick=40, channel=0, data=[79, 0]),
   midi.NoteOnEvent(tick=0, channel=0, data=[81, 36]),
   midi.NoteOnEvent(tick=20, channel=0, data=[81, 0]),
   midi.NoteOnEvent(tick=0, channel=0, data=[79, 36]),
   midi.NoteOnEvent(tick=40, channel=0, data=[79, 0]),
   midi.NoteOnEvent(tick=0, channel=0, data=[81, 36]),
   midi.NoteOnEvent(tick=20, channel=0, data=[81, 0]),
   midi.NoteOnEvent(tick=0, channel=0, data=[79, 36]),
   midi.NoteOnEvent(tick=40, channel=0, data=[79, 0]),
   midi.NoteOnEvent(tick=0, channel=0, data=[81, 36]),
   midi.NoteOnEvent(tick=20, channel=0, data=[81, 0]),
   midi.NoteOnEvent(tick=0, channel=0, data=[79, 36]),
   midi.NoteOnEvent(tick=40, channel=0, data=[79, 0]),
   midi.NoteOnEvent(tick=0, channel=0, data=[81, 36]),
   midi.NoteOnEvent(tick=40, channel=0, data=[81, 0]),
   midi.NoteOnEvent(tick=0, channel=0, data=[79, 36]),
   midi.NoteOnEvent(tick=80, channel=0, data=[79, 0]),
   midi.NoteOnEvent(tick=0, channel=0, data=[78, 36]),
   midi.NoteOnEvent(tick=720, channel=0, data=[78, 0]),
   midi.NoteOnEvent(tick=0, channel=0, data=[79, 36]),
   midi.NoteOnEvent(tick=240, channel=0, data=[79, 0]),
   midi.NoteOnEvent(tick=0, channel=0, data=[81, 36]),
   midi.NoteOnEvent(tick=240, channel=0, data=[81, 0]),
   midi.NoteOnEvent(tick=0, channel=0, data=[78, 36]),
   midi.NoteOnEvent(tick=240, channel=0, data=[78, 0]),
   midi.NoteOnEvent(tick=0, channel=0, data=[74, 36]),
   midi.NoteOnEvent(tick=720, channel=0, data=[74, 0]),
   midi.NoteOnEvent(tick=0, channel=0, data=[72, 36]),
   midi.NoteOnEvent(tick=240, channel=0, data=[72, 0]),
   midi.NoteOnEvent(tick=0, channel=0, data=[74, 36]),
   midi.NoteOnEvent(tick=240, channel=0, data=[74, 0]),
   midi.NoteOnEvent(tick=0, channel=0, data=[72, 36]),
   midi.NoteOnEvent(tick=240, channel=0, data=[72, 0]),
   midi.NoteOnEvent(tick=0, channel=0, data=[71, 36]),
   midi.NoteOnEvent(tick=480, channel=0, data=[71, 0]),
   midi.NoteOnEvent(tick=480, channel=0, data=[84, 36]),
   midi.NoteOnEvent(tick=240, channel=0, data=[84, 0]),
   midi.NoteOnEvent(tick=0, channel=0, data=[72, 36]),
   midi.NoteOnEvent(tick=480, channel=0, data=[72, 0]),
   midi.NoteOnEvent(tick=0, channel=0, data=[76, 36]),
   midi.NoteOnEvent(tick=120, channel=0, data=[76, 0]),
   midi.NoteOnEvent(tick=0, channel=0, data=[74, 36]),
   midi.NoteOnEvent(tick=120, channel=0, data=[74, 0]),
   midi.NoteOnEvent(tick=0, channel=0, data=[78, 36]),
   midi.NoteOnEvent(tick=120, channel=0, data=[78, 0]),
   midi.NoteOnEvent(tick=0, channel=0, data=[76, 36]),
   midi.NoteOnEvent(tick=120, channel=0, data=[76, 0]),
   midi.NoteOnEvent(tick=0, channel=0, data=[74, 36]),
   midi.NoteOnEvent(tick=120, channel=0, data=[74, 0]),
   midi.NoteOnEvent(tick=0, channel=0, data=[72, 36]),
   midi.NoteOnEvent(tick=120, channel=0, data=[72, 0]),
   midi.NoteOnEvent(tick=0, channel=0, data=[71, 36]),
   midi.NoteOnEvent(tick=120, channel=0, data=[71, 0]),
   midi.NoteOnEvent(tick=0, channel=0, data=[74, 36]),
   midi.NoteOnEvent(tick=120, channel=0, data=[74, 0]),
   midi.NoteOnEvent(tick=0, channel=0, data=[76, 36]),
   midi.NoteOnEvent(tick=120, channel=0, data=[76, 0]),
   midi.NoteOnEvent(tick=0, channel=0, data=[78, 36]),
   midi.NoteOnEvent(tick=120, channel=0, data=[78, 0]),
   midi.NoteOnEvent(tick=0, channel=0, data=[79, 36]),
   midi.NoteOnEvent(tick=120, channel=0, data=[79, 0]),
   midi.NoteOnEvent(tick=0, channel=0, data=[81, 36]),
   midi.NoteOnEvent(tick=120, channel=0, data=[81, 0]),
   midi.NoteOnEvent(tick=0, channel=0, data=[83, 36]),
   midi.NoteOnEvent(tick=120, channel=0, data=[83, 0]),
   midi.NoteOnEvent(tick=0, channel=0, data=[84, 36]),
   midi.NoteOnEvent(tick=120, channel=0, data=[84, 0]),
   midi.NoteOnEvent(tick=0, channel=0, data=[86, 36]),
   midi.NoteOnEvent(tick=480, channel=0, data=[86, 0]),
   midi.NoteOnEvent(tick=0, channel=0, data=[86, 36]),
   midi.NoteOnEvent(tick=240, channel=0, data=[86, 0]),
   midi.NoteOnEvent(tick=0, channel=0, data=[88, 36]),
   midi.NoteOnEvent(tick=120, channel=0, data=[88, 0]),
   midi.NoteOnEvent(tick=0, channel=0, data=[86, 36]),
   midi.NoteOnEvent(tick=120, channel=0, data=[86, 0]),
   midi.NoteOnEvent(tick=0, channel=0, data=[84, 36]),
   midi.NoteOnEvent(tick=480, channel=0, data=[84, 0]),
   midi.NoteOnEvent(tick=0, channel=0, data=[83, 36]),
   midi.NoteOnEvent(tick=480, channel=0, data=[83, 0]),
   midi.NoteOnEvent(tick=0, channel=0, data=[84, 36]),
   midi.NoteOnEvent(tick=20, channel=0, data=[84, 0]),
   midi.NoteOnEvent(tick=0, channel=0, data=[83, 36]),
   midi.NoteOnEvent(tick=40, channel=0, data=[83, 0]),
   midi.NoteOnEvent(tick=0, channel=0, data=[84, 36]),
   midi.NoteOnEvent(tick=20, channel=0, data=[84, 0]),
   midi.NoteOnEvent(tick=0, channel=0, data=[83, 36]),
   midi.NoteOnEvent(tick=40, channel=0, data=[83, 0]),
   midi.NoteOnEvent(tick=0, channel=0, data=[84, 36]),
   midi.NoteOnEvent(tick=20, channel=0, data=[84, 0]),
   midi.NoteOnEvent(tick=0, channel=0, data=[83, 36]),
   midi.NoteOnEvent(tick=40, channel=0, data=[83, 0]),
   midi.NoteOnEvent(tick=0, channel=0, data=[84, 36]),
   midi.NoteOnEvent(tick=20, channel=0, data=[84, 0]),
   midi.NoteOnEvent(tick=0, channel=0, data=[83, 36]),
   midi.NoteOnEvent(tick=40, channel=0, data=[83, 0]),
   midi.NoteOnEvent(tick=0, channel=0, data=[84, 36]),
   midi.NoteOnEvent(tick=20, channel=0, data=[84, 0]),
   midi.NoteOnEvent(tick=0, channel=0, data=[83, 36]),
   midi.NoteOnEvent(tick=40, channel=0, data=[83, 0]),
   midi.NoteOnEvent(tick=0, channel=0, data=[84, 36]),
   midi.NoteOnEvent(tick=20, channel=0, data=[84, 0]),
   midi.NoteOnEvent(tick=0, channel=0, data=[83, 36]),
   midi.NoteOnEvent(tick=40, channel=0, data=[83, 0]),
   midi.NoteOnEvent(tick=0, channel=0, data=[84, 36]),
   midi.NoteOnEvent(tick=20, channel=0, data=[84, 0]),
   midi.NoteOnEvent(tick=0, channel=0, data=[83, 36]),
   midi.NoteOnEvent(tick=40, channel=0, data=[83, 0]),
   midi.NoteOnEvent(tick=0, channel=0, data=[84, 36]),
   midi.NoteOnEvent(tick=20, channel=0, data=[84, 0]),
   midi.NoteOnEvent(tick=0, channel=0, data=[83, 36]),
   midi.NoteOnEvent(tick=40, channel=0, data=[83, 0]),
   midi.NoteOnEvent(tick=0, channel=0, data=[81, 36]),
   midi.NoteOnEvent(tick=480, channel=0, data=[81, 0]),
   midi.NoteOnEvent(tick=480, channel=0, data=[81, 36]),
   midi.NoteOnEvent(tick=720, channel=0, data=[81, 0]),
   midi.NoteOnEvent(tick=0, channel=0, data=[83, 36]),
   midi.NoteOnEvent(tick=120, channel=0, data=[83, 0]),
   midi.NoteOnEvent(tick=0, channel=0, data=[81, 36]),
   midi.NoteOnEvent(tick=120, channel=0, data=[81, 0]),
   midi.NoteOnEvent(tick=0, channel=0, data=[86, 36]),
   midi.NoteOnEvent(tick=120, channel=0, data=[86, 0]),
   midi.NoteOnEvent(tick=0, channel=0, data=[85, 36]),
   midi.NoteOnEvent(tick=120, channel=0, data=[85, 0]),
   midi.NoteOnEvent(tick=0, channel=0, data=[83, 36]),
   midi.NoteOnEvent(tick=120, channel=0, data=[83, 0]),
   midi.NoteOnEvent(tick=0, channel=0, data=[81, 36]),
   midi.NoteOnEvent(tick=120, channel=0, data=[81, 0]),
   midi.NoteOnEvent(tick=0, channel=0, data=[81, 36]),
   midi.NoteOnEvent(tick=360, channel=0, data=[81, 0]),
   midi.NoteOnEvent(tick=0, channel=0, data=[83, 36]),
   midi.NoteOnEvent(tick=120, channel=0, data=[83, 0]),
   midi.NoteOnEvent(tick=0, channel=0, data=[81, 36]),
   midi.NoteOnEvent(tick=240, channel=0, data=[81, 0]),
   midi.NoteOnEvent(tick=0, channel=0, data=[81, 36]),
   midi.NoteOnEvent(tick=240, channel=0, data=[81, 0]),
   midi.NoteOnEvent(tick=0, channel=0, data=[81, 36]),
   midi.NoteOnEvent(tick=240, channel=0, data=[81, 0]),
   midi.NoteOnEvent(tick=0, channel=0, data=[81, 36]),
   midi.NoteOnEvent(tick=240, channel=0, data=[81, 0]),
   midi.NoteOnEvent(tick=0, channel=0, data=[81, 36]),
   midi.NoteOnEvent(tick=120, channel=0, data=[81, 0]),
   midi.NoteOnEvent(tick=0, channel=0, data=[78, 36]),
   midi.NoteOnEvent(tick=120, channel=0, data=[78, 0]),
   midi.NoteOnEvent(tick=0, channel=0, data=[79, 36]),
   midi.NoteOnEvent(tick=240, channel=0, data=[79, 0]),
   midi.NoteOnEvent(tick=240, channel=0, data=[79, 36]),
   midi.NoteOnEvent(tick=240, channel=0, data=[79, 0]),
   midi.NoteOnEvent(tick=0, channel=0, data=[79, 36]),
   midi.NoteOnEvent(tick=240, channel=0, data=[79, 0]),
   midi.NoteOnEvent(tick=0, channel=0, data=[79, 36]),
   midi.NoteOnEvent(tick=240, channel=0, data=[79, 0]),
   midi.NoteOnEvent(tick=0, channel=0, data=[79, 36]),
   midi.NoteOnEvent(tick=120, channel=0, data=[79, 0]),
   midi.NoteOnEvent(tick=0, channel=0, data=[76, 36]),
   midi.NoteOnEvent(tick=120, channel=0, data=[76, 0]),
   midi.NoteOnEvent(tick=0, channel=0, data=[78, 36]),
   midi.ControlChangeEvent(tick=80, channel=0, data=[7, 78]),
   midi.NoteOnEvent(tick=160, channel=0, data=[78, 0]),
   midi.NoteOnEvent(tick=240, channel=0, data=[78, 36]),
   midi.NoteOnEvent(tick=240, channel=0, data=[78, 0]),
   midi.NoteOnEvent(tick=0, channel=0, data=[78, 36]),
   midi.NoteOnEvent(tick=240, channel=0, data=[78, 0]),
   midi.NoteOnEvent(tick=0, channel=0, data=[78, 36]),
   midi.NoteOnEvent(tick=240, channel=0, data=[78, 0]),
   midi.NoteOnEvent(tick=0, channel=0, data=[76, 36]),
   midi.NoteOnEvent(tick=480, channel=0, data=[76, 0]),
   midi.NoteOnEvent(tick=2400, channel=0, data=[78, 36]),
   midi.NoteOnEvent(tick=120, channel=0, data=[78, 0]),
   midi.NoteOnEvent(tick=0, channel=0, data=[76, 36]),
   midi.NoteOnEvent(tick=120, channel=0, data=[76, 0]),
   midi.NoteOnEvent(tick=0, channel=0, data=[78, 36]),
   midi.NoteOnEvent(tick=120, channel=0, data=[78, 0]),
   midi.NoteOnEvent(tick=0, channel=0, data=[79, 36]),
   midi.NoteOnEvent(tick=120, channel=0, data=[79, 0]),
   midi.NoteOnEvent(tick=0, channel=0, data=[81, 36]),
   midi.NoteOnEvent(tick=240, channel=0, data=[81, 0]),
   midi.NoteOnEvent(tick=0, channel=0, data=[74, 36]),
   midi.NoteOnEvent(tick=240, channel=0, data=[74, 0]),
   midi.NoteOnEvent(tick=0, channel=0, data=[74, 36]),
   midi.NoteOnEvent(tick=240, channel=0, data=[74, 0]),
   midi.NoteOnEvent(tick=0, channel=0, data=[74, 36]),
   midi.NoteOnEvent(tick=240, channel=0, data=[74, 0]),
   midi.NoteOnEvent(tick=0, channel=0, data=[79, 36]),
   midi.NoteOnEvent(tick=120, channel=0, data=[79, 0]),
   midi.NoteOnEvent(tick=0, channel=0, data=[76, 36]),
   midi.NoteOnEvent(tick=120, channel=0, data=[76, 0]),
   midi.NoteOnEvent(tick=0, channel=0, data=[78, 36]),
   midi.NoteOnEvent(tick=120, channel=0, data=[78, 0]),
   midi.NoteOnEvent(tick=0, channel=0, data=[74, 36]),
   midi.NoteOnEvent(tick=120, channel=0, data=[74, 0]),
   midi.NoteOnEvent(tick=0, channel=0, data=[73, 36]),
   midi.NoteOnEvent(tick=240, channel=0, data=[73, 0]),
   midi.NoteOnEvent(tick=0, channel=0, data=[76, 36]),
   midi.NoteOnEvent(tick=120, channel=0, data=[76, 0]),
   midi.NoteOnEvent(tick=0, channel=0, data=[73, 36]),
   midi.NoteOnEvent(tick=120, channel=0, data=[73, 0]),
   midi.NoteOnEvent(tick=0, channel=0, data=[69, 36]),
   midi.NoteOnEvent(tick=480, channel=0, data=[69, 0]),
   midi.NoteOnEvent(tick=0, channel=0, data=[81, 36]),
   midi.NoteOnEvent(tick=1440, channel=0, data=[81, 0]),
   midi.NoteOnEvent(tick=0, channel=0, data=[81, 36]),
   midi.NoteOnEvent(tick=1440, channel=0, data=[81, 0]),
   midi.NoteOnEvent(tick=120, channel=0, data=[74, 36]),
   midi.NoteOnEvent(tick=240, channel=0, data=[74, 0]),
   midi.NoteOnEvent(tick=0, channel=0, data=[78, 36]),
   midi.NoteOnEvent(tick=240, channel=0, data=[78, 0]),
   midi.NoteOnEvent(tick=0, channel=0, data=[81, 36]),
   midi.NoteOnEvent(tick=240, channel=0, data=[81, 0]),
   midi.NoteOnEvent(tick=0, channel=0, data=[86, 36]),
   midi.NoteOnEvent(tick=240, channel=0, data=[86, 0]),
   midi.NoteOnEvent(tick=0, channel=0, data=[84, 36]),
   midi.NoteOnEvent(tick=240, channel=0, data=[84, 0]),
   midi.NoteOnEvent(tick=0, channel=0, data=[81, 36]),
   midi.NoteOnEvent(tick=120, channel=0, data=[81, 0]),
   midi.NoteOnEvent(tick=0, channel=0, data=[83, 36]),
   midi.NoteOnEvent(tick=80, channel=0, data=[83, 0]),
   midi.NoteOnEvent(tick=0, channel=0, data=[86, 36]),
   midi.NoteOnEvent(tick=80, channel=0, data=[86, 0]),
   midi.NoteOnEvent(tick=0, channel=0, data=[83, 36]),
   midi.NoteOnEvent(tick=80, channel=0, data=[83, 0]),
   midi.NoteOnEvent(tick=0, channel=0, data=[79, 36]),
   midi.NoteOnEvent(tick=80, channel=0, data=[79, 0]),
   midi.NoteOnEvent(tick=0, channel=0, data=[74, 36]),
   midi.NoteOnEvent(tick=80, channel=0, data=[74, 0]),
   midi.NoteOnEvent(tick=0, channel=0, data=[71, 36]),
   midi.NoteOnEvent(tick=80, channel=0, data=[71, 0]),
   midi.NoteOnEvent(tick=0, channel=0, data=[67, 36]),
   midi.NoteOnEvent(tick=80, channel=0, data=[67, 0]),
   midi.NoteOnEvent(tick=0, channel=0, data=[74, 36]),
   midi.NoteOnEvent(tick=80, channel=0, data=[74, 0]),
   midi.NoteOnEvent(tick=0, channel=0, data=[71, 36]),
   midi.NoteOnEvent(tick=80, channel=0, data=[71, 0]),
   midi.NoteOnEvent(tick=0, channel=0, data=[67, 36]),
   midi.NoteOnEvent(tick=80, channel=0, data=[67, 0]),
   midi.NoteOnEvent(tick=0, channel=0, data=[62, 36]),
   midi.NoteOnEvent(tick=80, channel=0, data=[62, 0]),
   midi.NoteOnEvent(tick=0, channel=0, data=[59, 36]),
   midi.NoteOnEvent(tick=80, channel=0, data=[59, 0]),
   midi.NoteOnEvent(tick=0, channel=0, data=[55, 36]),
   midi.NoteOnEvent(tick=240, channel=0, data=[55, 0]),
   midi.NoteOnEvent(tick=0, channel=0, data=[83, 36]),
   midi.NoteOnEvent(tick=120, channel=0, data=[83, 0]),
   midi.NoteOnEvent(tick=0, channel=0, data=[79, 36]),
   midi.NoteOnEvent(tick=120, channel=0, data=[79, 0]),
   midi.NoteOnEvent(tick=0, channel=0, data=[78, 36]),
   midi.NoteOnEvent(tick=40, channel=0, data=[78, 0]),
   midi.NoteOnEvent(tick=0, channel=0, data=[81, 36]),
   midi.NoteOnEvent(tick=40, channel=0, data=[81, 0]),
   midi.NoteOnEvent(tick=0, channel=0, data=[79, 36]),
   midi.NoteOnEvent(tick=40, channel=0, data=[79, 0]),
   midi.NoteOnEvent(tick=0, channel=0, data=[78, 36]),
   midi.NoteOnEvent(tick=40, channel=0, data=[78, 0]),
   midi.NoteOnEvent(tick=0, channel=0, data=[79, 36]),
   midi.NoteOnEvent(tick=40, channel=0, data=[79, 0]),
   midi.NoteOnEvent(tick=0, channel=0, data=[81, 36]),
   midi.NoteOnEvent(tick=40, channel=0, data=[81, 0]),
   midi.NoteOnEvent(tick=0, channel=0, data=[83, 36]),
   midi.NoteOnEvent(tick=40, channel=0, data=[83, 0]),
   midi.NoteOnEvent(tick=0, channel=0, data=[85, 36]),
   midi.NoteOnEvent(tick=40, channel=0, data=[85, 0]),
   midi.NoteOnEvent(tick=0, channel=0, data=[86, 36]),
   midi.NoteOnEvent(tick=40, channel=0, data=[86, 0]),
   midi.NoteOnEvent(tick=0, channel=0, data=[85, 36]),
   midi.NoteOnEvent(tick=40, channel=0, data=[85, 0]),
   midi.NoteOnEvent(tick=0, channel=0, data=[86, 36]),
   midi.NoteOnEvent(tick=40, channel=0, data=[86, 0]),
   midi.NoteOnEvent(tick=0, channel=0, data=[85, 36]),
   midi.NoteOnEvent(tick=40, channel=0, data=[85, 0]),
   midi.NoteOnEvent(tick=0, channel=0, data=[86, 36]),
   midi.NoteOnEvent(tick=40, channel=0, data=[86, 0]),
   midi.NoteOnEvent(tick=0, channel=0, data=[81, 36]),
   midi.NoteOnEvent(tick=40, channel=0, data=[81, 0]),
   midi.NoteOnEvent(tick=0, channel=0, data=[78, 36]),
   midi.NoteOnEvent(tick=40, channel=0, data=[78, 0]),
   midi.NoteOnEvent(tick=0, channel=0, data=[74, 36]),
   midi.NoteOnEvent(tick=40, channel=0, data=[74, 0]),
   midi.NoteOnEvent(tick=0, channel=0, data=[78, 36]),
   midi.NoteOnEvent(tick=20, channel=0, data=[78, 0]),
   midi.NoteOnEvent(tick=0, channel=0, data=[76, 36]),
   midi.NoteOnEvent(tick=40, channel=0, data=[76, 0]),
   midi.NoteOnEvent(tick=0, channel=0, data=[78, 36]),
   midi.NoteOnEvent(tick=20, channel=0, data=[78, 0]),
   midi.NoteOnEvent(tick=0, channel=0, data=[76, 36]),
   midi.NoteOnEvent(tick=40, channel=0, data=[76, 0]),
   midi.NoteOnEvent(tick=0, channel=0, data=[78, 36]),
   midi.NoteOnEvent(tick=20, channel=0, data=[78, 0]),
   midi.NoteOnEvent(tick=0, channel=0, data=[76, 36]),
   midi.NoteOnEvent(tick=40, channel=0, data=[76, 0]),
   midi.NoteOnEvent(tick=0, channel=0, data=[78, 36]),
   midi.NoteOnEvent(tick=20, channel=0, data=[78, 0]),
   midi.NoteOnEvent(tick=0, channel=0, data=[76, 36]),
   midi.NoteOnEvent(tick=40, channel=0, data=[76, 0]),
   midi.NoteOnEvent(tick=0, channel=0, data=[78, 36]),
   midi.NoteOnEvent(tick=20, channel=0, data=[78, 0]),
   midi.NoteOnEvent(tick=0, channel=0, data=[76, 36]),
   midi.NoteOnEvent(tick=40, channel=0, data=[76, 0]),
   midi.NoteOnEvent(tick=0, channel=0, data=[78, 36]),
   midi.NoteOnEvent(tick=20, channel=0, data=[78, 0]),
   midi.NoteOnEvent(tick=0, channel=0, data=[76, 36]),
   midi.NoteOnEvent(tick=40, channel=0, data=[76, 0]),
   midi.NoteOnEvent(tick=0, channel=0, data=[78, 36]),
   midi.NoteOnEvent(tick=20, channel=0, data=[78, 0]),
   midi.NoteOnEvent(tick=0, channel=0, data=[76, 36]),
   midi.NoteOnEvent(tick=40, channel=0, data=[76, 0]),
   midi.NoteOnEvent(tick=0, channel=0, data=[78, 36]),
   midi.NoteOnEvent(tick=20, channel=0, data=[78, 0]),
   midi.NoteOnEvent(tick=0, channel=0, data=[76, 36]),
   midi.NoteOnEvent(tick=40, channel=0, data=[76, 0]),
   midi.NoteOnEvent(tick=0, channel=0, data=[78, 36]),
   midi.NoteOnEvent(tick=20, channel=0, data=[78, 0]),
   midi.NoteOnEvent(tick=0, channel=0, data=[76, 36]),
   midi.NoteOnEvent(tick=40, channel=0, data=[76, 0]),
   midi.NoteOnEvent(tick=0, channel=0, data=[78, 36]),
   midi.NoteOnEvent(tick=20, channel=0, data=[78, 0]),
   midi.NoteOnEvent(tick=0, channel=0, data=[76, 36]),
   midi.NoteOnEvent(tick=40, channel=0, data=[76, 0]),
   midi.NoteOnEvent(tick=0, channel=0, data=[78, 36]),
   midi.NoteOnEvent(tick=20, channel=0, data=[78, 0]),
   midi.NoteOnEvent(tick=0, channel=0, data=[76, 36]),
   midi.NoteOnEvent(tick=40, channel=0, data=[76, 0]),
   midi.NoteOnEvent(tick=0, channel=0, data=[78, 36]),
   midi.NoteOnEvent(tick=20, channel=0, data=[78, 0]),
   midi.NoteOnEvent(tick=0, channel=0, data=[76, 36]),
   midi.NoteOnEvent(tick=40, channel=0, data=[76, 0]),
   midi.NoteOnEvent(tick=0, channel=0, data=[74, 36]),
   midi.NoteOnEvent(tick=40, channel=0, data=[74, 0]),
   midi.NoteOnEvent(tick=0, channel=0, data=[76, 36]),
   midi.NoteOnEvent(tick=40, channel=0, data=[76, 0]),
   midi.NoteOnEvent(tick=0, channel=0, data=[74, 36]),
   midi.NoteOnEvent(tick=240, channel=0, data=[74, 0]),
   midi.NoteOnEvent(tick=0, channel=0, data=[76, 36]),
   midi.NoteOnEvent(tick=40, channel=0, data=[76, 0]),
   midi.NoteOnEvent(tick=0, channel=0, data=[78, 36]),
   midi.NoteOnEvent(tick=40, channel=0, data=[78, 0]),
   midi.NoteOnEvent(tick=0, channel=0, data=[79, 36]),
   midi.NoteOnEvent(tick=40, channel=0, data=[79, 0]),
   midi.NoteOnEvent(tick=0, channel=0, data=[81, 36]),
   midi.NoteOnEvent(tick=40, channel=0, data=[81, 0]),
   midi.NoteOnEvent(tick=0, channel=0, data=[83, 36]),
   midi.NoteOnEvent(tick=40, channel=0, data=[83, 0]),
   midi.NoteOnEvent(tick=0, channel=0, data=[85, 36]),
   midi.NoteOnEvent(tick=40, channel=0, data=[85, 0]),
   midi.NoteOnEvent(tick=0, channel=0, data=[86, 36]),
   midi.NoteOnEvent(tick=240, channel=0, data=[86, 0]),
   midi.ControlChangeEvent(tick=1264, channel=0, data=[7, 79]),
   midi.NoteOnEvent(tick=896, channel=0, data=[84, 34]),
   midi.NoteOnEvent(tick=1440, channel=0, data=[84, 0]),
   midi.NoteOnEvent(tick=0, channel=0, data=[84, 34]),
   midi.NoteOnEvent(tick=120, channel=0, data=[84, 0]),
   midi.NoteOnEvent(tick=0, channel=0, data=[83, 34]),
   midi.NoteOnEvent(tick=120, channel=0, data=[83, 0]),
   midi.NoteOnEvent(tick=0, channel=0, data=[81, 34]),
   midi.NoteOnEvent(tick=120, channel=0, data=[81, 0]),
   midi.NoteOnEvent(tick=0, channel=0, data=[79, 34]),
   midi.NoteOnEvent(tick=120, channel=0, data=[79, 0]),
   midi.NoteOnEvent(tick=0, channel=0, data=[78, 34]),
   midi.NoteOnEvent(tick=480, channel=0, data=[78, 0]),
   midi.NoteOnEvent(tick=0, channel=0, data=[78, 34]),
   midi.NoteOnEvent(tick=20, channel=0, data=[78, 0]),
   midi.NoteOnEvent(tick=0, channel=0, data=[76, 34]),
   midi.NoteOnEvent(tick=20, channel=0, data=[76, 0]),
   midi.NoteOnEvent(tick=0, channel=0, data=[78, 34]),
   midi.NoteOnEvent(tick=40, channel=0, data=[78, 0]),
   midi.NoteOnEvent(tick=0, channel=0, data=[76, 34]),
   midi.NoteOnEvent(tick=20, channel=0, data=[76, 0]),
   midi.NoteOnEvent(tick=0, channel=0, data=[78, 34]),
   midi.NoteOnEvent(tick=20, channel=0, data=[78, 0]),
   midi.NoteOnEvent(tick=0, channel=0, data=[76, 34]),
   midi.NoteOnEvent(tick=20, channel=0, data=[76, 0]),
   midi.NoteOnEvent(tick=0, channel=0, data=[78, 34]),
   midi.NoteOnEvent(tick=20, channel=0, data=[78, 0]),
   midi.NoteOnEvent(tick=0, channel=0, data=[76, 34]),
   midi.NoteOnEvent(tick=20, channel=0, data=[76, 0]),
   midi.NoteOnEvent(tick=0, channel=0, data=[78, 34]),
   midi.NoteOnEvent(tick=40, channel=0, data=[78, 0]),
   midi.NoteOnEvent(tick=0, channel=0, data=[76, 34]),
   midi.NoteOnEvent(tick=20, channel=0, data=[76, 0]),
   midi.NoteOnEvent(tick=0, channel=0, data=[78, 34]),
   midi.NoteOnEvent(tick=20, channel=0, data=[78, 0]),
   midi.NoteOnEvent(tick=0, channel=0, data=[76, 34]),
   midi.NoteOnEvent(tick=20, channel=0, data=[76, 0]),
   midi.NoteOnEvent(tick=0, channel=0, data=[78, 34]),
   midi.NoteOnEvent(tick=20, channel=0, data=[78, 0]),
   midi.NoteOnEvent(tick=0, channel=0, data=[76, 34]),
   midi.NoteOnEvent(tick=20, channel=0, data=[76, 0]),
   midi.NoteOnEvent(tick=0, channel=0, data=[78, 34]),
   midi.NoteOnEvent(tick=40, channel=0, data=[78, 0]),
   midi.NoteOnEvent(tick=0, channel=0, data=[76, 34]),
   midi.NoteOnEvent(tick=20, channel=0, data=[76, 0]),
   midi.NoteOnEvent(tick=0, channel=0, data=[76, 34]),
   midi.NoteOnEvent(tick=20, channel=0, data=[76, 0]),
   midi.NoteOnEvent(tick=0, channel=0, data=[74, 34]),
   midi.NoteOnEvent(tick=40, channel=0, data=[74, 0]),
   midi.NoteOnEvent(tick=0, channel=0, data=[76, 34]),
   midi.NoteOnEvent(tick=40, channel=0, data=[76, 0]),
   midi.NoteOnEvent(tick=0, channel=0, data=[74, 34]),
   midi.NoteOnEvent(tick=180, channel=0, data=[74, 0]),
   midi.NoteOnEvent(tick=60, channel=0, data=[69, 34]),
   midi.NoteOnEvent(tick=240, channel=0, data=[69, 0]),
   midi.NoteOnEvent(tick=0, channel=0, data=[71, 34]),
   midi.NoteOnEvent(tick=240, channel=0, data=[71, 0]),
   midi.NoteOnEvent(tick=0, channel=0, data=[69, 34]),
   midi.NoteOnEvent(tick=240, channel=0, data=[69, 0]),
   midi.NoteOnEvent(tick=0, channel=0, data=[71, 34]),
   midi.NoteOnEvent(tick=240, channel=0, data=[71, 0]),
   midi.NoteOnEvent(tick=0, channel=0, data=[67, 34]),
   midi.NoteOnEvent(tick=240, channel=0, data=[67, 0]),
   midi.NoteOnEvent(tick=0, channel=0, data=[66, 34]),
   midi.NoteOnEvent(tick=480, channel=0, data=[66, 0]),
   midi.NoteOnEvent(tick=600, channel=0, data=[81, 34]),
   midi.NoteOnEvent(tick=60, channel=0, data=[81, 0]),
   midi.NoteOnEvent(tick=0, channel=0, data=[79, 34]),
   midi.NoteOnEvent(tick=60, channel=0, data=[79, 0]),
   midi.NoteOnEvent(tick=0, channel=0, data=[78, 34]),
   midi.NoteOnEvent(tick=60, channel=0, data=[78, 0]),
   midi.NoteOnEvent(tick=0, channel=0, data=[76, 34]),
   midi.NoteOnEvent(tick=60, channel=0, data=[76, 0]),
   midi.NoteOnEvent(tick=0, channel=0, data=[74, 34]),
   midi.NoteOnEvent(tick=60, channel=0, data=[74, 0]),
   midi.NoteOnEvent(tick=0, channel=0, data=[73, 34]),
   midi.NoteOnEvent(tick=60, channel=0, data=[73, 0]),
   midi.NoteOnEvent(tick=0, channel=0, data=[73, 34]),
   midi.NoteOnEvent(tick=960, channel=0, data=[73, 0]),
   midi.NoteOnEvent(tick=0, channel=0, data=[74, 34]),
   midi.NoteOnEvent(tick=240, channel=0, data=[74, 0]),
   midi.NoteOnEvent(tick=3120, channel=0, data=[86, 34]),
   midi.NoteOnEvent(tick=1440, channel=0, data=[86, 0]),
   midi.NoteOnEvent(tick=0, channel=0, data=[86, 34]),
   midi.NoteOnEvent(tick=480, channel=0, data=[86, 0]),
   midi.NoteOnEvent(tick=0, channel=0, data=[91, 34]),
   midi.NoteOnEvent(tick=240, channel=0, data=[91, 0]),
   midi.NoteOnEvent(tick=0, channel=0, data=[86, 34]),
   midi.NoteOnEvent(tick=240, channel=0, data=[86, 0]),
   midi.NoteOnEvent(tick=0, channel=0, data=[84, 34]),
   midi.NoteOnEvent(tick=240, channel=0, data=[84, 0]),
   midi.NoteOnEvent(tick=0, channel=0, data=[83, 34]),
   midi.NoteOnEvent(tick=240, channel=0, data=[83, 0]),
   midi.NoteOnEvent(tick=0, channel=0, data=[84, 34]),
   midi.NoteOnEvent(tick=20, channel=0, data=[84, 0]),
   midi.NoteOnEvent(tick=0, channel=0, data=[83, 34]),
   midi.NoteOnEvent(tick=40, channel=0, data=[83, 0]),
   midi.NoteOnEvent(tick=0, channel=0, data=[84, 34]),
   midi.NoteOnEvent(tick=20, channel=0, data=[84, 0]),
   midi.NoteOnEvent(tick=0, channel=0, data=[83, 34]),
   midi.NoteOnEvent(tick=40, channel=0, data=[83, 0]),
   midi.NoteOnEvent(tick=0, channel=0, data=[84, 34]),
   midi.NoteOnEvent(tick=20, channel=0, data=[84, 0]),
   midi.NoteOnEvent(tick=0, channel=0, data=[83, 34]),
   midi.NoteOnEvent(tick=40, channel=0, data=[83, 0]),
   midi.NoteOnEvent(tick=0, channel=0, data=[84, 34]),
   midi.NoteOnEvent(tick=20, channel=0, data=[84, 0]),
   midi.NoteOnEvent(tick=0, channel=0, data=[83, 34]),
   midi.NoteOnEvent(tick=40, channel=0, data=[83, 0]),
   midi.NoteOnEvent(tick=0, channel=0, data=[84, 34]),
   midi.NoteOnEvent(tick=20, channel=0, data=[84, 0]),
   midi.NoteOnEvent(tick=0, channel=0, data=[83, 34]),
   midi.NoteOnEvent(tick=40, channel=0, data=[83, 0]),
   midi.NoteOnEvent(tick=0, channel=0, data=[84, 34]),
   midi.NoteOnEvent(tick=20, channel=0, data=[84, 0]),
   midi.NoteOnEvent(tick=0, channel=0, data=[83, 34]),
   midi.NoteOnEvent(tick=40, channel=0, data=[83, 0]),
   midi.NoteOnEvent(tick=0, channel=0, data=[84, 34]),
   midi.NoteOnEvent(tick=20, channel=0, data=[84, 0]),
   midi.NoteOnEvent(tick=0, channel=0, data=[83, 34]),
   midi.NoteOnEvent(tick=40, channel=0, data=[83, 0]),
   midi.NoteOnEvent(tick=0, channel=0, data=[84, 34]),
   midi.NoteOnEvent(tick=20, channel=0, data=[84, 0]),
   midi.NoteOnEvent(tick=0, channel=0, data=[83, 34]),
   midi.NoteOnEvent(tick=40, channel=0, data=[83, 0]),
   midi.NoteOnEvent(tick=0, channel=0, data=[81, 34]),
   midi.NoteOnEvent(tick=480, channel=0, data=[81, 0]),
   midi.NoteOnEvent(tick=480, channel=0, data=[76, 34]),
   midi.NoteOnEvent(tick=480, channel=0, data=[76, 0]),
   midi.NoteOnEvent(tick=0, channel=0, data=[76, 34]),
   midi.NoteOnEvent(tick=120, channel=0, data=[76, 0]),
   midi.NoteOnEvent(tick=0, channel=0, data=[78, 34]),
   midi.NoteOnEvent(tick=120, channel=0, data=[78, 0]),
   midi.NoteOnEvent(tick=0, channel=0, data=[80, 34]),
   midi.ControlChangeEvent(tick=48, channel=0, data=[7, 80]),
   midi.NoteOnEvent(tick=72, channel=0, data=[80, 0]),
   midi.NoteOnEvent(tick=0, channel=0, data=[81, 34]),
   midi.NoteOnEvent(tick=120, channel=0, data=[81, 0]),
   midi.NoteOnEvent(tick=0, channel=0, data=[83, 34]),
   midi.NoteOnEvent(tick=120, channel=0, data=[83, 0]),
   midi.NoteOnEvent(tick=0, channel=0, data=[84, 34]),
   midi.NoteOnEvent(tick=120, channel=0, data=[84, 0]),
   midi.NoteOnEvent(tick=0, channel=0, data=[86, 34]),
   midi.NoteOnEvent(tick=120, channel=0, data=[86, 0]),
   midi.NoteOnEvent(tick=0, channel=0, data=[83, 34]),
   midi.NoteOnEvent(tick=120, channel=0, data=[83, 0]),
   midi.NoteOnEvent(tick=0, channel=0, data=[86, 34]),
   midi.NoteOnEvent(tick=240, channel=0, data=[86, 0]),
   midi.NoteOnEvent(tick=0, channel=0, data=[84, 32]),
   midi.NoteOnEvent(tick=480, channel=0, data=[84, 0]),
   midi.NoteOnEvent(tick=0, channel=0, data=[86, 32]),
   midi.NoteOnEvent(tick=120, channel=0, data=[86, 0]),
   midi.NoteOnEvent(tick=0, channel=0, data=[84, 32]),
   midi.NoteOnEvent(tick=120, channel=0, data=[84, 0]),
   midi.NoteOnEvent(tick=0, channel=0, data=[88, 32]),
   midi.NoteOnEvent(tick=240, channel=0, data=[88, 0]),
   midi.NoteOnEvent(tick=0, channel=0, data=[79, 32]),
   midi.NoteOnEvent(tick=240, channel=0, data=[79, 0]),
   midi.NoteOnEvent(tick=0, channel=0, data=[78, 32]),
   midi.NoteOnEvent(tick=480, channel=0, data=[78, 0]),
   midi.NoteOnEvent(tick=960, channel=0, data=[67, 32]),
   midi.NoteOnEvent(tick=80, channel=0, data=[67, 0]),
   midi.NoteOnEvent(tick=0, channel=0, data=[74, 32]),
   midi.NoteOnEvent(tick=80, channel=0, data=[74, 0]),
   midi.NoteOnEvent(tick=0, channel=0, data=[71, 32]),
   midi.NoteOnEvent(tick=80, channel=0, data=[71, 0]),
   midi.NoteOnEvent(tick=0, channel=0, data=[67, 32]),
   midi.NoteOnEvent(tick=80, channel=0, data=[67, 0]),
   midi.NoteOnEvent(tick=0, channel=0, data=[62, 32]),
   midi.NoteOnEvent(tick=80, channel=0, data=[62, 0]),
   midi.NoteOnEvent(tick=0, channel=0, data=[59, 32]),
   midi.NoteOnEvent(tick=80, channel=0, data=[59, 0]),
   midi.NoteOnEvent(tick=0, channel=0, data=[55, 32]),
   midi.NoteOnEvent(tick=240, channel=0, data=[55, 0]),
   midi.NoteOnEvent(tick=480, channel=0, data=[77, 32]),
   midi.NoteOnEvent(tick=240, channel=0, data=[77, 0]),
   midi.NoteOnEvent(tick=0, channel=0, data=[76, 32]),
   midi.NoteOnEvent(tick=240, channel=0, data=[76, 0]),
   midi.NoteOnEvent(tick=0, channel=0, data=[88, 32]),
   midi.NoteOnEvent(tick=480, channel=0, data=[88, 0]),
   midi.NoteOnEvent(tick=0, channel=0, data=[86, 32]),
   midi.NoteOnEvent(tick=120, channel=0, data=[86, 0]),
   midi.NoteOnEvent(tick=0, channel=0, data=[84, 32]),
   midi.NoteOnEvent(tick=120, channel=0, data=[84, 0]),
   midi.NoteOnEvent(tick=0, channel=0, data=[83, 32]),
   midi.NoteOnEvent(tick=120, channel=0, data=[83, 0]),
   midi.NoteOnEvent(tick=0, channel=0, data=[81, 32]),
   midi.NoteOnEvent(tick=120, channel=0, data=[81, 0]),
   midi.NoteOnEvent(tick=0, channel=0, data=[79, 32]),
   midi.NoteOnEvent(tick=240, channel=0, data=[79, 0]),
   midi.NoteOnEvent(tick=0, channel=0, data=[78, 32]),
   midi.NoteOnEvent(tick=120, channel=0, data=[78, 0]),
   midi.NoteOnEvent(tick=0, channel=0, data=[76, 32]),
   midi.NoteOnEvent(tick=120, channel=0, data=[76, 0]),
   midi.NoteOnEvent(tick=0, channel=0, data=[74, 32]),
   midi.NoteOnEvent(tick=120, channel=0, data=[74, 0]),
   midi.NoteOnEvent(tick=0, channel=0, data=[76, 32]),
   midi.NoteOnEvent(tick=120, channel=0, data=[76, 0]),
   midi.NoteOnEvent(tick=0, channel=0, data=[74, 32]),
   midi.NoteOnEvent(tick=480, channel=0, data=[74, 0]),
   midi.NoteOnEvent(tick=3360, channel=0, data=[84, 32]),
   midi.NoteOnEvent(tick=720, channel=0, data=[84, 0]),
   midi.NoteOnEvent(tick=0, channel=0, data=[81, 32]),
   midi.NoteOnEvent(tick=240, channel=0, data=[81, 0]),
   midi.NoteOnEvent(tick=0, channel=0, data=[78, 32]),
   midi.NoteOnEvent(tick=240, channel=0, data=[78, 0]),
   midi.NoteOnEvent(tick=0, channel=0, data=[72, 32]),
   midi.NoteOnEvent(tick=240, channel=0, data=[72, 0]),
   midi.NoteOnEvent(tick=0, channel=0, data=[74, 32]),
   midi.NoteOnEvent(tick=240, channel=0, data=[74, 0]),
   midi.NoteOnEvent(tick=0, channel=0, data=[72, 32]),
   midi.NoteOnEvent(tick=240, channel=0, data=[72, 0]),
   midi.NoteOnEvent(tick=0, channel=0, data=[71, 32]),
   midi.NoteOnEvent(tick=480, channel=0, data=[71, 0]),
   midi.NoteOnEvent(tick=480, channel=0, data=[76, 32]),
   midi.NoteOnEvent(tick=720, channel=0, data=[76, 0]),
   midi.NoteOnEvent(tick=0, channel=0, data=[79, 32]),
   midi.NoteOnEvent(tick=240, channel=0, data=[79, 0]),
   midi.NoteOnEvent(tick=0, channel=0, data=[81, 32]),
   midi.NoteOnEvent(tick=60, channel=0, data=[81, 0]),
   midi.NoteOnEvent(tick=0, channel=0, data=[79, 32]),
   midi.NoteOnEvent(tick=120, channel=0, data=[79, 0]),
   midi.NoteOnEvent(tick=0, channel=0, data=[79, 32]),
   midi.NoteOnEvent(tick=60, channel=0, data=[79, 0]),
   midi.NoteOnEvent(tick=0, channel=0, data=[78, 32]),
   midi.NoteOnEvent(tick=120, channel=0, data=[78, 0]),
   midi.NoteOnEvent(tick=0, channel=0, data=[76, 32]),
   midi.NoteOnEvent(tick=120, channel=0, data=[76, 0]),
   midi.NoteOnEvent(tick=0, channel=0, data=[74, 32]),
   midi.NoteOnEvent(tick=480, channel=0, data=[74, 0]),
   midi.NoteOnEvent(tick=0, channel=0, data=[78, 32]),
   midi.NoteOnEvent(tick=240, channel=0, data=[78, 0]),
   midi.NoteOnEvent(tick=0, channel=0, data=[76, 32]),
   midi.NoteOnEvent(tick=120, channel=0, data=[76, 0]),
   midi.NoteOnEvent(tick=0, channel=0, data=[78, 32]),
   midi.NoteOnEvent(tick=120, channel=0, data=[78, 0]),
   midi.NoteOnEvent(tick=0, channel=0, data=[79, 32]),
   midi.ControlChangeEvent(tick=32, channel=0, data=[7, 81]),
   midi.NoteOnEvent(tick=88, channel=0, data=[79, 0]),
   midi.NoteOnEvent(tick=0, channel=0, data=[81, 32]),
   midi.NoteOnEvent(tick=120, channel=0, data=[81, 0]),
   midi.NoteOnEvent(tick=0, channel=0, data=[83, 32]),
   midi.NoteOnEvent(tick=120, channel=0, data=[83, 0]),
   midi.NoteOnEvent(tick=0, channel=0, data=[84, 32]),
   midi.NoteOnEvent(tick=120, channel=0, data=[84, 0]),
   midi.NoteOnEvent(tick=0, channel=0, data=[86, 32]),
   midi.NoteOnEvent(tick=360, channel=0, data=[86, 0]),
   midi.NoteOnEvent(tick=0, channel=0, data=[88, 32]),
   midi.NoteOnEvent(tick=60, channel=0, data=[88, 0]),
   midi.NoteOnEvent(tick=0, channel=0, data=[86, 32]),
   midi.NoteOnEvent(tick=60, channel=0, data=[86, 0]),
   midi.NoteOnEvent(tick=0, channel=0, data=[84, 32]),
   midi.NoteOnEvent(tick=480, channel=0, data=[84, 0]),
   midi.NoteOnEvent(tick=0, channel=0, data=[83, 32]),
   midi.NoteOnEvent(tick=480, channel=0, data=[83, 0]),
   midi.NoteOnEvent(tick=0, channel=0, data=[84, 32]),
   midi.NoteOnEvent(tick=20, channel=0, data=[84, 0]),
   midi.NoteOnEvent(tick=0, channel=0, data=[83, 32]),
   midi.NoteOnEvent(tick=40, channel=0, data=[83, 0]),
   midi.NoteOnEvent(tick=0, channel=0, data=[84, 32]),
   midi.NoteOnEvent(tick=20, channel=0, data=[84, 0]),
   midi.NoteOnEvent(tick=0, channel=0, data=[83, 32]),
   midi.NoteOnEvent(tick=40, channel=0, data=[83, 0]),
   midi.NoteOnEvent(tick=0, channel=0, data=[84, 32]),
   midi.NoteOnEvent(tick=20, channel=0, data=[84, 0]),
   midi.NoteOnEvent(tick=0, channel=0, data=[83, 32]),
   midi.NoteOnEvent(tick=40, channel=0, data=[83, 0]),
   midi.NoteOnEvent(tick=0, channel=0, data=[84, 32]),
   midi.NoteOnEvent(tick=20, channel=0, data=[84, 0]),
   midi.NoteOnEvent(tick=0, channel=0, data=[83, 32]),
   midi.NoteOnEvent(tick=40, channel=0, data=[83, 0]),
   midi.NoteOnEvent(tick=0, channel=0, data=[84, 32]),
   midi.NoteOnEvent(tick=20, channel=0, data=[84, 0]),
   midi.NoteOnEvent(tick=0, channel=0, data=[83, 32]),
   midi.NoteOnEvent(tick=40, channel=0, data=[83, 0]),
   midi.NoteOnEvent(tick=0, channel=0, data=[84, 32]),
   midi.NoteOnEvent(tick=20, channel=0, data=[84, 0]),
   midi.NoteOnEvent(tick=0, channel=0, data=[83, 32]),
   midi.NoteOnEvent(tick=40, channel=0, data=[83, 0]),
   midi.NoteOnEvent(tick=0, channel=0, data=[84, 32]),
   midi.NoteOnEvent(tick=20, channel=0, data=[84, 0]),
   midi.NoteOnEvent(tick=0, channel=0, data=[83, 32]),
   midi.NoteOnEvent(tick=40, channel=0, data=[83, 0]),
   midi.NoteOnEvent(tick=0, channel=0, data=[84, 32]),
   midi.NoteOnEvent(tick=20, channel=0, data=[84, 0]),
   midi.NoteOnEvent(tick=0, channel=0, data=[83, 32]),
   midi.NoteOnEvent(tick=40, channel=0, data=[83, 0]),
   midi.NoteOnEvent(tick=0, channel=0, data=[81, 32]),
   midi.NoteOnEvent(tick=480, channel=0, data=[81, 0]),
   midi.NoteOnEvent(tick=480, channel=0, data=[74, 32]),
   midi.NoteOnEvent(tick=720, channel=0, data=[74, 0]),
   midi.NoteOnEvent(tick=0, channel=0, data=[76, 32]),
   midi.NoteOnEvent(tick=120, channel=0, data=[76, 0]),
   midi.NoteOnEvent(tick=0, channel=0, data=[74, 32]),
   midi.NoteOnEvent(tick=120, channel=0, data=[74, 0]),
   midi.NoteOnEvent(tick=0, channel=0, data=[79, 32]),
   midi.NoteOnEvent(tick=120, channel=0, data=[79, 0]),
   midi.NoteOnEvent(tick=0, channel=0, data=[78, 32]),
   midi.NoteOnEvent(tick=120, channel=0, data=[78, 0]),
   midi.NoteOnEvent(tick=0, channel=0, data=[76, 32]),
   midi.NoteOnEvent(tick=120, channel=0, data=[76, 0]),
   midi.NoteOnEvent(tick=0, channel=0, data=[74, 32]),
   midi.NoteOnEvent(tick=120, channel=0, data=[74, 0]),
   midi.NoteOnEvent(tick=0, channel=0, data=[74, 32]),
   midi.NoteOnEvent(tick=120, channel=0, data=[74, 0]),
   midi.NoteOnEvent(tick=0, channel=0, data=[76, 32]),
   midi.NoteOnEvent(tick=120, channel=0, data=[76, 0]),
   midi.NoteOnEvent(tick=0, channel=0, data=[74, 32]),
   midi.NoteOnEvent(tick=240, channel=0, data=[74, 0]),
   midi.NoteOnEvent(tick=240, channel=0, data=[86, 32]),
   midi.NoteOnEvent(tick=240, channel=0, data=[86, 0]),
   midi.NoteOnEvent(tick=0, channel=0, data=[86, 32]),
   midi.NoteOnEvent(tick=240, channel=0, data=[86, 0]),
   midi.NoteOnEvent(tick=0, channel=0, data=[86, 32]),
   midi.NoteOnEvent(tick=240, channel=0, data=[86, 0]),
   midi.NoteOnEvent(tick=0, channel=0, data=[86, 32]),
   midi.NoteOnEvent(tick=120, channel=0, data=[86, 0]),
   midi.NoteOnEvent(tick=0, channel=0, data=[83, 32]),
   midi.NoteOnEvent(tick=120, channel=0, data=[83, 0]),
   midi.NoteOnEvent(tick=0, channel=0, data=[84, 32]),
   midi.NoteOnEvent(tick=240, channel=0, data=[84, 0]),
   midi.NoteOnEvent(tick=240, channel=0, data=[84, 32]),
   midi.NoteOnEvent(tick=240, channel=0, data=[84, 0]),
   midi.NoteOnEvent(tick=0, channel=0, data=[84, 30]),
   midi.NoteOnEvent(tick=240, channel=0, data=[84, 0]),
   midi.NoteOnEvent(tick=0, channel=0, data=[84, 30]),
   midi.NoteOnEvent(tick=240, channel=0, data=[84, 0]),
   midi.NoteOnEvent(tick=0, channel=0, data=[84, 30]),
   midi.NoteOnEvent(tick=120, channel=0, data=[84, 0]),
   midi.NoteOnEvent(tick=0, channel=0, data=[81, 30]),
   midi.NoteOnEvent(tick=120, channel=0, data=[81, 0]),
   midi.NoteOnEvent(tick=0, channel=0, data=[83, 30]),
   midi.NoteOnEvent(tick=240, channel=0, data=[83, 0]),
   midi.NoteOnEvent(tick=240, channel=0, data=[83, 30]),
   midi.NoteOnEvent(tick=240, channel=0, data=[83, 0]),
   midi.NoteOnEvent(tick=0, channel=0, data=[83, 30]),
   midi.NoteOnEvent(tick=240, channel=0, data=[83, 0]),
   midi.NoteOnEvent(tick=0, channel=0, data=[83, 30]),
   midi.NoteOnEvent(tick=240, channel=0, data=[83, 0]),
   midi.NoteOnEvent(tick=0, channel=0, data=[81, 30]),
   midi.NoteOnEvent(tick=480, channel=0, data=[81, 0]),
   midi.NoteOnEvent(tick=2400, channel=0, data=[83, 30]),
   midi.NoteOnEvent(tick=120, channel=0, data=[83, 0]),
   midi.NoteOnEvent(tick=0, channel=0, data=[81, 30]),
   midi.NoteOnEvent(tick=120, channel=0, data=[81, 0]),
   midi.NoteOnEvent(tick=0, channel=0, data=[83, 30]),
   midi.NoteOnEvent(tick=120, channel=0, data=[83, 0]),
   midi.NoteOnEvent(tick=0, channel=0, data=[84, 30]),
   midi.NoteOnEvent(tick=120, channel=0, data=[84, 0]),
   midi.NoteOnEvent(tick=0, channel=0, data=[86, 30]),
   midi.NoteOnEvent(tick=240, channel=0, data=[86, 0]),
   midi.NoteOnEvent(tick=0, channel=0, data=[79, 30]),
   midi.NoteOnEvent(tick=240, channel=0, data=[79, 0]),
   midi.NoteOnEvent(tick=0, channel=0, data=[79, 30]),
   midi.NoteOnEvent(tick=240, channel=0, data=[79, 0]),
   midi.NoteOnEvent(tick=0, channel=0, data=[79, 30]),
   midi.NoteOnEvent(tick=240, channel=0, data=[79, 0]),
   midi.NoteOnEvent(tick=0, channel=0, data=[84, 30]),
   midi.NoteOnEvent(tick=120, channel=0, data=[84, 0]),
   midi.NoteOnEvent(tick=0, channel=0, data=[81, 30]),
   midi.NoteOnEvent(tick=120, channel=0, data=[81, 0]),
   midi.NoteOnEvent(tick=0, channel=0, data=[83, 30]),
   midi.NoteOnEvent(tick=120, channel=0, data=[83, 0]),
   midi.NoteOnEvent(tick=0, channel=0, data=[79, 30]),
   midi.NoteOnEvent(tick=120, channel=0, data=[79, 0]),
   midi.NoteOnEvent(tick=0, channel=0, data=[79, 30]),
   midi.NoteOnEvent(tick=120, channel=0, data=[79, 0]),
   midi.NoteOnEvent(tick=0, channel=0, data=[78, 30]),
   midi.NoteOnEvent(tick=120, channel=0, data=[78, 0]),
   midi.NoteOnEvent(tick=0, channel=0, data=[81, 30]),
   midi.NoteOnEvent(tick=120, channel=0, data=[81, 0]),
   midi.NoteOnEvent(tick=0, channel=0, data=[78, 30]),
   midi.NoteOnEvent(tick=120, channel=0, data=[78, 0]),
   midi.NoteOnEvent(tick=0, channel=0, data=[74, 30]),
   midi.NoteOnEvent(tick=480, channel=0, data=[74, 0]),
   midi.NoteOnEvent(tick=0, channel=0, data=[86, 30]),
   midi.ControlChangeEvent(tick=1216, channel=0, data=[7, 82]),
   midi.NoteOnEvent(tick=1684, channel=0, data=[86, 0]),
   midi.NoteOnEvent(tick=100, channel=0, data=[67, 30]),
   midi.NoteOnEvent(tick=240, channel=0, data=[67, 0]),
   midi.NoteOnEvent(tick=0, channel=0, data=[71, 30]),
   midi.NoteOnEvent(tick=240, channel=0, data=[71, 0]),
   midi.NoteOnEvent(tick=0, channel=0, data=[74, 30]),
   midi.NoteOnEvent(tick=240, channel=0, data=[74, 0]),
   midi.NoteOnEvent(tick=0, channel=0, data=[79, 30]),
   midi.NoteOnEvent(tick=240, channel=0, data=[79, 0]),
   midi.NoteOnEvent(tick=0, channel=0, data=[86, 30]),
   midi.NoteOnEvent(tick=240, channel=0, data=[86, 0]),
   midi.NoteOnEvent(tick=0, channel=0, data=[77, 30]),
   midi.NoteOnEvent(tick=120, channel=0, data=[77, 0]),
   midi.NoteOnEvent(tick=0, channel=0, data=[76, 30]),
   midi.NoteOnEvent(tick=80, channel=0, data=[76, 0]),
   midi.NoteOnEvent(tick=0, channel=0, data=[79, 30]),
   midi.NoteOnEvent(tick=80, channel=0, data=[79, 0]),
   midi.NoteOnEvent(tick=0, channel=0, data=[76, 30]),
   midi.NoteOnEvent(tick=80, channel=0, data=[76, 0]),
   midi.NoteOnEvent(tick=0, channel=0, data=[72, 30]),
   midi.NoteOnEvent(tick=80, channel=0, data=[72, 0]),
   midi.NoteOnEvent(tick=0, channel=0, data=[76, 30]),
   midi.NoteOnEvent(tick=80, channel=0, data=[76, 0]),
   midi.NoteOnEvent(tick=0, channel=0, data=[72, 30]),
   midi.NoteOnEvent(tick=80, channel=0, data=[72, 0]),
   midi.NoteOnEvent(tick=0, channel=0, data=[67, 30]),
   midi.NoteOnEvent(tick=80, channel=0, data=[67, 0]),
   midi.NoteOnEvent(tick=0, channel=0, data=[72, 30]),
   midi.NoteOnEvent(tick=80, channel=0, data=[72, 0]),
   midi.NoteOnEvent(tick=0, channel=0, data=[67, 30]),
   midi.NoteOnEvent(tick=80, channel=0, data=[67, 0]),
   midi.NoteOnEvent(tick=0, channel=0, data=[64, 30]),
   midi.NoteOnEvent(tick=80, channel=0, data=[64, 0]),
   midi.NoteOnEvent(tick=0, channel=0, data=[67, 30]),
   midi.NoteOnEvent(tick=80, channel=0, data=[67, 0]),
   midi.NoteOnEvent(tick=0, channel=0, data=[64, 30]),
   midi.NoteOnEvent(tick=80, channel=0, data=[64, 0]),
   midi.NoteOnEvent(tick=0, channel=0, data=[60, 30]),
   midi.NoteOnEvent(tick=120, channel=0, data=[60, 0]),
   midi.NoteOnEvent(tick=0, channel=0, data=[79, 30]),
   midi.NoteOnEvent(tick=120, channel=0, data=[79, 0]),
   midi.NoteOnEvent(tick=0, channel=0, data=[76, 30]),
   midi.NoteOnEvent(tick=120, channel=0, data=[76, 0]),
   midi.NoteOnEvent(tick=0, channel=0, data=[72, 30]),
   midi.NoteOnEvent(tick=120, channel=0, data=[72, 0]),
   midi.NoteOnEvent(tick=0, channel=0, data=[71, 30]),
   midi.NoteOnEvent(tick=60, channel=0, data=[71, 0]),
   midi.NoteOnEvent(tick=0, channel=0, data=[74, 30]),
   midi.NoteOnEvent(tick=60, channel=0, data=[74, 0]),
   midi.NoteOnEvent(tick=0, channel=0, data=[72, 30]),
   midi.NoteOnEvent(tick=60, channel=0, data=[72, 0]),
   midi.NoteOnEvent(tick=0, channel=0, data=[71, 30]),
   midi.NoteOnEvent(tick=60, channel=0, data=[71, 0]),
   midi.NoteOnEvent(tick=0, channel=0, data=[72, 30]),
   midi.NoteOnEvent(tick=60, channel=0, data=[72, 0]),
   midi.NoteOnEvent(tick=0, channel=0, data=[74, 30]),
   midi.NoteOnEvent(tick=60, channel=0, data=[74, 0]),
   midi.NoteOnEvent(tick=0, channel=0, data=[76, 30]),
   midi.NoteOnEvent(tick=60, channel=0, data=[76, 0]),
   midi.NoteOnEvent(tick=0, channel=0, data=[77, 30]),
   midi.NoteOnEvent(tick=60, channel=0, data=[77, 0]),
   midi.NoteOnEvent(tick=0, channel=0, data=[79, 30]),
   midi.NoteOnEvent(tick=60, channel=0, data=[79, 0]),
   midi.NoteOnEvent(tick=0, channel=0, data=[81, 30]),
   midi.NoteOnEvent(tick=60, channel=0, data=[81, 0]),
   midi.NoteOnEvent(tick=0, channel=0, data=[83, 30]),
   midi.NoteOnEvent(tick=60, channel=0, data=[83, 0]),
   midi.NoteOnEvent(tick=0, channel=0, data=[84, 30]),
   midi.NoteOnEvent(tick=60, channel=0, data=[84, 0]),
   midi.NoteOnEvent(tick=0, channel=0, data=[86, 30]),
   midi.NoteOnEvent(tick=120, channel=0, data=[86, 0]),
   midi.NoteOnEvent(tick=0, channel=0, data=[83, 30]),
   midi.NoteOnEvent(tick=26, channel=0, data=[83, 0]),
   midi.NoteOnEvent(tick=6, channel=0, data=[81, 30]),
   midi.NoteOnEvent(tick=28, channel=0, data=[81, 0]),
   midi.NoteOnEvent(tick=4, channel=0, data=[83, 30]),
   midi.NoteOnEvent(tick=26, channel=0, data=[83, 0]),
   midi.NoteOnEvent(tick=2, channel=0, data=[81, 30]),
   midi.NoteOnEvent(tick=22, channel=0, data=[81, 0]),
   midi.NoteOnEvent(tick=8, channel=0, data=[83, 30]),
   midi.NoteOnEvent(tick=26, channel=0, data=[83, 0]),
   midi.NoteOnEvent(tick=6, channel=0, data=[81, 30]),
   midi.NoteOnEvent(tick=28, channel=0, data=[81, 0]),
   midi.NoteOnEvent(tick=4, channel=0, data=[83, 30]),
   midi.NoteOnEvent(tick=26, channel=0, data=[83, 0]),
   midi.NoteOnEvent(tick=2, channel=0, data=[81, 30]),
   midi.NoteOnEvent(tick=22, channel=0, data=[81, 0]),
   midi.NoteOnEvent(tick=8, channel=0, data=[83, 30]),
   midi.NoteOnEvent(tick=26, channel=0, data=[83, 0]),
   midi.NoteOnEvent(tick=6, channel=0, data=[81, 30]),
   midi.NoteOnEvent(tick=28, channel=0, data=[81, 0]),
   midi.NoteOnEvent(tick=4, channel=0, data=[83, 30]),
   midi.NoteOnEvent(tick=26, channel=0, data=[83, 0]),
   midi.NoteOnEvent(tick=2, channel=0, data=[81, 30]),
   midi.NoteOnEvent(tick=22, channel=0, data=[81, 0]),
   midi.NoteOnEvent(tick=6, channel=0, data=[83, 30]),
   midi.NoteOnEvent(tick=26, channel=0, data=[83, 0]),
   midi.NoteOnEvent(tick=6, channel=0, data=[81, 30]),
   midi.NoteOnEvent(tick=28, channel=0, data=[81, 0]),
   midi.NoteOnEvent(tick=4, channel=0, data=[83, 30]),
   midi.NoteOnEvent(tick=26, channel=0, data=[83, 0]),
   midi.NoteOnEvent(tick=2, channel=0, data=[81, 30]),
   midi.NoteOnEvent(tick=22, channel=0, data=[81, 0]),
   midi.NoteOnEvent(tick=4, channel=0, data=[83, 30]),
   midi.NoteOnEvent(tick=26, channel=0, data=[83, 0]),
   midi.NoteOnEvent(tick=6, channel=0, data=[81, 30]),
   midi.NoteOnEvent(tick=28, channel=0, data=[81, 0]),
   midi.NoteOnEvent(tick=4, channel=0, data=[83, 30]),
   midi.NoteOnEvent(tick=26, channel=0, data=[83, 0]),
   midi.NoteOnEvent(tick=2, channel=0, data=[81, 30]),
   midi.NoteOnEvent(tick=22, channel=0, data=[81, 0]),
   midi.NoteOnEvent(tick=4, channel=0, data=[79, 30]),
   midi.NoteOnEvent(tick=120, channel=0, data=[79, 0]),
   midi.NoteOnEvent(tick=0, channel=0, data=[81, 30]),
   midi.NoteOnEvent(tick=60, channel=0, data=[81, 0]),
   midi.NoteOnEvent(tick=0, channel=0, data=[83, 30]),
   midi.NoteOnEvent(tick=60, channel=0, data=[83, 0]),
   midi.NoteOnEvent(tick=0, channel=0, data=[84, 30]),
   midi.NoteOnEvent(tick=60, channel=0, data=[84, 0]),
   midi.NoteOnEvent(tick=0, channel=0, data=[86, 30]),
   midi.NoteOnEvent(tick=60, channel=0, data=[86, 0]),
   midi.NoteOnEvent(tick=0, channel=0, data=[88, 30]),
   midi.NoteOnEvent(tick=60, channel=0, data=[88, 0]),
   midi.NoteOnEvent(tick=0, channel=0, data=[90, 30]),
   midi.NoteOnEvent(tick=60, channel=0, data=[90, 0]),
   midi.NoteOnEvent(tick=0, channel=0, data=[91, 30]),
   midi.NoteOnEvent(tick=240, channel=0, data=[91, 0]),
   midi.NoteOnEvent(tick=2160, channel=0, data=[89, 30]),
   midi.NoteOnEvent(tick=1440, channel=0, data=[89, 0]),
   midi.NoteOnEvent(tick=0, channel=0, data=[89, 30]),
   midi.NoteOnEvent(tick=120, channel=0, data=[89, 0]),
   midi.NoteOnEvent(tick=0, channel=0, data=[88, 30]),
   midi.NoteOnEvent(tick=120, channel=0, data=[88, 0]),
   midi.NoteOnEvent(tick=0, channel=0, data=[86, 30]),
   midi.NoteOnEvent(tick=120, channel=0, data=[86, 0]),
   midi.NoteOnEvent(tick=0, channel=0, data=[84, 30]),
   midi.NoteOnEvent(tick=120, channel=0, data=[84, 0]),
   midi.NoteOnEvent(tick=0, channel=0, data=[83, 30]),
   midi.NoteOnEvent(tick=480, channel=0, data=[83, 0]),
   midi.NoteOnEvent(tick=0, channel=0, data=[83, 30]),
   midi.NoteOnEvent(tick=20, channel=0, data=[83, 0]),
   midi.NoteOnEvent(tick=0, channel=0, data=[81, 30]),
   midi.NoteOnEvent(tick=40, channel=0, data=[81, 0]),
   midi.NoteOnEvent(tick=0, channel=0, data=[83, 30]),
   midi.NoteOnEvent(tick=20, channel=0, data=[83, 0]),
   midi.NoteOnEvent(tick=0, channel=0, data=[81, 30]),
   midi.NoteOnEvent(tick=40, channel=0, data=[81, 0]),
   midi.NoteOnEvent(tick=0, channel=0, data=[83, 30]),
   midi.NoteOnEvent(tick=20, channel=0, data=[83, 0]),
   midi.NoteOnEvent(tick=0, channel=0, data=[81, 30]),
   midi.NoteOnEvent(tick=40, channel=0, data=[81, 0]),
   midi.NoteOnEvent(tick=0, channel=0, data=[83, 30]),
   midi.NoteOnEvent(tick=20, channel=0, data=[83, 0]),
   midi.NoteOnEvent(tick=0, channel=0, data=[81, 30]),
   midi.NoteOnEvent(tick=40, channel=0, data=[81, 0]),
   midi.NoteOnEvent(tick=0, channel=0, data=[83, 30]),
   midi.NoteOnEvent(tick=20, channel=0, data=[83, 0]),
   midi.NoteOnEvent(tick=0, channel=0, data=[81, 30]),
   midi.NoteOnEvent(tick=40, channel=0, data=[81, 0]),
   midi.NoteOnEvent(tick=0, channel=0, data=[83, 30]),
   midi.NoteOnEvent(tick=20, channel=0, data=[83, 0]),
   midi.NoteOnEvent(tick=0, channel=0, data=[81, 30]),
   midi.NoteOnEvent(tick=40, channel=0, data=[81, 0]),
   midi.NoteOnEvent(tick=0, channel=0, data=[81, 30]),
   midi.NoteOnEvent(tick=40, channel=0, data=[81, 0]),
   midi.NoteOnEvent(tick=0, channel=0, data=[79, 30]),
   midi.NoteOnEvent(tick=40, channel=0, data=[79, 0]),
   midi.NoteOnEvent(tick=0, channel=0, data=[81, 30]),
   midi.NoteOnEvent(tick=40, channel=0, data=[81, 0]),
   midi.NoteOnEvent(tick=0, channel=0, data=[79, 30]),
   midi.NoteOnEvent(tick=240, channel=0, data=[79, 0]),
   midi.NoteOnEvent(tick=0, channel=0, data=[74, 29]),
   midi.NoteOnEvent(tick=240, channel=0, data=[74, 0]),
   midi.NoteOnEvent(tick=0, channel=0, data=[76, 29]),
   midi.NoteOnEvent(tick=240, channel=0, data=[76, 0]),
   midi.NoteOnEvent(tick=0, channel=0, data=[74, 29]),
   midi.NoteOnEvent(tick=240, channel=0, data=[74, 0]),
   midi.NoteOnEvent(tick=0, channel=0, data=[76, 29]),
   midi.NoteOnEvent(tick=240, channel=0, data=[76, 0]),
   midi.NoteOnEvent(tick=0, channel=0, data=[72, 29]),
   midi.NoteOnEvent(tick=240, channel=0, data=[72, 0]),
   midi.NoteOnEvent(tick=0, channel=0, data=[71, 29]),
   midi.NoteOnEvent(tick=480, channel=0, data=[71, 0]),
   midi.NoteOnEvent(tick=600, channel=0, data=[86, 29]),
   midi.NoteOnEvent(tick=60, channel=0, data=[86, 0]),
   midi.NoteOnEvent(tick=0, channel=0, data=[84, 29]),
   midi.NoteOnEvent(tick=60, channel=0, data=[84, 0]),
   midi.NoteOnEvent(tick=0, channel=0, data=[83, 29]),
   midi.NoteOnEvent(tick=60, channel=0, data=[83, 0]),
   midi.NoteOnEvent(tick=0, channel=0, data=[81, 29]),
   midi.NoteOnEvent(tick=60, channel=0, data=[81, 0]),
   midi.NoteOnEvent(tick=0, channel=0, data=[79, 29]),
   midi.NoteOnEvent(tick=60, channel=0, data=[79, 0]),
   midi.NoteOnEvent(tick=0, channel=0, data=[78, 29]),
   midi.NoteOnEvent(tick=60, channel=0, data=[78, 0]),
   midi.NoteOnEvent(tick=0, channel=0, data=[78, 29]),
   midi.NoteOnEvent(tick=960, channel=0, data=[78, 0]),
   midi.NoteOnEvent(tick=0, channel=0, data=[79, 29]),
   midi.NoteOnEvent(tick=240, channel=0, data=[79, 0]),
   midi.ControlChangeEvent(tick=239, channel=0, data=[7, 84]),
   midi.NoteOnEvent(tick=1, channel=0, data=[79, 94]),
   midi.ControlChangeEvent(tick=0, channel=0, data=[7, 124]),
   midi.NoteOnEvent(tick=480, channel=0, data=[79, 0]),
   midi.NoteOnEvent(tick=0, channel=0, data=[81, 79]),
   midi.ControlChangeEvent(tick=47, channel=0, data=[7, 108]),
   midi.NoteOnEvent(tick=13, channel=0, data=[81, 0]),
   midi.NoteOnEvent(tick=0, channel=0, data=[79, 79]),
   midi.NoteOnEvent(tick=60, channel=0, data=[79, 0]),
   midi.NoteOnEvent(tick=0, channel=0, data=[78, 79]),
   midi.NoteOnEvent(tick=120, channel=0, data=[78, 0]),
   midi.NoteOnEvent(tick=0, channel=0, data=[79, 79]),
   midi.NoteOnEvent(tick=120, channel=0, data=[79, 0]),
   midi.NoteOnEvent(tick=0, channel=0, data=[81, 79]),
   midi.NoteOnEvent(tick=120, channel=0, data=[81, 0]),
   midi.NoteOnEvent(tick=0, channel=0, data=[79, 79]),
   midi.NoteOnEvent(tick=240, channel=0, data=[79, 0]),
   midi.NoteOnEvent(tick=0, channel=0, data=[79, 79]),
   midi.NoteOnEvent(tick=240, channel=0, data=[79, 0]),
   midi.NoteOnEvent(tick=0, channel=0, data=[78, 79]),
   midi.NoteOnEvent(tick=240, channel=0, data=[78, 0]),
   midi.NoteOnEvent(tick=0, channel=0, data=[81, 79]),
   midi.NoteOnEvent(tick=240, channel=0, data=[81, 0]),
   midi.NoteOnEvent(tick=0, channel=0, data=[79, 79]),
   midi.NoteOnEvent(tick=240, channel=0, data=[79, 0]),
   midi.NoteOnEvent(tick=0, channel=0, data=[83, 79]),
   midi.NoteOnEvent(tick=240, channel=0, data=[83, 0]),
   midi.NoteOnEvent(tick=0, channel=0, data=[81, 79]),
   midi.NoteOnEvent(tick=240, channel=0, data=[81, 0]),
   midi.NoteOnEvent(tick=0, channel=0, data=[84, 79]),
   midi.NoteOnEvent(tick=240, channel=0, data=[84, 0]),
   midi.NoteOnEvent(tick=0, channel=0, data=[83, 79]),
   midi.NoteOnEvent(tick=240, channel=0, data=[83, 0]),
   midi.NoteOnEvent(tick=720, channel=0, data=[79, 79]),
   midi.NoteOnEvent(tick=960, channel=0, data=[79, 0]),
   midi.NoteOnEvent(tick=0, channel=0, data=[74, 79]),
   midi.NoteOnEvent(tick=960, channel=0, data=[74, 0]),
   midi.NoteOnEvent(tick=0, channel=0, data=[72, 79]),
   midi.NoteOnEvent(tick=240, channel=0, data=[72, 0]),
   midi.NoteOnEvent(tick=0, channel=0, data=[71, 79]),
   midi.NoteOnEvent(tick=240, channel=0, data=[71, 0]),
   midi.NoteOnEvent(tick=0, channel=0, data=[69, 79]),
   midi.NoteOnEvent(tick=240, channel=0, data=[69, 0]),
   midi.NoteOnEvent(tick=0, channel=0, data=[67, 79]),
   midi.NoteOnEvent(tick=240, channel=0, data=[67, 0]),
   midi.NoteOnEvent(tick=0, channel=0, data=[74, 79]),
   midi.NoteOnEvent(tick=480, channel=0, data=[74, 0]),
   midi.NoteOnEvent(tick=0, channel=0, data=[62, 79]),
   midi.NoteOnEvent(tick=480, channel=0, data=[62, 0]),
   midi.NoteOnEvent(tick=0, channel=0, data=[67, 79]),
   midi.NoteOnEvent(tick=480, channel=0, data=[67, 0]),
   midi.NoteOnEvent(tick=0, channel=0, data=[81, 79]),
   midi.NoteOnEvent(tick=60, channel=0, data=[81, 0]),
   midi.NoteOnEvent(tick=0, channel=0, data=[79, 79]),
   midi.NoteOnEvent(tick=60, channel=0, data=[79, 0]),
   midi.NoteOnEvent(tick=0, channel=0, data=[78, 79]),
   midi.NoteOnEvent(tick=120, channel=0, data=[78, 0]),
   midi.NoteOnEvent(tick=0, channel=0, data=[79, 79]),
   midi.NoteOnEvent(tick=120, channel=0, data=[79, 0]),
   midi.NoteOnEvent(tick=0, channel=0, data=[81, 79]),
   midi.NoteOnEvent(tick=120, channel=0, data=[81, 0]),
   midi.NoteOnEvent(tick=0, channel=0, data=[79, 79]),
   midi.NoteOnEvent(tick=240, channel=0, data=[79, 0]),
   midi.NoteOnEvent(tick=0, channel=0, data=[79, 79]),
   midi.NoteOnEvent(tick=240, channel=0, data=[79, 0]),
   midi.NoteOnEvent(tick=0, channel=0, data=[78, 79]),
   midi.NoteOnEvent(tick=240, channel=0, data=[78, 0]),
   midi.NoteOnEvent(tick=0, channel=0, data=[81, 79]),
   midi.NoteOnEvent(tick=240, channel=0, data=[81, 0]),
   midi.NoteOnEvent(tick=0, channel=0, data=[79, 79]),
   midi.NoteOnEvent(tick=240, channel=0, data=[79, 0]),
   midi.NoteOnEvent(tick=0, channel=0, data=[83, 79]),
   midi.NoteOnEvent(tick=240, channel=0, data=[83, 0]),
   midi.NoteOnEvent(tick=0, channel=0, data=[81, 79]),
   midi.NoteOnEvent(tick=240, channel=0, data=[81, 0]),
   midi.NoteOnEvent(tick=0, channel=0, data=[84, 79]),
   midi.NoteOnEvent(tick=240, channel=0, data=[84, 0]),
   midi.NoteOnEvent(tick=0, channel=0, data=[83, 79]),
   midi.NoteOnEvent(tick=240, channel=0, data=[83, 0]),
   midi.NoteOnEvent(tick=720, channel=0, data=[79, 79]),
   midi.NoteOnEvent(tick=960, channel=0, data=[79, 0]),
   midi.NoteOnEvent(tick=0, channel=0, data=[74, 79]),
   midi.NoteOnEvent(tick=960, channel=0, data=[74, 0]),
   midi.NoteOnEvent(tick=0, channel=0, data=[72, 79]),
   midi.NoteOnEvent(tick=240, channel=0, data=[72, 0]),
   midi.NoteOnEvent(tick=0, channel=0, data=[71, 79]),
   midi.NoteOnEvent(tick=240, channel=0, data=[71, 0]),
   midi.NoteOnEvent(tick=0, channel=0, data=[69, 79]),
   midi.NoteOnEvent(tick=240, channel=0, data=[69, 0]),
   midi.NoteOnEvent(tick=0, channel=0, data=[67, 79]),
   midi.NoteOnEvent(tick=240, channel=0, data=[67, 0]),
   midi.NoteOnEvent(tick=0, channel=0, data=[74, 79]),
   midi.NoteOnEvent(tick=480, channel=0, data=[74, 0]),
   midi.NoteOnEvent(tick=0, channel=0, data=[62, 79]),
   midi.NoteOnEvent(tick=480, channel=0, data=[62, 0]),
   midi.NoteOnEvent(tick=0, channel=0, data=[67, 79]),
   midi.NoteOnEvent(tick=480, channel=0, data=[67, 0]),
   midi.NoteOnEvent(tick=480, channel=0, data=[79, 79]),
   midi.NoteOnEvent(tick=720, channel=0, data=[79, 0]),
   midi.NoteOnEvent(tick=0, channel=0, data=[83, 79]),
   midi.NoteOnEvent(tick=120, channel=0, data=[83, 0]),
   midi.NoteOnEvent(tick=0, channel=0, data=[79, 79]),
   midi.NoteOnEvent(tick=120, channel=0, data=[79, 0]),
   midi.NoteOnEvent(tick=0, channel=0, data=[78, 79]),
   midi.NoteOnEvent(tick=480, channel=0, data=[78, 0]),
   midi.NoteOnEvent(tick=480, channel=0, data=[81, 79]),
   midi.NoteOnEvent(tick=720, channel=0, data=[81, 0]),
   midi.NoteOnEvent(tick=0, channel=0, data=[84, 79]),
   midi.NoteOnEvent(tick=120, channel=0, data=[84, 0]),
   midi.NoteOnEvent(tick=0, channel=0, data=[81, 79]),
   midi.NoteOnEvent(tick=120, channel=0, data=[81, 0]),
   midi.NoteOnEvent(tick=0, channel=0, data=[79, 79]),
   midi.NoteOnEvent(tick=480, channel=0, data=[79, 0]),
   midi.NoteOnEvent(tick=480, channel=0, data=[79, 79]),
   midi.NoteOnEvent(tick=720, channel=0, data=[79, 0]),
   midi.NoteOnEvent(tick=0, channel=0, data=[83, 79]),
   midi.NoteOnEvent(tick=120, channel=0, data=[83, 0]),
   midi.NoteOnEvent(tick=0, channel=0, data=[79, 79]),
   midi.NoteOnEvent(tick=120, channel=0, data=[79, 0]),
   midi.NoteOnEvent(tick=0, channel=0, data=[78, 79]),
   midi.NoteOnEvent(tick=480, channel=0, data=[78, 0]),
   midi.NoteOnEvent(tick=480, channel=0, data=[81, 79]),
   midi.NoteOnEvent(tick=720, channel=0, data=[81, 0]),
   midi.NoteOnEvent(tick=0, channel=0, data=[84, 79]),
   midi.NoteOnEvent(tick=120, channel=0, data=[84, 0]),
   midi.NoteOnEvent(tick=0, channel=0, data=[81, 79]),
   midi.NoteOnEvent(tick=120, channel=0, data=[81, 0]),
   midi.NoteOnEvent(tick=0, channel=0, data=[79, 79]),
   midi.NoteOnEvent(tick=240, channel=0, data=[79, 0]),
   midi.NoteOnEvent(tick=0, channel=0, data=[55, 79]),
   midi.NoteOnEvent(tick=240, channel=0, data=[55, 0]),
   midi.NoteOnEvent(tick=0, channel=0, data=[57, 79]),
   midi.NoteOnEvent(tick=240, channel=0, data=[57, 0]),
   midi.NoteOnEvent(tick=0, channel=0, data=[59, 79]),
   midi.NoteOnEvent(tick=240, channel=0, data=[59, 0]),
   midi.NoteOnEvent(tick=0, channel=0, data=[60, 79]),
   midi.NoteOnEvent(tick=240, channel=0, data=[60, 0]),
   midi.NoteOnEvent(tick=0, channel=0, data=[62, 79]),
   midi.NoteOnEvent(tick=240, channel=0, data=[62, 0]),
   midi.NoteOnEvent(tick=0, channel=0, data=[64, 79]),
   midi.NoteOnEvent(tick=240, channel=0, data=[64, 0]),
   midi.NoteOnEvent(tick=0, channel=0, data=[66, 79]),
   midi.NoteOnEvent(tick=240, channel=0, data=[66, 0]),
   midi.NoteOnEvent(tick=0, channel=0, data=[67, 79]),
   midi.NoteOnEvent(tick=240, channel=0, data=[67, 0]),
   midi.NoteOnEvent(tick=0, channel=0, data=[66, 79]),
   midi.NoteOnEvent(tick=240, channel=0, data=[66, 0]),
   midi.NoteOnEvent(tick=0, channel=0, data=[64, 79]),
   midi.NoteOnEvent(tick=240, channel=0, data=[64, 0]),
   midi.NoteOnEvent(tick=0, channel=0, data=[62, 79]),
   midi.NoteOnEvent(tick=240, channel=0, data=[62, 0]),
   midi.NoteOnEvent(tick=0, channel=0, data=[60, 79]),
   midi.NoteOnEvent(tick=240, channel=0, data=[60, 0]),
   midi.NoteOnEvent(tick=0, channel=0, data=[59, 79]),
   midi.NoteOnEvent(tick=240, channel=0, data=[59, 0]),
   midi.NoteOnEvent(tick=0, channel=0, data=[57, 79]),
   midi.NoteOnEvent(tick=240, channel=0, data=[57, 0]),
   midi.NoteOnEvent(tick=0, channel=0, data=[55, 79]),
   midi.NoteOnEvent(tick=240, channel=0, data=[55, 0]),
   midi.NoteOnEvent(tick=0, channel=0, data=[62, 79]),
   midi.NoteOnEvent(tick=480, channel=0, data=[62, 0]),
   midi.NoteOnEvent(tick=0, channel=0, data=[78, 79]),
   midi.NoteOnEvent(tick=480, channel=0, data=[78, 0]),
   midi.NoteOnEvent(tick=0, channel=0, data=[78, 79]),
   midi.NoteOnEvent(tick=480, channel=0, data=[78, 0]),
   midi.NoteOnEvent(tick=480, channel=0, data=[74, 79]),
   midi.NoteOnEvent(tick=960, channel=0, data=[74, 0]),
   midi.NoteOnEvent(tick=0, channel=0, data=[78, 79]),
   midi.NoteOnEvent(tick=480, channel=0, data=[78, 0]),
   midi.NoteOnEvent(tick=0, channel=0, data=[81, 79]),
   midi.NoteOnEvent(tick=480, channel=0, data=[81, 0]),
   midi.NoteOnEvent(tick=0, channel=0, data=[86, 79]),
   midi.NoteOnEvent(tick=1440, channel=0, data=[86, 0]),
   midi.NoteOnEvent(tick=0, channel=0, data=[88, 79]),
   midi.NoteOnEvent(tick=480, channel=0, data=[88, 0]),
   midi.NoteOnEvent(tick=0, channel=0, data=[90, 79]),
   midi.NoteOnEvent(tick=480, channel=0, data=[90, 0]),
   midi.NoteOnEvent(tick=0, channel=0, data=[90, 79]),
   midi.NoteOnEvent(tick=960, channel=0, data=[90, 0]),
   midi.NoteOnEvent(tick=0, channel=0, data=[91, 79]),
   midi.NoteOnEvent(tick=240, channel=0, data=[91, 0]),
   midi.NoteOnEvent(tick=0, channel=0, data=[88, 79]),
   midi.NoteOnEvent(tick=240, channel=0, data=[88, 0]),
   midi.NoteOnEvent(tick=0, channel=0, data=[90, 79]),
   midi.NoteOnEvent(tick=480, channel=0, data=[90, 0]),
   midi.NoteOnEvent(tick=0, channel=0, data=[78, 79]),
   midi.NoteOnEvent(tick=960, channel=0, data=[78, 0]),
   midi.NoteOnEvent(tick=0, channel=0, data=[79, 79]),
   midi.NoteOnEvent(tick=240, channel=0, data=[79, 0]),
   midi.NoteOnEvent(tick=0, channel=0, data=[76, 79]),
   midi.NoteOnEvent(tick=240, channel=0, data=[76, 0]),
   midi.NoteOnEvent(tick=0, channel=0, data=[74, 79]),
   midi.NoteOnEvent(tick=960, channel=0, data=[74, 0]),
   midi.NoteOnEvent(tick=0, channel=0, data=[78, 79]),
   midi.NoteOnEvent(tick=480, channel=0, data=[78, 0]),
   midi.NoteOnEvent(tick=0, channel=0, data=[81, 79]),
   midi.NoteOnEvent(tick=480, channel=0, data=[81, 0]),
   midi.NoteOnEvent(tick=0, channel=0, data=[86, 79]),
   midi.NoteOnEvent(tick=120, channel=0, data=[86, 0]),
   midi.NoteOnEvent(tick=0, channel=0, data=[81, 79]),
   midi.NoteOnEvent(tick=120, channel=0, data=[81, 0]),
   midi.NoteOnEvent(tick=0, channel=0, data=[83, 79]),
   midi.NoteOnEvent(tick=120, channel=0, data=[83, 0]),
   midi.NoteOnEvent(tick=0, channel=0, data=[81, 79]),
   midi.NoteOnEvent(tick=120, channel=0, data=[81, 0]),
   midi.NoteOnEvent(tick=0, channel=0, data=[86, 79]),
   midi.NoteOnEvent(tick=120, channel=0, data=[86, 0]),
   midi.NoteOnEvent(tick=0, channel=0, data=[81, 79]),
   midi.NoteOnEvent(tick=120, channel=0, data=[81, 0]),
   midi.NoteOnEvent(tick=0, channel=0, data=[83, 79]),
   midi.NoteOnEvent(tick=120, channel=0, data=[83, 0]),
   midi.NoteOnEvent(tick=0, channel=0, data=[81, 79]),
   midi.NoteOnEvent(tick=120, channel=0, data=[81, 0]),
   midi.NoteOnEvent(tick=0, channel=0, data=[86, 79]),
   midi.NoteOnEvent(tick=240, channel=0, data=[86, 0]),
   midi.NoteOnEvent(tick=720, channel=0, data=[91, 79]),
   midi.NoteOnEvent(tick=480, channel=0, data=[91, 0]),
   midi.NoteOnEvent(tick=0, channel=0, data=[90, 79]),
   midi.NoteOnEvent(tick=960, channel=0, data=[90, 0]),
   midi.NoteOnEvent(tick=0, channel=0, data=[88, 79]),
   midi.NoteOnEvent(tick=480, channel=0, data=[88, 0]),
   midi.NoteOnEvent(tick=0, channel=0, data=[86, 79]),
   midi.NoteOnEvent(tick=120, channel=0, data=[86, 0]),
   midi.NoteOnEvent(tick=0, channel=0, data=[81, 79]),
   midi.NoteOnEvent(tick=120, channel=0, data=[81, 0]),
   midi.NoteOnEvent(tick=0, channel=0, data=[83, 79]),
   midi.NoteOnEvent(tick=120, channel=0, data=[83, 0]),
   midi.NoteOnEvent(tick=0, channel=0, data=[81, 79]),
   midi.NoteOnEvent(tick=120, channel=0, data=[81, 0]),
   midi.NoteOnEvent(tick=0, channel=0, data=[86, 79]),
   midi.NoteOnEvent(tick=120, channel=0, data=[86, 0]),
   midi.NoteOnEvent(tick=0, channel=0, data=[81, 79]),
   midi.NoteOnEvent(tick=120, channel=0, data=[81, 0]),
   midi.NoteOnEvent(tick=0, channel=0, data=[83, 79]),
   midi.NoteOnEvent(tick=120, channel=0, data=[83, 0]),
   midi.NoteOnEvent(tick=0, channel=0, data=[81, 79]),
   midi.NoteOnEvent(tick=120, channel=0, data=[81, 0]),
   midi.NoteOnEvent(tick=0, channel=0, data=[86, 79]),
   midi.NoteOnEvent(tick=240, channel=0, data=[86, 0]),
   midi.NoteOnEvent(tick=720, channel=0, data=[91, 79]),
   midi.NoteOnEvent(tick=480, channel=0, data=[91, 0]),
   midi.NoteOnEvent(tick=0, channel=0, data=[90, 79]),
   midi.NoteOnEvent(tick=960, channel=0, data=[90, 0]),
   midi.NoteOnEvent(tick=0, channel=0, data=[88, 79]),
   midi.NoteOnEvent(tick=480, channel=0, data=[88, 0]),
   midi.NoteOnEvent(tick=0, channel=0, data=[86, 79]),
   midi.NoteOnEvent(tick=480, channel=0, data=[86, 0]),
   midi.NoteOnEvent(tick=1560, channel=0, data=[67, 79]),
   midi.NoteOnEvent(tick=120, channel=0, data=[67, 0]),
   midi.NoteOnEvent(tick=0, channel=0, data=[69, 79]),
   midi.NoteOnEvent(tick=120, channel=0, data=[69, 0]),
   midi.NoteOnEvent(tick=0, channel=0, data=[71, 79]),
   midi.NoteOnEvent(tick=120, channel=0, data=[71, 0]),
   midi.NoteOnEvent(tick=0, channel=0, data=[72, 79]),
   midi.NoteOnEvent(tick=120, channel=0, data=[72, 0]),
   midi.NoteOnEvent(tick=0, channel=0, data=[74, 79]),
   midi.NoteOnEvent(tick=120, channel=0, data=[74, 0]),
   midi.NoteOnEvent(tick=0, channel=0, data=[76, 79]),
   midi.NoteOnEvent(tick=120, channel=0, data=[76, 0]),
   midi.NoteOnEvent(tick=0, channel=0, data=[78, 79]),
   midi.NoteOnEvent(tick=120, channel=0, data=[78, 0]),
   midi.NoteOnEvent(tick=0, channel=0, data=[79, 79]),
   midi.NoteOnEvent(tick=120, channel=0, data=[79, 0]),
   midi.NoteOnEvent(tick=0, channel=0, data=[74, 79]),
   midi.NoteOnEvent(tick=120, channel=0, data=[74, 0]),
   midi.NoteOnEvent(tick=0, channel=0, data=[76, 79]),
   midi.NoteOnEvent(tick=120, channel=0, data=[76, 0]),
   midi.NoteOnEvent(tick=0, channel=0, data=[78, 79]),
   midi.NoteOnEvent(tick=120, channel=0, data=[78, 0]),
   midi.NoteOnEvent(tick=0, channel=0, data=[79, 79]),
   midi.NoteOnEvent(tick=120, channel=0, data=[79, 0]),
   midi.NoteOnEvent(tick=0, channel=0, data=[81, 79]),
   midi.NoteOnEvent(tick=120, channel=0, data=[81, 0]),
   midi.NoteOnEvent(tick=0, channel=0, data=[83, 79]),
   midi.NoteOnEvent(tick=120, channel=0, data=[83, 0]),
   midi.NoteOnEvent(tick=0, channel=0, data=[84, 79]),
   midi.NoteOnEvent(tick=120, channel=0, data=[84, 0]),
   midi.NoteOnEvent(tick=0, channel=0, data=[86, 79]),
   midi.NoteOnEvent(tick=960, channel=0, data=[86, 0]),
   midi.NoteOnEvent(tick=0, channel=0, data=[85, 79]),
   midi.NoteOnEvent(tick=480, channel=0, data=[85, 0]),
   midi.NoteOnEvent(tick=0, channel=0, data=[83, 79]),
   midi.NoteOnEvent(tick=480, channel=0, data=[83, 0]),
   midi.NoteOnEvent(tick=0, channel=0, data=[81, 79]),
   midi.NoteOnEvent(tick=720, channel=0, data=[81, 0]),
   midi.NoteOnEvent(tick=0, channel=0, data=[83, 79]),
   midi.NoteOnEvent(tick=240, channel=0, data=[83, 0]),
   midi.NoteOnEvent(tick=0, channel=0, data=[74, 79]),
   midi.NoteOnEvent(tick=480, channel=0, data=[74, 0]),
   midi.NoteOnEvent(tick=0, channel=0, data=[73, 79]),
   midi.NoteOnEvent(tick=480, channel=0, data=[73, 0]),
   midi.NoteOnEvent(tick=0, channel=0, data=[62, 79]),
   midi.NoteOnEvent(tick=120, channel=0, data=[62, 0]),
   midi.NoteOnEvent(tick=0, channel=0, data=[74, 79]),
   midi.NoteOnEvent(tick=120, channel=0, data=[74, 0]),
   midi.NoteOnEvent(tick=0, channel=0, data=[73, 79]),
   midi.NoteOnEvent(tick=120, channel=0, data=[73, 0]),
   midi.NoteOnEvent(tick=0, channel=0, data=[74, 79]),
   midi.NoteOnEvent(tick=120, channel=0, data=[74, 0]),
   midi.NoteOnEvent(tick=0, channel=0, data=[72, 79]),
   midi.NoteOnEvent(tick=120, channel=0, data=[72, 0]),
   midi.NoteOnEvent(tick=0, channel=0, data=[74, 79]),
   midi.NoteOnEvent(tick=120, channel=0, data=[74, 0]),
   midi.NoteOnEvent(tick=0, channel=0, data=[71, 79]),
   midi.NoteOnEvent(tick=120, channel=0, data=[71, 0]),
   midi.NoteOnEvent(tick=0, channel=0, data=[74, 79]),
   midi.NoteOnEvent(tick=120, channel=0, data=[74, 0]),
   midi.NoteOnEvent(tick=0, channel=0, data=[69, 79]),
   midi.NoteOnEvent(tick=120, channel=0, data=[69, 0]),
   midi.NoteOnEvent(tick=0, channel=0, data=[74, 79]),
   midi.NoteOnEvent(tick=120, channel=0, data=[74, 0]),
   midi.NoteOnEvent(tick=0, channel=0, data=[71, 79]),
   midi.NoteOnEvent(tick=120, channel=0, data=[71, 0]),
   midi.NoteOnEvent(tick=0, channel=0, data=[74, 79]),
   midi.NoteOnEvent(tick=120, channel=0, data=[74, 0]),
   midi.NoteOnEvent(tick=0, channel=0, data=[72, 79]),
   midi.NoteOnEvent(tick=120, channel=0, data=[72, 0]),
   midi.NoteOnEvent(tick=0, channel=0, data=[74, 79]),
   midi.NoteOnEvent(tick=120, channel=0, data=[74, 0]),
   midi.NoteOnEvent(tick=0, channel=0, data=[69, 79]),
   midi.NoteOnEvent(tick=120, channel=0, data=[69, 0]),
   midi.NoteOnEvent(tick=0, channel=0, data=[74, 79]),
   midi.NoteOnEvent(tick=120, channel=0, data=[74, 0]),
   midi.NoteOnEvent(tick=0, channel=0, data=[71, 79]),
   midi.NoteOnEvent(tick=480, channel=0, data=[71, 0]),
   midi.NoteOnEvent(tick=600, channel=0, data=[71, 79]),
   midi.NoteOnEvent(tick=120, channel=0, data=[71, 0]),
   midi.NoteOnEvent(tick=0, channel=0, data=[72, 79]),
   midi.NoteOnEvent(tick=120, channel=0, data=[72, 0]),
   midi.NoteOnEvent(tick=0, channel=0, data=[74, 79]),
   midi.NoteOnEvent(tick=120, channel=0, data=[74, 0]),
   midi.NoteOnEvent(tick=0, channel=0, data=[76, 79]),
   midi.NoteOnEvent(tick=120, channel=0, data=[76, 0]),
   midi.NoteOnEvent(tick=0, channel=0, data=[78, 79]),
   midi.NoteOnEvent(tick=120, channel=0, data=[78, 0]),
   midi.NoteOnEvent(tick=0, channel=0, data=[79, 79]),
   midi.NoteOnEvent(tick=120, channel=0, data=[79, 0]),
   midi.NoteOnEvent(tick=0, channel=0, data=[81, 79]),
   midi.NoteOnEvent(tick=120, channel=0, data=[81, 0]),
   midi.NoteOnEvent(tick=0, channel=0, data=[83, 79]),
   midi.NoteOnEvent(tick=960, channel=0, data=[83, 0]),
   midi.NoteOnEvent(tick=0, channel=0, data=[81, 79]),
   midi.NoteOnEvent(tick=480, channel=0, data=[81, 0]),
   midi.NoteOnEvent(tick=0, channel=0, data=[79, 79]),
   midi.NoteOnEvent(tick=480, channel=0, data=[79, 0]),
   midi.NoteOnEvent(tick=0, channel=0, data=[78, 79]),
   midi.NoteOnEvent(tick=720, channel=0, data=[78, 0]),
   midi.NoteOnEvent(tick=0, channel=0, data=[79, 79]),
   midi.NoteOnEvent(tick=240, channel=0, data=[79, 0]),
   midi.NoteOnEvent(tick=0, channel=0, data=[78, 79]),
   midi.NoteOnEvent(tick=480, channel=0, data=[78, 0]),
   midi.NoteOnEvent(tick=0, channel=0, data=[76, 79]),
   midi.NoteOnEvent(tick=480, channel=0, data=[76, 0]),
   midi.NoteOnEvent(tick=0, channel=0, data=[74, 79]),
   midi.NoteOnEvent(tick=480, channel=0, data=[74, 0]),
   midi.NoteOnEvent(tick=0, channel=0, data=[81, 79]),
   midi.NoteOnEvent(tick=120, channel=0, data=[81, 0]),
   midi.NoteOnEvent(tick=0, channel=0, data=[79, 79]),
   midi.NoteOnEvent(tick=120, channel=0, data=[79, 0]),
   midi.NoteOnEvent(tick=0, channel=0, data=[78, 79]),
   midi.NoteOnEvent(tick=120, channel=0, data=[78, 0]),
   midi.NoteOnEvent(tick=0, channel=0, data=[76, 79]),
   midi.NoteOnEvent(tick=120, channel=0, data=[76, 0]),
   midi.NoteOnEvent(tick=0, channel=0, data=[78, 79]),
   midi.NoteOnEvent(tick=240, channel=0, data=[78, 0]),
   midi.NoteOnEvent(tick=0, channel=0, data=[81, 79]),
   midi.NoteOnEvent(tick=240, channel=0, data=[81, 0]),
   midi.NoteOnEvent(tick=240, channel=0, data=[73, 79]),
   midi.NoteOnEvent(tick=240, channel=0, data=[73, 0]),
   midi.NoteOnEvent(tick=0, channel=0, data=[74, 79]),
   midi.NoteOnEvent(tick=480, channel=0, data=[74, 0]),
   midi.NoteOnEvent(tick=0, channel=0, data=[81, 79]),
   midi.NoteOnEvent(tick=120, channel=0, data=[81, 0]),
   midi.NoteOnEvent(tick=0, channel=0, data=[79, 79]),
   midi.NoteOnEvent(tick=120, channel=0, data=[79, 0]),
   midi.NoteOnEvent(tick=0, channel=0, data=[78, 79]),
   midi.NoteOnEvent(tick=120, channel=0, data=[78, 0]),
   midi.NoteOnEvent(tick=0, channel=0, data=[76, 79]),
   midi.NoteOnEvent(tick=120, channel=0, data=[76, 0]),
   midi.NoteOnEvent(tick=0, channel=0, data=[78, 79]),
   midi.NoteOnEvent(tick=240, channel=0, data=[78, 0]),
   midi.NoteOnEvent(tick=0, channel=0, data=[81, 79]),
   midi.NoteOnEvent(tick=240, channel=0, data=[81, 0]),
   midi.NoteOnEvent(tick=240, channel=0, data=[73, 79]),
   midi.NoteOnEvent(tick=240, channel=0, data=[73, 0]),
   midi.NoteOnEvent(tick=0, channel=0, data=[74, 79]),
   midi.NoteOnEvent(tick=480, channel=0, data=[74, 0]),
   midi.NoteOnEvent(tick=0, channel=0, data=[78, 79]),
   midi.NoteOnEvent(tick=480, channel=0, data=[78, 0]),
   midi.NoteOnEvent(tick=0, channel=0, data=[78, 79]),
   midi.NoteOnEvent(tick=480, channel=0, data=[78, 0]),
   midi.NoteOnEvent(tick=480, channel=0, data=[79, 79]),
   midi.ControlChangeEvent(tick=48, channel=0, data=[7, 124]),
   midi.NoteOnEvent(tick=432, channel=0, data=[79, 0]),
   midi.NoteOnEvent(tick=0, channel=0, data=[81, 79]),
   midi.NoteOnEvent(tick=60, channel=0, data=[81, 0]),
   midi.NoteOnEvent(tick=0, channel=0, data=[79, 79]),
   midi.NoteOnEvent(tick=60, channel=0, data=[79, 0]),
   midi.NoteOnEvent(tick=0, channel=0, data=[78, 79]),
   midi.NoteOnEvent(tick=120, channel=0, data=[78, 0]),
   midi.NoteOnEvent(tick=0, channel=0, data=[79, 79]),
   midi.ControlChangeEvent(tick=95, channel=0, data=[7, 110]),
   midi.NoteOnEvent(tick=25, channel=0, data=[79, 0]),
   midi.NoteOnEvent(tick=0, channel=0, data=[81, 79]),
   midi.NoteOnEvent(tick=120, channel=0, data=[81, 0]),
   midi.NoteOnEvent(tick=0, channel=0, data=[79, 79]),
   midi.NoteOnEvent(tick=240, channel=0, data=[79, 0]),
   midi.NoteOnEvent(tick=0, channel=0, data=[79, 79]),
   midi.NoteOnEvent(tick=240, channel=0, data=[79, 0]),
   midi.NoteOnEvent(tick=0, channel=0, data=[78, 79]),
   midi.NoteOnEvent(tick=240, channel=0, data=[78, 0]),
   midi.NoteOnEvent(tick=0, channel=0, data=[81, 79]),
   midi.NoteOnEvent(tick=240, channel=0, data=[81, 0]),
   midi.NoteOnEvent(tick=0, channel=0, data=[79, 79]),
   midi.NoteOnEvent(tick=240, channel=0, data=[79, 0]),
   midi.NoteOnEvent(tick=0, channel=0, data=[83, 79]),
   midi.NoteOnEvent(tick=240, channel=0, data=[83, 0]),
   midi.NoteOnEvent(tick=0, channel=0, data=[81, 79]),
   midi.NoteOnEvent(tick=240, channel=0, data=[81, 0]),
   midi.NoteOnEvent(tick=0, channel=0, data=[84, 79]),
   midi.NoteOnEvent(tick=240, channel=0, data=[84, 0]),
   midi.NoteOnEvent(tick=0, channel=0, data=[83, 79]),
   midi.NoteOnEvent(tick=240, channel=0, data=[83, 0]),
   midi.NoteOnEvent(tick=720, channel=0, data=[79, 79]),
   midi.NoteOnEvent(tick=960, channel=0, data=[79, 0]),
   midi.NoteOnEvent(tick=0, channel=0, data=[74, 79]),
   midi.NoteOnEvent(tick=960, channel=0, data=[74, 0]),
   midi.NoteOnEvent(tick=0, channel=0, data=[72, 79]),
   midi.NoteOnEvent(tick=240, channel=0, data=[72, 0]),
   midi.NoteOnEvent(tick=0, channel=0, data=[71, 79]),
   midi.NoteOnEvent(tick=240, channel=0, data=[71, 0]),
   midi.NoteOnEvent(tick=0, channel=0, data=[69, 79]),
   midi.NoteOnEvent(tick=240, channel=0, data=[69, 0]),
   midi.NoteOnEvent(tick=0, channel=0, data=[67, 79]),
   midi.NoteOnEvent(tick=240, channel=0, data=[67, 0]),
   midi.NoteOnEvent(tick=0, channel=0, data=[74, 79]),
   midi.NoteOnEvent(tick=480, channel=0, data=[74, 0]),
   midi.NoteOnEvent(tick=0, channel=0, data=[62, 79]),
   midi.NoteOnEvent(tick=480, channel=0, data=[62, 0]),
   midi.NoteOnEvent(tick=0, channel=0, data=[67, 79]),
   midi.NoteOnEvent(tick=480, channel=0, data=[67, 0]),
   midi.NoteOnEvent(tick=0, channel=0, data=[81, 79]),
   midi.NoteOnEvent(tick=60, channel=0, data=[81, 0]),
   midi.NoteOnEvent(tick=0, channel=0, data=[79, 79]),
   midi.NoteOnEvent(tick=60, channel=0, data=[79, 0]),
   midi.NoteOnEvent(tick=0, channel=0, data=[78, 79]),
   midi.NoteOnEvent(tick=120, channel=0, data=[78, 0]),
   midi.NoteOnEvent(tick=0, channel=0, data=[79, 79]),
   midi.NoteOnEvent(tick=120, channel=0, data=[79, 0]),
   midi.NoteOnEvent(tick=0, channel=0, data=[81, 79]),
   midi.NoteOnEvent(tick=120, channel=0, data=[81, 0]),
   midi.NoteOnEvent(tick=0, channel=0, data=[79, 79]),
   midi.NoteOnEvent(tick=240, channel=0, data=[79, 0]),
   midi.NoteOnEvent(tick=0, channel=0, data=[79, 79]),
   midi.NoteOnEvent(tick=240, channel=0, data=[79, 0]),
   midi.NoteOnEvent(tick=0, channel=0, data=[78, 79]),
   midi.NoteOnEvent(tick=240, channel=0, data=[78, 0]),
   midi.NoteOnEvent(tick=0, channel=0, data=[81, 79]),
   midi.NoteOnEvent(tick=240, channel=0, data=[81, 0]),
   midi.NoteOnEvent(tick=0, channel=0, data=[79, 79]),
   midi.NoteOnEvent(tick=240, channel=0, data=[79, 0]),
   midi.NoteOnEvent(tick=0, channel=0, data=[83, 79]),
   midi.NoteOnEvent(tick=240, channel=0, data=[83, 0]),
   midi.NoteOnEvent(tick=0, channel=0, data=[81, 79]),
   midi.NoteOnEvent(tick=240, channel=0, data=[81, 0]),
   midi.NoteOnEvent(tick=0, channel=0, data=[84, 79]),
   midi.NoteOnEvent(tick=240, channel=0, data=[84, 0]),
   midi.NoteOnEvent(tick=0, channel=0, data=[83, 79]),
   midi.NoteOnEvent(tick=240, channel=0, data=[83, 0]),
   midi.NoteOnEvent(tick=720, channel=0, data=[79, 79]),
   midi.NoteOnEvent(tick=960, channel=0, data=[79, 0]),
   midi.NoteOnEvent(tick=0, channel=0, data=[74, 79]),
   midi.NoteOnEvent(tick=960, channel=0, data=[74, 0]),
   midi.NoteOnEvent(tick=0, channel=0, data=[72, 79]),
   midi.NoteOnEvent(tick=240, channel=0, data=[72, 0]),
   midi.NoteOnEvent(tick=0, channel=0, data=[71, 79]),
   midi.NoteOnEvent(tick=240, channel=0, data=[71, 0]),
   midi.NoteOnEvent(tick=0, channel=0, data=[69, 79]),
   midi.NoteOnEvent(tick=240, channel=0, data=[69, 0]),
   midi.NoteOnEvent(tick=0, channel=0, data=[67, 79]),
   midi.NoteOnEvent(tick=240, channel=0, data=[67, 0]),
   midi.NoteOnEvent(tick=0, channel=0, data=[74, 79]),
   midi.NoteOnEvent(tick=480, channel=0, data=[74, 0]),
   midi.NoteOnEvent(tick=0, channel=0, data=[62, 79]),
   midi.NoteOnEvent(tick=480, channel=0, data=[62, 0]),
   midi.NoteOnEvent(tick=0, channel=0, data=[67, 79]),
   midi.NoteOnEvent(tick=480, channel=0, data=[67, 0]),
   midi.NoteOnEvent(tick=480, channel=0, data=[79, 79]),
   midi.NoteOnEvent(tick=720, channel=0, data=[79, 0]),
   midi.NoteOnEvent(tick=0, channel=0, data=[83, 79]),
   midi.NoteOnEvent(tick=120, channel=0, data=[83, 0]),
   midi.NoteOnEvent(tick=0, channel=0, data=[79, 79]),
   midi.NoteOnEvent(tick=120, channel=0, data=[79, 0]),
   midi.NoteOnEvent(tick=0, channel=0, data=[78, 79]),
   midi.NoteOnEvent(tick=480, channel=0, data=[78, 0]),
   midi.NoteOnEvent(tick=480, channel=0, data=[81, 79]),
   midi.NoteOnEvent(tick=720, channel=0, data=[81, 0]),
   midi.NoteOnEvent(tick=0, channel=0, data=[84, 79]),
   midi.NoteOnEvent(tick=120, channel=0, data=[84, 0]),
   midi.NoteOnEvent(tick=0, channel=0, data=[81, 79]),
   midi.NoteOnEvent(tick=120, channel=0, data=[81, 0]),
   midi.NoteOnEvent(tick=0, channel=0, data=[79, 79]),
   midi.NoteOnEvent(tick=480, channel=0, data=[79, 0]),
   midi.NoteOnEvent(tick=480, channel=0, data=[79, 79]),
   midi.NoteOnEvent(tick=720, channel=0, data=[79, 0]),
   midi.NoteOnEvent(tick=0, channel=0, data=[83, 79]),
   midi.NoteOnEvent(tick=120, channel=0, data=[83, 0]),
   midi.NoteOnEvent(tick=0, channel=0, data=[79, 79]),
   midi.NoteOnEvent(tick=120, channel=0, data=[79, 0]),
   midi.NoteOnEvent(tick=0, channel=0, data=[78, 79]),
   midi.NoteOnEvent(tick=480, channel=0, data=[78, 0]),
   midi.NoteOnEvent(tick=480, channel=0, data=[81, 79]),
   midi.NoteOnEvent(tick=720, channel=0, data=[81, 0]),
   midi.NoteOnEvent(tick=0, channel=0, data=[84, 79]),
   midi.NoteOnEvent(tick=120, channel=0, data=[84, 0]),
   midi.NoteOnEvent(tick=0, channel=0, data=[81, 79]),
   midi.NoteOnEvent(tick=120, channel=0, data=[81, 0]),
   midi.NoteOnEvent(tick=0, channel=0, data=[79, 79]),
   midi.NoteOnEvent(tick=240, channel=0, data=[79, 0]),
   midi.NoteOnEvent(tick=0, channel=0, data=[55, 79]),
   midi.NoteOnEvent(tick=240, channel=0, data=[55, 0]),
   midi.NoteOnEvent(tick=0, channel=0, data=[57, 79]),
   midi.NoteOnEvent(tick=240, channel=0, data=[57, 0]),
   midi.NoteOnEvent(tick=0, channel=0, data=[59, 79]),
   midi.NoteOnEvent(tick=240, channel=0, data=[59, 0]),
   midi.NoteOnEvent(tick=0, channel=0, data=[60, 79]),
   midi.NoteOnEvent(tick=240, channel=0, data=[60, 0]),
   midi.NoteOnEvent(tick=0, channel=0, data=[62, 79]),
   midi.NoteOnEvent(tick=240, channel=0, data=[62, 0]),
   midi.NoteOnEvent(tick=0, channel=0, data=[64, 79]),
   midi.NoteOnEvent(tick=240, channel=0, data=[64, 0]),
   midi.NoteOnEvent(tick=0, channel=0, data=[66, 79]),
   midi.NoteOnEvent(tick=240, channel=0, data=[66, 0]),
   midi.NoteOnEvent(tick=0, channel=0, data=[67, 79]),
   midi.NoteOnEvent(tick=240, channel=0, data=[67, 0]),
   midi.NoteOnEvent(tick=0, channel=0, data=[66, 79]),
   midi.NoteOnEvent(tick=240, channel=0, data=[66, 0]),
   midi.NoteOnEvent(tick=0, channel=0, data=[64, 79]),
   midi.NoteOnEvent(tick=240, channel=0, data=[64, 0]),
   midi.NoteOnEvent(tick=0, channel=0, data=[62, 79]),
   midi.NoteOnEvent(tick=240, channel=0, data=[62, 0]),
   midi.NoteOnEvent(tick=0, channel=0, data=[60, 79]),
   midi.NoteOnEvent(tick=240, channel=0, data=[60, 0]),
   midi.NoteOnEvent(tick=0, channel=0, data=[59, 79]),
   midi.NoteOnEvent(tick=240, channel=0, data=[59, 0]),
   midi.NoteOnEvent(tick=0, channel=0, data=[57, 79]),
   midi.NoteOnEvent(tick=240, channel=0, data=[57, 0]),
   midi.NoteOnEvent(tick=0, channel=0, data=[55, 79]),
   midi.NoteOnEvent(tick=240, channel=0, data=[55, 0]),
   midi.NoteOnEvent(tick=0, channel=0, data=[62, 79]),
   midi.NoteOnEvent(tick=480, channel=0, data=[62, 0]),
   midi.NoteOnEvent(tick=0, channel=0, data=[78, 79]),
   midi.NoteOnEvent(tick=480, channel=0, data=[78, 0]),
   midi.NoteOnEvent(tick=0, channel=0, data=[78, 79]),
   midi.NoteOnEvent(tick=480, channel=0, data=[78, 0]),
   midi.NoteOnEvent(tick=480, channel=0, data=[74, 79]),
   midi.NoteOnEvent(tick=960, channel=0, data=[74, 0]),
   midi.NoteOnEvent(tick=0, channel=0, data=[78, 79]),
   midi.NoteOnEvent(tick=480, channel=0, data=[78, 0]),
   midi.NoteOnEvent(tick=0, channel=0, data=[81, 79]),
   midi.NoteOnEvent(tick=480, channel=0, data=[81, 0]),
   midi.NoteOnEvent(tick=0, channel=0, data=[86, 79]),
   midi.NoteOnEvent(tick=1440, channel=0, data=[86, 0]),
   midi.NoteOnEvent(tick=0, channel=0, data=[88, 79]),
   midi.NoteOnEvent(tick=480, channel=0, data=[88, 0]),
   midi.NoteOnEvent(tick=0, channel=0, data=[90, 79]),
   midi.NoteOnEvent(tick=480, channel=0, data=[90, 0]),
   midi.NoteOnEvent(tick=0, channel=0, data=[90, 79]),
   midi.NoteOnEvent(tick=960, channel=0, data=[90, 0]),
   midi.NoteOnEvent(tick=0, channel=0, data=[91, 79]),
   midi.NoteOnEvent(tick=240, channel=0, data=[91, 0]),
   midi.NoteOnEvent(tick=0, channel=0, data=[88, 79]),
   midi.NoteOnEvent(tick=240, channel=0, data=[88, 0]),
   midi.NoteOnEvent(tick=0, channel=0, data=[90, 79]),
   midi.NoteOnEvent(tick=480, channel=0, data=[90, 0]),
   midi.NoteOnEvent(tick=0, channel=0, data=[78, 79]),
   midi.NoteOnEvent(tick=960, channel=0, data=[78, 0]),
   midi.NoteOnEvent(tick=0, channel=0, data=[79, 79]),
   midi.NoteOnEvent(tick=240, channel=0, data=[79, 0]),
   midi.NoteOnEvent(tick=0, channel=0, data=[76, 79]),
   midi.NoteOnEvent(tick=240, channel=0, data=[76, 0]),
   midi.NoteOnEvent(tick=0, channel=0, data=[74, 79]),
   midi.NoteOnEvent(tick=960, channel=0, data=[74, 0]),
   midi.NoteOnEvent(tick=0, channel=0, data=[78, 79]),
   midi.NoteOnEvent(tick=480, channel=0, data=[78, 0]),
   midi.NoteOnEvent(tick=0, channel=0, data=[81, 79]),
   midi.NoteOnEvent(tick=480, channel=0, data=[81, 0]),
   midi.NoteOnEvent(tick=0, channel=0, data=[86, 79]),
   midi.NoteOnEvent(tick=120, channel=0, data=[86, 0]),
   midi.NoteOnEvent(tick=0, channel=0, data=[81, 79]),
   midi.NoteOnEvent(tick=120, channel=0, data=[81, 0]),
   midi.NoteOnEvent(tick=0, channel=0, data=[83, 79]),
   midi.NoteOnEvent(tick=120, channel=0, data=[83, 0]),
   midi.NoteOnEvent(tick=0, channel=0, data=[81, 79]),
   midi.NoteOnEvent(tick=120, channel=0, data=[81, 0]),
   midi.NoteOnEvent(tick=0, channel=0, data=[86, 79]),
   midi.NoteOnEvent(tick=120, channel=0, data=[86, 0]),
   midi.NoteOnEvent(tick=0, channel=0, data=[81, 79]),
   midi.NoteOnEvent(tick=120, channel=0, data=[81, 0]),
   midi.NoteOnEvent(tick=0, channel=0, data=[83, 79]),
   midi.NoteOnEvent(tick=120, channel=0, data=[83, 0]),
   midi.NoteOnEvent(tick=0, channel=0, data=[81, 79]),
   midi.NoteOnEvent(tick=120, channel=0, data=[81, 0]),
   midi.NoteOnEvent(tick=0, channel=0, data=[86, 79]),
   midi.NoteOnEvent(tick=240, channel=0, data=[86, 0]),
   midi.NoteOnEvent(tick=720, channel=0, data=[91, 79]),
   midi.NoteOnEvent(tick=480, channel=0, data=[91, 0]),
   midi.NoteOnEvent(tick=0, channel=0, data=[90, 79]),
   midi.NoteOnEvent(tick=960, channel=0, data=[90, 0]),
   midi.NoteOnEvent(tick=0, channel=0, data=[88, 79]),
   midi.NoteOnEvent(tick=480, channel=0, data=[88, 0]),
   midi.NoteOnEvent(tick=0, channel=0, data=[86, 79]),
   midi.NoteOnEvent(tick=120, channel=0, data=[86, 0]),
   midi.NoteOnEvent(tick=0, channel=0, data=[81, 79]),
   midi.NoteOnEvent(tick=120, channel=0, data=[81, 0]),
   midi.NoteOnEvent(tick=0, channel=0, data=[83, 79]),
   midi.NoteOnEvent(tick=120, channel=0, data=[83, 0]),
   midi.NoteOnEvent(tick=0, channel=0, data=[81, 79]),
   midi.NoteOnEvent(tick=120, channel=0, data=[81, 0]),
   midi.NoteOnEvent(tick=0, channel=0, data=[86, 79]),
   midi.NoteOnEvent(tick=120, channel=0, data=[86, 0]),
   midi.NoteOnEvent(tick=0, channel=0, data=[81, 79]),
   midi.NoteOnEvent(tick=120, channel=0, data=[81, 0]),
   midi.NoteOnEvent(tick=0, channel=0, data=[83, 79]),
   midi.NoteOnEvent(tick=120, channel=0, data=[83, 0]),
   midi.NoteOnEvent(tick=0, channel=0, data=[81, 79]),
   midi.NoteOnEvent(tick=120, channel=0, data=[81, 0]),
   midi.NoteOnEvent(tick=0, channel=0, data=[86, 79]),
   midi.NoteOnEvent(tick=240, channel=0, data=[86, 0]),
   midi.NoteOnEvent(tick=720, channel=0, data=[91, 79]),
   midi.NoteOnEvent(tick=480, channel=0, data=[91, 0]),
   midi.NoteOnEvent(tick=0, channel=0, data=[90, 79]),
   midi.NoteOnEvent(tick=960, channel=0, data=[90, 0]),
   midi.NoteOnEvent(tick=0, channel=0, data=[88, 79]),
   midi.NoteOnEvent(tick=480, channel=0, data=[88, 0]),
   midi.NoteOnEvent(tick=0, channel=0, data=[86, 79]),
   midi.NoteOnEvent(tick=480, channel=0, data=[86, 0]),
   midi.NoteOnEvent(tick=1560, channel=0, data=[67, 79]),
   midi.NoteOnEvent(tick=120, channel=0, data=[67, 0]),
   midi.NoteOnEvent(tick=0, channel=0, data=[69, 79]),
   midi.NoteOnEvent(tick=120, channel=0, data=[69, 0]),
   midi.NoteOnEvent(tick=0, channel=0, data=[71, 79]),
   midi.NoteOnEvent(tick=120, channel=0, data=[71, 0]),
   midi.NoteOnEvent(tick=0, channel=0, data=[72, 79]),
   midi.NoteOnEvent(tick=120, channel=0, data=[72, 0]),
   midi.NoteOnEvent(tick=0, channel=0, data=[74, 79]),
   midi.NoteOnEvent(tick=120, channel=0, data=[74, 0]),
   midi.NoteOnEvent(tick=0, channel=0, data=[76, 79]),
   midi.NoteOnEvent(tick=120, channel=0, data=[76, 0]),
   midi.NoteOnEvent(tick=0, channel=0, data=[78, 79]),
   midi.NoteOnEvent(tick=120, channel=0, data=[78, 0]),
   midi.NoteOnEvent(tick=0, channel=0, data=[79, 79]),
   midi.NoteOnEvent(tick=120, channel=0, data=[79, 0]),
   midi.NoteOnEvent(tick=0, channel=0, data=[74, 79]),
   midi.NoteOnEvent(tick=120, channel=0, data=[74, 0]),
   midi.NoteOnEvent(tick=0, channel=0, data=[76, 79]),
   midi.NoteOnEvent(tick=120, channel=0, data=[76, 0]),
   midi.NoteOnEvent(tick=0, channel=0, data=[78, 79]),
   midi.NoteOnEvent(tick=120, channel=0, data=[78, 0]),
   midi.NoteOnEvent(tick=0, channel=0, data=[79, 79]),
   midi.NoteOnEvent(tick=120, channel=0, data=[79, 0]),
   midi.NoteOnEvent(tick=0, channel=0, data=[81, 79]),
   midi.NoteOnEvent(tick=120, channel=0, data=[81, 0]),
   midi.NoteOnEvent(tick=0, channel=0, data=[83, 79]),
   midi.NoteOnEvent(tick=120, channel=0, data=[83, 0]),
   midi.NoteOnEvent(tick=0, channel=0, data=[84, 79]),
   midi.NoteOnEvent(tick=120, channel=0, data=[84, 0]),
   midi.NoteOnEvent(tick=0, channel=0, data=[86, 79]),
   midi.NoteOnEvent(tick=960, channel=0, data=[86, 0]),
   midi.NoteOnEvent(tick=0, channel=0, data=[85, 79]),
   midi.NoteOnEvent(tick=480, channel=0, data=[85, 0]),
   midi.NoteOnEvent(tick=0, channel=0, data=[83, 79]),
   midi.NoteOnEvent(tick=480, channel=0, data=[83, 0]),
   midi.NoteOnEvent(tick=0, channel=0, data=[81, 79]),
   midi.NoteOnEvent(tick=720, channel=0, data=[81, 0]),
   midi.NoteOnEvent(tick=0, channel=0, data=[83, 79]),
   midi.NoteOnEvent(tick=240, channel=0, data=[83, 0]),
   midi.NoteOnEvent(tick=0, channel=0, data=[74, 79]),
   midi.NoteOnEvent(tick=480, channel=0, data=[74, 0]),
   midi.NoteOnEvent(tick=0, channel=0, data=[73, 79]),
   midi.NoteOnEvent(tick=480, channel=0, data=[73, 0]),
   midi.NoteOnEvent(tick=0, channel=0, data=[62, 79]),
   midi.NoteOnEvent(tick=120, channel=0, data=[62, 0]),
   midi.NoteOnEvent(tick=0, channel=0, data=[74, 79]),
   midi.NoteOnEvent(tick=120, channel=0, data=[74, 0]),
   midi.NoteOnEvent(tick=0, channel=0, data=[73, 79]),
   midi.NoteOnEvent(tick=120, channel=0, data=[73, 0]),
   midi.NoteOnEvent(tick=0, channel=0, data=[74, 79]),
   midi.NoteOnEvent(tick=120, channel=0, data=[74, 0]),
   midi.NoteOnEvent(tick=0, channel=0, data=[72, 79]),
   midi.NoteOnEvent(tick=120, channel=0, data=[72, 0]),
   midi.NoteOnEvent(tick=0, channel=0, data=[74, 79]),
   midi.NoteOnEvent(tick=120, channel=0, data=[74, 0]),
   midi.NoteOnEvent(tick=0, channel=0, data=[71, 79]),
   midi.NoteOnEvent(tick=120, channel=0, data=[71, 0]),
   midi.NoteOnEvent(tick=0, channel=0, data=[74, 79]),
   midi.NoteOnEvent(tick=120, channel=0, data=[74, 0]),
   midi.NoteOnEvent(tick=0, channel=0, data=[69, 79]),
   midi.NoteOnEvent(tick=120, channel=0, data=[69, 0]),
   midi.NoteOnEvent(tick=0, channel=0, data=[74, 79]),
   midi.NoteOnEvent(tick=120, channel=0, data=[74, 0]),
   midi.NoteOnEvent(tick=0, channel=0, data=[71, 79]),
   midi.NoteOnEvent(tick=120, channel=0, data=[71, 0]),
   midi.NoteOnEvent(tick=0, channel=0, data=[74, 79]),
   midi.NoteOnEvent(tick=120, channel=0, data=[74, 0]),
   midi.NoteOnEvent(tick=0, channel=0, data=[72, 79]),
   midi.NoteOnEvent(tick=120, channel=0, data=[72, 0]),
   midi.NoteOnEvent(tick=0, channel=0, data=[74, 79]),
   midi.NoteOnEvent(tick=120, channel=0, data=[74, 0]),
   midi.NoteOnEvent(tick=0, channel=0, data=[69, 79]),
   midi.NoteOnEvent(tick=120, channel=0, data=[69, 0]),
   midi.NoteOnEvent(tick=0, channel=0, data=[74, 79]),
   midi.NoteOnEvent(tick=120, channel=0, data=[74, 0]),
   midi.NoteOnEvent(tick=0, channel=0, data=[71, 79]),
   midi.NoteOnEvent(tick=480, channel=0, data=[71, 0]),
   midi.NoteOnEvent(tick=600, channel=0, data=[71, 79]),
   midi.NoteOnEvent(tick=120, channel=0, data=[71, 0]),
   midi.NoteOnEvent(tick=0, channel=0, data=[72, 79]),
   midi.NoteOnEvent(tick=120, channel=0, data=[72, 0]),
   midi.NoteOnEvent(tick=0, channel=0, data=[74, 79]),
   midi.NoteOnEvent(tick=120, channel=0, data=[74, 0]),
   midi.NoteOnEvent(tick=0, channel=0, data=[76, 79]),
   midi.NoteOnEvent(tick=120, channel=0, data=[76, 0]),
   midi.NoteOnEvent(tick=0, channel=0, data=[78, 79]),
   midi.NoteOnEvent(tick=120, channel=0, data=[78, 0]),
   midi.NoteOnEvent(tick=0, channel=0, data=[79, 79]),
   midi.NoteOnEvent(tick=120, channel=0, data=[79, 0]),
   midi.NoteOnEvent(tick=0, channel=0, data=[81, 79]),
   midi.NoteOnEvent(tick=120, channel=0, data=[81, 0]),
   midi.NoteOnEvent(tick=0, channel=0, data=[83, 79]),
   midi.NoteOnEvent(tick=960, channel=0, data=[83, 0]),
   midi.NoteOnEvent(tick=0, channel=0, data=[81, 79]),
   midi.NoteOnEvent(tick=480, channel=0, data=[81, 0]),
   midi.NoteOnEvent(tick=0, channel=0, data=[79, 79]),
   midi.NoteOnEvent(tick=480, channel=0, data=[79, 0]),
   midi.NoteOnEvent(tick=0, channel=0, data=[78, 79]),
   midi.NoteOnEvent(tick=720, channel=0, data=[78, 0]),
   midi.NoteOnEvent(tick=0, channel=0, data=[79, 79]),
   midi.NoteOnEvent(tick=240, channel=0, data=[79, 0]),
   midi.NoteOnEvent(tick=0, channel=0, data=[78, 79]),
   midi.NoteOnEvent(tick=480, channel=0, data=[78, 0]),
   midi.NoteOnEvent(tick=0, channel=0, data=[76, 79]),
   midi.NoteOnEvent(tick=480, channel=0, data=[76, 0]),
   midi.NoteOnEvent(tick=0, channel=0, data=[74, 79]),
   midi.NoteOnEvent(tick=480, channel=0, data=[74, 0]),
   midi.NoteOnEvent(tick=0, channel=0, data=[81, 79]),
   midi.NoteOnEvent(tick=120, channel=0, data=[81, 0]),
   midi.NoteOnEvent(tick=0, channel=0, data=[79, 79]),
   midi.NoteOnEvent(tick=120, channel=0, data=[79, 0]),
   midi.NoteOnEvent(tick=0, channel=0, data=[78, 79]),
   midi.NoteOnEvent(tick=120, channel=0, data=[78, 0]),
   midi.NoteOnEvent(tick=0, channel=0, data=[76, 79]),
   midi.NoteOnEvent(tick=120, channel=0, data=[76, 0]),
   midi.NoteOnEvent(tick=0, channel=0, data=[78, 79]),
   midi.NoteOnEvent(tick=240, channel=0, data=[78, 0]),
   midi.NoteOnEvent(tick=0, channel=0, data=[81, 79]),
   midi.NoteOnEvent(tick=240, channel=0, data=[81, 0]),
   midi.NoteOnEvent(tick=240, channel=0, data=[73, 79]),
   midi.NoteOnEvent(tick=240, channel=0, data=[73, 0]),
   midi.NoteOnEvent(tick=0, channel=0, data=[74, 79]),
   midi.NoteOnEvent(tick=480, channel=0, data=[74, 0]),
   midi.NoteOnEvent(tick=0, channel=0, data=[81, 79]),
   midi.NoteOnEvent(tick=120, channel=0, data=[81, 0]),
   midi.NoteOnEvent(tick=0, channel=0, data=[79, 79]),
   midi.NoteOnEvent(tick=120, channel=0, data=[79, 0]),
   midi.NoteOnEvent(tick=0, channel=0, data=[78, 79]),
   midi.NoteOnEvent(tick=120, channel=0, data=[78, 0]),
   midi.NoteOnEvent(tick=0, channel=0, data=[76, 79]),
   midi.NoteOnEvent(tick=120, channel=0, data=[76, 0]),
   midi.NoteOnEvent(tick=0, channel=0, data=[78, 79]),
   midi.NoteOnEvent(tick=240, channel=0, data=[78, 0]),
   midi.NoteOnEvent(tick=0, channel=0, data=[81, 79]),
   midi.NoteOnEvent(tick=240, channel=0, data=[81, 0]),
   midi.NoteOnEvent(tick=240, channel=0, data=[73, 79]),
   midi.NoteOnEvent(tick=240, channel=0, data=[73, 0]),
   midi.NoteOnEvent(tick=0, channel=0, data=[74, 79]),
   midi.NoteOnEvent(tick=480, channel=0, data=[74, 0]),
   midi.NoteOnEvent(tick=0, channel=0, data=[78, 79]),
   midi.NoteOnEvent(tick=480, channel=0, data=[78, 0]),
   midi.NoteOnEvent(tick=0, channel=0, data=[78, 79]),
   midi.NoteOnEvent(tick=480, channel=0, data=[78, 0]),
   midi.NoteOnEvent(tick=480, channel=0, data=[74, 79]),
   midi.NoteOnEvent(tick=1920, channel=0, data=[74, 0]),
   midi.NoteOnEvent(tick=0, channel=0, data=[76, 79]),
   midi.NoteOnEvent(tick=1920, channel=0, data=[76, 0]),
   midi.NoteOnEvent(tick=0, channel=0, data=[78, 79]),
   midi.NoteOnEvent(tick=1920, channel=0, data=[78, 0]),
   midi.NoteOnEvent(tick=0, channel=0, data=[79, 79]),
   midi.NoteOnEvent(tick=1920, channel=0, data=[79, 0]),
   midi.NoteOnEvent(tick=0, channel=0, data=[78, 79]),
   midi.NoteOnEvent(tick=1920, channel=0, data=[78, 0]),
   midi.NoteOnEvent(tick=0, channel=0, data=[76, 79]),
   midi.NoteOnEvent(tick=1920, channel=0, data=[76, 0]),
   midi.NoteOnEvent(tick=0, channel=0, data=[78, 79]),
   midi.NoteOnEvent(tick=240, channel=0, data=[78, 0]),
   midi.NoteOnEvent(tick=0, channel=0, data=[79, 79]),
   midi.NoteOnEvent(tick=240, channel=0, data=[79, 0]),
   midi.NoteOnEvent(tick=0, channel=0, data=[78, 79]),
   midi.NoteOnEvent(tick=240, channel=0, data=[78, 0]),
   midi.NoteOnEvent(tick=0, channel=0, data=[76, 79]),
   midi.NoteOnEvent(tick=240, channel=0, data=[76, 0]),
   midi.NoteOnEvent(tick=0, channel=0, data=[74, 79]),
   midi.NoteOnEvent(tick=240, channel=0, data=[74, 0]),
   midi.NoteOnEvent(tick=0, channel=0, data=[72, 79]),
   midi.NoteOnEvent(tick=240, channel=0, data=[72, 0]),
   midi.NoteOnEvent(tick=0, channel=0, data=[71, 79]),
   midi.NoteOnEvent(tick=240, channel=0, data=[71, 0]),
   midi.NoteOnEvent(tick=0, channel=0, data=[69, 79]),
   midi.NoteOnEvent(tick=240, channel=0, data=[69, 0]),
   midi.NoteOnEvent(tick=0, channel=0, data=[71, 79]),
   midi.NoteOnEvent(tick=240, channel=0, data=[71, 0]),
   midi.NoteOnEvent(tick=0, channel=0, data=[72, 79]),
   midi.NoteOnEvent(tick=240, channel=0, data=[72, 0]),
   midi.NoteOnEvent(tick=0, channel=0, data=[74, 79]),
   midi.NoteOnEvent(tick=240, channel=0, data=[74, 0]),
   midi.NoteOnEvent(tick=0, channel=0, data=[76, 79]),
   midi.NoteOnEvent(tick=240, channel=0, data=[76, 0]),
   midi.NoteOnEvent(tick=0, channel=0, data=[78, 79]),
   midi.NoteOnEvent(tick=240, channel=0, data=[78, 0]),
   midi.NoteOnEvent(tick=0, channel=0, data=[79, 79]),
   midi.NoteOnEvent(tick=240, channel=0, data=[79, 0]),
   midi.NoteOnEvent(tick=0, channel=0, data=[81, 79]),
   midi.NoteOnEvent(tick=240, channel=0, data=[81, 0]),
   midi.NoteOnEvent(tick=0, channel=0, data=[83, 79]),
   midi.NoteOnEvent(tick=240, channel=0, data=[83, 0]),
   midi.NoteOnEvent(tick=0, channel=0, data=[84, 79]),
   midi.NoteOnEvent(tick=960, channel=0, data=[84, 0]),
   midi.NoteOnEvent(tick=0, channel=0, data=[84, 79]),
   midi.NoteOnEvent(tick=240, channel=0, data=[84, 0]),
   midi.NoteOnEvent(tick=0, channel=0, data=[81, 79]),
   midi.NoteOnEvent(tick=240, channel=0, data=[81, 0]),
   midi.NoteOnEvent(tick=0, channel=0, data=[86, 79]),
   midi.NoteOnEvent(tick=240, channel=0, data=[86, 0]),
   midi.NoteOnEvent(tick=0, channel=0, data=[85, 79]),
   midi.NoteOnEvent(tick=240, channel=0, data=[85, 0]),
   midi.NoteOnEvent(tick=0, channel=0, data=[86, 79]),
   midi.NoteOnEvent(tick=240, channel=0, data=[86, 0]),
   midi.NoteOnEvent(tick=0, channel=0, data=[84, 79]),
   midi.NoteOnEvent(tick=240, channel=0, data=[84, 0]),
   midi.NoteOnEvent(tick=0, channel=0, data=[83, 79]),
   midi.NoteOnEvent(tick=240, channel=0, data=[83, 0]),
   midi.NoteOnEvent(tick=0, channel=0, data=[81, 79]),
   midi.NoteOnEvent(tick=240, channel=0, data=[81, 0]),
   midi.NoteOnEvent(tick=0, channel=0, data=[79, 79]),
   midi.NoteOnEvent(tick=240, channel=0, data=[79, 0]),
   midi.NoteOnEvent(tick=0, channel=0, data=[78, 79]),
   midi.NoteOnEvent(tick=240, channel=0, data=[78, 0]),
   midi.NoteOnEvent(tick=0, channel=0, data=[76, 79]),
   midi.NoteOnEvent(tick=240, channel=0, data=[76, 0]),
   midi.NoteOnEvent(tick=0, channel=0, data=[74, 79]),
   midi.NoteOnEvent(tick=240, channel=0, data=[74, 0]),
   midi.NoteOnEvent(tick=0, channel=0, data=[76, 79]),
   midi.NoteOnEvent(tick=720, channel=0, data=[76, 0]),
   midi.NoteOnEvent(tick=0, channel=0, data=[74, 79]),
   midi.NoteOnEvent(tick=240, channel=0, data=[74, 0]),
   midi.NoteOnEvent(tick=0, channel=0, data=[72, 79]),
   midi.NoteOnEvent(tick=240, channel=0, data=[72, 0]),
   midi.NoteOnEvent(tick=0, channel=0, data=[74, 79]),
   midi.NoteOnEvent(tick=240, channel=0, data=[74, 0]),
   midi.NoteOnEvent(tick=0, channel=0, data=[72, 79]),
   midi.NoteOnEvent(tick=240, channel=0, data=[72, 0]),
   midi.NoteOnEvent(tick=0, channel=0, data=[71, 79]),
   midi.NoteOnEvent(tick=240, channel=0, data=[71, 0]),
   midi.NoteOnEvent(tick=0, channel=0, data=[69, 79]),
   midi.NoteOnEvent(tick=480, channel=0, data=[69, 0]),
   midi.NoteOnEvent(tick=240, channel=0, data=[72, 79]),
   midi.NoteOnEvent(tick=240, channel=0, data=[72, 0]),
   midi.NoteOnEvent(tick=0, channel=0, data=[72, 79]),
   midi.NoteOnEvent(tick=240, channel=0, data=[72, 0]),
   midi.NoteOnEvent(tick=0, channel=0, data=[71, 79]),
   midi.NoteOnEvent(tick=240, channel=0, data=[71, 0]),
   midi.NoteOnEvent(tick=240, channel=0, data=[79, 79]),
   midi.NoteOnEvent(tick=240, channel=0, data=[79, 0]),
   midi.ControlChangeEvent(tick=0, channel=0, data=[7, 104]),
   midi.NoteOnEvent(tick=0, channel=0, data=[78, 79]),
   midi.NoteOnEvent(tick=480, channel=0, data=[78, 0]),
   midi.NoteOnEvent(tick=240, channel=0, data=[72, 79]),
   midi.NoteOnEvent(tick=240, channel=0, data=[72, 0]),
   midi.NoteOnEvent(tick=0, channel=0, data=[72, 79]),
   midi.NoteOnEvent(tick=240, channel=0, data=[72, 0]),
   midi.NoteOnEvent(tick=0, channel=0, data=[71, 79]),
   midi.NoteOnEvent(tick=240, channel=0, data=[71, 0]),
   midi.NoteOnEvent(tick=240, channel=0, data=[79, 79]),
   midi.NoteOnEvent(tick=240, channel=0, data=[79, 0]),
   midi.NoteOnEvent(tick=0, channel=0, data=[78, 79]),
   midi.NoteOnEvent(tick=480, channel=0, data=[78, 0]),
   midi.NoteOnEvent(tick=0, channel=0, data=[78, 79]),
   midi.NoteOnEvent(tick=480, channel=0, data=[78, 0]),
   midi.NoteOnEvent(tick=0, channel=0, data=[78, 79]),
   midi.NoteOnEvent(tick=480, channel=0, data=[78, 0]),
   midi.NoteOnEvent(tick=480, channel=0, data=[79, 79]),
   midi.NoteOnEvent(tick=480, channel=0, data=[79, 0]),
   midi.NoteOnEvent(tick=0, channel=0, data=[81, 79]),
   midi.NoteOnEvent(tick=60, channel=0, data=[81, 0]),
   midi.NoteOnEvent(tick=0, channel=0, data=[79, 79]),
   midi.NoteOnEvent(tick=60, channel=0, data=[79, 0]),
   midi.NoteOnEvent(tick=0, channel=0, data=[78, 79]),
   midi.NoteOnEvent(tick=120, channel=0, data=[78, 0]),
   midi.NoteOnEvent(tick=0, channel=0, data=[79, 79]),
   midi.NoteOnEvent(tick=120, channel=0, data=[79, 0]),
   midi.NoteOnEvent(tick=0, channel=0, data=[81, 79]),
   midi.NoteOnEvent(tick=120, channel=0, data=[81, 0]),
   midi.NoteOnEvent(tick=0, channel=0, data=[79, 79]),
   midi.NoteOnEvent(tick=240, channel=0, data=[79, 0]),
   midi.NoteOnEvent(tick=0, channel=0, data=[79, 79]),
   midi.NoteOnEvent(tick=240, channel=0, data=[79, 0]),
   midi.NoteOnEvent(tick=0, channel=0, data=[78, 79]),
   midi.NoteOnEvent(tick=240, channel=0, data=[78, 0]),
   midi.NoteOnEvent(tick=0, channel=0, data=[81, 79]),
   midi.NoteOnEvent(tick=240, channel=0, data=[81, 0]),
   midi.NoteOnEvent(tick=0, channel=0, data=[79, 79]),
   midi.NoteOnEvent(tick=240, channel=0, data=[79, 0]),
   midi.NoteOnEvent(tick=0, channel=0, data=[83, 79]),
   midi.NoteOnEvent(tick=240, channel=0, data=[83, 0]),
   midi.NoteOnEvent(tick=0, channel=0, data=[81, 79]),
   midi.NoteOnEvent(tick=240, channel=0, data=[81, 0]),
   midi.NoteOnEvent(tick=0, channel=0, data=[84, 79]),
   midi.NoteOnEvent(tick=240, channel=0, data=[84, 0]),
   midi.NoteOnEvent(tick=0, channel=0, data=[83, 79]),
   midi.NoteOnEvent(tick=240, channel=0, data=[83, 0]),
   midi.NoteOnEvent(tick=720, channel=0, data=[79, 79]),
   midi.NoteOnEvent(tick=960, channel=0, data=[79, 0]),
   midi.NoteOnEvent(tick=0, channel=0, data=[74, 79]),
   midi.NoteOnEvent(tick=960, channel=0, data=[74, 0]),
   midi.NoteOnEvent(tick=0, channel=0, data=[76, 79]),
   midi.NoteOnEvent(tick=240, channel=0, data=[76, 0]),
   midi.NoteOnEvent(tick=0, channel=0, data=[74, 79]),
   midi.NoteOnEvent(tick=240, channel=0, data=[74, 0]),
   midi.NoteOnEvent(tick=0, channel=0, data=[69, 79]),
   midi.NoteOnEvent(tick=240, channel=0, data=[69, 0]),
   midi.NoteOnEvent(tick=0, channel=0, data=[67, 79]),
   midi.NoteOnEvent(tick=240, channel=0, data=[67, 0]),
   midi.NoteOnEvent(tick=0, channel=0, data=[74, 79]),
   midi.NoteOnEvent(tick=480, channel=0, data=[74, 0]),
   midi.NoteOnEvent(tick=0, channel=0, data=[62, 79]),
   midi.NoteOnEvent(tick=480, channel=0, data=[62, 0]),
   midi.NoteOnEvent(tick=0, channel=0, data=[67, 79]),
   midi.NoteOnEvent(tick=480, channel=0, data=[67, 0]),
   midi.NoteOnEvent(tick=0, channel=0, data=[79, 79]),
   midi.NoteOnEvent(tick=120, channel=0, data=[79, 0]),
   midi.NoteOnEvent(tick=0, channel=0, data=[78, 79]),
   midi.NoteOnEvent(tick=120, channel=0, data=[78, 0]),
   midi.NoteOnEvent(tick=0, channel=0, data=[79, 79]),
   midi.NoteOnEvent(tick=120, channel=0, data=[79, 0]),
   midi.NoteOnEvent(tick=0, channel=0, data=[81, 79]),
   midi.NoteOnEvent(tick=120, channel=0, data=[81, 0]),
   midi.NoteOnEvent(tick=0, channel=0, data=[79, 79]),
   midi.NoteOnEvent(tick=240, channel=0, data=[79, 0]),
   midi.NoteOnEvent(tick=0, channel=0, data=[79, 79]),
   midi.NoteOnEvent(tick=240, channel=0, data=[79, 0]),
   midi.NoteOnEvent(tick=0, channel=0, data=[78, 79]),
   midi.NoteOnEvent(tick=240, channel=0, data=[78, 0]),
   midi.NoteOnEvent(tick=0, channel=0, data=[81, 79]),
   midi.NoteOnEvent(tick=240, channel=0, data=[81, 0]),
   midi.NoteOnEvent(tick=0, channel=0, data=[79, 79]),
   midi.NoteOnEvent(tick=240, channel=0, data=[79, 0]),
   midi.NoteOnEvent(tick=0, channel=0, data=[83, 79]),
   midi.NoteOnEvent(tick=240, channel=0, data=[83, 0]),
   midi.NoteOnEvent(tick=0, channel=0, data=[81, 79]),
   midi.NoteOnEvent(tick=240, channel=0, data=[81, 0]),
   midi.NoteOnEvent(tick=0, channel=0, data=[84, 79]),
   midi.NoteOnEvent(tick=240, channel=0, data=[84, 0]),
   midi.NoteOnEvent(tick=0, channel=0, data=[83, 79]),
   midi.NoteOnEvent(tick=240, channel=0, data=[83, 0]),
   midi.NoteOnEvent(tick=720, channel=0, data=[79, 79]),
   midi.NoteOnEvent(tick=960, channel=0, data=[79, 0]),
   midi.NoteOnEvent(tick=0, channel=0, data=[74, 79]),
   midi.NoteOnEvent(tick=960, channel=0, data=[74, 0]),
   midi.NoteOnEvent(tick=0, channel=0, data=[72, 79]),
   midi.NoteOnEvent(tick=60, channel=0, data=[72, 0]),
   midi.NoteOnEvent(tick=0, channel=0, data=[71, 79]),
   midi.NoteOnEvent(tick=60, channel=0, data=[71, 0]),
   midi.NoteOnEvent(tick=0, channel=0, data=[71, 79]),
   midi.NoteOnEvent(tick=360, channel=0, data=[71, 0]),
   midi.NoteOnEvent(tick=0, channel=0, data=[69, 79]),
   midi.NoteOnEvent(tick=240, channel=0, data=[69, 0]),
   midi.NoteOnEvent(tick=0, channel=0, data=[67, 79]),
   midi.NoteOnEvent(tick=240, channel=0, data=[67, 0]),
   midi.NoteOnEvent(tick=0, channel=0, data=[74, 79]),
   midi.NoteOnEvent(tick=480, channel=0, data=[74, 0]),
   midi.NoteOnEvent(tick=0, channel=0, data=[62, 79]),
   midi.NoteOnEvent(tick=480, channel=0, data=[62, 0]),
   midi.NoteOnEvent(tick=0, channel=0, data=[67, 79]),
   midi.NoteOnEvent(tick=480, channel=0, data=[67, 0]),
   midi.NoteOnEvent(tick=480, channel=0, data=[79, 79]),
   midi.NoteOnEvent(tick=720, channel=0, data=[79, 0]),
   midi.NoteOnEvent(tick=0, channel=0, data=[83, 79]),
   midi.NoteOnEvent(tick=120, channel=0, data=[83, 0]),
   midi.NoteOnEvent(tick=0, channel=0, data=[79, 79]),
   midi.NoteOnEvent(tick=120, channel=0, data=[79, 0]),
   midi.NoteOnEvent(tick=0, channel=0, data=[78, 79]),
   midi.NoteOnEvent(tick=480, channel=0, data=[78, 0]),
   midi.NoteOnEvent(tick=480, channel=0, data=[81, 79]),
   midi.NoteOnEvent(tick=720, channel=0, data=[81, 0]),
   midi.NoteOnEvent(tick=0, channel=0, data=[84, 79]),
   midi.NoteOnEvent(tick=120, channel=0, data=[84, 0]),
   midi.NoteOnEvent(tick=0, channel=0, data=[81, 79]),
   midi.NoteOnEvent(tick=120, channel=0, data=[81, 0]),
   midi.NoteOnEvent(tick=0, channel=0, data=[79, 79]),
   midi.NoteOnEvent(tick=480, channel=0, data=[79, 0]),
   midi.NoteOnEvent(tick=480, channel=0, data=[79, 79]),
   midi.NoteOnEvent(tick=720, channel=0, data=[79, 0]),
   midi.NoteOnEvent(tick=0, channel=0, data=[83, 79]),
   midi.NoteOnEvent(tick=120, channel=0, data=[83, 0]),
   midi.NoteOnEvent(tick=0, channel=0, data=[79, 79]),
   midi.NoteOnEvent(tick=120, channel=0, data=[79, 0]),
   midi.NoteOnEvent(tick=0, channel=0, data=[78, 79]),
   midi.NoteOnEvent(tick=480, channel=0, data=[78, 0]),
   midi.NoteOnEvent(tick=480, channel=0, data=[81, 79]),
   midi.NoteOnEvent(tick=720, channel=0, data=[81, 0]),
   midi.NoteOnEvent(tick=0, channel=0, data=[84, 79]),
   midi.NoteOnEvent(tick=120, channel=0, data=[84, 0]),
   midi.NoteOnEvent(tick=0, channel=0, data=[81, 79]),
   midi.NoteOnEvent(tick=120, channel=0, data=[81, 0]),
   midi.NoteOnEvent(tick=0, channel=0, data=[79, 79]),
   midi.NoteOnEvent(tick=240, channel=0, data=[79, 0]),
   midi.NoteOnEvent(tick=0, channel=0, data=[55, 79]),
   midi.NoteOnEvent(tick=240, channel=0, data=[55, 0]),
   midi.NoteOnEvent(tick=0, channel=0, data=[57, 79]),
   midi.NoteOnEvent(tick=240, channel=0, data=[57, 0]),
   midi.NoteOnEvent(tick=0, channel=0, data=[59, 79]),
   midi.NoteOnEvent(tick=240, channel=0, data=[59, 0]),
   midi.NoteOnEvent(tick=0, channel=0, data=[60, 79]),
   midi.NoteOnEvent(tick=240, channel=0, data=[60, 0]),
   midi.NoteOnEvent(tick=0, channel=0, data=[62, 79]),
   midi.NoteOnEvent(tick=240, channel=0, data=[62, 0]),
   midi.NoteOnEvent(tick=0, channel=0, data=[64, 79]),
   midi.NoteOnEvent(tick=240, channel=0, data=[64, 0]),
   midi.NoteOnEvent(tick=0, channel=0, data=[66, 79]),
   midi.NoteOnEvent(tick=240, channel=0, data=[66, 0]),
   midi.NoteOnEvent(tick=0, channel=0, data=[67, 79]),
   midi.NoteOnEvent(tick=240, channel=0, data=[67, 0]),
   midi.NoteOnEvent(tick=0, channel=0, data=[66, 79]),
   midi.NoteOnEvent(tick=240, channel=0, data=[66, 0]),
   midi.NoteOnEvent(tick=0, channel=0, data=[64, 79]),
   midi.NoteOnEvent(tick=240, channel=0, data=[64, 0]),
   midi.NoteOnEvent(tick=0, channel=0, data=[62, 79]),
   midi.NoteOnEvent(tick=240, channel=0, data=[62, 0]),
   midi.NoteOnEvent(tick=0, channel=0, data=[60, 79]),
   midi.NoteOnEvent(tick=240, channel=0, data=[60, 0]),
   midi.NoteOnEvent(tick=0, channel=0, data=[59, 79]),
   midi.NoteOnEvent(tick=240, channel=0, data=[59, 0]),
   midi.NoteOnEvent(tick=0, channel=0, data=[57, 79]),
   midi.NoteOnEvent(tick=240, channel=0, data=[57, 0]),
   midi.NoteOnEvent(tick=0, channel=0, data=[55, 79]),
   midi.NoteOnEvent(tick=240, channel=0, data=[55, 0]),
   midi.NoteOnEvent(tick=0, channel=0, data=[62, 79]),
   midi.NoteOnEvent(tick=480, channel=0, data=[62, 0]),
   midi.NoteOnEvent(tick=0, channel=0, data=[78, 79]),
   midi.NoteOnEvent(tick=480, channel=0, data=[78, 0]),
   midi.NoteOnEvent(tick=0, channel=0, data=[78, 79]),
   midi.NoteOnEvent(tick=480, channel=0, data=[78, 0]),
   midi.NoteOnEvent(tick=480, channel=0, data=[67, 79]),
   midi.NoteOnEvent(tick=960, channel=0, data=[67, 0]),
   midi.NoteOnEvent(tick=0, channel=0, data=[71, 79]),
   midi.NoteOnEvent(tick=480, channel=0, data=[71, 0]),
   midi.NoteOnEvent(tick=0, channel=0, data=[74, 79]),
   midi.NoteOnEvent(tick=480, channel=0, data=[74, 0]),
   midi.NoteOnEvent(tick=0, channel=0, data=[79, 79]),
   midi.NoteOnEvent(tick=480, channel=0, data=[79, 0]),
   midi.NoteOnEvent(tick=0, channel=0, data=[79, 79]),
   midi.NoteOnEvent(tick=960, channel=0, data=[79, 0]),
   midi.NoteOnEvent(tick=0, channel=0, data=[81, 79]),
   midi.NoteOnEvent(tick=480, channel=0, data=[81, 0]),
   midi.NoteOnEvent(tick=0, channel=0, data=[83, 79]),
   midi.NoteOnEvent(tick=480, channel=0, data=[83, 0]),
   midi.NoteOnEvent(tick=0, channel=0, data=[83, 79]),
   midi.NoteOnEvent(tick=960, channel=0, data=[83, 0]),
   midi.NoteOnEvent(tick=0, channel=0, data=[84, 79]),
   midi.NoteOnEvent(tick=240, channel=0, data=[84, 0]),
   midi.NoteOnEvent(tick=0, channel=0, data=[81, 79]),
   midi.NoteOnEvent(tick=240, channel=0, data=[81, 0]),
   midi.NoteOnEvent(tick=0, channel=0, data=[83, 79]),
   midi.NoteOnEvent(tick=480, channel=0, data=[83, 0]),
   midi.NoteOnEvent(tick=0, channel=0, data=[71, 79]),
   midi.NoteOnEvent(tick=960, channel=0, data=[71, 0]),
   midi.NoteOnEvent(tick=0, channel=0, data=[72, 79]),
   midi.NoteOnEvent(tick=240, channel=0, data=[72, 0]),
   midi.NoteOnEvent(tick=0, channel=0, data=[69, 79]),
   midi.NoteOnEvent(tick=240, channel=0, data=[69, 0]),
   midi.NoteOnEvent(tick=0, channel=0, data=[67, 79]),
   midi.NoteOnEvent(tick=960, channel=0, data=[67, 0]),
   midi.NoteOnEvent(tick=0, channel=0, data=[71, 79]),
   midi.NoteOnEvent(tick=480, channel=0, data=[71, 0]),
   midi.NoteOnEvent(tick=0, channel=0, data=[74, 79]),
   midi.NoteOnEvent(tick=480, channel=0, data=[74, 0]),
   midi.NoteOnEvent(tick=0, channel=0, data=[79, 79]),
   midi.NoteOnEvent(tick=120, channel=0, data=[79, 0]),
   midi.NoteOnEvent(tick=0, channel=0, data=[74, 79]),
   midi.NoteOnEvent(tick=120, channel=0, data=[74, 0]),
   midi.NoteOnEvent(tick=0, channel=0, data=[76, 79]),
   midi.NoteOnEvent(tick=120, channel=0, data=[76, 0]),
   midi.NoteOnEvent(tick=0, channel=0, data=[74, 79]),
   midi.NoteOnEvent(tick=120, channel=0, data=[74, 0]),
   midi.NoteOnEvent(tick=0, channel=0, data=[79, 79]),
   midi.NoteOnEvent(tick=120, channel=0, data=[79, 0]),
   midi.NoteOnEvent(tick=0, channel=0, data=[74, 79]),
   midi.NoteOnEvent(tick=120, channel=0, data=[74, 0]),
   midi.NoteOnEvent(tick=0, channel=0, data=[76, 79]),
   midi.NoteOnEvent(tick=120, channel=0, data=[76, 0]),
   midi.NoteOnEvent(tick=0, channel=0, data=[74, 79]),
   midi.NoteOnEvent(tick=120, channel=0, data=[74, 0]),
   midi.NoteOnEvent(tick=0, channel=0, data=[79, 79]),
   midi.NoteOnEvent(tick=240, channel=0, data=[79, 0]),
   midi.NoteOnEvent(tick=720, channel=0, data=[84, 79]),
   midi.NoteOnEvent(tick=480, channel=0, data=[84, 0]),
   midi.NoteOnEvent(tick=0, channel=0, data=[83, 79]),
   midi.NoteOnEvent(tick=960, channel=0, data=[83, 0]),
   midi.NoteOnEvent(tick=0, channel=0, data=[81, 79]),
   midi.NoteOnEvent(tick=480, channel=0, data=[81, 0]),
   midi.NoteOnEvent(tick=0, channel=0, data=[79, 79]),
   midi.NoteOnEvent(tick=120, channel=0, data=[79, 0]),
   midi.NoteOnEvent(tick=0, channel=0, data=[74, 79]),
   midi.NoteOnEvent(tick=120, channel=0, data=[74, 0]),
   midi.NoteOnEvent(tick=0, channel=0, data=[76, 79]),
   midi.NoteOnEvent(tick=120, channel=0, data=[76, 0]),
   midi.NoteOnEvent(tick=0, channel=0, data=[74, 79]),
   midi.NoteOnEvent(tick=120, channel=0, data=[74, 0]),
   midi.NoteOnEvent(tick=0, channel=0, data=[79, 79]),
   midi.NoteOnEvent(tick=120, channel=0, data=[79, 0]),
   midi.NoteOnEvent(tick=0, channel=0, data=[74, 79]),
   midi.NoteOnEvent(tick=120, channel=0, data=[74, 0]),
   midi.NoteOnEvent(tick=0, channel=0, data=[76, 79]),
   midi.NoteOnEvent(tick=120, channel=0, data=[76, 0]),
   midi.NoteOnEvent(tick=0, channel=0, data=[74, 79]),
   midi.NoteOnEvent(tick=120, channel=0, data=[74, 0]),
   midi.NoteOnEvent(tick=0, channel=0, data=[79, 79]),
   midi.NoteOnEvent(tick=480, channel=0, data=[79, 0]),
   midi.NoteOnEvent(tick=480, channel=0, data=[84, 79]),
   midi.NoteOnEvent(tick=480, channel=0, data=[84, 0]),
   midi.NoteOnEvent(tick=0, channel=0, data=[83, 79]),
   midi.NoteOnEvent(tick=960, channel=0, data=[83, 0]),
   midi.NoteOnEvent(tick=0, channel=0, data=[81, 79]),
   midi.NoteOnEvent(tick=480, channel=0, data=[81, 0]),
   midi.NoteOnEvent(tick=0, channel=0, data=[79, 79]),
   midi.NoteOnEvent(tick=480, channel=0, data=[79, 0]),
   midi.NoteOnEvent(tick=1560, channel=0, data=[60, 79]),
   midi.NoteOnEvent(tick=120, channel=0, data=[60, 0]),
   midi.NoteOnEvent(tick=0, channel=0, data=[62, 79]),
   midi.NoteOnEvent(tick=120, channel=0, data=[62, 0]),
   midi.NoteOnEvent(tick=0, channel=0, data=[64, 79]),
   midi.NoteOnEvent(tick=120, channel=0, data=[64, 0]),
   midi.NoteOnEvent(tick=0, channel=0, data=[65, 79]),
   midi.NoteOnEvent(tick=120, channel=0, data=[65, 0]),
   midi.NoteOnEvent(tick=0, channel=0, data=[67, 79]),
   midi.NoteOnEvent(tick=120, channel=0, data=[67, 0]),
   midi.NoteOnEvent(tick=0, channel=0, data=[69, 79]),
   midi.NoteOnEvent(tick=120, channel=0, data=[69, 0]),
   midi.NoteOnEvent(tick=0, channel=0, data=[71, 79]),
   midi.NoteOnEvent(tick=120, channel=0, data=[71, 0]),
   midi.NoteOnEvent(tick=0, channel=0, data=[72, 79]),
   midi.NoteOnEvent(tick=120, channel=0, data=[72, 0]),
   midi.NoteOnEvent(tick=0, channel=0, data=[76, 79]),
   midi.NoteOnEvent(tick=120, channel=0, data=[76, 0]),
   midi.NoteOnEvent(tick=0, channel=0, data=[77, 79]),
   midi.NoteOnEvent(tick=120, channel=0, data=[77, 0]),
   midi.NoteOnEvent(tick=0, channel=0, data=[79, 79]),
   midi.NoteOnEvent(tick=120, channel=0, data=[79, 0]),
   midi.NoteOnEvent(tick=0, channel=0, data=[81, 79]),
   midi.NoteOnEvent(tick=120, channel=0, data=[81, 0]),
   midi.NoteOnEvent(tick=0, channel=0, data=[83, 79]),
   midi.NoteOnEvent(tick=120, channel=0, data=[83, 0]),
   midi.NoteOnEvent(tick=0, channel=0, data=[84, 79]),
   midi.NoteOnEvent(tick=120, channel=0, data=[84, 0]),
   midi.NoteOnEvent(tick=0, channel=0, data=[86, 79]),
   midi.NoteOnEvent(tick=120, channel=0, data=[86, 0]),
   midi.NoteOnEvent(tick=0, channel=0, data=[88, 79]),
   midi.NoteOnEvent(tick=960, channel=0, data=[88, 0]),
   midi.NoteOnEvent(tick=0, channel=0, data=[86, 79]),
   midi.NoteOnEvent(tick=480, channel=0, data=[86, 0]),
   midi.NoteOnEvent(tick=0, channel=0, data=[84, 79]),
   midi.NoteOnEvent(tick=480, channel=0, data=[84, 0]),
   midi.NoteOnEvent(tick=0, channel=0, data=[83, 79]),
   midi.NoteOnEvent(tick=720, channel=0, data=[83, 0]),
   midi.NoteOnEvent(tick=0, channel=0, data=[84, 79]),
   midi.NoteOnEvent(tick=120, channel=0, data=[84, 0]),
   midi.NoteOnEvent(tick=0, channel=0, data=[86, 79]),
   midi.NoteOnEvent(tick=120, channel=0, data=[86, 0]),
   midi.NoteOnEvent(tick=0, channel=0, data=[79, 79]),
   midi.NoteOnEvent(tick=480, channel=0, data=[79, 0]),
   midi.NoteOnEvent(tick=0, channel=0, data=[78, 79]),
   midi.NoteOnEvent(tick=480, channel=0, data=[78, 0]),
   midi.NoteOnEvent(tick=0, channel=0, data=[67, 79]),
   midi.NoteOnEvent(tick=120, channel=0, data=[67, 0]),
   midi.NoteOnEvent(tick=0, channel=0, data=[79, 79]),
   midi.NoteOnEvent(tick=120, channel=0, data=[79, 0]),
   midi.NoteOnEvent(tick=0, channel=0, data=[78, 79]),
   midi.NoteOnEvent(tick=120, channel=0, data=[78, 0]),
   midi.NoteOnEvent(tick=0, channel=0, data=[79, 79]),
   midi.NoteOnEvent(tick=120, channel=0, data=[79, 0]),
   midi.NoteOnEvent(tick=0, channel=0, data=[77, 79]),
   midi.NoteOnEvent(tick=120, channel=0, data=[77, 0]),
   midi.NoteOnEvent(tick=0, channel=0, data=[79, 79]),
   midi.NoteOnEvent(tick=120, channel=0, data=[79, 0]),
   midi.NoteOnEvent(tick=0, channel=0, data=[76, 79]),
   midi.NoteOnEvent(tick=120, channel=0, data=[76, 0]),
   midi.NoteOnEvent(tick=0, channel=0, data=[79, 79]),
   midi.NoteOnEvent(tick=120, channel=0, data=[79, 0]),
   midi.NoteOnEvent(tick=0, channel=0, data=[74, 79]),
   midi.NoteOnEvent(tick=120, channel=0, data=[74, 0]),
   midi.NoteOnEvent(tick=0, channel=0, data=[79, 79]),
   midi.NoteOnEvent(tick=120, channel=0, data=[79, 0]),
   midi.NoteOnEvent(tick=0, channel=0, data=[76, 79]),
   midi.NoteOnEvent(tick=120, channel=0, data=[76, 0]),
   midi.NoteOnEvent(tick=0, channel=0, data=[79, 79]),
   midi.NoteOnEvent(tick=120, channel=0, data=[79, 0]),
   midi.NoteOnEvent(tick=0, channel=0, data=[77, 79]),
   midi.NoteOnEvent(tick=120, channel=0, data=[77, 0]),
   midi.NoteOnEvent(tick=0, channel=0, data=[79, 79]),
   midi.NoteOnEvent(tick=120, channel=0, data=[79, 0]),
   midi.NoteOnEvent(tick=0, channel=0, data=[74, 79]),
   midi.NoteOnEvent(tick=120, channel=0, data=[74, 0]),
   midi.NoteOnEvent(tick=0, channel=0, data=[79, 79]),
   midi.NoteOnEvent(tick=120, channel=0, data=[79, 0]),
   midi.NoteOnEvent(tick=0, channel=0, data=[76, 79]),
   midi.NoteOnEvent(tick=480, channel=0, data=[76, 0]),
   midi.NoteOnEvent(tick=600, channel=0, data=[72, 79]),
   midi.NoteOnEvent(tick=120, channel=0, data=[72, 0]),
   midi.NoteOnEvent(tick=0, channel=0, data=[74, 79]),
   midi.NoteOnEvent(tick=120, channel=0, data=[74, 0]),
   midi.NoteOnEvent(tick=0, channel=0, data=[76, 79]),
   midi.NoteOnEvent(tick=120, channel=0, data=[76, 0]),
   midi.NoteOnEvent(tick=0, channel=0, data=[77, 79]),
   midi.NoteOnEvent(tick=120, channel=0, data=[77, 0]),
   midi.NoteOnEvent(tick=0, channel=0, data=[79, 79]),
   midi.NoteOnEvent(tick=120, channel=0, data=[79, 0]),
   midi.NoteOnEvent(tick=0, channel=0, data=[81, 79]),
   midi.NoteOnEvent(tick=120, channel=0, data=[81, 0]),
   midi.NoteOnEvent(tick=0, channel=0, data=[83, 79]),
   midi.NoteOnEvent(tick=120, channel=0, data=[83, 0]),
   midi.NoteOnEvent(tick=0, channel=0, data=[84, 79]),
   midi.NoteOnEvent(tick=960, channel=0, data=[84, 0]),
   midi.NoteOnEvent(tick=0, channel=0, data=[83, 79]),
   midi.NoteOnEvent(tick=480, channel=0, data=[83, 0]),
   midi.NoteOnEvent(tick=0, channel=0, data=[81, 79]),
   midi.NoteOnEvent(tick=480, channel=0, data=[81, 0]),
   midi.NoteOnEvent(tick=0, channel=0, data=[79, 79]),
   midi.NoteOnEvent(tick=720, channel=0, data=[79, 0]),
   midi.NoteOnEvent(tick=0, channel=0, data=[81, 79]),
   midi.NoteOnEvent(tick=120, channel=0, data=[81, 0]),
   midi.NoteOnEvent(tick=0, channel=0, data=[83, 79]),
   midi.NoteOnEvent(tick=120, channel=0, data=[83, 0]),
   midi.NoteOnEvent(tick=0, channel=0, data=[79, 79]),
   midi.NoteOnEvent(tick=480, channel=0, data=[79, 0]),
   midi.NoteOnEvent(tick=0, channel=0, data=[78, 79]),
   midi.NoteOnEvent(tick=480, channel=0, data=[78, 0]),
   midi.NoteOnEvent(tick=0, channel=0, data=[79, 79]),
   midi.NoteOnEvent(tick=480, channel=0, data=[79, 0]),
   midi.NoteOnEvent(tick=0, channel=0, data=[86, 79]),
   midi.NoteOnEvent(tick=120, channel=0, data=[86, 0]),
   midi.NoteOnEvent(tick=0, channel=0, data=[84, 79]),
   midi.NoteOnEvent(tick=120, channel=0, data=[84, 0]),
   midi.NoteOnEvent(tick=0, channel=0, data=[83, 79]),
   midi.NoteOnEvent(tick=120, channel=0, data=[83, 0]),
   midi.NoteOnEvent(tick=0, channel=0, data=[81, 79]),
   midi.NoteOnEvent(tick=120, channel=0, data=[81, 0]),
   midi.NoteOnEvent(tick=0, channel=0, data=[83, 79]),
   midi.NoteOnEvent(tick=240, channel=0, data=[83, 0]),
   midi.NoteOnEvent(tick=0, channel=0, data=[86, 79]),
   midi.NoteOnEvent(tick=240, channel=0, data=[86, 0]),
   midi.NoteOnEvent(tick=240, channel=0, data=[78, 79]),
   midi.NoteOnEvent(tick=240, channel=0, data=[78, 0]),
   midi.NoteOnEvent(tick=0, channel=0, data=[79, 79]),
   midi.NoteOnEvent(tick=480, channel=0, data=[79, 0]),
   midi.NoteOnEvent(tick=0, channel=0, data=[86, 79]),
   midi.NoteOnEvent(tick=120, channel=0, data=[86, 0]),
   midi.NoteOnEvent(tick=0, channel=0, data=[84, 79]),
   midi.NoteOnEvent(tick=120, channel=0, data=[84, 0]),
   midi.NoteOnEvent(tick=0, channel=0, data=[83, 79]),
   midi.NoteOnEvent(tick=120, channel=0, data=[83, 0]),
   midi.NoteOnEvent(tick=0, channel=0, data=[81, 79]),
   midi.NoteOnEvent(tick=120, channel=0, data=[81, 0]),
   midi.NoteOnEvent(tick=0, channel=0, data=[83, 79]),
   midi.NoteOnEvent(tick=240, channel=0, data=[83, 0]),
   midi.NoteOnEvent(tick=0, channel=0, data=[86, 79]),
   midi.NoteOnEvent(tick=240, channel=0, data=[86, 0]),
   midi.NoteOnEvent(tick=240, channel=0, data=[78, 79]),
   midi.NoteOnEvent(tick=240, channel=0, data=[78, 0]),
   midi.NoteOnEvent(tick=0, channel=0, data=[79, 79]),
   midi.NoteOnEvent(tick=480, channel=0, data=[79, 0]),
   midi.NoteOnEvent(tick=0, channel=0, data=[79, 79]),
   midi.NoteOnEvent(tick=480, channel=0, data=[79, 0]),
   midi.NoteOnEvent(tick=0, channel=0, data=[79, 79]),
   midi.NoteOnEvent(tick=480, channel=0, data=[79, 0]),
   midi.NoteOnEvent(tick=480, channel=0, data=[74, 79]),
   midi.NoteOnEvent(tick=1440, channel=0, data=[74, 0]),
   midi.NoteOnEvent(tick=0, channel=0, data=[84, 79]),
   midi.NoteOnEvent(tick=1440, channel=0, data=[84, 0]),
   midi.NoteOnEvent(tick=0, channel=0, data=[83, 79]),
   midi.NoteOnEvent(tick=240, channel=0, data=[83, 0]),
   midi.NoteOnEvent(tick=240, channel=0, data=[86, 79]),
   midi.NoteOnEvent(tick=240, channel=0, data=[86, 0]),
   midi.NoteOnEvent(tick=0, channel=0, data=[84, 79]),
   midi.NoteOnEvent(tick=240, channel=0, data=[84, 0]),
   midi.NoteOnEvent(tick=0, channel=0, data=[83, 79]),
   midi.NoteOnEvent(tick=240, channel=0, data=[83, 0]),
   midi.NoteOnEvent(tick=0, channel=0, data=[81, 79]),
   midi.NoteOnEvent(tick=240, channel=0, data=[81, 0]),
   midi.NoteOnEvent(tick=0, channel=0, data=[79, 79]),
   midi.NoteOnEvent(tick=960, channel=0, data=[79, 0]),
   midi.NoteOnEvent(tick=0, channel=0, data=[78, 79]),
   midi.NoteOnEvent(tick=480, channel=0, data=[78, 0]),
   midi.NoteOnEvent(tick=0, channel=0, data=[79, 79]),
   midi.NoteOnEvent(tick=480, channel=0, data=[79, 0]),
   midi.NoteOnEvent(tick=0, channel=0, data=[81, 79]),
   midi.NoteOnEvent(tick=480, channel=0, data=[81, 0]),
   midi.NoteOnEvent(tick=0, channel=0, data=[83, 79]),
   midi.NoteOnEvent(tick=480, channel=0, data=[83, 0]),
   midi.NoteOnEvent(tick=0, channel=0, data=[84, 79]),
   midi.NoteOnEvent(tick=240, channel=0, data=[84, 0]),
   midi.NoteOnEvent(tick=240, channel=0, data=[72, 79]),
   midi.NoteOnEvent(tick=480, channel=0, data=[72, 0]),
   midi.NoteOnEvent(tick=0, channel=0, data=[71, 79]),
   midi.NoteOnEvent(tick=480, channel=0, data=[71, 0]),
   midi.NoteOnEvent(tick=0, channel=0, data=[69, 79]),
   midi.NoteOnEvent(tick=240, channel=0, data=[69, 0]),
   midi.NoteOnEvent(tick=0, channel=0, data=[71, 79]),
   midi.NoteOnEvent(tick=240, channel=0, data=[71, 0]),
   midi.NoteOnEvent(tick=0, channel=0, data=[67, 79]),
   midi.NoteOnEvent(tick=240, channel=0, data=[67, 0]),
   midi.NoteOnEvent(tick=240, channel=0, data=[66, 79]),
   midi.NoteOnEvent(tick=240, channel=0, data=[66, 0]),
   midi.NoteOnEvent(tick=240, channel=0, data=[67, 79]),
   midi.NoteOnEvent(tick=960, channel=0, data=[67, 0]),
   midi.NoteOnEvent(tick=480, channel=0, data=[74, 79]),
   midi.NoteOnEvent(tick=1440, channel=0, data=[74, 0]),
   midi.NoteOnEvent(tick=0, channel=0, data=[84, 79]),
   midi.NoteOnEvent(tick=1440, channel=0, data=[84, 0]),
   midi.NoteOnEvent(tick=0, channel=0, data=[83, 79]),
   midi.NoteOnEvent(tick=240, channel=0, data=[83, 0]),
   midi.NoteOnEvent(tick=240, channel=0, data=[86, 79]),
   midi.NoteOnEvent(tick=240, channel=0, data=[86, 0]),
   midi.NoteOnEvent(tick=0, channel=0, data=[84, 79]),
   midi.NoteOnEvent(tick=240, channel=0, data=[84, 0]),
   midi.NoteOnEvent(tick=0, channel=0, data=[83, 79]),
   midi.NoteOnEvent(tick=240, channel=0, data=[83, 0]),
   midi.NoteOnEvent(tick=0, channel=0, data=[81, 79]),
   midi.NoteOnEvent(tick=240, channel=0, data=[81, 0]),
   midi.NoteOnEvent(tick=0, channel=0, data=[79, 79]),
   midi.NoteOnEvent(tick=960, channel=0, data=[79, 0]),
   midi.NoteOnEvent(tick=0, channel=0, data=[78, 79]),
   midi.NoteOnEvent(tick=480, channel=0, data=[78, 0]),
   midi.NoteOnEvent(tick=0, channel=0, data=[79, 79]),
   midi.NoteOnEvent(tick=480, channel=0, data=[79, 0]),
   midi.NoteOnEvent(tick=0, channel=0, data=[81, 79]),
   midi.NoteOnEvent(tick=480, channel=0, data=[81, 0]),
   midi.NoteOnEvent(tick=0, channel=0, data=[83, 79]),
   midi.NoteOnEvent(tick=480, channel=0, data=[83, 0]),
   midi.NoteOnEvent(tick=0, channel=0, data=[84, 79]),
   midi.NoteOnEvent(tick=240, channel=0, data=[84, 0]),
   midi.NoteOnEvent(tick=240, channel=0, data=[72, 79]),
   midi.NoteOnEvent(tick=480, channel=0, data=[72, 0]),
   midi.NoteOnEvent(tick=0, channel=0, data=[71, 79]),
   midi.NoteOnEvent(tick=480, channel=0, data=[71, 0]),
   midi.NoteOnEvent(tick=0, channel=0, data=[69, 79]),
   midi.NoteOnEvent(tick=240, channel=0, data=[69, 0]),
   midi.NoteOnEvent(tick=0, channel=0, data=[71, 79]),
   midi.NoteOnEvent(tick=240, channel=0, data=[71, 0]),
   midi.NoteOnEvent(tick=0, channel=0, data=[67, 79]),
   midi.NoteOnEvent(tick=240, channel=0, data=[67, 0]),
   midi.NoteOnEvent(tick=240, channel=0, data=[66, 79]),
   midi.NoteOnEvent(tick=240, channel=0, data=[66, 0]),
   midi.NoteOnEvent(tick=240, channel=0, data=[67, 79]),
   midi.NoteOnEvent(tick=960, channel=0, data=[67, 0]),
   midi.NoteOnEvent(tick=480, channel=0, data=[83, 79]),
   midi.ControlChangeEvent(tick=48, channel=0, data=[7, 108]),
   midi.NoteOnEvent(tick=192, channel=0, data=[83, 0]),
   midi.NoteOnEvent(tick=0, channel=0, data=[84, 79]),
   midi.NoteOnEvent(tick=240, channel=0, data=[84, 0]),
   midi.NoteOnEvent(tick=0, channel=0, data=[81, 79]),
   midi.ControlChangeEvent(tick=96, channel=0, data=[7, 81]),
   midi.NoteOnEvent(tick=384, channel=0, data=[81, 0]),
   midi.ControlChangeEvent(tick=143, channel=0, data=[7, 54]),
   midi.ControlChangeEvent(tick=289, channel=0, data=[7, 104]),
   midi.NoteOnEvent(tick=48, channel=0, data=[79, 79]),
   midi.NoteOnEvent(tick=240, channel=0, data=[79, 0]),
   midi.NoteOnEvent(tick=0, channel=0, data=[81, 79]),
   midi.NoteOnEvent(tick=240, channel=0, data=[81, 0]),
   midi.NoteOnEvent(tick=0, channel=0, data=[78, 79]),
   midi.ControlChangeEvent(tick=72, channel=0, data=[7, 81]),
   midi.NoteOnEvent(tick=408, channel=0, data=[78, 0]),
   midi.ControlChangeEvent(tick=191, channel=0, data=[7, 58]),
   midi.ControlChangeEvent(tick=241, channel=0, data=[7, 108]),
   midi.NoteOnEvent(tick=48, channel=0, data=[76, 79]),
   midi.NoteOnEvent(tick=480, channel=0, data=[76, 0]),
   midi.NoteOnEvent(tick=0, channel=0, data=[79, 79]),
   midi.ControlChangeEvent(tick=168, channel=0, data=[7, 84]),
   midi.NoteOnEvent(tick=312, channel=0, data=[79, 0]),
   midi.NoteOnEvent(tick=0, channel=0, data=[83, 79]),
   midi.ControlChangeEvent(tick=383, channel=0, data=[7, 60]),
   midi.ControlChangeEvent(tick=1, channel=0, data=[7, 82]),
   midi.NoteOnEvent(tick=96, channel=0, data=[83, 0]),
   midi.NoteOnEvent(tick=0, channel=0, data=[74, 79]),
   midi.ControlChangeEvent(tick=95, channel=0, data=[7, 82]),
   midi.ControlChangeEvent(tick=49, channel=0, data=[7, 64]),
   midi.ControlChangeEvent(tick=48, channel=0, data=[7, 74]),
   midi.NoteOnEvent(tick=768, channel=0, data=[74, 0]),
   midi.NoteOnEvent(tick=0, channel=0, data=[73, 79]),
   midi.NoteOnEvent(tick=480, channel=0, data=[73, 0]),
   midi.NoteOnEvent(tick=0, channel=0, data=[74, 79]),
   midi.NoteOnEvent(tick=480, channel=0, data=[74, 0]),
   midi.NoteOnEvent(tick=0, channel=0, data=[76, 79]),
   midi.NoteOnEvent(tick=480, channel=0, data=[76, 0]),
   midi.NoteOnEvent(tick=0, channel=0, data=[78, 79]),
   midi.NoteOnEvent(tick=480, channel=0, data=[78, 0]),
   midi.NoteOnEvent(tick=0, channel=0, data=[79, 79]),
   midi.NoteOnEvent(tick=480, channel=0, data=[79, 0]),
   midi.NoteOnEvent(tick=0, channel=0, data=[81, 79]),
   midi.NoteOnEvent(tick=480, channel=0, data=[81, 0]),
   midi.NoteOnEvent(tick=0, channel=0, data=[83, 79]),
   midi.NoteOnEvent(tick=480, channel=0, data=[83, 0]),
   midi.NoteOnEvent(tick=0, channel=0, data=[81, 79]),
   midi.NoteOnEvent(tick=240, channel=0, data=[81, 0]),
   midi.NoteOnEvent(tick=240, channel=0, data=[78, 79]),
   midi.NoteOnEvent(tick=240, channel=0, data=[78, 0]),
   midi.NoteOnEvent(tick=0, channel=0, data=[74, 79]),
   midi.NoteOnEvent(tick=240, channel=0, data=[74, 0]),
   midi.NoteOnEvent(tick=0, channel=0, data=[76, 79]),
   midi.NoteOnEvent(tick=240, channel=0, data=[76, 0]),
   midi.NoteOnEvent(tick=0, channel=0, data=[73, 79]),
   midi.NoteOnEvent(tick=240, channel=0, data=[73, 0]),
   midi.NoteOnEvent(tick=0, channel=0, data=[74, 79]),
   midi.NoteOnEvent(tick=1440, channel=0, data=[74, 0]),
   midi.NoteOnEvent(tick=0, channel=0, data=[74, 79]),
   midi.NoteOnEvent(tick=480, channel=0, data=[74, 0]),
   midi.NoteOnEvent(tick=0, channel=0, data=[78, 79]),
   midi.NoteOnEvent(tick=480, channel=0, data=[78, 0]),
   midi.NoteOnEvent(tick=0, channel=0, data=[79, 79]),
   midi.NoteOnEvent(tick=480, channel=0, data=[79, 0]),
   midi.NoteOnEvent(tick=0, channel=0, data=[81, 79]),
   midi.NoteOnEvent(tick=480, channel=0, data=[81, 0]),
   midi.NoteOnEvent(tick=0, channel=0, data=[84, 79]),
   midi.NoteOnEvent(tick=480, channel=0, data=[84, 0]),
   midi.NoteOnEvent(tick=0, channel=0, data=[83, 79]),
   midi.NoteOnEvent(tick=480, channel=0, data=[83, 0]),
   midi.NoteOnEvent(tick=0, channel=0, data=[88, 79]),
   midi.NoteOnEvent(tick=240, channel=0, data=[88, 0]),
   midi.NoteOnEvent(tick=240, channel=0, data=[76, 79]),
   midi.NoteOnEvent(tick=240, channel=0, data=[76, 0]),
   midi.NoteOnEvent(tick=240, channel=0, data=[81, 79]),
   midi.NoteOnEvent(tick=240, channel=0, data=[81, 0]),
   midi.NoteOnEvent(tick=240, channel=0, data=[79, 79]),
   midi.NoteOnEvent(tick=960, channel=0, data=[79, 0]),
   midi.NoteOnEvent(tick=0, channel=0, data=[78, 79]),
   midi.ControlChangeEvent(tick=431, channel=0, data=[7, 74]),
   midi.NoteOnEvent(tick=49, channel=0, data=[78, 0]),
   midi.NoteOnEvent(tick=0, channel=0, data=[74, 79]),
   midi.ControlChangeEvent(tick=0, channel=0, data=[7, 100]),
   midi.NoteOnEvent(tick=1440, channel=0, data=[74, 0]),
   midi.NoteOnEvent(tick=0, channel=0, data=[84, 79]),
   midi.NoteOnEvent(tick=1440, channel=0, data=[84, 0]),
   midi.NoteOnEvent(tick=0, channel=0, data=[83, 79]),
   midi.NoteOnEvent(tick=240, channel=0, data=[83, 0]),
   midi.NoteOnEvent(tick=240, channel=0, data=[86, 79]),
   midi.NoteOnEvent(tick=240, channel=0, data=[86, 0]),
   midi.NoteOnEvent(tick=0, channel=0, data=[84, 79]),
   midi.NoteOnEvent(tick=240, channel=0, data=[84, 0]),
   midi.NoteOnEvent(tick=0, channel=0, data=[83, 79]),
   midi.NoteOnEvent(tick=240, channel=0, data=[83, 0]),
   midi.NoteOnEvent(tick=0, channel=0, data=[81, 79]),
   midi.NoteOnEvent(tick=240, channel=0, data=[81, 0]),
   midi.NoteOnEvent(tick=0, channel=0, data=[79, 79]),
   midi.NoteOnEvent(tick=960, channel=0, data=[79, 0]),
   midi.NoteOnEvent(tick=0, channel=0, data=[78, 79]),
   midi.NoteOnEvent(tick=480, channel=0, data=[78, 0]),
   midi.NoteOnEvent(tick=0, channel=0, data=[79, 79]),
   midi.NoteOnEvent(tick=480, channel=0, data=[79, 0]),
   midi.NoteOnEvent(tick=0, channel=0, data=[81, 79]),
   midi.NoteOnEvent(tick=480, channel=0, data=[81, 0]),
   midi.NoteOnEvent(tick=0, channel=0, data=[83, 79]),
   midi.NoteOnEvent(tick=480, channel=0, data=[83, 0]),
   midi.NoteOnEvent(tick=0, channel=0, data=[84, 79]),
   midi.NoteOnEvent(tick=240, channel=0, data=[84, 0]),
   midi.NoteOnEvent(tick=240, channel=0, data=[72, 79]),
   midi.NoteOnEvent(tick=480, channel=0, data=[72, 0]),
   midi.NoteOnEvent(tick=0, channel=0, data=[71, 79]),
   midi.NoteOnEvent(tick=480, channel=0, data=[71, 0]),
   midi.NoteOnEvent(tick=0, channel=0, data=[69, 79]),
   midi.NoteOnEvent(tick=240, channel=0, data=[69, 0]),
   midi.NoteOnEvent(tick=0, channel=0, data=[71, 79]),
   midi.NoteOnEvent(tick=240, channel=0, data=[71, 0]),
   midi.NoteOnEvent(tick=0, channel=0, data=[67, 79]),
   midi.NoteOnEvent(tick=240, channel=0, data=[67, 0]),
   midi.NoteOnEvent(tick=240, channel=0, data=[66, 79]),
   midi.NoteOnEvent(tick=240, channel=0, data=[66, 0]),
   midi.NoteOnEvent(tick=240, channel=0, data=[67, 79]),
   midi.NoteOnEvent(tick=960, channel=0, data=[67, 0]),
   midi.ControlChangeEvent(tick=480, channel=0, data=[7, 106]),
   midi.NoteOnEvent(tick=0, channel=0, data=[83, 79]),
   midi.NoteOnEvent(tick=240, channel=0, data=[83, 0]),
   midi.NoteOnEvent(tick=0, channel=0, data=[84, 79]),
   midi.NoteOnEvent(tick=240, channel=0, data=[84, 0]),
   midi.NoteOnEvent(tick=0, channel=0, data=[81, 79]),
   midi.ControlChangeEvent(tick=216, channel=0, data=[7, 79]),
   midi.NoteOnEvent(tick=264, channel=0, data=[81, 0]),
   midi.ControlChangeEvent(tick=431, channel=0, data=[7, 52]),
   midi.NoteOnEvent(tick=49, channel=0, data=[79, 79]),
   midi.ControlChangeEvent(tick=48, channel=0, data=[7, 106]),
   midi.NoteOnEvent(tick=192, channel=0, data=[79, 0]),
   midi.NoteOnEvent(tick=0, channel=0, data=[81, 79]),
   midi.NoteOnEvent(tick=240, channel=0, data=[81, 0]),
   midi.NoteOnEvent(tick=0, channel=0, data=[78, 79]),
   midi.ControlChangeEvent(tick=216, channel=0, data=[7, 80]),
   midi.NoteOnEvent(tick=264, channel=0, data=[78, 0]),
   midi.ControlChangeEvent(tick=383, channel=0, data=[7, 54]),
   midi.NoteOnEvent(tick=97, channel=0, data=[76, 79]),
   midi.ControlChangeEvent(tick=0, channel=0, data=[7, 106]),
   midi.NoteOnEvent(tick=480, channel=0, data=[76, 0]),
   midi.NoteOnEvent(tick=0, channel=0, data=[79, 79]),
   midi.ControlChangeEvent(tick=64, channel=0, data=[7, 89]),
   midi.NoteOnEvent(tick=416, channel=0, data=[79, 0]),
   midi.NoteOnEvent(tick=0, channel=0, data=[83, 79]),
   midi.ControlChangeEvent(tick=128, channel=0, data=[7, 72]),
   midi.NoteOnEvent(tick=352, channel=0, data=[83, 0]),
   midi.NoteOnEvent(tick=0, channel=0, data=[74, 79]),
   midi.ControlChangeEvent(tick=191, channel=0, data=[7, 56]),
   midi.ControlChangeEvent(tick=49, channel=0, data=[7, 72]),
   midi.NoteOnEvent(tick=720, channel=0, data=[74, 0]),
   midi.NoteOnEvent(tick=0, channel=0, data=[73, 79]),
   midi.NoteOnEvent(tick=480, channel=0, data=[73, 0]),
   midi.NoteOnEvent(tick=0, channel=0, data=[74, 79]),
   midi.NoteOnEvent(tick=480, channel=0, data=[74, 0]),
   midi.NoteOnEvent(tick=0, channel=0, data=[76, 79]),
   midi.NoteOnEvent(tick=480, channel=0, data=[76, 0]),
   midi.NoteOnEvent(tick=0, channel=0, data=[78, 79]),
   midi.NoteOnEvent(tick=480, channel=0, data=[78, 0]),
   midi.NoteOnEvent(tick=0, channel=0, data=[79, 79]),
   midi.NoteOnEvent(tick=480, channel=0, data=[79, 0]),
   midi.NoteOnEvent(tick=0, channel=0, data=[81, 79]),
   midi.NoteOnEvent(tick=480, channel=0, data=[81, 0]),
   midi.NoteOnEvent(tick=0, channel=0, data=[83, 79]),
   midi.NoteOnEvent(tick=480, channel=0, data=[83, 0]),
   midi.NoteOnEvent(tick=0, channel=0, data=[81, 79]),
   midi.NoteOnEvent(tick=480, channel=0, data=[81, 0]),
   midi.NoteOnEvent(tick=0, channel=0, data=[78, 79]),
   midi.NoteOnEvent(tick=240, channel=0, data=[78, 0]),
   midi.NoteOnEvent(tick=0, channel=0, data=[74, 79]),
   midi.NoteOnEvent(tick=240, channel=0, data=[74, 0]),
   midi.NoteOnEvent(tick=0, channel=0, data=[76, 79]),
   midi.NoteOnEvent(tick=240, channel=0, data=[76, 0]),
   midi.NoteOnEvent(tick=0, channel=0, data=[73, 79]),
   midi.NoteOnEvent(tick=240, channel=0, data=[73, 0]),
   midi.NoteOnEvent(tick=0, channel=0, data=[74, 79]),
   midi.ControlChangeEvent(tick=864, channel=0, data=[7, 72]),
   midi.NoteOnEvent(tick=576, channel=0, data=[74, 0]),
   midi.NoteOnEvent(tick=0, channel=0, data=[74, 79]),
   midi.NoteOnEvent(tick=480, channel=0, data=[74, 0]),
   midi.NoteOnEvent(tick=0, channel=0, data=[78, 79]),
   midi.NoteOnEvent(tick=480, channel=0, data=[78, 0]),
   midi.NoteOnEvent(tick=0, channel=0, data=[79, 79]),
   midi.NoteOnEvent(tick=480, channel=0, data=[79, 0]),
   midi.NoteOnEvent(tick=0, channel=0, data=[81, 79]),
   midi.NoteOnEvent(tick=480, channel=0, data=[81, 0]),
   midi.NoteOnEvent(tick=0, channel=0, data=[84, 79]),
   midi.NoteOnEvent(tick=480, channel=0, data=[84, 0]),
   midi.NoteOnEvent(tick=0, channel=0, data=[83, 79]),
   midi.NoteOnEvent(tick=480, channel=0, data=[83, 0]),
   midi.NoteOnEvent(tick=0, channel=0, data=[88, 79]),
   midi.NoteOnEvent(tick=480, channel=0, data=[88, 0]),
   midi.NoteOnEvent(tick=0, channel=0, data=[76, 79]),
   midi.NoteOnEvent(tick=480, channel=0, data=[76, 0]),
   midi.NoteOnEvent(tick=0, channel=0, data=[81, 79]),
   midi.NoteOnEvent(tick=480, channel=0, data=[81, 0]),
   midi.NoteOnEvent(tick=0, channel=0, data=[79, 79]),
   midi.NoteOnEvent(tick=960, channel=0, data=[79, 0]),
   midi.NoteOnEvent(tick=0, channel=0, data=[78, 79]),
   midi.NoteOnEvent(tick=480, channel=0, data=[78, 0]),
   midi.NoteOnEvent(tick=0, channel=0, data=[74, 79]),
   midi.ControlChangeEvent(tick=47, channel=0, data=[7, 74]),
   midi.ControlChangeEvent(tick=49, channel=0, data=[7, 98]),
   midi.NoteOnEvent(tick=1344, channel=0, data=[74, 0]),
   midi.NoteOnEvent(tick=0, channel=0, data=[84, 79]),
   midi.NoteOnEvent(tick=1440, channel=0, data=[84, 0]),
   midi.NoteOnEvent(tick=0, channel=0, data=[83, 79]),
   midi.NoteOnEvent(tick=480, channel=0, data=[83, 0]),
   midi.NoteOnEvent(tick=0, channel=0, data=[86, 79]),
   midi.NoteOnEvent(tick=240, channel=0, data=[86, 0]),
   midi.NoteOnEvent(tick=0, channel=0, data=[84, 79]),
   midi.NoteOnEvent(tick=240, channel=0, data=[84, 0]),
   midi.NoteOnEvent(tick=0, channel=0, data=[83, 79]),
   midi.NoteOnEvent(tick=240, channel=0, data=[83, 0]),
   midi.NoteOnEvent(tick=0, channel=0, data=[81, 79]),
   midi.NoteOnEvent(tick=240, channel=0, data=[81, 0]),
   midi.NoteOnEvent(tick=0, channel=0, data=[79, 79]),
   midi.NoteOnEvent(tick=960, channel=0, data=[79, 0]),
   midi.NoteOnEvent(tick=0, channel=0, data=[78, 79]),
   midi.NoteOnEvent(tick=480, channel=0, data=[78, 0]),
   midi.NoteOnEvent(tick=0, channel=0, data=[79, 79]),
   midi.ControlChangeEvent(tick=48, channel=0, data=[7, 98]),
   midi.NoteOnEvent(tick=432, channel=0, data=[79, 0]),
   midi.NoteOnEvent(tick=0, channel=0, data=[81, 79]),
   midi.NoteOnEvent(tick=480, channel=0, data=[81, 0]),
   midi.NoteOnEvent(tick=0, channel=0, data=[83, 79]),
   midi.NoteOnEvent(tick=480, channel=0, data=[83, 0]),
   midi.NoteOnEvent(tick=0, channel=0, data=[84, 79]),
   midi.NoteOnEvent(tick=480, channel=0, data=[84, 0]),
   midi.NoteOnEvent(tick=0, channel=0, data=[72, 79]),
   midi.NoteOnEvent(tick=480, channel=0, data=[72, 0]),
   midi.NoteOnEvent(tick=0, channel=0, data=[71, 79]),
   midi.NoteOnEvent(tick=480, channel=0, data=[71, 0]),
   midi.NoteOnEvent(tick=0, channel=0, data=[69, 79]),
   midi.NoteOnEvent(tick=240, channel=0, data=[69, 0]),
   midi.NoteOnEvent(tick=0, channel=0, data=[71, 79]),
   midi.NoteOnEvent(tick=240, channel=0, data=[71, 0]),
   midi.NoteOnEvent(tick=0, channel=0, data=[67, 79]),
   midi.NoteOnEvent(tick=480, channel=0, data=[67, 0]),
   midi.NoteOnEvent(tick=0, channel=0, data=[66, 79]),
   midi.NoteOnEvent(tick=480, channel=0, data=[66, 0]),
   midi.NoteOnEvent(tick=0, channel=0, data=[67, 79]),
   midi.NoteOnEvent(tick=960, channel=0, data=[67, 0]),
   midi.ControlChangeEvent(tick=479, channel=0, data=[7, 60]),
   midi.NoteOnEvent(tick=1, channel=0, data=[67, 36]),
   midi.ControlChangeEvent(tick=48, channel=0, data=[7, 74]),
   midi.NoteOnEvent(tick=432, channel=0, data=[67, 0]),
   midi.NoteOnEvent(tick=0, channel=0, data=[72, 36]),
   midi.NoteOnEvent(tick=480, channel=0, data=[72, 0]),
   midi.NoteOnEvent(tick=0, channel=0, data=[76, 36]),
   midi.NoteOnEvent(tick=480, channel=0, data=[76, 0]),
   midi.NoteOnEvent(tick=0, channel=0, data=[79, 36]),
   midi.NoteOnEvent(tick=960, channel=0, data=[79, 0]),
   midi.NoteOnEvent(tick=0, channel=0, data=[74, 36]),
   midi.NoteOnEvent(tick=240, channel=0, data=[74, 0]),
   midi.NoteOnEvent(tick=240, channel=0, data=[64, 36]),
   midi.NoteOnEvent(tick=480, channel=0, data=[64, 0]),
   midi.NoteOnEvent(tick=0, channel=0, data=[69, 36]),
   midi.NoteOnEvent(tick=480, channel=0, data=[69, 0]),
   midi.NoteOnEvent(tick=0, channel=0, data=[72, 36]),
   midi.NoteOnEvent(tick=480, channel=0, data=[72, 0]),
   midi.NoteOnEvent(tick=0, channel=0, data=[76, 36]),
   midi.NoteOnEvent(tick=960, channel=0, data=[76, 0]),
   midi.NoteOnEvent(tick=0, channel=0, data=[71, 36]),
   midi.NoteOnEvent(tick=240, channel=0, data=[71, 0]),
   midi.NoteOnEvent(tick=240, channel=0, data=[60, 36]),
   midi.NoteOnEvent(tick=480, channel=0, data=[60, 0]),
   midi.NoteOnEvent(tick=0, channel=0, data=[65, 36]),
   midi.NoteOnEvent(tick=480, channel=0, data=[65, 0]),
   midi.NoteOnEvent(tick=0, channel=0, data=[69, 36]),
   midi.NoteOnEvent(tick=480, channel=0, data=[69, 0]),
   midi.NoteOnEvent(tick=0, channel=0, data=[67, 36]),
   midi.NoteOnEvent(tick=240, channel=0, data=[67, 0]),
   midi.NoteOnEvent(tick=0, channel=0, data=[72, 36]),
   midi.NoteOnEvent(tick=240, channel=0, data=[72, 0]),
   midi.NoteOnEvent(tick=0, channel=0, data=[72, 36]),
   midi.NoteOnEvent(tick=720, channel=0, data=[72, 0]),
   midi.NoteOnEvent(tick=0, channel=0, data=[76, 36]),
   midi.NoteOnEvent(tick=240, channel=0, data=[76, 0]),
   midi.NoteOnEvent(tick=0, channel=0, data=[69, 36]),
   midi.NoteOnEvent(tick=480, channel=0, data=[69, 0]),
   midi.NoteOnEvent(tick=0, channel=0, data=[77, 36]),
   midi.NoteOnEvent(tick=240, channel=0, data=[77, 0]),
   midi.NoteOnEvent(tick=0, channel=0, data=[74, 36]),
   midi.NoteOnEvent(tick=240, channel=0, data=[74, 0]),
   midi.NoteOnEvent(tick=0, channel=0, data=[72, 36]),
   midi.NoteOnEvent(tick=240, channel=0, data=[72, 0]),
   midi.NoteOnEvent(tick=0, channel=0, data=[71, 36]),
   midi.NoteOnEvent(tick=240, channel=0, data=[71, 0]),
   midi.NoteOnEvent(tick=0, channel=0, data=[71, 36]),
   midi.NoteOnEvent(tick=240, channel=0, data=[71, 0]),
   midi.NoteOnEvent(tick=0, channel=0, data=[72, 36]),
   midi.NoteOnEvent(tick=720, channel=0, data=[72, 0]),
   midi.NoteOnEvent(tick=480, channel=0, data=[67, 36]),
   midi.NoteOnEvent(tick=480, channel=0, data=[67, 0]),
   midi.NoteOnEvent(tick=0, channel=0, data=[72, 36]),
   midi.NoteOnEvent(tick=480, channel=0, data=[72, 0]),
   midi.NoteOnEvent(tick=0, channel=0, data=[76, 36]),
   midi.NoteOnEvent(tick=480, channel=0, data=[76, 0]),
   midi.NoteOnEvent(tick=0, channel=0, data=[79, 36]),
   midi.NoteOnEvent(tick=960, channel=0, data=[79, 0]),
   midi.NoteOnEvent(tick=0, channel=0, data=[74, 36]),
   midi.NoteOnEvent(tick=240, channel=0, data=[74, 0]),
   midi.NoteOnEvent(tick=240, channel=0, data=[64, 36]),
   midi.NoteOnEvent(tick=480, channel=0, data=[64, 0]),
   midi.NoteOnEvent(tick=0, channel=0, data=[69, 36]),
   midi.NoteOnEvent(tick=480, channel=0, data=[69, 0]),
   midi.NoteOnEvent(tick=0, channel=0, data=[72, 36]),
   midi.NoteOnEvent(tick=480, channel=0, data=[72, 0]),
   midi.NoteOnEvent(tick=0, channel=0, data=[76, 36]),
   midi.NoteOnEvent(tick=960, channel=0, data=[76, 0]),
   midi.NoteOnEvent(tick=0, channel=0, data=[71, 36]),
   midi.NoteOnEvent(tick=240, channel=0, data=[71, 0]),
   midi.NoteOnEvent(tick=240, channel=0, data=[60, 36]),
   midi.NoteOnEvent(tick=480, channel=0, data=[60, 0]),
   midi.NoteOnEvent(tick=0, channel=0, data=[65, 36]),
   midi.NoteOnEvent(tick=480, channel=0, data=[65, 0]),
   midi.NoteOnEvent(tick=0, channel=0, data=[69, 36]),
   midi.NoteOnEvent(tick=480, channel=0, data=[69, 0]),
   midi.NoteOnEvent(tick=0, channel=0, data=[67, 36]),
   midi.NoteOnEvent(tick=240, channel=0, data=[67, 0]),
   midi.NoteOnEvent(tick=0, channel=0, data=[72, 36]),
   midi.NoteOnEvent(tick=240, channel=0, data=[72, 0]),
   midi.NoteOnEvent(tick=0, channel=0, data=[72, 36]),
   midi.NoteOnEvent(tick=720, channel=0, data=[72, 0]),
   midi.NoteOnEvent(tick=0, channel=0, data=[76, 36]),
   midi.NoteOnEvent(tick=240, channel=0, data=[76, 0]),
   midi.NoteOnEvent(tick=0, channel=0, data=[69, 36]),
   midi.NoteOnEvent(tick=480, channel=0, data=[69, 0]),
   midi.NoteOnEvent(tick=0, channel=0, data=[77, 36]),
   midi.NoteOnEvent(tick=240, channel=0, data=[77, 0]),
   midi.NoteOnEvent(tick=0, channel=0, data=[74, 36]),
   midi.NoteOnEvent(tick=240, channel=0, data=[74, 0]),
   midi.NoteOnEvent(tick=0, channel=0, data=[72, 36]),
   midi.NoteOnEvent(tick=240, channel=0, data=[72, 0]),
   midi.NoteOnEvent(tick=0, channel=0, data=[71, 36]),
   midi.NoteOnEvent(tick=240, channel=0, data=[71, 0]),
   midi.NoteOnEvent(tick=0, channel=0, data=[71, 36]),
   midi.NoteOnEvent(tick=240, channel=0, data=[71, 0]),
   midi.NoteOnEvent(tick=0, channel=0, data=[72, 36]),
   midi.NoteOnEvent(tick=720, channel=0, data=[72, 0]),
   midi.ControlChangeEvent(tick=1919, channel=0, data=[7, 74]),
   midi.NoteOnEvent(tick=1, channel=0, data=[79, 79]),
   midi.ControlChangeEvent(tick=0, channel=0, data=[7, 106]),
   midi.NoteOnEvent(tick=720, channel=0, data=[79, 0]),
   midi.NoteOnEvent(tick=0, channel=0, data=[78, 79]),
   midi.NoteOnEvent(tick=120, channel=0, data=[78, 0]),
   midi.NoteOnEvent(tick=0, channel=0, data=[76, 79]),
   midi.NoteOnEvent(tick=120, channel=0, data=[76, 0]),
   midi.NoteOnEvent(tick=0, channel=0, data=[74, 79]),
   midi.NoteOnEvent(tick=480, channel=0, data=[74, 0]),
   midi.ControlChangeEvent(tick=0, channel=0, data=[7, 60]),
   midi.NoteOnEvent(tick=0, channel=0, data=[71, 36]),
   midi.ControlChangeEvent(tick=48, channel=0, data=[7, 74]),
   midi.NoteOnEvent(tick=432, channel=0, data=[71, 0]),
   midi.NoteOnEvent(tick=0, channel=0, data=[71, 36]),
   midi.NoteOnEvent(tick=480, channel=0, data=[71, 0]),
   midi.NoteOnEvent(tick=0, channel=0, data=[72, 36]),
   midi.NoteOnEvent(tick=240, channel=0, data=[72, 0]),
   midi.NoteOnEvent(tick=0, channel=0, data=[69, 36]),
   midi.NoteOnEvent(tick=240, channel=0, data=[69, 0]),
   midi.NoteOnEvent(tick=0, channel=0, data=[71, 36]),
   midi.NoteOnEvent(tick=480, channel=0, data=[71, 0]),
   midi.NoteOnEvent(tick=0, channel=0, data=[74, 36]),
   midi.NoteOnEvent(tick=60, channel=0, data=[74, 0]),
   midi.NoteOnEvent(tick=0, channel=0, data=[72, 36]),
   midi.NoteOnEvent(tick=60, channel=0, data=[72, 0]),
   midi.NoteOnEvent(tick=0, channel=0, data=[74, 36]),
   midi.NoteOnEvent(tick=60, channel=0, data=[74, 0]),
   midi.NoteOnEvent(tick=0, channel=0, data=[72, 36]),
   midi.NoteOnEvent(tick=60, channel=0, data=[72, 0]),
   midi.NoteOnEvent(tick=0, channel=0, data=[74, 36]),
   midi.NoteOnEvent(tick=60, channel=0, data=[74, 0]),
   midi.NoteOnEvent(tick=0, channel=0, data=[72, 36]),
   midi.NoteOnEvent(tick=60, channel=0, data=[72, 0]),
   midi.NoteOnEvent(tick=0, channel=0, data=[74, 36]),
   midi.NoteOnEvent(tick=60, channel=0, data=[74, 0]),
   midi.NoteOnEvent(tick=0, channel=0, data=[72, 36]),
   midi.NoteOnEvent(tick=60, channel=0, data=[72, 0]),
   midi.NoteOnEvent(tick=0, channel=0, data=[74, 36]),
   midi.ControlChangeEvent(tick=431, channel=0, data=[7, 74]),
   midi.NoteOnEvent(tick=49, channel=0, data=[74, 0]),
   midi.NoteOnEvent(tick=0, channel=0, data=[55, 79]),
   midi.ControlChangeEvent(tick=0, channel=0, data=[7, 106]),
   midi.NoteOnEvent(tick=240, channel=0, data=[55, 0]),
   midi.NoteOnEvent(tick=0, channel=0, data=[79, 79]),
   midi.NoteOnEvent(tick=240, channel=0, data=[79, 0]),
   midi.NoteOnEvent(tick=0, channel=0, data=[78, 79]),
   midi.NoteOnEvent(tick=240, channel=0, data=[78, 0]),
   midi.NoteOnEvent(tick=0, channel=0, data=[76, 79]),
   midi.NoteOnEvent(tick=240, channel=0, data=[76, 0]),
   midi.NoteOnEvent(tick=0, channel=0, data=[74, 79]),
   midi.NoteOnEvent(tick=240, channel=0, data=[74, 0]),
   midi.NoteOnEvent(tick=0, channel=0, data=[72, 79]),
   midi.NoteOnEvent(tick=240, channel=0, data=[72, 0]),
   midi.NoteOnEvent(tick=0, channel=0, data=[71, 79]),
   midi.NoteOnEvent(tick=240, channel=0, data=[71, 0]),
   midi.NoteOnEvent(tick=0, channel=0, data=[76, 79]),
   midi.NoteOnEvent(tick=240, channel=0, data=[76, 0]),
   midi.NoteOnEvent(tick=0, channel=0, data=[74, 79]),
   midi.NoteOnEvent(tick=240, channel=0, data=[74, 0]),
   midi.NoteOnEvent(tick=0, channel=0, data=[72, 79]),
   midi.NoteOnEvent(tick=240, channel=0, data=[72, 0]),
   midi.NoteOnEvent(tick=0, channel=0, data=[71, 79]),
   midi.NoteOnEvent(tick=240, channel=0, data=[71, 0]),
   midi.NoteOnEvent(tick=0, channel=0, data=[69, 79]),
   midi.NoteOnEvent(tick=240, channel=0, data=[69, 0]),
   midi.NoteOnEvent(tick=0, channel=0, data=[67, 79]),
   midi.NoteOnEvent(tick=480, channel=0, data=[67, 0]),
   midi.NoteOnEvent(tick=0, channel=0, data=[57, 79]),
   midi.NoteOnEvent(tick=480, channel=0, data=[57, 0]),
   midi.NoteOnEvent(tick=0, channel=0, data=[79, 79]),
   midi.NoteOnEvent(tick=60, channel=0, data=[79, 0]),
   midi.NoteOnEvent(tick=0, channel=0, data=[78, 79]),
   midi.NoteOnEvent(tick=60, channel=0, data=[78, 0]),
   midi.NoteOnEvent(tick=0, channel=0, data=[79, 79]),
   midi.NoteOnEvent(tick=60, channel=0, data=[79, 0]),
   midi.NoteOnEvent(tick=0, channel=0, data=[78, 79]),
   midi.NoteOnEvent(tick=60, channel=0, data=[78, 0]),
   midi.NoteOnEvent(tick=0, channel=0, data=[79, 79]),
   midi.NoteOnEvent(tick=60, channel=0, data=[79, 0]),
   midi.NoteOnEvent(tick=0, channel=0, data=[78, 79]),
   midi.NoteOnEvent(tick=60, channel=0, data=[78, 0]),
   midi.NoteOnEvent(tick=0, channel=0, data=[78, 79]),
   midi.NoteOnEvent(tick=40, channel=0, data=[78, 0]),
   midi.NoteOnEvent(tick=0, channel=0, data=[76, 79]),
   midi.NoteOnEvent(tick=40, channel=0, data=[76, 0]),
   midi.NoteOnEvent(tick=0, channel=0, data=[78, 79]),
   midi.NoteOnEvent(tick=40, channel=0, data=[78, 0]),
   midi.NoteOnEvent(tick=0, channel=0, data=[79, 79]),
   midi.NoteOnEvent(tick=480, channel=0, data=[79, 0]),
   midi.NoteOnEvent(tick=0, channel=0, data=[67, 79]),
   midi.NoteOnEvent(tick=480, channel=0, data=[67, 0]),
   midi.ControlChangeEvent(tick=480, channel=0, data=[7, 62]),
   midi.NoteOnEvent(tick=0, channel=0, data=[67, 36]),
   midi.ControlChangeEvent(tick=48, channel=0, data=[7, 74]),
   midi.NoteOnEvent(tick=432, channel=0, data=[67, 0]),
   midi.NoteOnEvent(tick=0, channel=0, data=[69, 36]),
   midi.NoteOnEvent(tick=480, channel=0, data=[69, 0]),
   midi.NoteOnEvent(tick=0, channel=0, data=[76, 36]),
   midi.NoteOnEvent(tick=480, channel=0, data=[76, 0]),
   midi.NoteOnEvent(tick=0, channel=0, data=[79, 36]),
   midi.NoteOnEvent(tick=960, channel=0, data=[79, 0]),
   midi.NoteOnEvent(tick=0, channel=0, data=[74, 36]),
   midi.NoteOnEvent(tick=240, channel=0, data=[74, 0]),
   midi.NoteOnEvent(tick=240, channel=0, data=[64, 36]),
   midi.NoteOnEvent(tick=480, channel=0, data=[64, 0]),
   midi.NoteOnEvent(tick=0, channel=0, data=[69, 36]),
   midi.NoteOnEvent(tick=480, channel=0, data=[69, 0]),
   midi.NoteOnEvent(tick=0, channel=0, data=[72, 36]),
   midi.NoteOnEvent(tick=480, channel=0, data=[72, 0]),
   midi.NoteOnEvent(tick=0, channel=0, data=[76, 36]),
   midi.NoteOnEvent(tick=960, channel=0, data=[76, 0]),
   midi.NoteOnEvent(tick=0, channel=0, data=[71, 36]),
   midi.NoteOnEvent(tick=240, channel=0, data=[71, 0]),
   midi.NoteOnEvent(tick=240, channel=0, data=[60, 36]),
   midi.NoteOnEvent(tick=480, channel=0, data=[60, 0]),
   midi.NoteOnEvent(tick=0, channel=0, data=[65, 36]),
   midi.NoteOnEvent(tick=480, channel=0, data=[65, 0]),
   midi.NoteOnEvent(tick=0, channel=0, data=[69, 36]),
   midi.NoteOnEvent(tick=480, channel=0, data=[69, 0]),
   midi.NoteOnEvent(tick=0, channel=0, data=[67, 36]),
   midi.NoteOnEvent(tick=240, channel=0, data=[67, 0]),
   midi.NoteOnEvent(tick=0, channel=0, data=[72, 36]),
   midi.NoteOnEvent(tick=240, channel=0, data=[72, 0]),
   midi.NoteOnEvent(tick=0, channel=0, data=[72, 36]),
   midi.NoteOnEvent(tick=720, channel=0, data=[72, 0]),
   midi.NoteOnEvent(tick=0, channel=0, data=[76, 36]),
   midi.NoteOnEvent(tick=240, channel=0, data=[76, 0]),
   midi.NoteOnEvent(tick=0, channel=0, data=[69, 36]),
   midi.NoteOnEvent(tick=480, channel=0, data=[69, 0]),
   midi.NoteOnEvent(tick=0, channel=0, data=[77, 36]),
   midi.NoteOnEvent(tick=240, channel=0, data=[77, 0]),
   midi.NoteOnEvent(tick=0, channel=0, data=[74, 36]),
   midi.NoteOnEvent(tick=240, channel=0, data=[74, 0]),
   midi.NoteOnEvent(tick=0, channel=0, data=[72, 36]),
   midi.NoteOnEvent(tick=240, channel=0, data=[72, 0]),
   midi.NoteOnEvent(tick=0, channel=0, data=[71, 36]),
   midi.NoteOnEvent(tick=240, channel=0, data=[71, 0]),
   midi.NoteOnEvent(tick=0, channel=0, data=[71, 36]),
   midi.NoteOnEvent(tick=240, channel=0, data=[71, 0]),
   midi.NoteOnEvent(tick=0, channel=0, data=[72, 36]),
   midi.NoteOnEvent(tick=720, channel=0, data=[72, 0]),
   midi.ControlChangeEvent(tick=1823, channel=0, data=[7, 74]),
   midi.ControlChangeEvent(tick=49, channel=0, data=[7, 96]),
   midi.NoteOnEvent(tick=48, channel=0, data=[79, 79]),
   midi.ControlChangeEvent(tick=144, channel=0, data=[7, 100]),
   midi.NoteOnEvent(tick=576, channel=0, data=[79, 0]),
   midi.NoteOnEvent(tick=0, channel=0, data=[78, 79]),
   midi.NoteOnEvent(tick=120, channel=0, data=[78, 0]),
   midi.NoteOnEvent(tick=0, channel=0, data=[76, 79]),
   midi.NoteOnEvent(tick=120, channel=0, data=[76, 0]),
   midi.NoteOnEvent(tick=0, channel=0, data=[74, 79]),
   midi.NoteOnEvent(tick=480, channel=0, data=[74, 0]),
   midi.ControlChangeEvent(tick=0, channel=0, data=[7, 64]),
   midi.NoteOnEvent(tick=0, channel=0, data=[71, 36]),
   midi.ControlChangeEvent(tick=48, channel=0, data=[7, 76]),
   midi.NoteOnEvent(tick=432, channel=0, data=[71, 0]),
   midi.NoteOnEvent(tick=0, channel=0, data=[71, 36]),
   midi.NoteOnEvent(tick=480, channel=0, data=[71, 0]),
   midi.NoteOnEvent(tick=0, channel=0, data=[72, 36]),
   midi.NoteOnEvent(tick=240, channel=0, data=[72, 0]),
   midi.NoteOnEvent(tick=0, channel=0, data=[69, 36]),
   midi.NoteOnEvent(tick=240, channel=0, data=[69, 0]),
   midi.NoteOnEvent(tick=0, channel=0, data=[71, 36]),
   midi.NoteOnEvent(tick=480, channel=0, data=[71, 0]),
   midi.NoteOnEvent(tick=0, channel=0, data=[74, 36]),
   midi.NoteOnEvent(tick=60, channel=0, data=[74, 0]),
   midi.NoteOnEvent(tick=0, channel=0, data=[72, 36]),
   midi.NoteOnEvent(tick=60, channel=0, data=[72, 0]),
   midi.NoteOnEvent(tick=0, channel=0, data=[74, 36]),
   midi.NoteOnEvent(tick=60, channel=0, data=[74, 0]),
   midi.NoteOnEvent(tick=0, channel=0, data=[72, 36]),
   midi.NoteOnEvent(tick=60, channel=0, data=[72, 0]),
   midi.NoteOnEvent(tick=0, channel=0, data=[74, 36]),
   midi.NoteOnEvent(tick=60, channel=0, data=[74, 0]),
   midi.NoteOnEvent(tick=0, channel=0, data=[72, 36]),
   midi.NoteOnEvent(tick=60, channel=0, data=[72, 0]),
   midi.NoteOnEvent(tick=0, channel=0, data=[74, 36]),
   midi.NoteOnEvent(tick=60, channel=0, data=[74, 0]),
   midi.NoteOnEvent(tick=0, channel=0, data=[72, 36]),
   midi.NoteOnEvent(tick=60, channel=0, data=[72, 0]),
   midi.NoteOnEvent(tick=0, channel=0, data=[74, 36]),
   midi.ControlChangeEvent(tick=431, channel=0, data=[7, 76]),
   midi.NoteOnEvent(tick=49, channel=0, data=[74, 0]),
   midi.NoteOnEvent(tick=0, channel=0, data=[55, 79]),
   midi.ControlChangeEvent(tick=0, channel=0, data=[7, 100]),
   midi.NoteOnEvent(tick=240, channel=0, data=[55, 0]),
   midi.NoteOnEvent(tick=0, channel=0, data=[79, 79]),
   midi.NoteOnEvent(tick=240, channel=0, data=[79, 0]),
   midi.NoteOnEvent(tick=0, channel=0, data=[78, 79]),
   midi.NoteOnEvent(tick=240, channel=0, data=[78, 0]),
   midi.NoteOnEvent(tick=0, channel=0, data=[76, 79]),
   midi.NoteOnEvent(tick=240, channel=0, data=[76, 0]),
   midi.NoteOnEvent(tick=0, channel=0, data=[74, 79]),
   midi.NoteOnEvent(tick=240, channel=0, data=[74, 0]),
   midi.NoteOnEvent(tick=0, channel=0, data=[72, 79]),
   midi.NoteOnEvent(tick=240, channel=0, data=[72, 0]),
   midi.NoteOnEvent(tick=0, channel=0, data=[71, 79]),
   midi.NoteOnEvent(tick=240, channel=0, data=[71, 0]),
   midi.NoteOnEvent(tick=0, channel=0, data=[76, 79]),
   midi.NoteOnEvent(tick=240, channel=0, data=[76, 0]),
   midi.NoteOnEvent(tick=0, channel=0, data=[74, 79]),
   midi.NoteOnEvent(tick=240, channel=0, data=[74, 0]),
   midi.NoteOnEvent(tick=0, channel=0, data=[72, 79]),
   midi.NoteOnEvent(tick=240, channel=0, data=[72, 0]),
   midi.NoteOnEvent(tick=0, channel=0, data=[71, 79]),
   midi.NoteOnEvent(tick=240, channel=0, data=[71, 0]),
   midi.NoteOnEvent(tick=0, channel=0, data=[69, 79]),
   midi.NoteOnEvent(tick=240, channel=0, data=[69, 0]),
   midi.NoteOnEvent(tick=0, channel=0, data=[67, 79]),
   midi.NoteOnEvent(tick=480, channel=0, data=[67, 0]),
   midi.NoteOnEvent(tick=0, channel=0, data=[57, 79]),
   midi.NoteOnEvent(tick=480, channel=0, data=[57, 0]),
   midi.NoteOnEvent(tick=0, channel=0, data=[79, 79]),
   midi.NoteOnEvent(tick=60, channel=0, data=[79, 0]),
   midi.NoteOnEvent(tick=0, channel=0, data=[78, 79]),
   midi.NoteOnEvent(tick=60, channel=0, data=[78, 0]),
   midi.NoteOnEvent(tick=0, channel=0, data=[79, 79]),
   midi.NoteOnEvent(tick=60, channel=0, data=[79, 0]),
   midi.NoteOnEvent(tick=0, channel=0, data=[78, 79]),
   midi.NoteOnEvent(tick=60, channel=0, data=[78, 0]),
   midi.NoteOnEvent(tick=0, channel=0, data=[79, 79]),
   midi.NoteOnEvent(tick=60, channel=0, data=[79, 0]),
   midi.NoteOnEvent(tick=0, channel=0, data=[78, 79]),
   midi.NoteOnEvent(tick=60, channel=0, data=[78, 0]),
   midi.NoteOnEvent(tick=0, channel=0, data=[78, 79]),
   midi.NoteOnEvent(tick=40, channel=0, data=[78, 0]),
   midi.NoteOnEvent(tick=0, channel=0, data=[76, 79]),
   midi.NoteOnEvent(tick=40, channel=0, data=[76, 0]),
   midi.NoteOnEvent(tick=0, channel=0, data=[78, 79]),
   midi.NoteOnEvent(tick=40, channel=0, data=[78, 0]),
   midi.NoteOnEvent(tick=0, channel=0, data=[79, 79]),
   midi.NoteOnEvent(tick=480, channel=0, data=[79, 0]),
   midi.NoteOnEvent(tick=0, channel=0, data=[67, 79]),
   midi.NoteOnEvent(tick=480, channel=0, data=[67, 0]),
   midi.ControlChangeEvent(tick=480, channel=0, data=[7, 72]),
   midi.NoteOnEvent(tick=0, channel=0, data=[67, 36]),
   midi.NoteOnEvent(tick=480, channel=0, data=[67, 0]),
   midi.NoteOnEvent(tick=0, channel=0, data=[69, 36]),
   midi.NoteOnEvent(tick=480, channel=0, data=[69, 0]),
   midi.NoteOnEvent(tick=0, channel=0, data=[76, 36]),
   midi.NoteOnEvent(tick=480, channel=0, data=[76, 0]),
   midi.NoteOnEvent(tick=0, channel=0, data=[79, 36]),
   midi.ControlChangeEvent(tick=464, channel=0, data=[7, 72]),
   midi.NoteOnEvent(tick=496, channel=0, data=[79, 0]),
   midi.NoteOnEvent(tick=0, channel=0, data=[74, 36]),
   midi.NoteOnEvent(tick=240, channel=0, data=[74, 0]),
   midi.NoteOnEvent(tick=240, channel=0, data=[64, 36]),
   midi.NoteOnEvent(tick=480, channel=0, data=[64, 0]),
   midi.NoteOnEvent(tick=0, channel=0, data=[69, 36]),
   midi.ControlChangeEvent(tick=448, channel=0, data=[7, 73]),
   midi.NoteOnEvent(tick=32, channel=0, data=[69, 0]),
   midi.NoteOnEvent(tick=0, channel=0, data=[72, 36]),
   midi.NoteOnEvent(tick=480, channel=0, data=[72, 0]),
   midi.NoteOnEvent(tick=0, channel=0, data=[76, 36]),
   midi.NoteOnEvent(tick=960, channel=0, data=[76, 0]),
   midi.NoteOnEvent(tick=0, channel=0, data=[71, 36]),
   midi.NoteOnEvent(tick=240, channel=0, data=[71, 0]),
   midi.ControlChangeEvent(tick=192, channel=0, data=[7, 74]),
   midi.NoteOnEvent(tick=48, channel=0, data=[60, 36]),
   midi.NoteOnEvent(tick=480, channel=0, data=[60, 0]),
   midi.NoteOnEvent(tick=0, channel=0, data=[65, 36]),
   midi.NoteOnEvent(tick=480, channel=0, data=[65, 0]),
   midi.NoteOnEvent(tick=0, channel=0, data=[69, 36]),
   midi.NoteOnEvent(tick=480, channel=0, data=[69, 0]),
   midi.NoteOnEvent(tick=0, channel=0, data=[67, 36]),
   midi.NoteOnEvent(tick=240, channel=0, data=[67, 0]),
   midi.NoteOnEvent(tick=0, channel=0, data=[72, 36]),
   midi.ControlChangeEvent(tick=176, channel=0, data=[7, 75]),
   midi.NoteOnEvent(tick=64, channel=0, data=[72, 0]),
   midi.NoteOnEvent(tick=0, channel=0, data=[72, 36]),
   midi.NoteOnEvent(tick=720, channel=0, data=[72, 0]),
   midi.NoteOnEvent(tick=0, channel=0, data=[76, 36]),
   midi.NoteOnEvent(tick=240, channel=0, data=[76, 0]),
   midi.NoteOnEvent(tick=0, channel=0, data=[69, 36]),
   midi.NoteOnEvent(tick=480, channel=0, data=[69, 0]),
   midi.NoteOnEvent(tick=0, channel=0, data=[77, 36]),
   midi.NoteOnEvent(tick=240, channel=0, data=[77, 0]),
   midi.NoteOnEvent(tick=0, channel=0, data=[74, 36]),
   midi.ControlChangeEvent(tick=160, channel=0, data=[7, 76]),
   midi.NoteOnEvent(tick=80, channel=0, data=[74, 0]),
   midi.NoteOnEvent(tick=0, channel=0, data=[72, 36]),
   midi.NoteOnEvent(tick=240, channel=0, data=[72, 0]),
   midi.NoteOnEvent(tick=0, channel=0, data=[71, 36]),
   midi.NoteOnEvent(tick=240, channel=0, data=[71, 0]),
   midi.NoteOnEvent(tick=0, channel=0, data=[71, 36]),
   midi.NoteOnEvent(tick=240, channel=0, data=[71, 0]),
   midi.NoteOnEvent(tick=0, channel=0, data=[72, 36]),
   midi.NoteOnEvent(tick=720, channel=0, data=[72, 0]),
   midi.ControlChangeEvent(tick=383, channel=0, data=[7, 78]),
   midi.ControlChangeEvent(tick=49, channel=0, data=[7, 102]),
   midi.NoteOnEvent(tick=48, channel=0, data=[74, 36]),
   midi.NoteOnEvent(tick=1440, channel=0, data=[74, 0]),
   midi.NoteOnEvent(tick=0, channel=0, data=[84, 36]),
   midi.NoteOnEvent(tick=1440, channel=0, data=[84, 0]),
   midi.NoteOnEvent(tick=0, channel=0, data=[83, 36]),
   midi.NoteOnEvent(tick=480, channel=0, data=[83, 0]),
   midi.NoteOnEvent(tick=0, channel=0, data=[86, 36]),
   midi.NoteOnEvent(tick=240, channel=0, data=[86, 0]),
   midi.NoteOnEvent(tick=0, channel=0, data=[84, 36]),
   midi.NoteOnEvent(tick=240, channel=0, data=[84, 0]),
   midi.NoteOnEvent(tick=0, channel=0, data=[83, 36]),
   midi.NoteOnEvent(tick=240, channel=0, data=[83, 0]),
   midi.NoteOnEvent(tick=0, channel=0, data=[81, 36]),
   midi.NoteOnEvent(tick=240, channel=0, data=[81, 0]),
   midi.NoteOnEvent(tick=0, channel=0, data=[79, 36]),
   midi.NoteOnEvent(tick=960, channel=0, data=[79, 0]),
   midi.NoteOnEvent(tick=0, channel=0, data=[78, 36]),
   midi.NoteOnEvent(tick=480, channel=0, data=[78, 0]),
   midi.NoteOnEvent(tick=0, channel=0, data=[79, 36]),
   midi.NoteOnEvent(tick=480, channel=0, data=[79, 0]),
   midi.NoteOnEvent(tick=0, channel=0, data=[81, 36]),
   midi.NoteOnEvent(tick=480, channel=0, data=[81, 0]),
   midi.NoteOnEvent(tick=0, channel=0, data=[83, 36]),
   midi.NoteOnEvent(tick=480, channel=0, data=[83, 0]),
   midi.NoteOnEvent(tick=0, channel=0, data=[84, 36]),
   midi.NoteOnEvent(tick=480, channel=0, data=[84, 0]),
   midi.NoteOnEvent(tick=0, channel=0, data=[72, 36]),
   midi.NoteOnEvent(tick=480, channel=0, data=[72, 0]),
   midi.NoteOnEvent(tick=0, channel=0, data=[71, 36]),
   midi.NoteOnEvent(tick=480, channel=0, data=[71, 0]),
   midi.NoteOnEvent(tick=0, channel=0, data=[69, 36]),
   midi.NoteOnEvent(tick=240, channel=0, data=[69, 0]),
   midi.NoteOnEvent(tick=0, channel=0, data=[71, 36]),
   midi.NoteOnEvent(tick=240, channel=0, data=[71, 0]),
   midi.NoteOnEvent(tick=0, channel=0, data=[67, 36]),
   midi.NoteOnEvent(tick=480, channel=0, data=[67, 0]),
   midi.NoteOnEvent(tick=0, channel=0, data=[66, 36]),
   midi.NoteOnEvent(tick=480, channel=0, data=[66, 0]),
   midi.NoteOnEvent(tick=0, channel=0, data=[67, 36]),
   midi.NoteOnEvent(tick=960, channel=0, data=[67, 0]),
   midi.ControlChangeEvent(tick=480, channel=0, data=[7, 96]),
   midi.NoteOnEvent(tick=0, channel=0, data=[83, 36]),
   midi.NoteOnEvent(tick=240, channel=0, data=[83, 0]),
   midi.NoteOnEvent(tick=0, channel=0, data=[84, 36]),
   midi.NoteOnEvent(tick=240, channel=0, data=[84, 0]),
   midi.NoteOnEvent(tick=0, channel=0, data=[81, 36]),
   midi.ControlChangeEvent(tick=144, channel=0, data=[7, 62]),
   midi.NoteOnEvent(tick=336, channel=0, data=[81, 0]),
   midi.ControlChangeEvent(tick=240, channel=0, data=[7, 94]),
   midi.NoteOnEvent(tick=240, channel=0, data=[79, 36]),
   midi.NoteOnEvent(tick=240, channel=0, data=[79, 0]),
   midi.NoteOnEvent(tick=0, channel=0, data=[81, 36]),
   midi.ControlChangeEvent(tick=216, channel=0, data=[7, 62]),
   midi.NoteOnEvent(tick=24, channel=0, data=[81, 0]),
   midi.NoteOnEvent(tick=0, channel=0, data=[78, 36]),
   midi.NoteOnEvent(tick=480, channel=0, data=[78, 0]),
   midi.ControlChangeEvent(tick=191, channel=0, data=[7, 30]),
   midi.NoteOnEvent(tick=289, channel=0, data=[76, 36]),
   midi.ControlChangeEvent(tick=0, channel=0, data=[7, 92]),
   midi.NoteOnEvent(tick=480, channel=0, data=[76, 0]),
   midi.NoteOnEvent(tick=0, channel=0, data=[79, 36]),
   midi.ControlChangeEvent(tick=240, channel=0, data=[7, 58]),
   midi.NoteOnEvent(tick=240, channel=0, data=[79, 0]),
   midi.NoteOnEvent(tick=0, channel=0, data=[83, 36]),
   midi.ControlChangeEvent(tick=479, channel=0, data=[7, 24]),
   midi.NoteOnEvent(tick=1, channel=0, data=[83, 0]),
   midi.NoteOnEvent(tick=0, channel=0, data=[74, 36]),
   midi.ControlChangeEvent(tick=0, channel=0, data=[7, 64]),
   midi.ControlChangeEvent(tick=527, channel=0, data=[7, 64]),
   midi.ControlChangeEvent(tick=49, channel=0, data=[7, 74]),
   midi.NoteOnEvent(tick=384, channel=0, data=[74, 0]),
   midi.NoteOnEvent(tick=0, channel=0, data=[73, 36]),
   midi.NoteOnEvent(tick=480, channel=0, data=[73, 0]),
   midi.NoteOnEvent(tick=0, channel=0, data=[74, 36]),
   midi.NoteOnEvent(tick=480, channel=0, data=[74, 0]),
   midi.NoteOnEvent(tick=0, channel=0, data=[76, 36]),
   midi.NoteOnEvent(tick=480, channel=0, data=[76, 0]),
   midi.NoteOnEvent(tick=0, channel=0, data=[78, 36]),
   midi.NoteOnEvent(tick=480, channel=0, data=[78, 0]),
   midi.NoteOnEvent(tick=0, channel=0, data=[79, 36]),
   midi.NoteOnEvent(tick=480, channel=0, data=[79, 0]),
   midi.NoteOnEvent(tick=0, channel=0, data=[81, 36]),
   midi.NoteOnEvent(tick=480, channel=0, data=[81, 0]),
   midi.NoteOnEvent(tick=0, channel=0, data=[83, 36]),
   midi.NoteOnEvent(tick=480, channel=0, data=[83, 0]),
   midi.NoteOnEvent(tick=0, channel=0, data=[81, 36]),
   midi.NoteOnEvent(tick=480, channel=0, data=[81, 0]),
   midi.NoteOnEvent(tick=0, channel=0, data=[78, 36]),
   midi.NoteOnEvent(tick=240, channel=0, data=[78, 0]),
   midi.NoteOnEvent(tick=0, channel=0, data=[74, 36]),
   midi.NoteOnEvent(tick=240, channel=0, data=[74, 0]),
   midi.NoteOnEvent(tick=0, channel=0, data=[76, 36]),
   midi.NoteOnEvent(tick=240, channel=0, data=[76, 0]),
   midi.NoteOnEvent(tick=0, channel=0, data=[73, 36]),
   midi.NoteOnEvent(tick=240, channel=0, data=[73, 0]),
   midi.NoteOnEvent(tick=0, channel=0, data=[74, 36]),
   midi.NoteOnEvent(tick=1440, channel=0, data=[74, 0]),
   midi.NoteOnEvent(tick=0, channel=0, data=[74, 36]),
   midi.NoteOnEvent(tick=480, channel=0, data=[74, 0]),
   midi.NoteOnEvent(tick=0, channel=0, data=[78, 36]),
   midi.NoteOnEvent(tick=480, channel=0, data=[78, 0]),
   midi.NoteOnEvent(tick=0, channel=0, data=[79, 36]),
   midi.NoteOnEvent(tick=480, channel=0, data=[79, 0]),
   midi.NoteOnEvent(tick=0, channel=0, data=[81, 36]),
   midi.NoteOnEvent(tick=480, channel=0, data=[81, 0]),
   midi.NoteOnEvent(tick=0, channel=0, data=[84, 36]),
   midi.NoteOnEvent(tick=480, channel=0, data=[84, 0]),
   midi.NoteOnEvent(tick=0, channel=0, data=[83, 36]),
   midi.NoteOnEvent(tick=480, channel=0, data=[83, 0]),
   midi.NoteOnEvent(tick=0, channel=0, data=[88, 36]),
   midi.NoteOnEvent(tick=480, channel=0, data=[88, 0]),
   midi.NoteOnEvent(tick=0, channel=0, data=[76, 36]),
   midi.NoteOnEvent(tick=480, channel=0, data=[76, 0]),
   midi.NoteOnEvent(tick=0, channel=0, data=[81, 36]),
   midi.NoteOnEvent(tick=480, channel=0, data=[81, 0]),
   midi.NoteOnEvent(tick=0, channel=0, data=[79, 36]),
   midi.NoteOnEvent(tick=960, channel=0, data=[79, 0]),
   midi.NoteOnEvent(tick=0, channel=0, data=[78, 36]),
   midi.ControlChangeEvent(tick=431, channel=0, data=[7, 74]),
   midi.NoteOnEvent(tick=49, channel=0, data=[78, 0]),
   midi.NoteOnEvent(tick=0, channel=0, data=[74, 79]),
   midi.ControlChangeEvent(tick=0, channel=0, data=[7, 102]),
   midi.ControlChangeEvent(tick=1007, channel=0, data=[7, 102]),
   midi.NoteOnEvent(tick=433, channel=0, data=[74, 0]),
   midi.NoteOnEvent(tick=0, channel=0, data=[84, 79]),
   midi.NoteOnEvent(tick=1440, channel=0, data=[84, 0]),
   midi.NoteOnEvent(tick=0, channel=0, data=[83, 79]),
   midi.NoteOnEvent(tick=480, channel=0, data=[83, 0]),
   midi.NoteOnEvent(tick=0, channel=0, data=[86, 79]),
   midi.NoteOnEvent(tick=240, channel=0, data=[86, 0]),
   midi.NoteOnEvent(tick=0, channel=0, data=[84, 79]),
   midi.NoteOnEvent(tick=240, channel=0, data=[84, 0]),
   midi.NoteOnEvent(tick=0, channel=0, data=[83, 79]),
   midi.NoteOnEvent(tick=240, channel=0, data=[83, 0]),
   midi.NoteOnEvent(tick=0, channel=0, data=[81, 79]),
   midi.NoteOnEvent(tick=240, channel=0, data=[81, 0]),
   midi.NoteOnEvent(tick=0, channel=0, data=[79, 79]),
   midi.NoteOnEvent(tick=960, channel=0, data=[79, 0]),
   midi.NoteOnEvent(tick=0, channel=0, data=[78, 79]),
   midi.NoteOnEvent(tick=480, channel=0, data=[78, 0]),
   midi.NoteOnEvent(tick=0, channel=0, data=[79, 79]),
   midi.NoteOnEvent(tick=480, channel=0, data=[79, 0]),
   midi.NoteOnEvent(tick=0, channel=0, data=[81, 79]),
   midi.NoteOnEvent(tick=480, channel=0, data=[81, 0]),
   midi.NoteOnEvent(tick=0, channel=0, data=[83, 79]),
   midi.NoteOnEvent(tick=480, channel=0, data=[83, 0]),
   midi.NoteOnEvent(tick=0, channel=0, data=[84, 79]),
   midi.NoteOnEvent(tick=480, channel=0, data=[84, 0]),
   midi.NoteOnEvent(tick=0, channel=0, data=[72, 79]),
   midi.NoteOnEvent(tick=480, channel=0, data=[72, 0]),
   midi.NoteOnEvent(tick=0, channel=0, data=[71, 79]),
   midi.NoteOnEvent(tick=480, channel=0, data=[71, 0]),
   midi.NoteOnEvent(tick=0, channel=0, data=[69, 79]),
   midi.NoteOnEvent(tick=240, channel=0, data=[69, 0]),
   midi.NoteOnEvent(tick=0, channel=0, data=[71, 79]),
   midi.NoteOnEvent(tick=240, channel=0, data=[71, 0]),
   midi.NoteOnEvent(tick=0, channel=0, data=[67, 79]),
   midi.NoteOnEvent(tick=480, channel=0, data=[67, 0]),
   midi.NoteOnEvent(tick=0, channel=0, data=[66, 79]),
   midi.NoteOnEvent(tick=480, channel=0, data=[66, 0]),
   midi.NoteOnEvent(tick=0, channel=0, data=[67, 79]),
   midi.NoteOnEvent(tick=1440, channel=0, data=[67, 0]),
   midi.ControlChangeEvent(tick=1440, channel=0, data=[7, 62]),
   midi.NoteOnEvent(tick=0, channel=0, data=[74, 79]),
   midi.ControlChangeEvent(tick=48, channel=0, data=[7, 74]),
   midi.NoteOnEvent(tick=432, channel=0, data=[74, 0]),
   midi.NoteOnEvent(tick=0, channel=0, data=[74, 79]),
   midi.NoteOnEvent(tick=480, channel=0, data=[74, 0]),
   midi.NoteOnEvent(tick=0, channel=0, data=[76, 36]),
   midi.NoteOnEvent(tick=240, channel=0, data=[76, 0]),
   midi.NoteOnEvent(tick=0, channel=0, data=[74, 36]),
   midi.NoteOnEvent(tick=240, channel=0, data=[74, 0]),
   midi.NoteOnEvent(tick=0, channel=0, data=[72, 36]),
   midi.NoteOnEvent(tick=240, channel=0, data=[72, 0]),
   midi.NoteOnEvent(tick=0, channel=0, data=[71, 36]),
   midi.NoteOnEvent(tick=240, channel=0, data=[71, 0]),
   midi.NoteOnEvent(tick=0, channel=0, data=[76, 36]),
   midi.NoteOnEvent(tick=480, channel=0, data=[76, 0]),
   midi.NoteOnEvent(tick=0, channel=0, data=[76, 36]),
   midi.NoteOnEvent(tick=480, channel=0, data=[76, 0]),
   midi.NoteOnEvent(tick=0, channel=0, data=[76, 36]),
   midi.NoteOnEvent(tick=960, channel=0, data=[76, 0]),
   midi.NoteOnEvent(tick=0, channel=0, data=[72, 36]),
   midi.NoteOnEvent(tick=480, channel=0, data=[72, 0]),
   midi.NoteOnEvent(tick=0, channel=0, data=[72, 36]),
   midi.NoteOnEvent(tick=480, channel=0, data=[72, 0]),
   midi.NoteOnEvent(tick=0, channel=0, data=[74, 36]),
   midi.NoteOnEvent(tick=240, channel=0, data=[74, 0]),
   midi.NoteOnEvent(tick=0, channel=0, data=[72, 36]),
   midi.NoteOnEvent(tick=240, channel=0, data=[72, 0]),
   midi.NoteOnEvent(tick=0, channel=0, data=[71, 36]),
   midi.NoteOnEvent(tick=240, channel=0, data=[71, 0]),
   midi.NoteOnEvent(tick=0, channel=0, data=[69, 36]),
   midi.NoteOnEvent(tick=240, channel=0, data=[69, 0]),
   midi.NoteOnEvent(tick=0, channel=0, data=[69, 36]),
   midi.NoteOnEvent(tick=480, channel=0, data=[69, 0]),
   midi.NoteOnEvent(tick=0, channel=0, data=[69, 36]),
   midi.NoteOnEvent(tick=480, channel=0, data=[69, 0]),
   midi.NoteOnEvent(tick=0, channel=0, data=[71, 36]),
   midi.NoteOnEvent(tick=240, channel=0, data=[71, 0]),
   midi.NoteOnEvent(tick=0, channel=0, data=[69, 36]),
   midi.NoteOnEvent(tick=240, channel=0, data=[69, 0]),
   midi.NoteOnEvent(tick=0, channel=0, data=[67, 36]),
   midi.NoteOnEvent(tick=240, channel=0, data=[67, 0]),
   midi.NoteOnEvent(tick=0, channel=0, data=[66, 36]),
   midi.ControlChangeEvent(tick=239, channel=0, data=[7, 74]),
   midi.NoteOnEvent(tick=1, channel=0, data=[66, 0]),
   midi.NoteOnEvent(tick=0, channel=0, data=[74, 79]),
   midi.ControlChangeEvent(tick=48, channel=0, data=[7, 104]),
   midi.NoteOnEvent(tick=432, channel=0, data=[74, 0]),
   midi.NoteOnEvent(tick=0, channel=0, data=[74, 79]),
   midi.NoteOnEvent(tick=480, channel=0, data=[74, 0]),
   midi.NoteOnEvent(tick=0, channel=0, data=[76, 79]),
   midi.NoteOnEvent(tick=240, channel=0, data=[76, 0]),
   midi.NoteOnEvent(tick=0, channel=0, data=[74, 79]),
   midi.NoteOnEvent(tick=240, channel=0, data=[74, 0]),
   midi.NoteOnEvent(tick=0, channel=0, data=[72, 79]),
   midi.NoteOnEvent(tick=240, channel=0, data=[72, 0]),
   midi.NoteOnEvent(tick=0, channel=0, data=[71, 79]),
   midi.NoteOnEvent(tick=240, channel=0, data=[71, 0]),
   midi.NoteOnEvent(tick=0, channel=0, data=[76, 79]),
   midi.NoteOnEvent(tick=240, channel=0, data=[76, 0]),
   midi.NoteOnEvent(tick=0, channel=0, data=[74, 79]),
   midi.NoteOnEvent(tick=240, channel=0, data=[74, 0]),
   midi.NoteOnEvent(tick=0, channel=0, data=[76, 79]),
   midi.NoteOnEvent(tick=240, channel=0, data=[76, 0]),
   midi.NoteOnEvent(tick=0, channel=0, data=[78, 79]),
   midi.NoteOnEvent(tick=240, channel=0, data=[78, 0]),
   midi.NoteOnEvent(tick=0, channel=0, data=[79, 79]),
   midi.NoteOnEvent(tick=240, channel=0, data=[79, 0]),
   midi.NoteOnEvent(tick=0, channel=0, data=[78, 79]),
   midi.NoteOnEvent(tick=240, channel=0, data=[78, 0]),
   midi.NoteOnEvent(tick=0, channel=0, data=[79, 79]),
   midi.NoteOnEvent(tick=240, channel=0, data=[79, 0]),
   midi.NoteOnEvent(tick=0, channel=0, data=[81, 79]),
   midi.NoteOnEvent(tick=240, channel=0, data=[81, 0]),
   midi.NoteOnEvent(tick=0, channel=0, data=[83, 79]),
   midi.NoteOnEvent(tick=240, channel=0, data=[83, 0]),
   midi.NoteOnEvent(tick=0, channel=0, data=[81, 79]),
   midi.NoteOnEvent(tick=240, channel=0, data=[81, 0]),
   midi.NoteOnEvent(tick=0, channel=0, data=[83, 79]),
   midi.NoteOnEvent(tick=240, channel=0, data=[83, 0]),
   midi.NoteOnEvent(tick=0, channel=0, data=[84, 79]),
   midi.NoteOnEvent(tick=240, channel=0, data=[84, 0]),
   midi.NoteOnEvent(tick=0, channel=0, data=[86, 79]),
   midi.NoteOnEvent(tick=480, channel=0, data=[86, 0]),
   midi.NoteOnEvent(tick=480, channel=0, data=[71, 79]),
   midi.NoteOnEvent(tick=60, channel=0, data=[71, 0]),
   midi.NoteOnEvent(tick=0, channel=0, data=[69, 79]),
   midi.NoteOnEvent(tick=60, channel=0, data=[69, 0]),
   midi.NoteOnEvent(tick=0, channel=0, data=[71, 79]),
   midi.NoteOnEvent(tick=60, channel=0, data=[71, 0]),
   midi.NoteOnEvent(tick=0, channel=0, data=[69, 79]),
   midi.NoteOnEvent(tick=60, channel=0, data=[69, 0]),
   midi.NoteOnEvent(tick=0, channel=0, data=[71, 79]),
   midi.NoteOnEvent(tick=60, channel=0, data=[71, 0]),
   midi.NoteOnEvent(tick=0, channel=0, data=[69, 79]),
   midi.NoteOnEvent(tick=60, channel=0, data=[69, 0]),
   midi.NoteOnEvent(tick=0, channel=0, data=[71, 79]),
   midi.NoteOnEvent(tick=60, channel=0, data=[71, 0]),
   midi.NoteOnEvent(tick=0, channel=0, data=[69, 79]),
   midi.NoteOnEvent(tick=60, channel=0, data=[69, 0]),
   midi.NoteOnEvent(tick=0, channel=0, data=[71, 79]),
   midi.NoteOnEvent(tick=60, channel=0, data=[71, 0]),
   midi.NoteOnEvent(tick=0, channel=0, data=[69, 79]),
   midi.NoteOnEvent(tick=60, channel=0, data=[69, 0]),
   midi.NoteOnEvent(tick=0, channel=0, data=[71, 79]),
   midi.NoteOnEvent(tick=60, channel=0, data=[71, 0]),
   midi.NoteOnEvent(tick=0, channel=0, data=[69, 79]),
   midi.NoteOnEvent(tick=60, channel=0, data=[69, 0]),
   midi.NoteOnEvent(tick=0, channel=0, data=[71, 79]),
   midi.NoteOnEvent(tick=60, channel=0, data=[71, 0]),
   midi.NoteOnEvent(tick=0, channel=0, data=[69, 79]),
   midi.NoteOnEvent(tick=60, channel=0, data=[69, 0]),
   midi.NoteOnEvent(tick=0, channel=0, data=[71, 79]),
   midi.NoteOnEvent(tick=60, channel=0, data=[71, 0]),
   midi.NoteOnEvent(tick=0, channel=0, data=[69, 79]),
   midi.NoteOnEvent(tick=60, channel=0, data=[69, 0]),
   midi.NoteOnEvent(tick=0, channel=0, data=[67, 79]),
   midi.NoteOnEvent(tick=480, channel=0, data=[67, 0]),
   midi.NoteOnEvent(tick=480, channel=0, data=[74, 79]),
   midi.ControlChangeEvent(tick=48, channel=0, data=[7, 66]),
   midi.ControlChangeEvent(tick=48, channel=0, data=[7, 76]),
   midi.NoteOnEvent(tick=384, channel=0, data=[74, 0]),
   midi.NoteOnEvent(tick=0, channel=0, data=[74, 79]),
   midi.NoteOnEvent(tick=480, channel=0, data=[74, 0]),
   midi.NoteOnEvent(tick=0, channel=0, data=[76, 36]),
   midi.NoteOnEvent(tick=240, channel=0, data=[76, 0]),
   midi.NoteOnEvent(tick=0, channel=0, data=[74, 36]),
   midi.NoteOnEvent(tick=240, channel=0, data=[74, 0]),
   midi.NoteOnEvent(tick=0, channel=0, data=[72, 36]),
   midi.NoteOnEvent(tick=240, channel=0, data=[72, 0]),
   midi.NoteOnEvent(tick=0, channel=0, data=[71, 36]),
   midi.NoteOnEvent(tick=240, channel=0, data=[71, 0]),
   midi.NoteOnEvent(tick=0, channel=0, data=[76, 36]),
   midi.NoteOnEvent(tick=480, channel=0, data=[76, 0]),
   midi.NoteOnEvent(tick=0, channel=0, data=[76, 36]),
   midi.NoteOnEvent(tick=480, channel=0, data=[76, 0]),
   midi.NoteOnEvent(tick=0, channel=0, data=[76, 36]),
   midi.NoteOnEvent(tick=960, channel=0, data=[76, 0]),
   midi.NoteOnEvent(tick=0, channel=0, data=[72, 36]),
   midi.NoteOnEvent(tick=480, channel=0, data=[72, 0]),
   midi.NoteOnEvent(tick=0, channel=0, data=[72, 36]),
   midi.NoteOnEvent(tick=480, channel=0, data=[72, 0]),
   midi.NoteOnEvent(tick=0, channel=0, data=[74, 36]),
   midi.NoteOnEvent(tick=240, channel=0, data=[74, 0]),
   midi.NoteOnEvent(tick=0, channel=0, data=[72, 36]),
   midi.NoteOnEvent(tick=240, channel=0, data=[72, 0]),
   midi.NoteOnEvent(tick=0, channel=0, data=[71, 36]),
   midi.NoteOnEvent(tick=240, channel=0, data=[71, 0]),
   midi.NoteOnEvent(tick=0, channel=0, data=[69, 36]),
   midi.NoteOnEvent(tick=240, channel=0, data=[69, 0]),
   midi.NoteOnEvent(tick=0, channel=0, data=[69, 36]),
   midi.NoteOnEvent(tick=480, channel=0, data=[69, 0]),
   midi.NoteOnEvent(tick=0, channel=0, data=[69, 36]),
   midi.NoteOnEvent(tick=480, channel=0, data=[69, 0]),
   midi.NoteOnEvent(tick=0, channel=0, data=[71, 36]),
   midi.NoteOnEvent(tick=240, channel=0, data=[71, 0]),
   midi.NoteOnEvent(tick=0, channel=0, data=[69, 36]),
   midi.NoteOnEvent(tick=240, channel=0, data=[69, 0]),
   midi.NoteOnEvent(tick=0, channel=0, data=[67, 36]),
   midi.NoteOnEvent(tick=240, channel=0, data=[67, 0]),
   midi.NoteOnEvent(tick=0, channel=0, data=[66, 36]),
   midi.NoteOnEvent(tick=240, channel=0, data=[66, 0]),
   midi.NoteOnEvent(tick=0, channel=0, data=[74, 79]),
   midi.ControlChangeEvent(tick=95, channel=0, data=[7, 76]),
   midi.ControlChangeEvent(tick=1, channel=0, data=[7, 104]),
   midi.NoteOnEvent(tick=384, channel=0, data=[74, 0]),
   midi.NoteOnEvent(tick=0, channel=0, data=[74, 79]),
   midi.NoteOnEvent(tick=480, channel=0, data=[74, 0]),
   midi.NoteOnEvent(tick=0, channel=0, data=[76, 79]),
   midi.NoteOnEvent(tick=240, channel=0, data=[76, 0]),
   midi.NoteOnEvent(tick=0, channel=0, data=[74, 79]),
   midi.NoteOnEvent(tick=240, channel=0, data=[74, 0]),
   midi.NoteOnEvent(tick=0, channel=0, data=[72, 79]),
   midi.NoteOnEvent(tick=240, channel=0, data=[72, 0]),
   midi.NoteOnEvent(tick=0, channel=0, data=[71, 79]),
   midi.NoteOnEvent(tick=240, channel=0, data=[71, 0]),
   midi.NoteOnEvent(tick=0, channel=0, data=[76, 79]),
   midi.NoteOnEvent(tick=240, channel=0, data=[76, 0]),
   midi.NoteOnEvent(tick=0, channel=0, data=[74, 79]),
   midi.NoteOnEvent(tick=240, channel=0, data=[74, 0]),
   midi.NoteOnEvent(tick=0, channel=0, data=[76, 79]),
   midi.NoteOnEvent(tick=240, channel=0, data=[76, 0]),
   midi.NoteOnEvent(tick=0, channel=0, data=[78, 79]),
   midi.NoteOnEvent(tick=240, channel=0, data=[78, 0]),
   midi.NoteOnEvent(tick=0, channel=0, data=[79, 79]),
   midi.NoteOnEvent(tick=240, channel=0, data=[79, 0]),
   midi.NoteOnEvent(tick=0, channel=0, data=[78, 79]),
   midi.NoteOnEvent(tick=240, channel=0, data=[78, 0]),
   midi.NoteOnEvent(tick=0, channel=0, data=[79, 79]),
   midi.NoteOnEvent(tick=240, channel=0, data=[79, 0]),
   midi.NoteOnEvent(tick=0, channel=0, data=[81, 79]),
   midi.NoteOnEvent(tick=240, channel=0, data=[81, 0]),
   midi.NoteOnEvent(tick=0, channel=0, data=[83, 79]),
   midi.NoteOnEvent(tick=240, channel=0, data=[83, 0]),
   midi.NoteOnEvent(tick=0, channel=0, data=[81, 79]),
   midi.NoteOnEvent(tick=240, channel=0, data=[81, 0]),
   midi.NoteOnEvent(tick=0, channel=0, data=[83, 79]),
   midi.NoteOnEvent(tick=240, channel=0, data=[83, 0]),
   midi.NoteOnEvent(tick=0, channel=0, data=[84, 79]),
   midi.NoteOnEvent(tick=240, channel=0, data=[84, 0]),
   midi.NoteOnEvent(tick=0, channel=0, data=[86, 79]),
   midi.NoteOnEvent(tick=480, channel=0, data=[86, 0]),
   midi.NoteOnEvent(tick=480, channel=0, data=[71, 79]),
   midi.NoteOnEvent(tick=60, channel=0, data=[71, 0]),
   midi.NoteOnEvent(tick=0, channel=0, data=[69, 79]),
   midi.NoteOnEvent(tick=60, channel=0, data=[69, 0]),
   midi.NoteOnEvent(tick=0, channel=0, data=[71, 79]),
   midi.NoteOnEvent(tick=60, channel=0, data=[71, 0]),
   midi.NoteOnEvent(tick=0, channel=0, data=[69, 79]),
   midi.NoteOnEvent(tick=60, channel=0, data=[69, 0]),
   midi.NoteOnEvent(tick=0, channel=0, data=[71, 79]),
   midi.NoteOnEvent(tick=60, channel=0, data=[71, 0]),
   midi.NoteOnEvent(tick=0, channel=0, data=[69, 79]),
   midi.NoteOnEvent(tick=60, channel=0, data=[69, 0]),
   midi.NoteOnEvent(tick=0, channel=0, data=[71, 79]),
   midi.NoteOnEvent(tick=60, channel=0, data=[71, 0]),
   midi.NoteOnEvent(tick=0, channel=0, data=[69, 79]),
   midi.NoteOnEvent(tick=60, channel=0, data=[69, 0]),
   midi.NoteOnEvent(tick=0, channel=0, data=[71, 79]),
   midi.NoteOnEvent(tick=60, channel=0, data=[71, 0]),
   midi.NoteOnEvent(tick=0, channel=0, data=[69, 79]),
   midi.NoteOnEvent(tick=60, channel=0, data=[69, 0]),
   midi.NoteOnEvent(tick=0, channel=0, data=[71, 79]),
   midi.NoteOnEvent(tick=60, channel=0, data=[71, 0]),
   midi.NoteOnEvent(tick=0, channel=0, data=[69, 79]),
   midi.NoteOnEvent(tick=60, channel=0, data=[69, 0]),
   midi.NoteOnEvent(tick=0, channel=0, data=[71, 79]),
   midi.NoteOnEvent(tick=60, channel=0, data=[71, 0]),
   midi.NoteOnEvent(tick=0, channel=0, data=[69, 79]),
   midi.NoteOnEvent(tick=60, channel=0, data=[69, 0]),
   midi.NoteOnEvent(tick=0, channel=0, data=[71, 79]),
   midi.NoteOnEvent(tick=60, channel=0, data=[71, 0]),
   midi.NoteOnEvent(tick=0, channel=0, data=[69, 79]),
   midi.NoteOnEvent(tick=60, channel=0, data=[69, 0]),
   midi.NoteOnEvent(tick=0, channel=0, data=[67, 79]),
   midi.NoteOnEvent(tick=480, channel=0, data=[67, 0]),
   midi.NoteOnEvent(tick=480, channel=0, data=[79, 79]),
   midi.NoteOnEvent(tick=480, channel=0, data=[79, 0]),
   midi.NoteOnEvent(tick=0, channel=0, data=[81, 79]),
   midi.NoteOnEvent(tick=240, channel=0, data=[81, 0]),
   midi.NoteOnEvent(tick=0, channel=0, data=[83, 79]),
   midi.NoteOnEvent(tick=240, channel=0, data=[83, 0]),
   midi.NoteOnEvent(tick=0, channel=0, data=[83, 79]),
   midi.NoteOnEvent(tick=240, channel=0, data=[83, 0]),
   midi.NoteOnEvent(tick=0, channel=0, data=[81, 79]),
   midi.NoteOnEvent(tick=240, channel=0, data=[81, 0]),
   midi.NoteOnEvent(tick=0, channel=0, data=[79, 79]),
   midi.NoteOnEvent(tick=240, channel=0, data=[79, 0]),
   midi.NoteOnEvent(tick=0, channel=0, data=[78, 79]),
   midi.NoteOnEvent(tick=240, channel=0, data=[78, 0]),
   midi.NoteOnEvent(tick=0, channel=0, data=[78, 79]),
   midi.NoteOnEvent(tick=240, channel=0, data=[78, 0]),
   midi.NoteOnEvent(tick=0, channel=0, data=[76, 79]),
   midi.NoteOnEvent(tick=240, channel=0, data=[76, 0]),
   midi.NoteOnEvent(tick=0, channel=0, data=[74, 79]),
   midi.NoteOnEvent(tick=240, channel=0, data=[74, 0]),
   midi.NoteOnEvent(tick=0, channel=0, data=[73, 79]),
   midi.NoteOnEvent(tick=240, channel=0, data=[73, 0]),
   midi.NoteOnEvent(tick=0, channel=0, data=[76, 79]),
   midi.NoteOnEvent(tick=240, channel=0, data=[76, 0]),
   midi.NoteOnEvent(tick=0, channel=0, data=[74, 79]),
   midi.NoteOnEvent(tick=240, channel=0, data=[74, 0]),
   midi.NoteOnEvent(tick=0, channel=0, data=[78, 79]),
   midi.NoteOnEvent(tick=240, channel=0, data=[78, 0]),
   midi.NoteOnEvent(tick=0, channel=0, data=[76, 79]),
   midi.NoteOnEvent(tick=240, channel=0, data=[76, 0]),
   midi.NoteOnEvent(tick=0, channel=0, data=[79, 79]),
   midi.NoteOnEvent(tick=240, channel=0, data=[79, 0]),
   midi.NoteOnEvent(tick=0, channel=0, data=[78, 79]),
   midi.NoteOnEvent(tick=240, channel=0, data=[78, 0]),
   midi.NoteOnEvent(tick=0, channel=0, data=[81, 79]),
   midi.NoteOnEvent(tick=240, channel=0, data=[81, 0]),
   midi.NoteOnEvent(tick=0, channel=0, data=[79, 79]),
   midi.NoteOnEvent(tick=240, channel=0, data=[79, 0]),
   midi.NoteOnEvent(tick=0, channel=0, data=[83, 79]),
   midi.NoteOnEvent(tick=240, channel=0, data=[83, 0]),
   midi.NoteOnEvent(tick=0, channel=0, data=[81, 79]),
   midi.NoteOnEvent(tick=240, channel=0, data=[81, 0]),
   midi.NoteOnEvent(tick=0, channel=0, data=[79, 79]),
   midi.NoteOnEvent(tick=240, channel=0, data=[79, 0]),
   midi.NoteOnEvent(tick=0, channel=0, data=[78, 79]),
   midi.NoteOnEvent(tick=240, channel=0, data=[78, 0]),
   midi.NoteOnEvent(tick=0, channel=0, data=[78, 79]),
   midi.NoteOnEvent(tick=240, channel=0, data=[78, 0]),
   midi.NoteOnEvent(tick=0, channel=0, data=[76, 79]),
   midi.NoteOnEvent(tick=240, channel=0, data=[76, 0]),
   midi.NoteOnEvent(tick=0, channel=0, data=[79, 79]),
   midi.NoteOnEvent(tick=240, channel=0, data=[79, 0]),
   midi.NoteOnEvent(tick=0, channel=0, data=[83, 79]),
   midi.NoteOnEvent(tick=240, channel=0, data=[83, 0]),
   midi.NoteOnEvent(tick=0, channel=0, data=[74, 79]),
   midi.NoteOnEvent(tick=480, channel=0, data=[74, 0]),
   midi.NoteOnEvent(tick=0, channel=0, data=[73, 79]),
   midi.NoteOnEvent(tick=480, channel=0, data=[73, 0]),
   midi.NoteOnEvent(tick=0, channel=0, data=[79, 79]),
   midi.NoteOnEvent(tick=480, channel=0, data=[79, 0]),
   midi.NoteOnEvent(tick=0, channel=0, data=[81, 79]),
   midi.NoteOnEvent(tick=240, channel=0, data=[81, 0]),
   midi.NoteOnEvent(tick=0, channel=0, data=[83, 79]),
   midi.NoteOnEvent(tick=240, channel=0, data=[83, 0]),
   midi.NoteOnEvent(tick=0, channel=0, data=[83, 79]),
   midi.NoteOnEvent(tick=240, channel=0, data=[83, 0]),
   midi.NoteOnEvent(tick=0, channel=0, data=[81, 79]),
   midi.NoteOnEvent(tick=240, channel=0, data=[81, 0]),
   midi.NoteOnEvent(tick=0, channel=0, data=[79, 79]),
   midi.ControlChangeEvent(tick=192, channel=0, data=[7, 104]),
   midi.NoteOnEvent(tick=48, channel=0, data=[79, 0]),
   midi.NoteOnEvent(tick=0, channel=0, data=[78, 79]),
   midi.NoteOnEvent(tick=240, channel=0, data=[78, 0]),
   midi.NoteOnEvent(tick=0, channel=0, data=[78, 79]),
   midi.NoteOnEvent(tick=60, channel=0, data=[78, 0]),
   midi.NoteOnEvent(tick=0, channel=0, data=[76, 79]),
   midi.NoteOnEvent(tick=60, channel=0, data=[76, 0]),
   midi.NoteOnEvent(tick=0, channel=0, data=[76, 79]),
   midi.NoteOnEvent(tick=360, channel=0, data=[76, 0]),
   midi.NoteOnEvent(tick=0, channel=0, data=[74, 79]),
   midi.NoteOnEvent(tick=240, channel=0, data=[74, 0]),
   midi.NoteOnEvent(tick=0, channel=0, data=[73, 79]),
   midi.NoteOnEvent(tick=240, channel=0, data=[73, 0]),
   midi.NoteOnEvent(tick=0, channel=0, data=[76, 79]),
   midi.NoteOnEvent(tick=240, channel=0, data=[76, 0]),
   midi.NoteOnEvent(tick=0, channel=0, data=[74, 79]),
   midi.NoteOnEvent(tick=240, channel=0, data=[74, 0]),
   midi.NoteOnEvent(tick=0, channel=0, data=[78, 79]),
   midi.NoteOnEvent(tick=240, channel=0, data=[78, 0]),
   midi.NoteOnEvent(tick=0, channel=0, data=[76, 79]),
   midi.NoteOnEvent(tick=240, channel=0, data=[76, 0]),
   midi.NoteOnEvent(tick=0, channel=0, data=[79, 79]),
   midi.NoteOnEvent(tick=240, channel=0, data=[79, 0]),
   midi.NoteOnEvent(tick=0, channel=0, data=[78, 79]),
   midi.NoteOnEvent(tick=240, channel=0, data=[78, 0]),
   midi.NoteOnEvent(tick=0, channel=0, data=[81, 79]),
   midi.NoteOnEvent(tick=240, channel=0, data=[81, 0]),
   midi.NoteOnEvent(tick=0, channel=0, data=[79, 79]),
   midi.NoteOnEvent(tick=240, channel=0, data=[79, 0]),
   midi.NoteOnEvent(tick=0, channel=0, data=[83, 79]),
   midi.NoteOnEvent(tick=240, channel=0, data=[83, 0]),
   midi.NoteOnEvent(tick=0, channel=0, data=[81, 79]),
   midi.NoteOnEvent(tick=240, channel=0, data=[81, 0]),
   midi.NoteOnEvent(tick=0, channel=0, data=[79, 79]),
   midi.NoteOnEvent(tick=240, channel=0, data=[79, 0]),
   midi.NoteOnEvent(tick=0, channel=0, data=[78, 79]),
   midi.NoteOnEvent(tick=240, channel=0, data=[78, 0]),
   midi.NoteOnEvent(tick=0, channel=0, data=[78, 79]),
   midi.NoteOnEvent(tick=240, channel=0, data=[78, 0]),
   midi.NoteOnEvent(tick=0, channel=0, data=[76, 79]),
   midi.NoteOnEvent(tick=240, channel=0, data=[76, 0]),
   midi.NoteOnEvent(tick=0, channel=0, data=[74, 79]),
   midi.NoteOnEvent(tick=240, channel=0, data=[74, 0]),
   midi.NoteOnEvent(tick=0, channel=0, data=[73, 79]),
   midi.NoteOnEvent(tick=240, channel=0, data=[73, 0]),
   midi.NoteOnEvent(tick=0, channel=0, data=[74, 79]),
   midi.ControlChangeEvent(tick=96, channel=0, data=[7, 100]),
   midi.ControlChangeEvent(tick=863, channel=0, data=[7, 100]),
   midi.NoteOnEvent(tick=1, channel=0, data=[74, 0]),
   midi.NoteOnEvent(tick=0, channel=0, data=[62, 36]),
   midi.ControlChangeEvent(tick=0, channel=0, data=[7, 74]),
   midi.NoteOnEvent(tick=480, channel=0, data=[62, 0]),
   midi.NoteOnEvent(tick=0, channel=0, data=[62, 36]),
   midi.NoteOnEvent(tick=240, channel=0, data=[62, 0]),
   midi.NoteOnEvent(tick=0, channel=0, data=[62, 36]),
   midi.NoteOnEvent(tick=240, channel=0, data=[62, 0]),
   midi.NoteOnEvent(tick=0, channel=0, data=[65, 36]),
   midi.NoteOnEvent(tick=480, channel=0, data=[65, 0]),
   midi.NoteOnEvent(tick=0, channel=0, data=[64, 36]),
   midi.NoteOnEvent(tick=480, channel=0, data=[64, 0]),
   midi.NoteOnEvent(tick=0, channel=0, data=[64, 36]),
   midi.NoteOnEvent(tick=480, channel=0, data=[64, 0]),
   midi.NoteOnEvent(tick=0, channel=0, data=[64, 36]),
   midi.NoteOnEvent(tick=240, channel=0, data=[64, 0]),
   midi.NoteOnEvent(tick=0, channel=0, data=[64, 36]),
   midi.NoteOnEvent(tick=240, channel=0, data=[64, 0]),
   midi.NoteOnEvent(tick=0, channel=0, data=[64, 36]),
   midi.NoteOnEvent(tick=480, channel=0, data=[64, 0]),
   midi.NoteOnEvent(tick=0, channel=0, data=[57, 36]),
   midi.NoteOnEvent(tick=480, channel=0, data=[57, 0]),
   midi.NoteOnEvent(tick=0, channel=0, data=[60, 36]),
   midi.NoteOnEvent(tick=480, channel=0, data=[60, 0]),
   midi.NoteOnEvent(tick=0, channel=0, data=[60, 36]),
   midi.NoteOnEvent(tick=240, channel=0, data=[60, 0]),
   midi.NoteOnEvent(tick=0, channel=0, data=[60, 36]),
   midi.NoteOnEvent(tick=240, channel=0, data=[60, 0]),
   midi.NoteOnEvent(tick=0, channel=0, data=[63, 36]),
   midi.NoteOnEvent(tick=480, channel=0, data=[63, 0]),
   midi.NoteOnEvent(tick=0, channel=0, data=[62, 36]),
   midi.NoteOnEvent(tick=480, channel=0, data=[62, 0]),
   midi.NoteOnEvent(tick=0, channel=0, data=[62, 36]),
   midi.NoteOnEvent(tick=480, channel=0, data=[62, 0]),
   midi.NoteOnEvent(tick=0, channel=0, data=[62, 36]),
   midi.NoteOnEvent(tick=240, channel=0, data=[62, 0]),
   midi.NoteOnEvent(tick=0, channel=0, data=[62, 36]),
   midi.NoteOnEvent(tick=240, channel=0, data=[62, 0]),
   midi.NoteOnEvent(tick=0, channel=0, data=[62, 36]),
   midi.NoteOnEvent(tick=480, channel=0, data=[62, 0]),
   midi.NoteOnEvent(tick=0, channel=0, data=[55, 36]),
   midi.NoteOnEvent(tick=480, channel=0, data=[55, 0]),
   midi.NoteOnEvent(tick=0, channel=0, data=[83, 79]),
   midi.ControlChangeEvent(tick=47, channel=0, data=[7, 74]),
   midi.ControlChangeEvent(tick=1, channel=0, data=[7, 108]),
   midi.NoteOnEvent(tick=192, channel=0, data=[83, 0]),
   midi.NoteOnEvent(tick=0, channel=0, data=[81, 79]),
   midi.NoteOnEvent(tick=240, channel=0, data=[81, 0]),
   midi.NoteOnEvent(tick=0, channel=0, data=[79, 79]),
   midi.NoteOnEvent(tick=240, channel=0, data=[79, 0]),
   midi.NoteOnEvent(tick=0, channel=0, data=[78, 79]),
   midi.NoteOnEvent(tick=240, channel=0, data=[78, 0]),
   midi.NoteOnEvent(tick=0, channel=0, data=[79, 79]),
   midi.ControlChangeEvent(tick=132, channel=0, data=[7, 107]),
   midi.NoteOnEvent(tick=108, channel=0, data=[79, 0]),
   midi.NoteOnEvent(tick=0, channel=0, data=[78, 79]),
   midi.NoteOnEvent(tick=240, channel=0, data=[78, 0]),
   midi.NoteOnEvent(tick=0, channel=0, data=[76, 79]),
   midi.NoteOnEvent(tick=240, channel=0, data=[76, 0]),
   midi.NoteOnEvent(tick=0, channel=0, data=[74, 79]),
   midi.NoteOnEvent(tick=240, channel=0, data=[74, 0]),
   midi.NoteOnEvent(tick=0, channel=0, data=[76, 79]),
   midi.ControlChangeEvent(tick=216, channel=0, data=[7, 106]),
   midi.NoteOnEvent(tick=24, channel=0, data=[76, 0]),
   midi.NoteOnEvent(tick=0, channel=0, data=[74, 79]),
   midi.NoteOnEvent(tick=240, channel=0, data=[74, 0]),
   midi.NoteOnEvent(tick=0, channel=0, data=[72, 79]),
   midi.NoteOnEvent(tick=240, channel=0, data=[72, 0]),
   midi.NoteOnEvent(tick=0, channel=0, data=[71, 79]),
   midi.NoteOnEvent(tick=240, channel=0, data=[71, 0]),
   midi.NoteOnEvent(tick=0, channel=0, data=[72, 79]),
   midi.NoteOnEvent(tick=240, channel=0, data=[72, 0]),
   midi.NoteOnEvent(tick=0, channel=0, data=[71, 79]),
   midi.ControlChangeEvent(tick=60, channel=0, data=[7, 105]),
   midi.NoteOnEvent(tick=180, channel=0, data=[71, 0]),
   midi.NoteOnEvent(tick=0, channel=0, data=[69, 79]),
   midi.NoteOnEvent(tick=240, channel=0, data=[69, 0]),
   midi.NoteOnEvent(tick=0, channel=0, data=[67, 79]),
   midi.NoteOnEvent(tick=240, channel=0, data=[67, 0]),
   midi.NoteOnEvent(tick=0, channel=0, data=[69, 79]),
   midi.NoteOnEvent(tick=240, channel=0, data=[69, 0]),
   midi.NoteOnEvent(tick=0, channel=0, data=[67, 79]),
   midi.ControlChangeEvent(tick=143, channel=0, data=[7, 104]),
   midi.NoteOnEvent(tick=97, channel=0, data=[67, 0]),
   midi.NoteOnEvent(tick=0, channel=0, data=[66, 79]),
   midi.NoteOnEvent(tick=240, channel=0, data=[66, 0]),
   midi.NoteOnEvent(tick=0, channel=0, data=[64, 79]),
   midi.NoteOnEvent(tick=240, channel=0, data=[64, 0]),
   midi.NoteOnEvent(tick=0, channel=0, data=[62, 79]),
   midi.NoteOnEvent(tick=480, channel=0, data=[62, 0]),
   midi.NoteOnEvent(tick=0, channel=0, data=[72, 79]),
   midi.NoteOnEvent(tick=960, channel=0, data=[72, 0]),
   midi.NoteOnEvent(tick=0, channel=0, data=[72, 79]),
   midi.NoteOnEvent(tick=60, channel=0, data=[72, 0]),
   midi.NoteOnEvent(tick=0, channel=0, data=[71, 79]),
   midi.NoteOnEvent(tick=60, channel=0, data=[71, 0]),
   midi.NoteOnEvent(tick=0, channel=0, data=[72, 79]),
   midi.NoteOnEvent(tick=60, channel=0, data=[72, 0]),
   midi.NoteOnEvent(tick=0, channel=0, data=[71, 79]),
   midi.NoteOnEvent(tick=60, channel=0, data=[71, 0]),
   midi.NoteOnEvent(tick=0, channel=0, data=[72, 79]),
   midi.NoteOnEvent(tick=60, channel=0, data=[72, 0]),
   midi.NoteOnEvent(tick=0, channel=0, data=[71, 79]),
   midi.NoteOnEvent(tick=60, channel=0, data=[71, 0]),
   midi.NoteOnEvent(tick=0, channel=0, data=[72, 79]),
   midi.NoteOnEvent(tick=60, channel=0, data=[72, 0]),
   midi.NoteOnEvent(tick=0, channel=0, data=[71, 79]),
   midi.NoteOnEvent(tick=60, channel=0, data=[71, 0]),
   midi.NoteOnEvent(tick=0, channel=0, data=[69, 79]),
   midi.NoteOnEvent(tick=480, channel=0, data=[69, 0]),
   midi.NoteOnEvent(tick=480, channel=0, data=[74, 36]),
   midi.ControlChangeEvent(tick=48, channel=0, data=[7, 58]),
   midi.ControlChangeEvent(tick=48, channel=0, data=[7, 72]),
   midi.NoteOnEvent(tick=384, channel=0, data=[74, 0]),
   midi.NoteOnEvent(tick=0, channel=0, data=[74, 36]),
   midi.NoteOnEvent(tick=480, channel=0, data=[74, 0]),
   midi.NoteOnEvent(tick=0, channel=0, data=[76, 36]),
   midi.NoteOnEvent(tick=240, channel=0, data=[76, 0]),
   midi.NoteOnEvent(tick=0, channel=0, data=[74, 36]),
   midi.NoteOnEvent(tick=240, channel=0, data=[74, 0]),
   midi.NoteOnEvent(tick=0, channel=0, data=[72, 36]),
   midi.NoteOnEvent(tick=240, channel=0, data=[72, 0]),
   midi.NoteOnEvent(tick=0, channel=0, data=[71, 36]),
   midi.NoteOnEvent(tick=240, channel=0, data=[71, 0]),
   midi.NoteOnEvent(tick=0, channel=0, data=[76, 36]),
   midi.NoteOnEvent(tick=480, channel=0, data=[76, 0]),
   midi.NoteOnEvent(tick=0, channel=0, data=[76, 36]),
   midi.NoteOnEvent(tick=480, channel=0, data=[76, 0]),
   midi.NoteOnEvent(tick=0, channel=0, data=[76, 36]),
   midi.NoteOnEvent(tick=960, channel=0, data=[76, 0]),
   midi.NoteOnEvent(tick=0, channel=0, data=[72, 36]),
   midi.NoteOnEvent(tick=480, channel=0, data=[72, 0]),
   midi.NoteOnEvent(tick=0, channel=0, data=[72, 36]),
   midi.NoteOnEvent(tick=480, channel=0, data=[72, 0]),
   midi.NoteOnEvent(tick=0, channel=0, data=[74, 36]),
   midi.NoteOnEvent(tick=240, channel=0, data=[74, 0]),
   midi.NoteOnEvent(tick=0, channel=0, data=[72, 36]),
   midi.NoteOnEvent(tick=240, channel=0, data=[72, 0]),
   midi.NoteOnEvent(tick=0, channel=0, data=[71, 36]),
   midi.NoteOnEvent(tick=240, channel=0, data=[71, 0]),
   midi.NoteOnEvent(tick=0, channel=0, data=[69, 36]),
   midi.NoteOnEvent(tick=240, channel=0, data=[69, 0]),
   midi.NoteOnEvent(tick=0, channel=0, data=[69, 36]),
   midi.NoteOnEvent(tick=480, channel=0, data=[69, 0]),
   midi.NoteOnEvent(tick=0, channel=0, data=[69, 36]),
   midi.NoteOnEvent(tick=480, channel=0, data=[69, 0]),
   midi.NoteOnEvent(tick=0, channel=0, data=[71, 36]),
   midi.NoteOnEvent(tick=240, channel=0, data=[71, 0]),
   midi.NoteOnEvent(tick=0, channel=0, data=[69, 36]),
   midi.NoteOnEvent(tick=240, channel=0, data=[69, 0]),
   midi.NoteOnEvent(tick=0, channel=0, data=[67, 36]),
   midi.NoteOnEvent(tick=240, channel=0, data=[67, 0]),
   midi.NoteOnEvent(tick=0, channel=0, data=[66, 36]),
   midi.NoteOnEvent(tick=240, channel=0, data=[66, 0]),
   midi.NoteOnEvent(tick=0, channel=0, data=[74, 79]),
   midi.ControlChangeEvent(tick=47, channel=0, data=[7, 72]),
   midi.ControlChangeEvent(tick=1, channel=0, data=[7, 106]),
   midi.NoteOnEvent(tick=432, channel=0, data=[74, 0]),
   midi.NoteOnEvent(tick=0, channel=0, data=[74, 79]),
   midi.NoteOnEvent(tick=480, channel=0, data=[74, 0]),
   midi.NoteOnEvent(tick=0, channel=0, data=[76, 79]),
   midi.NoteOnEvent(tick=240, channel=0, data=[76, 0]),
   midi.NoteOnEvent(tick=0, channel=0, data=[74, 79]),
   midi.NoteOnEvent(tick=240, channel=0, data=[74, 0]),
   midi.NoteOnEvent(tick=0, channel=0, data=[72, 79]),
   midi.NoteOnEvent(tick=240, channel=0, data=[72, 0]),
   midi.NoteOnEvent(tick=0, channel=0, data=[71, 79]),
   midi.NoteOnEvent(tick=240, channel=0, data=[71, 0]),
   midi.NoteOnEvent(tick=0, channel=0, data=[76, 79]),
   midi.NoteOnEvent(tick=240, channel=0, data=[76, 0]),
   midi.NoteOnEvent(tick=0, channel=0, data=[74, 79]),
   midi.NoteOnEvent(tick=240, channel=0, data=[74, 0]),
   midi.NoteOnEvent(tick=0, channel=0, data=[76, 79]),
   midi.NoteOnEvent(tick=240, channel=0, data=[76, 0]),
   midi.NoteOnEvent(tick=0, channel=0, data=[78, 79]),
   midi.NoteOnEvent(tick=240, channel=0, data=[78, 0]),
   midi.NoteOnEvent(tick=0, channel=0, data=[79, 79]),
   midi.NoteOnEvent(tick=240, channel=0, data=[79, 0]),
   midi.NoteOnEvent(tick=0, channel=0, data=[78, 79]),
   midi.NoteOnEvent(tick=240, channel=0, data=[78, 0]),
   midi.NoteOnEvent(tick=0, channel=0, data=[79, 79]),
   midi.NoteOnEvent(tick=240, channel=0, data=[79, 0]),
   midi.NoteOnEvent(tick=0, channel=0, data=[81, 79]),
   midi.NoteOnEvent(tick=240, channel=0, data=[81, 0]),
   midi.NoteOnEvent(tick=0, channel=0, data=[83, 79]),
   midi.NoteOnEvent(tick=240, channel=0, data=[83, 0]),
   midi.NoteOnEvent(tick=0, channel=0, data=[81, 79]),
   midi.NoteOnEvent(tick=240, channel=0, data=[81, 0]),
   midi.NoteOnEvent(tick=0, channel=0, data=[83, 79]),
   midi.NoteOnEvent(tick=240, channel=0, data=[83, 0]),
   midi.NoteOnEvent(tick=0, channel=0, data=[84, 79]),
   midi.NoteOnEvent(tick=240, channel=0, data=[84, 0]),
   midi.NoteOnEvent(tick=0, channel=0, data=[86, 79]),
   midi.NoteOnEvent(tick=480, channel=0, data=[86, 0]),
   midi.NoteOnEvent(tick=480, channel=0, data=[71, 79]),
   midi.NoteOnEvent(tick=60, channel=0, data=[71, 0]),
   midi.NoteOnEvent(tick=0, channel=0, data=[69, 79]),
   midi.NoteOnEvent(tick=60, channel=0, data=[69, 0]),
   midi.NoteOnEvent(tick=0, channel=0, data=[71, 79]),
   midi.NoteOnEvent(tick=60, channel=0, data=[71, 0]),
   midi.NoteOnEvent(tick=0, channel=0, data=[69, 79]),
   midi.NoteOnEvent(tick=60, channel=0, data=[69, 0]),
   midi.NoteOnEvent(tick=0, channel=0, data=[71, 79]),
   midi.NoteOnEvent(tick=60, channel=0, data=[71, 0]),
   midi.NoteOnEvent(tick=0, channel=0, data=[69, 79]),
   midi.NoteOnEvent(tick=60, channel=0, data=[69, 0]),
   midi.NoteOnEvent(tick=0, channel=0, data=[71, 79]),
   midi.NoteOnEvent(tick=60, channel=0, data=[71, 0]),
   midi.NoteOnEvent(tick=0, channel=0, data=[69, 79]),
   midi.NoteOnEvent(tick=60, channel=0, data=[69, 0]),
   midi.NoteOnEvent(tick=0, channel=0, data=[71, 79]),
   midi.NoteOnEvent(tick=60, channel=0, data=[71, 0]),
   midi.NoteOnEvent(tick=0, channel=0, data=[69, 79]),
   midi.NoteOnEvent(tick=60, channel=0, data=[69, 0]),
   midi.NoteOnEvent(tick=0, channel=0, data=[71, 79]),
   midi.NoteOnEvent(tick=60, channel=0, data=[71, 0]),
   midi.NoteOnEvent(tick=0, channel=0, data=[69, 79]),
   midi.NoteOnEvent(tick=60, channel=0, data=[69, 0]),
   midi.NoteOnEvent(tick=0, channel=0, data=[71, 79]),
   midi.NoteOnEvent(tick=60, channel=0, data=[71, 0]),
   midi.NoteOnEvent(tick=0, channel=0, data=[69, 79]),
   midi.NoteOnEvent(tick=60, channel=0, data=[69, 0]),
   midi.NoteOnEvent(tick=0, channel=0, data=[71, 79]),
   midi.NoteOnEvent(tick=60, channel=0, data=[71, 0]),
   midi.NoteOnEvent(tick=0, channel=0, data=[69, 79]),
   midi.NoteOnEvent(tick=60, channel=0, data=[69, 0]),
   midi.NoteOnEvent(tick=0, channel=0, data=[67, 79]),
   midi.NoteOnEvent(tick=480, channel=0, data=[67, 0]),
   midi.NoteOnEvent(tick=480, channel=0, data=[79, 79]),
   midi.NoteOnEvent(tick=480, channel=0, data=[79, 0]),
   midi.NoteOnEvent(tick=0, channel=0, data=[81, 79]),
   midi.NoteOnEvent(tick=240, channel=0, data=[81, 0]),
   midi.NoteOnEvent(tick=0, channel=0, data=[83, 79]),
   midi.NoteOnEvent(tick=240, channel=0, data=[83, 0]),
   midi.NoteOnEvent(tick=0, channel=0, data=[83, 79]),
   midi.NoteOnEvent(tick=240, channel=0, data=[83, 0]),
   midi.NoteOnEvent(tick=0, channel=0, data=[81, 79]),
   midi.NoteOnEvent(tick=240, channel=0, data=[81, 0]),
   midi.NoteOnEvent(tick=0, channel=0, data=[79, 79]),
   midi.NoteOnEvent(tick=240, channel=0, data=[79, 0]),
   midi.NoteOnEvent(tick=0, channel=0, data=[78, 79]),
   midi.NoteOnEvent(tick=240, channel=0, data=[78, 0]),
   midi.NoteOnEvent(tick=0, channel=0, data=[78, 79]),
   midi.NoteOnEvent(tick=240, channel=0, data=[78, 0]),
   midi.NoteOnEvent(tick=0, channel=0, data=[76, 79]),
   midi.NoteOnEvent(tick=240, channel=0, data=[76, 0]),
   midi.NoteOnEvent(tick=0, channel=0, data=[74, 79]),
   midi.NoteOnEvent(tick=240, channel=0, data=[74, 0]),
   midi.NoteOnEvent(tick=0, channel=0, data=[73, 79]),
   midi.NoteOnEvent(tick=240, channel=0, data=[73, 0]),
   midi.NoteOnEvent(tick=0, channel=0, data=[76, 79]),
   midi.NoteOnEvent(tick=240, channel=0, data=[76, 0]),
   midi.NoteOnEvent(tick=0, channel=0, data=[74, 79]),
   midi.NoteOnEvent(tick=240, channel=0, data=[74, 0]),
   midi.NoteOnEvent(tick=0, channel=0, data=[78, 79]),
   midi.NoteOnEvent(tick=240, channel=0, data=[78, 0]),
   midi.NoteOnEvent(tick=0, channel=0, data=[76, 79]),
   midi.NoteOnEvent(tick=240, channel=0, data=[76, 0]),
   midi.NoteOnEvent(tick=0, channel=0, data=[79, 79]),
   midi.NoteOnEvent(tick=240, channel=0, data=[79, 0]),
   midi.NoteOnEvent(tick=0, channel=0, data=[78, 79]),
   midi.NoteOnEvent(tick=240, channel=0, data=[78, 0]),
   midi.NoteOnEvent(tick=0, channel=0, data=[81, 79]),
   midi.NoteOnEvent(tick=240, channel=0, data=[81, 0]),
   midi.NoteOnEvent(tick=0, channel=0, data=[79, 79]),
   midi.NoteOnEvent(tick=240, channel=0, data=[79, 0]),
   midi.NoteOnEvent(tick=0, channel=0, data=[83, 79]),
   midi.NoteOnEvent(tick=240, channel=0, data=[83, 0]),
   midi.NoteOnEvent(tick=0, channel=0, data=[81, 79]),
   midi.NoteOnEvent(tick=240, channel=0, data=[81, 0]),
   midi.NoteOnEvent(tick=0, channel=0, data=[79, 79]),
   midi.NoteOnEvent(tick=240, channel=0, data=[79, 0]),
   midi.NoteOnEvent(tick=0, channel=0, data=[78, 79]),
   midi.NoteOnEvent(tick=240, channel=0, data=[78, 0]),
   midi.NoteOnEvent(tick=0, channel=0, data=[78, 79]),
   midi.NoteOnEvent(tick=240, channel=0, data=[78, 0]),
   midi.NoteOnEvent(tick=0, channel=0, data=[76, 79]),
   midi.NoteOnEvent(tick=240, channel=0, data=[76, 0]),
   midi.NoteOnEvent(tick=0, channel=0, data=[79, 79]),
   midi.NoteOnEvent(tick=240, channel=0, data=[79, 0]),
   midi.NoteOnEvent(tick=0, channel=0, data=[83, 79]),
   midi.NoteOnEvent(tick=240, channel=0, data=[83, 0]),
   midi.NoteOnEvent(tick=0, channel=0, data=[74, 79]),
   midi.NoteOnEvent(tick=480, channel=0, data=[74, 0]),
   midi.NoteOnEvent(tick=0, channel=0, data=[73, 79]),
   midi.NoteOnEvent(tick=480, channel=0, data=[73, 0]),
   midi.NoteOnEvent(tick=0, channel=0, data=[79, 79]),
   midi.NoteOnEvent(tick=480, channel=0, data=[79, 0]),
   midi.NoteOnEvent(tick=0, channel=0, data=[81, 79]),
   midi.NoteOnEvent(tick=240, channel=0, data=[81, 0]),
   midi.NoteOnEvent(tick=0, channel=0, data=[83, 79]),
   midi.NoteOnEvent(tick=240, channel=0, data=[83, 0]),
   midi.NoteOnEvent(tick=0, channel=0, data=[83, 79]),
   midi.NoteOnEvent(tick=240, channel=0, data=[83, 0]),
   midi.NoteOnEvent(tick=0, channel=0, data=[81, 79]),
   midi.NoteOnEvent(tick=240, channel=0, data=[81, 0]),
   midi.NoteOnEvent(tick=0, channel=0, data=[79, 79]),
   midi.NoteOnEvent(tick=240, channel=0, data=[79, 0]),
   midi.NoteOnEvent(tick=0, channel=0, data=[78, 79]),
   midi.NoteOnEvent(tick=240, channel=0, data=[78, 0]),
   midi.NoteOnEvent(tick=0, channel=0, data=[78, 79]),
   midi.NoteOnEvent(tick=60, channel=0, data=[78, 0]),
   midi.NoteOnEvent(tick=0, channel=0, data=[76, 79]),
   midi.NoteOnEvent(tick=60, channel=0, data=[76, 0]),
   midi.NoteOnEvent(tick=0, channel=0, data=[76, 79]),
   midi.NoteOnEvent(tick=360, channel=0, data=[76, 0]),
   midi.NoteOnEvent(tick=0, channel=0, data=[74, 79]),
   midi.NoteOnEvent(tick=240, channel=0, data=[74, 0]),
   midi.NoteOnEvent(tick=0, channel=0, data=[73, 79]),
   midi.NoteOnEvent(tick=240, channel=0, data=[73, 0]),
   midi.NoteOnEvent(tick=0, channel=0, data=[76, 79]),
   midi.NoteOnEvent(tick=240, channel=0, data=[76, 0]),
   midi.NoteOnEvent(tick=0, channel=0, data=[74, 79]),
   midi.NoteOnEvent(tick=240, channel=0, data=[74, 0]),
   midi.NoteOnEvent(tick=0, channel=0, data=[78, 79]),
   midi.NoteOnEvent(tick=240, channel=0, data=[78, 0]),
   midi.NoteOnEvent(tick=0, channel=0, data=[76, 79]),
   midi.NoteOnEvent(tick=240, channel=0, data=[76, 0]),
   midi.NoteOnEvent(tick=0, channel=0, data=[79, 79]),
   midi.NoteOnEvent(tick=240, channel=0, data=[79, 0]),
   midi.NoteOnEvent(tick=0, channel=0, data=[78, 79]),
   midi.NoteOnEvent(tick=240, channel=0, data=[78, 0]),
   midi.NoteOnEvent(tick=0, channel=0, data=[81, 79]),
   midi.NoteOnEvent(tick=240, channel=0, data=[81, 0]),
   midi.NoteOnEvent(tick=0, channel=0, data=[79, 79]),
   midi.NoteOnEvent(tick=240, channel=0, data=[79, 0]),
   midi.NoteOnEvent(tick=0, channel=0, data=[83, 79]),
   midi.NoteOnEvent(tick=240, channel=0, data=[83, 0]),
   midi.NoteOnEvent(tick=0, channel=0, data=[81, 79]),
   midi.NoteOnEvent(tick=240, channel=0, data=[81, 0]),
   midi.NoteOnEvent(tick=0, channel=0, data=[79, 79]),
   midi.NoteOnEvent(tick=240, channel=0, data=[79, 0]),
   midi.NoteOnEvent(tick=0, channel=0, data=[78, 79]),
   midi.NoteOnEvent(tick=240, channel=0, data=[78, 0]),
   midi.NoteOnEvent(tick=0, channel=0, data=[78, 79]),
   midi.NoteOnEvent(tick=240, channel=0, data=[78, 0]),
   midi.NoteOnEvent(tick=0, channel=0, data=[76, 79]),
   midi.NoteOnEvent(tick=240, channel=0, data=[76, 0]),
   midi.NoteOnEvent(tick=0, channel=0, data=[74, 79]),
   midi.NoteOnEvent(tick=240, channel=0, data=[74, 0]),
   midi.NoteOnEvent(tick=0, channel=0, data=[73, 79]),
   midi.NoteOnEvent(tick=240, channel=0, data=[73, 0]),
   midi.NoteOnEvent(tick=0, channel=0, data=[74, 79]),
   midi.NoteOnEvent(tick=960, channel=0, data=[74, 0]),
   midi.NoteOnEvent(tick=0, channel=0, data=[62, 36]),
   midi.ControlChangeEvent(tick=96, channel=0, data=[7, 60]),
   midi.ControlChangeEvent(tick=48, channel=0, data=[7, 76]),
   midi.NoteOnEvent(tick=336, channel=0, data=[62, 0]),
   midi.NoteOnEvent(tick=0, channel=0, data=[62, 36]),
   midi.NoteOnEvent(tick=240, channel=0, data=[62, 0]),
   midi.NoteOnEvent(tick=0, channel=0, data=[62, 36]),
   midi.NoteOnEvent(tick=240, channel=0, data=[62, 0]),
   midi.NoteOnEvent(tick=0, channel=0, data=[65, 36]),
   midi.NoteOnEvent(tick=480, channel=0, data=[65, 0]),
   midi.NoteOnEvent(tick=0, channel=0, data=[64, 36]),
   midi.NoteOnEvent(tick=480, channel=0, data=[64, 0]),
   midi.NoteOnEvent(tick=0, channel=0, data=[64, 36]),
   midi.NoteOnEvent(tick=480, channel=0, data=[64, 0]),
   midi.NoteOnEvent(tick=0, channel=0, data=[64, 36]),
   midi.NoteOnEvent(tick=240, channel=0, data=[64, 0]),
   midi.NoteOnEvent(tick=0, channel=0, data=[64, 36]),
   midi.NoteOnEvent(tick=240, channel=0, data=[64, 0]),
   midi.NoteOnEvent(tick=0, channel=0, data=[64, 36]),
   midi.NoteOnEvent(tick=480, channel=0, data=[64, 0]),
   midi.NoteOnEvent(tick=0, channel=0, data=[57, 36]),
   midi.NoteOnEvent(tick=480, channel=0, data=[57, 0]),
   midi.NoteOnEvent(tick=0, channel=0, data=[60, 36]),
   midi.NoteOnEvent(tick=480, channel=0, data=[60, 0]),
   midi.NoteOnEvent(tick=0, channel=0, data=[60, 36]),
   midi.NoteOnEvent(tick=240, channel=0, data=[60, 0]),
   midi.NoteOnEvent(tick=0, channel=0, data=[60, 36]),
   midi.NoteOnEvent(tick=240, channel=0, data=[60, 0]),
   midi.NoteOnEvent(tick=0, channel=0, data=[63, 36]),
   midi.NoteOnEvent(tick=480, channel=0, data=[63, 0]),
   midi.NoteOnEvent(tick=0, channel=0, data=[62, 36]),
   midi.NoteOnEvent(tick=480, channel=0, data=[62, 0]),
   midi.NoteOnEvent(tick=0, channel=0, data=[62, 36]),
   midi.NoteOnEvent(tick=480, channel=0, data=[62, 0]),
   midi.NoteOnEvent(tick=0, channel=0, data=[62, 36]),
   midi.NoteOnEvent(tick=240, channel=0, data=[62, 0]),
   midi.NoteOnEvent(tick=0, channel=0, data=[62, 36]),
   midi.NoteOnEvent(tick=240, channel=0, data=[62, 0]),
   midi.NoteOnEvent(tick=0, channel=0, data=[62, 36]),
   midi.NoteOnEvent(tick=480, channel=0, data=[62, 0]),
   midi.NoteOnEvent(tick=0, channel=0, data=[55, 36]),
   midi.NoteOnEvent(tick=480, channel=0, data=[55, 0]),
   midi.NoteOnEvent(tick=0, channel=0, data=[83, 79]),
   midi.ControlChangeEvent(tick=95, channel=0, data=[7, 76]),
   midi.NoteOnEvent(tick=145, channel=0, data=[83, 0]),
   midi.NoteOnEvent(tick=0, channel=0, data=[81, 79]),
   midi.NoteOnEvent(tick=240, channel=0, data=[81, 0]),
   midi.NoteOnEvent(tick=0, channel=0, data=[79, 79]),
   midi.NoteOnEvent(tick=240, channel=0, data=[79, 0]),
   midi.NoteOnEvent(tick=0, channel=0, data=[78, 79]),
   midi.NoteOnEvent(tick=240, channel=0, data=[78, 0]),
   midi.NoteOnEvent(tick=0, channel=0, data=[79, 79]),
   midi.NoteOnEvent(tick=240, channel=0, data=[79, 0]),
   midi.NoteOnEvent(tick=0, channel=0, data=[78, 79]),
   midi.NoteOnEvent(tick=240, channel=0, data=[78, 0]),
   midi.NoteOnEvent(tick=0, channel=0, data=[76, 79]),
   midi.NoteOnEvent(tick=240, channel=0, data=[76, 0]),
   midi.NoteOnEvent(tick=0, channel=0, data=[74, 79]),
   midi.NoteOnEvent(tick=240, channel=0, data=[74, 0]),
   midi.NoteOnEvent(tick=0, channel=0, data=[76, 79]),
   midi.NoteOnEvent(tick=240, channel=0, data=[76, 0]),
   midi.NoteOnEvent(tick=0, channel=0, data=[74, 79]),
   midi.NoteOnEvent(tick=240, channel=0, data=[74, 0]),
   midi.NoteOnEvent(tick=0, channel=0, data=[72, 79]),
   midi.NoteOnEvent(tick=240, channel=0, data=[72, 0]),
   midi.NoteOnEvent(tick=0, channel=0, data=[71, 79]),
   midi.NoteOnEvent(tick=240, channel=0, data=[71, 0]),
   midi.NoteOnEvent(tick=0, channel=0, data=[72, 79]),
   midi.NoteOnEvent(tick=240, channel=0, data=[72, 0]),
   midi.NoteOnEvent(tick=0, channel=0, data=[71, 79]),
   midi.NoteOnEvent(tick=240, channel=0, data=[71, 0]),
   midi.NoteOnEvent(tick=0, channel=0, data=[69, 79]),
   midi.NoteOnEvent(tick=240, channel=0, data=[69, 0]),
   midi.NoteOnEvent(tick=0, channel=0, data=[67, 79]),
   midi.NoteOnEvent(tick=240, channel=0, data=[67, 0]),
   midi.NoteOnEvent(tick=0, channel=0, data=[69, 79]),
   midi.NoteOnEvent(tick=240, channel=0, data=[69, 0]),
   midi.NoteOnEvent(tick=0, channel=0, data=[67, 79]),
   midi.NoteOnEvent(tick=240, channel=0, data=[67, 0]),
   midi.NoteOnEvent(tick=0, channel=0, data=[66, 79]),
   midi.NoteOnEvent(tick=240, channel=0, data=[66, 0]),
   midi.NoteOnEvent(tick=0, channel=0, data=[64, 79]),
   midi.NoteOnEvent(tick=240, channel=0, data=[64, 0]),
   midi.NoteOnEvent(tick=0, channel=0, data=[62, 79]),
   midi.NoteOnEvent(tick=480, channel=0, data=[62, 0]),
   midi.NoteOnEvent(tick=0, channel=0, data=[72, 79]),
   midi.NoteOnEvent(tick=960, channel=0, data=[72, 0]),
   midi.NoteOnEvent(tick=0, channel=0, data=[72, 79]),
   midi.NoteOnEvent(tick=60, channel=0, data=[72, 0]),
   midi.NoteOnEvent(tick=0, channel=0, data=[71, 79]),
   midi.NoteOnEvent(tick=60, channel=0, data=[71, 0]),
   midi.NoteOnEvent(tick=0, channel=0, data=[72, 79]),
   midi.NoteOnEvent(tick=60, channel=0, data=[72, 0]),
   midi.NoteOnEvent(tick=0, channel=0, data=[71, 79]),
   midi.NoteOnEvent(tick=60, channel=0, data=[71, 0]),
   midi.NoteOnEvent(tick=0, channel=0, data=[72, 79]),
   midi.NoteOnEvent(tick=60, channel=0, data=[72, 0]),
   midi.NoteOnEvent(tick=0, channel=0, data=[71, 79]),
   midi.NoteOnEvent(tick=60, channel=0, data=[71, 0]),
   midi.NoteOnEvent(tick=0, channel=0, data=[72, 79]),
   midi.NoteOnEvent(tick=60, channel=0, data=[72, 0]),
   midi.NoteOnEvent(tick=0, channel=0, data=[71, 79]),
   midi.NoteOnEvent(tick=60, channel=0, data=[71, 0]),
   midi.NoteOnEvent(tick=0, channel=0, data=[69, 79]),
   midi.NoteOnEvent(tick=480, channel=0, data=[69, 0]),
   midi.NoteOnEvent(tick=480, channel=0, data=[74, 36]),
   midi.ControlChangeEvent(tick=48, channel=0, data=[7, 78]),
   midi.NoteOnEvent(tick=432, channel=0, data=[74, 0]),
   midi.NoteOnEvent(tick=0, channel=0, data=[74, 36]),
   midi.NoteOnEvent(tick=480, channel=0, data=[74, 0]),
   midi.NoteOnEvent(tick=0, channel=0, data=[76, 36]),
   midi.NoteOnEvent(tick=240, channel=0, data=[76, 0]),
   midi.NoteOnEvent(tick=0, channel=0, data=[74, 36]),
   midi.NoteOnEvent(tick=240, channel=0, data=[74, 0]),
   midi.NoteOnEvent(tick=0, channel=0, data=[72, 36]),
   midi.NoteOnEvent(tick=240, channel=0, data=[72, 0]),
   midi.NoteOnEvent(tick=0, channel=0, data=[71, 36]),
   midi.NoteOnEvent(tick=240, channel=0, data=[71, 0]),
   midi.NoteOnEvent(tick=0, channel=0, data=[76, 36]),
   midi.ControlChangeEvent(tick=72, channel=0, data=[7, 77]),
   midi.NoteOnEvent(tick=408, channel=0, data=[76, 0]),
   midi.NoteOnEvent(tick=0, channel=0, data=[76, 36]),
   midi.NoteOnEvent(tick=480, channel=0, data=[76, 0]),
   midi.NoteOnEvent(tick=0, channel=0, data=[76, 36]),
   midi.NoteOnEvent(tick=960, channel=0, data=[76, 0]),
   midi.NoteOnEvent(tick=0, channel=0, data=[72, 36]),
   midi.ControlChangeEvent(tick=96, channel=0, data=[7, 76]),
   midi.NoteOnEvent(tick=384, channel=0, data=[72, 0]),
   midi.NoteOnEvent(tick=0, channel=0, data=[72, 36]),
   midi.NoteOnEvent(tick=480, channel=0, data=[72, 0]),
   midi.NoteOnEvent(tick=0, channel=0, data=[74, 36]),
   midi.NoteOnEvent(tick=240, channel=0, data=[74, 0]),
   midi.NoteOnEvent(tick=0, channel=0, data=[72, 36]),
   midi.NoteOnEvent(tick=240, channel=0, data=[72, 0]),
   midi.NoteOnEvent(tick=0, channel=0, data=[71, 36]),
   midi.NoteOnEvent(tick=240, channel=0, data=[71, 0]),
   midi.NoteOnEvent(tick=0, channel=0, data=[69, 36]),
   midi.NoteOnEvent(tick=240, channel=0, data=[69, 0]),
   midi.NoteOnEvent(tick=0, channel=0, data=[69, 36]),
   midi.ControlChangeEvent(tick=120, channel=0, data=[7, 75]),
   midi.NoteOnEvent(tick=360, channel=0, data=[69, 0]),
   midi.NoteOnEvent(tick=0, channel=0, data=[69, 36]),
   midi.NoteOnEvent(tick=480, channel=0, data=[69, 0]),
   midi.NoteOnEvent(tick=0, channel=0, data=[71, 36]),
   midi.NoteOnEvent(tick=240, channel=0, data=[71, 0]),
   midi.NoteOnEvent(tick=0, channel=0, data=[69, 36]),
   midi.NoteOnEvent(tick=240, channel=0, data=[69, 0]),
   midi.NoteOnEvent(tick=0, channel=0, data=[67, 36]),
   midi.NoteOnEvent(tick=240, channel=0, data=[67, 0]),
   midi.NoteOnEvent(tick=0, channel=0, data=[66, 36]),
   midi.NoteOnEvent(tick=240, channel=0, data=[66, 0]),
   midi.NoteOnEvent(tick=0, channel=0, data=[74, 79]),
   midi.ControlChangeEvent(tick=143, channel=0, data=[7, 74]),
   midi.NoteOnEvent(tick=337, channel=0, data=[74, 0]),
   midi.NoteOnEvent(tick=0, channel=0, data=[74, 79]),
   midi.NoteOnEvent(tick=480, channel=0, data=[74, 0]),
   midi.NoteOnEvent(tick=0, channel=0, data=[76, 79]),
   midi.NoteOnEvent(tick=240, channel=0, data=[76, 0]),
   midi.NoteOnEvent(tick=0, channel=0, data=[74, 79]),
   midi.NoteOnEvent(tick=240, channel=0, data=[74, 0]),
   midi.NoteOnEvent(tick=0, channel=0, data=[72, 79]),
   midi.NoteOnEvent(tick=240, channel=0, data=[72, 0]),
   midi.NoteOnEvent(tick=0, channel=0, data=[71, 79]),
   midi.NoteOnEvent(tick=240, channel=0, data=[71, 0]),
   midi.NoteOnEvent(tick=0, channel=0, data=[76, 79]),
   midi.NoteOnEvent(tick=240, channel=0, data=[76, 0]),
   midi.NoteOnEvent(tick=0, channel=0, data=[74, 79]),
   midi.NoteOnEvent(tick=240, channel=0, data=[74, 0]),
   midi.NoteOnEvent(tick=0, channel=0, data=[76, 79]),
   midi.NoteOnEvent(tick=240, channel=0, data=[76, 0]),
   midi.NoteOnEvent(tick=0, channel=0, data=[78, 79]),
   midi.NoteOnEvent(tick=240, channel=0, data=[78, 0]),
   midi.NoteOnEvent(tick=0, channel=0, data=[79, 79]),
   midi.NoteOnEvent(tick=240, channel=0, data=[79, 0]),
   midi.NoteOnEvent(tick=0, channel=0, data=[78, 79]),
   midi.NoteOnEvent(tick=240, channel=0, data=[78, 0]),
   midi.NoteOnEvent(tick=0, channel=0, data=[79, 79]),
   midi.NoteOnEvent(tick=240, channel=0, data=[79, 0]),
   midi.NoteOnEvent(tick=0, channel=0, data=[81, 79]),
   midi.NoteOnEvent(tick=240, channel=0, data=[81, 0]),
   midi.NoteOnEvent(tick=0, channel=0, data=[83, 79]),
   midi.NoteOnEvent(tick=240, channel=0, data=[83, 0]),
   midi.NoteOnEvent(tick=0, channel=0, data=[81, 79]),
   midi.NoteOnEvent(tick=240, channel=0, data=[81, 0]),
   midi.NoteOnEvent(tick=0, channel=0, data=[83, 79]),
   midi.NoteOnEvent(tick=240, channel=0, data=[83, 0]),
   midi.NoteOnEvent(tick=0, channel=0, data=[84, 79]),
   midi.NoteOnEvent(tick=240, channel=0, data=[84, 0]),
   midi.NoteOnEvent(tick=0, channel=0, data=[86, 79]),
   midi.NoteOnEvent(tick=480, channel=0, data=[86, 0]),
   midi.NoteOnEvent(tick=480, channel=0, data=[71, 79]),
   midi.NoteOnEvent(tick=60, channel=0, data=[71, 0]),
   midi.NoteOnEvent(tick=0, channel=0, data=[69, 79]),
   midi.NoteOnEvent(tick=60, channel=0, data=[69, 0]),
   midi.NoteOnEvent(tick=0, channel=0, data=[71, 79]),
   midi.NoteOnEvent(tick=60, channel=0, data=[71, 0]),
   midi.NoteOnEvent(tick=0, channel=0, data=[69, 79]),
   midi.NoteOnEvent(tick=60, channel=0, data=[69, 0]),
   midi.NoteOnEvent(tick=0, channel=0, data=[71, 79]),
   midi.NoteOnEvent(tick=60, channel=0, data=[71, 0]),
   midi.NoteOnEvent(tick=0, channel=0, data=[69, 79]),
   midi.NoteOnEvent(tick=60, channel=0, data=[69, 0]),
   midi.NoteOnEvent(tick=0, channel=0, data=[71, 79]),
   midi.NoteOnEvent(tick=60, channel=0, data=[71, 0]),
   midi.NoteOnEvent(tick=0, channel=0, data=[69, 79]),
   midi.NoteOnEvent(tick=60, channel=0, data=[69, 0]),
   midi.NoteOnEvent(tick=0, channel=0, data=[71, 79]),
   midi.NoteOnEvent(tick=60, channel=0, data=[71, 0]),
   midi.NoteOnEvent(tick=0, channel=0, data=[69, 79]),
   midi.NoteOnEvent(tick=60, channel=0, data=[69, 0]),
   midi.NoteOnEvent(tick=0, channel=0, data=[71, 79]),
   midi.NoteOnEvent(tick=60, channel=0, data=[71, 0]),
   midi.NoteOnEvent(tick=0, channel=0, data=[69, 79]),
   midi.NoteOnEvent(tick=60, channel=0, data=[69, 0]),
   midi.NoteOnEvent(tick=0, channel=0, data=[71, 79]),
   midi.NoteOnEvent(tick=60, channel=0, data=[71, 0]),
   midi.NoteOnEvent(tick=0, channel=0, data=[69, 79]),
   midi.NoteOnEvent(tick=60, channel=0, data=[69, 0]),
   midi.NoteOnEvent(tick=0, channel=0, data=[71, 79]),
   midi.NoteOnEvent(tick=60, channel=0, data=[71, 0]),
   midi.NoteOnEvent(tick=0, channel=0, data=[69, 79]),
   midi.NoteOnEvent(tick=60, channel=0, data=[69, 0]),
   midi.NoteOnEvent(tick=0, channel=0, data=[67, 79]),
   midi.NoteOnEvent(tick=480, channel=0, data=[67, 0]),
   midi.NoteOnEvent(tick=480, channel=0, data=[67, 36]),
   midi.ControlChangeEvent(tick=47, channel=0, data=[7, 104]),
   midi.ControlChangeEvent(tick=49, channel=0, data=[7, 54]),
   midi.ControlChangeEvent(tick=48, channel=0, data=[7, 68]),
   midi.NoteOnEvent(tick=336, channel=0, data=[67, 0]),
   midi.NoteOnEvent(tick=0, channel=0, data=[67, 36]),
   midi.NoteOnEvent(tick=240, channel=0, data=[67, 0]),
   midi.NoteOnEvent(tick=0, channel=0, data=[67, 36]),
   midi.NoteOnEvent(tick=240, channel=0, data=[67, 0]),
   midi.NoteOnEvent(tick=0, channel=0, data=[70, 36]),
   midi.NoteOnEvent(tick=480, channel=0, data=[70, 0]),
   midi.NoteOnEvent(tick=0, channel=0, data=[69, 36]),
   midi.NoteOnEvent(tick=480, channel=0, data=[69, 0]),
   midi.NoteOnEvent(tick=0, channel=0, data=[69, 36]),
   midi.NoteOnEvent(tick=480, channel=0, data=[69, 0]),
   midi.NoteOnEvent(tick=0, channel=0, data=[69, 36]),
   midi.NoteOnEvent(tick=240, channel=0, data=[69, 0]),
   midi.NoteOnEvent(tick=0, channel=0, data=[69, 36]),
   midi.NoteOnEvent(tick=240, channel=0, data=[69, 0]),
   midi.NoteOnEvent(tick=0, channel=0, data=[72, 36]),
   midi.NoteOnEvent(tick=480, channel=0, data=[72, 0]),
   midi.NoteOnEvent(tick=0, channel=0, data=[70, 36]),
   midi.NoteOnEvent(tick=480, channel=0, data=[70, 0]),
   midi.NoteOnEvent(tick=0, channel=0, data=[70, 36]),
   midi.NoteOnEvent(tick=480, channel=0, data=[70, 0]),
   midi.NoteOnEvent(tick=0, channel=0, data=[70, 36]),
   midi.NoteOnEvent(tick=240, channel=0, data=[70, 0]),
   midi.NoteOnEvent(tick=0, channel=0, data=[70, 36]),
   midi.NoteOnEvent(tick=240, channel=0, data=[70, 0]),
   midi.NoteOnEvent(tick=0, channel=0, data=[74, 36]),
   midi.NoteOnEvent(tick=480, channel=0, data=[74, 0]),
   midi.NoteOnEvent(tick=0, channel=0, data=[72, 36]),
   midi.NoteOnEvent(tick=480, channel=0, data=[72, 0]),
   midi.NoteOnEvent(tick=0, channel=0, data=[72, 36]),
   midi.NoteOnEvent(tick=480, channel=0, data=[72, 0]),
   midi.NoteOnEvent(tick=0, channel=0, data=[72, 36]),
   midi.NoteOnEvent(tick=240, channel=0, data=[72, 0]),
   midi.NoteOnEvent(tick=0, channel=0, data=[72, 36]),
   midi.NoteOnEvent(tick=240, channel=0, data=[72, 0]),
   midi.NoteOnEvent(tick=0, channel=0, data=[75, 36]),
   midi.NoteOnEvent(tick=480, channel=0, data=[75, 0]),
   midi.NoteOnEvent(tick=0, channel=0, data=[74, 36]),
   midi.ControlChangeEvent(tick=432, channel=0, data=[7, 68]),
   midi.NoteOnEvent(tick=48, channel=0, data=[74, 0]),
   midi.NoteOnEvent(tick=0, channel=0, data=[74, 36]),
   midi.NoteOnEvent(tick=480, channel=0, data=[74, 0]),
   midi.NoteOnEvent(tick=0, channel=0, data=[74, 36]),
   midi.NoteOnEvent(tick=240, channel=0, data=[74, 0]),
   midi.NoteOnEvent(tick=0, channel=0, data=[74, 36]),
   midi.NoteOnEvent(tick=240, channel=0, data=[74, 0]),
   midi.NoteOnEvent(tick=0, channel=0, data=[77, 36]),
   midi.NoteOnEvent(tick=480, channel=0, data=[77, 0]),
   midi.NoteOnEvent(tick=0, channel=0, data=[76, 36]),
   midi.NoteOnEvent(tick=480, channel=0, data=[76, 0]),
   midi.NoteOnEvent(tick=0, channel=0, data=[76, 36]),
   midi.NoteOnEvent(tick=480, channel=0, data=[76, 0]),
   midi.NoteOnEvent(tick=0, channel=0, data=[76, 36]),
   midi.NoteOnEvent(tick=240, channel=0, data=[76, 0]),
   midi.NoteOnEvent(tick=0, channel=0, data=[76, 36]),
   midi.NoteOnEvent(tick=240, channel=0, data=[76, 0]),
   midi.NoteOnEvent(tick=0, channel=0, data=[79, 36]),
   midi.NoteOnEvent(tick=480, channel=0, data=[79, 0]),
   midi.NoteOnEvent(tick=0, channel=0, data=[77, 36]),
   midi.NoteOnEvent(tick=480, channel=0, data=[77, 0]),
   midi.ControlChangeEvent(tick=3600, channel=0, data=[7, 69]),
   midi.NoteOnEvent(tick=240, channel=0, data=[67, 36]),
   midi.NoteOnEvent(tick=480, channel=0, data=[67, 0]),
   midi.NoteOnEvent(tick=0, channel=0, data=[67, 36]),
   midi.NoteOnEvent(tick=240, channel=0, data=[67, 0]),
   midi.NoteOnEvent(tick=0, channel=0, data=[67, 36]),
   midi.NoteOnEvent(tick=240, channel=0, data=[67, 0]),
   midi.NoteOnEvent(tick=0, channel=0, data=[70, 36]),
   midi.NoteOnEvent(tick=480, channel=0, data=[70, 0]),
   midi.NoteOnEvent(tick=0, channel=0, data=[69, 36]),
   midi.NoteOnEvent(tick=480, channel=0, data=[69, 0]),
   midi.NoteOnEvent(tick=0, channel=0, data=[69, 36]),
   midi.NoteOnEvent(tick=480, channel=0, data=[69, 0]),
   midi.NoteOnEvent(tick=0, channel=0, data=[69, 36]),
   midi.NoteOnEvent(tick=240, channel=0, data=[69, 0]),
   midi.NoteOnEvent(tick=0, channel=0, data=[69, 36]),
   midi.NoteOnEvent(tick=240, channel=0, data=[69, 0]),
   midi.NoteOnEvent(tick=0, channel=0, data=[72, 36]),
   midi.NoteOnEvent(tick=480, channel=0, data=[72, 0]),
   midi.NoteOnEvent(tick=0, channel=0, data=[70, 36]),
   midi.NoteOnEvent(tick=480, channel=0, data=[70, 0]),
   midi.NoteOnEvent(tick=0, channel=0, data=[70, 36]),
   midi.NoteOnEvent(tick=480, channel=0, data=[70, 0]),
   midi.NoteOnEvent(tick=0, channel=0, data=[70, 36]),
   midi.NoteOnEvent(tick=240, channel=0, data=[70, 0]),
   midi.NoteOnEvent(tick=0, channel=0, data=[70, 36]),
   midi.NoteOnEvent(tick=240, channel=0, data=[70, 0]),
   midi.NoteOnEvent(tick=0, channel=0, data=[74, 36]),
   midi.NoteOnEvent(tick=480, channel=0, data=[74, 0]),
   midi.NoteOnEvent(tick=0, channel=0, data=[72, 36]),
   midi.NoteOnEvent(tick=480, channel=0, data=[72, 0]),
   midi.NoteOnEvent(tick=0, channel=0, data=[72, 36]),
   midi.NoteOnEvent(tick=480, channel=0, data=[72, 0]),
   midi.NoteOnEvent(tick=0, channel=0, data=[72, 36]),
   midi.NoteOnEvent(tick=240, channel=0, data=[72, 0]),
   midi.NoteOnEvent(tick=0, channel=0, data=[72, 36]),
   midi.NoteOnEvent(tick=240, channel=0, data=[72, 0]),
   midi.NoteOnEvent(tick=0, channel=0, data=[75, 36]),
   midi.NoteOnEvent(tick=480, channel=0, data=[75, 0]),
   midi.NoteOnEvent(tick=0, channel=0, data=[74, 36]),
   midi.ControlChangeEvent(tick=48, channel=0, data=[7, 70]),
   midi.NoteOnEvent(tick=432, channel=0, data=[74, 0]),
   midi.NoteOnEvent(tick=0, channel=0, data=[74, 36]),
   midi.NoteOnEvent(tick=480, channel=0, data=[74, 0]),
   midi.NoteOnEvent(tick=0, channel=0, data=[74, 36]),
   midi.NoteOnEvent(tick=240, channel=0, data=[74, 0]),
   midi.NoteOnEvent(tick=0, channel=0, data=[74, 36]),
   midi.NoteOnEvent(tick=240, channel=0, data=[74, 0]),
   midi.NoteOnEvent(tick=0, channel=0, data=[77, 36]),
   midi.NoteOnEvent(tick=480, channel=0, data=[77, 0]),
   midi.NoteOnEvent(tick=0, channel=0, data=[76, 36]),
   midi.NoteOnEvent(tick=480, channel=0, data=[76, 0]),
   midi.NoteOnEvent(tick=0, channel=0, data=[76, 36]),
   midi.NoteOnEvent(tick=480, channel=0, data=[76, 0]),
   midi.NoteOnEvent(tick=0, channel=0, data=[76, 36]),
   midi.NoteOnEvent(tick=240, channel=0, data=[76, 0]),
   midi.NoteOnEvent(tick=0, channel=0, data=[76, 36]),
   midi.NoteOnEvent(tick=240, channel=0, data=[76, 0]),
   midi.NoteOnEvent(tick=0, channel=0, data=[79, 36]),
   midi.NoteOnEvent(tick=480, channel=0, data=[79, 0]),
   midi.NoteOnEvent(tick=0, channel=0, data=[77, 36]),
   midi.NoteOnEvent(tick=480, channel=0, data=[77, 0]),
   midi.ControlChangeEvent(tick=3215, channel=0, data=[7, 72]),
   midi.ControlChangeEvent(tick=1, channel=0, data=[7, 102]),
   midi.NoteOnEvent(tick=624, channel=0, data=[74, 79]),
   midi.NoteOnEvent(tick=480, channel=0, data=[74, 0]),
   midi.NoteOnEvent(tick=0, channel=0, data=[74, 79]),
   midi.NoteOnEvent(tick=240, channel=0, data=[74, 0]),
   midi.NoteOnEvent(tick=0, channel=0, data=[74, 79]),
   midi.NoteOnEvent(tick=240, channel=0, data=[74, 0]),
   midi.NoteOnEvent(tick=0, channel=0, data=[77, 79]),
   midi.NoteOnEvent(tick=480, channel=0, data=[77, 0]),
   midi.NoteOnEvent(tick=0, channel=0, data=[71, 79]),
   midi.NoteOnEvent(tick=480, channel=0, data=[71, 0]),
   midi.NoteOnEvent(tick=0, channel=0, data=[71, 79]),
   midi.NoteOnEvent(tick=480, channel=0, data=[71, 0]),
   midi.NoteOnEvent(tick=0, channel=0, data=[71, 79]),
   midi.NoteOnEvent(tick=240, channel=0, data=[71, 0]),
   midi.NoteOnEvent(tick=0, channel=0, data=[71, 79]),
   midi.NoteOnEvent(tick=240, channel=0, data=[71, 0]),
   midi.NoteOnEvent(tick=0, channel=0, data=[74, 79]),
   midi.NoteOnEvent(tick=480, channel=0, data=[74, 0]),
   midi.NoteOnEvent(tick=0, channel=0, data=[72, 79]),
   midi.NoteOnEvent(tick=480, channel=0, data=[72, 0]),
   midi.NoteOnEvent(tick=0, channel=0, data=[72, 79]),
   midi.NoteOnEvent(tick=480, channel=0, data=[72, 0]),
   midi.NoteOnEvent(tick=0, channel=0, data=[72, 79]),
   midi.NoteOnEvent(tick=240, channel=0, data=[72, 0]),
   midi.NoteOnEvent(tick=0, channel=0, data=[72, 79]),
   midi.NoteOnEvent(tick=240, channel=0, data=[72, 0]),
   midi.NoteOnEvent(tick=0, channel=0, data=[75, 79]),
   midi.NoteOnEvent(tick=480, channel=0, data=[75, 0]),
   midi.NoteOnEvent(tick=0, channel=0, data=[69, 79]),
   midi.ControlChangeEvent(tick=95, channel=0, data=[7, 102]),
   midi.NoteOnEvent(tick=385, channel=0, data=[69, 0]),
   midi.NoteOnEvent(tick=0, channel=0, data=[69, 79]),
   midi.NoteOnEvent(tick=480, channel=0, data=[69, 0]),
   midi.NoteOnEvent(tick=0, channel=0, data=[69, 79]),
   midi.NoteOnEvent(tick=240, channel=0, data=[69, 0]),
   midi.NoteOnEvent(tick=0, channel=0, data=[69, 79]),
   midi.NoteOnEvent(tick=240, channel=0, data=[69, 0]),
   midi.NoteOnEvent(tick=0, channel=0, data=[72, 79]),
   midi.NoteOnEvent(tick=480, channel=0, data=[72, 0]),
   midi.NoteOnEvent(tick=0, channel=0, data=[70, 79]),
   midi.NoteOnEvent(tick=480, channel=0, data=[70, 0]),
   midi.NoteOnEvent(tick=0, channel=0, data=[67, 36]),
   midi.ControlChangeEvent(tick=192, channel=0, data=[7, 72]),
   midi.NoteOnEvent(tick=768, channel=0, data=[67, 0]),
   midi.NoteOnEvent(tick=0, channel=0, data=[67, 36]),
   midi.NoteOnEvent(tick=960, channel=0, data=[67, 0]),
   midi.NoteOnEvent(tick=0, channel=0, data=[66, 36]),
   midi.NoteOnEvent(tick=960, channel=0, data=[66, 0]),
   midi.NoteOnEvent(tick=960, channel=0, data=[70, 36]),
   midi.NoteOnEvent(tick=960, channel=0, data=[70, 0]),
   midi.NoteOnEvent(tick=0, channel=0, data=[71, 36]),
   midi.NoteOnEvent(tick=960, channel=0, data=[71, 0]),
   midi.NoteOnEvent(tick=0, channel=0, data=[69, 36]),
   midi.NoteOnEvent(tick=960, channel=0, data=[69, 0]),
   midi.NoteOnEvent(tick=960, channel=0, data=[79, 36]),
   midi.NoteOnEvent(tick=480, channel=0, data=[79, 0]),
   midi.NoteOnEvent(tick=0, channel=0, data=[79, 36]),
   midi.NoteOnEvent(tick=240, channel=0, data=[79, 0]),
   midi.NoteOnEvent(tick=0, channel=0, data=[79, 36]),
   midi.NoteOnEvent(tick=240, channel=0, data=[79, 0]),
   midi.NoteOnEvent(tick=0, channel=0, data=[79, 36]),
   midi.NoteOnEvent(tick=480, channel=0, data=[79, 0]),
   midi.NoteOnEvent(tick=0, channel=0, data=[78, 36]),
   midi.NoteOnEvent(tick=480, channel=0, data=[78, 0]),
   midi.NoteOnEvent(tick=0, channel=0, data=[75, 36]),
   midi.NoteOnEvent(tick=480, channel=0, data=[75, 0]),
   midi.NoteOnEvent(tick=0, channel=0, data=[75, 36]),
   midi.NoteOnEvent(tick=240, channel=0, data=[75, 0]),
   midi.NoteOnEvent(tick=0, channel=0, data=[75, 36]),
   midi.NoteOnEvent(tick=240, channel=0, data=[75, 0]),
   midi.NoteOnEvent(tick=0, channel=0, data=[75, 36]),
   midi.NoteOnEvent(tick=480, channel=0, data=[75, 0]),
   midi.NoteOnEvent(tick=0, channel=0, data=[74, 36]),
   midi.NoteOnEvent(tick=480, channel=0, data=[74, 0]),
   midi.NoteOnEvent(tick=0, channel=0, data=[72, 79]),
   midi.ControlChangeEvent(tick=95, channel=0, data=[7, 72]),
   midi.ControlChangeEvent(tick=1, channel=0, data=[7, 98]),
   midi.NoteOnEvent(tick=384, channel=0, data=[72, 0]),
   midi.NoteOnEvent(tick=0, channel=0, data=[72, 79]),
   midi.NoteOnEvent(tick=240, channel=0, data=[72, 0]),
   midi.NoteOnEvent(tick=0, channel=0, data=[72, 79]),
   midi.NoteOnEvent(tick=240, channel=0, data=[72, 0]),
   midi.NoteOnEvent(tick=0, channel=0, data=[72, 79]),
   midi.NoteOnEvent(tick=240, channel=0, data=[72, 0]),
   midi.NoteOnEvent(tick=0, channel=0, data=[70, 79]),
   midi.NoteOnEvent(tick=240, channel=0, data=[70, 0]),
   midi.NoteOnEvent(tick=0, channel=0, data=[69, 79]),
   midi.NoteOnEvent(tick=240, channel=0, data=[69, 0]),
   midi.NoteOnEvent(tick=0, channel=0, data=[67, 79]),
   midi.NoteOnEvent(tick=240, channel=0, data=[67, 0]),
   midi.NoteOnEvent(tick=0, channel=0, data=[72, 79]),
   midi.NoteOnEvent(tick=240, channel=0, data=[72, 0]),
   midi.NoteOnEvent(tick=0, channel=0, data=[70, 79]),
   midi.ControlChangeEvent(tick=191, channel=0, data=[7, 98]),
   midi.NoteOnEvent(tick=49, channel=0, data=[70, 0]),
   midi.NoteOnEvent(tick=0, channel=0, data=[69, 79]),
   midi.NoteOnEvent(tick=240, channel=0, data=[69, 0]),
   midi.NoteOnEvent(tick=0, channel=0, data=[67, 79]),
   midi.NoteOnEvent(tick=240, channel=0, data=[67, 0]),
   midi.NoteOnEvent(tick=0, channel=0, data=[66, 79]),
   midi.NoteOnEvent(tick=480, channel=0, data=[66, 0]),
   midi.NoteOnEvent(tick=0, channel=0, data=[69, 79]),
   midi.NoteOnEvent(tick=960, channel=0, data=[69, 0]),
   midi.NoteOnEvent(tick=0, channel=0, data=[74, 79]),
   midi.NoteOnEvent(tick=480, channel=0, data=[74, 0]),
   midi.NoteOnEvent(tick=0, channel=0, data=[72, 79]),
   midi.NoteOnEvent(tick=60, channel=0, data=[72, 0]),
   midi.NoteOnEvent(tick=0, channel=0, data=[70, 79]),
   midi.NoteOnEvent(tick=60, channel=0, data=[70, 0]),
   midi.NoteOnEvent(tick=0, channel=0, data=[72, 79]),
   midi.NoteOnEvent(tick=60, channel=0, data=[72, 0]),
   midi.NoteOnEvent(tick=0, channel=0, data=[70, 79]),
   midi.NoteOnEvent(tick=60, channel=0, data=[70, 0]),
   midi.NoteOnEvent(tick=0, channel=0, data=[72, 79]),
   midi.NoteOnEvent(tick=60, channel=0, data=[72, 0]),
   midi.NoteOnEvent(tick=0, channel=0, data=[70, 79]),
   midi.NoteOnEvent(tick=60, channel=0, data=[70, 0]),
   midi.NoteOnEvent(tick=0, channel=0, data=[72, 79]),
   midi.NoteOnEvent(tick=60, channel=0, data=[72, 0]),
   midi.NoteOnEvent(tick=0, channel=0, data=[70, 79]),
   midi.NoteOnEvent(tick=60, channel=0, data=[70, 0]),
   midi.NoteOnEvent(tick=0, channel=0, data=[72, 79]),
   midi.NoteOnEvent(tick=60, channel=0, data=[72, 0]),
   midi.NoteOnEvent(tick=0, channel=0, data=[70, 79]),
   midi.NoteOnEvent(tick=60, channel=0, data=[70, 0]),
   midi.NoteOnEvent(tick=0, channel=0, data=[72, 79]),
   midi.NoteOnEvent(tick=60, channel=0, data=[72, 0]),
   midi.NoteOnEvent(tick=0, channel=0, data=[70, 79]),
   midi.NoteOnEvent(tick=60, channel=0, data=[70, 0]),
   midi.NoteOnEvent(tick=0, channel=0, data=[72, 79]),
   midi.NoteOnEvent(tick=60, channel=0, data=[72, 0]),
   midi.NoteOnEvent(tick=0, channel=0, data=[70, 79]),
   midi.NoteOnEvent(tick=60, channel=0, data=[70, 0]),
   midi.NoteOnEvent(tick=0, channel=0, data=[72, 79]),
   midi.NoteOnEvent(tick=60, channel=0, data=[72, 0]),
   midi.NoteOnEvent(tick=0, channel=0, data=[72, 79]),
   midi.NoteOnEvent(tick=60, channel=0, data=[72, 0]),
   midi.NoteOnEvent(tick=0, channel=0, data=[70, 79]),
   midi.NoteOnEvent(tick=60, channel=0, data=[70, 0]),
   midi.NoteOnEvent(tick=0, channel=0, data=[72, 79]),
   midi.NoteOnEvent(tick=60, channel=0, data=[72, 0]),
   midi.NoteOnEvent(tick=0, channel=0, data=[70, 79]),
   midi.NoteOnEvent(tick=60, channel=0, data=[70, 0]),
   midi.NoteOnEvent(tick=0, channel=0, data=[72, 79]),
   midi.NoteOnEvent(tick=60, channel=0, data=[72, 0]),
   midi.NoteOnEvent(tick=0, channel=0, data=[70, 79]),
   midi.NoteOnEvent(tick=60, channel=0, data=[70, 0]),
   midi.NoteOnEvent(tick=0, channel=0, data=[72, 79]),
   midi.NoteOnEvent(tick=60, channel=0, data=[72, 0]),
   midi.NoteOnEvent(tick=0, channel=0, data=[70, 79]),
   midi.NoteOnEvent(tick=60, channel=0, data=[70, 0]),
   midi.NoteOnEvent(tick=0, channel=0, data=[72, 79]),
   midi.NoteOnEvent(tick=60, channel=0, data=[72, 0]),
   midi.NoteOnEvent(tick=0, channel=0, data=[70, 79]),
   midi.NoteOnEvent(tick=60, channel=0, data=[70, 0]),
   midi.NoteOnEvent(tick=0, channel=0, data=[72, 79]),
   midi.NoteOnEvent(tick=60, channel=0, data=[72, 0]),
   midi.NoteOnEvent(tick=0, channel=0, data=[70, 79]),
   midi.NoteOnEvent(tick=60, channel=0, data=[70, 0]),
   midi.NoteOnEvent(tick=0, channel=0, data=[72, 79]),
   midi.NoteOnEvent(tick=60, channel=0, data=[72, 0]),
   midi.NoteOnEvent(tick=0, channel=0, data=[70, 79]),
   midi.NoteOnEvent(tick=60, channel=0, data=[70, 0]),
   midi.NoteOnEvent(tick=0, channel=0, data=[72, 79]),
   midi.NoteOnEvent(tick=60, channel=0, data=[72, 0]),
   midi.NoteOnEvent(tick=0, channel=0, data=[70, 79]),
   midi.NoteOnEvent(tick=60, channel=0, data=[70, 0]),
   midi.NoteOnEvent(tick=0, channel=0, data=[72, 79]),
   midi.NoteOnEvent(tick=60, channel=0, data=[72, 0]),
   midi.NoteOnEvent(tick=0, channel=0, data=[69, 79]),
   midi.ControlChangeEvent(tick=864, channel=0, data=[7, 56]),
   midi.ControlChangeEvent(tick=48, channel=0, data=[7, 68]),
   midi.NoteOnEvent(tick=48, channel=0, data=[69, 0]),
   midi.NoteOnEvent(tick=0, channel=0, data=[74, 79]),
   midi.NoteOnEvent(tick=480, channel=0, data=[74, 0]),
   midi.NoteOnEvent(tick=0, channel=0, data=[74, 79]),
   midi.NoteOnEvent(tick=480, channel=0, data=[74, 0]),
   midi.NoteOnEvent(tick=0, channel=0, data=[76, 36]),
   midi.NoteOnEvent(tick=240, channel=0, data=[76, 0]),
   midi.NoteOnEvent(tick=0, channel=0, data=[74, 36]),
   midi.NoteOnEvent(tick=240, channel=0, data=[74, 0]),
   midi.NoteOnEvent(tick=0, channel=0, data=[72, 36]),
   midi.NoteOnEvent(tick=240, channel=0, data=[72, 0]),
   midi.NoteOnEvent(tick=0, channel=0, data=[71, 36]),
   midi.NoteOnEvent(tick=240, channel=0, data=[71, 0]),
   midi.NoteOnEvent(tick=0, channel=0, data=[76, 36]),
   midi.NoteOnEvent(tick=480, channel=0, data=[76, 0]),
   midi.NoteOnEvent(tick=0, channel=0, data=[76, 36]),
   midi.NoteOnEvent(tick=480, channel=0, data=[76, 0]),
   midi.NoteOnEvent(tick=0, channel=0, data=[76, 36]),
   midi.NoteOnEvent(tick=960, channel=0, data=[76, 0]),
   midi.NoteOnEvent(tick=0, channel=0, data=[72, 36]),
   midi.ControlChangeEvent(tick=24, channel=0, data=[7, 68]),
   midi.NoteOnEvent(tick=456, channel=0, data=[72, 0]),
   midi.NoteOnEvent(tick=0, channel=0, data=[72, 36]),
   midi.NoteOnEvent(tick=480, channel=0, data=[72, 0]),
   midi.NoteOnEvent(tick=0, channel=0, data=[74, 36]),
   midi.NoteOnEvent(tick=240, channel=0, data=[74, 0]),
   midi.NoteOnEvent(tick=0, channel=0, data=[72, 36]),
   midi.NoteOnEvent(tick=240, channel=0, data=[72, 0]),
   midi.NoteOnEvent(tick=0, channel=0, data=[71, 36]),
   midi.NoteOnEvent(tick=240, channel=0, data=[71, 0]),
   midi.NoteOnEvent(tick=0, channel=0, data=[69, 36]),
   midi.NoteOnEvent(tick=240, channel=0, data=[69, 0]),
   midi.NoteOnEvent(tick=0, channel=0, data=[69, 36]),
   midi.NoteOnEvent(tick=480, channel=0, data=[69, 0]),
   midi.NoteOnEvent(tick=0, channel=0, data=[69, 36]),
   midi.NoteOnEvent(tick=480, channel=0, data=[69, 0]),
   midi.NoteOnEvent(tick=0, channel=0, data=[71, 36]),
   midi.NoteOnEvent(tick=240, channel=0, data=[71, 0]),
   midi.NoteOnEvent(tick=0, channel=0, data=[69, 36]),
   midi.NoteOnEvent(tick=240, channel=0, data=[69, 0]),
   midi.NoteOnEvent(tick=0, channel=0, data=[67, 36]),
   midi.NoteOnEvent(tick=240, channel=0, data=[67, 0]),
   midi.NoteOnEvent(tick=0, channel=0, data=[66, 36]),
   midi.NoteOnEvent(tick=240, channel=0, data=[66, 0]),
   midi.NoteOnEvent(tick=0, channel=0, data=[74, 79]),
   midi.ControlChangeEvent(tick=95, channel=0, data=[7, 70]),
   midi.ControlChangeEvent(tick=1, channel=0, data=[7, 96]),
   midi.NoteOnEvent(tick=384, channel=0, data=[74, 0]),
   midi.NoteOnEvent(tick=0, channel=0, data=[74, 79]),
   midi.NoteOnEvent(tick=480, channel=0, data=[74, 0]),
   midi.NoteOnEvent(tick=0, channel=0, data=[76, 79]),
   midi.NoteOnEvent(tick=240, channel=0, data=[76, 0]),
   midi.NoteOnEvent(tick=0, channel=0, data=[74, 79]),
   midi.NoteOnEvent(tick=240, channel=0, data=[74, 0]),
   midi.NoteOnEvent(tick=0, channel=0, data=[72, 79]),
   midi.NoteOnEvent(tick=240, channel=0, data=[72, 0]),
   midi.NoteOnEvent(tick=0, channel=0, data=[71, 79]),
   midi.NoteOnEvent(tick=240, channel=0, data=[71, 0]),
   midi.NoteOnEvent(tick=0, channel=0, data=[76, 79]),
   midi.NoteOnEvent(tick=240, channel=0, data=[76, 0]),
   midi.NoteOnEvent(tick=0, channel=0, data=[74, 79]),
   midi.NoteOnEvent(tick=240, channel=0, data=[74, 0]),
   midi.NoteOnEvent(tick=0, channel=0, data=[76, 79]),
   midi.NoteOnEvent(tick=240, channel=0, data=[76, 0]),
   midi.NoteOnEvent(tick=0, channel=0, data=[78, 79]),
   midi.NoteOnEvent(tick=240, channel=0, data=[78, 0]),
   midi.NoteOnEvent(tick=0, channel=0, data=[79, 79]),
   midi.NoteOnEvent(tick=240, channel=0, data=[79, 0]),
   midi.NoteOnEvent(tick=0, channel=0, data=[78, 79]),
   midi.NoteOnEvent(tick=240, channel=0, data=[78, 0]),
   midi.NoteOnEvent(tick=0, channel=0, data=[79, 79]),
   midi.NoteOnEvent(tick=240, channel=0, data=[79, 0]),
   midi.NoteOnEvent(tick=0, channel=0, data=[81, 79]),
   midi.NoteOnEvent(tick=240, channel=0, data=[81, 0]),
   midi.NoteOnEvent(tick=0, channel=0, data=[83, 79]),
   midi.NoteOnEvent(tick=240, channel=0, data=[83, 0]),
   midi.NoteOnEvent(tick=0, channel=0, data=[81, 79]),
   midi.NoteOnEvent(tick=240, channel=0, data=[81, 0]),
   midi.NoteOnEvent(tick=0, channel=0, data=[83, 79]),
   midi.NoteOnEvent(tick=240, channel=0, data=[83, 0]),
   midi.NoteOnEvent(tick=0, channel=0, data=[84, 79]),
   midi.NoteOnEvent(tick=240, channel=0, data=[84, 0]),
   midi.NoteOnEvent(tick=0, channel=0, data=[86, 79]),
   midi.NoteOnEvent(tick=480, channel=0, data=[86, 0]),
   midi.NoteOnEvent(tick=480, channel=0, data=[71, 79]),
   midi.NoteOnEvent(tick=60, channel=0, data=[71, 0]),
   midi.NoteOnEvent(tick=0, channel=0, data=[69, 79]),
   midi.NoteOnEvent(tick=60, channel=0, data=[69, 0]),
   midi.NoteOnEvent(tick=0, channel=0, data=[71, 79]),
   midi.NoteOnEvent(tick=60, channel=0, data=[71, 0]),
   midi.NoteOnEvent(tick=0, channel=0, data=[69, 79]),
   midi.NoteOnEvent(tick=60, channel=0, data=[69, 0]),
   midi.NoteOnEvent(tick=0, channel=0, data=[71, 79]),
   midi.NoteOnEvent(tick=60, channel=0, data=[71, 0]),
   midi.NoteOnEvent(tick=0, channel=0, data=[69, 79]),
   midi.NoteOnEvent(tick=60, channel=0, data=[69, 0]),
   midi.NoteOnEvent(tick=0, channel=0, data=[71, 79]),
   midi.NoteOnEvent(tick=60, channel=0, data=[71, 0]),
   midi.NoteOnEvent(tick=0, channel=0, data=[69, 79]),
   midi.NoteOnEvent(tick=60, channel=0, data=[69, 0]),
   midi.NoteOnEvent(tick=0, channel=0, data=[71, 79]),
   midi.NoteOnEvent(tick=60, channel=0, data=[71, 0]),
   midi.NoteOnEvent(tick=0, channel=0, data=[69, 79]),
   midi.NoteOnEvent(tick=60, channel=0, data=[69, 0]),
   midi.NoteOnEvent(tick=0, channel=0, data=[71, 79]),
   midi.NoteOnEvent(tick=60, channel=0, data=[71, 0]),
   midi.NoteOnEvent(tick=0, channel=0, data=[69, 79]),
   midi.NoteOnEvent(tick=60, channel=0, data=[69, 0]),
   midi.NoteOnEvent(tick=0, channel=0, data=[71, 79]),
   midi.NoteOnEvent(tick=60, channel=0, data=[71, 0]),
   midi.NoteOnEvent(tick=0, channel=0, data=[69, 79]),
   midi.NoteOnEvent(tick=60, channel=0, data=[69, 0]),
   midi.NoteOnEvent(tick=0, channel=0, data=[71, 79]),
   midi.NoteOnEvent(tick=60, channel=0, data=[71, 0]),
   midi.NoteOnEvent(tick=0, channel=0, data=[69, 79]),
   midi.NoteOnEvent(tick=60, channel=0, data=[69, 0]),
   midi.NoteOnEvent(tick=0, channel=0, data=[67, 79]),
   midi.NoteOnEvent(tick=480, channel=0, data=[67, 0]),
   midi.NoteOnEvent(tick=480, channel=0, data=[79, 79]),
   midi.NoteOnEvent(tick=480, channel=0, data=[79, 0]),
   midi.NoteOnEvent(tick=0, channel=0, data=[81, 79]),
   midi.NoteOnEvent(tick=240, channel=0, data=[81, 0]),
   midi.NoteOnEvent(tick=0, channel=0, data=[83, 79]),
   midi.NoteOnEvent(tick=240, channel=0, data=[83, 0]),
   midi.NoteOnEvent(tick=0, channel=0, data=[83, 79]),
   midi.NoteOnEvent(tick=240, channel=0, data=[83, 0]),
   midi.NoteOnEvent(tick=0, channel=0, data=[81, 79]),
   midi.NoteOnEvent(tick=240, channel=0, data=[81, 0]),
   midi.NoteOnEvent(tick=0, channel=0, data=[79, 79]),
   midi.NoteOnEvent(tick=240, channel=0, data=[79, 0]),
   midi.NoteOnEvent(tick=0, channel=0, data=[78, 79]),
   midi.NoteOnEvent(tick=240, channel=0, data=[78, 0]),
   midi.NoteOnEvent(tick=0, channel=0, data=[78, 79]),
   midi.NoteOnEvent(tick=240, channel=0, data=[78, 0]),
   midi.NoteOnEvent(tick=0, channel=0, data=[76, 79]),
   midi.NoteOnEvent(tick=240, channel=0, data=[76, 0]),
   midi.NoteOnEvent(tick=0, channel=0, data=[74, 79]),
   midi.NoteOnEvent(tick=240, channel=0, data=[74, 0]),
   midi.NoteOnEvent(tick=0, channel=0, data=[73, 79]),
   midi.NoteOnEvent(tick=240, channel=0, data=[73, 0]),
   midi.NoteOnEvent(tick=0, channel=0, data=[76, 79]),
   midi.NoteOnEvent(tick=240, channel=0, data=[76, 0]),
   midi.NoteOnEvent(tick=0, channel=0, data=[74, 79]),
   midi.NoteOnEvent(tick=240, channel=0, data=[74, 0]),
   midi.NoteOnEvent(tick=0, channel=0, data=[78, 79]),
   midi.NoteOnEvent(tick=240, channel=0, data=[78, 0]),
   midi.NoteOnEvent(tick=0, channel=0, data=[76, 79]),
   midi.NoteOnEvent(tick=240, channel=0, data=[76, 0]),
   midi.NoteOnEvent(tick=0, channel=0, data=[79, 79]),
   midi.NoteOnEvent(tick=240, channel=0, data=[79, 0]),
   midi.NoteOnEvent(tick=0, channel=0, data=[78, 79]),
   midi.NoteOnEvent(tick=240, channel=0, data=[78, 0]),
   midi.NoteOnEvent(tick=0, channel=0, data=[81, 79]),
   midi.NoteOnEvent(tick=240, channel=0, data=[81, 0]),
   midi.NoteOnEvent(tick=0, channel=0, data=[79, 79]),
   midi.NoteOnEvent(tick=240, channel=0, data=[79, 0]),
   midi.NoteOnEvent(tick=0, channel=0, data=[83, 79]),
   midi.NoteOnEvent(tick=240, channel=0, data=[83, 0]),
   midi.NoteOnEvent(tick=0, channel=0, data=[81, 79]),
   midi.NoteOnEvent(tick=240, channel=0, data=[81, 0]),
   midi.NoteOnEvent(tick=0, channel=0, data=[79, 79]),
   midi.NoteOnEvent(tick=240, channel=0, data=[79, 0]),
   midi.NoteOnEvent(tick=0, channel=0, data=[78, 79]),
   midi.NoteOnEvent(tick=240, channel=0, data=[78, 0]),
   midi.NoteOnEvent(tick=0, channel=0, data=[78, 79]),
   midi.NoteOnEvent(tick=240, channel=0, data=[78, 0]),
   midi.NoteOnEvent(tick=0, channel=0, data=[76, 79]),
   midi.NoteOnEvent(tick=240, channel=0, data=[76, 0]),
   midi.NoteOnEvent(tick=0, channel=0, data=[79, 79]),
   midi.NoteOnEvent(tick=240, channel=0, data=[79, 0]),
   midi.NoteOnEvent(tick=0, channel=0, data=[83, 79]),
   midi.NoteOnEvent(tick=240, channel=0, data=[83, 0]),
   midi.NoteOnEvent(tick=0, channel=0, data=[74, 79]),
   midi.NoteOnEvent(tick=480, channel=0, data=[74, 0]),
   midi.NoteOnEvent(tick=0, channel=0, data=[73, 79]),
   midi.NoteOnEvent(tick=480, channel=0, data=[73, 0]),
   midi.NoteOnEvent(tick=0, channel=0, data=[79, 79]),
   midi.NoteOnEvent(tick=480, channel=0, data=[79, 0]),
   midi.NoteOnEvent(tick=0, channel=0, data=[81, 79]),
   midi.NoteOnEvent(tick=240, channel=0, data=[81, 0]),
   midi.NoteOnEvent(tick=0, channel=0, data=[83, 79]),
   midi.NoteOnEvent(tick=240, channel=0, data=[83, 0]),
   midi.NoteOnEvent(tick=0, channel=0, data=[83, 79]),
   midi.NoteOnEvent(tick=240, channel=0, data=[83, 0]),
   midi.NoteOnEvent(tick=0, channel=0, data=[81, 79]),
   midi.NoteOnEvent(tick=240, channel=0, data=[81, 0]),
   midi.NoteOnEvent(tick=0, channel=0, data=[79, 79]),
   midi.NoteOnEvent(tick=240, channel=0, data=[79, 0]),
   midi.NoteOnEvent(tick=0, channel=0, data=[78, 79]),
   midi.NoteOnEvent(tick=240, channel=0, data=[78, 0]),
   midi.NoteOnEvent(tick=0, channel=0, data=[78, 79]),
   midi.NoteOnEvent(tick=60, channel=0, data=[78, 0]),
   midi.NoteOnEvent(tick=0, channel=0, data=[76, 79]),
   midi.NoteOnEvent(tick=60, channel=0, data=[76, 0]),
   midi.NoteOnEvent(tick=0, channel=0, data=[76, 79]),
   midi.NoteOnEvent(tick=360, channel=0, data=[76, 0]),
   midi.NoteOnEvent(tick=0, channel=0, data=[74, 79]),
   midi.NoteOnEvent(tick=240, channel=0, data=[74, 0]),
   midi.NoteOnEvent(tick=0, channel=0, data=[73, 79]),
   midi.NoteOnEvent(tick=240, channel=0, data=[73, 0]),
   midi.NoteOnEvent(tick=0, channel=0, data=[76, 79]),
   midi.NoteOnEvent(tick=240, channel=0, data=[76, 0]),
   midi.NoteOnEvent(tick=0, channel=0, data=[74, 79]),
   midi.NoteOnEvent(tick=240, channel=0, data=[74, 0]),
   midi.NoteOnEvent(tick=0, channel=0, data=[78, 79]),
   midi.NoteOnEvent(tick=240, channel=0, data=[78, 0]),
   midi.NoteOnEvent(tick=0, channel=0, data=[76, 79]),
   midi.NoteOnEvent(tick=240, channel=0, data=[76, 0]),
   midi.NoteOnEvent(tick=0, channel=0, data=[79, 79]),
   midi.NoteOnEvent(tick=240, channel=0, data=[79, 0]),
   midi.NoteOnEvent(tick=0, channel=0, data=[78, 79]),
   midi.NoteOnEvent(tick=240, channel=0, data=[78, 0]),
   midi.NoteOnEvent(tick=0, channel=0, data=[81, 79]),
   midi.NoteOnEvent(tick=240, channel=0, data=[81, 0]),
   midi.NoteOnEvent(tick=0, channel=0, data=[79, 79]),
   midi.NoteOnEvent(tick=240, channel=0, data=[79, 0]),
   midi.NoteOnEvent(tick=0, channel=0, data=[83, 79]),
   midi.NoteOnEvent(tick=240, channel=0, data=[83, 0]),
   midi.NoteOnEvent(tick=0, channel=0, data=[81, 79]),
   midi.NoteOnEvent(tick=240, channel=0, data=[81, 0]),
   midi.NoteOnEvent(tick=0, channel=0, data=[79, 79]),
   midi.NoteOnEvent(tick=240, channel=0, data=[79, 0]),
   midi.NoteOnEvent(tick=0, channel=0, data=[78, 79]),
   midi.NoteOnEvent(tick=240, channel=0, data=[78, 0]),
   midi.NoteOnEvent(tick=0, channel=0, data=[78, 79]),
   midi.NoteOnEvent(tick=240, channel=0, data=[78, 0]),
   midi.NoteOnEvent(tick=0, channel=0, data=[76, 79]),
   midi.NoteOnEvent(tick=240, channel=0, data=[76, 0]),
   midi.NoteOnEvent(tick=0, channel=0, data=[74, 79]),
   midi.NoteOnEvent(tick=240, channel=0, data=[74, 0]),
   midi.NoteOnEvent(tick=0, channel=0, data=[73, 79]),
   midi.NoteOnEvent(tick=240, channel=0, data=[73, 0]),
   midi.NoteOnEvent(tick=0, channel=0, data=[74, 79]),
   midi.ControlChangeEvent(tick=959, channel=0, data=[7, 96]),
   midi.NoteOnEvent(tick=1, channel=0, data=[74, 0]),
   midi.NoteOnEvent(tick=0, channel=0, data=[62, 36]),
   midi.ControlChangeEvent(tick=0, channel=0, data=[7, 58]),
   midi.ControlChangeEvent(tick=48, channel=0, data=[7, 72]),
   midi.NoteOnEvent(tick=432, channel=0, data=[62, 0]),
   midi.NoteOnEvent(tick=0, channel=0, data=[62, 36]),
   midi.NoteOnEvent(tick=240, channel=0, data=[62, 0]),
   midi.NoteOnEvent(tick=0, channel=0, data=[62, 36]),
   midi.NoteOnEvent(tick=240, channel=0, data=[62, 0]),
   midi.NoteOnEvent(tick=0, channel=0, data=[65, 36]),
   midi.NoteOnEvent(tick=480, channel=0, data=[65, 0]),
   midi.NoteOnEvent(tick=0, channel=0, data=[64, 36]),
   midi.NoteOnEvent(tick=480, channel=0, data=[64, 0]),
   midi.NoteOnEvent(tick=0, channel=0, data=[64, 36]),
   midi.NoteOnEvent(tick=480, channel=0, data=[64, 0]),
   midi.NoteOnEvent(tick=0, channel=0, data=[64, 36]),
   midi.NoteOnEvent(tick=240, channel=0, data=[64, 0]),
   midi.NoteOnEvent(tick=0, channel=0, data=[64, 36]),
   midi.NoteOnEvent(tick=240, channel=0, data=[64, 0]),
   midi.NoteOnEvent(tick=0, channel=0, data=[64, 36]),
   midi.NoteOnEvent(tick=480, channel=0, data=[64, 0]),
   midi.NoteOnEvent(tick=0, channel=0, data=[57, 36]),
   midi.NoteOnEvent(tick=480, channel=0, data=[57, 0]),
   midi.NoteOnEvent(tick=0, channel=0, data=[60, 36]),
   midi.ControlChangeEvent(tick=24, channel=0, data=[7, 72]),
   midi.NoteOnEvent(tick=456, channel=0, data=[60, 0]),
   midi.NoteOnEvent(tick=0, channel=0, data=[60, 36]),
   midi.NoteOnEvent(tick=240, channel=0, data=[60, 0]),
   midi.NoteOnEvent(tick=0, channel=0, data=[60, 36]),
   midi.NoteOnEvent(tick=240, channel=0, data=[60, 0]),
   midi.NoteOnEvent(tick=0, channel=0, data=[63, 36]),
   midi.NoteOnEvent(tick=480, channel=0, data=[63, 0]),
   midi.NoteOnEvent(tick=0, channel=0, data=[62, 36]),
   midi.NoteOnEvent(tick=480, channel=0, data=[62, 0]),
   midi.NoteOnEvent(tick=0, channel=0, data=[62, 36]),
   midi.NoteOnEvent(tick=480, channel=0, data=[62, 0]),
   midi.NoteOnEvent(tick=0, channel=0, data=[62, 36]),
   midi.NoteOnEvent(tick=240, channel=0, data=[62, 0]),
   midi.NoteOnEvent(tick=0, channel=0, data=[62, 36]),
   midi.NoteOnEvent(tick=240, channel=0, data=[62, 0]),
   midi.NoteOnEvent(tick=0, channel=0, data=[62, 36]),
   midi.NoteOnEvent(tick=480, channel=0, data=[62, 0]),
   midi.NoteOnEvent(tick=0, channel=0, data=[55, 36]),
   midi.ControlChangeEvent(tick=479, channel=0, data=[7, 74]),
   midi.NoteOnEvent(tick=1, channel=0, data=[55, 0]),
   midi.NoteOnEvent(tick=0, channel=0, data=[83, 79]),
   midi.ControlChangeEvent(tick=48, channel=0, data=[7, 102]),
   midi.NoteOnEvent(tick=192, channel=0, data=[83, 0]),
   midi.NoteOnEvent(tick=0, channel=0, data=[81, 79]),
   midi.NoteOnEvent(tick=240, channel=0, data=[81, 0]),
   midi.NoteOnEvent(tick=0, channel=0, data=[79, 79]),
   midi.NoteOnEvent(tick=240, channel=0, data=[79, 0]),
   midi.NoteOnEvent(tick=0, channel=0, data=[78, 79]),
   midi.NoteOnEvent(tick=240, channel=0, data=[78, 0]),
   midi.NoteOnEvent(tick=0, channel=0, data=[79, 79]),
   midi.NoteOnEvent(tick=240, channel=0, data=[79, 0]),
   midi.NoteOnEvent(tick=0, channel=0, data=[78, 79]),
   midi.NoteOnEvent(tick=240, channel=0, data=[78, 0]),
   midi.NoteOnEvent(tick=0, channel=0, data=[76, 79]),
   midi.NoteOnEvent(tick=240, channel=0, data=[76, 0]),
   midi.NoteOnEvent(tick=0, channel=0, data=[74, 79]),
   midi.NoteOnEvent(tick=240, channel=0, data=[74, 0]),
   midi.NoteOnEvent(tick=0, channel=0, data=[76, 79]),
   midi.NoteOnEvent(tick=240, channel=0, data=[76, 0]),
   midi.NoteOnEvent(tick=0, channel=0, data=[74, 79]),
   midi.NoteOnEvent(tick=240, channel=0, data=[74, 0]),
   midi.NoteOnEvent(tick=0, channel=0, data=[72, 79]),
   midi.NoteOnEvent(tick=240, channel=0, data=[72, 0]),
   midi.NoteOnEvent(tick=0, channel=0, data=[71, 79]),
   midi.NoteOnEvent(tick=240, channel=0, data=[71, 0]),
   midi.NoteOnEvent(tick=0, channel=0, data=[72, 79]),
   midi.NoteOnEvent(tick=240, channel=0, data=[72, 0]),
   midi.NoteOnEvent(tick=0, channel=0, data=[71, 79]),
   midi.NoteOnEvent(tick=240, channel=0, data=[71, 0]),
   midi.NoteOnEvent(tick=0, channel=0, data=[69, 79]),
   midi.NoteOnEvent(tick=240, channel=0, data=[69, 0]),
   midi.NoteOnEvent(tick=0, channel=0, data=[67, 79]),
   midi.NoteOnEvent(tick=240, channel=0, data=[67, 0]),
   midi.NoteOnEvent(tick=0, channel=0, data=[69, 79]),
   midi.NoteOnEvent(tick=240, channel=0, data=[69, 0]),
   midi.NoteOnEvent(tick=0, channel=0, data=[67, 79]),
   midi.NoteOnEvent(tick=240, channel=0, data=[67, 0]),
   midi.NoteOnEvent(tick=0, channel=0, data=[66, 79]),
   midi.NoteOnEvent(tick=240, channel=0, data=[66, 0]),
   midi.NoteOnEvent(tick=0, channel=0, data=[64, 79]),
   midi.NoteOnEvent(tick=240, channel=0, data=[64, 0]),
   midi.NoteOnEvent(tick=0, channel=0, data=[62, 79]),
   midi.NoteOnEvent(tick=480, channel=0, data=[62, 0]),
   midi.NoteOnEvent(tick=0, channel=0, data=[72, 79]),
   midi.NoteOnEvent(tick=960, channel=0, data=[72, 0]),
   midi.NoteOnEvent(tick=0, channel=0, data=[72, 79]),
   midi.NoteOnEvent(tick=60, channel=0, data=[72, 0]),
   midi.NoteOnEvent(tick=0, channel=0, data=[71, 79]),
   midi.NoteOnEvent(tick=60, channel=0, data=[71, 0]),
   midi.NoteOnEvent(tick=0, channel=0, data=[72, 79]),
   midi.NoteOnEvent(tick=60, channel=0, data=[72, 0]),
   midi.NoteOnEvent(tick=0, channel=0, data=[71, 79]),
   midi.NoteOnEvent(tick=60, channel=0, data=[71, 0]),
   midi.NoteOnEvent(tick=0, channel=0, data=[72, 79]),
   midi.NoteOnEvent(tick=60, channel=0, data=[72, 0]),
   midi.NoteOnEvent(tick=0, channel=0, data=[71, 79]),
   midi.NoteOnEvent(tick=60, channel=0, data=[71, 0]),
   midi.NoteOnEvent(tick=0, channel=0, data=[72, 79]),
   midi.NoteOnEvent(tick=60, channel=0, data=[72, 0]),
   midi.NoteOnEvent(tick=0, channel=0, data=[71, 79]),
   midi.NoteOnEvent(tick=60, channel=0, data=[71, 0]),
   midi.NoteOnEvent(tick=0, channel=0, data=[69, 79]),
   midi.NoteOnEvent(tick=480, channel=0, data=[69, 0]),
   midi.ControlChangeEvent(tick=479, channel=0, data=[7, 102]),
   midi.NoteOnEvent(tick=1, channel=0, data=[74, 36]),
   midi.ControlChangeEvent(tick=240, channel=0, data=[7, 46]),
   midi.ControlChangeEvent(tick=48, channel=0, data=[7, 58]),
   midi.NoteOnEvent(tick=192, channel=0, data=[74, 0]),
   midi.NoteOnEvent(tick=0, channel=0, data=[74, 36]),
   midi.NoteOnEvent(tick=480, channel=0, data=[74, 0]),
   midi.NoteOnEvent(tick=0, channel=0, data=[76, 36]),
   midi.NoteOnEvent(tick=240, channel=0, data=[76, 0]),
   midi.NoteOnEvent(tick=0, channel=0, data=[74, 36]),
   midi.NoteOnEvent(tick=240, channel=0, data=[74, 0]),
   midi.NoteOnEvent(tick=0, channel=0, data=[72, 36]),
   midi.NoteOnEvent(tick=240, channel=0, data=[72, 0]),
   midi.NoteOnEvent(tick=0, channel=0, data=[71, 36]),
   midi.NoteOnEvent(tick=240, channel=0, data=[71, 0]),
   midi.NoteOnEvent(tick=0, channel=0, data=[76, 36]),
   midi.NoteOnEvent(tick=480, channel=0, data=[76, 0]),
   midi.NoteOnEvent(tick=0, channel=0, data=[76, 36]),
   midi.NoteOnEvent(tick=480, channel=0, data=[76, 0]),
   midi.NoteOnEvent(tick=0, channel=0, data=[76, 36]),
   midi.NoteOnEvent(tick=960, channel=0, data=[76, 0]),
   midi.NoteOnEvent(tick=0, channel=0, data=[72, 36]),
   midi.NoteOnEvent(tick=480, channel=0, data=[72, 0]),
   midi.NoteOnEvent(tick=0, channel=0, data=[72, 36]),
   midi.NoteOnEvent(tick=480, channel=0, data=[72, 0]),
   midi.NoteOnEvent(tick=0, channel=0, data=[74, 36]),
   midi.NoteOnEvent(tick=240, channel=0, data=[74, 0]),
   midi.NoteOnEvent(tick=0, channel=0, data=[72, 36]),
   midi.NoteOnEvent(tick=240, channel=0, data=[72, 0]),
   midi.NoteOnEvent(tick=0, channel=0, data=[71, 36]),
   midi.NoteOnEvent(tick=240, channel=0, data=[71, 0]),
   midi.NoteOnEvent(tick=0, channel=0, data=[69, 36]),
   midi.NoteOnEvent(tick=240, channel=0, data=[69, 0]),
   midi.NoteOnEvent(tick=0, channel=0, data=[69, 36]),
   midi.NoteOnEvent(tick=480, channel=0, data=[69, 0]),
   midi.NoteOnEvent(tick=0, channel=0, data=[69, 36]),
   midi.ControlChangeEvent(tick=228, channel=0, data=[7, 58]),
   midi.NoteOnEvent(tick=252, channel=0, data=[69, 0]),
   midi.NoteOnEvent(tick=0, channel=0, data=[71, 36]),
   midi.NoteOnEvent(tick=240, channel=0, data=[71, 0]),
   midi.NoteOnEvent(tick=0, channel=0, data=[69, 36]),
   midi.NoteOnEvent(tick=240, channel=0, data=[69, 0]),
   midi.NoteOnEvent(tick=0, channel=0, data=[67, 36]),
   midi.NoteOnEvent(tick=240, channel=0, data=[67, 0]),
   midi.NoteOnEvent(tick=0, channel=0, data=[66, 36]),
   midi.NoteOnEvent(tick=240, channel=0, data=[66, 0]),
   midi.NoteOnEvent(tick=0, channel=0, data=[74, 79]),
   midi.NoteOnEvent(tick=480, channel=0, data=[74, 0]),
   midi.NoteOnEvent(tick=0, channel=0, data=[74, 79]),
   midi.NoteOnEvent(tick=480, channel=0, data=[74, 0]),
   midi.NoteOnEvent(tick=0, channel=0, data=[76, 79]),
   midi.NoteOnEvent(tick=240, channel=0, data=[76, 0]),
   midi.NoteOnEvent(tick=0, channel=0, data=[74, 79]),
   midi.NoteOnEvent(tick=240, channel=0, data=[74, 0]),
   midi.NoteOnEvent(tick=0, channel=0, data=[72, 79]),
   midi.NoteOnEvent(tick=240, channel=0, data=[72, 0]),
   midi.NoteOnEvent(tick=0, channel=0, data=[71, 79]),
   midi.NoteOnEvent(tick=240, channel=0, data=[71, 0]),
   midi.NoteOnEvent(tick=0, channel=0, data=[76, 79]),
   midi.NoteOnEvent(tick=240, channel=0, data=[76, 0]),
   midi.NoteOnEvent(tick=0, channel=0, data=[74, 79]),
   midi.NoteOnEvent(tick=240, channel=0, data=[74, 0]),
   midi.NoteOnEvent(tick=0, channel=0, data=[76, 79]),
   midi.NoteOnEvent(tick=240, channel=0, data=[76, 0]),
   midi.NoteOnEvent(tick=0, channel=0, data=[78, 79]),
   midi.NoteOnEvent(tick=240, channel=0, data=[78, 0]),
   midi.NoteOnEvent(tick=0, channel=0, data=[79, 79]),
   midi.NoteOnEvent(tick=240, channel=0, data=[79, 0]),
   midi.NoteOnEvent(tick=0, channel=0, data=[78, 79]),
   midi.NoteOnEvent(tick=240, channel=0, data=[78, 0]),
   midi.NoteOnEvent(tick=0, channel=0, data=[79, 79]),
   midi.NoteOnEvent(tick=240, channel=0, data=[79, 0]),
   midi.NoteOnEvent(tick=0, channel=0, data=[81, 79]),
   midi.NoteOnEvent(tick=240, channel=0, data=[81, 0]),
   midi.NoteOnEvent(tick=0, channel=0, data=[83, 79]),
   midi.NoteOnEvent(tick=240, channel=0, data=[83, 0]),
   midi.NoteOnEvent(tick=0, channel=0, data=[81, 79]),
   midi.NoteOnEvent(tick=240, channel=0, data=[81, 0]),
   midi.NoteOnEvent(tick=0, channel=0, data=[83, 79]),
   midi.NoteOnEvent(tick=240, channel=0, data=[83, 0]),
   midi.NoteOnEvent(tick=0, channel=0, data=[84, 79]),
   midi.NoteOnEvent(tick=240, channel=0, data=[84, 0]),
   midi.NoteOnEvent(tick=0, channel=0, data=[86, 79]),
   midi.ControlChangeEvent(tick=168, channel=0, data=[7, 59]),
   midi.NoteOnEvent(tick=312, channel=0, data=[86, 0]),
   midi.NoteOnEvent(tick=480, channel=0, data=[71, 79]),
   midi.NoteOnEvent(tick=60, channel=0, data=[71, 0]),
   midi.NoteOnEvent(tick=0, channel=0, data=[69, 79]),
   midi.NoteOnEvent(tick=60, channel=0, data=[69, 0]),
   midi.NoteOnEvent(tick=0, channel=0, data=[71, 79]),
   midi.NoteOnEvent(tick=60, channel=0, data=[71, 0]),
   midi.NoteOnEvent(tick=0, channel=0, data=[69, 79]),
   midi.NoteOnEvent(tick=60, channel=0, data=[69, 0]),
   midi.NoteOnEvent(tick=0, channel=0, data=[71, 79]),
   midi.NoteOnEvent(tick=60, channel=0, data=[71, 0]),
   midi.NoteOnEvent(tick=0, channel=0, data=[69, 79]),
   midi.NoteOnEvent(tick=60, channel=0, data=[69, 0]),
   midi.NoteOnEvent(tick=0, channel=0, data=[71, 79]),
   midi.NoteOnEvent(tick=60, channel=0, data=[71, 0]),
   midi.NoteOnEvent(tick=0, channel=0, data=[69, 79]),
   midi.NoteOnEvent(tick=60, channel=0, data=[69, 0]),
   midi.NoteOnEvent(tick=0, channel=0, data=[71, 79]),
   midi.NoteOnEvent(tick=60, channel=0, data=[71, 0]),
   midi.NoteOnEvent(tick=0, channel=0, data=[69, 79]),
   midi.NoteOnEvent(tick=60, channel=0, data=[69, 0]),
   midi.NoteOnEvent(tick=0, channel=0, data=[71, 79]),
   midi.NoteOnEvent(tick=60, channel=0, data=[71, 0]),
   midi.NoteOnEvent(tick=0, channel=0, data=[69, 79]),
   midi.NoteOnEvent(tick=60, channel=0, data=[69, 0]),
   midi.NoteOnEvent(tick=0, channel=0, data=[71, 79]),
   midi.NoteOnEvent(tick=60, channel=0, data=[71, 0]),
   midi.NoteOnEvent(tick=0, channel=0, data=[69, 79]),
   midi.NoteOnEvent(tick=60, channel=0, data=[69, 0]),
   midi.NoteOnEvent(tick=0, channel=0, data=[71, 79]),
   midi.NoteOnEvent(tick=60, channel=0, data=[71, 0]),
   midi.NoteOnEvent(tick=0, channel=0, data=[69, 79]),
   midi.NoteOnEvent(tick=60, channel=0, data=[69, 0]),
   midi.NoteOnEvent(tick=0, channel=0, data=[67, 79]),
   midi.NoteOnEvent(tick=480, channel=0, data=[67, 0]),
   midi.NoteOnEvent(tick=1440, channel=0, data=[74, 79]),
   midi.NoteOnEvent(tick=480, channel=0, data=[74, 0]),
   midi.NoteOnEvent(tick=0, channel=0, data=[74, 79]),
   midi.NoteOnEvent(tick=480, channel=0, data=[74, 0]),
   midi.NoteOnEvent(tick=0, channel=0, data=[76, 79]),
   midi.NoteOnEvent(tick=240, channel=0, data=[76, 0]),
   midi.NoteOnEvent(tick=0, channel=0, data=[74, 79]),
   midi.NoteOnEvent(tick=240, channel=0, data=[74, 0]),
   midi.NoteOnEvent(tick=0, channel=0, data=[72, 79]),
   midi.NoteOnEvent(tick=240, channel=0, data=[72, 0]),
   midi.NoteOnEvent(tick=0, channel=0, data=[71, 79]),
   midi.NoteOnEvent(tick=240, channel=0, data=[71, 0]),
   midi.NoteOnEvent(tick=0, channel=0, data=[76, 79]),
   midi.NoteOnEvent(tick=480, channel=0, data=[76, 0]),
   midi.NoteOnEvent(tick=0, channel=0, data=[76, 79]),
   midi.ControlChangeEvent(tick=108, channel=0, data=[7, 60]),
   midi.NoteOnEvent(tick=372, channel=0, data=[76, 0]),
   midi.NoteOnEvent(tick=0, channel=0, data=[76, 79]),
   midi.NoteOnEvent(tick=960, channel=0, data=[76, 0]),
   midi.NoteOnEvent(tick=0, channel=0, data=[72, 79]),
   midi.NoteOnEvent(tick=480, channel=0, data=[72, 0]),
   midi.NoteOnEvent(tick=0, channel=0, data=[72, 79]),
   midi.NoteOnEvent(tick=480, channel=0, data=[72, 0]),
   midi.NoteOnEvent(tick=0, channel=0, data=[74, 79]),
   midi.NoteOnEvent(tick=240, channel=0, data=[74, 0]),
   midi.NoteOnEvent(tick=0, channel=0, data=[72, 79]),
   midi.NoteOnEvent(tick=240, channel=0, data=[72, 0]),
   midi.NoteOnEvent(tick=0, channel=0, data=[71, 79]),
   midi.NoteOnEvent(tick=240, channel=0, data=[71, 0]),
   midi.NoteOnEvent(tick=0, channel=0, data=[69, 79]),
   midi.NoteOnEvent(tick=240, channel=0, data=[69, 0]),
   midi.NoteOnEvent(tick=0, channel=0, data=[69, 79]),
   midi.NoteOnEvent(tick=480, channel=0, data=[69, 0]),
   midi.NoteOnEvent(tick=0, channel=0, data=[69, 79]),
   midi.NoteOnEvent(tick=480, channel=0, data=[69, 0]),
   midi.NoteOnEvent(tick=0, channel=0, data=[71, 79]),
   midi.NoteOnEvent(tick=240, channel=0, data=[71, 0]),
   midi.NoteOnEvent(tick=0, channel=0, data=[69, 79]),
   midi.NoteOnEvent(tick=240, channel=0, data=[69, 0]),
   midi.NoteOnEvent(tick=0, channel=0, data=[67, 79]),
   midi.NoteOnEvent(tick=240, channel=0, data=[67, 0]),
   midi.NoteOnEvent(tick=0, channel=0, data=[66, 79]),
   midi.NoteOnEvent(tick=240, channel=0, data=[66, 0]),
   midi.NoteOnEvent(tick=0, channel=0, data=[74, 79]),
   midi.NoteOnEvent(tick=480, channel=0, data=[74, 0]),
   midi.NoteOnEvent(tick=0, channel=0, data=[74, 79]),
   midi.NoteOnEvent(tick=480, channel=0, data=[74, 0]),
   midi.NoteOnEvent(tick=0, channel=0, data=[76, 79]),
   midi.ControlChangeEvent(tick=47, channel=0, data=[7, 62]),
   midi.ControlChangeEvent(tick=49, channel=0, data=[7, 96]),
   midi.NoteOnEvent(tick=144, channel=0, data=[76, 0]),
   midi.NoteOnEvent(tick=0, channel=0, data=[74, 79]),
   midi.NoteOnEvent(tick=240, channel=0, data=[74, 0]),
   midi.NoteOnEvent(tick=0, channel=0, data=[72, 79]),
   midi.NoteOnEvent(tick=240, channel=0, data=[72, 0]),
   midi.NoteOnEvent(tick=0, channel=0, data=[71, 79]),
   midi.NoteOnEvent(tick=240, channel=0, data=[71, 0]),
   midi.NoteOnEvent(tick=0, channel=0, data=[76, 79]),
   midi.NoteOnEvent(tick=240, channel=0, data=[76, 0]),
   midi.NoteOnEvent(tick=0, channel=0, data=[74, 79]),
   midi.NoteOnEvent(tick=240, channel=0, data=[74, 0]),
   midi.NoteOnEvent(tick=0, channel=0, data=[76, 79]),
   midi.NoteOnEvent(tick=240, channel=0, data=[76, 0]),
   midi.NoteOnEvent(tick=0, channel=0, data=[78, 79]),
   midi.NoteOnEvent(tick=240, channel=0, data=[78, 0]),
   midi.NoteOnEvent(tick=0, channel=0, data=[79, 79]),
   midi.NoteOnEvent(tick=240, channel=0, data=[79, 0]),
   midi.NoteOnEvent(tick=0, channel=0, data=[78, 79]),
   midi.ControlChangeEvent(tick=56, channel=0, data=[7, 96]),
   midi.NoteOnEvent(tick=184, channel=0, data=[78, 0]),
   midi.NoteOnEvent(tick=0, channel=0, data=[79, 79]),
   midi.NoteOnEvent(tick=240, channel=0, data=[79, 0]),
   midi.NoteOnEvent(tick=0, channel=0, data=[81, 79]),
   midi.NoteOnEvent(tick=240, channel=0, data=[81, 0]),
   midi.NoteOnEvent(tick=0, channel=0, data=[83, 79]),
   midi.NoteOnEvent(tick=240, channel=0, data=[83, 0]),
   midi.NoteOnEvent(tick=0, channel=0, data=[81, 79]),
   midi.NoteOnEvent(tick=240, channel=0, data=[81, 0]),
   midi.NoteOnEvent(tick=0, channel=0, data=[83, 79]),
   midi.NoteOnEvent(tick=240, channel=0, data=[83, 0]),
   midi.NoteOnEvent(tick=0, channel=0, data=[84, 79]),
   midi.NoteOnEvent(tick=240, channel=0, data=[84, 0]),
   midi.NoteOnEvent(tick=0, channel=0, data=[86, 79]),
   midi.NoteOnEvent(tick=480, channel=0, data=[86, 0]),
   midi.ControlChangeEvent(tick=16, channel=0, data=[7, 97]),
   midi.ControlChangeEvent(tick=2120, channel=0, data=[7, 98]),
   midi.ControlChangeEvent(tick=2120, channel=0, data=[7, 99]),
   midi.NoteOnEvent(tick=64, channel=0, data=[76, 79]),
   midi.NoteOnEvent(tick=240, channel=0, data=[76, 0]),
   midi.NoteOnEvent(tick=0, channel=0, data=[74, 79]),
   midi.NoteOnEvent(tick=240, channel=0, data=[74, 0]),
   midi.NoteOnEvent(tick=0, channel=0, data=[76, 79]),
   midi.NoteOnEvent(tick=240, channel=0, data=[76, 0]),
   midi.NoteOnEvent(tick=0, channel=0, data=[78, 79]),
   midi.NoteOnEvent(tick=240, channel=0, data=[78, 0]),
   midi.NoteOnEvent(tick=0, channel=0, data=[79, 79]),
   midi.NoteOnEvent(tick=240, channel=0, data=[79, 0]),
   midi.NoteOnEvent(tick=0, channel=0, data=[78, 79]),
   midi.NoteOnEvent(tick=240, channel=0, data=[78, 0]),
   midi.NoteOnEvent(tick=0, channel=0, data=[79, 79]),
   midi.NoteOnEvent(tick=240, channel=0, data=[79, 0]),
   midi.NoteOnEvent(tick=0, channel=0, data=[81, 79]),
   midi.NoteOnEvent(tick=240, channel=0, data=[81, 0]),
   midi.NoteOnEvent(tick=0, channel=0, data=[83, 79]),
   midi.ControlChangeEvent(tick=136, channel=0, data=[7, 100]),
   midi.NoteOnEvent(tick=104, channel=0, data=[83, 0]),
   midi.NoteOnEvent(tick=0, channel=0, data=[81, 79]),
   midi.NoteOnEvent(tick=240, channel=0, data=[81, 0]),
   midi.NoteOnEvent(tick=0, channel=0, data=[83, 79]),
   midi.NoteOnEvent(tick=240, channel=0, data=[83, 0]),
   midi.NoteOnEvent(tick=0, channel=0, data=[84, 79]),
   midi.NoteOnEvent(tick=240, channel=0, data=[84, 0]),
   midi.NoteOnEvent(tick=0, channel=0, data=[86, 79]),
   midi.NoteOnEvent(tick=480, channel=0, data=[86, 0]),
   midi.ControlChangeEvent(tick=815, channel=0, data=[7, 102]),
   midi.ControlChangeEvent(tick=577, channel=0, data=[7, 48]),
   midi.ControlChangeEvent(tick=3, channel=0, data=[7, 82]),
   midi.NoteOnEvent(tick=45, channel=0, data=[71, 36]),
   midi.ControlChangeEvent(tick=111, channel=0, data=[7, 81]),
   midi.NoteOnEvent(tick=9, channel=0, data=[71, 0]),
   midi.NoteOnEvent(tick=0, channel=0, data=[69, 36]),
   midi.NoteOnEvent(tick=120, channel=0, data=[69, 0]),
   midi.NoteOnEvent(tick=0, channel=0, data=[71, 36]),
   midi.ControlChangeEvent(tick=28, channel=0, data=[7, 80]),
   midi.NoteOnEvent(tick=92, channel=0, data=[71, 0]),
   midi.NoteOnEvent(tick=0, channel=0, data=[69, 36]),
   midi.ControlChangeEvent(tick=64, channel=0, data=[7, 79]),
   midi.NoteOnEvent(tick=56, channel=0, data=[69, 0]),
   midi.NoteOnEvent(tick=0, channel=0, data=[71, 36]),
   midi.ControlChangeEvent(tick=101, channel=0, data=[7, 78]),
   midi.NoteOnEvent(tick=19, channel=0, data=[71, 0]),
   midi.NoteOnEvent(tick=0, channel=0, data=[69, 36]),
   midi.NoteOnEvent(tick=120, channel=0, data=[69, 0]),
   midi.NoteOnEvent(tick=0, channel=0, data=[71, 36]),
   midi.ControlChangeEvent(tick=17, channel=0, data=[7, 77]),
   midi.NoteOnEvent(tick=103, channel=0, data=[71, 0]),
   midi.NoteOnEvent(tick=0, channel=0, data=[69, 36]),
   midi.ControlChangeEvent(tick=54, channel=0, data=[7, 76]),
   midi.NoteOnEvent(tick=66, channel=0, data=[69, 0]),
   midi.NoteOnEvent(tick=0, channel=0, data=[71, 36]),
   midi.ControlChangeEvent(tick=90, channel=0, data=[7, 75]),
   midi.NoteOnEvent(tick=30, channel=0, data=[71, 0]),
   midi.NoteOnEvent(tick=0, channel=0, data=[69, 36]),
   midi.NoteOnEvent(tick=120, channel=0, data=[69, 0]),
   midi.NoteOnEvent(tick=0, channel=0, data=[71, 36]),
   midi.ControlChangeEvent(tick=7, channel=0, data=[7, 74]),
   midi.NoteOnEvent(tick=113, channel=0, data=[71, 0]),
   midi.NoteOnEvent(tick=0, channel=0, data=[69, 36]),
   midi.ControlChangeEvent(tick=44, channel=0, data=[7, 73]),
   midi.NoteOnEvent(tick=76, channel=0, data=[69, 0]),
   midi.NoteOnEvent(tick=0, channel=0, data=[71, 36]),
   midi.ControlChangeEvent(tick=80, channel=0, data=[7, 72]),
   midi.NoteOnEvent(tick=40, channel=0, data=[71, 0]),
   midi.NoteOnEvent(tick=0, channel=0, data=[69, 36]),
   midi.ControlChangeEvent(tick=117, channel=0, data=[7, 71]),
   midi.NoteOnEvent(tick=3, channel=0, data=[69, 0]),
   midi.NoteOnEvent(tick=0, channel=0, data=[71, 36]),
   midi.NoteOnEvent(tick=120, channel=0, data=[71, 0]),
   midi.NoteOnEvent(tick=0, channel=0, data=[69, 36]),
   midi.ControlChangeEvent(tick=33, channel=0, data=[7, 70]),
   midi.NoteOnEvent(tick=87, channel=0, data=[69, 0]),
   midi.NoteOnEvent(tick=0, channel=0, data=[67, 36]),
   midi.ControlChangeEvent(tick=70, channel=0, data=[7, 69]),
   midi.ControlChangeEvent(tick=156, channel=0, data=[7, 68]),
   midi.ControlChangeEvent(tick=157, channel=0, data=[7, 67]),
   midi.NoteOnEvent(tick=97, channel=0, data=[67, 0]),
   midi.ControlChangeEvent(tick=59, channel=0, data=[7, 66]),
   midi.ControlChangeEvent(tick=852, channel=0, data=[7, 48]),
   midi.EndOfTrackEvent(tick=0, data=[])]),
 midi.Track(\
  [midi.PortEvent(tick=0, data=[0]),
   midi.TrackNameEvent(tick=0, text='Violino II', data=[86, 105, 111, 108, 105, 110, 111, 32, 73, 73]),
   midi.ProgramChangeEvent(tick=0, channel=1, data=[40]),
   midi.ControlChangeEvent(tick=0, channel=1, data=[7, 95]),
   midi.ControlChangeEvent(tick=0, channel=1, data=[10, 54]),
   midi.ControlChangeEvent(tick=48, channel=1, data=[7, 64]),
   midi.NoteOnEvent(tick=2832, channel=1, data=[86, 36]),
   midi.NoteOnEvent(tick=1440, channel=1, data=[86, 0]),
   midi.NoteOnEvent(tick=0, channel=1, data=[86, 36]),
   midi.NoteOnEvent(tick=720, channel=1, data=[86, 0]),
   midi.NoteOnEvent(tick=0, channel=1, data=[74, 36]),
   midi.NoteOnEvent(tick=120, channel=1, data=[74, 0]),
   midi.NoteOnEvent(tick=0, channel=1, data=[79, 36]),
   midi.NoteOnEvent(tick=120, channel=1, data=[79, 0]),
   midi.NoteOnEvent(tick=0, channel=1, data=[79, 36]),
   midi.NoteOnEvent(tick=120, channel=1, data=[79, 0]),
   midi.NoteOnEvent(tick=0, channel=1, data=[83, 36]),
   midi.NoteOnEvent(tick=120, channel=1, data=[83, 0]),
   midi.NoteOnEvent(tick=0, channel=1, data=[84, 36]),
   midi.NoteOnEvent(tick=120, channel=1, data=[84, 0]),
   midi.NoteOnEvent(tick=0, channel=1, data=[86, 36]),
   midi.NoteOnEvent(tick=120, channel=1, data=[86, 0]),
   midi.NoteOnEvent(tick=0, channel=1, data=[88, 36]),
   midi.NoteOnEvent(tick=240, channel=1, data=[88, 0]),
   midi.NoteOnEvent(tick=0, channel=1, data=[76, 36]),
   midi.NoteOnEvent(tick=480, channel=1, data=[76, 0]),
   midi.NoteOnEvent(tick=0, channel=1, data=[79, 36]),
   midi.NoteOnEvent(tick=120, channel=1, data=[79, 0]),
   midi.NoteOnEvent(tick=0, channel=1, data=[78, 36]),
   midi.NoteOnEvent(tick=120, channel=1, data=[78, 0]),
   midi.NoteOnEvent(tick=0, channel=1, data=[81, 36]),
   midi.NoteOnEvent(tick=120, channel=1, data=[81, 0]),
   midi.NoteOnEvent(tick=0, channel=1, data=[79, 36]),
   midi.NoteOnEvent(tick=120, channel=1, data=[79, 0]),
   midi.NoteOnEvent(tick=0, channel=1, data=[78, 36]),
   midi.NoteOnEvent(tick=120, channel=1, data=[78, 0]),
   midi.NoteOnEvent(tick=0, channel=1, data=[76, 36]),
   midi.NoteOnEvent(tick=120, channel=1, data=[76, 0]),
   midi.NoteOnEvent(tick=0, channel=1, data=[74, 36]),
   midi.NoteOnEvent(tick=120, channel=1, data=[74, 0]),
   midi.NoteOnEvent(tick=0, channel=1, data=[71, 36]),
   midi.NoteOnEvent(tick=120, channel=1, data=[71, 0]),
   midi.NoteOnEvent(tick=0, channel=1, data=[72, 36]),
   midi.NoteOnEvent(tick=120, channel=1, data=[72, 0]),
   midi.NoteOnEvent(tick=0, channel=1, data=[74, 36]),
   midi.NoteOnEvent(tick=120, channel=1, data=[74, 0]),
   midi.NoteOnEvent(tick=0, channel=1, data=[76, 36]),
   midi.NoteOnEvent(tick=120, channel=1, data=[76, 0]),
   midi.NoteOnEvent(tick=0, channel=1, data=[78, 36]),
   midi.NoteOnEvent(tick=120, channel=1, data=[78, 0]),
   midi.NoteOnEvent(tick=0, channel=1, data=[79, 36]),
   midi.NoteOnEvent(tick=120, channel=1, data=[79, 0]),
   midi.NoteOnEvent(tick=0, channel=1, data=[81, 36]),
   midi.NoteOnEvent(tick=120, channel=1, data=[81, 0]),
   midi.NoteOnEvent(tick=0, channel=1, data=[83, 36]),
   midi.NoteOnEvent(tick=480, channel=1, data=[83, 0]),
   midi.NoteOnEvent(tick=0, channel=1, data=[83, 36]),
   midi.NoteOnEvent(tick=240, channel=1, data=[83, 0]),
   midi.NoteOnEvent(tick=0, channel=1, data=[84, 36]),
   midi.NoteOnEvent(tick=120, channel=1, data=[84, 0]),
   midi.NoteOnEvent(tick=0, channel=1, data=[83, 36]),
   midi.NoteOnEvent(tick=120, channel=1, data=[83, 0]),
   midi.NoteOnEvent(tick=0, channel=1, data=[81, 36]),
   midi.NoteOnEvent(tick=480, channel=1, data=[81, 0]),
   midi.NoteOnEvent(tick=0, channel=1, data=[79, 36]),
   midi.NoteOnEvent(tick=480, channel=1, data=[79, 0]),
   midi.NoteOnEvent(tick=0, channel=1, data=[81, 36]),
   midi.NoteOnEvent(tick=20, channel=1, data=[81, 0]),
   midi.NoteOnEvent(tick=0, channel=1, data=[79, 36]),
   midi.NoteOnEvent(tick=40, channel=1, data=[79, 0]),
   midi.NoteOnEvent(tick=0, channel=1, data=[81, 36]),
   midi.NoteOnEvent(tick=20, channel=1, data=[81, 0]),
   midi.NoteOnEvent(tick=0, channel=1, data=[79, 36]),
   midi.NoteOnEvent(tick=40, channel=1, data=[79, 0]),
   midi.NoteOnEvent(tick=0, channel=1, data=[81, 36]),
   midi.NoteOnEvent(tick=20, channel=1, data=[81, 0]),
   midi.NoteOnEvent(tick=0, channel=1, data=[79, 36]),
   midi.NoteOnEvent(tick=40, channel=1, data=[79, 0]),
   midi.NoteOnEvent(tick=0, channel=1, data=[81, 36]),
   midi.NoteOnEvent(tick=20, channel=1, data=[81, 0]),
   midi.NoteOnEvent(tick=0, channel=1, data=[79, 36]),
   midi.NoteOnEvent(tick=40, channel=1, data=[79, 0]),
   midi.NoteOnEvent(tick=0, channel=1, data=[81, 36]),
   midi.NoteOnEvent(tick=20, channel=1, data=[81, 0]),
   midi.NoteOnEvent(tick=0, channel=1, data=[79, 36]),
   midi.NoteOnEvent(tick=40, channel=1, data=[79, 0]),
   midi.NoteOnEvent(tick=0, channel=1, data=[81, 36]),
   midi.NoteOnEvent(tick=20, channel=1, data=[81, 0]),
   midi.NoteOnEvent(tick=0, channel=1, data=[79, 36]),
   midi.NoteOnEvent(tick=40, channel=1, data=[79, 0]),
   midi.NoteOnEvent(tick=0, channel=1, data=[81, 36]),
   midi.NoteOnEvent(tick=20, channel=1, data=[81, 0]),
   midi.NoteOnEvent(tick=0, channel=1, data=[79, 36]),
   midi.NoteOnEvent(tick=40, channel=1, data=[79, 0]),
   midi.NoteOnEvent(tick=0, channel=1, data=[81, 36]),
   midi.NoteOnEvent(tick=20, channel=1, data=[81, 0]),
   midi.NoteOnEvent(tick=0, channel=1, data=[79, 36]),
   midi.NoteOnEvent(tick=40, channel=1, data=[79, 0]),
   midi.NoteOnEvent(tick=0, channel=1, data=[78, 36]),
   midi.NoteOnEvent(tick=480, channel=1, data=[78, 0]),
   midi.NoteOnEvent(tick=3360, channel=1, data=[86, 36]),
   midi.NoteOnEvent(tick=1440, channel=1, data=[86, 0]),
   midi.NoteOnEvent(tick=0, channel=1, data=[86, 36]),
   midi.ControlChangeEvent(tick=1232, channel=1, data=[7, 63]),
   midi.NoteOnEvent(tick=208, channel=1, data=[86, 0]),
   midi.NoteOnEvent(tick=0, channel=1, data=[86, 36]),
   midi.NoteOnEvent(tick=80, channel=1, data=[86, 0]),
   midi.NoteOnEvent(tick=0, channel=1, data=[83, 36]),
   midi.NoteOnEvent(tick=80, channel=1, data=[83, 0]),
   midi.NoteOnEvent(tick=0, channel=1, data=[81, 36]),
   midi.NoteOnEvent(tick=80, channel=1, data=[81, 0]),
   midi.NoteOnEvent(tick=0, channel=1, data=[80, 36]),
   midi.NoteOnEvent(tick=80, channel=1, data=[80, 0]),
   midi.NoteOnEvent(tick=0, channel=1, data=[78, 36]),
   midi.NoteOnEvent(tick=80, channel=1, data=[78, 0]),
   midi.NoteOnEvent(tick=0, channel=1, data=[76, 36]),
   midi.NoteOnEvent(tick=80, channel=1, data=[76, 0]),
   midi.NoteOnEvent(tick=0, channel=1, data=[74, 36]),
   midi.NoteOnEvent(tick=80, channel=1, data=[74, 0]),
   midi.NoteOnEvent(tick=0, channel=1, data=[71, 36]),
   midi.NoteOnEvent(tick=80, channel=1, data=[71, 0]),
   midi.NoteOnEvent(tick=0, channel=1, data=[69, 36]),
   midi.NoteOnEvent(tick=80, channel=1, data=[69, 0]),
   midi.NoteOnEvent(tick=0, channel=1, data=[68, 36]),
   midi.NoteOnEvent(tick=80, channel=1, data=[68, 0]),
   midi.NoteOnEvent(tick=0, channel=1, data=[66, 36]),
   midi.NoteOnEvent(tick=80, channel=1, data=[66, 0]),
   midi.NoteOnEvent(tick=0, channel=1, data=[64, 36]),
   midi.NoteOnEvent(tick=80, channel=1, data=[64, 0]),
   midi.NoteOnEvent(tick=0, channel=1, data=[74, 36]),
   midi.NoteOnEvent(tick=120, channel=1, data=[74, 0]),
   midi.NoteOnEvent(tick=0, channel=1, data=[71, 36]),
   midi.NoteOnEvent(tick=120, channel=1, data=[71, 0]),
   midi.NoteOnEvent(tick=0, channel=1, data=[83, 36]),
   midi.NoteOnEvent(tick=120, channel=1, data=[83, 0]),
   midi.NoteOnEvent(tick=0, channel=1, data=[74, 36]),
   midi.NoteOnEvent(tick=120, channel=1, data=[74, 0]),
   midi.NoteOnEvent(tick=0, channel=1, data=[73, 36]),
   midi.NoteOnEvent(tick=120, channel=1, data=[73, 0]),
   midi.NoteOnEvent(tick=0, channel=1, data=[71, 36]),
   midi.NoteOnEvent(tick=120, channel=1, data=[71, 0]),
   midi.NoteOnEvent(tick=0, channel=1, data=[69, 36]),
   midi.NoteOnEvent(tick=120, channel=1, data=[69, 0]),
   midi.NoteOnEvent(tick=0, channel=1, data=[71, 36]),
   midi.NoteOnEvent(tick=120, channel=1, data=[71, 0]),
   midi.NoteOnEvent(tick=0, channel=1, data=[69, 36]),
   midi.NoteOnEvent(tick=480, channel=1, data=[69, 0]),
   midi.NoteOnEvent(tick=480, channel=1, data=[81, 36]),
   midi.NoteOnEvent(tick=1440, channel=1, data=[81, 0]),
   midi.NoteOnEvent(tick=0, channel=1, data=[81, 36]),
   midi.NoteOnEvent(tick=1440, channel=1, data=[81, 0]),
   midi.NoteOnEvent(tick=0, channel=1, data=[78, 36]),
   midi.NoteOnEvent(tick=120, channel=1, data=[78, 0]),
   midi.NoteOnEvent(tick=0, channel=1, data=[76, 36]),
   midi.NoteOnEvent(tick=120, channel=1, data=[76, 0]),
   midi.NoteOnEvent(tick=0, channel=1, data=[78, 36]),
   midi.NoteOnEvent(tick=120, channel=1, data=[78, 0]),
   midi.NoteOnEvent(tick=0, channel=1, data=[79, 36]),
   midi.NoteOnEvent(tick=120, channel=1, data=[79, 0]),
   midi.NoteOnEvent(tick=0, channel=1, data=[81, 36]),
   midi.NoteOnEvent(tick=240, channel=1, data=[81, 0]),
   midi.NoteOnEvent(tick=0, channel=1, data=[74, 36]),
   midi.NoteOnEvent(tick=240, channel=1, data=[74, 0]),
   midi.NoteOnEvent(tick=0, channel=1, data=[74, 36]),
   midi.NoteOnEvent(tick=240, channel=1, data=[74, 0]),
   midi.NoteOnEvent(tick=0, channel=1, data=[74, 36]),
   midi.NoteOnEvent(tick=240, channel=1, data=[74, 0]),
   midi.NoteOnEvent(tick=0, channel=1, data=[79, 36]),
   midi.NoteOnEvent(tick=120, channel=1, data=[79, 0]),
   midi.NoteOnEvent(tick=0, channel=1, data=[76, 36]),
   midi.NoteOnEvent(tick=120, channel=1, data=[76, 0]),
   midi.NoteOnEvent(tick=0, channel=1, data=[78, 36]),
   midi.NoteOnEvent(tick=120, channel=1, data=[78, 0]),
   midi.NoteOnEvent(tick=0, channel=1, data=[74, 36]),
   midi.NoteOnEvent(tick=120, channel=1, data=[74, 0]),
   midi.NoteOnEvent(tick=0, channel=1, data=[73, 36]),
   midi.NoteOnEvent(tick=240, channel=1, data=[73, 0]),
   midi.NoteOnEvent(tick=0, channel=1, data=[76, 36]),
   midi.NoteOnEvent(tick=120, channel=1, data=[76, 0]),
   midi.NoteOnEvent(tick=0, channel=1, data=[73, 36]),
   midi.NoteOnEvent(tick=120, channel=1, data=[73, 0]),
   midi.NoteOnEvent(tick=0, channel=1, data=[69, 36]),
   midi.NoteOnEvent(tick=480, channel=1, data=[69, 0]),
   midi.NoteOnEvent(tick=0, channel=1, data=[66, 36]),
   midi.NoteOnEvent(tick=240, channel=1, data=[66, 0]),
   midi.NoteOnEvent(tick=0, channel=1, data=[66, 36]),
   midi.NoteOnEvent(tick=240, channel=1, data=[66, 0]),
   midi.NoteOnEvent(tick=0, channel=1, data=[69, 36]),
   midi.NoteOnEvent(tick=240, channel=1, data=[69, 0]),
   midi.NoteOnEvent(tick=0, channel=1, data=[69, 36]),
   midi.NoteOnEvent(tick=240, channel=1, data=[69, 0]),
   midi.NoteOnEvent(tick=0, channel=1, data=[69, 36]),
   midi.NoteOnEvent(tick=240, channel=1, data=[69, 0]),
   midi.NoteOnEvent(tick=0, channel=1, data=[69, 36]),
   midi.NoteOnEvent(tick=240, channel=1, data=[69, 0]),
   midi.NoteOnEvent(tick=0, channel=1, data=[67, 36]),
   midi.NoteOnEvent(tick=240, channel=1, data=[67, 0]),
   midi.NoteOnEvent(tick=960, channel=1, data=[74, 36]),
   midi.NoteOnEvent(tick=120, channel=1, data=[74, 0]),
   midi.NoteOnEvent(tick=0, channel=1, data=[76, 36]),
   midi.NoteOnEvent(tick=120, channel=1, data=[76, 0]),
   midi.NoteOnEvent(tick=0, channel=1, data=[74, 36]),
   midi.NoteOnEvent(tick=240, channel=1, data=[74, 0]),
   midi.NoteOnEvent(tick=0, channel=1, data=[74, 36]),
   midi.NoteOnEvent(tick=480, channel=1, data=[74, 0]),
   midi.NoteOnEvent(tick=0, channel=1, data=[74, 36]),
   midi.NoteOnEvent(tick=480, channel=1, data=[74, 0]),
   midi.NoteOnEvent(tick=0, channel=1, data=[73, 36]),
   midi.NoteOnEvent(tick=240, channel=1, data=[73, 0]),
   midi.NoteOnEvent(tick=0, channel=1, data=[74, 36]),
   midi.NoteOnEvent(tick=480, channel=1, data=[74, 0]),
   midi.NoteOnEvent(tick=960, channel=1, data=[74, 36]),
   midi.NoteOnEvent(tick=240, channel=1, data=[74, 0]),
   midi.NoteOnEvent(tick=0, channel=1, data=[76, 36]),
   midi.NoteOnEvent(tick=40, channel=1, data=[76, 0]),
   midi.NoteOnEvent(tick=0, channel=1, data=[78, 36]),
   midi.NoteOnEvent(tick=40, channel=1, data=[78, 0]),
   midi.NoteOnEvent(tick=0, channel=1, data=[79, 36]),
   midi.NoteOnEvent(tick=40, channel=1, data=[79, 0]),
   midi.NoteOnEvent(tick=0, channel=1, data=[81, 36]),
   midi.NoteOnEvent(tick=40, channel=1, data=[81, 0]),
   midi.NoteOnEvent(tick=0, channel=1, data=[83, 36]),
   midi.NoteOnEvent(tick=40, channel=1, data=[83, 0]),
   midi.NoteOnEvent(tick=0, channel=1, data=[85, 36]),
   midi.NoteOnEvent(tick=40, channel=1, data=[85, 0]),
   midi.NoteOnEvent(tick=0, channel=1, data=[86, 36]),
   midi.NoteOnEvent(tick=240, channel=1, data=[86, 0]),
   midi.NoteOnEvent(tick=720, channel=1, data=[81, 36]),
   midi.ControlChangeEvent(tick=976, channel=1, data=[7, 62]),
   midi.NoteOnEvent(tick=464, channel=1, data=[81, 0]),
   midi.NoteOnEvent(tick=0, channel=1, data=[81, 36]),
   midi.NoteOnEvent(tick=120, channel=1, data=[81, 0]),
   midi.NoteOnEvent(tick=0, channel=1, data=[79, 36]),
   midi.NoteOnEvent(tick=120, channel=1, data=[79, 0]),
   midi.NoteOnEvent(tick=0, channel=1, data=[78, 36]),
   midi.NoteOnEvent(tick=120, channel=1, data=[78, 0]),
   midi.NoteOnEvent(tick=0, channel=1, data=[76, 36]),
   midi.NoteOnEvent(tick=120, channel=1, data=[76, 0]),
   midi.NoteOnEvent(tick=0, channel=1, data=[74, 36]),
   midi.NoteOnEvent(tick=480, channel=1, data=[74, 0]),
   midi.NoteOnEvent(tick=0, channel=1, data=[74, 36]),
   midi.NoteOnEvent(tick=20, channel=1, data=[74, 0]),
   midi.NoteOnEvent(tick=0, channel=1, data=[73, 36]),
   midi.NoteOnEvent(tick=40, channel=1, data=[73, 0]),
   midi.NoteOnEvent(tick=0, channel=1, data=[74, 36]),
   midi.NoteOnEvent(tick=20, channel=1, data=[74, 0]),
   midi.NoteOnEvent(tick=0, channel=1, data=[73, 36]),
   midi.NoteOnEvent(tick=40, channel=1, data=[73, 0]),
   midi.NoteOnEvent(tick=0, channel=1, data=[74, 36]),
   midi.NoteOnEvent(tick=20, channel=1, data=[74, 0]),
   midi.NoteOnEvent(tick=0, channel=1, data=[73, 36]),
   midi.NoteOnEvent(tick=40, channel=1, data=[73, 0]),
   midi.NoteOnEvent(tick=0, channel=1, data=[74, 36]),
   midi.NoteOnEvent(tick=20, channel=1, data=[74, 0]),
   midi.NoteOnEvent(tick=0, channel=1, data=[73, 36]),
   midi.NoteOnEvent(tick=40, channel=1, data=[73, 0]),
   midi.NoteOnEvent(tick=0, channel=1, data=[74, 36]),
   midi.NoteOnEvent(tick=20, channel=1, data=[74, 0]),
   midi.NoteOnEvent(tick=0, channel=1, data=[73, 36]),
   midi.NoteOnEvent(tick=40, channel=1, data=[73, 0]),
   midi.NoteOnEvent(tick=0, channel=1, data=[74, 36]),
   midi.NoteOnEvent(tick=20, channel=1, data=[74, 0]),
   midi.NoteOnEvent(tick=0, channel=1, data=[73, 36]),
   midi.NoteOnEvent(tick=40, channel=1, data=[73, 0]),
   midi.NoteOnEvent(tick=0, channel=1, data=[74, 36]),
   midi.NoteOnEvent(tick=20, channel=1, data=[74, 0]),
   midi.NoteOnEvent(tick=0, channel=1, data=[73, 36]),
   midi.NoteOnEvent(tick=20, channel=1, data=[73, 0]),
   midi.NoteOnEvent(tick=0, channel=1, data=[71, 36]),
   midi.NoteOnEvent(tick=40, channel=1, data=[71, 0]),
   midi.NoteOnEvent(tick=0, channel=1, data=[73, 36]),
   midi.NoteOnEvent(tick=40, channel=1, data=[73, 0]),
   midi.NoteOnEvent(tick=0, channel=1, data=[74, 36]),
   midi.NoteOnEvent(tick=480, channel=1, data=[74, 0]),
   midi.NoteOnEvent(tick=600, channel=1, data=[81, 36]),
   midi.NoteOnEvent(tick=60, channel=1, data=[81, 0]),
   midi.NoteOnEvent(tick=0, channel=1, data=[79, 36]),
   midi.NoteOnEvent(tick=60, channel=1, data=[79, 0]),
   midi.NoteOnEvent(tick=0, channel=1, data=[78, 36]),
   midi.NoteOnEvent(tick=60, channel=1, data=[78, 0]),
   midi.NoteOnEvent(tick=0, channel=1, data=[76, 36]),
   midi.NoteOnEvent(tick=60, channel=1, data=[76, 0]),
   midi.NoteOnEvent(tick=0, channel=1, data=[74, 36]),
   midi.NoteOnEvent(tick=60, channel=1, data=[74, 0]),
   midi.NoteOnEvent(tick=0, channel=1, data=[73, 36]),
   midi.NoteOnEvent(tick=60, channel=1, data=[73, 0]),
   midi.NoteOnEvent(tick=0, channel=1, data=[74, 36]),
   midi.NoteOnEvent(tick=240, channel=1, data=[74, 0]),
   midi.NoteOnEvent(tick=0, channel=1, data=[69, 36]),
   midi.NoteOnEvent(tick=240, channel=1, data=[69, 0]),
   midi.NoteOnEvent(tick=0, channel=1, data=[71, 36]),
   midi.NoteOnEvent(tick=240, channel=1, data=[71, 0]),
   midi.NoteOnEvent(tick=0, channel=1, data=[69, 36]),
   midi.NoteOnEvent(tick=240, channel=1, data=[69, 0]),
   midi.NoteOnEvent(tick=0, channel=1, data=[71, 36]),
   midi.NoteOnEvent(tick=240, channel=1, data=[71, 0]),
   midi.NoteOnEvent(tick=0, channel=1, data=[67, 36]),
   midi.NoteOnEvent(tick=240, channel=1, data=[67, 0]),
   midi.NoteOnEvent(tick=0, channel=1, data=[67, 36]),
   midi.NoteOnEvent(tick=960, channel=1, data=[67, 0]),
   midi.NoteOnEvent(tick=0, channel=1, data=[66, 36]),
   midi.NoteOnEvent(tick=240, channel=1, data=[66, 0]),
   midi.NoteOnEvent(tick=1680, channel=1, data=[79, 36]),
   midi.NoteOnEvent(tick=1440, channel=1, data=[79, 0]),
   midi.NoteOnEvent(tick=0, channel=1, data=[81, 36]),
   midi.NoteOnEvent(tick=480, channel=1, data=[81, 0]),
   midi.NoteOnEvent(tick=0, channel=1, data=[79, 36]),
   midi.NoteOnEvent(tick=480, channel=1, data=[79, 0]),
   midi.NoteOnEvent(tick=0, channel=1, data=[78, 36]),
   midi.NoteOnEvent(tick=480, channel=1, data=[78, 0]),
   midi.NoteOnEvent(tick=0, channel=1, data=[79, 36]),
   midi.NoteOnEvent(tick=720, channel=1, data=[79, 0]),
   midi.NoteOnEvent(tick=0, channel=1, data=[83, 36]),
   midi.NoteOnEvent(tick=240, channel=1, data=[83, 0]),
   midi.NoteOnEvent(tick=0, channel=1, data=[81, 36]),
   midi.NoteOnEvent(tick=240, channel=1, data=[81, 0]),
   midi.NoteOnEvent(tick=0, channel=1, data=[79, 36]),
   midi.NoteOnEvent(tick=240, channel=1, data=[79, 0]),
   midi.NoteOnEvent(tick=0, channel=1, data=[81, 36]),
   midi.NoteOnEvent(tick=20, channel=1, data=[81, 0]),
   midi.NoteOnEvent(tick=0, channel=1, data=[79, 36]),
   midi.NoteOnEvent(tick=40, channel=1, data=[79, 0]),
   midi.NoteOnEvent(tick=0, channel=1, data=[81, 36]),
   midi.NoteOnEvent(tick=20, channel=1, data=[81, 0]),
   midi.NoteOnEvent(tick=0, channel=1, data=[79, 36]),
   midi.NoteOnEvent(tick=40, channel=1, data=[79, 0]),
   midi.NoteOnEvent(tick=0, channel=1, data=[81, 36]),
   midi.NoteOnEvent(tick=20, channel=1, data=[81, 0]),
   midi.NoteOnEvent(tick=0, channel=1, data=[79, 36]),
   midi.NoteOnEvent(tick=40, channel=1, data=[79, 0]),
   midi.NoteOnEvent(tick=0, channel=1, data=[81, 36]),
   midi.NoteOnEvent(tick=20, channel=1, data=[81, 0]),
   midi.NoteOnEvent(tick=0, channel=1, data=[79, 36]),
   midi.NoteOnEvent(tick=40, channel=1, data=[79, 0]),
   midi.NoteOnEvent(tick=0, channel=1, data=[81, 36]),
   midi.NoteOnEvent(tick=20, channel=1, data=[81, 0]),
   midi.NoteOnEvent(tick=0, channel=1, data=[79, 36]),
   midi.NoteOnEvent(tick=40, channel=1, data=[79, 0]),
   midi.NoteOnEvent(tick=0, channel=1, data=[81, 36]),
   midi.NoteOnEvent(tick=20, channel=1, data=[81, 0]),
   midi.NoteOnEvent(tick=0, channel=1, data=[79, 36]),
   midi.NoteOnEvent(tick=40, channel=1, data=[79, 0]),
   midi.NoteOnEvent(tick=0, channel=1, data=[81, 36]),
   midi.NoteOnEvent(tick=20, channel=1, data=[81, 0]),
   midi.NoteOnEvent(tick=0, channel=1, data=[79, 36]),
   midi.NoteOnEvent(tick=40, channel=1, data=[79, 0]),
   midi.NoteOnEvent(tick=0, channel=1, data=[81, 36]),
   midi.NoteOnEvent(tick=20, channel=1, data=[81, 0]),
   midi.NoteOnEvent(tick=0, channel=1, data=[79, 36]),
   midi.NoteOnEvent(tick=40, channel=1, data=[79, 0]),
   midi.NoteOnEvent(tick=0, channel=1, data=[78, 36]),
   midi.NoteOnEvent(tick=480, channel=1, data=[78, 0]),
   midi.NoteOnEvent(tick=1920, channel=1, data=[69, 36]),
   midi.NoteOnEvent(tick=80, channel=1, data=[69, 0]),
   midi.NoteOnEvent(tick=0, channel=1, data=[76, 36]),
   midi.NoteOnEvent(tick=80, channel=1, data=[76, 0]),
   midi.NoteOnEvent(tick=0, channel=1, data=[72, 36]),
   midi.NoteOnEvent(tick=80, channel=1, data=[72, 0]),
   midi.NoteOnEvent(tick=0, channel=1, data=[69, 36]),
   midi.NoteOnEvent(tick=80, channel=1, data=[69, 0]),
   midi.NoteOnEvent(tick=0, channel=1, data=[64, 36]),
   midi.NoteOnEvent(tick=80, channel=1, data=[64, 0]),
   midi.NoteOnEvent(tick=0, channel=1, data=[60, 36]),
   midi.NoteOnEvent(tick=80, channel=1, data=[60, 0]),
   midi.NoteOnEvent(tick=0, channel=1, data=[57, 36]),
   midi.NoteOnEvent(tick=240, channel=1, data=[57, 0]),
   midi.NoteOnEvent(tick=480, channel=1, data=[73, 36]),
   midi.NoteOnEvent(tick=240, channel=1, data=[73, 0]),
   midi.NoteOnEvent(tick=0, channel=1, data=[74, 36]),
   midi.NoteOnEvent(tick=480, channel=1, data=[74, 0]),
   midi.NoteOnEvent(tick=0, channel=1, data=[74, 36]),
   midi.NoteOnEvent(tick=120, channel=1, data=[74, 0]),
   midi.NoteOnEvent(tick=0, channel=1, data=[76, 36]),
   midi.NoteOnEvent(tick=120, channel=1, data=[76, 0]),
   midi.ControlChangeEvent(tick=0, channel=1, data=[7, 61]),
   midi.NoteOnEvent(tick=0, channel=1, data=[78, 36]),
   midi.NoteOnEvent(tick=120, channel=1, data=[78, 0]),
   midi.NoteOnEvent(tick=0, channel=1, data=[79, 36]),
   midi.NoteOnEvent(tick=120, channel=1, data=[79, 0]),
   midi.NoteOnEvent(tick=0, channel=1, data=[81, 36]),
   midi.NoteOnEvent(tick=120, channel=1, data=[81, 0]),
   midi.NoteOnEvent(tick=0, channel=1, data=[83, 36]),
   midi.NoteOnEvent(tick=120, channel=1, data=[83, 0]),
   midi.NoteOnEvent(tick=0, channel=1, data=[84, 36]),
   midi.NoteOnEvent(tick=120, channel=1, data=[84, 0]),
   midi.NoteOnEvent(tick=0, channel=1, data=[81, 36]),
   midi.NoteOnEvent(tick=120, channel=1, data=[81, 0]),
   midi.NoteOnEvent(tick=0, channel=1, data=[84, 36]),
   midi.NoteOnEvent(tick=240, channel=1, data=[84, 0]),
   midi.NoteOnEvent(tick=0, channel=1, data=[83, 36]),
   midi.NoteOnEvent(tick=480, channel=1, data=[83, 0]),
   midi.NoteOnEvent(tick=0, channel=1, data=[81, 36]),
   midi.NoteOnEvent(tick=120, channel=1, data=[81, 0]),
   midi.NoteOnEvent(tick=0, channel=1, data=[79, 36]),
   midi.NoteOnEvent(tick=120, channel=1, data=[79, 0]),
   midi.NoteOnEvent(tick=0, channel=1, data=[86, 36]),
   midi.NoteOnEvent(tick=240, channel=1, data=[86, 0]),
   midi.NoteOnEvent(tick=0, channel=1, data=[71, 36]),
   midi.NoteOnEvent(tick=240, channel=1, data=[71, 0]),
   midi.NoteOnEvent(tick=0, channel=1, data=[72, 36]),
   midi.NoteOnEvent(tick=480, channel=1, data=[72, 0]),
   midi.NoteOnEvent(tick=1680, channel=1, data=[88, 36]),
   midi.NoteOnEvent(tick=240, channel=1, data=[88, 0]),
   midi.NoteOnEvent(tick=0, channel=1, data=[86, 36]),
   midi.NoteOnEvent(tick=240, channel=1, data=[86, 0]),
   midi.NoteOnEvent(tick=0, channel=1, data=[78, 36]),
   midi.NoteOnEvent(tick=240, channel=1, data=[78, 0]),
   midi.NoteOnEvent(tick=0, channel=1, data=[79, 36]),
   midi.NoteOnEvent(tick=240, channel=1, data=[79, 0]),
   midi.NoteOnEvent(tick=0, channel=1, data=[74, 36]),
   midi.NoteOnEvent(tick=240, channel=1, data=[74, 0]),
   midi.NoteOnEvent(tick=0, channel=1, data=[74, 36]),
   midi.NoteOnEvent(tick=480, channel=1, data=[74, 0]),
   midi.NoteOnEvent(tick=0, channel=1, data=[74, 36]),
   midi.NoteOnEvent(tick=120, channel=1, data=[74, 0]),
   midi.NoteOnEvent(tick=0, channel=1, data=[83, 36]),
   midi.NoteOnEvent(tick=120, channel=1, data=[83, 0]),
   midi.NoteOnEvent(tick=0, channel=1, data=[81, 36]),
   midi.NoteOnEvent(tick=120, channel=1, data=[81, 0]),
   midi.NoteOnEvent(tick=0, channel=1, data=[79, 36]),
   midi.NoteOnEvent(tick=120, channel=1, data=[79, 0]),
   midi.NoteOnEvent(tick=0, channel=1, data=[81, 36]),
   midi.NoteOnEvent(tick=240, channel=1, data=[81, 0]),
   midi.NoteOnEvent(tick=0, channel=1, data=[79, 36]),
   midi.NoteOnEvent(tick=240, channel=1, data=[79, 0]),
   midi.NoteOnEvent(tick=0, channel=1, data=[78, 36]),
   midi.NoteOnEvent(tick=720, channel=1, data=[78, 0]),
   midi.NoteOnEvent(tick=0, channel=1, data=[79, 36]),
   midi.NoteOnEvent(tick=240, channel=1, data=[79, 0]),
   midi.NoteOnEvent(tick=0, channel=1, data=[81, 36]),
   midi.NoteOnEvent(tick=480, channel=1, data=[81, 0]),
   midi.NoteOnEvent(tick=2400, channel=1, data=[72, 36]),
   midi.NoteOnEvent(tick=720, channel=1, data=[72, 0]),
   midi.NoteOnEvent(tick=0, channel=1, data=[76, 36]),
   midi.NoteOnEvent(tick=240, channel=1, data=[76, 0]),
   midi.NoteOnEvent(tick=0, channel=1, data=[76, 36]),
   midi.NoteOnEvent(tick=240, channel=1, data=[76, 0]),
   midi.NoteOnEvent(tick=0, channel=1, data=[74, 36]),
   midi.NoteOnEvent(tick=120, channel=1, data=[74, 0]),
   midi.NoteOnEvent(tick=0, channel=1, data=[72, 36]),
   midi.NoteOnEvent(tick=120, channel=1, data=[72, 0]),
   midi.NoteOnEvent(tick=0, channel=1, data=[71, 36]),
   midi.NoteOnEvent(tick=720, channel=1, data=[71, 0]),
   midi.NoteOnEvent(tick=0, channel=1, data=[72, 36]),
   midi.NoteOnEvent(tick=120, channel=1, data=[72, 0]),
   midi.NoteOnEvent(tick=0, channel=1, data=[74, 36]),
   midi.NoteOnEvent(tick=120, channel=1, data=[74, 0]),
   midi.NoteOnEvent(tick=0, channel=1, data=[76, 36]),
   midi.NoteOnEvent(tick=120, channel=1, data=[76, 0]),
   midi.NoteOnEvent(tick=0, channel=1, data=[78, 36]),
   midi.NoteOnEvent(tick=120, channel=1, data=[78, 0]),
   midi.NoteOnEvent(tick=0, channel=1, data=[79, 36]),
   midi.NoteOnEvent(tick=120, channel=1, data=[79, 0]),
   midi.NoteOnEvent(tick=0, channel=1, data=[81, 36]),
   midi.NoteOnEvent(tick=120, channel=1, data=[81, 0]),
   midi.NoteOnEvent(tick=0, channel=1, data=[83, 36]),
   midi.NoteOnEvent(tick=360, channel=1, data=[83, 0]),
   midi.NoteOnEvent(tick=0, channel=1, data=[84, 36]),
   midi.NoteOnEvent(tick=60, channel=1, data=[84, 0]),
   midi.NoteOnEvent(tick=0, channel=1, data=[83, 36]),
   midi.NoteOnEvent(tick=60, channel=1, data=[83, 0]),
   midi.NoteOnEvent(tick=0, channel=1, data=[81, 36]),
   midi.NoteOnEvent(tick=480, channel=1, data=[81, 0]),
   midi.NoteOnEvent(tick=0, channel=1, data=[79, 36]),
   midi.NoteOnEvent(tick=480, channel=1, data=[79, 0]),
   midi.NoteOnEvent(tick=0, channel=1, data=[81, 36]),
   midi.NoteOnEvent(tick=20, channel=1, data=[81, 0]),
   midi.NoteOnEvent(tick=0, channel=1, data=[79, 36]),
   midi.NoteOnEvent(tick=40, channel=1, data=[79, 0]),
   midi.NoteOnEvent(tick=0, channel=1, data=[81, 36]),
   midi.NoteOnEvent(tick=20, channel=1, data=[81, 0]),
   midi.NoteOnEvent(tick=0, channel=1, data=[79, 36]),
   midi.NoteOnEvent(tick=40, channel=1, data=[79, 0]),
   midi.NoteOnEvent(tick=0, channel=1, data=[81, 36]),
   midi.NoteOnEvent(tick=20, channel=1, data=[81, 0]),
   midi.NoteOnEvent(tick=0, channel=1, data=[79, 36]),
   midi.NoteOnEvent(tick=40, channel=1, data=[79, 0]),
   midi.NoteOnEvent(tick=0, channel=1, data=[81, 36]),
   midi.NoteOnEvent(tick=20, channel=1, data=[81, 0]),
   midi.NoteOnEvent(tick=0, channel=1, data=[79, 36]),
   midi.NoteOnEvent(tick=40, channel=1, data=[79, 0]),
   midi.NoteOnEvent(tick=0, channel=1, data=[81, 36]),
   midi.NoteOnEvent(tick=20, channel=1, data=[81, 0]),
   midi.NoteOnEvent(tick=0, channel=1, data=[79, 36]),
   midi.NoteOnEvent(tick=40, channel=1, data=[79, 0]),
   midi.NoteOnEvent(tick=0, channel=1, data=[81, 36]),
   midi.NoteOnEvent(tick=20, channel=1, data=[81, 0]),
   midi.NoteOnEvent(tick=0, channel=1, data=[79, 36]),
   midi.NoteOnEvent(tick=40, channel=1, data=[79, 0]),
   midi.NoteOnEvent(tick=0, channel=1, data=[81, 36]),
   midi.NoteOnEvent(tick=20, channel=1, data=[81, 0]),
   midi.NoteOnEvent(tick=0, channel=1, data=[79, 36]),
   midi.NoteOnEvent(tick=40, channel=1, data=[79, 0]),
   midi.NoteOnEvent(tick=0, channel=1, data=[81, 36]),
   midi.NoteOnEvent(tick=20, channel=1, data=[81, 0]),
   midi.NoteOnEvent(tick=0, channel=1, data=[79, 36]),
   midi.NoteOnEvent(tick=40, channel=1, data=[79, 0]),
   midi.NoteOnEvent(tick=0, channel=1, data=[78, 36]),
   midi.NoteOnEvent(tick=480, channel=1, data=[78, 0]),
   midi.ControlChangeEvent(tick=944, channel=1, data=[7, 60]),
   midi.NoteOnEvent(tick=2416, channel=1, data=[79, 36]),
   midi.NoteOnEvent(tick=1440, channel=1, data=[79, 0]),
   midi.NoteOnEvent(tick=0, channel=1, data=[79, 36]),
   midi.NoteOnEvent(tick=1440, channel=1, data=[79, 0]),
   midi.NoteOnEvent(tick=0, channel=1, data=[79, 36]),
   midi.NoteOnEvent(tick=80, channel=1, data=[79, 0]),
   midi.NoteOnEvent(tick=0, channel=1, data=[76, 36]),
   midi.NoteOnEvent(tick=80, channel=1, data=[76, 0]),
   midi.NoteOnEvent(tick=0, channel=1, data=[74, 36]),
   midi.NoteOnEvent(tick=80, channel=1, data=[74, 0]),
   midi.NoteOnEvent(tick=0, channel=1, data=[73, 36]),
   midi.NoteOnEvent(tick=80, channel=1, data=[73, 0]),
   midi.NoteOnEvent(tick=0, channel=1, data=[71, 36]),
   midi.NoteOnEvent(tick=80, channel=1, data=[71, 0]),
   midi.NoteOnEvent(tick=0, channel=1, data=[69, 36]),
   midi.NoteOnEvent(tick=80, channel=1, data=[69, 0]),
   midi.NoteOnEvent(tick=0, channel=1, data=[67, 36]),
   midi.NoteOnEvent(tick=80, channel=1, data=[67, 0]),
   midi.NoteOnEvent(tick=0, channel=1, data=[64, 36]),
   midi.NoteOnEvent(tick=80, channel=1, data=[64, 0]),
   midi.NoteOnEvent(tick=0, channel=1, data=[62, 36]),
   midi.NoteOnEvent(tick=80, channel=1, data=[62, 0]),
   midi.NoteOnEvent(tick=0, channel=1, data=[61, 36]),
   midi.NoteOnEvent(tick=80, channel=1, data=[61, 0]),
   midi.NoteOnEvent(tick=0, channel=1, data=[59, 36]),
   midi.NoteOnEvent(tick=80, channel=1, data=[59, 0]),
   midi.NoteOnEvent(tick=0, channel=1, data=[57, 36]),
   midi.NoteOnEvent(tick=80, channel=1, data=[57, 0]),
   midi.NoteOnEvent(tick=0, channel=1, data=[76, 36]),
   midi.NoteOnEvent(tick=120, channel=1, data=[76, 0]),
   midi.NoteOnEvent(tick=0, channel=1, data=[69, 36]),
   midi.NoteOnEvent(tick=120, channel=1, data=[69, 0]),
   midi.NoteOnEvent(tick=0, channel=1, data=[79, 36]),
   midi.NoteOnEvent(tick=120, channel=1, data=[79, 0]),
   midi.NoteOnEvent(tick=0, channel=1, data=[76, 36]),
   midi.NoteOnEvent(tick=120, channel=1, data=[76, 0]),
   midi.NoteOnEvent(tick=0, channel=1, data=[78, 36]),
   midi.NoteOnEvent(tick=120, channel=1, data=[78, 0]),
   midi.NoteOnEvent(tick=0, channel=1, data=[76, 36]),
   midi.NoteOnEvent(tick=120, channel=1, data=[76, 0]),
   midi.NoteOnEvent(tick=0, channel=1, data=[74, 36]),
   midi.NoteOnEvent(tick=120, channel=1, data=[74, 0]),
   midi.NoteOnEvent(tick=0, channel=1, data=[76, 36]),
   midi.NoteOnEvent(tick=120, channel=1, data=[76, 0]),
   midi.NoteOnEvent(tick=0, channel=1, data=[74, 36]),
   midi.NoteOnEvent(tick=480, channel=1, data=[74, 0]),
   midi.NoteOnEvent(tick=480, channel=1, data=[74, 36]),
   midi.NoteOnEvent(tick=1440, channel=1, data=[74, 0]),
   midi.NoteOnEvent(tick=0, channel=1, data=[74, 36]),
   midi.NoteOnEvent(tick=960, channel=1, data=[74, 0]),
   midi.NoteOnEvent(tick=0, channel=1, data=[74, 36]),
   midi.NoteOnEvent(tick=360, channel=1, data=[74, 0]),
   midi.NoteOnEvent(tick=0, channel=1, data=[66, 36]),
   midi.NoteOnEvent(tick=120, channel=1, data=[66, 0]),
   midi.NoteOnEvent(tick=0, channel=1, data=[67, 36]),
   midi.NoteOnEvent(tick=120, channel=1, data=[67, 0]),
   midi.NoteOnEvent(tick=0, channel=1, data=[69, 36]),
   midi.NoteOnEvent(tick=120, channel=1, data=[69, 0]),
   midi.NoteOnEvent(tick=0, channel=1, data=[71, 36]),
   midi.NoteOnEvent(tick=120, channel=1, data=[71, 0]),
   midi.NoteOnEvent(tick=0, channel=1, data=[72, 36]),
   midi.NoteOnEvent(tick=120, channel=1, data=[72, 0]),
   midi.NoteOnEvent(tick=0, channel=1, data=[74, 36]),
   midi.NoteOnEvent(tick=240, channel=1, data=[74, 0]),
   midi.NoteOnEvent(tick=0, channel=1, data=[67, 36]),
   midi.NoteOnEvent(tick=240, channel=1, data=[67, 0]),
   midi.NoteOnEvent(tick=0, channel=1, data=[67, 36]),
   midi.NoteOnEvent(tick=240, channel=1, data=[67, 0]),
   midi.NoteOnEvent(tick=0, channel=1, data=[67, 36]),
   midi.NoteOnEvent(tick=240, channel=1, data=[67, 0]),
   midi.NoteOnEvent(tick=0, channel=1, data=[72, 36]),
   midi.NoteOnEvent(tick=120, channel=1, data=[72, 0]),
   midi.NoteOnEvent(tick=0, channel=1, data=[69, 36]),
   midi.NoteOnEvent(tick=120, channel=1, data=[69, 0]),
   midi.NoteOnEvent(tick=0, channel=1, data=[71, 36]),
   midi.NoteOnEvent(tick=120, channel=1, data=[71, 0]),
   midi.NoteOnEvent(tick=0, channel=1, data=[67, 36]),
   midi.NoteOnEvent(tick=120, channel=1, data=[67, 0]),
   midi.NoteOnEvent(tick=0, channel=1, data=[66, 36]),
   midi.NoteOnEvent(tick=240, channel=1, data=[66, 0]),
   midi.NoteOnEvent(tick=0, channel=1, data=[69, 36]),
   midi.NoteOnEvent(tick=120, channel=1, data=[69, 0]),
   midi.NoteOnEvent(tick=0, channel=1, data=[66, 36]),
   midi.NoteOnEvent(tick=120, channel=1, data=[66, 0]),
   midi.NoteOnEvent(tick=0, channel=1, data=[62, 36]),
   midi.NoteOnEvent(tick=480, channel=1, data=[62, 0]),
   midi.NoteOnEvent(tick=0, channel=1, data=[62, 36]),
   midi.NoteOnEvent(tick=240, channel=1, data=[62, 0]),
   midi.NoteOnEvent(tick=0, channel=1, data=[62, 36]),
   midi.NoteOnEvent(tick=240, channel=1, data=[62, 0]),
   midi.NoteOnEvent(tick=0, channel=1, data=[67, 36]),
   midi.NoteOnEvent(tick=240, channel=1, data=[67, 0]),
   midi.NoteOnEvent(tick=0, channel=1, data=[67, 36]),
   midi.NoteOnEvent(tick=240, channel=1, data=[67, 0]),
   midi.NoteOnEvent(tick=0, channel=1, data=[67, 36]),
   midi.NoteOnEvent(tick=240, channel=1, data=[67, 0]),
   midi.NoteOnEvent(tick=0, channel=1, data=[67, 36]),
   midi.NoteOnEvent(tick=240, channel=1, data=[67, 0]),
   midi.NoteOnEvent(tick=0, channel=1, data=[67, 36]),
   midi.NoteOnEvent(tick=240, channel=1, data=[67, 0]),
   midi.NoteOnEvent(tick=960, channel=1, data=[67, 36]),
   midi.NoteOnEvent(tick=240, channel=1, data=[67, 0]),
   midi.NoteOnEvent(tick=0, channel=1, data=[67, 36]),
   midi.ControlChangeEvent(tick=208, channel=1, data=[7, 59]),
   midi.NoteOnEvent(tick=32, channel=1, data=[67, 0]),
   midi.NoteOnEvent(tick=0, channel=1, data=[67, 36]),
   midi.NoteOnEvent(tick=480, channel=1, data=[67, 0]),
   midi.NoteOnEvent(tick=0, channel=1, data=[83, 36]),
   midi.NoteOnEvent(tick=120, channel=1, data=[83, 0]),
   midi.NoteOnEvent(tick=120, channel=1, data=[79, 36]),
   midi.NoteOnEvent(tick=20, channel=1, data=[79, 0]),
   midi.NoteOnEvent(tick=0, channel=1, data=[78, 36]),
   midi.NoteOnEvent(tick=40, channel=1, data=[78, 0]),
   midi.NoteOnEvent(tick=0, channel=1, data=[79, 36]),
   midi.NoteOnEvent(tick=20, channel=1, data=[79, 0]),
   midi.NoteOnEvent(tick=0, channel=1, data=[78, 36]),
   midi.NoteOnEvent(tick=40, channel=1, data=[78, 0]),
   midi.NoteOnEvent(tick=0, channel=1, data=[79, 36]),
   midi.NoteOnEvent(tick=20, channel=1, data=[79, 0]),
   midi.NoteOnEvent(tick=0, channel=1, data=[78, 36]),
   midi.NoteOnEvent(tick=40, channel=1, data=[78, 0]),
   midi.NoteOnEvent(tick=0, channel=1, data=[79, 36]),
   midi.NoteOnEvent(tick=20, channel=1, data=[79, 0]),
   midi.NoteOnEvent(tick=0, channel=1, data=[78, 36]),
   midi.NoteOnEvent(tick=40, channel=1, data=[78, 0]),
   midi.NoteOnEvent(tick=0, channel=1, data=[79, 36]),
   midi.NoteOnEvent(tick=20, channel=1, data=[79, 0]),
   midi.NoteOnEvent(tick=0, channel=1, data=[78, 36]),
   midi.NoteOnEvent(tick=40, channel=1, data=[78, 0]),
   midi.NoteOnEvent(tick=0, channel=1, data=[79, 36]),
   midi.NoteOnEvent(tick=20, channel=1, data=[79, 0]),
   midi.NoteOnEvent(tick=0, channel=1, data=[78, 36]),
   midi.NoteOnEvent(tick=40, channel=1, data=[78, 0]),
   midi.NoteOnEvent(tick=0, channel=1, data=[79, 36]),
   midi.NoteOnEvent(tick=20, channel=1, data=[79, 0]),
   midi.NoteOnEvent(tick=0, channel=1, data=[78, 36]),
   midi.NoteOnEvent(tick=40, channel=1, data=[78, 0]),
   midi.NoteOnEvent(tick=0, channel=1, data=[79, 36]),
   midi.NoteOnEvent(tick=20, channel=1, data=[79, 0]),
   midi.NoteOnEvent(tick=0, channel=1, data=[78, 36]),
   midi.NoteOnEvent(tick=40, channel=1, data=[78, 0]),
   midi.NoteOnEvent(tick=0, channel=1, data=[79, 36]),
   midi.NoteOnEvent(tick=480, channel=1, data=[79, 0]),
   midi.NoteOnEvent(tick=960, channel=1, data=[79, 36]),
   midi.NoteOnEvent(tick=240, channel=1, data=[79, 0]),
   midi.NoteOnEvent(tick=0, channel=1, data=[81, 36]),
   midi.NoteOnEvent(tick=40, channel=1, data=[81, 0]),
   midi.NoteOnEvent(tick=0, channel=1, data=[83, 36]),
   midi.NoteOnEvent(tick=40, channel=1, data=[83, 0]),
   midi.NoteOnEvent(tick=0, channel=1, data=[84, 36]),
   midi.NoteOnEvent(tick=40, channel=1, data=[84, 0]),
   midi.NoteOnEvent(tick=0, channel=1, data=[86, 36]),
   midi.NoteOnEvent(tick=40, channel=1, data=[86, 0]),
   midi.NoteOnEvent(tick=0, channel=1, data=[88, 36]),
   midi.NoteOnEvent(tick=40, channel=1, data=[88, 0]),
   midi.NoteOnEvent(tick=0, channel=1, data=[90, 36]),
   midi.NoteOnEvent(tick=40, channel=1, data=[90, 0]),
   midi.NoteOnEvent(tick=0, channel=1, data=[91, 36]),
   midi.NoteOnEvent(tick=240, channel=1, data=[91, 0]),
   midi.NoteOnEvent(tick=720, channel=1, data=[86, 36]),
   midi.NoteOnEvent(tick=1440, channel=1, data=[86, 0]),
   midi.NoteOnEvent(tick=0, channel=1, data=[86, 36]),
   midi.NoteOnEvent(tick=60, channel=1, data=[86, 0]),
   midi.NoteOnEvent(tick=0, channel=1, data=[84, 36]),
   midi.NoteOnEvent(tick=60, channel=1, data=[84, 0]),
   midi.NoteOnEvent(tick=0, channel=1, data=[84, 36]),
   midi.NoteOnEvent(tick=120, channel=1, data=[84, 0]),
   midi.NoteOnEvent(tick=0, channel=1, data=[83, 36]),
   midi.NoteOnEvent(tick=120, channel=1, data=[83, 0]),
   midi.NoteOnEvent(tick=0, channel=1, data=[81, 36]),
   midi.NoteOnEvent(tick=120, channel=1, data=[81, 0]),
   midi.NoteOnEvent(tick=0, channel=1, data=[79, 36]),
   midi.NoteOnEvent(tick=480, channel=1, data=[79, 0]),
   midi.NoteOnEvent(tick=0, channel=1, data=[79, 36]),
   midi.NoteOnEvent(tick=20, channel=1, data=[79, 0]),
   midi.NoteOnEvent(tick=0, channel=1, data=[78, 36]),
   midi.NoteOnEvent(tick=40, channel=1, data=[78, 0]),
   midi.NoteOnEvent(tick=0, channel=1, data=[79, 36]),
   midi.NoteOnEvent(tick=20, channel=1, data=[79, 0]),
   midi.NoteOnEvent(tick=0, channel=1, data=[78, 36]),
   midi.NoteOnEvent(tick=40, channel=1, data=[78, 0]),
   midi.NoteOnEvent(tick=0, channel=1, data=[79, 36]),
   midi.NoteOnEvent(tick=20, channel=1, data=[79, 0]),
   midi.NoteOnEvent(tick=0, channel=1, data=[78, 36]),
   midi.NoteOnEvent(tick=40, channel=1, data=[78, 0]),
   midi.NoteOnEvent(tick=0, channel=1, data=[79, 36]),
   midi.NoteOnEvent(tick=20, channel=1, data=[79, 0]),
   midi.NoteOnEvent(tick=0, channel=1, data=[78, 36]),
   midi.NoteOnEvent(tick=40, channel=1, data=[78, 0]),
   midi.NoteOnEvent(tick=0, channel=1, data=[79, 36]),
   midi.NoteOnEvent(tick=20, channel=1, data=[79, 0]),
   midi.NoteOnEvent(tick=0, channel=1, data=[78, 36]),
   midi.NoteOnEvent(tick=40, channel=1, data=[78, 0]),
   midi.NoteOnEvent(tick=0, channel=1, data=[79, 36]),
   midi.NoteOnEvent(tick=20, channel=1, data=[79, 0]),
   midi.NoteOnEvent(tick=0, channel=1, data=[78, 36]),
   midi.NoteOnEvent(tick=40, channel=1, data=[78, 0]),
   midi.NoteOnEvent(tick=0, channel=1, data=[78, 36]),
   midi.NoteOnEvent(tick=40, channel=1, data=[78, 0]),
   midi.NoteOnEvent(tick=0, channel=1, data=[76, 36]),
   midi.NoteOnEvent(tick=40, channel=1, data=[76, 0]),
   midi.NoteOnEvent(tick=0, channel=1, data=[78, 36]),
   midi.NoteOnEvent(tick=40, channel=1, data=[78, 0]),
   midi.NoteOnEvent(tick=0, channel=1, data=[79, 36]),
   midi.NoteOnEvent(tick=480, channel=1, data=[79, 0]),
   midi.NoteOnEvent(tick=600, channel=1, data=[86, 36]),
   midi.NoteOnEvent(tick=60, channel=1, data=[86, 0]),
   midi.NoteOnEvent(tick=0, channel=1, data=[84, 36]),
   midi.NoteOnEvent(tick=60, channel=1, data=[84, 0]),
   midi.NoteOnEvent(tick=0, channel=1, data=[83, 36]),
   midi.NoteOnEvent(tick=60, channel=1, data=[83, 0]),
   midi.NoteOnEvent(tick=0, channel=1, data=[81, 36]),
   midi.NoteOnEvent(tick=60, channel=1, data=[81, 0]),
   midi.NoteOnEvent(tick=0, channel=1, data=[79, 36]),
   midi.NoteOnEvent(tick=60, channel=1, data=[79, 0]),
   midi.NoteOnEvent(tick=0, channel=1, data=[78, 36]),
   midi.NoteOnEvent(tick=60, channel=1, data=[78, 0]),
   midi.NoteOnEvent(tick=0, channel=1, data=[79, 36]),
   midi.NoteOnEvent(tick=240, channel=1, data=[79, 0]),
   midi.NoteOnEvent(tick=0, channel=1, data=[74, 36]),
   midi.NoteOnEvent(tick=240, channel=1, data=[74, 0]),
   midi.NoteOnEvent(tick=0, channel=1, data=[76, 36]),
   midi.NoteOnEvent(tick=240, channel=1, data=[76, 0]),
   midi.NoteOnEvent(tick=0, channel=1, data=[74, 36]),
   midi.NoteOnEvent(tick=240, channel=1, data=[74, 0]),
   midi.NoteOnEvent(tick=0, channel=1, data=[76, 36]),
   midi.NoteOnEvent(tick=240, channel=1, data=[76, 0]),
   midi.NoteOnEvent(tick=0, channel=1, data=[72, 36]),
   midi.NoteOnEvent(tick=240, channel=1, data=[72, 0]),
   midi.NoteOnEvent(tick=0, channel=1, data=[72, 36]),
   midi.NoteOnEvent(tick=960, channel=1, data=[72, 0]),
   midi.NoteOnEvent(tick=0, channel=1, data=[71, 36]),
   midi.NoteOnEvent(tick=240, channel=1, data=[71, 0]),
   midi.ControlChangeEvent(tick=240, channel=1, data=[7, 104]),
   midi.NoteOnEvent(tick=0, channel=1, data=[71, 94]),
   midi.NoteOnEvent(tick=480, channel=1, data=[71, 0]),
   midi.NoteOnEvent(tick=0, channel=1, data=[72, 79]),
   midi.NoteOnEvent(tick=60, channel=1, data=[72, 0]),
   midi.NoteOnEvent(tick=0, channel=1, data=[71, 79]),
   midi.NoteOnEvent(tick=60, channel=1, data=[71, 0]),
   midi.NoteOnEvent(tick=0, channel=1, data=[69, 79]),
   midi.NoteOnEvent(tick=120, channel=1, data=[69, 0]),
   midi.NoteOnEvent(tick=0, channel=1, data=[71, 79]),
   midi.NoteOnEvent(tick=120, channel=1, data=[71, 0]),
   midi.NoteOnEvent(tick=0, channel=1, data=[72, 79]),
   midi.NoteOnEvent(tick=120, channel=1, data=[72, 0]),
   midi.NoteOnEvent(tick=0, channel=1, data=[71, 79]),
   midi.NoteOnEvent(tick=240, channel=1, data=[71, 0]),
   midi.NoteOnEvent(tick=0, channel=1, data=[71, 79]),
   midi.NoteOnEvent(tick=240, channel=1, data=[71, 0]),
   midi.NoteOnEvent(tick=0, channel=1, data=[69, 79]),
   midi.NoteOnEvent(tick=240, channel=1, data=[69, 0]),
   midi.NoteOnEvent(tick=0, channel=1, data=[72, 79]),
   midi.NoteOnEvent(tick=240, channel=1, data=[72, 0]),
   midi.NoteOnEvent(tick=0, channel=1, data=[71, 79]),
   midi.NoteOnEvent(tick=240, channel=1, data=[71, 0]),
   midi.NoteOnEvent(tick=0, channel=1, data=[67, 79]),
   midi.NoteOnEvent(tick=240, channel=1, data=[67, 0]),
   midi.NoteOnEvent(tick=0, channel=1, data=[66, 79]),
   midi.NoteOnEvent(tick=240, channel=1, data=[66, 0]),
   midi.NoteOnEvent(tick=0, channel=1, data=[69, 79]),
   midi.NoteOnEvent(tick=240, channel=1, data=[69, 0]),
   midi.NoteOnEvent(tick=0, channel=1, data=[67, 79]),
   midi.NoteOnEvent(tick=240, channel=1, data=[67, 0]),
   midi.NoteOnEvent(tick=720, channel=1, data=[71, 79]),
   midi.NoteOnEvent(tick=960, channel=1, data=[71, 0]),
   midi.NoteOnEvent(tick=0, channel=1, data=[74, 79]),
   midi.NoteOnEvent(tick=960, channel=1, data=[74, 0]),
   midi.NoteOnEvent(tick=0, channel=1, data=[72, 79]),
   midi.NoteOnEvent(tick=240, channel=1, data=[72, 0]),
   midi.NoteOnEvent(tick=0, channel=1, data=[71, 79]),
   midi.NoteOnEvent(tick=240, channel=1, data=[71, 0]),
   midi.NoteOnEvent(tick=0, channel=1, data=[69, 79]),
   midi.NoteOnEvent(tick=240, channel=1, data=[69, 0]),
   midi.NoteOnEvent(tick=0, channel=1, data=[67, 79]),
   midi.NoteOnEvent(tick=240, channel=1, data=[67, 0]),
   midi.NoteOnEvent(tick=0, channel=1, data=[74, 79]),
   midi.NoteOnEvent(tick=480, channel=1, data=[74, 0]),
   midi.NoteOnEvent(tick=0, channel=1, data=[62, 79]),
   midi.NoteOnEvent(tick=480, channel=1, data=[62, 0]),
   midi.NoteOnEvent(tick=0, channel=1, data=[67, 79]),
   midi.NoteOnEvent(tick=480, channel=1, data=[67, 0]),
   midi.NoteOnEvent(tick=0, channel=1, data=[72, 79]),
   midi.NoteOnEvent(tick=60, channel=1, data=[72, 0]),
   midi.NoteOnEvent(tick=0, channel=1, data=[71, 79]),
   midi.NoteOnEvent(tick=60, channel=1, data=[71, 0]),
   midi.NoteOnEvent(tick=0, channel=1, data=[69, 79]),
   midi.NoteOnEvent(tick=120, channel=1, data=[69, 0]),
   midi.NoteOnEvent(tick=0, channel=1, data=[71, 79]),
   midi.NoteOnEvent(tick=120, channel=1, data=[71, 0]),
   midi.NoteOnEvent(tick=0, channel=1, data=[72, 79]),
   midi.NoteOnEvent(tick=120, channel=1, data=[72, 0]),
   midi.NoteOnEvent(tick=0, channel=1, data=[71, 79]),
   midi.NoteOnEvent(tick=240, channel=1, data=[71, 0]),
   midi.NoteOnEvent(tick=0, channel=1, data=[71, 79]),
   midi.NoteOnEvent(tick=240, channel=1, data=[71, 0]),
   midi.NoteOnEvent(tick=0, channel=1, data=[69, 79]),
   midi.NoteOnEvent(tick=240, channel=1, data=[69, 0]),
   midi.NoteOnEvent(tick=0, channel=1, data=[72, 79]),
   midi.NoteOnEvent(tick=240, channel=1, data=[72, 0]),
   midi.NoteOnEvent(tick=0, channel=1, data=[71, 79]),
   midi.NoteOnEvent(tick=240, channel=1, data=[71, 0]),
   midi.NoteOnEvent(tick=0, channel=1, data=[67, 79]),
   midi.NoteOnEvent(tick=240, channel=1, data=[67, 0]),
   midi.NoteOnEvent(tick=0, channel=1, data=[66, 79]),
   midi.NoteOnEvent(tick=240, channel=1, data=[66, 0]),
   midi.NoteOnEvent(tick=0, channel=1, data=[69, 79]),
   midi.NoteOnEvent(tick=240, channel=1, data=[69, 0]),
   midi.NoteOnEvent(tick=0, channel=1, data=[67, 79]),
   midi.NoteOnEvent(tick=240, channel=1, data=[67, 0]),
   midi.NoteOnEvent(tick=720, channel=1, data=[71, 79]),
   midi.NoteOnEvent(tick=960, channel=1, data=[71, 0]),
   midi.NoteOnEvent(tick=0, channel=1, data=[74, 79]),
   midi.NoteOnEvent(tick=960, channel=1, data=[74, 0]),
   midi.NoteOnEvent(tick=0, channel=1, data=[72, 79]),
   midi.NoteOnEvent(tick=240, channel=1, data=[72, 0]),
   midi.NoteOnEvent(tick=0, channel=1, data=[71, 79]),
   midi.NoteOnEvent(tick=240, channel=1, data=[71, 0]),
   midi.NoteOnEvent(tick=0, channel=1, data=[69, 79]),
   midi.NoteOnEvent(tick=240, channel=1, data=[69, 0]),
   midi.NoteOnEvent(tick=0, channel=1, data=[67, 79]),
   midi.NoteOnEvent(tick=240, channel=1, data=[67, 0]),
   midi.NoteOnEvent(tick=0, channel=1, data=[74, 79]),
   midi.NoteOnEvent(tick=480, channel=1, data=[74, 0]),
   midi.NoteOnEvent(tick=0, channel=1, data=[62, 79]),
   midi.NoteOnEvent(tick=480, channel=1, data=[62, 0]),
   midi.NoteOnEvent(tick=0, channel=1, data=[67, 79]),
   midi.NoteOnEvent(tick=120, channel=1, data=[67, 0]),
   midi.NoteOnEvent(tick=0, channel=1, data=[62, 79]),
   midi.NoteOnEvent(tick=120, channel=1, data=[62, 0]),
   midi.NoteOnEvent(tick=0, channel=1, data=[62, 79]),
   midi.NoteOnEvent(tick=120, channel=1, data=[62, 0]),
   midi.NoteOnEvent(tick=0, channel=1, data=[62, 79]),
   midi.NoteOnEvent(tick=120, channel=1, data=[62, 0]),
   midi.NoteOnEvent(tick=0, channel=1, data=[62, 79]),
   midi.NoteOnEvent(tick=120, channel=1, data=[62, 0]),
   midi.NoteOnEvent(tick=0, channel=1, data=[62, 79]),
   midi.NoteOnEvent(tick=120, channel=1, data=[62, 0]),
   midi.NoteOnEvent(tick=0, channel=1, data=[62, 79]),
   midi.NoteOnEvent(tick=120, channel=1, data=[62, 0]),
   midi.NoteOnEvent(tick=0, channel=1, data=[62, 79]),
   midi.NoteOnEvent(tick=120, channel=1, data=[62, 0]),
   midi.ProgramChangeEvent(tick=0, channel=1, data=[4]),
   midi.NoteOnEvent(tick=0, channel=1, data=[62, 79]),
   midi.NoteOnEvent(tick=960, channel=1, data=[62, 0]),
   midi.NoteOnEvent(tick=0, channel=1, data=[62, 79]),
   midi.NoteOnEvent(tick=960, channel=1, data=[62, 0]),
   midi.NoteOnEvent(tick=0, channel=1, data=[66, 79]),
   midi.NoteOnEvent(tick=960, channel=1, data=[66, 0]),
   midi.ProgramChangeEvent(tick=0, channel=1, data=[1]),
   midi.NoteOnEvent(tick=0, channel=1, data=[67, 79]),
   midi.NoteOnEvent(tick=120, channel=1, data=[67, 0]),
   midi.NoteOnEvent(tick=0, channel=1, data=[62, 79]),
   midi.NoteOnEvent(tick=120, channel=1, data=[62, 0]),
   midi.NoteOnEvent(tick=0, channel=1, data=[62, 79]),
   midi.NoteOnEvent(tick=120, channel=1, data=[62, 0]),
   midi.NoteOnEvent(tick=0, channel=1, data=[62, 79]),
   midi.NoteOnEvent(tick=120, channel=1, data=[62, 0]),
   midi.NoteOnEvent(tick=0, channel=1, data=[62, 79]),
   midi.NoteOnEvent(tick=120, channel=1, data=[62, 0]),
   midi.NoteOnEvent(tick=0, channel=1, data=[62, 79]),
   midi.NoteOnEvent(tick=120, channel=1, data=[62, 0]),
   midi.NoteOnEvent(tick=0, channel=1, data=[62, 79]),
   midi.NoteOnEvent(tick=120, channel=1, data=[62, 0]),
   midi.NoteOnEvent(tick=0, channel=1, data=[62, 79]),
   midi.NoteOnEvent(tick=120, channel=1, data=[62, 0]),
   midi.ProgramChangeEvent(tick=0, channel=1, data=[4]),
   midi.NoteOnEvent(tick=0, channel=1, data=[62, 79]),
   midi.NoteOnEvent(tick=960, channel=1, data=[62, 0]),
   midi.NoteOnEvent(tick=0, channel=1, data=[62, 79]),
   midi.NoteOnEvent(tick=960, channel=1, data=[62, 0]),
   midi.NoteOnEvent(tick=0, channel=1, data=[66, 79]),
   midi.NoteOnEvent(tick=960, channel=1, data=[66, 0]),
   midi.ProgramChangeEvent(tick=0, channel=1, data=[1]),
   midi.NoteOnEvent(tick=0, channel=1, data=[67, 79]),
   midi.NoteOnEvent(tick=240, channel=1, data=[67, 0]),
   midi.NoteOnEvent(tick=0, channel=1, data=[55, 79]),
   midi.NoteOnEvent(tick=240, channel=1, data=[55, 0]),
   midi.NoteOnEvent(tick=0, channel=1, data=[57, 79]),
   midi.NoteOnEvent(tick=240, channel=1, data=[57, 0]),
   midi.NoteOnEvent(tick=0, channel=1, data=[59, 79]),
   midi.NoteOnEvent(tick=240, channel=1, data=[59, 0]),
   midi.NoteOnEvent(tick=0, channel=1, data=[60, 79]),
   midi.NoteOnEvent(tick=240, channel=1, data=[60, 0]),
   midi.NoteOnEvent(tick=0, channel=1, data=[62, 79]),
   midi.NoteOnEvent(tick=240, channel=1, data=[62, 0]),
   midi.NoteOnEvent(tick=0, channel=1, data=[64, 79]),
   midi.NoteOnEvent(tick=240, channel=1, data=[64, 0]),
   midi.NoteOnEvent(tick=0, channel=1, data=[66, 79]),
   midi.NoteOnEvent(tick=240, channel=1, data=[66, 0]),
   midi.NoteOnEvent(tick=0, channel=1, data=[67, 79]),
   midi.NoteOnEvent(tick=240, channel=1, data=[67, 0]),
   midi.NoteOnEvent(tick=0, channel=1, data=[66, 79]),
   midi.NoteOnEvent(tick=240, channel=1, data=[66, 0]),
   midi.NoteOnEvent(tick=0, channel=1, data=[64, 79]),
   midi.NoteOnEvent(tick=240, channel=1, data=[64, 0]),
   midi.NoteOnEvent(tick=0, channel=1, data=[62, 79]),
   midi.NoteOnEvent(tick=240, channel=1, data=[62, 0]),
   midi.NoteOnEvent(tick=0, channel=1, data=[60, 79]),
   midi.NoteOnEvent(tick=240, channel=1, data=[60, 0]),
   midi.NoteOnEvent(tick=0, channel=1, data=[59, 79]),
   midi.NoteOnEvent(tick=240, channel=1, data=[59, 0]),
   midi.NoteOnEvent(tick=0, channel=1, data=[57, 79]),
   midi.NoteOnEvent(tick=240, channel=1, data=[57, 0]),
   midi.NoteOnEvent(tick=0, channel=1, data=[55, 79]),
   midi.NoteOnEvent(tick=240, channel=1, data=[55, 0]),
   midi.NoteOnEvent(tick=0, channel=1, data=[62, 79]),
   midi.NoteOnEvent(tick=480, channel=1, data=[62, 0]),
   midi.NoteOnEvent(tick=0, channel=1, data=[78, 79]),
   midi.NoteOnEvent(tick=480, channel=1, data=[78, 0]),
   midi.NoteOnEvent(tick=0, channel=1, data=[78, 79]),
   midi.NoteOnEvent(tick=480, channel=1, data=[78, 0]),
   midi.NoteOnEvent(tick=2400, channel=1, data=[74, 79]),
   midi.NoteOnEvent(tick=960, channel=1, data=[74, 0]),
   midi.NoteOnEvent(tick=0, channel=1, data=[78, 79]),
   midi.NoteOnEvent(tick=480, channel=1, data=[78, 0]),
   midi.NoteOnEvent(tick=0, channel=1, data=[81, 79]),
   midi.NoteOnEvent(tick=480, channel=1, data=[81, 0]),
   midi.NoteOnEvent(tick=0, channel=1, data=[86, 79]),
   midi.NoteOnEvent(tick=480, channel=1, data=[86, 0]),
   midi.NoteOnEvent(tick=0, channel=1, data=[86, 79]),
   midi.NoteOnEvent(tick=960, channel=1, data=[86, 0]),
   midi.NoteOnEvent(tick=0, channel=1, data=[88, 79]),
   midi.NoteOnEvent(tick=240, channel=1, data=[88, 0]),
   midi.NoteOnEvent(tick=0, channel=1, data=[85, 79]),
   midi.NoteOnEvent(tick=240, channel=1, data=[85, 0]),
   midi.NoteOnEvent(tick=0, channel=1, data=[86, 79]),
   midi.NoteOnEvent(tick=480, channel=1, data=[86, 0]),
   midi.NoteOnEvent(tick=0, channel=1, data=[74, 79]),
   midi.NoteOnEvent(tick=960, channel=1, data=[74, 0]),
   midi.NoteOnEvent(tick=0, channel=1, data=[76, 79]),
   midi.NoteOnEvent(tick=240, channel=1, data=[76, 0]),
   midi.NoteOnEvent(tick=0, channel=1, data=[73, 79]),
   midi.NoteOnEvent(tick=240, channel=1, data=[73, 0]),
   midi.NoteOnEvent(tick=0, channel=1, data=[74, 79]),
   midi.NoteOnEvent(tick=480, channel=1, data=[74, 0]),
   midi.NoteOnEvent(tick=2400, channel=1, data=[86, 79]),
   midi.NoteOnEvent(tick=120, channel=1, data=[86, 0]),
   midi.NoteOnEvent(tick=0, channel=1, data=[81, 79]),
   midi.NoteOnEvent(tick=120, channel=1, data=[81, 0]),
   midi.NoteOnEvent(tick=0, channel=1, data=[83, 79]),
   midi.NoteOnEvent(tick=120, channel=1, data=[83, 0]),
   midi.NoteOnEvent(tick=0, channel=1, data=[81, 79]),
   midi.NoteOnEvent(tick=120, channel=1, data=[81, 0]),
   midi.NoteOnEvent(tick=0, channel=1, data=[86, 79]),
   midi.NoteOnEvent(tick=120, channel=1, data=[86, 0]),
   midi.NoteOnEvent(tick=0, channel=1, data=[81, 79]),
   midi.NoteOnEvent(tick=120, channel=1, data=[81, 0]),
   midi.NoteOnEvent(tick=0, channel=1, data=[83, 79]),
   midi.NoteOnEvent(tick=120, channel=1, data=[83, 0]),
   midi.NoteOnEvent(tick=0, channel=1, data=[81, 79]),
   midi.NoteOnEvent(tick=120, channel=1, data=[81, 0]),
   midi.NoteOnEvent(tick=0, channel=1, data=[81, 79]),
   midi.NoteOnEvent(tick=1920, channel=1, data=[81, 0]),
   midi.NoteOnEvent(tick=0, channel=1, data=[81, 79]),
   midi.NoteOnEvent(tick=480, channel=1, data=[81, 0]),
   midi.NoteOnEvent(tick=480, channel=1, data=[86, 79]),
   midi.NoteOnEvent(tick=120, channel=1, data=[86, 0]),
   midi.NoteOnEvent(tick=0, channel=1, data=[81, 79]),
   midi.NoteOnEvent(tick=120, channel=1, data=[81, 0]),
   midi.NoteOnEvent(tick=0, channel=1, data=[83, 79]),
   midi.NoteOnEvent(tick=120, channel=1, data=[83, 0]),
   midi.NoteOnEvent(tick=0, channel=1, data=[81, 79]),
   midi.NoteOnEvent(tick=120, channel=1, data=[81, 0]),
   midi.NoteOnEvent(tick=0, channel=1, data=[86, 79]),
   midi.NoteOnEvent(tick=120, channel=1, data=[86, 0]),
   midi.NoteOnEvent(tick=0, channel=1, data=[81, 79]),
   midi.NoteOnEvent(tick=120, channel=1, data=[81, 0]),
   midi.NoteOnEvent(tick=0, channel=1, data=[83, 79]),
   midi.NoteOnEvent(tick=120, channel=1, data=[83, 0]),
   midi.NoteOnEvent(tick=0, channel=1, data=[81, 79]),
   midi.NoteOnEvent(tick=120, channel=1, data=[81, 0]),
   midi.NoteOnEvent(tick=0, channel=1, data=[81, 79]),
   midi.NoteOnEvent(tick=1920, channel=1, data=[81, 0]),
   midi.NoteOnEvent(tick=0, channel=1, data=[81, 79]),
   midi.NoteOnEvent(tick=120, channel=1, data=[81, 0]),
   midi.NoteOnEvent(tick=0, channel=1, data=[74, 79]),
   midi.NoteOnEvent(tick=120, channel=1, data=[74, 0]),
   midi.NoteOnEvent(tick=0, channel=1, data=[73, 79]),
   midi.NoteOnEvent(tick=120, channel=1, data=[73, 0]),
   midi.NoteOnEvent(tick=0, channel=1, data=[74, 79]),
   midi.NoteOnEvent(tick=120, channel=1, data=[74, 0]),
   midi.NoteOnEvent(tick=0, channel=1, data=[72, 79]),
   midi.NoteOnEvent(tick=120, channel=1, data=[72, 0]),
   midi.NoteOnEvent(tick=0, channel=1, data=[74, 79]),
   midi.NoteOnEvent(tick=120, channel=1, data=[74, 0]),
   midi.NoteOnEvent(tick=0, channel=1, data=[71, 79]),
   midi.NoteOnEvent(tick=120, channel=1, data=[71, 0]),
   midi.NoteOnEvent(tick=0, channel=1, data=[74, 79]),
   midi.NoteOnEvent(tick=120, channel=1, data=[74, 0]),
   midi.NoteOnEvent(tick=0, channel=1, data=[69, 79]),
   midi.NoteOnEvent(tick=120, channel=1, data=[69, 0]),
   midi.NoteOnEvent(tick=0, channel=1, data=[74, 79]),
   midi.NoteOnEvent(tick=120, channel=1, data=[74, 0]),
   midi.NoteOnEvent(tick=0, channel=1, data=[71, 79]),
   midi.NoteOnEvent(tick=120, channel=1, data=[71, 0]),
   midi.NoteOnEvent(tick=0, channel=1, data=[74, 79]),
   midi.NoteOnEvent(tick=120, channel=1, data=[74, 0]),
   midi.NoteOnEvent(tick=0, channel=1, data=[72, 79]),
   midi.NoteOnEvent(tick=120, channel=1, data=[72, 0]),
   midi.NoteOnEvent(tick=0, channel=1, data=[74, 79]),
   midi.NoteOnEvent(tick=120, channel=1, data=[74, 0]),
   midi.NoteOnEvent(tick=0, channel=1, data=[69, 79]),
   midi.NoteOnEvent(tick=120, channel=1, data=[69, 0]),
   midi.NoteOnEvent(tick=0, channel=1, data=[74, 79]),
   midi.NoteOnEvent(tick=120, channel=1, data=[74, 0]),
   midi.NoteOnEvent(tick=0, channel=1, data=[71, 79]),
   midi.NoteOnEvent(tick=480, channel=1, data=[71, 0]),
   midi.NoteOnEvent(tick=600, channel=1, data=[71, 79]),
   midi.NoteOnEvent(tick=120, channel=1, data=[71, 0]),
   midi.NoteOnEvent(tick=0, channel=1, data=[72, 79]),
   midi.NoteOnEvent(tick=120, channel=1, data=[72, 0]),
   midi.NoteOnEvent(tick=0, channel=1, data=[74, 79]),
   midi.NoteOnEvent(tick=120, channel=1, data=[74, 0]),
   midi.NoteOnEvent(tick=0, channel=1, data=[76, 79]),
   midi.NoteOnEvent(tick=120, channel=1, data=[76, 0]),
   midi.NoteOnEvent(tick=0, channel=1, data=[78, 79]),
   midi.NoteOnEvent(tick=120, channel=1, data=[78, 0]),
   midi.NoteOnEvent(tick=0, channel=1, data=[79, 79]),
   midi.NoteOnEvent(tick=120, channel=1, data=[79, 0]),
   midi.NoteOnEvent(tick=0, channel=1, data=[81, 79]),
   midi.NoteOnEvent(tick=120, channel=1, data=[81, 0]),
   midi.NoteOnEvent(tick=0, channel=1, data=[83, 79]),
   midi.NoteOnEvent(tick=960, channel=1, data=[83, 0]),
   midi.NoteOnEvent(tick=0, channel=1, data=[81, 79]),
   midi.NoteOnEvent(tick=480, channel=1, data=[81, 0]),
   midi.NoteOnEvent(tick=0, channel=1, data=[79, 79]),
   midi.NoteOnEvent(tick=480, channel=1, data=[79, 0]),
   midi.NoteOnEvent(tick=0, channel=1, data=[78, 79]),
   midi.NoteOnEvent(tick=720, channel=1, data=[78, 0]),
   midi.NoteOnEvent(tick=0, channel=1, data=[79, 79]),
   midi.NoteOnEvent(tick=240, channel=1, data=[79, 0]),
   midi.NoteOnEvent(tick=0, channel=1, data=[78, 79]),
   midi.NoteOnEvent(tick=480, channel=1, data=[78, 0]),
   midi.NoteOnEvent(tick=0, channel=1, data=[76, 79]),
   midi.NoteOnEvent(tick=480, channel=1, data=[76, 0]),
   midi.NoteOnEvent(tick=0, channel=1, data=[74, 79]),
   midi.NoteOnEvent(tick=480, channel=1, data=[74, 0]),
   midi.NoteOnEvent(tick=1560, channel=1, data=[67, 79]),
   midi.NoteOnEvent(tick=120, channel=1, data=[67, 0]),
   midi.NoteOnEvent(tick=0, channel=1, data=[69, 79]),
   midi.NoteOnEvent(tick=120, channel=1, data=[69, 0]),
   midi.NoteOnEvent(tick=0, channel=1, data=[71, 79]),
   midi.NoteOnEvent(tick=120, channel=1, data=[71, 0]),
   midi.NoteOnEvent(tick=0, channel=1, data=[72, 79]),
   midi.NoteOnEvent(tick=120, channel=1, data=[72, 0]),
   midi.NoteOnEvent(tick=0, channel=1, data=[74, 79]),
   midi.NoteOnEvent(tick=120, channel=1, data=[74, 0]),
   midi.NoteOnEvent(tick=0, channel=1, data=[76, 79]),
   midi.NoteOnEvent(tick=120, channel=1, data=[76, 0]),
   midi.NoteOnEvent(tick=0, channel=1, data=[78, 79]),
   midi.NoteOnEvent(tick=120, channel=1, data=[78, 0]),
   midi.NoteOnEvent(tick=0, channel=1, data=[79, 79]),
   midi.NoteOnEvent(tick=120, channel=1, data=[79, 0]),
   midi.NoteOnEvent(tick=0, channel=1, data=[74, 79]),
   midi.NoteOnEvent(tick=120, channel=1, data=[74, 0]),
   midi.NoteOnEvent(tick=0, channel=1, data=[76, 79]),
   midi.NoteOnEvent(tick=120, channel=1, data=[76, 0]),
   midi.NoteOnEvent(tick=0, channel=1, data=[78, 79]),
   midi.NoteOnEvent(tick=120, channel=1, data=[78, 0]),
   midi.NoteOnEvent(tick=0, channel=1, data=[79, 79]),
   midi.NoteOnEvent(tick=120, channel=1, data=[79, 0]),
   midi.NoteOnEvent(tick=0, channel=1, data=[81, 79]),
   midi.NoteOnEvent(tick=120, channel=1, data=[81, 0]),
   midi.NoteOnEvent(tick=0, channel=1, data=[83, 79]),
   midi.NoteOnEvent(tick=120, channel=1, data=[83, 0]),
   midi.NoteOnEvent(tick=0, channel=1, data=[84, 79]),
   midi.NoteOnEvent(tick=120, channel=1, data=[84, 0]),
   midi.NoteOnEvent(tick=0, channel=1, data=[86, 79]),
   midi.NoteOnEvent(tick=960, channel=1, data=[86, 0]),
   midi.NoteOnEvent(tick=0, channel=1, data=[85, 79]),
   midi.NoteOnEvent(tick=480, channel=1, data=[85, 0]),
   midi.NoteOnEvent(tick=0, channel=1, data=[83, 79]),
   midi.NoteOnEvent(tick=480, channel=1, data=[83, 0]),
   midi.NoteOnEvent(tick=0, channel=1, data=[81, 79]),
   midi.NoteOnEvent(tick=720, channel=1, data=[81, 0]),
   midi.NoteOnEvent(tick=0, channel=1, data=[83, 79]),
   midi.NoteOnEvent(tick=240, channel=1, data=[83, 0]),
   midi.NoteOnEvent(tick=0, channel=1, data=[74, 79]),
   midi.NoteOnEvent(tick=480, channel=1, data=[74, 0]),
   midi.NoteOnEvent(tick=0, channel=1, data=[73, 79]),
   midi.NoteOnEvent(tick=480, channel=1, data=[73, 0]),
   midi.NoteOnEvent(tick=0, channel=1, data=[74, 79]),
   midi.NoteOnEvent(tick=480, channel=1, data=[74, 0]),
   midi.NoteOnEvent(tick=0, channel=1, data=[62, 79]),
   midi.NoteOnEvent(tick=960, channel=1, data=[62, 0]),
   midi.NoteOnEvent(tick=0, channel=1, data=[67, 79]),
   midi.NoteOnEvent(tick=480, channel=1, data=[67, 0]),
   midi.NoteOnEvent(tick=0, channel=1, data=[66, 79]),
   midi.NoteOnEvent(tick=480, channel=1, data=[66, 0]),
   midi.NoteOnEvent(tick=0, channel=1, data=[73, 79]),
   midi.NoteOnEvent(tick=120, channel=1, data=[73, 0]),
   midi.NoteOnEvent(tick=0, channel=1, data=[71, 79]),
   midi.NoteOnEvent(tick=120, channel=1, data=[71, 0]),
   midi.NoteOnEvent(tick=0, channel=1, data=[69, 79]),
   midi.NoteOnEvent(tick=120, channel=1, data=[69, 0]),
   midi.NoteOnEvent(tick=0, channel=1, data=[67, 79]),
   midi.NoteOnEvent(tick=120, channel=1, data=[67, 0]),
   midi.NoteOnEvent(tick=0, channel=1, data=[69, 79]),
   midi.NoteOnEvent(tick=240, channel=1, data=[69, 0]),
   midi.NoteOnEvent(tick=0, channel=1, data=[66, 79]),
   midi.NoteOnEvent(tick=240, channel=1, data=[66, 0]),
   midi.NoteOnEvent(tick=0, channel=1, data=[67, 79]),
   midi.NoteOnEvent(tick=480, channel=1, data=[67, 0]),
   midi.NoteOnEvent(tick=0, channel=1, data=[66, 79]),
   midi.NoteOnEvent(tick=480, channel=1, data=[66, 0]),
   midi.NoteOnEvent(tick=0, channel=1, data=[69, 79]),
   midi.NoteOnEvent(tick=480, channel=1, data=[69, 0]),
   midi.NoteOnEvent(tick=0, channel=1, data=[69, 79]),
   midi.NoteOnEvent(tick=480, channel=1, data=[69, 0]),
   midi.NoteOnEvent(tick=480, channel=1, data=[71, 79]),
   midi.NoteOnEvent(tick=480, channel=1, data=[71, 0]),
   midi.NoteOnEvent(tick=0, channel=1, data=[72, 79]),
   midi.NoteOnEvent(tick=60, channel=1, data=[72, 0]),
   midi.NoteOnEvent(tick=0, channel=1, data=[71, 79]),
   midi.NoteOnEvent(tick=60, channel=1, data=[71, 0]),
   midi.NoteOnEvent(tick=0, channel=1, data=[69, 79]),
   midi.NoteOnEvent(tick=120, channel=1, data=[69, 0]),
   midi.NoteOnEvent(tick=0, channel=1, data=[71, 79]),
   midi.NoteOnEvent(tick=120, channel=1, data=[71, 0]),
   midi.NoteOnEvent(tick=0, channel=1, data=[72, 79]),
   midi.NoteOnEvent(tick=120, channel=1, data=[72, 0]),
   midi.NoteOnEvent(tick=0, channel=1, data=[71, 79]),
   midi.NoteOnEvent(tick=240, channel=1, data=[71, 0]),
   midi.NoteOnEvent(tick=0, channel=1, data=[71, 79]),
   midi.NoteOnEvent(tick=240, channel=1, data=[71, 0]),
   midi.NoteOnEvent(tick=0, channel=1, data=[69, 79]),
   midi.NoteOnEvent(tick=240, channel=1, data=[69, 0]),
   midi.NoteOnEvent(tick=0, channel=1, data=[72, 79]),
   midi.NoteOnEvent(tick=240, channel=1, data=[72, 0]),
   midi.NoteOnEvent(tick=0, channel=1, data=[71, 79]),
   midi.NoteOnEvent(tick=240, channel=1, data=[71, 0]),
   midi.NoteOnEvent(tick=0, channel=1, data=[67, 79]),
   midi.NoteOnEvent(tick=240, channel=1, data=[67, 0]),
   midi.NoteOnEvent(tick=0, channel=1, data=[66, 79]),
   midi.NoteOnEvent(tick=240, channel=1, data=[66, 0]),
   midi.NoteOnEvent(tick=0, channel=1, data=[69, 79]),
   midi.NoteOnEvent(tick=240, channel=1, data=[69, 0]),
   midi.NoteOnEvent(tick=0, channel=1, data=[67, 79]),
   midi.NoteOnEvent(tick=240, channel=1, data=[67, 0]),
   midi.NoteOnEvent(tick=720, channel=1, data=[71, 79]),
   midi.NoteOnEvent(tick=960, channel=1, data=[71, 0]),
   midi.NoteOnEvent(tick=0, channel=1, data=[74, 79]),
   midi.NoteOnEvent(tick=960, channel=1, data=[74, 0]),
   midi.NoteOnEvent(tick=0, channel=1, data=[72, 79]),
   midi.NoteOnEvent(tick=240, channel=1, data=[72, 0]),
   midi.NoteOnEvent(tick=0, channel=1, data=[71, 79]),
   midi.NoteOnEvent(tick=240, channel=1, data=[71, 0]),
   midi.NoteOnEvent(tick=0, channel=1, data=[69, 79]),
   midi.NoteOnEvent(tick=240, channel=1, data=[69, 0]),
   midi.NoteOnEvent(tick=0, channel=1, data=[67, 79]),
   midi.NoteOnEvent(tick=240, channel=1, data=[67, 0]),
   midi.NoteOnEvent(tick=0, channel=1, data=[74, 79]),
   midi.NoteOnEvent(tick=480, channel=1, data=[74, 0]),
   midi.NoteOnEvent(tick=0, channel=1, data=[62, 79]),
   midi.NoteOnEvent(tick=480, channel=1, data=[62, 0]),
   midi.NoteOnEvent(tick=0, channel=1, data=[67, 79]),
   midi.NoteOnEvent(tick=480, channel=1, data=[67, 0]),
   midi.NoteOnEvent(tick=0, channel=1, data=[72, 79]),
   midi.NoteOnEvent(tick=60, channel=1, data=[72, 0]),
   midi.NoteOnEvent(tick=0, channel=1, data=[71, 79]),
   midi.NoteOnEvent(tick=60, channel=1, data=[71, 0]),
   midi.NoteOnEvent(tick=0, channel=1, data=[69, 79]),
   midi.NoteOnEvent(tick=120, channel=1, data=[69, 0]),
   midi.NoteOnEvent(tick=0, channel=1, data=[71, 79]),
   midi.NoteOnEvent(tick=120, channel=1, data=[71, 0]),
   midi.NoteOnEvent(tick=0, channel=1, data=[72, 79]),
   midi.NoteOnEvent(tick=120, channel=1, data=[72, 0]),
   midi.NoteOnEvent(tick=0, channel=1, data=[71, 79]),
   midi.NoteOnEvent(tick=240, channel=1, data=[71, 0]),
   midi.NoteOnEvent(tick=0, channel=1, data=[71, 79]),
   midi.NoteOnEvent(tick=240, channel=1, data=[71, 0]),
   midi.NoteOnEvent(tick=0, channel=1, data=[69, 79]),
   midi.NoteOnEvent(tick=240, channel=1, data=[69, 0]),
   midi.NoteOnEvent(tick=0, channel=1, data=[72, 79]),
   midi.NoteOnEvent(tick=240, channel=1, data=[72, 0]),
   midi.NoteOnEvent(tick=0, channel=1, data=[71, 79]),
   midi.NoteOnEvent(tick=240, channel=1, data=[71, 0]),
   midi.NoteOnEvent(tick=0, channel=1, data=[67, 79]),
   midi.NoteOnEvent(tick=240, channel=1, data=[67, 0]),
   midi.NoteOnEvent(tick=0, channel=1, data=[66, 79]),
   midi.NoteOnEvent(tick=240, channel=1, data=[66, 0]),
   midi.NoteOnEvent(tick=0, channel=1, data=[69, 79]),
   midi.NoteOnEvent(tick=240, channel=1, data=[69, 0]),
   midi.NoteOnEvent(tick=0, channel=1, data=[67, 79]),
   midi.NoteOnEvent(tick=240, channel=1, data=[67, 0]),
   midi.NoteOnEvent(tick=720, channel=1, data=[71, 79]),
   midi.NoteOnEvent(tick=960, channel=1, data=[71, 0]),
   midi.NoteOnEvent(tick=0, channel=1, data=[74, 79]),
   midi.NoteOnEvent(tick=960, channel=1, data=[74, 0]),
   midi.NoteOnEvent(tick=0, channel=1, data=[72, 79]),
   midi.NoteOnEvent(tick=240, channel=1, data=[72, 0]),
   midi.NoteOnEvent(tick=0, channel=1, data=[71, 79]),
   midi.NoteOnEvent(tick=240, channel=1, data=[71, 0]),
   midi.NoteOnEvent(tick=0, channel=1, data=[69, 79]),
   midi.NoteOnEvent(tick=240, channel=1, data=[69, 0]),
   midi.NoteOnEvent(tick=0, channel=1, data=[67, 79]),
   midi.NoteOnEvent(tick=240, channel=1, data=[67, 0]),
   midi.NoteOnEvent(tick=0, channel=1, data=[74, 79]),
   midi.NoteOnEvent(tick=480, channel=1, data=[74, 0]),
   midi.NoteOnEvent(tick=0, channel=1, data=[62, 79]),
   midi.NoteOnEvent(tick=480, channel=1, data=[62, 0]),
   midi.NoteOnEvent(tick=0, channel=1, data=[67, 79]),
   midi.NoteOnEvent(tick=120, channel=1, data=[67, 0]),
   midi.NoteOnEvent(tick=0, channel=1, data=[62, 79]),
   midi.NoteOnEvent(tick=120, channel=1, data=[62, 0]),
   midi.NoteOnEvent(tick=0, channel=1, data=[62, 79]),
   midi.NoteOnEvent(tick=120, channel=1, data=[62, 0]),
   midi.NoteOnEvent(tick=0, channel=1, data=[62, 79]),
   midi.NoteOnEvent(tick=120, channel=1, data=[62, 0]),
   midi.NoteOnEvent(tick=0, channel=1, data=[62, 79]),
   midi.NoteOnEvent(tick=120, channel=1, data=[62, 0]),
   midi.NoteOnEvent(tick=0, channel=1, data=[62, 79]),
   midi.NoteOnEvent(tick=120, channel=1, data=[62, 0]),
   midi.NoteOnEvent(tick=0, channel=1, data=[62, 79]),
   midi.NoteOnEvent(tick=120, channel=1, data=[62, 0]),
   midi.NoteOnEvent(tick=0, channel=1, data=[62, 79]),
   midi.NoteOnEvent(tick=120, channel=1, data=[62, 0]),
   midi.ProgramChangeEvent(tick=0, channel=1, data=[4]),
   midi.NoteOnEvent(tick=0, channel=1, data=[62, 79]),
   midi.NoteOnEvent(tick=960, channel=1, data=[62, 0]),
   midi.NoteOnEvent(tick=0, channel=1, data=[62, 79]),
   midi.NoteOnEvent(tick=960, channel=1, data=[62, 0]),
   midi.NoteOnEvent(tick=0, channel=1, data=[66, 79]),
   midi.NoteOnEvent(tick=960, channel=1, data=[66, 0]),
   midi.ProgramChangeEvent(tick=0, channel=1, data=[1]),
   midi.NoteOnEvent(tick=0, channel=1, data=[67, 79]),
   midi.NoteOnEvent(tick=120, channel=1, data=[67, 0]),
   midi.NoteOnEvent(tick=0, channel=1, data=[62, 79]),
   midi.NoteOnEvent(tick=120, channel=1, data=[62, 0]),
   midi.NoteOnEvent(tick=0, channel=1, data=[62, 79]),
   midi.NoteOnEvent(tick=120, channel=1, data=[62, 0]),
   midi.NoteOnEvent(tick=0, channel=1, data=[62, 79]),
   midi.NoteOnEvent(tick=120, channel=1, data=[62, 0]),
   midi.NoteOnEvent(tick=0, channel=1, data=[62, 79]),
   midi.NoteOnEvent(tick=120, channel=1, data=[62, 0]),
   midi.NoteOnEvent(tick=0, channel=1, data=[62, 79]),
   midi.NoteOnEvent(tick=120, channel=1, data=[62, 0]),
   midi.NoteOnEvent(tick=0, channel=1, data=[62, 79]),
   midi.NoteOnEvent(tick=120, channel=1, data=[62, 0]),
   midi.NoteOnEvent(tick=0, channel=1, data=[62, 79]),
   midi.NoteOnEvent(tick=120, channel=1, data=[62, 0]),
   midi.ProgramChangeEvent(tick=0, channel=1, data=[4]),
   midi.NoteOnEvent(tick=0, channel=1, data=[62, 79]),
   midi.NoteOnEvent(tick=960, channel=1, data=[62, 0]),
   midi.NoteOnEvent(tick=0, channel=1, data=[62, 79]),
   midi.NoteOnEvent(tick=960, channel=1, data=[62, 0]),
   midi.NoteOnEvent(tick=0, channel=1, data=[66, 79]),
   midi.NoteOnEvent(tick=960, channel=1, data=[66, 0]),
   midi.ProgramChangeEvent(tick=0, channel=1, data=[1]),
   midi.NoteOnEvent(tick=0, channel=1, data=[67, 79]),
   midi.NoteOnEvent(tick=240, channel=1, data=[67, 0]),
   midi.NoteOnEvent(tick=0, channel=1, data=[55, 79]),
   midi.NoteOnEvent(tick=240, channel=1, data=[55, 0]),
   midi.NoteOnEvent(tick=0, channel=1, data=[57, 79]),
   midi.NoteOnEvent(tick=240, channel=1, data=[57, 0]),
   midi.NoteOnEvent(tick=0, channel=1, data=[59, 79]),
   midi.NoteOnEvent(tick=240, channel=1, data=[59, 0]),
   midi.NoteOnEvent(tick=0, channel=1, data=[60, 79]),
   midi.NoteOnEvent(tick=240, channel=1, data=[60, 0]),
   midi.NoteOnEvent(tick=0, channel=1, data=[62, 79]),
   midi.NoteOnEvent(tick=240, channel=1, data=[62, 0]),
   midi.NoteOnEvent(tick=0, channel=1, data=[64, 79]),
   midi.NoteOnEvent(tick=240, channel=1, data=[64, 0]),
   midi.NoteOnEvent(tick=0, channel=1, data=[66, 79]),
   midi.NoteOnEvent(tick=240, channel=1, data=[66, 0]),
   midi.NoteOnEvent(tick=0, channel=1, data=[67, 79]),
   midi.NoteOnEvent(tick=240, channel=1, data=[67, 0]),
   midi.NoteOnEvent(tick=0, channel=1, data=[66, 79]),
   midi.NoteOnEvent(tick=240, channel=1, data=[66, 0]),
   midi.NoteOnEvent(tick=0, channel=1, data=[64, 79]),
   midi.NoteOnEvent(tick=240, channel=1, data=[64, 0]),
   midi.NoteOnEvent(tick=0, channel=1, data=[62, 79]),
   midi.NoteOnEvent(tick=240, channel=1, data=[62, 0]),
   midi.NoteOnEvent(tick=0, channel=1, data=[60, 79]),
   midi.NoteOnEvent(tick=240, channel=1, data=[60, 0]),
   midi.NoteOnEvent(tick=0, channel=1, data=[59, 79]),
   midi.NoteOnEvent(tick=240, channel=1, data=[59, 0]),
   midi.NoteOnEvent(tick=0, channel=1, data=[57, 79]),
   midi.NoteOnEvent(tick=240, channel=1, data=[57, 0]),
   midi.NoteOnEvent(tick=0, channel=1, data=[55, 79]),
   midi.NoteOnEvent(tick=240, channel=1, data=[55, 0]),
   midi.NoteOnEvent(tick=0, channel=1, data=[62, 79]),
   midi.NoteOnEvent(tick=480, channel=1, data=[62, 0]),
   midi.NoteOnEvent(tick=0, channel=1, data=[78, 79]),
   midi.NoteOnEvent(tick=480, channel=1, data=[78, 0]),
   midi.NoteOnEvent(tick=0, channel=1, data=[78, 79]),
   midi.NoteOnEvent(tick=480, channel=1, data=[78, 0]),
   midi.NoteOnEvent(tick=2400, channel=1, data=[74, 79]),
   midi.NoteOnEvent(tick=960, channel=1, data=[74, 0]),
   midi.NoteOnEvent(tick=0, channel=1, data=[78, 79]),
   midi.NoteOnEvent(tick=480, channel=1, data=[78, 0]),
   midi.NoteOnEvent(tick=0, channel=1, data=[81, 79]),
   midi.NoteOnEvent(tick=480, channel=1, data=[81, 0]),
   midi.NoteOnEvent(tick=0, channel=1, data=[86, 79]),
   midi.NoteOnEvent(tick=480, channel=1, data=[86, 0]),
   midi.NoteOnEvent(tick=0, channel=1, data=[86, 79]),
   midi.NoteOnEvent(tick=960, channel=1, data=[86, 0]),
   midi.NoteOnEvent(tick=0, channel=1, data=[88, 79]),
   midi.NoteOnEvent(tick=240, channel=1, data=[88, 0]),
   midi.NoteOnEvent(tick=0, channel=1, data=[85, 79]),
   midi.NoteOnEvent(tick=240, channel=1, data=[85, 0]),
   midi.NoteOnEvent(tick=0, channel=1, data=[86, 79]),
   midi.NoteOnEvent(tick=480, channel=1, data=[86, 0]),
   midi.NoteOnEvent(tick=0, channel=1, data=[74, 79]),
   midi.NoteOnEvent(tick=960, channel=1, data=[74, 0]),
   midi.NoteOnEvent(tick=0, channel=1, data=[76, 79]),
   midi.NoteOnEvent(tick=240, channel=1, data=[76, 0]),
   midi.NoteOnEvent(tick=0, channel=1, data=[73, 79]),
   midi.NoteOnEvent(tick=240, channel=1, data=[73, 0]),
   midi.NoteOnEvent(tick=0, channel=1, data=[74, 79]),
   midi.NoteOnEvent(tick=480, channel=1, data=[74, 0]),
   midi.NoteOnEvent(tick=2400, channel=1, data=[86, 79]),
   midi.NoteOnEvent(tick=120, channel=1, data=[86, 0]),
   midi.NoteOnEvent(tick=0, channel=1, data=[81, 79]),
   midi.NoteOnEvent(tick=120, channel=1, data=[81, 0]),
   midi.NoteOnEvent(tick=0, channel=1, data=[83, 79]),
   midi.NoteOnEvent(tick=120, channel=1, data=[83, 0]),
   midi.NoteOnEvent(tick=0, channel=1, data=[81, 79]),
   midi.NoteOnEvent(tick=120, channel=1, data=[81, 0]),
   midi.NoteOnEvent(tick=0, channel=1, data=[86, 79]),
   midi.NoteOnEvent(tick=120, channel=1, data=[86, 0]),
   midi.NoteOnEvent(tick=0, channel=1, data=[81, 79]),
   midi.NoteOnEvent(tick=120, channel=1, data=[81, 0]),
   midi.NoteOnEvent(tick=0, channel=1, data=[83, 79]),
   midi.NoteOnEvent(tick=120, channel=1, data=[83, 0]),
   midi.NoteOnEvent(tick=0, channel=1, data=[81, 79]),
   midi.NoteOnEvent(tick=120, channel=1, data=[81, 0]),
   midi.NoteOnEvent(tick=0, channel=1, data=[81, 79]),
   midi.NoteOnEvent(tick=1920, channel=1, data=[81, 0]),
   midi.NoteOnEvent(tick=0, channel=1, data=[81, 79]),
   midi.NoteOnEvent(tick=480, channel=1, data=[81, 0]),
   midi.NoteOnEvent(tick=480, channel=1, data=[86, 79]),
   midi.NoteOnEvent(tick=120, channel=1, data=[86, 0]),
   midi.NoteOnEvent(tick=0, channel=1, data=[81, 79]),
   midi.NoteOnEvent(tick=120, channel=1, data=[81, 0]),
   midi.NoteOnEvent(tick=0, channel=1, data=[83, 79]),
   midi.NoteOnEvent(tick=120, channel=1, data=[83, 0]),
   midi.NoteOnEvent(tick=0, channel=1, data=[81, 79]),
   midi.NoteOnEvent(tick=120, channel=1, data=[81, 0]),
   midi.NoteOnEvent(tick=0, channel=1, data=[86, 79]),
   midi.NoteOnEvent(tick=120, channel=1, data=[86, 0]),
   midi.NoteOnEvent(tick=0, channel=1, data=[81, 79]),
   midi.NoteOnEvent(tick=120, channel=1, data=[81, 0]),
   midi.NoteOnEvent(tick=0, channel=1, data=[83, 79]),
   midi.NoteOnEvent(tick=120, channel=1, data=[83, 0]),
   midi.NoteOnEvent(tick=0, channel=1, data=[81, 79]),
   midi.NoteOnEvent(tick=120, channel=1, data=[81, 0]),
   midi.NoteOnEvent(tick=0, channel=1, data=[81, 79]),
   midi.NoteOnEvent(tick=1920, channel=1, data=[81, 0]),
   midi.NoteOnEvent(tick=0, channel=1, data=[81, 79]),
   midi.NoteOnEvent(tick=120, channel=1, data=[81, 0]),
   midi.NoteOnEvent(tick=0, channel=1, data=[74, 79]),
   midi.NoteOnEvent(tick=120, channel=1, data=[74, 0]),
   midi.NoteOnEvent(tick=0, channel=1, data=[73, 79]),
   midi.NoteOnEvent(tick=120, channel=1, data=[73, 0]),
   midi.NoteOnEvent(tick=0, channel=1, data=[74, 79]),
   midi.NoteOnEvent(tick=120, channel=1, data=[74, 0]),
   midi.NoteOnEvent(tick=0, channel=1, data=[72, 79]),
   midi.NoteOnEvent(tick=120, channel=1, data=[72, 0]),
   midi.NoteOnEvent(tick=0, channel=1, data=[74, 79]),
   midi.NoteOnEvent(tick=120, channel=1, data=[74, 0]),
   midi.NoteOnEvent(tick=0, channel=1, data=[71, 79]),
   midi.NoteOnEvent(tick=120, channel=1, data=[71, 0]),
   midi.NoteOnEvent(tick=0, channel=1, data=[74, 79]),
   midi.NoteOnEvent(tick=120, channel=1, data=[74, 0]),
   midi.NoteOnEvent(tick=0, channel=1, data=[69, 79]),
   midi.NoteOnEvent(tick=120, channel=1, data=[69, 0]),
   midi.NoteOnEvent(tick=0, channel=1, data=[74, 79]),
   midi.NoteOnEvent(tick=120, channel=1, data=[74, 0]),
   midi.NoteOnEvent(tick=0, channel=1, data=[71, 79]),
   midi.NoteOnEvent(tick=120, channel=1, data=[71, 0]),
   midi.NoteOnEvent(tick=0, channel=1, data=[74, 79]),
   midi.NoteOnEvent(tick=120, channel=1, data=[74, 0]),
   midi.NoteOnEvent(tick=0, channel=1, data=[72, 79]),
   midi.NoteOnEvent(tick=120, channel=1, data=[72, 0]),
   midi.NoteOnEvent(tick=0, channel=1, data=[74, 79]),
   midi.NoteOnEvent(tick=120, channel=1, data=[74, 0]),
   midi.NoteOnEvent(tick=0, channel=1, data=[69, 79]),
   midi.NoteOnEvent(tick=120, channel=1, data=[69, 0]),
   midi.NoteOnEvent(tick=0, channel=1, data=[74, 79]),
   midi.NoteOnEvent(tick=120, channel=1, data=[74, 0]),
   midi.NoteOnEvent(tick=0, channel=1, data=[71, 79]),
   midi.NoteOnEvent(tick=480, channel=1, data=[71, 0]),
   midi.NoteOnEvent(tick=600, channel=1, data=[71, 79]),
   midi.NoteOnEvent(tick=120, channel=1, data=[71, 0]),
   midi.NoteOnEvent(tick=0, channel=1, data=[72, 79]),
   midi.NoteOnEvent(tick=120, channel=1, data=[72, 0]),
   midi.NoteOnEvent(tick=0, channel=1, data=[74, 79]),
   midi.NoteOnEvent(tick=120, channel=1, data=[74, 0]),
   midi.NoteOnEvent(tick=0, channel=1, data=[76, 79]),
   midi.NoteOnEvent(tick=120, channel=1, data=[76, 0]),
   midi.NoteOnEvent(tick=0, channel=1, data=[78, 79]),
   midi.NoteOnEvent(tick=120, channel=1, data=[78, 0]),
   midi.NoteOnEvent(tick=0, channel=1, data=[79, 79]),
   midi.NoteOnEvent(tick=120, channel=1, data=[79, 0]),
   midi.NoteOnEvent(tick=0, channel=1, data=[81, 79]),
   midi.NoteOnEvent(tick=120, channel=1, data=[81, 0]),
   midi.NoteOnEvent(tick=0, channel=1, data=[83, 79]),
   midi.NoteOnEvent(tick=960, channel=1, data=[83, 0]),
   midi.NoteOnEvent(tick=0, channel=1, data=[81, 79]),
   midi.NoteOnEvent(tick=480, channel=1, data=[81, 0]),
   midi.NoteOnEvent(tick=0, channel=1, data=[79, 79]),
   midi.NoteOnEvent(tick=480, channel=1, data=[79, 0]),
   midi.NoteOnEvent(tick=0, channel=1, data=[78, 79]),
   midi.NoteOnEvent(tick=720, channel=1, data=[78, 0]),
   midi.NoteOnEvent(tick=0, channel=1, data=[79, 79]),
   midi.NoteOnEvent(tick=240, channel=1, data=[79, 0]),
   midi.NoteOnEvent(tick=0, channel=1, data=[78, 79]),
   midi.NoteOnEvent(tick=480, channel=1, data=[78, 0]),
   midi.NoteOnEvent(tick=0, channel=1, data=[76, 79]),
   midi.NoteOnEvent(tick=480, channel=1, data=[76, 0]),
   midi.NoteOnEvent(tick=0, channel=1, data=[74, 79]),
   midi.NoteOnEvent(tick=480, channel=1, data=[74, 0]),
   midi.NoteOnEvent(tick=1560, channel=1, data=[67, 79]),
   midi.NoteOnEvent(tick=120, channel=1, data=[67, 0]),
   midi.NoteOnEvent(tick=0, channel=1, data=[69, 79]),
   midi.NoteOnEvent(tick=120, channel=1, data=[69, 0]),
   midi.NoteOnEvent(tick=0, channel=1, data=[71, 79]),
   midi.NoteOnEvent(tick=120, channel=1, data=[71, 0]),
   midi.NoteOnEvent(tick=0, channel=1, data=[72, 79]),
   midi.NoteOnEvent(tick=120, channel=1, data=[72, 0]),
   midi.NoteOnEvent(tick=0, channel=1, data=[74, 79]),
   midi.NoteOnEvent(tick=120, channel=1, data=[74, 0]),
   midi.NoteOnEvent(tick=0, channel=1, data=[76, 79]),
   midi.NoteOnEvent(tick=120, channel=1, data=[76, 0]),
   midi.NoteOnEvent(tick=0, channel=1, data=[78, 79]),
   midi.NoteOnEvent(tick=120, channel=1, data=[78, 0]),
   midi.NoteOnEvent(tick=0, channel=1, data=[79, 79]),
   midi.NoteOnEvent(tick=120, channel=1, data=[79, 0]),
   midi.NoteOnEvent(tick=0, channel=1, data=[74, 79]),
   midi.NoteOnEvent(tick=120, channel=1, data=[74, 0]),
   midi.NoteOnEvent(tick=0, channel=1, data=[76, 79]),
   midi.NoteOnEvent(tick=120, channel=1, data=[76, 0]),
   midi.NoteOnEvent(tick=0, channel=1, data=[78, 79]),
   midi.NoteOnEvent(tick=120, channel=1, data=[78, 0]),
   midi.NoteOnEvent(tick=0, channel=1, data=[79, 79]),
   midi.NoteOnEvent(tick=120, channel=1, data=[79, 0]),
   midi.NoteOnEvent(tick=0, channel=1, data=[81, 79]),
   midi.NoteOnEvent(tick=120, channel=1, data=[81, 0]),
   midi.NoteOnEvent(tick=0, channel=1, data=[83, 79]),
   midi.NoteOnEvent(tick=120, channel=1, data=[83, 0]),
   midi.NoteOnEvent(tick=0, channel=1, data=[84, 79]),
   midi.NoteOnEvent(tick=120, channel=1, data=[84, 0]),
   midi.NoteOnEvent(tick=0, channel=1, data=[86, 79]),
   midi.NoteOnEvent(tick=960, channel=1, data=[86, 0]),
   midi.NoteOnEvent(tick=0, channel=1, data=[85, 79]),
   midi.NoteOnEvent(tick=480, channel=1, data=[85, 0]),
   midi.NoteOnEvent(tick=0, channel=1, data=[83, 79]),
   midi.NoteOnEvent(tick=480, channel=1, data=[83, 0]),
   midi.NoteOnEvent(tick=0, channel=1, data=[81, 79]),
   midi.NoteOnEvent(tick=720, channel=1, data=[81, 0]),
   midi.NoteOnEvent(tick=0, channel=1, data=[83, 79]),
   midi.NoteOnEvent(tick=240, channel=1, data=[83, 0]),
   midi.NoteOnEvent(tick=0, channel=1, data=[74, 79]),
   midi.NoteOnEvent(tick=480, channel=1, data=[74, 0]),
   midi.NoteOnEvent(tick=0, channel=1, data=[73, 79]),
   midi.NoteOnEvent(tick=480, channel=1, data=[73, 0]),
   midi.NoteOnEvent(tick=0, channel=1, data=[74, 79]),
   midi.NoteOnEvent(tick=480, channel=1, data=[74, 0]),
   midi.NoteOnEvent(tick=0, channel=1, data=[62, 79]),
   midi.NoteOnEvent(tick=960, channel=1, data=[62, 0]),
   midi.NoteOnEvent(tick=0, channel=1, data=[67, 79]),
   midi.NoteOnEvent(tick=480, channel=1, data=[67, 0]),
   midi.NoteOnEvent(tick=0, channel=1, data=[66, 79]),
   midi.NoteOnEvent(tick=480, channel=1, data=[66, 0]),
   midi.NoteOnEvent(tick=0, channel=1, data=[73, 79]),
   midi.NoteOnEvent(tick=120, channel=1, data=[73, 0]),
   midi.NoteOnEvent(tick=0, channel=1, data=[71, 79]),
   midi.NoteOnEvent(tick=120, channel=1, data=[71, 0]),
   midi.NoteOnEvent(tick=0, channel=1, data=[69, 79]),
   midi.NoteOnEvent(tick=120, channel=1, data=[69, 0]),
   midi.NoteOnEvent(tick=0, channel=1, data=[67, 79]),
   midi.NoteOnEvent(tick=120, channel=1, data=[67, 0]),
   midi.NoteOnEvent(tick=0, channel=1, data=[69, 79]),
   midi.NoteOnEvent(tick=240, channel=1, data=[69, 0]),
   midi.NoteOnEvent(tick=0, channel=1, data=[66, 79]),
   midi.NoteOnEvent(tick=240, channel=1, data=[66, 0]),
   midi.NoteOnEvent(tick=0, channel=1, data=[67, 79]),
   midi.NoteOnEvent(tick=480, channel=1, data=[67, 0]),
   midi.NoteOnEvent(tick=0, channel=1, data=[66, 79]),
   midi.NoteOnEvent(tick=480, channel=1, data=[66, 0]),
   midi.NoteOnEvent(tick=0, channel=1, data=[69, 79]),
   midi.NoteOnEvent(tick=480, channel=1, data=[69, 0]),
   midi.NoteOnEvent(tick=0, channel=1, data=[69, 79]),
   midi.NoteOnEvent(tick=480, channel=1, data=[69, 0]),
   midi.NoteOnEvent(tick=4320, channel=1, data=[74, 79]),
   midi.NoteOnEvent(tick=1920, channel=1, data=[74, 0]),
   midi.NoteOnEvent(tick=0, channel=1, data=[76, 79]),
   midi.NoteOnEvent(tick=1920, channel=1, data=[76, 0]),
   midi.NoteOnEvent(tick=0, channel=1, data=[76, 79]),
   midi.NoteOnEvent(tick=960, channel=1, data=[76, 0]),
   midi.NoteOnEvent(tick=0, channel=1, data=[74, 79]),
   midi.NoteOnEvent(tick=960, channel=1, data=[74, 0]),
   midi.NoteOnEvent(tick=0, channel=1, data=[74, 79]),
   midi.NoteOnEvent(tick=960, channel=1, data=[74, 0]),
   midi.NoteOnEvent(tick=0, channel=1, data=[73, 79]),
   midi.NoteOnEvent(tick=960, channel=1, data=[73, 0]),
   midi.NoteOnEvent(tick=0, channel=1, data=[74, 79]),
   midi.NoteOnEvent(tick=240, channel=1, data=[74, 0]),
   midi.NoteOnEvent(tick=0, channel=1, data=[76, 79]),
   midi.NoteOnEvent(tick=240, channel=1, data=[76, 0]),
   midi.NoteOnEvent(tick=0, channel=1, data=[74, 79]),
   midi.NoteOnEvent(tick=240, channel=1, data=[74, 0]),
   midi.NoteOnEvent(tick=0, channel=1, data=[72, 79]),
   midi.NoteOnEvent(tick=240, channel=1, data=[72, 0]),
   midi.NoteOnEvent(tick=0, channel=1, data=[71, 79]),
   midi.NoteOnEvent(tick=240, channel=1, data=[71, 0]),
   midi.NoteOnEvent(tick=0, channel=1, data=[69, 79]),
   midi.NoteOnEvent(tick=240, channel=1, data=[69, 0]),
   midi.NoteOnEvent(tick=0, channel=1, data=[67, 79]),
   midi.NoteOnEvent(tick=240, channel=1, data=[67, 0]),
   midi.NoteOnEvent(tick=0, channel=1, data=[66, 79]),
   midi.NoteOnEvent(tick=240, channel=1, data=[66, 0]),
   midi.NoteOnEvent(tick=0, channel=1, data=[67, 79]),
   midi.NoteOnEvent(tick=240, channel=1, data=[67, 0]),
   midi.NoteOnEvent(tick=0, channel=1, data=[69, 79]),
   midi.NoteOnEvent(tick=240, channel=1, data=[69, 0]),
   midi.NoteOnEvent(tick=0, channel=1, data=[71, 79]),
   midi.NoteOnEvent(tick=240, channel=1, data=[71, 0]),
   midi.NoteOnEvent(tick=0, channel=1, data=[72, 79]),
   midi.NoteOnEvent(tick=240, channel=1, data=[72, 0]),
   midi.NoteOnEvent(tick=0, channel=1, data=[74, 79]),
   midi.NoteOnEvent(tick=240, channel=1, data=[74, 0]),
   midi.NoteOnEvent(tick=0, channel=1, data=[76, 79]),
   midi.NoteOnEvent(tick=240, channel=1, data=[76, 0]),
   midi.NoteOnEvent(tick=0, channel=1, data=[78, 79]),
   midi.NoteOnEvent(tick=240, channel=1, data=[78, 0]),
   midi.NoteOnEvent(tick=0, channel=1, data=[79, 79]),
   midi.NoteOnEvent(tick=240, channel=1, data=[79, 0]),
   midi.NoteOnEvent(tick=0, channel=1, data=[79, 79]),
   midi.NoteOnEvent(tick=240, channel=1, data=[79, 0]),
   midi.NoteOnEvent(tick=0, channel=1, data=[76, 79]),
   midi.NoteOnEvent(tick=240, channel=1, data=[76, 0]),
   midi.NoteOnEvent(tick=0, channel=1, data=[81, 79]),
   midi.NoteOnEvent(tick=240, channel=1, data=[81, 0]),
   midi.NoteOnEvent(tick=0, channel=1, data=[79, 79]),
   midi.NoteOnEvent(tick=240, channel=1, data=[79, 0]),
   midi.NoteOnEvent(tick=0, channel=1, data=[78, 79]),
   midi.NoteOnEvent(tick=960, channel=1, data=[78, 0]),
   midi.NoteOnEvent(tick=0, channel=1, data=[78, 79]),
   midi.NoteOnEvent(tick=240, channel=1, data=[78, 0]),
   midi.NoteOnEvent(tick=0, channel=1, data=[74, 79]),
   midi.NoteOnEvent(tick=240, channel=1, data=[74, 0]),
   midi.NoteOnEvent(tick=0, channel=1, data=[79, 79]),
   midi.NoteOnEvent(tick=240, channel=1, data=[79, 0]),
   midi.NoteOnEvent(tick=0, channel=1, data=[78, 79]),
   midi.NoteOnEvent(tick=240, channel=1, data=[78, 0]),
   midi.NoteOnEvent(tick=0, channel=1, data=[76, 79]),
   midi.NoteOnEvent(tick=240, channel=1, data=[76, 0]),
   midi.NoteOnEvent(tick=0, channel=1, data=[74, 79]),
   midi.NoteOnEvent(tick=240, channel=1, data=[74, 0]),
   midi.NoteOnEvent(tick=0, channel=1, data=[72, 79]),
   midi.NoteOnEvent(tick=240, channel=1, data=[72, 0]),
   midi.NoteOnEvent(tick=0, channel=1, data=[71, 79]),
   midi.NoteOnEvent(tick=240, channel=1, data=[71, 0]),
   midi.NoteOnEvent(tick=0, channel=1, data=[71, 79]),
   midi.NoteOnEvent(tick=240, channel=1, data=[71, 0]),
   midi.NoteOnEvent(tick=0, channel=1, data=[67, 79]),
   midi.NoteOnEvent(tick=240, channel=1, data=[67, 0]),
   midi.NoteOnEvent(tick=0, channel=1, data=[72, 79]),
   midi.NoteOnEvent(tick=240, channel=1, data=[72, 0]),
   midi.NoteOnEvent(tick=0, channel=1, data=[71, 79]),
   midi.NoteOnEvent(tick=240, channel=1, data=[71, 0]),
   midi.NoteOnEvent(tick=0, channel=1, data=[69, 79]),
   midi.NoteOnEvent(tick=240, channel=1, data=[69, 0]),
   midi.NoteOnEvent(tick=0, channel=1, data=[71, 79]),
   midi.NoteOnEvent(tick=240, channel=1, data=[71, 0]),
   midi.NoteOnEvent(tick=0, channel=1, data=[69, 79]),
   midi.NoteOnEvent(tick=240, channel=1, data=[69, 0]),
   midi.NoteOnEvent(tick=0, channel=1, data=[67, 79]),
   midi.NoteOnEvent(tick=240, channel=1, data=[67, 0]),
   midi.NoteOnEvent(tick=0, channel=1, data=[66, 79]),
   midi.NoteOnEvent(tick=480, channel=1, data=[66, 0]),
   midi.NoteOnEvent(tick=240, channel=1, data=[69, 79]),
   midi.NoteOnEvent(tick=240, channel=1, data=[69, 0]),
   midi.NoteOnEvent(tick=0, channel=1, data=[69, 79]),
   midi.NoteOnEvent(tick=240, channel=1, data=[69, 0]),
   midi.NoteOnEvent(tick=0, channel=1, data=[67, 79]),
   midi.NoteOnEvent(tick=240, channel=1, data=[67, 0]),
   midi.NoteOnEvent(tick=240, channel=1, data=[71, 79]),
   midi.NoteOnEvent(tick=240, channel=1, data=[71, 0]),
   midi.ControlChangeEvent(tick=0, channel=1, data=[7, 104]),
   midi.NoteOnEvent(tick=0, channel=1, data=[69, 79]),
   midi.NoteOnEvent(tick=480, channel=1, data=[69, 0]),
   midi.NoteOnEvent(tick=240, channel=1, data=[69, 79]),
   midi.NoteOnEvent(tick=240, channel=1, data=[69, 0]),
   midi.NoteOnEvent(tick=0, channel=1, data=[69, 79]),
   midi.NoteOnEvent(tick=240, channel=1, data=[69, 0]),
   midi.NoteOnEvent(tick=0, channel=1, data=[67, 79]),
   midi.NoteOnEvent(tick=240, channel=1, data=[67, 0]),
   midi.NoteOnEvent(tick=240, channel=1, data=[71, 79]),
   midi.NoteOnEvent(tick=240, channel=1, data=[71, 0]),
   midi.NoteOnEvent(tick=0, channel=1, data=[69, 79]),
   midi.NoteOnEvent(tick=480, channel=1, data=[69, 0]),
   midi.NoteOnEvent(tick=0, channel=1, data=[69, 79]),
   midi.NoteOnEvent(tick=480, channel=1, data=[69, 0]),
   midi.NoteOnEvent(tick=0, channel=1, data=[69, 79]),
   midi.NoteOnEvent(tick=480, channel=1, data=[69, 0]),
   midi.NoteOnEvent(tick=480, channel=1, data=[71, 79]),
   midi.NoteOnEvent(tick=480, channel=1, data=[71, 0]),
   midi.NoteOnEvent(tick=0, channel=1, data=[72, 79]),
   midi.NoteOnEvent(tick=60, channel=1, data=[72, 0]),
   midi.NoteOnEvent(tick=0, channel=1, data=[71, 79]),
   midi.NoteOnEvent(tick=60, channel=1, data=[71, 0]),
   midi.NoteOnEvent(tick=0, channel=1, data=[69, 79]),
   midi.NoteOnEvent(tick=120, channel=1, data=[69, 0]),
   midi.NoteOnEvent(tick=0, channel=1, data=[71, 79]),
   midi.NoteOnEvent(tick=120, channel=1, data=[71, 0]),
   midi.NoteOnEvent(tick=0, channel=1, data=[72, 79]),
   midi.NoteOnEvent(tick=120, channel=1, data=[72, 0]),
   midi.NoteOnEvent(tick=0, channel=1, data=[71, 79]),
   midi.NoteOnEvent(tick=240, channel=1, data=[71, 0]),
   midi.NoteOnEvent(tick=0, channel=1, data=[71, 79]),
   midi.NoteOnEvent(tick=240, channel=1, data=[71, 0]),
   midi.NoteOnEvent(tick=0, channel=1, data=[69, 79]),
   midi.NoteOnEvent(tick=240, channel=1, data=[69, 0]),
   midi.NoteOnEvent(tick=0, channel=1, data=[72, 79]),
   midi.NoteOnEvent(tick=240, channel=1, data=[72, 0]),
   midi.NoteOnEvent(tick=0, channel=1, data=[71, 79]),
   midi.NoteOnEvent(tick=240, channel=1, data=[71, 0]),
   midi.NoteOnEvent(tick=0, channel=1, data=[67, 79]),
   midi.NoteOnEvent(tick=240, channel=1, data=[67, 0]),
   midi.NoteOnEvent(tick=0, channel=1, data=[66, 79]),
   midi.NoteOnEvent(tick=240, channel=1, data=[66, 0]),
   midi.NoteOnEvent(tick=0, channel=1, data=[69, 79]),
   midi.NoteOnEvent(tick=240, channel=1, data=[69, 0]),
   midi.NoteOnEvent(tick=0, channel=1, data=[67, 79]),
   midi.NoteOnEvent(tick=240, channel=1, data=[67, 0]),
   midi.NoteOnEvent(tick=720, channel=1, data=[71, 79]),
   midi.NoteOnEvent(tick=960, channel=1, data=[71, 0]),
   midi.NoteOnEvent(tick=0, channel=1, data=[74, 79]),
   midi.NoteOnEvent(tick=960, channel=1, data=[74, 0]),
   midi.NoteOnEvent(tick=0, channel=1, data=[72, 79]),
   midi.NoteOnEvent(tick=240, channel=1, data=[72, 0]),
   midi.NoteOnEvent(tick=0, channel=1, data=[71, 79]),
   midi.NoteOnEvent(tick=240, channel=1, data=[71, 0]),
   midi.NoteOnEvent(tick=0, channel=1, data=[69, 79]),
   midi.NoteOnEvent(tick=240, channel=1, data=[69, 0]),
   midi.NoteOnEvent(tick=0, channel=1, data=[67, 79]),
   midi.NoteOnEvent(tick=240, channel=1, data=[67, 0]),
   midi.NoteOnEvent(tick=0, channel=1, data=[74, 79]),
   midi.NoteOnEvent(tick=480, channel=1, data=[74, 0]),
   midi.NoteOnEvent(tick=0, channel=1, data=[62, 79]),
   midi.NoteOnEvent(tick=480, channel=1, data=[62, 0]),
   midi.NoteOnEvent(tick=0, channel=1, data=[55, 79]),
   midi.NoteOnEvent(tick=480, channel=1, data=[55, 0]),
   midi.NoteOnEvent(tick=0, channel=1, data=[71, 79]),
   midi.NoteOnEvent(tick=120, channel=1, data=[71, 0]),
   midi.NoteOnEvent(tick=0, channel=1, data=[69, 79]),
   midi.NoteOnEvent(tick=120, channel=1, data=[69, 0]),
   midi.NoteOnEvent(tick=0, channel=1, data=[71, 79]),
   midi.NoteOnEvent(tick=120, channel=1, data=[71, 0]),
   midi.NoteOnEvent(tick=0, channel=1, data=[72, 79]),
   midi.NoteOnEvent(tick=120, channel=1, data=[72, 0]),
   midi.NoteOnEvent(tick=0, channel=1, data=[71, 79]),
   midi.NoteOnEvent(tick=240, channel=1, data=[71, 0]),
   midi.NoteOnEvent(tick=0, channel=1, data=[71, 79]),
   midi.NoteOnEvent(tick=240, channel=1, data=[71, 0]),
   midi.NoteOnEvent(tick=0, channel=1, data=[69, 79]),
   midi.NoteOnEvent(tick=240, channel=1, data=[69, 0]),
   midi.NoteOnEvent(tick=0, channel=1, data=[72, 79]),
   midi.NoteOnEvent(tick=240, channel=1, data=[72, 0]),
   midi.NoteOnEvent(tick=0, channel=1, data=[71, 79]),
   midi.NoteOnEvent(tick=240, channel=1, data=[71, 0]),
   midi.NoteOnEvent(tick=0, channel=1, data=[67, 79]),
   midi.NoteOnEvent(tick=240, channel=1, data=[67, 0]),
   midi.NoteOnEvent(tick=0, channel=1, data=[66, 79]),
   midi.NoteOnEvent(tick=240, channel=1, data=[66, 0]),
   midi.NoteOnEvent(tick=0, channel=1, data=[69, 79]),
   midi.NoteOnEvent(tick=240, channel=1, data=[69, 0]),
   midi.NoteOnEvent(tick=0, channel=1, data=[67, 79]),
   midi.NoteOnEvent(tick=240, channel=1, data=[67, 0]),
   midi.NoteOnEvent(tick=720, channel=1, data=[71, 79]),
   midi.NoteOnEvent(tick=960, channel=1, data=[71, 0]),
   midi.NoteOnEvent(tick=0, channel=1, data=[74, 79]),
   midi.NoteOnEvent(tick=960, channel=1, data=[74, 0]),
   midi.NoteOnEvent(tick=0, channel=1, data=[72, 79]),
   midi.NoteOnEvent(tick=60, channel=1, data=[72, 0]),
   midi.NoteOnEvent(tick=0, channel=1, data=[71, 79]),
   midi.NoteOnEvent(tick=60, channel=1, data=[71, 0]),
   midi.NoteOnEvent(tick=0, channel=1, data=[71, 79]),
   midi.NoteOnEvent(tick=360, channel=1, data=[71, 0]),
   midi.NoteOnEvent(tick=0, channel=1, data=[69, 79]),
   midi.NoteOnEvent(tick=240, channel=1, data=[69, 0]),
   midi.NoteOnEvent(tick=0, channel=1, data=[67, 79]),
   midi.NoteOnEvent(tick=240, channel=1, data=[67, 0]),
   midi.NoteOnEvent(tick=0, channel=1, data=[74, 79]),
   midi.NoteOnEvent(tick=480, channel=1, data=[74, 0]),
   midi.NoteOnEvent(tick=0, channel=1, data=[62, 79]),
   midi.NoteOnEvent(tick=480, channel=1, data=[62, 0]),
   midi.NoteOnEvent(tick=0, channel=1, data=[67, 79]),
   midi.NoteOnEvent(tick=120, channel=1, data=[67, 0]),
   midi.NoteOnEvent(tick=0, channel=1, data=[62, 79]),
   midi.NoteOnEvent(tick=120, channel=1, data=[62, 0]),
   midi.NoteOnEvent(tick=0, channel=1, data=[62, 79]),
   midi.NoteOnEvent(tick=120, channel=1, data=[62, 0]),
   midi.NoteOnEvent(tick=0, channel=1, data=[62, 79]),
   midi.NoteOnEvent(tick=120, channel=1, data=[62, 0]),
   midi.NoteOnEvent(tick=0, channel=1, data=[62, 79]),
   midi.NoteOnEvent(tick=120, channel=1, data=[62, 0]),
   midi.NoteOnEvent(tick=0, channel=1, data=[62, 79]),
   midi.NoteOnEvent(tick=120, channel=1, data=[62, 0]),
   midi.NoteOnEvent(tick=0, channel=1, data=[62, 79]),
   midi.NoteOnEvent(tick=120, channel=1, data=[62, 0]),
   midi.NoteOnEvent(tick=0, channel=1, data=[62, 79]),
   midi.NoteOnEvent(tick=120, channel=1, data=[62, 0]),
   midi.NoteOnEvent(tick=0, channel=1, data=[62, 79]),
   midi.NoteOnEvent(tick=960, channel=1, data=[62, 0]),
   midi.NoteOnEvent(tick=0, channel=1, data=[62, 79]),
   midi.NoteOnEvent(tick=960, channel=1, data=[62, 0]),
   midi.NoteOnEvent(tick=0, channel=1, data=[66, 79]),
   midi.NoteOnEvent(tick=960, channel=1, data=[66, 0]),
   midi.NoteOnEvent(tick=0, channel=1, data=[67, 79]),
   midi.NoteOnEvent(tick=120, channel=1, data=[67, 0]),
   midi.NoteOnEvent(tick=0, channel=1, data=[62, 79]),
   midi.NoteOnEvent(tick=120, channel=1, data=[62, 0]),
   midi.NoteOnEvent(tick=0, channel=1, data=[62, 79]),
   midi.NoteOnEvent(tick=120, channel=1, data=[62, 0]),
   midi.NoteOnEvent(tick=0, channel=1, data=[62, 79]),
   midi.NoteOnEvent(tick=120, channel=1, data=[62, 0]),
   midi.NoteOnEvent(tick=0, channel=1, data=[62, 79]),
   midi.NoteOnEvent(tick=120, channel=1, data=[62, 0]),
   midi.NoteOnEvent(tick=0, channel=1, data=[62, 79]),
   midi.NoteOnEvent(tick=120, channel=1, data=[62, 0]),
   midi.NoteOnEvent(tick=0, channel=1, data=[62, 79]),
   midi.NoteOnEvent(tick=120, channel=1, data=[62, 0]),
   midi.NoteOnEvent(tick=0, channel=1, data=[62, 79]),
   midi.NoteOnEvent(tick=120, channel=1, data=[62, 0]),
   midi.NoteOnEvent(tick=0, channel=1, data=[62, 79]),
   midi.NoteOnEvent(tick=960, channel=1, data=[62, 0]),
   midi.NoteOnEvent(tick=0, channel=1, data=[62, 79]),
   midi.NoteOnEvent(tick=960, channel=1, data=[62, 0]),
   midi.NoteOnEvent(tick=0, channel=1, data=[66, 79]),
   midi.NoteOnEvent(tick=960, channel=1, data=[66, 0]),
   midi.NoteOnEvent(tick=0, channel=1, data=[67, 79]),
   midi.NoteOnEvent(tick=240, channel=1, data=[67, 0]),
   midi.NoteOnEvent(tick=0, channel=1, data=[55, 79]),
   midi.NoteOnEvent(tick=240, channel=1, data=[55, 0]),
   midi.NoteOnEvent(tick=0, channel=1, data=[57, 79]),
   midi.NoteOnEvent(tick=240, channel=1, data=[57, 0]),
   midi.NoteOnEvent(tick=0, channel=1, data=[59, 79]),
   midi.NoteOnEvent(tick=240, channel=1, data=[59, 0]),
   midi.NoteOnEvent(tick=0, channel=1, data=[60, 79]),
   midi.NoteOnEvent(tick=240, channel=1, data=[60, 0]),
   midi.NoteOnEvent(tick=0, channel=1, data=[62, 79]),
   midi.NoteOnEvent(tick=240, channel=1, data=[62, 0]),
   midi.NoteOnEvent(tick=0, channel=1, data=[64, 79]),
   midi.NoteOnEvent(tick=240, channel=1, data=[64, 0]),
   midi.NoteOnEvent(tick=0, channel=1, data=[66, 79]),
   midi.NoteOnEvent(tick=240, channel=1, data=[66, 0]),
   midi.NoteOnEvent(tick=0, channel=1, data=[67, 79]),
   midi.NoteOnEvent(tick=240, channel=1, data=[67, 0]),
   midi.NoteOnEvent(tick=0, channel=1, data=[66, 79]),
   midi.NoteOnEvent(tick=240, channel=1, data=[66, 0]),
   midi.NoteOnEvent(tick=0, channel=1, data=[64, 79]),
   midi.NoteOnEvent(tick=240, channel=1, data=[64, 0]),
   midi.NoteOnEvent(tick=0, channel=1, data=[62, 79]),
   midi.NoteOnEvent(tick=240, channel=1, data=[62, 0]),
   midi.NoteOnEvent(tick=0, channel=1, data=[60, 79]),
   midi.NoteOnEvent(tick=240, channel=1, data=[60, 0]),
   midi.NoteOnEvent(tick=0, channel=1, data=[59, 79]),
   midi.NoteOnEvent(tick=240, channel=1, data=[59, 0]),
   midi.NoteOnEvent(tick=0, channel=1, data=[57, 79]),
   midi.NoteOnEvent(tick=240, channel=1, data=[57, 0]),
   midi.NoteOnEvent(tick=0, channel=1, data=[55, 79]),
   midi.NoteOnEvent(tick=240, channel=1, data=[55, 0]),
   midi.NoteOnEvent(tick=0, channel=1, data=[62, 79]),
   midi.NoteOnEvent(tick=480, channel=1, data=[62, 0]),
   midi.NoteOnEvent(tick=0, channel=1, data=[69, 79]),
   midi.NoteOnEvent(tick=480, channel=1, data=[69, 0]),
   midi.NoteOnEvent(tick=0, channel=1, data=[69, 79]),
   midi.NoteOnEvent(tick=480, channel=1, data=[69, 0]),
   midi.NoteOnEvent(tick=2400, channel=1, data=[67, 79]),
   midi.NoteOnEvent(tick=960, channel=1, data=[67, 0]),
   midi.NoteOnEvent(tick=0, channel=1, data=[71, 79]),
   midi.NoteOnEvent(tick=480, channel=1, data=[71, 0]),
   midi.NoteOnEvent(tick=0, channel=1, data=[74, 79]),
   midi.NoteOnEvent(tick=480, channel=1, data=[74, 0]),
   midi.NoteOnEvent(tick=0, channel=1, data=[79, 79]),
   midi.NoteOnEvent(tick=480, channel=1, data=[79, 0]),
   midi.NoteOnEvent(tick=0, channel=1, data=[79, 79]),
   midi.NoteOnEvent(tick=960, channel=1, data=[79, 0]),
   midi.NoteOnEvent(tick=0, channel=1, data=[81, 79]),
   midi.NoteOnEvent(tick=240, channel=1, data=[81, 0]),
   midi.NoteOnEvent(tick=0, channel=1, data=[78, 79]),
   midi.NoteOnEvent(tick=240, channel=1, data=[78, 0]),
   midi.NoteOnEvent(tick=0, channel=1, data=[79, 79]),
   midi.NoteOnEvent(tick=480, channel=1, data=[79, 0]),
   midi.NoteOnEvent(tick=0, channel=1, data=[67, 79]),
   midi.NoteOnEvent(tick=960, channel=1, data=[67, 0]),
   midi.NoteOnEvent(tick=0, channel=1, data=[69, 79]),
   midi.NoteOnEvent(tick=240, channel=1, data=[69, 0]),
   midi.NoteOnEvent(tick=0, channel=1, data=[66, 79]),
   midi.NoteOnEvent(tick=240, channel=1, data=[66, 0]),
   midi.NoteOnEvent(tick=0, channel=1, data=[67, 79]),
   midi.NoteOnEvent(tick=480, channel=1, data=[67, 0]),
   midi.NoteOnEvent(tick=2400, channel=1, data=[79, 79]),
   midi.NoteOnEvent(tick=120, channel=1, data=[79, 0]),
   midi.NoteOnEvent(tick=0, channel=1, data=[74, 79]),
   midi.NoteOnEvent(tick=120, channel=1, data=[74, 0]),
   midi.NoteOnEvent(tick=0, channel=1, data=[76, 79]),
   midi.NoteOnEvent(tick=120, channel=1, data=[76, 0]),
   midi.NoteOnEvent(tick=0, channel=1, data=[74, 79]),
   midi.NoteOnEvent(tick=120, channel=1, data=[74, 0]),
   midi.NoteOnEvent(tick=0, channel=1, data=[79, 79]),
   midi.NoteOnEvent(tick=120, channel=1, data=[79, 0]),
   midi.NoteOnEvent(tick=0, channel=1, data=[74, 79]),
   midi.NoteOnEvent(tick=120, channel=1, data=[74, 0]),
   midi.NoteOnEvent(tick=0, channel=1, data=[76, 79]),
   midi.NoteOnEvent(tick=120, channel=1, data=[76, 0]),
   midi.NoteOnEvent(tick=0, channel=1, data=[74, 79]),
   midi.NoteOnEvent(tick=120, channel=1, data=[74, 0]),
   midi.NoteOnEvent(tick=0, channel=1, data=[86, 79]),
   midi.NoteOnEvent(tick=1920, channel=1, data=[86, 0]),
   midi.NoteOnEvent(tick=0, channel=1, data=[86, 79]),
   midi.NoteOnEvent(tick=240, channel=1, data=[86, 0]),
   midi.NoteOnEvent(tick=720, channel=1, data=[79, 79]),
   midi.NoteOnEvent(tick=120, channel=1, data=[79, 0]),
   midi.NoteOnEvent(tick=0, channel=1, data=[74, 79]),
   midi.NoteOnEvent(tick=120, channel=1, data=[74, 0]),
   midi.NoteOnEvent(tick=0, channel=1, data=[76, 79]),
   midi.NoteOnEvent(tick=120, channel=1, data=[76, 0]),
   midi.NoteOnEvent(tick=0, channel=1, data=[74, 79]),
   midi.NoteOnEvent(tick=120, channel=1, data=[74, 0]),
   midi.NoteOnEvent(tick=0, channel=1, data=[79, 79]),
   midi.NoteOnEvent(tick=120, channel=1, data=[79, 0]),
   midi.NoteOnEvent(tick=0, channel=1, data=[74, 79]),
   midi.NoteOnEvent(tick=120, channel=1, data=[74, 0]),
   midi.NoteOnEvent(tick=0, channel=1, data=[76, 79]),
   midi.NoteOnEvent(tick=120, channel=1, data=[76, 0]),
   midi.NoteOnEvent(tick=0, channel=1, data=[74, 79]),
   midi.NoteOnEvent(tick=120, channel=1, data=[74, 0]),
   midi.NoteOnEvent(tick=0, channel=1, data=[86, 79]),
   midi.NoteOnEvent(tick=1920, channel=1, data=[86, 0]),
   midi.NoteOnEvent(tick=0, channel=1, data=[86, 79]),
   midi.NoteOnEvent(tick=120, channel=1, data=[86, 0]),
   midi.NoteOnEvent(tick=0, channel=1, data=[79, 79]),
   midi.NoteOnEvent(tick=120, channel=1, data=[79, 0]),
   midi.NoteOnEvent(tick=0, channel=1, data=[78, 79]),
   midi.NoteOnEvent(tick=120, channel=1, data=[78, 0]),
   midi.NoteOnEvent(tick=0, channel=1, data=[79, 79]),
   midi.NoteOnEvent(tick=120, channel=1, data=[79, 0]),
   midi.NoteOnEvent(tick=0, channel=1, data=[77, 79]),
   midi.NoteOnEvent(tick=120, channel=1, data=[77, 0]),
   midi.NoteOnEvent(tick=0, channel=1, data=[79, 79]),
   midi.NoteOnEvent(tick=120, channel=1, data=[79, 0]),
   midi.NoteOnEvent(tick=0, channel=1, data=[76, 79]),
   midi.NoteOnEvent(tick=120, channel=1, data=[76, 0]),
   midi.NoteOnEvent(tick=0, channel=1, data=[79, 79]),
   midi.NoteOnEvent(tick=120, channel=1, data=[79, 0]),
   midi.NoteOnEvent(tick=0, channel=1, data=[74, 79]),
   midi.NoteOnEvent(tick=120, channel=1, data=[74, 0]),
   midi.NoteOnEvent(tick=0, channel=1, data=[79, 79]),
   midi.NoteOnEvent(tick=120, channel=1, data=[79, 0]),
   midi.NoteOnEvent(tick=0, channel=1, data=[77, 79]),
   midi.NoteOnEvent(tick=120, channel=1, data=[77, 0]),
   midi.NoteOnEvent(tick=0, channel=1, data=[79, 79]),
   midi.NoteOnEvent(tick=120, channel=1, data=[79, 0]),
   midi.NoteOnEvent(tick=0, channel=1, data=[76, 79]),
   midi.NoteOnEvent(tick=120, channel=1, data=[76, 0]),
   midi.NoteOnEvent(tick=0, channel=1, data=[79, 79]),
   midi.NoteOnEvent(tick=120, channel=1, data=[79, 0]),
   midi.NoteOnEvent(tick=0, channel=1, data=[74, 79]),
   midi.NoteOnEvent(tick=120, channel=1, data=[74, 0]),
   midi.NoteOnEvent(tick=0, channel=1, data=[79, 79]),
   midi.NoteOnEvent(tick=120, channel=1, data=[79, 0]),
   midi.NoteOnEvent(tick=0, channel=1, data=[76, 79]),
   midi.NoteOnEvent(tick=480, channel=1, data=[76, 0]),
   midi.NoteOnEvent(tick=600, channel=1, data=[72, 79]),
   midi.NoteOnEvent(tick=120, channel=1, data=[72, 0]),
   midi.NoteOnEvent(tick=0, channel=1, data=[74, 79]),
   midi.NoteOnEvent(tick=120, channel=1, data=[74, 0]),
   midi.NoteOnEvent(tick=0, channel=1, data=[76, 79]),
   midi.NoteOnEvent(tick=120, channel=1, data=[76, 0]),
   midi.NoteOnEvent(tick=0, channel=1, data=[77, 79]),
   midi.NoteOnEvent(tick=120, channel=1, data=[77, 0]),
   midi.NoteOnEvent(tick=0, channel=1, data=[79, 79]),
   midi.NoteOnEvent(tick=120, channel=1, data=[79, 0]),
   midi.NoteOnEvent(tick=0, channel=1, data=[81, 79]),
   midi.NoteOnEvent(tick=120, channel=1, data=[81, 0]),
   midi.NoteOnEvent(tick=0, channel=1, data=[83, 79]),
   midi.NoteOnEvent(tick=120, channel=1, data=[83, 0]),
   midi.NoteOnEvent(tick=0, channel=1, data=[84, 79]),
   midi.NoteOnEvent(tick=960, channel=1, data=[84, 0]),
   midi.NoteOnEvent(tick=0, channel=1, data=[83, 79]),
   midi.NoteOnEvent(tick=480, channel=1, data=[83, 0]),
   midi.NoteOnEvent(tick=0, channel=1, data=[81, 79]),
   midi.NoteOnEvent(tick=480, channel=1, data=[81, 0]),
   midi.NoteOnEvent(tick=0, channel=1, data=[79, 79]),
   midi.NoteOnEvent(tick=720, channel=1, data=[79, 0]),
   midi.NoteOnEvent(tick=0, channel=1, data=[81, 79]),
   midi.NoteOnEvent(tick=120, channel=1, data=[81, 0]),
   midi.NoteOnEvent(tick=0, channel=1, data=[83, 79]),
   midi.NoteOnEvent(tick=120, channel=1, data=[83, 0]),
   midi.NoteOnEvent(tick=0, channel=1, data=[71, 79]),
   midi.NoteOnEvent(tick=480, channel=1, data=[71, 0]),
   midi.NoteOnEvent(tick=0, channel=1, data=[69, 79]),
   midi.NoteOnEvent(tick=480, channel=1, data=[69, 0]),
   midi.NoteOnEvent(tick=0, channel=1, data=[67, 79]),
   midi.NoteOnEvent(tick=480, channel=1, data=[67, 0]),
   midi.NoteOnEvent(tick=1560, channel=1, data=[60, 79]),
   midi.NoteOnEvent(tick=120, channel=1, data=[60, 0]),
   midi.NoteOnEvent(tick=0, channel=1, data=[62, 79]),
   midi.NoteOnEvent(tick=120, channel=1, data=[62, 0]),
   midi.NoteOnEvent(tick=0, channel=1, data=[64, 79]),
   midi.NoteOnEvent(tick=120, channel=1, data=[64, 0]),
   midi.NoteOnEvent(tick=0, channel=1, data=[65, 79]),
   midi.NoteOnEvent(tick=120, channel=1, data=[65, 0]),
   midi.NoteOnEvent(tick=0, channel=1, data=[67, 79]),
   midi.NoteOnEvent(tick=120, channel=1, data=[67, 0]),
   midi.NoteOnEvent(tick=0, channel=1, data=[69, 79]),
   midi.NoteOnEvent(tick=120, channel=1, data=[69, 0]),
   midi.NoteOnEvent(tick=0, channel=1, data=[71, 79]),
   midi.NoteOnEvent(tick=120, channel=1, data=[71, 0]),
   midi.NoteOnEvent(tick=0, channel=1, data=[72, 79]),
   midi.NoteOnEvent(tick=120, channel=1, data=[72, 0]),
   midi.NoteOnEvent(tick=0, channel=1, data=[76, 79]),
   midi.NoteOnEvent(tick=120, channel=1, data=[76, 0]),
   midi.NoteOnEvent(tick=0, channel=1, data=[77, 79]),
   midi.NoteOnEvent(tick=120, channel=1, data=[77, 0]),
   midi.NoteOnEvent(tick=0, channel=1, data=[79, 79]),
   midi.NoteOnEvent(tick=120, channel=1, data=[79, 0]),
   midi.NoteOnEvent(tick=0, channel=1, data=[81, 79]),
   midi.NoteOnEvent(tick=120, channel=1, data=[81, 0]),
   midi.NoteOnEvent(tick=0, channel=1, data=[83, 79]),
   midi.NoteOnEvent(tick=120, channel=1, data=[83, 0]),
   midi.NoteOnEvent(tick=0, channel=1, data=[84, 79]),
   midi.NoteOnEvent(tick=120, channel=1, data=[84, 0]),
   midi.NoteOnEvent(tick=0, channel=1, data=[86, 79]),
   midi.NoteOnEvent(tick=120, channel=1, data=[86, 0]),
   midi.NoteOnEvent(tick=0, channel=1, data=[88, 79]),
   midi.NoteOnEvent(tick=960, channel=1, data=[88, 0]),
   midi.NoteOnEvent(tick=0, channel=1, data=[86, 79]),
   midi.NoteOnEvent(tick=480, channel=1, data=[86, 0]),
   midi.NoteOnEvent(tick=0, channel=1, data=[84, 79]),
   midi.NoteOnEvent(tick=480, channel=1, data=[84, 0]),
   midi.NoteOnEvent(tick=0, channel=1, data=[83, 79]),
   midi.NoteOnEvent(tick=720, channel=1, data=[83, 0]),
   midi.NoteOnEvent(tick=0, channel=1, data=[84, 79]),
   midi.NoteOnEvent(tick=120, channel=1, data=[84, 0]),
   midi.NoteOnEvent(tick=0, channel=1, data=[86, 79]),
   midi.NoteOnEvent(tick=120, channel=1, data=[86, 0]),
   midi.NoteOnEvent(tick=0, channel=1, data=[71, 79]),
   midi.NoteOnEvent(tick=480, channel=1, data=[71, 0]),
   midi.NoteOnEvent(tick=0, channel=1, data=[69, 79]),
   midi.NoteOnEvent(tick=480, channel=1, data=[69, 0]),
   midi.NoteOnEvent(tick=0, channel=1, data=[67, 79]),
   midi.NoteOnEvent(tick=480, channel=1, data=[67, 0]),
   midi.NoteOnEvent(tick=0, channel=1, data=[55, 79]),
   midi.NoteOnEvent(tick=960, channel=1, data=[55, 0]),
   midi.NoteOnEvent(tick=0, channel=1, data=[60, 79]),
   midi.NoteOnEvent(tick=480, channel=1, data=[60, 0]),
   midi.NoteOnEvent(tick=0, channel=1, data=[59, 79]),
   midi.NoteOnEvent(tick=480, channel=1, data=[59, 0]),
   midi.NoteOnEvent(tick=0, channel=1, data=[66, 79]),
   midi.NoteOnEvent(tick=120, channel=1, data=[66, 0]),
   midi.NoteOnEvent(tick=0, channel=1, data=[64, 79]),
   midi.NoteOnEvent(tick=120, channel=1, data=[64, 0]),
   midi.NoteOnEvent(tick=0, channel=1, data=[62, 79]),
   midi.NoteOnEvent(tick=120, channel=1, data=[62, 0]),
   midi.NoteOnEvent(tick=0, channel=1, data=[60, 79]),
   midi.NoteOnEvent(tick=120, channel=1, data=[60, 0]),
   midi.NoteOnEvent(tick=0, channel=1, data=[62, 79]),
   midi.NoteOnEvent(tick=240, channel=1, data=[62, 0]),
   midi.NoteOnEvent(tick=0, channel=1, data=[59, 79]),
   midi.NoteOnEvent(tick=240, channel=1, data=[59, 0]),
   midi.NoteOnEvent(tick=0, channel=1, data=[60, 79]),
   midi.NoteOnEvent(tick=480, channel=1, data=[60, 0]),
   midi.NoteOnEvent(tick=0, channel=1, data=[59, 79]),
   midi.NoteOnEvent(tick=480, channel=1, data=[59, 0]),
   midi.NoteOnEvent(tick=0, channel=1, data=[71, 79]),
   midi.NoteOnEvent(tick=480, channel=1, data=[71, 0]),
   midi.NoteOnEvent(tick=0, channel=1, data=[71, 79]),
   midi.NoteOnEvent(tick=480, channel=1, data=[71, 0]),
   midi.NoteOnEvent(tick=480, channel=1, data=[67, 79]),
   midi.NoteOnEvent(tick=240, channel=1, data=[67, 0]),
   midi.NoteOnEvent(tick=240, channel=1, data=[71, 79]),
   midi.NoteOnEvent(tick=240, channel=1, data=[71, 0]),
   midi.NoteOnEvent(tick=240, channel=1, data=[67, 79]),
   midi.NoteOnEvent(tick=240, channel=1, data=[67, 0]),
   midi.NoteOnEvent(tick=240, channel=1, data=[66, 79]),
   midi.NoteOnEvent(tick=240, channel=1, data=[66, 0]),
   midi.NoteOnEvent(tick=240, channel=1, data=[69, 79]),
   midi.NoteOnEvent(tick=240, channel=1, data=[69, 0]),
   midi.NoteOnEvent(tick=240, channel=1, data=[62, 79]),
   midi.NoteOnEvent(tick=240, channel=1, data=[62, 0]),
   midi.NoteOnEvent(tick=240, channel=1, data=[67, 79]),
   midi.NoteOnEvent(tick=240, channel=1, data=[67, 0]),
   midi.NoteOnEvent(tick=240, channel=1, data=[64, 79]),
   midi.NoteOnEvent(tick=240, channel=1, data=[64, 0]),
   midi.NoteOnEvent(tick=240, channel=1, data=[60, 79]),
   midi.NoteOnEvent(tick=240, channel=1, data=[60, 0]),
   midi.NoteOnEvent(tick=240, channel=1, data=[62, 79]),
   midi.NoteOnEvent(tick=1440, channel=1, data=[62, 0]),
   midi.NoteOnEvent(tick=0, channel=1, data=[67, 79]),
   midi.NoteOnEvent(tick=480, channel=1, data=[67, 0]),
   midi.NoteOnEvent(tick=0, channel=1, data=[69, 79]),
   midi.NoteOnEvent(tick=480, channel=1, data=[69, 0]),
   midi.NoteOnEvent(tick=0, channel=1, data=[71, 79]),
   midi.NoteOnEvent(tick=480, channel=1, data=[71, 0]),
   midi.NoteOnEvent(tick=0, channel=1, data=[72, 79]),
   midi.NoteOnEvent(tick=240, channel=1, data=[72, 0]),
   midi.NoteOnEvent(tick=240, channel=1, data=[69, 79]),
   midi.NoteOnEvent(tick=480, channel=1, data=[69, 0]),
   midi.NoteOnEvent(tick=0, channel=1, data=[67, 79]),
   midi.NoteOnEvent(tick=480, channel=1, data=[67, 0]),
   midi.NoteOnEvent(tick=0, channel=1, data=[64, 79]),
   midi.NoteOnEvent(tick=240, channel=1, data=[64, 0]),
   midi.NoteOnEvent(tick=240, channel=1, data=[62, 79]),
   midi.NoteOnEvent(tick=240, channel=1, data=[62, 0]),
   midi.NoteOnEvent(tick=240, channel=1, data=[60, 79]),
   midi.NoteOnEvent(tick=240, channel=1, data=[60, 0]),
   midi.NoteOnEvent(tick=240, channel=1, data=[59, 79]),
   midi.NoteOnEvent(tick=960, channel=1, data=[59, 0]),
   midi.NoteOnEvent(tick=480, channel=1, data=[67, 79]),
   midi.NoteOnEvent(tick=240, channel=1, data=[67, 0]),
   midi.NoteOnEvent(tick=240, channel=1, data=[71, 79]),
   midi.NoteOnEvent(tick=240, channel=1, data=[71, 0]),
   midi.NoteOnEvent(tick=240, channel=1, data=[67, 79]),
   midi.NoteOnEvent(tick=240, channel=1, data=[67, 0]),
   midi.NoteOnEvent(tick=240, channel=1, data=[66, 79]),
   midi.NoteOnEvent(tick=240, channel=1, data=[66, 0]),
   midi.NoteOnEvent(tick=240, channel=1, data=[69, 79]),
   midi.NoteOnEvent(tick=240, channel=1, data=[69, 0]),
   midi.NoteOnEvent(tick=240, channel=1, data=[62, 79]),
   midi.NoteOnEvent(tick=240, channel=1, data=[62, 0]),
   midi.NoteOnEvent(tick=240, channel=1, data=[67, 79]),
   midi.NoteOnEvent(tick=240, channel=1, data=[67, 0]),
   midi.NoteOnEvent(tick=240, channel=1, data=[64, 79]),
   midi.NoteOnEvent(tick=240, channel=1, data=[64, 0]),
   midi.NoteOnEvent(tick=240, channel=1, data=[60, 79]),
   midi.NoteOnEvent(tick=240, channel=1, data=[60, 0]),
   midi.NoteOnEvent(tick=240, channel=1, data=[62, 79]),
   midi.NoteOnEvent(tick=1440, channel=1, data=[62, 0]),
   midi.NoteOnEvent(tick=0, channel=1, data=[67, 79]),
   midi.NoteOnEvent(tick=480, channel=1, data=[67, 0]),
   midi.NoteOnEvent(tick=0, channel=1, data=[69, 79]),
   midi.NoteOnEvent(tick=480, channel=1, data=[69, 0]),
   midi.NoteOnEvent(tick=0, channel=1, data=[71, 79]),
   midi.NoteOnEvent(tick=480, channel=1, data=[71, 0]),
   midi.NoteOnEvent(tick=0, channel=1, data=[72, 79]),
   midi.NoteOnEvent(tick=240, channel=1, data=[72, 0]),
   midi.NoteOnEvent(tick=240, channel=1, data=[69, 79]),
   midi.NoteOnEvent(tick=480, channel=1, data=[69, 0]),
   midi.NoteOnEvent(tick=0, channel=1, data=[67, 79]),
   midi.NoteOnEvent(tick=480, channel=1, data=[67, 0]),
   midi.NoteOnEvent(tick=0, channel=1, data=[64, 79]),
   midi.NoteOnEvent(tick=240, channel=1, data=[64, 0]),
   midi.NoteOnEvent(tick=240, channel=1, data=[62, 79]),
   midi.NoteOnEvent(tick=240, channel=1, data=[62, 0]),
   midi.NoteOnEvent(tick=240, channel=1, data=[60, 79]),
   midi.NoteOnEvent(tick=240, channel=1, data=[60, 0]),
   midi.NoteOnEvent(tick=240, channel=1, data=[59, 79]),
   midi.NoteOnEvent(tick=960, channel=1, data=[59, 0]),
   midi.NoteOnEvent(tick=480, channel=1, data=[71, 79]),
   midi.ControlChangeEvent(tick=48, channel=1, data=[7, 108]),
   midi.NoteOnEvent(tick=192, channel=1, data=[71, 0]),
   midi.NoteOnEvent(tick=0, channel=1, data=[72, 79]),
   midi.NoteOnEvent(tick=240, channel=1, data=[72, 0]),
   midi.NoteOnEvent(tick=0, channel=1, data=[69, 79]),
   midi.NoteOnEvent(tick=480, channel=1, data=[69, 0]),
   midi.ControlChangeEvent(tick=432, channel=1, data=[7, 104]),
   midi.NoteOnEvent(tick=48, channel=1, data=[67, 79]),
   midi.NoteOnEvent(tick=240, channel=1, data=[67, 0]),
   midi.NoteOnEvent(tick=0, channel=1, data=[69, 79]),
   midi.NoteOnEvent(tick=240, channel=1, data=[69, 0]),
   midi.NoteOnEvent(tick=0, channel=1, data=[66, 79]),
   midi.NoteOnEvent(tick=480, channel=1, data=[66, 0]),
   midi.ControlChangeEvent(tick=432, channel=1, data=[7, 108]),
   midi.NoteOnEvent(tick=48, channel=1, data=[64, 79]),
   midi.NoteOnEvent(tick=480, channel=1, data=[64, 0]),
   midi.NoteOnEvent(tick=0, channel=1, data=[67, 79]),
   midi.ControlChangeEvent(tick=168, channel=1, data=[7, 84]),
   midi.NoteOnEvent(tick=312, channel=1, data=[67, 0]),
   midi.NoteOnEvent(tick=0, channel=1, data=[71, 79]),
   midi.ControlChangeEvent(tick=384, channel=1, data=[7, 82]),
   midi.NoteOnEvent(tick=96, channel=1, data=[71, 0]),
   midi.NoteOnEvent(tick=0, channel=1, data=[62, 79]),
   midi.ControlChangeEvent(tick=144, channel=1, data=[7, 64]),
   midi.NoteOnEvent(tick=816, channel=1, data=[62, 0]),
   midi.NoteOnEvent(tick=0, channel=1, data=[61, 79]),
   midi.NoteOnEvent(tick=480, channel=1, data=[61, 0]),
   midi.NoteOnEvent(tick=0, channel=1, data=[62, 79]),
   midi.NoteOnEvent(tick=480, channel=1, data=[62, 0]),
   midi.NoteOnEvent(tick=0, channel=1, data=[64, 79]),
   midi.NoteOnEvent(tick=480, channel=1, data=[64, 0]),
   midi.NoteOnEvent(tick=0, channel=1, data=[66, 79]),
   midi.NoteOnEvent(tick=480, channel=1, data=[66, 0]),
   midi.NoteOnEvent(tick=0, channel=1, data=[67, 79]),
   midi.NoteOnEvent(tick=480, channel=1, data=[67, 0]),
   midi.NoteOnEvent(tick=0, channel=1, data=[69, 79]),
   midi.NoteOnEvent(tick=480, channel=1, data=[69, 0]),
   midi.NoteOnEvent(tick=0, channel=1, data=[71, 79]),
   midi.NoteOnEvent(tick=480, channel=1, data=[71, 0]),
   midi.NoteOnEvent(tick=0, channel=1, data=[69, 79]),
   midi.NoteOnEvent(tick=240, channel=1, data=[69, 0]),
   midi.NoteOnEvent(tick=240, channel=1, data=[66, 79]),
   midi.NoteOnEvent(tick=240, channel=1, data=[66, 0]),
   midi.NoteOnEvent(tick=0, channel=1, data=[62, 79]),
   midi.NoteOnEvent(tick=240, channel=1, data=[62, 0]),
   midi.NoteOnEvent(tick=0, channel=1, data=[64, 79]),
   midi.NoteOnEvent(tick=240, channel=1, data=[64, 0]),
   midi.NoteOnEvent(tick=0, channel=1, data=[61, 79]),
   midi.NoteOnEvent(tick=240, channel=1, data=[61, 0]),
   midi.NoteOnEvent(tick=0, channel=1, data=[62, 79]),
   midi.NoteOnEvent(tick=240, channel=1, data=[62, 0]),
   midi.NoteOnEvent(tick=240, channel=1, data=[66, 79]),
   midi.NoteOnEvent(tick=240, channel=1, data=[66, 0]),
   midi.ControlChangeEvent(tick=144, channel=1, data=[7, 63]),
   midi.NoteOnEvent(tick=96, channel=1, data=[69, 79]),
   midi.NoteOnEvent(tick=240, channel=1, data=[69, 0]),
   midi.NoteOnEvent(tick=240, channel=1, data=[72, 79]),
   midi.NoteOnEvent(tick=960, channel=1, data=[72, 0]),
   midi.NoteOnEvent(tick=0, channel=1, data=[71, 79]),
   midi.NoteOnEvent(tick=480, channel=1, data=[71, 0]),
   midi.NoteOnEvent(tick=0, channel=1, data=[66, 79]),
   midi.NoteOnEvent(tick=960, channel=1, data=[66, 0]),
   midi.NoteOnEvent(tick=0, channel=1, data=[67, 79]),
   midi.NoteOnEvent(tick=240, channel=1, data=[67, 0]),
   midi.NoteOnEvent(tick=720, channel=1, data=[69, 79]),
   midi.NoteOnEvent(tick=240, channel=1, data=[69, 0]),
   midi.NoteOnEvent(tick=240, channel=1, data=[69, 79]),
   midi.NoteOnEvent(tick=240, channel=1, data=[69, 0]),
   midi.NoteOnEvent(tick=240, channel=1, data=[69, 79]),
   midi.NoteOnEvent(tick=1440, channel=1, data=[69, 0]),
   midi.ControlChangeEvent(tick=0, channel=1, data=[7, 100]),
   midi.NoteOnEvent(tick=0, channel=1, data=[67, 79]),
   midi.NoteOnEvent(tick=240, channel=1, data=[67, 0]),
   midi.NoteOnEvent(tick=240, channel=1, data=[71, 79]),
   midi.NoteOnEvent(tick=240, channel=1, data=[71, 0]),
   midi.NoteOnEvent(tick=240, channel=1, data=[67, 79]),
   midi.NoteOnEvent(tick=240, channel=1, data=[67, 0]),
   midi.NoteOnEvent(tick=240, channel=1, data=[66, 79]),
   midi.NoteOnEvent(tick=240, channel=1, data=[66, 0]),
   midi.NoteOnEvent(tick=240, channel=1, data=[69, 79]),
   midi.NoteOnEvent(tick=240, channel=1, data=[69, 0]),
   midi.NoteOnEvent(tick=240, channel=1, data=[62, 79]),
   midi.NoteOnEvent(tick=240, channel=1, data=[62, 0]),
   midi.NoteOnEvent(tick=240, channel=1, data=[67, 79]),
   midi.NoteOnEvent(tick=240, channel=1, data=[67, 0]),
   midi.NoteOnEvent(tick=240, channel=1, data=[67, 79]),
   midi.NoteOnEvent(tick=240, channel=1, data=[67, 0]),
   midi.NoteOnEvent(tick=240, channel=1, data=[60, 79]),
   midi.NoteOnEvent(tick=240, channel=1, data=[60, 0]),
   midi.NoteOnEvent(tick=240, channel=1, data=[62, 79]),
   midi.NoteOnEvent(tick=1440, channel=1, data=[62, 0]),
   midi.NoteOnEvent(tick=0, channel=1, data=[67, 79]),
   midi.NoteOnEvent(tick=240, channel=1, data=[67, 0]),
   midi.NoteOnEvent(tick=240, channel=1, data=[69, 79]),
   midi.NoteOnEvent(tick=240, channel=1, data=[69, 0]),
   midi.NoteOnEvent(tick=240, channel=1, data=[71, 79]),
   midi.NoteOnEvent(tick=240, channel=1, data=[71, 0]),
   midi.NoteOnEvent(tick=240, channel=1, data=[72, 79]),
   midi.NoteOnEvent(tick=240, channel=1, data=[72, 0]),
   midi.NoteOnEvent(tick=240, channel=1, data=[69, 79]),
   midi.NoteOnEvent(tick=480, channel=1, data=[69, 0]),
   midi.NoteOnEvent(tick=0, channel=1, data=[67, 79]),
   midi.NoteOnEvent(tick=480, channel=1, data=[67, 0]),
   midi.NoteOnEvent(tick=0, channel=1, data=[64, 79]),
   midi.NoteOnEvent(tick=240, channel=1, data=[64, 0]),
   midi.NoteOnEvent(tick=240, channel=1, data=[59, 79]),
   midi.NoteOnEvent(tick=240, channel=1, data=[59, 0]),
   midi.NoteOnEvent(tick=240, channel=1, data=[57, 79]),
   midi.NoteOnEvent(tick=240, channel=1, data=[57, 0]),
   midi.NoteOnEvent(tick=240, channel=1, data=[59, 79]),
   midi.NoteOnEvent(tick=960, channel=1, data=[59, 0]),
   midi.ControlChangeEvent(tick=480, channel=1, data=[7, 106]),
   midi.NoteOnEvent(tick=0, channel=1, data=[71, 36]),
   midi.NoteOnEvent(tick=240, channel=1, data=[71, 0]),
   midi.NoteOnEvent(tick=0, channel=1, data=[72, 36]),
   midi.NoteOnEvent(tick=240, channel=1, data=[72, 0]),
   midi.NoteOnEvent(tick=0, channel=1, data=[69, 36]),
   midi.NoteOnEvent(tick=480, channel=1, data=[69, 0]),
   midi.ControlChangeEvent(tick=431, channel=1, data=[7, 52]),
   midi.NoteOnEvent(tick=49, channel=1, data=[67, 36]),
   midi.ControlChangeEvent(tick=48, channel=1, data=[7, 106]),
   midi.NoteOnEvent(tick=192, channel=1, data=[67, 0]),
   midi.NoteOnEvent(tick=0, channel=1, data=[69, 36]),
   midi.NoteOnEvent(tick=240, channel=1, data=[69, 0]),
   midi.NoteOnEvent(tick=0, channel=1, data=[66, 36]),
   midi.NoteOnEvent(tick=480, channel=1, data=[66, 0]),
   midi.ControlChangeEvent(tick=383, channel=1, data=[7, 54]),
   midi.NoteOnEvent(tick=97, channel=1, data=[64, 36]),
   midi.ControlChangeEvent(tick=0, channel=1, data=[7, 106]),
   midi.NoteOnEvent(tick=480, channel=1, data=[64, 0]),
   midi.NoteOnEvent(tick=0, channel=1, data=[67, 36]),
   midi.ControlChangeEvent(tick=64, channel=1, data=[7, 89]),
   midi.NoteOnEvent(tick=416, channel=1, data=[67, 0]),
   midi.NoteOnEvent(tick=0, channel=1, data=[71, 36]),
   midi.ControlChangeEvent(tick=128, channel=1, data=[7, 72]),
   midi.NoteOnEvent(tick=352, channel=1, data=[71, 0]),
   midi.NoteOnEvent(tick=0, channel=1, data=[62, 36]),
   midi.ControlChangeEvent(tick=191, channel=1, data=[7, 56]),
   midi.ControlChangeEvent(tick=49, channel=1, data=[7, 64]),
   midi.NoteOnEvent(tick=720, channel=1, data=[62, 0]),
   midi.NoteOnEvent(tick=0, channel=1, data=[61, 36]),
   midi.NoteOnEvent(tick=480, channel=1, data=[61, 0]),
   midi.NoteOnEvent(tick=0, channel=1, data=[62, 36]),
   midi.NoteOnEvent(tick=480, channel=1, data=[62, 0]),
   midi.NoteOnEvent(tick=0, channel=1, data=[64, 36]),
   midi.NoteOnEvent(tick=480, channel=1, data=[64, 0]),
   midi.NoteOnEvent(tick=0, channel=1, data=[66, 36]),
   midi.NoteOnEvent(tick=480, channel=1, data=[66, 0]),
   midi.NoteOnEvent(tick=0, channel=1, data=[67, 36]),
   midi.NoteOnEvent(tick=480, channel=1, data=[67, 0]),
   midi.NoteOnEvent(tick=0, channel=1, data=[69, 36]),
   midi.NoteOnEvent(tick=480, channel=1, data=[69, 0]),
   midi.NoteOnEvent(tick=0, channel=1, data=[71, 36]),
   midi.NoteOnEvent(tick=480, channel=1, data=[71, 0]),
   midi.NoteOnEvent(tick=0, channel=1, data=[69, 36]),
   midi.NoteOnEvent(tick=480, channel=1, data=[69, 0]),
   midi.NoteOnEvent(tick=0, channel=1, data=[66, 36]),
   midi.NoteOnEvent(tick=240, channel=1, data=[66, 0]),
   midi.NoteOnEvent(tick=0, channel=1, data=[62, 36]),
   midi.NoteOnEvent(tick=240, channel=1, data=[62, 0]),
   midi.NoteOnEvent(tick=0, channel=1, data=[64, 36]),
   midi.NoteOnEvent(tick=240, channel=1, data=[64, 0]),
   midi.NoteOnEvent(tick=0, channel=1, data=[61, 36]),
   midi.NoteOnEvent(tick=240, channel=1, data=[61, 0]),
   midi.NoteOnEvent(tick=0, channel=1, data=[62, 36]),
   midi.NoteOnEvent(tick=480, channel=1, data=[62, 0]),
   midi.NoteOnEvent(tick=0, channel=1, data=[66, 36]),
   midi.NoteOnEvent(tick=480, channel=1, data=[66, 0]),
   midi.NoteOnEvent(tick=0, channel=1, data=[69, 36]),
   midi.NoteOnEvent(tick=480, channel=1, data=[69, 0]),
   midi.NoteOnEvent(tick=0, channel=1, data=[72, 36]),
   midi.NoteOnEvent(tick=960, channel=1, data=[72, 0]),
   midi.NoteOnEvent(tick=0, channel=1, data=[71, 36]),
   midi.NoteOnEvent(tick=480, channel=1, data=[71, 0]),
   midi.NoteOnEvent(tick=0, channel=1, data=[66, 36]),
   midi.NoteOnEvent(tick=960, channel=1, data=[66, 0]),
   midi.NoteOnEvent(tick=0, channel=1, data=[67, 36]),
   midi.NoteOnEvent(tick=480, channel=1, data=[67, 0]),
   midi.NoteOnEvent(tick=480, channel=1, data=[69, 36]),
   midi.NoteOnEvent(tick=480, channel=1, data=[69, 0]),
   midi.NoteOnEvent(tick=0, channel=1, data=[69, 36]),
   midi.NoteOnEvent(tick=480, channel=1, data=[69, 0]),
   midi.NoteOnEvent(tick=0, channel=1, data=[69, 36]),
   midi.NoteOnEvent(tick=1440, channel=1, data=[69, 0]),
   midi.NoteOnEvent(tick=0, channel=1, data=[67, 79]),
   midi.ControlChangeEvent(tick=96, channel=1, data=[7, 98]),
   midi.NoteOnEvent(tick=384, channel=1, data=[67, 0]),
   midi.NoteOnEvent(tick=0, channel=1, data=[71, 79]),
   midi.NoteOnEvent(tick=480, channel=1, data=[71, 0]),
   midi.NoteOnEvent(tick=0, channel=1, data=[67, 79]),
   midi.NoteOnEvent(tick=480, channel=1, data=[67, 0]),
   midi.NoteOnEvent(tick=0, channel=1, data=[66, 79]),
   midi.NoteOnEvent(tick=480, channel=1, data=[66, 0]),
   midi.NoteOnEvent(tick=0, channel=1, data=[69, 79]),
   midi.NoteOnEvent(tick=480, channel=1, data=[69, 0]),
   midi.NoteOnEvent(tick=0, channel=1, data=[62, 79]),
   midi.NoteOnEvent(tick=480, channel=1, data=[62, 0]),
   midi.NoteOnEvent(tick=0, channel=1, data=[67, 79]),
   midi.NoteOnEvent(tick=480, channel=1, data=[67, 0]),
   midi.NoteOnEvent(tick=0, channel=1, data=[64, 79]),
   midi.NoteOnEvent(tick=480, channel=1, data=[64, 0]),
   midi.NoteOnEvent(tick=0, channel=1, data=[60, 79]),
   midi.NoteOnEvent(tick=480, channel=1, data=[60, 0]),
   midi.NoteOnEvent(tick=0, channel=1, data=[62, 79]),
   midi.NoteOnEvent(tick=1440, channel=1, data=[62, 0]),
   midi.NoteOnEvent(tick=0, channel=1, data=[67, 79]),
   midi.ControlChangeEvent(tick=48, channel=1, data=[7, 98]),
   midi.NoteOnEvent(tick=432, channel=1, data=[67, 0]),
   midi.NoteOnEvent(tick=0, channel=1, data=[69, 79]),
   midi.NoteOnEvent(tick=480, channel=1, data=[69, 0]),
   midi.NoteOnEvent(tick=0, channel=1, data=[71, 79]),
   midi.NoteOnEvent(tick=480, channel=1, data=[71, 0]),
   midi.NoteOnEvent(tick=0, channel=1, data=[72, 79]),
   midi.NoteOnEvent(tick=480, channel=1, data=[72, 0]),
   midi.NoteOnEvent(tick=0, channel=1, data=[69, 79]),
   midi.NoteOnEvent(tick=480, channel=1, data=[69, 0]),
   midi.NoteOnEvent(tick=0, channel=1, data=[67, 79]),
   midi.NoteOnEvent(tick=480, channel=1, data=[67, 0]),
   midi.NoteOnEvent(tick=0, channel=1, data=[64, 79]),
   midi.NoteOnEvent(tick=480, channel=1, data=[64, 0]),
   midi.NoteOnEvent(tick=0, channel=1, data=[59, 79]),
   midi.NoteOnEvent(tick=480, channel=1, data=[59, 0]),
   midi.NoteOnEvent(tick=0, channel=1, data=[57, 79]),
   midi.NoteOnEvent(tick=480, channel=1, data=[57, 0]),
   midi.NoteOnEvent(tick=0, channel=1, data=[59, 79]),
   midi.NoteOnEvent(tick=960, channel=1, data=[59, 0]),
   midi.ControlChangeEvent(tick=479, channel=1, data=[7, 60]),
   midi.NoteOnEvent(tick=1, channel=1, data=[67, 36]),
   midi.NoteOnEvent(tick=480, channel=1, data=[67, 0]),
   midi.NoteOnEvent(tick=0, channel=1, data=[67, 36]),
   midi.NoteOnEvent(tick=480, channel=1, data=[67, 0]),
   midi.NoteOnEvent(tick=0, channel=1, data=[67, 36]),
   midi.NoteOnEvent(tick=480, channel=1, data=[67, 0]),
   midi.NoteOnEvent(tick=0, channel=1, data=[67, 36]),
   midi.NoteOnEvent(tick=480, channel=1, data=[67, 0]),
   midi.NoteOnEvent(tick=0, channel=1, data=[67, 36]),
   midi.NoteOnEvent(tick=480, channel=1, data=[67, 0]),
   midi.NoteOnEvent(tick=0, channel=1, data=[67, 36]),
   midi.NoteOnEvent(tick=480, channel=1, data=[67, 0]),
   midi.NoteOnEvent(tick=0, channel=1, data=[64, 36]),
   midi.NoteOnEvent(tick=480, channel=1, data=[64, 0]),
   midi.NoteOnEvent(tick=0, channel=1, data=[64, 36]),
   midi.NoteOnEvent(tick=480, channel=1, data=[64, 0]),
   midi.NoteOnEvent(tick=0, channel=1, data=[64, 36]),
   midi.NoteOnEvent(tick=480, channel=1, data=[64, 0]),
   midi.NoteOnEvent(tick=0, channel=1, data=[64, 36]),
   midi.NoteOnEvent(tick=480, channel=1, data=[64, 0]),
   midi.NoteOnEvent(tick=0, channel=1, data=[64, 36]),
   midi.NoteOnEvent(tick=480, channel=1, data=[64, 0]),
   midi.NoteOnEvent(tick=0, channel=1, data=[64, 36]),
   midi.NoteOnEvent(tick=480, channel=1, data=[64, 0]),
   midi.NoteOnEvent(tick=0, channel=1, data=[60, 36]),
   midi.NoteOnEvent(tick=480, channel=1, data=[60, 0]),
   midi.NoteOnEvent(tick=0, channel=1, data=[60, 36]),
   midi.NoteOnEvent(tick=480, channel=1, data=[60, 0]),
   midi.NoteOnEvent(tick=0, channel=1, data=[60, 36]),
   midi.NoteOnEvent(tick=480, channel=1, data=[60, 0]),
   midi.NoteOnEvent(tick=0, channel=1, data=[60, 36]),
   midi.NoteOnEvent(tick=480, channel=1, data=[60, 0]),
   midi.NoteOnEvent(tick=0, channel=1, data=[60, 36]),
   midi.NoteOnEvent(tick=480, channel=1, data=[60, 0]),
   midi.NoteOnEvent(tick=0, channel=1, data=[60, 36]),
   midi.NoteOnEvent(tick=480, channel=1, data=[60, 0]),
   midi.NoteOnEvent(tick=0, channel=1, data=[60, 36]),
   midi.NoteOnEvent(tick=480, channel=1, data=[60, 0]),
   midi.NoteOnEvent(tick=240, channel=1, data=[69, 36]),
   midi.NoteOnEvent(tick=240, channel=1, data=[69, 0]),
   midi.NoteOnEvent(tick=0, channel=1, data=[67, 36]),
   midi.NoteOnEvent(tick=240, channel=1, data=[67, 0]),
   midi.NoteOnEvent(tick=0, channel=1, data=[65, 36]),
   midi.NoteOnEvent(tick=240, channel=1, data=[65, 0]),
   midi.NoteOnEvent(tick=0, channel=1, data=[65, 36]),
   midi.NoteOnEvent(tick=240, channel=1, data=[65, 0]),
   midi.NoteOnEvent(tick=0, channel=1, data=[64, 36]),
   midi.NoteOnEvent(tick=720, channel=1, data=[64, 0]),
   midi.NoteOnEvent(tick=480, channel=1, data=[67, 36]),
   midi.NoteOnEvent(tick=480, channel=1, data=[67, 0]),
   midi.NoteOnEvent(tick=0, channel=1, data=[67, 36]),
   midi.NoteOnEvent(tick=480, channel=1, data=[67, 0]),
   midi.NoteOnEvent(tick=0, channel=1, data=[67, 36]),
   midi.NoteOnEvent(tick=480, channel=1, data=[67, 0]),
   midi.NoteOnEvent(tick=0, channel=1, data=[67, 36]),
   midi.NoteOnEvent(tick=480, channel=1, data=[67, 0]),
   midi.NoteOnEvent(tick=0, channel=1, data=[67, 36]),
   midi.NoteOnEvent(tick=480, channel=1, data=[67, 0]),
   midi.NoteOnEvent(tick=0, channel=1, data=[67, 36]),
   midi.NoteOnEvent(tick=480, channel=1, data=[67, 0]),
   midi.NoteOnEvent(tick=0, channel=1, data=[64, 36]),
   midi.NoteOnEvent(tick=480, channel=1, data=[64, 0]),
   midi.NoteOnEvent(tick=0, channel=1, data=[64, 36]),
   midi.NoteOnEvent(tick=480, channel=1, data=[64, 0]),
   midi.NoteOnEvent(tick=0, channel=1, data=[64, 36]),
   midi.NoteOnEvent(tick=480, channel=1, data=[64, 0]),
   midi.NoteOnEvent(tick=0, channel=1, data=[64, 36]),
   midi.NoteOnEvent(tick=480, channel=1, data=[64, 0]),
   midi.NoteOnEvent(tick=0, channel=1, data=[64, 36]),
   midi.NoteOnEvent(tick=480, channel=1, data=[64, 0]),
   midi.NoteOnEvent(tick=0, channel=1, data=[64, 36]),
   midi.NoteOnEvent(tick=480, channel=1, data=[64, 0]),
   midi.NoteOnEvent(tick=0, channel=1, data=[60, 36]),
   midi.NoteOnEvent(tick=480, channel=1, data=[60, 0]),
   midi.NoteOnEvent(tick=0, channel=1, data=[60, 36]),
   midi.NoteOnEvent(tick=480, channel=1, data=[60, 0]),
   midi.NoteOnEvent(tick=0, channel=1, data=[60, 36]),
   midi.NoteOnEvent(tick=480, channel=1, data=[60, 0]),
   midi.NoteOnEvent(tick=0, channel=1, data=[60, 36]),
   midi.NoteOnEvent(tick=480, channel=1, data=[60, 0]),
   midi.NoteOnEvent(tick=0, channel=1, data=[60, 36]),
   midi.NoteOnEvent(tick=480, channel=1, data=[60, 0]),
   midi.NoteOnEvent(tick=0, channel=1, data=[60, 36]),
   midi.NoteOnEvent(tick=480, channel=1, data=[60, 0]),
   midi.NoteOnEvent(tick=0, channel=1, data=[60, 36]),
   midi.NoteOnEvent(tick=480, channel=1, data=[60, 0]),
   midi.NoteOnEvent(tick=240, channel=1, data=[69, 36]),
   midi.NoteOnEvent(tick=240, channel=1, data=[69, 0]),
   midi.NoteOnEvent(tick=0, channel=1, data=[67, 36]),
   midi.NoteOnEvent(tick=240, channel=1, data=[67, 0]),
   midi.NoteOnEvent(tick=0, channel=1, data=[65, 36]),
   midi.NoteOnEvent(tick=240, channel=1, data=[65, 0]),
   midi.NoteOnEvent(tick=0, channel=1, data=[65, 36]),
   midi.NoteOnEvent(tick=240, channel=1, data=[65, 0]),
   midi.NoteOnEvent(tick=0, channel=1, data=[64, 36]),
   midi.NoteOnEvent(tick=720, channel=1, data=[64, 0]),
   midi.ControlChangeEvent(tick=360, channel=1, data=[7, 110]),
   midi.NoteOnEvent(tick=120, channel=1, data=[79, 79]),
   midi.ControlChangeEvent(tick=300, channel=1, data=[7, 109]),
   midi.NoteOnEvent(tick=420, channel=1, data=[79, 0]),
   midi.NoteOnEvent(tick=0, channel=1, data=[78, 79]),
   midi.ControlChangeEvent(tick=0, channel=1, data=[7, 108]),
   midi.NoteOnEvent(tick=120, channel=1, data=[78, 0]),
   midi.NoteOnEvent(tick=0, channel=1, data=[76, 79]),
   midi.NoteOnEvent(tick=120, channel=1, data=[76, 0]),
   midi.NoteOnEvent(tick=0, channel=1, data=[74, 79]),
   midi.ControlChangeEvent(tick=180, channel=1, data=[7, 107]),
   midi.NoteOnEvent(tick=300, channel=1, data=[74, 0]),
   midi.NoteOnEvent(tick=0, channel=1, data=[76, 79]),
   midi.ControlChangeEvent(tick=119, channel=1, data=[7, 106]),
   midi.NoteOnEvent(tick=601, channel=1, data=[76, 0]),
   midi.NoteOnEvent(tick=0, channel=1, data=[74, 79]),
   midi.NoteOnEvent(tick=120, channel=1, data=[74, 0]),
   midi.NoteOnEvent(tick=0, channel=1, data=[72, 79]),
   midi.NoteOnEvent(tick=120, channel=1, data=[72, 0]),
   midi.NoteOnEvent(tick=0, channel=1, data=[71, 79]),
   midi.NoteOnEvent(tick=480, channel=1, data=[71, 0]),
   midi.ControlChangeEvent(tick=0, channel=1, data=[7, 60]),
   midi.NoteOnEvent(tick=0, channel=1, data=[67, 36]),
   midi.NoteOnEvent(tick=480, channel=1, data=[67, 0]),
   midi.NoteOnEvent(tick=0, channel=1, data=[67, 36]),
   midi.NoteOnEvent(tick=480, channel=1, data=[67, 0]),
   midi.NoteOnEvent(tick=0, channel=1, data=[69, 36]),
   midi.NoteOnEvent(tick=240, channel=1, data=[69, 0]),
   midi.NoteOnEvent(tick=0, channel=1, data=[66, 36]),
   midi.NoteOnEvent(tick=240, channel=1, data=[66, 0]),
   midi.NoteOnEvent(tick=0, channel=1, data=[67, 36]),
   midi.NoteOnEvent(tick=480, channel=1, data=[67, 0]),
   midi.NoteOnEvent(tick=0, channel=1, data=[69, 36]),
   midi.NoteOnEvent(tick=480, channel=1, data=[69, 0]),
   midi.NoteOnEvent(tick=0, channel=1, data=[71, 36]),
   midi.NoteOnEvent(tick=480, channel=1, data=[71, 0]),
   midi.ControlChangeEvent(tick=0, channel=1, data=[7, 106]),
   midi.NoteOnEvent(tick=1440, channel=1, data=[55, 79]),
   midi.NoteOnEvent(tick=240, channel=1, data=[55, 0]),
   midi.NoteOnEvent(tick=0, channel=1, data=[79, 79]),
   midi.NoteOnEvent(tick=240, channel=1, data=[79, 0]),
   midi.NoteOnEvent(tick=0, channel=1, data=[78, 79]),
   midi.NoteOnEvent(tick=240, channel=1, data=[78, 0]),
   midi.NoteOnEvent(tick=0, channel=1, data=[76, 79]),
   midi.NoteOnEvent(tick=240, channel=1, data=[76, 0]),
   midi.NoteOnEvent(tick=0, channel=1, data=[74, 79]),
   midi.NoteOnEvent(tick=240, channel=1, data=[74, 0]),
   midi.NoteOnEvent(tick=0, channel=1, data=[72, 79]),
   midi.NoteOnEvent(tick=240, channel=1, data=[72, 0]),
   midi.NoteOnEvent(tick=0, channel=1, data=[71, 79]),
   midi.NoteOnEvent(tick=240, channel=1, data=[71, 0]),
   midi.NoteOnEvent(tick=0, channel=1, data=[67, 79]),
   midi.NoteOnEvent(tick=240, channel=1, data=[67, 0]),
   midi.NoteOnEvent(tick=0, channel=1, data=[76, 79]),
   midi.NoteOnEvent(tick=480, channel=1, data=[76, 0]),
   midi.NoteOnEvent(tick=0, channel=1, data=[72, 79]),
   midi.NoteOnEvent(tick=480, channel=1, data=[72, 0]),
   midi.NoteOnEvent(tick=0, channel=1, data=[71, 79]),
   midi.NoteOnEvent(tick=480, channel=1, data=[71, 0]),
   midi.NoteOnEvent(tick=0, channel=1, data=[55, 79]),
   midi.NoteOnEvent(tick=480, channel=1, data=[55, 0]),
   midi.NoteOnEvent(tick=0, channel=1, data=[67, 79]),
   midi.NoteOnEvent(tick=480, channel=1, data=[67, 0]),
   midi.ControlChangeEvent(tick=0, channel=1, data=[7, 62]),
   midi.NoteOnEvent(tick=0, channel=1, data=[67, 36]),
   midi.NoteOnEvent(tick=480, channel=1, data=[67, 0]),
   midi.NoteOnEvent(tick=0, channel=1, data=[67, 36]),
   midi.NoteOnEvent(tick=480, channel=1, data=[67, 0]),
   midi.NoteOnEvent(tick=0, channel=1, data=[67, 36]),
   midi.NoteOnEvent(tick=480, channel=1, data=[67, 0]),
   midi.NoteOnEvent(tick=0, channel=1, data=[67, 36]),
   midi.NoteOnEvent(tick=480, channel=1, data=[67, 0]),
   midi.NoteOnEvent(tick=0, channel=1, data=[67, 36]),
   midi.NoteOnEvent(tick=480, channel=1, data=[67, 0]),
   midi.NoteOnEvent(tick=0, channel=1, data=[67, 36]),
   midi.NoteOnEvent(tick=480, channel=1, data=[67, 0]),
   midi.NoteOnEvent(tick=0, channel=1, data=[64, 36]),
   midi.NoteOnEvent(tick=480, channel=1, data=[64, 0]),
   midi.NoteOnEvent(tick=0, channel=1, data=[64, 36]),
   midi.NoteOnEvent(tick=480, channel=1, data=[64, 0]),
   midi.NoteOnEvent(tick=0, channel=1, data=[64, 36]),
   midi.NoteOnEvent(tick=480, channel=1, data=[64, 0]),
   midi.NoteOnEvent(tick=0, channel=1, data=[64, 36]),
   midi.NoteOnEvent(tick=480, channel=1, data=[64, 0]),
   midi.NoteOnEvent(tick=0, channel=1, data=[64, 36]),
   midi.NoteOnEvent(tick=480, channel=1, data=[64, 0]),
   midi.NoteOnEvent(tick=0, channel=1, data=[64, 36]),
   midi.NoteOnEvent(tick=480, channel=1, data=[64, 0]),
   midi.NoteOnEvent(tick=0, channel=1, data=[60, 36]),
   midi.NoteOnEvent(tick=480, channel=1, data=[60, 0]),
   midi.NoteOnEvent(tick=0, channel=1, data=[60, 36]),
   midi.NoteOnEvent(tick=480, channel=1, data=[60, 0]),
   midi.NoteOnEvent(tick=0, channel=1, data=[60, 36]),
   midi.NoteOnEvent(tick=480, channel=1, data=[60, 0]),
   midi.NoteOnEvent(tick=0, channel=1, data=[60, 36]),
   midi.NoteOnEvent(tick=480, channel=1, data=[60, 0]),
   midi.NoteOnEvent(tick=0, channel=1, data=[60, 36]),
   midi.NoteOnEvent(tick=480, channel=1, data=[60, 0]),
   midi.NoteOnEvent(tick=0, channel=1, data=[60, 36]),
   midi.NoteOnEvent(tick=480, channel=1, data=[60, 0]),
   midi.NoteOnEvent(tick=0, channel=1, data=[60, 36]),
   midi.NoteOnEvent(tick=480, channel=1, data=[60, 0]),
   midi.NoteOnEvent(tick=240, channel=1, data=[69, 36]),
   midi.NoteOnEvent(tick=240, channel=1, data=[69, 0]),
   midi.NoteOnEvent(tick=0, channel=1, data=[67, 36]),
   midi.NoteOnEvent(tick=240, channel=1, data=[67, 0]),
   midi.NoteOnEvent(tick=0, channel=1, data=[65, 36]),
   midi.NoteOnEvent(tick=240, channel=1, data=[65, 0]),
   midi.NoteOnEvent(tick=0, channel=1, data=[65, 36]),
   midi.NoteOnEvent(tick=240, channel=1, data=[65, 0]),
   midi.NoteOnEvent(tick=0, channel=1, data=[64, 36]),
   midi.NoteOnEvent(tick=720, channel=1, data=[64, 0]),
   midi.ControlChangeEvent(tick=480, channel=1, data=[7, 106]),
   midi.NoteOnEvent(tick=0, channel=1, data=[79, 79]),
   midi.NoteOnEvent(tick=720, channel=1, data=[79, 0]),
   midi.NoteOnEvent(tick=0, channel=1, data=[78, 79]),
   midi.NoteOnEvent(tick=120, channel=1, data=[78, 0]),
   midi.NoteOnEvent(tick=0, channel=1, data=[76, 79]),
   midi.NoteOnEvent(tick=120, channel=1, data=[76, 0]),
   midi.NoteOnEvent(tick=0, channel=1, data=[74, 79]),
   midi.NoteOnEvent(tick=480, channel=1, data=[74, 0]),
   midi.NoteOnEvent(tick=0, channel=1, data=[76, 79]),
   midi.NoteOnEvent(tick=720, channel=1, data=[76, 0]),
   midi.NoteOnEvent(tick=0, channel=1, data=[74, 79]),
   midi.NoteOnEvent(tick=120, channel=1, data=[74, 0]),
   midi.NoteOnEvent(tick=0, channel=1, data=[72, 79]),
   midi.NoteOnEvent(tick=120, channel=1, data=[72, 0]),
   midi.NoteOnEvent(tick=0, channel=1, data=[71, 79]),
   midi.ControlChangeEvent(tick=479, channel=1, data=[7, 106]),
   midi.NoteOnEvent(tick=1, channel=1, data=[71, 0]),
   midi.NoteOnEvent(tick=0, channel=1, data=[67, 36]),
   midi.ControlChangeEvent(tick=0, channel=1, data=[7, 64]),
   midi.NoteOnEvent(tick=480, channel=1, data=[67, 0]),
   midi.NoteOnEvent(tick=0, channel=1, data=[67, 36]),
   midi.NoteOnEvent(tick=480, channel=1, data=[67, 0]),
   midi.NoteOnEvent(tick=0, channel=1, data=[69, 36]),
   midi.NoteOnEvent(tick=240, channel=1, data=[69, 0]),
   midi.NoteOnEvent(tick=0, channel=1, data=[66, 36]),
   midi.NoteOnEvent(tick=240, channel=1, data=[66, 0]),
   midi.NoteOnEvent(tick=0, channel=1, data=[67, 36]),
   midi.NoteOnEvent(tick=480, channel=1, data=[67, 0]),
   midi.NoteOnEvent(tick=0, channel=1, data=[69, 36]),
   midi.NoteOnEvent(tick=480, channel=1, data=[69, 0]),
   midi.NoteOnEvent(tick=0, channel=1, data=[71, 36]),
   midi.NoteOnEvent(tick=480, channel=1, data=[71, 0]),
   midi.ControlChangeEvent(tick=0, channel=1, data=[7, 100]),
   midi.NoteOnEvent(tick=1440, channel=1, data=[55, 79]),
   midi.NoteOnEvent(tick=240, channel=1, data=[55, 0]),
   midi.NoteOnEvent(tick=0, channel=1, data=[79, 79]),
   midi.NoteOnEvent(tick=240, channel=1, data=[79, 0]),
   midi.NoteOnEvent(tick=0, channel=1, data=[78, 79]),
   midi.NoteOnEvent(tick=240, channel=1, data=[78, 0]),
   midi.NoteOnEvent(tick=0, channel=1, data=[76, 79]),
   midi.NoteOnEvent(tick=240, channel=1, data=[76, 0]),
   midi.NoteOnEvent(tick=0, channel=1, data=[74, 79]),
   midi.NoteOnEvent(tick=240, channel=1, data=[74, 0]),
   midi.NoteOnEvent(tick=0, channel=1, data=[72, 79]),
   midi.NoteOnEvent(tick=240, channel=1, data=[72, 0]),
   midi.NoteOnEvent(tick=0, channel=1, data=[71, 79]),
   midi.NoteOnEvent(tick=240, channel=1, data=[71, 0]),
   midi.NoteOnEvent(tick=0, channel=1, data=[67, 79]),
   midi.NoteOnEvent(tick=240, channel=1, data=[67, 0]),
   midi.NoteOnEvent(tick=0, channel=1, data=[76, 79]),
   midi.NoteOnEvent(tick=480, channel=1, data=[76, 0]),
   midi.NoteOnEvent(tick=0, channel=1, data=[72, 79]),
   midi.NoteOnEvent(tick=480, channel=1, data=[72, 0]),
   midi.NoteOnEvent(tick=0, channel=1, data=[71, 79]),
   midi.NoteOnEvent(tick=480, channel=1, data=[71, 0]),
   midi.NoteOnEvent(tick=0, channel=1, data=[55, 79]),
   midi.NoteOnEvent(tick=480, channel=1, data=[55, 0]),
   midi.NoteOnEvent(tick=0, channel=1, data=[67, 79]),
   midi.NoteOnEvent(tick=480, channel=1, data=[67, 0]),
   midi.ControlChangeEvent(tick=0, channel=1, data=[7, 62]),
   midi.NoteOnEvent(tick=0, channel=1, data=[67, 36]),
   midi.NoteOnEvent(tick=480, channel=1, data=[67, 0]),
   midi.NoteOnEvent(tick=0, channel=1, data=[67, 36]),
   midi.NoteOnEvent(tick=480, channel=1, data=[67, 0]),
   midi.NoteOnEvent(tick=0, channel=1, data=[67, 36]),
   midi.NoteOnEvent(tick=480, channel=1, data=[67, 0]),
   midi.NoteOnEvent(tick=0, channel=1, data=[67, 36]),
   midi.NoteOnEvent(tick=480, channel=1, data=[67, 0]),
   midi.NoteOnEvent(tick=0, channel=1, data=[67, 36]),
   midi.NoteOnEvent(tick=480, channel=1, data=[67, 0]),
   midi.NoteOnEvent(tick=0, channel=1, data=[67, 36]),
   midi.NoteOnEvent(tick=480, channel=1, data=[67, 0]),
   midi.NoteOnEvent(tick=0, channel=1, data=[64, 36]),
   midi.NoteOnEvent(tick=480, channel=1, data=[64, 0]),
   midi.NoteOnEvent(tick=0, channel=1, data=[64, 36]),
   midi.NoteOnEvent(tick=480, channel=1, data=[64, 0]),
   midi.NoteOnEvent(tick=0, channel=1, data=[64, 36]),
   midi.NoteOnEvent(tick=480, channel=1, data=[64, 0]),
   midi.NoteOnEvent(tick=0, channel=1, data=[64, 36]),
   midi.NoteOnEvent(tick=480, channel=1, data=[64, 0]),
   midi.NoteOnEvent(tick=0, channel=1, data=[64, 36]),
   midi.NoteOnEvent(tick=480, channel=1, data=[64, 0]),
   midi.NoteOnEvent(tick=0, channel=1, data=[64, 36]),
   midi.NoteOnEvent(tick=480, channel=1, data=[64, 0]),
   midi.NoteOnEvent(tick=0, channel=1, data=[60, 36]),
   midi.NoteOnEvent(tick=480, channel=1, data=[60, 0]),
   midi.NoteOnEvent(tick=0, channel=1, data=[60, 36]),
   midi.NoteOnEvent(tick=480, channel=1, data=[60, 0]),
   midi.NoteOnEvent(tick=0, channel=1, data=[60, 36]),
   midi.NoteOnEvent(tick=480, channel=1, data=[60, 0]),
   midi.NoteOnEvent(tick=0, channel=1, data=[60, 36]),
   midi.NoteOnEvent(tick=480, channel=1, data=[60, 0]),
   midi.NoteOnEvent(tick=0, channel=1, data=[60, 36]),
   midi.NoteOnEvent(tick=480, channel=1, data=[60, 0]),
   midi.NoteOnEvent(tick=0, channel=1, data=[60, 36]),
   midi.NoteOnEvent(tick=480, channel=1, data=[60, 0]),
   midi.NoteOnEvent(tick=0, channel=1, data=[60, 36]),
   midi.NoteOnEvent(tick=480, channel=1, data=[60, 0]),
   midi.NoteOnEvent(tick=240, channel=1, data=[69, 36]),
   midi.NoteOnEvent(tick=240, channel=1, data=[69, 0]),
   midi.NoteOnEvent(tick=0, channel=1, data=[67, 36]),
   midi.NoteOnEvent(tick=240, channel=1, data=[67, 0]),
   midi.NoteOnEvent(tick=0, channel=1, data=[65, 36]),
   midi.NoteOnEvent(tick=240, channel=1, data=[65, 0]),
   midi.NoteOnEvent(tick=0, channel=1, data=[65, 36]),
   midi.NoteOnEvent(tick=240, channel=1, data=[65, 0]),
   midi.NoteOnEvent(tick=0, channel=1, data=[64, 36]),
   midi.NoteOnEvent(tick=720, channel=1, data=[64, 0]),
   midi.ControlChangeEvent(tick=432, channel=1, data=[7, 102]),
   midi.NoteOnEvent(tick=48, channel=1, data=[67, 36]),
   midi.NoteOnEvent(tick=480, channel=1, data=[67, 0]),
   midi.NoteOnEvent(tick=0, channel=1, data=[71, 36]),
   midi.NoteOnEvent(tick=480, channel=1, data=[71, 0]),
   midi.NoteOnEvent(tick=0, channel=1, data=[67, 36]),
   midi.NoteOnEvent(tick=480, channel=1, data=[67, 0]),
   midi.NoteOnEvent(tick=0, channel=1, data=[66, 36]),
   midi.NoteOnEvent(tick=480, channel=1, data=[66, 0]),
   midi.NoteOnEvent(tick=0, channel=1, data=[69, 36]),
   midi.NoteOnEvent(tick=480, channel=1, data=[69, 0]),
   midi.NoteOnEvent(tick=0, channel=1, data=[62, 36]),
   midi.NoteOnEvent(tick=480, channel=1, data=[62, 0]),
   midi.NoteOnEvent(tick=0, channel=1, data=[67, 36]),
   midi.NoteOnEvent(tick=480, channel=1, data=[67, 0]),
   midi.NoteOnEvent(tick=0, channel=1, data=[64, 36]),
   midi.NoteOnEvent(tick=480, channel=1, data=[64, 0]),
   midi.NoteOnEvent(tick=0, channel=1, data=[60, 36]),
   midi.NoteOnEvent(tick=480, channel=1, data=[60, 0]),
   midi.NoteOnEvent(tick=0, channel=1, data=[62, 36]),
   midi.NoteOnEvent(tick=1440, channel=1, data=[62, 0]),
   midi.NoteOnEvent(tick=0, channel=1, data=[67, 36]),
   midi.NoteOnEvent(tick=480, channel=1, data=[67, 0]),
   midi.NoteOnEvent(tick=0, channel=1, data=[69, 36]),
   midi.NoteOnEvent(tick=480, channel=1, data=[69, 0]),
   midi.NoteOnEvent(tick=0, channel=1, data=[71, 36]),
   midi.NoteOnEvent(tick=480, channel=1, data=[71, 0]),
   midi.NoteOnEvent(tick=0, channel=1, data=[72, 36]),
   midi.NoteOnEvent(tick=480, channel=1, data=[72, 0]),
   midi.NoteOnEvent(tick=0, channel=1, data=[69, 36]),
   midi.NoteOnEvent(tick=480, channel=1, data=[69, 0]),
   midi.NoteOnEvent(tick=0, channel=1, data=[67, 36]),
   midi.NoteOnEvent(tick=480, channel=1, data=[67, 0]),
   midi.NoteOnEvent(tick=0, channel=1, data=[64, 36]),
   midi.NoteOnEvent(tick=480, channel=1, data=[64, 0]),
   midi.NoteOnEvent(tick=0, channel=1, data=[62, 36]),
   midi.NoteOnEvent(tick=480, channel=1, data=[62, 0]),
   midi.NoteOnEvent(tick=0, channel=1, data=[60, 36]),
   midi.NoteOnEvent(tick=480, channel=1, data=[60, 0]),
   midi.NoteOnEvent(tick=0, channel=1, data=[59, 36]),
   midi.NoteOnEvent(tick=960, channel=1, data=[59, 0]),
   midi.NoteOnEvent(tick=480, channel=1, data=[71, 36]),
   midi.ControlChangeEvent(tick=192, channel=1, data=[7, 88]),
   midi.NoteOnEvent(tick=48, channel=1, data=[71, 0]),
   midi.NoteOnEvent(tick=0, channel=1, data=[72, 36]),
   midi.NoteOnEvent(tick=240, channel=1, data=[72, 0]),
   midi.NoteOnEvent(tick=0, channel=1, data=[69, 36]),
   midi.NoteOnEvent(tick=480, channel=1, data=[69, 0]),
   midi.ControlChangeEvent(tick=479, channel=1, data=[7, 56]),
   midi.NoteOnEvent(tick=1, channel=1, data=[67, 36]),
   midi.ControlChangeEvent(tick=96, channel=1, data=[7, 102]),
   midi.NoteOnEvent(tick=144, channel=1, data=[67, 0]),
   midi.NoteOnEvent(tick=0, channel=1, data=[69, 36]),
   midi.ControlChangeEvent(tick=96, channel=1, data=[7, 76]),
   midi.NoteOnEvent(tick=144, channel=1, data=[69, 0]),
   midi.NoteOnEvent(tick=0, channel=1, data=[66, 36]),
   midi.ControlChangeEvent(tick=48, channel=1, data=[7, 52]),
   midi.NoteOnEvent(tick=432, channel=1, data=[66, 0]),
   midi.NoteOnEvent(tick=480, channel=1, data=[64, 36]),
   midi.ControlChangeEvent(tick=432, channel=1, data=[7, 70]),
   midi.NoteOnEvent(tick=48, channel=1, data=[64, 0]),
   midi.NoteOnEvent(tick=0, channel=1, data=[67, 36]),
   midi.NoteOnEvent(tick=480, channel=1, data=[67, 0]),
   midi.NoteOnEvent(tick=0, channel=1, data=[71, 36]),
   midi.ControlChangeEvent(tick=432, channel=1, data=[7, 60]),
   midi.NoteOnEvent(tick=48, channel=1, data=[71, 0]),
   midi.NoteOnEvent(tick=0, channel=1, data=[62, 36]),
   midi.ControlChangeEvent(tick=527, channel=1, data=[7, 64]),
   midi.NoteOnEvent(tick=433, channel=1, data=[62, 0]),
   midi.NoteOnEvent(tick=0, channel=1, data=[61, 36]),
   midi.NoteOnEvent(tick=480, channel=1, data=[61, 0]),
   midi.NoteOnEvent(tick=0, channel=1, data=[62, 36]),
   midi.NoteOnEvent(tick=480, channel=1, data=[62, 0]),
   midi.NoteOnEvent(tick=0, channel=1, data=[64, 36]),
   midi.NoteOnEvent(tick=480, channel=1, data=[64, 0]),
   midi.NoteOnEvent(tick=0, channel=1, data=[66, 36]),
   midi.NoteOnEvent(tick=480, channel=1, data=[66, 0]),
   midi.NoteOnEvent(tick=0, channel=1, data=[67, 36]),
   midi.NoteOnEvent(tick=480, channel=1, data=[67, 0]),
   midi.NoteOnEvent(tick=0, channel=1, data=[69, 36]),
   midi.NoteOnEvent(tick=480, channel=1, data=[69, 0]),
   midi.NoteOnEvent(tick=0, channel=1, data=[71, 36]),
   midi.NoteOnEvent(tick=480, channel=1, data=[71, 0]),
   midi.NoteOnEvent(tick=0, channel=1, data=[69, 36]),
   midi.NoteOnEvent(tick=480, channel=1, data=[69, 0]),
   midi.NoteOnEvent(tick=0, channel=1, data=[66, 36]),
   midi.NoteOnEvent(tick=240, channel=1, data=[66, 0]),
   midi.NoteOnEvent(tick=0, channel=1, data=[62, 36]),
   midi.NoteOnEvent(tick=240, channel=1, data=[62, 0]),
   midi.NoteOnEvent(tick=0, channel=1, data=[64, 36]),
   midi.NoteOnEvent(tick=240, channel=1, data=[64, 0]),
   midi.NoteOnEvent(tick=0, channel=1, data=[61, 36]),
   midi.NoteOnEvent(tick=240, channel=1, data=[61, 0]),
   midi.NoteOnEvent(tick=0, channel=1, data=[62, 36]),
   midi.NoteOnEvent(tick=480, channel=1, data=[62, 0]),
   midi.NoteOnEvent(tick=0, channel=1, data=[66, 36]),
   midi.NoteOnEvent(tick=480, channel=1, data=[66, 0]),
   midi.NoteOnEvent(tick=0, channel=1, data=[69, 36]),
   midi.NoteOnEvent(tick=480, channel=1, data=[69, 0]),
   midi.NoteOnEvent(tick=0, channel=1, data=[72, 36]),
   midi.NoteOnEvent(tick=960, channel=1, data=[72, 0]),
   midi.NoteOnEvent(tick=0, channel=1, data=[71, 36]),
   midi.NoteOnEvent(tick=480, channel=1, data=[71, 0]),
   midi.NoteOnEvent(tick=0, channel=1, data=[66, 36]),
   midi.NoteOnEvent(tick=960, channel=1, data=[66, 0]),
   midi.NoteOnEvent(tick=0, channel=1, data=[67, 36]),
   midi.NoteOnEvent(tick=480, channel=1, data=[67, 0]),
   midi.NoteOnEvent(tick=480, channel=1, data=[69, 36]),
   midi.NoteOnEvent(tick=480, channel=1, data=[69, 0]),
   midi.NoteOnEvent(tick=0, channel=1, data=[69, 36]),
   midi.NoteOnEvent(tick=480, channel=1, data=[69, 0]),
   midi.NoteOnEvent(tick=0, channel=1, data=[69, 36]),
   midi.NoteOnEvent(tick=1440, channel=1, data=[69, 0]),
   midi.ControlChangeEvent(tick=0, channel=1, data=[7, 102]),
   midi.NoteOnEvent(tick=0, channel=1, data=[67, 79]),
   midi.NoteOnEvent(tick=480, channel=1, data=[67, 0]),
   midi.NoteOnEvent(tick=0, channel=1, data=[71, 79]),
   midi.NoteOnEvent(tick=480, channel=1, data=[71, 0]),
   midi.NoteOnEvent(tick=0, channel=1, data=[67, 79]),
   midi.ControlChangeEvent(tick=47, channel=1, data=[7, 102]),
   midi.NoteOnEvent(tick=433, channel=1, data=[67, 0]),
   midi.NoteOnEvent(tick=0, channel=1, data=[66, 79]),
   midi.NoteOnEvent(tick=480, channel=1, data=[66, 0]),
   midi.NoteOnEvent(tick=0, channel=1, data=[69, 79]),
   midi.NoteOnEvent(tick=480, channel=1, data=[69, 0]),
   midi.NoteOnEvent(tick=0, channel=1, data=[62, 79]),
   midi.NoteOnEvent(tick=480, channel=1, data=[62, 0]),
   midi.NoteOnEvent(tick=0, channel=1, data=[67, 79]),
   midi.NoteOnEvent(tick=480, channel=1, data=[67, 0]),
   midi.NoteOnEvent(tick=0, channel=1, data=[64, 79]),
   midi.NoteOnEvent(tick=480, channel=1, data=[64, 0]),
   midi.NoteOnEvent(tick=0, channel=1, data=[60, 79]),
   midi.NoteOnEvent(tick=480, channel=1, data=[60, 0]),
   midi.NoteOnEvent(tick=0, channel=1, data=[62, 79]),
   midi.NoteOnEvent(tick=1440, channel=1, data=[62, 0]),
   midi.NoteOnEvent(tick=0, channel=1, data=[67, 79]),
   midi.NoteOnEvent(tick=480, channel=1, data=[67, 0]),
   midi.NoteOnEvent(tick=0, channel=1, data=[69, 79]),
   midi.NoteOnEvent(tick=480, channel=1, data=[69, 0]),
   midi.NoteOnEvent(tick=0, channel=1, data=[71, 79]),
   midi.NoteOnEvent(tick=480, channel=1, data=[71, 0]),
   midi.NoteOnEvent(tick=0, channel=1, data=[72, 79]),
   midi.NoteOnEvent(tick=480, channel=1, data=[72, 0]),
   midi.NoteOnEvent(tick=0, channel=1, data=[69, 79]),
   midi.NoteOnEvent(tick=480, channel=1, data=[69, 0]),
   midi.NoteOnEvent(tick=0, channel=1, data=[67, 79]),
   midi.NoteOnEvent(tick=480, channel=1, data=[67, 0]),
   midi.NoteOnEvent(tick=0, channel=1, data=[64, 79]),
   midi.NoteOnEvent(tick=480, channel=1, data=[64, 0]),
   midi.NoteOnEvent(tick=0, channel=1, data=[59, 79]),
   midi.NoteOnEvent(tick=480, channel=1, data=[59, 0]),
   midi.NoteOnEvent(tick=0, channel=1, data=[57, 79]),
   midi.NoteOnEvent(tick=480, channel=1, data=[57, 0]),
   midi.NoteOnEvent(tick=0, channel=1, data=[59, 79]),
   midi.NoteOnEvent(tick=1440, channel=1, data=[59, 0]),
   midi.ControlChangeEvent(tick=1440, channel=1, data=[7, 62]),
   midi.NoteOnEvent(tick=1920, channel=1, data=[67, 36]),
   midi.NoteOnEvent(tick=480, channel=1, data=[67, 0]),
   midi.NoteOnEvent(tick=0, channel=1, data=[67, 36]),
   midi.NoteOnEvent(tick=480, channel=1, data=[67, 0]),
   midi.NoteOnEvent(tick=0, channel=1, data=[69, 36]),
   midi.NoteOnEvent(tick=240, channel=1, data=[69, 0]),
   midi.NoteOnEvent(tick=0, channel=1, data=[67, 36]),
   midi.NoteOnEvent(tick=240, channel=1, data=[67, 0]),
   midi.NoteOnEvent(tick=0, channel=1, data=[64, 36]),
   midi.NoteOnEvent(tick=240, channel=1, data=[64, 0]),
   midi.NoteOnEvent(tick=0, channel=1, data=[66, 36]),
   midi.NoteOnEvent(tick=240, channel=1, data=[66, 0]),
   midi.NoteOnEvent(tick=0, channel=1, data=[69, 36]),
   midi.NoteOnEvent(tick=480, channel=1, data=[69, 0]),
   midi.NoteOnEvent(tick=0, channel=1, data=[69, 36]),
   midi.NoteOnEvent(tick=480, channel=1, data=[69, 0]),
   midi.NoteOnEvent(tick=0, channel=1, data=[69, 36]),
   midi.NoteOnEvent(tick=960, channel=1, data=[69, 0]),
   midi.NoteOnEvent(tick=0, channel=1, data=[60, 36]),
   midi.NoteOnEvent(tick=480, channel=1, data=[60, 0]),
   midi.NoteOnEvent(tick=0, channel=1, data=[60, 36]),
   midi.NoteOnEvent(tick=480, channel=1, data=[60, 0]),
   midi.NoteOnEvent(tick=0, channel=1, data=[62, 36]),
   midi.NoteOnEvent(tick=240, channel=1, data=[62, 0]),
   midi.NoteOnEvent(tick=0, channel=1, data=[60, 36]),
   midi.NoteOnEvent(tick=240, channel=1, data=[60, 0]),
   midi.NoteOnEvent(tick=0, channel=1, data=[59, 36]),
   midi.NoteOnEvent(tick=240, channel=1, data=[59, 0]),
   midi.NoteOnEvent(tick=0, channel=1, data=[57, 36]),
   midi.NoteOnEvent(tick=240, channel=1, data=[57, 0]),
   midi.NoteOnEvent(tick=0, channel=1, data=[55, 79]),
   midi.ControlChangeEvent(tick=48, channel=1, data=[7, 104]),
   midi.NoteOnEvent(tick=432, channel=1, data=[55, 0]),
   midi.NoteOnEvent(tick=0, channel=1, data=[55, 79]),
   midi.NoteOnEvent(tick=480, channel=1, data=[55, 0]),
   midi.NoteOnEvent(tick=0, channel=1, data=[55, 79]),
   midi.NoteOnEvent(tick=960, channel=1, data=[55, 0]),
   midi.NoteOnEvent(tick=0, channel=1, data=[72, 79]),
   midi.NoteOnEvent(tick=240, channel=1, data=[72, 0]),
   midi.NoteOnEvent(tick=0, channel=1, data=[71, 79]),
   midi.NoteOnEvent(tick=240, channel=1, data=[71, 0]),
   midi.NoteOnEvent(tick=0, channel=1, data=[72, 79]),
   midi.NoteOnEvent(tick=240, channel=1, data=[72, 0]),
   midi.NoteOnEvent(tick=0, channel=1, data=[69, 79]),
   midi.NoteOnEvent(tick=240, channel=1, data=[69, 0]),
   midi.NoteOnEvent(tick=0, channel=1, data=[71, 79]),
   midi.NoteOnEvent(tick=240, channel=1, data=[71, 0]),
   midi.NoteOnEvent(tick=0, channel=1, data=[69, 79]),
   midi.NoteOnEvent(tick=240, channel=1, data=[69, 0]),
   midi.NoteOnEvent(tick=0, channel=1, data=[71, 79]),
   midi.NoteOnEvent(tick=240, channel=1, data=[71, 0]),
   midi.NoteOnEvent(tick=0, channel=1, data=[66, 79]),
   midi.NoteOnEvent(tick=240, channel=1, data=[66, 0]),
   midi.NoteOnEvent(tick=0, channel=1, data=[67, 79]),
   midi.NoteOnEvent(tick=240, channel=1, data=[67, 0]),
   midi.NoteOnEvent(tick=0, channel=1, data=[66, 79]),
   midi.NoteOnEvent(tick=240, channel=1, data=[66, 0]),
   midi.NoteOnEvent(tick=0, channel=1, data=[67, 79]),
   midi.NoteOnEvent(tick=240, channel=1, data=[67, 0]),
   midi.NoteOnEvent(tick=0, channel=1, data=[69, 79]),
   midi.NoteOnEvent(tick=240, channel=1, data=[69, 0]),
   midi.NoteOnEvent(tick=0, channel=1, data=[71, 79]),
   midi.NoteOnEvent(tick=480, channel=1, data=[71, 0]),
   midi.NoteOnEvent(tick=480, channel=1, data=[67, 79]),
   midi.NoteOnEvent(tick=60, channel=1, data=[67, 0]),
   midi.NoteOnEvent(tick=0, channel=1, data=[66, 79]),
   midi.NoteOnEvent(tick=60, channel=1, data=[66, 0]),
   midi.NoteOnEvent(tick=0, channel=1, data=[67, 79]),
   midi.NoteOnEvent(tick=60, channel=1, data=[67, 0]),
   midi.NoteOnEvent(tick=0, channel=1, data=[66, 79]),
   midi.NoteOnEvent(tick=120, channel=1, data=[66, 0]),
   midi.NoteOnEvent(tick=0, channel=1, data=[67, 79]),
   midi.NoteOnEvent(tick=60, channel=1, data=[67, 0]),
   midi.NoteOnEvent(tick=0, channel=1, data=[66, 79]),
   midi.NoteOnEvent(tick=60, channel=1, data=[66, 0]),
   midi.NoteOnEvent(tick=0, channel=1, data=[67, 79]),
   midi.NoteOnEvent(tick=60, channel=1, data=[67, 0]),
   midi.NoteOnEvent(tick=0, channel=1, data=[66, 79]),
   midi.NoteOnEvent(tick=60, channel=1, data=[66, 0]),
   midi.NoteOnEvent(tick=0, channel=1, data=[67, 79]),
   midi.NoteOnEvent(tick=60, channel=1, data=[67, 0]),
   midi.NoteOnEvent(tick=0, channel=1, data=[66, 79]),
   midi.NoteOnEvent(tick=60, channel=1, data=[66, 0]),
   midi.NoteOnEvent(tick=0, channel=1, data=[67, 79]),
   midi.NoteOnEvent(tick=60, channel=1, data=[67, 0]),
   midi.NoteOnEvent(tick=0, channel=1, data=[66, 79]),
   midi.NoteOnEvent(tick=60, channel=1, data=[66, 0]),
   midi.NoteOnEvent(tick=0, channel=1, data=[67, 79]),
   midi.NoteOnEvent(tick=60, channel=1, data=[67, 0]),
   midi.NoteOnEvent(tick=0, channel=1, data=[66, 79]),
   midi.NoteOnEvent(tick=120, channel=1, data=[66, 0]),
   midi.NoteOnEvent(tick=0, channel=1, data=[67, 79]),
   midi.NoteOnEvent(tick=480, channel=1, data=[67, 0]),
   midi.ControlChangeEvent(tick=528, channel=1, data=[7, 66]),
   midi.NoteOnEvent(tick=1872, channel=1, data=[67, 79]),
   midi.NoteOnEvent(tick=480, channel=1, data=[67, 0]),
   midi.NoteOnEvent(tick=0, channel=1, data=[67, 79]),
   midi.NoteOnEvent(tick=480, channel=1, data=[67, 0]),
   midi.NoteOnEvent(tick=0, channel=1, data=[69, 79]),
   midi.NoteOnEvent(tick=240, channel=1, data=[69, 0]),
   midi.NoteOnEvent(tick=0, channel=1, data=[67, 79]),
   midi.NoteOnEvent(tick=240, channel=1, data=[67, 0]),
   midi.NoteOnEvent(tick=0, channel=1, data=[64, 79]),
   midi.NoteOnEvent(tick=240, channel=1, data=[64, 0]),
   midi.NoteOnEvent(tick=0, channel=1, data=[66, 79]),
   midi.NoteOnEvent(tick=240, channel=1, data=[66, 0]),
   midi.NoteOnEvent(tick=0, channel=1, data=[69, 79]),
   midi.ControlChangeEvent(tick=48, channel=1, data=[7, 66]),
   midi.NoteOnEvent(tick=432, channel=1, data=[69, 0]),
   midi.NoteOnEvent(tick=0, channel=1, data=[69, 79]),
   midi.NoteOnEvent(tick=480, channel=1, data=[69, 0]),
   midi.NoteOnEvent(tick=0, channel=1, data=[69, 79]),
   midi.NoteOnEvent(tick=960, channel=1, data=[69, 0]),
   midi.NoteOnEvent(tick=0, channel=1, data=[60, 79]),
   midi.NoteOnEvent(tick=480, channel=1, data=[60, 0]),
   midi.NoteOnEvent(tick=0, channel=1, data=[60, 79]),
   midi.NoteOnEvent(tick=480, channel=1, data=[60, 0]),
   midi.NoteOnEvent(tick=0, channel=1, data=[62, 79]),
   midi.NoteOnEvent(tick=240, channel=1, data=[62, 0]),
   midi.NoteOnEvent(tick=0, channel=1, data=[60, 79]),
   midi.NoteOnEvent(tick=240, channel=1, data=[60, 0]),
   midi.NoteOnEvent(tick=0, channel=1, data=[59, 79]),
   midi.NoteOnEvent(tick=240, channel=1, data=[59, 0]),
   midi.NoteOnEvent(tick=0, channel=1, data=[57, 79]),
   midi.NoteOnEvent(tick=240, channel=1, data=[57, 0]),
   midi.NoteOnEvent(tick=0, channel=1, data=[55, 79]),
   midi.ControlChangeEvent(tick=96, channel=1, data=[7, 104]),
   midi.NoteOnEvent(tick=384, channel=1, data=[55, 0]),
   midi.NoteOnEvent(tick=0, channel=1, data=[55, 79]),
   midi.NoteOnEvent(tick=480, channel=1, data=[55, 0]),
   midi.NoteOnEvent(tick=0, channel=1, data=[55, 79]),
   midi.NoteOnEvent(tick=960, channel=1, data=[55, 0]),
   midi.NoteOnEvent(tick=0, channel=1, data=[72, 79]),
   midi.NoteOnEvent(tick=240, channel=1, data=[72, 0]),
   midi.NoteOnEvent(tick=0, channel=1, data=[71, 79]),
   midi.NoteOnEvent(tick=240, channel=1, data=[71, 0]),
   midi.NoteOnEvent(tick=0, channel=1, data=[72, 79]),
   midi.NoteOnEvent(tick=240, channel=1, data=[72, 0]),
   midi.NoteOnEvent(tick=0, channel=1, data=[69, 79]),
   midi.NoteOnEvent(tick=240, channel=1, data=[69, 0]),
   midi.NoteOnEvent(tick=0, channel=1, data=[71, 79]),
   midi.NoteOnEvent(tick=240, channel=1, data=[71, 0]),
   midi.NoteOnEvent(tick=0, channel=1, data=[69, 79]),
   midi.NoteOnEvent(tick=240, channel=1, data=[69, 0]),
   midi.NoteOnEvent(tick=0, channel=1, data=[71, 79]),
   midi.NoteOnEvent(tick=240, channel=1, data=[71, 0]),
   midi.NoteOnEvent(tick=0, channel=1, data=[66, 79]),
   midi.NoteOnEvent(tick=240, channel=1, data=[66, 0]),
   midi.NoteOnEvent(tick=0, channel=1, data=[67, 79]),
   midi.NoteOnEvent(tick=240, channel=1, data=[67, 0]),
   midi.NoteOnEvent(tick=0, channel=1, data=[66, 79]),
   midi.NoteOnEvent(tick=240, channel=1, data=[66, 0]),
   midi.NoteOnEvent(tick=0, channel=1, data=[67, 79]),
   midi.NoteOnEvent(tick=240, channel=1, data=[67, 0]),
   midi.NoteOnEvent(tick=0, channel=1, data=[69, 79]),
   midi.NoteOnEvent(tick=240, channel=1, data=[69, 0]),
   midi.NoteOnEvent(tick=0, channel=1, data=[71, 79]),
   midi.NoteOnEvent(tick=480, channel=1, data=[71, 0]),
   midi.NoteOnEvent(tick=480, channel=1, data=[68, 79]),
   midi.NoteOnEvent(tick=60, channel=1, data=[68, 0]),
   midi.NoteOnEvent(tick=0, channel=1, data=[66, 79]),
   midi.NoteOnEvent(tick=60, channel=1, data=[66, 0]),
   midi.NoteOnEvent(tick=0, channel=1, data=[68, 79]),
   midi.NoteOnEvent(tick=60, channel=1, data=[68, 0]),
   midi.NoteOnEvent(tick=0, channel=1, data=[66, 79]),
   midi.NoteOnEvent(tick=120, channel=1, data=[66, 0]),
   midi.NoteOnEvent(tick=0, channel=1, data=[68, 79]),
   midi.NoteOnEvent(tick=60, channel=1, data=[68, 0]),
   midi.NoteOnEvent(tick=0, channel=1, data=[66, 79]),
   midi.NoteOnEvent(tick=60, channel=1, data=[66, 0]),
   midi.NoteOnEvent(tick=0, channel=1, data=[68, 79]),
   midi.NoteOnEvent(tick=60, channel=1, data=[68, 0]),
   midi.NoteOnEvent(tick=0, channel=1, data=[66, 79]),
   midi.NoteOnEvent(tick=60, channel=1, data=[66, 0]),
   midi.NoteOnEvent(tick=0, channel=1, data=[68, 79]),
   midi.NoteOnEvent(tick=60, channel=1, data=[68, 0]),
   midi.NoteOnEvent(tick=0, channel=1, data=[66, 79]),
   midi.NoteOnEvent(tick=60, channel=1, data=[66, 0]),
   midi.NoteOnEvent(tick=0, channel=1, data=[68, 79]),
   midi.NoteOnEvent(tick=60, channel=1, data=[68, 0]),
   midi.NoteOnEvent(tick=0, channel=1, data=[66, 79]),
   midi.NoteOnEvent(tick=60, channel=1, data=[66, 0]),
   midi.NoteOnEvent(tick=0, channel=1, data=[68, 79]),
   midi.NoteOnEvent(tick=60, channel=1, data=[68, 0]),
   midi.NoteOnEvent(tick=0, channel=1, data=[66, 79]),
   midi.NoteOnEvent(tick=120, channel=1, data=[66, 0]),
   midi.NoteOnEvent(tick=0, channel=1, data=[67, 79]),
   midi.NoteOnEvent(tick=480, channel=1, data=[67, 0]),
   midi.NoteOnEvent(tick=480, channel=1, data=[64, 79]),
   midi.NoteOnEvent(tick=480, channel=1, data=[64, 0]),
   midi.NoteOnEvent(tick=0, channel=1, data=[66, 79]),
   midi.NoteOnEvent(tick=240, channel=1, data=[66, 0]),
   midi.NoteOnEvent(tick=0, channel=1, data=[67, 79]),
   midi.NoteOnEvent(tick=240, channel=1, data=[67, 0]),
   midi.NoteOnEvent(tick=0, channel=1, data=[67, 79]),
   midi.NoteOnEvent(tick=240, channel=1, data=[67, 0]),
   midi.NoteOnEvent(tick=0, channel=1, data=[66, 79]),
   midi.NoteOnEvent(tick=240, channel=1, data=[66, 0]),
   midi.NoteOnEvent(tick=0, channel=1, data=[71, 79]),
   midi.NoteOnEvent(tick=240, channel=1, data=[71, 0]),
   midi.NoteOnEvent(tick=0, channel=1, data=[69, 79]),
   midi.NoteOnEvent(tick=240, channel=1, data=[69, 0]),
   midi.NoteOnEvent(tick=0, channel=1, data=[69, 79]),
   midi.NoteOnEvent(tick=240, channel=1, data=[69, 0]),
   midi.NoteOnEvent(tick=0, channel=1, data=[67, 79]),
   midi.NoteOnEvent(tick=240, channel=1, data=[67, 0]),
   midi.NoteOnEvent(tick=0, channel=1, data=[66, 79]),
   midi.NoteOnEvent(tick=240, channel=1, data=[66, 0]),
   midi.NoteOnEvent(tick=0, channel=1, data=[64, 79]),
   midi.NoteOnEvent(tick=240, channel=1, data=[64, 0]),
   midi.NoteOnEvent(tick=0, channel=1, data=[67, 79]),
   midi.NoteOnEvent(tick=240, channel=1, data=[67, 0]),
   midi.NoteOnEvent(tick=0, channel=1, data=[66, 79]),
   midi.NoteOnEvent(tick=240, channel=1, data=[66, 0]),
   midi.NoteOnEvent(tick=0, channel=1, data=[62, 79]),
   midi.NoteOnEvent(tick=240, channel=1, data=[62, 0]),
   midi.NoteOnEvent(tick=0, channel=1, data=[61, 79]),
   midi.NoteOnEvent(tick=240, channel=1, data=[61, 0]),
   midi.NoteOnEvent(tick=0, channel=1, data=[64, 79]),
   midi.NoteOnEvent(tick=240, channel=1, data=[64, 0]),
   midi.NoteOnEvent(tick=0, channel=1, data=[62, 79]),
   midi.NoteOnEvent(tick=240, channel=1, data=[62, 0]),
   midi.NoteOnEvent(tick=0, channel=1, data=[66, 79]),
   midi.NoteOnEvent(tick=240, channel=1, data=[66, 0]),
   midi.NoteOnEvent(tick=0, channel=1, data=[64, 79]),
   midi.NoteOnEvent(tick=240, channel=1, data=[64, 0]),
   midi.NoteOnEvent(tick=0, channel=1, data=[67, 79]),
   midi.NoteOnEvent(tick=240, channel=1, data=[67, 0]),
   midi.NoteOnEvent(tick=0, channel=1, data=[66, 79]),
   midi.NoteOnEvent(tick=240, channel=1, data=[66, 0]),
   midi.NoteOnEvent(tick=0, channel=1, data=[64, 79]),
   midi.NoteOnEvent(tick=240, channel=1, data=[64, 0]),
   midi.NoteOnEvent(tick=0, channel=1, data=[62, 79]),
   midi.NoteOnEvent(tick=240, channel=1, data=[62, 0]),
   midi.NoteOnEvent(tick=0, channel=1, data=[71, 79]),
   midi.NoteOnEvent(tick=480, channel=1, data=[71, 0]),
   midi.NoteOnEvent(tick=0, channel=1, data=[67, 79]),
   midi.NoteOnEvent(tick=480, channel=1, data=[67, 0]),
   midi.NoteOnEvent(tick=0, channel=1, data=[66, 79]),
   midi.NoteOnEvent(tick=480, channel=1, data=[66, 0]),
   midi.NoteOnEvent(tick=0, channel=1, data=[64, 79]),
   midi.NoteOnEvent(tick=480, channel=1, data=[64, 0]),
   midi.NoteOnEvent(tick=0, channel=1, data=[64, 79]),
   midi.NoteOnEvent(tick=480, channel=1, data=[64, 0]),
   midi.NoteOnEvent(tick=0, channel=1, data=[66, 79]),
   midi.NoteOnEvent(tick=240, channel=1, data=[66, 0]),
   midi.NoteOnEvent(tick=0, channel=1, data=[67, 79]),
   midi.NoteOnEvent(tick=240, channel=1, data=[67, 0]),
   midi.NoteOnEvent(tick=0, channel=1, data=[67, 79]),
   midi.NoteOnEvent(tick=240, channel=1, data=[67, 0]),
   midi.NoteOnEvent(tick=0, channel=1, data=[66, 79]),
   midi.NoteOnEvent(tick=240, channel=1, data=[66, 0]),
   midi.NoteOnEvent(tick=0, channel=1, data=[71, 79]),
   midi.ControlChangeEvent(tick=192, channel=1, data=[7, 104]),
   midi.NoteOnEvent(tick=48, channel=1, data=[71, 0]),
   midi.NoteOnEvent(tick=0, channel=1, data=[69, 79]),
   midi.NoteOnEvent(tick=240, channel=1, data=[69, 0]),
   midi.NoteOnEvent(tick=0, channel=1, data=[69, 79]),
   midi.NoteOnEvent(tick=240, channel=1, data=[69, 0]),
   midi.NoteOnEvent(tick=0, channel=1, data=[67, 79]),
   midi.NoteOnEvent(tick=240, channel=1, data=[67, 0]),
   midi.NoteOnEvent(tick=0, channel=1, data=[66, 79]),
   midi.NoteOnEvent(tick=240, channel=1, data=[66, 0]),
   midi.NoteOnEvent(tick=0, channel=1, data=[64, 79]),
   midi.NoteOnEvent(tick=240, channel=1, data=[64, 0]),
   midi.NoteOnEvent(tick=0, channel=1, data=[67, 79]),
   midi.NoteOnEvent(tick=240, channel=1, data=[67, 0]),
   midi.NoteOnEvent(tick=0, channel=1, data=[66, 79]),
   midi.NoteOnEvent(tick=240, channel=1, data=[66, 0]),
   midi.NoteOnEvent(tick=0, channel=1, data=[62, 79]),
   midi.NoteOnEvent(tick=240, channel=1, data=[62, 0]),
   midi.NoteOnEvent(tick=0, channel=1, data=[61, 79]),
   midi.NoteOnEvent(tick=240, channel=1, data=[61, 0]),
   midi.NoteOnEvent(tick=0, channel=1, data=[64, 79]),
   midi.NoteOnEvent(tick=240, channel=1, data=[64, 0]),
   midi.NoteOnEvent(tick=0, channel=1, data=[62, 79]),
   midi.NoteOnEvent(tick=240, channel=1, data=[62, 0]),
   midi.NoteOnEvent(tick=0, channel=1, data=[66, 79]),
   midi.NoteOnEvent(tick=240, channel=1, data=[66, 0]),
   midi.NoteOnEvent(tick=0, channel=1, data=[64, 79]),
   midi.NoteOnEvent(tick=240, channel=1, data=[64, 0]),
   midi.NoteOnEvent(tick=0, channel=1, data=[67, 79]),
   midi.NoteOnEvent(tick=240, channel=1, data=[67, 0]),
   midi.NoteOnEvent(tick=0, channel=1, data=[66, 79]),
   midi.NoteOnEvent(tick=240, channel=1, data=[66, 0]),
   midi.NoteOnEvent(tick=0, channel=1, data=[71, 79]),
   midi.NoteOnEvent(tick=240, channel=1, data=[71, 0]),
   midi.NoteOnEvent(tick=0, channel=1, data=[69, 79]),
   midi.NoteOnEvent(tick=240, channel=1, data=[69, 0]),
   midi.NoteOnEvent(tick=0, channel=1, data=[69, 79]),
   midi.NoteOnEvent(tick=240, channel=1, data=[69, 0]),
   midi.NoteOnEvent(tick=0, channel=1, data=[67, 79]),
   midi.NoteOnEvent(tick=240, channel=1, data=[67, 0]),
   midi.NoteOnEvent(tick=0, channel=1, data=[66, 79]),
   midi.NoteOnEvent(tick=240, channel=1, data=[66, 0]),
   midi.NoteOnEvent(tick=0, channel=1, data=[64, 79]),
   midi.NoteOnEvent(tick=240, channel=1, data=[64, 0]),
   midi.NoteOnEvent(tick=0, channel=1, data=[66, 79]),
   midi.NoteOnEvent(tick=960, channel=1, data=[66, 0]),
   midi.ControlChangeEvent(tick=48, channel=1, data=[7, 56]),
   midi.NoteOnEvent(tick=1392, channel=1, data=[62, 36]),
   midi.NoteOnEvent(tick=480, channel=1, data=[62, 0]),
   midi.NoteOnEvent(tick=480, channel=1, data=[62, 36]),
   midi.NoteOnEvent(tick=480, channel=1, data=[62, 0]),
   midi.NoteOnEvent(tick=480, channel=1, data=[60, 36]),
   midi.NoteOnEvent(tick=480, channel=1, data=[60, 0]),
   midi.NoteOnEvent(tick=480, channel=1, data=[64, 36]),
   midi.NoteOnEvent(tick=480, channel=1, data=[64, 0]),
   midi.NoteOnEvent(tick=480, channel=1, data=[60, 36]),
   midi.NoteOnEvent(tick=480, channel=1, data=[60, 0]),
   midi.NoteOnEvent(tick=480, channel=1, data=[60, 36]),
   midi.NoteOnEvent(tick=480, channel=1, data=[60, 0]),
   midi.NoteOnEvent(tick=480, channel=1, data=[59, 36]),
   midi.NoteOnEvent(tick=480, channel=1, data=[59, 0]),
   midi.NoteOnEvent(tick=0, channel=1, data=[79, 79]),
   midi.ControlChangeEvent(tick=47, channel=1, data=[7, 56]),
   midi.ControlChangeEvent(tick=1, channel=1, data=[7, 108]),
   midi.NoteOnEvent(tick=192, channel=1, data=[79, 0]),
   midi.NoteOnEvent(tick=0, channel=1, data=[78, 79]),
   midi.NoteOnEvent(tick=240, channel=1, data=[78, 0]),
   midi.NoteOnEvent(tick=0, channel=1, data=[76, 79]),
   midi.NoteOnEvent(tick=240, channel=1, data=[76, 0]),
   midi.NoteOnEvent(tick=0, channel=1, data=[74, 79]),
   midi.NoteOnEvent(tick=240, channel=1, data=[74, 0]),
   midi.NoteOnEvent(tick=0, channel=1, data=[76, 79]),
   midi.ControlChangeEvent(tick=132, channel=1, data=[7, 107]),
   midi.NoteOnEvent(tick=108, channel=1, data=[76, 0]),
   midi.NoteOnEvent(tick=0, channel=1, data=[74, 79]),
   midi.NoteOnEvent(tick=240, channel=1, data=[74, 0]),
   midi.NoteOnEvent(tick=0, channel=1, data=[72, 79]),
   midi.NoteOnEvent(tick=240, channel=1, data=[72, 0]),
   midi.NoteOnEvent(tick=0, channel=1, data=[71, 79]),
   midi.NoteOnEvent(tick=240, channel=1, data=[71, 0]),
   midi.NoteOnEvent(tick=0, channel=1, data=[72, 79]),
   midi.ControlChangeEvent(tick=216, channel=1, data=[7, 106]),
   midi.NoteOnEvent(tick=24, channel=1, data=[72, 0]),
   midi.NoteOnEvent(tick=0, channel=1, data=[71, 79]),
   midi.NoteOnEvent(tick=240, channel=1, data=[71, 0]),
   midi.NoteOnEvent(tick=0, channel=1, data=[69, 79]),
   midi.NoteOnEvent(tick=240, channel=1, data=[69, 0]),
   midi.NoteOnEvent(tick=0, channel=1, data=[67, 79]),
   midi.NoteOnEvent(tick=240, channel=1, data=[67, 0]),
   midi.NoteOnEvent(tick=0, channel=1, data=[69, 79]),
   midi.NoteOnEvent(tick=240, channel=1, data=[69, 0]),
   midi.NoteOnEvent(tick=0, channel=1, data=[67, 79]),
   midi.ControlChangeEvent(tick=60, channel=1, data=[7, 105]),
   midi.NoteOnEvent(tick=180, channel=1, data=[67, 0]),
   midi.NoteOnEvent(tick=0, channel=1, data=[66, 79]),
   midi.NoteOnEvent(tick=240, channel=1, data=[66, 0]),
   midi.NoteOnEvent(tick=0, channel=1, data=[64, 79]),
   midi.NoteOnEvent(tick=240, channel=1, data=[64, 0]),
   midi.NoteOnEvent(tick=0, channel=1, data=[66, 79]),
   midi.NoteOnEvent(tick=240, channel=1, data=[66, 0]),
   midi.NoteOnEvent(tick=0, channel=1, data=[64, 79]),
   midi.ControlChangeEvent(tick=143, channel=1, data=[7, 104]),
   midi.NoteOnEvent(tick=97, channel=1, data=[64, 0]),
   midi.NoteOnEvent(tick=0, channel=1, data=[62, 79]),
   midi.NoteOnEvent(tick=240, channel=1, data=[62, 0]),
   midi.NoteOnEvent(tick=0, channel=1, data=[61, 79]),
   midi.NoteOnEvent(tick=240, channel=1, data=[61, 0]),
   midi.NoteOnEvent(tick=0, channel=1, data=[62, 79]),
   midi.NoteOnEvent(tick=480, channel=1, data=[62, 0]),
   midi.NoteOnEvent(tick=0, channel=1, data=[69, 79]),
   midi.NoteOnEvent(tick=960, channel=1, data=[69, 0]),
   midi.NoteOnEvent(tick=0, channel=1, data=[69, 79]),
   midi.NoteOnEvent(tick=60, channel=1, data=[69, 0]),
   midi.NoteOnEvent(tick=0, channel=1, data=[67, 79]),
   midi.NoteOnEvent(tick=60, channel=1, data=[67, 0]),
   midi.NoteOnEvent(tick=0, channel=1, data=[69, 79]),
   midi.NoteOnEvent(tick=60, channel=1, data=[69, 0]),
   midi.NoteOnEvent(tick=0, channel=1, data=[67, 79]),
   midi.NoteOnEvent(tick=60, channel=1, data=[67, 0]),
   midi.NoteOnEvent(tick=0, channel=1, data=[69, 79]),
   midi.NoteOnEvent(tick=60, channel=1, data=[69, 0]),
   midi.NoteOnEvent(tick=0, channel=1, data=[67, 79]),
   midi.NoteOnEvent(tick=60, channel=1, data=[67, 0]),
   midi.NoteOnEvent(tick=0, channel=1, data=[69, 79]),
   midi.NoteOnEvent(tick=60, channel=1, data=[69, 0]),
   midi.NoteOnEvent(tick=0, channel=1, data=[67, 79]),
   midi.NoteOnEvent(tick=60, channel=1, data=[67, 0]),
   midi.NoteOnEvent(tick=0, channel=1, data=[66, 79]),
   midi.NoteOnEvent(tick=480, channel=1, data=[66, 0]),
   midi.ControlChangeEvent(tick=528, channel=1, data=[7, 58]),
   midi.NoteOnEvent(tick=1872, channel=1, data=[67, 79]),
   midi.NoteOnEvent(tick=480, channel=1, data=[67, 0]),
   midi.NoteOnEvent(tick=0, channel=1, data=[67, 79]),
   midi.NoteOnEvent(tick=480, channel=1, data=[67, 0]),
   midi.NoteOnEvent(tick=0, channel=1, data=[69, 79]),
   midi.NoteOnEvent(tick=60, channel=1, data=[69, 0]),
   midi.NoteOnEvent(tick=0, channel=1, data=[67, 79]),
   midi.NoteOnEvent(tick=60, channel=1, data=[67, 0]),
   midi.NoteOnEvent(tick=0, channel=1, data=[67, 79]),
   midi.NoteOnEvent(tick=360, channel=1, data=[67, 0]),
   midi.NoteOnEvent(tick=0, channel=1, data=[66, 79]),
   midi.NoteOnEvent(tick=240, channel=1, data=[66, 0]),
   midi.NoteOnEvent(tick=0, channel=1, data=[64, 79]),
   midi.NoteOnEvent(tick=240, channel=1, data=[64, 0]),
   midi.NoteOnEvent(tick=0, channel=1, data=[69, 79]),
   midi.NoteOnEvent(tick=480, channel=1, data=[69, 0]),
   midi.NoteOnEvent(tick=0, channel=1, data=[69, 79]),
   midi.NoteOnEvent(tick=480, channel=1, data=[69, 0]),
   midi.NoteOnEvent(tick=0, channel=1, data=[69, 79]),
   midi.NoteOnEvent(tick=960, channel=1, data=[69, 0]),
   midi.NoteOnEvent(tick=0, channel=1, data=[60, 79]),
   midi.NoteOnEvent(tick=480, channel=1, data=[60, 0]),
   midi.NoteOnEvent(tick=0, channel=1, data=[60, 79]),
   midi.NoteOnEvent(tick=480, channel=1, data=[60, 0]),
   midi.NoteOnEvent(tick=0, channel=1, data=[62, 79]),
   midi.NoteOnEvent(tick=240, channel=1, data=[62, 0]),
   midi.NoteOnEvent(tick=0, channel=1, data=[60, 79]),
   midi.NoteOnEvent(tick=240, channel=1, data=[60, 0]),
   midi.NoteOnEvent(tick=0, channel=1, data=[59, 79]),
   midi.NoteOnEvent(tick=240, channel=1, data=[59, 0]),
   midi.NoteOnEvent(tick=0, channel=1, data=[57, 79]),
   midi.NoteOnEvent(tick=240, channel=1, data=[57, 0]),
   midi.NoteOnEvent(tick=0, channel=1, data=[55, 79]),
   midi.ControlChangeEvent(tick=48, channel=1, data=[7, 106]),
   midi.NoteOnEvent(tick=432, channel=1, data=[55, 0]),
   midi.NoteOnEvent(tick=0, channel=1, data=[55, 79]),
   midi.NoteOnEvent(tick=480, channel=1, data=[55, 0]),
   midi.NoteOnEvent(tick=0, channel=1, data=[55, 79]),
   midi.NoteOnEvent(tick=960, channel=1, data=[55, 0]),
   midi.NoteOnEvent(tick=0, channel=1, data=[72, 79]),
   midi.NoteOnEvent(tick=240, channel=1, data=[72, 0]),
   midi.NoteOnEvent(tick=0, channel=1, data=[71, 79]),
   midi.NoteOnEvent(tick=240, channel=1, data=[71, 0]),
   midi.NoteOnEvent(tick=0, channel=1, data=[72, 79]),
   midi.NoteOnEvent(tick=240, channel=1, data=[72, 0]),
   midi.NoteOnEvent(tick=0, channel=1, data=[69, 79]),
   midi.NoteOnEvent(tick=240, channel=1, data=[69, 0]),
   midi.NoteOnEvent(tick=0, channel=1, data=[71, 79]),
   midi.NoteOnEvent(tick=240, channel=1, data=[71, 0]),
   midi.NoteOnEvent(tick=0, channel=1, data=[69, 79]),
   midi.NoteOnEvent(tick=240, channel=1, data=[69, 0]),
   midi.NoteOnEvent(tick=0, channel=1, data=[71, 79]),
   midi.NoteOnEvent(tick=240, channel=1, data=[71, 0]),
   midi.NoteOnEvent(tick=0, channel=1, data=[66, 79]),
   midi.NoteOnEvent(tick=240, channel=1, data=[66, 0]),
   midi.NoteOnEvent(tick=0, channel=1, data=[67, 79]),
   midi.NoteOnEvent(tick=240, channel=1, data=[67, 0]),
   midi.NoteOnEvent(tick=0, channel=1, data=[66, 79]),
   midi.NoteOnEvent(tick=240, channel=1, data=[66, 0]),
   midi.NoteOnEvent(tick=0, channel=1, data=[67, 79]),
   midi.NoteOnEvent(tick=240, channel=1, data=[67, 0]),
   midi.NoteOnEvent(tick=0, channel=1, data=[69, 79]),
   midi.NoteOnEvent(tick=240, channel=1, data=[69, 0]),
   midi.NoteOnEvent(tick=0, channel=1, data=[71, 79]),
   midi.NoteOnEvent(tick=480, channel=1, data=[71, 0]),
   midi.NoteOnEvent(tick=480, channel=1, data=[69, 79]),
   midi.NoteOnEvent(tick=60, channel=1, data=[69, 0]),
   midi.NoteOnEvent(tick=0, channel=1, data=[66, 79]),
   midi.NoteOnEvent(tick=60, channel=1, data=[66, 0]),
   midi.NoteOnEvent(tick=0, channel=1, data=[69, 79]),
   midi.NoteOnEvent(tick=60, channel=1, data=[69, 0]),
   midi.NoteOnEvent(tick=0, channel=1, data=[66, 79]),
   midi.NoteOnEvent(tick=120, channel=1, data=[66, 0]),
   midi.NoteOnEvent(tick=0, channel=1, data=[69, 79]),
   midi.NoteOnEvent(tick=60, channel=1, data=[69, 0]),
   midi.NoteOnEvent(tick=0, channel=1, data=[66, 79]),
   midi.NoteOnEvent(tick=60, channel=1, data=[66, 0]),
   midi.NoteOnEvent(tick=0, channel=1, data=[69, 79]),
   midi.NoteOnEvent(tick=60, channel=1, data=[69, 0]),
   midi.NoteOnEvent(tick=0, channel=1, data=[66, 79]),
   midi.NoteOnEvent(tick=60, channel=1, data=[66, 0]),
   midi.NoteOnEvent(tick=0, channel=1, data=[69, 79]),
   midi.NoteOnEvent(tick=60, channel=1, data=[69, 0]),
   midi.NoteOnEvent(tick=0, channel=1, data=[66, 79]),
   midi.NoteOnEvent(tick=60, channel=1, data=[66, 0]),
   midi.NoteOnEvent(tick=0, channel=1, data=[69, 79]),
   midi.NoteOnEvent(tick=60, channel=1, data=[69, 0]),
   midi.NoteOnEvent(tick=0, channel=1, data=[66, 79]),
   midi.NoteOnEvent(tick=120, channel=1, data=[66, 0]),
   midi.NoteOnEvent(tick=0, channel=1, data=[69, 79]),
   midi.NoteOnEvent(tick=60, channel=1, data=[69, 0]),
   midi.NoteOnEvent(tick=0, channel=1, data=[66, 79]),
   midi.NoteOnEvent(tick=60, channel=1, data=[66, 0]),
   midi.NoteOnEvent(tick=0, channel=1, data=[67, 79]),
   midi.NoteOnEvent(tick=480, channel=1, data=[67, 0]),
   midi.NoteOnEvent(tick=480, channel=1, data=[64, 79]),
   midi.NoteOnEvent(tick=480, channel=1, data=[64, 0]),
   midi.NoteOnEvent(tick=0, channel=1, data=[66, 79]),
   midi.NoteOnEvent(tick=240, channel=1, data=[66, 0]),
   midi.NoteOnEvent(tick=0, channel=1, data=[67, 79]),
   midi.NoteOnEvent(tick=240, channel=1, data=[67, 0]),
   midi.NoteOnEvent(tick=0, channel=1, data=[67, 79]),
   midi.NoteOnEvent(tick=240, channel=1, data=[67, 0]),
   midi.NoteOnEvent(tick=0, channel=1, data=[66, 79]),
   midi.NoteOnEvent(tick=240, channel=1, data=[66, 0]),
   midi.NoteOnEvent(tick=0, channel=1, data=[71, 79]),
   midi.NoteOnEvent(tick=240, channel=1, data=[71, 0]),
   midi.NoteOnEvent(tick=0, channel=1, data=[69, 79]),
   midi.NoteOnEvent(tick=240, channel=1, data=[69, 0]),
   midi.NoteOnEvent(tick=0, channel=1, data=[69, 79]),
   midi.NoteOnEvent(tick=240, channel=1, data=[69, 0]),
   midi.NoteOnEvent(tick=0, channel=1, data=[67, 79]),
   midi.NoteOnEvent(tick=240, channel=1, data=[67, 0]),
   midi.NoteOnEvent(tick=0, channel=1, data=[66, 79]),
   midi.NoteOnEvent(tick=240, channel=1, data=[66, 0]),
   midi.NoteOnEvent(tick=0, channel=1, data=[64, 79]),
   midi.NoteOnEvent(tick=240, channel=1, data=[64, 0]),
   midi.NoteOnEvent(tick=0, channel=1, data=[67, 79]),
   midi.NoteOnEvent(tick=240, channel=1, data=[67, 0]),
   midi.NoteOnEvent(tick=0, channel=1, data=[66, 79]),
   midi.NoteOnEvent(tick=240, channel=1, data=[66, 0]),
   midi.NoteOnEvent(tick=0, channel=1, data=[62, 79]),
   midi.NoteOnEvent(tick=240, channel=1, data=[62, 0]),
   midi.NoteOnEvent(tick=0, channel=1, data=[61, 79]),
   midi.NoteOnEvent(tick=240, channel=1, data=[61, 0]),
   midi.NoteOnEvent(tick=0, channel=1, data=[64, 79]),
   midi.NoteOnEvent(tick=240, channel=1, data=[64, 0]),
   midi.NoteOnEvent(tick=0, channel=1, data=[62, 79]),
   midi.NoteOnEvent(tick=240, channel=1, data=[62, 0]),
   midi.NoteOnEvent(tick=0, channel=1, data=[66, 79]),
   midi.NoteOnEvent(tick=240, channel=1, data=[66, 0]),
   midi.NoteOnEvent(tick=0, channel=1, data=[64, 79]),
   midi.NoteOnEvent(tick=240, channel=1, data=[64, 0]),
   midi.NoteOnEvent(tick=0, channel=1, data=[67, 79]),
   midi.NoteOnEvent(tick=240, channel=1, data=[67, 0]),
   midi.NoteOnEvent(tick=0, channel=1, data=[66, 79]),
   midi.NoteOnEvent(tick=240, channel=1, data=[66, 0]),
   midi.NoteOnEvent(tick=0, channel=1, data=[64, 79]),
   midi.NoteOnEvent(tick=240, channel=1, data=[64, 0]),
   midi.NoteOnEvent(tick=0, channel=1, data=[62, 79]),
   midi.NoteOnEvent(tick=240, channel=1, data=[62, 0]),
   midi.NoteOnEvent(tick=0, channel=1, data=[71, 79]),
   midi.NoteOnEvent(tick=480, channel=1, data=[71, 0]),
   midi.NoteOnEvent(tick=0, channel=1, data=[67, 79]),
   midi.NoteOnEvent(tick=480, channel=1, data=[67, 0]),
   midi.NoteOnEvent(tick=0, channel=1, data=[66, 79]),
   midi.NoteOnEvent(tick=480, channel=1, data=[66, 0]),
   midi.NoteOnEvent(tick=0, channel=1, data=[64, 79]),
   midi.NoteOnEvent(tick=480, channel=1, data=[64, 0]),
   midi.NoteOnEvent(tick=0, channel=1, data=[64, 79]),
   midi.NoteOnEvent(tick=480, channel=1, data=[64, 0]),
   midi.NoteOnEvent(tick=0, channel=1, data=[66, 79]),
   midi.NoteOnEvent(tick=240, channel=1, data=[66, 0]),
   midi.NoteOnEvent(tick=0, channel=1, data=[67, 79]),
   midi.NoteOnEvent(tick=240, channel=1, data=[67, 0]),
   midi.NoteOnEvent(tick=0, channel=1, data=[67, 79]),
   midi.NoteOnEvent(tick=240, channel=1, data=[67, 0]),
   midi.NoteOnEvent(tick=0, channel=1, data=[66, 79]),
   midi.NoteOnEvent(tick=240, channel=1, data=[66, 0]),
   midi.NoteOnEvent(tick=0, channel=1, data=[71, 79]),
   midi.NoteOnEvent(tick=240, channel=1, data=[71, 0]),
   midi.NoteOnEvent(tick=0, channel=1, data=[69, 79]),
   midi.NoteOnEvent(tick=240, channel=1, data=[69, 0]),
   midi.NoteOnEvent(tick=0, channel=1, data=[69, 79]),
   midi.NoteOnEvent(tick=240, channel=1, data=[69, 0]),
   midi.NoteOnEvent(tick=0, channel=1, data=[67, 79]),
   midi.NoteOnEvent(tick=240, channel=1, data=[67, 0]),
   midi.NoteOnEvent(tick=0, channel=1, data=[66, 79]),
   midi.NoteOnEvent(tick=240, channel=1, data=[66, 0]),
   midi.NoteOnEvent(tick=0, channel=1, data=[64, 79]),
   midi.NoteOnEvent(tick=240, channel=1, data=[64, 0]),
   midi.NoteOnEvent(tick=0, channel=1, data=[67, 79]),
   midi.NoteOnEvent(tick=240, channel=1, data=[67, 0]),
   midi.NoteOnEvent(tick=0, channel=1, data=[66, 79]),
   midi.NoteOnEvent(tick=240, channel=1, data=[66, 0]),
   midi.NoteOnEvent(tick=0, channel=1, data=[62, 79]),
   midi.NoteOnEvent(tick=240, channel=1, data=[62, 0]),
   midi.NoteOnEvent(tick=0, channel=1, data=[61, 79]),
   midi.NoteOnEvent(tick=240, channel=1, data=[61, 0]),
   midi.NoteOnEvent(tick=0, channel=1, data=[64, 79]),
   midi.NoteOnEvent(tick=240, channel=1, data=[64, 0]),
   midi.NoteOnEvent(tick=0, channel=1, data=[62, 79]),
   midi.NoteOnEvent(tick=240, channel=1, data=[62, 0]),
   midi.NoteOnEvent(tick=0, channel=1, data=[66, 79]),
   midi.NoteOnEvent(tick=240, channel=1, data=[66, 0]),
   midi.NoteOnEvent(tick=0, channel=1, data=[64, 79]),
   midi.NoteOnEvent(tick=240, channel=1, data=[64, 0]),
   midi.NoteOnEvent(tick=0, channel=1, data=[67, 79]),
   midi.NoteOnEvent(tick=240, channel=1, data=[67, 0]),
   midi.NoteOnEvent(tick=0, channel=1, data=[66, 79]),
   midi.NoteOnEvent(tick=240, channel=1, data=[66, 0]),
   midi.NoteOnEvent(tick=0, channel=1, data=[71, 79]),
   midi.NoteOnEvent(tick=240, channel=1, data=[71, 0]),
   midi.NoteOnEvent(tick=0, channel=1, data=[69, 79]),
   midi.NoteOnEvent(tick=240, channel=1, data=[69, 0]),
   midi.NoteOnEvent(tick=0, channel=1, data=[69, 79]),
   midi.NoteOnEvent(tick=240, channel=1, data=[69, 0]),
   midi.NoteOnEvent(tick=0, channel=1, data=[67, 79]),
   midi.NoteOnEvent(tick=240, channel=1, data=[67, 0]),
   midi.NoteOnEvent(tick=0, channel=1, data=[66, 79]),
   midi.NoteOnEvent(tick=240, channel=1, data=[66, 0]),
   midi.NoteOnEvent(tick=0, channel=1, data=[64, 79]),
   midi.NoteOnEvent(tick=240, channel=1, data=[64, 0]),
   midi.NoteOnEvent(tick=0, channel=1, data=[66, 79]),
   midi.NoteOnEvent(tick=960, channel=1, data=[66, 0]),
   midi.ControlChangeEvent(tick=96, channel=1, data=[7, 60]),
   midi.NoteOnEvent(tick=1344, channel=1, data=[62, 36]),
   midi.NoteOnEvent(tick=480, channel=1, data=[62, 0]),
   midi.NoteOnEvent(tick=480, channel=1, data=[62, 36]),
   midi.NoteOnEvent(tick=480, channel=1, data=[62, 0]),
   midi.NoteOnEvent(tick=480, channel=1, data=[60, 36]),
   midi.NoteOnEvent(tick=480, channel=1, data=[60, 0]),
   midi.NoteOnEvent(tick=480, channel=1, data=[64, 36]),
   midi.NoteOnEvent(tick=480, channel=1, data=[64, 0]),
   midi.NoteOnEvent(tick=480, channel=1, data=[60, 36]),
   midi.NoteOnEvent(tick=480, channel=1, data=[60, 0]),
   midi.NoteOnEvent(tick=480, channel=1, data=[60, 36]),
   midi.NoteOnEvent(tick=480, channel=1, data=[60, 0]),
   midi.NoteOnEvent(tick=480, channel=1, data=[59, 36]),
   midi.NoteOnEvent(tick=480, channel=1, data=[59, 0]),
   midi.NoteOnEvent(tick=0, channel=1, data=[79, 79]),
   midi.ControlChangeEvent(tick=47, channel=1, data=[7, 60]),
   midi.ControlChangeEvent(tick=1, channel=1, data=[7, 108]),
   midi.NoteOnEvent(tick=192, channel=1, data=[79, 0]),
   midi.NoteOnEvent(tick=0, channel=1, data=[78, 79]),
   midi.NoteOnEvent(tick=240, channel=1, data=[78, 0]),
   midi.NoteOnEvent(tick=0, channel=1, data=[76, 79]),
   midi.NoteOnEvent(tick=240, channel=1, data=[76, 0]),
   midi.NoteOnEvent(tick=0, channel=1, data=[74, 79]),
   midi.NoteOnEvent(tick=240, channel=1, data=[74, 0]),
   midi.NoteOnEvent(tick=0, channel=1, data=[76, 79]),
   midi.NoteOnEvent(tick=240, channel=1, data=[76, 0]),
   midi.NoteOnEvent(tick=0, channel=1, data=[74, 79]),
   midi.NoteOnEvent(tick=240, channel=1, data=[74, 0]),
   midi.NoteOnEvent(tick=0, channel=1, data=[72, 79]),
   midi.NoteOnEvent(tick=240, channel=1, data=[72, 0]),
   midi.NoteOnEvent(tick=0, channel=1, data=[71, 79]),
   midi.NoteOnEvent(tick=240, channel=1, data=[71, 0]),
   midi.NoteOnEvent(tick=0, channel=1, data=[72, 79]),
   midi.NoteOnEvent(tick=240, channel=1, data=[72, 0]),
   midi.NoteOnEvent(tick=0, channel=1, data=[71, 79]),
   midi.NoteOnEvent(tick=240, channel=1, data=[71, 0]),
   midi.NoteOnEvent(tick=0, channel=1, data=[69, 79]),
   midi.NoteOnEvent(tick=240, channel=1, data=[69, 0]),
   midi.NoteOnEvent(tick=0, channel=1, data=[67, 79]),
   midi.NoteOnEvent(tick=240, channel=1, data=[67, 0]),
   midi.NoteOnEvent(tick=0, channel=1, data=[69, 79]),
   midi.NoteOnEvent(tick=240, channel=1, data=[69, 0]),
   midi.NoteOnEvent(tick=0, channel=1, data=[67, 79]),
   midi.NoteOnEvent(tick=240, channel=1, data=[67, 0]),
   midi.NoteOnEvent(tick=0, channel=1, data=[66, 79]),
   midi.NoteOnEvent(tick=240, channel=1, data=[66, 0]),
   midi.NoteOnEvent(tick=0, channel=1, data=[64, 79]),
   midi.NoteOnEvent(tick=240, channel=1, data=[64, 0]),
   midi.NoteOnEvent(tick=0, channel=1, data=[66, 79]),
   midi.NoteOnEvent(tick=240, channel=1, data=[66, 0]),
   midi.NoteOnEvent(tick=0, channel=1, data=[64, 79]),
   midi.NoteOnEvent(tick=240, channel=1, data=[64, 0]),
   midi.NoteOnEvent(tick=0, channel=1, data=[62, 79]),
   midi.NoteOnEvent(tick=240, channel=1, data=[62, 0]),
   midi.NoteOnEvent(tick=0, channel=1, data=[61, 79]),
   midi.NoteOnEvent(tick=240, channel=1, data=[61, 0]),
   midi.NoteOnEvent(tick=0, channel=1, data=[62, 79]),
   midi.NoteOnEvent(tick=480, channel=1, data=[62, 0]),
   midi.NoteOnEvent(tick=0, channel=1, data=[69, 79]),
   midi.NoteOnEvent(tick=960, channel=1, data=[69, 0]),
   midi.NoteOnEvent(tick=0, channel=1, data=[69, 79]),
   midi.NoteOnEvent(tick=60, channel=1, data=[69, 0]),
   midi.NoteOnEvent(tick=0, channel=1, data=[67, 79]),
   midi.NoteOnEvent(tick=60, channel=1, data=[67, 0]),
   midi.NoteOnEvent(tick=0, channel=1, data=[69, 79]),
   midi.NoteOnEvent(tick=60, channel=1, data=[69, 0]),
   midi.NoteOnEvent(tick=0, channel=1, data=[67, 79]),
   midi.NoteOnEvent(tick=60, channel=1, data=[67, 0]),
   midi.NoteOnEvent(tick=0, channel=1, data=[69, 79]),
   midi.NoteOnEvent(tick=60, channel=1, data=[69, 0]),
   midi.NoteOnEvent(tick=0, channel=1, data=[67, 79]),
   midi.NoteOnEvent(tick=60, channel=1, data=[67, 0]),
   midi.NoteOnEvent(tick=0, channel=1, data=[69, 79]),
   midi.NoteOnEvent(tick=60, channel=1, data=[69, 0]),
   midi.NoteOnEvent(tick=0, channel=1, data=[67, 79]),
   midi.NoteOnEvent(tick=60, channel=1, data=[67, 0]),
   midi.NoteOnEvent(tick=0, channel=1, data=[66, 79]),
   midi.NoteOnEvent(tick=480, channel=1, data=[66, 0]),
   midi.ControlChangeEvent(tick=528, channel=1, data=[7, 60]),
   midi.NoteOnEvent(tick=1872, channel=1, data=[67, 79]),
   midi.NoteOnEvent(tick=480, channel=1, data=[67, 0]),
   midi.NoteOnEvent(tick=0, channel=1, data=[67, 79]),
   midi.NoteOnEvent(tick=480, channel=1, data=[67, 0]),
   midi.NoteOnEvent(tick=0, channel=1, data=[69, 79]),
   midi.NoteOnEvent(tick=60, channel=1, data=[69, 0]),
   midi.NoteOnEvent(tick=0, channel=1, data=[67, 79]),
   midi.NoteOnEvent(tick=60, channel=1, data=[67, 0]),
   midi.NoteOnEvent(tick=0, channel=1, data=[67, 79]),
   midi.NoteOnEvent(tick=360, channel=1, data=[67, 0]),
   midi.NoteOnEvent(tick=0, channel=1, data=[66, 79]),
   midi.NoteOnEvent(tick=240, channel=1, data=[66, 0]),
   midi.NoteOnEvent(tick=0, channel=1, data=[64, 79]),
   midi.NoteOnEvent(tick=240, channel=1, data=[64, 0]),
   midi.NoteOnEvent(tick=0, channel=1, data=[69, 79]),
   midi.NoteOnEvent(tick=480, channel=1, data=[69, 0]),
   midi.NoteOnEvent(tick=0, channel=1, data=[69, 79]),
   midi.NoteOnEvent(tick=480, channel=1, data=[69, 0]),
   midi.NoteOnEvent(tick=0, channel=1, data=[69, 79]),
   midi.NoteOnEvent(tick=960, channel=1, data=[69, 0]),
   midi.NoteOnEvent(tick=0, channel=1, data=[60, 79]),
   midi.NoteOnEvent(tick=480, channel=1, data=[60, 0]),
   midi.NoteOnEvent(tick=0, channel=1, data=[60, 79]),
   midi.NoteOnEvent(tick=480, channel=1, data=[60, 0]),
   midi.NoteOnEvent(tick=0, channel=1, data=[62, 79]),
   midi.NoteOnEvent(tick=240, channel=1, data=[62, 0]),
   midi.NoteOnEvent(tick=0, channel=1, data=[60, 79]),
   midi.NoteOnEvent(tick=240, channel=1, data=[60, 0]),
   midi.NoteOnEvent(tick=0, channel=1, data=[59, 79]),
   midi.NoteOnEvent(tick=240, channel=1, data=[59, 0]),
   midi.NoteOnEvent(tick=0, channel=1, data=[57, 79]),
   midi.NoteOnEvent(tick=240, channel=1, data=[57, 0]),
   midi.NoteOnEvent(tick=0, channel=1, data=[55, 79]),
   midi.ControlChangeEvent(tick=95, channel=1, data=[7, 60]),
   midi.ControlChangeEvent(tick=1, channel=1, data=[7, 104]),
   midi.NoteOnEvent(tick=384, channel=1, data=[55, 0]),
   midi.NoteOnEvent(tick=0, channel=1, data=[55, 79]),
   midi.NoteOnEvent(tick=480, channel=1, data=[55, 0]),
   midi.NoteOnEvent(tick=0, channel=1, data=[55, 79]),
   midi.NoteOnEvent(tick=960, channel=1, data=[55, 0]),
   midi.NoteOnEvent(tick=0, channel=1, data=[72, 79]),
   midi.NoteOnEvent(tick=240, channel=1, data=[72, 0]),
   midi.NoteOnEvent(tick=0, channel=1, data=[71, 79]),
   midi.NoteOnEvent(tick=240, channel=1, data=[71, 0]),
   midi.NoteOnEvent(tick=0, channel=1, data=[72, 79]),
   midi.NoteOnEvent(tick=240, channel=1, data=[72, 0]),
   midi.NoteOnEvent(tick=0, channel=1, data=[69, 79]),
   midi.NoteOnEvent(tick=240, channel=1, data=[69, 0]),
   midi.NoteOnEvent(tick=0, channel=1, data=[71, 79]),
   midi.NoteOnEvent(tick=240, channel=1, data=[71, 0]),
   midi.NoteOnEvent(tick=0, channel=1, data=[69, 79]),
   midi.NoteOnEvent(tick=240, channel=1, data=[69, 0]),
   midi.NoteOnEvent(tick=0, channel=1, data=[71, 79]),
   midi.NoteOnEvent(tick=240, channel=1, data=[71, 0]),
   midi.NoteOnEvent(tick=0, channel=1, data=[66, 79]),
   midi.NoteOnEvent(tick=240, channel=1, data=[66, 0]),
   midi.NoteOnEvent(tick=0, channel=1, data=[67, 79]),
   midi.NoteOnEvent(tick=240, channel=1, data=[67, 0]),
   midi.NoteOnEvent(tick=0, channel=1, data=[66, 79]),
   midi.NoteOnEvent(tick=240, channel=1, data=[66, 0]),
   midi.NoteOnEvent(tick=0, channel=1, data=[67, 79]),
   midi.NoteOnEvent(tick=240, channel=1, data=[67, 0]),
   midi.NoteOnEvent(tick=0, channel=1, data=[69, 79]),
   midi.NoteOnEvent(tick=240, channel=1, data=[69, 0]),
   midi.NoteOnEvent(tick=0, channel=1, data=[71, 79]),
   midi.NoteOnEvent(tick=480, channel=1, data=[71, 0]),
   midi.NoteOnEvent(tick=480, channel=1, data=[69, 79]),
   midi.NoteOnEvent(tick=60, channel=1, data=[69, 0]),
   midi.NoteOnEvent(tick=0, channel=1, data=[66, 79]),
   midi.NoteOnEvent(tick=60, channel=1, data=[66, 0]),
   midi.NoteOnEvent(tick=0, channel=1, data=[69, 79]),
   midi.NoteOnEvent(tick=60, channel=1, data=[69, 0]),
   midi.NoteOnEvent(tick=0, channel=1, data=[66, 79]),
   midi.NoteOnEvent(tick=120, channel=1, data=[66, 0]),
   midi.NoteOnEvent(tick=0, channel=1, data=[69, 79]),
   midi.NoteOnEvent(tick=60, channel=1, data=[69, 0]),
   midi.NoteOnEvent(tick=0, channel=1, data=[66, 79]),
   midi.NoteOnEvent(tick=60, channel=1, data=[66, 0]),
   midi.NoteOnEvent(tick=0, channel=1, data=[69, 79]),
   midi.NoteOnEvent(tick=60, channel=1, data=[69, 0]),
   midi.NoteOnEvent(tick=0, channel=1, data=[66, 79]),
   midi.NoteOnEvent(tick=60, channel=1, data=[66, 0]),
   midi.NoteOnEvent(tick=0, channel=1, data=[69, 79]),
   midi.NoteOnEvent(tick=60, channel=1, data=[69, 0]),
   midi.NoteOnEvent(tick=0, channel=1, data=[66, 79]),
   midi.NoteOnEvent(tick=60, channel=1, data=[66, 0]),
   midi.NoteOnEvent(tick=0, channel=1, data=[69, 79]),
   midi.NoteOnEvent(tick=60, channel=1, data=[69, 0]),
   midi.NoteOnEvent(tick=0, channel=1, data=[66, 79]),
   midi.NoteOnEvent(tick=120, channel=1, data=[66, 0]),
   midi.NoteOnEvent(tick=0, channel=1, data=[69, 79]),
   midi.NoteOnEvent(tick=60, channel=1, data=[69, 0]),
   midi.NoteOnEvent(tick=0, channel=1, data=[66, 79]),
   midi.NoteOnEvent(tick=60, channel=1, data=[66, 0]),
   midi.NoteOnEvent(tick=0, channel=1, data=[67, 79]),
   midi.NoteOnEvent(tick=480, channel=1, data=[67, 0]),
   midi.NoteOnEvent(tick=480, channel=1, data=[67, 36]),
   midi.ControlChangeEvent(tick=47, channel=1, data=[7, 104]),
   midi.ControlChangeEvent(tick=49, channel=1, data=[7, 54]),
   midi.NoteOnEvent(tick=864, channel=1, data=[67, 0]),
   midi.NoteOnEvent(tick=0, channel=1, data=[67, 36]),
   midi.NoteOnEvent(tick=960, channel=1, data=[67, 0]),
   midi.NoteOnEvent(tick=0, channel=1, data=[66, 36]),
   midi.NoteOnEvent(tick=960, channel=1, data=[66, 0]),
   midi.NoteOnEvent(tick=0, channel=1, data=[67, 36]),
   midi.NoteOnEvent(tick=960, channel=1, data=[67, 0]),
   midi.NoteOnEvent(tick=2880, channel=1, data=[65, 36]),
   midi.NoteOnEvent(tick=960, channel=1, data=[65, 0]),
   midi.NoteOnEvent(tick=0, channel=1, data=[74, 36]),
   midi.NoteOnEvent(tick=960, channel=1, data=[74, 0]),
   midi.NoteOnEvent(tick=0, channel=1, data=[74, 36]),
   midi.NoteOnEvent(tick=960, channel=1, data=[74, 0]),
   midi.NoteOnEvent(tick=0, channel=1, data=[73, 36]),
   midi.NoteOnEvent(tick=960, channel=1, data=[73, 0]),
   midi.NoteOnEvent(tick=0, channel=1, data=[74, 36]),
   midi.NoteOnEvent(tick=960, channel=1, data=[74, 0]),
   midi.NoteOnEvent(tick=0, channel=1, data=[65, 36]),
   midi.NoteOnEvent(tick=480, channel=1, data=[65, 0]),
   midi.NoteOnEvent(tick=0, channel=1, data=[65, 36]),
   midi.NoteOnEvent(tick=480, channel=1, data=[65, 0]),
   midi.NoteOnEvent(tick=0, channel=1, data=[65, 36]),
   midi.NoteOnEvent(tick=240, channel=1, data=[65, 0]),
   midi.NoteOnEvent(tick=0, channel=1, data=[64, 36]),
   midi.NoteOnEvent(tick=240, channel=1, data=[64, 0]),
   midi.NoteOnEvent(tick=0, channel=1, data=[62, 36]),
   midi.NoteOnEvent(tick=960, channel=1, data=[62, 0]),
   midi.NoteOnEvent(tick=0, channel=1, data=[61, 36]),
   midi.NoteOnEvent(tick=480, channel=1, data=[61, 0]),
   midi.NoteOnEvent(tick=0, channel=1, data=[62, 36]),
   midi.NoteOnEvent(tick=960, channel=1, data=[62, 0]),
   midi.NoteOnEvent(tick=0, channel=1, data=[67, 36]),
   midi.NoteOnEvent(tick=960, channel=1, data=[67, 0]),
   midi.NoteOnEvent(tick=0, channel=1, data=[67, 36]),
   midi.NoteOnEvent(tick=960, channel=1, data=[67, 0]),
   midi.NoteOnEvent(tick=0, channel=1, data=[66, 36]),
   midi.NoteOnEvent(tick=960, channel=1, data=[66, 0]),
   midi.NoteOnEvent(tick=0, channel=1, data=[67, 36]),
   midi.NoteOnEvent(tick=960, channel=1, data=[67, 0]),
   midi.NoteOnEvent(tick=2880, channel=1, data=[65, 36]),
   midi.NoteOnEvent(tick=960, channel=1, data=[65, 0]),
   midi.NoteOnEvent(tick=0, channel=1, data=[74, 36]),
   midi.NoteOnEvent(tick=960, channel=1, data=[74, 0]),
   midi.NoteOnEvent(tick=0, channel=1, data=[74, 36]),
   midi.NoteOnEvent(tick=960, channel=1, data=[74, 0]),
   midi.NoteOnEvent(tick=0, channel=1, data=[73, 36]),
   midi.NoteOnEvent(tick=960, channel=1, data=[73, 0]),
   midi.NoteOnEvent(tick=0, channel=1, data=[74, 36]),
   midi.NoteOnEvent(tick=960, channel=1, data=[74, 0]),
   midi.NoteOnEvent(tick=0, channel=1, data=[65, 36]),
   midi.NoteOnEvent(tick=480, channel=1, data=[65, 0]),
   midi.NoteOnEvent(tick=0, channel=1, data=[65, 36]),
   midi.NoteOnEvent(tick=480, channel=1, data=[65, 0]),
   midi.NoteOnEvent(tick=0, channel=1, data=[65, 36]),
   midi.NoteOnEvent(tick=240, channel=1, data=[65, 0]),
   midi.NoteOnEvent(tick=0, channel=1, data=[64, 36]),
   midi.NoteOnEvent(tick=240, channel=1, data=[64, 0]),
   midi.NoteOnEvent(tick=0, channel=1, data=[62, 36]),
   midi.NoteOnEvent(tick=960, channel=1, data=[62, 0]),
   midi.NoteOnEvent(tick=0, channel=1, data=[61, 36]),
   midi.NoteOnEvent(tick=480, channel=1, data=[61, 0]),
   midi.NoteOnEvent(tick=0, channel=1, data=[62, 36]),
   midi.ControlChangeEvent(tick=235, channel=1, data=[7, 54]),
   midi.NoteOnEvent(tick=725, channel=1, data=[62, 0]),
   midi.NoteOnEvent(tick=0, channel=1, data=[74, 79]),
   midi.ControlChangeEvent(tick=41, channel=1, data=[7, 54]),
   midi.ControlChangeEvent(tick=1, channel=1, data=[7, 104]),
   midi.NoteOnEvent(tick=438, channel=1, data=[74, 0]),
   midi.NoteOnEvent(tick=0, channel=1, data=[74, 79]),
   midi.NoteOnEvent(tick=240, channel=1, data=[74, 0]),
   midi.NoteOnEvent(tick=0, channel=1, data=[74, 79]),
   midi.NoteOnEvent(tick=240, channel=1, data=[74, 0]),
   midi.NoteOnEvent(tick=0, channel=1, data=[77, 79]),
   midi.NoteOnEvent(tick=480, channel=1, data=[77, 0]),
   midi.NoteOnEvent(tick=0, channel=1, data=[71, 79]),
   midi.NoteOnEvent(tick=480, channel=1, data=[71, 0]),
   midi.NoteOnEvent(tick=0, channel=1, data=[71, 79]),
   midi.NoteOnEvent(tick=480, channel=1, data=[71, 0]),
   midi.NoteOnEvent(tick=0, channel=1, data=[71, 79]),
   midi.NoteOnEvent(tick=240, channel=1, data=[71, 0]),
   midi.NoteOnEvent(tick=0, channel=1, data=[71, 79]),
   midi.ControlChangeEvent(tick=27, channel=1, data=[7, 103]),
   midi.NoteOnEvent(tick=213, channel=1, data=[71, 0]),
   midi.NoteOnEvent(tick=0, channel=1, data=[74, 79]),
   midi.NoteOnEvent(tick=480, channel=1, data=[74, 0]),
   midi.NoteOnEvent(tick=0, channel=1, data=[72, 79]),
   midi.NoteOnEvent(tick=480, channel=1, data=[72, 0]),
   midi.NoteOnEvent(tick=0, channel=1, data=[72, 79]),
   midi.NoteOnEvent(tick=480, channel=1, data=[72, 0]),
   midi.NoteOnEvent(tick=0, channel=1, data=[72, 79]),
   midi.NoteOnEvent(tick=240, channel=1, data=[72, 0]),
   midi.NoteOnEvent(tick=0, channel=1, data=[72, 79]),
   midi.NoteOnEvent(tick=240, channel=1, data=[72, 0]),
   midi.NoteOnEvent(tick=0, channel=1, data=[75, 79]),
   midi.NoteOnEvent(tick=480, channel=1, data=[75, 0]),
   midi.NoteOnEvent(tick=0, channel=1, data=[69, 79]),
   midi.ControlChangeEvent(tick=12, channel=1, data=[7, 102]),
   midi.ControlChangeEvent(tick=83, channel=1, data=[7, 102]),
   midi.NoteOnEvent(tick=385, channel=1, data=[69, 0]),
   midi.NoteOnEvent(tick=0, channel=1, data=[69, 79]),
   midi.NoteOnEvent(tick=480, channel=1, data=[69, 0]),
   midi.NoteOnEvent(tick=0, channel=1, data=[69, 79]),
   midi.NoteOnEvent(tick=240, channel=1, data=[69, 0]),
   midi.NoteOnEvent(tick=0, channel=1, data=[69, 79]),
   midi.NoteOnEvent(tick=240, channel=1, data=[69, 0]),
   midi.NoteOnEvent(tick=0, channel=1, data=[72, 79]),
   midi.NoteOnEvent(tick=480, channel=1, data=[72, 0]),
   midi.NoteOnEvent(tick=0, channel=1, data=[70, 79]),
   midi.NoteOnEvent(tick=480, channel=1, data=[70, 0]),
   midi.NoteOnEvent(tick=0, channel=1, data=[55, 36]),
   midi.ControlChangeEvent(tick=192, channel=1, data=[7, 58]),
   midi.NoteOnEvent(tick=288, channel=1, data=[55, 0]),
   midi.NoteOnEvent(tick=0, channel=1, data=[55, 36]),
   midi.NoteOnEvent(tick=240, channel=1, data=[55, 0]),
   midi.NoteOnEvent(tick=0, channel=1, data=[55, 36]),
   midi.NoteOnEvent(tick=240, channel=1, data=[55, 0]),
   midi.NoteOnEvent(tick=0, channel=1, data=[58, 36]),
   midi.NoteOnEvent(tick=480, channel=1, data=[58, 0]),
   midi.NoteOnEvent(tick=0, channel=1, data=[57, 36]),
   midi.NoteOnEvent(tick=480, channel=1, data=[57, 0]),
   midi.NoteOnEvent(tick=0, channel=1, data=[57, 36]),
   midi.NoteOnEvent(tick=480, channel=1, data=[57, 0]),
   midi.NoteOnEvent(tick=0, channel=1, data=[57, 36]),
   midi.NoteOnEvent(tick=240, channel=1, data=[57, 0]),
   midi.NoteOnEvent(tick=0, channel=1, data=[57, 36]),
   midi.NoteOnEvent(tick=240, channel=1, data=[57, 0]),
   midi.NoteOnEvent(tick=0, channel=1, data=[60, 36]),
   midi.NoteOnEvent(tick=480, channel=1, data=[60, 0]),
   midi.NoteOnEvent(tick=0, channel=1, data=[58, 36]),
   midi.NoteOnEvent(tick=480, channel=1, data=[58, 0]),
   midi.NoteOnEvent(tick=0, channel=1, data=[58, 36]),
   midi.NoteOnEvent(tick=480, channel=1, data=[58, 0]),
   midi.NoteOnEvent(tick=0, channel=1, data=[58, 36]),
   midi.NoteOnEvent(tick=240, channel=1, data=[58, 0]),
   midi.NoteOnEvent(tick=0, channel=1, data=[58, 36]),
   midi.NoteOnEvent(tick=240, channel=1, data=[58, 0]),
   midi.NoteOnEvent(tick=0, channel=1, data=[62, 36]),
   midi.NoteOnEvent(tick=480, channel=1, data=[62, 0]),
   midi.NoteOnEvent(tick=0, channel=1, data=[60, 36]),
   midi.NoteOnEvent(tick=480, channel=1, data=[60, 0]),
   midi.NoteOnEvent(tick=0, channel=1, data=[60, 36]),
   midi.NoteOnEvent(tick=480, channel=1, data=[60, 0]),
   midi.NoteOnEvent(tick=0, channel=1, data=[60, 36]),
   midi.NoteOnEvent(tick=240, channel=1, data=[60, 0]),
   midi.NoteOnEvent(tick=0, channel=1, data=[60, 36]),
   midi.NoteOnEvent(tick=240, channel=1, data=[60, 0]),
   midi.NoteOnEvent(tick=0, channel=1, data=[63, 36]),
   midi.NoteOnEvent(tick=480, channel=1, data=[63, 0]),
   midi.NoteOnEvent(tick=0, channel=1, data=[62, 36]),
   midi.NoteOnEvent(tick=480, channel=1, data=[62, 0]),
   midi.NoteOnEvent(tick=0, channel=1, data=[74, 36]),
   midi.NoteOnEvent(tick=480, channel=1, data=[74, 0]),
   midi.NoteOnEvent(tick=0, channel=1, data=[74, 36]),
   midi.NoteOnEvent(tick=240, channel=1, data=[74, 0]),
   midi.NoteOnEvent(tick=0, channel=1, data=[74, 36]),
   midi.NoteOnEvent(tick=240, channel=1, data=[74, 0]),
   midi.NoteOnEvent(tick=0, channel=1, data=[72, 36]),
   midi.NoteOnEvent(tick=960, channel=1, data=[72, 0]),
   midi.NoteOnEvent(tick=0, channel=1, data=[70, 36]),
   midi.NoteOnEvent(tick=480, channel=1, data=[70, 0]),
   midi.NoteOnEvent(tick=0, channel=1, data=[70, 36]),
   midi.NoteOnEvent(tick=240, channel=1, data=[70, 0]),
   midi.NoteOnEvent(tick=0, channel=1, data=[70, 36]),
   midi.NoteOnEvent(tick=240, channel=1, data=[70, 0]),
   midi.NoteOnEvent(tick=0, channel=1, data=[69, 36]),
   midi.ControlChangeEvent(tick=959, channel=1, data=[7, 58]),
   midi.NoteOnEvent(tick=1, channel=1, data=[69, 0]),
   midi.NoteOnEvent(tick=0, channel=1, data=[69, 79]),
   midi.ControlChangeEvent(tick=96, channel=1, data=[7, 98]),
   midi.NoteOnEvent(tick=384, channel=1, data=[69, 0]),
   midi.NoteOnEvent(tick=0, channel=1, data=[69, 79]),
   midi.NoteOnEvent(tick=240, channel=1, data=[69, 0]),
   midi.NoteOnEvent(tick=0, channel=1, data=[69, 79]),
   midi.NoteOnEvent(tick=240, channel=1, data=[69, 0]),
   midi.NoteOnEvent(tick=0, channel=1, data=[67, 79]),
   midi.NoteOnEvent(tick=960, channel=1, data=[67, 0]),
   midi.NoteOnEvent(tick=0, channel=1, data=[61, 79]),
   midi.ControlChangeEvent(tick=431, channel=1, data=[7, 98]),
   midi.NoteOnEvent(tick=529, channel=1, data=[61, 0]),
   midi.NoteOnEvent(tick=0, channel=1, data=[62, 79]),
   midi.NoteOnEvent(tick=480, channel=1, data=[62, 0]),
   midi.NoteOnEvent(tick=0, channel=1, data=[66, 79]),
   midi.NoteOnEvent(tick=960, channel=1, data=[66, 0]),
   midi.NoteOnEvent(tick=0, channel=1, data=[69, 79]),
   midi.NoteOnEvent(tick=480, channel=1, data=[69, 0]),
   midi.NoteOnEvent(tick=0, channel=1, data=[67, 79]),
   midi.NoteOnEvent(tick=60, channel=1, data=[67, 0]),
   midi.NoteOnEvent(tick=0, channel=1, data=[66, 79]),
   midi.NoteOnEvent(tick=60, channel=1, data=[66, 0]),
   midi.NoteOnEvent(tick=0, channel=1, data=[67, 79]),
   midi.NoteOnEvent(tick=60, channel=1, data=[67, 0]),
   midi.NoteOnEvent(tick=0, channel=1, data=[66, 79]),
   midi.NoteOnEvent(tick=60, channel=1, data=[66, 0]),
   midi.NoteOnEvent(tick=0, channel=1, data=[67, 79]),
   midi.NoteOnEvent(tick=60, channel=1, data=[67, 0]),
   midi.NoteOnEvent(tick=0, channel=1, data=[66, 79]),
   midi.NoteOnEvent(tick=60, channel=1, data=[66, 0]),
   midi.NoteOnEvent(tick=0, channel=1, data=[67, 79]),
   midi.NoteOnEvent(tick=60, channel=1, data=[67, 0]),
   midi.NoteOnEvent(tick=0, channel=1, data=[66, 79]),
   midi.NoteOnEvent(tick=60, channel=1, data=[66, 0]),
   midi.NoteOnEvent(tick=0, channel=1, data=[67, 79]),
   midi.NoteOnEvent(tick=60, channel=1, data=[67, 0]),
   midi.NoteOnEvent(tick=0, channel=1, data=[66, 79]),
   midi.NoteOnEvent(tick=60, channel=1, data=[66, 0]),
   midi.NoteOnEvent(tick=0, channel=1, data=[67, 79]),
   midi.NoteOnEvent(tick=60, channel=1, data=[67, 0]),
   midi.NoteOnEvent(tick=0, channel=1, data=[66, 79]),
   midi.NoteOnEvent(tick=60, channel=1, data=[66, 0]),
   midi.NoteOnEvent(tick=0, channel=1, data=[67, 79]),
   midi.NoteOnEvent(tick=60, channel=1, data=[67, 0]),
   midi.NoteOnEvent(tick=0, channel=1, data=[66, 79]),
   midi.NoteOnEvent(tick=60, channel=1, data=[66, 0]),
   midi.NoteOnEvent(tick=0, channel=1, data=[67, 79]),
   midi.NoteOnEvent(tick=60, channel=1, data=[67, 0]),
   midi.NoteOnEvent(tick=0, channel=1, data=[66, 79]),
   midi.NoteOnEvent(tick=60, channel=1, data=[66, 0]),
   midi.NoteOnEvent(tick=0, channel=1, data=[67, 79]),
   midi.NoteOnEvent(tick=60, channel=1, data=[67, 0]),
   midi.NoteOnEvent(tick=0, channel=1, data=[66, 79]),
   midi.NoteOnEvent(tick=60, channel=1, data=[66, 0]),
   midi.NoteOnEvent(tick=0, channel=1, data=[67, 79]),
   midi.NoteOnEvent(tick=60, channel=1, data=[67, 0]),
   midi.NoteOnEvent(tick=0, channel=1, data=[66, 79]),
   midi.NoteOnEvent(tick=60, channel=1, data=[66, 0]),
   midi.NoteOnEvent(tick=0, channel=1, data=[67, 79]),
   midi.NoteOnEvent(tick=60, channel=1, data=[67, 0]),
   midi.NoteOnEvent(tick=0, channel=1, data=[66, 79]),
   midi.NoteOnEvent(tick=60, channel=1, data=[66, 0]),
   midi.NoteOnEvent(tick=0, channel=1, data=[67, 79]),
   midi.NoteOnEvent(tick=60, channel=1, data=[67, 0]),
   midi.NoteOnEvent(tick=0, channel=1, data=[66, 79]),
   midi.NoteOnEvent(tick=60, channel=1, data=[66, 0]),
   midi.NoteOnEvent(tick=0, channel=1, data=[67, 79]),
   midi.NoteOnEvent(tick=60, channel=1, data=[67, 0]),
   midi.NoteOnEvent(tick=0, channel=1, data=[66, 79]),
   midi.NoteOnEvent(tick=60, channel=1, data=[66, 0]),
   midi.NoteOnEvent(tick=0, channel=1, data=[67, 79]),
   midi.NoteOnEvent(tick=60, channel=1, data=[67, 0]),
   midi.NoteOnEvent(tick=0, channel=1, data=[66, 79]),
   midi.NoteOnEvent(tick=60, channel=1, data=[66, 0]),
   midi.NoteOnEvent(tick=0, channel=1, data=[67, 79]),
   midi.NoteOnEvent(tick=60, channel=1, data=[67, 0]),
   midi.NoteOnEvent(tick=0, channel=1, data=[66, 79]),
   midi.NoteOnEvent(tick=60, channel=1, data=[66, 0]),
   midi.NoteOnEvent(tick=0, channel=1, data=[67, 79]),
   midi.NoteOnEvent(tick=60, channel=1, data=[67, 0]),
   midi.NoteOnEvent(tick=0, channel=1, data=[66, 79]),
   midi.NoteOnEvent(tick=60, channel=1, data=[66, 0]),
   midi.NoteOnEvent(tick=0, channel=1, data=[66, 79]),
   midi.ControlChangeEvent(tick=864, channel=1, data=[7, 56]),
   midi.NoteOnEvent(tick=96, channel=1, data=[66, 0]),
   midi.NoteOnEvent(tick=1920, channel=1, data=[67, 79]),
   midi.NoteOnEvent(tick=480, channel=1, data=[67, 0]),
   midi.NoteOnEvent(tick=0, channel=1, data=[67, 79]),
   midi.NoteOnEvent(tick=480, channel=1, data=[67, 0]),
   midi.NoteOnEvent(tick=0, channel=1, data=[69, 79]),
   midi.NoteOnEvent(tick=240, channel=1, data=[69, 0]),
   midi.NoteOnEvent(tick=0, channel=1, data=[67, 79]),
   midi.NoteOnEvent(tick=240, channel=1, data=[67, 0]),
   midi.NoteOnEvent(tick=0, channel=1, data=[64, 79]),
   midi.NoteOnEvent(tick=240, channel=1, data=[64, 0]),
   midi.NoteOnEvent(tick=0, channel=1, data=[66, 79]),
   midi.NoteOnEvent(tick=240, channel=1, data=[66, 0]),
   midi.NoteOnEvent(tick=0, channel=1, data=[69, 79]),
   midi.NoteOnEvent(tick=480, channel=1, data=[69, 0]),
   midi.NoteOnEvent(tick=0, channel=1, data=[69, 79]),
   midi.NoteOnEvent(tick=480, channel=1, data=[69, 0]),
   midi.NoteOnEvent(tick=0, channel=1, data=[69, 79]),
   midi.NoteOnEvent(tick=960, channel=1, data=[69, 0]),
   midi.NoteOnEvent(tick=0, channel=1, data=[60, 79]),
   midi.NoteOnEvent(tick=480, channel=1, data=[60, 0]),
   midi.NoteOnEvent(tick=0, channel=1, data=[60, 79]),
   midi.NoteOnEvent(tick=480, channel=1, data=[60, 0]),
   midi.NoteOnEvent(tick=0, channel=1, data=[62, 79]),
   midi.NoteOnEvent(tick=240, channel=1, data=[62, 0]),
   midi.NoteOnEvent(tick=0, channel=1, data=[60, 79]),
   midi.NoteOnEvent(tick=240, channel=1, data=[60, 0]),
   midi.NoteOnEvent(tick=0, channel=1, data=[59, 79]),
   midi.NoteOnEvent(tick=240, channel=1, data=[59, 0]),
   midi.NoteOnEvent(tick=0, channel=1, data=[57, 79]),
   midi.NoteOnEvent(tick=240, channel=1, data=[57, 0]),
   midi.NoteOnEvent(tick=0, channel=1, data=[55, 79]),
   midi.ControlChangeEvent(tick=95, channel=1, data=[7, 56]),
   midi.ControlChangeEvent(tick=1, channel=1, data=[7, 96]),
   midi.NoteOnEvent(tick=384, channel=1, data=[55, 0]),
   midi.NoteOnEvent(tick=0, channel=1, data=[55, 79]),
   midi.NoteOnEvent(tick=480, channel=1, data=[55, 0]),
   midi.NoteOnEvent(tick=0, channel=1, data=[55, 79]),
   midi.NoteOnEvent(tick=960, channel=1, data=[55, 0]),
   midi.NoteOnEvent(tick=0, channel=1, data=[72, 79]),
   midi.NoteOnEvent(tick=240, channel=1, data=[72, 0]),
   midi.NoteOnEvent(tick=0, channel=1, data=[71, 79]),
   midi.NoteOnEvent(tick=240, channel=1, data=[71, 0]),
   midi.NoteOnEvent(tick=0, channel=1, data=[72, 79]),
   midi.NoteOnEvent(tick=240, channel=1, data=[72, 0]),
   midi.NoteOnEvent(tick=0, channel=1, data=[69, 79]),
   midi.NoteOnEvent(tick=240, channel=1, data=[69, 0]),
   midi.NoteOnEvent(tick=0, channel=1, data=[71, 79]),
   midi.NoteOnEvent(tick=240, channel=1, data=[71, 0]),
   midi.NoteOnEvent(tick=0, channel=1, data=[69, 79]),
   midi.NoteOnEvent(tick=240, channel=1, data=[69, 0]),
   midi.NoteOnEvent(tick=0, channel=1, data=[71, 79]),
   midi.NoteOnEvent(tick=240, channel=1, data=[71, 0]),
   midi.NoteOnEvent(tick=0, channel=1, data=[66, 79]),
   midi.NoteOnEvent(tick=240, channel=1, data=[66, 0]),
   midi.NoteOnEvent(tick=0, channel=1, data=[67, 79]),
   midi.NoteOnEvent(tick=240, channel=1, data=[67, 0]),
   midi.NoteOnEvent(tick=0, channel=1, data=[66, 79]),
   midi.NoteOnEvent(tick=240, channel=1, data=[66, 0]),
   midi.NoteOnEvent(tick=0, channel=1, data=[67, 79]),
   midi.NoteOnEvent(tick=240, channel=1, data=[67, 0]),
   midi.NoteOnEvent(tick=0, channel=1, data=[69, 79]),
   midi.NoteOnEvent(tick=240, channel=1, data=[69, 0]),
   midi.NoteOnEvent(tick=0, channel=1, data=[71, 79]),
   midi.NoteOnEvent(tick=480, channel=1, data=[71, 0]),
   midi.NoteOnEvent(tick=480, channel=1, data=[68, 79]),
   midi.NoteOnEvent(tick=60, channel=1, data=[68, 0]),
   midi.NoteOnEvent(tick=0, channel=1, data=[66, 79]),
   midi.NoteOnEvent(tick=60, channel=1, data=[66, 0]),
   midi.NoteOnEvent(tick=0, channel=1, data=[68, 79]),
   midi.NoteOnEvent(tick=60, channel=1, data=[68, 0]),
   midi.NoteOnEvent(tick=0, channel=1, data=[66, 79]),
   midi.NoteOnEvent(tick=120, channel=1, data=[66, 0]),
   midi.NoteOnEvent(tick=0, channel=1, data=[68, 79]),
   midi.NoteOnEvent(tick=60, channel=1, data=[68, 0]),
   midi.NoteOnEvent(tick=0, channel=1, data=[66, 79]),
   midi.NoteOnEvent(tick=60, channel=1, data=[66, 0]),
   midi.NoteOnEvent(tick=0, channel=1, data=[68, 79]),
   midi.NoteOnEvent(tick=60, channel=1, data=[68, 0]),
   midi.NoteOnEvent(tick=0, channel=1, data=[66, 79]),
   midi.NoteOnEvent(tick=60, channel=1, data=[66, 0]),
   midi.NoteOnEvent(tick=0, channel=1, data=[68, 79]),
   midi.NoteOnEvent(tick=60, channel=1, data=[68, 0]),
   midi.NoteOnEvent(tick=0, channel=1, data=[66, 79]),
   midi.NoteOnEvent(tick=60, channel=1, data=[66, 0]),
   midi.NoteOnEvent(tick=0, channel=1, data=[68, 79]),
   midi.NoteOnEvent(tick=60, channel=1, data=[68, 0]),
   midi.NoteOnEvent(tick=0, channel=1, data=[66, 79]),
   midi.NoteOnEvent(tick=60, channel=1, data=[66, 0]),
   midi.NoteOnEvent(tick=0, channel=1, data=[68, 79]),
   midi.NoteOnEvent(tick=60, channel=1, data=[68, 0]),
   midi.NoteOnEvent(tick=0, channel=1, data=[66, 79]),
   midi.NoteOnEvent(tick=120, channel=1, data=[66, 0]),
   midi.NoteOnEvent(tick=0, channel=1, data=[67, 79]),
   midi.NoteOnEvent(tick=480, channel=1, data=[67, 0]),
   midi.NoteOnEvent(tick=480, channel=1, data=[64, 79]),
   midi.NoteOnEvent(tick=480, channel=1, data=[64, 0]),
   midi.NoteOnEvent(tick=0, channel=1, data=[66, 79]),
   midi.NoteOnEvent(tick=240, channel=1, data=[66, 0]),
   midi.NoteOnEvent(tick=0, channel=1, data=[67, 79]),
   midi.NoteOnEvent(tick=240, channel=1, data=[67, 0]),
   midi.NoteOnEvent(tick=0, channel=1, data=[67, 79]),
   midi.NoteOnEvent(tick=240, channel=1, data=[67, 0]),
   midi.NoteOnEvent(tick=0, channel=1, data=[66, 79]),
   midi.NoteOnEvent(tick=240, channel=1, data=[66, 0]),
   midi.NoteOnEvent(tick=0, channel=1, data=[71, 79]),
   midi.NoteOnEvent(tick=240, channel=1, data=[71, 0]),
   midi.NoteOnEvent(tick=0, channel=1, data=[69, 79]),
   midi.NoteOnEvent(tick=240, channel=1, data=[69, 0]),
   midi.NoteOnEvent(tick=0, channel=1, data=[69, 79]),
   midi.NoteOnEvent(tick=240, channel=1, data=[69, 0]),
   midi.NoteOnEvent(tick=0, channel=1, data=[67, 79]),
   midi.NoteOnEvent(tick=240, channel=1, data=[67, 0]),
   midi.NoteOnEvent(tick=0, channel=1, data=[66, 79]),
   midi.NoteOnEvent(tick=240, channel=1, data=[66, 0]),
   midi.NoteOnEvent(tick=0, channel=1, data=[64, 79]),
   midi.NoteOnEvent(tick=240, channel=1, data=[64, 0]),
   midi.NoteOnEvent(tick=0, channel=1, data=[67, 79]),
   midi.NoteOnEvent(tick=240, channel=1, data=[67, 0]),
   midi.NoteOnEvent(tick=0, channel=1, data=[66, 79]),
   midi.NoteOnEvent(tick=240, channel=1, data=[66, 0]),
   midi.NoteOnEvent(tick=0, channel=1, data=[62, 79]),
   midi.NoteOnEvent(tick=240, channel=1, data=[62, 0]),
   midi.NoteOnEvent(tick=0, channel=1, data=[61, 79]),
   midi.NoteOnEvent(tick=240, channel=1, data=[61, 0]),
   midi.NoteOnEvent(tick=0, channel=1, data=[64, 79]),
   midi.NoteOnEvent(tick=240, channel=1, data=[64, 0]),
   midi.NoteOnEvent(tick=0, channel=1, data=[62, 79]),
   midi.NoteOnEvent(tick=240, channel=1, data=[62, 0]),
   midi.NoteOnEvent(tick=0, channel=1, data=[66, 79]),
   midi.NoteOnEvent(tick=240, channel=1, data=[66, 0]),
   midi.NoteOnEvent(tick=0, channel=1, data=[64, 79]),
   midi.NoteOnEvent(tick=240, channel=1, data=[64, 0]),
   midi.NoteOnEvent(tick=0, channel=1, data=[67, 79]),
   midi.NoteOnEvent(tick=240, channel=1, data=[67, 0]),
   midi.NoteOnEvent(tick=0, channel=1, data=[66, 79]),
   midi.NoteOnEvent(tick=240, channel=1, data=[66, 0]),
   midi.NoteOnEvent(tick=0, channel=1, data=[64, 79]),
   midi.NoteOnEvent(tick=240, channel=1, data=[64, 0]),
   midi.NoteOnEvent(tick=0, channel=1, data=[62, 79]),
   midi.NoteOnEvent(tick=240, channel=1, data=[62, 0]),
   midi.NoteOnEvent(tick=0, channel=1, data=[71, 79]),
   midi.NoteOnEvent(tick=480, channel=1, data=[71, 0]),
   midi.NoteOnEvent(tick=0, channel=1, data=[67, 79]),
   midi.NoteOnEvent(tick=480, channel=1, data=[67, 0]),
   midi.NoteOnEvent(tick=0, channel=1, data=[66, 79]),
   midi.NoteOnEvent(tick=480, channel=1, data=[66, 0]),
   midi.NoteOnEvent(tick=0, channel=1, data=[64, 79]),
   midi.NoteOnEvent(tick=480, channel=1, data=[64, 0]),
   midi.NoteOnEvent(tick=0, channel=1, data=[64, 79]),
   midi.NoteOnEvent(tick=480, channel=1, data=[64, 0]),
   midi.NoteOnEvent(tick=0, channel=1, data=[66, 79]),
   midi.NoteOnEvent(tick=240, channel=1, data=[66, 0]),
   midi.NoteOnEvent(tick=0, channel=1, data=[67, 79]),
   midi.NoteOnEvent(tick=240, channel=1, data=[67, 0]),
   midi.NoteOnEvent(tick=0, channel=1, data=[67, 79]),
   midi.NoteOnEvent(tick=240, channel=1, data=[67, 0]),
   midi.NoteOnEvent(tick=0, channel=1, data=[66, 79]),
   midi.NoteOnEvent(tick=240, channel=1, data=[66, 0]),
   midi.NoteOnEvent(tick=0, channel=1, data=[71, 79]),
   midi.NoteOnEvent(tick=240, channel=1, data=[71, 0]),
   midi.NoteOnEvent(tick=0, channel=1, data=[69, 79]),
   midi.NoteOnEvent(tick=240, channel=1, data=[69, 0]),
   midi.NoteOnEvent(tick=0, channel=1, data=[69, 79]),
   midi.NoteOnEvent(tick=240, channel=1, data=[69, 0]),
   midi.NoteOnEvent(tick=0, channel=1, data=[67, 79]),
   midi.NoteOnEvent(tick=240, channel=1, data=[67, 0]),
   midi.NoteOnEvent(tick=0, channel=1, data=[66, 79]),
   midi.NoteOnEvent(tick=240, channel=1, data=[66, 0]),
   midi.NoteOnEvent(tick=0, channel=1, data=[64, 79]),
   midi.NoteOnEvent(tick=240, channel=1, data=[64, 0]),
   midi.NoteOnEvent(tick=0, channel=1, data=[67, 79]),
   midi.NoteOnEvent(tick=240, channel=1, data=[67, 0]),
   midi.NoteOnEvent(tick=0, channel=1, data=[66, 79]),
   midi.NoteOnEvent(tick=240, channel=1, data=[66, 0]),
   midi.NoteOnEvent(tick=0, channel=1, data=[62, 79]),
   midi.NoteOnEvent(tick=240, channel=1, data=[62, 0]),
   midi.NoteOnEvent(tick=0, channel=1, data=[61, 79]),
   midi.NoteOnEvent(tick=240, channel=1, data=[61, 0]),
   midi.NoteOnEvent(tick=0, channel=1, data=[64, 79]),
   midi.NoteOnEvent(tick=240, channel=1, data=[64, 0]),
   midi.NoteOnEvent(tick=0, channel=1, data=[62, 79]),
   midi.NoteOnEvent(tick=240, channel=1, data=[62, 0]),
   midi.NoteOnEvent(tick=0, channel=1, data=[66, 79]),
   midi.NoteOnEvent(tick=240, channel=1, data=[66, 0]),
   midi.NoteOnEvent(tick=0, channel=1, data=[64, 79]),
   midi.NoteOnEvent(tick=240, channel=1, data=[64, 0]),
   midi.NoteOnEvent(tick=0, channel=1, data=[67, 79]),
   midi.NoteOnEvent(tick=240, channel=1, data=[67, 0]),
   midi.NoteOnEvent(tick=0, channel=1, data=[66, 79]),
   midi.NoteOnEvent(tick=240, channel=1, data=[66, 0]),
   midi.NoteOnEvent(tick=0, channel=1, data=[71, 79]),
   midi.NoteOnEvent(tick=240, channel=1, data=[71, 0]),
   midi.NoteOnEvent(tick=0, channel=1, data=[69, 79]),
   midi.NoteOnEvent(tick=240, channel=1, data=[69, 0]),
   midi.NoteOnEvent(tick=0, channel=1, data=[69, 79]),
   midi.NoteOnEvent(tick=240, channel=1, data=[69, 0]),
   midi.NoteOnEvent(tick=0, channel=1, data=[67, 79]),
   midi.NoteOnEvent(tick=240, channel=1, data=[67, 0]),
   midi.NoteOnEvent(tick=0, channel=1, data=[66, 79]),
   midi.NoteOnEvent(tick=240, channel=1, data=[66, 0]),
   midi.NoteOnEvent(tick=0, channel=1, data=[64, 79]),
   midi.NoteOnEvent(tick=240, channel=1, data=[64, 0]),
   midi.NoteOnEvent(tick=0, channel=1, data=[66, 79]),
   midi.ControlChangeEvent(tick=959, channel=1, data=[7, 96]),
   midi.NoteOnEvent(tick=1, channel=1, data=[66, 0]),
   midi.ControlChangeEvent(tick=0, channel=1, data=[7, 58]),
   midi.NoteOnEvent(tick=1440, channel=1, data=[62, 36]),
   midi.NoteOnEvent(tick=480, channel=1, data=[62, 0]),
   midi.NoteOnEvent(tick=480, channel=1, data=[62, 36]),
   midi.NoteOnEvent(tick=480, channel=1, data=[62, 0]),
   midi.NoteOnEvent(tick=480, channel=1, data=[60, 36]),
   midi.NoteOnEvent(tick=480, channel=1, data=[60, 0]),
   midi.NoteOnEvent(tick=480, channel=1, data=[64, 36]),
   midi.NoteOnEvent(tick=480, channel=1, data=[64, 0]),
   midi.NoteOnEvent(tick=480, channel=1, data=[60, 36]),
   midi.NoteOnEvent(tick=480, channel=1, data=[60, 0]),
   midi.NoteOnEvent(tick=480, channel=1, data=[60, 36]),
   midi.NoteOnEvent(tick=480, channel=1, data=[60, 0]),
   midi.NoteOnEvent(tick=480, channel=1, data=[59, 36]),
   midi.NoteOnEvent(tick=480, channel=1, data=[59, 0]),
   midi.NoteOnEvent(tick=0, channel=1, data=[79, 79]),
   midi.ControlChangeEvent(tick=48, channel=1, data=[7, 102]),
   midi.NoteOnEvent(tick=192, channel=1, data=[79, 0]),
   midi.NoteOnEvent(tick=0, channel=1, data=[78, 79]),
   midi.NoteOnEvent(tick=240, channel=1, data=[78, 0]),
   midi.NoteOnEvent(tick=0, channel=1, data=[76, 79]),
   midi.NoteOnEvent(tick=240, channel=1, data=[76, 0]),
   midi.NoteOnEvent(tick=0, channel=1, data=[74, 79]),
   midi.NoteOnEvent(tick=240, channel=1, data=[74, 0]),
   midi.NoteOnEvent(tick=0, channel=1, data=[76, 79]),
   midi.NoteOnEvent(tick=240, channel=1, data=[76, 0]),
   midi.NoteOnEvent(tick=0, channel=1, data=[74, 79]),
   midi.NoteOnEvent(tick=240, channel=1, data=[74, 0]),
   midi.NoteOnEvent(tick=0, channel=1, data=[72, 79]),
   midi.NoteOnEvent(tick=240, channel=1, data=[72, 0]),
   midi.NoteOnEvent(tick=0, channel=1, data=[71, 79]),
   midi.NoteOnEvent(tick=240, channel=1, data=[71, 0]),
   midi.NoteOnEvent(tick=0, channel=1, data=[72, 79]),
   midi.NoteOnEvent(tick=240, channel=1, data=[72, 0]),
   midi.NoteOnEvent(tick=0, channel=1, data=[71, 79]),
   midi.NoteOnEvent(tick=240, channel=1, data=[71, 0]),
   midi.NoteOnEvent(tick=0, channel=1, data=[69, 79]),
   midi.NoteOnEvent(tick=240, channel=1, data=[69, 0]),
   midi.NoteOnEvent(tick=0, channel=1, data=[67, 79]),
   midi.NoteOnEvent(tick=240, channel=1, data=[67, 0]),
   midi.NoteOnEvent(tick=0, channel=1, data=[69, 79]),
   midi.NoteOnEvent(tick=240, channel=1, data=[69, 0]),
   midi.NoteOnEvent(tick=0, channel=1, data=[67, 79]),
   midi.NoteOnEvent(tick=240, channel=1, data=[67, 0]),
   midi.NoteOnEvent(tick=0, channel=1, data=[66, 79]),
   midi.NoteOnEvent(tick=240, channel=1, data=[66, 0]),
   midi.NoteOnEvent(tick=0, channel=1, data=[64, 79]),
   midi.NoteOnEvent(tick=240, channel=1, data=[64, 0]),
   midi.NoteOnEvent(tick=0, channel=1, data=[66, 79]),
   midi.NoteOnEvent(tick=240, channel=1, data=[66, 0]),
   midi.NoteOnEvent(tick=0, channel=1, data=[64, 79]),
   midi.NoteOnEvent(tick=240, channel=1, data=[64, 0]),
   midi.NoteOnEvent(tick=0, channel=1, data=[62, 79]),
   midi.NoteOnEvent(tick=240, channel=1, data=[62, 0]),
   midi.NoteOnEvent(tick=0, channel=1, data=[61, 79]),
   midi.NoteOnEvent(tick=240, channel=1, data=[61, 0]),
   midi.NoteOnEvent(tick=0, channel=1, data=[62, 79]),
   midi.NoteOnEvent(tick=480, channel=1, data=[62, 0]),
   midi.NoteOnEvent(tick=0, channel=1, data=[69, 79]),
   midi.NoteOnEvent(tick=960, channel=1, data=[69, 0]),
   midi.NoteOnEvent(tick=0, channel=1, data=[69, 79]),
   midi.NoteOnEvent(tick=60, channel=1, data=[69, 0]),
   midi.NoteOnEvent(tick=0, channel=1, data=[67, 79]),
   midi.NoteOnEvent(tick=60, channel=1, data=[67, 0]),
   midi.NoteOnEvent(tick=0, channel=1, data=[69, 79]),
   midi.NoteOnEvent(tick=60, channel=1, data=[69, 0]),
   midi.NoteOnEvent(tick=0, channel=1, data=[67, 79]),
   midi.NoteOnEvent(tick=60, channel=1, data=[67, 0]),
   midi.NoteOnEvent(tick=0, channel=1, data=[69, 79]),
   midi.NoteOnEvent(tick=60, channel=1, data=[69, 0]),
   midi.NoteOnEvent(tick=0, channel=1, data=[67, 79]),
   midi.NoteOnEvent(tick=60, channel=1, data=[67, 0]),
   midi.NoteOnEvent(tick=0, channel=1, data=[69, 79]),
   midi.NoteOnEvent(tick=60, channel=1, data=[69, 0]),
   midi.NoteOnEvent(tick=0, channel=1, data=[67, 79]),
   midi.NoteOnEvent(tick=60, channel=1, data=[67, 0]),
   midi.NoteOnEvent(tick=0, channel=1, data=[66, 79]),
   midi.NoteOnEvent(tick=480, channel=1, data=[66, 0]),
   midi.ControlChangeEvent(tick=360, channel=1, data=[7, 102]),
   midi.ControlChangeEvent(tick=359, channel=1, data=[7, 102]),
   midi.ControlChangeEvent(tick=1, channel=1, data=[7, 46]),
   midi.NoteOnEvent(tick=1680, channel=1, data=[67, 79]),
   midi.NoteOnEvent(tick=480, channel=1, data=[67, 0]),
   midi.NoteOnEvent(tick=0, channel=1, data=[67, 79]),
   midi.NoteOnEvent(tick=480, channel=1, data=[67, 0]),
   midi.NoteOnEvent(tick=0, channel=1, data=[69, 79]),
   midi.NoteOnEvent(tick=240, channel=1, data=[69, 0]),
   midi.NoteOnEvent(tick=0, channel=1, data=[67, 79]),
   midi.NoteOnEvent(tick=240, channel=1, data=[67, 0]),
   midi.NoteOnEvent(tick=0, channel=1, data=[66, 79]),
   midi.NoteOnEvent(tick=240, channel=1, data=[66, 0]),
   midi.NoteOnEvent(tick=0, channel=1, data=[64, 79]),
   midi.NoteOnEvent(tick=240, channel=1, data=[64, 0]),
   midi.NoteOnEvent(tick=0, channel=1, data=[69, 79]),
   midi.NoteOnEvent(tick=480, channel=1, data=[69, 0]),
   midi.NoteOnEvent(tick=0, channel=1, data=[69, 79]),
   midi.NoteOnEvent(tick=480, channel=1, data=[69, 0]),
   midi.NoteOnEvent(tick=0, channel=1, data=[69, 79]),
   midi.NoteOnEvent(tick=960, channel=1, data=[69, 0]),
   midi.NoteOnEvent(tick=0, channel=1, data=[60, 79]),
   midi.NoteOnEvent(tick=480, channel=1, data=[60, 0]),
   midi.NoteOnEvent(tick=0, channel=1, data=[60, 79]),
   midi.NoteOnEvent(tick=480, channel=1, data=[60, 0]),
   midi.NoteOnEvent(tick=0, channel=1, data=[62, 79]),
   midi.NoteOnEvent(tick=240, channel=1, data=[62, 0]),
   midi.NoteOnEvent(tick=0, channel=1, data=[60, 79]),
   midi.NoteOnEvent(tick=240, channel=1, data=[60, 0]),
   midi.NoteOnEvent(tick=0, channel=1, data=[59, 79]),
   midi.NoteOnEvent(tick=240, channel=1, data=[59, 0]),
   midi.NoteOnEvent(tick=0, channel=1, data=[57, 79]),
   midi.NoteOnEvent(tick=240, channel=1, data=[57, 0]),
   midi.NoteOnEvent(tick=0, channel=1, data=[55, 79]),
   midi.NoteOnEvent(tick=480, channel=1, data=[55, 0]),
   midi.NoteOnEvent(tick=0, channel=1, data=[55, 79]),
   midi.NoteOnEvent(tick=480, channel=1, data=[55, 0]),
   midi.NoteOnEvent(tick=0, channel=1, data=[55, 79]),
   midi.NoteOnEvent(tick=960, channel=1, data=[55, 0]),
   midi.NoteOnEvent(tick=0, channel=1, data=[72, 79]),
   midi.NoteOnEvent(tick=240, channel=1, data=[72, 0]),
   midi.NoteOnEvent(tick=0, channel=1, data=[71, 79]),
   midi.NoteOnEvent(tick=240, channel=1, data=[71, 0]),
   midi.NoteOnEvent(tick=0, channel=1, data=[72, 79]),
   midi.NoteOnEvent(tick=240, channel=1, data=[72, 0]),
   midi.NoteOnEvent(tick=0, channel=1, data=[69, 79]),
   midi.NoteOnEvent(tick=240, channel=1, data=[69, 0]),
   midi.NoteOnEvent(tick=0, channel=1, data=[71, 79]),
   midi.NoteOnEvent(tick=240, channel=1, data=[71, 0]),
   midi.NoteOnEvent(tick=0, channel=1, data=[69, 79]),
   midi.NoteOnEvent(tick=240, channel=1, data=[69, 0]),
   midi.NoteOnEvent(tick=0, channel=1, data=[71, 79]),
   midi.NoteOnEvent(tick=240, channel=1, data=[71, 0]),
   midi.NoteOnEvent(tick=0, channel=1, data=[66, 79]),
   midi.NoteOnEvent(tick=240, channel=1, data=[66, 0]),
   midi.NoteOnEvent(tick=0, channel=1, data=[67, 79]),
   midi.NoteOnEvent(tick=240, channel=1, data=[67, 0]),
   midi.NoteOnEvent(tick=0, channel=1, data=[66, 79]),
   midi.NoteOnEvent(tick=240, channel=1, data=[66, 0]),
   midi.NoteOnEvent(tick=0, channel=1, data=[67, 79]),
   midi.NoteOnEvent(tick=240, channel=1, data=[67, 0]),
   midi.NoteOnEvent(tick=0, channel=1, data=[69, 79]),
   midi.NoteOnEvent(tick=240, channel=1, data=[69, 0]),
   midi.NoteOnEvent(tick=0, channel=1, data=[71, 79]),
   midi.NoteOnEvent(tick=480, channel=1, data=[71, 0]),
   midi.NoteOnEvent(tick=480, channel=1, data=[69, 79]),
   midi.NoteOnEvent(tick=60, channel=1, data=[69, 0]),
   midi.NoteOnEvent(tick=0, channel=1, data=[66, 79]),
   midi.NoteOnEvent(tick=60, channel=1, data=[66, 0]),
   midi.NoteOnEvent(tick=0, channel=1, data=[69, 79]),
   midi.NoteOnEvent(tick=60, channel=1, data=[69, 0]),
   midi.NoteOnEvent(tick=0, channel=1, data=[66, 79]),
   midi.NoteOnEvent(tick=120, channel=1, data=[66, 0]),
   midi.NoteOnEvent(tick=0, channel=1, data=[69, 79]),
   midi.NoteOnEvent(tick=60, channel=1, data=[69, 0]),
   midi.NoteOnEvent(tick=0, channel=1, data=[66, 79]),
   midi.NoteOnEvent(tick=60, channel=1, data=[66, 0]),
   midi.NoteOnEvent(tick=0, channel=1, data=[69, 79]),
   midi.NoteOnEvent(tick=60, channel=1, data=[69, 0]),
   midi.NoteOnEvent(tick=0, channel=1, data=[66, 79]),
   midi.NoteOnEvent(tick=60, channel=1, data=[66, 0]),
   midi.NoteOnEvent(tick=0, channel=1, data=[69, 79]),
   midi.NoteOnEvent(tick=60, channel=1, data=[69, 0]),
   midi.NoteOnEvent(tick=0, channel=1, data=[66, 79]),
   midi.NoteOnEvent(tick=60, channel=1, data=[66, 0]),
   midi.NoteOnEvent(tick=0, channel=1, data=[69, 79]),
   midi.NoteOnEvent(tick=60, channel=1, data=[69, 0]),
   midi.NoteOnEvent(tick=0, channel=1, data=[66, 79]),
   midi.NoteOnEvent(tick=120, channel=1, data=[66, 0]),
   midi.NoteOnEvent(tick=0, channel=1, data=[69, 79]),
   midi.NoteOnEvent(tick=60, channel=1, data=[69, 0]),
   midi.NoteOnEvent(tick=0, channel=1, data=[66, 79]),
   midi.NoteOnEvent(tick=60, channel=1, data=[66, 0]),
   midi.NoteOnEvent(tick=0, channel=1, data=[67, 79]),
   midi.NoteOnEvent(tick=480, channel=1, data=[67, 0]),
   midi.ControlChangeEvent(tick=1103, channel=1, data=[7, 46]),
   midi.NoteOnEvent(tick=2257, channel=1, data=[67, 79]),
   midi.NoteOnEvent(tick=480, channel=1, data=[67, 0]),
   midi.NoteOnEvent(tick=0, channel=1, data=[67, 79]),
   midi.NoteOnEvent(tick=480, channel=1, data=[67, 0]),
   midi.NoteOnEvent(tick=0, channel=1, data=[69, 79]),
   midi.NoteOnEvent(tick=240, channel=1, data=[69, 0]),
   midi.NoteOnEvent(tick=0, channel=1, data=[67, 79]),
   midi.NoteOnEvent(tick=240, channel=1, data=[67, 0]),
   midi.NoteOnEvent(tick=0, channel=1, data=[66, 79]),
   midi.NoteOnEvent(tick=240, channel=1, data=[66, 0]),
   midi.NoteOnEvent(tick=0, channel=1, data=[64, 79]),
   midi.NoteOnEvent(tick=240, channel=1, data=[64, 0]),
   midi.NoteOnEvent(tick=0, channel=1, data=[69, 79]),
   midi.NoteOnEvent(tick=480, channel=1, data=[69, 0]),
   midi.NoteOnEvent(tick=0, channel=1, data=[69, 79]),
   midi.NoteOnEvent(tick=480, channel=1, data=[69, 0]),
   midi.NoteOnEvent(tick=0, channel=1, data=[69, 79]),
   midi.NoteOnEvent(tick=960, channel=1, data=[69, 0]),
   midi.NoteOnEvent(tick=0, channel=1, data=[60, 79]),
   midi.NoteOnEvent(tick=480, channel=1, data=[60, 0]),
   midi.NoteOnEvent(tick=0, channel=1, data=[60, 79]),
   midi.NoteOnEvent(tick=480, channel=1, data=[60, 0]),
   midi.NoteOnEvent(tick=0, channel=1, data=[62, 79]),
   midi.NoteOnEvent(tick=240, channel=1, data=[62, 0]),
   midi.NoteOnEvent(tick=0, channel=1, data=[60, 79]),
   midi.NoteOnEvent(tick=240, channel=1, data=[60, 0]),
   midi.NoteOnEvent(tick=0, channel=1, data=[59, 79]),
   midi.NoteOnEvent(tick=240, channel=1, data=[59, 0]),
   midi.NoteOnEvent(tick=0, channel=1, data=[57, 79]),
   midi.NoteOnEvent(tick=240, channel=1, data=[57, 0]),
   midi.NoteOnEvent(tick=0, channel=1, data=[55, 79]),
   midi.NoteOnEvent(tick=480, channel=1, data=[55, 0]),
   midi.NoteOnEvent(tick=0, channel=1, data=[55, 79]),
   midi.NoteOnEvent(tick=480, channel=1, data=[55, 0]),
   midi.NoteOnEvent(tick=0, channel=1, data=[55, 79]),
   midi.ControlChangeEvent(tick=96, channel=1, data=[7, 96]),
   midi.NoteOnEvent(tick=864, channel=1, data=[55, 0]),
   midi.NoteOnEvent(tick=0, channel=1, data=[72, 79]),
   midi.NoteOnEvent(tick=240, channel=1, data=[72, 0]),
   midi.NoteOnEvent(tick=0, channel=1, data=[71, 79]),
   midi.NoteOnEvent(tick=240, channel=1, data=[71, 0]),
   midi.NoteOnEvent(tick=0, channel=1, data=[72, 79]),
   midi.NoteOnEvent(tick=240, channel=1, data=[72, 0]),
   midi.NoteOnEvent(tick=0, channel=1, data=[69, 79]),
   midi.NoteOnEvent(tick=240, channel=1, data=[69, 0]),
   midi.NoteOnEvent(tick=0, channel=1, data=[71, 79]),
   midi.NoteOnEvent(tick=240, channel=1, data=[71, 0]),
   midi.NoteOnEvent(tick=0, channel=1, data=[69, 79]),
   midi.ControlChangeEvent(tick=56, channel=1, data=[7, 96]),
   midi.NoteOnEvent(tick=184, channel=1, data=[69, 0]),
   midi.NoteOnEvent(tick=0, channel=1, data=[71, 79]),
   midi.NoteOnEvent(tick=240, channel=1, data=[71, 0]),
   midi.NoteOnEvent(tick=0, channel=1, data=[66, 79]),
   midi.NoteOnEvent(tick=240, channel=1, data=[66, 0]),
   midi.NoteOnEvent(tick=0, channel=1, data=[67, 79]),
   midi.NoteOnEvent(tick=240, channel=1, data=[67, 0]),
   midi.NoteOnEvent(tick=0, channel=1, data=[66, 79]),
   midi.NoteOnEvent(tick=240, channel=1, data=[66, 0]),
   midi.NoteOnEvent(tick=0, channel=1, data=[67, 79]),
   midi.NoteOnEvent(tick=240, channel=1, data=[67, 0]),
   midi.NoteOnEvent(tick=0, channel=1, data=[69, 79]),
   midi.NoteOnEvent(tick=240, channel=1, data=[69, 0]),
   midi.NoteOnEvent(tick=0, channel=1, data=[71, 79]),
   midi.NoteOnEvent(tick=480, channel=1, data=[71, 0]),
   midi.ControlChangeEvent(tick=16, channel=1, data=[7, 97]),
   midi.ControlChangeEvent(tick=2120, channel=1, data=[7, 98]),
   midi.ControlChangeEvent(tick=2120, channel=1, data=[7, 99]),
   midi.NoteOnEvent(tick=64, channel=1, data=[64, 79]),
   midi.NoteOnEvent(tick=240, channel=1, data=[64, 0]),
   midi.NoteOnEvent(tick=0, channel=1, data=[62, 79]),
   midi.NoteOnEvent(tick=240, channel=1, data=[62, 0]),
   midi.NoteOnEvent(tick=0, channel=1, data=[64, 79]),
   midi.NoteOnEvent(tick=240, channel=1, data=[64, 0]),
   midi.NoteOnEvent(tick=0, channel=1, data=[66, 79]),
   midi.NoteOnEvent(tick=240, channel=1, data=[66, 0]),
   midi.NoteOnEvent(tick=0, channel=1, data=[67, 79]),
   midi.NoteOnEvent(tick=240, channel=1, data=[67, 0]),
   midi.NoteOnEvent(tick=0, channel=1, data=[66, 79]),
   midi.NoteOnEvent(tick=240, channel=1, data=[66, 0]),
   midi.NoteOnEvent(tick=0, channel=1, data=[67, 79]),
   midi.NoteOnEvent(tick=240, channel=1, data=[67, 0]),
   midi.NoteOnEvent(tick=0, channel=1, data=[69, 79]),
   midi.NoteOnEvent(tick=240, channel=1, data=[69, 0]),
   midi.NoteOnEvent(tick=0, channel=1, data=[71, 79]),
   midi.ControlChangeEvent(tick=136, channel=1, data=[7, 100]),
   midi.NoteOnEvent(tick=104, channel=1, data=[71, 0]),
   midi.NoteOnEvent(tick=0, channel=1, data=[69, 79]),
   midi.NoteOnEvent(tick=240, channel=1, data=[69, 0]),
   midi.NoteOnEvent(tick=0, channel=1, data=[71, 79]),
   midi.NoteOnEvent(tick=240, channel=1, data=[71, 0]),
   midi.NoteOnEvent(tick=0, channel=1, data=[72, 79]),
   midi.NoteOnEvent(tick=240, channel=1, data=[72, 0]),
   midi.NoteOnEvent(tick=0, channel=1, data=[74, 79]),
   midi.NoteOnEvent(tick=480, channel=1, data=[74, 0]),
   midi.ControlChangeEvent(tick=815, channel=1, data=[7, 102]),
   midi.ControlChangeEvent(tick=577, channel=1, data=[7, 48]),
   midi.NoteOnEvent(tick=48, channel=1, data=[68, 36]),
   midi.NoteOnEvent(tick=4, channel=1, data=[66, 58]),
   midi.ControlChangeEvent(tick=11, channel=1, data=[7, 80]),
   midi.ControlChangeEvent(tick=103, channel=1, data=[7, 79]),
   midi.NoteOnEvent(tick=2, channel=1, data=[68, 0]),
   midi.NoteOnEvent(tick=0, channel=1, data=[66, 36]),
   midi.ControlChangeEvent(tick=101, channel=1, data=[7, 78]),
   midi.NoteOnEvent(tick=19, channel=1, data=[66, 0]),
   midi.NoteOnEvent(tick=0, channel=1, data=[68, 36]),
   midi.ControlChangeEvent(tick=84, channel=1, data=[7, 77]),
   midi.NoteOnEvent(tick=36, channel=1, data=[68, 0]),
   midi.NoteOnEvent(tick=0, channel=1, data=[66, 36]),
   midi.ControlChangeEvent(tick=68, channel=1, data=[7, 76]),
   midi.NoteOnEvent(tick=52, channel=1, data=[66, 0]),
   midi.NoteOnEvent(tick=0, channel=1, data=[68, 36]),
   midi.ControlChangeEvent(tick=51, channel=1, data=[7, 75]),
   midi.NoteOnEvent(tick=69, channel=1, data=[68, 0]),
   midi.NoteOnEvent(tick=0, channel=1, data=[66, 36]),
   midi.ControlChangeEvent(tick=34, channel=1, data=[7, 74]),
   midi.NoteOnEvent(tick=86, channel=1, data=[66, 0]),
   midi.NoteOnEvent(tick=0, channel=1, data=[68, 36]),
   midi.ControlChangeEvent(tick=17, channel=1, data=[7, 73]),
   midi.NoteOnEvent(tick=103, channel=1, data=[68, 0]),
   midi.NoteOnEvent(tick=0, channel=1, data=[66, 36]),
   midi.ControlChangeEvent(tick=1, channel=1, data=[7, 72]),
   midi.ControlChangeEvent(tick=103, channel=1, data=[7, 71]),
   midi.NoteOnEvent(tick=16, channel=1, data=[66, 0]),
   midi.NoteOnEvent(tick=0, channel=1, data=[68, 36]),
   midi.ControlChangeEvent(tick=87, channel=1, data=[7, 70]),
   midi.NoteOnEvent(tick=33, channel=1, data=[68, 0]),
   midi.NoteOnEvent(tick=0, channel=1, data=[66, 36]),
   midi.ControlChangeEvent(tick=70, channel=1, data=[7, 69]),
   midi.NoteOnEvent(tick=50, channel=1, data=[66, 0]),
   midi.NoteOnEvent(tick=0, channel=1, data=[68, 36]),
   midi.ControlChangeEvent(tick=54, channel=1, data=[7, 68]),
   midi.NoteOnEvent(tick=66, channel=1, data=[68, 0]),
   midi.NoteOnEvent(tick=0, channel=1, data=[66, 36]),
   midi.ControlChangeEvent(tick=37, channel=1, data=[7, 67]),
   midi.NoteOnEvent(tick=83, channel=1, data=[66, 0]),
   midi.NoteOnEvent(tick=0, channel=1, data=[68, 36]),
   midi.ControlChangeEvent(tick=20, channel=1, data=[7, 66]),
   midi.NoteOnEvent(tick=100, channel=1, data=[68, 0]),
   midi.NoteOnEvent(tick=0, channel=1, data=[66, 36]),
   midi.ControlChangeEvent(tick=3, channel=1, data=[7, 65]),
   midi.ControlChangeEvent(tick=104, channel=1, data=[7, 64]),
   midi.NoteOnEvent(tick=13, channel=1, data=[66, 0]),
   midi.NoteOnEvent(tick=0, channel=1, data=[68, 36]),
   midi.ControlChangeEvent(tick=90, channel=1, data=[7, 63]),
   midi.NoteOnEvent(tick=30, channel=1, data=[68, 0]),
   midi.NoteOnEvent(tick=0, channel=1, data=[66, 36]),
   midi.ControlChangeEvent(tick=73, channel=1, data=[7, 62]),
   midi.NoteOnEvent(tick=47, channel=1, data=[66, 0]),
   midi.NoteOnEvent(tick=4, channel=1, data=[66, 0]),
   midi.NoteOnEvent(tick=16, channel=1, data=[67, 58]),
   midi.ControlChangeEvent(tick=36, channel=1, data=[7, 61]),
   midi.ControlChangeEvent(tick=104, channel=1, data=[7, 60]),
   midi.NoteOnEvent(tick=100, channel=1, data=[67, 0]),
   midi.ControlChangeEvent(tick=3, channel=1, data=[7, 59]),
   midi.ControlChangeEvent(tick=103, channel=1, data=[7, 58]),
   midi.ControlChangeEvent(tick=103, channel=1, data=[7, 57]),
   midi.ControlChangeEvent(tick=104, channel=1, data=[7, 56]),
   midi.ControlChangeEvent(tick=103, channel=1, data=[7, 55]),
   midi.ControlChangeEvent(tick=103, channel=1, data=[7, 54]),
   midi.ControlChangeEvent(tick=103, channel=1, data=[7, 53]),
   midi.ControlChangeEvent(tick=104, channel=1, data=[7, 52]),
   midi.ControlChangeEvent(tick=103, channel=1, data=[7, 51]),
   midi.ControlChangeEvent(tick=103, channel=1, data=[7, 50]),
   midi.ControlChangeEvent(tick=103, channel=1, data=[7, 49]),
   midi.ControlChangeEvent(tick=103, channel=1, data=[7, 48]),
   midi.EndOfTrackEvent(tick=0, data=[])]),
 midi.Track(\
  [midi.PortEvent(tick=0, data=[0]),
   midi.TrackNameEvent(tick=0, text='Viola', data=[86, 105, 111, 108, 97]),
   midi.ProgramChangeEvent(tick=0, channel=2, data=[41]),
   midi.ControlChangeEvent(tick=0, channel=2, data=[7, 95]),
   midi.ControlChangeEvent(tick=0, channel=2, data=[10, 74]),
   midi.NoteOnEvent(tick=0, channel=2, data=[59, 36]),
   midi.ControlChangeEvent(tick=48, channel=2, data=[7, 64]),
   midi.NoteOnEvent(tick=192, channel=2, data=[59, 0]),
   midi.NoteOnEvent(tick=0, channel=2, data=[59, 36]),
   midi.NoteOnEvent(tick=240, channel=2, data=[59, 0]),
   midi.NoteOnEvent(tick=0, channel=2, data=[59, 36]),
   midi.NoteOnEvent(tick=240, channel=2, data=[59, 0]),
   midi.NoteOnEvent(tick=0, channel=2, data=[59, 36]),
   midi.NoteOnEvent(tick=240, channel=2, data=[59, 0]),
   midi.NoteOnEvent(tick=0, channel=2, data=[59, 36]),
   midi.NoteOnEvent(tick=240, channel=2, data=[59, 0]),
   midi.NoteOnEvent(tick=0, channel=2, data=[59, 36]),
   midi.NoteOnEvent(tick=240, channel=2, data=[59, 0]),
   midi.NoteOnEvent(tick=0, channel=2, data=[60, 36]),
   midi.NoteOnEvent(tick=240, channel=2, data=[60, 0]),
   midi.NoteOnEvent(tick=0, channel=2, data=[60, 36]),
   midi.NoteOnEvent(tick=240, channel=2, data=[60, 0]),
   midi.NoteOnEvent(tick=0, channel=2, data=[60, 36]),
   midi.NoteOnEvent(tick=240, channel=2, data=[60, 0]),
   midi.NoteOnEvent(tick=0, channel=2, data=[60, 36]),
   midi.NoteOnEvent(tick=240, channel=2, data=[60, 0]),
   midi.NoteOnEvent(tick=0, channel=2, data=[60, 36]),
   midi.NoteOnEvent(tick=240, channel=2, data=[60, 0]),
   midi.NoteOnEvent(tick=0, channel=2, data=[59, 36]),
   midi.NoteOnEvent(tick=240, channel=2, data=[59, 0]),
   midi.NoteOnEvent(tick=0, channel=2, data=[57, 36]),
   midi.NoteOnEvent(tick=240, channel=2, data=[57, 0]),
   midi.NoteOnEvent(tick=0, channel=2, data=[57, 36]),
   midi.NoteOnEvent(tick=240, channel=2, data=[57, 0]),
   midi.NoteOnEvent(tick=0, channel=2, data=[57, 36]),
   midi.NoteOnEvent(tick=240, channel=2, data=[57, 0]),
   midi.NoteOnEvent(tick=0, channel=2, data=[57, 36]),
   midi.NoteOnEvent(tick=240, channel=2, data=[57, 0]),
   midi.NoteOnEvent(tick=0, channel=2, data=[57, 36]),
   midi.NoteOnEvent(tick=240, channel=2, data=[57, 0]),
   midi.NoteOnEvent(tick=0, channel=2, data=[57, 36]),
   midi.NoteOnEvent(tick=240, channel=2, data=[57, 0]),
   midi.NoteOnEvent(tick=0, channel=2, data=[59, 36]),
   midi.NoteOnEvent(tick=240, channel=2, data=[59, 0]),
   midi.NoteOnEvent(tick=0, channel=2, data=[55, 36]),
   midi.NoteOnEvent(tick=240, channel=2, data=[55, 0]),
   midi.NoteOnEvent(tick=0, channel=2, data=[55, 36]),
   midi.NoteOnEvent(tick=480, channel=2, data=[55, 0]),
   midi.NoteOnEvent(tick=1920, channel=2, data=[67, 36]),
   midi.NoteOnEvent(tick=240, channel=2, data=[67, 0]),
   midi.NoteOnEvent(tick=0, channel=2, data=[55, 36]),
   midi.NoteOnEvent(tick=480, channel=2, data=[55, 0]),
   midi.NoteOnEvent(tick=0, channel=2, data=[55, 36]),
   midi.NoteOnEvent(tick=240, channel=2, data=[55, 0]),
   midi.NoteOnEvent(tick=120, channel=2, data=[59, 36]),
   midi.NoteOnEvent(tick=120, channel=2, data=[59, 0]),
   midi.NoteOnEvent(tick=0, channel=2, data=[60, 36]),
   midi.NoteOnEvent(tick=120, channel=2, data=[60, 0]),
   midi.NoteOnEvent(tick=0, channel=2, data=[62, 36]),
   midi.NoteOnEvent(tick=120, channel=2, data=[62, 0]),
   midi.NoteOnEvent(tick=0, channel=2, data=[64, 36]),
   midi.NoteOnEvent(tick=240, channel=2, data=[64, 0]),
   midi.NoteOnEvent(tick=0, channel=2, data=[64, 36]),
   midi.NoteOnEvent(tick=240, channel=2, data=[64, 0]),
   midi.NoteOnEvent(tick=0, channel=2, data=[64, 36]),
   midi.NoteOnEvent(tick=240, channel=2, data=[64, 0]),
   midi.NoteOnEvent(tick=0, channel=2, data=[64, 36]),
   midi.NoteOnEvent(tick=240, channel=2, data=[64, 0]),
   midi.NoteOnEvent(tick=0, channel=2, data=[64, 36]),
   midi.NoteOnEvent(tick=240, channel=2, data=[64, 0]),
   midi.NoteOnEvent(tick=0, channel=2, data=[64, 36]),
   midi.NoteOnEvent(tick=240, channel=2, data=[64, 0]),
   midi.NoteOnEvent(tick=0, channel=2, data=[62, 36]),
   midi.NoteOnEvent(tick=480, channel=2, data=[62, 0]),
   midi.NoteOnEvent(tick=960, channel=2, data=[66, 36]),
   midi.NoteOnEvent(tick=240, channel=2, data=[66, 0]),
   midi.NoteOnEvent(tick=0, channel=2, data=[66, 36]),
   midi.NoteOnEvent(tick=240, channel=2, data=[66, 0]),
   midi.NoteOnEvent(tick=0, channel=2, data=[66, 36]),
   midi.NoteOnEvent(tick=240, channel=2, data=[66, 0]),
   midi.NoteOnEvent(tick=0, channel=2, data=[66, 36]),
   midi.NoteOnEvent(tick=240, channel=2, data=[66, 0]),
   midi.NoteOnEvent(tick=0, channel=2, data=[66, 36]),
   midi.NoteOnEvent(tick=240, channel=2, data=[66, 0]),
   midi.NoteOnEvent(tick=0, channel=2, data=[66, 36]),
   midi.NoteOnEvent(tick=240, channel=2, data=[66, 0]),
   midi.NoteOnEvent(tick=0, channel=2, data=[64, 36]),
   midi.NoteOnEvent(tick=240, channel=2, data=[64, 0]),
   midi.NoteOnEvent(tick=0, channel=2, data=[64, 36]),
   midi.NoteOnEvent(tick=240, channel=2, data=[64, 0]),
   midi.NoteOnEvent(tick=0, channel=2, data=[64, 36]),
   midi.NoteOnEvent(tick=240, channel=2, data=[64, 0]),
   midi.NoteOnEvent(tick=0, channel=2, data=[64, 36]),
   midi.NoteOnEvent(tick=240, channel=2, data=[64, 0]),
   midi.NoteOnEvent(tick=0, channel=2, data=[64, 36]),
   midi.NoteOnEvent(tick=240, channel=2, data=[64, 0]),
   midi.NoteOnEvent(tick=0, channel=2, data=[64, 36]),
   midi.NoteOnEvent(tick=240, channel=2, data=[64, 0]),
   midi.NoteOnEvent(tick=0, channel=2, data=[62, 36]),
   midi.NoteOnEvent(tick=480, channel=2, data=[62, 0]),
   midi.ControlChangeEvent(tick=2192, channel=2, data=[7, 63]),
   midi.NoteOnEvent(tick=208, channel=2, data=[64, 36]),
   midi.NoteOnEvent(tick=240, channel=2, data=[64, 0]),
   midi.NoteOnEvent(tick=0, channel=2, data=[64, 36]),
   midi.NoteOnEvent(tick=480, channel=2, data=[64, 0]),
   midi.NoteOnEvent(tick=0, channel=2, data=[64, 36]),
   midi.NoteOnEvent(tick=480, channel=2, data=[64, 0]),
   midi.NoteOnEvent(tick=0, channel=2, data=[64, 36]),
   midi.NoteOnEvent(tick=240, channel=2, data=[64, 0]),
   midi.NoteOnEvent(tick=0, channel=2, data=[64, 36]),
   midi.NoteOnEvent(tick=120, channel=2, data=[64, 0]),
   midi.NoteOnEvent(tick=0, channel=2, data=[62, 36]),
   midi.NoteOnEvent(tick=120, channel=2, data=[62, 0]),
   midi.NoteOnEvent(tick=0, channel=2, data=[61, 36]),
   midi.NoteOnEvent(tick=120, channel=2, data=[61, 0]),
   midi.NoteOnEvent(tick=0, channel=2, data=[62, 36]),
   midi.NoteOnEvent(tick=120, channel=2, data=[62, 0]),
   midi.NoteOnEvent(tick=0, channel=2, data=[61, 36]),
   midi.NoteOnEvent(tick=240, channel=2, data=[61, 0]),
   midi.NoteOnEvent(tick=0, channel=2, data=[71, 36]),
   midi.NoteOnEvent(tick=240, channel=2, data=[71, 0]),
   midi.NoteOnEvent(tick=0, channel=2, data=[69, 36]),
   midi.NoteOnEvent(tick=240, channel=2, data=[69, 0]),
   midi.NoteOnEvent(tick=0, channel=2, data=[61, 36]),
   midi.NoteOnEvent(tick=240, channel=2, data=[61, 0]),
   midi.NoteOnEvent(tick=0, channel=2, data=[62, 36]),
   midi.NoteOnEvent(tick=120, channel=2, data=[62, 0]),
   midi.NoteOnEvent(tick=0, channel=2, data=[61, 36]),
   midi.NoteOnEvent(tick=120, channel=2, data=[61, 0]),
   midi.NoteOnEvent(tick=0, channel=2, data=[62, 36]),
   midi.NoteOnEvent(tick=120, channel=2, data=[62, 0]),
   midi.NoteOnEvent(tick=0, channel=2, data=[64, 36]),
   midi.NoteOnEvent(tick=120, channel=2, data=[64, 0]),
   midi.NoteOnEvent(tick=0, channel=2, data=[66, 36]),
   midi.NoteOnEvent(tick=240, channel=2, data=[66, 0]),
   midi.NoteOnEvent(tick=0, channel=2, data=[66, 36]),
   midi.NoteOnEvent(tick=240, channel=2, data=[66, 0]),
   midi.NoteOnEvent(tick=0, channel=2, data=[66, 36]),
   midi.NoteOnEvent(tick=240, channel=2, data=[66, 0]),
   midi.NoteOnEvent(tick=0, channel=2, data=[66, 36]),
   midi.NoteOnEvent(tick=240, channel=2, data=[66, 0]),
   midi.NoteOnEvent(tick=0, channel=2, data=[67, 36]),
   midi.NoteOnEvent(tick=120, channel=2, data=[67, 0]),
   midi.NoteOnEvent(tick=0, channel=2, data=[64, 36]),
   midi.NoteOnEvent(tick=120, channel=2, data=[64, 0]),
   midi.NoteOnEvent(tick=0, channel=2, data=[66, 36]),
   midi.NoteOnEvent(tick=120, channel=2, data=[66, 0]),
   midi.NoteOnEvent(tick=0, channel=2, data=[62, 36]),
   midi.NoteOnEvent(tick=120, channel=2, data=[62, 0]),
   midi.NoteOnEvent(tick=0, channel=2, data=[61, 36]),
   midi.NoteOnEvent(tick=240, channel=2, data=[61, 0]),
   midi.NoteOnEvent(tick=0, channel=2, data=[64, 36]),
   midi.NoteOnEvent(tick=120, channel=2, data=[64, 0]),
   midi.NoteOnEvent(tick=0, channel=2, data=[62, 36]),
   midi.NoteOnEvent(tick=120, channel=2, data=[62, 0]),
   midi.NoteOnEvent(tick=0, channel=2, data=[57, 36]),
   midi.NoteOnEvent(tick=120, channel=2, data=[57, 0]),
   midi.NoteOnEvent(tick=0, channel=2, data=[71, 36]),
   midi.NoteOnEvent(tick=120, channel=2, data=[71, 0]),
   midi.NoteOnEvent(tick=0, channel=2, data=[69, 36]),
   midi.NoteOnEvent(tick=120, channel=2, data=[69, 0]),
   midi.NoteOnEvent(tick=0, channel=2, data=[61, 36]),
   midi.NoteOnEvent(tick=120, channel=2, data=[61, 0]),
   midi.NoteOnEvent(tick=0, channel=2, data=[62, 36]),
   midi.NoteOnEvent(tick=120, channel=2, data=[62, 0]),
   midi.NoteOnEvent(tick=0, channel=2, data=[61, 36]),
   midi.NoteOnEvent(tick=120, channel=2, data=[61, 0]),
   midi.NoteOnEvent(tick=0, channel=2, data=[62, 36]),
   midi.NoteOnEvent(tick=120, channel=2, data=[62, 0]),
   midi.NoteOnEvent(tick=0, channel=2, data=[64, 36]),
   midi.NoteOnEvent(tick=120, channel=2, data=[64, 0]),
   midi.NoteOnEvent(tick=0, channel=2, data=[66, 36]),
   midi.NoteOnEvent(tick=240, channel=2, data=[66, 0]),
   midi.NoteOnEvent(tick=0, channel=2, data=[66, 36]),
   midi.NoteOnEvent(tick=240, channel=2, data=[66, 0]),
   midi.NoteOnEvent(tick=0, channel=2, data=[66, 36]),
   midi.NoteOnEvent(tick=240, channel=2, data=[66, 0]),
   midi.NoteOnEvent(tick=0, channel=2, data=[66, 36]),
   midi.NoteOnEvent(tick=240, channel=2, data=[66, 0]),
   midi.NoteOnEvent(tick=0, channel=2, data=[67, 36]),
   midi.NoteOnEvent(tick=120, channel=2, data=[67, 0]),
   midi.NoteOnEvent(tick=0, channel=2, data=[64, 36]),
   midi.NoteOnEvent(tick=120, channel=2, data=[64, 0]),
   midi.NoteOnEvent(tick=0, channel=2, data=[66, 36]),
   midi.NoteOnEvent(tick=120, channel=2, data=[66, 0]),
   midi.NoteOnEvent(tick=0, channel=2, data=[62, 36]),
   midi.NoteOnEvent(tick=120, channel=2, data=[62, 0]),
   midi.NoteOnEvent(tick=0, channel=2, data=[61, 36]),
   midi.NoteOnEvent(tick=240, channel=2, data=[61, 0]),
   midi.NoteOnEvent(tick=0, channel=2, data=[64, 36]),
   midi.NoteOnEvent(tick=120, channel=2, data=[64, 0]),
   midi.NoteOnEvent(tick=0, channel=2, data=[61, 36]),
   midi.NoteOnEvent(tick=120, channel=2, data=[61, 0]),
   midi.NoteOnEvent(tick=0, channel=2, data=[57, 36]),
   midi.NoteOnEvent(tick=120, channel=2, data=[57, 0]),
   midi.NoteOnEvent(tick=0, channel=2, data=[71, 36]),
   midi.NoteOnEvent(tick=120, channel=2, data=[71, 0]),
   midi.NoteOnEvent(tick=0, channel=2, data=[69, 36]),
   midi.NoteOnEvent(tick=120, channel=2, data=[69, 0]),
   midi.NoteOnEvent(tick=0, channel=2, data=[61, 36]),
   midi.NoteOnEvent(tick=120, channel=2, data=[61, 0]),
   midi.NoteOnEvent(tick=0, channel=2, data=[62, 36]),
   midi.NoteOnEvent(tick=240, channel=2, data=[62, 0]),
   midi.NoteOnEvent(tick=0, channel=2, data=[62, 36]),
   midi.NoteOnEvent(tick=240, channel=2, data=[62, 0]),
   midi.NoteOnEvent(tick=0, channel=2, data=[62, 36]),
   midi.NoteOnEvent(tick=240, channel=2, data=[62, 0]),
   midi.NoteOnEvent(tick=0, channel=2, data=[62, 36]),
   midi.NoteOnEvent(tick=240, channel=2, data=[62, 0]),
   midi.NoteOnEvent(tick=0, channel=2, data=[62, 36]),
   midi.NoteOnEvent(tick=240, channel=2, data=[62, 0]),
   midi.NoteOnEvent(tick=0, channel=2, data=[62, 36]),
   midi.NoteOnEvent(tick=240, channel=2, data=[62, 0]),
   midi.NoteOnEvent(tick=0, channel=2, data=[62, 36]),
   midi.NoteOnEvent(tick=240, channel=2, data=[62, 0]),
   midi.NoteOnEvent(tick=960, channel=2, data=[67, 36]),
   midi.NoteOnEvent(tick=240, channel=2, data=[67, 0]),
   midi.NoteOnEvent(tick=0, channel=2, data=[69, 36]),
   midi.NoteOnEvent(tick=240, channel=2, data=[69, 0]),
   midi.NoteOnEvent(tick=0, channel=2, data=[69, 36]),
   midi.NoteOnEvent(tick=240, channel=2, data=[69, 0]),
   midi.NoteOnEvent(tick=0, channel=2, data=[69, 36]),
   midi.NoteOnEvent(tick=240, channel=2, data=[69, 0]),
   midi.NoteOnEvent(tick=0, channel=2, data=[69, 36]),
   midi.NoteOnEvent(tick=240, channel=2, data=[69, 0]),
   midi.NoteOnEvent(tick=0, channel=2, data=[69, 36]),
   midi.NoteOnEvent(tick=240, channel=2, data=[69, 0]),
   midi.NoteOnEvent(tick=0, channel=2, data=[69, 36]),
   midi.NoteOnEvent(tick=240, channel=2, data=[69, 0]),
   midi.NoteOnEvent(tick=0, channel=2, data=[66, 36]),
   midi.NoteOnEvent(tick=480, channel=2, data=[66, 0]),
   midi.NoteOnEvent(tick=120, channel=2, data=[66, 36]),
   midi.NoteOnEvent(tick=120, channel=2, data=[66, 0]),
   midi.NoteOnEvent(tick=0, channel=2, data=[64, 36]),
   midi.NoteOnEvent(tick=120, channel=2, data=[64, 0]),
   midi.NoteOnEvent(tick=0, channel=2, data=[66, 36]),
   midi.NoteOnEvent(tick=120, channel=2, data=[66, 0]),
   midi.NoteOnEvent(tick=0, channel=2, data=[67, 36]),
   midi.NoteOnEvent(tick=120, channel=2, data=[67, 0]),
   midi.NoteOnEvent(tick=0, channel=2, data=[66, 36]),
   midi.NoteOnEvent(tick=120, channel=2, data=[66, 0]),
   midi.NoteOnEvent(tick=0, channel=2, data=[64, 36]),
   midi.NoteOnEvent(tick=120, channel=2, data=[64, 0]),
   midi.NoteOnEvent(tick=0, channel=2, data=[66, 36]),
   midi.NoteOnEvent(tick=120, channel=2, data=[66, 0]),
   midi.NoteOnEvent(tick=0, channel=2, data=[66, 36]),
   midi.NoteOnEvent(tick=480, channel=2, data=[66, 0]),
   midi.NoteOnEvent(tick=120, channel=2, data=[62, 36]),
   midi.NoteOnEvent(tick=120, channel=2, data=[62, 0]),
   midi.NoteOnEvent(tick=0, channel=2, data=[61, 36]),
   midi.NoteOnEvent(tick=120, channel=2, data=[61, 0]),
   midi.NoteOnEvent(tick=0, channel=2, data=[62, 36]),
   midi.NoteOnEvent(tick=120, channel=2, data=[62, 0]),
   midi.NoteOnEvent(tick=0, channel=2, data=[64, 36]),
   midi.NoteOnEvent(tick=120, channel=2, data=[64, 0]),
   midi.NoteOnEvent(tick=0, channel=2, data=[62, 36]),
   midi.NoteOnEvent(tick=120, channel=2, data=[62, 0]),
   midi.NoteOnEvent(tick=0, channel=2, data=[61, 36]),
   midi.NoteOnEvent(tick=120, channel=2, data=[61, 0]),
   midi.NoteOnEvent(tick=0, channel=2, data=[62, 36]),
   midi.NoteOnEvent(tick=120, channel=2, data=[62, 0]),
   midi.NoteOnEvent(tick=0, channel=2, data=[62, 36]),
   midi.NoteOnEvent(tick=240, channel=2, data=[62, 0]),
   midi.NoteOnEvent(tick=0, channel=2, data=[64, 36]),
   midi.NoteOnEvent(tick=40, channel=2, data=[64, 0]),
   midi.NoteOnEvent(tick=0, channel=2, data=[66, 36]),
   midi.NoteOnEvent(tick=40, channel=2, data=[66, 0]),
   midi.NoteOnEvent(tick=0, channel=2, data=[67, 36]),
   midi.NoteOnEvent(tick=40, channel=2, data=[67, 0]),
   midi.NoteOnEvent(tick=0, channel=2, data=[69, 36]),
   midi.NoteOnEvent(tick=40, channel=2, data=[69, 0]),
   midi.NoteOnEvent(tick=0, channel=2, data=[71, 36]),
   midi.NoteOnEvent(tick=40, channel=2, data=[71, 0]),
   midi.NoteOnEvent(tick=0, channel=2, data=[73, 36]),
   midi.NoteOnEvent(tick=40, channel=2, data=[73, 0]),
   midi.NoteOnEvent(tick=0, channel=2, data=[74, 36]),
   midi.NoteOnEvent(tick=240, channel=2, data=[74, 0]),
   midi.NoteOnEvent(tick=0, channel=2, data=[62, 36]),
   midi.NoteOnEvent(tick=240, channel=2, data=[62, 0]),
   midi.NoteOnEvent(tick=0, channel=2, data=[62, 36]),
   midi.ControlChangeEvent(tick=16, channel=2, data=[7, 62]),
   midi.NoteOnEvent(tick=224, channel=2, data=[62, 0]),
   midi.NoteOnEvent(tick=0, channel=2, data=[62, 36]),
   midi.NoteOnEvent(tick=240, channel=2, data=[62, 0]),
   midi.NoteOnEvent(tick=0, channel=2, data=[62, 36]),
   midi.NoteOnEvent(tick=240, channel=2, data=[62, 0]),
   midi.NoteOnEvent(tick=0, channel=2, data=[59, 36]),
   midi.NoteOnEvent(tick=240, channel=2, data=[59, 0]),
   midi.NoteOnEvent(tick=0, channel=2, data=[57, 36]),
   midi.NoteOnEvent(tick=240, channel=2, data=[57, 0]),
   midi.NoteOnEvent(tick=0, channel=2, data=[57, 36]),
   midi.NoteOnEvent(tick=240, channel=2, data=[57, 0]),
   midi.NoteOnEvent(tick=0, channel=2, data=[57, 36]),
   midi.NoteOnEvent(tick=240, channel=2, data=[57, 0]),
   midi.NoteOnEvent(tick=0, channel=2, data=[55, 36]),
   midi.NoteOnEvent(tick=240, channel=2, data=[55, 0]),
   midi.NoteOnEvent(tick=0, channel=2, data=[54, 36]),
   midi.NoteOnEvent(tick=180, channel=2, data=[54, 0]),
   midi.NoteOnEvent(tick=60, channel=2, data=[66, 36]),
   midi.NoteOnEvent(tick=240, channel=2, data=[66, 0]),
   midi.NoteOnEvent(tick=0, channel=2, data=[67, 36]),
   midi.NoteOnEvent(tick=240, channel=2, data=[67, 0]),
   midi.NoteOnEvent(tick=0, channel=2, data=[66, 36]),
   midi.NoteOnEvent(tick=240, channel=2, data=[66, 0]),
   midi.NoteOnEvent(tick=0, channel=2, data=[67, 36]),
   midi.NoteOnEvent(tick=240, channel=2, data=[67, 0]),
   midi.NoteOnEvent(tick=0, channel=2, data=[64, 36]),
   midi.NoteOnEvent(tick=240, channel=2, data=[64, 0]),
   midi.NoteOnEvent(tick=0, channel=2, data=[62, 36]),
   midi.NoteOnEvent(tick=960, channel=2, data=[62, 0]),
   midi.NoteOnEvent(tick=240, channel=2, data=[64, 36]),
   midi.NoteOnEvent(tick=240, channel=2, data=[64, 0]),
   midi.NoteOnEvent(tick=0, channel=2, data=[64, 36]),
   midi.NoteOnEvent(tick=960, channel=2, data=[64, 0]),
   midi.NoteOnEvent(tick=0, channel=2, data=[62, 36]),
   midi.NoteOnEvent(tick=240, channel=2, data=[62, 0]),
   midi.NoteOnEvent(tick=240, channel=2, data=[74, 36]),
   midi.NoteOnEvent(tick=1440, channel=2, data=[74, 0]),
   midi.NoteOnEvent(tick=0, channel=2, data=[74, 36]),
   midi.NoteOnEvent(tick=480, channel=2, data=[74, 0]),
   midi.NoteOnEvent(tick=0, channel=2, data=[73, 36]),
   midi.NoteOnEvent(tick=960, channel=2, data=[73, 0]),
   midi.NoteOnEvent(tick=0, channel=2, data=[72, 36]),
   midi.NoteOnEvent(tick=480, channel=2, data=[72, 0]),
   midi.NoteOnEvent(tick=0, channel=2, data=[71, 36]),
   midi.NoteOnEvent(tick=480, channel=2, data=[71, 0]),
   midi.NoteOnEvent(tick=0, channel=2, data=[72, 36]),
   midi.NoteOnEvent(tick=480, channel=2, data=[72, 0]),
   midi.NoteOnEvent(tick=0, channel=2, data=[71, 36]),
   midi.NoteOnEvent(tick=480, channel=2, data=[71, 0]),
   midi.NoteOnEvent(tick=240, channel=2, data=[62, 36]),
   midi.NoteOnEvent(tick=240, channel=2, data=[62, 0]),
   midi.NoteOnEvent(tick=0, channel=2, data=[64, 36]),
   midi.NoteOnEvent(tick=240, channel=2, data=[64, 0]),
   midi.NoteOnEvent(tick=0, channel=2, data=[64, 36]),
   midi.NoteOnEvent(tick=240, channel=2, data=[64, 0]),
   midi.NoteOnEvent(tick=0, channel=2, data=[62, 36]),
   midi.NoteOnEvent(tick=480, channel=2, data=[62, 0]),
   midi.NoteOnEvent(tick=960, channel=2, data=[71, 36]),
   midi.NoteOnEvent(tick=240, channel=2, data=[71, 0]),
   midi.NoteOnEvent(tick=0, channel=2, data=[71, 36]),
   midi.NoteOnEvent(tick=240, channel=2, data=[71, 0]),
   midi.NoteOnEvent(tick=0, channel=2, data=[71, 36]),
   midi.NoteOnEvent(tick=240, channel=2, data=[71, 0]),
   midi.NoteOnEvent(tick=0, channel=2, data=[71, 36]),
   midi.NoteOnEvent(tick=240, channel=2, data=[71, 0]),
   midi.NoteOnEvent(tick=0, channel=2, data=[71, 36]),
   midi.NoteOnEvent(tick=240, channel=2, data=[71, 0]),
   midi.NoteOnEvent(tick=0, channel=2, data=[71, 36]),
   midi.NoteOnEvent(tick=240, channel=2, data=[71, 0]),
   midi.NoteOnEvent(tick=0, channel=2, data=[64, 36]),
   midi.NoteOnEvent(tick=480, channel=2, data=[64, 0]),
   midi.NoteOnEvent(tick=80, channel=2, data=[57, 36]),
   midi.NoteOnEvent(tick=80, channel=2, data=[57, 0]),
   midi.NoteOnEvent(tick=0, channel=2, data=[60, 36]),
   midi.NoteOnEvent(tick=80, channel=2, data=[60, 0]),
   midi.NoteOnEvent(tick=0, channel=2, data=[64, 36]),
   midi.NoteOnEvent(tick=80, channel=2, data=[64, 0]),
   midi.NoteOnEvent(tick=0, channel=2, data=[60, 36]),
   midi.NoteOnEvent(tick=80, channel=2, data=[60, 0]),
   midi.NoteOnEvent(tick=0, channel=2, data=[64, 36]),
   midi.NoteOnEvent(tick=80, channel=2, data=[64, 0]),
   midi.NoteOnEvent(tick=0, channel=2, data=[69, 36]),
   midi.NoteOnEvent(tick=240, channel=2, data=[69, 0]),
   midi.NoteOnEvent(tick=0, channel=2, data=[64, 36]),
   midi.NoteOnEvent(tick=240, channel=2, data=[64, 0]),
   midi.NoteOnEvent(tick=0, channel=2, data=[66, 36]),
   midi.NoteOnEvent(tick=240, channel=2, data=[66, 0]),
   midi.NoteOnEvent(tick=0, channel=2, data=[66, 36]),
   midi.NoteOnEvent(tick=240, channel=2, data=[66, 0]),
   midi.NoteOnEvent(tick=0, channel=2, data=[66, 36]),
   midi.NoteOnEvent(tick=240, channel=2, data=[66, 0]),
   midi.ControlChangeEvent(tick=0, channel=2, data=[7, 61]),
   midi.NoteOnEvent(tick=0, channel=2, data=[66, 36]),
   midi.NoteOnEvent(tick=240, channel=2, data=[66, 0]),
   midi.NoteOnEvent(tick=0, channel=2, data=[66, 36]),
   midi.NoteOnEvent(tick=240, channel=2, data=[66, 0]),
   midi.NoteOnEvent(tick=0, channel=2, data=[66, 36]),
   midi.NoteOnEvent(tick=240, channel=2, data=[66, 0]),
   midi.NoteOnEvent(tick=0, channel=2, data=[67, 36]),
   midi.NoteOnEvent(tick=480, channel=2, data=[67, 0]),
   midi.NoteOnEvent(tick=80, channel=2, data=[55, 36]),
   midi.NoteOnEvent(tick=80, channel=2, data=[55, 0]),
   midi.NoteOnEvent(tick=0, channel=2, data=[59, 36]),
   midi.NoteOnEvent(tick=80, channel=2, data=[59, 0]),
   midi.NoteOnEvent(tick=0, channel=2, data=[62, 36]),
   midi.NoteOnEvent(tick=80, channel=2, data=[62, 0]),
   midi.NoteOnEvent(tick=0, channel=2, data=[59, 36]),
   midi.NoteOnEvent(tick=80, channel=2, data=[59, 0]),
   midi.NoteOnEvent(tick=0, channel=2, data=[62, 36]),
   midi.NoteOnEvent(tick=80, channel=2, data=[62, 0]),
   midi.NoteOnEvent(tick=0, channel=2, data=[67, 36]),
   midi.NoteOnEvent(tick=240, channel=2, data=[67, 0]),
   midi.NoteOnEvent(tick=0, channel=2, data=[62, 36]),
   midi.NoteOnEvent(tick=240, channel=2, data=[62, 0]),
   midi.NoteOnEvent(tick=0, channel=2, data=[60, 36]),
   midi.NoteOnEvent(tick=240, channel=2, data=[60, 0]),
   midi.NoteOnEvent(tick=0, channel=2, data=[60, 36]),
   midi.NoteOnEvent(tick=240, channel=2, data=[60, 0]),
   midi.NoteOnEvent(tick=0, channel=2, data=[60, 36]),
   midi.NoteOnEvent(tick=240, channel=2, data=[60, 0]),
   midi.NoteOnEvent(tick=0, channel=2, data=[64, 36]),
   midi.NoteOnEvent(tick=240, channel=2, data=[64, 0]),
   midi.NoteOnEvent(tick=0, channel=2, data=[64, 36]),
   midi.NoteOnEvent(tick=240, channel=2, data=[64, 0]),
   midi.NoteOnEvent(tick=0, channel=2, data=[64, 36]),
   midi.NoteOnEvent(tick=240, channel=2, data=[64, 0]),
   midi.NoteOnEvent(tick=0, channel=2, data=[57, 36]),
   midi.NoteOnEvent(tick=120, channel=2, data=[57, 0]),
   midi.NoteOnEvent(tick=0, channel=2, data=[55, 36]),
   midi.NoteOnEvent(tick=120, channel=2, data=[55, 0]),
   midi.NoteOnEvent(tick=0, channel=2, data=[54, 36]),
   midi.NoteOnEvent(tick=120, channel=2, data=[54, 0]),
   midi.NoteOnEvent(tick=0, channel=2, data=[55, 36]),
   midi.NoteOnEvent(tick=120, channel=2, data=[55, 0]),
   midi.NoteOnEvent(tick=0, channel=2, data=[54, 36]),
   midi.NoteOnEvent(tick=480, channel=2, data=[54, 0]),
   midi.NoteOnEvent(tick=480, channel=2, data=[59, 36]),
   midi.NoteOnEvent(tick=240, channel=2, data=[59, 0]),
   midi.NoteOnEvent(tick=0, channel=2, data=[59, 36]),
   midi.NoteOnEvent(tick=240, channel=2, data=[59, 0]),
   midi.NoteOnEvent(tick=0, channel=2, data=[59, 36]),
   midi.NoteOnEvent(tick=240, channel=2, data=[59, 0]),
   midi.NoteOnEvent(tick=0, channel=2, data=[59, 36]),
   midi.NoteOnEvent(tick=240, channel=2, data=[59, 0]),
   midi.NoteOnEvent(tick=0, channel=2, data=[59, 36]),
   midi.NoteOnEvent(tick=240, channel=2, data=[59, 0]),
   midi.NoteOnEvent(tick=0, channel=2, data=[59, 36]),
   midi.NoteOnEvent(tick=240, channel=2, data=[59, 0]),
   midi.NoteOnEvent(tick=0, channel=2, data=[60, 36]),
   midi.NoteOnEvent(tick=240, channel=2, data=[60, 0]),
   midi.NoteOnEvent(tick=0, channel=2, data=[60, 36]),
   midi.NoteOnEvent(tick=240, channel=2, data=[60, 0]),
   midi.NoteOnEvent(tick=0, channel=2, data=[60, 36]),
   midi.NoteOnEvent(tick=240, channel=2, data=[60, 0]),
   midi.NoteOnEvent(tick=0, channel=2, data=[60, 36]),
   midi.NoteOnEvent(tick=240, channel=2, data=[60, 0]),
   midi.NoteOnEvent(tick=0, channel=2, data=[60, 36]),
   midi.NoteOnEvent(tick=240, channel=2, data=[60, 0]),
   midi.NoteOnEvent(tick=0, channel=2, data=[59, 36]),
   midi.NoteOnEvent(tick=120, channel=2, data=[59, 0]),
   midi.NoteOnEvent(tick=0, channel=2, data=[60, 36]),
   midi.NoteOnEvent(tick=120, channel=2, data=[60, 0]),
   midi.NoteOnEvent(tick=0, channel=2, data=[62, 36]),
   midi.NoteOnEvent(tick=240, channel=2, data=[62, 0]),
   midi.NoteOnEvent(tick=0, channel=2, data=[62, 36]),
   midi.NoteOnEvent(tick=240, channel=2, data=[62, 0]),
   midi.NoteOnEvent(tick=0, channel=2, data=[57, 36]),
   midi.NoteOnEvent(tick=240, channel=2, data=[57, 0]),
   midi.NoteOnEvent(tick=0, channel=2, data=[57, 36]),
   midi.NoteOnEvent(tick=240, channel=2, data=[57, 0]),
   midi.NoteOnEvent(tick=0, channel=2, data=[57, 36]),
   midi.NoteOnEvent(tick=240, channel=2, data=[57, 0]),
   midi.NoteOnEvent(tick=0, channel=2, data=[57, 36]),
   midi.NoteOnEvent(tick=240, channel=2, data=[57, 0]),
   midi.NoteOnEvent(tick=0, channel=2, data=[59, 36]),
   midi.NoteOnEvent(tick=240, channel=2, data=[59, 0]),
   midi.NoteOnEvent(tick=0, channel=2, data=[57, 36]),
   midi.NoteOnEvent(tick=240, channel=2, data=[57, 0]),
   midi.NoteOnEvent(tick=0, channel=2, data=[55, 36]),
   midi.NoteOnEvent(tick=240, channel=2, data=[55, 0]),
   midi.NoteOnEvent(tick=0, channel=2, data=[67, 36]),
   midi.NoteOnEvent(tick=240, channel=2, data=[67, 0]),
   midi.NoteOnEvent(tick=0, channel=2, data=[66, 36]),
   midi.NoteOnEvent(tick=240, channel=2, data=[66, 0]),
   midi.NoteOnEvent(tick=0, channel=2, data=[67, 36]),
   midi.NoteOnEvent(tick=240, channel=2, data=[67, 0]),
   midi.NoteOnEvent(tick=0, channel=2, data=[67, 36]),
   midi.NoteOnEvent(tick=240, channel=2, data=[67, 0]),
   midi.NoteOnEvent(tick=0, channel=2, data=[67, 36]),
   midi.NoteOnEvent(tick=240, channel=2, data=[67, 0]),
   midi.NoteOnEvent(tick=0, channel=2, data=[67, 36]),
   midi.NoteOnEvent(tick=240, channel=2, data=[67, 0]),
   midi.NoteOnEvent(tick=0, channel=2, data=[67, 36]),
   midi.NoteOnEvent(tick=240, channel=2, data=[67, 0]),
   midi.NoteOnEvent(tick=0, channel=2, data=[67, 36]),
   midi.NoteOnEvent(tick=240, channel=2, data=[67, 0]),
   midi.NoteOnEvent(tick=0, channel=2, data=[67, 36]),
   midi.NoteOnEvent(tick=240, channel=2, data=[67, 0]),
   midi.NoteOnEvent(tick=0, channel=2, data=[67, 36]),
   midi.NoteOnEvent(tick=240, channel=2, data=[67, 0]),
   midi.NoteOnEvent(tick=0, channel=2, data=[67, 36]),
   midi.NoteOnEvent(tick=240, channel=2, data=[67, 0]),
   midi.NoteOnEvent(tick=0, channel=2, data=[55, 36]),
   midi.NoteOnEvent(tick=480, channel=2, data=[55, 0]),
   midi.NoteOnEvent(tick=720, channel=2, data=[62, 36]),
   midi.NoteOnEvent(tick=240, channel=2, data=[62, 0]),
   midi.NoteOnEvent(tick=0, channel=2, data=[64, 36]),
   midi.NoteOnEvent(tick=240, channel=2, data=[64, 0]),
   midi.NoteOnEvent(tick=0, channel=2, data=[64, 36]),
   midi.NoteOnEvent(tick=240, channel=2, data=[64, 0]),
   midi.NoteOnEvent(tick=0, channel=2, data=[64, 36]),
   midi.NoteOnEvent(tick=240, channel=2, data=[64, 0]),
   midi.NoteOnEvent(tick=0, channel=2, data=[64, 36]),
   midi.NoteOnEvent(tick=240, channel=2, data=[64, 0]),
   midi.NoteOnEvent(tick=0, channel=2, data=[62, 36]),
   midi.NoteOnEvent(tick=480, channel=2, data=[62, 0]),
   midi.NoteOnEvent(tick=960, channel=2, data=[71, 36]),
   midi.NoteOnEvent(tick=240, channel=2, data=[71, 0]),
   midi.NoteOnEvent(tick=0, channel=2, data=[71, 36]),
   midi.ControlChangeEvent(tick=224, channel=2, data=[7, 60]),
   midi.NoteOnEvent(tick=16, channel=2, data=[71, 0]),
   midi.NoteOnEvent(tick=0, channel=2, data=[71, 36]),
   midi.NoteOnEvent(tick=240, channel=2, data=[71, 0]),
   midi.NoteOnEvent(tick=0, channel=2, data=[71, 36]),
   midi.NoteOnEvent(tick=240, channel=2, data=[71, 0]),
   midi.NoteOnEvent(tick=0, channel=2, data=[71, 36]),
   midi.NoteOnEvent(tick=240, channel=2, data=[71, 0]),
   midi.NoteOnEvent(tick=0, channel=2, data=[71, 36]),
   midi.NoteOnEvent(tick=240, channel=2, data=[71, 0]),
   midi.NoteOnEvent(tick=0, channel=2, data=[69, 36]),
   midi.NoteOnEvent(tick=240, channel=2, data=[69, 0]),
   midi.NoteOnEvent(tick=0, channel=2, data=[69, 36]),
   midi.NoteOnEvent(tick=240, channel=2, data=[69, 0]),
   midi.NoteOnEvent(tick=0, channel=2, data=[69, 36]),
   midi.NoteOnEvent(tick=240, channel=2, data=[69, 0]),
   midi.NoteOnEvent(tick=0, channel=2, data=[69, 36]),
   midi.NoteOnEvent(tick=240, channel=2, data=[69, 0]),
   midi.NoteOnEvent(tick=0, channel=2, data=[69, 36]),
   midi.NoteOnEvent(tick=240, channel=2, data=[69, 0]),
   midi.NoteOnEvent(tick=0, channel=2, data=[69, 36]),
   midi.NoteOnEvent(tick=240, channel=2, data=[69, 0]),
   midi.NoteOnEvent(tick=0, channel=2, data=[67, 36]),
   midi.NoteOnEvent(tick=480, channel=2, data=[67, 0]),
   midi.NoteOnEvent(tick=2640, channel=2, data=[69, 36]),
   midi.NoteOnEvent(tick=480, channel=2, data=[69, 0]),
   midi.NoteOnEvent(tick=0, channel=2, data=[69, 36]),
   midi.NoteOnEvent(tick=480, channel=2, data=[69, 0]),
   midi.NoteOnEvent(tick=0, channel=2, data=[69, 36]),
   midi.NoteOnEvent(tick=240, channel=2, data=[69, 0]),
   midi.NoteOnEvent(tick=0, channel=2, data=[69, 36]),
   midi.NoteOnEvent(tick=120, channel=2, data=[69, 0]),
   midi.NoteOnEvent(tick=0, channel=2, data=[67, 36]),
   midi.NoteOnEvent(tick=120, channel=2, data=[67, 0]),
   midi.NoteOnEvent(tick=0, channel=2, data=[66, 36]),
   midi.NoteOnEvent(tick=120, channel=2, data=[66, 0]),
   midi.NoteOnEvent(tick=0, channel=2, data=[67, 36]),
   midi.NoteOnEvent(tick=120, channel=2, data=[67, 0]),
   midi.NoteOnEvent(tick=0, channel=2, data=[66, 36]),
   midi.NoteOnEvent(tick=240, channel=2, data=[66, 0]),
   midi.NoteOnEvent(tick=0, channel=2, data=[76, 36]),
   midi.NoteOnEvent(tick=240, channel=2, data=[76, 0]),
   midi.NoteOnEvent(tick=0, channel=2, data=[74, 36]),
   midi.NoteOnEvent(tick=240, channel=2, data=[74, 0]),
   midi.NoteOnEvent(tick=0, channel=2, data=[66, 36]),
   midi.NoteOnEvent(tick=240, channel=2, data=[66, 0]),
   midi.NoteOnEvent(tick=0, channel=2, data=[67, 36]),
   midi.NoteOnEvent(tick=120, channel=2, data=[67, 0]),
   midi.NoteOnEvent(tick=0, channel=2, data=[66, 36]),
   midi.NoteOnEvent(tick=120, channel=2, data=[66, 0]),
   midi.NoteOnEvent(tick=0, channel=2, data=[67, 36]),
   midi.NoteOnEvent(tick=120, channel=2, data=[67, 0]),
   midi.NoteOnEvent(tick=0, channel=2, data=[69, 36]),
   midi.NoteOnEvent(tick=120, channel=2, data=[69, 0]),
   midi.NoteOnEvent(tick=0, channel=2, data=[71, 36]),
   midi.NoteOnEvent(tick=240, channel=2, data=[71, 0]),
   midi.NoteOnEvent(tick=0, channel=2, data=[71, 36]),
   midi.NoteOnEvent(tick=240, channel=2, data=[71, 0]),
   midi.NoteOnEvent(tick=0, channel=2, data=[71, 36]),
   midi.NoteOnEvent(tick=240, channel=2, data=[71, 0]),
   midi.NoteOnEvent(tick=0, channel=2, data=[71, 36]),
   midi.NoteOnEvent(tick=240, channel=2, data=[71, 0]),
   midi.NoteOnEvent(tick=0, channel=2, data=[72, 36]),
   midi.NoteOnEvent(tick=120, channel=2, data=[72, 0]),
   midi.NoteOnEvent(tick=0, channel=2, data=[69, 36]),
   midi.NoteOnEvent(tick=120, channel=2, data=[69, 0]),
   midi.NoteOnEvent(tick=0, channel=2, data=[71, 36]),
   midi.NoteOnEvent(tick=120, channel=2, data=[71, 0]),
   midi.NoteOnEvent(tick=0, channel=2, data=[67, 36]),
   midi.NoteOnEvent(tick=120, channel=2, data=[67, 0]),
   midi.NoteOnEvent(tick=0, channel=2, data=[66, 36]),
   midi.NoteOnEvent(tick=240, channel=2, data=[66, 0]),
   midi.NoteOnEvent(tick=0, channel=2, data=[69, 36]),
   midi.NoteOnEvent(tick=120, channel=2, data=[69, 0]),
   midi.NoteOnEvent(tick=0, channel=2, data=[66, 36]),
   midi.NoteOnEvent(tick=120, channel=2, data=[66, 0]),
   midi.NoteOnEvent(tick=0, channel=2, data=[62, 36]),
   midi.NoteOnEvent(tick=120, channel=2, data=[62, 0]),
   midi.NoteOnEvent(tick=0, channel=2, data=[64, 36]),
   midi.NoteOnEvent(tick=120, channel=2, data=[64, 0]),
   midi.NoteOnEvent(tick=0, channel=2, data=[62, 36]),
   midi.NoteOnEvent(tick=120, channel=2, data=[62, 0]),
   midi.NoteOnEvent(tick=0, channel=2, data=[60, 36]),
   midi.NoteOnEvent(tick=120, channel=2, data=[60, 0]),
   midi.NoteOnEvent(tick=0, channel=2, data=[59, 36]),
   midi.NoteOnEvent(tick=120, channel=2, data=[59, 0]),
   midi.NoteOnEvent(tick=0, channel=2, data=[57, 36]),
   midi.NoteOnEvent(tick=120, channel=2, data=[57, 0]),
   midi.NoteOnEvent(tick=0, channel=2, data=[55, 36]),
   midi.NoteOnEvent(tick=120, channel=2, data=[55, 0]),
   midi.NoteOnEvent(tick=0, channel=2, data=[57, 36]),
   midi.NoteOnEvent(tick=120, channel=2, data=[57, 0]),
   midi.NoteOnEvent(tick=0, channel=2, data=[59, 36]),
   midi.NoteOnEvent(tick=240, channel=2, data=[59, 0]),
   midi.NoteOnEvent(tick=0, channel=2, data=[59, 36]),
   midi.NoteOnEvent(tick=240, channel=2, data=[59, 0]),
   midi.NoteOnEvent(tick=0, channel=2, data=[59, 36]),
   midi.NoteOnEvent(tick=240, channel=2, data=[59, 0]),
   midi.NoteOnEvent(tick=0, channel=2, data=[59, 36]),
   midi.NoteOnEvent(tick=240, channel=2, data=[59, 0]),
   midi.NoteOnEvent(tick=0, channel=2, data=[60, 36]),
   midi.NoteOnEvent(tick=120, channel=2, data=[60, 0]),
   midi.NoteOnEvent(tick=0, channel=2, data=[57, 36]),
   midi.NoteOnEvent(tick=120, channel=2, data=[57, 0]),
   midi.NoteOnEvent(tick=0, channel=2, data=[59, 36]),
   midi.NoteOnEvent(tick=120, channel=2, data=[59, 0]),
   midi.NoteOnEvent(tick=0, channel=2, data=[55, 36]),
   midi.NoteOnEvent(tick=120, channel=2, data=[55, 0]),
   midi.NoteOnEvent(tick=0, channel=2, data=[54, 36]),
   midi.NoteOnEvent(tick=240, channel=2, data=[54, 0]),
   midi.NoteOnEvent(tick=0, channel=2, data=[57, 36]),
   midi.NoteOnEvent(tick=120, channel=2, data=[57, 0]),
   midi.NoteOnEvent(tick=0, channel=2, data=[54, 36]),
   midi.NoteOnEvent(tick=120, channel=2, data=[54, 0]),
   midi.NoteOnEvent(tick=0, channel=2, data=[50, 36]),
   midi.NoteOnEvent(tick=120, channel=2, data=[50, 0]),
   midi.NoteOnEvent(tick=0, channel=2, data=[64, 36]),
   midi.NoteOnEvent(tick=120, channel=2, data=[64, 0]),
   midi.NoteOnEvent(tick=0, channel=2, data=[62, 36]),
   midi.NoteOnEvent(tick=120, channel=2, data=[62, 0]),
   midi.NoteOnEvent(tick=0, channel=2, data=[54, 36]),
   midi.NoteOnEvent(tick=120, channel=2, data=[54, 0]),
   midi.NoteOnEvent(tick=0, channel=2, data=[55, 36]),
   midi.NoteOnEvent(tick=240, channel=2, data=[55, 0]),
   midi.NoteOnEvent(tick=0, channel=2, data=[55, 36]),
   midi.NoteOnEvent(tick=240, channel=2, data=[55, 0]),
   midi.NoteOnEvent(tick=0, channel=2, data=[62, 36]),
   midi.NoteOnEvent(tick=240, channel=2, data=[62, 0]),
   midi.NoteOnEvent(tick=0, channel=2, data=[62, 36]),
   midi.NoteOnEvent(tick=240, channel=2, data=[62, 0]),
   midi.NoteOnEvent(tick=0, channel=2, data=[62, 36]),
   midi.NoteOnEvent(tick=240, channel=2, data=[62, 0]),
   midi.NoteOnEvent(tick=0, channel=2, data=[62, 36]),
   midi.NoteOnEvent(tick=240, channel=2, data=[62, 0]),
   midi.NoteOnEvent(tick=0, channel=2, data=[60, 36]),
   midi.NoteOnEvent(tick=240, channel=2, data=[60, 0]),
   midi.NoteOnEvent(tick=960, channel=2, data=[64, 36]),
   midi.NoteOnEvent(tick=240, channel=2, data=[64, 0]),
   midi.NoteOnEvent(tick=0, channel=2, data=[62, 36]),
   midi.ControlChangeEvent(tick=208, channel=2, data=[7, 59]),
   midi.NoteOnEvent(tick=32, channel=2, data=[62, 0]),
   midi.NoteOnEvent(tick=0, channel=2, data=[62, 36]),
   midi.NoteOnEvent(tick=240, channel=2, data=[62, 0]),
   midi.NoteOnEvent(tick=0, channel=2, data=[62, 36]),
   midi.NoteOnEvent(tick=240, channel=2, data=[62, 0]),
   midi.NoteOnEvent(tick=0, channel=2, data=[62, 36]),
   midi.NoteOnEvent(tick=240, channel=2, data=[62, 0]),
   midi.NoteOnEvent(tick=0, channel=2, data=[62, 36]),
   midi.NoteOnEvent(tick=240, channel=2, data=[62, 0]),
   midi.NoteOnEvent(tick=0, channel=2, data=[62, 36]),
   midi.NoteOnEvent(tick=240, channel=2, data=[62, 0]),
   midi.NoteOnEvent(tick=0, channel=2, data=[62, 36]),
   midi.NoteOnEvent(tick=480, channel=2, data=[62, 0]),
   midi.NoteOnEvent(tick=120, channel=2, data=[71, 36]),
   midi.NoteOnEvent(tick=120, channel=2, data=[71, 0]),
   midi.NoteOnEvent(tick=0, channel=2, data=[69, 36]),
   midi.NoteOnEvent(tick=120, channel=2, data=[69, 0]),
   midi.NoteOnEvent(tick=0, channel=2, data=[71, 36]),
   midi.NoteOnEvent(tick=120, channel=2, data=[71, 0]),
   midi.NoteOnEvent(tick=0, channel=2, data=[72, 36]),
   midi.NoteOnEvent(tick=120, channel=2, data=[72, 0]),
   midi.NoteOnEvent(tick=0, channel=2, data=[71, 36]),
   midi.NoteOnEvent(tick=120, channel=2, data=[71, 0]),
   midi.NoteOnEvent(tick=0, channel=2, data=[69, 36]),
   midi.NoteOnEvent(tick=120, channel=2, data=[69, 0]),
   midi.NoteOnEvent(tick=0, channel=2, data=[71, 36]),
   midi.NoteOnEvent(tick=120, channel=2, data=[71, 0]),
   midi.NoteOnEvent(tick=0, channel=2, data=[71, 36]),
   midi.NoteOnEvent(tick=480, channel=2, data=[71, 0]),
   midi.NoteOnEvent(tick=120, channel=2, data=[67, 36]),
   midi.NoteOnEvent(tick=120, channel=2, data=[67, 0]),
   midi.NoteOnEvent(tick=0, channel=2, data=[66, 36]),
   midi.NoteOnEvent(tick=120, channel=2, data=[66, 0]),
   midi.NoteOnEvent(tick=0, channel=2, data=[67, 36]),
   midi.NoteOnEvent(tick=120, channel=2, data=[67, 0]),
   midi.NoteOnEvent(tick=0, channel=2, data=[69, 36]),
   midi.NoteOnEvent(tick=120, channel=2, data=[69, 0]),
   midi.NoteOnEvent(tick=0, channel=2, data=[67, 36]),
   midi.NoteOnEvent(tick=120, channel=2, data=[67, 0]),
   midi.NoteOnEvent(tick=0, channel=2, data=[66, 36]),
   midi.NoteOnEvent(tick=120, channel=2, data=[66, 0]),
   midi.NoteOnEvent(tick=0, channel=2, data=[67, 36]),
   midi.NoteOnEvent(tick=120, channel=2, data=[67, 0]),
   midi.NoteOnEvent(tick=0, channel=2, data=[55, 36]),
   midi.NoteOnEvent(tick=240, channel=2, data=[55, 0]),
   midi.NoteOnEvent(tick=0, channel=2, data=[57, 36]),
   midi.NoteOnEvent(tick=40, channel=2, data=[57, 0]),
   midi.NoteOnEvent(tick=0, channel=2, data=[59, 36]),
   midi.NoteOnEvent(tick=40, channel=2, data=[59, 0]),
   midi.NoteOnEvent(tick=0, channel=2, data=[60, 36]),
   midi.NoteOnEvent(tick=40, channel=2, data=[60, 0]),
   midi.NoteOnEvent(tick=0, channel=2, data=[62, 36]),
   midi.NoteOnEvent(tick=40, channel=2, data=[62, 0]),
   midi.NoteOnEvent(tick=0, channel=2, data=[64, 36]),
   midi.NoteOnEvent(tick=40, channel=2, data=[64, 0]),
   midi.NoteOnEvent(tick=0, channel=2, data=[66, 36]),
   midi.NoteOnEvent(tick=40, channel=2, data=[66, 0]),
   midi.NoteOnEvent(tick=0, channel=2, data=[67, 36]),
   midi.NoteOnEvent(tick=240, channel=2, data=[67, 0]),
   midi.NoteOnEvent(tick=0, channel=2, data=[55, 36]),
   midi.NoteOnEvent(tick=240, channel=2, data=[55, 0]),
   midi.NoteOnEvent(tick=0, channel=2, data=[55, 36]),
   midi.NoteOnEvent(tick=240, channel=2, data=[55, 0]),
   midi.NoteOnEvent(tick=0, channel=2, data=[55, 36]),
   midi.NoteOnEvent(tick=240, channel=2, data=[55, 0]),
   midi.NoteOnEvent(tick=0, channel=2, data=[55, 36]),
   midi.NoteOnEvent(tick=240, channel=2, data=[55, 0]),
   midi.NoteOnEvent(tick=0, channel=2, data=[64, 36]),
   midi.NoteOnEvent(tick=240, channel=2, data=[64, 0]),
   midi.NoteOnEvent(tick=0, channel=2, data=[62, 36]),
   midi.NoteOnEvent(tick=240, channel=2, data=[62, 0]),
   midi.NoteOnEvent(tick=0, channel=2, data=[62, 36]),
   midi.NoteOnEvent(tick=240, channel=2, data=[62, 0]),
   midi.NoteOnEvent(tick=0, channel=2, data=[62, 36]),
   midi.NoteOnEvent(tick=240, channel=2, data=[62, 0]),
   midi.NoteOnEvent(tick=0, channel=2, data=[62, 36]),
   midi.NoteOnEvent(tick=240, channel=2, data=[62, 0]),
   midi.NoteOnEvent(tick=0, channel=2, data=[62, 36]),
   midi.NoteOnEvent(tick=240, channel=2, data=[62, 0]),
   midi.NoteOnEvent(tick=0, channel=2, data=[71, 36]),
   midi.NoteOnEvent(tick=240, channel=2, data=[71, 0]),
   midi.NoteOnEvent(tick=0, channel=2, data=[72, 36]),
   midi.NoteOnEvent(tick=240, channel=2, data=[72, 0]),
   midi.NoteOnEvent(tick=0, channel=2, data=[71, 36]),
   midi.NoteOnEvent(tick=240, channel=2, data=[71, 0]),
   midi.NoteOnEvent(tick=0, channel=2, data=[72, 36]),
   midi.NoteOnEvent(tick=240, channel=2, data=[72, 0]),
   midi.NoteOnEvent(tick=0, channel=2, data=[69, 36]),
   midi.NoteOnEvent(tick=240, channel=2, data=[69, 0]),
   midi.NoteOnEvent(tick=0, channel=2, data=[67, 36]),
   midi.NoteOnEvent(tick=240, channel=2, data=[67, 0]),
   midi.NoteOnEvent(tick=0, channel=2, data=[71, 36]),
   midi.NoteOnEvent(tick=240, channel=2, data=[71, 0]),
   midi.NoteOnEvent(tick=0, channel=2, data=[72, 36]),
   midi.NoteOnEvent(tick=240, channel=2, data=[72, 0]),
   midi.NoteOnEvent(tick=0, channel=2, data=[71, 36]),
   midi.NoteOnEvent(tick=240, channel=2, data=[71, 0]),
   midi.NoteOnEvent(tick=0, channel=2, data=[72, 36]),
   midi.NoteOnEvent(tick=240, channel=2, data=[72, 0]),
   midi.NoteOnEvent(tick=0, channel=2, data=[69, 36]),
   midi.NoteOnEvent(tick=240, channel=2, data=[69, 0]),
   midi.NoteOnEvent(tick=0, channel=2, data=[69, 36]),
   midi.NoteOnEvent(tick=960, channel=2, data=[69, 0]),
   midi.NoteOnEvent(tick=0, channel=2, data=[67, 36]),
   midi.NoteOnEvent(tick=240, channel=2, data=[67, 0]),
   midi.ControlChangeEvent(tick=240, channel=2, data=[7, 104]),
   midi.NoteOnEvent(tick=0, channel=2, data=[55, 79]),
   midi.NoteOnEvent(tick=240, channel=2, data=[55, 0]),
   midi.NoteOnEvent(tick=0, channel=2, data=[55, 79]),
   midi.NoteOnEvent(tick=240, channel=2, data=[55, 0]),
   midi.NoteOnEvent(tick=0, channel=2, data=[55, 79]),
   midi.NoteOnEvent(tick=240, channel=2, data=[55, 0]),
   midi.NoteOnEvent(tick=0, channel=2, data=[55, 79]),
   midi.NoteOnEvent(tick=240, channel=2, data=[55, 0]),
   midi.NoteOnEvent(tick=0, channel=2, data=[55, 79]),
   midi.NoteOnEvent(tick=240, channel=2, data=[55, 0]),
   midi.NoteOnEvent(tick=0, channel=2, data=[55, 79]),
   midi.NoteOnEvent(tick=240, channel=2, data=[55, 0]),
   midi.NoteOnEvent(tick=0, channel=2, data=[55, 79]),
   midi.NoteOnEvent(tick=240, channel=2, data=[55, 0]),
   midi.NoteOnEvent(tick=0, channel=2, data=[55, 79]),
   midi.NoteOnEvent(tick=240, channel=2, data=[55, 0]),
   midi.NoteOnEvent(tick=0, channel=2, data=[55, 79]),
   midi.NoteOnEvent(tick=240, channel=2, data=[55, 0]),
   midi.NoteOnEvent(tick=0, channel=2, data=[55, 79]),
   midi.NoteOnEvent(tick=240, channel=2, data=[55, 0]),
   midi.NoteOnEvent(tick=0, channel=2, data=[55, 79]),
   midi.NoteOnEvent(tick=240, channel=2, data=[55, 0]),
   midi.NoteOnEvent(tick=0, channel=2, data=[55, 79]),
   midi.NoteOnEvent(tick=240, channel=2, data=[55, 0]),
   midi.NoteOnEvent(tick=0, channel=2, data=[55, 79]),
   midi.NoteOnEvent(tick=480, channel=2, data=[55, 0]),
   midi.NoteOnEvent(tick=480, channel=2, data=[67, 79]),
   midi.NoteOnEvent(tick=960, channel=2, data=[67, 0]),
   midi.NoteOnEvent(tick=0, channel=2, data=[62, 79]),
   midi.NoteOnEvent(tick=960, channel=2, data=[62, 0]),
   midi.NoteOnEvent(tick=0, channel=2, data=[60, 79]),
   midi.NoteOnEvent(tick=240, channel=2, data=[60, 0]),
   midi.NoteOnEvent(tick=0, channel=2, data=[59, 79]),
   midi.NoteOnEvent(tick=240, channel=2, data=[59, 0]),
   midi.NoteOnEvent(tick=0, channel=2, data=[57, 79]),
   midi.NoteOnEvent(tick=240, channel=2, data=[57, 0]),
   midi.NoteOnEvent(tick=0, channel=2, data=[55, 79]),
   midi.NoteOnEvent(tick=240, channel=2, data=[55, 0]),
   midi.NoteOnEvent(tick=0, channel=2, data=[62, 79]),
   midi.NoteOnEvent(tick=480, channel=2, data=[62, 0]),
   midi.NoteOnEvent(tick=0, channel=2, data=[50, 79]),
   midi.NoteOnEvent(tick=480, channel=2, data=[50, 0]),
   midi.NoteOnEvent(tick=0, channel=2, data=[55, 79]),
   midi.NoteOnEvent(tick=240, channel=2, data=[55, 0]),
   midi.NoteOnEvent(tick=0, channel=2, data=[55, 79]),
   midi.NoteOnEvent(tick=240, channel=2, data=[55, 0]),
   midi.NoteOnEvent(tick=0, channel=2, data=[55, 79]),
   midi.NoteOnEvent(tick=240, channel=2, data=[55, 0]),
   midi.NoteOnEvent(tick=0, channel=2, data=[55, 79]),
   midi.NoteOnEvent(tick=240, channel=2, data=[55, 0]),
   midi.NoteOnEvent(tick=0, channel=2, data=[55, 79]),
   midi.NoteOnEvent(tick=240, channel=2, data=[55, 0]),
   midi.NoteOnEvent(tick=0, channel=2, data=[55, 79]),
   midi.NoteOnEvent(tick=240, channel=2, data=[55, 0]),
   midi.NoteOnEvent(tick=0, channel=2, data=[55, 79]),
   midi.NoteOnEvent(tick=240, channel=2, data=[55, 0]),
   midi.NoteOnEvent(tick=0, channel=2, data=[55, 79]),
   midi.NoteOnEvent(tick=240, channel=2, data=[55, 0]),
   midi.NoteOnEvent(tick=0, channel=2, data=[55, 79]),
   midi.NoteOnEvent(tick=240, channel=2, data=[55, 0]),
   midi.NoteOnEvent(tick=0, channel=2, data=[55, 79]),
   midi.NoteOnEvent(tick=240, channel=2, data=[55, 0]),
   midi.NoteOnEvent(tick=0, channel=2, data=[55, 79]),
   midi.NoteOnEvent(tick=240, channel=2, data=[55, 0]),
   midi.NoteOnEvent(tick=0, channel=2, data=[55, 79]),
   midi.NoteOnEvent(tick=240, channel=2, data=[55, 0]),
   midi.NoteOnEvent(tick=0, channel=2, data=[55, 79]),
   midi.NoteOnEvent(tick=480, channel=2, data=[55, 0]),
   midi.NoteOnEvent(tick=480, channel=2, data=[67, 79]),
   midi.NoteOnEvent(tick=960, channel=2, data=[67, 0]),
   midi.NoteOnEvent(tick=0, channel=2, data=[62, 79]),
   midi.NoteOnEvent(tick=960, channel=2, data=[62, 0]),
   midi.NoteOnEvent(tick=0, channel=2, data=[60, 79]),
   midi.NoteOnEvent(tick=240, channel=2, data=[60, 0]),
   midi.NoteOnEvent(tick=0, channel=2, data=[59, 79]),
   midi.NoteOnEvent(tick=240, channel=2, data=[59, 0]),
   midi.NoteOnEvent(tick=0, channel=2, data=[57, 79]),
   midi.NoteOnEvent(tick=240, channel=2, data=[57, 0]),
   midi.NoteOnEvent(tick=0, channel=2, data=[55, 79]),
   midi.NoteOnEvent(tick=240, channel=2, data=[55, 0]),
   midi.NoteOnEvent(tick=0, channel=2, data=[62, 79]),
   midi.NoteOnEvent(tick=480, channel=2, data=[62, 0]),
   midi.NoteOnEvent(tick=0, channel=2, data=[50, 79]),
   midi.NoteOnEvent(tick=480, channel=2, data=[50, 0]),
   midi.NoteOnEvent(tick=0, channel=2, data=[55, 79]),
   midi.NoteOnEvent(tick=120, channel=2, data=[55, 0]),
   midi.NoteOnEvent(tick=0, channel=2, data=[59, 79]),
   midi.NoteOnEvent(tick=120, channel=2, data=[59, 0]),
   midi.NoteOnEvent(tick=0, channel=2, data=[59, 79]),
   midi.NoteOnEvent(tick=120, channel=2, data=[59, 0]),
   midi.NoteOnEvent(tick=0, channel=2, data=[59, 79]),
   midi.NoteOnEvent(tick=120, channel=2, data=[59, 0]),
   midi.NoteOnEvent(tick=0, channel=2, data=[59, 79]),
   midi.NoteOnEvent(tick=120, channel=2, data=[59, 0]),
   midi.NoteOnEvent(tick=0, channel=2, data=[59, 79]),
   midi.NoteOnEvent(tick=120, channel=2, data=[59, 0]),
   midi.NoteOnEvent(tick=0, channel=2, data=[59, 79]),
   midi.NoteOnEvent(tick=120, channel=2, data=[59, 0]),
   midi.NoteOnEvent(tick=0, channel=2, data=[59, 79]),
   midi.NoteOnEvent(tick=120, channel=2, data=[59, 0]),
   midi.ProgramChangeEvent(tick=0, channel=2, data=[5]),
   midi.NoteOnEvent(tick=0, channel=2, data=[59, 79]),
   midi.NoteOnEvent(tick=960, channel=2, data=[59, 0]),
   midi.NoteOnEvent(tick=0, channel=2, data=[60, 79]),
   midi.NoteOnEvent(tick=960, channel=2, data=[60, 0]),
   midi.NoteOnEvent(tick=0, channel=2, data=[60, 79]),
   midi.NoteOnEvent(tick=960, channel=2, data=[60, 0]),
   midi.NoteOnEvent(tick=0, channel=2, data=[59, 79]),
   midi.NoteOnEvent(tick=960, channel=2, data=[59, 0]),
   midi.NoteOnEvent(tick=0, channel=2, data=[59, 79]),
   midi.NoteOnEvent(tick=960, channel=2, data=[59, 0]),
   midi.NoteOnEvent(tick=0, channel=2, data=[60, 79]),
   midi.NoteOnEvent(tick=960, channel=2, data=[60, 0]),
   midi.NoteOnEvent(tick=0, channel=2, data=[60, 79]),
   midi.NoteOnEvent(tick=960, channel=2, data=[60, 0]),
   midi.ProgramChangeEvent(tick=0, channel=2, data=[2]),
   midi.NoteOnEvent(tick=0, channel=2, data=[59, 79]),
   midi.NoteOnEvent(tick=240, channel=2, data=[59, 0]),
   midi.NoteOnEvent(tick=0, channel=2, data=[55, 79]),
   midi.NoteOnEvent(tick=240, channel=2, data=[55, 0]),
   midi.NoteOnEvent(tick=0, channel=2, data=[57, 79]),
   midi.NoteOnEvent(tick=240, channel=2, data=[57, 0]),
   midi.NoteOnEvent(tick=0, channel=2, data=[59, 79]),
   midi.NoteOnEvent(tick=240, channel=2, data=[59, 0]),
   midi.NoteOnEvent(tick=0, channel=2, data=[60, 79]),
   midi.NoteOnEvent(tick=240, channel=2, data=[60, 0]),
   midi.NoteOnEvent(tick=0, channel=2, data=[62, 79]),
   midi.NoteOnEvent(tick=240, channel=2, data=[62, 0]),
   midi.NoteOnEvent(tick=0, channel=2, data=[64, 79]),
   midi.NoteOnEvent(tick=240, channel=2, data=[64, 0]),
   midi.NoteOnEvent(tick=0, channel=2, data=[66, 79]),
   midi.NoteOnEvent(tick=240, channel=2, data=[66, 0]),
   midi.NoteOnEvent(tick=0, channel=2, data=[67, 79]),
   midi.NoteOnEvent(tick=240, channel=2, data=[67, 0]),
   midi.NoteOnEvent(tick=0, channel=2, data=[66, 79]),
   midi.NoteOnEvent(tick=240, channel=2, data=[66, 0]),
   midi.NoteOnEvent(tick=0, channel=2, data=[64, 79]),
   midi.NoteOnEvent(tick=240, channel=2, data=[64, 0]),
   midi.NoteOnEvent(tick=0, channel=2, data=[62, 79]),
   midi.NoteOnEvent(tick=240, channel=2, data=[62, 0]),
   midi.NoteOnEvent(tick=0, channel=2, data=[60, 79]),
   midi.NoteOnEvent(tick=240, channel=2, data=[60, 0]),
   midi.NoteOnEvent(tick=0, channel=2, data=[59, 79]),
   midi.NoteOnEvent(tick=240, channel=2, data=[59, 0]),
   midi.NoteOnEvent(tick=0, channel=2, data=[57, 79]),
   midi.NoteOnEvent(tick=240, channel=2, data=[57, 0]),
   midi.NoteOnEvent(tick=0, channel=2, data=[55, 79]),
   midi.NoteOnEvent(tick=240, channel=2, data=[55, 0]),
   midi.NoteOnEvent(tick=0, channel=2, data=[62, 79]),
   midi.NoteOnEvent(tick=480, channel=2, data=[62, 0]),
   midi.NoteOnEvent(tick=0, channel=2, data=[74, 79]),
   midi.NoteOnEvent(tick=480, channel=2, data=[74, 0]),
   midi.NoteOnEvent(tick=0, channel=2, data=[62, 79]),
   midi.NoteOnEvent(tick=480, channel=2, data=[62, 0]),
   midi.NoteOnEvent(tick=4320, channel=2, data=[62, 79]),
   midi.NoteOnEvent(tick=960, channel=2, data=[62, 0]),
   midi.NoteOnEvent(tick=0, channel=2, data=[66, 79]),
   midi.NoteOnEvent(tick=480, channel=2, data=[66, 0]),
   midi.NoteOnEvent(tick=0, channel=2, data=[69, 79]),
   midi.NoteOnEvent(tick=480, channel=2, data=[69, 0]),
   midi.NoteOnEvent(tick=0, channel=2, data=[74, 79]),
   midi.NoteOnEvent(tick=480, channel=2, data=[74, 0]),
   midi.NoteOnEvent(tick=0, channel=2, data=[69, 79]),
   midi.NoteOnEvent(tick=960, channel=2, data=[69, 0]),
   midi.NoteOnEvent(tick=0, channel=2, data=[69, 79]),
   midi.NoteOnEvent(tick=480, channel=2, data=[69, 0]),
   midi.NoteOnEvent(tick=0, channel=2, data=[69, 79]),
   midi.NoteOnEvent(tick=480, channel=2, data=[69, 0]),
   midi.NoteOnEvent(tick=1440, channel=2, data=[62, 79]),
   midi.NoteOnEvent(tick=240, channel=2, data=[62, 0]),
   midi.NoteOnEvent(tick=0, channel=2, data=[66, 79]),
   midi.NoteOnEvent(tick=240, channel=2, data=[66, 0]),
   midi.NoteOnEvent(tick=0, channel=2, data=[62, 79]),
   midi.NoteOnEvent(tick=240, channel=2, data=[62, 0]),
   midi.NoteOnEvent(tick=0, channel=2, data=[66, 79]),
   midi.NoteOnEvent(tick=240, channel=2, data=[66, 0]),
   midi.NoteOnEvent(tick=0, channel=2, data=[62, 79]),
   midi.NoteOnEvent(tick=480, channel=2, data=[62, 0]),
   midi.NoteOnEvent(tick=480, channel=2, data=[61, 79]),
   midi.NoteOnEvent(tick=480, channel=2, data=[61, 0]),
   midi.NoteOnEvent(tick=0, channel=2, data=[62, 79]),
   midi.NoteOnEvent(tick=960, channel=2, data=[62, 0]),
   midi.NoteOnEvent(tick=0, channel=2, data=[62, 79]),
   midi.NoteOnEvent(tick=480, channel=2, data=[62, 0]),
   midi.NoteOnEvent(tick=0, channel=2, data=[62, 79]),
   midi.NoteOnEvent(tick=240, channel=2, data=[62, 0]),
   midi.NoteOnEvent(tick=0, channel=2, data=[66, 79]),
   midi.NoteOnEvent(tick=240, channel=2, data=[66, 0]),
   midi.NoteOnEvent(tick=0, channel=2, data=[62, 79]),
   midi.NoteOnEvent(tick=240, channel=2, data=[62, 0]),
   midi.NoteOnEvent(tick=0, channel=2, data=[66, 79]),
   midi.NoteOnEvent(tick=240, channel=2, data=[66, 0]),
   midi.NoteOnEvent(tick=0, channel=2, data=[62, 79]),
   midi.NoteOnEvent(tick=480, channel=2, data=[62, 0]),
   midi.NoteOnEvent(tick=480, channel=2, data=[61, 79]),
   midi.NoteOnEvent(tick=480, channel=2, data=[61, 0]),
   midi.NoteOnEvent(tick=0, channel=2, data=[62, 79]),
   midi.NoteOnEvent(tick=960, channel=2, data=[62, 0]),
   midi.NoteOnEvent(tick=0, channel=2, data=[61, 79]),
   midi.NoteOnEvent(tick=480, channel=2, data=[61, 0]),
   midi.NoteOnEvent(tick=0, channel=2, data=[62, 79]),
   midi.NoteOnEvent(tick=480, channel=2, data=[62, 0]),
   midi.NoteOnEvent(tick=0, channel=2, data=[62, 79]),
   midi.NoteOnEvent(tick=960, channel=2, data=[62, 0]),
   midi.NoteOnEvent(tick=0, channel=2, data=[62, 79]),
   midi.NoteOnEvent(tick=480, channel=2, data=[62, 0]),
   midi.NoteOnEvent(tick=0, channel=2, data=[62, 79]),
   midi.NoteOnEvent(tick=480, channel=2, data=[62, 0]),
   midi.NoteOnEvent(tick=3360, channel=2, data=[69, 79]),
   midi.NoteOnEvent(tick=1440, channel=2, data=[69, 0]),
   midi.NoteOnEvent(tick=0, channel=2, data=[67, 79]),
   midi.NoteOnEvent(tick=480, channel=2, data=[67, 0]),
   midi.NoteOnEvent(tick=0, channel=2, data=[66, 79]),
   midi.NoteOnEvent(tick=480, channel=2, data=[66, 0]),
   midi.NoteOnEvent(tick=0, channel=2, data=[62, 79]),
   midi.NoteOnEvent(tick=960, channel=2, data=[62, 0]),
   midi.NoteOnEvent(tick=0, channel=2, data=[62, 79]),
   midi.NoteOnEvent(tick=480, channel=2, data=[62, 0]),
   midi.NoteOnEvent(tick=0, channel=2, data=[62, 79]),
   midi.NoteOnEvent(tick=480, channel=2, data=[62, 0]),
   midi.NoteOnEvent(tick=3360, channel=2, data=[69, 79]),
   midi.NoteOnEvent(tick=1440, channel=2, data=[69, 0]),
   midi.NoteOnEvent(tick=0, channel=2, data=[67, 79]),
   midi.NoteOnEvent(tick=480, channel=2, data=[67, 0]),
   midi.NoteOnEvent(tick=0, channel=2, data=[66, 79]),
   midi.NoteOnEvent(tick=480, channel=2, data=[66, 0]),
   midi.NoteOnEvent(tick=0, channel=2, data=[72, 79]),
   midi.NoteOnEvent(tick=120, channel=2, data=[72, 0]),
   midi.NoteOnEvent(tick=0, channel=2, data=[71, 79]),
   midi.NoteOnEvent(tick=120, channel=2, data=[71, 0]),
   midi.NoteOnEvent(tick=0, channel=2, data=[69, 79]),
   midi.NoteOnEvent(tick=120, channel=2, data=[69, 0]),
   midi.NoteOnEvent(tick=0, channel=2, data=[67, 79]),
   midi.NoteOnEvent(tick=120, channel=2, data=[67, 0]),
   midi.NoteOnEvent(tick=0, channel=2, data=[69, 79]),
   midi.NoteOnEvent(tick=240, channel=2, data=[69, 0]),
   midi.NoteOnEvent(tick=0, channel=2, data=[66, 79]),
   midi.NoteOnEvent(tick=240, channel=2, data=[66, 0]),
   midi.NoteOnEvent(tick=0, channel=2, data=[64, 79]),
   midi.NoteOnEvent(tick=480, channel=2, data=[64, 0]),
   midi.NoteOnEvent(tick=0, channel=2, data=[62, 79]),
   midi.NoteOnEvent(tick=1440, channel=2, data=[62, 0]),
   midi.NoteOnEvent(tick=0, channel=2, data=[64, 79]),
   midi.NoteOnEvent(tick=480, channel=2, data=[64, 0]),
   midi.NoteOnEvent(tick=0, channel=2, data=[62, 79]),
   midi.NoteOnEvent(tick=480, channel=2, data=[62, 0]),
   midi.NoteOnEvent(tick=0, channel=2, data=[62, 79]),
   midi.NoteOnEvent(tick=480, channel=2, data=[62, 0]),
   midi.NoteOnEvent(tick=0, channel=2, data=[62, 79]),
   midi.NoteOnEvent(tick=480, channel=2, data=[62, 0]),
   midi.NoteOnEvent(tick=480, channel=2, data=[55, 79]),
   midi.NoteOnEvent(tick=240, channel=2, data=[55, 0]),
   midi.NoteOnEvent(tick=0, channel=2, data=[55, 79]),
   midi.NoteOnEvent(tick=240, channel=2, data=[55, 0]),
   midi.NoteOnEvent(tick=0, channel=2, data=[55, 79]),
   midi.NoteOnEvent(tick=240, channel=2, data=[55, 0]),
   midi.NoteOnEvent(tick=0, channel=2, data=[55, 79]),
   midi.NoteOnEvent(tick=240, channel=2, data=[55, 0]),
   midi.NoteOnEvent(tick=0, channel=2, data=[55, 79]),
   midi.NoteOnEvent(tick=240, channel=2, data=[55, 0]),
   midi.NoteOnEvent(tick=0, channel=2, data=[55, 79]),
   midi.NoteOnEvent(tick=240, channel=2, data=[55, 0]),
   midi.NoteOnEvent(tick=0, channel=2, data=[55, 79]),
   midi.NoteOnEvent(tick=240, channel=2, data=[55, 0]),
   midi.NoteOnEvent(tick=0, channel=2, data=[55, 79]),
   midi.NoteOnEvent(tick=240, channel=2, data=[55, 0]),
   midi.NoteOnEvent(tick=0, channel=2, data=[55, 79]),
   midi.NoteOnEvent(tick=240, channel=2, data=[55, 0]),
   midi.NoteOnEvent(tick=0, channel=2, data=[55, 79]),
   midi.NoteOnEvent(tick=240, channel=2, data=[55, 0]),
   midi.NoteOnEvent(tick=0, channel=2, data=[55, 79]),
   midi.NoteOnEvent(tick=240, channel=2, data=[55, 0]),
   midi.NoteOnEvent(tick=0, channel=2, data=[55, 79]),
   midi.NoteOnEvent(tick=240, channel=2, data=[55, 0]),
   midi.NoteOnEvent(tick=0, channel=2, data=[55, 79]),
   midi.NoteOnEvent(tick=480, channel=2, data=[55, 0]),
   midi.NoteOnEvent(tick=480, channel=2, data=[67, 79]),
   midi.NoteOnEvent(tick=960, channel=2, data=[67, 0]),
   midi.NoteOnEvent(tick=0, channel=2, data=[62, 79]),
   midi.NoteOnEvent(tick=960, channel=2, data=[62, 0]),
   midi.NoteOnEvent(tick=0, channel=2, data=[60, 79]),
   midi.NoteOnEvent(tick=240, channel=2, data=[60, 0]),
   midi.NoteOnEvent(tick=0, channel=2, data=[59, 79]),
   midi.NoteOnEvent(tick=240, channel=2, data=[59, 0]),
   midi.NoteOnEvent(tick=0, channel=2, data=[57, 79]),
   midi.NoteOnEvent(tick=240, channel=2, data=[57, 0]),
   midi.NoteOnEvent(tick=0, channel=2, data=[55, 79]),
   midi.NoteOnEvent(tick=240, channel=2, data=[55, 0]),
   midi.NoteOnEvent(tick=0, channel=2, data=[62, 79]),
   midi.NoteOnEvent(tick=480, channel=2, data=[62, 0]),
   midi.NoteOnEvent(tick=0, channel=2, data=[50, 79]),
   midi.NoteOnEvent(tick=480, channel=2, data=[50, 0]),
   midi.NoteOnEvent(tick=0, channel=2, data=[55, 79]),
   midi.NoteOnEvent(tick=240, channel=2, data=[55, 0]),
   midi.NoteOnEvent(tick=0, channel=2, data=[55, 79]),
   midi.NoteOnEvent(tick=240, channel=2, data=[55, 0]),
   midi.NoteOnEvent(tick=0, channel=2, data=[55, 79]),
   midi.NoteOnEvent(tick=240, channel=2, data=[55, 0]),
   midi.NoteOnEvent(tick=0, channel=2, data=[55, 79]),
   midi.NoteOnEvent(tick=240, channel=2, data=[55, 0]),
   midi.NoteOnEvent(tick=0, channel=2, data=[55, 79]),
   midi.NoteOnEvent(tick=240, channel=2, data=[55, 0]),
   midi.NoteOnEvent(tick=0, channel=2, data=[55, 79]),
   midi.NoteOnEvent(tick=240, channel=2, data=[55, 0]),
   midi.NoteOnEvent(tick=0, channel=2, data=[55, 79]),
   midi.NoteOnEvent(tick=240, channel=2, data=[55, 0]),
   midi.NoteOnEvent(tick=0, channel=2, data=[55, 79]),
   midi.NoteOnEvent(tick=240, channel=2, data=[55, 0]),
   midi.NoteOnEvent(tick=0, channel=2, data=[55, 79]),
   midi.NoteOnEvent(tick=240, channel=2, data=[55, 0]),
   midi.NoteOnEvent(tick=0, channel=2, data=[55, 79]),
   midi.NoteOnEvent(tick=240, channel=2, data=[55, 0]),
   midi.NoteOnEvent(tick=0, channel=2, data=[55, 79]),
   midi.NoteOnEvent(tick=240, channel=2, data=[55, 0]),
   midi.NoteOnEvent(tick=0, channel=2, data=[55, 79]),
   midi.NoteOnEvent(tick=240, channel=2, data=[55, 0]),
   midi.NoteOnEvent(tick=0, channel=2, data=[55, 79]),
   midi.NoteOnEvent(tick=480, channel=2, data=[55, 0]),
   midi.NoteOnEvent(tick=480, channel=2, data=[67, 79]),
   midi.NoteOnEvent(tick=960, channel=2, data=[67, 0]),
   midi.NoteOnEvent(tick=0, channel=2, data=[62, 79]),
   midi.NoteOnEvent(tick=960, channel=2, data=[62, 0]),
   midi.NoteOnEvent(tick=0, channel=2, data=[60, 79]),
   midi.NoteOnEvent(tick=240, channel=2, data=[60, 0]),
   midi.NoteOnEvent(tick=0, channel=2, data=[59, 79]),
   midi.NoteOnEvent(tick=240, channel=2, data=[59, 0]),
   midi.NoteOnEvent(tick=0, channel=2, data=[57, 79]),
   midi.NoteOnEvent(tick=240, channel=2, data=[57, 0]),
   midi.NoteOnEvent(tick=0, channel=2, data=[55, 79]),
   midi.NoteOnEvent(tick=240, channel=2, data=[55, 0]),
   midi.NoteOnEvent(tick=0, channel=2, data=[62, 79]),
   midi.NoteOnEvent(tick=480, channel=2, data=[62, 0]),
   midi.NoteOnEvent(tick=0, channel=2, data=[50, 79]),
   midi.NoteOnEvent(tick=480, channel=2, data=[50, 0]),
   midi.NoteOnEvent(tick=0, channel=2, data=[55, 79]),
   midi.NoteOnEvent(tick=120, channel=2, data=[55, 0]),
   midi.NoteOnEvent(tick=0, channel=2, data=[59, 79]),
   midi.NoteOnEvent(tick=120, channel=2, data=[59, 0]),
   midi.NoteOnEvent(tick=0, channel=2, data=[59, 79]),
   midi.NoteOnEvent(tick=120, channel=2, data=[59, 0]),
   midi.NoteOnEvent(tick=0, channel=2, data=[59, 79]),
   midi.NoteOnEvent(tick=120, channel=2, data=[59, 0]),
   midi.NoteOnEvent(tick=0, channel=2, data=[59, 79]),
   midi.NoteOnEvent(tick=120, channel=2, data=[59, 0]),
   midi.NoteOnEvent(tick=0, channel=2, data=[59, 79]),
   midi.NoteOnEvent(tick=120, channel=2, data=[59, 0]),
   midi.NoteOnEvent(tick=0, channel=2, data=[59, 79]),
   midi.NoteOnEvent(tick=120, channel=2, data=[59, 0]),
   midi.NoteOnEvent(tick=0, channel=2, data=[59, 79]),
   midi.NoteOnEvent(tick=120, channel=2, data=[59, 0]),
   midi.ProgramChangeEvent(tick=0, channel=2, data=[5]),
   midi.NoteOnEvent(tick=0, channel=2, data=[59, 79]),
   midi.NoteOnEvent(tick=960, channel=2, data=[59, 0]),
   midi.NoteOnEvent(tick=0, channel=2, data=[60, 79]),
   midi.NoteOnEvent(tick=960, channel=2, data=[60, 0]),
   midi.NoteOnEvent(tick=0, channel=2, data=[60, 79]),
   midi.NoteOnEvent(tick=960, channel=2, data=[60, 0]),
   midi.NoteOnEvent(tick=0, channel=2, data=[59, 79]),
   midi.NoteOnEvent(tick=960, channel=2, data=[59, 0]),
   midi.NoteOnEvent(tick=0, channel=2, data=[59, 79]),
   midi.NoteOnEvent(tick=960, channel=2, data=[59, 0]),
   midi.NoteOnEvent(tick=0, channel=2, data=[60, 79]),
   midi.NoteOnEvent(tick=960, channel=2, data=[60, 0]),
   midi.NoteOnEvent(tick=0, channel=2, data=[60, 79]),
   midi.NoteOnEvent(tick=960, channel=2, data=[60, 0]),
   midi.ProgramChangeEvent(tick=0, channel=2, data=[2]),
   midi.NoteOnEvent(tick=0, channel=2, data=[59, 79]),
   midi.NoteOnEvent(tick=240, channel=2, data=[59, 0]),
   midi.NoteOnEvent(tick=0, channel=2, data=[55, 79]),
   midi.NoteOnEvent(tick=240, channel=2, data=[55, 0]),
   midi.NoteOnEvent(tick=0, channel=2, data=[57, 79]),
   midi.NoteOnEvent(tick=240, channel=2, data=[57, 0]),
   midi.NoteOnEvent(tick=0, channel=2, data=[59, 79]),
   midi.NoteOnEvent(tick=240, channel=2, data=[59, 0]),
   midi.NoteOnEvent(tick=0, channel=2, data=[60, 79]),
   midi.NoteOnEvent(tick=240, channel=2, data=[60, 0]),
   midi.NoteOnEvent(tick=0, channel=2, data=[62, 79]),
   midi.NoteOnEvent(tick=240, channel=2, data=[62, 0]),
   midi.NoteOnEvent(tick=0, channel=2, data=[64, 79]),
   midi.NoteOnEvent(tick=240, channel=2, data=[64, 0]),
   midi.NoteOnEvent(tick=0, channel=2, data=[66, 79]),
   midi.NoteOnEvent(tick=240, channel=2, data=[66, 0]),
   midi.NoteOnEvent(tick=0, channel=2, data=[67, 79]),
   midi.NoteOnEvent(tick=240, channel=2, data=[67, 0]),
   midi.NoteOnEvent(tick=0, channel=2, data=[66, 79]),
   midi.NoteOnEvent(tick=240, channel=2, data=[66, 0]),
   midi.NoteOnEvent(tick=0, channel=2, data=[64, 79]),
   midi.NoteOnEvent(tick=240, channel=2, data=[64, 0]),
   midi.NoteOnEvent(tick=0, channel=2, data=[62, 79]),
   midi.NoteOnEvent(tick=240, channel=2, data=[62, 0]),
   midi.NoteOnEvent(tick=0, channel=2, data=[60, 79]),
   midi.NoteOnEvent(tick=240, channel=2, data=[60, 0]),
   midi.NoteOnEvent(tick=0, channel=2, data=[59, 79]),
   midi.NoteOnEvent(tick=240, channel=2, data=[59, 0]),
   midi.NoteOnEvent(tick=0, channel=2, data=[57, 79]),
   midi.NoteOnEvent(tick=240, channel=2, data=[57, 0]),
   midi.NoteOnEvent(tick=0, channel=2, data=[55, 79]),
   midi.NoteOnEvent(tick=240, channel=2, data=[55, 0]),
   midi.NoteOnEvent(tick=0, channel=2, data=[62, 79]),
   midi.NoteOnEvent(tick=480, channel=2, data=[62, 0]),
   midi.NoteOnEvent(tick=0, channel=2, data=[74, 79]),
   midi.NoteOnEvent(tick=480, channel=2, data=[74, 0]),
   midi.NoteOnEvent(tick=0, channel=2, data=[62, 79]),
   midi.NoteOnEvent(tick=480, channel=2, data=[62, 0]),
   midi.NoteOnEvent(tick=4320, channel=2, data=[62, 79]),
   midi.NoteOnEvent(tick=960, channel=2, data=[62, 0]),
   midi.NoteOnEvent(tick=0, channel=2, data=[66, 79]),
   midi.NoteOnEvent(tick=480, channel=2, data=[66, 0]),
   midi.NoteOnEvent(tick=0, channel=2, data=[69, 79]),
   midi.NoteOnEvent(tick=480, channel=2, data=[69, 0]),
   midi.NoteOnEvent(tick=0, channel=2, data=[74, 79]),
   midi.NoteOnEvent(tick=480, channel=2, data=[74, 0]),
   midi.NoteOnEvent(tick=0, channel=2, data=[69, 79]),
   midi.NoteOnEvent(tick=960, channel=2, data=[69, 0]),
   midi.NoteOnEvent(tick=0, channel=2, data=[69, 79]),
   midi.NoteOnEvent(tick=480, channel=2, data=[69, 0]),
   midi.NoteOnEvent(tick=0, channel=2, data=[69, 79]),
   midi.NoteOnEvent(tick=480, channel=2, data=[69, 0]),
   midi.NoteOnEvent(tick=1440, channel=2, data=[62, 79]),
   midi.NoteOnEvent(tick=240, channel=2, data=[62, 0]),
   midi.NoteOnEvent(tick=0, channel=2, data=[66, 79]),
   midi.NoteOnEvent(tick=240, channel=2, data=[66, 0]),
   midi.NoteOnEvent(tick=0, channel=2, data=[62, 79]),
   midi.NoteOnEvent(tick=240, channel=2, data=[62, 0]),
   midi.NoteOnEvent(tick=0, channel=2, data=[66, 79]),
   midi.NoteOnEvent(tick=240, channel=2, data=[66, 0]),
   midi.NoteOnEvent(tick=0, channel=2, data=[62, 79]),
   midi.NoteOnEvent(tick=480, channel=2, data=[62, 0]),
   midi.NoteOnEvent(tick=480, channel=2, data=[61, 79]),
   midi.NoteOnEvent(tick=480, channel=2, data=[61, 0]),
   midi.NoteOnEvent(tick=0, channel=2, data=[62, 79]),
   midi.NoteOnEvent(tick=960, channel=2, data=[62, 0]),
   midi.NoteOnEvent(tick=0, channel=2, data=[62, 79]),
   midi.NoteOnEvent(tick=480, channel=2, data=[62, 0]),
   midi.NoteOnEvent(tick=0, channel=2, data=[62, 79]),
   midi.NoteOnEvent(tick=240, channel=2, data=[62, 0]),
   midi.NoteOnEvent(tick=0, channel=2, data=[66, 79]),
   midi.NoteOnEvent(tick=240, channel=2, data=[66, 0]),
   midi.NoteOnEvent(tick=0, channel=2, data=[62, 79]),
   midi.NoteOnEvent(tick=240, channel=2, data=[62, 0]),
   midi.NoteOnEvent(tick=0, channel=2, data=[66, 79]),
   midi.NoteOnEvent(tick=240, channel=2, data=[66, 0]),
   midi.NoteOnEvent(tick=0, channel=2, data=[62, 79]),
   midi.NoteOnEvent(tick=480, channel=2, data=[62, 0]),
   midi.NoteOnEvent(tick=480, channel=2, data=[61, 79]),
   midi.NoteOnEvent(tick=480, channel=2, data=[61, 0]),
   midi.NoteOnEvent(tick=0, channel=2, data=[62, 79]),
   midi.NoteOnEvent(tick=960, channel=2, data=[62, 0]),
   midi.NoteOnEvent(tick=0, channel=2, data=[61, 79]),
   midi.NoteOnEvent(tick=480, channel=2, data=[61, 0]),
   midi.NoteOnEvent(tick=0, channel=2, data=[62, 79]),
   midi.NoteOnEvent(tick=480, channel=2, data=[62, 0]),
   midi.NoteOnEvent(tick=0, channel=2, data=[62, 79]),
   midi.NoteOnEvent(tick=960, channel=2, data=[62, 0]),
   midi.NoteOnEvent(tick=0, channel=2, data=[62, 79]),
   midi.NoteOnEvent(tick=480, channel=2, data=[62, 0]),
   midi.NoteOnEvent(tick=0, channel=2, data=[62, 79]),
   midi.NoteOnEvent(tick=480, channel=2, data=[62, 0]),
   midi.NoteOnEvent(tick=3360, channel=2, data=[69, 79]),
   midi.NoteOnEvent(tick=1440, channel=2, data=[69, 0]),
   midi.NoteOnEvent(tick=0, channel=2, data=[67, 79]),
   midi.NoteOnEvent(tick=480, channel=2, data=[67, 0]),
   midi.NoteOnEvent(tick=0, channel=2, data=[66, 79]),
   midi.NoteOnEvent(tick=480, channel=2, data=[66, 0]),
   midi.NoteOnEvent(tick=0, channel=2, data=[62, 79]),
   midi.NoteOnEvent(tick=960, channel=2, data=[62, 0]),
   midi.NoteOnEvent(tick=0, channel=2, data=[62, 79]),
   midi.NoteOnEvent(tick=480, channel=2, data=[62, 0]),
   midi.NoteOnEvent(tick=0, channel=2, data=[62, 79]),
   midi.NoteOnEvent(tick=480, channel=2, data=[62, 0]),
   midi.NoteOnEvent(tick=3360, channel=2, data=[69, 79]),
   midi.NoteOnEvent(tick=1440, channel=2, data=[69, 0]),
   midi.NoteOnEvent(tick=0, channel=2, data=[67, 79]),
   midi.NoteOnEvent(tick=480, channel=2, data=[67, 0]),
   midi.NoteOnEvent(tick=0, channel=2, data=[66, 79]),
   midi.NoteOnEvent(tick=480, channel=2, data=[66, 0]),
   midi.NoteOnEvent(tick=0, channel=2, data=[72, 79]),
   midi.NoteOnEvent(tick=120, channel=2, data=[72, 0]),
   midi.NoteOnEvent(tick=0, channel=2, data=[71, 79]),
   midi.NoteOnEvent(tick=120, channel=2, data=[71, 0]),
   midi.NoteOnEvent(tick=0, channel=2, data=[69, 79]),
   midi.NoteOnEvent(tick=120, channel=2, data=[69, 0]),
   midi.NoteOnEvent(tick=0, channel=2, data=[67, 79]),
   midi.NoteOnEvent(tick=120, channel=2, data=[67, 0]),
   midi.NoteOnEvent(tick=0, channel=2, data=[69, 79]),
   midi.NoteOnEvent(tick=240, channel=2, data=[69, 0]),
   midi.NoteOnEvent(tick=0, channel=2, data=[66, 79]),
   midi.NoteOnEvent(tick=240, channel=2, data=[66, 0]),
   midi.NoteOnEvent(tick=0, channel=2, data=[64, 79]),
   midi.NoteOnEvent(tick=480, channel=2, data=[64, 0]),
   midi.NoteOnEvent(tick=0, channel=2, data=[62, 79]),
   midi.NoteOnEvent(tick=1440, channel=2, data=[62, 0]),
   midi.NoteOnEvent(tick=0, channel=2, data=[64, 79]),
   midi.NoteOnEvent(tick=480, channel=2, data=[64, 0]),
   midi.NoteOnEvent(tick=0, channel=2, data=[62, 79]),
   midi.NoteOnEvent(tick=480, channel=2, data=[62, 0]),
   midi.NoteOnEvent(tick=0, channel=2, data=[62, 79]),
   midi.NoteOnEvent(tick=480, channel=2, data=[62, 0]),
   midi.NoteOnEvent(tick=0, channel=2, data=[62, 79]),
   midi.NoteOnEvent(tick=480, channel=2, data=[62, 0]),
   midi.NoteOnEvent(tick=480, channel=2, data=[74, 79]),
   midi.NoteOnEvent(tick=240, channel=2, data=[74, 0]),
   midi.NoteOnEvent(tick=0, channel=2, data=[73, 79]),
   midi.NoteOnEvent(tick=240, channel=2, data=[73, 0]),
   midi.NoteOnEvent(tick=0, channel=2, data=[71, 79]),
   midi.NoteOnEvent(tick=240, channel=2, data=[71, 0]),
   midi.NoteOnEvent(tick=0, channel=2, data=[69, 79]),
   midi.NoteOnEvent(tick=240, channel=2, data=[69, 0]),
   midi.NoteOnEvent(tick=0, channel=2, data=[71, 79]),
   midi.NoteOnEvent(tick=240, channel=2, data=[71, 0]),
   midi.NoteOnEvent(tick=0, channel=2, data=[69, 79]),
   midi.NoteOnEvent(tick=240, channel=2, data=[69, 0]),
   midi.NoteOnEvent(tick=0, channel=2, data=[67, 79]),
   midi.NoteOnEvent(tick=240, channel=2, data=[67, 0]),
   midi.NoteOnEvent(tick=0, channel=2, data=[66, 79]),
   midi.NoteOnEvent(tick=240, channel=2, data=[66, 0]),
   midi.NoteOnEvent(tick=0, channel=2, data=[67, 79]),
   midi.NoteOnEvent(tick=240, channel=2, data=[67, 0]),
   midi.NoteOnEvent(tick=0, channel=2, data=[66, 79]),
   midi.NoteOnEvent(tick=240, channel=2, data=[66, 0]),
   midi.NoteOnEvent(tick=0, channel=2, data=[67, 79]),
   midi.NoteOnEvent(tick=240, channel=2, data=[67, 0]),
   midi.NoteOnEvent(tick=0, channel=2, data=[64, 79]),
   midi.NoteOnEvent(tick=240, channel=2, data=[64, 0]),
   midi.NoteOnEvent(tick=0, channel=2, data=[69, 79]),
   midi.NoteOnEvent(tick=240, channel=2, data=[69, 0]),
   midi.NoteOnEvent(tick=0, channel=2, data=[67, 79]),
   midi.NoteOnEvent(tick=240, channel=2, data=[67, 0]),
   midi.NoteOnEvent(tick=0, channel=2, data=[69, 79]),
   midi.NoteOnEvent(tick=240, channel=2, data=[69, 0]),
   midi.NoteOnEvent(tick=0, channel=2, data=[57, 79]),
   midi.NoteOnEvent(tick=240, channel=2, data=[57, 0]),
   midi.NoteOnEvent(tick=0, channel=2, data=[62, 79]),
   midi.NoteOnEvent(tick=240, channel=2, data=[62, 0]),
   midi.NoteOnEvent(tick=0, channel=2, data=[61, 79]),
   midi.NoteOnEvent(tick=240, channel=2, data=[61, 0]),
   midi.NoteOnEvent(tick=0, channel=2, data=[62, 79]),
   midi.NoteOnEvent(tick=240, channel=2, data=[62, 0]),
   midi.NoteOnEvent(tick=0, channel=2, data=[64, 79]),
   midi.NoteOnEvent(tick=240, channel=2, data=[64, 0]),
   midi.NoteOnEvent(tick=0, channel=2, data=[66, 79]),
   midi.NoteOnEvent(tick=240, channel=2, data=[66, 0]),
   midi.NoteOnEvent(tick=0, channel=2, data=[64, 79]),
   midi.NoteOnEvent(tick=240, channel=2, data=[64, 0]),
   midi.NoteOnEvent(tick=0, channel=2, data=[66, 79]),
   midi.NoteOnEvent(tick=240, channel=2, data=[66, 0]),
   midi.NoteOnEvent(tick=0, channel=2, data=[62, 79]),
   midi.NoteOnEvent(tick=240, channel=2, data=[62, 0]),
   midi.NoteOnEvent(tick=0, channel=2, data=[61, 79]),
   midi.NoteOnEvent(tick=240, channel=2, data=[61, 0]),
   midi.NoteOnEvent(tick=0, channel=2, data=[62, 79]),
   midi.NoteOnEvent(tick=240, channel=2, data=[62, 0]),
   midi.NoteOnEvent(tick=0, channel=2, data=[64, 79]),
   midi.NoteOnEvent(tick=240, channel=2, data=[64, 0]),
   midi.NoteOnEvent(tick=0, channel=2, data=[62, 79]),
   midi.NoteOnEvent(tick=240, channel=2, data=[62, 0]),
   midi.NoteOnEvent(tick=0, channel=2, data=[61, 79]),
   midi.NoteOnEvent(tick=240, channel=2, data=[61, 0]),
   midi.NoteOnEvent(tick=0, channel=2, data=[57, 79]),
   midi.NoteOnEvent(tick=240, channel=2, data=[57, 0]),
   midi.NoteOnEvent(tick=0, channel=2, data=[59, 79]),
   midi.NoteOnEvent(tick=240, channel=2, data=[59, 0]),
   midi.NoteOnEvent(tick=0, channel=2, data=[61, 79]),
   midi.NoteOnEvent(tick=240, channel=2, data=[61, 0]),
   midi.NoteOnEvent(tick=0, channel=2, data=[62, 79]),
   midi.NoteOnEvent(tick=240, channel=2, data=[62, 0]),
   midi.NoteOnEvent(tick=0, channel=2, data=[61, 79]),
   midi.NoteOnEvent(tick=240, channel=2, data=[61, 0]),
   midi.NoteOnEvent(tick=0, channel=2, data=[59, 79]),
   midi.NoteOnEvent(tick=240, channel=2, data=[59, 0]),
   midi.NoteOnEvent(tick=0, channel=2, data=[57, 79]),
   midi.NoteOnEvent(tick=240, channel=2, data=[57, 0]),
   midi.NoteOnEvent(tick=0, channel=2, data=[59, 79]),
   midi.NoteOnEvent(tick=240, channel=2, data=[59, 0]),
   midi.NoteOnEvent(tick=0, channel=2, data=[57, 79]),
   midi.NoteOnEvent(tick=240, channel=2, data=[57, 0]),
   midi.NoteOnEvent(tick=0, channel=2, data=[55, 79]),
   midi.NoteOnEvent(tick=240, channel=2, data=[55, 0]),
   midi.NoteOnEvent(tick=0, channel=2, data=[54, 79]),
   midi.NoteOnEvent(tick=240, channel=2, data=[54, 0]),
   midi.NoteOnEvent(tick=0, channel=2, data=[55, 79]),
   midi.NoteOnEvent(tick=240, channel=2, data=[55, 0]),
   midi.NoteOnEvent(tick=0, channel=2, data=[54, 79]),
   midi.NoteOnEvent(tick=240, channel=2, data=[54, 0]),
   midi.NoteOnEvent(tick=0, channel=2, data=[55, 79]),
   midi.NoteOnEvent(tick=240, channel=2, data=[55, 0]),
   midi.NoteOnEvent(tick=0, channel=2, data=[52, 79]),
   midi.NoteOnEvent(tick=240, channel=2, data=[52, 0]),
   midi.NoteOnEvent(tick=0, channel=2, data=[57, 79]),
   midi.NoteOnEvent(tick=240, channel=2, data=[57, 0]),
   midi.NoteOnEvent(tick=0, channel=2, data=[55, 79]),
   midi.NoteOnEvent(tick=240, channel=2, data=[55, 0]),
   midi.NoteOnEvent(tick=0, channel=2, data=[54, 79]),
   midi.NoteOnEvent(tick=240, channel=2, data=[54, 0]),
   midi.NoteOnEvent(tick=0, channel=2, data=[52, 79]),
   midi.NoteOnEvent(tick=240, channel=2, data=[52, 0]),
   midi.NoteOnEvent(tick=0, channel=2, data=[50, 79]),
   midi.NoteOnEvent(tick=1920, channel=2, data=[50, 0]),
   midi.NoteOnEvent(tick=0, channel=2, data=[50, 79]),
   midi.NoteOnEvent(tick=480, channel=2, data=[50, 0]),
   midi.NoteOnEvent(tick=3360, channel=2, data=[55, 79]),
   midi.NoteOnEvent(tick=1920, channel=2, data=[55, 0]),
   midi.NoteOnEvent(tick=0, channel=2, data=[57, 79]),
   midi.NoteOnEvent(tick=1920, channel=2, data=[57, 0]),
   midi.NoteOnEvent(tick=0, channel=2, data=[62, 79]),
   midi.NoteOnEvent(tick=480, channel=2, data=[62, 0]),
   midi.ControlChangeEvent(tick=1440, channel=2, data=[7, 104]),
   midi.NoteOnEvent(tick=0, channel=2, data=[62, 79]),
   midi.NoteOnEvent(tick=480, channel=2, data=[62, 0]),
   midi.NoteOnEvent(tick=1440, channel=2, data=[62, 79]),
   midi.NoteOnEvent(tick=480, channel=2, data=[62, 0]),
   midi.NoteOnEvent(tick=0, channel=2, data=[62, 79]),
   midi.NoteOnEvent(tick=480, channel=2, data=[62, 0]),
   midi.NoteOnEvent(tick=0, channel=2, data=[62, 79]),
   midi.NoteOnEvent(tick=480, channel=2, data=[62, 0]),
   midi.NoteOnEvent(tick=480, channel=2, data=[55, 79]),
   midi.NoteOnEvent(tick=240, channel=2, data=[55, 0]),
   midi.NoteOnEvent(tick=0, channel=2, data=[55, 79]),
   midi.NoteOnEvent(tick=240, channel=2, data=[55, 0]),
   midi.NoteOnEvent(tick=0, channel=2, data=[55, 79]),
   midi.NoteOnEvent(tick=240, channel=2, data=[55, 0]),
   midi.NoteOnEvent(tick=0, channel=2, data=[55, 79]),
   midi.NoteOnEvent(tick=240, channel=2, data=[55, 0]),
   midi.NoteOnEvent(tick=0, channel=2, data=[55, 79]),
   midi.NoteOnEvent(tick=240, channel=2, data=[55, 0]),
   midi.NoteOnEvent(tick=0, channel=2, data=[55, 79]),
   midi.NoteOnEvent(tick=240, channel=2, data=[55, 0]),
   midi.NoteOnEvent(tick=0, channel=2, data=[55, 79]),
   midi.NoteOnEvent(tick=240, channel=2, data=[55, 0]),
   midi.NoteOnEvent(tick=0, channel=2, data=[55, 79]),
   midi.NoteOnEvent(tick=240, channel=2, data=[55, 0]),
   midi.NoteOnEvent(tick=0, channel=2, data=[55, 79]),
   midi.NoteOnEvent(tick=240, channel=2, data=[55, 0]),
   midi.NoteOnEvent(tick=0, channel=2, data=[55, 79]),
   midi.NoteOnEvent(tick=240, channel=2, data=[55, 0]),
   midi.NoteOnEvent(tick=0, channel=2, data=[55, 79]),
   midi.NoteOnEvent(tick=240, channel=2, data=[55, 0]),
   midi.NoteOnEvent(tick=0, channel=2, data=[55, 79]),
   midi.NoteOnEvent(tick=240, channel=2, data=[55, 0]),
   midi.NoteOnEvent(tick=0, channel=2, data=[55, 79]),
   midi.NoteOnEvent(tick=480, channel=2, data=[55, 0]),
   midi.NoteOnEvent(tick=480, channel=2, data=[67, 79]),
   midi.NoteOnEvent(tick=960, channel=2, data=[67, 0]),
   midi.NoteOnEvent(tick=0, channel=2, data=[62, 79]),
   midi.NoteOnEvent(tick=960, channel=2, data=[62, 0]),
   midi.NoteOnEvent(tick=0, channel=2, data=[60, 79]),
   midi.NoteOnEvent(tick=240, channel=2, data=[60, 0]),
   midi.NoteOnEvent(tick=0, channel=2, data=[59, 79]),
   midi.NoteOnEvent(tick=240, channel=2, data=[59, 0]),
   midi.NoteOnEvent(tick=0, channel=2, data=[57, 79]),
   midi.NoteOnEvent(tick=240, channel=2, data=[57, 0]),
   midi.NoteOnEvent(tick=0, channel=2, data=[55, 79]),
   midi.NoteOnEvent(tick=240, channel=2, data=[55, 0]),
   midi.NoteOnEvent(tick=0, channel=2, data=[62, 79]),
   midi.NoteOnEvent(tick=480, channel=2, data=[62, 0]),
   midi.NoteOnEvent(tick=0, channel=2, data=[50, 79]),
   midi.NoteOnEvent(tick=480, channel=2, data=[50, 0]),
   midi.NoteOnEvent(tick=0, channel=2, data=[55, 79]),
   midi.NoteOnEvent(tick=240, channel=2, data=[55, 0]),
   midi.NoteOnEvent(tick=0, channel=2, data=[55, 79]),
   midi.NoteOnEvent(tick=240, channel=2, data=[55, 0]),
   midi.NoteOnEvent(tick=0, channel=2, data=[55, 79]),
   midi.NoteOnEvent(tick=240, channel=2, data=[55, 0]),
   midi.NoteOnEvent(tick=0, channel=2, data=[55, 79]),
   midi.NoteOnEvent(tick=240, channel=2, data=[55, 0]),
   midi.NoteOnEvent(tick=0, channel=2, data=[55, 79]),
   midi.NoteOnEvent(tick=240, channel=2, data=[55, 0]),
   midi.NoteOnEvent(tick=0, channel=2, data=[55, 79]),
   midi.NoteOnEvent(tick=240, channel=2, data=[55, 0]),
   midi.NoteOnEvent(tick=0, channel=2, data=[55, 79]),
   midi.NoteOnEvent(tick=240, channel=2, data=[55, 0]),
   midi.NoteOnEvent(tick=0, channel=2, data=[55, 79]),
   midi.NoteOnEvent(tick=240, channel=2, data=[55, 0]),
   midi.NoteOnEvent(tick=0, channel=2, data=[55, 79]),
   midi.NoteOnEvent(tick=240, channel=2, data=[55, 0]),
   midi.NoteOnEvent(tick=0, channel=2, data=[55, 79]),
   midi.NoteOnEvent(tick=240, channel=2, data=[55, 0]),
   midi.NoteOnEvent(tick=0, channel=2, data=[55, 79]),
   midi.NoteOnEvent(tick=240, channel=2, data=[55, 0]),
   midi.NoteOnEvent(tick=0, channel=2, data=[55, 79]),
   midi.NoteOnEvent(tick=240, channel=2, data=[55, 0]),
   midi.NoteOnEvent(tick=0, channel=2, data=[55, 79]),
   midi.NoteOnEvent(tick=240, channel=2, data=[55, 0]),
   midi.NoteOnEvent(tick=720, channel=2, data=[67, 79]),
   midi.NoteOnEvent(tick=960, channel=2, data=[67, 0]),
   midi.NoteOnEvent(tick=0, channel=2, data=[62, 79]),
   midi.NoteOnEvent(tick=960, channel=2, data=[62, 0]),
   midi.NoteOnEvent(tick=0, channel=2, data=[60, 79]),
   midi.NoteOnEvent(tick=60, channel=2, data=[60, 0]),
   midi.NoteOnEvent(tick=0, channel=2, data=[59, 79]),
   midi.NoteOnEvent(tick=60, channel=2, data=[59, 0]),
   midi.NoteOnEvent(tick=0, channel=2, data=[59, 79]),
   midi.NoteOnEvent(tick=360, channel=2, data=[59, 0]),
   midi.NoteOnEvent(tick=0, channel=2, data=[57, 79]),
   midi.NoteOnEvent(tick=240, channel=2, data=[57, 0]),
   midi.NoteOnEvent(tick=0, channel=2, data=[55, 79]),
   midi.NoteOnEvent(tick=240, channel=2, data=[55, 0]),
   midi.NoteOnEvent(tick=0, channel=2, data=[62, 79]),
   midi.NoteOnEvent(tick=480, channel=2, data=[62, 0]),
   midi.NoteOnEvent(tick=0, channel=2, data=[50, 79]),
   midi.NoteOnEvent(tick=480, channel=2, data=[50, 0]),
   midi.NoteOnEvent(tick=0, channel=2, data=[55, 79]),
   midi.NoteOnEvent(tick=120, channel=2, data=[55, 0]),
   midi.NoteOnEvent(tick=0, channel=2, data=[59, 79]),
   midi.NoteOnEvent(tick=120, channel=2, data=[59, 0]),
   midi.NoteOnEvent(tick=0, channel=2, data=[59, 79]),
   midi.NoteOnEvent(tick=120, channel=2, data=[59, 0]),
   midi.NoteOnEvent(tick=0, channel=2, data=[59, 79]),
   midi.NoteOnEvent(tick=120, channel=2, data=[59, 0]),
   midi.NoteOnEvent(tick=0, channel=2, data=[59, 79]),
   midi.NoteOnEvent(tick=120, channel=2, data=[59, 0]),
   midi.NoteOnEvent(tick=0, channel=2, data=[59, 79]),
   midi.NoteOnEvent(tick=120, channel=2, data=[59, 0]),
   midi.NoteOnEvent(tick=0, channel=2, data=[59, 79]),
   midi.NoteOnEvent(tick=120, channel=2, data=[59, 0]),
   midi.NoteOnEvent(tick=0, channel=2, data=[59, 79]),
   midi.NoteOnEvent(tick=120, channel=2, data=[59, 0]),
   midi.NoteOnEvent(tick=0, channel=2, data=[59, 79]),
   midi.NoteOnEvent(tick=960, channel=2, data=[59, 0]),
   midi.NoteOnEvent(tick=0, channel=2, data=[60, 79]),
   midi.NoteOnEvent(tick=960, channel=2, data=[60, 0]),
   midi.NoteOnEvent(tick=0, channel=2, data=[60, 79]),
   midi.NoteOnEvent(tick=960, channel=2, data=[60, 0]),
   midi.NoteOnEvent(tick=0, channel=2, data=[59, 79]),
   midi.NoteOnEvent(tick=960, channel=2, data=[59, 0]),
   midi.NoteOnEvent(tick=0, channel=2, data=[59, 79]),
   midi.NoteOnEvent(tick=960, channel=2, data=[59, 0]),
   midi.NoteOnEvent(tick=0, channel=2, data=[60, 79]),
   midi.NoteOnEvent(tick=960, channel=2, data=[60, 0]),
   midi.NoteOnEvent(tick=0, channel=2, data=[60, 79]),
   midi.NoteOnEvent(tick=960, channel=2, data=[60, 0]),
   midi.NoteOnEvent(tick=0, channel=2, data=[59, 79]),
   midi.NoteOnEvent(tick=240, channel=2, data=[59, 0]),
   midi.NoteOnEvent(tick=0, channel=2, data=[55, 79]),
   midi.NoteOnEvent(tick=240, channel=2, data=[55, 0]),
   midi.NoteOnEvent(tick=0, channel=2, data=[57, 79]),
   midi.NoteOnEvent(tick=240, channel=2, data=[57, 0]),
   midi.NoteOnEvent(tick=0, channel=2, data=[59, 79]),
   midi.NoteOnEvent(tick=240, channel=2, data=[59, 0]),
   midi.NoteOnEvent(tick=0, channel=2, data=[60, 79]),
   midi.NoteOnEvent(tick=240, channel=2, data=[60, 0]),
   midi.NoteOnEvent(tick=0, channel=2, data=[62, 79]),
   midi.NoteOnEvent(tick=240, channel=2, data=[62, 0]),
   midi.NoteOnEvent(tick=0, channel=2, data=[64, 79]),
   midi.NoteOnEvent(tick=240, channel=2, data=[64, 0]),
   midi.NoteOnEvent(tick=0, channel=2, data=[66, 79]),
   midi.NoteOnEvent(tick=240, channel=2, data=[66, 0]),
   midi.NoteOnEvent(tick=0, channel=2, data=[67, 79]),
   midi.NoteOnEvent(tick=240, channel=2, data=[67, 0]),
   midi.NoteOnEvent(tick=0, channel=2, data=[66, 79]),
   midi.NoteOnEvent(tick=240, channel=2, data=[66, 0]),
   midi.NoteOnEvent(tick=0, channel=2, data=[64, 79]),
   midi.NoteOnEvent(tick=240, channel=2, data=[64, 0]),
   midi.NoteOnEvent(tick=0, channel=2, data=[62, 79]),
   midi.NoteOnEvent(tick=240, channel=2, data=[62, 0]),
   midi.NoteOnEvent(tick=0, channel=2, data=[60, 79]),
   midi.NoteOnEvent(tick=240, channel=2, data=[60, 0]),
   midi.NoteOnEvent(tick=0, channel=2, data=[59, 79]),
   midi.NoteOnEvent(tick=240, channel=2, data=[59, 0]),
   midi.NoteOnEvent(tick=0, channel=2, data=[57, 79]),
   midi.NoteOnEvent(tick=240, channel=2, data=[57, 0]),
   midi.NoteOnEvent(tick=0, channel=2, data=[55, 79]),
   midi.NoteOnEvent(tick=240, channel=2, data=[55, 0]),
   midi.NoteOnEvent(tick=0, channel=2, data=[62, 79]),
   midi.NoteOnEvent(tick=480, channel=2, data=[62, 0]),
   midi.NoteOnEvent(tick=0, channel=2, data=[74, 79]),
   midi.NoteOnEvent(tick=480, channel=2, data=[74, 0]),
   midi.NoteOnEvent(tick=0, channel=2, data=[62, 79]),
   midi.NoteOnEvent(tick=480, channel=2, data=[62, 0]),
   midi.NoteOnEvent(tick=4320, channel=2, data=[55, 79]),
   midi.NoteOnEvent(tick=960, channel=2, data=[55, 0]),
   midi.NoteOnEvent(tick=0, channel=2, data=[59, 79]),
   midi.NoteOnEvent(tick=480, channel=2, data=[59, 0]),
   midi.NoteOnEvent(tick=0, channel=2, data=[62, 79]),
   midi.NoteOnEvent(tick=480, channel=2, data=[62, 0]),
   midi.NoteOnEvent(tick=0, channel=2, data=[62, 79]),
   midi.NoteOnEvent(tick=480, channel=2, data=[62, 0]),
   midi.NoteOnEvent(tick=0, channel=2, data=[62, 79]),
   midi.NoteOnEvent(tick=960, channel=2, data=[62, 0]),
   midi.NoteOnEvent(tick=0, channel=2, data=[62, 79]),
   midi.NoteOnEvent(tick=480, channel=2, data=[62, 0]),
   midi.NoteOnEvent(tick=0, channel=2, data=[62, 79]),
   midi.NoteOnEvent(tick=480, channel=2, data=[62, 0]),
   midi.NoteOnEvent(tick=1440, channel=2, data=[55, 79]),
   midi.NoteOnEvent(tick=240, channel=2, data=[55, 0]),
   midi.NoteOnEvent(tick=0, channel=2, data=[59, 79]),
   midi.NoteOnEvent(tick=240, channel=2, data=[59, 0]),
   midi.NoteOnEvent(tick=0, channel=2, data=[55, 79]),
   midi.NoteOnEvent(tick=240, channel=2, data=[55, 0]),
   midi.NoteOnEvent(tick=0, channel=2, data=[59, 79]),
   midi.NoteOnEvent(tick=240, channel=2, data=[59, 0]),
   midi.NoteOnEvent(tick=0, channel=2, data=[55, 79]),
   midi.NoteOnEvent(tick=480, channel=2, data=[55, 0]),
   midi.NoteOnEvent(tick=480, channel=2, data=[54, 79]),
   midi.NoteOnEvent(tick=480, channel=2, data=[54, 0]),
   midi.NoteOnEvent(tick=0, channel=2, data=[55, 79]),
   midi.NoteOnEvent(tick=960, channel=2, data=[55, 0]),
   midi.NoteOnEvent(tick=0, channel=2, data=[54, 79]),
   midi.NoteOnEvent(tick=480, channel=2, data=[54, 0]),
   midi.NoteOnEvent(tick=0, channel=2, data=[55, 79]),
   midi.NoteOnEvent(tick=240, channel=2, data=[55, 0]),
   midi.NoteOnEvent(tick=0, channel=2, data=[59, 79]),
   midi.NoteOnEvent(tick=240, channel=2, data=[59, 0]),
   midi.NoteOnEvent(tick=0, channel=2, data=[55, 79]),
   midi.NoteOnEvent(tick=240, channel=2, data=[55, 0]),
   midi.NoteOnEvent(tick=0, channel=2, data=[59, 79]),
   midi.NoteOnEvent(tick=240, channel=2, data=[59, 0]),
   midi.NoteOnEvent(tick=0, channel=2, data=[55, 79]),
   midi.NoteOnEvent(tick=480, channel=2, data=[55, 0]),
   midi.NoteOnEvent(tick=480, channel=2, data=[54, 79]),
   midi.NoteOnEvent(tick=480, channel=2, data=[54, 0]),
   midi.NoteOnEvent(tick=0, channel=2, data=[55, 79]),
   midi.NoteOnEvent(tick=960, channel=2, data=[55, 0]),
   midi.NoteOnEvent(tick=0, channel=2, data=[54, 79]),
   midi.NoteOnEvent(tick=480, channel=2, data=[54, 0]),
   midi.NoteOnEvent(tick=0, channel=2, data=[55, 79]),
   midi.NoteOnEvent(tick=480, channel=2, data=[55, 0]),
   midi.NoteOnEvent(tick=0, channel=2, data=[67, 79]),
   midi.NoteOnEvent(tick=960, channel=2, data=[67, 0]),
   midi.NoteOnEvent(tick=0, channel=2, data=[67, 79]),
   midi.NoteOnEvent(tick=480, channel=2, data=[67, 0]),
   midi.NoteOnEvent(tick=0, channel=2, data=[67, 79]),
   midi.NoteOnEvent(tick=480, channel=2, data=[67, 0]),
   midi.NoteOnEvent(tick=3360, channel=2, data=[62, 79]),
   midi.NoteOnEvent(tick=1440, channel=2, data=[62, 0]),
   midi.NoteOnEvent(tick=0, channel=2, data=[60, 79]),
   midi.NoteOnEvent(tick=480, channel=2, data=[60, 0]),
   midi.NoteOnEvent(tick=0, channel=2, data=[59, 79]),
   midi.NoteOnEvent(tick=480, channel=2, data=[59, 0]),
   midi.NoteOnEvent(tick=0, channel=2, data=[55, 79]),
   midi.NoteOnEvent(tick=960, channel=2, data=[55, 0]),
   midi.NoteOnEvent(tick=0, channel=2, data=[67, 79]),
   midi.NoteOnEvent(tick=480, channel=2, data=[67, 0]),
   midi.NoteOnEvent(tick=0, channel=2, data=[67, 79]),
   midi.NoteOnEvent(tick=480, channel=2, data=[67, 0]),
   midi.NoteOnEvent(tick=3360, channel=2, data=[62, 79]),
   midi.NoteOnEvent(tick=1440, channel=2, data=[62, 0]),
   midi.NoteOnEvent(tick=0, channel=2, data=[60, 79]),
   midi.NoteOnEvent(tick=480, channel=2, data=[60, 0]),
   midi.NoteOnEvent(tick=0, channel=2, data=[59, 79]),
   midi.NoteOnEvent(tick=480, channel=2, data=[59, 0]),
   midi.NoteOnEvent(tick=0, channel=2, data=[66, 79]),
   midi.NoteOnEvent(tick=120, channel=2, data=[66, 0]),
   midi.NoteOnEvent(tick=0, channel=2, data=[64, 79]),
   midi.NoteOnEvent(tick=120, channel=2, data=[64, 0]),
   midi.NoteOnEvent(tick=0, channel=2, data=[62, 79]),
   midi.NoteOnEvent(tick=120, channel=2, data=[62, 0]),
   midi.NoteOnEvent(tick=0, channel=2, data=[60, 79]),
   midi.NoteOnEvent(tick=120, channel=2, data=[60, 0]),
   midi.NoteOnEvent(tick=0, channel=2, data=[62, 79]),
   midi.NoteOnEvent(tick=240, channel=2, data=[62, 0]),
   midi.NoteOnEvent(tick=0, channel=2, data=[59, 79]),
   midi.NoteOnEvent(tick=240, channel=2, data=[59, 0]),
   midi.NoteOnEvent(tick=0, channel=2, data=[57, 79]),
   midi.NoteOnEvent(tick=480, channel=2, data=[57, 0]),
   midi.NoteOnEvent(tick=0, channel=2, data=[55, 79]),
   midi.NoteOnEvent(tick=480, channel=2, data=[55, 0]),
   midi.NoteOnEvent(tick=0, channel=2, data=[55, 79]),
   midi.NoteOnEvent(tick=960, channel=2, data=[55, 0]),
   midi.NoteOnEvent(tick=0, channel=2, data=[57, 79]),
   midi.NoteOnEvent(tick=480, channel=2, data=[57, 0]),
   midi.NoteOnEvent(tick=0, channel=2, data=[55, 79]),
   midi.NoteOnEvent(tick=480, channel=2, data=[55, 0]),
   midi.NoteOnEvent(tick=0, channel=2, data=[55, 79]),
   midi.NoteOnEvent(tick=480, channel=2, data=[55, 0]),
   midi.NoteOnEvent(tick=0, channel=2, data=[55, 79]),
   midi.NoteOnEvent(tick=480, channel=2, data=[55, 0]),
   midi.NoteOnEvent(tick=4320, channel=2, data=[64, 79]),
   midi.NoteOnEvent(tick=240, channel=2, data=[64, 0]),
   midi.NoteOnEvent(tick=240, channel=2, data=[59, 79]),
   midi.NoteOnEvent(tick=960, channel=2, data=[59, 0]),
   midi.NoteOnEvent(tick=0, channel=2, data=[57, 79]),
   midi.NoteOnEvent(tick=480, channel=2, data=[57, 0]),
   midi.NoteOnEvent(tick=0, channel=2, data=[62, 79]),
   midi.NoteOnEvent(tick=480, channel=2, data=[62, 0]),
   midi.NoteOnEvent(tick=0, channel=2, data=[66, 79]),
   midi.NoteOnEvent(tick=480, channel=2, data=[66, 0]),
   midi.NoteOnEvent(tick=0, channel=2, data=[67, 79]),
   midi.NoteOnEvent(tick=480, channel=2, data=[67, 0]),
   midi.NoteOnEvent(tick=0, channel=2, data=[69, 79]),
   midi.NoteOnEvent(tick=240, channel=2, data=[69, 0]),
   midi.NoteOnEvent(tick=240, channel=2, data=[62, 79]),
   midi.NoteOnEvent(tick=960, channel=2, data=[62, 0]),
   midi.NoteOnEvent(tick=0, channel=2, data=[60, 79]),
   midi.NoteOnEvent(tick=240, channel=2, data=[60, 0]),
   midi.NoteOnEvent(tick=240, channel=2, data=[59, 79]),
   midi.NoteOnEvent(tick=240, channel=2, data=[59, 0]),
   midi.NoteOnEvent(tick=240, channel=2, data=[57, 79]),
   midi.NoteOnEvent(tick=240, channel=2, data=[57, 0]),
   midi.NoteOnEvent(tick=240, channel=2, data=[55, 79]),
   midi.NoteOnEvent(tick=960, channel=2, data=[55, 0]),
   midi.NoteOnEvent(tick=4320, channel=2, data=[64, 79]),
   midi.NoteOnEvent(tick=240, channel=2, data=[64, 0]),
   midi.NoteOnEvent(tick=240, channel=2, data=[59, 79]),
   midi.NoteOnEvent(tick=960, channel=2, data=[59, 0]),
   midi.NoteOnEvent(tick=0, channel=2, data=[57, 79]),
   midi.NoteOnEvent(tick=480, channel=2, data=[57, 0]),
   midi.NoteOnEvent(tick=0, channel=2, data=[62, 79]),
   midi.NoteOnEvent(tick=480, channel=2, data=[62, 0]),
   midi.NoteOnEvent(tick=0, channel=2, data=[66, 79]),
   midi.NoteOnEvent(tick=480, channel=2, data=[66, 0]),
   midi.NoteOnEvent(tick=0, channel=2, data=[67, 79]),
   midi.NoteOnEvent(tick=480, channel=2, data=[67, 0]),
   midi.NoteOnEvent(tick=0, channel=2, data=[69, 79]),
   midi.NoteOnEvent(tick=240, channel=2, data=[69, 0]),
   midi.NoteOnEvent(tick=240, channel=2, data=[62, 79]),
   midi.NoteOnEvent(tick=960, channel=2, data=[62, 0]),
   midi.NoteOnEvent(tick=0, channel=2, data=[60, 79]),
   midi.NoteOnEvent(tick=240, channel=2, data=[60, 0]),
   midi.NoteOnEvent(tick=240, channel=2, data=[59, 79]),
   midi.NoteOnEvent(tick=240, channel=2, data=[59, 0]),
   midi.NoteOnEvent(tick=240, channel=2, data=[57, 79]),
   midi.NoteOnEvent(tick=240, channel=2, data=[57, 0]),
   midi.NoteOnEvent(tick=240, channel=2, data=[55, 79]),
   midi.NoteOnEvent(tick=960, channel=2, data=[55, 0]),
   midi.ControlChangeEvent(tick=528, channel=2, data=[7, 108]),
   midi.NoteOnEvent(tick=432, channel=2, data=[62, 36]),
   midi.ControlChangeEvent(tick=96, channel=2, data=[7, 81]),
   midi.NoteOnEvent(tick=144, channel=2, data=[62, 0]),
   midi.NoteOnEvent(tick=0, channel=2, data=[66, 36]),
   midi.NoteOnEvent(tick=240, channel=2, data=[66, 0]),
   midi.NoteOnEvent(tick=0, channel=2, data=[69, 36]),
   midi.ControlChangeEvent(tick=143, channel=2, data=[7, 54]),
   midi.NoteOnEvent(tick=97, channel=2, data=[69, 0]),
   midi.ControlChangeEvent(tick=192, channel=2, data=[7, 104]),
   midi.NoteOnEvent(tick=528, channel=2, data=[57, 36]),
   midi.ControlChangeEvent(tick=72, channel=2, data=[7, 81]),
   midi.NoteOnEvent(tick=168, channel=2, data=[57, 0]),
   midi.NoteOnEvent(tick=0, channel=2, data=[62, 36]),
   midi.NoteOnEvent(tick=240, channel=2, data=[62, 0]),
   midi.NoteOnEvent(tick=0, channel=2, data=[66, 36]),
   midi.ControlChangeEvent(tick=191, channel=2, data=[7, 58]),
   midi.NoteOnEvent(tick=49, channel=2, data=[66, 0]),
   midi.ControlChangeEvent(tick=192, channel=2, data=[7, 108]),
   midi.ControlChangeEvent(tick=696, channel=2, data=[7, 84]),
   midi.NoteOnEvent(tick=312, channel=2, data=[67, 36]),
   midi.NoteOnEvent(tick=240, channel=2, data=[67, 0]),
   midi.ControlChangeEvent(tick=143, channel=2, data=[7, 60]),
   midi.ControlChangeEvent(tick=1, channel=2, data=[7, 82]),
   midi.NoteOnEvent(tick=96, channel=2, data=[66, 36]),
   midi.ControlChangeEvent(tick=95, channel=2, data=[7, 82]),
   midi.ControlChangeEvent(tick=49, channel=2, data=[7, 64]),
   midi.NoteOnEvent(tick=816, channel=2, data=[66, 0]),
   midi.NoteOnEvent(tick=0, channel=2, data=[64, 36]),
   midi.NoteOnEvent(tick=480, channel=2, data=[64, 0]),
   midi.NoteOnEvent(tick=480, channel=2, data=[61, 36]),
   midi.NoteOnEvent(tick=480, channel=2, data=[61, 0]),
   midi.NoteOnEvent(tick=0, channel=2, data=[62, 36]),
   midi.NoteOnEvent(tick=480, channel=2, data=[62, 0]),
   midi.NoteOnEvent(tick=0, channel=2, data=[62, 36]),
   midi.NoteOnEvent(tick=480, channel=2, data=[62, 0]),
   midi.NoteOnEvent(tick=0, channel=2, data=[66, 36]),
   midi.NoteOnEvent(tick=480, channel=2, data=[66, 0]),
   midi.NoteOnEvent(tick=0, channel=2, data=[67, 36]),
   midi.NoteOnEvent(tick=480, channel=2, data=[67, 0]),
   midi.NoteOnEvent(tick=0, channel=2, data=[66, 36]),
   midi.NoteOnEvent(tick=240, channel=2, data=[66, 0]),
   midi.NoteOnEvent(tick=240, channel=2, data=[69, 36]),
   midi.NoteOnEvent(tick=240, channel=2, data=[69, 0]),
   midi.NoteOnEvent(tick=0, channel=2, data=[66, 36]),
   midi.NoteOnEvent(tick=240, channel=2, data=[66, 0]),
   midi.NoteOnEvent(tick=0, channel=2, data=[67, 36]),
   midi.NoteOnEvent(tick=240, channel=2, data=[67, 0]),
   midi.NoteOnEvent(tick=0, channel=2, data=[64, 36]),
   midi.NoteOnEvent(tick=240, channel=2, data=[64, 0]),
   midi.NoteOnEvent(tick=0, channel=2, data=[62, 36]),
   midi.NoteOnEvent(tick=480, channel=2, data=[62, 0]),
   midi.ControlChangeEvent(tick=384, channel=2, data=[7, 63]),
   midi.NoteOnEvent(tick=3456, channel=2, data=[48, 36]),
   midi.NoteOnEvent(tick=240, channel=2, data=[48, 0]),
   midi.NoteOnEvent(tick=240, channel=2, data=[60, 36]),
   midi.NoteOnEvent(tick=240, channel=2, data=[60, 0]),
   midi.NoteOnEvent(tick=240, channel=2, data=[61, 36]),
   midi.NoteOnEvent(tick=240, channel=2, data=[61, 0]),
   midi.NoteOnEvent(tick=240, channel=2, data=[62, 36]),
   midi.NoteOnEvent(tick=240, channel=2, data=[62, 0]),
   midi.NoteOnEvent(tick=240, channel=2, data=[57, 36]),
   midi.NoteOnEvent(tick=240, channel=2, data=[57, 0]),
   midi.NoteOnEvent(tick=240, channel=2, data=[50, 36]),
   midi.NoteOnEvent(tick=240, channel=2, data=[50, 0]),
   midi.ControlChangeEvent(tick=240, channel=2, data=[7, 100]),
   midi.NoteOnEvent(tick=3840, channel=2, data=[64, 36]),
   midi.NoteOnEvent(tick=240, channel=2, data=[64, 0]),
   midi.NoteOnEvent(tick=240, channel=2, data=[59, 36]),
   midi.NoteOnEvent(tick=960, channel=2, data=[59, 0]),
   midi.NoteOnEvent(tick=0, channel=2, data=[57, 36]),
   midi.NoteOnEvent(tick=480, channel=2, data=[57, 0]),
   midi.NoteOnEvent(tick=0, channel=2, data=[62, 36]),
   midi.NoteOnEvent(tick=480, channel=2, data=[62, 0]),
   midi.NoteOnEvent(tick=0, channel=2, data=[66, 36]),
   midi.NoteOnEvent(tick=480, channel=2, data=[66, 0]),
   midi.NoteOnEvent(tick=0, channel=2, data=[67, 36]),
   midi.NoteOnEvent(tick=480, channel=2, data=[67, 0]),
   midi.NoteOnEvent(tick=0, channel=2, data=[69, 36]),
   midi.NoteOnEvent(tick=240, channel=2, data=[69, 0]),
   midi.NoteOnEvent(tick=240, channel=2, data=[62, 36]),
   midi.NoteOnEvent(tick=960, channel=2, data=[62, 0]),
   midi.NoteOnEvent(tick=480, channel=2, data=[62, 36]),
   midi.NoteOnEvent(tick=240, channel=2, data=[62, 0]),
   midi.NoteOnEvent(tick=240, channel=2, data=[62, 36]),
   midi.NoteOnEvent(tick=240, channel=2, data=[62, 0]),
   midi.NoteOnEvent(tick=240, channel=2, data=[62, 36]),
   midi.NoteOnEvent(tick=960, channel=2, data=[62, 0]),
   midi.ControlChangeEvent(tick=480, channel=2, data=[7, 106]),
   midi.NoteOnEvent(tick=480, channel=2, data=[62, 36]),
   midi.ControlChangeEvent(tick=216, channel=2, data=[7, 79]),
   midi.NoteOnEvent(tick=24, channel=2, data=[62, 0]),
   midi.NoteOnEvent(tick=0, channel=2, data=[66, 36]),
   midi.NoteOnEvent(tick=240, channel=2, data=[66, 0]),
   midi.NoteOnEvent(tick=0, channel=2, data=[69, 36]),
   midi.ControlChangeEvent(tick=431, channel=2, data=[7, 52]),
   midi.NoteOnEvent(tick=49, channel=2, data=[69, 0]),
   midi.ControlChangeEvent(tick=48, channel=2, data=[7, 106]),
   midi.NoteOnEvent(tick=432, channel=2, data=[57, 36]),
   midi.ControlChangeEvent(tick=216, channel=2, data=[7, 80]),
   midi.NoteOnEvent(tick=24, channel=2, data=[57, 0]),
   midi.NoteOnEvent(tick=0, channel=2, data=[62, 36]),
   midi.NoteOnEvent(tick=240, channel=2, data=[62, 0]),
   midi.NoteOnEvent(tick=0, channel=2, data=[66, 36]),
   midi.ControlChangeEvent(tick=383, channel=2, data=[7, 54]),
   midi.NoteOnEvent(tick=97, channel=2, data=[66, 0]),
   midi.ControlChangeEvent(tick=0, channel=2, data=[7, 106]),
   midi.ControlChangeEvent(tick=544, channel=2, data=[7, 89]),
   midi.NoteOnEvent(tick=416, channel=2, data=[67, 36]),
   midi.ControlChangeEvent(tick=128, channel=2, data=[7, 72]),
   midi.NoteOnEvent(tick=352, channel=2, data=[67, 0]),
   midi.NoteOnEvent(tick=0, channel=2, data=[66, 36]),
   midi.ControlChangeEvent(tick=191, channel=2, data=[7, 56]),
   midi.ControlChangeEvent(tick=49, channel=2, data=[7, 64]),
   midi.NoteOnEvent(tick=720, channel=2, data=[66, 0]),
   midi.NoteOnEvent(tick=0, channel=2, data=[64, 36]),
   midi.NoteOnEvent(tick=480, channel=2, data=[64, 0]),
   midi.NoteOnEvent(tick=480, channel=2, data=[61, 36]),
   midi.NoteOnEvent(tick=480, channel=2, data=[61, 0]),
   midi.NoteOnEvent(tick=0, channel=2, data=[62, 36]),
   midi.NoteOnEvent(tick=480, channel=2, data=[62, 0]),
   midi.NoteOnEvent(tick=0, channel=2, data=[62, 36]),
   midi.NoteOnEvent(tick=480, channel=2, data=[62, 0]),
   midi.NoteOnEvent(tick=0, channel=2, data=[66, 36]),
   midi.NoteOnEvent(tick=480, channel=2, data=[66, 0]),
   midi.NoteOnEvent(tick=0, channel=2, data=[67, 36]),
   midi.NoteOnEvent(tick=480, channel=2, data=[67, 0]),
   midi.NoteOnEvent(tick=0, channel=2, data=[66, 36]),
   midi.NoteOnEvent(tick=480, channel=2, data=[66, 0]),
   midi.NoteOnEvent(tick=0, channel=2, data=[69, 36]),
   midi.NoteOnEvent(tick=240, channel=2, data=[69, 0]),
   midi.NoteOnEvent(tick=0, channel=2, data=[66, 36]),
   midi.NoteOnEvent(tick=240, channel=2, data=[66, 0]),
   midi.NoteOnEvent(tick=0, channel=2, data=[67, 36]),
   midi.NoteOnEvent(tick=240, channel=2, data=[67, 0]),
   midi.NoteOnEvent(tick=0, channel=2, data=[64, 36]),
   midi.NoteOnEvent(tick=240, channel=2, data=[64, 0]),
   midi.NoteOnEvent(tick=0, channel=2, data=[62, 36]),
   midi.NoteOnEvent(tick=480, channel=2, data=[62, 0]),
   midi.NoteOnEvent(tick=3840, channel=2, data=[48, 36]),
   midi.NoteOnEvent(tick=480, channel=2, data=[48, 0]),
   midi.NoteOnEvent(tick=0, channel=2, data=[60, 36]),
   midi.NoteOnEvent(tick=480, channel=2, data=[60, 0]),
   midi.NoteOnEvent(tick=0, channel=2, data=[61, 36]),
   midi.NoteOnEvent(tick=480, channel=2, data=[61, 0]),
   midi.NoteOnEvent(tick=0, channel=2, data=[62, 36]),
   midi.NoteOnEvent(tick=480, channel=2, data=[62, 0]),
   midi.NoteOnEvent(tick=0, channel=2, data=[57, 36]),
   midi.NoteOnEvent(tick=480, channel=2, data=[57, 0]),
   midi.NoteOnEvent(tick=0, channel=2, data=[50, 36]),
   midi.NoteOnEvent(tick=480, channel=2, data=[50, 0]),
   midi.ControlChangeEvent(tick=47, channel=2, data=[7, 64]),
   midi.ControlChangeEvent(tick=49, channel=2, data=[7, 98]),
   midi.NoteOnEvent(tick=3744, channel=2, data=[64, 36]),
   midi.NoteOnEvent(tick=480, channel=2, data=[64, 0]),
   midi.NoteOnEvent(tick=0, channel=2, data=[59, 36]),
   midi.NoteOnEvent(tick=960, channel=2, data=[59, 0]),
   midi.NoteOnEvent(tick=0, channel=2, data=[57, 36]),
   midi.NoteOnEvent(tick=480, channel=2, data=[57, 0]),
   midi.NoteOnEvent(tick=0, channel=2, data=[62, 36]),
   midi.ControlChangeEvent(tick=48, channel=2, data=[7, 98]),
   midi.NoteOnEvent(tick=432, channel=2, data=[62, 0]),
   midi.NoteOnEvent(tick=0, channel=2, data=[66, 36]),
   midi.NoteOnEvent(tick=480, channel=2, data=[66, 0]),
   midi.NoteOnEvent(tick=0, channel=2, data=[67, 36]),
   midi.NoteOnEvent(tick=480, channel=2, data=[67, 0]),
   midi.NoteOnEvent(tick=0, channel=2, data=[69, 36]),
   midi.NoteOnEvent(tick=480, channel=2, data=[69, 0]),
   midi.NoteOnEvent(tick=0, channel=2, data=[62, 36]),
   midi.NoteOnEvent(tick=960, channel=2, data=[62, 0]),
   midi.NoteOnEvent(tick=480, channel=2, data=[62, 36]),
   midi.NoteOnEvent(tick=480, channel=2, data=[62, 0]),
   midi.NoteOnEvent(tick=0, channel=2, data=[62, 36]),
   midi.NoteOnEvent(tick=480, channel=2, data=[62, 0]),
   midi.NoteOnEvent(tick=0, channel=2, data=[62, 36]),
   midi.NoteOnEvent(tick=960, channel=2, data=[62, 0]),
   midi.ControlChangeEvent(tick=479, channel=2, data=[7, 60]),
   midi.NoteOnEvent(tick=1, channel=2, data=[64, 36]),
   midi.NoteOnEvent(tick=480, channel=2, data=[64, 0]),
   midi.NoteOnEvent(tick=0, channel=2, data=[64, 36]),
   midi.NoteOnEvent(tick=480, channel=2, data=[64, 0]),
   midi.NoteOnEvent(tick=0, channel=2, data=[64, 36]),
   midi.NoteOnEvent(tick=480, channel=2, data=[64, 0]),
   midi.NoteOnEvent(tick=0, channel=2, data=[62, 36]),
   midi.NoteOnEvent(tick=480, channel=2, data=[62, 0]),
   midi.NoteOnEvent(tick=0, channel=2, data=[62, 36]),
   midi.NoteOnEvent(tick=480, channel=2, data=[62, 0]),
   midi.NoteOnEvent(tick=0, channel=2, data=[62, 36]),
   midi.NoteOnEvent(tick=480, channel=2, data=[62, 0]),
   midi.NoteOnEvent(tick=0, channel=2, data=[60, 36]),
   midi.NoteOnEvent(tick=480, channel=2, data=[60, 0]),
   midi.NoteOnEvent(tick=0, channel=2, data=[60, 36]),
   midi.NoteOnEvent(tick=480, channel=2, data=[60, 0]),
   midi.NoteOnEvent(tick=0, channel=2, data=[60, 36]),
   midi.NoteOnEvent(tick=480, channel=2, data=[60, 0]),
   midi.NoteOnEvent(tick=0, channel=2, data=[59, 36]),
   midi.NoteOnEvent(tick=480, channel=2, data=[59, 0]),
   midi.NoteOnEvent(tick=0, channel=2, data=[59, 36]),
   midi.NoteOnEvent(tick=480, channel=2, data=[59, 0]),
   midi.NoteOnEvent(tick=0, channel=2, data=[59, 36]),
   midi.NoteOnEvent(tick=480, channel=2, data=[59, 0]),
   midi.NoteOnEvent(tick=0, channel=2, data=[57, 36]),
   midi.NoteOnEvent(tick=480, channel=2, data=[57, 0]),
   midi.NoteOnEvent(tick=0, channel=2, data=[57, 36]),
   midi.NoteOnEvent(tick=480, channel=2, data=[57, 0]),
   midi.NoteOnEvent(tick=0, channel=2, data=[57, 36]),
   midi.NoteOnEvent(tick=480, channel=2, data=[57, 0]),
   midi.NoteOnEvent(tick=0, channel=2, data=[55, 36]),
   midi.NoteOnEvent(tick=480, channel=2, data=[55, 0]),
   midi.NoteOnEvent(tick=0, channel=2, data=[55, 36]),
   midi.NoteOnEvent(tick=480, channel=2, data=[55, 0]),
   midi.NoteOnEvent(tick=0, channel=2, data=[55, 36]),
   midi.NoteOnEvent(tick=480, channel=2, data=[55, 0]),
   midi.NoteOnEvent(tick=0, channel=2, data=[53, 36]),
   midi.NoteOnEvent(tick=480, channel=2, data=[53, 0]),
   midi.NoteOnEvent(tick=0, channel=2, data=[69, 36]),
   midi.NoteOnEvent(tick=240, channel=2, data=[69, 0]),
   midi.NoteOnEvent(tick=0, channel=2, data=[65, 36]),
   midi.NoteOnEvent(tick=240, channel=2, data=[65, 0]),
   midi.NoteOnEvent(tick=0, channel=2, data=[64, 36]),
   midi.NoteOnEvent(tick=240, channel=2, data=[64, 0]),
   midi.NoteOnEvent(tick=0, channel=2, data=[62, 36]),
   midi.NoteOnEvent(tick=240, channel=2, data=[62, 0]),
   midi.NoteOnEvent(tick=0, channel=2, data=[62, 36]),
   midi.NoteOnEvent(tick=240, channel=2, data=[62, 0]),
   midi.NoteOnEvent(tick=0, channel=2, data=[64, 36]),
   midi.NoteOnEvent(tick=720, channel=2, data=[64, 0]),
   midi.NoteOnEvent(tick=480, channel=2, data=[64, 36]),
   midi.NoteOnEvent(tick=480, channel=2, data=[64, 0]),
   midi.NoteOnEvent(tick=0, channel=2, data=[64, 36]),
   midi.NoteOnEvent(tick=480, channel=2, data=[64, 0]),
   midi.NoteOnEvent(tick=0, channel=2, data=[64, 36]),
   midi.NoteOnEvent(tick=480, channel=2, data=[64, 0]),
   midi.NoteOnEvent(tick=0, channel=2, data=[62, 36]),
   midi.NoteOnEvent(tick=480, channel=2, data=[62, 0]),
   midi.NoteOnEvent(tick=0, channel=2, data=[62, 36]),
   midi.NoteOnEvent(tick=480, channel=2, data=[62, 0]),
   midi.NoteOnEvent(tick=0, channel=2, data=[62, 36]),
   midi.NoteOnEvent(tick=480, channel=2, data=[62, 0]),
   midi.NoteOnEvent(tick=0, channel=2, data=[60, 36]),
   midi.NoteOnEvent(tick=480, channel=2, data=[60, 0]),
   midi.NoteOnEvent(tick=0, channel=2, data=[60, 36]),
   midi.NoteOnEvent(tick=480, channel=2, data=[60, 0]),
   midi.NoteOnEvent(tick=0, channel=2, data=[60, 36]),
   midi.NoteOnEvent(tick=480, channel=2, data=[60, 0]),
   midi.NoteOnEvent(tick=0, channel=2, data=[59, 36]),
   midi.NoteOnEvent(tick=480, channel=2, data=[59, 0]),
   midi.NoteOnEvent(tick=0, channel=2, data=[59, 36]),
   midi.NoteOnEvent(tick=480, channel=2, data=[59, 0]),
   midi.NoteOnEvent(tick=0, channel=2, data=[59, 36]),
   midi.NoteOnEvent(tick=480, channel=2, data=[59, 0]),
   midi.NoteOnEvent(tick=0, channel=2, data=[57, 36]),
   midi.NoteOnEvent(tick=480, channel=2, data=[57, 0]),
   midi.NoteOnEvent(tick=0, channel=2, data=[57, 36]),
   midi.NoteOnEvent(tick=480, channel=2, data=[57, 0]),
   midi.NoteOnEvent(tick=0, channel=2, data=[57, 36]),
   midi.NoteOnEvent(tick=480, channel=2, data=[57, 0]),
   midi.NoteOnEvent(tick=0, channel=2, data=[55, 36]),
   midi.NoteOnEvent(tick=480, channel=2, data=[55, 0]),
   midi.NoteOnEvent(tick=0, channel=2, data=[55, 36]),
   midi.NoteOnEvent(tick=480, channel=2, data=[55, 0]),
   midi.NoteOnEvent(tick=0, channel=2, data=[55, 36]),
   midi.NoteOnEvent(tick=480, channel=2, data=[55, 0]),
   midi.NoteOnEvent(tick=0, channel=2, data=[53, 36]),
   midi.NoteOnEvent(tick=480, channel=2, data=[53, 0]),
   midi.NoteOnEvent(tick=0, channel=2, data=[69, 36]),
   midi.NoteOnEvent(tick=240, channel=2, data=[69, 0]),
   midi.NoteOnEvent(tick=0, channel=2, data=[65, 36]),
   midi.NoteOnEvent(tick=240, channel=2, data=[65, 0]),
   midi.NoteOnEvent(tick=0, channel=2, data=[64, 36]),
   midi.NoteOnEvent(tick=240, channel=2, data=[64, 0]),
   midi.NoteOnEvent(tick=0, channel=2, data=[62, 36]),
   midi.NoteOnEvent(tick=240, channel=2, data=[62, 0]),
   midi.NoteOnEvent(tick=0, channel=2, data=[62, 36]),
   midi.NoteOnEvent(tick=240, channel=2, data=[62, 0]),
   midi.NoteOnEvent(tick=0, channel=2, data=[64, 36]),
   midi.NoteOnEvent(tick=720, channel=2, data=[64, 0]),
   midi.ControlChangeEvent(tick=480, channel=2, data=[7, 100]),
   midi.NoteOnEvent(tick=0, channel=2, data=[67, 79]),
   midi.NoteOnEvent(tick=480, channel=2, data=[67, 0]),
   midi.NoteOnEvent(tick=0, channel=2, data=[67, 79]),
   midi.NoteOnEvent(tick=480, channel=2, data=[67, 0]),
   midi.NoteOnEvent(tick=0, channel=2, data=[67, 79]),
   midi.NoteOnEvent(tick=480, channel=2, data=[67, 0]),
   midi.NoteOnEvent(tick=0, channel=2, data=[67, 79]),
   midi.NoteOnEvent(tick=480, channel=2, data=[67, 0]),
   midi.NoteOnEvent(tick=0, channel=2, data=[67, 79]),
   midi.NoteOnEvent(tick=480, channel=2, data=[67, 0]),
   midi.NoteOnEvent(tick=0, channel=2, data=[67, 79]),
   midi.ControlChangeEvent(tick=479, channel=2, data=[7, 100]),
   midi.NoteOnEvent(tick=1, channel=2, data=[67, 0]),
   midi.NoteOnEvent(tick=0, channel=2, data=[55, 79]),
   midi.ControlChangeEvent(tick=0, channel=2, data=[7, 60]),
   midi.NoteOnEvent(tick=480, channel=2, data=[55, 0]),
   midi.NoteOnEvent(tick=0, channel=2, data=[55, 79]),
   midi.NoteOnEvent(tick=480, channel=2, data=[55, 0]),
   midi.NoteOnEvent(tick=0, channel=2, data=[55, 79]),
   midi.NoteOnEvent(tick=480, channel=2, data=[55, 0]),
   midi.NoteOnEvent(tick=0, channel=2, data=[55, 79]),
   midi.NoteOnEvent(tick=480, channel=2, data=[55, 0]),
   midi.NoteOnEvent(tick=0, channel=2, data=[55, 79]),
   midi.NoteOnEvent(tick=480, channel=2, data=[55, 0]),
   midi.NoteOnEvent(tick=0, channel=2, data=[55, 79]),
   midi.NoteOnEvent(tick=480, channel=2, data=[55, 0]),
   midi.ControlChangeEvent(tick=0, channel=2, data=[7, 106]),
   midi.NoteOnEvent(tick=0, channel=2, data=[55, 79]),
   midi.NoteOnEvent(tick=480, channel=2, data=[55, 0]),
   midi.NoteOnEvent(tick=960, channel=2, data=[55, 79]),
   midi.NoteOnEvent(tick=480, channel=2, data=[55, 0]),
   midi.NoteOnEvent(tick=960, channel=2, data=[62, 79]),
   midi.NoteOnEvent(tick=480, channel=2, data=[62, 0]),
   midi.NoteOnEvent(tick=0, channel=2, data=[60, 79]),
   midi.NoteOnEvent(tick=480, channel=2, data=[60, 0]),
   midi.NoteOnEvent(tick=0, channel=2, data=[57, 79]),
   midi.NoteOnEvent(tick=480, channel=2, data=[57, 0]),
   midi.NoteOnEvent(tick=0, channel=2, data=[55, 79]),
   midi.NoteOnEvent(tick=480, channel=2, data=[55, 0]),
   midi.NoteOnEvent(tick=0, channel=2, data=[59, 79]),
   midi.NoteOnEvent(tick=240, channel=2, data=[59, 0]),
   midi.NoteOnEvent(tick=0, channel=2, data=[62, 79]),
   midi.NoteOnEvent(tick=240, channel=2, data=[62, 0]),
   midi.NoteOnEvent(tick=0, channel=2, data=[62, 79]),
   midi.NoteOnEvent(tick=240, channel=2, data=[62, 0]),
   midi.NoteOnEvent(tick=0, channel=2, data=[65, 79]),
   midi.NoteOnEvent(tick=240, channel=2, data=[65, 0]),
   midi.ControlChangeEvent(tick=0, channel=2, data=[7, 62]),
   midi.NoteOnEvent(tick=0, channel=2, data=[64, 36]),
   midi.NoteOnEvent(tick=480, channel=2, data=[64, 0]),
   midi.NoteOnEvent(tick=0, channel=2, data=[64, 36]),
   midi.NoteOnEvent(tick=480, channel=2, data=[64, 0]),
   midi.NoteOnEvent(tick=0, channel=2, data=[64, 36]),
   midi.NoteOnEvent(tick=480, channel=2, data=[64, 0]),
   midi.NoteOnEvent(tick=0, channel=2, data=[62, 36]),
   midi.NoteOnEvent(tick=480, channel=2, data=[62, 0]),
   midi.NoteOnEvent(tick=0, channel=2, data=[62, 36]),
   midi.NoteOnEvent(tick=480, channel=2, data=[62, 0]),
   midi.NoteOnEvent(tick=0, channel=2, data=[62, 36]),
   midi.NoteOnEvent(tick=480, channel=2, data=[62, 0]),
   midi.NoteOnEvent(tick=0, channel=2, data=[60, 36]),
   midi.NoteOnEvent(tick=480, channel=2, data=[60, 0]),
   midi.NoteOnEvent(tick=0, channel=2, data=[60, 36]),
   midi.NoteOnEvent(tick=480, channel=2, data=[60, 0]),
   midi.NoteOnEvent(tick=0, channel=2, data=[60, 36]),
   midi.NoteOnEvent(tick=480, channel=2, data=[60, 0]),
   midi.NoteOnEvent(tick=0, channel=2, data=[59, 36]),
   midi.NoteOnEvent(tick=480, channel=2, data=[59, 0]),
   midi.NoteOnEvent(tick=0, channel=2, data=[59, 36]),
   midi.NoteOnEvent(tick=480, channel=2, data=[59, 0]),
   midi.NoteOnEvent(tick=0, channel=2, data=[59, 36]),
   midi.NoteOnEvent(tick=480, channel=2, data=[59, 0]),
   midi.NoteOnEvent(tick=0, channel=2, data=[57, 36]),
   midi.NoteOnEvent(tick=480, channel=2, data=[57, 0]),
   midi.NoteOnEvent(tick=0, channel=2, data=[57, 36]),
   midi.NoteOnEvent(tick=480, channel=2, data=[57, 0]),
   midi.NoteOnEvent(tick=0, channel=2, data=[57, 36]),
   midi.NoteOnEvent(tick=480, channel=2, data=[57, 0]),
   midi.NoteOnEvent(tick=0, channel=2, data=[55, 36]),
   midi.NoteOnEvent(tick=480, channel=2, data=[55, 0]),
   midi.NoteOnEvent(tick=0, channel=2, data=[55, 36]),
   midi.NoteOnEvent(tick=480, channel=2, data=[55, 0]),
   midi.NoteOnEvent(tick=0, channel=2, data=[55, 36]),
   midi.NoteOnEvent(tick=480, channel=2, data=[55, 0]),
   midi.NoteOnEvent(tick=0, channel=2, data=[53, 36]),
   midi.NoteOnEvent(tick=480, channel=2, data=[53, 0]),
   midi.NoteOnEvent(tick=0, channel=2, data=[69, 36]),
   midi.NoteOnEvent(tick=240, channel=2, data=[69, 0]),
   midi.NoteOnEvent(tick=0, channel=2, data=[65, 36]),
   midi.NoteOnEvent(tick=240, channel=2, data=[65, 0]),
   midi.NoteOnEvent(tick=0, channel=2, data=[64, 36]),
   midi.NoteOnEvent(tick=240, channel=2, data=[64, 0]),
   midi.NoteOnEvent(tick=0, channel=2, data=[62, 36]),
   midi.NoteOnEvent(tick=240, channel=2, data=[62, 0]),
   midi.NoteOnEvent(tick=0, channel=2, data=[62, 36]),
   midi.NoteOnEvent(tick=240, channel=2, data=[62, 0]),
   midi.NoteOnEvent(tick=0, channel=2, data=[64, 36]),
   midi.NoteOnEvent(tick=720, channel=2, data=[64, 0]),
   midi.ControlChangeEvent(tick=480, channel=2, data=[7, 98]),
   midi.NoteOnEvent(tick=0, channel=2, data=[67, 79]),
   midi.NoteOnEvent(tick=480, channel=2, data=[67, 0]),
   midi.NoteOnEvent(tick=0, channel=2, data=[67, 79]),
   midi.NoteOnEvent(tick=480, channel=2, data=[67, 0]),
   midi.NoteOnEvent(tick=0, channel=2, data=[67, 79]),
   midi.NoteOnEvent(tick=480, channel=2, data=[67, 0]),
   midi.NoteOnEvent(tick=0, channel=2, data=[67, 79]),
   midi.NoteOnEvent(tick=480, channel=2, data=[67, 0]),
   midi.NoteOnEvent(tick=0, channel=2, data=[67, 79]),
   midi.NoteOnEvent(tick=480, channel=2, data=[67, 0]),
   midi.NoteOnEvent(tick=0, channel=2, data=[67, 79]),
   midi.ControlChangeEvent(tick=479, channel=2, data=[7, 98]),
   midi.NoteOnEvent(tick=1, channel=2, data=[67, 0]),
   midi.NoteOnEvent(tick=0, channel=2, data=[55, 79]),
   midi.ControlChangeEvent(tick=0, channel=2, data=[7, 64]),
   midi.NoteOnEvent(tick=480, channel=2, data=[55, 0]),
   midi.NoteOnEvent(tick=0, channel=2, data=[55, 79]),
   midi.NoteOnEvent(tick=480, channel=2, data=[55, 0]),
   midi.NoteOnEvent(tick=0, channel=2, data=[55, 79]),
   midi.NoteOnEvent(tick=480, channel=2, data=[55, 0]),
   midi.NoteOnEvent(tick=0, channel=2, data=[55, 79]),
   midi.NoteOnEvent(tick=480, channel=2, data=[55, 0]),
   midi.NoteOnEvent(tick=0, channel=2, data=[55, 79]),
   midi.NoteOnEvent(tick=480, channel=2, data=[55, 0]),
   midi.NoteOnEvent(tick=0, channel=2, data=[55, 79]),
   midi.NoteOnEvent(tick=480, channel=2, data=[55, 0]),
   midi.ControlChangeEvent(tick=0, channel=2, data=[7, 100]),
   midi.NoteOnEvent(tick=0, channel=2, data=[55, 79]),
   midi.NoteOnEvent(tick=480, channel=2, data=[55, 0]),
   midi.NoteOnEvent(tick=960, channel=2, data=[55, 79]),
   midi.NoteOnEvent(tick=480, channel=2, data=[55, 0]),
   midi.NoteOnEvent(tick=960, channel=2, data=[62, 79]),
   midi.NoteOnEvent(tick=480, channel=2, data=[62, 0]),
   midi.NoteOnEvent(tick=0, channel=2, data=[60, 79]),
   midi.NoteOnEvent(tick=480, channel=2, data=[60, 0]),
   midi.NoteOnEvent(tick=0, channel=2, data=[57, 79]),
   midi.NoteOnEvent(tick=480, channel=2, data=[57, 0]),
   midi.NoteOnEvent(tick=0, channel=2, data=[55, 79]),
   midi.NoteOnEvent(tick=480, channel=2, data=[55, 0]),
   midi.NoteOnEvent(tick=0, channel=2, data=[59, 79]),
   midi.NoteOnEvent(tick=240, channel=2, data=[59, 0]),
   midi.NoteOnEvent(tick=0, channel=2, data=[62, 79]),
   midi.NoteOnEvent(tick=240, channel=2, data=[62, 0]),
   midi.NoteOnEvent(tick=0, channel=2, data=[62, 79]),
   midi.NoteOnEvent(tick=240, channel=2, data=[62, 0]),
   midi.NoteOnEvent(tick=0, channel=2, data=[65, 79]),
   midi.NoteOnEvent(tick=240, channel=2, data=[65, 0]),
   midi.ControlChangeEvent(tick=0, channel=2, data=[7, 62]),
   midi.NoteOnEvent(tick=0, channel=2, data=[64, 36]),
   midi.NoteOnEvent(tick=480, channel=2, data=[64, 0]),
   midi.NoteOnEvent(tick=0, channel=2, data=[64, 36]),
   midi.NoteOnEvent(tick=480, channel=2, data=[64, 0]),
   midi.NoteOnEvent(tick=0, channel=2, data=[64, 36]),
   midi.NoteOnEvent(tick=480, channel=2, data=[64, 0]),
   midi.NoteOnEvent(tick=0, channel=2, data=[62, 36]),
   midi.NoteOnEvent(tick=480, channel=2, data=[62, 0]),
   midi.NoteOnEvent(tick=0, channel=2, data=[62, 36]),
   midi.NoteOnEvent(tick=480, channel=2, data=[62, 0]),
   midi.NoteOnEvent(tick=0, channel=2, data=[62, 36]),
   midi.NoteOnEvent(tick=480, channel=2, data=[62, 0]),
   midi.NoteOnEvent(tick=0, channel=2, data=[60, 36]),
   midi.NoteOnEvent(tick=480, channel=2, data=[60, 0]),
   midi.NoteOnEvent(tick=0, channel=2, data=[60, 36]),
   midi.NoteOnEvent(tick=480, channel=2, data=[60, 0]),
   midi.NoteOnEvent(tick=0, channel=2, data=[60, 36]),
   midi.NoteOnEvent(tick=480, channel=2, data=[60, 0]),
   midi.NoteOnEvent(tick=0, channel=2, data=[59, 36]),
   midi.NoteOnEvent(tick=480, channel=2, data=[59, 0]),
   midi.NoteOnEvent(tick=0, channel=2, data=[59, 36]),
   midi.NoteOnEvent(tick=480, channel=2, data=[59, 0]),
   midi.NoteOnEvent(tick=0, channel=2, data=[59, 36]),
   midi.NoteOnEvent(tick=480, channel=2, data=[59, 0]),
   midi.NoteOnEvent(tick=0, channel=2, data=[57, 36]),
   midi.NoteOnEvent(tick=480, channel=2, data=[57, 0]),
   midi.NoteOnEvent(tick=0, channel=2, data=[57, 36]),
   midi.NoteOnEvent(tick=480, channel=2, data=[57, 0]),
   midi.NoteOnEvent(tick=0, channel=2, data=[57, 36]),
   midi.NoteOnEvent(tick=480, channel=2, data=[57, 0]),
   midi.NoteOnEvent(tick=0, channel=2, data=[55, 36]),
   midi.NoteOnEvent(tick=480, channel=2, data=[55, 0]),
   midi.NoteOnEvent(tick=0, channel=2, data=[55, 36]),
   midi.NoteOnEvent(tick=480, channel=2, data=[55, 0]),
   midi.NoteOnEvent(tick=0, channel=2, data=[55, 36]),
   midi.NoteOnEvent(tick=480, channel=2, data=[55, 0]),
   midi.NoteOnEvent(tick=0, channel=2, data=[53, 36]),
   midi.NoteOnEvent(tick=480, channel=2, data=[53, 0]),
   midi.NoteOnEvent(tick=0, channel=2, data=[69, 36]),
   midi.NoteOnEvent(tick=240, channel=2, data=[69, 0]),
   midi.NoteOnEvent(tick=0, channel=2, data=[65, 36]),
   midi.NoteOnEvent(tick=240, channel=2, data=[65, 0]),
   midi.NoteOnEvent(tick=0, channel=2, data=[64, 36]),
   midi.NoteOnEvent(tick=240, channel=2, data=[64, 0]),
   midi.NoteOnEvent(tick=0, channel=2, data=[62, 36]),
   midi.NoteOnEvent(tick=240, channel=2, data=[62, 0]),
   midi.NoteOnEvent(tick=0, channel=2, data=[62, 36]),
   midi.NoteOnEvent(tick=240, channel=2, data=[62, 0]),
   midi.NoteOnEvent(tick=0, channel=2, data=[64, 36]),
   midi.NoteOnEvent(tick=720, channel=2, data=[64, 0]),
   midi.ControlChangeEvent(tick=432, channel=2, data=[7, 102]),
   midi.NoteOnEvent(tick=3888, channel=2, data=[64, 36]),
   midi.NoteOnEvent(tick=480, channel=2, data=[64, 0]),
   midi.NoteOnEvent(tick=0, channel=2, data=[59, 36]),
   midi.NoteOnEvent(tick=960, channel=2, data=[59, 0]),
   midi.NoteOnEvent(tick=0, channel=2, data=[57, 36]),
   midi.NoteOnEvent(tick=480, channel=2, data=[57, 0]),
   midi.NoteOnEvent(tick=0, channel=2, data=[62, 36]),
   midi.NoteOnEvent(tick=480, channel=2, data=[62, 0]),
   midi.NoteOnEvent(tick=0, channel=2, data=[66, 36]),
   midi.NoteOnEvent(tick=480, channel=2, data=[66, 0]),
   midi.NoteOnEvent(tick=0, channel=2, data=[67, 36]),
   midi.NoteOnEvent(tick=480, channel=2, data=[67, 0]),
   midi.NoteOnEvent(tick=0, channel=2, data=[69, 36]),
   midi.NoteOnEvent(tick=480, channel=2, data=[69, 0]),
   midi.NoteOnEvent(tick=0, channel=2, data=[62, 36]),
   midi.NoteOnEvent(tick=960, channel=2, data=[62, 0]),
   midi.NoteOnEvent(tick=0, channel=2, data=[60, 36]),
   midi.NoteOnEvent(tick=480, channel=2, data=[60, 0]),
   midi.NoteOnEvent(tick=0, channel=2, data=[59, 36]),
   midi.NoteOnEvent(tick=480, channel=2, data=[59, 0]),
   midi.NoteOnEvent(tick=0, channel=2, data=[57, 36]),
   midi.NoteOnEvent(tick=480, channel=2, data=[57, 0]),
   midi.NoteOnEvent(tick=0, channel=2, data=[55, 36]),
   midi.NoteOnEvent(tick=960, channel=2, data=[55, 0]),
   midi.ControlChangeEvent(tick=528, channel=2, data=[7, 114]),
   midi.ControlChangeEvent(tick=48, channel=2, data=[7, 110]),
   midi.ControlChangeEvent(tick=96, channel=2, data=[7, 88]),
   midi.NoteOnEvent(tick=288, channel=2, data=[62, 36]),
   midi.ControlChangeEvent(tick=0, channel=2, data=[7, 68]),
   midi.ControlChangeEvent(tick=95, channel=2, data=[7, 68]),
   midi.ControlChangeEvent(tick=1, channel=2, data=[7, 64]),
   midi.NoteOnEvent(tick=144, channel=2, data=[62, 0]),
   midi.NoteOnEvent(tick=0, channel=2, data=[66, 36]),
   midi.NoteOnEvent(tick=240, channel=2, data=[66, 0]),
   midi.NoteOnEvent(tick=0, channel=2, data=[69, 36]),
   midi.ControlChangeEvent(tick=143, channel=2, data=[7, 64]),
   midi.ControlChangeEvent(tick=1, channel=2, data=[7, 56]),
   midi.ControlChangeEvent(tick=335, channel=2, data=[7, 56]),
   midi.NoteOnEvent(tick=1, channel=2, data=[69, 0]),
   midi.ControlChangeEvent(tick=47, channel=2, data=[7, 60]),
   midi.ControlChangeEvent(tick=49, channel=2, data=[7, 102]),
   midi.ControlChangeEvent(tick=240, channel=2, data=[7, 76]),
   midi.NoteOnEvent(tick=144, channel=2, data=[57, 36]),
   midi.ControlChangeEvent(tick=48, channel=2, data=[7, 52]),
   midi.NoteOnEvent(tick=192, channel=2, data=[57, 0]),
   midi.NoteOnEvent(tick=0, channel=2, data=[62, 36]),
   midi.NoteOnEvent(tick=240, channel=2, data=[62, 0]),
   midi.NoteOnEvent(tick=0, channel=2, data=[66, 36]),
   midi.NoteOnEvent(tick=480, channel=2, data=[66, 0]),
   midi.ControlChangeEvent(tick=47, channel=2, data=[7, 48]),
   midi.ControlChangeEvent(tick=48, channel=2, data=[7, 60]),
   midi.ControlChangeEvent(tick=1, channel=2, data=[7, 100]),
   midi.ControlChangeEvent(tick=336, channel=2, data=[7, 70]),
   midi.NoteOnEvent(tick=528, channel=2, data=[67, 36]),
   midi.ControlChangeEvent(tick=47, channel=2, data=[7, 58]),
   midi.ControlChangeEvent(tick=1, channel=2, data=[7, 46]),
   midi.ControlChangeEvent(tick=287, channel=2, data=[7, 46]),
   midi.ControlChangeEvent(tick=1, channel=2, data=[7, 54]),
   midi.ControlChangeEvent(tick=96, channel=2, data=[7, 60]),
   midi.NoteOnEvent(tick=48, channel=2, data=[67, 0]),
   midi.NoteOnEvent(tick=0, channel=2, data=[66, 36]),
   midi.ControlChangeEvent(tick=0, channel=2, data=[7, 64]),
   midi.ControlChangeEvent(tick=527, channel=2, data=[7, 64]),
   midi.NoteOnEvent(tick=433, channel=2, data=[66, 0]),
   midi.NoteOnEvent(tick=0, channel=2, data=[64, 36]),
   midi.NoteOnEvent(tick=480, channel=2, data=[64, 0]),
   midi.NoteOnEvent(tick=480, channel=2, data=[61, 36]),
   midi.NoteOnEvent(tick=480, channel=2, data=[61, 0]),
   midi.NoteOnEvent(tick=0, channel=2, data=[62, 36]),
   midi.NoteOnEvent(tick=480, channel=2, data=[62, 0]),
   midi.NoteOnEvent(tick=0, channel=2, data=[62, 36]),
   midi.NoteOnEvent(tick=480, channel=2, data=[62, 0]),
   midi.NoteOnEvent(tick=0, channel=2, data=[66, 36]),
   midi.NoteOnEvent(tick=480, channel=2, data=[66, 0]),
   midi.NoteOnEvent(tick=0, channel=2, data=[67, 36]),
   midi.NoteOnEvent(tick=480, channel=2, data=[67, 0]),
   midi.NoteOnEvent(tick=0, channel=2, data=[66, 36]),
   midi.NoteOnEvent(tick=480, channel=2, data=[66, 0]),
   midi.NoteOnEvent(tick=0, channel=2, data=[69, 36]),
   midi.NoteOnEvent(tick=240, channel=2, data=[69, 0]),
   midi.NoteOnEvent(tick=0, channel=2, data=[66, 36]),
   midi.NoteOnEvent(tick=240, channel=2, data=[66, 0]),
   midi.NoteOnEvent(tick=0, channel=2, data=[67, 36]),
   midi.NoteOnEvent(tick=240, channel=2, data=[67, 0]),
   midi.NoteOnEvent(tick=0, channel=2, data=[64, 36]),
   midi.NoteOnEvent(tick=240, channel=2, data=[64, 0]),
   midi.NoteOnEvent(tick=0, channel=2, data=[62, 36]),
   midi.NoteOnEvent(tick=480, channel=2, data=[62, 0]),
   midi.NoteOnEvent(tick=3840, channel=2, data=[48, 36]),
   midi.NoteOnEvent(tick=480, channel=2, data=[48, 0]),
   midi.NoteOnEvent(tick=0, channel=2, data=[60, 36]),
   midi.NoteOnEvent(tick=480, channel=2, data=[60, 0]),
   midi.NoteOnEvent(tick=0, channel=2, data=[61, 36]),
   midi.NoteOnEvent(tick=480, channel=2, data=[61, 0]),
   midi.NoteOnEvent(tick=0, channel=2, data=[62, 36]),
   midi.NoteOnEvent(tick=480, channel=2, data=[62, 0]),
   midi.NoteOnEvent(tick=0, channel=2, data=[57, 36]),
   midi.NoteOnEvent(tick=480, channel=2, data=[57, 0]),
   midi.NoteOnEvent(tick=0, channel=2, data=[50, 36]),
   midi.NoteOnEvent(tick=480, channel=2, data=[50, 0]),
   midi.ControlChangeEvent(tick=0, channel=2, data=[7, 102]),
   midi.ControlChangeEvent(tick=1007, channel=2, data=[7, 102]),
   midi.NoteOnEvent(tick=2833, channel=2, data=[64, 36]),
   midi.NoteOnEvent(tick=480, channel=2, data=[64, 0]),
   midi.NoteOnEvent(tick=0, channel=2, data=[59, 36]),
   midi.NoteOnEvent(tick=960, channel=2, data=[59, 0]),
   midi.NoteOnEvent(tick=0, channel=2, data=[57, 36]),
   midi.NoteOnEvent(tick=480, channel=2, data=[57, 0]),
   midi.NoteOnEvent(tick=0, channel=2, data=[62, 36]),
   midi.NoteOnEvent(tick=480, channel=2, data=[62, 0]),
   midi.NoteOnEvent(tick=0, channel=2, data=[66, 36]),
   midi.NoteOnEvent(tick=480, channel=2, data=[66, 0]),
   midi.NoteOnEvent(tick=0, channel=2, data=[67, 36]),
   midi.NoteOnEvent(tick=480, channel=2, data=[67, 0]),
   midi.NoteOnEvent(tick=0, channel=2, data=[69, 36]),
   midi.NoteOnEvent(tick=480, channel=2, data=[69, 0]),
   midi.NoteOnEvent(tick=0, channel=2, data=[62, 36]),
   midi.NoteOnEvent(tick=960, channel=2, data=[62, 0]),
   midi.NoteOnEvent(tick=480, channel=2, data=[62, 36]),
   midi.NoteOnEvent(tick=480, channel=2, data=[62, 0]),
   midi.NoteOnEvent(tick=0, channel=2, data=[62, 36]),
   midi.NoteOnEvent(tick=480, channel=2, data=[62, 0]),
   midi.NoteOnEvent(tick=0, channel=2, data=[62, 36]),
   midi.NoteOnEvent(tick=1440, channel=2, data=[62, 0]),
   midi.ControlChangeEvent(tick=1440, channel=2, data=[7, 62]),
   midi.NoteOnEvent(tick=0, channel=2, data=[59, 36]),
   midi.NoteOnEvent(tick=480, channel=2, data=[59, 0]),
   midi.NoteOnEvent(tick=0, channel=2, data=[59, 36]),
   midi.NoteOnEvent(tick=480, channel=2, data=[59, 0]),
   midi.NoteOnEvent(tick=0, channel=2, data=[60, 36]),
   midi.NoteOnEvent(tick=240, channel=2, data=[60, 0]),
   midi.NoteOnEvent(tick=0, channel=2, data=[59, 36]),
   midi.NoteOnEvent(tick=240, channel=2, data=[59, 0]),
   midi.NoteOnEvent(tick=0, channel=2, data=[57, 36]),
   midi.NoteOnEvent(tick=240, channel=2, data=[57, 0]),
   midi.NoteOnEvent(tick=0, channel=2, data=[55, 36]),
   midi.NoteOnEvent(tick=240, channel=2, data=[55, 0]),
   midi.NoteOnEvent(tick=0, channel=2, data=[60, 36]),
   midi.NoteOnEvent(tick=480, channel=2, data=[60, 0]),
   midi.NoteOnEvent(tick=0, channel=2, data=[60, 36]),
   midi.NoteOnEvent(tick=480, channel=2, data=[60, 0]),
   midi.NoteOnEvent(tick=0, channel=2, data=[60, 36]),
   midi.NoteOnEvent(tick=960, channel=2, data=[60, 0]),
   midi.NoteOnEvent(tick=0, channel=2, data=[64, 36]),
   midi.NoteOnEvent(tick=480, channel=2, data=[64, 0]),
   midi.NoteOnEvent(tick=0, channel=2, data=[64, 36]),
   midi.NoteOnEvent(tick=480, channel=2, data=[64, 0]),
   midi.NoteOnEvent(tick=0, channel=2, data=[66, 36]),
   midi.NoteOnEvent(tick=240, channel=2, data=[66, 0]),
   midi.NoteOnEvent(tick=0, channel=2, data=[64, 36]),
   midi.NoteOnEvent(tick=240, channel=2, data=[64, 0]),
   midi.NoteOnEvent(tick=0, channel=2, data=[62, 36]),
   midi.NoteOnEvent(tick=240, channel=2, data=[62, 0]),
   midi.NoteOnEvent(tick=0, channel=2, data=[60, 36]),
   midi.NoteOnEvent(tick=240, channel=2, data=[60, 0]),
   midi.NoteOnEvent(tick=0, channel=2, data=[54, 36]),
   midi.NoteOnEvent(tick=480, channel=2, data=[54, 0]),
   midi.NoteOnEvent(tick=0, channel=2, data=[54, 36]),
   midi.NoteOnEvent(tick=480, channel=2, data=[54, 0]),
   midi.NoteOnEvent(tick=0, channel=2, data=[54, 36]),
   midi.NoteOnEvent(tick=960, channel=2, data=[54, 0]),
   midi.NoteOnEvent(tick=0, channel=2, data=[59, 79]),
   midi.ControlChangeEvent(tick=48, channel=2, data=[7, 104]),
   midi.NoteOnEvent(tick=432, channel=2, data=[59, 0]),
   midi.NoteOnEvent(tick=0, channel=2, data=[59, 79]),
   midi.NoteOnEvent(tick=480, channel=2, data=[59, 0]),
   midi.NoteOnEvent(tick=0, channel=2, data=[60, 79]),
   midi.NoteOnEvent(tick=240, channel=2, data=[60, 0]),
   midi.NoteOnEvent(tick=0, channel=2, data=[59, 79]),
   midi.NoteOnEvent(tick=240, channel=2, data=[59, 0]),
   midi.NoteOnEvent(tick=0, channel=2, data=[57, 79]),
   midi.NoteOnEvent(tick=240, channel=2, data=[57, 0]),
   midi.NoteOnEvent(tick=0, channel=2, data=[55, 79]),
   midi.NoteOnEvent(tick=240, channel=2, data=[55, 0]),
   midi.NoteOnEvent(tick=0, channel=2, data=[67, 79]),
   midi.NoteOnEvent(tick=480, channel=2, data=[67, 0]),
   midi.NoteOnEvent(tick=3360, channel=2, data=[62, 79]),
   midi.NoteOnEvent(tick=60, channel=2, data=[62, 0]),
   midi.NoteOnEvent(tick=0, channel=2, data=[60, 79]),
   midi.NoteOnEvent(tick=120, channel=2, data=[60, 0]),
   midi.NoteOnEvent(tick=0, channel=2, data=[62, 79]),
   midi.NoteOnEvent(tick=60, channel=2, data=[62, 0]),
   midi.NoteOnEvent(tick=0, channel=2, data=[60, 79]),
   midi.NoteOnEvent(tick=60, channel=2, data=[60, 0]),
   midi.NoteOnEvent(tick=0, channel=2, data=[62, 79]),
   midi.NoteOnEvent(tick=60, channel=2, data=[62, 0]),
   midi.NoteOnEvent(tick=0, channel=2, data=[60, 79]),
   midi.NoteOnEvent(tick=60, channel=2, data=[60, 0]),
   midi.NoteOnEvent(tick=0, channel=2, data=[62, 79]),
   midi.NoteOnEvent(tick=60, channel=2, data=[62, 0]),
   midi.NoteOnEvent(tick=0, channel=2, data=[60, 79]),
   midi.NoteOnEvent(tick=60, channel=2, data=[60, 0]),
   midi.NoteOnEvent(tick=0, channel=2, data=[62, 79]),
   midi.NoteOnEvent(tick=60, channel=2, data=[62, 0]),
   midi.NoteOnEvent(tick=0, channel=2, data=[60, 79]),
   midi.NoteOnEvent(tick=60, channel=2, data=[60, 0]),
   midi.NoteOnEvent(tick=0, channel=2, data=[62, 79]),
   midi.NoteOnEvent(tick=60, channel=2, data=[62, 0]),
   midi.NoteOnEvent(tick=0, channel=2, data=[60, 79]),
   midi.NoteOnEvent(tick=60, channel=2, data=[60, 0]),
   midi.NoteOnEvent(tick=0, channel=2, data=[62, 79]),
   midi.NoteOnEvent(tick=60, channel=2, data=[62, 0]),
   midi.NoteOnEvent(tick=0, channel=2, data=[60, 79]),
   midi.NoteOnEvent(tick=120, channel=2, data=[60, 0]),
   midi.NoteOnEvent(tick=0, channel=2, data=[59, 79]),
   midi.NoteOnEvent(tick=480, channel=2, data=[59, 0]),
   midi.NoteOnEvent(tick=480, channel=2, data=[59, 79]),
   midi.ControlChangeEvent(tick=48, channel=2, data=[7, 66]),
   midi.NoteOnEvent(tick=432, channel=2, data=[59, 0]),
   midi.NoteOnEvent(tick=0, channel=2, data=[59, 79]),
   midi.NoteOnEvent(tick=480, channel=2, data=[59, 0]),
   midi.NoteOnEvent(tick=0, channel=2, data=[60, 79]),
   midi.NoteOnEvent(tick=240, channel=2, data=[60, 0]),
   midi.NoteOnEvent(tick=0, channel=2, data=[59, 79]),
   midi.NoteOnEvent(tick=240, channel=2, data=[59, 0]),
   midi.NoteOnEvent(tick=0, channel=2, data=[57, 79]),
   midi.NoteOnEvent(tick=240, channel=2, data=[57, 0]),
   midi.NoteOnEvent(tick=0, channel=2, data=[55, 79]),
   midi.NoteOnEvent(tick=240, channel=2, data=[55, 0]),
   midi.NoteOnEvent(tick=0, channel=2, data=[60, 79]),
   midi.NoteOnEvent(tick=480, channel=2, data=[60, 0]),
   midi.NoteOnEvent(tick=0, channel=2, data=[60, 79]),
   midi.NoteOnEvent(tick=480, channel=2, data=[60, 0]),
   midi.NoteOnEvent(tick=0, channel=2, data=[60, 79]),
   midi.NoteOnEvent(tick=960, channel=2, data=[60, 0]),
   midi.NoteOnEvent(tick=0, channel=2, data=[64, 79]),
   midi.ControlChangeEvent(tick=48, channel=2, data=[7, 66]),
   midi.NoteOnEvent(tick=432, channel=2, data=[64, 0]),
   midi.NoteOnEvent(tick=0, channel=2, data=[64, 79]),
   midi.NoteOnEvent(tick=480, channel=2, data=[64, 0]),
   midi.NoteOnEvent(tick=0, channel=2, data=[66, 79]),
   midi.NoteOnEvent(tick=240, channel=2, data=[66, 0]),
   midi.NoteOnEvent(tick=0, channel=2, data=[64, 79]),
   midi.NoteOnEvent(tick=240, channel=2, data=[64, 0]),
   midi.NoteOnEvent(tick=0, channel=2, data=[62, 79]),
   midi.NoteOnEvent(tick=240, channel=2, data=[62, 0]),
   midi.NoteOnEvent(tick=0, channel=2, data=[60, 79]),
   midi.NoteOnEvent(tick=240, channel=2, data=[60, 0]),
   midi.NoteOnEvent(tick=0, channel=2, data=[54, 79]),
   midi.NoteOnEvent(tick=480, channel=2, data=[54, 0]),
   midi.NoteOnEvent(tick=0, channel=2, data=[54, 79]),
   midi.NoteOnEvent(tick=480, channel=2, data=[54, 0]),
   midi.NoteOnEvent(tick=0, channel=2, data=[54, 79]),
   midi.NoteOnEvent(tick=960, channel=2, data=[54, 0]),
   midi.NoteOnEvent(tick=0, channel=2, data=[59, 79]),
   midi.ControlChangeEvent(tick=47, channel=2, data=[7, 68]),
   midi.ControlChangeEvent(tick=49, channel=2, data=[7, 104]),
   midi.NoteOnEvent(tick=384, channel=2, data=[59, 0]),
   midi.NoteOnEvent(tick=0, channel=2, data=[59, 79]),
   midi.NoteOnEvent(tick=480, channel=2, data=[59, 0]),
   midi.NoteOnEvent(tick=0, channel=2, data=[60, 79]),
   midi.NoteOnEvent(tick=240, channel=2, data=[60, 0]),
   midi.NoteOnEvent(tick=0, channel=2, data=[59, 79]),
   midi.NoteOnEvent(tick=240, channel=2, data=[59, 0]),
   midi.NoteOnEvent(tick=0, channel=2, data=[57, 79]),
   midi.NoteOnEvent(tick=240, channel=2, data=[57, 0]),
   midi.NoteOnEvent(tick=0, channel=2, data=[55, 79]),
   midi.NoteOnEvent(tick=240, channel=2, data=[55, 0]),
   midi.NoteOnEvent(tick=0, channel=2, data=[67, 79]),
   midi.NoteOnEvent(tick=480, channel=2, data=[67, 0]),
   midi.NoteOnEvent(tick=3360, channel=2, data=[62, 79]),
   midi.NoteOnEvent(tick=60, channel=2, data=[62, 0]),
   midi.NoteOnEvent(tick=0, channel=2, data=[60, 79]),
   midi.NoteOnEvent(tick=120, channel=2, data=[60, 0]),
   midi.NoteOnEvent(tick=0, channel=2, data=[62, 79]),
   midi.NoteOnEvent(tick=60, channel=2, data=[62, 0]),
   midi.NoteOnEvent(tick=0, channel=2, data=[60, 79]),
   midi.NoteOnEvent(tick=60, channel=2, data=[60, 0]),
   midi.NoteOnEvent(tick=0, channel=2, data=[62, 79]),
   midi.NoteOnEvent(tick=60, channel=2, data=[62, 0]),
   midi.NoteOnEvent(tick=0, channel=2, data=[60, 79]),
   midi.NoteOnEvent(tick=60, channel=2, data=[60, 0]),
   midi.NoteOnEvent(tick=0, channel=2, data=[62, 79]),
   midi.NoteOnEvent(tick=60, channel=2, data=[62, 0]),
   midi.NoteOnEvent(tick=0, channel=2, data=[60, 79]),
   midi.NoteOnEvent(tick=60, channel=2, data=[60, 0]),
   midi.NoteOnEvent(tick=0, channel=2, data=[62, 79]),
   midi.NoteOnEvent(tick=60, channel=2, data=[62, 0]),
   midi.NoteOnEvent(tick=0, channel=2, data=[60, 79]),
   midi.NoteOnEvent(tick=60, channel=2, data=[60, 0]),
   midi.NoteOnEvent(tick=0, channel=2, data=[62, 79]),
   midi.NoteOnEvent(tick=60, channel=2, data=[62, 0]),
   midi.NoteOnEvent(tick=0, channel=2, data=[60, 79]),
   midi.NoteOnEvent(tick=60, channel=2, data=[60, 0]),
   midi.NoteOnEvent(tick=0, channel=2, data=[62, 79]),
   midi.NoteOnEvent(tick=60, channel=2, data=[62, 0]),
   midi.NoteOnEvent(tick=0, channel=2, data=[60, 79]),
   midi.NoteOnEvent(tick=120, channel=2, data=[60, 0]),
   midi.NoteOnEvent(tick=0, channel=2, data=[59, 79]),
   midi.NoteOnEvent(tick=480, channel=2, data=[59, 0]),
   midi.NoteOnEvent(tick=1440, channel=2, data=[57, 79]),
   midi.NoteOnEvent(tick=960, channel=2, data=[57, 0]),
   midi.NoteOnEvent(tick=0, channel=2, data=[57, 79]),
   midi.NoteOnEvent(tick=960, channel=2, data=[57, 0]),
   midi.NoteOnEvent(tick=0, channel=2, data=[57, 79]),
   midi.NoteOnEvent(tick=480, channel=2, data=[57, 0]),
   midi.NoteOnEvent(tick=1440, channel=2, data=[62, 79]),
   midi.NoteOnEvent(tick=1440, channel=2, data=[62, 0]),
   midi.NoteOnEvent(tick=0, channel=2, data=[71, 79]),
   midi.NoteOnEvent(tick=480, channel=2, data=[71, 0]),
   midi.NoteOnEvent(tick=0, channel=2, data=[69, 79]),
   midi.NoteOnEvent(tick=960, channel=2, data=[69, 0]),
   midi.NoteOnEvent(tick=960, channel=2, data=[57, 79]),
   midi.ControlChangeEvent(tick=672, channel=2, data=[7, 104]),
   midi.NoteOnEvent(tick=288, channel=2, data=[57, 0]),
   midi.NoteOnEvent(tick=0, channel=2, data=[57, 79]),
   midi.NoteOnEvent(tick=960, channel=2, data=[57, 0]),
   midi.NoteOnEvent(tick=0, channel=2, data=[57, 79]),
   midi.NoteOnEvent(tick=960, channel=2, data=[57, 0]),
   midi.NoteOnEvent(tick=1440, channel=2, data=[62, 79]),
   midi.NoteOnEvent(tick=480, channel=2, data=[62, 0]),
   midi.NoteOnEvent(tick=0, channel=2, data=[69, 79]),
   midi.NoteOnEvent(tick=480, channel=2, data=[69, 0]),
   midi.NoteOnEvent(tick=0, channel=2, data=[57, 79]),
   midi.NoteOnEvent(tick=480, channel=2, data=[57, 0]),
   midi.NoteOnEvent(tick=0, channel=2, data=[57, 79]),
   midi.NoteOnEvent(tick=960, channel=2, data=[57, 0]),
   midi.ControlChangeEvent(tick=48, channel=2, data=[7, 56]),
   midi.NoteOnEvent(tick=1392, channel=2, data=[59, 36]),
   midi.NoteOnEvent(tick=480, channel=2, data=[59, 0]),
   midi.NoteOnEvent(tick=480, channel=2, data=[56, 36]),
   midi.NoteOnEvent(tick=480, channel=2, data=[56, 0]),
   midi.NoteOnEvent(tick=480, channel=2, data=[57, 36]),
   midi.NoteOnEvent(tick=480, channel=2, data=[57, 0]),
   midi.NoteOnEvent(tick=480, channel=2, data=[57, 36]),
   midi.NoteOnEvent(tick=480, channel=2, data=[57, 0]),
   midi.NoteOnEvent(tick=480, channel=2, data=[57, 36]),
   midi.NoteOnEvent(tick=480, channel=2, data=[57, 0]),
   midi.NoteOnEvent(tick=480, channel=2, data=[54, 36]),
   midi.NoteOnEvent(tick=480, channel=2, data=[54, 0]),
   midi.NoteOnEvent(tick=480, channel=2, data=[55, 36]),
   midi.NoteOnEvent(tick=480, channel=2, data=[55, 0]),
   midi.ControlChangeEvent(tick=47, channel=2, data=[7, 56]),
   midi.ControlChangeEvent(tick=1, channel=2, data=[7, 108]),
   midi.ControlChangeEvent(tick=1044, channel=2, data=[7, 107]),
   midi.ControlChangeEvent(tick=1044, channel=2, data=[7, 106]),
   midi.ControlChangeEvent(tick=1044, channel=2, data=[7, 105]),
   midi.ControlChangeEvent(tick=1043, channel=2, data=[7, 104]),
   midi.NoteOnEvent(tick=577, channel=2, data=[62, 79]),
   midi.NoteOnEvent(tick=1920, channel=2, data=[62, 0]),
   midi.NoteOnEvent(tick=0, channel=2, data=[62, 79]),
   midi.NoteOnEvent(tick=480, channel=2, data=[62, 0]),
   midi.NoteOnEvent(tick=480, channel=2, data=[59, 79]),
   midi.ControlChangeEvent(tick=48, channel=2, data=[7, 58]),
   midi.NoteOnEvent(tick=432, channel=2, data=[59, 0]),
   midi.NoteOnEvent(tick=0, channel=2, data=[59, 79]),
   midi.NoteOnEvent(tick=480, channel=2, data=[59, 0]),
   midi.NoteOnEvent(tick=0, channel=2, data=[60, 79]),
   midi.NoteOnEvent(tick=240, channel=2, data=[60, 0]),
   midi.NoteOnEvent(tick=0, channel=2, data=[59, 79]),
   midi.NoteOnEvent(tick=240, channel=2, data=[59, 0]),
   midi.NoteOnEvent(tick=0, channel=2, data=[57, 79]),
   midi.NoteOnEvent(tick=240, channel=2, data=[57, 0]),
   midi.NoteOnEvent(tick=0, channel=2, data=[55, 79]),
   midi.NoteOnEvent(tick=240, channel=2, data=[55, 0]),
   midi.NoteOnEvent(tick=0, channel=2, data=[60, 79]),
   midi.NoteOnEvent(tick=480, channel=2, data=[60, 0]),
   midi.NoteOnEvent(tick=0, channel=2, data=[60, 79]),
   midi.NoteOnEvent(tick=480, channel=2, data=[60, 0]),
   midi.NoteOnEvent(tick=0, channel=2, data=[60, 79]),
   midi.NoteOnEvent(tick=960, channel=2, data=[60, 0]),
   midi.NoteOnEvent(tick=0, channel=2, data=[64, 79]),
   midi.NoteOnEvent(tick=480, channel=2, data=[64, 0]),
   midi.NoteOnEvent(tick=0, channel=2, data=[64, 79]),
   midi.NoteOnEvent(tick=480, channel=2, data=[64, 0]),
   midi.NoteOnEvent(tick=0, channel=2, data=[66, 79]),
   midi.NoteOnEvent(tick=240, channel=2, data=[66, 0]),
   midi.NoteOnEvent(tick=0, channel=2, data=[64, 79]),
   midi.NoteOnEvent(tick=240, channel=2, data=[64, 0]),
   midi.NoteOnEvent(tick=0, channel=2, data=[62, 79]),
   midi.NoteOnEvent(tick=240, channel=2, data=[62, 0]),
   midi.NoteOnEvent(tick=0, channel=2, data=[60, 79]),
   midi.NoteOnEvent(tick=240, channel=2, data=[60, 0]),
   midi.NoteOnEvent(tick=0, channel=2, data=[54, 79]),
   midi.NoteOnEvent(tick=480, channel=2, data=[54, 0]),
   midi.NoteOnEvent(tick=0, channel=2, data=[54, 79]),
   midi.NoteOnEvent(tick=480, channel=2, data=[54, 0]),
   midi.NoteOnEvent(tick=0, channel=2, data=[54, 79]),
   midi.NoteOnEvent(tick=960, channel=2, data=[54, 0]),
   midi.NoteOnEvent(tick=0, channel=2, data=[59, 79]),
   midi.ControlChangeEvent(tick=48, channel=2, data=[7, 106]),
   midi.NoteOnEvent(tick=432, channel=2, data=[59, 0]),
   midi.NoteOnEvent(tick=0, channel=2, data=[59, 79]),
   midi.NoteOnEvent(tick=480, channel=2, data=[59, 0]),
   midi.NoteOnEvent(tick=0, channel=2, data=[60, 79]),
   midi.NoteOnEvent(tick=240, channel=2, data=[60, 0]),
   midi.NoteOnEvent(tick=0, channel=2, data=[59, 79]),
   midi.NoteOnEvent(tick=240, channel=2, data=[59, 0]),
   midi.NoteOnEvent(tick=0, channel=2, data=[57, 79]),
   midi.NoteOnEvent(tick=240, channel=2, data=[57, 0]),
   midi.NoteOnEvent(tick=0, channel=2, data=[55, 79]),
   midi.NoteOnEvent(tick=240, channel=2, data=[55, 0]),
   midi.NoteOnEvent(tick=0, channel=2, data=[67, 79]),
   midi.NoteOnEvent(tick=480, channel=2, data=[67, 0]),
   midi.NoteOnEvent(tick=3360, channel=2, data=[64, 79]),
   midi.NoteOnEvent(tick=60, channel=2, data=[64, 0]),
   midi.NoteOnEvent(tick=0, channel=2, data=[60, 79]),
   midi.NoteOnEvent(tick=60, channel=2, data=[60, 0]),
   midi.NoteOnEvent(tick=0, channel=2, data=[64, 79]),
   midi.NoteOnEvent(tick=60, channel=2, data=[64, 0]),
   midi.NoteOnEvent(tick=0, channel=2, data=[60, 79]),
   midi.NoteOnEvent(tick=120, channel=2, data=[60, 0]),
   midi.NoteOnEvent(tick=0, channel=2, data=[64, 79]),
   midi.NoteOnEvent(tick=60, channel=2, data=[64, 0]),
   midi.NoteOnEvent(tick=0, channel=2, data=[60, 79]),
   midi.NoteOnEvent(tick=60, channel=2, data=[60, 0]),
   midi.NoteOnEvent(tick=0, channel=2, data=[64, 79]),
   midi.NoteOnEvent(tick=60, channel=2, data=[64, 0]),
   midi.NoteOnEvent(tick=0, channel=2, data=[60, 79]),
   midi.NoteOnEvent(tick=60, channel=2, data=[60, 0]),
   midi.NoteOnEvent(tick=0, channel=2, data=[64, 79]),
   midi.NoteOnEvent(tick=60, channel=2, data=[64, 0]),
   midi.NoteOnEvent(tick=0, channel=2, data=[60, 79]),
   midi.NoteOnEvent(tick=60, channel=2, data=[60, 0]),
   midi.NoteOnEvent(tick=0, channel=2, data=[64, 79]),
   midi.NoteOnEvent(tick=60, channel=2, data=[64, 0]),
   midi.NoteOnEvent(tick=0, channel=2, data=[60, 79]),
   midi.NoteOnEvent(tick=60, channel=2, data=[60, 0]),
   midi.NoteOnEvent(tick=0, channel=2, data=[64, 79]),
   midi.NoteOnEvent(tick=60, channel=2, data=[64, 0]),
   midi.NoteOnEvent(tick=0, channel=2, data=[60, 79]),
   midi.NoteOnEvent(tick=60, channel=2, data=[60, 0]),
   midi.NoteOnEvent(tick=0, channel=2, data=[64, 79]),
   midi.NoteOnEvent(tick=60, channel=2, data=[64, 0]),
   midi.NoteOnEvent(tick=0, channel=2, data=[59, 79]),
   midi.NoteOnEvent(tick=480, channel=2, data=[59, 0]),
   midi.NoteOnEvent(tick=1440, channel=2, data=[57, 79]),
   midi.NoteOnEvent(tick=960, channel=2, data=[57, 0]),
   midi.NoteOnEvent(tick=0, channel=2, data=[57, 79]),
   midi.NoteOnEvent(tick=960, channel=2, data=[57, 0]),
   midi.NoteOnEvent(tick=0, channel=2, data=[57, 79]),
   midi.NoteOnEvent(tick=480, channel=2, data=[57, 0]),
   midi.NoteOnEvent(tick=1440, channel=2, data=[62, 79]),
   midi.NoteOnEvent(tick=1440, channel=2, data=[62, 0]),
   midi.NoteOnEvent(tick=0, channel=2, data=[71, 79]),
   midi.NoteOnEvent(tick=480, channel=2, data=[71, 0]),
   midi.NoteOnEvent(tick=0, channel=2, data=[69, 79]),
   midi.NoteOnEvent(tick=960, channel=2, data=[69, 0]),
   midi.NoteOnEvent(tick=960, channel=2, data=[57, 79]),
   midi.NoteOnEvent(tick=960, channel=2, data=[57, 0]),
   midi.NoteOnEvent(tick=0, channel=2, data=[57, 79]),
   midi.NoteOnEvent(tick=960, channel=2, data=[57, 0]),
   midi.NoteOnEvent(tick=0, channel=2, data=[57, 79]),
   midi.NoteOnEvent(tick=960, channel=2, data=[57, 0]),
   midi.NoteOnEvent(tick=1440, channel=2, data=[62, 79]),
   midi.NoteOnEvent(tick=480, channel=2, data=[62, 0]),
   midi.NoteOnEvent(tick=0, channel=2, data=[69, 79]),
   midi.NoteOnEvent(tick=480, channel=2, data=[69, 0]),
   midi.NoteOnEvent(tick=0, channel=2, data=[57, 79]),
   midi.NoteOnEvent(tick=480, channel=2, data=[57, 0]),
   midi.NoteOnEvent(tick=0, channel=2, data=[57, 79]),
   midi.NoteOnEvent(tick=960, channel=2, data=[57, 0]),
   midi.ControlChangeEvent(tick=96, channel=2, data=[7, 60]),
   midi.NoteOnEvent(tick=1344, channel=2, data=[59, 36]),
   midi.NoteOnEvent(tick=480, channel=2, data=[59, 0]),
   midi.NoteOnEvent(tick=480, channel=2, data=[56, 36]),
   midi.NoteOnEvent(tick=480, channel=2, data=[56, 0]),
   midi.NoteOnEvent(tick=480, channel=2, data=[57, 36]),
   midi.NoteOnEvent(tick=480, channel=2, data=[57, 0]),
   midi.NoteOnEvent(tick=480, channel=2, data=[57, 36]),
   midi.NoteOnEvent(tick=480, channel=2, data=[57, 0]),
   midi.NoteOnEvent(tick=480, channel=2, data=[57, 36]),
   midi.NoteOnEvent(tick=480, channel=2, data=[57, 0]),
   midi.NoteOnEvent(tick=480, channel=2, data=[54, 36]),
   midi.NoteOnEvent(tick=480, channel=2, data=[54, 0]),
   midi.NoteOnEvent(tick=480, channel=2, data=[55, 36]),
   midi.NoteOnEvent(tick=480, channel=2, data=[55, 0]),
   midi.ControlChangeEvent(tick=47, channel=2, data=[7, 60]),
   midi.ControlChangeEvent(tick=1, channel=2, data=[7, 108]),
   midi.NoteOnEvent(tick=4752, channel=2, data=[62, 79]),
   midi.NoteOnEvent(tick=1920, channel=2, data=[62, 0]),
   midi.NoteOnEvent(tick=0, channel=2, data=[62, 79]),
   midi.NoteOnEvent(tick=480, channel=2, data=[62, 0]),
   midi.NoteOnEvent(tick=480, channel=2, data=[59, 79]),
   midi.ControlChangeEvent(tick=48, channel=2, data=[7, 60]),
   midi.NoteOnEvent(tick=432, channel=2, data=[59, 0]),
   midi.NoteOnEvent(tick=0, channel=2, data=[59, 79]),
   midi.NoteOnEvent(tick=480, channel=2, data=[59, 0]),
   midi.NoteOnEvent(tick=0, channel=2, data=[60, 79]),
   midi.NoteOnEvent(tick=240, channel=2, data=[60, 0]),
   midi.NoteOnEvent(tick=0, channel=2, data=[59, 79]),
   midi.NoteOnEvent(tick=240, channel=2, data=[59, 0]),
   midi.NoteOnEvent(tick=0, channel=2, data=[57, 79]),
   midi.NoteOnEvent(tick=240, channel=2, data=[57, 0]),
   midi.NoteOnEvent(tick=0, channel=2, data=[55, 79]),
   midi.NoteOnEvent(tick=240, channel=2, data=[55, 0]),
   midi.NoteOnEvent(tick=0, channel=2, data=[60, 79]),
   midi.NoteOnEvent(tick=480, channel=2, data=[60, 0]),
   midi.NoteOnEvent(tick=0, channel=2, data=[60, 79]),
   midi.NoteOnEvent(tick=480, channel=2, data=[60, 0]),
   midi.NoteOnEvent(tick=0, channel=2, data=[60, 79]),
   midi.NoteOnEvent(tick=960, channel=2, data=[60, 0]),
   midi.NoteOnEvent(tick=0, channel=2, data=[64, 79]),
   midi.NoteOnEvent(tick=480, channel=2, data=[64, 0]),
   midi.NoteOnEvent(tick=0, channel=2, data=[64, 79]),
   midi.NoteOnEvent(tick=480, channel=2, data=[64, 0]),
   midi.NoteOnEvent(tick=0, channel=2, data=[66, 79]),
   midi.NoteOnEvent(tick=240, channel=2, data=[66, 0]),
   midi.NoteOnEvent(tick=0, channel=2, data=[64, 79]),
   midi.NoteOnEvent(tick=240, channel=2, data=[64, 0]),
   midi.NoteOnEvent(tick=0, channel=2, data=[62, 79]),
   midi.NoteOnEvent(tick=240, channel=2, data=[62, 0]),
   midi.NoteOnEvent(tick=0, channel=2, data=[60, 79]),
   midi.NoteOnEvent(tick=240, channel=2, data=[60, 0]),
   midi.NoteOnEvent(tick=0, channel=2, data=[54, 79]),
   midi.NoteOnEvent(tick=480, channel=2, data=[54, 0]),
   midi.NoteOnEvent(tick=0, channel=2, data=[54, 79]),
   midi.NoteOnEvent(tick=480, channel=2, data=[54, 0]),
   midi.NoteOnEvent(tick=0, channel=2, data=[54, 79]),
   midi.NoteOnEvent(tick=960, channel=2, data=[54, 0]),
   midi.NoteOnEvent(tick=0, channel=2, data=[59, 79]),
   midi.ControlChangeEvent(tick=95, channel=2, data=[7, 60]),
   midi.ControlChangeEvent(tick=1, channel=2, data=[7, 104]),
   midi.NoteOnEvent(tick=384, channel=2, data=[59, 0]),
   midi.NoteOnEvent(tick=0, channel=2, data=[59, 79]),
   midi.NoteOnEvent(tick=480, channel=2, data=[59, 0]),
   midi.NoteOnEvent(tick=0, channel=2, data=[60, 79]),
   midi.NoteOnEvent(tick=240, channel=2, data=[60, 0]),
   midi.NoteOnEvent(tick=0, channel=2, data=[59, 79]),
   midi.NoteOnEvent(tick=240, channel=2, data=[59, 0]),
   midi.NoteOnEvent(tick=0, channel=2, data=[57, 79]),
   midi.NoteOnEvent(tick=240, channel=2, data=[57, 0]),
   midi.NoteOnEvent(tick=0, channel=2, data=[55, 79]),
   midi.NoteOnEvent(tick=240, channel=2, data=[55, 0]),
   midi.NoteOnEvent(tick=0, channel=2, data=[67, 79]),
   midi.NoteOnEvent(tick=480, channel=2, data=[67, 0]),
   midi.NoteOnEvent(tick=3360, channel=2, data=[64, 79]),
   midi.NoteOnEvent(tick=60, channel=2, data=[64, 0]),
   midi.NoteOnEvent(tick=0, channel=2, data=[60, 79]),
   midi.NoteOnEvent(tick=60, channel=2, data=[60, 0]),
   midi.NoteOnEvent(tick=0, channel=2, data=[64, 79]),
   midi.NoteOnEvent(tick=60, channel=2, data=[64, 0]),
   midi.NoteOnEvent(tick=0, channel=2, data=[60, 79]),
   midi.NoteOnEvent(tick=120, channel=2, data=[60, 0]),
   midi.NoteOnEvent(tick=0, channel=2, data=[64, 79]),
   midi.NoteOnEvent(tick=60, channel=2, data=[64, 0]),
   midi.NoteOnEvent(tick=0, channel=2, data=[60, 79]),
   midi.NoteOnEvent(tick=60, channel=2, data=[60, 0]),
   midi.NoteOnEvent(tick=0, channel=2, data=[64, 79]),
   midi.NoteOnEvent(tick=60, channel=2, data=[64, 0]),
   midi.NoteOnEvent(tick=0, channel=2, data=[60, 79]),
   midi.NoteOnEvent(tick=60, channel=2, data=[60, 0]),
   midi.NoteOnEvent(tick=0, channel=2, data=[64, 79]),
   midi.NoteOnEvent(tick=60, channel=2, data=[64, 0]),
   midi.NoteOnEvent(tick=0, channel=2, data=[60, 79]),
   midi.NoteOnEvent(tick=60, channel=2, data=[60, 0]),
   midi.NoteOnEvent(tick=0, channel=2, data=[64, 79]),
   midi.NoteOnEvent(tick=60, channel=2, data=[64, 0]),
   midi.NoteOnEvent(tick=0, channel=2, data=[60, 79]),
   midi.NoteOnEvent(tick=60, channel=2, data=[60, 0]),
   midi.NoteOnEvent(tick=0, channel=2, data=[64, 79]),
   midi.NoteOnEvent(tick=60, channel=2, data=[64, 0]),
   midi.NoteOnEvent(tick=0, channel=2, data=[60, 79]),
   midi.NoteOnEvent(tick=60, channel=2, data=[60, 0]),
   midi.NoteOnEvent(tick=0, channel=2, data=[64, 79]),
   midi.NoteOnEvent(tick=60, channel=2, data=[64, 0]),
   midi.NoteOnEvent(tick=0, channel=2, data=[59, 79]),
   midi.NoteOnEvent(tick=480, channel=2, data=[59, 0]),
   midi.ControlChangeEvent(tick=527, channel=2, data=[7, 104]),
   midi.ControlChangeEvent(tick=49, channel=2, data=[7, 54]),
   midi.NoteOnEvent(tick=2784, channel=2, data=[62, 36]),
   midi.NoteOnEvent(tick=960, channel=2, data=[62, 0]),
   midi.NoteOnEvent(tick=0, channel=2, data=[70, 36]),
   midi.NoteOnEvent(tick=960, channel=2, data=[70, 0]),
   midi.NoteOnEvent(tick=0, channel=2, data=[70, 36]),
   midi.NoteOnEvent(tick=960, channel=2, data=[70, 0]),
   midi.NoteOnEvent(tick=0, channel=2, data=[69, 36]),
   midi.NoteOnEvent(tick=960, channel=2, data=[69, 0]),
   midi.NoteOnEvent(tick=0, channel=2, data=[70, 36]),
   midi.NoteOnEvent(tick=960, channel=2, data=[70, 0]),
   midi.NoteOnEvent(tick=2880, channel=2, data=[69, 36]),
   midi.NoteOnEvent(tick=960, channel=2, data=[69, 0]),
   midi.NoteOnEvent(tick=0, channel=2, data=[57, 36]),
   midi.NoteOnEvent(tick=480, channel=2, data=[57, 0]),
   midi.NoteOnEvent(tick=0, channel=2, data=[57, 36]),
   midi.NoteOnEvent(tick=480, channel=2, data=[57, 0]),
   midi.NoteOnEvent(tick=0, channel=2, data=[57, 36]),
   midi.NoteOnEvent(tick=240, channel=2, data=[57, 0]),
   midi.NoteOnEvent(tick=0, channel=2, data=[55, 36]),
   midi.NoteOnEvent(tick=240, channel=2, data=[55, 0]),
   midi.NoteOnEvent(tick=0, channel=2, data=[53, 36]),
   midi.NoteOnEvent(tick=960, channel=2, data=[53, 0]),
   midi.NoteOnEvent(tick=0, channel=2, data=[52, 36]),
   midi.NoteOnEvent(tick=480, channel=2, data=[52, 0]),
   midi.NoteOnEvent(tick=0, channel=2, data=[50, 36]),
   midi.NoteOnEvent(tick=960, channel=2, data=[50, 0]),
   midi.NoteOnEvent(tick=2880, channel=2, data=[62, 36]),
   midi.NoteOnEvent(tick=960, channel=2, data=[62, 0]),
   midi.NoteOnEvent(tick=0, channel=2, data=[70, 36]),
   midi.NoteOnEvent(tick=960, channel=2, data=[70, 0]),
   midi.NoteOnEvent(tick=0, channel=2, data=[70, 36]),
   midi.NoteOnEvent(tick=960, channel=2, data=[70, 0]),
   midi.NoteOnEvent(tick=0, channel=2, data=[69, 36]),
   midi.NoteOnEvent(tick=960, channel=2, data=[69, 0]),
   midi.NoteOnEvent(tick=0, channel=2, data=[70, 36]),
   midi.NoteOnEvent(tick=960, channel=2, data=[70, 0]),
   midi.NoteOnEvent(tick=2880, channel=2, data=[69, 36]),
   midi.NoteOnEvent(tick=960, channel=2, data=[69, 0]),
   midi.NoteOnEvent(tick=0, channel=2, data=[57, 36]),
   midi.NoteOnEvent(tick=480, channel=2, data=[57, 0]),
   midi.NoteOnEvent(tick=0, channel=2, data=[57, 36]),
   midi.NoteOnEvent(tick=480, channel=2, data=[57, 0]),
   midi.NoteOnEvent(tick=0, channel=2, data=[57, 36]),
   midi.NoteOnEvent(tick=240, channel=2, data=[57, 0]),
   midi.NoteOnEvent(tick=0, channel=2, data=[55, 36]),
   midi.NoteOnEvent(tick=240, channel=2, data=[55, 0]),
   midi.NoteOnEvent(tick=0, channel=2, data=[53, 36]),
   midi.NoteOnEvent(tick=960, channel=2, data=[53, 0]),
   midi.NoteOnEvent(tick=0, channel=2, data=[52, 36]),
   midi.NoteOnEvent(tick=480, channel=2, data=[52, 0]),
   midi.NoteOnEvent(tick=0, channel=2, data=[50, 36]),
   midi.ControlChangeEvent(tick=249, channel=2, data=[7, 54]),
   midi.ControlChangeEvent(tick=172, channel=2, data=[7, 54]),
   midi.ControlChangeEvent(tick=172, channel=2, data=[7, 56]),
   midi.ControlChangeEvent(tick=225, channel=2, data=[7, 54]),
   midi.NoteOnEvent(tick=142, channel=2, data=[50, 0]),
   midi.NoteOnEvent(tick=0, channel=2, data=[62, 79]),
   midi.ControlChangeEvent(tick=289, channel=2, data=[7, 55]),
   midi.ControlChangeEvent(tick=35, channel=2, data=[7, 106]),
   midi.NoteOnEvent(tick=156, channel=2, data=[62, 0]),
   midi.NoteOnEvent(tick=0, channel=2, data=[62, 79]),
   midi.NoteOnEvent(tick=240, channel=2, data=[62, 0]),
   midi.NoteOnEvent(tick=0, channel=2, data=[62, 79]),
   midi.NoteOnEvent(tick=240, channel=2, data=[62, 0]),
   midi.NoteOnEvent(tick=0, channel=2, data=[65, 79]),
   midi.NoteOnEvent(tick=480, channel=2, data=[65, 0]),
   midi.NoteOnEvent(tick=0, channel=2, data=[59, 79]),
   midi.ControlChangeEvent(tick=143, channel=2, data=[7, 105]),
   midi.NoteOnEvent(tick=337, channel=2, data=[59, 0]),
   midi.NoteOnEvent(tick=0, channel=2, data=[59, 79]),
   midi.NoteOnEvent(tick=480, channel=2, data=[59, 0]),
   midi.NoteOnEvent(tick=0, channel=2, data=[59, 79]),
   midi.NoteOnEvent(tick=240, channel=2, data=[59, 0]),
   midi.NoteOnEvent(tick=0, channel=2, data=[59, 79]),
   midi.ControlChangeEvent(tick=202, channel=2, data=[7, 104]),
   midi.NoteOnEvent(tick=38, channel=2, data=[59, 0]),
   midi.NoteOnEvent(tick=0, channel=2, data=[62, 79]),
   midi.NoteOnEvent(tick=480, channel=2, data=[62, 0]),
   midi.NoteOnEvent(tick=0, channel=2, data=[60, 79]),
   midi.NoteOnEvent(tick=480, channel=2, data=[60, 0]),
   midi.NoteOnEvent(tick=0, channel=2, data=[60, 79]),
   midi.ControlChangeEvent(tick=261, channel=2, data=[7, 103]),
   midi.NoteOnEvent(tick=219, channel=2, data=[60, 0]),
   midi.NoteOnEvent(tick=0, channel=2, data=[60, 79]),
   midi.NoteOnEvent(tick=240, channel=2, data=[60, 0]),
   midi.NoteOnEvent(tick=0, channel=2, data=[60, 79]),
   midi.NoteOnEvent(tick=240, channel=2, data=[60, 0]),
   midi.NoteOnEvent(tick=0, channel=2, data=[63, 79]),
   midi.NoteOnEvent(tick=480, channel=2, data=[63, 0]),
   midi.NoteOnEvent(tick=0, channel=2, data=[57, 79]),
   midi.ControlChangeEvent(tick=80, channel=2, data=[7, 102]),
   midi.ControlChangeEvent(tick=15, channel=2, data=[7, 102]),
   midi.NoteOnEvent(tick=385, channel=2, data=[57, 0]),
   midi.NoteOnEvent(tick=0, channel=2, data=[57, 79]),
   midi.NoteOnEvent(tick=480, channel=2, data=[57, 0]),
   midi.NoteOnEvent(tick=0, channel=2, data=[57, 79]),
   midi.NoteOnEvent(tick=240, channel=2, data=[57, 0]),
   midi.NoteOnEvent(tick=0, channel=2, data=[57, 79]),
   midi.NoteOnEvent(tick=240, channel=2, data=[57, 0]),
   midi.NoteOnEvent(tick=0, channel=2, data=[60, 79]),
   midi.NoteOnEvent(tick=480, channel=2, data=[60, 0]),
   midi.NoteOnEvent(tick=0, channel=2, data=[58, 79]),
   midi.NoteOnEvent(tick=480, channel=2, data=[58, 0]),
   midi.ControlChangeEvent(tick=192, channel=2, data=[7, 58]),
   midi.NoteOnEvent(tick=1728, channel=2, data=[69, 36]),
   midi.NoteOnEvent(tick=960, channel=2, data=[69, 0]),
   midi.NoteOnEvent(tick=0, channel=2, data=[69, 36]),
   midi.NoteOnEvent(tick=960, channel=2, data=[69, 0]),
   midi.NoteOnEvent(tick=0, channel=2, data=[67, 36]),
   midi.NoteOnEvent(tick=960, channel=2, data=[67, 0]),
   midi.NoteOnEvent(tick=960, channel=2, data=[72, 36]),
   midi.NoteOnEvent(tick=960, channel=2, data=[72, 0]),
   midi.NoteOnEvent(tick=0, channel=2, data=[72, 36]),
   midi.NoteOnEvent(tick=960, channel=2, data=[72, 0]),
   midi.NoteOnEvent(tick=0, channel=2, data=[70, 36]),
   midi.NoteOnEvent(tick=480, channel=2, data=[70, 0]),
   midi.NoteOnEvent(tick=0, channel=2, data=[70, 36]),
   midi.NoteOnEvent(tick=240, channel=2, data=[70, 0]),
   midi.NoteOnEvent(tick=0, channel=2, data=[70, 36]),
   midi.NoteOnEvent(tick=240, channel=2, data=[70, 0]),
   midi.NoteOnEvent(tick=0, channel=2, data=[69, 36]),
   midi.NoteOnEvent(tick=960, channel=2, data=[69, 0]),
   midi.NoteOnEvent(tick=0, channel=2, data=[67, 36]),
   midi.NoteOnEvent(tick=480, channel=2, data=[67, 0]),
   midi.NoteOnEvent(tick=0, channel=2, data=[67, 36]),
   midi.NoteOnEvent(tick=240, channel=2, data=[67, 0]),
   midi.NoteOnEvent(tick=0, channel=2, data=[67, 36]),
   midi.NoteOnEvent(tick=240, channel=2, data=[67, 0]),
   midi.NoteOnEvent(tick=0, channel=2, data=[66, 36]),
   midi.ControlChangeEvent(tick=959, channel=2, data=[7, 58]),
   midi.NoteOnEvent(tick=1, channel=2, data=[66, 0]),
   midi.NoteOnEvent(tick=0, channel=2, data=[62, 79]),
   midi.ControlChangeEvent(tick=96, channel=2, data=[7, 98]),
   midi.NoteOnEvent(tick=384, channel=2, data=[62, 0]),
   midi.NoteOnEvent(tick=0, channel=2, data=[62, 79]),
   midi.NoteOnEvent(tick=240, channel=2, data=[62, 0]),
   midi.NoteOnEvent(tick=0, channel=2, data=[62, 79]),
   midi.NoteOnEvent(tick=240, channel=2, data=[62, 0]),
   midi.NoteOnEvent(tick=0, channel=2, data=[62, 79]),
   midi.NoteOnEvent(tick=960, channel=2, data=[62, 0]),
   midi.NoteOnEvent(tick=0, channel=2, data=[55, 79]),
   midi.ControlChangeEvent(tick=431, channel=2, data=[7, 98]),
   midi.NoteOnEvent(tick=529, channel=2, data=[55, 0]),
   midi.NoteOnEvent(tick=0, channel=2, data=[57, 79]),
   midi.NoteOnEvent(tick=480, channel=2, data=[57, 0]),
   midi.NoteOnEvent(tick=0, channel=2, data=[62, 79]),
   midi.NoteOnEvent(tick=960, channel=2, data=[62, 0]),
   midi.NoteOnEvent(tick=0, channel=2, data=[66, 79]),
   midi.NoteOnEvent(tick=480, channel=2, data=[66, 0]),
   midi.NoteOnEvent(tick=0, channel=2, data=[62, 79]),
   midi.NoteOnEvent(tick=1920, channel=2, data=[62, 0]),
   midi.NoteOnEvent(tick=0, channel=2, data=[62, 79]),
   midi.ControlChangeEvent(tick=864, channel=2, data=[7, 56]),
   midi.NoteOnEvent(tick=96, channel=2, data=[62, 0]),
   midi.NoteOnEvent(tick=0, channel=2, data=[59, 79]),
   midi.NoteOnEvent(tick=480, channel=2, data=[59, 0]),
   midi.NoteOnEvent(tick=0, channel=2, data=[59, 79]),
   midi.NoteOnEvent(tick=480, channel=2, data=[59, 0]),
   midi.NoteOnEvent(tick=0, channel=2, data=[60, 79]),
   midi.NoteOnEvent(tick=240, channel=2, data=[60, 0]),
   midi.NoteOnEvent(tick=0, channel=2, data=[59, 79]),
   midi.NoteOnEvent(tick=240, channel=2, data=[59, 0]),
   midi.NoteOnEvent(tick=0, channel=2, data=[57, 79]),
   midi.NoteOnEvent(tick=240, channel=2, data=[57, 0]),
   midi.NoteOnEvent(tick=0, channel=2, data=[55, 79]),
   midi.NoteOnEvent(tick=240, channel=2, data=[55, 0]),
   midi.NoteOnEvent(tick=0, channel=2, data=[60, 79]),
   midi.NoteOnEvent(tick=480, channel=2, data=[60, 0]),
   midi.NoteOnEvent(tick=0, channel=2, data=[60, 79]),
   midi.NoteOnEvent(tick=480, channel=2, data=[60, 0]),
   midi.NoteOnEvent(tick=0, channel=2, data=[60, 79]),
   midi.NoteOnEvent(tick=960, channel=2, data=[60, 0]),
   midi.NoteOnEvent(tick=0, channel=2, data=[64, 79]),
   midi.NoteOnEvent(tick=480, channel=2, data=[64, 0]),
   midi.NoteOnEvent(tick=0, channel=2, data=[64, 79]),
   midi.NoteOnEvent(tick=480, channel=2, data=[64, 0]),
   midi.NoteOnEvent(tick=0, channel=2, data=[66, 79]),
   midi.NoteOnEvent(tick=240, channel=2, data=[66, 0]),
   midi.NoteOnEvent(tick=0, channel=2, data=[64, 79]),
   midi.NoteOnEvent(tick=240, channel=2, data=[64, 0]),
   midi.NoteOnEvent(tick=0, channel=2, data=[62, 79]),
   midi.NoteOnEvent(tick=240, channel=2, data=[62, 0]),
   midi.NoteOnEvent(tick=0, channel=2, data=[60, 79]),
   midi.NoteOnEvent(tick=240, channel=2, data=[60, 0]),
   midi.NoteOnEvent(tick=0, channel=2, data=[54, 79]),
   midi.NoteOnEvent(tick=480, channel=2, data=[54, 0]),
   midi.NoteOnEvent(tick=0, channel=2, data=[54, 79]),
   midi.NoteOnEvent(tick=480, channel=2, data=[54, 0]),
   midi.NoteOnEvent(tick=0, channel=2, data=[54, 79]),
   midi.NoteOnEvent(tick=960, channel=2, data=[54, 0]),
   midi.NoteOnEvent(tick=0, channel=2, data=[59, 79]),
   midi.ControlChangeEvent(tick=95, channel=2, data=[7, 56]),
   midi.ControlChangeEvent(tick=1, channel=2, data=[7, 96]),
   midi.NoteOnEvent(tick=384, channel=2, data=[59, 0]),
   midi.NoteOnEvent(tick=0, channel=2, data=[59, 79]),
   midi.NoteOnEvent(tick=480, channel=2, data=[59, 0]),
   midi.NoteOnEvent(tick=0, channel=2, data=[60, 79]),
   midi.NoteOnEvent(tick=240, channel=2, data=[60, 0]),
   midi.NoteOnEvent(tick=0, channel=2, data=[59, 79]),
   midi.NoteOnEvent(tick=240, channel=2, data=[59, 0]),
   midi.NoteOnEvent(tick=0, channel=2, data=[57, 79]),
   midi.NoteOnEvent(tick=240, channel=2, data=[57, 0]),
   midi.NoteOnEvent(tick=0, channel=2, data=[55, 79]),
   midi.NoteOnEvent(tick=240, channel=2, data=[55, 0]),
   midi.NoteOnEvent(tick=0, channel=2, data=[67, 79]),
   midi.NoteOnEvent(tick=480, channel=2, data=[67, 0]),
   midi.NoteOnEvent(tick=3360, channel=2, data=[62, 79]),
   midi.NoteOnEvent(tick=60, channel=2, data=[62, 0]),
   midi.NoteOnEvent(tick=0, channel=2, data=[60, 79]),
   midi.NoteOnEvent(tick=120, channel=2, data=[60, 0]),
   midi.NoteOnEvent(tick=0, channel=2, data=[62, 79]),
   midi.NoteOnEvent(tick=60, channel=2, data=[62, 0]),
   midi.NoteOnEvent(tick=0, channel=2, data=[60, 79]),
   midi.NoteOnEvent(tick=60, channel=2, data=[60, 0]),
   midi.NoteOnEvent(tick=0, channel=2, data=[62, 79]),
   midi.NoteOnEvent(tick=60, channel=2, data=[62, 0]),
   midi.NoteOnEvent(tick=0, channel=2, data=[60, 79]),
   midi.NoteOnEvent(tick=60, channel=2, data=[60, 0]),
   midi.NoteOnEvent(tick=0, channel=2, data=[62, 79]),
   midi.NoteOnEvent(tick=60, channel=2, data=[62, 0]),
   midi.NoteOnEvent(tick=0, channel=2, data=[60, 79]),
   midi.NoteOnEvent(tick=60, channel=2, data=[60, 0]),
   midi.NoteOnEvent(tick=0, channel=2, data=[62, 79]),
   midi.NoteOnEvent(tick=60, channel=2, data=[62, 0]),
   midi.NoteOnEvent(tick=0, channel=2, data=[60, 79]),
   midi.NoteOnEvent(tick=60, channel=2, data=[60, 0]),
   midi.NoteOnEvent(tick=0, channel=2, data=[62, 79]),
   midi.NoteOnEvent(tick=60, channel=2, data=[62, 0]),
   midi.NoteOnEvent(tick=0, channel=2, data=[60, 79]),
   midi.NoteOnEvent(tick=60, channel=2, data=[60, 0]),
   midi.NoteOnEvent(tick=0, channel=2, data=[62, 79]),
   midi.NoteOnEvent(tick=60, channel=2, data=[62, 0]),
   midi.NoteOnEvent(tick=0, channel=2, data=[60, 79]),
   midi.NoteOnEvent(tick=120, channel=2, data=[60, 0]),
   midi.NoteOnEvent(tick=0, channel=2, data=[59, 79]),
   midi.NoteOnEvent(tick=480, channel=2, data=[59, 0]),
   midi.NoteOnEvent(tick=1440, channel=2, data=[57, 79]),
   midi.NoteOnEvent(tick=960, channel=2, data=[57, 0]),
   midi.NoteOnEvent(tick=0, channel=2, data=[57, 79]),
   midi.NoteOnEvent(tick=960, channel=2, data=[57, 0]),
   midi.NoteOnEvent(tick=0, channel=2, data=[57, 79]),
   midi.NoteOnEvent(tick=480, channel=2, data=[57, 0]),
   midi.NoteOnEvent(tick=1440, channel=2, data=[62, 79]),
   midi.NoteOnEvent(tick=1440, channel=2, data=[62, 0]),
   midi.NoteOnEvent(tick=0, channel=2, data=[71, 79]),
   midi.NoteOnEvent(tick=480, channel=2, data=[71, 0]),
   midi.NoteOnEvent(tick=0, channel=2, data=[69, 79]),
   midi.NoteOnEvent(tick=960, channel=2, data=[69, 0]),
   midi.NoteOnEvent(tick=960, channel=2, data=[57, 79]),
   midi.NoteOnEvent(tick=960, channel=2, data=[57, 0]),
   midi.NoteOnEvent(tick=0, channel=2, data=[57, 79]),
   midi.NoteOnEvent(tick=960, channel=2, data=[57, 0]),
   midi.NoteOnEvent(tick=0, channel=2, data=[57, 79]),
   midi.NoteOnEvent(tick=960, channel=2, data=[57, 0]),
   midi.NoteOnEvent(tick=1440, channel=2, data=[62, 79]),
   midi.NoteOnEvent(tick=480, channel=2, data=[62, 0]),
   midi.NoteOnEvent(tick=0, channel=2, data=[69, 79]),
   midi.NoteOnEvent(tick=480, channel=2, data=[69, 0]),
   midi.NoteOnEvent(tick=0, channel=2, data=[57, 79]),
   midi.NoteOnEvent(tick=480, channel=2, data=[57, 0]),
   midi.NoteOnEvent(tick=0, channel=2, data=[57, 79]),
   midi.ControlChangeEvent(tick=959, channel=2, data=[7, 96]),
   midi.NoteOnEvent(tick=1, channel=2, data=[57, 0]),
   midi.ControlChangeEvent(tick=0, channel=2, data=[7, 58]),
   midi.NoteOnEvent(tick=1440, channel=2, data=[59, 36]),
   midi.NoteOnEvent(tick=480, channel=2, data=[59, 0]),
   midi.NoteOnEvent(tick=480, channel=2, data=[56, 36]),
   midi.NoteOnEvent(tick=480, channel=2, data=[56, 0]),
   midi.NoteOnEvent(tick=480, channel=2, data=[57, 36]),
   midi.NoteOnEvent(tick=480, channel=2, data=[57, 0]),
   midi.NoteOnEvent(tick=480, channel=2, data=[57, 36]),
   midi.NoteOnEvent(tick=480, channel=2, data=[57, 0]),
   midi.NoteOnEvent(tick=480, channel=2, data=[57, 36]),
   midi.NoteOnEvent(tick=480, channel=2, data=[57, 0]),
   midi.NoteOnEvent(tick=480, channel=2, data=[54, 36]),
   midi.NoteOnEvent(tick=480, channel=2, data=[54, 0]),
   midi.NoteOnEvent(tick=480, channel=2, data=[55, 36]),
   midi.NoteOnEvent(tick=480, channel=2, data=[55, 0]),
   midi.ControlChangeEvent(tick=48, channel=2, data=[7, 102]),
   midi.NoteOnEvent(tick=4752, channel=2, data=[62, 79]),
   midi.NoteOnEvent(tick=1920, channel=2, data=[62, 0]),
   midi.NoteOnEvent(tick=0, channel=2, data=[62, 79]),
   midi.NoteOnEvent(tick=480, channel=2, data=[62, 0]),
   midi.ControlChangeEvent(tick=448, channel=2, data=[7, 50]),
   midi.NoteOnEvent(tick=32, channel=2, data=[59, 79]),
   midi.ControlChangeEvent(tick=0, channel=2, data=[7, 50]),
   midi.NoteOnEvent(tick=480, channel=2, data=[59, 0]),
   midi.NoteOnEvent(tick=0, channel=2, data=[59, 79]),
   midi.NoteOnEvent(tick=480, channel=2, data=[59, 0]),
   midi.NoteOnEvent(tick=0, channel=2, data=[60, 79]),
   midi.NoteOnEvent(tick=240, channel=2, data=[60, 0]),
   midi.NoteOnEvent(tick=0, channel=2, data=[59, 79]),
   midi.NoteOnEvent(tick=240, channel=2, data=[59, 0]),
   midi.NoteOnEvent(tick=0, channel=2, data=[57, 79]),
   midi.NoteOnEvent(tick=240, channel=2, data=[57, 0]),
   midi.NoteOnEvent(tick=0, channel=2, data=[55, 79]),
   midi.NoteOnEvent(tick=240, channel=2, data=[55, 0]),
   midi.NoteOnEvent(tick=0, channel=2, data=[60, 79]),
   midi.NoteOnEvent(tick=480, channel=2, data=[60, 0]),
   midi.NoteOnEvent(tick=0, channel=2, data=[60, 79]),
   midi.NoteOnEvent(tick=480, channel=2, data=[60, 0]),
   midi.NoteOnEvent(tick=0, channel=2, data=[60, 79]),
   midi.NoteOnEvent(tick=960, channel=2, data=[60, 0]),
   midi.NoteOnEvent(tick=0, channel=2, data=[64, 79]),
   midi.NoteOnEvent(tick=480, channel=2, data=[64, 0]),
   midi.NoteOnEvent(tick=0, channel=2, data=[64, 79]),
   midi.NoteOnEvent(tick=480, channel=2, data=[64, 0]),
   midi.NoteOnEvent(tick=0, channel=2, data=[66, 79]),
   midi.NoteOnEvent(tick=240, channel=2, data=[66, 0]),
   midi.NoteOnEvent(tick=0, channel=2, data=[64, 79]),
   midi.NoteOnEvent(tick=240, channel=2, data=[64, 0]),
   midi.NoteOnEvent(tick=0, channel=2, data=[62, 79]),
   midi.NoteOnEvent(tick=240, channel=2, data=[62, 0]),
   midi.NoteOnEvent(tick=0, channel=2, data=[60, 79]),
   midi.NoteOnEvent(tick=240, channel=2, data=[60, 0]),
   midi.NoteOnEvent(tick=0, channel=2, data=[54, 79]),
   midi.NoteOnEvent(tick=480, channel=2, data=[54, 0]),
   midi.NoteOnEvent(tick=0, channel=2, data=[54, 79]),
   midi.NoteOnEvent(tick=480, channel=2, data=[54, 0]),
   midi.NoteOnEvent(tick=0, channel=2, data=[54, 79]),
   midi.NoteOnEvent(tick=960, channel=2, data=[54, 0]),
   midi.NoteOnEvent(tick=0, channel=2, data=[59, 79]),
   midi.NoteOnEvent(tick=480, channel=2, data=[59, 0]),
   midi.NoteOnEvent(tick=0, channel=2, data=[59, 79]),
   midi.NoteOnEvent(tick=480, channel=2, data=[59, 0]),
   midi.NoteOnEvent(tick=0, channel=2, data=[60, 79]),
   midi.NoteOnEvent(tick=240, channel=2, data=[60, 0]),
   midi.NoteOnEvent(tick=0, channel=2, data=[59, 79]),
   midi.NoteOnEvent(tick=240, channel=2, data=[59, 0]),
   midi.NoteOnEvent(tick=0, channel=2, data=[57, 79]),
   midi.NoteOnEvent(tick=240, channel=2, data=[57, 0]),
   midi.NoteOnEvent(tick=0, channel=2, data=[55, 79]),
   midi.NoteOnEvent(tick=240, channel=2, data=[55, 0]),
   midi.NoteOnEvent(tick=0, channel=2, data=[67, 79]),
   midi.NoteOnEvent(tick=480, channel=2, data=[67, 0]),
   midi.NoteOnEvent(tick=3360, channel=2, data=[64, 79]),
   midi.NoteOnEvent(tick=60, channel=2, data=[64, 0]),
   midi.NoteOnEvent(tick=0, channel=2, data=[60, 79]),
   midi.NoteOnEvent(tick=60, channel=2, data=[60, 0]),
   midi.NoteOnEvent(tick=0, channel=2, data=[64, 79]),
   midi.NoteOnEvent(tick=60, channel=2, data=[64, 0]),
   midi.NoteOnEvent(tick=0, channel=2, data=[60, 79]),
   midi.NoteOnEvent(tick=120, channel=2, data=[60, 0]),
   midi.NoteOnEvent(tick=0, channel=2, data=[64, 79]),
   midi.NoteOnEvent(tick=60, channel=2, data=[64, 0]),
   midi.NoteOnEvent(tick=0, channel=2, data=[60, 79]),
   midi.NoteOnEvent(tick=60, channel=2, data=[60, 0]),
   midi.NoteOnEvent(tick=0, channel=2, data=[64, 79]),
   midi.NoteOnEvent(tick=60, channel=2, data=[64, 0]),
   midi.NoteOnEvent(tick=0, channel=2, data=[60, 79]),
   midi.NoteOnEvent(tick=60, channel=2, data=[60, 0]),
   midi.NoteOnEvent(tick=0, channel=2, data=[64, 79]),
   midi.NoteOnEvent(tick=60, channel=2, data=[64, 0]),
   midi.NoteOnEvent(tick=0, channel=2, data=[60, 79]),
   midi.NoteOnEvent(tick=60, channel=2, data=[60, 0]),
   midi.NoteOnEvent(tick=0, channel=2, data=[64, 79]),
   midi.NoteOnEvent(tick=60, channel=2, data=[64, 0]),
   midi.NoteOnEvent(tick=0, channel=2, data=[60, 79]),
   midi.NoteOnEvent(tick=60, channel=2, data=[60, 0]),
   midi.NoteOnEvent(tick=0, channel=2, data=[64, 79]),
   midi.NoteOnEvent(tick=60, channel=2, data=[64, 0]),
   midi.NoteOnEvent(tick=0, channel=2, data=[60, 79]),
   midi.NoteOnEvent(tick=60, channel=2, data=[60, 0]),
   midi.NoteOnEvent(tick=0, channel=2, data=[64, 79]),
   midi.NoteOnEvent(tick=60, channel=2, data=[64, 0]),
   midi.NoteOnEvent(tick=0, channel=2, data=[59, 79]),
   midi.NoteOnEvent(tick=480, channel=2, data=[59, 0]),
   midi.NoteOnEvent(tick=1440, channel=2, data=[59, 79]),
   midi.NoteOnEvent(tick=480, channel=2, data=[59, 0]),
   midi.NoteOnEvent(tick=0, channel=2, data=[59, 79]),
   midi.NoteOnEvent(tick=480, channel=2, data=[59, 0]),
   midi.NoteOnEvent(tick=0, channel=2, data=[60, 79]),
   midi.NoteOnEvent(tick=240, channel=2, data=[60, 0]),
   midi.NoteOnEvent(tick=0, channel=2, data=[59, 79]),
   midi.NoteOnEvent(tick=240, channel=2, data=[59, 0]),
   midi.NoteOnEvent(tick=0, channel=2, data=[57, 79]),
   midi.NoteOnEvent(tick=240, channel=2, data=[57, 0]),
   midi.NoteOnEvent(tick=0, channel=2, data=[55, 79]),
   midi.NoteOnEvent(tick=240, channel=2, data=[55, 0]),
   midi.NoteOnEvent(tick=0, channel=2, data=[60, 79]),
   midi.NoteOnEvent(tick=480, channel=2, data=[60, 0]),
   midi.NoteOnEvent(tick=0, channel=2, data=[60, 79]),
   midi.NoteOnEvent(tick=480, channel=2, data=[60, 0]),
   midi.NoteOnEvent(tick=0, channel=2, data=[60, 79]),
   midi.NoteOnEvent(tick=960, channel=2, data=[60, 0]),
   midi.NoteOnEvent(tick=0, channel=2, data=[64, 79]),
   midi.NoteOnEvent(tick=480, channel=2, data=[64, 0]),
   midi.NoteOnEvent(tick=0, channel=2, data=[64, 79]),
   midi.NoteOnEvent(tick=480, channel=2, data=[64, 0]),
   midi.NoteOnEvent(tick=0, channel=2, data=[66, 79]),
   midi.NoteOnEvent(tick=240, channel=2, data=[66, 0]),
   midi.NoteOnEvent(tick=0, channel=2, data=[64, 79]),
   midi.NoteOnEvent(tick=240, channel=2, data=[64, 0]),
   midi.NoteOnEvent(tick=0, channel=2, data=[62, 79]),
   midi.NoteOnEvent(tick=240, channel=2, data=[62, 0]),
   midi.NoteOnEvent(tick=0, channel=2, data=[60, 79]),
   midi.NoteOnEvent(tick=240, channel=2, data=[60, 0]),
   midi.NoteOnEvent(tick=0, channel=2, data=[54, 79]),
   midi.NoteOnEvent(tick=480, channel=2, data=[54, 0]),
   midi.NoteOnEvent(tick=0, channel=2, data=[54, 79]),
   midi.NoteOnEvent(tick=480, channel=2, data=[54, 0]),
   midi.NoteOnEvent(tick=0, channel=2, data=[54, 79]),
   midi.NoteOnEvent(tick=960, channel=2, data=[54, 0]),
   midi.NoteOnEvent(tick=0, channel=2, data=[59, 79]),
   midi.NoteOnEvent(tick=480, channel=2, data=[59, 0]),
   midi.NoteOnEvent(tick=0, channel=2, data=[59, 79]),
   midi.ControlChangeEvent(tick=479, channel=2, data=[7, 50]),
   midi.NoteOnEvent(tick=1, channel=2, data=[59, 0]),
   midi.NoteOnEvent(tick=0, channel=2, data=[60, 79]),
   midi.ControlChangeEvent(tick=0, channel=2, data=[7, 94]),
   midi.NoteOnEvent(tick=240, channel=2, data=[60, 0]),
   midi.NoteOnEvent(tick=0, channel=2, data=[59, 79]),
   midi.NoteOnEvent(tick=240, channel=2, data=[59, 0]),
   midi.NoteOnEvent(tick=0, channel=2, data=[57, 79]),
   midi.NoteOnEvent(tick=240, channel=2, data=[57, 0]),
   midi.NoteOnEvent(tick=0, channel=2, data=[55, 79]),
   midi.NoteOnEvent(tick=240, channel=2, data=[55, 0]),
   midi.NoteOnEvent(tick=0, channel=2, data=[67, 79]),
   midi.NoteOnEvent(tick=480, channel=2, data=[67, 0]),
   midi.ControlChangeEvent(tick=3359, channel=2, data=[7, 94]),
   midi.NoteOnEvent(tick=1, channel=2, data=[64, 79]),
   midi.NoteOnEvent(tick=240, channel=2, data=[64, 0]),
   midi.NoteOnEvent(tick=0, channel=2, data=[62, 79]),
   midi.NoteOnEvent(tick=240, channel=2, data=[62, 0]),
   midi.NoteOnEvent(tick=0, channel=2, data=[64, 79]),
   midi.NoteOnEvent(tick=240, channel=2, data=[64, 0]),
   midi.NoteOnEvent(tick=0, channel=2, data=[66, 79]),
   midi.NoteOnEvent(tick=240, channel=2, data=[66, 0]),
   midi.NoteOnEvent(tick=0, channel=2, data=[67, 79]),
   midi.NoteOnEvent(tick=240, channel=2, data=[67, 0]),
   midi.NoteOnEvent(tick=0, channel=2, data=[66, 79]),
   midi.NoteOnEvent(tick=240, channel=2, data=[66, 0]),
   midi.NoteOnEvent(tick=0, channel=2, data=[67, 79]),
   midi.ControlChangeEvent(tick=216, channel=2, data=[7, 98]),
   midi.NoteOnEvent(tick=24, channel=2, data=[67, 0]),
   midi.NoteOnEvent(tick=0, channel=2, data=[69, 79]),
   midi.NoteOnEvent(tick=240, channel=2, data=[69, 0]),
   midi.NoteOnEvent(tick=0, channel=2, data=[71, 79]),
   midi.NoteOnEvent(tick=240, channel=2, data=[71, 0]),
   midi.NoteOnEvent(tick=0, channel=2, data=[69, 79]),
   midi.NoteOnEvent(tick=240, channel=2, data=[69, 0]),
   midi.NoteOnEvent(tick=0, channel=2, data=[71, 79]),
   midi.NoteOnEvent(tick=240, channel=2, data=[71, 0]),
   midi.NoteOnEvent(tick=0, channel=2, data=[72, 79]),
   midi.NoteOnEvent(tick=240, channel=2, data=[72, 0]),
   midi.NoteOnEvent(tick=0, channel=2, data=[74, 79]),
   midi.NoteOnEvent(tick=480, channel=2, data=[74, 0]),
   midi.ControlChangeEvent(tick=416, channel=2, data=[7, 99]),
   midi.NoteOnEvent(tick=64, channel=2, data=[72, 79]),
   midi.NoteOnEvent(tick=240, channel=2, data=[72, 0]),
   midi.NoteOnEvent(tick=0, channel=2, data=[71, 79]),
   midi.NoteOnEvent(tick=240, channel=2, data=[71, 0]),
   midi.NoteOnEvent(tick=0, channel=2, data=[72, 79]),
   midi.NoteOnEvent(tick=240, channel=2, data=[72, 0]),
   midi.NoteOnEvent(tick=0, channel=2, data=[69, 79]),
   midi.NoteOnEvent(tick=240, channel=2, data=[69, 0]),
   midi.NoteOnEvent(tick=0, channel=2, data=[71, 79]),
   midi.NoteOnEvent(tick=240, channel=2, data=[71, 0]),
   midi.NoteOnEvent(tick=0, channel=2, data=[69, 79]),
   midi.NoteOnEvent(tick=240, channel=2, data=[69, 0]),
   midi.NoteOnEvent(tick=0, channel=2, data=[71, 79]),
   midi.NoteOnEvent(tick=240, channel=2, data=[71, 0]),
   midi.NoteOnEvent(tick=0, channel=2, data=[66, 79]),
   midi.NoteOnEvent(tick=240, channel=2, data=[66, 0]),
   midi.NoteOnEvent(tick=0, channel=2, data=[67, 79]),
   midi.ControlChangeEvent(tick=136, channel=2, data=[7, 100]),
   midi.NoteOnEvent(tick=104, channel=2, data=[67, 0]),
   midi.NoteOnEvent(tick=0, channel=2, data=[66, 79]),
   midi.NoteOnEvent(tick=240, channel=2, data=[66, 0]),
   midi.NoteOnEvent(tick=0, channel=2, data=[67, 79]),
   midi.NoteOnEvent(tick=240, channel=2, data=[67, 0]),
   midi.NoteOnEvent(tick=0, channel=2, data=[69, 79]),
   midi.NoteOnEvent(tick=240, channel=2, data=[69, 0]),
   midi.NoteOnEvent(tick=0, channel=2, data=[71, 79]),
   midi.NoteOnEvent(tick=480, channel=2, data=[71, 0]),
   midi.ControlChangeEvent(tick=815, channel=2, data=[7, 102]),
   midi.ControlChangeEvent(tick=577, channel=2, data=[7, 48]),
   midi.ControlChangeEvent(tick=8, channel=2, data=[7, 98]),
   midi.NoteOnEvent(tick=40, channel=2, data=[62, 36]),
   midi.NoteOnEvent(tick=120, channel=2, data=[62, 0]),
   midi.NoteOnEvent(tick=0, channel=2, data=[60, 36]),
   midi.NoteOnEvent(tick=120, channel=2, data=[60, 0]),
   midi.NoteOnEvent(tick=0, channel=2, data=[62, 36]),
   midi.NoteOnEvent(tick=120, channel=2, data=[62, 0]),
   midi.NoteOnEvent(tick=0, channel=2, data=[60, 36]),
   midi.NoteOnEvent(tick=120, channel=2, data=[60, 0]),
   midi.NoteOnEvent(tick=0, channel=2, data=[62, 36]),
   midi.NoteOnEvent(tick=120, channel=2, data=[62, 0]),
   midi.NoteOnEvent(tick=0, channel=2, data=[60, 36]),
   midi.NoteOnEvent(tick=120, channel=2, data=[60, 0]),
   midi.NoteOnEvent(tick=0, channel=2, data=[62, 36]),
   midi.NoteOnEvent(tick=120, channel=2, data=[62, 0]),
   midi.NoteOnEvent(tick=0, channel=2, data=[60, 36]),
   midi.NoteOnEvent(tick=120, channel=2, data=[60, 0]),
   midi.NoteOnEvent(tick=0, channel=2, data=[62, 36]),
   midi.NoteOnEvent(tick=120, channel=2, data=[62, 0]),
   midi.NoteOnEvent(tick=0, channel=2, data=[60, 36]),
   midi.NoteOnEvent(tick=120, channel=2, data=[60, 0]),
   midi.NoteOnEvent(tick=0, channel=2, data=[62, 36]),
   midi.NoteOnEvent(tick=120, channel=2, data=[62, 0]),
   midi.NoteOnEvent(tick=0, channel=2, data=[60, 36]),
   midi.NoteOnEvent(tick=120, channel=2, data=[60, 0]),
   midi.NoteOnEvent(tick=0, channel=2, data=[62, 36]),
   midi.NoteOnEvent(tick=120, channel=2, data=[62, 0]),
   midi.NoteOnEvent(tick=0, channel=2, data=[60, 36]),
   midi.NoteOnEvent(tick=120, channel=2, data=[60, 0]),
   midi.NoteOnEvent(tick=0, channel=2, data=[62, 36]),
   midi.NoteOnEvent(tick=120, channel=2, data=[62, 0]),
   midi.NoteOnEvent(tick=0, channel=2, data=[60, 36]),
   midi.NoteOnEvent(tick=120, channel=2, data=[60, 0]),
   midi.NoteOnEvent(tick=0, channel=2, data=[59, 36]),
   midi.ControlChangeEvent(tick=24, channel=2, data=[7, 88]),
   midi.ControlChangeEvent(tick=52, channel=2, data=[7, 86]),
   midi.ControlChangeEvent(tick=53, channel=2, data=[7, 85]),
   midi.ControlChangeEvent(tick=53, channel=2, data=[7, 84]),
   midi.ControlChangeEvent(tick=53, channel=2, data=[7, 82]),
   midi.ControlChangeEvent(tick=53, channel=2, data=[7, 81]),
   midi.ControlChangeEvent(tick=52, channel=2, data=[7, 80]),
   midi.ControlChangeEvent(tick=53, channel=2, data=[7, 78]),
   midi.ControlChangeEvent(tick=53, channel=2, data=[7, 77]),
   midi.NoteOnEvent(tick=34, channel=2, data=[59, 0]),
   midi.ControlChangeEvent(tick=19, channel=2, data=[7, 76]),
   midi.ControlChangeEvent(tick=53, channel=2, data=[7, 74]),
   midi.ControlChangeEvent(tick=52, channel=2, data=[7, 73]),
   midi.ControlChangeEvent(tick=53, channel=2, data=[7, 72]),
   midi.ControlChangeEvent(tick=53, channel=2, data=[7, 70]),
   midi.ControlChangeEvent(tick=53, channel=2, data=[7, 69]),
   midi.ControlChangeEvent(tick=52, channel=2, data=[7, 68]),
   midi.ControlChangeEvent(tick=576, channel=2, data=[7, 48]),
   midi.EndOfTrackEvent(tick=0, data=[])]),
 midi.Track(\
  [midi.PortEvent(tick=0, data=[0]),
   midi.TrackNameEvent(tick=0, text='Cello', data=[67, 101, 108, 108, 111]),
   midi.ProgramChangeEvent(tick=0, channel=3, data=[42]),
   midi.ControlChangeEvent(tick=0, channel=3, data=[7, 95]),
   midi.ControlChangeEvent(tick=0, channel=3, data=[10, 94]),
   midi.NoteOnEvent(tick=0, channel=3, data=[55, 36]),
   midi.ControlChangeEvent(tick=48, channel=3, data=[7, 64]),
   midi.NoteOnEvent(tick=192, channel=3, data=[55, 0]),
   midi.NoteOnEvent(tick=0, channel=3, data=[55, 36]),
   midi.NoteOnEvent(tick=240, channel=3, data=[55, 0]),
   midi.NoteOnEvent(tick=0, channel=3, data=[55, 36]),
   midi.NoteOnEvent(tick=240, channel=3, data=[55, 0]),
   midi.NoteOnEvent(tick=0, channel=3, data=[55, 36]),
   midi.NoteOnEvent(tick=240, channel=3, data=[55, 0]),
   midi.NoteOnEvent(tick=0, channel=3, data=[55, 36]),
   midi.NoteOnEvent(tick=240, channel=3, data=[55, 0]),
   midi.NoteOnEvent(tick=0, channel=3, data=[55, 36]),
   midi.NoteOnEvent(tick=240, channel=3, data=[55, 0]),
   midi.NoteOnEvent(tick=0, channel=3, data=[57, 36]),
   midi.NoteOnEvent(tick=240, channel=3, data=[57, 0]),
   midi.NoteOnEvent(tick=0, channel=3, data=[57, 36]),
   midi.NoteOnEvent(tick=240, channel=3, data=[57, 0]),
   midi.NoteOnEvent(tick=0, channel=3, data=[57, 36]),
   midi.NoteOnEvent(tick=240, channel=3, data=[57, 0]),
   midi.NoteOnEvent(tick=0, channel=3, data=[57, 36]),
   midi.NoteOnEvent(tick=240, channel=3, data=[57, 0]),
   midi.NoteOnEvent(tick=0, channel=3, data=[57, 36]),
   midi.NoteOnEvent(tick=240, channel=3, data=[57, 0]),
   midi.NoteOnEvent(tick=0, channel=3, data=[55, 36]),
   midi.NoteOnEvent(tick=240, channel=3, data=[55, 0]),
   midi.NoteOnEvent(tick=0, channel=3, data=[54, 36]),
   midi.NoteOnEvent(tick=240, channel=3, data=[54, 0]),
   midi.NoteOnEvent(tick=0, channel=3, data=[54, 36]),
   midi.NoteOnEvent(tick=240, channel=3, data=[54, 0]),
   midi.NoteOnEvent(tick=0, channel=3, data=[54, 36]),
   midi.NoteOnEvent(tick=240, channel=3, data=[54, 0]),
   midi.NoteOnEvent(tick=0, channel=3, data=[54, 36]),
   midi.NoteOnEvent(tick=240, channel=3, data=[54, 0]),
   midi.NoteOnEvent(tick=0, channel=3, data=[54, 36]),
   midi.NoteOnEvent(tick=240, channel=3, data=[54, 0]),
   midi.NoteOnEvent(tick=0, channel=3, data=[54, 36]),
   midi.NoteOnEvent(tick=240, channel=3, data=[54, 0]),
   midi.NoteOnEvent(tick=0, channel=3, data=[55, 36]),
   midi.NoteOnEvent(tick=240, channel=3, data=[55, 0]),
   midi.NoteOnEvent(tick=0, channel=3, data=[55, 36]),
   midi.NoteOnEvent(tick=240, channel=3, data=[55, 0]),
   midi.NoteOnEvent(tick=0, channel=3, data=[55, 36]),
   midi.NoteOnEvent(tick=240, channel=3, data=[55, 0]),
   midi.NoteOnEvent(tick=0, channel=3, data=[55, 36]),
   midi.NoteOnEvent(tick=240, channel=3, data=[55, 0]),
   midi.NoteOnEvent(tick=0, channel=3, data=[55, 36]),
   midi.NoteOnEvent(tick=240, channel=3, data=[55, 0]),
   midi.NoteOnEvent(tick=0, channel=3, data=[55, 36]),
   midi.NoteOnEvent(tick=240, channel=3, data=[55, 0]),
   midi.NoteOnEvent(tick=0, channel=3, data=[55, 36]),
   midi.NoteOnEvent(tick=240, channel=3, data=[55, 0]),
   midi.NoteOnEvent(tick=0, channel=3, data=[55, 36]),
   midi.NoteOnEvent(tick=240, channel=3, data=[55, 0]),
   midi.NoteOnEvent(tick=0, channel=3, data=[55, 36]),
   midi.NoteOnEvent(tick=240, channel=3, data=[55, 0]),
   midi.NoteOnEvent(tick=0, channel=3, data=[55, 36]),
   midi.NoteOnEvent(tick=240, channel=3, data=[55, 0]),
   midi.NoteOnEvent(tick=0, channel=3, data=[55, 36]),
   midi.NoteOnEvent(tick=240, channel=3, data=[55, 0]),
   midi.NoteOnEvent(tick=0, channel=3, data=[55, 36]),
   midi.NoteOnEvent(tick=240, channel=3, data=[55, 0]),
   midi.NoteOnEvent(tick=0, channel=3, data=[55, 36]),
   midi.NoteOnEvent(tick=240, channel=3, data=[55, 0]),
   midi.NoteOnEvent(tick=0, channel=3, data=[55, 36]),
   midi.NoteOnEvent(tick=240, channel=3, data=[55, 0]),
   midi.NoteOnEvent(tick=0, channel=3, data=[55, 36]),
   midi.NoteOnEvent(tick=240, channel=3, data=[55, 0]),
   midi.NoteOnEvent(tick=0, channel=3, data=[55, 36]),
   midi.NoteOnEvent(tick=240, channel=3, data=[55, 0]),
   midi.NoteOnEvent(tick=0, channel=3, data=[55, 36]),
   midi.NoteOnEvent(tick=120, channel=3, data=[55, 0]),
   midi.NoteOnEvent(tick=0, channel=3, data=[55, 36]),
   midi.NoteOnEvent(tick=120, channel=3, data=[55, 0]),
   midi.NoteOnEvent(tick=0, channel=3, data=[57, 36]),
   midi.NoteOnEvent(tick=120, channel=3, data=[57, 0]),
   midi.NoteOnEvent(tick=0, channel=3, data=[59, 36]),
   midi.NoteOnEvent(tick=120, channel=3, data=[59, 0]),
   midi.NoteOnEvent(tick=0, channel=3, data=[60, 36]),
   midi.NoteOnEvent(tick=240, channel=3, data=[60, 0]),
   midi.NoteOnEvent(tick=0, channel=3, data=[48, 36]),
   midi.NoteOnEvent(tick=240, channel=3, data=[48, 0]),
   midi.NoteOnEvent(tick=0, channel=3, data=[48, 36]),
   midi.NoteOnEvent(tick=240, channel=3, data=[48, 0]),
   midi.NoteOnEvent(tick=0, channel=3, data=[48, 36]),
   midi.NoteOnEvent(tick=240, channel=3, data=[48, 0]),
   midi.NoteOnEvent(tick=0, channel=3, data=[49, 36]),
   midi.NoteOnEvent(tick=240, channel=3, data=[49, 0]),
   midi.NoteOnEvent(tick=0, channel=3, data=[49, 36]),
   midi.NoteOnEvent(tick=240, channel=3, data=[49, 0]),
   midi.NoteOnEvent(tick=0, channel=3, data=[50, 36]),
   midi.NoteOnEvent(tick=480, channel=3, data=[50, 0]),
   midi.NoteOnEvent(tick=240, channel=3, data=[50, 36]),
   midi.NoteOnEvent(tick=240, channel=3, data=[50, 0]),
   midi.NoteOnEvent(tick=0, channel=3, data=[54, 36]),
   midi.NoteOnEvent(tick=240, channel=3, data=[54, 0]),
   midi.NoteOnEvent(tick=0, channel=3, data=[57, 36]),
   midi.NoteOnEvent(tick=240, channel=3, data=[57, 0]),
   midi.NoteOnEvent(tick=0, channel=3, data=[62, 36]),
   midi.NoteOnEvent(tick=240, channel=3, data=[62, 0]),
   midi.NoteOnEvent(tick=0, channel=3, data=[62, 36]),
   midi.NoteOnEvent(tick=240, channel=3, data=[62, 0]),
   midi.NoteOnEvent(tick=0, channel=3, data=[62, 36]),
   midi.NoteOnEvent(tick=240, channel=3, data=[62, 0]),
   midi.NoteOnEvent(tick=0, channel=3, data=[62, 36]),
   midi.NoteOnEvent(tick=240, channel=3, data=[62, 0]),
   midi.NoteOnEvent(tick=0, channel=3, data=[62, 36]),
   midi.NoteOnEvent(tick=240, channel=3, data=[62, 0]),
   midi.NoteOnEvent(tick=0, channel=3, data=[62, 36]),
   midi.NoteOnEvent(tick=240, channel=3, data=[62, 0]),
   midi.NoteOnEvent(tick=0, channel=3, data=[61, 36]),
   midi.NoteOnEvent(tick=240, channel=3, data=[61, 0]),
   midi.NoteOnEvent(tick=0, channel=3, data=[61, 36]),
   midi.NoteOnEvent(tick=240, channel=3, data=[61, 0]),
   midi.NoteOnEvent(tick=0, channel=3, data=[61, 36]),
   midi.NoteOnEvent(tick=240, channel=3, data=[61, 0]),
   midi.NoteOnEvent(tick=0, channel=3, data=[61, 36]),
   midi.NoteOnEvent(tick=240, channel=3, data=[61, 0]),
   midi.NoteOnEvent(tick=0, channel=3, data=[61, 36]),
   midi.NoteOnEvent(tick=240, channel=3, data=[61, 0]),
   midi.NoteOnEvent(tick=0, channel=3, data=[61, 36]),
   midi.NoteOnEvent(tick=240, channel=3, data=[61, 0]),
   midi.NoteOnEvent(tick=0, channel=3, data=[59, 36]),
   midi.NoteOnEvent(tick=240, channel=3, data=[59, 0]),
   midi.NoteOnEvent(tick=0, channel=3, data=[59, 36]),
   midi.NoteOnEvent(tick=240, channel=3, data=[59, 0]),
   midi.NoteOnEvent(tick=0, channel=3, data=[59, 36]),
   midi.NoteOnEvent(tick=240, channel=3, data=[59, 0]),
   midi.NoteOnEvent(tick=0, channel=3, data=[59, 36]),
   midi.NoteOnEvent(tick=240, channel=3, data=[59, 0]),
   midi.NoteOnEvent(tick=0, channel=3, data=[59, 36]),
   midi.NoteOnEvent(tick=240, channel=3, data=[59, 0]),
   midi.NoteOnEvent(tick=0, channel=3, data=[59, 36]),
   midi.NoteOnEvent(tick=240, channel=3, data=[59, 0]),
   midi.NoteOnEvent(tick=0, channel=3, data=[57, 36]),
   midi.NoteOnEvent(tick=240, channel=3, data=[57, 0]),
   midi.NoteOnEvent(tick=0, channel=3, data=[57, 36]),
   midi.NoteOnEvent(tick=240, channel=3, data=[57, 0]),
   midi.NoteOnEvent(tick=0, channel=3, data=[57, 36]),
   midi.NoteOnEvent(tick=240, channel=3, data=[57, 0]),
   midi.NoteOnEvent(tick=0, channel=3, data=[57, 36]),
   midi.NoteOnEvent(tick=240, channel=3, data=[57, 0]),
   midi.NoteOnEvent(tick=0, channel=3, data=[57, 36]),
   midi.NoteOnEvent(tick=240, channel=3, data=[57, 0]),
   midi.NoteOnEvent(tick=0, channel=3, data=[57, 36]),
   midi.ControlChangeEvent(tick=32, channel=3, data=[7, 63]),
   midi.NoteOnEvent(tick=208, channel=3, data=[57, 0]),
   midi.NoteOnEvent(tick=0, channel=3, data=[56, 36]),
   midi.NoteOnEvent(tick=480, channel=3, data=[56, 0]),
   midi.NoteOnEvent(tick=720, channel=3, data=[56, 36]),
   midi.NoteOnEvent(tick=240, channel=3, data=[56, 0]),
   midi.NoteOnEvent(tick=0, channel=3, data=[57, 36]),
   midi.NoteOnEvent(tick=720, channel=3, data=[57, 0]),
   midi.NoteOnEvent(tick=0, channel=3, data=[55, 36]),
   midi.NoteOnEvent(tick=240, channel=3, data=[55, 0]),
   midi.NoteOnEvent(tick=0, channel=3, data=[54, 36]),
   midi.NoteOnEvent(tick=240, channel=3, data=[54, 0]),
   midi.NoteOnEvent(tick=0, channel=3, data=[52, 36]),
   midi.NoteOnEvent(tick=240, channel=3, data=[52, 0]),
   midi.NoteOnEvent(tick=0, channel=3, data=[50, 36]),
   midi.NoteOnEvent(tick=720, channel=3, data=[50, 0]),
   midi.NoteOnEvent(tick=0, channel=3, data=[62, 36]),
   midi.NoteOnEvent(tick=240, channel=3, data=[62, 0]),
   midi.NoteOnEvent(tick=0, channel=3, data=[62, 36]),
   midi.NoteOnEvent(tick=240, channel=3, data=[62, 0]),
   midi.NoteOnEvent(tick=0, channel=3, data=[62, 36]),
   midi.NoteOnEvent(tick=240, channel=3, data=[62, 0]),
   midi.NoteOnEvent(tick=0, channel=3, data=[61, 36]),
   midi.NoteOnEvent(tick=240, channel=3, data=[61, 0]),
   midi.NoteOnEvent(tick=0, channel=3, data=[62, 36]),
   midi.NoteOnEvent(tick=240, channel=3, data=[62, 0]),
   midi.NoteOnEvent(tick=0, channel=3, data=[57, 36]),
   midi.NoteOnEvent(tick=480, channel=3, data=[57, 0]),
   midi.NoteOnEvent(tick=0, channel=3, data=[57, 36]),
   midi.NoteOnEvent(tick=120, channel=3, data=[57, 0]),
   midi.NoteOnEvent(tick=0, channel=3, data=[55, 36]),
   midi.NoteOnEvent(tick=120, channel=3, data=[55, 0]),
   midi.NoteOnEvent(tick=0, channel=3, data=[54, 36]),
   midi.NoteOnEvent(tick=120, channel=3, data=[54, 0]),
   midi.NoteOnEvent(tick=0, channel=3, data=[52, 36]),
   midi.NoteOnEvent(tick=120, channel=3, data=[52, 0]),
   midi.NoteOnEvent(tick=0, channel=3, data=[50, 36]),
   midi.NoteOnEvent(tick=720, channel=3, data=[50, 0]),
   midi.NoteOnEvent(tick=0, channel=3, data=[62, 36]),
   midi.NoteOnEvent(tick=240, channel=3, data=[62, 0]),
   midi.NoteOnEvent(tick=0, channel=3, data=[62, 36]),
   midi.NoteOnEvent(tick=240, channel=3, data=[62, 0]),
   midi.NoteOnEvent(tick=0, channel=3, data=[62, 36]),
   midi.NoteOnEvent(tick=240, channel=3, data=[62, 0]),
   midi.NoteOnEvent(tick=0, channel=3, data=[61, 36]),
   midi.NoteOnEvent(tick=240, channel=3, data=[61, 0]),
   midi.NoteOnEvent(tick=0, channel=3, data=[62, 36]),
   midi.NoteOnEvent(tick=240, channel=3, data=[62, 0]),
   midi.NoteOnEvent(tick=0, channel=3, data=[57, 36]),
   midi.NoteOnEvent(tick=480, channel=3, data=[57, 0]),
   midi.NoteOnEvent(tick=0, channel=3, data=[57, 36]),
   midi.NoteOnEvent(tick=120, channel=3, data=[57, 0]),
   midi.NoteOnEvent(tick=0, channel=3, data=[55, 36]),
   midi.NoteOnEvent(tick=120, channel=3, data=[55, 0]),
   midi.NoteOnEvent(tick=0, channel=3, data=[54, 36]),
   midi.NoteOnEvent(tick=120, channel=3, data=[54, 0]),
   midi.NoteOnEvent(tick=0, channel=3, data=[52, 36]),
   midi.NoteOnEvent(tick=120, channel=3, data=[52, 0]),
   midi.NoteOnEvent(tick=0, channel=3, data=[50, 36]),
   midi.NoteOnEvent(tick=240, channel=3, data=[50, 0]),
   midi.NoteOnEvent(tick=0, channel=3, data=[50, 36]),
   midi.NoteOnEvent(tick=240, channel=3, data=[50, 0]),
   midi.NoteOnEvent(tick=0, channel=3, data=[54, 36]),
   midi.NoteOnEvent(tick=240, channel=3, data=[54, 0]),
   midi.NoteOnEvent(tick=0, channel=3, data=[54, 36]),
   midi.NoteOnEvent(tick=240, channel=3, data=[54, 0]),
   midi.NoteOnEvent(tick=0, channel=3, data=[54, 36]),
   midi.NoteOnEvent(tick=240, channel=3, data=[54, 0]),
   midi.NoteOnEvent(tick=0, channel=3, data=[54, 36]),
   midi.NoteOnEvent(tick=240, channel=3, data=[54, 0]),
   midi.NoteOnEvent(tick=0, channel=3, data=[55, 36]),
   midi.NoteOnEvent(tick=240, channel=3, data=[55, 0]),
   midi.NoteOnEvent(tick=960, channel=3, data=[55, 36]),
   midi.NoteOnEvent(tick=240, channel=3, data=[55, 0]),
   midi.NoteOnEvent(tick=0, channel=3, data=[57, 36]),
   midi.NoteOnEvent(tick=240, channel=3, data=[57, 0]),
   midi.NoteOnEvent(tick=0, channel=3, data=[57, 36]),
   midi.NoteOnEvent(tick=240, channel=3, data=[57, 0]),
   midi.NoteOnEvent(tick=0, channel=3, data=[57, 36]),
   midi.NoteOnEvent(tick=240, channel=3, data=[57, 0]),
   midi.NoteOnEvent(tick=0, channel=3, data=[57, 36]),
   midi.NoteOnEvent(tick=240, channel=3, data=[57, 0]),
   midi.NoteOnEvent(tick=0, channel=3, data=[45, 36]),
   midi.NoteOnEvent(tick=240, channel=3, data=[45, 0]),
   midi.NoteOnEvent(tick=0, channel=3, data=[45, 36]),
   midi.NoteOnEvent(tick=240, channel=3, data=[45, 0]),
   midi.NoteOnEvent(tick=0, channel=3, data=[50, 36]),
   midi.NoteOnEvent(tick=480, channel=3, data=[50, 0]),
   midi.NoteOnEvent(tick=120, channel=3, data=[50, 36]),
   midi.NoteOnEvent(tick=120, channel=3, data=[50, 0]),
   midi.NoteOnEvent(tick=0, channel=3, data=[49, 36]),
   midi.NoteOnEvent(tick=120, channel=3, data=[49, 0]),
   midi.NoteOnEvent(tick=0, channel=3, data=[50, 36]),
   midi.NoteOnEvent(tick=120, channel=3, data=[50, 0]),
   midi.NoteOnEvent(tick=0, channel=3, data=[52, 36]),
   midi.NoteOnEvent(tick=120, channel=3, data=[52, 0]),
   midi.NoteOnEvent(tick=0, channel=3, data=[50, 36]),
   midi.NoteOnEvent(tick=120, channel=3, data=[50, 0]),
   midi.NoteOnEvent(tick=0, channel=3, data=[49, 36]),
   midi.NoteOnEvent(tick=120, channel=3, data=[49, 0]),
   midi.NoteOnEvent(tick=0, channel=3, data=[50, 36]),
   midi.NoteOnEvent(tick=120, channel=3, data=[50, 0]),
   midi.NoteOnEvent(tick=0, channel=3, data=[47, 36]),
   midi.NoteOnEvent(tick=480, channel=3, data=[47, 0]),
   midi.NoteOnEvent(tick=120, channel=3, data=[59, 36]),
   midi.NoteOnEvent(tick=120, channel=3, data=[59, 0]),
   midi.NoteOnEvent(tick=0, channel=3, data=[57, 36]),
   midi.NoteOnEvent(tick=120, channel=3, data=[57, 0]),
   midi.NoteOnEvent(tick=0, channel=3, data=[59, 36]),
   midi.NoteOnEvent(tick=120, channel=3, data=[59, 0]),
   midi.NoteOnEvent(tick=0, channel=3, data=[61, 36]),
   midi.NoteOnEvent(tick=120, channel=3, data=[61, 0]),
   midi.NoteOnEvent(tick=0, channel=3, data=[59, 36]),
   midi.NoteOnEvent(tick=120, channel=3, data=[59, 0]),
   midi.NoteOnEvent(tick=0, channel=3, data=[57, 36]),
   midi.NoteOnEvent(tick=120, channel=3, data=[57, 0]),
   midi.NoteOnEvent(tick=0, channel=3, data=[59, 36]),
   midi.NoteOnEvent(tick=120, channel=3, data=[59, 0]),
   midi.NoteOnEvent(tick=0, channel=3, data=[54, 36]),
   midi.NoteOnEvent(tick=480, channel=3, data=[54, 0]),
   midi.NoteOnEvent(tick=240, channel=3, data=[54, 36]),
   midi.NoteOnEvent(tick=240, channel=3, data=[54, 0]),
   midi.NoteOnEvent(tick=0, channel=3, data=[54, 36]),
   midi.ControlChangeEvent(tick=16, channel=3, data=[7, 62]),
   midi.NoteOnEvent(tick=224, channel=3, data=[54, 0]),
   midi.NoteOnEvent(tick=0, channel=3, data=[54, 36]),
   midi.NoteOnEvent(tick=240, channel=3, data=[54, 0]),
   midi.NoteOnEvent(tick=0, channel=3, data=[55, 36]),
   midi.NoteOnEvent(tick=240, channel=3, data=[55, 0]),
   midi.NoteOnEvent(tick=0, channel=3, data=[55, 36]),
   midi.NoteOnEvent(tick=240, channel=3, data=[55, 0]),
   midi.NoteOnEvent(tick=0, channel=3, data=[57, 36]),
   midi.NoteOnEvent(tick=240, channel=3, data=[57, 0]),
   midi.NoteOnEvent(tick=0, channel=3, data=[57, 36]),
   midi.NoteOnEvent(tick=240, channel=3, data=[57, 0]),
   midi.NoteOnEvent(tick=0, channel=3, data=[45, 36]),
   midi.NoteOnEvent(tick=240, channel=3, data=[45, 0]),
   midi.NoteOnEvent(tick=0, channel=3, data=[45, 36]),
   midi.NoteOnEvent(tick=240, channel=3, data=[45, 0]),
   midi.NoteOnEvent(tick=0, channel=3, data=[50, 36]),
   midi.NoteOnEvent(tick=1440, channel=3, data=[50, 0]),
   midi.NoteOnEvent(tick=0, channel=3, data=[50, 36]),
   midi.NoteOnEvent(tick=240, channel=3, data=[50, 0]),
   midi.NoteOnEvent(tick=0, channel=3, data=[54, 36]),
   midi.NoteOnEvent(tick=240, channel=3, data=[54, 0]),
   midi.NoteOnEvent(tick=0, channel=3, data=[55, 36]),
   midi.NoteOnEvent(tick=240, channel=3, data=[55, 0]),
   midi.NoteOnEvent(tick=0, channel=3, data=[54, 36]),
   midi.NoteOnEvent(tick=240, channel=3, data=[54, 0]),
   midi.NoteOnEvent(tick=0, channel=3, data=[55, 36]),
   midi.NoteOnEvent(tick=240, channel=3, data=[55, 0]),
   midi.NoteOnEvent(tick=0, channel=3, data=[57, 36]),
   midi.NoteOnEvent(tick=240, channel=3, data=[57, 0]),
   midi.NoteOnEvent(tick=0, channel=3, data=[50, 36]),
   midi.NoteOnEvent(tick=960, channel=3, data=[50, 0]),
   midi.NoteOnEvent(tick=0, channel=3, data=[50, 36]),
   midi.NoteOnEvent(tick=240, channel=3, data=[50, 0]),
   midi.NoteOnEvent(tick=240, channel=3, data=[50, 36]),
   midi.NoteOnEvent(tick=240, channel=3, data=[50, 0]),
   midi.NoteOnEvent(tick=0, channel=3, data=[54, 36]),
   midi.NoteOnEvent(tick=240, channel=3, data=[54, 0]),
   midi.NoteOnEvent(tick=0, channel=3, data=[50, 36]),
   midi.NoteOnEvent(tick=240, channel=3, data=[50, 0]),
   midi.NoteOnEvent(tick=0, channel=3, data=[54, 36]),
   midi.NoteOnEvent(tick=240, channel=3, data=[54, 0]),
   midi.NoteOnEvent(tick=0, channel=3, data=[50, 36]),
   midi.NoteOnEvent(tick=240, channel=3, data=[50, 0]),
   midi.NoteOnEvent(tick=0, channel=3, data=[54, 36]),
   midi.NoteOnEvent(tick=240, channel=3, data=[54, 0]),
   midi.NoteOnEvent(tick=0, channel=3, data=[52, 36]),
   midi.NoteOnEvent(tick=240, channel=3, data=[52, 0]),
   midi.NoteOnEvent(tick=0, channel=3, data=[55, 36]),
   midi.NoteOnEvent(tick=240, channel=3, data=[55, 0]),
   midi.NoteOnEvent(tick=0, channel=3, data=[52, 36]),
   midi.NoteOnEvent(tick=240, channel=3, data=[52, 0]),
   midi.NoteOnEvent(tick=0, channel=3, data=[55, 36]),
   midi.NoteOnEvent(tick=240, channel=3, data=[55, 0]),
   midi.NoteOnEvent(tick=0, channel=3, data=[52, 36]),
   midi.NoteOnEvent(tick=240, channel=3, data=[52, 0]),
   midi.NoteOnEvent(tick=0, channel=3, data=[55, 36]),
   midi.NoteOnEvent(tick=240, channel=3, data=[55, 0]),
   midi.NoteOnEvent(tick=0, channel=3, data=[54, 36]),
   midi.NoteOnEvent(tick=240, channel=3, data=[54, 0]),
   midi.NoteOnEvent(tick=0, channel=3, data=[50, 36]),
   midi.NoteOnEvent(tick=240, channel=3, data=[50, 0]),
   midi.NoteOnEvent(tick=0, channel=3, data=[55, 36]),
   midi.NoteOnEvent(tick=240, channel=3, data=[55, 0]),
   midi.NoteOnEvent(tick=0, channel=3, data=[54, 36]),
   midi.NoteOnEvent(tick=240, channel=3, data=[54, 0]),
   midi.NoteOnEvent(tick=0, channel=3, data=[57, 36]),
   midi.NoteOnEvent(tick=240, channel=3, data=[57, 0]),
   midi.NoteOnEvent(tick=0, channel=3, data=[50, 36]),
   midi.NoteOnEvent(tick=240, channel=3, data=[50, 0]),
   midi.NoteOnEvent(tick=0, channel=3, data=[55, 36]),
   midi.NoteOnEvent(tick=240, channel=3, data=[55, 0]),
   midi.NoteOnEvent(tick=0, channel=3, data=[59, 36]),
   midi.NoteOnEvent(tick=240, channel=3, data=[59, 0]),
   midi.NoteOnEvent(tick=0, channel=3, data=[55, 36]),
   midi.NoteOnEvent(tick=240, channel=3, data=[55, 0]),
   midi.NoteOnEvent(tick=0, channel=3, data=[43, 36]),
   midi.NoteOnEvent(tick=240, channel=3, data=[43, 0]),
   midi.NoteOnEvent(tick=0, channel=3, data=[48, 36]),
   midi.NoteOnEvent(tick=240, channel=3, data=[48, 0]),
   midi.NoteOnEvent(tick=0, channel=3, data=[49, 36]),
   midi.NoteOnEvent(tick=240, channel=3, data=[49, 0]),
   midi.NoteOnEvent(tick=0, channel=3, data=[50, 36]),
   midi.NoteOnEvent(tick=480, channel=3, data=[50, 0]),
   midi.NoteOnEvent(tick=240, channel=3, data=[62, 36]),
   midi.NoteOnEvent(tick=240, channel=3, data=[62, 0]),
   midi.NoteOnEvent(tick=0, channel=3, data=[59, 36]),
   midi.NoteOnEvent(tick=240, channel=3, data=[59, 0]),
   midi.NoteOnEvent(tick=0, channel=3, data=[57, 36]),
   midi.NoteOnEvent(tick=240, channel=3, data=[57, 0]),
   midi.NoteOnEvent(tick=0, channel=3, data=[56, 36]),
   midi.NoteOnEvent(tick=240, channel=3, data=[56, 0]),
   midi.NoteOnEvent(tick=0, channel=3, data=[56, 36]),
   midi.NoteOnEvent(tick=240, channel=3, data=[56, 0]),
   midi.NoteOnEvent(tick=0, channel=3, data=[56, 36]),
   midi.NoteOnEvent(tick=240, channel=3, data=[56, 0]),
   midi.NoteOnEvent(tick=0, channel=3, data=[56, 36]),
   midi.NoteOnEvent(tick=240, channel=3, data=[56, 0]),
   midi.NoteOnEvent(tick=0, channel=3, data=[56, 36]),
   midi.NoteOnEvent(tick=240, channel=3, data=[56, 0]),
   midi.NoteOnEvent(tick=0, channel=3, data=[56, 36]),
   midi.NoteOnEvent(tick=240, channel=3, data=[56, 0]),
   midi.NoteOnEvent(tick=0, channel=3, data=[57, 36]),
   midi.NoteOnEvent(tick=240, channel=3, data=[57, 0]),
   midi.NoteOnEvent(tick=0, channel=3, data=[45, 36]),
   midi.NoteOnEvent(tick=240, channel=3, data=[45, 0]),
   midi.NoteOnEvent(tick=0, channel=3, data=[45, 36]),
   midi.NoteOnEvent(tick=240, channel=3, data=[45, 0]),
   midi.NoteOnEvent(tick=0, channel=3, data=[45, 36]),
   midi.NoteOnEvent(tick=240, channel=3, data=[45, 0]),
   midi.NoteOnEvent(tick=0, channel=3, data=[45, 36]),
   midi.NoteOnEvent(tick=240, channel=3, data=[45, 0]),
   midi.NoteOnEvent(tick=0, channel=3, data=[45, 36]),
   midi.NoteOnEvent(tick=240, channel=3, data=[45, 0]),
   midi.NoteOnEvent(tick=0, channel=3, data=[50, 36]),
   midi.NoteOnEvent(tick=240, channel=3, data=[50, 0]),
   midi.NoteOnEvent(tick=0, channel=3, data=[50, 36]),
   midi.NoteOnEvent(tick=240, channel=3, data=[50, 0]),
   midi.NoteOnEvent(tick=0, channel=3, data=[50, 36]),
   midi.NoteOnEvent(tick=240, channel=3, data=[50, 0]),
   midi.ControlChangeEvent(tick=0, channel=3, data=[7, 61]),
   midi.NoteOnEvent(tick=0, channel=3, data=[50, 36]),
   midi.NoteOnEvent(tick=240, channel=3, data=[50, 0]),
   midi.NoteOnEvent(tick=0, channel=3, data=[50, 36]),
   midi.NoteOnEvent(tick=240, channel=3, data=[50, 0]),
   midi.NoteOnEvent(tick=0, channel=3, data=[50, 36]),
   midi.NoteOnEvent(tick=240, channel=3, data=[50, 0]),
   midi.NoteOnEvent(tick=0, channel=3, data=[55, 36]),
   midi.NoteOnEvent(tick=240, channel=3, data=[55, 0]),
   midi.NoteOnEvent(tick=0, channel=3, data=[43, 36]),
   midi.NoteOnEvent(tick=240, channel=3, data=[43, 0]),
   midi.NoteOnEvent(tick=0, channel=3, data=[43, 36]),
   midi.NoteOnEvent(tick=240, channel=3, data=[43, 0]),
   midi.NoteOnEvent(tick=0, channel=3, data=[43, 36]),
   midi.NoteOnEvent(tick=240, channel=3, data=[43, 0]),
   midi.NoteOnEvent(tick=0, channel=3, data=[43, 36]),
   midi.NoteOnEvent(tick=240, channel=3, data=[43, 0]),
   midi.NoteOnEvent(tick=0, channel=3, data=[43, 36]),
   midi.NoteOnEvent(tick=240, channel=3, data=[43, 0]),
   midi.NoteOnEvent(tick=0, channel=3, data=[48, 36]),
   midi.NoteOnEvent(tick=240, channel=3, data=[48, 0]),
   midi.NoteOnEvent(tick=0, channel=3, data=[48, 36]),
   midi.NoteOnEvent(tick=240, channel=3, data=[48, 0]),
   midi.NoteOnEvent(tick=0, channel=3, data=[48, 36]),
   midi.NoteOnEvent(tick=240, channel=3, data=[48, 0]),
   midi.NoteOnEvent(tick=0, channel=3, data=[48, 36]),
   midi.NoteOnEvent(tick=240, channel=3, data=[48, 0]),
   midi.NoteOnEvent(tick=0, channel=3, data=[48, 36]),
   midi.NoteOnEvent(tick=240, channel=3, data=[48, 0]),
   midi.NoteOnEvent(tick=0, channel=3, data=[49, 36]),
   midi.NoteOnEvent(tick=240, channel=3, data=[49, 0]),
   midi.NoteOnEvent(tick=0, channel=3, data=[50, 36]),
   midi.NoteOnEvent(tick=720, channel=3, data=[50, 0]),
   midi.NoteOnEvent(tick=0, channel=3, data=[60, 36]),
   midi.NoteOnEvent(tick=240, channel=3, data=[60, 0]),
   midi.NoteOnEvent(tick=0, channel=3, data=[59, 36]),
   midi.NoteOnEvent(tick=240, channel=3, data=[59, 0]),
   midi.NoteOnEvent(tick=0, channel=3, data=[57, 36]),
   midi.NoteOnEvent(tick=240, channel=3, data=[57, 0]),
   midi.NoteOnEvent(tick=0, channel=3, data=[55, 36]),
   midi.NoteOnEvent(tick=240, channel=3, data=[55, 0]),
   midi.NoteOnEvent(tick=0, channel=3, data=[55, 36]),
   midi.NoteOnEvent(tick=240, channel=3, data=[55, 0]),
   midi.NoteOnEvent(tick=0, channel=3, data=[55, 36]),
   midi.NoteOnEvent(tick=240, channel=3, data=[55, 0]),
   midi.NoteOnEvent(tick=0, channel=3, data=[55, 36]),
   midi.NoteOnEvent(tick=240, channel=3, data=[55, 0]),
   midi.NoteOnEvent(tick=0, channel=3, data=[55, 36]),
   midi.NoteOnEvent(tick=240, channel=3, data=[55, 0]),
   midi.NoteOnEvent(tick=0, channel=3, data=[55, 36]),
   midi.NoteOnEvent(tick=240, channel=3, data=[55, 0]),
   midi.NoteOnEvent(tick=0, channel=3, data=[57, 36]),
   midi.NoteOnEvent(tick=240, channel=3, data=[57, 0]),
   midi.NoteOnEvent(tick=0, channel=3, data=[57, 36]),
   midi.NoteOnEvent(tick=240, channel=3, data=[57, 0]),
   midi.NoteOnEvent(tick=0, channel=3, data=[57, 36]),
   midi.NoteOnEvent(tick=240, channel=3, data=[57, 0]),
   midi.NoteOnEvent(tick=0, channel=3, data=[57, 36]),
   midi.NoteOnEvent(tick=240, channel=3, data=[57, 0]),
   midi.NoteOnEvent(tick=0, channel=3, data=[57, 36]),
   midi.NoteOnEvent(tick=240, channel=3, data=[57, 0]),
   midi.NoteOnEvent(tick=0, channel=3, data=[55, 36]),
   midi.NoteOnEvent(tick=240, channel=3, data=[55, 0]),
   midi.NoteOnEvent(tick=0, channel=3, data=[54, 36]),
   midi.NoteOnEvent(tick=240, channel=3, data=[54, 0]),
   midi.NoteOnEvent(tick=0, channel=3, data=[54, 36]),
   midi.NoteOnEvent(tick=240, channel=3, data=[54, 0]),
   midi.NoteOnEvent(tick=0, channel=3, data=[54, 36]),
   midi.NoteOnEvent(tick=240, channel=3, data=[54, 0]),
   midi.NoteOnEvent(tick=0, channel=3, data=[54, 36]),
   midi.NoteOnEvent(tick=240, channel=3, data=[54, 0]),
   midi.NoteOnEvent(tick=0, channel=3, data=[54, 36]),
   midi.NoteOnEvent(tick=240, channel=3, data=[54, 0]),
   midi.NoteOnEvent(tick=0, channel=3, data=[54, 36]),
   midi.NoteOnEvent(tick=240, channel=3, data=[54, 0]),
   midi.NoteOnEvent(tick=0, channel=3, data=[55, 36]),
   midi.NoteOnEvent(tick=240, channel=3, data=[55, 0]),
   midi.NoteOnEvent(tick=0, channel=3, data=[55, 36]),
   midi.NoteOnEvent(tick=240, channel=3, data=[55, 0]),
   midi.NoteOnEvent(tick=0, channel=3, data=[55, 36]),
   midi.NoteOnEvent(tick=240, channel=3, data=[55, 0]),
   midi.NoteOnEvent(tick=0, channel=3, data=[55, 36]),
   midi.NoteOnEvent(tick=240, channel=3, data=[55, 0]),
   midi.NoteOnEvent(tick=0, channel=3, data=[57, 36]),
   midi.NoteOnEvent(tick=240, channel=3, data=[57, 0]),
   midi.NoteOnEvent(tick=0, channel=3, data=[59, 36]),
   midi.NoteOnEvent(tick=240, channel=3, data=[59, 0]),
   midi.NoteOnEvent(tick=0, channel=3, data=[60, 36]),
   midi.NoteOnEvent(tick=240, channel=3, data=[60, 0]),
   midi.NoteOnEvent(tick=0, channel=3, data=[60, 36]),
   midi.NoteOnEvent(tick=240, channel=3, data=[60, 0]),
   midi.NoteOnEvent(tick=0, channel=3, data=[60, 36]),
   midi.NoteOnEvent(tick=240, channel=3, data=[60, 0]),
   midi.NoteOnEvent(tick=0, channel=3, data=[60, 36]),
   midi.NoteOnEvent(tick=240, channel=3, data=[60, 0]),
   midi.NoteOnEvent(tick=0, channel=3, data=[60, 36]),
   midi.NoteOnEvent(tick=240, channel=3, data=[60, 0]),
   midi.NoteOnEvent(tick=0, channel=3, data=[60, 36]),
   midi.NoteOnEvent(tick=240, channel=3, data=[60, 0]),
   midi.NoteOnEvent(tick=0, channel=3, data=[55, 36]),
   midi.NoteOnEvent(tick=240, channel=3, data=[55, 0]),
   midi.NoteOnEvent(tick=0, channel=3, data=[55, 36]),
   midi.NoteOnEvent(tick=240, channel=3, data=[55, 0]),
   midi.NoteOnEvent(tick=0, channel=3, data=[43, 36]),
   midi.NoteOnEvent(tick=480, channel=3, data=[43, 0]),
   midi.NoteOnEvent(tick=720, channel=3, data=[55, 36]),
   midi.NoteOnEvent(tick=240, channel=3, data=[55, 0]),
   midi.NoteOnEvent(tick=0, channel=3, data=[48, 36]),
   midi.NoteOnEvent(tick=240, channel=3, data=[48, 0]),
   midi.NoteOnEvent(tick=0, channel=3, data=[48, 36]),
   midi.NoteOnEvent(tick=240, channel=3, data=[48, 0]),
   midi.NoteOnEvent(tick=0, channel=3, data=[49, 36]),
   midi.NoteOnEvent(tick=240, channel=3, data=[49, 0]),
   midi.NoteOnEvent(tick=0, channel=3, data=[49, 36]),
   midi.NoteOnEvent(tick=240, channel=3, data=[49, 0]),
   midi.NoteOnEvent(tick=0, channel=3, data=[50, 36]),
   midi.NoteOnEvent(tick=720, channel=3, data=[50, 0]),
   midi.NoteOnEvent(tick=0, channel=3, data=[60, 36]),
   midi.NoteOnEvent(tick=240, channel=3, data=[60, 0]),
   midi.NoteOnEvent(tick=0, channel=3, data=[59, 36]),
   midi.NoteOnEvent(tick=240, channel=3, data=[59, 0]),
   midi.NoteOnEvent(tick=0, channel=3, data=[57, 36]),
   midi.NoteOnEvent(tick=240, channel=3, data=[57, 0]),
   midi.NoteOnEvent(tick=0, channel=3, data=[55, 36]),
   midi.NoteOnEvent(tick=240, channel=3, data=[55, 0]),
   midi.NoteOnEvent(tick=0, channel=3, data=[55, 36]),
   midi.ControlChangeEvent(tick=224, channel=3, data=[7, 60]),
   midi.NoteOnEvent(tick=16, channel=3, data=[55, 0]),
   midi.NoteOnEvent(tick=0, channel=3, data=[55, 36]),
   midi.NoteOnEvent(tick=240, channel=3, data=[55, 0]),
   midi.NoteOnEvent(tick=0, channel=3, data=[55, 36]),
   midi.NoteOnEvent(tick=240, channel=3, data=[55, 0]),
   midi.NoteOnEvent(tick=0, channel=3, data=[55, 36]),
   midi.NoteOnEvent(tick=240, channel=3, data=[55, 0]),
   midi.NoteOnEvent(tick=0, channel=3, data=[55, 36]),
   midi.NoteOnEvent(tick=240, channel=3, data=[55, 0]),
   midi.NoteOnEvent(tick=0, channel=3, data=[54, 36]),
   midi.NoteOnEvent(tick=240, channel=3, data=[54, 0]),
   midi.NoteOnEvent(tick=0, channel=3, data=[54, 36]),
   midi.NoteOnEvent(tick=240, channel=3, data=[54, 0]),
   midi.NoteOnEvent(tick=0, channel=3, data=[54, 36]),
   midi.NoteOnEvent(tick=240, channel=3, data=[54, 0]),
   midi.NoteOnEvent(tick=0, channel=3, data=[54, 36]),
   midi.NoteOnEvent(tick=240, channel=3, data=[54, 0]),
   midi.NoteOnEvent(tick=0, channel=3, data=[54, 36]),
   midi.NoteOnEvent(tick=240, channel=3, data=[54, 0]),
   midi.NoteOnEvent(tick=0, channel=3, data=[54, 36]),
   midi.NoteOnEvent(tick=240, channel=3, data=[54, 0]),
   midi.NoteOnEvent(tick=0, channel=3, data=[52, 36]),
   midi.NoteOnEvent(tick=240, channel=3, data=[52, 0]),
   midi.NoteOnEvent(tick=0, channel=3, data=[52, 36]),
   midi.NoteOnEvent(tick=240, channel=3, data=[52, 0]),
   midi.NoteOnEvent(tick=0, channel=3, data=[52, 36]),
   midi.NoteOnEvent(tick=240, channel=3, data=[52, 0]),
   midi.NoteOnEvent(tick=0, channel=3, data=[52, 36]),
   midi.NoteOnEvent(tick=240, channel=3, data=[52, 0]),
   midi.NoteOnEvent(tick=0, channel=3, data=[52, 36]),
   midi.NoteOnEvent(tick=240, channel=3, data=[52, 0]),
   midi.NoteOnEvent(tick=0, channel=3, data=[52, 36]),
   midi.NoteOnEvent(tick=240, channel=3, data=[52, 0]),
   midi.NoteOnEvent(tick=0, channel=3, data=[50, 36]),
   midi.NoteOnEvent(tick=240, channel=3, data=[50, 0]),
   midi.NoteOnEvent(tick=0, channel=3, data=[50, 36]),
   midi.NoteOnEvent(tick=240, channel=3, data=[50, 0]),
   midi.NoteOnEvent(tick=0, channel=3, data=[50, 36]),
   midi.NoteOnEvent(tick=240, channel=3, data=[50, 0]),
   midi.NoteOnEvent(tick=0, channel=3, data=[50, 36]),
   midi.NoteOnEvent(tick=240, channel=3, data=[50, 0]),
   midi.NoteOnEvent(tick=0, channel=3, data=[50, 36]),
   midi.NoteOnEvent(tick=240, channel=3, data=[50, 0]),
   midi.NoteOnEvent(tick=0, channel=3, data=[50, 36]),
   midi.NoteOnEvent(tick=240, channel=3, data=[50, 0]),
   midi.NoteOnEvent(tick=0, channel=3, data=[49, 36]),
   midi.NoteOnEvent(tick=240, channel=3, data=[49, 0]),
   midi.NoteOnEvent(tick=0, channel=3, data=[49, 36]),
   midi.NoteOnEvent(tick=240, channel=3, data=[49, 0]),
   midi.NoteOnEvent(tick=0, channel=3, data=[49, 36]),
   midi.NoteOnEvent(tick=240, channel=3, data=[49, 0]),
   midi.NoteOnEvent(tick=0, channel=3, data=[49, 36]),
   midi.NoteOnEvent(tick=240, channel=3, data=[49, 0]),
   midi.NoteOnEvent(tick=0, channel=3, data=[49, 36]),
   midi.NoteOnEvent(tick=240, channel=3, data=[49, 0]),
   midi.NoteOnEvent(tick=0, channel=3, data=[49, 36]),
   midi.NoteOnEvent(tick=240, channel=3, data=[49, 0]),
   midi.NoteOnEvent(tick=0, channel=3, data=[50, 36]),
   midi.NoteOnEvent(tick=720, channel=3, data=[50, 0]),
   midi.NoteOnEvent(tick=0, channel=3, data=[60, 36]),
   midi.NoteOnEvent(tick=240, channel=3, data=[60, 0]),
   midi.NoteOnEvent(tick=0, channel=3, data=[59, 36]),
   midi.NoteOnEvent(tick=240, channel=3, data=[59, 0]),
   midi.NoteOnEvent(tick=0, channel=3, data=[57, 36]),
   midi.NoteOnEvent(tick=240, channel=3, data=[57, 0]),
   midi.NoteOnEvent(tick=0, channel=3, data=[55, 36]),
   midi.NoteOnEvent(tick=720, channel=3, data=[55, 0]),
   midi.NoteOnEvent(tick=0, channel=3, data=[55, 36]),
   midi.NoteOnEvent(tick=240, channel=3, data=[55, 0]),
   midi.NoteOnEvent(tick=0, channel=3, data=[55, 36]),
   midi.NoteOnEvent(tick=240, channel=3, data=[55, 0]),
   midi.NoteOnEvent(tick=0, channel=3, data=[55, 36]),
   midi.NoteOnEvent(tick=240, channel=3, data=[55, 0]),
   midi.NoteOnEvent(tick=0, channel=3, data=[54, 36]),
   midi.NoteOnEvent(tick=240, channel=3, data=[54, 0]),
   midi.NoteOnEvent(tick=0, channel=3, data=[55, 36]),
   midi.NoteOnEvent(tick=240, channel=3, data=[55, 0]),
   midi.NoteOnEvent(tick=0, channel=3, data=[62, 36]),
   midi.NoteOnEvent(tick=480, channel=3, data=[62, 0]),
   midi.NoteOnEvent(tick=0, channel=3, data=[50, 36]),
   midi.NoteOnEvent(tick=120, channel=3, data=[50, 0]),
   midi.NoteOnEvent(tick=0, channel=3, data=[48, 36]),
   midi.NoteOnEvent(tick=120, channel=3, data=[48, 0]),
   midi.NoteOnEvent(tick=0, channel=3, data=[47, 36]),
   midi.NoteOnEvent(tick=120, channel=3, data=[47, 0]),
   midi.NoteOnEvent(tick=0, channel=3, data=[45, 36]),
   midi.NoteOnEvent(tick=120, channel=3, data=[45, 0]),
   midi.NoteOnEvent(tick=0, channel=3, data=[43, 36]),
   midi.NoteOnEvent(tick=720, channel=3, data=[43, 0]),
   midi.NoteOnEvent(tick=0, channel=3, data=[55, 36]),
   midi.NoteOnEvent(tick=240, channel=3, data=[55, 0]),
   midi.NoteOnEvent(tick=0, channel=3, data=[55, 36]),
   midi.NoteOnEvent(tick=240, channel=3, data=[55, 0]),
   midi.NoteOnEvent(tick=0, channel=3, data=[55, 36]),
   midi.NoteOnEvent(tick=240, channel=3, data=[55, 0]),
   midi.NoteOnEvent(tick=0, channel=3, data=[54, 36]),
   midi.NoteOnEvent(tick=240, channel=3, data=[54, 0]),
   midi.NoteOnEvent(tick=0, channel=3, data=[55, 36]),
   midi.NoteOnEvent(tick=240, channel=3, data=[55, 0]),
   midi.NoteOnEvent(tick=0, channel=3, data=[50, 36]),
   midi.NoteOnEvent(tick=480, channel=3, data=[50, 0]),
   midi.NoteOnEvent(tick=0, channel=3, data=[50, 36]),
   midi.NoteOnEvent(tick=120, channel=3, data=[50, 0]),
   midi.NoteOnEvent(tick=0, channel=3, data=[48, 36]),
   midi.NoteOnEvent(tick=120, channel=3, data=[48, 0]),
   midi.NoteOnEvent(tick=0, channel=3, data=[47, 36]),
   midi.NoteOnEvent(tick=120, channel=3, data=[47, 0]),
   midi.NoteOnEvent(tick=0, channel=3, data=[45, 36]),
   midi.NoteOnEvent(tick=120, channel=3, data=[45, 0]),
   midi.NoteOnEvent(tick=0, channel=3, data=[47, 36]),
   midi.NoteOnEvent(tick=240, channel=3, data=[47, 0]),
   midi.NoteOnEvent(tick=0, channel=3, data=[47, 36]),
   midi.NoteOnEvent(tick=240, channel=3, data=[47, 0]),
   midi.NoteOnEvent(tick=0, channel=3, data=[47, 36]),
   midi.NoteOnEvent(tick=240, channel=3, data=[47, 0]),
   midi.NoteOnEvent(tick=0, channel=3, data=[47, 36]),
   midi.NoteOnEvent(tick=240, channel=3, data=[47, 0]),
   midi.NoteOnEvent(tick=0, channel=3, data=[47, 36]),
   midi.NoteOnEvent(tick=240, channel=3, data=[47, 0]),
   midi.NoteOnEvent(tick=0, channel=3, data=[47, 36]),
   midi.NoteOnEvent(tick=240, channel=3, data=[47, 0]),
   midi.NoteOnEvent(tick=0, channel=3, data=[48, 36]),
   midi.NoteOnEvent(tick=240, channel=3, data=[48, 0]),
   midi.NoteOnEvent(tick=960, channel=3, data=[48, 36]),
   midi.NoteOnEvent(tick=240, channel=3, data=[48, 0]),
   midi.NoteOnEvent(tick=0, channel=3, data=[50, 36]),
   midi.ControlChangeEvent(tick=208, channel=3, data=[7, 59]),
   midi.NoteOnEvent(tick=32, channel=3, data=[50, 0]),
   midi.NoteOnEvent(tick=0, channel=3, data=[50, 36]),
   midi.NoteOnEvent(tick=240, channel=3, data=[50, 0]),
   midi.NoteOnEvent(tick=0, channel=3, data=[50, 36]),
   midi.NoteOnEvent(tick=240, channel=3, data=[50, 0]),
   midi.NoteOnEvent(tick=0, channel=3, data=[50, 36]),
   midi.NoteOnEvent(tick=240, channel=3, data=[50, 0]),
   midi.NoteOnEvent(tick=0, channel=3, data=[50, 36]),
   midi.NoteOnEvent(tick=240, channel=3, data=[50, 0]),
   midi.NoteOnEvent(tick=0, channel=3, data=[50, 36]),
   midi.NoteOnEvent(tick=240, channel=3, data=[50, 0]),
   midi.NoteOnEvent(tick=0, channel=3, data=[43, 36]),
   midi.NoteOnEvent(tick=480, channel=3, data=[43, 0]),
   midi.NoteOnEvent(tick=120, channel=3, data=[55, 36]),
   midi.NoteOnEvent(tick=120, channel=3, data=[55, 0]),
   midi.NoteOnEvent(tick=0, channel=3, data=[54, 36]),
   midi.NoteOnEvent(tick=120, channel=3, data=[54, 0]),
   midi.NoteOnEvent(tick=0, channel=3, data=[55, 36]),
   midi.NoteOnEvent(tick=120, channel=3, data=[55, 0]),
   midi.NoteOnEvent(tick=0, channel=3, data=[57, 36]),
   midi.NoteOnEvent(tick=120, channel=3, data=[57, 0]),
   midi.NoteOnEvent(tick=0, channel=3, data=[55, 36]),
   midi.NoteOnEvent(tick=120, channel=3, data=[55, 0]),
   midi.NoteOnEvent(tick=0, channel=3, data=[54, 36]),
   midi.NoteOnEvent(tick=120, channel=3, data=[54, 0]),
   midi.NoteOnEvent(tick=0, channel=3, data=[55, 36]),
   midi.NoteOnEvent(tick=120, channel=3, data=[55, 0]),
   midi.NoteOnEvent(tick=0, channel=3, data=[52, 36]),
   midi.NoteOnEvent(tick=480, channel=3, data=[52, 0]),
   midi.NoteOnEvent(tick=120, channel=3, data=[52, 36]),
   midi.NoteOnEvent(tick=120, channel=3, data=[52, 0]),
   midi.NoteOnEvent(tick=0, channel=3, data=[51, 36]),
   midi.NoteOnEvent(tick=120, channel=3, data=[51, 0]),
   midi.NoteOnEvent(tick=0, channel=3, data=[52, 36]),
   midi.NoteOnEvent(tick=120, channel=3, data=[52, 0]),
   midi.NoteOnEvent(tick=0, channel=3, data=[54, 36]),
   midi.NoteOnEvent(tick=120, channel=3, data=[54, 0]),
   midi.NoteOnEvent(tick=0, channel=3, data=[52, 36]),
   midi.NoteOnEvent(tick=120, channel=3, data=[52, 0]),
   midi.NoteOnEvent(tick=0, channel=3, data=[51, 36]),
   midi.NoteOnEvent(tick=120, channel=3, data=[51, 0]),
   midi.NoteOnEvent(tick=0, channel=3, data=[52, 36]),
   midi.NoteOnEvent(tick=120, channel=3, data=[52, 0]),
   midi.NoteOnEvent(tick=0, channel=3, data=[47, 36]),
   midi.NoteOnEvent(tick=480, channel=3, data=[47, 0]),
   midi.NoteOnEvent(tick=240, channel=3, data=[47, 36]),
   midi.NoteOnEvent(tick=240, channel=3, data=[47, 0]),
   midi.NoteOnEvent(tick=0, channel=3, data=[47, 36]),
   midi.NoteOnEvent(tick=240, channel=3, data=[47, 0]),
   midi.NoteOnEvent(tick=0, channel=3, data=[47, 36]),
   midi.NoteOnEvent(tick=240, channel=3, data=[47, 0]),
   midi.NoteOnEvent(tick=0, channel=3, data=[48, 36]),
   midi.NoteOnEvent(tick=240, channel=3, data=[48, 0]),
   midi.NoteOnEvent(tick=0, channel=3, data=[48, 36]),
   midi.NoteOnEvent(tick=240, channel=3, data=[48, 0]),
   midi.NoteOnEvent(tick=0, channel=3, data=[50, 36]),
   midi.NoteOnEvent(tick=240, channel=3, data=[50, 0]),
   midi.NoteOnEvent(tick=0, channel=3, data=[50, 36]),
   midi.NoteOnEvent(tick=240, channel=3, data=[50, 0]),
   midi.NoteOnEvent(tick=0, channel=3, data=[50, 36]),
   midi.NoteOnEvent(tick=240, channel=3, data=[50, 0]),
   midi.NoteOnEvent(tick=0, channel=3, data=[50, 36]),
   midi.NoteOnEvent(tick=240, channel=3, data=[50, 0]),
   midi.NoteOnEvent(tick=0, channel=3, data=[55, 36]),
   midi.NoteOnEvent(tick=1440, channel=3, data=[55, 0]),
   midi.NoteOnEvent(tick=0, channel=3, data=[55, 36]),
   midi.NoteOnEvent(tick=1440, channel=3, data=[55, 0]),
   midi.NoteOnEvent(tick=0, channel=3, data=[55, 36]),
   midi.NoteOnEvent(tick=960, channel=3, data=[55, 0]),
   midi.NoteOnEvent(tick=0, channel=3, data=[43, 36]),
   midi.NoteOnEvent(tick=240, channel=3, data=[43, 0]),
   midi.ControlChangeEvent(tick=240, channel=3, data=[7, 104]),
   midi.NoteOnEvent(tick=0, channel=3, data=[55, 79]),
   midi.NoteOnEvent(tick=480, channel=3, data=[55, 0]),
   midi.NoteOnEvent(tick=3360, channel=3, data=[55, 79]),
   midi.NoteOnEvent(tick=960, channel=3, data=[55, 0]),
   midi.NoteOnEvent(tick=0, channel=3, data=[50, 79]),
   midi.NoteOnEvent(tick=960, channel=3, data=[50, 0]),
   midi.NoteOnEvent(tick=0, channel=3, data=[48, 79]),
   midi.NoteOnEvent(tick=240, channel=3, data=[48, 0]),
   midi.NoteOnEvent(tick=0, channel=3, data=[47, 79]),
   midi.NoteOnEvent(tick=240, channel=3, data=[47, 0]),
   midi.NoteOnEvent(tick=0, channel=3, data=[45, 79]),
   midi.NoteOnEvent(tick=240, channel=3, data=[45, 0]),
   midi.NoteOnEvent(tick=0, channel=3, data=[43, 79]),
   midi.NoteOnEvent(tick=240, channel=3, data=[43, 0]),
   midi.NoteOnEvent(tick=0, channel=3, data=[50, 79]),
   midi.NoteOnEvent(tick=480, channel=3, data=[50, 0]),
   midi.NoteOnEvent(tick=480, channel=3, data=[55, 79]),
   midi.NoteOnEvent(tick=480, channel=3, data=[55, 0]),
   midi.NoteOnEvent(tick=3360, channel=3, data=[55, 79]),
   midi.NoteOnEvent(tick=960, channel=3, data=[55, 0]),
   midi.NoteOnEvent(tick=0, channel=3, data=[50, 79]),
   midi.NoteOnEvent(tick=960, channel=3, data=[50, 0]),
   midi.NoteOnEvent(tick=0, channel=3, data=[48, 79]),
   midi.NoteOnEvent(tick=240, channel=3, data=[48, 0]),
   midi.NoteOnEvent(tick=0, channel=3, data=[47, 79]),
   midi.NoteOnEvent(tick=240, channel=3, data=[47, 0]),
   midi.NoteOnEvent(tick=0, channel=3, data=[45, 79]),
   midi.NoteOnEvent(tick=240, channel=3, data=[45, 0]),
   midi.NoteOnEvent(tick=0, channel=3, data=[43, 79]),
   midi.NoteOnEvent(tick=240, channel=3, data=[43, 0]),
   midi.NoteOnEvent(tick=0, channel=3, data=[50, 79]),
   midi.NoteOnEvent(tick=480, channel=3, data=[50, 0]),
   midi.NoteOnEvent(tick=480, channel=3, data=[55, 79]),
   midi.NoteOnEvent(tick=240, channel=3, data=[55, 0]),
   midi.NoteOnEvent(tick=0, channel=3, data=[55, 79]),
   midi.NoteOnEvent(tick=240, channel=3, data=[55, 0]),
   midi.NoteOnEvent(tick=0, channel=3, data=[55, 79]),
   midi.NoteOnEvent(tick=240, channel=3, data=[55, 0]),
   midi.NoteOnEvent(tick=0, channel=3, data=[55, 79]),
   midi.NoteOnEvent(tick=240, channel=3, data=[55, 0]),
   midi.NoteOnEvent(tick=0, channel=3, data=[55, 79]),
   midi.NoteOnEvent(tick=240, channel=3, data=[55, 0]),
   midi.NoteOnEvent(tick=0, channel=3, data=[55, 79]),
   midi.NoteOnEvent(tick=240, channel=3, data=[55, 0]),
   midi.NoteOnEvent(tick=0, channel=3, data=[55, 79]),
   midi.NoteOnEvent(tick=240, channel=3, data=[55, 0]),
   midi.NoteOnEvent(tick=0, channel=3, data=[55, 79]),
   midi.NoteOnEvent(tick=240, channel=3, data=[55, 0]),
   midi.NoteOnEvent(tick=0, channel=3, data=[57, 79]),
   midi.NoteOnEvent(tick=240, channel=3, data=[57, 0]),
   midi.NoteOnEvent(tick=0, channel=3, data=[57, 79]),
   midi.NoteOnEvent(tick=240, channel=3, data=[57, 0]),
   midi.NoteOnEvent(tick=0, channel=3, data=[57, 79]),
   midi.NoteOnEvent(tick=240, channel=3, data=[57, 0]),
   midi.NoteOnEvent(tick=0, channel=3, data=[57, 79]),
   midi.NoteOnEvent(tick=240, channel=3, data=[57, 0]),
   midi.NoteOnEvent(tick=0, channel=3, data=[50, 79]),
   midi.NoteOnEvent(tick=240, channel=3, data=[50, 0]),
   midi.NoteOnEvent(tick=0, channel=3, data=[50, 79]),
   midi.NoteOnEvent(tick=240, channel=3, data=[50, 0]),
   midi.NoteOnEvent(tick=0, channel=3, data=[50, 79]),
   midi.NoteOnEvent(tick=240, channel=3, data=[50, 0]),
   midi.NoteOnEvent(tick=0, channel=3, data=[50, 79]),
   midi.NoteOnEvent(tick=240, channel=3, data=[50, 0]),
   midi.NoteOnEvent(tick=0, channel=3, data=[43, 79]),
   midi.NoteOnEvent(tick=240, channel=3, data=[43, 0]),
   midi.NoteOnEvent(tick=0, channel=3, data=[43, 79]),
   midi.NoteOnEvent(tick=240, channel=3, data=[43, 0]),
   midi.NoteOnEvent(tick=0, channel=3, data=[43, 79]),
   midi.NoteOnEvent(tick=240, channel=3, data=[43, 0]),
   midi.NoteOnEvent(tick=0, channel=3, data=[43, 79]),
   midi.NoteOnEvent(tick=240, channel=3, data=[43, 0]),
   midi.NoteOnEvent(tick=0, channel=3, data=[55, 79]),
   midi.NoteOnEvent(tick=240, channel=3, data=[55, 0]),
   midi.NoteOnEvent(tick=0, channel=3, data=[55, 79]),
   midi.NoteOnEvent(tick=240, channel=3, data=[55, 0]),
   midi.NoteOnEvent(tick=0, channel=3, data=[55, 79]),
   midi.NoteOnEvent(tick=240, channel=3, data=[55, 0]),
   midi.NoteOnEvent(tick=0, channel=3, data=[55, 79]),
   midi.NoteOnEvent(tick=240, channel=3, data=[55, 0]),
   midi.NoteOnEvent(tick=0, channel=3, data=[57, 79]),
   midi.NoteOnEvent(tick=240, channel=3, data=[57, 0]),
   midi.NoteOnEvent(tick=0, channel=3, data=[57, 79]),
   midi.NoteOnEvent(tick=240, channel=3, data=[57, 0]),
   midi.NoteOnEvent(tick=0, channel=3, data=[57, 79]),
   midi.NoteOnEvent(tick=240, channel=3, data=[57, 0]),
   midi.NoteOnEvent(tick=0, channel=3, data=[57, 79]),
   midi.NoteOnEvent(tick=240, channel=3, data=[57, 0]),
   midi.NoteOnEvent(tick=0, channel=3, data=[50, 79]),
   midi.NoteOnEvent(tick=240, channel=3, data=[50, 0]),
   midi.NoteOnEvent(tick=0, channel=3, data=[50, 79]),
   midi.NoteOnEvent(tick=240, channel=3, data=[50, 0]),
   midi.NoteOnEvent(tick=0, channel=3, data=[50, 79]),
   midi.NoteOnEvent(tick=240, channel=3, data=[50, 0]),
   midi.NoteOnEvent(tick=0, channel=3, data=[50, 79]),
   midi.NoteOnEvent(tick=240, channel=3, data=[50, 0]),
   midi.NoteOnEvent(tick=0, channel=3, data=[55, 79]),
   midi.NoteOnEvent(tick=240, channel=3, data=[55, 0]),
   midi.NoteOnEvent(tick=0, channel=3, data=[43, 79]),
   midi.NoteOnEvent(tick=240, channel=3, data=[43, 0]),
   midi.NoteOnEvent(tick=0, channel=3, data=[45, 79]),
   midi.NoteOnEvent(tick=240, channel=3, data=[45, 0]),
   midi.NoteOnEvent(tick=0, channel=3, data=[47, 79]),
   midi.NoteOnEvent(tick=240, channel=3, data=[47, 0]),
   midi.NoteOnEvent(tick=0, channel=3, data=[48, 79]),
   midi.NoteOnEvent(tick=240, channel=3, data=[48, 0]),
   midi.NoteOnEvent(tick=0, channel=3, data=[50, 79]),
   midi.NoteOnEvent(tick=240, channel=3, data=[50, 0]),
   midi.NoteOnEvent(tick=0, channel=3, data=[52, 79]),
   midi.NoteOnEvent(tick=240, channel=3, data=[52, 0]),
   midi.NoteOnEvent(tick=0, channel=3, data=[54, 79]),
   midi.NoteOnEvent(tick=240, channel=3, data=[54, 0]),
   midi.NoteOnEvent(tick=0, channel=3, data=[55, 79]),
   midi.NoteOnEvent(tick=240, channel=3, data=[55, 0]),
   midi.NoteOnEvent(tick=0, channel=3, data=[54, 79]),
   midi.NoteOnEvent(tick=240, channel=3, data=[54, 0]),
   midi.NoteOnEvent(tick=0, channel=3, data=[52, 79]),
   midi.NoteOnEvent(tick=240, channel=3, data=[52, 0]),
   midi.NoteOnEvent(tick=0, channel=3, data=[50, 79]),
   midi.NoteOnEvent(tick=240, channel=3, data=[50, 0]),
   midi.NoteOnEvent(tick=0, channel=3, data=[48, 79]),
   midi.NoteOnEvent(tick=240, channel=3, data=[48, 0]),
   midi.NoteOnEvent(tick=0, channel=3, data=[47, 79]),
   midi.NoteOnEvent(tick=240, channel=3, data=[47, 0]),
   midi.NoteOnEvent(tick=0, channel=3, data=[45, 79]),
   midi.NoteOnEvent(tick=240, channel=3, data=[45, 0]),
   midi.NoteOnEvent(tick=0, channel=3, data=[43, 79]),
   midi.NoteOnEvent(tick=240, channel=3, data=[43, 0]),
   midi.NoteOnEvent(tick=0, channel=3, data=[50, 79]),
   midi.NoteOnEvent(tick=480, channel=3, data=[50, 0]),
   midi.NoteOnEvent(tick=0, channel=3, data=[62, 79]),
   midi.NoteOnEvent(tick=480, channel=3, data=[62, 0]),
   midi.NoteOnEvent(tick=0, channel=3, data=[50, 79]),
   midi.NoteOnEvent(tick=480, channel=3, data=[50, 0]),
   midi.NoteOnEvent(tick=6240, channel=3, data=[50, 79]),
   midi.NoteOnEvent(tick=960, channel=3, data=[50, 0]),
   midi.NoteOnEvent(tick=0, channel=3, data=[54, 79]),
   midi.NoteOnEvent(tick=480, channel=3, data=[54, 0]),
   midi.NoteOnEvent(tick=0, channel=3, data=[57, 79]),
   midi.NoteOnEvent(tick=480, channel=3, data=[57, 0]),
   midi.NoteOnEvent(tick=0, channel=3, data=[50, 79]),
   midi.NoteOnEvent(tick=960, channel=3, data=[50, 0]),
   midi.NoteOnEvent(tick=0, channel=3, data=[54, 79]),
   midi.NoteOnEvent(tick=480, channel=3, data=[54, 0]),
   midi.NoteOnEvent(tick=0, channel=3, data=[57, 79]),
   midi.NoteOnEvent(tick=480, channel=3, data=[57, 0]),
   midi.NoteOnEvent(tick=0, channel=3, data=[62, 79]),
   midi.NoteOnEvent(tick=480, channel=3, data=[62, 0]),
   midi.NoteOnEvent(tick=1440, channel=3, data=[57, 79]),
   midi.NoteOnEvent(tick=240, channel=3, data=[57, 0]),
   midi.NoteOnEvent(tick=0, channel=3, data=[57, 79]),
   midi.NoteOnEvent(tick=240, channel=3, data=[57, 0]),
   midi.NoteOnEvent(tick=0, channel=3, data=[57, 79]),
   midi.NoteOnEvent(tick=240, channel=3, data=[57, 0]),
   midi.NoteOnEvent(tick=0, channel=3, data=[57, 79]),
   midi.NoteOnEvent(tick=240, channel=3, data=[57, 0]),
   midi.NoteOnEvent(tick=0, channel=3, data=[57, 79]),
   midi.NoteOnEvent(tick=240, channel=3, data=[57, 0]),
   midi.NoteOnEvent(tick=0, channel=3, data=[57, 79]),
   midi.NoteOnEvent(tick=240, channel=3, data=[57, 0]),
   midi.NoteOnEvent(tick=0, channel=3, data=[57, 79]),
   midi.NoteOnEvent(tick=240, channel=3, data=[57, 0]),
   midi.NoteOnEvent(tick=0, channel=3, data=[57, 79]),
   midi.NoteOnEvent(tick=240, channel=3, data=[57, 0]),
   midi.NoteOnEvent(tick=0, channel=3, data=[50, 79]),
   midi.NoteOnEvent(tick=480, channel=3, data=[50, 0]),
   midi.NoteOnEvent(tick=1440, channel=3, data=[57, 79]),
   midi.NoteOnEvent(tick=240, channel=3, data=[57, 0]),
   midi.NoteOnEvent(tick=0, channel=3, data=[57, 79]),
   midi.NoteOnEvent(tick=240, channel=3, data=[57, 0]),
   midi.NoteOnEvent(tick=0, channel=3, data=[57, 79]),
   midi.NoteOnEvent(tick=240, channel=3, data=[57, 0]),
   midi.NoteOnEvent(tick=0, channel=3, data=[57, 79]),
   midi.NoteOnEvent(tick=240, channel=3, data=[57, 0]),
   midi.NoteOnEvent(tick=0, channel=3, data=[57, 79]),
   midi.NoteOnEvent(tick=240, channel=3, data=[57, 0]),
   midi.NoteOnEvent(tick=0, channel=3, data=[57, 79]),
   midi.NoteOnEvent(tick=240, channel=3, data=[57, 0]),
   midi.NoteOnEvent(tick=0, channel=3, data=[57, 79]),
   midi.NoteOnEvent(tick=240, channel=3, data=[57, 0]),
   midi.NoteOnEvent(tick=0, channel=3, data=[57, 79]),
   midi.NoteOnEvent(tick=240, channel=3, data=[57, 0]),
   midi.NoteOnEvent(tick=0, channel=3, data=[50, 79]),
   midi.NoteOnEvent(tick=240, channel=3, data=[50, 0]),
   midi.NoteOnEvent(tick=0, channel=3, data=[50, 79]),
   midi.NoteOnEvent(tick=240, channel=3, data=[50, 0]),
   midi.NoteOnEvent(tick=0, channel=3, data=[54, 79]),
   midi.NoteOnEvent(tick=240, channel=3, data=[54, 0]),
   midi.NoteOnEvent(tick=0, channel=3, data=[55, 79]),
   midi.NoteOnEvent(tick=240, channel=3, data=[55, 0]),
   midi.NoteOnEvent(tick=0, channel=3, data=[54, 79]),
   midi.NoteOnEvent(tick=240, channel=3, data=[54, 0]),
   midi.NoteOnEvent(tick=0, channel=3, data=[55, 79]),
   midi.NoteOnEvent(tick=240, channel=3, data=[55, 0]),
   midi.NoteOnEvent(tick=0, channel=3, data=[57, 79]),
   midi.NoteOnEvent(tick=240, channel=3, data=[57, 0]),
   midi.NoteOnEvent(tick=0, channel=3, data=[54, 79]),
   midi.NoteOnEvent(tick=240, channel=3, data=[54, 0]),
   midi.NoteOnEvent(tick=0, channel=3, data=[55, 79]),
   midi.NoteOnEvent(tick=480, channel=3, data=[55, 0]),
   midi.NoteOnEvent(tick=1440, channel=3, data=[55, 79]),
   midi.NoteOnEvent(tick=240, channel=3, data=[55, 0]),
   midi.NoteOnEvent(tick=0, channel=3, data=[55, 79]),
   midi.NoteOnEvent(tick=240, channel=3, data=[55, 0]),
   midi.NoteOnEvent(tick=0, channel=3, data=[55, 79]),
   midi.NoteOnEvent(tick=240, channel=3, data=[55, 0]),
   midi.NoteOnEvent(tick=0, channel=3, data=[55, 79]),
   midi.NoteOnEvent(tick=240, channel=3, data=[55, 0]),
   midi.NoteOnEvent(tick=0, channel=3, data=[55, 79]),
   midi.NoteOnEvent(tick=240, channel=3, data=[55, 0]),
   midi.NoteOnEvent(tick=0, channel=3, data=[55, 79]),
   midi.NoteOnEvent(tick=240, channel=3, data=[55, 0]),
   midi.NoteOnEvent(tick=0, channel=3, data=[55, 79]),
   midi.NoteOnEvent(tick=240, channel=3, data=[55, 0]),
   midi.NoteOnEvent(tick=0, channel=3, data=[55, 79]),
   midi.NoteOnEvent(tick=240, channel=3, data=[55, 0]),
   midi.NoteOnEvent(tick=0, channel=3, data=[57, 79]),
   midi.NoteOnEvent(tick=240, channel=3, data=[57, 0]),
   midi.NoteOnEvent(tick=0, channel=3, data=[57, 79]),
   midi.NoteOnEvent(tick=240, channel=3, data=[57, 0]),
   midi.NoteOnEvent(tick=0, channel=3, data=[57, 79]),
   midi.NoteOnEvent(tick=240, channel=3, data=[57, 0]),
   midi.NoteOnEvent(tick=0, channel=3, data=[57, 79]),
   midi.NoteOnEvent(tick=240, channel=3, data=[57, 0]),
   midi.NoteOnEvent(tick=0, channel=3, data=[45, 79]),
   midi.NoteOnEvent(tick=240, channel=3, data=[45, 0]),
   midi.NoteOnEvent(tick=0, channel=3, data=[45, 79]),
   midi.NoteOnEvent(tick=240, channel=3, data=[45, 0]),
   midi.NoteOnEvent(tick=0, channel=3, data=[45, 79]),
   midi.NoteOnEvent(tick=240, channel=3, data=[45, 0]),
   midi.NoteOnEvent(tick=0, channel=3, data=[45, 79]),
   midi.NoteOnEvent(tick=240, channel=3, data=[45, 0]),
   midi.NoteOnEvent(tick=0, channel=3, data=[50, 79]),
   midi.NoteOnEvent(tick=480, channel=3, data=[50, 0]),
   midi.NoteOnEvent(tick=0, channel=3, data=[57, 79]),
   midi.NoteOnEvent(tick=240, channel=3, data=[57, 0]),
   midi.NoteOnEvent(tick=0, channel=3, data=[55, 79]),
   midi.NoteOnEvent(tick=240, channel=3, data=[55, 0]),
   midi.NoteOnEvent(tick=0, channel=3, data=[54, 79]),
   midi.NoteOnEvent(tick=240, channel=3, data=[54, 0]),
   midi.NoteOnEvent(tick=0, channel=3, data=[55, 79]),
   midi.NoteOnEvent(tick=240, channel=3, data=[55, 0]),
   midi.NoteOnEvent(tick=0, channel=3, data=[57, 79]),
   midi.NoteOnEvent(tick=240, channel=3, data=[57, 0]),
   midi.NoteOnEvent(tick=0, channel=3, data=[54, 79]),
   midi.NoteOnEvent(tick=240, channel=3, data=[54, 0]),
   midi.NoteOnEvent(tick=0, channel=3, data=[55, 79]),
   midi.NoteOnEvent(tick=480, channel=3, data=[55, 0]),
   midi.NoteOnEvent(tick=1440, channel=3, data=[55, 79]),
   midi.NoteOnEvent(tick=240, channel=3, data=[55, 0]),
   midi.NoteOnEvent(tick=0, channel=3, data=[55, 79]),
   midi.NoteOnEvent(tick=240, channel=3, data=[55, 0]),
   midi.NoteOnEvent(tick=0, channel=3, data=[55, 79]),
   midi.NoteOnEvent(tick=240, channel=3, data=[55, 0]),
   midi.NoteOnEvent(tick=0, channel=3, data=[55, 79]),
   midi.NoteOnEvent(tick=240, channel=3, data=[55, 0]),
   midi.NoteOnEvent(tick=0, channel=3, data=[55, 79]),
   midi.NoteOnEvent(tick=240, channel=3, data=[55, 0]),
   midi.NoteOnEvent(tick=0, channel=3, data=[55, 79]),
   midi.NoteOnEvent(tick=240, channel=3, data=[55, 0]),
   midi.NoteOnEvent(tick=0, channel=3, data=[55, 79]),
   midi.NoteOnEvent(tick=240, channel=3, data=[55, 0]),
   midi.NoteOnEvent(tick=0, channel=3, data=[55, 79]),
   midi.NoteOnEvent(tick=240, channel=3, data=[55, 0]),
   midi.NoteOnEvent(tick=0, channel=3, data=[57, 79]),
   midi.NoteOnEvent(tick=240, channel=3, data=[57, 0]),
   midi.NoteOnEvent(tick=0, channel=3, data=[57, 79]),
   midi.NoteOnEvent(tick=240, channel=3, data=[57, 0]),
   midi.NoteOnEvent(tick=0, channel=3, data=[57, 79]),
   midi.NoteOnEvent(tick=240, channel=3, data=[57, 0]),
   midi.NoteOnEvent(tick=0, channel=3, data=[57, 79]),
   midi.NoteOnEvent(tick=240, channel=3, data=[57, 0]),
   midi.NoteOnEvent(tick=0, channel=3, data=[45, 79]),
   midi.NoteOnEvent(tick=240, channel=3, data=[45, 0]),
   midi.NoteOnEvent(tick=0, channel=3, data=[45, 79]),
   midi.NoteOnEvent(tick=240, channel=3, data=[45, 0]),
   midi.NoteOnEvent(tick=0, channel=3, data=[45, 79]),
   midi.NoteOnEvent(tick=240, channel=3, data=[45, 0]),
   midi.NoteOnEvent(tick=0, channel=3, data=[45, 79]),
   midi.NoteOnEvent(tick=240, channel=3, data=[45, 0]),
   midi.NoteOnEvent(tick=0, channel=3, data=[50, 79]),
   midi.NoteOnEvent(tick=1920, channel=3, data=[50, 0]),
   midi.NoteOnEvent(tick=0, channel=3, data=[50, 79]),
   midi.NoteOnEvent(tick=1920, channel=3, data=[50, 0]),
   midi.NoteOnEvent(tick=0, channel=3, data=[50, 79]),
   midi.NoteOnEvent(tick=480, channel=3, data=[50, 0]),
   midi.NoteOnEvent(tick=0, channel=3, data=[50, 79]),
   midi.NoteOnEvent(tick=480, channel=3, data=[50, 0]),
   midi.NoteOnEvent(tick=0, channel=3, data=[50, 79]),
   midi.NoteOnEvent(tick=480, channel=3, data=[50, 0]),
   midi.NoteOnEvent(tick=480, channel=3, data=[55, 79]),
   midi.NoteOnEvent(tick=480, channel=3, data=[55, 0]),
   midi.NoteOnEvent(tick=3360, channel=3, data=[55, 79]),
   midi.NoteOnEvent(tick=960, channel=3, data=[55, 0]),
   midi.NoteOnEvent(tick=0, channel=3, data=[50, 79]),
   midi.NoteOnEvent(tick=960, channel=3, data=[50, 0]),
   midi.NoteOnEvent(tick=0, channel=3, data=[48, 79]),
   midi.NoteOnEvent(tick=240, channel=3, data=[48, 0]),
   midi.NoteOnEvent(tick=0, channel=3, data=[47, 79]),
   midi.NoteOnEvent(tick=240, channel=3, data=[47, 0]),
   midi.NoteOnEvent(tick=0, channel=3, data=[45, 79]),
   midi.NoteOnEvent(tick=240, channel=3, data=[45, 0]),
   midi.NoteOnEvent(tick=0, channel=3, data=[43, 79]),
   midi.NoteOnEvent(tick=240, channel=3, data=[43, 0]),
   midi.NoteOnEvent(tick=0, channel=3, data=[50, 79]),
   midi.NoteOnEvent(tick=480, channel=3, data=[50, 0]),
   midi.NoteOnEvent(tick=480, channel=3, data=[55, 79]),
   midi.NoteOnEvent(tick=480, channel=3, data=[55, 0]),
   midi.NoteOnEvent(tick=3360, channel=3, data=[55, 79]),
   midi.NoteOnEvent(tick=960, channel=3, data=[55, 0]),
   midi.NoteOnEvent(tick=0, channel=3, data=[50, 79]),
   midi.NoteOnEvent(tick=960, channel=3, data=[50, 0]),
   midi.NoteOnEvent(tick=0, channel=3, data=[48, 79]),
   midi.NoteOnEvent(tick=240, channel=3, data=[48, 0]),
   midi.NoteOnEvent(tick=0, channel=3, data=[47, 79]),
   midi.NoteOnEvent(tick=240, channel=3, data=[47, 0]),
   midi.NoteOnEvent(tick=0, channel=3, data=[45, 79]),
   midi.NoteOnEvent(tick=240, channel=3, data=[45, 0]),
   midi.NoteOnEvent(tick=0, channel=3, data=[43, 79]),
   midi.NoteOnEvent(tick=240, channel=3, data=[43, 0]),
   midi.NoteOnEvent(tick=0, channel=3, data=[50, 79]),
   midi.NoteOnEvent(tick=480, channel=3, data=[50, 0]),
   midi.NoteOnEvent(tick=480, channel=3, data=[55, 79]),
   midi.NoteOnEvent(tick=240, channel=3, data=[55, 0]),
   midi.NoteOnEvent(tick=0, channel=3, data=[55, 79]),
   midi.NoteOnEvent(tick=240, channel=3, data=[55, 0]),
   midi.NoteOnEvent(tick=0, channel=3, data=[55, 79]),
   midi.NoteOnEvent(tick=240, channel=3, data=[55, 0]),
   midi.NoteOnEvent(tick=0, channel=3, data=[55, 79]),
   midi.NoteOnEvent(tick=240, channel=3, data=[55, 0]),
   midi.NoteOnEvent(tick=0, channel=3, data=[55, 79]),
   midi.NoteOnEvent(tick=240, channel=3, data=[55, 0]),
   midi.NoteOnEvent(tick=0, channel=3, data=[55, 79]),
   midi.NoteOnEvent(tick=240, channel=3, data=[55, 0]),
   midi.NoteOnEvent(tick=0, channel=3, data=[55, 79]),
   midi.NoteOnEvent(tick=240, channel=3, data=[55, 0]),
   midi.NoteOnEvent(tick=0, channel=3, data=[55, 79]),
   midi.NoteOnEvent(tick=240, channel=3, data=[55, 0]),
   midi.NoteOnEvent(tick=0, channel=3, data=[57, 79]),
   midi.NoteOnEvent(tick=240, channel=3, data=[57, 0]),
   midi.NoteOnEvent(tick=0, channel=3, data=[57, 79]),
   midi.NoteOnEvent(tick=240, channel=3, data=[57, 0]),
   midi.NoteOnEvent(tick=0, channel=3, data=[57, 79]),
   midi.NoteOnEvent(tick=240, channel=3, data=[57, 0]),
   midi.NoteOnEvent(tick=0, channel=3, data=[57, 79]),
   midi.NoteOnEvent(tick=240, channel=3, data=[57, 0]),
   midi.NoteOnEvent(tick=0, channel=3, data=[50, 79]),
   midi.NoteOnEvent(tick=240, channel=3, data=[50, 0]),
   midi.NoteOnEvent(tick=0, channel=3, data=[50, 79]),
   midi.NoteOnEvent(tick=240, channel=3, data=[50, 0]),
   midi.NoteOnEvent(tick=0, channel=3, data=[50, 79]),
   midi.NoteOnEvent(tick=240, channel=3, data=[50, 0]),
   midi.NoteOnEvent(tick=0, channel=3, data=[50, 79]),
   midi.NoteOnEvent(tick=240, channel=3, data=[50, 0]),
   midi.NoteOnEvent(tick=0, channel=3, data=[43, 79]),
   midi.NoteOnEvent(tick=240, channel=3, data=[43, 0]),
   midi.NoteOnEvent(tick=0, channel=3, data=[43, 79]),
   midi.NoteOnEvent(tick=240, channel=3, data=[43, 0]),
   midi.NoteOnEvent(tick=0, channel=3, data=[43, 79]),
   midi.NoteOnEvent(tick=240, channel=3, data=[43, 0]),
   midi.NoteOnEvent(tick=0, channel=3, data=[43, 79]),
   midi.NoteOnEvent(tick=240, channel=3, data=[43, 0]),
   midi.NoteOnEvent(tick=0, channel=3, data=[55, 79]),
   midi.NoteOnEvent(tick=240, channel=3, data=[55, 0]),
   midi.NoteOnEvent(tick=0, channel=3, data=[55, 79]),
   midi.NoteOnEvent(tick=240, channel=3, data=[55, 0]),
   midi.NoteOnEvent(tick=0, channel=3, data=[55, 79]),
   midi.NoteOnEvent(tick=240, channel=3, data=[55, 0]),
   midi.NoteOnEvent(tick=0, channel=3, data=[55, 79]),
   midi.NoteOnEvent(tick=240, channel=3, data=[55, 0]),
   midi.NoteOnEvent(tick=0, channel=3, data=[57, 79]),
   midi.NoteOnEvent(tick=240, channel=3, data=[57, 0]),
   midi.NoteOnEvent(tick=0, channel=3, data=[57, 79]),
   midi.NoteOnEvent(tick=240, channel=3, data=[57, 0]),
   midi.NoteOnEvent(tick=0, channel=3, data=[57, 79]),
   midi.NoteOnEvent(tick=240, channel=3, data=[57, 0]),
   midi.NoteOnEvent(tick=0, channel=3, data=[57, 79]),
   midi.NoteOnEvent(tick=240, channel=3, data=[57, 0]),
   midi.NoteOnEvent(tick=0, channel=3, data=[50, 79]),
   midi.NoteOnEvent(tick=240, channel=3, data=[50, 0]),
   midi.NoteOnEvent(tick=0, channel=3, data=[50, 79]),
   midi.NoteOnEvent(tick=240, channel=3, data=[50, 0]),
   midi.NoteOnEvent(tick=0, channel=3, data=[50, 79]),
   midi.NoteOnEvent(tick=240, channel=3, data=[50, 0]),
   midi.NoteOnEvent(tick=0, channel=3, data=[50, 79]),
   midi.NoteOnEvent(tick=240, channel=3, data=[50, 0]),
   midi.NoteOnEvent(tick=0, channel=3, data=[55, 79]),
   midi.NoteOnEvent(tick=240, channel=3, data=[55, 0]),
   midi.NoteOnEvent(tick=0, channel=3, data=[43, 79]),
   midi.NoteOnEvent(tick=240, channel=3, data=[43, 0]),
   midi.NoteOnEvent(tick=0, channel=3, data=[45, 79]),
   midi.NoteOnEvent(tick=240, channel=3, data=[45, 0]),
   midi.NoteOnEvent(tick=0, channel=3, data=[47, 79]),
   midi.NoteOnEvent(tick=240, channel=3, data=[47, 0]),
   midi.NoteOnEvent(tick=0, channel=3, data=[48, 79]),
   midi.NoteOnEvent(tick=240, channel=3, data=[48, 0]),
   midi.NoteOnEvent(tick=0, channel=3, data=[50, 79]),
   midi.NoteOnEvent(tick=240, channel=3, data=[50, 0]),
   midi.NoteOnEvent(tick=0, channel=3, data=[52, 79]),
   midi.NoteOnEvent(tick=240, channel=3, data=[52, 0]),
   midi.NoteOnEvent(tick=0, channel=3, data=[54, 79]),
   midi.NoteOnEvent(tick=240, channel=3, data=[54, 0]),
   midi.NoteOnEvent(tick=0, channel=3, data=[55, 79]),
   midi.NoteOnEvent(tick=240, channel=3, data=[55, 0]),
   midi.NoteOnEvent(tick=0, channel=3, data=[54, 79]),
   midi.NoteOnEvent(tick=240, channel=3, data=[54, 0]),
   midi.NoteOnEvent(tick=0, channel=3, data=[52, 79]),
   midi.NoteOnEvent(tick=240, channel=3, data=[52, 0]),
   midi.NoteOnEvent(tick=0, channel=3, data=[50, 79]),
   midi.NoteOnEvent(tick=240, channel=3, data=[50, 0]),
   midi.NoteOnEvent(tick=0, channel=3, data=[48, 79]),
   midi.NoteOnEvent(tick=240, channel=3, data=[48, 0]),
   midi.NoteOnEvent(tick=0, channel=3, data=[47, 79]),
   midi.NoteOnEvent(tick=240, channel=3, data=[47, 0]),
   midi.NoteOnEvent(tick=0, channel=3, data=[45, 79]),
   midi.NoteOnEvent(tick=240, channel=3, data=[45, 0]),
   midi.NoteOnEvent(tick=0, channel=3, data=[43, 79]),
   midi.NoteOnEvent(tick=240, channel=3, data=[43, 0]),
   midi.NoteOnEvent(tick=0, channel=3, data=[50, 79]),
   midi.NoteOnEvent(tick=480, channel=3, data=[50, 0]),
   midi.NoteOnEvent(tick=0, channel=3, data=[62, 79]),
   midi.NoteOnEvent(tick=480, channel=3, data=[62, 0]),
   midi.NoteOnEvent(tick=0, channel=3, data=[50, 79]),
   midi.NoteOnEvent(tick=480, channel=3, data=[50, 0]),
   midi.NoteOnEvent(tick=6240, channel=3, data=[50, 79]),
   midi.NoteOnEvent(tick=960, channel=3, data=[50, 0]),
   midi.NoteOnEvent(tick=0, channel=3, data=[54, 79]),
   midi.NoteOnEvent(tick=480, channel=3, data=[54, 0]),
   midi.NoteOnEvent(tick=0, channel=3, data=[57, 79]),
   midi.NoteOnEvent(tick=480, channel=3, data=[57, 0]),
   midi.NoteOnEvent(tick=0, channel=3, data=[50, 79]),
   midi.NoteOnEvent(tick=960, channel=3, data=[50, 0]),
   midi.NoteOnEvent(tick=0, channel=3, data=[54, 79]),
   midi.NoteOnEvent(tick=480, channel=3, data=[54, 0]),
   midi.NoteOnEvent(tick=0, channel=3, data=[57, 79]),
   midi.NoteOnEvent(tick=480, channel=3, data=[57, 0]),
   midi.NoteOnEvent(tick=0, channel=3, data=[62, 79]),
   midi.NoteOnEvent(tick=480, channel=3, data=[62, 0]),
   midi.NoteOnEvent(tick=1440, channel=3, data=[57, 79]),
   midi.NoteOnEvent(tick=240, channel=3, data=[57, 0]),
   midi.NoteOnEvent(tick=0, channel=3, data=[57, 79]),
   midi.NoteOnEvent(tick=240, channel=3, data=[57, 0]),
   midi.NoteOnEvent(tick=0, channel=3, data=[57, 79]),
   midi.NoteOnEvent(tick=240, channel=3, data=[57, 0]),
   midi.NoteOnEvent(tick=0, channel=3, data=[57, 79]),
   midi.NoteOnEvent(tick=240, channel=3, data=[57, 0]),
   midi.NoteOnEvent(tick=0, channel=3, data=[57, 79]),
   midi.NoteOnEvent(tick=240, channel=3, data=[57, 0]),
   midi.NoteOnEvent(tick=0, channel=3, data=[57, 79]),
   midi.NoteOnEvent(tick=240, channel=3, data=[57, 0]),
   midi.NoteOnEvent(tick=0, channel=3, data=[57, 79]),
   midi.NoteOnEvent(tick=240, channel=3, data=[57, 0]),
   midi.NoteOnEvent(tick=0, channel=3, data=[57, 79]),
   midi.NoteOnEvent(tick=240, channel=3, data=[57, 0]),
   midi.NoteOnEvent(tick=0, channel=3, data=[50, 79]),
   midi.NoteOnEvent(tick=480, channel=3, data=[50, 0]),
   midi.NoteOnEvent(tick=1440, channel=3, data=[57, 79]),
   midi.NoteOnEvent(tick=240, channel=3, data=[57, 0]),
   midi.NoteOnEvent(tick=0, channel=3, data=[57, 79]),
   midi.NoteOnEvent(tick=240, channel=3, data=[57, 0]),
   midi.NoteOnEvent(tick=0, channel=3, data=[57, 79]),
   midi.NoteOnEvent(tick=240, channel=3, data=[57, 0]),
   midi.NoteOnEvent(tick=0, channel=3, data=[57, 79]),
   midi.NoteOnEvent(tick=240, channel=3, data=[57, 0]),
   midi.NoteOnEvent(tick=0, channel=3, data=[57, 79]),
   midi.NoteOnEvent(tick=240, channel=3, data=[57, 0]),
   midi.NoteOnEvent(tick=0, channel=3, data=[57, 79]),
   midi.NoteOnEvent(tick=240, channel=3, data=[57, 0]),
   midi.NoteOnEvent(tick=0, channel=3, data=[57, 79]),
   midi.NoteOnEvent(tick=240, channel=3, data=[57, 0]),
   midi.NoteOnEvent(tick=0, channel=3, data=[57, 79]),
   midi.NoteOnEvent(tick=240, channel=3, data=[57, 0]),
   midi.NoteOnEvent(tick=0, channel=3, data=[50, 79]),
   midi.NoteOnEvent(tick=240, channel=3, data=[50, 0]),
   midi.NoteOnEvent(tick=0, channel=3, data=[50, 79]),
   midi.NoteOnEvent(tick=240, channel=3, data=[50, 0]),
   midi.NoteOnEvent(tick=0, channel=3, data=[54, 79]),
   midi.NoteOnEvent(tick=240, channel=3, data=[54, 0]),
   midi.NoteOnEvent(tick=0, channel=3, data=[55, 79]),
   midi.NoteOnEvent(tick=240, channel=3, data=[55, 0]),
   midi.NoteOnEvent(tick=0, channel=3, data=[54, 79]),
   midi.NoteOnEvent(tick=240, channel=3, data=[54, 0]),
   midi.NoteOnEvent(tick=0, channel=3, data=[55, 79]),
   midi.NoteOnEvent(tick=240, channel=3, data=[55, 0]),
   midi.NoteOnEvent(tick=0, channel=3, data=[57, 79]),
   midi.NoteOnEvent(tick=240, channel=3, data=[57, 0]),
   midi.NoteOnEvent(tick=0, channel=3, data=[54, 79]),
   midi.NoteOnEvent(tick=240, channel=3, data=[54, 0]),
   midi.NoteOnEvent(tick=0, channel=3, data=[55, 79]),
   midi.NoteOnEvent(tick=480, channel=3, data=[55, 0]),
   midi.NoteOnEvent(tick=1440, channel=3, data=[55, 79]),
   midi.NoteOnEvent(tick=240, channel=3, data=[55, 0]),
   midi.NoteOnEvent(tick=0, channel=3, data=[55, 79]),
   midi.NoteOnEvent(tick=240, channel=3, data=[55, 0]),
   midi.NoteOnEvent(tick=0, channel=3, data=[55, 79]),
   midi.NoteOnEvent(tick=240, channel=3, data=[55, 0]),
   midi.NoteOnEvent(tick=0, channel=3, data=[55, 79]),
   midi.NoteOnEvent(tick=240, channel=3, data=[55, 0]),
   midi.NoteOnEvent(tick=0, channel=3, data=[55, 79]),
   midi.NoteOnEvent(tick=240, channel=3, data=[55, 0]),
   midi.NoteOnEvent(tick=0, channel=3, data=[55, 79]),
   midi.NoteOnEvent(tick=240, channel=3, data=[55, 0]),
   midi.NoteOnEvent(tick=0, channel=3, data=[55, 79]),
   midi.NoteOnEvent(tick=240, channel=3, data=[55, 0]),
   midi.NoteOnEvent(tick=0, channel=3, data=[55, 79]),
   midi.NoteOnEvent(tick=240, channel=3, data=[55, 0]),
   midi.NoteOnEvent(tick=0, channel=3, data=[57, 79]),
   midi.NoteOnEvent(tick=240, channel=3, data=[57, 0]),
   midi.NoteOnEvent(tick=0, channel=3, data=[57, 79]),
   midi.NoteOnEvent(tick=240, channel=3, data=[57, 0]),
   midi.NoteOnEvent(tick=0, channel=3, data=[57, 79]),
   midi.NoteOnEvent(tick=240, channel=3, data=[57, 0]),
   midi.NoteOnEvent(tick=0, channel=3, data=[57, 79]),
   midi.NoteOnEvent(tick=240, channel=3, data=[57, 0]),
   midi.NoteOnEvent(tick=0, channel=3, data=[45, 79]),
   midi.NoteOnEvent(tick=240, channel=3, data=[45, 0]),
   midi.NoteOnEvent(tick=0, channel=3, data=[45, 79]),
   midi.NoteOnEvent(tick=240, channel=3, data=[45, 0]),
   midi.NoteOnEvent(tick=0, channel=3, data=[45, 79]),
   midi.NoteOnEvent(tick=240, channel=3, data=[45, 0]),
   midi.NoteOnEvent(tick=0, channel=3, data=[45, 79]),
   midi.NoteOnEvent(tick=240, channel=3, data=[45, 0]),
   midi.NoteOnEvent(tick=0, channel=3, data=[50, 79]),
   midi.NoteOnEvent(tick=480, channel=3, data=[50, 0]),
   midi.NoteOnEvent(tick=0, channel=3, data=[57, 79]),
   midi.NoteOnEvent(tick=240, channel=3, data=[57, 0]),
   midi.NoteOnEvent(tick=0, channel=3, data=[55, 79]),
   midi.NoteOnEvent(tick=240, channel=3, data=[55, 0]),
   midi.NoteOnEvent(tick=0, channel=3, data=[54, 79]),
   midi.NoteOnEvent(tick=240, channel=3, data=[54, 0]),
   midi.NoteOnEvent(tick=0, channel=3, data=[55, 79]),
   midi.NoteOnEvent(tick=240, channel=3, data=[55, 0]),
   midi.NoteOnEvent(tick=0, channel=3, data=[57, 79]),
   midi.NoteOnEvent(tick=240, channel=3, data=[57, 0]),
   midi.NoteOnEvent(tick=0, channel=3, data=[54, 79]),
   midi.NoteOnEvent(tick=240, channel=3, data=[54, 0]),
   midi.NoteOnEvent(tick=0, channel=3, data=[55, 79]),
   midi.NoteOnEvent(tick=480, channel=3, data=[55, 0]),
   midi.NoteOnEvent(tick=1440, channel=3, data=[55, 79]),
   midi.NoteOnEvent(tick=240, channel=3, data=[55, 0]),
   midi.NoteOnEvent(tick=0, channel=3, data=[55, 79]),
   midi.NoteOnEvent(tick=240, channel=3, data=[55, 0]),
   midi.NoteOnEvent(tick=0, channel=3, data=[55, 79]),
   midi.NoteOnEvent(tick=240, channel=3, data=[55, 0]),
   midi.NoteOnEvent(tick=0, channel=3, data=[55, 79]),
   midi.NoteOnEvent(tick=240, channel=3, data=[55, 0]),
   midi.NoteOnEvent(tick=0, channel=3, data=[55, 79]),
   midi.NoteOnEvent(tick=240, channel=3, data=[55, 0]),
   midi.NoteOnEvent(tick=0, channel=3, data=[55, 79]),
   midi.NoteOnEvent(tick=240, channel=3, data=[55, 0]),
   midi.NoteOnEvent(tick=0, channel=3, data=[55, 79]),
   midi.NoteOnEvent(tick=240, channel=3, data=[55, 0]),
   midi.NoteOnEvent(tick=0, channel=3, data=[55, 79]),
   midi.NoteOnEvent(tick=240, channel=3, data=[55, 0]),
   midi.NoteOnEvent(tick=0, channel=3, data=[57, 79]),
   midi.NoteOnEvent(tick=240, channel=3, data=[57, 0]),
   midi.NoteOnEvent(tick=0, channel=3, data=[57, 79]),
   midi.NoteOnEvent(tick=240, channel=3, data=[57, 0]),
   midi.NoteOnEvent(tick=0, channel=3, data=[57, 79]),
   midi.NoteOnEvent(tick=240, channel=3, data=[57, 0]),
   midi.NoteOnEvent(tick=0, channel=3, data=[57, 79]),
   midi.NoteOnEvent(tick=240, channel=3, data=[57, 0]),
   midi.NoteOnEvent(tick=0, channel=3, data=[45, 79]),
   midi.NoteOnEvent(tick=240, channel=3, data=[45, 0]),
   midi.NoteOnEvent(tick=0, channel=3, data=[45, 79]),
   midi.NoteOnEvent(tick=240, channel=3, data=[45, 0]),
   midi.NoteOnEvent(tick=0, channel=3, data=[45, 79]),
   midi.NoteOnEvent(tick=240, channel=3, data=[45, 0]),
   midi.NoteOnEvent(tick=0, channel=3, data=[45, 79]),
   midi.NoteOnEvent(tick=240, channel=3, data=[45, 0]),
   midi.NoteOnEvent(tick=0, channel=3, data=[50, 79]),
   midi.NoteOnEvent(tick=1920, channel=3, data=[50, 0]),
   midi.NoteOnEvent(tick=0, channel=3, data=[50, 79]),
   midi.NoteOnEvent(tick=1920, channel=3, data=[50, 0]),
   midi.NoteOnEvent(tick=0, channel=3, data=[50, 79]),
   midi.NoteOnEvent(tick=480, channel=3, data=[50, 0]),
   midi.NoteOnEvent(tick=0, channel=3, data=[50, 79]),
   midi.NoteOnEvent(tick=480, channel=3, data=[50, 0]),
   midi.NoteOnEvent(tick=0, channel=3, data=[50, 79]),
   midi.NoteOnEvent(tick=480, channel=3, data=[50, 0]),
   midi.NoteOnEvent(tick=13920, channel=3, data=[43, 79]),
   midi.NoteOnEvent(tick=1920, channel=3, data=[43, 0]),
   midi.NoteOnEvent(tick=0, channel=3, data=[45, 79]),
   midi.NoteOnEvent(tick=1920, channel=3, data=[45, 0]),
   midi.NoteOnEvent(tick=0, channel=3, data=[47, 79]),
   midi.NoteOnEvent(tick=1920, channel=3, data=[47, 0]),
   midi.NoteOnEvent(tick=0, channel=3, data=[48, 79]),
   midi.NoteOnEvent(tick=1920, channel=3, data=[48, 0]),
   midi.NoteOnEvent(tick=0, channel=3, data=[50, 79]),
   midi.NoteOnEvent(tick=480, channel=3, data=[50, 0]),
   midi.NoteOnEvent(tick=0, channel=3, data=[54, 79]),
   midi.NoteOnEvent(tick=480, channel=3, data=[54, 0]),
   midi.NoteOnEvent(tick=0, channel=3, data=[55, 79]),
   midi.NoteOnEvent(tick=480, channel=3, data=[55, 0]),
   midi.NoteOnEvent(tick=0, channel=3, data=[59, 79]),
   midi.NoteOnEvent(tick=480, channel=3, data=[59, 0]),
   midi.ControlChangeEvent(tick=0, channel=3, data=[7, 104]),
   midi.NoteOnEvent(tick=0, channel=3, data=[50, 79]),
   midi.NoteOnEvent(tick=480, channel=3, data=[50, 0]),
   midi.NoteOnEvent(tick=0, channel=3, data=[54, 79]),
   midi.NoteOnEvent(tick=480, channel=3, data=[54, 0]),
   midi.NoteOnEvent(tick=0, channel=3, data=[55, 79]),
   midi.NoteOnEvent(tick=480, channel=3, data=[55, 0]),
   midi.NoteOnEvent(tick=0, channel=3, data=[59, 79]),
   midi.NoteOnEvent(tick=480, channel=3, data=[59, 0]),
   midi.NoteOnEvent(tick=0, channel=3, data=[50, 79]),
   midi.NoteOnEvent(tick=480, channel=3, data=[50, 0]),
   midi.NoteOnEvent(tick=0, channel=3, data=[62, 79]),
   midi.NoteOnEvent(tick=480, channel=3, data=[62, 0]),
   midi.NoteOnEvent(tick=0, channel=3, data=[50, 79]),
   midi.NoteOnEvent(tick=240, channel=3, data=[50, 0]),
   midi.NoteOnEvent(tick=0, channel=3, data=[60, 79]),
   midi.NoteOnEvent(tick=240, channel=3, data=[60, 0]),
   midi.NoteOnEvent(tick=0, channel=3, data=[59, 79]),
   midi.NoteOnEvent(tick=240, channel=3, data=[59, 0]),
   midi.NoteOnEvent(tick=0, channel=3, data=[57, 79]),
   midi.NoteOnEvent(tick=240, channel=3, data=[57, 0]),
   midi.NoteOnEvent(tick=0, channel=3, data=[55, 79]),
   midi.NoteOnEvent(tick=480, channel=3, data=[55, 0]),
   midi.NoteOnEvent(tick=3360, channel=3, data=[55, 79]),
   midi.NoteOnEvent(tick=960, channel=3, data=[55, 0]),
   midi.NoteOnEvent(tick=0, channel=3, data=[50, 79]),
   midi.NoteOnEvent(tick=960, channel=3, data=[50, 0]),
   midi.NoteOnEvent(tick=0, channel=3, data=[48, 79]),
   midi.NoteOnEvent(tick=240, channel=3, data=[48, 0]),
   midi.NoteOnEvent(tick=0, channel=3, data=[47, 79]),
   midi.NoteOnEvent(tick=240, channel=3, data=[47, 0]),
   midi.NoteOnEvent(tick=0, channel=3, data=[45, 79]),
   midi.NoteOnEvent(tick=240, channel=3, data=[45, 0]),
   midi.NoteOnEvent(tick=0, channel=3, data=[43, 79]),
   midi.NoteOnEvent(tick=240, channel=3, data=[43, 0]),
   midi.NoteOnEvent(tick=0, channel=3, data=[50, 79]),
   midi.NoteOnEvent(tick=480, channel=3, data=[50, 0]),
   midi.NoteOnEvent(tick=480, channel=3, data=[55, 79]),
   midi.NoteOnEvent(tick=480, channel=3, data=[55, 0]),
   midi.NoteOnEvent(tick=3360, channel=3, data=[55, 79]),
   midi.NoteOnEvent(tick=960, channel=3, data=[55, 0]),
   midi.NoteOnEvent(tick=0, channel=3, data=[50, 79]),
   midi.NoteOnEvent(tick=960, channel=3, data=[50, 0]),
   midi.NoteOnEvent(tick=0, channel=3, data=[48, 79]),
   midi.NoteOnEvent(tick=60, channel=3, data=[48, 0]),
   midi.NoteOnEvent(tick=0, channel=3, data=[47, 79]),
   midi.NoteOnEvent(tick=60, channel=3, data=[47, 0]),
   midi.NoteOnEvent(tick=0, channel=3, data=[47, 79]),
   midi.NoteOnEvent(tick=360, channel=3, data=[47, 0]),
   midi.NoteOnEvent(tick=0, channel=3, data=[45, 79]),
   midi.NoteOnEvent(tick=240, channel=3, data=[45, 0]),
   midi.NoteOnEvent(tick=0, channel=3, data=[43, 79]),
   midi.NoteOnEvent(tick=240, channel=3, data=[43, 0]),
   midi.NoteOnEvent(tick=0, channel=3, data=[50, 79]),
   midi.NoteOnEvent(tick=480, channel=3, data=[50, 0]),
   midi.NoteOnEvent(tick=480, channel=3, data=[55, 79]),
   midi.NoteOnEvent(tick=240, channel=3, data=[55, 0]),
   midi.NoteOnEvent(tick=0, channel=3, data=[55, 79]),
   midi.NoteOnEvent(tick=240, channel=3, data=[55, 0]),
   midi.NoteOnEvent(tick=0, channel=3, data=[55, 79]),
   midi.NoteOnEvent(tick=240, channel=3, data=[55, 0]),
   midi.NoteOnEvent(tick=0, channel=3, data=[55, 79]),
   midi.NoteOnEvent(tick=240, channel=3, data=[55, 0]),
   midi.NoteOnEvent(tick=0, channel=3, data=[55, 79]),
   midi.NoteOnEvent(tick=240, channel=3, data=[55, 0]),
   midi.NoteOnEvent(tick=0, channel=3, data=[55, 79]),
   midi.NoteOnEvent(tick=240, channel=3, data=[55, 0]),
   midi.NoteOnEvent(tick=0, channel=3, data=[55, 79]),
   midi.NoteOnEvent(tick=240, channel=3, data=[55, 0]),
   midi.NoteOnEvent(tick=0, channel=3, data=[55, 79]),
   midi.NoteOnEvent(tick=240, channel=3, data=[55, 0]),
   midi.NoteOnEvent(tick=0, channel=3, data=[57, 79]),
   midi.NoteOnEvent(tick=240, channel=3, data=[57, 0]),
   midi.NoteOnEvent(tick=0, channel=3, data=[57, 79]),
   midi.NoteOnEvent(tick=240, channel=3, data=[57, 0]),
   midi.NoteOnEvent(tick=0, channel=3, data=[57, 79]),
   midi.NoteOnEvent(tick=240, channel=3, data=[57, 0]),
   midi.NoteOnEvent(tick=0, channel=3, data=[57, 79]),
   midi.NoteOnEvent(tick=240, channel=3, data=[57, 0]),
   midi.NoteOnEvent(tick=0, channel=3, data=[50, 79]),
   midi.NoteOnEvent(tick=240, channel=3, data=[50, 0]),
   midi.NoteOnEvent(tick=0, channel=3, data=[50, 79]),
   midi.NoteOnEvent(tick=240, channel=3, data=[50, 0]),
   midi.NoteOnEvent(tick=0, channel=3, data=[50, 79]),
   midi.NoteOnEvent(tick=240, channel=3, data=[50, 0]),
   midi.NoteOnEvent(tick=0, channel=3, data=[50, 79]),
   midi.NoteOnEvent(tick=240, channel=3, data=[50, 0]),
   midi.NoteOnEvent(tick=0, channel=3, data=[43, 79]),
   midi.NoteOnEvent(tick=240, channel=3, data=[43, 0]),
   midi.NoteOnEvent(tick=0, channel=3, data=[43, 79]),
   midi.NoteOnEvent(tick=240, channel=3, data=[43, 0]),
   midi.NoteOnEvent(tick=0, channel=3, data=[43, 79]),
   midi.NoteOnEvent(tick=240, channel=3, data=[43, 0]),
   midi.NoteOnEvent(tick=0, channel=3, data=[43, 79]),
   midi.NoteOnEvent(tick=240, channel=3, data=[43, 0]),
   midi.NoteOnEvent(tick=0, channel=3, data=[55, 79]),
   midi.NoteOnEvent(tick=240, channel=3, data=[55, 0]),
   midi.NoteOnEvent(tick=0, channel=3, data=[55, 79]),
   midi.NoteOnEvent(tick=240, channel=3, data=[55, 0]),
   midi.NoteOnEvent(tick=0, channel=3, data=[55, 79]),
   midi.NoteOnEvent(tick=240, channel=3, data=[55, 0]),
   midi.NoteOnEvent(tick=0, channel=3, data=[55, 79]),
   midi.NoteOnEvent(tick=240, channel=3, data=[55, 0]),
   midi.NoteOnEvent(tick=0, channel=3, data=[57, 79]),
   midi.NoteOnEvent(tick=240, channel=3, data=[57, 0]),
   midi.NoteOnEvent(tick=0, channel=3, data=[57, 79]),
   midi.NoteOnEvent(tick=240, channel=3, data=[57, 0]),
   midi.NoteOnEvent(tick=0, channel=3, data=[57, 79]),
   midi.NoteOnEvent(tick=240, channel=3, data=[57, 0]),
   midi.NoteOnEvent(tick=0, channel=3, data=[57, 79]),
   midi.NoteOnEvent(tick=240, channel=3, data=[57, 0]),
   midi.NoteOnEvent(tick=0, channel=3, data=[50, 79]),
   midi.NoteOnEvent(tick=240, channel=3, data=[50, 0]),
   midi.NoteOnEvent(tick=0, channel=3, data=[50, 79]),
   midi.NoteOnEvent(tick=240, channel=3, data=[50, 0]),
   midi.NoteOnEvent(tick=0, channel=3, data=[50, 79]),
   midi.NoteOnEvent(tick=240, channel=3, data=[50, 0]),
   midi.NoteOnEvent(tick=0, channel=3, data=[50, 79]),
   midi.NoteOnEvent(tick=240, channel=3, data=[50, 0]),
   midi.NoteOnEvent(tick=0, channel=3, data=[55, 79]),
   midi.NoteOnEvent(tick=240, channel=3, data=[55, 0]),
   midi.NoteOnEvent(tick=0, channel=3, data=[43, 79]),
   midi.NoteOnEvent(tick=240, channel=3, data=[43, 0]),
   midi.NoteOnEvent(tick=0, channel=3, data=[45, 79]),
   midi.NoteOnEvent(tick=240, channel=3, data=[45, 0]),
   midi.NoteOnEvent(tick=0, channel=3, data=[47, 79]),
   midi.NoteOnEvent(tick=240, channel=3, data=[47, 0]),
   midi.NoteOnEvent(tick=0, channel=3, data=[48, 79]),
   midi.NoteOnEvent(tick=240, channel=3, data=[48, 0]),
   midi.NoteOnEvent(tick=0, channel=3, data=[50, 79]),
   midi.NoteOnEvent(tick=240, channel=3, data=[50, 0]),
   midi.NoteOnEvent(tick=0, channel=3, data=[52, 79]),
   midi.NoteOnEvent(tick=240, channel=3, data=[52, 0]),
   midi.NoteOnEvent(tick=0, channel=3, data=[54, 79]),
   midi.NoteOnEvent(tick=240, channel=3, data=[54, 0]),
   midi.NoteOnEvent(tick=0, channel=3, data=[55, 79]),
   midi.NoteOnEvent(tick=240, channel=3, data=[55, 0]),
   midi.NoteOnEvent(tick=0, channel=3, data=[54, 79]),
   midi.NoteOnEvent(tick=240, channel=3, data=[54, 0]),
   midi.NoteOnEvent(tick=0, channel=3, data=[52, 79]),
   midi.NoteOnEvent(tick=240, channel=3, data=[52, 0]),
   midi.NoteOnEvent(tick=0, channel=3, data=[50, 79]),
   midi.NoteOnEvent(tick=240, channel=3, data=[50, 0]),
   midi.NoteOnEvent(tick=0, channel=3, data=[48, 79]),
   midi.NoteOnEvent(tick=240, channel=3, data=[48, 0]),
   midi.NoteOnEvent(tick=0, channel=3, data=[47, 79]),
   midi.NoteOnEvent(tick=240, channel=3, data=[47, 0]),
   midi.NoteOnEvent(tick=0, channel=3, data=[45, 79]),
   midi.NoteOnEvent(tick=240, channel=3, data=[45, 0]),
   midi.NoteOnEvent(tick=0, channel=3, data=[43, 79]),
   midi.NoteOnEvent(tick=240, channel=3, data=[43, 0]),
   midi.NoteOnEvent(tick=0, channel=3, data=[50, 79]),
   midi.NoteOnEvent(tick=480, channel=3, data=[50, 0]),
   midi.NoteOnEvent(tick=0, channel=3, data=[62, 79]),
   midi.NoteOnEvent(tick=480, channel=3, data=[62, 0]),
   midi.NoteOnEvent(tick=0, channel=3, data=[50, 79]),
   midi.NoteOnEvent(tick=480, channel=3, data=[50, 0]),
   midi.NoteOnEvent(tick=6240, channel=3, data=[43, 79]),
   midi.NoteOnEvent(tick=960, channel=3, data=[43, 0]),
   midi.NoteOnEvent(tick=0, channel=3, data=[47, 79]),
   midi.NoteOnEvent(tick=480, channel=3, data=[47, 0]),
   midi.NoteOnEvent(tick=0, channel=3, data=[50, 79]),
   midi.NoteOnEvent(tick=480, channel=3, data=[50, 0]),
   midi.NoteOnEvent(tick=0, channel=3, data=[55, 79]),
   midi.NoteOnEvent(tick=960, channel=3, data=[55, 0]),
   midi.NoteOnEvent(tick=0, channel=3, data=[59, 79]),
   midi.NoteOnEvent(tick=480, channel=3, data=[59, 0]),
   midi.NoteOnEvent(tick=0, channel=3, data=[62, 79]),
   midi.NoteOnEvent(tick=480, channel=3, data=[62, 0]),
   midi.NoteOnEvent(tick=0, channel=3, data=[55, 79]),
   midi.NoteOnEvent(tick=480, channel=3, data=[55, 0]),
   midi.NoteOnEvent(tick=1440, channel=3, data=[50, 79]),
   midi.NoteOnEvent(tick=240, channel=3, data=[50, 0]),
   midi.NoteOnEvent(tick=0, channel=3, data=[50, 79]),
   midi.NoteOnEvent(tick=240, channel=3, data=[50, 0]),
   midi.NoteOnEvent(tick=0, channel=3, data=[50, 79]),
   midi.NoteOnEvent(tick=240, channel=3, data=[50, 0]),
   midi.NoteOnEvent(tick=0, channel=3, data=[50, 79]),
   midi.NoteOnEvent(tick=240, channel=3, data=[50, 0]),
   midi.NoteOnEvent(tick=0, channel=3, data=[50, 79]),
   midi.NoteOnEvent(tick=240, channel=3, data=[50, 0]),
   midi.NoteOnEvent(tick=0, channel=3, data=[50, 79]),
   midi.NoteOnEvent(tick=240, channel=3, data=[50, 0]),
   midi.NoteOnEvent(tick=0, channel=3, data=[50, 79]),
   midi.NoteOnEvent(tick=240, channel=3, data=[50, 0]),
   midi.NoteOnEvent(tick=0, channel=3, data=[50, 79]),
   midi.NoteOnEvent(tick=240, channel=3, data=[50, 0]),
   midi.NoteOnEvent(tick=0, channel=3, data=[43, 79]),
   midi.NoteOnEvent(tick=480, channel=3, data=[43, 0]),
   midi.NoteOnEvent(tick=1440, channel=3, data=[50, 79]),
   midi.NoteOnEvent(tick=240, channel=3, data=[50, 0]),
   midi.NoteOnEvent(tick=0, channel=3, data=[50, 79]),
   midi.NoteOnEvent(tick=240, channel=3, data=[50, 0]),
   midi.NoteOnEvent(tick=0, channel=3, data=[50, 79]),
   midi.NoteOnEvent(tick=240, channel=3, data=[50, 0]),
   midi.NoteOnEvent(tick=0, channel=3, data=[50, 79]),
   midi.NoteOnEvent(tick=240, channel=3, data=[50, 0]),
   midi.NoteOnEvent(tick=0, channel=3, data=[50, 79]),
   midi.NoteOnEvent(tick=240, channel=3, data=[50, 0]),
   midi.NoteOnEvent(tick=0, channel=3, data=[50, 79]),
   midi.NoteOnEvent(tick=240, channel=3, data=[50, 0]),
   midi.NoteOnEvent(tick=0, channel=3, data=[50, 79]),
   midi.NoteOnEvent(tick=240, channel=3, data=[50, 0]),
   midi.NoteOnEvent(tick=0, channel=3, data=[50, 79]),
   midi.NoteOnEvent(tick=240, channel=3, data=[50, 0]),
   midi.NoteOnEvent(tick=0, channel=3, data=[43, 79]),
   midi.NoteOnEvent(tick=240, channel=3, data=[43, 0]),
   midi.NoteOnEvent(tick=0, channel=3, data=[55, 79]),
   midi.NoteOnEvent(tick=240, channel=3, data=[55, 0]),
   midi.NoteOnEvent(tick=0, channel=3, data=[59, 79]),
   midi.NoteOnEvent(tick=240, channel=3, data=[59, 0]),
   midi.NoteOnEvent(tick=0, channel=3, data=[60, 79]),
   midi.NoteOnEvent(tick=240, channel=3, data=[60, 0]),
   midi.NoteOnEvent(tick=0, channel=3, data=[59, 79]),
   midi.NoteOnEvent(tick=240, channel=3, data=[59, 0]),
   midi.NoteOnEvent(tick=0, channel=3, data=[62, 79]),
   midi.NoteOnEvent(tick=240, channel=3, data=[62, 0]),
   midi.NoteOnEvent(tick=0, channel=3, data=[60, 79]),
   midi.NoteOnEvent(tick=240, channel=3, data=[60, 0]),
   midi.NoteOnEvent(tick=0, channel=3, data=[59, 79]),
   midi.NoteOnEvent(tick=240, channel=3, data=[59, 0]),
   midi.NoteOnEvent(tick=0, channel=3, data=[60, 79]),
   midi.NoteOnEvent(tick=480, channel=3, data=[60, 0]),
   midi.NoteOnEvent(tick=1440, channel=3, data=[60, 79]),
   midi.NoteOnEvent(tick=240, channel=3, data=[60, 0]),
   midi.NoteOnEvent(tick=0, channel=3, data=[60, 79]),
   midi.NoteOnEvent(tick=240, channel=3, data=[60, 0]),
   midi.NoteOnEvent(tick=0, channel=3, data=[60, 79]),
   midi.NoteOnEvent(tick=240, channel=3, data=[60, 0]),
   midi.NoteOnEvent(tick=0, channel=3, data=[60, 79]),
   midi.NoteOnEvent(tick=240, channel=3, data=[60, 0]),
   midi.NoteOnEvent(tick=0, channel=3, data=[60, 79]),
   midi.NoteOnEvent(tick=240, channel=3, data=[60, 0]),
   midi.NoteOnEvent(tick=0, channel=3, data=[60, 79]),
   midi.NoteOnEvent(tick=240, channel=3, data=[60, 0]),
   midi.NoteOnEvent(tick=0, channel=3, data=[60, 79]),
   midi.NoteOnEvent(tick=240, channel=3, data=[60, 0]),
   midi.NoteOnEvent(tick=0, channel=3, data=[60, 79]),
   midi.NoteOnEvent(tick=240, channel=3, data=[60, 0]),
   midi.NoteOnEvent(tick=0, channel=3, data=[62, 79]),
   midi.NoteOnEvent(tick=240, channel=3, data=[62, 0]),
   midi.NoteOnEvent(tick=0, channel=3, data=[62, 79]),
   midi.NoteOnEvent(tick=240, channel=3, data=[62, 0]),
   midi.NoteOnEvent(tick=0, channel=3, data=[62, 79]),
   midi.NoteOnEvent(tick=240, channel=3, data=[62, 0]),
   midi.NoteOnEvent(tick=0, channel=3, data=[62, 79]),
   midi.NoteOnEvent(tick=240, channel=3, data=[62, 0]),
   midi.NoteOnEvent(tick=0, channel=3, data=[50, 79]),
   midi.NoteOnEvent(tick=240, channel=3, data=[50, 0]),
   midi.NoteOnEvent(tick=0, channel=3, data=[50, 79]),
   midi.NoteOnEvent(tick=240, channel=3, data=[50, 0]),
   midi.NoteOnEvent(tick=0, channel=3, data=[50, 79]),
   midi.NoteOnEvent(tick=240, channel=3, data=[50, 0]),
   midi.NoteOnEvent(tick=0, channel=3, data=[50, 79]),
   midi.NoteOnEvent(tick=240, channel=3, data=[50, 0]),
   midi.NoteOnEvent(tick=0, channel=3, data=[55, 79]),
   midi.NoteOnEvent(tick=480, channel=3, data=[55, 0]),
   midi.NoteOnEvent(tick=0, channel=3, data=[62, 79]),
   midi.NoteOnEvent(tick=240, channel=3, data=[62, 0]),
   midi.NoteOnEvent(tick=0, channel=3, data=[60, 79]),
   midi.NoteOnEvent(tick=240, channel=3, data=[60, 0]),
   midi.NoteOnEvent(tick=0, channel=3, data=[59, 79]),
   midi.NoteOnEvent(tick=240, channel=3, data=[59, 0]),
   midi.NoteOnEvent(tick=0, channel=3, data=[60, 79]),
   midi.NoteOnEvent(tick=240, channel=3, data=[60, 0]),
   midi.NoteOnEvent(tick=0, channel=3, data=[62, 79]),
   midi.NoteOnEvent(tick=240, channel=3, data=[62, 0]),
   midi.NoteOnEvent(tick=0, channel=3, data=[59, 79]),
   midi.NoteOnEvent(tick=240, channel=3, data=[59, 0]),
   midi.NoteOnEvent(tick=0, channel=3, data=[60, 79]),
   midi.NoteOnEvent(tick=480, channel=3, data=[60, 0]),
   midi.NoteOnEvent(tick=1440, channel=3, data=[60, 79]),
   midi.NoteOnEvent(tick=240, channel=3, data=[60, 0]),
   midi.NoteOnEvent(tick=0, channel=3, data=[60, 79]),
   midi.NoteOnEvent(tick=240, channel=3, data=[60, 0]),
   midi.NoteOnEvent(tick=0, channel=3, data=[60, 79]),
   midi.NoteOnEvent(tick=240, channel=3, data=[60, 0]),
   midi.NoteOnEvent(tick=0, channel=3, data=[60, 79]),
   midi.NoteOnEvent(tick=240, channel=3, data=[60, 0]),
   midi.NoteOnEvent(tick=0, channel=3, data=[60, 79]),
   midi.NoteOnEvent(tick=240, channel=3, data=[60, 0]),
   midi.NoteOnEvent(tick=0, channel=3, data=[60, 79]),
   midi.NoteOnEvent(tick=240, channel=3, data=[60, 0]),
   midi.NoteOnEvent(tick=0, channel=3, data=[60, 79]),
   midi.NoteOnEvent(tick=240, channel=3, data=[60, 0]),
   midi.NoteOnEvent(tick=0, channel=3, data=[60, 79]),
   midi.NoteOnEvent(tick=240, channel=3, data=[60, 0]),
   midi.NoteOnEvent(tick=0, channel=3, data=[62, 79]),
   midi.NoteOnEvent(tick=240, channel=3, data=[62, 0]),
   midi.NoteOnEvent(tick=0, channel=3, data=[62, 79]),
   midi.NoteOnEvent(tick=240, channel=3, data=[62, 0]),
   midi.NoteOnEvent(tick=0, channel=3, data=[62, 79]),
   midi.NoteOnEvent(tick=240, channel=3, data=[62, 0]),
   midi.NoteOnEvent(tick=0, channel=3, data=[62, 79]),
   midi.NoteOnEvent(tick=240, channel=3, data=[62, 0]),
   midi.NoteOnEvent(tick=0, channel=3, data=[50, 79]),
   midi.NoteOnEvent(tick=240, channel=3, data=[50, 0]),
   midi.NoteOnEvent(tick=0, channel=3, data=[50, 79]),
   midi.NoteOnEvent(tick=240, channel=3, data=[50, 0]),
   midi.NoteOnEvent(tick=0, channel=3, data=[50, 79]),
   midi.NoteOnEvent(tick=240, channel=3, data=[50, 0]),
   midi.NoteOnEvent(tick=0, channel=3, data=[50, 79]),
   midi.NoteOnEvent(tick=240, channel=3, data=[50, 0]),
   midi.NoteOnEvent(tick=0, channel=3, data=[55, 79]),
   midi.NoteOnEvent(tick=1920, channel=3, data=[55, 0]),
   midi.NoteOnEvent(tick=0, channel=3, data=[55, 79]),
   midi.NoteOnEvent(tick=1920, channel=3, data=[55, 79]),
   midi.NoteOnEvent(tick=120, channel=3, data=[55, 0]),
   midi.NoteOnEvent(tick=360, channel=3, data=[55, 0]),
   midi.NoteOnEvent(tick=24, channel=3, data=[43, 79]),
   midi.NoteOnEvent(tick=480, channel=3, data=[43, 0]),
   midi.NoteOnEvent(tick=0, channel=3, data=[43, 79]),
   midi.NoteOnEvent(tick=480, channel=3, data=[43, 0]),
   midi.ControlChangeEvent(tick=456, channel=3, data=[7, 72]),
   midi.NoteOnEvent(tick=0, channel=3, data=[43, 79]),
   midi.NoteOnEvent(tick=360, channel=3, data=[43, 0]),
   midi.ControlChangeEvent(tick=119, channel=3, data=[7, 72]),
   midi.ControlChangeEvent(tick=121, channel=3, data=[7, 100]),
   midi.NoteOnEvent(tick=3720, channel=3, data=[50, 79]),
   midi.NoteOnEvent(tick=240, channel=3, data=[50, 0]),
   midi.NoteOnEvent(tick=240, channel=3, data=[50, 79]),
   midi.NoteOnEvent(tick=480, channel=3, data=[50, 0]),
   midi.NoteOnEvent(tick=0, channel=3, data=[48, 79]),
   midi.NoteOnEvent(tick=480, channel=3, data=[48, 0]),
   midi.NoteOnEvent(tick=0, channel=3, data=[47, 79]),
   midi.NoteOnEvent(tick=480, channel=3, data=[47, 0]),
   midi.NoteOnEvent(tick=0, channel=3, data=[45, 79]),
   midi.NoteOnEvent(tick=480, channel=3, data=[45, 0]),
   midi.NoteOnEvent(tick=0, channel=3, data=[43, 79]),
   midi.NoteOnEvent(tick=480, channel=3, data=[43, 0]),
   midi.NoteOnEvent(tick=0, channel=3, data=[42, 79]),
   midi.NoteOnEvent(tick=240, channel=3, data=[42, 0]),
   midi.NoteOnEvent(tick=240, channel=3, data=[54, 79]),
   midi.NoteOnEvent(tick=480, channel=3, data=[54, 0]),
   midi.NoteOnEvent(tick=0, channel=3, data=[55, 79]),
   midi.NoteOnEvent(tick=480, channel=3, data=[55, 0]),
   midi.NoteOnEvent(tick=0, channel=3, data=[48, 79]),
   midi.NoteOnEvent(tick=240, channel=3, data=[48, 0]),
   midi.NoteOnEvent(tick=240, channel=3, data=[50, 79]),
   midi.NoteOnEvent(tick=240, channel=3, data=[50, 0]),
   midi.NoteOnEvent(tick=240, channel=3, data=[50, 79]),
   midi.NoteOnEvent(tick=240, channel=3, data=[50, 0]),
   midi.NoteOnEvent(tick=240, channel=3, data=[43, 79]),
   midi.NoteOnEvent(tick=240, channel=3, data=[43, 0]),
   midi.NoteOnEvent(tick=240, channel=3, data=[47, 79]),
   midi.NoteOnEvent(tick=240, channel=3, data=[47, 0]),
   midi.NoteOnEvent(tick=240, channel=3, data=[50, 79]),
   midi.NoteOnEvent(tick=240, channel=3, data=[50, 0]),
   midi.NoteOnEvent(tick=240, channel=3, data=[55, 79]),
   midi.NoteOnEvent(tick=480, channel=3, data=[55, 0]),
   midi.NoteOnEvent(tick=3840, channel=3, data=[50, 79]),
   midi.NoteOnEvent(tick=240, channel=3, data=[50, 0]),
   midi.NoteOnEvent(tick=240, channel=3, data=[50, 79]),
   midi.NoteOnEvent(tick=480, channel=3, data=[50, 0]),
   midi.NoteOnEvent(tick=0, channel=3, data=[48, 79]),
   midi.NoteOnEvent(tick=480, channel=3, data=[48, 0]),
   midi.NoteOnEvent(tick=0, channel=3, data=[47, 79]),
   midi.NoteOnEvent(tick=480, channel=3, data=[47, 0]),
   midi.NoteOnEvent(tick=0, channel=3, data=[45, 79]),
   midi.NoteOnEvent(tick=480, channel=3, data=[45, 0]),
   midi.NoteOnEvent(tick=0, channel=3, data=[43, 79]),
   midi.NoteOnEvent(tick=480, channel=3, data=[43, 0]),
   midi.NoteOnEvent(tick=0, channel=3, data=[42, 79]),
   midi.NoteOnEvent(tick=240, channel=3, data=[42, 0]),
   midi.NoteOnEvent(tick=240, channel=3, data=[54, 79]),
   midi.NoteOnEvent(tick=480, channel=3, data=[54, 0]),
   midi.NoteOnEvent(tick=0, channel=3, data=[55, 79]),
   midi.NoteOnEvent(tick=480, channel=3, data=[55, 0]),
   midi.NoteOnEvent(tick=0, channel=3, data=[48, 79]),
   midi.NoteOnEvent(tick=240, channel=3, data=[48, 0]),
   midi.NoteOnEvent(tick=240, channel=3, data=[50, 79]),
   midi.NoteOnEvent(tick=240, channel=3, data=[50, 0]),
   midi.NoteOnEvent(tick=240, channel=3, data=[50, 79]),
   midi.NoteOnEvent(tick=240, channel=3, data=[50, 0]),
   midi.NoteOnEvent(tick=240, channel=3, data=[43, 79]),
   midi.NoteOnEvent(tick=240, channel=3, data=[43, 0]),
   midi.NoteOnEvent(tick=240, channel=3, data=[47, 79]),
   midi.NoteOnEvent(tick=240, channel=3, data=[47, 0]),
   midi.NoteOnEvent(tick=240, channel=3, data=[50, 79]),
   midi.NoteOnEvent(tick=240, channel=3, data=[50, 0]),
   midi.ControlChangeEvent(tick=239, channel=3, data=[7, 100]),
   midi.NoteOnEvent(tick=1, channel=3, data=[55, 79]),
   midi.ControlChangeEvent(tick=48, channel=3, data=[7, 108]),
   midi.NoteOnEvent(tick=432, channel=3, data=[55, 0]),
   midi.NoteOnEvent(tick=0, channel=3, data=[54, 79]),
   midi.ControlChangeEvent(tick=96, channel=3, data=[7, 81]),
   midi.NoteOnEvent(tick=384, channel=3, data=[54, 0]),
   midi.NoteOnEvent(tick=0, channel=3, data=[54, 79]),
   midi.ControlChangeEvent(tick=143, channel=3, data=[7, 54]),
   midi.NoteOnEvent(tick=97, channel=3, data=[54, 0]),
   midi.ControlChangeEvent(tick=192, channel=3, data=[7, 104]),
   midi.NoteOnEvent(tick=48, channel=3, data=[52, 79]),
   midi.NoteOnEvent(tick=480, channel=3, data=[52, 0]),
   midi.NoteOnEvent(tick=0, channel=3, data=[50, 79]),
   midi.ControlChangeEvent(tick=72, channel=3, data=[7, 81]),
   midi.NoteOnEvent(tick=408, channel=3, data=[50, 0]),
   midi.NoteOnEvent(tick=0, channel=3, data=[50, 79]),
   midi.ControlChangeEvent(tick=191, channel=3, data=[7, 58]),
   midi.NoteOnEvent(tick=49, channel=3, data=[50, 0]),
   midi.ControlChangeEvent(tick=192, channel=3, data=[7, 108]),
   midi.NoteOnEvent(tick=48, channel=3, data=[43, 79]),
   midi.ControlChangeEvent(tick=648, channel=3, data=[7, 84]),
   midi.ControlChangeEvent(tick=695, channel=3, data=[7, 60]),
   midi.ControlChangeEvent(tick=1, channel=3, data=[7, 82]),
   midi.NoteOnEvent(tick=96, channel=3, data=[43, 0]),
   midi.NoteOnEvent(tick=0, channel=3, data=[45, 79]),
   midi.ControlChangeEvent(tick=95, channel=3, data=[7, 82]),
   midi.ControlChangeEvent(tick=49, channel=3, data=[7, 64]),
   midi.NoteOnEvent(tick=96, channel=3, data=[45, 0]),
   midi.NoteOnEvent(tick=240, channel=3, data=[57, 79]),
   midi.NoteOnEvent(tick=480, channel=3, data=[57, 0]),
   midi.NoteOnEvent(tick=0, channel=3, data=[55, 79]),
   midi.NoteOnEvent(tick=480, channel=3, data=[55, 0]),
   midi.NoteOnEvent(tick=0, channel=3, data=[54, 79]),
   midi.NoteOnEvent(tick=480, channel=3, data=[54, 0]),
   midi.NoteOnEvent(tick=0, channel=3, data=[52, 79]),
   midi.NoteOnEvent(tick=480, channel=3, data=[52, 0]),
   midi.NoteOnEvent(tick=0, channel=3, data=[50, 79]),
   midi.NoteOnEvent(tick=480, channel=3, data=[50, 0]),
   midi.NoteOnEvent(tick=0, channel=3, data=[59, 79]),
   midi.NoteOnEvent(tick=480, channel=3, data=[59, 0]),
   midi.NoteOnEvent(tick=0, channel=3, data=[57, 79]),
   midi.NoteOnEvent(tick=480, channel=3, data=[57, 0]),
   midi.NoteOnEvent(tick=0, channel=3, data=[55, 79]),
   midi.NoteOnEvent(tick=480, channel=3, data=[55, 0]),
   midi.NoteOnEvent(tick=0, channel=3, data=[54, 79]),
   midi.NoteOnEvent(tick=240, channel=3, data=[54, 0]),
   midi.NoteOnEvent(tick=240, channel=3, data=[55, 79]),
   midi.NoteOnEvent(tick=240, channel=3, data=[55, 0]),
   midi.NoteOnEvent(tick=240, channel=3, data=[57, 79]),
   midi.NoteOnEvent(tick=240, channel=3, data=[57, 0]),
   midi.NoteOnEvent(tick=240, channel=3, data=[50, 79]),
   midi.NoteOnEvent(tick=240, channel=3, data=[50, 0]),
   midi.ControlChangeEvent(tick=624, channel=3, data=[7, 63]),
   midi.ControlChangeEvent(tick=6336, channel=3, data=[7, 100]),
   midi.NoteOnEvent(tick=4320, channel=3, data=[50, 79]),
   midi.NoteOnEvent(tick=240, channel=3, data=[50, 0]),
   midi.NoteOnEvent(tick=240, channel=3, data=[50, 79]),
   midi.NoteOnEvent(tick=480, channel=3, data=[50, 0]),
   midi.NoteOnEvent(tick=0, channel=3, data=[48, 79]),
   midi.NoteOnEvent(tick=480, channel=3, data=[48, 0]),
   midi.NoteOnEvent(tick=0, channel=3, data=[47, 79]),
   midi.NoteOnEvent(tick=480, channel=3, data=[47, 0]),
   midi.NoteOnEvent(tick=0, channel=3, data=[45, 79]),
   midi.NoteOnEvent(tick=480, channel=3, data=[45, 0]),
   midi.NoteOnEvent(tick=0, channel=3, data=[43, 79]),
   midi.NoteOnEvent(tick=480, channel=3, data=[43, 0]),
   midi.NoteOnEvent(tick=0, channel=3, data=[42, 79]),
   midi.NoteOnEvent(tick=240, channel=3, data=[42, 0]),
   midi.NoteOnEvent(tick=240, channel=3, data=[54, 79]),
   midi.NoteOnEvent(tick=480, channel=3, data=[54, 0]),
   midi.NoteOnEvent(tick=0, channel=3, data=[55, 79]),
   midi.NoteOnEvent(tick=480, channel=3, data=[55, 0]),
   midi.NoteOnEvent(tick=0, channel=3, data=[48, 79]),
   midi.NoteOnEvent(tick=240, channel=3, data=[48, 0]),
   midi.NoteOnEvent(tick=240, channel=3, data=[50, 79]),
   midi.NoteOnEvent(tick=240, channel=3, data=[50, 0]),
   midi.NoteOnEvent(tick=240, channel=3, data=[50, 79]),
   midi.NoteOnEvent(tick=240, channel=3, data=[50, 0]),
   midi.NoteOnEvent(tick=240, channel=3, data=[43, 79]),
   midi.NoteOnEvent(tick=240, channel=3, data=[43, 0]),
   midi.NoteOnEvent(tick=240, channel=3, data=[47, 79]),
   midi.NoteOnEvent(tick=240, channel=3, data=[47, 0]),
   midi.NoteOnEvent(tick=240, channel=3, data=[50, 79]),
   midi.NoteOnEvent(tick=240, channel=3, data=[50, 0]),
   midi.ControlChangeEvent(tick=240, channel=3, data=[7, 106]),
   midi.NoteOnEvent(tick=480, channel=3, data=[54, 36]),
   midi.ControlChangeEvent(tick=216, channel=3, data=[7, 79]),
   midi.NoteOnEvent(tick=264, channel=3, data=[54, 0]),
   midi.NoteOnEvent(tick=0, channel=3, data=[54, 36]),
   midi.ControlChangeEvent(tick=431, channel=3, data=[7, 52]),
   midi.NoteOnEvent(tick=49, channel=3, data=[54, 0]),
   midi.NoteOnEvent(tick=0, channel=3, data=[52, 36]),
   midi.ControlChangeEvent(tick=48, channel=3, data=[7, 106]),
   midi.NoteOnEvent(tick=432, channel=3, data=[52, 0]),
   midi.NoteOnEvent(tick=0, channel=3, data=[50, 36]),
   midi.ControlChangeEvent(tick=216, channel=3, data=[7, 80]),
   midi.NoteOnEvent(tick=264, channel=3, data=[50, 0]),
   midi.NoteOnEvent(tick=0, channel=3, data=[50, 36]),
   midi.ControlChangeEvent(tick=383, channel=3, data=[7, 54]),
   midi.NoteOnEvent(tick=97, channel=3, data=[50, 0]),
   midi.NoteOnEvent(tick=0, channel=3, data=[43, 36]),
   midi.ControlChangeEvent(tick=0, channel=3, data=[7, 106]),
   midi.ControlChangeEvent(tick=544, channel=3, data=[7, 89]),
   midi.ControlChangeEvent(tick=544, channel=3, data=[7, 72]),
   midi.NoteOnEvent(tick=352, channel=3, data=[43, 0]),
   midi.NoteOnEvent(tick=0, channel=3, data=[45, 36]),
   midi.ControlChangeEvent(tick=191, channel=3, data=[7, 56]),
   midi.ControlChangeEvent(tick=49, channel=3, data=[7, 64]),
   midi.NoteOnEvent(tick=240, channel=3, data=[45, 0]),
   midi.NoteOnEvent(tick=0, channel=3, data=[57, 36]),
   midi.NoteOnEvent(tick=480, channel=3, data=[57, 0]),
   midi.NoteOnEvent(tick=0, channel=3, data=[55, 36]),
   midi.NoteOnEvent(tick=480, channel=3, data=[55, 0]),
   midi.NoteOnEvent(tick=0, channel=3, data=[54, 36]),
   midi.NoteOnEvent(tick=480, channel=3, data=[54, 0]),
   midi.NoteOnEvent(tick=0, channel=3, data=[52, 36]),
   midi.NoteOnEvent(tick=480, channel=3, data=[52, 0]),
   midi.NoteOnEvent(tick=0, channel=3, data=[50, 36]),
   midi.NoteOnEvent(tick=480, channel=3, data=[50, 0]),
   midi.NoteOnEvent(tick=0, channel=3, data=[59, 36]),
   midi.NoteOnEvent(tick=480, channel=3, data=[59, 0]),
   midi.NoteOnEvent(tick=0, channel=3, data=[57, 36]),
   midi.NoteOnEvent(tick=480, channel=3, data=[57, 0]),
   midi.NoteOnEvent(tick=0, channel=3, data=[55, 36]),
   midi.NoteOnEvent(tick=480, channel=3, data=[55, 0]),
   midi.NoteOnEvent(tick=0, channel=3, data=[54, 36]),
   midi.NoteOnEvent(tick=480, channel=3, data=[54, 0]),
   midi.NoteOnEvent(tick=0, channel=3, data=[55, 36]),
   midi.NoteOnEvent(tick=480, channel=3, data=[55, 0]),
   midi.NoteOnEvent(tick=0, channel=3, data=[57, 36]),
   midi.NoteOnEvent(tick=480, channel=3, data=[57, 0]),
   midi.NoteOnEvent(tick=0, channel=3, data=[50, 36]),
   midi.NoteOnEvent(tick=480, channel=3, data=[50, 0]),
   midi.ControlChangeEvent(tick=6767, channel=3, data=[7, 64]),
   midi.ControlChangeEvent(tick=49, channel=3, data=[7, 98]),
   midi.NoteOnEvent(tick=4224, channel=3, data=[50, 79]),
   midi.NoteOnEvent(tick=480, channel=3, data=[50, 0]),
   midi.NoteOnEvent(tick=0, channel=3, data=[50, 79]),
   midi.NoteOnEvent(tick=480, channel=3, data=[50, 0]),
   midi.NoteOnEvent(tick=0, channel=3, data=[48, 79]),
   midi.NoteOnEvent(tick=480, channel=3, data=[48, 0]),
   midi.NoteOnEvent(tick=0, channel=3, data=[47, 79]),
   midi.ControlChangeEvent(tick=48, channel=3, data=[7, 98]),
   midi.NoteOnEvent(tick=432, channel=3, data=[47, 0]),
   midi.NoteOnEvent(tick=0, channel=3, data=[45, 79]),
   midi.NoteOnEvent(tick=480, channel=3, data=[45, 0]),
   midi.NoteOnEvent(tick=0, channel=3, data=[43, 79]),
   midi.NoteOnEvent(tick=480, channel=3, data=[43, 0]),
   midi.NoteOnEvent(tick=0, channel=3, data=[42, 79]),
   midi.NoteOnEvent(tick=480, channel=3, data=[42, 0]),
   midi.NoteOnEvent(tick=0, channel=3, data=[54, 79]),
   midi.NoteOnEvent(tick=480, channel=3, data=[54, 0]),
   midi.NoteOnEvent(tick=0, channel=3, data=[55, 79]),
   midi.NoteOnEvent(tick=480, channel=3, data=[55, 0]),
   midi.NoteOnEvent(tick=0, channel=3, data=[48, 79]),
   midi.NoteOnEvent(tick=480, channel=3, data=[48, 0]),
   midi.NoteOnEvent(tick=0, channel=3, data=[50, 79]),
   midi.NoteOnEvent(tick=480, channel=3, data=[50, 0]),
   midi.NoteOnEvent(tick=0, channel=3, data=[50, 79]),
   midi.NoteOnEvent(tick=480, channel=3, data=[50, 0]),
   midi.NoteOnEvent(tick=0, channel=3, data=[43, 79]),
   midi.NoteOnEvent(tick=480, channel=3, data=[43, 0]),
   midi.NoteOnEvent(tick=0, channel=3, data=[47, 79]),
   midi.NoteOnEvent(tick=480, channel=3, data=[47, 0]),
   midi.NoteOnEvent(tick=0, channel=3, data=[50, 79]),
   midi.ControlChangeEvent(tick=479, channel=3, data=[7, 60]),
   midi.NoteOnEvent(tick=1, channel=3, data=[50, 0]),
   midi.NoteOnEvent(tick=0, channel=3, data=[60, 36]),
   midi.NoteOnEvent(tick=480, channel=3, data=[60, 0]),
   midi.NoteOnEvent(tick=0, channel=3, data=[60, 36]),
   midi.NoteOnEvent(tick=480, channel=3, data=[60, 0]),
   midi.NoteOnEvent(tick=0, channel=3, data=[60, 36]),
   midi.NoteOnEvent(tick=480, channel=3, data=[60, 0]),
   midi.NoteOnEvent(tick=0, channel=3, data=[59, 36]),
   midi.NoteOnEvent(tick=480, channel=3, data=[59, 0]),
   midi.NoteOnEvent(tick=0, channel=3, data=[59, 36]),
   midi.NoteOnEvent(tick=480, channel=3, data=[59, 0]),
   midi.NoteOnEvent(tick=0, channel=3, data=[59, 36]),
   midi.NoteOnEvent(tick=480, channel=3, data=[59, 0]),
   midi.NoteOnEvent(tick=0, channel=3, data=[57, 36]),
   midi.NoteOnEvent(tick=480, channel=3, data=[57, 0]),
   midi.NoteOnEvent(tick=0, channel=3, data=[57, 36]),
   midi.NoteOnEvent(tick=480, channel=3, data=[57, 0]),
   midi.NoteOnEvent(tick=0, channel=3, data=[57, 36]),
   midi.NoteOnEvent(tick=480, channel=3, data=[57, 0]),
   midi.NoteOnEvent(tick=0, channel=3, data=[55, 36]),
   midi.NoteOnEvent(tick=480, channel=3, data=[55, 0]),
   midi.NoteOnEvent(tick=0, channel=3, data=[55, 36]),
   midi.NoteOnEvent(tick=480, channel=3, data=[55, 0]),
   midi.NoteOnEvent(tick=0, channel=3, data=[55, 36]),
   midi.NoteOnEvent(tick=480, channel=3, data=[55, 0]),
   midi.NoteOnEvent(tick=0, channel=3, data=[53, 36]),
   midi.NoteOnEvent(tick=480, channel=3, data=[53, 0]),
   midi.NoteOnEvent(tick=0, channel=3, data=[53, 36]),
   midi.NoteOnEvent(tick=480, channel=3, data=[53, 0]),
   midi.NoteOnEvent(tick=0, channel=3, data=[53, 36]),
   midi.NoteOnEvent(tick=480, channel=3, data=[53, 0]),
   midi.NoteOnEvent(tick=0, channel=3, data=[52, 36]),
   midi.NoteOnEvent(tick=480, channel=3, data=[52, 0]),
   midi.NoteOnEvent(tick=0, channel=3, data=[52, 36]),
   midi.NoteOnEvent(tick=480, channel=3, data=[52, 0]),
   midi.NoteOnEvent(tick=0, channel=3, data=[52, 36]),
   midi.NoteOnEvent(tick=480, channel=3, data=[52, 0]),
   midi.NoteOnEvent(tick=0, channel=3, data=[53, 36]),
   midi.NoteOnEvent(tick=480, channel=3, data=[53, 0]),
   midi.NoteOnEvent(tick=0, channel=3, data=[50, 36]),
   midi.NoteOnEvent(tick=480, channel=3, data=[50, 0]),
   midi.NoteOnEvent(tick=0, channel=3, data=[55, 36]),
   midi.NoteOnEvent(tick=480, channel=3, data=[55, 0]),
   midi.NoteOnEvent(tick=0, channel=3, data=[48, 36]),
   midi.NoteOnEvent(tick=480, channel=3, data=[48, 0]),
   midi.NoteOnEvent(tick=0, channel=3, data=[43, 36]),
   midi.NoteOnEvent(tick=480, channel=3, data=[43, 0]),
   midi.NoteOnEvent(tick=0, channel=3, data=[36, 36]),
   midi.NoteOnEvent(tick=480, channel=3, data=[36, 0]),
   midi.NoteOnEvent(tick=0, channel=3, data=[60, 36]),
   midi.NoteOnEvent(tick=480, channel=3, data=[60, 0]),
   midi.NoteOnEvent(tick=0, channel=3, data=[60, 36]),
   midi.NoteOnEvent(tick=480, channel=3, data=[60, 0]),
   midi.NoteOnEvent(tick=0, channel=3, data=[60, 36]),
   midi.NoteOnEvent(tick=480, channel=3, data=[60, 0]),
   midi.NoteOnEvent(tick=0, channel=3, data=[59, 36]),
   midi.NoteOnEvent(tick=480, channel=3, data=[59, 0]),
   midi.NoteOnEvent(tick=0, channel=3, data=[59, 36]),
   midi.NoteOnEvent(tick=480, channel=3, data=[59, 0]),
   midi.NoteOnEvent(tick=0, channel=3, data=[59, 36]),
   midi.NoteOnEvent(tick=480, channel=3, data=[59, 0]),
   midi.NoteOnEvent(tick=0, channel=3, data=[57, 36]),
   midi.NoteOnEvent(tick=480, channel=3, data=[57, 0]),
   midi.NoteOnEvent(tick=0, channel=3, data=[57, 36]),
   midi.NoteOnEvent(tick=480, channel=3, data=[57, 0]),
   midi.NoteOnEvent(tick=0, channel=3, data=[57, 36]),
   midi.NoteOnEvent(tick=480, channel=3, data=[57, 0]),
   midi.NoteOnEvent(tick=0, channel=3, data=[55, 36]),
   midi.NoteOnEvent(tick=480, channel=3, data=[55, 0]),
   midi.NoteOnEvent(tick=0, channel=3, data=[55, 36]),
   midi.NoteOnEvent(tick=480, channel=3, data=[55, 0]),
   midi.NoteOnEvent(tick=0, channel=3, data=[55, 36]),
   midi.NoteOnEvent(tick=480, channel=3, data=[55, 0]),
   midi.NoteOnEvent(tick=0, channel=3, data=[53, 36]),
   midi.NoteOnEvent(tick=480, channel=3, data=[53, 0]),
   midi.NoteOnEvent(tick=0, channel=3, data=[53, 36]),
   midi.NoteOnEvent(tick=480, channel=3, data=[53, 0]),
   midi.NoteOnEvent(tick=0, channel=3, data=[53, 36]),
   midi.NoteOnEvent(tick=480, channel=3, data=[53, 0]),
   midi.NoteOnEvent(tick=0, channel=3, data=[52, 36]),
   midi.NoteOnEvent(tick=480, channel=3, data=[52, 0]),
   midi.NoteOnEvent(tick=0, channel=3, data=[52, 36]),
   midi.NoteOnEvent(tick=480, channel=3, data=[52, 0]),
   midi.NoteOnEvent(tick=0, channel=3, data=[52, 36]),
   midi.NoteOnEvent(tick=480, channel=3, data=[52, 0]),
   midi.NoteOnEvent(tick=0, channel=3, data=[53, 36]),
   midi.NoteOnEvent(tick=480, channel=3, data=[53, 0]),
   midi.NoteOnEvent(tick=0, channel=3, data=[50, 36]),
   midi.NoteOnEvent(tick=480, channel=3, data=[50, 0]),
   midi.NoteOnEvent(tick=0, channel=3, data=[55, 36]),
   midi.NoteOnEvent(tick=480, channel=3, data=[55, 0]),
   midi.NoteOnEvent(tick=0, channel=3, data=[48, 36]),
   midi.NoteOnEvent(tick=480, channel=3, data=[48, 0]),
   midi.NoteOnEvent(tick=0, channel=3, data=[43, 36]),
   midi.NoteOnEvent(tick=480, channel=3, data=[43, 0]),
   midi.NoteOnEvent(tick=0, channel=3, data=[36, 36]),
   midi.NoteOnEvent(tick=480, channel=3, data=[36, 0]),
   midi.ControlChangeEvent(tick=1440, channel=3, data=[7, 106]),
   midi.ControlChangeEvent(tick=1440, channel=3, data=[7, 60]),
   midi.NoteOnEvent(tick=2880, channel=3, data=[43, 79]),
   midi.ControlChangeEvent(tick=0, channel=3, data=[7, 106]),
   midi.NoteOnEvent(tick=480, channel=3, data=[43, 0]),
   midi.NoteOnEvent(tick=960, channel=3, data=[43, 79]),
   midi.NoteOnEvent(tick=480, channel=3, data=[43, 0]),
   midi.NoteOnEvent(tick=0, channel=3, data=[55, 79]),
   midi.NoteOnEvent(tick=480, channel=3, data=[55, 0]),
   midi.NoteOnEvent(tick=0, channel=3, data=[48, 79]),
   midi.NoteOnEvent(tick=480, channel=3, data=[48, 0]),
   midi.NoteOnEvent(tick=0, channel=3, data=[55, 79]),
   midi.NoteOnEvent(tick=480, channel=3, data=[55, 0]),
   midi.NoteOnEvent(tick=0, channel=3, data=[48, 79]),
   midi.NoteOnEvent(tick=480, channel=3, data=[48, 0]),
   midi.NoteOnEvent(tick=0, channel=3, data=[50, 79]),
   midi.NoteOnEvent(tick=480, channel=3, data=[50, 0]),
   midi.NoteOnEvent(tick=0, channel=3, data=[43, 79]),
   midi.NoteOnEvent(tick=480, channel=3, data=[43, 0]),
   midi.NoteOnEvent(tick=0, channel=3, data=[43, 79]),
   midi.NoteOnEvent(tick=480, channel=3, data=[43, 0]),
   midi.NoteOnEvent(tick=0, channel=3, data=[60, 79]),
   midi.NoteOnEvent(tick=60, channel=3, data=[60, 0]),
   midi.NoteOnEvent(tick=0, channel=3, data=[59, 79]),
   midi.NoteOnEvent(tick=60, channel=3, data=[59, 0]),
   midi.NoteOnEvent(tick=0, channel=3, data=[60, 79]),
   midi.NoteOnEvent(tick=60, channel=3, data=[60, 0]),
   midi.NoteOnEvent(tick=0, channel=3, data=[59, 79]),
   midi.NoteOnEvent(tick=60, channel=3, data=[59, 0]),
   midi.NoteOnEvent(tick=0, channel=3, data=[60, 79]),
   midi.NoteOnEvent(tick=60, channel=3, data=[60, 0]),
   midi.NoteOnEvent(tick=0, channel=3, data=[59, 79]),
   midi.NoteOnEvent(tick=60, channel=3, data=[59, 0]),
   midi.NoteOnEvent(tick=0, channel=3, data=[59, 79]),
   midi.NoteOnEvent(tick=40, channel=3, data=[59, 0]),
   midi.NoteOnEvent(tick=0, channel=3, data=[57, 79]),
   midi.NoteOnEvent(tick=40, channel=3, data=[57, 0]),
   midi.NoteOnEvent(tick=0, channel=3, data=[59, 79]),
   midi.NoteOnEvent(tick=40, channel=3, data=[59, 0]),
   midi.ControlChangeEvent(tick=0, channel=3, data=[7, 62]),
   midi.NoteOnEvent(tick=0, channel=3, data=[60, 36]),
   midi.NoteOnEvent(tick=480, channel=3, data=[60, 0]),
   midi.NoteOnEvent(tick=0, channel=3, data=[60, 36]),
   midi.NoteOnEvent(tick=480, channel=3, data=[60, 0]),
   midi.NoteOnEvent(tick=0, channel=3, data=[60, 36]),
   midi.NoteOnEvent(tick=480, channel=3, data=[60, 0]),
   midi.NoteOnEvent(tick=0, channel=3, data=[59, 36]),
   midi.NoteOnEvent(tick=480, channel=3, data=[59, 0]),
   midi.NoteOnEvent(tick=0, channel=3, data=[59, 36]),
   midi.NoteOnEvent(tick=480, channel=3, data=[59, 0]),
   midi.NoteOnEvent(tick=0, channel=3, data=[59, 36]),
   midi.NoteOnEvent(tick=480, channel=3, data=[59, 0]),
   midi.NoteOnEvent(tick=0, channel=3, data=[57, 36]),
   midi.NoteOnEvent(tick=480, channel=3, data=[57, 0]),
   midi.NoteOnEvent(tick=0, channel=3, data=[57, 36]),
   midi.NoteOnEvent(tick=480, channel=3, data=[57, 0]),
   midi.NoteOnEvent(tick=0, channel=3, data=[57, 36]),
   midi.NoteOnEvent(tick=480, channel=3, data=[57, 0]),
   midi.NoteOnEvent(tick=0, channel=3, data=[55, 36]),
   midi.NoteOnEvent(tick=480, channel=3, data=[55, 0]),
   midi.NoteOnEvent(tick=0, channel=3, data=[55, 36]),
   midi.NoteOnEvent(tick=480, channel=3, data=[55, 0]),
   midi.NoteOnEvent(tick=0, channel=3, data=[55, 36]),
   midi.NoteOnEvent(tick=480, channel=3, data=[55, 0]),
   midi.NoteOnEvent(tick=0, channel=3, data=[53, 36]),
   midi.NoteOnEvent(tick=480, channel=3, data=[53, 0]),
   midi.NoteOnEvent(tick=0, channel=3, data=[53, 36]),
   midi.NoteOnEvent(tick=480, channel=3, data=[53, 0]),
   midi.NoteOnEvent(tick=0, channel=3, data=[53, 36]),
   midi.NoteOnEvent(tick=480, channel=3, data=[53, 0]),
   midi.NoteOnEvent(tick=0, channel=3, data=[52, 36]),
   midi.NoteOnEvent(tick=480, channel=3, data=[52, 0]),
   midi.NoteOnEvent(tick=0, channel=3, data=[52, 36]),
   midi.NoteOnEvent(tick=480, channel=3, data=[52, 0]),
   midi.NoteOnEvent(tick=0, channel=3, data=[52, 36]),
   midi.NoteOnEvent(tick=480, channel=3, data=[52, 0]),
   midi.NoteOnEvent(tick=0, channel=3, data=[53, 36]),
   midi.NoteOnEvent(tick=480, channel=3, data=[53, 0]),
   midi.NoteOnEvent(tick=0, channel=3, data=[50, 36]),
   midi.NoteOnEvent(tick=480, channel=3, data=[50, 0]),
   midi.NoteOnEvent(tick=0, channel=3, data=[55, 36]),
   midi.NoteOnEvent(tick=480, channel=3, data=[55, 0]),
   midi.NoteOnEvent(tick=0, channel=3, data=[48, 36]),
   midi.NoteOnEvent(tick=480, channel=3, data=[48, 0]),
   midi.NoteOnEvent(tick=0, channel=3, data=[36, 36]),
   midi.NoteOnEvent(tick=480, channel=3, data=[36, 0]),
   midi.ControlChangeEvent(tick=1872, channel=3, data=[7, 96]),
   midi.ControlChangeEvent(tick=192, channel=3, data=[7, 100]),
   midi.ControlChangeEvent(tick=1296, channel=3, data=[7, 64]),
   midi.NoteOnEvent(tick=2880, channel=3, data=[43, 79]),
   midi.ControlChangeEvent(tick=0, channel=3, data=[7, 100]),
   midi.NoteOnEvent(tick=480, channel=3, data=[43, 0]),
   midi.NoteOnEvent(tick=960, channel=3, data=[43, 79]),
   midi.NoteOnEvent(tick=480, channel=3, data=[43, 0]),
   midi.NoteOnEvent(tick=0, channel=3, data=[55, 79]),
   midi.NoteOnEvent(tick=480, channel=3, data=[55, 0]),
   midi.NoteOnEvent(tick=0, channel=3, data=[48, 79]),
   midi.NoteOnEvent(tick=480, channel=3, data=[48, 0]),
   midi.NoteOnEvent(tick=0, channel=3, data=[55, 79]),
   midi.NoteOnEvent(tick=480, channel=3, data=[55, 0]),
   midi.NoteOnEvent(tick=0, channel=3, data=[48, 79]),
   midi.NoteOnEvent(tick=480, channel=3, data=[48, 0]),
   midi.NoteOnEvent(tick=0, channel=3, data=[50, 79]),
   midi.NoteOnEvent(tick=480, channel=3, data=[50, 0]),
   midi.NoteOnEvent(tick=0, channel=3, data=[43, 79]),
   midi.NoteOnEvent(tick=480, channel=3, data=[43, 0]),
   midi.NoteOnEvent(tick=0, channel=3, data=[43, 79]),
   midi.NoteOnEvent(tick=480, channel=3, data=[43, 0]),
   midi.NoteOnEvent(tick=0, channel=3, data=[60, 79]),
   midi.NoteOnEvent(tick=60, channel=3, data=[60, 0]),
   midi.NoteOnEvent(tick=0, channel=3, data=[59, 79]),
   midi.NoteOnEvent(tick=60, channel=3, data=[59, 0]),
   midi.NoteOnEvent(tick=0, channel=3, data=[60, 79]),
   midi.NoteOnEvent(tick=60, channel=3, data=[60, 0]),
   midi.NoteOnEvent(tick=0, channel=3, data=[59, 79]),
   midi.NoteOnEvent(tick=60, channel=3, data=[59, 0]),
   midi.NoteOnEvent(tick=0, channel=3, data=[60, 79]),
   midi.NoteOnEvent(tick=60, channel=3, data=[60, 0]),
   midi.NoteOnEvent(tick=0, channel=3, data=[59, 79]),
   midi.NoteOnEvent(tick=60, channel=3, data=[59, 0]),
   midi.NoteOnEvent(tick=0, channel=3, data=[59, 79]),
   midi.NoteOnEvent(tick=40, channel=3, data=[59, 0]),
   midi.NoteOnEvent(tick=0, channel=3, data=[57, 79]),
   midi.NoteOnEvent(tick=40, channel=3, data=[57, 0]),
   midi.NoteOnEvent(tick=0, channel=3, data=[59, 79]),
   midi.NoteOnEvent(tick=40, channel=3, data=[59, 0]),
   midi.ControlChangeEvent(tick=0, channel=3, data=[7, 62]),
   midi.NoteOnEvent(tick=0, channel=3, data=[60, 36]),
   midi.NoteOnEvent(tick=480, channel=3, data=[60, 0]),
   midi.NoteOnEvent(tick=0, channel=3, data=[60, 36]),
   midi.NoteOnEvent(tick=480, channel=3, data=[60, 0]),
   midi.NoteOnEvent(tick=0, channel=3, data=[60, 36]),
   midi.NoteOnEvent(tick=480, channel=3, data=[60, 0]),
   midi.NoteOnEvent(tick=0, channel=3, data=[59, 36]),
   midi.NoteOnEvent(tick=480, channel=3, data=[59, 0]),
   midi.NoteOnEvent(tick=0, channel=3, data=[59, 36]),
   midi.NoteOnEvent(tick=480, channel=3, data=[59, 0]),
   midi.NoteOnEvent(tick=0, channel=3, data=[59, 36]),
   midi.NoteOnEvent(tick=480, channel=3, data=[59, 0]),
   midi.NoteOnEvent(tick=0, channel=3, data=[57, 36]),
   midi.NoteOnEvent(tick=480, channel=3, data=[57, 0]),
   midi.NoteOnEvent(tick=0, channel=3, data=[57, 36]),
   midi.NoteOnEvent(tick=480, channel=3, data=[57, 0]),
   midi.NoteOnEvent(tick=0, channel=3, data=[57, 36]),
   midi.NoteOnEvent(tick=480, channel=3, data=[57, 0]),
   midi.NoteOnEvent(tick=0, channel=3, data=[55, 36]),
   midi.NoteOnEvent(tick=480, channel=3, data=[55, 0]),
   midi.NoteOnEvent(tick=0, channel=3, data=[55, 36]),
   midi.NoteOnEvent(tick=480, channel=3, data=[55, 0]),
   midi.NoteOnEvent(tick=0, channel=3, data=[55, 36]),
   midi.NoteOnEvent(tick=480, channel=3, data=[55, 0]),
   midi.NoteOnEvent(tick=0, channel=3, data=[53, 36]),
   midi.NoteOnEvent(tick=480, channel=3, data=[53, 0]),
   midi.NoteOnEvent(tick=0, channel=3, data=[53, 36]),
   midi.NoteOnEvent(tick=480, channel=3, data=[53, 0]),
   midi.NoteOnEvent(tick=0, channel=3, data=[53, 36]),
   midi.NoteOnEvent(tick=480, channel=3, data=[53, 0]),
   midi.NoteOnEvent(tick=0, channel=3, data=[52, 36]),
   midi.NoteOnEvent(tick=480, channel=3, data=[52, 0]),
   midi.NoteOnEvent(tick=0, channel=3, data=[52, 36]),
   midi.NoteOnEvent(tick=480, channel=3, data=[52, 0]),
   midi.NoteOnEvent(tick=0, channel=3, data=[52, 36]),
   midi.NoteOnEvent(tick=480, channel=3, data=[52, 0]),
   midi.NoteOnEvent(tick=0, channel=3, data=[53, 36]),
   midi.NoteOnEvent(tick=480, channel=3, data=[53, 0]),
   midi.NoteOnEvent(tick=0, channel=3, data=[50, 36]),
   midi.NoteOnEvent(tick=480, channel=3, data=[50, 0]),
   midi.NoteOnEvent(tick=0, channel=3, data=[55, 36]),
   midi.NoteOnEvent(tick=480, channel=3, data=[55, 0]),
   midi.NoteOnEvent(tick=0, channel=3, data=[48, 36]),
   midi.NoteOnEvent(tick=480, channel=3, data=[48, 0]),
   midi.NoteOnEvent(tick=0, channel=3, data=[36, 36]),
   midi.NoteOnEvent(tick=480, channel=3, data=[36, 0]),
   midi.ControlChangeEvent(tick=432, channel=3, data=[7, 102]),
   midi.NoteOnEvent(tick=48, channel=3, data=[55, 36]),
   midi.NoteOnEvent(tick=480, channel=3, data=[55, 0]),
   midi.NoteOnEvent(tick=3840, channel=3, data=[50, 36]),
   midi.NoteOnEvent(tick=480, channel=3, data=[50, 0]),
   midi.NoteOnEvent(tick=0, channel=3, data=[50, 36]),
   midi.NoteOnEvent(tick=480, channel=3, data=[50, 0]),
   midi.NoteOnEvent(tick=0, channel=3, data=[48, 36]),
   midi.NoteOnEvent(tick=480, channel=3, data=[48, 0]),
   midi.NoteOnEvent(tick=0, channel=3, data=[47, 36]),
   midi.NoteOnEvent(tick=480, channel=3, data=[47, 0]),
   midi.NoteOnEvent(tick=0, channel=3, data=[45, 36]),
   midi.NoteOnEvent(tick=480, channel=3, data=[45, 0]),
   midi.NoteOnEvent(tick=0, channel=3, data=[43, 36]),
   midi.NoteOnEvent(tick=480, channel=3, data=[43, 0]),
   midi.NoteOnEvent(tick=0, channel=3, data=[42, 36]),
   midi.NoteOnEvent(tick=480, channel=3, data=[42, 0]),
   midi.NoteOnEvent(tick=0, channel=3, data=[54, 36]),
   midi.NoteOnEvent(tick=480, channel=3, data=[54, 0]),
   midi.NoteOnEvent(tick=0, channel=3, data=[55, 36]),
   midi.NoteOnEvent(tick=480, channel=3, data=[55, 0]),
   midi.NoteOnEvent(tick=0, channel=3, data=[48, 36]),
   midi.NoteOnEvent(tick=480, channel=3, data=[48, 0]),
   midi.NoteOnEvent(tick=0, channel=3, data=[50, 36]),
   midi.NoteOnEvent(tick=480, channel=3, data=[50, 0]),
   midi.NoteOnEvent(tick=0, channel=3, data=[50, 36]),
   midi.NoteOnEvent(tick=480, channel=3, data=[50, 0]),
   midi.NoteOnEvent(tick=0, channel=3, data=[43, 36]),
   midi.NoteOnEvent(tick=480, channel=3, data=[43, 0]),
   midi.NoteOnEvent(tick=0, channel=3, data=[47, 36]),
   midi.NoteOnEvent(tick=480, channel=3, data=[47, 0]),
   midi.NoteOnEvent(tick=0, channel=3, data=[50, 36]),
   midi.NoteOnEvent(tick=480, channel=3, data=[50, 0]),
   midi.NoteOnEvent(tick=0, channel=3, data=[55, 36]),
   midi.ControlChangeEvent(tick=48, channel=3, data=[7, 114]),
   midi.ControlChangeEvent(tick=48, channel=3, data=[7, 110]),
   midi.ControlChangeEvent(tick=96, channel=3, data=[7, 88]),
   midi.NoteOnEvent(tick=288, channel=3, data=[55, 0]),
   midi.NoteOnEvent(tick=0, channel=3, data=[54, 36]),
   midi.ControlChangeEvent(tick=0, channel=3, data=[7, 68]),
   midi.ControlChangeEvent(tick=95, channel=3, data=[7, 68]),
   midi.ControlChangeEvent(tick=1, channel=3, data=[7, 64]),
   midi.NoteOnEvent(tick=384, channel=3, data=[54, 0]),
   midi.NoteOnEvent(tick=0, channel=3, data=[54, 36]),
   midi.ControlChangeEvent(tick=143, channel=3, data=[7, 64]),
   midi.ControlChangeEvent(tick=1, channel=3, data=[7, 56]),
   midi.ControlChangeEvent(tick=335, channel=3, data=[7, 56]),
   midi.NoteOnEvent(tick=1, channel=3, data=[54, 0]),
   midi.NoteOnEvent(tick=0, channel=3, data=[52, 36]),
   midi.ControlChangeEvent(tick=47, channel=3, data=[7, 60]),
   midi.ControlChangeEvent(tick=49, channel=3, data=[7, 102]),
   midi.ControlChangeEvent(tick=240, channel=3, data=[7, 76]),
   midi.NoteOnEvent(tick=144, channel=3, data=[52, 0]),
   midi.NoteOnEvent(tick=0, channel=3, data=[50, 36]),
   midi.ControlChangeEvent(tick=48, channel=3, data=[7, 52]),
   midi.NoteOnEvent(tick=432, channel=3, data=[50, 0]),
   midi.NoteOnEvent(tick=0, channel=3, data=[50, 36]),
   midi.NoteOnEvent(tick=480, channel=3, data=[50, 0]),
   midi.NoteOnEvent(tick=0, channel=3, data=[43, 36]),
   midi.ControlChangeEvent(tick=47, channel=3, data=[7, 48]),
   midi.ControlChangeEvent(tick=48, channel=3, data=[7, 60]),
   midi.ControlChangeEvent(tick=1, channel=3, data=[7, 100]),
   midi.ControlChangeEvent(tick=336, channel=3, data=[7, 70]),
   midi.ControlChangeEvent(tick=575, channel=3, data=[7, 58]),
   midi.ControlChangeEvent(tick=1, channel=3, data=[7, 46]),
   midi.ControlChangeEvent(tick=287, channel=3, data=[7, 46]),
   midi.ControlChangeEvent(tick=1, channel=3, data=[7, 54]),
   midi.ControlChangeEvent(tick=96, channel=3, data=[7, 60]),
   midi.NoteOnEvent(tick=48, channel=3, data=[43, 0]),
   midi.NoteOnEvent(tick=0, channel=3, data=[45, 36]),
   midi.ControlChangeEvent(tick=0, channel=3, data=[7, 64]),
   midi.NoteOnEvent(tick=480, channel=3, data=[45, 0]),
   midi.NoteOnEvent(tick=0, channel=3, data=[57, 36]),
   midi.ControlChangeEvent(tick=47, channel=3, data=[7, 64]),
   midi.NoteOnEvent(tick=433, channel=3, data=[57, 0]),
   midi.NoteOnEvent(tick=0, channel=3, data=[55, 36]),
   midi.NoteOnEvent(tick=480, channel=3, data=[55, 0]),
   midi.NoteOnEvent(tick=0, channel=3, data=[54, 36]),
   midi.NoteOnEvent(tick=480, channel=3, data=[54, 0]),
   midi.NoteOnEvent(tick=0, channel=3, data=[52, 36]),
   midi.NoteOnEvent(tick=480, channel=3, data=[52, 0]),
   midi.NoteOnEvent(tick=0, channel=3, data=[50, 36]),
   midi.NoteOnEvent(tick=480, channel=3, data=[50, 0]),
   midi.NoteOnEvent(tick=0, channel=3, data=[59, 36]),
   midi.NoteOnEvent(tick=480, channel=3, data=[59, 0]),
   midi.NoteOnEvent(tick=0, channel=3, data=[57, 36]),
   midi.NoteOnEvent(tick=480, channel=3, data=[57, 0]),
   midi.NoteOnEvent(tick=0, channel=3, data=[55, 36]),
   midi.NoteOnEvent(tick=480, channel=3, data=[55, 0]),
   midi.NoteOnEvent(tick=0, channel=3, data=[54, 36]),
   midi.NoteOnEvent(tick=480, channel=3, data=[54, 0]),
   midi.NoteOnEvent(tick=0, channel=3, data=[55, 36]),
   midi.NoteOnEvent(tick=480, channel=3, data=[55, 0]),
   midi.NoteOnEvent(tick=0, channel=3, data=[57, 36]),
   midi.NoteOnEvent(tick=480, channel=3, data=[57, 0]),
   midi.NoteOnEvent(tick=0, channel=3, data=[50, 36]),
   midi.NoteOnEvent(tick=480, channel=3, data=[50, 0]),
   midi.ControlChangeEvent(tick=6720, channel=3, data=[7, 102]),
   midi.ControlChangeEvent(tick=1007, channel=3, data=[7, 102]),
   midi.NoteOnEvent(tick=3313, channel=3, data=[50, 79]),
   midi.NoteOnEvent(tick=480, channel=3, data=[50, 0]),
   midi.NoteOnEvent(tick=0, channel=3, data=[50, 79]),
   midi.NoteOnEvent(tick=480, channel=3, data=[50, 0]),
   midi.NoteOnEvent(tick=0, channel=3, data=[48, 79]),
   midi.NoteOnEvent(tick=480, channel=3, data=[48, 0]),
   midi.NoteOnEvent(tick=0, channel=3, data=[47, 79]),
   midi.NoteOnEvent(tick=480, channel=3, data=[47, 0]),
   midi.NoteOnEvent(tick=0, channel=3, data=[45, 79]),
   midi.NoteOnEvent(tick=480, channel=3, data=[45, 0]),
   midi.NoteOnEvent(tick=0, channel=3, data=[43, 79]),
   midi.NoteOnEvent(tick=480, channel=3, data=[43, 0]),
   midi.NoteOnEvent(tick=0, channel=3, data=[42, 79]),
   midi.NoteOnEvent(tick=480, channel=3, data=[42, 0]),
   midi.NoteOnEvent(tick=0, channel=3, data=[54, 79]),
   midi.NoteOnEvent(tick=480, channel=3, data=[54, 0]),
   midi.NoteOnEvent(tick=0, channel=3, data=[55, 79]),
   midi.NoteOnEvent(tick=480, channel=3, data=[55, 0]),
   midi.NoteOnEvent(tick=0, channel=3, data=[48, 79]),
   midi.NoteOnEvent(tick=480, channel=3, data=[48, 0]),
   midi.NoteOnEvent(tick=0, channel=3, data=[50, 79]),
   midi.NoteOnEvent(tick=480, channel=3, data=[50, 0]),
   midi.NoteOnEvent(tick=0, channel=3, data=[50, 79]),
   midi.NoteOnEvent(tick=480, channel=3, data=[50, 0]),
   midi.NoteOnEvent(tick=0, channel=3, data=[43, 79]),
   midi.NoteOnEvent(tick=480, channel=3, data=[43, 0]),
   midi.ControlChangeEvent(tick=2400, channel=3, data=[7, 62]),
   midi.NoteOnEvent(tick=0, channel=3, data=[55, 36]),
   midi.NoteOnEvent(tick=480, channel=3, data=[55, 0]),
   midi.NoteOnEvent(tick=0, channel=3, data=[55, 36]),
   midi.NoteOnEvent(tick=480, channel=3, data=[55, 0]),
   midi.NoteOnEvent(tick=0, channel=3, data=[55, 36]),
   midi.NoteOnEvent(tick=960, channel=3, data=[55, 0]),
   midi.NoteOnEvent(tick=0, channel=3, data=[48, 36]),
   midi.NoteOnEvent(tick=480, channel=3, data=[48, 0]),
   midi.NoteOnEvent(tick=0, channel=3, data=[48, 36]),
   midi.NoteOnEvent(tick=480, channel=3, data=[48, 0]),
   midi.NoteOnEvent(tick=0, channel=3, data=[48, 36]),
   midi.NoteOnEvent(tick=960, channel=3, data=[48, 0]),
   midi.NoteOnEvent(tick=0, channel=3, data=[45, 36]),
   midi.NoteOnEvent(tick=480, channel=3, data=[45, 0]),
   midi.NoteOnEvent(tick=0, channel=3, data=[45, 36]),
   midi.NoteOnEvent(tick=480, channel=3, data=[45, 0]),
   midi.NoteOnEvent(tick=0, channel=3, data=[45, 36]),
   midi.NoteOnEvent(tick=960, channel=3, data=[45, 0]),
   midi.NoteOnEvent(tick=0, channel=3, data=[50, 36]),
   midi.NoteOnEvent(tick=480, channel=3, data=[50, 0]),
   midi.NoteOnEvent(tick=0, channel=3, data=[50, 36]),
   midi.NoteOnEvent(tick=480, channel=3, data=[50, 0]),
   midi.NoteOnEvent(tick=0, channel=3, data=[50, 36]),
   midi.NoteOnEvent(tick=960, channel=3, data=[50, 0]),
   midi.NoteOnEvent(tick=0, channel=3, data=[55, 79]),
   midi.ControlChangeEvent(tick=48, channel=3, data=[7, 104]),
   midi.NoteOnEvent(tick=432, channel=3, data=[55, 0]),
   midi.NoteOnEvent(tick=0, channel=3, data=[55, 79]),
   midi.NoteOnEvent(tick=480, channel=3, data=[55, 0]),
   midi.NoteOnEvent(tick=0, channel=3, data=[55, 79]),
   midi.NoteOnEvent(tick=960, channel=3, data=[55, 0]),
   midi.NoteOnEvent(tick=3840, channel=3, data=[50, 79]),
   midi.NoteOnEvent(tick=960, channel=3, data=[50, 0]),
   midi.NoteOnEvent(tick=0, channel=3, data=[43, 79]),
   midi.NoteOnEvent(tick=480, channel=3, data=[43, 0]),
   midi.NoteOnEvent(tick=480, channel=3, data=[55, 79]),
   midi.ControlChangeEvent(tick=48, channel=3, data=[7, 66]),
   midi.NoteOnEvent(tick=432, channel=3, data=[55, 0]),
   midi.NoteOnEvent(tick=0, channel=3, data=[55, 79]),
   midi.NoteOnEvent(tick=480, channel=3, data=[55, 0]),
   midi.NoteOnEvent(tick=0, channel=3, data=[55, 79]),
   midi.NoteOnEvent(tick=960, channel=3, data=[55, 0]),
   midi.NoteOnEvent(tick=0, channel=3, data=[48, 79]),
   midi.NoteOnEvent(tick=480, channel=3, data=[48, 0]),
   midi.NoteOnEvent(tick=0, channel=3, data=[48, 79]),
   midi.NoteOnEvent(tick=480, channel=3, data=[48, 0]),
   midi.NoteOnEvent(tick=0, channel=3, data=[48, 79]),
   midi.NoteOnEvent(tick=960, channel=3, data=[48, 0]),
   midi.NoteOnEvent(tick=0, channel=3, data=[45, 79]),
   midi.ControlChangeEvent(tick=48, channel=3, data=[7, 66]),
   midi.NoteOnEvent(tick=432, channel=3, data=[45, 0]),
   midi.NoteOnEvent(tick=0, channel=3, data=[45, 79]),
   midi.NoteOnEvent(tick=480, channel=3, data=[45, 0]),
   midi.NoteOnEvent(tick=0, channel=3, data=[45, 79]),
   midi.NoteOnEvent(tick=960, channel=3, data=[45, 0]),
   midi.NoteOnEvent(tick=0, channel=3, data=[50, 79]),
   midi.NoteOnEvent(tick=480, channel=3, data=[50, 0]),
   midi.NoteOnEvent(tick=0, channel=3, data=[50, 79]),
   midi.NoteOnEvent(tick=480, channel=3, data=[50, 0]),
   midi.NoteOnEvent(tick=0, channel=3, data=[50, 79]),
   midi.NoteOnEvent(tick=960, channel=3, data=[50, 0]),
   midi.NoteOnEvent(tick=0, channel=3, data=[55, 79]),
   midi.ControlChangeEvent(tick=47, channel=3, data=[7, 68]),
   midi.ControlChangeEvent(tick=49, channel=3, data=[7, 104]),
   midi.NoteOnEvent(tick=384, channel=3, data=[55, 0]),
   midi.NoteOnEvent(tick=0, channel=3, data=[55, 79]),
   midi.NoteOnEvent(tick=480, channel=3, data=[55, 0]),
   midi.NoteOnEvent(tick=0, channel=3, data=[55, 79]),
   midi.NoteOnEvent(tick=960, channel=3, data=[55, 0]),
   midi.NoteOnEvent(tick=3840, channel=3, data=[50, 79]),
   midi.NoteOnEvent(tick=960, channel=3, data=[50, 0]),
   midi.NoteOnEvent(tick=0, channel=3, data=[43, 79]),
   midi.NoteOnEvent(tick=480, channel=3, data=[43, 0]),
   midi.NoteOnEvent(tick=1440, channel=3, data=[57, 79]),
   midi.NoteOnEvent(tick=960, channel=3, data=[57, 0]),
   midi.NoteOnEvent(tick=0, channel=3, data=[45, 79]),
   midi.NoteOnEvent(tick=960, channel=3, data=[45, 0]),
   midi.NoteOnEvent(tick=0, channel=3, data=[50, 79]),
   midi.NoteOnEvent(tick=480, channel=3, data=[50, 0]),
   midi.NoteOnEvent(tick=1440, channel=3, data=[50, 79]),
   midi.NoteOnEvent(tick=960, channel=3, data=[50, 0]),
   midi.NoteOnEvent(tick=0, channel=3, data=[43, 79]),
   midi.NoteOnEvent(tick=960, channel=3, data=[43, 0]),
   midi.NoteOnEvent(tick=0, channel=3, data=[45, 79]),
   midi.NoteOnEvent(tick=960, channel=3, data=[45, 0]),
   midi.NoteOnEvent(tick=960, channel=3, data=[57, 79]),
   midi.ControlChangeEvent(tick=672, channel=3, data=[7, 104]),
   midi.NoteOnEvent(tick=288, channel=3, data=[57, 0]),
   midi.NoteOnEvent(tick=0, channel=3, data=[45, 79]),
   midi.NoteOnEvent(tick=960, channel=3, data=[45, 0]),
   midi.NoteOnEvent(tick=0, channel=3, data=[50, 79]),
   midi.NoteOnEvent(tick=960, channel=3, data=[50, 0]),
   midi.NoteOnEvent(tick=960, channel=3, data=[62, 79]),
   midi.NoteOnEvent(tick=960, channel=3, data=[62, 0]),
   midi.NoteOnEvent(tick=0, channel=3, data=[57, 79]),
   midi.NoteOnEvent(tick=960, channel=3, data=[57, 0]),
   midi.NoteOnEvent(tick=0, channel=3, data=[50, 79]),
   midi.NoteOnEvent(tick=960, channel=3, data=[50, 0]),
   midi.ControlChangeEvent(tick=48, channel=3, data=[7, 56]),
   midi.NoteOnEvent(tick=912, channel=3, data=[56, 36]),
   midi.NoteOnEvent(tick=480, channel=3, data=[56, 0]),
   midi.NoteOnEvent(tick=480, channel=3, data=[52, 36]),
   midi.NoteOnEvent(tick=480, channel=3, data=[52, 0]),
   midi.NoteOnEvent(tick=480, channel=3, data=[57, 36]),
   midi.NoteOnEvent(tick=480, channel=3, data=[57, 0]),
   midi.NoteOnEvent(tick=480, channel=3, data=[55, 36]),
   midi.NoteOnEvent(tick=480, channel=3, data=[55, 0]),
   midi.NoteOnEvent(tick=480, channel=3, data=[54, 36]),
   midi.NoteOnEvent(tick=480, channel=3, data=[54, 0]),
   midi.NoteOnEvent(tick=480, channel=3, data=[50, 36]),
   midi.NoteOnEvent(tick=480, channel=3, data=[50, 0]),
   midi.NoteOnEvent(tick=480, channel=3, data=[55, 36]),
   midi.NoteOnEvent(tick=480, channel=3, data=[55, 0]),
   midi.ControlChangeEvent(tick=527, channel=3, data=[7, 56]),
   midi.ControlChangeEvent(tick=1, channel=3, data=[7, 108]),
   midi.ControlChangeEvent(tick=1044, channel=3, data=[7, 107]),
   midi.ControlChangeEvent(tick=1044, channel=3, data=[7, 106]),
   midi.ControlChangeEvent(tick=1044, channel=3, data=[7, 105]),
   midi.ControlChangeEvent(tick=1043, channel=3, data=[7, 104]),
   midi.NoteOnEvent(tick=577, channel=3, data=[54, 79]),
   midi.NoteOnEvent(tick=960, channel=3, data=[54, 0]),
   midi.NoteOnEvent(tick=0, channel=3, data=[55, 79]),
   midi.NoteOnEvent(tick=960, channel=3, data=[55, 0]),
   midi.NoteOnEvent(tick=0, channel=3, data=[50, 79]),
   midi.NoteOnEvent(tick=480, channel=3, data=[50, 0]),
   midi.NoteOnEvent(tick=480, channel=3, data=[55, 79]),
   midi.ControlChangeEvent(tick=48, channel=3, data=[7, 58]),
   midi.NoteOnEvent(tick=432, channel=3, data=[55, 0]),
   midi.NoteOnEvent(tick=0, channel=3, data=[55, 79]),
   midi.NoteOnEvent(tick=480, channel=3, data=[55, 0]),
   midi.NoteOnEvent(tick=0, channel=3, data=[55, 79]),
   midi.NoteOnEvent(tick=960, channel=3, data=[55, 0]),
   midi.NoteOnEvent(tick=0, channel=3, data=[48, 79]),
   midi.NoteOnEvent(tick=480, channel=3, data=[48, 0]),
   midi.NoteOnEvent(tick=0, channel=3, data=[48, 79]),
   midi.NoteOnEvent(tick=480, channel=3, data=[48, 0]),
   midi.NoteOnEvent(tick=0, channel=3, data=[48, 79]),
   midi.NoteOnEvent(tick=960, channel=3, data=[48, 0]),
   midi.NoteOnEvent(tick=0, channel=3, data=[45, 79]),
   midi.NoteOnEvent(tick=480, channel=3, data=[45, 0]),
   midi.NoteOnEvent(tick=0, channel=3, data=[45, 79]),
   midi.NoteOnEvent(tick=480, channel=3, data=[45, 0]),
   midi.NoteOnEvent(tick=0, channel=3, data=[45, 79]),
   midi.NoteOnEvent(tick=960, channel=3, data=[45, 0]),
   midi.NoteOnEvent(tick=0, channel=3, data=[50, 79]),
   midi.NoteOnEvent(tick=480, channel=3, data=[50, 0]),
   midi.NoteOnEvent(tick=0, channel=3, data=[50, 79]),
   midi.NoteOnEvent(tick=480, channel=3, data=[50, 0]),
   midi.NoteOnEvent(tick=0, channel=3, data=[50, 79]),
   midi.NoteOnEvent(tick=960, channel=3, data=[50, 0]),
   midi.NoteOnEvent(tick=0, channel=3, data=[55, 79]),
   midi.ControlChangeEvent(tick=48, channel=3, data=[7, 106]),
   midi.NoteOnEvent(tick=432, channel=3, data=[55, 0]),
   midi.NoteOnEvent(tick=0, channel=3, data=[55, 79]),
   midi.NoteOnEvent(tick=480, channel=3, data=[55, 0]),
   midi.NoteOnEvent(tick=0, channel=3, data=[55, 79]),
   midi.NoteOnEvent(tick=960, channel=3, data=[55, 0]),
   midi.NoteOnEvent(tick=3840, channel=3, data=[50, 79]),
   midi.NoteOnEvent(tick=960, channel=3, data=[50, 0]),
   midi.NoteOnEvent(tick=0, channel=3, data=[43, 79]),
   midi.NoteOnEvent(tick=480, channel=3, data=[43, 0]),
   midi.NoteOnEvent(tick=1440, channel=3, data=[57, 79]),
   midi.NoteOnEvent(tick=960, channel=3, data=[57, 0]),
   midi.NoteOnEvent(tick=0, channel=3, data=[45, 79]),
   midi.NoteOnEvent(tick=960, channel=3, data=[45, 0]),
   midi.NoteOnEvent(tick=0, channel=3, data=[50, 79]),
   midi.NoteOnEvent(tick=480, channel=3, data=[50, 0]),
   midi.NoteOnEvent(tick=1440, channel=3, data=[50, 79]),
   midi.NoteOnEvent(tick=960, channel=3, data=[50, 0]),
   midi.NoteOnEvent(tick=0, channel=3, data=[43, 79]),
   midi.NoteOnEvent(tick=960, channel=3, data=[43, 0]),
   midi.NoteOnEvent(tick=0, channel=3, data=[45, 79]),
   midi.NoteOnEvent(tick=960, channel=3, data=[45, 0]),
   midi.NoteOnEvent(tick=960, channel=3, data=[57, 79]),
   midi.NoteOnEvent(tick=960, channel=3, data=[57, 0]),
   midi.NoteOnEvent(tick=0, channel=3, data=[45, 79]),
   midi.NoteOnEvent(tick=960, channel=3, data=[45, 0]),
   midi.NoteOnEvent(tick=0, channel=3, data=[50, 79]),
   midi.NoteOnEvent(tick=960, channel=3, data=[50, 0]),
   midi.NoteOnEvent(tick=960, channel=3, data=[62, 79]),
   midi.NoteOnEvent(tick=960, channel=3, data=[62, 0]),
   midi.NoteOnEvent(tick=0, channel=3, data=[57, 79]),
   midi.NoteOnEvent(tick=960, channel=3, data=[57, 0]),
   midi.NoteOnEvent(tick=0, channel=3, data=[50, 79]),
   midi.NoteOnEvent(tick=960, channel=3, data=[50, 0]),
   midi.ControlChangeEvent(tick=96, channel=3, data=[7, 60]),
   midi.NoteOnEvent(tick=864, channel=3, data=[56, 36]),
   midi.NoteOnEvent(tick=480, channel=3, data=[56, 0]),
   midi.NoteOnEvent(tick=480, channel=3, data=[52, 36]),
   midi.NoteOnEvent(tick=480, channel=3, data=[52, 0]),
   midi.NoteOnEvent(tick=480, channel=3, data=[57, 36]),
   midi.NoteOnEvent(tick=480, channel=3, data=[57, 0]),
   midi.NoteOnEvent(tick=480, channel=3, data=[55, 36]),
   midi.NoteOnEvent(tick=480, channel=3, data=[55, 0]),
   midi.NoteOnEvent(tick=480, channel=3, data=[54, 36]),
   midi.NoteOnEvent(tick=480, channel=3, data=[54, 0]),
   midi.NoteOnEvent(tick=480, channel=3, data=[50, 36]),
   midi.NoteOnEvent(tick=480, channel=3, data=[50, 0]),
   midi.NoteOnEvent(tick=480, channel=3, data=[55, 36]),
   midi.NoteOnEvent(tick=480, channel=3, data=[55, 0]),
   midi.ControlChangeEvent(tick=527, channel=3, data=[7, 60]),
   midi.ControlChangeEvent(tick=1, channel=3, data=[7, 108]),
   midi.NoteOnEvent(tick=4752, channel=3, data=[54, 79]),
   midi.NoteOnEvent(tick=960, channel=3, data=[54, 0]),
   midi.NoteOnEvent(tick=0, channel=3, data=[55, 79]),
   midi.NoteOnEvent(tick=960, channel=3, data=[55, 0]),
   midi.NoteOnEvent(tick=0, channel=3, data=[50, 79]),
   midi.NoteOnEvent(tick=480, channel=3, data=[50, 0]),
   midi.NoteOnEvent(tick=480, channel=3, data=[55, 79]),
   midi.ControlChangeEvent(tick=48, channel=3, data=[7, 60]),
   midi.NoteOnEvent(tick=432, channel=3, data=[55, 0]),
   midi.NoteOnEvent(tick=0, channel=3, data=[55, 79]),
   midi.NoteOnEvent(tick=480, channel=3, data=[55, 0]),
   midi.NoteOnEvent(tick=0, channel=3, data=[55, 79]),
   midi.NoteOnEvent(tick=960, channel=3, data=[55, 0]),
   midi.NoteOnEvent(tick=0, channel=3, data=[48, 79]),
   midi.NoteOnEvent(tick=480, channel=3, data=[48, 0]),
   midi.NoteOnEvent(tick=0, channel=3, data=[48, 79]),
   midi.NoteOnEvent(tick=480, channel=3, data=[48, 0]),
   midi.NoteOnEvent(tick=0, channel=3, data=[48, 79]),
   midi.NoteOnEvent(tick=960, channel=3, data=[48, 0]),
   midi.NoteOnEvent(tick=0, channel=3, data=[45, 79]),
   midi.NoteOnEvent(tick=480, channel=3, data=[45, 0]),
   midi.NoteOnEvent(tick=0, channel=3, data=[45, 79]),
   midi.NoteOnEvent(tick=480, channel=3, data=[45, 0]),
   midi.NoteOnEvent(tick=0, channel=3, data=[45, 79]),
   midi.NoteOnEvent(tick=960, channel=3, data=[45, 0]),
   midi.NoteOnEvent(tick=0, channel=3, data=[50, 79]),
   midi.NoteOnEvent(tick=480, channel=3, data=[50, 0]),
   midi.NoteOnEvent(tick=0, channel=3, data=[50, 79]),
   midi.NoteOnEvent(tick=480, channel=3, data=[50, 0]),
   midi.NoteOnEvent(tick=0, channel=3, data=[50, 79]),
   midi.NoteOnEvent(tick=960, channel=3, data=[50, 0]),
   midi.NoteOnEvent(tick=0, channel=3, data=[55, 79]),
   midi.ControlChangeEvent(tick=95, channel=3, data=[7, 60]),
   midi.ControlChangeEvent(tick=1, channel=3, data=[7, 104]),
   midi.NoteOnEvent(tick=384, channel=3, data=[55, 0]),
   midi.NoteOnEvent(tick=0, channel=3, data=[55, 79]),
   midi.NoteOnEvent(tick=480, channel=3, data=[55, 0]),
   midi.NoteOnEvent(tick=0, channel=3, data=[55, 79]),
   midi.NoteOnEvent(tick=960, channel=3, data=[55, 0]),
   midi.NoteOnEvent(tick=3840, channel=3, data=[50, 79]),
   midi.NoteOnEvent(tick=960, channel=3, data=[50, 0]),
   midi.NoteOnEvent(tick=0, channel=3, data=[43, 79]),
   midi.NoteOnEvent(tick=480, channel=3, data=[43, 0]),
   midi.ControlChangeEvent(tick=527, channel=3, data=[7, 104]),
   midi.ControlChangeEvent(tick=49, channel=3, data=[7, 54]),
   midi.NoteOnEvent(tick=1824, channel=3, data=[50, 36]),
   midi.NoteOnEvent(tick=960, channel=3, data=[50, 0]),
   midi.NoteOnEvent(tick=0, channel=3, data=[43, 36]),
   midi.NoteOnEvent(tick=960, channel=3, data=[43, 0]),
   midi.NoteOnEvent(tick=1920, channel=3, data=[53, 36]),
   midi.NoteOnEvent(tick=960, channel=3, data=[53, 0]),
   midi.NoteOnEvent(tick=0, channel=3, data=[46, 36]),
   midi.NoteOnEvent(tick=960, channel=3, data=[46, 0]),
   midi.NoteOnEvent(tick=1920, channel=3, data=[57, 36]),
   midi.NoteOnEvent(tick=960, channel=3, data=[57, 0]),
   midi.NoteOnEvent(tick=0, channel=3, data=[50, 36]),
   midi.NoteOnEvent(tick=960, channel=3, data=[50, 0]),
   midi.NoteOnEvent(tick=0, channel=3, data=[50, 36]),
   midi.NoteOnEvent(tick=960, channel=3, data=[50, 0]),
   midi.NoteOnEvent(tick=0, channel=3, data=[43, 36]),
   midi.NoteOnEvent(tick=960, channel=3, data=[43, 0]),
   midi.NoteOnEvent(tick=0, channel=3, data=[45, 36]),
   midi.NoteOnEvent(tick=960, channel=3, data=[45, 0]),
   midi.NoteOnEvent(tick=0, channel=3, data=[38, 36]),
   midi.NoteOnEvent(tick=960, channel=3, data=[38, 0]),
   midi.NoteOnEvent(tick=1920, channel=3, data=[50, 36]),
   midi.NoteOnEvent(tick=960, channel=3, data=[50, 0]),
   midi.NoteOnEvent(tick=0, channel=3, data=[43, 36]),
   midi.NoteOnEvent(tick=960, channel=3, data=[43, 0]),
   midi.NoteOnEvent(tick=1920, channel=3, data=[53, 36]),
   midi.NoteOnEvent(tick=960, channel=3, data=[53, 0]),
   midi.NoteOnEvent(tick=0, channel=3, data=[46, 36]),
   midi.NoteOnEvent(tick=960, channel=3, data=[46, 0]),
   midi.NoteOnEvent(tick=1920, channel=3, data=[57, 36]),
   midi.NoteOnEvent(tick=960, channel=3, data=[57, 0]),
   midi.NoteOnEvent(tick=0, channel=3, data=[50, 36]),
   midi.NoteOnEvent(tick=960, channel=3, data=[50, 0]),
   midi.NoteOnEvent(tick=0, channel=3, data=[50, 36]),
   midi.NoteOnEvent(tick=960, channel=3, data=[50, 0]),
   midi.NoteOnEvent(tick=0, channel=3, data=[43, 36]),
   midi.NoteOnEvent(tick=960, channel=3, data=[43, 0]),
   midi.NoteOnEvent(tick=0, channel=3, data=[45, 36]),
   midi.NoteOnEvent(tick=960, channel=3, data=[45, 0]),
   midi.NoteOnEvent(tick=0, channel=3, data=[38, 36]),
   midi.ControlChangeEvent(tick=176, channel=3, data=[7, 54]),
   midi.NoteOnEvent(tick=784, channel=3, data=[38, 0]),
   midi.NoteOnEvent(tick=0, channel=3, data=[62, 79]),
   midi.ControlChangeEvent(tick=395, channel=3, data=[7, 54]),
   midi.NoteOnEvent(tick=85, channel=3, data=[62, 0]),
   midi.NoteOnEvent(tick=0, channel=3, data=[62, 79]),
   midi.NoteOnEvent(tick=240, channel=3, data=[62, 0]),
   midi.NoteOnEvent(tick=0, channel=3, data=[62, 79]),
   midi.ControlChangeEvent(tick=148, channel=3, data=[7, 100]),
   midi.NoteOnEvent(tick=92, channel=3, data=[62, 0]),
   midi.NoteOnEvent(tick=0, channel=3, data=[65, 79]),
   midi.NoteOnEvent(tick=480, channel=3, data=[65, 0]),
   midi.NoteOnEvent(tick=0, channel=3, data=[59, 79]),
   midi.NoteOnEvent(tick=480, channel=3, data=[59, 0]),
   midi.NoteOnEvent(tick=0, channel=3, data=[59, 79]),
   midi.NoteOnEvent(tick=480, channel=3, data=[59, 0]),
   midi.NoteOnEvent(tick=0, channel=3, data=[59, 79]),
   midi.NoteOnEvent(tick=240, channel=3, data=[59, 0]),
   midi.NoteOnEvent(tick=0, channel=3, data=[59, 79]),
   midi.NoteOnEvent(tick=240, channel=3, data=[59, 0]),
   midi.NoteOnEvent(tick=0, channel=3, data=[62, 79]),
   midi.ControlChangeEvent(tick=289, channel=3, data=[7, 100]),
   midi.NoteOnEvent(tick=191, channel=3, data=[62, 0]),
   midi.NoteOnEvent(tick=0, channel=3, data=[60, 79]),
   midi.NoteOnEvent(tick=480, channel=3, data=[60, 0]),
   midi.NoteOnEvent(tick=0, channel=3, data=[60, 79]),
   midi.NoteOnEvent(tick=480, channel=3, data=[60, 0]),
   midi.NoteOnEvent(tick=0, channel=3, data=[60, 79]),
   midi.NoteOnEvent(tick=240, channel=3, data=[60, 0]),
   midi.NoteOnEvent(tick=0, channel=3, data=[60, 79]),
   midi.NoteOnEvent(tick=240, channel=3, data=[60, 0]),
   midi.NoteOnEvent(tick=0, channel=3, data=[63, 79]),
   midi.NoteOnEvent(tick=480, channel=3, data=[63, 0]),
   midi.NoteOnEvent(tick=0, channel=3, data=[57, 79]),
   midi.ControlChangeEvent(tick=189, channel=3, data=[7, 102]),
   midi.NoteOnEvent(tick=291, channel=3, data=[57, 0]),
   midi.NoteOnEvent(tick=0, channel=3, data=[57, 79]),
   midi.NoteOnEvent(tick=480, channel=3, data=[57, 0]),
   midi.NoteOnEvent(tick=0, channel=3, data=[57, 79]),
   midi.NoteOnEvent(tick=240, channel=3, data=[57, 0]),
   midi.NoteOnEvent(tick=0, channel=3, data=[57, 79]),
   midi.NoteOnEvent(tick=240, channel=3, data=[57, 0]),
   midi.NoteOnEvent(tick=0, channel=3, data=[60, 79]),
   midi.NoteOnEvent(tick=480, channel=3, data=[60, 0]),
   midi.NoteOnEvent(tick=0, channel=3, data=[58, 79]),
   midi.ControlChangeEvent(tick=394, channel=3, data=[7, 58]),
   midi.NoteOnEvent(tick=86, channel=3, data=[58, 0]),
   midi.NoteOnEvent(tick=0, channel=3, data=[51, 36]),
   midi.ControlChangeEvent(tick=385, channel=3, data=[7, 58]),
   midi.NoteOnEvent(tick=575, channel=3, data=[51, 0]),
   midi.NoteOnEvent(tick=0, channel=3, data=[48, 36]),
   midi.NoteOnEvent(tick=960, channel=3, data=[48, 0]),
   midi.NoteOnEvent(tick=0, channel=3, data=[50, 36]),
   midi.NoteOnEvent(tick=960, channel=3, data=[50, 0]),
   midi.NoteOnEvent(tick=0, channel=3, data=[43, 36]),
   midi.NoteOnEvent(tick=960, channel=3, data=[43, 0]),
   midi.NoteOnEvent(tick=0, channel=3, data=[55, 36]),
   midi.NoteOnEvent(tick=960, channel=3, data=[55, 0]),
   midi.NoteOnEvent(tick=0, channel=3, data=[51, 36]),
   midi.NoteOnEvent(tick=960, channel=3, data=[51, 0]),
   midi.NoteOnEvent(tick=0, channel=3, data=[53, 36]),
   midi.NoteOnEvent(tick=960, channel=3, data=[53, 0]),
   midi.NoteOnEvent(tick=0, channel=3, data=[46, 36]),
   midi.NoteOnEvent(tick=960, channel=3, data=[46, 0]),
   midi.ControlChangeEvent(tick=3839, channel=3, data=[7, 58]),
   midi.NoteOnEvent(tick=1, channel=3, data=[54, 79]),
   midi.ControlChangeEvent(tick=96, channel=3, data=[7, 98]),
   midi.NoteOnEvent(tick=384, channel=3, data=[54, 0]),
   midi.NoteOnEvent(tick=0, channel=3, data=[54, 79]),
   midi.NoteOnEvent(tick=240, channel=3, data=[54, 0]),
   midi.NoteOnEvent(tick=0, channel=3, data=[54, 79]),
   midi.NoteOnEvent(tick=240, channel=3, data=[54, 0]),
   midi.NoteOnEvent(tick=0, channel=3, data=[55, 79]),
   midi.NoteOnEvent(tick=960, channel=3, data=[55, 0]),
   midi.NoteOnEvent(tick=0, channel=3, data=[51, 79]),
   midi.ControlChangeEvent(tick=431, channel=3, data=[7, 98]),
   midi.NoteOnEvent(tick=529, channel=3, data=[51, 0]),
   midi.NoteOnEvent(tick=0, channel=3, data=[50, 79]),
   midi.NoteOnEvent(tick=960, channel=3, data=[50, 0]),
   midi.NoteOnEvent(tick=0, channel=3, data=[38, 79]),
   midi.NoteOnEvent(tick=960, channel=3, data=[38, 0]),
   midi.NoteOnEvent(tick=0, channel=3, data=[43, 79]),
   midi.NoteOnEvent(tick=1920, channel=3, data=[43, 0]),
   midi.NoteOnEvent(tick=0, channel=3, data=[38, 79]),
   midi.ControlChangeEvent(tick=864, channel=3, data=[7, 56]),
   midi.NoteOnEvent(tick=96, channel=3, data=[38, 0]),
   midi.NoteOnEvent(tick=0, channel=3, data=[55, 79]),
   midi.ControlChangeEvent(tick=0, channel=3, data=[7, 56]),
   midi.NoteOnEvent(tick=480, channel=3, data=[55, 0]),
   midi.NoteOnEvent(tick=0, channel=3, data=[55, 79]),
   midi.NoteOnEvent(tick=480, channel=3, data=[55, 0]),
   midi.NoteOnEvent(tick=0, channel=3, data=[55, 79]),
   midi.NoteOnEvent(tick=960, channel=3, data=[55, 0]),
   midi.NoteOnEvent(tick=0, channel=3, data=[48, 79]),
   midi.ControlChangeEvent(tick=43, channel=3, data=[7, 56]),
   midi.NoteOnEvent(tick=437, channel=3, data=[48, 0]),
   midi.NoteOnEvent(tick=0, channel=3, data=[48, 79]),
   midi.NoteOnEvent(tick=480, channel=3, data=[48, 0]),
   midi.NoteOnEvent(tick=0, channel=3, data=[48, 79]),
   midi.NoteOnEvent(tick=960, channel=3, data=[48, 0]),
   midi.NoteOnEvent(tick=0, channel=3, data=[45, 79]),
   midi.ControlChangeEvent(tick=87, channel=3, data=[7, 57]),
   midi.NoteOnEvent(tick=393, channel=3, data=[45, 0]),
   midi.NoteOnEvent(tick=0, channel=3, data=[45, 79]),
   midi.NoteOnEvent(tick=480, channel=3, data=[45, 0]),
   midi.NoteOnEvent(tick=0, channel=3, data=[45, 79]),
   midi.NoteOnEvent(tick=960, channel=3, data=[45, 0]),
   midi.NoteOnEvent(tick=0, channel=3, data=[50, 79]),
   midi.ControlChangeEvent(tick=130, channel=3, data=[7, 58]),
   midi.NoteOnEvent(tick=350, channel=3, data=[50, 0]),
   midi.NoteOnEvent(tick=0, channel=3, data=[50, 79]),
   midi.NoteOnEvent(tick=480, channel=3, data=[50, 0]),
   midi.NoteOnEvent(tick=0, channel=3, data=[50, 79]),
   midi.NoteOnEvent(tick=960, channel=3, data=[50, 0]),
   midi.NoteOnEvent(tick=0, channel=3, data=[55, 79]),
   midi.ControlChangeEvent(tick=173, channel=3, data=[7, 60]),
   midi.ControlChangeEvent(tick=119, channel=3, data=[7, 104]),
   midi.NoteOnEvent(tick=188, channel=3, data=[55, 0]),
   midi.NoteOnEvent(tick=0, channel=3, data=[55, 79]),
   midi.NoteOnEvent(tick=480, channel=3, data=[55, 0]),
   midi.NoteOnEvent(tick=0, channel=3, data=[55, 79]),
   midi.NoteOnEvent(tick=960, channel=3, data=[55, 0]),
   midi.ControlChangeEvent(tick=269, channel=3, data=[7, 103]),
   midi.ControlChangeEvent(tick=1898, channel=3, data=[7, 102]),
   midi.NoteOnEvent(tick=1673, channel=3, data=[50, 79]),
   midi.ControlChangeEvent(tick=225, channel=3, data=[7, 101]),
   midi.NoteOnEvent(tick=735, channel=3, data=[50, 0]),
   midi.NoteOnEvent(tick=0, channel=3, data=[43, 79]),
   midi.NoteOnEvent(tick=480, channel=3, data=[43, 0]),
   midi.ControlChangeEvent(tick=683, channel=3, data=[7, 100]),
   midi.NoteOnEvent(tick=757, channel=3, data=[57, 79]),
   midi.NoteOnEvent(tick=960, channel=3, data=[57, 0]),
   midi.NoteOnEvent(tick=0, channel=3, data=[45, 79]),
   midi.ControlChangeEvent(tick=181, channel=3, data=[7, 99]),
   midi.NoteOnEvent(tick=779, channel=3, data=[45, 0]),
   midi.NoteOnEvent(tick=0, channel=3, data=[50, 79]),
   midi.NoteOnEvent(tick=480, channel=3, data=[50, 0]),
   midi.ControlChangeEvent(tick=639, channel=3, data=[7, 98]),
   midi.NoteOnEvent(tick=801, channel=3, data=[50, 79]),
   midi.NoteOnEvent(tick=960, channel=3, data=[50, 0]),
   midi.NoteOnEvent(tick=0, channel=3, data=[43, 79]),
   midi.ControlChangeEvent(tick=136, channel=3, data=[7, 97]),
   midi.NoteOnEvent(tick=824, channel=3, data=[43, 0]),
   midi.NoteOnEvent(tick=0, channel=3, data=[45, 79]),
   midi.NoteOnEvent(tick=960, channel=3, data=[45, 0]),
   midi.ControlChangeEvent(tick=114, channel=3, data=[7, 96]),
   midi.NoteOnEvent(tick=846, channel=3, data=[57, 79]),
   midi.NoteOnEvent(tick=960, channel=3, data=[57, 0]),
   midi.NoteOnEvent(tick=0, channel=3, data=[45, 79]),
   midi.ControlChangeEvent(tick=92, channel=3, data=[7, 95]),
   midi.NoteOnEvent(tick=868, channel=3, data=[45, 0]),
   midi.NoteOnEvent(tick=0, channel=3, data=[50, 79]),
   midi.NoteOnEvent(tick=960, channel=3, data=[50, 0]),
   midi.ControlChangeEvent(tick=70, channel=3, data=[7, 94]),
   midi.NoteOnEvent(tick=890, channel=3, data=[62, 79]),
   midi.NoteOnEvent(tick=960, channel=3, data=[62, 0]),
   midi.NoteOnEvent(tick=0, channel=3, data=[57, 79]),
   midi.ControlChangeEvent(tick=48, channel=3, data=[7, 93]),
   midi.NoteOnEvent(tick=912, channel=3, data=[57, 0]),
   midi.NoteOnEvent(tick=0, channel=3, data=[50, 79]),
   midi.NoteOnEvent(tick=960, channel=3, data=[50, 0]),
   midi.ControlChangeEvent(tick=25, channel=3, data=[7, 92]),
   midi.NoteOnEvent(tick=935, channel=3, data=[56, 36]),
   midi.NoteOnEvent(tick=480, channel=3, data=[56, 0]),
   midi.NoteOnEvent(tick=480, channel=3, data=[52, 36]),
   midi.NoteOnEvent(tick=480, channel=3, data=[52, 0]),
   midi.NoteOnEvent(tick=480, channel=3, data=[57, 36]),
   midi.NoteOnEvent(tick=480, channel=3, data=[57, 0]),
   midi.NoteOnEvent(tick=480, channel=3, data=[55, 36]),
   midi.NoteOnEvent(tick=480, channel=3, data=[55, 0]),
   midi.NoteOnEvent(tick=480, channel=3, data=[54, 36]),
   midi.NoteOnEvent(tick=480, channel=3, data=[54, 0]),
   midi.NoteOnEvent(tick=480, channel=3, data=[50, 36]),
   midi.NoteOnEvent(tick=480, channel=3, data=[50, 0]),
   midi.NoteOnEvent(tick=480, channel=3, data=[55, 36]),
   midi.NoteOnEvent(tick=480, channel=3, data=[55, 0]),
   midi.ControlChangeEvent(tick=528, channel=3, data=[7, 102]),
   midi.NoteOnEvent(tick=4752, channel=3, data=[54, 79]),
   midi.NoteOnEvent(tick=960, channel=3, data=[54, 0]),
   midi.NoteOnEvent(tick=0, channel=3, data=[55, 79]),
   midi.NoteOnEvent(tick=960, channel=3, data=[55, 0]),
   midi.ControlChangeEvent(tick=0, channel=3, data=[7, 50]),
   midi.NoteOnEvent(tick=0, channel=3, data=[50, 79]),
   midi.ControlChangeEvent(tick=22, channel=3, data=[7, 48]),
   midi.NoteOnEvent(tick=458, channel=3, data=[50, 0]),
   midi.NoteOnEvent(tick=480, channel=3, data=[55, 79]),
   midi.ControlChangeEvent(tick=241, channel=3, data=[7, 48]),
   midi.NoteOnEvent(tick=239, channel=3, data=[55, 0]),
   midi.NoteOnEvent(tick=0, channel=3, data=[55, 79]),
   midi.NoteOnEvent(tick=480, channel=3, data=[55, 0]),
   midi.NoteOnEvent(tick=0, channel=3, data=[55, 79]),
   midi.NoteOnEvent(tick=960, channel=3, data=[55, 0]),
   midi.NoteOnEvent(tick=0, channel=3, data=[48, 79]),
   midi.NoteOnEvent(tick=480, channel=3, data=[48, 0]),
   midi.NoteOnEvent(tick=0, channel=3, data=[48, 79]),
   midi.NoteOnEvent(tick=480, channel=3, data=[48, 0]),
   midi.NoteOnEvent(tick=0, channel=3, data=[48, 79]),
   midi.NoteOnEvent(tick=960, channel=3, data=[48, 0]),
   midi.NoteOnEvent(tick=0, channel=3, data=[45, 79]),
   midi.NoteOnEvent(tick=480, channel=3, data=[45, 0]),
   midi.NoteOnEvent(tick=0, channel=3, data=[45, 79]),
   midi.NoteOnEvent(tick=480, channel=3, data=[45, 0]),
   midi.NoteOnEvent(tick=0, channel=3, data=[45, 79]),
   midi.NoteOnEvent(tick=960, channel=3, data=[45, 0]),
   midi.NoteOnEvent(tick=0, channel=3, data=[50, 79]),
   midi.NoteOnEvent(tick=480, channel=3, data=[50, 0]),
   midi.NoteOnEvent(tick=0, channel=3, data=[50, 79]),
   midi.NoteOnEvent(tick=480, channel=3, data=[50, 0]),
   midi.NoteOnEvent(tick=0, channel=3, data=[50, 79]),
   midi.NoteOnEvent(tick=960, channel=3, data=[50, 0]),
   midi.NoteOnEvent(tick=0, channel=3, data=[55, 79]),
   midi.NoteOnEvent(tick=480, channel=3, data=[55, 0]),
   midi.NoteOnEvent(tick=0, channel=3, data=[55, 79]),
   midi.NoteOnEvent(tick=480, channel=3, data=[55, 0]),
   midi.NoteOnEvent(tick=0, channel=3, data=[55, 79]),
   midi.NoteOnEvent(tick=960, channel=3, data=[55, 0]),
   midi.NoteOnEvent(tick=3840, channel=3, data=[50, 79]),
   midi.NoteOnEvent(tick=960, channel=3, data=[50, 0]),
   midi.NoteOnEvent(tick=0, channel=3, data=[43, 79]),
   midi.NoteOnEvent(tick=480, channel=3, data=[43, 0]),
   midi.ControlChangeEvent(tick=1103, channel=3, data=[7, 46]),
   midi.NoteOnEvent(tick=337, channel=3, data=[55, 79]),
   midi.NoteOnEvent(tick=480, channel=3, data=[55, 0]),
   midi.NoteOnEvent(tick=0, channel=3, data=[55, 79]),
   midi.NoteOnEvent(tick=480, channel=3, data=[55, 0]),
   midi.NoteOnEvent(tick=0, channel=3, data=[55, 79]),
   midi.NoteOnEvent(tick=960, channel=3, data=[55, 0]),
   midi.NoteOnEvent(tick=0, channel=3, data=[48, 79]),
   midi.NoteOnEvent(tick=480, channel=3, data=[48, 0]),
   midi.NoteOnEvent(tick=0, channel=3, data=[48, 79]),
   midi.NoteOnEvent(tick=480, channel=3, data=[48, 0]),
   midi.NoteOnEvent(tick=0, channel=3, data=[48, 79]),
   midi.NoteOnEvent(tick=960, channel=3, data=[48, 0]),
   midi.NoteOnEvent(tick=0, channel=3, data=[45, 79]),
   midi.NoteOnEvent(tick=480, channel=3, data=[45, 0]),
   midi.NoteOnEvent(tick=0, channel=3, data=[45, 79]),
   midi.NoteOnEvent(tick=480, channel=3, data=[45, 0]),
   midi.NoteOnEvent(tick=0, channel=3, data=[45, 79]),
   midi.NoteOnEvent(tick=960, channel=3, data=[45, 0]),
   midi.NoteOnEvent(tick=0, channel=3, data=[50, 79]),
   midi.NoteOnEvent(tick=480, channel=3, data=[50, 0]),
   midi.NoteOnEvent(tick=0, channel=3, data=[50, 79]),
   midi.NoteOnEvent(tick=480, channel=3, data=[50, 0]),
   midi.NoteOnEvent(tick=0, channel=3, data=[50, 79]),
   midi.NoteOnEvent(tick=960, channel=3, data=[50, 0]),
   midi.NoteOnEvent(tick=0, channel=3, data=[55, 79]),
   midi.NoteOnEvent(tick=480, channel=3, data=[55, 0]),
   midi.NoteOnEvent(tick=0, channel=3, data=[55, 79]),
   midi.NoteOnEvent(tick=480, channel=3, data=[55, 0]),
   midi.NoteOnEvent(tick=0, channel=3, data=[55, 79]),
   midi.ControlChangeEvent(tick=96, channel=3, data=[7, 96]),
   midi.NoteOnEvent(tick=864, channel=3, data=[55, 0]),
   midi.ControlChangeEvent(tick=1256, channel=3, data=[7, 96]),
   midi.ControlChangeEvent(tick=2120, channel=3, data=[7, 97]),
   midi.NoteOnEvent(tick=464, channel=3, data=[60, 79]),
   midi.NoteOnEvent(tick=240, channel=3, data=[60, 0]),
   midi.NoteOnEvent(tick=0, channel=3, data=[59, 79]),
   midi.NoteOnEvent(tick=240, channel=3, data=[59, 0]),
   midi.NoteOnEvent(tick=0, channel=3, data=[60, 79]),
   midi.NoteOnEvent(tick=240, channel=3, data=[60, 0]),
   midi.NoteOnEvent(tick=0, channel=3, data=[57, 79]),
   midi.NoteOnEvent(tick=240, channel=3, data=[57, 0]),
   midi.NoteOnEvent(tick=0, channel=3, data=[59, 79]),
   midi.NoteOnEvent(tick=240, channel=3, data=[59, 0]),
   midi.NoteOnEvent(tick=0, channel=3, data=[57, 79]),
   midi.NoteOnEvent(tick=240, channel=3, data=[57, 0]),
   midi.NoteOnEvent(tick=0, channel=3, data=[59, 79]),
   midi.ControlChangeEvent(tick=216, channel=3, data=[7, 98]),
   midi.NoteOnEvent(tick=24, channel=3, data=[59, 0]),
   midi.NoteOnEvent(tick=0, channel=3, data=[54, 79]),
   midi.NoteOnEvent(tick=240, channel=3, data=[54, 0]),
   midi.NoteOnEvent(tick=0, channel=3, data=[55, 79]),
   midi.NoteOnEvent(tick=240, channel=3, data=[55, 0]),
   midi.NoteOnEvent(tick=0, channel=3, data=[54, 79]),
   midi.NoteOnEvent(tick=240, channel=3, data=[54, 0]),
   midi.NoteOnEvent(tick=0, channel=3, data=[55, 79]),
   midi.NoteOnEvent(tick=240, channel=3, data=[55, 0]),
   midi.NoteOnEvent(tick=0, channel=3, data=[57, 79]),
   midi.NoteOnEvent(tick=240, channel=3, data=[57, 0]),
   midi.NoteOnEvent(tick=0, channel=3, data=[59, 79]),
   midi.NoteOnEvent(tick=480, channel=3, data=[59, 0]),
   midi.ControlChangeEvent(tick=416, channel=3, data=[7, 99]),
   midi.NoteOnEvent(tick=64, channel=3, data=[60, 79]),
   midi.NoteOnEvent(tick=240, channel=3, data=[60, 0]),
   midi.NoteOnEvent(tick=0, channel=3, data=[59, 79]),
   midi.NoteOnEvent(tick=240, channel=3, data=[59, 0]),
   midi.NoteOnEvent(tick=0, channel=3, data=[60, 79]),
   midi.NoteOnEvent(tick=240, channel=3, data=[60, 0]),
   midi.NoteOnEvent(tick=0, channel=3, data=[57, 79]),
   midi.NoteOnEvent(tick=240, channel=3, data=[57, 0]),
   midi.NoteOnEvent(tick=0, channel=3, data=[59, 79]),
   midi.NoteOnEvent(tick=240, channel=3, data=[59, 0]),
   midi.NoteOnEvent(tick=0, channel=3, data=[57, 79]),
   midi.NoteOnEvent(tick=240, channel=3, data=[57, 0]),
   midi.NoteOnEvent(tick=0, channel=3, data=[59, 79]),
   midi.NoteOnEvent(tick=240, channel=3, data=[59, 0]),
   midi.NoteOnEvent(tick=0, channel=3, data=[54, 79]),
   midi.NoteOnEvent(tick=240, channel=3, data=[54, 0]),
   midi.NoteOnEvent(tick=0, channel=3, data=[55, 79]),
   midi.ControlChangeEvent(tick=136, channel=3, data=[7, 100]),
   midi.NoteOnEvent(tick=104, channel=3, data=[55, 0]),
   midi.NoteOnEvent(tick=0, channel=3, data=[54, 79]),
   midi.NoteOnEvent(tick=240, channel=3, data=[54, 0]),
   midi.NoteOnEvent(tick=0, channel=3, data=[55, 79]),
   midi.NoteOnEvent(tick=240, channel=3, data=[55, 0]),
   midi.NoteOnEvent(tick=0, channel=3, data=[57, 79]),
   midi.NoteOnEvent(tick=240, channel=3, data=[57, 0]),
   midi.NoteOnEvent(tick=0, channel=3, data=[59, 79]),
   midi.NoteOnEvent(tick=480, channel=3, data=[59, 0]),
   midi.ControlChangeEvent(tick=815, channel=3, data=[7, 102]),
   midi.ControlChangeEvent(tick=577, channel=3, data=[7, 48]),
   midi.NoteOnEvent(tick=48, channel=3, data=[50, 36]),
   midi.NoteOnEvent(tick=1920, channel=3, data=[50, 0]),
   midi.NoteOnEvent(tick=0, channel=3, data=[43, 36]),
   midi.NoteOnEvent(tick=480, channel=3, data=[43, 0]),
   midi.ControlChangeEvent(tick=911, channel=3, data=[7, 48]),
   midi.EndOfTrackEvent(tick=0, data=[])])])
