midi.Pattern(format=1, resolution=120, tracks=\
[midi.Track(\
  [midi.PortEvent(tick=0, data=[0]),
   midi.SysexEvent(tick=0, channel=0, data=[5, 126, 127, 9, 1]),
   midi.PortEvent(tick=0, data=[0]),
   midi.TimeSignatureEvent(tick=0, data=[4, 2, 24, 8]),
   midi.KeySignatureEvent(tick=0, data=[0, 0]),
   midi.SetTempoEvent(tick=0, data=[11, 7, 204]),
   midi.EndOfTrackEvent(tick=0, data=[])]),
 midi.Track(\
  [midi.PortEvent(tick=0, data=[0]),
   midi.TrackNameEvent(tick=0, text='Edvard Grieg', data=[69, 100, 118, 97, 114, 100, 32, 71, 114, 105, 101, 103]),
   midi.ProgramChangeEvent(tick=0, channel=15, data=[48]),
   midi.ControlChangeEvent(tick=0, channel=15, data=[10, 80]),
   midi.ControlChangeEvent(tick=4, channel=15, data=[64, 0]),
   midi.ControlChangeEvent(tick=0, channel=15, data=[91, 95]),
   midi.ControlChangeEvent(tick=3960, channel=15, data=[7, 76]),
   midi.ControlChangeEvent(tick=185, channel=15, data=[7, 76]),
   midi.ControlChangeEvent(tick=40, channel=15, data=[7, 77]),
   midi.ControlChangeEvent(tick=30, channel=15, data=[7, 78]),
   midi.ControlChangeEvent(tick=25, channel=15, data=[7, 79]),
   midi.NoteOnEvent(tick=20, channel=15, data=[33, 109]),
   midi.ControlChangeEvent(tick=0, channel=15, data=[7, 79]),
   midi.NoteOnEvent(tick=15, channel=15, data=[33, 0]),
   midi.ControlChangeEvent(tick=0, channel=15, data=[7, 81]),
   midi.ControlChangeEvent(tick=35, channel=15, data=[7, 81]),
   midi.NoteOnEvent(tick=10, channel=15, data=[33, 109]),
   midi.NoteOnEvent(tick=15, channel=15, data=[33, 0]),
   midi.NoteOnEvent(tick=45, channel=15, data=[33, 109]),
   midi.NoteOnEvent(tick=15, channel=15, data=[33, 0]),
   midi.ControlChangeEvent(tick=10, channel=15, data=[7, 81]),
   midi.ControlChangeEvent(tick=10, channel=15, data=[7, 81]),
   midi.NoteOnEvent(tick=25, channel=15, data=[33, 109]),
   midi.NoteOnEvent(tick=50, channel=15, data=[33, 0]),
   midi.ControlChangeEvent(tick=60, channel=15, data=[7, 83]),
   midi.NoteOnEvent(tick=130, channel=15, data=[33, 109]),
   midi.NoteOnEvent(tick=40, channel=15, data=[33, 0]),
   midi.NoteOnEvent(tick=50, channel=15, data=[33, 109]),
   midi.NoteOnEvent(tick=20, channel=15, data=[33, 0]),
   midi.NoteOnEvent(tick=10, channel=15, data=[33, 109]),
   midi.NoteOnEvent(tick=20, channel=15, data=[33, 0]),
   midi.NoteOnEvent(tick=40, channel=15, data=[31, 109]),
   midi.NoteOnEvent(tick=20, channel=15, data=[31, 0]),
   midi.NoteOnEvent(tick=40, channel=15, data=[36, 109]),
   midi.NoteOnEvent(tick=50, channel=15, data=[36, 0]),
   midi.NoteOnEvent(tick=250, channel=15, data=[36, 109]),
   midi.NoteOnEvent(tick=15, channel=15, data=[36, 0]),
   midi.NoteOnEvent(tick=45, channel=15, data=[36, 109]),
   midi.NoteOnEvent(tick=15, channel=15, data=[36, 0]),
   midi.NoteOnEvent(tick=45, channel=15, data=[36, 109]),
   midi.NoteOnEvent(tick=15, channel=15, data=[36, 0]),
   midi.NoteOnEvent(tick=45, channel=15, data=[36, 109]),
   midi.NoteOnEvent(tick=50, channel=15, data=[36, 0]),
   midi.NoteOnEvent(tick=190, channel=15, data=[36, 109]),
   midi.NoteOnEvent(tick=50, channel=15, data=[36, 0]),
   midi.NoteOnEvent(tick=40, channel=15, data=[36, 109]),
   midi.NoteOnEvent(tick=20, channel=15, data=[36, 0]),
   midi.NoteOnEvent(tick=10, channel=15, data=[36, 109]),
   midi.NoteOnEvent(tick=20, channel=15, data=[36, 0]),
   midi.NoteOnEvent(tick=40, channel=15, data=[35, 109]),
   midi.NoteOnEvent(tick=20, channel=15, data=[35, 0]),
   midi.ControlChangeEvent(tick=60, channel=15, data=[7, 81]),
   midi.ControlChangeEvent(tick=20, channel=15, data=[7, 81]),
   midi.ControlChangeEvent(tick=10, channel=15, data=[7, 81]),
   midi.NoteOnEvent(tick=10, channel=15, data=[40, 89]),
   midi.ControlChangeEvent(tick=5, channel=15, data=[7, 80]),
   midi.NoteOnEvent(tick=20, channel=15, data=[40, 0]),
   midi.ControlChangeEvent(tick=0, channel=15, data=[7, 79]),
   midi.ControlChangeEvent(tick=20, channel=15, data=[7, 79]),
   midi.NoteOnEvent(tick=75, channel=15, data=[38, 89]),
   midi.NoteOnEvent(tick=25, channel=15, data=[38, 0]),
   midi.NoteOnEvent(tick=95, channel=15, data=[32, 89]),
   midi.NoteOnEvent(tick=25, channel=15, data=[32, 0]),
   midi.ControlChangeEvent(tick=75, channel=15, data=[7, 79]),
   midi.NoteOnEvent(tick=20, channel=15, data=[44, 89]),
   midi.ControlChangeEvent(tick=0, channel=15, data=[7, 80]),
   midi.NoteOnEvent(tick=25, channel=15, data=[44, 0]),
   midi.ControlChangeEvent(tick=0, channel=15, data=[7, 81]),
   midi.NoteOnEvent(tick=95, channel=15, data=[45, 89]),
   midi.NoteOnEvent(tick=25, channel=15, data=[45, 0]),
   midi.NoteOnEvent(tick=95, channel=15, data=[43, 89]),
   midi.ControlChangeEvent(tick=0, channel=15, data=[7, 81]),
   midi.ControlChangeEvent(tick=20, channel=15, data=[7, 81]),
   midi.NoteOnEvent(tick=5, channel=15, data=[43, 0]),
   midi.ControlChangeEvent(tick=10, channel=15, data=[7, 83]),
   midi.ControlChangeEvent(tick=45, channel=15, data=[7, 83]),
   midi.ControlChangeEvent(tick=20, channel=15, data=[7, 83]),
   midi.NoteOnEvent(tick=20, channel=15, data=[37, 89]),
   midi.NoteOnEvent(tick=25, channel=15, data=[37, 0]),
   midi.ControlChangeEvent(tick=20, channel=15, data=[7, 83]),
   midi.ControlChangeEvent(tick=65, channel=15, data=[7, 83]),
   midi.NoteOnEvent(tick=10, channel=15, data=[49, 89]),
   midi.NoteOnEvent(tick=25, channel=15, data=[49, 0]),
   midi.ControlChangeEvent(tick=40, channel=15, data=[7, 84]),
   midi.ControlChangeEvent(tick=25, channel=15, data=[7, 85]),
   midi.NoteOnEvent(tick=30, channel=15, data=[50, 89]),
   midi.ControlChangeEvent(tick=0, channel=15, data=[7, 86]),
   midi.NoteOnEvent(tick=25, channel=15, data=[50, 0]),
   midi.ControlChangeEvent(tick=15, channel=15, data=[7, 87]),
   midi.ControlChangeEvent(tick=25, channel=15, data=[7, 87]),
   midi.ControlChangeEvent(tick=20, channel=15, data=[7, 88]),
   midi.ControlChangeEvent(tick=20, channel=15, data=[7, 89]),
   midi.NoteOnEvent(tick=15, channel=15, data=[45, 89]),
   midi.ControlChangeEvent(tick=0, channel=15, data=[7, 89]),
   midi.ControlChangeEvent(tick=20, channel=15, data=[7, 90]),
   midi.NoteOnEvent(tick=5, channel=15, data=[45, 0]),
   midi.ControlChangeEvent(tick=25, channel=15, data=[7, 90]),
   midi.ControlChangeEvent(tick=65, channel=15, data=[7, 90]),
   midi.NoteOnEvent(tick=5, channel=15, data=[38, 89]),
   midi.NoteOnEvent(tick=25, channel=15, data=[38, 0]),
   midi.ControlChangeEvent(tick=35, channel=15, data=[7, 92]),
   midi.NoteOnEvent(tick=180, channel=15, data=[42, 89]),
   midi.NoteOnEvent(tick=25, channel=15, data=[42, 0]),
   midi.NoteOnEvent(tick=95, channel=15, data=[41, 89]),
   midi.NoteOnEvent(tick=25, channel=15, data=[41, 0]),
   midi.ControlChangeEvent(tick=85, channel=15, data=[7, 92]),
   midi.NoteOnEvent(tick=10, channel=15, data=[40, 89]),
   midi.ControlChangeEvent(tick=20, channel=15, data=[7, 93]),
   midi.NoteOnEvent(tick=5, channel=15, data=[40, 0]),
   midi.ControlChangeEvent(tick=40, channel=15, data=[7, 94]),
   midi.ControlChangeEvent(tick=45, channel=15, data=[7, 94]),
   midi.NoteOnEvent(tick=10, channel=15, data=[40, 89]),
   midi.ControlChangeEvent(tick=20, channel=15, data=[7, 94]),
   midi.NoteOnEvent(tick=5, channel=15, data=[40, 0]),
   midi.ControlChangeEvent(tick=30, channel=15, data=[7, 96]),
   midi.NoteOnEvent(tick=5, channel=15, data=[40, 109]),
   midi.ControlChangeEvent(tick=30, channel=15, data=[7, 96]),
   midi.NoteOnEvent(tick=85, channel=15, data=[40, 0]),
   midi.NoteOnEvent(tick=5, channel=15, data=[38, 109]),
   midi.ControlChangeEvent(tick=10, channel=15, data=[7, 96]),
   midi.ControlChangeEvent(tick=15, channel=15, data=[7, 94]),
   midi.ControlChangeEvent(tick=15, channel=15, data=[7, 94]),
   midi.NoteOnEvent(tick=75, channel=15, data=[38, 0]),
   midi.NoteOnEvent(tick=5, channel=15, data=[32, 109]),
   midi.ControlChangeEvent(tick=25, channel=15, data=[7, 94]),
   midi.ControlChangeEvent(tick=20, channel=15, data=[7, 96]),
   midi.ControlChangeEvent(tick=15, channel=15, data=[7, 96]),
   midi.ControlChangeEvent(tick=15, channel=15, data=[7, 96]),
   midi.ControlChangeEvent(tick=10, channel=15, data=[7, 96]),
   midi.ControlChangeEvent(tick=15, channel=15, data=[7, 98]),
   midi.ControlChangeEvent(tick=15, channel=15, data=[7, 99]),
   midi.ControlChangeEvent(tick=10, channel=15, data=[7, 100]),
   midi.ControlChangeEvent(tick=15, channel=15, data=[7, 101]),
   midi.ControlChangeEvent(tick=10, channel=15, data=[7, 101]),
   midi.ControlChangeEvent(tick=15, channel=15, data=[7, 103]),
   midi.ControlChangeEvent(tick=10, channel=15, data=[7, 105]),
   midi.ControlChangeEvent(tick=15, channel=15, data=[7, 106]),
   midi.ControlChangeEvent(tick=10, channel=15, data=[7, 107]),
   midi.ControlChangeEvent(tick=20, channel=15, data=[7, 108]),
   midi.NoteOnEvent(tick=10, channel=15, data=[32, 0]),
   midi.ControlChangeEvent(tick=0, channel=15, data=[7, 108]),
   midi.NoteOnEvent(tick=10, channel=15, data=[45, 109]),
   midi.ControlChangeEvent(tick=15, channel=15, data=[7, 108]),
   midi.ControlChangeEvent(tick=15, channel=15, data=[7, 103]),
   midi.ControlChangeEvent(tick=10, channel=15, data=[7, 101]),
   midi.ControlChangeEvent(tick=15, channel=15, data=[7, 100]),
   midi.ControlChangeEvent(tick=10, channel=15, data=[7, 98]),
   midi.ControlChangeEvent(tick=15, channel=15, data=[7, 96]),
   midi.ControlChangeEvent(tick=10, channel=15, data=[7, 94]),
   midi.ControlChangeEvent(tick=15, channel=15, data=[7, 92]),
   midi.NoteOnEvent(tick=10, channel=15, data=[45, 0]),
   midi.ControlChangeEvent(tick=0, channel=15, data=[7, 92]),
   midi.NoteOnEvent(tick=5, channel=15, data=[43, 109]),
   midi.ControlChangeEvent(tick=10, channel=15, data=[7, 90]),
   midi.ControlChangeEvent(tick=30, channel=15, data=[7, 92]),
   midi.ControlChangeEvent(tick=10, channel=15, data=[7, 94]),
   midi.ControlChangeEvent(tick=15, channel=15, data=[7, 94]),
   midi.ControlChangeEvent(tick=10, channel=15, data=[7, 96]),
   midi.ControlChangeEvent(tick=15, channel=15, data=[7, 96]),
   midi.ControlChangeEvent(tick=10, channel=15, data=[7, 96]),
   midi.NoteOnEvent(tick=15, channel=15, data=[43, 0]),
   midi.NoteOnEvent(tick=5, channel=15, data=[37, 109]),
   midi.ControlChangeEvent(tick=0, channel=15, data=[7, 96]),
   midi.ControlChangeEvent(tick=15, channel=15, data=[7, 96]),
   midi.ControlChangeEvent(tick=20, channel=15, data=[7, 98]),
   midi.ControlChangeEvent(tick=10, channel=15, data=[7, 98]),
   midi.ControlChangeEvent(tick=30, channel=15, data=[7, 99]),
   midi.ControlChangeEvent(tick=20, channel=15, data=[7, 99]),
   midi.ControlChangeEvent(tick=25, channel=15, data=[7, 100]),
   midi.ControlChangeEvent(tick=20, channel=15, data=[7, 101]),
   midi.ControlChangeEvent(tick=20, channel=15, data=[7, 101]),
   midi.ControlChangeEvent(tick=20, channel=15, data=[7, 101]),
   midi.ControlChangeEvent(tick=15, channel=15, data=[7, 102]),
   midi.NoteOnEvent(tick=35, channel=15, data=[37, 0]),
   midi.NoteOnEvent(tick=10, channel=15, data=[47, 109]),
   midi.ControlChangeEvent(tick=55, channel=15, data=[7, 101]),
   midi.ControlChangeEvent(tick=15, channel=15, data=[7, 101]),
   midi.ControlChangeEvent(tick=15, channel=15, data=[7, 101]),
   midi.ControlChangeEvent(tick=10, channel=15, data=[7, 101]),
   midi.ControlChangeEvent(tick=10, channel=15, data=[7, 99]),
   midi.NoteOnEvent(tick=10, channel=15, data=[47, 0]),
   midi.NoteOnEvent(tick=5, channel=15, data=[45, 109]),
   midi.ControlChangeEvent(tick=5, channel=15, data=[7, 99]),
   midi.ControlChangeEvent(tick=5, channel=15, data=[7, 98]),
   midi.ControlChangeEvent(tick=15, channel=15, data=[7, 98]),
   midi.ControlChangeEvent(tick=10, channel=15, data=[7, 96]),
   midi.ControlChangeEvent(tick=15, channel=15, data=[7, 96]),
   midi.ControlChangeEvent(tick=10, channel=15, data=[7, 96]),
   midi.NoteOnEvent(tick=55, channel=15, data=[45, 0]),
   midi.NoteOnEvent(tick=5, channel=15, data=[38, 109]),
   midi.ControlChangeEvent(tick=35, channel=15, data=[7, 96]),
   midi.ControlChangeEvent(tick=10, channel=15, data=[7, 99]),
   midi.ControlChangeEvent(tick=15, channel=15, data=[7, 101]),
   midi.ControlChangeEvent(tick=10, channel=15, data=[7, 104]),
   midi.ControlChangeEvent(tick=10, channel=15, data=[7, 106]),
   midi.ControlChangeEvent(tick=10, channel=15, data=[7, 107]),
   midi.NoteOnEvent(tick=25, channel=15, data=[38, 0]),
   midi.ControlChangeEvent(tick=25, channel=15, data=[7, 106]),
   midi.ControlChangeEvent(tick=10, channel=15, data=[7, 105]),
   midi.ControlChangeEvent(tick=10, channel=15, data=[7, 102]),
   midi.ControlChangeEvent(tick=10, channel=15, data=[7, 101]),
   midi.ControlChangeEvent(tick=10, channel=15, data=[7, 101]),
   midi.ControlChangeEvent(tick=10, channel=15, data=[7, 101]),
   midi.ControlChangeEvent(tick=10, channel=15, data=[7, 99]),
   midi.ControlChangeEvent(tick=10, channel=15, data=[7, 99]),
   midi.ControlChangeEvent(tick=10, channel=15, data=[7, 98]),
   midi.NoteOnEvent(tick=20, channel=15, data=[42, 109]),
   midi.ControlChangeEvent(tick=30, channel=15, data=[7, 96]),
   midi.ControlChangeEvent(tick=15, channel=15, data=[7, 96]),
   midi.ControlChangeEvent(tick=45, channel=15, data=[7, 96]),
   midi.ControlChangeEvent(tick=10, channel=15, data=[7, 96]),
   midi.ControlChangeEvent(tick=10, channel=15, data=[7, 94]),
   midi.ControlChangeEvent(tick=15, channel=15, data=[7, 94]),
   midi.ControlChangeEvent(tick=15, channel=15, data=[7, 94]),
   midi.NoteOnEvent(tick=35, channel=15, data=[42, 0]),
   midi.NoteOnEvent(tick=5, channel=15, data=[41, 109]),
   midi.ControlChangeEvent(tick=0, channel=15, data=[7, 93]),
   midi.ControlChangeEvent(tick=40, channel=15, data=[7, 92]),
   midi.NoteOnEvent(tick=10, channel=15, data=[41, 0]),
   midi.ControlChangeEvent(tick=0, channel=15, data=[7, 92]),
   midi.NoteOnEvent(tick=10, channel=15, data=[40, 105]),
   midi.ControlChangeEvent(tick=5, channel=15, data=[7, 90]),
   midi.ControlChangeEvent(tick=20, channel=15, data=[7, 90]),
   midi.NoteOnEvent(tick=30, channel=15, data=[40, 0]),
   midi.ControlChangeEvent(tick=15, channel=15, data=[7, 90]),
   midi.ControlChangeEvent(tick=10, channel=15, data=[7, 89]),
   midi.ControlChangeEvent(tick=25, channel=15, data=[7, 89]),
   midi.NoteOnEvent(tick=15, channel=15, data=[28, 97]),
   midi.NoteOnEvent(tick=55, channel=15, data=[28, 0]),
   midi.NoteOnEvent(tick=70, channel=15, data=[33, 90]),
   midi.NoteOnEvent(tick=55, channel=15, data=[33, 0]),
   midi.ControlChangeEvent(tick=50, channel=15, data=[7, 89]),
   midi.ControlChangeEvent(tick=15, channel=15, data=[7, 90]),
   midi.ControlChangeEvent(tick=30, channel=15, data=[7, 90]),
   midi.ControlChangeEvent(tick=90, channel=15, data=[7, 90]),
   midi.ControlChangeEvent(tick=15, channel=15, data=[7, 92]),
   midi.ControlChangeEvent(tick=10, channel=15, data=[7, 93]),
   midi.ControlChangeEvent(tick=20, channel=15, data=[7, 94]),
   midi.ControlChangeEvent(tick=10, channel=15, data=[7, 94]),
   midi.ControlChangeEvent(tick=20, channel=15, data=[7, 94]),
   midi.ControlChangeEvent(tick=10, channel=15, data=[7, 96]),
   midi.ControlChangeEvent(tick=40, channel=15, data=[7, 96]),
   midi.ControlChangeEvent(tick=110, channel=15, data=[7, 96]),
   midi.ControlChangeEvent(tick=10, channel=15, data=[7, 94]),
   midi.ControlChangeEvent(tick=30, channel=15, data=[7, 94]),
   midi.ControlChangeEvent(tick=10, channel=15, data=[7, 94]),
   midi.ControlChangeEvent(tick=85, channel=15, data=[7, 94]),
   midi.ControlChangeEvent(tick=15, channel=15, data=[7, 94]),
   midi.ControlChangeEvent(tick=40, channel=15, data=[7, 96]),
   midi.ControlChangeEvent(tick=35, channel=15, data=[7, 96]),
   midi.NoteOnEvent(tick=15, channel=15, data=[33, 109]),
   midi.NoteOnEvent(tick=40, channel=15, data=[33, 0]),
   midi.NoteOnEvent(tick=50, channel=15, data=[33, 109]),
   midi.NoteOnEvent(tick=20, channel=15, data=[33, 0]),
   midi.NoteOnEvent(tick=10, channel=15, data=[33, 109]),
   midi.NoteOnEvent(tick=20, channel=15, data=[33, 0]),
   midi.NoteOnEvent(tick=40, channel=15, data=[31, 109]),
   midi.NoteOnEvent(tick=20, channel=15, data=[31, 0]),
   midi.NoteOnEvent(tick=40, channel=15, data=[36, 86]),
   midi.NoteOnEvent(tick=40, channel=15, data=[36, 0]),
   midi.ControlChangeEvent(tick=50, channel=15, data=[7, 96]),
   midi.ControlChangeEvent(tick=70, channel=15, data=[7, 96]),
   midi.ControlChangeEvent(tick=20, channel=15, data=[7, 96]),
   midi.ControlChangeEvent(tick=475, channel=15, data=[7, 98]),
   midi.ControlChangeEvent(tick=10, channel=15, data=[7, 99]),
   midi.ControlChangeEvent(tick=15, channel=15, data=[7, 100]),
   midi.ControlChangeEvent(tick=10, channel=15, data=[7, 101]),
   midi.ControlChangeEvent(tick=25, channel=15, data=[7, 101]),
   midi.NoteOnEvent(tick=5, channel=15, data=[36, 109]),
   midi.ControlChangeEvent(tick=5, channel=15, data=[7, 101]),
   midi.ControlChangeEvent(tick=15, channel=15, data=[7, 101]),
   midi.NoteOnEvent(tick=20, channel=15, data=[36, 0]),
   midi.ControlChangeEvent(tick=0, channel=15, data=[7, 102]),
   midi.NoteOnEvent(tick=50, channel=15, data=[36, 109]),
   midi.NoteOnEvent(tick=20, channel=15, data=[36, 0]),
   midi.NoteOnEvent(tick=10, channel=15, data=[36, 109]),
   midi.NoteOnEvent(tick=20, channel=15, data=[36, 0]),
   midi.NoteOnEvent(tick=40, channel=15, data=[35, 109]),
   midi.ControlChangeEvent(tick=0, channel=15, data=[7, 102]),
   midi.NoteOnEvent(tick=20, channel=15, data=[35, 0]),
   midi.ControlChangeEvent(tick=10, channel=15, data=[7, 103]),
   midi.NoteOnEvent(tick=30, channel=15, data=[40, 92]),
   midi.NoteOnEvent(tick=60, channel=15, data=[40, 0]),
   midi.ControlChangeEvent(tick=20, channel=15, data=[7, 102]),
   midi.ControlChangeEvent(tick=10, channel=15, data=[7, 101]),
   midi.ControlChangeEvent(tick=15, channel=15, data=[7, 101]),
   midi.ControlChangeEvent(tick=10, channel=15, data=[7, 99]),
   midi.ControlChangeEvent(tick=15, channel=15, data=[7, 98]),
   midi.ControlChangeEvent(tick=10, channel=15, data=[7, 96]),
   midi.ControlChangeEvent(tick=15, channel=15, data=[7, 96]),
   midi.ControlChangeEvent(tick=1815, channel=15, data=[7, 96]),
   midi.ControlChangeEvent(tick=40, channel=15, data=[7, 96]),
   midi.ControlChangeEvent(tick=50, channel=15, data=[7, 96]),
   midi.ControlChangeEvent(tick=10, channel=15, data=[7, 98]),
   midi.ControlChangeEvent(tick=35, channel=15, data=[7, 98]),
   midi.ControlChangeEvent(tick=20, channel=15, data=[7, 99]),
   midi.ControlChangeEvent(tick=10, channel=15, data=[7, 99]),
   midi.ControlChangeEvent(tick=15, channel=15, data=[7, 100]),
   midi.ControlChangeEvent(tick=15, channel=15, data=[7, 101]),
   midi.ControlChangeEvent(tick=15, channel=15, data=[7, 101]),
   midi.ControlChangeEvent(tick=10, channel=15, data=[7, 101]),
   midi.ControlChangeEvent(tick=25, channel=15, data=[7, 101]),
   midi.ControlChangeEvent(tick=45, channel=15, data=[7, 102]),
   midi.ControlChangeEvent(tick=80, channel=15, data=[7, 101]),
   midi.ControlChangeEvent(tick=10, channel=15, data=[7, 101]),
   midi.ControlChangeEvent(tick=15, channel=15, data=[7, 101]),
   midi.ControlChangeEvent(tick=10, channel=15, data=[7, 99]),
   midi.ControlChangeEvent(tick=15, channel=15, data=[7, 98]),
   midi.ControlChangeEvent(tick=15, channel=15, data=[7, 96]),
   midi.ControlChangeEvent(tick=10, channel=15, data=[7, 96]),
   midi.ControlChangeEvent(tick=15, channel=15, data=[7, 94]),
   midi.ControlChangeEvent(tick=15, channel=15, data=[7, 94]),
   midi.ControlChangeEvent(tick=25, channel=15, data=[7, 94]),
   midi.ControlChangeEvent(tick=15, channel=15, data=[7, 96]),
   midi.ControlChangeEvent(tick=15, channel=15, data=[7, 96]),
   midi.ControlChangeEvent(tick=10, channel=15, data=[7, 96]),
   midi.ControlChangeEvent(tick=15, channel=15, data=[7, 96]),
   midi.ControlChangeEvent(tick=10, channel=15, data=[7, 98]),
   midi.ControlChangeEvent(tick=15, channel=15, data=[7, 99]),
   midi.ControlChangeEvent(tick=20, channel=15, data=[7, 99]),
   midi.ControlChangeEvent(tick=15, channel=15, data=[7, 100]),
   midi.ControlChangeEvent(tick=20, channel=15, data=[7, 101]),
   midi.ControlChangeEvent(tick=25, channel=15, data=[7, 101]),
   midi.ControlChangeEvent(tick=20, channel=15, data=[7, 101]),
   midi.ControlChangeEvent(tick=10, channel=15, data=[7, 101]),
   midi.ControlChangeEvent(tick=15, channel=15, data=[7, 102]),
   midi.ControlChangeEvent(tick=30, channel=15, data=[7, 102]),
   midi.ControlChangeEvent(tick=15, channel=15, data=[7, 103]),
   midi.ControlChangeEvent(tick=40, channel=15, data=[7, 104]),
   midi.ControlChangeEvent(tick=20, channel=15, data=[7, 105]),
   midi.ControlChangeEvent(tick=30, channel=15, data=[7, 106]),
   midi.ControlChangeEvent(tick=20, channel=15, data=[7, 107]),
   midi.ControlChangeEvent(tick=10, channel=15, data=[7, 108]),
   midi.ControlChangeEvent(tick=20, channel=15, data=[7, 108]),
   midi.ControlChangeEvent(tick=25, channel=15, data=[7, 109]),
   midi.ControlChangeEvent(tick=10, channel=15, data=[7, 109]),
   midi.ControlChangeEvent(tick=65, channel=15, data=[7, 109]),
   midi.ControlChangeEvent(tick=15, channel=15, data=[7, 108]),
   midi.ControlChangeEvent(tick=10, channel=15, data=[7, 107]),
   midi.ControlChangeEvent(tick=20, channel=15, data=[7, 106]),
   midi.ControlChangeEvent(tick=10, channel=15, data=[7, 104]),
   midi.ControlChangeEvent(tick=10, channel=15, data=[7, 102]),
   midi.ControlChangeEvent(tick=15, channel=15, data=[7, 101]),
   midi.ControlChangeEvent(tick=10, channel=15, data=[7, 101]),
   midi.ControlChangeEvent(tick=10, channel=15, data=[7, 99]),
   midi.ControlChangeEvent(tick=15, channel=15, data=[7, 98]),
   midi.ControlChangeEvent(tick=10, channel=15, data=[7, 96]),
   midi.ControlChangeEvent(tick=15, channel=15, data=[7, 96]),
   midi.ControlChangeEvent(tick=10, channel=15, data=[7, 94]),
   midi.ControlChangeEvent(tick=10, channel=15, data=[7, 93]),
   midi.ControlChangeEvent(tick=15, channel=15, data=[7, 92]),
   midi.ControlChangeEvent(tick=10, channel=15, data=[7, 90]),
   midi.ControlChangeEvent(tick=15, channel=15, data=[7, 90]),
   midi.ControlChangeEvent(tick=30, channel=15, data=[7, 90]),
   midi.ControlChangeEvent(tick=345, channel=15, data=[7, 90]),
   midi.ControlChangeEvent(tick=10, channel=15, data=[7, 90]),
   midi.ControlChangeEvent(tick=20, channel=15, data=[7, 92]),
   midi.ControlChangeEvent(tick=40, channel=15, data=[7, 92]),
   midi.NoteOnEvent(tick=115, channel=15, data=[40, 109]),
   midi.NoteOnEvent(tick=30, channel=15, data=[40, 0]),
   midi.NoteOnEvent(tick=90, channel=15, data=[33, 109]),
   midi.NoteOnEvent(tick=30, channel=15, data=[33, 0]),
   midi.ControlChangeEvent(tick=25, channel=15, data=[7, 92]),
   midi.ControlChangeEvent(tick=80, channel=15, data=[7, 92]),
   midi.ControlChangeEvent(tick=20, channel=15, data=[7, 94]),
   midi.ControlChangeEvent(tick=20, channel=15, data=[7, 94]),
   midi.ControlChangeEvent(tick=40, channel=15, data=[7, 94]),
   midi.NoteOnEvent(tick=25, channel=15, data=[33, 109]),
   midi.ControlChangeEvent(tick=10, channel=15, data=[7, 96]),
   midi.ControlChangeEvent(tick=15, channel=15, data=[7, 96]),
   midi.NoteOnEvent(tick=5, channel=15, data=[33, 0]),
   midi.ControlChangeEvent(tick=15, channel=15, data=[7, 96]),
   midi.ControlChangeEvent(tick=45, channel=15, data=[7, 96]),
   midi.ControlChangeEvent(tick=40, channel=15, data=[7, 96]),
   midi.ControlChangeEvent(tick=15, channel=15, data=[7, 98]),
   midi.ControlChangeEvent(tick=20, channel=15, data=[7, 98]),
   midi.ControlChangeEvent(tick=55, channel=15, data=[7, 99]),
   midi.NoteOnEvent(tick=20, channel=15, data=[33, 109]),
   midi.NoteOnEvent(tick=30, channel=15, data=[33, 0]),
   midi.ControlChangeEvent(tick=320, channel=15, data=[7, 99]),
   midi.ControlChangeEvent(tick=20, channel=15, data=[7, 100]),
   midi.ControlChangeEvent(tick=30, channel=15, data=[7, 101]),
   midi.ControlChangeEvent(tick=60, channel=15, data=[7, 101]),
   midi.NoteOnEvent(tick=20, channel=15, data=[28, 120]),
   midi.ControlChangeEvent(tick=10, channel=15, data=[7, 101]),
   midi.NoteOnEvent(tick=10, channel=15, data=[28, 0]),
   midi.ControlChangeEvent(tick=15, channel=15, data=[7, 101]),
   midi.ControlChangeEvent(tick=300, channel=15, data=[7, 101]),
   midi.ControlChangeEvent(tick=15, channel=15, data=[7, 101]),
   midi.ControlChangeEvent(tick=30, channel=15, data=[7, 101]),
   midi.ControlChangeEvent(tick=250, channel=15, data=[7, 100]),
   midi.ControlChangeEvent(tick=145, channel=15, data=[7, 101]),
   midi.ControlChangeEvent(tick=75, channel=15, data=[7, 101]),
   midi.ControlChangeEvent(tick=20, channel=15, data=[7, 101]),
   midi.ControlChangeEvent(tick=15, channel=15, data=[7, 107]),
   midi.NoteOnEvent(tick=15, channel=15, data=[28, 120]),
   midi.ControlChangeEvent(tick=5, channel=15, data=[7, 111]),
   midi.NoteOnEvent(tick=15, channel=15, data=[28, 0]),
   midi.ControlChangeEvent(tick=0, channel=15, data=[7, 114]),
   midi.NoteOnEvent(tick=40, channel=15, data=[33, 109]),
   midi.ControlChangeEvent(tick=10, channel=15, data=[7, 110]),
   midi.NoteOnEvent(tick=20, channel=15, data=[33, 0]),
   midi.ControlChangeEvent(tick=0, channel=15, data=[7, 101]),
   midi.ControlChangeEvent(tick=15, channel=15, data=[7, 98]),
   midi.ControlChangeEvent(tick=15, channel=15, data=[7, 98]),
   midi.NoteOnEvent(tick=180, channel=15, data=[33, 109]),
   midi.NoteOnEvent(tick=30, channel=15, data=[33, 0]),
   midi.NoteOnEvent(tick=210, channel=15, data=[33, 109]),
   midi.NoteOnEvent(tick=30, channel=15, data=[33, 0]),
   midi.ControlChangeEvent(tick=20, channel=15, data=[7, 98]),
   midi.ControlChangeEvent(tick=350, channel=15, data=[7, 99]),
   midi.ControlChangeEvent(tick=20, channel=15, data=[7, 100]),
   midi.ControlChangeEvent(tick=20, channel=15, data=[7, 101]),
   midi.ControlChangeEvent(tick=20, channel=15, data=[7, 102]),
   midi.NoteOnEvent(tick=20, channel=15, data=[26, 109]),
   midi.ControlChangeEvent(tick=0, channel=15, data=[7, 103]),
   midi.NoteOnEvent(tick=30, channel=15, data=[26, 0]),
   midi.ControlChangeEvent(tick=25, channel=15, data=[7, 104]),
   midi.ControlChangeEvent(tick=20, channel=15, data=[7, 105]),
   midi.ControlChangeEvent(tick=1375, channel=15, data=[7, 103]),
   midi.ControlChangeEvent(tick=25, channel=15, data=[7, 102]),
   midi.ControlChangeEvent(tick=20, channel=15, data=[7, 101]),
   midi.ControlChangeEvent(tick=20, channel=15, data=[7, 101]),
   midi.ControlChangeEvent(tick=35, channel=15, data=[7, 101]),
   midi.ControlChangeEvent(tick=75, channel=15, data=[7, 100]),
   midi.ControlChangeEvent(tick=180, channel=15, data=[7, 101]),
   midi.ControlChangeEvent(tick=555, channel=15, data=[7, 100]),
   midi.ControlChangeEvent(tick=35, channel=15, data=[7, 99]),
   midi.ControlChangeEvent(tick=20, channel=15, data=[7, 99]),
   midi.ControlChangeEvent(tick=20, channel=15, data=[7, 98]),
   midi.ControlChangeEvent(tick=15, channel=15, data=[7, 96]),
   midi.ControlChangeEvent(tick=20, channel=15, data=[7, 96]),
   midi.ControlChangeEvent(tick=20, channel=15, data=[7, 96]),
   midi.ControlChangeEvent(tick=20, channel=15, data=[7, 96]),
   midi.ControlChangeEvent(tick=15, channel=15, data=[7, 94]),
   midi.ControlChangeEvent(tick=20, channel=15, data=[7, 94]),
   midi.ControlChangeEvent(tick=20, channel=15, data=[7, 93]),
   midi.ControlChangeEvent(tick=25, channel=15, data=[7, 92]),
   midi.ControlChangeEvent(tick=15, channel=15, data=[7, 92]),
   midi.ControlChangeEvent(tick=35, channel=15, data=[7, 90]),
   midi.ControlChangeEvent(tick=30, channel=15, data=[7, 90]),
   midi.ControlChangeEvent(tick=25, channel=15, data=[7, 90]),
   midi.ControlChangeEvent(tick=35, channel=15, data=[7, 89]),
   midi.ControlChangeEvent(tick=40, channel=15, data=[7, 89]),
   midi.NoteOnEvent(tick=110, channel=15, data=[31, 109]),
   midi.ControlChangeEvent(tick=175, channel=15, data=[7, 89]),
   midi.ControlChangeEvent(tick=20, channel=15, data=[7, 90]),
   midi.ControlChangeEvent(tick=15, channel=15, data=[7, 90]),
   midi.ControlChangeEvent(tick=170, channel=15, data=[7, 90]),
   midi.ControlChangeEvent(tick=25, channel=15, data=[7, 89]),
   midi.NoteOnEvent(tick=75, channel=15, data=[31, 0]),
   midi.NoteOnEvent(tick=0, channel=15, data=[31, 109]),
   midi.NoteOnEvent(tick=1, channel=15, data=[31, 0]),
   midi.ControlChangeEvent(tick=29, channel=15, data=[7, 90]),
   midi.ControlChangeEvent(tick=105, channel=15, data=[7, 90]),
   midi.ControlChangeEvent(tick=50, channel=15, data=[7, 90]),
   midi.ControlChangeEvent(tick=25, channel=15, data=[7, 92]),
   midi.ControlChangeEvent(tick=35, channel=15, data=[7, 92]),
   midi.ControlChangeEvent(tick=45, channel=15, data=[7, 93]),
   midi.ControlChangeEvent(tick=70, channel=15, data=[7, 94]),
   midi.ControlChangeEvent(tick=30, channel=15, data=[7, 94]),
   midi.ControlChangeEvent(tick=25, channel=15, data=[7, 94]),
   midi.ControlChangeEvent(tick=55, channel=15, data=[7, 96]),
   midi.NoteOnEvent(tick=10, channel=15, data=[31, 109]),
   midi.NoteOnEvent(tick=1, channel=15, data=[31, 0]),
   midi.ControlChangeEvent(tick=19, channel=15, data=[7, 96]),
   midi.ControlChangeEvent(tick=55, channel=15, data=[7, 96]),
   midi.ControlChangeEvent(tick=50, channel=15, data=[7, 96]),
   midi.ControlChangeEvent(tick=45, channel=15, data=[7, 96]),
   midi.ControlChangeEvent(tick=35, channel=15, data=[7, 98]),
   midi.ControlChangeEvent(tick=35, channel=15, data=[7, 98]),
   midi.ControlChangeEvent(tick=25, channel=15, data=[7, 99]),
   midi.ControlChangeEvent(tick=20, channel=15, data=[7, 99]),
   midi.NoteOnEvent(tick=15, channel=15, data=[31, 109]),
   midi.ControlChangeEvent(tick=0, channel=15, data=[7, 100]),
   midi.ControlChangeEvent(tick=30, channel=15, data=[7, 101]),
   midi.ControlChangeEvent(tick=20, channel=15, data=[7, 101]),
   midi.NoteOnEvent(tick=5, channel=15, data=[31, 0]),
   midi.NoteOnEvent(tick=5, channel=15, data=[31, 109]),
   midi.ControlChangeEvent(tick=25, channel=15, data=[7, 101]),
   midi.NoteOnEvent(tick=30, channel=15, data=[31, 0]),
   midi.NoteOnEvent(tick=5, channel=15, data=[31, 109]),
   midi.ControlChangeEvent(tick=5, channel=15, data=[7, 101]),
   midi.ControlChangeEvent(tick=25, channel=15, data=[7, 102]),
   midi.NoteOnEvent(tick=25, channel=15, data=[31, 0]),
   midi.ControlChangeEvent(tick=0, channel=15, data=[7, 102]),
   midi.NoteOnEvent(tick=5, channel=15, data=[31, 109]),
   midi.ControlChangeEvent(tick=20, channel=15, data=[7, 103]),
   midi.ControlChangeEvent(tick=25, channel=15, data=[7, 104]),
   midi.NoteOnEvent(tick=10, channel=15, data=[31, 0]),
   midi.NoteOnEvent(tick=5, channel=15, data=[31, 109]),
   midi.NoteOnEvent(tick=55, channel=15, data=[31, 0]),
   midi.NoteOnEvent(tick=5, channel=15, data=[31, 109]),
   midi.ControlChangeEvent(tick=25, channel=15, data=[7, 105]),
   midi.NoteOnEvent(tick=30, channel=15, data=[31, 0]),
   midi.NoteOnEvent(tick=5, channel=15, data=[31, 109]),
   midi.ControlChangeEvent(tick=30, channel=15, data=[7, 106]),
   midi.NoteOnEvent(tick=25, channel=15, data=[31, 0]),
   midi.NoteOnEvent(tick=5, channel=15, data=[31, 109]),
   midi.ControlChangeEvent(tick=20, channel=15, data=[7, 107]),
   midi.NoteOnEvent(tick=35, channel=15, data=[31, 0]),
   midi.ControlChangeEvent(tick=0, channel=15, data=[7, 108]),
   midi.NoteOnEvent(tick=5, channel=15, data=[31, 109]),
   midi.ControlChangeEvent(tick=35, channel=15, data=[7, 108]),
   midi.NoteOnEvent(tick=20, channel=15, data=[31, 0]),
   midi.NoteOnEvent(tick=5, channel=15, data=[31, 109]),
   midi.ControlChangeEvent(tick=10, channel=15, data=[7, 109]),
   midi.ControlChangeEvent(tick=30, channel=15, data=[7, 109]),
   midi.NoteOnEvent(tick=15, channel=15, data=[31, 0]),
   midi.NoteOnEvent(tick=5, channel=15, data=[31, 109]),
   midi.ControlChangeEvent(tick=0, channel=15, data=[7, 109]),
   midi.ControlChangeEvent(tick=25, channel=15, data=[7, 110]),
   midi.NoteOnEvent(tick=30, channel=15, data=[31, 0]),
   midi.ControlChangeEvent(tick=0, channel=15, data=[7, 110]),
   midi.NoteOnEvent(tick=5, channel=15, data=[31, 109]),
   midi.ControlChangeEvent(tick=35, channel=15, data=[7, 111]),
   midi.NoteOnEvent(tick=20, channel=15, data=[31, 0]),
   midi.ControlChangeEvent(tick=45, channel=15, data=[7, 112]),
   midi.ControlChangeEvent(tick=155, channel=15, data=[7, 111]),
   midi.ControlChangeEvent(tick=15, channel=15, data=[7, 110]),
   midi.ControlChangeEvent(tick=10, channel=15, data=[7, 110]),
   midi.ControlChangeEvent(tick=15, channel=15, data=[7, 109]),
   midi.ControlChangeEvent(tick=10, channel=15, data=[7, 109]),
   midi.ControlChangeEvent(tick=35, channel=15, data=[7, 109]),
   midi.ControlChangeEvent(tick=75, channel=15, data=[7, 108]),
   midi.ControlChangeEvent(tick=5, channel=15, data=[7, 107]),
   midi.ControlChangeEvent(tick=10, channel=15, data=[7, 105]),
   midi.ControlChangeEvent(tick=5, channel=15, data=[7, 103]),
   midi.ControlChangeEvent(tick=5, channel=15, data=[7, 102]),
   midi.ControlChangeEvent(tick=10, channel=15, data=[7, 102]),
   midi.ControlChangeEvent(tick=5, channel=15, data=[7, 101]),
   midi.ControlChangeEvent(tick=10, channel=15, data=[7, 101]),
   midi.ControlChangeEvent(tick=5, channel=15, data=[7, 101]),
   midi.ControlChangeEvent(tick=10, channel=15, data=[7, 100]),
   midi.NoteOnEvent(tick=0, channel=15, data=[43, 94]),
   midi.ControlChangeEvent(tick=10, channel=15, data=[7, 99]),
   midi.ControlChangeEvent(tick=15, channel=15, data=[7, 99]),
   midi.ControlChangeEvent(tick=10, channel=15, data=[7, 98]),
   midi.ControlChangeEvent(tick=15, channel=15, data=[7, 98]),
   midi.ControlChangeEvent(tick=10, channel=15, data=[7, 96]),
   midi.ControlChangeEvent(tick=15, channel=15, data=[7, 96]),
   midi.ControlChangeEvent(tick=25, channel=15, data=[7, 96]),
   midi.NoteOnEvent(tick=20, channel=15, data=[43, 0]),
   midi.NoteOnEvent(tick=0, channel=15, data=[41, 94]),
   midi.ControlChangeEvent(tick=5, channel=15, data=[7, 96]),
   midi.ControlChangeEvent(tick=40, channel=15, data=[7, 96]),
   midi.ControlChangeEvent(tick=25, channel=15, data=[7, 94]),
   midi.ControlChangeEvent(tick=20, channel=15, data=[7, 94]),
   midi.ControlChangeEvent(tick=20, channel=15, data=[7, 94]),
   midi.NoteOnEvent(tick=10, channel=15, data=[41, 0]),
   midi.NoteOnEvent(tick=0, channel=15, data=[40, 94]),
   midi.ControlChangeEvent(tick=10, channel=15, data=[7, 93]),
   midi.ControlChangeEvent(tick=30, channel=15, data=[7, 92]),
   midi.ControlChangeEvent(tick=20, channel=15, data=[7, 92]),
   midi.ControlChangeEvent(tick=20, channel=15, data=[7, 90]),
   midi.ControlChangeEvent(tick=20, channel=15, data=[7, 90]),
   midi.NoteOnEvent(tick=20, channel=15, data=[40, 0]),
   midi.NoteOnEvent(tick=0, channel=15, data=[38, 94]),
   midi.ControlChangeEvent(tick=5, channel=15, data=[7, 90]),
   midi.ControlChangeEvent(tick=15, channel=15, data=[7, 89]),
   midi.ControlChangeEvent(tick=40, channel=15, data=[7, 89]),
   midi.ControlChangeEvent(tick=25, channel=15, data=[7, 88]),
   midi.NoteOnEvent(tick=35, channel=15, data=[38, 0]),
   midi.NoteOnEvent(tick=0, channel=15, data=[36, 94]),
   midi.ControlChangeEvent(tick=10, channel=15, data=[7, 87]),
   midi.ControlChangeEvent(tick=95, channel=15, data=[7, 87]),
   midi.NoteOnEvent(tick=10, channel=15, data=[36, 0]),
   midi.NoteOnEvent(tick=545, channel=15, data=[38, 94]),
   midi.ControlChangeEvent(tick=25, channel=15, data=[7, 85]),
   midi.ControlChangeEvent(tick=10, channel=15, data=[7, 85]),
   midi.NoteOnEvent(tick=25, channel=15, data=[38, 0]),
   midi.NoteOnEvent(tick=0, channel=15, data=[43, 94]),
   midi.ControlChangeEvent(tick=15, channel=15, data=[7, 84]),
   midi.ControlChangeEvent(tick=75, channel=15, data=[7, 84]),
   midi.NoteOnEvent(tick=145, channel=15, data=[43, 0]),
   midi.ControlChangeEvent(tick=395, channel=15, data=[7, 84]),
   midi.ControlChangeEvent(tick=15, channel=15, data=[7, 85]),
   midi.ControlChangeEvent(tick=10, channel=15, data=[7, 86]),
   midi.ControlChangeEvent(tick=15, channel=15, data=[7, 87]),
   midi.ControlChangeEvent(tick=10, channel=15, data=[7, 87]),
   midi.ControlChangeEvent(tick=15, channel=15, data=[7, 88]),
   midi.ControlChangeEvent(tick=15, channel=15, data=[7, 89]),
   midi.ControlChangeEvent(tick=15, channel=15, data=[7, 89]),
   midi.ControlChangeEvent(tick=15, channel=15, data=[7, 90]),
   midi.ControlChangeEvent(tick=20, channel=15, data=[7, 90]),
   midi.ControlChangeEvent(tick=20, channel=15, data=[7, 90]),
   midi.ControlChangeEvent(tick=30, channel=15, data=[7, 92]),
   midi.ControlChangeEvent(tick=35, channel=15, data=[7, 92]),
   midi.ControlChangeEvent(tick=15, channel=15, data=[7, 93]),
   midi.ControlChangeEvent(tick=25, channel=15, data=[7, 94]),
   midi.NoteOnEvent(tick=15, channel=15, data=[38, 94]),
   midi.ControlChangeEvent(tick=0, channel=15, data=[7, 94]),
   midi.ControlChangeEvent(tick=15, channel=15, data=[7, 94]),
   midi.ControlChangeEvent(tick=15, channel=15, data=[7, 96]),
   midi.ControlChangeEvent(tick=20, channel=15, data=[7, 96]),
   midi.NoteOnEvent(tick=10, channel=15, data=[38, 0]),
   midi.NoteOnEvent(tick=0, channel=15, data=[43, 94]),
   midi.ControlChangeEvent(tick=20, channel=15, data=[7, 96]),
   midi.ControlChangeEvent(tick=20, channel=15, data=[7, 96]),
   midi.ControlChangeEvent(tick=20, channel=15, data=[7, 96]),
   midi.ControlChangeEvent(tick=20, channel=15, data=[7, 98]),
   midi.ControlChangeEvent(tick=30, channel=15, data=[7, 98]),
   midi.ControlChangeEvent(tick=65, channel=15, data=[7, 98]),
   midi.NoteOnEvent(tick=60, channel=15, data=[43, 0]),
   midi.NoteOnEvent(tick=5, channel=15, data=[36, 94]),
   midi.NoteOnEvent(tick=115, channel=15, data=[36, 0]),
   midi.ControlChangeEvent(tick=135, channel=15, data=[7, 98]),
   midi.ControlChangeEvent(tick=5, channel=15, data=[7, 98]),
   midi.ControlChangeEvent(tick=10, channel=15, data=[7, 96]),
   midi.ControlChangeEvent(tick=5, channel=15, data=[7, 96]),
   midi.ControlChangeEvent(tick=10, channel=15, data=[7, 96]),
   midi.ControlChangeEvent(tick=5, channel=15, data=[7, 94]),
   midi.ControlChangeEvent(tick=10, channel=15, data=[7, 94]),
   midi.ControlChangeEvent(tick=5, channel=15, data=[7, 93]),
   midi.ControlChangeEvent(tick=10, channel=15, data=[7, 92]),
   midi.ControlChangeEvent(tick=10, channel=15, data=[7, 92]),
   midi.ControlChangeEvent(tick=10, channel=15, data=[7, 90]),
   midi.ControlChangeEvent(tick=20, channel=15, data=[7, 90]),
   midi.ControlChangeEvent(tick=10, channel=15, data=[7, 90]),
   midi.ControlChangeEvent(tick=55, channel=15, data=[7, 89]),
   midi.ControlChangeEvent(tick=15, channel=15, data=[7, 89]),
   midi.ControlChangeEvent(tick=5, channel=15, data=[7, 88]),
   midi.ControlChangeEvent(tick=10, channel=15, data=[7, 86]),
   midi.ControlChangeEvent(tick=45, channel=15, data=[7, 87]),
   midi.ControlChangeEvent(tick=5, channel=15, data=[7, 88]),
   midi.ControlChangeEvent(tick=10, channel=15, data=[7, 89]),
   midi.ControlChangeEvent(tick=15, channel=15, data=[7, 89]),
   midi.ControlChangeEvent(tick=15, channel=15, data=[7, 90]),
   midi.ControlChangeEvent(tick=10, channel=15, data=[7, 90]),
   midi.ControlChangeEvent(tick=25, channel=15, data=[7, 90]),
   midi.ControlChangeEvent(tick=80, channel=15, data=[7, 90]),
   midi.ControlChangeEvent(tick=20, channel=15, data=[7, 90]),
   midi.ControlChangeEvent(tick=10, channel=15, data=[7, 89]),
   midi.ControlChangeEvent(tick=10, channel=15, data=[7, 89]),
   midi.ControlChangeEvent(tick=10, channel=15, data=[7, 88]),
   midi.ControlChangeEvent(tick=15, channel=15, data=[7, 87]),
   midi.ControlChangeEvent(tick=10, channel=15, data=[7, 87]),
   midi.ControlChangeEvent(tick=20, channel=15, data=[7, 86]),
   midi.ControlChangeEvent(tick=15, channel=15, data=[7, 85]),
   midi.ControlChangeEvent(tick=35, channel=15, data=[7, 84]),
   midi.ControlChangeEvent(tick=20, channel=15, data=[7, 84]),
   midi.ControlChangeEvent(tick=65, channel=15, data=[7, 83]),
   midi.ControlChangeEvent(tick=10, channel=15, data=[7, 83]),
   midi.ControlChangeEvent(tick=280, channel=15, data=[7, 83]),
   midi.ControlChangeEvent(tick=5, channel=15, data=[7, 84]),
   midi.ControlChangeEvent(tick=10, channel=15, data=[7, 84]),
   midi.ControlChangeEvent(tick=5, channel=15, data=[7, 85]),
   midi.ControlChangeEvent(tick=10, channel=15, data=[7, 86]),
   midi.ControlChangeEvent(tick=10, channel=15, data=[7, 87]),
   midi.ControlChangeEvent(tick=10, channel=15, data=[7, 87]),
   midi.ControlChangeEvent(tick=5, channel=15, data=[7, 88]),
   midi.ControlChangeEvent(tick=30, channel=15, data=[7, 89]),
   midi.ControlChangeEvent(tick=15, channel=15, data=[7, 89]),
   midi.ControlChangeEvent(tick=20, channel=15, data=[7, 90]),
   midi.ControlChangeEvent(tick=90, channel=15, data=[7, 90]),
   midi.ControlChangeEvent(tick=10, channel=15, data=[7, 90]),
   midi.ControlChangeEvent(tick=20, channel=15, data=[7, 92]),
   midi.ControlChangeEvent(tick=25, channel=15, data=[7, 92]),
   midi.ControlChangeEvent(tick=40, channel=15, data=[7, 93]),
   midi.ControlChangeEvent(tick=15, channel=15, data=[7, 92]),
   midi.ControlChangeEvent(tick=10, channel=15, data=[7, 92]),
   midi.ControlChangeEvent(tick=10, channel=15, data=[7, 90]),
   midi.ControlChangeEvent(tick=5, channel=15, data=[7, 90]),
   midi.ControlChangeEvent(tick=10, channel=15, data=[7, 89]),
   midi.ControlChangeEvent(tick=10, channel=15, data=[7, 89]),
   midi.ControlChangeEvent(tick=15, channel=15, data=[7, 88]),
   midi.ControlChangeEvent(tick=10, channel=15, data=[7, 87]),
   midi.ControlChangeEvent(tick=5, channel=15, data=[7, 87]),
   midi.ControlChangeEvent(tick=5, channel=15, data=[7, 86]),
   midi.ControlChangeEvent(tick=10, channel=15, data=[7, 85]),
   midi.ControlChangeEvent(tick=10, channel=15, data=[7, 84]),
   midi.ControlChangeEvent(tick=10, channel=15, data=[7, 84]),
   midi.ControlChangeEvent(tick=15, channel=15, data=[7, 83]),
   midi.ControlChangeEvent(tick=10, channel=15, data=[7, 83]),
   midi.ControlChangeEvent(tick=50, channel=15, data=[7, 83]),
   midi.ControlChangeEvent(tick=50, channel=15, data=[7, 83]),
   midi.ControlChangeEvent(tick=15, channel=15, data=[7, 83]),
   midi.ControlChangeEvent(tick=30, channel=15, data=[7, 81]),
   midi.ControlChangeEvent(tick=40, channel=15, data=[7, 83]),
   midi.ControlChangeEvent(tick=10, channel=15, data=[7, 83]),
   midi.ControlChangeEvent(tick=245, channel=15, data=[7, 83]),
   midi.ControlChangeEvent(tick=300, channel=15, data=[7, 83]),
   midi.ControlChangeEvent(tick=195, channel=15, data=[7, 83]),
   midi.ControlChangeEvent(tick=30, channel=15, data=[7, 84]),
   midi.ControlChangeEvent(tick=40, channel=15, data=[7, 84]),
   midi.ControlChangeEvent(tick=25, channel=15, data=[7, 85]),
   midi.ControlChangeEvent(tick=20, channel=15, data=[7, 86]),
   midi.ControlChangeEvent(tick=15, channel=15, data=[7, 87]),
   midi.ControlChangeEvent(tick=15, channel=15, data=[7, 87]),
   midi.ControlChangeEvent(tick=20, channel=15, data=[7, 88]),
   midi.ControlChangeEvent(tick=10, channel=15, data=[7, 89]),
   midi.ControlChangeEvent(tick=15, channel=15, data=[7, 89]),
   midi.ControlChangeEvent(tick=15, channel=15, data=[7, 90]),
   midi.ControlChangeEvent(tick=20, channel=15, data=[7, 90]),
   midi.ControlChangeEvent(tick=240, channel=15, data=[7, 90]),
   midi.ControlChangeEvent(tick=30, channel=15, data=[7, 92]),
   midi.ControlChangeEvent(tick=15, channel=15, data=[7, 92]),
   midi.ControlChangeEvent(tick=10, channel=15, data=[7, 93]),
   midi.ControlChangeEvent(tick=15, channel=15, data=[7, 94]),
   midi.ControlChangeEvent(tick=20, channel=15, data=[7, 94]),
   midi.ControlChangeEvent(tick=10, channel=15, data=[7, 94]),
   midi.ControlChangeEvent(tick=10, channel=15, data=[7, 96]),
   midi.ControlChangeEvent(tick=10, channel=15, data=[7, 96]),
   midi.ControlChangeEvent(tick=10, channel=15, data=[7, 96]),
   midi.ControlChangeEvent(tick=15, channel=15, data=[7, 96]),
   midi.ControlChangeEvent(tick=15, channel=15, data=[7, 98]),
   midi.ControlChangeEvent(tick=5, channel=15, data=[7, 98]),
   midi.ControlChangeEvent(tick=20, channel=15, data=[7, 98]),
   midi.ControlChangeEvent(tick=5, channel=15, data=[7, 99]),
   midi.ControlChangeEvent(tick=105, channel=15, data=[7, 98]),
   midi.ControlChangeEvent(tick=15, channel=15, data=[7, 98]),
   midi.ControlChangeEvent(tick=5, channel=15, data=[7, 98]),
   midi.ControlChangeEvent(tick=10, channel=15, data=[7, 96]),
   midi.ControlChangeEvent(tick=5, channel=15, data=[7, 96]),
   midi.ControlChangeEvent(tick=10, channel=15, data=[7, 96]),
   midi.ControlChangeEvent(tick=10, channel=15, data=[7, 94]),
   midi.ControlChangeEvent(tick=5, channel=15, data=[7, 94]),
   midi.ControlChangeEvent(tick=10, channel=15, data=[7, 92]),
   midi.ControlChangeEvent(tick=5, channel=15, data=[7, 92]),
   midi.ControlChangeEvent(tick=15, channel=15, data=[7, 90]),
   midi.ControlChangeEvent(tick=10, channel=15, data=[7, 90]),
   midi.ControlChangeEvent(tick=5, channel=15, data=[7, 90]),
   midi.ControlChangeEvent(tick=15, channel=15, data=[7, 89]),
   midi.ControlChangeEvent(tick=25, channel=15, data=[7, 89]),
   midi.ControlChangeEvent(tick=20, channel=15, data=[7, 88]),
   midi.ControlChangeEvent(tick=5, channel=15, data=[7, 87]),
   midi.ControlChangeEvent(tick=5, channel=15, data=[7, 87]),
   midi.ControlChangeEvent(tick=10, channel=15, data=[7, 86]),
   midi.ControlChangeEvent(tick=25, channel=15, data=[7, 85]),
   midi.ControlChangeEvent(tick=15, channel=15, data=[7, 84]),
   midi.ControlChangeEvent(tick=10, channel=15, data=[7, 84]),
   midi.ControlChangeEvent(tick=10, channel=15, data=[7, 83]),
   midi.ControlChangeEvent(tick=30, channel=15, data=[7, 83]),
   midi.ControlChangeEvent(tick=25, channel=15, data=[7, 83]),
   midi.ControlChangeEvent(tick=10, channel=15, data=[7, 83]),
   midi.ControlChangeEvent(tick=20, channel=15, data=[7, 83]),
   midi.ControlChangeEvent(tick=25, channel=15, data=[7, 81]),
   midi.ControlChangeEvent(tick=45, channel=15, data=[7, 81]),
   midi.ControlChangeEvent(tick=60, channel=15, data=[7, 81]),
   midi.ControlChangeEvent(tick=10, channel=15, data=[7, 81]),
   midi.ControlChangeEvent(tick=15, channel=15, data=[7, 80]),
   midi.ControlChangeEvent(tick=15, channel=15, data=[7, 79]),
   midi.NoteOnEvent(tick=20, channel=15, data=[28, 107]),
   midi.NoteOnEvent(tick=40, channel=15, data=[28, 0]),
   midi.NoteOnEvent(tick=80, channel=15, data=[29, 107]),
   midi.NoteOnEvent(tick=40, channel=15, data=[29, 0]),
   midi.ControlChangeEvent(tick=210, channel=15, data=[7, 80]),
   midi.ControlChangeEvent(tick=15, channel=15, data=[7, 81]),
   midi.ControlChangeEvent(tick=20, channel=15, data=[7, 81]),
   midi.ControlChangeEvent(tick=15, channel=15, data=[7, 81]),
   midi.ControlChangeEvent(tick=35, channel=15, data=[7, 81]),
   midi.NoteOnEvent(tick=25, channel=15, data=[30, 107]),
   midi.ControlChangeEvent(tick=30, channel=15, data=[7, 83]),
   midi.NoteOnEvent(tick=10, channel=15, data=[30, 0]),
   midi.ControlChangeEvent(tick=25, channel=15, data=[7, 83]),
   midi.ControlChangeEvent(tick=15, channel=15, data=[7, 83]),
   midi.NoteOnEvent(tick=40, channel=15, data=[31, 107]),
   midi.ControlChangeEvent(tick=0, channel=15, data=[7, 83]),
   midi.ControlChangeEvent(tick=10, channel=15, data=[7, 83]),
   midi.ControlChangeEvent(tick=10, channel=15, data=[7, 84]),
   midi.ControlChangeEvent(tick=15, channel=15, data=[7, 84]),
   midi.NoteOnEvent(tick=5, channel=15, data=[31, 0]),
   midi.ControlChangeEvent(tick=5, channel=15, data=[7, 85]),
   midi.ControlChangeEvent(tick=15, channel=15, data=[7, 86]),
   midi.ControlChangeEvent(tick=25, channel=15, data=[7, 87]),
   midi.ControlChangeEvent(tick=195, channel=15, data=[7, 87]),
   midi.ControlChangeEvent(tick=45, channel=15, data=[7, 88]),
   midi.ControlChangeEvent(tick=25, channel=15, data=[7, 89]),
   midi.NoteOnEvent(tick=10, channel=15, data=[32, 107]),
   midi.ControlChangeEvent(tick=10, channel=15, data=[7, 89]),
   midi.ControlChangeEvent(tick=15, channel=15, data=[7, 90]),
   midi.NoteOnEvent(tick=15, channel=15, data=[32, 0]),
   midi.ControlChangeEvent(tick=0, channel=15, data=[7, 90]),
   midi.ControlChangeEvent(tick=20, channel=15, data=[7, 92]),
   midi.ControlChangeEvent(tick=40, channel=15, data=[7, 92]),
   midi.NoteOnEvent(tick=20, channel=15, data=[33, 107]),
   midi.ControlChangeEvent(tick=10, channel=15, data=[7, 93]),
   midi.ControlChangeEvent(tick=25, channel=15, data=[7, 94]),
   midi.NoteOnEvent(tick=5, channel=15, data=[33, 0]),
   midi.ControlChangeEvent(tick=30, channel=15, data=[7, 94]),
   midi.NoteOnEvent(tick=50, channel=15, data=[35, 107]),
   midi.NoteOnEvent(tick=40, channel=15, data=[35, 0]),
   midi.ControlChangeEvent(tick=35, channel=15, data=[7, 94]),
   midi.ControlChangeEvent(tick=25, channel=15, data=[7, 96]),
   midi.NoteOnEvent(tick=20, channel=15, data=[36, 107]),
   midi.ControlChangeEvent(tick=25, channel=15, data=[7, 96]),
   midi.ControlChangeEvent(tick=10, channel=15, data=[7, 96]),
   midi.NoteOnEvent(tick=5, channel=15, data=[36, 0]),
   midi.ControlChangeEvent(tick=15, channel=15, data=[7, 96]),
   midi.ControlChangeEvent(tick=25, channel=15, data=[7, 96]),
   midi.ControlChangeEvent(tick=15, channel=15, data=[7, 98]),
   midi.ControlChangeEvent(tick=15, channel=15, data=[7, 98]),
   midi.ControlChangeEvent(tick=10, channel=15, data=[7, 96]),
   midi.NoteOnEvent(tick=0, channel=15, data=[38, 104]),
   midi.NoteOnEvent(tick=40, channel=15, data=[38, 0]),
   midi.ControlChangeEvent(tick=75, channel=15, data=[7, 96]),
   midi.ControlChangeEvent(tick=75, channel=15, data=[7, 96]),
   midi.ControlChangeEvent(tick=40, channel=15, data=[7, 96]),
   midi.NoteOnEvent(tick=10, channel=15, data=[31, 89]),
   midi.ControlChangeEvent(tick=5, channel=15, data=[7, 94]),
   midi.ControlChangeEvent(tick=125, channel=15, data=[7, 94]),
   midi.ControlChangeEvent(tick=15, channel=15, data=[7, 94]),
   midi.ControlChangeEvent(tick=10, channel=15, data=[7, 93]),
   midi.ControlChangeEvent(tick=10, channel=15, data=[7, 92]),
   midi.ControlChangeEvent(tick=10, channel=15, data=[7, 92]),
   midi.ControlChangeEvent(tick=10, channel=15, data=[7, 90]),
   midi.ControlChangeEvent(tick=25, channel=15, data=[7, 90]),
   midi.ControlChangeEvent(tick=15, channel=15, data=[7, 90]),
   midi.ControlChangeEvent(tick=65, channel=15, data=[7, 89]),
   midi.ControlChangeEvent(tick=25, channel=15, data=[7, 89]),
   midi.ControlChangeEvent(tick=35, channel=15, data=[7, 88]),
   midi.ControlChangeEvent(tick=50, channel=15, data=[7, 87]),
   midi.ControlChangeEvent(tick=30, channel=15, data=[7, 88]),
   midi.ControlChangeEvent(tick=10, channel=15, data=[7, 89]),
   midi.ControlChangeEvent(tick=15, channel=15, data=[7, 89]),
   midi.NoteOnEvent(tick=15, channel=15, data=[31, 0]),
   midi.ControlChangeEvent(tick=5, channel=15, data=[7, 90]),
   midi.NoteOnEvent(tick=5, channel=15, data=[33, 99]),
   midi.ControlChangeEvent(tick=10, channel=15, data=[7, 90]),
   midi.ControlChangeEvent(tick=15, channel=15, data=[7, 90]),
   midi.ControlChangeEvent(tick=15, channel=15, data=[7, 92]),
   midi.ControlChangeEvent(tick=30, channel=15, data=[7, 92]),
   midi.ControlChangeEvent(tick=150, channel=15, data=[7, 93]),
   midi.ControlChangeEvent(tick=35, channel=15, data=[7, 94]),
   midi.ControlChangeEvent(tick=10, channel=15, data=[7, 94]),
   midi.ControlChangeEvent(tick=20, channel=15, data=[7, 94]),
   midi.ControlChangeEvent(tick=20, channel=15, data=[7, 96]),
   midi.ControlChangeEvent(tick=20, channel=15, data=[7, 96]),
   midi.ControlChangeEvent(tick=25, channel=15, data=[7, 96]),
   midi.ControlChangeEvent(tick=20, channel=15, data=[7, 96]),
   midi.ControlChangeEvent(tick=15, channel=15, data=[7, 96]),
   midi.ControlChangeEvent(tick=30, channel=15, data=[7, 98]),
   midi.ControlChangeEvent(tick=20, channel=15, data=[7, 98]),
   midi.ControlChangeEvent(tick=20, channel=15, data=[7, 98]),
   midi.NoteOnEvent(tick=15, channel=15, data=[33, 0]),
   midi.NoteOnEvent(tick=10, channel=15, data=[35, 109]),
   midi.ControlChangeEvent(tick=0, channel=15, data=[7, 99]),
   midi.ControlChangeEvent(tick=25, channel=15, data=[7, 99]),
   midi.ControlChangeEvent(tick=30, channel=15, data=[7, 100]),
   midi.ControlChangeEvent(tick=30, channel=15, data=[7, 101]),
   midi.ControlChangeEvent(tick=20, channel=15, data=[7, 101]),
   midi.ControlChangeEvent(tick=10, channel=15, data=[7, 101]),
   midi.ControlChangeEvent(tick=20, channel=15, data=[7, 101]),
   midi.ControlChangeEvent(tick=30, channel=15, data=[7, 102]),
   midi.ControlChangeEvent(tick=15, channel=15, data=[7, 102]),
   midi.ControlChangeEvent(tick=15, channel=15, data=[7, 103]),
   midi.ControlChangeEvent(tick=15, channel=15, data=[7, 104]),
   midi.ControlChangeEvent(tick=15, channel=15, data=[7, 105]),
   midi.NoteOnEvent(tick=5, channel=15, data=[35, 0]),
   midi.NoteOnEvent(tick=10, channel=15, data=[38, 127]),
   midi.ControlChangeEvent(tick=0, channel=15, data=[7, 106]),
   midi.ControlChangeEvent(tick=15, channel=15, data=[7, 108]),
   midi.ControlChangeEvent(tick=15, channel=15, data=[7, 109]),
   midi.NoteOnEvent(tick=10, channel=15, data=[38, 0]),
   midi.ControlChangeEvent(tick=0, channel=15, data=[7, 111]),
   midi.NoteOnEvent(tick=2840, channel=15, data=[36, 127]),
   midi.ControlChangeEvent(tick=40, channel=15, data=[7, 112]),
   midi.ControlChangeEvent(tick=15, channel=15, data=[7, 114]),
   midi.NoteOnEvent(tick=185, channel=15, data=[36, 0]),
   midi.NoteOnEvent(tick=0, channel=15, data=[36, 127]),
   midi.NoteOnEvent(tick=240, channel=15, data=[36, 0]),
   midi.NoteOnEvent(tick=0, channel=15, data=[36, 127]),
   midi.NoteOnEvent(tick=40, channel=15, data=[36, 0]),
   midi.NoteOnEvent(tick=80, channel=15, data=[36, 127]),
   midi.NoteOnEvent(tick=40, channel=15, data=[36, 0]),
   midi.NoteOnEvent(tick=80, channel=15, data=[36, 127]),
   midi.NoteOnEvent(tick=40, channel=15, data=[36, 0]),
   midi.NoteOnEvent(tick=80, channel=15, data=[36, 127]),
   midi.NoteOnEvent(tick=40, channel=15, data=[36, 0]),
   midi.NoteOnEvent(tick=80, channel=15, data=[48, 127]),
   midi.NoteOnEvent(tick=75, channel=15, data=[48, 0]),
   midi.NoteOnEvent(tick=45, channel=15, data=[50, 127]),
   midi.ControlChangeEvent(tick=20, channel=15, data=[7, 112]),
   midi.ControlChangeEvent(tick=20, channel=15, data=[7, 112]),
   midi.NoteOnEvent(tick=15, channel=15, data=[50, 0]),
   midi.NoteOnEvent(tick=35, channel=15, data=[52, 127]),
   midi.ControlChangeEvent(tick=15, channel=15, data=[7, 112]),
   midi.NoteOnEvent(tick=15, channel=15, data=[50, 127]),
   midi.ControlChangeEvent(tick=5, channel=15, data=[7, 114]),
   midi.NoteOnEvent(tick=5, channel=15, data=[52, 0]),
   midi.NoteOnEvent(tick=30, channel=15, data=[50, 0]),
   midi.NoteOnEvent(tick=20, channel=15, data=[48, 127]),
   midi.NoteOnEvent(tick=40, channel=15, data=[48, 0]),
   midi.NoteOnEvent(tick=20, channel=15, data=[47, 127]),
   midi.NoteOnEvent(tick=40, channel=15, data=[47, 0]),
   midi.NoteOnEvent(tick=20, channel=15, data=[48, 127]),
   midi.NoteOnEvent(tick=40, channel=15, data=[48, 0]),
   midi.NoteOnEvent(tick=20, channel=15, data=[47, 127]),
   midi.NoteOnEvent(tick=40, channel=15, data=[47, 0]),
   midi.NoteOnEvent(tick=20, channel=15, data=[45, 127]),
   midi.NoteOnEvent(tick=40, channel=15, data=[45, 0]),
   midi.NoteOnEvent(tick=20, channel=15, data=[44, 127]),
   midi.NoteOnEvent(tick=40, channel=15, data=[44, 0]),
   midi.NoteOnEvent(tick=20, channel=15, data=[45, 127]),
   midi.NoteOnEvent(tick=40, channel=15, data=[45, 0]),
   midi.NoteOnEvent(tick=20, channel=15, data=[43, 127]),
   midi.NoteOnEvent(tick=40, channel=15, data=[43, 0]),
   midi.NoteOnEvent(tick=20, channel=15, data=[41, 127]),
   midi.NoteOnEvent(tick=40, channel=15, data=[41, 0]),
   midi.NoteOnEvent(tick=20, channel=15, data=[40, 127]),
   midi.NoteOnEvent(tick=40, channel=15, data=[40, 0]),
   midi.NoteOnEvent(tick=20, channel=15, data=[41, 127]),
   midi.NoteOnEvent(tick=40, channel=15, data=[41, 0]),
   midi.NoteOnEvent(tick=20, channel=15, data=[38, 127]),
   midi.NoteOnEvent(tick=240, channel=15, data=[38, 0]),
   midi.NoteOnEvent(tick=0, channel=15, data=[38, 127]),
   midi.NoteOnEvent(tick=240, channel=15, data=[38, 0]),
   midi.NoteOnEvent(tick=0, channel=15, data=[38, 127]),
   midi.NoteOnEvent(tick=40, channel=15, data=[38, 0]),
   midi.NoteOnEvent(tick=80, channel=15, data=[38, 127]),
   midi.NoteOnEvent(tick=40, channel=15, data=[38, 0]),
   midi.ControlChangeEvent(tick=20, channel=15, data=[7, 112]),
   midi.ControlChangeEvent(tick=20, channel=15, data=[7, 112]),
   midi.ControlChangeEvent(tick=20, channel=15, data=[7, 112]),
   midi.NoteOnEvent(tick=20, channel=15, data=[38, 127]),
   midi.NoteOnEvent(tick=40, channel=15, data=[38, 0]),
   midi.ControlChangeEvent(tick=25, channel=15, data=[7, 111]),
   midi.ControlChangeEvent(tick=35, channel=15, data=[7, 110]),
   midi.NoteOnEvent(tick=20, channel=15, data=[38, 127]),
   midi.ControlChangeEvent(tick=10, channel=15, data=[7, 110]),
   midi.NoteOnEvent(tick=30, channel=15, data=[38, 0]),
   midi.ControlChangeEvent(tick=10, channel=15, data=[7, 109]),
   midi.ControlChangeEvent(tick=20, channel=15, data=[7, 110]),
   midi.ControlChangeEvent(tick=20, channel=15, data=[7, 114]),
   midi.NoteOnEvent(tick=30, channel=15, data=[50, 127]),
   midi.NoteOnEvent(tick=75, channel=15, data=[50, 0]),
   midi.NoteOnEvent(tick=45, channel=15, data=[52, 127]),
   midi.NoteOnEvent(tick=55, channel=15, data=[52, 0]),
   midi.NoteOnEvent(tick=35, channel=15, data=[53, 127]),
   midi.NoteOnEvent(tick=30, channel=15, data=[52, 127]),
   midi.NoteOnEvent(tick=10, channel=15, data=[53, 0]),
   midi.NoteOnEvent(tick=30, channel=15, data=[52, 0]),
   midi.NoteOnEvent(tick=20, channel=15, data=[50, 127]),
   midi.NoteOnEvent(tick=40, channel=15, data=[50, 0]),
   midi.NoteOnEvent(tick=20, channel=15, data=[49, 127]),
   midi.NoteOnEvent(tick=40, channel=15, data=[49, 0]),
   midi.NoteOnEvent(tick=20, channel=15, data=[50, 127]),
   midi.NoteOnEvent(tick=40, channel=15, data=[50, 0]),
   midi.NoteOnEvent(tick=20, channel=15, data=[48, 127]),
   midi.NoteOnEvent(tick=40, channel=15, data=[48, 0]),
   midi.NoteOnEvent(tick=20, channel=15, data=[47, 127]),
   midi.NoteOnEvent(tick=40, channel=15, data=[47, 0]),
   midi.NoteOnEvent(tick=20, channel=15, data=[46, 127]),
   midi.NoteOnEvent(tick=40, channel=15, data=[46, 0]),
   midi.NoteOnEvent(tick=20, channel=15, data=[47, 127]),
   midi.NoteOnEvent(tick=40, channel=15, data=[47, 0]),
   midi.NoteOnEvent(tick=20, channel=15, data=[45, 127]),
   midi.NoteOnEvent(tick=40, channel=15, data=[45, 0]),
   midi.NoteOnEvent(tick=20, channel=15, data=[43, 127]),
   midi.NoteOnEvent(tick=40, channel=15, data=[43, 0]),
   midi.NoteOnEvent(tick=20, channel=15, data=[42, 127]),
   midi.NoteOnEvent(tick=40, channel=15, data=[42, 0]),
   midi.NoteOnEvent(tick=20, channel=15, data=[43, 127]),
   midi.NoteOnEvent(tick=40, channel=15, data=[43, 0]),
   midi.NoteOnEvent(tick=20, channel=15, data=[42, 127]),
   midi.NoteOnEvent(tick=40, channel=15, data=[42, 0]),
   midi.NoteOnEvent(tick=20, channel=15, data=[40, 127]),
   midi.NoteOnEvent(tick=40, channel=15, data=[40, 0]),
   midi.NoteOnEvent(tick=20, channel=15, data=[39, 127]),
   midi.NoteOnEvent(tick=40, channel=15, data=[39, 0]),
   midi.NoteOnEvent(tick=20, channel=15, data=[40, 127]),
   midi.NoteOnEvent(tick=40, channel=15, data=[40, 0]),
   midi.NoteOnEvent(tick=20, channel=15, data=[38, 127]),
   midi.NoteOnEvent(tick=40, channel=15, data=[38, 0]),
   midi.NoteOnEvent(tick=20, channel=15, data=[36, 127]),
   midi.NoteOnEvent(tick=40, channel=15, data=[36, 0]),
   midi.NoteOnEvent(tick=20, channel=15, data=[35, 127]),
   midi.NoteOnEvent(tick=40, channel=15, data=[35, 0]),
   midi.NoteOnEvent(tick=20, channel=15, data=[36, 127]),
   midi.NoteOnEvent(tick=40, channel=15, data=[36, 0]),
   midi.NoteOnEvent(tick=20, channel=15, data=[35, 127]),
   midi.NoteOnEvent(tick=40, channel=15, data=[35, 0]),
   midi.NoteOnEvent(tick=20, channel=15, data=[33, 127]),
   midi.NoteOnEvent(tick=40, channel=15, data=[33, 0]),
   midi.NoteOnEvent(tick=20, channel=15, data=[32, 127]),
   midi.NoteOnEvent(tick=40, channel=15, data=[32, 0]),
   midi.NoteOnEvent(tick=20, channel=15, data=[33, 127]),
   midi.NoteOnEvent(tick=40, channel=15, data=[33, 0]),
   midi.NoteOnEvent(tick=20, channel=15, data=[31, 127]),
   midi.NoteOnEvent(tick=40, channel=15, data=[31, 0]),
   midi.NoteOnEvent(tick=20, channel=15, data=[29, 127]),
   midi.NoteOnEvent(tick=40, channel=15, data=[29, 0]),
   midi.NoteOnEvent(tick=20, channel=15, data=[28, 127]),
   midi.NoteOnEvent(tick=40, channel=15, data=[28, 0]),
   midi.NoteOnEvent(tick=20, channel=15, data=[29, 127]),
   midi.NoteOnEvent(tick=40, channel=15, data=[29, 0]),
   midi.NoteOnEvent(tick=260, channel=15, data=[33, 125]),
   midi.NoteOnEvent(tick=40, channel=15, data=[33, 0]),
   midi.NoteOnEvent(tick=440, channel=15, data=[33, 125]),
   midi.NoteOnEvent(tick=40, channel=15, data=[33, 0]),
   midi.NoteOnEvent(tick=320, channel=15, data=[33, 125]),
   midi.NoteOnEvent(tick=40, channel=15, data=[33, 0]),
   midi.NoteOnEvent(tick=200, channel=15, data=[33, 125]),
   midi.NoteOnEvent(tick=40, channel=15, data=[33, 0]),
   midi.NoteOnEvent(tick=200, channel=15, data=[33, 125]),
   midi.NoteOnEvent(tick=40, channel=15, data=[33, 0]),
   midi.NoteOnEvent(tick=200, channel=15, data=[33, 125]),
   midi.NoteOnEvent(tick=40, channel=15, data=[33, 0]),
   midi.ControlChangeEvent(tick=1425, channel=15, data=[64, 0]),
   midi.ControlChangeEvent(tick=0, channel=15, data=[120, 0]),
   midi.ControlChangeEvent(tick=0, channel=15, data=[7, 119]),
   midi.ProgramChangeEvent(tick=0, channel=15, data=[57]),
   midi.ControlChangeEvent(tick=0, channel=15, data=[11, 127]),
   midi.ControlChangeEvent(tick=0, channel=15, data=[10, 48]),
   midi.ControlChangeEvent(tick=0, channel=15, data=[64, 0]),
   midi.ControlChangeEvent(tick=0, channel=15, data=[91, 80]),
   midi.ControlChangeEvent(tick=0, channel=15, data=[11, 127]),
   midi.ControlChangeEvent(tick=0, channel=15, data=[10, 64]),
   midi.ControlChangeEvent(tick=0, channel=15, data=[64, 0]),
   midi.ControlChangeEvent(tick=0, channel=15, data=[91, 64]),
   midi.EndOfTrackEvent(tick=0, data=[])]),
 midi.Track(\
  [midi.PortEvent(tick=0, data=[0]),
   midi.TrackNameEvent(tick=0, text='  Piano Concerto in Am, Opus 16', data=[32, 32, 80, 105, 97, 110, 111, 32, 67, 111, 110, 99, 101, 114, 116, 111, 32, 105, 110, 32, 65, 109, 44, 32, 79, 112, 117, 115, 32, 49, 54]),
   midi.ProgramChangeEvent(tick=0, channel=0, data=[0]),
   midi.ControlChangeEvent(tick=0, channel=0, data=[10, 60]),
   midi.ControlChangeEvent(tick=4, channel=0, data=[64, 0]),
   midi.ControlChangeEvent(tick=0, channel=0, data=[91, 120]),
   midi.ControlChangeEvent(tick=600, channel=0, data=[64, 127]),
   midi.ControlChangeEvent(tick=0, channel=0, data=[7, 114]),
   midi.NoteOnEvent(tick=0, channel=0, data=[105, 107]),
   midi.NoteOnEvent(tick=0, channel=0, data=[76, 107]),
   midi.NoteOnEvent(tick=0, channel=0, data=[72, 107]),
   midi.NoteOnEvent(tick=0, channel=0, data=[93, 107]),
   midi.NoteOnEvent(tick=0, channel=0, data=[81, 107]),
   midi.NoteOnEvent(tick=0, channel=0, data=[69, 107]),
   midi.NoteOnEvent(tick=0, channel=0, data=[100, 107]),
   midi.NoteOnEvent(tick=0, channel=0, data=[96, 107]),
   midi.NoteOnEvent(tick=190, channel=0, data=[69, 0]),
   midi.NoteOnEvent(tick=0, channel=0, data=[93, 0]),
   midi.NoteOnEvent(tick=0, channel=0, data=[105, 0]),
   midi.NoteOnEvent(tick=0, channel=0, data=[81, 0]),
   midi.NoteOnEvent(tick=0, channel=0, data=[69, 107]),
   midi.NoteOnEvent(tick=0, channel=0, data=[81, 107]),
   midi.NoteOnEvent(tick=0, channel=0, data=[93, 107]),
   midi.NoteOnEvent(tick=0, channel=0, data=[105, 107]),
   midi.NoteOnEvent(tick=25, channel=0, data=[81, 0]),
   midi.NoteOnEvent(tick=0, channel=0, data=[69, 0]),
   midi.NoteOnEvent(tick=0, channel=0, data=[104, 107]),
   midi.NoteOnEvent(tick=0, channel=0, data=[92, 107]),
   midi.NoteOnEvent(tick=0, channel=0, data=[80, 107]),
   midi.NoteOnEvent(tick=0, channel=0, data=[68, 107]),
   midi.NoteOnEvent(tick=5, channel=0, data=[105, 0]),
   midi.NoteOnEvent(tick=0, channel=0, data=[93, 0]),
   midi.NoteOnEvent(tick=20, channel=0, data=[100, 0]),
   midi.NoteOnEvent(tick=0, channel=0, data=[68, 0]),
   midi.NoteOnEvent(tick=0, channel=0, data=[104, 0]),
   midi.NoteOnEvent(tick=0, channel=0, data=[92, 0]),
   midi.NoteOnEvent(tick=0, channel=0, data=[80, 0]),
   midi.NoteOnEvent(tick=0, channel=0, data=[76, 0]),
   midi.NoteOnEvent(tick=0, channel=0, data=[100, 107]),
   midi.NoteOnEvent(tick=0, channel=0, data=[95, 107]),
   midi.NoteOnEvent(tick=0, channel=0, data=[92, 107]),
   midi.NoteOnEvent(tick=0, channel=0, data=[88, 107]),
   midi.NoteOnEvent(tick=0, channel=0, data=[76, 107]),
   midi.NoteOnEvent(tick=0, channel=0, data=[71, 107]),
   midi.NoteOnEvent(tick=0, channel=0, data=[68, 107]),
   midi.NoteOnEvent(tick=0, channel=0, data=[64, 107]),
   midi.NoteOnEvent(tick=1, channel=0, data=[68, 0]),
   midi.NoteOnEvent(tick=0, channel=0, data=[92, 0]),
   midi.NoteOnEvent(tick=14, channel=0, data=[100, 0]),
   midi.NoteOnEvent(tick=0, channel=0, data=[72, 0]),
   midi.NoteOnEvent(tick=0, channel=0, data=[96, 0]),
   midi.NoteOnEvent(tick=0, channel=0, data=[76, 0]),
   midi.NoteOnEvent(tick=175, channel=0, data=[64, 0]),
   midi.NoteOnEvent(tick=0, channel=0, data=[88, 0]),
   midi.NoteOnEvent(tick=0, channel=0, data=[100, 107]),
   midi.NoteOnEvent(tick=0, channel=0, data=[88, 107]),
   midi.NoteOnEvent(tick=0, channel=0, data=[64, 107]),
   midi.NoteOnEvent(tick=0, channel=0, data=[76, 107]),
   midi.NoteOnEvent(tick=25, channel=0, data=[76, 0]),
   midi.NoteOnEvent(tick=0, channel=0, data=[88, 0]),
   midi.NoteOnEvent(tick=0, channel=0, data=[100, 0]),
   midi.NoteOnEvent(tick=0, channel=0, data=[64, 0]),
   midi.NoteOnEvent(tick=0, channel=0, data=[96, 107]),
   midi.NoteOnEvent(tick=0, channel=0, data=[84, 107]),
   midi.NoteOnEvent(tick=0, channel=0, data=[72, 107]),
   midi.NoteOnEvent(tick=0, channel=0, data=[60, 107]),
   midi.NoteOnEvent(tick=20, channel=0, data=[71, 0]),
   midi.NoteOnEvent(tick=0, channel=0, data=[95, 0]),
   midi.NoteOnEvent(tick=5, channel=0, data=[72, 0]),
   midi.NoteOnEvent(tick=0, channel=0, data=[84, 0]),
   midi.NoteOnEvent(tick=0, channel=0, data=[60, 0]),
   midi.NoteOnEvent(tick=0, channel=0, data=[96, 0]),
   midi.NoteOnEvent(tick=0, channel=0, data=[93, 107]),
   midi.NoteOnEvent(tick=0, channel=0, data=[88, 107]),
   midi.NoteOnEvent(tick=0, channel=0, data=[84, 107]),
   midi.NoteOnEvent(tick=0, channel=0, data=[81, 107]),
   midi.NoteOnEvent(tick=0, channel=0, data=[69, 107]),
   midi.NoteOnEvent(tick=0, channel=0, data=[64, 107]),
   midi.NoteOnEvent(tick=0, channel=0, data=[60, 107]),
   midi.NoteOnEvent(tick=0, channel=0, data=[57, 107]),
   midi.NoteOnEvent(tick=1, channel=0, data=[64, 0]),
   midi.NoteOnEvent(tick=0, channel=0, data=[84, 0]),
   midi.NoteOnEvent(tick=59, channel=0, data=[60, 0]),
   midi.NoteOnEvent(tick=0, channel=0, data=[88, 0]),
   midi.NoteOnEvent(tick=0, channel=0, data=[81, 0]),
   midi.NoteOnEvent(tick=0, channel=0, data=[69, 0]),
   midi.NoteOnEvent(tick=0, channel=0, data=[93, 0]),
   midi.NoteOnEvent(tick=0, channel=0, data=[57, 0]),
   midi.NoteOnEvent(tick=5, channel=0, data=[93, 107]),
   midi.NoteOnEvent(tick=0, channel=0, data=[81, 107]),
   midi.NoteOnEvent(tick=0, channel=0, data=[69, 107]),
   midi.NoteOnEvent(tick=0, channel=0, data=[57, 107]),
   midi.NoteOnEvent(tick=25, channel=0, data=[57, 0]),
   midi.NoteOnEvent(tick=0, channel=0, data=[69, 0]),
   midi.NoteOnEvent(tick=0, channel=0, data=[81, 0]),
   midi.NoteOnEvent(tick=0, channel=0, data=[92, 107]),
   midi.NoteOnEvent(tick=0, channel=0, data=[80, 107]),
   midi.NoteOnEvent(tick=0, channel=0, data=[68, 107]),
   midi.NoteOnEvent(tick=0, channel=0, data=[56, 107]),
   midi.NoteOnEvent(tick=5, channel=0, data=[93, 0]),
   midi.NoteOnEvent(tick=20, channel=0, data=[56, 0]),
   midi.NoteOnEvent(tick=5, channel=0, data=[92, 0]),
   midi.NoteOnEvent(tick=0, channel=0, data=[80, 0]),
   midi.NoteOnEvent(tick=0, channel=0, data=[68, 0]),
   midi.NoteOnEvent(tick=0, channel=0, data=[88, 107]),
   midi.NoteOnEvent(tick=0, channel=0, data=[83, 107]),
   midi.NoteOnEvent(tick=0, channel=0, data=[80, 107]),
   midi.NoteOnEvent(tick=0, channel=0, data=[76, 107]),
   midi.NoteOnEvent(tick=0, channel=0, data=[64, 107]),
   midi.NoteOnEvent(tick=0, channel=0, data=[59, 107]),
   midi.NoteOnEvent(tick=0, channel=0, data=[56, 107]),
   midi.NoteOnEvent(tick=0, channel=0, data=[52, 107]),
   midi.NoteOnEvent(tick=1, channel=0, data=[80, 0]),
   midi.NoteOnEvent(tick=59, channel=0, data=[88, 0]),
   midi.NoteOnEvent(tick=0, channel=0, data=[59, 0]),
   midi.NoteOnEvent(tick=0, channel=0, data=[83, 0]),
   midi.NoteOnEvent(tick=0, channel=0, data=[76, 0]),
   midi.NoteOnEvent(tick=0, channel=0, data=[64, 0]),
   midi.NoteOnEvent(tick=0, channel=0, data=[56, 0]),
   midi.NoteOnEvent(tick=0, channel=0, data=[52, 0]),
   midi.NoteOnEvent(tick=5, channel=0, data=[76, 107]),
   midi.NoteOnEvent(tick=0, channel=0, data=[88, 107]),
   midi.NoteOnEvent(tick=0, channel=0, data=[64, 107]),
   midi.NoteOnEvent(tick=0, channel=0, data=[52, 107]),
   midi.NoteOnEvent(tick=25, channel=0, data=[52, 0]),
   midi.NoteOnEvent(tick=0, channel=0, data=[76, 0]),
   midi.NoteOnEvent(tick=0, channel=0, data=[88, 0]),
   midi.NoteOnEvent(tick=0, channel=0, data=[64, 0]),
   midi.NoteOnEvent(tick=0, channel=0, data=[84, 107]),
   midi.NoteOnEvent(tick=0, channel=0, data=[72, 107]),
   midi.NoteOnEvent(tick=0, channel=0, data=[60, 107]),
   midi.NoteOnEvent(tick=0, channel=0, data=[48, 107]),
   midi.NoteOnEvent(tick=30, channel=0, data=[48, 0]),
   midi.NoteOnEvent(tick=0, channel=0, data=[84, 0]),
   midi.NoteOnEvent(tick=0, channel=0, data=[72, 0]),
   midi.NoteOnEvent(tick=0, channel=0, data=[60, 0]),
   midi.NoteOnEvent(tick=0, channel=0, data=[81, 107]),
   midi.NoteOnEvent(tick=0, channel=0, data=[76, 107]),
   midi.NoteOnEvent(tick=0, channel=0, data=[69, 107]),
   midi.NoteOnEvent(tick=0, channel=0, data=[72, 107]),
   midi.NoteOnEvent(tick=0, channel=0, data=[57, 107]),
   midi.NoteOnEvent(tick=0, channel=0, data=[48, 107]),
   midi.NoteOnEvent(tick=0, channel=0, data=[45, 107]),
   midi.NoteOnEvent(tick=0, channel=0, data=[52, 107]),
   midi.NoteOnEvent(tick=1, channel=0, data=[48, 0]),
   midi.NoteOnEvent(tick=0, channel=0, data=[72, 0]),
   midi.ControlChangeEvent(tick=24, channel=0, data=[64, 0]),
   midi.NoteOnEvent(tick=30, channel=0, data=[45, 0]),
   midi.NoteOnEvent(tick=0, channel=0, data=[57, 0]),
   midi.NoteOnEvent(tick=0, channel=0, data=[69, 0]),
   midi.NoteOnEvent(tick=0, channel=0, data=[81, 0]),
   midi.NoteOnEvent(tick=0, channel=0, data=[76, 0]),
   midi.NoteOnEvent(tick=5, channel=0, data=[52, 0]),
   midi.ControlChangeEvent(tick=5, channel=0, data=[64, 127]),
   midi.NoteOnEvent(tick=0, channel=0, data=[81, 107]),
   midi.NoteOnEvent(tick=0, channel=0, data=[69, 107]),
   midi.NoteOnEvent(tick=0, channel=0, data=[57, 107]),
   midi.NoteOnEvent(tick=0, channel=0, data=[45, 107]),
   midi.NoteOnEvent(tick=20, channel=0, data=[45, 0]),
   midi.NoteOnEvent(tick=0, channel=0, data=[69, 0]),
   midi.NoteOnEvent(tick=0, channel=0, data=[80, 107]),
   midi.NoteOnEvent(tick=0, channel=0, data=[68, 107]),
   midi.NoteOnEvent(tick=0, channel=0, data=[56, 107]),
   midi.NoteOnEvent(tick=0, channel=0, data=[44, 107]),
   midi.NoteOnEvent(tick=5, channel=0, data=[57, 0]),
   midi.NoteOnEvent(tick=0, channel=0, data=[81, 0]),
   midi.NoteOnEvent(tick=25, channel=0, data=[56, 0]),
   midi.NoteOnEvent(tick=0, channel=0, data=[68, 0]),
   midi.NoteOnEvent(tick=0, channel=0, data=[44, 0]),
   midi.NoteOnEvent(tick=0, channel=0, data=[80, 0]),
   midi.NoteOnEvent(tick=5, channel=0, data=[47, 107]),
   midi.NoteOnEvent(tick=0, channel=0, data=[76, 107]),
   midi.NoteOnEvent(tick=0, channel=0, data=[71, 107]),
   midi.NoteOnEvent(tick=0, channel=0, data=[64, 107]),
   midi.NoteOnEvent(tick=0, channel=0, data=[68, 107]),
   midi.NoteOnEvent(tick=0, channel=0, data=[52, 107]),
   midi.NoteOnEvent(tick=0, channel=0, data=[40, 107]),
   midi.NoteOnEvent(tick=0, channel=0, data=[44, 107]),
   midi.NoteOnEvent(tick=45, channel=0, data=[44, 0]),
   midi.NoteOnEvent(tick=0, channel=0, data=[47, 0]),
   midi.NoteOnEvent(tick=0, channel=0, data=[68, 0]),
   midi.NoteOnEvent(tick=0, channel=0, data=[76, 0]),
   midi.NoteOnEvent(tick=0, channel=0, data=[71, 0]),
   midi.NoteOnEvent(tick=0, channel=0, data=[64, 0]),
   midi.NoteOnEvent(tick=0, channel=0, data=[52, 0]),
   midi.NoteOnEvent(tick=0, channel=0, data=[40, 0]),
   midi.NoteOnEvent(tick=0, channel=0, data=[76, 110]),
   midi.NoteOnEvent(tick=0, channel=0, data=[64, 110]),
   midi.NoteOnEvent(tick=0, channel=0, data=[40, 107]),
   midi.NoteOnEvent(tick=0, channel=0, data=[52, 107]),
   midi.NoteOnEvent(tick=30, channel=0, data=[64, 0]),
   midi.NoteOnEvent(tick=5, channel=0, data=[76, 0]),
   midi.NoteOnEvent(tick=0, channel=0, data=[40, 0]),
   midi.NoteOnEvent(tick=0, channel=0, data=[52, 0]),
   midi.NoteOnEvent(tick=0, channel=0, data=[72, 110]),
   midi.NoteOnEvent(tick=0, channel=0, data=[60, 110]),
   midi.NoteOnEvent(tick=0, channel=0, data=[48, 107]),
   midi.NoteOnEvent(tick=0, channel=0, data=[36, 107]),
   midi.NoteOnEvent(tick=35, channel=0, data=[36, 0]),
   midi.NoteOnEvent(tick=0, channel=0, data=[72, 0]),
   midi.NoteOnEvent(tick=0, channel=0, data=[60, 0]),
   midi.NoteOnEvent(tick=0, channel=0, data=[48, 0]),
   midi.NoteOnEvent(tick=5, channel=0, data=[69, 111]),
   midi.NoteOnEvent(tick=0, channel=0, data=[57, 111]),
   midi.NoteOnEvent(tick=0, channel=0, data=[45, 107]),
   midi.NoteOnEvent(tick=0, channel=0, data=[33, 107]),
   midi.ControlChangeEvent(tick=0, channel=0, data=[64, 0]),
   midi.ControlChangeEvent(tick=365, channel=0, data=[64, 127]),
   midi.NoteOnEvent(tick=0, channel=0, data=[21, 108]),
   midi.NoteOnEvent(tick=35, channel=0, data=[21, 0]),
   midi.NoteOnEvent(tick=70, channel=0, data=[33, 0]),
   midi.NoteOnEvent(tick=0, channel=0, data=[33, 107]),
   midi.NoteOnEvent(tick=10, channel=0, data=[40, 105]),
   midi.NoteOnEvent(tick=5, channel=0, data=[33, 0]),
   midi.NoteOnEvent(tick=20, channel=0, data=[45, 0]),
   midi.NoteOnEvent(tick=0, channel=0, data=[45, 105]),
   midi.ControlChangeEvent(tick=5, channel=0, data=[64, 0]),
   midi.NoteOnEvent(tick=20, channel=0, data=[40, 0]),
   midi.ControlChangeEvent(tick=5, channel=0, data=[64, 127]),
   midi.NoteOnEvent(tick=0, channel=0, data=[48, 104]),
   midi.NoteOnEvent(tick=30, channel=0, data=[45, 0]),
   midi.NoteOnEvent(tick=0, channel=0, data=[52, 103]),
   midi.NoteOnEvent(tick=25, channel=0, data=[48, 0]),
   midi.NoteOnEvent(tick=10, channel=0, data=[57, 0]),
   midi.NoteOnEvent(tick=0, channel=0, data=[57, 102]),
   midi.NoteOnEvent(tick=20, channel=0, data=[52, 0]),
   midi.NoteOnEvent(tick=10, channel=0, data=[60, 101]),
   midi.NoteOnEvent(tick=15, channel=0, data=[57, 0]),
   midi.NoteOnEvent(tick=15, channel=0, data=[45, 100]),
   midi.NoteOnEvent(tick=25, channel=0, data=[60, 0]),
   midi.NoteOnEvent(tick=5, channel=0, data=[48, 100]),
   midi.NoteOnEvent(tick=25, channel=0, data=[45, 0]),
   midi.NoteOnEvent(tick=5, channel=0, data=[52, 100]),
   midi.NoteOnEvent(tick=20, channel=0, data=[48, 0]),
   midi.NoteOnEvent(tick=15, channel=0, data=[57, 100]),
   midi.NoteOnEvent(tick=10, channel=0, data=[52, 0]),
   midi.NoteOnEvent(tick=20, channel=0, data=[60, 100]),
   midi.NoteOnEvent(tick=25, channel=0, data=[57, 0]),
   midi.NoteOnEvent(tick=5, channel=0, data=[64, 100]),
   midi.NoteOnEvent(tick=25, channel=0, data=[60, 0]),
   midi.NoteOnEvent(tick=0, channel=0, data=[69, 0]),
   midi.NoteOnEvent(tick=0, channel=0, data=[69, 100]),
   midi.NoteOnEvent(tick=20, channel=0, data=[64, 0]),
   midi.NoteOnEvent(tick=15, channel=0, data=[72, 100]),
   midi.NoteOnEvent(tick=10, channel=0, data=[69, 0]),
   midi.NoteOnEvent(tick=20, channel=0, data=[57, 100]),
   midi.NoteOnEvent(tick=20, channel=0, data=[72, 0]),
   midi.NoteOnEvent(tick=5, channel=0, data=[60, 100]),
   midi.ControlChangeEvent(tick=5, channel=0, data=[64, 0]),
   midi.NoteOnEvent(tick=20, channel=0, data=[57, 0]),
   midi.ControlChangeEvent(tick=5, channel=0, data=[64, 127]),
   midi.NoteOnEvent(tick=0, channel=0, data=[64, 100]),
   midi.NoteOnEvent(tick=20, channel=0, data=[60, 0]),
   midi.NoteOnEvent(tick=10, channel=0, data=[69, 100]),
   midi.NoteOnEvent(tick=10, channel=0, data=[64, 0]),
   midi.NoteOnEvent(tick=15, channel=0, data=[72, 100]),
   midi.NoteOnEvent(tick=35, channel=0, data=[69, 0]),
   midi.NoteOnEvent(tick=10, channel=0, data=[76, 100]),
   midi.NoteOnEvent(tick=20, channel=0, data=[81, 100]),
   midi.NoteOnEvent(tick=5, channel=0, data=[72, 0]),
   midi.NoteOnEvent(tick=20, channel=0, data=[76, 0]),
   midi.NoteOnEvent(tick=5, channel=0, data=[84, 100]),
   midi.NoteOnEvent(tick=25, channel=0, data=[81, 0]),
   midi.NoteOnEvent(tick=5, channel=0, data=[84, 0]),
   midi.NoteOnEvent(tick=0, channel=0, data=[69, 100]),
   midi.NoteOnEvent(tick=30, channel=0, data=[69, 0]),
   midi.NoteOnEvent(tick=0, channel=0, data=[72, 101]),
   midi.NoteOnEvent(tick=30, channel=0, data=[72, 0]),
   midi.NoteOnEvent(tick=0, channel=0, data=[76, 102]),
   midi.NoteOnEvent(tick=30, channel=0, data=[76, 0]),
   midi.NoteOnEvent(tick=0, channel=0, data=[81, 103]),
   midi.NoteOnEvent(tick=30, channel=0, data=[81, 0]),
   midi.NoteOnEvent(tick=0, channel=0, data=[84, 104]),
   midi.NoteOnEvent(tick=20, channel=0, data=[84, 0]),
   midi.NoteOnEvent(tick=10, channel=0, data=[88, 105]),
   midi.NoteOnEvent(tick=30, channel=0, data=[88, 0]),
   midi.NoteOnEvent(tick=0, channel=0, data=[93, 107]),
   midi.NoteOnEvent(tick=10, channel=0, data=[96, 108]),
   midi.NoteOnEvent(tick=55, channel=0, data=[53, 111]),
   midi.NoteOnEvent(tick=0, channel=0, data=[41, 107]),
   midi.NoteOnEvent(tick=0, channel=0, data=[29, 107]),
   midi.NoteOnEvent(tick=35, channel=0, data=[96, 0]),
   midi.NoteOnEvent(tick=20, channel=0, data=[41, 0]),
   midi.NoteOnEvent(tick=0, channel=0, data=[29, 0]),
   midi.NoteOnEvent(tick=0, channel=0, data=[53, 0]),
   midi.NoteOnEvent(tick=0, channel=0, data=[69, 111]),
   midi.NoteOnEvent(tick=0, channel=0, data=[62, 111]),
   midi.NoteOnEvent(tick=0, channel=0, data=[57, 111]),
   midi.NoteOnEvent(tick=0, channel=0, data=[53, 107]),
   midi.NoteOnEvent(tick=0, channel=0, data=[50, 107]),
   midi.NoteOnEvent(tick=0, channel=0, data=[45, 107]),
   midi.NoteOnEvent(tick=0, channel=0, data=[41, 107]),
   midi.NoteOnEvent(tick=1, channel=0, data=[41, 0]),
   midi.NoteOnEvent(tick=0, channel=0, data=[53, 0]),
   midi.NoteOnEvent(tick=34, channel=0, data=[50, 0]),
   midi.NoteOnEvent(tick=0, channel=0, data=[69, 0]),
   midi.NoteOnEvent(tick=0, channel=0, data=[62, 0]),
   midi.NoteOnEvent(tick=0, channel=0, data=[57, 0]),
   midi.NoteOnEvent(tick=0, channel=0, data=[45, 0]),
   midi.NoteOnEvent(tick=0, channel=0, data=[81, 111]),
   midi.NoteOnEvent(tick=0, channel=0, data=[74, 111]),
   midi.NoteOnEvent(tick=0, channel=0, data=[69, 111]),
   midi.NoteOnEvent(tick=0, channel=0, data=[65, 107]),
   midi.NoteOnEvent(tick=0, channel=0, data=[62, 107]),
   midi.NoteOnEvent(tick=0, channel=0, data=[57, 107]),
   midi.NoteOnEvent(tick=0, channel=0, data=[53, 107]),
   midi.NoteOnEvent(tick=10, channel=0, data=[93, 0]),
   midi.ControlChangeEvent(tick=170, channel=0, data=[7, 115]),
   midi.ControlChangeEvent(tick=15, channel=0, data=[7, 115]),
   midi.NoteOnEvent(tick=110, channel=0, data=[81, 0]),
   midi.NoteOnEvent(tick=0, channel=0, data=[62, 0]),
   midi.NoteOnEvent(tick=0, channel=0, data=[74, 0]),
   midi.NoteOnEvent(tick=0, channel=0, data=[69, 0]),
   midi.NoteOnEvent(tick=0, channel=0, data=[65, 0]),
   midi.NoteOnEvent(tick=0, channel=0, data=[57, 0]),
   midi.NoteOnEvent(tick=0, channel=0, data=[53, 0]),
   midi.ControlChangeEvent(tick=0, channel=0, data=[64, 0]),
   midi.ControlChangeEvent(tick=65, channel=0, data=[64, 127]),
   midi.NoteOnEvent(tick=0, channel=0, data=[56, 115]),
   midi.NoteOnEvent(tick=0, channel=0, data=[44, 107]),
   midi.NoteOnEvent(tick=0, channel=0, data=[32, 107]),
   midi.NoteOnEvent(tick=70, channel=0, data=[32, 0]),
   midi.NoteOnEvent(tick=5, channel=0, data=[44, 0]),
   midi.NoteOnEvent(tick=0, channel=0, data=[56, 0]),
   midi.NoteOnEvent(tick=0, channel=0, data=[71, 111]),
   midi.NoteOnEvent(tick=0, channel=0, data=[64, 111]),
   midi.NoteOnEvent(tick=0, channel=0, data=[59, 111]),
   midi.NoteOnEvent(tick=0, channel=0, data=[56, 107]),
   midi.NoteOnEvent(tick=0, channel=0, data=[52, 107]),
   midi.NoteOnEvent(tick=0, channel=0, data=[47, 107]),
   midi.NoteOnEvent(tick=0, channel=0, data=[44, 107]),
   midi.NoteOnEvent(tick=35, channel=0, data=[44, 0]),
   midi.NoteOnEvent(tick=0, channel=0, data=[52, 0]),
   midi.NoteOnEvent(tick=0, channel=0, data=[64, 0]),
   midi.NoteOnEvent(tick=0, channel=0, data=[59, 0]),
   midi.NoteOnEvent(tick=0, channel=0, data=[71, 0]),
   midi.NoteOnEvent(tick=0, channel=0, data=[47, 0]),
   midi.NoteOnEvent(tick=0, channel=0, data=[56, 0]),
   midi.NoteOnEvent(tick=5, channel=0, data=[83, 115]),
   midi.NoteOnEvent(tick=0, channel=0, data=[76, 115]),
   midi.NoteOnEvent(tick=0, channel=0, data=[71, 114]),
   midi.NoteOnEvent(tick=0, channel=0, data=[68, 107]),
   midi.NoteOnEvent(tick=0, channel=0, data=[64, 107]),
   midi.NoteOnEvent(tick=0, channel=0, data=[59, 107]),
   midi.NoteOnEvent(tick=0, channel=0, data=[56, 107]),
   midi.NoteOnEvent(tick=65, channel=0, data=[56, 0]),
   midi.NoteOnEvent(tick=0, channel=0, data=[64, 0]),
   midi.NoteOnEvent(tick=0, channel=0, data=[76, 0]),
   midi.NoteOnEvent(tick=0, channel=0, data=[71, 0]),
   midi.NoteOnEvent(tick=0, channel=0, data=[83, 0]),
   midi.NoteOnEvent(tick=0, channel=0, data=[59, 0]),
   midi.NoteOnEvent(tick=0, channel=0, data=[68, 0]),
   midi.ControlChangeEvent(tick=280, channel=0, data=[64, 0]),
   midi.NoteOnEvent(tick=5850, channel=0, data=[52, 81]),
   midi.NoteOnEvent(tick=0, channel=0, data=[45, 81]),
   midi.ControlChangeEvent(tick=5, channel=0, data=[7, 115]),
   midi.NoteOnEvent(tick=0, channel=0, data=[76, 91]),
   midi.NoteOnEvent(tick=0, channel=0, data=[72, 91]),
   midi.NoteOnEvent(tick=0, channel=0, data=[69, 91]),
   midi.NoteOnEvent(tick=0, channel=0, data=[64, 91]),
   midi.NoteOnEvent(tick=0, channel=0, data=[60, 91]),
   midi.NoteOnEvent(tick=0, channel=0, data=[57, 91]),
   midi.NoteOnEvent(tick=10, channel=0, data=[45, 0]),
   midi.NoteOnEvent(tick=0, channel=0, data=[52, 0]),
   midi.NoteOnEvent(tick=105, channel=0, data=[64, 0]),
   midi.NoteOnEvent(tick=0, channel=0, data=[76, 0]),
   midi.NoteOnEvent(tick=0, channel=0, data=[69, 0]),
   midi.NoteOnEvent(tick=0, channel=0, data=[57, 0]),
   midi.NoteOnEvent(tick=0, channel=0, data=[60, 0]),
   midi.NoteOnEvent(tick=0, channel=0, data=[72, 0]),
   midi.NoteOnEvent(tick=5, channel=0, data=[77, 89]),
   midi.NoteOnEvent(tick=0, channel=0, data=[74, 87]),
   midi.NoteOnEvent(tick=0, channel=0, data=[69, 86]),
   midi.NoteOnEvent(tick=0, channel=0, data=[65, 81]),
   midi.NoteOnEvent(tick=0, channel=0, data=[62, 85]),
   midi.NoteOnEvent(tick=0, channel=0, data=[57, 80]),
   midi.NoteOnEvent(tick=85, channel=0, data=[57, 0]),
   midi.NoteOnEvent(tick=0, channel=0, data=[74, 0]),
   midi.NoteOnEvent(tick=0, channel=0, data=[69, 0]),
   midi.NoteOnEvent(tick=0, channel=0, data=[77, 0]),
   midi.NoteOnEvent(tick=0, channel=0, data=[62, 0]),
   midi.NoteOnEvent(tick=0, channel=0, data=[65, 0]),
   midi.NoteOnEvent(tick=5, channel=0, data=[79, 88]),
   midi.NoteOnEvent(tick=0, channel=0, data=[74, 82]),
   midi.NoteOnEvent(tick=0, channel=0, data=[71, 82]),
   midi.NoteOnEvent(tick=0, channel=0, data=[69, 84]),
   midi.NoteOnEvent(tick=0, channel=0, data=[67, 84]),
   midi.NoteOnEvent(tick=0, channel=0, data=[64, 85]),
   midi.NoteOnEvent(tick=0, channel=0, data=[59, 85]),
   midi.NoteOnEvent(tick=0, channel=0, data=[57, 84]),
   midi.NoteOnEvent(tick=20, channel=0, data=[57, 0]),
   midi.NoteOnEvent(tick=0, channel=0, data=[79, 0]),
   midi.NoteOnEvent(tick=0, channel=0, data=[67, 0]),
   midi.NoteOnEvent(tick=0, channel=0, data=[74, 0]),
   midi.NoteOnEvent(tick=0, channel=0, data=[71, 0]),
   midi.NoteOnEvent(tick=0, channel=0, data=[69, 0]),
   midi.NoteOnEvent(tick=0, channel=0, data=[64, 0]),
   midi.NoteOnEvent(tick=0, channel=0, data=[59, 0]),
   midi.NoteOnEvent(tick=10, channel=0, data=[77, 89]),
   midi.NoteOnEvent(tick=0, channel=0, data=[74, 89]),
   midi.NoteOnEvent(tick=0, channel=0, data=[69, 86]),
   midi.NoteOnEvent(tick=0, channel=0, data=[65, 83]),
   midi.NoteOnEvent(tick=0, channel=0, data=[62, 86]),
   midi.NoteOnEvent(tick=0, channel=0, data=[57, 86]),
   midi.NoteOnEvent(tick=20, channel=0, data=[57, 0]),
   midi.NoteOnEvent(tick=0, channel=0, data=[74, 0]),
   midi.NoteOnEvent(tick=0, channel=0, data=[69, 0]),
   midi.NoteOnEvent(tick=0, channel=0, data=[77, 0]),
   midi.NoteOnEvent(tick=0, channel=0, data=[62, 0]),
   midi.NoteOnEvent(tick=0, channel=0, data=[65, 0]),
   midi.NoteOnEvent(tick=40, channel=0, data=[76, 83]),
   midi.NoteOnEvent(tick=0, channel=0, data=[72, 73]),
   midi.NoteOnEvent(tick=0, channel=0, data=[69, 79]),
   midi.NoteOnEvent(tick=0, channel=0, data=[64, 82]),
   midi.NoteOnEvent(tick=0, channel=0, data=[60, 80]),
   midi.NoteOnEvent(tick=0, channel=0, data=[57, 84]),
   midi.NoteOnEvent(tick=120, channel=0, data=[52, 74]),
   midi.NoteOnEvent(tick=0, channel=0, data=[45, 75]),
   midi.NoteOnEvent(tick=60, channel=0, data=[57, 0]),
   midi.NoteOnEvent(tick=0, channel=0, data=[64, 0]),
   midi.NoteOnEvent(tick=0, channel=0, data=[76, 0]),
   midi.NoteOnEvent(tick=0, channel=0, data=[72, 0]),
   midi.NoteOnEvent(tick=0, channel=0, data=[69, 0]),
   midi.NoteOnEvent(tick=0, channel=0, data=[60, 0]),
   midi.NoteOnEvent(tick=0, channel=0, data=[76, 84]),
   midi.NoteOnEvent(tick=0, channel=0, data=[72, 77]),
   midi.NoteOnEvent(tick=0, channel=0, data=[69, 81]),
   midi.NoteOnEvent(tick=0, channel=0, data=[64, 85]),
   midi.NoteOnEvent(tick=0, channel=0, data=[60, 82]),
   midi.NoteOnEvent(tick=0, channel=0, data=[57, 89]),
   midi.NoteOnEvent(tick=5, channel=0, data=[45, 0]),
   midi.NoteOnEvent(tick=0, channel=0, data=[52, 0]),
   midi.NoteOnEvent(tick=80, channel=0, data=[64, 0]),
   midi.NoteOnEvent(tick=0, channel=0, data=[76, 0]),
   midi.NoteOnEvent(tick=0, channel=0, data=[69, 0]),
   midi.NoteOnEvent(tick=0, channel=0, data=[57, 0]),
   midi.NoteOnEvent(tick=0, channel=0, data=[60, 0]),
   midi.NoteOnEvent(tick=0, channel=0, data=[72, 0]),
   midi.NoteOnEvent(tick=5, channel=0, data=[77, 88]),
   midi.NoteOnEvent(tick=0, channel=0, data=[74, 90]),
   midi.NoteOnEvent(tick=0, channel=0, data=[69, 86]),
   midi.NoteOnEvent(tick=0, channel=0, data=[65, 81]),
   midi.NoteOnEvent(tick=0, channel=0, data=[62, 84]),
   midi.NoteOnEvent(tick=0, channel=0, data=[57, 85]),
   midi.NoteOnEvent(tick=20, channel=0, data=[57, 0]),
   midi.NoteOnEvent(tick=0, channel=0, data=[74, 0]),
   midi.NoteOnEvent(tick=0, channel=0, data=[69, 0]),
   midi.NoteOnEvent(tick=0, channel=0, data=[77, 0]),
   midi.NoteOnEvent(tick=0, channel=0, data=[62, 0]),
   midi.NoteOnEvent(tick=0, channel=0, data=[65, 0]),
   midi.NoteOnEvent(tick=10, channel=0, data=[77, 88]),
   midi.NoteOnEvent(tick=0, channel=0, data=[74, 91]),
   midi.NoteOnEvent(tick=0, channel=0, data=[69, 92]),
   midi.NoteOnEvent(tick=0, channel=0, data=[65, 86]),
   midi.NoteOnEvent(tick=0, channel=0, data=[62, 89]),
   midi.NoteOnEvent(tick=0, channel=0, data=[57, 83]),
   midi.NoteOnEvent(tick=20, channel=0, data=[57, 0]),
   midi.NoteOnEvent(tick=0, channel=0, data=[74, 0]),
   midi.NoteOnEvent(tick=0, channel=0, data=[69, 0]),
   midi.NoteOnEvent(tick=0, channel=0, data=[77, 0]),
   midi.NoteOnEvent(tick=0, channel=0, data=[62, 0]),
   midi.NoteOnEvent(tick=0, channel=0, data=[65, 0]),
   midi.NoteOnEvent(tick=40, channel=0, data=[79, 91]),
   midi.NoteOnEvent(tick=0, channel=0, data=[74, 83]),
   midi.NoteOnEvent(tick=0, channel=0, data=[71, 86]),
   midi.NoteOnEvent(tick=0, channel=0, data=[69, 84]),
   midi.NoteOnEvent(tick=0, channel=0, data=[67, 84]),
   midi.NoteOnEvent(tick=0, channel=0, data=[62, 76]),
   midi.NoteOnEvent(tick=0, channel=0, data=[59, 86]),
   midi.NoteOnEvent(tick=0, channel=0, data=[57, 84]),
   midi.NoteOnEvent(tick=20, channel=0, data=[57, 0]),
   midi.NoteOnEvent(tick=0, channel=0, data=[79, 0]),
   midi.NoteOnEvent(tick=0, channel=0, data=[67, 0]),
   midi.NoteOnEvent(tick=0, channel=0, data=[74, 0]),
   midi.NoteOnEvent(tick=0, channel=0, data=[71, 0]),
   midi.NoteOnEvent(tick=0, channel=0, data=[69, 0]),
   midi.NoteOnEvent(tick=0, channel=0, data=[62, 0]),
   midi.NoteOnEvent(tick=0, channel=0, data=[59, 0]),
   midi.NoteOnEvent(tick=40, channel=0, data=[76, 82]),
   midi.NoteOnEvent(tick=0, channel=0, data=[72, 71]),
   midi.NoteOnEvent(tick=0, channel=0, data=[69, 83]),
   midi.NoteOnEvent(tick=0, channel=0, data=[64, 85]),
   midi.NoteOnEvent(tick=0, channel=0, data=[60, 84]),
   midi.NoteOnEvent(tick=0, channel=0, data=[57, 86]),
   midi.NoteOnEvent(tick=220, channel=0, data=[57, 0]),
   midi.NoteOnEvent(tick=0, channel=0, data=[72, 0]),
   midi.NoteOnEvent(tick=0, channel=0, data=[69, 0]),
   midi.NoteOnEvent(tick=0, channel=0, data=[76, 0]),
   midi.NoteOnEvent(tick=0, channel=0, data=[60, 0]),
   midi.NoteOnEvent(tick=0, channel=0, data=[64, 0]),
   midi.NoteOnEvent(tick=15, channel=0, data=[55, 83]),
   midi.NoteOnEvent(tick=0, channel=0, data=[48, 83]),
   midi.NoteOnEvent(tick=5, channel=0, data=[79, 86]),
   midi.NoteOnEvent(tick=0, channel=0, data=[76, 86]),
   midi.NoteOnEvent(tick=0, channel=0, data=[72, 86]),
   midi.NoteOnEvent(tick=0, channel=0, data=[67, 86]),
   midi.NoteOnEvent(tick=0, channel=0, data=[64, 81]),
   midi.NoteOnEvent(tick=0, channel=0, data=[60, 81]),
   midi.NoteOnEvent(tick=20, channel=0, data=[48, 0]),
   midi.NoteOnEvent(tick=0, channel=0, data=[55, 0]),
   midi.NoteOnEvent(tick=95, channel=0, data=[67, 0]),
   midi.NoteOnEvent(tick=0, channel=0, data=[79, 0]),
   midi.NoteOnEvent(tick=0, channel=0, data=[72, 0]),
   midi.NoteOnEvent(tick=0, channel=0, data=[60, 0]),
   midi.NoteOnEvent(tick=0, channel=0, data=[64, 0]),
   midi.NoteOnEvent(tick=0, channel=0, data=[76, 0]),
   midi.NoteOnEvent(tick=5, channel=0, data=[81, 88]),
   midi.NoteOnEvent(tick=0, channel=0, data=[77, 92]),
   midi.NoteOnEvent(tick=0, channel=0, data=[72, 88]),
   midi.NoteOnEvent(tick=0, channel=0, data=[69, 89]),
   midi.NoteOnEvent(tick=0, channel=0, data=[65, 86]),
   midi.NoteOnEvent(tick=0, channel=0, data=[60, 83]),
   midi.NoteOnEvent(tick=85, channel=0, data=[60, 0]),
   midi.NoteOnEvent(tick=0, channel=0, data=[77, 0]),
   midi.NoteOnEvent(tick=0, channel=0, data=[72, 0]),
   midi.NoteOnEvent(tick=0, channel=0, data=[81, 0]),
   midi.NoteOnEvent(tick=0, channel=0, data=[65, 0]),
   midi.NoteOnEvent(tick=0, channel=0, data=[69, 0]),
   midi.NoteOnEvent(tick=5, channel=0, data=[83, 88]),
   midi.NoteOnEvent(tick=0, channel=0, data=[77, 90]),
   midi.NoteOnEvent(tick=0, channel=0, data=[74, 87]),
   midi.NoteOnEvent(tick=0, channel=0, data=[72, 89]),
   midi.NoteOnEvent(tick=0, channel=0, data=[71, 84]),
   midi.NoteOnEvent(tick=0, channel=0, data=[65, 86]),
   midi.NoteOnEvent(tick=0, channel=0, data=[62, 84]),
   midi.NoteOnEvent(tick=0, channel=0, data=[60, 85]),
   midi.NoteOnEvent(tick=20, channel=0, data=[60, 0]),
   midi.NoteOnEvent(tick=0, channel=0, data=[83, 0]),
   midi.NoteOnEvent(tick=0, channel=0, data=[71, 0]),
   midi.NoteOnEvent(tick=0, channel=0, data=[77, 0]),
   midi.NoteOnEvent(tick=0, channel=0, data=[74, 0]),
   midi.NoteOnEvent(tick=0, channel=0, data=[72, 0]),
   midi.NoteOnEvent(tick=0, channel=0, data=[65, 0]),
   midi.NoteOnEvent(tick=0, channel=0, data=[62, 0]),
   midi.NoteOnEvent(tick=10, channel=0, data=[81, 88]),
   midi.NoteOnEvent(tick=0, channel=0, data=[77, 88]),
   midi.NoteOnEvent(tick=0, channel=0, data=[72, 89]),
   midi.NoteOnEvent(tick=0, channel=0, data=[69, 92]),
   midi.NoteOnEvent(tick=0, channel=0, data=[60, 83]),
   midi.NoteOnEvent(tick=20, channel=0, data=[60, 0]),
   midi.NoteOnEvent(tick=0, channel=0, data=[72, 0]),
   midi.NoteOnEvent(tick=0, channel=0, data=[81, 0]),
   midi.NoteOnEvent(tick=0, channel=0, data=[77, 0]),
   midi.NoteOnEvent(tick=0, channel=0, data=[69, 0]),
   midi.NoteOnEvent(tick=40, channel=0, data=[79, 79]),
   midi.NoteOnEvent(tick=0, channel=0, data=[76, 83]),
   midi.NoteOnEvent(tick=0, channel=0, data=[72, 81]),
   midi.NoteOnEvent(tick=0, channel=0, data=[67, 88]),
   midi.NoteOnEvent(tick=0, channel=0, data=[64, 83]),
   midi.NoteOnEvent(tick=0, channel=0, data=[60, 86]),
   midi.NoteOnEvent(tick=120, channel=0, data=[55, 81]),
   midi.NoteOnEvent(tick=0, channel=0, data=[48, 80]),
   midi.NoteOnEvent(tick=60, channel=0, data=[60, 0]),
   midi.NoteOnEvent(tick=0, channel=0, data=[67, 0]),
   midi.NoteOnEvent(tick=0, channel=0, data=[79, 0]),
   midi.NoteOnEvent(tick=0, channel=0, data=[76, 0]),
   midi.NoteOnEvent(tick=0, channel=0, data=[72, 0]),
   midi.NoteOnEvent(tick=0, channel=0, data=[64, 0]),
   midi.NoteOnEvent(tick=0, channel=0, data=[79, 82]),
   midi.NoteOnEvent(tick=0, channel=0, data=[72, 82]),
   midi.NoteOnEvent(tick=0, channel=0, data=[76, 84]),
   midi.NoteOnEvent(tick=0, channel=0, data=[64, 78]),
   midi.NoteOnEvent(tick=0, channel=0, data=[67, 85]),
   midi.NoteOnEvent(tick=0, channel=0, data=[60, 82]),
   midi.NoteOnEvent(tick=5, channel=0, data=[48, 0]),
   midi.NoteOnEvent(tick=0, channel=0, data=[55, 0]),
   midi.NoteOnEvent(tick=10, channel=0, data=[64, 0]),
   midi.NoteOnEvent(tick=0, channel=0, data=[79, 0]),
   midi.NoteOnEvent(tick=0, channel=0, data=[76, 0]),
   midi.NoteOnEvent(tick=0, channel=0, data=[60, 0]),
   midi.NoteOnEvent(tick=0, channel=0, data=[67, 0]),
   midi.NoteOnEvent(tick=0, channel=0, data=[72, 0]),
   midi.NoteOnEvent(tick=75, channel=0, data=[81, 86]),
   midi.NoteOnEvent(tick=0, channel=0, data=[77, 89]),
   midi.NoteOnEvent(tick=0, channel=0, data=[72, 84]),
   midi.NoteOnEvent(tick=0, channel=0, data=[69, 85]),
   midi.NoteOnEvent(tick=0, channel=0, data=[65, 85]),
   midi.NoteOnEvent(tick=0, channel=0, data=[60, 82]),
   midi.NoteOnEvent(tick=10, channel=0, data=[65, 0]),
   midi.NoteOnEvent(tick=5, channel=0, data=[69, 0]),
   midi.NoteOnEvent(tick=0, channel=0, data=[72, 0]),
   midi.NoteOnEvent(tick=0, channel=0, data=[81, 0]),
   midi.NoteOnEvent(tick=0, channel=0, data=[77, 0]),
   midi.NoteOnEvent(tick=5, channel=0, data=[60, 0]),
   midi.NoteOnEvent(tick=10, channel=0, data=[77, 90]),
   midi.NoteOnEvent(tick=0, channel=0, data=[81, 84]),
   midi.NoteOnEvent(tick=0, channel=0, data=[65, 83]),
   midi.NoteOnEvent(tick=0, channel=0, data=[60, 83]),
   midi.NoteOnEvent(tick=0, channel=0, data=[69, 85]),
   midi.NoteOnEvent(tick=0, channel=0, data=[72, 90]),
   midi.NoteOnEvent(tick=15, channel=0, data=[72, 0]),
   midi.NoteOnEvent(tick=0, channel=0, data=[81, 0]),
   midi.NoteOnEvent(tick=0, channel=0, data=[65, 0]),
   midi.NoteOnEvent(tick=0, channel=0, data=[77, 0]),
   midi.NoteOnEvent(tick=0, channel=0, data=[69, 0]),
   midi.NoteOnEvent(tick=0, channel=0, data=[60, 0]),
   midi.NoteOnEvent(tick=45, channel=0, data=[83, 89]),
   midi.NoteOnEvent(tick=0, channel=0, data=[77, 89]),
   midi.NoteOnEvent(tick=0, channel=0, data=[74, 86]),
   midi.NoteOnEvent(tick=0, channel=0, data=[72, 86]),
   midi.NoteOnEvent(tick=0, channel=0, data=[71, 88]),
   midi.NoteOnEvent(tick=0, channel=0, data=[65, 86]),
   midi.NoteOnEvent(tick=0, channel=0, data=[62, 86]),
   midi.NoteOnEvent(tick=0, channel=0, data=[60, 86]),
   midi.NoteOnEvent(tick=10, channel=0, data=[65, 0]),
   midi.NoteOnEvent(tick=5, channel=0, data=[83, 0]),
   midi.NoteOnEvent(tick=0, channel=0, data=[71, 0]),
   midi.NoteOnEvent(tick=0, channel=0, data=[77, 0]),
   midi.NoteOnEvent(tick=0, channel=0, data=[74, 0]),
   midi.NoteOnEvent(tick=0, channel=0, data=[72, 0]),
   midi.NoteOnEvent(tick=0, channel=0, data=[62, 0]),
   midi.NoteOnEvent(tick=0, channel=0, data=[60, 0]),
   midi.NoteOnEvent(tick=45, channel=0, data=[79, 80]),
   midi.NoteOnEvent(tick=0, channel=0, data=[72, 81]),
   midi.NoteOnEvent(tick=0, channel=0, data=[76, 82]),
   midi.NoteOnEvent(tick=0, channel=0, data=[60, 86]),
   midi.NoteOnEvent(tick=0, channel=0, data=[64, 83]),
   midi.NoteOnEvent(tick=0, channel=0, data=[67, 84]),
   midi.NoteOnEvent(tick=125, channel=0, data=[67, 0]),
   midi.NoteOnEvent(tick=10, channel=0, data=[60, 0]),
   midi.NoteOnEvent(tick=0, channel=0, data=[72, 0]),
   midi.NoteOnEvent(tick=0, channel=0, data=[79, 0]),
   midi.NoteOnEvent(tick=0, channel=0, data=[64, 0]),
   midi.NoteOnEvent(tick=5, channel=0, data=[76, 0]),
   midi.ControlChangeEvent(tick=100, channel=0, data=[64, 127]),
   midi.NoteOnEvent(tick=0, channel=0, data=[40, 90]),
   midi.NoteOnEvent(tick=5, channel=0, data=[64, 96]),
   midi.NoteOnEvent(tick=20, channel=0, data=[47, 89]),
   midi.NoteOnEvent(tick=25, channel=0, data=[52, 90]),
   midi.NoteOnEvent(tick=15, channel=0, data=[40, 0]),
   midi.NoteOnEvent(tick=5, channel=0, data=[56, 89]),
   midi.NoteOnEvent(tick=15, channel=0, data=[47, 0]),
   midi.NoteOnEvent(tick=10, channel=0, data=[62, 90]),
   midi.NoteOnEvent(tick=20, channel=0, data=[52, 0]),
   midi.ControlChangeEvent(tick=0, channel=0, data=[64, 0]),
   midi.NoteOnEvent(tick=5, channel=0, data=[38, 90]),
   midi.NoteOnEvent(tick=0, channel=0, data=[65, 100]),
   midi.ControlChangeEvent(tick=5, channel=0, data=[64, 0]),
   midi.NoteOnEvent(tick=10, channel=0, data=[56, 0]),
   midi.ControlChangeEvent(tick=10, channel=0, data=[64, 127]),
   midi.NoteOnEvent(tick=0, channel=0, data=[47, 90]),
   midi.NoteOnEvent(tick=15, channel=0, data=[62, 0]),
   midi.NoteOnEvent(tick=5, channel=0, data=[53, 90]),
   midi.NoteOnEvent(tick=20, channel=0, data=[38, 0]),
   midi.NoteOnEvent(tick=5, channel=0, data=[57, 90]),
   midi.NoteOnEvent(tick=5, channel=0, data=[64, 0]),
   midi.NoteOnEvent(tick=10, channel=0, data=[47, 0]),
   midi.NoteOnEvent(tick=10, channel=0, data=[62, 90]),
   midi.NoteOnEvent(tick=20, channel=0, data=[53, 0]),
   midi.ControlChangeEvent(tick=0, channel=0, data=[64, 0]),
   midi.ControlChangeEvent(tick=5, channel=0, data=[64, 127]),
   midi.NoteOnEvent(tick=0, channel=0, data=[32, 90]),
   midi.NoteOnEvent(tick=10, channel=0, data=[71, 101]),
   midi.NoteOnEvent(tick=5, channel=0, data=[57, 0]),
   midi.NoteOnEvent(tick=0, channel=0, data=[44, 90]),
   midi.NoteOnEvent(tick=15, channel=0, data=[65, 0]),
   midi.NoteOnEvent(tick=5, channel=0, data=[50, 90]),
   midi.NoteOnEvent(tick=5, channel=0, data=[62, 0]),
   midi.NoteOnEvent(tick=15, channel=0, data=[53, 90]),
   midi.NoteOnEvent(tick=5, channel=0, data=[44, 0]),
   midi.NoteOnEvent(tick=0, channel=0, data=[32, 0]),
   midi.NoteOnEvent(tick=20, channel=0, data=[50, 0]),
   midi.NoteOnEvent(tick=0, channel=0, data=[59, 90]),
   midi.ControlChangeEvent(tick=10, channel=0, data=[7, 115]),
   midi.NoteOnEvent(tick=10, channel=0, data=[53, 0]),
   midi.NoteOnEvent(tick=0, channel=0, data=[62, 90]),
   midi.ControlChangeEvent(tick=15, channel=0, data=[7, 116]),
   midi.NoteOnEvent(tick=5, channel=0, data=[59, 0]),
   midi.NoteOnEvent(tick=0, channel=0, data=[65, 90]),
   midi.NoteOnEvent(tick=15, channel=0, data=[62, 0]),
   midi.NoteOnEvent(tick=0, channel=0, data=[62, 90]),
   midi.NoteOnEvent(tick=5, channel=0, data=[62, 0]),
   midi.ControlChangeEvent(tick=0, channel=0, data=[7, 116]),
   midi.NoteOnEvent(tick=15, channel=0, data=[59, 90]),
   midi.NoteOnEvent(tick=5, channel=0, data=[65, 0]),
   midi.ControlChangeEvent(tick=0, channel=0, data=[7, 116]),
   midi.NoteOnEvent(tick=15, channel=0, data=[53, 90]),
   midi.ControlChangeEvent(tick=10, channel=0, data=[7, 116]),
   midi.NoteOnEvent(tick=10, channel=0, data=[50, 90]),
   midi.NoteOnEvent(tick=5, channel=0, data=[59, 0]),
   midi.ControlChangeEvent(tick=5, channel=0, data=[7, 118]),
   midi.NoteOnEvent(tick=15, channel=0, data=[53, 0]),
   midi.NoteOnEvent(tick=0, channel=0, data=[44, 90]),
   midi.NoteOnEvent(tick=20, channel=0, data=[50, 0]),
   midi.NoteOnEvent(tick=0, channel=0, data=[69, 102]),
   midi.NoteOnEvent(tick=0, channel=0, data=[45, 90]),
   midi.NoteOnEvent(tick=5, channel=0, data=[71, 0]),
   midi.ControlChangeEvent(tick=0, channel=0, data=[7, 118]),
   midi.ControlChangeEvent(tick=15, channel=0, data=[64, 0]),
   midi.ControlChangeEvent(tick=0, channel=0, data=[64, 127]),
   midi.NoteOnEvent(tick=0, channel=0, data=[52, 89]),
   midi.ControlChangeEvent(tick=15, channel=0, data=[7, 119]),
   midi.NoteOnEvent(tick=5, channel=0, data=[44, 0]),
   midi.NoteOnEvent(tick=5, channel=0, data=[57, 90]),
   midi.ControlChangeEvent(tick=10, channel=0, data=[7, 120]),
   midi.NoteOnEvent(tick=5, channel=0, data=[45, 0]),
   midi.NoteOnEvent(tick=10, channel=0, data=[61, 89]),
   midi.NoteOnEvent(tick=15, channel=0, data=[52, 0]),
   midi.NoteOnEvent(tick=5, channel=0, data=[67, 90]),
   midi.ControlChangeEvent(tick=10, channel=0, data=[7, 120]),
   midi.NoteOnEvent(tick=10, channel=0, data=[57, 0]),
   midi.ControlChangeEvent(tick=0, channel=0, data=[64, 0]),
   midi.ControlChangeEvent(tick=10, channel=0, data=[64, 127]),
   midi.NoteOnEvent(tick=0, channel=0, data=[43, 90]),
   midi.NoteOnEvent(tick=0, channel=0, data=[70, 106]),
   midi.NoteOnEvent(tick=15, channel=0, data=[61, 0]),
   midi.NoteOnEvent(tick=0, channel=0, data=[69, 0]),
   midi.ControlChangeEvent(tick=5, channel=0, data=[7, 120]),
   midi.NoteOnEvent(tick=0, channel=0, data=[52, 90]),
   midi.NoteOnEvent(tick=20, channel=0, data=[67, 0]),
   midi.NoteOnEvent(tick=5, channel=0, data=[58, 90]),
   midi.NoteOnEvent(tick=20, channel=0, data=[43, 0]),
   midi.NoteOnEvent(tick=10, channel=0, data=[62, 90]),
   midi.NoteOnEvent(tick=15, channel=0, data=[52, 0]),
   midi.NoteOnEvent(tick=5, channel=0, data=[67, 90]),
   midi.NoteOnEvent(tick=20, channel=0, data=[58, 0]),
   midi.NoteOnEvent(tick=5, channel=0, data=[70, 0]),
   midi.NoteOnEvent(tick=0, channel=0, data=[76, 107]),
   midi.NoteOnEvent(tick=0, channel=0, data=[37, 90]),
   midi.ControlChangeEvent(tick=5, channel=0, data=[64, 0]),
   midi.NoteOnEvent(tick=10, channel=0, data=[62, 0]),
   midi.ControlChangeEvent(tick=5, channel=0, data=[64, 127]),
   midi.NoteOnEvent(tick=0, channel=0, data=[49, 90]),
   midi.NoteOnEvent(tick=20, channel=0, data=[67, 0]),
   midi.NoteOnEvent(tick=0, channel=0, data=[55, 90]),
   midi.NoteOnEvent(tick=20, channel=0, data=[49, 0]),
   midi.NoteOnEvent(tick=0, channel=0, data=[58, 90]),
   midi.NoteOnEvent(tick=5, channel=0, data=[37, 0]),
   midi.NoteOnEvent(tick=10, channel=0, data=[64, 90]),
   midi.NoteOnEvent(tick=5, channel=0, data=[55, 0]),
   midi.NoteOnEvent(tick=20, channel=0, data=[58, 0]),
   midi.NoteOnEvent(tick=0, channel=0, data=[67, 90]),
   midi.NoteOnEvent(tick=20, channel=0, data=[64, 0]),
   midi.NoteOnEvent(tick=0, channel=0, data=[70, 90]),
   midi.NoteOnEvent(tick=20, channel=0, data=[67, 0]),
   midi.NoteOnEvent(tick=0, channel=0, data=[67, 90]),
   midi.NoteOnEvent(tick=1, channel=0, data=[67, 0]),
   midi.NoteOnEvent(tick=19, channel=0, data=[70, 0]),
   midi.NoteOnEvent(tick=0, channel=0, data=[64, 90]),
   midi.NoteOnEvent(tick=15, channel=0, data=[58, 90]),
   midi.NoteOnEvent(tick=20, channel=0, data=[55, 90]),
   midi.NoteOnEvent(tick=5, channel=0, data=[64, 0]),
   midi.NoteOnEvent(tick=15, channel=0, data=[49, 90]),
   midi.NoteOnEvent(tick=5, channel=0, data=[58, 0]),
   midi.ControlChangeEvent(tick=15, channel=0, data=[64, 0]),
   midi.ControlChangeEvent(tick=5, channel=0, data=[64, 127]),
   midi.NoteOnEvent(tick=0, channel=0, data=[50, 90]),
   midi.NoteOnEvent(tick=5, channel=0, data=[55, 0]),
   midi.NoteOnEvent(tick=0, channel=0, data=[76, 0]),
   midi.NoteOnEvent(tick=0, channel=0, data=[74, 98]),
   midi.NoteOnEvent(tick=0, channel=0, data=[77, 102]),
   midi.NoteOnEvent(tick=20, channel=0, data=[57, 89]),
   midi.NoteOnEvent(tick=20, channel=0, data=[49, 0]),
   midi.NoteOnEvent(tick=5, channel=0, data=[62, 90]),
   midi.NoteOnEvent(tick=15, channel=0, data=[50, 0]),
   midi.NoteOnEvent(tick=5, channel=0, data=[65, 89]),
   midi.NoteOnEvent(tick=15, channel=0, data=[57, 0]),
   midi.NoteOnEvent(tick=10, channel=0, data=[69, 90]),
   midi.NoteOnEvent(tick=20, channel=0, data=[62, 0]),
   midi.NoteOnEvent(tick=5, channel=0, data=[77, 0]),
   midi.NoteOnEvent(tick=0, channel=0, data=[45, 90]),
   midi.NoteOnEvent(tick=0, channel=0, data=[76, 93]),
   midi.NoteOnEvent(tick=5, channel=0, data=[72, 88]),
   midi.ControlChangeEvent(tick=0, channel=0, data=[64, 0]),
   midi.NoteOnEvent(tick=5, channel=0, data=[74, 0]),
   midi.NoteOnEvent(tick=10, channel=0, data=[65, 0]),
   midi.ControlChangeEvent(tick=5, channel=0, data=[64, 127]),
   midi.NoteOnEvent(tick=0, channel=0, data=[53, 90]),
   midi.NoteOnEvent(tick=15, channel=0, data=[69, 0]),
   midi.NoteOnEvent(tick=10, channel=0, data=[60, 90]),
   midi.NoteOnEvent(tick=15, channel=0, data=[45, 0]),
   midi.NoteOnEvent(tick=10, channel=0, data=[65, 90]),
   midi.NoteOnEvent(tick=5, channel=0, data=[72, 0]),
   midi.NoteOnEvent(tick=0, channel=0, data=[76, 0]),
   midi.NoteOnEvent(tick=10, channel=0, data=[53, 0]),
   midi.NoteOnEvent(tick=5, channel=0, data=[69, 90]),
   midi.NoteOnEvent(tick=20, channel=0, data=[60, 0]),
   midi.NoteOnEvent(tick=5, channel=0, data=[38, 85]),
   midi.ControlChangeEvent(tick=0, channel=0, data=[64, 0]),
   midi.NoteOnEvent(tick=5, channel=0, data=[69, 0]),
   midi.NoteOnEvent(tick=0, channel=0, data=[65, 0]),
   midi.ControlChangeEvent(tick=0, channel=0, data=[64, 127]),
   midi.NoteOnEvent(tick=0, channel=0, data=[65, 85]),
   midi.NoteOnEvent(tick=0, channel=0, data=[69, 93]),
   midi.NoteOnEvent(tick=5, channel=0, data=[69, 0]),
   midi.NoteOnEvent(tick=0, channel=0, data=[65, 0]),
   midi.ControlChangeEvent(tick=5, channel=0, data=[7, 120]),
   midi.NoteOnEvent(tick=0, channel=0, data=[45, 85]),
   midi.NoteOnEvent(tick=25, channel=0, data=[50, 85]),
   midi.ControlChangeEvent(tick=0, channel=0, data=[7, 120]),
   midi.NoteOnEvent(tick=5, channel=0, data=[71, 90]),
   midi.NoteOnEvent(tick=10, channel=0, data=[53, 85]),
   midi.NoteOnEvent(tick=5, channel=0, data=[45, 0]),
   midi.NoteOnEvent(tick=15, channel=0, data=[38, 0]),
   midi.NoteOnEvent(tick=5, channel=0, data=[50, 0]),
   midi.NoteOnEvent(tick=0, channel=0, data=[57, 85]),
   midi.NoteOnEvent(tick=5, channel=0, data=[72, 94]),
   midi.NoteOnEvent(tick=5, channel=0, data=[71, 0]),
   midi.NoteOnEvent(tick=5, channel=0, data=[59, 85]),
   midi.NoteOnEvent(tick=5, channel=0, data=[53, 0]),
   midi.ControlChangeEvent(tick=15, channel=0, data=[7, 119]),
   midi.NoteOnEvent(tick=5, channel=0, data=[57, 0]),
   midi.NoteOnEvent(tick=0, channel=0, data=[62, 83]),
   midi.NoteOnEvent(tick=5, channel=0, data=[71, 93]),
   midi.NoteOnEvent(tick=5, channel=0, data=[72, 0]),
   midi.ControlChangeEvent(tick=0, channel=0, data=[7, 118]),
   midi.ControlChangeEvent(tick=5, channel=0, data=[7, 118]),
   midi.NoteOnEvent(tick=5, channel=0, data=[59, 0]),
   midi.NoteOnEvent(tick=10, channel=0, data=[59, 83]),
   midi.NoteOnEvent(tick=10, channel=0, data=[62, 0]),
   midi.NoteOnEvent(tick=20, channel=0, data=[57, 83]),
   midi.NoteOnEvent(tick=10, channel=0, data=[71, 0]),
   midi.NoteOnEvent(tick=0, channel=0, data=[74, 90]),
   midi.NoteOnEvent(tick=5, channel=0, data=[59, 0]),
   midi.ControlChangeEvent(tick=10, channel=0, data=[7, 116]),
   midi.NoteOnEvent(tick=5, channel=0, data=[53, 83]),
   midi.NoteOnEvent(tick=10, channel=0, data=[57, 0]),
   midi.NoteOnEvent(tick=20, channel=0, data=[42, 83]),
   midi.NoteOnEvent(tick=5, channel=0, data=[68, 94]),
   midi.NoteOnEvent(tick=5, channel=0, data=[53, 0]),
   midi.NoteOnEvent(tick=0, channel=0, data=[74, 0]),
   midi.ControlChangeEvent(tick=5, channel=0, data=[64, 0]),
   midi.ControlChangeEvent(tick=5, channel=0, data=[64, 127]),
   midi.NoteOnEvent(tick=0, channel=0, data=[48, 83]),
   midi.ControlChangeEvent(tick=10, channel=0, data=[7, 116]),
   midi.NoteOnEvent(tick=10, channel=0, data=[51, 83]),
   midi.ControlChangeEvent(tick=0, channel=0, data=[7, 116]),
   midi.NoteOnEvent(tick=15, channel=0, data=[42, 0]),
   midi.ControlChangeEvent(tick=5, channel=0, data=[7, 116]),
   midi.NoteOnEvent(tick=0, channel=0, data=[56, 83]),
   midi.ControlChangeEvent(tick=10, channel=0, data=[7, 115]),
   midi.NoteOnEvent(tick=5, channel=0, data=[48, 0]),
   midi.NoteOnEvent(tick=5, channel=0, data=[60, 83]),
   midi.NoteOnEvent(tick=15, channel=0, data=[51, 0]),
   midi.NoteOnEvent(tick=5, channel=0, data=[63, 83]),
   midi.NoteOnEvent(tick=15, channel=0, data=[56, 0]),
   midi.ControlChangeEvent(tick=0, channel=0, data=[64, 0]),
   midi.ControlChangeEvent(tick=5, channel=0, data=[64, 127]),
   midi.NoteOnEvent(tick=0, channel=0, data=[69, 94]),
   midi.NoteOnEvent(tick=0, channel=0, data=[41, 83]),
   midi.ControlChangeEvent(tick=0, channel=0, data=[7, 115]),
   midi.NoteOnEvent(tick=5, channel=0, data=[68, 0]),
   midi.NoteOnEvent(tick=5, channel=0, data=[60, 0]),
   midi.ControlChangeEvent(tick=5, channel=0, data=[7, 114]),
   midi.NoteOnEvent(tick=5, channel=0, data=[47, 83]),
   midi.NoteOnEvent(tick=10, channel=0, data=[63, 0]),
   midi.NoteOnEvent(tick=5, channel=0, data=[51, 83]),
   midi.NoteOnEvent(tick=10, channel=0, data=[41, 0]),
   midi.ControlChangeEvent(tick=5, channel=0, data=[7, 112]),
   midi.NoteOnEvent(tick=10, channel=0, data=[57, 83]),
   midi.NoteOnEvent(tick=10, channel=0, data=[47, 0]),
   midi.ControlChangeEvent(tick=5, channel=0, data=[7, 112]),
   midi.NoteOnEvent(tick=5, channel=0, data=[59, 83]),
   midi.NoteOnEvent(tick=10, channel=0, data=[51, 0]),
   midi.NoteOnEvent(tick=10, channel=0, data=[63, 83]),
   midi.NoteOnEvent(tick=10, channel=0, data=[57, 0]),
   midi.NoteOnEvent(tick=10, channel=0, data=[40, 83]),
   midi.NoteOnEvent(tick=0, channel=0, data=[72, 99]),
   midi.NoteOnEvent(tick=5, channel=0, data=[69, 0]),
   midi.ControlChangeEvent(tick=0, channel=0, data=[64, 0]),
   midi.NoteOnEvent(tick=5, channel=0, data=[59, 0]),
   midi.ControlChangeEvent(tick=5, channel=0, data=[64, 127]),
   midi.NoteOnEvent(tick=0, channel=0, data=[52, 83]),
   midi.NoteOnEvent(tick=15, channel=0, data=[63, 0]),
   midi.ControlChangeEvent(tick=5, channel=0, data=[7, 112]),
   midi.NoteOnEvent(tick=0, channel=0, data=[54, 83]),
   midi.NoteOnEvent(tick=15, channel=0, data=[40, 0]),
   midi.NoteOnEvent(tick=0, channel=0, data=[60, 83]),
   midi.NoteOnEvent(tick=15, channel=0, data=[52, 0]),
   midi.NoteOnEvent(tick=10, channel=0, data=[63, 83]),
   midi.ControlChangeEvent(tick=0, channel=0, data=[7, 111]),
   midi.NoteOnEvent(tick=10, channel=0, data=[54, 0]),
   midi.NoteOnEvent(tick=10, channel=0, data=[66, 83]),
   midi.NoteOnEvent(tick=15, channel=0, data=[60, 0]),
   midi.NoteOnEvent(tick=10, channel=0, data=[40, 83]),
   midi.NoteOnEvent(tick=5, channel=0, data=[71, 86]),
   midi.ControlChangeEvent(tick=0, channel=0, data=[64, 0]),
   midi.NoteOnEvent(tick=10, channel=0, data=[63, 0]),
   midi.NoteOnEvent(tick=5, channel=0, data=[72, 0]),
   midi.ControlChangeEvent(tick=0, channel=0, data=[64, 127]),
   midi.NoteOnEvent(tick=0, channel=0, data=[52, 83]),
   midi.ControlChangeEvent(tick=10, channel=0, data=[7, 110]),
   midi.NoteOnEvent(tick=5, channel=0, data=[56, 83]),
   midi.NoteOnEvent(tick=5, channel=0, data=[66, 0]),
   midi.NoteOnEvent(tick=15, channel=0, data=[59, 83]),
   midi.NoteOnEvent(tick=10, channel=0, data=[40, 0]),
   midi.NoteOnEvent(tick=5, channel=0, data=[52, 0]),
   midi.NoteOnEvent(tick=5, channel=0, data=[71, 0]),
   midi.NoteOnEvent(tick=0, channel=0, data=[64, 83]),
   midi.NoteOnEvent(tick=15, channel=0, data=[56, 0]),
   midi.NoteOnEvent(tick=5, channel=0, data=[68, 83]),
   midi.NoteOnEvent(tick=20, channel=0, data=[59, 0]),
   midi.NoteOnEvent(tick=5, channel=0, data=[64, 0]),
   midi.NoteOnEvent(tick=0, channel=0, data=[76, 98]),
   midi.NoteOnEvent(tick=0, channel=0, data=[64, 86]),
   midi.NoteOnEvent(tick=0, channel=0, data=[52, 88]),
   midi.NoteOnEvent(tick=5, channel=0, data=[64, 0]),
   midi.ControlChangeEvent(tick=0, channel=0, data=[64, 0]),
   midi.ControlChangeEvent(tick=15, channel=0, data=[64, 127]),
   midi.NoteOnEvent(tick=0, channel=0, data=[59, 91]),
   midi.NoteOnEvent(tick=5, channel=0, data=[68, 0]),
   midi.ControlChangeEvent(tick=10, channel=0, data=[7, 111]),
   midi.NoteOnEvent(tick=15, channel=0, data=[64, 91]),
   midi.ControlChangeEvent(tick=0, channel=0, data=[7, 112]),
   midi.NoteOnEvent(tick=1, channel=0, data=[64, 0]),
   midi.NoteOnEvent(tick=4, channel=0, data=[52, 0]),
   midi.NoteOnEvent(tick=10, channel=0, data=[76, 0]),
   midi.NoteOnEvent(tick=10, channel=0, data=[68, 95]),
   midi.ControlChangeEvent(tick=0, channel=0, data=[7, 112]),
   midi.NoteOnEvent(tick=5, channel=0, data=[59, 0]),
   midi.ControlChangeEvent(tick=15, channel=0, data=[7, 112]),
   midi.NoteOnEvent(tick=0, channel=0, data=[74, 95]),
   midi.NoteOnEvent(tick=25, channel=0, data=[50, 98]),
   midi.NoteOnEvent(tick=0, channel=0, data=[77, 103]),
   midi.NoteOnEvent(tick=0, channel=0, data=[65, 105]),
   midi.NoteOnEvent(tick=5, channel=0, data=[68, 0]),
   midi.ControlChangeEvent(tick=0, channel=0, data=[64, 0]),
   midi.ControlChangeEvent(tick=5, channel=0, data=[7, 114]),
   midi.ControlChangeEvent(tick=10, channel=0, data=[64, 127]),
   midi.NoteOnEvent(tick=0, channel=0, data=[59, 98]),
   midi.NoteOnEvent(tick=5, channel=0, data=[74, 0]),
   midi.NoteOnEvent(tick=10, channel=0, data=[65, 0]),
   midi.ControlChangeEvent(tick=0, channel=0, data=[7, 115]),
   midi.NoteOnEvent(tick=10, channel=0, data=[65, 105]),
   midi.NoteOnEvent(tick=10, channel=0, data=[50, 0]),
   midi.NoteOnEvent(tick=15, channel=0, data=[77, 0]),
   midi.NoteOnEvent(tick=0, channel=0, data=[69, 98]),
   midi.NoteOnEvent(tick=5, channel=0, data=[59, 0]),
   midi.ControlChangeEvent(tick=10, channel=0, data=[7, 115]),
   midi.NoteOnEvent(tick=10, channel=0, data=[74, 98]),
   midi.NoteOnEvent(tick=5, channel=0, data=[65, 0]),
   midi.NoteOnEvent(tick=20, channel=0, data=[71, 104]),
   midi.NoteOnEvent(tick=0, channel=0, data=[83, 103]),
   midi.NoteOnEvent(tick=0, channel=0, data=[44, 103]),
   midi.ControlChangeEvent(tick=0, channel=0, data=[64, 0]),
   midi.NoteOnEvent(tick=5, channel=0, data=[69, 0]),
   midi.ControlChangeEvent(tick=15, channel=0, data=[64, 127]),
   midi.NoteOnEvent(tick=0, channel=0, data=[56, 103]),
   midi.NoteOnEvent(tick=10, channel=0, data=[74, 0]),
   midi.NoteOnEvent(tick=10, channel=0, data=[62, 103]),
   midi.NoteOnEvent(tick=10, channel=0, data=[44, 0]),
   midi.NoteOnEvent(tick=10, channel=0, data=[65, 103]),
   midi.NoteOnEvent(tick=15, channel=0, data=[56, 0]),
   midi.NoteOnEvent(tick=0, channel=0, data=[71, 0]),
   midi.NoteOnEvent(tick=5, channel=0, data=[71, 103]),
   midi.NoteOnEvent(tick=10, channel=0, data=[62, 0]),
   midi.NoteOnEvent(tick=5, channel=0, data=[74, 103]),
   midi.NoteOnEvent(tick=20, channel=0, data=[65, 0]),
   midi.NoteOnEvent(tick=5, channel=0, data=[77, 103]),
   midi.NoteOnEvent(tick=15, channel=0, data=[83, 0]),
   midi.NoteOnEvent(tick=5, channel=0, data=[74, 0]),
   midi.NoteOnEvent(tick=0, channel=0, data=[74, 103]),
   midi.NoteOnEvent(tick=1, channel=0, data=[74, 0]),
   midi.NoteOnEvent(tick=9, channel=0, data=[71, 0]),
   midi.NoteOnEvent(tick=10, channel=0, data=[77, 0]),
   midi.NoteOnEvent(tick=0, channel=0, data=[71, 103]),
   midi.NoteOnEvent(tick=20, channel=0, data=[65, 103]),
   midi.NoteOnEvent(tick=20, channel=0, data=[62, 103]),
   midi.NoteOnEvent(tick=15, channel=0, data=[71, 0]),
   midi.NoteOnEvent(tick=10, channel=0, data=[56, 103]),
   midi.NoteOnEvent(tick=15, channel=0, data=[65, 0]),
   midi.NoteOnEvent(tick=0, channel=0, data=[81, 108]),
   midi.NoteOnEvent(tick=0, channel=0, data=[69, 107]),
   midi.NoteOnEvent(tick=0, channel=0, data=[57, 101]),
   midi.ControlChangeEvent(tick=5, channel=0, data=[64, 0]),
   midi.NoteOnEvent(tick=10, channel=0, data=[62, 0]),
   midi.ControlChangeEvent(tick=15, channel=0, data=[64, 127]),
   midi.NoteOnEvent(tick=0, channel=0, data=[64, 101]),
   midi.NoteOnEvent(tick=5, channel=0, data=[56, 0]),
   midi.NoteOnEvent(tick=20, channel=0, data=[69, 0]),
   midi.NoteOnEvent(tick=0, channel=0, data=[69, 101]),
   midi.NoteOnEvent(tick=5, channel=0, data=[69, 0]),
   midi.NoteOnEvent(tick=0, channel=0, data=[57, 0]),
   midi.NoteOnEvent(tick=10, channel=0, data=[81, 0]),
   midi.NoteOnEvent(tick=10, channel=0, data=[73, 101]),
   midi.NoteOnEvent(tick=5, channel=0, data=[64, 0]),
   midi.NoteOnEvent(tick=20, channel=0, data=[79, 101]),
   midi.NoteOnEvent(tick=15, channel=0, data=[70, 104]),
   midi.ControlChangeEvent(tick=0, channel=0, data=[64, 0]),
   midi.ControlChangeEvent(tick=0, channel=0, data=[64, 127]),
   midi.NoteOnEvent(tick=0, channel=0, data=[82, 108]),
   midi.NoteOnEvent(tick=10, channel=0, data=[55, 103]),
   midi.NoteOnEvent(tick=5, channel=0, data=[73, 0]),
   midi.NoteOnEvent(tick=15, channel=0, data=[64, 103]),
   midi.NoteOnEvent(tick=5, channel=0, data=[70, 0]),
   midi.NoteOnEvent(tick=5, channel=0, data=[79, 0]),
   midi.NoteOnEvent(tick=15, channel=0, data=[70, 103]),
   midi.NoteOnEvent(tick=5, channel=0, data=[55, 0]),
   midi.NoteOnEvent(tick=10, channel=0, data=[82, 0]),
   midi.NoteOnEvent(tick=15, channel=0, data=[74, 103]),
   midi.NoteOnEvent(tick=5, channel=0, data=[64, 0]),
   midi.NoteOnEvent(tick=15, channel=0, data=[79, 103]),
   midi.NoteOnEvent(tick=10, channel=0, data=[70, 0]),
   midi.NoteOnEvent(tick=5, channel=0, data=[88, 106]),
   midi.NoteOnEvent(tick=0, channel=0, data=[76, 108]),
   midi.ControlChangeEvent(tick=5, channel=0, data=[64, 0]),
   midi.ControlChangeEvent(tick=5, channel=0, data=[64, 127]),
   midi.NoteOnEvent(tick=0, channel=0, data=[49, 103]),
   midi.NoteOnEvent(tick=5, channel=0, data=[74, 0]),
   midi.NoteOnEvent(tick=10, channel=0, data=[61, 103]),
   midi.NoteOnEvent(tick=15, channel=0, data=[79, 0]),
   midi.NoteOnEvent(tick=0, channel=0, data=[67, 105]),
   midi.NoteOnEvent(tick=15, channel=0, data=[49, 0]),
   midi.NoteOnEvent(tick=5, channel=0, data=[70, 105]),
   midi.NoteOnEvent(tick=15, channel=0, data=[61, 0]),
   midi.NoteOnEvent(tick=0, channel=0, data=[76, 0]),
   midi.NoteOnEvent(tick=5, channel=0, data=[76, 105]),
   midi.NoteOnEvent(tick=15, channel=0, data=[67, 0]),
   midi.NoteOnEvent(tick=5, channel=0, data=[79, 105]),
   midi.NoteOnEvent(tick=15, channel=0, data=[70, 0]),
   midi.NoteOnEvent(tick=5, channel=0, data=[82, 105]),
   midi.NoteOnEvent(tick=10, channel=0, data=[76, 0]),
   midi.NoteOnEvent(tick=10, channel=0, data=[79, 0]),
   midi.NoteOnEvent(tick=0, channel=0, data=[79, 103]),
   midi.NoteOnEvent(tick=5, channel=0, data=[88, 0]),
   midi.NoteOnEvent(tick=10, channel=0, data=[76, 103]),
   midi.NoteOnEvent(tick=5, channel=0, data=[82, 0]),
   midi.NoteOnEvent(tick=15, channel=0, data=[70, 103]),
   midi.NoteOnEvent(tick=15, channel=0, data=[79, 0]),
   midi.NoteOnEvent(tick=10, channel=0, data=[67, 101]),
   midi.NoteOnEvent(tick=15, channel=0, data=[76, 0]),
   midi.NoteOnEvent(tick=5, channel=0, data=[64, 101]),
   midi.NoteOnEvent(tick=15, channel=0, data=[70, 0]),
   midi.ControlChangeEvent(tick=0, channel=0, data=[64, 0]),
   midi.ControlChangeEvent(tick=5, channel=0, data=[64, 127]),
   midi.NoteOnEvent(tick=0, channel=0, data=[89, 104]),
   midi.NoteOnEvent(tick=0, channel=0, data=[86, 102]),
   midi.NoteOnEvent(tick=0, channel=0, data=[62, 95]),
   midi.NoteOnEvent(tick=15, channel=0, data=[67, 0]),
   midi.NoteOnEvent(tick=10, channel=0, data=[69, 88]),
   midi.NoteOnEvent(tick=10, channel=0, data=[64, 0]),
   midi.NoteOnEvent(tick=15, channel=0, data=[74, 86]),
   midi.NoteOnEvent(tick=5, channel=0, data=[62, 0]),
   midi.NoteOnEvent(tick=20, channel=0, data=[77, 86]),
   midi.NoteOnEvent(tick=5, channel=0, data=[69, 0]),
   midi.NoteOnEvent(tick=20, channel=0, data=[81, 86]),
   midi.NoteOnEvent(tick=5, channel=0, data=[74, 0]),
   midi.NoteOnEvent(tick=15, channel=0, data=[88, 100]),
   midi.NoteOnEvent(tick=0, channel=0, data=[57, 86]),
   midi.NoteOnEvent(tick=0, channel=0, data=[84, 96]),
   midi.ControlChangeEvent(tick=5, channel=0, data=[64, 0]),
   midi.NoteOnEvent(tick=5, channel=0, data=[77, 0]),
   midi.NoteOnEvent(tick=0, channel=0, data=[89, 0]),
   midi.NoteOnEvent(tick=10, channel=0, data=[86, 0]),
   midi.ControlChangeEvent(tick=5, channel=0, data=[64, 127]),
   midi.NoteOnEvent(tick=0, channel=0, data=[65, 86]),
   midi.NoteOnEvent(tick=5, channel=0, data=[81, 0]),
   midi.NoteOnEvent(tick=15, channel=0, data=[72, 83]),
   midi.NoteOnEvent(tick=10, channel=0, data=[57, 0]),
   midi.NoteOnEvent(tick=15, channel=0, data=[77, 83]),
   midi.NoteOnEvent(tick=5, channel=0, data=[65, 0]),
   midi.NoteOnEvent(tick=5, channel=0, data=[88, 0]),
   midi.NoteOnEvent(tick=5, channel=0, data=[84, 0]),
   midi.NoteOnEvent(tick=10, channel=0, data=[81, 83]),
   midi.NoteOnEvent(tick=5, channel=0, data=[72, 0]),
   midi.NoteOnEvent(tick=15, channel=0, data=[77, 0]),
   midi.NoteOnEvent(tick=5, channel=0, data=[81, 0]),
   midi.NoteOnEvent(tick=0, channel=0, data=[50, 82]),
   midi.NoteOnEvent(tick=0, channel=0, data=[81, 101]),
   midi.NoteOnEvent(tick=0, channel=0, data=[77, 98]),
   midi.ControlChangeEvent(tick=5, channel=0, data=[64, 0]),
   midi.ControlChangeEvent(tick=10, channel=0, data=[64, 127]),
   midi.NoteOnEvent(tick=0, channel=0, data=[57, 82]),
   midi.NoteOnEvent(tick=20, channel=0, data=[62, 82]),
   midi.NoteOnEvent(tick=0, channel=0, data=[83, 97]),
   midi.NoteOnEvent(tick=15, channel=0, data=[50, 0]),
   midi.NoteOnEvent(tick=5, channel=0, data=[65, 82]),
   midi.NoteOnEvent(tick=5, channel=0, data=[81, 0]),
   midi.NoteOnEvent(tick=10, channel=0, data=[57, 0]),
   midi.NoteOnEvent(tick=5, channel=0, data=[69, 82]),
   midi.NoteOnEvent(tick=5, channel=0, data=[84, 95]),
   midi.NoteOnEvent(tick=10, channel=0, data=[62, 0]),
   midi.NoteOnEvent(tick=0, channel=0, data=[83, 0]),
   midi.NoteOnEvent(tick=5, channel=0, data=[71, 82]),
   midi.NoteOnEvent(tick=15, channel=0, data=[65, 0]),
   midi.NoteOnEvent(tick=10, channel=0, data=[83, 96]),
   midi.NoteOnEvent(tick=0, channel=0, data=[74, 82]),
   midi.NoteOnEvent(tick=5, channel=0, data=[84, 0]),
   midi.NoteOnEvent(tick=5, channel=0, data=[69, 0]),
   midi.NoteOnEvent(tick=5, channel=0, data=[71, 0]),
   midi.NoteOnEvent(tick=10, channel=0, data=[71, 82]),
   midi.NoteOnEvent(tick=15, channel=0, data=[74, 0]),
   midi.NoteOnEvent(tick=5, channel=0, data=[77, 0]),
   midi.NoteOnEvent(tick=10, channel=0, data=[86, 97]),
   midi.NoteOnEvent(tick=5, channel=0, data=[83, 0]),
   midi.NoteOnEvent(tick=0, channel=0, data=[69, 82]),
   midi.NoteOnEvent(tick=25, channel=0, data=[71, 0]),
   midi.NoteOnEvent(tick=5, channel=0, data=[65, 82]),
   midi.NoteOnEvent(tick=25, channel=0, data=[69, 0]),
   midi.NoteOnEvent(tick=5, channel=0, data=[54, 82]),
   midi.NoteOnEvent(tick=0, channel=0, data=[60, 82]),
   midi.NoteOnEvent(tick=0, channel=0, data=[80, 102]),
   midi.NoteOnEvent(tick=0, channel=0, data=[68, 89]),
   midi.NoteOnEvent(tick=0, channel=0, data=[72, 91]),
   midi.NoteOnEvent(tick=5, channel=0, data=[86, 0]),
   midi.NoteOnEvent(tick=0, channel=0, data=[75, 98]),
   midi.NoteOnEvent(tick=0, channel=0, data=[63, 82]),
   midi.ControlChangeEvent(tick=0, channel=0, data=[64, 0]),
   midi.NoteOnEvent(tick=15, channel=0, data=[65, 0]),
   midi.NoteOnEvent(tick=65, channel=0, data=[80, 0]),
   midi.NoteOnEvent(tick=0, channel=0, data=[75, 0]),
   midi.NoteOnEvent(tick=5, channel=0, data=[68, 0]),
   midi.NoteOnEvent(tick=0, channel=0, data=[72, 0]),
   midi.NoteOnEvent(tick=35, channel=0, data=[54, 0]),
   midi.NoteOnEvent(tick=5, channel=0, data=[60, 0]),
   midi.NoteOnEvent(tick=5, channel=0, data=[63, 0]),
   midi.ControlChangeEvent(tick=40, channel=0, data=[64, 127]),
   midi.NoteOnEvent(tick=0, channel=0, data=[69, 97]),
   midi.NoteOnEvent(tick=5, channel=0, data=[60, 94]),
   midi.NoteOnEvent(tick=0, channel=0, data=[41, 82]),
   midi.NoteOnEvent(tick=0, channel=0, data=[53, 82]),
   midi.NoteOnEvent(tick=0, channel=0, data=[63, 93]),
   midi.NoteOnEvent(tick=30, channel=0, data=[60, 0]),
   midi.NoteOnEvent(tick=5, channel=0, data=[69, 0]),
   midi.NoteOnEvent(tick=0, channel=0, data=[63, 0]),
   midi.NoteOnEvent(tick=25, channel=0, data=[41, 0]),
   midi.NoteOnEvent(tick=0, channel=0, data=[53, 0]),
   midi.NoteOnEvent(tick=0, channel=0, data=[72, 97]),
   midi.NoteOnEvent(tick=0, channel=0, data=[69, 96]),
   midi.NoteOnEvent(tick=0, channel=0, data=[64, 92]),
   midi.NoteOnEvent(tick=0, channel=0, data=[52, 82]),
   midi.NoteOnEvent(tick=0, channel=0, data=[40, 82]),
   midi.ControlChangeEvent(tick=10, channel=0, data=[64, 0]),
   midi.NoteOnEvent(tick=20, channel=0, data=[40, 0]),
   midi.NoteOnEvent(tick=5, channel=0, data=[64, 0]),
   midi.NoteOnEvent(tick=0, channel=0, data=[72, 0]),
   midi.NoteOnEvent(tick=0, channel=0, data=[69, 0]),
   midi.NoteOnEvent(tick=0, channel=0, data=[52, 0]),
   midi.NoteOnEvent(tick=85, channel=0, data=[59, 95]),
   midi.NoteOnEvent(tick=0, channel=0, data=[68, 97]),
   midi.NoteOnEvent(tick=0, channel=0, data=[52, 82]),
   midi.NoteOnEvent(tick=0, channel=0, data=[62, 92]),
   midi.NoteOnEvent(tick=0, channel=0, data=[40, 82]),
   midi.NoteOnEvent(tick=15, channel=0, data=[68, 0]),
   midi.NoteOnEvent(tick=0, channel=0, data=[59, 0]),
   midi.NoteOnEvent(tick=5, channel=0, data=[62, 0]),
   midi.NoteOnEvent(tick=5, channel=0, data=[52, 0]),
   midi.NoteOnEvent(tick=5, channel=0, data=[40, 0]),
   midi.ControlChangeEvent(tick=90, channel=0, data=[64, 127]),
   midi.NoteOnEvent(tick=0, channel=0, data=[89, 81]),
   midi.NoteOnEvent(tick=0, channel=0, data=[84, 81]),
   midi.NoteOnEvent(tick=15, channel=0, data=[88, 86]),
   midi.NoteOnEvent(tick=0, channel=0, data=[81, 86]),
   midi.NoteOnEvent(tick=5, channel=0, data=[45, 82]),
   midi.NoteOnEvent(tick=0, channel=0, data=[51, 82]),
   midi.NoteOnEvent(tick=5, channel=0, data=[84, 0]),
   midi.NoteOnEvent(tick=0, channel=0, data=[89, 0]),
   midi.NoteOnEvent(tick=10, channel=0, data=[81, 0]),
   midi.NoteOnEvent(tick=0, channel=0, data=[88, 0]),
   midi.NoteOnEvent(tick=20, channel=0, data=[84, 86]),
   midi.NoteOnEvent(tick=0, channel=0, data=[77, 86]),
   midi.NoteOnEvent(tick=10, channel=0, data=[51, 0]),
   midi.NoteOnEvent(tick=0, channel=0, data=[45, 0]),
   midi.NoteOnEvent(tick=5, channel=0, data=[84, 0]),
   midi.NoteOnEvent(tick=0, channel=0, data=[81, 86]),
   midi.NoteOnEvent(tick=0, channel=0, data=[76, 86]),
   midi.NoteOnEvent(tick=0, channel=0, data=[60, 82]),
   midi.NoteOnEvent(tick=0, channel=0, data=[52, 82]),
   midi.NoteOnEvent(tick=5, channel=0, data=[77, 0]),
   midi.ControlChangeEvent(tick=0, channel=0, data=[64, 0]),
   midi.NoteOnEvent(tick=10, channel=0, data=[60, 0]),
   midi.NoteOnEvent(tick=0, channel=0, data=[81, 0]),
   midi.NoteOnEvent(tick=0, channel=0, data=[76, 0]),
   midi.NoteOnEvent(tick=0, channel=0, data=[52, 0]),
   midi.NoteOnEvent(tick=15, channel=0, data=[84, 86]),
   midi.NoteOnEvent(tick=20, channel=0, data=[83, 86]),
   midi.NoteOnEvent(tick=0, channel=0, data=[57, 82]),
   midi.NoteOnEvent(tick=0, channel=0, data=[62, 82]),
   midi.NoteOnEvent(tick=0, channel=0, data=[54, 82]),
   midi.NoteOnEvent(tick=5, channel=0, data=[84, 0]),
   midi.NoteOnEvent(tick=15, channel=0, data=[62, 0]),
   midi.NoteOnEvent(tick=0, channel=0, data=[83, 0]),
   midi.NoteOnEvent(tick=0, channel=0, data=[57, 0]),
   midi.NoteOnEvent(tick=0, channel=0, data=[54, 0]),
   midi.NoteOnEvent(tick=25, channel=0, data=[80, 86]),
   midi.NoteOnEvent(tick=15, channel=0, data=[76, 86]),
   midi.NoteOnEvent(tick=0, channel=0, data=[64, 82]),
   midi.NoteOnEvent(tick=5, channel=0, data=[80, 0]),
   midi.NoteOnEvent(tick=0, channel=0, data=[59, 82]),
   midi.NoteOnEvent(tick=0, channel=0, data=[56, 82]),
   midi.NoteOnEvent(tick=15, channel=0, data=[76, 0]),
   midi.NoteOnEvent(tick=5, channel=0, data=[64, 0]),
   midi.NoteOnEvent(tick=0, channel=0, data=[59, 0]),
   midi.NoteOnEvent(tick=0, channel=0, data=[56, 0]),
   midi.ControlChangeEvent(tick=20, channel=0, data=[64, 127]),
   midi.NoteOnEvent(tick=0, channel=0, data=[72, 86]),
   midi.NoteOnEvent(tick=0, channel=0, data=[77, 86]),
   midi.NoteOnEvent(tick=15, channel=0, data=[76, 86]),
   midi.NoteOnEvent(tick=5, channel=0, data=[77, 0]),
   midi.NoteOnEvent(tick=0, channel=0, data=[69, 86]),
   midi.NoteOnEvent(tick=0, channel=0, data=[51, 82]),
   midi.NoteOnEvent(tick=0, channel=0, data=[45, 82]),
   midi.NoteOnEvent(tick=5, channel=0, data=[72, 0]),
   midi.NoteOnEvent(tick=5, channel=0, data=[76, 0]),
   midi.NoteOnEvent(tick=5, channel=0, data=[69, 0]),
   midi.NoteOnEvent(tick=25, channel=0, data=[65, 86]),
   midi.NoteOnEvent(tick=0, channel=0, data=[72, 86]),
   midi.NoteOnEvent(tick=15, channel=0, data=[51, 0]),
   midi.NoteOnEvent(tick=0, channel=0, data=[45, 0]),
   midi.NoteOnEvent(tick=5, channel=0, data=[65, 0]),
   midi.NoteOnEvent(tick=0, channel=0, data=[72, 0]),
   midi.NoteOnEvent(tick=0, channel=0, data=[69, 86]),
   midi.NoteOnEvent(tick=0, channel=0, data=[64, 86]),
   midi.NoteOnEvent(tick=0, channel=0, data=[60, 82]),
   midi.NoteOnEvent(tick=0, channel=0, data=[52, 82]),
   midi.ControlChangeEvent(tick=0, channel=0, data=[64, 0]),
   midi.NoteOnEvent(tick=15, channel=0, data=[64, 0]),
   midi.NoteOnEvent(tick=0, channel=0, data=[69, 0]),
   midi.NoteOnEvent(tick=5, channel=0, data=[60, 0]),
   midi.NoteOnEvent(tick=0, channel=0, data=[52, 0]),
   midi.NoteOnEvent(tick=20, channel=0, data=[72, 86]),
   midi.NoteOnEvent(tick=15, channel=0, data=[71, 86]),
   midi.NoteOnEvent(tick=0, channel=0, data=[62, 82]),
   midi.NoteOnEvent(tick=5, channel=0, data=[72, 0]),
   midi.NoteOnEvent(tick=0, channel=0, data=[54, 82]),
   midi.NoteOnEvent(tick=0, channel=0, data=[57, 82]),
   midi.NoteOnEvent(tick=10, channel=0, data=[71, 0]),
   midi.NoteOnEvent(tick=5, channel=0, data=[62, 0]),
   midi.NoteOnEvent(tick=0, channel=0, data=[54, 0]),
   midi.NoteOnEvent(tick=5, channel=0, data=[57, 0]),
   midi.NoteOnEvent(tick=20, channel=0, data=[68, 86]),
   midi.NoteOnEvent(tick=15, channel=0, data=[64, 86]),
   midi.NoteOnEvent(tick=0, channel=0, data=[56, 82]),
   midi.NoteOnEvent(tick=0, channel=0, data=[59, 82]),
   midi.NoteOnEvent(tick=5, channel=0, data=[68, 0]),
   midi.NoteOnEvent(tick=15, channel=0, data=[64, 0]),
   midi.NoteOnEvent(tick=0, channel=0, data=[56, 0]),
   midi.NoteOnEvent(tick=5, channel=0, data=[59, 0]),
   midi.ControlChangeEvent(tick=15, channel=0, data=[64, 127]),
   midi.NoteOnEvent(tick=0, channel=0, data=[60, 86]),
   midi.NoteOnEvent(tick=20, channel=0, data=[60, 0]),
   midi.NoteOnEvent(tick=0, channel=0, data=[65, 86]),
   midi.NoteOnEvent(tick=0, channel=0, data=[51, 82]),
   midi.NoteOnEvent(tick=0, channel=0, data=[45, 82]),
   midi.NoteOnEvent(tick=20, channel=0, data=[45, 0]),
   midi.NoteOnEvent(tick=0, channel=0, data=[51, 0]),
   midi.NoteOnEvent(tick=0, channel=0, data=[65, 0]),
   midi.NoteOnEvent(tick=20, channel=0, data=[63, 86]),
   midi.NoteOnEvent(tick=20, channel=0, data=[64, 86]),
   midi.NoteOnEvent(tick=0, channel=0, data=[60, 82]),
   midi.NoteOnEvent(tick=0, channel=0, data=[52, 82]),
   midi.NoteOnEvent(tick=5, channel=0, data=[63, 0]),
   midi.NoteOnEvent(tick=15, channel=0, data=[64, 0]),
   midi.ControlChangeEvent(tick=0, channel=0, data=[64, 0]),
   midi.NoteOnEvent(tick=5, channel=0, data=[60, 0]),
   midi.NoteOnEvent(tick=0, channel=0, data=[52, 0]),
   midi.NoteOnEvent(tick=20, channel=0, data=[68, 86]),
   midi.NoteOnEvent(tick=15, channel=0, data=[68, 0]),
   midi.NoteOnEvent(tick=0, channel=0, data=[69, 86]),
   midi.NoteOnEvent(tick=0, channel=0, data=[60, 82]),
   midi.NoteOnEvent(tick=0, channel=0, data=[57, 82]),
   midi.NoteOnEvent(tick=15, channel=0, data=[60, 0]),
   midi.NoteOnEvent(tick=0, channel=0, data=[69, 0]),
   midi.NoteOnEvent(tick=10, channel=0, data=[57, 0]),
   midi.NoteOnEvent(tick=15, channel=0, data=[64, 86]),
   midi.NoteOnEvent(tick=0, channel=0, data=[71, 86]),
   midi.NoteOnEvent(tick=15, channel=0, data=[69, 86]),
   midi.NoteOnEvent(tick=0, channel=0, data=[72, 86]),
   midi.NoteOnEvent(tick=5, channel=0, data=[60, 82]),
   midi.NoteOnEvent(tick=0, channel=0, data=[57, 82]),
   midi.NoteOnEvent(tick=5, channel=0, data=[71, 0]),
   midi.NoteOnEvent(tick=0, channel=0, data=[64, 0]),
   midi.NoteOnEvent(tick=0, channel=0, data=[56, 82]),
   midi.NoteOnEvent(tick=10, channel=0, data=[72, 0]),
   midi.NoteOnEvent(tick=0, channel=0, data=[69, 0]),
   midi.NoteOnEvent(tick=5, channel=0, data=[57, 0]),
   midi.NoteOnEvent(tick=0, channel=0, data=[60, 0]),
   midi.NoteOnEvent(tick=0, channel=0, data=[56, 0]),
   midi.NoteOnEvent(tick=20, channel=0, data=[75, 90]),
   midi.NoteOnEvent(tick=0, channel=0, data=[69, 90]),
   midi.NoteOnEvent(tick=20, channel=0, data=[69, 0]),
   midi.NoteOnEvent(tick=0, channel=0, data=[75, 0]),
   midi.NoteOnEvent(tick=0, channel=0, data=[76, 90]),
   midi.NoteOnEvent(tick=0, channel=0, data=[72, 90]),
   midi.NoteOnEvent(tick=0, channel=0, data=[60, 82]),
   midi.NoteOnEvent(tick=0, channel=0, data=[57, 82]),
   midi.NoteOnEvent(tick=0, channel=0, data=[55, 82]),
   midi.NoteOnEvent(tick=15, channel=0, data=[57, 0]),
   midi.NoteOnEvent(tick=0, channel=0, data=[72, 0]),
   midi.NoteOnEvent(tick=0, channel=0, data=[76, 0]),
   midi.NoteOnEvent(tick=5, channel=0, data=[60, 0]),
   midi.NoteOnEvent(tick=0, channel=0, data=[55, 0]),
   midi.NoteOnEvent(tick=20, channel=0, data=[72, 90]),
   midi.NoteOnEvent(tick=0, channel=0, data=[80, 90]),
   midi.NoteOnEvent(tick=15, channel=0, data=[81, 90]),
   midi.NoteOnEvent(tick=0, channel=0, data=[76, 90]),
   midi.NoteOnEvent(tick=0, channel=0, data=[54, 82]),
   midi.NoteOnEvent(tick=5, channel=0, data=[80, 0]),
   midi.NoteOnEvent(tick=0, channel=0, data=[72, 0]),
   midi.NoteOnEvent(tick=0, channel=0, data=[60, 82]),
   midi.NoteOnEvent(tick=0, channel=0, data=[57, 82]),
   midi.NoteOnEvent(tick=10, channel=0, data=[81, 0]),
   midi.NoteOnEvent(tick=5, channel=0, data=[54, 0]),
   midi.NoteOnEvent(tick=0, channel=0, data=[76, 0]),
   midi.NoteOnEvent(tick=5, channel=0, data=[60, 0]),
   midi.NoteOnEvent(tick=0, channel=0, data=[57, 0]),
   midi.NoteOnEvent(tick=20, channel=0, data=[83, 93]),
   midi.NoteOnEvent(tick=0, channel=0, data=[76, 93]),
   midi.NoteOnEvent(tick=20, channel=0, data=[76, 0]),
   midi.NoteOnEvent(tick=0, channel=0, data=[83, 0]),
   midi.NoteOnEvent(tick=0, channel=0, data=[81, 93]),
   midi.NoteOnEvent(tick=0, channel=0, data=[84, 93]),
   midi.NoteOnEvent(tick=0, channel=0, data=[60, 82]),
   midi.NoteOnEvent(tick=0, channel=0, data=[57, 82]),
   midi.NoteOnEvent(tick=0, channel=0, data=[53, 82]),
   midi.NoteOnEvent(tick=15, channel=0, data=[60, 0]),
   midi.NoteOnEvent(tick=5, channel=0, data=[57, 0]),
   midi.NoteOnEvent(tick=0, channel=0, data=[81, 0]),
   midi.NoteOnEvent(tick=0, channel=0, data=[84, 0]),
   midi.NoteOnEvent(tick=0, channel=0, data=[53, 0]),
   midi.NoteOnEvent(tick=20, channel=0, data=[81, 93]),
   midi.NoteOnEvent(tick=0, channel=0, data=[87, 93]),
   midi.NoteOnEvent(tick=15, channel=0, data=[84, 93]),
   midi.NoteOnEvent(tick=0, channel=0, data=[88, 93]),
   midi.NoteOnEvent(tick=5, channel=0, data=[81, 0]),
   midi.NoteOnEvent(tick=0, channel=0, data=[52, 82]),
   midi.NoteOnEvent(tick=0, channel=0, data=[60, 82]),
   midi.NoteOnEvent(tick=0, channel=0, data=[57, 82]),
   midi.NoteOnEvent(tick=10, channel=0, data=[87, 0]),
   midi.NoteOnEvent(tick=5, channel=0, data=[84, 0]),
   midi.NoteOnEvent(tick=5, channel=0, data=[88, 0]),
   midi.NoteOnEvent(tick=5, channel=0, data=[52, 0]),
   midi.NoteOnEvent(tick=0, channel=0, data=[57, 0]),
   midi.NoteOnEvent(tick=0, channel=0, data=[60, 0]),
   midi.NoteOnEvent(tick=35, channel=0, data=[40, 102]),
   midi.NoteOnEvent(tick=0, channel=0, data=[52, 102]),
   midi.NoteOnEvent(tick=60, channel=0, data=[89, 101]),
   midi.NoteOnEvent(tick=0, channel=0, data=[88, 96]),
   midi.NoteOnEvent(tick=15, channel=0, data=[96, 93]),
   midi.NoteOnEvent(tick=0, channel=0, data=[84, 96]),
   midi.NoteOnEvent(tick=25, channel=0, data=[100, 97]),
   midi.NoteOnEvent(tick=0, channel=0, data=[77, 96]),
   midi.NoteOnEvent(tick=20, channel=0, data=[52, 0]),
   midi.NoteOnEvent(tick=0, channel=0, data=[40, 0]),
   midi.NoteOnEvent(tick=0, channel=0, data=[83, 102]),
   midi.NoteOnEvent(tick=0, channel=0, data=[86, 102]),
   midi.NoteOnEvent(tick=0, channel=0, data=[98, 101]),
   midi.NoteOnEvent(tick=0, channel=0, data=[95, 101]),
   midi.NoteOnEvent(tick=30, channel=0, data=[95, 0]),
   midi.NoteOnEvent(tick=0, channel=0, data=[98, 0]),
   midi.NoteOnEvent(tick=0, channel=0, data=[83, 0]),
   midi.NoteOnEvent(tick=0, channel=0, data=[96, 0]),
   midi.NoteOnEvent(tick=0, channel=0, data=[84, 0]),
   midi.NoteOnEvent(tick=0, channel=0, data=[89, 0]),
   midi.NoteOnEvent(tick=0, channel=0, data=[86, 0]),
   midi.NoteOnEvent(tick=0, channel=0, data=[88, 0]),
   midi.NoteOnEvent(tick=10, channel=0, data=[100, 0]),
   midi.NoteOnEvent(tick=0, channel=0, data=[77, 0]),
   midi.NoteOnEvent(tick=20, channel=0, data=[86, 101]),
   midi.NoteOnEvent(tick=0, channel=0, data=[84, 96]),
   midi.NoteOnEvent(tick=20, channel=0, data=[93, 93]),
   midi.NoteOnEvent(tick=0, channel=0, data=[81, 96]),
   midi.NoteOnEvent(tick=15, channel=0, data=[96, 97]),
   midi.NoteOnEvent(tick=5, channel=0, data=[74, 96]),
   midi.NoteOnEvent(tick=20, channel=0, data=[80, 102]),
   midi.NoteOnEvent(tick=0, channel=0, data=[83, 102]),
   midi.NoteOnEvent(tick=0, channel=0, data=[95, 101]),
   midi.NoteOnEvent(tick=0, channel=0, data=[92, 101]),
   midi.NoteOnEvent(tick=30, channel=0, data=[92, 0]),
   midi.NoteOnEvent(tick=0, channel=0, data=[95, 0]),
   midi.NoteOnEvent(tick=0, channel=0, data=[80, 0]),
   midi.NoteOnEvent(tick=0, channel=0, data=[86, 0]),
   midi.NoteOnEvent(tick=0, channel=0, data=[83, 0]),
   midi.NoteOnEvent(tick=0, channel=0, data=[84, 0]),
   midi.NoteOnEvent(tick=5, channel=0, data=[81, 0]),
   midi.NoteOnEvent(tick=0, channel=0, data=[96, 0]),
   midi.NoteOnEvent(tick=0, channel=0, data=[93, 0]),
   midi.NoteOnEvent(tick=5, channel=0, data=[74, 0]),
   midi.NoteOnEvent(tick=20, channel=0, data=[83, 101]),
   midi.NoteOnEvent(tick=0, channel=0, data=[81, 96]),
   midi.NoteOnEvent(tick=20, channel=0, data=[89, 93]),
   midi.NoteOnEvent(tick=0, channel=0, data=[77, 96]),
   midi.NoteOnEvent(tick=20, channel=0, data=[93, 97]),
   midi.NoteOnEvent(tick=0, channel=0, data=[71, 96]),
   midi.NoteOnEvent(tick=20, channel=0, data=[76, 102]),
   midi.NoteOnEvent(tick=0, channel=0, data=[80, 102]),
   midi.NoteOnEvent(tick=0, channel=0, data=[92, 101]),
   midi.NoteOnEvent(tick=0, channel=0, data=[88, 101]),
   midi.NoteOnEvent(tick=30, channel=0, data=[88, 0]),
   midi.NoteOnEvent(tick=0, channel=0, data=[92, 0]),
   midi.NoteOnEvent(tick=0, channel=0, data=[76, 0]),
   midi.NoteOnEvent(tick=0, channel=0, data=[83, 0]),
   midi.NoteOnEvent(tick=0, channel=0, data=[80, 0]),
   midi.NoteOnEvent(tick=0, channel=0, data=[81, 0]),
   midi.NoteOnEvent(tick=5, channel=0, data=[89, 0]),
   midi.NoteOnEvent(tick=0, channel=0, data=[77, 0]),
   midi.NoteOnEvent(tick=5, channel=0, data=[71, 0]),
   midi.NoteOnEvent(tick=0, channel=0, data=[93, 0]),
   midi.NoteOnEvent(tick=20, channel=0, data=[80, 100]),
   midi.NoteOnEvent(tick=0, channel=0, data=[79, 96]),
   midi.NoteOnEvent(tick=15, channel=0, data=[88, 93]),
   midi.NoteOnEvent(tick=0, channel=0, data=[76, 96]),
   midi.NoteOnEvent(tick=20, channel=0, data=[91, 97]),
   midi.NoteOnEvent(tick=10, channel=0, data=[68, 96]),
   midi.NoteOnEvent(tick=15, channel=0, data=[74, 102]),
   midi.NoteOnEvent(tick=0, channel=0, data=[77, 102]),
   midi.NoteOnEvent(tick=0, channel=0, data=[89, 101]),
   midi.NoteOnEvent(tick=0, channel=0, data=[86, 101]),
   midi.NoteOnEvent(tick=30, channel=0, data=[76, 0]),
   midi.NoteOnEvent(tick=0, channel=0, data=[88, 0]),
   midi.NoteOnEvent(tick=0, channel=0, data=[80, 0]),
   midi.NoteOnEvent(tick=0, channel=0, data=[79, 0]),
   midi.NoteOnEvent(tick=5, channel=0, data=[91, 0]),
   midi.NoteOnEvent(tick=10, channel=0, data=[68, 0]),
   midi.NoteOnEvent(tick=5, channel=0, data=[89, 0]),
   midi.NoteOnEvent(tick=0, channel=0, data=[86, 0]),
   midi.NoteOnEvent(tick=0, channel=0, data=[77, 0]),
   midi.NoteOnEvent(tick=0, channel=0, data=[74, 0]),
   midi.NoteOnEvent(tick=5, channel=0, data=[77, 101]),
   midi.NoteOnEvent(tick=0, channel=0, data=[76, 96]),
   midi.NoteOnEvent(tick=20, channel=0, data=[84, 93]),
   midi.NoteOnEvent(tick=0, channel=0, data=[72, 96]),
   midi.NoteOnEvent(tick=20, channel=0, data=[88, 97]),
   midi.NoteOnEvent(tick=0, channel=0, data=[65, 96]),
   midi.NoteOnEvent(tick=25, channel=0, data=[86, 101]),
   midi.NoteOnEvent(tick=0, channel=0, data=[83, 101]),
   midi.NoteOnEvent(tick=0, channel=0, data=[74, 102]),
   midi.NoteOnEvent(tick=0, channel=0, data=[71, 102]),
   midi.NoteOnEvent(tick=25, channel=0, data=[76, 0]),
   midi.NoteOnEvent(tick=0, channel=0, data=[77, 0]),
   midi.NoteOnEvent(tick=5, channel=0, data=[72, 0]),
   midi.NoteOnEvent(tick=0, channel=0, data=[84, 0]),
   midi.NoteOnEvent(tick=5, channel=0, data=[88, 0]),
   midi.NoteOnEvent(tick=0, channel=0, data=[65, 0]),
   midi.NoteOnEvent(tick=15, channel=0, data=[74, 0]),
   midi.NoteOnEvent(tick=0, channel=0, data=[71, 0]),
   midi.NoteOnEvent(tick=0, channel=0, data=[83, 0]),
   midi.NoteOnEvent(tick=0, channel=0, data=[86, 0]),
   midi.NoteOnEvent(tick=5, channel=0, data=[74, 101]),
   midi.NoteOnEvent(tick=0, channel=0, data=[72, 96]),
   midi.NoteOnEvent(tick=15, channel=0, data=[81, 93]),
   midi.NoteOnEvent(tick=0, channel=0, data=[69, 96]),
   midi.NoteOnEvent(tick=25, channel=0, data=[84, 97]),
   midi.NoteOnEvent(tick=0, channel=0, data=[62, 96]),
   midi.NoteOnEvent(tick=25, channel=0, data=[83, 101]),
   midi.NoteOnEvent(tick=0, channel=0, data=[80, 101]),
   midi.NoteOnEvent(tick=0, channel=0, data=[71, 102]),
   midi.NoteOnEvent(tick=0, channel=0, data=[68, 102]),
   midi.NoteOnEvent(tick=25, channel=0, data=[69, 0]),
   midi.NoteOnEvent(tick=0, channel=0, data=[81, 0]),
   midi.NoteOnEvent(tick=0, channel=0, data=[74, 0]),
   midi.NoteOnEvent(tick=0, channel=0, data=[72, 0]),
   midi.NoteOnEvent(tick=10, channel=0, data=[84, 0]),
   midi.NoteOnEvent(tick=0, channel=0, data=[62, 0]),
   midi.NoteOnEvent(tick=15, channel=0, data=[71, 0]),
   midi.NoteOnEvent(tick=0, channel=0, data=[68, 0]),
   midi.NoteOnEvent(tick=0, channel=0, data=[80, 0]),
   midi.NoteOnEvent(tick=0, channel=0, data=[83, 0]),
   midi.NoteOnEvent(tick=5, channel=0, data=[71, 101]),
   midi.NoteOnEvent(tick=0, channel=0, data=[69, 96]),
   midi.NoteOnEvent(tick=20, channel=0, data=[77, 93]),
   midi.NoteOnEvent(tick=0, channel=0, data=[65, 96]),
   midi.NoteOnEvent(tick=20, channel=0, data=[81, 97]),
   midi.NoteOnEvent(tick=0, channel=0, data=[59, 96]),
   midi.NoteOnEvent(tick=25, channel=0, data=[80, 101]),
   midi.NoteOnEvent(tick=0, channel=0, data=[76, 101]),
   midi.NoteOnEvent(tick=5, channel=0, data=[68, 102]),
   midi.NoteOnEvent(tick=0, channel=0, data=[64, 102]),
   midi.NoteOnEvent(tick=20, channel=0, data=[69, 0]),
   midi.NoteOnEvent(tick=0, channel=0, data=[71, 0]),
   midi.NoteOnEvent(tick=5, channel=0, data=[65, 0]),
   midi.NoteOnEvent(tick=0, channel=0, data=[77, 0]),
   midi.NoteOnEvent(tick=5, channel=0, data=[81, 0]),
   midi.NoteOnEvent(tick=0, channel=0, data=[59, 0]),
   midi.NoteOnEvent(tick=15, channel=0, data=[80, 0]),
   midi.NoteOnEvent(tick=0, channel=0, data=[76, 0]),
   midi.NoteOnEvent(tick=5, channel=0, data=[64, 0]),
   midi.NoteOnEvent(tick=0, channel=0, data=[68, 0]),
   midi.ControlChangeEvent(tick=5, channel=0, data=[64, 127]),
   midi.NoteOnEvent(tick=0, channel=0, data=[76, 101]),
   midi.NoteOnEvent(tick=0, channel=0, data=[88, 101]),
   midi.NoteOnEvent(tick=0, channel=0, data=[40, 102]),
   midi.NoteOnEvent(tick=0, channel=0, data=[52, 102]),
   midi.NoteOnEvent(tick=50, channel=0, data=[52, 0]),
   midi.NoteOnEvent(tick=0, channel=0, data=[76, 0]),
   midi.NoteOnEvent(tick=0, channel=0, data=[88, 0]),
   midi.NoteOnEvent(tick=0, channel=0, data=[40, 0]),
   midi.NoteOnEvent(tick=10, channel=0, data=[89, 82]),
   midi.NoteOnEvent(tick=0, channel=0, data=[84, 81]),
   midi.NoteOnEvent(tick=10, channel=0, data=[88, 86]),
   midi.NoteOnEvent(tick=0, channel=0, data=[81, 86]),
   midi.NoteOnEvent(tick=0, channel=0, data=[45, 82]),
   midi.NoteOnEvent(tick=0, channel=0, data=[51, 82]),
   midi.ControlChangeEvent(tick=5, channel=0, data=[64, 0]),
   midi.NoteOnEvent(tick=5, channel=0, data=[84, 0]),
   midi.NoteOnEvent(tick=0, channel=0, data=[89, 0]),
   midi.NoteOnEvent(tick=10, channel=0, data=[81, 0]),
   midi.NoteOnEvent(tick=0, channel=0, data=[88, 0]),
   midi.NoteOnEvent(tick=10, channel=0, data=[51, 0]),
   midi.NoteOnEvent(tick=5, channel=0, data=[45, 0]),
   midi.NoteOnEvent(tick=5, channel=0, data=[84, 86]),
   midi.NoteOnEvent(tick=0, channel=0, data=[77, 86]),
   midi.NoteOnEvent(tick=15, channel=0, data=[81, 86]),
   midi.NoteOnEvent(tick=0, channel=0, data=[76, 86]),
   midi.NoteOnEvent(tick=0, channel=0, data=[60, 82]),
   midi.NoteOnEvent(tick=5, channel=0, data=[77, 0]),
   midi.NoteOnEvent(tick=0, channel=0, data=[84, 0]),
   midi.NoteOnEvent(tick=0, channel=0, data=[52, 82]),
   midi.NoteOnEvent(tick=15, channel=0, data=[52, 0]),
   midi.NoteOnEvent(tick=0, channel=0, data=[60, 0]),
   midi.NoteOnEvent(tick=0, channel=0, data=[81, 0]),
   midi.NoteOnEvent(tick=0, channel=0, data=[76, 0]),
   midi.NoteOnEvent(tick=20, channel=0, data=[84, 86]),
   midi.NoteOnEvent(tick=15, channel=0, data=[83, 86]),
   midi.NoteOnEvent(tick=0, channel=0, data=[57, 82]),
   midi.NoteOnEvent(tick=0, channel=0, data=[62, 82]),
   midi.NoteOnEvent(tick=0, channel=0, data=[54, 82]),
   midi.NoteOnEvent(tick=5, channel=0, data=[84, 0]),
   midi.NoteOnEvent(tick=5, channel=0, data=[83, 0]),
   midi.NoteOnEvent(tick=5, channel=0, data=[57, 0]),
   midi.NoteOnEvent(tick=5, channel=0, data=[62, 0]),
   midi.NoteOnEvent(tick=0, channel=0, data=[54, 0]),
   midi.NoteOnEvent(tick=20, channel=0, data=[80, 86]),
   midi.NoteOnEvent(tick=15, channel=0, data=[76, 86]),
   midi.NoteOnEvent(tick=0, channel=0, data=[64, 82]),
   midi.NoteOnEvent(tick=5, channel=0, data=[80, 0]),
   midi.NoteOnEvent(tick=0, channel=0, data=[59, 82]),
   midi.NoteOnEvent(tick=0, channel=0, data=[56, 82]),
   midi.NoteOnEvent(tick=15, channel=0, data=[76, 0]),
   midi.NoteOnEvent(tick=5, channel=0, data=[64, 0]),
   midi.NoteOnEvent(tick=0, channel=0, data=[59, 0]),
   midi.NoteOnEvent(tick=5, channel=0, data=[56, 0]),
   midi.ControlChangeEvent(tick=20, channel=0, data=[64, 127]),
   midi.NoteOnEvent(tick=0, channel=0, data=[72, 86]),
   midi.NoteOnEvent(tick=0, channel=0, data=[77, 86]),
   midi.NoteOnEvent(tick=15, channel=0, data=[76, 86]),
   midi.NoteOnEvent(tick=0, channel=0, data=[69, 86]),
   midi.NoteOnEvent(tick=5, channel=0, data=[77, 0]),
   midi.NoteOnEvent(tick=0, channel=0, data=[51, 82]),
   midi.NoteOnEvent(tick=0, channel=0, data=[45, 82]),
   midi.NoteOnEvent(tick=5, channel=0, data=[72, 0]),
   midi.NoteOnEvent(tick=5, channel=0, data=[69, 0]),
   midi.NoteOnEvent(tick=5, channel=0, data=[76, 0]),
   midi.NoteOnEvent(tick=5, channel=0, data=[51, 0]),
   midi.NoteOnEvent(tick=5, channel=0, data=[45, 0]),
   midi.NoteOnEvent(tick=15, channel=0, data=[65, 86]),
   midi.NoteOnEvent(tick=0, channel=0, data=[72, 86]),
   midi.NoteOnEvent(tick=15, channel=0, data=[69, 86]),
   midi.NoteOnEvent(tick=0, channel=0, data=[64, 86]),
   midi.NoteOnEvent(tick=5, channel=0, data=[72, 0]),
   midi.NoteOnEvent(tick=0, channel=0, data=[65, 0]),
   midi.NoteOnEvent(tick=0, channel=0, data=[60, 82]),
   midi.NoteOnEvent(tick=0, channel=0, data=[52, 82]),
   midi.ControlChangeEvent(tick=10, channel=0, data=[64, 0]),
   midi.NoteOnEvent(tick=5, channel=0, data=[69, 0]),
   midi.NoteOnEvent(tick=0, channel=0, data=[64, 0]),
   midi.NoteOnEvent(tick=5, channel=0, data=[60, 0]),
   midi.NoteOnEvent(tick=0, channel=0, data=[52, 0]),
   midi.NoteOnEvent(tick=15, channel=0, data=[72, 86]),
   midi.NoteOnEvent(tick=20, channel=0, data=[71, 86]),
   midi.NoteOnEvent(tick=0, channel=0, data=[62, 82]),
   midi.NoteOnEvent(tick=0, channel=0, data=[54, 82]),
   midi.NoteOnEvent(tick=0, channel=0, data=[57, 82]),
   midi.NoteOnEvent(tick=5, channel=0, data=[72, 0]),
   midi.NoteOnEvent(tick=10, channel=0, data=[71, 0]),
   midi.NoteOnEvent(tick=10, channel=0, data=[54, 0]),
   midi.NoteOnEvent(tick=0, channel=0, data=[62, 0]),
   midi.NoteOnEvent(tick=0, channel=0, data=[57, 0]),
   midi.NoteOnEvent(tick=15, channel=0, data=[68, 86]),
   midi.NoteOnEvent(tick=15, channel=0, data=[64, 86]),
   midi.NoteOnEvent(tick=5, channel=0, data=[56, 82]),
   midi.NoteOnEvent(tick=0, channel=0, data=[59, 82]),
   midi.NoteOnEvent(tick=5, channel=0, data=[68, 0]),
   midi.NoteOnEvent(tick=10, channel=0, data=[64, 0]),
   midi.NoteOnEvent(tick=5, channel=0, data=[56, 0]),
   midi.NoteOnEvent(tick=5, channel=0, data=[59, 0]),
   midi.ControlChangeEvent(tick=15, channel=0, data=[64, 127]),
   midi.NoteOnEvent(tick=0, channel=0, data=[60, 86]),
   midi.NoteOnEvent(tick=20, channel=0, data=[65, 86]),
   midi.NoteOnEvent(tick=5, channel=0, data=[51, 82]),
   midi.NoteOnEvent(tick=0, channel=0, data=[45, 82]),
   midi.NoteOnEvent(tick=5, channel=0, data=[60, 0]),
   midi.NoteOnEvent(tick=10, channel=0, data=[65, 0]),
   midi.NoteOnEvent(tick=5, channel=0, data=[51, 0]),
   midi.NoteOnEvent(tick=0, channel=0, data=[45, 0]),
   midi.NoteOnEvent(tick=15, channel=0, data=[63, 86]),
   midi.NoteOnEvent(tick=20, channel=0, data=[64, 86]),
   midi.NoteOnEvent(tick=0, channel=0, data=[60, 82]),
   midi.NoteOnEvent(tick=5, channel=0, data=[63, 0]),
   midi.NoteOnEvent(tick=0, channel=0, data=[52, 82]),
   midi.ControlChangeEvent(tick=5, channel=0, data=[64, 0]),
   midi.NoteOnEvent(tick=5, channel=0, data=[64, 0]),
   midi.NoteOnEvent(tick=10, channel=0, data=[52, 0]),
   midi.NoteOnEvent(tick=0, channel=0, data=[60, 0]),
   midi.NoteOnEvent(tick=15, channel=0, data=[68, 86]),
   midi.NoteOnEvent(tick=20, channel=0, data=[69, 86]),
   midi.NoteOnEvent(tick=0, channel=0, data=[57, 82]),
   midi.NoteOnEvent(tick=0, channel=0, data=[60, 82]),
   midi.NoteOnEvent(tick=5, channel=0, data=[68, 0]),
   midi.NoteOnEvent(tick=10, channel=0, data=[69, 0]),
   midi.NoteOnEvent(tick=5, channel=0, data=[57, 0]),
   midi.NoteOnEvent(tick=5, channel=0, data=[60, 0]),
   midi.NoteOnEvent(tick=15, channel=0, data=[64, 88]),
   midi.NoteOnEvent(tick=0, channel=0, data=[71, 88]),
   midi.NoteOnEvent(tick=20, channel=0, data=[72, 88]),
   midi.NoteOnEvent(tick=0, channel=0, data=[69, 88]),
   midi.NoteOnEvent(tick=5, channel=0, data=[64, 0]),
   midi.NoteOnEvent(tick=0, channel=0, data=[57, 85]),
   midi.NoteOnEvent(tick=0, channel=0, data=[56, 85]),
   midi.NoteOnEvent(tick=0, channel=0, data=[60, 85]),
   midi.NoteOnEvent(tick=5, channel=0, data=[71, 0]),
   midi.NoteOnEvent(tick=10, channel=0, data=[69, 0]),
   midi.NoteOnEvent(tick=0, channel=0, data=[72, 0]),
   midi.NoteOnEvent(tick=5, channel=0, data=[57, 0]),
   midi.NoteOnEvent(tick=0, channel=0, data=[56, 0]),
   midi.NoteOnEvent(tick=0, channel=0, data=[60, 0]),
   midi.NoteOnEvent(tick=15, channel=0, data=[69, 88]),
   midi.NoteOnEvent(tick=10, channel=0, data=[74, 88]),
   midi.NoteOnEvent(tick=10, channel=0, data=[75, 88]),
   midi.NoteOnEvent(tick=5, channel=0, data=[72, 88]),
   midi.NoteOnEvent(tick=0, channel=0, data=[57, 87]),
   midi.NoteOnEvent(tick=0, channel=0, data=[60, 87]),
   midi.NoteOnEvent(tick=0, channel=0, data=[55, 87]),
   midi.NoteOnEvent(tick=5, channel=0, data=[74, 0]),
   midi.NoteOnEvent(tick=0, channel=0, data=[69, 0]),
   midi.NoteOnEvent(tick=10, channel=0, data=[75, 0]),
   midi.NoteOnEvent(tick=0, channel=0, data=[72, 0]),
   midi.NoteOnEvent(tick=0, channel=0, data=[55, 0]),
   midi.NoteOnEvent(tick=5, channel=0, data=[60, 0]),
   midi.NoteOnEvent(tick=0, channel=0, data=[57, 0]),
   midi.NoteOnEvent(tick=20, channel=0, data=[80, 91]),
   midi.NoteOnEvent(tick=0, channel=0, data=[72, 91]),
   midi.NoteOnEvent(tick=10, channel=0, data=[81, 91]),
   midi.NoteOnEvent(tick=5, channel=0, data=[75, 91]),
   midi.NoteOnEvent(tick=0, channel=0, data=[57, 90]),
   midi.NoteOnEvent(tick=0, channel=0, data=[60, 90]),
   midi.NoteOnEvent(tick=0, channel=0, data=[54, 90]),
   midi.NoteOnEvent(tick=5, channel=0, data=[72, 0]),
   midi.NoteOnEvent(tick=0, channel=0, data=[80, 0]),
   midi.NoteOnEvent(tick=10, channel=0, data=[75, 0]),
   midi.NoteOnEvent(tick=0, channel=0, data=[81, 0]),
   midi.NoteOnEvent(tick=5, channel=0, data=[54, 0]),
   midi.NoteOnEvent(tick=0, channel=0, data=[57, 0]),
   midi.NoteOnEvent(tick=0, channel=0, data=[60, 0]),
   midi.NoteOnEvent(tick=20, channel=0, data=[75, 91]),
   midi.NoteOnEvent(tick=0, channel=0, data=[83, 91]),
   midi.NoteOnEvent(tick=20, channel=0, data=[75, 0]),
   midi.NoteOnEvent(tick=0, channel=0, data=[84, 91]),
   midi.NoteOnEvent(tick=0, channel=0, data=[81, 91]),
   midi.NoteOnEvent(tick=0, channel=0, data=[57, 92]),
   midi.NoteOnEvent(tick=0, channel=0, data=[53, 92]),
   midi.NoteOnEvent(tick=0, channel=0, data=[60, 92]),
   midi.NoteOnEvent(tick=5, channel=0, data=[83, 0]),
   midi.NoteOnEvent(tick=10, channel=0, data=[53, 0]),
   midi.NoteOnEvent(tick=0, channel=0, data=[57, 0]),
   midi.NoteOnEvent(tick=0, channel=0, data=[84, 0]),
   midi.NoteOnEvent(tick=5, channel=0, data=[60, 0]),
   midi.NoteOnEvent(tick=0, channel=0, data=[81, 0]),
   midi.NoteOnEvent(tick=20, channel=0, data=[79, 93]),
   midi.NoteOnEvent(tick=0, channel=0, data=[86, 93]),
   midi.NoteOnEvent(tick=20, channel=0, data=[86, 0]),
   midi.NoteOnEvent(tick=0, channel=0, data=[84, 93]),
   midi.NoteOnEvent(tick=0, channel=0, data=[87, 93]),
   midi.NoteOnEvent(tick=0, channel=0, data=[55, 95]),
   midi.NoteOnEvent(tick=0, channel=0, data=[60, 95]),
   midi.NoteOnEvent(tick=0, channel=0, data=[51, 95]),
   midi.NoteOnEvent(tick=5, channel=0, data=[79, 0]),
   midi.NoteOnEvent(tick=10, channel=0, data=[84, 0]),
   midi.NoteOnEvent(tick=5, channel=0, data=[60, 0]),
   midi.NoteOnEvent(tick=0, channel=0, data=[55, 0]),
   midi.NoteOnEvent(tick=0, channel=0, data=[51, 0]),
   midi.NoteOnEvent(tick=0, channel=0, data=[87, 0]),
   midi.NoteOnEvent(tick=20, channel=0, data=[91, 93]),
   midi.NoteOnEvent(tick=0, channel=0, data=[81, 93]),
   midi.NoteOnEvent(tick=20, channel=0, data=[86, 99]),
   midi.NoteOnEvent(tick=0, channel=0, data=[90, 101]),
   midi.NoteOnEvent(tick=0, channel=0, data=[50, 100]),
   midi.NoteOnEvent(tick=0, channel=0, data=[38, 100]),
   midi.NoteOnEvent(tick=5, channel=0, data=[81, 0]),
   midi.NoteOnEvent(tick=0, channel=0, data=[91, 0]),
   midi.NoteOnEvent(tick=45, channel=0, data=[90, 0]),
   midi.NoteOnEvent(tick=0, channel=0, data=[86, 0]),
   midi.NoteOnEvent(tick=5, channel=0, data=[87, 103]),
   midi.NoteOnEvent(tick=0, channel=0, data=[86, 95]),
   midi.NoteOnEvent(tick=25, channel=0, data=[94, 94]),
   midi.NoteOnEvent(tick=0, channel=0, data=[82, 95]),
   midi.NoteOnEvent(tick=20, channel=0, data=[98, 98]),
   midi.NoteOnEvent(tick=0, channel=0, data=[75, 95]),
   midi.NoteOnEvent(tick=20, channel=0, data=[38, 0]),
   midi.NoteOnEvent(tick=0, channel=0, data=[50, 0]),
   midi.NoteOnEvent(tick=0, channel=0, data=[81, 100]),
   midi.NoteOnEvent(tick=0, channel=0, data=[84, 100]),
   midi.NoteOnEvent(tick=0, channel=0, data=[96, 103]),
   midi.NoteOnEvent(tick=0, channel=0, data=[93, 103]),
   midi.NoteOnEvent(tick=25, channel=0, data=[86, 0]),
   midi.NoteOnEvent(tick=0, channel=0, data=[87, 0]),
   midi.NoteOnEvent(tick=10, channel=0, data=[94, 0]),
   midi.NoteOnEvent(tick=0, channel=0, data=[82, 0]),
   midi.NoteOnEvent(tick=5, channel=0, data=[75, 0]),
   midi.NoteOnEvent(tick=0, channel=0, data=[98, 0]),
   midi.NoteOnEvent(tick=10, channel=0, data=[81, 0]),
   midi.NoteOnEvent(tick=0, channel=0, data=[96, 0]),
   midi.NoteOnEvent(tick=0, channel=0, data=[84, 0]),
   midi.NoteOnEvent(tick=0, channel=0, data=[93, 0]),
   midi.NoteOnEvent(tick=10, channel=0, data=[84, 103]),
   midi.NoteOnEvent(tick=0, channel=0, data=[82, 95]),
   midi.NoteOnEvent(tick=20, channel=0, data=[91, 94]),
   midi.NoteOnEvent(tick=0, channel=0, data=[79, 95]),
   midi.NoteOnEvent(tick=15, channel=0, data=[94, 98]),
   midi.NoteOnEvent(tick=10, channel=0, data=[72, 95]),
   midi.NoteOnEvent(tick=15, channel=0, data=[81, 100]),
   midi.NoteOnEvent(tick=0, channel=0, data=[78, 100]),
   midi.NoteOnEvent(tick=0, channel=0, data=[90, 103]),
   midi.NoteOnEvent(tick=0, channel=0, data=[93, 103]),
   midi.NoteOnEvent(tick=30, channel=0, data=[82, 0]),
   midi.NoteOnEvent(tick=0, channel=0, data=[84, 0]),
   midi.NoteOnEvent(tick=5, channel=0, data=[79, 0]),
   midi.NoteOnEvent(tick=0, channel=0, data=[94, 0]),
   midi.NoteOnEvent(tick=0, channel=0, data=[91, 0]),
   midi.NoteOnEvent(tick=10, channel=0, data=[72, 0]),
   midi.NoteOnEvent(tick=5, channel=0, data=[90, 0]),
   midi.NoteOnEvent(tick=0, channel=0, data=[93, 0]),
   midi.NoteOnEvent(tick=0, channel=0, data=[81, 0]),
   midi.NoteOnEvent(tick=0, channel=0, data=[78, 0]),
   midi.NoteOnEvent(tick=10, channel=0, data=[81, 103]),
   midi.NoteOnEvent(tick=0, channel=0, data=[79, 95]),
   midi.NoteOnEvent(tick=20, channel=0, data=[87, 94]),
   midi.NoteOnEvent(tick=0, channel=0, data=[75, 95]),
   midi.NoteOnEvent(tick=20, channel=0, data=[91, 98]),
   midi.NoteOnEvent(tick=0, channel=0, data=[69, 95]),
   midi.NoteOnEvent(tick=20, channel=0, data=[74, 100]),
   midi.NoteOnEvent(tick=0, channel=0, data=[78, 100]),
   midi.NoteOnEvent(tick=0, channel=0, data=[90, 103]),
   midi.NoteOnEvent(tick=0, channel=0, data=[86, 103]),
   midi.NoteOnEvent(tick=30, channel=0, data=[79, 0]),
   midi.NoteOnEvent(tick=0, channel=0, data=[81, 0]),
   midi.NoteOnEvent(tick=5, channel=0, data=[75, 0]),
   midi.NoteOnEvent(tick=0, channel=0, data=[87, 0]),
   midi.NoteOnEvent(tick=5, channel=0, data=[91, 0]),
   midi.NoteOnEvent(tick=0, channel=0, data=[69, 0]),
   midi.NoteOnEvent(tick=10, channel=0, data=[90, 0]),
   midi.NoteOnEvent(tick=0, channel=0, data=[86, 0]),
   midi.NoteOnEvent(tick=0, channel=0, data=[78, 0]),
   midi.NoteOnEvent(tick=0, channel=0, data=[74, 0]),
   midi.NoteOnEvent(tick=5, channel=0, data=[78, 102]),
   midi.NoteOnEvent(tick=0, channel=0, data=[77, 95]),
   midi.NoteOnEvent(tick=20, channel=0, data=[86, 94]),
   midi.NoteOnEvent(tick=0, channel=0, data=[74, 95]),
   midi.NoteOnEvent(tick=20, channel=0, data=[89, 98]),
   midi.NoteOnEvent(tick=0, channel=0, data=[66, 95]),
   midi.NoteOnEvent(tick=25, channel=0, data=[84, 103]),
   midi.NoteOnEvent(tick=0, channel=0, data=[87, 103]),
   midi.NoteOnEvent(tick=0, channel=0, data=[72, 100]),
   midi.NoteOnEvent(tick=0, channel=0, data=[75, 100]),
   midi.NoteOnEvent(tick=25, channel=0, data=[77, 0]),
   midi.NoteOnEvent(tick=0, channel=0, data=[78, 0]),
   midi.NoteOnEvent(tick=5, channel=0, data=[74, 0]),
   midi.NoteOnEvent(tick=0, channel=0, data=[86, 0]),
   midi.NoteOnEvent(tick=5, channel=0, data=[89, 0]),
   midi.NoteOnEvent(tick=0, channel=0, data=[66, 0]),
   midi.NoteOnEvent(tick=15, channel=0, data=[72, 0]),
   midi.NoteOnEvent(tick=0, channel=0, data=[75, 0]),
   midi.NoteOnEvent(tick=0, channel=0, data=[87, 0]),
   midi.NoteOnEvent(tick=0, channel=0, data=[84, 0]),
   midi.NoteOnEvent(tick=5, channel=0, data=[75, 103]),
   midi.NoteOnEvent(tick=0, channel=0, data=[74, 95]),
   midi.NoteOnEvent(tick=20, channel=0, data=[82, 94]),
   midi.NoteOnEvent(tick=0, channel=0, data=[70, 95]),
   midi.NoteOnEvent(tick=20, channel=0, data=[86, 98]),
   midi.NoteOnEvent(tick=0, channel=0, data=[63, 95]),
   midi.NoteOnEvent(tick=25, channel=0, data=[69, 100]),
   midi.NoteOnEvent(tick=0, channel=0, data=[72, 100]),
   midi.NoteOnEvent(tick=0, channel=0, data=[81, 103]),
   midi.NoteOnEvent(tick=0, channel=0, data=[84, 103]),
   midi.NoteOnEvent(tick=25, channel=0, data=[74, 0]),
   midi.NoteOnEvent(tick=0, channel=0, data=[75, 0]),
   midi.NoteOnEvent(tick=5, channel=0, data=[70, 0]),
   midi.NoteOnEvent(tick=0, channel=0, data=[82, 0]),
   midi.NoteOnEvent(tick=5, channel=0, data=[86, 0]),
   midi.NoteOnEvent(tick=0, channel=0, data=[63, 0]),
   midi.NoteOnEvent(tick=15, channel=0, data=[81, 0]),
   midi.NoteOnEvent(tick=0, channel=0, data=[84, 0]),
   midi.NoteOnEvent(tick=0, channel=0, data=[72, 0]),
   midi.NoteOnEvent(tick=0, channel=0, data=[69, 0]),
   midi.NoteOnEvent(tick=10, channel=0, data=[72, 103]),
   midi.NoteOnEvent(tick=0, channel=0, data=[70, 95]),
   midi.NoteOnEvent(tick=15, channel=0, data=[79, 94]),
   midi.NoteOnEvent(tick=5, channel=0, data=[67, 95]),
   midi.NoteOnEvent(tick=20, channel=0, data=[82, 98]),
   midi.NoteOnEvent(tick=0, channel=0, data=[60, 95]),
   midi.NoteOnEvent(tick=20, channel=0, data=[66, 100]),
   midi.NoteOnEvent(tick=0, channel=0, data=[69, 100]),
   midi.NoteOnEvent(tick=0, channel=0, data=[81, 103]),
   midi.NoteOnEvent(tick=0, channel=0, data=[78, 103]),
   midi.NoteOnEvent(tick=30, channel=0, data=[79, 0]),
   midi.NoteOnEvent(tick=0, channel=0, data=[72, 0]),
   midi.NoteOnEvent(tick=0, channel=0, data=[70, 0]),
   midi.NoteOnEvent(tick=5, channel=0, data=[67, 0]),
   midi.NoteOnEvent(tick=5, channel=0, data=[82, 0]),
   midi.NoteOnEvent(tick=0, channel=0, data=[60, 0]),
   midi.NoteOnEvent(tick=10, channel=0, data=[69, 0]),
   midi.NoteOnEvent(tick=0, channel=0, data=[78, 0]),
   midi.NoteOnEvent(tick=0, channel=0, data=[81, 0]),
   midi.NoteOnEvent(tick=0, channel=0, data=[66, 0]),
   midi.NoteOnEvent(tick=10, channel=0, data=[69, 103]),
   midi.NoteOnEvent(tick=0, channel=0, data=[67, 95]),
   midi.NoteOnEvent(tick=20, channel=0, data=[75, 94]),
   midi.NoteOnEvent(tick=0, channel=0, data=[63, 95]),
   midi.NoteOnEvent(tick=20, channel=0, data=[79, 98]),
   midi.NoteOnEvent(tick=0, channel=0, data=[57, 95]),
   midi.NoteOnEvent(tick=20, channel=0, data=[62, 100]),
   midi.NoteOnEvent(tick=0, channel=0, data=[66, 100]),
   midi.NoteOnEvent(tick=0, channel=0, data=[78, 103]),
   midi.NoteOnEvent(tick=0, channel=0, data=[74, 103]),
   midi.NoteOnEvent(tick=30, channel=0, data=[67, 0]),
   midi.NoteOnEvent(tick=0, channel=0, data=[69, 0]),
   midi.NoteOnEvent(tick=5, channel=0, data=[63, 0]),
   midi.NoteOnEvent(tick=0, channel=0, data=[75, 0]),
   midi.NoteOnEvent(tick=5, channel=0, data=[79, 0]),
   midi.NoteOnEvent(tick=0, channel=0, data=[57, 0]),
   midi.NoteOnEvent(tick=10, channel=0, data=[78, 0]),
   midi.NoteOnEvent(tick=0, channel=0, data=[74, 0]),
   midi.NoteOnEvent(tick=0, channel=0, data=[66, 0]),
   midi.NoteOnEvent(tick=0, channel=0, data=[62, 0]),
   midi.NoteOnEvent(tick=5, channel=0, data=[86, 105]),
   midi.NoteOnEvent(tick=0, channel=0, data=[74, 105]),
   midi.NoteOnEvent(tick=30, channel=0, data=[86, 0]),
   midi.NoteOnEvent(tick=5, channel=0, data=[74, 0]),
   midi.NoteOnEvent(tick=30, channel=0, data=[87, 96]),
   midi.NoteOnEvent(tick=0, channel=0, data=[86, 88]),
   midi.NoteOnEvent(tick=0, channel=0, data=[55, 82]),
   midi.NoteOnEvent(tick=0, channel=0, data=[61, 82]),
   midi.NoteOnEvent(tick=20, channel=0, data=[84, 88]),
   midi.NoteOnEvent(tick=5, channel=0, data=[61, 0]),
   midi.NoteOnEvent(tick=0, channel=0, data=[55, 0]),
   midi.NoteOnEvent(tick=0, channel=0, data=[86, 0]),
   midi.NoteOnEvent(tick=15, channel=0, data=[82, 88]),
   midi.NoteOnEvent(tick=10, channel=0, data=[84, 0]),
   midi.NoteOnEvent(tick=5, channel=0, data=[87, 0]),
   midi.NoteOnEvent(tick=5, channel=0, data=[82, 0]),
   midi.NoteOnEvent(tick=0, channel=0, data=[86, 96]),
   midi.NoteOnEvent(tick=0, channel=0, data=[82, 82]),
   midi.NoteOnEvent(tick=0, channel=0, data=[62, 82]),
   midi.NoteOnEvent(tick=0, channel=0, data=[70, 82]),
   midi.NoteOnEvent(tick=10, channel=0, data=[82, 0]),
   midi.NoteOnEvent(tick=10, channel=0, data=[81, 88]),
   midi.NoteOnEvent(tick=15, channel=0, data=[62, 0]),
   midi.NoteOnEvent(tick=5, channel=0, data=[70, 0]),
   midi.NoteOnEvent(tick=0, channel=0, data=[79, 88]),
   midi.NoteOnEvent(tick=10, channel=0, data=[81, 0]),
   midi.NoteOnEvent(tick=10, channel=0, data=[82, 81]),
   midi.NoteOnEvent(tick=10, channel=0, data=[81, 86]),
   midi.NoteOnEvent(tick=0, channel=0, data=[72, 82]),
   midi.NoteOnEvent(tick=0, channel=0, data=[67, 82]),
   midi.NoteOnEvent(tick=0, channel=0, data=[64, 82]),
   midi.NoteOnEvent(tick=5, channel=0, data=[82, 0]),
   midi.NoteOnEvent(tick=0, channel=0, data=[86, 0]),
   midi.NoteOnEvent(tick=5, channel=0, data=[79, 0]),
   midi.NoteOnEvent(tick=5, channel=0, data=[81, 0]),
   midi.NoteOnEvent(tick=15, channel=0, data=[64, 0]),
   midi.NoteOnEvent(tick=5, channel=0, data=[67, 0]),
   midi.NoteOnEvent(tick=0, channel=0, data=[72, 0]),
   midi.NoteOnEvent(tick=0, channel=0, data=[78, 86]),
   midi.NoteOnEvent(tick=15, channel=0, data=[74, 86]),
   midi.NoteOnEvent(tick=0, channel=0, data=[72, 82]),
   midi.NoteOnEvent(tick=0, channel=0, data=[66, 82]),
   midi.NoteOnEvent(tick=0, channel=0, data=[69, 82]),
   midi.NoteOnEvent(tick=5, channel=0, data=[78, 0]),
   midi.NoteOnEvent(tick=15, channel=0, data=[74, 0]),
   midi.NoteOnEvent(tick=5, channel=0, data=[66, 0]),
   midi.NoteOnEvent(tick=0, channel=0, data=[72, 0]),
   midi.NoteOnEvent(tick=0, channel=0, data=[69, 0]),
   midi.NoteOnEvent(tick=15, channel=0, data=[78, 86]),
   midi.NoteOnEvent(tick=0, channel=0, data=[75, 86]),
   midi.NoteOnEvent(tick=20, channel=0, data=[78, 0]),
   midi.NoteOnEvent(tick=0, channel=0, data=[79, 86]),
   midi.NoteOnEvent(tick=0, channel=0, data=[76, 86]),
   midi.NoteOnEvent(tick=0, channel=0, data=[55, 82]),
   midi.NoteOnEvent(tick=5, channel=0, data=[75, 0]),
   midi.NoteOnEvent(tick=5, channel=0, data=[79, 0]),
   midi.NoteOnEvent(tick=5, channel=0, data=[76, 0]),
   midi.NoteOnEvent(tick=10, channel=0, data=[55, 0]),
   midi.NoteOnEvent(tick=20, channel=0, data=[82, 91]),
   midi.NoteOnEvent(tick=0, channel=0, data=[79, 91]),
   midi.NoteOnEvent(tick=15, channel=0, data=[86, 96]),
   midi.NoteOnEvent(tick=0, channel=0, data=[76, 96]),
   midi.NoteOnEvent(tick=0, channel=0, data=[70, 92]),
   midi.NoteOnEvent(tick=0, channel=0, data=[62, 92]),
   midi.NoteOnEvent(tick=0, channel=0, data=[64, 92]),
   midi.NoteOnEvent(tick=5, channel=0, data=[79, 0]),
   midi.NoteOnEvent(tick=0, channel=0, data=[82, 0]),
   midi.ControlChangeEvent(tick=0, channel=0, data=[64, 0]),
   midi.NoteOnEvent(tick=15, channel=0, data=[86, 0]),
   midi.NoteOnEvent(tick=0, channel=0, data=[70, 0]),
   midi.NoteOnEvent(tick=0, channel=0, data=[76, 0]),
   midi.NoteOnEvent(tick=0, channel=0, data=[64, 0]),
   midi.NoteOnEvent(tick=0, channel=0, data=[62, 0]),
   midi.NoteOnEvent(tick=20, channel=0, data=[78, 86]),
   midi.NoteOnEvent(tick=0, channel=0, data=[75, 86]),
   midi.NoteOnEvent(tick=20, channel=0, data=[79, 86]),
   midi.NoteOnEvent(tick=0, channel=0, data=[76, 86]),
   midi.NoteOnEvent(tick=0, channel=0, data=[55, 82]),
   midi.NoteOnEvent(tick=5, channel=0, data=[75, 0]),
   midi.NoteOnEvent(tick=0, channel=0, data=[78, 0]),
   midi.NoteOnEvent(tick=10, channel=0, data=[76, 0]),
   midi.NoteOnEvent(tick=5, channel=0, data=[79, 0]),
   midi.NoteOnEvent(tick=0, channel=0, data=[55, 0]),
   midi.NoteOnEvent(tick=25, channel=0, data=[82, 91]),
   midi.NoteOnEvent(tick=0, channel=0, data=[79, 91]),
   midi.NoteOnEvent(tick=15, channel=0, data=[86, 96]),
   midi.NoteOnEvent(tick=0, channel=0, data=[76, 96]),
   midi.NoteOnEvent(tick=0, channel=0, data=[70, 92]),
   midi.NoteOnEvent(tick=0, channel=0, data=[64, 92]),
   midi.NoteOnEvent(tick=0, channel=0, data=[62, 92]),
   midi.NoteOnEvent(tick=5, channel=0, data=[79, 0]),
   midi.NoteOnEvent(tick=0, channel=0, data=[82, 0]),
   midi.NoteOnEvent(tick=15, channel=0, data=[86, 0]),
   midi.NoteOnEvent(tick=0, channel=0, data=[70, 0]),
   midi.NoteOnEvent(tick=0, channel=0, data=[76, 0]),
   midi.NoteOnEvent(tick=0, channel=0, data=[62, 0]),
   midi.NoteOnEvent(tick=0, channel=0, data=[64, 0]),
   midi.ControlChangeEvent(tick=40, channel=0, data=[64, 127]),
   midi.NoteOnEvent(tick=0, channel=0, data=[94, 96]),
   midi.NoteOnEvent(tick=0, channel=0, data=[93, 88]),
   midi.NoteOnEvent(tick=0, channel=0, data=[68, 82]),
   midi.NoteOnEvent(tick=0, channel=0, data=[62, 82]),
   midi.NoteOnEvent(tick=20, channel=0, data=[91, 88]),
   midi.NoteOnEvent(tick=5, channel=0, data=[68, 0]),
   midi.NoteOnEvent(tick=0, channel=0, data=[93, 0]),
   midi.NoteOnEvent(tick=5, channel=0, data=[62, 0]),
   midi.NoteOnEvent(tick=10, channel=0, data=[89, 88]),
   midi.NoteOnEvent(tick=15, channel=0, data=[91, 0]),
   midi.NoteOnEvent(tick=10, channel=0, data=[89, 0]),
   midi.NoteOnEvent(tick=0, channel=0, data=[94, 0]),
   midi.NoteOnEvent(tick=0, channel=0, data=[89, 88]),
   midi.NoteOnEvent(tick=0, channel=0, data=[93, 96]),
   midi.NoteOnEvent(tick=0, channel=0, data=[77, 82]),
   midi.NoteOnEvent(tick=0, channel=0, data=[69, 82]),
   midi.ControlChangeEvent(tick=10, channel=0, data=[64, 0]),
   midi.NoteOnEvent(tick=10, channel=0, data=[88, 88]),
   midi.NoteOnEvent(tick=10, channel=0, data=[69, 0]),
   midi.NoteOnEvent(tick=0, channel=0, data=[77, 0]),
   midi.NoteOnEvent(tick=0, channel=0, data=[89, 0]),
   midi.NoteOnEvent(tick=10, channel=0, data=[86, 88]),
   midi.NoteOnEvent(tick=10, channel=0, data=[88, 0]),
   midi.NoteOnEvent(tick=5, channel=0, data=[89, 81]),
   midi.NoteOnEvent(tick=5, channel=0, data=[89, 0]),
   midi.NoteOnEvent(tick=5, channel=0, data=[88, 86]),
   midi.NoteOnEvent(tick=0, channel=0, data=[74, 82]),
   midi.NoteOnEvent(tick=0, channel=0, data=[71, 82]),
   midi.NoteOnEvent(tick=0, channel=0, data=[79, 82]),
   midi.NoteOnEvent(tick=10, channel=0, data=[93, 0]),
   midi.NoteOnEvent(tick=5, channel=0, data=[86, 0]),
   midi.NoteOnEvent(tick=0, channel=0, data=[88, 0]),
   midi.NoteOnEvent(tick=20, channel=0, data=[74, 0]),
   midi.NoteOnEvent(tick=0, channel=0, data=[71, 0]),
   midi.NoteOnEvent(tick=0, channel=0, data=[79, 0]),
   midi.NoteOnEvent(tick=5, channel=0, data=[85, 86]),
   midi.NoteOnEvent(tick=15, channel=0, data=[81, 86]),
   midi.NoteOnEvent(tick=0, channel=0, data=[79, 82]),
   midi.NoteOnEvent(tick=0, channel=0, data=[73, 82]),
   midi.NoteOnEvent(tick=0, channel=0, data=[76, 82]),
   midi.NoteOnEvent(tick=5, channel=0, data=[85, 0]),
   midi.NoteOnEvent(tick=10, channel=0, data=[81, 0]),
   midi.NoteOnEvent(tick=0, channel=0, data=[79, 0]),
   midi.NoteOnEvent(tick=5, channel=0, data=[73, 0]),
   midi.NoteOnEvent(tick=0, channel=0, data=[76, 0]),
   midi.ControlChangeEvent(tick=20, channel=0, data=[64, 127]),
   midi.NoteOnEvent(tick=0, channel=0, data=[85, 86]),
   midi.NoteOnEvent(tick=0, channel=0, data=[82, 86]),
   midi.NoteOnEvent(tick=15, channel=0, data=[86, 86]),
   midi.NoteOnEvent(tick=0, channel=0, data=[83, 86]),
   midi.NoteOnEvent(tick=0, channel=0, data=[62, 82]),
   midi.NoteOnEvent(tick=5, channel=0, data=[82, 0]),
   midi.NoteOnEvent(tick=0, channel=0, data=[85, 0]),
   midi.NoteOnEvent(tick=15, channel=0, data=[83, 0]),
   midi.NoteOnEvent(tick=0, channel=0, data=[86, 0]),
   midi.NoteOnEvent(tick=5, channel=0, data=[62, 0]),
   midi.NoteOnEvent(tick=15, channel=0, data=[86, 91]),
   midi.NoteOnEvent(tick=0, channel=0, data=[89, 91]),
   midi.ControlChangeEvent(tick=15, channel=0, data=[64, 0]),
   midi.NoteOnEvent(tick=0, channel=0, data=[93, 96]),
   midi.NoteOnEvent(tick=10, channel=0, data=[89, 0]),
   midi.NoteOnEvent(tick=0, channel=0, data=[83, 96]),
   midi.NoteOnEvent(tick=0, channel=0, data=[71, 92]),
   midi.NoteOnEvent(tick=0, channel=0, data=[69, 92]),
   midi.NoteOnEvent(tick=0, channel=0, data=[77, 92]),
   midi.NoteOnEvent(tick=5, channel=0, data=[86, 0]),
   midi.NoteOnEvent(tick=10, channel=0, data=[93, 0]),
   midi.NoteOnEvent(tick=0, channel=0, data=[83, 0]),
   midi.NoteOnEvent(tick=5, channel=0, data=[71, 0]),
   midi.NoteOnEvent(tick=0, channel=0, data=[69, 0]),
   midi.NoteOnEvent(tick=0, channel=0, data=[77, 0]),
   midi.ControlChangeEvent(tick=20, channel=0, data=[64, 127]),
   midi.NoteOnEvent(tick=0, channel=0, data=[85, 86]),
   midi.NoteOnEvent(tick=0, channel=0, data=[82, 86]),
   midi.NoteOnEvent(tick=15, channel=0, data=[86, 86]),
   midi.NoteOnEvent(tick=5, channel=0, data=[83, 86]),
   midi.NoteOnEvent(tick=0, channel=0, data=[62, 82]),
   midi.NoteOnEvent(tick=5, channel=0, data=[82, 0]),
   midi.NoteOnEvent(tick=0, channel=0, data=[85, 0]),
   midi.NoteOnEvent(tick=10, channel=0, data=[83, 0]),
   midi.NoteOnEvent(tick=0, channel=0, data=[86, 0]),
   midi.NoteOnEvent(tick=10, channel=0, data=[62, 0]),
   midi.NoteOnEvent(tick=15, channel=0, data=[89, 91]),
   midi.NoteOnEvent(tick=0, channel=0, data=[86, 91]),
   midi.NoteOnEvent(tick=15, channel=0, data=[93, 96]),
   midi.NoteOnEvent(tick=0, channel=0, data=[83, 96]),
   midi.NoteOnEvent(tick=0, channel=0, data=[77, 92]),
   midi.NoteOnEvent(tick=0, channel=0, data=[71, 92]),
   midi.NoteOnEvent(tick=0, channel=0, data=[69, 92]),
   midi.NoteOnEvent(tick=5, channel=0, data=[86, 0]),
   midi.ControlChangeEvent(tick=0, channel=0, data=[64, 0]),
   midi.NoteOnEvent(tick=5, channel=0, data=[89, 0]),
   midi.NoteOnEvent(tick=10, channel=0, data=[93, 0]),
   midi.NoteOnEvent(tick=0, channel=0, data=[77, 0]),
   midi.NoteOnEvent(tick=0, channel=0, data=[83, 0]),
   midi.NoteOnEvent(tick=0, channel=0, data=[69, 0]),
   midi.NoteOnEvent(tick=0, channel=0, data=[71, 0]),
   midi.ControlChangeEvent(tick=25, channel=0, data=[64, 127]),
   midi.NoteOnEvent(tick=0, channel=0, data=[85, 86]),
   midi.NoteOnEvent(tick=0, channel=0, data=[82, 86]),
   midi.NoteOnEvent(tick=15, channel=0, data=[85, 0]),
   midi.NoteOnEvent(tick=0, channel=0, data=[86, 86]),
   midi.NoteOnEvent(tick=0, channel=0, data=[83, 86]),
   midi.NoteOnEvent(tick=0, channel=0, data=[62, 82]),
   midi.NoteOnEvent(tick=5, channel=0, data=[82, 0]),
   midi.NoteOnEvent(tick=10, channel=0, data=[62, 0]),
   midi.NoteOnEvent(tick=15, channel=0, data=[86, 0]),
   midi.NoteOnEvent(tick=0, channel=0, data=[101, 93]),
   midi.NoteOnEvent(tick=0, channel=0, data=[98, 93]),
   midi.NoteOnEvent(tick=5, channel=0, data=[83, 0]),
   midi.NoteOnEvent(tick=20, channel=0, data=[100, 93]),
   midi.NoteOnEvent(tick=0, channel=0, data=[77, 82]),
   midi.NoteOnEvent(tick=5, channel=0, data=[69, 82]),
   midi.NoteOnEvent(tick=0, channel=0, data=[71, 82]),
   midi.NoteOnEvent(tick=0, channel=0, data=[97, 93]),
   midi.NoteOnEvent(tick=5, channel=0, data=[101, 0]),
   midi.NoteOnEvent(tick=5, channel=0, data=[98, 0]),
   midi.NoteOnEvent(tick=10, channel=0, data=[77, 0]),
   midi.NoteOnEvent(tick=0, channel=0, data=[69, 0]),
   midi.NoteOnEvent(tick=0, channel=0, data=[71, 0]),
   midi.NoteOnEvent(tick=5, channel=0, data=[96, 93]),
   midi.NoteOnEvent(tick=0, channel=0, data=[99, 93]),
   midi.NoteOnEvent(tick=10, channel=0, data=[97, 0]),
   midi.NoteOnEvent(tick=0, channel=0, data=[100, 0]),
   midi.ControlChangeEvent(tick=5, channel=0, data=[64, 0]),
   midi.NoteOnEvent(tick=20, channel=0, data=[98, 93]),
   midi.NoteOnEvent(tick=0, channel=0, data=[95, 93]),
   midi.NoteOnEvent(tick=0, channel=0, data=[81, 82]),
   midi.NoteOnEvent(tick=0, channel=0, data=[77, 82]),
   midi.NoteOnEvent(tick=0, channel=0, data=[71, 82]),
   midi.NoteOnEvent(tick=10, channel=0, data=[96, 0]),
   midi.NoteOnEvent(tick=0, channel=0, data=[99, 0]),
   midi.NoteOnEvent(tick=10, channel=0, data=[77, 0]),
   midi.NoteOnEvent(tick=0, channel=0, data=[81, 0]),
   midi.NoteOnEvent(tick=0, channel=0, data=[71, 0]),
   midi.NoteOnEvent(tick=5, channel=0, data=[94, 93]),
   midi.NoteOnEvent(tick=0, channel=0, data=[97, 93]),
   midi.NoteOnEvent(tick=10, channel=0, data=[95, 0]),
   midi.NoteOnEvent(tick=0, channel=0, data=[98, 0]),
   midi.NoteOnEvent(tick=25, channel=0, data=[96, 93]),
   midi.NoteOnEvent(tick=0, channel=0, data=[93, 93]),
   midi.NoteOnEvent(tick=10, channel=0, data=[94, 0]),
   midi.NoteOnEvent(tick=0, channel=0, data=[97, 0]),
   midi.NoteOnEvent(tick=15, channel=0, data=[95, 93]),
   midi.NoteOnEvent(tick=0, channel=0, data=[92, 93]),
   midi.NoteOnEvent(tick=10, channel=0, data=[96, 0]),
   midi.NoteOnEvent(tick=5, channel=0, data=[93, 0]),
   midi.NoteOnEvent(tick=20, channel=0, data=[94, 91]),
   midi.NoteOnEvent(tick=0, channel=0, data=[91, 91]),
   midi.NoteOnEvent(tick=10, channel=0, data=[95, 0]),
   midi.NoteOnEvent(tick=0, channel=0, data=[92, 0]),
   midi.NoteOnEvent(tick=20, channel=0, data=[93, 91]),
   midi.NoteOnEvent(tick=0, channel=0, data=[90, 91]),
   midi.NoteOnEvent(tick=10, channel=0, data=[94, 0]),
   midi.NoteOnEvent(tick=0, channel=0, data=[91, 0]),
   midi.NoteOnEvent(tick=20, channel=0, data=[92, 91]),
   midi.NoteOnEvent(tick=0, channel=0, data=[89, 91]),
   midi.NoteOnEvent(tick=10, channel=0, data=[93, 0]),
   midi.NoteOnEvent(tick=0, channel=0, data=[90, 0]),
   midi.NoteOnEvent(tick=20, channel=0, data=[91, 91]),
   midi.NoteOnEvent(tick=0, channel=0, data=[88, 91]),
   midi.NoteOnEvent(tick=10, channel=0, data=[92, 0]),
   midi.NoteOnEvent(tick=5, channel=0, data=[89, 0]),
   midi.NoteOnEvent(tick=15, channel=0, data=[87, 88]),
   midi.NoteOnEvent(tick=5, channel=0, data=[90, 88]),
   midi.NoteOnEvent(tick=5, channel=0, data=[91, 0]),
   midi.NoteOnEvent(tick=5, channel=0, data=[88, 0]),
   midi.NoteOnEvent(tick=15, channel=0, data=[89, 88]),
   midi.NoteOnEvent(tick=0, channel=0, data=[86, 88]),
   midi.NoteOnEvent(tick=10, channel=0, data=[87, 0]),
   midi.NoteOnEvent(tick=0, channel=0, data=[90, 0]),
   midi.NoteOnEvent(tick=20, channel=0, data=[85, 88]),
   midi.NoteOnEvent(tick=0, channel=0, data=[88, 88]),
   midi.NoteOnEvent(tick=10, channel=0, data=[89, 0]),
   midi.NoteOnEvent(tick=0, channel=0, data=[86, 0]),
   midi.NoteOnEvent(tick=20, channel=0, data=[87, 86]),
   midi.NoteOnEvent(tick=0, channel=0, data=[84, 86]),
   midi.NoteOnEvent(tick=5, channel=0, data=[88, 0]),
   midi.NoteOnEvent(tick=5, channel=0, data=[85, 0]),
   midi.ControlChangeEvent(tick=20, channel=0, data=[64, 127]),
   midi.NoteOnEvent(tick=0, channel=0, data=[86, 85]),
   midi.NoteOnEvent(tick=0, channel=0, data=[83, 85]),
   midi.NoteOnEvent(tick=0, channel=0, data=[50, 82]),
   midi.NoteOnEvent(tick=0, channel=0, data=[38, 82]),
   midi.NoteOnEvent(tick=5, channel=0, data=[84, 0]),
   midi.NoteOnEvent(tick=5, channel=0, data=[87, 0]),
   midi.NoteOnEvent(tick=15, channel=0, data=[50, 0]),
   midi.NoteOnEvent(tick=0, channel=0, data=[38, 0]),
   midi.NoteOnEvent(tick=0, channel=0, data=[82, 83]),
   midi.NoteOnEvent(tick=0, channel=0, data=[85, 83]),
   midi.NoteOnEvent(tick=10, channel=0, data=[83, 0]),
   midi.NoteOnEvent(tick=0, channel=0, data=[86, 0]),
   midi.NoteOnEvent(tick=20, channel=0, data=[84, 82]),
   midi.NoteOnEvent(tick=0, channel=0, data=[81, 82]),
   midi.NoteOnEvent(tick=0, channel=0, data=[65, 82]),
   midi.NoteOnEvent(tick=0, channel=0, data=[57, 82]),
   midi.NoteOnEvent(tick=0, channel=0, data=[59, 82]),
   midi.NoteOnEvent(tick=10, channel=0, data=[82, 0]),
   midi.NoteOnEvent(tick=5, channel=0, data=[85, 0]),
   midi.NoteOnEvent(tick=5, channel=0, data=[57, 0]),
   midi.NoteOnEvent(tick=0, channel=0, data=[65, 0]),
   midi.NoteOnEvent(tick=0, channel=0, data=[59, 0]),
   midi.NoteOnEvent(tick=10, channel=0, data=[83, 81]),
   midi.NoteOnEvent(tick=0, channel=0, data=[80, 81]),
   midi.NoteOnEvent(tick=10, channel=0, data=[81, 0]),
   midi.NoteOnEvent(tick=0, channel=0, data=[84, 0]),
   midi.NoteOnEvent(tick=25, channel=0, data=[82, 80]),
   midi.NoteOnEvent(tick=0, channel=0, data=[65, 82]),
   midi.NoteOnEvent(tick=0, channel=0, data=[59, 82]),
   midi.NoteOnEvent(tick=0, channel=0, data=[69, 82]),
   midi.NoteOnEvent(tick=0, channel=0, data=[79, 80]),
   midi.NoteOnEvent(tick=5, channel=0, data=[83, 0]),
   midi.NoteOnEvent(tick=0, channel=0, data=[80, 0]),
   midi.NoteOnEvent(tick=10, channel=0, data=[59, 0]),
   midi.ControlChangeEvent(tick=0, channel=0, data=[64, 0]),
   midi.NoteOnEvent(tick=5, channel=0, data=[65, 0]),
   midi.NoteOnEvent(tick=0, channel=0, data=[69, 0]),
   midi.NoteOnEvent(tick=5, channel=0, data=[81, 80]),
   midi.NoteOnEvent(tick=0, channel=0, data=[78, 80]),
   midi.NoteOnEvent(tick=10, channel=0, data=[79, 0]),
   midi.NoteOnEvent(tick=5, channel=0, data=[82, 0]),
   midi.NoteOnEvent(tick=15, channel=0, data=[80, 78]),
   midi.NoteOnEvent(tick=0, channel=0, data=[77, 78]),
   midi.NoteOnEvent(tick=10, channel=0, data=[81, 0]),
   midi.NoteOnEvent(tick=0, channel=0, data=[78, 0]),
   midi.NoteOnEvent(tick=20, channel=0, data=[79, 78]),
   midi.NoteOnEvent(tick=5, channel=0, data=[76, 78]),
   midi.NoteOnEvent(tick=5, channel=0, data=[80, 0]),
   midi.NoteOnEvent(tick=5, channel=0, data=[77, 0]),
   midi.NoteOnEvent(tick=20, channel=0, data=[78, 76]),
   midi.NoteOnEvent(tick=0, channel=0, data=[75, 76]),
   midi.NoteOnEvent(tick=10, channel=0, data=[79, 0]),
   midi.NoteOnEvent(tick=0, channel=0, data=[76, 0]),
   midi.NoteOnEvent(tick=20, channel=0, data=[74, 76]),
   midi.NoteOnEvent(tick=0, channel=0, data=[77, 76]),
   midi.NoteOnEvent(tick=15, channel=0, data=[78, 0]),
   midi.NoteOnEvent(tick=0, channel=0, data=[75, 0]),
   midi.NoteOnEvent(tick=10, channel=0, data=[76, 76]),
   midi.NoteOnEvent(tick=0, channel=0, data=[73, 76]),
   midi.NoteOnEvent(tick=10, channel=0, data=[74, 0]),
   midi.NoteOnEvent(tick=0, channel=0, data=[77, 0]),
   midi.NoteOnEvent(tick=20, channel=0, data=[72, 76]),
   midi.NoteOnEvent(tick=5, channel=0, data=[75, 76]),
   midi.NoteOnEvent(tick=5, channel=0, data=[76, 0]),
   midi.NoteOnEvent(tick=0, channel=0, data=[73, 0]),
   midi.NoteOnEvent(tick=25, channel=0, data=[74, 76]),
   midi.NoteOnEvent(tick=0, channel=0, data=[71, 71]),
   midi.NoteOnEvent(tick=5, channel=0, data=[72, 0]),
   midi.NoteOnEvent(tick=5, channel=0, data=[75, 0]),
   midi.NoteOnEvent(tick=10, channel=0, data=[70, 71]),
   midi.NoteOnEvent(tick=0, channel=0, data=[73, 71]),
   midi.NoteOnEvent(tick=20, channel=0, data=[74, 0]),
   midi.NoteOnEvent(tick=0, channel=0, data=[71, 0]),
   midi.NoteOnEvent(tick=5, channel=0, data=[72, 71]),
   midi.NoteOnEvent(tick=0, channel=0, data=[69, 71]),
   midi.NoteOnEvent(tick=10, channel=0, data=[70, 0]),
   midi.NoteOnEvent(tick=0, channel=0, data=[73, 0]),
   midi.NoteOnEvent(tick=15, channel=0, data=[68, 71]),
   midi.NoteOnEvent(tick=0, channel=0, data=[71, 71]),
   midi.NoteOnEvent(tick=10, channel=0, data=[72, 0]),
   midi.NoteOnEvent(tick=0, channel=0, data=[69, 0]),
   midi.NoteOnEvent(tick=40, channel=0, data=[43, 76]),
   midi.NoteOnEvent(tick=0, channel=0, data=[72, 95]),
   midi.NoteOnEvent(tick=15, channel=0, data=[68, 0]),
   midi.NoteOnEvent(tick=0, channel=0, data=[71, 0]),
   midi.NoteOnEvent(tick=5, channel=0, data=[50, 76]),
   midi.NoteOnEvent(tick=20, channel=0, data=[43, 0]),
   midi.NoteOnEvent(tick=0, channel=0, data=[53, 76]),
   midi.NoteOnEvent(tick=15, channel=0, data=[50, 0]),
   midi.NoteOnEvent(tick=5, channel=0, data=[60, 76]),
   midi.NoteOnEvent(tick=0, channel=0, data=[69, 94]),
   midi.NoteOnEvent(tick=15, channel=0, data=[53, 0]),
   midi.NoteOnEvent(tick=5, channel=0, data=[53, 76]),
   midi.NoteOnEvent(tick=15, channel=0, data=[60, 0]),
   midi.NoteOnEvent(tick=5, channel=0, data=[50, 76]),
   midi.NoteOnEvent(tick=15, channel=0, data=[53, 0]),
   midi.NoteOnEvent(tick=5, channel=0, data=[72, 0]),
   midi.NoteOnEvent(tick=0, channel=0, data=[43, 76]),
   midi.NoteOnEvent(tick=0, channel=0, data=[67, 91]),
   midi.NoteOnEvent(tick=10, channel=0, data=[69, 0]),
   midi.NoteOnEvent(tick=0, channel=0, data=[50, 0]),
   midi.NoteOnEvent(tick=0, channel=0, data=[69, 96]),
   midi.NoteOnEvent(tick=10, channel=0, data=[67, 0]),
   midi.NoteOnEvent(tick=0, channel=0, data=[67, 93]),
   midi.NoteOnEvent(tick=0, channel=0, data=[50, 76]),
   midi.NoteOnEvent(tick=10, channel=0, data=[67, 0]),
   midi.NoteOnEvent(tick=0, channel=0, data=[43, 0]),
   midi.NoteOnEvent(tick=5, channel=0, data=[69, 0]),
   midi.NoteOnEvent(tick=5, channel=0, data=[53, 76]),
   midi.NoteOnEvent(tick=0, channel=0, data=[65, 96]),
   midi.NoteOnEvent(tick=20, channel=0, data=[50, 0]),
   midi.NoteOnEvent(tick=0, channel=0, data=[60, 76]),
   midi.NoteOnEvent(tick=15, channel=0, data=[53, 0]),
   midi.NoteOnEvent(tick=5, channel=0, data=[53, 76]),
   midi.NoteOnEvent(tick=0, channel=0, data=[69, 96]),
   midi.NoteOnEvent(tick=15, channel=0, data=[60, 0]),
   midi.NoteOnEvent(tick=0, channel=0, data=[65, 0]),
   midi.NoteOnEvent(tick=5, channel=0, data=[50, 76]),
   midi.NoteOnEvent(tick=10, channel=0, data=[53, 0]),
   midi.NoteOnEvent(tick=10, channel=0, data=[43, 76]),
   midi.NoteOnEvent(tick=0, channel=0, data=[72, 97]),
   midi.NoteOnEvent(tick=10, channel=0, data=[50, 0]),
   midi.NoteOnEvent(tick=0, channel=0, data=[69, 0]),
   midi.NoteOnEvent(tick=10, channel=0, data=[50, 76]),
   midi.NoteOnEvent(tick=15, channel=0, data=[43, 0]),
   midi.NoteOnEvent(tick=5, channel=0, data=[53, 76]),
   midi.NoteOnEvent(tick=15, channel=0, data=[50, 0]),
   midi.NoteOnEvent(tick=5, channel=0, data=[60, 76]),
   midi.NoteOnEvent(tick=0, channel=0, data=[77, 102]),
   midi.NoteOnEvent(tick=5, channel=0, data=[72, 0]),
   midi.NoteOnEvent(tick=10, channel=0, data=[53, 0]),
   midi.NoteOnEvent(tick=0, channel=0, data=[53, 76]),
   midi.NoteOnEvent(tick=20, channel=0, data=[60, 0]),
   midi.NoteOnEvent(tick=0, channel=0, data=[77, 0]),
   midi.NoteOnEvent(tick=5, channel=0, data=[50, 76]),
   midi.NoteOnEvent(tick=15, channel=0, data=[53, 0]),
   midi.NoteOnEvent(tick=5, channel=0, data=[43, 76]),
   midi.NoteOnEvent(tick=0, channel=0, data=[77, 103]),
   midi.NoteOnEvent(tick=15, channel=0, data=[50, 0]),
   midi.NoteOnEvent(tick=5, channel=0, data=[50, 76]),
   midi.NoteOnEvent(tick=15, channel=0, data=[43, 0]),
   midi.NoteOnEvent(tick=5, channel=0, data=[53, 76]),
   midi.NoteOnEvent(tick=15, channel=0, data=[50, 0]),
   midi.NoteOnEvent(tick=5, channel=0, data=[60, 76]),
   midi.NoteOnEvent(tick=15, channel=0, data=[53, 0]),
   midi.NoteOnEvent(tick=5, channel=0, data=[53, 76]),
   midi.NoteOnEvent(tick=15, channel=0, data=[60, 0]),
   midi.NoteOnEvent(tick=5, channel=0, data=[50, 76]),
   midi.NoteOnEvent(tick=15, channel=0, data=[53, 0]),
   midi.NoteOnEvent(tick=5, channel=0, data=[43, 76]),
   midi.NoteOnEvent(tick=15, channel=0, data=[50, 0]),
   midi.NoteOnEvent(tick=5, channel=0, data=[50, 76]),
   midi.NoteOnEvent(tick=15, channel=0, data=[43, 0]),
   midi.NoteOnEvent(tick=5, channel=0, data=[53, 76]),
   midi.NoteOnEvent(tick=15, channel=0, data=[50, 0]),
   midi.NoteOnEvent(tick=5, channel=0, data=[60, 76]),
   midi.NoteOnEvent(tick=0, channel=0, data=[72, 98]),
   midi.NoteOnEvent(tick=15, channel=0, data=[53, 0]),
   midi.NoteOnEvent(tick=5, channel=0, data=[77, 0]),
   midi.NoteOnEvent(tick=0, channel=0, data=[53, 76]),
   midi.NoteOnEvent(tick=15, channel=0, data=[60, 0]),
   midi.NoteOnEvent(tick=5, channel=0, data=[50, 76]),
   midi.NoteOnEvent(tick=15, channel=0, data=[53, 0]),
   midi.NoteOnEvent(tick=5, channel=0, data=[71, 93]),
   midi.NoteOnEvent(tick=0, channel=0, data=[43, 76]),
   midi.NoteOnEvent(tick=10, channel=0, data=[72, 0]),
   midi.NoteOnEvent(tick=0, channel=0, data=[72, 99]),
   midi.NoteOnEvent(tick=1, channel=0, data=[72, 0]),
   midi.NoteOnEvent(tick=4, channel=0, data=[50, 0]),
   midi.NoteOnEvent(tick=5, channel=0, data=[71, 0]),
   midi.NoteOnEvent(tick=0, channel=0, data=[50, 76]),
   midi.NoteOnEvent(tick=0, channel=0, data=[71, 97]),
   midi.NoteOnEvent(tick=1, channel=0, data=[71, 0]),
   midi.NoteOnEvent(tick=14, channel=0, data=[43, 0]),
   midi.NoteOnEvent(tick=5, channel=0, data=[53, 76]),
   midi.NoteOnEvent(tick=0, channel=0, data=[69, 99]),
   midi.NoteOnEvent(tick=15, channel=0, data=[50, 0]),
   midi.NoteOnEvent(tick=5, channel=0, data=[60, 76]),
   midi.NoteOnEvent(tick=15, channel=0, data=[53, 0]),
   midi.NoteOnEvent(tick=5, channel=0, data=[53, 76]),
   midi.NoteOnEvent(tick=0, channel=0, data=[72, 92]),
   midi.NoteOnEvent(tick=15, channel=0, data=[60, 0]),
   midi.NoteOnEvent(tick=0, channel=0, data=[69, 0]),
   midi.NoteOnEvent(tick=5, channel=0, data=[50, 76]),
   midi.NoteOnEvent(tick=15, channel=0, data=[53, 0]),
   midi.NoteOnEvent(tick=5, channel=0, data=[43, 76]),
   midi.NoteOnEvent(tick=0, channel=0, data=[77, 101]),
   midi.NoteOnEvent(tick=10, channel=0, data=[72, 0]),
   midi.NoteOnEvent(tick=5, channel=0, data=[50, 0]),
   midi.NoteOnEvent(tick=0, channel=0, data=[50, 76]),
   midi.NoteOnEvent(tick=20, channel=0, data=[43, 0]),
   midi.NoteOnEvent(tick=0, channel=0, data=[53, 76]),
   midi.NoteOnEvent(tick=15, channel=0, data=[50, 0]),
   midi.NoteOnEvent(tick=5, channel=0, data=[60, 76]),
   midi.NoteOnEvent(tick=0, channel=0, data=[81, 103]),
   midi.NoteOnEvent(tick=15, channel=0, data=[53, 0]),
   midi.NoteOnEvent(tick=5, channel=0, data=[77, 0]),
   midi.NoteOnEvent(tick=0, channel=0, data=[53, 76]),
   midi.NoteOnEvent(tick=15, channel=0, data=[60, 0]),
   midi.NoteOnEvent(tick=0, channel=0, data=[81, 0]),
   midi.NoteOnEvent(tick=5, channel=0, data=[50, 76]),
   midi.NoteOnEvent(tick=15, channel=0, data=[53, 0]),
   midi.NoteOnEvent(tick=10, channel=0, data=[43, 76]),
   midi.NoteOnEvent(tick=0, channel=0, data=[81, 104]),
   midi.NoteOnEvent(tick=15, channel=0, data=[50, 0]),
   midi.NoteOnEvent(tick=0, channel=0, data=[50, 76]),
   midi.NoteOnEvent(tick=20, channel=0, data=[43, 0]),
   midi.NoteOnEvent(tick=0, channel=0, data=[53, 76]),
   midi.NoteOnEvent(tick=15, channel=0, data=[50, 0]),
   midi.NoteOnEvent(tick=5, channel=0, data=[60, 76]),
   midi.NoteOnEvent(tick=15, channel=0, data=[53, 0]),
   midi.NoteOnEvent(tick=5, channel=0, data=[53, 76]),
   midi.NoteOnEvent(tick=15, channel=0, data=[60, 0]),
   midi.NoteOnEvent(tick=5, channel=0, data=[50, 76]),
   midi.NoteOnEvent(tick=20, channel=0, data=[53, 0]),
   midi.NoteOnEvent(tick=5, channel=0, data=[43, 76]),
   midi.NoteOnEvent(tick=15, channel=0, data=[50, 0]),
   midi.NoteOnEvent(tick=5, channel=0, data=[50, 76]),
   midi.NoteOnEvent(tick=15, channel=0, data=[43, 0]),
   midi.NoteOnEvent(tick=0, channel=0, data=[53, 76]),
   midi.NoteOnEvent(tick=20, channel=0, data=[50, 0]),
   midi.NoteOnEvent(tick=0, channel=0, data=[77, 99]),
   midi.NoteOnEvent(tick=5, channel=0, data=[60, 76]),
   midi.NoteOnEvent(tick=10, channel=0, data=[53, 0]),
   midi.NoteOnEvent(tick=5, channel=0, data=[53, 76]),
   midi.NoteOnEvent(tick=15, channel=0, data=[81, 0]),
   midi.NoteOnEvent(tick=5, channel=0, data=[60, 0]),
   midi.NoteOnEvent(tick=0, channel=0, data=[50, 76]),
   midi.NoteOnEvent(tick=15, channel=0, data=[53, 0]),
   midi.NoteOnEvent(tick=10, channel=0, data=[76, 92]),
   midi.NoteOnEvent(tick=0, channel=0, data=[43, 88]),
   midi.NoteOnEvent(tick=5, channel=0, data=[77, 0]),
   midi.NoteOnEvent(tick=5, channel=0, data=[77, 93]),
   midi.NoteOnEvent(tick=5, channel=0, data=[50, 0]),
   midi.NoteOnEvent(tick=0, channel=0, data=[76, 0]),
   midi.NoteOnEvent(tick=5, channel=0, data=[76, 98]),
   midi.NoteOnEvent(tick=0, channel=0, data=[50, 88]),
   midi.NoteOnEvent(tick=5, channel=0, data=[77, 0]),
   midi.NoteOnEvent(tick=10, channel=0, data=[43, 0]),
   midi.NoteOnEvent(tick=5, channel=0, data=[74, 94]),
   midi.NoteOnEvent(tick=0, channel=0, data=[53, 88]),
   midi.NoteOnEvent(tick=15, channel=0, data=[50, 0]),
   midi.NoteOnEvent(tick=5, channel=0, data=[76, 0]),
   midi.NoteOnEvent(tick=0, channel=0, data=[60, 88]),
   midi.NoteOnEvent(tick=10, channel=0, data=[53, 0]),
   midi.NoteOnEvent(tick=5, channel=0, data=[77, 102]),
   midi.NoteOnEvent(tick=5, channel=0, data=[53, 88]),
   midi.NoteOnEvent(tick=10, channel=0, data=[60, 0]),
   midi.NoteOnEvent(tick=5, channel=0, data=[74, 0]),
   midi.NoteOnEvent(tick=0, channel=0, data=[50, 88]),
   midi.NoteOnEvent(tick=20, channel=0, data=[53, 0]),
   midi.NoteOnEvent(tick=5, channel=0, data=[81, 106]),
   midi.NoteOnEvent(tick=0, channel=0, data=[43, 91]),
   midi.NoteOnEvent(tick=15, channel=0, data=[50, 0]),
   midi.NoteOnEvent(tick=0, channel=0, data=[77, 0]),
   midi.NoteOnEvent(tick=5, channel=0, data=[83, 86]),
   midi.NoteOnEvent(tick=0, channel=0, data=[50, 91]),
   midi.NoteOnEvent(tick=15, channel=0, data=[81, 0]),
   midi.NoteOnEvent(tick=0, channel=0, data=[43, 0]),
   midi.NoteOnEvent(tick=5, channel=0, data=[81, 90]),
   midi.NoteOnEvent(tick=0, channel=0, data=[53, 91]),
   midi.NoteOnEvent(tick=10, channel=0, data=[83, 0]),
   midi.NoteOnEvent(tick=5, channel=0, data=[50, 0]),
   midi.NoteOnEvent(tick=5, channel=0, data=[77, 87]),
   midi.NoteOnEvent(tick=0, channel=0, data=[60, 91]),
   midi.NoteOnEvent(tick=10, channel=0, data=[81, 0]),
   midi.NoteOnEvent(tick=0, channel=0, data=[53, 0]),
   midi.NoteOnEvent(tick=5, channel=0, data=[53, 91]),
   midi.NoteOnEvent(tick=0, channel=0, data=[74, 90]),
   midi.NoteOnEvent(tick=15, channel=0, data=[60, 0]),
   midi.NoteOnEvent(tick=5, channel=0, data=[77, 0]),
   midi.NoteOnEvent(tick=5, channel=0, data=[77, 89]),
   midi.NoteOnEvent(tick=0, channel=0, data=[50, 91]),
   midi.NoteOnEvent(tick=15, channel=0, data=[53, 0]),
   midi.NoteOnEvent(tick=0, channel=0, data=[74, 0]),
   midi.NoteOnEvent(tick=5, channel=0, data=[81, 93]),
   midi.NoteOnEvent(tick=0, channel=0, data=[43, 93]),
   midi.NoteOnEvent(tick=15, channel=0, data=[77, 0]),
   midi.NoteOnEvent(tick=0, channel=0, data=[50, 0]),
   midi.NoteOnEvent(tick=5, channel=0, data=[83, 92]),
   midi.NoteOnEvent(tick=0, channel=0, data=[50, 93]),
   midi.NoteOnEvent(tick=10, channel=0, data=[81, 0]),
   midi.NoteOnEvent(tick=5, channel=0, data=[43, 0]),
   midi.NoteOnEvent(tick=5, channel=0, data=[81, 89]),
   midi.NoteOnEvent(tick=0, channel=0, data=[53, 93]),
   midi.NoteOnEvent(tick=15, channel=0, data=[83, 0]),
   midi.NoteOnEvent(tick=0, channel=0, data=[50, 0]),
   midi.NoteOnEvent(tick=5, channel=0, data=[77, 92]),
   midi.NoteOnEvent(tick=0, channel=0, data=[60, 93]),
   midi.NoteOnEvent(tick=10, channel=0, data=[81, 0]),
   midi.ControlChangeEvent(tick=0, channel=0, data=[7, 116]),
   midi.NoteOnEvent(tick=5, channel=0, data=[53, 0]),
   midi.NoteOnEvent(tick=5, channel=0, data=[74, 93]),
   midi.NoteOnEvent(tick=0, channel=0, data=[53, 93]),
   midi.NoteOnEvent(tick=15, channel=0, data=[77, 0]),
   midi.NoteOnEvent(tick=0, channel=0, data=[60, 0]),
   midi.NoteOnEvent(tick=5, channel=0, data=[77, 93]),
   midi.NoteOnEvent(tick=0, channel=0, data=[50, 93]),
   midi.ControlChangeEvent(tick=5, channel=0, data=[7, 116]),
   midi.NoteOnEvent(tick=10, channel=0, data=[74, 0]),
   midi.NoteOnEvent(tick=0, channel=0, data=[53, 0]),
   midi.NoteOnEvent(tick=5, channel=0, data=[84, 106]),
   midi.NoteOnEvent(tick=0, channel=0, data=[43, 95]),
   midi.ControlChangeEvent(tick=5, channel=0, data=[7, 116]),
   midi.NoteOnEvent(tick=10, channel=0, data=[77, 0]),
   midi.NoteOnEvent(tick=0, channel=0, data=[50, 0]),
   midi.ControlChangeEvent(tick=5, channel=0, data=[7, 116]),
   midi.NoteOnEvent(tick=0, channel=0, data=[86, 101]),
   midi.NoteOnEvent(tick=0, channel=0, data=[50, 95]),
   midi.NoteOnEvent(tick=15, channel=0, data=[84, 0]),
   midi.NoteOnEvent(tick=0, channel=0, data=[43, 0]),
   midi.NoteOnEvent(tick=5, channel=0, data=[84, 92]),
   midi.NoteOnEvent(tick=0, channel=0, data=[53, 95]),
   midi.ControlChangeEvent(tick=0, channel=0, data=[7, 118]),
   midi.NoteOnEvent(tick=15, channel=0, data=[86, 0]),
   midi.NoteOnEvent(tick=0, channel=0, data=[50, 0]),
   midi.NoteOnEvent(tick=5, channel=0, data=[81, 98]),
   midi.NoteOnEvent(tick=0, channel=0, data=[60, 95]),
   midi.ControlChangeEvent(tick=5, channel=0, data=[7, 118]),
   midi.NoteOnEvent(tick=10, channel=0, data=[84, 0]),
   midi.NoteOnEvent(tick=5, channel=0, data=[53, 0]),
   midi.NoteOnEvent(tick=0, channel=0, data=[77, 96]),
   midi.NoteOnEvent(tick=0, channel=0, data=[53, 95]),
   midi.ControlChangeEvent(tick=5, channel=0, data=[7, 119]),
   midi.NoteOnEvent(tick=10, channel=0, data=[81, 0]),
   midi.NoteOnEvent(tick=0, channel=0, data=[60, 0]),
   midi.NoteOnEvent(tick=5, channel=0, data=[81, 94]),
   midi.NoteOnEvent(tick=0, channel=0, data=[50, 95]),
   midi.ControlChangeEvent(tick=0, channel=0, data=[7, 120]),
   midi.NoteOnEvent(tick=15, channel=0, data=[77, 0]),
   midi.NoteOnEvent(tick=0, channel=0, data=[53, 0]),
   midi.NoteOnEvent(tick=5, channel=0, data=[84, 102]),
   midi.NoteOnEvent(tick=0, channel=0, data=[43, 97]),
   midi.ControlChangeEvent(tick=0, channel=0, data=[7, 120]),
   midi.ControlChangeEvent(tick=10, channel=0, data=[7, 120]),
   midi.NoteOnEvent(tick=5, channel=0, data=[81, 0]),
   midi.NoteOnEvent(tick=0, channel=0, data=[50, 0]),
   midi.NoteOnEvent(tick=5, channel=0, data=[86, 92]),
   midi.NoteOnEvent(tick=0, channel=0, data=[50, 97]),
   midi.ControlChangeEvent(tick=10, channel=0, data=[7, 121]),
   midi.NoteOnEvent(tick=5, channel=0, data=[84, 0]),
   midi.NoteOnEvent(tick=0, channel=0, data=[43, 0]),
   midi.NoteOnEvent(tick=5, channel=0, data=[84, 97]),
   midi.NoteOnEvent(tick=0, channel=0, data=[53, 97]),
   midi.NoteOnEvent(tick=15, channel=0, data=[86, 0]),
   midi.NoteOnEvent(tick=0, channel=0, data=[50, 0]),
   midi.NoteOnEvent(tick=5, channel=0, data=[81, 97]),
   midi.NoteOnEvent(tick=0, channel=0, data=[60, 97]),
   midi.NoteOnEvent(tick=15, channel=0, data=[84, 0]),
   midi.NoteOnEvent(tick=5, channel=0, data=[53, 0]),
   midi.NoteOnEvent(tick=0, channel=0, data=[77, 103]),
   midi.NoteOnEvent(tick=0, channel=0, data=[53, 97]),
   midi.NoteOnEvent(tick=15, channel=0, data=[81, 0]),
   midi.NoteOnEvent(tick=0, channel=0, data=[60, 0]),
   midi.NoteOnEvent(tick=5, channel=0, data=[81, 96]),
   midi.NoteOnEvent(tick=0, channel=0, data=[50, 97]),
   midi.NoteOnEvent(tick=15, channel=0, data=[77, 0]),
   midi.NoteOnEvent(tick=0, channel=0, data=[53, 0]),
   midi.NoteOnEvent(tick=5, channel=0, data=[89, 107]),
   midi.NoteOnEvent(tick=0, channel=0, data=[43, 97]),
   midi.NoteOnEvent(tick=15, channel=0, data=[81, 0]),
   midi.NoteOnEvent(tick=0, channel=0, data=[50, 0]),
   midi.NoteOnEvent(tick=5, channel=0, data=[91, 106]),
   midi.NoteOnEvent(tick=0, channel=0, data=[50, 98]),
   midi.NoteOnEvent(tick=10, channel=0, data=[89, 0]),
   midi.NoteOnEvent(tick=5, channel=0, data=[43, 0]),
   midi.NoteOnEvent(tick=5, channel=0, data=[89, 99]),
   midi.NoteOnEvent(tick=0, channel=0, data=[53, 98]),
   midi.NoteOnEvent(tick=15, channel=0, data=[91, 0]),
   midi.NoteOnEvent(tick=0, channel=0, data=[50, 0]),
   midi.NoteOnEvent(tick=5, channel=0, data=[84, 105]),
   midi.NoteOnEvent(tick=0, channel=0, data=[60, 98]),
   midi.NoteOnEvent(tick=15, channel=0, data=[89, 0]),
   midi.NoteOnEvent(tick=0, channel=0, data=[53, 0]),
   midi.NoteOnEvent(tick=5, channel=0, data=[81, 106]),
   midi.NoteOnEvent(tick=0, channel=0, data=[53, 98]),
   midi.NoteOnEvent(tick=15, channel=0, data=[84, 0]),
   midi.NoteOnEvent(tick=0, channel=0, data=[60, 0]),
   midi.NoteOnEvent(tick=5, channel=0, data=[84, 106]),
   midi.NoteOnEvent(tick=0, channel=0, data=[50, 98]),
   midi.NoteOnEvent(tick=15, channel=0, data=[81, 0]),
   midi.NoteOnEvent(tick=0, channel=0, data=[53, 0]),
   midi.NoteOnEvent(tick=5, channel=0, data=[89, 106]),
   midi.NoteOnEvent(tick=5, channel=0, data=[43, 98]),
   midi.NoteOnEvent(tick=10, channel=0, data=[84, 0]),
   midi.NoteOnEvent(tick=0, channel=0, data=[50, 0]),
   midi.NoteOnEvent(tick=5, channel=0, data=[91, 105]),
   midi.NoteOnEvent(tick=0, channel=0, data=[50, 98]),
   midi.NoteOnEvent(tick=10, channel=0, data=[89, 0]),
   midi.NoteOnEvent(tick=5, channel=0, data=[43, 0]),
   midi.NoteOnEvent(tick=5, channel=0, data=[89, 104]),
   midi.NoteOnEvent(tick=0, channel=0, data=[53, 98]),
   midi.NoteOnEvent(tick=10, channel=0, data=[50, 0]),
   midi.NoteOnEvent(tick=5, channel=0, data=[91, 0]),
   midi.NoteOnEvent(tick=5, channel=0, data=[84, 103]),
   midi.NoteOnEvent(tick=0, channel=0, data=[60, 98]),
   midi.NoteOnEvent(tick=15, channel=0, data=[89, 0]),
   midi.NoteOnEvent(tick=0, channel=0, data=[53, 0]),
   midi.NoteOnEvent(tick=0, channel=0, data=[81, 107]),
   midi.NoteOnEvent(tick=0, channel=0, data=[53, 98]),
   midi.NoteOnEvent(tick=15, channel=0, data=[60, 0]),
   midi.NoteOnEvent(tick=5, channel=0, data=[84, 0]),
   midi.NoteOnEvent(tick=5, channel=0, data=[84, 106]),
   midi.NoteOnEvent(tick=0, channel=0, data=[50, 98]),
   midi.NoteOnEvent(tick=10, channel=0, data=[81, 0]),
   midi.NoteOnEvent(tick=0, channel=0, data=[53, 0]),
   midi.NoteOnEvent(tick=10, channel=0, data=[93, 106]),
   midi.NoteOnEvent(tick=0, channel=0, data=[31, 106]),
   midi.NoteOnEvent(tick=15, channel=0, data=[84, 0]),
   midi.NoteOnEvent(tick=0, channel=0, data=[50, 0]),
   midi.ControlChangeEvent(tick=5, channel=0, data=[64, 127]),
   midi.NoteOnEvent(tick=0, channel=0, data=[43, 106]),
   midi.NoteOnEvent(tick=20, channel=0, data=[48, 106]),
   midi.NoteOnEvent(tick=10, channel=0, data=[43, 0]),
   midi.NoteOnEvent(tick=5, channel=0, data=[50, 106]),
   midi.NoteOnEvent(tick=15, channel=0, data=[31, 0]),
   midi.NoteOnEvent(tick=0, channel=0, data=[48, 0]),
   midi.NoteOnEvent(tick=0, channel=0, data=[93, 0]),
   midi.NoteOnEvent(tick=5, channel=0, data=[53, 106]),
   midi.NoteOnEvent(tick=15, channel=0, data=[50, 0]),
   midi.NoteOnEvent(tick=5, channel=0, data=[57, 106]),
   midi.NoteOnEvent(tick=20, channel=0, data=[53, 0]),
   midi.NoteOnEvent(tick=5, channel=0, data=[48, 106]),
   midi.NoteOnEvent(tick=10, channel=0, data=[50, 106]),
   midi.NoteOnEvent(tick=5, channel=0, data=[57, 0]),
   midi.NoteOnEvent(tick=10, channel=0, data=[53, 106]),
   midi.NoteOnEvent(tick=5, channel=0, data=[48, 0]),
   midi.NoteOnEvent(tick=15, channel=0, data=[57, 106]),
   midi.NoteOnEvent(tick=5, channel=0, data=[50, 0]),
   midi.NoteOnEvent(tick=10, channel=0, data=[60, 106]),
   midi.NoteOnEvent(tick=5, channel=0, data=[53, 0]),
   midi.NoteOnEvent(tick=10, channel=0, data=[62, 106]),
   midi.NoteOnEvent(tick=5, channel=0, data=[57, 0]),
   midi.NoteOnEvent(tick=10, channel=0, data=[65, 106]),
   midi.NoteOnEvent(tick=5, channel=0, data=[60, 0]),
   midi.NoteOnEvent(tick=10, channel=0, data=[69, 106]),
   midi.NoteOnEvent(tick=5, channel=0, data=[62, 0]),
   midi.NoteOnEvent(tick=10, channel=0, data=[60, 106]),
   midi.NoteOnEvent(tick=5, channel=0, data=[65, 0]),
   midi.NoteOnEvent(tick=5, channel=0, data=[62, 106]),
   midi.NoteOnEvent(tick=10, channel=0, data=[69, 0]),
   midi.NoteOnEvent(tick=5, channel=0, data=[65, 106]),
   midi.NoteOnEvent(tick=5, channel=0, data=[60, 0]),
   midi.NoteOnEvent(tick=10, channel=0, data=[69, 106]),
   midi.NoteOnEvent(tick=5, channel=0, data=[62, 0]),
   midi.NoteOnEvent(tick=5, channel=0, data=[72, 103]),
   midi.NoteOnEvent(tick=5, channel=0, data=[65, 0]),
   midi.NoteOnEvent(tick=10, channel=0, data=[74, 101]),
   midi.NoteOnEvent(tick=5, channel=0, data=[69, 0]),
   midi.NoteOnEvent(tick=15, channel=0, data=[77, 100]),
   midi.NoteOnEvent(tick=5, channel=0, data=[72, 0]),
   midi.NoteOnEvent(tick=10, channel=0, data=[81, 98]),
   midi.NoteOnEvent(tick=5, channel=0, data=[74, 0]),
   midi.NoteOnEvent(tick=15, channel=0, data=[72, 91]),
   midi.NoteOnEvent(tick=5, channel=0, data=[77, 0]),
   midi.NoteOnEvent(tick=5, channel=0, data=[74, 90]),
   midi.NoteOnEvent(tick=10, channel=0, data=[81, 0]),
   midi.NoteOnEvent(tick=0, channel=0, data=[77, 90]),
   midi.NoteOnEvent(tick=5, channel=0, data=[72, 0]),
   midi.NoteOnEvent(tick=10, channel=0, data=[81, 90]),
   midi.NoteOnEvent(tick=5, channel=0, data=[74, 0]),
   midi.NoteOnEvent(tick=5, channel=0, data=[84, 90]),
   midi.NoteOnEvent(tick=5, channel=0, data=[77, 0]),
   midi.NoteOnEvent(tick=5, channel=0, data=[86, 88]),
   midi.NoteOnEvent(tick=15, channel=0, data=[89, 88]),
   midi.NoteOnEvent(tick=5, channel=0, data=[81, 0]),
   midi.NoteOnEvent(tick=10, channel=0, data=[84, 0]),
   midi.NoteOnEvent(tick=5, channel=0, data=[93, 88]),
   midi.NoteOnEvent(tick=5, channel=0, data=[86, 0]),
   midi.NoteOnEvent(tick=25, channel=0, data=[79, 76]),
   midi.NoteOnEvent(tick=0, channel=0, data=[77, 75]),
   midi.NoteOnEvent(tick=0, channel=0, data=[74, 75]),
   midi.NoteOnEvent(tick=0, channel=0, data=[71, 75]),
   midi.NoteOnEvent(tick=5, channel=0, data=[89, 0]),
   midi.NoteOnEvent(tick=0, channel=0, data=[86, 78]),
   midi.NoteOnEvent(tick=0, channel=0, data=[89, 81]),
   midi.NoteOnEvent(tick=0, channel=0, data=[91, 83]),
   midi.NoteOnEvent(tick=0, channel=0, data=[98, 86]),
   midi.NoteOnEvent(tick=1, channel=0, data=[89, 0]),
   midi.NoteOnEvent(tick=14, channel=0, data=[93, 0]),
   midi.ControlChangeEvent(tick=40, channel=0, data=[64, 0]),
   midi.NoteOnEvent(tick=20, channel=0, data=[98, 0]),
   midi.NoteOnEvent(tick=0, channel=0, data=[91, 0]),
   midi.NoteOnEvent(tick=5, channel=0, data=[86, 0]),
   midi.NoteOnEvent(tick=5, channel=0, data=[71, 0]),
   midi.NoteOnEvent(tick=10, channel=0, data=[74, 0]),
   midi.NoteOnEvent(tick=10, channel=0, data=[77, 0]),
   midi.NoteOnEvent(tick=10, channel=0, data=[79, 0]),
   midi.ControlChangeEvent(tick=1760, channel=0, data=[7, 120]),
   midi.ControlChangeEvent(tick=120, channel=0, data=[7, 120]),
   midi.ControlChangeEvent(tick=10, channel=0, data=[7, 119]),
   midi.ControlChangeEvent(tick=5, channel=0, data=[7, 118]),
   midi.ControlChangeEvent(tick=15, channel=0, data=[7, 118]),
   midi.ControlChangeEvent(tick=20, channel=0, data=[7, 116]),
   midi.ControlChangeEvent(tick=20, channel=0, data=[7, 116]),
   midi.ControlChangeEvent(tick=10, channel=0, data=[7, 116]),
   midi.ControlChangeEvent(tick=10, channel=0, data=[7, 116]),
   midi.ControlChangeEvent(tick=10, channel=0, data=[7, 115]),
   midi.ControlChangeEvent(tick=10, channel=0, data=[7, 115]),
   midi.ControlChangeEvent(tick=15, channel=0, data=[7, 114]),
   midi.ControlChangeEvent(tick=10, channel=0, data=[7, 112]),
   midi.ControlChangeEvent(tick=10, channel=0, data=[7, 112]),
   midi.ControlChangeEvent(tick=15, channel=0, data=[7, 112]),
   midi.ControlChangeEvent(tick=240, channel=0, data=[7, 112]),
   midi.ControlChangeEvent(tick=0, channel=0, data=[64, 127]),
   midi.NoteOnEvent(tick=0, channel=0, data=[48, 78]),
   midi.NoteOnEvent(tick=0, channel=0, data=[72, 95]),
   midi.NoteOnEvent(tick=40, channel=0, data=[55, 78]),
   midi.NoteOnEvent(tick=35, channel=0, data=[48, 0]),
   midi.NoteOnEvent(tick=5, channel=0, data=[64, 78]),
   midi.NoteOnEvent(tick=35, channel=0, data=[55, 0]),
   midi.NoteOnEvent(tick=5, channel=0, data=[54, 78]),
   midi.NoteOnEvent(tick=0, channel=0, data=[71, 99]),
   midi.ControlChangeEvent(tick=5, channel=0, data=[7, 112]),
   midi.NoteOnEvent(tick=5, channel=0, data=[72, 0]),
   midi.ControlChangeEvent(tick=0, channel=0, data=[7, 112]),
   midi.ControlChangeEvent(tick=20, channel=0, data=[7, 114]),
   midi.NoteOnEvent(tick=0, channel=0, data=[72, 98]),
   midi.NoteOnEvent(tick=5, channel=0, data=[64, 0]),
   midi.NoteOnEvent(tick=5, channel=0, data=[71, 0]),
   midi.NoteOnEvent(tick=0, channel=0, data=[55, 78]),
   midi.ControlChangeEvent(tick=0, channel=0, data=[7, 115]),
   midi.ControlChangeEvent(tick=10, channel=0, data=[7, 115]),
   midi.NoteOnEvent(tick=5, channel=0, data=[71, 97]),
   midi.ControlChangeEvent(tick=5, channel=0, data=[7, 116]),
   midi.NoteOnEvent(tick=5, channel=0, data=[72, 0]),
   midi.ControlChangeEvent(tick=0, channel=0, data=[7, 116]),
   midi.ControlChangeEvent(tick=5, channel=0, data=[7, 116]),
   midi.NoteOnEvent(tick=5, channel=0, data=[54, 0]),
   midi.ControlChangeEvent(tick=0, channel=0, data=[7, 116]),
   midi.NoteOnEvent(tick=5, channel=0, data=[64, 78]),
   midi.ControlChangeEvent(tick=0, channel=0, data=[7, 118]),
   midi.NoteOnEvent(tick=0, channel=0, data=[69, 97]),
   midi.NoteOnEvent(tick=5, channel=0, data=[71, 0]),
   midi.ControlChangeEvent(tick=0, channel=0, data=[7, 118]),
   midi.ControlChangeEvent(tick=10, channel=0, data=[7, 119]),
   midi.NoteOnEvent(tick=5, channel=0, data=[67, 91]),
   midi.NoteOnEvent(tick=5, channel=0, data=[69, 0]),
   midi.ControlChangeEvent(tick=0, channel=0, data=[7, 120]),
   midi.NoteOnEvent(tick=10, channel=0, data=[55, 0]),
   midi.NoteOnEvent(tick=5, channel=0, data=[48, 78]),
   midi.NoteOnEvent(tick=5, channel=0, data=[69, 92]),
   midi.NoteOnEvent(tick=5, channel=0, data=[67, 0]),
   midi.ControlChangeEvent(tick=0, channel=0, data=[64, 0]),
   midi.ControlChangeEvent(tick=5, channel=0, data=[7, 119]),
   midi.ControlChangeEvent(tick=10, channel=0, data=[7, 118]),
   midi.ControlChangeEvent(tick=5, channel=0, data=[7, 118]),
   midi.NoteOnEvent(tick=5, channel=0, data=[64, 0]),
   midi.ControlChangeEvent(tick=5, channel=0, data=[64, 127]),
   midi.NoteOnEvent(tick=0, channel=0, data=[57, 78]),
   midi.ControlChangeEvent(tick=0, channel=0, data=[7, 116]),
   midi.ControlChangeEvent(tick=10, channel=0, data=[7, 116]),
   midi.NoteOnEvent(tick=10, channel=0, data=[76, 94]),
   midi.NoteOnEvent(tick=5, channel=0, data=[69, 0]),
   midi.ControlChangeEvent(tick=0, channel=0, data=[7, 116]),
   midi.NoteOnEvent(tick=10, channel=0, data=[48, 0]),
   midi.ControlChangeEvent(tick=0, channel=0, data=[7, 116]),
   midi.NoteOnEvent(tick=5, channel=0, data=[65, 78]),
   midi.ControlChangeEvent(tick=5, channel=0, data=[7, 115]),
   midi.ControlChangeEvent(tick=15, channel=0, data=[7, 115]),
   midi.ControlChangeEvent(tick=10, channel=0, data=[7, 114]),
   midi.NoteOnEvent(tick=5, channel=0, data=[57, 0]),
   midi.NoteOnEvent(tick=0, channel=0, data=[76, 0]),
   midi.NoteOnEvent(tick=5, channel=0, data=[56, 78]),
   midi.NoteOnEvent(tick=0, channel=0, data=[74, 91]),
   midi.NoteOnEvent(tick=35, channel=0, data=[65, 0]),
   midi.NoteOnEvent(tick=5, channel=0, data=[60, 78]),
   midi.ControlChangeEvent(tick=0, channel=0, data=[7, 112]),
   midi.ControlChangeEvent(tick=15, channel=0, data=[7, 112]),
   midi.NoteOnEvent(tick=5, channel=0, data=[71, 91]),
   midi.NoteOnEvent(tick=5, channel=0, data=[74, 0]),
   midi.ControlChangeEvent(tick=0, channel=0, data=[7, 112]),
   midi.NoteOnEvent(tick=10, channel=0, data=[56, 0]),
   midi.NoteOnEvent(tick=5, channel=0, data=[65, 78]),
   midi.ControlChangeEvent(tick=20, channel=0, data=[7, 111]),
   midi.ControlChangeEvent(tick=10, channel=0, data=[7, 110]),
   midi.NoteOnEvent(tick=5, channel=0, data=[60, 0]),
   midi.ControlChangeEvent(tick=0, channel=0, data=[64, 0]),
   midi.ControlChangeEvent(tick=5, channel=0, data=[64, 127]),
   midi.NoteOnEvent(tick=0, channel=0, data=[48, 78]),
   midi.NoteOnEvent(tick=0, channel=0, data=[69, 91]),
   midi.ControlChangeEvent(tick=5, channel=0, data=[7, 110]),
   midi.NoteOnEvent(tick=5, channel=0, data=[71, 0]),
   midi.NoteOnEvent(tick=25, channel=0, data=[65, 0]),
   midi.NoteOnEvent(tick=0, channel=0, data=[55, 78]),
   midi.NoteOnEvent(tick=40, channel=0, data=[48, 0]),
   midi.NoteOnEvent(tick=5, channel=0, data=[63, 78]),
   midi.NoteOnEvent(tick=30, channel=0, data=[55, 0]),
   midi.NoteOnEvent(tick=10, channel=0, data=[64, 78]),
   midi.NoteOnEvent(tick=0, channel=0, data=[67, 88]),
   midi.NoteOnEvent(tick=10, channel=0, data=[69, 0]),
   midi.ControlChangeEvent(tick=15, channel=0, data=[64, 0]),
   midi.ControlChangeEvent(tick=5, channel=0, data=[64, 127]),
   midi.NoteOnEvent(tick=0, channel=0, data=[74, 84]),
   midi.NoteOnEvent(tick=0, channel=0, data=[72, 83]),
   midi.NoteOnEvent(tick=5, channel=0, data=[63, 0]),
   midi.NoteOnEvent(tick=0, channel=0, data=[50, 78]),
   midi.NoteOnEvent(tick=0, channel=0, data=[60, 78]),
   midi.NoteOnEvent(tick=0, channel=0, data=[78, 98]),
   midi.NoteOnEvent(tick=0, channel=0, data=[86, 93]),
   midi.NoteOnEvent(tick=5, channel=0, data=[67, 0]),
   midi.NoteOnEvent(tick=25, channel=0, data=[74, 0]),
   midi.NoteOnEvent(tick=0, channel=0, data=[86, 0]),
   midi.NoteOnEvent(tick=0, channel=0, data=[72, 0]),
   midi.NoteOnEvent(tick=0, channel=0, data=[78, 0]),
   midi.NoteOnEvent(tick=5, channel=0, data=[72, 93]),
   midi.NoteOnEvent(tick=0, channel=0, data=[74, 93]),
   midi.NoteOnEvent(tick=0, channel=0, data=[78, 93]),
   midi.NoteOnEvent(tick=0, channel=0, data=[83, 93]),
   midi.NoteOnEvent(tick=5, channel=0, data=[60, 0]),
   midi.NoteOnEvent(tick=0, channel=0, data=[64, 0]),
   midi.NoteOnEvent(tick=0, channel=0, data=[60, 78]),
   midi.NoteOnEvent(tick=0, channel=0, data=[66, 78]),
   midi.NoteOnEvent(tick=30, channel=0, data=[74, 0]),
   midi.NoteOnEvent(tick=5, channel=0, data=[50, 0]),
   midi.NoteOnEvent(tick=0, channel=0, data=[83, 0]),
   midi.NoteOnEvent(tick=0, channel=0, data=[78, 0]),
   midi.NoteOnEvent(tick=0, channel=0, data=[72, 0]),
   midi.NoteOnEvent(tick=0, channel=0, data=[60, 0]),
   midi.NoteOnEvent(tick=10, channel=0, data=[69, 91]),
   midi.NoteOnEvent(tick=5, channel=0, data=[43, 78]),
   midi.NoteOnEvent(tick=0, channel=0, data=[71, 91]),
   midi.ControlChangeEvent(tick=0, channel=0, data=[64, 0]),
   midi.ControlChangeEvent(tick=5, channel=0, data=[64, 127]),
   midi.NoteOnEvent(tick=0, channel=0, data=[74, 91]),
   midi.NoteOnEvent(tick=5, channel=0, data=[81, 91]),
   midi.NoteOnEvent(tick=15, channel=0, data=[66, 0]),
   midi.NoteOnEvent(tick=10, channel=0, data=[50, 78]),
   midi.NoteOnEvent(tick=40, channel=0, data=[69, 0]),
   midi.NoteOnEvent(tick=0, channel=0, data=[43, 0]),
   midi.NoteOnEvent(tick=0, channel=0, data=[58, 78]),
   midi.NoteOnEvent(tick=15, channel=0, data=[71, 0]),
   midi.NoteOnEvent(tick=5, channel=0, data=[74, 0]),
   midi.NoteOnEvent(tick=5, channel=0, data=[81, 0]),
   midi.NoteOnEvent(tick=10, channel=0, data=[50, 0]),
   midi.NoteOnEvent(tick=5, channel=0, data=[59, 78]),
   midi.NoteOnEvent(tick=0, channel=0, data=[67, 78]),
   midi.NoteOnEvent(tick=0, channel=0, data=[79, 89]),
   midi.NoteOnEvent(tick=35, channel=0, data=[58, 0]),
   midi.NoteOnEvent(tick=0, channel=0, data=[62, 78]),
   midi.NoteOnEvent(tick=40, channel=0, data=[59, 0]),
   midi.NoteOnEvent(tick=0, channel=0, data=[67, 0]),
   midi.NoteOnEvent(tick=0, channel=0, data=[67, 78]),
   midi.NoteOnEvent(tick=15, channel=0, data=[67, 0]),
   midi.NoteOnEvent(tick=15, channel=0, data=[79, 0]),
   midi.NoteOnEvent(tick=5, channel=0, data=[62, 0]),
   midi.NoteOnEvent(tick=10, channel=0, data=[84, 88]),
   midi.NoteOnEvent(tick=0, channel=0, data=[72, 87]),
   midi.NoteOnEvent(tick=0, channel=0, data=[48, 85]),
   midi.ControlChangeEvent(tick=0, channel=0, data=[7, 110]),
   midi.ControlChangeEvent(tick=0, channel=0, data=[64, 0]),
   midi.ControlChangeEvent(tick=40, channel=0, data=[64, 127]),
   midi.NoteOnEvent(tick=0, channel=0, data=[55, 85]),
   midi.NoteOnEvent(tick=10, channel=0, data=[84, 0]),
   midi.NoteOnEvent(tick=5, channel=0, data=[72, 0]),
   midi.NoteOnEvent(tick=0, channel=0, data=[48, 0]),
   midi.ControlChangeEvent(tick=10, channel=0, data=[7, 111]),
   midi.NoteOnEvent(tick=15, channel=0, data=[63, 85]),
   midi.NoteOnEvent(tick=15, channel=0, data=[55, 0]),
   midi.NoteOnEvent(tick=25, channel=0, data=[70, 94]),
   midi.NoteOnEvent(tick=0, channel=0, data=[82, 94]),
   midi.NoteOnEvent(tick=0, channel=0, data=[43, 85]),
   midi.NoteOnEvent(tick=15, channel=0, data=[63, 0]),
   midi.NoteOnEvent(tick=10, channel=0, data=[70, 0]),
   midi.NoteOnEvent(tick=0, channel=0, data=[82, 0]),
   midi.NoteOnEvent(tick=10, channel=0, data=[84, 102]),
   midi.NoteOnEvent(tick=0, channel=0, data=[72, 98]),
   midi.NoteOnEvent(tick=5, channel=0, data=[50, 85]),
   midi.NoteOnEvent(tick=15, channel=0, data=[72, 0]),
   midi.NoteOnEvent(tick=0, channel=0, data=[43, 0]),
   midi.NoteOnEvent(tick=0, channel=0, data=[84, 0]),
   midi.NoteOnEvent(tick=5, channel=0, data=[70, 102]),
   midi.NoteOnEvent(tick=0, channel=0, data=[82, 99]),
   midi.NoteOnEvent(tick=15, channel=0, data=[82, 0]),
   midi.NoteOnEvent(tick=0, channel=0, data=[70, 0]),
   midi.NoteOnEvent(tick=5, channel=0, data=[69, 103]),
   midi.NoteOnEvent(tick=0, channel=0, data=[81, 99]),
   midi.NoteOnEvent(tick=0, channel=0, data=[58, 85]),
   midi.NoteOnEvent(tick=10, channel=0, data=[81, 0]),
   midi.NoteOnEvent(tick=5, channel=0, data=[50, 0]),
   midi.NoteOnEvent(tick=0, channel=0, data=[69, 0]),
   midi.NoteOnEvent(tick=5, channel=0, data=[67, 101]),
   midi.NoteOnEvent(tick=0, channel=0, data=[79, 106]),
   midi.NoteOnEvent(tick=10, channel=0, data=[67, 0]),
   midi.NoteOnEvent(tick=5, channel=0, data=[79, 0]),
   midi.ControlChangeEvent(tick=0, channel=0, data=[64, 0]),
   midi.ControlChangeEvent(tick=5, channel=0, data=[64, 127]),
   midi.NoteOnEvent(tick=0, channel=0, data=[70, 102]),
   midi.NoteOnEvent(tick=0, channel=0, data=[82, 105]),
   midi.NoteOnEvent(tick=0, channel=0, data=[39, 90]),
   midi.NoteOnEvent(tick=15, channel=0, data=[82, 0]),
   midi.NoteOnEvent(tick=0, channel=0, data=[58, 0]),
   midi.NoteOnEvent(tick=0, channel=0, data=[70, 0]),
   midi.NoteOnEvent(tick=15, channel=0, data=[46, 90]),
   midi.NoteOnEvent(tick=25, channel=0, data=[39, 0]),
   midi.NoteOnEvent(tick=5, channel=0, data=[77, 105]),
   midi.NoteOnEvent(tick=0, channel=0, data=[89, 105]),
   midi.NoteOnEvent(tick=0, channel=0, data=[49, 90]),
   midi.NoteOnEvent(tick=25, channel=0, data=[46, 0]),
   midi.NoteOnEvent(tick=5, channel=0, data=[55, 90]),
   midi.NoteOnEvent(tick=10, channel=0, data=[77, 0]),
   midi.NoteOnEvent(tick=0, channel=0, data=[89, 0]),
   midi.NoteOnEvent(tick=15, channel=0, data=[49, 0]),
   midi.NoteOnEvent(tick=5, channel=0, data=[87, 104]),
   midi.NoteOnEvent(tick=0, channel=0, data=[75, 105]),
   midi.NoteOnEvent(tick=0, channel=0, data=[58, 90]),
   midi.NoteOnEvent(tick=15, channel=0, data=[87, 0]),
   midi.NoteOnEvent(tick=5, channel=0, data=[55, 0]),
   midi.NoteOnEvent(tick=0, channel=0, data=[75, 0]),
   midi.NoteOnEvent(tick=10, channel=0, data=[61, 90]),
   midi.NoteOnEvent(tick=20, channel=0, data=[58, 0]),
   midi.NoteOnEvent(tick=10, channel=0, data=[84, 99]),
   midi.NoteOnEvent(tick=0, channel=0, data=[72, 97]),
   midi.NoteOnEvent(tick=0, channel=0, data=[67, 90]),
   midi.NoteOnEvent(tick=20, channel=0, data=[72, 0]),
   midi.NoteOnEvent(tick=0, channel=0, data=[84, 0]),
   midi.NoteOnEvent(tick=5, channel=0, data=[61, 0]),
   midi.NoteOnEvent(tick=30, channel=0, data=[67, 0]),
   midi.ControlChangeEvent(tick=0, channel=0, data=[64, 0]),
   midi.ControlChangeEvent(tick=5, channel=0, data=[64, 127]),
   midi.NoteOnEvent(tick=0, channel=0, data=[70, 89]),
   midi.NoteOnEvent(tick=0, channel=0, data=[44, 90]),
   midi.NoteOnEvent(tick=5, channel=0, data=[72, 94]),
   midi.NoteOnEvent(tick=5, channel=0, data=[75, 90]),
   midi.NoteOnEvent(tick=10, channel=0, data=[82, 89]),
   midi.NoteOnEvent(tick=15, channel=0, data=[51, 90]),
   midi.NoteOnEvent(tick=20, channel=0, data=[44, 0]),
   midi.NoteOnEvent(tick=20, channel=0, data=[54, 90]),
   midi.NoteOnEvent(tick=15, channel=0, data=[51, 0]),
   midi.NoteOnEvent(tick=30, channel=0, data=[80, 98]),
   midi.NoteOnEvent(tick=0, channel=0, data=[68, 93]),
   midi.NoteOnEvent(tick=0, channel=0, data=[60, 90]),
   midi.NoteOnEvent(tick=5, channel=0, data=[75, 0]),
   midi.NoteOnEvent(tick=0, channel=0, data=[70, 0]),
   midi.NoteOnEvent(tick=0, channel=0, data=[72, 0]),
   midi.NoteOnEvent(tick=10, channel=0, data=[54, 0]),
   midi.ControlChangeEvent(tick=0, channel=0, data=[64, 0]),
   midi.NoteOnEvent(tick=5, channel=0, data=[82, 0]),
   midi.NoteOnEvent(tick=10, channel=0, data=[80, 0]),
   midi.NoteOnEvent(tick=0, channel=0, data=[68, 0]),
   midi.ControlChangeEvent(tick=5, channel=0, data=[64, 127]),
   midi.NoteOnEvent(tick=0, channel=0, data=[74, 97]),
   midi.NoteOnEvent(tick=0, channel=0, data=[50, 90]),
   midi.NoteOnEvent(tick=0, channel=0, data=[86, 97]),
   midi.NoteOnEvent(tick=15, channel=0, data=[60, 0]),
   midi.NoteOnEvent(tick=20, channel=0, data=[74, 0]),
   midi.NoteOnEvent(tick=0, channel=0, data=[86, 0]),
   midi.NoteOnEvent(tick=5, channel=0, data=[78, 97]),
   midi.NoteOnEvent(tick=0, channel=0, data=[90, 97]),
   midi.NoteOnEvent(tick=0, channel=0, data=[60, 90]),
   midi.NoteOnEvent(tick=0, channel=0, data=[70, 90]),
   midi.NoteOnEvent(tick=0, channel=0, data=[66, 90]),
   midi.NoteOnEvent(tick=15, channel=0, data=[50, 0]),
   midi.NoteOnEvent(tick=20, channel=0, data=[78, 0]),
   midi.NoteOnEvent(tick=0, channel=0, data=[90, 0]),
   midi.NoteOnEvent(tick=10, channel=0, data=[81, 96]),
   midi.NoteOnEvent(tick=0, channel=0, data=[43, 90]),
   midi.NoteOnEvent(tick=0, channel=0, data=[83, 91]),
   midi.ControlChangeEvent(tick=5, channel=0, data=[64, 0]),
   midi.ControlChangeEvent(tick=5, channel=0, data=[64, 127]),
   midi.NoteOnEvent(tick=0, channel=0, data=[86, 91]),
   midi.NoteOnEvent(tick=5, channel=0, data=[60, 0]),
   midi.NoteOnEvent(tick=0, channel=0, data=[66, 0]),
   midi.NoteOnEvent(tick=0, channel=0, data=[70, 0]),
   midi.NoteOnEvent(tick=5, channel=0, data=[93, 94]),
   midi.NoteOnEvent(tick=10, channel=0, data=[83, 0]),
   midi.NoteOnEvent(tick=5, channel=0, data=[86, 0]),
   midi.NoteOnEvent(tick=5, channel=0, data=[50, 90]),
   midi.NoteOnEvent(tick=10, channel=0, data=[81, 0]),
   midi.NoteOnEvent(tick=0, channel=0, data=[93, 0]),
   midi.NoteOnEvent(tick=5, channel=0, data=[43, 0]),
   midi.NoteOnEvent(tick=25, channel=0, data=[58, 90]),
   midi.NoteOnEvent(tick=15, channel=0, data=[50, 0]),
   midi.NoteOnEvent(tick=25, channel=0, data=[79, 91]),
   midi.NoteOnEvent(tick=0, channel=0, data=[91, 90]),
   midi.NoteOnEvent(tick=0, channel=0, data=[59, 90]),
   midi.NoteOnEvent(tick=10, channel=0, data=[58, 0]),
   midi.NoteOnEvent(tick=20, channel=0, data=[62, 90]),
   midi.NoteOnEvent(tick=5, channel=0, data=[91, 0]),
   midi.NoteOnEvent(tick=10, channel=0, data=[59, 0]),
   midi.NoteOnEvent(tick=5, channel=0, data=[79, 0]),
   midi.NoteOnEvent(tick=20, channel=0, data=[67, 90]),
   midi.NoteOnEvent(tick=20, channel=0, data=[62, 0]),
   midi.NoteOnEvent(tick=30, channel=0, data=[72, 94]),
   midi.NoteOnEvent(tick=0, channel=0, data=[40, 90]),
   midi.ControlChangeEvent(tick=5, channel=0, data=[64, 0]),
   midi.NoteOnEvent(tick=5, channel=0, data=[67, 0]),
   midi.ControlChangeEvent(tick=30, channel=0, data=[64, 127]),
   midi.NoteOnEvent(tick=0, channel=0, data=[48, 90]),
   midi.NoteOnEvent(tick=15, channel=0, data=[40, 0]),
   midi.NoteOnEvent(tick=25, channel=0, data=[58, 90]),
   midi.NoteOnEvent(tick=10, channel=0, data=[48, 0]),
   midi.NoteOnEvent(tick=30, channel=0, data=[72, 0]),
   midi.NoteOnEvent(tick=0, channel=0, data=[69, 93]),
   midi.NoteOnEvent(tick=0, channel=0, data=[57, 90]),
   midi.NoteOnEvent(tick=10, channel=0, data=[58, 0]),
   midi.NoteOnEvent(tick=30, channel=0, data=[48, 90]),
   midi.NoteOnEvent(tick=0, channel=0, data=[71, 98]),
   midi.NoteOnEvent(tick=15, channel=0, data=[57, 0]),
   midi.NoteOnEvent(tick=25, channel=0, data=[69, 0]),
   midi.NoteOnEvent(tick=0, channel=0, data=[72, 97]),
   midi.NoteOnEvent(tick=0, channel=0, data=[41, 90]),
   midi.NoteOnEvent(tick=15, channel=0, data=[48, 0]),
   midi.NoteOnEvent(tick=15, channel=0, data=[71, 0]),
   midi.ControlChangeEvent(tick=5, channel=0, data=[64, 0]),
   midi.NoteOnEvent(tick=5, channel=0, data=[72, 0]),
   midi.ControlChangeEvent(tick=0, channel=0, data=[64, 127]),
   midi.NoteOnEvent(tick=0, channel=0, data=[76, 97]),
   midi.NoteOnEvent(tick=0, channel=0, data=[40, 90]),
   midi.NoteOnEvent(tick=10, channel=0, data=[41, 0]),
   midi.NoteOnEvent(tick=20, channel=0, data=[70, 86]),
   midi.NoteOnEvent(tick=10, channel=0, data=[48, 90]),
   midi.NoteOnEvent(tick=15, channel=0, data=[40, 0]),
   midi.NoteOnEvent(tick=5, channel=0, data=[74, 95]),
   midi.NoteOnEvent(tick=5, channel=0, data=[76, 0]),
   midi.NoteOnEvent(tick=0, channel=0, data=[70, 0]),
   midi.NoteOnEvent(tick=15, channel=0, data=[56, 90]),
   midi.NoteOnEvent(tick=10, channel=0, data=[64, 83]),
   midi.NoteOnEvent(tick=5, channel=0, data=[48, 0]),
   midi.NoteOnEvent(tick=25, channel=0, data=[64, 0]),
   midi.NoteOnEvent(tick=0, channel=0, data=[72, 94]),
   midi.NoteOnEvent(tick=0, channel=0, data=[57, 90]),
   midi.NoteOnEvent(tick=5, channel=0, data=[74, 0]),
   midi.NoteOnEvent(tick=10, channel=0, data=[56, 0]),
   midi.NoteOnEvent(tick=25, channel=0, data=[48, 90]),
   midi.NoteOnEvent(tick=10, channel=0, data=[57, 0]),
   midi.NoteOnEvent(tick=25, channel=0, data=[41, 90]),
   midi.NoteOnEvent(tick=20, channel=0, data=[48, 0]),
   midi.NoteOnEvent(tick=25, channel=0, data=[72, 0]),
   midi.NoteOnEvent(tick=0, channel=0, data=[74, 96]),
   midi.NoteOnEvent(tick=0, channel=0, data=[42, 90]),
   midi.ControlChangeEvent(tick=0, channel=0, data=[64, 0]),
   midi.NoteOnEvent(tick=10, channel=0, data=[41, 0]),
   midi.ControlChangeEvent(tick=30, channel=0, data=[64, 127]),
   midi.NoteOnEvent(tick=0, channel=0, data=[50, 90]),
   midi.NoteOnEvent(tick=10, channel=0, data=[42, 0]),
   midi.NoteOnEvent(tick=30, channel=0, data=[60, 90]),
   midi.NoteOnEvent(tick=15, channel=0, data=[50, 0]),
   midi.NoteOnEvent(tick=25, channel=0, data=[71, 95]),
   midi.NoteOnEvent(tick=0, channel=0, data=[59, 90]),
   midi.NoteOnEvent(tick=15, channel=0, data=[60, 0]),
   midi.NoteOnEvent(tick=10, channel=0, data=[74, 0]),
   midi.NoteOnEvent(tick=15, channel=0, data=[50, 90]),
   midi.NoteOnEvent(tick=5, channel=0, data=[73, 100]),
   midi.NoteOnEvent(tick=10, channel=0, data=[59, 0]),
   midi.NoteOnEvent(tick=25, channel=0, data=[71, 0]),
   midi.NoteOnEvent(tick=0, channel=0, data=[74, 99]),
   midi.NoteOnEvent(tick=0, channel=0, data=[43, 90]),
   midi.NoteOnEvent(tick=15, channel=0, data=[50, 0]),
   midi.NoteOnEvent(tick=0, channel=0, data=[73, 0]),
   midi.ControlChangeEvent(tick=15, channel=0, data=[64, 0]),
   midi.ControlChangeEvent(tick=10, channel=0, data=[64, 127]),
   midi.NoteOnEvent(tick=0, channel=0, data=[42, 90]),
   midi.NoteOnEvent(tick=0, channel=0, data=[78, 104]),
   midi.NoteOnEvent(tick=5, channel=0, data=[74, 0]),
   midi.NoteOnEvent(tick=5, channel=0, data=[43, 0]),
   midi.NoteOnEvent(tick=20, channel=0, data=[72, 80]),
   midi.NoteOnEvent(tick=10, channel=0, data=[50, 90]),
   midi.NoteOnEvent(tick=10, channel=0, data=[42, 0]),
   midi.NoteOnEvent(tick=0, channel=0, data=[78, 0]),
   midi.NoteOnEvent(tick=10, channel=0, data=[76, 98]),
   midi.NoteOnEvent(tick=15, channel=0, data=[72, 0]),
   midi.NoteOnEvent(tick=0, channel=0, data=[58, 90]),
   midi.NoteOnEvent(tick=15, channel=0, data=[50, 0]),
   midi.NoteOnEvent(tick=0, channel=0, data=[66, 91]),
   midi.NoteOnEvent(tick=30, channel=0, data=[76, 0]),
   midi.NoteOnEvent(tick=0, channel=0, data=[59, 90]),
   midi.NoteOnEvent(tick=0, channel=0, data=[74, 93]),
   midi.NoteOnEvent(tick=5, channel=0, data=[66, 0]),
   midi.NoteOnEvent(tick=5, channel=0, data=[58, 0]),
   midi.NoteOnEvent(tick=30, channel=0, data=[50, 90]),
   midi.NoteOnEvent(tick=15, channel=0, data=[59, 0]),
   midi.NoteOnEvent(tick=20, channel=0, data=[74, 0]),
   midi.NoteOnEvent(tick=0, channel=0, data=[43, 90]),
   midi.NoteOnEvent(tick=20, channel=0, data=[50, 0]),
   midi.ControlChangeEvent(tick=15, channel=0, data=[64, 0]),
   midi.ControlChangeEvent(tick=10, channel=0, data=[64, 127]),
   midi.NoteOnEvent(tick=0, channel=0, data=[76, 96]),
   midi.NoteOnEvent(tick=0, channel=0, data=[44, 90]),
   midi.NoteOnEvent(tick=10, channel=0, data=[43, 0]),
   midi.NoteOnEvent(tick=30, channel=0, data=[52, 90]),
   midi.NoteOnEvent(tick=15, channel=0, data=[44, 0]),
   midi.NoteOnEvent(tick=25, channel=0, data=[62, 90]),
   midi.NoteOnEvent(tick=15, channel=0, data=[52, 0]),
   midi.NoteOnEvent(tick=25, channel=0, data=[72, 98]),
   midi.NoteOnEvent(tick=0, channel=0, data=[60, 90]),
   midi.NoteOnEvent(tick=15, channel=0, data=[62, 0]),
   midi.NoteOnEvent(tick=0, channel=0, data=[76, 0]),
   midi.NoteOnEvent(tick=25, channel=0, data=[52, 90]),
   midi.NoteOnEvent(tick=0, channel=0, data=[76, 102]),
   midi.NoteOnEvent(tick=5, channel=0, data=[72, 0]),
   midi.NoteOnEvent(tick=5, channel=0, data=[60, 0]),
   midi.NoteOnEvent(tick=30, channel=0, data=[45, 90]),
   midi.NoteOnEvent(tick=0, channel=0, data=[84, 107]),
   midi.NoteOnEvent(tick=5, channel=0, data=[76, 0]),
   midi.NoteOnEvent(tick=10, channel=0, data=[52, 0]),
   midi.ControlChangeEvent(tick=20, channel=0, data=[64, 0]),
   midi.ControlChangeEvent(tick=5, channel=0, data=[64, 127]),
   midi.NoteOnEvent(tick=0, channel=0, data=[83, 106]),
   midi.NoteOnEvent(tick=0, channel=0, data=[47, 90]),
   midi.NoteOnEvent(tick=15, channel=0, data=[45, 0]),
   midi.NoteOnEvent(tick=15, channel=0, data=[84, 0]),
   midi.NoteOnEvent(tick=10, channel=0, data=[55, 90]),
   midi.NoteOnEvent(tick=20, channel=0, data=[81, 102]),
   midi.ControlChangeEvent(tick=0, channel=0, data=[7, 112]),
   midi.ControlChangeEvent(tick=10, channel=0, data=[7, 112]),
   midi.NoteOnEvent(tick=10, channel=0, data=[63, 90]),
   midi.ControlChangeEvent(tick=0, channel=0, data=[7, 112]),
   midi.NoteOnEvent(tick=20, channel=0, data=[47, 0]),
   midi.ControlChangeEvent(tick=5, channel=0, data=[7, 114]),
   midi.NoteOnEvent(tick=15, channel=0, data=[79, 104]),
   midi.NoteOnEvent(tick=0, channel=0, data=[64, 90]),
   midi.NoteOnEvent(tick=15, channel=0, data=[83, 0]),
   midi.ControlChangeEvent(tick=0, channel=0, data=[7, 115]),
   midi.NoteOnEvent(tick=5, channel=0, data=[55, 0]),
   midi.ControlChangeEvent(tick=10, channel=0, data=[7, 115]),
   midi.NoteOnEvent(tick=10, channel=0, data=[76, 95]),
   midi.NoteOnEvent(tick=0, channel=0, data=[55, 90]),
   midi.NoteOnEvent(tick=25, channel=0, data=[63, 0]),
   midi.NoteOnEvent(tick=10, channel=0, data=[81, 0]),
   midi.NoteOnEvent(tick=5, channel=0, data=[72, 94]),
   midi.NoteOnEvent(tick=0, channel=0, data=[48, 90]),
   midi.NoteOnEvent(tick=10, channel=0, data=[76, 0]),
   midi.NoteOnEvent(tick=0, channel=0, data=[55, 0]),
   midi.NoteOnEvent(tick=10, channel=0, data=[64, 0]),
   midi.NoteOnEvent(tick=0, channel=0, data=[79, 0]),
   midi.ControlChangeEvent(tick=0, channel=0, data=[7, 116]),
   midi.ControlChangeEvent(tick=10, channel=0, data=[64, 0]),
   midi.ControlChangeEvent(tick=10, channel=0, data=[64, 127]),
   midi.NoteOnEvent(tick=0, channel=0, data=[69, 93]),
   midi.NoteOnEvent(tick=0, channel=0, data=[50, 90]),
   midi.NoteOnEvent(tick=10, channel=0, data=[72, 0]),
   midi.NoteOnEvent(tick=5, channel=0, data=[48, 0]),
   midi.NoteOnEvent(tick=25, channel=0, data=[60, 90]),
   midi.NoteOnEvent(tick=10, channel=0, data=[50, 0]),
   midi.NoteOnEvent(tick=30, channel=0, data=[67, 87]),
   midi.NoteOnEvent(tick=15, channel=0, data=[60, 0]),
   midi.NoteOnEvent(tick=25, channel=0, data=[69, 0]),
   midi.NoteOnEvent(tick=0, channel=0, data=[74, 93]),
   midi.NoteOnEvent(tick=0, channel=0, data=[66, 82]),
   midi.NoteOnEvent(tick=15, channel=0, data=[67, 0]),
   midi.NoteOnEvent(tick=45, channel=0, data=[71, 91]),
   midi.ControlChangeEvent(tick=15, channel=0, data=[64, 0]),
   midi.NoteOnEvent(tick=5, channel=0, data=[74, 0]),
   midi.ControlChangeEvent(tick=40, channel=0, data=[64, 127]),
   midi.NoteOnEvent(tick=0, channel=0, data=[69, 83]),
   midi.NoteOnEvent(tick=0, channel=0, data=[74, 88]),
   midi.NoteOnEvent(tick=0, channel=0, data=[43, 90]),
   midi.NoteOnEvent(tick=15, channel=0, data=[71, 0]),
   midi.NoteOnEvent(tick=5, channel=0, data=[66, 0]),
   midi.NoteOnEvent(tick=20, channel=0, data=[53, 90]),
   midi.NoteOnEvent(tick=20, channel=0, data=[43, 0]),
   midi.NoteOnEvent(tick=20, channel=0, data=[60, 85]),
   midi.NoteOnEvent(tick=10, channel=0, data=[53, 0]),
   midi.NoteOnEvent(tick=30, channel=0, data=[74, 0]),
   midi.NoteOnEvent(tick=0, channel=0, data=[67, 89]),
   midi.NoteOnEvent(tick=0, channel=0, data=[59, 80]),
   midi.NoteOnEvent(tick=15, channel=0, data=[60, 0]),
   midi.ControlChangeEvent(tick=35, channel=0, data=[64, 0]),
   midi.NoteOnEvent(tick=10, channel=0, data=[69, 0]),
   midi.NoteOnEvent(tick=40, channel=0, data=[67, 0]),
   midi.ControlChangeEvent(tick=20, channel=0, data=[64, 127]),
   midi.NoteOnEvent(tick=0, channel=0, data=[84, 96]),
   midi.NoteOnEvent(tick=0, channel=0, data=[72, 96]),
   midi.NoteOnEvent(tick=0, channel=0, data=[40, 83]),
   midi.NoteOnEvent(tick=5, channel=0, data=[59, 0]),
   midi.NoteOnEvent(tick=25, channel=0, data=[84, 0]),
   midi.NoteOnEvent(tick=0, channel=0, data=[40, 0]),
   midi.NoteOnEvent(tick=5, channel=0, data=[72, 0]),
   midi.NoteOnEvent(tick=5, channel=0, data=[60, 84]),
   midi.NoteOnEvent(tick=0, channel=0, data=[48, 84]),
   midi.NoteOnEvent(tick=0, channel=0, data=[58, 84]),
   midi.NoteOnEvent(tick=40, channel=0, data=[58, 0]),
   midi.NoteOnEvent(tick=0, channel=0, data=[48, 0]),
   midi.NoteOnEvent(tick=0, channel=0, data=[60, 0]),
   midi.NoteOnEvent(tick=0, channel=0, data=[60, 84]),
   midi.NoteOnEvent(tick=0, channel=0, data=[58, 84]),
   midi.NoteOnEvent(tick=0, channel=0, data=[48, 84]),
   midi.NoteOnEvent(tick=1, channel=0, data=[48, 0]),
   midi.NoteOnEvent(tick=0, channel=0, data=[58, 0]),
   midi.NoteOnEvent(tick=0, channel=0, data=[60, 0]),
   midi.NoteOnEvent(tick=39, channel=0, data=[69, 97]),
   midi.NoteOnEvent(tick=0, channel=0, data=[81, 97]),
   midi.NoteOnEvent(tick=0, channel=0, data=[41, 85]),
   midi.ControlChangeEvent(tick=0, channel=0, data=[64, 0]),
   midi.NoteOnEvent(tick=20, channel=0, data=[81, 0]),
   midi.NoteOnEvent(tick=0, channel=0, data=[69, 0]),
   midi.ControlChangeEvent(tick=20, channel=0, data=[64, 127]),
   midi.NoteOnEvent(tick=0, channel=0, data=[71, 97]),
   midi.NoteOnEvent(tick=0, channel=0, data=[83, 97]),
   midi.NoteOnEvent(tick=0, channel=0, data=[48, 86]),
   midi.NoteOnEvent(tick=0, channel=0, data=[60, 86]),
   midi.NoteOnEvent(tick=0, channel=0, data=[57, 86]),
   midi.NoteOnEvent(tick=5, channel=0, data=[41, 0]),
   midi.NoteOnEvent(tick=15, channel=0, data=[71, 0]),
   midi.NoteOnEvent(tick=0, channel=0, data=[83, 0]),
   midi.NoteOnEvent(tick=20, channel=0, data=[48, 0]),
   midi.NoteOnEvent(tick=0, channel=0, data=[60, 0]),
   midi.NoteOnEvent(tick=0, channel=0, data=[57, 0]),
   midi.NoteOnEvent(tick=0, channel=0, data=[84, 98]),
   midi.NoteOnEvent(tick=0, channel=0, data=[72, 98]),
   midi.NoteOnEvent(tick=0, channel=0, data=[60, 86]),
   midi.NoteOnEvent(tick=0, channel=0, data=[57, 86]),
   midi.NoteOnEvent(tick=0, channel=0, data=[48, 86]),
   midi.NoteOnEvent(tick=5, channel=0, data=[48, 0]),
   midi.NoteOnEvent(tick=0, channel=0, data=[60, 0]),
   midi.NoteOnEvent(tick=0, channel=0, data=[57, 0]),
   midi.NoteOnEvent(tick=10, channel=0, data=[72, 0]),
   midi.NoteOnEvent(tick=10, channel=0, data=[84, 0]),
   midi.ControlChangeEvent(tick=10, channel=0, data=[64, 0]),
   midi.ControlChangeEvent(tick=5, channel=0, data=[64, 127]),
   midi.NoteOnEvent(tick=0, channel=0, data=[88, 98]),
   midi.NoteOnEvent(tick=0, channel=0, data=[76, 98]),
   midi.NoteOnEvent(tick=0, channel=0, data=[40, 86]),
   midi.NoteOnEvent(tick=30, channel=0, data=[76, 0]),
   midi.NoteOnEvent(tick=0, channel=0, data=[88, 0]),
   midi.NoteOnEvent(tick=10, channel=0, data=[60, 87]),
   midi.NoteOnEvent(tick=0, channel=0, data=[48, 87]),
   midi.NoteOnEvent(tick=0, channel=0, data=[56, 87]),
   midi.NoteOnEvent(tick=5, channel=0, data=[40, 0]),
   midi.NoteOnEvent(tick=15, channel=0, data=[86, 99]),
   midi.NoteOnEvent(tick=0, channel=0, data=[74, 99]),
   midi.NoteOnEvent(tick=20, channel=0, data=[60, 0]),
   midi.NoteOnEvent(tick=0, channel=0, data=[56, 0]),
   midi.NoteOnEvent(tick=0, channel=0, data=[48, 0]),
   midi.NoteOnEvent(tick=0, channel=0, data=[60, 88]),
   midi.NoteOnEvent(tick=0, channel=0, data=[56, 88]),
   midi.NoteOnEvent(tick=0, channel=0, data=[48, 88]),
   midi.NoteOnEvent(tick=5, channel=0, data=[48, 0]),
   midi.NoteOnEvent(tick=0, channel=0, data=[60, 0]),
   midi.NoteOnEvent(tick=0, channel=0, data=[56, 0]),
   midi.NoteOnEvent(tick=5, channel=0, data=[86, 0]),
   midi.NoteOnEvent(tick=0, channel=0, data=[74, 0]),
   midi.ControlChangeEvent(tick=15, channel=0, data=[7, 116]),
   midi.NoteOnEvent(tick=15, channel=0, data=[72, 99]),
   midi.NoteOnEvent(tick=0, channel=0, data=[84, 99]),
   midi.NoteOnEvent(tick=0, channel=0, data=[41, 89]),
   midi.ControlChangeEvent(tick=0, channel=0, data=[7, 116]),
   midi.ControlChangeEvent(tick=0, channel=0, data=[64, 0]),
   midi.NoteOnEvent(tick=40, channel=0, data=[41, 0]),
   midi.ControlChangeEvent(tick=0, channel=0, data=[64, 127]),
   midi.NoteOnEvent(tick=0, channel=0, data=[48, 89]),
   midi.NoteOnEvent(tick=0, channel=0, data=[60, 89]),
   midi.NoteOnEvent(tick=0, channel=0, data=[57, 89]),
   midi.ControlChangeEvent(tick=5, channel=0, data=[7, 116]),
   midi.NoteOnEvent(tick=35, channel=0, data=[57, 0]),
   midi.NoteOnEvent(tick=0, channel=0, data=[48, 0]),
   midi.NoteOnEvent(tick=0, channel=0, data=[60, 0]),
   midi.NoteOnEvent(tick=0, channel=0, data=[60, 90]),
   midi.NoteOnEvent(tick=0, channel=0, data=[57, 90]),
   midi.NoteOnEvent(tick=0, channel=0, data=[48, 90]),
   midi.ControlChangeEvent(tick=0, channel=0, data=[7, 118]),
   midi.NoteOnEvent(tick=5, channel=0, data=[48, 0]),
   midi.NoteOnEvent(tick=0, channel=0, data=[60, 0]),
   midi.NoteOnEvent(tick=0, channel=0, data=[57, 0]),
   midi.NoteOnEvent(tick=5, channel=0, data=[84, 0]),
   midi.NoteOnEvent(tick=0, channel=0, data=[72, 0]),
   midi.ControlChangeEvent(tick=15, channel=0, data=[7, 118]),
   midi.NoteOnEvent(tick=15, channel=0, data=[86, 101]),
   midi.NoteOnEvent(tick=0, channel=0, data=[74, 101]),
   midi.NoteOnEvent(tick=0, channel=0, data=[42, 91]),
   midi.ControlChangeEvent(tick=0, channel=0, data=[64, 0]),
   midi.ControlChangeEvent(tick=5, channel=0, data=[7, 119]),
   midi.ControlChangeEvent(tick=15, channel=0, data=[7, 120]),
   midi.ControlChangeEvent(tick=15, channel=0, data=[7, 120]),
   midi.NoteOnEvent(tick=5, channel=0, data=[42, 0]),
   midi.ControlChangeEvent(tick=0, channel=0, data=[64, 127]),
   midi.NoteOnEvent(tick=0, channel=0, data=[60, 91]),
   midi.NoteOnEvent(tick=0, channel=0, data=[50, 91]),
   midi.NoteOnEvent(tick=0, channel=0, data=[62, 91]),
   midi.NoteOnEvent(tick=5, channel=0, data=[86, 0]),
   midi.NoteOnEvent(tick=10, channel=0, data=[74, 0]),
   midi.ControlChangeEvent(tick=0, channel=0, data=[7, 120]),
   midi.NoteOnEvent(tick=25, channel=0, data=[50, 0]),
   midi.NoteOnEvent(tick=0, channel=0, data=[60, 0]),
   midi.NoteOnEvent(tick=0, channel=0, data=[62, 0]),
   midi.NoteOnEvent(tick=0, channel=0, data=[62, 92]),
   midi.NoteOnEvent(tick=0, channel=0, data=[60, 92]),
   midi.NoteOnEvent(tick=0, channel=0, data=[50, 92]),
   midi.ControlChangeEvent(tick=0, channel=0, data=[7, 121]),
   midi.NoteOnEvent(tick=1, channel=0, data=[50, 0]),
   midi.NoteOnEvent(tick=0, channel=0, data=[60, 0]),
   midi.NoteOnEvent(tick=0, channel=0, data=[62, 0]),
   midi.ControlChangeEvent(tick=29, channel=0, data=[64, 0]),
   midi.ControlChangeEvent(tick=10, channel=0, data=[64, 127]),
   midi.NoteOnEvent(tick=0, channel=0, data=[83, 102]),
   midi.NoteOnEvent(tick=0, channel=0, data=[71, 102]),
   midi.NoteOnEvent(tick=0, channel=0, data=[43, 92]),
   midi.NoteOnEvent(tick=25, channel=0, data=[71, 0]),
   midi.NoteOnEvent(tick=5, channel=0, data=[83, 0]),
   midi.NoteOnEvent(tick=10, channel=0, data=[73, 103]),
   midi.NoteOnEvent(tick=0, channel=0, data=[85, 103]),
   midi.NoteOnEvent(tick=0, channel=0, data=[62, 93]),
   midi.NoteOnEvent(tick=0, channel=0, data=[50, 93]),
   midi.NoteOnEvent(tick=0, channel=0, data=[59, 93]),
   midi.NoteOnEvent(tick=5, channel=0, data=[43, 0]),
   midi.NoteOnEvent(tick=15, channel=0, data=[73, 0]),
   midi.NoteOnEvent(tick=5, channel=0, data=[85, 0]),
   midi.NoteOnEvent(tick=15, channel=0, data=[62, 0]),
   midi.NoteOnEvent(tick=0, channel=0, data=[50, 0]),
   midi.NoteOnEvent(tick=0, channel=0, data=[59, 0]),
   midi.NoteOnEvent(tick=0, channel=0, data=[74, 103]),
   midi.NoteOnEvent(tick=0, channel=0, data=[86, 103]),
   midi.NoteOnEvent(tick=0, channel=0, data=[62, 94]),
   midi.NoteOnEvent(tick=0, channel=0, data=[59, 94]),
   midi.NoteOnEvent(tick=0, channel=0, data=[50, 94]),
   midi.NoteOnEvent(tick=5, channel=0, data=[50, 0]),
   midi.NoteOnEvent(tick=0, channel=0, data=[62, 0]),
   midi.NoteOnEvent(tick=0, channel=0, data=[59, 0]),
   midi.NoteOnEvent(tick=10, channel=0, data=[86, 0]),
   midi.NoteOnEvent(tick=0, channel=0, data=[74, 0]),
   midi.ControlChangeEvent(tick=15, channel=0, data=[64, 0]),
   midi.ControlChangeEvent(tick=10, channel=0, data=[64, 127]),
   midi.NoteOnEvent(tick=0, channel=0, data=[78, 103]),
   midi.NoteOnEvent(tick=0, channel=0, data=[90, 103]),
   midi.NoteOnEvent(tick=0, channel=0, data=[42, 94]),
   midi.NoteOnEvent(tick=25, channel=0, data=[90, 0]),
   midi.NoteOnEvent(tick=5, channel=0, data=[78, 0]),
   midi.NoteOnEvent(tick=10, channel=0, data=[42, 0]),
   midi.NoteOnEvent(tick=0, channel=0, data=[50, 95]),
   midi.NoteOnEvent(tick=0, channel=0, data=[62, 95]),
   midi.NoteOnEvent(tick=0, channel=0, data=[58, 95]),
   midi.NoteOnEvent(tick=20, channel=0, data=[76, 104]),
   midi.NoteOnEvent(tick=0, channel=0, data=[88, 104]),
   midi.NoteOnEvent(tick=20, channel=0, data=[58, 0]),
   midi.NoteOnEvent(tick=0, channel=0, data=[50, 0]),
   midi.NoteOnEvent(tick=0, channel=0, data=[62, 0]),
   midi.NoteOnEvent(tick=0, channel=0, data=[62, 96]),
   midi.NoteOnEvent(tick=0, channel=0, data=[58, 96]),
   midi.NoteOnEvent(tick=0, channel=0, data=[50, 96]),
   midi.NoteOnEvent(tick=1, channel=0, data=[50, 0]),
   midi.NoteOnEvent(tick=0, channel=0, data=[58, 0]),
   midi.NoteOnEvent(tick=4, channel=0, data=[62, 0]),
   midi.NoteOnEvent(tick=10, channel=0, data=[76, 0]),
   midi.NoteOnEvent(tick=0, channel=0, data=[88, 0]),
   midi.ControlChangeEvent(tick=10, channel=0, data=[64, 0]),
   midi.ControlChangeEvent(tick=15, channel=0, data=[64, 127]),
   midi.NoteOnEvent(tick=0, channel=0, data=[86, 104]),
   midi.NoteOnEvent(tick=0, channel=0, data=[74, 104]),
   midi.NoteOnEvent(tick=0, channel=0, data=[43, 96]),
   midi.NoteOnEvent(tick=40, channel=0, data=[62, 97]),
   midi.NoteOnEvent(tick=0, channel=0, data=[50, 97]),
   midi.NoteOnEvent(tick=0, channel=0, data=[59, 97]),
   midi.NoteOnEvent(tick=5, channel=0, data=[43, 0]),
   midi.NoteOnEvent(tick=0, channel=0, data=[86, 0]),
   midi.NoteOnEvent(tick=0, channel=0, data=[74, 0]),
   midi.NoteOnEvent(tick=35, channel=0, data=[62, 0]),
   midi.NoteOnEvent(tick=0, channel=0, data=[50, 0]),
   midi.NoteOnEvent(tick=0, channel=0, data=[59, 0]),
   midi.NoteOnEvent(tick=0, channel=0, data=[62, 97]),
   midi.NoteOnEvent(tick=0, channel=0, data=[59, 97]),
   midi.NoteOnEvent(tick=0, channel=0, data=[50, 97]),
   midi.NoteOnEvent(tick=1, channel=0, data=[50, 0]),
   midi.NoteOnEvent(tick=0, channel=0, data=[59, 0]),
   midi.NoteOnEvent(tick=4, channel=0, data=[62, 0]),
   midi.ControlChangeEvent(tick=25, channel=0, data=[64, 0]),
   midi.ControlChangeEvent(tick=10, channel=0, data=[64, 127]),
   midi.NoteOnEvent(tick=0, channel=0, data=[76, 106]),
   midi.NoteOnEvent(tick=0, channel=0, data=[88, 106]),
   midi.NoteOnEvent(tick=0, channel=0, data=[44, 98]),
   midi.NoteOnEvent(tick=40, channel=0, data=[62, 99]),
   midi.NoteOnEvent(tick=0, channel=0, data=[52, 99]),
   midi.NoteOnEvent(tick=0, channel=0, data=[64, 99]),
   midi.NoteOnEvent(tick=5, channel=0, data=[44, 0]),
   midi.NoteOnEvent(tick=0, channel=0, data=[88, 0]),
   midi.NoteOnEvent(tick=5, channel=0, data=[76, 0]),
   midi.NoteOnEvent(tick=30, channel=0, data=[62, 0]),
   midi.NoteOnEvent(tick=0, channel=0, data=[64, 0]),
   midi.NoteOnEvent(tick=0, channel=0, data=[52, 0]),
   midi.NoteOnEvent(tick=0, channel=0, data=[64, 99]),
   midi.NoteOnEvent(tick=0, channel=0, data=[62, 99]),
   midi.NoteOnEvent(tick=0, channel=0, data=[52, 99]),
   midi.NoteOnEvent(tick=5, channel=0, data=[52, 0]),
   midi.NoteOnEvent(tick=0, channel=0, data=[62, 0]),
   midi.NoteOnEvent(tick=0, channel=0, data=[64, 0]),
   midi.ControlChangeEvent(tick=30, channel=0, data=[64, 0]),
   midi.ControlChangeEvent(tick=5, channel=0, data=[64, 127]),
   midi.NoteOnEvent(tick=0, channel=0, data=[84, 107]),
   midi.NoteOnEvent(tick=0, channel=0, data=[72, 107]),
   midi.NoteOnEvent(tick=0, channel=0, data=[45, 100]),
   midi.NoteOnEvent(tick=15, channel=0, data=[72, 0]),
   midi.NoteOnEvent(tick=5, channel=0, data=[84, 0]),
   midi.NoteOnEvent(tick=20, channel=0, data=[45, 0]),
   midi.NoteOnEvent(tick=0, channel=0, data=[76, 107]),
   midi.NoteOnEvent(tick=0, channel=0, data=[88, 107]),
   midi.NoteOnEvent(tick=0, channel=0, data=[52, 101]),
   midi.NoteOnEvent(tick=0, channel=0, data=[64, 101]),
   midi.NoteOnEvent(tick=0, channel=0, data=[60, 101]),
   midi.NoteOnEvent(tick=15, channel=0, data=[88, 0]),
   midi.NoteOnEvent(tick=0, channel=0, data=[76, 0]),
   midi.NoteOnEvent(tick=25, channel=0, data=[64, 0]),
   midi.NoteOnEvent(tick=0, channel=0, data=[52, 0]),
   midi.NoteOnEvent(tick=0, channel=0, data=[60, 0]),
   midi.NoteOnEvent(tick=0, channel=0, data=[84, 108]),
   midi.NoteOnEvent(tick=0, channel=0, data=[96, 108]),
   midi.NoteOnEvent(tick=0, channel=0, data=[64, 102]),
   midi.NoteOnEvent(tick=0, channel=0, data=[60, 102]),
   midi.NoteOnEvent(tick=0, channel=0, data=[52, 102]),
   midi.NoteOnEvent(tick=5, channel=0, data=[52, 0]),
   midi.NoteOnEvent(tick=0, channel=0, data=[64, 0]),
   midi.NoteOnEvent(tick=0, channel=0, data=[60, 0]),
   midi.NoteOnEvent(tick=15, channel=0, data=[84, 0]),
   midi.NoteOnEvent(tick=5, channel=0, data=[96, 0]),
   midi.ControlChangeEvent(tick=10, channel=0, data=[64, 0]),
   midi.ControlChangeEvent(tick=5, channel=0, data=[64, 127]),
   midi.NoteOnEvent(tick=0, channel=0, data=[95, 108]),
   midi.NoteOnEvent(tick=0, channel=0, data=[83, 108]),
   midi.NoteOnEvent(tick=0, channel=0, data=[47, 102]),
   midi.NoteOnEvent(tick=40, channel=0, data=[83, 0]),
   midi.NoteOnEvent(tick=0, channel=0, data=[95, 0]),
   midi.NoteOnEvent(tick=0, channel=0, data=[55, 103]),
   midi.NoteOnEvent(tick=0, channel=0, data=[67, 103]),
   midi.NoteOnEvent(tick=0, channel=0, data=[63, 103]),
   midi.NoteOnEvent(tick=5, channel=0, data=[47, 0]),
   midi.NoteOnEvent(tick=15, channel=0, data=[81, 109]),
   midi.NoteOnEvent(tick=0, channel=0, data=[93, 109]),
   midi.NoteOnEvent(tick=20, channel=0, data=[55, 0]),
   midi.NoteOnEvent(tick=0, channel=0, data=[63, 0]),
   midi.NoteOnEvent(tick=0, channel=0, data=[67, 0]),
   midi.NoteOnEvent(tick=0, channel=0, data=[67, 103]),
   midi.NoteOnEvent(tick=0, channel=0, data=[63, 103]),
   midi.NoteOnEvent(tick=0, channel=0, data=[55, 103]),
   midi.NoteOnEvent(tick=5, channel=0, data=[55, 0]),
   midi.NoteOnEvent(tick=0, channel=0, data=[67, 0]),
   midi.NoteOnEvent(tick=0, channel=0, data=[63, 0]),
   midi.NoteOnEvent(tick=15, channel=0, data=[81, 0]),
   midi.NoteOnEvent(tick=0, channel=0, data=[93, 0]),
   midi.ControlChangeEvent(tick=10, channel=0, data=[64, 0]),
   midi.ControlChangeEvent(tick=10, channel=0, data=[64, 127]),
   midi.NoteOnEvent(tick=0, channel=0, data=[79, 109]),
   midi.NoteOnEvent(tick=0, channel=0, data=[91, 109]),
   midi.NoteOnEvent(tick=0, channel=0, data=[48, 104]),
   midi.NoteOnEvent(tick=25, channel=0, data=[91, 0]),
   midi.NoteOnEvent(tick=0, channel=0, data=[79, 0]),
   midi.NoteOnEvent(tick=15, channel=0, data=[76, 110]),
   midi.NoteOnEvent(tick=0, channel=0, data=[88, 110]),
   midi.NoteOnEvent(tick=0, channel=0, data=[55, 104]),
   midi.NoteOnEvent(tick=0, channel=0, data=[67, 104]),
   midi.NoteOnEvent(tick=0, channel=0, data=[64, 104]),
   midi.NoteOnEvent(tick=5, channel=0, data=[48, 0]),
   midi.NoteOnEvent(tick=15, channel=0, data=[76, 0]),
   midi.NoteOnEvent(tick=0, channel=0, data=[88, 0]),
   midi.NoteOnEvent(tick=20, channel=0, data=[55, 0]),
   midi.NoteOnEvent(tick=0, channel=0, data=[67, 0]),
   midi.NoteOnEvent(tick=0, channel=0, data=[64, 0]),
   midi.NoteOnEvent(tick=0, channel=0, data=[72, 110]),
   midi.NoteOnEvent(tick=0, channel=0, data=[84, 110]),
   midi.NoteOnEvent(tick=0, channel=0, data=[67, 105]),
   midi.NoteOnEvent(tick=0, channel=0, data=[64, 105]),
   midi.NoteOnEvent(tick=0, channel=0, data=[55, 105]),
   midi.NoteOnEvent(tick=5, channel=0, data=[55, 0]),
   midi.NoteOnEvent(tick=0, channel=0, data=[67, 0]),
   midi.NoteOnEvent(tick=0, channel=0, data=[64, 0]),
   midi.NoteOnEvent(tick=10, channel=0, data=[84, 0]),
   midi.NoteOnEvent(tick=5, channel=0, data=[72, 0]),
   midi.ControlChangeEvent(tick=15, channel=0, data=[64, 0]),
   midi.NoteOnEvent(tick=5, channel=0, data=[69, 106]),
   midi.NoteOnEvent(tick=0, channel=0, data=[81, 107]),
   midi.NoteOnEvent(tick=0, channel=0, data=[50, 101]),
   midi.NoteOnEvent(tick=0, channel=0, data=[38, 101]),
   midi.NoteOnEvent(tick=40, channel=0, data=[67, 101]),
   midi.NoteOnEvent(tick=0, channel=0, data=[60, 101]),
   midi.NoteOnEvent(tick=0, channel=0, data=[62, 101]),
   midi.NoteOnEvent(tick=0, channel=0, data=[55, 101]),
   midi.NoteOnEvent(tick=5, channel=0, data=[38, 0]),
   midi.NoteOnEvent(tick=0, channel=0, data=[50, 0]),
   midi.NoteOnEvent(tick=0, channel=0, data=[69, 0]),
   midi.NoteOnEvent(tick=5, channel=0, data=[81, 0]),
   midi.NoteOnEvent(tick=25, channel=0, data=[67, 0]),
   midi.NoteOnEvent(tick=0, channel=0, data=[55, 0]),
   midi.NoteOnEvent(tick=0, channel=0, data=[62, 0]),
   midi.NoteOnEvent(tick=0, channel=0, data=[60, 0]),
   midi.NoteOnEvent(tick=5, channel=0, data=[67, 101]),
   midi.NoteOnEvent(tick=0, channel=0, data=[62, 101]),
   midi.NoteOnEvent(tick=0, channel=0, data=[60, 101]),
   midi.NoteOnEvent(tick=0, channel=0, data=[55, 101]),
   midi.NoteOnEvent(tick=30, channel=0, data=[67, 0]),
   midi.NoteOnEvent(tick=5, channel=0, data=[62, 0]),
   midi.NoteOnEvent(tick=0, channel=0, data=[60, 0]),
   midi.NoteOnEvent(tick=0, channel=0, data=[55, 0]),
   midi.NoteOnEvent(tick=5, channel=0, data=[74, 107]),
   midi.NoteOnEvent(tick=0, channel=0, data=[86, 108]),
   midi.NoteOnEvent(tick=0, channel=0, data=[60, 101]),
   midi.NoteOnEvent(tick=0, channel=0, data=[65, 101]),
   midi.NoteOnEvent(tick=0, channel=0, data=[62, 101]),
   midi.NoteOnEvent(tick=0, channel=0, data=[53, 101]),
   midi.NoteOnEvent(tick=20, channel=0, data=[86, 0]),
   midi.NoteOnEvent(tick=0, channel=0, data=[74, 0]),
   midi.NoteOnEvent(tick=5, channel=0, data=[62, 0]),
   midi.NoteOnEvent(tick=0, channel=0, data=[65, 0]),
   midi.NoteOnEvent(tick=0, channel=0, data=[53, 0]),
   midi.NoteOnEvent(tick=0, channel=0, data=[60, 0]),
   midi.NoteOnEvent(tick=15, channel=0, data=[65, 105]),
   midi.NoteOnEvent(tick=0, channel=0, data=[53, 105]),
   midi.NoteOnEvent(tick=0, channel=0, data=[60, 105]),
   midi.NoteOnEvent(tick=0, channel=0, data=[62, 105]),
   midi.NoteOnEvent(tick=20, channel=0, data=[71, 100]),
   midi.NoteOnEvent(tick=0, channel=0, data=[83, 104]),
   midi.NoteOnEvent(tick=5, channel=0, data=[60, 0]),
   midi.NoteOnEvent(tick=5, channel=0, data=[62, 0]),
   midi.NoteOnEvent(tick=0, channel=0, data=[65, 0]),
   midi.NoteOnEvent(tick=0, channel=0, data=[53, 0]),
   midi.NoteOnEvent(tick=10, channel=0, data=[83, 0]),
   midi.NoteOnEvent(tick=0, channel=0, data=[62, 105]),
   midi.NoteOnEvent(tick=0, channel=0, data=[54, 105]),
   midi.NoteOnEvent(tick=0, channel=0, data=[66, 105]),
   midi.NoteOnEvent(tick=0, channel=0, data=[60, 105]),
   midi.NoteOnEvent(tick=5, channel=0, data=[71, 0]),
   midi.NoteOnEvent(tick=30, channel=0, data=[62, 0]),
   midi.NoteOnEvent(tick=5, channel=0, data=[66, 0]),
   midi.NoteOnEvent(tick=0, channel=0, data=[54, 0]),
   midi.NoteOnEvent(tick=0, channel=0, data=[60, 0]),
   midi.NoteOnEvent(tick=0, channel=0, data=[81, 98]),
   midi.NoteOnEvent(tick=0, channel=0, data=[69, 96]),
   midi.NoteOnEvent(tick=0, channel=0, data=[31, 90]),
   midi.NoteOnEvent(tick=0, channel=0, data=[43, 90]),
   midi.NoteOnEvent(tick=25, channel=0, data=[81, 0]),
   midi.NoteOnEvent(tick=10, channel=0, data=[69, 0]),
   midi.NoteOnEvent(tick=0, channel=0, data=[31, 0]),
   midi.NoteOnEvent(tick=0, channel=0, data=[43, 0]),
   midi.NoteOnEvent(tick=5, channel=0, data=[65, 90]),
   midi.NoteOnEvent(tick=0, channel=0, data=[62, 90]),
   midi.NoteOnEvent(tick=0, channel=0, data=[59, 90]),
   midi.NoteOnEvent(tick=0, channel=0, data=[53, 90]),
   midi.NoteOnEvent(tick=0, channel=0, data=[66, 98]),
   midi.NoteOnEvent(tick=0, channel=0, data=[74, 98]),
   midi.NoteOnEvent(tick=0, channel=0, data=[71, 98]),
   midi.NoteOnEvent(tick=0, channel=0, data=[78, 101]),
   midi.NoteOnEvent(tick=20, channel=0, data=[78, 0]),
   midi.NoteOnEvent(tick=5, channel=0, data=[71, 0]),
   midi.NoteOnEvent(tick=0, channel=0, data=[66, 0]),
   midi.NoteOnEvent(tick=0, channel=0, data=[74, 0]),
   midi.NoteOnEvent(tick=10, channel=0, data=[59, 0]),
   midi.NoteOnEvent(tick=0, channel=0, data=[53, 0]),
   midi.NoteOnEvent(tick=0, channel=0, data=[62, 0]),
   midi.NoteOnEvent(tick=0, channel=0, data=[65, 0]),
   midi.NoteOnEvent(tick=5, channel=0, data=[59, 90]),
   midi.NoteOnEvent(tick=0, channel=0, data=[65, 90]),
   midi.NoteOnEvent(tick=0, channel=0, data=[62, 90]),
   midi.NoteOnEvent(tick=0, channel=0, data=[53, 90]),
   midi.NoteOnEvent(tick=0, channel=0, data=[67, 98]),
   midi.NoteOnEvent(tick=0, channel=0, data=[74, 98]),
   midi.NoteOnEvent(tick=0, channel=0, data=[71, 98]),
   midi.NoteOnEvent(tick=0, channel=0, data=[79, 104]),
   midi.NoteOnEvent(tick=15, channel=0, data=[71, 0]),
   midi.NoteOnEvent(tick=0, channel=0, data=[74, 0]),
   midi.NoteOnEvent(tick=5, channel=0, data=[79, 0]),
   midi.NoteOnEvent(tick=0, channel=0, data=[67, 0]),
   midi.NoteOnEvent(tick=10, channel=0, data=[62, 0]),
   midi.NoteOnEvent(tick=0, channel=0, data=[53, 0]),
   midi.NoteOnEvent(tick=0, channel=0, data=[65, 0]),
   midi.NoteOnEvent(tick=0, channel=0, data=[59, 0]),
   midi.NoteOnEvent(tick=10, channel=0, data=[65, 95]),
   midi.NoteOnEvent(tick=0, channel=0, data=[59, 95]),
   midi.NoteOnEvent(tick=0, channel=0, data=[62, 95]),
   midi.NoteOnEvent(tick=0, channel=0, data=[53, 95]),
   midi.NoteOnEvent(tick=0, channel=0, data=[68, 102]),
   midi.NoteOnEvent(tick=0, channel=0, data=[74, 102]),
   midi.NoteOnEvent(tick=0, channel=0, data=[71, 102]),
   midi.NoteOnEvent(tick=0, channel=0, data=[80, 107]),
   midi.NoteOnEvent(tick=15, channel=0, data=[80, 0]),
   midi.NoteOnEvent(tick=5, channel=0, data=[71, 0]),
   midi.NoteOnEvent(tick=0, channel=0, data=[68, 0]),
   midi.NoteOnEvent(tick=0, channel=0, data=[74, 0]),
   midi.NoteOnEvent(tick=15, channel=0, data=[62, 0]),
   midi.NoteOnEvent(tick=0, channel=0, data=[53, 0]),
   midi.NoteOnEvent(tick=0, channel=0, data=[59, 0]),
   midi.NoteOnEvent(tick=0, channel=0, data=[65, 0]),
   midi.NoteOnEvent(tick=5, channel=0, data=[66, 104]),
   midi.NoteOnEvent(tick=0, channel=0, data=[74, 104]),
   midi.NoteOnEvent(tick=0, channel=0, data=[71, 104]),
   midi.NoteOnEvent(tick=0, channel=0, data=[78, 107]),
   midi.NoteOnEvent(tick=0, channel=0, data=[59, 101]),
   midi.NoteOnEvent(tick=0, channel=0, data=[65, 101]),
   midi.NoteOnEvent(tick=0, channel=0, data=[53, 101]),
   midi.NoteOnEvent(tick=0, channel=0, data=[62, 101]),
   midi.NoteOnEvent(tick=15, channel=0, data=[74, 0]),
   midi.NoteOnEvent(tick=0, channel=0, data=[66, 0]),
   midi.NoteOnEvent(tick=5, channel=0, data=[78, 0]),
   midi.NoteOnEvent(tick=0, channel=0, data=[71, 0]),
   midi.NoteOnEvent(tick=10, channel=0, data=[59, 0]),
   midi.NoteOnEvent(tick=0, channel=0, data=[62, 0]),
   midi.NoteOnEvent(tick=0, channel=0, data=[65, 0]),
   midi.NoteOnEvent(tick=0, channel=0, data=[53, 0]),
   midi.NoteOnEvent(tick=10, channel=0, data=[79, 108]),
   midi.NoteOnEvent(tick=0, channel=0, data=[74, 108]),
   midi.NoteOnEvent(tick=0, channel=0, data=[71, 108]),
   midi.NoteOnEvent(tick=0, channel=0, data=[67, 106]),
   midi.NoteOnEvent(tick=0, channel=0, data=[65, 101]),
   midi.NoteOnEvent(tick=0, channel=0, data=[62, 101]),
   midi.NoteOnEvent(tick=0, channel=0, data=[59, 101]),
   midi.NoteOnEvent(tick=0, channel=0, data=[53, 101]),
   midi.NoteOnEvent(tick=15, channel=0, data=[67, 0]),
   midi.NoteOnEvent(tick=5, channel=0, data=[79, 0]),
   midi.NoteOnEvent(tick=5, channel=0, data=[74, 0]),
   midi.NoteOnEvent(tick=0, channel=0, data=[71, 0]),
   midi.NoteOnEvent(tick=5, channel=0, data=[65, 0]),
   midi.NoteOnEvent(tick=0, channel=0, data=[53, 0]),
   midi.NoteOnEvent(tick=0, channel=0, data=[62, 0]),
   midi.NoteOnEvent(tick=0, channel=0, data=[59, 0]),
   midi.NoteOnEvent(tick=10, channel=0, data=[68, 106]),
   midi.NoteOnEvent(tick=0, channel=0, data=[74, 106]),
   midi.NoteOnEvent(tick=0, channel=0, data=[71, 106]),
   midi.NoteOnEvent(tick=0, channel=0, data=[80, 109]),
   midi.NoteOnEvent(tick=0, channel=0, data=[53, 101]),
   midi.NoteOnEvent(tick=0, channel=0, data=[62, 101]),
   midi.NoteOnEvent(tick=0, channel=0, data=[65, 101]),
   midi.NoteOnEvent(tick=0, channel=0, data=[59, 101]),
   midi.NoteOnEvent(tick=15, channel=0, data=[80, 0]),
   midi.NoteOnEvent(tick=5, channel=0, data=[74, 0]),
   midi.NoteOnEvent(tick=0, channel=0, data=[68, 0]),
   midi.NoteOnEvent(tick=5, channel=0, data=[71, 0]),
   midi.NoteOnEvent(tick=10, channel=0, data=[53, 0]),
   midi.NoteOnEvent(tick=0, channel=0, data=[59, 0]),
   midi.NoteOnEvent(tick=0, channel=0, data=[62, 0]),
   midi.NoteOnEvent(tick=0, channel=0, data=[65, 0]),
   midi.NoteOnEvent(tick=5, channel=0, data=[78, 109]),
   midi.NoteOnEvent(tick=0, channel=0, data=[74, 107]),
   midi.NoteOnEvent(tick=0, channel=0, data=[71, 107]),
   midi.NoteOnEvent(tick=0, channel=0, data=[66, 108]),
   midi.NoteOnEvent(tick=0, channel=0, data=[65, 101]),
   midi.NoteOnEvent(tick=5, channel=0, data=[62, 101]),
   midi.NoteOnEvent(tick=0, channel=0, data=[59, 101]),
   midi.NoteOnEvent(tick=0, channel=0, data=[53, 101]),
   midi.NoteOnEvent(tick=10, channel=0, data=[66, 0]),
   midi.NoteOnEvent(tick=5, channel=0, data=[71, 0]),
   midi.NoteOnEvent(tick=0, channel=0, data=[78, 0]),
   midi.NoteOnEvent(tick=0, channel=0, data=[74, 0]),
   midi.NoteOnEvent(tick=15, channel=0, data=[65, 0]),
   midi.NoteOnEvent(tick=0, channel=0, data=[53, 0]),
   midi.NoteOnEvent(tick=0, channel=0, data=[62, 0]),
   midi.NoteOnEvent(tick=0, channel=0, data=[59, 0]),
   midi.NoteOnEvent(tick=0, channel=0, data=[67, 107]),
   midi.NoteOnEvent(tick=5, channel=0, data=[74, 106]),
   midi.NoteOnEvent(tick=0, channel=0, data=[71, 106]),
   midi.NoteOnEvent(tick=0, channel=0, data=[79, 109]),
   midi.NoteOnEvent(tick=0, channel=0, data=[62, 101]),
   midi.NoteOnEvent(tick=0, channel=0, data=[65, 101]),
   midi.NoteOnEvent(tick=0, channel=0, data=[53, 101]),
   midi.NoteOnEvent(tick=0, channel=0, data=[59, 101]),
   midi.NoteOnEvent(tick=25, channel=0, data=[79, 0]),
   midi.NoteOnEvent(tick=0, channel=0, data=[71, 0]),
   midi.NoteOnEvent(tick=0, channel=0, data=[67, 0]),
   midi.NoteOnEvent(tick=0, channel=0, data=[74, 0]),
   midi.NoteOnEvent(tick=10, channel=0, data=[62, 0]),
   midi.NoteOnEvent(tick=0, channel=0, data=[59, 0]),
   midi.NoteOnEvent(tick=0, channel=0, data=[65, 0]),
   midi.NoteOnEvent(tick=0, channel=0, data=[53, 0]),
   midi.NoteOnEvent(tick=5, channel=0, data=[68, 107]),
   midi.NoteOnEvent(tick=0, channel=0, data=[76, 106]),
   midi.NoteOnEvent(tick=0, channel=0, data=[72, 106]),
   midi.NoteOnEvent(tick=0, channel=0, data=[80, 108]),
   midi.NoteOnEvent(tick=0, channel=0, data=[64, 103]),
   midi.NoteOnEvent(tick=0, channel=0, data=[55, 103]),
   midi.NoteOnEvent(tick=0, channel=0, data=[60, 103]),
   midi.NoteOnEvent(tick=0, channel=0, data=[52, 103]),
   midi.NoteOnEvent(tick=20, channel=0, data=[80, 0]),
   midi.NoteOnEvent(tick=5, channel=0, data=[72, 0]),
   midi.NoteOnEvent(tick=0, channel=0, data=[68, 0]),
   midi.NoteOnEvent(tick=0, channel=0, data=[76, 0]),
   midi.NoteOnEvent(tick=10, channel=0, data=[64, 0]),
   midi.NoteOnEvent(tick=0, channel=0, data=[52, 0]),
   midi.NoteOnEvent(tick=0, channel=0, data=[55, 0]),
   midi.NoteOnEvent(tick=0, channel=0, data=[60, 0]),
   midi.NoteOnEvent(tick=5, channel=0, data=[66, 107]),
   midi.NoteOnEvent(tick=0, channel=0, data=[72, 106]),
   midi.NoteOnEvent(tick=5, channel=0, data=[76, 106]),
   midi.NoteOnEvent(tick=0, channel=0, data=[78, 109]),
   midi.NoteOnEvent(tick=0, channel=0, data=[64, 103]),
   midi.NoteOnEvent(tick=0, channel=0, data=[55, 103]),
   midi.NoteOnEvent(tick=0, channel=0, data=[60, 103]),
   midi.NoteOnEvent(tick=0, channel=0, data=[52, 103]),
   midi.NoteOnEvent(tick=15, channel=0, data=[78, 0]),
   midi.NoteOnEvent(tick=0, channel=0, data=[72, 0]),
   midi.NoteOnEvent(tick=0, channel=0, data=[66, 0]),
   midi.NoteOnEvent(tick=5, channel=0, data=[76, 0]),
   midi.NoteOnEvent(tick=10, channel=0, data=[64, 0]),
   midi.NoteOnEvent(tick=0, channel=0, data=[52, 0]),
   midi.NoteOnEvent(tick=0, channel=0, data=[55, 0]),
   midi.NoteOnEvent(tick=0, channel=0, data=[60, 0]),
   midi.NoteOnEvent(tick=0, channel=0, data=[79, 112]),
   midi.NoteOnEvent(tick=0, channel=0, data=[72, 107]),
   midi.NoteOnEvent(tick=5, channel=0, data=[76, 107]),
   midi.NoteOnEvent(tick=0, channel=0, data=[67, 107]),
   midi.NoteOnEvent(tick=0, channel=0, data=[60, 103]),
   midi.NoteOnEvent(tick=0, channel=0, data=[52, 103]),
   midi.NoteOnEvent(tick=0, channel=0, data=[64, 103]),
   midi.NoteOnEvent(tick=5, channel=0, data=[55, 103]),
   midi.NoteOnEvent(tick=25, channel=0, data=[60, 0]),
   midi.NoteOnEvent(tick=5, channel=0, data=[55, 0]),
   midi.NoteOnEvent(tick=0, channel=0, data=[52, 0]),
   midi.NoteOnEvent(tick=0, channel=0, data=[64, 0]),
   midi.NoteOnEvent(tick=5, channel=0, data=[33, 106]),
   midi.NoteOnEvent(tick=0, channel=0, data=[45, 106]),
   midi.NoteOnEvent(tick=5, channel=0, data=[76, 0]),
   midi.NoteOnEvent(tick=0, channel=0, data=[79, 0]),
   midi.NoteOnEvent(tick=0, channel=0, data=[67, 0]),
   midi.NoteOnEvent(tick=0, channel=0, data=[72, 0]),
   midi.NoteOnEvent(tick=25, channel=0, data=[45, 0]),
   midi.NoteOnEvent(tick=0, channel=0, data=[33, 0]),
   midi.NoteOnEvent(tick=10, channel=0, data=[68, 107]),
   midi.NoteOnEvent(tick=0, channel=0, data=[76, 107]),
   midi.NoteOnEvent(tick=0, channel=0, data=[73, 107]),
   midi.NoteOnEvent(tick=0, channel=0, data=[80, 109]),
   midi.NoteOnEvent(tick=0, channel=0, data=[61, 101]),
   midi.NoteOnEvent(tick=0, channel=0, data=[55, 101]),
   midi.NoteOnEvent(tick=0, channel=0, data=[64, 101]),
   midi.NoteOnEvent(tick=0, channel=0, data=[67, 101]),
   midi.NoteOnEvent(tick=20, channel=0, data=[76, 0]),
   midi.NoteOnEvent(tick=0, channel=0, data=[68, 0]),
   midi.NoteOnEvent(tick=5, channel=0, data=[80, 0]),
   midi.NoteOnEvent(tick=0, channel=0, data=[73, 0]),
   midi.NoteOnEvent(tick=5, channel=0, data=[61, 0]),
   midi.NoteOnEvent(tick=0, channel=0, data=[64, 0]),
   midi.NoteOnEvent(tick=0, channel=0, data=[55, 0]),
   midi.NoteOnEvent(tick=5, channel=0, data=[67, 0]),
   midi.NoteOnEvent(tick=5, channel=0, data=[69, 107]),
   midi.NoteOnEvent(tick=0, channel=0, data=[73, 106]),
   midi.NoteOnEvent(tick=0, channel=0, data=[76, 106]),
   midi.NoteOnEvent(tick=0, channel=0, data=[81, 108]),
   midi.NoteOnEvent(tick=0, channel=0, data=[55, 101]),
   midi.NoteOnEvent(tick=0, channel=0, data=[64, 101]),
   midi.NoteOnEvent(tick=0, channel=0, data=[67, 101]),
   midi.NoteOnEvent(tick=5, channel=0, data=[61, 101]),
   midi.NoteOnEvent(tick=20, channel=0, data=[81, 0]),
   midi.NoteOnEvent(tick=0, channel=0, data=[76, 0]),
   midi.NoteOnEvent(tick=0, channel=0, data=[69, 0]),
   midi.NoteOnEvent(tick=0, channel=0, data=[73, 0]),
   midi.NoteOnEvent(tick=10, channel=0, data=[55, 0]),
   midi.NoteOnEvent(tick=0, channel=0, data=[61, 0]),
   midi.NoteOnEvent(tick=0, channel=0, data=[64, 0]),
   midi.NoteOnEvent(tick=0, channel=0, data=[67, 0]),
   midi.NoteOnEvent(tick=5, channel=0, data=[82, 108]),
   midi.NoteOnEvent(tick=5, channel=0, data=[76, 106]),
   midi.NoteOnEvent(tick=0, channel=0, data=[73, 106]),
   midi.NoteOnEvent(tick=0, channel=0, data=[70, 107]),
   midi.NoteOnEvent(tick=0, channel=0, data=[61, 103]),
   midi.NoteOnEvent(tick=0, channel=0, data=[64, 103]),
   midi.NoteOnEvent(tick=0, channel=0, data=[55, 103]),
   midi.NoteOnEvent(tick=0, channel=0, data=[67, 103]),
   midi.ControlChangeEvent(tick=5, channel=0, data=[7, 120]),
   midi.NoteOnEvent(tick=10, channel=0, data=[73, 0]),
   midi.NoteOnEvent(tick=0, channel=0, data=[82, 0]),
   midi.NoteOnEvent(tick=0, channel=0, data=[76, 0]),
   midi.NoteOnEvent(tick=5, channel=0, data=[70, 0]),
   midi.NoteOnEvent(tick=10, channel=0, data=[61, 0]),
   midi.NoteOnEvent(tick=0, channel=0, data=[67, 0]),
   midi.NoteOnEvent(tick=0, channel=0, data=[55, 0]),
   midi.NoteOnEvent(tick=0, channel=0, data=[64, 0]),
   midi.ControlChangeEvent(tick=0, channel=0, data=[7, 120]),
   midi.NoteOnEvent(tick=5, channel=0, data=[68, 102]),
   midi.NoteOnEvent(tick=0, channel=0, data=[73, 102]),
   midi.NoteOnEvent(tick=0, channel=0, data=[76, 102]),
   midi.NoteOnEvent(tick=0, channel=0, data=[55, 103]),
   midi.NoteOnEvent(tick=0, channel=0, data=[64, 103]),
   midi.NoteOnEvent(tick=0, channel=0, data=[61, 103]),
   midi.NoteOnEvent(tick=0, channel=0, data=[67, 103]),
   midi.NoteOnEvent(tick=0, channel=0, data=[80, 107]),
   midi.ControlChangeEvent(tick=5, channel=0, data=[7, 120]),
   midi.NoteOnEvent(tick=15, channel=0, data=[80, 0]),
   midi.NoteOnEvent(tick=0, channel=0, data=[76, 0]),
   midi.NoteOnEvent(tick=0, channel=0, data=[68, 0]),
   midi.NoteOnEvent(tick=0, channel=0, data=[73, 0]),
   midi.NoteOnEvent(tick=15, channel=0, data=[64, 0]),
   midi.NoteOnEvent(tick=0, channel=0, data=[55, 0]),
   midi.NoteOnEvent(tick=0, channel=0, data=[61, 0]),
   midi.NoteOnEvent(tick=0, channel=0, data=[67, 0]),
   midi.NoteOnEvent(tick=5, channel=0, data=[69, 103]),
   midi.NoteOnEvent(tick=0, channel=0, data=[73, 103]),
   midi.NoteOnEvent(tick=0, channel=0, data=[76, 103]),
   midi.NoteOnEvent(tick=5, channel=0, data=[81, 103]),
   midi.NoteOnEvent(tick=0, channel=0, data=[64, 103]),
   midi.NoteOnEvent(tick=0, channel=0, data=[67, 103]),
   midi.NoteOnEvent(tick=0, channel=0, data=[55, 103]),
   midi.NoteOnEvent(tick=0, channel=0, data=[61, 103]),
   midi.NoteOnEvent(tick=15, channel=0, data=[81, 0]),
   midi.NoteOnEvent(tick=0, channel=0, data=[76, 0]),
   midi.NoteOnEvent(tick=0, channel=0, data=[69, 0]),
   midi.NoteOnEvent(tick=0, channel=0, data=[73, 0]),
   midi.NoteOnEvent(tick=15, channel=0, data=[64, 0]),
   midi.NoteOnEvent(tick=0, channel=0, data=[61, 0]),
   midi.NoteOnEvent(tick=0, channel=0, data=[67, 0]),
   midi.NoteOnEvent(tick=0, channel=0, data=[55, 0]),
   midi.NoteOnEvent(tick=5, channel=0, data=[82, 103]),
   midi.NoteOnEvent(tick=0, channel=0, data=[73, 103]),
   midi.NoteOnEvent(tick=0, channel=0, data=[76, 103]),
   midi.NoteOnEvent(tick=0, channel=0, data=[70, 106]),
   midi.NoteOnEvent(tick=0, channel=0, data=[64, 105]),
   midi.NoteOnEvent(tick=0, channel=0, data=[61, 105]),
   midi.NoteOnEvent(tick=5, channel=0, data=[67, 105]),
   midi.NoteOnEvent(tick=0, channel=0, data=[55, 105]),
   midi.NoteOnEvent(tick=15, channel=0, data=[76, 0]),
   midi.NoteOnEvent(tick=0, channel=0, data=[82, 0]),
   midi.NoteOnEvent(tick=0, channel=0, data=[73, 0]),
   midi.NoteOnEvent(tick=5, channel=0, data=[70, 0]),
   midi.NoteOnEvent(tick=10, channel=0, data=[64, 0]),
   midi.NoteOnEvent(tick=0, channel=0, data=[55, 0]),
   midi.NoteOnEvent(tick=0, channel=0, data=[67, 0]),
   midi.NoteOnEvent(tick=0, channel=0, data=[61, 0]),
   midi.ControlChangeEvent(tick=5, channel=0, data=[7, 119]),
   midi.NoteOnEvent(tick=0, channel=0, data=[68, 107]),
   midi.NoteOnEvent(tick=0, channel=0, data=[76, 106]),
   midi.NoteOnEvent(tick=0, channel=0, data=[73, 106]),
   midi.NoteOnEvent(tick=0, channel=0, data=[80, 108]),
   midi.NoteOnEvent(tick=0, channel=0, data=[55, 105]),
   midi.NoteOnEvent(tick=5, channel=0, data=[61, 105]),
   midi.NoteOnEvent(tick=0, channel=0, data=[67, 105]),
   midi.NoteOnEvent(tick=0, channel=0, data=[64, 105]),
   midi.NoteOnEvent(tick=10, channel=0, data=[68, 0]),
   midi.NoteOnEvent(tick=5, channel=0, data=[80, 0]),
   midi.NoteOnEvent(tick=0, channel=0, data=[76, 0]),
   midi.NoteOnEvent(tick=0, channel=0, data=[73, 0]),
   midi.NoteOnEvent(tick=15, channel=0, data=[55, 0]),
   midi.NoteOnEvent(tick=0, channel=0, data=[64, 0]),
   midi.NoteOnEvent(tick=0, channel=0, data=[61, 0]),
   midi.NoteOnEvent(tick=0, channel=0, data=[67, 0]),
   midi.NoteOnEvent(tick=5, channel=0, data=[69, 105]),
   midi.NoteOnEvent(tick=0, channel=0, data=[73, 105]),
   midi.NoteOnEvent(tick=0, channel=0, data=[76, 105]),
   midi.NoteOnEvent(tick=0, channel=0, data=[81, 104]),
   midi.NoteOnEvent(tick=0, channel=0, data=[61, 105]),
   midi.NoteOnEvent(tick=0, channel=0, data=[55, 105]),
   midi.NoteOnEvent(tick=5, channel=0, data=[67, 105]),
   midi.NoteOnEvent(tick=0, channel=0, data=[64, 105]),
   midi.NoteOnEvent(tick=15, channel=0, data=[81, 0]),
   midi.NoteOnEvent(tick=0, channel=0, data=[76, 0]),
   midi.NoteOnEvent(tick=0, channel=0, data=[69, 0]),
   midi.NoteOnEvent(tick=0, channel=0, data=[73, 0]),
   midi.NoteOnEvent(tick=15, channel=0, data=[61, 0]),
   midi.NoteOnEvent(tick=0, channel=0, data=[67, 0]),
   midi.NoteOnEvent(tick=0, channel=0, data=[55, 0]),
   midi.NoteOnEvent(tick=5, channel=0, data=[64, 0]),
   midi.NoteOnEvent(tick=0, channel=0, data=[82, 104]),
   midi.NoteOnEvent(tick=0, channel=0, data=[74, 104]),
   midi.NoteOnEvent(tick=0, channel=0, data=[77, 104]),
   midi.NoteOnEvent(tick=0, channel=0, data=[70, 108]),
   midi.NoteOnEvent(tick=0, channel=0, data=[57, 105]),
   midi.NoteOnEvent(tick=0, channel=0, data=[53, 105]),
   midi.NoteOnEvent(tick=5, channel=0, data=[65, 105]),
   midi.NoteOnEvent(tick=0, channel=0, data=[62, 105]),
   midi.NoteOnEvent(tick=15, channel=0, data=[82, 0]),
   midi.NoteOnEvent(tick=5, channel=0, data=[70, 0]),
   midi.NoteOnEvent(tick=0, channel=0, data=[74, 0]),
   midi.NoteOnEvent(tick=0, channel=0, data=[77, 0]),
   midi.NoteOnEvent(tick=10, channel=0, data=[57, 0]),
   midi.NoteOnEvent(tick=0, channel=0, data=[65, 0]),
   midi.NoteOnEvent(tick=0, channel=0, data=[53, 0]),
   midi.NoteOnEvent(tick=5, channel=0, data=[62, 0]),
   midi.NoteOnEvent(tick=5, channel=0, data=[68, 103]),
   midi.NoteOnEvent(tick=0, channel=0, data=[74, 103]),
   midi.NoteOnEvent(tick=0, channel=0, data=[77, 103]),
   midi.NoteOnEvent(tick=0, channel=0, data=[80, 107]),
   midi.NoteOnEvent(tick=0, channel=0, data=[57, 105]),
   midi.NoteOnEvent(tick=0, channel=0, data=[53, 105]),
   midi.NoteOnEvent(tick=0, channel=0, data=[65, 105]),
   midi.NoteOnEvent(tick=0, channel=0, data=[62, 105]),
   midi.NoteOnEvent(tick=15, channel=0, data=[80, 0]),
   midi.NoteOnEvent(tick=0, channel=0, data=[77, 0]),
   midi.NoteOnEvent(tick=0, channel=0, data=[68, 0]),
   midi.NoteOnEvent(tick=0, channel=0, data=[74, 0]),
   midi.NoteOnEvent(tick=15, channel=0, data=[57, 0]),
   midi.NoteOnEvent(tick=0, channel=0, data=[62, 0]),
   midi.NoteOnEvent(tick=0, channel=0, data=[53, 0]),
   midi.NoteOnEvent(tick=0, channel=0, data=[65, 0]),
   midi.NoteOnEvent(tick=5, channel=0, data=[69, 104]),
   midi.NoteOnEvent(tick=0, channel=0, data=[74, 104]),
   midi.NoteOnEvent(tick=0, channel=0, data=[77, 104]),
   midi.NoteOnEvent(tick=0, channel=0, data=[81, 106]),
   midi.NoteOnEvent(tick=0, channel=0, data=[57, 105]),
   midi.NoteOnEvent(tick=5, channel=0, data=[65, 105]),
   midi.NoteOnEvent(tick=0, channel=0, data=[62, 105]),
   midi.NoteOnEvent(tick=0, channel=0, data=[53, 105]),
   midi.NoteOnEvent(tick=30, channel=0, data=[53, 0]),
   midi.NoteOnEvent(tick=0, channel=0, data=[62, 0]),
   midi.NoteOnEvent(tick=0, channel=0, data=[57, 0]),
   midi.NoteOnEvent(tick=0, channel=0, data=[69, 0]),
   midi.NoteOnEvent(tick=0, channel=0, data=[65, 0]),
   midi.NoteOnEvent(tick=5, channel=0, data=[74, 0]),
   midi.NoteOnEvent(tick=0, channel=0, data=[81, 0]),
   midi.NoteOnEvent(tick=0, channel=0, data=[77, 0]),
   midi.NoteOnEvent(tick=0, channel=0, data=[35, 108]),
   midi.NoteOnEvent(tick=0, channel=0, data=[47, 108]),
   midi.ControlChangeEvent(tick=15, channel=0, data=[7, 118]),
   midi.NoteOnEvent(tick=15, channel=0, data=[47, 0]),
   midi.NoteOnEvent(tick=0, channel=0, data=[35, 0]),
   midi.ControlChangeEvent(tick=0, channel=0, data=[7, 118]),
   midi.NoteOnEvent(tick=5, channel=0, data=[82, 103]),
   midi.NoteOnEvent(tick=5, channel=0, data=[78, 103]),
   midi.NoteOnEvent(tick=0, channel=0, data=[75, 103]),
   midi.NoteOnEvent(tick=0, channel=0, data=[70, 109]),
   midi.NoteOnEvent(tick=0, channel=0, data=[57, 105]),
   midi.NoteOnEvent(tick=0, channel=0, data=[63, 105]),
   midi.NoteOnEvent(tick=0, channel=0, data=[69, 105]),
   midi.NoteOnEvent(tick=0, channel=0, data=[66, 105]),
   midi.NoteOnEvent(tick=15, channel=0, data=[70, 0]),
   midi.NoteOnEvent(tick=0, channel=0, data=[75, 0]),
   midi.NoteOnEvent(tick=0, channel=0, data=[82, 0]),
   midi.NoteOnEvent(tick=0, channel=0, data=[78, 0]),
   midi.NoteOnEvent(tick=15, channel=0, data=[57, 0]),
   midi.NoteOnEvent(tick=0, channel=0, data=[63, 0]),
   midi.NoteOnEvent(tick=5, channel=0, data=[66, 0]),
   midi.NoteOnEvent(tick=0, channel=0, data=[69, 0]),
   midi.NoteOnEvent(tick=0, channel=0, data=[57, 105]),
   midi.NoteOnEvent(tick=0, channel=0, data=[63, 105]),
   midi.NoteOnEvent(tick=0, channel=0, data=[66, 105]),
   midi.NoteOnEvent(tick=5, channel=0, data=[69, 105]),
   midi.NoteOnEvent(tick=0, channel=0, data=[71, 105]),
   midi.NoteOnEvent(tick=0, channel=0, data=[75, 105]),
   midi.NoteOnEvent(tick=0, channel=0, data=[78, 105]),
   midi.NoteOnEvent(tick=0, channel=0, data=[83, 107]),
   midi.NoteOnEvent(tick=20, channel=0, data=[83, 0]),
   midi.NoteOnEvent(tick=0, channel=0, data=[78, 0]),
   midi.NoteOnEvent(tick=0, channel=0, data=[71, 0]),
   midi.NoteOnEvent(tick=0, channel=0, data=[75, 0]),
   midi.NoteOnEvent(tick=10, channel=0, data=[57, 0]),
   midi.NoteOnEvent(tick=5, channel=0, data=[63, 0]),
   midi.NoteOnEvent(tick=0, channel=0, data=[66, 0]),
   midi.NoteOnEvent(tick=0, channel=0, data=[69, 0]),
   midi.NoteOnEvent(tick=5, channel=0, data=[84, 107]),
   midi.NoteOnEvent(tick=0, channel=0, data=[79, 103]),
   midi.NoteOnEvent(tick=0, channel=0, data=[76, 103]),
   midi.NoteOnEvent(tick=0, channel=0, data=[72, 106]),
   midi.NoteOnEvent(tick=0, channel=0, data=[67, 108]),
   midi.NoteOnEvent(tick=0, channel=0, data=[64, 108]),
   midi.NoteOnEvent(tick=0, channel=0, data=[59, 108]),
   midi.NoteOnEvent(tick=0, channel=0, data=[55, 108]),
   midi.NoteOnEvent(tick=15, channel=0, data=[76, 0]),
   midi.NoteOnEvent(tick=5, channel=0, data=[72, 0]),
   midi.NoteOnEvent(tick=0, channel=0, data=[84, 0]),
   midi.NoteOnEvent(tick=0, channel=0, data=[79, 0]),
   midi.NoteOnEvent(tick=15, channel=0, data=[67, 0]),
   midi.NoteOnEvent(tick=0, channel=0, data=[55, 0]),
   midi.NoteOnEvent(tick=0, channel=0, data=[64, 0]),
   midi.NoteOnEvent(tick=0, channel=0, data=[59, 0]),
   midi.NoteOnEvent(tick=0, channel=0, data=[82, 104]),
   midi.NoteOnEvent(tick=0, channel=0, data=[79, 104]),
   midi.NoteOnEvent(tick=0, channel=0, data=[76, 104]),
   midi.NoteOnEvent(tick=5, channel=0, data=[70, 107]),
   midi.NoteOnEvent(tick=0, channel=0, data=[59, 108]),
   midi.NoteOnEvent(tick=0, channel=0, data=[67, 108]),
   midi.NoteOnEvent(tick=0, channel=0, data=[55, 108]),
   midi.NoteOnEvent(tick=0, channel=0, data=[64, 108]),
   midi.NoteOnEvent(tick=15, channel=0, data=[79, 0]),
   midi.NoteOnEvent(tick=0, channel=0, data=[82, 0]),
   midi.NoteOnEvent(tick=5, channel=0, data=[70, 0]),
   midi.NoteOnEvent(tick=0, channel=0, data=[76, 0]),
   midi.NoteOnEvent(tick=10, channel=0, data=[59, 0]),
   midi.NoteOnEvent(tick=5, channel=0, data=[64, 0]),
   midi.NoteOnEvent(tick=0, channel=0, data=[67, 0]),
   midi.NoteOnEvent(tick=0, channel=0, data=[55, 0]),
   midi.NoteOnEvent(tick=5, channel=0, data=[83, 107]),
   midi.NoteOnEvent(tick=0, channel=0, data=[79, 105]),
   midi.NoteOnEvent(tick=0, channel=0, data=[76, 105]),
   midi.NoteOnEvent(tick=0, channel=0, data=[71, 105]),
   midi.NoteOnEvent(tick=0, channel=0, data=[67, 108]),
   midi.NoteOnEvent(tick=0, channel=0, data=[64, 108]),
   midi.NoteOnEvent(tick=0, channel=0, data=[59, 108]),
   midi.NoteOnEvent(tick=0, channel=0, data=[55, 108]),
   midi.NoteOnEvent(tick=15, channel=0, data=[79, 0]),
   midi.NoteOnEvent(tick=5, channel=0, data=[71, 0]),
   midi.NoteOnEvent(tick=0, channel=0, data=[83, 0]),
   midi.NoteOnEvent(tick=0, channel=0, data=[76, 0]),
   midi.NoteOnEvent(tick=10, channel=0, data=[55, 0]),
   midi.NoteOnEvent(tick=0, channel=0, data=[64, 0]),
   midi.NoteOnEvent(tick=5, channel=0, data=[59, 0]),
   midi.NoteOnEvent(tick=0, channel=0, data=[67, 0]),
   midi.ControlChangeEvent(tick=5, channel=0, data=[64, 127]),
   midi.NoteOnEvent(tick=0, channel=0, data=[38, 112]),
   midi.NoteOnEvent(tick=0, channel=0, data=[50, 112]),
   midi.NoteOnEvent(tick=35, channel=0, data=[50, 0]),
   midi.NoteOnEvent(tick=0, channel=0, data=[38, 0]),
   midi.NoteOnEvent(tick=5, channel=0, data=[71, 105]),
   midi.NoteOnEvent(tick=0, channel=0, data=[69, 105]),
   midi.NoteOnEvent(tick=0, channel=0, data=[59, 105]),
   midi.NoteOnEvent(tick=0, channel=0, data=[65, 105]),
   midi.NoteOnEvent(tick=0, channel=0, data=[73, 105]),
   midi.NoteOnEvent(tick=5, channel=0, data=[85, 109]),
   midi.NoteOnEvent(tick=15, channel=0, data=[85, 0]),
   midi.NoteOnEvent(tick=0, channel=0, data=[73, 0]),
   midi.NoteOnEvent(tick=15, channel=0, data=[59, 0]),
   midi.NoteOnEvent(tick=0, channel=0, data=[71, 0]),
   midi.NoteOnEvent(tick=0, channel=0, data=[69, 0]),
   midi.NoteOnEvent(tick=0, channel=0, data=[65, 0]),
   midi.NoteOnEvent(tick=5, channel=0, data=[71, 105]),
   midi.NoteOnEvent(tick=0, channel=0, data=[59, 105]),
   midi.NoteOnEvent(tick=0, channel=0, data=[69, 105]),
   midi.NoteOnEvent(tick=0, channel=0, data=[65, 105]),
   midi.NoteOnEvent(tick=5, channel=0, data=[86, 108]),
   midi.NoteOnEvent(tick=0, channel=0, data=[74, 111]),
   midi.NoteOnEvent(tick=10, channel=0, data=[86, 0]),
   midi.NoteOnEvent(tick=5, channel=0, data=[74, 0]),
   midi.NoteOnEvent(tick=10, channel=0, data=[69, 0]),
   midi.NoteOnEvent(tick=0, channel=0, data=[59, 0]),
   midi.NoteOnEvent(tick=5, channel=0, data=[71, 0]),
   midi.NoteOnEvent(tick=0, channel=0, data=[65, 0]),
   midi.NoteOnEvent(tick=5, channel=0, data=[59, 105]),
   midi.NoteOnEvent(tick=0, channel=0, data=[65, 105]),
   midi.NoteOnEvent(tick=0, channel=0, data=[71, 105]),
   midi.NoteOnEvent(tick=0, channel=0, data=[69, 105]),
   midi.NoteOnEvent(tick=0, channel=0, data=[76, 109]),
   midi.NoteOnEvent(tick=0, channel=0, data=[88, 115]),
   midi.NoteOnEvent(tick=30, channel=0, data=[88, 0]),
   midi.NoteOnEvent(tick=0, channel=0, data=[65, 0]),
   midi.NoteOnEvent(tick=0, channel=0, data=[71, 0]),
   midi.NoteOnEvent(tick=0, channel=0, data=[59, 0]),
   midi.NoteOnEvent(tick=0, channel=0, data=[76, 0]),
   midi.NoteOnEvent(tick=0, channel=0, data=[69, 0]),
   midi.NoteOnEvent(tick=10, channel=0, data=[89, 111]),
   midi.NoteOnEvent(tick=0, channel=0, data=[77, 111]),
   midi.NoteOnEvent(tick=0, channel=0, data=[59, 105]),
   midi.NoteOnEvent(tick=5, channel=0, data=[71, 105]),
   midi.NoteOnEvent(tick=0, channel=0, data=[69, 105]),
   midi.NoteOnEvent(tick=0, channel=0, data=[65, 105]),
   midi.NoteOnEvent(tick=5, channel=0, data=[77, 0]),
   midi.NoteOnEvent(tick=10, channel=0, data=[89, 0]),
   midi.NoteOnEvent(tick=15, channel=0, data=[59, 0]),
   midi.NoteOnEvent(tick=5, channel=0, data=[71, 0]),
   midi.NoteOnEvent(tick=0, channel=0, data=[69, 0]),
   midi.NoteOnEvent(tick=0, channel=0, data=[65, 0]),
   midi.NoteOnEvent(tick=0, channel=0, data=[80, 116]),
   midi.NoteOnEvent(tick=0, channel=0, data=[92, 111]),
   midi.NoteOnEvent(tick=0, channel=0, data=[71, 105]),
   midi.NoteOnEvent(tick=0, channel=0, data=[69, 105]),
   midi.NoteOnEvent(tick=0, channel=0, data=[59, 105]),
   midi.NoteOnEvent(tick=0, channel=0, data=[65, 105]),
   midi.NoteOnEvent(tick=35, channel=0, data=[65, 0]),
   midi.NoteOnEvent(tick=0, channel=0, data=[69, 0]),
   midi.NoteOnEvent(tick=0, channel=0, data=[71, 0]),
   midi.NoteOnEvent(tick=0, channel=0, data=[59, 0]),
   midi.NoteOnEvent(tick=5, channel=0, data=[80, 0]),
   midi.NoteOnEvent(tick=0, channel=0, data=[92, 0]),
   midi.NoteOnEvent(tick=0, channel=0, data=[93, 109]),
   midi.NoteOnEvent(tick=0, channel=0, data=[81, 111]),
   midi.NoteOnEvent(tick=0, channel=0, data=[71, 105]),
   midi.NoteOnEvent(tick=5, channel=0, data=[65, 105]),
   midi.NoteOnEvent(tick=0, channel=0, data=[59, 105]),
   midi.NoteOnEvent(tick=0, channel=0, data=[69, 105]),
   midi.NoteOnEvent(tick=10, channel=0, data=[81, 0]),
   midi.NoteOnEvent(tick=0, channel=0, data=[93, 0]),
   midi.NoteOnEvent(tick=20, channel=0, data=[65, 0]),
   midi.NoteOnEvent(tick=0, channel=0, data=[71, 0]),
   midi.NoteOnEvent(tick=5, channel=0, data=[69, 0]),
   midi.NoteOnEvent(tick=0, channel=0, data=[59, 0]),
   midi.NoteOnEvent(tick=0, channel=0, data=[97, 109]),
   midi.NoteOnEvent(tick=0, channel=0, data=[85, 113]),
   midi.NoteOnEvent(tick=0, channel=0, data=[59, 105]),
   midi.NoteOnEvent(tick=0, channel=0, data=[71, 105]),
   midi.NoteOnEvent(tick=5, channel=0, data=[69, 105]),
   midi.NoteOnEvent(tick=0, channel=0, data=[65, 105]),
   midi.NoteOnEvent(tick=10, channel=0, data=[85, 0]),
   midi.NoteOnEvent(tick=0, channel=0, data=[97, 0]),
   midi.NoteOnEvent(tick=25, channel=0, data=[69, 0]),
   midi.NoteOnEvent(tick=0, channel=0, data=[71, 0]),
   midi.NoteOnEvent(tick=0, channel=0, data=[65, 0]),
   midi.NoteOnEvent(tick=0, channel=0, data=[59, 0]),
   midi.NoteOnEvent(tick=0, channel=0, data=[86, 106]),
   midi.NoteOnEvent(tick=0, channel=0, data=[98, 107]),
   midi.NoteOnEvent(tick=0, channel=0, data=[71, 105]),
   midi.NoteOnEvent(tick=5, channel=0, data=[59, 105]),
   midi.NoteOnEvent(tick=0, channel=0, data=[65, 105]),
   midi.NoteOnEvent(tick=0, channel=0, data=[69, 105]),
   midi.NoteOnEvent(tick=5, channel=0, data=[86, 0]),
   midi.NoteOnEvent(tick=5, channel=0, data=[98, 0]),
   midi.NoteOnEvent(tick=20, channel=0, data=[71, 0]),
   midi.NoteOnEvent(tick=0, channel=0, data=[59, 0]),
   midi.NoteOnEvent(tick=0, channel=0, data=[69, 0]),
   midi.NoteOnEvent(tick=5, channel=0, data=[65, 0]),
   midi.NoteOnEvent(tick=0, channel=0, data=[88, 111]),
   midi.NoteOnEvent(tick=0, channel=0, data=[100, 113]),
   midi.NoteOnEvent(tick=0, channel=0, data=[71, 105]),
   midi.NoteOnEvent(tick=5, channel=0, data=[59, 105]),
   midi.NoteOnEvent(tick=0, channel=0, data=[69, 105]),
   midi.NoteOnEvent(tick=0, channel=0, data=[65, 105]),
   midi.NoteOnEvent(tick=5, channel=0, data=[100, 0]),
   midi.NoteOnEvent(tick=5, channel=0, data=[88, 0]),
   midi.NoteOnEvent(tick=20, channel=0, data=[69, 0]),
   midi.NoteOnEvent(tick=0, channel=0, data=[59, 0]),
   midi.NoteOnEvent(tick=0, channel=0, data=[65, 0]),
   midi.NoteOnEvent(tick=0, channel=0, data=[71, 0]),
   midi.NoteOnEvent(tick=5, channel=0, data=[101, 107]),
   midi.NoteOnEvent(tick=0, channel=0, data=[89, 111]),
   midi.NoteOnEvent(tick=0, channel=0, data=[71, 105]),
   midi.NoteOnEvent(tick=0, channel=0, data=[59, 105]),
   midi.NoteOnEvent(tick=0, channel=0, data=[69, 105]),
   midi.NoteOnEvent(tick=0, channel=0, data=[65, 105]),
   midi.NoteOnEvent(tick=15, channel=0, data=[89, 0]),
   midi.NoteOnEvent(tick=0, channel=0, data=[101, 0]),
   midi.NoteOnEvent(tick=15, channel=0, data=[71, 0]),
   midi.NoteOnEvent(tick=5, channel=0, data=[59, 0]),
   midi.NoteOnEvent(tick=0, channel=0, data=[69, 0]),
   midi.NoteOnEvent(tick=0, channel=0, data=[65, 0]),
   midi.NoteOnEvent(tick=5, channel=0, data=[104, 112]),
   midi.NoteOnEvent(tick=0, channel=0, data=[92, 109]),
   midi.NoteOnEvent(tick=0, channel=0, data=[71, 105]),
   midi.NoteOnEvent(tick=0, channel=0, data=[69, 105]),
   midi.NoteOnEvent(tick=0, channel=0, data=[65, 105]),
   midi.NoteOnEvent(tick=0, channel=0, data=[59, 105]),
   midi.NoteOnEvent(tick=15, channel=0, data=[92, 0]),
   midi.NoteOnEvent(tick=0, channel=0, data=[104, 0]),
   midi.NoteOnEvent(tick=10, channel=0, data=[65, 0]),
   midi.NoteOnEvent(tick=5, channel=0, data=[59, 0]),
   midi.NoteOnEvent(tick=5, channel=0, data=[69, 0]),
   midi.NoteOnEvent(tick=0, channel=0, data=[71, 0]),
   midi.NoteOnEvent(tick=5, channel=0, data=[105, 112]),
   midi.NoteOnEvent(tick=0, channel=0, data=[93, 107]),
   midi.NoteOnEvent(tick=0, channel=0, data=[71, 107]),
   midi.NoteOnEvent(tick=0, channel=0, data=[69, 107]),
   midi.NoteOnEvent(tick=0, channel=0, data=[65, 107]),
   midi.NoteOnEvent(tick=0, channel=0, data=[59, 107]),
   midi.NoteOnEvent(tick=15, channel=0, data=[93, 0]),
   midi.NoteOnEvent(tick=0, channel=0, data=[105, 0]),
   midi.NoteOnEvent(tick=10, channel=0, data=[69, 0]),
   midi.NoteOnEvent(tick=5, channel=0, data=[71, 0]),
   midi.NoteOnEvent(tick=0, channel=0, data=[59, 0]),
   midi.NoteOnEvent(tick=0, channel=0, data=[65, 0]),
   midi.NoteOnEvent(tick=10, channel=0, data=[88, 112]),
   midi.NoteOnEvent(tick=0, channel=0, data=[100, 111]),
   midi.NoteOnEvent(tick=0, channel=0, data=[59, 107]),
   midi.NoteOnEvent(tick=0, channel=0, data=[71, 107]),
   midi.NoteOnEvent(tick=0, channel=0, data=[69, 107]),
   midi.NoteOnEvent(tick=0, channel=0, data=[65, 107]),
   midi.NoteOnEvent(tick=10, channel=0, data=[88, 0]),
   midi.NoteOnEvent(tick=5, channel=0, data=[100, 0]),
   midi.NoteOnEvent(tick=15, channel=0, data=[65, 0]),
   midi.NoteOnEvent(tick=5, channel=0, data=[71, 0]),
   midi.NoteOnEvent(tick=0, channel=0, data=[69, 0]),
   midi.NoteOnEvent(tick=0, channel=0, data=[59, 0]),
   midi.NoteOnEvent(tick=0, channel=0, data=[101, 109]),
   midi.NoteOnEvent(tick=10, channel=0, data=[89, 109]),
   midi.NoteOnEvent(tick=0, channel=0, data=[71, 107]),
   midi.NoteOnEvent(tick=0, channel=0, data=[59, 107]),
   midi.NoteOnEvent(tick=0, channel=0, data=[65, 107]),
   midi.NoteOnEvent(tick=0, channel=0, data=[69, 107]),
   midi.NoteOnEvent(tick=10, channel=0, data=[101, 0]),
   midi.NoteOnEvent(tick=5, channel=0, data=[89, 0]),
   midi.NoteOnEvent(tick=15, channel=0, data=[65, 0]),
   midi.NoteOnEvent(tick=0, channel=0, data=[59, 0]),
   midi.NoteOnEvent(tick=0, channel=0, data=[69, 0]),
   midi.NoteOnEvent(tick=0, channel=0, data=[71, 0]),
   midi.NoteOnEvent(tick=5, channel=0, data=[71, 107]),
   midi.NoteOnEvent(tick=0, channel=0, data=[59, 107]),
   midi.NoteOnEvent(tick=5, channel=0, data=[69, 107]),
   midi.NoteOnEvent(tick=0, channel=0, data=[65, 107]),
   midi.NoteOnEvent(tick=0, channel=0, data=[85, 109]),
   midi.NoteOnEvent(tick=0, channel=0, data=[97, 108]),
   midi.NoteOnEvent(tick=10, channel=0, data=[85, 0]),
   midi.NoteOnEvent(tick=5, channel=0, data=[97, 0]),
   midi.NoteOnEvent(tick=10, channel=0, data=[71, 0]),
   midi.NoteOnEvent(tick=10, channel=0, data=[59, 0]),
   midi.NoteOnEvent(tick=0, channel=0, data=[69, 0]),
   midi.NoteOnEvent(tick=0, channel=0, data=[65, 0]),
   midi.NoteOnEvent(tick=0, channel=0, data=[71, 107]),
   midi.NoteOnEvent(tick=0, channel=0, data=[59, 107]),
   midi.NoteOnEvent(tick=0, channel=0, data=[65, 107]),
   midi.NoteOnEvent(tick=0, channel=0, data=[69, 107]),
   midi.NoteOnEvent(tick=0, channel=0, data=[86, 109]),
   midi.NoteOnEvent(tick=0, channel=0, data=[98, 108]),
   midi.NoteOnEvent(tick=15, channel=0, data=[86, 0]),
   midi.NoteOnEvent(tick=5, channel=0, data=[98, 0]),
   midi.NoteOnEvent(tick=15, channel=0, data=[65, 0]),
   midi.NoteOnEvent(tick=0, channel=0, data=[71, 0]),
   midi.NoteOnEvent(tick=0, channel=0, data=[59, 0]),
   midi.NoteOnEvent(tick=0, channel=0, data=[69, 0]),
   midi.NoteOnEvent(tick=5, channel=0, data=[59, 107]),
   midi.NoteOnEvent(tick=0, channel=0, data=[71, 107]),
   midi.NoteOnEvent(tick=0, channel=0, data=[65, 107]),
   midi.NoteOnEvent(tick=0, channel=0, data=[69, 107]),
   midi.NoteOnEvent(tick=5, channel=0, data=[92, 108]),
   midi.NoteOnEvent(tick=0, channel=0, data=[80, 113]),
   midi.NoteOnEvent(tick=10, channel=0, data=[92, 0]),
   midi.NoteOnEvent(tick=5, channel=0, data=[80, 0]),
   midi.NoteOnEvent(tick=10, channel=0, data=[59, 0]),
   midi.NoteOnEvent(tick=0, channel=0, data=[65, 0]),
   midi.NoteOnEvent(tick=0, channel=0, data=[71, 0]),
   midi.NoteOnEvent(tick=5, channel=0, data=[69, 0]),
   midi.NoteOnEvent(tick=5, channel=0, data=[93, 109]),
   midi.NoteOnEvent(tick=0, channel=0, data=[81, 107]),
   midi.NoteOnEvent(tick=0, channel=0, data=[71, 107]),
   midi.NoteOnEvent(tick=0, channel=0, data=[69, 107]),
   midi.NoteOnEvent(tick=0, channel=0, data=[65, 107]),
   midi.NoteOnEvent(tick=0, channel=0, data=[59, 107]),
   midi.NoteOnEvent(tick=10, channel=0, data=[93, 0]),
   midi.NoteOnEvent(tick=5, channel=0, data=[81, 0]),
   midi.NoteOnEvent(tick=15, channel=0, data=[65, 0]),
   midi.NoteOnEvent(tick=0, channel=0, data=[69, 0]),
   midi.NoteOnEvent(tick=0, channel=0, data=[59, 0]),
   midi.NoteOnEvent(tick=0, channel=0, data=[71, 0]),
   midi.NoteOnEvent(tick=0, channel=0, data=[59, 107]),
   midi.NoteOnEvent(tick=1, channel=0, data=[59, 0]),
   midi.NoteOnEvent(tick=4, channel=0, data=[71, 107]),
   midi.NoteOnEvent(tick=0, channel=0, data=[69, 107]),
   midi.NoteOnEvent(tick=0, channel=0, data=[65, 107]),
   midi.NoteOnEvent(tick=0, channel=0, data=[76, 107]),
   midi.NoteOnEvent(tick=0, channel=0, data=[88, 107]),
   midi.NoteOnEvent(tick=15, channel=0, data=[76, 0]),
   midi.NoteOnEvent(tick=5, channel=0, data=[88, 0]),
   midi.NoteOnEvent(tick=15, channel=0, data=[71, 0]),
   midi.NoteOnEvent(tick=0, channel=0, data=[69, 0]),
   midi.NoteOnEvent(tick=0, channel=0, data=[65, 0]),
   midi.NoteOnEvent(tick=5, channel=0, data=[89, 106]),
   midi.NoteOnEvent(tick=0, channel=0, data=[77, 107]),
   midi.NoteOnEvent(tick=0, channel=0, data=[71, 107]),
   midi.NoteOnEvent(tick=0, channel=0, data=[69, 107]),
   midi.NoteOnEvent(tick=0, channel=0, data=[65, 107]),
   midi.NoteOnEvent(tick=0, channel=0, data=[59, 107]),
   midi.NoteOnEvent(tick=15, channel=0, data=[89, 0]),
   midi.NoteOnEvent(tick=5, channel=0, data=[77, 0]),
   midi.NoteOnEvent(tick=10, channel=0, data=[65, 0]),
   midi.NoteOnEvent(tick=10, channel=0, data=[69, 0]),
   midi.NoteOnEvent(tick=0, channel=0, data=[59, 0]),
   midi.NoteOnEvent(tick=0, channel=0, data=[71, 0]),
   midi.NoteOnEvent(tick=5, channel=0, data=[85, 108]),
   midi.NoteOnEvent(tick=0, channel=0, data=[73, 109]),
   midi.NoteOnEvent(tick=0, channel=0, data=[71, 107]),
   midi.NoteOnEvent(tick=0, channel=0, data=[69, 107]),
   midi.NoteOnEvent(tick=0, channel=0, data=[65, 107]),
   midi.NoteOnEvent(tick=0, channel=0, data=[59, 107]),
   midi.NoteOnEvent(tick=15, channel=0, data=[73, 0]),
   midi.NoteOnEvent(tick=0, channel=0, data=[85, 0]),
   midi.NoteOnEvent(tick=20, channel=0, data=[65, 0]),
   midi.NoteOnEvent(tick=0, channel=0, data=[69, 0]),
   midi.NoteOnEvent(tick=0, channel=0, data=[59, 0]),
   midi.NoteOnEvent(tick=0, channel=0, data=[71, 0]),
   midi.NoteOnEvent(tick=0, channel=0, data=[74, 112]),
   midi.NoteOnEvent(tick=0, channel=0, data=[86, 111]),
   midi.NoteOnEvent(tick=0, channel=0, data=[59, 107]),
   midi.NoteOnEvent(tick=0, channel=0, data=[71, 107]),
   midi.NoteOnEvent(tick=0, channel=0, data=[69, 107]),
   midi.NoteOnEvent(tick=0, channel=0, data=[65, 107]),
   midi.NoteOnEvent(tick=15, channel=0, data=[86, 0]),
   midi.NoteOnEvent(tick=0, channel=0, data=[74, 0]),
   midi.NoteOnEvent(tick=20, channel=0, data=[69, 0]),
   midi.NoteOnEvent(tick=0, channel=0, data=[71, 0]),
   midi.NoteOnEvent(tick=0, channel=0, data=[65, 0]),
   midi.NoteOnEvent(tick=0, channel=0, data=[59, 0]),
   midi.NoteOnEvent(tick=0, channel=0, data=[81, 115]),
   midi.NoteOnEvent(tick=0, channel=0, data=[93, 112]),
   midi.NoteOnEvent(tick=5, channel=0, data=[71, 107]),
   midi.NoteOnEvent(tick=0, channel=0, data=[69, 107]),
   midi.NoteOnEvent(tick=0, channel=0, data=[65, 107]),
   midi.NoteOnEvent(tick=0, channel=0, data=[59, 107]),
   midi.NoteOnEvent(tick=10, channel=0, data=[81, 0]),
   midi.NoteOnEvent(tick=5, channel=0, data=[93, 0]),
   midi.NoteOnEvent(tick=20, channel=0, data=[71, 0]),
   midi.NoteOnEvent(tick=0, channel=0, data=[59, 0]),
   midi.NoteOnEvent(tick=5, channel=0, data=[69, 0]),
   midi.NoteOnEvent(tick=0, channel=0, data=[65, 0]),
   midi.NoteOnEvent(tick=5, channel=0, data=[81, 117]),
   midi.NoteOnEvent(tick=0, channel=0, data=[93, 116]),
   midi.NoteOnEvent(tick=0, channel=0, data=[59, 107]),
   midi.NoteOnEvent(tick=0, channel=0, data=[71, 107]),
   midi.NoteOnEvent(tick=0, channel=0, data=[65, 107]),
   midi.NoteOnEvent(tick=0, channel=0, data=[69, 107]),
   midi.NoteOnEvent(tick=10, channel=0, data=[81, 0]),
   midi.NoteOnEvent(tick=5, channel=0, data=[93, 0]),
   midi.NoteOnEvent(tick=15, channel=0, data=[59, 0]),
   midi.NoteOnEvent(tick=0, channel=0, data=[69, 0]),
   midi.NoteOnEvent(tick=5, channel=0, data=[71, 0]),
   midi.NoteOnEvent(tick=0, channel=0, data=[65, 0]),
   midi.NoteOnEvent(tick=85, channel=0, data=[69, 112]),
   midi.NoteOnEvent(tick=0, channel=0, data=[59, 113]),
   midi.NoteOnEvent(tick=5, channel=0, data=[65, 106]),
   midi.NoteOnEvent(tick=0, channel=0, data=[57, 107]),
   midi.NoteOnEvent(tick=0, channel=0, data=[50, 107]),
   midi.NoteOnEvent(tick=0, channel=0, data=[43, 107]),
   midi.NoteOnEvent(tick=25, channel=0, data=[65, 0]),
   midi.NoteOnEvent(tick=0, channel=0, data=[59, 0]),
   midi.NoteOnEvent(tick=5, channel=0, data=[57, 0]),
   midi.NoteOnEvent(tick=0, channel=0, data=[50, 0]),
   midi.NoteOnEvent(tick=0, channel=0, data=[43, 0]),
   midi.NoteOnEvent(tick=5, channel=0, data=[69, 0]),
   midi.NoteOnEvent(tick=80, channel=0, data=[71, 114]),
   midi.NoteOnEvent(tick=0, channel=0, data=[81, 114]),
   midi.NoteOnEvent(tick=5, channel=0, data=[77, 111]),
   midi.NoteOnEvent(tick=0, channel=0, data=[69, 107]),
   midi.NoteOnEvent(tick=0, channel=0, data=[55, 107]),
   midi.NoteOnEvent(tick=0, channel=0, data=[62, 107]),
   midi.NoteOnEvent(tick=25, channel=0, data=[77, 0]),
   midi.NoteOnEvent(tick=0, channel=0, data=[81, 0]),
   midi.NoteOnEvent(tick=5, channel=0, data=[69, 0]),
   midi.NoteOnEvent(tick=0, channel=0, data=[71, 0]),
   midi.NoteOnEvent(tick=0, channel=0, data=[62, 0]),
   midi.NoteOnEvent(tick=0, channel=0, data=[55, 0]),
   midi.NoteOnEvent(tick=85, channel=0, data=[69, 108]),
   midi.NoteOnEvent(tick=0, channel=0, data=[59, 116]),
   midi.NoteOnEvent(tick=0, channel=0, data=[43, 107]),
   midi.NoteOnEvent(tick=0, channel=0, data=[57, 107]),
   midi.NoteOnEvent(tick=0, channel=0, data=[50, 107]),
   midi.NoteOnEvent(tick=0, channel=0, data=[65, 108]),
   midi.NoteOnEvent(tick=25, channel=0, data=[65, 0]),
   midi.NoteOnEvent(tick=0, channel=0, data=[59, 0]),
   midi.NoteOnEvent(tick=5, channel=0, data=[57, 0]),
   midi.NoteOnEvent(tick=0, channel=0, data=[43, 0]),
   midi.NoteOnEvent(tick=5, channel=0, data=[69, 0]),
   midi.NoteOnEvent(tick=0, channel=0, data=[50, 0]),
   midi.NoteOnEvent(tick=85, channel=0, data=[81, 113]),
   midi.NoteOnEvent(tick=0, channel=0, data=[77, 111]),
   midi.NoteOnEvent(tick=0, channel=0, data=[71, 116]),
   midi.NoteOnEvent(tick=0, channel=0, data=[69, 107]),
   midi.NoteOnEvent(tick=0, channel=0, data=[62, 107]),
   midi.NoteOnEvent(tick=0, channel=0, data=[55, 107]),
   midi.NoteOnEvent(tick=20, channel=0, data=[71, 0]),
   midi.NoteOnEvent(tick=0, channel=0, data=[77, 0]),
   midi.NoteOnEvent(tick=10, channel=0, data=[69, 0]),
   midi.NoteOnEvent(tick=0, channel=0, data=[81, 0]),
   midi.NoteOnEvent(tick=0, channel=0, data=[55, 0]),
   midi.NoteOnEvent(tick=0, channel=0, data=[62, 0]),
   midi.NoteOnEvent(tick=90, channel=0, data=[83, 119]),
   midi.NoteOnEvent(tick=0, channel=0, data=[93, 111]),
   midi.NoteOnEvent(tick=0, channel=0, data=[89, 113]),
   midi.NoteOnEvent(tick=0, channel=0, data=[81, 107]),
   midi.NoteOnEvent(tick=0, channel=0, data=[67, 107]),
   midi.NoteOnEvent(tick=0, channel=0, data=[74, 107]),
   midi.NoteOnEvent(tick=30, channel=0, data=[89, 0]),
   midi.NoteOnEvent(tick=0, channel=0, data=[83, 0]),
   midi.NoteOnEvent(tick=0, channel=0, data=[93, 0]),
   midi.NoteOnEvent(tick=5, channel=0, data=[81, 0]),
   midi.NoteOnEvent(tick=0, channel=0, data=[67, 0]),
   midi.NoteOnEvent(tick=0, channel=0, data=[74, 0]),
   midi.NoteOnEvent(tick=85, channel=0, data=[71, 116]),
   midi.NoteOnEvent(tick=0, channel=0, data=[81, 111]),
   midi.NoteOnEvent(tick=0, channel=0, data=[77, 113]),
   midi.NoteOnEvent(tick=5, channel=0, data=[69, 107]),
   midi.NoteOnEvent(tick=0, channel=0, data=[55, 107]),
   midi.NoteOnEvent(tick=0, channel=0, data=[62, 107]),
   midi.NoteOnEvent(tick=30, channel=0, data=[55, 0]),
   midi.NoteOnEvent(tick=0, channel=0, data=[69, 0]),
   midi.NoteOnEvent(tick=0, channel=0, data=[81, 0]),
   midi.NoteOnEvent(tick=5, channel=0, data=[77, 0]),
   midi.NoteOnEvent(tick=0, channel=0, data=[62, 0]),
   midi.NoteOnEvent(tick=10, channel=0, data=[71, 0]),
   midi.NoteOnEvent(tick=70, channel=0, data=[69, 112]),
   midi.NoteOnEvent(tick=0, channel=0, data=[65, 108]),
   midi.NoteOnEvent(tick=0, channel=0, data=[59, 119]),
   midi.NoteOnEvent(tick=0, channel=0, data=[57, 107]),
   midi.NoteOnEvent(tick=0, channel=0, data=[43, 107]),
   midi.NoteOnEvent(tick=5, channel=0, data=[50, 107]),
   midi.NoteOnEvent(tick=30, channel=0, data=[50, 0]),
   midi.NoteOnEvent(tick=0, channel=0, data=[57, 0]),
   midi.NoteOnEvent(tick=0, channel=0, data=[43, 0]),
   midi.NoteOnEvent(tick=10, channel=0, data=[65, 0]),
   midi.NoteOnEvent(tick=0, channel=0, data=[59, 0]),
   midi.NoteOnEvent(tick=5, channel=0, data=[69, 0]),
   midi.NoteOnEvent(tick=70, channel=0, data=[50, 108]),
   midi.NoteOnEvent(tick=0, channel=0, data=[53, 108]),
   midi.NoteOnEvent(tick=0, channel=0, data=[31, 107]),
   midi.NoteOnEvent(tick=0, channel=0, data=[59, 108]),
   midi.NoteOnEvent(tick=0, channel=0, data=[43, 107]),
   midi.NoteOnEvent(tick=25, channel=0, data=[50, 0]),
   midi.NoteOnEvent(tick=0, channel=0, data=[60, 98]),
   midi.NoteOnEvent(tick=5, channel=0, data=[53, 0]),
   midi.NoteOnEvent(tick=5, channel=0, data=[43, 0]),
   midi.NoteOnEvent(tick=0, channel=0, data=[59, 0]),
   midi.NoteOnEvent(tick=0, channel=0, data=[31, 0]),
   midi.NoteOnEvent(tick=10, channel=0, data=[50, 98]),
   midi.NoteOnEvent(tick=0, channel=0, data=[59, 98]),
   midi.NoteOnEvent(tick=5, channel=0, data=[53, 98]),
   midi.NoteOnEvent(tick=5, channel=0, data=[60, 0]),
   midi.NoteOnEvent(tick=15, channel=0, data=[60, 98]),
   midi.NoteOnEvent(tick=10, channel=0, data=[50, 0]),
   midi.NoteOnEvent(tick=0, channel=0, data=[53, 0]),
   midi.NoteOnEvent(tick=5, channel=0, data=[59, 0]),
   midi.NoteOnEvent(tick=10, channel=0, data=[59, 98]),
   midi.NoteOnEvent(tick=0, channel=0, data=[50, 98]),
   midi.NoteOnEvent(tick=0, channel=0, data=[53, 98]),
   midi.NoteOnEvent(tick=10, channel=0, data=[60, 0]),
   midi.NoteOnEvent(tick=15, channel=0, data=[62, 108]),
   midi.NoteOnEvent(tick=0, channel=0, data=[65, 108]),
   midi.NoteOnEvent(tick=0, channel=0, data=[71, 108]),
   midi.NoteOnEvent(tick=5, channel=0, data=[53, 0]),
   midi.NoteOnEvent(tick=5, channel=0, data=[59, 0]),
   midi.NoteOnEvent(tick=0, channel=0, data=[50, 0]),
   midi.NoteOnEvent(tick=10, channel=0, data=[72, 98]),
   midi.NoteOnEvent(tick=10, channel=0, data=[62, 0]),
   midi.NoteOnEvent(tick=0, channel=0, data=[71, 0]),
   midi.NoteOnEvent(tick=0, channel=0, data=[65, 0]),
   midi.NoteOnEvent(tick=20, channel=0, data=[62, 98]),
   midi.NoteOnEvent(tick=0, channel=0, data=[71, 98]),
   midi.NoteOnEvent(tick=0, channel=0, data=[65, 98]),
   midi.NoteOnEvent(tick=5, channel=0, data=[72, 0]),
   midi.NoteOnEvent(tick=20, channel=0, data=[72, 98]),
   midi.NoteOnEvent(tick=10, channel=0, data=[62, 0]),
   midi.NoteOnEvent(tick=0, channel=0, data=[65, 0]),
   midi.NoteOnEvent(tick=0, channel=0, data=[71, 0]),
   midi.NoteOnEvent(tick=10, channel=0, data=[71, 98]),
   midi.NoteOnEvent(tick=0, channel=0, data=[62, 98]),
   midi.NoteOnEvent(tick=0, channel=0, data=[65, 98]),
   midi.NoteOnEvent(tick=10, channel=0, data=[72, 0]),
   midi.NoteOnEvent(tick=10, channel=0, data=[65, 0]),
   midi.NoteOnEvent(tick=5, channel=0, data=[62, 0]),
   midi.NoteOnEvent(tick=0, channel=0, data=[71, 0]),
   midi.NoteOnEvent(tick=0, channel=0, data=[83, 111]),
   midi.NoteOnEvent(tick=0, channel=0, data=[77, 111]),
   midi.NoteOnEvent(tick=0, channel=0, data=[74, 111]),
   midi.NoteOnEvent(tick=25, channel=0, data=[84, 98]),
   midi.NoteOnEvent(tick=5, channel=0, data=[83, 0]),
   midi.NoteOnEvent(tick=5, channel=0, data=[77, 0]),
   midi.NoteOnEvent(tick=0, channel=0, data=[74, 0]),
   midi.NoteOnEvent(tick=15, channel=0, data=[74, 98]),
   midi.NoteOnEvent(tick=0, channel=0, data=[83, 98]),
   midi.NoteOnEvent(tick=0, channel=0, data=[77, 98]),
   midi.NoteOnEvent(tick=10, channel=0, data=[84, 0]),
   midi.NoteOnEvent(tick=10, channel=0, data=[84, 98]),
   midi.NoteOnEvent(tick=10, channel=0, data=[74, 0]),
   midi.NoteOnEvent(tick=0, channel=0, data=[83, 0]),
   midi.NoteOnEvent(tick=5, channel=0, data=[77, 0]),
   midi.NoteOnEvent(tick=10, channel=0, data=[83, 98]),
   midi.NoteOnEvent(tick=0, channel=0, data=[77, 98]),
   midi.NoteOnEvent(tick=0, channel=0, data=[74, 98]),
   midi.NoteOnEvent(tick=15, channel=0, data=[84, 0]),
   midi.NoteOnEvent(tick=10, channel=0, data=[95, 108]),
   midi.NoteOnEvent(tick=0, channel=0, data=[89, 108]),
   midi.NoteOnEvent(tick=0, channel=0, data=[86, 108]),
   midi.NoteOnEvent(tick=10, channel=0, data=[83, 0]),
   midi.NoteOnEvent(tick=0, channel=0, data=[74, 0]),
   midi.NoteOnEvent(tick=0, channel=0, data=[77, 0]),
   midi.NoteOnEvent(tick=15, channel=0, data=[96, 103]),
   midi.NoteOnEvent(tick=5, channel=0, data=[95, 0]),
   midi.NoteOnEvent(tick=0, channel=0, data=[86, 0]),
   midi.NoteOnEvent(tick=0, channel=0, data=[89, 0]),
   midi.NoteOnEvent(tick=20, channel=0, data=[95, 103]),
   midi.NoteOnEvent(tick=0, channel=0, data=[89, 103]),
   midi.NoteOnEvent(tick=0, channel=0, data=[86, 103]),
   midi.NoteOnEvent(tick=10, channel=0, data=[96, 0]),
   midi.NoteOnEvent(tick=10, channel=0, data=[96, 103]),
   midi.NoteOnEvent(tick=15, channel=0, data=[95, 0]),
   midi.NoteOnEvent(tick=0, channel=0, data=[86, 0]),
   midi.NoteOnEvent(tick=0, channel=0, data=[89, 0]),
   midi.NoteOnEvent(tick=15, channel=0, data=[95, 103]),
   midi.NoteOnEvent(tick=0, channel=0, data=[86, 103]),
   midi.NoteOnEvent(tick=0, channel=0, data=[89, 103]),
   midi.NoteOnEvent(tick=5, channel=0, data=[96, 0]),
   midi.NoteOnEvent(tick=10, channel=0, data=[96, 103]),
   midi.NoteOnEvent(tick=5, channel=0, data=[95, 0]),
   midi.NoteOnEvent(tick=0, channel=0, data=[89, 0]),
   midi.NoteOnEvent(tick=0, channel=0, data=[86, 0]),
   midi.NoteOnEvent(tick=0, channel=0, data=[86, 97]),
   midi.NoteOnEvent(tick=0, channel=0, data=[89, 107]),
   midi.NoteOnEvent(tick=0, channel=0, data=[95, 107]),
   midi.NoteOnEvent(tick=5, channel=0, data=[86, 0]),
   midi.NoteOnEvent(tick=5, channel=0, data=[95, 0]),
   midi.NoteOnEvent(tick=0, channel=0, data=[89, 0]),
   midi.NoteOnEvent(tick=10, channel=0, data=[96, 0]),
   midi.NoteOnEvent(tick=0, channel=0, data=[96, 102]),
   midi.NoteOnEvent(tick=10, channel=0, data=[96, 0]),
   midi.NoteOnEvent(tick=0, channel=0, data=[79, 111]),
   midi.NoteOnEvent(tick=0, channel=0, data=[67, 91]),
   midi.NoteOnEvent(tick=10, channel=0, data=[86, 97]),
   midi.NoteOnEvent(tick=0, channel=0, data=[89, 105]),
   midi.NoteOnEvent(tick=0, channel=0, data=[95, 107]),
   midi.NoteOnEvent(tick=20, channel=0, data=[95, 0]),
   midi.NoteOnEvent(tick=0, channel=0, data=[86, 0]),
   midi.NoteOnEvent(tick=0, channel=0, data=[79, 0]),
   midi.NoteOnEvent(tick=0, channel=0, data=[67, 0]),
   midi.NoteOnEvent(tick=0, channel=0, data=[89, 0]),
   midi.NoteOnEvent(tick=0, channel=0, data=[65, 83]),
   midi.NoteOnEvent(tick=0, channel=0, data=[77, 86]),
   midi.NoteOnEvent(tick=0, channel=0, data=[96, 101]),
   midi.NoteOnEvent(tick=20, channel=0, data=[96, 0]),
   midi.NoteOnEvent(tick=0, channel=0, data=[86, 96]),
   midi.NoteOnEvent(tick=0, channel=0, data=[89, 99]),
   midi.NoteOnEvent(tick=0, channel=0, data=[95, 101]),
   midi.NoteOnEvent(tick=10, channel=0, data=[77, 0]),
   midi.NoteOnEvent(tick=0, channel=0, data=[65, 0]),
   midi.NoteOnEvent(tick=0, channel=0, data=[62, 95]),
   midi.NoteOnEvent(tick=0, channel=0, data=[74, 111]),
   midi.NoteOnEvent(tick=10, channel=0, data=[89, 0]),
   midi.NoteOnEvent(tick=0, channel=0, data=[95, 0]),
   midi.NoteOnEvent(tick=0, channel=0, data=[86, 0]),
   midi.NoteOnEvent(tick=0, channel=0, data=[96, 89]),
   midi.NoteOnEvent(tick=20, channel=0, data=[96, 0]),
   midi.NoteOnEvent(tick=0, channel=0, data=[62, 0]),
   midi.NoteOnEvent(tick=0, channel=0, data=[74, 0]),
   midi.NoteOnEvent(tick=0, channel=0, data=[59, 86]),
   midi.NoteOnEvent(tick=0, channel=0, data=[71, 105]),
   midi.NoteOnEvent(tick=0, channel=0, data=[86, 90]),
   midi.NoteOnEvent(tick=0, channel=0, data=[89, 101]),
   midi.NoteOnEvent(tick=0, channel=0, data=[95, 90]),
   midi.NoteOnEvent(tick=20, channel=0, data=[95, 0]),
   midi.NoteOnEvent(tick=0, channel=0, data=[86, 0]),
   midi.NoteOnEvent(tick=0, channel=0, data=[89, 0]),
   midi.NoteOnEvent(tick=0, channel=0, data=[96, 102]),
   midi.NoteOnEvent(tick=10, channel=0, data=[71, 0]),
   midi.NoteOnEvent(tick=0, channel=0, data=[59, 0]),
   midi.NoteOnEvent(tick=0, channel=0, data=[55, 91]),
   midi.NoteOnEvent(tick=0, channel=0, data=[67, 111]),
   midi.NoteOnEvent(tick=10, channel=0, data=[96, 0]),
   midi.NoteOnEvent(tick=0, channel=0, data=[86, 94]),
   midi.NoteOnEvent(tick=0, channel=0, data=[89, 107]),
   midi.NoteOnEvent(tick=0, channel=0, data=[95, 101]),
   midi.NoteOnEvent(tick=20, channel=0, data=[95, 0]),
   midi.NoteOnEvent(tick=0, channel=0, data=[86, 0]),
   midi.NoteOnEvent(tick=0, channel=0, data=[55, 0]),
   midi.NoteOnEvent(tick=0, channel=0, data=[67, 0]),
   midi.NoteOnEvent(tick=0, channel=0, data=[89, 0]),
   midi.NoteOnEvent(tick=0, channel=0, data=[53, 91]),
   midi.NoteOnEvent(tick=0, channel=0, data=[65, 99]),
   midi.NoteOnEvent(tick=0, channel=0, data=[96, 98]),
   midi.NoteOnEvent(tick=20, channel=0, data=[96, 0]),
   midi.NoteOnEvent(tick=0, channel=0, data=[86, 92]),
   midi.NoteOnEvent(tick=0, channel=0, data=[89, 105]),
   midi.NoteOnEvent(tick=0, channel=0, data=[95, 97]),
   midi.NoteOnEvent(tick=10, channel=0, data=[65, 0]),
   midi.NoteOnEvent(tick=0, channel=0, data=[53, 0]),
   midi.NoteOnEvent(tick=0, channel=0, data=[50, 95]),
   midi.NoteOnEvent(tick=0, channel=0, data=[62, 105]),
   midi.NoteOnEvent(tick=10, channel=0, data=[89, 0]),
   midi.NoteOnEvent(tick=0, channel=0, data=[95, 0]),
   midi.NoteOnEvent(tick=0, channel=0, data=[86, 0]),
   midi.NoteOnEvent(tick=0, channel=0, data=[96, 111]),
   midi.NoteOnEvent(tick=20, channel=0, data=[96, 0]),
   midi.NoteOnEvent(tick=0, channel=0, data=[50, 0]),
   midi.NoteOnEvent(tick=0, channel=0, data=[62, 0]),
   midi.NoteOnEvent(tick=0, channel=0, data=[47, 101]),
   midi.NoteOnEvent(tick=0, channel=0, data=[59, 107]),
   midi.NoteOnEvent(tick=0, channel=0, data=[86, 102]),
   midi.NoteOnEvent(tick=0, channel=0, data=[89, 109]),
   midi.NoteOnEvent(tick=0, channel=0, data=[95, 107]),
   midi.NoteOnEvent(tick=20, channel=0, data=[95, 0]),
   midi.NoteOnEvent(tick=0, channel=0, data=[86, 0]),
   midi.NoteOnEvent(tick=0, channel=0, data=[89, 0]),
   midi.NoteOnEvent(tick=0, channel=0, data=[96, 105]),
   midi.NoteOnEvent(tick=10, channel=0, data=[59, 0]),
   midi.NoteOnEvent(tick=0, channel=0, data=[47, 0]),
   midi.NoteOnEvent(tick=0, channel=0, data=[43, 95]),
   midi.NoteOnEvent(tick=0, channel=0, data=[55, 89]),
   midi.NoteOnEvent(tick=10, channel=0, data=[96, 0]),
   midi.NoteOnEvent(tick=0, channel=0, data=[86, 90]),
   midi.NoteOnEvent(tick=0, channel=0, data=[89, 105]),
   midi.NoteOnEvent(tick=0, channel=0, data=[95, 105]),
   midi.NoteOnEvent(tick=20, channel=0, data=[95, 0]),
   midi.NoteOnEvent(tick=0, channel=0, data=[86, 0]),
   midi.NoteOnEvent(tick=0, channel=0, data=[43, 0]),
   midi.NoteOnEvent(tick=0, channel=0, data=[55, 0]),
   midi.NoteOnEvent(tick=0, channel=0, data=[89, 0]),
   midi.NoteOnEvent(tick=0, channel=0, data=[41, 101]),
   midi.NoteOnEvent(tick=0, channel=0, data=[53, 111]),
   midi.NoteOnEvent(tick=0, channel=0, data=[96, 107]),
   midi.NoteOnEvent(tick=20, channel=0, data=[96, 0]),
   midi.NoteOnEvent(tick=0, channel=0, data=[86, 94]),
   midi.NoteOnEvent(tick=0, channel=0, data=[89, 101]),
   midi.NoteOnEvent(tick=0, channel=0, data=[95, 105]),
   midi.NoteOnEvent(tick=10, channel=0, data=[53, 0]),
   midi.NoteOnEvent(tick=0, channel=0, data=[41, 0]),
   midi.NoteOnEvent(tick=0, channel=0, data=[38, 85]),
   midi.NoteOnEvent(tick=0, channel=0, data=[50, 89]),
   midi.NoteOnEvent(tick=10, channel=0, data=[89, 0]),
   midi.NoteOnEvent(tick=0, channel=0, data=[95, 0]),
   midi.NoteOnEvent(tick=0, channel=0, data=[86, 0]),
   midi.NoteOnEvent(tick=0, channel=0, data=[96, 102]),
   midi.NoteOnEvent(tick=20, channel=0, data=[96, 0]),
   midi.NoteOnEvent(tick=0, channel=0, data=[38, 0]),
   midi.NoteOnEvent(tick=0, channel=0, data=[50, 0]),
   midi.NoteOnEvent(tick=0, channel=0, data=[47, 95]),
   midi.NoteOnEvent(tick=0, channel=0, data=[35, 101]),
   midi.NoteOnEvent(tick=0, channel=0, data=[86, 101]),
   midi.NoteOnEvent(tick=0, channel=0, data=[89, 107]),
   midi.NoteOnEvent(tick=0, channel=0, data=[95, 105]),
   midi.NoteOnEvent(tick=20, channel=0, data=[95, 0]),
   midi.NoteOnEvent(tick=0, channel=0, data=[86, 0]),
   midi.NoteOnEvent(tick=0, channel=0, data=[89, 0]),
   midi.NoteOnEvent(tick=0, channel=0, data=[96, 102]),
   midi.NoteOnEvent(tick=10, channel=0, data=[35, 0]),
   midi.NoteOnEvent(tick=0, channel=0, data=[47, 0]),
   midi.NoteOnEvent(tick=0, channel=0, data=[31, 86]),
   midi.NoteOnEvent(tick=0, channel=0, data=[43, 86]),
   midi.NoteOnEvent(tick=10, channel=0, data=[96, 0]),
   midi.NoteOnEvent(tick=0, channel=0, data=[86, 90]),
   midi.NoteOnEvent(tick=0, channel=0, data=[89, 105]),
   midi.NoteOnEvent(tick=0, channel=0, data=[95, 97]),
   midi.NoteOnEvent(tick=20, channel=0, data=[95, 0]),
   midi.NoteOnEvent(tick=0, channel=0, data=[86, 0]),
   midi.NoteOnEvent(tick=0, channel=0, data=[31, 0]),
   midi.NoteOnEvent(tick=0, channel=0, data=[43, 0]),
   midi.NoteOnEvent(tick=0, channel=0, data=[89, 0]),
   midi.NoteOnEvent(tick=0, channel=0, data=[29, 86]),
   midi.NoteOnEvent(tick=0, channel=0, data=[41, 97]),
   midi.NoteOnEvent(tick=0, channel=0, data=[96, 105]),
   midi.NoteOnEvent(tick=15, channel=0, data=[96, 0]),
   midi.NoteOnEvent(tick=0, channel=0, data=[86, 88]),
   midi.NoteOnEvent(tick=0, channel=0, data=[89, 107]),
   midi.NoteOnEvent(tick=0, channel=0, data=[95, 90]),
   midi.NoteOnEvent(tick=15, channel=0, data=[95, 0]),
   midi.NoteOnEvent(tick=0, channel=0, data=[86, 0]),
   midi.NoteOnEvent(tick=0, channel=0, data=[29, 0]),
   midi.NoteOnEvent(tick=0, channel=0, data=[41, 0]),
   midi.NoteOnEvent(tick=0, channel=0, data=[89, 0]),
   midi.NoteOnEvent(tick=0, channel=0, data=[26, 72]),
   midi.NoteOnEvent(tick=0, channel=0, data=[38, 86]),
   midi.NoteOnEvent(tick=0, channel=0, data=[93, 102]),
   midi.NoteOnEvent(tick=15, channel=0, data=[93, 0]),
   midi.NoteOnEvent(tick=0, channel=0, data=[95, 110]),
   midi.NoteOnEvent(tick=15, channel=0, data=[95, 0]),
   midi.NoteOnEvent(tick=0, channel=0, data=[38, 0]),
   midi.NoteOnEvent(tick=0, channel=0, data=[26, 0]),
   midi.NoteOnEvent(tick=0, channel=0, data=[36, 97]),
   midi.NoteOnEvent(tick=0, channel=0, data=[96, 93]),
   midi.NoteOnEvent(tick=0, channel=0, data=[91, 107]),
   midi.NoteOnEvent(tick=0, channel=0, data=[88, 110]),
   midi.NoteOnEvent(tick=0, channel=0, data=[84, 92]),
   midi.NoteOnEvent(tick=120, channel=0, data=[84, 0]),
   midi.NoteOnEvent(tick=0, channel=0, data=[91, 0]),
   midi.NoteOnEvent(tick=0, channel=0, data=[36, 0]),
   midi.NoteOnEvent(tick=0, channel=0, data=[96, 0]),
   midi.NoteOnEvent(tick=0, channel=0, data=[88, 0]),
   midi.ControlChangeEvent(tick=70, channel=0, data=[64, 0]),
   midi.ControlChangeEvent(tick=7875, channel=0, data=[64, 0]),
   midi.ControlChangeEvent(tick=0, channel=0, data=[120, 0]),
   midi.ProgramChangeEvent(tick=0, channel=0, data=[0]),
   midi.ControlChangeEvent(tick=0, channel=0, data=[7, 119]),
   midi.ControlChangeEvent(tick=0, channel=0, data=[91, 55]),
   midi.EndOfTrackEvent(tick=0, data=[])]),
 midi.Track(\
  [midi.PortEvent(tick=0, data=[0]),
   midi.TrackNameEvent(tick=0, text='1st movement', data=[49, 115, 116, 32, 109, 111, 118, 101, 109, 101, 110, 116]),
   midi.ProgramChangeEvent(tick=0, channel=1, data=[48]),
   midi.ControlChangeEvent(tick=0, channel=1, data=[10, 44]),
   midi.ControlChangeEvent(tick=4, channel=1, data=[64, 0]),
   midi.ControlChangeEvent(tick=0, channel=1, data=[91, 115]),
   midi.ControlChangeEvent(tick=3480, channel=1, data=[7, 90]),
   midi.ControlChangeEvent(tick=210, channel=1, data=[7, 83]),
   midi.ControlChangeEvent(tick=525, channel=1, data=[7, 84]),
   midi.ControlChangeEvent(tick=25, channel=1, data=[7, 85]),
   midi.NoteOnEvent(tick=20, channel=1, data=[60, 94]),
   midi.ControlChangeEvent(tick=5, channel=1, data=[7, 86]),
   midi.NoteOnEvent(tick=10, channel=1, data=[60, 0]),
   midi.ControlChangeEvent(tick=10, channel=1, data=[7, 87]),
   midi.NoteOnEvent(tick=35, channel=1, data=[62, 94]),
   midi.NoteOnEvent(tick=15, channel=1, data=[62, 0]),
   midi.NoteOnEvent(tick=45, channel=1, data=[64, 94]),
   midi.NoteOnEvent(tick=15, channel=1, data=[64, 0]),
   midi.NoteOnEvent(tick=45, channel=1, data=[60, 94]),
   midi.ControlChangeEvent(tick=5, channel=1, data=[7, 86]),
   midi.ControlChangeEvent(tick=20, channel=1, data=[7, 85]),
   midi.NoteOnEvent(tick=25, channel=1, data=[60, 0]),
   midi.ControlChangeEvent(tick=15, channel=1, data=[7, 84]),
   midi.NoteOnEvent(tick=175, channel=1, data=[60, 94]),
   midi.NoteOnEvent(tick=40, channel=1, data=[60, 0]),
   midi.NoteOnEvent(tick=50, channel=1, data=[62, 94]),
   midi.NoteOnEvent(tick=20, channel=1, data=[62, 0]),
   midi.NoteOnEvent(tick=10, channel=1, data=[62, 94]),
   midi.ControlChangeEvent(tick=10, channel=1, data=[7, 85]),
   midi.NoteOnEvent(tick=10, channel=1, data=[62, 0]),
   midi.ControlChangeEvent(tick=10, channel=1, data=[7, 86]),
   midi.NoteOnEvent(tick=30, channel=1, data=[64, 94]),
   midi.ControlChangeEvent(tick=10, channel=1, data=[7, 87]),
   midi.NoteOnEvent(tick=10, channel=1, data=[64, 0]),
   midi.ControlChangeEvent(tick=25, channel=1, data=[7, 87]),
   midi.NoteOnEvent(tick=15, channel=1, data=[64, 94]),
   midi.ControlChangeEvent(tick=20, channel=1, data=[7, 88]),
   midi.ControlChangeEvent(tick=10, channel=1, data=[7, 89]),
   midi.ControlChangeEvent(tick=10, channel=1, data=[7, 90]),
   midi.NoteOnEvent(tick=10, channel=1, data=[64, 0]),
   midi.ControlChangeEvent(tick=0, channel=1, data=[7, 90]),
   midi.ControlChangeEvent(tick=15, channel=1, data=[7, 90]),
   midi.ControlChangeEvent(tick=15, channel=1, data=[7, 89]),
   midi.ControlChangeEvent(tick=15, channel=1, data=[7, 87]),
   midi.ControlChangeEvent(tick=15, channel=1, data=[7, 86]),
   midi.ControlChangeEvent(tick=15, channel=1, data=[7, 85]),
   midi.ControlChangeEvent(tick=10, channel=1, data=[7, 83]),
   midi.ControlChangeEvent(tick=115, channel=1, data=[7, 83]),
   midi.NoteOnEvent(tick=50, channel=1, data=[64, 94]),
   midi.ControlChangeEvent(tick=10, channel=1, data=[7, 83]),
   midi.NoteOnEvent(tick=5, channel=1, data=[64, 0]),
   midi.ControlChangeEvent(tick=20, channel=1, data=[7, 84]),
   midi.NoteOnEvent(tick=25, channel=1, data=[65, 94]),
   midi.ControlChangeEvent(tick=5, channel=1, data=[7, 85]),
   midi.NoteOnEvent(tick=10, channel=1, data=[65, 0]),
   midi.ControlChangeEvent(tick=0, channel=1, data=[7, 86]),
   midi.NoteOnEvent(tick=45, channel=1, data=[67, 94]),
   midi.ControlChangeEvent(tick=10, channel=1, data=[7, 87]),
   midi.NoteOnEvent(tick=5, channel=1, data=[67, 0]),
   midi.ControlChangeEvent(tick=35, channel=1, data=[7, 88]),
   midi.NoteOnEvent(tick=10, channel=1, data=[64, 94]),
   midi.ControlChangeEvent(tick=5, channel=1, data=[7, 89]),
   midi.ControlChangeEvent(tick=10, channel=1, data=[7, 90]),
   midi.ControlChangeEvent(tick=10, channel=1, data=[7, 92]),
   midi.ControlChangeEvent(tick=15, channel=1, data=[7, 94]),
   midi.NoteOnEvent(tick=10, channel=1, data=[64, 0]),
   midi.ControlChangeEvent(tick=5, channel=1, data=[7, 93]),
   midi.ControlChangeEvent(tick=15, channel=1, data=[7, 90]),
   midi.ControlChangeEvent(tick=15, channel=1, data=[7, 88]),
   midi.ControlChangeEvent(tick=15, channel=1, data=[7, 87]),
   midi.ControlChangeEvent(tick=10, channel=1, data=[7, 85]),
   midi.ControlChangeEvent(tick=15, channel=1, data=[7, 83]),
   midi.ControlChangeEvent(tick=15, channel=1, data=[7, 83]),
   midi.ControlChangeEvent(tick=20, channel=1, data=[7, 83]),
   midi.NoteOnEvent(tick=80, channel=1, data=[64, 94]),
   midi.ControlChangeEvent(tick=40, channel=1, data=[7, 83]),
   midi.NoteOnEvent(tick=10, channel=1, data=[64, 0]),
   midi.NoteOnEvent(tick=40, channel=1, data=[65, 94]),
   midi.NoteOnEvent(tick=20, channel=1, data=[65, 0]),
   midi.NoteOnEvent(tick=10, channel=1, data=[65, 94]),
   midi.ControlChangeEvent(tick=0, channel=1, data=[7, 83]),
   midi.NoteOnEvent(tick=20, channel=1, data=[65, 0]),
   midi.ControlChangeEvent(tick=10, channel=1, data=[7, 84]),
   midi.NoteOnEvent(tick=30, channel=1, data=[67, 94]),
   midi.NoteOnEvent(tick=20, channel=1, data=[67, 0]),
   midi.ControlChangeEvent(tick=20, channel=1, data=[7, 83]),
   midi.ControlChangeEvent(tick=15, channel=1, data=[7, 83]),
   midi.ControlChangeEvent(tick=10, channel=1, data=[7, 83]),
   midi.ControlChangeEvent(tick=10, channel=1, data=[7, 83]),
   midi.ControlChangeEvent(tick=15, channel=1, data=[7, 83]),
   midi.ControlChangeEvent(tick=20, channel=1, data=[7, 81]),
   midi.NoteOnEvent(tick=10, channel=1, data=[64, 89]),
   midi.NoteOnEvent(tick=25, channel=1, data=[64, 0]),
   midi.ControlChangeEvent(tick=95, channel=1, data=[7, 83]),
   midi.NoteOnEvent(tick=0, channel=1, data=[65, 89]),
   midi.ControlChangeEvent(tick=20, channel=1, data=[7, 83]),
   midi.NoteOnEvent(tick=5, channel=1, data=[65, 0]),
   midi.ControlChangeEvent(tick=30, channel=1, data=[7, 83]),
   midi.ControlChangeEvent(tick=25, channel=1, data=[7, 83]),
   midi.ControlChangeEvent(tick=35, channel=1, data=[7, 83]),
   midi.NoteOnEvent(tick=5, channel=1, data=[71, 89]),
   midi.ControlChangeEvent(tick=15, channel=1, data=[7, 84]),
   midi.NoteOnEvent(tick=10, channel=1, data=[71, 0]),
   midi.ControlChangeEvent(tick=40, channel=1, data=[7, 85]),
   midi.NoteOnEvent(tick=55, channel=1, data=[71, 89]),
   midi.NoteOnEvent(tick=25, channel=1, data=[71, 0]),
   midi.ControlChangeEvent(tick=0, channel=1, data=[7, 86]),
   midi.ControlChangeEvent(tick=35, channel=1, data=[7, 85]),
   midi.ControlChangeEvent(tick=15, channel=1, data=[7, 84]),
   midi.ControlChangeEvent(tick=15, channel=1, data=[7, 83]),
   midi.NoteOnEvent(tick=30, channel=1, data=[69, 89]),
   midi.ControlChangeEvent(tick=5, channel=1, data=[7, 84]),
   midi.ControlChangeEvent(tick=15, channel=1, data=[7, 85]),
   midi.NoteOnEvent(tick=5, channel=1, data=[69, 0]),
   midi.ControlChangeEvent(tick=30, channel=1, data=[7, 86]),
   midi.ControlChangeEvent(tick=20, channel=1, data=[7, 87]),
   midi.ControlChangeEvent(tick=25, channel=1, data=[7, 87]),
   midi.NoteOnEvent(tick=20, channel=1, data=[70, 89]),
   midi.ControlChangeEvent(tick=0, channel=1, data=[7, 88]),
   midi.ControlChangeEvent(tick=20, channel=1, data=[7, 89]),
   midi.NoteOnEvent(tick=5, channel=1, data=[70, 0]),
   midi.ControlChangeEvent(tick=15, channel=1, data=[7, 89]),
   midi.ControlChangeEvent(tick=20, channel=1, data=[7, 90]),
   midi.ControlChangeEvent(tick=20, channel=1, data=[7, 90]),
   midi.ControlChangeEvent(tick=15, channel=1, data=[7, 90]),
   midi.ControlChangeEvent(tick=15, channel=1, data=[7, 92]),
   midi.NoteOnEvent(tick=10, channel=1, data=[76, 89]),
   midi.ControlChangeEvent(tick=5, channel=1, data=[7, 92]),
   midi.ControlChangeEvent(tick=15, channel=1, data=[7, 93]),
   midi.NoteOnEvent(tick=5, channel=1, data=[76, 0]),
   midi.ControlChangeEvent(tick=10, channel=1, data=[7, 94]),
   midi.ControlChangeEvent(tick=60, channel=1, data=[7, 94]),
   midi.ControlChangeEvent(tick=20, channel=1, data=[7, 94]),
   midi.NoteOnEvent(tick=5, channel=1, data=[76, 89]),
   midi.ControlChangeEvent(tick=20, channel=1, data=[7, 96]),
   midi.NoteOnEvent(tick=5, channel=1, data=[76, 0]),
   midi.ControlChangeEvent(tick=35, channel=1, data=[7, 96]),
   midi.ControlChangeEvent(tick=15, channel=1, data=[7, 96]),
   midi.ControlChangeEvent(tick=15, channel=1, data=[7, 96]),
   midi.ControlChangeEvent(tick=15, channel=1, data=[7, 96]),
   midi.ControlChangeEvent(tick=15, channel=1, data=[7, 98]),
   midi.NoteOnEvent(tick=0, channel=1, data=[77, 89]),
   midi.NoteOnEvent(tick=25, channel=1, data=[77, 0]),
   midi.ControlChangeEvent(tick=30, channel=1, data=[7, 98]),
   midi.ControlChangeEvent(tick=15, channel=1, data=[7, 99]),
   midi.NoteOnEvent(tick=50, channel=1, data=[76, 89]),
   midi.ControlChangeEvent(tick=20, channel=1, data=[7, 98]),
   midi.NoteOnEvent(tick=5, channel=1, data=[76, 0]),
   midi.ControlChangeEvent(tick=10, channel=1, data=[7, 98]),
   midi.ControlChangeEvent(tick=10, channel=1, data=[7, 96]),
   midi.ControlChangeEvent(tick=15, channel=1, data=[7, 96]),
   midi.ControlChangeEvent(tick=15, channel=1, data=[7, 96]),
   midi.ControlChangeEvent(tick=10, channel=1, data=[7, 96]),
   midi.ControlChangeEvent(tick=15, channel=1, data=[7, 94]),
   midi.ControlChangeEvent(tick=10, channel=1, data=[7, 94]),
   midi.NoteOnEvent(tick=10, channel=1, data=[69, 89]),
   midi.ControlChangeEvent(tick=10, channel=1, data=[7, 94]),
   midi.ControlChangeEvent(tick=10, channel=1, data=[7, 93]),
   midi.NoteOnEvent(tick=5, channel=1, data=[69, 0]),
   midi.ControlChangeEvent(tick=10, channel=1, data=[7, 92]),
   midi.ControlChangeEvent(tick=15, channel=1, data=[7, 92]),
   midi.ControlChangeEvent(tick=20, channel=1, data=[7, 90]),
   midi.ControlChangeEvent(tick=20, channel=1, data=[7, 90]),
   midi.ControlChangeEvent(tick=10, channel=1, data=[7, 90]),
   midi.ControlChangeEvent(tick=10, channel=1, data=[7, 89]),
   midi.ControlChangeEvent(tick=20, channel=1, data=[7, 89]),
   midi.ControlChangeEvent(tick=25, channel=1, data=[7, 88]),
   midi.ControlChangeEvent(tick=50, channel=1, data=[7, 89]),
   midi.ControlChangeEvent(tick=20, channel=1, data=[7, 90]),
   midi.NoteOnEvent(tick=15, channel=1, data=[68, 89]),
   midi.NoteOnEvent(tick=25, channel=1, data=[68, 0]),
   midi.ControlChangeEvent(tick=35, channel=1, data=[7, 90]),
   midi.ControlChangeEvent(tick=15, channel=1, data=[7, 90]),
   midi.ControlChangeEvent(tick=10, channel=1, data=[7, 92]),
   midi.ControlChangeEvent(tick=15, channel=1, data=[7, 92]),
   midi.ControlChangeEvent(tick=15, channel=1, data=[7, 93]),
   midi.NoteOnEvent(tick=5, channel=1, data=[69, 89]),
   midi.ControlChangeEvent(tick=5, channel=1, data=[7, 94]),
   midi.ControlChangeEvent(tick=10, channel=1, data=[7, 96]),
   midi.NoteOnEvent(tick=10, channel=1, data=[69, 0]),
   midi.ControlChangeEvent(tick=5, channel=1, data=[7, 96]),
   midi.ControlChangeEvent(tick=15, channel=1, data=[7, 96]),
   midi.ControlChangeEvent(tick=10, channel=1, data=[7, 96]),
   midi.ControlChangeEvent(tick=10, channel=1, data=[7, 98]),
   midi.ControlChangeEvent(tick=15, channel=1, data=[7, 98]),
   midi.ControlChangeEvent(tick=10, channel=1, data=[7, 99]),
   midi.ControlChangeEvent(tick=15, channel=1, data=[7, 99]),
   midi.NoteOnEvent(tick=15, channel=1, data=[72, 89]),
   midi.ControlChangeEvent(tick=10, channel=1, data=[7, 99]),
   midi.ControlChangeEvent(tick=10, channel=1, data=[7, 98]),
   midi.NoteOnEvent(tick=5, channel=1, data=[72, 0]),
   midi.ControlChangeEvent(tick=5, channel=1, data=[7, 96]),
   midi.ControlChangeEvent(tick=10, channel=1, data=[7, 96]),
   midi.ControlChangeEvent(tick=15, channel=1, data=[7, 96]),
   midi.ControlChangeEvent(tick=10, channel=1, data=[7, 94]),
   midi.ControlChangeEvent(tick=10, channel=1, data=[7, 94]),
   midi.ControlChangeEvent(tick=10, channel=1, data=[7, 93]),
   midi.ControlChangeEvent(tick=15, channel=1, data=[7, 92]),
   midi.ControlChangeEvent(tick=10, channel=1, data=[7, 90]),
   midi.NoteOnEvent(tick=10, channel=1, data=[71, 89]),
   midi.ControlChangeEvent(tick=0, channel=1, data=[7, 90]),
   midi.ControlChangeEvent(tick=10, channel=1, data=[7, 89]),
   midi.NoteOnEvent(tick=15, channel=1, data=[71, 0]),
   midi.ControlChangeEvent(tick=0, channel=1, data=[7, 87]),
   midi.ControlChangeEvent(tick=10, channel=1, data=[7, 85]),
   midi.ControlChangeEvent(tick=10, channel=1, data=[7, 83]),
   midi.NoteOnEvent(tick=15, channel=1, data=[64, 94]),
   midi.NoteOnEvent(tick=0, channel=1, data=[76, 94]),
   midi.ControlChangeEvent(tick=0, channel=1, data=[7, 83]),
   midi.ControlChangeEvent(tick=40, channel=1, data=[7, 83]),
   midi.ControlChangeEvent(tick=15, channel=1, data=[7, 84]),
   midi.ControlChangeEvent(tick=10, channel=1, data=[7, 86]),
   midi.ControlChangeEvent(tick=20, channel=1, data=[7, 87]),
   midi.ControlChangeEvent(tick=10, channel=1, data=[7, 87]),
   midi.ControlChangeEvent(tick=15, channel=1, data=[7, 89]),
   midi.NoteOnEvent(tick=5, channel=1, data=[76, 0]),
   midi.NoteOnEvent(tick=0, channel=1, data=[64, 0]),
   midi.NoteOnEvent(tick=5, channel=1, data=[65, 94]),
   midi.NoteOnEvent(tick=0, channel=1, data=[77, 94]),
   midi.ControlChangeEvent(tick=0, channel=1, data=[7, 89]),
   midi.ControlChangeEvent(tick=15, channel=1, data=[7, 90]),
   midi.ControlChangeEvent(tick=10, channel=1, data=[7, 90]),
   midi.ControlChangeEvent(tick=10, channel=1, data=[7, 90]),
   midi.ControlChangeEvent(tick=15, channel=1, data=[7, 92]),
   midi.ControlChangeEvent(tick=10, channel=1, data=[7, 92]),
   midi.ControlChangeEvent(tick=15, channel=1, data=[7, 93]),
   midi.ControlChangeEvent(tick=10, channel=1, data=[7, 94]),
   midi.ControlChangeEvent(tick=15, channel=1, data=[7, 94]),
   midi.ControlChangeEvent(tick=10, channel=1, data=[7, 94]),
   midi.NoteOnEvent(tick=5, channel=1, data=[77, 0]),
   midi.NoteOnEvent(tick=0, channel=1, data=[65, 0]),
   midi.NoteOnEvent(tick=5, channel=1, data=[71, 94]),
   midi.NoteOnEvent(tick=0, channel=1, data=[83, 94]),
   midi.ControlChangeEvent(tick=0, channel=1, data=[7, 96]),
   midi.ControlChangeEvent(tick=15, channel=1, data=[7, 96]),
   midi.ControlChangeEvent(tick=15, channel=1, data=[7, 96]),
   midi.ControlChangeEvent(tick=10, channel=1, data=[7, 96]),
   midi.ControlChangeEvent(tick=10, channel=1, data=[7, 98]),
   midi.ControlChangeEvent(tick=15, channel=1, data=[7, 98]),
   midi.ControlChangeEvent(tick=10, channel=1, data=[7, 99]),
   midi.ControlChangeEvent(tick=15, channel=1, data=[7, 100]),
   midi.ControlChangeEvent(tick=15, channel=1, data=[7, 101]),
   midi.ControlChangeEvent(tick=10, channel=1, data=[7, 101]),
   midi.ControlChangeEvent(tick=15, channel=1, data=[7, 102]),
   midi.ControlChangeEvent(tick=10, channel=1, data=[7, 105]),
   midi.ControlChangeEvent(tick=15, channel=1, data=[7, 107]),
   midi.ControlChangeEvent(tick=10, channel=1, data=[7, 108]),
   midi.ControlChangeEvent(tick=30, channel=1, data=[7, 107]),
   midi.ControlChangeEvent(tick=10, channel=1, data=[7, 105]),
   midi.ControlChangeEvent(tick=15, channel=1, data=[7, 102]),
   midi.NoteOnEvent(tick=10, channel=1, data=[83, 0]),
   midi.NoteOnEvent(tick=0, channel=1, data=[71, 0]),
   midi.ControlChangeEvent(tick=0, channel=1, data=[7, 101]),
   midi.NoteOnEvent(tick=10, channel=1, data=[69, 94]),
   midi.NoteOnEvent(tick=0, channel=1, data=[81, 94]),
   midi.ControlChangeEvent(tick=5, channel=1, data=[7, 98]),
   midi.ControlChangeEvent(tick=10, channel=1, data=[7, 94]),
   midi.ControlChangeEvent(tick=15, channel=1, data=[7, 90]),
   midi.ControlChangeEvent(tick=10, channel=1, data=[7, 89]),
   midi.ControlChangeEvent(tick=20, channel=1, data=[7, 90]),
   midi.ControlChangeEvent(tick=15, channel=1, data=[7, 92]),
   midi.ControlChangeEvent(tick=10, channel=1, data=[7, 93]),
   midi.ControlChangeEvent(tick=15, channel=1, data=[7, 94]),
   midi.NoteOnEvent(tick=15, channel=1, data=[81, 0]),
   midi.NoteOnEvent(tick=0, channel=1, data=[69, 0]),
   midi.ControlChangeEvent(tick=0, channel=1, data=[7, 96]),
   midi.NoteOnEvent(tick=5, channel=1, data=[70, 94]),
   midi.NoteOnEvent(tick=0, channel=1, data=[82, 94]),
   midi.ControlChangeEvent(tick=5, channel=1, data=[7, 96]),
   midi.ControlChangeEvent(tick=10, channel=1, data=[7, 96]),
   midi.ControlChangeEvent(tick=15, channel=1, data=[7, 98]),
   midi.ControlChangeEvent(tick=10, channel=1, data=[7, 99]),
   midi.ControlChangeEvent(tick=15, channel=1, data=[7, 100]),
   midi.ControlChangeEvent(tick=10, channel=1, data=[7, 101]),
   midi.ControlChangeEvent(tick=15, channel=1, data=[7, 101]),
   midi.ControlChangeEvent(tick=10, channel=1, data=[7, 101]),
   midi.ControlChangeEvent(tick=15, channel=1, data=[7, 102]),
   midi.NoteOnEvent(tick=10, channel=1, data=[82, 0]),
   midi.NoteOnEvent(tick=0, channel=1, data=[70, 0]),
   midi.ControlChangeEvent(tick=0, channel=1, data=[7, 103]),
   midi.NoteOnEvent(tick=5, channel=1, data=[76, 94]),
   midi.NoteOnEvent(tick=0, channel=1, data=[88, 94]),
   midi.ControlChangeEvent(tick=10, channel=1, data=[7, 105]),
   midi.ControlChangeEvent(tick=10, channel=1, data=[7, 106]),
   midi.ControlChangeEvent(tick=15, channel=1, data=[7, 107]),
   midi.ControlChangeEvent(tick=10, channel=1, data=[7, 108]),
   midi.ControlChangeEvent(tick=20, channel=1, data=[7, 108]),
   midi.ControlChangeEvent(tick=20, channel=1, data=[7, 109]),
   midi.ControlChangeEvent(tick=20, channel=1, data=[7, 109]),
   midi.ControlChangeEvent(tick=15, channel=1, data=[7, 109]),
   midi.ControlChangeEvent(tick=10, channel=1, data=[7, 110]),
   midi.ControlChangeEvent(tick=15, channel=1, data=[7, 110]),
   midi.ControlChangeEvent(tick=15, channel=1, data=[7, 111]),
   midi.ControlChangeEvent(tick=10, channel=1, data=[7, 112]),
   midi.ControlChangeEvent(tick=15, channel=1, data=[7, 112]),
   midi.ControlChangeEvent(tick=10, channel=1, data=[7, 114]),
   midi.NoteOnEvent(tick=35, channel=1, data=[88, 0]),
   midi.NoteOnEvent(tick=0, channel=1, data=[76, 0]),
   midi.NoteOnEvent(tick=10, channel=1, data=[77, 94]),
   midi.NoteOnEvent(tick=0, channel=1, data=[89, 94]),
   midi.NoteOnEvent(tick=115, channel=1, data=[89, 0]),
   midi.NoteOnEvent(tick=0, channel=1, data=[77, 0]),
   midi.NoteOnEvent(tick=5, channel=1, data=[76, 94]),
   midi.NoteOnEvent(tick=0, channel=1, data=[88, 94]),
   midi.ControlChangeEvent(tick=45, channel=1, data=[7, 112]),
   midi.ControlChangeEvent(tick=15, channel=1, data=[7, 112]),
   midi.ControlChangeEvent(tick=10, channel=1, data=[7, 112]),
   midi.ControlChangeEvent(tick=10, channel=1, data=[7, 111]),
   midi.ControlChangeEvent(tick=15, channel=1, data=[7, 110]),
   midi.ControlChangeEvent(tick=10, channel=1, data=[7, 110]),
   midi.NoteOnEvent(tick=5, channel=1, data=[88, 0]),
   midi.NoteOnEvent(tick=0, channel=1, data=[76, 0]),
   midi.ControlChangeEvent(tick=5, channel=1, data=[7, 109]),
   midi.NoteOnEvent(tick=5, channel=1, data=[69, 94]),
   midi.NoteOnEvent(tick=0, channel=1, data=[81, 94]),
   midi.ControlChangeEvent(tick=10, channel=1, data=[7, 109]),
   midi.ControlChangeEvent(tick=15, channel=1, data=[7, 109]),
   midi.NoteOnEvent(tick=15, channel=1, data=[81, 0]),
   midi.NoteOnEvent(tick=0, channel=1, data=[69, 0]),
   midi.NoteOnEvent(tick=0, channel=1, data=[71, 94]),
   midi.NoteOnEvent(tick=0, channel=1, data=[83, 94]),
   midi.ControlChangeEvent(tick=0, channel=1, data=[7, 108]),
   midi.ControlChangeEvent(tick=10, channel=1, data=[7, 107]),
   midi.ControlChangeEvent(tick=15, channel=1, data=[7, 106]),
   midi.ControlChangeEvent(tick=10, channel=1, data=[7, 105]),
   midi.NoteOnEvent(tick=5, channel=1, data=[83, 0]),
   midi.NoteOnEvent(tick=0, channel=1, data=[71, 0]),
   midi.NoteOnEvent(tick=0, channel=1, data=[72, 94]),
   midi.NoteOnEvent(tick=0, channel=1, data=[84, 94]),
   midi.ControlChangeEvent(tick=5, channel=1, data=[7, 104]),
   midi.ControlChangeEvent(tick=10, channel=1, data=[7, 103]),
   midi.ControlChangeEvent(tick=15, channel=1, data=[7, 102]),
   midi.NoteOnEvent(tick=10, channel=1, data=[84, 0]),
   midi.NoteOnEvent(tick=0, channel=1, data=[72, 0]),
   midi.NoteOnEvent(tick=0, channel=1, data=[71, 94]),
   midi.NoteOnEvent(tick=0, channel=1, data=[83, 94]),
   midi.ControlChangeEvent(tick=5, channel=1, data=[7, 102]),
   midi.ControlChangeEvent(tick=10, channel=1, data=[7, 101]),
   midi.ControlChangeEvent(tick=15, channel=1, data=[7, 101]),
   midi.ControlChangeEvent(tick=15, channel=1, data=[7, 101]),
   midi.NoteOnEvent(tick=10, channel=1, data=[83, 0]),
   midi.NoteOnEvent(tick=0, channel=1, data=[71, 0]),
   midi.ControlChangeEvent(tick=5, channel=1, data=[7, 101]),
   midi.NoteOnEvent(tick=0, channel=1, data=[74, 94]),
   midi.NoteOnEvent(tick=0, channel=1, data=[86, 94]),
   midi.ControlChangeEvent(tick=10, channel=1, data=[7, 100]),
   midi.ControlChangeEvent(tick=10, channel=1, data=[7, 99]),
   midi.NoteOnEvent(tick=15, channel=1, data=[86, 0]),
   midi.NoteOnEvent(tick=0, channel=1, data=[74, 0]),
   midi.ControlChangeEvent(tick=0, channel=1, data=[7, 99]),
   midi.ControlChangeEvent(tick=15, channel=1, data=[7, 98]),
   midi.NoteOnEvent(tick=10, channel=1, data=[68, 94]),
   midi.ControlChangeEvent(tick=20, channel=1, data=[7, 98]),
   midi.ControlChangeEvent(tick=20, channel=1, data=[7, 96]),
   midi.ControlChangeEvent(tick=65, channel=1, data=[7, 98]),
   midi.ControlChangeEvent(tick=10, channel=1, data=[7, 98]),
   midi.ControlChangeEvent(tick=15, channel=1, data=[7, 99]),
   midi.ControlChangeEvent(tick=10, channel=1, data=[7, 101]),
   midi.ControlChangeEvent(tick=10, channel=1, data=[7, 101]),
   midi.ControlChangeEvent(tick=10, channel=1, data=[7, 102]),
   midi.NoteOnEvent(tick=15, channel=1, data=[68, 0]),
   midi.NoteOnEvent(tick=5, channel=1, data=[69, 94]),
   midi.ControlChangeEvent(tick=5, channel=1, data=[7, 101]),
   midi.ControlChangeEvent(tick=10, channel=1, data=[7, 101]),
   midi.ControlChangeEvent(tick=10, channel=1, data=[7, 99]),
   midi.ControlChangeEvent(tick=10, channel=1, data=[7, 98]),
   midi.ControlChangeEvent(tick=10, channel=1, data=[7, 98]),
   midi.NoteOnEvent(tick=5, channel=1, data=[69, 0]),
   midi.ControlChangeEvent(tick=5, channel=1, data=[7, 96]),
   midi.NoteOnEvent(tick=5, channel=1, data=[72, 91]),
   midi.ControlChangeEvent(tick=5, channel=1, data=[7, 96]),
   midi.ControlChangeEvent(tick=5, channel=1, data=[7, 96]),
   midi.ControlChangeEvent(tick=15, channel=1, data=[7, 96]),
   midi.ControlChangeEvent(tick=10, channel=1, data=[7, 94]),
   midi.ControlChangeEvent(tick=10, channel=1, data=[7, 94]),
   midi.NoteOnEvent(tick=10, channel=1, data=[72, 0]),
   midi.ControlChangeEvent(tick=0, channel=1, data=[7, 93]),
   midi.ControlChangeEvent(tick=10, channel=1, data=[7, 92]),
   midi.ControlChangeEvent(tick=10, channel=1, data=[7, 92]),
   midi.ControlChangeEvent(tick=10, channel=1, data=[7, 90]),
   midi.ControlChangeEvent(tick=10, channel=1, data=[7, 90]),
   midi.ControlChangeEvent(tick=10, channel=1, data=[7, 90]),
   midi.NoteOnEvent(tick=15, channel=1, data=[68, 86]),
   midi.ControlChangeEvent(tick=5, channel=1, data=[7, 89]),
   midi.ControlChangeEvent(tick=10, channel=1, data=[7, 89]),
   midi.ControlChangeEvent(tick=5, channel=1, data=[7, 88]),
   midi.ControlChangeEvent(tick=10, channel=1, data=[7, 87]),
   midi.ControlChangeEvent(tick=15, channel=1, data=[7, 87]),
   midi.NoteOnEvent(tick=10, channel=1, data=[68, 0]),
   midi.ControlChangeEvent(tick=15, channel=1, data=[7, 86]),
   midi.ControlChangeEvent(tick=10, channel=1, data=[7, 85]),
   midi.ControlChangeEvent(tick=5, channel=1, data=[7, 84]),
   midi.ControlChangeEvent(tick=30, channel=1, data=[7, 83]),
   midi.NoteOnEvent(tick=10, channel=1, data=[69, 80]),
   midi.ControlChangeEvent(tick=20, channel=1, data=[7, 83]),
   midi.NoteOnEvent(tick=35, channel=1, data=[69, 0]),
   midi.ControlChangeEvent(tick=305, channel=1, data=[7, 83]),
   midi.ControlChangeEvent(tick=20, channel=1, data=[7, 84]),
   midi.ControlChangeEvent(tick=10, channel=1, data=[7, 85]),
   midi.ControlChangeEvent(tick=15, channel=1, data=[7, 86]),
   midi.ControlChangeEvent(tick=15, channel=1, data=[7, 87]),
   midi.ControlChangeEvent(tick=20, channel=1, data=[7, 87]),
   midi.ControlChangeEvent(tick=30, channel=1, data=[7, 88]),
   midi.ControlChangeEvent(tick=15, channel=1, data=[7, 89]),
   midi.ControlChangeEvent(tick=15, channel=1, data=[7, 90]),
   midi.ControlChangeEvent(tick=10, channel=1, data=[7, 90]),
   midi.ControlChangeEvent(tick=15, channel=1, data=[7, 90]),
   midi.ControlChangeEvent(tick=25, channel=1, data=[7, 92]),
   midi.ControlChangeEvent(tick=30, channel=1, data=[7, 92]),
   midi.ControlChangeEvent(tick=15, channel=1, data=[7, 93]),
   midi.ControlChangeEvent(tick=35, channel=1, data=[7, 94]),
   midi.ControlChangeEvent(tick=45, channel=1, data=[7, 94]),
   midi.ControlChangeEvent(tick=10, channel=1, data=[7, 96]),
   midi.ControlChangeEvent(tick=15, channel=1, data=[7, 96]),
   midi.ControlChangeEvent(tick=10, channel=1, data=[7, 96]),
   midi.NoteOnEvent(tick=5, channel=1, data=[60, 94]),
   midi.ControlChangeEvent(tick=10, channel=1, data=[7, 98]),
   midi.ControlChangeEvent(tick=10, channel=1, data=[7, 98]),
   midi.ControlChangeEvent(tick=15, channel=1, data=[7, 99]),
   midi.NoteOnEvent(tick=5, channel=1, data=[60, 0]),
   midi.ControlChangeEvent(tick=5, channel=1, data=[7, 100]),
   midi.NoteOnEvent(tick=45, channel=1, data=[62, 94]),
   midi.NoteOnEvent(tick=20, channel=1, data=[62, 0]),
   midi.ControlChangeEvent(tick=5, channel=1, data=[7, 101]),
   midi.NoteOnEvent(tick=5, channel=1, data=[62, 94]),
   midi.ControlChangeEvent(tick=10, channel=1, data=[7, 101]),
   midi.NoteOnEvent(tick=10, channel=1, data=[62, 0]),
   midi.ControlChangeEvent(tick=0, channel=1, data=[7, 101]),
   midi.ControlChangeEvent(tick=30, channel=1, data=[7, 102]),
   midi.NoteOnEvent(tick=10, channel=1, data=[64, 94]),
   midi.ControlChangeEvent(tick=15, channel=1, data=[7, 102]),
   midi.NoteOnEvent(tick=5, channel=1, data=[64, 0]),
   midi.ControlChangeEvent(tick=25, channel=1, data=[7, 103]),
   midi.NoteOnEvent(tick=15, channel=1, data=[64, 86]),
   midi.ControlChangeEvent(tick=0, channel=1, data=[7, 104]),
   midi.ControlChangeEvent(tick=15, channel=1, data=[7, 105]),
   midi.ControlChangeEvent(tick=10, channel=1, data=[7, 107]),
   midi.NoteOnEvent(tick=15, channel=1, data=[64, 0]),
   midi.ControlChangeEvent(tick=590, channel=1, data=[7, 108]),
   midi.ControlChangeEvent(tick=35, channel=1, data=[7, 108]),
   midi.ControlChangeEvent(tick=20, channel=1, data=[7, 109]),
   midi.ControlChangeEvent(tick=25, channel=1, data=[7, 109]),
   midi.NoteOnEvent(tick=10, channel=1, data=[64, 94]),
   midi.ControlChangeEvent(tick=5, channel=1, data=[7, 109]),
   midi.ControlChangeEvent(tick=15, channel=1, data=[7, 110]),
   midi.NoteOnEvent(tick=20, channel=1, data=[64, 0]),
   midi.ControlChangeEvent(tick=10, channel=1, data=[7, 110]),
   midi.ControlChangeEvent(tick=35, channel=1, data=[7, 111]),
   midi.NoteOnEvent(tick=5, channel=1, data=[65, 94]),
   midi.NoteOnEvent(tick=20, channel=1, data=[65, 0]),
   midi.NoteOnEvent(tick=10, channel=1, data=[65, 94]),
   midi.ControlChangeEvent(tick=10, channel=1, data=[7, 112]),
   midi.NoteOnEvent(tick=10, channel=1, data=[65, 0]),
   midi.ControlChangeEvent(tick=10, channel=1, data=[7, 112]),
   midi.ControlChangeEvent(tick=25, channel=1, data=[7, 112]),
   midi.NoteOnEvent(tick=5, channel=1, data=[67, 94]),
   midi.NoteOnEvent(tick=20, channel=1, data=[67, 0]),
   midi.ControlChangeEvent(tick=35, channel=1, data=[7, 112]),
   midi.NoteOnEvent(tick=5, channel=1, data=[64, 92]),
   midi.ControlChangeEvent(tick=10, channel=1, data=[7, 110]),
   midi.ControlChangeEvent(tick=10, channel=1, data=[7, 109]),
   midi.ControlChangeEvent(tick=15, channel=1, data=[7, 108]),
   midi.ControlChangeEvent(tick=10, channel=1, data=[7, 106]),
   midi.NoteOnEvent(tick=15, channel=1, data=[64, 0]),
   midi.ControlChangeEvent(tick=0, channel=1, data=[7, 104]),
   midi.ControlChangeEvent(tick=10, channel=1, data=[7, 103]),
   midi.ControlChangeEvent(tick=15, channel=1, data=[7, 102]),
   midi.ControlChangeEvent(tick=10, channel=1, data=[7, 101]),
   midi.ControlChangeEvent(tick=15, channel=1, data=[7, 101]),
   midi.ControlChangeEvent(tick=35, channel=1, data=[7, 101]),
   midi.ControlChangeEvent(tick=315, channel=1, data=[7, 101]),
   midi.ControlChangeEvent(tick=10, channel=1, data=[7, 101]),
   midi.ControlChangeEvent(tick=15, channel=1, data=[7, 100]),
   midi.ControlChangeEvent(tick=10, channel=1, data=[7, 99]),
   midi.ControlChangeEvent(tick=15, channel=1, data=[7, 98]),
   midi.ControlChangeEvent(tick=15, channel=1, data=[7, 98]),
   midi.ControlChangeEvent(tick=15, channel=1, data=[7, 96]),
   midi.ControlChangeEvent(tick=10, channel=1, data=[7, 96]),
   midi.ControlChangeEvent(tick=15, channel=1, data=[7, 96]),
   midi.ControlChangeEvent(tick=15, channel=1, data=[7, 96]),
   midi.ControlChangeEvent(tick=15, channel=1, data=[7, 94]),
   midi.ControlChangeEvent(tick=10, channel=1, data=[7, 94]),
   midi.ControlChangeEvent(tick=20, channel=1, data=[7, 94]),
   midi.ControlChangeEvent(tick=55, channel=1, data=[7, 93]),
   midi.ControlChangeEvent(tick=745, channel=1, data=[7, 92]),
   midi.ControlChangeEvent(tick=195, channel=1, data=[7, 92]),
   midi.ControlChangeEvent(tick=70, channel=1, data=[7, 90]),
   midi.ControlChangeEvent(tick=120, channel=1, data=[7, 90]),
   midi.ControlChangeEvent(tick=20, channel=1, data=[7, 90]),
   midi.ControlChangeEvent(tick=10, channel=1, data=[7, 89]),
   midi.ControlChangeEvent(tick=65, channel=1, data=[7, 90]),
   midi.ControlChangeEvent(tick=5, channel=1, data=[7, 90]),
   midi.NoteOnEvent(tick=10, channel=1, data=[64, 81]),
   midi.ControlChangeEvent(tick=0, channel=1, data=[7, 92]),
   midi.ControlChangeEvent(tick=20, channel=1, data=[7, 92]),
   midi.ControlChangeEvent(tick=20, channel=1, data=[7, 93]),
   midi.ControlChangeEvent(tick=15, channel=1, data=[7, 94]),
   midi.ControlChangeEvent(tick=10, channel=1, data=[7, 94]),
   midi.ControlChangeEvent(tick=15, channel=1, data=[7, 94]),
   midi.ControlChangeEvent(tick=15, channel=1, data=[7, 96]),
   midi.ControlChangeEvent(tick=15, channel=1, data=[7, 96]),
   midi.NoteOnEvent(tick=10, channel=1, data=[64, 0]),
   midi.NoteOnEvent(tick=0, channel=1, data=[65, 83]),
   midi.ControlChangeEvent(tick=10, channel=1, data=[7, 96]),
   midi.ControlChangeEvent(tick=15, channel=1, data=[7, 96]),
   midi.ControlChangeEvent(tick=15, channel=1, data=[7, 96]),
   midi.ControlChangeEvent(tick=15, channel=1, data=[7, 98]),
   midi.ControlChangeEvent(tick=20, channel=1, data=[7, 98]),
   midi.ControlChangeEvent(tick=15, channel=1, data=[7, 99]),
   midi.ControlChangeEvent(tick=15, channel=1, data=[7, 99]),
   midi.NoteOnEvent(tick=15, channel=1, data=[65, 0]),
   midi.NoteOnEvent(tick=0, channel=1, data=[71, 85]),
   midi.ControlChangeEvent(tick=10, channel=1, data=[7, 100]),
   midi.ControlChangeEvent(tick=20, channel=1, data=[7, 101]),
   midi.ControlChangeEvent(tick=45, channel=1, data=[7, 101]),
   midi.ControlChangeEvent(tick=25, channel=1, data=[7, 101]),
   midi.ControlChangeEvent(tick=30, channel=1, data=[7, 101]),
   midi.ControlChangeEvent(tick=15, channel=1, data=[7, 102]),
   midi.ControlChangeEvent(tick=80, channel=1, data=[7, 101]),
   midi.NoteOnEvent(tick=15, channel=1, data=[71, 0]),
   midi.NoteOnEvent(tick=0, channel=1, data=[69, 90]),
   midi.ControlChangeEvent(tick=5, channel=1, data=[7, 101]),
   midi.ControlChangeEvent(tick=10, channel=1, data=[7, 101]),
   midi.ControlChangeEvent(tick=40, channel=1, data=[7, 101]),
   midi.ControlChangeEvent(tick=15, channel=1, data=[7, 101]),
   midi.ControlChangeEvent(tick=10, channel=1, data=[7, 102]),
   midi.ControlChangeEvent(tick=15, channel=1, data=[7, 103]),
   midi.ControlChangeEvent(tick=15, channel=1, data=[7, 104]),
   midi.NoteOnEvent(tick=10, channel=1, data=[69, 0]),
   midi.NoteOnEvent(tick=0, channel=1, data=[70, 92]),
   midi.ControlChangeEvent(tick=0, channel=1, data=[7, 106]),
   midi.ControlChangeEvent(tick=15, channel=1, data=[7, 107]),
   midi.ControlChangeEvent(tick=15, channel=1, data=[7, 108]),
   midi.ControlChangeEvent(tick=10, channel=1, data=[7, 109]),
   midi.ControlChangeEvent(tick=15, channel=1, data=[7, 109]),
   midi.ControlChangeEvent(tick=10, channel=1, data=[7, 110]),
   midi.ControlChangeEvent(tick=15, channel=1, data=[7, 110]),
   midi.ControlChangeEvent(tick=10, channel=1, data=[7, 112]),
   midi.ControlChangeEvent(tick=15, channel=1, data=[7, 112]),
   midi.ControlChangeEvent(tick=10, channel=1, data=[7, 112]),
   midi.NoteOnEvent(tick=5, channel=1, data=[70, 0]),
   midi.NoteOnEvent(tick=0, channel=1, data=[76, 95]),
   midi.ControlChangeEvent(tick=10, channel=1, data=[7, 114]),
   midi.NoteOnEvent(tick=230, channel=1, data=[76, 0]),
   midi.NoteOnEvent(tick=0, channel=1, data=[77, 101]),
   midi.NoteOnEvent(tick=120, channel=1, data=[77, 0]),
   midi.NoteOnEvent(tick=0, channel=1, data=[76, 93]),
   midi.ControlChangeEvent(tick=30, channel=1, data=[7, 112]),
   midi.ControlChangeEvent(tick=15, channel=1, data=[7, 112]),
   midi.ControlChangeEvent(tick=10, channel=1, data=[7, 110]),
   midi.ControlChangeEvent(tick=10, channel=1, data=[7, 109]),
   midi.ControlChangeEvent(tick=15, channel=1, data=[7, 108]),
   midi.ControlChangeEvent(tick=10, channel=1, data=[7, 106]),
   midi.ControlChangeEvent(tick=15, channel=1, data=[7, 102]),
   midi.ControlChangeEvent(tick=10, channel=1, data=[7, 101]),
   midi.NoteOnEvent(tick=5, channel=1, data=[76, 0]),
   midi.NoteOnEvent(tick=0, channel=1, data=[69, 86]),
   midi.ControlChangeEvent(tick=5, channel=1, data=[7, 100]),
   midi.ControlChangeEvent(tick=15, channel=1, data=[7, 98]),
   midi.ControlChangeEvent(tick=10, channel=1, data=[7, 96]),
   midi.ControlChangeEvent(tick=15, channel=1, data=[7, 96]),
   midi.ControlChangeEvent(tick=10, channel=1, data=[7, 96]),
   midi.ControlChangeEvent(tick=15, channel=1, data=[7, 96]),
   midi.ControlChangeEvent(tick=10, channel=1, data=[7, 94]),
   midi.ControlChangeEvent(tick=50, channel=1, data=[7, 94]),
   midi.NoteOnEvent(tick=20, channel=1, data=[69, 0]),
   midi.ControlChangeEvent(tick=0, channel=1, data=[7, 94]),
   midi.ControlChangeEvent(tick=260, channel=1, data=[7, 94]),
   midi.ControlChangeEvent(tick=10, channel=1, data=[7, 94]),
   midi.ControlChangeEvent(tick=10, channel=1, data=[7, 96]),
   midi.ControlChangeEvent(tick=20, channel=1, data=[7, 96]),
   midi.ControlChangeEvent(tick=15, channel=1, data=[7, 96]),
   midi.ControlChangeEvent(tick=10, channel=1, data=[7, 96]),
   midi.NoteOnEvent(tick=125, channel=1, data=[68, 94]),
   midi.NoteOnEvent(tick=30, channel=1, data=[68, 0]),
   midi.NoteOnEvent(tick=90, channel=1, data=[57, 94]),
   midi.NoteOnEvent(tick=30, channel=1, data=[57, 0]),
   midi.NoteOnEvent(tick=210, channel=1, data=[57, 94]),
   midi.NoteOnEvent(tick=30, channel=1, data=[57, 0]),
   midi.ControlChangeEvent(tick=35, channel=1, data=[7, 98]),
   midi.ControlChangeEvent(tick=45, channel=1, data=[7, 98]),
   midi.ControlChangeEvent(tick=50, channel=1, data=[7, 99]),
   midi.ControlChangeEvent(tick=25, channel=1, data=[7, 99]),
   midi.ControlChangeEvent(tick=25, channel=1, data=[7, 100]),
   midi.NoteOnEvent(tick=30, channel=1, data=[57, 94]),
   midi.ControlChangeEvent(tick=25, channel=1, data=[7, 101]),
   midi.NoteOnEvent(tick=5, channel=1, data=[57, 0]),
   midi.ControlChangeEvent(tick=35, channel=1, data=[7, 101]),
   midi.ControlChangeEvent(tick=15, channel=1, data=[7, 101]),
   midi.ControlChangeEvent(tick=40, channel=1, data=[7, 101]),
   midi.ControlChangeEvent(tick=30, channel=1, data=[7, 102]),
   midi.ControlChangeEvent(tick=30, channel=1, data=[7, 102]),
   midi.ControlChangeEvent(tick=195, channel=1, data=[7, 103]),
   midi.ControlChangeEvent(tick=60, channel=1, data=[7, 104]),
   midi.ControlChangeEvent(tick=40, channel=1, data=[7, 105]),
   midi.NoteOnEvent(tick=5, channel=1, data=[68, 104]),
   midi.ControlChangeEvent(tick=10, channel=1, data=[7, 106]),
   midi.NoteOnEvent(tick=10, channel=1, data=[68, 0]),
   midi.ControlChangeEvent(tick=20, channel=1, data=[7, 108]),
   midi.ControlChangeEvent(tick=20, channel=1, data=[7, 108]),
   midi.ControlChangeEvent(tick=20, channel=1, data=[7, 109]),
   midi.ControlChangeEvent(tick=20, channel=1, data=[7, 109]),
   midi.ControlChangeEvent(tick=20, channel=1, data=[7, 110]),
   midi.ControlChangeEvent(tick=15, channel=1, data=[7, 110]),
   midi.ControlChangeEvent(tick=30, channel=1, data=[7, 111]),
   midi.NoteOnEvent(tick=15, channel=1, data=[84, 104]),
   midi.ControlChangeEvent(tick=5, channel=1, data=[7, 112]),
   midi.NoteOnEvent(tick=15, channel=1, data=[84, 0]),
   midi.ControlChangeEvent(tick=0, channel=1, data=[7, 112]),
   midi.ControlChangeEvent(tick=20, channel=1, data=[7, 114]),
   midi.NoteOnEvent(tick=20, channel=1, data=[83, 104]),
   midi.NoteOnEvent(tick=20, channel=1, data=[83, 0]),
   midi.ControlChangeEvent(tick=55, channel=1, data=[7, 112]),
   midi.ControlChangeEvent(tick=20, channel=1, data=[7, 112]),
   midi.ControlChangeEvent(tick=15, channel=1, data=[7, 111]),
   midi.ControlChangeEvent(tick=20, channel=1, data=[7, 110]),
   midi.NoteOnEvent(tick=50, channel=1, data=[79, 104]),
   midi.ControlChangeEvent(tick=10, channel=1, data=[7, 110]),
   midi.NoteOnEvent(tick=10, channel=1, data=[79, 0]),
   midi.NoteOnEvent(tick=40, channel=1, data=[77, 104]),
   midi.NoteOnEvent(tick=20, channel=1, data=[77, 0]),
   midi.ControlChangeEvent(tick=100, channel=1, data=[7, 109]),
   midi.ControlChangeEvent(tick=15, channel=1, data=[7, 109]),
   midi.ControlChangeEvent(tick=20, channel=1, data=[7, 108]),
   midi.ControlChangeEvent(tick=20, channel=1, data=[7, 108]),
   midi.NoteOnEvent(tick=5, channel=1, data=[72, 104]),
   midi.NoteOnEvent(tick=20, channel=1, data=[72, 0]),
   midi.ControlChangeEvent(tick=0, channel=1, data=[7, 107]),
   midi.ControlChangeEvent(tick=25, channel=1, data=[7, 106]),
   midi.NoteOnEvent(tick=15, channel=1, data=[71, 104]),
   midi.NoteOnEvent(tick=20, channel=1, data=[71, 0]),
   midi.NoteOnEvent(tick=40, channel=1, data=[69, 104]),
   midi.NoteOnEvent(tick=20, channel=1, data=[69, 0]),
   midi.ControlChangeEvent(tick=5, channel=1, data=[7, 107]),
   midi.ControlChangeEvent(tick=15, channel=1, data=[7, 108]),
   midi.ControlChangeEvent(tick=20, channel=1, data=[7, 109]),
   midi.NoteOnEvent(tick=0, channel=1, data=[68, 104]),
   midi.ControlChangeEvent(tick=15, channel=1, data=[7, 111]),
   midi.NoteOnEvent(tick=5, channel=1, data=[68, 0]),
   midi.ControlChangeEvent(tick=10, channel=1, data=[7, 112]),
   midi.ControlChangeEvent(tick=20, channel=1, data=[7, 114]),
   midi.NoteOnEvent(tick=70, channel=1, data=[57, 94]),
   midi.NoteOnEvent(tick=30, channel=1, data=[57, 0]),
   midi.ControlChangeEvent(tick=70, channel=1, data=[7, 112]),
   midi.ControlChangeEvent(tick=15, channel=1, data=[7, 110]),
   midi.ControlChangeEvent(tick=20, channel=1, data=[7, 108]),
   midi.ControlChangeEvent(tick=20, channel=1, data=[7, 103]),
   midi.ControlChangeEvent(tick=15, channel=1, data=[7, 102]),
   midi.NoteOnEvent(tick=70, channel=1, data=[57, 94]),
   midi.NoteOnEvent(tick=30, channel=1, data=[57, 0]),
   midi.ControlChangeEvent(tick=80, channel=1, data=[7, 102]),
   midi.ControlChangeEvent(tick=30, channel=1, data=[7, 103]),
   midi.ControlChangeEvent(tick=20, channel=1, data=[7, 104]),
   midi.ControlChangeEvent(tick=20, channel=1, data=[7, 105]),
   midi.ControlChangeEvent(tick=20, channel=1, data=[7, 107]),
   midi.NoteOnEvent(tick=40, channel=1, data=[57, 94]),
   midi.NoteOnEvent(tick=30, channel=1, data=[57, 0]),
   midi.ControlChangeEvent(tick=50, channel=1, data=[7, 108]),
   midi.ControlChangeEvent(tick=330, channel=1, data=[7, 109]),
   midi.ControlChangeEvent(tick=20, channel=1, data=[7, 114]),
   midi.NoteOnEvent(tick=50, channel=1, data=[66, 94]),
   midi.NoteOnEvent(tick=30, channel=1, data=[66, 0]),
   midi.NoteOnEvent(tick=150, channel=1, data=[82, 104]),
   midi.NoteOnEvent(tick=20, channel=1, data=[82, 0]),
   midi.NoteOnEvent(tick=40, channel=1, data=[81, 104]),
   midi.NoteOnEvent(tick=20, channel=1, data=[81, 0]),
   midi.NoteOnEvent(tick=160, channel=1, data=[77, 104]),
   midi.NoteOnEvent(tick=20, channel=1, data=[77, 0]),
   midi.NoteOnEvent(tick=40, channel=1, data=[75, 104]),
   midi.NoteOnEvent(tick=20, channel=1, data=[75, 0]),
   midi.NoteOnEvent(tick=160, channel=1, data=[70, 104]),
   midi.NoteOnEvent(tick=20, channel=1, data=[70, 0]),
   midi.NoteOnEvent(tick=40, channel=1, data=[69, 104]),
   midi.NoteOnEvent(tick=20, channel=1, data=[69, 0]),
   midi.NoteOnEvent(tick=40, channel=1, data=[67, 104]),
   midi.NoteOnEvent(tick=20, channel=1, data=[67, 0]),
   midi.NoteOnEvent(tick=40, channel=1, data=[66, 104]),
   midi.NoteOnEvent(tick=20, channel=1, data=[66, 0]),
   midi.ControlChangeEvent(tick=80, channel=1, data=[7, 112]),
   midi.ControlChangeEvent(tick=15, channel=1, data=[7, 110]),
   midi.ControlChangeEvent(tick=20, channel=1, data=[7, 107]),
   midi.ControlChangeEvent(tick=20, channel=1, data=[7, 102]),
   midi.ControlChangeEvent(tick=20, channel=1, data=[7, 101]),
   midi.ControlChangeEvent(tick=20, channel=1, data=[7, 98]),
   midi.ControlChangeEvent(tick=20, channel=1, data=[7, 96]),
   midi.ControlChangeEvent(tick=20, channel=1, data=[7, 94]),
   midi.ControlChangeEvent(tick=15, channel=1, data=[7, 94]),
   midi.ControlChangeEvent(tick=15, channel=1, data=[7, 92]),
   midi.ControlChangeEvent(tick=20, channel=1, data=[7, 92]),
   midi.ControlChangeEvent(tick=15, channel=1, data=[7, 90]),
   midi.ControlChangeEvent(tick=15, channel=1, data=[7, 90]),
   midi.ControlChangeEvent(tick=25, channel=1, data=[7, 90]),
   midi.ControlChangeEvent(tick=15, channel=1, data=[7, 89]),
   midi.ControlChangeEvent(tick=20, channel=1, data=[7, 89]),
   midi.NoteOnEvent(tick=20, channel=1, data=[69, 109]),
   midi.NoteOnEvent(tick=15, channel=1, data=[69, 0]),
   midi.NoteOnEvent(tick=0, channel=1, data=[70, 109]),
   midi.NoteOnEvent(tick=15, channel=1, data=[70, 0]),
   midi.NoteOnEvent(tick=30, channel=1, data=[73, 109]),
   midi.NoteOnEvent(tick=15, channel=1, data=[73, 0]),
   midi.NoteOnEvent(tick=0, channel=1, data=[74, 109]),
   midi.NoteOnEvent(tick=15, channel=1, data=[74, 0]),
   midi.NoteOnEvent(tick=30, channel=1, data=[69, 109]),
   midi.NoteOnEvent(tick=15, channel=1, data=[69, 0]),
   midi.NoteOnEvent(tick=0, channel=1, data=[70, 109]),
   midi.NoteOnEvent(tick=15, channel=1, data=[70, 0]),
   midi.NoteOnEvent(tick=30, channel=1, data=[73, 109]),
   midi.NoteOnEvent(tick=15, channel=1, data=[73, 0]),
   midi.NoteOnEvent(tick=0, channel=1, data=[74, 109]),
   midi.NoteOnEvent(tick=15, channel=1, data=[74, 0]),
   midi.ControlChangeEvent(tick=140, channel=1, data=[7, 88]),
   midi.ControlChangeEvent(tick=45, channel=1, data=[7, 87]),
   midi.NoteOnEvent(tick=85, channel=1, data=[76, 109]),
   midi.NoteOnEvent(tick=15, channel=1, data=[76, 0]),
   midi.NoteOnEvent(tick=0, channel=1, data=[77, 109]),
   midi.NoteOnEvent(tick=15, channel=1, data=[77, 0]),
   midi.NoteOnEvent(tick=30, channel=1, data=[80, 109]),
   midi.NoteOnEvent(tick=15, channel=1, data=[80, 0]),
   midi.NoteOnEvent(tick=0, channel=1, data=[81, 109]),
   midi.NoteOnEvent(tick=15, channel=1, data=[81, 0]),
   midi.NoteOnEvent(tick=30, channel=1, data=[76, 109]),
   midi.ControlChangeEvent(tick=10, channel=1, data=[7, 87]),
   midi.NoteOnEvent(tick=5, channel=1, data=[76, 0]),
   midi.NoteOnEvent(tick=0, channel=1, data=[77, 109]),
   midi.NoteOnEvent(tick=15, channel=1, data=[77, 0]),
   midi.NoteOnEvent(tick=30, channel=1, data=[80, 109]),
   midi.NoteOnEvent(tick=15, channel=1, data=[80, 0]),
   midi.NoteOnEvent(tick=0, channel=1, data=[81, 109]),
   midi.NoteOnEvent(tick=15, channel=1, data=[81, 0]),
   midi.ControlChangeEvent(tick=635, channel=1, data=[7, 86]),
   midi.ControlChangeEvent(tick=40, channel=1, data=[7, 85]),
   midi.ControlChangeEvent(tick=280, channel=1, data=[7, 85]),
   midi.NoteOnEvent(tick=0, channel=1, data=[62, 94]),
   midi.ControlChangeEvent(tick=105, channel=1, data=[7, 75]),
   midi.ControlChangeEvent(tick=15, channel=1, data=[7, 75]),
   midi.ControlChangeEvent(tick=10, channel=1, data=[7, 76]),
   midi.ControlChangeEvent(tick=40, channel=1, data=[7, 76]),
   midi.ControlChangeEvent(tick=30, channel=1, data=[7, 77]),
   midi.ControlChangeEvent(tick=10, channel=1, data=[7, 78]),
   midi.ControlChangeEvent(tick=15, channel=1, data=[7, 79]),
   midi.ControlChangeEvent(tick=35, channel=1, data=[7, 79]),
   midi.ControlChangeEvent(tick=15, channel=1, data=[7, 80]),
   midi.ControlChangeEvent(tick=15, channel=1, data=[7, 81]),
   midi.NoteOnEvent(tick=10, channel=1, data=[62, 0]),
   midi.NoteOnEvent(tick=0, channel=1, data=[62, 94]),
   midi.ControlChangeEvent(tick=10, channel=1, data=[7, 81]),
   midi.ControlChangeEvent(tick=15, channel=1, data=[7, 81]),
   midi.ControlChangeEvent(tick=10, channel=1, data=[7, 83]),
   midi.ControlChangeEvent(tick=15, channel=1, data=[7, 83]),
   midi.NoteOnEvent(tick=5, channel=1, data=[62, 0]),
   midi.NoteOnEvent(tick=5, channel=1, data=[62, 94]),
   midi.ControlChangeEvent(tick=0, channel=1, data=[7, 83]),
   midi.ControlChangeEvent(tick=15, channel=1, data=[7, 84]),
   midi.ControlChangeEvent(tick=10, channel=1, data=[7, 86]),
   midi.ControlChangeEvent(tick=15, channel=1, data=[7, 87]),
   midi.NoteOnEvent(tick=15, channel=1, data=[62, 0]),
   midi.NoteOnEvent(tick=5, channel=1, data=[62, 94]),
   midi.ControlChangeEvent(tick=40, channel=1, data=[7, 86]),
   midi.NoteOnEvent(tick=15, channel=1, data=[62, 0]),
   midi.ControlChangeEvent(tick=0, channel=1, data=[7, 85]),
   midi.NoteOnEvent(tick=5, channel=1, data=[65, 94]),
   midi.ControlChangeEvent(tick=10, channel=1, data=[7, 83]),
   midi.ControlChangeEvent(tick=15, channel=1, data=[7, 83]),
   midi.ControlChangeEvent(tick=15, channel=1, data=[7, 83]),
   midi.ControlChangeEvent(tick=10, channel=1, data=[7, 83]),
   midi.ControlChangeEvent(tick=15, channel=1, data=[7, 81]),
   midi.ControlChangeEvent(tick=15, channel=1, data=[7, 81]),
   midi.ControlChangeEvent(tick=15, channel=1, data=[7, 81]),
   midi.ControlChangeEvent(tick=45, channel=1, data=[7, 81]),
   midi.ControlChangeEvent(tick=15, channel=1, data=[7, 83]),
   midi.ControlChangeEvent(tick=15, channel=1, data=[7, 83]),
   midi.ControlChangeEvent(tick=20, channel=1, data=[7, 83]),
   midi.ControlChangeEvent(tick=15, channel=1, data=[7, 83]),
   midi.ControlChangeEvent(tick=15, channel=1, data=[7, 83]),
   midi.ControlChangeEvent(tick=15, channel=1, data=[7, 84]),
   midi.ControlChangeEvent(tick=20, channel=1, data=[7, 85]),
   midi.ControlChangeEvent(tick=20, channel=1, data=[7, 86]),
   midi.ControlChangeEvent(tick=20, channel=1, data=[7, 87]),
   midi.NoteOnEvent(tick=5, channel=1, data=[65, 0]),
   midi.NoteOnEvent(tick=0, channel=1, data=[65, 94]),
   midi.ControlChangeEvent(tick=40, channel=1, data=[7, 87]),
   midi.NoteOnEvent(tick=15, channel=1, data=[65, 0]),
   midi.NoteOnEvent(tick=5, channel=1, data=[65, 94]),
   midi.ControlChangeEvent(tick=35, channel=1, data=[7, 88]),
   midi.NoteOnEvent(tick=20, channel=1, data=[65, 0]),
   midi.NoteOnEvent(tick=5, channel=1, data=[65, 94]),
   midi.NoteOnEvent(tick=55, channel=1, data=[65, 0]),
   midi.NoteOnEvent(tick=5, channel=1, data=[69, 94]),
   midi.ControlChangeEvent(tick=20, channel=1, data=[7, 87]),
   midi.ControlChangeEvent(tick=125, channel=1, data=[7, 88]),
   midi.ControlChangeEvent(tick=35, channel=1, data=[7, 89]),
   midi.ControlChangeEvent(tick=35, channel=1, data=[7, 89]),
   midi.ControlChangeEvent(tick=15, channel=1, data=[7, 90]),
   midi.ControlChangeEvent(tick=15, channel=1, data=[7, 90]),
   midi.ControlChangeEvent(tick=10, channel=1, data=[7, 90]),
   midi.NoteOnEvent(tick=10, channel=1, data=[69, 0]),
   midi.NoteOnEvent(tick=5, channel=1, data=[69, 94]),
   midi.ControlChangeEvent(tick=0, channel=1, data=[7, 92]),
   midi.ControlChangeEvent(tick=10, channel=1, data=[7, 93]),
   midi.NoteOnEvent(tick=15, channel=1, data=[69, 0]),
   midi.ControlChangeEvent(tick=0, channel=1, data=[7, 94]),
   midi.NoteOnEvent(tick=5, channel=1, data=[69, 94]),
   midi.ControlChangeEvent(tick=5, channel=1, data=[7, 94]),
   midi.ControlChangeEvent(tick=15, channel=1, data=[7, 96]),
   midi.NoteOnEvent(tick=5, channel=1, data=[69, 0]),
   midi.NoteOnEvent(tick=5, channel=1, data=[69, 94]),
   midi.ControlChangeEvent(tick=5, channel=1, data=[7, 96]),
   midi.ControlChangeEvent(tick=10, channel=1, data=[7, 96]),
   midi.NoteOnEvent(tick=10, channel=1, data=[69, 0]),
   midi.ControlChangeEvent(tick=5, channel=1, data=[7, 96]),
   midi.NoteOnEvent(tick=0, channel=1, data=[69, 94]),
   midi.ControlChangeEvent(tick=15, channel=1, data=[7, 98]),
   midi.NoteOnEvent(tick=10, channel=1, data=[69, 0]),
   midi.NoteOnEvent(tick=5, channel=1, data=[69, 94]),
   midi.ControlChangeEvent(tick=5, channel=1, data=[7, 98]),
   midi.NoteOnEvent(tick=20, channel=1, data=[69, 0]),
   midi.NoteOnEvent(tick=5, channel=1, data=[69, 94]),
   midi.ControlChangeEvent(tick=0, channel=1, data=[7, 99]),
   midi.ControlChangeEvent(tick=15, channel=1, data=[7, 99]),
   midi.NoteOnEvent(tick=10, channel=1, data=[69, 0]),
   midi.NoteOnEvent(tick=5, channel=1, data=[69, 94]),
   midi.ControlChangeEvent(tick=5, channel=1, data=[7, 100]),
   midi.ControlChangeEvent(tick=15, channel=1, data=[7, 101]),
   midi.NoteOnEvent(tick=5, channel=1, data=[69, 0]),
   midi.NoteOnEvent(tick=5, channel=1, data=[72, 105]),
   midi.ControlChangeEvent(tick=5, channel=1, data=[7, 101]),
   midi.ControlChangeEvent(tick=15, channel=1, data=[7, 101]),
   midi.NoteOnEvent(tick=5, channel=1, data=[72, 0]),
   midi.NoteOnEvent(tick=5, channel=1, data=[72, 105]),
   midi.ControlChangeEvent(tick=5, channel=1, data=[7, 101]),
   midi.ControlChangeEvent(tick=10, channel=1, data=[7, 102]),
   midi.NoteOnEvent(tick=10, channel=1, data=[72, 0]),
   midi.NoteOnEvent(tick=5, channel=1, data=[69, 105]),
   midi.ControlChangeEvent(tick=0, channel=1, data=[7, 102]),
   midi.ControlChangeEvent(tick=15, channel=1, data=[7, 104]),
   midi.NoteOnEvent(tick=10, channel=1, data=[69, 0]),
   midi.NoteOnEvent(tick=5, channel=1, data=[69, 105]),
   midi.ControlChangeEvent(tick=0, channel=1, data=[7, 105]),
   midi.ControlChangeEvent(tick=15, channel=1, data=[7, 106]),
   midi.NoteOnEvent(tick=10, channel=1, data=[69, 0]),
   midi.ControlChangeEvent(tick=0, channel=1, data=[7, 107]),
   midi.NoteOnEvent(tick=5, channel=1, data=[69, 105]),
   midi.NoteOnEvent(tick=25, channel=1, data=[69, 0]),
   midi.ControlChangeEvent(tick=0, channel=1, data=[7, 108]),
   midi.NoteOnEvent(tick=5, channel=1, data=[69, 105]),
   midi.ControlChangeEvent(tick=10, channel=1, data=[7, 108]),
   midi.NoteOnEvent(tick=15, channel=1, data=[69, 0]),
   midi.ControlChangeEvent(tick=0, channel=1, data=[7, 109]),
   midi.NoteOnEvent(tick=5, channel=1, data=[72, 105]),
   midi.ControlChangeEvent(tick=10, channel=1, data=[7, 109]),
   midi.NoteOnEvent(tick=15, channel=1, data=[72, 0]),
   midi.ControlChangeEvent(tick=0, channel=1, data=[7, 109]),
   midi.NoteOnEvent(tick=5, channel=1, data=[72, 105]),
   midi.ControlChangeEvent(tick=10, channel=1, data=[7, 110]),
   midi.NoteOnEvent(tick=15, channel=1, data=[72, 0]),
   midi.ControlChangeEvent(tick=0, channel=1, data=[7, 111]),
   midi.NoteOnEvent(tick=5, channel=1, data=[77, 105]),
   midi.ControlChangeEvent(tick=10, channel=1, data=[7, 112]),
   midi.NoteOnEvent(tick=15, channel=1, data=[77, 0]),
   midi.ControlChangeEvent(tick=0, channel=1, data=[7, 112]),
   midi.NoteOnEvent(tick=5, channel=1, data=[77, 105]),
   midi.ControlChangeEvent(tick=15, channel=1, data=[7, 112]),
   midi.NoteOnEvent(tick=10, channel=1, data=[77, 0]),
   midi.NoteOnEvent(tick=5, channel=1, data=[72, 105]),
   midi.ControlChangeEvent(tick=0, channel=1, data=[7, 114]),
   midi.NoteOnEvent(tick=25, channel=1, data=[72, 0]),
   midi.NoteOnEvent(tick=5, channel=1, data=[72, 105]),
   midi.NoteOnEvent(tick=25, channel=1, data=[72, 0]),
   midi.NoteOnEvent(tick=5, channel=1, data=[72, 105]),
   midi.NoteOnEvent(tick=25, channel=1, data=[72, 0]),
   midi.NoteOnEvent(tick=5, channel=1, data=[72, 105]),
   midi.NoteOnEvent(tick=25, channel=1, data=[72, 0]),
   midi.NoteOnEvent(tick=5, channel=1, data=[77, 105]),
   midi.NoteOnEvent(tick=25, channel=1, data=[77, 0]),
   midi.NoteOnEvent(tick=5, channel=1, data=[77, 105]),
   midi.NoteOnEvent(tick=25, channel=1, data=[77, 0]),
   midi.NoteOnEvent(tick=5, channel=1, data=[81, 94]),
   midi.NoteOnEvent(tick=55, channel=1, data=[81, 0]),
   midi.ControlChangeEvent(tick=410, channel=1, data=[7, 112]),
   midi.ControlChangeEvent(tick=10, channel=1, data=[7, 112]),
   midi.ControlChangeEvent(tick=15, channel=1, data=[7, 112]),
   midi.ControlChangeEvent(tick=10, channel=1, data=[7, 112]),
   midi.ControlChangeEvent(tick=10, channel=1, data=[7, 110]),
   midi.ControlChangeEvent(tick=10, channel=1, data=[7, 110]),
   midi.ControlChangeEvent(tick=10, channel=1, data=[7, 109]),
   midi.ControlChangeEvent(tick=10, channel=1, data=[7, 108]),
   midi.ControlChangeEvent(tick=15, channel=1, data=[7, 108]),
   midi.ControlChangeEvent(tick=10, channel=1, data=[7, 107]),
   midi.ControlChangeEvent(tick=10, channel=1, data=[7, 105]),
   midi.ControlChangeEvent(tick=15, channel=1, data=[7, 104]),
   midi.NoteOnEvent(tick=10, channel=1, data=[59, 89]),
   midi.ControlChangeEvent(tick=0, channel=1, data=[7, 103]),
   midi.ControlChangeEvent(tick=10, channel=1, data=[7, 102]),
   midi.ControlChangeEvent(tick=10, channel=1, data=[7, 101]),
   midi.ControlChangeEvent(tick=15, channel=1, data=[7, 101]),
   midi.ControlChangeEvent(tick=10, channel=1, data=[7, 101]),
   midi.ControlChangeEvent(tick=20, channel=1, data=[7, 100]),
   midi.ControlChangeEvent(tick=15, channel=1, data=[7, 99]),
   midi.ControlChangeEvent(tick=10, channel=1, data=[7, 99]),
   midi.ControlChangeEvent(tick=15, channel=1, data=[7, 98]),
   midi.ControlChangeEvent(tick=10, channel=1, data=[7, 98]),
   midi.NoteOnEvent(tick=5, channel=1, data=[59, 0]),
   midi.NoteOnEvent(tick=0, channel=1, data=[60, 89]),
   midi.ControlChangeEvent(tick=5, channel=1, data=[7, 96]),
   midi.ControlChangeEvent(tick=10, channel=1, data=[7, 96]),
   midi.ControlChangeEvent(tick=20, channel=1, data=[7, 96]),
   midi.ControlChangeEvent(tick=20, channel=1, data=[7, 96]),
   midi.ControlChangeEvent(tick=25, channel=1, data=[7, 96]),
   midi.ControlChangeEvent(tick=15, channel=1, data=[7, 94]),
   midi.ControlChangeEvent(tick=10, channel=1, data=[7, 94]),
   midi.NoteOnEvent(tick=15, channel=1, data=[60, 0]),
   midi.NoteOnEvent(tick=0, channel=1, data=[62, 89]),
   midi.ControlChangeEvent(tick=0, channel=1, data=[7, 94]),
   midi.ControlChangeEvent(tick=15, channel=1, data=[7, 93]),
   midi.ControlChangeEvent(tick=20, channel=1, data=[7, 92]),
   midi.ControlChangeEvent(tick=10, channel=1, data=[7, 92]),
   midi.ControlChangeEvent(tick=10, channel=1, data=[7, 90]),
   midi.ControlChangeEvent(tick=15, channel=1, data=[7, 90]),
   midi.ControlChangeEvent(tick=10, channel=1, data=[7, 90]),
   midi.ControlChangeEvent(tick=15, channel=1, data=[7, 89]),
   midi.ControlChangeEvent(tick=10, channel=1, data=[7, 89]),
   midi.ControlChangeEvent(tick=10, channel=1, data=[7, 87]),
   midi.NoteOnEvent(tick=5, channel=1, data=[62, 0]),
   midi.NoteOnEvent(tick=0, channel=1, data=[64, 89]),
   midi.ControlChangeEvent(tick=5, channel=1, data=[7, 85]),
   midi.ControlChangeEvent(tick=10, channel=1, data=[7, 83]),
   midi.ControlChangeEvent(tick=10, channel=1, data=[7, 83]),
   midi.ControlChangeEvent(tick=10, channel=1, data=[7, 83]),
   midi.ControlChangeEvent(tick=20, channel=1, data=[7, 83]),
   midi.ControlChangeEvent(tick=15, channel=1, data=[7, 81]),
   midi.ControlChangeEvent(tick=10, channel=1, data=[7, 81]),
   midi.ControlChangeEvent(tick=10, channel=1, data=[7, 81]),
   midi.ControlChangeEvent(tick=15, channel=1, data=[7, 81]),
   midi.ControlChangeEvent(tick=15, channel=1, data=[7, 80]),
   midi.NoteOnEvent(tick=5, channel=1, data=[64, 0]),
   midi.ControlChangeEvent(tick=5, channel=1, data=[7, 79]),
   midi.ControlChangeEvent(tick=15, channel=1, data=[7, 79]),
   midi.ControlChangeEvent(tick=20, channel=1, data=[7, 78]),
   midi.ControlChangeEvent(tick=30, channel=1, data=[7, 77]),
   midi.ControlChangeEvent(tick=425, channel=1, data=[7, 78]),
   midi.ControlChangeEvent(tick=35, channel=1, data=[7, 79]),
   midi.NoteOnEvent(tick=5, channel=1, data=[66, 89]),
   midi.NoteOnEvent(tick=60, channel=1, data=[66, 0]),
   midi.NoteOnEvent(tick=0, channel=1, data=[65, 89]),
   midi.ControlChangeEvent(tick=5, channel=1, data=[7, 79]),
   midi.ControlChangeEvent(tick=35, channel=1, data=[7, 80]),
   midi.ControlChangeEvent(tick=30, channel=1, data=[7, 81]),
   midi.ControlChangeEvent(tick=10, channel=1, data=[7, 81]),
   midi.ControlChangeEvent(tick=15, channel=1, data=[7, 81]),
   midi.ControlChangeEvent(tick=10, channel=1, data=[7, 83]),
   midi.ControlChangeEvent(tick=10, channel=1, data=[7, 83]),
   midi.ControlChangeEvent(tick=10, channel=1, data=[7, 83]),
   midi.ControlChangeEvent(tick=15, channel=1, data=[7, 83]),
   midi.ControlChangeEvent(tick=25, channel=1, data=[7, 83]),
   midi.ControlChangeEvent(tick=70, channel=1, data=[7, 83]),
   midi.NoteOnEvent(tick=10, channel=1, data=[65, 0]),
   midi.ControlChangeEvent(tick=0, channel=1, data=[7, 83]),
   midi.ControlChangeEvent(tick=15, channel=1, data=[7, 83]),
   midi.ControlChangeEvent(tick=15, channel=1, data=[7, 81]),
   midi.ControlChangeEvent(tick=15, channel=1, data=[7, 81]),
   midi.ControlChangeEvent(tick=40, channel=1, data=[7, 81]),
   midi.ControlChangeEvent(tick=65, channel=1, data=[7, 81]),
   midi.ControlChangeEvent(tick=375, channel=1, data=[7, 81]),
   midi.ControlChangeEvent(tick=30, channel=1, data=[7, 81]),
   midi.ControlChangeEvent(tick=25, channel=1, data=[7, 81]),
   midi.ControlChangeEvent(tick=25, channel=1, data=[7, 83]),
   midi.ControlChangeEvent(tick=15, channel=1, data=[7, 83]),
   midi.ControlChangeEvent(tick=10, channel=1, data=[7, 83]),
   midi.ControlChangeEvent(tick=15, channel=1, data=[7, 83]),
   midi.NoteOnEvent(tick=10, channel=1, data=[66, 89]),
   midi.ControlChangeEvent(tick=0, channel=1, data=[7, 83]),
   midi.ControlChangeEvent(tick=10, channel=1, data=[7, 84]),
   midi.ControlChangeEvent(tick=15, channel=1, data=[7, 85]),
   midi.ControlChangeEvent(tick=25, channel=1, data=[7, 86]),
   midi.NoteOnEvent(tick=10, channel=1, data=[66, 0]),
   midi.NoteOnEvent(tick=0, channel=1, data=[62, 89]),
   midi.ControlChangeEvent(tick=5, channel=1, data=[7, 87]),
   midi.ControlChangeEvent(tick=20, channel=1, data=[7, 87]),
   midi.ControlChangeEvent(tick=15, channel=1, data=[7, 88]),
   midi.ControlChangeEvent(tick=10, channel=1, data=[7, 89]),
   midi.ControlChangeEvent(tick=10, channel=1, data=[7, 90]),
   midi.ControlChangeEvent(tick=25, channel=1, data=[7, 90]),
   midi.ControlChangeEvent(tick=25, channel=1, data=[7, 90]),
   midi.NoteOnEvent(tick=10, channel=1, data=[62, 0]),
   midi.NoteOnEvent(tick=0, channel=1, data=[63, 89]),
   midi.ControlChangeEvent(tick=5, channel=1, data=[7, 89]),
   midi.ControlChangeEvent(tick=10, channel=1, data=[7, 89]),
   midi.ControlChangeEvent(tick=10, channel=1, data=[7, 88]),
   midi.ControlChangeEvent(tick=10, channel=1, data=[7, 87]),
   midi.ControlChangeEvent(tick=10, channel=1, data=[7, 86]),
   midi.ControlChangeEvent(tick=10, channel=1, data=[7, 85]),
   midi.ControlChangeEvent(tick=10, channel=1, data=[7, 84]),
   midi.ControlChangeEvent(tick=15, channel=1, data=[7, 83]),
   midi.ControlChangeEvent(tick=15, channel=1, data=[7, 83]),
   midi.NoteOnEvent(tick=25, channel=1, data=[64, 89]),
   midi.NoteOnEvent(tick=5, channel=1, data=[63, 0]),
   midi.ControlChangeEvent(tick=45, channel=1, data=[7, 83]),
   midi.ControlChangeEvent(tick=15, channel=1, data=[7, 84]),
   midi.ControlChangeEvent(tick=15, channel=1, data=[7, 85]),
   midi.ControlChangeEvent(tick=10, channel=1, data=[7, 86]),
   midi.ControlChangeEvent(tick=5, channel=1, data=[7, 87]),
   midi.ControlChangeEvent(tick=10, channel=1, data=[7, 87]),
   midi.ControlChangeEvent(tick=10, channel=1, data=[7, 88]),
   midi.ControlChangeEvent(tick=30, channel=1, data=[7, 87]),
   midi.ControlChangeEvent(tick=70, channel=1, data=[7, 87]),
   midi.NoteOnEvent(tick=25, channel=1, data=[64, 0]),
   midi.NoteOnEvent(tick=0, channel=1, data=[65, 89]),
   midi.ControlChangeEvent(tick=65, channel=1, data=[7, 87]),
   midi.ControlChangeEvent(tick=10, channel=1, data=[7, 88]),
   midi.ControlChangeEvent(tick=10, channel=1, data=[7, 89]),
   midi.ControlChangeEvent(tick=10, channel=1, data=[7, 89]),
   midi.ControlChangeEvent(tick=15, channel=1, data=[7, 90]),
   midi.ControlChangeEvent(tick=15, channel=1, data=[7, 90]),
   midi.ControlChangeEvent(tick=20, channel=1, data=[7, 90]),
   midi.ControlChangeEvent(tick=25, channel=1, data=[7, 92]),
   midi.ControlChangeEvent(tick=55, channel=1, data=[7, 90]),
   midi.NoteOnEvent(tick=15, channel=1, data=[65, 0]),
   midi.NoteOnEvent(tick=0, channel=1, data=[64, 89]),
   midi.ControlChangeEvent(tick=55, channel=1, data=[7, 92]),
   midi.ControlChangeEvent(tick=20, channel=1, data=[7, 92]),
   midi.ControlChangeEvent(tick=20, channel=1, data=[7, 93]),
   midi.ControlChangeEvent(tick=20, channel=1, data=[7, 94]),
   midi.ControlChangeEvent(tick=10, channel=1, data=[7, 94]),
   midi.ControlChangeEvent(tick=10, channel=1, data=[7, 94]),
   midi.ControlChangeEvent(tick=10, channel=1, data=[7, 96]),
   midi.ControlChangeEvent(tick=10, channel=1, data=[7, 96]),
   midi.ControlChangeEvent(tick=15, channel=1, data=[7, 96]),
   midi.NoteOnEvent(tick=10, channel=1, data=[64, 0]),
   midi.NoteOnEvent(tick=0, channel=1, data=[66, 89]),
   midi.ControlChangeEvent(tick=5, channel=1, data=[7, 96]),
   midi.ControlChangeEvent(tick=5, channel=1, data=[7, 96]),
   midi.ControlChangeEvent(tick=30, channel=1, data=[7, 98]),
   midi.NoteOnEvent(tick=20, channel=1, data=[66, 0]),
   midi.NoteOnEvent(tick=0, channel=1, data=[62, 89]),
   midi.ControlChangeEvent(tick=0, channel=1, data=[7, 98]),
   midi.ControlChangeEvent(tick=5, channel=1, data=[7, 99]),
   midi.ControlChangeEvent(tick=15, channel=1, data=[7, 99]),
   midi.ControlChangeEvent(tick=130, channel=1, data=[7, 99]),
   midi.ControlChangeEvent(tick=5, channel=1, data=[7, 98]),
   midi.ControlChangeEvent(tick=5, channel=1, data=[7, 96]),
   midi.ControlChangeEvent(tick=5, channel=1, data=[7, 96]),
   midi.ControlChangeEvent(tick=10, channel=1, data=[7, 96]),
   midi.NoteOnEvent(tick=5, channel=1, data=[62, 0]),
   midi.ControlChangeEvent(tick=0, channel=1, data=[7, 94]),
   midi.ControlChangeEvent(tick=5, channel=1, data=[7, 94]),
   midi.ControlChangeEvent(tick=5, channel=1, data=[7, 93]),
   midi.ControlChangeEvent(tick=5, channel=1, data=[7, 92]),
   midi.ControlChangeEvent(tick=5, channel=1, data=[7, 92]),
   midi.ControlChangeEvent(tick=5, channel=1, data=[7, 90]),
   midi.ControlChangeEvent(tick=5, channel=1, data=[7, 90]),
   midi.ControlChangeEvent(tick=5, channel=1, data=[7, 90]),
   midi.NoteOnEvent(tick=25, channel=1, data=[63, 89]),
   midi.ControlChangeEvent(tick=50, channel=1, data=[7, 90]),
   midi.ControlChangeEvent(tick=5, channel=1, data=[7, 90]),
   midi.ControlChangeEvent(tick=5, channel=1, data=[7, 92]),
   midi.ControlChangeEvent(tick=10, channel=1, data=[7, 92]),
   midi.ControlChangeEvent(tick=5, channel=1, data=[7, 93]),
   midi.ControlChangeEvent(tick=10, channel=1, data=[7, 94]),
   midi.ControlChangeEvent(tick=5, channel=1, data=[7, 94]),
   midi.ControlChangeEvent(tick=5, channel=1, data=[7, 94]),
   midi.ControlChangeEvent(tick=10, channel=1, data=[7, 96]),
   midi.ControlChangeEvent(tick=5, channel=1, data=[7, 96]),
   midi.NoteOnEvent(tick=10, channel=1, data=[63, 0]),
   midi.ControlChangeEvent(tick=0, channel=1, data=[7, 96]),
   midi.NoteOnEvent(tick=0, channel=1, data=[67, 89]),
   midi.ControlChangeEvent(tick=5, channel=1, data=[7, 96]),
   midi.ControlChangeEvent(tick=5, channel=1, data=[7, 98]),
   midi.ControlChangeEvent(tick=10, channel=1, data=[7, 98]),
   midi.ControlChangeEvent(tick=5, channel=1, data=[7, 99]),
   midi.ControlChangeEvent(tick=15, channel=1, data=[7, 99]),
   midi.ControlChangeEvent(tick=10, channel=1, data=[7, 100]),
   midi.ControlChangeEvent(tick=10, channel=1, data=[7, 101]),
   midi.ControlChangeEvent(tick=5, channel=1, data=[7, 101]),
   midi.ControlChangeEvent(tick=10, channel=1, data=[7, 101]),
   midi.ControlChangeEvent(tick=5, channel=1, data=[7, 101]),
   midi.ControlChangeEvent(tick=10, channel=1, data=[7, 102]),
   midi.ControlChangeEvent(tick=5, channel=1, data=[7, 102]),
   midi.ControlChangeEvent(tick=10, channel=1, data=[7, 103]),
   midi.ControlChangeEvent(tick=5, channel=1, data=[7, 104]),
   midi.ControlChangeEvent(tick=5, channel=1, data=[7, 106]),
   midi.NoteOnEvent(tick=5, channel=1, data=[67, 0]),
   midi.NoteOnEvent(tick=0, channel=1, data=[70, 89]),
   midi.ControlChangeEvent(tick=5, channel=1, data=[7, 107]),
   midi.ControlChangeEvent(tick=10, channel=1, data=[7, 108]),
   midi.ControlChangeEvent(tick=10, channel=1, data=[7, 109]),
   midi.ControlChangeEvent(tick=5, channel=1, data=[7, 109]),
   midi.ControlChangeEvent(tick=10, channel=1, data=[7, 109]),
   midi.ControlChangeEvent(tick=10, channel=1, data=[7, 110]),
   midi.ControlChangeEvent(tick=5, channel=1, data=[7, 111]),
   midi.ControlChangeEvent(tick=10, channel=1, data=[7, 112]),
   midi.ControlChangeEvent(tick=10, channel=1, data=[7, 112]),
   midi.ControlChangeEvent(tick=5, channel=1, data=[7, 112]),
   midi.ControlChangeEvent(tick=10, channel=1, data=[7, 114]),
   midi.NoteOnEvent(tick=30, channel=1, data=[70, 0]),
   midi.NoteOnEvent(tick=0, channel=1, data=[75, 89]),
   midi.NoteOnEvent(tick=120, channel=1, data=[75, 0]),
   midi.NoteOnEvent(tick=0, channel=1, data=[75, 89]),
   midi.ControlChangeEvent(tick=5, channel=1, data=[7, 112]),
   midi.ControlChangeEvent(tick=10, channel=1, data=[7, 112]),
   midi.ControlChangeEvent(tick=10, channel=1, data=[7, 111]),
   midi.ControlChangeEvent(tick=5, channel=1, data=[7, 109]),
   midi.ControlChangeEvent(tick=10, channel=1, data=[7, 108]),
   midi.ControlChangeEvent(tick=10, channel=1, data=[7, 107]),
   midi.ControlChangeEvent(tick=5, channel=1, data=[7, 106]),
   midi.ControlChangeEvent(tick=10, channel=1, data=[7, 103]),
   midi.ControlChangeEvent(tick=5, channel=1, data=[7, 102]),
   midi.ControlChangeEvent(tick=10, channel=1, data=[7, 101]),
   midi.ControlChangeEvent(tick=10, channel=1, data=[7, 101]),
   midi.ControlChangeEvent(tick=5, channel=1, data=[7, 100]),
   midi.ControlChangeEvent(tick=10, channel=1, data=[7, 99]),
   midi.ControlChangeEvent(tick=10, channel=1, data=[7, 98]),
   midi.ControlChangeEvent(tick=5, channel=1, data=[7, 98]),
   midi.ControlChangeEvent(tick=5, channel=1, data=[7, 96]),
   midi.ControlChangeEvent(tick=5, channel=1, data=[7, 96]),
   midi.ControlChangeEvent(tick=5, channel=1, data=[7, 94]),
   midi.ControlChangeEvent(tick=5, channel=1, data=[7, 94]),
   midi.ControlChangeEvent(tick=10, channel=1, data=[7, 94]),
   midi.ControlChangeEvent(tick=5, channel=1, data=[7, 92]),
   midi.ControlChangeEvent(tick=5, channel=1, data=[7, 92]),
   midi.ControlChangeEvent(tick=5, channel=1, data=[7, 90]),
   midi.ControlChangeEvent(tick=5, channel=1, data=[7, 90]),
   midi.ControlChangeEvent(tick=5, channel=1, data=[7, 89]),
   midi.NoteOnEvent(tick=5, channel=1, data=[75, 0]),
   midi.NoteOnEvent(tick=0, channel=1, data=[74, 89]),
   midi.ControlChangeEvent(tick=0, channel=1, data=[7, 89]),
   midi.ControlChangeEvent(tick=5, channel=1, data=[7, 88]),
   midi.ControlChangeEvent(tick=5, channel=1, data=[7, 87]),
   midi.ControlChangeEvent(tick=10, channel=1, data=[7, 87]),
   midi.ControlChangeEvent(tick=25, channel=1, data=[7, 86]),
   midi.ControlChangeEvent(tick=10, channel=1, data=[7, 85]),
   midi.NoteOnEvent(tick=5, channel=1, data=[74, 0]),
   midi.NoteOnEvent(tick=0, channel=1, data=[74, 89]),
   midi.ControlChangeEvent(tick=10, channel=1, data=[7, 84]),
   midi.ControlChangeEvent(tick=15, channel=1, data=[7, 83]),
   midi.NoteOnEvent(tick=185, channel=1, data=[74, 0]),
   midi.ControlChangeEvent(tick=90, channel=1, data=[7, 83]),
   midi.NoteOnEvent(tick=180, channel=1, data=[68, 89]),
   midi.NoteOnEvent(tick=120, channel=1, data=[68, 0]),
   midi.NoteOnEvent(tick=0, channel=1, data=[69, 89]),
   midi.ControlChangeEvent(tick=80, channel=1, data=[7, 83]),
   midi.ControlChangeEvent(tick=15, channel=1, data=[7, 84]),
   midi.ControlChangeEvent(tick=10, channel=1, data=[7, 85]),
   midi.NoteOnEvent(tick=15, channel=1, data=[69, 0]),
   midi.ControlChangeEvent(tick=10, channel=1, data=[7, 86]),
   midi.ControlChangeEvent(tick=15, channel=1, data=[7, 87]),
   midi.ControlChangeEvent(tick=15, channel=1, data=[7, 87]),
   midi.ControlChangeEvent(tick=10, channel=1, data=[7, 88]),
   midi.ControlChangeEvent(tick=10, channel=1, data=[7, 89]),
   midi.ControlChangeEvent(tick=10, channel=1, data=[7, 89]),
   midi.ControlChangeEvent(tick=15, channel=1, data=[7, 90]),
   midi.ControlChangeEvent(tick=10, channel=1, data=[7, 90]),
   midi.ControlChangeEvent(tick=10, channel=1, data=[7, 92]),
   midi.ControlChangeEvent(tick=10, channel=1, data=[7, 94]),
   midi.ControlChangeEvent(tick=15, channel=1, data=[7, 94]),
   midi.NoteOnEvent(tick=110, channel=1, data=[70, 89]),
   midi.NoteOnEvent(tick=120, channel=1, data=[70, 0]),
   midi.NoteOnEvent(tick=0, channel=1, data=[71, 89]),
   midi.ControlChangeEvent(tick=55, channel=1, data=[7, 94]),
   midi.NoteOnEvent(tick=65, channel=1, data=[71, 0]),
   midi.ControlChangeEvent(tick=40, channel=1, data=[7, 96]),
   midi.ControlChangeEvent(tick=50, channel=1, data=[7, 96]),
   midi.ControlChangeEvent(tick=35, channel=1, data=[7, 96]),
   midi.ControlChangeEvent(tick=25, channel=1, data=[7, 96]),
   midi.ControlChangeEvent(tick=25, channel=1, data=[7, 96]),
   midi.ControlChangeEvent(tick=55, channel=1, data=[7, 98]),
   midi.NoteOnEvent(tick=10, channel=1, data=[75, 89]),
   midi.ControlChangeEvent(tick=5, channel=1, data=[7, 98]),
   midi.ControlChangeEvent(tick=10, channel=1, data=[7, 99]),
   midi.ControlChangeEvent(tick=10, channel=1, data=[7, 99]),
   midi.ControlChangeEvent(tick=10, channel=1, data=[7, 100]),
   midi.ControlChangeEvent(tick=10, channel=1, data=[7, 101]),
   midi.ControlChangeEvent(tick=15, channel=1, data=[7, 101]),
   midi.ControlChangeEvent(tick=10, channel=1, data=[7, 101]),
   midi.ControlChangeEvent(tick=25, channel=1, data=[7, 101]),
   midi.ControlChangeEvent(tick=20, channel=1, data=[7, 102]),
   midi.NoteOnEvent(tick=5, channel=1, data=[75, 0]),
   midi.NoteOnEvent(tick=0, channel=1, data=[76, 89]),
   midi.ControlChangeEvent(tick=5, channel=1, data=[7, 102]),
   midi.ControlChangeEvent(tick=10, channel=1, data=[7, 103]),
   midi.ControlChangeEvent(tick=5, channel=1, data=[7, 104]),
   midi.ControlChangeEvent(tick=10, channel=1, data=[7, 105]),
   midi.ControlChangeEvent(tick=5, channel=1, data=[7, 106]),
   midi.ControlChangeEvent(tick=15, channel=1, data=[7, 107]),
   midi.ControlChangeEvent(tick=10, channel=1, data=[7, 108]),
   midi.ControlChangeEvent(tick=10, channel=1, data=[7, 108]),
   midi.ControlChangeEvent(tick=10, channel=1, data=[7, 109]),
   midi.ControlChangeEvent(tick=15, channel=1, data=[7, 109]),
   midi.ControlChangeEvent(tick=10, channel=1, data=[7, 109]),
   midi.ControlChangeEvent(tick=30, channel=1, data=[7, 110]),
   midi.NoteOnEvent(tick=105, channel=1, data=[76, 0]),
   midi.NoteOnEvent(tick=0, channel=1, data=[66, 89]),
   midi.ControlChangeEvent(tick=30, channel=1, data=[7, 109]),
   midi.ControlChangeEvent(tick=20, channel=1, data=[7, 109]),
   midi.ControlChangeEvent(tick=35, channel=1, data=[7, 109]),
   midi.NoteOnEvent(tick=35, channel=1, data=[66, 0]),
   midi.NoteOnEvent(tick=0, channel=1, data=[69, 89]),
   midi.ControlChangeEvent(tick=35, channel=1, data=[7, 108]),
   midi.ControlChangeEvent(tick=10, channel=1, data=[7, 108]),
   midi.ControlChangeEvent(tick=10, channel=1, data=[7, 107]),
   midi.ControlChangeEvent(tick=5, channel=1, data=[7, 106]),
   midi.ControlChangeEvent(tick=5, channel=1, data=[7, 104]),
   midi.ControlChangeEvent(tick=5, channel=1, data=[7, 102]),
   midi.ControlChangeEvent(tick=10, channel=1, data=[7, 102]),
   midi.ControlChangeEvent(tick=5, channel=1, data=[7, 101]),
   midi.ControlChangeEvent(tick=5, channel=1, data=[7, 101]),
   midi.ControlChangeEvent(tick=5, channel=1, data=[7, 101]),
   midi.ControlChangeEvent(tick=10, channel=1, data=[7, 99]),
   midi.ControlChangeEvent(tick=5, channel=1, data=[7, 98]),
   midi.ControlChangeEvent(tick=5, channel=1, data=[7, 96]),
   midi.NoteOnEvent(tick=5, channel=1, data=[69, 0]),
   midi.NoteOnEvent(tick=0, channel=1, data=[67, 89]),
   midi.ControlChangeEvent(tick=0, channel=1, data=[7, 96]),
   midi.ControlChangeEvent(tick=5, channel=1, data=[7, 96]),
   midi.ControlChangeEvent(tick=5, channel=1, data=[7, 94]),
   midi.ControlChangeEvent(tick=10, channel=1, data=[7, 94]),
   midi.ControlChangeEvent(tick=5, channel=1, data=[7, 93]),
   midi.ControlChangeEvent(tick=5, channel=1, data=[7, 92]),
   midi.ControlChangeEvent(tick=5, channel=1, data=[7, 90]),
   midi.ControlChangeEvent(tick=5, channel=1, data=[7, 90]),
   midi.ControlChangeEvent(tick=10, channel=1, data=[7, 89]),
   midi.ControlChangeEvent(tick=5, channel=1, data=[7, 87]),
   midi.ControlChangeEvent(tick=5, channel=1, data=[7, 87]),
   midi.ControlChangeEvent(tick=5, channel=1, data=[7, 85]),
   midi.ControlChangeEvent(tick=5, channel=1, data=[7, 84]),
   midi.ControlChangeEvent(tick=10, channel=1, data=[7, 83]),
   midi.ControlChangeEvent(tick=10, channel=1, data=[7, 83]),
   midi.ControlChangeEvent(tick=5, channel=1, data=[7, 83]),
   midi.ControlChangeEvent(tick=5, channel=1, data=[7, 83]),
   midi.ControlChangeEvent(tick=5, channel=1, data=[7, 83]),
   midi.ControlChangeEvent(tick=5, channel=1, data=[7, 81]),
   midi.NoteOnEvent(tick=10, channel=1, data=[67, 0]),
   midi.NoteOnEvent(tick=0, channel=1, data=[58, 102]),
   midi.ControlChangeEvent(tick=0, channel=1, data=[7, 81]),
   midi.ControlChangeEvent(tick=10, channel=1, data=[7, 81]),
   midi.ControlChangeEvent(tick=10, channel=1, data=[7, 81]),
   midi.ControlChangeEvent(tick=10, channel=1, data=[7, 80]),
   midi.NoteOnEvent(tick=10, channel=1, data=[58, 0]),
   midi.ControlChangeEvent(tick=5, channel=1, data=[7, 79]),
   midi.ControlChangeEvent(tick=25, channel=1, data=[7, 79]),
   midi.NoteOnEvent(tick=50, channel=1, data=[57, 102]),
   midi.NoteOnEvent(tick=40, channel=1, data=[57, 0]),
   midi.NoteOnEvent(tick=320, channel=1, data=[60, 102]),
   midi.NoteOnEvent(tick=40, channel=1, data=[60, 0]),
   midi.ControlChangeEvent(tick=35, channel=1, data=[7, 79]),
   midi.ControlChangeEvent(tick=15, channel=1, data=[7, 80]),
   midi.ControlChangeEvent(tick=10, channel=1, data=[7, 81]),
   midi.ControlChangeEvent(tick=15, channel=1, data=[7, 81]),
   midi.NoteOnEvent(tick=5, channel=1, data=[59, 102]),
   midi.ControlChangeEvent(tick=10, channel=1, data=[7, 81]),
   midi.ControlChangeEvent(tick=20, channel=1, data=[7, 81]),
   midi.NoteOnEvent(tick=10, channel=1, data=[59, 0]),
   midi.ControlChangeEvent(tick=10, channel=1, data=[7, 83]),
   midi.ControlChangeEvent(tick=15, channel=1, data=[7, 83]),
   midi.ControlChangeEvent(tick=20, channel=1, data=[7, 83]),
   midi.ControlChangeEvent(tick=25, channel=1, data=[7, 83]),
   midi.ControlChangeEvent(tick=25, channel=1, data=[7, 83]),
   midi.ControlChangeEvent(tick=20, channel=1, data=[7, 84]),
   midi.ControlChangeEvent(tick=15, channel=1, data=[7, 85]),
   midi.ControlChangeEvent(tick=10, channel=1, data=[7, 86]),
   midi.ControlChangeEvent(tick=15, channel=1, data=[7, 87]),
   midi.ControlChangeEvent(tick=15, channel=1, data=[7, 87]),
   midi.ControlChangeEvent(tick=15, channel=1, data=[7, 88]),
   midi.ControlChangeEvent(tick=25, channel=1, data=[7, 89]),
   midi.ControlChangeEvent(tick=20, channel=1, data=[7, 89]),
   midi.ControlChangeEvent(tick=25, channel=1, data=[7, 90]),
   midi.ControlChangeEvent(tick=20, channel=1, data=[7, 90]),
   midi.ControlChangeEvent(tick=15, channel=1, data=[7, 90]),
   midi.ControlChangeEvent(tick=20, channel=1, data=[7, 92]),
   midi.NoteOnEvent(tick=10, channel=1, data=[62, 102]),
   midi.ControlChangeEvent(tick=10, channel=1, data=[7, 92]),
   midi.ControlChangeEvent(tick=10, channel=1, data=[7, 93]),
   midi.NoteOnEvent(tick=20, channel=1, data=[62, 0]),
   midi.ControlChangeEvent(tick=0, channel=1, data=[7, 94]),
   midi.ControlChangeEvent(tick=15, channel=1, data=[7, 94]),
   midi.ControlChangeEvent(tick=15, channel=1, data=[7, 94]),
   midi.ControlChangeEvent(tick=25, channel=1, data=[7, 96]),
   midi.NoteOnEvent(tick=25, channel=1, data=[60, 102]),
   midi.ControlChangeEvent(tick=5, channel=1, data=[7, 96]),
   midi.ControlChangeEvent(tick=10, channel=1, data=[7, 96]),
   midi.ControlChangeEvent(tick=15, channel=1, data=[7, 96]),
   midi.NoteOnEvent(tick=10, channel=1, data=[60, 0]),
   midi.ControlChangeEvent(tick=5, channel=1, data=[7, 96]),
   midi.ControlChangeEvent(tick=10, channel=1, data=[7, 98]),
   midi.ControlChangeEvent(tick=20, channel=1, data=[7, 98]),
   midi.ControlChangeEvent(tick=20, channel=1, data=[7, 99]),
   midi.NoteOnEvent(tick=25, channel=1, data=[67, 102]),
   midi.ControlChangeEvent(tick=10, channel=1, data=[7, 99]),
   midi.ControlChangeEvent(tick=20, channel=1, data=[7, 100]),
   midi.NoteOnEvent(tick=10, channel=1, data=[67, 0]),
   midi.ControlChangeEvent(tick=20, channel=1, data=[7, 101]),
   midi.ControlChangeEvent(tick=55, channel=1, data=[7, 101]),
   midi.NoteOnEvent(tick=5, channel=1, data=[64, 102]),
   midi.ControlChangeEvent(tick=30, channel=1, data=[7, 101]),
   midi.NoteOnEvent(tick=10, channel=1, data=[64, 0]),
   midi.ControlChangeEvent(tick=20, channel=1, data=[7, 101]),
   midi.ControlChangeEvent(tick=30, channel=1, data=[7, 102]),
   midi.NoteOnEvent(tick=30, channel=1, data=[69, 99]),
   midi.ControlChangeEvent(tick=0, channel=1, data=[7, 102]),
   midi.ControlChangeEvent(tick=30, channel=1, data=[7, 103]),
   midi.NoteOnEvent(tick=10, channel=1, data=[69, 0]),
   midi.ControlChangeEvent(tick=95, channel=1, data=[7, 102]),
   midi.ControlChangeEvent(tick=20, channel=1, data=[7, 102]),
   midi.ControlChangeEvent(tick=35, channel=1, data=[7, 101]),
   midi.ControlChangeEvent(tick=5, channel=1, data=[7, 101]),
   midi.ControlChangeEvent(tick=10, channel=1, data=[7, 101]),
   midi.ControlChangeEvent(tick=15, channel=1, data=[7, 101]),
   midi.NoteOnEvent(tick=20, channel=1, data=[74, 84]),
   midi.ControlChangeEvent(tick=0, channel=1, data=[7, 100]),
   midi.ControlChangeEvent(tick=10, channel=1, data=[7, 99]),
   midi.ControlChangeEvent(tick=15, channel=1, data=[7, 99]),
   midi.ControlChangeEvent(tick=65, channel=1, data=[7, 99]),
   midi.ControlChangeEvent(tick=10, channel=1, data=[7, 100]),
   midi.ControlChangeEvent(tick=15, channel=1, data=[7, 101]),
   midi.ControlChangeEvent(tick=15, channel=1, data=[7, 101]),
   midi.ControlChangeEvent(tick=15, channel=1, data=[7, 101]),
   midi.ControlChangeEvent(tick=15, channel=1, data=[7, 101]),
   midi.ControlChangeEvent(tick=25, channel=1, data=[7, 102]),
   midi.ControlChangeEvent(tick=15, channel=1, data=[7, 102]),
   midi.ControlChangeEvent(tick=15, channel=1, data=[7, 103]),
   midi.ControlChangeEvent(tick=95, channel=1, data=[7, 104]),
   midi.NoteOnEvent(tick=50, channel=1, data=[74, 0]),
   midi.NoteOnEvent(tick=0, channel=1, data=[72, 91]),
   midi.ControlChangeEvent(tick=5, channel=1, data=[7, 103]),
   midi.ControlChangeEvent(tick=15, channel=1, data=[7, 102]),
   midi.ControlChangeEvent(tick=65, channel=1, data=[7, 103]),
   midi.ControlChangeEvent(tick=15, channel=1, data=[7, 104]),
   midi.NoteOnEvent(tick=10, channel=1, data=[72, 0]),
   midi.ControlChangeEvent(tick=0, channel=1, data=[7, 105]),
   midi.NoteOnEvent(tick=10, channel=1, data=[76, 93]),
   midi.ControlChangeEvent(tick=0, channel=1, data=[7, 106]),
   midi.ControlChangeEvent(tick=15, channel=1, data=[7, 107]),
   midi.ControlChangeEvent(tick=15, channel=1, data=[7, 108]),
   midi.ControlChangeEvent(tick=30, channel=1, data=[7, 108]),
   midi.ControlChangeEvent(tick=40, channel=1, data=[7, 109]),
   midi.ControlChangeEvent(tick=115, channel=1, data=[7, 109]),
   midi.ControlChangeEvent(tick=80, channel=1, data=[7, 109]),
   midi.ControlChangeEvent(tick=30, channel=1, data=[7, 110]),
   midi.ControlChangeEvent(tick=15, channel=1, data=[7, 110]),
   midi.NoteOnEvent(tick=20, channel=1, data=[76, 0]),
   midi.NoteOnEvent(tick=0, channel=1, data=[74, 99]),
   midi.ControlChangeEvent(tick=10, channel=1, data=[7, 111]),
   midi.ControlChangeEvent(tick=80, channel=1, data=[7, 112]),
   midi.NoteOnEvent(tick=20, channel=1, data=[74, 0]),
   midi.ControlChangeEvent(tick=0, channel=1, data=[7, 112]),
   midi.NoteOnEvent(tick=10, channel=1, data=[78, 101]),
   midi.ControlChangeEvent(tick=20, channel=1, data=[7, 112]),
   midi.ControlChangeEvent(tick=15, channel=1, data=[7, 112]),
   midi.ControlChangeEvent(tick=15, channel=1, data=[7, 114]),
   midi.NoteOnEvent(tick=70, channel=1, data=[78, 0]),
   midi.NoteOnEvent(tick=0, channel=1, data=[76, 103]),
   midi.NoteOnEvent(tick=110, channel=1, data=[76, 0]),
   midi.NoteOnEvent(tick=10, channel=1, data=[81, 121]),
   midi.NoteOnEvent(tick=40, channel=1, data=[81, 0]),
   midi.ControlChangeEvent(tick=2840, channel=1, data=[7, 114]),
   midi.NoteOnEvent(tick=0, channel=1, data=[55, 118]),
   midi.NoteOnEvent(tick=0, channel=1, data=[67, 118]),
   midi.NoteOnEvent(tick=0, channel=1, data=[76, 118]),
   midi.NoteOnEvent(tick=0, channel=1, data=[84, 118]),
   midi.NoteOnEvent(tick=30, channel=1, data=[76, 0]),
   midi.NoteOnEvent(tick=0, channel=1, data=[55, 0]),
   midi.NoteOnEvent(tick=0, channel=1, data=[67, 0]),
   midi.NoteOnEvent(tick=90, channel=1, data=[84, 0]),
   midi.NoteOnEvent(tick=0, channel=1, data=[84, 118]),
   midi.NoteOnEvent(tick=40, channel=1, data=[84, 0]),
   midi.NoteOnEvent(tick=0, channel=1, data=[84, 118]),
   midi.NoteOnEvent(tick=40, channel=1, data=[84, 0]),
   midi.NoteOnEvent(tick=0, channel=1, data=[83, 118]),
   midi.NoteOnEvent(tick=40, channel=1, data=[83, 0]),
   midi.NoteOnEvent(tick=0, channel=1, data=[79, 118]),
   midi.NoteOnEvent(tick=40, channel=1, data=[79, 0]),
   midi.NoteOnEvent(tick=0, channel=1, data=[79, 118]),
   midi.ControlChangeEvent(tick=0, channel=1, data=[7, 112]),
   midi.ControlChangeEvent(tick=20, channel=1, data=[7, 112]),
   midi.NoteOnEvent(tick=20, channel=1, data=[79, 0]),
   midi.NoteOnEvent(tick=0, channel=1, data=[79, 118]),
   midi.ControlChangeEvent(tick=0, channel=1, data=[7, 111]),
   midi.NoteOnEvent(tick=40, channel=1, data=[79, 0]),
   midi.NoteOnEvent(tick=0, channel=1, data=[79, 118]),
   midi.NoteOnEvent(tick=40, channel=1, data=[79, 0]),
   midi.NoteOnEvent(tick=0, channel=1, data=[79, 118]),
   midi.NoteOnEvent(tick=40, channel=1, data=[79, 0]),
   midi.NoteOnEvent(tick=0, channel=1, data=[83, 118]),
   midi.NoteOnEvent(tick=40, channel=1, data=[83, 0]),
   midi.NoteOnEvent(tick=0, channel=1, data=[84, 118]),
   midi.NoteOnEvent(tick=40, channel=1, data=[84, 0]),
   midi.NoteOnEvent(tick=0, channel=1, data=[84, 118]),
   midi.ControlChangeEvent(tick=25, channel=1, data=[7, 110]),
   midi.NoteOnEvent(tick=15, channel=1, data=[84, 0]),
   midi.NoteOnEvent(tick=0, channel=1, data=[83, 118]),
   midi.NoteOnEvent(tick=40, channel=1, data=[83, 0]),
   midi.NoteOnEvent(tick=0, channel=1, data=[79, 118]),
   midi.NoteOnEvent(tick=40, channel=1, data=[79, 0]),
   midi.NoteOnEvent(tick=0, channel=1, data=[79, 118]),
   midi.NoteOnEvent(tick=40, channel=1, data=[79, 0]),
   midi.NoteOnEvent(tick=0, channel=1, data=[83, 118]),
   midi.NoteOnEvent(tick=40, channel=1, data=[83, 0]),
   midi.NoteOnEvent(tick=0, channel=1, data=[84, 118]),
   midi.NoteOnEvent(tick=40, channel=1, data=[84, 0]),
   midi.NoteOnEvent(tick=0, channel=1, data=[84, 118]),
   midi.NoteOnEvent(tick=40, channel=1, data=[84, 0]),
   midi.NoteOnEvent(tick=0, channel=1, data=[83, 118]),
   midi.NoteOnEvent(tick=40, channel=1, data=[83, 0]),
   midi.NoteOnEvent(tick=0, channel=1, data=[79, 118]),
   midi.NoteOnEvent(tick=40, channel=1, data=[79, 0]),
   midi.NoteOnEvent(tick=0, channel=1, data=[79, 118]),
   midi.NoteOnEvent(tick=40, channel=1, data=[79, 0]),
   midi.NoteOnEvent(tick=0, channel=1, data=[83, 118]),
   midi.NoteOnEvent(tick=40, channel=1, data=[83, 0]),
   midi.NoteOnEvent(tick=0, channel=1, data=[84, 118]),
   midi.ControlChangeEvent(tick=5, channel=1, data=[7, 111]),
   midi.ControlChangeEvent(tick=15, channel=1, data=[7, 114]),
   midi.NoteOnEvent(tick=20, channel=1, data=[84, 0]),
   midi.ControlChangeEvent(tick=75, channel=1, data=[7, 112]),
   midi.ControlChangeEvent(tick=20, channel=1, data=[7, 108]),
   midi.ControlChangeEvent(tick=20, channel=1, data=[7, 101]),
   midi.ControlChangeEvent(tick=20, channel=1, data=[7, 98]),
   midi.ControlChangeEvent(tick=20, channel=1, data=[7, 96]),
   midi.ControlChangeEvent(tick=30, channel=1, data=[7, 96]),
   midi.NoteOnEvent(tick=15, channel=1, data=[72, 118]),
   midi.ControlChangeEvent(tick=20, channel=1, data=[7, 96]),
   midi.ControlChangeEvent(tick=20, channel=1, data=[7, 96]),
   midi.ControlChangeEvent(tick=160, channel=1, data=[7, 94]),
   midi.ControlChangeEvent(tick=20, channel=1, data=[7, 94]),
   midi.ControlChangeEvent(tick=20, channel=1, data=[7, 94]),
   midi.ControlChangeEvent(tick=80, channel=1, data=[7, 94]),
   midi.ControlChangeEvent(tick=30, channel=1, data=[7, 96]),
   midi.ControlChangeEvent(tick=15, channel=1, data=[7, 96]),
   midi.ControlChangeEvent(tick=20, channel=1, data=[7, 96]),
   midi.ControlChangeEvent(tick=20, channel=1, data=[7, 98]),
   midi.ControlChangeEvent(tick=20, channel=1, data=[7, 99]),
   midi.ControlChangeEvent(tick=20, channel=1, data=[7, 101]),
   midi.ControlChangeEvent(tick=20, channel=1, data=[7, 102]),
   midi.ControlChangeEvent(tick=20, channel=1, data=[7, 104]),
   midi.ControlChangeEvent(tick=20, channel=1, data=[7, 107]),
   midi.ControlChangeEvent(tick=20, channel=1, data=[7, 109]),
   midi.ControlChangeEvent(tick=20, channel=1, data=[7, 110]),
   midi.ControlChangeEvent(tick=20, channel=1, data=[7, 112]),
   midi.ControlChangeEvent(tick=20, channel=1, data=[7, 114]),
   midi.NoteOnEvent(tick=135, channel=1, data=[72, 0]),
   midi.NoteOnEvent(tick=0, channel=1, data=[69, 118]),
   midi.NoteOnEvent(tick=0, channel=1, data=[77, 118]),
   midi.NoteOnEvent(tick=0, channel=1, data=[86, 118]),
   midi.NoteOnEvent(tick=40, channel=1, data=[77, 0]),
   midi.NoteOnEvent(tick=0, channel=1, data=[69, 0]),
   midi.NoteOnEvent(tick=80, channel=1, data=[86, 0]),
   midi.NoteOnEvent(tick=0, channel=1, data=[86, 118]),
   midi.NoteOnEvent(tick=40, channel=1, data=[86, 0]),
   midi.NoteOnEvent(tick=0, channel=1, data=[86, 118]),
   midi.NoteOnEvent(tick=40, channel=1, data=[86, 0]),
   midi.NoteOnEvent(tick=0, channel=1, data=[85, 118]),
   midi.NoteOnEvent(tick=40, channel=1, data=[85, 0]),
   midi.NoteOnEvent(tick=0, channel=1, data=[81, 118]),
   midi.NoteOnEvent(tick=40, channel=1, data=[81, 0]),
   midi.NoteOnEvent(tick=0, channel=1, data=[81, 118]),
   midi.NoteOnEvent(tick=40, channel=1, data=[81, 0]),
   midi.NoteOnEvent(tick=0, channel=1, data=[81, 118]),
   midi.NoteOnEvent(tick=40, channel=1, data=[81, 0]),
   midi.NoteOnEvent(tick=0, channel=1, data=[81, 118]),
   midi.NoteOnEvent(tick=40, channel=1, data=[81, 0]),
   midi.NoteOnEvent(tick=0, channel=1, data=[81, 118]),
   midi.ControlChangeEvent(tick=15, channel=1, data=[7, 112]),
   midi.ControlChangeEvent(tick=20, channel=1, data=[7, 112]),
   midi.NoteOnEvent(tick=5, channel=1, data=[81, 0]),
   midi.NoteOnEvent(tick=0, channel=1, data=[85, 118]),
   midi.ControlChangeEvent(tick=25, channel=1, data=[7, 112]),
   midi.NoteOnEvent(tick=15, channel=1, data=[85, 0]),
   midi.NoteOnEvent(tick=0, channel=1, data=[86, 118]),
   midi.ControlChangeEvent(tick=5, channel=1, data=[7, 114]),
   midi.NoteOnEvent(tick=35, channel=1, data=[86, 0]),
   midi.NoteOnEvent(tick=0, channel=1, data=[86, 118]),
   midi.NoteOnEvent(tick=40, channel=1, data=[86, 0]),
   midi.NoteOnEvent(tick=0, channel=1, data=[85, 118]),
   midi.NoteOnEvent(tick=40, channel=1, data=[85, 0]),
   midi.NoteOnEvent(tick=0, channel=1, data=[81, 118]),
   midi.NoteOnEvent(tick=40, channel=1, data=[81, 0]),
   midi.NoteOnEvent(tick=0, channel=1, data=[81, 118]),
   midi.NoteOnEvent(tick=40, channel=1, data=[81, 0]),
   midi.NoteOnEvent(tick=0, channel=1, data=[85, 118]),
   midi.NoteOnEvent(tick=40, channel=1, data=[85, 0]),
   midi.NoteOnEvent(tick=0, channel=1, data=[86, 118]),
   midi.NoteOnEvent(tick=40, channel=1, data=[86, 0]),
   midi.NoteOnEvent(tick=0, channel=1, data=[86, 118]),
   midi.NoteOnEvent(tick=40, channel=1, data=[86, 0]),
   midi.NoteOnEvent(tick=0, channel=1, data=[85, 118]),
   midi.NoteOnEvent(tick=40, channel=1, data=[85, 0]),
   midi.NoteOnEvent(tick=0, channel=1, data=[81, 118]),
   midi.NoteOnEvent(tick=40, channel=1, data=[81, 0]),
   midi.NoteOnEvent(tick=0, channel=1, data=[81, 118]),
   midi.NoteOnEvent(tick=40, channel=1, data=[81, 0]),
   midi.NoteOnEvent(tick=0, channel=1, data=[85, 118]),
   midi.NoteOnEvent(tick=40, channel=1, data=[85, 0]),
   midi.NoteOnEvent(tick=0, channel=1, data=[86, 118]),
   midi.NoteOnEvent(tick=40, channel=1, data=[86, 0]),
   midi.ControlChangeEvent(tick=105, channel=1, data=[7, 112]),
   midi.ControlChangeEvent(tick=20, channel=1, data=[7, 101]),
   midi.ControlChangeEvent(tick=20, channel=1, data=[7, 90]),
   midi.ControlChangeEvent(tick=20, channel=1, data=[7, 90]),
   midi.ControlChangeEvent(tick=20, channel=1, data=[7, 88]),
   midi.NoteOnEvent(tick=15, channel=1, data=[74, 118]),
   midi.ControlChangeEvent(tick=5, channel=1, data=[7, 86]),
   midi.ControlChangeEvent(tick=20, channel=1, data=[7, 83]),
   midi.ControlChangeEvent(tick=20, channel=1, data=[7, 83]),
   midi.ControlChangeEvent(tick=90, channel=1, data=[7, 83]),
   midi.ControlChangeEvent(tick=25, channel=1, data=[7, 84]),
   midi.ControlChangeEvent(tick=110, channel=1, data=[7, 85]),
   midi.ControlChangeEvent(tick=20, channel=1, data=[7, 86]),
   midi.ControlChangeEvent(tick=30, channel=1, data=[7, 87]),
   midi.ControlChangeEvent(tick=20, channel=1, data=[7, 87]),
   midi.ControlChangeEvent(tick=30, channel=1, data=[7, 88]),
   midi.ControlChangeEvent(tick=45, channel=1, data=[7, 89]),
   midi.ControlChangeEvent(tick=185, channel=1, data=[7, 89]),
   midi.ControlChangeEvent(tick=35, channel=1, data=[7, 90]),
   midi.ControlChangeEvent(tick=30, channel=1, data=[7, 90]),
   midi.ControlChangeEvent(tick=20, channel=1, data=[7, 90]),
   midi.ControlChangeEvent(tick=20, channel=1, data=[7, 92]),
   midi.NoteOnEvent(tick=15, channel=1, data=[74, 0]),
   midi.NoteOnEvent(tick=0, channel=1, data=[76, 118]),
   midi.ControlChangeEvent(tick=10, channel=1, data=[7, 92]),
   midi.ControlChangeEvent(tick=155, channel=1, data=[7, 93]),
   midi.ControlChangeEvent(tick=20, channel=1, data=[7, 94]),
   midi.ControlChangeEvent(tick=20, channel=1, data=[7, 94]),
   midi.ControlChangeEvent(tick=35, channel=1, data=[7, 94]),
   midi.ControlChangeEvent(tick=20, channel=1, data=[7, 96]),
   midi.ControlChangeEvent(tick=20, channel=1, data=[7, 96]),
   midi.ControlChangeEvent(tick=20, channel=1, data=[7, 96]),
   midi.ControlChangeEvent(tick=20, channel=1, data=[7, 96]),
   midi.ControlChangeEvent(tick=25, channel=1, data=[7, 98]),
   midi.ControlChangeEvent(tick=20, channel=1, data=[7, 99]),
   midi.ControlChangeEvent(tick=20, channel=1, data=[7, 100]),
   midi.ControlChangeEvent(tick=20, channel=1, data=[7, 101]),
   midi.ControlChangeEvent(tick=20, channel=1, data=[7, 101]),
   midi.ControlChangeEvent(tick=20, channel=1, data=[7, 102]),
   midi.ControlChangeEvent(tick=20, channel=1, data=[7, 103]),
   midi.NoteOnEvent(tick=15, channel=1, data=[76, 0]),
   midi.NoteOnEvent(tick=0, channel=1, data=[76, 118]),
   midi.ControlChangeEvent(tick=5, channel=1, data=[7, 105]),
   midi.ControlChangeEvent(tick=15, channel=1, data=[7, 106]),
   midi.ControlChangeEvent(tick=20, channel=1, data=[7, 107]),
   midi.ControlChangeEvent(tick=20, channel=1, data=[7, 108]),
   midi.ControlChangeEvent(tick=20, channel=1, data=[7, 108]),
   midi.ControlChangeEvent(tick=75, channel=1, data=[7, 109]),
   midi.ControlChangeEvent(tick=25, channel=1, data=[7, 109]),
   midi.NoteOnEvent(tick=60, channel=1, data=[76, 0]),
   midi.ControlChangeEvent(tick=0, channel=1, data=[7, 109]),
   midi.NoteOnEvent(tick=0, channel=1, data=[77, 118]),
   midi.ControlChangeEvent(tick=15, channel=1, data=[7, 110]),
   midi.ControlChangeEvent(tick=20, channel=1, data=[7, 110]),
   midi.ControlChangeEvent(tick=20, channel=1, data=[7, 111]),
   midi.ControlChangeEvent(tick=30, channel=1, data=[7, 112]),
   midi.ControlChangeEvent(tick=20, channel=1, data=[7, 112]),
   midi.ControlChangeEvent(tick=15, channel=1, data=[7, 112]),
   midi.ControlChangeEvent(tick=25, channel=1, data=[7, 114]),
   midi.NoteOnEvent(tick=95, channel=1, data=[77, 0]),
   midi.NoteOnEvent(tick=240, channel=1, data=[77, 125]),
   midi.NoteOnEvent(tick=0, channel=1, data=[72, 125]),
   midi.NoteOnEvent(tick=0, channel=1, data=[69, 125]),
   midi.NoteOnEvent(tick=40, channel=1, data=[69, 0]),
   midi.NoteOnEvent(tick=0, channel=1, data=[72, 0]),
   midi.NoteOnEvent(tick=0, channel=1, data=[77, 0]),
   midi.NoteOnEvent(tick=440, channel=1, data=[69, 125]),
   midi.NoteOnEvent(tick=0, channel=1, data=[72, 125]),
   midi.NoteOnEvent(tick=0, channel=1, data=[77, 125]),
   midi.NoteOnEvent(tick=40, channel=1, data=[77, 0]),
   midi.NoteOnEvent(tick=0, channel=1, data=[72, 0]),
   midi.NoteOnEvent(tick=0, channel=1, data=[69, 0]),
   midi.NoteOnEvent(tick=320, channel=1, data=[69, 125]),
   midi.NoteOnEvent(tick=0, channel=1, data=[72, 125]),
   midi.NoteOnEvent(tick=0, channel=1, data=[77, 125]),
   midi.NoteOnEvent(tick=40, channel=1, data=[77, 0]),
   midi.NoteOnEvent(tick=0, channel=1, data=[72, 0]),
   midi.NoteOnEvent(tick=0, channel=1, data=[69, 0]),
   midi.NoteOnEvent(tick=200, channel=1, data=[67, 125]),
   midi.NoteOnEvent(tick=0, channel=1, data=[72, 125]),
   midi.NoteOnEvent(tick=0, channel=1, data=[76, 125]),
   midi.NoteOnEvent(tick=40, channel=1, data=[76, 0]),
   midi.NoteOnEvent(tick=0, channel=1, data=[72, 0]),
   midi.NoteOnEvent(tick=0, channel=1, data=[67, 0]),
   midi.NoteOnEvent(tick=200, channel=1, data=[66, 125]),
   midi.NoteOnEvent(tick=0, channel=1, data=[75, 125]),
   midi.NoteOnEvent(tick=40, channel=1, data=[75, 0]),
   midi.NoteOnEvent(tick=0, channel=1, data=[66, 0]),
   midi.NoteOnEvent(tick=200, channel=1, data=[76, 125]),
   midi.NoteOnEvent(tick=0, channel=1, data=[72, 125]),
   midi.NoteOnEvent(tick=0, channel=1, data=[67, 125]),
   midi.NoteOnEvent(tick=40, channel=1, data=[67, 0]),
   midi.NoteOnEvent(tick=0, channel=1, data=[72, 0]),
   midi.NoteOnEvent(tick=0, channel=1, data=[76, 0]),
   midi.ControlChangeEvent(tick=1425, channel=1, data=[64, 0]),
   midi.ControlChangeEvent(tick=0, channel=1, data=[120, 0]),
   midi.EndOfTrackEvent(tick=0, data=[])]),
 midi.Track(\
  [midi.PortEvent(tick=0, data=[0]),
   midi.ProgramChangeEvent(tick=0, channel=2, data=[73]),
   midi.ControlChangeEvent(tick=0, channel=2, data=[7, 96]),
   midi.ControlChangeEvent(tick=4, channel=2, data=[64, 0]),
   midi.ControlChangeEvent(tick=0, channel=2, data=[91, 122]),
   midi.ControlChangeEvent(tick=600, channel=2, data=[7, 104]),
   midi.NoteOnEvent(tick=0, channel=2, data=[93, 112]),
   midi.NoteOnEvent(tick=0, channel=2, data=[81, 112]),
   midi.NoteOnEvent(tick=40, channel=2, data=[81, 0]),
   midi.NoteOnEvent(tick=0, channel=2, data=[93, 0]),
   midi.ControlChangeEvent(tick=2785, channel=2, data=[7, 77]),
   midi.ControlChangeEvent(tick=10, channel=2, data=[7, 77]),
   midi.ControlChangeEvent(tick=10, channel=2, data=[7, 76]),
   midi.ControlChangeEvent(tick=15, channel=2, data=[7, 76]),
   midi.ControlChangeEvent(tick=10, channel=2, data=[7, 76]),
   midi.ControlChangeEvent(tick=10, channel=2, data=[7, 75]),
   midi.ControlChangeEvent(tick=10, channel=2, data=[7, 75]),
   midi.ControlChangeEvent(tick=70, channel=2, data=[7, 75]),
   midi.ControlChangeEvent(tick=5, channel=2, data=[7, 76]),
   midi.ControlChangeEvent(tick=5, channel=2, data=[7, 76]),
   midi.ControlChangeEvent(tick=5, channel=2, data=[7, 76]),
   midi.ControlChangeEvent(tick=10, channel=2, data=[7, 77]),
   midi.ControlChangeEvent(tick=15, channel=2, data=[7, 77]),
   midi.ControlChangeEvent(tick=20, channel=2, data=[7, 78]),
   midi.ControlChangeEvent(tick=255, channel=2, data=[7, 79]),
   midi.ControlChangeEvent(tick=10, channel=2, data=[7, 79]),
   midi.ControlChangeEvent(tick=5, channel=2, data=[7, 80]),
   midi.ControlChangeEvent(tick=5, channel=2, data=[7, 81]),
   midi.ControlChangeEvent(tick=5, channel=2, data=[7, 81]),
   midi.ControlChangeEvent(tick=5, channel=2, data=[7, 81]),
   midi.ControlChangeEvent(tick=5, channel=2, data=[7, 81]),
   midi.ControlChangeEvent(tick=20, channel=2, data=[7, 81]),
   midi.NoteOnEvent(tick=30, channel=2, data=[72, 81]),
   midi.NoteOnEvent(tick=0, channel=2, data=[76, 81]),
   midi.ControlChangeEvent(tick=5, channel=2, data=[7, 83]),
   midi.ControlChangeEvent(tick=45, channel=2, data=[7, 81]),
   midi.ControlChangeEvent(tick=15, channel=2, data=[7, 81]),
   midi.ControlChangeEvent(tick=10, channel=2, data=[7, 81]),
   midi.NoteOnEvent(tick=10, channel=2, data=[76, 0]),
   midi.NoteOnEvent(tick=0, channel=2, data=[72, 0]),
   midi.ControlChangeEvent(tick=5, channel=2, data=[7, 80]),
   midi.ControlChangeEvent(tick=10, channel=2, data=[7, 79]),
   midi.ControlChangeEvent(tick=15, channel=2, data=[7, 78]),
   midi.NoteOnEvent(tick=5, channel=2, data=[74, 81]),
   midi.NoteOnEvent(tick=0, channel=2, data=[77, 81]),
   midi.ControlChangeEvent(tick=5, channel=2, data=[7, 77]),
   midi.ControlChangeEvent(tick=20, channel=2, data=[7, 77]),
   midi.ControlChangeEvent(tick=40, channel=2, data=[7, 76]),
   midi.NoteOnEvent(tick=10, channel=2, data=[77, 0]),
   midi.NoteOnEvent(tick=0, channel=2, data=[74, 0]),
   midi.NoteOnEvent(tick=20, channel=2, data=[71, 81]),
   midi.NoteOnEvent(tick=0, channel=2, data=[74, 81]),
   midi.NoteOnEvent(tick=25, channel=2, data=[74, 0]),
   midi.NoteOnEvent(tick=0, channel=2, data=[71, 0]),
   midi.NoteOnEvent(tick=0, channel=2, data=[74, 81]),
   midi.NoteOnEvent(tick=0, channel=2, data=[77, 81]),
   midi.ControlChangeEvent(tick=20, channel=2, data=[7, 76]),
   midi.NoteOnEvent(tick=5, channel=2, data=[77, 0]),
   midi.NoteOnEvent(tick=0, channel=2, data=[74, 0]),
   midi.ControlChangeEvent(tick=15, channel=2, data=[7, 76]),
   midi.ControlChangeEvent(tick=20, channel=2, data=[7, 75]),
   midi.NoteOnEvent(tick=0, channel=2, data=[72, 81]),
   midi.NoteOnEvent(tick=0, channel=2, data=[76, 81]),
   midi.ControlChangeEvent(tick=15, channel=2, data=[7, 75]),
   midi.ControlChangeEvent(tick=20, channel=2, data=[7, 75]),
   midi.ControlChangeEvent(tick=20, channel=2, data=[7, 74]),
   midi.NoteOnEvent(tick=20, channel=2, data=[76, 0]),
   midi.NoteOnEvent(tick=0, channel=2, data=[72, 0]),
   midi.ControlChangeEvent(tick=20, channel=2, data=[7, 73]),
   midi.ControlChangeEvent(tick=35, channel=2, data=[7, 74]),
   midi.ControlChangeEvent(tick=15, channel=2, data=[7, 75]),
   midi.ControlChangeEvent(tick=10, channel=2, data=[7, 76]),
   midi.ControlChangeEvent(tick=15, channel=2, data=[7, 77]),
   midi.NoteOnEvent(tick=10, channel=2, data=[76, 81]),
   midi.NoteOnEvent(tick=0, channel=2, data=[72, 81]),
   midi.ControlChangeEvent(tick=0, channel=2, data=[7, 79]),
   midi.ControlChangeEvent(tick=10, channel=2, data=[7, 80]),
   midi.ControlChangeEvent(tick=15, channel=2, data=[7, 81]),
   midi.ControlChangeEvent(tick=10, channel=2, data=[7, 81]),
   midi.ControlChangeEvent(tick=15, channel=2, data=[7, 83]),
   midi.ControlChangeEvent(tick=15, channel=2, data=[7, 83]),
   midi.NoteOnEvent(tick=5, channel=2, data=[72, 0]),
   midi.NoteOnEvent(tick=0, channel=2, data=[76, 0]),
   midi.ControlChangeEvent(tick=10, channel=2, data=[7, 81]),
   midi.ControlChangeEvent(tick=15, channel=2, data=[7, 81]),
   midi.NoteOnEvent(tick=0, channel=2, data=[74, 81]),
   midi.NoteOnEvent(tick=0, channel=2, data=[77, 81]),
   midi.ControlChangeEvent(tick=15, channel=2, data=[7, 80]),
   midi.NoteOnEvent(tick=10, channel=2, data=[77, 0]),
   midi.NoteOnEvent(tick=0, channel=2, data=[74, 0]),
   midi.NoteOnEvent(tick=0, channel=2, data=[74, 81]),
   midi.NoteOnEvent(tick=0, channel=2, data=[77, 81]),
   midi.ControlChangeEvent(tick=5, channel=2, data=[7, 79]),
   midi.ControlChangeEvent(tick=10, channel=2, data=[7, 79]),
   midi.NoteOnEvent(tick=15, channel=2, data=[77, 0]),
   midi.NoteOnEvent(tick=0, channel=2, data=[74, 0]),
   midi.ControlChangeEvent(tick=5, channel=2, data=[7, 78]),
   midi.ControlChangeEvent(tick=20, channel=2, data=[7, 77]),
   midi.NoteOnEvent(tick=5, channel=2, data=[71, 81]),
   midi.NoteOnEvent(tick=0, channel=2, data=[74, 81]),
   midi.ControlChangeEvent(tick=10, channel=2, data=[7, 77]),
   midi.NoteOnEvent(tick=20, channel=2, data=[74, 0]),
   midi.NoteOnEvent(tick=0, channel=2, data=[71, 0]),
   midi.ControlChangeEvent(tick=5, channel=2, data=[7, 76]),
   midi.NoteOnEvent(tick=25, channel=2, data=[72, 81]),
   midi.NoteOnEvent(tick=0, channel=2, data=[76, 81]),
   midi.ControlChangeEvent(tick=25, channel=2, data=[7, 76]),
   midi.NoteOnEvent(tick=90, channel=2, data=[76, 0]),
   midi.NoteOnEvent(tick=0, channel=2, data=[72, 0]),
   midi.ControlChangeEvent(tick=50, channel=2, data=[7, 76]),
   midi.ControlChangeEvent(tick=40, channel=2, data=[7, 76]),
   midi.ControlChangeEvent(tick=15, channel=2, data=[7, 76]),
   midi.ControlChangeEvent(tick=10, channel=2, data=[7, 77]),
   midi.NoteOnEvent(tick=10, channel=2, data=[76, 81]),
   midi.NoteOnEvent(tick=0, channel=2, data=[79, 81]),
   midi.ControlChangeEvent(tick=5, channel=2, data=[7, 79]),
   midi.ControlChangeEvent(tick=10, channel=2, data=[7, 81]),
   midi.ControlChangeEvent(tick=10, channel=2, data=[7, 81]),
   midi.ControlChangeEvent(tick=10, channel=2, data=[7, 81]),
   midi.ControlChangeEvent(tick=10, channel=2, data=[7, 83]),
   midi.ControlChangeEvent(tick=10, channel=2, data=[7, 83]),
   midi.ControlChangeEvent(tick=15, channel=2, data=[7, 83]),
   midi.ControlChangeEvent(tick=15, channel=2, data=[7, 83]),
   midi.NoteOnEvent(tick=5, channel=2, data=[79, 0]),
   midi.NoteOnEvent(tick=0, channel=2, data=[76, 0]),
   midi.ControlChangeEvent(tick=10, channel=2, data=[7, 84]),
   midi.NoteOnEvent(tick=20, channel=2, data=[77, 81]),
   midi.NoteOnEvent(tick=0, channel=2, data=[81, 81]),
   midi.ControlChangeEvent(tick=15, channel=2, data=[7, 83]),
   midi.ControlChangeEvent(tick=15, channel=2, data=[7, 83]),
   midi.ControlChangeEvent(tick=10, channel=2, data=[7, 83]),
   midi.ControlChangeEvent(tick=15, channel=2, data=[7, 83]),
   midi.ControlChangeEvent(tick=15, channel=2, data=[7, 81]),
   midi.ControlChangeEvent(tick=10, channel=2, data=[7, 81]),
   midi.NoteOnEvent(tick=5, channel=2, data=[81, 0]),
   midi.NoteOnEvent(tick=0, channel=2, data=[77, 0]),
   midi.ControlChangeEvent(tick=10, channel=2, data=[7, 81]),
   midi.NoteOnEvent(tick=0, channel=2, data=[74, 81]),
   midi.NoteOnEvent(tick=0, channel=2, data=[77, 81]),
   midi.ControlChangeEvent(tick=15, channel=2, data=[7, 81]),
   midi.NoteOnEvent(tick=10, channel=2, data=[77, 0]),
   midi.NoteOnEvent(tick=0, channel=2, data=[74, 0]),
   midi.NoteOnEvent(tick=0, channel=2, data=[77, 81]),
   midi.NoteOnEvent(tick=0, channel=2, data=[81, 81]),
   midi.ControlChangeEvent(tick=0, channel=2, data=[7, 79]),
   midi.ControlChangeEvent(tick=15, channel=2, data=[7, 79]),
   midi.NoteOnEvent(tick=15, channel=2, data=[81, 0]),
   midi.NoteOnEvent(tick=0, channel=2, data=[77, 0]),
   midi.ControlChangeEvent(tick=0, channel=2, data=[7, 78]),
   midi.ControlChangeEvent(tick=25, channel=2, data=[7, 77]),
   midi.NoteOnEvent(tick=5, channel=2, data=[76, 81]),
   midi.NoteOnEvent(tick=0, channel=2, data=[79, 81]),
   midi.ControlChangeEvent(tick=25, channel=2, data=[7, 77]),
   midi.ControlChangeEvent(tick=20, channel=2, data=[7, 76]),
   midi.NoteOnEvent(tick=30, channel=2, data=[79, 0]),
   midi.NoteOnEvent(tick=0, channel=2, data=[76, 0]),
   midi.ControlChangeEvent(tick=0, channel=2, data=[7, 76]),
   midi.ControlChangeEvent(tick=20, channel=2, data=[7, 76]),
   midi.ControlChangeEvent(tick=60, channel=2, data=[7, 76]),
   midi.ControlChangeEvent(tick=15, channel=2, data=[7, 77]),
   midi.NoteOnEvent(tick=10, channel=2, data=[76, 81]),
   midi.NoteOnEvent(tick=0, channel=2, data=[79, 81]),
   midi.ControlChangeEvent(tick=0, channel=2, data=[7, 78]),
   midi.ControlChangeEvent(tick=15, channel=2, data=[7, 80]),
   midi.ControlChangeEvent(tick=10, channel=2, data=[7, 81]),
   midi.ControlChangeEvent(tick=10, channel=2, data=[7, 81]),
   midi.ControlChangeEvent(tick=15, channel=2, data=[7, 83]),
   midi.ControlChangeEvent(tick=10, channel=2, data=[7, 83]),
   midi.NoteOnEvent(tick=10, channel=2, data=[79, 0]),
   midi.NoteOnEvent(tick=0, channel=2, data=[76, 0]),
   midi.ControlChangeEvent(tick=5, channel=2, data=[7, 84]),
   midi.ControlChangeEvent(tick=15, channel=2, data=[7, 84]),
   midi.NoteOnEvent(tick=5, channel=2, data=[77, 81]),
   midi.NoteOnEvent(tick=0, channel=2, data=[81, 81]),
   midi.NoteOnEvent(tick=25, channel=2, data=[81, 0]),
   midi.NoteOnEvent(tick=0, channel=2, data=[77, 0]),
   midi.NoteOnEvent(tick=0, channel=2, data=[77, 81]),
   midi.NoteOnEvent(tick=0, channel=2, data=[81, 81]),
   midi.ControlChangeEvent(tick=0, channel=2, data=[7, 83]),
   midi.ControlChangeEvent(tick=15, channel=2, data=[7, 83]),
   midi.NoteOnEvent(tick=15, channel=2, data=[81, 0]),
   midi.NoteOnEvent(tick=0, channel=2, data=[77, 0]),
   midi.ControlChangeEvent(tick=0, channel=2, data=[7, 81]),
   midi.ControlChangeEvent(tick=10, channel=2, data=[7, 81]),
   midi.ControlChangeEvent(tick=15, channel=2, data=[7, 79]),
   midi.NoteOnEvent(tick=5, channel=2, data=[74, 81]),
   midi.NoteOnEvent(tick=0, channel=2, data=[77, 81]),
   midi.ControlChangeEvent(tick=5, channel=2, data=[7, 77]),
   midi.ControlChangeEvent(tick=15, channel=2, data=[7, 76]),
   midi.NoteOnEvent(tick=10, channel=2, data=[77, 0]),
   midi.NoteOnEvent(tick=0, channel=2, data=[74, 0]),
   midi.ControlChangeEvent(tick=0, channel=2, data=[7, 76]),
   midi.ControlChangeEvent(tick=10, channel=2, data=[7, 75]),
   midi.ControlChangeEvent(tick=15, channel=2, data=[7, 75]),
   midi.NoteOnEvent(tick=5, channel=2, data=[76, 81]),
   midi.NoteOnEvent(tick=0, channel=2, data=[79, 81]),
   midi.ControlChangeEvent(tick=5, channel=2, data=[7, 74]),
   midi.ControlChangeEvent(tick=15, channel=2, data=[7, 73]),
   midi.ControlChangeEvent(tick=10, channel=2, data=[7, 73]),
   midi.ControlChangeEvent(tick=15, channel=2, data=[7, 73]),
   midi.NoteOnEvent(tick=70, channel=2, data=[79, 0]),
   midi.NoteOnEvent(tick=0, channel=2, data=[76, 0]),
   midi.ControlChangeEvent(tick=1455, channel=2, data=[7, 73]),
   midi.ControlChangeEvent(tick=15, channel=2, data=[7, 73]),
   midi.ControlChangeEvent(tick=25, channel=2, data=[7, 74]),
   midi.ControlChangeEvent(tick=10, channel=2, data=[7, 75]),
   midi.ControlChangeEvent(tick=20, channel=2, data=[7, 75]),
   midi.ControlChangeEvent(tick=25, channel=2, data=[7, 75]),
   midi.ControlChangeEvent(tick=15, channel=2, data=[7, 76]),
   midi.ControlChangeEvent(tick=15, channel=2, data=[7, 76]),
   midi.ControlChangeEvent(tick=10, channel=2, data=[7, 76]),
   midi.ControlChangeEvent(tick=50, channel=2, data=[7, 76]),
   midi.ControlChangeEvent(tick=15, channel=2, data=[7, 75]),
   midi.ControlChangeEvent(tick=15, channel=2, data=[7, 75]),
   midi.ControlChangeEvent(tick=10, channel=2, data=[7, 73]),
   midi.ControlChangeEvent(tick=15, channel=2, data=[7, 73]),
   midi.ControlChangeEvent(tick=10, channel=2, data=[7, 72]),
   midi.ControlChangeEvent(tick=15, channel=2, data=[7, 72]),
   midi.ControlChangeEvent(tick=10, channel=2, data=[7, 71]),
   midi.ControlChangeEvent(tick=15, channel=2, data=[7, 70]),
   midi.ControlChangeEvent(tick=10, channel=2, data=[7, 70]),
   midi.ControlChangeEvent(tick=15, channel=2, data=[7, 69]),
   midi.ControlChangeEvent(tick=20, channel=2, data=[7, 69]),
   midi.ControlChangeEvent(tick=25, channel=2, data=[7, 69]),
   midi.ControlChangeEvent(tick=15, channel=2, data=[7, 68]),
   midi.ControlChangeEvent(tick=20, channel=2, data=[7, 67]),
   midi.ControlChangeEvent(tick=15, channel=2, data=[7, 67]),
   midi.ControlChangeEvent(tick=25, channel=2, data=[7, 67]),
   midi.ControlChangeEvent(tick=15, channel=2, data=[7, 66]),
   midi.ControlChangeEvent(tick=15, channel=2, data=[7, 66]),
   midi.ControlChangeEvent(tick=20, channel=2, data=[7, 66]),
   midi.ControlChangeEvent(tick=15, channel=2, data=[7, 66]),
   midi.ControlChangeEvent(tick=15, channel=2, data=[7, 66]),
   midi.ControlChangeEvent(tick=10, channel=2, data=[7, 65]),
   midi.ControlChangeEvent(tick=15, channel=2, data=[7, 65]),
   midi.ControlChangeEvent(tick=15, channel=2, data=[7, 65]),
   midi.ControlChangeEvent(tick=10, channel=2, data=[7, 65]),
   midi.ControlChangeEvent(tick=10, channel=2, data=[7, 65]),
   midi.NoteOnEvent(tick=15, channel=2, data=[76, 81]),
   midi.ControlChangeEvent(tick=0, channel=2, data=[7, 63]),
   midi.ControlChangeEvent(tick=10, channel=2, data=[7, 63]),
   midi.ControlChangeEvent(tick=15, channel=2, data=[7, 63]),
   midi.NoteOnEvent(tick=95, channel=2, data=[76, 0]),
   midi.NoteOnEvent(tick=0, channel=2, data=[77, 81]),
   midi.NoteOnEvent(tick=120, channel=2, data=[77, 0]),
   midi.NoteOnEvent(tick=0, channel=2, data=[83, 81]),
   midi.NoteOnEvent(tick=235, channel=2, data=[83, 0]),
   midi.NoteOnEvent(tick=5, channel=2, data=[81, 81]),
   midi.NoteOnEvent(tick=120, channel=2, data=[81, 0]),
   midi.NoteOnEvent(tick=0, channel=2, data=[82, 81]),
   midi.NoteOnEvent(tick=120, channel=2, data=[82, 0]),
   midi.NoteOnEvent(tick=0, channel=2, data=[88, 81]),
   midi.NoteOnEvent(tick=235, channel=2, data=[88, 0]),
   midi.NoteOnEvent(tick=5, channel=2, data=[89, 81]),
   midi.NoteOnEvent(tick=120, channel=2, data=[89, 0]),
   midi.NoteOnEvent(tick=0, channel=2, data=[88, 81]),
   midi.NoteOnEvent(tick=120, channel=2, data=[88, 0]),
   midi.NoteOnEvent(tick=0, channel=2, data=[81, 81]),
   midi.NoteOnEvent(tick=40, channel=2, data=[81, 0]),
   midi.NoteOnEvent(tick=0, channel=2, data=[83, 81]),
   midi.NoteOnEvent(tick=40, channel=2, data=[83, 0]),
   midi.NoteOnEvent(tick=0, channel=2, data=[84, 81]),
   midi.NoteOnEvent(tick=40, channel=2, data=[84, 0]),
   midi.NoteOnEvent(tick=0, channel=2, data=[83, 81]),
   midi.NoteOnEvent(tick=60, channel=2, data=[83, 0]),
   midi.NoteOnEvent(tick=0, channel=2, data=[86, 76]),
   midi.NoteOnEvent(tick=55, channel=2, data=[86, 0]),
   midi.NoteOnEvent(tick=5, channel=2, data=[80, 73]),
   midi.NoteOnEvent(tick=115, channel=2, data=[80, 0]),
   midi.ControlChangeEvent(tick=4915, channel=2, data=[7, 61]),
   midi.ControlChangeEvent(tick=1695, channel=2, data=[7, 63]),
   midi.ControlChangeEvent(tick=20, channel=2, data=[7, 63]),
   midi.ControlChangeEvent(tick=20, channel=2, data=[7, 63]),
   midi.ControlChangeEvent(tick=15, channel=2, data=[7, 65]),
   midi.ControlChangeEvent(tick=20, channel=2, data=[7, 65]),
   midi.ControlChangeEvent(tick=20, channel=2, data=[7, 65]),
   midi.ControlChangeEvent(tick=15, channel=2, data=[7, 66]),
   midi.NoteOnEvent(tick=5, channel=2, data=[69, 92]),
   midi.NoteOnEvent(tick=0, channel=2, data=[72, 92]),
   midi.ControlChangeEvent(tick=15, channel=2, data=[7, 67]),
   midi.ControlChangeEvent(tick=20, channel=2, data=[7, 69]),
   midi.ControlChangeEvent(tick=20, channel=2, data=[7, 70]),
   midi.ControlChangeEvent(tick=20, channel=2, data=[7, 73]),
   midi.ControlChangeEvent(tick=20, channel=2, data=[7, 75]),
   midi.ControlChangeEvent(tick=20, channel=2, data=[7, 77]),
   midi.ControlChangeEvent(tick=20, channel=2, data=[7, 80]),
   midi.ControlChangeEvent(tick=20, channel=2, data=[7, 81]),
   midi.ControlChangeEvent(tick=20, channel=2, data=[7, 83]),
   midi.ControlChangeEvent(tick=20, channel=2, data=[7, 83]),
   midi.ControlChangeEvent(tick=20, channel=2, data=[7, 86]),
   midi.ControlChangeEvent(tick=20, channel=2, data=[7, 88]),
   midi.ControlChangeEvent(tick=20, channel=2, data=[7, 90]),
   midi.ControlChangeEvent(tick=20, channel=2, data=[7, 92]),
   midi.ControlChangeEvent(tick=25, channel=2, data=[7, 93]),
   midi.ControlChangeEvent(tick=20, channel=2, data=[7, 93]),
   midi.ControlChangeEvent(tick=20, channel=2, data=[7, 94]),
   midi.NoteOnEvent(tick=10, channel=2, data=[72, 0]),
   midi.NoteOnEvent(tick=0, channel=2, data=[69, 0]),
   midi.ControlChangeEvent(tick=10, channel=2, data=[7, 94]),
   midi.ControlChangeEvent(tick=20, channel=2, data=[7, 96]),
   midi.ControlChangeEvent(tick=30, channel=2, data=[7, 94]),
   midi.NoteOnEvent(tick=10, channel=2, data=[88, 102]),
   midi.NoteOnEvent(tick=0, channel=2, data=[84, 92]),
   midi.ControlChangeEvent(tick=10, channel=2, data=[7, 89]),
   midi.NoteOnEvent(tick=15, channel=2, data=[84, 0]),
   midi.NoteOnEvent(tick=0, channel=2, data=[88, 0]),
   midi.ControlChangeEvent(tick=5, channel=2, data=[7, 86]),
   midi.ControlChangeEvent(tick=20, channel=2, data=[7, 84]),
   midi.NoteOnEvent(tick=10, channel=2, data=[83, 92]),
   midi.NoteOnEvent(tick=0, channel=2, data=[86, 102]),
   midi.ControlChangeEvent(tick=10, channel=2, data=[7, 83]),
   midi.NoteOnEvent(tick=15, channel=2, data=[86, 0]),
   midi.NoteOnEvent(tick=0, channel=2, data=[83, 0]),
   midi.ControlChangeEvent(tick=10, channel=2, data=[7, 83]),
   midi.ControlChangeEvent(tick=20, channel=2, data=[7, 83]),
   midi.ControlChangeEvent(tick=20, channel=2, data=[7, 83]),
   midi.NoteOnEvent(tick=105, channel=2, data=[77, 92]),
   midi.NoteOnEvent(tick=0, channel=2, data=[81, 102]),
   midi.NoteOnEvent(tick=25, channel=2, data=[81, 0]),
   midi.NoteOnEvent(tick=0, channel=2, data=[77, 0]),
   midi.ControlChangeEvent(tick=0, channel=2, data=[7, 83]),
   midi.NoteOnEvent(tick=35, channel=2, data=[76, 92]),
   midi.NoteOnEvent(tick=0, channel=2, data=[80, 102]),
   midi.ControlChangeEvent(tick=5, channel=2, data=[7, 81]),
   midi.NoteOnEvent(tick=20, channel=2, data=[80, 0]),
   midi.NoteOnEvent(tick=0, channel=2, data=[76, 0]),
   midi.ControlChangeEvent(tick=95, channel=2, data=[7, 81]),
   midi.NoteOnEvent(tick=60, channel=2, data=[72, 92]),
   midi.NoteOnEvent(tick=0, channel=2, data=[76, 102]),
   midi.ControlChangeEvent(tick=20, channel=2, data=[7, 81]),
   midi.NoteOnEvent(tick=5, channel=2, data=[76, 0]),
   midi.NoteOnEvent(tick=0, channel=2, data=[72, 0]),
   midi.ControlChangeEvent(tick=30, channel=2, data=[7, 81]),
   midi.NoteOnEvent(tick=5, channel=2, data=[74, 102]),
   midi.NoteOnEvent(tick=0, channel=2, data=[71, 92]),
   midi.NoteOnEvent(tick=25, channel=2, data=[71, 0]),
   midi.NoteOnEvent(tick=0, channel=2, data=[74, 0]),
   midi.ControlChangeEvent(tick=25, channel=2, data=[7, 81]),
   midi.ControlChangeEvent(tick=40, channel=2, data=[7, 81]),
   midi.ControlChangeEvent(tick=15, channel=2, data=[7, 80]),
   midi.ControlChangeEvent(tick=20, channel=2, data=[7, 79]),
   midi.ControlChangeEvent(tick=15, channel=2, data=[7, 77]),
   midi.ControlChangeEvent(tick=20, channel=2, data=[7, 77]),
   midi.ControlChangeEvent(tick=15, channel=2, data=[7, 76]),
   midi.ControlChangeEvent(tick=20, channel=2, data=[7, 76]),
   midi.ControlChangeEvent(tick=15, channel=2, data=[7, 76]),
   midi.ControlChangeEvent(tick=45, channel=2, data=[7, 75]),
   midi.ControlChangeEvent(tick=25, channel=2, data=[7, 75]),
   midi.ControlChangeEvent(tick=25, channel=2, data=[7, 75]),
   midi.ControlChangeEvent(tick=445, channel=2, data=[7, 75]),
   midi.ControlChangeEvent(tick=40, channel=2, data=[7, 75]),
   midi.ControlChangeEvent(tick=20, channel=2, data=[7, 76]),
   midi.ControlChangeEvent(tick=20, channel=2, data=[7, 76]),
   midi.ControlChangeEvent(tick=20, channel=2, data=[7, 77]),
   midi.ControlChangeEvent(tick=20, channel=2, data=[7, 79]),
   midi.ControlChangeEvent(tick=15, channel=2, data=[7, 80]),
   midi.ControlChangeEvent(tick=20, channel=2, data=[7, 81]),
   midi.ControlChangeEvent(tick=20, channel=2, data=[7, 81]),
   midi.ControlChangeEvent(tick=20, channel=2, data=[7, 83]),
   midi.NoteOnEvent(tick=15, channel=2, data=[69, 92]),
   midi.NoteOnEvent(tick=0, channel=2, data=[72, 92]),
   midi.ControlChangeEvent(tick=0, channel=2, data=[7, 83]),
   midi.ControlChangeEvent(tick=25, channel=2, data=[7, 84]),
   midi.ControlChangeEvent(tick=20, channel=2, data=[7, 86]),
   midi.ControlChangeEvent(tick=20, channel=2, data=[7, 87]),
   midi.ControlChangeEvent(tick=20, channel=2, data=[7, 87]),
   midi.ControlChangeEvent(tick=20, channel=2, data=[7, 89]),
   midi.ControlChangeEvent(tick=20, channel=2, data=[7, 90]),
   midi.ControlChangeEvent(tick=20, channel=2, data=[7, 92]),
   midi.ControlChangeEvent(tick=20, channel=2, data=[7, 93]),
   midi.ControlChangeEvent(tick=20, channel=2, data=[7, 94]),
   midi.ControlChangeEvent(tick=20, channel=2, data=[7, 94]),
   midi.ControlChangeEvent(tick=20, channel=2, data=[7, 96]),
   midi.NoteOnEvent(tick=125, channel=2, data=[72, 0]),
   midi.NoteOnEvent(tick=0, channel=2, data=[69, 0]),
   midi.NoteOnEvent(tick=70, channel=2, data=[86, 102]),
   midi.NoteOnEvent(tick=0, channel=2, data=[82, 92]),
   midi.NoteOnEvent(tick=25, channel=2, data=[82, 0]),
   midi.NoteOnEvent(tick=0, channel=2, data=[86, 0]),
   midi.NoteOnEvent(tick=35, channel=2, data=[81, 92]),
   midi.NoteOnEvent(tick=0, channel=2, data=[84, 102]),
   midi.NoteOnEvent(tick=25, channel=2, data=[84, 0]),
   midi.NoteOnEvent(tick=0, channel=2, data=[81, 0]),
   midi.ControlChangeEvent(tick=0, channel=2, data=[7, 94]),
   midi.ControlChangeEvent(tick=20, channel=2, data=[7, 94]),
   midi.ControlChangeEvent(tick=20, channel=2, data=[7, 93]),
   midi.ControlChangeEvent(tick=20, channel=2, data=[7, 92]),
   midi.ControlChangeEvent(tick=20, channel=2, data=[7, 90]),
   midi.ControlChangeEvent(tick=20, channel=2, data=[7, 89]),
   midi.ControlChangeEvent(tick=20, channel=2, data=[7, 88]),
   midi.ControlChangeEvent(tick=15, channel=2, data=[7, 87]),
   midi.NoteOnEvent(tick=20, channel=2, data=[75, 92]),
   midi.NoteOnEvent(tick=0, channel=2, data=[79, 102]),
   midi.ControlChangeEvent(tick=0, channel=2, data=[7, 86]),
   midi.ControlChangeEvent(tick=20, channel=2, data=[7, 85]),
   midi.NoteOnEvent(tick=5, channel=2, data=[79, 0]),
   midi.NoteOnEvent(tick=0, channel=2, data=[75, 0]),
   midi.ControlChangeEvent(tick=15, channel=2, data=[7, 84]),
   midi.ControlChangeEvent(tick=15, channel=2, data=[7, 83]),
   midi.NoteOnEvent(tick=5, channel=2, data=[74, 92]),
   midi.NoteOnEvent(tick=0, channel=2, data=[78, 102]),
   midi.NoteOnEvent(tick=25, channel=2, data=[78, 0]),
   midi.NoteOnEvent(tick=0, channel=2, data=[74, 0]),
   midi.ControlChangeEvent(tick=20, channel=2, data=[7, 83]),
   midi.ControlChangeEvent(tick=30, channel=2, data=[7, 83]),
   midi.NoteOnEvent(tick=105, channel=2, data=[70, 92]),
   midi.NoteOnEvent(tick=0, channel=2, data=[74, 102]),
   midi.ControlChangeEvent(tick=15, channel=2, data=[7, 83]),
   midi.NoteOnEvent(tick=10, channel=2, data=[74, 0]),
   midi.NoteOnEvent(tick=0, channel=2, data=[70, 0]),
   midi.ControlChangeEvent(tick=10, channel=2, data=[7, 84]),
   midi.ControlChangeEvent(tick=20, channel=2, data=[7, 84]),
   midi.NoteOnEvent(tick=5, channel=2, data=[72, 102]),
   midi.NoteOnEvent(tick=0, channel=2, data=[69, 92]),
   midi.NoteOnEvent(tick=25, channel=2, data=[69, 0]),
   midi.NoteOnEvent(tick=0, channel=2, data=[72, 0]),
   midi.ControlChangeEvent(tick=2530, channel=2, data=[7, 84]),
   midi.ControlChangeEvent(tick=95, channel=2, data=[7, 83]),
   midi.ControlChangeEvent(tick=30, channel=2, data=[7, 83]),
   midi.ControlChangeEvent(tick=15, channel=2, data=[7, 83]),
   midi.ControlChangeEvent(tick=45, channel=2, data=[7, 83]),
   midi.ControlChangeEvent(tick=25, channel=2, data=[7, 83]),
   midi.ControlChangeEvent(tick=35, channel=2, data=[7, 83]),
   midi.ControlChangeEvent(tick=110, channel=2, data=[7, 83]),
   midi.ControlChangeEvent(tick=15, channel=2, data=[7, 83]),
   midi.ControlChangeEvent(tick=10, channel=2, data=[7, 83]),
   midi.ControlChangeEvent(tick=15, channel=2, data=[7, 84]),
   midi.ControlChangeEvent(tick=10, channel=2, data=[7, 85]),
   midi.ControlChangeEvent(tick=15, channel=2, data=[7, 86]),
   midi.ControlChangeEvent(tick=10, channel=2, data=[7, 86]),
   midi.ControlChangeEvent(tick=15, channel=2, data=[7, 87]),
   midi.ControlChangeEvent(tick=10, channel=2, data=[7, 87]),
   midi.ControlChangeEvent(tick=15, channel=2, data=[7, 88]),
   midi.ControlChangeEvent(tick=30, channel=2, data=[7, 87]),
   midi.ControlChangeEvent(tick=15, channel=2, data=[7, 87]),
   midi.ControlChangeEvent(tick=15, channel=2, data=[7, 87]),
   midi.ControlChangeEvent(tick=10, channel=2, data=[7, 86]),
   midi.ControlChangeEvent(tick=15, channel=2, data=[7, 86]),
   midi.ControlChangeEvent(tick=10, channel=2, data=[7, 84]),
   midi.ControlChangeEvent(tick=15, channel=2, data=[7, 84]),
   midi.ControlChangeEvent(tick=25, channel=2, data=[7, 83]),
   midi.ControlChangeEvent(tick=45, channel=2, data=[7, 83]),
   midi.ControlChangeEvent(tick=15, channel=2, data=[7, 83]),
   midi.ControlChangeEvent(tick=25, channel=2, data=[7, 83]),
   midi.ControlChangeEvent(tick=15, channel=2, data=[7, 83]),
   midi.ControlChangeEvent(tick=10, channel=2, data=[7, 83]),
   midi.ControlChangeEvent(tick=20, channel=2, data=[7, 81]),
   midi.ControlChangeEvent(tick=20, channel=2, data=[7, 81]),
   midi.ControlChangeEvent(tick=25, channel=2, data=[7, 81]),
   midi.ControlChangeEvent(tick=20, channel=2, data=[7, 81]),
   midi.ControlChangeEvent(tick=15, channel=2, data=[7, 81]),
   midi.ControlChangeEvent(tick=10, channel=2, data=[7, 81]),
   midi.ControlChangeEvent(tick=20, channel=2, data=[7, 80]),
   midi.ControlChangeEvent(tick=190, channel=2, data=[7, 81]),
   midi.NoteOnEvent(tick=130, channel=2, data=[84, 97]),
   midi.ControlChangeEvent(tick=160, channel=2, data=[7, 81]),
   midi.ControlChangeEvent(tick=20, channel=2, data=[7, 81]),
   midi.ControlChangeEvent(tick=30, channel=2, data=[7, 80]),
   midi.NoteOnEvent(tick=30, channel=2, data=[84, 0]),
   midi.NoteOnEvent(tick=0, channel=2, data=[89, 92]),
   midi.ControlChangeEvent(tick=5, channel=2, data=[7, 79]),
   midi.ControlChangeEvent(tick=65, channel=2, data=[7, 80]),
   midi.ControlChangeEvent(tick=15, channel=2, data=[7, 81]),
   midi.ControlChangeEvent(tick=20, channel=2, data=[7, 81]),
   midi.ControlChangeEvent(tick=25, channel=2, data=[7, 81]),
   midi.ControlChangeEvent(tick=15, channel=2, data=[7, 81]),
   midi.ControlChangeEvent(tick=15, channel=2, data=[7, 83]),
   midi.ControlChangeEvent(tick=15, channel=2, data=[7, 83]),
   midi.ControlChangeEvent(tick=15, channel=2, data=[7, 83]),
   midi.ControlChangeEvent(tick=15, channel=2, data=[7, 83]),
   midi.ControlChangeEvent(tick=15, channel=2, data=[7, 84]),
   midi.NoteOnEvent(tick=10, channel=2, data=[89, 0]),
   midi.ControlChangeEvent(tick=5, channel=2, data=[7, 85]),
   midi.NoteOnEvent(tick=5, channel=2, data=[93, 102]),
   midi.ControlChangeEvent(tick=10, channel=2, data=[7, 86]),
   midi.ControlChangeEvent(tick=15, channel=2, data=[7, 87]),
   midi.ControlChangeEvent(tick=10, channel=2, data=[7, 90]),
   midi.ControlChangeEvent(tick=15, channel=2, data=[7, 94]),
   midi.ControlChangeEvent(tick=10, channel=2, data=[7, 96]),
   midi.ControlChangeEvent(tick=40, channel=2, data=[7, 94]),
   midi.ControlChangeEvent(tick=10, channel=2, data=[7, 93]),
   midi.ControlChangeEvent(tick=15, channel=2, data=[7, 90]),
   midi.ControlChangeEvent(tick=10, channel=2, data=[7, 89]),
   midi.ControlChangeEvent(tick=15, channel=2, data=[7, 87]),
   midi.ControlChangeEvent(tick=15, channel=2, data=[7, 84]),
   midi.ControlChangeEvent(tick=15, channel=2, data=[7, 83]),
   midi.ControlChangeEvent(tick=10, channel=2, data=[7, 83]),
   midi.ControlChangeEvent(tick=15, channel=2, data=[7, 81]),
   midi.ControlChangeEvent(tick=15, channel=2, data=[7, 81]),
   midi.ControlChangeEvent(tick=15, channel=2, data=[7, 81]),
   midi.ControlChangeEvent(tick=10, channel=2, data=[7, 81]),
   midi.ControlChangeEvent(tick=15, channel=2, data=[7, 79]),
   midi.ControlChangeEvent(tick=10, channel=2, data=[7, 78]),
   midi.ControlChangeEvent(tick=10, channel=2, data=[7, 77]),
   midi.ControlChangeEvent(tick=15, channel=2, data=[7, 76]),
   midi.ControlChangeEvent(tick=10, channel=2, data=[7, 76]),
   midi.ControlChangeEvent(tick=10, channel=2, data=[7, 75]),
   midi.ControlChangeEvent(tick=15, channel=2, data=[7, 75]),
   midi.ControlChangeEvent(tick=10, channel=2, data=[7, 73]),
   midi.ControlChangeEvent(tick=15, channel=2, data=[7, 73]),
   midi.ControlChangeEvent(tick=10, channel=2, data=[7, 72]),
   midi.ControlChangeEvent(tick=5, channel=2, data=[7, 72]),
   midi.ControlChangeEvent(tick=10, channel=2, data=[7, 70]),
   midi.ControlChangeEvent(tick=5, channel=2, data=[7, 70]),
   midi.ControlChangeEvent(tick=5, channel=2, data=[7, 69]),
   midi.ControlChangeEvent(tick=10, channel=2, data=[7, 69]),
   midi.ControlChangeEvent(tick=20, channel=2, data=[7, 69]),
   midi.ControlChangeEvent(tick=10, channel=2, data=[7, 68]),
   midi.ControlChangeEvent(tick=10, channel=2, data=[7, 67]),
   midi.ControlChangeEvent(tick=10, channel=2, data=[7, 67]),
   midi.ControlChangeEvent(tick=5, channel=2, data=[7, 67]),
   midi.ControlChangeEvent(tick=15, channel=2, data=[7, 66]),
   midi.NoteOnEvent(tick=10, channel=2, data=[93, 0]),
   midi.NoteOnEvent(tick=0, channel=2, data=[91, 79]),
   midi.ControlChangeEvent(tick=0, channel=2, data=[7, 66]),
   midi.ControlChangeEvent(tick=20, channel=2, data=[7, 66]),
   midi.ControlChangeEvent(tick=25, channel=2, data=[7, 66]),
   midi.NoteOnEvent(tick=15, channel=2, data=[91, 0]),
   midi.ControlChangeEvent(tick=10, channel=2, data=[7, 65]),
   midi.ControlChangeEvent(tick=155, channel=2, data=[7, 66]),
   midi.ControlChangeEvent(tick=10, channel=2, data=[7, 66]),
   midi.ControlChangeEvent(tick=35, channel=2, data=[7, 66]),
   midi.ControlChangeEvent(tick=50, channel=2, data=[7, 66]),
   midi.ControlChangeEvent(tick=30, channel=2, data=[7, 67]),
   midi.ControlChangeEvent(tick=15, channel=2, data=[7, 67]),
   midi.ControlChangeEvent(tick=25, channel=2, data=[7, 67]),
   midi.ControlChangeEvent(tick=30, channel=2, data=[7, 68]),
   midi.ControlChangeEvent(tick=15, channel=2, data=[7, 69]),
   midi.ControlChangeEvent(tick=10, channel=2, data=[7, 69]),
   midi.ControlChangeEvent(tick=10, channel=2, data=[7, 69]),
   midi.ControlChangeEvent(tick=10, channel=2, data=[7, 70]),
   midi.ControlChangeEvent(tick=10, channel=2, data=[7, 71]),
   midi.ControlChangeEvent(tick=10, channel=2, data=[7, 72]),
   midi.ControlChangeEvent(tick=15, channel=2, data=[7, 72]),
   midi.ControlChangeEvent(tick=15, channel=2, data=[7, 73]),
   midi.ControlChangeEvent(tick=15, channel=2, data=[7, 73]),
   midi.ControlChangeEvent(tick=20, channel=2, data=[7, 73]),
   midi.ControlChangeEvent(tick=10, channel=2, data=[7, 74]),
   midi.ControlChangeEvent(tick=15, channel=2, data=[7, 75]),
   midi.ControlChangeEvent(tick=10, channel=2, data=[7, 75]),
   midi.ControlChangeEvent(tick=10, channel=2, data=[7, 75]),
   midi.ControlChangeEvent(tick=15, channel=2, data=[7, 76]),
   midi.ControlChangeEvent(tick=10, channel=2, data=[7, 76]),
   midi.ControlChangeEvent(tick=10, channel=2, data=[7, 76]),
   midi.ControlChangeEvent(tick=25, channel=2, data=[7, 77]),
   midi.ControlChangeEvent(tick=20, channel=2, data=[7, 77]),
   midi.ControlChangeEvent(tick=15, channel=2, data=[7, 78]),
   midi.ControlChangeEvent(tick=25, channel=2, data=[7, 79]),
   midi.ControlChangeEvent(tick=15, channel=2, data=[7, 79]),
   midi.ControlChangeEvent(tick=15, channel=2, data=[7, 80]),
   midi.ControlChangeEvent(tick=20, channel=2, data=[7, 81]),
   midi.ControlChangeEvent(tick=15, channel=2, data=[7, 81]),
   midi.ControlChangeEvent(tick=20, channel=2, data=[7, 81]),
   midi.ControlChangeEvent(tick=15, channel=2, data=[7, 81]),
   midi.ControlChangeEvent(tick=15, channel=2, data=[7, 81]),
   midi.ControlChangeEvent(tick=25, channel=2, data=[7, 81]),
   midi.ControlChangeEvent(tick=20, channel=2, data=[7, 83]),
   midi.ControlChangeEvent(tick=25, channel=2, data=[7, 83]),
   midi.ControlChangeEvent(tick=15, channel=2, data=[7, 83]),
   midi.ControlChangeEvent(tick=15, channel=2, data=[7, 83]),
   midi.ControlChangeEvent(tick=20, channel=2, data=[7, 83]),
   midi.ControlChangeEvent(tick=35, channel=2, data=[7, 83]),
   midi.ControlChangeEvent(tick=25, channel=2, data=[7, 84]),
   midi.ControlChangeEvent(tick=15, channel=2, data=[7, 84]),
   midi.ControlChangeEvent(tick=20, channel=2, data=[7, 85]),
   midi.ControlChangeEvent(tick=35, channel=2, data=[7, 86]),
   midi.ControlChangeEvent(tick=15, channel=2, data=[7, 86]),
   midi.ControlChangeEvent(tick=10, channel=2, data=[7, 87]),
   midi.ControlChangeEvent(tick=10, channel=2, data=[7, 87]),
   midi.NoteOnEvent(tick=25, channel=2, data=[83, 81]),
   midi.ControlChangeEvent(tick=0, channel=2, data=[7, 87]),
   midi.ControlChangeEvent(tick=40, channel=2, data=[7, 87]),
   midi.ControlChangeEvent(tick=10, channel=2, data=[7, 87]),
   midi.NoteOnEvent(tick=10, channel=2, data=[83, 0]),
   midi.NoteOnEvent(tick=0, channel=2, data=[81, 81]),
   midi.ControlChangeEvent(tick=0, channel=2, data=[7, 86]),
   midi.ControlChangeEvent(tick=15, channel=2, data=[7, 84]),
   midi.ControlChangeEvent(tick=10, channel=2, data=[7, 84]),
   midi.ControlChangeEvent(tick=10, channel=2, data=[7, 83]),
   midi.ControlChangeEvent(tick=10, channel=2, data=[7, 83]),
   midi.ControlChangeEvent(tick=10, channel=2, data=[7, 83]),
   midi.ControlChangeEvent(tick=10, channel=2, data=[7, 81]),
   midi.ControlChangeEvent(tick=15, channel=2, data=[7, 81]),
   midi.ControlChangeEvent(tick=10, channel=2, data=[7, 81]),
   midi.ControlChangeEvent(tick=10, channel=2, data=[7, 81]),
   midi.ControlChangeEvent(tick=15, channel=2, data=[7, 81]),
   midi.NoteOnEvent(tick=5, channel=2, data=[81, 0]),
   midi.NoteOnEvent(tick=0, channel=2, data=[79, 71]),
   midi.ControlChangeEvent(tick=25, channel=2, data=[7, 80]),
   midi.ControlChangeEvent(tick=15, channel=2, data=[7, 79]),
   midi.ControlChangeEvent(tick=15, channel=2, data=[7, 79]),
   midi.ControlChangeEvent(tick=30, channel=2, data=[7, 78]),
   midi.ControlChangeEvent(tick=30, channel=2, data=[7, 79]),
   midi.NoteOnEvent(tick=10, channel=2, data=[79, 0]),
   midi.ControlChangeEvent(tick=0, channel=2, data=[7, 81]),
   midi.ControlChangeEvent(tick=10, channel=2, data=[7, 81]),
   midi.ControlChangeEvent(tick=15, channel=2, data=[7, 83]),
   midi.ControlChangeEvent(tick=10, channel=2, data=[7, 83]),
   midi.ControlChangeEvent(tick=10, channel=2, data=[7, 83]),
   midi.ControlChangeEvent(tick=10, channel=2, data=[7, 83]),
   midi.ControlChangeEvent(tick=10, channel=2, data=[7, 83]),
   midi.ControlChangeEvent(tick=10, channel=2, data=[7, 84]),
   midi.ControlChangeEvent(tick=15, channel=2, data=[7, 84]),
   midi.ControlChangeEvent(tick=15, channel=2, data=[7, 85]),
   midi.ControlChangeEvent(tick=15, channel=2, data=[7, 86]),
   midi.ControlChangeEvent(tick=10, channel=2, data=[7, 86]),
   midi.ControlChangeEvent(tick=15, channel=2, data=[7, 87]),
   midi.ControlChangeEvent(tick=20, channel=2, data=[7, 87]),
   midi.ControlChangeEvent(tick=15, channel=2, data=[7, 87]),
   midi.ControlChangeEvent(tick=20, channel=2, data=[7, 88]),
   midi.ControlChangeEvent(tick=20, channel=2, data=[7, 89]),
   midi.ControlChangeEvent(tick=20, channel=2, data=[7, 89]),
   midi.ControlChangeEvent(tick=20, channel=2, data=[7, 89]),
   midi.ControlChangeEvent(tick=15, channel=2, data=[7, 90]),
   midi.ControlChangeEvent(tick=15, channel=2, data=[7, 90]),
   midi.ControlChangeEvent(tick=10, channel=2, data=[7, 92]),
   midi.ControlChangeEvent(tick=10, channel=2, data=[7, 92]),
   midi.ControlChangeEvent(tick=15, channel=2, data=[7, 93]),
   midi.ControlChangeEvent(tick=10, channel=2, data=[7, 93]),
   midi.ControlChangeEvent(tick=10, channel=2, data=[7, 94]),
   midi.ControlChangeEvent(tick=15, channel=2, data=[7, 94]),
   midi.ControlChangeEvent(tick=15, channel=2, data=[7, 94]),
   midi.ControlChangeEvent(tick=10, channel=2, data=[7, 94]),
   midi.ControlChangeEvent(tick=15, channel=2, data=[7, 96]),
   midi.ControlChangeEvent(tick=50, channel=2, data=[7, 94]),
   midi.ControlChangeEvent(tick=10, channel=2, data=[7, 94]),
   midi.ControlChangeEvent(tick=10, channel=2, data=[7, 93]),
   midi.ControlChangeEvent(tick=10, channel=2, data=[7, 92]),
   midi.ControlChangeEvent(tick=15, channel=2, data=[7, 90]),
   midi.ControlChangeEvent(tick=10, channel=2, data=[7, 90]),
   midi.ControlChangeEvent(tick=10, channel=2, data=[7, 89]),
   midi.ControlChangeEvent(tick=10, channel=2, data=[7, 89]),
   midi.ControlChangeEvent(tick=10, channel=2, data=[7, 87]),
   midi.ControlChangeEvent(tick=15, channel=2, data=[7, 87]),
   midi.ControlChangeEvent(tick=10, channel=2, data=[7, 87]),
   midi.ControlChangeEvent(tick=15, channel=2, data=[7, 86]),
   midi.ControlChangeEvent(tick=10, channel=2, data=[7, 85]),
   midi.ControlChangeEvent(tick=10, channel=2, data=[7, 84]),
   midi.ControlChangeEvent(tick=10, channel=2, data=[7, 83]),
   midi.ControlChangeEvent(tick=10, channel=2, data=[7, 83]),
   midi.ControlChangeEvent(tick=10, channel=2, data=[7, 83]),
   midi.ControlChangeEvent(tick=10, channel=2, data=[7, 83]),
   midi.NoteOnEvent(tick=20, channel=2, data=[86, 79]),
   midi.ControlChangeEvent(tick=10, channel=2, data=[7, 83]),
   midi.ControlChangeEvent(tick=30, channel=2, data=[7, 81]),
   midi.ControlChangeEvent(tick=10, channel=2, data=[7, 81]),
   midi.NoteOnEvent(tick=10, channel=2, data=[86, 0]),
   midi.NoteOnEvent(tick=0, channel=2, data=[81, 81]),
   midi.ControlChangeEvent(tick=0, channel=2, data=[7, 81]),
   midi.ControlChangeEvent(tick=15, channel=2, data=[7, 81]),
   midi.ControlChangeEvent(tick=25, channel=2, data=[7, 81]),
   midi.ControlChangeEvent(tick=15, channel=2, data=[7, 81]),
   midi.ControlChangeEvent(tick=40, channel=2, data=[7, 80]),
   midi.ControlChangeEvent(tick=20, channel=2, data=[7, 79]),
   midi.NoteOnEvent(tick=5, channel=2, data=[81, 0]),
   midi.NoteOnEvent(tick=0, channel=2, data=[79, 76]),
   midi.ControlChangeEvent(tick=10, channel=2, data=[7, 79]),
   midi.ControlChangeEvent(tick=15, channel=2, data=[7, 78]),
   midi.ControlChangeEvent(tick=20, channel=2, data=[7, 77]),
   midi.ControlChangeEvent(tick=35, channel=2, data=[7, 77]),
   midi.ControlChangeEvent(tick=20, channel=2, data=[7, 76]),
   midi.NoteOnEvent(tick=20, channel=2, data=[79, 0]),
   midi.ControlChangeEvent(tick=10, channel=2, data=[7, 76]),
   midi.ControlChangeEvent(tick=1605, channel=2, data=[7, 76]),
   midi.ControlChangeEvent(tick=30, channel=2, data=[7, 77]),
   midi.ControlChangeEvent(tick=5, channel=2, data=[7, 77]),
   midi.ControlChangeEvent(tick=5, channel=2, data=[7, 78]),
   midi.ControlChangeEvent(tick=5, channel=2, data=[7, 79]),
   midi.ControlChangeEvent(tick=10, channel=2, data=[7, 79]),
   midi.ControlChangeEvent(tick=10, channel=2, data=[7, 80]),
   midi.ControlChangeEvent(tick=10, channel=2, data=[7, 81]),
   midi.ControlChangeEvent(tick=5, channel=2, data=[7, 81]),
   midi.ControlChangeEvent(tick=5, channel=2, data=[7, 81]),
   midi.ControlChangeEvent(tick=5, channel=2, data=[7, 81]),
   midi.ControlChangeEvent(tick=5, channel=2, data=[7, 81]),
   midi.ControlChangeEvent(tick=5, channel=2, data=[7, 83]),
   midi.ControlChangeEvent(tick=10, channel=2, data=[7, 83]),
   midi.ControlChangeEvent(tick=5, channel=2, data=[7, 84]),
   midi.ControlChangeEvent(tick=5, channel=2, data=[7, 85]),
   midi.ControlChangeEvent(tick=5, channel=2, data=[7, 86]),
   midi.ControlChangeEvent(tick=5, channel=2, data=[7, 87]),
   midi.ControlChangeEvent(tick=5, channel=2, data=[7, 87]),
   midi.ControlChangeEvent(tick=10, channel=2, data=[7, 89]),
   midi.ControlChangeEvent(tick=5, channel=2, data=[7, 89]),
   midi.ControlChangeEvent(tick=5, channel=2, data=[7, 90]),
   midi.ControlChangeEvent(tick=5, channel=2, data=[7, 90]),
   midi.ControlChangeEvent(tick=5, channel=2, data=[7, 90]),
   midi.ControlChangeEvent(tick=5, channel=2, data=[7, 92]),
   midi.ControlChangeEvent(tick=15, channel=2, data=[7, 92]),
   midi.ControlChangeEvent(tick=5, channel=2, data=[7, 92]),
   midi.ControlChangeEvent(tick=5, channel=2, data=[7, 93]),
   midi.ControlChangeEvent(tick=10, channel=2, data=[7, 93]),
   midi.ControlChangeEvent(tick=15, channel=2, data=[7, 94]),
   midi.ControlChangeEvent(tick=20, channel=2, data=[7, 94]),
   midi.ControlChangeEvent(tick=20, channel=2, data=[7, 94]),
   midi.ControlChangeEvent(tick=10, channel=2, data=[7, 94]),
   midi.ControlChangeEvent(tick=15, channel=2, data=[7, 96]),
   midi.ControlChangeEvent(tick=160, channel=2, data=[7, 94]),
   midi.ControlChangeEvent(tick=35, channel=2, data=[7, 94]),
   midi.ControlChangeEvent(tick=120, channel=2, data=[7, 94]),
   midi.ControlChangeEvent(tick=55, channel=2, data=[7, 96]),
   midi.ControlChangeEvent(tick=1450, channel=2, data=[7, 94]),
   midi.ControlChangeEvent(tick=10, channel=2, data=[7, 94]),
   midi.ControlChangeEvent(tick=15, channel=2, data=[7, 94]),
   midi.ControlChangeEvent(tick=5, channel=2, data=[7, 94]),
   midi.ControlChangeEvent(tick=5, channel=2, data=[7, 93]),
   midi.ControlChangeEvent(tick=10, channel=2, data=[7, 93]),
   midi.ControlChangeEvent(tick=10, channel=2, data=[7, 92]),
   midi.ControlChangeEvent(tick=10, channel=2, data=[7, 92]),
   midi.ControlChangeEvent(tick=5, channel=2, data=[7, 92]),
   midi.ControlChangeEvent(tick=5, channel=2, data=[7, 90]),
   midi.ControlChangeEvent(tick=5, channel=2, data=[7, 90]),
   midi.ControlChangeEvent(tick=10, channel=2, data=[7, 89]),
   midi.ControlChangeEvent(tick=5, channel=2, data=[7, 89]),
   midi.ControlChangeEvent(tick=5, channel=2, data=[7, 89]),
   midi.ControlChangeEvent(tick=5, channel=2, data=[7, 88]),
   midi.ControlChangeEvent(tick=5, channel=2, data=[7, 87]),
   midi.ControlChangeEvent(tick=10, channel=2, data=[7, 87]),
   midi.ControlChangeEvent(tick=5, channel=2, data=[7, 87]),
   midi.ControlChangeEvent(tick=10, channel=2, data=[7, 86]),
   midi.ControlChangeEvent(tick=10, channel=2, data=[7, 86]),
   midi.ControlChangeEvent(tick=10, channel=2, data=[7, 85]),
   midi.ControlChangeEvent(tick=20, channel=2, data=[7, 84]),
   midi.ControlChangeEvent(tick=15, channel=2, data=[7, 84]),
   midi.ControlChangeEvent(tick=10, channel=2, data=[7, 83]),
   midi.ControlChangeEvent(tick=10, channel=2, data=[7, 83]),
   midi.ControlChangeEvent(tick=10, channel=2, data=[7, 83]),
   midi.ControlChangeEvent(tick=20, channel=2, data=[7, 83]),
   midi.ControlChangeEvent(tick=20, channel=2, data=[7, 83]),
   midi.ControlChangeEvent(tick=50, channel=2, data=[7, 83]),
   midi.NoteOnEvent(tick=50, channel=2, data=[80, 86]),
   midi.ControlChangeEvent(tick=20, channel=2, data=[7, 83]),
   midi.ControlChangeEvent(tick=15, channel=2, data=[7, 83]),
   midi.ControlChangeEvent(tick=5, channel=2, data=[7, 83]),
   midi.ControlChangeEvent(tick=15, channel=2, data=[7, 83]),
   midi.ControlChangeEvent(tick=10, channel=2, data=[7, 83]),
   midi.ControlChangeEvent(tick=5, channel=2, data=[7, 84]),
   midi.ControlChangeEvent(tick=15, channel=2, data=[7, 84]),
   midi.ControlChangeEvent(tick=10, channel=2, data=[7, 85]),
   midi.ControlChangeEvent(tick=15, channel=2, data=[7, 86]),
   midi.NoteOnEvent(tick=10, channel=2, data=[80, 0]),
   midi.NoteOnEvent(tick=0, channel=2, data=[81, 86]),
   midi.ControlChangeEvent(tick=30, channel=2, data=[7, 86]),
   midi.ControlChangeEvent(tick=10, channel=2, data=[7, 86]),
   midi.ControlChangeEvent(tick=10, channel=2, data=[7, 85]),
   midi.ControlChangeEvent(tick=10, channel=2, data=[7, 84]),
   midi.ControlChangeEvent(tick=10, channel=2, data=[7, 83]),
   midi.NoteOnEvent(tick=5, channel=2, data=[81, 0]),
   midi.ControlChangeEvent(tick=10, channel=2, data=[7, 83]),
   midi.ControlChangeEvent(tick=10, channel=2, data=[7, 83]),
   midi.ControlChangeEvent(tick=10, channel=2, data=[7, 81]),
   midi.ControlChangeEvent(tick=10, channel=2, data=[7, 81]),
   midi.ControlChangeEvent(tick=15, channel=2, data=[7, 81]),
   midi.ControlChangeEvent(tick=145, channel=2, data=[7, 81]),
   midi.ControlChangeEvent(tick=10, channel=2, data=[7, 81]),
   midi.ControlChangeEvent(tick=15, channel=2, data=[7, 83]),
   midi.ControlChangeEvent(tick=10, channel=2, data=[7, 83]),
   midi.ControlChangeEvent(tick=10, channel=2, data=[7, 84]),
   midi.ControlChangeEvent(tick=10, channel=2, data=[7, 85]),
   midi.ControlChangeEvent(tick=10, channel=2, data=[7, 86]),
   midi.ControlChangeEvent(tick=15, channel=2, data=[7, 87]),
   midi.NoteOnEvent(tick=5, channel=2, data=[82, 86]),
   midi.ControlChangeEvent(tick=5, channel=2, data=[7, 88]),
   midi.ControlChangeEvent(tick=10, channel=2, data=[7, 89]),
   midi.ControlChangeEvent(tick=15, channel=2, data=[7, 89]),
   midi.ControlChangeEvent(tick=30, channel=2, data=[7, 89]),
   midi.ControlChangeEvent(tick=10, channel=2, data=[7, 88]),
   midi.ControlChangeEvent(tick=10, channel=2, data=[7, 87]),
   midi.ControlChangeEvent(tick=10, channel=2, data=[7, 86]),
   midi.ControlChangeEvent(tick=15, channel=2, data=[7, 85]),
   midi.ControlChangeEvent(tick=10, channel=2, data=[7, 84]),
   midi.NoteOnEvent(tick=5, channel=2, data=[82, 0]),
   midi.NoteOnEvent(tick=0, channel=2, data=[83, 86]),
   midi.ControlChangeEvent(tick=5, channel=2, data=[7, 83]),
   midi.ControlChangeEvent(tick=10, channel=2, data=[7, 83]),
   midi.ControlChangeEvent(tick=10, channel=2, data=[7, 83]),
   midi.ControlChangeEvent(tick=15, channel=2, data=[7, 81]),
   midi.ControlChangeEvent(tick=10, channel=2, data=[7, 81]),
   midi.ControlChangeEvent(tick=10, channel=2, data=[7, 81]),
   midi.ControlChangeEvent(tick=10, channel=2, data=[7, 81]),
   midi.NoteOnEvent(tick=5, channel=2, data=[83, 0]),
   midi.ControlChangeEvent(tick=10, channel=2, data=[7, 81]),
   midi.ControlChangeEvent(tick=15, channel=2, data=[7, 80]),
   midi.ControlChangeEvent(tick=15, channel=2, data=[7, 79]),
   midi.ControlChangeEvent(tick=15, channel=2, data=[7, 79]),
   midi.ControlChangeEvent(tick=75, channel=2, data=[7, 79]),
   midi.ControlChangeEvent(tick=10, channel=2, data=[7, 81]),
   midi.ControlChangeEvent(tick=10, channel=2, data=[7, 81]),
   midi.ControlChangeEvent(tick=10, channel=2, data=[7, 83]),
   midi.ControlChangeEvent(tick=10, channel=2, data=[7, 83]),
   midi.ControlChangeEvent(tick=10, channel=2, data=[7, 83]),
   midi.ControlChangeEvent(tick=10, channel=2, data=[7, 84]),
   midi.ControlChangeEvent(tick=10, channel=2, data=[7, 85]),
   midi.ControlChangeEvent(tick=10, channel=2, data=[7, 86]),
   midi.ControlChangeEvent(tick=10, channel=2, data=[7, 87]),
   midi.ControlChangeEvent(tick=10, channel=2, data=[7, 88]),
   midi.ControlChangeEvent(tick=10, channel=2, data=[7, 89]),
   midi.ControlChangeEvent(tick=10, channel=2, data=[7, 89]),
   midi.ControlChangeEvent(tick=10, channel=2, data=[7, 90]),
   midi.ControlChangeEvent(tick=10, channel=2, data=[7, 90]),
   midi.ControlChangeEvent(tick=10, channel=2, data=[7, 92]),
   midi.NoteOnEvent(tick=5, channel=2, data=[87, 86]),
   midi.ControlChangeEvent(tick=5, channel=2, data=[7, 92]),
   midi.ControlChangeEvent(tick=10, channel=2, data=[7, 94]),
   midi.ControlChangeEvent(tick=10, channel=2, data=[7, 94]),
   midi.ControlChangeEvent(tick=45, channel=2, data=[7, 94]),
   midi.ControlChangeEvent(tick=10, channel=2, data=[7, 96]),
   midi.ControlChangeEvent(tick=25, channel=2, data=[7, 94]),
   midi.ControlChangeEvent(tick=10, channel=2, data=[7, 94]),
   midi.NoteOnEvent(tick=5, channel=2, data=[87, 0]),
   midi.NoteOnEvent(tick=0, channel=2, data=[88, 86]),
   midi.ControlChangeEvent(tick=5, channel=2, data=[7, 93]),
   midi.ControlChangeEvent(tick=5, channel=2, data=[7, 90]),
   midi.ControlChangeEvent(tick=10, channel=2, data=[7, 89]),
   midi.ControlChangeEvent(tick=10, channel=2, data=[7, 89]),
   midi.ControlChangeEvent(tick=10, channel=2, data=[7, 89]),
   midi.ControlChangeEvent(tick=10, channel=2, data=[7, 87]),
   midi.ControlChangeEvent(tick=10, channel=2, data=[7, 87]),
   midi.NoteOnEvent(tick=15, channel=2, data=[88, 0]),
   midi.ControlChangeEvent(tick=0, channel=2, data=[7, 87]),
   midi.ControlChangeEvent(tick=10, channel=2, data=[7, 86]),
   midi.ControlChangeEvent(tick=10, channel=2, data=[7, 85]),
   midi.ControlChangeEvent(tick=1155, channel=2, data=[7, 86]),
   midi.ControlChangeEvent(tick=275, channel=2, data=[7, 86]),
   midi.ControlChangeEvent(tick=15, channel=2, data=[7, 87]),
   midi.ControlChangeEvent(tick=15, channel=2, data=[7, 88]),
   midi.ControlChangeEvent(tick=15, channel=2, data=[7, 90]),
   midi.ControlChangeEvent(tick=15, channel=2, data=[7, 93]),
   midi.ControlChangeEvent(tick=10, channel=2, data=[7, 96]),
   midi.NoteOnEvent(tick=2845, channel=2, data=[84, 97]),
   midi.ControlChangeEvent(tick=150, channel=2, data=[7, 96]),
   midi.NoteOnEvent(tick=10, channel=2, data=[84, 0]),
   midi.NoteOnEvent(tick=0, channel=2, data=[84, 97]),
   midi.ControlChangeEvent(tick=20, channel=2, data=[7, 98]),
   midi.NoteOnEvent(tick=20, channel=2, data=[84, 0]),
   midi.NoteOnEvent(tick=0, channel=2, data=[83, 97]),
   midi.ControlChangeEvent(tick=10, channel=2, data=[7, 99]),
   midi.NoteOnEvent(tick=30, channel=2, data=[83, 0]),
   midi.NoteOnEvent(tick=0, channel=2, data=[79, 97]),
   midi.ControlChangeEvent(tick=0, channel=2, data=[7, 101]),
   midi.ControlChangeEvent(tick=30, channel=2, data=[7, 101]),
   midi.ControlChangeEvent(tick=30, channel=2, data=[7, 102]),
   midi.ControlChangeEvent(tick=30, channel=2, data=[7, 103]),
   midi.ControlChangeEvent(tick=20, channel=2, data=[7, 105]),
   midi.NoteOnEvent(tick=50, channel=2, data=[79, 0]),
   midi.NoteOnEvent(tick=0, channel=2, data=[79, 97]),
   midi.ControlChangeEvent(tick=0, channel=2, data=[7, 106]),
   midi.ControlChangeEvent(tick=35, channel=2, data=[7, 107]),
   midi.NoteOnEvent(tick=5, channel=2, data=[79, 0]),
   midi.NoteOnEvent(tick=0, channel=2, data=[83, 97]),
   midi.ControlChangeEvent(tick=35, channel=2, data=[7, 108]),
   midi.NoteOnEvent(tick=5, channel=2, data=[83, 0]),
   midi.NoteOnEvent(tick=0, channel=2, data=[84, 97]),
   midi.NoteOnEvent(tick=40, channel=2, data=[84, 0]),
   midi.NoteOnEvent(tick=0, channel=2, data=[84, 97]),
   midi.NoteOnEvent(tick=40, channel=2, data=[84, 0]),
   midi.NoteOnEvent(tick=0, channel=2, data=[83, 97]),
   midi.NoteOnEvent(tick=40, channel=2, data=[83, 0]),
   midi.NoteOnEvent(tick=0, channel=2, data=[79, 97]),
   midi.NoteOnEvent(tick=40, channel=2, data=[79, 0]),
   midi.NoteOnEvent(tick=0, channel=2, data=[79, 97]),
   midi.ControlChangeEvent(tick=10, channel=2, data=[7, 109]),
   midi.NoteOnEvent(tick=30, channel=2, data=[79, 0]),
   midi.NoteOnEvent(tick=0, channel=2, data=[83, 97]),
   midi.ControlChangeEvent(tick=20, channel=2, data=[7, 109]),
   midi.NoteOnEvent(tick=20, channel=2, data=[83, 0]),
   midi.NoteOnEvent(tick=0, channel=2, data=[84, 97]),
   midi.NoteOnEvent(tick=40, channel=2, data=[84, 0]),
   midi.NoteOnEvent(tick=0, channel=2, data=[84, 97]),
   midi.NoteOnEvent(tick=40, channel=2, data=[84, 0]),
   midi.NoteOnEvent(tick=0, channel=2, data=[83, 97]),
   midi.NoteOnEvent(tick=40, channel=2, data=[83, 0]),
   midi.NoteOnEvent(tick=0, channel=2, data=[79, 97]),
   midi.NoteOnEvent(tick=40, channel=2, data=[79, 0]),
   midi.NoteOnEvent(tick=0, channel=2, data=[79, 97]),
   midi.ControlChangeEvent(tick=0, channel=2, data=[7, 109]),
   midi.NoteOnEvent(tick=40, channel=2, data=[79, 0]),
   midi.NoteOnEvent(tick=0, channel=2, data=[83, 97]),
   midi.NoteOnEvent(tick=40, channel=2, data=[83, 0]),
   midi.NoteOnEvent(tick=0, channel=2, data=[79, 86]),
   midi.NoteOnEvent(tick=0, channel=2, data=[84, 86]),
   midi.ControlChangeEvent(tick=205, channel=2, data=[7, 110]),
   midi.ControlChangeEvent(tick=100, channel=2, data=[7, 109]),
   midi.ControlChangeEvent(tick=30, channel=2, data=[7, 107]),
   midi.ControlChangeEvent(tick=35, channel=2, data=[7, 105]),
   midi.ControlChangeEvent(tick=20, channel=2, data=[7, 104]),
   midi.ControlChangeEvent(tick=30, channel=2, data=[7, 103]),
   midi.ControlChangeEvent(tick=30, channel=2, data=[7, 101]),
   midi.NoteOnEvent(tick=30, channel=2, data=[79, 0]),
   midi.NoteOnEvent(tick=0, channel=2, data=[81, 86]),
   midi.ControlChangeEvent(tick=0, channel=2, data=[7, 99]),
   midi.ControlChangeEvent(tick=30, channel=2, data=[7, 98]),
   midi.ControlChangeEvent(tick=30, channel=2, data=[7, 96]),
   midi.ControlChangeEvent(tick=40, channel=2, data=[7, 96]),
   midi.ControlChangeEvent(tick=50, channel=2, data=[7, 96]),
   midi.ControlChangeEvent(tick=30, channel=2, data=[7, 99]),
   midi.ControlChangeEvent(tick=30, channel=2, data=[7, 102]),
   midi.ControlChangeEvent(tick=30, channel=2, data=[7, 107]),
   midi.ControlChangeEvent(tick=30, channel=2, data=[7, 110]),
   midi.ControlChangeEvent(tick=30, channel=2, data=[7, 112]),
   midi.ControlChangeEvent(tick=30, channel=2, data=[7, 115]),
   midi.ControlChangeEvent(tick=25, channel=2, data=[7, 118]),
   midi.ControlChangeEvent(tick=20, channel=2, data=[7, 120]),
   midi.ControlChangeEvent(tick=15, channel=2, data=[7, 120]),
   midi.ControlChangeEvent(tick=10, channel=2, data=[7, 121]),
   midi.NoteOnEvent(tick=70, channel=2, data=[81, 0]),
   midi.NoteOnEvent(tick=0, channel=2, data=[84, 0]),
   midi.NoteOnEvent(tick=10, channel=2, data=[86, 97]),
   midi.NoteOnEvent(tick=160, channel=2, data=[86, 0]),
   midi.NoteOnEvent(tick=0, channel=2, data=[86, 97]),
   midi.NoteOnEvent(tick=40, channel=2, data=[86, 0]),
   midi.NoteOnEvent(tick=0, channel=2, data=[85, 97]),
   midi.ControlChangeEvent(tick=0, channel=2, data=[7, 118]),
   midi.ControlChangeEvent(tick=30, channel=2, data=[7, 116]),
   midi.NoteOnEvent(tick=10, channel=2, data=[85, 0]),
   midi.NoteOnEvent(tick=0, channel=2, data=[81, 97]),
   midi.ControlChangeEvent(tick=20, channel=2, data=[7, 112]),
   midi.ControlChangeEvent(tick=30, channel=2, data=[7, 110]),
   midi.ControlChangeEvent(tick=30, channel=2, data=[7, 109]),
   midi.ControlChangeEvent(tick=30, channel=2, data=[7, 109]),
   midi.ControlChangeEvent(tick=30, channel=2, data=[7, 107]),
   midi.NoteOnEvent(tick=20, channel=2, data=[81, 0]),
   midi.NoteOnEvent(tick=0, channel=2, data=[81, 97]),
   midi.NoteOnEvent(tick=40, channel=2, data=[81, 0]),
   midi.NoteOnEvent(tick=0, channel=2, data=[85, 97]),
   midi.ControlChangeEvent(tick=30, channel=2, data=[7, 108]),
   midi.NoteOnEvent(tick=10, channel=2, data=[85, 0]),
   midi.NoteOnEvent(tick=0, channel=2, data=[86, 97]),
   midi.ControlChangeEvent(tick=20, channel=2, data=[7, 115]),
   midi.NoteOnEvent(tick=20, channel=2, data=[86, 0]),
   midi.NoteOnEvent(tick=0, channel=2, data=[86, 97]),
   midi.ControlChangeEvent(tick=10, channel=2, data=[7, 121]),
   midi.NoteOnEvent(tick=30, channel=2, data=[86, 0]),
   midi.NoteOnEvent(tick=0, channel=2, data=[85, 97]),
   midi.ControlChangeEvent(tick=20, channel=2, data=[7, 120]),
   midi.NoteOnEvent(tick=20, channel=2, data=[85, 0]),
   midi.NoteOnEvent(tick=0, channel=2, data=[81, 97]),
   midi.ControlChangeEvent(tick=10, channel=2, data=[7, 116]),
   midi.NoteOnEvent(tick=30, channel=2, data=[81, 0]),
   midi.NoteOnEvent(tick=0, channel=2, data=[81, 97]),
   midi.ControlChangeEvent(tick=0, channel=2, data=[7, 110]),
   midi.ControlChangeEvent(tick=30, channel=2, data=[7, 109]),
   midi.NoteOnEvent(tick=10, channel=2, data=[81, 0]),
   midi.NoteOnEvent(tick=0, channel=2, data=[85, 97]),
   midi.ControlChangeEvent(tick=20, channel=2, data=[7, 105]),
   midi.NoteOnEvent(tick=20, channel=2, data=[85, 0]),
   midi.NoteOnEvent(tick=0, channel=2, data=[86, 97]),
   midi.NoteOnEvent(tick=40, channel=2, data=[86, 0]),
   midi.NoteOnEvent(tick=0, channel=2, data=[86, 97]),
   midi.ControlChangeEvent(tick=35, channel=2, data=[7, 104]),
   midi.NoteOnEvent(tick=5, channel=2, data=[86, 0]),
   midi.NoteOnEvent(tick=0, channel=2, data=[85, 97]),
   midi.ControlChangeEvent(tick=25, channel=2, data=[7, 101]),
   midi.NoteOnEvent(tick=15, channel=2, data=[85, 0]),
   midi.NoteOnEvent(tick=0, channel=2, data=[81, 97]),
   midi.ControlChangeEvent(tick=15, channel=2, data=[7, 101]),
   midi.NoteOnEvent(tick=25, channel=2, data=[81, 0]),
   midi.NoteOnEvent(tick=0, channel=2, data=[81, 97]),
   midi.ControlChangeEvent(tick=15, channel=2, data=[7, 100]),
   midi.NoteOnEvent(tick=25, channel=2, data=[81, 0]),
   midi.NoteOnEvent(tick=0, channel=2, data=[85, 97]),
   midi.NoteOnEvent(tick=40, channel=2, data=[85, 0]),
   midi.NoteOnEvent(tick=0, channel=2, data=[81, 86]),
   midi.NoteOnEvent(tick=0, channel=2, data=[86, 86]),
   midi.ControlChangeEvent(tick=40, channel=2, data=[7, 105]),
   midi.ControlChangeEvent(tick=30, channel=2, data=[7, 116]),
   midi.ControlChangeEvent(tick=30, channel=2, data=[7, 112]),
   midi.ControlChangeEvent(tick=30, channel=2, data=[7, 107]),
   midi.ControlChangeEvent(tick=30, channel=2, data=[7, 102]),
   midi.ControlChangeEvent(tick=30, channel=2, data=[7, 99]),
   midi.ControlChangeEvent(tick=30, channel=2, data=[7, 96]),
   midi.ControlChangeEvent(tick=30, channel=2, data=[7, 94]),
   midi.ControlChangeEvent(tick=30, channel=2, data=[7, 94]),
   midi.ControlChangeEvent(tick=145, channel=2, data=[7, 94]),
   midi.ControlChangeEvent(tick=30, channel=2, data=[7, 96]),
   midi.NoteOnEvent(tick=25, channel=2, data=[81, 0]),
   midi.NoteOnEvent(tick=0, channel=2, data=[79, 86]),
   midi.ControlChangeEvent(tick=5, channel=2, data=[7, 96]),
   midi.ControlChangeEvent(tick=30, channel=2, data=[7, 99]),
   midi.ControlChangeEvent(tick=30, channel=2, data=[7, 101]),
   midi.ControlChangeEvent(tick=30, channel=2, data=[7, 102]),
   midi.ControlChangeEvent(tick=30, channel=2, data=[7, 104]),
   midi.ControlChangeEvent(tick=30, channel=2, data=[7, 107]),
   midi.ControlChangeEvent(tick=30, channel=2, data=[7, 109]),
   midi.ControlChangeEvent(tick=30, channel=2, data=[7, 110]),
   midi.NoteOnEvent(tick=15, channel=2, data=[79, 0]),
   midi.NoteOnEvent(tick=10, channel=2, data=[83, 86]),
   midi.ControlChangeEvent(tick=5, channel=2, data=[7, 112]),
   midi.ControlChangeEvent(tick=30, channel=2, data=[7, 115]),
   midi.ControlChangeEvent(tick=30, channel=2, data=[7, 116]),
   midi.ControlChangeEvent(tick=30, channel=2, data=[7, 118]),
   midi.ControlChangeEvent(tick=25, channel=2, data=[7, 120]),
   midi.ControlChangeEvent(tick=15, channel=2, data=[7, 121]),
   midi.NoteOnEvent(tick=95, channel=2, data=[86, 0]),
   midi.NoteOnEvent(tick=10, channel=2, data=[88, 97]),
   midi.ControlChangeEvent(tick=180, channel=2, data=[7, 120]),
   midi.ControlChangeEvent(tick=30, channel=2, data=[7, 116]),
   midi.NoteOnEvent(tick=20, channel=2, data=[83, 0]),
   midi.NoteOnEvent(tick=10, channel=2, data=[84, 97]),
   midi.ControlChangeEvent(tick=0, channel=2, data=[7, 114]),
   midi.ControlChangeEvent(tick=30, channel=2, data=[7, 111]),
   midi.ControlChangeEvent(tick=30, channel=2, data=[7, 109]),
   midi.ControlChangeEvent(tick=30, channel=2, data=[7, 107]),
   midi.ControlChangeEvent(tick=30, channel=2, data=[7, 103]),
   midi.ControlChangeEvent(tick=30, channel=2, data=[7, 101]),
   midi.ControlChangeEvent(tick=30, channel=2, data=[7, 100]),
   midi.ControlChangeEvent(tick=30, channel=2, data=[7, 98]),
   midi.ControlChangeEvent(tick=30, channel=2, data=[7, 96]),
   midi.ControlChangeEvent(tick=30, channel=2, data=[7, 96]),
   midi.ControlChangeEvent(tick=30, channel=2, data=[7, 94]),
   midi.ControlChangeEvent(tick=30, channel=2, data=[7, 93]),
   midi.ControlChangeEvent(tick=25, channel=2, data=[7, 92]),
   midi.ControlChangeEvent(tick=35, channel=2, data=[7, 90]),
   midi.ControlChangeEvent(tick=50, channel=2, data=[7, 88]),
   midi.ControlChangeEvent(tick=30, channel=2, data=[7, 87]),
   midi.NoteOnEvent(tick=10, channel=2, data=[88, 0]),
   midi.NoteOnEvent(tick=0, channel=2, data=[89, 97]),
   midi.ControlChangeEvent(tick=120, channel=2, data=[7, 88]),
   midi.ControlChangeEvent(tick=30, channel=2, data=[7, 92]),
   midi.ControlChangeEvent(tick=30, channel=2, data=[7, 96]),
   midi.ControlChangeEvent(tick=30, channel=2, data=[7, 98]),
   midi.NoteOnEvent(tick=20, channel=2, data=[89, 0]),
   midi.NoteOnEvent(tick=0, channel=2, data=[84, 0]),
   midi.ControlChangeEvent(tick=10, channel=2, data=[7, 101]),
   midi.ControlChangeEvent(tick=30, channel=2, data=[7, 106]),
   midi.ControlChangeEvent(tick=30, channel=2, data=[7, 110]),
   midi.ControlChangeEvent(tick=30, channel=2, data=[7, 114]),
   midi.ControlChangeEvent(tick=45, channel=2, data=[7, 112]),
   midi.ControlChangeEvent(tick=30, channel=2, data=[7, 110]),
   midi.ControlChangeEvent(tick=30, channel=2, data=[7, 108]),
   midi.ControlChangeEvent(tick=30, channel=2, data=[7, 107]),
   midi.NoteOnEvent(tick=15, channel=2, data=[89, 102]),
   midi.NoteOnEvent(tick=0, channel=2, data=[84, 102]),
   midi.NoteOnEvent(tick=60, channel=2, data=[84, 0]),
   midi.NoteOnEvent(tick=0, channel=2, data=[89, 0]),
   midi.ControlChangeEvent(tick=340, channel=2, data=[7, 106]),
   midi.ControlChangeEvent(tick=20, channel=2, data=[7, 105]),
   midi.NoteOnEvent(tick=60, channel=2, data=[84, 102]),
   midi.NoteOnEvent(tick=0, channel=2, data=[89, 102]),
   midi.ControlChangeEvent(tick=5, channel=2, data=[7, 104]),
   midi.ControlChangeEvent(tick=10, channel=2, data=[7, 103]),
   midi.NoteOnEvent(tick=45, channel=2, data=[89, 0]),
   midi.NoteOnEvent(tick=0, channel=2, data=[84, 0]),
   midi.ControlChangeEvent(tick=5, channel=2, data=[7, 102]),
   midi.ControlChangeEvent(tick=40, channel=2, data=[7, 102]),
   midi.ControlChangeEvent(tick=40, channel=2, data=[7, 101]),
   midi.ControlChangeEvent(tick=25, channel=2, data=[7, 101]),
   midi.ControlChangeEvent(tick=35, channel=2, data=[7, 100]),
   midi.ControlChangeEvent(tick=15, channel=2, data=[7, 99]),
   midi.ControlChangeEvent(tick=25, channel=2, data=[7, 99]),
   midi.ControlChangeEvent(tick=45, channel=2, data=[7, 98]),
   midi.ControlChangeEvent(tick=30, channel=2, data=[7, 98]),
   midi.ControlChangeEvent(tick=25, channel=2, data=[7, 96]),
   midi.NoteOnEvent(tick=15, channel=2, data=[84, 102]),
   midi.NoteOnEvent(tick=0, channel=2, data=[89, 102]),
   midi.ControlChangeEvent(tick=15, channel=2, data=[7, 96]),
   midi.NoteOnEvent(tick=45, channel=2, data=[89, 0]),
   midi.NoteOnEvent(tick=0, channel=2, data=[84, 0]),
   midi.NoteOnEvent(tick=180, channel=2, data=[84, 102]),
   midi.NoteOnEvent(tick=0, channel=2, data=[88, 102]),
   midi.ControlChangeEvent(tick=55, channel=2, data=[7, 96]),
   midi.NoteOnEvent(tick=5, channel=2, data=[88, 0]),
   midi.NoteOnEvent(tick=0, channel=2, data=[84, 0]),
   midi.ControlChangeEvent(tick=140, channel=2, data=[7, 96]),
   midi.ControlChangeEvent(tick=25, channel=2, data=[7, 94]),
   midi.NoteOnEvent(tick=15, channel=2, data=[84, 102]),
   midi.NoteOnEvent(tick=0, channel=2, data=[87, 102]),
   midi.ControlChangeEvent(tick=50, channel=2, data=[7, 94]),
   midi.NoteOnEvent(tick=10, channel=2, data=[87, 0]),
   midi.NoteOnEvent(tick=0, channel=2, data=[84, 0]),
   midi.ControlChangeEvent(tick=15, channel=2, data=[7, 94]),
   midi.NoteOnEvent(tick=165, channel=2, data=[88, 102]),
   midi.NoteOnEvent(tick=0, channel=2, data=[84, 102]),
   midi.NoteOnEvent(tick=60, channel=2, data=[84, 0]),
   midi.NoteOnEvent(tick=0, channel=2, data=[88, 0]),
   midi.ControlChangeEvent(tick=70, channel=2, data=[7, 93]),
   midi.ControlChangeEvent(tick=20, channel=2, data=[7, 92]),
   midi.ControlChangeEvent(tick=25, channel=2, data=[7, 92]),
   midi.ControlChangeEvent(tick=30, channel=2, data=[7, 90]),
   midi.ControlChangeEvent(tick=35, channel=2, data=[7, 90]),
   midi.ControlChangeEvent(tick=50, channel=2, data=[7, 90]),
   midi.ControlChangeEvent(tick=25, channel=2, data=[7, 90]),
   midi.ControlChangeEvent(tick=20, channel=2, data=[7, 89]),
   midi.ControlChangeEvent(tick=15, channel=2, data=[7, 88]),
   midi.ControlChangeEvent(tick=20, channel=2, data=[7, 87]),
   midi.ControlChangeEvent(tick=15, channel=2, data=[7, 87]),
   midi.ControlChangeEvent(tick=15, channel=2, data=[7, 86]),
   midi.ControlChangeEvent(tick=20, channel=2, data=[7, 84]),
   midi.ControlChangeEvent(tick=15, channel=2, data=[7, 83]),
   midi.ControlChangeEvent(tick=15, channel=2, data=[7, 83]),
   midi.ControlChangeEvent(tick=20, channel=2, data=[7, 83]),
   midi.ControlChangeEvent(tick=15, channel=2, data=[7, 83]),
   midi.ControlChangeEvent(tick=25, channel=2, data=[7, 81]),
   midi.ControlChangeEvent(tick=955, channel=2, data=[64, 0]),
   midi.ControlChangeEvent(tick=0, channel=2, data=[120, 0]),
   midi.EndOfTrackEvent(tick=0, data=[])]),
 midi.Track(\
  [midi.PortEvent(tick=0, data=[0]),
   midi.ProgramChangeEvent(tick=0, channel=3, data=[68]),
   midi.ControlChangeEvent(tick=0, channel=3, data=[7, 96]),
   midi.ControlChangeEvent(tick=0, channel=3, data=[10, 50]),
   midi.ControlChangeEvent(tick=4, channel=3, data=[64, 0]),
   midi.ControlChangeEvent(tick=0, channel=3, data=[91, 122]),
   midi.ControlChangeEvent(tick=600, channel=3, data=[7, 104]),
   midi.ControlChangeEvent(tick=2825, channel=3, data=[7, 78]),
   midi.ControlChangeEvent(tick=10, channel=3, data=[7, 77]),
   midi.ControlChangeEvent(tick=10, channel=3, data=[7, 77]),
   midi.ControlChangeEvent(tick=15, channel=3, data=[7, 76]),
   midi.ControlChangeEvent(tick=10, channel=3, data=[7, 76]),
   midi.ControlChangeEvent(tick=10, channel=3, data=[7, 76]),
   midi.ControlChangeEvent(tick=10, channel=3, data=[7, 75]),
   midi.ControlChangeEvent(tick=70, channel=3, data=[7, 76]),
   midi.ControlChangeEvent(tick=5, channel=3, data=[7, 76]),
   midi.ControlChangeEvent(tick=5, channel=3, data=[7, 76]),
   midi.ControlChangeEvent(tick=10, channel=3, data=[7, 77]),
   midi.ControlChangeEvent(tick=5, channel=3, data=[7, 77]),
   midi.ControlChangeEvent(tick=15, channel=3, data=[7, 78]),
   midi.ControlChangeEvent(tick=20, channel=3, data=[7, 79]),
   midi.ControlChangeEvent(tick=255, channel=3, data=[7, 79]),
   midi.ControlChangeEvent(tick=10, channel=3, data=[7, 80]),
   midi.ControlChangeEvent(tick=5, channel=3, data=[7, 81]),
   midi.ControlChangeEvent(tick=5, channel=3, data=[7, 81]),
   midi.ControlChangeEvent(tick=5, channel=3, data=[7, 81]),
   midi.ControlChangeEvent(tick=5, channel=3, data=[7, 81]),
   midi.ControlChangeEvent(tick=5, channel=3, data=[7, 81]),
   midi.ControlChangeEvent(tick=20, channel=3, data=[7, 83]),
   midi.NoteOnEvent(tick=30, channel=3, data=[69, 81]),
   midi.NoteOnEvent(tick=0, channel=3, data=[76, 97]),
   midi.ControlChangeEvent(tick=10, channel=3, data=[7, 83]),
   midi.ControlChangeEvent(tick=40, channel=3, data=[7, 83]),
   midi.ControlChangeEvent(tick=15, channel=3, data=[7, 81]),
   midi.ControlChangeEvent(tick=15, channel=3, data=[7, 81]),
   midi.NoteOnEvent(tick=5, channel=3, data=[76, 0]),
   midi.NoteOnEvent(tick=0, channel=3, data=[69, 0]),
   midi.ControlChangeEvent(tick=5, channel=3, data=[7, 81]),
   midi.ControlChangeEvent(tick=15, channel=3, data=[7, 79]),
   midi.ControlChangeEvent(tick=10, channel=3, data=[7, 79]),
   midi.NoteOnEvent(tick=5, channel=3, data=[69, 81]),
   midi.NoteOnEvent(tick=0, channel=3, data=[77, 97]),
   midi.ControlChangeEvent(tick=5, channel=3, data=[7, 78]),
   midi.ControlChangeEvent(tick=20, channel=3, data=[7, 77]),
   midi.ControlChangeEvent(tick=40, channel=3, data=[7, 77]),
   midi.NoteOnEvent(tick=10, channel=3, data=[77, 0]),
   midi.NoteOnEvent(tick=0, channel=3, data=[69, 0]),
   midi.NoteOnEvent(tick=20, channel=3, data=[69, 81]),
   midi.NoteOnEvent(tick=0, channel=3, data=[79, 107]),
   midi.NoteOnEvent(tick=25, channel=3, data=[79, 0]),
   midi.NoteOnEvent(tick=0, channel=3, data=[69, 0]),
   midi.NoteOnEvent(tick=0, channel=3, data=[69, 81]),
   midi.NoteOnEvent(tick=0, channel=3, data=[77, 102]),
   midi.ControlChangeEvent(tick=20, channel=3, data=[7, 76]),
   midi.NoteOnEvent(tick=5, channel=3, data=[77, 0]),
   midi.NoteOnEvent(tick=0, channel=3, data=[69, 0]),
   midi.ControlChangeEvent(tick=15, channel=3, data=[7, 76]),
   midi.NoteOnEvent(tick=20, channel=3, data=[69, 81]),
   midi.NoteOnEvent(tick=0, channel=3, data=[76, 97]),
   midi.ControlChangeEvent(tick=0, channel=3, data=[7, 76]),
   midi.ControlChangeEvent(tick=15, channel=3, data=[7, 75]),
   midi.ControlChangeEvent(tick=20, channel=3, data=[7, 75]),
   midi.ControlChangeEvent(tick=20, channel=3, data=[7, 75]),
   midi.NoteOnEvent(tick=20, channel=3, data=[76, 0]),
   midi.NoteOnEvent(tick=0, channel=3, data=[69, 0]),
   midi.ControlChangeEvent(tick=20, channel=3, data=[7, 74]),
   midi.ControlChangeEvent(tick=35, channel=3, data=[7, 75]),
   midi.ControlChangeEvent(tick=15, channel=3, data=[7, 75]),
   midi.ControlChangeEvent(tick=10, channel=3, data=[7, 76]),
   midi.ControlChangeEvent(tick=15, channel=3, data=[7, 77]),
   midi.NoteOnEvent(tick=10, channel=3, data=[69, 81]),
   midi.NoteOnEvent(tick=0, channel=3, data=[76, 81]),
   midi.ControlChangeEvent(tick=0, channel=3, data=[7, 79]),
   midi.ControlChangeEvent(tick=15, channel=3, data=[7, 81]),
   midi.ControlChangeEvent(tick=10, channel=3, data=[7, 81]),
   midi.ControlChangeEvent(tick=10, channel=3, data=[7, 83]),
   midi.ControlChangeEvent(tick=15, channel=3, data=[7, 83]),
   midi.ControlChangeEvent(tick=15, channel=3, data=[7, 83]),
   midi.NoteOnEvent(tick=5, channel=3, data=[76, 0]),
   midi.NoteOnEvent(tick=0, channel=3, data=[69, 0]),
   midi.ControlChangeEvent(tick=10, channel=3, data=[7, 81]),
   midi.ControlChangeEvent(tick=15, channel=3, data=[7, 81]),
   midi.NoteOnEvent(tick=0, channel=3, data=[69, 81]),
   midi.NoteOnEvent(tick=0, channel=3, data=[77, 81]),
   midi.ControlChangeEvent(tick=15, channel=3, data=[7, 81]),
   midi.NoteOnEvent(tick=10, channel=3, data=[77, 0]),
   midi.NoteOnEvent(tick=0, channel=3, data=[69, 0]),
   midi.NoteOnEvent(tick=0, channel=3, data=[69, 81]),
   midi.NoteOnEvent(tick=0, channel=3, data=[77, 81]),
   midi.ControlChangeEvent(tick=5, channel=3, data=[7, 80]),
   midi.ControlChangeEvent(tick=15, channel=3, data=[7, 79]),
   midi.NoteOnEvent(tick=10, channel=3, data=[77, 0]),
   midi.NoteOnEvent(tick=0, channel=3, data=[69, 0]),
   midi.ControlChangeEvent(tick=5, channel=3, data=[7, 79]),
   midi.ControlChangeEvent(tick=20, channel=3, data=[7, 78]),
   midi.NoteOnEvent(tick=5, channel=3, data=[69, 81]),
   midi.NoteOnEvent(tick=0, channel=3, data=[79, 81]),
   midi.ControlChangeEvent(tick=10, channel=3, data=[7, 77]),
   midi.NoteOnEvent(tick=20, channel=3, data=[79, 0]),
   midi.NoteOnEvent(tick=0, channel=3, data=[69, 0]),
   midi.ControlChangeEvent(tick=5, channel=3, data=[7, 77]),
   midi.NoteOnEvent(tick=25, channel=3, data=[69, 81]),
   midi.NoteOnEvent(tick=0, channel=3, data=[76, 81]),
   midi.ControlChangeEvent(tick=25, channel=3, data=[7, 76]),
   midi.NoteOnEvent(tick=90, channel=3, data=[76, 0]),
   midi.NoteOnEvent(tick=0, channel=3, data=[69, 0]),
   midi.ControlChangeEvent(tick=55, channel=3, data=[7, 76]),
   midi.ControlChangeEvent(tick=35, channel=3, data=[7, 76]),
   midi.ControlChangeEvent(tick=15, channel=3, data=[7, 77]),
   midi.ControlChangeEvent(tick=10, channel=3, data=[7, 78]),
   midi.NoteOnEvent(tick=10, channel=3, data=[72, 81]),
   midi.NoteOnEvent(tick=0, channel=3, data=[79, 81]),
   midi.ControlChangeEvent(tick=5, channel=3, data=[7, 80]),
   midi.ControlChangeEvent(tick=10, channel=3, data=[7, 81]),
   midi.ControlChangeEvent(tick=10, channel=3, data=[7, 81]),
   midi.ControlChangeEvent(tick=10, channel=3, data=[7, 81]),
   midi.ControlChangeEvent(tick=10, channel=3, data=[7, 83]),
   midi.ControlChangeEvent(tick=10, channel=3, data=[7, 83]),
   midi.ControlChangeEvent(tick=15, channel=3, data=[7, 83]),
   midi.ControlChangeEvent(tick=15, channel=3, data=[7, 84]),
   midi.NoteOnEvent(tick=5, channel=3, data=[79, 0]),
   midi.NoteOnEvent(tick=0, channel=3, data=[72, 0]),
   midi.ControlChangeEvent(tick=10, channel=3, data=[7, 84]),
   midi.NoteOnEvent(tick=20, channel=3, data=[72, 81]),
   midi.NoteOnEvent(tick=0, channel=3, data=[81, 81]),
   midi.ControlChangeEvent(tick=15, channel=3, data=[7, 84]),
   midi.ControlChangeEvent(tick=15, channel=3, data=[7, 83]),
   midi.ControlChangeEvent(tick=15, channel=3, data=[7, 83]),
   midi.ControlChangeEvent(tick=10, channel=3, data=[7, 83]),
   midi.ControlChangeEvent(tick=15, channel=3, data=[7, 83]),
   midi.ControlChangeEvent(tick=10, channel=3, data=[7, 81]),
   midi.NoteOnEvent(tick=5, channel=3, data=[81, 0]),
   midi.NoteOnEvent(tick=0, channel=3, data=[72, 0]),
   midi.ControlChangeEvent(tick=10, channel=3, data=[7, 81]),
   midi.NoteOnEvent(tick=0, channel=3, data=[72, 81]),
   midi.NoteOnEvent(tick=0, channel=3, data=[83, 81]),
   midi.ControlChangeEvent(tick=15, channel=3, data=[7, 81]),
   midi.NoteOnEvent(tick=10, channel=3, data=[83, 0]),
   midi.NoteOnEvent(tick=0, channel=3, data=[72, 0]),
   midi.NoteOnEvent(tick=0, channel=3, data=[72, 81]),
   midi.NoteOnEvent(tick=0, channel=3, data=[81, 81]),
   midi.ControlChangeEvent(tick=0, channel=3, data=[7, 80]),
   midi.ControlChangeEvent(tick=15, channel=3, data=[7, 79]),
   midi.NoteOnEvent(tick=15, channel=3, data=[81, 0]),
   midi.NoteOnEvent(tick=0, channel=3, data=[72, 0]),
   midi.ControlChangeEvent(tick=0, channel=3, data=[7, 79]),
   midi.ControlChangeEvent(tick=30, channel=3, data=[7, 78]),
   midi.NoteOnEvent(tick=0, channel=3, data=[72, 81]),
   midi.NoteOnEvent(tick=0, channel=3, data=[79, 81]),
   midi.ControlChangeEvent(tick=25, channel=3, data=[7, 77]),
   midi.ControlChangeEvent(tick=20, channel=3, data=[7, 77]),
   midi.NoteOnEvent(tick=30, channel=3, data=[79, 0]),
   midi.NoteOnEvent(tick=0, channel=3, data=[72, 0]),
   midi.ControlChangeEvent(tick=0, channel=3, data=[7, 76]),
   midi.ControlChangeEvent(tick=20, channel=3, data=[7, 76]),
   midi.ControlChangeEvent(tick=60, channel=3, data=[7, 77]),
   midi.ControlChangeEvent(tick=15, channel=3, data=[7, 77]),
   midi.NoteOnEvent(tick=10, channel=3, data=[72, 81]),
   midi.NoteOnEvent(tick=0, channel=3, data=[79, 81]),
   midi.ControlChangeEvent(tick=0, channel=3, data=[7, 79]),
   midi.ControlChangeEvent(tick=15, channel=3, data=[7, 81]),
   midi.ControlChangeEvent(tick=10, channel=3, data=[7, 81]),
   midi.ControlChangeEvent(tick=15, channel=3, data=[7, 81]),
   midi.ControlChangeEvent(tick=10, channel=3, data=[7, 83]),
   midi.ControlChangeEvent(tick=15, channel=3, data=[7, 83]),
   midi.NoteOnEvent(tick=5, channel=3, data=[79, 0]),
   midi.NoteOnEvent(tick=0, channel=3, data=[72, 0]),
   midi.ControlChangeEvent(tick=5, channel=3, data=[7, 84]),
   midi.ControlChangeEvent(tick=15, channel=3, data=[7, 85]),
   midi.NoteOnEvent(tick=5, channel=3, data=[72, 81]),
   midi.NoteOnEvent(tick=0, channel=3, data=[81, 81]),
   midi.NoteOnEvent(tick=25, channel=3, data=[81, 0]),
   midi.NoteOnEvent(tick=0, channel=3, data=[72, 0]),
   midi.NoteOnEvent(tick=0, channel=3, data=[72, 81]),
   midi.NoteOnEvent(tick=0, channel=3, data=[81, 81]),
   midi.ControlChangeEvent(tick=5, channel=3, data=[7, 84]),
   midi.ControlChangeEvent(tick=10, channel=3, data=[7, 83]),
   midi.NoteOnEvent(tick=15, channel=3, data=[81, 0]),
   midi.NoteOnEvent(tick=0, channel=3, data=[72, 0]),
   midi.ControlChangeEvent(tick=0, channel=3, data=[7, 81]),
   midi.ControlChangeEvent(tick=10, channel=3, data=[7, 81]),
   midi.ControlChangeEvent(tick=15, channel=3, data=[7, 79]),
   midi.NoteOnEvent(tick=5, channel=3, data=[72, 81]),
   midi.NoteOnEvent(tick=0, channel=3, data=[83, 81]),
   midi.ControlChangeEvent(tick=5, channel=3, data=[7, 78]),
   midi.ControlChangeEvent(tick=15, channel=3, data=[7, 77]),
   midi.NoteOnEvent(tick=10, channel=3, data=[83, 0]),
   midi.NoteOnEvent(tick=0, channel=3, data=[72, 0]),
   midi.ControlChangeEvent(tick=0, channel=3, data=[7, 76]),
   midi.ControlChangeEvent(tick=15, channel=3, data=[7, 76]),
   midi.ControlChangeEvent(tick=10, channel=3, data=[7, 75]),
   midi.NoteOnEvent(tick=5, channel=3, data=[72, 81]),
   midi.NoteOnEvent(tick=0, channel=3, data=[79, 81]),
   midi.ControlChangeEvent(tick=5, channel=3, data=[7, 75]),
   midi.ControlChangeEvent(tick=15, channel=3, data=[7, 74]),
   midi.ControlChangeEvent(tick=10, channel=3, data=[7, 73]),
   midi.ControlChangeEvent(tick=15, channel=3, data=[7, 73]),
   midi.NoteOnEvent(tick=70, channel=3, data=[79, 0]),
   midi.NoteOnEvent(tick=0, channel=3, data=[72, 0]),
   midi.ControlChangeEvent(tick=1460, channel=3, data=[7, 73]),
   midi.ControlChangeEvent(tick=15, channel=3, data=[7, 74]),
   midi.ControlChangeEvent(tick=20, channel=3, data=[7, 75]),
   midi.ControlChangeEvent(tick=15, channel=3, data=[7, 75]),
   midi.ControlChangeEvent(tick=15, channel=3, data=[7, 75]),
   midi.ControlChangeEvent(tick=25, channel=3, data=[7, 76]),
   midi.ControlChangeEvent(tick=15, channel=3, data=[7, 76]),
   midi.ControlChangeEvent(tick=15, channel=3, data=[7, 76]),
   midi.ControlChangeEvent(tick=10, channel=3, data=[7, 77]),
   midi.ControlChangeEvent(tick=50, channel=3, data=[7, 76]),
   midi.ControlChangeEvent(tick=15, channel=3, data=[7, 76]),
   midi.ControlChangeEvent(tick=15, channel=3, data=[7, 75]),
   midi.ControlChangeEvent(tick=10, channel=3, data=[7, 74]),
   midi.ControlChangeEvent(tick=15, channel=3, data=[7, 73]),
   midi.ControlChangeEvent(tick=10, channel=3, data=[7, 73]),
   midi.ControlChangeEvent(tick=15, channel=3, data=[7, 72]),
   midi.ControlChangeEvent(tick=10, channel=3, data=[7, 71]),
   midi.ControlChangeEvent(tick=15, channel=3, data=[7, 71]),
   midi.ControlChangeEvent(tick=10, channel=3, data=[7, 70]),
   midi.ControlChangeEvent(tick=15, channel=3, data=[7, 69]),
   midi.ControlChangeEvent(tick=20, channel=3, data=[7, 69]),
   midi.ControlChangeEvent(tick=25, channel=3, data=[7, 69]),
   midi.ControlChangeEvent(tick=15, channel=3, data=[7, 68]),
   midi.ControlChangeEvent(tick=20, channel=3, data=[7, 68]),
   midi.ControlChangeEvent(tick=15, channel=3, data=[7, 67]),
   midi.ControlChangeEvent(tick=25, channel=3, data=[7, 67]),
   midi.ControlChangeEvent(tick=15, channel=3, data=[7, 67]),
   midi.ControlChangeEvent(tick=15, channel=3, data=[7, 66]),
   midi.ControlChangeEvent(tick=20, channel=3, data=[7, 66]),
   midi.ControlChangeEvent(tick=20, channel=3, data=[7, 66]),
   midi.ControlChangeEvent(tick=10, channel=3, data=[7, 66]),
   midi.ControlChangeEvent(tick=10, channel=3, data=[7, 65]),
   midi.ControlChangeEvent(tick=15, channel=3, data=[7, 65]),
   midi.ControlChangeEvent(tick=15, channel=3, data=[7, 65]),
   midi.ControlChangeEvent(tick=10, channel=3, data=[7, 65]),
   midi.ControlChangeEvent(tick=10, channel=3, data=[7, 65]),
   midi.NoteOnEvent(tick=15, channel=3, data=[64, 81]),
   midi.ControlChangeEvent(tick=0, channel=3, data=[7, 63]),
   midi.ControlChangeEvent(tick=10, channel=3, data=[7, 63]),
   midi.ControlChangeEvent(tick=20, channel=3, data=[7, 63]),
   midi.NoteOnEvent(tick=90, channel=3, data=[64, 0]),
   midi.NoteOnEvent(tick=0, channel=3, data=[65, 81]),
   midi.NoteOnEvent(tick=120, channel=3, data=[65, 0]),
   midi.NoteOnEvent(tick=0, channel=3, data=[71, 81]),
   midi.NoteOnEvent(tick=235, channel=3, data=[71, 0]),
   midi.NoteOnEvent(tick=5, channel=3, data=[69, 81]),
   midi.NoteOnEvent(tick=120, channel=3, data=[69, 0]),
   midi.NoteOnEvent(tick=0, channel=3, data=[70, 81]),
   midi.NoteOnEvent(tick=120, channel=3, data=[70, 0]),
   midi.NoteOnEvent(tick=0, channel=3, data=[76, 81]),
   midi.NoteOnEvent(tick=235, channel=3, data=[76, 0]),
   midi.NoteOnEvent(tick=5, channel=3, data=[74, 81]),
   midi.NoteOnEvent(tick=0, channel=3, data=[77, 81]),
   midi.NoteOnEvent(tick=120, channel=3, data=[77, 0]),
   midi.NoteOnEvent(tick=0, channel=3, data=[74, 0]),
   midi.NoteOnEvent(tick=0, channel=3, data=[72, 81]),
   midi.NoteOnEvent(tick=0, channel=3, data=[76, 81]),
   midi.NoteOnEvent(tick=120, channel=3, data=[76, 0]),
   midi.NoteOnEvent(tick=0, channel=3, data=[72, 0]),
   midi.NoteOnEvent(tick=0, channel=3, data=[65, 81]),
   midi.NoteOnEvent(tick=0, channel=3, data=[69, 81]),
   midi.NoteOnEvent(tick=40, channel=3, data=[69, 0]),
   midi.NoteOnEvent(tick=0, channel=3, data=[71, 81]),
   midi.NoteOnEvent(tick=40, channel=3, data=[71, 0]),
   midi.NoteOnEvent(tick=0, channel=3, data=[72, 81]),
   midi.NoteOnEvent(tick=40, channel=3, data=[72, 0]),
   midi.NoteOnEvent(tick=0, channel=3, data=[65, 0]),
   midi.NoteOnEvent(tick=0, channel=3, data=[71, 81]),
   midi.NoteOnEvent(tick=60, channel=3, data=[71, 0]),
   midi.NoteOnEvent(tick=0, channel=3, data=[74, 76]),
   midi.NoteOnEvent(tick=55, channel=3, data=[74, 0]),
   midi.NoteOnEvent(tick=5, channel=3, data=[68, 73]),
   midi.NoteOnEvent(tick=115, channel=3, data=[68, 0]),
   midi.ControlChangeEvent(tick=4915, channel=3, data=[7, 61]),
   midi.ControlChangeEvent(tick=1695, channel=3, data=[7, 63]),
   midi.ControlChangeEvent(tick=20, channel=3, data=[7, 63]),
   midi.ControlChangeEvent(tick=20, channel=3, data=[7, 63]),
   midi.NoteOnEvent(tick=15, channel=3, data=[64, 110]),
   midi.ControlChangeEvent(tick=0, channel=3, data=[7, 65]),
   midi.ControlChangeEvent(tick=20, channel=3, data=[7, 65]),
   midi.ControlChangeEvent(tick=20, channel=3, data=[7, 65]),
   midi.ControlChangeEvent(tick=15, channel=3, data=[7, 66]),
   midi.NoteOnEvent(tick=5, channel=3, data=[64, 0]),
   midi.NoteOnEvent(tick=0, channel=3, data=[69, 110]),
   midi.ControlChangeEvent(tick=15, channel=3, data=[7, 67]),
   midi.ControlChangeEvent(tick=20, channel=3, data=[7, 69]),
   midi.ControlChangeEvent(tick=20, channel=3, data=[7, 71]),
   midi.NoteOnEvent(tick=5, channel=3, data=[69, 0]),
   midi.NoteOnEvent(tick=0, channel=3, data=[68, 110]),
   midi.ControlChangeEvent(tick=15, channel=3, data=[7, 73]),
   midi.ControlChangeEvent(tick=20, channel=3, data=[7, 76]),
   midi.ControlChangeEvent(tick=20, channel=3, data=[7, 78]),
   midi.NoteOnEvent(tick=5, channel=3, data=[68, 0]),
   midi.NoteOnEvent(tick=0, channel=3, data=[67, 110]),
   midi.ControlChangeEvent(tick=15, channel=3, data=[7, 81]),
   midi.ControlChangeEvent(tick=20, channel=3, data=[7, 81]),
   midi.ControlChangeEvent(tick=20, channel=3, data=[7, 83]),
   midi.NoteOnEvent(tick=5, channel=3, data=[67, 0]),
   midi.NoteOnEvent(tick=0, channel=3, data=[66, 110]),
   midi.ControlChangeEvent(tick=15, channel=3, data=[7, 84]),
   midi.ControlChangeEvent(tick=20, channel=3, data=[7, 86]),
   midi.ControlChangeEvent(tick=20, channel=3, data=[7, 89]),
   midi.NoteOnEvent(tick=5, channel=3, data=[66, 0]),
   midi.NoteOnEvent(tick=0, channel=3, data=[65, 110]),
   midi.ControlChangeEvent(tick=15, channel=3, data=[7, 90]),
   midi.ControlChangeEvent(tick=20, channel=3, data=[7, 92]),
   midi.NoteOnEvent(tick=25, channel=3, data=[65, 0]),
   midi.NoteOnEvent(tick=0, channel=3, data=[64, 110]),
   midi.ControlChangeEvent(tick=0, channel=3, data=[7, 94]),
   midi.ControlChangeEvent(tick=20, channel=3, data=[7, 94]),
   midi.ControlChangeEvent(tick=20, channel=3, data=[7, 94]),
   midi.NoteOnEvent(tick=15, channel=3, data=[64, 0]),
   midi.ControlChangeEvent(tick=10, channel=3, data=[7, 94]),
   midi.ControlChangeEvent(tick=15, channel=3, data=[7, 96]),
   midi.ControlChangeEvent(tick=30, channel=3, data=[7, 94]),
   midi.NoteOnEvent(tick=10, channel=3, data=[77, 92]),
   midi.ControlChangeEvent(tick=10, channel=3, data=[7, 90]),
   midi.NoteOnEvent(tick=15, channel=3, data=[77, 0]),
   midi.ControlChangeEvent(tick=5, channel=3, data=[7, 87]),
   midi.ControlChangeEvent(tick=20, channel=3, data=[7, 84]),
   midi.NoteOnEvent(tick=10, channel=3, data=[77, 92]),
   midi.ControlChangeEvent(tick=10, channel=3, data=[7, 84]),
   midi.NoteOnEvent(tick=15, channel=3, data=[77, 0]),
   midi.ControlChangeEvent(tick=10, channel=3, data=[7, 83]),
   midi.ControlChangeEvent(tick=20, channel=3, data=[7, 83]),
   midi.ControlChangeEvent(tick=20, channel=3, data=[7, 83]),
   midi.NoteOnEvent(tick=105, channel=3, data=[71, 92]),
   midi.NoteOnEvent(tick=25, channel=3, data=[71, 0]),
   midi.ControlChangeEvent(tick=0, channel=3, data=[7, 83]),
   midi.NoteOnEvent(tick=35, channel=3, data=[71, 92]),
   midi.ControlChangeEvent(tick=10, channel=3, data=[7, 83]),
   midi.NoteOnEvent(tick=15, channel=3, data=[71, 0]),
   midi.ControlChangeEvent(tick=95, channel=3, data=[7, 81]),
   midi.NoteOnEvent(tick=60, channel=3, data=[65, 92]),
   midi.NoteOnEvent(tick=25, channel=3, data=[65, 0]),
   midi.ControlChangeEvent(tick=0, channel=3, data=[7, 81]),
   midi.ControlChangeEvent(tick=30, channel=3, data=[7, 81]),
   midi.NoteOnEvent(tick=5, channel=3, data=[65, 92]),
   midi.NoteOnEvent(tick=25, channel=3, data=[65, 0]),
   midi.ControlChangeEvent(tick=25, channel=3, data=[7, 81]),
   midi.ControlChangeEvent(tick=40, channel=3, data=[7, 81]),
   midi.ControlChangeEvent(tick=15, channel=3, data=[7, 81]),
   midi.ControlChangeEvent(tick=20, channel=3, data=[7, 79]),
   midi.ControlChangeEvent(tick=15, channel=3, data=[7, 78]),
   midi.ControlChangeEvent(tick=20, channel=3, data=[7, 77]),
   midi.ControlChangeEvent(tick=15, channel=3, data=[7, 77]),
   midi.ControlChangeEvent(tick=20, channel=3, data=[7, 76]),
   midi.ControlChangeEvent(tick=20, channel=3, data=[7, 76]),
   midi.ControlChangeEvent(tick=45, channel=3, data=[7, 76]),
   midi.ControlChangeEvent(tick=20, channel=3, data=[7, 75]),
   midi.ControlChangeEvent(tick=25, channel=3, data=[7, 75]),
   midi.ControlChangeEvent(tick=445, channel=3, data=[7, 75]),
   midi.ControlChangeEvent(tick=40, channel=3, data=[7, 76]),
   midi.ControlChangeEvent(tick=20, channel=3, data=[7, 76]),
   midi.ControlChangeEvent(tick=20, channel=3, data=[7, 77]),
   midi.ControlChangeEvent(tick=20, channel=3, data=[7, 78]),
   midi.ControlChangeEvent(tick=20, channel=3, data=[7, 79]),
   midi.ControlChangeEvent(tick=20, channel=3, data=[7, 81]),
   midi.NoteOnEvent(tick=10, channel=3, data=[64, 112]),
   midi.ControlChangeEvent(tick=5, channel=3, data=[7, 81]),
   midi.ControlChangeEvent(tick=20, channel=3, data=[7, 81]),
   midi.ControlChangeEvent(tick=20, channel=3, data=[7, 83]),
   midi.NoteOnEvent(tick=15, channel=3, data=[64, 0]),
   midi.NoteOnEvent(tick=0, channel=3, data=[69, 112]),
   midi.ControlChangeEvent(tick=0, channel=3, data=[7, 83]),
   midi.ControlChangeEvent(tick=25, channel=3, data=[7, 84]),
   midi.ControlChangeEvent(tick=20, channel=3, data=[7, 86]),
   midi.NoteOnEvent(tick=15, channel=3, data=[69, 0]),
   midi.NoteOnEvent(tick=0, channel=3, data=[68, 112]),
   midi.ControlChangeEvent(tick=5, channel=3, data=[7, 87]),
   midi.ControlChangeEvent(tick=20, channel=3, data=[7, 88]),
   midi.ControlChangeEvent(tick=25, channel=3, data=[7, 89]),
   midi.NoteOnEvent(tick=10, channel=3, data=[68, 0]),
   midi.NoteOnEvent(tick=0, channel=3, data=[67, 112]),
   midi.ControlChangeEvent(tick=10, channel=3, data=[7, 90]),
   midi.ControlChangeEvent(tick=20, channel=3, data=[7, 92]),
   midi.ControlChangeEvent(tick=15, channel=3, data=[7, 94]),
   midi.NoteOnEvent(tick=15, channel=3, data=[67, 0]),
   midi.NoteOnEvent(tick=0, channel=3, data=[66, 112]),
   midi.ControlChangeEvent(tick=5, channel=3, data=[7, 94]),
   midi.ControlChangeEvent(tick=20, channel=3, data=[7, 94]),
   midi.ControlChangeEvent(tick=20, channel=3, data=[7, 96]),
   midi.NoteOnEvent(tick=15, channel=3, data=[66, 0]),
   midi.NoteOnEvent(tick=0, channel=3, data=[65, 112]),
   midi.NoteOnEvent(tick=60, channel=3, data=[65, 0]),
   midi.NoteOnEvent(tick=0, channel=3, data=[63, 112]),
   midi.NoteOnEvent(tick=60, channel=3, data=[63, 0]),
   midi.NoteOnEvent(tick=60, channel=3, data=[75, 92]),
   midi.NoteOnEvent(tick=25, channel=3, data=[75, 0]),
   midi.NoteOnEvent(tick=35, channel=3, data=[75, 92]),
   midi.NoteOnEvent(tick=25, channel=3, data=[75, 0]),
   midi.ControlChangeEvent(tick=0, channel=3, data=[7, 96]),
   midi.ControlChangeEvent(tick=20, channel=3, data=[7, 94]),
   midi.ControlChangeEvent(tick=20, channel=3, data=[7, 94]),
   midi.ControlChangeEvent(tick=20, channel=3, data=[7, 92]),
   midi.ControlChangeEvent(tick=20, channel=3, data=[7, 90]),
   midi.ControlChangeEvent(tick=20, channel=3, data=[7, 90]),
   midi.ControlChangeEvent(tick=20, channel=3, data=[7, 89]),
   midi.ControlChangeEvent(tick=15, channel=3, data=[7, 87]),
   midi.NoteOnEvent(tick=20, channel=3, data=[69, 92]),
   midi.ControlChangeEvent(tick=5, channel=3, data=[7, 87]),
   midi.ControlChangeEvent(tick=15, channel=3, data=[7, 86]),
   midi.NoteOnEvent(tick=5, channel=3, data=[69, 0]),
   midi.ControlChangeEvent(tick=15, channel=3, data=[7, 84]),
   midi.ControlChangeEvent(tick=20, channel=3, data=[7, 84]),
   midi.NoteOnEvent(tick=0, channel=3, data=[69, 92]),
   midi.NoteOnEvent(tick=25, channel=3, data=[69, 0]),
   midi.ControlChangeEvent(tick=20, channel=3, data=[7, 83]),
   midi.ControlChangeEvent(tick=35, channel=3, data=[7, 83]),
   midi.NoteOnEvent(tick=100, channel=3, data=[63, 92]),
   midi.ControlChangeEvent(tick=15, channel=3, data=[7, 83]),
   midi.NoteOnEvent(tick=10, channel=3, data=[63, 0]),
   midi.ControlChangeEvent(tick=10, channel=3, data=[7, 84]),
   midi.ControlChangeEvent(tick=20, channel=3, data=[7, 85]),
   midi.NoteOnEvent(tick=5, channel=3, data=[63, 92]),
   midi.NoteOnEvent(tick=25, channel=3, data=[63, 0]),
   midi.NoteOnEvent(tick=2495, channel=3, data=[72, 112]),
   midi.ControlChangeEvent(tick=35, channel=3, data=[7, 84]),
   midi.NoteOnEvent(tick=25, channel=3, data=[72, 0]),
   midi.NoteOnEvent(tick=0, channel=3, data=[69, 112]),
   midi.NoteOnEvent(tick=60, channel=3, data=[69, 0]),
   midi.NoteOnEvent(tick=0, channel=3, data=[67, 112]),
   midi.NoteOnEvent(tick=10, channel=3, data=[67, 0]),
   midi.NoteOnEvent(tick=0, channel=3, data=[69, 112]),
   midi.ControlChangeEvent(tick=0, channel=3, data=[7, 84]),
   midi.NoteOnEvent(tick=10, channel=3, data=[69, 0]),
   midi.NoteOnEvent(tick=0, channel=3, data=[67, 112]),
   midi.NoteOnEvent(tick=20, channel=3, data=[67, 0]),
   midi.NoteOnEvent(tick=0, channel=3, data=[65, 112]),
   midi.ControlChangeEvent(tick=0, channel=3, data=[7, 83]),
   midi.ControlChangeEvent(tick=15, channel=3, data=[7, 83]),
   midi.NoteOnEvent(tick=25, channel=3, data=[65, 0]),
   midi.NoteOnEvent(tick=0, channel=3, data=[69, 112]),
   midi.ControlChangeEvent(tick=20, channel=3, data=[7, 83]),
   midi.NoteOnEvent(tick=20, channel=3, data=[69, 0]),
   midi.NoteOnEvent(tick=0, channel=3, data=[72, 112]),
   midi.ControlChangeEvent(tick=5, channel=3, data=[7, 83]),
   midi.ControlChangeEvent(tick=35, channel=3, data=[7, 83]),
   midi.NoteOnEvent(tick=20, channel=3, data=[72, 0]),
   midi.NoteOnEvent(tick=0, channel=3, data=[77, 112]),
   midi.NoteOnEvent(tick=60, channel=3, data=[77, 0]),
   midi.NoteOnEvent(tick=0, channel=3, data=[77, 112]),
   midi.ControlChangeEvent(tick=30, channel=3, data=[7, 83]),
   midi.ControlChangeEvent(tick=15, channel=3, data=[7, 83]),
   midi.ControlChangeEvent(tick=10, channel=3, data=[7, 84]),
   midi.ControlChangeEvent(tick=15, channel=3, data=[7, 84]),
   midi.ControlChangeEvent(tick=10, channel=3, data=[7, 86]),
   midi.ControlChangeEvent(tick=15, channel=3, data=[7, 86]),
   midi.ControlChangeEvent(tick=10, channel=3, data=[7, 87]),
   midi.ControlChangeEvent(tick=15, channel=3, data=[7, 87]),
   midi.ControlChangeEvent(tick=10, channel=3, data=[7, 88]),
   midi.ControlChangeEvent(tick=15, channel=3, data=[7, 89]),
   midi.NoteOnEvent(tick=35, channel=3, data=[77, 0]),
   midi.ControlChangeEvent(tick=0, channel=3, data=[7, 88]),
   midi.NoteOnEvent(tick=0, channel=3, data=[72, 112]),
   midi.ControlChangeEvent(tick=10, channel=3, data=[7, 87]),
   midi.ControlChangeEvent(tick=15, channel=3, data=[7, 87]),
   midi.ControlChangeEvent(tick=10, channel=3, data=[7, 87]),
   midi.ControlChangeEvent(tick=15, channel=3, data=[7, 86]),
   midi.NoteOnEvent(tick=10, channel=3, data=[72, 0]),
   midi.NoteOnEvent(tick=0, channel=3, data=[71, 112]),
   midi.ControlChangeEvent(tick=0, channel=3, data=[7, 85]),
   midi.NoteOnEvent(tick=10, channel=3, data=[71, 0]),
   midi.NoteOnEvent(tick=0, channel=3, data=[72, 112]),
   midi.ControlChangeEvent(tick=5, channel=3, data=[7, 84]),
   midi.NoteOnEvent(tick=5, channel=3, data=[72, 0]),
   midi.NoteOnEvent(tick=0, channel=3, data=[71, 112]),
   midi.NoteOnEvent(tick=20, channel=3, data=[71, 0]),
   midi.NoteOnEvent(tick=0, channel=3, data=[69, 112]),
   midi.ControlChangeEvent(tick=0, channel=3, data=[7, 84]),
   midi.NoteOnEvent(tick=40, channel=3, data=[69, 0]),
   midi.NoteOnEvent(tick=0, channel=3, data=[72, 112]),
   midi.ControlChangeEvent(tick=5, channel=3, data=[7, 83]),
   midi.ControlChangeEvent(tick=15, channel=3, data=[7, 83]),
   midi.NoteOnEvent(tick=20, channel=3, data=[72, 0]),
   midi.NoteOnEvent(tick=0, channel=3, data=[77, 112]),
   midi.ControlChangeEvent(tick=5, channel=3, data=[7, 83]),
   midi.ControlChangeEvent(tick=15, channel=3, data=[7, 83]),
   midi.ControlChangeEvent(tick=15, channel=3, data=[7, 83]),
   midi.ControlChangeEvent(tick=15, channel=3, data=[7, 83]),
   midi.NoteOnEvent(tick=10, channel=3, data=[77, 0]),
   midi.NoteOnEvent(tick=0, channel=3, data=[81, 107]),
   midi.ControlChangeEvent(tick=10, channel=3, data=[7, 81]),
   midi.ControlChangeEvent(tick=25, channel=3, data=[7, 81]),
   midi.ControlChangeEvent(tick=20, channel=3, data=[7, 81]),
   midi.NoteOnEvent(tick=5, channel=3, data=[81, 0]),
   midi.NoteOnEvent(tick=0, channel=3, data=[81, 92]),
   midi.ControlChangeEvent(tick=10, channel=3, data=[7, 81]),
   midi.ControlChangeEvent(tick=10, channel=3, data=[7, 81]),
   midi.ControlChangeEvent(tick=20, channel=3, data=[7, 81]),
   midi.ControlChangeEvent(tick=190, channel=3, data=[7, 81]),
   midi.NoteOnEvent(tick=160, channel=3, data=[81, 0]),
   midi.ControlChangeEvent(tick=130, channel=3, data=[7, 81]),
   midi.ControlChangeEvent(tick=20, channel=3, data=[7, 81]),
   midi.ControlChangeEvent(tick=30, channel=3, data=[7, 81]),
   midi.ControlChangeEvent(tick=35, channel=3, data=[7, 80]),
   midi.ControlChangeEvent(tick=65, channel=3, data=[7, 81]),
   midi.ControlChangeEvent(tick=15, channel=3, data=[7, 81]),
   midi.ControlChangeEvent(tick=20, channel=3, data=[7, 81]),
   midi.ControlChangeEvent(tick=25, channel=3, data=[7, 81]),
   midi.ControlChangeEvent(tick=15, channel=3, data=[7, 83]),
   midi.ControlChangeEvent(tick=15, channel=3, data=[7, 83]),
   midi.ControlChangeEvent(tick=15, channel=3, data=[7, 83]),
   midi.ControlChangeEvent(tick=15, channel=3, data=[7, 83]),
   midi.ControlChangeEvent(tick=15, channel=3, data=[7, 83]),
   midi.ControlChangeEvent(tick=15, channel=3, data=[7, 84]),
   midi.ControlChangeEvent(tick=20, channel=3, data=[7, 86]),
   midi.NoteOnEvent(tick=0, channel=3, data=[74, 102]),
   midi.NoteOnEvent(tick=0, channel=3, data=[77, 102]),
   midi.ControlChangeEvent(tick=10, channel=3, data=[7, 87]),
   midi.ControlChangeEvent(tick=15, channel=3, data=[7, 88]),
   midi.ControlChangeEvent(tick=10, channel=3, data=[7, 90]),
   midi.ControlChangeEvent(tick=15, channel=3, data=[7, 96]),
   midi.ControlChangeEvent(tick=10, channel=3, data=[7, 96]),
   midi.ControlChangeEvent(tick=40, channel=3, data=[7, 96]),
   midi.ControlChangeEvent(tick=10, channel=3, data=[7, 94]),
   midi.ControlChangeEvent(tick=15, channel=3, data=[7, 90]),
   midi.ControlChangeEvent(tick=15, channel=3, data=[7, 89]),
   midi.ControlChangeEvent(tick=10, channel=3, data=[7, 87]),
   midi.ControlChangeEvent(tick=15, channel=3, data=[7, 85]),
   midi.ControlChangeEvent(tick=15, channel=3, data=[7, 83]),
   midi.ControlChangeEvent(tick=15, channel=3, data=[7, 83]),
   midi.ControlChangeEvent(tick=10, channel=3, data=[7, 83]),
   midi.ControlChangeEvent(tick=15, channel=3, data=[7, 81]),
   midi.ControlChangeEvent(tick=15, channel=3, data=[7, 81]),
   midi.ControlChangeEvent(tick=10, channel=3, data=[7, 81]),
   midi.ControlChangeEvent(tick=15, channel=3, data=[7, 79]),
   midi.ControlChangeEvent(tick=10, channel=3, data=[7, 79]),
   midi.ControlChangeEvent(tick=10, channel=3, data=[7, 77]),
   midi.ControlChangeEvent(tick=15, channel=3, data=[7, 77]),
   midi.ControlChangeEvent(tick=10, channel=3, data=[7, 76]),
   midi.ControlChangeEvent(tick=15, channel=3, data=[7, 75]),
   midi.ControlChangeEvent(tick=10, channel=3, data=[7, 75]),
   midi.ControlChangeEvent(tick=10, channel=3, data=[7, 74]),
   midi.ControlChangeEvent(tick=15, channel=3, data=[7, 73]),
   midi.ControlChangeEvent(tick=10, channel=3, data=[7, 73]),
   midi.ControlChangeEvent(tick=5, channel=3, data=[7, 72]),
   midi.ControlChangeEvent(tick=10, channel=3, data=[7, 71]),
   midi.ControlChangeEvent(tick=5, channel=3, data=[7, 70]),
   midi.ControlChangeEvent(tick=10, channel=3, data=[7, 69]),
   midi.ControlChangeEvent(tick=5, channel=3, data=[7, 69]),
   midi.ControlChangeEvent(tick=20, channel=3, data=[7, 69]),
   midi.ControlChangeEvent(tick=10, channel=3, data=[7, 68]),
   midi.ControlChangeEvent(tick=10, channel=3, data=[7, 68]),
   midi.ControlChangeEvent(tick=10, channel=3, data=[7, 67]),
   midi.ControlChangeEvent(tick=5, channel=3, data=[7, 67]),
   midi.ControlChangeEvent(tick=20, channel=3, data=[7, 67]),
   midi.ControlChangeEvent(tick=5, channel=3, data=[7, 66]),
   midi.ControlChangeEvent(tick=20, channel=3, data=[7, 66]),
   midi.ControlChangeEvent(tick=25, channel=3, data=[7, 66]),
   midi.NoteOnEvent(tick=15, channel=3, data=[77, 0]),
   midi.NoteOnEvent(tick=0, channel=3, data=[74, 0]),
   midi.ControlChangeEvent(tick=10, channel=3, data=[7, 65]),
   midi.ControlChangeEvent(tick=155, channel=3, data=[7, 66]),
   midi.ControlChangeEvent(tick=10, channel=3, data=[7, 66]),
   midi.ControlChangeEvent(tick=35, channel=3, data=[7, 66]),
   midi.ControlChangeEvent(tick=50, channel=3, data=[7, 67]),
   midi.ControlChangeEvent(tick=30, channel=3, data=[7, 67]),
   midi.ControlChangeEvent(tick=15, channel=3, data=[7, 67]),
   midi.ControlChangeEvent(tick=25, channel=3, data=[7, 68]),
   midi.ControlChangeEvent(tick=30, channel=3, data=[7, 68]),
   midi.ControlChangeEvent(tick=15, channel=3, data=[7, 69]),
   midi.ControlChangeEvent(tick=10, channel=3, data=[7, 69]),
   midi.ControlChangeEvent(tick=10, channel=3, data=[7, 69]),
   midi.ControlChangeEvent(tick=10, channel=3, data=[7, 70]),
   midi.ControlChangeEvent(tick=10, channel=3, data=[7, 71]),
   midi.ControlChangeEvent(tick=10, channel=3, data=[7, 72]),
   midi.ControlChangeEvent(tick=15, channel=3, data=[7, 73]),
   midi.ControlChangeEvent(tick=15, channel=3, data=[7, 73]),
   midi.ControlChangeEvent(tick=15, channel=3, data=[7, 73]),
   midi.ControlChangeEvent(tick=20, channel=3, data=[7, 74]),
   midi.ControlChangeEvent(tick=15, channel=3, data=[7, 75]),
   midi.ControlChangeEvent(tick=10, channel=3, data=[7, 75]),
   midi.ControlChangeEvent(tick=10, channel=3, data=[7, 75]),
   midi.ControlChangeEvent(tick=10, channel=3, data=[7, 76]),
   midi.ControlChangeEvent(tick=15, channel=3, data=[7, 76]),
   midi.ControlChangeEvent(tick=10, channel=3, data=[7, 76]),
   midi.ControlChangeEvent(tick=10, channel=3, data=[7, 77]),
   midi.ControlChangeEvent(tick=25, channel=3, data=[7, 77]),
   midi.ControlChangeEvent(tick=20, channel=3, data=[7, 78]),
   midi.ControlChangeEvent(tick=15, channel=3, data=[7, 79]),
   midi.ControlChangeEvent(tick=25, channel=3, data=[7, 79]),
   midi.ControlChangeEvent(tick=15, channel=3, data=[7, 80]),
   midi.ControlChangeEvent(tick=15, channel=3, data=[7, 81]),
   midi.ControlChangeEvent(tick=20, channel=3, data=[7, 81]),
   midi.ControlChangeEvent(tick=15, channel=3, data=[7, 81]),
   midi.ControlChangeEvent(tick=20, channel=3, data=[7, 81]),
   midi.ControlChangeEvent(tick=15, channel=3, data=[7, 81]),
   midi.ControlChangeEvent(tick=15, channel=3, data=[7, 81]),
   midi.ControlChangeEvent(tick=25, channel=3, data=[7, 83]),
   midi.ControlChangeEvent(tick=25, channel=3, data=[7, 83]),
   midi.ControlChangeEvent(tick=20, channel=3, data=[7, 83]),
   midi.ControlChangeEvent(tick=15, channel=3, data=[7, 83]),
   midi.ControlChangeEvent(tick=15, channel=3, data=[7, 83]),
   midi.ControlChangeEvent(tick=20, channel=3, data=[7, 83]),
   midi.ControlChangeEvent(tick=35, channel=3, data=[7, 84]),
   midi.ControlChangeEvent(tick=25, channel=3, data=[7, 84]),
   midi.ControlChangeEvent(tick=15, channel=3, data=[7, 85]),
   midi.ControlChangeEvent(tick=25, channel=3, data=[7, 86]),
   midi.ControlChangeEvent(tick=30, channel=3, data=[7, 86]),
   midi.ControlChangeEvent(tick=15, channel=3, data=[7, 87]),
   midi.ControlChangeEvent(tick=10, channel=3, data=[7, 87]),
   midi.ControlChangeEvent(tick=10, channel=3, data=[7, 87]),
   midi.ControlChangeEvent(tick=25, channel=3, data=[7, 88]),
   midi.ControlChangeEvent(tick=40, channel=3, data=[7, 87]),
   midi.ControlChangeEvent(tick=10, channel=3, data=[7, 87]),
   midi.ControlChangeEvent(tick=10, channel=3, data=[7, 86]),
   midi.ControlChangeEvent(tick=15, channel=3, data=[7, 85]),
   midi.ControlChangeEvent(tick=10, channel=3, data=[7, 84]),
   midi.ControlChangeEvent(tick=10, channel=3, data=[7, 83]),
   midi.ControlChangeEvent(tick=10, channel=3, data=[7, 83]),
   midi.ControlChangeEvent(tick=10, channel=3, data=[7, 83]),
   midi.ControlChangeEvent(tick=15, channel=3, data=[7, 83]),
   midi.ControlChangeEvent(tick=10, channel=3, data=[7, 81]),
   midi.ControlChangeEvent(tick=10, channel=3, data=[7, 81]),
   midi.ControlChangeEvent(tick=10, channel=3, data=[7, 81]),
   midi.ControlChangeEvent(tick=15, channel=3, data=[7, 81]),
   midi.ControlChangeEvent(tick=30, channel=3, data=[7, 81]),
   midi.ControlChangeEvent(tick=15, channel=3, data=[7, 80]),
   midi.ControlChangeEvent(tick=15, channel=3, data=[7, 79]),
   midi.ControlChangeEvent(tick=30, channel=3, data=[7, 79]),
   midi.ControlChangeEvent(tick=30, channel=3, data=[7, 79]),
   midi.ControlChangeEvent(tick=10, channel=3, data=[7, 81]),
   midi.ControlChangeEvent(tick=15, channel=3, data=[7, 81]),
   midi.ControlChangeEvent(tick=10, channel=3, data=[7, 83]),
   midi.ControlChangeEvent(tick=10, channel=3, data=[7, 83]),
   midi.ControlChangeEvent(tick=10, channel=3, data=[7, 83]),
   midi.ControlChangeEvent(tick=10, channel=3, data=[7, 83]),
   midi.ControlChangeEvent(tick=10, channel=3, data=[7, 84]),
   midi.ControlChangeEvent(tick=10, channel=3, data=[7, 84]),
   midi.ControlChangeEvent(tick=15, channel=3, data=[7, 85]),
   midi.ControlChangeEvent(tick=15, channel=3, data=[7, 86]),
   midi.ControlChangeEvent(tick=15, channel=3, data=[7, 86]),
   midi.ControlChangeEvent(tick=10, channel=3, data=[7, 87]),
   midi.ControlChangeEvent(tick=15, channel=3, data=[7, 87]),
   midi.ControlChangeEvent(tick=20, channel=3, data=[7, 87]),
   midi.ControlChangeEvent(tick=20, channel=3, data=[7, 88]),
   midi.ControlChangeEvent(tick=15, channel=3, data=[7, 89]),
   midi.ControlChangeEvent(tick=20, channel=3, data=[7, 89]),
   midi.ControlChangeEvent(tick=20, channel=3, data=[7, 89]),
   midi.ControlChangeEvent(tick=20, channel=3, data=[7, 90]),
   midi.ControlChangeEvent(tick=15, channel=3, data=[7, 90]),
   midi.ControlChangeEvent(tick=15, channel=3, data=[7, 92]),
   midi.ControlChangeEvent(tick=10, channel=3, data=[7, 92]),
   midi.ControlChangeEvent(tick=10, channel=3, data=[7, 93]),
   midi.ControlChangeEvent(tick=15, channel=3, data=[7, 94]),
   midi.ControlChangeEvent(tick=10, channel=3, data=[7, 94]),
   midi.ControlChangeEvent(tick=10, channel=3, data=[7, 94]),
   midi.ControlChangeEvent(tick=15, channel=3, data=[7, 94]),
   midi.ControlChangeEvent(tick=15, channel=3, data=[7, 94]),
   midi.ControlChangeEvent(tick=10, channel=3, data=[7, 96]),
   midi.ControlChangeEvent(tick=15, channel=3, data=[7, 96]),
   midi.ControlChangeEvent(tick=50, channel=3, data=[7, 96]),
   midi.ControlChangeEvent(tick=10, channel=3, data=[7, 94]),
   midi.ControlChangeEvent(tick=10, channel=3, data=[7, 94]),
   midi.ControlChangeEvent(tick=10, channel=3, data=[7, 92]),
   midi.ControlChangeEvent(tick=15, channel=3, data=[7, 92]),
   midi.ControlChangeEvent(tick=10, channel=3, data=[7, 90]),
   midi.ControlChangeEvent(tick=10, channel=3, data=[7, 90]),
   midi.ControlChangeEvent(tick=10, channel=3, data=[7, 89]),
   midi.ControlChangeEvent(tick=10, channel=3, data=[7, 88]),
   midi.ControlChangeEvent(tick=15, channel=3, data=[7, 87]),
   midi.ControlChangeEvent(tick=10, channel=3, data=[7, 87]),
   midi.ControlChangeEvent(tick=15, channel=3, data=[7, 86]),
   midi.ControlChangeEvent(tick=10, channel=3, data=[7, 86]),
   midi.ControlChangeEvent(tick=10, channel=3, data=[7, 84]),
   midi.ControlChangeEvent(tick=10, channel=3, data=[7, 84]),
   midi.ControlChangeEvent(tick=10, channel=3, data=[7, 83]),
   midi.ControlChangeEvent(tick=10, channel=3, data=[7, 83]),
   midi.ControlChangeEvent(tick=15, channel=3, data=[7, 83]),
   midi.ControlChangeEvent(tick=25, channel=3, data=[7, 83]),
   midi.ControlChangeEvent(tick=30, channel=3, data=[7, 83]),
   midi.ControlChangeEvent(tick=10, channel=3, data=[7, 81]),
   midi.ControlChangeEvent(tick=10, channel=3, data=[7, 81]),
   midi.ControlChangeEvent(tick=15, channel=3, data=[7, 81]),
   midi.ControlChangeEvent(tick=25, channel=3, data=[7, 81]),
   midi.ControlChangeEvent(tick=15, channel=3, data=[7, 81]),
   midi.ControlChangeEvent(tick=40, channel=3, data=[7, 81]),
   midi.ControlChangeEvent(tick=20, channel=3, data=[7, 80]),
   midi.ControlChangeEvent(tick=15, channel=3, data=[7, 79]),
   midi.ControlChangeEvent(tick=20, channel=3, data=[7, 79]),
   midi.ControlChangeEvent(tick=15, channel=3, data=[7, 78]),
   midi.ControlChangeEvent(tick=35, channel=3, data=[7, 77]),
   midi.ControlChangeEvent(tick=20, channel=3, data=[7, 77]),
   midi.ControlChangeEvent(tick=30, channel=3, data=[7, 76]),
   midi.ControlChangeEvent(tick=1610, channel=3, data=[7, 77]),
   midi.ControlChangeEvent(tick=25, channel=3, data=[7, 77]),
   midi.ControlChangeEvent(tick=5, channel=3, data=[7, 78]),
   midi.ControlChangeEvent(tick=5, channel=3, data=[7, 79]),
   midi.ControlChangeEvent(tick=5, channel=3, data=[7, 79]),
   midi.ControlChangeEvent(tick=10, channel=3, data=[7, 80]),
   midi.ControlChangeEvent(tick=10, channel=3, data=[7, 81]),
   midi.ControlChangeEvent(tick=10, channel=3, data=[7, 81]),
   midi.ControlChangeEvent(tick=5, channel=3, data=[7, 81]),
   midi.ControlChangeEvent(tick=5, channel=3, data=[7, 81]),
   midi.ControlChangeEvent(tick=5, channel=3, data=[7, 81]),
   midi.ControlChangeEvent(tick=5, channel=3, data=[7, 83]),
   midi.ControlChangeEvent(tick=5, channel=3, data=[7, 83]),
   midi.ControlChangeEvent(tick=10, channel=3, data=[7, 83]),
   midi.ControlChangeEvent(tick=5, channel=3, data=[7, 84]),
   midi.ControlChangeEvent(tick=5, channel=3, data=[7, 86]),
   midi.ControlChangeEvent(tick=5, channel=3, data=[7, 87]),
   midi.ControlChangeEvent(tick=5, channel=3, data=[7, 87]),
   midi.ControlChangeEvent(tick=5, channel=3, data=[7, 88]),
   midi.ControlChangeEvent(tick=10, channel=3, data=[7, 89]),
   midi.ControlChangeEvent(tick=5, channel=3, data=[7, 89]),
   midi.ControlChangeEvent(tick=5, channel=3, data=[7, 90]),
   midi.ControlChangeEvent(tick=5, channel=3, data=[7, 90]),
   midi.ControlChangeEvent(tick=5, channel=3, data=[7, 92]),
   midi.ControlChangeEvent(tick=5, channel=3, data=[7, 92]),
   midi.ControlChangeEvent(tick=15, channel=3, data=[7, 92]),
   midi.ControlChangeEvent(tick=5, channel=3, data=[7, 93]),
   midi.ControlChangeEvent(tick=5, channel=3, data=[7, 94]),
   midi.ControlChangeEvent(tick=10, channel=3, data=[7, 94]),
   midi.ControlChangeEvent(tick=15, channel=3, data=[7, 94]),
   midi.ControlChangeEvent(tick=20, channel=3, data=[7, 94]),
   midi.ControlChangeEvent(tick=20, channel=3, data=[7, 94]),
   midi.ControlChangeEvent(tick=10, channel=3, data=[7, 96]),
   midi.ControlChangeEvent(tick=15, channel=3, data=[7, 96]),
   midi.ControlChangeEvent(tick=160, channel=3, data=[7, 96]),
   midi.ControlChangeEvent(tick=35, channel=3, data=[7, 94]),
   midi.ControlChangeEvent(tick=120, channel=3, data=[7, 96]),
   midi.ControlChangeEvent(tick=55, channel=3, data=[7, 96]),
   midi.ControlChangeEvent(tick=1450, channel=3, data=[7, 96]),
   midi.ControlChangeEvent(tick=10, channel=3, data=[7, 94]),
   midi.ControlChangeEvent(tick=15, channel=3, data=[7, 94]),
   midi.ControlChangeEvent(tick=5, channel=3, data=[7, 94]),
   midi.ControlChangeEvent(tick=5, channel=3, data=[7, 94]),
   midi.ControlChangeEvent(tick=15, channel=3, data=[7, 94]),
   midi.ControlChangeEvent(tick=5, channel=3, data=[7, 93]),
   midi.ControlChangeEvent(tick=10, channel=3, data=[7, 92]),
   midi.ControlChangeEvent(tick=5, channel=3, data=[7, 92]),
   midi.ControlChangeEvent(tick=5, channel=3, data=[7, 90]),
   midi.ControlChangeEvent(tick=5, channel=3, data=[7, 90]),
   midi.ControlChangeEvent(tick=10, channel=3, data=[7, 90]),
   midi.ControlChangeEvent(tick=5, channel=3, data=[7, 89]),
   midi.ControlChangeEvent(tick=5, channel=3, data=[7, 89]),
   midi.ControlChangeEvent(tick=5, channel=3, data=[7, 89]),
   midi.ControlChangeEvent(tick=10, channel=3, data=[7, 88]),
   midi.ControlChangeEvent(tick=5, channel=3, data=[7, 87]),
   midi.ControlChangeEvent(tick=5, channel=3, data=[7, 87]),
   midi.ControlChangeEvent(tick=10, channel=3, data=[7, 87]),
   midi.ControlChangeEvent(tick=10, channel=3, data=[7, 86]),
   midi.ControlChangeEvent(tick=10, channel=3, data=[7, 86]),
   midi.ControlChangeEvent(tick=20, channel=3, data=[7, 85]),
   midi.ControlChangeEvent(tick=15, channel=3, data=[7, 84]),
   midi.ControlChangeEvent(tick=10, channel=3, data=[7, 84]),
   midi.ControlChangeEvent(tick=10, channel=3, data=[7, 83]),
   midi.ControlChangeEvent(tick=10, channel=3, data=[7, 83]),
   midi.ControlChangeEvent(tick=20, channel=3, data=[7, 83]),
   midi.ControlChangeEvent(tick=20, channel=3, data=[7, 83]),
   midi.ControlChangeEvent(tick=50, channel=3, data=[7, 83]),
   midi.NoteOnEvent(tick=50, channel=3, data=[80, 86]),
   midi.ControlChangeEvent(tick=20, channel=3, data=[7, 83]),
   midi.ControlChangeEvent(tick=15, channel=3, data=[7, 83]),
   midi.ControlChangeEvent(tick=10, channel=3, data=[7, 83]),
   midi.ControlChangeEvent(tick=10, channel=3, data=[7, 83]),
   midi.ControlChangeEvent(tick=10, channel=3, data=[7, 84]),
   midi.ControlChangeEvent(tick=10, channel=3, data=[7, 84]),
   midi.ControlChangeEvent(tick=10, channel=3, data=[7, 85]),
   midi.ControlChangeEvent(tick=10, channel=3, data=[7, 86]),
   midi.ControlChangeEvent(tick=15, channel=3, data=[7, 86]),
   midi.NoteOnEvent(tick=10, channel=3, data=[80, 0]),
   midi.NoteOnEvent(tick=0, channel=3, data=[81, 86]),
   midi.ControlChangeEvent(tick=30, channel=3, data=[7, 87]),
   midi.ControlChangeEvent(tick=10, channel=3, data=[7, 86]),
   midi.ControlChangeEvent(tick=10, channel=3, data=[7, 86]),
   midi.ControlChangeEvent(tick=10, channel=3, data=[7, 84]),
   midi.ControlChangeEvent(tick=10, channel=3, data=[7, 83]),
   midi.NoteOnEvent(tick=5, channel=3, data=[81, 0]),
   midi.ControlChangeEvent(tick=10, channel=3, data=[7, 83]),
   midi.ControlChangeEvent(tick=10, channel=3, data=[7, 83]),
   midi.ControlChangeEvent(tick=10, channel=3, data=[7, 81]),
   midi.ControlChangeEvent(tick=10, channel=3, data=[7, 81]),
   midi.ControlChangeEvent(tick=15, channel=3, data=[7, 81]),
   midi.ControlChangeEvent(tick=145, channel=3, data=[7, 81]),
   midi.ControlChangeEvent(tick=15, channel=3, data=[7, 81]),
   midi.ControlChangeEvent(tick=10, channel=3, data=[7, 83]),
   midi.ControlChangeEvent(tick=10, channel=3, data=[7, 83]),
   midi.ControlChangeEvent(tick=10, channel=3, data=[7, 84]),
   midi.ControlChangeEvent(tick=10, channel=3, data=[7, 86]),
   midi.ControlChangeEvent(tick=15, channel=3, data=[7, 87]),
   midi.ControlChangeEvent(tick=10, channel=3, data=[7, 87]),
   midi.NoteOnEvent(tick=5, channel=3, data=[82, 86]),
   midi.ControlChangeEvent(tick=5, channel=3, data=[7, 89]),
   midi.ControlChangeEvent(tick=10, channel=3, data=[7, 89]),
   midi.ControlChangeEvent(tick=15, channel=3, data=[7, 90]),
   midi.ControlChangeEvent(tick=30, channel=3, data=[7, 89]),
   midi.ControlChangeEvent(tick=10, channel=3, data=[7, 89]),
   midi.ControlChangeEvent(tick=10, channel=3, data=[7, 87]),
   midi.ControlChangeEvent(tick=10, channel=3, data=[7, 87]),
   midi.ControlChangeEvent(tick=15, channel=3, data=[7, 86]),
   midi.ControlChangeEvent(tick=10, channel=3, data=[7, 84]),
   midi.NoteOnEvent(tick=5, channel=3, data=[82, 0]),
   midi.NoteOnEvent(tick=0, channel=3, data=[83, 86]),
   midi.ControlChangeEvent(tick=5, channel=3, data=[7, 83]),
   midi.ControlChangeEvent(tick=10, channel=3, data=[7, 83]),
   midi.ControlChangeEvent(tick=15, channel=3, data=[7, 83]),
   midi.ControlChangeEvent(tick=10, channel=3, data=[7, 83]),
   midi.ControlChangeEvent(tick=10, channel=3, data=[7, 81]),
   midi.ControlChangeEvent(tick=10, channel=3, data=[7, 81]),
   midi.ControlChangeEvent(tick=10, channel=3, data=[7, 81]),
   midi.NoteOnEvent(tick=5, channel=3, data=[83, 0]),
   midi.ControlChangeEvent(tick=10, channel=3, data=[7, 81]),
   midi.ControlChangeEvent(tick=15, channel=3, data=[7, 81]),
   midi.ControlChangeEvent(tick=15, channel=3, data=[7, 80]),
   midi.ControlChangeEvent(tick=15, channel=3, data=[7, 79]),
   midi.ControlChangeEvent(tick=75, channel=3, data=[7, 80]),
   midi.ControlChangeEvent(tick=10, channel=3, data=[7, 81]),
   midi.ControlChangeEvent(tick=10, channel=3, data=[7, 81]),
   midi.ControlChangeEvent(tick=10, channel=3, data=[7, 83]),
   midi.ControlChangeEvent(tick=10, channel=3, data=[7, 83]),
   midi.ControlChangeEvent(tick=10, channel=3, data=[7, 83]),
   midi.ControlChangeEvent(tick=10, channel=3, data=[7, 85]),
   midi.ControlChangeEvent(tick=10, channel=3, data=[7, 86]),
   midi.ControlChangeEvent(tick=10, channel=3, data=[7, 87]),
   midi.ControlChangeEvent(tick=10, channel=3, data=[7, 87]),
   midi.ControlChangeEvent(tick=10, channel=3, data=[7, 89]),
   midi.ControlChangeEvent(tick=10, channel=3, data=[7, 89]),
   midi.ControlChangeEvent(tick=10, channel=3, data=[7, 89]),
   midi.ControlChangeEvent(tick=10, channel=3, data=[7, 90]),
   midi.ControlChangeEvent(tick=10, channel=3, data=[7, 92]),
   midi.ControlChangeEvent(tick=10, channel=3, data=[7, 92]),
   midi.NoteOnEvent(tick=5, channel=3, data=[87, 86]),
   midi.ControlChangeEvent(tick=5, channel=3, data=[7, 93]),
   midi.ControlChangeEvent(tick=10, channel=3, data=[7, 94]),
   midi.ControlChangeEvent(tick=10, channel=3, data=[7, 94]),
   midi.ControlChangeEvent(tick=45, channel=3, data=[7, 96]),
   midi.ControlChangeEvent(tick=10, channel=3, data=[7, 96]),
   midi.ControlChangeEvent(tick=25, channel=3, data=[7, 96]),
   midi.ControlChangeEvent(tick=10, channel=3, data=[7, 94]),
   midi.NoteOnEvent(tick=5, channel=3, data=[87, 0]),
   midi.NoteOnEvent(tick=0, channel=3, data=[88, 86]),
   midi.ControlChangeEvent(tick=5, channel=3, data=[7, 94]),
   midi.ControlChangeEvent(tick=10, channel=3, data=[7, 92]),
   midi.ControlChangeEvent(tick=5, channel=3, data=[7, 90]),
   midi.ControlChangeEvent(tick=10, channel=3, data=[7, 89]),
   midi.ControlChangeEvent(tick=10, channel=3, data=[7, 89]),
   midi.ControlChangeEvent(tick=10, channel=3, data=[7, 88]),
   midi.ControlChangeEvent(tick=10, channel=3, data=[7, 87]),
   midi.NoteOnEvent(tick=15, channel=3, data=[88, 0]),
   midi.ControlChangeEvent(tick=0, channel=3, data=[7, 87]),
   midi.ControlChangeEvent(tick=10, channel=3, data=[7, 86]),
   midi.ControlChangeEvent(tick=10, channel=3, data=[7, 86]),
   midi.ControlChangeEvent(tick=1155, channel=3, data=[7, 86]),
   midi.ControlChangeEvent(tick=280, channel=3, data=[7, 87]),
   midi.ControlChangeEvent(tick=10, channel=3, data=[7, 87]),
   midi.ControlChangeEvent(tick=15, channel=3, data=[7, 89]),
   midi.ControlChangeEvent(tick=15, channel=3, data=[7, 90]),
   midi.ControlChangeEvent(tick=15, channel=3, data=[7, 94]),
   midi.ControlChangeEvent(tick=15, channel=3, data=[7, 96]),
   midi.ControlChangeEvent(tick=810, channel=3, data=[7, 96]),
   midi.NoteOnEvent(tick=2030, channel=3, data=[72, 86]),
   midi.NoteOnEvent(tick=0, channel=3, data=[76, 86]),
   midi.ControlChangeEvent(tick=95, channel=3, data=[7, 96]),
   midi.ControlChangeEvent(tick=25, channel=3, data=[7, 98]),
   midi.ControlChangeEvent(tick=30, channel=3, data=[7, 99]),
   midi.ControlChangeEvent(tick=30, channel=3, data=[7, 101]),
   midi.ControlChangeEvent(tick=30, channel=3, data=[7, 101]),
   midi.NoteOnEvent(tick=20, channel=3, data=[76, 0]),
   midi.NoteOnEvent(tick=0, channel=3, data=[72, 0]),
   midi.NoteOnEvent(tick=10, channel=3, data=[69, 86]),
   midi.NoteOnEvent(tick=0, channel=3, data=[77, 86]),
   midi.ControlChangeEvent(tick=5, channel=3, data=[7, 102]),
   midi.ControlChangeEvent(tick=25, channel=3, data=[7, 104]),
   midi.ControlChangeEvent(tick=30, channel=3, data=[7, 105]),
   midi.ControlChangeEvent(tick=30, channel=3, data=[7, 106]),
   midi.NoteOnEvent(tick=30, channel=3, data=[69, 0]),
   midi.NoteOnEvent(tick=0, channel=3, data=[71, 86]),
   midi.ControlChangeEvent(tick=5, channel=3, data=[7, 108]),
   midi.ControlChangeEvent(tick=85, channel=3, data=[7, 109]),
   midi.NoteOnEvent(tick=20, channel=3, data=[71, 0]),
   midi.NoteOnEvent(tick=0, channel=3, data=[77, 0]),
   midi.NoteOnEvent(tick=10, channel=3, data=[76, 86]),
   midi.NoteOnEvent(tick=0, channel=3, data=[72, 86]),
   midi.ControlChangeEvent(tick=20, channel=3, data=[7, 109]),
   midi.ControlChangeEvent(tick=20, channel=3, data=[7, 110]),
   midi.ControlChangeEvent(tick=25, channel=3, data=[7, 110]),
   midi.NoteOnEvent(tick=45, channel=3, data=[72, 0]),
   midi.NoteOnEvent(tick=0, channel=3, data=[76, 0]),
   midi.NoteOnEvent(tick=10, channel=3, data=[67, 86]),
   midi.NoteOnEvent(tick=0, channel=3, data=[74, 86]),
   midi.NoteOnEvent(tick=110, channel=3, data=[74, 0]),
   midi.NoteOnEvent(tick=0, channel=3, data=[67, 0]),
   midi.NoteOnEvent(tick=10, channel=3, data=[72, 86]),
   midi.NoteOnEvent(tick=0, channel=3, data=[76, 86]),
   midi.NoteOnEvent(tick=110, channel=3, data=[76, 0]),
   midi.NoteOnEvent(tick=0, channel=3, data=[72, 0]),
   midi.NoteOnEvent(tick=10, channel=3, data=[74, 86]),
   midi.NoteOnEvent(tick=0, channel=3, data=[67, 86]),
   midi.NoteOnEvent(tick=110, channel=3, data=[67, 0]),
   midi.NoteOnEvent(tick=0, channel=3, data=[74, 0]),
   midi.ControlChangeEvent(tick=0, channel=3, data=[7, 111]),
   midi.NoteOnEvent(tick=10, channel=3, data=[72, 86]),
   midi.NoteOnEvent(tick=0, channel=3, data=[76, 86]),
   midi.ControlChangeEvent(tick=150, channel=3, data=[7, 112]),
   midi.ControlChangeEvent(tick=40, channel=3, data=[7, 112]),
   midi.ControlChangeEvent(tick=90, channel=3, data=[7, 111]),
   midi.ControlChangeEvent(tick=30, channel=3, data=[7, 109]),
   midi.ControlChangeEvent(tick=30, channel=3, data=[7, 109]),
   midi.ControlChangeEvent(tick=30, channel=3, data=[7, 108]),
   midi.ControlChangeEvent(tick=20, channel=3, data=[7, 106]),
   midi.ControlChangeEvent(tick=30, channel=3, data=[7, 105]),
   midi.ControlChangeEvent(tick=30, channel=3, data=[7, 103]),
   midi.ControlChangeEvent(tick=30, channel=3, data=[7, 101]),
   midi.ControlChangeEvent(tick=30, channel=3, data=[7, 99]),
   midi.ControlChangeEvent(tick=30, channel=3, data=[7, 98]),
   midi.ControlChangeEvent(tick=90, channel=3, data=[7, 99]),
   midi.ControlChangeEvent(tick=30, channel=3, data=[7, 101]),
   midi.ControlChangeEvent(tick=30, channel=3, data=[7, 106]),
   midi.NoteOnEvent(tick=30, channel=3, data=[76, 0]),
   midi.NoteOnEvent(tick=0, channel=3, data=[77, 86]),
   midi.ControlChangeEvent(tick=5, channel=3, data=[7, 110]),
   midi.ControlChangeEvent(tick=25, channel=3, data=[7, 112]),
   midi.ControlChangeEvent(tick=30, channel=3, data=[7, 116]),
   midi.ControlChangeEvent(tick=30, channel=3, data=[7, 118]),
   midi.ControlChangeEvent(tick=25, channel=3, data=[7, 120]),
   midi.ControlChangeEvent(tick=20, channel=3, data=[7, 121]),
   midi.NoteOnEvent(tick=95, channel=3, data=[77, 0]),
   midi.NoteOnEvent(tick=0, channel=3, data=[72, 0]),
   midi.NoteOnEvent(tick=10, channel=3, data=[74, 86]),
   midi.NoteOnEvent(tick=0, channel=3, data=[77, 86]),
   midi.ControlChangeEvent(tick=170, channel=3, data=[7, 120]),
   midi.ControlChangeEvent(tick=30, channel=3, data=[7, 116]),
   midi.NoteOnEvent(tick=30, channel=3, data=[77, 0]),
   midi.NoteOnEvent(tick=0, channel=3, data=[74, 0]),
   midi.ControlChangeEvent(tick=0, channel=3, data=[7, 115]),
   midi.NoteOnEvent(tick=10, channel=3, data=[71, 86]),
   midi.NoteOnEvent(tick=0, channel=3, data=[79, 86]),
   midi.ControlChangeEvent(tick=20, channel=3, data=[7, 112]),
   midi.ControlChangeEvent(tick=30, channel=3, data=[7, 110]),
   midi.ControlChangeEvent(tick=30, channel=3, data=[7, 109]),
   midi.ControlChangeEvent(tick=30, channel=3, data=[7, 107]),
   midi.NoteOnEvent(tick=10, channel=3, data=[71, 0]),
   midi.NoteOnEvent(tick=0, channel=3, data=[73, 86]),
   midi.ControlChangeEvent(tick=20, channel=3, data=[7, 105]),
   midi.NoteOnEvent(tick=90, channel=3, data=[73, 0]),
   midi.NoteOnEvent(tick=0, channel=3, data=[79, 0]),
   midi.ControlChangeEvent(tick=0, channel=3, data=[7, 108]),
   midi.NoteOnEvent(tick=10, channel=3, data=[77, 86]),
   midi.NoteOnEvent(tick=0, channel=3, data=[74, 86]),
   midi.ControlChangeEvent(tick=20, channel=3, data=[7, 116]),
   midi.ControlChangeEvent(tick=30, channel=3, data=[7, 121]),
   midi.ControlChangeEvent(tick=55, channel=3, data=[7, 120]),
   midi.NoteOnEvent(tick=5, channel=3, data=[74, 0]),
   midi.NoteOnEvent(tick=0, channel=3, data=[77, 0]),
   midi.NoteOnEvent(tick=10, channel=3, data=[69, 86]),
   midi.NoteOnEvent(tick=0, channel=3, data=[76, 86]),
   midi.ControlChangeEvent(tick=15, channel=3, data=[7, 116]),
   midi.ControlChangeEvent(tick=30, channel=3, data=[7, 111]),
   midi.ControlChangeEvent(tick=30, channel=3, data=[7, 109]),
   midi.ControlChangeEvent(tick=30, channel=3, data=[7, 105]),
   midi.NoteOnEvent(tick=5, channel=3, data=[76, 0]),
   midi.NoteOnEvent(tick=0, channel=3, data=[69, 0]),
   midi.NoteOnEvent(tick=10, channel=3, data=[74, 86]),
   midi.NoteOnEvent(tick=0, channel=3, data=[77, 86]),
   midi.ControlChangeEvent(tick=5, channel=3, data=[7, 104]),
   midi.ControlChangeEvent(tick=70, channel=3, data=[7, 102]),
   midi.ControlChangeEvent(tick=30, channel=3, data=[7, 101]),
   midi.NoteOnEvent(tick=5, channel=3, data=[77, 0]),
   midi.NoteOnEvent(tick=0, channel=3, data=[74, 0]),
   midi.NoteOnEvent(tick=10, channel=3, data=[76, 86]),
   midi.NoteOnEvent(tick=0, channel=3, data=[69, 86]),
   midi.ControlChangeEvent(tick=15, channel=3, data=[7, 101]),
   midi.ControlChangeEvent(tick=15, channel=3, data=[7, 100]),
   midi.ControlChangeEvent(tick=35, channel=3, data=[7, 99]),
   midi.NoteOnEvent(tick=45, channel=3, data=[69, 0]),
   midi.NoteOnEvent(tick=0, channel=3, data=[76, 0]),
   midi.NoteOnEvent(tick=10, channel=3, data=[74, 86]),
   midi.NoteOnEvent(tick=0, channel=3, data=[77, 86]),
   midi.ControlChangeEvent(tick=40, channel=3, data=[7, 106]),
   midi.ControlChangeEvent(tick=30, channel=3, data=[7, 116]),
   midi.ControlChangeEvent(tick=30, channel=3, data=[7, 112]),
   midi.ControlChangeEvent(tick=30, channel=3, data=[7, 107]),
   midi.ControlChangeEvent(tick=30, channel=3, data=[7, 101]),
   midi.ControlChangeEvent(tick=30, channel=3, data=[7, 99]),
   midi.ControlChangeEvent(tick=30, channel=3, data=[7, 96]),
   midi.ControlChangeEvent(tick=30, channel=3, data=[7, 94]),
   midi.ControlChangeEvent(tick=30, channel=3, data=[7, 92]),
   midi.ControlChangeEvent(tick=145, channel=3, data=[7, 94]),
   midi.ControlChangeEvent(tick=30, channel=3, data=[7, 96]),
   midi.ControlChangeEvent(tick=30, channel=3, data=[7, 96]),
   midi.ControlChangeEvent(tick=30, channel=3, data=[7, 99]),
   midi.ControlChangeEvent(tick=30, channel=3, data=[7, 101]),
   midi.ControlChangeEvent(tick=30, channel=3, data=[7, 102]),
   midi.ControlChangeEvent(tick=30, channel=3, data=[7, 104]),
   midi.ControlChangeEvent(tick=30, channel=3, data=[7, 108]),
   midi.ControlChangeEvent(tick=30, channel=3, data=[7, 109]),
   midi.ControlChangeEvent(tick=30, channel=3, data=[7, 111]),
   midi.ControlChangeEvent(tick=30, channel=3, data=[7, 112]),
   midi.ControlChangeEvent(tick=30, channel=3, data=[7, 115]),
   midi.ControlChangeEvent(tick=30, channel=3, data=[7, 116]),
   midi.ControlChangeEvent(tick=30, channel=3, data=[7, 119]),
   midi.ControlChangeEvent(tick=25, channel=3, data=[7, 120]),
   midi.ControlChangeEvent(tick=20, channel=3, data=[7, 121]),
   midi.NoteOnEvent(tick=90, channel=3, data=[77, 0]),
   midi.NoteOnEvent(tick=0, channel=3, data=[74, 0]),
   midi.NoteOnEvent(tick=10, channel=3, data=[76, 97]),
   midi.NoteOnEvent(tick=0, channel=3, data=[79, 97]),
   midi.ControlChangeEvent(tick=150, channel=3, data=[7, 120]),
   midi.ControlChangeEvent(tick=30, channel=3, data=[7, 120]),
   midi.ControlChangeEvent(tick=30, channel=3, data=[7, 116]),
   midi.ControlChangeEvent(tick=30, channel=3, data=[7, 112]),
   midi.ControlChangeEvent(tick=30, channel=3, data=[7, 110]),
   midi.ControlChangeEvent(tick=30, channel=3, data=[7, 109]),
   midi.ControlChangeEvent(tick=30, channel=3, data=[7, 106]),
   midi.ControlChangeEvent(tick=30, channel=3, data=[7, 102]),
   midi.ControlChangeEvent(tick=30, channel=3, data=[7, 101]),
   midi.ControlChangeEvent(tick=30, channel=3, data=[7, 99]),
   midi.ControlChangeEvent(tick=30, channel=3, data=[7, 96]),
   midi.NoteOnEvent(tick=30, channel=3, data=[79, 0]),
   midi.NoteOnEvent(tick=0, channel=3, data=[81, 97]),
   midi.ControlChangeEvent(tick=0, channel=3, data=[7, 94]),
   midi.ControlChangeEvent(tick=30, channel=3, data=[7, 94]),
   midi.ControlChangeEvent(tick=30, channel=3, data=[7, 93]),
   midi.ControlChangeEvent(tick=30, channel=3, data=[7, 92]),
   midi.ControlChangeEvent(tick=30, channel=3, data=[7, 89]),
   midi.ControlChangeEvent(tick=30, channel=3, data=[7, 88]),
   midi.ControlChangeEvent(tick=20, channel=3, data=[7, 87]),
   midi.ControlChangeEvent(tick=30, channel=3, data=[7, 86]),
   midi.ControlChangeEvent(tick=30, channel=3, data=[7, 85]),
   midi.NoteOnEvent(tick=10, channel=3, data=[76, 0]),
   midi.NoteOnEvent(tick=0, channel=3, data=[77, 97]),
   midi.ControlChangeEvent(tick=95, channel=3, data=[7, 86]),
   midi.ControlChangeEvent(tick=30, channel=3, data=[7, 87]),
   midi.ControlChangeEvent(tick=30, channel=3, data=[7, 90]),
   midi.ControlChangeEvent(tick=30, channel=3, data=[7, 96]),
   midi.ControlChangeEvent(tick=30, channel=3, data=[7, 98]),
   midi.NoteOnEvent(tick=15, channel=3, data=[77, 0]),
   midi.NoteOnEvent(tick=0, channel=3, data=[81, 0]),
   midi.ControlChangeEvent(tick=10, channel=3, data=[7, 101]),
   midi.ControlChangeEvent(tick=30, channel=3, data=[7, 107]),
   midi.ControlChangeEvent(tick=30, channel=3, data=[7, 111]),
   midi.ControlChangeEvent(tick=30, channel=3, data=[7, 115]),
   midi.ControlChangeEvent(tick=75, channel=3, data=[7, 112]),
   midi.ControlChangeEvent(tick=30, channel=3, data=[7, 109]),
   midi.ControlChangeEvent(tick=30, channel=3, data=[7, 109]),
   midi.NoteOnEvent(tick=15, channel=3, data=[81, 102]),
   midi.NoteOnEvent(tick=0, channel=3, data=[77, 102]),
   midi.NoteOnEvent(tick=60, channel=3, data=[77, 0]),
   midi.NoteOnEvent(tick=0, channel=3, data=[81, 0]),
   midi.ControlChangeEvent(tick=240, channel=3, data=[7, 109]),
   midi.ControlChangeEvent(tick=20, channel=3, data=[7, 106]),
   midi.ControlChangeEvent(tick=15, channel=3, data=[7, 105]),
   midi.ControlChangeEvent(tick=115, channel=3, data=[7, 104]),
   midi.NoteOnEvent(tick=30, channel=3, data=[77, 102]),
   midi.NoteOnEvent(tick=0, channel=3, data=[81, 102]),
   midi.NoteOnEvent(tick=60, channel=3, data=[81, 0]),
   midi.NoteOnEvent(tick=0, channel=3, data=[77, 0]),
   midi.ControlChangeEvent(tick=165, channel=3, data=[7, 103]),
   midi.NoteOnEvent(tick=135, channel=3, data=[77, 102]),
   midi.NoteOnEvent(tick=0, channel=3, data=[81, 102]),
   midi.ControlChangeEvent(tick=15, channel=3, data=[7, 102]),
   midi.ControlChangeEvent(tick=15, channel=3, data=[7, 101]),
   midi.ControlChangeEvent(tick=15, channel=3, data=[7, 101]),
   midi.NoteOnEvent(tick=15, channel=3, data=[81, 0]),
   midi.NoteOnEvent(tick=0, channel=3, data=[77, 0]),
   midi.ControlChangeEvent(tick=110, channel=3, data=[7, 100]),
   midi.NoteOnEvent(tick=70, channel=3, data=[76, 102]),
   midi.NoteOnEvent(tick=0, channel=3, data=[79, 102]),
   midi.NoteOnEvent(tick=60, channel=3, data=[79, 0]),
   midi.NoteOnEvent(tick=0, channel=3, data=[76, 0]),
   midi.ControlChangeEvent(tick=175, channel=3, data=[7, 99]),
   midi.NoteOnEvent(tick=5, channel=3, data=[75, 102]),
   midi.NoteOnEvent(tick=0, channel=3, data=[78, 102]),
   midi.ControlChangeEvent(tick=30, channel=3, data=[7, 98]),
   midi.NoteOnEvent(tick=30, channel=3, data=[78, 0]),
   midi.NoteOnEvent(tick=0, channel=3, data=[75, 0]),
   midi.NoteOnEvent(tick=180, channel=3, data=[79, 102]),
   midi.NoteOnEvent(tick=0, channel=3, data=[76, 102]),
   midi.NoteOnEvent(tick=60, channel=3, data=[76, 0]),
   midi.NoteOnEvent(tick=0, channel=3, data=[79, 0]),
   midi.ControlChangeEvent(tick=70, channel=3, data=[7, 98]),
   midi.ControlChangeEvent(tick=20, channel=3, data=[7, 96]),
   midi.ControlChangeEvent(tick=25, channel=3, data=[7, 96]),
   midi.ControlChangeEvent(tick=30, channel=3, data=[7, 96]),
   midi.ControlChangeEvent(tick=35, channel=3, data=[7, 96]),
   midi.ControlChangeEvent(tick=50, channel=3, data=[7, 96]),
   midi.ControlChangeEvent(tick=25, channel=3, data=[7, 94]),
   midi.ControlChangeEvent(tick=20, channel=3, data=[7, 94]),
   midi.ControlChangeEvent(tick=15, channel=3, data=[7, 93]),
   midi.ControlChangeEvent(tick=20, channel=3, data=[7, 92]),
   midi.ControlChangeEvent(tick=15, channel=3, data=[7, 92]),
   midi.ControlChangeEvent(tick=20, channel=3, data=[7, 90]),
   midi.ControlChangeEvent(tick=15, channel=3, data=[7, 89]),
   midi.ControlChangeEvent(tick=15, channel=3, data=[7, 89]),
   midi.ControlChangeEvent(tick=15, channel=3, data=[7, 87]),
   midi.ControlChangeEvent(tick=20, channel=3, data=[7, 87]),
   midi.ControlChangeEvent(tick=15, channel=3, data=[7, 86]),
   midi.ControlChangeEvent(tick=30, channel=3, data=[7, 86]),
   midi.ControlChangeEvent(tick=950, channel=3, data=[64, 0]),
   midi.ControlChangeEvent(tick=0, channel=3, data=[120, 0]),
   midi.EndOfTrackEvent(tick=0, data=[])]),
 midi.Track(\
  [midi.PortEvent(tick=0, data=[0]),
   midi.ProgramChangeEvent(tick=0, channel=4, data=[71]),
   midi.ControlChangeEvent(tick=0, channel=4, data=[10, 60]),
   midi.ControlChangeEvent(tick=4, channel=4, data=[64, 0]),
   midi.ControlChangeEvent(tick=0, channel=4, data=[91, 122]),
   midi.ControlChangeEvent(tick=600, channel=4, data=[7, 103]),
   midi.NoteOnEvent(tick=0, channel=4, data=[76, 112]),
   midi.NoteOnEvent(tick=30, channel=4, data=[76, 0]),
   midi.ControlChangeEvent(tick=2795, channel=4, data=[7, 76]),
   midi.ControlChangeEvent(tick=10, channel=4, data=[7, 76]),
   midi.ControlChangeEvent(tick=10, channel=4, data=[7, 75]),
   midi.ControlChangeEvent(tick=15, channel=4, data=[7, 75]),
   midi.ControlChangeEvent(tick=10, channel=4, data=[7, 75]),
   midi.ControlChangeEvent(tick=10, channel=4, data=[7, 74]),
   midi.ControlChangeEvent(tick=10, channel=4, data=[7, 73]),
   midi.ControlChangeEvent(tick=70, channel=4, data=[7, 74]),
   midi.ControlChangeEvent(tick=5, channel=4, data=[7, 75]),
   midi.ControlChangeEvent(tick=5, channel=4, data=[7, 75]),
   midi.ControlChangeEvent(tick=10, channel=4, data=[7, 75]),
   midi.ControlChangeEvent(tick=5, channel=4, data=[7, 76]),
   midi.ControlChangeEvent(tick=15, channel=4, data=[7, 76]),
   midi.ControlChangeEvent(tick=20, channel=4, data=[7, 76]),
   midi.ControlChangeEvent(tick=255, channel=4, data=[7, 77]),
   midi.ControlChangeEvent(tick=10, channel=4, data=[7, 77]),
   midi.ControlChangeEvent(tick=5, channel=4, data=[7, 78]),
   midi.ControlChangeEvent(tick=5, channel=4, data=[7, 79]),
   midi.ControlChangeEvent(tick=5, channel=4, data=[7, 80]),
   midi.ControlChangeEvent(tick=5, channel=4, data=[7, 80]),
   midi.ControlChangeEvent(tick=5, channel=4, data=[7, 81]),
   midi.ControlChangeEvent(tick=20, channel=4, data=[7, 81]),
   midi.NoteOnEvent(tick=30, channel=4, data=[64, 81]),
   midi.ControlChangeEvent(tick=10, channel=4, data=[7, 81]),
   midi.ControlChangeEvent(tick=45, channel=4, data=[7, 81]),
   midi.ControlChangeEvent(tick=10, channel=4, data=[7, 80]),
   midi.ControlChangeEvent(tick=15, channel=4, data=[7, 79]),
   midi.NoteOnEvent(tick=5, channel=4, data=[64, 0]),
   midi.ControlChangeEvent(tick=5, channel=4, data=[7, 78]),
   midi.ControlChangeEvent(tick=15, channel=4, data=[7, 77]),
   midi.ControlChangeEvent(tick=10, channel=4, data=[7, 76]),
   midi.NoteOnEvent(tick=5, channel=4, data=[65, 81]),
   midi.ControlChangeEvent(tick=10, channel=4, data=[7, 76]),
   midi.ControlChangeEvent(tick=15, channel=4, data=[7, 76]),
   midi.ControlChangeEvent(tick=40, channel=4, data=[7, 75]),
   midi.NoteOnEvent(tick=10, channel=4, data=[65, 0]),
   midi.NoteOnEvent(tick=20, channel=4, data=[67, 81]),
   midi.NoteOnEvent(tick=25, channel=4, data=[67, 0]),
   midi.NoteOnEvent(tick=0, channel=4, data=[65, 81]),
   midi.ControlChangeEvent(tick=20, channel=4, data=[7, 75]),
   midi.NoteOnEvent(tick=5, channel=4, data=[65, 0]),
   midi.ControlChangeEvent(tick=15, channel=4, data=[7, 75]),
   midi.NoteOnEvent(tick=20, channel=4, data=[64, 81]),
   midi.ControlChangeEvent(tick=0, channel=4, data=[7, 74]),
   midi.ControlChangeEvent(tick=15, channel=4, data=[7, 73]),
   midi.ControlChangeEvent(tick=20, channel=4, data=[7, 73]),
   midi.ControlChangeEvent(tick=20, channel=4, data=[7, 73]),
   midi.NoteOnEvent(tick=20, channel=4, data=[64, 0]),
   midi.ControlChangeEvent(tick=20, channel=4, data=[7, 72]),
   midi.ControlChangeEvent(tick=35, channel=4, data=[7, 73]),
   midi.ControlChangeEvent(tick=15, channel=4, data=[7, 73]),
   midi.ControlChangeEvent(tick=10, channel=4, data=[7, 75]),
   midi.ControlChangeEvent(tick=15, channel=4, data=[7, 76]),
   midi.NoteOnEvent(tick=10, channel=4, data=[64, 81]),
   midi.ControlChangeEvent(tick=0, channel=4, data=[7, 77]),
   midi.ControlChangeEvent(tick=15, channel=4, data=[7, 78]),
   midi.ControlChangeEvent(tick=10, channel=4, data=[7, 79]),
   midi.ControlChangeEvent(tick=10, channel=4, data=[7, 81]),
   midi.ControlChangeEvent(tick=15, channel=4, data=[7, 81]),
   midi.ControlChangeEvent(tick=15, channel=4, data=[7, 81]),
   midi.NoteOnEvent(tick=5, channel=4, data=[64, 0]),
   midi.ControlChangeEvent(tick=10, channel=4, data=[7, 81]),
   midi.ControlChangeEvent(tick=15, channel=4, data=[7, 79]),
   midi.NoteOnEvent(tick=0, channel=4, data=[65, 81]),
   midi.ControlChangeEvent(tick=15, channel=4, data=[7, 78]),
   midi.NoteOnEvent(tick=10, channel=4, data=[65, 0]),
   midi.NoteOnEvent(tick=0, channel=4, data=[65, 81]),
   midi.ControlChangeEvent(tick=5, channel=4, data=[7, 77]),
   midi.ControlChangeEvent(tick=15, channel=4, data=[7, 77]),
   midi.NoteOnEvent(tick=10, channel=4, data=[65, 0]),
   midi.ControlChangeEvent(tick=5, channel=4, data=[7, 76]),
   midi.ControlChangeEvent(tick=20, channel=4, data=[7, 76]),
   midi.NoteOnEvent(tick=5, channel=4, data=[67, 81]),
   midi.ControlChangeEvent(tick=15, channel=4, data=[7, 76]),
   midi.NoteOnEvent(tick=15, channel=4, data=[67, 0]),
   midi.ControlChangeEvent(tick=5, channel=4, data=[7, 75]),
   midi.NoteOnEvent(tick=25, channel=4, data=[64, 81]),
   midi.ControlChangeEvent(tick=25, channel=4, data=[7, 75]),
   midi.NoteOnEvent(tick=90, channel=4, data=[64, 0]),
   midi.ControlChangeEvent(tick=55, channel=4, data=[7, 75]),
   midi.ControlChangeEvent(tick=35, channel=4, data=[7, 75]),
   midi.ControlChangeEvent(tick=15, channel=4, data=[7, 75]),
   midi.ControlChangeEvent(tick=10, channel=4, data=[7, 76]),
   midi.NoteOnEvent(tick=10, channel=4, data=[67, 81]),
   midi.ControlChangeEvent(tick=5, channel=4, data=[7, 77]),
   midi.ControlChangeEvent(tick=10, channel=4, data=[7, 78]),
   midi.ControlChangeEvent(tick=10, channel=4, data=[7, 79]),
   midi.ControlChangeEvent(tick=10, channel=4, data=[7, 81]),
   midi.ControlChangeEvent(tick=10, channel=4, data=[7, 81]),
   midi.ControlChangeEvent(tick=15, channel=4, data=[7, 81]),
   midi.ControlChangeEvent(tick=10, channel=4, data=[7, 83]),
   midi.ControlChangeEvent(tick=15, channel=4, data=[7, 83]),
   midi.NoteOnEvent(tick=5, channel=4, data=[67, 0]),
   midi.ControlChangeEvent(tick=10, channel=4, data=[7, 83]),
   midi.NoteOnEvent(tick=20, channel=4, data=[69, 81]),
   midi.ControlChangeEvent(tick=15, channel=4, data=[7, 83]),
   midi.ControlChangeEvent(tick=15, channel=4, data=[7, 83]),
   midi.ControlChangeEvent(tick=15, channel=4, data=[7, 81]),
   midi.ControlChangeEvent(tick=10, channel=4, data=[7, 81]),
   midi.ControlChangeEvent(tick=15, channel=4, data=[7, 81]),
   midi.ControlChangeEvent(tick=10, channel=4, data=[7, 80]),
   midi.NoteOnEvent(tick=5, channel=4, data=[69, 0]),
   midi.ControlChangeEvent(tick=10, channel=4, data=[7, 79]),
   midi.NoteOnEvent(tick=0, channel=4, data=[71, 81]),
   midi.ControlChangeEvent(tick=15, channel=4, data=[7, 78]),
   midi.NoteOnEvent(tick=10, channel=4, data=[71, 0]),
   midi.NoteOnEvent(tick=0, channel=4, data=[69, 81]),
   midi.ControlChangeEvent(tick=0, channel=4, data=[7, 77]),
   midi.ControlChangeEvent(tick=15, channel=4, data=[7, 77]),
   midi.NoteOnEvent(tick=15, channel=4, data=[69, 0]),
   midi.ControlChangeEvent(tick=0, channel=4, data=[7, 76]),
   midi.NoteOnEvent(tick=30, channel=4, data=[67, 81]),
   midi.ControlChangeEvent(tick=0, channel=4, data=[7, 76]),
   midi.ControlChangeEvent(tick=25, channel=4, data=[7, 76]),
   midi.ControlChangeEvent(tick=20, channel=4, data=[7, 75]),
   midi.NoteOnEvent(tick=30, channel=4, data=[67, 0]),
   midi.ControlChangeEvent(tick=0, channel=4, data=[7, 75]),
   midi.ControlChangeEvent(tick=20, channel=4, data=[7, 75]),
   midi.ControlChangeEvent(tick=65, channel=4, data=[7, 75]),
   midi.ControlChangeEvent(tick=10, channel=4, data=[7, 76]),
   midi.NoteOnEvent(tick=10, channel=4, data=[67, 81]),
   midi.ControlChangeEvent(tick=0, channel=4, data=[7, 76]),
   midi.ControlChangeEvent(tick=15, channel=4, data=[7, 78]),
   midi.ControlChangeEvent(tick=10, channel=4, data=[7, 79]),
   midi.ControlChangeEvent(tick=15, channel=4, data=[7, 80]),
   midi.ControlChangeEvent(tick=10, channel=4, data=[7, 81]),
   midi.ControlChangeEvent(tick=15, channel=4, data=[7, 81]),
   midi.NoteOnEvent(tick=5, channel=4, data=[67, 0]),
   midi.ControlChangeEvent(tick=10, channel=4, data=[7, 83]),
   midi.ControlChangeEvent(tick=10, channel=4, data=[7, 83]),
   midi.NoteOnEvent(tick=5, channel=4, data=[69, 81]),
   midi.NoteOnEvent(tick=25, channel=4, data=[69, 0]),
   midi.NoteOnEvent(tick=0, channel=4, data=[69, 81]),
   midi.ControlChangeEvent(tick=5, channel=4, data=[7, 83]),
   midi.ControlChangeEvent(tick=10, channel=4, data=[7, 81]),
   midi.NoteOnEvent(tick=15, channel=4, data=[69, 0]),
   midi.ControlChangeEvent(tick=0, channel=4, data=[7, 81]),
   midi.ControlChangeEvent(tick=10, channel=4, data=[7, 78]),
   midi.ControlChangeEvent(tick=15, channel=4, data=[7, 77]),
   midi.NoteOnEvent(tick=5, channel=4, data=[71, 81]),
   midi.ControlChangeEvent(tick=5, channel=4, data=[7, 76]),
   midi.ControlChangeEvent(tick=15, channel=4, data=[7, 75]),
   midi.NoteOnEvent(tick=10, channel=4, data=[71, 0]),
   midi.ControlChangeEvent(tick=0, channel=4, data=[7, 75]),
   midi.ControlChangeEvent(tick=15, channel=4, data=[7, 74]),
   midi.ControlChangeEvent(tick=10, channel=4, data=[7, 73]),
   midi.NoteOnEvent(tick=5, channel=4, data=[67, 81]),
   midi.ControlChangeEvent(tick=5, channel=4, data=[7, 73]),
   midi.ControlChangeEvent(tick=15, channel=4, data=[7, 72]),
   midi.ControlChangeEvent(tick=10, channel=4, data=[7, 72]),
   midi.ControlChangeEvent(tick=15, channel=4, data=[7, 71]),
   midi.NoteOnEvent(tick=70, channel=4, data=[67, 0]),
   midi.ControlChangeEvent(tick=120, channel=4, data=[7, 72]),
   midi.NoteOnEvent(tick=5, channel=4, data=[64, 92]),
   midi.ControlChangeEvent(tick=5, channel=4, data=[7, 73]),
   midi.ControlChangeEvent(tick=5, channel=4, data=[7, 73]),
   midi.ControlChangeEvent(tick=10, channel=4, data=[7, 74]),
   midi.ControlChangeEvent(tick=5, channel=4, data=[7, 75]),
   midi.ControlChangeEvent(tick=10, channel=4, data=[7, 75]),
   midi.ControlChangeEvent(tick=15, channel=4, data=[7, 75]),
   midi.ControlChangeEvent(tick=10, channel=4, data=[7, 76]),
   midi.ControlChangeEvent(tick=10, channel=4, data=[7, 76]),
   midi.ControlChangeEvent(tick=30, channel=4, data=[7, 76]),
   midi.ControlChangeEvent(tick=15, channel=4, data=[7, 76]),
   midi.NoteOnEvent(tick=5, channel=4, data=[64, 0]),
   midi.NoteOnEvent(tick=0, channel=4, data=[65, 86]),
   midi.ControlChangeEvent(tick=20, channel=4, data=[7, 77]),
   midi.ControlChangeEvent(tick=45, channel=4, data=[7, 78]),
   midi.ControlChangeEvent(tick=15, channel=4, data=[7, 78]),
   midi.ControlChangeEvent(tick=10, channel=4, data=[7, 79]),
   midi.NoteOnEvent(tick=30, channel=4, data=[65, 0]),
   midi.NoteOnEvent(tick=0, channel=4, data=[71, 86]),
   midi.ControlChangeEvent(tick=10, channel=4, data=[7, 79]),
   midi.ControlChangeEvent(tick=15, channel=4, data=[7, 80]),
   midi.ControlChangeEvent(tick=20, channel=4, data=[7, 81]),
   midi.ControlChangeEvent(tick=15, channel=4, data=[7, 81]),
   midi.ControlChangeEvent(tick=10, channel=4, data=[7, 81]),
   midi.ControlChangeEvent(tick=10, channel=4, data=[7, 81]),
   midi.ControlChangeEvent(tick=75, channel=4, data=[7, 81]),
   midi.ControlChangeEvent(tick=10, channel=4, data=[7, 81]),
   midi.ControlChangeEvent(tick=15, channel=4, data=[7, 79]),
   midi.ControlChangeEvent(tick=10, channel=4, data=[7, 79]),
   midi.ControlChangeEvent(tick=10, channel=4, data=[7, 78]),
   midi.ControlChangeEvent(tick=15, channel=4, data=[7, 76]),
   midi.NoteOnEvent(tick=15, channel=4, data=[71, 0]),
   midi.NoteOnEvent(tick=10, channel=4, data=[69, 92]),
   midi.ControlChangeEvent(tick=45, channel=4, data=[7, 77]),
   midi.ControlChangeEvent(tick=25, channel=4, data=[7, 78]),
   midi.ControlChangeEvent(tick=20, channel=4, data=[7, 79]),
   midi.ControlChangeEvent(tick=15, channel=4, data=[7, 79]),
   midi.NoteOnEvent(tick=15, channel=4, data=[69, 0]),
   midi.NoteOnEvent(tick=0, channel=4, data=[70, 86]),
   midi.ControlChangeEvent(tick=0, channel=4, data=[7, 80]),
   midi.ControlChangeEvent(tick=10, channel=4, data=[7, 81]),
   midi.ControlChangeEvent(tick=10, channel=4, data=[7, 81]),
   midi.ControlChangeEvent(tick=15, channel=4, data=[7, 81]),
   midi.ControlChangeEvent(tick=10, channel=4, data=[7, 81]),
   midi.ControlChangeEvent(tick=10, channel=4, data=[7, 81]),
   midi.ControlChangeEvent(tick=20, channel=4, data=[7, 81]),
   midi.ControlChangeEvent(tick=15, channel=4, data=[7, 83]),
   midi.ControlChangeEvent(tick=10, channel=4, data=[7, 83]),
   midi.ControlChangeEvent(tick=15, channel=4, data=[7, 83]),
   midi.NoteOnEvent(tick=5, channel=4, data=[70, 0]),
   midi.NoteOnEvent(tick=0, channel=4, data=[76, 86]),
   midi.ControlChangeEvent(tick=5, channel=4, data=[7, 83]),
   midi.ControlChangeEvent(tick=15, channel=4, data=[7, 83]),
   midi.ControlChangeEvent(tick=10, channel=4, data=[7, 84]),
   midi.ControlChangeEvent(tick=15, channel=4, data=[7, 84]),
   midi.ControlChangeEvent(tick=15, channel=4, data=[7, 85]),
   midi.ControlChangeEvent(tick=10, channel=4, data=[7, 86]),
   midi.ControlChangeEvent(tick=15, channel=4, data=[7, 86]),
   midi.ControlChangeEvent(tick=10, channel=4, data=[7, 87]),
   midi.ControlChangeEvent(tick=15, channel=4, data=[7, 87]),
   midi.ControlChangeEvent(tick=10, channel=4, data=[7, 87]),
   midi.ControlChangeEvent(tick=10, channel=4, data=[7, 88]),
   midi.ControlChangeEvent(tick=15, channel=4, data=[7, 89]),
   midi.NoteOnEvent(tick=95, channel=4, data=[76, 0]),
   midi.NoteOnEvent(tick=0, channel=4, data=[77, 92]),
   midi.NoteOnEvent(tick=120, channel=4, data=[77, 0]),
   midi.NoteOnEvent(tick=0, channel=4, data=[76, 86]),
   midi.ControlChangeEvent(tick=20, channel=4, data=[7, 88]),
   midi.ControlChangeEvent(tick=10, channel=4, data=[7, 88]),
   midi.ControlChangeEvent(tick=15, channel=4, data=[7, 87]),
   midi.ControlChangeEvent(tick=10, channel=4, data=[7, 86]),
   midi.ControlChangeEvent(tick=10, channel=4, data=[7, 86]),
   midi.NoteOnEvent(tick=55, channel=4, data=[76, 0]),
   midi.NoteOnEvent(tick=0, channel=4, data=[69, 92]),
   midi.NoteOnEvent(tick=40, channel=4, data=[69, 0]),
   midi.NoteOnEvent(tick=0, channel=4, data=[71, 86]),
   midi.NoteOnEvent(tick=40, channel=4, data=[71, 0]),
   midi.NoteOnEvent(tick=0, channel=4, data=[72, 86]),
   midi.NoteOnEvent(tick=40, channel=4, data=[72, 0]),
   midi.NoteOnEvent(tick=0, channel=4, data=[71, 86]),
   midi.ControlChangeEvent(tick=15, channel=4, data=[7, 87]),
   midi.ControlChangeEvent(tick=15, channel=4, data=[7, 87]),
   midi.NoteOnEvent(tick=5, channel=4, data=[71, 0]),
   midi.ControlChangeEvent(tick=15, channel=4, data=[7, 87]),
   midi.NoteOnEvent(tick=10, channel=4, data=[74, 86]),
   midi.ControlChangeEvent(tick=5, channel=4, data=[7, 88]),
   midi.ControlChangeEvent(tick=15, channel=4, data=[7, 89]),
   midi.ControlChangeEvent(tick=25, channel=4, data=[7, 89]),
   midi.NoteOnEvent(tick=5, channel=4, data=[74, 0]),
   midi.NoteOnEvent(tick=10, channel=4, data=[68, 92]),
   midi.ControlChangeEvent(tick=0, channel=4, data=[7, 90]),
   midi.ControlChangeEvent(tick=15, channel=4, data=[7, 90]),
   midi.ControlChangeEvent(tick=10, channel=4, data=[7, 92]),
   midi.ControlChangeEvent(tick=55, channel=4, data=[7, 90]),
   midi.ControlChangeEvent(tick=10, channel=4, data=[7, 89]),
   midi.ControlChangeEvent(tick=15, channel=4, data=[7, 88]),
   midi.ControlChangeEvent(tick=15, channel=4, data=[7, 87]),
   midi.ControlChangeEvent(tick=10, channel=4, data=[7, 87]),
   midi.ControlChangeEvent(tick=15, channel=4, data=[7, 85]),
   midi.ControlChangeEvent(tick=10, channel=4, data=[7, 84]),
   midi.ControlChangeEvent(tick=10, channel=4, data=[7, 83]),
   midi.NoteOnEvent(tick=15, channel=4, data=[68, 0]),
   midi.NoteOnEvent(tick=0, channel=4, data=[69, 86]),
   midi.ControlChangeEvent(tick=0, channel=4, data=[7, 83]),
   midi.ControlChangeEvent(tick=10, channel=4, data=[7, 83]),
   midi.ControlChangeEvent(tick=15, channel=4, data=[7, 83]),
   midi.ControlChangeEvent(tick=20, channel=4, data=[7, 81]),
   midi.NoteOnEvent(tick=15, channel=4, data=[69, 0]),
   midi.NoteOnEvent(tick=0, channel=4, data=[72, 86]),
   midi.ControlChangeEvent(tick=10, channel=4, data=[7, 81]),
   midi.ControlChangeEvent(tick=15, channel=4, data=[7, 81]),
   midi.ControlChangeEvent(tick=20, channel=4, data=[7, 81]),
   midi.ControlChangeEvent(tick=15, channel=4, data=[7, 80]),
   midi.ControlChangeEvent(tick=25, channel=4, data=[7, 79]),
   midi.ControlChangeEvent(tick=15, channel=4, data=[7, 78]),
   midi.NoteOnEvent(tick=20, channel=4, data=[72, 0]),
   midi.ControlChangeEvent(tick=0, channel=4, data=[7, 77]),
   midi.NoteOnEvent(tick=0, channel=4, data=[71, 86]),
   midi.ControlChangeEvent(tick=20, channel=4, data=[7, 76]),
   midi.ControlChangeEvent(tick=15, channel=4, data=[7, 76]),
   midi.ControlChangeEvent(tick=10, channel=4, data=[7, 76]),
   midi.ControlChangeEvent(tick=10, channel=4, data=[7, 75]),
   midi.ControlChangeEvent(tick=15, channel=4, data=[7, 75]),
   midi.ControlChangeEvent(tick=15, channel=4, data=[7, 74]),
   midi.NoteOnEvent(tick=5, channel=4, data=[71, 0]),
   midi.ControlChangeEvent(tick=5, channel=4, data=[7, 73]),
   midi.ControlChangeEvent(tick=15, channel=4, data=[7, 72]),
   midi.NoteOnEvent(tick=10, channel=4, data=[56, 81]),
   midi.NoteOnEvent(tick=0, channel=4, data=[62, 81]),
   midi.ControlChangeEvent(tick=0, channel=4, data=[7, 71]),
   midi.ControlChangeEvent(tick=10, channel=4, data=[7, 70]),
   midi.ControlChangeEvent(tick=20, channel=4, data=[7, 69]),
   midi.NoteOnEvent(tick=90, channel=4, data=[56, 0]),
   midi.NoteOnEvent(tick=0, channel=4, data=[57, 81]),
   midi.NoteOnEvent(tick=120, channel=4, data=[57, 0]),
   midi.NoteOnEvent(tick=0, channel=4, data=[62, 0]),
   midi.NoteOnEvent(tick=0, channel=4, data=[62, 81]),
   midi.NoteOnEvent(tick=0, channel=4, data=[65, 81]),
   midi.NoteOnEvent(tick=235, channel=4, data=[65, 0]),
   midi.NoteOnEvent(tick=0, channel=4, data=[62, 0]),
   midi.NoteOnEvent(tick=5, channel=4, data=[61, 81]),
   midi.NoteOnEvent(tick=0, channel=4, data=[67, 81]),
   midi.NoteOnEvent(tick=120, channel=4, data=[61, 0]),
   midi.NoteOnEvent(tick=0, channel=4, data=[62, 81]),
   midi.NoteOnEvent(tick=120, channel=4, data=[62, 0]),
   midi.NoteOnEvent(tick=0, channel=4, data=[67, 0]),
   midi.NoteOnEvent(tick=0, channel=4, data=[67, 81]),
   midi.NoteOnEvent(tick=0, channel=4, data=[70, 81]),
   midi.NoteOnEvent(tick=235, channel=4, data=[70, 0]),
   midi.NoteOnEvent(tick=0, channel=4, data=[67, 0]),
   midi.NoteOnEvent(tick=5, channel=4, data=[69, 81]),
   midi.NoteOnEvent(tick=0, channel=4, data=[65, 81]),
   midi.NoteOnEvent(tick=120, channel=4, data=[65, 0]),
   midi.NoteOnEvent(tick=0, channel=4, data=[69, 0]),
   midi.NoteOnEvent(tick=0, channel=4, data=[65, 81]),
   midi.NoteOnEvent(tick=0, channel=4, data=[69, 81]),
   midi.NoteOnEvent(tick=120, channel=4, data=[69, 0]),
   midi.NoteOnEvent(tick=0, channel=4, data=[65, 0]),
   midi.NoteOnEvent(tick=0, channel=4, data=[69, 81]),
   midi.NoteOnEvent(tick=0, channel=4, data=[65, 81]),
   midi.NoteOnEvent(tick=100, channel=4, data=[65, 0]),
   midi.NoteOnEvent(tick=0, channel=4, data=[69, 0]),
   midi.ControlChangeEvent(tick=1505, channel=4, data=[7, 69]),
   midi.ControlChangeEvent(tick=10, channel=4, data=[7, 69]),
   midi.ControlChangeEvent(tick=15, channel=4, data=[7, 68]),
   midi.ControlChangeEvent(tick=10, channel=4, data=[7, 67]),
   midi.ControlChangeEvent(tick=10, channel=4, data=[7, 67]),
   midi.ControlChangeEvent(tick=10, channel=4, data=[7, 66]),
   midi.ControlChangeEvent(tick=15, channel=4, data=[7, 66]),
   midi.ControlChangeEvent(tick=10, channel=4, data=[7, 66]),
   midi.ControlChangeEvent(tick=10, channel=4, data=[7, 66]),
   midi.ControlChangeEvent(tick=10, channel=4, data=[7, 65]),
   midi.ControlChangeEvent(tick=10, channel=4, data=[7, 65]),
   midi.ControlChangeEvent(tick=15, channel=4, data=[7, 65]),
   midi.ControlChangeEvent(tick=10, channel=4, data=[7, 65]),
   midi.ControlChangeEvent(tick=15, channel=4, data=[7, 65]),
   midi.ControlChangeEvent(tick=15, channel=4, data=[7, 65]),
   midi.ControlChangeEvent(tick=15, channel=4, data=[7, 65]),
   midi.ControlChangeEvent(tick=25, channel=4, data=[7, 65]),
   midi.ControlChangeEvent(tick=10, channel=4, data=[7, 63]),
   midi.ControlChangeEvent(tick=15, channel=4, data=[7, 63]),
   midi.ControlChangeEvent(tick=25, channel=4, data=[7, 63]),
   midi.ControlChangeEvent(tick=20, channel=4, data=[7, 63]),
   midi.ControlChangeEvent(tick=20, channel=4, data=[7, 63]),
   midi.ControlChangeEvent(tick=230, channel=4, data=[7, 63]),
   midi.ControlChangeEvent(tick=30, channel=4, data=[7, 63]),
   midi.ControlChangeEvent(tick=2470, channel=4, data=[7, 63]),
   midi.ControlChangeEvent(tick=15, channel=4, data=[7, 63]),
   midi.ControlChangeEvent(tick=625, channel=4, data=[7, 61]),
   midi.ControlChangeEvent(tick=1700, channel=4, data=[7, 63]),
   midi.ControlChangeEvent(tick=15, channel=4, data=[7, 63]),
   midi.ControlChangeEvent(tick=20, channel=4, data=[7, 63]),
   midi.ControlChangeEvent(tick=15, channel=4, data=[7, 65]),
   midi.ControlChangeEvent(tick=20, channel=4, data=[7, 65]),
   midi.ControlChangeEvent(tick=20, channel=4, data=[7, 65]),
   midi.ControlChangeEvent(tick=20, channel=4, data=[7, 66]),
   midi.NoteOnEvent(tick=0, channel=4, data=[57, 92]),
   midi.NoteOnEvent(tick=0, channel=4, data=[60, 92]),
   midi.ControlChangeEvent(tick=15, channel=4, data=[7, 67]),
   midi.ControlChangeEvent(tick=20, channel=4, data=[7, 69]),
   midi.ControlChangeEvent(tick=20, channel=4, data=[7, 71]),
   midi.ControlChangeEvent(tick=20, channel=4, data=[7, 73]),
   midi.ControlChangeEvent(tick=20, channel=4, data=[7, 76]),
   midi.ControlChangeEvent(tick=20, channel=4, data=[7, 78]),
   midi.ControlChangeEvent(tick=20, channel=4, data=[7, 81]),
   midi.ControlChangeEvent(tick=20, channel=4, data=[7, 81]),
   midi.ControlChangeEvent(tick=20, channel=4, data=[7, 83]),
   midi.ControlChangeEvent(tick=20, channel=4, data=[7, 84]),
   midi.ControlChangeEvent(tick=20, channel=4, data=[7, 86]),
   midi.ControlChangeEvent(tick=20, channel=4, data=[7, 89]),
   midi.ControlChangeEvent(tick=20, channel=4, data=[7, 90]),
   midi.ControlChangeEvent(tick=25, channel=4, data=[7, 92]),
   midi.ControlChangeEvent(tick=20, channel=4, data=[7, 94]),
   midi.ControlChangeEvent(tick=20, channel=4, data=[7, 94]),
   midi.ControlChangeEvent(tick=20, channel=4, data=[7, 94]),
   midi.NoteOnEvent(tick=15, channel=4, data=[60, 0]),
   midi.NoteOnEvent(tick=0, channel=4, data=[57, 0]),
   midi.ControlChangeEvent(tick=10, channel=4, data=[7, 94]),
   midi.ControlChangeEvent(tick=15, channel=4, data=[7, 96]),
   midi.ControlChangeEvent(tick=30, channel=4, data=[7, 94]),
   midi.NoteOnEvent(tick=10, channel=4, data=[76, 92]),
   midi.NoteOnEvent(tick=0, channel=4, data=[72, 92]),
   midi.ControlChangeEvent(tick=10, channel=4, data=[7, 90]),
   midi.NoteOnEvent(tick=15, channel=4, data=[72, 0]),
   midi.NoteOnEvent(tick=0, channel=4, data=[76, 0]),
   midi.ControlChangeEvent(tick=5, channel=4, data=[7, 87]),
   midi.ControlChangeEvent(tick=20, channel=4, data=[7, 84]),
   midi.NoteOnEvent(tick=10, channel=4, data=[71, 92]),
   midi.NoteOnEvent(tick=0, channel=4, data=[74, 92]),
   midi.ControlChangeEvent(tick=10, channel=4, data=[7, 84]),
   midi.NoteOnEvent(tick=15, channel=4, data=[74, 0]),
   midi.NoteOnEvent(tick=0, channel=4, data=[71, 0]),
   midi.ControlChangeEvent(tick=10, channel=4, data=[7, 83]),
   midi.ControlChangeEvent(tick=20, channel=4, data=[7, 83]),
   midi.ControlChangeEvent(tick=20, channel=4, data=[7, 83]),
   midi.NoteOnEvent(tick=105, channel=4, data=[65, 92]),
   midi.NoteOnEvent(tick=0, channel=4, data=[69, 92]),
   midi.NoteOnEvent(tick=25, channel=4, data=[69, 0]),
   midi.NoteOnEvent(tick=0, channel=4, data=[65, 0]),
   midi.ControlChangeEvent(tick=0, channel=4, data=[7, 83]),
   midi.NoteOnEvent(tick=35, channel=4, data=[64, 92]),
   midi.NoteOnEvent(tick=0, channel=4, data=[68, 92]),
   midi.ControlChangeEvent(tick=10, channel=4, data=[7, 83]),
   midi.NoteOnEvent(tick=15, channel=4, data=[68, 0]),
   midi.NoteOnEvent(tick=0, channel=4, data=[64, 0]),
   midi.ControlChangeEvent(tick=95, channel=4, data=[7, 81]),
   midi.NoteOnEvent(tick=60, channel=4, data=[60, 92]),
   midi.NoteOnEvent(tick=0, channel=4, data=[64, 92]),
   midi.NoteOnEvent(tick=25, channel=4, data=[64, 0]),
   midi.NoteOnEvent(tick=0, channel=4, data=[60, 0]),
   midi.ControlChangeEvent(tick=0, channel=4, data=[7, 81]),
   midi.ControlChangeEvent(tick=30, channel=4, data=[7, 81]),
   midi.NoteOnEvent(tick=5, channel=4, data=[62, 92]),
   midi.NoteOnEvent(tick=0, channel=4, data=[59, 92]),
   midi.NoteOnEvent(tick=25, channel=4, data=[59, 0]),
   midi.NoteOnEvent(tick=0, channel=4, data=[62, 0]),
   midi.ControlChangeEvent(tick=25, channel=4, data=[7, 81]),
   midi.ControlChangeEvent(tick=40, channel=4, data=[7, 81]),
   midi.ControlChangeEvent(tick=20, channel=4, data=[7, 81]),
   midi.ControlChangeEvent(tick=15, channel=4, data=[7, 79]),
   midi.ControlChangeEvent(tick=20, channel=4, data=[7, 78]),
   midi.ControlChangeEvent(tick=15, channel=4, data=[7, 77]),
   midi.ControlChangeEvent(tick=20, channel=4, data=[7, 77]),
   midi.ControlChangeEvent(tick=15, channel=4, data=[7, 76]),
   midi.ControlChangeEvent(tick=20, channel=4, data=[7, 76]),
   midi.ControlChangeEvent(tick=45, channel=4, data=[7, 76]),
   midi.ControlChangeEvent(tick=25, channel=4, data=[7, 75]),
   midi.ControlChangeEvent(tick=20, channel=4, data=[7, 75]),
   midi.ControlChangeEvent(tick=445, channel=4, data=[7, 75]),
   midi.ControlChangeEvent(tick=40, channel=4, data=[7, 76]),
   midi.ControlChangeEvent(tick=20, channel=4, data=[7, 76]),
   midi.ControlChangeEvent(tick=20, channel=4, data=[7, 77]),
   midi.ControlChangeEvent(tick=20, channel=4, data=[7, 78]),
   midi.ControlChangeEvent(tick=20, channel=4, data=[7, 79]),
   midi.ControlChangeEvent(tick=20, channel=4, data=[7, 81]),
   midi.ControlChangeEvent(tick=15, channel=4, data=[7, 81]),
   midi.ControlChangeEvent(tick=20, channel=4, data=[7, 81]),
   midi.ControlChangeEvent(tick=20, channel=4, data=[7, 83]),
   midi.NoteOnEvent(tick=15, channel=4, data=[57, 81]),
   midi.NoteOnEvent(tick=0, channel=4, data=[60, 81]),
   midi.ControlChangeEvent(tick=5, channel=4, data=[7, 83]),
   midi.ControlChangeEvent(tick=20, channel=4, data=[7, 84]),
   midi.ControlChangeEvent(tick=20, channel=4, data=[7, 86]),
   midi.ControlChangeEvent(tick=20, channel=4, data=[7, 87]),
   midi.ControlChangeEvent(tick=25, channel=4, data=[7, 88]),
   midi.ControlChangeEvent(tick=20, channel=4, data=[7, 89]),
   midi.ControlChangeEvent(tick=20, channel=4, data=[7, 90]),
   midi.ControlChangeEvent(tick=20, channel=4, data=[7, 92]),
   midi.ControlChangeEvent(tick=15, channel=4, data=[7, 94]),
   midi.ControlChangeEvent(tick=20, channel=4, data=[7, 94]),
   midi.ControlChangeEvent(tick=20, channel=4, data=[7, 94]),
   midi.ControlChangeEvent(tick=20, channel=4, data=[7, 96]),
   midi.NoteOnEvent(tick=130, channel=4, data=[60, 0]),
   midi.NoteOnEvent(tick=0, channel=4, data=[57, 0]),
   midi.NoteOnEvent(tick=65, channel=4, data=[74, 92]),
   midi.NoteOnEvent(tick=0, channel=4, data=[70, 81]),
   midi.NoteOnEvent(tick=25, channel=4, data=[70, 0]),
   midi.NoteOnEvent(tick=0, channel=4, data=[74, 0]),
   midi.NoteOnEvent(tick=35, channel=4, data=[69, 81]),
   midi.NoteOnEvent(tick=0, channel=4, data=[72, 92]),
   midi.NoteOnEvent(tick=25, channel=4, data=[72, 0]),
   midi.NoteOnEvent(tick=0, channel=4, data=[69, 0]),
   midi.ControlChangeEvent(tick=5, channel=4, data=[7, 96]),
   midi.ControlChangeEvent(tick=20, channel=4, data=[7, 94]),
   midi.ControlChangeEvent(tick=15, channel=4, data=[7, 94]),
   midi.ControlChangeEvent(tick=20, channel=4, data=[7, 92]),
   midi.ControlChangeEvent(tick=20, channel=4, data=[7, 90]),
   midi.ControlChangeEvent(tick=20, channel=4, data=[7, 90]),
   midi.ControlChangeEvent(tick=20, channel=4, data=[7, 89]),
   midi.ControlChangeEvent(tick=20, channel=4, data=[7, 87]),
   midi.NoteOnEvent(tick=15, channel=4, data=[63, 81]),
   midi.NoteOnEvent(tick=0, channel=4, data=[67, 92]),
   midi.ControlChangeEvent(tick=5, channel=4, data=[7, 87]),
   midi.ControlChangeEvent(tick=15, channel=4, data=[7, 86]),
   midi.NoteOnEvent(tick=5, channel=4, data=[67, 0]),
   midi.NoteOnEvent(tick=0, channel=4, data=[63, 0]),
   midi.ControlChangeEvent(tick=15, channel=4, data=[7, 84]),
   midi.NoteOnEvent(tick=20, channel=4, data=[62, 81]),
   midi.NoteOnEvent(tick=0, channel=4, data=[66, 92]),
   midi.ControlChangeEvent(tick=0, channel=4, data=[7, 84]),
   midi.NoteOnEvent(tick=25, channel=4, data=[66, 0]),
   midi.NoteOnEvent(tick=0, channel=4, data=[62, 0]),
   midi.ControlChangeEvent(tick=20, channel=4, data=[7, 83]),
   midi.ControlChangeEvent(tick=35, channel=4, data=[7, 83]),
   midi.NoteOnEvent(tick=100, channel=4, data=[58, 81]),
   midi.NoteOnEvent(tick=0, channel=4, data=[62, 92]),
   midi.ControlChangeEvent(tick=20, channel=4, data=[7, 83]),
   midi.NoteOnEvent(tick=5, channel=4, data=[62, 0]),
   midi.NoteOnEvent(tick=0, channel=4, data=[58, 0]),
   midi.ControlChangeEvent(tick=15, channel=4, data=[7, 84]),
   midi.ControlChangeEvent(tick=20, channel=4, data=[7, 85]),
   midi.NoteOnEvent(tick=0, channel=4, data=[60, 92]),
   midi.NoteOnEvent(tick=0, channel=4, data=[57, 81]),
   midi.NoteOnEvent(tick=25, channel=4, data=[57, 0]),
   midi.NoteOnEvent(tick=0, channel=4, data=[60, 0]),
   midi.ControlChangeEvent(tick=2530, channel=4, data=[7, 84]),
   midi.ControlChangeEvent(tick=95, channel=4, data=[7, 84]),
   midi.ControlChangeEvent(tick=30, channel=4, data=[7, 83]),
   midi.ControlChangeEvent(tick=15, channel=4, data=[7, 83]),
   midi.ControlChangeEvent(tick=45, channel=4, data=[7, 83]),
   midi.ControlChangeEvent(tick=25, channel=4, data=[7, 83]),
   midi.ControlChangeEvent(tick=35, channel=4, data=[7, 83]),
   midi.ControlChangeEvent(tick=110, channel=4, data=[7, 83]),
   midi.ControlChangeEvent(tick=15, channel=4, data=[7, 83]),
   midi.ControlChangeEvent(tick=10, channel=4, data=[7, 84]),
   midi.ControlChangeEvent(tick=15, channel=4, data=[7, 84]),
   midi.ControlChangeEvent(tick=10, channel=4, data=[7, 86]),
   midi.ControlChangeEvent(tick=15, channel=4, data=[7, 86]),
   midi.ControlChangeEvent(tick=10, channel=4, data=[7, 87]),
   midi.ControlChangeEvent(tick=15, channel=4, data=[7, 87]),
   midi.ControlChangeEvent(tick=10, channel=4, data=[7, 88]),
   midi.ControlChangeEvent(tick=15, channel=4, data=[7, 89]),
   midi.ControlChangeEvent(tick=35, channel=4, data=[7, 88]),
   midi.ControlChangeEvent(tick=10, channel=4, data=[7, 87]),
   midi.ControlChangeEvent(tick=15, channel=4, data=[7, 87]),
   midi.ControlChangeEvent(tick=10, channel=4, data=[7, 87]),
   midi.ControlChangeEvent(tick=15, channel=4, data=[7, 86]),
   midi.ControlChangeEvent(tick=15, channel=4, data=[7, 85]),
   midi.ControlChangeEvent(tick=10, channel=4, data=[7, 84]),
   midi.ControlChangeEvent(tick=30, channel=4, data=[7, 84]),
   midi.ControlChangeEvent(tick=40, channel=4, data=[7, 83]),
   midi.ControlChangeEvent(tick=15, channel=4, data=[7, 83]),
   midi.ControlChangeEvent(tick=30, channel=4, data=[7, 83]),
   midi.ControlChangeEvent(tick=10, channel=4, data=[7, 83]),
   midi.ControlChangeEvent(tick=15, channel=4, data=[7, 83]),
   midi.ControlChangeEvent(tick=15, channel=4, data=[7, 83]),
   midi.ControlChangeEvent(tick=20, channel=4, data=[7, 81]),
   midi.ControlChangeEvent(tick=30, channel=4, data=[7, 81]),
   midi.ControlChangeEvent(tick=15, channel=4, data=[7, 81]),
   midi.ControlChangeEvent(tick=15, channel=4, data=[7, 81]),
   midi.ControlChangeEvent(tick=10, channel=4, data=[7, 81]),
   midi.ControlChangeEvent(tick=20, channel=4, data=[7, 81]),
   midi.ControlChangeEvent(tick=195, channel=4, data=[7, 81]),
   midi.NoteOnEvent(tick=125, channel=4, data=[72, 97]),
   midi.ControlChangeEvent(tick=160, channel=4, data=[7, 81]),
   midi.ControlChangeEvent(tick=20, channel=4, data=[7, 81]),
   midi.ControlChangeEvent(tick=30, channel=4, data=[7, 81]),
   midi.NoteOnEvent(tick=30, channel=4, data=[72, 0]),
   midi.NoteOnEvent(tick=0, channel=4, data=[77, 92]),
   midi.ControlChangeEvent(tick=5, channel=4, data=[7, 80]),
   midi.ControlChangeEvent(tick=65, channel=4, data=[7, 81]),
   midi.ControlChangeEvent(tick=15, channel=4, data=[7, 81]),
   midi.ControlChangeEvent(tick=25, channel=4, data=[7, 81]),
   midi.ControlChangeEvent(tick=20, channel=4, data=[7, 81]),
   midi.ControlChangeEvent(tick=15, channel=4, data=[7, 83]),
   midi.ControlChangeEvent(tick=15, channel=4, data=[7, 83]),
   midi.ControlChangeEvent(tick=15, channel=4, data=[7, 83]),
   midi.ControlChangeEvent(tick=15, channel=4, data=[7, 83]),
   midi.ControlChangeEvent(tick=20, channel=4, data=[7, 83]),
   midi.ControlChangeEvent(tick=10, channel=4, data=[7, 84]),
   midi.NoteOnEvent(tick=10, channel=4, data=[77, 0]),
   midi.ControlChangeEvent(tick=10, channel=4, data=[7, 86]),
   midi.NoteOnEvent(tick=0, channel=4, data=[72, 102]),
   midi.NoteOnEvent(tick=0, channel=4, data=[81, 102]),
   midi.ControlChangeEvent(tick=10, channel=4, data=[7, 87]),
   midi.ControlChangeEvent(tick=15, channel=4, data=[7, 88]),
   midi.ControlChangeEvent(tick=10, channel=4, data=[7, 90]),
   midi.ControlChangeEvent(tick=15, channel=4, data=[7, 96]),
   midi.ControlChangeEvent(tick=10, channel=4, data=[7, 96]),
   midi.ControlChangeEvent(tick=40, channel=4, data=[7, 96]),
   midi.ControlChangeEvent(tick=10, channel=4, data=[7, 94]),
   midi.ControlChangeEvent(tick=15, channel=4, data=[7, 90]),
   midi.ControlChangeEvent(tick=15, channel=4, data=[7, 89]),
   midi.ControlChangeEvent(tick=10, channel=4, data=[7, 87]),
   midi.ControlChangeEvent(tick=15, channel=4, data=[7, 85]),
   midi.ControlChangeEvent(tick=15, channel=4, data=[7, 83]),
   midi.ControlChangeEvent(tick=15, channel=4, data=[7, 83]),
   midi.ControlChangeEvent(tick=10, channel=4, data=[7, 83]),
   midi.ControlChangeEvent(tick=15, channel=4, data=[7, 81]),
   midi.ControlChangeEvent(tick=15, channel=4, data=[7, 81]),
   midi.ControlChangeEvent(tick=10, channel=4, data=[7, 81]),
   midi.ControlChangeEvent(tick=15, channel=4, data=[7, 79]),
   midi.ControlChangeEvent(tick=10, channel=4, data=[7, 79]),
   midi.ControlChangeEvent(tick=10, channel=4, data=[7, 77]),
   midi.ControlChangeEvent(tick=15, channel=4, data=[7, 77]),
   midi.ControlChangeEvent(tick=10, channel=4, data=[7, 76]),
   midi.ControlChangeEvent(tick=15, channel=4, data=[7, 75]),
   midi.ControlChangeEvent(tick=10, channel=4, data=[7, 75]),
   midi.ControlChangeEvent(tick=10, channel=4, data=[7, 74]),
   midi.ControlChangeEvent(tick=15, channel=4, data=[7, 73]),
   midi.ControlChangeEvent(tick=10, channel=4, data=[7, 73]),
   midi.ControlChangeEvent(tick=5, channel=4, data=[7, 72]),
   midi.ControlChangeEvent(tick=10, channel=4, data=[7, 71]),
   midi.ControlChangeEvent(tick=5, channel=4, data=[7, 70]),
   midi.ControlChangeEvent(tick=10, channel=4, data=[7, 69]),
   midi.ControlChangeEvent(tick=5, channel=4, data=[7, 69]),
   midi.ControlChangeEvent(tick=20, channel=4, data=[7, 69]),
   midi.ControlChangeEvent(tick=10, channel=4, data=[7, 68]),
   midi.ControlChangeEvent(tick=10, channel=4, data=[7, 68]),
   midi.ControlChangeEvent(tick=10, channel=4, data=[7, 67]),
   midi.ControlChangeEvent(tick=5, channel=4, data=[7, 67]),
   midi.ControlChangeEvent(tick=20, channel=4, data=[7, 67]),
   midi.NoteOnEvent(tick=5, channel=4, data=[81, 0]),
   midi.NoteOnEvent(tick=0, channel=4, data=[72, 0]),
   midi.NoteOnEvent(tick=0, channel=4, data=[71, 79]),
   midi.NoteOnEvent(tick=0, channel=4, data=[79, 79]),
   midi.ControlChangeEvent(tick=0, channel=4, data=[7, 66]),
   midi.ControlChangeEvent(tick=20, channel=4, data=[7, 66]),
   midi.ControlChangeEvent(tick=25, channel=4, data=[7, 66]),
   midi.NoteOnEvent(tick=15, channel=4, data=[79, 0]),
   midi.NoteOnEvent(tick=0, channel=4, data=[71, 0]),
   midi.ControlChangeEvent(tick=10, channel=4, data=[7, 65]),
   midi.ControlChangeEvent(tick=155, channel=4, data=[7, 66]),
   midi.ControlChangeEvent(tick=10, channel=4, data=[7, 66]),
   midi.ControlChangeEvent(tick=40, channel=4, data=[7, 66]),
   midi.ControlChangeEvent(tick=45, channel=4, data=[7, 67]),
   midi.ControlChangeEvent(tick=30, channel=4, data=[7, 67]),
   midi.ControlChangeEvent(tick=15, channel=4, data=[7, 67]),
   midi.ControlChangeEvent(tick=25, channel=4, data=[7, 68]),
   midi.ControlChangeEvent(tick=30, channel=4, data=[7, 68]),
   midi.ControlChangeEvent(tick=15, channel=4, data=[7, 69]),
   midi.ControlChangeEvent(tick=10, channel=4, data=[7, 69]),
   midi.ControlChangeEvent(tick=10, channel=4, data=[7, 69]),
   midi.ControlChangeEvent(tick=10, channel=4, data=[7, 70]),
   midi.ControlChangeEvent(tick=10, channel=4, data=[7, 71]),
   midi.ControlChangeEvent(tick=15, channel=4, data=[7, 72]),
   midi.ControlChangeEvent(tick=10, channel=4, data=[7, 73]),
   midi.ControlChangeEvent(tick=15, channel=4, data=[7, 73]),
   midi.ControlChangeEvent(tick=20, channel=4, data=[7, 73]),
   midi.ControlChangeEvent(tick=15, channel=4, data=[7, 74]),
   midi.ControlChangeEvent(tick=15, channel=4, data=[7, 75]),
   midi.ControlChangeEvent(tick=10, channel=4, data=[7, 75]),
   midi.ControlChangeEvent(tick=10, channel=4, data=[7, 75]),
   midi.ControlChangeEvent(tick=10, channel=4, data=[7, 76]),
   midi.ControlChangeEvent(tick=15, channel=4, data=[7, 76]),
   midi.ControlChangeEvent(tick=10, channel=4, data=[7, 76]),
   midi.ControlChangeEvent(tick=10, channel=4, data=[7, 77]),
   midi.ControlChangeEvent(tick=25, channel=4, data=[7, 77]),
   midi.ControlChangeEvent(tick=20, channel=4, data=[7, 78]),
   midi.ControlChangeEvent(tick=15, channel=4, data=[7, 79]),
   midi.ControlChangeEvent(tick=25, channel=4, data=[7, 79]),
   midi.ControlChangeEvent(tick=15, channel=4, data=[7, 80]),
   midi.ControlChangeEvent(tick=15, channel=4, data=[7, 81]),
   midi.ControlChangeEvent(tick=20, channel=4, data=[7, 81]),
   midi.ControlChangeEvent(tick=15, channel=4, data=[7, 81]),
   midi.ControlChangeEvent(tick=20, channel=4, data=[7, 81]),
   midi.ControlChangeEvent(tick=15, channel=4, data=[7, 81]),
   midi.ControlChangeEvent(tick=15, channel=4, data=[7, 81]),
   midi.ControlChangeEvent(tick=25, channel=4, data=[7, 83]),
   midi.ControlChangeEvent(tick=25, channel=4, data=[7, 83]),
   midi.ControlChangeEvent(tick=20, channel=4, data=[7, 83]),
   midi.ControlChangeEvent(tick=15, channel=4, data=[7, 83]),
   midi.ControlChangeEvent(tick=15, channel=4, data=[7, 83]),
   midi.ControlChangeEvent(tick=20, channel=4, data=[7, 83]),
   midi.ControlChangeEvent(tick=35, channel=4, data=[7, 84]),
   midi.ControlChangeEvent(tick=25, channel=4, data=[7, 84]),
   midi.ControlChangeEvent(tick=15, channel=4, data=[7, 85]),
   midi.ControlChangeEvent(tick=25, channel=4, data=[7, 86]),
   midi.ControlChangeEvent(tick=30, channel=4, data=[7, 86]),
   midi.ControlChangeEvent(tick=15, channel=4, data=[7, 87]),
   midi.ControlChangeEvent(tick=10, channel=4, data=[7, 87]),
   midi.ControlChangeEvent(tick=10, channel=4, data=[7, 87]),
   midi.NoteOnEvent(tick=25, channel=4, data=[71, 76]),
   midi.ControlChangeEvent(tick=0, channel=4, data=[7, 88]),
   midi.ControlChangeEvent(tick=40, channel=4, data=[7, 87]),
   midi.ControlChangeEvent(tick=10, channel=4, data=[7, 87]),
   midi.NoteOnEvent(tick=10, channel=4, data=[71, 0]),
   midi.NoteOnEvent(tick=0, channel=4, data=[69, 81]),
   midi.ControlChangeEvent(tick=5, channel=4, data=[7, 86]),
   midi.ControlChangeEvent(tick=10, channel=4, data=[7, 85]),
   midi.ControlChangeEvent(tick=10, channel=4, data=[7, 84]),
   midi.ControlChangeEvent(tick=10, channel=4, data=[7, 83]),
   midi.ControlChangeEvent(tick=10, channel=4, data=[7, 83]),
   midi.ControlChangeEvent(tick=10, channel=4, data=[7, 83]),
   midi.ControlChangeEvent(tick=15, channel=4, data=[7, 83]),
   midi.ControlChangeEvent(tick=10, channel=4, data=[7, 81]),
   midi.ControlChangeEvent(tick=10, channel=4, data=[7, 81]),
   midi.ControlChangeEvent(tick=10, channel=4, data=[7, 81]),
   midi.ControlChangeEvent(tick=15, channel=4, data=[7, 81]),
   midi.NoteOnEvent(tick=5, channel=4, data=[69, 0]),
   midi.NoteOnEvent(tick=0, channel=4, data=[67, 71]),
   midi.ControlChangeEvent(tick=25, channel=4, data=[7, 81]),
   midi.ControlChangeEvent(tick=15, channel=4, data=[7, 80]),
   midi.ControlChangeEvent(tick=15, channel=4, data=[7, 79]),
   midi.ControlChangeEvent(tick=30, channel=4, data=[7, 79]),
   midi.ControlChangeEvent(tick=30, channel=4, data=[7, 79]),
   midi.NoteOnEvent(tick=10, channel=4, data=[67, 0]),
   midi.ControlChangeEvent(tick=0, channel=4, data=[7, 81]),
   midi.ControlChangeEvent(tick=15, channel=4, data=[7, 81]),
   midi.ControlChangeEvent(tick=10, channel=4, data=[7, 83]),
   midi.ControlChangeEvent(tick=10, channel=4, data=[7, 83]),
   midi.ControlChangeEvent(tick=10, channel=4, data=[7, 83]),
   midi.ControlChangeEvent(tick=10, channel=4, data=[7, 83]),
   midi.ControlChangeEvent(tick=10, channel=4, data=[7, 84]),
   midi.ControlChangeEvent(tick=15, channel=4, data=[7, 84]),
   midi.ControlChangeEvent(tick=10, channel=4, data=[7, 85]),
   midi.ControlChangeEvent(tick=15, channel=4, data=[7, 86]),
   midi.ControlChangeEvent(tick=15, channel=4, data=[7, 86]),
   midi.ControlChangeEvent(tick=10, channel=4, data=[7, 87]),
   midi.ControlChangeEvent(tick=15, channel=4, data=[7, 87]),
   midi.ControlChangeEvent(tick=20, channel=4, data=[7, 87]),
   midi.ControlChangeEvent(tick=20, channel=4, data=[7, 88]),
   midi.ControlChangeEvent(tick=15, channel=4, data=[7, 89]),
   midi.ControlChangeEvent(tick=20, channel=4, data=[7, 89]),
   midi.ControlChangeEvent(tick=20, channel=4, data=[7, 89]),
   midi.ControlChangeEvent(tick=20, channel=4, data=[7, 90]),
   midi.ControlChangeEvent(tick=15, channel=4, data=[7, 90]),
   midi.ControlChangeEvent(tick=15, channel=4, data=[7, 92]),
   midi.ControlChangeEvent(tick=10, channel=4, data=[7, 92]),
   midi.ControlChangeEvent(tick=10, channel=4, data=[7, 93]),
   midi.ControlChangeEvent(tick=15, channel=4, data=[7, 94]),
   midi.ControlChangeEvent(tick=10, channel=4, data=[7, 94]),
   midi.ControlChangeEvent(tick=10, channel=4, data=[7, 94]),
   midi.ControlChangeEvent(tick=15, channel=4, data=[7, 94]),
   midi.ControlChangeEvent(tick=15, channel=4, data=[7, 94]),
   midi.ControlChangeEvent(tick=10, channel=4, data=[7, 96]),
   midi.ControlChangeEvent(tick=15, channel=4, data=[7, 96]),
   midi.ControlChangeEvent(tick=50, channel=4, data=[7, 96]),
   midi.ControlChangeEvent(tick=10, channel=4, data=[7, 94]),
   midi.ControlChangeEvent(tick=10, channel=4, data=[7, 94]),
   midi.ControlChangeEvent(tick=15, channel=4, data=[7, 92]),
   midi.ControlChangeEvent(tick=10, channel=4, data=[7, 92]),
   midi.ControlChangeEvent(tick=10, channel=4, data=[7, 90]),
   midi.ControlChangeEvent(tick=10, channel=4, data=[7, 90]),
   midi.ControlChangeEvent(tick=10, channel=4, data=[7, 89]),
   midi.ControlChangeEvent(tick=10, channel=4, data=[7, 88]),
   midi.ControlChangeEvent(tick=15, channel=4, data=[7, 87]),
   midi.ControlChangeEvent(tick=10, channel=4, data=[7, 87]),
   midi.ControlChangeEvent(tick=15, channel=4, data=[7, 86]),
   midi.ControlChangeEvent(tick=10, channel=4, data=[7, 86]),
   midi.ControlChangeEvent(tick=10, channel=4, data=[7, 84]),
   midi.ControlChangeEvent(tick=10, channel=4, data=[7, 84]),
   midi.ControlChangeEvent(tick=10, channel=4, data=[7, 83]),
   midi.ControlChangeEvent(tick=10, channel=4, data=[7, 83]),
   midi.ControlChangeEvent(tick=15, channel=4, data=[7, 83]),
   midi.NoteOnEvent(tick=15, channel=4, data=[74, 76]),
   midi.ControlChangeEvent(tick=10, channel=4, data=[7, 83]),
   midi.ControlChangeEvent(tick=30, channel=4, data=[7, 83]),
   midi.ControlChangeEvent(tick=10, channel=4, data=[7, 81]),
   midi.NoteOnEvent(tick=10, channel=4, data=[74, 0]),
   midi.NoteOnEvent(tick=0, channel=4, data=[69, 81]),
   midi.ControlChangeEvent(tick=0, channel=4, data=[7, 81]),
   midi.ControlChangeEvent(tick=15, channel=4, data=[7, 81]),
   midi.ControlChangeEvent(tick=25, channel=4, data=[7, 81]),
   midi.ControlChangeEvent(tick=15, channel=4, data=[7, 81]),
   midi.ControlChangeEvent(tick=40, channel=4, data=[7, 81]),
   midi.ControlChangeEvent(tick=20, channel=4, data=[7, 80]),
   midi.NoteOnEvent(tick=5, channel=4, data=[69, 0]),
   midi.NoteOnEvent(tick=0, channel=4, data=[67, 71]),
   midi.ControlChangeEvent(tick=10, channel=4, data=[7, 79]),
   midi.ControlChangeEvent(tick=20, channel=4, data=[7, 79]),
   midi.ControlChangeEvent(tick=15, channel=4, data=[7, 78]),
   midi.ControlChangeEvent(tick=35, channel=4, data=[7, 77]),
   midi.ControlChangeEvent(tick=20, channel=4, data=[7, 77]),
   midi.NoteOnEvent(tick=20, channel=4, data=[67, 0]),
   midi.ControlChangeEvent(tick=10, channel=4, data=[7, 76]),
   midi.ControlChangeEvent(tick=1610, channel=4, data=[7, 77]),
   midi.ControlChangeEvent(tick=25, channel=4, data=[7, 77]),
   midi.ControlChangeEvent(tick=5, channel=4, data=[7, 78]),
   midi.ControlChangeEvent(tick=5, channel=4, data=[7, 79]),
   midi.ControlChangeEvent(tick=5, channel=4, data=[7, 79]),
   midi.ControlChangeEvent(tick=15, channel=4, data=[7, 80]),
   midi.ControlChangeEvent(tick=5, channel=4, data=[7, 81]),
   midi.ControlChangeEvent(tick=10, channel=4, data=[7, 81]),
   midi.ControlChangeEvent(tick=5, channel=4, data=[7, 81]),
   midi.ControlChangeEvent(tick=5, channel=4, data=[7, 81]),
   midi.ControlChangeEvent(tick=5, channel=4, data=[7, 81]),
   midi.ControlChangeEvent(tick=5, channel=4, data=[7, 83]),
   midi.ControlChangeEvent(tick=10, channel=4, data=[7, 83]),
   midi.ControlChangeEvent(tick=5, channel=4, data=[7, 83]),
   midi.ControlChangeEvent(tick=5, channel=4, data=[7, 84]),
   midi.ControlChangeEvent(tick=5, channel=4, data=[7, 86]),
   midi.ControlChangeEvent(tick=5, channel=4, data=[7, 87]),
   midi.ControlChangeEvent(tick=5, channel=4, data=[7, 87]),
   midi.ControlChangeEvent(tick=10, channel=4, data=[7, 88]),
   midi.ControlChangeEvent(tick=5, channel=4, data=[7, 89]),
   midi.ControlChangeEvent(tick=5, channel=4, data=[7, 89]),
   midi.ControlChangeEvent(tick=5, channel=4, data=[7, 90]),
   midi.ControlChangeEvent(tick=5, channel=4, data=[7, 90]),
   midi.ControlChangeEvent(tick=5, channel=4, data=[7, 92]),
   midi.ControlChangeEvent(tick=10, channel=4, data=[7, 92]),
   midi.ControlChangeEvent(tick=10, channel=4, data=[7, 92]),
   midi.ControlChangeEvent(tick=5, channel=4, data=[7, 93]),
   midi.ControlChangeEvent(tick=5, channel=4, data=[7, 94]),
   midi.ControlChangeEvent(tick=10, channel=4, data=[7, 94]),
   midi.ControlChangeEvent(tick=15, channel=4, data=[7, 94]),
   midi.ControlChangeEvent(tick=25, channel=4, data=[7, 94]),
   midi.ControlChangeEvent(tick=15, channel=4, data=[7, 94]),
   midi.ControlChangeEvent(tick=10, channel=4, data=[7, 96]),
   midi.ControlChangeEvent(tick=15, channel=4, data=[7, 96]),
   midi.ControlChangeEvent(tick=160, channel=4, data=[7, 96]),
   midi.ControlChangeEvent(tick=35, channel=4, data=[7, 94]),
   midi.ControlChangeEvent(tick=120, channel=4, data=[7, 96]),
   midi.ControlChangeEvent(tick=55, channel=4, data=[7, 96]),
   midi.ControlChangeEvent(tick=1450, channel=4, data=[7, 96]),
   midi.ControlChangeEvent(tick=10, channel=4, data=[7, 94]),
   midi.ControlChangeEvent(tick=15, channel=4, data=[7, 94]),
   midi.ControlChangeEvent(tick=5, channel=4, data=[7, 94]),
   midi.ControlChangeEvent(tick=5, channel=4, data=[7, 94]),
   midi.ControlChangeEvent(tick=15, channel=4, data=[7, 94]),
   midi.ControlChangeEvent(tick=5, channel=4, data=[7, 93]),
   midi.ControlChangeEvent(tick=10, channel=4, data=[7, 92]),
   midi.ControlChangeEvent(tick=5, channel=4, data=[7, 92]),
   midi.ControlChangeEvent(tick=5, channel=4, data=[7, 90]),
   midi.ControlChangeEvent(tick=10, channel=4, data=[7, 90]),
   midi.ControlChangeEvent(tick=5, channel=4, data=[7, 90]),
   midi.ControlChangeEvent(tick=5, channel=4, data=[7, 89]),
   midi.ControlChangeEvent(tick=5, channel=4, data=[7, 89]),
   midi.ControlChangeEvent(tick=5, channel=4, data=[7, 89]),
   midi.ControlChangeEvent(tick=10, channel=4, data=[7, 88]),
   midi.ControlChangeEvent(tick=5, channel=4, data=[7, 87]),
   midi.ControlChangeEvent(tick=5, channel=4, data=[7, 87]),
   midi.ControlChangeEvent(tick=10, channel=4, data=[7, 87]),
   midi.ControlChangeEvent(tick=10, channel=4, data=[7, 86]),
   midi.ControlChangeEvent(tick=10, channel=4, data=[7, 86]),
   midi.ControlChangeEvent(tick=20, channel=4, data=[7, 85]),
   midi.ControlChangeEvent(tick=15, channel=4, data=[7, 84]),
   midi.ControlChangeEvent(tick=10, channel=4, data=[7, 84]),
   midi.ControlChangeEvent(tick=10, channel=4, data=[7, 83]),
   midi.ControlChangeEvent(tick=10, channel=4, data=[7, 83]),
   midi.ControlChangeEvent(tick=20, channel=4, data=[7, 83]),
   midi.ControlChangeEvent(tick=20, channel=4, data=[7, 83]),
   midi.ControlChangeEvent(tick=50, channel=4, data=[7, 83]),
   midi.NoteOnEvent(tick=50, channel=4, data=[72, 86]),
   midi.ControlChangeEvent(tick=20, channel=4, data=[7, 83]),
   midi.ControlChangeEvent(tick=15, channel=4, data=[7, 83]),
   midi.ControlChangeEvent(tick=10, channel=4, data=[7, 83]),
   midi.ControlChangeEvent(tick=10, channel=4, data=[7, 83]),
   midi.ControlChangeEvent(tick=10, channel=4, data=[7, 84]),
   midi.ControlChangeEvent(tick=10, channel=4, data=[7, 84]),
   midi.ControlChangeEvent(tick=10, channel=4, data=[7, 85]),
   midi.ControlChangeEvent(tick=10, channel=4, data=[7, 86]),
   midi.ControlChangeEvent(tick=15, channel=4, data=[7, 86]),
   midi.ControlChangeEvent(tick=40, channel=4, data=[7, 87]),
   midi.NoteOnEvent(tick=5, channel=4, data=[72, 0]),
   midi.ControlChangeEvent(tick=5, channel=4, data=[7, 86]),
   midi.ControlChangeEvent(tick=10, channel=4, data=[7, 86]),
   midi.ControlChangeEvent(tick=10, channel=4, data=[7, 84]),
   midi.ControlChangeEvent(tick=15, channel=4, data=[7, 83]),
   midi.ControlChangeEvent(tick=10, channel=4, data=[7, 83]),
   midi.ControlChangeEvent(tick=10, channel=4, data=[7, 83]),
   midi.ControlChangeEvent(tick=10, channel=4, data=[7, 81]),
   midi.ControlChangeEvent(tick=10, channel=4, data=[7, 81]),
   midi.ControlChangeEvent(tick=15, channel=4, data=[7, 81]),
   midi.ControlChangeEvent(tick=145, channel=4, data=[7, 81]),
   midi.ControlChangeEvent(tick=15, channel=4, data=[7, 81]),
   midi.ControlChangeEvent(tick=10, channel=4, data=[7, 83]),
   midi.ControlChangeEvent(tick=10, channel=4, data=[7, 83]),
   midi.ControlChangeEvent(tick=10, channel=4, data=[7, 84]),
   midi.ControlChangeEvent(tick=10, channel=4, data=[7, 86]),
   midi.ControlChangeEvent(tick=15, channel=4, data=[7, 87]),
   midi.ControlChangeEvent(tick=10, channel=4, data=[7, 87]),
   midi.NoteOnEvent(tick=5, channel=4, data=[74, 86]),
   midi.ControlChangeEvent(tick=5, channel=4, data=[7, 89]),
   midi.ControlChangeEvent(tick=10, channel=4, data=[7, 89]),
   midi.ControlChangeEvent(tick=15, channel=4, data=[7, 90]),
   midi.ControlChangeEvent(tick=30, channel=4, data=[7, 89]),
   midi.ControlChangeEvent(tick=10, channel=4, data=[7, 89]),
   midi.ControlChangeEvent(tick=10, channel=4, data=[7, 87]),
   midi.ControlChangeEvent(tick=10, channel=4, data=[7, 87]),
   midi.ControlChangeEvent(tick=15, channel=4, data=[7, 86]),
   midi.ControlChangeEvent(tick=10, channel=4, data=[7, 84]),
   midi.ControlChangeEvent(tick=10, channel=4, data=[7, 83]),
   midi.ControlChangeEvent(tick=10, channel=4, data=[7, 83]),
   midi.ControlChangeEvent(tick=15, channel=4, data=[7, 83]),
   midi.NoteOnEvent(tick=5, channel=4, data=[74, 0]),
   midi.ControlChangeEvent(tick=5, channel=4, data=[7, 83]),
   midi.ControlChangeEvent(tick=10, channel=4, data=[7, 81]),
   midi.ControlChangeEvent(tick=10, channel=4, data=[7, 81]),
   midi.ControlChangeEvent(tick=10, channel=4, data=[7, 81]),
   midi.ControlChangeEvent(tick=15, channel=4, data=[7, 81]),
   midi.ControlChangeEvent(tick=15, channel=4, data=[7, 81]),
   midi.ControlChangeEvent(tick=15, channel=4, data=[7, 80]),
   midi.ControlChangeEvent(tick=15, channel=4, data=[7, 79]),
   midi.ControlChangeEvent(tick=75, channel=4, data=[7, 80]),
   midi.ControlChangeEvent(tick=10, channel=4, data=[7, 81]),
   midi.ControlChangeEvent(tick=10, channel=4, data=[7, 81]),
   midi.ControlChangeEvent(tick=10, channel=4, data=[7, 83]),
   midi.ControlChangeEvent(tick=10, channel=4, data=[7, 83]),
   midi.ControlChangeEvent(tick=10, channel=4, data=[7, 83]),
   midi.ControlChangeEvent(tick=10, channel=4, data=[7, 85]),
   midi.ControlChangeEvent(tick=10, channel=4, data=[7, 86]),
   midi.ControlChangeEvent(tick=10, channel=4, data=[7, 87]),
   midi.ControlChangeEvent(tick=10, channel=4, data=[7, 87]),
   midi.ControlChangeEvent(tick=10, channel=4, data=[7, 89]),
   midi.ControlChangeEvent(tick=10, channel=4, data=[7, 89]),
   midi.ControlChangeEvent(tick=10, channel=4, data=[7, 89]),
   midi.ControlChangeEvent(tick=10, channel=4, data=[7, 90]),
   midi.ControlChangeEvent(tick=10, channel=4, data=[7, 92]),
   midi.ControlChangeEvent(tick=10, channel=4, data=[7, 92]),
   midi.NoteOnEvent(tick=5, channel=4, data=[79, 86]),
   midi.ControlChangeEvent(tick=5, channel=4, data=[7, 93]),
   midi.ControlChangeEvent(tick=10, channel=4, data=[7, 94]),
   midi.ControlChangeEvent(tick=10, channel=4, data=[7, 94]),
   midi.ControlChangeEvent(tick=45, channel=4, data=[7, 96]),
   midi.ControlChangeEvent(tick=10, channel=4, data=[7, 96]),
   midi.ControlChangeEvent(tick=25, channel=4, data=[7, 96]),
   midi.ControlChangeEvent(tick=10, channel=4, data=[7, 94]),
   midi.ControlChangeEvent(tick=10, channel=4, data=[7, 94]),
   midi.ControlChangeEvent(tick=10, channel=4, data=[7, 92]),
   midi.ControlChangeEvent(tick=5, channel=4, data=[7, 90]),
   midi.ControlChangeEvent(tick=10, channel=4, data=[7, 89]),
   midi.NoteOnEvent(tick=5, channel=4, data=[79, 0]),
   midi.ControlChangeEvent(tick=5, channel=4, data=[7, 89]),
   midi.ControlChangeEvent(tick=10, channel=4, data=[7, 88]),
   midi.ControlChangeEvent(tick=10, channel=4, data=[7, 87]),
   midi.ControlChangeEvent(tick=20, channel=4, data=[7, 87]),
   midi.ControlChangeEvent(tick=5, channel=4, data=[7, 86]),
   midi.ControlChangeEvent(tick=10, channel=4, data=[7, 86]),
   midi.ControlChangeEvent(tick=1155, channel=4, data=[7, 86]),
   midi.ControlChangeEvent(tick=280, channel=4, data=[7, 87]),
   midi.ControlChangeEvent(tick=15, channel=4, data=[7, 87]),
   midi.ControlChangeEvent(tick=10, channel=4, data=[7, 89]),
   midi.ControlChangeEvent(tick=15, channel=4, data=[7, 90]),
   midi.ControlChangeEvent(tick=15, channel=4, data=[7, 94]),
   midi.ControlChangeEvent(tick=15, channel=4, data=[7, 96]),
   midi.ControlChangeEvent(tick=2745, channel=4, data=[7, 96]),
   midi.NoteOnEvent(tick=95, channel=4, data=[72, 97]),
   midi.ControlChangeEvent(tick=5, channel=4, data=[7, 96]),
   midi.ControlChangeEvent(tick=70, channel=4, data=[7, 98]),
   midi.ControlChangeEvent(tick=35, channel=4, data=[7, 99]),
   midi.ControlChangeEvent(tick=25, channel=4, data=[7, 100]),
   midi.NoteOnEvent(tick=25, channel=4, data=[72, 0]),
   midi.NoteOnEvent(tick=0, channel=4, data=[72, 97]),
   midi.ControlChangeEvent(tick=5, channel=4, data=[7, 101]),
   midi.ControlChangeEvent(tick=30, channel=4, data=[7, 103]),
   midi.NoteOnEvent(tick=5, channel=4, data=[72, 0]),
   midi.NoteOnEvent(tick=0, channel=4, data=[71, 97]),
   midi.ControlChangeEvent(tick=25, channel=4, data=[7, 105]),
   midi.NoteOnEvent(tick=15, channel=4, data=[71, 0]),
   midi.NoteOnEvent(tick=0, channel=4, data=[67, 97]),
   midi.ControlChangeEvent(tick=15, channel=4, data=[7, 107]),
   midi.ControlChangeEvent(tick=30, channel=4, data=[7, 108]),
   midi.ControlChangeEvent(tick=30, channel=4, data=[7, 109]),
   midi.ControlChangeEvent(tick=30, channel=4, data=[7, 109]),
   midi.ControlChangeEvent(tick=45, channel=4, data=[7, 110]),
   midi.NoteOnEvent(tick=10, channel=4, data=[67, 0]),
   midi.NoteOnEvent(tick=0, channel=4, data=[67, 97]),
   midi.NoteOnEvent(tick=40, channel=4, data=[67, 0]),
   midi.NoteOnEvent(tick=0, channel=4, data=[71, 97]),
   midi.NoteOnEvent(tick=40, channel=4, data=[71, 0]),
   midi.NoteOnEvent(tick=0, channel=4, data=[72, 97]),
   midi.ControlChangeEvent(tick=15, channel=4, data=[7, 110]),
   midi.ControlChangeEvent(tick=15, channel=4, data=[7, 112]),
   midi.NoteOnEvent(tick=10, channel=4, data=[72, 0]),
   midi.NoteOnEvent(tick=0, channel=4, data=[72, 97]),
   midi.NoteOnEvent(tick=40, channel=4, data=[72, 0]),
   midi.NoteOnEvent(tick=0, channel=4, data=[71, 97]),
   midi.NoteOnEvent(tick=40, channel=4, data=[71, 0]),
   midi.NoteOnEvent(tick=0, channel=4, data=[67, 97]),
   midi.ControlChangeEvent(tick=35, channel=4, data=[7, 112]),
   midi.NoteOnEvent(tick=5, channel=4, data=[67, 0]),
   midi.NoteOnEvent(tick=0, channel=4, data=[67, 97]),
   midi.NoteOnEvent(tick=40, channel=4, data=[67, 0]),
   midi.NoteOnEvent(tick=0, channel=4, data=[71, 97]),
   midi.NoteOnEvent(tick=40, channel=4, data=[71, 0]),
   midi.NoteOnEvent(tick=0, channel=4, data=[72, 97]),
   midi.NoteOnEvent(tick=40, channel=4, data=[72, 0]),
   midi.ControlChangeEvent(tick=0, channel=4, data=[7, 112]),
   midi.NoteOnEvent(tick=0, channel=4, data=[72, 97]),
   midi.NoteOnEvent(tick=40, channel=4, data=[72, 0]),
   midi.NoteOnEvent(tick=0, channel=4, data=[71, 97]),
   midi.NoteOnEvent(tick=40, channel=4, data=[71, 0]),
   midi.NoteOnEvent(tick=0, channel=4, data=[67, 97]),
   midi.NoteOnEvent(tick=40, channel=4, data=[67, 0]),
   midi.NoteOnEvent(tick=0, channel=4, data=[67, 97]),
   midi.ControlChangeEvent(tick=20, channel=4, data=[7, 114]),
   midi.NoteOnEvent(tick=20, channel=4, data=[67, 0]),
   midi.NoteOnEvent(tick=0, channel=4, data=[71, 97]),
   midi.NoteOnEvent(tick=40, channel=4, data=[71, 0]),
   midi.NoteOnEvent(tick=0, channel=4, data=[67, 86]),
   midi.NoteOnEvent(tick=0, channel=4, data=[72, 86]),
   midi.ControlChangeEvent(tick=130, channel=4, data=[7, 115]),
   midi.ControlChangeEvent(tick=40, channel=4, data=[7, 116]),
   midi.ControlChangeEvent(tick=85, channel=4, data=[7, 115]),
   midi.ControlChangeEvent(tick=15, channel=4, data=[7, 114]),
   midi.ControlChangeEvent(tick=25, channel=4, data=[7, 112]),
   midi.ControlChangeEvent(tick=30, channel=4, data=[7, 110]),
   midi.ControlChangeEvent(tick=30, channel=4, data=[7, 109]),
   midi.ControlChangeEvent(tick=25, channel=4, data=[7, 109]),
   midi.ControlChangeEvent(tick=30, channel=4, data=[7, 109]),
   midi.ControlChangeEvent(tick=30, channel=4, data=[7, 106]),
   midi.ControlChangeEvent(tick=30, channel=4, data=[7, 103]),
   midi.NoteOnEvent(tick=10, channel=4, data=[67, 0]),
   midi.NoteOnEvent(tick=0, channel=4, data=[69, 86]),
   midi.ControlChangeEvent(tick=20, channel=4, data=[7, 101]),
   midi.ControlChangeEvent(tick=30, channel=4, data=[7, 99]),
   midi.ControlChangeEvent(tick=45, channel=4, data=[7, 100]),
   midi.ControlChangeEvent(tick=25, channel=4, data=[7, 101]),
   midi.ControlChangeEvent(tick=20, channel=4, data=[7, 102]),
   midi.ControlChangeEvent(tick=30, channel=4, data=[7, 106]),
   midi.ControlChangeEvent(tick=30, channel=4, data=[7, 110]),
   midi.ControlChangeEvent(tick=30, channel=4, data=[7, 114]),
   midi.ControlChangeEvent(tick=30, channel=4, data=[7, 116]),
   midi.ControlChangeEvent(tick=30, channel=4, data=[7, 118]),
   midi.ControlChangeEvent(tick=30, channel=4, data=[7, 121]),
   midi.NoteOnEvent(tick=150, channel=4, data=[69, 0]),
   midi.NoteOnEvent(tick=0, channel=4, data=[72, 0]),
   midi.NoteOnEvent(tick=10, channel=4, data=[74, 97]),
   midi.NoteOnEvent(tick=160, channel=4, data=[74, 0]),
   midi.NoteOnEvent(tick=0, channel=4, data=[74, 97]),
   midi.ControlChangeEvent(tick=5, channel=4, data=[7, 120]),
   midi.ControlChangeEvent(tick=25, channel=4, data=[7, 118]),
   midi.NoteOnEvent(tick=10, channel=4, data=[74, 0]),
   midi.NoteOnEvent(tick=0, channel=4, data=[73, 97]),
   midi.ControlChangeEvent(tick=20, channel=4, data=[7, 115]),
   midi.NoteOnEvent(tick=20, channel=4, data=[73, 0]),
   midi.NoteOnEvent(tick=0, channel=4, data=[69, 97]),
   midi.ControlChangeEvent(tick=10, channel=4, data=[7, 112]),
   midi.ControlChangeEvent(tick=30, channel=4, data=[7, 110]),
   midi.ControlChangeEvent(tick=30, channel=4, data=[7, 109]),
   midi.ControlChangeEvent(tick=30, channel=4, data=[7, 108]),
   midi.ControlChangeEvent(tick=30, channel=4, data=[7, 105]),
   midi.NoteOnEvent(tick=30, channel=4, data=[69, 0]),
   midi.NoteOnEvent(tick=0, channel=4, data=[69, 97]),
   midi.NoteOnEvent(tick=40, channel=4, data=[69, 0]),
   midi.NoteOnEvent(tick=0, channel=4, data=[73, 97]),
   midi.ControlChangeEvent(tick=20, channel=4, data=[7, 109]),
   midi.NoteOnEvent(tick=20, channel=4, data=[73, 0]),
   midi.NoteOnEvent(tick=0, channel=4, data=[74, 97]),
   midi.ControlChangeEvent(tick=10, channel=4, data=[7, 116]),
   midi.NoteOnEvent(tick=30, channel=4, data=[74, 0]),
   midi.ControlChangeEvent(tick=0, channel=4, data=[7, 121]),
   midi.NoteOnEvent(tick=0, channel=4, data=[74, 97]),
   midi.NoteOnEvent(tick=40, channel=4, data=[74, 0]),
   midi.NoteOnEvent(tick=0, channel=4, data=[73, 97]),
   midi.ControlChangeEvent(tick=10, channel=4, data=[7, 120]),
   midi.NoteOnEvent(tick=30, channel=4, data=[73, 0]),
   midi.NoteOnEvent(tick=0, channel=4, data=[69, 97]),
   midi.ControlChangeEvent(tick=5, channel=4, data=[7, 116]),
   midi.ControlChangeEvent(tick=25, channel=4, data=[7, 110]),
   midi.NoteOnEvent(tick=10, channel=4, data=[69, 0]),
   midi.NoteOnEvent(tick=0, channel=4, data=[69, 97]),
   midi.ControlChangeEvent(tick=20, channel=4, data=[7, 108]),
   midi.NoteOnEvent(tick=20, channel=4, data=[69, 0]),
   midi.NoteOnEvent(tick=0, channel=4, data=[73, 97]),
   midi.ControlChangeEvent(tick=10, channel=4, data=[7, 103]),
   midi.NoteOnEvent(tick=30, channel=4, data=[73, 0]),
   midi.NoteOnEvent(tick=0, channel=4, data=[74, 97]),
   midi.NoteOnEvent(tick=40, channel=4, data=[74, 0]),
   midi.NoteOnEvent(tick=0, channel=4, data=[74, 97]),
   midi.ControlChangeEvent(tick=5, channel=4, data=[7, 102]),
   midi.ControlChangeEvent(tick=20, channel=4, data=[7, 102]),
   midi.NoteOnEvent(tick=15, channel=4, data=[74, 0]),
   midi.NoteOnEvent(tick=0, channel=4, data=[73, 97]),
   midi.ControlChangeEvent(tick=15, channel=4, data=[7, 101]),
   midi.NoteOnEvent(tick=25, channel=4, data=[73, 0]),
   midi.NoteOnEvent(tick=0, channel=4, data=[69, 97]),
   midi.ControlChangeEvent(tick=5, channel=4, data=[7, 100]),
   midi.NoteOnEvent(tick=35, channel=4, data=[69, 0]),
   midi.NoteOnEvent(tick=0, channel=4, data=[69, 97]),
   midi.ControlChangeEvent(tick=5, channel=4, data=[7, 99]),
   midi.NoteOnEvent(tick=35, channel=4, data=[69, 0]),
   midi.NoteOnEvent(tick=0, channel=4, data=[73, 97]),
   midi.NoteOnEvent(tick=35, channel=4, data=[73, 0]),
   midi.NoteOnEvent(tick=5, channel=4, data=[69, 86]),
   midi.NoteOnEvent(tick=0, channel=4, data=[74, 86]),
   midi.ControlChangeEvent(tick=10, channel=4, data=[7, 99]),
   midi.ControlChangeEvent(tick=20, channel=4, data=[7, 106]),
   midi.ControlChangeEvent(tick=25, channel=4, data=[7, 118]),
   midi.ControlChangeEvent(tick=35, channel=4, data=[7, 112]),
   midi.ControlChangeEvent(tick=30, channel=4, data=[7, 107]),
   midi.ControlChangeEvent(tick=25, channel=4, data=[7, 101]),
   midi.ControlChangeEvent(tick=35, channel=4, data=[7, 98]),
   midi.ControlChangeEvent(tick=25, channel=4, data=[7, 96]),
   midi.ControlChangeEvent(tick=30, channel=4, data=[7, 92]),
   midi.ControlChangeEvent(tick=35, channel=4, data=[7, 90]),
   midi.ControlChangeEvent(tick=95, channel=4, data=[7, 92]),
   midi.ControlChangeEvent(tick=30, channel=4, data=[7, 93]),
   midi.ControlChangeEvent(tick=20, channel=4, data=[7, 94]),
   midi.ControlChangeEvent(tick=30, channel=4, data=[7, 96]),
   midi.ControlChangeEvent(tick=30, channel=4, data=[7, 96]),
   midi.NoteOnEvent(tick=5, channel=4, data=[69, 0]),
   midi.NoteOnEvent(tick=0, channel=4, data=[67, 86]),
   midi.ControlChangeEvent(tick=25, channel=4, data=[7, 99]),
   midi.ControlChangeEvent(tick=30, channel=4, data=[7, 101]),
   midi.ControlChangeEvent(tick=30, channel=4, data=[7, 102]),
   midi.ControlChangeEvent(tick=30, channel=4, data=[7, 105]),
   midi.ControlChangeEvent(tick=30, channel=4, data=[7, 108]),
   midi.ControlChangeEvent(tick=30, channel=4, data=[7, 110]),
   midi.ControlChangeEvent(tick=25, channel=4, data=[7, 112]),
   midi.NoteOnEvent(tick=30, channel=4, data=[67, 0]),
   midi.ControlChangeEvent(tick=5, channel=4, data=[7, 114]),
   midi.NoteOnEvent(tick=5, channel=4, data=[71, 86]),
   midi.ControlChangeEvent(tick=25, channel=4, data=[7, 116]),
   midi.ControlChangeEvent(tick=30, channel=4, data=[7, 118]),
   midi.ControlChangeEvent(tick=30, channel=4, data=[7, 120]),
   midi.ControlChangeEvent(tick=20, channel=4, data=[7, 121]),
   midi.NoteOnEvent(tick=125, channel=4, data=[74, 0]),
   midi.NoteOnEvent(tick=10, channel=4, data=[76, 97]),
   midi.ControlChangeEvent(tick=170, channel=4, data=[7, 120]),
   midi.ControlChangeEvent(tick=30, channel=4, data=[7, 116]),
   midi.NoteOnEvent(tick=30, channel=4, data=[71, 0]),
   midi.ControlChangeEvent(tick=0, channel=4, data=[7, 114]),
   midi.NoteOnEvent(tick=10, channel=4, data=[72, 97]),
   midi.ControlChangeEvent(tick=20, channel=4, data=[7, 111]),
   midi.ControlChangeEvent(tick=30, channel=4, data=[7, 109]),
   midi.ControlChangeEvent(tick=30, channel=4, data=[7, 105]),
   midi.ControlChangeEvent(tick=25, channel=4, data=[7, 102]),
   midi.ControlChangeEvent(tick=30, channel=4, data=[7, 100]),
   midi.ControlChangeEvent(tick=30, channel=4, data=[7, 98]),
   midi.ControlChangeEvent(tick=30, channel=4, data=[7, 96]),
   midi.ControlChangeEvent(tick=30, channel=4, data=[7, 94]),
   midi.ControlChangeEvent(tick=30, channel=4, data=[7, 93]),
   midi.ControlChangeEvent(tick=30, channel=4, data=[7, 92]),
   midi.ControlChangeEvent(tick=30, channel=4, data=[7, 90]),
   midi.ControlChangeEvent(tick=30, channel=4, data=[7, 89]),
   midi.ControlChangeEvent(tick=30, channel=4, data=[7, 87]),
   midi.ControlChangeEvent(tick=30, channel=4, data=[7, 86]),
   midi.ControlChangeEvent(tick=25, channel=4, data=[7, 84]),
   midi.ControlChangeEvent(tick=30, channel=4, data=[7, 83]),
   midi.NoteOnEvent(tick=20, channel=4, data=[76, 0]),
   midi.NoteOnEvent(tick=0, channel=4, data=[77, 97]),
   midi.ControlChangeEvent(tick=65, channel=4, data=[7, 85]),
   midi.ControlChangeEvent(tick=20, channel=4, data=[7, 87]),
   midi.ControlChangeEvent(tick=25, channel=4, data=[7, 89]),
   midi.ControlChangeEvent(tick=30, channel=4, data=[7, 92]),
   midi.ControlChangeEvent(tick=30, channel=4, data=[7, 96]),
   midi.ControlChangeEvent(tick=30, channel=4, data=[7, 99]),
   midi.NoteOnEvent(tick=30, channel=4, data=[77, 0]),
   midi.NoteOnEvent(tick=0, channel=4, data=[72, 0]),
   midi.ControlChangeEvent(tick=0, channel=4, data=[7, 102]),
   midi.ControlChangeEvent(tick=30, channel=4, data=[7, 107]),
   midi.ControlChangeEvent(tick=30, channel=4, data=[7, 111]),
   midi.ControlChangeEvent(tick=30, channel=4, data=[7, 115]),
   midi.ControlChangeEvent(tick=50, channel=4, data=[7, 114]),
   midi.ControlChangeEvent(tick=25, channel=4, data=[7, 111]),
   midi.ControlChangeEvent(tick=30, channel=4, data=[7, 109]),
   midi.ControlChangeEvent(tick=30, channel=4, data=[7, 109]),
   midi.NoteOnEvent(tick=25, channel=4, data=[77, 102]),
   midi.NoteOnEvent(tick=0, channel=4, data=[72, 102]),
   midi.NoteOnEvent(tick=60, channel=4, data=[72, 0]),
   midi.NoteOnEvent(tick=0, channel=4, data=[77, 0]),
   midi.ControlChangeEvent(tick=115, channel=4, data=[7, 107]),
   midi.ControlChangeEvent(tick=15, channel=4, data=[7, 106]),
   midi.ControlChangeEvent(tick=285, channel=4, data=[7, 105]),
   midi.NoteOnEvent(tick=5, channel=4, data=[72, 102]),
   midi.NoteOnEvent(tick=0, channel=4, data=[77, 102]),
   midi.ControlChangeEvent(tick=35, channel=4, data=[7, 104]),
   midi.ControlChangeEvent(tick=20, channel=4, data=[7, 103]),
   midi.NoteOnEvent(tick=5, channel=4, data=[77, 0]),
   midi.NoteOnEvent(tick=0, channel=4, data=[72, 0]),
   midi.ControlChangeEvent(tick=100, channel=4, data=[7, 102]),
   midi.ControlChangeEvent(tick=30, channel=4, data=[7, 102]),
   midi.ControlChangeEvent(tick=50, channel=4, data=[7, 101]),
   midi.ControlChangeEvent(tick=65, channel=4, data=[7, 101]),
   midi.ControlChangeEvent(tick=35, channel=4, data=[7, 101]),
   midi.NoteOnEvent(tick=20, channel=4, data=[72, 102]),
   midi.NoteOnEvent(tick=0, channel=4, data=[77, 102]),
   midi.ControlChangeEvent(tick=5, channel=4, data=[7, 100]),
   midi.NoteOnEvent(tick=55, channel=4, data=[77, 0]),
   midi.NoteOnEvent(tick=0, channel=4, data=[72, 0]),
   midi.NoteOnEvent(tick=180, channel=4, data=[72, 102]),
   midi.NoteOnEvent(tick=0, channel=4, data=[76, 102]),
   midi.NoteOnEvent(tick=60, channel=4, data=[76, 0]),
   midi.NoteOnEvent(tick=0, channel=4, data=[72, 0]),
   midi.ControlChangeEvent(tick=115, channel=4, data=[7, 99]),
   midi.ControlChangeEvent(tick=20, channel=4, data=[7, 98]),
   midi.ControlChangeEvent(tick=20, channel=4, data=[7, 96]),
   midi.NoteOnEvent(tick=25, channel=4, data=[72, 102]),
   midi.NoteOnEvent(tick=0, channel=4, data=[75, 102]),
   midi.NoteOnEvent(tick=60, channel=4, data=[75, 0]),
   midi.NoteOnEvent(tick=0, channel=4, data=[72, 0]),
   midi.NoteOnEvent(tick=180, channel=4, data=[76, 102]),
   midi.NoteOnEvent(tick=0, channel=4, data=[72, 102]),
   midi.NoteOnEvent(tick=60, channel=4, data=[72, 0]),
   midi.NoteOnEvent(tick=0, channel=4, data=[76, 0]),
   midi.ControlChangeEvent(tick=70, channel=4, data=[7, 96]),
   midi.ControlChangeEvent(tick=20, channel=4, data=[7, 96]),
   midi.ControlChangeEvent(tick=25, channel=4, data=[7, 96]),
   midi.ControlChangeEvent(tick=30, channel=4, data=[7, 94]),
   midi.ControlChangeEvent(tick=35, channel=4, data=[7, 94]),
   midi.ControlChangeEvent(tick=50, channel=4, data=[7, 94]),
   midi.ControlChangeEvent(tick=25, channel=4, data=[7, 94]),
   midi.ControlChangeEvent(tick=20, channel=4, data=[7, 93]),
   midi.ControlChangeEvent(tick=15, channel=4, data=[7, 92]),
   midi.ControlChangeEvent(tick=20, channel=4, data=[7, 92]),
   midi.ControlChangeEvent(tick=15, channel=4, data=[7, 90]),
   midi.ControlChangeEvent(tick=20, channel=4, data=[7, 89]),
   midi.ControlChangeEvent(tick=15, channel=4, data=[7, 89]),
   midi.ControlChangeEvent(tick=15, channel=4, data=[7, 87]),
   midi.ControlChangeEvent(tick=20, channel=4, data=[7, 87]),
   midi.ControlChangeEvent(tick=15, channel=4, data=[7, 85]),
   midi.ControlChangeEvent(tick=15, channel=4, data=[7, 85]),
   midi.ControlChangeEvent(tick=30, channel=4, data=[7, 84]),
   midi.ControlChangeEvent(tick=950, channel=4, data=[64, 0]),
   midi.ControlChangeEvent(tick=0, channel=4, data=[120, 0]),
   midi.EndOfTrackEvent(tick=0, data=[])]),
 midi.Track(\
  [midi.PortEvent(tick=0, data=[0]),
   midi.ProgramChangeEvent(tick=0, channel=5, data=[68]),
   midi.ControlChangeEvent(tick=0, channel=5, data=[7, 101]),
   midi.ControlChangeEvent(tick=0, channel=5, data=[10, 65]),
   midi.ControlChangeEvent(tick=4, channel=5, data=[64, 0]),
   midi.ControlChangeEvent(tick=0, channel=5, data=[91, 122]),
   midi.ControlChangeEvent(tick=600, channel=5, data=[7, 104]),
   midi.NoteOnEvent(tick=0, channel=5, data=[33, 102]),
   midi.NoteOnEvent(tick=0, channel=5, data=[45, 102]),
   midi.NoteOnEvent(tick=40, channel=5, data=[45, 0]),
   midi.NoteOnEvent(tick=0, channel=5, data=[33, 0]),
   midi.ControlChangeEvent(tick=2785, channel=5, data=[7, 83]),
   midi.ControlChangeEvent(tick=10, channel=5, data=[7, 81]),
   midi.ControlChangeEvent(tick=10, channel=5, data=[7, 81]),
   midi.ControlChangeEvent(tick=15, channel=5, data=[7, 81]),
   midi.ControlChangeEvent(tick=10, channel=5, data=[7, 81]),
   midi.ControlChangeEvent(tick=10, channel=5, data=[7, 81]),
   midi.ControlChangeEvent(tick=10, channel=5, data=[7, 80]),
   midi.ControlChangeEvent(tick=70, channel=5, data=[7, 81]),
   midi.ControlChangeEvent(tick=5, channel=5, data=[7, 81]),
   midi.ControlChangeEvent(tick=5, channel=5, data=[7, 81]),
   midi.ControlChangeEvent(tick=10, channel=5, data=[7, 81]),
   midi.ControlChangeEvent(tick=5, channel=5, data=[7, 81]),
   midi.ControlChangeEvent(tick=15, channel=5, data=[7, 83]),
   midi.ControlChangeEvent(tick=20, channel=5, data=[7, 83]),
   midi.ControlChangeEvent(tick=255, channel=5, data=[7, 83]),
   midi.ControlChangeEvent(tick=10, channel=5, data=[7, 83]),
   midi.ControlChangeEvent(tick=5, channel=5, data=[7, 83]),
   midi.ControlChangeEvent(tick=5, channel=5, data=[7, 84]),
   midi.ControlChangeEvent(tick=5, channel=5, data=[7, 85]),
   midi.ControlChangeEvent(tick=5, channel=5, data=[7, 86]),
   midi.ControlChangeEvent(tick=5, channel=5, data=[7, 86]),
   midi.ControlChangeEvent(tick=20, channel=5, data=[7, 87]),
   midi.NoteOnEvent(tick=30, channel=5, data=[64, 81]),
   midi.NoteOnEvent(tick=0, channel=5, data=[60, 81]),
   midi.ControlChangeEvent(tick=10, channel=5, data=[7, 87]),
   midi.ControlChangeEvent(tick=45, channel=5, data=[7, 87]),
   midi.ControlChangeEvent(tick=10, channel=5, data=[7, 86]),
   midi.ControlChangeEvent(tick=15, channel=5, data=[7, 84]),
   midi.NoteOnEvent(tick=5, channel=5, data=[60, 0]),
   midi.NoteOnEvent(tick=0, channel=5, data=[64, 0]),
   midi.ControlChangeEvent(tick=5, channel=5, data=[7, 83]),
   midi.ControlChangeEvent(tick=15, channel=5, data=[7, 83]),
   midi.ControlChangeEvent(tick=10, channel=5, data=[7, 83]),
   midi.NoteOnEvent(tick=5, channel=5, data=[62, 81]),
   midi.NoteOnEvent(tick=0, channel=5, data=[65, 81]),
   midi.ControlChangeEvent(tick=10, channel=5, data=[7, 83]),
   midi.ControlChangeEvent(tick=15, channel=5, data=[7, 81]),
   midi.ControlChangeEvent(tick=40, channel=5, data=[7, 81]),
   midi.NoteOnEvent(tick=10, channel=5, data=[65, 0]),
   midi.NoteOnEvent(tick=0, channel=5, data=[62, 0]),
   midi.NoteOnEvent(tick=20, channel=5, data=[59, 81]),
   midi.NoteOnEvent(tick=0, channel=5, data=[62, 81]),
   midi.NoteOnEvent(tick=25, channel=5, data=[62, 0]),
   midi.NoteOnEvent(tick=0, channel=5, data=[59, 0]),
   midi.NoteOnEvent(tick=0, channel=5, data=[62, 81]),
   midi.NoteOnEvent(tick=0, channel=5, data=[65, 81]),
   midi.ControlChangeEvent(tick=20, channel=5, data=[7, 81]),
   midi.NoteOnEvent(tick=5, channel=5, data=[65, 0]),
   midi.NoteOnEvent(tick=0, channel=5, data=[62, 0]),
   midi.ControlChangeEvent(tick=15, channel=5, data=[7, 81]),
   midi.NoteOnEvent(tick=20, channel=5, data=[60, 81]),
   midi.NoteOnEvent(tick=0, channel=5, data=[64, 81]),
   midi.ControlChangeEvent(tick=0, channel=5, data=[7, 81]),
   midi.ControlChangeEvent(tick=15, channel=5, data=[7, 80]),
   midi.ControlChangeEvent(tick=20, channel=5, data=[7, 79]),
   midi.ControlChangeEvent(tick=20, channel=5, data=[7, 79]),
   midi.NoteOnEvent(tick=20, channel=5, data=[64, 0]),
   midi.NoteOnEvent(tick=0, channel=5, data=[60, 0]),
   midi.ControlChangeEvent(tick=20, channel=5, data=[7, 78]),
   midi.ControlChangeEvent(tick=35, channel=5, data=[7, 79]),
   midi.ControlChangeEvent(tick=15, channel=5, data=[7, 80]),
   midi.ControlChangeEvent(tick=10, channel=5, data=[7, 81]),
   midi.ControlChangeEvent(tick=15, channel=5, data=[7, 81]),
   midi.NoteOnEvent(tick=10, channel=5, data=[60, 81]),
   midi.NoteOnEvent(tick=0, channel=5, data=[64, 81]),
   midi.ControlChangeEvent(tick=0, channel=5, data=[7, 83]),
   midi.ControlChangeEvent(tick=15, channel=5, data=[7, 83]),
   midi.ControlChangeEvent(tick=10, channel=5, data=[7, 84]),
   midi.ControlChangeEvent(tick=15, channel=5, data=[7, 87]),
   midi.ControlChangeEvent(tick=10, channel=5, data=[7, 89]),
   midi.NoteOnEvent(tick=20, channel=5, data=[64, 0]),
   midi.NoteOnEvent(tick=0, channel=5, data=[60, 0]),
   midi.ControlChangeEvent(tick=0, channel=5, data=[7, 87]),
   midi.ControlChangeEvent(tick=10, channel=5, data=[7, 86]),
   midi.NoteOnEvent(tick=15, channel=5, data=[62, 81]),
   midi.NoteOnEvent(tick=0, channel=5, data=[65, 81]),
   midi.ControlChangeEvent(tick=0, channel=5, data=[7, 84]),
   midi.ControlChangeEvent(tick=15, channel=5, data=[7, 83]),
   midi.NoteOnEvent(tick=10, channel=5, data=[65, 0]),
   midi.NoteOnEvent(tick=0, channel=5, data=[62, 0]),
   midi.NoteOnEvent(tick=0, channel=5, data=[62, 81]),
   midi.NoteOnEvent(tick=0, channel=5, data=[65, 81]),
   midi.ControlChangeEvent(tick=5, channel=5, data=[7, 83]),
   midi.ControlChangeEvent(tick=15, channel=5, data=[7, 83]),
   midi.NoteOnEvent(tick=10, channel=5, data=[65, 0]),
   midi.NoteOnEvent(tick=0, channel=5, data=[62, 0]),
   midi.ControlChangeEvent(tick=5, channel=5, data=[7, 83]),
   midi.ControlChangeEvent(tick=20, channel=5, data=[7, 83]),
   midi.NoteOnEvent(tick=5, channel=5, data=[59, 81]),
   midi.NoteOnEvent(tick=0, channel=5, data=[62, 81]),
   midi.ControlChangeEvent(tick=15, channel=5, data=[7, 81]),
   midi.NoteOnEvent(tick=15, channel=5, data=[62, 0]),
   midi.NoteOnEvent(tick=0, channel=5, data=[59, 0]),
   midi.ControlChangeEvent(tick=5, channel=5, data=[7, 81]),
   midi.NoteOnEvent(tick=25, channel=5, data=[60, 81]),
   midi.NoteOnEvent(tick=0, channel=5, data=[64, 81]),
   midi.ControlChangeEvent(tick=25, channel=5, data=[7, 81]),
   midi.NoteOnEvent(tick=90, channel=5, data=[64, 0]),
   midi.NoteOnEvent(tick=0, channel=5, data=[60, 0]),
   midi.ControlChangeEvent(tick=55, channel=5, data=[7, 81]),
   midi.ControlChangeEvent(tick=35, channel=5, data=[7, 81]),
   midi.ControlChangeEvent(tick=15, channel=5, data=[7, 81]),
   midi.ControlChangeEvent(tick=15, channel=5, data=[7, 83]),
   midi.NoteOnEvent(tick=5, channel=5, data=[64, 81]),
   midi.NoteOnEvent(tick=0, channel=5, data=[67, 81]),
   midi.ControlChangeEvent(tick=5, channel=5, data=[7, 83]),
   midi.ControlChangeEvent(tick=10, channel=5, data=[7, 83]),
   midi.ControlChangeEvent(tick=10, channel=5, data=[7, 84]),
   midi.ControlChangeEvent(tick=10, channel=5, data=[7, 86]),
   midi.ControlChangeEvent(tick=10, channel=5, data=[7, 87]),
   midi.ControlChangeEvent(tick=15, channel=5, data=[7, 89]),
   midi.ControlChangeEvent(tick=10, channel=5, data=[7, 89]),
   midi.ControlChangeEvent(tick=15, channel=5, data=[7, 90]),
   midi.NoteOnEvent(tick=5, channel=5, data=[67, 0]),
   midi.NoteOnEvent(tick=0, channel=5, data=[64, 0]),
   midi.ControlChangeEvent(tick=10, channel=5, data=[7, 90]),
   midi.NoteOnEvent(tick=20, channel=5, data=[65, 81]),
   midi.NoteOnEvent(tick=0, channel=5, data=[69, 81]),
   midi.ControlChangeEvent(tick=15, channel=5, data=[7, 90]),
   midi.ControlChangeEvent(tick=15, channel=5, data=[7, 89]),
   midi.ControlChangeEvent(tick=15, channel=5, data=[7, 89]),
   midi.ControlChangeEvent(tick=10, channel=5, data=[7, 88]),
   midi.ControlChangeEvent(tick=15, channel=5, data=[7, 87]),
   midi.NoteOnEvent(tick=15, channel=5, data=[69, 0]),
   midi.NoteOnEvent(tick=0, channel=5, data=[65, 0]),
   midi.ControlChangeEvent(tick=0, channel=5, data=[7, 86]),
   midi.ControlChangeEvent(tick=10, channel=5, data=[7, 84]),
   midi.NoteOnEvent(tick=0, channel=5, data=[62, 81]),
   midi.NoteOnEvent(tick=0, channel=5, data=[65, 81]),
   midi.ControlChangeEvent(tick=15, channel=5, data=[7, 83]),
   midi.NoteOnEvent(tick=10, channel=5, data=[65, 0]),
   midi.NoteOnEvent(tick=0, channel=5, data=[62, 0]),
   midi.NoteOnEvent(tick=0, channel=5, data=[65, 81]),
   midi.NoteOnEvent(tick=0, channel=5, data=[69, 81]),
   midi.ControlChangeEvent(tick=5, channel=5, data=[7, 83]),
   midi.ControlChangeEvent(tick=10, channel=5, data=[7, 83]),
   midi.NoteOnEvent(tick=15, channel=5, data=[69, 0]),
   midi.NoteOnEvent(tick=0, channel=5, data=[65, 0]),
   midi.ControlChangeEvent(tick=0, channel=5, data=[7, 83]),
   midi.NoteOnEvent(tick=30, channel=5, data=[64, 81]),
   midi.NoteOnEvent(tick=0, channel=5, data=[67, 81]),
   midi.ControlChangeEvent(tick=0, channel=5, data=[7, 83]),
   midi.ControlChangeEvent(tick=25, channel=5, data=[7, 81]),
   midi.ControlChangeEvent(tick=20, channel=5, data=[7, 81]),
   midi.NoteOnEvent(tick=30, channel=5, data=[67, 0]),
   midi.NoteOnEvent(tick=0, channel=5, data=[64, 0]),
   midi.ControlChangeEvent(tick=0, channel=5, data=[7, 81]),
   midi.ControlChangeEvent(tick=25, channel=5, data=[7, 81]),
   midi.ControlChangeEvent(tick=60, channel=5, data=[7, 81]),
   midi.ControlChangeEvent(tick=10, channel=5, data=[7, 81]),
   midi.NoteOnEvent(tick=10, channel=5, data=[64, 81]),
   midi.NoteOnEvent(tick=0, channel=5, data=[67, 81]),
   midi.ControlChangeEvent(tick=5, channel=5, data=[7, 83]),
   midi.ControlChangeEvent(tick=10, channel=5, data=[7, 83]),
   midi.ControlChangeEvent(tick=10, channel=5, data=[7, 84]),
   midi.ControlChangeEvent(tick=15, channel=5, data=[7, 86]),
   midi.ControlChangeEvent(tick=10, channel=5, data=[7, 87]),
   midi.ControlChangeEvent(tick=15, channel=5, data=[7, 89]),
   midi.NoteOnEvent(tick=5, channel=5, data=[67, 0]),
   midi.NoteOnEvent(tick=0, channel=5, data=[64, 0]),
   midi.ControlChangeEvent(tick=10, channel=5, data=[7, 90]),
   midi.ControlChangeEvent(tick=10, channel=5, data=[7, 90]),
   midi.NoteOnEvent(tick=5, channel=5, data=[65, 81]),
   midi.NoteOnEvent(tick=0, channel=5, data=[69, 81]),
   midi.NoteOnEvent(tick=25, channel=5, data=[69, 0]),
   midi.NoteOnEvent(tick=0, channel=5, data=[65, 0]),
   midi.NoteOnEvent(tick=0, channel=5, data=[65, 81]),
   midi.NoteOnEvent(tick=0, channel=5, data=[69, 81]),
   midi.ControlChangeEvent(tick=5, channel=5, data=[7, 90]),
   midi.ControlChangeEvent(tick=10, channel=5, data=[7, 89]),
   midi.NoteOnEvent(tick=15, channel=5, data=[69, 0]),
   midi.NoteOnEvent(tick=0, channel=5, data=[65, 0]),
   midi.ControlChangeEvent(tick=0, channel=5, data=[7, 86]),
   midi.ControlChangeEvent(tick=10, channel=5, data=[7, 83]),
   midi.ControlChangeEvent(tick=15, channel=5, data=[7, 83]),
   midi.NoteOnEvent(tick=5, channel=5, data=[62, 81]),
   midi.NoteOnEvent(tick=0, channel=5, data=[65, 81]),
   midi.ControlChangeEvent(tick=10, channel=5, data=[7, 83]),
   midi.ControlChangeEvent(tick=10, channel=5, data=[7, 81]),
   midi.NoteOnEvent(tick=10, channel=5, data=[65, 0]),
   midi.NoteOnEvent(tick=0, channel=5, data=[62, 0]),
   midi.ControlChangeEvent(tick=0, channel=5, data=[7, 81]),
   midi.ControlChangeEvent(tick=15, channel=5, data=[7, 81]),
   midi.ControlChangeEvent(tick=10, channel=5, data=[7, 80]),
   midi.NoteOnEvent(tick=5, channel=5, data=[64, 81]),
   midi.NoteOnEvent(tick=0, channel=5, data=[67, 81]),
   midi.ControlChangeEvent(tick=10, channel=5, data=[7, 79]),
   midi.ControlChangeEvent(tick=10, channel=5, data=[7, 78]),
   midi.ControlChangeEvent(tick=10, channel=5, data=[7, 77]),
   midi.ControlChangeEvent(tick=15, channel=5, data=[7, 76]),
   midi.NoteOnEvent(tick=70, channel=5, data=[67, 0]),
   midi.NoteOnEvent(tick=0, channel=5, data=[64, 0]),
   midi.NoteOnEvent(tick=125, channel=5, data=[52, 92]),
   midi.ControlChangeEvent(tick=50, channel=5, data=[7, 77]),
   midi.ControlChangeEvent(tick=10, channel=5, data=[7, 78]),
   midi.ControlChangeEvent(tick=15, channel=5, data=[7, 78]),
   midi.ControlChangeEvent(tick=25, channel=5, data=[7, 79]),
   midi.NoteOnEvent(tick=20, channel=5, data=[52, 0]),
   midi.NoteOnEvent(tick=0, channel=5, data=[53, 86]),
   midi.ControlChangeEvent(tick=5, channel=5, data=[7, 79]),
   midi.ControlChangeEvent(tick=40, channel=5, data=[7, 80]),
   midi.ControlChangeEvent(tick=35, channel=5, data=[7, 81]),
   midi.ControlChangeEvent(tick=10, channel=5, data=[7, 81]),
   midi.ControlChangeEvent(tick=25, channel=5, data=[7, 81]),
   midi.NoteOnEvent(tick=5, channel=5, data=[53, 0]),
   midi.NoteOnEvent(tick=0, channel=5, data=[59, 86]),
   midi.ControlChangeEvent(tick=40, channel=5, data=[7, 81]),
   midi.ControlChangeEvent(tick=90, channel=5, data=[7, 81]),
   midi.ControlChangeEvent(tick=15, channel=5, data=[7, 81]),
   midi.ControlChangeEvent(tick=10, channel=5, data=[7, 81]),
   midi.ControlChangeEvent(tick=10, channel=5, data=[7, 79]),
   midi.ControlChangeEvent(tick=15, channel=5, data=[7, 78]),
   midi.ControlChangeEvent(tick=10, channel=5, data=[7, 77]),
   midi.ControlChangeEvent(tick=10, channel=5, data=[7, 76]),
   midi.ControlChangeEvent(tick=15, channel=5, data=[7, 76]),
   midi.NoteOnEvent(tick=15, channel=5, data=[59, 0]),
   midi.NoteOnEvent(tick=10, channel=5, data=[57, 92]),
   midi.ControlChangeEvent(tick=15, channel=5, data=[7, 76]),
   midi.ControlChangeEvent(tick=15, channel=5, data=[7, 76]),
   midi.ControlChangeEvent(tick=15, channel=5, data=[7, 76]),
   midi.ControlChangeEvent(tick=15, channel=5, data=[7, 77]),
   midi.ControlChangeEvent(tick=20, channel=5, data=[7, 78]),
   midi.ControlChangeEvent(tick=10, channel=5, data=[7, 79]),
   midi.ControlChangeEvent(tick=15, channel=5, data=[7, 79]),
   midi.NoteOnEvent(tick=15, channel=5, data=[57, 0]),
   midi.NoteOnEvent(tick=0, channel=5, data=[58, 86]),
   midi.ControlChangeEvent(tick=0, channel=5, data=[7, 80]),
   midi.ControlChangeEvent(tick=10, channel=5, data=[7, 81]),
   midi.ControlChangeEvent(tick=10, channel=5, data=[7, 81]),
   midi.ControlChangeEvent(tick=15, channel=5, data=[7, 81]),
   midi.ControlChangeEvent(tick=10, channel=5, data=[7, 81]),
   midi.ControlChangeEvent(tick=10, channel=5, data=[7, 81]),
   midi.ControlChangeEvent(tick=20, channel=5, data=[7, 81]),
   midi.ControlChangeEvent(tick=15, channel=5, data=[7, 83]),
   midi.ControlChangeEvent(tick=10, channel=5, data=[7, 83]),
   midi.ControlChangeEvent(tick=15, channel=5, data=[7, 83]),
   midi.NoteOnEvent(tick=5, channel=5, data=[58, 0]),
   midi.NoteOnEvent(tick=0, channel=5, data=[64, 86]),
   midi.ControlChangeEvent(tick=5, channel=5, data=[7, 83]),
   midi.ControlChangeEvent(tick=15, channel=5, data=[7, 83]),
   midi.ControlChangeEvent(tick=10, channel=5, data=[7, 84]),
   midi.ControlChangeEvent(tick=15, channel=5, data=[7, 84]),
   midi.ControlChangeEvent(tick=15, channel=5, data=[7, 85]),
   midi.ControlChangeEvent(tick=10, channel=5, data=[7, 86]),
   midi.ControlChangeEvent(tick=15, channel=5, data=[7, 86]),
   midi.ControlChangeEvent(tick=10, channel=5, data=[7, 87]),
   midi.ControlChangeEvent(tick=15, channel=5, data=[7, 87]),
   midi.ControlChangeEvent(tick=10, channel=5, data=[7, 88]),
   midi.ControlChangeEvent(tick=15, channel=5, data=[7, 89]),
   midi.NoteOnEvent(tick=105, channel=5, data=[64, 0]),
   midi.NoteOnEvent(tick=0, channel=5, data=[65, 92]),
   midi.NoteOnEvent(tick=120, channel=5, data=[65, 0]),
   midi.NoteOnEvent(tick=0, channel=5, data=[64, 86]),
   midi.ControlChangeEvent(tick=35, channel=5, data=[7, 88]),
   midi.ControlChangeEvent(tick=10, channel=5, data=[7, 87]),
   midi.ControlChangeEvent(tick=10, channel=5, data=[7, 86]),
   midi.ControlChangeEvent(tick=10, channel=5, data=[7, 86]),
   midi.NoteOnEvent(tick=55, channel=5, data=[64, 0]),
   midi.NoteOnEvent(tick=0, channel=5, data=[57, 92]),
   midi.NoteOnEvent(tick=40, channel=5, data=[57, 0]),
   midi.ControlChangeEvent(tick=0, channel=5, data=[7, 85]),
   midi.NoteOnEvent(tick=0, channel=5, data=[59, 86]),
   midi.NoteOnEvent(tick=40, channel=5, data=[59, 0]),
   midi.NoteOnEvent(tick=0, channel=5, data=[60, 86]),
   midi.NoteOnEvent(tick=40, channel=5, data=[60, 0]),
   midi.NoteOnEvent(tick=0, channel=5, data=[59, 86]),
   midi.ControlChangeEvent(tick=15, channel=5, data=[7, 86]),
   midi.ControlChangeEvent(tick=15, channel=5, data=[7, 87]),
   midi.NoteOnEvent(tick=5, channel=5, data=[59, 0]),
   midi.ControlChangeEvent(tick=20, channel=5, data=[7, 87]),
   midi.NoteOnEvent(tick=5, channel=5, data=[62, 86]),
   midi.ControlChangeEvent(tick=5, channel=5, data=[7, 88]),
   midi.ControlChangeEvent(tick=15, channel=5, data=[7, 89]),
   midi.ControlChangeEvent(tick=25, channel=5, data=[7, 89]),
   midi.NoteOnEvent(tick=5, channel=5, data=[62, 0]),
   midi.NoteOnEvent(tick=10, channel=5, data=[56, 92]),
   midi.ControlChangeEvent(tick=0, channel=5, data=[7, 90]),
   midi.ControlChangeEvent(tick=15, channel=5, data=[7, 90]),
   midi.ControlChangeEvent(tick=10, channel=5, data=[7, 90]),
   midi.ControlChangeEvent(tick=55, channel=5, data=[7, 90]),
   midi.ControlChangeEvent(tick=10, channel=5, data=[7, 89]),
   midi.ControlChangeEvent(tick=15, channel=5, data=[7, 88]),
   midi.ControlChangeEvent(tick=15, channel=5, data=[7, 87]),
   midi.ControlChangeEvent(tick=10, channel=5, data=[7, 86]),
   midi.ControlChangeEvent(tick=15, channel=5, data=[7, 84]),
   midi.ControlChangeEvent(tick=10, channel=5, data=[7, 83]),
   midi.ControlChangeEvent(tick=10, channel=5, data=[7, 83]),
   midi.NoteOnEvent(tick=15, channel=5, data=[56, 0]),
   midi.NoteOnEvent(tick=0, channel=5, data=[57, 86]),
   midi.ControlChangeEvent(tick=0, channel=5, data=[7, 83]),
   midi.ControlChangeEvent(tick=10, channel=5, data=[7, 83]),
   midi.ControlChangeEvent(tick=15, channel=5, data=[7, 81]),
   midi.ControlChangeEvent(tick=20, channel=5, data=[7, 81]),
   midi.NoteOnEvent(tick=15, channel=5, data=[57, 0]),
   midi.NoteOnEvent(tick=0, channel=5, data=[60, 86]),
   midi.ControlChangeEvent(tick=10, channel=5, data=[7, 81]),
   midi.ControlChangeEvent(tick=15, channel=5, data=[7, 81]),
   midi.ControlChangeEvent(tick=20, channel=5, data=[7, 81]),
   midi.ControlChangeEvent(tick=15, channel=5, data=[7, 80]),
   midi.ControlChangeEvent(tick=25, channel=5, data=[7, 79]),
   midi.ControlChangeEvent(tick=15, channel=5, data=[7, 78]),
   midi.NoteOnEvent(tick=20, channel=5, data=[60, 0]),
   midi.ControlChangeEvent(tick=0, channel=5, data=[7, 77]),
   midi.NoteOnEvent(tick=0, channel=5, data=[59, 86]),
   midi.ControlChangeEvent(tick=20, channel=5, data=[7, 76]),
   midi.ControlChangeEvent(tick=15, channel=5, data=[7, 76]),
   midi.ControlChangeEvent(tick=10, channel=5, data=[7, 75]),
   midi.ControlChangeEvent(tick=10, channel=5, data=[7, 75]),
   midi.ControlChangeEvent(tick=20, channel=5, data=[7, 74]),
   midi.ControlChangeEvent(tick=10, channel=5, data=[7, 73]),
   midi.NoteOnEvent(tick=5, channel=5, data=[59, 0]),
   midi.ControlChangeEvent(tick=5, channel=5, data=[7, 72]),
   midi.ControlChangeEvent(tick=15, channel=5, data=[7, 72]),
   midi.NoteOnEvent(tick=10, channel=5, data=[47, 81]),
   midi.NoteOnEvent(tick=0, channel=5, data=[52, 81]),
   midi.ControlChangeEvent(tick=0, channel=5, data=[7, 71]),
   midi.ControlChangeEvent(tick=10, channel=5, data=[7, 70]),
   midi.ControlChangeEvent(tick=20, channel=5, data=[7, 69]),
   midi.NoteOnEvent(tick=90, channel=5, data=[52, 0]),
   midi.NoteOnEvent(tick=0, channel=5, data=[53, 81]),
   midi.NoteOnEvent(tick=120, channel=5, data=[53, 0]),
   midi.NoteOnEvent(tick=0, channel=5, data=[47, 0]),
   midi.NoteOnEvent(tick=0, channel=5, data=[50, 81]),
   midi.NoteOnEvent(tick=0, channel=5, data=[59, 81]),
   midi.NoteOnEvent(tick=235, channel=5, data=[59, 0]),
   midi.NoteOnEvent(tick=0, channel=5, data=[50, 0]),
   midi.NoteOnEvent(tick=5, channel=5, data=[52, 81]),
   midi.NoteOnEvent(tick=0, channel=5, data=[57, 81]),
   midi.NoteOnEvent(tick=120, channel=5, data=[57, 0]),
   midi.NoteOnEvent(tick=0, channel=5, data=[58, 81]),
   midi.NoteOnEvent(tick=120, channel=5, data=[58, 0]),
   midi.NoteOnEvent(tick=0, channel=5, data=[52, 0]),
   midi.NoteOnEvent(tick=0, channel=5, data=[55, 81]),
   midi.NoteOnEvent(tick=0, channel=5, data=[64, 81]),
   midi.NoteOnEvent(tick=235, channel=5, data=[64, 0]),
   midi.NoteOnEvent(tick=0, channel=5, data=[55, 0]),
   midi.NoteOnEvent(tick=5, channel=5, data=[62, 81]),
   midi.NoteOnEvent(tick=0, channel=5, data=[65, 81]),
   midi.NoteOnEvent(tick=120, channel=5, data=[65, 0]),
   midi.NoteOnEvent(tick=0, channel=5, data=[62, 0]),
   midi.NoteOnEvent(tick=0, channel=5, data=[60, 81]),
   midi.NoteOnEvent(tick=0, channel=5, data=[64, 81]),
   midi.NoteOnEvent(tick=120, channel=5, data=[64, 0]),
   midi.NoteOnEvent(tick=0, channel=5, data=[60, 0]),
   midi.NoteOnEvent(tick=0, channel=5, data=[53, 81]),
   midi.NoteOnEvent(tick=0, channel=5, data=[57, 81]),
   midi.NoteOnEvent(tick=40, channel=5, data=[57, 0]),
   midi.NoteOnEvent(tick=0, channel=5, data=[59, 81]),
   midi.NoteOnEvent(tick=40, channel=5, data=[59, 0]),
   midi.NoteOnEvent(tick=0, channel=5, data=[60, 81]),
   midi.NoteOnEvent(tick=40, channel=5, data=[60, 0]),
   midi.NoteOnEvent(tick=0, channel=5, data=[53, 0]),
   midi.NoteOnEvent(tick=0, channel=5, data=[59, 81]),
   midi.NoteOnEvent(tick=60, channel=5, data=[59, 0]),
   midi.NoteOnEvent(tick=0, channel=5, data=[62, 76]),
   midi.NoteOnEvent(tick=55, channel=5, data=[62, 0]),
   midi.NoteOnEvent(tick=5, channel=5, data=[56, 73]),
   midi.NoteOnEvent(tick=115, channel=5, data=[56, 0]),
   midi.ControlChangeEvent(tick=1250, channel=5, data=[7, 69]),
   midi.ControlChangeEvent(tick=10, channel=5, data=[7, 69]),
   midi.ControlChangeEvent(tick=15, channel=5, data=[7, 68]),
   midi.ControlChangeEvent(tick=10, channel=5, data=[7, 67]),
   midi.ControlChangeEvent(tick=10, channel=5, data=[7, 67]),
   midi.ControlChangeEvent(tick=15, channel=5, data=[7, 66]),
   midi.ControlChangeEvent(tick=10, channel=5, data=[7, 66]),
   midi.ControlChangeEvent(tick=10, channel=5, data=[7, 66]),
   midi.ControlChangeEvent(tick=10, channel=5, data=[7, 65]),
   midi.ControlChangeEvent(tick=10, channel=5, data=[7, 65]),
   midi.ControlChangeEvent(tick=15, channel=5, data=[7, 65]),
   midi.ControlChangeEvent(tick=10, channel=5, data=[7, 65]),
   midi.ControlChangeEvent(tick=10, channel=5, data=[7, 65]),
   midi.ControlChangeEvent(tick=15, channel=5, data=[7, 65]),
   midi.ControlChangeEvent(tick=20, channel=5, data=[7, 65]),
   midi.ControlChangeEvent(tick=20, channel=5, data=[7, 63]),
   midi.ControlChangeEvent(tick=15, channel=5, data=[7, 63]),
   midi.ControlChangeEvent(tick=10, channel=5, data=[7, 63]),
   midi.ControlChangeEvent(tick=15, channel=5, data=[7, 63]),
   midi.ControlChangeEvent(tick=15, channel=5, data=[7, 63]),
   midi.ControlChangeEvent(tick=20, channel=5, data=[7, 63]),
   midi.ControlChangeEvent(tick=20, channel=5, data=[7, 61]),
   midi.ControlChangeEvent(tick=20, channel=5, data=[7, 61]),
   midi.ControlChangeEvent(tick=3360, channel=5, data=[7, 61]),
   midi.ControlChangeEvent(tick=1700, channel=5, data=[7, 61]),
   midi.ControlChangeEvent(tick=15, channel=5, data=[7, 61]),
   midi.ControlChangeEvent(tick=20, channel=5, data=[7, 63]),
   midi.NoteOnEvent(tick=15, channel=5, data=[52, 110]),
   midi.ControlChangeEvent(tick=5, channel=5, data=[7, 63]),
   midi.ControlChangeEvent(tick=15, channel=5, data=[7, 65]),
   midi.ControlChangeEvent(tick=20, channel=5, data=[7, 65]),
   midi.NoteOnEvent(tick=20, channel=5, data=[52, 0]),
   midi.NoteOnEvent(tick=0, channel=5, data=[57, 110]),
   midi.ControlChangeEvent(tick=0, channel=5, data=[7, 65]),
   midi.ControlChangeEvent(tick=20, channel=5, data=[7, 66]),
   midi.ControlChangeEvent(tick=15, channel=5, data=[7, 68]),
   midi.ControlChangeEvent(tick=20, channel=5, data=[7, 69]),
   midi.NoteOnEvent(tick=5, channel=5, data=[57, 0]),
   midi.NoteOnEvent(tick=0, channel=5, data=[56, 110]),
   midi.ControlChangeEvent(tick=15, channel=5, data=[7, 72]),
   midi.ControlChangeEvent(tick=20, channel=5, data=[7, 75]),
   midi.ControlChangeEvent(tick=20, channel=5, data=[7, 76]),
   midi.NoteOnEvent(tick=5, channel=5, data=[56, 0]),
   midi.NoteOnEvent(tick=0, channel=5, data=[55, 110]),
   midi.ControlChangeEvent(tick=15, channel=5, data=[7, 79]),
   midi.ControlChangeEvent(tick=20, channel=5, data=[7, 81]),
   midi.ControlChangeEvent(tick=20, channel=5, data=[7, 81]),
   midi.NoteOnEvent(tick=5, channel=5, data=[55, 0]),
   midi.NoteOnEvent(tick=0, channel=5, data=[54, 110]),
   midi.ControlChangeEvent(tick=20, channel=5, data=[7, 83]),
   midi.ControlChangeEvent(tick=15, channel=5, data=[7, 84]),
   midi.ControlChangeEvent(tick=20, channel=5, data=[7, 87]),
   midi.NoteOnEvent(tick=5, channel=5, data=[54, 0]),
   midi.NoteOnEvent(tick=0, channel=5, data=[53, 110]),
   midi.ControlChangeEvent(tick=20, channel=5, data=[7, 89]),
   midi.ControlChangeEvent(tick=20, channel=5, data=[7, 90]),
   midi.NoteOnEvent(tick=20, channel=5, data=[53, 0]),
   midi.NoteOnEvent(tick=0, channel=5, data=[52, 110]),
   midi.ControlChangeEvent(tick=0, channel=5, data=[7, 92]),
   midi.ControlChangeEvent(tick=20, channel=5, data=[7, 92]),
   midi.ControlChangeEvent(tick=20, channel=5, data=[7, 92]),
   midi.NoteOnEvent(tick=15, channel=5, data=[52, 0]),
   midi.ControlChangeEvent(tick=10, channel=5, data=[7, 93]),
   midi.ControlChangeEvent(tick=20, channel=5, data=[7, 94]),
   midi.ControlChangeEvent(tick=25, channel=5, data=[7, 93]),
   midi.NoteOnEvent(tick=10, channel=5, data=[65, 92]),
   midi.ControlChangeEvent(tick=10, channel=5, data=[7, 88]),
   midi.NoteOnEvent(tick=15, channel=5, data=[65, 0]),
   midi.ControlChangeEvent(tick=5, channel=5, data=[7, 85]),
   midi.ControlChangeEvent(tick=20, channel=5, data=[7, 83]),
   midi.NoteOnEvent(tick=10, channel=5, data=[65, 92]),
   midi.ControlChangeEvent(tick=10, channel=5, data=[7, 83]),
   midi.NoteOnEvent(tick=15, channel=5, data=[65, 0]),
   midi.ControlChangeEvent(tick=15, channel=5, data=[7, 83]),
   midi.ControlChangeEvent(tick=15, channel=5, data=[7, 81]),
   midi.ControlChangeEvent(tick=20, channel=5, data=[7, 81]),
   midi.NoteOnEvent(tick=105, channel=5, data=[59, 92]),
   midi.NoteOnEvent(tick=25, channel=5, data=[59, 0]),
   midi.ControlChangeEvent(tick=0, channel=5, data=[7, 81]),
   midi.NoteOnEvent(tick=35, channel=5, data=[59, 92]),
   midi.ControlChangeEvent(tick=10, channel=5, data=[7, 81]),
   midi.NoteOnEvent(tick=15, channel=5, data=[59, 0]),
   midi.ControlChangeEvent(tick=100, channel=5, data=[7, 81]),
   midi.NoteOnEvent(tick=55, channel=5, data=[53, 92]),
   midi.NoteOnEvent(tick=25, channel=5, data=[53, 0]),
   midi.ControlChangeEvent(tick=0, channel=5, data=[7, 81]),
   midi.ControlChangeEvent(tick=30, channel=5, data=[7, 80]),
   midi.NoteOnEvent(tick=5, channel=5, data=[53, 92]),
   midi.NoteOnEvent(tick=25, channel=5, data=[53, 0]),
   midi.ControlChangeEvent(tick=25, channel=5, data=[7, 80]),
   midi.ControlChangeEvent(tick=40, channel=5, data=[7, 79]),
   midi.ControlChangeEvent(tick=20, channel=5, data=[7, 79]),
   midi.ControlChangeEvent(tick=15, channel=5, data=[7, 77]),
   midi.ControlChangeEvent(tick=20, channel=5, data=[7, 76]),
   midi.ControlChangeEvent(tick=15, channel=5, data=[7, 76]),
   midi.ControlChangeEvent(tick=20, channel=5, data=[7, 76]),
   midi.ControlChangeEvent(tick=15, channel=5, data=[7, 75]),
   midi.ControlChangeEvent(tick=20, channel=5, data=[7, 75]),
   midi.ControlChangeEvent(tick=45, channel=5, data=[7, 75]),
   midi.ControlChangeEvent(tick=25, channel=5, data=[7, 74]),
   midi.ControlChangeEvent(tick=25, channel=5, data=[7, 73]),
   midi.ControlChangeEvent(tick=440, channel=5, data=[7, 74]),
   midi.ControlChangeEvent(tick=45, channel=5, data=[7, 75]),
   midi.ControlChangeEvent(tick=15, channel=5, data=[7, 75]),
   midi.ControlChangeEvent(tick=20, channel=5, data=[7, 76]),
   midi.ControlChangeEvent(tick=20, channel=5, data=[7, 76]),
   midi.ControlChangeEvent(tick=20, channel=5, data=[7, 77]),
   midi.ControlChangeEvent(tick=20, channel=5, data=[7, 79]),
   midi.NoteOnEvent(tick=10, channel=5, data=[52, 110]),
   midi.ControlChangeEvent(tick=10, channel=5, data=[7, 79]),
   midi.ControlChangeEvent(tick=15, channel=5, data=[7, 81]),
   midi.ControlChangeEvent(tick=20, channel=5, data=[7, 81]),
   midi.NoteOnEvent(tick=15, channel=5, data=[52, 0]),
   midi.NoteOnEvent(tick=0, channel=5, data=[57, 110]),
   midi.ControlChangeEvent(tick=5, channel=5, data=[7, 83]),
   midi.ControlChangeEvent(tick=20, channel=5, data=[7, 83]),
   midi.ControlChangeEvent(tick=20, channel=5, data=[7, 84]),
   midi.NoteOnEvent(tick=15, channel=5, data=[57, 0]),
   midi.NoteOnEvent(tick=0, channel=5, data=[56, 110]),
   midi.ControlChangeEvent(tick=5, channel=5, data=[7, 85]),
   midi.ControlChangeEvent(tick=25, channel=5, data=[7, 87]),
   midi.ControlChangeEvent(tick=20, channel=5, data=[7, 88]),
   midi.NoteOnEvent(tick=10, channel=5, data=[56, 0]),
   midi.NoteOnEvent(tick=0, channel=5, data=[55, 110]),
   midi.ControlChangeEvent(tick=10, channel=5, data=[7, 89]),
   midi.ControlChangeEvent(tick=20, channel=5, data=[7, 90]),
   midi.ControlChangeEvent(tick=20, channel=5, data=[7, 92]),
   midi.NoteOnEvent(tick=10, channel=5, data=[55, 0]),
   midi.NoteOnEvent(tick=0, channel=5, data=[54, 110]),
   midi.ControlChangeEvent(tick=5, channel=5, data=[7, 92]),
   midi.ControlChangeEvent(tick=20, channel=5, data=[7, 93]),
   midi.ControlChangeEvent(tick=20, channel=5, data=[7, 94]),
   midi.NoteOnEvent(tick=15, channel=5, data=[54, 0]),
   midi.NoteOnEvent(tick=0, channel=5, data=[53, 110]),
   midi.NoteOnEvent(tick=60, channel=5, data=[53, 0]),
   midi.NoteOnEvent(tick=0, channel=5, data=[51, 110]),
   midi.NoteOnEvent(tick=60, channel=5, data=[51, 0]),
   midi.NoteOnEvent(tick=60, channel=5, data=[63, 92]),
   midi.NoteOnEvent(tick=25, channel=5, data=[63, 0]),
   midi.NoteOnEvent(tick=35, channel=5, data=[63, 92]),
   midi.NoteOnEvent(tick=25, channel=5, data=[63, 0]),
   midi.ControlChangeEvent(tick=5, channel=5, data=[7, 94]),
   midi.ControlChangeEvent(tick=20, channel=5, data=[7, 92]),
   midi.ControlChangeEvent(tick=20, channel=5, data=[7, 92]),
   midi.ControlChangeEvent(tick=15, channel=5, data=[7, 90]),
   midi.ControlChangeEvent(tick=20, channel=5, data=[7, 89]),
   midi.ControlChangeEvent(tick=20, channel=5, data=[7, 88]),
   midi.ControlChangeEvent(tick=20, channel=5, data=[7, 87]),
   midi.ControlChangeEvent(tick=20, channel=5, data=[7, 86]),
   midi.NoteOnEvent(tick=15, channel=5, data=[57, 92]),
   midi.ControlChangeEvent(tick=5, channel=5, data=[7, 85]),
   midi.ControlChangeEvent(tick=15, channel=5, data=[7, 83]),
   midi.NoteOnEvent(tick=5, channel=5, data=[57, 0]),
   midi.ControlChangeEvent(tick=15, channel=5, data=[7, 83]),
   midi.NoteOnEvent(tick=20, channel=5, data=[57, 92]),
   midi.ControlChangeEvent(tick=0, channel=5, data=[7, 83]),
   midi.NoteOnEvent(tick=25, channel=5, data=[57, 0]),
   midi.ControlChangeEvent(tick=20, channel=5, data=[7, 83]),
   midi.ControlChangeEvent(tick=35, channel=5, data=[7, 83]),
   midi.NoteOnEvent(tick=100, channel=5, data=[51, 92]),
   midi.ControlChangeEvent(tick=20, channel=5, data=[7, 83]),
   midi.NoteOnEvent(tick=5, channel=5, data=[51, 0]),
   midi.ControlChangeEvent(tick=15, channel=5, data=[7, 83]),
   midi.NoteOnEvent(tick=20, channel=5, data=[51, 92]),
   midi.ControlChangeEvent(tick=0, channel=5, data=[7, 83]),
   midi.NoteOnEvent(tick=25, channel=5, data=[51, 0]),
   midi.ControlChangeEvent(tick=2530, channel=5, data=[7, 83]),
   midi.ControlChangeEvent(tick=95, channel=5, data=[7, 83]),
   midi.ControlChangeEvent(tick=30, channel=5, data=[7, 83]),
   midi.ControlChangeEvent(tick=15, channel=5, data=[7, 83]),
   midi.ControlChangeEvent(tick=50, channel=5, data=[7, 81]),
   midi.ControlChangeEvent(tick=20, channel=5, data=[7, 81]),
   midi.ControlChangeEvent(tick=35, channel=5, data=[7, 81]),
   midi.ControlChangeEvent(tick=115, channel=5, data=[7, 81]),
   midi.ControlChangeEvent(tick=10, channel=5, data=[7, 83]),
   midi.ControlChangeEvent(tick=10, channel=5, data=[7, 83]),
   midi.ControlChangeEvent(tick=15, channel=5, data=[7, 83]),
   midi.ControlChangeEvent(tick=10, channel=5, data=[7, 83]),
   midi.ControlChangeEvent(tick=15, channel=5, data=[7, 84]),
   midi.ControlChangeEvent(tick=10, channel=5, data=[7, 85]),
   midi.ControlChangeEvent(tick=15, channel=5, data=[7, 86]),
   midi.ControlChangeEvent(tick=15, channel=5, data=[7, 87]),
   midi.ControlChangeEvent(tick=10, channel=5, data=[7, 87]),
   midi.ControlChangeEvent(tick=35, channel=5, data=[7, 87]),
   midi.ControlChangeEvent(tick=10, channel=5, data=[7, 86]),
   midi.ControlChangeEvent(tick=15, channel=5, data=[7, 85]),
   midi.ControlChangeEvent(tick=10, channel=5, data=[7, 85]),
   midi.ControlChangeEvent(tick=15, channel=5, data=[7, 84]),
   midi.ControlChangeEvent(tick=15, channel=5, data=[7, 83]),
   midi.ControlChangeEvent(tick=10, channel=5, data=[7, 83]),
   midi.ControlChangeEvent(tick=30, channel=5, data=[7, 83]),
   midi.ControlChangeEvent(tick=40, channel=5, data=[7, 83]),
   midi.ControlChangeEvent(tick=15, channel=5, data=[7, 83]),
   midi.ControlChangeEvent(tick=30, channel=5, data=[7, 81]),
   midi.ControlChangeEvent(tick=10, channel=5, data=[7, 81]),
   midi.ControlChangeEvent(tick=15, channel=5, data=[7, 81]),
   midi.ControlChangeEvent(tick=15, channel=5, data=[7, 81]),
   midi.ControlChangeEvent(tick=20, channel=5, data=[7, 81]),
   midi.ControlChangeEvent(tick=30, channel=5, data=[7, 81]),
   midi.ControlChangeEvent(tick=15, channel=5, data=[7, 80]),
   midi.ControlChangeEvent(tick=15, channel=5, data=[7, 80]),
   midi.ControlChangeEvent(tick=10, channel=5, data=[7, 79]),
   midi.ControlChangeEvent(tick=20, channel=5, data=[7, 79]),
   midi.ControlChangeEvent(tick=195, channel=5, data=[7, 79]),
   midi.NoteOnEvent(tick=125, channel=5, data=[60, 97]),
   midi.ControlChangeEvent(tick=160, channel=5, data=[7, 80]),
   midi.ControlChangeEvent(tick=25, channel=5, data=[7, 79]),
   midi.ControlChangeEvent(tick=25, channel=5, data=[7, 79]),
   midi.NoteOnEvent(tick=30, channel=5, data=[60, 0]),
   midi.NoteOnEvent(tick=0, channel=5, data=[65, 92]),
   midi.ControlChangeEvent(tick=5, channel=5, data=[7, 78]),
   midi.ControlChangeEvent(tick=65, channel=5, data=[7, 79]),
   midi.ControlChangeEvent(tick=15, channel=5, data=[7, 80]),
   midi.ControlChangeEvent(tick=25, channel=5, data=[7, 80]),
   midi.ControlChangeEvent(tick=20, channel=5, data=[7, 81]),
   midi.ControlChangeEvent(tick=15, channel=5, data=[7, 81]),
   midi.ControlChangeEvent(tick=15, channel=5, data=[7, 81]),
   midi.ControlChangeEvent(tick=15, channel=5, data=[7, 81]),
   midi.ControlChangeEvent(tick=15, channel=5, data=[7, 81]),
   midi.ControlChangeEvent(tick=20, channel=5, data=[7, 83]),
   midi.ControlChangeEvent(tick=15, channel=5, data=[7, 83]),
   midi.NoteOnEvent(tick=5, channel=5, data=[65, 0]),
   midi.NoteOnEvent(tick=10, channel=5, data=[60, 102]),
   midi.NoteOnEvent(tick=0, channel=5, data=[69, 102]),
   midi.ControlChangeEvent(tick=0, channel=5, data=[7, 83]),
   midi.ControlChangeEvent(tick=10, channel=5, data=[7, 85]),
   midi.ControlChangeEvent(tick=15, channel=5, data=[7, 87]),
   midi.ControlChangeEvent(tick=10, channel=5, data=[7, 89]),
   midi.ControlChangeEvent(tick=15, channel=5, data=[7, 94]),
   midi.ControlChangeEvent(tick=10, channel=5, data=[7, 94]),
   midi.ControlChangeEvent(tick=40, channel=5, data=[7, 94]),
   midi.ControlChangeEvent(tick=10, channel=5, data=[7, 92]),
   midi.ControlChangeEvent(tick=15, channel=5, data=[7, 89]),
   midi.ControlChangeEvent(tick=15, channel=5, data=[7, 88]),
   midi.ControlChangeEvent(tick=10, channel=5, data=[7, 86]),
   midi.ControlChangeEvent(tick=15, channel=5, data=[7, 83]),
   midi.ControlChangeEvent(tick=15, channel=5, data=[7, 83]),
   midi.ControlChangeEvent(tick=15, channel=5, data=[7, 81]),
   midi.ControlChangeEvent(tick=10, channel=5, data=[7, 81]),
   midi.ControlChangeEvent(tick=15, channel=5, data=[7, 80]),
   midi.ControlChangeEvent(tick=15, channel=5, data=[7, 80]),
   midi.ControlChangeEvent(tick=10, channel=5, data=[7, 79]),
   midi.ControlChangeEvent(tick=15, channel=5, data=[7, 77]),
   midi.ControlChangeEvent(tick=10, channel=5, data=[7, 77]),
   midi.ControlChangeEvent(tick=15, channel=5, data=[7, 76]),
   midi.ControlChangeEvent(tick=10, channel=5, data=[7, 76]),
   midi.ControlChangeEvent(tick=10, channel=5, data=[7, 75]),
   midi.ControlChangeEvent(tick=15, channel=5, data=[7, 74]),
   midi.ControlChangeEvent(tick=10, channel=5, data=[7, 73]),
   midi.ControlChangeEvent(tick=15, channel=5, data=[7, 73]),
   midi.ControlChangeEvent(tick=10, channel=5, data=[7, 72]),
   midi.ControlChangeEvent(tick=10, channel=5, data=[7, 71]),
   midi.ControlChangeEvent(tick=5, channel=5, data=[7, 70]),
   midi.ControlChangeEvent(tick=10, channel=5, data=[7, 69]),
   midi.ControlChangeEvent(tick=5, channel=5, data=[7, 69]),
   midi.ControlChangeEvent(tick=10, channel=5, data=[7, 69]),
   midi.ControlChangeEvent(tick=5, channel=5, data=[7, 68]),
   midi.ControlChangeEvent(tick=20, channel=5, data=[7, 68]),
   midi.ControlChangeEvent(tick=10, channel=5, data=[7, 67]),
   midi.ControlChangeEvent(tick=15, channel=5, data=[7, 67]),
   midi.ControlChangeEvent(tick=5, channel=5, data=[7, 67]),
   midi.ControlChangeEvent(tick=5, channel=5, data=[7, 66]),
   midi.ControlChangeEvent(tick=20, channel=5, data=[7, 66]),
   midi.NoteOnEvent(tick=5, channel=5, data=[69, 0]),
   midi.NoteOnEvent(tick=0, channel=5, data=[60, 0]),
   midi.NoteOnEvent(tick=0, channel=5, data=[59, 79]),
   midi.NoteOnEvent(tick=0, channel=5, data=[67, 79]),
   midi.ControlChangeEvent(tick=0, channel=5, data=[7, 66]),
   midi.ControlChangeEvent(tick=20, channel=5, data=[7, 65]),
   midi.ControlChangeEvent(tick=30, channel=5, data=[7, 65]),
   midi.NoteOnEvent(tick=10, channel=5, data=[67, 0]),
   midi.NoteOnEvent(tick=0, channel=5, data=[59, 0]),
   midi.ControlChangeEvent(tick=10, channel=5, data=[7, 65]),
   midi.ControlChangeEvent(tick=155, channel=5, data=[7, 65]),
   midi.ControlChangeEvent(tick=10, channel=5, data=[7, 66]),
   midi.ControlChangeEvent(tick=40, channel=5, data=[7, 66]),
   midi.ControlChangeEvent(tick=45, channel=5, data=[7, 66]),
   midi.ControlChangeEvent(tick=30, channel=5, data=[7, 66]),
   midi.ControlChangeEvent(tick=15, channel=5, data=[7, 67]),
   midi.ControlChangeEvent(tick=25, channel=5, data=[7, 67]),
   midi.ControlChangeEvent(tick=30, channel=5, data=[7, 67]),
   midi.ControlChangeEvent(tick=15, channel=5, data=[7, 68]),
   midi.ControlChangeEvent(tick=10, channel=5, data=[7, 68]),
   midi.ControlChangeEvent(tick=10, channel=5, data=[7, 69]),
   midi.ControlChangeEvent(tick=10, channel=5, data=[7, 69]),
   midi.ControlChangeEvent(tick=10, channel=5, data=[7, 70]),
   midi.NoteOnEvent(tick=5, channel=5, data=[48, 86]),
   midi.ControlChangeEvent(tick=10, channel=5, data=[7, 70]),
   midi.ControlChangeEvent(tick=10, channel=5, data=[7, 71]),
   midi.ControlChangeEvent(tick=15, channel=5, data=[7, 72]),
   midi.ControlChangeEvent(tick=20, channel=5, data=[7, 72]),
   midi.ControlChangeEvent(tick=20, channel=5, data=[7, 73]),
   midi.ControlChangeEvent(tick=10, channel=5, data=[7, 73]),
   midi.ControlChangeEvent(tick=10, channel=5, data=[7, 73]),
   midi.ControlChangeEvent(tick=10, channel=5, data=[7, 74]),
   midi.ControlChangeEvent(tick=10, channel=5, data=[7, 75]),
   midi.ControlChangeEvent(tick=15, channel=5, data=[7, 75]),
   midi.ControlChangeEvent(tick=10, channel=5, data=[7, 75]),
   midi.ControlChangeEvent(tick=15, channel=5, data=[7, 76]),
   midi.ControlChangeEvent(tick=20, channel=5, data=[7, 76]),
   midi.ControlChangeEvent(tick=20, channel=5, data=[7, 76]),
   midi.ControlChangeEvent(tick=15, channel=5, data=[7, 77]),
   midi.ControlChangeEvent(tick=25, channel=5, data=[7, 77]),
   midi.NoteOnEvent(tick=5, channel=5, data=[48, 0]),
   midi.NoteOnEvent(tick=0, channel=5, data=[41, 86]),
   midi.ControlChangeEvent(tick=10, channel=5, data=[7, 78]),
   midi.ControlChangeEvent(tick=15, channel=5, data=[7, 79]),
   midi.ControlChangeEvent(tick=25, channel=5, data=[7, 79]),
   midi.ControlChangeEvent(tick=15, channel=5, data=[7, 80]),
   midi.ControlChangeEvent(tick=15, channel=5, data=[7, 80]),
   midi.ControlChangeEvent(tick=15, channel=5, data=[7, 81]),
   midi.ControlChangeEvent(tick=15, channel=5, data=[7, 81]),
   midi.ControlChangeEvent(tick=25, channel=5, data=[7, 81]),
   midi.ControlChangeEvent(tick=25, channel=5, data=[7, 81]),
   midi.ControlChangeEvent(tick=20, channel=5, data=[7, 81]),
   midi.ControlChangeEvent(tick=15, channel=5, data=[7, 81]),
   midi.ControlChangeEvent(tick=15, channel=5, data=[7, 83]),
   midi.ControlChangeEvent(tick=20, channel=5, data=[7, 83]),
   midi.NoteOnEvent(tick=10, channel=5, data=[41, 0]),
   midi.NoteOnEvent(tick=0, channel=5, data=[36, 86]),
   midi.ControlChangeEvent(tick=25, channel=5, data=[7, 83]),
   midi.ControlChangeEvent(tick=25, channel=5, data=[7, 83]),
   midi.ControlChangeEvent(tick=15, channel=5, data=[7, 83]),
   midi.ControlChangeEvent(tick=25, channel=5, data=[7, 83]),
   midi.ControlChangeEvent(tick=30, channel=5, data=[7, 84]),
   midi.ControlChangeEvent(tick=15, channel=5, data=[7, 85]),
   midi.ControlChangeEvent(tick=10, channel=5, data=[7, 85]),
   midi.ControlChangeEvent(tick=15, channel=5, data=[7, 86]),
   midi.NoteOnEvent(tick=15, channel=5, data=[36, 0]),
   midi.ControlChangeEvent(tick=5, channel=5, data=[7, 87]),
   midi.ControlChangeEvent(tick=40, channel=5, data=[7, 86]),
   midi.ControlChangeEvent(tick=10, channel=5, data=[7, 85]),
   midi.ControlChangeEvent(tick=15, channel=5, data=[7, 84]),
   midi.ControlChangeEvent(tick=10, channel=5, data=[7, 83]),
   midi.ControlChangeEvent(tick=10, channel=5, data=[7, 83]),
   midi.ControlChangeEvent(tick=10, channel=5, data=[7, 83]),
   midi.ControlChangeEvent(tick=10, channel=5, data=[7, 83]),
   midi.ControlChangeEvent(tick=10, channel=5, data=[7, 81]),
   midi.ControlChangeEvent(tick=15, channel=5, data=[7, 81]),
   midi.ControlChangeEvent(tick=10, channel=5, data=[7, 81]),
   midi.ControlChangeEvent(tick=10, channel=5, data=[7, 80]),
   midi.ControlChangeEvent(tick=10, channel=5, data=[7, 80]),
   midi.ControlChangeEvent(tick=15, channel=5, data=[7, 79]),
   midi.ControlChangeEvent(tick=30, channel=5, data=[7, 79]),
   midi.ControlChangeEvent(tick=15, channel=5, data=[7, 78]),
   midi.ControlChangeEvent(tick=20, channel=5, data=[7, 77]),
   midi.ControlChangeEvent(tick=25, channel=5, data=[7, 77]),
   midi.ControlChangeEvent(tick=30, channel=5, data=[7, 77]),
   midi.NoteOnEvent(tick=5, channel=5, data=[48, 86]),
   midi.ControlChangeEvent(tick=10, channel=5, data=[7, 80]),
   midi.ControlChangeEvent(tick=10, channel=5, data=[7, 81]),
   midi.ControlChangeEvent(tick=10, channel=5, data=[7, 81]),
   midi.ControlChangeEvent(tick=10, channel=5, data=[7, 81]),
   midi.ControlChangeEvent(tick=10, channel=5, data=[7, 81]),
   midi.ControlChangeEvent(tick=10, channel=5, data=[7, 83]),
   midi.ControlChangeEvent(tick=10, channel=5, data=[7, 83]),
   midi.ControlChangeEvent(tick=15, channel=5, data=[7, 83]),
   midi.ControlChangeEvent(tick=10, channel=5, data=[7, 83]),
   midi.ControlChangeEvent(tick=15, channel=5, data=[7, 83]),
   midi.NoteOnEvent(tick=10, channel=5, data=[48, 0]),
   midi.NoteOnEvent(tick=0, channel=5, data=[43, 86]),
   midi.ControlChangeEvent(tick=5, channel=5, data=[7, 84]),
   midi.ControlChangeEvent(tick=10, channel=5, data=[7, 85]),
   midi.ControlChangeEvent(tick=15, channel=5, data=[7, 85]),
   midi.ControlChangeEvent(tick=20, channel=5, data=[7, 86]),
   midi.ControlChangeEvent(tick=20, channel=5, data=[7, 87]),
   midi.ControlChangeEvent(tick=15, channel=5, data=[7, 87]),
   midi.ControlChangeEvent(tick=20, channel=5, data=[7, 87]),
   midi.NoteOnEvent(tick=15, channel=5, data=[43, 0]),
   midi.NoteOnEvent(tick=0, channel=5, data=[39, 86]),
   midi.ControlChangeEvent(tick=5, channel=5, data=[7, 88]),
   midi.ControlChangeEvent(tick=20, channel=5, data=[7, 88]),
   midi.ControlChangeEvent(tick=15, channel=5, data=[7, 89]),
   midi.ControlChangeEvent(tick=15, channel=5, data=[7, 89]),
   midi.ControlChangeEvent(tick=10, channel=5, data=[7, 90]),
   midi.ControlChangeEvent(tick=15, channel=5, data=[7, 90]),
   midi.ControlChangeEvent(tick=10, channel=5, data=[7, 92]),
   midi.ControlChangeEvent(tick=10, channel=5, data=[7, 92]),
   midi.ControlChangeEvent(tick=10, channel=5, data=[7, 92]),
   midi.ControlChangeEvent(tick=15, channel=5, data=[7, 93]),
   midi.ControlChangeEvent(tick=15, channel=5, data=[7, 93]),
   midi.ControlChangeEvent(tick=10, channel=5, data=[7, 94]),
   midi.ControlChangeEvent(tick=15, channel=5, data=[7, 94]),
   midi.ControlChangeEvent(tick=50, channel=5, data=[7, 94]),
   midi.ControlChangeEvent(tick=10, channel=5, data=[7, 93]),
   midi.ControlChangeEvent(tick=10, channel=5, data=[7, 92]),
   midi.NoteOnEvent(tick=5, channel=5, data=[39, 0]),
   midi.NoteOnEvent(tick=0, channel=5, data=[44, 86]),
   midi.ControlChangeEvent(tick=10, channel=5, data=[7, 90]),
   midi.ControlChangeEvent(tick=10, channel=5, data=[7, 89]),
   midi.ControlChangeEvent(tick=10, channel=5, data=[7, 89]),
   midi.ControlChangeEvent(tick=10, channel=5, data=[7, 88]),
   midi.ControlChangeEvent(tick=10, channel=5, data=[7, 87]),
   midi.ControlChangeEvent(tick=10, channel=5, data=[7, 87]),
   midi.ControlChangeEvent(tick=15, channel=5, data=[7, 86]),
   midi.ControlChangeEvent(tick=15, channel=5, data=[7, 85]),
   midi.ControlChangeEvent(tick=10, channel=5, data=[7, 84]),
   midi.ControlChangeEvent(tick=10, channel=5, data=[7, 83]),
   midi.ControlChangeEvent(tick=10, channel=5, data=[7, 83]),
   midi.ControlChangeEvent(tick=10, channel=5, data=[7, 83]),
   midi.ControlChangeEvent(tick=10, channel=5, data=[7, 83]),
   midi.ControlChangeEvent(tick=15, channel=5, data=[7, 81]),
   midi.ControlChangeEvent(tick=10, channel=5, data=[7, 81]),
   midi.NoteOnEvent(tick=10, channel=5, data=[44, 0]),
   midi.ControlChangeEvent(tick=15, channel=5, data=[7, 81]),
   midi.ControlChangeEvent(tick=30, channel=5, data=[7, 81]),
   midi.ControlChangeEvent(tick=10, channel=5, data=[7, 81]),
   midi.ControlChangeEvent(tick=10, channel=5, data=[7, 81]),
   midi.ControlChangeEvent(tick=15, channel=5, data=[7, 80]),
   midi.ControlChangeEvent(tick=25, channel=5, data=[7, 80]),
   midi.ControlChangeEvent(tick=15, channel=5, data=[7, 79]),
   midi.ControlChangeEvent(tick=40, channel=5, data=[7, 79]),
   midi.ControlChangeEvent(tick=20, channel=5, data=[7, 78]),
   midi.ControlChangeEvent(tick=15, channel=5, data=[7, 77]),
   midi.ControlChangeEvent(tick=20, channel=5, data=[7, 77]),
   midi.ControlChangeEvent(tick=15, channel=5, data=[7, 76]),
   midi.ControlChangeEvent(tick=35, channel=5, data=[7, 76]),
   midi.ControlChangeEvent(tick=20, channel=5, data=[7, 76]),
   midi.ControlChangeEvent(tick=30, channel=5, data=[7, 75]),
   midi.ControlChangeEvent(tick=1610, channel=5, data=[7, 76]),
   midi.ControlChangeEvent(tick=25, channel=5, data=[7, 76]),
   midi.ControlChangeEvent(tick=5, channel=5, data=[7, 76]),
   midi.ControlChangeEvent(tick=5, channel=5, data=[7, 77]),
   midi.ControlChangeEvent(tick=5, channel=5, data=[7, 77]),
   midi.ControlChangeEvent(tick=15, channel=5, data=[7, 78]),
   midi.ControlChangeEvent(tick=5, channel=5, data=[7, 79]),
   midi.ControlChangeEvent(tick=10, channel=5, data=[7, 79]),
   midi.ControlChangeEvent(tick=5, channel=5, data=[7, 80]),
   midi.ControlChangeEvent(tick=5, channel=5, data=[7, 80]),
   midi.ControlChangeEvent(tick=5, channel=5, data=[7, 81]),
   midi.ControlChangeEvent(tick=5, channel=5, data=[7, 81]),
   midi.ControlChangeEvent(tick=10, channel=5, data=[7, 81]),
   midi.ControlChangeEvent(tick=5, channel=5, data=[7, 83]),
   midi.ControlChangeEvent(tick=5, channel=5, data=[7, 83]),
   midi.ControlChangeEvent(tick=5, channel=5, data=[7, 83]),
   midi.ControlChangeEvent(tick=5, channel=5, data=[7, 85]),
   midi.ControlChangeEvent(tick=5, channel=5, data=[7, 86]),
   midi.ControlChangeEvent(tick=10, channel=5, data=[7, 87]),
   midi.ControlChangeEvent(tick=5, channel=5, data=[7, 87]),
   midi.ControlChangeEvent(tick=5, channel=5, data=[7, 88]),
   midi.ControlChangeEvent(tick=5, channel=5, data=[7, 89]),
   midi.ControlChangeEvent(tick=5, channel=5, data=[7, 89]),
   midi.ControlChangeEvent(tick=5, channel=5, data=[7, 89]),
   midi.ControlChangeEvent(tick=10, channel=5, data=[7, 90]),
   midi.ControlChangeEvent(tick=10, channel=5, data=[7, 90]),
   midi.ControlChangeEvent(tick=5, channel=5, data=[7, 90]),
   midi.ControlChangeEvent(tick=5, channel=5, data=[7, 92]),
   midi.ControlChangeEvent(tick=10, channel=5, data=[7, 92]),
   midi.ControlChangeEvent(tick=15, channel=5, data=[7, 92]),
   midi.ControlChangeEvent(tick=25, channel=5, data=[7, 93]),
   midi.ControlChangeEvent(tick=15, channel=5, data=[7, 93]),
   midi.ControlChangeEvent(tick=10, channel=5, data=[7, 94]),
   midi.ControlChangeEvent(tick=15, channel=5, data=[7, 94]),
   midi.NoteOnEvent(tick=20, channel=5, data=[58, 81]),
   midi.NoteOnEvent(tick=120, channel=5, data=[58, 0]),
   midi.NoteOnEvent(tick=0, channel=5, data=[57, 86]),
   midi.ControlChangeEvent(tick=20, channel=5, data=[7, 94]),
   midi.ControlChangeEvent(tick=35, channel=5, data=[7, 93]),
   midi.NoteOnEvent(tick=65, channel=5, data=[57, 0]),
   midi.NoteOnEvent(tick=0, channel=5, data=[56, 86]),
   midi.ControlChangeEvent(tick=55, channel=5, data=[7, 94]),
   midi.ControlChangeEvent(tick=55, channel=5, data=[7, 94]),
   midi.NoteOnEvent(tick=10, channel=5, data=[56, 0]),
   midi.NoteOnEvent(tick=0, channel=5, data=[57, 86]),
   midi.NoteOnEvent(tick=120, channel=5, data=[57, 0]),
   midi.NoteOnEvent(tick=0, channel=5, data=[60, 86]),
   midi.NoteOnEvent(tick=120, channel=5, data=[60, 0]),
   midi.NoteOnEvent(tick=0, channel=5, data=[59, 86]),
   midi.NoteOnEvent(tick=120, channel=5, data=[59, 0]),
   midi.NoteOnEvent(tick=0, channel=5, data=[58, 86]),
   midi.NoteOnEvent(tick=120, channel=5, data=[58, 0]),
   midi.NoteOnEvent(tick=0, channel=5, data=[59, 86]),
   midi.NoteOnEvent(tick=120, channel=5, data=[59, 0]),
   midi.NoteOnEvent(tick=0, channel=5, data=[62, 86]),
   midi.NoteOnEvent(tick=120, channel=5, data=[62, 0]),
   midi.NoteOnEvent(tick=0, channel=5, data=[60, 86]),
   midi.NoteOnEvent(tick=120, channel=5, data=[60, 0]),
   midi.NoteOnEvent(tick=0, channel=5, data=[63, 86]),
   midi.NoteOnEvent(tick=120, channel=5, data=[63, 0]),
   midi.NoteOnEvent(tick=0, channel=5, data=[64, 86]),
   midi.NoteOnEvent(tick=120, channel=5, data=[64, 0]),
   midi.NoteOnEvent(tick=0, channel=5, data=[67, 86]),
   midi.NoteOnEvent(tick=120, channel=5, data=[67, 0]),
   midi.NoteOnEvent(tick=0, channel=5, data=[66, 86]),
   midi.NoteOnEvent(tick=120, channel=5, data=[66, 0]),
   midi.NoteOnEvent(tick=0, channel=5, data=[65, 86]),
   midi.NoteOnEvent(tick=60, channel=5, data=[65, 0]),
   midi.NoteOnEvent(tick=0, channel=5, data=[61, 86]),
   midi.NoteOnEvent(tick=60, channel=5, data=[61, 0]),
   midi.NoteOnEvent(tick=0, channel=5, data=[64, 86]),
   midi.ControlChangeEvent(tick=0, channel=5, data=[7, 94]),
   midi.ControlChangeEvent(tick=10, channel=5, data=[7, 93]),
   midi.ControlChangeEvent(tick=15, channel=5, data=[7, 93]),
   midi.ControlChangeEvent(tick=5, channel=5, data=[7, 92]),
   midi.ControlChangeEvent(tick=10, channel=5, data=[7, 92]),
   midi.ControlChangeEvent(tick=10, channel=5, data=[7, 92]),
   midi.ControlChangeEvent(tick=5, channel=5, data=[7, 90]),
   midi.NoteOnEvent(tick=5, channel=5, data=[64, 0]),
   midi.NoteOnEvent(tick=0, channel=5, data=[62, 86]),
   midi.ControlChangeEvent(tick=5, channel=5, data=[7, 90]),
   midi.ControlChangeEvent(tick=5, channel=5, data=[7, 90]),
   midi.ControlChangeEvent(tick=5, channel=5, data=[7, 89]),
   midi.ControlChangeEvent(tick=10, channel=5, data=[7, 89]),
   midi.ControlChangeEvent(tick=5, channel=5, data=[7, 88]),
   midi.ControlChangeEvent(tick=5, channel=5, data=[7, 88]),
   midi.ControlChangeEvent(tick=5, channel=5, data=[7, 87]),
   midi.ControlChangeEvent(tick=5, channel=5, data=[7, 87]),
   midi.ControlChangeEvent(tick=10, channel=5, data=[7, 87]),
   midi.NoteOnEvent(tick=5, channel=5, data=[62, 0]),
   midi.NoteOnEvent(tick=0, channel=5, data=[60, 86]),
   midi.ControlChangeEvent(tick=0, channel=5, data=[7, 86]),
   midi.ControlChangeEvent(tick=10, channel=5, data=[7, 85]),
   midi.ControlChangeEvent(tick=5, channel=5, data=[7, 85]),
   midi.ControlChangeEvent(tick=10, channel=5, data=[7, 84]),
   midi.ControlChangeEvent(tick=10, channel=5, data=[7, 83]),
   midi.ControlChangeEvent(tick=20, channel=5, data=[7, 83]),
   midi.ControlChangeEvent(tick=15, channel=5, data=[7, 83]),
   midi.ControlChangeEvent(tick=10, channel=5, data=[7, 83]),
   midi.ControlChangeEvent(tick=10, channel=5, data=[7, 83]),
   midi.ControlChangeEvent(tick=10, channel=5, data=[7, 83]),
   midi.NoteOnEvent(tick=20, channel=5, data=[60, 0]),
   midi.ControlChangeEvent(tick=0, channel=5, data=[7, 81]),
   midi.ControlChangeEvent(tick=20, channel=5, data=[7, 81]),
   midi.ControlChangeEvent(tick=50, channel=5, data=[7, 81]),
   midi.NoteOnEvent(tick=50, channel=5, data=[60, 86]),
   midi.ControlChangeEvent(tick=20, channel=5, data=[7, 81]),
   midi.ControlChangeEvent(tick=15, channel=5, data=[7, 81]),
   midi.ControlChangeEvent(tick=10, channel=5, data=[7, 83]),
   midi.ControlChangeEvent(tick=10, channel=5, data=[7, 83]),
   midi.ControlChangeEvent(tick=10, channel=5, data=[7, 83]),
   midi.ControlChangeEvent(tick=10, channel=5, data=[7, 83]),
   midi.ControlChangeEvent(tick=10, channel=5, data=[7, 83]),
   midi.ControlChangeEvent(tick=10, channel=5, data=[7, 83]),
   midi.ControlChangeEvent(tick=15, channel=5, data=[7, 84]),
   midi.NoteOnEvent(tick=10, channel=5, data=[60, 0]),
   midi.NoteOnEvent(tick=0, channel=5, data=[62, 86]),
   midi.ControlChangeEvent(tick=30, channel=5, data=[7, 85]),
   midi.ControlChangeEvent(tick=10, channel=5, data=[7, 84]),
   midi.ControlChangeEvent(tick=10, channel=5, data=[7, 83]),
   midi.ControlChangeEvent(tick=15, channel=5, data=[7, 83]),
   midi.NoteOnEvent(tick=10, channel=5, data=[62, 0]),
   midi.ControlChangeEvent(tick=0, channel=5, data=[7, 83]),
   midi.ControlChangeEvent(tick=10, channel=5, data=[7, 81]),
   midi.ControlChangeEvent(tick=10, channel=5, data=[7, 81]),
   midi.ControlChangeEvent(tick=10, channel=5, data=[7, 81]),
   midi.ControlChangeEvent(tick=10, channel=5, data=[7, 81]),
   midi.ControlChangeEvent(tick=15, channel=5, data=[7, 80]),
   midi.ControlChangeEvent(tick=145, channel=5, data=[7, 81]),
   midi.ControlChangeEvent(tick=15, channel=5, data=[7, 81]),
   midi.ControlChangeEvent(tick=10, channel=5, data=[7, 81]),
   midi.ControlChangeEvent(tick=10, channel=5, data=[7, 83]),
   midi.ControlChangeEvent(tick=10, channel=5, data=[7, 83]),
   midi.ControlChangeEvent(tick=15, channel=5, data=[7, 83]),
   midi.ControlChangeEvent(tick=10, channel=5, data=[7, 85]),
   midi.ControlChangeEvent(tick=10, channel=5, data=[7, 86]),
   midi.NoteOnEvent(tick=5, channel=5, data=[54, 86]),
   midi.ControlChangeEvent(tick=5, channel=5, data=[7, 87]),
   midi.ControlChangeEvent(tick=10, channel=5, data=[7, 88]),
   midi.ControlChangeEvent(tick=15, channel=5, data=[7, 88]),
   midi.ControlChangeEvent(tick=30, channel=5, data=[7, 88]),
   midi.ControlChangeEvent(tick=10, channel=5, data=[7, 87]),
   midi.ControlChangeEvent(tick=10, channel=5, data=[7, 86]),
   midi.ControlChangeEvent(tick=15, channel=5, data=[7, 85]),
   midi.ControlChangeEvent(tick=10, channel=5, data=[7, 83]),
   midi.ControlChangeEvent(tick=10, channel=5, data=[7, 83]),
   midi.NoteOnEvent(tick=5, channel=5, data=[54, 0]),
   midi.NoteOnEvent(tick=0, channel=5, data=[55, 86]),
   midi.ControlChangeEvent(tick=5, channel=5, data=[7, 83]),
   midi.ControlChangeEvent(tick=10, channel=5, data=[7, 81]),
   midi.ControlChangeEvent(tick=15, channel=5, data=[7, 81]),
   midi.ControlChangeEvent(tick=10, channel=5, data=[7, 81]),
   midi.ControlChangeEvent(tick=10, channel=5, data=[7, 81]),
   midi.ControlChangeEvent(tick=10, channel=5, data=[7, 80]),
   midi.NoteOnEvent(tick=15, channel=5, data=[55, 0]),
   midi.ControlChangeEvent(tick=0, channel=5, data=[7, 80]),
   midi.ControlChangeEvent(tick=10, channel=5, data=[7, 79]),
   midi.ControlChangeEvent(tick=15, channel=5, data=[7, 79]),
   midi.ControlChangeEvent(tick=15, channel=5, data=[7, 78]),
   midi.ControlChangeEvent(tick=15, channel=5, data=[7, 77]),
   midi.ControlChangeEvent(tick=75, channel=5, data=[7, 78]),
   midi.ControlChangeEvent(tick=10, channel=5, data=[7, 80]),
   midi.ControlChangeEvent(tick=10, channel=5, data=[7, 81]),
   midi.ControlChangeEvent(tick=10, channel=5, data=[7, 81]),
   midi.ControlChangeEvent(tick=10, channel=5, data=[7, 81]),
   midi.ControlChangeEvent(tick=10, channel=5, data=[7, 83]),
   midi.ControlChangeEvent(tick=10, channel=5, data=[7, 83]),
   midi.ControlChangeEvent(tick=10, channel=5, data=[7, 83]),
   midi.ControlChangeEvent(tick=10, channel=5, data=[7, 85]),
   midi.ControlChangeEvent(tick=10, channel=5, data=[7, 86]),
   midi.ControlChangeEvent(tick=10, channel=5, data=[7, 87]),
   midi.ControlChangeEvent(tick=10, channel=5, data=[7, 87]),
   midi.ControlChangeEvent(tick=10, channel=5, data=[7, 88]),
   midi.ControlChangeEvent(tick=10, channel=5, data=[7, 89]),
   midi.ControlChangeEvent(tick=10, channel=5, data=[7, 89]),
   midi.ControlChangeEvent(tick=10, channel=5, data=[7, 90]),
   midi.NoteOnEvent(tick=5, channel=5, data=[59, 86]),
   midi.ControlChangeEvent(tick=5, channel=5, data=[7, 90]),
   midi.ControlChangeEvent(tick=10, channel=5, data=[7, 92]),
   midi.ControlChangeEvent(tick=10, channel=5, data=[7, 93]),
   midi.ControlChangeEvent(tick=45, channel=5, data=[7, 94]),
   midi.ControlChangeEvent(tick=10, channel=5, data=[7, 94]),
   midi.ControlChangeEvent(tick=25, channel=5, data=[7, 94]),
   midi.ControlChangeEvent(tick=10, channel=5, data=[7, 93]),
   midi.NoteOnEvent(tick=5, channel=5, data=[59, 0]),
   midi.NoteOnEvent(tick=0, channel=5, data=[60, 86]),
   midi.ControlChangeEvent(tick=5, channel=5, data=[7, 92]),
   midi.ControlChangeEvent(tick=10, channel=5, data=[7, 89]),
   midi.ControlChangeEvent(tick=10, channel=5, data=[7, 88]),
   midi.ControlChangeEvent(tick=5, channel=5, data=[7, 88]),
   midi.ControlChangeEvent(tick=10, channel=5, data=[7, 87]),
   midi.ControlChangeEvent(tick=10, channel=5, data=[7, 87]),
   midi.ControlChangeEvent(tick=10, channel=5, data=[7, 86]),
   midi.NoteOnEvent(tick=15, channel=5, data=[60, 0]),
   midi.ControlChangeEvent(tick=5, channel=5, data=[7, 85]),
   midi.ControlChangeEvent(tick=5, channel=5, data=[7, 84]),
   midi.ControlChangeEvent(tick=10, channel=5, data=[7, 83]),
   midi.ControlChangeEvent(tick=1155, channel=5, data=[7, 84]),
   midi.ControlChangeEvent(tick=280, channel=5, data=[7, 85]),
   midi.ControlChangeEvent(tick=15, channel=5, data=[7, 86]),
   midi.ControlChangeEvent(tick=10, channel=5, data=[7, 87]),
   midi.ControlChangeEvent(tick=15, channel=5, data=[7, 89]),
   midi.ControlChangeEvent(tick=15, channel=5, data=[7, 92]),
   midi.ControlChangeEvent(tick=15, channel=5, data=[7, 94]),
   midi.ControlChangeEvent(tick=770, channel=5, data=[7, 94]),
   midi.ControlChangeEvent(tick=30, channel=5, data=[7, 96]),
   midi.ControlChangeEvent(tick=2035, channel=5, data=[7, 96]),
   midi.NoteOnEvent(tick=5, channel=5, data=[60, 86]),
   midi.NoteOnEvent(tick=0, channel=5, data=[64, 86]),
   midi.ControlChangeEvent(tick=55, channel=5, data=[7, 96]),
   midi.ControlChangeEvent(tick=35, channel=5, data=[7, 96]),
   midi.ControlChangeEvent(tick=30, channel=5, data=[7, 98]),
   midi.ControlChangeEvent(tick=30, channel=5, data=[7, 99]),
   midi.ControlChangeEvent(tick=30, channel=5, data=[7, 101]),
   midi.ControlChangeEvent(tick=30, channel=5, data=[7, 102]),
   midi.NoteOnEvent(tick=20, channel=5, data=[64, 0]),
   midi.NoteOnEvent(tick=0, channel=5, data=[60, 0]),
   midi.ControlChangeEvent(tick=10, channel=5, data=[7, 103]),
   midi.NoteOnEvent(tick=0, channel=5, data=[57, 86]),
   midi.NoteOnEvent(tick=0, channel=5, data=[65, 86]),
   midi.ControlChangeEvent(tick=25, channel=5, data=[7, 105]),
   midi.ControlChangeEvent(tick=30, channel=5, data=[7, 107]),
   midi.ControlChangeEvent(tick=30, channel=5, data=[7, 109]),
   midi.ControlChangeEvent(tick=25, channel=5, data=[7, 109]),
   midi.NoteOnEvent(tick=10, channel=5, data=[57, 0]),
   midi.NoteOnEvent(tick=0, channel=5, data=[59, 86]),
   midi.ControlChangeEvent(tick=40, channel=5, data=[7, 109]),
   midi.NoteOnEvent(tick=70, channel=5, data=[59, 0]),
   midi.NoteOnEvent(tick=0, channel=5, data=[65, 0]),
   midi.NoteOnEvent(tick=10, channel=5, data=[64, 86]),
   midi.NoteOnEvent(tick=0, channel=5, data=[60, 86]),
   midi.ControlChangeEvent(tick=20, channel=5, data=[7, 110]),
   midi.NoteOnEvent(tick=90, channel=5, data=[60, 0]),
   midi.NoteOnEvent(tick=0, channel=5, data=[64, 0]),
   midi.NoteOnEvent(tick=10, channel=5, data=[55, 86]),
   midi.NoteOnEvent(tick=0, channel=5, data=[62, 86]),
   midi.ControlChangeEvent(tick=65, channel=5, data=[7, 110]),
   midi.ControlChangeEvent(tick=10, channel=5, data=[7, 111]),
   midi.NoteOnEvent(tick=35, channel=5, data=[62, 0]),
   midi.NoteOnEvent(tick=0, channel=5, data=[55, 0]),
   midi.NoteOnEvent(tick=10, channel=5, data=[60, 86]),
   midi.NoteOnEvent(tick=0, channel=5, data=[64, 86]),
   midi.ControlChangeEvent(tick=50, channel=5, data=[7, 112]),
   midi.NoteOnEvent(tick=60, channel=5, data=[64, 0]),
   midi.NoteOnEvent(tick=0, channel=5, data=[60, 0]),
   midi.NoteOnEvent(tick=10, channel=5, data=[62, 86]),
   midi.NoteOnEvent(tick=0, channel=5, data=[55, 86]),
   midi.NoteOnEvent(tick=110, channel=5, data=[55, 0]),
   midi.NoteOnEvent(tick=0, channel=5, data=[62, 0]),
   midi.NoteOnEvent(tick=10, channel=5, data=[60, 86]),
   midi.NoteOnEvent(tick=0, channel=5, data=[64, 86]),
   midi.ControlChangeEvent(tick=120, channel=5, data=[7, 112]),
   midi.ControlChangeEvent(tick=25, channel=5, data=[7, 112]),
   midi.ControlChangeEvent(tick=40, channel=5, data=[7, 114]),
   midi.ControlChangeEvent(tick=70, channel=5, data=[7, 112]),
   midi.ControlChangeEvent(tick=25, channel=5, data=[7, 111]),
   midi.ControlChangeEvent(tick=25, channel=5, data=[7, 109]),
   midi.ControlChangeEvent(tick=20, channel=5, data=[7, 109]),
   midi.ControlChangeEvent(tick=40, channel=5, data=[7, 108]),
   midi.ControlChangeEvent(tick=55, channel=5, data=[7, 105]),
   midi.ControlChangeEvent(tick=30, channel=5, data=[7, 103]),
   midi.ControlChangeEvent(tick=30, channel=5, data=[7, 101]),
   midi.ControlChangeEvent(tick=30, channel=5, data=[7, 99]),
   midi.ControlChangeEvent(tick=30, channel=5, data=[7, 98]),
   midi.ControlChangeEvent(tick=40, channel=5, data=[7, 99]),
   midi.ControlChangeEvent(tick=20, channel=5, data=[7, 100]),
   midi.ControlChangeEvent(tick=30, channel=5, data=[7, 101]),
   midi.ControlChangeEvent(tick=30, channel=5, data=[7, 104]),
   midi.ControlChangeEvent(tick=30, channel=5, data=[7, 109]),
   midi.NoteOnEvent(tick=30, channel=5, data=[64, 0]),
   midi.NoteOnEvent(tick=0, channel=5, data=[65, 86]),
   midi.ControlChangeEvent(tick=0, channel=5, data=[7, 112]),
   midi.ControlChangeEvent(tick=30, channel=5, data=[7, 115]),
   midi.ControlChangeEvent(tick=30, channel=5, data=[7, 116]),
   midi.ControlChangeEvent(tick=30, channel=5, data=[7, 120]),
   midi.ControlChangeEvent(tick=15, channel=5, data=[7, 121]),
   midi.NoteOnEvent(tick=125, channel=5, data=[65, 0]),
   midi.NoteOnEvent(tick=0, channel=5, data=[60, 0]),
   midi.NoteOnEvent(tick=10, channel=5, data=[62, 86]),
   midi.NoteOnEvent(tick=0, channel=5, data=[65, 86]),
   midi.ControlChangeEvent(tick=170, channel=5, data=[7, 120]),
   midi.ControlChangeEvent(tick=30, channel=5, data=[7, 118]),
   midi.NoteOnEvent(tick=30, channel=5, data=[65, 0]),
   midi.NoteOnEvent(tick=0, channel=5, data=[62, 0]),
   midi.ControlChangeEvent(tick=0, channel=5, data=[7, 115]),
   midi.NoteOnEvent(tick=10, channel=5, data=[59, 86]),
   midi.NoteOnEvent(tick=0, channel=5, data=[67, 86]),
   midi.ControlChangeEvent(tick=20, channel=5, data=[7, 112]),
   midi.ControlChangeEvent(tick=30, channel=5, data=[7, 110]),
   midi.ControlChangeEvent(tick=20, channel=5, data=[7, 109]),
   midi.ControlChangeEvent(tick=40, channel=5, data=[7, 107]),
   midi.NoteOnEvent(tick=10, channel=5, data=[59, 0]),
   midi.NoteOnEvent(tick=0, channel=5, data=[61, 86]),
   midi.ControlChangeEvent(tick=20, channel=5, data=[7, 105]),
   midi.ControlChangeEvent(tick=60, channel=5, data=[7, 106]),
   midi.NoteOnEvent(tick=30, channel=5, data=[61, 0]),
   midi.NoteOnEvent(tick=0, channel=5, data=[67, 0]),
   midi.ControlChangeEvent(tick=0, channel=5, data=[7, 109]),
   midi.NoteOnEvent(tick=10, channel=5, data=[65, 86]),
   midi.NoteOnEvent(tick=0, channel=5, data=[62, 86]),
   midi.ControlChangeEvent(tick=20, channel=5, data=[7, 116]),
   midi.ControlChangeEvent(tick=30, channel=5, data=[7, 121]),
   midi.ControlChangeEvent(tick=50, channel=5, data=[7, 120]),
   midi.NoteOnEvent(tick=10, channel=5, data=[62, 0]),
   midi.NoteOnEvent(tick=0, channel=5, data=[65, 0]),
   midi.NoteOnEvent(tick=10, channel=5, data=[57, 86]),
   midi.NoteOnEvent(tick=0, channel=5, data=[64, 86]),
   midi.ControlChangeEvent(tick=10, channel=5, data=[7, 116]),
   midi.ControlChangeEvent(tick=30, channel=5, data=[7, 111]),
   midi.ControlChangeEvent(tick=30, channel=5, data=[7, 109]),
   midi.ControlChangeEvent(tick=30, channel=5, data=[7, 104]),
   midi.NoteOnEvent(tick=10, channel=5, data=[64, 0]),
   midi.NoteOnEvent(tick=0, channel=5, data=[57, 0]),
   midi.ControlChangeEvent(tick=5, channel=5, data=[7, 103]),
   midi.NoteOnEvent(tick=5, channel=5, data=[62, 86]),
   midi.NoteOnEvent(tick=0, channel=5, data=[65, 86]),
   midi.ControlChangeEvent(tick=75, channel=5, data=[7, 102]),
   midi.ControlChangeEvent(tick=30, channel=5, data=[7, 101]),
   midi.NoteOnEvent(tick=5, channel=5, data=[65, 0]),
   midi.NoteOnEvent(tick=0, channel=5, data=[62, 0]),
   midi.NoteOnEvent(tick=10, channel=5, data=[64, 86]),
   midi.NoteOnEvent(tick=0, channel=5, data=[57, 86]),
   midi.ControlChangeEvent(tick=15, channel=5, data=[7, 101]),
   midi.ControlChangeEvent(tick=40, channel=5, data=[7, 99]),
   midi.NoteOnEvent(tick=55, channel=5, data=[57, 0]),
   midi.NoteOnEvent(tick=0, channel=5, data=[64, 0]),
   midi.NoteOnEvent(tick=10, channel=5, data=[62, 86]),
   midi.NoteOnEvent(tick=0, channel=5, data=[65, 86]),
   midi.ControlChangeEvent(tick=10, channel=5, data=[7, 100]),
   midi.ControlChangeEvent(tick=30, channel=5, data=[7, 108]),
   midi.ControlChangeEvent(tick=30, channel=5, data=[7, 120]),
   midi.ControlChangeEvent(tick=30, channel=5, data=[7, 114]),
   midi.ControlChangeEvent(tick=30, channel=5, data=[7, 109]),
   midi.ControlChangeEvent(tick=30, channel=5, data=[7, 102]),
   midi.ControlChangeEvent(tick=30, channel=5, data=[7, 99]),
   midi.ControlChangeEvent(tick=30, channel=5, data=[7, 96]),
   midi.ControlChangeEvent(tick=30, channel=5, data=[7, 94]),
   midi.ControlChangeEvent(tick=30, channel=5, data=[7, 92]),
   midi.ControlChangeEvent(tick=65, channel=5, data=[7, 93]),
   midi.ControlChangeEvent(tick=20, channel=5, data=[7, 94]),
   midi.ControlChangeEvent(tick=15, channel=5, data=[7, 94]),
   midi.ControlChangeEvent(tick=15, channel=5, data=[7, 94]),
   midi.ControlChangeEvent(tick=30, channel=5, data=[7, 96]),
   midi.ControlChangeEvent(tick=30, channel=5, data=[7, 96]),
   midi.ControlChangeEvent(tick=30, channel=5, data=[7, 99]),
   midi.ControlChangeEvent(tick=30, channel=5, data=[7, 101]),
   midi.ControlChangeEvent(tick=30, channel=5, data=[7, 102]),
   midi.ControlChangeEvent(tick=30, channel=5, data=[7, 105]),
   midi.ControlChangeEvent(tick=30, channel=5, data=[7, 108]),
   midi.ControlChangeEvent(tick=30, channel=5, data=[7, 110]),
   midi.ControlChangeEvent(tick=30, channel=5, data=[7, 112]),
   midi.ControlChangeEvent(tick=30, channel=5, data=[7, 115]),
   midi.ControlChangeEvent(tick=20, channel=5, data=[7, 116]),
   midi.ControlChangeEvent(tick=40, channel=5, data=[7, 118]),
   midi.ControlChangeEvent(tick=30, channel=5, data=[7, 120]),
   midi.ControlChangeEvent(tick=30, channel=5, data=[7, 121]),
   midi.NoteOnEvent(tick=135, channel=5, data=[65, 0]),
   midi.NoteOnEvent(tick=0, channel=5, data=[62, 0]),
   midi.NoteOnEvent(tick=10, channel=5, data=[64, 97]),
   midi.NoteOnEvent(tick=0, channel=5, data=[67, 97]),
   midi.ControlChangeEvent(tick=180, channel=5, data=[7, 120]),
   midi.ControlChangeEvent(tick=30, channel=5, data=[7, 116]),
   midi.ControlChangeEvent(tick=30, channel=5, data=[7, 115]),
   midi.ControlChangeEvent(tick=30, channel=5, data=[7, 112]),
   midi.ControlChangeEvent(tick=30, channel=5, data=[7, 109]),
   midi.ControlChangeEvent(tick=30, channel=5, data=[7, 106]),
   midi.ControlChangeEvent(tick=30, channel=5, data=[7, 102]),
   midi.ControlChangeEvent(tick=30, channel=5, data=[7, 101]),
   midi.ControlChangeEvent(tick=30, channel=5, data=[7, 98]),
   midi.ControlChangeEvent(tick=30, channel=5, data=[7, 96]),
   midi.NoteOnEvent(tick=30, channel=5, data=[67, 0]),
   midi.NoteOnEvent(tick=0, channel=5, data=[69, 97]),
   midi.ControlChangeEvent(tick=0, channel=5, data=[7, 94]),
   midi.ControlChangeEvent(tick=30, channel=5, data=[7, 94]),
   midi.ControlChangeEvent(tick=30, channel=5, data=[7, 92]),
   midi.ControlChangeEvent(tick=25, channel=5, data=[7, 90]),
   midi.ControlChangeEvent(tick=30, channel=5, data=[7, 89]),
   midi.ControlChangeEvent(tick=30, channel=5, data=[7, 87]),
   midi.ControlChangeEvent(tick=25, channel=5, data=[7, 87]),
   midi.ControlChangeEvent(tick=30, channel=5, data=[7, 85]),
   midi.ControlChangeEvent(tick=30, channel=5, data=[7, 83]),
   midi.NoteOnEvent(tick=10, channel=5, data=[64, 0]),
   midi.NoteOnEvent(tick=0, channel=5, data=[65, 97]),
   midi.ControlChangeEvent(tick=50, channel=5, data=[7, 84]),
   midi.ControlChangeEvent(tick=20, channel=5, data=[7, 86]),
   midi.ControlChangeEvent(tick=20, channel=5, data=[7, 87]),
   midi.ControlChangeEvent(tick=30, channel=5, data=[7, 89]),
   midi.ControlChangeEvent(tick=20, channel=5, data=[7, 92]),
   midi.ControlChangeEvent(tick=30, channel=5, data=[7, 96]),
   midi.ControlChangeEvent(tick=40, channel=5, data=[7, 99]),
   midi.NoteOnEvent(tick=20, channel=5, data=[65, 0]),
   midi.NoteOnEvent(tick=0, channel=5, data=[69, 0]),
   midi.ControlChangeEvent(tick=10, channel=5, data=[7, 102]),
   midi.ControlChangeEvent(tick=30, channel=5, data=[7, 105]),
   midi.ControlChangeEvent(tick=30, channel=5, data=[7, 109]),
   midi.ControlChangeEvent(tick=30, channel=5, data=[7, 112]),
   midi.ControlChangeEvent(tick=20, channel=5, data=[7, 112]),
   midi.ControlChangeEvent(tick=25, channel=5, data=[7, 110]),
   midi.ControlChangeEvent(tick=30, channel=5, data=[7, 109]),
   midi.ControlChangeEvent(tick=30, channel=5, data=[7, 105]),
   midi.ControlChangeEvent(tick=30, channel=5, data=[7, 104]),
   midi.NoteOnEvent(tick=15, channel=5, data=[45, 102]),
   midi.NoteOnEvent(tick=60, channel=5, data=[45, 0]),
   midi.ControlChangeEvent(tick=115, channel=5, data=[7, 102]),
   midi.ControlChangeEvent(tick=15, channel=5, data=[7, 101]),
   midi.ControlChangeEvent(tick=15, channel=5, data=[7, 101]),
   midi.ControlChangeEvent(tick=90, channel=5, data=[7, 100]),
   midi.ControlChangeEvent(tick=20, channel=5, data=[7, 99]),
   midi.NoteOnEvent(tick=165, channel=5, data=[45, 102]),
   midi.ControlChangeEvent(tick=35, channel=5, data=[7, 98]),
   midi.ControlChangeEvent(tick=20, channel=5, data=[7, 98]),
   midi.NoteOnEvent(tick=5, channel=5, data=[45, 0]),
   midi.ControlChangeEvent(tick=70, channel=5, data=[7, 96]),
   midi.ControlChangeEvent(tick=60, channel=5, data=[7, 96]),
   midi.ControlChangeEvent(tick=55, channel=5, data=[7, 96]),
   midi.ControlChangeEvent(tick=70, channel=5, data=[7, 96]),
   midi.ControlChangeEvent(tick=30, channel=5, data=[7, 94]),
   midi.NoteOnEvent(tick=15, channel=5, data=[45, 102]),
   midi.ControlChangeEvent(tick=15, channel=5, data=[7, 94]),
   midi.NoteOnEvent(tick=45, channel=5, data=[45, 0]),
   midi.NoteOnEvent(tick=180, channel=5, data=[45, 102]),
   midi.NoteOnEvent(tick=60, channel=5, data=[45, 0]),
   midi.ControlChangeEvent(tick=140, channel=5, data=[7, 94]),
   midi.ControlChangeEvent(tick=25, channel=5, data=[7, 93]),
   midi.NoteOnEvent(tick=15, channel=5, data=[45, 102]),
   midi.ControlChangeEvent(tick=15, channel=5, data=[7, 92]),
   midi.ControlChangeEvent(tick=30, channel=5, data=[7, 92]),
   midi.NoteOnEvent(tick=15, channel=5, data=[45, 0]),
   midi.NoteOnEvent(tick=180, channel=5, data=[45, 102]),
   midi.NoteOnEvent(tick=60, channel=5, data=[45, 0]),
   midi.ControlChangeEvent(tick=70, channel=5, data=[7, 90]),
   midi.ControlChangeEvent(tick=20, channel=5, data=[7, 90]),
   midi.ControlChangeEvent(tick=25, channel=5, data=[7, 89]),
   midi.ControlChangeEvent(tick=30, channel=5, data=[7, 89]),
   midi.ControlChangeEvent(tick=35, channel=5, data=[7, 89]),
   midi.ControlChangeEvent(tick=55, channel=5, data=[7, 88]),
   midi.ControlChangeEvent(tick=20, channel=5, data=[7, 88]),
   midi.ControlChangeEvent(tick=20, channel=5, data=[7, 87]),
   midi.ControlChangeEvent(tick=15, channel=5, data=[7, 86]),
   midi.ControlChangeEvent(tick=20, channel=5, data=[7, 86]),
   midi.ControlChangeEvent(tick=15, channel=5, data=[7, 84]),
   midi.ControlChangeEvent(tick=20, channel=5, data=[7, 83]),
   midi.ControlChangeEvent(tick=15, channel=5, data=[7, 83]),
   midi.ControlChangeEvent(tick=15, channel=5, data=[7, 83]),
   midi.ControlChangeEvent(tick=20, channel=5, data=[7, 81]),
   midi.ControlChangeEvent(tick=15, channel=5, data=[7, 81]),
   midi.ControlChangeEvent(tick=15, channel=5, data=[7, 81]),
   midi.ControlChangeEvent(tick=30, channel=5, data=[7, 81]),
   midi.ControlChangeEvent(tick=950, channel=5, data=[64, 0]),
   midi.ControlChangeEvent(tick=0, channel=5, data=[120, 0]),
   midi.EndOfTrackEvent(tick=0, data=[])]),
 midi.Track(\
  [midi.PortEvent(tick=0, data=[0]),
   midi.ProgramChangeEvent(tick=0, channel=6, data=[60]),
   midi.ControlChangeEvent(tick=0, channel=6, data=[10, 70]),
   midi.ControlChangeEvent(tick=4, channel=6, data=[64, 0]),
   midi.ControlChangeEvent(tick=0, channel=6, data=[91, 112]),
   midi.ControlChangeEvent(tick=600, channel=6, data=[7, 106]),
   midi.NoteOnEvent(tick=0, channel=6, data=[57, 112]),
   midi.NoteOnEvent(tick=0, channel=6, data=[64, 112]),
   midi.NoteOnEvent(tick=45, channel=6, data=[64, 0]),
   midi.NoteOnEvent(tick=0, channel=6, data=[57, 0]),
   midi.ControlChangeEvent(tick=3315, channel=6, data=[7, 83]),
   midi.NoteOnEvent(tick=0, channel=6, data=[57, 85]),
   midi.NoteOnEvent(tick=90, channel=6, data=[57, 0]),
   midi.NoteOnEvent(tick=30, channel=6, data=[57, 85]),
   midi.NoteOnEvent(tick=85, channel=6, data=[57, 0]),
   midi.NoteOnEvent(tick=10, channel=6, data=[57, 85]),
   midi.NoteOnEvent(tick=25, channel=6, data=[57, 0]),
   midi.NoteOnEvent(tick=0, channel=6, data=[57, 85]),
   midi.NoteOnEvent(tick=1, channel=6, data=[57, 0]),
   midi.NoteOnEvent(tick=59, channel=6, data=[57, 85]),
   midi.NoteOnEvent(tick=75, channel=6, data=[57, 0]),
   midi.ControlChangeEvent(tick=90, channel=6, data=[7, 83]),
   midi.NoteOnEvent(tick=15, channel=6, data=[57, 85]),
   midi.ControlChangeEvent(tick=5, channel=6, data=[7, 84]),
   midi.ControlChangeEvent(tick=25, channel=6, data=[7, 85]),
   midi.ControlChangeEvent(tick=20, channel=6, data=[7, 86]),
   midi.NoteOnEvent(tick=20, channel=6, data=[57, 0]),
   midi.NoteOnEvent(tick=25, channel=6, data=[57, 85]),
   midi.ControlChangeEvent(tick=15, channel=6, data=[7, 87]),
   midi.NoteOnEvent(tick=5, channel=6, data=[57, 0]),
   midi.NoteOnEvent(tick=5, channel=6, data=[57, 85]),
   midi.ControlChangeEvent(tick=20, channel=6, data=[7, 87]),
   midi.NoteOnEvent(tick=10, channel=6, data=[57, 0]),
   midi.NoteOnEvent(tick=30, channel=6, data=[57, 85]),
   midi.ControlChangeEvent(tick=5, channel=6, data=[7, 87]),
   midi.NoteOnEvent(tick=25, channel=6, data=[57, 0]),
   midi.NoteOnEvent(tick=30, channel=6, data=[57, 85]),
   midi.ControlChangeEvent(tick=50, channel=6, data=[7, 88]),
   midi.NoteOnEvent(tick=65, channel=6, data=[57, 0]),
   midi.ControlChangeEvent(tick=105, channel=6, data=[7, 89]),
   midi.ControlChangeEvent(tick=10, channel=6, data=[7, 92]),
   midi.ControlChangeEvent(tick=5, channel=6, data=[7, 93]),
   midi.NoteOnEvent(tick=5, channel=6, data=[60, 85]),
   midi.ControlChangeEvent(tick=5, channel=6, data=[7, 94]),
   midi.ControlChangeEvent(tick=5, channel=6, data=[7, 94]),
   midi.ControlChangeEvent(tick=5, channel=6, data=[7, 96]),
   midi.ControlChangeEvent(tick=10, channel=6, data=[7, 98]),
   midi.ControlChangeEvent(tick=5, channel=6, data=[7, 99]),
   midi.ControlChangeEvent(tick=10, channel=6, data=[7, 100]),
   midi.ControlChangeEvent(tick=15, channel=6, data=[7, 99]),
   midi.ControlChangeEvent(tick=10, channel=6, data=[7, 98]),
   midi.ControlChangeEvent(tick=10, channel=6, data=[7, 96]),
   midi.ControlChangeEvent(tick=10, channel=6, data=[7, 94]),
   midi.NoteOnEvent(tick=5, channel=6, data=[60, 0]),
   midi.ControlChangeEvent(tick=5, channel=6, data=[7, 94]),
   midi.ControlChangeEvent(tick=15, channel=6, data=[7, 94]),
   midi.NoteOnEvent(tick=10, channel=6, data=[60, 85]),
   midi.ControlChangeEvent(tick=0, channel=6, data=[7, 94]),
   midi.ControlChangeEvent(tick=15, channel=6, data=[7, 93]),
   midi.ControlChangeEvent(tick=20, channel=6, data=[7, 92]),
   midi.ControlChangeEvent(tick=20, channel=6, data=[7, 90]),
   midi.NoteOnEvent(tick=30, channel=6, data=[60, 0]),
   midi.ControlChangeEvent(tick=5, channel=6, data=[7, 90]),
   midi.NoteOnEvent(tick=5, channel=6, data=[60, 85]),
   midi.NoteOnEvent(tick=20, channel=6, data=[60, 0]),
   midi.NoteOnEvent(tick=5, channel=6, data=[60, 85]),
   midi.NoteOnEvent(tick=30, channel=6, data=[60, 0]),
   midi.NoteOnEvent(tick=30, channel=6, data=[60, 85]),
   midi.NoteOnEvent(tick=75, channel=6, data=[60, 0]),
   midi.ControlChangeEvent(tick=85, channel=6, data=[7, 90]),
   midi.ControlChangeEvent(tick=10, channel=6, data=[7, 93]),
   midi.ControlChangeEvent(tick=5, channel=6, data=[7, 94]),
   midi.NoteOnEvent(tick=5, channel=6, data=[60, 85]),
   midi.ControlChangeEvent(tick=5, channel=6, data=[7, 96]),
   midi.ControlChangeEvent(tick=5, channel=6, data=[7, 98]),
   midi.ControlChangeEvent(tick=10, channel=6, data=[7, 101]),
   midi.ControlChangeEvent(tick=10, channel=6, data=[7, 102]),
   midi.ControlChangeEvent(tick=20, channel=6, data=[7, 102]),
   midi.ControlChangeEvent(tick=5, channel=6, data=[7, 101]),
   midi.ControlChangeEvent(tick=10, channel=6, data=[7, 100]),
   midi.NoteOnEvent(tick=5, channel=6, data=[60, 0]),
   midi.ControlChangeEvent(tick=5, channel=6, data=[7, 98]),
   midi.ControlChangeEvent(tick=10, channel=6, data=[7, 98]),
   midi.ControlChangeEvent(tick=10, channel=6, data=[7, 96]),
   midi.NoteOnEvent(tick=0, channel=6, data=[60, 85]),
   midi.ControlChangeEvent(tick=10, channel=6, data=[7, 96]),
   midi.NoteOnEvent(tick=10, channel=6, data=[60, 0]),
   midi.ControlChangeEvent(tick=0, channel=6, data=[7, 96]),
   midi.NoteOnEvent(tick=5, channel=6, data=[60, 85]),
   midi.ControlChangeEvent(tick=5, channel=6, data=[7, 94]),
   midi.NoteOnEvent(tick=25, channel=6, data=[60, 0]),
   midi.ControlChangeEvent(tick=15, channel=6, data=[7, 94]),
   midi.NoteOnEvent(tick=15, channel=6, data=[60, 85]),
   midi.ControlChangeEvent(tick=10, channel=6, data=[7, 94]),
   midi.NoteOnEvent(tick=20, channel=6, data=[60, 0]),
   midi.NoteOnEvent(tick=30, channel=6, data=[60, 85]),
   midi.ControlChangeEvent(tick=0, channel=6, data=[7, 94]),
   midi.ControlChangeEvent(tick=40, channel=6, data=[7, 93]),
   midi.ControlChangeEvent(tick=30, channel=6, data=[7, 92]),
   midi.NoteOnEvent(tick=45, channel=6, data=[60, 0]),
   midi.ControlChangeEvent(tick=2235, channel=6, data=[7, 93]),
   midi.ControlChangeEvent(tick=5, channel=6, data=[7, 94]),
   midi.ControlChangeEvent(tick=10, channel=6, data=[7, 94]),
   midi.ControlChangeEvent(tick=10, channel=6, data=[7, 94]),
   midi.ControlChangeEvent(tick=15, channel=6, data=[7, 96]),
   midi.ControlChangeEvent(tick=5, channel=6, data=[7, 96]),
   midi.NoteOnEvent(tick=5, channel=6, data=[62, 92]),
   midi.NoteOnEvent(tick=0, channel=6, data=[59, 85]),
   midi.ControlChangeEvent(tick=5, channel=6, data=[7, 96]),
   midi.ControlChangeEvent(tick=5, channel=6, data=[7, 98]),
   midi.ControlChangeEvent(tick=10, channel=6, data=[7, 99]),
   midi.ControlChangeEvent(tick=5, channel=6, data=[7, 100]),
   midi.ControlChangeEvent(tick=10, channel=6, data=[7, 101]),
   midi.ControlChangeEvent(tick=60, channel=6, data=[7, 101]),
   midi.ControlChangeEvent(tick=20, channel=6, data=[7, 101]),
   midi.ControlChangeEvent(tick=5, channel=6, data=[7, 100]),
   midi.ControlChangeEvent(tick=10, channel=6, data=[7, 98]),
   midi.ControlChangeEvent(tick=10, channel=6, data=[7, 98]),
   midi.ControlChangeEvent(tick=5, channel=6, data=[7, 96]),
   midi.ControlChangeEvent(tick=10, channel=6, data=[7, 96]),
   midi.ControlChangeEvent(tick=15, channel=6, data=[7, 94]),
   midi.ControlChangeEvent(tick=30, channel=6, data=[7, 94]),
   midi.ControlChangeEvent(tick=30, channel=6, data=[7, 94]),
   midi.NoteOnEvent(tick=5, channel=6, data=[59, 0]),
   midi.NoteOnEvent(tick=0, channel=6, data=[62, 0]),
   midi.NoteOnEvent(tick=5, channel=6, data=[52, 92]),
   midi.ControlChangeEvent(tick=20, channel=6, data=[7, 94]),
   midi.ControlChangeEvent(tick=10, channel=6, data=[7, 93]),
   midi.ControlChangeEvent(tick=5, channel=6, data=[7, 92]),
   midi.NoteOnEvent(tick=80, channel=6, data=[52, 0]),
   midi.NoteOnEvent(tick=5, channel=6, data=[52, 98]),
   midi.ControlChangeEvent(tick=35, channel=6, data=[7, 90]),
   midi.ControlChangeEvent(tick=15, channel=6, data=[7, 90]),
   midi.ControlChangeEvent(tick=15, channel=6, data=[7, 89]),
   midi.NoteOnEvent(tick=50, channel=6, data=[52, 0]),
   midi.NoteOnEvent(tick=5, channel=6, data=[55, 98]),
   midi.NoteOnEvent(tick=0, channel=6, data=[64, 107]),
   midi.ControlChangeEvent(tick=5, channel=6, data=[7, 92]),
   midi.ControlChangeEvent(tick=5, channel=6, data=[7, 94]),
   midi.ControlChangeEvent(tick=10, channel=6, data=[7, 99]),
   midi.ControlChangeEvent(tick=5, channel=6, data=[7, 102]),
   midi.ControlChangeEvent(tick=10, channel=6, data=[7, 104]),
   midi.ControlChangeEvent(tick=10, channel=6, data=[7, 108]),
   midi.ControlChangeEvent(tick=5, channel=6, data=[7, 110]),
   midi.ControlChangeEvent(tick=10, channel=6, data=[7, 112]),
   midi.ControlChangeEvent(tick=10, channel=6, data=[7, 112]),
   midi.ControlChangeEvent(tick=95, channel=6, data=[7, 112]),
   midi.ControlChangeEvent(tick=15, channel=6, data=[7, 110]),
   midi.ControlChangeEvent(tick=5, channel=6, data=[7, 110]),
   midi.ControlChangeEvent(tick=10, channel=6, data=[7, 109]),
   midi.ControlChangeEvent(tick=10, channel=6, data=[7, 109]),
   midi.ControlChangeEvent(tick=10, channel=6, data=[7, 109]),
   midi.ControlChangeEvent(tick=10, channel=6, data=[7, 108]),
   midi.NoteOnEvent(tick=10, channel=6, data=[64, 0]),
   midi.NoteOnEvent(tick=0, channel=6, data=[55, 0]),
   midi.ControlChangeEvent(tick=0, channel=6, data=[7, 106]),
   midi.NoteOnEvent(tick=5, channel=6, data=[57, 107]),
   midi.NoteOnEvent(tick=0, channel=6, data=[53, 98]),
   midi.ControlChangeEvent(tick=0, channel=6, data=[7, 105]),
   midi.ControlChangeEvent(tick=10, channel=6, data=[7, 104]),
   midi.ControlChangeEvent(tick=5, channel=6, data=[7, 103]),
   midi.ControlChangeEvent(tick=10, channel=6, data=[7, 102]),
   midi.ControlChangeEvent(tick=10, channel=6, data=[7, 101]),
   midi.ControlChangeEvent(tick=5, channel=6, data=[7, 101]),
   midi.ControlChangeEvent(tick=10, channel=6, data=[7, 101]),
   midi.ControlChangeEvent(tick=10, channel=6, data=[7, 99]),
   midi.ControlChangeEvent(tick=5, channel=6, data=[7, 98]),
   midi.ControlChangeEvent(tick=10, channel=6, data=[7, 98]),
   midi.ControlChangeEvent(tick=5, channel=6, data=[7, 96]),
   midi.ControlChangeEvent(tick=10, channel=6, data=[7, 96]),
   midi.ControlChangeEvent(tick=10, channel=6, data=[7, 96]),
   midi.ControlChangeEvent(tick=5, channel=6, data=[7, 94]),
   midi.NoteOnEvent(tick=10, channel=6, data=[53, 0]),
   midi.NoteOnEvent(tick=0, channel=6, data=[57, 0]),
   midi.ControlChangeEvent(tick=0, channel=6, data=[7, 94]),
   midi.NoteOnEvent(tick=5, channel=6, data=[53, 95]),
   midi.NoteOnEvent(tick=0, channel=6, data=[57, 101]),
   midi.ControlChangeEvent(tick=10, channel=6, data=[7, 94]),
   midi.ControlChangeEvent(tick=5, channel=6, data=[7, 93]),
   midi.ControlChangeEvent(tick=10, channel=6, data=[7, 92]),
   midi.ControlChangeEvent(tick=10, channel=6, data=[7, 90]),
   midi.ControlChangeEvent(tick=5, channel=6, data=[7, 89]),
   midi.ControlChangeEvent(tick=10, channel=6, data=[7, 88]),
   midi.ControlChangeEvent(tick=10, channel=6, data=[7, 87]),
   midi.ControlChangeEvent(tick=5, channel=6, data=[7, 87]),
   midi.ControlChangeEvent(tick=10, channel=6, data=[7, 87]),
   midi.ControlChangeEvent(tick=5, channel=6, data=[7, 86]),
   midi.ControlChangeEvent(tick=10, channel=6, data=[7, 85]),
   midi.ControlChangeEvent(tick=10, channel=6, data=[7, 84]),
   midi.ControlChangeEvent(tick=10, channel=6, data=[7, 83]),
   midi.NoteOnEvent(tick=5, channel=6, data=[57, 0]),
   midi.NoteOnEvent(tick=0, channel=6, data=[53, 0]),
   midi.ControlChangeEvent(tick=0, channel=6, data=[7, 83]),
   midi.NoteOnEvent(tick=5, channel=6, data=[57, 89]),
   midi.NoteOnEvent(tick=0, channel=6, data=[53, 79]),
   midi.ControlChangeEvent(tick=10, channel=6, data=[7, 81]),
   midi.ControlChangeEvent(tick=15, channel=6, data=[7, 81]),
   midi.ControlChangeEvent(tick=25, channel=6, data=[7, 81]),
   midi.NoteOnEvent(tick=75, channel=6, data=[53, 0]),
   midi.NoteOnEvent(tick=0, channel=6, data=[57, 0]),
   midi.ControlChangeEvent(tick=20, channel=6, data=[7, 81]),
   midi.ControlChangeEvent(tick=6815, channel=6, data=[7, 81]),
   midi.ControlChangeEvent(tick=225, channel=6, data=[7, 81]),
   midi.ControlChangeEvent(tick=20, channel=6, data=[7, 81]),
   midi.ControlChangeEvent(tick=15, channel=6, data=[7, 83]),
   midi.ControlChangeEvent(tick=10, channel=6, data=[7, 84]),
   midi.ControlChangeEvent(tick=15, channel=6, data=[7, 86]),
   midi.ControlChangeEvent(tick=15, channel=6, data=[7, 87]),
   midi.ControlChangeEvent(tick=10, channel=6, data=[7, 88]),
   midi.ControlChangeEvent(tick=15, channel=6, data=[7, 90]),
   midi.ControlChangeEvent(tick=10, channel=6, data=[7, 92]),
   midi.ControlChangeEvent(tick=25, channel=6, data=[7, 93]),
   midi.ControlChangeEvent(tick=15, channel=6, data=[7, 94]),
   midi.ControlChangeEvent(tick=10, channel=6, data=[7, 94]),
   midi.ControlChangeEvent(tick=15, channel=6, data=[7, 96]),
   midi.ControlChangeEvent(tick=15, channel=6, data=[7, 96]),
   midi.ControlChangeEvent(tick=10, channel=6, data=[7, 98]),
   midi.ControlChangeEvent(tick=15, channel=6, data=[7, 100]),
   midi.ControlChangeEvent(tick=15, channel=6, data=[7, 101]),
   midi.ControlChangeEvent(tick=15, channel=6, data=[7, 105]),
   midi.NoteOnEvent(tick=10, channel=6, data=[64, 102]),
   midi.NoteOnEvent(tick=0, channel=6, data=[52, 97]),
   midi.ControlChangeEvent(tick=5, channel=6, data=[7, 109]),
   midi.ControlChangeEvent(tick=10, channel=6, data=[7, 112]),
   midi.ControlChangeEvent(tick=15, channel=6, data=[7, 114]),
   midi.ControlChangeEvent(tick=15, channel=6, data=[7, 116]),
   midi.ControlChangeEvent(tick=10, channel=6, data=[7, 118]),
   midi.ControlChangeEvent(tick=15, channel=6, data=[7, 119]),
   midi.NoteOnEvent(tick=5, channel=6, data=[52, 0]),
   midi.NoteOnEvent(tick=0, channel=6, data=[64, 0]),
   midi.NoteOnEvent(tick=0, channel=6, data=[52, 76]),
   midi.NoteOnEvent(tick=0, channel=6, data=[64, 86]),
   midi.NoteOnEvent(tick=5, channel=6, data=[64, 0]),
   midi.NoteOnEvent(tick=0, channel=6, data=[52, 0]),
   midi.ControlChangeEvent(tick=0, channel=6, data=[7, 118]),
   midi.ControlChangeEvent(tick=15, channel=6, data=[7, 116]),
   midi.ControlChangeEvent(tick=15, channel=6, data=[7, 112]),
   midi.ControlChangeEvent(tick=10, channel=6, data=[7, 109]),
   midi.ControlChangeEvent(tick=15, channel=6, data=[7, 106]),
   midi.ControlChangeEvent(tick=15, channel=6, data=[7, 103]),
   midi.ControlChangeEvent(tick=10, channel=6, data=[7, 102]),
   midi.ControlChangeEvent(tick=15, channel=6, data=[7, 101]),
   midi.ControlChangeEvent(tick=10, channel=6, data=[7, 101]),
   midi.ControlChangeEvent(tick=15, channel=6, data=[7, 101]),
   midi.ControlChangeEvent(tick=10, channel=6, data=[7, 100]),
   midi.ControlChangeEvent(tick=15, channel=6, data=[7, 99]),
   midi.ControlChangeEvent(tick=15, channel=6, data=[7, 98]),
   midi.ControlChangeEvent(tick=10, channel=6, data=[7, 98]),
   midi.ControlChangeEvent(tick=15, channel=6, data=[7, 96]),
   midi.ControlChangeEvent(tick=10, channel=6, data=[7, 96]),
   midi.ControlChangeEvent(tick=20, channel=6, data=[7, 94]),
   midi.ControlChangeEvent(tick=10, channel=6, data=[7, 94]),
   midi.ControlChangeEvent(tick=15, channel=6, data=[7, 94]),
   midi.ControlChangeEvent(tick=20, channel=6, data=[7, 94]),
   midi.ControlChangeEvent(tick=20, channel=6, data=[7, 93]),
   midi.ControlChangeEvent(tick=10, channel=6, data=[7, 92]),
   midi.ControlChangeEvent(tick=15, channel=6, data=[7, 90]),
   midi.ControlChangeEvent(tick=10, channel=6, data=[7, 90]),
   midi.ControlChangeEvent(tick=15, channel=6, data=[7, 89]),
   midi.ControlChangeEvent(tick=10, channel=6, data=[7, 87]),
   midi.ControlChangeEvent(tick=15, channel=6, data=[7, 87]),
   midi.ControlChangeEvent(tick=15, channel=6, data=[7, 87]),
   midi.ControlChangeEvent(tick=10, channel=6, data=[7, 86]),
   midi.ControlChangeEvent(tick=15, channel=6, data=[7, 85]),
   midi.ControlChangeEvent(tick=20, channel=6, data=[7, 84]),
   midi.ControlChangeEvent(tick=20, channel=6, data=[7, 83]),
   midi.ControlChangeEvent(tick=20, channel=6, data=[7, 83]),
   midi.ControlChangeEvent(tick=15, channel=6, data=[7, 81]),
   midi.ControlChangeEvent(tick=20, channel=6, data=[7, 81]),
   midi.ControlChangeEvent(tick=20, channel=6, data=[7, 81]),
   midi.ControlChangeEvent(tick=15, channel=6, data=[7, 81]),
   midi.ControlChangeEvent(tick=15, channel=6, data=[7, 81]),
   midi.ControlChangeEvent(tick=20, channel=6, data=[7, 80]),
   midi.ControlChangeEvent(tick=20, channel=6, data=[7, 79]),
   midi.ControlChangeEvent(tick=755, channel=6, data=[7, 80]),
   midi.ControlChangeEvent(tick=15, channel=6, data=[7, 81]),
   midi.ControlChangeEvent(tick=10, channel=6, data=[7, 81]),
   midi.ControlChangeEvent(tick=15, channel=6, data=[7, 83]),
   midi.ControlChangeEvent(tick=10, channel=6, data=[7, 84]),
   midi.ControlChangeEvent(tick=15, channel=6, data=[7, 87]),
   midi.ControlChangeEvent(tick=10, channel=6, data=[7, 87]),
   midi.ControlChangeEvent(tick=15, channel=6, data=[7, 90]),
   midi.ControlChangeEvent(tick=10, channel=6, data=[7, 93]),
   midi.ControlChangeEvent(tick=15, channel=6, data=[7, 94]),
   midi.ControlChangeEvent(tick=10, channel=6, data=[7, 94]),
   midi.ControlChangeEvent(tick=15, channel=6, data=[7, 96]),
   midi.ControlChangeEvent(tick=10, channel=6, data=[7, 96]),
   midi.ControlChangeEvent(tick=15, channel=6, data=[7, 98]),
   midi.ControlChangeEvent(tick=15, channel=6, data=[7, 99]),
   midi.ControlChangeEvent(tick=15, channel=6, data=[7, 100]),
   midi.ControlChangeEvent(tick=10, channel=6, data=[7, 101]),
   midi.ControlChangeEvent(tick=25, channel=6, data=[7, 101]),
   midi.ControlChangeEvent(tick=10, channel=6, data=[7, 102]),
   midi.ControlChangeEvent(tick=25, channel=6, data=[7, 103]),
   midi.ControlChangeEvent(tick=10, channel=6, data=[7, 104]),
   midi.ControlChangeEvent(tick=20, channel=6, data=[7, 105]),
   midi.ControlChangeEvent(tick=50, channel=6, data=[7, 106]),
   midi.ControlChangeEvent(tick=120, channel=6, data=[7, 108]),
   midi.ControlChangeEvent(tick=15, channel=6, data=[7, 109]),
   midi.ControlChangeEvent(tick=15, channel=6, data=[7, 111]),
   midi.NoteOnEvent(tick=10, channel=6, data=[62, 102]),
   midi.NoteOnEvent(tick=0, channel=6, data=[50, 97]),
   midi.ControlChangeEvent(tick=0, channel=6, data=[7, 112]),
   midi.ControlChangeEvent(tick=15, channel=6, data=[7, 116]),
   midi.ControlChangeEvent(tick=15, channel=6, data=[7, 116]),
   midi.ControlChangeEvent(tick=35, channel=6, data=[7, 116]),
   midi.NoteOnEvent(tick=10, channel=6, data=[50, 0]),
   midi.NoteOnEvent(tick=0, channel=6, data=[62, 0]),
   midi.NoteOnEvent(tick=0, channel=6, data=[62, 86]),
   midi.NoteOnEvent(tick=0, channel=6, data=[50, 76]),
   midi.ControlChangeEvent(tick=0, channel=6, data=[7, 114]),
   midi.NoteOnEvent(tick=5, channel=6, data=[50, 0]),
   midi.NoteOnEvent(tick=0, channel=6, data=[62, 0]),
   midi.ControlChangeEvent(tick=10, channel=6, data=[7, 111]),
   midi.ControlChangeEvent(tick=10, channel=6, data=[7, 109]),
   midi.ControlChangeEvent(tick=15, channel=6, data=[7, 109]),
   midi.ControlChangeEvent(tick=15, channel=6, data=[7, 105]),
   midi.ControlChangeEvent(tick=10, channel=6, data=[7, 102]),
   midi.ControlChangeEvent(tick=15, channel=6, data=[7, 102]),
   midi.ControlChangeEvent(tick=10, channel=6, data=[7, 101]),
   midi.ControlChangeEvent(tick=15, channel=6, data=[7, 101]),
   midi.ControlChangeEvent(tick=10, channel=6, data=[7, 101]),
   midi.ControlChangeEvent(tick=15, channel=6, data=[7, 100]),
   midi.ControlChangeEvent(tick=15, channel=6, data=[7, 98]),
   midi.ControlChangeEvent(tick=10, channel=6, data=[7, 98]),
   midi.ControlChangeEvent(tick=15, channel=6, data=[7, 96]),
   midi.ControlChangeEvent(tick=20, channel=6, data=[7, 96]),
   midi.ControlChangeEvent(tick=25, channel=6, data=[7, 96]),
   midi.ControlChangeEvent(tick=20, channel=6, data=[7, 94]),
   midi.ControlChangeEvent(tick=15, channel=6, data=[7, 94]),
   midi.ControlChangeEvent(tick=10, channel=6, data=[7, 94]),
   midi.ControlChangeEvent(tick=15, channel=6, data=[7, 94]),
   midi.ControlChangeEvent(tick=15, channel=6, data=[7, 93]),
   midi.ControlChangeEvent(tick=15, channel=6, data=[7, 92]),
   midi.ControlChangeEvent(tick=15, channel=6, data=[7, 90]),
   midi.ControlChangeEvent(tick=10, channel=6, data=[7, 90]),
   midi.ControlChangeEvent(tick=20, channel=6, data=[7, 89]),
   midi.ControlChangeEvent(tick=10, channel=6, data=[7, 88]),
   midi.ControlChangeEvent(tick=15, channel=6, data=[7, 87]),
   midi.ControlChangeEvent(tick=20, channel=6, data=[7, 87]),
   midi.ControlChangeEvent(tick=10, channel=6, data=[7, 87]),
   midi.ControlChangeEvent(tick=30, channel=6, data=[7, 85]),
   midi.ControlChangeEvent(tick=30, channel=6, data=[7, 84]),
   midi.ControlChangeEvent(tick=20, channel=6, data=[7, 83]),
   midi.ControlChangeEvent(tick=20, channel=6, data=[7, 83]),
   midi.ControlChangeEvent(tick=40, channel=6, data=[7, 81]),
   midi.ControlChangeEvent(tick=55, channel=6, data=[7, 81]),
   midi.ControlChangeEvent(tick=3645, channel=6, data=[7, 81]),
   midi.ControlChangeEvent(tick=75, channel=6, data=[7, 83]),
   midi.ControlChangeEvent(tick=10, channel=6, data=[7, 85]),
   midi.ControlChangeEvent(tick=10, channel=6, data=[7, 87]),
   midi.ControlChangeEvent(tick=10, channel=6, data=[7, 87]),
   midi.ControlChangeEvent(tick=10, channel=6, data=[7, 89]),
   midi.ControlChangeEvent(tick=10, channel=6, data=[7, 92]),
   midi.ControlChangeEvent(tick=10, channel=6, data=[7, 94]),
   midi.ControlChangeEvent(tick=10, channel=6, data=[7, 96]),
   midi.ControlChangeEvent(tick=10, channel=6, data=[7, 96]),
   midi.ControlChangeEvent(tick=10, channel=6, data=[7, 98]),
   midi.ControlChangeEvent(tick=10, channel=6, data=[7, 99]),
   midi.ControlChangeEvent(tick=10, channel=6, data=[7, 101]),
   midi.ControlChangeEvent(tick=10, channel=6, data=[7, 102]),
   midi.ControlChangeEvent(tick=10, channel=6, data=[7, 102]),
   midi.ControlChangeEvent(tick=10, channel=6, data=[7, 103]),
   midi.ControlChangeEvent(tick=10, channel=6, data=[7, 104]),
   midi.ControlChangeEvent(tick=10, channel=6, data=[7, 105]),
   midi.ControlChangeEvent(tick=10, channel=6, data=[7, 106]),
   midi.ControlChangeEvent(tick=10, channel=6, data=[7, 109]),
   midi.ControlChangeEvent(tick=10, channel=6, data=[7, 110]),
   midi.ControlChangeEvent(tick=10, channel=6, data=[7, 110]),
   midi.ControlChangeEvent(tick=15, channel=6, data=[7, 111]),
   midi.ControlChangeEvent(tick=15, channel=6, data=[7, 112]),
   midi.NoteOnEvent(tick=175, channel=6, data=[62, 107]),
   midi.NoteOnEvent(tick=0, channel=6, data=[65, 112]),
   midi.ControlChangeEvent(tick=40, channel=6, data=[7, 110]),
   midi.ControlChangeEvent(tick=10, channel=6, data=[7, 109]),
   midi.ControlChangeEvent(tick=5, channel=6, data=[7, 108]),
   midi.ControlChangeEvent(tick=10, channel=6, data=[7, 106]),
   midi.ControlChangeEvent(tick=10, channel=6, data=[7, 104]),
   midi.ControlChangeEvent(tick=5, channel=6, data=[7, 102]),
   midi.ControlChangeEvent(tick=10, channel=6, data=[7, 101]),
   midi.ControlChangeEvent(tick=10, channel=6, data=[7, 99]),
   midi.ControlChangeEvent(tick=5, channel=6, data=[7, 96]),
   midi.ControlChangeEvent(tick=10, channel=6, data=[7, 94]),
   midi.ControlChangeEvent(tick=10, channel=6, data=[7, 94]),
   midi.ControlChangeEvent(tick=10, channel=6, data=[7, 94]),
   midi.ControlChangeEvent(tick=5, channel=6, data=[7, 93]),
   midi.ControlChangeEvent(tick=10, channel=6, data=[7, 90]),
   midi.ControlChangeEvent(tick=10, channel=6, data=[7, 89]),
   midi.ControlChangeEvent(tick=10, channel=6, data=[7, 87]),
   midi.ControlChangeEvent(tick=10, channel=6, data=[7, 87]),
   midi.ControlChangeEvent(tick=5, channel=6, data=[7, 87]),
   midi.ControlChangeEvent(tick=10, channel=6, data=[7, 86]),
   midi.ControlChangeEvent(tick=10, channel=6, data=[7, 84]),
   midi.ControlChangeEvent(tick=10, channel=6, data=[7, 83]),
   midi.ControlChangeEvent(tick=10, channel=6, data=[7, 81]),
   midi.ControlChangeEvent(tick=15, channel=6, data=[7, 81]),
   midi.ControlChangeEvent(tick=5, channel=6, data=[7, 81]),
   midi.ControlChangeEvent(tick=15, channel=6, data=[7, 81]),
   midi.ControlChangeEvent(tick=20, channel=6, data=[7, 81]),
   midi.ControlChangeEvent(tick=5, channel=6, data=[7, 80]),
   midi.ControlChangeEvent(tick=20, channel=6, data=[7, 79]),
   midi.ControlChangeEvent(tick=15, channel=6, data=[7, 78]),
   midi.ControlChangeEvent(tick=20, channel=6, data=[7, 77]),
   midi.ControlChangeEvent(tick=25, channel=6, data=[7, 76]),
   midi.ControlChangeEvent(tick=10, channel=6, data=[7, 75]),
   midi.ControlChangeEvent(tick=5, channel=6, data=[7, 74]),
   midi.ControlChangeEvent(tick=10, channel=6, data=[7, 73]),
   midi.ControlChangeEvent(tick=5, channel=6, data=[7, 73]),
   midi.ControlChangeEvent(tick=10, channel=6, data=[7, 73]),
   midi.ControlChangeEvent(tick=15, channel=6, data=[7, 71]),
   midi.ControlChangeEvent(tick=5, channel=6, data=[7, 70]),
   midi.ControlChangeEvent(tick=5, channel=6, data=[7, 69]),
   midi.ControlChangeEvent(tick=5, channel=6, data=[7, 68]),
   midi.ControlChangeEvent(tick=5, channel=6, data=[7, 67]),
   midi.ControlChangeEvent(tick=5, channel=6, data=[7, 66]),
   midi.ControlChangeEvent(tick=10, channel=6, data=[7, 66]),
   midi.ControlChangeEvent(tick=5, channel=6, data=[7, 66]),
   midi.ControlChangeEvent(tick=15, channel=6, data=[7, 66]),
   midi.NoteOnEvent(tick=5, channel=6, data=[65, 0]),
   midi.NoteOnEvent(tick=0, channel=6, data=[62, 0]),
   midi.NoteOnEvent(tick=0, channel=6, data=[65, 97]),
   midi.NoteOnEvent(tick=0, channel=6, data=[62, 92]),
   midi.NoteOnEvent(tick=5, channel=6, data=[62, 0]),
   midi.NoteOnEvent(tick=0, channel=6, data=[65, 0]),
   midi.ControlChangeEvent(tick=5, channel=6, data=[7, 65]),
   midi.ControlChangeEvent(tick=155, channel=6, data=[7, 66]),
   midi.ControlChangeEvent(tick=5, channel=6, data=[7, 66]),
   midi.ControlChangeEvent(tick=15, channel=6, data=[7, 66]),
   midi.ControlChangeEvent(tick=15, channel=6, data=[7, 66]),
   midi.ControlChangeEvent(tick=10, channel=6, data=[7, 67]),
   midi.ControlChangeEvent(tick=10, channel=6, data=[7, 68]),
   midi.ControlChangeEvent(tick=10, channel=6, data=[7, 69]),
   midi.ControlChangeEvent(tick=5, channel=6, data=[7, 70]),
   midi.ControlChangeEvent(tick=15, channel=6, data=[7, 71]),
   midi.ControlChangeEvent(tick=10, channel=6, data=[7, 72]),
   midi.ControlChangeEvent(tick=15, channel=6, data=[7, 73]),
   midi.ControlChangeEvent(tick=5, channel=6, data=[7, 73]),
   midi.ControlChangeEvent(tick=10, channel=6, data=[7, 73]),
   midi.NoteOnEvent(tick=190, channel=6, data=[64, 81]),
   midi.ControlChangeEvent(tick=25, channel=6, data=[7, 74]),
   midi.ControlChangeEvent(tick=35, channel=6, data=[7, 75]),
   midi.ControlChangeEvent(tick=10, channel=6, data=[7, 76]),
   midi.ControlChangeEvent(tick=10, channel=6, data=[7, 77]),
   midi.ControlChangeEvent(tick=5, channel=6, data=[7, 78]),
   midi.ControlChangeEvent(tick=15, channel=6, data=[7, 80]),
   midi.ControlChangeEvent(tick=5, channel=6, data=[7, 81]),
   midi.ControlChangeEvent(tick=5, channel=6, data=[7, 81]),
   midi.ControlChangeEvent(tick=10, channel=6, data=[7, 81]),
   midi.ControlChangeEvent(tick=5, channel=6, data=[7, 81]),
   midi.ControlChangeEvent(tick=10, channel=6, data=[7, 83]),
   midi.ControlChangeEvent(tick=5, channel=6, data=[7, 83]),
   midi.ControlChangeEvent(tick=5, channel=6, data=[7, 84]),
   midi.ControlChangeEvent(tick=10, channel=6, data=[7, 85]),
   midi.ControlChangeEvent(tick=5, channel=6, data=[7, 86]),
   midi.ControlChangeEvent(tick=10, channel=6, data=[7, 87]),
   midi.ControlChangeEvent(tick=5, channel=6, data=[7, 87]),
   midi.ControlChangeEvent(tick=5, channel=6, data=[7, 88]),
   midi.ControlChangeEvent(tick=25, channel=6, data=[7, 89]),
   midi.ControlChangeEvent(tick=10, channel=6, data=[7, 90]),
   midi.ControlChangeEvent(tick=5, channel=6, data=[7, 90]),
   midi.ControlChangeEvent(tick=10, channel=6, data=[7, 92]),
   midi.ControlChangeEvent(tick=5, channel=6, data=[7, 93]),
   midi.NoteOnEvent(tick=5, channel=6, data=[64, 0]),
   midi.NoteOnEvent(tick=0, channel=6, data=[65, 81]),
   midi.ControlChangeEvent(tick=5, channel=6, data=[7, 94]),
   midi.ControlChangeEvent(tick=10, channel=6, data=[7, 94]),
   midi.ControlChangeEvent(tick=10, channel=6, data=[7, 94]),
   midi.ControlChangeEvent(tick=10, channel=6, data=[7, 94]),
   midi.ControlChangeEvent(tick=10, channel=6, data=[7, 96]),
   midi.ControlChangeEvent(tick=10, channel=6, data=[7, 96]),
   midi.ControlChangeEvent(tick=10, channel=6, data=[7, 96]),
   midi.ControlChangeEvent(tick=15, channel=6, data=[7, 98]),
   midi.ControlChangeEvent(tick=5, channel=6, data=[7, 98]),
   midi.ControlChangeEvent(tick=5, channel=6, data=[7, 99]),
   midi.ControlChangeEvent(tick=15, channel=6, data=[7, 100]),
   midi.ControlChangeEvent(tick=5, channel=6, data=[7, 101]),
   midi.ControlChangeEvent(tick=10, channel=6, data=[7, 101]),
   midi.ControlChangeEvent(tick=15, channel=6, data=[7, 101]),
   midi.ControlChangeEvent(tick=10, channel=6, data=[7, 102]),
   midi.ControlChangeEvent(tick=10, channel=6, data=[7, 102]),
   midi.ControlChangeEvent(tick=15, channel=6, data=[7, 103]),
   midi.ControlChangeEvent(tick=10, channel=6, data=[7, 104]),
   midi.ControlChangeEvent(tick=15, channel=6, data=[7, 105]),
   midi.ControlChangeEvent(tick=20, channel=6, data=[7, 106]),
   midi.ControlChangeEvent(tick=10, channel=6, data=[7, 108]),
   midi.NoteOnEvent(tick=15, channel=6, data=[65, 0]),
   midi.NoteOnEvent(tick=0, channel=6, data=[64, 76]),
   midi.ControlChangeEvent(tick=0, channel=6, data=[7, 109]),
   midi.ControlChangeEvent(tick=10, channel=6, data=[7, 109]),
   midi.ControlChangeEvent(tick=15, channel=6, data=[7, 109]),
   midi.ControlChangeEvent(tick=20, channel=6, data=[7, 110]),
   midi.ControlChangeEvent(tick=10, channel=6, data=[7, 110]),
   midi.ControlChangeEvent(tick=5, channel=6, data=[7, 111]),
   midi.ControlChangeEvent(tick=15, channel=6, data=[7, 112]),
   midi.ControlChangeEvent(tick=10, channel=6, data=[7, 112]),
   midi.ControlChangeEvent(tick=25, channel=6, data=[7, 112]),
   midi.ControlChangeEvent(tick=20, channel=6, data=[7, 114]),
   midi.ControlChangeEvent(tick=35, channel=6, data=[7, 116]),
   midi.NoteOnEvent(tick=55, channel=6, data=[64, 0]),
   midi.ControlChangeEvent(tick=95, channel=6, data=[7, 114]),
   midi.ControlChangeEvent(tick=10, channel=6, data=[7, 112]),
   midi.ControlChangeEvent(tick=15, channel=6, data=[7, 112]),
   midi.ControlChangeEvent(tick=55, channel=6, data=[7, 112]),
   midi.ControlChangeEvent(tick=10, channel=6, data=[7, 111]),
   midi.ControlChangeEvent(tick=15, channel=6, data=[7, 110]),
   midi.ControlChangeEvent(tick=5, channel=6, data=[7, 110]),
   midi.ControlChangeEvent(tick=10, channel=6, data=[7, 109]),
   midi.ControlChangeEvent(tick=5, channel=6, data=[7, 109]),
   midi.ControlChangeEvent(tick=10, channel=6, data=[7, 108]),
   midi.ControlChangeEvent(tick=5, channel=6, data=[7, 106]),
   midi.ControlChangeEvent(tick=5, channel=6, data=[7, 105]),
   midi.ControlChangeEvent(tick=10, channel=6, data=[7, 104]),
   midi.NoteOnEvent(tick=10, channel=6, data=[63, 81]),
   midi.ControlChangeEvent(tick=10, channel=6, data=[7, 103]),
   midi.ControlChangeEvent(tick=5, channel=6, data=[7, 102]),
   midi.ControlChangeEvent(tick=10, channel=6, data=[7, 102]),
   midi.ControlChangeEvent(tick=5, channel=6, data=[7, 101]),
   midi.ControlChangeEvent(tick=25, channel=6, data=[7, 101]),
   midi.ControlChangeEvent(tick=30, channel=6, data=[7, 101]),
   midi.ControlChangeEvent(tick=10, channel=6, data=[7, 102]),
   midi.ControlChangeEvent(tick=5, channel=6, data=[7, 102]),
   midi.ControlChangeEvent(tick=15, channel=6, data=[7, 103]),
   midi.NoteOnEvent(tick=5, channel=6, data=[63, 0]),
   midi.NoteOnEvent(tick=0, channel=6, data=[62, 86]),
   midi.ControlChangeEvent(tick=10, channel=6, data=[7, 104]),
   midi.ControlChangeEvent(tick=5, channel=6, data=[7, 105]),
   midi.ControlChangeEvent(tick=10, channel=6, data=[7, 106]),
   midi.ControlChangeEvent(tick=10, channel=6, data=[7, 108]),
   midi.ControlChangeEvent(tick=10, channel=6, data=[7, 109]),
   midi.ControlChangeEvent(tick=60, channel=6, data=[7, 109]),
   midi.ControlChangeEvent(tick=5, channel=6, data=[7, 109]),
   midi.NoteOnEvent(tick=10, channel=6, data=[62, 0]),
   midi.NoteOnEvent(tick=0, channel=6, data=[67, 92]),
   midi.ControlChangeEvent(tick=5, channel=6, data=[7, 110]),
   midi.ControlChangeEvent(tick=5, channel=6, data=[7, 111]),
   midi.ControlChangeEvent(tick=5, channel=6, data=[7, 112]),
   midi.ControlChangeEvent(tick=10, channel=6, data=[7, 112]),
   midi.ControlChangeEvent(tick=10, channel=6, data=[7, 114]),
   midi.ControlChangeEvent(tick=5, channel=6, data=[7, 116]),
   midi.ControlChangeEvent(tick=30, channel=6, data=[7, 116]),
   midi.ControlChangeEvent(tick=5, channel=6, data=[7, 116]),
   midi.ControlChangeEvent(tick=10, channel=6, data=[7, 116]),
   midi.ControlChangeEvent(tick=5, channel=6, data=[7, 116]),
   midi.ControlChangeEvent(tick=45, channel=6, data=[7, 116]),
   midi.ControlChangeEvent(tick=10, channel=6, data=[7, 116]),
   midi.ControlChangeEvent(tick=5, channel=6, data=[7, 114]),
   midi.ControlChangeEvent(tick=10, channel=6, data=[7, 112]),
   midi.ControlChangeEvent(tick=5, channel=6, data=[7, 112]),
   midi.ControlChangeEvent(tick=10, channel=6, data=[7, 110]),
   midi.ControlChangeEvent(tick=5, channel=6, data=[7, 109]),
   midi.ControlChangeEvent(tick=5, channel=6, data=[7, 109]),
   midi.ControlChangeEvent(tick=10, channel=6, data=[7, 108]),
   midi.ControlChangeEvent(tick=5, channel=6, data=[7, 105]),
   midi.ControlChangeEvent(tick=10, channel=6, data=[7, 104]),
   midi.ControlChangeEvent(tick=5, channel=6, data=[7, 103]),
   midi.ControlChangeEvent(tick=10, channel=6, data=[7, 102]),
   midi.ControlChangeEvent(tick=5, channel=6, data=[7, 102]),
   midi.ControlChangeEvent(tick=5, channel=6, data=[7, 101]),
   midi.NoteOnEvent(tick=5, channel=6, data=[67, 0]),
   midi.NoteOnEvent(tick=0, channel=6, data=[63, 76]),
   midi.ControlChangeEvent(tick=5, channel=6, data=[7, 101]),
   midi.ControlChangeEvent(tick=5, channel=6, data=[7, 100]),
   midi.ControlChangeEvent(tick=10, channel=6, data=[7, 98]),
   midi.ControlChangeEvent(tick=5, channel=6, data=[7, 98]),
   midi.ControlChangeEvent(tick=10, channel=6, data=[7, 96]),
   midi.ControlChangeEvent(tick=15, channel=6, data=[7, 96]),
   midi.ControlChangeEvent(tick=10, channel=6, data=[7, 96]),
   midi.ControlChangeEvent(tick=5, channel=6, data=[7, 94]),
   midi.ControlChangeEvent(tick=15, channel=6, data=[7, 94]),
   midi.ControlChangeEvent(tick=15, channel=6, data=[7, 94]),
   midi.ControlChangeEvent(tick=15, channel=6, data=[7, 94]),
   midi.ControlChangeEvent(tick=15, channel=6, data=[7, 93]),
   midi.ControlChangeEvent(tick=35, channel=6, data=[7, 92]),
   midi.NoteOnEvent(tick=40, channel=6, data=[63, 0]),
   midi.ControlChangeEvent(tick=4120, channel=6, data=[7, 92]),
   midi.ControlChangeEvent(tick=75, channel=6, data=[7, 93]),
   midi.ControlChangeEvent(tick=10, channel=6, data=[7, 94]),
   midi.ControlChangeEvent(tick=5, channel=6, data=[7, 94]),
   midi.ControlChangeEvent(tick=10, channel=6, data=[7, 94]),
   midi.ControlChangeEvent(tick=5, channel=6, data=[7, 96]),
   midi.ControlChangeEvent(tick=5, channel=6, data=[7, 96]),
   midi.ControlChangeEvent(tick=10, channel=6, data=[7, 96]),
   midi.ControlChangeEvent(tick=20, channel=6, data=[7, 98]),
   midi.ControlChangeEvent(tick=65, channel=6, data=[7, 98]),
   midi.ControlChangeEvent(tick=10, channel=6, data=[7, 99]),
   midi.ControlChangeEvent(tick=15, channel=6, data=[7, 100]),
   midi.ControlChangeEvent(tick=5, channel=6, data=[7, 101]),
   midi.ControlChangeEvent(tick=5, channel=6, data=[7, 101]),
   midi.ControlChangeEvent(tick=5, channel=6, data=[7, 101]),
   midi.ControlChangeEvent(tick=10, channel=6, data=[7, 102]),
   midi.ControlChangeEvent(tick=5, channel=6, data=[7, 103]),
   midi.ControlChangeEvent(tick=15, channel=6, data=[7, 104]),
   midi.ControlChangeEvent(tick=160, channel=6, data=[7, 103]),
   midi.ControlChangeEvent(tick=10, channel=6, data=[7, 102]),
   midi.ControlChangeEvent(tick=5, channel=6, data=[7, 102]),
   midi.ControlChangeEvent(tick=5, channel=6, data=[7, 101]),
   midi.ControlChangeEvent(tick=10, channel=6, data=[7, 101]),
   midi.ControlChangeEvent(tick=10, channel=6, data=[7, 100]),
   midi.ControlChangeEvent(tick=15, channel=6, data=[7, 99]),
   midi.ControlChangeEvent(tick=360, channel=6, data=[7, 98]),
   midi.ControlChangeEvent(tick=15, channel=6, data=[7, 98]),
   midi.ControlChangeEvent(tick=25, channel=6, data=[7, 96]),
   midi.ControlChangeEvent(tick=20, channel=6, data=[7, 96]),
   midi.ControlChangeEvent(tick=100, channel=6, data=[7, 96]),
   midi.ControlChangeEvent(tick=10, channel=6, data=[7, 98]),
   midi.ControlChangeEvent(tick=10, channel=6, data=[7, 98]),
   midi.ControlChangeEvent(tick=5, channel=6, data=[7, 99]),
   midi.ControlChangeEvent(tick=10, channel=6, data=[7, 100]),
   midi.ControlChangeEvent(tick=15, channel=6, data=[7, 101]),
   midi.ControlChangeEvent(tick=5, channel=6, data=[7, 101]),
   midi.ControlChangeEvent(tick=10, channel=6, data=[7, 102]),
   midi.ControlChangeEvent(tick=5, channel=6, data=[7, 102]),
   midi.ControlChangeEvent(tick=10, channel=6, data=[7, 103]),
   midi.ControlChangeEvent(tick=5, channel=6, data=[7, 104]),
   midi.ControlChangeEvent(tick=5, channel=6, data=[7, 105]),
   midi.ControlChangeEvent(tick=15, channel=6, data=[7, 106]),
   midi.ControlChangeEvent(tick=5, channel=6, data=[7, 108]),
   midi.ControlChangeEvent(tick=10, channel=6, data=[7, 109]),
   midi.ControlChangeEvent(tick=5, channel=6, data=[7, 109]),
   midi.ControlChangeEvent(tick=5, channel=6, data=[7, 109]),
   midi.ControlChangeEvent(tick=5, channel=6, data=[7, 110]),
   midi.ControlChangeEvent(tick=10, channel=6, data=[7, 110]),
   midi.ControlChangeEvent(tick=5, channel=6, data=[7, 112]),
   midi.ControlChangeEvent(tick=5, channel=6, data=[7, 112]),
   midi.ControlChangeEvent(tick=10, channel=6, data=[7, 112]),
   midi.ControlChangeEvent(tick=5, channel=6, data=[7, 116]),
   midi.ControlChangeEvent(tick=5, channel=6, data=[7, 116]),
   midi.ControlChangeEvent(tick=10, channel=6, data=[7, 116]),
   midi.ControlChangeEvent(tick=5, channel=6, data=[7, 118]),
   midi.ControlChangeEvent(tick=5, channel=6, data=[7, 118]),
   midi.ControlChangeEvent(tick=5, channel=6, data=[7, 120]),
   midi.ControlChangeEvent(tick=5, channel=6, data=[7, 120]),
   midi.ControlChangeEvent(tick=10, channel=6, data=[7, 121]),
   midi.ControlChangeEvent(tick=5, channel=6, data=[7, 122]),
   midi.ControlChangeEvent(tick=10, channel=6, data=[7, 124]),
   midi.ControlChangeEvent(tick=30, channel=6, data=[7, 124]),
   midi.ControlChangeEvent(tick=15, channel=6, data=[7, 125]),
   midi.ControlChangeEvent(tick=10, channel=6, data=[7, 127]),
   midi.ControlChangeEvent(tick=145, channel=6, data=[7, 124]),
   midi.ControlChangeEvent(tick=5, channel=6, data=[7, 124]),
   midi.ControlChangeEvent(tick=10, channel=6, data=[7, 122]),
   midi.ControlChangeEvent(tick=15, channel=6, data=[7, 121]),
   midi.ControlChangeEvent(tick=10, channel=6, data=[7, 121]),
   midi.ControlChangeEvent(tick=10, channel=6, data=[7, 120]),
   midi.ControlChangeEvent(tick=10, channel=6, data=[7, 120]),
   midi.ControlChangeEvent(tick=80, channel=6, data=[7, 119]),
   midi.ControlChangeEvent(tick=45, channel=6, data=[7, 118]),
   midi.ControlChangeEvent(tick=3655, channel=6, data=[7, 118]),
   midi.ControlChangeEvent(tick=155, channel=6, data=[7, 109]),
   midi.ControlChangeEvent(tick=10, channel=6, data=[7, 108]),
   midi.ControlChangeEvent(tick=10, channel=6, data=[7, 105]),
   midi.ControlChangeEvent(tick=15, channel=6, data=[7, 103]),
   midi.ControlChangeEvent(tick=10, channel=6, data=[7, 102]),
   midi.ControlChangeEvent(tick=10, channel=6, data=[7, 101]),
   midi.ControlChangeEvent(tick=15, channel=6, data=[7, 100]),
   midi.ControlChangeEvent(tick=10, channel=6, data=[7, 98]),
   midi.ControlChangeEvent(tick=10, channel=6, data=[7, 98]),
   midi.ControlChangeEvent(tick=15, channel=6, data=[7, 96]),
   midi.ControlChangeEvent(tick=20, channel=6, data=[7, 96]),
   midi.ControlChangeEvent(tick=10, channel=6, data=[7, 96]),
   midi.ControlChangeEvent(tick=10, channel=6, data=[7, 94]),
   midi.ControlChangeEvent(tick=40, channel=6, data=[7, 94]),
   midi.NoteOnEvent(tick=140, channel=6, data=[55, 102]),
   midi.NoteOnEvent(tick=235, channel=6, data=[55, 0]),
   midi.NoteOnEvent(tick=5, channel=6, data=[57, 102]),
   midi.ControlChangeEvent(tick=10, channel=6, data=[7, 96]),
   midi.ControlChangeEvent(tick=10, channel=6, data=[7, 98]),
   midi.ControlChangeEvent(tick=15, channel=6, data=[7, 101]),
   midi.ControlChangeEvent(tick=15, channel=6, data=[7, 104]),
   midi.ControlChangeEvent(tick=10, channel=6, data=[7, 106]),
   midi.ControlChangeEvent(tick=15, channel=6, data=[7, 104]),
   midi.ControlChangeEvent(tick=10, channel=6, data=[7, 101]),
   midi.NoteOnEvent(tick=15, channel=6, data=[57, 0]),
   midi.ControlChangeEvent(tick=0, channel=6, data=[7, 98]),
   midi.ControlChangeEvent(tick=10, channel=6, data=[7, 96]),
   midi.NoteOnEvent(tick=10, channel=6, data=[59, 102]),
   midi.ControlChangeEvent(tick=10, channel=6, data=[7, 98]),
   midi.ControlChangeEvent(tick=15, channel=6, data=[7, 100]),
   midi.ControlChangeEvent(tick=15, channel=6, data=[7, 103]),
   midi.ControlChangeEvent(tick=10, channel=6, data=[7, 104]),
   midi.ControlChangeEvent(tick=15, channel=6, data=[7, 102]),
   midi.ControlChangeEvent(tick=15, channel=6, data=[7, 100]),
   midi.NoteOnEvent(tick=20, channel=6, data=[59, 0]),
   midi.ControlChangeEvent(tick=5, channel=6, data=[7, 101]),
   midi.NoteOnEvent(tick=10, channel=6, data=[55, 102]),
   midi.ControlChangeEvent(tick=10, channel=6, data=[7, 103]),
   midi.ControlChangeEvent(tick=10, channel=6, data=[7, 105]),
   midi.ControlChangeEvent(tick=30, channel=6, data=[7, 102]),
   midi.NoteOnEvent(tick=5, channel=6, data=[55, 0]),
   midi.ControlChangeEvent(tick=5, channel=6, data=[7, 101]),
   midi.ControlChangeEvent(tick=15, channel=6, data=[7, 100]),
   midi.ControlChangeEvent(tick=10, channel=6, data=[7, 99]),
   midi.NoteOnEvent(tick=35, channel=6, data=[59, 102]),
   midi.NoteOnEvent(tick=55, channel=6, data=[59, 0]),
   midi.NoteOnEvent(tick=65, channel=6, data=[55, 102]),
   midi.ControlChangeEvent(tick=0, channel=6, data=[7, 101]),
   midi.ControlChangeEvent(tick=15, channel=6, data=[7, 102]),
   midi.ControlChangeEvent(tick=10, channel=6, data=[7, 104]),
   midi.NoteOnEvent(tick=30, channel=6, data=[55, 0]),
   midi.ControlChangeEvent(tick=5, channel=6, data=[7, 102]),
   midi.ControlChangeEvent(tick=15, channel=6, data=[7, 101]),
   midi.ControlChangeEvent(tick=15, channel=6, data=[7, 101]),
   midi.ControlChangeEvent(tick=10, channel=6, data=[7, 100]),
   midi.ControlChangeEvent(tick=15, channel=6, data=[7, 99]),
   midi.NoteOnEvent(tick=5, channel=6, data=[59, 102]),
   midi.ControlChangeEvent(tick=10, channel=6, data=[7, 98]),
   midi.ControlChangeEvent(tick=10, channel=6, data=[7, 96]),
   midi.ControlChangeEvent(tick=10, channel=6, data=[7, 96]),
   midi.ControlChangeEvent(tick=20, channel=6, data=[7, 96]),
   midi.NoteOnEvent(tick=5, channel=6, data=[59, 0]),
   midi.ControlChangeEvent(tick=5, channel=6, data=[7, 94]),
   midi.ControlChangeEvent(tick=10, channel=6, data=[7, 94]),
   midi.ControlChangeEvent(tick=15, channel=6, data=[7, 94]),
   midi.ControlChangeEvent(tick=20, channel=6, data=[7, 93]),
   midi.NoteOnEvent(tick=20, channel=6, data=[55, 102]),
   midi.NoteOnEvent(tick=80, channel=6, data=[55, 0]),
   midi.ControlChangeEvent(tick=870, channel=6, data=[7, 94]),
   midi.NoteOnEvent(tick=10, channel=6, data=[57, 102]),
   midi.ControlChangeEvent(tick=20, channel=6, data=[7, 94]),
   midi.ControlChangeEvent(tick=25, channel=6, data=[7, 94]),
   midi.ControlChangeEvent(tick=130, channel=6, data=[7, 94]),
   midi.NoteOnEvent(tick=60, channel=6, data=[57, 0]),
   midi.NoteOnEvent(tick=5, channel=6, data=[59, 102]),
   midi.NoteOnEvent(tick=100, channel=6, data=[59, 0]),
   midi.NoteOnEvent(tick=20, channel=6, data=[61, 102]),
   midi.ControlChangeEvent(tick=50, channel=6, data=[7, 94]),
   midi.ControlChangeEvent(tick=30, channel=6, data=[7, 94]),
   midi.NoteOnEvent(tick=20, channel=6, data=[61, 0]),
   midi.NoteOnEvent(tick=15, channel=6, data=[57, 102]),
   midi.NoteOnEvent(tick=55, channel=6, data=[57, 0]),
   midi.NoteOnEvent(tick=65, channel=6, data=[61, 102]),
   midi.ControlChangeEvent(tick=50, channel=6, data=[7, 94]),
   midi.NoteOnEvent(tick=5, channel=6, data=[61, 0]),
   midi.NoteOnEvent(tick=65, channel=6, data=[57, 102]),
   midi.NoteOnEvent(tick=55, channel=6, data=[57, 0]),
   midi.NoteOnEvent(tick=65, channel=6, data=[61, 102]),
   midi.NoteOnEvent(tick=55, channel=6, data=[61, 0]),
   midi.NoteOnEvent(tick=70, channel=6, data=[57, 102]),
   midi.NoteOnEvent(tick=80, channel=6, data=[57, 0]),
   midi.ControlChangeEvent(tick=1835, channel=6, data=[7, 94]),
   midi.ControlChangeEvent(tick=35, channel=6, data=[7, 94]),
   midi.ControlChangeEvent(tick=40, channel=6, data=[7, 94]),
   midi.ControlChangeEvent(tick=25, channel=6, data=[7, 96]),
   midi.ControlChangeEvent(tick=30, channel=6, data=[7, 96]),
   midi.ControlChangeEvent(tick=50, channel=6, data=[7, 96]),
   midi.ControlChangeEvent(tick=1265, channel=6, data=[7, 116]),
   midi.NoteOnEvent(tick=480, channel=6, data=[60, 107]),
   midi.ControlChangeEvent(tick=55, channel=6, data=[7, 116]),
   midi.ControlChangeEvent(tick=10, channel=6, data=[7, 110]),
   midi.ControlChangeEvent(tick=10, channel=6, data=[7, 109]),
   midi.ControlChangeEvent(tick=15, channel=6, data=[7, 109]),
   midi.ControlChangeEvent(tick=10, channel=6, data=[7, 106]),
   midi.ControlChangeEvent(tick=15, channel=6, data=[7, 104]),
   midi.ControlChangeEvent(tick=10, channel=6, data=[7, 102]),
   midi.ControlChangeEvent(tick=15, channel=6, data=[7, 101]),
   midi.ControlChangeEvent(tick=10, channel=6, data=[7, 101]),
   midi.ControlChangeEvent(tick=10, channel=6, data=[7, 100]),
   midi.ControlChangeEvent(tick=15, channel=6, data=[7, 98]),
   midi.ControlChangeEvent(tick=10, channel=6, data=[7, 96]),
   midi.ControlChangeEvent(tick=10, channel=6, data=[7, 94]),
   midi.ControlChangeEvent(tick=10, channel=6, data=[7, 94]),
   midi.ControlChangeEvent(tick=15, channel=6, data=[7, 93]),
   midi.ControlChangeEvent(tick=10, channel=6, data=[7, 90]),
   midi.ControlChangeEvent(tick=10, channel=6, data=[7, 89]),
   midi.ControlChangeEvent(tick=10, channel=6, data=[7, 87]),
   midi.ControlChangeEvent(tick=15, channel=6, data=[7, 87]),
   midi.ControlChangeEvent(tick=10, channel=6, data=[7, 86]),
   midi.ControlChangeEvent(tick=10, channel=6, data=[7, 85]),
   midi.ControlChangeEvent(tick=10, channel=6, data=[7, 84]),
   midi.ControlChangeEvent(tick=20, channel=6, data=[7, 83]),
   midi.ControlChangeEvent(tick=15, channel=6, data=[7, 83]),
   midi.ControlChangeEvent(tick=25, channel=6, data=[7, 81]),
   midi.ControlChangeEvent(tick=45, channel=6, data=[7, 81]),
   midi.ControlChangeEvent(tick=65, channel=6, data=[7, 81]),
   midi.NoteOnEvent(tick=15, channel=6, data=[60, 0]),
   midi.NoteOnEvent(tick=0, channel=6, data=[59, 86]),
   midi.ControlChangeEvent(tick=20, channel=6, data=[7, 81]),
   midi.ControlChangeEvent(tick=25, channel=6, data=[7, 81]),
   midi.ControlChangeEvent(tick=30, channel=6, data=[7, 80]),
   midi.ControlChangeEvent(tick=45, channel=6, data=[7, 79]),
   midi.ControlChangeEvent(tick=45, channel=6, data=[7, 78]),
   midi.ControlChangeEvent(tick=35, channel=6, data=[7, 77]),
   midi.ControlChangeEvent(tick=25, channel=6, data=[7, 76]),
   midi.ControlChangeEvent(tick=15, channel=6, data=[7, 75]),
   midi.ControlChangeEvent(tick=15, channel=6, data=[7, 74]),
   midi.ControlChangeEvent(tick=25, channel=6, data=[7, 73]),
   midi.ControlChangeEvent(tick=15, channel=6, data=[7, 73]),
   midi.ControlChangeEvent(tick=20, channel=6, data=[7, 73]),
   midi.ControlChangeEvent(tick=15, channel=6, data=[7, 72]),
   midi.ControlChangeEvent(tick=10, channel=6, data=[7, 71]),
   midi.ControlChangeEvent(tick=25, channel=6, data=[7, 70]),
   midi.ControlChangeEvent(tick=10, channel=6, data=[7, 69]),
   midi.ControlChangeEvent(tick=10, channel=6, data=[7, 68]),
   midi.ControlChangeEvent(tick=15, channel=6, data=[7, 67]),
   midi.ControlChangeEvent(tick=15, channel=6, data=[7, 66]),
   midi.ControlChangeEvent(tick=5, channel=6, data=[7, 66]),
   midi.ControlChangeEvent(tick=10, channel=6, data=[7, 66]),
   midi.ControlChangeEvent(tick=5, channel=6, data=[7, 66]),
   midi.ControlChangeEvent(tick=20, channel=6, data=[7, 65]),
   midi.ControlChangeEvent(tick=20, channel=6, data=[7, 65]),
   midi.NoteOnEvent(tick=10, channel=6, data=[59, 0]),
   midi.ControlChangeEvent(tick=5, channel=6, data=[7, 65]),
   midi.ControlChangeEvent(tick=30, channel=6, data=[7, 63]),
   midi.ControlChangeEvent(tick=15, channel=6, data=[7, 63]),
   midi.ControlChangeEvent(tick=15, channel=6, data=[7, 61]),
   midi.ControlChangeEvent(tick=10, channel=6, data=[7, 61]),
   midi.ControlChangeEvent(tick=10, channel=6, data=[7, 59]),
   midi.ControlChangeEvent(tick=5, channel=6, data=[7, 59]),
   midi.ControlChangeEvent(tick=10, channel=6, data=[7, 59]),
   midi.ControlChangeEvent(tick=5, channel=6, data=[7, 58]),
   midi.ControlChangeEvent(tick=20, channel=6, data=[7, 57]),
   midi.ControlChangeEvent(tick=10, channel=6, data=[7, 57]),
   midi.ControlChangeEvent(tick=5, channel=6, data=[7, 55]),
   midi.ControlChangeEvent(tick=10, channel=6, data=[7, 53]),
   midi.ControlChangeEvent(tick=5, channel=6, data=[7, 50]),
   midi.ControlChangeEvent(tick=5, channel=6, data=[7, 48]),
   midi.ControlChangeEvent(tick=10, channel=6, data=[7, 45]),
   midi.ControlChangeEvent(tick=5, channel=6, data=[7, 45]),
   midi.ControlChangeEvent(tick=5, channel=6, data=[7, 45]),
   midi.ControlChangeEvent(tick=200, channel=6, data=[64, 0]),
   midi.ControlChangeEvent(tick=0, channel=6, data=[120, 0]),
   midi.EndOfTrackEvent(tick=0, data=[])]),
 midi.Track(\
  [midi.PortEvent(tick=0, data=[0]),
   midi.ProgramChangeEvent(tick=0, channel=7, data=[57]),
   midi.ControlChangeEvent(tick=0, channel=7, data=[7, 90]),
   midi.ControlChangeEvent(tick=0, channel=7, data=[10, 75]),
   midi.ControlChangeEvent(tick=4, channel=7, data=[64, 0]),
   midi.ControlChangeEvent(tick=0, channel=7, data=[91, 102]),
   midi.NoteOnEvent(tick=600, channel=7, data=[57, 123]),
   midi.NoteOnEvent(tick=0, channel=7, data=[81, 97]),
   midi.NoteOnEvent(tick=30, channel=7, data=[81, 0]),
   midi.NoteOnEvent(tick=20, channel=7, data=[57, 0]),
   midi.ControlChangeEvent(tick=23470, channel=7, data=[7, 90]),
   midi.ControlChangeEvent(tick=145, channel=7, data=[7, 112]),
   midi.ControlChangeEvent(tick=15, channel=7, data=[7, 112]),
   midi.ControlChangeEvent(tick=10, channel=7, data=[7, 111]),
   midi.ControlChangeEvent(tick=10, channel=7, data=[7, 110]),
   midi.ControlChangeEvent(tick=10, channel=7, data=[7, 110]),
   midi.ControlChangeEvent(tick=10, channel=7, data=[7, 109]),
   midi.ControlChangeEvent(tick=10, channel=7, data=[7, 109]),
   midi.ControlChangeEvent(tick=15, channel=7, data=[7, 109]),
   midi.ControlChangeEvent(tick=10, channel=7, data=[7, 109]),
   midi.ControlChangeEvent(tick=10, channel=7, data=[7, 107]),
   midi.ControlChangeEvent(tick=10, channel=7, data=[7, 106]),
   midi.ControlChangeEvent(tick=10, channel=7, data=[7, 105]),
   midi.ControlChangeEvent(tick=55, channel=7, data=[7, 104]),
   midi.ControlChangeEvent(tick=15, channel=7, data=[7, 103]),
   midi.ControlChangeEvent(tick=10, channel=7, data=[7, 102]),
   midi.ControlChangeEvent(tick=20, channel=7, data=[7, 102]),
   midi.ControlChangeEvent(tick=450, channel=7, data=[7, 102]),
   midi.ControlChangeEvent(tick=20, channel=7, data=[7, 103]),
   midi.ControlChangeEvent(tick=20, channel=7, data=[7, 104]),
   midi.ControlChangeEvent(tick=35, channel=7, data=[7, 105]),
   midi.ControlChangeEvent(tick=10630, channel=7, data=[7, 105]),
   midi.NoteOnEvent(tick=0, channel=7, data=[60, 107]),
   midi.NoteOnEvent(tick=0, channel=7, data=[72, 123]),
   midi.NoteOnEvent(tick=205, channel=7, data=[72, 0]),
   midi.NoteOnEvent(tick=0, channel=7, data=[60, 0]),
   midi.NoteOnEvent(tick=35, channel=7, data=[55, 107]),
   midi.NoteOnEvent(tick=0, channel=7, data=[67, 123]),
   midi.NoteOnEvent(tick=205, channel=7, data=[67, 0]),
   midi.NoteOnEvent(tick=0, channel=7, data=[55, 0]),
   midi.NoteOnEvent(tick=35, channel=7, data=[60, 107]),
   midi.NoteOnEvent(tick=0, channel=7, data=[72, 123]),
   midi.NoteOnEvent(tick=45, channel=7, data=[72, 0]),
   midi.NoteOnEvent(tick=0, channel=7, data=[60, 0]),
   midi.NoteOnEvent(tick=75, channel=7, data=[55, 107]),
   midi.NoteOnEvent(tick=0, channel=7, data=[67, 123]),
   midi.NoteOnEvent(tick=45, channel=7, data=[67, 0]),
   midi.NoteOnEvent(tick=0, channel=7, data=[55, 0]),
   midi.NoteOnEvent(tick=75, channel=7, data=[60, 107]),
   midi.NoteOnEvent(tick=0, channel=7, data=[72, 123]),
   midi.NoteOnEvent(tick=45, channel=7, data=[72, 0]),
   midi.NoteOnEvent(tick=0, channel=7, data=[60, 0]),
   midi.NoteOnEvent(tick=75, channel=7, data=[55, 107]),
   midi.NoteOnEvent(tick=0, channel=7, data=[67, 123]),
   midi.NoteOnEvent(tick=45, channel=7, data=[67, 0]),
   midi.NoteOnEvent(tick=0, channel=7, data=[55, 0]),
   midi.NoteOnEvent(tick=75, channel=7, data=[60, 107]),
   midi.NoteOnEvent(tick=0, channel=7, data=[72, 123]),
   midi.NoteOnEvent(tick=45, channel=7, data=[72, 0]),
   midi.NoteOnEvent(tick=0, channel=7, data=[60, 0]),
   midi.ControlChangeEvent(tick=480, channel=7, data=[7, 120]),
   midi.ControlChangeEvent(tick=15, channel=7, data=[7, 121]),
   midi.ControlChangeEvent(tick=295, channel=7, data=[7, 120]),
   midi.ControlChangeEvent(tick=15, channel=7, data=[7, 120]),
   midi.ControlChangeEvent(tick=10, channel=7, data=[7, 120]),
   midi.ControlChangeEvent(tick=20, channel=7, data=[7, 119]),
   midi.ControlChangeEvent(tick=30, channel=7, data=[7, 118]),
   midi.NoteOnEvent(tick=50, channel=7, data=[62, 107]),
   midi.NoteOnEvent(tick=0, channel=7, data=[74, 123]),
   midi.NoteOnEvent(tick=205, channel=7, data=[74, 0]),
   midi.NoteOnEvent(tick=0, channel=7, data=[62, 0]),
   midi.NoteOnEvent(tick=35, channel=7, data=[57, 107]),
   midi.NoteOnEvent(tick=0, channel=7, data=[69, 123]),
   midi.NoteOnEvent(tick=205, channel=7, data=[69, 0]),
   midi.NoteOnEvent(tick=0, channel=7, data=[57, 0]),
   midi.NoteOnEvent(tick=35, channel=7, data=[62, 107]),
   midi.NoteOnEvent(tick=0, channel=7, data=[74, 123]),
   midi.ControlChangeEvent(tick=10, channel=7, data=[7, 119]),
   midi.NoteOnEvent(tick=35, channel=7, data=[74, 0]),
   midi.NoteOnEvent(tick=0, channel=7, data=[62, 0]),
   midi.NoteOnEvent(tick=75, channel=7, data=[57, 107]),
   midi.NoteOnEvent(tick=0, channel=7, data=[69, 123]),
   midi.NoteOnEvent(tick=45, channel=7, data=[69, 0]),
   midi.NoteOnEvent(tick=0, channel=7, data=[57, 0]),
   midi.NoteOnEvent(tick=75, channel=7, data=[62, 107]),
   midi.NoteOnEvent(tick=0, channel=7, data=[74, 123]),
   midi.NoteOnEvent(tick=45, channel=7, data=[74, 0]),
   midi.NoteOnEvent(tick=0, channel=7, data=[62, 0]),
   midi.NoteOnEvent(tick=75, channel=7, data=[57, 107]),
   midi.NoteOnEvent(tick=0, channel=7, data=[69, 123]),
   midi.NoteOnEvent(tick=45, channel=7, data=[69, 0]),
   midi.NoteOnEvent(tick=0, channel=7, data=[57, 0]),
   midi.NoteOnEvent(tick=75, channel=7, data=[62, 107]),
   midi.NoteOnEvent(tick=0, channel=7, data=[74, 123]),
   midi.NoteOnEvent(tick=45, channel=7, data=[74, 0]),
   midi.NoteOnEvent(tick=0, channel=7, data=[62, 0]),
   midi.ControlChangeEvent(tick=1870, channel=7, data=[7, 120]),
   midi.NoteOnEvent(tick=5, channel=7, data=[72, 116]),
   midi.NoteOnEvent(tick=0, channel=7, data=[60, 107]),
   midi.ControlChangeEvent(tick=10, channel=7, data=[7, 121]),
   midi.NoteOnEvent(tick=350, channel=7, data=[60, 0]),
   midi.NoteOnEvent(tick=0, channel=7, data=[72, 0]),
   midi.NoteOnEvent(tick=60, channel=7, data=[60, 107]),
   midi.NoteOnEvent(tick=0, channel=7, data=[72, 116]),
   midi.NoteOnEvent(tick=15, channel=7, data=[72, 0]),
   midi.NoteOnEvent(tick=0, channel=7, data=[60, 0]),
   midi.NoteOnEvent(tick=5, channel=7, data=[60, 107]),
   midi.NoteOnEvent(tick=0, channel=7, data=[72, 116]),
   midi.NoteOnEvent(tick=15, channel=7, data=[72, 0]),
   midi.NoteOnEvent(tick=0, channel=7, data=[60, 0]),
   midi.NoteOnEvent(tick=5, channel=7, data=[60, 107]),
   midi.NoteOnEvent(tick=0, channel=7, data=[72, 116]),
   midi.NoteOnEvent(tick=15, channel=7, data=[72, 0]),
   midi.NoteOnEvent(tick=0, channel=7, data=[60, 0]),
   midi.NoteOnEvent(tick=5, channel=7, data=[72, 116]),
   midi.NoteOnEvent(tick=0, channel=7, data=[60, 107]),
   midi.NoteOnEvent(tick=340, channel=7, data=[60, 0]),
   midi.NoteOnEvent(tick=0, channel=7, data=[72, 0]),
   midi.NoteOnEvent(tick=80, channel=7, data=[60, 107]),
   midi.NoteOnEvent(tick=0, channel=7, data=[72, 116]),
   midi.NoteOnEvent(tick=15, channel=7, data=[72, 0]),
   midi.NoteOnEvent(tick=0, channel=7, data=[60, 0]),
   midi.NoteOnEvent(tick=5, channel=7, data=[60, 107]),
   midi.NoteOnEvent(tick=0, channel=7, data=[72, 116]),
   midi.NoteOnEvent(tick=15, channel=7, data=[72, 0]),
   midi.NoteOnEvent(tick=0, channel=7, data=[60, 0]),
   midi.NoteOnEvent(tick=5, channel=7, data=[60, 107]),
   midi.NoteOnEvent(tick=0, channel=7, data=[72, 116]),
   midi.NoteOnEvent(tick=15, channel=7, data=[72, 0]),
   midi.NoteOnEvent(tick=0, channel=7, data=[60, 0]),
   midi.NoteOnEvent(tick=5, channel=7, data=[60, 107]),
   midi.NoteOnEvent(tick=0, channel=7, data=[72, 116]),
   midi.NoteOnEvent(tick=120, channel=7, data=[72, 0]),
   midi.NoteOnEvent(tick=0, channel=7, data=[60, 0]),
   midi.NoteOnEvent(tick=120, channel=7, data=[60, 107]),
   midi.NoteOnEvent(tick=0, channel=7, data=[72, 116]),
   midi.ControlChangeEvent(tick=100, channel=7, data=[7, 120]),
   midi.ControlChangeEvent(tick=25, channel=7, data=[7, 120]),
   midi.ControlChangeEvent(tick=25, channel=7, data=[7, 120]),
   midi.NoteOnEvent(tick=10, channel=7, data=[72, 0]),
   midi.NoteOnEvent(tick=0, channel=7, data=[60, 0]),
   midi.ControlChangeEvent(tick=0, channel=7, data=[7, 119]),
   midi.ControlChangeEvent(tick=15, channel=7, data=[7, 118]),
   midi.ControlChangeEvent(tick=10, channel=7, data=[7, 118]),
   midi.ControlChangeEvent(tick=15, channel=7, data=[7, 116]),
   midi.NoteOnEvent(tick=40, channel=7, data=[60, 107]),
   midi.NoteOnEvent(tick=0, channel=7, data=[72, 116]),
   midi.ControlChangeEvent(tick=20, channel=7, data=[7, 116]),
   midi.ControlChangeEvent(tick=20, channel=7, data=[7, 116]),
   midi.ControlChangeEvent(tick=15, channel=7, data=[7, 116]),
   midi.ControlChangeEvent(tick=10, channel=7, data=[7, 115]),
   midi.ControlChangeEvent(tick=20, channel=7, data=[7, 115]),
   midi.ControlChangeEvent(tick=15, channel=7, data=[7, 114]),
   midi.ControlChangeEvent(tick=25, channel=7, data=[7, 112]),
   midi.ControlChangeEvent(tick=10, channel=7, data=[7, 112]),
   midi.ControlChangeEvent(tick=10, channel=7, data=[7, 111]),
   midi.NoteOnEvent(tick=10, channel=7, data=[72, 0]),
   midi.NoteOnEvent(tick=0, channel=7, data=[60, 0]),
   midi.ControlChangeEvent(tick=5, channel=7, data=[7, 110]),
   midi.ControlChangeEvent(tick=20, channel=7, data=[7, 110]),
   midi.ControlChangeEvent(tick=20, channel=7, data=[7, 109]),
   midi.ControlChangeEvent(tick=20, channel=7, data=[7, 109]),
   midi.ControlChangeEvent(tick=20, channel=7, data=[7, 109]),
   midi.NoteOnEvent(tick=0, channel=7, data=[72, 116]),
   midi.NoteOnEvent(tick=0, channel=7, data=[60, 107]),
   midi.ControlChangeEvent(tick=15, channel=7, data=[7, 108]),
   midi.ControlChangeEvent(tick=35, channel=7, data=[7, 107]),
   midi.ControlChangeEvent(tick=30, channel=7, data=[7, 106]),
   midi.ControlChangeEvent(tick=25, channel=7, data=[7, 105]),
   midi.NoteOnEvent(tick=45, channel=7, data=[60, 0]),
   midi.NoteOnEvent(tick=0, channel=7, data=[72, 0]),
   midi.ControlChangeEvent(tick=1435, channel=7, data=[64, 0]),
   midi.ControlChangeEvent(tick=0, channel=7, data=[120, 0]),
   midi.EndOfTrackEvent(tick=0, data=[])]),
 midi.Track(\
  [midi.PortEvent(tick=0, data=[0]),
   midi.ProgramChangeEvent(tick=0, channel=8, data=[57]),
   midi.ControlChangeEvent(tick=0, channel=8, data=[7, 90]),
   midi.ControlChangeEvent(tick=0, channel=8, data=[10, 80]),
   midi.ControlChangeEvent(tick=4, channel=8, data=[64, 0]),
   midi.ControlChangeEvent(tick=0, channel=8, data=[91, 102]),
   midi.NoteOnEvent(tick=600, channel=8, data=[45, 126]),
   midi.NoteOnEvent(tick=0, channel=8, data=[52, 102]),
   midi.NoteOnEvent(tick=30, channel=8, data=[52, 0]),
   midi.NoteOnEvent(tick=20, channel=8, data=[45, 0]),
   midi.ControlChangeEvent(tick=23470, channel=8, data=[7, 90]),
   midi.NoteOnEvent(tick=0, channel=8, data=[48, 86]),
   midi.NoteOnEvent(tick=0, channel=8, data=[60, 76]),
   midi.NoteOnEvent(tick=0, channel=8, data=[55, 86]),
   midi.ControlChangeEvent(tick=145, channel=8, data=[7, 101]),
   midi.ControlChangeEvent(tick=15, channel=8, data=[7, 101]),
   midi.ControlChangeEvent(tick=10, channel=8, data=[7, 101]),
   midi.ControlChangeEvent(tick=10, channel=8, data=[7, 100]),
   midi.ControlChangeEvent(tick=10, channel=8, data=[7, 99]),
   midi.ControlChangeEvent(tick=10, channel=8, data=[7, 99]),
   midi.ControlChangeEvent(tick=10, channel=8, data=[7, 99]),
   midi.ControlChangeEvent(tick=15, channel=8, data=[7, 98]),
   midi.ControlChangeEvent(tick=10, channel=8, data=[7, 98]),
   midi.NoteOnEvent(tick=5, channel=8, data=[55, 0]),
   midi.NoteOnEvent(tick=0, channel=8, data=[57, 86]),
   midi.ControlChangeEvent(tick=5, channel=8, data=[7, 96]),
   midi.ControlChangeEvent(tick=10, channel=8, data=[7, 96]),
   midi.ControlChangeEvent(tick=10, channel=8, data=[7, 96]),
   midi.ControlChangeEvent(tick=60, channel=8, data=[7, 96]),
   midi.ControlChangeEvent(tick=10, channel=8, data=[7, 94]),
   midi.ControlChangeEvent(tick=10, channel=8, data=[7, 94]),
   midi.NoteOnEvent(tick=15, channel=8, data=[57, 0]),
   midi.NoteOnEvent(tick=0, channel=8, data=[56, 86]),
   midi.ControlChangeEvent(tick=5, channel=8, data=[7, 94]),
   midi.NoteOnEvent(tick=115, channel=8, data=[56, 0]),
   midi.NoteOnEvent(tick=0, channel=8, data=[55, 81]),
   midi.NoteOnEvent(tick=240, channel=8, data=[55, 0]),
   midi.NoteOnEvent(tick=0, channel=8, data=[60, 0]),
   midi.NoteOnEvent(tick=0, channel=8, data=[48, 0]),
   midi.ControlChangeEvent(tick=95, channel=8, data=[7, 94]),
   midi.ControlChangeEvent(tick=20, channel=8, data=[7, 94]),
   midi.ControlChangeEvent(tick=20, channel=8, data=[7, 96]),
   midi.ControlChangeEvent(tick=35, channel=8, data=[7, 96]),
   midi.NoteOnEvent(tick=70, channel=8, data=[48, 81]),
   midi.NoteOnEvent(tick=0, channel=8, data=[55, 81]),
   midi.NoteOnEvent(tick=0, channel=8, data=[60, 81]),
   midi.NoteOnEvent(tick=120, channel=8, data=[60, 0]),
   midi.NoteOnEvent(tick=0, channel=8, data=[48, 0]),
   midi.NoteOnEvent(tick=0, channel=8, data=[50, 81]),
   midi.NoteOnEvent(tick=0, channel=8, data=[58, 81]),
   midi.NoteOnEvent(tick=120, channel=8, data=[58, 0]),
   midi.NoteOnEvent(tick=0, channel=8, data=[50, 0]),
   midi.NoteOnEvent(tick=0, channel=8, data=[51, 81]),
   midi.NoteOnEvent(tick=0, channel=8, data=[61, 81]),
   midi.NoteOnEvent(tick=240, channel=8, data=[61, 0]),
   midi.NoteOnEvent(tick=0, channel=8, data=[51, 0]),
   midi.NoteOnEvent(tick=0, channel=8, data=[55, 0]),
   midi.NoteOnEvent(tick=0, channel=8, data=[44, 79]),
   midi.NoteOnEvent(tick=0, channel=8, data=[51, 79]),
   midi.NoteOnEvent(tick=0, channel=8, data=[60, 79]),
   midi.NoteOnEvent(tick=240, channel=8, data=[60, 0]),
   midi.NoteOnEvent(tick=0, channel=8, data=[51, 0]),
   midi.NoteOnEvent(tick=0, channel=8, data=[44, 0]),
   midi.ControlChangeEvent(tick=9840, channel=8, data=[7, 96]),
   midi.NoteOnEvent(tick=0, channel=8, data=[48, 107]),
   midi.NoteOnEvent(tick=0, channel=8, data=[64, 97]),
   midi.NoteOnEvent(tick=195, channel=8, data=[64, 0]),
   midi.NoteOnEvent(tick=0, channel=8, data=[48, 0]),
   midi.NoteOnEvent(tick=45, channel=8, data=[48, 107]),
   midi.NoteOnEvent(tick=0, channel=8, data=[65, 97]),
   midi.NoteOnEvent(tick=0, channel=8, data=[55, 102]),
   midi.NoteOnEvent(tick=195, channel=8, data=[55, 0]),
   midi.NoteOnEvent(tick=0, channel=8, data=[65, 0]),
   midi.NoteOnEvent(tick=0, channel=8, data=[48, 0]),
   midi.NoteOnEvent(tick=45, channel=8, data=[48, 107]),
   midi.NoteOnEvent(tick=0, channel=8, data=[64, 97]),
   midi.NoteOnEvent(tick=0, channel=8, data=[55, 102]),
   midi.NoteOnEvent(tick=40, channel=8, data=[55, 0]),
   midi.NoteOnEvent(tick=0, channel=8, data=[64, 0]),
   midi.NoteOnEvent(tick=0, channel=8, data=[48, 0]),
   midi.NoteOnEvent(tick=80, channel=8, data=[55, 102]),
   midi.NoteOnEvent(tick=0, channel=8, data=[65, 97]),
   midi.NoteOnEvent(tick=0, channel=8, data=[48, 107]),
   midi.NoteOnEvent(tick=40, channel=8, data=[48, 0]),
   midi.NoteOnEvent(tick=0, channel=8, data=[65, 0]),
   midi.NoteOnEvent(tick=0, channel=8, data=[55, 0]),
   midi.NoteOnEvent(tick=80, channel=8, data=[48, 107]),
   midi.NoteOnEvent(tick=0, channel=8, data=[55, 102]),
   midi.NoteOnEvent(tick=0, channel=8, data=[64, 97]),
   midi.NoteOnEvent(tick=40, channel=8, data=[64, 0]),
   midi.NoteOnEvent(tick=0, channel=8, data=[55, 0]),
   midi.NoteOnEvent(tick=0, channel=8, data=[48, 0]),
   midi.NoteOnEvent(tick=80, channel=8, data=[48, 107]),
   midi.NoteOnEvent(tick=0, channel=8, data=[55, 102]),
   midi.NoteOnEvent(tick=0, channel=8, data=[65, 97]),
   midi.NoteOnEvent(tick=40, channel=8, data=[65, 0]),
   midi.NoteOnEvent(tick=0, channel=8, data=[55, 0]),
   midi.NoteOnEvent(tick=0, channel=8, data=[48, 0]),
   midi.NoteOnEvent(tick=80, channel=8, data=[64, 97]),
   midi.NoteOnEvent(tick=0, channel=8, data=[55, 102]),
   midi.NoteOnEvent(tick=0, channel=8, data=[48, 107]),
   midi.NoteOnEvent(tick=40, channel=8, data=[48, 0]),
   midi.NoteOnEvent(tick=0, channel=8, data=[55, 0]),
   midi.NoteOnEvent(tick=0, channel=8, data=[64, 0]),
   midi.NoteOnEvent(tick=920, channel=8, data=[50, 107]),
   midi.NoteOnEvent(tick=0, channel=8, data=[57, 102]),
   midi.NoteOnEvent(tick=0, channel=8, data=[65, 97]),
   midi.NoteOnEvent(tick=195, channel=8, data=[65, 0]),
   midi.NoteOnEvent(tick=0, channel=8, data=[57, 0]),
   midi.NoteOnEvent(tick=0, channel=8, data=[50, 0]),
   midi.NoteOnEvent(tick=45, channel=8, data=[57, 102]),
   midi.NoteOnEvent(tick=0, channel=8, data=[67, 97]),
   midi.NoteOnEvent(tick=0, channel=8, data=[50, 107]),
   midi.NoteOnEvent(tick=195, channel=8, data=[50, 0]),
   midi.NoteOnEvent(tick=0, channel=8, data=[67, 0]),
   midi.NoteOnEvent(tick=0, channel=8, data=[57, 0]),
   midi.NoteOnEvent(tick=45, channel=8, data=[65, 97]),
   midi.NoteOnEvent(tick=0, channel=8, data=[57, 102]),
   midi.NoteOnEvent(tick=0, channel=8, data=[50, 107]),
   midi.NoteOnEvent(tick=40, channel=8, data=[50, 0]),
   midi.NoteOnEvent(tick=0, channel=8, data=[57, 0]),
   midi.NoteOnEvent(tick=0, channel=8, data=[65, 0]),
   midi.ControlChangeEvent(tick=25, channel=8, data=[7, 102]),
   midi.ControlChangeEvent(tick=40, channel=8, data=[7, 102]),
   midi.NoteOnEvent(tick=15, channel=8, data=[50, 107]),
   midi.NoteOnEvent(tick=0, channel=8, data=[57, 102]),
   midi.NoteOnEvent(tick=0, channel=8, data=[67, 97]),
   midi.ControlChangeEvent(tick=10, channel=8, data=[7, 103]),
   midi.ControlChangeEvent(tick=25, channel=8, data=[7, 104]),
   midi.NoteOnEvent(tick=5, channel=8, data=[67, 0]),
   midi.NoteOnEvent(tick=0, channel=8, data=[57, 0]),
   midi.NoteOnEvent(tick=0, channel=8, data=[50, 0]),
   midi.NoteOnEvent(tick=80, channel=8, data=[50, 107]),
   midi.NoteOnEvent(tick=0, channel=8, data=[57, 102]),
   midi.NoteOnEvent(tick=0, channel=8, data=[65, 97]),
   midi.NoteOnEvent(tick=40, channel=8, data=[65, 0]),
   midi.NoteOnEvent(tick=0, channel=8, data=[57, 0]),
   midi.NoteOnEvent(tick=0, channel=8, data=[50, 0]),
   midi.NoteOnEvent(tick=80, channel=8, data=[50, 107]),
   midi.NoteOnEvent(tick=0, channel=8, data=[57, 102]),
   midi.NoteOnEvent(tick=0, channel=8, data=[67, 97]),
   midi.NoteOnEvent(tick=40, channel=8, data=[67, 0]),
   midi.NoteOnEvent(tick=0, channel=8, data=[57, 0]),
   midi.NoteOnEvent(tick=0, channel=8, data=[50, 0]),
   midi.NoteOnEvent(tick=80, channel=8, data=[65, 97]),
   midi.NoteOnEvent(tick=0, channel=8, data=[57, 102]),
   midi.NoteOnEvent(tick=0, channel=8, data=[50, 107]),
   midi.NoteOnEvent(tick=40, channel=8, data=[50, 0]),
   midi.NoteOnEvent(tick=0, channel=8, data=[57, 0]),
   midi.NoteOnEvent(tick=0, channel=8, data=[65, 0]),
   midi.ControlChangeEvent(tick=740, channel=8, data=[7, 103]),
   midi.ControlChangeEvent(tick=15, channel=8, data=[7, 102]),
   midi.ControlChangeEvent(tick=10, channel=8, data=[7, 101]),
   midi.ControlChangeEvent(tick=15, channel=8, data=[7, 101]),
   midi.ControlChangeEvent(tick=10, channel=8, data=[7, 101]),
   midi.ControlChangeEvent(tick=15, channel=8, data=[7, 99]),
   midi.ControlChangeEvent(tick=15, channel=8, data=[7, 99]),
   midi.ControlChangeEvent(tick=10, channel=8, data=[7, 98]),
   midi.ControlChangeEvent(tick=15, channel=8, data=[7, 96]),
   midi.ControlChangeEvent(tick=10, channel=8, data=[7, 96]),
   midi.ControlChangeEvent(tick=15, channel=8, data=[7, 94]),
   midi.ControlChangeEvent(tick=15, channel=8, data=[7, 93]),
   midi.ControlChangeEvent(tick=10, channel=8, data=[7, 92]),
   midi.ControlChangeEvent(tick=15, channel=8, data=[7, 92]),
   midi.ControlChangeEvent(tick=15, channel=8, data=[7, 90]),
   midi.ControlChangeEvent(tick=10, channel=8, data=[7, 90]),
   midi.ControlChangeEvent(tick=20, channel=8, data=[7, 89]),
   midi.ControlChangeEvent(tick=20, channel=8, data=[7, 89]),
   midi.ControlChangeEvent(tick=25, channel=8, data=[7, 88]),
   midi.ControlChangeEvent(tick=80, channel=8, data=[7, 87]),
   midi.ControlChangeEvent(tick=35, channel=8, data=[7, 87]),
   midi.ControlChangeEvent(tick=80, channel=8, data=[7, 86]),
   midi.ControlChangeEvent(tick=165, channel=8, data=[7, 85]),
   midi.ControlChangeEvent(tick=15, channel=8, data=[7, 84]),
   midi.NoteOnEvent(tick=745, channel=8, data=[65, 112]),
   midi.NoteOnEvent(tick=0, channel=8, data=[60, 118]),
   midi.NoteOnEvent(tick=0, channel=8, data=[57, 123]),
   midi.NoteOnEvent(tick=45, channel=8, data=[57, 0]),
   midi.NoteOnEvent(tick=0, channel=8, data=[60, 0]),
   midi.NoteOnEvent(tick=0, channel=8, data=[65, 0]),
   midi.NoteOnEvent(tick=435, channel=8, data=[65, 112]),
   midi.NoteOnEvent(tick=0, channel=8, data=[60, 118]),
   midi.NoteOnEvent(tick=0, channel=8, data=[57, 123]),
   midi.NoteOnEvent(tick=45, channel=8, data=[57, 0]),
   midi.NoteOnEvent(tick=0, channel=8, data=[60, 0]),
   midi.NoteOnEvent(tick=0, channel=8, data=[65, 0]),
   midi.ControlChangeEvent(tick=150, channel=8, data=[7, 83]),
   midi.ControlChangeEvent(tick=75, channel=8, data=[7, 84]),
   midi.ControlChangeEvent(tick=15, channel=8, data=[7, 85]),
   midi.ControlChangeEvent(tick=10, channel=8, data=[7, 87]),
   midi.ControlChangeEvent(tick=15, channel=8, data=[7, 87]),
   midi.ControlChangeEvent(tick=45, channel=8, data=[7, 88]),
   midi.NoteOnEvent(tick=5, channel=8, data=[65, 107]),
   midi.NoteOnEvent(tick=0, channel=8, data=[60, 112]),
   midi.NoteOnEvent(tick=0, channel=8, data=[57, 118]),
   midi.NoteOnEvent(tick=45, channel=8, data=[57, 0]),
   midi.NoteOnEvent(tick=0, channel=8, data=[60, 0]),
   midi.NoteOnEvent(tick=0, channel=8, data=[65, 0]),
   midi.NoteOnEvent(tick=195, channel=8, data=[55, 118]),
   midi.NoteOnEvent(tick=0, channel=8, data=[60, 112]),
   midi.NoteOnEvent(tick=0, channel=8, data=[64, 107]),
   midi.NoteOnEvent(tick=45, channel=8, data=[64, 0]),
   midi.NoteOnEvent(tick=0, channel=8, data=[60, 0]),
   midi.NoteOnEvent(tick=0, channel=8, data=[55, 0]),
   midi.NoteOnEvent(tick=195, channel=8, data=[54, 118]),
   midi.NoteOnEvent(tick=0, channel=8, data=[60, 112]),
   midi.NoteOnEvent(tick=0, channel=8, data=[63, 107]),
   midi.NoteOnEvent(tick=45, channel=8, data=[63, 0]),
   midi.NoteOnEvent(tick=0, channel=8, data=[60, 0]),
   midi.NoteOnEvent(tick=0, channel=8, data=[54, 0]),
   midi.ControlChangeEvent(tick=55, channel=8, data=[7, 87]),
   midi.ControlChangeEvent(tick=20, channel=8, data=[7, 87]),
   midi.ControlChangeEvent(tick=20, channel=8, data=[7, 86]),
   midi.ControlChangeEvent(tick=20, channel=8, data=[7, 85]),
   midi.ControlChangeEvent(tick=25, channel=8, data=[7, 84]),
   midi.ControlChangeEvent(tick=25, channel=8, data=[7, 83]),
   midi.NoteOnEvent(tick=30, channel=8, data=[64, 107]),
   midi.NoteOnEvent(tick=0, channel=8, data=[60, 112]),
   midi.NoteOnEvent(tick=0, channel=8, data=[55, 118]),
   midi.NoteOnEvent(tick=45, channel=8, data=[55, 0]),
   midi.NoteOnEvent(tick=0, channel=8, data=[60, 0]),
   midi.NoteOnEvent(tick=0, channel=8, data=[64, 0]),
   midi.ControlChangeEvent(tick=1420, channel=8, data=[64, 0]),
   midi.ControlChangeEvent(tick=0, channel=8, data=[120, 0]),
   midi.EndOfTrackEvent(tick=0, data=[])]),
 midi.Track(\
  [midi.PortEvent(tick=0, data=[0]),
   midi.ProgramChangeEvent(tick=0, channel=10, data=[55]),
   midi.ControlChangeEvent(tick=0, channel=10, data=[7, 116]),
   midi.ControlChangeEvent(tick=4, channel=10, data=[64, 0]),
   midi.ControlChangeEvent(tick=0, channel=10, data=[91, 112]),
   midi.ControlChangeEvent(tick=350, channel=10, data=[7, 116]),
   midi.ControlChangeEvent(tick=20, channel=10, data=[7, 118]),
   midi.ControlChangeEvent(tick=40, channel=10, data=[7, 118]),
   midi.ControlChangeEvent(tick=25, channel=10, data=[7, 119]),
   midi.ControlChangeEvent(tick=35, channel=10, data=[7, 120]),
   midi.ControlChangeEvent(tick=10, channel=10, data=[7, 120]),
   midi.NoteOnEvent(tick=120, channel=10, data=[60, 112]),
   midi.NoteOnEvent(tick=0, channel=10, data=[57, 112]),
   midi.NoteOnEvent(tick=0, channel=10, data=[69, 118]),
   midi.NoteOnEvent(tick=0, channel=10, data=[64, 112]),
   midi.NoteOnEvent(tick=0, channel=10, data=[81, 118]),
   midi.NoteOnEvent(tick=15, channel=10, data=[81, 0]),
   midi.NoteOnEvent(tick=0, channel=10, data=[69, 0]),
   midi.NoteOnEvent(tick=0, channel=10, data=[60, 0]),
   midi.NoteOnEvent(tick=0, channel=10, data=[57, 0]),
   midi.NoteOnEvent(tick=0, channel=10, data=[64, 0]),
   midi.ControlChangeEvent(tick=40, channel=10, data=[7, 120]),
   midi.ControlChangeEvent(tick=30, channel=10, data=[7, 119]),
   midi.ControlChangeEvent(tick=25, channel=10, data=[7, 118]),
   midi.ControlChangeEvent(tick=20, channel=10, data=[7, 118]),
   midi.ProgramChangeEvent(tick=350, channel=10, data=[45]),
   midi.ControlChangeEvent(tick=12480, channel=10, data=[7, 108]),
   midi.NoteOnEvent(tick=0, channel=10, data=[40, 81]),
   midi.NoteOnEvent(tick=15, channel=10, data=[40, 0]),
   midi.NoteOnEvent(tick=105, channel=10, data=[38, 83]),
   midi.NoteOnEvent(tick=15, channel=10, data=[38, 0]),
   midi.NoteOnEvent(tick=105, channel=10, data=[32, 85]),
   midi.NoteOnEvent(tick=15, channel=10, data=[32, 0]),
   midi.NoteOnEvent(tick=225, channel=10, data=[45, 90]),
   midi.NoteOnEvent(tick=15, channel=10, data=[45, 0]),
   midi.ControlChangeEvent(tick=45, channel=10, data=[7, 109]),
   midi.ControlChangeEvent(tick=10, channel=10, data=[7, 109]),
   midi.ControlChangeEvent(tick=10, channel=10, data=[7, 110]),
   midi.ControlChangeEvent(tick=15, channel=10, data=[7, 110]),
   midi.NoteOnEvent(tick=25, channel=10, data=[43, 92]),
   midi.NoteOnEvent(tick=15, channel=10, data=[43, 0]),
   midi.ControlChangeEvent(tick=0, channel=10, data=[7, 111]),
   midi.ControlChangeEvent(tick=45, channel=10, data=[7, 112]),
   midi.NoteOnEvent(tick=60, channel=10, data=[37, 95]),
   midi.NoteOnEvent(tick=15, channel=10, data=[37, 0]),
   midi.ControlChangeEvent(tick=30, channel=10, data=[7, 111]),
   midi.ControlChangeEvent(tick=10, channel=10, data=[7, 110]),
   midi.ControlChangeEvent(tick=10, channel=10, data=[7, 110]),
   midi.ControlChangeEvent(tick=5, channel=10, data=[7, 109]),
   midi.ControlChangeEvent(tick=10, channel=10, data=[7, 109]),
   midi.ControlChangeEvent(tick=5, channel=10, data=[7, 108]),
   midi.ControlChangeEvent(tick=10, channel=10, data=[7, 106]),
   midi.ControlChangeEvent(tick=5, channel=10, data=[7, 105]),
   midi.ControlChangeEvent(tick=15, channel=10, data=[7, 103]),
   midi.ControlChangeEvent(tick=15, channel=10, data=[7, 102]),
   midi.ControlChangeEvent(tick=85, channel=10, data=[7, 102]),
   midi.NoteOnEvent(tick=25, channel=10, data=[50, 101]),
   midi.NoteOnEvent(tick=15, channel=10, data=[50, 0]),
   midi.ControlChangeEvent(tick=5, channel=10, data=[7, 101]),
   midi.ControlChangeEvent(tick=50, channel=10, data=[7, 101]),
   midi.ControlChangeEvent(tick=20, channel=10, data=[7, 101]),
   midi.NoteOnEvent(tick=30, channel=10, data=[45, 93]),
   midi.NoteOnEvent(tick=15, channel=10, data=[45, 0]),
   midi.ControlChangeEvent(tick=80, channel=10, data=[7, 101]),
   midi.ControlChangeEvent(tick=5, channel=10, data=[7, 101]),
   midi.NoteOnEvent(tick=20, channel=10, data=[38, 86]),
   midi.ControlChangeEvent(tick=5, channel=10, data=[7, 102]),
   midi.NoteOnEvent(tick=10, channel=10, data=[38, 0]),
   midi.ControlChangeEvent(tick=5, channel=10, data=[7, 102]),
   midi.ControlChangeEvent(tick=65, channel=10, data=[7, 103]),
   midi.ControlChangeEvent(tick=4475, channel=10, data=[7, 83]),
   midi.NoteOnEvent(tick=300, channel=10, data=[62, 97]),
   midi.NoteOnEvent(tick=15, channel=10, data=[62, 0]),
   midi.NoteOnEvent(tick=45, channel=10, data=[55, 97]),
   midi.NoteOnEvent(tick=0, channel=10, data=[62, 97]),
   midi.NoteOnEvent(tick=15, channel=10, data=[62, 0]),
   midi.NoteOnEvent(tick=0, channel=10, data=[55, 0]),
   midi.ControlChangeEvent(tick=5, channel=10, data=[7, 83]),
   midi.ControlChangeEvent(tick=25, channel=10, data=[7, 83]),
   midi.NoteOnEvent(tick=15, channel=10, data=[62, 97]),
   midi.ControlChangeEvent(tick=5, channel=10, data=[7, 83]),
   midi.NoteOnEvent(tick=10, channel=10, data=[62, 0]),
   midi.ControlChangeEvent(tick=35, channel=10, data=[7, 83]),
   midi.NoteOnEvent(tick=10, channel=10, data=[50, 97]),
   midi.NoteOnEvent(tick=0, channel=10, data=[65, 97]),
   midi.NoteOnEvent(tick=15, channel=10, data=[65, 0]),
   midi.NoteOnEvent(tick=0, channel=10, data=[50, 0]),
   midi.ControlChangeEvent(tick=250, channel=10, data=[7, 83]),
   midi.NoteOnEvent(tick=35, channel=10, data=[69, 97]),
   midi.NoteOnEvent(tick=0, channel=10, data=[71, 97]),
   midi.NoteOnEvent(tick=15, channel=10, data=[71, 0]),
   midi.NoteOnEvent(tick=0, channel=10, data=[69, 0]),
   midi.ControlChangeEvent(tick=35, channel=10, data=[7, 84]),
   midi.NoteOnEvent(tick=10, channel=10, data=[62, 97]),
   midi.NoteOnEvent(tick=0, channel=10, data=[71, 97]),
   midi.NoteOnEvent(tick=15, channel=10, data=[71, 0]),
   midi.NoteOnEvent(tick=0, channel=10, data=[62, 0]),
   midi.NoteOnEvent(tick=45, channel=10, data=[69, 97]),
   midi.NoteOnEvent(tick=0, channel=10, data=[71, 97]),
   midi.NoteOnEvent(tick=15, channel=10, data=[71, 0]),
   midi.NoteOnEvent(tick=0, channel=10, data=[69, 0]),
   midi.ControlChangeEvent(tick=0, channel=10, data=[7, 83]),
   midi.ControlChangeEvent(tick=40, channel=10, data=[7, 83]),
   midi.NoteOnEvent(tick=5, channel=10, data=[62, 97]),
   midi.NoteOnEvent(tick=0, channel=10, data=[71, 97]),
   midi.NoteOnEvent(tick=15, channel=10, data=[71, 0]),
   midi.NoteOnEvent(tick=0, channel=10, data=[62, 0]),
   midi.ControlChangeEvent(tick=0, channel=10, data=[7, 83]),
   midi.ControlChangeEvent(tick=10, channel=10, data=[7, 83]),
   midi.NoteOnEvent(tick=95, channel=10, data=[62, 97]),
   midi.NoteOnEvent(tick=0, channel=10, data=[71, 97]),
   midi.NoteOnEvent(tick=0, channel=10, data=[77, 97]),
   midi.NoteOnEvent(tick=0, channel=10, data=[81, 97]),
   midi.NoteOnEvent(tick=15, channel=10, data=[81, 0]),
   midi.NoteOnEvent(tick=0, channel=10, data=[62, 0]),
   midi.NoteOnEvent(tick=0, channel=10, data=[71, 0]),
   midi.NoteOnEvent(tick=0, channel=10, data=[77, 0]),
   midi.ControlChangeEvent(tick=495, channel=10, data=[7, 83]),
   midi.ControlChangeEvent(tick=35, channel=10, data=[7, 83]),
   midi.ControlChangeEvent(tick=21415, channel=10, data=[7, 83]),
   midi.NoteOnEvent(tick=240, channel=10, data=[45, 107]),
   midi.NoteOnEvent(tick=0, channel=10, data=[57, 97]),
   midi.NoteOnEvent(tick=0, channel=10, data=[60, 97]),
   midi.NoteOnEvent(tick=0, channel=10, data=[65, 97]),
   midi.NoteOnEvent(tick=15, channel=10, data=[65, 0]),
   midi.NoteOnEvent(tick=0, channel=10, data=[45, 0]),
   midi.NoteOnEvent(tick=0, channel=10, data=[57, 0]),
   midi.NoteOnEvent(tick=0, channel=10, data=[60, 0]),
   midi.ControlChangeEvent(tick=205, channel=10, data=[7, 83]),
   midi.NoteOnEvent(tick=20, channel=10, data=[47, 107]),
   midi.NoteOnEvent(tick=0, channel=10, data=[55, 97]),
   midi.NoteOnEvent(tick=0, channel=10, data=[59, 97]),
   midi.ControlChangeEvent(tick=10, channel=10, data=[7, 84]),
   midi.NoteOnEvent(tick=5, channel=10, data=[59, 0]),
   midi.NoteOnEvent(tick=0, channel=10, data=[55, 0]),
   midi.NoteOnEvent(tick=0, channel=10, data=[47, 0]),
   midi.ControlChangeEvent(tick=10, channel=10, data=[7, 85]),
   midi.ControlChangeEvent(tick=85, channel=10, data=[7, 84]),
   midi.ControlChangeEvent(tick=25, channel=10, data=[7, 83]),
   midi.ControlChangeEvent(tick=20, channel=10, data=[7, 83]),
   midi.ControlChangeEvent(tick=35, channel=10, data=[7, 83]),
   midi.ControlChangeEvent(tick=15, channel=10, data=[7, 83]),
   midi.ControlChangeEvent(tick=10, channel=10, data=[7, 81]),
   midi.ControlChangeEvent(tick=15, channel=10, data=[7, 81]),
   midi.NoteOnEvent(tick=10, channel=10, data=[35, 107]),
   midi.NoteOnEvent(tick=0, channel=10, data=[47, 97]),
   midi.NoteOnEvent(tick=0, channel=10, data=[54, 97]),
   midi.NoteOnEvent(tick=0, channel=10, data=[57, 97]),
   midi.ControlChangeEvent(tick=0, channel=10, data=[7, 81]),
   midi.ControlChangeEvent(tick=5, channel=10, data=[7, 80]),
   midi.NoteOnEvent(tick=10, channel=10, data=[57, 0]),
   midi.NoteOnEvent(tick=0, channel=10, data=[35, 0]),
   midi.NoteOnEvent(tick=0, channel=10, data=[47, 0]),
   midi.NoteOnEvent(tick=0, channel=10, data=[54, 0]),
   midi.ControlChangeEvent(tick=0, channel=10, data=[7, 79]),
   midi.ControlChangeEvent(tick=30, channel=10, data=[7, 78]),
   midi.ControlChangeEvent(tick=10, channel=10, data=[7, 77]),
   midi.ControlChangeEvent(tick=5, channel=10, data=[7, 76]),
   midi.ControlChangeEvent(tick=15, channel=10, data=[7, 76]),
   midi.ControlChangeEvent(tick=25, channel=10, data=[7, 75]),
   midi.ControlChangeEvent(tick=10, channel=10, data=[7, 75]),
   midi.ControlChangeEvent(tick=20, channel=10, data=[7, 74]),
   midi.ControlChangeEvent(tick=30, channel=10, data=[7, 73]),
   midi.NoteOnEvent(tick=80, channel=10, data=[40, 107]),
   midi.NoteOnEvent(tick=0, channel=10, data=[52, 97]),
   midi.NoteOnEvent(tick=15, channel=10, data=[52, 0]),
   midi.NoteOnEvent(tick=0, channel=10, data=[40, 0]),
   midi.ControlChangeEvent(tick=10, channel=10, data=[7, 74]),
   midi.ControlChangeEvent(tick=5, channel=10, data=[7, 75]),
   midi.ControlChangeEvent(tick=25, channel=10, data=[7, 75]),
   midi.ControlChangeEvent(tick=5, channel=10, data=[7, 76]),
   midi.ControlChangeEvent(tick=325, channel=10, data=[64, 0]),
   midi.ControlChangeEvent(tick=0, channel=10, data=[120, 0]),
   midi.ControlChangeEvent(tick=0, channel=10, data=[7, 119]),
   midi.ProgramChangeEvent(tick=0, channel=10, data=[32]),
   midi.ControlChangeEvent(tick=0, channel=10, data=[64, 0]),
   midi.ControlChangeEvent(tick=0, channel=10, data=[91, 75]),
   midi.ProgramChangeEvent(tick=0, channel=10, data=[33]),
   midi.ControlChangeEvent(tick=0, channel=10, data=[91, 64]),
   midi.EndOfTrackEvent(tick=0, data=[])]),
 midi.Track(\
  [midi.PortEvent(tick=0, data=[0]),
   midi.ProgramChangeEvent(tick=0, channel=11, data=[47]),
   midi.ControlChangeEvent(tick=0, channel=11, data=[7, 120]),
   midi.ControlChangeEvent(tick=0, channel=11, data=[10, 45]),
   midi.ControlChangeEvent(tick=4, channel=11, data=[64, 0]),
   midi.ControlChangeEvent(tick=0, channel=11, data=[91, 112]),
   midi.NoteOnEvent(tick=120, channel=11, data=[45, 62]),
   midi.NoteOnEvent(tick=5, channel=11, data=[45, 0]),
   midi.NoteOnEvent(tick=5, channel=11, data=[45, 62]),
   midi.NoteOnEvent(tick=5, channel=11, data=[45, 0]),
   midi.NoteOnEvent(tick=10, channel=11, data=[45, 62]),
   midi.NoteOnEvent(tick=5, channel=11, data=[45, 0]),
   midi.NoteOnEvent(tick=5, channel=11, data=[45, 63]),
   midi.NoteOnEvent(tick=5, channel=11, data=[45, 0]),
   midi.NoteOnEvent(tick=10, channel=11, data=[45, 64]),
   midi.NoteOnEvent(tick=5, channel=11, data=[45, 0]),
   midi.NoteOnEvent(tick=5, channel=11, data=[45, 65]),
   midi.NoteOnEvent(tick=5, channel=11, data=[45, 0]),
   midi.NoteOnEvent(tick=10, channel=11, data=[45, 64]),
   midi.NoteOnEvent(tick=5, channel=11, data=[45, 0]),
   midi.NoteOnEvent(tick=5, channel=11, data=[45, 65]),
   midi.NoteOnEvent(tick=5, channel=11, data=[45, 0]),
   midi.NoteOnEvent(tick=10, channel=11, data=[45, 65]),
   midi.NoteOnEvent(tick=5, channel=11, data=[45, 0]),
   midi.NoteOnEvent(tick=5, channel=11, data=[45, 65]),
   midi.NoteOnEvent(tick=5, channel=11, data=[45, 0]),
   midi.NoteOnEvent(tick=10, channel=11, data=[45, 65]),
   midi.NoteOnEvent(tick=5, channel=11, data=[45, 0]),
   midi.NoteOnEvent(tick=5, channel=11, data=[45, 67]),
   midi.NoteOnEvent(tick=5, channel=11, data=[45, 0]),
   midi.NoteOnEvent(tick=10, channel=11, data=[45, 69]),
   midi.NoteOnEvent(tick=5, channel=11, data=[45, 0]),
   midi.NoteOnEvent(tick=5, channel=11, data=[45, 70]),
   midi.NoteOnEvent(tick=5, channel=11, data=[45, 0]),
   midi.NoteOnEvent(tick=10, channel=11, data=[45, 70]),
   midi.NoteOnEvent(tick=5, channel=11, data=[45, 0]),
   midi.NoteOnEvent(tick=5, channel=11, data=[45, 69]),
   midi.NoteOnEvent(tick=5, channel=11, data=[45, 0]),
   midi.NoteOnEvent(tick=10, channel=11, data=[45, 71]),
   midi.NoteOnEvent(tick=5, channel=11, data=[45, 0]),
   midi.NoteOnEvent(tick=5, channel=11, data=[45, 71]),
   midi.NoteOnEvent(tick=5, channel=11, data=[45, 0]),
   midi.NoteOnEvent(tick=10, channel=11, data=[45, 76]),
   midi.NoteOnEvent(tick=5, channel=11, data=[45, 0]),
   midi.NoteOnEvent(tick=5, channel=11, data=[45, 76]),
   midi.NoteOnEvent(tick=5, channel=11, data=[45, 0]),
   midi.NoteOnEvent(tick=10, channel=11, data=[45, 78]),
   midi.NoteOnEvent(tick=5, channel=11, data=[45, 0]),
   midi.NoteOnEvent(tick=5, channel=11, data=[45, 79]),
   midi.NoteOnEvent(tick=5, channel=11, data=[45, 0]),
   midi.NoteOnEvent(tick=10, channel=11, data=[45, 80]),
   midi.NoteOnEvent(tick=5, channel=11, data=[45, 0]),
   midi.NoteOnEvent(tick=5, channel=11, data=[45, 83]),
   midi.NoteOnEvent(tick=5, channel=11, data=[45, 0]),
   midi.NoteOnEvent(tick=10, channel=11, data=[45, 83]),
   midi.NoteOnEvent(tick=5, channel=11, data=[45, 0]),
   midi.NoteOnEvent(tick=5, channel=11, data=[45, 86]),
   midi.NoteOnEvent(tick=5, channel=11, data=[45, 0]),
   midi.NoteOnEvent(tick=10, channel=11, data=[45, 88]),
   midi.NoteOnEvent(tick=5, channel=11, data=[45, 0]),
   midi.NoteOnEvent(tick=5, channel=11, data=[45, 93]),
   midi.NoteOnEvent(tick=5, channel=11, data=[45, 0]),
   midi.NoteOnEvent(tick=10, channel=11, data=[45, 95]),
   midi.NoteOnEvent(tick=5, channel=11, data=[45, 0]),
   midi.NoteOnEvent(tick=5, channel=11, data=[45, 102]),
   midi.NoteOnEvent(tick=5, channel=11, data=[45, 0]),
   midi.NoteOnEvent(tick=10, channel=11, data=[45, 104]),
   midi.NoteOnEvent(tick=5, channel=11, data=[45, 0]),
   midi.NoteOnEvent(tick=5, channel=11, data=[45, 112]),
   midi.NoteOnEvent(tick=5, channel=11, data=[45, 0]),
   midi.NoteOnEvent(tick=10, channel=11, data=[45, 117]),
   midi.NoteOnEvent(tick=5, channel=11, data=[45, 0]),
   midi.NoteOnEvent(tick=5, channel=11, data=[45, 127]),
   midi.NoteOnEvent(tick=5, channel=11, data=[45, 0]),
   midi.NoteOnEvent(tick=10, channel=11, data=[45, 127]),
   midi.NoteOnEvent(tick=5, channel=11, data=[45, 0]),
   midi.NoteOnEvent(tick=5, channel=11, data=[45, 127]),
   midi.NoteOnEvent(tick=5, channel=11, data=[45, 0]),
   midi.NoteOnEvent(tick=10, channel=11, data=[45, 127]),
   midi.NoteOnEvent(tick=5, channel=11, data=[45, 0]),
   midi.NoteOnEvent(tick=5, channel=11, data=[45, 127]),
   midi.NoteOnEvent(tick=5, channel=11, data=[45, 0]),
   midi.NoteOnEvent(tick=5, channel=11, data=[45, 127]),
   midi.NoteOnEvent(tick=5, channel=11, data=[45, 0]),
   midi.NoteOnEvent(tick=20, channel=11, data=[45, 127]),
   midi.NoteOnEvent(tick=5, channel=11, data=[45, 0]),
   midi.NoteOnEvent(tick=40060, channel=11, data=[45, 123]),
   midi.NoteOnEvent(tick=45, channel=11, data=[45, 0]),
   midi.NoteOnEvent(tick=435, channel=11, data=[45, 123]),
   midi.NoteOnEvent(tick=45, channel=11, data=[45, 0]),
   midi.NoteOnEvent(tick=315, channel=11, data=[45, 123]),
   midi.NoteOnEvent(tick=45, channel=11, data=[45, 0]),
   midi.NoteOnEvent(tick=195, channel=11, data=[45, 123]),
   midi.NoteOnEvent(tick=45, channel=11, data=[45, 0]),
   midi.NoteOnEvent(tick=195, channel=11, data=[45, 123]),
   midi.NoteOnEvent(tick=45, channel=11, data=[45, 0]),
   midi.NoteOnEvent(tick=195, channel=11, data=[45, 123]),
   midi.NoteOnEvent(tick=45, channel=11, data=[45, 0]),
   midi.ControlChangeEvent(tick=1420, channel=11, data=[64, 0]),
   midi.ControlChangeEvent(tick=0, channel=11, data=[120, 0]),
   midi.ControlChangeEvent(tick=0, channel=11, data=[7, 119]),
   midi.ProgramChangeEvent(tick=0, channel=11, data=[26]),
   midi.ControlChangeEvent(tick=0, channel=11, data=[64, 0]),
   midi.ControlChangeEvent(tick=0, channel=11, data=[91, 80]),
   midi.ControlChangeEvent(tick=0, channel=11, data=[64, 0]),
   midi.ControlChangeEvent(tick=0, channel=11, data=[91, 64]),
   midi.EndOfTrackEvent(tick=0, data=[])]),
 midi.Track(\
  [midi.PortEvent(tick=0, data=[0]),
   midi.ProgramChangeEvent(tick=0, channel=12, data=[48]),
   midi.ControlChangeEvent(tick=0, channel=12, data=[10, 55]),
   midi.ControlChangeEvent(tick=4, channel=12, data=[64, 0]),
   midi.ControlChangeEvent(tick=0, channel=12, data=[91, 105]),
   midi.ControlChangeEvent(tick=3480, channel=12, data=[7, 90]),
   midi.ControlChangeEvent(tick=215, channel=12, data=[7, 83]),
   midi.ControlChangeEvent(tick=520, channel=12, data=[7, 84]),
   midi.ControlChangeEvent(tick=30, channel=12, data=[7, 85]),
   midi.NoteOnEvent(tick=15, channel=12, data=[57, 94]),
   midi.ControlChangeEvent(tick=5, channel=12, data=[7, 86]),
   midi.NoteOnEvent(tick=10, channel=12, data=[57, 0]),
   midi.ControlChangeEvent(tick=10, channel=12, data=[7, 87]),
   midi.NoteOnEvent(tick=35, channel=12, data=[57, 94]),
   midi.NoteOnEvent(tick=15, channel=12, data=[57, 0]),
   midi.NoteOnEvent(tick=45, channel=12, data=[59, 94]),
   midi.NoteOnEvent(tick=15, channel=12, data=[59, 0]),
   midi.NoteOnEvent(tick=45, channel=12, data=[57, 94]),
   midi.ControlChangeEvent(tick=5, channel=12, data=[7, 86]),
   midi.ControlChangeEvent(tick=20, channel=12, data=[7, 85]),
   midi.NoteOnEvent(tick=25, channel=12, data=[57, 0]),
   midi.ControlChangeEvent(tick=15, channel=12, data=[7, 84]),
   midi.NoteOnEvent(tick=175, channel=12, data=[57, 94]),
   midi.NoteOnEvent(tick=40, channel=12, data=[57, 0]),
   midi.NoteOnEvent(tick=50, channel=12, data=[57, 94]),
   midi.NoteOnEvent(tick=20, channel=12, data=[57, 0]),
   midi.NoteOnEvent(tick=10, channel=12, data=[57, 94]),
   midi.ControlChangeEvent(tick=10, channel=12, data=[7, 85]),
   midi.NoteOnEvent(tick=10, channel=12, data=[57, 0]),
   midi.ControlChangeEvent(tick=10, channel=12, data=[7, 86]),
   midi.NoteOnEvent(tick=30, channel=12, data=[59, 94]),
   midi.ControlChangeEvent(tick=10, channel=12, data=[7, 87]),
   midi.NoteOnEvent(tick=10, channel=12, data=[59, 0]),
   midi.ControlChangeEvent(tick=25, channel=12, data=[7, 87]),
   midi.NoteOnEvent(tick=15, channel=12, data=[60, 94]),
   midi.ControlChangeEvent(tick=20, channel=12, data=[7, 88]),
   midi.ControlChangeEvent(tick=10, channel=12, data=[7, 89]),
   midi.ControlChangeEvent(tick=10, channel=12, data=[7, 90]),
   midi.NoteOnEvent(tick=10, channel=12, data=[60, 0]),
   midi.ControlChangeEvent(tick=0, channel=12, data=[7, 90]),
   midi.ControlChangeEvent(tick=15, channel=12, data=[7, 90]),
   midi.ControlChangeEvent(tick=15, channel=12, data=[7, 89]),
   midi.ControlChangeEvent(tick=15, channel=12, data=[7, 87]),
   midi.ControlChangeEvent(tick=15, channel=12, data=[7, 86]),
   midi.ControlChangeEvent(tick=15, channel=12, data=[7, 85]),
   midi.ControlChangeEvent(tick=10, channel=12, data=[7, 83]),
   midi.ControlChangeEvent(tick=115, channel=12, data=[7, 83]),
   midi.NoteOnEvent(tick=50, channel=12, data=[60, 94]),
   midi.ControlChangeEvent(tick=10, channel=12, data=[7, 83]),
   midi.NoteOnEvent(tick=5, channel=12, data=[60, 0]),
   midi.ControlChangeEvent(tick=20, channel=12, data=[7, 84]),
   midi.NoteOnEvent(tick=25, channel=12, data=[60, 94]),
   midi.ControlChangeEvent(tick=5, channel=12, data=[7, 85]),
   midi.NoteOnEvent(tick=10, channel=12, data=[60, 0]),
   midi.ControlChangeEvent(tick=0, channel=12, data=[7, 86]),
   midi.NoteOnEvent(tick=45, channel=12, data=[62, 94]),
   midi.ControlChangeEvent(tick=10, channel=12, data=[7, 87]),
   midi.NoteOnEvent(tick=5, channel=12, data=[62, 0]),
   midi.ControlChangeEvent(tick=35, channel=12, data=[7, 88]),
   midi.NoteOnEvent(tick=10, channel=12, data=[60, 94]),
   midi.ControlChangeEvent(tick=5, channel=12, data=[7, 89]),
   midi.ControlChangeEvent(tick=10, channel=12, data=[7, 90]),
   midi.ControlChangeEvent(tick=15, channel=12, data=[7, 92]),
   midi.ControlChangeEvent(tick=10, channel=12, data=[7, 94]),
   midi.NoteOnEvent(tick=10, channel=12, data=[60, 0]),
   midi.ControlChangeEvent(tick=5, channel=12, data=[7, 93]),
   midi.ControlChangeEvent(tick=15, channel=12, data=[7, 90]),
   midi.ControlChangeEvent(tick=15, channel=12, data=[7, 88]),
   midi.ControlChangeEvent(tick=15, channel=12, data=[7, 87]),
   midi.ControlChangeEvent(tick=15, channel=12, data=[7, 85]),
   midi.ControlChangeEvent(tick=10, channel=12, data=[7, 83]),
   midi.ControlChangeEvent(tick=15, channel=12, data=[7, 83]),
   midi.ControlChangeEvent(tick=20, channel=12, data=[7, 83]),
   midi.NoteOnEvent(tick=80, channel=12, data=[60, 94]),
   midi.ControlChangeEvent(tick=40, channel=12, data=[7, 83]),
   midi.NoteOnEvent(tick=10, channel=12, data=[60, 0]),
   midi.NoteOnEvent(tick=40, channel=12, data=[60, 94]),
   midi.NoteOnEvent(tick=20, channel=12, data=[60, 0]),
   midi.NoteOnEvent(tick=10, channel=12, data=[60, 94]),
   midi.ControlChangeEvent(tick=0, channel=12, data=[7, 83]),
   midi.NoteOnEvent(tick=20, channel=12, data=[60, 0]),
   midi.ControlChangeEvent(tick=10, channel=12, data=[7, 84]),
   midi.NoteOnEvent(tick=30, channel=12, data=[62, 94]),
   midi.NoteOnEvent(tick=20, channel=12, data=[62, 0]),
   midi.ControlChangeEvent(tick=20, channel=12, data=[7, 83]),
   midi.ControlChangeEvent(tick=15, channel=12, data=[7, 83]),
   midi.ControlChangeEvent(tick=10, channel=12, data=[7, 83]),
   midi.ControlChangeEvent(tick=10, channel=12, data=[7, 83]),
   midi.ControlChangeEvent(tick=15, channel=12, data=[7, 83]),
   midi.ControlChangeEvent(tick=25, channel=12, data=[7, 81]),
   midi.NoteOnEvent(tick=5, channel=12, data=[62, 89]),
   midi.NoteOnEvent(tick=25, channel=12, data=[62, 0]),
   midi.NoteOnEvent(tick=95, channel=12, data=[62, 89]),
   midi.ControlChangeEvent(tick=0, channel=12, data=[7, 83]),
   midi.ControlChangeEvent(tick=20, channel=12, data=[7, 83]),
   midi.NoteOnEvent(tick=5, channel=12, data=[62, 0]),
   midi.ControlChangeEvent(tick=30, channel=12, data=[7, 83]),
   midi.ControlChangeEvent(tick=25, channel=12, data=[7, 83]),
   midi.ControlChangeEvent(tick=35, channel=12, data=[7, 83]),
   midi.NoteOnEvent(tick=5, channel=12, data=[65, 89]),
   midi.ControlChangeEvent(tick=20, channel=12, data=[7, 84]),
   midi.NoteOnEvent(tick=5, channel=12, data=[65, 0]),
   midi.ControlChangeEvent(tick=40, channel=12, data=[7, 85]),
   midi.NoteOnEvent(tick=55, channel=12, data=[65, 89]),
   midi.NoteOnEvent(tick=25, channel=12, data=[65, 0]),
   midi.ControlChangeEvent(tick=0, channel=12, data=[7, 86]),
   midi.ControlChangeEvent(tick=35, channel=12, data=[7, 85]),
   midi.ControlChangeEvent(tick=15, channel=12, data=[7, 84]),
   midi.ControlChangeEvent(tick=15, channel=12, data=[7, 83]),
   midi.NoteOnEvent(tick=30, channel=12, data=[67, 89]),
   midi.ControlChangeEvent(tick=5, channel=12, data=[7, 84]),
   midi.ControlChangeEvent(tick=15, channel=12, data=[7, 85]),
   midi.NoteOnEvent(tick=5, channel=12, data=[67, 0]),
   midi.ControlChangeEvent(tick=30, channel=12, data=[7, 86]),
   midi.ControlChangeEvent(tick=20, channel=12, data=[7, 87]),
   midi.ControlChangeEvent(tick=25, channel=12, data=[7, 87]),
   midi.NoteOnEvent(tick=20, channel=12, data=[67, 89]),
   midi.ControlChangeEvent(tick=0, channel=12, data=[7, 88]),
   midi.ControlChangeEvent(tick=20, channel=12, data=[7, 89]),
   midi.NoteOnEvent(tick=5, channel=12, data=[67, 0]),
   midi.ControlChangeEvent(tick=15, channel=12, data=[7, 89]),
   midi.ControlChangeEvent(tick=20, channel=12, data=[7, 90]),
   midi.ControlChangeEvent(tick=20, channel=12, data=[7, 90]),
   midi.ControlChangeEvent(tick=15, channel=12, data=[7, 90]),
   midi.ControlChangeEvent(tick=15, channel=12, data=[7, 92]),
   midi.NoteOnEvent(tick=10, channel=12, data=[70, 89]),
   midi.ControlChangeEvent(tick=5, channel=12, data=[7, 92]),
   midi.ControlChangeEvent(tick=15, channel=12, data=[7, 93]),
   midi.NoteOnEvent(tick=5, channel=12, data=[70, 0]),
   midi.ControlChangeEvent(tick=10, channel=12, data=[7, 94]),
   midi.ControlChangeEvent(tick=60, channel=12, data=[7, 94]),
   midi.ControlChangeEvent(tick=20, channel=12, data=[7, 94]),
   midi.NoteOnEvent(tick=5, channel=12, data=[70, 89]),
   midi.ControlChangeEvent(tick=20, channel=12, data=[7, 96]),
   midi.NoteOnEvent(tick=5, channel=12, data=[70, 0]),
   midi.ControlChangeEvent(tick=35, channel=12, data=[7, 96]),
   midi.ControlChangeEvent(tick=15, channel=12, data=[7, 96]),
   midi.ControlChangeEvent(tick=15, channel=12, data=[7, 96]),
   midi.ControlChangeEvent(tick=15, channel=12, data=[7, 96]),
   midi.NoteOnEvent(tick=15, channel=12, data=[69, 89]),
   midi.ControlChangeEvent(tick=0, channel=12, data=[7, 98]),
   midi.NoteOnEvent(tick=25, channel=12, data=[69, 0]),
   midi.ControlChangeEvent(tick=30, channel=12, data=[7, 98]),
   midi.ControlChangeEvent(tick=15, channel=12, data=[7, 99]),
   midi.NoteOnEvent(tick=50, channel=12, data=[72, 89]),
   midi.ControlChangeEvent(tick=20, channel=12, data=[7, 98]),
   midi.NoteOnEvent(tick=5, channel=12, data=[72, 0]),
   midi.ControlChangeEvent(tick=10, channel=12, data=[7, 98]),
   midi.ControlChangeEvent(tick=10, channel=12, data=[7, 96]),
   midi.ControlChangeEvent(tick=20, channel=12, data=[7, 96]),
   midi.ControlChangeEvent(tick=10, channel=12, data=[7, 96]),
   midi.ControlChangeEvent(tick=10, channel=12, data=[7, 96]),
   midi.ControlChangeEvent(tick=15, channel=12, data=[7, 94]),
   midi.ControlChangeEvent(tick=10, channel=12, data=[7, 94]),
   midi.NoteOnEvent(tick=10, channel=12, data=[65, 89]),
   midi.ControlChangeEvent(tick=10, channel=12, data=[7, 94]),
   midi.ControlChangeEvent(tick=10, channel=12, data=[7, 93]),
   midi.NoteOnEvent(tick=5, channel=12, data=[65, 0]),
   midi.ControlChangeEvent(tick=10, channel=12, data=[7, 92]),
   midi.ControlChangeEvent(tick=15, channel=12, data=[7, 92]),
   midi.ControlChangeEvent(tick=20, channel=12, data=[7, 90]),
   midi.ControlChangeEvent(tick=20, channel=12, data=[7, 90]),
   midi.ControlChangeEvent(tick=10, channel=12, data=[7, 90]),
   midi.ControlChangeEvent(tick=10, channel=12, data=[7, 89]),
   midi.ControlChangeEvent(tick=20, channel=12, data=[7, 89]),
   midi.ControlChangeEvent(tick=25, channel=12, data=[7, 88]),
   midi.ControlChangeEvent(tick=50, channel=12, data=[7, 89]),
   midi.ControlChangeEvent(tick=20, channel=12, data=[7, 90]),
   midi.NoteOnEvent(tick=15, channel=12, data=[63, 89]),
   midi.NoteOnEvent(tick=25, channel=12, data=[63, 0]),
   midi.ControlChangeEvent(tick=35, channel=12, data=[7, 90]),
   midi.ControlChangeEvent(tick=15, channel=12, data=[7, 90]),
   midi.ControlChangeEvent(tick=10, channel=12, data=[7, 92]),
   midi.ControlChangeEvent(tick=20, channel=12, data=[7, 92]),
   midi.ControlChangeEvent(tick=10, channel=12, data=[7, 93]),
   midi.NoteOnEvent(tick=5, channel=12, data=[63, 89]),
   midi.ControlChangeEvent(tick=5, channel=12, data=[7, 94]),
   midi.ControlChangeEvent(tick=10, channel=12, data=[7, 96]),
   midi.NoteOnEvent(tick=10, channel=12, data=[63, 0]),
   midi.ControlChangeEvent(tick=5, channel=12, data=[7, 96]),
   midi.ControlChangeEvent(tick=15, channel=12, data=[7, 96]),
   midi.ControlChangeEvent(tick=10, channel=12, data=[7, 96]),
   midi.ControlChangeEvent(tick=15, channel=12, data=[7, 98]),
   midi.ControlChangeEvent(tick=10, channel=12, data=[7, 98]),
   midi.ControlChangeEvent(tick=10, channel=12, data=[7, 99]),
   midi.ControlChangeEvent(tick=15, channel=12, data=[7, 99]),
   midi.NoteOnEvent(tick=15, channel=12, data=[64, 89]),
   midi.ControlChangeEvent(tick=10, channel=12, data=[7, 99]),
   midi.ControlChangeEvent(tick=10, channel=12, data=[7, 98]),
   midi.NoteOnEvent(tick=5, channel=12, data=[64, 0]),
   midi.ControlChangeEvent(tick=5, channel=12, data=[7, 96]),
   midi.ControlChangeEvent(tick=10, channel=12, data=[7, 96]),
   midi.ControlChangeEvent(tick=15, channel=12, data=[7, 96]),
   midi.ControlChangeEvent(tick=10, channel=12, data=[7, 94]),
   midi.ControlChangeEvent(tick=10, channel=12, data=[7, 94]),
   midi.ControlChangeEvent(tick=15, channel=12, data=[7, 93]),
   midi.ControlChangeEvent(tick=10, channel=12, data=[7, 92]),
   midi.ControlChangeEvent(tick=10, channel=12, data=[7, 90]),
   midi.NoteOnEvent(tick=10, channel=12, data=[64, 89]),
   midi.ControlChangeEvent(tick=0, channel=12, data=[7, 90]),
   midi.ControlChangeEvent(tick=10, channel=12, data=[7, 89]),
   midi.NoteOnEvent(tick=15, channel=12, data=[64, 0]),
   midi.ControlChangeEvent(tick=0, channel=12, data=[7, 87]),
   midi.ControlChangeEvent(tick=10, channel=12, data=[7, 85]),
   midi.ControlChangeEvent(tick=10, channel=12, data=[7, 83]),
   midi.ControlChangeEvent(tick=15, channel=12, data=[7, 83]),
   midi.NoteOnEvent(tick=30, channel=12, data=[62, 94]),
   midi.ControlChangeEvent(tick=15, channel=12, data=[7, 83]),
   midi.ControlChangeEvent(tick=10, channel=12, data=[7, 84]),
   midi.NoteOnEvent(tick=5, channel=12, data=[62, 0]),
   midi.NoteOnEvent(tick=0, channel=12, data=[64, 94]),
   midi.ControlChangeEvent(tick=5, channel=12, data=[7, 86]),
   midi.ControlChangeEvent(tick=20, channel=12, data=[7, 87]),
   midi.NoteOnEvent(tick=5, channel=12, data=[64, 0]),
   midi.NoteOnEvent(tick=0, channel=12, data=[68, 94]),
   midi.ControlChangeEvent(tick=10, channel=12, data=[7, 87]),
   midi.ControlChangeEvent(tick=10, channel=12, data=[7, 89]),
   midi.NoteOnEvent(tick=10, channel=12, data=[68, 0]),
   midi.NoteOnEvent(tick=0, channel=12, data=[69, 94]),
   midi.ControlChangeEvent(tick=5, channel=12, data=[7, 89]),
   midi.ControlChangeEvent(tick=10, channel=12, data=[7, 90]),
   midi.ControlChangeEvent(tick=10, channel=12, data=[7, 90]),
   midi.NoteOnEvent(tick=5, channel=12, data=[69, 0]),
   midi.NoteOnEvent(tick=0, channel=12, data=[62, 94]),
   midi.ControlChangeEvent(tick=5, channel=12, data=[7, 90]),
   midi.ControlChangeEvent(tick=15, channel=12, data=[7, 92]),
   midi.NoteOnEvent(tick=10, channel=12, data=[62, 0]),
   midi.NoteOnEvent(tick=0, channel=12, data=[65, 94]),
   midi.ControlChangeEvent(tick=0, channel=12, data=[7, 92]),
   midi.ControlChangeEvent(tick=15, channel=12, data=[7, 93]),
   midi.ControlChangeEvent(tick=10, channel=12, data=[7, 94]),
   midi.NoteOnEvent(tick=5, channel=12, data=[65, 0]),
   midi.NoteOnEvent(tick=0, channel=12, data=[69, 94]),
   midi.ControlChangeEvent(tick=10, channel=12, data=[7, 94]),
   midi.ControlChangeEvent(tick=10, channel=12, data=[7, 94]),
   midi.NoteOnEvent(tick=10, channel=12, data=[69, 0]),
   midi.NoteOnEvent(tick=0, channel=12, data=[71, 94]),
   midi.ControlChangeEvent(tick=5, channel=12, data=[7, 96]),
   midi.ControlChangeEvent(tick=10, channel=12, data=[7, 96]),
   midi.NoteOnEvent(tick=15, channel=12, data=[71, 0]),
   midi.NoteOnEvent(tick=0, channel=12, data=[62, 94]),
   midi.ControlChangeEvent(tick=0, channel=12, data=[7, 96]),
   midi.ControlChangeEvent(tick=10, channel=12, data=[7, 96]),
   midi.ControlChangeEvent(tick=10, channel=12, data=[7, 98]),
   midi.NoteOnEvent(tick=10, channel=12, data=[62, 0]),
   midi.NoteOnEvent(tick=0, channel=12, data=[65, 94]),
   midi.ControlChangeEvent(tick=5, channel=12, data=[7, 98]),
   midi.ControlChangeEvent(tick=10, channel=12, data=[7, 99]),
   midi.NoteOnEvent(tick=15, channel=12, data=[65, 0]),
   midi.NoteOnEvent(tick=0, channel=12, data=[71, 94]),
   midi.ControlChangeEvent(tick=0, channel=12, data=[7, 100]),
   midi.ControlChangeEvent(tick=15, channel=12, data=[7, 101]),
   midi.ControlChangeEvent(tick=10, channel=12, data=[7, 101]),
   midi.ControlChangeEvent(tick=15, channel=12, data=[7, 102]),
   midi.ControlChangeEvent(tick=10, channel=12, data=[7, 105]),
   midi.NoteOnEvent(tick=10, channel=12, data=[71, 0]),
   midi.NoteOnEvent(tick=0, channel=12, data=[62, 94]),
   midi.ControlChangeEvent(tick=5, channel=12, data=[7, 107]),
   midi.ControlChangeEvent(tick=10, channel=12, data=[7, 108]),
   midi.NoteOnEvent(tick=15, channel=12, data=[62, 0]),
   midi.NoteOnEvent(tick=0, channel=12, data=[65, 94]),
   midi.ControlChangeEvent(tick=15, channel=12, data=[7, 107]),
   midi.ControlChangeEvent(tick=10, channel=12, data=[7, 105]),
   midi.NoteOnEvent(tick=5, channel=12, data=[65, 0]),
   midi.NoteOnEvent(tick=0, channel=12, data=[71, 94]),
   midi.ControlChangeEvent(tick=10, channel=12, data=[7, 102]),
   midi.ControlChangeEvent(tick=10, channel=12, data=[7, 101]),
   midi.NoteOnEvent(tick=10, channel=12, data=[71, 0]),
   midi.ControlChangeEvent(tick=5, channel=12, data=[7, 98]),
   midi.ControlChangeEvent(tick=10, channel=12, data=[7, 94]),
   midi.ControlChangeEvent(tick=15, channel=12, data=[7, 90]),
   midi.NoteOnEvent(tick=0, channel=12, data=[67, 94]),
   midi.ControlChangeEvent(tick=10, channel=12, data=[7, 89]),
   midi.NoteOnEvent(tick=20, channel=12, data=[67, 0]),
   midi.NoteOnEvent(tick=0, channel=12, data=[69, 94]),
   midi.ControlChangeEvent(tick=0, channel=12, data=[7, 90]),
   midi.ControlChangeEvent(tick=15, channel=12, data=[7, 92]),
   midi.ControlChangeEvent(tick=10, channel=12, data=[7, 93]),
   midi.NoteOnEvent(tick=5, channel=12, data=[69, 0]),
   midi.NoteOnEvent(tick=0, channel=12, data=[73, 94]),
   midi.ControlChangeEvent(tick=10, channel=12, data=[7, 94]),
   midi.ControlChangeEvent(tick=15, channel=12, data=[7, 96]),
   midi.NoteOnEvent(tick=5, channel=12, data=[73, 0]),
   midi.NoteOnEvent(tick=0, channel=12, data=[74, 94]),
   midi.ControlChangeEvent(tick=5, channel=12, data=[7, 96]),
   midi.ControlChangeEvent(tick=10, channel=12, data=[7, 96]),
   midi.NoteOnEvent(tick=15, channel=12, data=[74, 0]),
   midi.NoteOnEvent(tick=0, channel=12, data=[67, 94]),
   midi.ControlChangeEvent(tick=0, channel=12, data=[7, 98]),
   midi.ControlChangeEvent(tick=10, channel=12, data=[7, 99]),
   midi.ControlChangeEvent(tick=15, channel=12, data=[7, 100]),
   midi.NoteOnEvent(tick=5, channel=12, data=[67, 0]),
   midi.NoteOnEvent(tick=0, channel=12, data=[70, 94]),
   midi.ControlChangeEvent(tick=5, channel=12, data=[7, 101]),
   midi.ControlChangeEvent(tick=15, channel=12, data=[7, 101]),
   midi.NoteOnEvent(tick=10, channel=12, data=[70, 0]),
   midi.NoteOnEvent(tick=0, channel=12, data=[74, 94]),
   midi.ControlChangeEvent(tick=0, channel=12, data=[7, 101]),
   midi.ControlChangeEvent(tick=15, channel=12, data=[7, 102]),
   midi.ControlChangeEvent(tick=10, channel=12, data=[7, 103]),
   midi.NoteOnEvent(tick=5, channel=12, data=[74, 0]),
   midi.NoteOnEvent(tick=0, channel=12, data=[76, 94]),
   midi.ControlChangeEvent(tick=10, channel=12, data=[7, 105]),
   midi.ControlChangeEvent(tick=10, channel=12, data=[7, 106]),
   midi.NoteOnEvent(tick=10, channel=12, data=[76, 0]),
   midi.NoteOnEvent(tick=0, channel=12, data=[67, 94]),
   midi.ControlChangeEvent(tick=5, channel=12, data=[7, 107]),
   midi.ControlChangeEvent(tick=10, channel=12, data=[7, 108]),
   midi.NoteOnEvent(tick=15, channel=12, data=[67, 0]),
   midi.NoteOnEvent(tick=0, channel=12, data=[70, 94]),
   midi.ControlChangeEvent(tick=5, channel=12, data=[7, 108]),
   midi.ControlChangeEvent(tick=20, channel=12, data=[7, 109]),
   midi.NoteOnEvent(tick=5, channel=12, data=[70, 0]),
   midi.NoteOnEvent(tick=0, channel=12, data=[76, 94]),
   midi.ControlChangeEvent(tick=15, channel=12, data=[7, 109]),
   midi.ControlChangeEvent(tick=15, channel=12, data=[7, 109]),
   midi.ControlChangeEvent(tick=10, channel=12, data=[7, 110]),
   midi.ControlChangeEvent(tick=15, channel=12, data=[7, 110]),
   midi.NoteOnEvent(tick=5, channel=12, data=[76, 0]),
   midi.NoteOnEvent(tick=0, channel=12, data=[67, 94]),
   midi.ControlChangeEvent(tick=10, channel=12, data=[7, 111]),
   midi.ControlChangeEvent(tick=10, channel=12, data=[7, 112]),
   midi.NoteOnEvent(tick=10, channel=12, data=[67, 0]),
   midi.NoteOnEvent(tick=0, channel=12, data=[70, 94]),
   midi.ControlChangeEvent(tick=5, channel=12, data=[7, 112]),
   midi.ControlChangeEvent(tick=10, channel=12, data=[7, 114]),
   midi.NoteOnEvent(tick=15, channel=12, data=[70, 0]),
   midi.NoteOnEvent(tick=0, channel=12, data=[76, 94]),
   midi.NoteOnEvent(tick=30, channel=12, data=[76, 0]),
   midi.NoteOnEvent(tick=30, channel=12, data=[65, 94]),
   midi.NoteOnEvent(tick=30, channel=12, data=[65, 0]),
   midi.NoteOnEvent(tick=0, channel=12, data=[69, 94]),
   midi.NoteOnEvent(tick=30, channel=12, data=[69, 0]),
   midi.NoteOnEvent(tick=0, channel=12, data=[74, 94]),
   midi.NoteOnEvent(tick=30, channel=12, data=[74, 0]),
   midi.NoteOnEvent(tick=0, channel=12, data=[76, 94]),
   midi.NoteOnEvent(tick=30, channel=12, data=[76, 0]),
   midi.NoteOnEvent(tick=0, channel=12, data=[69, 94]),
   midi.ControlChangeEvent(tick=15, channel=12, data=[7, 112]),
   midi.NoteOnEvent(tick=15, channel=12, data=[69, 0]),
   midi.NoteOnEvent(tick=0, channel=12, data=[72, 94]),
   midi.ControlChangeEvent(tick=0, channel=12, data=[7, 112]),
   midi.ControlChangeEvent(tick=10, channel=12, data=[7, 112]),
   midi.ControlChangeEvent(tick=15, channel=12, data=[7, 111]),
   midi.NoteOnEvent(tick=5, channel=12, data=[72, 0]),
   midi.NoteOnEvent(tick=0, channel=12, data=[76, 94]),
   midi.ControlChangeEvent(tick=5, channel=12, data=[7, 110]),
   midi.ControlChangeEvent(tick=10, channel=12, data=[7, 110]),
   midi.ControlChangeEvent(tick=10, channel=12, data=[7, 109]),
   midi.NoteOnEvent(tick=5, channel=12, data=[76, 0]),
   midi.NoteOnEvent(tick=0, channel=12, data=[77, 94]),
   midi.ControlChangeEvent(tick=10, channel=12, data=[7, 109]),
   midi.ControlChangeEvent(tick=15, channel=12, data=[7, 109]),
   midi.ControlChangeEvent(tick=15, channel=12, data=[7, 108]),
   midi.ControlChangeEvent(tick=10, channel=12, data=[7, 107]),
   midi.NoteOnEvent(tick=10, channel=12, data=[77, 0]),
   midi.ControlChangeEvent(tick=5, channel=12, data=[7, 106]),
   midi.ControlChangeEvent(tick=10, channel=12, data=[7, 105]),
   midi.ControlChangeEvent(tick=10, channel=12, data=[7, 104]),
   midi.ControlChangeEvent(tick=10, channel=12, data=[7, 103]),
   midi.ControlChangeEvent(tick=15, channel=12, data=[7, 102]),
   midi.ControlChangeEvent(tick=15, channel=12, data=[7, 102]),
   midi.ControlChangeEvent(tick=10, channel=12, data=[7, 101]),
   midi.ControlChangeEvent(tick=15, channel=12, data=[7, 101]),
   midi.ControlChangeEvent(tick=15, channel=12, data=[7, 101]),
   midi.ControlChangeEvent(tick=15, channel=12, data=[7, 101]),
   midi.ControlChangeEvent(tick=10, channel=12, data=[7, 100]),
   midi.ControlChangeEvent(tick=10, channel=12, data=[7, 99]),
   midi.ControlChangeEvent(tick=15, channel=12, data=[7, 99]),
   midi.ControlChangeEvent(tick=20, channel=12, data=[7, 98]),
   midi.NoteOnEvent(tick=5, channel=12, data=[63, 94]),
   midi.ControlChangeEvent(tick=20, channel=12, data=[7, 98]),
   midi.ControlChangeEvent(tick=20, channel=12, data=[7, 96]),
   midi.ControlChangeEvent(tick=65, channel=12, data=[7, 98]),
   midi.ControlChangeEvent(tick=10, channel=12, data=[7, 98]),
   midi.ControlChangeEvent(tick=15, channel=12, data=[7, 99]),
   midi.ControlChangeEvent(tick=10, channel=12, data=[7, 101]),
   midi.ControlChangeEvent(tick=10, channel=12, data=[7, 101]),
   midi.ControlChangeEvent(tick=15, channel=12, data=[7, 102]),
   midi.NoteOnEvent(tick=10, channel=12, data=[63, 0]),
   midi.NoteOnEvent(tick=5, channel=12, data=[63, 94]),
   midi.ControlChangeEvent(tick=5, channel=12, data=[7, 101]),
   midi.ControlChangeEvent(tick=10, channel=12, data=[7, 101]),
   midi.ControlChangeEvent(tick=10, channel=12, data=[7, 99]),
   midi.ControlChangeEvent(tick=10, channel=12, data=[7, 98]),
   midi.ControlChangeEvent(tick=10, channel=12, data=[7, 98]),
   midi.NoteOnEvent(tick=5, channel=12, data=[63, 0]),
   midi.ControlChangeEvent(tick=5, channel=12, data=[7, 96]),
   midi.NoteOnEvent(tick=5, channel=12, data=[64, 91]),
   midi.NoteOnEvent(tick=0, channel=12, data=[69, 91]),
   midi.ControlChangeEvent(tick=5, channel=12, data=[7, 96]),
   midi.ControlChangeEvent(tick=5, channel=12, data=[7, 96]),
   midi.ControlChangeEvent(tick=15, channel=12, data=[7, 96]),
   midi.ControlChangeEvent(tick=10, channel=12, data=[7, 94]),
   midi.ControlChangeEvent(tick=10, channel=12, data=[7, 94]),
   midi.NoteOnEvent(tick=10, channel=12, data=[69, 0]),
   midi.NoteOnEvent(tick=0, channel=12, data=[64, 0]),
   midi.ControlChangeEvent(tick=0, channel=12, data=[7, 93]),
   midi.ControlChangeEvent(tick=10, channel=12, data=[7, 92]),
   midi.ControlChangeEvent(tick=10, channel=12, data=[7, 92]),
   midi.ControlChangeEvent(tick=10, channel=12, data=[7, 90]),
   midi.ControlChangeEvent(tick=10, channel=12, data=[7, 90]),
   midi.ControlChangeEvent(tick=10, channel=12, data=[7, 90]),
   midi.NoteOnEvent(tick=15, channel=12, data=[62, 86]),
   midi.ControlChangeEvent(tick=5, channel=12, data=[7, 89]),
   midi.ControlChangeEvent(tick=10, channel=12, data=[7, 89]),
   midi.ControlChangeEvent(tick=10, channel=12, data=[7, 88]),
   midi.ControlChangeEvent(tick=5, channel=12, data=[7, 87]),
   midi.ControlChangeEvent(tick=15, channel=12, data=[7, 87]),
   midi.NoteOnEvent(tick=10, channel=12, data=[62, 0]),
   midi.ControlChangeEvent(tick=15, channel=12, data=[7, 86]),
   midi.ControlChangeEvent(tick=10, channel=12, data=[7, 85]),
   midi.ControlChangeEvent(tick=5, channel=12, data=[7, 84]),
   midi.ControlChangeEvent(tick=30, channel=12, data=[7, 83]),
   midi.NoteOnEvent(tick=10, channel=12, data=[60, 80]),
   midi.ControlChangeEvent(tick=20, channel=12, data=[7, 83]),
   midi.NoteOnEvent(tick=35, channel=12, data=[60, 0]),
   midi.ControlChangeEvent(tick=305, channel=12, data=[7, 83]),
   midi.ControlChangeEvent(tick=20, channel=12, data=[7, 84]),
   midi.ControlChangeEvent(tick=15, channel=12, data=[7, 85]),
   midi.ControlChangeEvent(tick=10, channel=12, data=[7, 86]),
   midi.ControlChangeEvent(tick=15, channel=12, data=[7, 87]),
   midi.ControlChangeEvent(tick=20, channel=12, data=[7, 87]),
   midi.ControlChangeEvent(tick=30, channel=12, data=[7, 88]),
   midi.ControlChangeEvent(tick=15, channel=12, data=[7, 89]),
   midi.ControlChangeEvent(tick=15, channel=12, data=[7, 90]),
   midi.ControlChangeEvent(tick=10, channel=12, data=[7, 90]),
   midi.ControlChangeEvent(tick=15, channel=12, data=[7, 90]),
   midi.ControlChangeEvent(tick=25, channel=12, data=[7, 92]),
   midi.ControlChangeEvent(tick=30, channel=12, data=[7, 92]),
   midi.ControlChangeEvent(tick=15, channel=12, data=[7, 93]),
   midi.ControlChangeEvent(tick=35, channel=12, data=[7, 94]),
   midi.ControlChangeEvent(tick=45, channel=12, data=[7, 94]),
   midi.ControlChangeEvent(tick=15, channel=12, data=[7, 96]),
   midi.ControlChangeEvent(tick=10, channel=12, data=[7, 96]),
   midi.ControlChangeEvent(tick=15, channel=12, data=[7, 96]),
   midi.NoteOnEvent(tick=0, channel=12, data=[57, 94]),
   midi.ControlChangeEvent(tick=10, channel=12, data=[7, 98]),
   midi.ControlChangeEvent(tick=15, channel=12, data=[7, 98]),
   midi.ControlChangeEvent(tick=10, channel=12, data=[7, 99]),
   midi.NoteOnEvent(tick=5, channel=12, data=[57, 0]),
   midi.ControlChangeEvent(tick=5, channel=12, data=[7, 100]),
   midi.NoteOnEvent(tick=45, channel=12, data=[57, 94]),
   midi.NoteOnEvent(tick=20, channel=12, data=[57, 0]),
   midi.ControlChangeEvent(tick=5, channel=12, data=[7, 101]),
   midi.NoteOnEvent(tick=5, channel=12, data=[57, 94]),
   midi.ControlChangeEvent(tick=10, channel=12, data=[7, 101]),
   midi.NoteOnEvent(tick=10, channel=12, data=[57, 0]),
   midi.ControlChangeEvent(tick=0, channel=12, data=[7, 101]),
   midi.ControlChangeEvent(tick=30, channel=12, data=[7, 102]),
   midi.NoteOnEvent(tick=10, channel=12, data=[59, 94]),
   midi.ControlChangeEvent(tick=15, channel=12, data=[7, 102]),
   midi.NoteOnEvent(tick=5, channel=12, data=[59, 0]),
   midi.ControlChangeEvent(tick=25, channel=12, data=[7, 103]),
   midi.NoteOnEvent(tick=15, channel=12, data=[60, 86]),
   midi.ControlChangeEvent(tick=0, channel=12, data=[7, 104]),
   midi.ControlChangeEvent(tick=15, channel=12, data=[7, 105]),
   midi.ControlChangeEvent(tick=10, channel=12, data=[7, 107]),
   midi.NoteOnEvent(tick=15, channel=12, data=[60, 0]),
   midi.ControlChangeEvent(tick=590, channel=12, data=[7, 108]),
   midi.ControlChangeEvent(tick=35, channel=12, data=[7, 108]),
   midi.ControlChangeEvent(tick=20, channel=12, data=[7, 109]),
   midi.ControlChangeEvent(tick=25, channel=12, data=[7, 109]),
   midi.NoteOnEvent(tick=10, channel=12, data=[60, 94]),
   midi.ControlChangeEvent(tick=5, channel=12, data=[7, 109]),
   midi.ControlChangeEvent(tick=20, channel=12, data=[7, 110]),
   midi.NoteOnEvent(tick=15, channel=12, data=[60, 0]),
   midi.ControlChangeEvent(tick=10, channel=12, data=[7, 110]),
   midi.ControlChangeEvent(tick=35, channel=12, data=[7, 111]),
   midi.NoteOnEvent(tick=5, channel=12, data=[60, 94]),
   midi.NoteOnEvent(tick=20, channel=12, data=[60, 0]),
   midi.NoteOnEvent(tick=10, channel=12, data=[60, 94]),
   midi.ControlChangeEvent(tick=10, channel=12, data=[7, 112]),
   midi.NoteOnEvent(tick=10, channel=12, data=[60, 0]),
   midi.ControlChangeEvent(tick=10, channel=12, data=[7, 112]),
   midi.ControlChangeEvent(tick=25, channel=12, data=[7, 112]),
   midi.NoteOnEvent(tick=5, channel=12, data=[62, 94]),
   midi.NoteOnEvent(tick=20, channel=12, data=[62, 0]),
   midi.ControlChangeEvent(tick=35, channel=12, data=[7, 112]),
   midi.ControlChangeEvent(tick=15, channel=12, data=[7, 110]),
   midi.ControlChangeEvent(tick=10, channel=12, data=[7, 109]),
   midi.ControlChangeEvent(tick=15, channel=12, data=[7, 108]),
   midi.ControlChangeEvent(tick=10, channel=12, data=[7, 106]),
   midi.ControlChangeEvent(tick=15, channel=12, data=[7, 104]),
   midi.ControlChangeEvent(tick=10, channel=12, data=[7, 103]),
   midi.ControlChangeEvent(tick=15, channel=12, data=[7, 102]),
   midi.ControlChangeEvent(tick=10, channel=12, data=[7, 101]),
   midi.ControlChangeEvent(tick=15, channel=12, data=[7, 101]),
   midi.ControlChangeEvent(tick=35, channel=12, data=[7, 101]),
   midi.ControlChangeEvent(tick=315, channel=12, data=[7, 101]),
   midi.ControlChangeEvent(tick=10, channel=12, data=[7, 101]),
   midi.ControlChangeEvent(tick=15, channel=12, data=[7, 100]),
   midi.ControlChangeEvent(tick=10, channel=12, data=[7, 99]),
   midi.ControlChangeEvent(tick=15, channel=12, data=[7, 98]),
   midi.ControlChangeEvent(tick=15, channel=12, data=[7, 98]),
   midi.ControlChangeEvent(tick=15, channel=12, data=[7, 96]),
   midi.ControlChangeEvent(tick=10, channel=12, data=[7, 96]),
   midi.ControlChangeEvent(tick=15, channel=12, data=[7, 96]),
   midi.ControlChangeEvent(tick=15, channel=12, data=[7, 96]),
   midi.ControlChangeEvent(tick=15, channel=12, data=[7, 94]),
   midi.ControlChangeEvent(tick=15, channel=12, data=[7, 94]),
   midi.ControlChangeEvent(tick=15, channel=12, data=[7, 94]),
   midi.ControlChangeEvent(tick=55, channel=12, data=[7, 93]),
   midi.ControlChangeEvent(tick=745, channel=12, data=[7, 92]),
   midi.ControlChangeEvent(tick=195, channel=12, data=[7, 92]),
   midi.ControlChangeEvent(tick=70, channel=12, data=[7, 90]),
   midi.ControlChangeEvent(tick=125, channel=12, data=[7, 90]),
   midi.ControlChangeEvent(tick=15, channel=12, data=[7, 90]),
   midi.ControlChangeEvent(tick=10, channel=12, data=[7, 89]),
   midi.ControlChangeEvent(tick=65, channel=12, data=[7, 90]),
   midi.ControlChangeEvent(tick=10, channel=12, data=[7, 90]),
   midi.NoteOnEvent(tick=5, channel=12, data=[62, 81]),
   midi.ControlChangeEvent(tick=0, channel=12, data=[7, 92]),
   midi.ControlChangeEvent(tick=20, channel=12, data=[7, 92]),
   midi.ControlChangeEvent(tick=20, channel=12, data=[7, 93]),
   midi.ControlChangeEvent(tick=15, channel=12, data=[7, 94]),
   midi.ControlChangeEvent(tick=15, channel=12, data=[7, 94]),
   midi.ControlChangeEvent(tick=10, channel=12, data=[7, 94]),
   midi.ControlChangeEvent(tick=15, channel=12, data=[7, 96]),
   midi.ControlChangeEvent(tick=20, channel=12, data=[7, 96]),
   midi.ControlChangeEvent(tick=15, channel=12, data=[7, 96]),
   midi.ControlChangeEvent(tick=15, channel=12, data=[7, 96]),
   midi.ControlChangeEvent(tick=15, channel=12, data=[7, 96]),
   midi.ControlChangeEvent(tick=15, channel=12, data=[7, 98]),
   midi.ControlChangeEvent(tick=20, channel=12, data=[7, 98]),
   midi.ControlChangeEvent(tick=15, channel=12, data=[7, 99]),
   midi.ControlChangeEvent(tick=15, channel=12, data=[7, 99]),
   midi.NoteOnEvent(tick=15, channel=12, data=[62, 0]),
   midi.NoteOnEvent(tick=0, channel=12, data=[65, 85]),
   midi.ControlChangeEvent(tick=15, channel=12, data=[7, 100]),
   midi.ControlChangeEvent(tick=15, channel=12, data=[7, 101]),
   midi.ControlChangeEvent(tick=50, channel=12, data=[7, 101]),
   midi.ControlChangeEvent(tick=20, channel=12, data=[7, 101]),
   midi.ControlChangeEvent(tick=30, channel=12, data=[7, 101]),
   midi.ControlChangeEvent(tick=15, channel=12, data=[7, 102]),
   midi.ControlChangeEvent(tick=80, channel=12, data=[7, 101]),
   midi.NoteOnEvent(tick=15, channel=12, data=[65, 0]),
   midi.NoteOnEvent(tick=0, channel=12, data=[67, 90]),
   midi.ControlChangeEvent(tick=5, channel=12, data=[7, 101]),
   midi.ControlChangeEvent(tick=10, channel=12, data=[7, 101]),
   midi.ControlChangeEvent(tick=40, channel=12, data=[7, 101]),
   midi.ControlChangeEvent(tick=15, channel=12, data=[7, 101]),
   midi.ControlChangeEvent(tick=10, channel=12, data=[7, 102]),
   midi.ControlChangeEvent(tick=15, channel=12, data=[7, 103]),
   midi.ControlChangeEvent(tick=15, channel=12, data=[7, 104]),
   midi.ControlChangeEvent(tick=10, channel=12, data=[7, 106]),
   midi.ControlChangeEvent(tick=15, channel=12, data=[7, 107]),
   midi.ControlChangeEvent(tick=15, channel=12, data=[7, 108]),
   midi.ControlChangeEvent(tick=10, channel=12, data=[7, 109]),
   midi.ControlChangeEvent(tick=15, channel=12, data=[7, 109]),
   midi.ControlChangeEvent(tick=10, channel=12, data=[7, 110]),
   midi.ControlChangeEvent(tick=15, channel=12, data=[7, 110]),
   midi.ControlChangeEvent(tick=10, channel=12, data=[7, 112]),
   midi.ControlChangeEvent(tick=15, channel=12, data=[7, 112]),
   midi.ControlChangeEvent(tick=10, channel=12, data=[7, 112]),
   midi.NoteOnEvent(tick=5, channel=12, data=[67, 0]),
   midi.NoteOnEvent(tick=0, channel=12, data=[70, 95]),
   midi.ControlChangeEvent(tick=10, channel=12, data=[7, 114]),
   midi.NoteOnEvent(tick=230, channel=12, data=[70, 0]),
   midi.NoteOnEvent(tick=0, channel=12, data=[69, 101]),
   midi.NoteOnEvent(tick=120, channel=12, data=[69, 0]),
   midi.NoteOnEvent(tick=0, channel=12, data=[72, 93]),
   midi.ControlChangeEvent(tick=30, channel=12, data=[7, 112]),
   midi.ControlChangeEvent(tick=15, channel=12, data=[7, 112]),
   midi.ControlChangeEvent(tick=10, channel=12, data=[7, 110]),
   midi.ControlChangeEvent(tick=15, channel=12, data=[7, 109]),
   midi.ControlChangeEvent(tick=10, channel=12, data=[7, 108]),
   midi.ControlChangeEvent(tick=10, channel=12, data=[7, 106]),
   midi.ControlChangeEvent(tick=15, channel=12, data=[7, 102]),
   midi.ControlChangeEvent(tick=10, channel=12, data=[7, 101]),
   midi.NoteOnEvent(tick=5, channel=12, data=[72, 0]),
   midi.NoteOnEvent(tick=0, channel=12, data=[65, 86]),
   midi.ControlChangeEvent(tick=10, channel=12, data=[7, 100]),
   midi.ControlChangeEvent(tick=10, channel=12, data=[7, 98]),
   midi.ControlChangeEvent(tick=10, channel=12, data=[7, 96]),
   midi.ControlChangeEvent(tick=15, channel=12, data=[7, 96]),
   midi.ControlChangeEvent(tick=10, channel=12, data=[7, 96]),
   midi.ControlChangeEvent(tick=15, channel=12, data=[7, 96]),
   midi.ControlChangeEvent(tick=10, channel=12, data=[7, 94]),
   midi.ControlChangeEvent(tick=50, channel=12, data=[7, 94]),
   midi.NoteOnEvent(tick=20, channel=12, data=[65, 0]),
   midi.ControlChangeEvent(tick=0, channel=12, data=[7, 94]),
   midi.ControlChangeEvent(tick=260, channel=12, data=[7, 94]),
   midi.ControlChangeEvent(tick=10, channel=12, data=[7, 94]),
   midi.ControlChangeEvent(tick=10, channel=12, data=[7, 96]),
   midi.ControlChangeEvent(tick=20, channel=12, data=[7, 96]),
   midi.ControlChangeEvent(tick=15, channel=12, data=[7, 96]),
   midi.ControlChangeEvent(tick=15, channel=12, data=[7, 96]),
   midi.NoteOnEvent(tick=120, channel=12, data=[64, 94]),
   midi.NoteOnEvent(tick=30, channel=12, data=[64, 0]),
   midi.ControlChangeEvent(tick=395, channel=12, data=[7, 98]),
   midi.ControlChangeEvent(tick=45, channel=12, data=[7, 98]),
   midi.ControlChangeEvent(tick=50, channel=12, data=[7, 99]),
   midi.ControlChangeEvent(tick=25, channel=12, data=[7, 99]),
   midi.ControlChangeEvent(tick=25, channel=12, data=[7, 100]),
   midi.ControlChangeEvent(tick=55, channel=12, data=[7, 101]),
   midi.ControlChangeEvent(tick=40, channel=12, data=[7, 101]),
   midi.ControlChangeEvent(tick=15, channel=12, data=[7, 101]),
   midi.ControlChangeEvent(tick=40, channel=12, data=[7, 101]),
   midi.ControlChangeEvent(tick=30, channel=12, data=[7, 102]),
   midi.ControlChangeEvent(tick=35, channel=12, data=[7, 102]),
   midi.ControlChangeEvent(tick=190, channel=12, data=[7, 103]),
   midi.ControlChangeEvent(tick=60, channel=12, data=[7, 104]),
   midi.ControlChangeEvent(tick=40, channel=12, data=[7, 105]),
   midi.NoteOnEvent(tick=5, channel=12, data=[62, 104]),
   midi.ControlChangeEvent(tick=15, channel=12, data=[7, 106]),
   midi.NoteOnEvent(tick=5, channel=12, data=[62, 0]),
   midi.ControlChangeEvent(tick=20, channel=12, data=[7, 108]),
   midi.ControlChangeEvent(tick=20, channel=12, data=[7, 108]),
   midi.ControlChangeEvent(tick=20, channel=12, data=[7, 109]),
   midi.ControlChangeEvent(tick=20, channel=12, data=[7, 109]),
   midi.ControlChangeEvent(tick=20, channel=12, data=[7, 110]),
   midi.ControlChangeEvent(tick=20, channel=12, data=[7, 110]),
   midi.ControlChangeEvent(tick=25, channel=12, data=[7, 111]),
   midi.NoteOnEvent(tick=15, channel=12, data=[81, 104]),
   midi.ControlChangeEvent(tick=5, channel=12, data=[7, 112]),
   midi.NoteOnEvent(tick=15, channel=12, data=[81, 0]),
   midi.ControlChangeEvent(tick=0, channel=12, data=[7, 112]),
   midi.ControlChangeEvent(tick=20, channel=12, data=[7, 114]),
   midi.NoteOnEvent(tick=20, channel=12, data=[80, 104]),
   midi.NoteOnEvent(tick=20, channel=12, data=[80, 0]),
   midi.ControlChangeEvent(tick=55, channel=12, data=[7, 112]),
   midi.ControlChangeEvent(tick=20, channel=12, data=[7, 112]),
   midi.ControlChangeEvent(tick=15, channel=12, data=[7, 111]),
   midi.ControlChangeEvent(tick=20, channel=12, data=[7, 110]),
   midi.NoteOnEvent(tick=50, channel=12, data=[76, 104]),
   midi.ControlChangeEvent(tick=10, channel=12, data=[7, 110]),
   midi.NoteOnEvent(tick=10, channel=12, data=[76, 0]),
   midi.NoteOnEvent(tick=40, channel=12, data=[74, 104]),
   midi.NoteOnEvent(tick=20, channel=12, data=[74, 0]),
   midi.ControlChangeEvent(tick=100, channel=12, data=[7, 109]),
   midi.ControlChangeEvent(tick=20, channel=12, data=[7, 109]),
   midi.ControlChangeEvent(tick=15, channel=12, data=[7, 108]),
   midi.ControlChangeEvent(tick=20, channel=12, data=[7, 108]),
   midi.NoteOnEvent(tick=5, channel=12, data=[69, 104]),
   midi.NoteOnEvent(tick=20, channel=12, data=[69, 0]),
   midi.ControlChangeEvent(tick=0, channel=12, data=[7, 107]),
   midi.ControlChangeEvent(tick=25, channel=12, data=[7, 106]),
   midi.NoteOnEvent(tick=15, channel=12, data=[68, 104]),
   midi.NoteOnEvent(tick=20, channel=12, data=[68, 0]),
   midi.NoteOnEvent(tick=40, channel=12, data=[65, 104]),
   midi.NoteOnEvent(tick=20, channel=12, data=[65, 0]),
   midi.ControlChangeEvent(tick=5, channel=12, data=[7, 107]),
   midi.ControlChangeEvent(tick=15, channel=12, data=[7, 108]),
   midi.NoteOnEvent(tick=20, channel=12, data=[64, 104]),
   midi.ControlChangeEvent(tick=0, channel=12, data=[7, 109]),
   midi.ControlChangeEvent(tick=15, channel=12, data=[7, 111]),
   midi.NoteOnEvent(tick=5, channel=12, data=[64, 0]),
   midi.ControlChangeEvent(tick=15, channel=12, data=[7, 112]),
   midi.ControlChangeEvent(tick=15, channel=12, data=[7, 114]),
   midi.ControlChangeEvent(tick=170, channel=12, data=[7, 112]),
   midi.ControlChangeEvent(tick=15, channel=12, data=[7, 110]),
   midi.ControlChangeEvent(tick=20, channel=12, data=[7, 108]),
   midi.ControlChangeEvent(tick=20, channel=12, data=[7, 103]),
   midi.ControlChangeEvent(tick=20, channel=12, data=[7, 102]),
   midi.ControlChangeEvent(tick=175, channel=12, data=[7, 102]),
   midi.ControlChangeEvent(tick=30, channel=12, data=[7, 103]),
   midi.ControlChangeEvent(tick=20, channel=12, data=[7, 104]),
   midi.ControlChangeEvent(tick=20, channel=12, data=[7, 105]),
   midi.ControlChangeEvent(tick=20, channel=12, data=[7, 107]),
   midi.ControlChangeEvent(tick=125, channel=12, data=[7, 108]),
   midi.ControlChangeEvent(tick=325, channel=12, data=[7, 109]),
   midi.ControlChangeEvent(tick=20, channel=12, data=[7, 114]),
   midi.NoteOnEvent(tick=50, channel=12, data=[60, 94]),
   midi.NoteOnEvent(tick=30, channel=12, data=[60, 0]),
   midi.NoteOnEvent(tick=150, channel=12, data=[79, 104]),
   midi.NoteOnEvent(tick=20, channel=12, data=[79, 0]),
   midi.NoteOnEvent(tick=40, channel=12, data=[78, 104]),
   midi.NoteOnEvent(tick=20, channel=12, data=[78, 0]),
   midi.NoteOnEvent(tick=160, channel=12, data=[74, 104]),
   midi.NoteOnEvent(tick=20, channel=12, data=[74, 0]),
   midi.NoteOnEvent(tick=40, channel=12, data=[72, 104]),
   midi.NoteOnEvent(tick=20, channel=12, data=[72, 0]),
   midi.NoteOnEvent(tick=160, channel=12, data=[67, 104]),
   midi.NoteOnEvent(tick=20, channel=12, data=[67, 0]),
   midi.NoteOnEvent(tick=40, channel=12, data=[66, 104]),
   midi.NoteOnEvent(tick=20, channel=12, data=[66, 0]),
   midi.NoteOnEvent(tick=40, channel=12, data=[63, 104]),
   midi.NoteOnEvent(tick=20, channel=12, data=[63, 0]),
   midi.NoteOnEvent(tick=40, channel=12, data=[62, 104]),
   midi.NoteOnEvent(tick=20, channel=12, data=[62, 0]),
   midi.ControlChangeEvent(tick=80, channel=12, data=[7, 112]),
   midi.ControlChangeEvent(tick=20, channel=12, data=[7, 110]),
   midi.ControlChangeEvent(tick=15, channel=12, data=[7, 107]),
   midi.ControlChangeEvent(tick=20, channel=12, data=[7, 102]),
   midi.ControlChangeEvent(tick=20, channel=12, data=[7, 101]),
   midi.ControlChangeEvent(tick=20, channel=12, data=[7, 98]),
   midi.ControlChangeEvent(tick=20, channel=12, data=[7, 96]),
   midi.ControlChangeEvent(tick=20, channel=12, data=[7, 94]),
   midi.ControlChangeEvent(tick=15, channel=12, data=[7, 94]),
   midi.ControlChangeEvent(tick=20, channel=12, data=[7, 92]),
   midi.ControlChangeEvent(tick=15, channel=12, data=[7, 92]),
   midi.ControlChangeEvent(tick=15, channel=12, data=[7, 90]),
   midi.ControlChangeEvent(tick=20, channel=12, data=[7, 90]),
   midi.ControlChangeEvent(tick=20, channel=12, data=[7, 90]),
   midi.ControlChangeEvent(tick=20, channel=12, data=[7, 89]),
   midi.ControlChangeEvent(tick=15, channel=12, data=[7, 89]),
   midi.NoteOnEvent(tick=20, channel=12, data=[66, 109]),
   midi.NoteOnEvent(tick=15, channel=12, data=[66, 0]),
   midi.NoteOnEvent(tick=0, channel=12, data=[67, 109]),
   midi.NoteOnEvent(tick=15, channel=12, data=[67, 0]),
   midi.NoteOnEvent(tick=30, channel=12, data=[69, 109]),
   midi.NoteOnEvent(tick=15, channel=12, data=[69, 0]),
   midi.NoteOnEvent(tick=0, channel=12, data=[70, 109]),
   midi.NoteOnEvent(tick=15, channel=12, data=[70, 0]),
   midi.NoteOnEvent(tick=30, channel=12, data=[66, 109]),
   midi.NoteOnEvent(tick=15, channel=12, data=[66, 0]),
   midi.NoteOnEvent(tick=0, channel=12, data=[67, 109]),
   midi.NoteOnEvent(tick=15, channel=12, data=[67, 0]),
   midi.ControlChangeEvent(tick=200, channel=12, data=[7, 88]),
   midi.ControlChangeEvent(tick=50, channel=12, data=[7, 87]),
   midi.ControlChangeEvent(tick=210, channel=12, data=[7, 87]),
   midi.ControlChangeEvent(tick=720, channel=12, data=[7, 86]),
   midi.ControlChangeEvent(tick=35, channel=12, data=[7, 85]),
   midi.ControlChangeEvent(tick=280, channel=12, data=[7, 85]),
   midi.NoteOnEvent(tick=0, channel=12, data=[60, 94]),
   midi.ControlChangeEvent(tick=105, channel=12, data=[7, 75]),
   midi.ControlChangeEvent(tick=15, channel=12, data=[7, 75]),
   midi.ControlChangeEvent(tick=10, channel=12, data=[7, 76]),
   midi.ControlChangeEvent(tick=40, channel=12, data=[7, 76]),
   midi.ControlChangeEvent(tick=30, channel=12, data=[7, 77]),
   midi.ControlChangeEvent(tick=10, channel=12, data=[7, 78]),
   midi.ControlChangeEvent(tick=15, channel=12, data=[7, 79]),
   midi.ControlChangeEvent(tick=35, channel=12, data=[7, 79]),
   midi.ControlChangeEvent(tick=15, channel=12, data=[7, 80]),
   midi.ControlChangeEvent(tick=15, channel=12, data=[7, 81]),
   midi.NoteOnEvent(tick=10, channel=12, data=[60, 0]),
   midi.NoteOnEvent(tick=0, channel=12, data=[60, 94]),
   midi.ControlChangeEvent(tick=10, channel=12, data=[7, 81]),
   midi.ControlChangeEvent(tick=15, channel=12, data=[7, 81]),
   midi.ControlChangeEvent(tick=10, channel=12, data=[7, 83]),
   midi.ControlChangeEvent(tick=15, channel=12, data=[7, 83]),
   midi.NoteOnEvent(tick=5, channel=12, data=[60, 0]),
   midi.NoteOnEvent(tick=5, channel=12, data=[60, 94]),
   midi.ControlChangeEvent(tick=0, channel=12, data=[7, 83]),
   midi.ControlChangeEvent(tick=15, channel=12, data=[7, 84]),
   midi.ControlChangeEvent(tick=10, channel=12, data=[7, 86]),
   midi.ControlChangeEvent(tick=15, channel=12, data=[7, 87]),
   midi.NoteOnEvent(tick=15, channel=12, data=[60, 0]),
   midi.NoteOnEvent(tick=5, channel=12, data=[60, 94]),
   midi.ControlChangeEvent(tick=40, channel=12, data=[7, 86]),
   midi.NoteOnEvent(tick=15, channel=12, data=[60, 0]),
   midi.ControlChangeEvent(tick=0, channel=12, data=[7, 85]),
   midi.NoteOnEvent(tick=5, channel=12, data=[62, 94]),
   midi.ControlChangeEvent(tick=10, channel=12, data=[7, 83]),
   midi.ControlChangeEvent(tick=15, channel=12, data=[7, 83]),
   midi.ControlChangeEvent(tick=15, channel=12, data=[7, 83]),
   midi.ControlChangeEvent(tick=10, channel=12, data=[7, 83]),
   midi.ControlChangeEvent(tick=15, channel=12, data=[7, 81]),
   midi.ControlChangeEvent(tick=20, channel=12, data=[7, 81]),
   midi.ControlChangeEvent(tick=10, channel=12, data=[7, 81]),
   midi.ControlChangeEvent(tick=50, channel=12, data=[7, 81]),
   midi.ControlChangeEvent(tick=10, channel=12, data=[7, 83]),
   midi.ControlChangeEvent(tick=15, channel=12, data=[7, 83]),
   midi.ControlChangeEvent(tick=20, channel=12, data=[7, 83]),
   midi.ControlChangeEvent(tick=15, channel=12, data=[7, 83]),
   midi.ControlChangeEvent(tick=15, channel=12, data=[7, 83]),
   midi.ControlChangeEvent(tick=15, channel=12, data=[7, 84]),
   midi.ControlChangeEvent(tick=20, channel=12, data=[7, 85]),
   midi.ControlChangeEvent(tick=20, channel=12, data=[7, 86]),
   midi.ControlChangeEvent(tick=20, channel=12, data=[7, 87]),
   midi.NoteOnEvent(tick=5, channel=12, data=[62, 0]),
   midi.NoteOnEvent(tick=0, channel=12, data=[62, 94]),
   midi.ControlChangeEvent(tick=40, channel=12, data=[7, 87]),
   midi.NoteOnEvent(tick=15, channel=12, data=[62, 0]),
   midi.NoteOnEvent(tick=5, channel=12, data=[62, 94]),
   midi.ControlChangeEvent(tick=35, channel=12, data=[7, 88]),
   midi.NoteOnEvent(tick=20, channel=12, data=[62, 0]),
   midi.NoteOnEvent(tick=5, channel=12, data=[62, 94]),
   midi.NoteOnEvent(tick=55, channel=12, data=[62, 0]),
   midi.NoteOnEvent(tick=5, channel=12, data=[65, 94]),
   midi.ControlChangeEvent(tick=25, channel=12, data=[7, 87]),
   midi.ControlChangeEvent(tick=125, channel=12, data=[7, 88]),
   midi.ControlChangeEvent(tick=30, channel=12, data=[7, 89]),
   midi.ControlChangeEvent(tick=35, channel=12, data=[7, 89]),
   midi.ControlChangeEvent(tick=15, channel=12, data=[7, 90]),
   midi.ControlChangeEvent(tick=15, channel=12, data=[7, 90]),
   midi.ControlChangeEvent(tick=10, channel=12, data=[7, 90]),
   midi.NoteOnEvent(tick=10, channel=12, data=[65, 0]),
   midi.NoteOnEvent(tick=5, channel=12, data=[65, 94]),
   midi.ControlChangeEvent(tick=0, channel=12, data=[7, 92]),
   midi.ControlChangeEvent(tick=10, channel=12, data=[7, 93]),
   midi.NoteOnEvent(tick=15, channel=12, data=[65, 0]),
   midi.ControlChangeEvent(tick=0, channel=12, data=[7, 94]),
   midi.NoteOnEvent(tick=5, channel=12, data=[65, 94]),
   midi.ControlChangeEvent(tick=10, channel=12, data=[7, 94]),
   midi.ControlChangeEvent(tick=10, channel=12, data=[7, 96]),
   midi.NoteOnEvent(tick=5, channel=12, data=[65, 0]),
   midi.NoteOnEvent(tick=5, channel=12, data=[65, 94]),
   midi.ControlChangeEvent(tick=5, channel=12, data=[7, 96]),
   midi.ControlChangeEvent(tick=10, channel=12, data=[7, 96]),
   midi.NoteOnEvent(tick=10, channel=12, data=[65, 0]),
   midi.NoteOnEvent(tick=5, channel=12, data=[65, 94]),
   midi.ControlChangeEvent(tick=0, channel=12, data=[7, 96]),
   midi.ControlChangeEvent(tick=20, channel=12, data=[7, 98]),
   midi.NoteOnEvent(tick=5, channel=12, data=[65, 0]),
   midi.NoteOnEvent(tick=5, channel=12, data=[65, 94]),
   midi.ControlChangeEvent(tick=5, channel=12, data=[7, 98]),
   midi.NoteOnEvent(tick=20, channel=12, data=[65, 0]),
   midi.NoteOnEvent(tick=5, channel=12, data=[65, 94]),
   midi.ControlChangeEvent(tick=0, channel=12, data=[7, 99]),
   midi.ControlChangeEvent(tick=15, channel=12, data=[7, 99]),
   midi.NoteOnEvent(tick=10, channel=12, data=[65, 0]),
   midi.NoteOnEvent(tick=5, channel=12, data=[65, 94]),
   midi.ControlChangeEvent(tick=5, channel=12, data=[7, 100]),
   midi.ControlChangeEvent(tick=15, channel=12, data=[7, 101]),
   midi.NoteOnEvent(tick=5, channel=12, data=[65, 0]),
   midi.NoteOnEvent(tick=5, channel=12, data=[69, 105]),
   midi.ControlChangeEvent(tick=5, channel=12, data=[7, 101]),
   midi.ControlChangeEvent(tick=15, channel=12, data=[7, 101]),
   midi.NoteOnEvent(tick=5, channel=12, data=[69, 0]),
   midi.NoteOnEvent(tick=5, channel=12, data=[69, 105]),
   midi.ControlChangeEvent(tick=5, channel=12, data=[7, 101]),
   midi.ControlChangeEvent(tick=10, channel=12, data=[7, 102]),
   midi.NoteOnEvent(tick=10, channel=12, data=[69, 0]),
   midi.NoteOnEvent(tick=5, channel=12, data=[65, 105]),
   midi.ControlChangeEvent(tick=0, channel=12, data=[7, 102]),
   midi.ControlChangeEvent(tick=15, channel=12, data=[7, 104]),
   midi.NoteOnEvent(tick=10, channel=12, data=[65, 0]),
   midi.NoteOnEvent(tick=5, channel=12, data=[65, 105]),
   midi.ControlChangeEvent(tick=0, channel=12, data=[7, 105]),
   midi.ControlChangeEvent(tick=15, channel=12, data=[7, 106]),
   midi.NoteOnEvent(tick=10, channel=12, data=[65, 0]),
   midi.ControlChangeEvent(tick=0, channel=12, data=[7, 107]),
   midi.NoteOnEvent(tick=5, channel=12, data=[65, 105]),
   midi.NoteOnEvent(tick=25, channel=12, data=[65, 0]),
   midi.ControlChangeEvent(tick=0, channel=12, data=[7, 108]),
   midi.NoteOnEvent(tick=5, channel=12, data=[65, 105]),
   midi.ControlChangeEvent(tick=10, channel=12, data=[7, 108]),
   midi.NoteOnEvent(tick=15, channel=12, data=[65, 0]),
   midi.ControlChangeEvent(tick=0, channel=12, data=[7, 109]),
   midi.NoteOnEvent(tick=5, channel=12, data=[69, 105]),
   midi.ControlChangeEvent(tick=10, channel=12, data=[7, 109]),
   midi.NoteOnEvent(tick=15, channel=12, data=[69, 0]),
   midi.ControlChangeEvent(tick=0, channel=12, data=[7, 109]),
   midi.NoteOnEvent(tick=5, channel=12, data=[69, 105]),
   midi.ControlChangeEvent(tick=10, channel=12, data=[7, 110]),
   midi.NoteOnEvent(tick=15, channel=12, data=[69, 0]),
   midi.ControlChangeEvent(tick=0, channel=12, data=[7, 111]),
   midi.NoteOnEvent(tick=5, channel=12, data=[72, 105]),
   midi.ControlChangeEvent(tick=10, channel=12, data=[7, 112]),
   midi.NoteOnEvent(tick=15, channel=12, data=[72, 0]),
   midi.ControlChangeEvent(tick=0, channel=12, data=[7, 112]),
   midi.NoteOnEvent(tick=5, channel=12, data=[72, 105]),
   midi.ControlChangeEvent(tick=15, channel=12, data=[7, 112]),
   midi.NoteOnEvent(tick=10, channel=12, data=[72, 0]),
   midi.NoteOnEvent(tick=5, channel=12, data=[69, 105]),
   midi.ControlChangeEvent(tick=0, channel=12, data=[7, 114]),
   midi.NoteOnEvent(tick=25, channel=12, data=[69, 0]),
   midi.NoteOnEvent(tick=5, channel=12, data=[69, 105]),
   midi.NoteOnEvent(tick=25, channel=12, data=[69, 0]),
   midi.NoteOnEvent(tick=5, channel=12, data=[69, 105]),
   midi.NoteOnEvent(tick=25, channel=12, data=[69, 0]),
   midi.NoteOnEvent(tick=5, channel=12, data=[69, 105]),
   midi.NoteOnEvent(tick=25, channel=12, data=[69, 0]),
   midi.NoteOnEvent(tick=5, channel=12, data=[72, 105]),
   midi.NoteOnEvent(tick=25, channel=12, data=[72, 0]),
   midi.NoteOnEvent(tick=5, channel=12, data=[72, 105]),
   midi.NoteOnEvent(tick=25, channel=12, data=[72, 0]),
   midi.NoteOnEvent(tick=5, channel=12, data=[77, 94]),
   midi.NoteOnEvent(tick=55, channel=12, data=[77, 0]),
   midi.ControlChangeEvent(tick=410, channel=12, data=[7, 112]),
   midi.ControlChangeEvent(tick=10, channel=12, data=[7, 112]),
   midi.ControlChangeEvent(tick=15, channel=12, data=[7, 112]),
   midi.ControlChangeEvent(tick=10, channel=12, data=[7, 112]),
   midi.ControlChangeEvent(tick=10, channel=12, data=[7, 110]),
   midi.ControlChangeEvent(tick=10, channel=12, data=[7, 110]),
   midi.ControlChangeEvent(tick=10, channel=12, data=[7, 109]),
   midi.ControlChangeEvent(tick=15, channel=12, data=[7, 108]),
   midi.ControlChangeEvent(tick=10, channel=12, data=[7, 108]),
   midi.ControlChangeEvent(tick=10, channel=12, data=[7, 107]),
   midi.ControlChangeEvent(tick=10, channel=12, data=[7, 105]),
   midi.ControlChangeEvent(tick=15, channel=12, data=[7, 104]),
   midi.ControlChangeEvent(tick=10, channel=12, data=[7, 103]),
   midi.ControlChangeEvent(tick=10, channel=12, data=[7, 102]),
   midi.ControlChangeEvent(tick=15, channel=12, data=[7, 101]),
   midi.ControlChangeEvent(tick=10, channel=12, data=[7, 101]),
   midi.ControlChangeEvent(tick=10, channel=12, data=[7, 101]),
   midi.ControlChangeEvent(tick=20, channel=12, data=[7, 100]),
   midi.ControlChangeEvent(tick=15, channel=12, data=[7, 99]),
   midi.ControlChangeEvent(tick=15, channel=12, data=[7, 99]),
   midi.ControlChangeEvent(tick=10, channel=12, data=[7, 98]),
   midi.ControlChangeEvent(tick=10, channel=12, data=[7, 98]),
   midi.NoteOnEvent(tick=5, channel=12, data=[57, 78]),
   midi.ControlChangeEvent(tick=5, channel=12, data=[7, 96]),
   midi.ControlChangeEvent(tick=10, channel=12, data=[7, 96]),
   midi.ControlChangeEvent(tick=20, channel=12, data=[7, 96]),
   midi.ControlChangeEvent(tick=25, channel=12, data=[7, 96]),
   midi.ControlChangeEvent(tick=20, channel=12, data=[7, 96]),
   midi.ControlChangeEvent(tick=15, channel=12, data=[7, 94]),
   midi.ControlChangeEvent(tick=10, channel=12, data=[7, 94]),
   midi.NoteOnEvent(tick=15, channel=12, data=[57, 0]),
   midi.NoteOnEvent(tick=0, channel=12, data=[59, 78]),
   midi.ControlChangeEvent(tick=0, channel=12, data=[7, 94]),
   midi.ControlChangeEvent(tick=15, channel=12, data=[7, 93]),
   midi.ControlChangeEvent(tick=20, channel=12, data=[7, 92]),
   midi.ControlChangeEvent(tick=10, channel=12, data=[7, 92]),
   midi.ControlChangeEvent(tick=10, channel=12, data=[7, 90]),
   midi.ControlChangeEvent(tick=15, channel=12, data=[7, 90]),
   midi.ControlChangeEvent(tick=10, channel=12, data=[7, 90]),
   midi.ControlChangeEvent(tick=15, channel=12, data=[7, 89]),
   midi.ControlChangeEvent(tick=10, channel=12, data=[7, 89]),
   midi.ControlChangeEvent(tick=10, channel=12, data=[7, 87]),
   midi.NoteOnEvent(tick=5, channel=12, data=[59, 0]),
   midi.NoteOnEvent(tick=0, channel=12, data=[60, 78]),
   midi.ControlChangeEvent(tick=5, channel=12, data=[7, 85]),
   midi.ControlChangeEvent(tick=10, channel=12, data=[7, 83]),
   midi.ControlChangeEvent(tick=10, channel=12, data=[7, 83]),
   midi.ControlChangeEvent(tick=15, channel=12, data=[7, 83]),
   midi.ControlChangeEvent(tick=15, channel=12, data=[7, 83]),
   midi.ControlChangeEvent(tick=15, channel=12, data=[7, 81]),
   midi.ControlChangeEvent(tick=10, channel=12, data=[7, 81]),
   midi.ControlChangeEvent(tick=15, channel=12, data=[7, 81]),
   midi.ControlChangeEvent(tick=10, channel=12, data=[7, 81]),
   midi.ControlChangeEvent(tick=15, channel=12, data=[7, 80]),
   midi.NoteOnEvent(tick=5, channel=12, data=[60, 0]),
   midi.ControlChangeEvent(tick=5, channel=12, data=[7, 79]),
   midi.ControlChangeEvent(tick=15, channel=12, data=[7, 79]),
   midi.ControlChangeEvent(tick=20, channel=12, data=[7, 78]),
   midi.ControlChangeEvent(tick=30, channel=12, data=[7, 77]),
   midi.ControlChangeEvent(tick=425, channel=12, data=[7, 78]),
   midi.ControlChangeEvent(tick=35, channel=12, data=[7, 79]),
   midi.NoteOnEvent(tick=5, channel=12, data=[62, 78]),
   midi.ControlChangeEvent(tick=65, channel=12, data=[7, 79]),
   midi.ControlChangeEvent(tick=35, channel=12, data=[7, 80]),
   midi.ControlChangeEvent(tick=30, channel=12, data=[7, 81]),
   midi.ControlChangeEvent(tick=15, channel=12, data=[7, 81]),
   midi.ControlChangeEvent(tick=10, channel=12, data=[7, 81]),
   midi.ControlChangeEvent(tick=10, channel=12, data=[7, 83]),
   midi.ControlChangeEvent(tick=10, channel=12, data=[7, 83]),
   midi.ControlChangeEvent(tick=10, channel=12, data=[7, 83]),
   midi.ControlChangeEvent(tick=15, channel=12, data=[7, 83]),
   midi.ControlChangeEvent(tick=25, channel=12, data=[7, 83]),
   midi.ControlChangeEvent(tick=70, channel=12, data=[7, 83]),
   midi.NoteOnEvent(tick=5, channel=12, data=[62, 0]),
   midi.ControlChangeEvent(tick=5, channel=12, data=[7, 83]),
   midi.ControlChangeEvent(tick=15, channel=12, data=[7, 83]),
   midi.ControlChangeEvent(tick=15, channel=12, data=[7, 81]),
   midi.ControlChangeEvent(tick=15, channel=12, data=[7, 81]),
   midi.ControlChangeEvent(tick=40, channel=12, data=[7, 81]),
   midi.ControlChangeEvent(tick=70, channel=12, data=[7, 81]),
   midi.ControlChangeEvent(tick=370, channel=12, data=[7, 81]),
   midi.ControlChangeEvent(tick=30, channel=12, data=[7, 81]),
   midi.ControlChangeEvent(tick=25, channel=12, data=[7, 81]),
   midi.ControlChangeEvent(tick=25, channel=12, data=[7, 83]),
   midi.ControlChangeEvent(tick=15, channel=12, data=[7, 83]),
   midi.ControlChangeEvent(tick=15, channel=12, data=[7, 83]),
   midi.ControlChangeEvent(tick=10, channel=12, data=[7, 83]),
   midi.NoteOnEvent(tick=10, channel=12, data=[60, 78]),
   midi.ControlChangeEvent(tick=0, channel=12, data=[7, 83]),
   midi.ControlChangeEvent(tick=10, channel=12, data=[7, 84]),
   midi.ControlChangeEvent(tick=15, channel=12, data=[7, 85]),
   midi.ControlChangeEvent(tick=25, channel=12, data=[7, 86]),
   midi.NoteOnEvent(tick=10, channel=12, data=[60, 0]),
   midi.NoteOnEvent(tick=0, channel=12, data=[59, 78]),
   midi.ControlChangeEvent(tick=5, channel=12, data=[7, 87]),
   midi.ControlChangeEvent(tick=20, channel=12, data=[7, 87]),
   midi.ControlChangeEvent(tick=15, channel=12, data=[7, 88]),
   midi.ControlChangeEvent(tick=10, channel=12, data=[7, 89]),
   midi.ControlChangeEvent(tick=10, channel=12, data=[7, 90]),
   midi.ControlChangeEvent(tick=25, channel=12, data=[7, 90]),
   midi.ControlChangeEvent(tick=30, channel=12, data=[7, 90]),
   midi.ControlChangeEvent(tick=10, channel=12, data=[7, 89]),
   midi.ControlChangeEvent(tick=10, channel=12, data=[7, 89]),
   midi.ControlChangeEvent(tick=10, channel=12, data=[7, 88]),
   midi.ControlChangeEvent(tick=10, channel=12, data=[7, 87]),
   midi.ControlChangeEvent(tick=10, channel=12, data=[7, 86]),
   midi.ControlChangeEvent(tick=10, channel=12, data=[7, 85]),
   midi.ControlChangeEvent(tick=10, channel=12, data=[7, 84]),
   midi.ControlChangeEvent(tick=15, channel=12, data=[7, 83]),
   midi.ControlChangeEvent(tick=15, channel=12, data=[7, 83]),
   midi.NoteOnEvent(tick=25, channel=12, data=[60, 78]),
   midi.NoteOnEvent(tick=5, channel=12, data=[59, 0]),
   midi.ControlChangeEvent(tick=45, channel=12, data=[7, 83]),
   midi.ControlChangeEvent(tick=15, channel=12, data=[7, 84]),
   midi.ControlChangeEvent(tick=15, channel=12, data=[7, 85]),
   midi.ControlChangeEvent(tick=10, channel=12, data=[7, 86]),
   midi.ControlChangeEvent(tick=5, channel=12, data=[7, 87]),
   midi.ControlChangeEvent(tick=10, channel=12, data=[7, 87]),
   midi.ControlChangeEvent(tick=10, channel=12, data=[7, 88]),
   midi.ControlChangeEvent(tick=30, channel=12, data=[7, 87]),
   midi.ControlChangeEvent(tick=70, channel=12, data=[7, 87]),
   midi.ControlChangeEvent(tick=90, channel=12, data=[7, 87]),
   midi.ControlChangeEvent(tick=10, channel=12, data=[7, 88]),
   midi.ControlChangeEvent(tick=10, channel=12, data=[7, 89]),
   midi.ControlChangeEvent(tick=10, channel=12, data=[7, 89]),
   midi.ControlChangeEvent(tick=15, channel=12, data=[7, 90]),
   midi.ControlChangeEvent(tick=15, channel=12, data=[7, 90]),
   midi.ControlChangeEvent(tick=20, channel=12, data=[7, 90]),
   midi.ControlChangeEvent(tick=25, channel=12, data=[7, 92]),
   midi.ControlChangeEvent(tick=55, channel=12, data=[7, 90]),
   midi.ControlChangeEvent(tick=70, channel=12, data=[7, 92]),
   midi.ControlChangeEvent(tick=20, channel=12, data=[7, 92]),
   midi.ControlChangeEvent(tick=20, channel=12, data=[7, 93]),
   midi.ControlChangeEvent(tick=20, channel=12, data=[7, 94]),
   midi.ControlChangeEvent(tick=10, channel=12, data=[7, 94]),
   midi.ControlChangeEvent(tick=10, channel=12, data=[7, 94]),
   midi.ControlChangeEvent(tick=10, channel=12, data=[7, 96]),
   midi.ControlChangeEvent(tick=10, channel=12, data=[7, 96]),
   midi.ControlChangeEvent(tick=15, channel=12, data=[7, 96]),
   midi.NoteOnEvent(tick=10, channel=12, data=[60, 0]),
   midi.NoteOnEvent(tick=0, channel=12, data=[72, 78]),
   midi.ControlChangeEvent(tick=5, channel=12, data=[7, 96]),
   midi.ControlChangeEvent(tick=5, channel=12, data=[7, 96]),
   midi.ControlChangeEvent(tick=30, channel=12, data=[7, 98]),
   midi.NoteOnEvent(tick=20, channel=12, data=[72, 0]),
   midi.NoteOnEvent(tick=0, channel=12, data=[71, 78]),
   midi.ControlChangeEvent(tick=0, channel=12, data=[7, 98]),
   midi.ControlChangeEvent(tick=5, channel=12, data=[7, 99]),
   midi.ControlChangeEvent(tick=15, channel=12, data=[7, 99]),
   midi.ControlChangeEvent(tick=130, channel=12, data=[7, 99]),
   midi.ControlChangeEvent(tick=10, channel=12, data=[7, 98]),
   midi.ControlChangeEvent(tick=0, channel=12, data=[7, 96]),
   midi.ControlChangeEvent(tick=10, channel=12, data=[7, 96]),
   midi.ControlChangeEvent(tick=5, channel=12, data=[7, 96]),
   midi.ControlChangeEvent(tick=5, channel=12, data=[7, 94]),
   midi.ControlChangeEvent(tick=5, channel=12, data=[7, 94]),
   midi.ControlChangeEvent(tick=5, channel=12, data=[7, 93]),
   midi.NoteOnEvent(tick=5, channel=12, data=[71, 0]),
   midi.ControlChangeEvent(tick=0, channel=12, data=[7, 92]),
   midi.ControlChangeEvent(tick=5, channel=12, data=[7, 92]),
   midi.ControlChangeEvent(tick=5, channel=12, data=[7, 90]),
   midi.ControlChangeEvent(tick=5, channel=12, data=[7, 90]),
   midi.ControlChangeEvent(tick=5, channel=12, data=[7, 90]),
   midi.NoteOnEvent(tick=25, channel=12, data=[60, 78]),
   midi.ControlChangeEvent(tick=50, channel=12, data=[7, 90]),
   midi.ControlChangeEvent(tick=5, channel=12, data=[7, 90]),
   midi.ControlChangeEvent(tick=10, channel=12, data=[7, 92]),
   midi.ControlChangeEvent(tick=5, channel=12, data=[7, 92]),
   midi.ControlChangeEvent(tick=5, channel=12, data=[7, 93]),
   midi.ControlChangeEvent(tick=10, channel=12, data=[7, 94]),
   midi.ControlChangeEvent(tick=5, channel=12, data=[7, 94]),
   midi.ControlChangeEvent(tick=5, channel=12, data=[7, 94]),
   midi.ControlChangeEvent(tick=10, channel=12, data=[7, 96]),
   midi.ControlChangeEvent(tick=5, channel=12, data=[7, 96]),
   midi.NoteOnEvent(tick=10, channel=12, data=[60, 0]),
   midi.ControlChangeEvent(tick=0, channel=12, data=[7, 96]),
   midi.NoteOnEvent(tick=0, channel=12, data=[62, 78]),
   midi.ControlChangeEvent(tick=5, channel=12, data=[7, 96]),
   midi.ControlChangeEvent(tick=5, channel=12, data=[7, 98]),
   midi.ControlChangeEvent(tick=10, channel=12, data=[7, 98]),
   midi.ControlChangeEvent(tick=5, channel=12, data=[7, 99]),
   midi.ControlChangeEvent(tick=15, channel=12, data=[7, 99]),
   midi.ControlChangeEvent(tick=10, channel=12, data=[7, 100]),
   midi.ControlChangeEvent(tick=10, channel=12, data=[7, 101]),
   midi.ControlChangeEvent(tick=5, channel=12, data=[7, 101]),
   midi.ControlChangeEvent(tick=10, channel=12, data=[7, 101]),
   midi.ControlChangeEvent(tick=5, channel=12, data=[7, 101]),
   midi.ControlChangeEvent(tick=10, channel=12, data=[7, 102]),
   midi.ControlChangeEvent(tick=5, channel=12, data=[7, 102]),
   midi.ControlChangeEvent(tick=10, channel=12, data=[7, 103]),
   midi.ControlChangeEvent(tick=5, channel=12, data=[7, 104]),
   midi.NoteOnEvent(tick=10, channel=12, data=[62, 0]),
   midi.ControlChangeEvent(tick=0, channel=12, data=[7, 106]),
   midi.NoteOnEvent(tick=0, channel=12, data=[67, 78]),
   midi.ControlChangeEvent(tick=5, channel=12, data=[7, 107]),
   midi.ControlChangeEvent(tick=10, channel=12, data=[7, 108]),
   midi.ControlChangeEvent(tick=10, channel=12, data=[7, 109]),
   midi.ControlChangeEvent(tick=5, channel=12, data=[7, 109]),
   midi.ControlChangeEvent(tick=10, channel=12, data=[7, 109]),
   midi.ControlChangeEvent(tick=10, channel=12, data=[7, 110]),
   midi.ControlChangeEvent(tick=5, channel=12, data=[7, 111]),
   midi.ControlChangeEvent(tick=10, channel=12, data=[7, 112]),
   midi.ControlChangeEvent(tick=10, channel=12, data=[7, 112]),
   midi.ControlChangeEvent(tick=10, channel=12, data=[7, 112]),
   midi.ControlChangeEvent(tick=5, channel=12, data=[7, 114]),
   midi.NoteOnEvent(tick=150, channel=12, data=[66, 78]),
   midi.NoteOnEvent(tick=5, channel=12, data=[67, 0]),
   midi.ControlChangeEvent(tick=0, channel=12, data=[7, 112]),
   midi.ControlChangeEvent(tick=10, channel=12, data=[7, 112]),
   midi.ControlChangeEvent(tick=10, channel=12, data=[7, 111]),
   midi.ControlChangeEvent(tick=5, channel=12, data=[7, 109]),
   midi.ControlChangeEvent(tick=10, channel=12, data=[7, 108]),
   midi.ControlChangeEvent(tick=10, channel=12, data=[7, 107]),
   midi.ControlChangeEvent(tick=5, channel=12, data=[7, 106]),
   midi.ControlChangeEvent(tick=10, channel=12, data=[7, 103]),
   midi.ControlChangeEvent(tick=10, channel=12, data=[7, 102]),
   midi.ControlChangeEvent(tick=5, channel=12, data=[7, 101]),
   midi.ControlChangeEvent(tick=10, channel=12, data=[7, 101]),
   midi.ControlChangeEvent(tick=5, channel=12, data=[7, 100]),
   midi.ControlChangeEvent(tick=10, channel=12, data=[7, 99]),
   midi.ControlChangeEvent(tick=10, channel=12, data=[7, 98]),
   midi.ControlChangeEvent(tick=5, channel=12, data=[7, 98]),
   midi.ControlChangeEvent(tick=5, channel=12, data=[7, 96]),
   midi.ControlChangeEvent(tick=5, channel=12, data=[7, 96]),
   midi.ControlChangeEvent(tick=5, channel=12, data=[7, 94]),
   midi.ControlChangeEvent(tick=10, channel=12, data=[7, 94]),
   midi.ControlChangeEvent(tick=5, channel=12, data=[7, 94]),
   midi.ControlChangeEvent(tick=5, channel=12, data=[7, 92]),
   midi.ControlChangeEvent(tick=5, channel=12, data=[7, 92]),
   midi.ControlChangeEvent(tick=5, channel=12, data=[7, 90]),
   midi.ControlChangeEvent(tick=5, channel=12, data=[7, 90]),
   midi.ControlChangeEvent(tick=5, channel=12, data=[7, 89]),
   midi.ControlChangeEvent(tick=5, channel=12, data=[7, 89]),
   midi.ControlChangeEvent(tick=5, channel=12, data=[7, 88]),
   midi.ControlChangeEvent(tick=5, channel=12, data=[7, 87]),
   midi.ControlChangeEvent(tick=10, channel=12, data=[7, 87]),
   midi.ControlChangeEvent(tick=25, channel=12, data=[7, 86]),
   midi.ControlChangeEvent(tick=10, channel=12, data=[7, 85]),
   midi.NoteOnEvent(tick=5, channel=12, data=[66, 0]),
   midi.NoteOnEvent(tick=0, channel=12, data=[62, 78]),
   midi.ControlChangeEvent(tick=10, channel=12, data=[7, 84]),
   midi.ControlChangeEvent(tick=15, channel=12, data=[7, 83]),
   midi.NoteOnEvent(tick=185, channel=12, data=[62, 0]),
   midi.ControlChangeEvent(tick=90, channel=12, data=[7, 83]),
   midi.NoteOnEvent(tick=180, channel=12, data=[56, 78]),
   midi.NoteOnEvent(tick=120, channel=12, data=[56, 0]),
   midi.NoteOnEvent(tick=0, channel=12, data=[57, 78]),
   midi.ControlChangeEvent(tick=80, channel=12, data=[7, 83]),
   midi.ControlChangeEvent(tick=15, channel=12, data=[7, 84]),
   midi.ControlChangeEvent(tick=10, channel=12, data=[7, 85]),
   midi.NoteOnEvent(tick=15, channel=12, data=[57, 0]),
   midi.ControlChangeEvent(tick=15, channel=12, data=[7, 86]),
   midi.ControlChangeEvent(tick=10, channel=12, data=[7, 87]),
   midi.ControlChangeEvent(tick=15, channel=12, data=[7, 87]),
   midi.ControlChangeEvent(tick=10, channel=12, data=[7, 88]),
   midi.ControlChangeEvent(tick=10, channel=12, data=[7, 89]),
   midi.ControlChangeEvent(tick=10, channel=12, data=[7, 89]),
   midi.ControlChangeEvent(tick=15, channel=12, data=[7, 90]),
   midi.ControlChangeEvent(tick=10, channel=12, data=[7, 90]),
   midi.ControlChangeEvent(tick=10, channel=12, data=[7, 92]),
   midi.ControlChangeEvent(tick=15, channel=12, data=[7, 94]),
   midi.ControlChangeEvent(tick=10, channel=12, data=[7, 94]),
   midi.NoteOnEvent(tick=110, channel=12, data=[58, 78]),
   midi.NoteOnEvent(tick=120, channel=12, data=[58, 0]),
   midi.NoteOnEvent(tick=0, channel=12, data=[59, 78]),
   midi.ControlChangeEvent(tick=60, channel=12, data=[7, 94]),
   midi.NoteOnEvent(tick=60, channel=12, data=[59, 0]),
   midi.ControlChangeEvent(tick=40, channel=12, data=[7, 96]),
   midi.ControlChangeEvent(tick=50, channel=12, data=[7, 96]),
   midi.ControlChangeEvent(tick=35, channel=12, data=[7, 96]),
   midi.ControlChangeEvent(tick=25, channel=12, data=[7, 96]),
   midi.ControlChangeEvent(tick=25, channel=12, data=[7, 96]),
   midi.ControlChangeEvent(tick=55, channel=12, data=[7, 98]),
   midi.NoteOnEvent(tick=10, channel=12, data=[63, 78]),
   midi.ControlChangeEvent(tick=5, channel=12, data=[7, 98]),
   midi.ControlChangeEvent(tick=10, channel=12, data=[7, 99]),
   midi.ControlChangeEvent(tick=10, channel=12, data=[7, 99]),
   midi.ControlChangeEvent(tick=10, channel=12, data=[7, 100]),
   midi.ControlChangeEvent(tick=15, channel=12, data=[7, 101]),
   midi.ControlChangeEvent(tick=10, channel=12, data=[7, 101]),
   midi.ControlChangeEvent(tick=10, channel=12, data=[7, 101]),
   midi.ControlChangeEvent(tick=30, channel=12, data=[7, 101]),
   midi.ControlChangeEvent(tick=15, channel=12, data=[7, 102]),
   midi.NoteOnEvent(tick=5, channel=12, data=[63, 0]),
   midi.NoteOnEvent(tick=0, channel=12, data=[64, 78]),
   midi.ControlChangeEvent(tick=5, channel=12, data=[7, 102]),
   midi.ControlChangeEvent(tick=10, channel=12, data=[7, 103]),
   midi.ControlChangeEvent(tick=5, channel=12, data=[7, 104]),
   midi.ControlChangeEvent(tick=10, channel=12, data=[7, 105]),
   midi.ControlChangeEvent(tick=5, channel=12, data=[7, 106]),
   midi.ControlChangeEvent(tick=15, channel=12, data=[7, 107]),
   midi.ControlChangeEvent(tick=10, channel=12, data=[7, 108]),
   midi.ControlChangeEvent(tick=10, channel=12, data=[7, 108]),
   midi.ControlChangeEvent(tick=10, channel=12, data=[7, 109]),
   midi.ControlChangeEvent(tick=15, channel=12, data=[7, 109]),
   midi.ControlChangeEvent(tick=10, channel=12, data=[7, 109]),
   midi.ControlChangeEvent(tick=30, channel=12, data=[7, 110]),
   midi.NoteOnEvent(tick=105, channel=12, data=[62, 78]),
   midi.NoteOnEvent(tick=5, channel=12, data=[64, 0]),
   midi.ControlChangeEvent(tick=25, channel=12, data=[7, 109]),
   midi.ControlChangeEvent(tick=20, channel=12, data=[7, 109]),
   midi.ControlChangeEvent(tick=35, channel=12, data=[7, 109]),
   midi.NoteOnEvent(tick=35, channel=12, data=[62, 0]),
   midi.NoteOnEvent(tick=0, channel=12, data=[65, 78]),
   midi.ControlChangeEvent(tick=35, channel=12, data=[7, 108]),
   midi.ControlChangeEvent(tick=10, channel=12, data=[7, 108]),
   midi.ControlChangeEvent(tick=10, channel=12, data=[7, 107]),
   midi.ControlChangeEvent(tick=5, channel=12, data=[7, 106]),
   midi.ControlChangeEvent(tick=5, channel=12, data=[7, 104]),
   midi.ControlChangeEvent(tick=5, channel=12, data=[7, 102]),
   midi.ControlChangeEvent(tick=10, channel=12, data=[7, 102]),
   midi.ControlChangeEvent(tick=5, channel=12, data=[7, 101]),
   midi.ControlChangeEvent(tick=5, channel=12, data=[7, 101]),
   midi.ControlChangeEvent(tick=5, channel=12, data=[7, 101]),
   midi.ControlChangeEvent(tick=10, channel=12, data=[7, 99]),
   midi.ControlChangeEvent(tick=5, channel=12, data=[7, 98]),
   midi.ControlChangeEvent(tick=5, channel=12, data=[7, 96]),
   midi.ControlChangeEvent(tick=5, channel=12, data=[7, 96]),
   midi.ControlChangeEvent(tick=5, channel=12, data=[7, 96]),
   midi.ControlChangeEvent(tick=10, channel=12, data=[7, 94]),
   midi.ControlChangeEvent(tick=5, channel=12, data=[7, 94]),
   midi.ControlChangeEvent(tick=5, channel=12, data=[7, 93]),
   midi.ControlChangeEvent(tick=5, channel=12, data=[7, 92]),
   midi.ControlChangeEvent(tick=5, channel=12, data=[7, 90]),
   midi.ControlChangeEvent(tick=5, channel=12, data=[7, 90]),
   midi.ControlChangeEvent(tick=10, channel=12, data=[7, 89]),
   midi.ControlChangeEvent(tick=5, channel=12, data=[7, 87]),
   midi.ControlChangeEvent(tick=5, channel=12, data=[7, 87]),
   midi.ControlChangeEvent(tick=5, channel=12, data=[7, 85]),
   midi.ControlChangeEvent(tick=5, channel=12, data=[7, 84]),
   midi.ControlChangeEvent(tick=10, channel=12, data=[7, 83]),
   midi.ControlChangeEvent(tick=10, channel=12, data=[7, 83]),
   midi.ControlChangeEvent(tick=5, channel=12, data=[7, 83]),
   midi.ControlChangeEvent(tick=5, channel=12, data=[7, 83]),
   midi.ControlChangeEvent(tick=5, channel=12, data=[7, 83]),
   midi.ControlChangeEvent(tick=10, channel=12, data=[7, 81]),
   midi.NoteOnEvent(tick=5, channel=12, data=[55, 91]),
   midi.ControlChangeEvent(tick=0, channel=12, data=[7, 81]),
   midi.NoteOnEvent(tick=5, channel=12, data=[65, 0]),
   midi.ControlChangeEvent(tick=5, channel=12, data=[7, 81]),
   midi.ControlChangeEvent(tick=10, channel=12, data=[7, 81]),
   midi.ControlChangeEvent(tick=10, channel=12, data=[7, 80]),
   midi.NoteOnEvent(tick=10, channel=12, data=[55, 0]),
   midi.ControlChangeEvent(tick=5, channel=12, data=[7, 79]),
   midi.ControlChangeEvent(tick=25, channel=12, data=[7, 79]),
   midi.NoteOnEvent(tick=410, channel=12, data=[57, 91]),
   midi.NoteOnEvent(tick=40, channel=12, data=[57, 0]),
   midi.ControlChangeEvent(tick=35, channel=12, data=[7, 79]),
   midi.ControlChangeEvent(tick=15, channel=12, data=[7, 80]),
   midi.ControlChangeEvent(tick=10, channel=12, data=[7, 81]),
   midi.ControlChangeEvent(tick=15, channel=12, data=[7, 81]),
   midi.ControlChangeEvent(tick=15, channel=12, data=[7, 81]),
   midi.ControlChangeEvent(tick=20, channel=12, data=[7, 81]),
   midi.ControlChangeEvent(tick=20, channel=12, data=[7, 83]),
   midi.ControlChangeEvent(tick=15, channel=12, data=[7, 83]),
   midi.ControlChangeEvent(tick=20, channel=12, data=[7, 83]),
   midi.ControlChangeEvent(tick=25, channel=12, data=[7, 83]),
   midi.ControlChangeEvent(tick=25, channel=12, data=[7, 83]),
   midi.ControlChangeEvent(tick=20, channel=12, data=[7, 84]),
   midi.ControlChangeEvent(tick=15, channel=12, data=[7, 85]),
   midi.ControlChangeEvent(tick=10, channel=12, data=[7, 86]),
   midi.ControlChangeEvent(tick=15, channel=12, data=[7, 87]),
   midi.ControlChangeEvent(tick=15, channel=12, data=[7, 87]),
   midi.ControlChangeEvent(tick=15, channel=12, data=[7, 88]),
   midi.ControlChangeEvent(tick=25, channel=12, data=[7, 89]),
   midi.ControlChangeEvent(tick=20, channel=12, data=[7, 89]),
   midi.ControlChangeEvent(tick=25, channel=12, data=[7, 90]),
   midi.ControlChangeEvent(tick=20, channel=12, data=[7, 90]),
   midi.ControlChangeEvent(tick=20, channel=12, data=[7, 90]),
   midi.ControlChangeEvent(tick=20, channel=12, data=[7, 92]),
   midi.NoteOnEvent(tick=5, channel=12, data=[59, 91]),
   midi.ControlChangeEvent(tick=10, channel=12, data=[7, 92]),
   midi.ControlChangeEvent(tick=10, channel=12, data=[7, 93]),
   midi.NoteOnEvent(tick=20, channel=12, data=[59, 0]),
   midi.ControlChangeEvent(tick=5, channel=12, data=[7, 94]),
   midi.ControlChangeEvent(tick=15, channel=12, data=[7, 94]),
   midi.ControlChangeEvent(tick=15, channel=12, data=[7, 94]),
   midi.ControlChangeEvent(tick=20, channel=12, data=[7, 96]),
   midi.ControlChangeEvent(tick=30, channel=12, data=[7, 96]),
   midi.ControlChangeEvent(tick=10, channel=12, data=[7, 96]),
   midi.ControlChangeEvent(tick=15, channel=12, data=[7, 96]),
   midi.ControlChangeEvent(tick=15, channel=12, data=[7, 96]),
   midi.ControlChangeEvent(tick=15, channel=12, data=[7, 98]),
   midi.ControlChangeEvent(tick=15, channel=12, data=[7, 98]),
   midi.ControlChangeEvent(tick=20, channel=12, data=[7, 99]),
   midi.NoteOnEvent(tick=25, channel=12, data=[63, 91]),
   midi.ControlChangeEvent(tick=10, channel=12, data=[7, 99]),
   midi.ControlChangeEvent(tick=20, channel=12, data=[7, 100]),
   midi.NoteOnEvent(tick=10, channel=12, data=[63, 0]),
   midi.ControlChangeEvent(tick=20, channel=12, data=[7, 101]),
   midi.ControlChangeEvent(tick=60, channel=12, data=[7, 101]),
   midi.ControlChangeEvent(tick=30, channel=12, data=[7, 101]),
   midi.ControlChangeEvent(tick=30, channel=12, data=[7, 101]),
   midi.ControlChangeEvent(tick=30, channel=12, data=[7, 102]),
   midi.NoteOnEvent(tick=30, channel=12, data=[60, 89]),
   midi.ControlChangeEvent(tick=0, channel=12, data=[7, 102]),
   midi.ControlChangeEvent(tick=30, channel=12, data=[7, 103]),
   midi.NoteOnEvent(tick=10, channel=12, data=[60, 0]),
   midi.ControlChangeEvent(tick=95, channel=12, data=[7, 102]),
   midi.ControlChangeEvent(tick=20, channel=12, data=[7, 102]),
   midi.ControlChangeEvent(tick=35, channel=12, data=[7, 101]),
   midi.ControlChangeEvent(tick=5, channel=12, data=[7, 101]),
   midi.ControlChangeEvent(tick=15, channel=12, data=[7, 101]),
   midi.ControlChangeEvent(tick=10, channel=12, data=[7, 101]),
   midi.NoteOnEvent(tick=20, channel=12, data=[59, 76]),
   midi.ControlChangeEvent(tick=0, channel=12, data=[7, 100]),
   midi.ControlChangeEvent(tick=10, channel=12, data=[7, 99]),
   midi.ControlChangeEvent(tick=15, channel=12, data=[7, 99]),
   midi.ControlChangeEvent(tick=65, channel=12, data=[7, 99]),
   midi.ControlChangeEvent(tick=10, channel=12, data=[7, 100]),
   midi.ControlChangeEvent(tick=15, channel=12, data=[7, 101]),
   midi.ControlChangeEvent(tick=15, channel=12, data=[7, 101]),
   midi.ControlChangeEvent(tick=15, channel=12, data=[7, 101]),
   midi.ControlChangeEvent(tick=15, channel=12, data=[7, 101]),
   midi.ControlChangeEvent(tick=25, channel=12, data=[7, 102]),
   midi.ControlChangeEvent(tick=15, channel=12, data=[7, 102]),
   midi.ControlChangeEvent(tick=15, channel=12, data=[7, 103]),
   midi.ControlChangeEvent(tick=95, channel=12, data=[7, 104]),
   midi.NoteOnEvent(tick=50, channel=12, data=[59, 0]),
   midi.NoteOnEvent(tick=0, channel=12, data=[60, 79]),
   midi.ControlChangeEvent(tick=5, channel=12, data=[7, 103]),
   midi.ControlChangeEvent(tick=15, channel=12, data=[7, 102]),
   midi.ControlChangeEvent(tick=65, channel=12, data=[7, 103]),
   midi.ControlChangeEvent(tick=15, channel=12, data=[7, 104]),
   midi.NoteOnEvent(tick=10, channel=12, data=[60, 0]),
   midi.ControlChangeEvent(tick=0, channel=12, data=[7, 105]),
   midi.NoteOnEvent(tick=10, channel=12, data=[61, 81]),
   midi.ControlChangeEvent(tick=0, channel=12, data=[7, 106]),
   midi.ControlChangeEvent(tick=15, channel=12, data=[7, 107]),
   midi.ControlChangeEvent(tick=15, channel=12, data=[7, 108]),
   midi.ControlChangeEvent(tick=35, channel=12, data=[7, 108]),
   midi.ControlChangeEvent(tick=35, channel=12, data=[7, 109]),
   midi.ControlChangeEvent(tick=115, channel=12, data=[7, 109]),
   midi.ControlChangeEvent(tick=80, channel=12, data=[7, 109]),
   midi.ControlChangeEvent(tick=30, channel=12, data=[7, 110]),
   midi.ControlChangeEvent(tick=15, channel=12, data=[7, 110]),
   midi.NoteOnEvent(tick=20, channel=12, data=[61, 0]),
   midi.NoteOnEvent(tick=0, channel=12, data=[62, 85]),
   midi.ControlChangeEvent(tick=15, channel=12, data=[7, 111]),
   midi.ControlChangeEvent(tick=75, channel=12, data=[7, 112]),
   midi.NoteOnEvent(tick=20, channel=12, data=[62, 0]),
   midi.ControlChangeEvent(tick=0, channel=12, data=[7, 112]),
   midi.NoteOnEvent(tick=10, channel=12, data=[63, 86]),
   midi.ControlChangeEvent(tick=20, channel=12, data=[7, 112]),
   midi.ControlChangeEvent(tick=20, channel=12, data=[7, 112]),
   midi.ControlChangeEvent(tick=10, channel=12, data=[7, 114]),
   midi.NoteOnEvent(tick=70, channel=12, data=[63, 0]),
   midi.NoteOnEvent(tick=0, channel=12, data=[64, 88]),
   midi.NoteOnEvent(tick=110, channel=12, data=[64, 0]),
   midi.NoteOnEvent(tick=10, channel=12, data=[65, 104]),
   midi.NoteOnEvent(tick=40, channel=12, data=[65, 0]),
   midi.ProgramChangeEvent(tick=2810, channel=12, data=[44]),
   midi.ControlChangeEvent(tick=30, channel=12, data=[7, 114]),
   midi.NoteOnEvent(tick=0, channel=12, data=[72, 118]),
   midi.NoteOnEvent(tick=200, channel=12, data=[72, 0]),
   midi.NoteOnEvent(tick=40, channel=12, data=[67, 118]),
   midi.ControlChangeEvent(tick=40, channel=12, data=[7, 112]),
   midi.ControlChangeEvent(tick=20, channel=12, data=[7, 112]),
   midi.ControlChangeEvent(tick=20, channel=12, data=[7, 111]),
   midi.NoteOnEvent(tick=35, channel=12, data=[67, 0]),
   midi.NoteOnEvent(tick=5, channel=12, data=[67, 118]),
   midi.NoteOnEvent(tick=80, channel=12, data=[67, 0]),
   midi.NoteOnEvent(tick=0, channel=12, data=[71, 118]),
   midi.NoteOnEvent(tick=40, channel=12, data=[71, 0]),
   midi.NoteOnEvent(tick=0, channel=12, data=[72, 118]),
   midi.NoteOnEvent(tick=40, channel=12, data=[72, 0]),
   midi.NoteOnEvent(tick=0, channel=12, data=[72, 118]),
   midi.ControlChangeEvent(tick=30, channel=12, data=[7, 110]),
   midi.NoteOnEvent(tick=10, channel=12, data=[72, 0]),
   midi.NoteOnEvent(tick=0, channel=12, data=[71, 118]),
   midi.NoteOnEvent(tick=40, channel=12, data=[71, 0]),
   midi.NoteOnEvent(tick=0, channel=12, data=[67, 118]),
   midi.NoteOnEvent(tick=40, channel=12, data=[67, 0]),
   midi.NoteOnEvent(tick=0, channel=12, data=[67, 118]),
   midi.NoteOnEvent(tick=40, channel=12, data=[67, 0]),
   midi.NoteOnEvent(tick=0, channel=12, data=[71, 118]),
   midi.NoteOnEvent(tick=40, channel=12, data=[71, 0]),
   midi.NoteOnEvent(tick=0, channel=12, data=[72, 118]),
   midi.NoteOnEvent(tick=40, channel=12, data=[72, 0]),
   midi.NoteOnEvent(tick=0, channel=12, data=[72, 118]),
   midi.NoteOnEvent(tick=40, channel=12, data=[72, 0]),
   midi.NoteOnEvent(tick=0, channel=12, data=[71, 118]),
   midi.NoteOnEvent(tick=40, channel=12, data=[71, 0]),
   midi.NoteOnEvent(tick=0, channel=12, data=[67, 118]),
   midi.NoteOnEvent(tick=40, channel=12, data=[67, 0]),
   midi.NoteOnEvent(tick=0, channel=12, data=[67, 118]),
   midi.NoteOnEvent(tick=40, channel=12, data=[67, 0]),
   midi.NoteOnEvent(tick=0, channel=12, data=[71, 118]),
   midi.NoteOnEvent(tick=40, channel=12, data=[71, 0]),
   midi.NoteOnEvent(tick=0, channel=12, data=[72, 118]),
   midi.ControlChangeEvent(tick=5, channel=12, data=[7, 111]),
   midi.ControlChangeEvent(tick=15, channel=12, data=[7, 114]),
   midi.NoteOnEvent(tick=20, channel=12, data=[72, 0]),
   midi.ControlChangeEvent(tick=75, channel=12, data=[7, 112]),
   midi.ControlChangeEvent(tick=20, channel=12, data=[7, 108]),
   midi.ControlChangeEvent(tick=20, channel=12, data=[7, 101]),
   midi.ControlChangeEvent(tick=20, channel=12, data=[7, 98]),
   midi.ControlChangeEvent(tick=20, channel=12, data=[7, 96]),
   midi.ControlChangeEvent(tick=35, channel=12, data=[7, 96]),
   midi.NoteOnEvent(tick=10, channel=12, data=[67, 118]),
   midi.ControlChangeEvent(tick=20, channel=12, data=[7, 96]),
   midi.ControlChangeEvent(tick=20, channel=12, data=[7, 96]),
   midi.ControlChangeEvent(tick=160, channel=12, data=[7, 94]),
   midi.ControlChangeEvent(tick=20, channel=12, data=[7, 94]),
   midi.NoteOnEvent(tick=20, channel=12, data=[67, 0]),
   midi.NoteOnEvent(tick=0, channel=12, data=[69, 118]),
   midi.ControlChangeEvent(tick=0, channel=12, data=[7, 94]),
   midi.ControlChangeEvent(tick=80, channel=12, data=[7, 94]),
   midi.ControlChangeEvent(tick=30, channel=12, data=[7, 96]),
   midi.ControlChangeEvent(tick=20, channel=12, data=[7, 96]),
   midi.ControlChangeEvent(tick=20, channel=12, data=[7, 96]),
   midi.ControlChangeEvent(tick=20, channel=12, data=[7, 98]),
   midi.ControlChangeEvent(tick=20, channel=12, data=[7, 99]),
   midi.ControlChangeEvent(tick=15, channel=12, data=[7, 101]),
   midi.ControlChangeEvent(tick=20, channel=12, data=[7, 102]),
   midi.ControlChangeEvent(tick=20, channel=12, data=[7, 104]),
   midi.ControlChangeEvent(tick=20, channel=12, data=[7, 107]),
   midi.ControlChangeEvent(tick=20, channel=12, data=[7, 109]),
   midi.ControlChangeEvent(tick=20, channel=12, data=[7, 110]),
   midi.ControlChangeEvent(tick=20, channel=12, data=[7, 112]),
   midi.ControlChangeEvent(tick=20, channel=12, data=[7, 114]),
   midi.NoteOnEvent(tick=135, channel=12, data=[69, 0]),
   midi.NoteOnEvent(tick=0, channel=12, data=[57, 118]),
   midi.NoteOnEvent(tick=0, channel=12, data=[65, 118]),
   midi.NoteOnEvent(tick=0, channel=12, data=[74, 118]),
   midi.NoteOnEvent(tick=40, channel=12, data=[65, 0]),
   midi.NoteOnEvent(tick=0, channel=12, data=[57, 0]),
   midi.NoteOnEvent(tick=80, channel=12, data=[74, 0]),
   midi.NoteOnEvent(tick=0, channel=12, data=[74, 118]),
   midi.NoteOnEvent(tick=40, channel=12, data=[74, 0]),
   midi.NoteOnEvent(tick=0, channel=12, data=[74, 118]),
   midi.NoteOnEvent(tick=40, channel=12, data=[74, 0]),
   midi.NoteOnEvent(tick=0, channel=12, data=[73, 118]),
   midi.NoteOnEvent(tick=40, channel=12, data=[73, 0]),
   midi.NoteOnEvent(tick=0, channel=12, data=[69, 118]),
   midi.NoteOnEvent(tick=40, channel=12, data=[69, 0]),
   midi.NoteOnEvent(tick=0, channel=12, data=[69, 118]),
   midi.NoteOnEvent(tick=40, channel=12, data=[69, 0]),
   midi.NoteOnEvent(tick=0, channel=12, data=[69, 118]),
   midi.NoteOnEvent(tick=40, channel=12, data=[69, 0]),
   midi.NoteOnEvent(tick=0, channel=12, data=[69, 118]),
   midi.NoteOnEvent(tick=40, channel=12, data=[69, 0]),
   midi.NoteOnEvent(tick=0, channel=12, data=[69, 118]),
   midi.ControlChangeEvent(tick=20, channel=12, data=[7, 112]),
   midi.ControlChangeEvent(tick=15, channel=12, data=[7, 112]),
   midi.NoteOnEvent(tick=5, channel=12, data=[69, 0]),
   midi.NoteOnEvent(tick=0, channel=12, data=[73, 118]),
   midi.ControlChangeEvent(tick=25, channel=12, data=[7, 112]),
   midi.NoteOnEvent(tick=15, channel=12, data=[73, 0]),
   midi.NoteOnEvent(tick=0, channel=12, data=[74, 118]),
   midi.ControlChangeEvent(tick=5, channel=12, data=[7, 114]),
   midi.NoteOnEvent(tick=35, channel=12, data=[74, 0]),
   midi.NoteOnEvent(tick=0, channel=12, data=[74, 118]),
   midi.NoteOnEvent(tick=40, channel=12, data=[74, 0]),
   midi.NoteOnEvent(tick=0, channel=12, data=[73, 118]),
   midi.NoteOnEvent(tick=40, channel=12, data=[73, 0]),
   midi.NoteOnEvent(tick=0, channel=12, data=[69, 118]),
   midi.NoteOnEvent(tick=40, channel=12, data=[69, 0]),
   midi.NoteOnEvent(tick=0, channel=12, data=[69, 118]),
   midi.NoteOnEvent(tick=40, channel=12, data=[69, 0]),
   midi.NoteOnEvent(tick=0, channel=12, data=[73, 118]),
   midi.NoteOnEvent(tick=40, channel=12, data=[73, 0]),
   midi.NoteOnEvent(tick=0, channel=12, data=[74, 118]),
   midi.NoteOnEvent(tick=40, channel=12, data=[74, 0]),
   midi.NoteOnEvent(tick=0, channel=12, data=[74, 118]),
   midi.NoteOnEvent(tick=40, channel=12, data=[74, 0]),
   midi.NoteOnEvent(tick=0, channel=12, data=[73, 118]),
   midi.NoteOnEvent(tick=40, channel=12, data=[73, 0]),
   midi.NoteOnEvent(tick=0, channel=12, data=[69, 118]),
   midi.NoteOnEvent(tick=40, channel=12, data=[69, 0]),
   midi.NoteOnEvent(tick=0, channel=12, data=[69, 118]),
   midi.NoteOnEvent(tick=40, channel=12, data=[69, 0]),
   midi.NoteOnEvent(tick=0, channel=12, data=[73, 118]),
   midi.NoteOnEvent(tick=40, channel=12, data=[73, 0]),
   midi.NoteOnEvent(tick=0, channel=12, data=[74, 118]),
   midi.NoteOnEvent(tick=40, channel=12, data=[74, 0]),
   midi.ControlChangeEvent(tick=105, channel=12, data=[7, 112]),
   midi.ControlChangeEvent(tick=25, channel=12, data=[7, 101]),
   midi.ControlChangeEvent(tick=15, channel=12, data=[7, 90]),
   midi.ControlChangeEvent(tick=20, channel=12, data=[7, 90]),
   midi.ControlChangeEvent(tick=20, channel=12, data=[7, 88]),
   midi.NoteOnEvent(tick=15, channel=12, data=[69, 118]),
   midi.ControlChangeEvent(tick=5, channel=12, data=[7, 86]),
   midi.ControlChangeEvent(tick=20, channel=12, data=[7, 83]),
   midi.ControlChangeEvent(tick=20, channel=12, data=[7, 83]),
   midi.ControlChangeEvent(tick=90, channel=12, data=[7, 83]),
   midi.ControlChangeEvent(tick=25, channel=12, data=[7, 84]),
   midi.NoteOnEvent(tick=80, channel=12, data=[69, 0]),
   midi.NoteOnEvent(tick=0, channel=12, data=[67, 118]),
   midi.ControlChangeEvent(tick=35, channel=12, data=[7, 85]),
   midi.ControlChangeEvent(tick=15, channel=12, data=[7, 86]),
   midi.ControlChangeEvent(tick=30, channel=12, data=[7, 87]),
   midi.ControlChangeEvent(tick=20, channel=12, data=[7, 87]),
   midi.ControlChangeEvent(tick=35, channel=12, data=[7, 88]),
   midi.ControlChangeEvent(tick=40, channel=12, data=[7, 89]),
   midi.NoteOnEvent(tick=65, channel=12, data=[67, 0]),
   midi.NoteOnEvent(tick=0, channel=12, data=[71, 118]),
   midi.ControlChangeEvent(tick=125, channel=12, data=[7, 89]),
   midi.ControlChangeEvent(tick=35, channel=12, data=[7, 90]),
   midi.ControlChangeEvent(tick=25, channel=12, data=[7, 90]),
   midi.ControlChangeEvent(tick=20, channel=12, data=[7, 90]),
   midi.ControlChangeEvent(tick=20, channel=12, data=[7, 92]),
   midi.NoteOnEvent(tick=15, channel=12, data=[71, 0]),
   midi.NoteOnEvent(tick=0, channel=12, data=[71, 118]),
   midi.ControlChangeEvent(tick=10, channel=12, data=[7, 92]),
   midi.ControlChangeEvent(tick=155, channel=12, data=[7, 93]),
   midi.ControlChangeEvent(tick=20, channel=12, data=[7, 94]),
   midi.ControlChangeEvent(tick=20, channel=12, data=[7, 94]),
   midi.NoteOnEvent(tick=35, channel=12, data=[71, 0]),
   midi.NoteOnEvent(tick=0, channel=12, data=[72, 118]),
   midi.ControlChangeEvent(tick=0, channel=12, data=[7, 94]),
   midi.ControlChangeEvent(tick=20, channel=12, data=[7, 96]),
   midi.ControlChangeEvent(tick=20, channel=12, data=[7, 96]),
   midi.ControlChangeEvent(tick=20, channel=12, data=[7, 96]),
   midi.ControlChangeEvent(tick=20, channel=12, data=[7, 96]),
   midi.ControlChangeEvent(tick=25, channel=12, data=[7, 98]),
   midi.ControlChangeEvent(tick=20, channel=12, data=[7, 99]),
   midi.ControlChangeEvent(tick=20, channel=12, data=[7, 100]),
   midi.ControlChangeEvent(tick=20, channel=12, data=[7, 101]),
   midi.ControlChangeEvent(tick=20, channel=12, data=[7, 101]),
   midi.ControlChangeEvent(tick=20, channel=12, data=[7, 102]),
   midi.ControlChangeEvent(tick=20, channel=12, data=[7, 103]),
   midi.NoteOnEvent(tick=15, channel=12, data=[72, 0]),
   midi.NoteOnEvent(tick=0, channel=12, data=[72, 118]),
   midi.ControlChangeEvent(tick=5, channel=12, data=[7, 105]),
   midi.ControlChangeEvent(tick=20, channel=12, data=[7, 106]),
   midi.ControlChangeEvent(tick=15, channel=12, data=[7, 107]),
   midi.ControlChangeEvent(tick=20, channel=12, data=[7, 108]),
   midi.ControlChangeEvent(tick=20, channel=12, data=[7, 108]),
   midi.ControlChangeEvent(tick=75, channel=12, data=[7, 109]),
   midi.ControlChangeEvent(tick=25, channel=12, data=[7, 109]),
   midi.NoteOnEvent(tick=60, channel=12, data=[72, 0]),
   midi.NoteOnEvent(tick=0, channel=12, data=[72, 118]),
   midi.ControlChangeEvent(tick=0, channel=12, data=[7, 109]),
   midi.ControlChangeEvent(tick=20, channel=12, data=[7, 110]),
   midi.ControlChangeEvent(tick=15, channel=12, data=[7, 110]),
   midi.ControlChangeEvent(tick=20, channel=12, data=[7, 111]),
   midi.ControlChangeEvent(tick=30, channel=12, data=[7, 112]),
   midi.ControlChangeEvent(tick=20, channel=12, data=[7, 112]),
   midi.ControlChangeEvent(tick=20, channel=12, data=[7, 112]),
   midi.ControlChangeEvent(tick=20, channel=12, data=[7, 114]),
   midi.NoteOnEvent(tick=95, channel=12, data=[72, 0]),
   midi.ProgramChangeEvent(tick=120, channel=12, data=[49]),
   midi.ControlChangeEvent(tick=3145, channel=12, data=[64, 0]),
   midi.ControlChangeEvent(tick=0, channel=12, data=[120, 0]),
   midi.ControlChangeEvent(tick=0, channel=12, data=[7, 119]),
   midi.ProgramChangeEvent(tick=0, channel=12, data=[56]),
   midi.ControlChangeEvent(tick=0, channel=12, data=[11, 127]),
   midi.ControlChangeEvent(tick=0, channel=12, data=[10, 80]),
   midi.ControlChangeEvent(tick=0, channel=12, data=[64, 0]),
   midi.ControlChangeEvent(tick=0, channel=12, data=[91, 80]),
   midi.ControlChangeEvent(tick=0, channel=12, data=[11, 127]),
   midi.ControlChangeEvent(tick=0, channel=12, data=[10, 64]),
   midi.ControlChangeEvent(tick=0, channel=12, data=[64, 0]),
   midi.ControlChangeEvent(tick=0, channel=12, data=[91, 110]),
   midi.ControlChangeEvent(tick=0, channel=12, data=[64, 0]),
   midi.ControlChangeEvent(tick=0, channel=12, data=[91, 64]),
   midi.EndOfTrackEvent(tick=0, data=[])]),
 midi.Track(\
  [midi.PortEvent(tick=0, data=[0]),
   midi.ProgramChangeEvent(tick=0, channel=13, data=[48]),
   midi.ControlChangeEvent(tick=0, channel=13, data=[10, 70]),
   midi.ControlChangeEvent(tick=4, channel=13, data=[64, 0]),
   midi.ControlChangeEvent(tick=0, channel=13, data=[91, 105]),
   midi.ControlChangeEvent(tick=3960, channel=13, data=[7, 76]),
   midi.ControlChangeEvent(tick=185, channel=13, data=[7, 76]),
   midi.ControlChangeEvent(tick=35, channel=13, data=[7, 77]),
   midi.ControlChangeEvent(tick=35, channel=13, data=[7, 78]),
   midi.ControlChangeEvent(tick=25, channel=13, data=[7, 79]),
   midi.NoteOnEvent(tick=20, channel=13, data=[52, 94]),
   midi.ControlChangeEvent(tick=0, channel=13, data=[7, 79]),
   midi.NoteOnEvent(tick=15, channel=13, data=[52, 0]),
   midi.ControlChangeEvent(tick=0, channel=13, data=[7, 81]),
   midi.ControlChangeEvent(tick=30, channel=13, data=[7, 81]),
   midi.NoteOnEvent(tick=15, channel=13, data=[54, 94]),
   midi.NoteOnEvent(tick=15, channel=13, data=[54, 0]),
   midi.NoteOnEvent(tick=45, channel=13, data=[56, 94]),
   midi.NoteOnEvent(tick=15, channel=13, data=[56, 0]),
   midi.ControlChangeEvent(tick=10, channel=13, data=[7, 81]),
   midi.ControlChangeEvent(tick=10, channel=13, data=[7, 81]),
   midi.NoteOnEvent(tick=25, channel=13, data=[52, 94]),
   midi.NoteOnEvent(tick=50, channel=13, data=[52, 0]),
   midi.ControlChangeEvent(tick=60, channel=13, data=[7, 83]),
   midi.NoteOnEvent(tick=130, channel=13, data=[52, 94]),
   midi.NoteOnEvent(tick=40, channel=13, data=[52, 0]),
   midi.NoteOnEvent(tick=50, channel=13, data=[54, 94]),
   midi.NoteOnEvent(tick=20, channel=13, data=[54, 0]),
   midi.NoteOnEvent(tick=10, channel=13, data=[54, 94]),
   midi.NoteOnEvent(tick=20, channel=13, data=[54, 0]),
   midi.NoteOnEvent(tick=40, channel=13, data=[55, 94]),
   midi.NoteOnEvent(tick=20, channel=13, data=[55, 0]),
   midi.NoteOnEvent(tick=40, channel=13, data=[55, 94]),
   midi.NoteOnEvent(tick=50, channel=13, data=[55, 0]),
   midi.ControlChangeEvent(tick=25, channel=13, data=[7, 81]),
   midi.ControlChangeEvent(tick=10, channel=13, data=[7, 81]),
   midi.ControlChangeEvent(tick=20, channel=13, data=[7, 81]),
   midi.ControlChangeEvent(tick=20, channel=13, data=[7, 81]),
   midi.ControlChangeEvent(tick=15, channel=13, data=[7, 81]),
   midi.NoteOnEvent(tick=160, channel=13, data=[55, 94]),
   midi.NoteOnEvent(tick=15, channel=13, data=[55, 0]),
   midi.NoteOnEvent(tick=45, channel=13, data=[57, 94]),
   midi.NoteOnEvent(tick=15, channel=13, data=[57, 0]),
   midi.NoteOnEvent(tick=45, channel=13, data=[59, 94]),
   midi.NoteOnEvent(tick=15, channel=13, data=[59, 0]),
   midi.NoteOnEvent(tick=45, channel=13, data=[55, 94]),
   midi.NoteOnEvent(tick=50, channel=13, data=[55, 0]),
   midi.ControlChangeEvent(tick=5, channel=13, data=[7, 81]),
   midi.ControlChangeEvent(tick=15, channel=13, data=[7, 81]),
   midi.ControlChangeEvent(tick=10, channel=13, data=[7, 80]),
   midi.ControlChangeEvent(tick=15, channel=13, data=[7, 80]),
   midi.NoteOnEvent(tick=145, channel=13, data=[55, 94]),
   midi.NoteOnEvent(tick=50, channel=13, data=[55, 0]),
   midi.NoteOnEvent(tick=40, channel=13, data=[57, 94]),
   midi.NoteOnEvent(tick=20, channel=13, data=[57, 0]),
   midi.NoteOnEvent(tick=10, channel=13, data=[57, 94]),
   midi.NoteOnEvent(tick=20, channel=13, data=[57, 0]),
   midi.NoteOnEvent(tick=40, channel=13, data=[59, 94]),
   midi.NoteOnEvent(tick=20, channel=13, data=[59, 0]),
   midi.ControlChangeEvent(tick=60, channel=13, data=[7, 79]),
   midi.ControlChangeEvent(tick=20, channel=13, data=[7, 79]),
   midi.ControlChangeEvent(tick=10, channel=13, data=[7, 77]),
   midi.NoteOnEvent(tick=10, channel=13, data=[56, 89]),
   midi.ControlChangeEvent(tick=5, channel=13, data=[7, 76]),
   midi.NoteOnEvent(tick=20, channel=13, data=[56, 0]),
   midi.ControlChangeEvent(tick=0, channel=13, data=[7, 76]),
   midi.ControlChangeEvent(tick=15, channel=13, data=[7, 75]),
   midi.NoteOnEvent(tick=80, channel=13, data=[57, 89]),
   midi.NoteOnEvent(tick=25, channel=13, data=[57, 0]),
   midi.NoteOnEvent(tick=95, channel=13, data=[62, 89]),
   midi.NoteOnEvent(tick=25, channel=13, data=[62, 0]),
   midi.ControlChangeEvent(tick=75, channel=13, data=[7, 76]),
   midi.NoteOnEvent(tick=20, channel=13, data=[62, 89]),
   midi.ControlChangeEvent(tick=0, channel=13, data=[7, 76]),
   midi.NoteOnEvent(tick=25, channel=13, data=[62, 0]),
   midi.ControlChangeEvent(tick=0, channel=13, data=[7, 77]),
   midi.NoteOnEvent(tick=95, channel=13, data=[61, 89]),
   midi.NoteOnEvent(tick=25, channel=13, data=[61, 0]),
   midi.NoteOnEvent(tick=95, channel=13, data=[62, 89]),
   midi.ControlChangeEvent(tick=0, channel=13, data=[7, 78]),
   midi.ControlChangeEvent(tick=20, channel=13, data=[7, 79]),
   midi.NoteOnEvent(tick=5, channel=13, data=[62, 0]),
   midi.ControlChangeEvent(tick=10, channel=13, data=[7, 80]),
   midi.ControlChangeEvent(tick=45, channel=13, data=[7, 81]),
   midi.ControlChangeEvent(tick=20, channel=13, data=[7, 81]),
   midi.NoteOnEvent(tick=20, channel=13, data=[67, 89]),
   midi.NoteOnEvent(tick=25, channel=13, data=[67, 0]),
   midi.ControlChangeEvent(tick=20, channel=13, data=[7, 81]),
   midi.ControlChangeEvent(tick=65, channel=13, data=[7, 81]),
   midi.NoteOnEvent(tick=10, channel=13, data=[67, 89]),
   midi.NoteOnEvent(tick=25, channel=13, data=[67, 0]),
   midi.ControlChangeEvent(tick=40, channel=13, data=[7, 81]),
   midi.ControlChangeEvent(tick=25, channel=13, data=[7, 83]),
   midi.NoteOnEvent(tick=30, channel=13, data=[65, 89]),
   midi.ControlChangeEvent(tick=0, channel=13, data=[7, 83]),
   midi.NoteOnEvent(tick=25, channel=13, data=[65, 0]),
   midi.ControlChangeEvent(tick=10, channel=13, data=[7, 83]),
   midi.ControlChangeEvent(tick=30, channel=13, data=[7, 83]),
   midi.ControlChangeEvent(tick=15, channel=13, data=[7, 83]),
   midi.ControlChangeEvent(tick=25, channel=13, data=[7, 84]),
   midi.NoteOnEvent(tick=15, channel=13, data=[65, 89]),
   midi.ControlChangeEvent(tick=0, channel=13, data=[7, 85]),
   midi.ControlChangeEvent(tick=20, channel=13, data=[7, 86]),
   midi.NoteOnEvent(tick=5, channel=13, data=[65, 0]),
   midi.ControlChangeEvent(tick=25, channel=13, data=[7, 87]),
   midi.ControlChangeEvent(tick=65, channel=13, data=[7, 87]),
   midi.NoteOnEvent(tick=5, channel=13, data=[57, 89]),
   midi.NoteOnEvent(tick=25, channel=13, data=[57, 0]),
   midi.ControlChangeEvent(tick=35, channel=13, data=[7, 87]),
   midi.NoteOnEvent(tick=180, channel=13, data=[60, 89]),
   midi.NoteOnEvent(tick=25, channel=13, data=[60, 0]),
   midi.NoteOnEvent(tick=95, channel=13, data=[60, 89]),
   midi.NoteOnEvent(tick=25, channel=13, data=[60, 0]),
   midi.ControlChangeEvent(tick=85, channel=13, data=[7, 88]),
   midi.NoteOnEvent(tick=10, channel=13, data=[69, 89]),
   midi.ControlChangeEvent(tick=20, channel=13, data=[7, 89]),
   midi.NoteOnEvent(tick=5, channel=13, data=[69, 0]),
   midi.ControlChangeEvent(tick=40, channel=13, data=[7, 89]),
   midi.ControlChangeEvent(tick=45, channel=13, data=[7, 90]),
   midi.NoteOnEvent(tick=10, channel=13, data=[68, 89]),
   midi.ControlChangeEvent(tick=20, channel=13, data=[7, 90]),
   midi.NoteOnEvent(tick=5, channel=13, data=[68, 0]),
   midi.ControlChangeEvent(tick=30, channel=13, data=[7, 90]),
   midi.ControlChangeEvent(tick=30, channel=13, data=[7, 92]),
   midi.NoteOnEvent(tick=5, channel=13, data=[56, 94]),
   midi.NoteOnEvent(tick=30, channel=13, data=[56, 0]),
   midi.NoteOnEvent(tick=0, channel=13, data=[62, 94]),
   midi.NoteOnEvent(tick=30, channel=13, data=[62, 0]),
   midi.NoteOnEvent(tick=0, channel=13, data=[64, 94]),
   midi.NoteOnEvent(tick=30, channel=13, data=[64, 0]),
   midi.NoteOnEvent(tick=0, channel=13, data=[65, 94]),
   midi.ControlChangeEvent(tick=10, channel=13, data=[7, 90]),
   midi.ControlChangeEvent(tick=10, channel=13, data=[7, 90]),
   midi.NoteOnEvent(tick=10, channel=13, data=[65, 0]),
   midi.NoteOnEvent(tick=0, channel=13, data=[57, 94]),
   midi.ControlChangeEvent(tick=10, channel=13, data=[7, 90]),
   midi.NoteOnEvent(tick=20, channel=13, data=[57, 0]),
   midi.NoteOnEvent(tick=0, channel=13, data=[62, 94]),
   midi.NoteOnEvent(tick=30, channel=13, data=[62, 0]),
   midi.NoteOnEvent(tick=0, channel=13, data=[65, 94]),
   midi.NoteOnEvent(tick=30, channel=13, data=[65, 0]),
   midi.NoteOnEvent(tick=0, channel=13, data=[65, 94]),
   midi.ControlChangeEvent(tick=25, channel=13, data=[7, 90]),
   midi.NoteOnEvent(tick=5, channel=13, data=[65, 0]),
   midi.NoteOnEvent(tick=0, channel=13, data=[59, 94]),
   midi.ControlChangeEvent(tick=15, channel=13, data=[7, 90]),
   midi.NoteOnEvent(tick=15, channel=13, data=[59, 0]),
   midi.NoteOnEvent(tick=0, channel=13, data=[62, 94]),
   midi.ControlChangeEvent(tick=0, channel=13, data=[7, 92]),
   midi.ControlChangeEvent(tick=15, channel=13, data=[7, 92]),
   midi.ControlChangeEvent(tick=10, channel=13, data=[7, 94]),
   midi.NoteOnEvent(tick=5, channel=13, data=[62, 0]),
   midi.NoteOnEvent(tick=0, channel=13, data=[65, 94]),
   midi.ControlChangeEvent(tick=10, channel=13, data=[7, 94]),
   midi.ControlChangeEvent(tick=15, channel=13, data=[7, 94]),
   midi.NoteOnEvent(tick=5, channel=13, data=[65, 0]),
   midi.NoteOnEvent(tick=0, channel=13, data=[65, 94]),
   midi.ControlChangeEvent(tick=5, channel=13, data=[7, 96]),
   midi.ControlChangeEvent(tick=10, channel=13, data=[7, 96]),
   midi.NoteOnEvent(tick=15, channel=13, data=[65, 0]),
   midi.NoteOnEvent(tick=0, channel=13, data=[59, 94]),
   midi.ControlChangeEvent(tick=0, channel=13, data=[7, 98]),
   midi.ControlChangeEvent(tick=10, channel=13, data=[7, 99]),
   midi.ControlChangeEvent(tick=15, channel=13, data=[7, 101]),
   midi.NoteOnEvent(tick=5, channel=13, data=[59, 0]),
   midi.NoteOnEvent(tick=0, channel=13, data=[62, 94]),
   midi.ControlChangeEvent(tick=5, channel=13, data=[7, 101]),
   midi.ControlChangeEvent(tick=15, channel=13, data=[7, 101]),
   midi.NoteOnEvent(tick=10, channel=13, data=[62, 0]),
   midi.NoteOnEvent(tick=0, channel=13, data=[65, 94]),
   midi.ControlChangeEvent(tick=5, channel=13, data=[7, 101]),
   midi.ControlChangeEvent(tick=15, channel=13, data=[7, 101]),
   midi.NoteOnEvent(tick=10, channel=13, data=[65, 0]),
   midi.ControlChangeEvent(tick=15, channel=13, data=[7, 101]),
   midi.ControlChangeEvent(tick=15, channel=13, data=[7, 99]),
   midi.NoteOnEvent(tick=0, channel=13, data=[61, 94]),
   midi.ControlChangeEvent(tick=10, channel=13, data=[7, 96]),
   midi.ControlChangeEvent(tick=10, channel=13, data=[7, 96]),
   midi.NoteOnEvent(tick=10, channel=13, data=[61, 0]),
   midi.NoteOnEvent(tick=0, channel=13, data=[67, 94]),
   midi.ControlChangeEvent(tick=5, channel=13, data=[7, 94]),
   midi.ControlChangeEvent(tick=10, channel=13, data=[7, 92]),
   midi.NoteOnEvent(tick=15, channel=13, data=[67, 0]),
   midi.NoteOnEvent(tick=0, channel=13, data=[69, 94]),
   midi.ControlChangeEvent(tick=0, channel=13, data=[7, 89]),
   midi.ControlChangeEvent(tick=15, channel=13, data=[7, 88]),
   midi.ControlChangeEvent(tick=10, channel=13, data=[7, 87]),
   midi.NoteOnEvent(tick=5, channel=13, data=[69, 0]),
   midi.NoteOnEvent(tick=0, channel=13, data=[70, 94]),
   midi.ControlChangeEvent(tick=5, channel=13, data=[7, 87]),
   midi.NoteOnEvent(tick=25, channel=13, data=[70, 0]),
   midi.NoteOnEvent(tick=0, channel=13, data=[62, 94]),
   midi.ControlChangeEvent(tick=10, channel=13, data=[7, 87]),
   midi.ControlChangeEvent(tick=10, channel=13, data=[7, 89]),
   midi.NoteOnEvent(tick=10, channel=13, data=[62, 0]),
   midi.NoteOnEvent(tick=0, channel=13, data=[67, 94]),
   midi.ControlChangeEvent(tick=0, channel=13, data=[7, 90]),
   midi.ControlChangeEvent(tick=15, channel=13, data=[7, 90]),
   midi.ControlChangeEvent(tick=10, channel=13, data=[7, 92]),
   midi.NoteOnEvent(tick=5, channel=13, data=[67, 0]),
   midi.NoteOnEvent(tick=0, channel=13, data=[70, 94]),
   midi.ControlChangeEvent(tick=10, channel=13, data=[7, 92]),
   midi.NoteOnEvent(tick=20, channel=13, data=[70, 0]),
   midi.ControlChangeEvent(tick=0, channel=13, data=[7, 93]),
   midi.NoteOnEvent(tick=0, channel=13, data=[70, 94]),
   midi.ControlChangeEvent(tick=15, channel=13, data=[7, 94]),
   midi.NoteOnEvent(tick=15, channel=13, data=[70, 0]),
   midi.NoteOnEvent(tick=0, channel=13, data=[64, 94]),
   midi.ControlChangeEvent(tick=0, channel=13, data=[7, 94]),
   midi.ControlChangeEvent(tick=15, channel=13, data=[7, 94]),
   midi.NoteOnEvent(tick=15, channel=13, data=[64, 0]),
   midi.NoteOnEvent(tick=0, channel=13, data=[67, 94]),
   midi.ControlChangeEvent(tick=10, channel=13, data=[7, 94]),
   midi.NoteOnEvent(tick=20, channel=13, data=[67, 0]),
   midi.NoteOnEvent(tick=0, channel=13, data=[70, 94]),
   midi.ControlChangeEvent(tick=5, channel=13, data=[7, 96]),
   midi.NoteOnEvent(tick=25, channel=13, data=[70, 0]),
   midi.NoteOnEvent(tick=0, channel=13, data=[70, 94]),
   midi.ControlChangeEvent(tick=0, channel=13, data=[7, 96]),
   midi.ControlChangeEvent(tick=20, channel=13, data=[7, 96]),
   midi.NoteOnEvent(tick=10, channel=13, data=[70, 0]),
   midi.NoteOnEvent(tick=0, channel=13, data=[64, 94]),
   midi.ControlChangeEvent(tick=10, channel=13, data=[7, 96]),
   midi.NoteOnEvent(tick=20, channel=13, data=[64, 0]),
   midi.NoteOnEvent(tick=0, channel=13, data=[67, 94]),
   midi.ControlChangeEvent(tick=0, channel=13, data=[7, 96]),
   midi.ControlChangeEvent(tick=10, channel=13, data=[7, 98]),
   midi.NoteOnEvent(tick=20, channel=13, data=[67, 0]),
   midi.NoteOnEvent(tick=0, channel=13, data=[70, 94]),
   midi.NoteOnEvent(tick=30, channel=13, data=[70, 0]),
   midi.NoteOnEvent(tick=30, channel=13, data=[62, 94]),
   midi.ControlChangeEvent(tick=25, channel=13, data=[7, 98]),
   midi.NoteOnEvent(tick=5, channel=13, data=[62, 0]),
   midi.NoteOnEvent(tick=0, channel=13, data=[65, 94]),
   midi.ControlChangeEvent(tick=10, channel=13, data=[7, 96]),
   midi.ControlChangeEvent(tick=10, channel=13, data=[7, 96]),
   midi.NoteOnEvent(tick=10, channel=13, data=[65, 0]),
   midi.NoteOnEvent(tick=0, channel=13, data=[69, 94]),
   midi.ControlChangeEvent(tick=5, channel=13, data=[7, 96]),
   midi.ControlChangeEvent(tick=10, channel=13, data=[7, 96]),
   midi.NoteOnEvent(tick=15, channel=13, data=[69, 0]),
   midi.NoteOnEvent(tick=0, channel=13, data=[72, 94]),
   midi.ControlChangeEvent(tick=0, channel=13, data=[7, 94]),
   midi.ControlChangeEvent(tick=10, channel=13, data=[7, 94]),
   midi.ControlChangeEvent(tick=15, channel=13, data=[7, 94]),
   midi.NoteOnEvent(tick=5, channel=13, data=[72, 0]),
   midi.NoteOnEvent(tick=0, channel=13, data=[64, 94]),
   midi.ControlChangeEvent(tick=5, channel=13, data=[7, 94]),
   midi.ControlChangeEvent(tick=15, channel=13, data=[7, 93]),
   midi.NoteOnEvent(tick=10, channel=13, data=[64, 0]),
   midi.NoteOnEvent(tick=0, channel=13, data=[69, 94]),
   midi.ControlChangeEvent(tick=0, channel=13, data=[7, 92]),
   midi.NoteOnEvent(tick=30, channel=13, data=[69, 0]),
   midi.NoteOnEvent(tick=0, channel=13, data=[72, 94]),
   midi.NoteOnEvent(tick=30, channel=13, data=[72, 0]),
   midi.NoteOnEvent(tick=0, channel=13, data=[74, 94]),
   midi.NoteOnEvent(tick=30, channel=13, data=[74, 0]),
   midi.ControlChangeEvent(tick=0, channel=13, data=[7, 93]),
   midi.ControlChangeEvent(tick=15, channel=13, data=[7, 96]),
   midi.ControlChangeEvent(tick=10, channel=13, data=[7, 98]),
   midi.ControlChangeEvent(tick=15, channel=13, data=[7, 100]),
   midi.ControlChangeEvent(tick=10, channel=13, data=[7, 101]),
   midi.ControlChangeEvent(tick=10, channel=13, data=[7, 101]),
   midi.ControlChangeEvent(tick=45, channel=13, data=[7, 101]),
   midi.ControlChangeEvent(tick=15, channel=13, data=[7, 101]),
   midi.ControlChangeEvent(tick=10, channel=13, data=[7, 99]),
   midi.ControlChangeEvent(tick=10, channel=13, data=[7, 98]),
   midi.ControlChangeEvent(tick=10, channel=13, data=[7, 96]),
   midi.ControlChangeEvent(tick=10, channel=13, data=[7, 96]),
   midi.ControlChangeEvent(tick=10, channel=13, data=[7, 96]),
   midi.ControlChangeEvent(tick=10, channel=13, data=[7, 94]),
   midi.ControlChangeEvent(tick=10, channel=13, data=[7, 94]),
   midi.NoteOnEvent(tick=20, channel=13, data=[60, 94]),
   midi.ControlChangeEvent(tick=25, channel=13, data=[7, 94]),
   midi.ControlChangeEvent(tick=20, channel=13, data=[7, 93]),
   midi.ControlChangeEvent(tick=40, channel=13, data=[7, 92]),
   midi.ControlChangeEvent(tick=15, channel=13, data=[7, 92]),
   midi.ControlChangeEvent(tick=10, channel=13, data=[7, 90]),
   midi.ControlChangeEvent(tick=15, channel=13, data=[7, 90]),
   midi.ControlChangeEvent(tick=15, channel=13, data=[7, 89]),
   midi.NoteOnEvent(tick=35, channel=13, data=[60, 0]),
   midi.NoteOnEvent(tick=5, channel=13, data=[60, 94]),
   midi.ControlChangeEvent(tick=0, channel=13, data=[7, 89]),
   midi.ControlChangeEvent(tick=40, channel=13, data=[7, 88]),
   midi.NoteOnEvent(tick=10, channel=13, data=[60, 0]),
   midi.ControlChangeEvent(tick=0, channel=13, data=[7, 87]),
   midi.ControlChangeEvent(tick=15, channel=13, data=[7, 87]),
   midi.ControlChangeEvent(tick=20, channel=13, data=[7, 87]),
   midi.ControlChangeEvent(tick=45, channel=13, data=[7, 86]),
   midi.ControlChangeEvent(tick=10, channel=13, data=[7, 85]),
   midi.ControlChangeEvent(tick=25, channel=13, data=[7, 84]),
   midi.NoteOnEvent(tick=15, channel=13, data=[59, 86]),
   midi.NoteOnEvent(tick=55, channel=13, data=[59, 0]),
   midi.NoteOnEvent(tick=70, channel=13, data=[57, 80]),
   midi.NoteOnEvent(tick=55, channel=13, data=[57, 0]),
   midi.ControlChangeEvent(tick=50, channel=13, data=[7, 85]),
   midi.ControlChangeEvent(tick=10, channel=13, data=[7, 86]),
   midi.ControlChangeEvent(tick=35, channel=13, data=[7, 87]),
   midi.ControlChangeEvent(tick=90, channel=13, data=[7, 87]),
   midi.ControlChangeEvent(tick=15, channel=13, data=[7, 88]),
   midi.ControlChangeEvent(tick=10, channel=13, data=[7, 89]),
   midi.ControlChangeEvent(tick=20, channel=13, data=[7, 89]),
   midi.ControlChangeEvent(tick=10, channel=13, data=[7, 90]),
   midi.ControlChangeEvent(tick=20, channel=13, data=[7, 90]),
   midi.ControlChangeEvent(tick=10, channel=13, data=[7, 90]),
   midi.ControlChangeEvent(tick=40, channel=13, data=[7, 92]),
   midi.ControlChangeEvent(tick=110, channel=13, data=[7, 90]),
   midi.ControlChangeEvent(tick=10, channel=13, data=[7, 90]),
   midi.ControlChangeEvent(tick=30, channel=13, data=[7, 90]),
   midi.ControlChangeEvent(tick=10, channel=13, data=[7, 89]),
   midi.ControlChangeEvent(tick=85, channel=13, data=[7, 90]),
   midi.ControlChangeEvent(tick=15, channel=13, data=[7, 90]),
   midi.ControlChangeEvent(tick=35, channel=13, data=[7, 90]),
   midi.ControlChangeEvent(tick=40, channel=13, data=[7, 92]),
   midi.NoteOnEvent(tick=15, channel=13, data=[52, 94]),
   midi.NoteOnEvent(tick=40, channel=13, data=[52, 0]),
   midi.NoteOnEvent(tick=50, channel=13, data=[54, 94]),
   midi.NoteOnEvent(tick=20, channel=13, data=[54, 0]),
   midi.NoteOnEvent(tick=10, channel=13, data=[54, 94]),
   midi.NoteOnEvent(tick=20, channel=13, data=[54, 0]),
   midi.NoteOnEvent(tick=40, channel=13, data=[55, 94]),
   midi.NoteOnEvent(tick=20, channel=13, data=[55, 0]),
   midi.NoteOnEvent(tick=40, channel=13, data=[55, 86]),
   midi.NoteOnEvent(tick=40, channel=13, data=[55, 0]),
   midi.ControlChangeEvent(tick=45, channel=13, data=[7, 92]),
   midi.ControlChangeEvent(tick=75, channel=13, data=[7, 93]),
   midi.ControlChangeEvent(tick=20, channel=13, data=[7, 94]),
   midi.ControlChangeEvent(tick=175, channel=13, data=[7, 92]),
   midi.ControlChangeEvent(tick=10, channel=13, data=[7, 90]),
   midi.ControlChangeEvent(tick=5, channel=13, data=[7, 90]),
   midi.ControlChangeEvent(tick=90, channel=13, data=[7, 90]),
   midi.ControlChangeEvent(tick=75, channel=13, data=[7, 89]),
   midi.ControlChangeEvent(tick=5, channel=13, data=[7, 87]),
   midi.ControlChangeEvent(tick=115, channel=13, data=[7, 87]),
   midi.ControlChangeEvent(tick=10, channel=13, data=[7, 88]),
   midi.ControlChangeEvent(tick=15, channel=13, data=[7, 89]),
   midi.ControlChangeEvent(tick=10, channel=13, data=[7, 90]),
   midi.ControlChangeEvent(tick=25, channel=13, data=[7, 90]),
   midi.NoteOnEvent(tick=5, channel=13, data=[55, 94]),
   midi.ControlChangeEvent(tick=5, channel=13, data=[7, 90]),
   midi.ControlChangeEvent(tick=15, channel=13, data=[7, 90]),
   midi.NoteOnEvent(tick=20, channel=13, data=[55, 0]),
   midi.ControlChangeEvent(tick=0, channel=13, data=[7, 92]),
   midi.NoteOnEvent(tick=50, channel=13, data=[57, 94]),
   midi.NoteOnEvent(tick=20, channel=13, data=[57, 0]),
   midi.NoteOnEvent(tick=10, channel=13, data=[57, 94]),
   midi.NoteOnEvent(tick=20, channel=13, data=[57, 0]),
   midi.NoteOnEvent(tick=40, channel=13, data=[59, 94]),
   midi.ControlChangeEvent(tick=0, channel=13, data=[7, 92]),
   midi.NoteOnEvent(tick=20, channel=13, data=[59, 0]),
   midi.ControlChangeEvent(tick=10, channel=13, data=[7, 93]),
   midi.NoteOnEvent(tick=30, channel=13, data=[56, 92]),
   midi.NoteOnEvent(tick=60, channel=13, data=[56, 0]),
   midi.ControlChangeEvent(tick=15, channel=13, data=[7, 92]),
   midi.ControlChangeEvent(tick=15, channel=13, data=[7, 90]),
   midi.ControlChangeEvent(tick=10, channel=13, data=[7, 90]),
   midi.ControlChangeEvent(tick=15, channel=13, data=[7, 89]),
   midi.ControlChangeEvent(tick=10, channel=13, data=[7, 88]),
   midi.ControlChangeEvent(tick=15, channel=13, data=[7, 86]),
   midi.ControlChangeEvent(tick=10, channel=13, data=[7, 84]),
   midi.NoteOnEvent(tick=1770, channel=13, data=[56, 81]),
   midi.ControlChangeEvent(tick=50, channel=13, data=[7, 85]),
   midi.ControlChangeEvent(tick=40, channel=13, data=[7, 86]),
   midi.NoteOnEvent(tick=30, channel=13, data=[56, 0]),
   midi.NoteOnEvent(tick=0, channel=13, data=[59, 83]),
   midi.ControlChangeEvent(tick=20, channel=13, data=[7, 87]),
   midi.ControlChangeEvent(tick=10, channel=13, data=[7, 87]),
   midi.ControlChangeEvent(tick=30, channel=13, data=[7, 88]),
   midi.ControlChangeEvent(tick=25, channel=13, data=[7, 88]),
   midi.ControlChangeEvent(tick=10, channel=13, data=[7, 89]),
   midi.ControlChangeEvent(tick=15, channel=13, data=[7, 89]),
   midi.NoteOnEvent(tick=10, channel=13, data=[59, 0]),
   midi.NoteOnEvent(tick=0, channel=13, data=[62, 85]),
   midi.ControlChangeEvent(tick=0, channel=13, data=[7, 90]),
   midi.ControlChangeEvent(tick=20, channel=13, data=[7, 90]),
   midi.ControlChangeEvent(tick=10, channel=13, data=[7, 90]),
   midi.ControlChangeEvent(tick=25, channel=13, data=[7, 90]),
   midi.ControlChangeEvent(tick=40, channel=13, data=[7, 92]),
   midi.ControlChangeEvent(tick=80, channel=13, data=[7, 90]),
   midi.ControlChangeEvent(tick=15, channel=13, data=[7, 90]),
   midi.ControlChangeEvent(tick=15, channel=13, data=[7, 90]),
   midi.ControlChangeEvent(tick=10, channel=13, data=[7, 89]),
   midi.ControlChangeEvent(tick=15, channel=13, data=[7, 88]),
   midi.NoteOnEvent(tick=10, channel=13, data=[62, 0]),
   midi.NoteOnEvent(tick=0, channel=13, data=[61, 90]),
   midi.ControlChangeEvent(tick=0, channel=13, data=[7, 87]),
   midi.ControlChangeEvent(tick=15, channel=13, data=[7, 84]),
   midi.ControlChangeEvent(tick=15, channel=13, data=[7, 83]),
   midi.ControlChangeEvent(tick=10, channel=13, data=[7, 83]),
   midi.ControlChangeEvent(tick=30, channel=13, data=[7, 83]),
   midi.ControlChangeEvent(tick=15, channel=13, data=[7, 84]),
   midi.ControlChangeEvent(tick=10, channel=13, data=[7, 84]),
   midi.ControlChangeEvent(tick=15, channel=13, data=[7, 85]),
   midi.NoteOnEvent(tick=10, channel=13, data=[61, 0]),
   midi.NoteOnEvent(tick=0, channel=13, data=[62, 92]),
   midi.ControlChangeEvent(tick=5, channel=13, data=[7, 87]),
   midi.ControlChangeEvent(tick=10, channel=13, data=[7, 88]),
   midi.ControlChangeEvent(tick=15, channel=13, data=[7, 88]),
   midi.ControlChangeEvent(tick=15, channel=13, data=[7, 89]),
   midi.ControlChangeEvent(tick=20, channel=13, data=[7, 89]),
   midi.ControlChangeEvent(tick=15, channel=13, data=[7, 90]),
   midi.ControlChangeEvent(tick=30, channel=13, data=[7, 90]),
   midi.NoteOnEvent(tick=10, channel=13, data=[62, 0]),
   midi.NoteOnEvent(tick=0, channel=13, data=[67, 95]),
   midi.ControlChangeEvent(tick=10, channel=13, data=[7, 90]),
   midi.ControlChangeEvent(tick=10, channel=13, data=[7, 90]),
   midi.ControlChangeEvent(tick=15, channel=13, data=[7, 92]),
   midi.ControlChangeEvent(tick=25, channel=13, data=[7, 92]),
   midi.ControlChangeEvent(tick=20, channel=13, data=[7, 93]),
   midi.ControlChangeEvent(tick=40, channel=13, data=[7, 94]),
   midi.ControlChangeEvent(tick=20, channel=13, data=[7, 94]),
   midi.ControlChangeEvent(tick=30, channel=13, data=[7, 94]),
   midi.ControlChangeEvent(tick=20, channel=13, data=[7, 94]),
   midi.ControlChangeEvent(tick=10, channel=13, data=[7, 96]),
   midi.ControlChangeEvent(tick=20, channel=13, data=[7, 96]),
   midi.NoteOnEvent(tick=20, channel=13, data=[67, 0]),
   midi.NoteOnEvent(tick=0, channel=13, data=[65, 101]),
   midi.ControlChangeEvent(tick=0, channel=13, data=[7, 96]),
   midi.ControlChangeEvent(tick=15, channel=13, data=[7, 96]),
   midi.ControlChangeEvent(tick=65, channel=13, data=[7, 96]),
   midi.ControlChangeEvent(tick=10, channel=13, data=[7, 96]),
   midi.ControlChangeEvent(tick=15, channel=13, data=[7, 94]),
   midi.ControlChangeEvent(tick=15, channel=13, data=[7, 94]),
   midi.ControlChangeEvent(tick=15, channel=13, data=[7, 94]),
   midi.ControlChangeEvent(tick=10, channel=13, data=[7, 92]),
   midi.ControlChangeEvent(tick=15, channel=13, data=[7, 90]),
   midi.ControlChangeEvent(tick=10, channel=13, data=[7, 90]),
   midi.ControlChangeEvent(tick=10, channel=13, data=[7, 89]),
   midi.ControlChangeEvent(tick=15, channel=13, data=[7, 88]),
   midi.ControlChangeEvent(tick=10, channel=13, data=[7, 87]),
   midi.ControlChangeEvent(tick=10, channel=13, data=[7, 84]),
   midi.ControlChangeEvent(tick=15, channel=13, data=[7, 83]),
   midi.NoteOnEvent(tick=10, channel=13, data=[65, 0]),
   midi.NoteOnEvent(tick=0, channel=13, data=[57, 86]),
   midi.ControlChangeEvent(tick=0, channel=13, data=[7, 83]),
   midi.ControlChangeEvent(tick=15, channel=13, data=[7, 83]),
   midi.ControlChangeEvent(tick=10, channel=13, data=[7, 81]),
   midi.ControlChangeEvent(tick=10, channel=13, data=[7, 81]),
   midi.ControlChangeEvent(tick=35, channel=13, data=[7, 81]),
   midi.NoteOnEvent(tick=80, channel=13, data=[57, 0]),
   midi.ControlChangeEvent(tick=265, channel=13, data=[7, 81]),
   midi.ControlChangeEvent(tick=10, channel=13, data=[7, 81]),
   midi.ControlChangeEvent(tick=15, channel=13, data=[7, 83]),
   midi.ControlChangeEvent(tick=45, channel=13, data=[7, 83]),
   midi.NoteOnEvent(tick=115, channel=13, data=[59, 94]),
   midi.NoteOnEvent(tick=0, channel=13, data=[62, 94]),
   midi.NoteOnEvent(tick=30, channel=13, data=[62, 0]),
   midi.NoteOnEvent(tick=0, channel=13, data=[59, 0]),
   midi.ControlChangeEvent(tick=145, channel=13, data=[7, 83]),
   midi.ControlChangeEvent(tick=80, channel=13, data=[7, 83]),
   midi.ControlChangeEvent(tick=20, channel=13, data=[7, 83]),
   midi.ControlChangeEvent(tick=15, channel=13, data=[7, 83]),
   midi.ControlChangeEvent(tick=45, channel=13, data=[7, 83]),
   midi.ControlChangeEvent(tick=30, channel=13, data=[7, 84]),
   midi.ControlChangeEvent(tick=20, channel=13, data=[7, 84]),
   midi.ControlChangeEvent(tick=15, channel=13, data=[7, 85]),
   midi.ControlChangeEvent(tick=50, channel=13, data=[7, 86]),
   midi.ControlChangeEvent(tick=35, channel=13, data=[7, 87]),
   midi.ControlChangeEvent(tick=20, channel=13, data=[7, 87]),
   midi.ControlChangeEvent(tick=15, channel=13, data=[7, 88]),
   midi.ControlChangeEvent(tick=60, channel=13, data=[7, 88]),
   midi.ControlChangeEvent(tick=370, channel=13, data=[7, 89]),
   midi.ControlChangeEvent(tick=20, channel=13, data=[7, 89]),
   midi.ControlChangeEvent(tick=30, channel=13, data=[7, 90]),
   midi.ControlChangeEvent(tick=60, channel=13, data=[7, 90]),
   midi.NoteOnEvent(tick=20, channel=13, data=[59, 104]),
   midi.ControlChangeEvent(tick=10, channel=13, data=[7, 90]),
   midi.NoteOnEvent(tick=10, channel=13, data=[59, 0]),
   midi.ControlChangeEvent(tick=15, channel=13, data=[7, 90]),
   midi.NoteOnEvent(tick=145, channel=13, data=[74, 104]),
   midi.NoteOnEvent(tick=20, channel=13, data=[74, 0]),
   midi.NoteOnEvent(tick=40, channel=13, data=[74, 104]),
   midi.NoteOnEvent(tick=20, channel=13, data=[74, 0]),
   midi.ControlChangeEvent(tick=75, channel=13, data=[7, 90]),
   midi.ControlChangeEvent(tick=15, channel=13, data=[7, 90]),
   midi.ControlChangeEvent(tick=25, channel=13, data=[7, 90]),
   midi.NoteOnEvent(tick=45, channel=13, data=[68, 104]),
   midi.NoteOnEvent(tick=20, channel=13, data=[68, 0]),
   midi.NoteOnEvent(tick=40, channel=13, data=[68, 104]),
   midi.NoteOnEvent(tick=20, channel=13, data=[68, 0]),
   midi.ControlChangeEvent(tick=130, channel=13, data=[7, 89]),
   midi.NoteOnEvent(tick=30, channel=13, data=[62, 104]),
   midi.NoteOnEvent(tick=20, channel=13, data=[62, 0]),
   midi.NoteOnEvent(tick=40, channel=13, data=[62, 104]),
   midi.NoteOnEvent(tick=20, channel=13, data=[62, 0]),
   midi.ControlChangeEvent(tick=30, channel=13, data=[7, 90]),
   midi.NoteOnEvent(tick=10, channel=13, data=[59, 104]),
   midi.NoteOnEvent(tick=20, channel=13, data=[59, 0]),
   midi.NoteOnEvent(tick=40, channel=13, data=[59, 104]),
   midi.ControlChangeEvent(tick=10, channel=13, data=[7, 90]),
   midi.NoteOnEvent(tick=10, channel=13, data=[59, 0]),
   midi.ControlChangeEvent(tick=10, channel=13, data=[7, 90]),
   midi.ControlChangeEvent(tick=15, channel=13, data=[7, 94]),
   midi.NoteOnEvent(tick=15, channel=13, data=[64, 104]),
   midi.ControlChangeEvent(tick=5, channel=13, data=[7, 98]),
   midi.NoteOnEvent(tick=15, channel=13, data=[64, 0]),
   midi.ControlChangeEvent(tick=0, channel=13, data=[7, 101]),
   midi.ControlChangeEvent(tick=50, channel=13, data=[7, 96]),
   midi.ControlChangeEvent(tick=15, channel=13, data=[7, 90]),
   midi.ControlChangeEvent(tick=20, channel=13, data=[7, 88]),
   midi.ControlChangeEvent(tick=15, channel=13, data=[7, 87]),
   midi.ControlChangeEvent(tick=465, channel=13, data=[7, 88]),
   midi.ControlChangeEvent(tick=350, channel=13, data=[7, 88]),
   midi.ControlChangeEvent(tick=20, channel=13, data=[7, 89]),
   midi.ControlChangeEvent(tick=25, channel=13, data=[7, 90]),
   midi.ControlChangeEvent(tick=20, channel=13, data=[7, 92]),
   midi.ControlChangeEvent(tick=20, channel=13, data=[7, 93]),
   midi.NoteOnEvent(tick=0, channel=13, data=[57, 94]),
   midi.NoteOnEvent(tick=30, channel=13, data=[57, 0]),
   midi.ControlChangeEvent(tick=25, channel=13, data=[7, 94]),
   midi.ControlChangeEvent(tick=20, channel=13, data=[7, 94]),
   midi.NoteOnEvent(tick=105, channel=13, data=[72, 104]),
   midi.NoteOnEvent(tick=20, channel=13, data=[72, 0]),
   midi.NoteOnEvent(tick=40, channel=13, data=[72, 104]),
   midi.NoteOnEvent(tick=20, channel=13, data=[72, 0]),
   midi.NoteOnEvent(tick=160, channel=13, data=[66, 104]),
   midi.NoteOnEvent(tick=20, channel=13, data=[66, 0]),
   midi.NoteOnEvent(tick=40, channel=13, data=[66, 104]),
   midi.NoteOnEvent(tick=20, channel=13, data=[66, 0]),
   midi.NoteOnEvent(tick=160, channel=13, data=[60, 104]),
   midi.NoteOnEvent(tick=20, channel=13, data=[60, 0]),
   midi.NoteOnEvent(tick=40, channel=13, data=[60, 104]),
   midi.NoteOnEvent(tick=20, channel=13, data=[60, 0]),
   midi.NoteOnEvent(tick=40, channel=13, data=[57, 104]),
   midi.NoteOnEvent(tick=20, channel=13, data=[57, 0]),
   midi.NoteOnEvent(tick=40, channel=13, data=[57, 104]),
   midi.NoteOnEvent(tick=20, channel=13, data=[57, 0]),
   midi.ControlChangeEvent(tick=590, channel=13, data=[7, 93]),
   midi.ControlChangeEvent(tick=25, channel=13, data=[7, 92]),
   midi.ControlChangeEvent(tick=20, channel=13, data=[7, 90]),
   midi.ControlChangeEvent(tick=20, channel=13, data=[7, 90]),
   midi.ControlChangeEvent(tick=35, channel=13, data=[7, 90]),
   midi.ControlChangeEvent(tick=70, channel=13, data=[7, 89]),
   midi.ControlChangeEvent(tick=180, channel=13, data=[7, 90]),
   midi.ControlChangeEvent(tick=560, channel=13, data=[7, 89]),
   midi.ControlChangeEvent(tick=30, channel=13, data=[7, 89]),
   midi.ControlChangeEvent(tick=20, channel=13, data=[7, 88]),
   midi.ControlChangeEvent(tick=20, channel=13, data=[7, 87]),
   midi.ControlChangeEvent(tick=20, channel=13, data=[7, 87]),
   midi.ControlChangeEvent(tick=20, channel=13, data=[7, 86]),
   midi.ControlChangeEvent(tick=20, channel=13, data=[7, 85]),
   midi.ControlChangeEvent(tick=20, channel=13, data=[7, 84]),
   midi.ControlChangeEvent(tick=15, channel=13, data=[7, 83]),
   midi.ControlChangeEvent(tick=20, channel=13, data=[7, 83]),
   midi.ControlChangeEvent(tick=20, channel=13, data=[7, 83]),
   midi.ControlChangeEvent(tick=25, channel=13, data=[7, 83]),
   midi.ControlChangeEvent(tick=15, channel=13, data=[7, 83]),
   midi.ControlChangeEvent(tick=35, channel=13, data=[7, 81]),
   midi.ControlChangeEvent(tick=30, channel=13, data=[7, 81]),
   midi.ControlChangeEvent(tick=25, channel=13, data=[7, 81]),
   midi.ControlChangeEvent(tick=35, channel=13, data=[7, 81]),
   midi.ControlChangeEvent(tick=40, channel=13, data=[7, 81]),
   midi.NoteOnEvent(tick=110, channel=13, data=[53, 94]),
   midi.ControlChangeEvent(tick=175, channel=13, data=[7, 81]),
   midi.ControlChangeEvent(tick=15, channel=13, data=[7, 81]),
   midi.ControlChangeEvent(tick=20, channel=13, data=[7, 81]),
   midi.NoteOnEvent(tick=90, channel=13, data=[53, 0]),
   midi.NoteOnEvent(tick=0, channel=13, data=[53, 94]),
   midi.NoteOnEvent(tick=5, channel=13, data=[53, 0]),
   midi.NoteOnEvent(tick=55, channel=13, data=[53, 94]),
   midi.ControlChangeEvent(tick=20, channel=13, data=[7, 81]),
   midi.ControlChangeEvent(tick=20, channel=13, data=[7, 81]),
   midi.NoteOnEvent(tick=15, channel=13, data=[53, 0]),
   midi.NoteOnEvent(tick=5, channel=13, data=[53, 94]),
   midi.NoteOnEvent(tick=55, channel=13, data=[53, 0]),
   midi.NoteOnEvent(tick=5, channel=13, data=[60, 94]),
   midi.ControlChangeEvent(tick=30, channel=13, data=[7, 81]),
   midi.ControlChangeEvent(tick=105, channel=13, data=[7, 81]),
   midi.ControlChangeEvent(tick=50, channel=13, data=[7, 81]),
   midi.ControlChangeEvent(tick=20, channel=13, data=[7, 83]),
   midi.ControlChangeEvent(tick=40, channel=13, data=[7, 83]),
   midi.ControlChangeEvent(tick=45, channel=13, data=[7, 83]),
   midi.NoteOnEvent(tick=10, channel=13, data=[60, 0]),
   midi.NoteOnEvent(tick=0, channel=13, data=[60, 94]),
   midi.NoteOnEvent(tick=5, channel=13, data=[60, 0]),
   midi.ControlChangeEvent(tick=50, channel=13, data=[7, 83]),
   midi.NoteOnEvent(tick=5, channel=13, data=[60, 94]),
   midi.ControlChangeEvent(tick=30, channel=13, data=[7, 83]),
   midi.NoteOnEvent(tick=25, channel=13, data=[60, 0]),
   midi.ControlChangeEvent(tick=0, channel=13, data=[7, 83]),
   midi.NoteOnEvent(tick=5, channel=13, data=[60, 94]),
   midi.ControlChangeEvent(tick=50, channel=13, data=[7, 84]),
   midi.NoteOnEvent(tick=5, channel=13, data=[60, 0]),
   midi.NoteOnEvent(tick=5, channel=13, data=[60, 94]),
   midi.ControlChangeEvent(tick=20, channel=13, data=[7, 84]),
   midi.ControlChangeEvent(tick=50, channel=13, data=[7, 85]),
   midi.ControlChangeEvent(tick=55, channel=13, data=[7, 86]),
   midi.ControlChangeEvent(tick=40, channel=13, data=[7, 87]),
   midi.ControlChangeEvent(tick=40, channel=13, data=[7, 87]),
   midi.ControlChangeEvent(tick=30, channel=13, data=[7, 88]),
   midi.NoteOnEvent(tick=30, channel=13, data=[60, 0]),
   midi.ControlChangeEvent(tick=0, channel=13, data=[7, 88]),
   midi.NoteOnEvent(tick=5, channel=13, data=[60, 94]),
   midi.ControlChangeEvent(tick=10, channel=13, data=[7, 89]),
   midi.NoteOnEvent(tick=15, channel=13, data=[60, 0]),
   midi.NoteOnEvent(tick=5, channel=13, data=[60, 94]),
   midi.ControlChangeEvent(tick=0, channel=13, data=[7, 89]),
   midi.NoteOnEvent(tick=25, channel=13, data=[60, 0]),
   midi.ControlChangeEvent(tick=5, channel=13, data=[7, 90]),
   midi.NoteOnEvent(tick=0, channel=13, data=[60, 94]),
   midi.ControlChangeEvent(tick=20, channel=13, data=[7, 90]),
   midi.NoteOnEvent(tick=5, channel=13, data=[60, 0]),
   midi.NoteOnEvent(tick=5, channel=13, data=[60, 94]),
   midi.NoteOnEvent(tick=25, channel=13, data=[60, 0]),
   midi.ControlChangeEvent(tick=0, channel=13, data=[7, 90]),
   midi.NoteOnEvent(tick=5, channel=13, data=[60, 94]),
   midi.NoteOnEvent(tick=25, channel=13, data=[60, 0]),
   midi.NoteOnEvent(tick=5, channel=13, data=[60, 94]),
   midi.ControlChangeEvent(tick=5, channel=13, data=[7, 90]),
   midi.NoteOnEvent(tick=20, channel=13, data=[60, 0]),
   midi.ControlChangeEvent(tick=5, channel=13, data=[7, 92]),
   midi.NoteOnEvent(tick=0, channel=13, data=[60, 94]),
   midi.ControlChangeEvent(tick=20, channel=13, data=[7, 92]),
   midi.NoteOnEvent(tick=5, channel=13, data=[60, 0]),
   midi.NoteOnEvent(tick=5, channel=13, data=[65, 105]),
   midi.ControlChangeEvent(tick=15, channel=13, data=[7, 93]),
   midi.NoteOnEvent(tick=10, channel=13, data=[65, 0]),
   midi.NoteOnEvent(tick=5, channel=13, data=[65, 105]),
   midi.ControlChangeEvent(tick=15, channel=13, data=[7, 94]),
   midi.NoteOnEvent(tick=10, channel=13, data=[65, 0]),
   midi.NoteOnEvent(tick=5, channel=13, data=[60, 105]),
   midi.NoteOnEvent(tick=25, channel=13, data=[60, 0]),
   midi.NoteOnEvent(tick=5, channel=13, data=[60, 103]),
   midi.NoteOnEvent(tick=25, channel=13, data=[60, 0]),
   midi.NoteOnEvent(tick=5, channel=13, data=[60, 105]),
   midi.NoteOnEvent(tick=25, channel=13, data=[60, 0]),
   midi.ControlChangeEvent(tick=0, channel=13, data=[7, 94]),
   midi.NoteOnEvent(tick=5, channel=13, data=[60, 105]),
   midi.NoteOnEvent(tick=25, channel=13, data=[60, 0]),
   midi.NoteOnEvent(tick=5, channel=13, data=[65, 105]),
   midi.NoteOnEvent(tick=25, channel=13, data=[65, 0]),
   midi.NoteOnEvent(tick=5, channel=13, data=[65, 103]),
   midi.ControlChangeEvent(tick=0, channel=13, data=[7, 94]),
   midi.NoteOnEvent(tick=25, channel=13, data=[65, 0]),
   midi.NoteOnEvent(tick=5, channel=13, data=[69, 105]),
   midi.ControlChangeEvent(tick=20, channel=13, data=[7, 94]),
   midi.NoteOnEvent(tick=5, channel=13, data=[69, 0]),
   midi.NoteOnEvent(tick=5, channel=13, data=[69, 105]),
   midi.NoteOnEvent(tick=25, channel=13, data=[69, 0]),
   midi.ControlChangeEvent(tick=0, channel=13, data=[7, 96]),
   midi.NoteOnEvent(tick=5, channel=13, data=[65, 98]),
   midi.NoteOnEvent(tick=25, channel=13, data=[65, 0]),
   midi.NoteOnEvent(tick=5, channel=13, data=[65, 103]),
   midi.ControlChangeEvent(tick=5, channel=13, data=[7, 96]),
   midi.NoteOnEvent(tick=20, channel=13, data=[65, 0]),
   midi.NoteOnEvent(tick=5, channel=13, data=[65, 105]),
   midi.ControlChangeEvent(tick=10, channel=13, data=[7, 96]),
   midi.NoteOnEvent(tick=15, channel=13, data=[65, 0]),
   midi.NoteOnEvent(tick=5, channel=13, data=[65, 105]),
   midi.ControlChangeEvent(tick=5, channel=13, data=[7, 96]),
   midi.NoteOnEvent(tick=20, channel=13, data=[65, 0]),
   midi.NoteOnEvent(tick=5, channel=13, data=[69, 105]),
   midi.ControlChangeEvent(tick=0, channel=13, data=[7, 96]),
   midi.NoteOnEvent(tick=25, channel=13, data=[69, 0]),
   midi.ControlChangeEvent(tick=0, channel=13, data=[7, 96]),
   midi.NoteOnEvent(tick=5, channel=13, data=[69, 105]),
   midi.NoteOnEvent(tick=25, channel=13, data=[69, 0]),
   midi.ControlChangeEvent(tick=0, channel=13, data=[7, 98]),
   midi.NoteOnEvent(tick=5, channel=13, data=[72, 94]),
   midi.ControlChangeEvent(tick=35, channel=13, data=[7, 98]),
   midi.NoteOnEvent(tick=20, channel=13, data=[72, 0]),
   midi.ControlChangeEvent(tick=45, channel=13, data=[7, 98]),
   midi.ControlChangeEvent(tick=155, channel=13, data=[7, 98]),
   midi.ControlChangeEvent(tick=15, channel=13, data=[7, 98]),
   midi.ControlChangeEvent(tick=10, channel=13, data=[7, 96]),
   midi.ControlChangeEvent(tick=10, channel=13, data=[7, 96]),
   midi.ControlChangeEvent(tick=15, channel=13, data=[7, 96]),
   midi.ControlChangeEvent(tick=35, channel=13, data=[7, 96]),
   midi.ControlChangeEvent(tick=75, channel=13, data=[7, 96]),
   midi.ControlChangeEvent(tick=5, channel=13, data=[7, 94]),
   midi.ControlChangeEvent(tick=10, channel=13, data=[7, 94]),
   midi.ControlChangeEvent(tick=5, channel=13, data=[7, 93]),
   midi.ControlChangeEvent(tick=5, channel=13, data=[7, 92]),
   midi.ControlChangeEvent(tick=10, channel=13, data=[7, 92]),
   midi.ControlChangeEvent(tick=5, channel=13, data=[7, 90]),
   midi.ControlChangeEvent(tick=10, channel=13, data=[7, 90]),
   midi.ControlChangeEvent(tick=5, channel=13, data=[7, 90]),
   midi.ControlChangeEvent(tick=10, channel=13, data=[7, 89]),
   midi.NoteOnEvent(tick=0, channel=13, data=[55, 78]),
   midi.ControlChangeEvent(tick=5, channel=13, data=[7, 89]),
   midi.ControlChangeEvent(tick=15, channel=13, data=[7, 88]),
   midi.ControlChangeEvent(tick=10, channel=13, data=[7, 88]),
   midi.ControlChangeEvent(tick=15, channel=13, data=[7, 87]),
   midi.ControlChangeEvent(tick=15, channel=13, data=[7, 87]),
   midi.ControlChangeEvent(tick=15, channel=13, data=[7, 86]),
   midi.ControlChangeEvent(tick=25, channel=13, data=[7, 85]),
   midi.ControlChangeEvent(tick=25, channel=13, data=[7, 84]),
   midi.ControlChangeEvent(tick=35, channel=13, data=[7, 84]),
   midi.ControlChangeEvent(tick=30, channel=13, data=[7, 83]),
   midi.ControlChangeEvent(tick=20, channel=13, data=[7, 83]),
   midi.ControlChangeEvent(tick=20, channel=13, data=[7, 83]),
   midi.ControlChangeEvent(tick=20, channel=13, data=[7, 83]),
   midi.ControlChangeEvent(tick=30, channel=13, data=[7, 83]),
   midi.ControlChangeEvent(tick=20, channel=13, data=[7, 83]),
   midi.ControlChangeEvent(tick=15, channel=13, data=[7, 81]),
   midi.ControlChangeEvent(tick=25, channel=13, data=[7, 81]),
   midi.ControlChangeEvent(tick=25, channel=13, data=[7, 81]),
   midi.ControlChangeEvent(tick=15, channel=13, data=[7, 81]),
   midi.ControlChangeEvent(tick=40, channel=13, data=[7, 81]),
   midi.ControlChangeEvent(tick=25, channel=13, data=[7, 80]),
   midi.ControlChangeEvent(tick=45, channel=13, data=[7, 79]),
   midi.ControlChangeEvent(tick=95, channel=13, data=[7, 79]),
   midi.NoteOnEvent(tick=10, channel=13, data=[55, 0]),
   midi.NoteOnEvent(tick=545, channel=13, data=[50, 78]),
   midi.NoteOnEvent(tick=0, channel=13, data=[60, 78]),
   midi.NoteOnEvent(tick=60, channel=13, data=[60, 0]),
   midi.NoteOnEvent(tick=0, channel=13, data=[59, 78]),
   midi.NoteOnEvent(tick=235, channel=13, data=[59, 0]),
   midi.NoteOnEvent(tick=0, channel=13, data=[50, 0]),
   midi.ControlChangeEvent(tick=395, channel=13, data=[7, 79]),
   midi.ControlChangeEvent(tick=15, channel=13, data=[7, 80]),
   midi.ControlChangeEvent(tick=10, channel=13, data=[7, 81]),
   midi.ControlChangeEvent(tick=10, channel=13, data=[7, 81]),
   midi.ControlChangeEvent(tick=10, channel=13, data=[7, 81]),
   midi.ControlChangeEvent(tick=20, channel=13, data=[7, 81]),
   midi.ControlChangeEvent(tick=15, channel=13, data=[7, 81]),
   midi.ControlChangeEvent(tick=15, channel=13, data=[7, 83]),
   midi.ControlChangeEvent(tick=15, channel=13, data=[7, 83]),
   midi.ControlChangeEvent(tick=20, channel=13, data=[7, 83]),
   midi.ControlChangeEvent(tick=20, channel=13, data=[7, 83]),
   midi.ControlChangeEvent(tick=30, channel=13, data=[7, 83]),
   midi.ControlChangeEvent(tick=35, channel=13, data=[7, 83]),
   midi.ControlChangeEvent(tick=15, channel=13, data=[7, 84]),
   midi.ControlChangeEvent(tick=25, channel=13, data=[7, 84]),
   midi.NoteOnEvent(tick=15, channel=13, data=[50, 84]),
   midi.NoteOnEvent(tick=0, channel=13, data=[62, 84]),
   midi.ControlChangeEvent(tick=0, channel=13, data=[7, 85]),
   midi.ControlChangeEvent(tick=15, channel=13, data=[7, 86]),
   midi.ControlChangeEvent(tick=15, channel=13, data=[7, 87]),
   midi.ControlChangeEvent(tick=20, channel=13, data=[7, 87]),
   midi.ControlChangeEvent(tick=30, channel=13, data=[7, 88]),
   midi.ControlChangeEvent(tick=20, channel=13, data=[7, 88]),
   midi.NoteOnEvent(tick=20, channel=13, data=[62, 0]),
   midi.NoteOnEvent(tick=0, channel=13, data=[50, 0]),
   midi.ControlChangeEvent(tick=0, channel=13, data=[7, 89]),
   midi.NoteOnEvent(tick=0, channel=13, data=[52, 99]),
   midi.ControlChangeEvent(tick=20, channel=13, data=[7, 89]),
   midi.ControlChangeEvent(tick=30, channel=13, data=[7, 90]),
   midi.NoteOnEvent(tick=10, channel=13, data=[52, 0]),
   midi.NoteOnEvent(tick=0, channel=13, data=[53, 97]),
   midi.ControlChangeEvent(tick=55, channel=13, data=[7, 90]),
   midi.NoteOnEvent(tick=5, channel=13, data=[53, 0]),
   midi.NoteOnEvent(tick=0, channel=13, data=[54, 97]),
   midi.NoteOnEvent(tick=50, channel=13, data=[54, 0]),
   midi.NoteOnEvent(tick=10, channel=13, data=[55, 81]),
   midi.NoteOnEvent(tick=240, channel=13, data=[55, 0]),
   midi.NoteOnEvent(tick=0, channel=13, data=[57, 78]),
   midi.ControlChangeEvent(tick=10, channel=13, data=[7, 90]),
   midi.ControlChangeEvent(tick=5, channel=13, data=[7, 89]),
   midi.ControlChangeEvent(tick=10, channel=13, data=[7, 88]),
   midi.ControlChangeEvent(tick=5, channel=13, data=[7, 88]),
   midi.ControlChangeEvent(tick=5, channel=13, data=[7, 87]),
   midi.ControlChangeEvent(tick=10, channel=13, data=[7, 86]),
   midi.ControlChangeEvent(tick=10, channel=13, data=[7, 85]),
   midi.ControlChangeEvent(tick=5, channel=13, data=[7, 84]),
   midi.ControlChangeEvent(tick=10, channel=13, data=[7, 83]),
   midi.ControlChangeEvent(tick=10, channel=13, data=[7, 83]),
   midi.ControlChangeEvent(tick=5, channel=13, data=[7, 83]),
   midi.ControlChangeEvent(tick=25, channel=13, data=[7, 83]),
   midi.ControlChangeEvent(tick=5, channel=13, data=[7, 83]),
   midi.NoteOnEvent(tick=5, channel=13, data=[57, 0]),
   midi.NoteOnEvent(tick=0, channel=13, data=[56, 78]),
   midi.ControlChangeEvent(tick=55, channel=13, data=[7, 83]),
   midi.ControlChangeEvent(tick=15, channel=13, data=[7, 81]),
   midi.ControlChangeEvent(tick=5, channel=13, data=[7, 81]),
   midi.ControlChangeEvent(tick=10, channel=13, data=[7, 81]),
   midi.NoteOnEvent(tick=35, channel=13, data=[56, 0]),
   midi.NoteOnEvent(tick=0, channel=13, data=[55, 78]),
   midi.ControlChangeEvent(tick=10, channel=13, data=[7, 81]),
   midi.ControlChangeEvent(tick=5, channel=13, data=[7, 81]),
   midi.ControlChangeEvent(tick=10, channel=13, data=[7, 81]),
   midi.ControlChangeEvent(tick=15, channel=13, data=[7, 83]),
   midi.ControlChangeEvent(tick=15, channel=13, data=[7, 83]),
   midi.ControlChangeEvent(tick=10, channel=13, data=[7, 83]),
   midi.ControlChangeEvent(tick=25, channel=13, data=[7, 83]),
   midi.NoteOnEvent(tick=80, channel=13, data=[55, 0]),
   midi.ControlChangeEvent(tick=0, channel=13, data=[7, 83]),
   midi.NoteOnEvent(tick=10, channel=13, data=[50, 78]),
   midi.NoteOnEvent(tick=0, channel=13, data=[60, 78]),
   midi.ControlChangeEvent(tick=5, channel=13, data=[7, 83]),
   midi.ControlChangeEvent(tick=15, channel=13, data=[7, 83]),
   midi.ControlChangeEvent(tick=10, channel=13, data=[7, 81]),
   midi.ControlChangeEvent(tick=10, channel=13, data=[7, 81]),
   midi.ControlChangeEvent(tick=15, channel=13, data=[7, 81]),
   midi.NoteOnEvent(tick=5, channel=13, data=[60, 0]),
   midi.NoteOnEvent(tick=0, channel=13, data=[59, 78]),
   midi.ControlChangeEvent(tick=5, channel=13, data=[7, 81]),
   midi.ControlChangeEvent(tick=15, channel=13, data=[7, 81]),
   midi.ControlChangeEvent(tick=20, channel=13, data=[7, 80]),
   midi.ControlChangeEvent(tick=35, channel=13, data=[7, 79]),
   midi.ControlChangeEvent(tick=20, channel=13, data=[7, 79]),
   midi.ControlChangeEvent(tick=60, channel=13, data=[7, 78]),
   midi.ControlChangeEvent(tick=15, channel=13, data=[7, 78]),
   midi.NoteOnEvent(tick=5, channel=13, data=[59, 0]),
   midi.NoteOnEvent(tick=0, channel=13, data=[50, 0]),
   midi.NoteOnEvent(tick=65, channel=13, data=[55, 78]),
   midi.ControlChangeEvent(tick=65, channel=13, data=[7, 79]),
   midi.ControlChangeEvent(tick=5, channel=13, data=[7, 79]),
   midi.ControlChangeEvent(tick=5, channel=13, data=[7, 79]),
   midi.ControlChangeEvent(tick=5, channel=13, data=[7, 80]),
   midi.ControlChangeEvent(tick=5, channel=13, data=[7, 80]),
   midi.ControlChangeEvent(tick=0, channel=13, data=[7, 81]),
   midi.ControlChangeEvent(tick=5, channel=13, data=[7, 81]),
   midi.NoteOnEvent(tick=30, channel=13, data=[55, 0]),
   midi.NoteOnEvent(tick=0, channel=13, data=[58, 78]),
   midi.ControlChangeEvent(tick=90, channel=13, data=[7, 81]),
   midi.ControlChangeEvent(tick=5, channel=13, data=[7, 81]),
   midi.ControlChangeEvent(tick=10, channel=13, data=[7, 83]),
   midi.ControlChangeEvent(tick=5, channel=13, data=[7, 83]),
   midi.NoteOnEvent(tick=10, channel=13, data=[58, 0]),
   midi.NoteOnEvent(tick=0, channel=13, data=[61, 78]),
   midi.ControlChangeEvent(tick=0, channel=13, data=[7, 83]),
   midi.ControlChangeEvent(tick=10, channel=13, data=[7, 83]),
   midi.ControlChangeEvent(tick=10, channel=13, data=[7, 83]),
   midi.ControlChangeEvent(tick=5, channel=13, data=[7, 83]),
   midi.ControlChangeEvent(tick=25, channel=13, data=[7, 84]),
   midi.ControlChangeEvent(tick=15, channel=13, data=[7, 85]),
   midi.ControlChangeEvent(tick=25, channel=13, data=[7, 86]),
   midi.ControlChangeEvent(tick=90, channel=13, data=[7, 87]),
   midi.ControlChangeEvent(tick=10, channel=13, data=[7, 87]),
   midi.ControlChangeEvent(tick=20, channel=13, data=[7, 88]),
   midi.NoteOnEvent(tick=20, channel=13, data=[61, 0]),
   midi.ControlChangeEvent(tick=5, channel=13, data=[7, 88]),
   midi.NoteOnEvent(tick=5, channel=13, data=[60, 78]),
   midi.ControlChangeEvent(tick=35, channel=13, data=[7, 89]),
   midi.ControlChangeEvent(tick=15, channel=13, data=[7, 88]),
   midi.ControlChangeEvent(tick=10, channel=13, data=[7, 88]),
   midi.ControlChangeEvent(tick=10, channel=13, data=[7, 87]),
   midi.ControlChangeEvent(tick=5, channel=13, data=[7, 86]),
   midi.ControlChangeEvent(tick=10, channel=13, data=[7, 85]),
   midi.ControlChangeEvent(tick=10, channel=13, data=[7, 84]),
   midi.ControlChangeEvent(tick=10, channel=13, data=[7, 83]),
   midi.ControlChangeEvent(tick=15, channel=13, data=[7, 83]),
   midi.ControlChangeEvent(tick=5, channel=13, data=[7, 83]),
   midi.ControlChangeEvent(tick=5, channel=13, data=[7, 83]),
   midi.ControlChangeEvent(tick=5, channel=13, data=[7, 83]),
   midi.ControlChangeEvent(tick=15, channel=13, data=[7, 83]),
   midi.ControlChangeEvent(tick=10, channel=13, data=[7, 81]),
   midi.ControlChangeEvent(tick=15, channel=13, data=[7, 81]),
   midi.ControlChangeEvent(tick=10, channel=13, data=[7, 81]),
   midi.ControlChangeEvent(tick=50, channel=13, data=[7, 81]),
   midi.NoteOnEvent(tick=5, channel=13, data=[60, 0]),
   midi.NoteOnEvent(tick=0, channel=13, data=[59, 78]),
   midi.ControlChangeEvent(tick=45, channel=13, data=[7, 80]),
   midi.ControlChangeEvent(tick=10, channel=13, data=[7, 79]),
   midi.ControlChangeEvent(tick=35, channel=13, data=[7, 79]),
   midi.ControlChangeEvent(tick=35, channel=13, data=[7, 79]),
   midi.ControlChangeEvent(tick=15, channel=13, data=[7, 80]),
   midi.NoteOnEvent(tick=35, channel=13, data=[59, 0]),
   midi.ControlChangeEvent(tick=20, channel=13, data=[7, 81]),
   midi.ControlChangeEvent(tick=10, channel=13, data=[7, 81]),
   midi.ControlChangeEvent(tick=5, channel=13, data=[7, 81]),
   midi.ControlChangeEvent(tick=0, channel=13, data=[7, 81]),
   midi.ControlChangeEvent(tick=5, channel=13, data=[7, 81]),
   midi.ControlChangeEvent(tick=5, channel=13, data=[7, 83]),
   midi.ControlChangeEvent(tick=165, channel=13, data=[7, 83]),
   midi.NoteOnEvent(tick=95, channel=13, data=[48, 78]),
   midi.NoteOnEvent(tick=205, channel=13, data=[48, 0]),
   midi.ControlChangeEvent(tick=0, channel=13, data=[7, 83]),
   midi.ControlChangeEvent(tick=195, channel=13, data=[7, 83]),
   midi.ControlChangeEvent(tick=30, channel=13, data=[7, 83]),
   midi.ControlChangeEvent(tick=40, channel=13, data=[7, 83]),
   midi.NoteOnEvent(tick=10, channel=13, data=[50, 78]),
   midi.ControlChangeEvent(tick=15, channel=13, data=[7, 84]),
   midi.ControlChangeEvent(tick=20, channel=13, data=[7, 85]),
   midi.ControlChangeEvent(tick=15, channel=13, data=[7, 86]),
   midi.ControlChangeEvent(tick=15, channel=13, data=[7, 87]),
   midi.ControlChangeEvent(tick=15, channel=13, data=[7, 87]),
   midi.ControlChangeEvent(tick=15, channel=13, data=[7, 88]),
   midi.ControlChangeEvent(tick=15, channel=13, data=[7, 89]),
   midi.ControlChangeEvent(tick=15, channel=13, data=[7, 89]),
   midi.ControlChangeEvent(tick=20, channel=13, data=[7, 90]),
   midi.NoteOnEvent(tick=60, channel=13, data=[50, 0]),
   midi.ControlChangeEvent(tick=180, channel=13, data=[7, 90]),
   midi.ControlChangeEvent(tick=30, channel=13, data=[7, 90]),
   midi.ControlChangeEvent(tick=10, channel=13, data=[7, 92]),
   midi.ControlChangeEvent(tick=15, channel=13, data=[7, 92]),
   midi.ControlChangeEvent(tick=10, channel=13, data=[7, 92]),
   midi.ControlChangeEvent(tick=20, channel=13, data=[7, 93]),
   midi.NoteOnEvent(tick=10, channel=13, data=[55, 78]),
   midi.ControlChangeEvent(tick=5, channel=13, data=[7, 94]),
   midi.ControlChangeEvent(tick=10, channel=13, data=[7, 94]),
   midi.ControlChangeEvent(tick=10, channel=13, data=[7, 96]),
   midi.ControlChangeEvent(tick=10, channel=13, data=[7, 96]),
   midi.ControlChangeEvent(tick=15, channel=13, data=[7, 96]),
   midi.ControlChangeEvent(tick=15, channel=13, data=[7, 96]),
   midi.ControlChangeEvent(tick=5, channel=13, data=[7, 96]),
   midi.ControlChangeEvent(tick=20, channel=13, data=[7, 98]),
   midi.ControlChangeEvent(tick=5, channel=13, data=[7, 98]),
   midi.ControlChangeEvent(tick=105, channel=13, data=[7, 98]),
   midi.NoteOnEvent(tick=5, channel=13, data=[55, 0]),
   midi.ControlChangeEvent(tick=5, channel=13, data=[7, 96]),
   midi.ControlChangeEvent(tick=10, channel=13, data=[7, 96]),
   midi.ControlChangeEvent(tick=10, channel=13, data=[7, 96]),
   midi.ControlChangeEvent(tick=5, channel=13, data=[7, 96]),
   midi.NoteOnEvent(tick=5, channel=13, data=[60, 78]),
   midi.ControlChangeEvent(tick=5, channel=13, data=[7, 94]),
   midi.ControlChangeEvent(tick=5, channel=13, data=[7, 94]),
   midi.ControlChangeEvent(tick=10, channel=13, data=[7, 92]),
   midi.ControlChangeEvent(tick=10, channel=13, data=[7, 92]),
   midi.ControlChangeEvent(tick=5, channel=13, data=[7, 90]),
   midi.ControlChangeEvent(tick=10, channel=13, data=[7, 90]),
   midi.ControlChangeEvent(tick=15, channel=13, data=[7, 90]),
   midi.ControlChangeEvent(tick=5, channel=13, data=[7, 89]),
   midi.ControlChangeEvent(tick=15, channel=13, data=[7, 89]),
   midi.ControlChangeEvent(tick=25, channel=13, data=[7, 88]),
   midi.ControlChangeEvent(tick=20, channel=13, data=[7, 87]),
   midi.ControlChangeEvent(tick=5, channel=13, data=[7, 87]),
   midi.ControlChangeEvent(tick=5, channel=13, data=[7, 86]),
   midi.ControlChangeEvent(tick=10, channel=13, data=[7, 85]),
   midi.ControlChangeEvent(tick=25, channel=13, data=[7, 84]),
   midi.ControlChangeEvent(tick=15, channel=13, data=[7, 83]),
   midi.ControlChangeEvent(tick=10, channel=13, data=[7, 83]),
   midi.ControlChangeEvent(tick=10, channel=13, data=[7, 83]),
   midi.ControlChangeEvent(tick=25, channel=13, data=[7, 83]),
   midi.ControlChangeEvent(tick=30, channel=13, data=[7, 83]),
   midi.ControlChangeEvent(tick=10, channel=13, data=[7, 83]),
   midi.ControlChangeEvent(tick=20, channel=13, data=[7, 81]),
   midi.ControlChangeEvent(tick=25, channel=13, data=[7, 81]),
   midi.NoteOnEvent(tick=45, channel=13, data=[60, 0]),
   midi.NoteOnEvent(tick=0, channel=13, data=[59, 78]),
   midi.ControlChangeEvent(tick=0, channel=13, data=[7, 81]),
   midi.ControlChangeEvent(tick=60, channel=13, data=[7, 81]),
   midi.ControlChangeEvent(tick=10, channel=13, data=[7, 80]),
   midi.ControlChangeEvent(tick=15, channel=13, data=[7, 79]),
   midi.ControlChangeEvent(tick=15, channel=13, data=[7, 79]),
   midi.NoteOnEvent(tick=10, channel=13, data=[59, 0]),
   midi.NoteOnEvent(tick=10, channel=13, data=[48, 91]),
   midi.NoteOnEvent(tick=40, channel=13, data=[48, 0]),
   midi.NoteOnEvent(tick=80, channel=13, data=[48, 91]),
   midi.NoteOnEvent(tick=40, channel=13, data=[48, 0]),
   midi.ControlChangeEvent(tick=210, channel=13, data=[7, 79]),
   midi.ControlChangeEvent(tick=15, channel=13, data=[7, 80]),
   midi.ControlChangeEvent(tick=20, channel=13, data=[7, 81]),
   midi.ControlChangeEvent(tick=10, channel=13, data=[7, 81]),
   midi.ControlChangeEvent(tick=40, channel=13, data=[7, 81]),
   midi.NoteOnEvent(tick=25, channel=13, data=[50, 91]),
   midi.ControlChangeEvent(tick=30, channel=13, data=[7, 81]),
   midi.NoteOnEvent(tick=10, channel=13, data=[50, 0]),
   midi.ControlChangeEvent(tick=25, channel=13, data=[7, 83]),
   midi.ControlChangeEvent(tick=15, channel=13, data=[7, 83]),
   midi.NoteOnEvent(tick=40, channel=13, data=[50, 91]),
   midi.ControlChangeEvent(tick=0, channel=13, data=[7, 83]),
   midi.ControlChangeEvent(tick=10, channel=13, data=[7, 83]),
   midi.ControlChangeEvent(tick=10, channel=13, data=[7, 83]),
   midi.ControlChangeEvent(tick=10, channel=13, data=[7, 83]),
   midi.NoteOnEvent(tick=10, channel=13, data=[50, 0]),
   midi.ControlChangeEvent(tick=0, channel=13, data=[7, 84]),
   midi.ControlChangeEvent(tick=15, channel=13, data=[7, 85]),
   midi.ControlChangeEvent(tick=30, channel=13, data=[7, 86]),
   midi.ControlChangeEvent(tick=195, channel=13, data=[7, 87]),
   midi.ControlChangeEvent(tick=45, channel=13, data=[7, 87]),
   midi.ControlChangeEvent(tick=25, channel=13, data=[7, 88]),
   midi.NoteOnEvent(tick=10, channel=13, data=[52, 91]),
   midi.ControlChangeEvent(tick=10, channel=13, data=[7, 89]),
   midi.ControlChangeEvent(tick=15, channel=13, data=[7, 90]),
   midi.NoteOnEvent(tick=15, channel=13, data=[52, 0]),
   midi.ControlChangeEvent(tick=0, channel=13, data=[7, 90]),
   midi.ControlChangeEvent(tick=20, channel=13, data=[7, 90]),
   midi.ControlChangeEvent(tick=40, channel=13, data=[7, 92]),
   midi.NoteOnEvent(tick=20, channel=13, data=[52, 91]),
   midi.ControlChangeEvent(tick=10, channel=13, data=[7, 92]),
   midi.ControlChangeEvent(tick=25, channel=13, data=[7, 92]),
   midi.NoteOnEvent(tick=5, channel=13, data=[52, 0]),
   midi.ControlChangeEvent(tick=30, channel=13, data=[7, 93]),
   midi.NoteOnEvent(tick=50, channel=13, data=[55, 91]),
   midi.NoteOnEvent(tick=40, channel=13, data=[55, 0]),
   midi.ControlChangeEvent(tick=35, channel=13, data=[7, 94]),
   midi.ControlChangeEvent(tick=25, channel=13, data=[7, 94]),
   midi.NoteOnEvent(tick=20, channel=13, data=[55, 91]),
   midi.ControlChangeEvent(tick=25, channel=13, data=[7, 94]),
   midi.ControlChangeEvent(tick=10, channel=13, data=[7, 96]),
   midi.NoteOnEvent(tick=5, channel=13, data=[55, 0]),
   midi.ControlChangeEvent(tick=10, channel=13, data=[7, 96]),
   midi.ControlChangeEvent(tick=30, channel=13, data=[7, 96]),
   midi.ControlChangeEvent(tick=15, channel=13, data=[7, 96]),
   midi.ControlChangeEvent(tick=15, channel=13, data=[7, 96]),
   midi.ControlChangeEvent(tick=10, channel=13, data=[7, 94]),
   midi.NoteOnEvent(tick=0, channel=13, data=[55, 89]),
   midi.ControlChangeEvent(tick=115, channel=13, data=[7, 94]),
   midi.NoteOnEvent(tick=65, channel=13, data=[55, 0]),
   midi.NoteOnEvent(tick=0, channel=13, data=[54, 81]),
   midi.ControlChangeEvent(tick=10, channel=13, data=[7, 94]),
   midi.ControlChangeEvent(tick=35, channel=13, data=[7, 94]),
   midi.NoteOnEvent(tick=15, channel=13, data=[54, 0]),
   midi.NoteOnEvent(tick=0, channel=13, data=[53, 76]),
   midi.ControlChangeEvent(tick=5, channel=13, data=[7, 94]),
   midi.ControlChangeEvent(tick=125, channel=13, data=[7, 93]),
   midi.ControlChangeEvent(tick=15, channel=13, data=[7, 92]),
   midi.ControlChangeEvent(tick=10, channel=13, data=[7, 92]),
   midi.ControlChangeEvent(tick=10, channel=13, data=[7, 92]),
   midi.ControlChangeEvent(tick=10, channel=13, data=[7, 90]),
   midi.ControlChangeEvent(tick=10, channel=13, data=[7, 90]),
   midi.ControlChangeEvent(tick=25, channel=13, data=[7, 90]),
   midi.ControlChangeEvent(tick=15, channel=13, data=[7, 89]),
   midi.ControlChangeEvent(tick=65, channel=13, data=[7, 89]),
   midi.ControlChangeEvent(tick=25, channel=13, data=[7, 88]),
   midi.ControlChangeEvent(tick=30, channel=13, data=[7, 87]),
   midi.NoteOnEvent(tick=15, channel=13, data=[53, 0]),
   midi.NoteOnEvent(tick=0, channel=13, data=[52, 79]),
   midi.ControlChangeEvent(tick=40, channel=13, data=[7, 87]),
   midi.ControlChangeEvent(tick=30, channel=13, data=[7, 87]),
   midi.ControlChangeEvent(tick=10, channel=13, data=[7, 88]),
   midi.ControlChangeEvent(tick=15, channel=13, data=[7, 89]),
   midi.NoteOnEvent(tick=15, channel=13, data=[52, 0]),
   midi.ControlChangeEvent(tick=5, channel=13, data=[7, 89]),
   midi.NoteOnEvent(tick=5, channel=13, data=[55, 81]),
   midi.ControlChangeEvent(tick=10, channel=13, data=[7, 90]),
   midi.ControlChangeEvent(tick=15, channel=13, data=[7, 90]),
   midi.ControlChangeEvent(tick=15, channel=13, data=[7, 90]),
   midi.ControlChangeEvent(tick=30, channel=13, data=[7, 92]),
   midi.ControlChangeEvent(tick=145, channel=13, data=[7, 92]),
   midi.ControlChangeEvent(tick=40, channel=13, data=[7, 92]),
   midi.ControlChangeEvent(tick=10, channel=13, data=[7, 93]),
   midi.ControlChangeEvent(tick=20, channel=13, data=[7, 94]),
   midi.ControlChangeEvent(tick=20, channel=13, data=[7, 94]),
   midi.ControlChangeEvent(tick=20, channel=13, data=[7, 94]),
   midi.ControlChangeEvent(tick=25, channel=13, data=[7, 96]),
   midi.NoteOnEvent(tick=10, channel=13, data=[55, 0]),
   midi.NoteOnEvent(tick=0, channel=13, data=[53, 85]),
   midi.ControlChangeEvent(tick=5, channel=13, data=[7, 96]),
   midi.ControlChangeEvent(tick=20, channel=13, data=[7, 96]),
   midi.ControlChangeEvent(tick=25, channel=13, data=[7, 96]),
   midi.ControlChangeEvent(tick=25, channel=13, data=[7, 96]),
   midi.ControlChangeEvent(tick=20, channel=13, data=[7, 98]),
   midi.NoteOnEvent(tick=15, channel=13, data=[53, 0]),
   midi.NoteOnEvent(tick=10, channel=13, data=[57, 86]),
   midi.ControlChangeEvent(tick=0, channel=13, data=[7, 98]),
   midi.ControlChangeEvent(tick=20, channel=13, data=[7, 99]),
   midi.ControlChangeEvent(tick=35, channel=13, data=[7, 99]),
   midi.ControlChangeEvent(tick=30, channel=13, data=[7, 100]),
   midi.ControlChangeEvent(tick=15, channel=13, data=[7, 101]),
   midi.ControlChangeEvent(tick=15, channel=13, data=[7, 101]),
   midi.NoteOnEvent(tick=5, channel=13, data=[57, 0]),
   midi.NoteOnEvent(tick=0, channel=13, data=[55, 88]),
   midi.ControlChangeEvent(tick=15, channel=13, data=[7, 101]),
   midi.ControlChangeEvent(tick=30, channel=13, data=[7, 101]),
   midi.ControlChangeEvent(tick=15, channel=13, data=[7, 101]),
   midi.ControlChangeEvent(tick=10, channel=13, data=[7, 102]),
   midi.ControlChangeEvent(tick=20, channel=13, data=[7, 102]),
   midi.ControlChangeEvent(tick=15, channel=13, data=[7, 103]),
   midi.NoteOnEvent(tick=5, channel=13, data=[55, 0]),
   midi.NoteOnEvent(tick=10, channel=13, data=[59, 104]),
   midi.ControlChangeEvent(tick=0, channel=13, data=[7, 104]),
   midi.ControlChangeEvent(tick=15, channel=13, data=[7, 106]),
   midi.ControlChangeEvent(tick=10, channel=13, data=[7, 109]),
   midi.NoteOnEvent(tick=15, channel=13, data=[59, 0]),
   midi.ControlChangeEvent(tick=0, channel=13, data=[7, 110]),
   midi.ProgramChangeEvent(tick=2810, channel=13, data=[44]),
   midi.NoteOnEvent(tick=30, channel=13, data=[64, 102]),
   midi.NoteOnEvent(tick=0, channel=13, data=[55, 102]),
   midi.ControlChangeEvent(tick=55, channel=13, data=[7, 112]),
   midi.ControlChangeEvent(tick=15, channel=13, data=[7, 114]),
   midi.NoteOnEvent(tick=45, channel=13, data=[55, 0]),
   midi.NoteOnEvent(tick=0, channel=13, data=[64, 0]),
   midi.NoteOnEvent(tick=5, channel=13, data=[64, 102]),
   midi.NoteOnEvent(tick=0, channel=13, data=[55, 102]),
   midi.NoteOnEvent(tick=15, channel=13, data=[55, 0]),
   midi.NoteOnEvent(tick=0, channel=13, data=[64, 0]),
   midi.NoteOnEvent(tick=105, channel=13, data=[55, 102]),
   midi.NoteOnEvent(tick=0, channel=13, data=[65, 102]),
   midi.NoteOnEvent(tick=115, channel=13, data=[65, 0]),
   midi.NoteOnEvent(tick=0, channel=13, data=[55, 0]),
   midi.NoteOnEvent(tick=5, channel=13, data=[65, 102]),
   midi.NoteOnEvent(tick=0, channel=13, data=[55, 102]),
   midi.NoteOnEvent(tick=15, channel=13, data=[55, 0]),
   midi.NoteOnEvent(tick=0, channel=13, data=[65, 0]),
   midi.ProgramChangeEvent(tick=100, channel=13, data=[48]),
   midi.NoteOnEvent(tick=5, channel=13, data=[64, 120]),
   midi.NoteOnEvent(tick=0, channel=13, data=[55, 120]),
   midi.NoteOnEvent(tick=0, channel=13, data=[48, 120]),
   midi.NoteOnEvent(tick=25, channel=13, data=[48, 0]),
   midi.NoteOnEvent(tick=0, channel=13, data=[55, 0]),
   midi.NoteOnEvent(tick=0, channel=13, data=[64, 0]),
   midi.NoteOnEvent(tick=95, channel=13, data=[48, 120]),
   midi.NoteOnEvent(tick=0, channel=13, data=[55, 120]),
   midi.NoteOnEvent(tick=0, channel=13, data=[65, 120]),
   midi.NoteOnEvent(tick=25, channel=13, data=[65, 0]),
   midi.NoteOnEvent(tick=0, channel=13, data=[55, 0]),
   midi.NoteOnEvent(tick=0, channel=13, data=[48, 0]),
   midi.NoteOnEvent(tick=95, channel=13, data=[48, 120]),
   midi.NoteOnEvent(tick=0, channel=13, data=[55, 120]),
   midi.NoteOnEvent(tick=0, channel=13, data=[64, 120]),
   midi.NoteOnEvent(tick=25, channel=13, data=[64, 0]),
   midi.NoteOnEvent(tick=0, channel=13, data=[55, 0]),
   midi.NoteOnEvent(tick=0, channel=13, data=[48, 0]),
   midi.NoteOnEvent(tick=95, channel=13, data=[48, 120]),
   midi.NoteOnEvent(tick=0, channel=13, data=[55, 120]),
   midi.NoteOnEvent(tick=0, channel=13, data=[65, 120]),
   midi.NoteOnEvent(tick=25, channel=13, data=[65, 0]),
   midi.NoteOnEvent(tick=0, channel=13, data=[55, 0]),
   midi.NoteOnEvent(tick=0, channel=13, data=[48, 0]),
   midi.NoteOnEvent(tick=95, channel=13, data=[64, 120]),
   midi.NoteOnEvent(tick=0, channel=13, data=[55, 120]),
   midi.NoteOnEvent(tick=0, channel=13, data=[48, 120]),
   midi.NoteOnEvent(tick=25, channel=13, data=[48, 0]),
   midi.NoteOnEvent(tick=0, channel=13, data=[55, 0]),
   midi.NoteOnEvent(tick=0, channel=13, data=[64, 0]),
   midi.ControlChangeEvent(tick=115, channel=13, data=[7, 112]),
   midi.ControlChangeEvent(tick=15, channel=13, data=[7, 112]),
   midi.ControlChangeEvent(tick=65, channel=13, data=[7, 112]),
   midi.ProgramChangeEvent(tick=15, channel=13, data=[44]),
   midi.NoteOnEvent(tick=5, channel=13, data=[64, 102]),
   midi.ControlChangeEvent(tick=0, channel=13, data=[7, 114]),
   midi.NoteOnEvent(tick=475, channel=13, data=[64, 0]),
   midi.NoteOnEvent(tick=5, channel=13, data=[65, 102]),
   midi.ControlChangeEvent(tick=205, channel=13, data=[7, 112]),
   midi.ControlChangeEvent(tick=15, channel=13, data=[7, 110]),
   midi.ControlChangeEvent(tick=10, channel=13, data=[7, 109]),
   midi.NoteOnEvent(tick=5, channel=13, data=[65, 0]),
   midi.NoteOnEvent(tick=5, channel=13, data=[50, 102]),
   midi.ControlChangeEvent(tick=5, channel=13, data=[7, 108]),
   midi.NoteOnEvent(tick=15, channel=13, data=[50, 0]),
   midi.ControlChangeEvent(tick=0, channel=13, data=[7, 105]),
   midi.NoteOnEvent(tick=0, channel=13, data=[65, 102]),
   midi.NoteOnEvent(tick=0, channel=13, data=[57, 102]),
   midi.ControlChangeEvent(tick=10, channel=13, data=[7, 102]),
   midi.ControlChangeEvent(tick=15, channel=13, data=[7, 101]),
   midi.ControlChangeEvent(tick=10, channel=13, data=[7, 101]),
   midi.ControlChangeEvent(tick=20, channel=13, data=[7, 101]),
   midi.NoteOnEvent(tick=40, channel=13, data=[57, 0]),
   midi.NoteOnEvent(tick=0, channel=13, data=[65, 0]),
   midi.NoteOnEvent(tick=5, channel=13, data=[65, 102]),
   midi.NoteOnEvent(tick=0, channel=13, data=[57, 102]),
   midi.NoteOnEvent(tick=55, channel=13, data=[57, 0]),
   midi.NoteOnEvent(tick=0, channel=13, data=[65, 0]),
   midi.NoteOnEvent(tick=65, channel=13, data=[67, 102]),
   midi.NoteOnEvent(tick=0, channel=13, data=[57, 102]),
   midi.NoteOnEvent(tick=0, channel=13, data=[50, 102]),
   midi.NoteOnEvent(tick=20, channel=13, data=[50, 0]),
   midi.NoteOnEvent(tick=95, channel=13, data=[57, 0]),
   midi.NoteOnEvent(tick=0, channel=13, data=[67, 0]),
   midi.NoteOnEvent(tick=5, channel=13, data=[67, 102]),
   midi.NoteOnEvent(tick=0, channel=13, data=[57, 102]),
   midi.NoteOnEvent(tick=55, channel=13, data=[57, 0]),
   midi.NoteOnEvent(tick=0, channel=13, data=[67, 0]),
   midi.ProgramChangeEvent(tick=60, channel=13, data=[48]),
   midi.NoteOnEvent(tick=5, channel=13, data=[65, 120]),
   midi.NoteOnEvent(tick=0, channel=13, data=[57, 120]),
   midi.NoteOnEvent(tick=0, channel=13, data=[50, 120]),
   midi.NoteOnEvent(tick=25, channel=13, data=[50, 0]),
   midi.NoteOnEvent(tick=0, channel=13, data=[57, 0]),
   midi.NoteOnEvent(tick=0, channel=13, data=[65, 0]),
   midi.NoteOnEvent(tick=95, channel=13, data=[50, 120]),
   midi.NoteOnEvent(tick=0, channel=13, data=[57, 120]),
   midi.NoteOnEvent(tick=0, channel=13, data=[67, 120]),
   midi.NoteOnEvent(tick=25, channel=13, data=[67, 0]),
   midi.NoteOnEvent(tick=0, channel=13, data=[57, 0]),
   midi.NoteOnEvent(tick=0, channel=13, data=[50, 0]),
   midi.ControlChangeEvent(tick=35, channel=13, data=[7, 100]),
   midi.ControlChangeEvent(tick=15, channel=13, data=[7, 99]),
   midi.ControlChangeEvent(tick=20, channel=13, data=[7, 98]),
   midi.NoteOnEvent(tick=25, channel=13, data=[50, 120]),
   midi.NoteOnEvent(tick=0, channel=13, data=[57, 120]),
   midi.NoteOnEvent(tick=0, channel=13, data=[65, 120]),
   midi.NoteOnEvent(tick=25, channel=13, data=[65, 0]),
   midi.NoteOnEvent(tick=0, channel=13, data=[57, 0]),
   midi.NoteOnEvent(tick=0, channel=13, data=[50, 0]),
   midi.ControlChangeEvent(tick=40, channel=13, data=[7, 98]),
   midi.ControlChangeEvent(tick=35, channel=13, data=[7, 98]),
   midi.NoteOnEvent(tick=20, channel=13, data=[50, 120]),
   midi.NoteOnEvent(tick=0, channel=13, data=[57, 120]),
   midi.NoteOnEvent(tick=0, channel=13, data=[67, 120]),
   midi.ControlChangeEvent(tick=10, channel=13, data=[7, 96]),
   midi.NoteOnEvent(tick=15, channel=13, data=[67, 0]),
   midi.NoteOnEvent(tick=0, channel=13, data=[57, 0]),
   midi.NoteOnEvent(tick=0, channel=13, data=[50, 0]),
   midi.ControlChangeEvent(tick=25, channel=13, data=[7, 96]),
   midi.ControlChangeEvent(tick=20, channel=13, data=[7, 98]),
   midi.ControlChangeEvent(tick=15, channel=13, data=[7, 101]),
   midi.NoteOnEvent(tick=35, channel=13, data=[65, 120]),
   midi.NoteOnEvent(tick=0, channel=13, data=[57, 120]),
   midi.NoteOnEvent(tick=25, channel=13, data=[57, 0]),
   midi.NoteOnEvent(tick=0, channel=13, data=[65, 0]),
   midi.NoteOnEvent(tick=215, channel=13, data=[65, 120]),
   midi.NoteOnEvent(tick=25, channel=13, data=[65, 0]),
   midi.NoteOnEvent(tick=5, channel=13, data=[65, 120]),
   midi.NoteOnEvent(tick=25, channel=13, data=[65, 0]),
   midi.NoteOnEvent(tick=5, channel=13, data=[65, 120]),
   midi.NoteOnEvent(tick=25, channel=13, data=[65, 0]),
   midi.NoteOnEvent(tick=5, channel=13, data=[65, 120]),
   midi.NoteOnEvent(tick=25, channel=13, data=[65, 0]),
   midi.NoteOnEvent(tick=5, channel=13, data=[65, 120]),
   midi.NoteOnEvent(tick=25, channel=13, data=[65, 0]),
   midi.NoteOnEvent(tick=5, channel=13, data=[65, 120]),
   midi.NoteOnEvent(tick=25, channel=13, data=[65, 0]),
   midi.NoteOnEvent(tick=5, channel=13, data=[65, 120]),
   midi.NoteOnEvent(tick=25, channel=13, data=[65, 0]),
   midi.NoteOnEvent(tick=5, channel=13, data=[65, 120]),
   midi.NoteOnEvent(tick=25, channel=13, data=[65, 0]),
   midi.NoteOnEvent(tick=5, channel=13, data=[65, 120]),
   midi.NoteOnEvent(tick=25, channel=13, data=[65, 0]),
   midi.NoteOnEvent(tick=5, channel=13, data=[65, 120]),
   midi.NoteOnEvent(tick=25, channel=13, data=[65, 0]),
   midi.NoteOnEvent(tick=5, channel=13, data=[65, 120]),
   midi.NoteOnEvent(tick=25, channel=13, data=[65, 0]),
   midi.NoteOnEvent(tick=5, channel=13, data=[65, 120]),
   midi.NoteOnEvent(tick=25, channel=13, data=[65, 0]),
   midi.NoteOnEvent(tick=5, channel=13, data=[65, 120]),
   midi.NoteOnEvent(tick=25, channel=13, data=[65, 0]),
   midi.NoteOnEvent(tick=5, channel=13, data=[65, 120]),
   midi.NoteOnEvent(tick=25, channel=13, data=[65, 0]),
   midi.NoteOnEvent(tick=5, channel=13, data=[65, 120]),
   midi.NoteOnEvent(tick=25, channel=13, data=[65, 0]),
   midi.NoteOnEvent(tick=5, channel=13, data=[65, 120]),
   midi.NoteOnEvent(tick=25, channel=13, data=[65, 0]),
   midi.NoteOnEvent(tick=5, channel=13, data=[65, 120]),
   midi.NoteOnEvent(tick=25, channel=13, data=[65, 0]),
   midi.NoteOnEvent(tick=5, channel=13, data=[65, 120]),
   midi.NoteOnEvent(tick=25, channel=13, data=[65, 0]),
   midi.NoteOnEvent(tick=5, channel=13, data=[65, 120]),
   midi.NoteOnEvent(tick=25, channel=13, data=[65, 0]),
   midi.NoteOnEvent(tick=5, channel=13, data=[65, 120]),
   midi.NoteOnEvent(tick=25, channel=13, data=[65, 0]),
   midi.NoteOnEvent(tick=5, channel=13, data=[65, 120]),
   midi.NoteOnEvent(tick=25, channel=13, data=[65, 0]),
   midi.NoteOnEvent(tick=5, channel=13, data=[65, 120]),
   midi.NoteOnEvent(tick=25, channel=13, data=[65, 0]),
   midi.NoteOnEvent(tick=5, channel=13, data=[65, 120]),
   midi.NoteOnEvent(tick=25, channel=13, data=[65, 0]),
   midi.NoteOnEvent(tick=5, channel=13, data=[65, 120]),
   midi.NoteOnEvent(tick=25, channel=13, data=[65, 0]),
   midi.NoteOnEvent(tick=5, channel=13, data=[67, 120]),
   midi.NoteOnEvent(tick=25, channel=13, data=[67, 0]),
   midi.NoteOnEvent(tick=5, channel=13, data=[67, 120]),
   midi.NoteOnEvent(tick=25, channel=13, data=[67, 0]),
   midi.NoteOnEvent(tick=5, channel=13, data=[67, 120]),
   midi.NoteOnEvent(tick=25, channel=13, data=[67, 0]),
   midi.NoteOnEvent(tick=5, channel=13, data=[67, 120]),
   midi.NoteOnEvent(tick=25, channel=13, data=[67, 0]),
   midi.NoteOnEvent(tick=5, channel=13, data=[67, 120]),
   midi.NoteOnEvent(tick=25, channel=13, data=[67, 0]),
   midi.NoteOnEvent(tick=5, channel=13, data=[67, 120]),
   midi.NoteOnEvent(tick=25, channel=13, data=[67, 0]),
   midi.NoteOnEvent(tick=5, channel=13, data=[67, 120]),
   midi.NoteOnEvent(tick=25, channel=13, data=[67, 0]),
   midi.NoteOnEvent(tick=5, channel=13, data=[67, 120]),
   midi.NoteOnEvent(tick=25, channel=13, data=[67, 0]),
   midi.NoteOnEvent(tick=5, channel=13, data=[67, 120]),
   midi.NoteOnEvent(tick=25, channel=13, data=[67, 0]),
   midi.NoteOnEvent(tick=5, channel=13, data=[67, 120]),
   midi.NoteOnEvent(tick=25, channel=13, data=[67, 0]),
   midi.NoteOnEvent(tick=5, channel=13, data=[67, 120]),
   midi.NoteOnEvent(tick=25, channel=13, data=[67, 0]),
   midi.NoteOnEvent(tick=5, channel=13, data=[67, 120]),
   midi.NoteOnEvent(tick=25, channel=13, data=[67, 0]),
   midi.NoteOnEvent(tick=5, channel=13, data=[67, 120]),
   midi.NoteOnEvent(tick=25, channel=13, data=[67, 0]),
   midi.NoteOnEvent(tick=5, channel=13, data=[67, 120]),
   midi.NoteOnEvent(tick=25, channel=13, data=[67, 0]),
   midi.NoteOnEvent(tick=5, channel=13, data=[67, 120]),
   midi.NoteOnEvent(tick=25, channel=13, data=[67, 0]),
   midi.NoteOnEvent(tick=5, channel=13, data=[67, 120]),
   midi.NoteOnEvent(tick=25, channel=13, data=[67, 0]),
   midi.NoteOnEvent(tick=5, channel=13, data=[67, 120]),
   midi.NoteOnEvent(tick=25, channel=13, data=[67, 0]),
   midi.NoteOnEvent(tick=5, channel=13, data=[67, 120]),
   midi.NoteOnEvent(tick=25, channel=13, data=[67, 0]),
   midi.NoteOnEvent(tick=5, channel=13, data=[69, 120]),
   midi.NoteOnEvent(tick=25, channel=13, data=[69, 0]),
   midi.NoteOnEvent(tick=5, channel=13, data=[69, 120]),
   midi.NoteOnEvent(tick=25, channel=13, data=[69, 0]),
   midi.NoteOnEvent(tick=5, channel=13, data=[69, 120]),
   midi.NoteOnEvent(tick=25, channel=13, data=[69, 0]),
   midi.NoteOnEvent(tick=5, channel=13, data=[69, 120]),
   midi.NoteOnEvent(tick=25, channel=13, data=[69, 0]),
   midi.NoteOnEvent(tick=5, channel=13, data=[69, 120]),
   midi.NoteOnEvent(tick=25, channel=13, data=[69, 0]),
   midi.NoteOnEvent(tick=5, channel=13, data=[69, 120]),
   midi.NoteOnEvent(tick=25, channel=13, data=[69, 0]),
   midi.NoteOnEvent(tick=5, channel=13, data=[69, 120]),
   midi.NoteOnEvent(tick=25, channel=13, data=[69, 0]),
   midi.NoteOnEvent(tick=5, channel=13, data=[69, 120]),
   midi.NoteOnEvent(tick=25, channel=13, data=[69, 0]),
   midi.NoteOnEvent(tick=5, channel=13, data=[69, 120]),
   midi.NoteOnEvent(tick=25, channel=13, data=[69, 0]),
   midi.NoteOnEvent(tick=5, channel=13, data=[69, 120]),
   midi.NoteOnEvent(tick=25, channel=13, data=[69, 0]),
   midi.NoteOnEvent(tick=5, channel=13, data=[69, 120]),
   midi.NoteOnEvent(tick=25, channel=13, data=[69, 0]),
   midi.NoteOnEvent(tick=5, channel=13, data=[69, 120]),
   midi.NoteOnEvent(tick=25, channel=13, data=[69, 0]),
   midi.NoteOnEvent(tick=5, channel=13, data=[69, 120]),
   midi.NoteOnEvent(tick=25, channel=13, data=[69, 0]),
   midi.NoteOnEvent(tick=5, channel=13, data=[69, 120]),
   midi.NoteOnEvent(tick=25, channel=13, data=[69, 0]),
   midi.NoteOnEvent(tick=245, channel=13, data=[65, 125]),
   midi.NoteOnEvent(tick=0, channel=13, data=[60, 125]),
   midi.NoteOnEvent(tick=40, channel=13, data=[60, 0]),
   midi.NoteOnEvent(tick=0, channel=13, data=[65, 0]),
   midi.NoteOnEvent(tick=440, channel=13, data=[60, 125]),
   midi.NoteOnEvent(tick=0, channel=13, data=[65, 125]),
   midi.NoteOnEvent(tick=40, channel=13, data=[65, 0]),
   midi.NoteOnEvent(tick=0, channel=13, data=[60, 0]),
   midi.NoteOnEvent(tick=320, channel=13, data=[60, 125]),
   midi.NoteOnEvent(tick=0, channel=13, data=[65, 125]),
   midi.NoteOnEvent(tick=40, channel=13, data=[65, 0]),
   midi.NoteOnEvent(tick=0, channel=13, data=[60, 0]),
   midi.NoteOnEvent(tick=200, channel=13, data=[60, 125]),
   midi.NoteOnEvent(tick=0, channel=13, data=[64, 125]),
   midi.NoteOnEvent(tick=0, channel=13, data=[69, 125]),
   midi.NoteOnEvent(tick=40, channel=13, data=[69, 0]),
   midi.NoteOnEvent(tick=0, channel=13, data=[64, 0]),
   midi.NoteOnEvent(tick=0, channel=13, data=[60, 0]),
   midi.NoteOnEvent(tick=200, channel=13, data=[60, 125]),
   midi.NoteOnEvent(tick=0, channel=13, data=[63, 125]),
   midi.NoteOnEvent(tick=0, channel=13, data=[69, 125]),
   midi.NoteOnEvent(tick=40, channel=13, data=[69, 0]),
   midi.NoteOnEvent(tick=0, channel=13, data=[63, 0]),
   midi.NoteOnEvent(tick=0, channel=13, data=[60, 0]),
   midi.NoteOnEvent(tick=200, channel=13, data=[69, 125]),
   midi.NoteOnEvent(tick=0, channel=13, data=[64, 125]),
   midi.NoteOnEvent(tick=0, channel=13, data=[60, 125]),
   midi.NoteOnEvent(tick=40, channel=13, data=[60, 0]),
   midi.NoteOnEvent(tick=0, channel=13, data=[64, 0]),
   midi.NoteOnEvent(tick=0, channel=13, data=[69, 0]),
   midi.ControlChangeEvent(tick=1425, channel=13, data=[64, 0]),
   midi.ControlChangeEvent(tick=0, channel=13, data=[120, 0]),
   midi.ControlChangeEvent(tick=0, channel=13, data=[7, 119]),
   midi.ProgramChangeEvent(tick=0, channel=13, data=[57]),
   midi.ControlChangeEvent(tick=0, channel=13, data=[11, 127]),
   midi.ControlChangeEvent(tick=0, channel=13, data=[10, 48]),
   midi.ControlChangeEvent(tick=0, channel=13, data=[64, 0]),
   midi.ControlChangeEvent(tick=0, channel=13, data=[91, 80]),
   midi.ControlChangeEvent(tick=0, channel=13, data=[11, 127]),
   midi.ControlChangeEvent(tick=0, channel=13, data=[10, 64]),
   midi.ControlChangeEvent(tick=0, channel=13, data=[64, 0]),
   midi.ControlChangeEvent(tick=0, channel=13, data=[91, 64]),
   midi.ProgramChangeEvent(tick=0, channel=13, data=[49]),
   midi.EndOfTrackEvent(tick=0, data=[])]),
 midi.Track(\
  [midi.PortEvent(tick=0, data=[0]),
   midi.ProgramChangeEvent(tick=0, channel=14, data=[48]),
   midi.ControlChangeEvent(tick=0, channel=14, data=[10, 75]),
   midi.ControlChangeEvent(tick=4, channel=14, data=[64, 0]),
   midi.ControlChangeEvent(tick=0, channel=14, data=[91, 95]),
   midi.ControlChangeEvent(tick=3960, channel=14, data=[7, 76]),
   midi.ControlChangeEvent(tick=185, channel=14, data=[7, 76]),
   midi.ControlChangeEvent(tick=40, channel=14, data=[7, 77]),
   midi.ControlChangeEvent(tick=30, channel=14, data=[7, 78]),
   midi.ControlChangeEvent(tick=25, channel=14, data=[7, 79]),
   midi.NoteOnEvent(tick=20, channel=14, data=[45, 102]),
   midi.ControlChangeEvent(tick=0, channel=14, data=[7, 79]),
   midi.NoteOnEvent(tick=15, channel=14, data=[45, 0]),
   midi.ControlChangeEvent(tick=0, channel=14, data=[7, 81]),
   midi.ControlChangeEvent(tick=35, channel=14, data=[7, 81]),
   midi.NoteOnEvent(tick=10, channel=14, data=[45, 102]),
   midi.NoteOnEvent(tick=15, channel=14, data=[45, 0]),
   midi.NoteOnEvent(tick=45, channel=14, data=[45, 102]),
   midi.NoteOnEvent(tick=15, channel=14, data=[45, 0]),
   midi.ControlChangeEvent(tick=10, channel=14, data=[7, 81]),
   midi.ControlChangeEvent(tick=10, channel=14, data=[7, 81]),
   midi.NoteOnEvent(tick=25, channel=14, data=[45, 102]),
   midi.NoteOnEvent(tick=50, channel=14, data=[45, 0]),
   midi.ControlChangeEvent(tick=60, channel=14, data=[7, 83]),
   midi.NoteOnEvent(tick=130, channel=14, data=[45, 102]),
   midi.NoteOnEvent(tick=40, channel=14, data=[45, 0]),
   midi.NoteOnEvent(tick=50, channel=14, data=[45, 102]),
   midi.NoteOnEvent(tick=20, channel=14, data=[45, 0]),
   midi.NoteOnEvent(tick=10, channel=14, data=[45, 102]),
   midi.NoteOnEvent(tick=20, channel=14, data=[45, 0]),
   midi.NoteOnEvent(tick=40, channel=14, data=[43, 102]),
   midi.NoteOnEvent(tick=20, channel=14, data=[43, 0]),
   midi.NoteOnEvent(tick=40, channel=14, data=[48, 102]),
   midi.NoteOnEvent(tick=50, channel=14, data=[48, 0]),
   midi.ControlChangeEvent(tick=210, channel=14, data=[7, 81]),
   midi.ControlChangeEvent(tick=15, channel=14, data=[7, 81]),
   midi.NoteOnEvent(tick=25, channel=14, data=[48, 102]),
   midi.NoteOnEvent(tick=15, channel=14, data=[48, 0]),
   midi.NoteOnEvent(tick=45, channel=14, data=[48, 102]),
   midi.NoteOnEvent(tick=15, channel=14, data=[48, 0]),
   midi.NoteOnEvent(tick=45, channel=14, data=[48, 102]),
   midi.NoteOnEvent(tick=15, channel=14, data=[48, 0]),
   midi.ControlChangeEvent(tick=45, channel=14, data=[7, 81]),
   midi.NoteOnEvent(tick=0, channel=14, data=[48, 102]),
   midi.ControlChangeEvent(tick=5, channel=14, data=[7, 81]),
   midi.NoteOnEvent(tick=45, channel=14, data=[48, 0]),
   midi.ControlChangeEvent(tick=105, channel=14, data=[7, 81]),
   midi.ControlChangeEvent(tick=10, channel=14, data=[7, 81]),
   midi.NoteOnEvent(tick=75, channel=14, data=[48, 102]),
   midi.NoteOnEvent(tick=50, channel=14, data=[48, 0]),
   midi.NoteOnEvent(tick=40, channel=14, data=[48, 102]),
   midi.NoteOnEvent(tick=20, channel=14, data=[48, 0]),
   midi.NoteOnEvent(tick=10, channel=14, data=[48, 102]),
   midi.NoteOnEvent(tick=20, channel=14, data=[48, 0]),
   midi.NoteOnEvent(tick=40, channel=14, data=[47, 102]),
   midi.NoteOnEvent(tick=20, channel=14, data=[47, 0]),
   midi.ControlChangeEvent(tick=60, channel=14, data=[7, 80]),
   midi.ControlChangeEvent(tick=20, channel=14, data=[7, 79]),
   midi.ControlChangeEvent(tick=10, channel=14, data=[7, 78]),
   midi.NoteOnEvent(tick=10, channel=14, data=[52, 89]),
   midi.ControlChangeEvent(tick=5, channel=14, data=[7, 77]),
   midi.NoteOnEvent(tick=20, channel=14, data=[52, 0]),
   midi.ControlChangeEvent(tick=0, channel=14, data=[7, 76]),
   midi.ControlChangeEvent(tick=15, channel=14, data=[7, 76]),
   midi.NoteOnEvent(tick=80, channel=14, data=[50, 89]),
   midi.NoteOnEvent(tick=25, channel=14, data=[50, 0]),
   midi.NoteOnEvent(tick=95, channel=14, data=[44, 89]),
   midi.NoteOnEvent(tick=25, channel=14, data=[44, 0]),
   midi.ControlChangeEvent(tick=75, channel=14, data=[7, 76]),
   midi.NoteOnEvent(tick=20, channel=14, data=[56, 89]),
   midi.ControlChangeEvent(tick=0, channel=14, data=[7, 77]),
   midi.NoteOnEvent(tick=25, channel=14, data=[56, 0]),
   midi.ControlChangeEvent(tick=0, channel=14, data=[7, 78]),
   midi.NoteOnEvent(tick=95, channel=14, data=[57, 89]),
   midi.NoteOnEvent(tick=25, channel=14, data=[57, 0]),
   midi.NoteOnEvent(tick=95, channel=14, data=[55, 89]),
   midi.ControlChangeEvent(tick=0, channel=14, data=[7, 79]),
   midi.ControlChangeEvent(tick=20, channel=14, data=[7, 79]),
   midi.NoteOnEvent(tick=5, channel=14, data=[55, 0]),
   midi.ControlChangeEvent(tick=10, channel=14, data=[7, 81]),
   midi.ControlChangeEvent(tick=45, channel=14, data=[7, 81]),
   midi.ControlChangeEvent(tick=20, channel=14, data=[7, 81]),
   midi.NoteOnEvent(tick=20, channel=14, data=[49, 89]),
   midi.NoteOnEvent(tick=25, channel=14, data=[49, 0]),
   midi.ControlChangeEvent(tick=20, channel=14, data=[7, 81]),
   midi.ControlChangeEvent(tick=65, channel=14, data=[7, 83]),
   midi.NoteOnEvent(tick=10, channel=14, data=[61, 89]),
   midi.NoteOnEvent(tick=25, channel=14, data=[61, 0]),
   midi.ControlChangeEvent(tick=40, channel=14, data=[7, 83]),
   midi.ControlChangeEvent(tick=25, channel=14, data=[7, 83]),
   midi.NoteOnEvent(tick=30, channel=14, data=[62, 89]),
   midi.ControlChangeEvent(tick=0, channel=14, data=[7, 83]),
   midi.NoteOnEvent(tick=25, channel=14, data=[62, 0]),
   midi.ControlChangeEvent(tick=10, channel=14, data=[7, 83]),
   midi.ControlChangeEvent(tick=30, channel=14, data=[7, 83]),
   midi.ControlChangeEvent(tick=20, channel=14, data=[7, 84]),
   midi.ControlChangeEvent(tick=20, channel=14, data=[7, 85]),
   midi.NoteOnEvent(tick=15, channel=14, data=[57, 89]),
   midi.ControlChangeEvent(tick=0, channel=14, data=[7, 86]),
   midi.ControlChangeEvent(tick=20, channel=14, data=[7, 87]),
   midi.NoteOnEvent(tick=5, channel=14, data=[57, 0]),
   midi.ControlChangeEvent(tick=25, channel=14, data=[7, 87]),
   midi.ControlChangeEvent(tick=65, channel=14, data=[7, 88]),
   midi.NoteOnEvent(tick=5, channel=14, data=[50, 89]),
   midi.NoteOnEvent(tick=25, channel=14, data=[50, 0]),
   midi.ControlChangeEvent(tick=35, channel=14, data=[7, 89]),
   midi.NoteOnEvent(tick=180, channel=14, data=[54, 89]),
   midi.NoteOnEvent(tick=25, channel=14, data=[54, 0]),
   midi.NoteOnEvent(tick=95, channel=14, data=[53, 89]),
   midi.NoteOnEvent(tick=25, channel=14, data=[53, 0]),
   midi.ControlChangeEvent(tick=85, channel=14, data=[7, 89]),
   midi.NoteOnEvent(tick=10, channel=14, data=[52, 89]),
   midi.ControlChangeEvent(tick=20, channel=14, data=[7, 90]),
   midi.NoteOnEvent(tick=5, channel=14, data=[52, 0]),
   midi.ControlChangeEvent(tick=40, channel=14, data=[7, 90]),
   midi.ControlChangeEvent(tick=45, channel=14, data=[7, 90]),
   midi.NoteOnEvent(tick=10, channel=14, data=[52, 89]),
   midi.ControlChangeEvent(tick=20, channel=14, data=[7, 92]),
   midi.NoteOnEvent(tick=5, channel=14, data=[52, 0]),
   midi.ControlChangeEvent(tick=30, channel=14, data=[7, 92]),
   midi.NoteOnEvent(tick=5, channel=14, data=[52, 102]),
   midi.ControlChangeEvent(tick=30, channel=14, data=[7, 92]),
   midi.NoteOnEvent(tick=85, channel=14, data=[52, 0]),
   midi.NoteOnEvent(tick=5, channel=14, data=[50, 102]),
   midi.ControlChangeEvent(tick=10, channel=14, data=[7, 92]),
   midi.ControlChangeEvent(tick=15, channel=14, data=[7, 92]),
   midi.ControlChangeEvent(tick=15, channel=14, data=[7, 90]),
   midi.NoteOnEvent(tick=75, channel=14, data=[50, 0]),
   midi.NoteOnEvent(tick=5, channel=14, data=[44, 102]),
   midi.ControlChangeEvent(tick=25, channel=14, data=[7, 92]),
   midi.ControlChangeEvent(tick=20, channel=14, data=[7, 92]),
   midi.ControlChangeEvent(tick=15, channel=14, data=[7, 92]),
   midi.ControlChangeEvent(tick=15, channel=14, data=[7, 93]),
   midi.ControlChangeEvent(tick=10, channel=14, data=[7, 94]),
   midi.ControlChangeEvent(tick=15, channel=14, data=[7, 94]),
   midi.ControlChangeEvent(tick=15, channel=14, data=[7, 96]),
   midi.ControlChangeEvent(tick=10, channel=14, data=[7, 96]),
   midi.ControlChangeEvent(tick=15, channel=14, data=[7, 98]),
   midi.ControlChangeEvent(tick=10, channel=14, data=[7, 99]),
   midi.ControlChangeEvent(tick=15, channel=14, data=[7, 101]),
   midi.ControlChangeEvent(tick=10, channel=14, data=[7, 101]),
   midi.ControlChangeEvent(tick=10, channel=14, data=[7, 101]),
   midi.ControlChangeEvent(tick=15, channel=14, data=[7, 101]),
   midi.ControlChangeEvent(tick=15, channel=14, data=[7, 102]),
   midi.NoteOnEvent(tick=15, channel=14, data=[44, 0]),
   midi.ControlChangeEvent(tick=0, channel=14, data=[7, 102]),
   midi.NoteOnEvent(tick=10, channel=14, data=[57, 102]),
   midi.ControlChangeEvent(tick=15, channel=14, data=[7, 102]),
   midi.ControlChangeEvent(tick=15, channel=14, data=[7, 101]),
   midi.ControlChangeEvent(tick=10, channel=14, data=[7, 98]),
   midi.ControlChangeEvent(tick=10, channel=14, data=[7, 96]),
   midi.ControlChangeEvent(tick=15, channel=14, data=[7, 94]),
   midi.ControlChangeEvent(tick=15, channel=14, data=[7, 93]),
   midi.ControlChangeEvent(tick=10, channel=14, data=[7, 90]),
   midi.ControlChangeEvent(tick=15, channel=14, data=[7, 89]),
   midi.NoteOnEvent(tick=10, channel=14, data=[57, 0]),
   midi.ControlChangeEvent(tick=0, channel=14, data=[7, 89]),
   midi.NoteOnEvent(tick=5, channel=14, data=[55, 102]),
   midi.ControlChangeEvent(tick=10, channel=14, data=[7, 88]),
   midi.ControlChangeEvent(tick=30, channel=14, data=[7, 89]),
   midi.ControlChangeEvent(tick=10, channel=14, data=[7, 90]),
   midi.ControlChangeEvent(tick=10, channel=14, data=[7, 90]),
   midi.ControlChangeEvent(tick=15, channel=14, data=[7, 92]),
   midi.ControlChangeEvent(tick=10, channel=14, data=[7, 92]),
   midi.ControlChangeEvent(tick=15, channel=14, data=[7, 93]),
   midi.NoteOnEvent(tick=15, channel=14, data=[55, 0]),
   midi.ControlChangeEvent(tick=5, channel=14, data=[7, 94]),
   midi.NoteOnEvent(tick=0, channel=14, data=[49, 102]),
   midi.ControlChangeEvent(tick=15, channel=14, data=[7, 94]),
   midi.ControlChangeEvent(tick=15, channel=14, data=[7, 94]),
   midi.ControlChangeEvent(tick=15, channel=14, data=[7, 96]),
   midi.ControlChangeEvent(tick=30, channel=14, data=[7, 96]),
   midi.ControlChangeEvent(tick=20, channel=14, data=[7, 96]),
   midi.ControlChangeEvent(tick=25, channel=14, data=[7, 96]),
   midi.ControlChangeEvent(tick=20, channel=14, data=[7, 96]),
   midi.ControlChangeEvent(tick=20, channel=14, data=[7, 98]),
   midi.ControlChangeEvent(tick=20, channel=14, data=[7, 98]),
   midi.ControlChangeEvent(tick=15, channel=14, data=[7, 99]),
   midi.NoteOnEvent(tick=35, channel=14, data=[49, 0]),
   midi.NoteOnEvent(tick=10, channel=14, data=[59, 102]),
   midi.ControlChangeEvent(tick=55, channel=14, data=[7, 99]),
   midi.ControlChangeEvent(tick=15, channel=14, data=[7, 98]),
   midi.ControlChangeEvent(tick=15, channel=14, data=[7, 98]),
   midi.ControlChangeEvent(tick=10, channel=14, data=[7, 96]),
   midi.ControlChangeEvent(tick=10, channel=14, data=[7, 96]),
   midi.NoteOnEvent(tick=10, channel=14, data=[59, 0]),
   midi.NoteOnEvent(tick=5, channel=14, data=[57, 102]),
   midi.ControlChangeEvent(tick=5, channel=14, data=[7, 96]),
   midi.ControlChangeEvent(tick=5, channel=14, data=[7, 96]),
   midi.ControlChangeEvent(tick=15, channel=14, data=[7, 94]),
   midi.ControlChangeEvent(tick=10, channel=14, data=[7, 94]),
   midi.ControlChangeEvent(tick=15, channel=14, data=[7, 94]),
   midi.ControlChangeEvent(tick=10, channel=14, data=[7, 93]),
   midi.NoteOnEvent(tick=55, channel=14, data=[57, 0]),
   midi.NoteOnEvent(tick=5, channel=14, data=[50, 102]),
   midi.ControlChangeEvent(tick=35, channel=14, data=[7, 94]),
   midi.ControlChangeEvent(tick=10, channel=14, data=[7, 96]),
   midi.ControlChangeEvent(tick=15, channel=14, data=[7, 99]),
   midi.ControlChangeEvent(tick=10, channel=14, data=[7, 101]),
   midi.ControlChangeEvent(tick=10, channel=14, data=[7, 101]),
   midi.ControlChangeEvent(tick=10, channel=14, data=[7, 101]),
   midi.NoteOnEvent(tick=25, channel=14, data=[50, 0]),
   midi.ControlChangeEvent(tick=20, channel=14, data=[7, 101]),
   midi.ControlChangeEvent(tick=15, channel=14, data=[7, 101]),
   midi.ControlChangeEvent(tick=10, channel=14, data=[7, 100]),
   midi.ControlChangeEvent(tick=10, channel=14, data=[7, 99]),
   midi.ControlChangeEvent(tick=10, channel=14, data=[7, 98]),
   midi.ControlChangeEvent(tick=10, channel=14, data=[7, 96]),
   midi.ControlChangeEvent(tick=10, channel=14, data=[7, 96]),
   midi.ControlChangeEvent(tick=10, channel=14, data=[7, 96]),
   midi.ControlChangeEvent(tick=10, channel=14, data=[7, 94]),
   midi.NoteOnEvent(tick=20, channel=14, data=[54, 102]),
   midi.ControlChangeEvent(tick=25, channel=14, data=[7, 94]),
   midi.ControlChangeEvent(tick=20, channel=14, data=[7, 94]),
   midi.ControlChangeEvent(tick=45, channel=14, data=[7, 93]),
   midi.ControlChangeEvent(tick=10, channel=14, data=[7, 92]),
   midi.ControlChangeEvent(tick=10, channel=14, data=[7, 92]),
   midi.ControlChangeEvent(tick=15, channel=14, data=[7, 90]),
   midi.ControlChangeEvent(tick=15, channel=14, data=[7, 90]),
   midi.NoteOnEvent(tick=35, channel=14, data=[54, 0]),
   midi.NoteOnEvent(tick=5, channel=14, data=[53, 102]),
   midi.ControlChangeEvent(tick=0, channel=14, data=[7, 90]),
   midi.ControlChangeEvent(tick=40, channel=14, data=[7, 89]),
   midi.NoteOnEvent(tick=10, channel=14, data=[53, 0]),
   midi.ControlChangeEvent(tick=0, channel=14, data=[7, 89]),
   midi.NoteOnEvent(tick=10, channel=14, data=[52, 97]),
   midi.ControlChangeEvent(tick=5, channel=14, data=[7, 88]),
   midi.ControlChangeEvent(tick=20, channel=14, data=[7, 87]),
   midi.NoteOnEvent(tick=30, channel=14, data=[52, 0]),
   midi.ControlChangeEvent(tick=15, channel=14, data=[7, 87]),
   midi.ControlChangeEvent(tick=10, channel=14, data=[7, 86]),
   midi.ControlChangeEvent(tick=25, channel=14, data=[7, 85]),
   midi.NoteOnEvent(tick=15, channel=14, data=[40, 92]),
   midi.NoteOnEvent(tick=55, channel=14, data=[40, 0]),
   midi.NoteOnEvent(tick=70, channel=14, data=[45, 85]),
   midi.NoteOnEvent(tick=55, channel=14, data=[45, 0]),
   midi.ControlChangeEvent(tick=50, channel=14, data=[7, 86]),
   midi.ControlChangeEvent(tick=15, channel=14, data=[7, 87]),
   midi.ControlChangeEvent(tick=30, channel=14, data=[7, 87]),
   midi.ControlChangeEvent(tick=90, channel=14, data=[7, 88]),
   midi.ControlChangeEvent(tick=15, channel=14, data=[7, 89]),
   midi.ControlChangeEvent(tick=10, channel=14, data=[7, 90]),
   midi.ControlChangeEvent(tick=20, channel=14, data=[7, 90]),
   midi.ControlChangeEvent(tick=10, channel=14, data=[7, 90]),
   midi.ControlChangeEvent(tick=20, channel=14, data=[7, 92]),
   midi.ControlChangeEvent(tick=10, channel=14, data=[7, 92]),
   midi.ControlChangeEvent(tick=40, channel=14, data=[7, 92]),
   midi.ControlChangeEvent(tick=110, channel=14, data=[7, 92]),
   midi.ControlChangeEvent(tick=10, channel=14, data=[7, 92]),
   midi.ControlChangeEvent(tick=30, channel=14, data=[7, 90]),
   midi.ControlChangeEvent(tick=10, channel=14, data=[7, 90]),
   midi.ControlChangeEvent(tick=85, channel=14, data=[7, 90]),
   midi.ControlChangeEvent(tick=15, channel=14, data=[7, 92]),
   midi.ControlChangeEvent(tick=35, channel=14, data=[7, 92]),
   midi.ControlChangeEvent(tick=40, channel=14, data=[7, 92]),
   midi.NoteOnEvent(tick=15, channel=14, data=[45, 102]),
   midi.NoteOnEvent(tick=40, channel=14, data=[45, 0]),
   midi.NoteOnEvent(tick=50, channel=14, data=[45, 102]),
   midi.NoteOnEvent(tick=20, channel=14, data=[45, 0]),
   midi.NoteOnEvent(tick=10, channel=14, data=[45, 102]),
   midi.NoteOnEvent(tick=20, channel=14, data=[45, 0]),
   midi.NoteOnEvent(tick=40, channel=14, data=[43, 102]),
   midi.NoteOnEvent(tick=20, channel=14, data=[43, 0]),
   midi.NoteOnEvent(tick=40, channel=14, data=[48, 86]),
   midi.NoteOnEvent(tick=40, channel=14, data=[48, 0]),
   midi.ControlChangeEvent(tick=45, channel=14, data=[7, 93]),
   midi.ControlChangeEvent(tick=75, channel=14, data=[7, 94]),
   midi.ControlChangeEvent(tick=20, channel=14, data=[7, 94]),
   midi.ControlChangeEvent(tick=110, channel=14, data=[7, 94]),
   midi.ControlChangeEvent(tick=10, channel=14, data=[7, 94]),
   midi.ControlChangeEvent(tick=5, channel=14, data=[7, 93]),
   midi.ControlChangeEvent(tick=10, channel=14, data=[7, 92]),
   midi.ControlChangeEvent(tick=170, channel=14, data=[7, 92]),
   midi.ControlChangeEvent(tick=10, channel=14, data=[7, 90]),
   midi.ControlChangeEvent(tick=160, channel=14, data=[7, 92]),
   midi.ControlChangeEvent(tick=10, channel=14, data=[7, 93]),
   midi.ControlChangeEvent(tick=15, channel=14, data=[7, 94]),
   midi.ControlChangeEvent(tick=10, channel=14, data=[7, 94]),
   midi.ControlChangeEvent(tick=25, channel=14, data=[7, 94]),
   midi.NoteOnEvent(tick=5, channel=14, data=[48, 102]),
   midi.ControlChangeEvent(tick=5, channel=14, data=[7, 96]),
   midi.ControlChangeEvent(tick=15, channel=14, data=[7, 96]),
   midi.NoteOnEvent(tick=20, channel=14, data=[48, 0]),
   midi.ControlChangeEvent(tick=0, channel=14, data=[7, 96]),
   midi.NoteOnEvent(tick=50, channel=14, data=[48, 102]),
   midi.NoteOnEvent(tick=20, channel=14, data=[48, 0]),
   midi.NoteOnEvent(tick=10, channel=14, data=[48, 102]),
   midi.NoteOnEvent(tick=20, channel=14, data=[48, 0]),
   midi.NoteOnEvent(tick=40, channel=14, data=[47, 102]),
   midi.ControlChangeEvent(tick=0, channel=14, data=[7, 96]),
   midi.NoteOnEvent(tick=20, channel=14, data=[47, 0]),
   midi.ControlChangeEvent(tick=10, channel=14, data=[7, 96]),
   midi.NoteOnEvent(tick=30, channel=14, data=[52, 92]),
   midi.NoteOnEvent(tick=60, channel=14, data=[52, 0]),
   midi.ControlChangeEvent(tick=15, channel=14, data=[7, 96]),
   midi.ControlChangeEvent(tick=15, channel=14, data=[7, 96]),
   midi.ControlChangeEvent(tick=10, channel=14, data=[7, 94]),
   midi.ControlChangeEvent(tick=15, channel=14, data=[7, 93]),
   midi.ControlChangeEvent(tick=10, channel=14, data=[7, 92]),
   midi.ControlChangeEvent(tick=15, channel=14, data=[7, 90]),
   midi.ControlChangeEvent(tick=10, channel=14, data=[7, 89]),
   midi.NoteOnEvent(tick=1770, channel=14, data=[52, 81]),
   midi.ControlChangeEvent(tick=50, channel=14, data=[7, 90]),
   midi.ControlChangeEvent(tick=40, channel=14, data=[7, 90]),
   midi.NoteOnEvent(tick=30, channel=14, data=[52, 0]),
   midi.NoteOnEvent(tick=0, channel=14, data=[50, 83]),
   midi.NoteOnEvent(tick=0, channel=14, data=[53, 83]),
   midi.ControlChangeEvent(tick=20, channel=14, data=[7, 90]),
   midi.ControlChangeEvent(tick=10, channel=14, data=[7, 92]),
   midi.ControlChangeEvent(tick=30, channel=14, data=[7, 92]),
   midi.ControlChangeEvent(tick=25, channel=14, data=[7, 93]),
   midi.ControlChangeEvent(tick=10, channel=14, data=[7, 93]),
   midi.ControlChangeEvent(tick=15, channel=14, data=[7, 94]),
   midi.NoteOnEvent(tick=10, channel=14, data=[53, 0]),
   midi.NoteOnEvent(tick=0, channel=14, data=[50, 0]),
   midi.NoteOnEvent(tick=0, channel=14, data=[44, 85]),
   midi.NoteOnEvent(tick=0, channel=14, data=[59, 85]),
   midi.ControlChangeEvent(tick=0, channel=14, data=[7, 94]),
   midi.ControlChangeEvent(tick=20, channel=14, data=[7, 94]),
   midi.ControlChangeEvent(tick=10, channel=14, data=[7, 96]),
   midi.ControlChangeEvent(tick=25, channel=14, data=[7, 96]),
   midi.ControlChangeEvent(tick=45, channel=14, data=[7, 96]),
   midi.ControlChangeEvent(tick=75, channel=14, data=[7, 96]),
   midi.ControlChangeEvent(tick=15, channel=14, data=[7, 94]),
   midi.ControlChangeEvent(tick=15, channel=14, data=[7, 94]),
   midi.ControlChangeEvent(tick=10, channel=14, data=[7, 93]),
   midi.ControlChangeEvent(tick=15, channel=14, data=[7, 92]),
   midi.NoteOnEvent(tick=10, channel=14, data=[59, 0]),
   midi.NoteOnEvent(tick=0, channel=14, data=[44, 0]),
   midi.NoteOnEvent(tick=0, channel=14, data=[57, 90]),
   midi.ControlChangeEvent(tick=0, channel=14, data=[7, 90]),
   midi.ControlChangeEvent(tick=15, channel=14, data=[7, 89]),
   midi.ControlChangeEvent(tick=15, channel=14, data=[7, 88]),
   midi.ControlChangeEvent(tick=15, channel=14, data=[7, 88]),
   midi.ControlChangeEvent(tick=25, channel=14, data=[7, 88]),
   midi.ControlChangeEvent(tick=15, channel=14, data=[7, 89]),
   midi.ControlChangeEvent(tick=15, channel=14, data=[7, 89]),
   midi.ControlChangeEvent(tick=10, channel=14, data=[7, 90]),
   midi.NoteOnEvent(tick=10, channel=14, data=[57, 0]),
   midi.NoteOnEvent(tick=0, channel=14, data=[55, 92]),
   midi.NoteOnEvent(tick=0, channel=14, data=[58, 92]),
   midi.ControlChangeEvent(tick=5, channel=14, data=[7, 90]),
   midi.ControlChangeEvent(tick=10, channel=14, data=[7, 92]),
   midi.ControlChangeEvent(tick=15, channel=14, data=[7, 93]),
   midi.ControlChangeEvent(tick=15, channel=14, data=[7, 93]),
   midi.ControlChangeEvent(tick=20, channel=14, data=[7, 94]),
   midi.ControlChangeEvent(tick=20, channel=14, data=[7, 94]),
   midi.ControlChangeEvent(tick=25, channel=14, data=[7, 94]),
   midi.NoteOnEvent(tick=10, channel=14, data=[58, 0]),
   midi.NoteOnEvent(tick=0, channel=14, data=[55, 0]),
   midi.NoteOnEvent(tick=0, channel=14, data=[49, 95]),
   midi.NoteOnEvent(tick=0, channel=14, data=[64, 95]),
   midi.ControlChangeEvent(tick=10, channel=14, data=[7, 96]),
   midi.ControlChangeEvent(tick=10, channel=14, data=[7, 96]),
   midi.ControlChangeEvent(tick=15, channel=14, data=[7, 96]),
   midi.ControlChangeEvent(tick=30, channel=14, data=[7, 96]),
   midi.ControlChangeEvent(tick=15, channel=14, data=[7, 96]),
   midi.ControlChangeEvent(tick=40, channel=14, data=[7, 96]),
   midi.ControlChangeEvent(tick=20, channel=14, data=[7, 98]),
   midi.ControlChangeEvent(tick=30, channel=14, data=[7, 98]),
   midi.ControlChangeEvent(tick=20, channel=14, data=[7, 99]),
   midi.ControlChangeEvent(tick=10, channel=14, data=[7, 99]),
   midi.ControlChangeEvent(tick=20, channel=14, data=[7, 100]),
   midi.NoteOnEvent(tick=20, channel=14, data=[64, 0]),
   midi.NoteOnEvent(tick=0, channel=14, data=[49, 0]),
   midi.NoteOnEvent(tick=0, channel=14, data=[65, 101]),
   midi.NoteOnEvent(tick=0, channel=14, data=[62, 101]),
   midi.ControlChangeEvent(tick=0, channel=14, data=[7, 101]),
   midi.ControlChangeEvent(tick=15, channel=14, data=[7, 101]),
   midi.ControlChangeEvent(tick=20, channel=14, data=[7, 101]),
   midi.ControlChangeEvent(tick=45, channel=14, data=[7, 100]),
   midi.ControlChangeEvent(tick=10, channel=14, data=[7, 99]),
   midi.ControlChangeEvent(tick=15, channel=14, data=[7, 98]),
   midi.NoteOnEvent(tick=15, channel=14, data=[62, 0]),
   midi.NoteOnEvent(tick=0, channel=14, data=[65, 0]),
   midi.NoteOnEvent(tick=0, channel=14, data=[64, 93]),
   midi.NoteOnEvent(tick=0, channel=14, data=[57, 93]),
   midi.ControlChangeEvent(tick=5, channel=14, data=[7, 98]),
   midi.ControlChangeEvent(tick=10, channel=14, data=[7, 96]),
   midi.ControlChangeEvent(tick=10, channel=14, data=[7, 96]),
   midi.ControlChangeEvent(tick=15, channel=14, data=[7, 96]),
   midi.ControlChangeEvent(tick=10, channel=14, data=[7, 94]),
   midi.ControlChangeEvent(tick=10, channel=14, data=[7, 93]),
   midi.ControlChangeEvent(tick=15, channel=14, data=[7, 92]),
   midi.ControlChangeEvent(tick=10, channel=14, data=[7, 90]),
   midi.ControlChangeEvent(tick=10, channel=14, data=[7, 89]),
   midi.ControlChangeEvent(tick=15, channel=14, data=[7, 87]),
   midi.NoteOnEvent(tick=10, channel=14, data=[57, 0]),
   midi.NoteOnEvent(tick=0, channel=14, data=[64, 0]),
   midi.NoteOnEvent(tick=0, channel=14, data=[50, 86]),
   midi.NoteOnEvent(tick=0, channel=14, data=[57, 86]),
   midi.ControlChangeEvent(tick=0, channel=14, data=[7, 86]),
   midi.ControlChangeEvent(tick=15, channel=14, data=[7, 84]),
   midi.ControlChangeEvent(tick=10, channel=14, data=[7, 83]),
   midi.ControlChangeEvent(tick=10, channel=14, data=[7, 83]),
   midi.ControlChangeEvent(tick=35, channel=14, data=[7, 83]),
   midi.NoteOnEvent(tick=80, channel=14, data=[57, 0]),
   midi.NoteOnEvent(tick=0, channel=14, data=[50, 0]),
   midi.ControlChangeEvent(tick=265, channel=14, data=[7, 83]),
   midi.ControlChangeEvent(tick=10, channel=14, data=[7, 83]),
   midi.ControlChangeEvent(tick=15, channel=14, data=[7, 84]),
   midi.ControlChangeEvent(tick=45, channel=14, data=[7, 85]),
   midi.NoteOnEvent(tick=115, channel=14, data=[52, 102]),
   midi.NoteOnEvent(tick=30, channel=14, data=[52, 0]),
   midi.NoteOnEvent(tick=90, channel=14, data=[45, 102]),
   midi.NoteOnEvent(tick=30, channel=14, data=[45, 0]),
   midi.ControlChangeEvent(tick=25, channel=14, data=[7, 84]),
   midi.ControlChangeEvent(tick=80, channel=14, data=[7, 85]),
   midi.ControlChangeEvent(tick=20, channel=14, data=[7, 87]),
   midi.ControlChangeEvent(tick=20, channel=14, data=[7, 87]),
   midi.ControlChangeEvent(tick=40, channel=14, data=[7, 88]),
   midi.NoteOnEvent(tick=25, channel=14, data=[45, 102]),
   midi.ControlChangeEvent(tick=5, channel=14, data=[7, 89]),
   midi.ControlChangeEvent(tick=20, channel=14, data=[7, 89]),
   midi.NoteOnEvent(tick=5, channel=14, data=[45, 0]),
   midi.ControlChangeEvent(tick=15, channel=14, data=[7, 89]),
   midi.ControlChangeEvent(tick=45, channel=14, data=[7, 90]),
   midi.ControlChangeEvent(tick=35, channel=14, data=[7, 90]),
   midi.ControlChangeEvent(tick=20, channel=14, data=[7, 90]),
   midi.ControlChangeEvent(tick=15, channel=14, data=[7, 92]),
   midi.ControlChangeEvent(tick=60, channel=14, data=[7, 92]),
   midi.NoteOnEvent(tick=20, channel=14, data=[45, 102]),
   midi.NoteOnEvent(tick=30, channel=14, data=[45, 0]),
   midi.ControlChangeEvent(tick=320, channel=14, data=[7, 93]),
   midi.ControlChangeEvent(tick=20, channel=14, data=[7, 93]),
   midi.ControlChangeEvent(tick=30, channel=14, data=[7, 94]),
   midi.ControlChangeEvent(tick=60, channel=14, data=[7, 94]),
   midi.NoteOnEvent(tick=20, channel=14, data=[40, 112]),
   midi.ControlChangeEvent(tick=10, channel=14, data=[7, 94]),
   midi.NoteOnEvent(tick=10, channel=14, data=[40, 0]),
   midi.ControlChangeEvent(tick=15, channel=14, data=[7, 96]),
   midi.ControlChangeEvent(tick=300, channel=14, data=[7, 94]),
   midi.ControlChangeEvent(tick=15, channel=14, data=[7, 94]),
   midi.ControlChangeEvent(tick=30, channel=14, data=[7, 94]),
   midi.ControlChangeEvent(tick=250, channel=14, data=[7, 93]),
   midi.ControlChangeEvent(tick=145, channel=14, data=[7, 94]),
   midi.ControlChangeEvent(tick=75, channel=14, data=[7, 94]),
   midi.ControlChangeEvent(tick=20, channel=14, data=[7, 96]),
   midi.ControlChangeEvent(tick=15, channel=14, data=[7, 98]),
   midi.NoteOnEvent(tick=15, channel=14, data=[40, 112]),
   midi.ControlChangeEvent(tick=5, channel=14, data=[7, 101]),
   midi.NoteOnEvent(tick=15, channel=14, data=[40, 0]),
   midi.ControlChangeEvent(tick=0, channel=14, data=[7, 105]),
   midi.NoteOnEvent(tick=40, channel=14, data=[45, 102]),
   midi.ControlChangeEvent(tick=10, channel=14, data=[7, 101]),
   midi.ControlChangeEvent(tick=15, channel=14, data=[7, 96]),
   midi.NoteOnEvent(tick=5, channel=14, data=[45, 0]),
   midi.ControlChangeEvent(tick=15, channel=14, data=[7, 92]),
   midi.ControlChangeEvent(tick=15, channel=14, data=[7, 90]),
   midi.NoteOnEvent(tick=180, channel=14, data=[45, 102]),
   midi.NoteOnEvent(tick=30, channel=14, data=[45, 0]),
   midi.NoteOnEvent(tick=210, channel=14, data=[45, 102]),
   midi.NoteOnEvent(tick=30, channel=14, data=[45, 0]),
   midi.ControlChangeEvent(tick=20, channel=14, data=[7, 92]),
   midi.ControlChangeEvent(tick=350, channel=14, data=[7, 92]),
   midi.ControlChangeEvent(tick=20, channel=14, data=[7, 93]),
   midi.ControlChangeEvent(tick=20, channel=14, data=[7, 94]),
   midi.ControlChangeEvent(tick=20, channel=14, data=[7, 96]),
   midi.NoteOnEvent(tick=20, channel=14, data=[38, 102]),
   midi.ControlChangeEvent(tick=0, channel=14, data=[7, 96]),
   midi.NoteOnEvent(tick=30, channel=14, data=[38, 0]),
   midi.ControlChangeEvent(tick=25, channel=14, data=[7, 96]),
   midi.ControlChangeEvent(tick=20, channel=14, data=[7, 96]),
   midi.ControlChangeEvent(tick=1375, channel=14, data=[7, 96]),
   midi.ControlChangeEvent(tick=25, channel=14, data=[7, 96]),
   midi.ControlChangeEvent(tick=20, channel=14, data=[7, 96]),
   midi.ControlChangeEvent(tick=20, channel=14, data=[7, 94]),
   midi.ControlChangeEvent(tick=35, channel=14, data=[7, 94]),
   midi.ControlChangeEvent(tick=70, channel=14, data=[7, 93]),
   midi.ControlChangeEvent(tick=185, channel=14, data=[7, 94]),
   midi.ControlChangeEvent(tick=555, channel=14, data=[7, 93]),
   midi.ControlChangeEvent(tick=35, channel=14, data=[7, 93]),
   midi.ControlChangeEvent(tick=15, channel=14, data=[7, 92]),
   midi.ControlChangeEvent(tick=20, channel=14, data=[7, 90]),
   midi.ControlChangeEvent(tick=20, channel=14, data=[7, 90]),
   midi.ControlChangeEvent(tick=20, channel=14, data=[7, 90]),
   midi.ControlChangeEvent(tick=20, channel=14, data=[7, 89]),
   midi.ControlChangeEvent(tick=20, channel=14, data=[7, 89]),
   midi.ControlChangeEvent(tick=15, channel=14, data=[7, 87]),
   midi.ControlChangeEvent(tick=20, channel=14, data=[7, 87]),
   midi.ControlChangeEvent(tick=20, channel=14, data=[7, 86]),
   midi.ControlChangeEvent(tick=25, channel=14, data=[7, 85]),
   midi.ControlChangeEvent(tick=15, channel=14, data=[7, 84]),
   midi.ControlChangeEvent(tick=35, channel=14, data=[7, 83]),
   midi.ControlChangeEvent(tick=30, channel=14, data=[7, 83]),
   midi.ControlChangeEvent(tick=25, channel=14, data=[7, 83]),
   midi.ControlChangeEvent(tick=35, channel=14, data=[7, 83]),
   midi.ControlChangeEvent(tick=40, channel=14, data=[7, 83]),
   midi.NoteOnEvent(tick=110, channel=14, data=[43, 102]),
   midi.ControlChangeEvent(tick=175, channel=14, data=[7, 83]),
   midi.ControlChangeEvent(tick=20, channel=14, data=[7, 83]),
   midi.ControlChangeEvent(tick=15, channel=14, data=[7, 83]),
   midi.NoteOnEvent(tick=90, channel=14, data=[43, 0]),
   midi.NoteOnEvent(tick=0, channel=14, data=[43, 102]),
   midi.NoteOnEvent(tick=55, channel=14, data=[43, 0]),
   midi.NoteOnEvent(tick=5, channel=14, data=[43, 102]),
   midi.ControlChangeEvent(tick=20, channel=14, data=[7, 83]),
   midi.ControlChangeEvent(tick=20, channel=14, data=[7, 83]),
   midi.NoteOnEvent(tick=15, channel=14, data=[43, 0]),
   midi.NoteOnEvent(tick=5, channel=14, data=[43, 102]),
   midi.NoteOnEvent(tick=55, channel=14, data=[43, 0]),
   midi.NoteOnEvent(tick=5, channel=14, data=[43, 102]),
   midi.ControlChangeEvent(tick=30, channel=14, data=[7, 83]),
   midi.ControlChangeEvent(tick=105, channel=14, data=[7, 83]),
   midi.ControlChangeEvent(tick=50, channel=14, data=[7, 83]),
   midi.ControlChangeEvent(tick=20, channel=14, data=[7, 84]),
   midi.ControlChangeEvent(tick=40, channel=14, data=[7, 85]),
   midi.ControlChangeEvent(tick=45, channel=14, data=[7, 86]),
   midi.NoteOnEvent(tick=10, channel=14, data=[43, 0]),
   midi.NoteOnEvent(tick=0, channel=14, data=[43, 102]),
   midi.NoteOnEvent(tick=55, channel=14, data=[43, 0]),
   midi.ControlChangeEvent(tick=5, channel=14, data=[7, 87]),
   midi.NoteOnEvent(tick=0, channel=14, data=[43, 102]),
   midi.ControlChangeEvent(tick=30, channel=14, data=[7, 87]),
   midi.NoteOnEvent(tick=25, channel=14, data=[43, 0]),
   midi.ControlChangeEvent(tick=0, channel=14, data=[7, 88]),
   midi.NoteOnEvent(tick=5, channel=14, data=[43, 102]),
   midi.ControlChangeEvent(tick=50, channel=14, data=[7, 89]),
   midi.NoteOnEvent(tick=5, channel=14, data=[43, 0]),
   midi.NoteOnEvent(tick=5, channel=14, data=[43, 102]),
   midi.ControlChangeEvent(tick=20, channel=14, data=[7, 89]),
   midi.ControlChangeEvent(tick=50, channel=14, data=[7, 89]),
   midi.ControlChangeEvent(tick=55, channel=14, data=[7, 90]),
   midi.ControlChangeEvent(tick=45, channel=14, data=[7, 90]),
   midi.ControlChangeEvent(tick=35, channel=14, data=[7, 90]),
   midi.ControlChangeEvent(tick=35, channel=14, data=[7, 92]),
   midi.ControlChangeEvent(tick=25, channel=14, data=[7, 92]),
   midi.NoteOnEvent(tick=10, channel=14, data=[43, 0]),
   midi.ControlChangeEvent(tick=10, channel=14, data=[7, 93]),
   midi.NoteOnEvent(tick=15, channel=14, data=[43, 102]),
   midi.ControlChangeEvent(tick=0, channel=14, data=[7, 93]),
   midi.ControlChangeEvent(tick=30, channel=14, data=[7, 94]),
   midi.ControlChangeEvent(tick=20, channel=14, data=[7, 94]),
   midi.NoteOnEvent(tick=5, channel=14, data=[43, 0]),
   midi.NoteOnEvent(tick=5, channel=14, data=[43, 102]),
   midi.ControlChangeEvent(tick=25, channel=14, data=[7, 94]),
   midi.NoteOnEvent(tick=30, channel=14, data=[43, 0]),
   midi.NoteOnEvent(tick=5, channel=14, data=[43, 102]),
   midi.ControlChangeEvent(tick=5, channel=14, data=[7, 96]),
   midi.ControlChangeEvent(tick=25, channel=14, data=[7, 96]),
   midi.NoteOnEvent(tick=25, channel=14, data=[43, 0]),
   midi.ControlChangeEvent(tick=0, channel=14, data=[7, 96]),
   midi.NoteOnEvent(tick=5, channel=14, data=[43, 102]),
   midi.ControlChangeEvent(tick=20, channel=14, data=[7, 96]),
   midi.ControlChangeEvent(tick=25, channel=14, data=[7, 96]),
   midi.NoteOnEvent(tick=10, channel=14, data=[43, 0]),
   midi.NoteOnEvent(tick=5, channel=14, data=[43, 102]),
   midi.NoteOnEvent(tick=55, channel=14, data=[43, 0]),
   midi.NoteOnEvent(tick=5, channel=14, data=[43, 102]),
   midi.ControlChangeEvent(tick=25, channel=14, data=[7, 96]),
   midi.NoteOnEvent(tick=30, channel=14, data=[43, 0]),
   midi.NoteOnEvent(tick=5, channel=14, data=[43, 102]),
   midi.ControlChangeEvent(tick=30, channel=14, data=[7, 98]),
   midi.NoteOnEvent(tick=25, channel=14, data=[43, 0]),
   midi.NoteOnEvent(tick=5, channel=14, data=[43, 102]),
   midi.ControlChangeEvent(tick=20, channel=14, data=[7, 98]),
   midi.NoteOnEvent(tick=35, channel=14, data=[43, 0]),
   midi.ControlChangeEvent(tick=0, channel=14, data=[7, 99]),
   midi.NoteOnEvent(tick=5, channel=14, data=[43, 102]),
   midi.ControlChangeEvent(tick=35, channel=14, data=[7, 99]),
   midi.NoteOnEvent(tick=20, channel=14, data=[43, 0]),
   midi.NoteOnEvent(tick=5, channel=14, data=[43, 102]),
   midi.ControlChangeEvent(tick=10, channel=14, data=[7, 100]),
   midi.ControlChangeEvent(tick=30, channel=14, data=[7, 101]),
   midi.NoteOnEvent(tick=15, channel=14, data=[43, 0]),
   midi.NoteOnEvent(tick=5, channel=14, data=[43, 102]),
   midi.ControlChangeEvent(tick=0, channel=14, data=[7, 101]),
   midi.ControlChangeEvent(tick=25, channel=14, data=[7, 101]),
   midi.NoteOnEvent(tick=30, channel=14, data=[43, 0]),
   midi.ControlChangeEvent(tick=0, channel=14, data=[7, 101]),
   midi.NoteOnEvent(tick=5, channel=14, data=[43, 102]),
   midi.ControlChangeEvent(tick=35, channel=14, data=[7, 101]),
   midi.NoteOnEvent(tick=20, channel=14, data=[43, 0]),
   midi.ControlChangeEvent(tick=45, channel=14, data=[7, 102]),
   midi.ControlChangeEvent(tick=155, channel=14, data=[7, 101]),
   midi.ControlChangeEvent(tick=15, channel=14, data=[7, 101]),
   midi.ControlChangeEvent(tick=10, channel=14, data=[7, 101]),
   midi.ControlChangeEvent(tick=15, channel=14, data=[7, 101]),
   midi.ControlChangeEvent(tick=10, channel=14, data=[7, 101]),
   midi.ControlChangeEvent(tick=35, channel=14, data=[7, 100]),
   midi.ControlChangeEvent(tick=75, channel=14, data=[7, 99]),
   midi.ControlChangeEvent(tick=5, channel=14, data=[7, 98]),
   midi.ControlChangeEvent(tick=10, channel=14, data=[7, 96]),
   midi.ControlChangeEvent(tick=5, channel=14, data=[7, 96]),
   midi.ControlChangeEvent(tick=5, channel=14, data=[7, 96]),
   midi.ControlChangeEvent(tick=10, channel=14, data=[7, 96]),
   midi.ControlChangeEvent(tick=5, channel=14, data=[7, 96]),
   midi.ControlChangeEvent(tick=10, channel=14, data=[7, 94]),
   midi.ControlChangeEvent(tick=5, channel=14, data=[7, 94]),
   midi.ControlChangeEvent(tick=10, channel=14, data=[7, 93]),
   midi.NoteOnEvent(tick=0, channel=14, data=[43, 86]),
   midi.ControlChangeEvent(tick=10, channel=14, data=[7, 93]),
   midi.ControlChangeEvent(tick=10, channel=14, data=[7, 92]),
   midi.ControlChangeEvent(tick=15, channel=14, data=[7, 92]),
   midi.ControlChangeEvent(tick=10, channel=14, data=[7, 90]),
   midi.ControlChangeEvent(tick=15, channel=14, data=[7, 90]),
   midi.ControlChangeEvent(tick=15, channel=14, data=[7, 90]),
   midi.ControlChangeEvent(tick=25, channel=14, data=[7, 89]),
   midi.ControlChangeEvent(tick=25, channel=14, data=[7, 89]),
   midi.ControlChangeEvent(tick=40, channel=14, data=[7, 89]),
   midi.ControlChangeEvent(tick=25, channel=14, data=[7, 88]),
   midi.ControlChangeEvent(tick=20, channel=14, data=[7, 87]),
   midi.ControlChangeEvent(tick=20, channel=14, data=[7, 87]),
   midi.ControlChangeEvent(tick=20, channel=14, data=[7, 86]),
   midi.ControlChangeEvent(tick=30, channel=14, data=[7, 85]),
   midi.ControlChangeEvent(tick=20, channel=14, data=[7, 84]),
   midi.ControlChangeEvent(tick=20, channel=14, data=[7, 83]),
   midi.ControlChangeEvent(tick=20, channel=14, data=[7, 83]),
   midi.ControlChangeEvent(tick=25, channel=14, data=[7, 83]),
   midi.ControlChangeEvent(tick=15, channel=14, data=[7, 83]),
   midi.ControlChangeEvent(tick=40, channel=14, data=[7, 83]),
   midi.ControlChangeEvent(tick=25, channel=14, data=[7, 83]),
   midi.NoteOnEvent(tick=15, channel=14, data=[43, 0]),
   midi.NoteOnEvent(tick=20, channel=14, data=[60, 105]),
   midi.ControlChangeEvent(tick=10, channel=14, data=[7, 81]),
   midi.ControlChangeEvent(tick=95, channel=14, data=[7, 81]),
   midi.NoteOnEvent(tick=15, channel=14, data=[60, 0]),
   midi.NoteOnEvent(tick=0, channel=14, data=[59, 107]),
   midi.NoteOnEvent(tick=40, channel=14, data=[59, 0]),
   midi.NoteOnEvent(tick=0, channel=14, data=[57, 109]),
   midi.NoteOnEvent(tick=40, channel=14, data=[57, 0]),
   midi.NoteOnEvent(tick=0, channel=14, data=[55, 111]),
   midi.NoteOnEvent(tick=40, channel=14, data=[55, 0]),
   midi.NoteOnEvent(tick=0, channel=14, data=[57, 110]),
   midi.NoteOnEvent(tick=60, channel=14, data=[57, 0]),
   midi.NoteOnEvent(tick=0, channel=14, data=[64, 108]),
   midi.NoteOnEvent(tick=60, channel=14, data=[64, 0]),
   midi.NoteOnEvent(tick=0, channel=14, data=[62, 107]),
   midi.ControlChangeEvent(tick=0, channel=14, data=[7, 81]),
   midi.ControlChangeEvent(tick=10, channel=14, data=[7, 83]),
   midi.ControlChangeEvent(tick=5, channel=14, data=[7, 83]),
   midi.ControlChangeEvent(tick=10, channel=14, data=[7, 83]),
   midi.ControlChangeEvent(tick=5, channel=14, data=[7, 83]),
   midi.ControlChangeEvent(tick=5, channel=14, data=[7, 84]),
   midi.ControlChangeEvent(tick=10, channel=14, data=[7, 84]),
   midi.ControlChangeEvent(tick=10, channel=14, data=[7, 85]),
   midi.NoteOnEvent(tick=5, channel=14, data=[62, 0]),
   midi.NoteOnEvent(tick=0, channel=14, data=[59, 105]),
   midi.ControlChangeEvent(tick=5, channel=14, data=[7, 85]),
   midi.ControlChangeEvent(tick=10, channel=14, data=[7, 86]),
   midi.ControlChangeEvent(tick=15, channel=14, data=[7, 87]),
   midi.NoteOnEvent(tick=30, channel=14, data=[59, 0]),
   midi.NoteOnEvent(tick=0, channel=14, data=[57, 105]),
   midi.NoteOnEvent(tick=120, channel=14, data=[57, 0]),
   midi.NoteOnEvent(tick=0, channel=14, data=[55, 105]),
   midi.NoteOnEvent(tick=80, channel=14, data=[55, 0]),
   midi.NoteOnEvent(tick=280, channel=14, data=[60, 105]),
   midi.NoteOnEvent(tick=120, channel=14, data=[60, 0]),
   midi.NoteOnEvent(tick=0, channel=14, data=[58, 107]),
   midi.NoteOnEvent(tick=40, channel=14, data=[58, 0]),
   midi.NoteOnEvent(tick=0, channel=14, data=[57, 109]),
   midi.NoteOnEvent(tick=40, channel=14, data=[57, 0]),
   midi.NoteOnEvent(tick=0, channel=14, data=[55, 111]),
   midi.NoteOnEvent(tick=40, channel=14, data=[55, 0]),
   midi.NoteOnEvent(tick=0, channel=14, data=[58, 110]),
   midi.NoteOnEvent(tick=60, channel=14, data=[58, 0]),
   midi.NoteOnEvent(tick=0, channel=14, data=[65, 107]),
   midi.NoteOnEvent(tick=60, channel=14, data=[65, 0]),
   midi.NoteOnEvent(tick=0, channel=14, data=[63, 105]),
   midi.ControlChangeEvent(tick=30, channel=14, data=[7, 87]),
   midi.ControlChangeEvent(tick=15, channel=14, data=[7, 88]),
   midi.ControlChangeEvent(tick=10, channel=14, data=[7, 89]),
   midi.NoteOnEvent(tick=5, channel=14, data=[63, 0]),
   midi.NoteOnEvent(tick=0, channel=14, data=[60, 105]),
   midi.ControlChangeEvent(tick=5, channel=14, data=[7, 89]),
   midi.ControlChangeEvent(tick=15, channel=14, data=[7, 90]),
   midi.ControlChangeEvent(tick=15, channel=14, data=[7, 90]),
   midi.ControlChangeEvent(tick=15, channel=14, data=[7, 90]),
   midi.NoteOnEvent(tick=10, channel=14, data=[60, 0]),
   midi.NoteOnEvent(tick=0, channel=14, data=[58, 105]),
   midi.ControlChangeEvent(tick=5, channel=14, data=[7, 92]),
   midi.ControlChangeEvent(tick=15, channel=14, data=[7, 92]),
   midi.ControlChangeEvent(tick=20, channel=14, data=[7, 93]),
   midi.ControlChangeEvent(tick=20, channel=14, data=[7, 94]),
   midi.ControlChangeEvent(tick=30, channel=14, data=[7, 94]),
   midi.NoteOnEvent(tick=30, channel=14, data=[58, 0]),
   midi.NoteOnEvent(tick=0, channel=14, data=[56, 105]),
   midi.ControlChangeEvent(tick=5, channel=14, data=[7, 94]),
   midi.ControlChangeEvent(tick=15, channel=14, data=[7, 96]),
   midi.ControlChangeEvent(tick=25, channel=14, data=[7, 96]),
   midi.ControlChangeEvent(tick=15, channel=14, data=[7, 96]),
   midi.ControlChangeEvent(tick=15, channel=14, data=[7, 96]),
   midi.NoteOnEvent(tick=5, channel=14, data=[56, 0]),
   midi.ControlChangeEvent(tick=10, channel=14, data=[7, 96]),
   midi.ControlChangeEvent(tick=20, channel=14, data=[7, 98]),
   midi.ControlChangeEvent(tick=30, channel=14, data=[7, 98]),
   midi.ControlChangeEvent(tick=20, channel=14, data=[7, 99]),
   midi.ControlChangeEvent(tick=20, channel=14, data=[7, 99]),
   midi.ControlChangeEvent(tick=20, channel=14, data=[7, 100]),
   midi.ControlChangeEvent(tick=30, channel=14, data=[7, 101]),
   midi.ControlChangeEvent(tick=65, channel=14, data=[7, 101]),
   midi.NoteOnEvent(tick=65, channel=14, data=[48, 86]),
   midi.NoteOnEvent(tick=240, channel=14, data=[48, 0]),
   midi.NoteOnEvent(tick=0, channel=14, data=[41, 86]),
   midi.ControlChangeEvent(tick=10, channel=14, data=[7, 101]),
   midi.ControlChangeEvent(tick=5, channel=14, data=[7, 100]),
   midi.ControlChangeEvent(tick=10, channel=14, data=[7, 99]),
   midi.ControlChangeEvent(tick=5, channel=14, data=[7, 98]),
   midi.ControlChangeEvent(tick=10, channel=14, data=[7, 96]),
   midi.ControlChangeEvent(tick=5, channel=14, data=[7, 96]),
   midi.ControlChangeEvent(tick=10, channel=14, data=[7, 96]),
   midi.ControlChangeEvent(tick=5, channel=14, data=[7, 96]),
   midi.ControlChangeEvent(tick=10, channel=14, data=[7, 94]),
   midi.ControlChangeEvent(tick=10, channel=14, data=[7, 94]),
   midi.ControlChangeEvent(tick=5, channel=14, data=[7, 94]),
   midi.ControlChangeEvent(tick=25, channel=14, data=[7, 93]),
   midi.ControlChangeEvent(tick=10, channel=14, data=[7, 92]),
   midi.ControlChangeEvent(tick=55, channel=14, data=[7, 92]),
   midi.ControlChangeEvent(tick=15, channel=14, data=[7, 90]),
   midi.ControlChangeEvent(tick=5, channel=14, data=[7, 90]),
   midi.ControlChangeEvent(tick=10, channel=14, data=[7, 89]),
   midi.NoteOnEvent(tick=35, channel=14, data=[41, 0]),
   midi.NoteOnEvent(tick=0, channel=14, data=[36, 86]),
   midi.ControlChangeEvent(tick=10, channel=14, data=[7, 89]),
   midi.ControlChangeEvent(tick=5, channel=14, data=[7, 90]),
   midi.ControlChangeEvent(tick=10, channel=14, data=[7, 90]),
   midi.ControlChangeEvent(tick=15, channel=14, data=[7, 92]),
   midi.ControlChangeEvent(tick=15, channel=14, data=[7, 92]),
   midi.ControlChangeEvent(tick=10, channel=14, data=[7, 93]),
   midi.ControlChangeEvent(tick=25, channel=14, data=[7, 94]),
   midi.NoteOnEvent(tick=80, channel=14, data=[36, 0]),
   midi.ControlChangeEvent(tick=0, channel=14, data=[7, 93]),
   midi.NoteOnEvent(tick=10, channel=14, data=[38, 86]),
   midi.ControlChangeEvent(tick=10, channel=14, data=[7, 92]),
   midi.ControlChangeEvent(tick=10, channel=14, data=[7, 92]),
   midi.ControlChangeEvent(tick=10, channel=14, data=[7, 90]),
   midi.ControlChangeEvent(tick=10, channel=14, data=[7, 90]),
   midi.ControlChangeEvent(tick=15, channel=14, data=[7, 90]),
   midi.NoteOnEvent(tick=5, channel=14, data=[38, 0]),
   midi.NoteOnEvent(tick=0, channel=14, data=[43, 86]),
   midi.ControlChangeEvent(tick=5, channel=14, data=[7, 89]),
   midi.ControlChangeEvent(tick=20, channel=14, data=[7, 89]),
   midi.ControlChangeEvent(tick=15, channel=14, data=[7, 88]),
   midi.ControlChangeEvent(tick=35, channel=14, data=[7, 87]),
   midi.ControlChangeEvent(tick=20, channel=14, data=[7, 87]),
   midi.ControlChangeEvent(tick=65, channel=14, data=[7, 86]),
   midi.ControlChangeEvent(tick=10, channel=14, data=[7, 85]),
   midi.NoteOnEvent(tick=5, channel=14, data=[43, 0]),
   midi.ControlChangeEvent(tick=55, channel=14, data=[7, 83]),
   midi.ControlChangeEvent(tick=0, channel=14, data=[7, 83]),
   midi.ControlChangeEvent(tick=5, channel=14, data=[7, 83]),
   midi.ControlChangeEvent(tick=5, channel=14, data=[7, 83]),
   midi.NoteOnEvent(tick=0, channel=14, data=[48, 86]),
   midi.ControlChangeEvent(tick=0, channel=14, data=[7, 83]),
   midi.ControlChangeEvent(tick=10, channel=14, data=[7, 83]),
   midi.NoteOnEvent(tick=110, channel=14, data=[48, 0]),
   midi.NoteOnEvent(tick=0, channel=14, data=[43, 86]),
   midi.ControlChangeEvent(tick=90, channel=14, data=[7, 83]),
   midi.ControlChangeEvent(tick=5, channel=14, data=[7, 83]),
   midi.ControlChangeEvent(tick=10, channel=14, data=[7, 83]),
   midi.ControlChangeEvent(tick=5, channel=14, data=[7, 84]),
   midi.NoteOnEvent(tick=10, channel=14, data=[43, 0]),
   midi.NoteOnEvent(tick=0, channel=14, data=[39, 86]),
   midi.ControlChangeEvent(tick=0, channel=14, data=[7, 84]),
   midi.ControlChangeEvent(tick=10, channel=14, data=[7, 85]),
   midi.ControlChangeEvent(tick=10, channel=14, data=[7, 86]),
   midi.ControlChangeEvent(tick=5, channel=14, data=[7, 87]),
   midi.ControlChangeEvent(tick=30, channel=14, data=[7, 87]),
   midi.ControlChangeEvent(tick=10, channel=14, data=[7, 88]),
   midi.ControlChangeEvent(tick=25, channel=14, data=[7, 89]),
   midi.ControlChangeEvent(tick=90, channel=14, data=[7, 89]),
   midi.ControlChangeEvent(tick=10, channel=14, data=[7, 90]),
   midi.ControlChangeEvent(tick=20, channel=14, data=[7, 90]),
   midi.ControlChangeEvent(tick=25, channel=14, data=[7, 90]),
   midi.NoteOnEvent(tick=5, channel=14, data=[39, 0]),
   midi.NoteOnEvent(tick=0, channel=14, data=[44, 86]),
   midi.ControlChangeEvent(tick=35, channel=14, data=[7, 92]),
   midi.ControlChangeEvent(tick=15, channel=14, data=[7, 90]),
   midi.ControlChangeEvent(tick=10, channel=14, data=[7, 90]),
   midi.ControlChangeEvent(tick=10, channel=14, data=[7, 89]),
   midi.ControlChangeEvent(tick=5, channel=14, data=[7, 89]),
   midi.ControlChangeEvent(tick=10, channel=14, data=[7, 88]),
   midi.ControlChangeEvent(tick=10, channel=14, data=[7, 87]),
   midi.ControlChangeEvent(tick=15, channel=14, data=[7, 87]),
   midi.ControlChangeEvent(tick=10, channel=14, data=[7, 86]),
   midi.ControlChangeEvent(tick=5, channel=14, data=[7, 85]),
   midi.ControlChangeEvent(tick=5, channel=14, data=[7, 84]),
   midi.ControlChangeEvent(tick=10, channel=14, data=[7, 84]),
   midi.ControlChangeEvent(tick=10, channel=14, data=[7, 83]),
   midi.ControlChangeEvent(tick=10, channel=14, data=[7, 83]),
   midi.NoteOnEvent(tick=5, channel=14, data=[44, 0]),
   midi.ControlChangeEvent(tick=10, channel=14, data=[7, 83]),
   midi.NoteOnEvent(tick=5, channel=14, data=[38, 86]),
   midi.ControlChangeEvent(tick=5, channel=14, data=[7, 83]),
   midi.ControlChangeEvent(tick=5, channel=14, data=[7, 83]),
   midi.ControlChangeEvent(tick=45, channel=14, data=[7, 81]),
   midi.NoteOnEvent(tick=5, channel=14, data=[38, 0]),
   midi.NoteOnEvent(tick=0, channel=14, data=[43, 86]),
   midi.ControlChangeEvent(tick=45, channel=14, data=[7, 81]),
   midi.ControlChangeEvent(tick=10, channel=14, data=[7, 81]),
   midi.ControlChangeEvent(tick=35, channel=14, data=[7, 81]),
   midi.ControlChangeEvent(tick=40, channel=14, data=[7, 81]),
   midi.ControlChangeEvent(tick=10, channel=14, data=[7, 81]),
   midi.NoteOnEvent(tick=35, channel=14, data=[43, 0]),
   midi.ControlChangeEvent(tick=210, channel=14, data=[7, 81]),
   midi.NoteOnEvent(tick=95, channel=14, data=[40, 86]),
   midi.NoteOnEvent(tick=120, channel=14, data=[40, 0]),
   midi.NoteOnEvent(tick=0, channel=14, data=[41, 86]),
   midi.NoteOnEvent(tick=85, channel=14, data=[41, 0]),
   midi.ControlChangeEvent(tick=0, channel=14, data=[7, 83]),
   midi.ControlChangeEvent(tick=195, channel=14, data=[7, 83]),
   midi.ControlChangeEvent(tick=30, channel=14, data=[7, 83]),
   midi.ControlChangeEvent(tick=40, channel=14, data=[7, 83]),
   midi.NoteOnEvent(tick=10, channel=14, data=[42, 86]),
   midi.ControlChangeEvent(tick=15, channel=14, data=[7, 83]),
   midi.ControlChangeEvent(tick=20, channel=14, data=[7, 84]),
   midi.ControlChangeEvent(tick=15, channel=14, data=[7, 85]),
   midi.ControlChangeEvent(tick=15, channel=14, data=[7, 86]),
   midi.ControlChangeEvent(tick=15, channel=14, data=[7, 87]),
   midi.ControlChangeEvent(tick=15, channel=14, data=[7, 87]),
   midi.ControlChangeEvent(tick=15, channel=14, data=[7, 87]),
   midi.NoteOnEvent(tick=10, channel=14, data=[42, 0]),
   midi.NoteOnEvent(tick=0, channel=14, data=[43, 86]),
   midi.ControlChangeEvent(tick=5, channel=14, data=[7, 88]),
   midi.ControlChangeEvent(tick=20, channel=14, data=[7, 89]),
   midi.NoteOnEvent(tick=60, channel=14, data=[43, 0]),
   midi.ControlChangeEvent(tick=180, channel=14, data=[7, 89]),
   midi.ControlChangeEvent(tick=30, channel=14, data=[7, 90]),
   midi.ControlChangeEvent(tick=10, channel=14, data=[7, 90]),
   midi.ControlChangeEvent(tick=15, channel=14, data=[7, 90]),
   midi.ControlChangeEvent(tick=15, channel=14, data=[7, 92]),
   midi.ControlChangeEvent(tick=20, channel=14, data=[7, 92]),
   midi.NoteOnEvent(tick=5, channel=14, data=[47, 86]),
   midi.ControlChangeEvent(tick=5, channel=14, data=[7, 93]),
   midi.ControlChangeEvent(tick=10, channel=14, data=[7, 94]),
   midi.ControlChangeEvent(tick=10, channel=14, data=[7, 94]),
   midi.ControlChangeEvent(tick=10, channel=14, data=[7, 94]),
   midi.ControlChangeEvent(tick=15, channel=14, data=[7, 96]),
   midi.ControlChangeEvent(tick=15, channel=14, data=[7, 96]),
   midi.ControlChangeEvent(tick=5, channel=14, data=[7, 96]),
   midi.ControlChangeEvent(tick=20, channel=14, data=[7, 96]),
   midi.ControlChangeEvent(tick=5, channel=14, data=[7, 96]),
   midi.NoteOnEvent(tick=25, channel=14, data=[47, 0]),
   midi.NoteOnEvent(tick=0, channel=14, data=[48, 86]),
   midi.ControlChangeEvent(tick=80, channel=14, data=[7, 96]),
   midi.NoteOnEvent(tick=5, channel=14, data=[48, 0]),
   midi.ControlChangeEvent(tick=5, channel=14, data=[7, 96]),
   midi.ControlChangeEvent(tick=10, channel=14, data=[7, 96]),
   midi.ControlChangeEvent(tick=10, channel=14, data=[7, 96]),
   midi.ControlChangeEvent(tick=5, channel=14, data=[7, 94]),
   midi.NoteOnEvent(tick=5, channel=14, data=[50, 86]),
   midi.ControlChangeEvent(tick=5, channel=14, data=[7, 94]),
   midi.ControlChangeEvent(tick=10, channel=14, data=[7, 93]),
   midi.ControlChangeEvent(tick=5, channel=14, data=[7, 92]),
   midi.ControlChangeEvent(tick=10, channel=14, data=[7, 90]),
   midi.ControlChangeEvent(tick=5, channel=14, data=[7, 90]),
   midi.ControlChangeEvent(tick=10, channel=14, data=[7, 89]),
   midi.ControlChangeEvent(tick=15, channel=14, data=[7, 89]),
   midi.ControlChangeEvent(tick=5, channel=14, data=[7, 88]),
   midi.ControlChangeEvent(tick=15, channel=14, data=[7, 87]),
   midi.ControlChangeEvent(tick=25, channel=14, data=[7, 87]),
   midi.ControlChangeEvent(tick=20, channel=14, data=[7, 87]),
   midi.ControlChangeEvent(tick=5, channel=14, data=[7, 86]),
   midi.ControlChangeEvent(tick=5, channel=14, data=[7, 85]),
   midi.ControlChangeEvent(tick=10, channel=14, data=[7, 84]),
   midi.ControlChangeEvent(tick=25, channel=14, data=[7, 83]),
   midi.ControlChangeEvent(tick=15, channel=14, data=[7, 83]),
   midi.ControlChangeEvent(tick=10, channel=14, data=[7, 83]),
   midi.ControlChangeEvent(tick=10, channel=14, data=[7, 83]),
   midi.ControlChangeEvent(tick=25, channel=14, data=[7, 83]),
   midi.NoteOnEvent(tick=10, channel=14, data=[50, 0]),
   midi.NoteOnEvent(tick=0, channel=14, data=[43, 86]),
   midi.ControlChangeEvent(tick=20, channel=14, data=[7, 81]),
   midi.ControlChangeEvent(tick=10, channel=14, data=[7, 81]),
   midi.ControlChangeEvent(tick=20, channel=14, data=[7, 81]),
   midi.ControlChangeEvent(tick=25, channel=14, data=[7, 81]),
   midi.ControlChangeEvent(tick=45, channel=14, data=[7, 81]),
   midi.ControlChangeEvent(tick=60, channel=14, data=[7, 80]),
   midi.ControlChangeEvent(tick=10, channel=14, data=[7, 79]),
   midi.ControlChangeEvent(tick=15, channel=14, data=[7, 79]),
   midi.ControlChangeEvent(tick=15, channel=14, data=[7, 78]),
   midi.NoteOnEvent(tick=10, channel=14, data=[43, 0]),
   midi.NoteOnEvent(tick=10, channel=14, data=[40, 99]),
   midi.NoteOnEvent(tick=40, channel=14, data=[40, 0]),
   midi.NoteOnEvent(tick=80, channel=14, data=[41, 99]),
   midi.NoteOnEvent(tick=40, channel=14, data=[41, 0]),
   midi.ControlChangeEvent(tick=210, channel=14, data=[7, 79]),
   midi.ControlChangeEvent(tick=15, channel=14, data=[7, 79]),
   midi.ControlChangeEvent(tick=20, channel=14, data=[7, 80]),
   midi.ControlChangeEvent(tick=15, channel=14, data=[7, 81]),
   midi.ControlChangeEvent(tick=35, channel=14, data=[7, 81]),
   midi.NoteOnEvent(tick=25, channel=14, data=[42, 99]),
   midi.ControlChangeEvent(tick=30, channel=14, data=[7, 81]),
   midi.NoteOnEvent(tick=10, channel=14, data=[42, 0]),
   midi.ControlChangeEvent(tick=25, channel=14, data=[7, 81]),
   midi.ControlChangeEvent(tick=15, channel=14, data=[7, 81]),
   midi.NoteOnEvent(tick=40, channel=14, data=[43, 99]),
   midi.ControlChangeEvent(tick=0, channel=14, data=[7, 83]),
   midi.ControlChangeEvent(tick=10, channel=14, data=[7, 83]),
   midi.ControlChangeEvent(tick=10, channel=14, data=[7, 83]),
   midi.ControlChangeEvent(tick=10, channel=14, data=[7, 83]),
   midi.NoteOnEvent(tick=10, channel=14, data=[43, 0]),
   midi.ControlChangeEvent(tick=5, channel=14, data=[7, 83]),
   midi.ControlChangeEvent(tick=15, channel=14, data=[7, 84]),
   midi.ControlChangeEvent(tick=25, channel=14, data=[7, 85]),
   midi.ControlChangeEvent(tick=195, channel=14, data=[7, 86]),
   midi.ControlChangeEvent(tick=45, channel=14, data=[7, 87]),
   midi.ControlChangeEvent(tick=25, channel=14, data=[7, 87]),
   midi.NoteOnEvent(tick=10, channel=14, data=[44, 99]),
   midi.ControlChangeEvent(tick=10, channel=14, data=[7, 87]),
   midi.ControlChangeEvent(tick=15, channel=14, data=[7, 89]),
   midi.NoteOnEvent(tick=15, channel=14, data=[44, 0]),
   midi.ControlChangeEvent(tick=0, channel=14, data=[7, 89]),
   midi.ControlChangeEvent(tick=20, channel=14, data=[7, 90]),
   midi.ControlChangeEvent(tick=40, channel=14, data=[7, 90]),
   midi.NoteOnEvent(tick=20, channel=14, data=[45, 99]),
   midi.ControlChangeEvent(tick=10, channel=14, data=[7, 90]),
   midi.ControlChangeEvent(tick=25, channel=14, data=[7, 92]),
   midi.NoteOnEvent(tick=5, channel=14, data=[45, 0]),
   midi.ControlChangeEvent(tick=30, channel=14, data=[7, 92]),
   midi.NoteOnEvent(tick=50, channel=14, data=[47, 99]),
   midi.NoteOnEvent(tick=40, channel=14, data=[47, 0]),
   midi.ControlChangeEvent(tick=35, channel=14, data=[7, 93]),
   midi.ControlChangeEvent(tick=25, channel=14, data=[7, 94]),
   midi.NoteOnEvent(tick=20, channel=14, data=[48, 99]),
   midi.ControlChangeEvent(tick=25, channel=14, data=[7, 94]),
   midi.ControlChangeEvent(tick=10, channel=14, data=[7, 94]),
   midi.NoteOnEvent(tick=5, channel=14, data=[48, 0]),
   midi.ControlChangeEvent(tick=15, channel=14, data=[7, 94]),
   midi.ControlChangeEvent(tick=25, channel=14, data=[7, 96]),
   midi.ControlChangeEvent(tick=15, channel=14, data=[7, 96]),
   midi.ControlChangeEvent(tick=15, channel=14, data=[7, 96]),
   midi.ControlChangeEvent(tick=10, channel=14, data=[7, 94]),
   midi.NoteOnEvent(tick=0, channel=14, data=[50, 96]),
   midi.NoteOnEvent(tick=40, channel=14, data=[50, 0]),
   midi.ControlChangeEvent(tick=75, channel=14, data=[7, 94]),
   midi.ControlChangeEvent(tick=75, channel=14, data=[7, 94]),
   midi.ControlChangeEvent(tick=35, channel=14, data=[7, 94]),
   midi.NoteOnEvent(tick=15, channel=14, data=[43, 82]),
   midi.ControlChangeEvent(tick=5, channel=14, data=[7, 93]),
   midi.ControlChangeEvent(tick=125, channel=14, data=[7, 92]),
   midi.ControlChangeEvent(tick=15, channel=14, data=[7, 92]),
   midi.ControlChangeEvent(tick=10, channel=14, data=[7, 90]),
   midi.ControlChangeEvent(tick=10, channel=14, data=[7, 90]),
   midi.ControlChangeEvent(tick=10, channel=14, data=[7, 90]),
   midi.ControlChangeEvent(tick=10, channel=14, data=[7, 89]),
   midi.ControlChangeEvent(tick=25, channel=14, data=[7, 89]),
   midi.ControlChangeEvent(tick=15, channel=14, data=[7, 88]),
   midi.ControlChangeEvent(tick=65, channel=14, data=[7, 87]),
   midi.ControlChangeEvent(tick=25, channel=14, data=[7, 87]),
   midi.ControlChangeEvent(tick=30, channel=14, data=[7, 87]),
   midi.ControlChangeEvent(tick=55, channel=14, data=[7, 86]),
   midi.ControlChangeEvent(tick=30, channel=14, data=[7, 87]),
   midi.ControlChangeEvent(tick=10, channel=14, data=[7, 87]),
   midi.ControlChangeEvent(tick=15, channel=14, data=[7, 87]),
   midi.NoteOnEvent(tick=15, channel=14, data=[43, 0]),
   midi.ControlChangeEvent(tick=5, channel=14, data=[7, 88]),
   midi.NoteOnEvent(tick=5, channel=14, data=[45, 90]),
   midi.ControlChangeEvent(tick=10, channel=14, data=[7, 89]),
   midi.ControlChangeEvent(tick=15, channel=14, data=[7, 89]),
   midi.ControlChangeEvent(tick=15, channel=14, data=[7, 90]),
   midi.ControlChangeEvent(tick=30, channel=14, data=[7, 90]),
   midi.ControlChangeEvent(tick=150, channel=14, data=[7, 90]),
   midi.ControlChangeEvent(tick=35, channel=14, data=[7, 92]),
   midi.ControlChangeEvent(tick=10, channel=14, data=[7, 92]),
   midi.ControlChangeEvent(tick=20, channel=14, data=[7, 93]),
   midi.ControlChangeEvent(tick=20, channel=14, data=[7, 94]),
   midi.ControlChangeEvent(tick=20, channel=14, data=[7, 94]),
   midi.ControlChangeEvent(tick=25, channel=14, data=[7, 94]),
   midi.ControlChangeEvent(tick=15, channel=14, data=[7, 94]),
   midi.ControlChangeEvent(tick=20, channel=14, data=[7, 96]),
   midi.ControlChangeEvent(tick=25, channel=14, data=[7, 96]),
   midi.ControlChangeEvent(tick=25, channel=14, data=[7, 96]),
   midi.ControlChangeEvent(tick=20, channel=14, data=[7, 96]),
   midi.NoteOnEvent(tick=15, channel=14, data=[45, 0]),
   midi.NoteOnEvent(tick=10, channel=14, data=[47, 97]),
   midi.ControlChangeEvent(tick=0, channel=14, data=[7, 96]),
   midi.ControlChangeEvent(tick=20, channel=14, data=[7, 98]),
   midi.ControlChangeEvent(tick=35, channel=14, data=[7, 98]),
   midi.ControlChangeEvent(tick=30, channel=14, data=[7, 99]),
   midi.ControlChangeEvent(tick=20, channel=14, data=[7, 99]),
   midi.ControlChangeEvent(tick=10, channel=14, data=[7, 100]),
   midi.ControlChangeEvent(tick=20, channel=14, data=[7, 101]),
   midi.ControlChangeEvent(tick=30, channel=14, data=[7, 101]),
   midi.ControlChangeEvent(tick=15, channel=14, data=[7, 101]),
   midi.ControlChangeEvent(tick=15, channel=14, data=[7, 101]),
   midi.ControlChangeEvent(tick=15, channel=14, data=[7, 101]),
   midi.ControlChangeEvent(tick=15, channel=14, data=[7, 102]),
   midi.NoteOnEvent(tick=5, channel=14, data=[47, 0]),
   midi.NoteOnEvent(tick=10, channel=14, data=[50, 117]),
   midi.ControlChangeEvent(tick=0, channel=14, data=[7, 102]),
   midi.ControlChangeEvent(tick=15, channel=14, data=[7, 104]),
   midi.ControlChangeEvent(tick=10, channel=14, data=[7, 108]),
   midi.NoteOnEvent(tick=15, channel=14, data=[50, 0]),
   midi.ControlChangeEvent(tick=0, channel=14, data=[7, 109]),
   midi.ControlChangeEvent(tick=1580, channel=14, data=[7, 109]),
   midi.ControlChangeEvent(tick=15, channel=14, data=[7, 110]),
   midi.ControlChangeEvent(tick=10, channel=14, data=[7, 111]),
   midi.ControlChangeEvent(tick=10, channel=14, data=[7, 114]),
   midi.NoteOnEvent(tick=1225, channel=14, data=[48, 127]),
   midi.NoteOnEvent(tick=240, channel=14, data=[48, 0]),
   midi.NoteOnEvent(tick=0, channel=14, data=[48, 127]),
   midi.NoteOnEvent(tick=240, channel=14, data=[48, 0]),
   midi.NoteOnEvent(tick=0, channel=14, data=[48, 127]),
   midi.NoteOnEvent(tick=40, channel=14, data=[48, 0]),
   midi.NoteOnEvent(tick=80, channel=14, data=[48, 127]),
   midi.NoteOnEvent(tick=40, channel=14, data=[48, 0]),
   midi.NoteOnEvent(tick=80, channel=14, data=[48, 127]),
   midi.NoteOnEvent(tick=40, channel=14, data=[48, 0]),
   midi.NoteOnEvent(tick=80, channel=14, data=[48, 127]),
   midi.NoteOnEvent(tick=40, channel=14, data=[48, 0]),
   midi.NoteOnEvent(tick=80, channel=14, data=[60, 127]),
   midi.NoteOnEvent(tick=75, channel=14, data=[60, 0]),
   midi.NoteOnEvent(tick=45, channel=14, data=[62, 127]),
   midi.ControlChangeEvent(tick=20, channel=14, data=[7, 112]),
   midi.ControlChangeEvent(tick=20, channel=14, data=[7, 112]),
   midi.NoteOnEvent(tick=15, channel=14, data=[62, 0]),
   midi.NoteOnEvent(tick=35, channel=14, data=[64, 127]),
   midi.ControlChangeEvent(tick=15, channel=14, data=[7, 112]),
   midi.NoteOnEvent(tick=15, channel=14, data=[62, 127]),
   midi.ControlChangeEvent(tick=5, channel=14, data=[7, 114]),
   midi.NoteOnEvent(tick=5, channel=14, data=[64, 0]),
   midi.NoteOnEvent(tick=30, channel=14, data=[62, 0]),
   midi.NoteOnEvent(tick=20, channel=14, data=[60, 127]),
   midi.NoteOnEvent(tick=40, channel=14, data=[60, 0]),
   midi.NoteOnEvent(tick=20, channel=14, data=[59, 127]),
   midi.NoteOnEvent(tick=40, channel=14, data=[59, 0]),
   midi.NoteOnEvent(tick=20, channel=14, data=[60, 127]),
   midi.NoteOnEvent(tick=40, channel=14, data=[60, 0]),
   midi.NoteOnEvent(tick=20, channel=14, data=[59, 127]),
   midi.NoteOnEvent(tick=40, channel=14, data=[59, 0]),
   midi.NoteOnEvent(tick=20, channel=14, data=[57, 127]),
   midi.NoteOnEvent(tick=40, channel=14, data=[57, 0]),
   midi.NoteOnEvent(tick=20, channel=14, data=[56, 127]),
   midi.NoteOnEvent(tick=40, channel=14, data=[56, 0]),
   midi.NoteOnEvent(tick=20, channel=14, data=[57, 127]),
   midi.NoteOnEvent(tick=40, channel=14, data=[57, 0]),
   midi.NoteOnEvent(tick=20, channel=14, data=[55, 127]),
   midi.NoteOnEvent(tick=40, channel=14, data=[55, 0]),
   midi.NoteOnEvent(tick=20, channel=14, data=[53, 127]),
   midi.NoteOnEvent(tick=40, channel=14, data=[53, 0]),
   midi.NoteOnEvent(tick=20, channel=14, data=[52, 127]),
   midi.NoteOnEvent(tick=40, channel=14, data=[52, 0]),
   midi.NoteOnEvent(tick=20, channel=14, data=[53, 127]),
   midi.NoteOnEvent(tick=40, channel=14, data=[53, 0]),
   midi.NoteOnEvent(tick=20, channel=14, data=[50, 127]),
   midi.NoteOnEvent(tick=240, channel=14, data=[50, 0]),
   midi.NoteOnEvent(tick=0, channel=14, data=[50, 127]),
   midi.NoteOnEvent(tick=240, channel=14, data=[50, 0]),
   midi.NoteOnEvent(tick=0, channel=14, data=[50, 127]),
   midi.NoteOnEvent(tick=40, channel=14, data=[50, 0]),
   midi.NoteOnEvent(tick=80, channel=14, data=[50, 127]),
   midi.NoteOnEvent(tick=40, channel=14, data=[50, 0]),
   midi.ControlChangeEvent(tick=20, channel=14, data=[7, 112]),
   midi.ControlChangeEvent(tick=20, channel=14, data=[7, 112]),
   midi.ControlChangeEvent(tick=20, channel=14, data=[7, 112]),
   midi.NoteOnEvent(tick=20, channel=14, data=[50, 127]),
   midi.NoteOnEvent(tick=40, channel=14, data=[50, 0]),
   midi.ControlChangeEvent(tick=25, channel=14, data=[7, 111]),
   midi.ControlChangeEvent(tick=35, channel=14, data=[7, 110]),
   midi.NoteOnEvent(tick=20, channel=14, data=[50, 127]),
   midi.ControlChangeEvent(tick=10, channel=14, data=[7, 110]),
   midi.NoteOnEvent(tick=30, channel=14, data=[50, 0]),
   midi.ControlChangeEvent(tick=10, channel=14, data=[7, 109]),
   midi.ControlChangeEvent(tick=20, channel=14, data=[7, 110]),
   midi.ControlChangeEvent(tick=15, channel=14, data=[7, 114]),
   midi.NoteOnEvent(tick=35, channel=14, data=[62, 127]),
   midi.NoteOnEvent(tick=75, channel=14, data=[62, 0]),
   midi.NoteOnEvent(tick=45, channel=14, data=[64, 127]),
   midi.NoteOnEvent(tick=55, channel=14, data=[64, 0]),
   midi.NoteOnEvent(tick=35, channel=14, data=[65, 127]),
   midi.NoteOnEvent(tick=30, channel=14, data=[64, 127]),
   midi.NoteOnEvent(tick=10, channel=14, data=[65, 0]),
   midi.NoteOnEvent(tick=30, channel=14, data=[64, 0]),
   midi.NoteOnEvent(tick=20, channel=14, data=[62, 127]),
   midi.NoteOnEvent(tick=40, channel=14, data=[62, 0]),
   midi.NoteOnEvent(tick=20, channel=14, data=[61, 127]),
   midi.NoteOnEvent(tick=40, channel=14, data=[61, 0]),
   midi.NoteOnEvent(tick=20, channel=14, data=[62, 127]),
   midi.NoteOnEvent(tick=40, channel=14, data=[62, 0]),
   midi.NoteOnEvent(tick=20, channel=14, data=[60, 127]),
   midi.NoteOnEvent(tick=40, channel=14, data=[60, 0]),
   midi.NoteOnEvent(tick=20, channel=14, data=[59, 127]),
   midi.NoteOnEvent(tick=40, channel=14, data=[59, 0]),
   midi.NoteOnEvent(tick=20, channel=14, data=[58, 127]),
   midi.NoteOnEvent(tick=40, channel=14, data=[58, 0]),
   midi.NoteOnEvent(tick=20, channel=14, data=[59, 127]),
   midi.NoteOnEvent(tick=40, channel=14, data=[59, 0]),
   midi.NoteOnEvent(tick=20, channel=14, data=[57, 127]),
   midi.NoteOnEvent(tick=40, channel=14, data=[57, 0]),
   midi.NoteOnEvent(tick=20, channel=14, data=[55, 127]),
   midi.NoteOnEvent(tick=40, channel=14, data=[55, 0]),
   midi.NoteOnEvent(tick=20, channel=14, data=[54, 127]),
   midi.NoteOnEvent(tick=40, channel=14, data=[54, 0]),
   midi.NoteOnEvent(tick=20, channel=14, data=[55, 127]),
   midi.NoteOnEvent(tick=40, channel=14, data=[55, 0]),
   midi.NoteOnEvent(tick=20, channel=14, data=[54, 127]),
   midi.NoteOnEvent(tick=40, channel=14, data=[54, 0]),
   midi.NoteOnEvent(tick=20, channel=14, data=[52, 127]),
   midi.NoteOnEvent(tick=40, channel=14, data=[52, 0]),
   midi.NoteOnEvent(tick=20, channel=14, data=[51, 127]),
   midi.NoteOnEvent(tick=40, channel=14, data=[51, 0]),
   midi.NoteOnEvent(tick=20, channel=14, data=[52, 127]),
   midi.NoteOnEvent(tick=40, channel=14, data=[52, 0]),
   midi.NoteOnEvent(tick=20, channel=14, data=[50, 127]),
   midi.NoteOnEvent(tick=40, channel=14, data=[50, 0]),
   midi.NoteOnEvent(tick=20, channel=14, data=[48, 127]),
   midi.NoteOnEvent(tick=40, channel=14, data=[48, 0]),
   midi.NoteOnEvent(tick=20, channel=14, data=[47, 127]),
   midi.NoteOnEvent(tick=40, channel=14, data=[47, 0]),
   midi.NoteOnEvent(tick=20, channel=14, data=[48, 127]),
   midi.NoteOnEvent(tick=40, channel=14, data=[48, 0]),
   midi.NoteOnEvent(tick=20, channel=14, data=[47, 127]),
   midi.NoteOnEvent(tick=40, channel=14, data=[47, 0]),
   midi.NoteOnEvent(tick=20, channel=14, data=[45, 127]),
   midi.NoteOnEvent(tick=40, channel=14, data=[45, 0]),
   midi.NoteOnEvent(tick=20, channel=14, data=[44, 127]),
   midi.NoteOnEvent(tick=40, channel=14, data=[44, 0]),
   midi.NoteOnEvent(tick=20, channel=14, data=[45, 127]),
   midi.NoteOnEvent(tick=40, channel=14, data=[45, 0]),
   midi.NoteOnEvent(tick=20, channel=14, data=[43, 127]),
   midi.NoteOnEvent(tick=40, channel=14, data=[43, 0]),
   midi.NoteOnEvent(tick=20, channel=14, data=[41, 127]),
   midi.NoteOnEvent(tick=40, channel=14, data=[41, 0]),
   midi.NoteOnEvent(tick=20, channel=14, data=[40, 127]),
   midi.NoteOnEvent(tick=40, channel=14, data=[40, 0]),
   midi.NoteOnEvent(tick=20, channel=14, data=[41, 127]),
   midi.NoteOnEvent(tick=40, channel=14, data=[41, 0]),
   midi.NoteOnEvent(tick=260, channel=14, data=[45, 125]),
   midi.NoteOnEvent(tick=40, channel=14, data=[45, 0]),
   midi.NoteOnEvent(tick=440, channel=14, data=[45, 125]),
   midi.NoteOnEvent(tick=40, channel=14, data=[45, 0]),
   midi.NoteOnEvent(tick=320, channel=14, data=[45, 125]),
   midi.NoteOnEvent(tick=40, channel=14, data=[45, 0]),
   midi.NoteOnEvent(tick=200, channel=14, data=[45, 125]),
   midi.NoteOnEvent(tick=40, channel=14, data=[45, 0]),
   midi.NoteOnEvent(tick=200, channel=14, data=[45, 125]),
   midi.NoteOnEvent(tick=40, channel=14, data=[45, 0]),
   midi.NoteOnEvent(tick=200, channel=14, data=[45, 125]),
   midi.NoteOnEvent(tick=40, channel=14, data=[45, 0]),
   midi.ControlChangeEvent(tick=1425, channel=14, data=[64, 0]),
   midi.ControlChangeEvent(tick=0, channel=14, data=[120, 0]),
   midi.ControlChangeEvent(tick=0, channel=14, data=[7, 119]),
   midi.ProgramChangeEvent(tick=0, channel=14, data=[48]),
   midi.ControlChangeEvent(tick=0, channel=14, data=[11, 127]),
   midi.ControlChangeEvent(tick=0, channel=14, data=[10, 72]),
   midi.ControlChangeEvent(tick=0, channel=14, data=[64, 0]),
   midi.ControlChangeEvent(tick=0, channel=14, data=[91, 100]),
   midi.EndOfTrackEvent(tick=0, data=[])])])
