midi.Pattern(format=1, resolution=120, tracks=\
[midi.Track(\
  [midi.PortEvent(tick=0, data=[0]),
   midi.SysexEvent(tick=0, channel=0, data=[5, 126, 127, 9, 1]),
   midi.PortEvent(tick=0, data=[0]),
   midi.TimeSignatureEvent(tick=0, data=[2, 1, 48, 8]),
   midi.KeySignatureEvent(tick=0, data=[0, 0]),
   midi.SetTempoEvent(tick=0, data=[5, 51, 173]),
   midi.EndOfTrackEvent(tick=0, data=[])]),
 midi.Track(\
  [midi.PortEvent(tick=0, data=[0]),
   midi.TrackNameEvent(tick=0, text='Henry Purcell', data=[72, 101, 110, 114, 121, 32, 80, 117, 114, 99, 101, 108, 108]),
   midi.ProgramChangeEvent(tick=0, channel=1, data=[73]),
   midi.ControlChangeEvent(tick=0, channel=1, data=[10, 95]),
   midi.NoteOnEvent(tick=420, channel=1, data=[72, 88]),
   midi.NoteOnEvent(tick=58, channel=1, data=[72, 0]),
   midi.NoteOnEvent(tick=1, channel=1, data=[72, 102]),
   midi.NoteOnEvent(tick=357, channel=1, data=[72, 0]),
   midi.NoteOnEvent(tick=2, channel=1, data=[72, 93]),
   midi.NoteOnEvent(tick=59, channel=1, data=[72, 0]),
   midi.NoteOnEvent(tick=5, channel=1, data=[74, 95]),
   midi.NoteOnEvent(tick=57, channel=1, data=[76, 102]),
   midi.NoteOnEvent(tick=3, channel=1, data=[74, 0]),
   midi.NoteOnEvent(tick=116, channel=1, data=[77, 92]),
   midi.NoteOnEvent(tick=1, channel=1, data=[76, 0]),
   midi.NoteOnEvent(tick=118, channel=1, data=[77, 0]),
   midi.NoteOnEvent(tick=1, channel=1, data=[74, 100]),
   midi.NoteOnEvent(tick=179, channel=1, data=[74, 0]),
   midi.NoteOnEvent(tick=4, channel=1, data=[72, 89]),
   midi.NoteOnEvent(tick=56, channel=1, data=[72, 0]),
   midi.NoteOnEvent(tick=1, channel=1, data=[79, 100]),
   midi.NoteOnEvent(tick=295, channel=1, data=[79, 0]),
   midi.NoteOnEvent(tick=8, channel=1, data=[81, 95]),
   midi.NoteOnEvent(tick=59, channel=1, data=[81, 0]),
   midi.NoteOnEvent(tick=2, channel=1, data=[79, 92]),
   midi.NoteOnEvent(tick=57, channel=1, data=[79, 0]),
   midi.NoteOnEvent(tick=0, channel=1, data=[77, 92]),
   midi.NoteOnEvent(tick=56, channel=1, data=[77, 0]),
   midi.NoteOnEvent(tick=6, channel=1, data=[76, 104]),
   midi.NoteOnEvent(tick=57, channel=1, data=[74, 90]),
   midi.NoteOnEvent(tick=2, channel=1, data=[76, 0]),
   midi.NoteOnEvent(tick=52, channel=1, data=[74, 0]),
   midi.NoteOnEvent(tick=10, channel=1, data=[72, 89]),
   midi.NoteOnEvent(tick=55, channel=1, data=[72, 0]),
   midi.NoteOnEvent(tick=2, channel=1, data=[71, 91]),
   midi.NoteOnEvent(tick=55, channel=1, data=[71, 0]),
   midi.NoteOnEvent(tick=7, channel=1, data=[69, 98]),
   midi.NoteOnEvent(tick=114, channel=1, data=[69, 0]),
   midi.NoteOnEvent(tick=3, channel=1, data=[74, 92]),
   midi.NoteOnEvent(tick=115, channel=1, data=[74, 0]),
   midi.NoteOnEvent(tick=9, channel=1, data=[71, 101]),
   midi.NoteOnEvent(tick=176, channel=1, data=[69, 88]),
   midi.NoteOnEvent(tick=4, channel=1, data=[71, 0]),
   midi.NoteOnEvent(tick=55, channel=1, data=[69, 0]),
   midi.NoteOnEvent(tick=5, channel=1, data=[67, 98]),
   midi.NoteOnEvent(tick=178, channel=1, data=[67, 0]),
   midi.NoteOnEvent(tick=1, channel=1, data=[67, 91]),
   midi.NoteOnEvent(tick=57, channel=1, data=[69, 104]),
   midi.NoteOnEvent(tick=1, channel=1, data=[67, 0]),
   midi.NoteOnEvent(tick=118, channel=1, data=[69, 0]),
   midi.NoteOnEvent(tick=3, channel=1, data=[64, 95]),
   midi.NoteOnEvent(tick=59, channel=1, data=[64, 0]),
   midi.NoteOnEvent(tick=3, channel=1, data=[65, 94]),
   midi.NoteOnEvent(tick=56, channel=1, data=[65, 0]),
   midi.NoteOnEvent(tick=2, channel=1, data=[65, 95]),
   midi.NoteOnEvent(tick=175, channel=1, data=[65, 0]),
   midi.NoteOnEvent(tick=4, channel=1, data=[64, 88]),
   midi.NoteOnEvent(tick=56, channel=1, data=[64, 0]),
   midi.NoteOnEvent(tick=3, channel=1, data=[62, 101]),
   midi.NoteOnEvent(tick=174, channel=1, data=[62, 0]),
   midi.NoteOnEvent(tick=8, channel=1, data=[74, 94]),
   midi.NoteOnEvent(tick=55, channel=1, data=[74, 0]),
   midi.NoteOnEvent(tick=5, channel=1, data=[76, 97]),
   midi.NoteOnEvent(tick=119, channel=1, data=[76, 0]),
   midi.NoteOnEvent(tick=3, channel=1, data=[71, 95]),
   midi.NoteOnEvent(tick=54, channel=1, data=[71, 0]),
   midi.NoteOnEvent(tick=6, channel=1, data=[72, 94]),
   midi.NoteOnEvent(tick=55, channel=1, data=[72, 0]),
   midi.NoteOnEvent(tick=3, channel=1, data=[72, 103]),
   midi.NoteOnEvent(tick=175, channel=1, data=[72, 0]),
   midi.NoteOnEvent(tick=5, channel=1, data=[71, 96]),
   midi.NoteOnEvent(tick=59, channel=1, data=[71, 0]),
   midi.NoteOnEvent(tick=3, channel=1, data=[69, 93]),
   midi.NoteOnEvent(tick=115, channel=1, data=[69, 0]),
   midi.NoteOnEvent(tick=1, channel=1, data=[77, 96]),
   midi.NoteOnEvent(tick=57, channel=1, data=[77, 0]),
   midi.NoteOnEvent(tick=3, channel=1, data=[76, 90]),
   midi.NoteOnEvent(tick=58, channel=1, data=[76, 0]),
   midi.NoteOnEvent(tick=2, channel=1, data=[74, 100]),
   midi.NoteOnEvent(tick=54, channel=1, data=[74, 0]),
   midi.NoteOnEvent(tick=9, channel=1, data=[67, 90]),
   midi.NoteOnEvent(tick=55, channel=1, data=[67, 0]),
   midi.NoteOnEvent(tick=3, channel=1, data=[69, 95]),
   midi.NoteOnEvent(tick=60, channel=1, data=[69, 0]),
   midi.NoteOnEvent(tick=2, channel=1, data=[71, 96]),
   midi.NoteOnEvent(tick=55, channel=1, data=[71, 0]),
   midi.NoteOnEvent(tick=6, channel=1, data=[72, 100]),
   midi.NoteOnEvent(tick=58, channel=1, data=[74, 95]),
   midi.NoteOnEvent(tick=1, channel=1, data=[72, 0]),
   midi.NoteOnEvent(tick=53, channel=1, data=[74, 0]),
   midi.NoteOnEvent(tick=6, channel=1, data=[76, 93]),
   midi.NoteOnEvent(tick=59, channel=1, data=[76, 0]),
   midi.NoteOnEvent(tick=2, channel=1, data=[77, 91]),
   midi.NoteOnEvent(tick=57, channel=1, data=[79, 104]),
   midi.NoteOnEvent(tick=1, channel=1, data=[77, 0]),
   midi.NoteOnEvent(tick=115, channel=1, data=[79, 0]),
   midi.NoteOnEvent(tick=5, channel=1, data=[81, 89]),
   midi.NoteOnEvent(tick=27, channel=1, data=[81, 0]),
   midi.NoteOnEvent(tick=2, channel=1, data=[76, 93]),
   midi.NoteOnEvent(tick=84, channel=1, data=[76, 0]),
   midi.NoteOnEvent(tick=9, channel=1, data=[78, 99]),
   midi.NoteOnEvent(tick=176, channel=1, data=[78, 0]),
   midi.NoteOnEvent(tick=5, channel=1, data=[76, 92]),
   midi.NoteOnEvent(tick=24, channel=1, data=[76, 0]),
   midi.NoteOnEvent(tick=3, channel=1, data=[78, 89]),
   midi.NoteOnEvent(tick=30, channel=1, data=[78, 0]),
   midi.NoteOnEvent(tick=1, channel=1, data=[79, 99]),
   midi.NoteOnEvent(tick=476, channel=1, data=[79, 0]),
   midi.NoteOnEvent(tick=6, channel=1, data=[79, 104]),
   midi.NoteOnEvent(tick=418, channel=1, data=[79, 0]),
   midi.NoteOnEvent(tick=2, channel=1, data=[79, 95]),
   midi.NoteOnEvent(tick=56, channel=1, data=[79, 0]),
   midi.NoteOnEvent(tick=0, channel=1, data=[72, 100]),
   midi.NoteOnEvent(tick=354, channel=1, data=[72, 0]),
   midi.NoteOnEvent(tick=8, channel=1, data=[72, 95]),
   midi.NoteOnEvent(tick=55, channel=1, data=[72, 0]),
   midi.NoteOnEvent(tick=5, channel=1, data=[74, 94]),
   midi.NoteOnEvent(tick=54, channel=1, data=[74, 0]),
   midi.NoteOnEvent(tick=6, channel=1, data=[76, 100]),
   midi.NoteOnEvent(tick=118, channel=1, data=[76, 0]),
   midi.NoteOnEvent(tick=3, channel=1, data=[77, 89]),
   midi.NoteOnEvent(tick=116, channel=1, data=[77, 0]),
   midi.NoteOnEvent(tick=3, channel=1, data=[74, 94]),
   midi.NoteOnEvent(tick=180, channel=1, data=[74, 0]),
   midi.NoteOnEvent(tick=1, channel=1, data=[72, 90]),
   midi.NoteOnEvent(tick=57, channel=1, data=[79, 102]),
   midi.NoteOnEvent(tick=3, channel=1, data=[72, 0]),
   midi.NoteOnEvent(tick=295, channel=1, data=[79, 0]),
   midi.NoteOnEvent(tick=3, channel=1, data=[81, 95]),
   midi.NoteOnEvent(tick=60, channel=1, data=[81, 0]),
   midi.NoteOnEvent(tick=2, channel=1, data=[79, 93]),
   midi.NoteOnEvent(tick=55, channel=1, data=[79, 0]),
   midi.NoteOnEvent(tick=3, channel=1, data=[77, 89]),
   midi.NoteOnEvent(tick=54, channel=1, data=[77, 0]),
   midi.NoteOnEvent(tick=6, channel=1, data=[76, 102]),
   midi.NoteOnEvent(tick=57, channel=1, data=[76, 0]),
   midi.NoteOnEvent(tick=5, channel=1, data=[74, 89]),
   midi.NoteOnEvent(tick=56, channel=1, data=[74, 0]),
   midi.NoteOnEvent(tick=3, channel=1, data=[72, 93]),
   midi.NoteOnEvent(tick=56, channel=1, data=[72, 0]),
   midi.NoteOnEvent(tick=3, channel=1, data=[71, 89]),
   midi.NoteOnEvent(tick=54, channel=1, data=[71, 0]),
   midi.NoteOnEvent(tick=9, channel=1, data=[69, 93]),
   midi.NoteOnEvent(tick=114, channel=1, data=[69, 0]),
   midi.NoteOnEvent(tick=4, channel=1, data=[74, 92]),
   midi.NoteOnEvent(tick=117, channel=1, data=[74, 0]),
   midi.NoteOnEvent(tick=1, channel=1, data=[71, 103]),
   midi.NoteOnEvent(tick=177, channel=1, data=[71, 0]),
   midi.NoteOnEvent(tick=5, channel=1, data=[69, 88]),
   midi.NoteOnEvent(tick=55, channel=1, data=[69, 0]),
   midi.NoteOnEvent(tick=4, channel=1, data=[67, 98]),
   midi.NoteOnEvent(tick=176, channel=1, data=[67, 0]),
   midi.NoteOnEvent(tick=3, channel=1, data=[67, 93]),
   midi.NoteOnEvent(tick=59, channel=1, data=[67, 0]),
   midi.NoteOnEvent(tick=3, channel=1, data=[69, 97]),
   midi.NoteOnEvent(tick=119, channel=1, data=[69, 0]),
   midi.NoteOnEvent(tick=3, channel=1, data=[64, 93]),
   midi.NoteOnEvent(tick=57, channel=1, data=[65, 91]),
   midi.NoteOnEvent(tick=1, channel=1, data=[64, 0]),
   midi.NoteOnEvent(tick=55, channel=1, data=[65, 0]),
   midi.NoteOnEvent(tick=5, channel=1, data=[65, 95]),
   midi.NoteOnEvent(tick=175, channel=1, data=[65, 0]),
   midi.NoteOnEvent(tick=7, channel=1, data=[64, 95]),
   midi.NoteOnEvent(tick=57, channel=1, data=[64, 0]),
   midi.NoteOnEvent(tick=3, channel=1, data=[62, 100]),
   midi.NoteOnEvent(tick=176, channel=1, data=[74, 94]),
   midi.NoteOnEvent(tick=2, channel=1, data=[62, 0]),
   midi.NoteOnEvent(tick=58, channel=1, data=[74, 0]),
   midi.NoteOnEvent(tick=0, channel=1, data=[76, 98]),
   midi.NoteOnEvent(tick=114, channel=1, data=[76, 0]),
   midi.NoteOnEvent(tick=8, channel=1, data=[71, 93]),
   midi.NoteOnEvent(tick=55, channel=1, data=[71, 0]),
   midi.NoteOnEvent(tick=3, channel=1, data=[72, 95]),
   midi.NoteOnEvent(tick=58, channel=1, data=[72, 0]),
   midi.NoteOnEvent(tick=5, channel=1, data=[72, 103]),
   midi.NoteOnEvent(tick=174, channel=1, data=[72, 0]),
   midi.NoteOnEvent(tick=7, channel=1, data=[71, 93]),
   midi.NoteOnEvent(tick=57, channel=1, data=[71, 0]),
   midi.NoteOnEvent(tick=0, channel=1, data=[69, 93]),
   midi.NoteOnEvent(tick=119, channel=1, data=[69, 0]),
   midi.NoteOnEvent(tick=1, channel=1, data=[77, 88]),
   midi.NoteOnEvent(tick=54, channel=1, data=[77, 0]),
   midi.NoteOnEvent(tick=6, channel=1, data=[76, 94]),
   midi.NoteOnEvent(tick=58, channel=1, data=[76, 0]),
   midi.NoteOnEvent(tick=1, channel=1, data=[74, 104]),
   midi.NoteOnEvent(tick=56, channel=1, data=[74, 0]),
   midi.NoteOnEvent(tick=7, channel=1, data=[67, 95]),
   midi.NoteOnEvent(tick=57, channel=1, data=[67, 0]),
   midi.NoteOnEvent(tick=2, channel=1, data=[69, 88]),
   midi.NoteOnEvent(tick=59, channel=1, data=[71, 89]),
   midi.NoteOnEvent(tick=1, channel=1, data=[69, 0]),
   midi.NoteOnEvent(tick=57, channel=1, data=[71, 0]),
   midi.NoteOnEvent(tick=4, channel=1, data=[72, 98]),
   midi.NoteOnEvent(tick=54, channel=1, data=[72, 0]),
   midi.NoteOnEvent(tick=7, channel=1, data=[74, 88]),
   midi.NoteOnEvent(tick=59, channel=1, data=[74, 0]),
   midi.NoteOnEvent(tick=1, channel=1, data=[76, 95]),
   midi.NoteOnEvent(tick=59, channel=1, data=[76, 0]),
   midi.NoteOnEvent(tick=0, channel=1, data=[77, 94]),
   midi.NoteOnEvent(tick=54, channel=1, data=[77, 0]),
   midi.NoteOnEvent(tick=5, channel=1, data=[79, 97]),
   midi.NoteOnEvent(tick=118, channel=1, data=[79, 0]),
   midi.NoteOnEvent(tick=2, channel=1, data=[81, 90]),
   midi.NoteOnEvent(tick=24, channel=1, data=[81, 0]),
   midi.NoteOnEvent(tick=7, channel=1, data=[76, 95]),
   midi.NoteOnEvent(tick=87, channel=1, data=[78, 93]),
   midi.NoteOnEvent(tick=2, channel=1, data=[76, 0]),
   midi.NoteOnEvent(tick=176, channel=1, data=[78, 0]),
   midi.NoteOnEvent(tick=3, channel=1, data=[76, 89]),
   midi.NoteOnEvent(tick=26, channel=1, data=[76, 0]),
   midi.NoteOnEvent(tick=6, channel=1, data=[78, 95]),
   midi.NoteOnEvent(tick=28, channel=1, data=[78, 0]),
   midi.NoteOnEvent(tick=3, channel=1, data=[79, 99]),
   midi.NoteOnEvent(tick=476, channel=1, data=[79, 0]),
   midi.NoteOnEvent(tick=2, channel=1, data=[79, 99]),
   midi.NoteOnEvent(tick=419, channel=1, data=[79, 0]),
   midi.NoteOnEvent(tick=2, channel=1, data=[79, 95]),
   midi.NoteOnEvent(tick=54, channel=1, data=[79, 0]),
   midi.NoteOnEvent(tick=7, channel=1, data=[79, 96]),
   midi.NoteOnEvent(tick=114, channel=1, data=[79, 0]),
   midi.NoteOnEvent(tick=3, channel=1, data=[77, 90]),
   midi.NoteOnEvent(tick=55, channel=1, data=[77, 0]),
   midi.NoteOnEvent(tick=7, channel=1, data=[76, 94]),
   midi.NoteOnEvent(tick=58, channel=1, data=[74, 92]),
   midi.NoteOnEvent(tick=2, channel=1, data=[76, 0]),
   midi.NoteOnEvent(tick=56, channel=1, data=[74, 0]),
   midi.NoteOnEvent(tick=1, channel=1, data=[76, 95]),
   midi.NoteOnEvent(tick=56, channel=1, data=[76, 0]),
   midi.NoteOnEvent(tick=8, channel=1, data=[77, 92]),
   midi.NoteOnEvent(tick=54, channel=1, data=[77, 0]),
   midi.NoteOnEvent(tick=3, channel=1, data=[74, 94]),
   midi.NoteOnEvent(tick=59, channel=1, data=[74, 0]),
   midi.NoteOnEvent(tick=3, channel=1, data=[76, 98]),
   midi.NoteOnEvent(tick=355, channel=1, data=[76, 0]),
   midi.NoteOnEvent(tick=2, channel=1, data=[76, 92]),
   midi.NoteOnEvent(tick=116, channel=1, data=[76, 0]),
   midi.NoteOnEvent(tick=7, channel=1, data=[76, 103]),
   midi.NoteOnEvent(tick=60, channel=1, data=[76, 0]),
   midi.NoteOnEvent(tick=1, channel=1, data=[74, 90]),
   midi.NoteOnEvent(tick=60, channel=1, data=[74, 0]),
   midi.NoteOnEvent(tick=0, channel=1, data=[77, 91]),
   midi.NoteOnEvent(tick=59, channel=1, data=[77, 0]),
   midi.NoteOnEvent(tick=0, channel=1, data=[76, 89]),
   midi.NoteOnEvent(tick=57, channel=1, data=[76, 0]),
   midi.NoteOnEvent(tick=0, channel=1, data=[74, 98]),
   midi.NoteOnEvent(tick=56, channel=1, data=[74, 0]),
   midi.NoteOnEvent(tick=6, channel=1, data=[72, 93]),
   midi.NoteOnEvent(tick=59, channel=1, data=[72, 0]),
   midi.NoteOnEvent(tick=2, channel=1, data=[74, 90]),
   midi.NoteOnEvent(tick=58, channel=1, data=[74, 0]),
   midi.NoteOnEvent(tick=3, channel=1, data=[71, 95]),
   midi.NoteOnEvent(tick=56, channel=1, data=[71, 0]),
   midi.NoteOnEvent(tick=4, channel=1, data=[72, 102]),
   midi.NoteOnEvent(tick=57, channel=1, data=[76, 95]),
   midi.NoteOnEvent(tick=3, channel=1, data=[72, 0]),
   midi.NoteOnEvent(tick=51, channel=1, data=[76, 0]),
   midi.NoteOnEvent(tick=8, channel=1, data=[74, 88]),
   midi.NoteOnEvent(tick=56, channel=1, data=[74, 0]),
   midi.NoteOnEvent(tick=4, channel=1, data=[72, 94]),
   midi.NoteOnEvent(tick=60, channel=1, data=[72, 0]),
   midi.NoteOnEvent(tick=0, channel=1, data=[71, 95]),
   midi.NoteOnEvent(tick=180, channel=1, data=[71, 0]),
   midi.NoteOnEvent(tick=0, channel=1, data=[69, 90]),
   midi.NoteOnEvent(tick=55, channel=1, data=[69, 0]),
   midi.NoteOnEvent(tick=2, channel=1, data=[69, 100]),
   midi.NoteOnEvent(tick=296, channel=1, data=[69, 0]),
   midi.NoteOnEvent(tick=8, channel=1, data=[71, 94]),
   midi.NoteOnEvent(tick=58, channel=1, data=[71, 0]),
   midi.NoteOnEvent(tick=2, channel=1, data=[72, 94]),
   midi.NoteOnEvent(tick=59, channel=1, data=[72, 0]),
   midi.NoteOnEvent(tick=1, channel=1, data=[69, 93]),
   midi.NoteOnEvent(tick=56, channel=1, data=[74, 99]),
   midi.NoteOnEvent(tick=2, channel=1, data=[69, 0]),
   midi.NoteOnEvent(tick=293, channel=1, data=[74, 0]),
   midi.NoteOnEvent(tick=6, channel=1, data=[76, 91]),
   midi.NoteOnEvent(tick=56, channel=1, data=[76, 0]),
   midi.NoteOnEvent(tick=3, channel=1, data=[77, 96]),
   midi.NoteOnEvent(tick=58, channel=1, data=[77, 0]),
   midi.NoteOnEvent(tick=3, channel=1, data=[74, 89]),
   midi.NoteOnEvent(tick=56, channel=1, data=[74, 0]),
   midi.NoteOnEvent(tick=7, channel=1, data=[76, 99]),
   midi.NoteOnEvent(tick=354, channel=1, data=[76, 0]),
   midi.NoteOnEvent(tick=3, channel=1, data=[77, 91]),
   midi.NoteOnEvent(tick=118, channel=1, data=[77, 0]),
   midi.NoteOnEvent(tick=5, channel=1, data=[79, 98]),
   midi.NoteOnEvent(tick=118, channel=1, data=[79, 0]),
   midi.NoteOnEvent(tick=2, channel=1, data=[79, 94]),
   midi.NoteOnEvent(tick=56, channel=1, data=[79, 0]),
   midi.NoteOnEvent(tick=3, channel=1, data=[77, 96]),
   midi.NoteOnEvent(tick=57, channel=1, data=[79, 93]),
   midi.NoteOnEvent(tick=1, channel=1, data=[77, 0]),
   midi.NoteOnEvent(tick=118, channel=1, data=[79, 0]),
   midi.NoteOnEvent(tick=2, channel=1, data=[67, 95]),
   midi.NoteOnEvent(tick=118, channel=1, data=[67, 0]),
   midi.NoteOnEvent(tick=1, channel=1, data=[69, 102]),
   midi.NoteOnEvent(tick=119, channel=1, data=[69, 0]),
   midi.NoteOnEvent(tick=1, channel=1, data=[77, 91]),
   midi.NoteOnEvent(tick=60, channel=1, data=[77, 0]),
   midi.NoteOnEvent(tick=3, channel=1, data=[76, 91]),
   midi.NoteOnEvent(tick=59, channel=1, data=[77, 94]),
   midi.NoteOnEvent(tick=1, channel=1, data=[76, 0]),
   midi.NoteOnEvent(tick=119, channel=1, data=[77, 0]),
   midi.NoteOnEvent(tick=0, channel=1, data=[69, 93]),
   midi.NoteOnEvent(tick=117, channel=1, data=[69, 0]),
   midi.NoteOnEvent(tick=3, channel=1, data=[71, 100]),
   midi.NoteOnEvent(tick=55, channel=1, data=[71, 0]),
   midi.NoteOnEvent(tick=6, channel=1, data=[74, 92]),
   midi.NoteOnEvent(tick=54, channel=1, data=[74, 0]),
   midi.NoteOnEvent(tick=6, channel=1, data=[72, 96]),
   midi.NoteOnEvent(tick=58, channel=1, data=[74, 96]),
   midi.NoteOnEvent(tick=1, channel=1, data=[72, 0]),
   midi.NoteOnEvent(tick=57, channel=1, data=[74, 0]),
   midi.NoteOnEvent(tick=4, channel=1, data=[74, 98]),
   midi.NoteOnEvent(tick=180, channel=1, data=[74, 0]),
   midi.NoteOnEvent(tick=1, channel=1, data=[72, 93]),
   midi.NoteOnEvent(tick=55, channel=1, data=[72, 0]),
   midi.NoteOnEvent(tick=2, channel=1, data=[72, 104]),
   midi.NoteOnEvent(tick=474, channel=1, data=[72, 0]),
   midi.NoteOnEvent(tick=7, channel=1, data=[72, 104]),
   midi.NoteOnEvent(tick=418, channel=1, data=[79, 92]),
   midi.NoteOnEvent(tick=2, channel=1, data=[72, 0]),
   midi.NoteOnEvent(tick=52, channel=1, data=[79, 0]),
   midi.NoteOnEvent(tick=8, channel=1, data=[79, 103]),
   midi.NoteOnEvent(tick=118, channel=1, data=[79, 0]),
   midi.NoteOnEvent(tick=3, channel=1, data=[77, 90]),
   midi.NoteOnEvent(tick=54, channel=1, data=[77, 0]),
   midi.NoteOnEvent(tick=6, channel=1, data=[76, 91]),
   midi.NoteOnEvent(tick=56, channel=1, data=[76, 0]),
   midi.NoteOnEvent(tick=2, channel=1, data=[74, 92]),
   midi.NoteOnEvent(tick=56, channel=1, data=[74, 0]),
   midi.NoteOnEvent(tick=6, channel=1, data=[76, 93]),
   midi.NoteOnEvent(tick=56, channel=1, data=[76, 0]),
   midi.NoteOnEvent(tick=2, channel=1, data=[77, 88]),
   midi.NoteOnEvent(tick=60, channel=1, data=[77, 0]),
   midi.NoteOnEvent(tick=1, channel=1, data=[74, 96]),
   midi.NoteOnEvent(tick=55, channel=1, data=[74, 0]),
   midi.NoteOnEvent(tick=6, channel=1, data=[76, 98]),
   midi.NoteOnEvent(tick=356, channel=1, data=[76, 0]),
   midi.NoteOnEvent(tick=5, channel=1, data=[76, 91]),
   midi.NoteOnEvent(tick=115, channel=1, data=[76, 0]),
   midi.NoteOnEvent(tick=2, channel=1, data=[76, 97]),
   midi.NoteOnEvent(tick=59, channel=1, data=[76, 0]),
   midi.NoteOnEvent(tick=4, channel=1, data=[74, 88]),
   midi.NoteOnEvent(tick=58, channel=1, data=[74, 0]),
   midi.NoteOnEvent(tick=0, channel=1, data=[77, 92]),
   midi.NoteOnEvent(tick=60, channel=1, data=[77, 0]),
   midi.NoteOnEvent(tick=1, channel=1, data=[76, 89]),
   midi.NoteOnEvent(tick=58, channel=1, data=[76, 0]),
   midi.NoteOnEvent(tick=1, channel=1, data=[74, 92]),
   midi.NoteOnEvent(tick=58, channel=1, data=[72, 88]),
   midi.NoteOnEvent(tick=1, channel=1, data=[74, 0]),
   midi.NoteOnEvent(tick=56, channel=1, data=[72, 0]),
   midi.NoteOnEvent(tick=6, channel=1, data=[74, 93]),
   midi.NoteOnEvent(tick=56, channel=1, data=[74, 0]),
   midi.NoteOnEvent(tick=2, channel=1, data=[71, 93]),
   midi.NoteOnEvent(tick=59, channel=1, data=[71, 0]),
   midi.NoteOnEvent(tick=3, channel=1, data=[72, 103]),
   midi.NoteOnEvent(tick=57, channel=1, data=[76, 94]),
   midi.NoteOnEvent(tick=2, channel=1, data=[72, 0]),
   midi.NoteOnEvent(tick=58, channel=1, data=[76, 0]),
   midi.NoteOnEvent(tick=1, channel=1, data=[74, 89]),
   midi.NoteOnEvent(tick=56, channel=1, data=[74, 0]),
   midi.NoteOnEvent(tick=6, channel=1, data=[72, 89]),
   midi.NoteOnEvent(tick=54, channel=1, data=[72, 0]),
   midi.NoteOnEvent(tick=5, channel=1, data=[71, 96]),
   midi.NoteOnEvent(tick=175, channel=1, data=[71, 0]),
   midi.NoteOnEvent(tick=5, channel=1, data=[69, 88]),
   midi.NoteOnEvent(tick=56, channel=1, data=[69, 0]),
   midi.NoteOnEvent(tick=5, channel=1, data=[69, 101]),
   midi.NoteOnEvent(tick=296, channel=1, data=[69, 0]),
   midi.NoteOnEvent(tick=1, channel=1, data=[71, 89]),
   midi.NoteOnEvent(tick=54, channel=1, data=[71, 0]),
   midi.NoteOnEvent(tick=10, channel=1, data=[72, 90]),
   midi.NoteOnEvent(tick=55, channel=1, data=[72, 0]),
   midi.NoteOnEvent(tick=5, channel=1, data=[69, 88]),
   midi.NoteOnEvent(tick=59, channel=1, data=[74, 100]),
   midi.NoteOnEvent(tick=1, channel=1, data=[69, 0]),
   midi.NoteOnEvent(tick=295, channel=1, data=[74, 0]),
   midi.NoteOnEvent(tick=3, channel=1, data=[76, 96]),
   midi.NoteOnEvent(tick=59, channel=1, data=[76, 0]),
   midi.NoteOnEvent(tick=0, channel=1, data=[77, 91]),
   midi.NoteOnEvent(tick=56, channel=1, data=[77, 0]),
   midi.NoteOnEvent(tick=5, channel=1, data=[74, 96]),
   midi.NoteOnEvent(tick=54, channel=1, data=[74, 0]),
   midi.NoteOnEvent(tick=4, channel=1, data=[76, 103]),
   midi.NoteOnEvent(tick=360, channel=1, data=[76, 0]),
   midi.NoteOnEvent(tick=2, channel=1, data=[77, 88]),
   midi.NoteOnEvent(tick=118, channel=1, data=[77, 0]),
   midi.NoteOnEvent(tick=0, channel=1, data=[79, 102]),
   midi.NoteOnEvent(tick=115, channel=1, data=[79, 0]),
   midi.NoteOnEvent(tick=6, channel=1, data=[79, 88]),
   midi.NoteOnEvent(tick=60, channel=1, data=[79, 0]),
   midi.NoteOnEvent(tick=0, channel=1, data=[77, 89]),
   midi.NoteOnEvent(tick=55, channel=1, data=[77, 0]),
   midi.NoteOnEvent(tick=8, channel=1, data=[79, 96]),
   midi.NoteOnEvent(tick=116, channel=1, data=[67, 88]),
   midi.NoteOnEvent(tick=1, channel=1, data=[79, 0]),
   midi.NoteOnEvent(tick=116, channel=1, data=[67, 0]),
   midi.NoteOnEvent(tick=7, channel=1, data=[69, 103]),
   midi.NoteOnEvent(tick=115, channel=1, data=[69, 0]),
   midi.NoteOnEvent(tick=1, channel=1, data=[77, 88]),
   midi.NoteOnEvent(tick=55, channel=1, data=[77, 0]),
   midi.NoteOnEvent(tick=8, channel=1, data=[76, 90]),
   midi.NoteOnEvent(tick=59, channel=1, data=[76, 0]),
   midi.NoteOnEvent(tick=2, channel=1, data=[77, 99]),
   midi.NoteOnEvent(tick=114, channel=1, data=[77, 0]),
   midi.NoteOnEvent(tick=4, channel=1, data=[69, 95]),
   midi.NoteOnEvent(tick=120, channel=1, data=[69, 0]),
   midi.NoteOnEvent(tick=0, channel=1, data=[71, 98]),
   midi.NoteOnEvent(tick=59, channel=1, data=[71, 0]),
   midi.NoteOnEvent(tick=3, channel=1, data=[74, 90]),
   midi.NoteOnEvent(tick=54, channel=1, data=[74, 0]),
   midi.NoteOnEvent(tick=6, channel=1, data=[72, 92]),
   midi.NoteOnEvent(tick=58, channel=1, data=[72, 0]),
   midi.NoteOnEvent(tick=2, channel=1, data=[74, 95]),
   midi.NoteOnEvent(tick=55, channel=1, data=[74, 0]),
   midi.NoteOnEvent(tick=2, channel=1, data=[74, 93]),
   midi.NoteOnEvent(tick=178, channel=1, data=[74, 0]),
   midi.NoteOnEvent(tick=5, channel=1, data=[72, 95]),
   midi.NoteOnEvent(tick=55, channel=1, data=[72, 0]),
   midi.NoteOnEvent(tick=5, channel=1, data=[72, 99]),
   midi.NoteOnEvent(tick=474, channel=1, data=[72, 0]),
   midi.NoteOnEvent(tick=2, channel=1, data=[72, 100]),
   midi.NoteOnEvent(tick=417, channel=1, data=[72, 0]),
   midi.EndOfTrackEvent(tick=0, data=[])]),
 midi.Track(\
  [midi.PortEvent(tick=0, data=[0]),
   midi.TrackNameEvent(tick=0, text='March in C major', data=[77, 97, 114, 99, 104, 32, 105, 110, 32, 67, 32, 109, 97, 106, 111, 114]),
   midi.ProgramChangeEvent(tick=0, channel=2, data=[24]),
   midi.ControlChangeEvent(tick=0, channel=2, data=[10, 32]),
   midi.NoteOnEvent(tick=478, channel=2, data=[72, 81]),
   midi.NoteOnEvent(tick=1, channel=2, data=[67, 81]),
   midi.NoteOnEvent(tick=2, channel=2, data=[60, 110]),
   midi.NoteOnEvent(tick=0, channel=2, data=[64, 80]),
   midi.NoteOnEvent(tick=120, channel=2, data=[60, 0]),
   midi.NoteOnEvent(tick=0, channel=2, data=[59, 101]),
   midi.NoteOnEvent(tick=59, channel=2, data=[57, 97]),
   midi.NoteOnEvent(tick=1, channel=2, data=[59, 0]),
   midi.NoteOnEvent(tick=56, channel=2, data=[57, 0]),
   midi.NoteOnEvent(tick=2, channel=2, data=[55, 107]),
   midi.NoteOnEvent(tick=60, channel=2, data=[55, 0]),
   midi.NoteOnEvent(tick=2, channel=2, data=[53, 104]),
   midi.NoteOnEvent(tick=55, channel=2, data=[53, 0]),
   midi.NoteOnEvent(tick=0, channel=2, data=[67, 0]),
   midi.NoteOnEvent(tick=4, channel=2, data=[52, 101]),
   midi.NoteOnEvent(tick=1, channel=2, data=[72, 0]),
   midi.NoteOnEvent(tick=1, channel=2, data=[64, 0]),
   midi.NoteOnEvent(tick=54, channel=2, data=[52, 0]),
   midi.NoteOnEvent(tick=4, channel=2, data=[50, 98]),
   midi.NoteOnEvent(tick=55, channel=2, data=[50, 0]),
   midi.NoteOnEvent(tick=4, channel=2, data=[48, 108]),
   midi.NoteOnEvent(tick=123, channel=2, data=[60, 101]),
   midi.NoteOnEvent(tick=112, channel=2, data=[48, 0]),
   midi.NoteOnEvent(tick=4, channel=2, data=[64, 102]),
   midi.NoteOnEvent(tick=234, channel=2, data=[64, 0]),
   midi.NoteOnEvent(tick=8, channel=2, data=[62, 109]),
   midi.NoteOnEvent(tick=240, channel=2, data=[59, 102]),
   midi.NoteOnEvent(tick=5, channel=2, data=[60, 0]),
   midi.NoteOnEvent(tick=233, channel=2, data=[59, 0]),
   midi.NoteOnEvent(tick=1, channel=2, data=[62, 0]),
   midi.NoteOnEvent(tick=4, channel=2, data=[60, 96]),
   midi.NoteOnEvent(tick=117, channel=2, data=[52, 98]),
   midi.NoteOnEvent(tick=117, channel=2, data=[52, 0]),
   midi.NoteOnEvent(tick=5, channel=2, data=[53, 101]),
   midi.NoteOnEvent(tick=3, channel=2, data=[60, 0]),
   midi.NoteOnEvent(tick=113, channel=2, data=[50, 103]),
   midi.NoteOnEvent(tick=118, channel=2, data=[50, 0]),
   midi.NoteOnEvent(tick=2, channel=2, data=[53, 0]),
   midi.NoteOnEvent(tick=3, channel=2, data=[55, 105]),
   midi.NoteOnEvent(tick=117, channel=2, data=[62, 97]),
   midi.NoteOnEvent(tick=120, channel=2, data=[62, 0]),
   midi.NoteOnEvent(tick=0, channel=2, data=[64, 101]),
   midi.NoteOnEvent(tick=1, channel=2, data=[55, 0]),
   midi.NoteOnEvent(tick=120, channel=2, data=[64, 0]),
   midi.NoteOnEvent(tick=1, channel=2, data=[59, 97]),
   midi.NoteOnEvent(tick=119, channel=2, data=[59, 0]),
   midi.NoteOnEvent(tick=3, channel=2, data=[60, 111]),
   midi.NoteOnEvent(tick=118, channel=2, data=[57, 101]),
   midi.NoteOnEvent(tick=117, channel=2, data=[57, 0]),
   midi.NoteOnEvent(tick=3, channel=2, data=[60, 0]),
   midi.NoteOnEvent(tick=1, channel=2, data=[62, 100]),
   midi.NoteOnEvent(tick=116, channel=2, data=[62, 0]),
   midi.NoteOnEvent(tick=5, channel=2, data=[60, 101]),
   midi.NoteOnEvent(tick=118, channel=2, data=[60, 0]),
   midi.NoteOnEvent(tick=2, channel=2, data=[59, 109]),
   midi.NoteOnEvent(tick=117, channel=2, data=[55, 101]),
   midi.NoteOnEvent(tick=116, channel=2, data=[55, 0]),
   midi.NoteOnEvent(tick=5, channel=2, data=[59, 0]),
   midi.NoteOnEvent(tick=1, channel=2, data=[60, 105]),
   midi.NoteOnEvent(tick=119, channel=2, data=[60, 0]),
   midi.NoteOnEvent(tick=0, channel=2, data=[55, 101]),
   midi.NoteOnEvent(tick=116, channel=2, data=[55, 0]),
   midi.NoteOnEvent(tick=6, channel=2, data=[57, 109]),
   midi.NoteOnEvent(tick=118, channel=2, data=[52, 103]),
   midi.NoteOnEvent(tick=1, channel=2, data=[57, 0]),
   midi.NoteOnEvent(tick=118, channel=2, data=[52, 0]),
   midi.NoteOnEvent(tick=2, channel=2, data=[53, 101]),
   midi.NoteOnEvent(tick=118, channel=2, data=[50, 99]),
   midi.NoteOnEvent(tick=114, channel=2, data=[50, 0]),
   midi.NoteOnEvent(tick=6, channel=2, data=[53, 0]),
   midi.NoteOnEvent(tick=1, channel=2, data=[55, 108]),
   midi.NoteOnEvent(tick=118, channel=2, data=[43, 99]),
   midi.NoteOnEvent(tick=238, channel=2, data=[43, 0]),
   midi.NoteOnEvent(tick=3, channel=2, data=[55, 0]),
   midi.NoteOnEvent(tick=1, channel=2, data=[53, 102]),
   midi.NoteOnEvent(tick=118, channel=2, data=[52, 112]),
   midi.NoteOnEvent(tick=2, channel=2, data=[53, 0]),
   midi.NoteOnEvent(tick=120, channel=2, data=[60, 101]),
   midi.NoteOnEvent(tick=114, channel=2, data=[60, 0]),
   midi.NoteOnEvent(tick=6, channel=2, data=[59, 101]),
   midi.NoteOnEvent(tick=0, channel=2, data=[50, 103]),
   midi.NoteOnEvent(tick=1, channel=2, data=[52, 0]),
   midi.NoteOnEvent(tick=118, channel=2, data=[59, 0]),
   midi.NoteOnEvent(tick=3, channel=2, data=[57, 102]),
   midi.NoteOnEvent(tick=116, channel=2, data=[55, 112]),
   midi.NoteOnEvent(tick=5, channel=2, data=[50, 0]),
   midi.NoteOnEvent(tick=3, channel=2, data=[57, 0]),
   midi.NoteOnEvent(tick=110, channel=2, data=[55, 0]),
   midi.NoteOnEvent(tick=6, channel=2, data=[54, 103]),
   midi.NoteOnEvent(tick=58, channel=2, data=[52, 98]),
   midi.NoteOnEvent(tick=1, channel=2, data=[54, 0]),
   midi.NoteOnEvent(tick=53, channel=2, data=[52, 0]),
   midi.NoteOnEvent(tick=5, channel=2, data=[50, 107]),
   midi.NoteOnEvent(tick=57, channel=2, data=[50, 0]),
   midi.NoteOnEvent(tick=2, channel=2, data=[48, 101]),
   midi.NoteOnEvent(tick=58, channel=2, data=[48, 0]),
   midi.NoteOnEvent(tick=3, channel=2, data=[47, 104]),
   midi.NoteOnEvent(tick=56, channel=2, data=[47, 0]),
   midi.NoteOnEvent(tick=5, channel=2, data=[45, 98]),
   midi.NoteOnEvent(tick=57, channel=2, data=[45, 0]),
   midi.NoteOnEvent(tick=2, channel=2, data=[43, 107]),
   midi.NoteOnEvent(tick=0, channel=2, data=[74, 106]),
   midi.NoteOnEvent(tick=3, channel=2, data=[71, 106]),
   midi.NoteOnEvent(tick=0, channel=2, data=[79, 104]),
   midi.NoteOnEvent(tick=117, channel=2, data=[50, 96]),
   midi.NoteOnEvent(tick=115, channel=2, data=[50, 0]),
   midi.NoteOnEvent(tick=8, channel=2, data=[55, 103]),
   midi.NoteOnEvent(tick=111, channel=2, data=[43, 0]),
   midi.NoteOnEvent(tick=6, channel=2, data=[43, 102]),
   midi.NoteOnEvent(tick=57, channel=2, data=[43, 0]),
   midi.NoteOnEvent(tick=0, channel=2, data=[55, 0]),
   midi.NoteOnEvent(tick=2, channel=2, data=[43, 101]),
   midi.NoteOnEvent(tick=1, channel=2, data=[74, 0]),
   midi.NoteOnEvent(tick=1, channel=2, data=[71, 0]),
   midi.NoteOnEvent(tick=3, channel=2, data=[79, 0]),
   midi.NoteOnEvent(tick=55, channel=2, data=[43, 0]),
   midi.NoteOnEvent(tick=0, channel=2, data=[60, 110]),
   midi.NoteOnEvent(tick=1, channel=2, data=[67, 111]),
   midi.NoteOnEvent(tick=2, channel=2, data=[72, 106]),
   midi.NoteOnEvent(tick=1, channel=2, data=[64, 105]),
   midi.NoteOnEvent(tick=115, channel=2, data=[60, 0]),
   midi.NoteOnEvent(tick=4, channel=2, data=[59, 98]),
   midi.NoteOnEvent(tick=56, channel=2, data=[59, 0]),
   midi.NoteOnEvent(tick=2, channel=2, data=[57, 100]),
   midi.NoteOnEvent(tick=59, channel=2, data=[57, 0]),
   midi.NoteOnEvent(tick=1, channel=2, data=[55, 103]),
   midi.NoteOnEvent(tick=55, channel=2, data=[55, 0]),
   midi.NoteOnEvent(tick=7, channel=2, data=[53, 102]),
   midi.NoteOnEvent(tick=52, channel=2, data=[67, 0]),
   midi.NoteOnEvent(tick=2, channel=2, data=[53, 0]),
   midi.NoteOnEvent(tick=4, channel=2, data=[52, 97]),
   midi.NoteOnEvent(tick=2, channel=2, data=[72, 0]),
   midi.NoteOnEvent(tick=1, channel=2, data=[64, 0]),
   midi.NoteOnEvent(tick=51, channel=2, data=[52, 0]),
   midi.NoteOnEvent(tick=8, channel=2, data=[50, 103]),
   midi.NoteOnEvent(tick=56, channel=2, data=[50, 0]),
   midi.NoteOnEvent(tick=5, channel=2, data=[48, 105]),
   midi.NoteOnEvent(tick=118, channel=2, data=[60, 100]),
   midi.NoteOnEvent(tick=117, channel=2, data=[48, 0]),
   midi.NoteOnEvent(tick=5, channel=2, data=[64, 105]),
   midi.NoteOnEvent(tick=239, channel=2, data=[64, 0]),
   midi.NoteOnEvent(tick=0, channel=2, data=[62, 109]),
   midi.NoteOnEvent(tick=241, channel=2, data=[60, 0]),
   midi.NoteOnEvent(tick=0, channel=2, data=[59, 101]),
   midi.NoteOnEvent(tick=237, channel=2, data=[60, 108]),
   midi.NoteOnEvent(tick=2, channel=2, data=[59, 0]),
   midi.NoteOnEvent(tick=0, channel=2, data=[62, 0]),
   midi.NoteOnEvent(tick=117, channel=2, data=[52, 99]),
   midi.NoteOnEvent(tick=114, channel=2, data=[52, 0]),
   midi.NoteOnEvent(tick=4, channel=2, data=[60, 0]),
   midi.NoteOnEvent(tick=3, channel=2, data=[53, 102]),
   midi.NoteOnEvent(tick=120, channel=2, data=[50, 102]),
   midi.NoteOnEvent(tick=115, channel=2, data=[50, 0]),
   midi.NoteOnEvent(tick=1, channel=2, data=[53, 0]),
   midi.NoteOnEvent(tick=6, channel=2, data=[55, 108]),
   midi.NoteOnEvent(tick=119, channel=2, data=[62, 103]),
   midi.NoteOnEvent(tick=115, channel=2, data=[62, 0]),
   midi.NoteOnEvent(tick=3, channel=2, data=[64, 102]),
   midi.NoteOnEvent(tick=3, channel=2, data=[55, 0]),
   midi.NoteOnEvent(tick=118, channel=2, data=[59, 103]),
   midi.NoteOnEvent(tick=1, channel=2, data=[64, 0]),
   midi.NoteOnEvent(tick=114, channel=2, data=[59, 0]),
   midi.NoteOnEvent(tick=4, channel=2, data=[60, 110]),
   midi.NoteOnEvent(tick=123, channel=2, data=[57, 100]),
   midi.NoteOnEvent(tick=115, channel=2, data=[60, 0]),
   midi.NoteOnEvent(tick=2, channel=2, data=[57, 0]),
   midi.NoteOnEvent(tick=0, channel=2, data=[62, 104]),
   midi.NoteOnEvent(tick=115, channel=2, data=[62, 0]),
   midi.NoteOnEvent(tick=9, channel=2, data=[60, 101]),
   midi.NoteOnEvent(tick=115, channel=2, data=[60, 0]),
   midi.NoteOnEvent(tick=2, channel=2, data=[59, 105]),
   midi.NoteOnEvent(tick=123, channel=2, data=[55, 98]),
   midi.NoteOnEvent(tick=114, channel=2, data=[59, 0]),
   midi.NoteOnEvent(tick=2, channel=2, data=[60, 106]),
   midi.NoteOnEvent(tick=4, channel=2, data=[55, 0]),
   midi.NoteOnEvent(tick=110, channel=2, data=[60, 0]),
   midi.NoteOnEvent(tick=10, channel=2, data=[55, 101]),
   midi.NoteOnEvent(tick=120, channel=2, data=[55, 0]),
   midi.NoteOnEvent(tick=0, channel=2, data=[57, 112]),
   midi.NoteOnEvent(tick=115, channel=2, data=[57, 0]),
   midi.NoteOnEvent(tick=2, channel=2, data=[52, 96]),
   midi.NoteOnEvent(tick=115, channel=2, data=[52, 0]),
   midi.NoteOnEvent(tick=5, channel=2, data=[53, 104]),
   midi.NoteOnEvent(tick=120, channel=2, data=[50, 99]),
   midi.NoteOnEvent(tick=115, channel=2, data=[50, 0]),
   midi.NoteOnEvent(tick=5, channel=2, data=[53, 0]),
   midi.NoteOnEvent(tick=0, channel=2, data=[55, 105]),
   midi.NoteOnEvent(tick=123, channel=2, data=[43, 98]),
   midi.NoteOnEvent(tick=235, channel=2, data=[55, 0]),
   midi.NoteOnEvent(tick=1, channel=2, data=[43, 0]),
   midi.NoteOnEvent(tick=4, channel=2, data=[53, 98]),
   midi.NoteOnEvent(tick=119, channel=2, data=[52, 112]),
   midi.NoteOnEvent(tick=1, channel=2, data=[53, 0]),
   midi.NoteOnEvent(tick=118, channel=2, data=[60, 97]),
   midi.NoteOnEvent(tick=114, channel=2, data=[60, 0]),
   midi.NoteOnEvent(tick=4, channel=2, data=[50, 106]),
   midi.NoteOnEvent(tick=3, channel=2, data=[52, 0]),
   midi.NoteOnEvent(tick=1, channel=2, data=[59, 103]),
   midi.NoteOnEvent(tick=120, channel=2, data=[59, 0]),
   midi.NoteOnEvent(tick=0, channel=2, data=[57, 97]),
   midi.NoteOnEvent(tick=114, channel=2, data=[50, 0]),
   midi.NoteOnEvent(tick=3, channel=2, data=[55, 111]),
   midi.NoteOnEvent(tick=6, channel=2, data=[57, 0]),
   midi.NoteOnEvent(tick=108, channel=2, data=[55, 0]),
   midi.NoteOnEvent(tick=9, channel=2, data=[54, 96]),
   midi.NoteOnEvent(tick=55, channel=2, data=[54, 0]),
   midi.NoteOnEvent(tick=2, channel=2, data=[52, 101]),
   midi.NoteOnEvent(tick=54, channel=2, data=[52, 0]),
   midi.NoteOnEvent(tick=8, channel=2, data=[50, 107]),
   midi.NoteOnEvent(tick=56, channel=2, data=[50, 0]),
   midi.NoteOnEvent(tick=1, channel=2, data=[48, 101]),
   midi.NoteOnEvent(tick=59, channel=2, data=[48, 0]),
   midi.NoteOnEvent(tick=2, channel=2, data=[47, 101]),
   midi.NoteOnEvent(tick=58, channel=2, data=[47, 0]),
   midi.NoteOnEvent(tick=2, channel=2, data=[45, 97]),
   midi.NoteOnEvent(tick=55, channel=2, data=[45, 0]),
   midi.NoteOnEvent(tick=5, channel=2, data=[79, 110]),
   midi.NoteOnEvent(tick=0, channel=2, data=[43, 111]),
   midi.NoteOnEvent(tick=3, channel=2, data=[74, 112]),
   midi.NoteOnEvent(tick=0, channel=2, data=[71, 109]),
   midi.NoteOnEvent(tick=117, channel=2, data=[50, 104]),
   midi.NoteOnEvent(tick=116, channel=2, data=[50, 0]),
   midi.NoteOnEvent(tick=6, channel=2, data=[55, 103]),
   midi.NoteOnEvent(tick=175, channel=2, data=[55, 0]),
   midi.NoteOnEvent(tick=6, channel=2, data=[71, 0]),
   midi.NoteOnEvent(tick=0, channel=2, data=[79, 0]),
   midi.NoteOnEvent(tick=1, channel=2, data=[74, 0]),
   midi.NoteOnEvent(tick=58, channel=2, data=[43, 0]),
   midi.NoteOnEvent(tick=1, channel=2, data=[59, 106]),
   midi.NoteOnEvent(tick=0, channel=2, data=[55, 110]),
   midi.NoteOnEvent(tick=477, channel=2, data=[55, 0]),
   midi.NoteOnEvent(tick=0, channel=2, data=[59, 0]),
   midi.NoteOnEvent(tick=0, channel=2, data=[60, 110]),
   midi.NoteOnEvent(tick=118, channel=2, data=[60, 0]),
   midi.NoteOnEvent(tick=1, channel=2, data=[59, 96]),
   midi.NoteOnEvent(tick=56, channel=2, data=[59, 0]),
   midi.NoteOnEvent(tick=6, channel=2, data=[57, 100]),
   midi.NoteOnEvent(tick=57, channel=2, data=[57, 0]),
   midi.NoteOnEvent(tick=4, channel=2, data=[56, 105]),
   midi.NoteOnEvent(tick=60, channel=2, data=[56, 0]),
   midi.NoteOnEvent(tick=1, channel=2, data=[57, 96]),
   midi.NoteOnEvent(tick=56, channel=2, data=[52, 99]),
   midi.NoteOnEvent(tick=4, channel=2, data=[57, 0]),
   midi.NoteOnEvent(tick=56, channel=2, data=[52, 0]),
   midi.NoteOnEvent(tick=3, channel=2, data=[54, 103]),
   midi.NoteOnEvent(tick=58, channel=2, data=[54, 0]),
   midi.NoteOnEvent(tick=0, channel=2, data=[56, 104]),
   midi.NoteOnEvent(tick=239, channel=2, data=[52, 105]),
   midi.NoteOnEvent(tick=239, channel=2, data=[52, 0]),
   midi.NoteOnEvent(tick=0, channel=2, data=[56, 0]),
   midi.NoteOnEvent(tick=2, channel=2, data=[57, 107]),
   midi.NoteOnEvent(tick=123, channel=2, data=[50, 97]),
   midi.NoteOnEvent(tick=119, channel=2, data=[50, 0]),
   midi.NoteOnEvent(tick=0, channel=2, data=[52, 107]),
   midi.NoteOnEvent(tick=112, channel=2, data=[57, 0]),
   midi.NoteOnEvent(tick=9, channel=2, data=[56, 96]),
   midi.NoteOnEvent(tick=114, channel=2, data=[52, 0]),
   midi.NoteOnEvent(tick=4, channel=2, data=[57, 106]),
   midi.NoteOnEvent(tick=1, channel=2, data=[56, 0]),
   midi.NoteOnEvent(tick=118, channel=2, data=[65, 102]),
   midi.NoteOnEvent(tick=59, channel=2, data=[65, 0]),
   midi.NoteOnEvent(tick=1, channel=2, data=[64, 96]),
   midi.NoteOnEvent(tick=60, channel=2, data=[64, 0]),
   midi.NoteOnEvent(tick=3, channel=2, data=[65, 108]),
   midi.NoteOnEvent(tick=116, channel=2, data=[57, 0]),
   midi.NoteOnEvent(tick=2, channel=2, data=[57, 102]),
   midi.NoteOnEvent(tick=119, channel=2, data=[59, 112]),
   midi.NoteOnEvent(tick=6, channel=2, data=[57, 0]),
   midi.NoteOnEvent(tick=0, channel=2, data=[65, 0]),
   midi.NoteOnEvent(tick=114, channel=2, data=[67, 102]),
   midi.NoteOnEvent(tick=59, channel=2, data=[67, 0]),
   midi.NoteOnEvent(tick=1, channel=2, data=[64, 103]),
   midi.NoteOnEvent(tick=60, channel=2, data=[64, 0]),
   midi.NoteOnEvent(tick=0, channel=2, data=[67, 104]),
   midi.NoteOnEvent(tick=119, channel=2, data=[59, 0]),
   midi.NoteOnEvent(tick=1, channel=2, data=[59, 101]),
   midi.NoteOnEvent(tick=112, channel=2, data=[59, 0]),
   midi.NoteOnEvent(tick=0, channel=2, data=[67, 0]),
   midi.NoteOnEvent(tick=7, channel=2, data=[60, 108]),
   midi.NoteOnEvent(tick=117, channel=2, data=[60, 0]),
   midi.NoteOnEvent(tick=6, channel=2, data=[62, 96]),
   midi.NoteOnEvent(tick=56, channel=2, data=[62, 0]),
   midi.NoteOnEvent(tick=2, channel=2, data=[60, 96]),
   midi.NoteOnEvent(tick=60, channel=2, data=[60, 0]),
   midi.NoteOnEvent(tick=3, channel=2, data=[59, 108]),
   midi.NoteOnEvent(tick=55, channel=2, data=[59, 0]),
   midi.NoteOnEvent(tick=1, channel=2, data=[57, 98]),
   midi.NoteOnEvent(tick=55, channel=2, data=[57, 0]),
   midi.NoteOnEvent(tick=5, channel=2, data=[55, 98]),
   midi.NoteOnEvent(tick=60, channel=2, data=[55, 0]),
   midi.NoteOnEvent(tick=4, channel=2, data=[53, 103]),
   midi.NoteOnEvent(tick=56, channel=2, data=[53, 0]),
   midi.NoteOnEvent(tick=1, channel=2, data=[55, 105]),
   midi.NoteOnEvent(tick=120, channel=2, data=[55, 0]),
   midi.NoteOnEvent(tick=1, channel=2, data=[52, 96]),
   midi.NoteOnEvent(tick=178, channel=2, data=[52, 0]),
   midi.NoteOnEvent(tick=3, channel=2, data=[53, 98]),
   midi.NoteOnEvent(tick=59, channel=2, data=[53, 0]),
   midi.NoteOnEvent(tick=0, channel=2, data=[55, 97]),
   midi.NoteOnEvent(tick=56, channel=2, data=[55, 0]),
   midi.NoteOnEvent(tick=3, channel=2, data=[52, 100]),
   midi.NoteOnEvent(tick=60, channel=2, data=[52, 0]),
   midi.NoteOnEvent(tick=2, channel=2, data=[53, 109]),
   midi.NoteOnEvent(tick=296, channel=2, data=[53, 0]),
   midi.NoteOnEvent(tick=5, channel=2, data=[55, 98]),
   midi.NoteOnEvent(tick=59, channel=2, data=[57, 96]),
   midi.NoteOnEvent(tick=1, channel=2, data=[55, 0]),
   midi.NoteOnEvent(tick=56, channel=2, data=[53, 97]),
   midi.NoteOnEvent(tick=3, channel=2, data=[57, 0]),
   midi.NoteOnEvent(tick=54, channel=2, data=[53, 0]),
   midi.NoteOnEvent(tick=5, channel=2, data=[55, 110]),
   midi.NoteOnEvent(tick=118, channel=2, data=[48, 101]),
   midi.NoteOnEvent(tick=117, channel=2, data=[55, 0]),
   midi.NoteOnEvent(tick=2, channel=2, data=[48, 0]),
   midi.NoteOnEvent(tick=3, channel=2, data=[43, 106]),
   midi.NoteOnEvent(tick=238, channel=2, data=[48, 111]),
   midi.NoteOnEvent(tick=2, channel=2, data=[43, 0]),
   midi.NoteOnEvent(tick=117, channel=2, data=[48, 0]),
   midi.NoteOnEvent(tick=3, channel=2, data=[47, 104]),
   midi.NoteOnEvent(tick=56, channel=2, data=[47, 0]),
   midi.NoteOnEvent(tick=4, channel=2, data=[45, 103]),
   midi.NoteOnEvent(tick=59, channel=2, data=[45, 0]),
   midi.NoteOnEvent(tick=0, channel=2, data=[43, 108]),
   midi.NoteOnEvent(tick=56, channel=2, data=[43, 0]),
   midi.NoteOnEvent(tick=7, channel=2, data=[41, 104]),
   midi.NoteOnEvent(tick=54, channel=2, data=[41, 0]),
   midi.NoteOnEvent(tick=5, channel=2, data=[40, 96]),
   midi.NoteOnEvent(tick=55, channel=2, data=[40, 0]),
   midi.NoteOnEvent(tick=6, channel=2, data=[38, 96]),
   midi.NoteOnEvent(tick=56, channel=2, data=[72, 107]),
   midi.NoteOnEvent(tick=0, channel=2, data=[64, 106]),
   midi.NoteOnEvent(tick=2, channel=2, data=[67, 112]),
   midi.NoteOnEvent(tick=1, channel=2, data=[38, 0]),
   midi.NoteOnEvent(tick=1, channel=2, data=[36, 107]),
   midi.NoteOnEvent(tick=116, channel=2, data=[43, 103]),
   midi.NoteOnEvent(tick=116, channel=2, data=[43, 0]),
   midi.NoteOnEvent(tick=7, channel=2, data=[48, 103]),
   midi.NoteOnEvent(tick=173, channel=2, data=[64, 0]),
   midi.NoteOnEvent(tick=1, channel=2, data=[67, 0]),
   midi.NoteOnEvent(tick=2, channel=2, data=[48, 0]),
   midi.NoteOnEvent(tick=0, channel=2, data=[72, 0]),
   midi.NoteOnEvent(tick=3, channel=2, data=[36, 0]),
   midi.NoteOnEvent(tick=58, channel=2, data=[59, 108]),
   midi.NoteOnEvent(tick=1, channel=2, data=[55, 111]),
   midi.NoteOnEvent(tick=474, channel=2, data=[55, 0]),
   midi.NoteOnEvent(tick=3, channel=2, data=[59, 0]),
   midi.NoteOnEvent(tick=5, channel=2, data=[60, 109]),
   midi.NoteOnEvent(tick=114, channel=2, data=[60, 0]),
   midi.NoteOnEvent(tick=3, channel=2, data=[59, 104]),
   midi.NoteOnEvent(tick=54, channel=2, data=[59, 0]),
   midi.NoteOnEvent(tick=9, channel=2, data=[57, 96]),
   midi.NoteOnEvent(tick=59, channel=2, data=[57, 0]),
   midi.NoteOnEvent(tick=2, channel=2, data=[56, 101]),
   midi.NoteOnEvent(tick=57, channel=2, data=[56, 0]),
   midi.NoteOnEvent(tick=0, channel=2, data=[57, 97]),
   midi.NoteOnEvent(tick=54, channel=2, data=[57, 0]),
   midi.NoteOnEvent(tick=9, channel=2, data=[52, 104]),
   midi.NoteOnEvent(tick=55, channel=2, data=[52, 0]),
   midi.NoteOnEvent(tick=4, channel=2, data=[54, 102]),
   midi.NoteOnEvent(tick=57, channel=2, data=[56, 109]),
   midi.NoteOnEvent(tick=3, channel=2, data=[54, 0]),
   midi.NoteOnEvent(tick=241, channel=2, data=[52, 101]),
   midi.NoteOnEvent(tick=231, channel=2, data=[56, 0]),
   midi.NoteOnEvent(tick=5, channel=2, data=[57, 108]),
   midi.NoteOnEvent(tick=3, channel=2, data=[52, 0]),
   midi.NoteOnEvent(tick=121, channel=2, data=[50, 97]),
   midi.NoteOnEvent(tick=116, channel=2, data=[52, 104]),
   midi.NoteOnEvent(tick=2, channel=2, data=[50, 0]),
   midi.NoteOnEvent(tick=118, channel=2, data=[57, 0]),
   midi.NoteOnEvent(tick=3, channel=2, data=[56, 99]),
   midi.NoteOnEvent(tick=111, channel=2, data=[52, 0]),
   midi.NoteOnEvent(tick=7, channel=2, data=[56, 0]),
   midi.NoteOnEvent(tick=0, channel=2, data=[57, 109]),
   midi.NoteOnEvent(tick=123, channel=2, data=[65, 100]),
   midi.NoteOnEvent(tick=58, channel=2, data=[65, 0]),
   midi.NoteOnEvent(tick=2, channel=2, data=[64, 98]),
   midi.NoteOnEvent(tick=58, channel=2, data=[65, 106]),
   midi.NoteOnEvent(tick=3, channel=2, data=[64, 0]),
   midi.NoteOnEvent(tick=111, channel=2, data=[57, 0]),
   midi.NoteOnEvent(tick=7, channel=2, data=[57, 99]),
   midi.NoteOnEvent(tick=120, channel=2, data=[59, 104]),
   midi.NoteOnEvent(tick=1, channel=2, data=[65, 0]),
   midi.NoteOnEvent(tick=2, channel=2, data=[57, 0]),
   midi.NoteOnEvent(tick=117, channel=2, data=[67, 96]),
   midi.NoteOnEvent(tick=57, channel=2, data=[67, 0]),
   midi.NoteOnEvent(tick=2, channel=2, data=[64, 104]),
   midi.NoteOnEvent(tick=57, channel=2, data=[64, 0]),
   midi.NoteOnEvent(tick=3, channel=2, data=[67, 108]),
   midi.NoteOnEvent(tick=117, channel=2, data=[59, 0]),
   midi.NoteOnEvent(tick=2, channel=2, data=[59, 103]),
   midi.NoteOnEvent(tick=112, channel=2, data=[59, 0]),
   midi.NoteOnEvent(tick=3, channel=2, data=[67, 0]),
   midi.NoteOnEvent(tick=8, channel=2, data=[60, 107]),
   midi.NoteOnEvent(tick=117, channel=2, data=[62, 104]),
   midi.NoteOnEvent(tick=1, channel=2, data=[60, 0]),
   midi.NoteOnEvent(tick=53, channel=2, data=[62, 0]),
   midi.NoteOnEvent(tick=7, channel=2, data=[60, 101]),
   midi.NoteOnEvent(tick=54, channel=2, data=[60, 0]),
   midi.NoteOnEvent(tick=4, channel=2, data=[59, 101]),
   midi.NoteOnEvent(tick=56, channel=2, data=[59, 0]),
   midi.NoteOnEvent(tick=6, channel=2, data=[57, 98]),
   midi.NoteOnEvent(tick=59, channel=2, data=[57, 0]),
   midi.NoteOnEvent(tick=3, channel=2, data=[55, 98]),
   midi.NoteOnEvent(tick=55, channel=2, data=[55, 0]),
   midi.NoteOnEvent(tick=4, channel=2, data=[53, 103]),
   midi.NoteOnEvent(tick=58, channel=2, data=[53, 0]),
   midi.NoteOnEvent(tick=0, channel=2, data=[55, 108]),
   midi.NoteOnEvent(tick=119, channel=2, data=[52, 103]),
   midi.NoteOnEvent(tick=1, channel=2, data=[55, 0]),
   midi.NoteOnEvent(tick=179, channel=2, data=[52, 0]),
   midi.NoteOnEvent(tick=3, channel=2, data=[53, 98]),
   midi.NoteOnEvent(tick=56, channel=2, data=[53, 0]),
   midi.NoteOnEvent(tick=5, channel=2, data=[55, 101]),
   midi.NoteOnEvent(tick=55, channel=2, data=[55, 0]),
   midi.NoteOnEvent(tick=4, channel=2, data=[52, 102]),
   midi.NoteOnEvent(tick=59, channel=2, data=[52, 0]),
   midi.NoteOnEvent(tick=2, channel=2, data=[53, 110]),
   midi.NoteOnEvent(tick=298, channel=2, data=[53, 0]),
   midi.NoteOnEvent(tick=2, channel=2, data=[55, 98]),
   midi.NoteOnEvent(tick=55, channel=2, data=[55, 0]),
   midi.NoteOnEvent(tick=4, channel=2, data=[57, 97]),
   midi.NoteOnEvent(tick=56, channel=2, data=[57, 0]),
   midi.NoteOnEvent(tick=4, channel=2, data=[53, 100]),
   midi.NoteOnEvent(tick=56, channel=2, data=[53, 0]),
   midi.NoteOnEvent(tick=2, channel=2, data=[55, 104]),
   midi.NoteOnEvent(tick=120, channel=2, data=[48, 98]),
   midi.NoteOnEvent(tick=118, channel=2, data=[55, 0]),
   midi.NoteOnEvent(tick=1, channel=2, data=[48, 0]),
   midi.NoteOnEvent(tick=0, channel=2, data=[43, 102]),
   midi.NoteOnEvent(tick=239, channel=2, data=[43, 0]),
   midi.NoteOnEvent(tick=1, channel=2, data=[48, 109]),
   midi.NoteOnEvent(tick=119, channel=2, data=[48, 0]),
   midi.NoteOnEvent(tick=3, channel=2, data=[47, 97]),
   midi.NoteOnEvent(tick=54, channel=2, data=[47, 0]),
   midi.NoteOnEvent(tick=4, channel=2, data=[45, 99]),
   midi.NoteOnEvent(tick=57, channel=2, data=[45, 0]),
   midi.NoteOnEvent(tick=6, channel=2, data=[43, 102]),
   midi.NoteOnEvent(tick=54, channel=2, data=[43, 0]),
   midi.NoteOnEvent(tick=3, channel=2, data=[41, 99]),
   midi.NoteOnEvent(tick=59, channel=2, data=[41, 0]),
   midi.NoteOnEvent(tick=3, channel=2, data=[40, 101]),
   midi.NoteOnEvent(tick=58, channel=2, data=[40, 0]),
   midi.NoteOnEvent(tick=4, channel=2, data=[38, 101]),
   midi.NoteOnEvent(tick=54, channel=2, data=[38, 0]),
   midi.NoteOnEvent(tick=2, channel=2, data=[67, 105]),
   midi.NoteOnEvent(tick=1, channel=2, data=[64, 107]),
   midi.NoteOnEvent(tick=1, channel=2, data=[72, 106]),
   midi.NoteOnEvent(tick=0, channel=2, data=[36, 108]),
   midi.NoteOnEvent(tick=121, channel=2, data=[43, 97]),
   midi.NoteOnEvent(tick=118, channel=2, data=[43, 0]),
   midi.NoteOnEvent(tick=0, channel=2, data=[48, 101]),
   midi.NoteOnEvent(tick=173, channel=2, data=[67, 0]),
   midi.NoteOnEvent(tick=4, channel=2, data=[72, 0]),
   midi.NoteOnEvent(tick=1, channel=2, data=[48, 0]),
   midi.NoteOnEvent(tick=1, channel=2, data=[64, 0]),
   midi.NoteOnEvent(tick=1, channel=2, data=[36, 0]),
   midi.EndOfTrackEvent(tick=0, data=[])]),
 midi.Track(\
  [midi.PortEvent(tick=0, data=[0]),
   midi.TrackNameEvent(tick=0, text='Entered by John Cowles', data=[69, 110, 116, 101, 114, 101, 100, 32, 98, 121, 32, 74, 111, 104, 110, 32, 67, 111, 119, 108, 101, 115]),
   midi.EndOfTrackEvent(tick=0, data=[])]),
 midi.Track(\
  [midi.PortEvent(tick=0, data=[0]),
   midi.TrackNameEvent(tick=0, text='cowles@hydra.convex.com', data=[99, 111, 119, 108, 101, 115, 64, 104, 121, 100, 114, 97, 46, 99, 111, 110, 118, 101, 120, 46, 99, 111, 109]),
   midi.EndOfTrackEvent(tick=0, data=[])])])
