midi.Pattern(format=1, resolution=384, tracks=\
[midi.Track(\
  [midi.TimeSignatureEvent(tick=0, data=[3, 2, 96, 8]),
   midi.SequencerSpecificEvent(tick=0, data=[0, 0, 65]),
   midi.SequencerSpecificEvent(tick=0, data=[0, 0, 119, 14, 0]),
   midi.SetTempoEvent(tick=0, data=[7, 177, 137]),
   midi.SetTempoEvent(tick=800, data=[8, 102, 58]),
   midi.TimeSignatureEvent(tick=3808, data=[7, 3, 96, 8]),
   midi.SetTempoEvent(tick=0, data=[8, 102, 58]),
   midi.TimeSignatureEvent(tick=1344, data=[3, 2, 96, 8]),
   midi.SetTempoEvent(tick=0, data=[8, 102, 58]),
   midi.TimeSignatureEvent(tick=3456, data=[2, 2, 96, 8]),
   midi.TimeSignatureEvent(tick=1536, data=[3, 2, 96, 8]),
   midi.TimeSignatureEvent(tick=1152, data=[2, 2, 96, 8]),
   midi.TimeSignatureEvent(tick=3072, data=[3, 2, 96, 8]),
   midi.TimeSignatureEvent(tick=1152, data=[2, 2, 96, 8]),
   midi.TimeSignatureEvent(tick=1536, data=[3, 3, 96, 8]),
   midi.SetTempoEvent(tick=0, data=[8, 102, 58]),
   midi.TimeSignatureEvent(tick=576, data=[4, 2, 96, 8]),
   midi.SetTempoEvent(tick=0, data=[8, 102, 58]),
   midi.TimeSignatureEvent(tick=3072, data=[3, 2, 96, 8]),
   midi.TimeSignatureEvent(tick=2304, data=[4, 2, 96, 8]),
   midi.TimeSignatureEvent(tick=1536, data=[3, 2, 96, 8]),
   midi.TimeSignatureEvent(tick=3456, data=[4, 2, 96, 8]),
   midi.TimeSignatureEvent(tick=1536, data=[2, 2, 96, 8]),
   midi.TimeSignatureEvent(tick=768, data=[3, 2, 96, 8]),
   midi.TimeSignatureEvent(tick=10368, data=[2, 2, 96, 8]),
   midi.TimeSignatureEvent(tick=768, data=[3, 2, 96, 8]),
   midi.TimeSignatureEvent(tick=3456, data=[2, 2, 96, 8]),
   midi.TimeSignatureEvent(tick=768, data=[3, 2, 96, 8]),
   midi.TimeSignatureEvent(tick=1152, data=[4, 2, 96, 8]),
   midi.TimeSignatureEvent(tick=1536, data=[3, 2, 96, 8]),
   midi.TimeSignatureEvent(tick=3456, data=[5, 2, 96, 8]),
   midi.TimeSignatureEvent(tick=1920, data=[3, 2, 96, 8]),
   midi.TimeSignatureEvent(tick=1152, data=[5, 2, 96, 8]),
   midi.TimeSignatureEvent(tick=9600, data=[3, 2, 96, 8]),
   midi.SetTempoEvent(tick=8064, data=[9, 216, 41]),
   midi.SetTempoEvent(tick=1152, data=[12, 229, 14]),
   midi.SetTempoEvent(tick=1152, data=[20, 88, 85]),
   midi.SetTempoEvent(tick=6144, data=[12, 229, 14]),
   midi.SetTempoEvent(tick=1920, data=[20, 88, 85]),
   midi.SetTempoEvent(tick=384, data=[12, 229, 14]),
   midi.SetTempoEvent(tick=1920, data=[20, 88, 85]),
   midi.SetTempoEvent(tick=384, data=[12, 229, 14]),
   midi.SetTempoEvent(tick=1152, data=[20, 88, 85]),
   midi.TimeSignatureEvent(tick=1920, data=[5, 2, 96, 8]),
   midi.TimeSignatureEvent(tick=1920, data=[3, 2, 96, 8]),
   midi.TimeSignatureEvent(tick=6912, data=[4, 2, 96, 8]),
   midi.TimeSignatureEvent(tick=3072, data=[3, 2, 96, 8]),
   midi.TimeSignatureEvent(tick=2304, data=[5, 2, 96, 8]),
   midi.TimeSignatureEvent(tick=1920, data=[3, 2, 96, 8]),
   midi.SetTempoEvent(tick=0, data=[8, 102, 58]),
   midi.TimeSignatureEvent(tick=5760, data=[7, 3, 96, 8]),
   midi.SetTempoEvent(tick=0, data=[8, 102, 58]),
   midi.TimeSignatureEvent(tick=1344, data=[3, 2, 96, 8]),
   midi.SetTempoEvent(tick=0, data=[8, 102, 58]),
   midi.TimeSignatureEvent(tick=4608, data=[2, 2, 96, 8]),
   midi.TimeSignatureEvent(tick=1536, data=[3, 2, 96, 8]),
   midi.TimeSignatureEvent(tick=1152, data=[2, 2, 96, 8]),
   midi.TimeSignatureEvent(tick=3072, data=[3, 2, 96, 8]),
   midi.TimeSignatureEvent(tick=1152, data=[2, 2, 96, 8]),
   midi.TimeSignatureEvent(tick=768, data=[3, 2, 96, 8]),
   midi.TimeSignatureEvent(tick=1152, data=[4, 2, 96, 8]),
   midi.TimeSignatureEvent(tick=3072, data=[3, 2, 96, 8]),
   midi.TimeSignatureEvent(tick=2304, data=[4, 2, 96, 8]),
   midi.TimeSignatureEvent(tick=1536, data=[5, 2, 96, 8]),
   midi.TimeSignatureEvent(tick=3840, data=[3, 2, 96, 8]),
   midi.EndOfTrackEvent(tick=0, data=[])]),
 midi.Track(\
  [midi.ControlChangeEvent(tick=0, channel=0, data=[0, 0]),
   midi.ProgramChangeEvent(tick=0, channel=0, data=[24]),
   midi.ControlChangeEvent(tick=0, channel=0, data=[7, 127]),
   midi.ControlChangeEvent(tick=0, channel=0, data=[10, 63]),
   midi.ControlChangeEvent(tick=0, channel=0, data=[91, 110]),
   midi.ControlChangeEvent(tick=0, channel=0, data=[93, 0]),
   midi.KeySignatureEvent(tick=0, data=[0, 0]),
   midi.NoteOnEvent(tick=576, channel=0, data=[59, 120]),
   midi.NoteOnEvent(tick=96, channel=0, data=[50, 100]),
   midi.NoteOffEvent(tick=92, channel=0, data=[59, 127]),
   midi.NoteOnEvent(tick=4, channel=0, data=[45, 90]),
   midi.NoteOffEvent(tick=92, channel=0, data=[50, 127]),
   midi.NoteOnEvent(tick=4, channel=0, data=[50, 100]),
   midi.NoteOnEvent(tick=96, channel=0, data=[55, 110]),
   midi.NoteOnEvent(tick=96, channel=0, data=[59, 120]),
   midi.NoteOnEvent(tick=96, channel=0, data=[76, 120]),
   midi.NoteOffEvent(tick=64, channel=0, data=[76, 127]),
   midi.NoteOnEvent(tick=32, channel=0, data=[76, 100]),
   midi.NoteOffEvent(tick=64, channel=0, data=[76, 127]),
   midi.NoteOffEvent(tick=28, channel=0, data=[45, 64]),
   midi.NoteOffEvent(tick=0, channel=0, data=[50, 64]),
   midi.NoteOffEvent(tick=0, channel=0, data=[55, 64]),
   midi.NoteOffEvent(tick=0, channel=0, data=[59, 64]),
   midi.NoteOnEvent(tick=4, channel=0, data=[76, 120]),
   midi.NoteOffEvent(tick=188, channel=0, data=[76, 127]),
   midi.NoteOnEvent(tick=196, channel=0, data=[45, 120]),
   midi.NoteOnEvent(tick=0, channel=0, data=[50, 120]),
   midi.NoteOnEvent(tick=0, channel=0, data=[55, 120]),
   midi.NoteOnEvent(tick=0, channel=0, data=[59, 120]),
   midi.NoteOnEvent(tick=0, channel=0, data=[76, 120]),
   midi.NoteOffEvent(tick=188, channel=0, data=[45, 127]),
   midi.NoteOffEvent(tick=0, channel=0, data=[50, 127]),
   midi.NoteOffEvent(tick=0, channel=0, data=[55, 127]),
   midi.NoteOffEvent(tick=0, channel=0, data=[59, 127]),
   midi.NoteOffEvent(tick=0, channel=0, data=[76, 127]),
   midi.NoteOnEvent(tick=4, channel=0, data=[71, 90]),
   midi.NoteOffEvent(tick=188, channel=0, data=[71, 127]),
   midi.NoteOnEvent(tick=4, channel=0, data=[76, 120]),
   midi.NoteOffEvent(tick=188, channel=0, data=[76, 127]),
   midi.NoteOnEvent(tick=4, channel=0, data=[78, 120]),
   midi.NoteOnEvent(tick=96, channel=0, data=[78, 120]),
   midi.NoteOffEvent(tick=92, channel=0, data=[78, 127]),
   midi.NoteOnEvent(tick=4, channel=0, data=[78, 120]),
   midi.NoteOffEvent(tick=92, channel=0, data=[78, 127]),
   midi.NoteOffEvent(tick=96, channel=0, data=[78, 127]),
   midi.NoteOnEvent(tick=196, channel=0, data=[45, 120]),
   midi.NoteOnEvent(tick=0, channel=0, data=[55, 120]),
   midi.NoteOnEvent(tick=0, channel=0, data=[59, 120]),
   midi.NoteOnEvent(tick=0, channel=0, data=[78, 120]),
   midi.NoteOnEvent(tick=0, channel=0, data=[50, 90]),
   midi.NoteOffEvent(tick=188, channel=0, data=[45, 127]),
   midi.NoteOffEvent(tick=0, channel=0, data=[55, 127]),
   midi.NoteOffEvent(tick=0, channel=0, data=[59, 127]),
   midi.NoteOffEvent(tick=0, channel=0, data=[78, 127]),
   midi.NoteOffEvent(tick=0, channel=0, data=[50, 127]),
   midi.NoteOnEvent(tick=4, channel=0, data=[71, 90]),
   midi.NoteOffEvent(tick=188, channel=0, data=[71, 127]),
   midi.NoteOnEvent(tick=4, channel=0, data=[78, 120]),
   midi.NoteOffEvent(tick=188, channel=0, data=[78, 127]),
   midi.NoteOnEvent(tick=4, channel=0, data=[76, 120]),
   midi.NoteOnEvent(tick=96, channel=0, data=[76, 120]),
   midi.NoteOffEvent(tick=92, channel=0, data=[76, 127]),
   midi.NoteOnEvent(tick=4, channel=0, data=[76, 120]),
   midi.NoteOffEvent(tick=92, channel=0, data=[76, 127]),
   midi.NoteOffEvent(tick=96, channel=0, data=[76, 127]),
   midi.NoteOnEvent(tick=196, channel=0, data=[45, 120]),
   midi.NoteOnEvent(tick=0, channel=0, data=[50, 120]),
   midi.NoteOnEvent(tick=0, channel=0, data=[55, 120]),
   midi.NoteOnEvent(tick=0, channel=0, data=[59, 120]),
   midi.NoteOnEvent(tick=0, channel=0, data=[76, 120]),
   midi.NoteOffEvent(tick=188, channel=0, data=[45, 127]),
   midi.NoteOffEvent(tick=0, channel=0, data=[50, 127]),
   midi.NoteOffEvent(tick=0, channel=0, data=[55, 127]),
   midi.NoteOffEvent(tick=0, channel=0, data=[59, 127]),
   midi.NoteOffEvent(tick=0, channel=0, data=[76, 127]),
   midi.NoteOnEvent(tick=4, channel=0, data=[71, 90]),
   midi.NoteOffEvent(tick=188, channel=0, data=[71, 127]),
   midi.NoteOnEvent(tick=4, channel=0, data=[76, 120]),
   midi.NoteOffEvent(tick=188, channel=0, data=[76, 127]),
   midi.NoteOnEvent(tick=4, channel=0, data=[78, 90]),
   midi.NoteOnEvent(tick=112, channel=0, data=[78, 90]),
   midi.NoteOffEvent(tick=98, channel=0, data=[78, 127]),
   midi.NoteOnEvent(tick=14, channel=0, data=[78, 120]),
   midi.NoteOffEvent(tick=98, channel=0, data=[78, 127]),
   midi.NoteOnEvent(tick=60, channel=0, data=[71, 90]),
   midi.NoteOffEvent(tick=52, channel=0, data=[78, 127]),
   midi.NoteOnEvent(tick=42, channel=0, data=[71, 90]),
   midi.NoteOffEvent(tick=92, channel=0, data=[71, 127]),
   midi.NoteOnEvent(tick=6, channel=0, data=[59, 90]),
   midi.NoteOnEvent(tick=0, channel=0, data=[45, 90]),
   midi.NoteOnEvent(tick=0, channel=0, data=[55, 90]),
   midi.NoteOffEvent(tick=88, channel=0, data=[71, 127]),
   midi.NoteOffEvent(tick=98, channel=0, data=[59, 127]),
   midi.NoteOffEvent(tick=0, channel=0, data=[45, 127]),
   midi.NoteOffEvent(tick=0, channel=0, data=[55, 127]),
   midi.NoteOnEvent(tick=4, channel=0, data=[73, 120]),
   midi.NoteOnEvent(tick=98, channel=0, data=[73, 120]),
   midi.NoteOffEvent(tick=88, channel=0, data=[73, 127]),
   midi.NoteOnEvent(tick=6, channel=0, data=[45, 90]),
   midi.NoteOnEvent(tick=0, channel=0, data=[55, 90]),
   midi.NoteOnEvent(tick=0, channel=0, data=[59, 90]),
   midi.NoteOffEvent(tick=92, channel=0, data=[73, 127]),
   midi.NoteOffEvent(tick=94, channel=0, data=[45, 127]),
   midi.NoteOffEvent(tick=0, channel=0, data=[55, 127]),
   midi.NoteOffEvent(tick=0, channel=0, data=[59, 127]),
   midi.NoteOnEvent(tick=6, channel=0, data=[74, 120]),
   midi.NoteOffEvent(tick=186, channel=0, data=[74, 127]),
   midi.NoteOnEvent(tick=10, channel=0, data=[78, 120]),
   midi.NoteOffEvent(tick=80, channel=0, data=[78, 127]),
   midi.NoteOnEvent(tick=112, channel=0, data=[76, 90]),
   midi.NoteOnEvent(tick=96, channel=0, data=[74, 90]),
   midi.NoteOffEvent(tick=92, channel=0, data=[76, 127]),
   midi.NoteOnEvent(tick=4, channel=0, data=[73, 120]),
   midi.NoteOffEvent(tick=92, channel=0, data=[74, 127]),
   midi.NoteOffEvent(tick=96, channel=0, data=[73, 127]),
   midi.NoteOnEvent(tick=4, channel=0, data=[71, 90]),
   midi.NoteOffEvent(tick=188, channel=0, data=[71, 127]),
   midi.NoteOnEvent(tick=4, channel=0, data=[73, 120]),
   midi.NoteOffEvent(tick=188, channel=0, data=[73, 127]),
   midi.NoteOnEvent(tick=4, channel=0, data=[71, 90]),
   midi.NoteOffEvent(tick=188, channel=0, data=[71, 127]),
   midi.NoteOnEvent(tick=4, channel=0, data=[73, 90]),
   midi.NoteOffEvent(tick=188, channel=0, data=[73, 127]),
   midi.NoteOnEvent(tick=4, channel=0, data=[59, 120]),
   midi.NoteOnEvent(tick=0, channel=0, data=[45, 120]),
   midi.NoteOnEvent(tick=0, channel=0, data=[50, 120]),
   midi.NoteOnEvent(tick=0, channel=0, data=[55, 120]),
   midi.NoteOnEvent(tick=0, channel=0, data=[71, 120]),
   midi.NoteOffEvent(tick=188, channel=0, data=[71, 127]),
   midi.NoteOnEvent(tick=4, channel=0, data=[73, 90]),
   midi.NoteOffEvent(tick=188, channel=0, data=[59, 127]),
   midi.NoteOffEvent(tick=0, channel=0, data=[45, 127]),
   midi.NoteOffEvent(tick=0, channel=0, data=[50, 127]),
   midi.NoteOffEvent(tick=0, channel=0, data=[55, 127]),
   midi.NoteOffEvent(tick=0, channel=0, data=[73, 127]),
   midi.NoteOnEvent(tick=4, channel=0, data=[71, 90]),
   midi.NoteOffEvent(tick=188, channel=0, data=[71, 127]),
   midi.NoteOnEvent(tick=4, channel=0, data=[73, 90]),
   midi.NoteOffEvent(tick=188, channel=0, data=[73, 127]),
   midi.NoteOnEvent(tick=4, channel=0, data=[71, 90]),
   midi.NoteOffEvent(tick=188, channel=0, data=[71, 127]),
   midi.NoteOnEvent(tick=4, channel=0, data=[73, 90]),
   midi.NoteOffEvent(tick=188, channel=0, data=[73, 127]),
   midi.NoteOnEvent(tick=4, channel=0, data=[71, 80]),
   midi.NoteOnEvent(tick=0, channel=0, data=[45, 80]),
   midi.NoteOnEvent(tick=0, channel=0, data=[50, 80]),
   midi.NoteOnEvent(tick=0, channel=0, data=[59, 80]),
   midi.NoteOnEvent(tick=0, channel=0, data=[55, 80]),
   midi.NoteOffEvent(tick=188, channel=0, data=[71, 127]),
   midi.NoteOnEvent(tick=4, channel=0, data=[73, 90]),
   midi.NoteOffEvent(tick=188, channel=0, data=[45, 127]),
   midi.NoteOffEvent(tick=0, channel=0, data=[50, 127]),
   midi.NoteOffEvent(tick=0, channel=0, data=[59, 127]),
   midi.NoteOffEvent(tick=0, channel=0, data=[55, 127]),
   midi.NoteOffEvent(tick=0, channel=0, data=[73, 127]),
   midi.NoteOnEvent(tick=4, channel=0, data=[71, 90]),
   midi.NoteOffEvent(tick=188, channel=0, data=[71, 127]),
   midi.NoteOnEvent(tick=4, channel=0, data=[73, 90]),
   midi.NoteOnEvent(tick=96, channel=0, data=[71, 90]),
   midi.NoteOffEvent(tick=92, channel=0, data=[73, 127]),
   midi.NoteOnEvent(tick=4, channel=0, data=[73, 90]),
   midi.NoteOffEvent(tick=92, channel=0, data=[71, 127]),
   midi.NoteOnEvent(tick=4, channel=0, data=[74, 90]),
   midi.NoteOffEvent(tick=92, channel=0, data=[73, 127]),
   midi.NoteOnEvent(tick=4, channel=0, data=[69, 90]),
   midi.NoteOffEvent(tick=60, channel=0, data=[74, 127]),
   midi.NoteOnEvent(tick=4, channel=0, data=[65, 90]),
   midi.NoteOffEvent(tick=60, channel=0, data=[69, 127]),
   midi.NoteOnEvent(tick=4, channel=0, data=[62, 90]),
   midi.NoteOffEvent(tick=60, channel=0, data=[65, 127]),
   midi.NoteOnEvent(tick=4, channel=0, data=[58, 90]),
   midi.NoteOnEvent(tick=0, channel=0, data=[45, 90]),
   midi.NoteOnEvent(tick=0, channel=0, data=[50, 90]),
   midi.NoteOffEvent(tick=60, channel=0, data=[62, 127]),
   midi.NoteOffEvent(tick=128, channel=0, data=[58, 127]),
   midi.NoteOffEvent(tick=0, channel=0, data=[45, 127]),
   midi.NoteOffEvent(tick=0, channel=0, data=[50, 127]),
   midi.NoteOnEvent(tick=196, channel=0, data=[57, 90]),
   midi.NoteOnEvent(tick=96, channel=0, data=[59, 90]),
   midi.NoteOffEvent(tick=92, channel=0, data=[57, 127]),
   midi.NoteOnEvent(tick=4, channel=0, data=[62, 90]),
   midi.NoteOffEvent(tick=92, channel=0, data=[59, 127]),
   midi.NoteOffEvent(tick=96, channel=0, data=[62, 127]),
   midi.NoteOnEvent(tick=4, channel=0, data=[65, 90]),
   midi.NoteOffEvent(tick=188, channel=0, data=[65, 127]),
   midi.NoteOnEvent(tick=196, channel=0, data=[65, 90]),
   midi.NoteOnEvent(tick=0, channel=0, data=[69, 90]),
   midi.NoteOnEvent(tick=0, channel=0, data=[58, 90]),
   midi.NoteOnEvent(tick=0, channel=0, data=[55, 90]),
   midi.NoteOffEvent(tick=188, channel=0, data=[65, 127]),
   midi.NoteOffEvent(tick=0, channel=0, data=[69, 127]),
   midi.NoteOffEvent(tick=0, channel=0, data=[58, 127]),
   midi.NoteOffEvent(tick=0, channel=0, data=[55, 127]),
   midi.NoteOnEvent(tick=4, channel=0, data=[71, 90]),
   midi.NoteOnEvent(tick=0, channel=0, data=[67, 90]),
   midi.NoteOnEvent(tick=0, channel=0, data=[60, 90]),
   midi.NoteOnEvent(tick=0, channel=0, data=[57, 90]),
   midi.NoteOffEvent(tick=188, channel=0, data=[71, 127]),
   midi.NoteOffEvent(tick=0, channel=0, data=[67, 127]),
   midi.NoteOffEvent(tick=0, channel=0, data=[60, 127]),
   midi.NoteOffEvent(tick=0, channel=0, data=[57, 127]),
   midi.NoteOnEvent(tick=4, channel=0, data=[59, 90]),
   midi.NoteOnEvent(tick=0, channel=0, data=[55, 90]),
   midi.NoteOnEvent(tick=0, channel=0, data=[52, 90]),
   midi.NoteOnEvent(tick=0, channel=0, data=[45, 90]),
   midi.NoteOffEvent(tick=188, channel=0, data=[59, 127]),
   midi.NoteOffEvent(tick=0, channel=0, data=[55, 127]),
   midi.NoteOffEvent(tick=0, channel=0, data=[52, 127]),
   midi.NoteOffEvent(tick=0, channel=0, data=[45, 127]),
   midi.NoteOnEvent(tick=196, channel=0, data=[59, 90]),
   midi.NoteOnEvent(tick=96, channel=0, data=[60, 90]),
   midi.NoteOffEvent(tick=92, channel=0, data=[59, 127]),
   midi.NoteOnEvent(tick=4, channel=0, data=[64, 90]),
   midi.NoteOffEvent(tick=92, channel=0, data=[60, 127]),
   midi.NoteOffEvent(tick=96, channel=0, data=[64, 127]),
   midi.NoteOnEvent(tick=4, channel=0, data=[67, 90]),
   midi.NoteOffEvent(tick=92, channel=0, data=[67, 127]),
   midi.NoteOnEvent(tick=4, channel=0, data=[71, 90]),
   midi.NoteOffEvent(tick=92, channel=0, data=[71, 127]),
   midi.NoteOnEvent(tick=4, channel=0, data=[69, 90]),
   midi.NoteOffEvent(tick=60, channel=0, data=[69, 127]),
   midi.NoteOnEvent(tick=4, channel=0, data=[65, 90]),
   midi.NoteOffEvent(tick=60, channel=0, data=[65, 127]),
   midi.NoteOnEvent(tick=4, channel=0, data=[62, 90]),
   midi.NoteOnEvent(tick=64, channel=0, data=[58, 90]),
   midi.NoteOnEvent(tick=0, channel=0, data=[50, 90]),
   midi.NoteOnEvent(tick=0, channel=0, data=[45, 90]),
   midi.NoteOffEvent(tick=60, channel=0, data=[62, 127]),
   midi.NoteOffEvent(tick=128, channel=0, data=[58, 127]),
   midi.NoteOffEvent(tick=0, channel=0, data=[50, 127]),
   midi.NoteOffEvent(tick=0, channel=0, data=[45, 127]),
   midi.NoteOnEvent(tick=196, channel=0, data=[57, 90]),
   midi.NoteOnEvent(tick=96, channel=0, data=[59, 90]),
   midi.NoteOffEvent(tick=92, channel=0, data=[57, 127]),
   midi.NoteOnEvent(tick=4, channel=0, data=[62, 90]),
   midi.NoteOffEvent(tick=92, channel=0, data=[59, 127]),
   midi.NoteOffEvent(tick=96, channel=0, data=[62, 127]),
   midi.NoteOnEvent(tick=4, channel=0, data=[65, 90]),
   midi.NoteOffEvent(tick=188, channel=0, data=[65, 127]),
   midi.NoteOnEvent(tick=196, channel=0, data=[69, 90]),
   midi.NoteOnEvent(tick=0, channel=0, data=[65, 90]),
   midi.NoteOnEvent(tick=0, channel=0, data=[58, 90]),
   midi.NoteOnEvent(tick=0, channel=0, data=[55, 90]),
   midi.NoteOffEvent(tick=188, channel=0, data=[69, 127]),
   midi.NoteOffEvent(tick=0, channel=0, data=[65, 127]),
   midi.NoteOffEvent(tick=0, channel=0, data=[58, 127]),
   midi.NoteOffEvent(tick=0, channel=0, data=[55, 127]),
   midi.NoteOnEvent(tick=4, channel=0, data=[71, 90]),
   midi.NoteOnEvent(tick=0, channel=0, data=[67, 90]),
   midi.NoteOnEvent(tick=0, channel=0, data=[60, 90]),
   midi.NoteOnEvent(tick=0, channel=0, data=[57, 90]),
   midi.NoteOffEvent(tick=188, channel=0, data=[71, 127]),
   midi.NoteOffEvent(tick=0, channel=0, data=[67, 127]),
   midi.NoteOffEvent(tick=0, channel=0, data=[60, 127]),
   midi.NoteOffEvent(tick=0, channel=0, data=[57, 127]),
   midi.NoteOnEvent(tick=4, channel=0, data=[59, 90]),
   midi.NoteOnEvent(tick=0, channel=0, data=[55, 90]),
   midi.NoteOnEvent(tick=0, channel=0, data=[52, 90]),
   midi.NoteOnEvent(tick=0, channel=0, data=[45, 90]),
   midi.NoteOffEvent(tick=188, channel=0, data=[59, 127]),
   midi.NoteOffEvent(tick=0, channel=0, data=[55, 127]),
   midi.NoteOffEvent(tick=0, channel=0, data=[52, 127]),
   midi.NoteOffEvent(tick=0, channel=0, data=[45, 127]),
   midi.NoteOnEvent(tick=100, channel=0, data=[57, 90]),
   midi.NoteOnEvent(tick=96, channel=0, data=[59, 90]),
   midi.NoteOffEvent(tick=92, channel=0, data=[57, 127]),
   midi.NoteOnEvent(tick=4, channel=0, data=[60, 90]),
   midi.NoteOffEvent(tick=92, channel=0, data=[59, 127]),
   midi.NoteOnEvent(tick=4, channel=0, data=[64, 90]),
   midi.NoteOffEvent(tick=92, channel=0, data=[60, 127]),
   midi.NoteOffEvent(tick=96, channel=0, data=[64, 127]),
   midi.NoteOnEvent(tick=4, channel=0, data=[67, 90]),
   midi.NoteOffEvent(tick=188, channel=0, data=[67, 127]),
   midi.NoteOnEvent(tick=196, channel=0, data=[71, 90]),
   midi.NoteOnEvent(tick=0, channel=0, data=[67, 90]),
   midi.NoteOnEvent(tick=0, channel=0, data=[60, 90]),
   midi.NoteOnEvent(tick=0, channel=0, data=[57, 90]),
   midi.NoteOffEvent(tick=188, channel=0, data=[71, 127]),
   midi.NoteOffEvent(tick=0, channel=0, data=[67, 127]),
   midi.NoteOffEvent(tick=0, channel=0, data=[60, 127]),
   midi.NoteOffEvent(tick=0, channel=0, data=[57, 127]),
   midi.NoteOnEvent(tick=4, channel=0, data=[72, 90]),
   midi.NoteOnEvent(tick=0, channel=0, data=[69, 90]),
   midi.NoteOnEvent(tick=0, channel=0, data=[58, 90]),
   midi.NoteOnEvent(tick=0, channel=0, data=[62, 90]),
   midi.NoteOffEvent(tick=188, channel=0, data=[72, 127]),
   midi.NoteOffEvent(tick=0, channel=0, data=[69, 127]),
   midi.NoteOffEvent(tick=0, channel=0, data=[58, 127]),
   midi.NoteOffEvent(tick=0, channel=0, data=[62, 127]),
   midi.NoteOnEvent(tick=4, channel=0, data=[62, 90]),
   midi.NoteOnEvent(tick=0, channel=0, data=[53, 90]),
   midi.NoteOnEvent(tick=0, channel=0, data=[57, 90]),
   midi.NoteOnEvent(tick=0, channel=0, data=[46, 90]),
   midi.NoteOffEvent(tick=188, channel=0, data=[62, 127]),
   midi.NoteOffEvent(tick=0, channel=0, data=[53, 127]),
   midi.NoteOffEvent(tick=0, channel=0, data=[57, 127]),
   midi.NoteOffEvent(tick=0, channel=0, data=[46, 127]),
   midi.NoteOnEvent(tick=100, channel=0, data=[58, 90]),
   midi.NoteOffEvent(tick=92, channel=0, data=[58, 127]),
   midi.NoteOnEvent(tick=4, channel=0, data=[62, 90]),
   midi.NoteOffEvent(tick=92, channel=0, data=[62, 127]),
   midi.NoteOnEvent(tick=4, channel=0, data=[65, 90]),
   midi.NoteOffEvent(tick=92, channel=0, data=[65, 127]),
   midi.NoteOnEvent(tick=4, channel=0, data=[69, 90]),
   midi.NoteOffEvent(tick=188, channel=0, data=[69, 127]),
   midi.NoteOnEvent(tick=4, channel=0, data=[72, 90]),
   midi.NoteOnEvent(tick=0, channel=0, data=[69, 90]),
   midi.NoteOnEvent(tick=0, channel=0, data=[62, 90]),
   midi.NoteOnEvent(tick=0, channel=0, data=[58, 90]),
   midi.NoteOffEvent(tick=188, channel=0, data=[72, 127]),
   midi.NoteOffEvent(tick=0, channel=0, data=[69, 127]),
   midi.NoteOffEvent(tick=0, channel=0, data=[62, 127]),
   midi.NoteOffEvent(tick=0, channel=0, data=[58, 127]),
   midi.NoteOnEvent(tick=4, channel=0, data=[74, 90]),
   midi.NoteOnEvent(tick=0, channel=0, data=[70, 90]),
   midi.NoteOnEvent(tick=0, channel=0, data=[63, 90]),
   midi.NoteOnEvent(tick=0, channel=0, data=[60, 90]),
   midi.NoteOffEvent(tick=188, channel=0, data=[74, 127]),
   midi.NoteOffEvent(tick=0, channel=0, data=[70, 127]),
   midi.NoteOffEvent(tick=0, channel=0, data=[63, 127]),
   midi.NoteOffEvent(tick=0, channel=0, data=[60, 127]),
   midi.NoteOnEvent(tick=4, channel=0, data=[63, 90]),
   midi.NoteOnEvent(tick=0, channel=0, data=[58, 90]),
   midi.NoteOnEvent(tick=0, channel=0, data=[55, 90]),
   midi.NoteOnEvent(tick=0, channel=0, data=[50, 90]),
   midi.NoteOffEvent(tick=188, channel=0, data=[63, 127]),
   midi.NoteOffEvent(tick=0, channel=0, data=[58, 127]),
   midi.NoteOffEvent(tick=0, channel=0, data=[55, 127]),
   midi.NoteOffEvent(tick=0, channel=0, data=[50, 127]),
   midi.NoteOnEvent(tick=196, channel=0, data=[74, 90]),
   midi.NoteOnEvent(tick=0, channel=0, data=[71, 90]),
   midi.NoteOnEvent(tick=0, channel=0, data=[64, 90]),
   midi.NoteOnEvent(tick=0, channel=0, data=[55, 90]),
   midi.NoteOffEvent(tick=188, channel=0, data=[74, 127]),
   midi.NoteOffEvent(tick=0, channel=0, data=[71, 127]),
   midi.NoteOffEvent(tick=0, channel=0, data=[64, 127]),
   midi.NoteOffEvent(tick=0, channel=0, data=[55, 127]),
   midi.NoteOnEvent(tick=4, channel=0, data=[75, 90]),
   midi.NoteOnEvent(tick=0, channel=0, data=[72, 90]),
   midi.NoteOnEvent(tick=0, channel=0, data=[65, 90]),
   midi.NoteOnEvent(tick=0, channel=0, data=[56, 90]),
   midi.NoteOffEvent(tick=188, channel=0, data=[75, 127]),
   midi.NoteOffEvent(tick=0, channel=0, data=[72, 127]),
   midi.NoteOffEvent(tick=0, channel=0, data=[65, 127]),
   midi.NoteOffEvent(tick=0, channel=0, data=[56, 127]),
   midi.NoteOnEvent(tick=4, channel=0, data=[65, 90]),
   midi.NoteOnEvent(tick=0, channel=0, data=[60, 90]),
   midi.NoteOnEvent(tick=0, channel=0, data=[56, 90]),
   midi.NoteOnEvent(tick=0, channel=0, data=[49, 90]),
   midi.NoteOffEvent(tick=188, channel=0, data=[65, 127]),
   midi.NoteOffEvent(tick=0, channel=0, data=[60, 127]),
   midi.NoteOffEvent(tick=0, channel=0, data=[56, 127]),
   midi.NoteOffEvent(tick=0, channel=0, data=[49, 127]),
   midi.NoteOnEvent(tick=196, channel=0, data=[53, 74]),
   midi.NoteOnEvent(tick=96, channel=0, data=[56, 77]),
   midi.NoteOffEvent(tick=92, channel=0, data=[53, 127]),
   midi.NoteOnEvent(tick=4, channel=0, data=[60, 79]),
   midi.NoteOffEvent(tick=68, channel=0, data=[56, 127]),
   midi.NoteOnEvent(tick=28, channel=0, data=[63, 84]),
   midi.NoteOffEvent(tick=92, channel=0, data=[60, 127]),
   midi.NoteOnEvent(tick=4, channel=0, data=[67, 89]),
   midi.NoteOffEvent(tick=92, channel=0, data=[63, 127]),
   midi.NoteOnEvent(tick=4, channel=0, data=[68, 93]),
   midi.NoteOffEvent(tick=92, channel=0, data=[67, 127]),
   midi.NoteOnEvent(tick=4, channel=0, data=[72, 98]),
   midi.NoteOffEvent(tick=92, channel=0, data=[68, 127]),
   midi.NoteOnEvent(tick=4, channel=0, data=[75, 103]),
   midi.NoteOffEvent(tick=92, channel=0, data=[72, 127]),
   midi.NoteOnEvent(tick=4, channel=0, data=[79, 108]),
   midi.NoteOffEvent(tick=188, channel=0, data=[79, 127]),
   midi.NoteOnEvent(tick=4, channel=0, data=[80, 112]),
   midi.NoteOnEvent(tick=0, channel=0, data=[68, 112]),
   midi.NoteOffEvent(tick=52, channel=0, data=[75, 127]),
   midi.NoteOffEvent(tick=328, channel=0, data=[80, 127]),
   midi.NoteOffEvent(tick=0, channel=0, data=[68, 127]),
   midi.NoteOnEvent(tick=4, channel=0, data=[77, 122]),
   midi.NoteOnEvent(tick=0, channel=0, data=[65, 122]),
   midi.NoteOffEvent(tick=380, channel=0, data=[77, 127]),
   midi.NoteOffEvent(tick=0, channel=0, data=[65, 127]),
   midi.NoteOnEvent(tick=4, channel=0, data=[67, 90]),
   midi.NoteOnEvent(tick=0, channel=0, data=[62, 90]),
   midi.NoteOnEvent(tick=0, channel=0, data=[59, 90]),
   midi.NoteOnEvent(tick=0, channel=0, data=[53, 90]),
   midi.NoteOnEvent(tick=0, channel=0, data=[49, 90]),
   midi.NoteOnEvent(tick=0, channel=0, data=[43, 90]),
   midi.NoteOffEvent(tick=188, channel=0, data=[67, 127]),
   midi.NoteOffEvent(tick=0, channel=0, data=[62, 127]),
   midi.NoteOffEvent(tick=0, channel=0, data=[59, 127]),
   midi.NoteOffEvent(tick=0, channel=0, data=[53, 127]),
   midi.NoteOffEvent(tick=0, channel=0, data=[49, 127]),
   midi.NoteOffEvent(tick=0, channel=0, data=[43, 127]),
   midi.NoteOnEvent(tick=4, channel=0, data=[68, 90]),
   midi.NoteOffEvent(tick=188, channel=0, data=[68, 127]),
   midi.NoteOnEvent(tick=4, channel=0, data=[65, 90]),
   midi.NoteOffEvent(tick=188, channel=0, data=[65, 127]),
   midi.NoteOnEvent(tick=4, channel=0, data=[67, 90]),
   midi.NoteOffEvent(tick=188, channel=0, data=[67, 127]),
   midi.NoteOnEvent(tick=4, channel=0, data=[80, 90]),
   midi.NoteOnEvent(tick=0, channel=0, data=[68, 90]),
   midi.NoteOffEvent(tick=380, channel=0, data=[80, 127]),
   midi.NoteOffEvent(tick=0, channel=0, data=[68, 127]),
   midi.NoteOnEvent(tick=4, channel=0, data=[77, 90]),
   midi.NoteOnEvent(tick=0, channel=0, data=[65, 90]),
   midi.NoteOffEvent(tick=380, channel=0, data=[77, 127]),
   midi.NoteOffEvent(tick=0, channel=0, data=[65, 127]),
   midi.NoteOnEvent(tick=4, channel=0, data=[67, 90]),
   midi.NoteOnEvent(tick=0, channel=0, data=[62, 90]),
   midi.NoteOnEvent(tick=0, channel=0, data=[59, 90]),
   midi.NoteOnEvent(tick=0, channel=0, data=[53, 90]),
   midi.NoteOnEvent(tick=0, channel=0, data=[49, 90]),
   midi.NoteOnEvent(tick=0, channel=0, data=[43, 90]),
   midi.NoteOffEvent(tick=188, channel=0, data=[67, 127]),
   midi.NoteOffEvent(tick=0, channel=0, data=[62, 127]),
   midi.NoteOffEvent(tick=0, channel=0, data=[59, 127]),
   midi.NoteOffEvent(tick=0, channel=0, data=[53, 127]),
   midi.NoteOffEvent(tick=0, channel=0, data=[49, 127]),
   midi.NoteOffEvent(tick=0, channel=0, data=[43, 127]),
   midi.NoteOnEvent(tick=4, channel=0, data=[68, 90]),
   midi.NoteOffEvent(tick=188, channel=0, data=[68, 127]),
   midi.NoteOnEvent(tick=4, channel=0, data=[65, 90]),
   midi.NoteOffEvent(tick=188, channel=0, data=[65, 127]),
   midi.NoteOnEvent(tick=4, channel=0, data=[67, 90]),
   midi.NoteOffEvent(tick=188, channel=0, data=[67, 127]),
   midi.NoteOnEvent(tick=4, channel=0, data=[68, 90]),
   midi.NoteOnEvent(tick=0, channel=0, data=[56, 90]),
   midi.NoteOffEvent(tick=188, channel=0, data=[68, 127]),
   midi.NoteOffEvent(tick=0, channel=0, data=[56, 127]),
   midi.NoteOnEvent(tick=4, channel=0, data=[65, 90]),
   midi.NoteOnEvent(tick=0, channel=0, data=[53, 90]),
   midi.NoteOffEvent(tick=188, channel=0, data=[65, 127]),
   midi.NoteOffEvent(tick=0, channel=0, data=[53, 127]),
   midi.NoteOnEvent(tick=4, channel=0, data=[67, 90]),
   midi.NoteOnEvent(tick=0, channel=0, data=[55, 90]),
   midi.NoteOffEvent(tick=188, channel=0, data=[67, 127]),
   midi.NoteOffEvent(tick=0, channel=0, data=[55, 127]),
   midi.NoteOnEvent(tick=4, channel=0, data=[68, 90]),
   midi.NoteOnEvent(tick=0, channel=0, data=[56, 90]),
   midi.NoteOffEvent(tick=188, channel=0, data=[68, 127]),
   midi.NoteOffEvent(tick=0, channel=0, data=[56, 127]),
   midi.NoteOnEvent(tick=4, channel=0, data=[65, 90]),
   midi.NoteOnEvent(tick=0, channel=0, data=[53, 90]),
   midi.NoteOffEvent(tick=188, channel=0, data=[65, 127]),
   midi.NoteOffEvent(tick=0, channel=0, data=[53, 127]),
   midi.NoteOnEvent(tick=4, channel=0, data=[43, 90]),
   midi.NoteOnEvent(tick=0, channel=0, data=[55, 90]),
   midi.NoteOffEvent(tick=92, channel=0, data=[55, 127]),
   midi.NoteOnEvent(tick=4, channel=0, data=[55, 90]),
   midi.NoteOffEvent(tick=92, channel=0, data=[43, 127]),
   midi.NoteOffEvent(tick=0, channel=0, data=[55, 127]),
   midi.NoteOnEvent(tick=4, channel=0, data=[44, 90]),
   midi.NoteOnEvent(tick=0, channel=0, data=[56, 90]),
   midi.NoteOffEvent(tick=92, channel=0, data=[56, 127]),
   midi.NoteOnEvent(tick=4, channel=0, data=[56, 90]),
   midi.NoteOffEvent(tick=92, channel=0, data=[44, 127]),
   midi.NoteOffEvent(tick=0, channel=0, data=[56, 127]),
   midi.NoteOnEvent(tick=4, channel=0, data=[41, 90]),
   midi.NoteOnEvent(tick=0, channel=0, data=[53, 90]),
   midi.NoteOffEvent(tick=92, channel=0, data=[53, 127]),
   midi.NoteOnEvent(tick=4, channel=0, data=[53, 90]),
   midi.NoteOffEvent(tick=92, channel=0, data=[41, 127]),
   midi.NoteOffEvent(tick=0, channel=0, data=[53, 127]),
   midi.NoteOnEvent(tick=4, channel=0, data=[43, 90]),
   midi.NoteOnEvent(tick=0, channel=0, data=[55, 90]),
   midi.NoteOffEvent(tick=92, channel=0, data=[55, 127]),
   midi.NoteOnEvent(tick=4, channel=0, data=[55, 90]),
   midi.NoteOffEvent(tick=92, channel=0, data=[43, 127]),
   midi.NoteOffEvent(tick=0, channel=0, data=[55, 127]),
   midi.NoteOnEvent(tick=4, channel=0, data=[44, 90]),
   midi.NoteOnEvent(tick=0, channel=0, data=[56, 90]),
   midi.NoteOffEvent(tick=92, channel=0, data=[56, 127]),
   midi.NoteOnEvent(tick=4, channel=0, data=[56, 90]),
   midi.NoteOffEvent(tick=92, channel=0, data=[44, 127]),
   midi.NoteOffEvent(tick=0, channel=0, data=[56, 127]),
   midi.NoteOnEvent(tick=4, channel=0, data=[41, 90]),
   midi.NoteOnEvent(tick=0, channel=0, data=[53, 90]),
   midi.NoteOffEvent(tick=92, channel=0, data=[53, 127]),
   midi.NoteOnEvent(tick=4, channel=0, data=[53, 90]),
   midi.NoteOffEvent(tick=92, channel=0, data=[41, 127]),
   midi.NoteOffEvent(tick=0, channel=0, data=[53, 127]),
   midi.NoteOnEvent(tick=4, channel=0, data=[43, 90]),
   midi.NoteOnEvent(tick=0, channel=0, data=[55, 90]),
   midi.NoteOnEvent(tick=0, channel=0, data=[67, 90]),
   midi.NoteOffEvent(tick=188, channel=0, data=[43, 127]),
   midi.NoteOffEvent(tick=0, channel=0, data=[55, 127]),
   midi.NoteOffEvent(tick=0, channel=0, data=[67, 127]),
   midi.NoteOnEvent(tick=4, channel=0, data=[68, 90]),
   midi.NoteOnEvent(tick=0, channel=0, data=[56, 90]),
   midi.NoteOnEvent(tick=0, channel=0, data=[44, 90]),
   midi.NoteOffEvent(tick=380, channel=0, data=[68, 127]),
   midi.NoteOffEvent(tick=0, channel=0, data=[56, 127]),
   midi.NoteOffEvent(tick=0, channel=0, data=[44, 127]),
   midi.NoteOnEvent(tick=4, channel=0, data=[65, 90]),
   midi.NoteOnEvent(tick=0, channel=0, data=[53, 90]),
   midi.NoteOnEvent(tick=0, channel=0, data=[41, 90]),
   midi.NoteOffEvent(tick=380, channel=0, data=[65, 127]),
   midi.NoteOffEvent(tick=0, channel=0, data=[53, 127]),
   midi.NoteOffEvent(tick=0, channel=0, data=[41, 127]),
   midi.NoteOnEvent(tick=4, channel=0, data=[68, 90]),
   midi.NoteOnEvent(tick=0, channel=0, data=[44, 90]),
   midi.NoteOffEvent(tick=92, channel=0, data=[68, 127]),
   midi.NoteOnEvent(tick=4, channel=0, data=[68, 90]),
   midi.NoteOffEvent(tick=92, channel=0, data=[44, 127]),
   midi.NoteOffEvent(tick=0, channel=0, data=[68, 127]),
   midi.NoteOnEvent(tick=4, channel=0, data=[72, 90]),
   midi.NoteOnEvent(tick=0, channel=0, data=[48, 90]),
   midi.NoteOffEvent(tick=92, channel=0, data=[72, 127]),
   midi.NoteOnEvent(tick=4, channel=0, data=[72, 90]),
   midi.NoteOffEvent(tick=92, channel=0, data=[48, 127]),
   midi.NoteOffEvent(tick=0, channel=0, data=[72, 127]),
   midi.NoteOnEvent(tick=4, channel=0, data=[75, 90]),
   midi.NoteOnEvent(tick=0, channel=0, data=[51, 90]),
   midi.NoteOffEvent(tick=92, channel=0, data=[75, 127]),
   midi.NoteOnEvent(tick=4, channel=0, data=[75, 90]),
   midi.NoteOffEvent(tick=92, channel=0, data=[51, 127]),
   midi.NoteOffEvent(tick=0, channel=0, data=[75, 127]),
   midi.NoteOnEvent(tick=4, channel=0, data=[76, 90]),
   midi.NoteOnEvent(tick=0, channel=0, data=[52, 90]),
   midi.NoteOffEvent(tick=188, channel=0, data=[76, 127]),
   midi.NoteOffEvent(tick=0, channel=0, data=[52, 127]),
   midi.NoteOnEvent(tick=4, channel=0, data=[64, 90]),
   midi.NoteOffEvent(tick=188, channel=0, data=[64, 127]),
   midi.NoteOnEvent(tick=196, channel=0, data=[64, 90]),
   midi.NoteOnEvent(tick=0, channel=0, data=[52, 90]),
   midi.NoteOffEvent(tick=188, channel=0, data=[64, 127]),
   midi.NoteOffEvent(tick=0, channel=0, data=[52, 127]),
   midi.NoteOnEvent(tick=4, channel=0, data=[52, 90]),
   midi.NoteOnEvent(tick=0, channel=0, data=[40, 90]),
   midi.NoteOffEvent(tick=188, channel=0, data=[52, 127]),
   midi.NoteOffEvent(tick=0, channel=0, data=[40, 127]),
   midi.NoteOnEvent(tick=196, channel=0, data=[40, 70]),
   midi.NoteOnEvent(tick=192, channel=0, data=[47, 73]),
   midi.NoteOffEvent(tick=380, channel=0, data=[47, 127]),
   midi.NoteOnEvent(tick=4, channel=0, data=[51, 79]),
   midi.NoteOffEvent(tick=188, channel=0, data=[51, 127]),
   midi.NoteOnEvent(tick=4, channel=0, data=[52, 82]),
   midi.NoteOffEvent(tick=188, channel=0, data=[52, 127]),
   midi.NoteOnEvent(tick=4, channel=0, data=[56, 85]),
   midi.NoteOffEvent(tick=188, channel=0, data=[40, 127]),
   midi.NoteOffEvent(tick=0, channel=0, data=[56, 127]),
   midi.NoteOnEvent(tick=4, channel=0, data=[58, 89]),
   midi.NoteOffEvent(tick=188, channel=0, data=[58, 127]),
   midi.NoteOnEvent(tick=4, channel=0, data=[59, 92]),
   midi.NoteOffEvent(tick=188, channel=0, data=[59, 127]),
   midi.NoteOnEvent(tick=4, channel=0, data=[63, 95]),
   midi.NoteOffEvent(tick=188, channel=0, data=[63, 127]),
   midi.NoteOnEvent(tick=4, channel=0, data=[64, 98]),
   midi.NoteOffEvent(tick=188, channel=0, data=[64, 127]),
   midi.NoteOnEvent(tick=4, channel=0, data=[68, 101]),
   midi.NoteOnEvent(tick=96, channel=0, data=[71, 103]),
   midi.NoteOffEvent(tick=92, channel=0, data=[68, 127]),
   midi.NoteOnEvent(tick=4, channel=0, data=[75, 104]),
   midi.NoteOffEvent(tick=92, channel=0, data=[71, 127]),
   midi.NoteOnEvent(tick=4, channel=0, data=[76, 106]),
   midi.NoteOffEvent(tick=92, channel=0, data=[75, 127]),
   midi.NoteOnEvent(tick=4, channel=0, data=[80, 108]),
   midi.NoteOffEvent(tick=120, channel=0, data=[76, 127]),
   midi.NoteOffEvent(tick=68, channel=0, data=[80, 127]),
   midi.NoteOnEvent(tick=4, channel=0, data=[76, 111]),
   midi.NoteOffEvent(tick=60, channel=0, data=[76, 127]),
   midi.NoteOnEvent(tick=4, channel=0, data=[80, 112]),
   midi.NoteOffEvent(tick=60, channel=0, data=[80, 127]),
   midi.NoteOnEvent(tick=4, channel=0, data=[76, 113]),
   midi.NoteOffEvent(tick=60, channel=0, data=[76, 127]),
   midi.NoteOnEvent(tick=4, channel=0, data=[68, 114]),
   midi.NoteOffEvent(tick=380, channel=0, data=[68, 127]),
   midi.NoteOnEvent(tick=196, channel=0, data=[68, 123]),
   midi.NoteOffEvent(tick=60, channel=0, data=[68, 127]),
   midi.NoteOnEvent(tick=4, channel=0, data=[64, 80]),
   midi.NoteOffEvent(tick=60, channel=0, data=[64, 127]),
   midi.NoteOnEvent(tick=4, channel=0, data=[63, 90]),
   midi.NoteOffEvent(tick=60, channel=0, data=[63, 127]),
   midi.NoteOnEvent(tick=4, channel=0, data=[56, 90]),
   midi.NoteOffEvent(tick=188, channel=0, data=[56, 127]),
   midi.NoteOnEvent(tick=4, channel=0, data=[65, 90]),
   midi.NoteOffEvent(tick=60, channel=0, data=[65, 127]),
   midi.NoteOnEvent(tick=4, channel=0, data=[63, 90]),
   midi.NoteOffEvent(tick=60, channel=0, data=[63, 127]),
   midi.NoteOnEvent(tick=4, channel=0, data=[56, 80]),
   midi.NoteOffEvent(tick=60, channel=0, data=[56, 127]),
   midi.NoteOnEvent(tick=4, channel=0, data=[49, 90]),
   midi.NoteOnEvent(tick=192, channel=0, data=[56, 90]),
   midi.NoteOffEvent(tick=380, channel=0, data=[56, 127]),
   midi.NoteOnEvent(tick=4, channel=0, data=[60, 90]),
   midi.NoteOnEvent(tick=192, channel=0, data=[63, 90]),
   midi.NoteOnEvent(tick=192, channel=0, data=[64, 90]),
   midi.NoteOffEvent(tick=88, channel=0, data=[60, 127]),
   midi.NoteOffEvent(tick=100, channel=0, data=[49, 127]),
   midi.NoteOffEvent(tick=0, channel=0, data=[63, 127]),
   midi.NoteOnEvent(tick=4, channel=0, data=[63, 90]),
   midi.NoteOffEvent(tick=188, channel=0, data=[64, 127]),
   midi.NoteOnEvent(tick=4, channel=0, data=[64, 90]),
   midi.NoteOffEvent(tick=188, channel=0, data=[63, 127]),
   midi.NoteOnEvent(tick=4, channel=0, data=[63, 90]),
   midi.NoteOffEvent(tick=188, channel=0, data=[64, 127]),
   midi.NoteOffEvent(tick=0, channel=0, data=[63, 127]),
   midi.NoteOnEvent(tick=4, channel=0, data=[64, 90]),
   midi.NoteOffEvent(tick=188, channel=0, data=[64, 127]),
   midi.NoteOnEvent(tick=4, channel=0, data=[63, 90]),
   midi.NoteOffEvent(tick=64, channel=0, data=[63, 127]),
   midi.NoteOnEvent(tick=32, channel=0, data=[64, 90]),
   midi.NoteOffEvent(tick=64, channel=0, data=[64, 127]),
   midi.NoteOnEvent(tick=32, channel=0, data=[68, 90]),
   midi.NoteOnEvent(tick=192, channel=0, data=[63, 90]),
   midi.NoteOffEvent(tick=40, channel=0, data=[63, 127]),
   midi.NoteOffEvent(tick=24, channel=0, data=[68, 127]),
   midi.NoteOnEvent(tick=0, channel=0, data=[61, 90]),
   midi.NoteOffEvent(tick=40, channel=0, data=[61, 127]),
   midi.NoteOnEvent(tick=24, channel=0, data=[60, 90]),
   midi.NoteOffEvent(tick=40, channel=0, data=[60, 127]),
   midi.NoteOnEvent(tick=24, channel=0, data=[56, 90]),
   midi.NoteOffEvent(tick=128, channel=0, data=[56, 127]),
   midi.NoteOnEvent(tick=64, channel=0, data=[64, 90]),
   midi.NoteOffEvent(tick=40, channel=0, data=[64, 127]),
   midi.NoteOnEvent(tick=24, channel=0, data=[61, 90]),
   midi.NoteOffEvent(tick=40, channel=0, data=[61, 127]),
   midi.NoteOnEvent(tick=24, channel=0, data=[60, 90]),
   midi.NoteOffEvent(tick=40, channel=0, data=[60, 127]),
   midi.NoteOnEvent(tick=24, channel=0, data=[56, 90]),
   midi.NoteOffEvent(tick=128, channel=0, data=[56, 127]),
   midi.NoteOnEvent(tick=64, channel=0, data=[64, 90]),
   midi.NoteOffEvent(tick=64, channel=0, data=[64, 127]),
   midi.NoteOnEvent(tick=0, channel=0, data=[61, 90]),
   midi.NoteOffEvent(tick=64, channel=0, data=[61, 127]),
   midi.NoteOnEvent(tick=0, channel=0, data=[60, 90]),
   midi.NoteOffEvent(tick=64, channel=0, data=[60, 127]),
   midi.NoteOnEvent(tick=0, channel=0, data=[55, 90]),
   midi.NoteOffEvent(tick=128, channel=0, data=[55, 127]),
   midi.NoteOnEvent(tick=64, channel=0, data=[64, 90]),
   midi.NoteOffEvent(tick=128, channel=0, data=[64, 127]),
   midi.NoteOnEvent(tick=64, channel=0, data=[64, 90]),
   midi.NoteOffEvent(tick=40, channel=0, data=[64, 127]),
   midi.NoteOnEvent(tick=24, channel=0, data=[61, 90]),
   midi.NoteOffEvent(tick=40, channel=0, data=[61, 127]),
   midi.NoteOnEvent(tick=24, channel=0, data=[60, 90]),
   midi.NoteOffEvent(tick=40, channel=0, data=[60, 127]),
   midi.NoteOnEvent(tick=24, channel=0, data=[55, 90]),
   midi.NoteOffEvent(tick=64, channel=0, data=[55, 127]),
   midi.NoteOnEvent(tick=32, channel=0, data=[54, 90]),
   midi.NoteOffEvent(tick=64, channel=0, data=[54, 127]),
   midi.NoteOnEvent(tick=32, channel=0, data=[54, 90]),
   midi.NoteOffEvent(tick=64, channel=0, data=[54, 127]),
   midi.NoteOnEvent(tick=32, channel=0, data=[42, 90]),
   midi.NoteOffEvent(tick=64, channel=0, data=[42, 127]),
   midi.NoteOnEvent(tick=32, channel=0, data=[47, 70]),
   midi.NoteOnEvent(tick=192, channel=0, data=[50, 73]),
   midi.NoteOffEvent(tick=320, channel=0, data=[47, 127]),
   midi.NoteOnEvent(tick=64, channel=0, data=[51, 80]),
   midi.NoteOnEvent(tick=192, channel=0, data=[53, 84]),
   midi.NoteOffEvent(tick=64, channel=0, data=[51, 127]),
   midi.NoteOnEvent(tick=128, channel=0, data=[54, 87]),
   midi.NoteOffEvent(tick=64, channel=0, data=[53, 127]),
   midi.NoteOnEvent(tick=128, channel=0, data=[58, 91]),
   midi.NoteOffEvent(tick=64, channel=0, data=[50, 127]),
   midi.NoteOffEvent(tick=0, channel=0, data=[54, 127]),
   midi.NoteOnEvent(tick=128, channel=0, data=[59, 94]),
   midi.NoteOffEvent(tick=64, channel=0, data=[58, 127]),
   midi.NoteOffEvent(tick=128, channel=0, data=[59, 127]),
   midi.NoteOnEvent(tick=0, channel=0, data=[62, 98]),
   midi.NoteOffEvent(tick=192, channel=0, data=[62, 127]),
   midi.NoteOnEvent(tick=0, channel=0, data=[63, 102]),
   midi.NoteOffEvent(tick=192, channel=0, data=[63, 127]),
   midi.NoteOnEvent(tick=0, channel=0, data=[65, 105]),
   midi.NoteOnEvent(tick=96, channel=0, data=[66, 107]),
   midi.NoteOffEvent(tick=96, channel=0, data=[65, 127]),
   midi.NoteOnEvent(tick=0, channel=0, data=[70, 109]),
   midi.NoteOffEvent(tick=96, channel=0, data=[66, 127]),
   midi.NoteOnEvent(tick=0, channel=0, data=[71, 111]),
   midi.NoteOffEvent(tick=96, channel=0, data=[70, 127]),
   midi.NoteOnEvent(tick=0, channel=0, data=[70, 112]),
   midi.NoteOffEvent(tick=96, channel=0, data=[71, 127]),
   midi.NoteOnEvent(tick=0, channel=0, data=[71, 114]),
   midi.NoteOffEvent(tick=32, channel=0, data=[70, 127]),
   midi.NoteOnEvent(tick=64, channel=0, data=[78, 116]),
   midi.NoteOffEvent(tick=32, channel=0, data=[71, 127]),
   midi.NoteOffEvent(tick=224, channel=0, data=[78, 127]),
   midi.NoteOnEvent(tick=128, channel=0, data=[74, 123]),
   midi.NoteOnEvent(tick=96, channel=0, data=[75, 125]),
   midi.NoteOffEvent(tick=32, channel=0, data=[74, 127]),
   midi.NoteOnEvent(tick=64, channel=0, data=[78, 90]),
   midi.NoteOffEvent(tick=32, channel=0, data=[75, 127]),
   midi.NoteOffEvent(tick=96, channel=0, data=[78, 127]),
   midi.NoteOnEvent(tick=64, channel=0, data=[74, 90]),
   midi.NoteOnEvent(tick=96, channel=0, data=[75, 90]),
   midi.NoteOffEvent(tick=32, channel=0, data=[74, 127]),
   midi.NoteOnEvent(tick=64, channel=0, data=[78, 127]),
   midi.NoteOffEvent(tick=32, channel=0, data=[75, 127]),
   midi.NoteOnEvent(tick=160, channel=0, data=[74, 90]),
   midi.NoteOffEvent(tick=64, channel=0, data=[78, 127]),
   midi.NoteOnEvent(tick=128, channel=0, data=[65, 90]),
   midi.NoteOffEvent(tick=64, channel=0, data=[74, 127]),
   midi.NoteOnEvent(tick=128, channel=0, data=[66, 127]),
   midi.NoteOffEvent(tick=64, channel=0, data=[65, 127]),
   midi.NoteOnEvent(tick=128, channel=0, data=[62, 90]),
   midi.NoteOffEvent(tick=64, channel=0, data=[66, 127]),
   midi.NoteOnEvent(tick=128, channel=0, data=[53, 90]),
   midi.NoteOffEvent(tick=64, channel=0, data=[62, 127]),
   midi.NoteOnEvent(tick=128, channel=0, data=[66, 127]),
   midi.NoteOffEvent(tick=64, channel=0, data=[53, 127]),
   midi.NoteOnEvent(tick=128, channel=0, data=[62, 90]),
   midi.NoteOffEvent(tick=64, channel=0, data=[66, 127]),
   midi.NoteOnEvent(tick=128, channel=0, data=[53, 90]),
   midi.NoteOffEvent(tick=64, channel=0, data=[62, 127]),
   midi.NoteOffEvent(tick=64, channel=0, data=[53, 127]),
   midi.NoteOnEvent(tick=64, channel=0, data=[53, 90]),
   midi.NoteOnEvent(tick=96, channel=0, data=[62, 90]),
   midi.NoteOffEvent(tick=32, channel=0, data=[53, 127]),
   midi.NoteOnEvent(tick=64, channel=0, data=[66, 90]),
   midi.NoteOffEvent(tick=32, channel=0, data=[62, 127]),
   midi.NoteOffEvent(tick=32, channel=0, data=[66, 127]),
   midi.NoteOnEvent(tick=32, channel=0, data=[65, 90]),
   midi.NoteOffEvent(tick=64, channel=0, data=[65, 127]),
   midi.NoteOnEvent(tick=32, channel=0, data=[65, 90]),
   midi.NoteOffEvent(tick=64, channel=0, data=[65, 127]),
   midi.NoteOnEvent(tick=32, channel=0, data=[52, 90]),
   midi.NoteOffEvent(tick=64, channel=0, data=[52, 127]),
   midi.NoteOnEvent(tick=32, channel=0, data=[45, 90]),
   midi.NoteOnEvent(tick=192, channel=0, data=[51, 90]),
   midi.NoteOnEvent(tick=384, channel=0, data=[52, 90]),
   midi.NoteOffEvent(tick=128, channel=0, data=[51, 127]),
   midi.NoteOffEvent(tick=64, channel=0, data=[45, 127]),
   midi.NoteOnEvent(tick=0, channel=0, data=[56, 90]),
   midi.NoteOffEvent(tick=64, channel=0, data=[52, 127]),
   midi.NoteOnEvent(tick=128, channel=0, data=[57, 90]),
   midi.NoteOffEvent(tick=64, channel=0, data=[56, 127]),
   midi.NoteOnEvent(tick=128, channel=0, data=[63, 90]),
   midi.NoteOffEvent(tick=40, channel=0, data=[57, 127]),
   midi.NoteOnEvent(tick=152, channel=0, data=[64, 90]),
   midi.NoteOffEvent(tick=64, channel=0, data=[63, 127]),
   midi.NoteOnEvent(tick=128, channel=0, data=[68, 90]),
   midi.NoteOffEvent(tick=64, channel=0, data=[64, 127]),
   midi.NoteOnEvent(tick=128, channel=0, data=[69, 90]),
   midi.NoteOffEvent(tick=64, channel=0, data=[68, 127]),
   midi.NoteOnEvent(tick=128, channel=0, data=[68, 90]),
   midi.NoteOffEvent(tick=96, channel=0, data=[69, 127]),
   midi.NoteOnEvent(tick=0, channel=0, data=[69, 90]),
   midi.NoteOffEvent(tick=32, channel=0, data=[68, 127]),
   midi.NoteOnEvent(tick=64, channel=0, data=[76, 90]),
   midi.NoteOffEvent(tick=32, channel=0, data=[69, 127]),
   midi.NoteOffEvent(tick=224, channel=0, data=[76, 127]),
   midi.NoteOnEvent(tick=128, channel=0, data=[72, 90]),
   midi.NoteOnEvent(tick=96, channel=0, data=[73, 90]),
   midi.NoteOffEvent(tick=32, channel=0, data=[72, 127]),
   midi.NoteOnEvent(tick=64, channel=0, data=[76, 90]),
   midi.NoteOffEvent(tick=32, channel=0, data=[73, 127]),
   midi.NoteOffEvent(tick=96, channel=0, data=[76, 127]),
   midi.NoteOnEvent(tick=64, channel=0, data=[72, 90]),
   midi.NoteOnEvent(tick=96, channel=0, data=[73, 90]),
   midi.NoteOffEvent(tick=32, channel=0, data=[72, 127]),
   midi.NoteOnEvent(tick=64, channel=0, data=[76, 90]),
   midi.NoteOffEvent(tick=32, channel=0, data=[73, 127]),
   midi.NoteOnEvent(tick=160, channel=0, data=[72, 90]),
   midi.NoteOffEvent(tick=64, channel=0, data=[76, 127]),
   midi.NoteOnEvent(tick=128, channel=0, data=[63, 90]),
   midi.NoteOffEvent(tick=64, channel=0, data=[72, 127]),
   midi.NoteOnEvent(tick=128, channel=0, data=[51, 90]),
   midi.NoteOffEvent(tick=64, channel=0, data=[63, 127]),
   midi.NoteOffEvent(tick=0, channel=0, data=[51, 127]),
   midi.NoteOnEvent(tick=32, channel=0, data=[52, 90]),
   midi.NoteOffEvent(tick=64, channel=0, data=[52, 127]),
   midi.NoteOnEvent(tick=32, channel=0, data=[52, 90]),
   midi.NoteOffEvent(tick=64, channel=0, data=[52, 127]),
   midi.NoteOnEvent(tick=32, channel=0, data=[51, 90]),
   midi.NoteOffEvent(tick=64, channel=0, data=[51, 127]),
   midi.NoteOnEvent(tick=32, channel=0, data=[51, 90]),
   midi.NoteOffEvent(tick=64, channel=0, data=[51, 127]),
   midi.NoteOnEvent(tick=32, channel=0, data=[50, 90]),
   midi.NoteOffEvent(tick=64, channel=0, data=[50, 127]),
   midi.NoteOnEvent(tick=32, channel=0, data=[43, 90]),
   midi.NoteOnEvent(tick=576, channel=0, data=[50, 90]),
   midi.NoteOnEvent(tick=192, channel=0, data=[58, 90]),
   midi.NoteOffEvent(tick=64, channel=0, data=[50, 127]),
   midi.NoteOffEvent(tick=128, channel=0, data=[43, 127]),
   midi.NoteOnEvent(tick=0, channel=0, data=[59, 90]),
   midi.NoteOffEvent(tick=64, channel=0, data=[58, 127]),
   midi.NoteOnEvent(tick=128, channel=0, data=[61, 90]),
   midi.NoteOffEvent(tick=64, channel=0, data=[59, 127]),
   midi.NoteOffEvent(tick=64, channel=0, data=[61, 127]),
   midi.NoteOnEvent(tick=64, channel=0, data=[62, 90]),
   midi.NoteOffEvent(tick=128, channel=0, data=[62, 127]),
   midi.NoteOnEvent(tick=64, channel=0, data=[66, 90]),
   midi.NoteOffEvent(tick=64, channel=0, data=[66, 127]),
   midi.NoteOnEvent(tick=32, channel=0, data=[67, 90]),
   midi.NoteOffEvent(tick=64, channel=0, data=[67, 127]),
   midi.NoteOnEvent(tick=32, channel=0, data=[70, 90]),
   midi.NoteOffEvent(tick=64, channel=0, data=[70, 127]),
   midi.NoteOnEvent(tick=32, channel=0, data=[71, 90]),
   midi.NoteOffEvent(tick=64, channel=0, data=[71, 127]),
   midi.NoteOnEvent(tick=32, channel=0, data=[70, 90]),
   midi.NoteOnEvent(tick=96, channel=0, data=[71, 90]),
   midi.NoteOffEvent(tick=28, channel=0, data=[70, 127]),
   midi.NoteOnEvent(tick=68, channel=0, data=[74, 90]),
   midi.NoteOffEvent(tick=28, channel=0, data=[71, 127]),
   midi.NoteOffEvent(tick=356, channel=0, data=[74, 127]),
   midi.NoteOnEvent(tick=0, channel=0, data=[70, 90]),
   midi.NoteOnEvent(tick=192, channel=0, data=[61, 90]),
   midi.NoteOffEvent(tick=192, channel=0, data=[70, 127]),
   midi.NoteOnEvent(tick=0, channel=0, data=[62, 90]),
   midi.NoteOffEvent(tick=192, channel=0, data=[61, 127]),
   midi.NoteOnEvent(tick=0, channel=0, data=[74, 127]),
   midi.NoteOnEvent(tick=96, channel=0, data=[70, 90]),
   midi.NoteOffEvent(tick=64, channel=0, data=[70, 127]),
   midi.NoteOnEvent(tick=32, channel=0, data=[61, 90]),
   midi.NoteOffEvent(tick=64, channel=0, data=[62, 127]),
   midi.NoteOffEvent(tick=0, channel=0, data=[74, 127]),
   midi.NoteOffEvent(tick=0, channel=0, data=[61, 127]),
   midi.NoteOnEvent(tick=32, channel=0, data=[62, 90]),
   midi.NoteOffEvent(tick=64, channel=0, data=[62, 127]),
   midi.NoteOnEvent(tick=32, channel=0, data=[74, 127]),
   midi.NoteOnEvent(tick=96, channel=0, data=[70, 90]),
   midi.NoteOffEvent(tick=64, channel=0, data=[70, 127]),
   midi.NoteOnEvent(tick=32, channel=0, data=[61, 90]),
   midi.NoteOffEvent(tick=64, channel=0, data=[74, 127]),
   midi.NoteOffEvent(tick=0, channel=0, data=[61, 127]),
   midi.NoteOnEvent(tick=32, channel=0, data=[62, 90]),
   midi.NoteOffEvent(tick=64, channel=0, data=[62, 127]),
   midi.NoteOnEvent(tick=32, channel=0, data=[74, 127]),
   midi.NoteOnEvent(tick=96, channel=0, data=[70, 90]),
   midi.NoteOffEvent(tick=64, channel=0, data=[70, 127]),
   midi.NoteOnEvent(tick=32, channel=0, data=[61, 90]),
   midi.NoteOffEvent(tick=64, channel=0, data=[74, 127]),
   midi.NoteOffEvent(tick=0, channel=0, data=[61, 127]),
   midi.NoteOnEvent(tick=32, channel=0, data=[62, 90]),
   midi.NoteOffEvent(tick=64, channel=0, data=[62, 127]),
   midi.NoteOnEvent(tick=32, channel=0, data=[62, 127]),
   midi.NoteOnEvent(tick=96, channel=0, data=[61, 90]),
   midi.NoteOffEvent(tick=64, channel=0, data=[61, 127]),
   midi.NoteOnEvent(tick=32, channel=0, data=[61, 90]),
   midi.NoteOffEvent(tick=64, channel=0, data=[62, 127]),
   midi.NoteOffEvent(tick=0, channel=0, data=[61, 127]),
   midi.NoteOnEvent(tick=32, channel=0, data=[60, 90]),
   midi.NoteOffEvent(tick=64, channel=0, data=[60, 127]),
   midi.NoteOnEvent(tick=32, channel=0, data=[41, 90]),
   midi.NoteOnEvent(tick=192, channel=0, data=[47, 90]),
   midi.NoteOffEvent(tick=380, channel=0, data=[47, 127]),
   midi.NoteOnEvent(tick=4, channel=0, data=[48, 90]),
   midi.NoteOnEvent(tick=192, channel=0, data=[52, 90]),
   midi.NoteOffEvent(tick=188, channel=0, data=[48, 127]),
   midi.NoteOnEvent(tick=4, channel=0, data=[53, 90]),
   midi.NoteOffEvent(tick=188, channel=0, data=[41, 127]),
   midi.NoteOffEvent(tick=0, channel=0, data=[52, 127]),
   midi.NoteOnEvent(tick=4, channel=0, data=[56, 90]),
   midi.NoteOffEvent(tick=188, channel=0, data=[53, 127]),
   midi.NoteOnEvent(tick=4, channel=0, data=[57, 90]),
   midi.NoteOffEvent(tick=188, channel=0, data=[56, 127]),
   midi.NoteOnEvent(tick=4, channel=0, data=[59, 90]),
   midi.NoteOffEvent(tick=188, channel=0, data=[57, 127]),
   midi.NoteOnEvent(tick=4, channel=0, data=[60, 90]),
   midi.NoteOffEvent(tick=188, channel=0, data=[59, 127]),
   midi.NoteOnEvent(tick=4, channel=0, data=[64, 90]),
   midi.NoteOnEvent(tick=96, channel=0, data=[65, 90]),
   midi.NoteOffEvent(tick=44, channel=0, data=[64, 127]),
   midi.NoteOffEvent(tick=48, channel=0, data=[60, 127]),
   midi.NoteOnEvent(tick=4, channel=0, data=[68, 90]),
   midi.NoteOffEvent(tick=44, channel=0, data=[65, 127]),
   midi.NoteOnEvent(tick=52, channel=0, data=[69, 90]),
   midi.NoteOffEvent(tick=44, channel=0, data=[68, 127]),
   midi.NoteOnEvent(tick=52, channel=0, data=[46, 90]),
   midi.NoteOffEvent(tick=44, channel=0, data=[69, 127]),
   midi.NoteOnEvent(tick=148, channel=0, data=[61, 90]),
   midi.NoteOnEvent(tick=0, channel=0, data=[69, 90]),
   midi.NoteOnEvent(tick=0, channel=0, data=[72, 90]),
   midi.NoteOffEvent(tick=380, channel=0, data=[46, 127]),
   midi.NoteOnEvent(tick=4, channel=0, data=[72, 90]),
   midi.NoteOnEvent(tick=0, channel=0, data=[68, 90]),
   midi.NoteOnEvent(tick=0, channel=0, data=[61, 90]),
   midi.NoteOffEvent(tick=188, channel=0, data=[61, 127]),
   midi.NoteOffEvent(tick=0, channel=0, data=[69, 127]),
   midi.NoteOffEvent(tick=0, channel=0, data=[72, 127]),
   midi.NoteOnEvent(tick=4, channel=0, data=[51, 90]),
   midi.NoteOnEvent(tick=192, channel=0, data=[67, 90]),
   midi.NoteOnEvent(tick=0, channel=0, data=[71, 90]),
   midi.NoteOnEvent(tick=0, channel=0, data=[61, 90]),
   midi.NoteOffEvent(tick=188, channel=0, data=[72, 127]),
   midi.NoteOffEvent(tick=0, channel=0, data=[68, 127]),
   midi.NoteOffEvent(tick=0, channel=0, data=[61, 127]),
   midi.NoteOnEvent(tick=4, channel=0, data=[44, 90]),
   midi.NoteOnEvent(tick=192, channel=0, data=[70, 90]),
   midi.NoteOnEvent(tick=0, channel=0, data=[67, 90]),
   midi.NoteOnEvent(tick=0, channel=0, data=[59, 90]),
   midi.NoteOffEvent(tick=120, channel=0, data=[51, 127]),
   midi.NoteOffEvent(tick=136, channel=0, data=[67, 127]),
   midi.NoteOffEvent(tick=0, channel=0, data=[70, 127]),
   midi.NoteOffEvent(tick=0, channel=0, data=[59, 127]),
   midi.NoteOnEvent(tick=128, channel=0, data=[51, 90]),
   midi.NoteOffEvent(tick=56, channel=0, data=[61, 127]),
   midi.NoteOffEvent(tick=0, channel=0, data=[71, 127]),
   midi.NoteOffEvent(tick=0, channel=0, data=[67, 127]),
   midi.NoteOnEvent(tick=136, channel=0, data=[58, 90]),
   midi.NoteOffEvent(tick=92, channel=0, data=[51, 127]),
   midi.NoteOffEvent(tick=92, channel=0, data=[44, 127]),
   midi.NoteOnEvent(tick=8, channel=0, data=[59, 90]),
   midi.NoteOffEvent(tick=92, channel=0, data=[58, 127]),
   midi.NoteOnEvent(tick=100, channel=0, data=[63, 90]),
   midi.NoteOffEvent(tick=92, channel=0, data=[59, 127]),
   midi.NoteOnEvent(tick=100, channel=0, data=[67, 90]),
   midi.NoteOffEvent(tick=92, channel=0, data=[63, 127]),
   midi.NoteOnEvent(tick=100, channel=0, data=[63, 90]),
   midi.NoteOffEvent(tick=92, channel=0, data=[67, 127]),
   midi.NoteOnEvent(tick=4, channel=0, data=[67, 90]),
   midi.NoteOffEvent(tick=44, channel=0, data=[63, 127]),
   midi.NoteOnEvent(tick=52, channel=0, data=[70, 90]),
   midi.NoteOffEvent(tick=44, channel=0, data=[67, 127]),
   midi.NoteOnEvent(tick=52, channel=0, data=[71, 90]),
   midi.NoteOffEvent(tick=44, channel=0, data=[70, 127]),
   midi.NoteOnEvent(tick=52, channel=0, data=[49, 90]),
   midi.NoteOffEvent(tick=24, channel=0, data=[71, 127]),
   midi.NoteOnEvent(tick=168, channel=0, data=[75, 90]),
   midi.NoteOnEvent(tick=0, channel=0, data=[72, 90]),
   midi.NoteOnEvent(tick=0, channel=0, data=[64, 90]),
   midi.NoteOffEvent(tick=148, channel=0, data=[49, 127]),
   midi.NoteOffEvent(tick=232, channel=0, data=[75, 127]),
   midi.NoteOffEvent(tick=0, channel=0, data=[72, 127]),
   midi.NoteOffEvent(tick=0, channel=0, data=[64, 127]),
   midi.NoteOnEvent(tick=4, channel=0, data=[75, 90]),
   midi.NoteOnEvent(tick=0, channel=0, data=[71, 90]),
   midi.NoteOnEvent(tick=0, channel=0, data=[64, 90]),
   midi.NoteOnEvent(tick=192, channel=0, data=[54, 90]),
   midi.NoteOffEvent(tick=188, channel=0, data=[75, 127]),
   midi.NoteOffEvent(tick=0, channel=0, data=[71, 127]),
   midi.NoteOffEvent(tick=0, channel=0, data=[64, 127]),
   midi.NoteOnEvent(tick=4, channel=0, data=[74, 90]),
   midi.NoteOnEvent(tick=0, channel=0, data=[70, 90]),
   midi.NoteOnEvent(tick=0, channel=0, data=[64, 90]),
   midi.NoteOnEvent(tick=192, channel=0, data=[47, 90]),
   midi.NoteOnEvent(tick=192, channel=0, data=[73, 90]),
   midi.NoteOnEvent(tick=0, channel=0, data=[70, 90]),
   midi.NoteOnEvent(tick=0, channel=0, data=[62, 90]),
   midi.NoteOffEvent(tick=120, channel=0, data=[54, 127]),
   midi.NoteOffEvent(tick=0, channel=0, data=[64, 127]),
   midi.NoteOffEvent(tick=0, channel=0, data=[70, 127]),
   midi.NoteOffEvent(tick=0, channel=0, data=[74, 127]),
   midi.NoteOffEvent(tick=260, channel=0, data=[47, 127]),
   midi.NoteOffEvent(tick=0, channel=0, data=[73, 127]),
   midi.NoteOffEvent(tick=0, channel=0, data=[70, 127]),
   midi.NoteOffEvent(tick=0, channel=0, data=[62, 127]),
   midi.NoteOnEvent(tick=4, channel=0, data=[54, 90]),
   midi.NoteOnEvent(tick=192, channel=0, data=[61, 90]),
   midi.NoteOffEvent(tick=92, channel=0, data=[54, 127]),
   midi.NoteOnEvent(tick=100, channel=0, data=[62, 90]),
   midi.NoteOffEvent(tick=92, channel=0, data=[61, 127]),
   midi.NoteOnEvent(tick=100, channel=0, data=[66, 90]),
   midi.NoteOffEvent(tick=92, channel=0, data=[62, 127]),
   midi.NoteOnEvent(tick=100, channel=0, data=[69, 90]),
   midi.NoteOffEvent(tick=92, channel=0, data=[66, 127]),
   midi.NoteOnEvent(tick=100, channel=0, data=[66, 90]),
   midi.NoteOffEvent(tick=92, channel=0, data=[69, 127]),
   midi.NoteOnEvent(tick=4, channel=0, data=[69, 90]),
   midi.NoteOffEvent(tick=44, channel=0, data=[66, 127]),
   midi.NoteOnEvent(tick=52, channel=0, data=[73, 90]),
   midi.NoteOffEvent(tick=44, channel=0, data=[69, 127]),
   midi.NoteOnEvent(tick=52, channel=0, data=[74, 90]),
   midi.NoteOffEvent(tick=44, channel=0, data=[73, 127]),
   midi.NoteOnEvent(tick=52, channel=0, data=[40, 90]),
   midi.NoteOffEvent(tick=44, channel=0, data=[74, 127]),
   midi.NoteOnEvent(tick=148, channel=0, data=[78, 90]),
   midi.NoteOnEvent(tick=0, channel=0, data=[67, 90]),
   midi.NoteOnEvent(tick=0, channel=0, data=[75, 90]),
   midi.NoteOffEvent(tick=256, channel=0, data=[75, 127]),
   midi.NoteOffEvent(tick=28, channel=0, data=[78, 127]),
   midi.NoteOffEvent(tick=0, channel=0, data=[67, 127]),
   midi.NoteOffEvent(tick=96, channel=0, data=[40, 127]),
   midi.NoteOnEvent(tick=4, channel=0, data=[67, 90]),
   midi.NoteOnEvent(tick=0, channel=0, data=[74, 90]),
   midi.NoteOnEvent(tick=0, channel=0, data=[78, 90]),
   midi.NoteOnEvent(tick=192, channel=0, data=[45, 90]),
   midi.NoteOffEvent(tick=92, channel=0, data=[67, 127]),
   midi.NoteOffEvent(tick=0, channel=0, data=[74, 127]),
   midi.NoteOffEvent(tick=0, channel=0, data=[78, 127]),
   midi.NoteOnEvent(tick=100, channel=0, data=[67, 90]),
   midi.NoteOnEvent(tick=0, channel=0, data=[73, 90]),
   midi.NoteOnEvent(tick=0, channel=0, data=[77, 90]),
   midi.NoteOnEvent(tick=192, channel=0, data=[50, 90]),
   midi.NoteOffEvent(tick=92, channel=0, data=[67, 127]),
   midi.NoteOffEvent(tick=0, channel=0, data=[73, 127]),
   midi.NoteOffEvent(tick=0, channel=0, data=[77, 127]),
   midi.NoteOffEvent(tick=96, channel=0, data=[45, 127]),
   midi.NoteOnEvent(tick=4, channel=0, data=[65, 90]),
   midi.NoteOnEvent(tick=0, channel=0, data=[73, 90]),
   midi.NoteOnEvent(tick=0, channel=0, data=[76, 90]),
   midi.NoteOnEvent(tick=192, channel=0, data=[55, 90]),
   midi.NoteOffEvent(tick=92, channel=0, data=[65, 127]),
   midi.NoteOffEvent(tick=0, channel=0, data=[73, 127]),
   midi.NoteOffEvent(tick=0, channel=0, data=[76, 127]),
   midi.NoteOffEvent(tick=96, channel=0, data=[50, 127]),
   midi.NoteOnEvent(tick=4, channel=0, data=[66, 90]),
   midi.NoteOnEvent(tick=0, channel=0, data=[71, 90]),
   midi.NoteOnEvent(tick=0, channel=0, data=[75, 90]),
   midi.NoteOnEvent(tick=192, channel=0, data=[48, 90]),
   midi.NoteOffEvent(tick=92, channel=0, data=[66, 127]),
   midi.NoteOffEvent(tick=0, channel=0, data=[71, 127]),
   midi.NoteOffEvent(tick=0, channel=0, data=[75, 127]),
   midi.NoteOffEvent(tick=96, channel=0, data=[55, 127]),
   midi.NoteOnEvent(tick=4, channel=0, data=[63, 90]),
   midi.NoteOnEvent(tick=0, channel=0, data=[71, 90]),
   midi.NoteOnEvent(tick=0, channel=0, data=[74, 90]),
   midi.NoteOffEvent(tick=188, channel=0, data=[63, 127]),
   midi.NoteOffEvent(tick=0, channel=0, data=[71, 127]),
   midi.NoteOffEvent(tick=0, channel=0, data=[74, 127]),
   midi.NoteOffEvent(tick=192, channel=0, data=[48, 127]),
   midi.NoteOnEvent(tick=4, channel=0, data=[74, 90]),
   midi.NoteOnEvent(tick=0, channel=0, data=[70, 90]),
   midi.NoteOnEvent(tick=0, channel=0, data=[63, 90]),
   midi.NoteOffEvent(tick=188, channel=0, data=[74, 127]),
   midi.NoteOffEvent(tick=0, channel=0, data=[70, 127]),
   midi.NoteOffEvent(tick=0, channel=0, data=[63, 127]),
   midi.NoteOnEvent(tick=4, channel=0, data=[53, 90]),
   midi.NoteOnEvent(tick=192, channel=0, data=[73, 90]),
   midi.NoteOnEvent(tick=0, channel=0, data=[69, 90]),
   midi.NoteOnEvent(tick=0, channel=0, data=[63, 90]),
   midi.NoteOffEvent(tick=188, channel=0, data=[73, 127]),
   midi.NoteOffEvent(tick=0, channel=0, data=[69, 127]),
   midi.NoteOffEvent(tick=0, channel=0, data=[63, 127]),
   midi.NoteOnEvent(tick=4, channel=0, data=[46, 90]),
   midi.NoteOffEvent(tick=188, channel=0, data=[53, 127]),
   midi.NoteOnEvent(tick=4, channel=0, data=[61, 90]),
   midi.NoteOnEvent(tick=0, channel=0, data=[69, 90]),
   midi.NoteOnEvent(tick=0, channel=0, data=[72, 90]),
   midi.NoteOffEvent(tick=188, channel=0, data=[61, 127]),
   midi.NoteOffEvent(tick=0, channel=0, data=[69, 127]),
   midi.NoteOffEvent(tick=0, channel=0, data=[72, 127]),
   midi.NoteOnEvent(tick=4, channel=0, data=[51, 90]),
   midi.NoteOffEvent(tick=188, channel=0, data=[46, 127]),
   midi.NoteOnEvent(tick=4, channel=0, data=[71, 90]),
   midi.NoteOnEvent(tick=0, channel=0, data=[67, 90]),
   midi.NoteOnEvent(tick=0, channel=0, data=[62, 90]),
   midi.NoteOffEvent(tick=188, channel=0, data=[71, 127]),
   midi.NoteOffEvent(tick=0, channel=0, data=[67, 127]),
   midi.NoteOffEvent(tick=0, channel=0, data=[62, 127]),
   midi.NoteOnEvent(tick=4, channel=0, data=[46, 90]),
   midi.NoteOffEvent(tick=188, channel=0, data=[51, 127]),
   midi.NoteOnEvent(tick=4, channel=0, data=[69, 90]),
   midi.NoteOnEvent(tick=0, channel=0, data=[72, 90]),
   midi.NoteOnEvent(tick=0, channel=0, data=[61, 90]),
   midi.NoteOffEvent(tick=284, channel=0, data=[69, 127]),
   midi.NoteOffEvent(tick=0, channel=0, data=[72, 127]),
   midi.NoteOffEvent(tick=0, channel=0, data=[61, 127]),
   midi.NoteOffEvent(tick=96, channel=0, data=[46, 127]),
   midi.NoteOnEvent(tick=4, channel=0, data=[72, 90]),
   midi.NoteOnEvent(tick=0, channel=0, data=[68, 90]),
   midi.NoteOnEvent(tick=0, channel=0, data=[61, 90]),
   midi.NoteOnEvent(tick=192, channel=0, data=[51, 90]),
   midi.NoteOffEvent(tick=92, channel=0, data=[72, 127]),
   midi.NoteOffEvent(tick=0, channel=0, data=[68, 127]),
   midi.NoteOffEvent(tick=0, channel=0, data=[61, 127]),
   midi.NoteOnEvent(tick=100, channel=0, data=[67, 90]),
   midi.NoteOnEvent(tick=0, channel=0, data=[71, 90]),
   midi.NoteOnEvent(tick=0, channel=0, data=[62, 90]),
   midi.NoteOnEvent(tick=192, channel=0, data=[46, 90]),
   midi.NoteOffEvent(tick=92, channel=0, data=[67, 127]),
   midi.NoteOffEvent(tick=0, channel=0, data=[71, 127]),
   midi.NoteOffEvent(tick=0, channel=0, data=[62, 127]),
   midi.NoteOffEvent(tick=96, channel=0, data=[51, 127]),
   midi.NoteOnEvent(tick=4, channel=0, data=[69, 90]),
   midi.NoteOnEvent(tick=0, channel=0, data=[72, 90]),
   midi.NoteOnEvent(tick=0, channel=0, data=[61, 90]),
   midi.NoteOnEvent(tick=192, channel=0, data=[51, 90]),
   midi.NoteOffEvent(tick=92, channel=0, data=[69, 127]),
   midi.NoteOffEvent(tick=0, channel=0, data=[72, 127]),
   midi.NoteOffEvent(tick=0, channel=0, data=[61, 127]),
   midi.NoteOffEvent(tick=96, channel=0, data=[46, 127]),
   midi.NoteOnEvent(tick=4, channel=0, data=[67, 90]),
   midi.NoteOnEvent(tick=0, channel=0, data=[71, 90]),
   midi.NoteOnEvent(tick=0, channel=0, data=[62, 90]),
   midi.NoteOnEvent(tick=192, channel=0, data=[46, 90]),
   midi.NoteOffEvent(tick=92, channel=0, data=[62, 127]),
   midi.NoteOffEvent(tick=0, channel=0, data=[67, 127]),
   midi.NoteOffEvent(tick=0, channel=0, data=[71, 127]),
   midi.NoteOffEvent(tick=96, channel=0, data=[51, 127]),
   midi.NoteOnEvent(tick=4, channel=0, data=[61, 90]),
   midi.NoteOnEvent(tick=0, channel=0, data=[69, 90]),
   midi.NoteOnEvent(tick=0, channel=0, data=[72, 90]),
   midi.NoteOffEvent(tick=284, channel=0, data=[61, 127]),
   midi.NoteOffEvent(tick=0, channel=0, data=[69, 127]),
   midi.NoteOffEvent(tick=0, channel=0, data=[72, 127]),
   midi.NoteOffEvent(tick=96, channel=0, data=[46, 127]),
   midi.NoteOnEvent(tick=4, channel=0, data=[61, 90]),
   midi.NoteOnEvent(tick=0, channel=0, data=[68, 90]),
   midi.NoteOnEvent(tick=0, channel=0, data=[72, 90]),
   midi.NoteOnEvent(tick=192, channel=0, data=[51, 90]),
   midi.NoteOffEvent(tick=92, channel=0, data=[61, 127]),
   midi.NoteOffEvent(tick=0, channel=0, data=[68, 127]),
   midi.NoteOffEvent(tick=0, channel=0, data=[72, 127]),
   midi.NoteOnEvent(tick=100, channel=0, data=[61, 90]),
   midi.NoteOnEvent(tick=0, channel=0, data=[67, 90]),
   midi.NoteOnEvent(tick=0, channel=0, data=[71, 90]),
   midi.NoteOnEvent(tick=192, channel=0, data=[46, 90]),
   midi.NoteOffEvent(tick=92, channel=0, data=[61, 127]),
   midi.NoteOffEvent(tick=0, channel=0, data=[67, 127]),
   midi.NoteOffEvent(tick=0, channel=0, data=[71, 127]),
   midi.NoteOffEvent(tick=96, channel=0, data=[51, 127]),
   midi.NoteOnEvent(tick=4, channel=0, data=[61, 90]),
   midi.NoteOnEvent(tick=0, channel=0, data=[69, 90]),
   midi.NoteOnEvent(tick=0, channel=0, data=[72, 90]),
   midi.NoteOffEvent(tick=64, channel=0, data=[46, 127]),
   midi.NoteOnEvent(tick=128, channel=0, data=[51, 90]),
   midi.NoteOffEvent(tick=92, channel=0, data=[61, 127]),
   midi.NoteOffEvent(tick=0, channel=0, data=[69, 127]),
   midi.NoteOffEvent(tick=0, channel=0, data=[72, 127]),
   midi.NoteOnEvent(tick=100, channel=0, data=[62, 90]),
   midi.NoteOnEvent(tick=0, channel=0, data=[67, 90]),
   midi.NoteOnEvent(tick=0, channel=0, data=[71, 90]),
   midi.NoteOnEvent(tick=192, channel=0, data=[51, 90]),
   midi.NoteOnEvent(tick=0, channel=0, data=[58, 90]),
   midi.NoteOffEvent(tick=52, channel=0, data=[62, 127]),
   midi.NoteOffEvent(tick=0, channel=0, data=[67, 127]),
   midi.NoteOffEvent(tick=0, channel=0, data=[71, 127]),
   midi.NoteOffEvent(tick=40, channel=0, data=[58, 127]),
   midi.NoteOnEvent(tick=4, channel=0, data=[61, 90]),
   midi.NoteOffEvent(tick=16, channel=0, data=[51, 127]),
   midi.NoteOffEvent(tick=76, channel=0, data=[61, 127]),
   midi.NoteOnEvent(tick=4, channel=0, data=[66, 90]),
   midi.NoteOffEvent(tick=92, channel=0, data=[66, 127]),
   midi.NoteOnEvent(tick=4, channel=0, data=[70, 90]),
   midi.NoteOffEvent(tick=92, channel=0, data=[70, 127]),
   midi.NoteOnEvent(tick=4, channel=0, data=[73, 90]),
   midi.NoteOffEvent(tick=92, channel=0, data=[73, 127]),
   midi.NoteOnEvent(tick=4, channel=0, data=[63, 90]),
   midi.NoteOffEvent(tick=92, channel=0, data=[63, 127]),
   midi.NoteOnEvent(tick=4, channel=0, data=[63, 90]),
   midi.NoteOffEvent(tick=92, channel=0, data=[63, 127]),
   midi.NoteOnEvent(tick=4, channel=0, data=[63, 90]),
   midi.NoteOffEvent(tick=92, channel=0, data=[63, 127]),
   midi.NoteOnEvent(tick=4, channel=0, data=[66, 90]),
   midi.NoteOffEvent(tick=92, channel=0, data=[66, 127]),
   midi.NoteOnEvent(tick=4, channel=0, data=[58, 90]),
   midi.NoteOffEvent(tick=92, channel=0, data=[58, 127]),
   midi.NoteOnEvent(tick=4, channel=0, data=[61, 90]),
   midi.NoteOffEvent(tick=92, channel=0, data=[61, 127]),
   midi.NoteOnEvent(tick=4, channel=0, data=[63, 90]),
   midi.NoteOffEvent(tick=92, channel=0, data=[51, 127]),
   midi.NoteOffEvent(tick=0, channel=0, data=[63, 127]),
   midi.NoteOnEvent(tick=4, channel=0, data=[41, 90]),
   midi.NoteOnEvent(tick=0, channel=0, data=[65, 90]),
   midi.NoteOnEvent(tick=96, channel=0, data=[53, 90]),
   midi.NoteOnEvent(tick=96, channel=0, data=[53, 90]),
   midi.NoteOffEvent(tick=64, channel=0, data=[53, 127]),
   midi.NoteOnEvent(tick=32, channel=0, data=[53, 90]),
   midi.NoteOffEvent(tick=64, channel=0, data=[53, 127]),
   midi.NoteOnEvent(tick=32, channel=0, data=[53, 90]),
   midi.NoteOffEvent(tick=64, channel=0, data=[53, 127]),
   midi.NoteOnEvent(tick=32, channel=0, data=[65, 90]),
   midi.NoteOffEvent(tick=92, channel=0, data=[65, 127]),
   midi.NoteOnEvent(tick=4, channel=0, data=[65, 90]),
   midi.NoteOffEvent(tick=64, channel=0, data=[65, 127]),
   midi.NoteOnEvent(tick=32, channel=0, data=[65, 90]),
   midi.NoteOffEvent(tick=64, channel=0, data=[65, 127]),
   midi.NoteOnEvent(tick=32, channel=0, data=[65, 90]),
   midi.NoteOffEvent(tick=64, channel=0, data=[65, 127]),
   midi.NoteOnEvent(tick=32, channel=0, data=[65, 90]),
   midi.NoteOffEvent(tick=64, channel=0, data=[65, 127]),
   midi.NoteOnEvent(tick=32, channel=0, data=[65, 90]),
   midi.NoteOffEvent(tick=64, channel=0, data=[65, 127]),
   midi.NoteOnEvent(tick=32, channel=0, data=[65, 90]),
   midi.NoteOffEvent(tick=64, channel=0, data=[65, 127]),
   midi.NoteOffEvent(tick=28, channel=0, data=[41, 127]),
   midi.NoteOnEvent(tick=4, channel=0, data=[51, 90]),
   midi.NoteOnEvent(tick=0, channel=0, data=[58, 90]),
   midi.NoteOffEvent(tick=64, channel=0, data=[65, 127]),
   midi.NoteOffEvent(tick=28, channel=0, data=[58, 127]),
   midi.NoteOnEvent(tick=4, channel=0, data=[61, 90]),
   midi.NoteOffEvent(tick=92, channel=0, data=[61, 127]),
   midi.NoteOnEvent(tick=4, channel=0, data=[66, 90]),
   midi.NoteOffEvent(tick=92, channel=0, data=[66, 127]),
   midi.NoteOnEvent(tick=4, channel=0, data=[70, 90]),
   midi.NoteOffEvent(tick=92, channel=0, data=[53, 127]),
   midi.NoteOffEvent(tick=0, channel=0, data=[70, 127]),
   midi.NoteOnEvent(tick=4, channel=0, data=[73, 90]),
   midi.NoteOffEvent(tick=92, channel=0, data=[73, 127]),
   midi.NoteOnEvent(tick=4, channel=0, data=[63, 90]),
   midi.NoteOnEvent(tick=96, channel=0, data=[63, 90]),
   midi.NoteOffEvent(tick=44, channel=0, data=[63, 127]),
   midi.NoteOnEvent(tick=52, channel=0, data=[63, 90]),
   midi.NoteOffEvent(tick=44, channel=0, data=[63, 127]),
   midi.NoteOnEvent(tick=52, channel=0, data=[66, 90]),
   midi.NoteOffEvent(tick=44, channel=0, data=[63, 127]),
   midi.NoteOnEvent(tick=52, channel=0, data=[58, 90]),
   midi.NoteOffEvent(tick=44, channel=0, data=[66, 127]),
   midi.NoteOnEvent(tick=52, channel=0, data=[61, 90]),
   midi.NoteOffEvent(tick=44, channel=0, data=[58, 127]),
   midi.NoteOnEvent(tick=52, channel=0, data=[63, 90]),
   midi.NoteOffEvent(tick=44, channel=0, data=[61, 127]),
   midi.NoteOffEvent(tick=48, channel=0, data=[51, 127]),
   midi.NoteOnEvent(tick=4, channel=0, data=[65, 90]),
   midi.NoteOffEvent(tick=44, channel=0, data=[63, 127]),
   midi.NoteOnEvent(tick=52, channel=0, data=[53, 90]),
   midi.NoteOffEvent(tick=96, channel=0, data=[53, 127]),
   midi.NoteOnEvent(tick=0, channel=0, data=[53, 90]),
   midi.NoteOffEvent(tick=64, channel=0, data=[65, 127]),
   midi.NoteOffEvent(tick=32, channel=0, data=[53, 127]),
   midi.NoteOnEvent(tick=0, channel=0, data=[53, 90]),
   midi.NoteOffEvent(tick=96, channel=0, data=[53, 127]),
   midi.NoteOnEvent(tick=0, channel=0, data=[53, 90]),
   midi.NoteOnEvent(tick=96, channel=0, data=[65, 90]),
   midi.NoteOffEvent(tick=64, channel=0, data=[65, 127]),
   midi.NoteOnEvent(tick=32, channel=0, data=[65, 90]),
   midi.NoteOffEvent(tick=64, channel=0, data=[65, 127]),
   midi.NoteOnEvent(tick=32, channel=0, data=[65, 90]),
   midi.NoteOffEvent(tick=64, channel=0, data=[65, 127]),
   midi.NoteOnEvent(tick=32, channel=0, data=[65, 90]),
   midi.NoteOffEvent(tick=64, channel=0, data=[65, 127]),
   midi.NoteOnEvent(tick=32, channel=0, data=[65, 90]),
   midi.NoteOffEvent(tick=32, channel=0, data=[53, 127]),
   midi.NoteOffEvent(tick=32, channel=0, data=[65, 127]),
   midi.NoteOnEvent(tick=32, channel=0, data=[65, 90]),
   midi.NoteOffEvent(tick=64, channel=0, data=[65, 127]),
   midi.NoteOnEvent(tick=32, channel=0, data=[65, 90]),
   midi.NoteOffEvent(tick=64, channel=0, data=[65, 127]),
   midi.NoteOnEvent(tick=32, channel=0, data=[51, 90]),
   midi.NoteOnEvent(tick=48, channel=0, data=[58, 90]),
   midi.NoteOnEvent(tick=48, channel=0, data=[61, 90]),
   midi.NoteOffEvent(tick=32, channel=0, data=[51, 127]),
   midi.NoteOnEvent(tick=16, channel=0, data=[66, 90]),
   midi.NoteOffEvent(tick=32, channel=0, data=[58, 127]),
   midi.NoteOnEvent(tick=16, channel=0, data=[70, 90]),
   midi.NoteOffEvent(tick=32, channel=0, data=[61, 127]),
   midi.NoteOffEvent(tick=0, channel=0, data=[70, 127]),
   midi.NoteOnEvent(tick=16, channel=0, data=[70, 127]),
   midi.NoteOffEvent(tick=32, channel=0, data=[66, 127]),
   midi.NoteOnEvent(tick=112, channel=0, data=[51, 90]),
   midi.NoteOnEvent(tick=48, channel=0, data=[58, 90]),
   midi.NoteOnEvent(tick=48, channel=0, data=[61, 90]),
   midi.NoteOffEvent(tick=32, channel=0, data=[51, 127]),
   midi.NoteOnEvent(tick=16, channel=0, data=[66, 90]),
   midi.NoteOffEvent(tick=32, channel=0, data=[58, 127]),
   midi.NoteOffEvent(tick=48, channel=0, data=[61, 127]),
   midi.NoteOnEvent(tick=16, channel=0, data=[73, 90]),
   midi.NoteOffEvent(tick=32, channel=0, data=[66, 127]),
   midi.NoteOnEvent(tick=112, channel=0, data=[51, 90]),
   midi.NoteOffEvent(tick=48, channel=0, data=[70, 127]),
   midi.NoteOnEvent(tick=0, channel=0, data=[58, 90]),
   midi.NoteOnEvent(tick=48, channel=0, data=[61, 90]),
   midi.NoteOffEvent(tick=32, channel=0, data=[51, 127]),
   midi.NoteOnEvent(tick=16, channel=0, data=[66, 90]),
   midi.NoteOffEvent(tick=32, channel=0, data=[58, 127]),
   midi.NoteOnEvent(tick=16, channel=0, data=[66, 127]),
   midi.NoteOffEvent(tick=32, channel=0, data=[61, 127]),
   midi.NoteOffEvent(tick=48, channel=0, data=[66, 127]),
   midi.NoteOnEvent(tick=112, channel=0, data=[51, 90]),
   midi.NoteOnEvent(tick=48, channel=0, data=[58, 90]),
   midi.NoteOffEvent(tick=16, channel=0, data=[66, 64]),
   midi.NoteOnEvent(tick=32, channel=0, data=[61, 90]),
   midi.NoteOffEvent(tick=32, channel=0, data=[51, 127]),
   midi.NoteOnEvent(tick=16, channel=0, data=[66, 90]),
   midi.NoteOffEvent(tick=32, channel=0, data=[58, 127]),
   midi.NoteOnEvent(tick=16, channel=0, data=[70, 90]),
   midi.NoteOffEvent(tick=32, channel=0, data=[61, 127]),
   midi.NoteOffEvent(tick=0, channel=0, data=[70, 127]),
   midi.NoteOnEvent(tick=16, channel=0, data=[70, 90]),
   midi.NoteOffEvent(tick=32, channel=0, data=[66, 127]),
   midi.NoteOnEvent(tick=112, channel=0, data=[51, 90]),
   midi.NoteOffEvent(tick=48, channel=0, data=[73, 127]),
   midi.NoteOffEvent(tick=0, channel=0, data=[70, 127]),
   midi.NoteOnEvent(tick=0, channel=0, data=[58, 90]),
   midi.NoteOnEvent(tick=48, channel=0, data=[61, 90]),
   midi.NoteOffEvent(tick=32, channel=0, data=[51, 127]),
   midi.NoteOnEvent(tick=16, channel=0, data=[66, 90]),
   midi.NoteOffEvent(tick=32, channel=0, data=[58, 127]),
   midi.NoteOffEvent(tick=48, channel=0, data=[61, 127]),
   midi.NoteOnEvent(tick=16, channel=0, data=[73, 90]),
   midi.NoteOffEvent(tick=32, channel=0, data=[66, 127]),
   midi.NoteOnEvent(tick=112, channel=0, data=[51, 90]),
   midi.NoteOffEvent(tick=48, channel=0, data=[73, 127]),
   midi.NoteOnEvent(tick=0, channel=0, data=[58, 90]),
   midi.NoteOnEvent(tick=48, channel=0, data=[61, 90]),
   midi.NoteOffEvent(tick=32, channel=0, data=[51, 127]),
   midi.NoteOnEvent(tick=16, channel=0, data=[66, 90]),
   midi.NoteOffEvent(tick=32, channel=0, data=[58, 127]),
   midi.NoteOffEvent(tick=48, channel=0, data=[61, 127]),
   midi.NoteOnEvent(tick=16, channel=0, data=[66, 90]),
   midi.NoteOffEvent(tick=32, channel=0, data=[66, 127]),
   midi.NoteOnEvent(tick=112, channel=0, data=[51, 90]),
   midi.NoteOffEvent(tick=48, channel=0, data=[66, 127]),
   midi.NoteOnEvent(tick=0, channel=0, data=[58, 90]),
   midi.NoteOnEvent(tick=48, channel=0, data=[61, 90]),
   midi.NoteOffEvent(tick=32, channel=0, data=[51, 127]),
   midi.NoteOnEvent(tick=16, channel=0, data=[66, 90]),
   midi.NoteOffEvent(tick=32, channel=0, data=[58, 127]),
   midi.NoteOnEvent(tick=16, channel=0, data=[70, 90]),
   midi.NoteOffEvent(tick=32, channel=0, data=[61, 127]),
   midi.NoteOffEvent(tick=0, channel=0, data=[70, 127]),
   midi.NoteOnEvent(tick=16, channel=0, data=[70, 90]),
   midi.NoteOffEvent(tick=32, channel=0, data=[66, 127]),
   midi.NoteOnEvent(tick=112, channel=0, data=[51, 90]),
   midi.NoteOffEvent(tick=48, channel=0, data=[70, 127]),
   midi.NoteOnEvent(tick=0, channel=0, data=[58, 90]),
   midi.NoteOnEvent(tick=48, channel=0, data=[61, 90]),
   midi.NoteOffEvent(tick=32, channel=0, data=[51, 127]),
   midi.NoteOnEvent(tick=16, channel=0, data=[66, 90]),
   midi.NoteOffEvent(tick=32, channel=0, data=[58, 127]),
   midi.NoteOffEvent(tick=48, channel=0, data=[61, 127]),
   midi.NoteOnEvent(tick=16, channel=0, data=[73, 90]),
   midi.NoteOffEvent(tick=32, channel=0, data=[66, 127]),
   midi.NoteOnEvent(tick=112, channel=0, data=[66, 90]),
   midi.NoteOffEvent(tick=48, channel=0, data=[73, 127]),
   midi.NoteOnEvent(tick=0, channel=0, data=[61, 90]),
   midi.NoteOnEvent(tick=48, channel=0, data=[58, 90]),
   midi.NoteOnEvent(tick=48, channel=0, data=[54, 90]),
   midi.NoteOffEvent(tick=48, channel=0, data=[66, 127]),
   midi.NoteOnEvent(tick=0, channel=0, data=[49, 90]),
   midi.NoteOffEvent(tick=48, channel=0, data=[61, 127]),
   midi.NoteOnEvent(tick=0, channel=0, data=[40, 90]),
   midi.NoteOffEvent(tick=48, channel=0, data=[58, 127]),
   midi.NoteOffEvent(tick=48, channel=0, data=[54, 127]),
   midi.NoteOffEvent(tick=48, channel=0, data=[49, 127]),
   midi.NoteOnEvent(tick=0, channel=0, data=[41, 90]),
   midi.NoteOnEvent(tick=96, channel=0, data=[53, 90]),
   midi.NoteOffEvent(tick=96, channel=0, data=[53, 127]),
   midi.NoteOnEvent(tick=0, channel=0, data=[53, 90]),
   midi.NoteOffEvent(tick=48, channel=0, data=[40, 127]),
   midi.NoteOffEvent(tick=48, channel=0, data=[53, 127]),
   midi.NoteOnEvent(tick=0, channel=0, data=[53, 90]),
   midi.NoteOnEvent(tick=0, channel=0, data=[53, 90]),
   midi.NoteOffEvent(tick=96, channel=0, data=[53, 127]),
   midi.NoteOffEvent(tick=0, channel=0, data=[53, 127]),
   midi.NoteOnEvent(tick=0, channel=0, data=[53, 90]),
   midi.NoteOnEvent(tick=96, channel=0, data=[65, 90]),
   midi.NoteOffEvent(tick=96, channel=0, data=[65, 127]),
   midi.NoteOnEvent(tick=0, channel=0, data=[65, 90]),
   midi.NoteOffEvent(tick=96, channel=0, data=[65, 127]),
   midi.NoteOnEvent(tick=0, channel=0, data=[65, 90]),
   midi.NoteOffEvent(tick=96, channel=0, data=[41, 127]),
   midi.NoteOffEvent(tick=0, channel=0, data=[65, 127]),
   midi.NoteOnEvent(tick=0, channel=0, data=[65, 90]),
   midi.NoteOffEvent(tick=96, channel=0, data=[65, 127]),
   midi.NoteOnEvent(tick=0, channel=0, data=[65, 90]),
   midi.NoteOffEvent(tick=96, channel=0, data=[65, 127]),
   midi.NoteOnEvent(tick=0, channel=0, data=[65, 90]),
   midi.NoteOffEvent(tick=96, channel=0, data=[65, 127]),
   midi.NoteOnEvent(tick=0, channel=0, data=[65, 90]),
   midi.NoteOffEvent(tick=96, channel=0, data=[53, 127]),
   midi.NoteOffEvent(tick=0, channel=0, data=[65, 127]),
   midi.NoteOnEvent(tick=0, channel=0, data=[40, 90]),
   midi.NoteOnEvent(tick=96, channel=0, data=[53, 90]),
   midi.NoteOffEvent(tick=96, channel=0, data=[53, 127]),
   midi.NoteOnEvent(tick=0, channel=0, data=[53, 90]),
   midi.NoteOffEvent(tick=96, channel=0, data=[53, 127]),
   midi.NoteOnEvent(tick=0, channel=0, data=[53, 90]),
   midi.NoteOffEvent(tick=96, channel=0, data=[53, 127]),
   midi.NoteOnEvent(tick=0, channel=0, data=[53, 90]),
   midi.NoteOnEvent(tick=96, channel=0, data=[65, 90]),
   midi.NoteOffEvent(tick=96, channel=0, data=[65, 127]),
   midi.NoteOnEvent(tick=0, channel=0, data=[65, 90]),
   midi.NoteOffEvent(tick=96, channel=0, data=[65, 127]),
   midi.NoteOnEvent(tick=0, channel=0, data=[65, 90]),
   midi.NoteOffEvent(tick=96, channel=0, data=[40, 127]),
   midi.NoteOffEvent(tick=0, channel=0, data=[65, 127]),
   midi.NoteOnEvent(tick=0, channel=0, data=[65, 90]),
   midi.NoteOffEvent(tick=96, channel=0, data=[65, 127]),
   midi.NoteOnEvent(tick=0, channel=0, data=[65, 90]),
   midi.NoteOffEvent(tick=96, channel=0, data=[65, 127]),
   midi.NoteOnEvent(tick=0, channel=0, data=[65, 90]),
   midi.NoteOffEvent(tick=96, channel=0, data=[65, 127]),
   midi.NoteOnEvent(tick=0, channel=0, data=[65, 90]),
   midi.NoteOffEvent(tick=96, channel=0, data=[53, 127]),
   midi.NoteOffEvent(tick=0, channel=0, data=[65, 127]),
   midi.NoteOnEvent(tick=0, channel=0, data=[50, 90]),
   midi.NoteOnEvent(tick=128, channel=0, data=[57, 90]),
   midi.NoteOnEvent(tick=128, channel=0, data=[60, 90]),
   midi.NoteOffEvent(tick=84, channel=0, data=[50, 127]),
   midi.NoteOnEvent(tick=44, channel=0, data=[65, 90]),
   midi.NoteOffEvent(tick=84, channel=0, data=[57, 127]),
   midi.NoteOffEvent(tick=128, channel=0, data=[60, 127]),
   midi.NoteOnEvent(tick=76, channel=0, data=[69, 120]),
   midi.NoteOnEvent(tick=96, channel=0, data=[71, 127]),
   midi.NoteOffEvent(tick=96, channel=0, data=[69, 127]),
   midi.NoteOffEvent(tick=288, channel=0, data=[65, 127]),
   midi.NoteOffEvent(tick=0, channel=0, data=[71, 127]),
   midi.NoteOnEvent(tick=0, channel=0, data=[45, 90]),
   midi.NoteOnEvent(tick=128, channel=0, data=[52, 90]),
   midi.NoteOnEvent(tick=128, channel=0, data=[55, 90]),
   midi.NoteOffEvent(tick=40, channel=0, data=[52, 127]),
   midi.NoteOnEvent(tick=88, channel=0, data=[60, 90]),
   midi.NoteOffEvent(tick=40, channel=0, data=[55, 127]),
   midi.NoteOnEvent(tick=248, channel=0, data=[71, 120]),
   midi.NoteOnEvent(tick=96, channel=0, data=[72, 127]),
   midi.NoteOffEvent(tick=96, channel=0, data=[71, 127]),
   midi.NoteOffEvent(tick=72, channel=0, data=[45, 127]),
   midi.NoteOffEvent(tick=216, channel=0, data=[60, 127]),
   midi.NoteOnEvent(tick=0, channel=0, data=[50, 90]),
   midi.NoteOnEvent(tick=128, channel=0, data=[57, 90]),
   midi.NoteOnEvent(tick=128, channel=0, data=[60, 90]),
   midi.NoteOffEvent(tick=40, channel=0, data=[57, 127]),
   midi.NoteOffEvent(tick=88, channel=0, data=[72, 64]),
   midi.NoteOnEvent(tick=0, channel=0, data=[65, 90]),
   midi.NoteOffEvent(tick=40, channel=0, data=[60, 127]),
   midi.NoteOnEvent(tick=152, channel=0, data=[69, 90]),
   midi.NoteOnEvent(tick=192, channel=0, data=[71, 90]),
   midi.NoteOffEvent(tick=168, channel=0, data=[50, 127]),
   midi.NoteOffEvent(tick=24, channel=0, data=[69, 127]),
   midi.NoteOnEvent(tick=0, channel=0, data=[72, 90]),
   midi.NoteOffEvent(tick=192, channel=0, data=[65, 127]),
   midi.NoteOffEvent(tick=0, channel=0, data=[71, 127]),
   midi.NoteOnEvent(tick=0, channel=0, data=[71, 90]),
   midi.NoteOffEvent(tick=24, channel=0, data=[71, 127]),
   midi.NoteOnEvent(tick=0, channel=0, data=[72, 90]),
   midi.NoteOffEvent(tick=24, channel=0, data=[72, 127]),
   midi.NoteOnEvent(tick=0, channel=0, data=[71, 90]),
   midi.NoteOffEvent(tick=144, channel=0, data=[72, 127]),
   midi.NoteOnEvent(tick=0, channel=0, data=[69, 90]),
   midi.NoteOffEvent(tick=48, channel=0, data=[71, 127]),
   midi.NoteOffEvent(tick=144, channel=0, data=[69, 127]),
   midi.NoteOnEvent(tick=0, channel=0, data=[71, 90]),
   midi.NoteOffEvent(tick=192, channel=0, data=[71, 127]),
   midi.NoteOnEvent(tick=0, channel=0, data=[72, 90]),
   midi.NoteOffEvent(tick=192, channel=0, data=[72, 127]),
   midi.NoteOnEvent(tick=0, channel=0, data=[76, 90]),
   midi.NoteOffEvent(tick=192, channel=0, data=[76, 127]),
   midi.NoteOnEvent(tick=0, channel=0, data=[72, 90]),
   midi.NoteOffEvent(tick=192, channel=0, data=[72, 127]),
   midi.NoteOnEvent(tick=0, channel=0, data=[71, 90]),
   midi.NoteOffEvent(tick=192, channel=0, data=[71, 127]),
   midi.NoteOnEvent(tick=0, channel=0, data=[72, 90]),
   midi.NoteOnEvent(tick=96, channel=0, data=[71, 90]),
   midi.NoteOffEvent(tick=24, channel=0, data=[71, 127]),
   midi.NoteOnEvent(tick=0, channel=0, data=[72, 90]),
   midi.NoteOffEvent(tick=24, channel=0, data=[72, 127]),
   midi.NoteOnEvent(tick=0, channel=0, data=[71, 90]),
   midi.NoteOffEvent(tick=48, channel=0, data=[72, 127]),
   midi.NoteOffEvent(tick=144, channel=0, data=[71, 127]),
   midi.NoteOnEvent(tick=48, channel=0, data=[69, 90]),
   midi.NoteOffEvent(tick=192, channel=0, data=[69, 127]),
   midi.NoteOnEvent(tick=0, channel=0, data=[72, 90]),
   midi.NoteOffEvent(tick=192, channel=0, data=[72, 127]),
   midi.NoteOnEvent(tick=0, channel=0, data=[69, 90]),
   midi.NoteOffEvent(tick=192, channel=0, data=[69, 127]),
   midi.NoteOnEvent(tick=0, channel=0, data=[72, 90]),
   midi.NoteOffEvent(tick=192, channel=0, data=[72, 127]),
   midi.NoteOnEvent(tick=0, channel=0, data=[69, 120]),
   midi.NoteOffEvent(tick=192, channel=0, data=[69, 127]),
   midi.NoteOnEvent(tick=0, channel=0, data=[61, 90]),
   midi.NoteOnEvent(tick=192, channel=0, data=[46, 90]),
   midi.NoteOnEvent(tick=192, channel=0, data=[53, 90]),
   midi.NoteOffEvent(tick=192, channel=0, data=[46, 127]),
   midi.NoteOnEvent(tick=0, channel=0, data=[57, 90]),
   midi.NoteOffEvent(tick=192, channel=0, data=[61, 127]),
   midi.NoteOffEvent(tick=0, channel=0, data=[53, 127]),
   midi.NoteOnEvent(tick=0, channel=0, data=[60, 90]),
   midi.NoteOffEvent(tick=192, channel=0, data=[57, 127]),
   midi.NoteOffEvent(tick=0, channel=0, data=[60, 127]),
   midi.NoteOnEvent(tick=0, channel=0, data=[61, 90]),
   midi.NoteOffEvent(tick=192, channel=0, data=[61, 127]),
   midi.NoteOnEvent(tick=0, channel=0, data=[60, 90]),
   midi.NoteOffEvent(tick=192, channel=0, data=[60, 127]),
   midi.NoteOnEvent(tick=0, channel=0, data=[61, 90]),
   midi.NoteOffEvent(tick=192, channel=0, data=[61, 127]),
   midi.NoteOnEvent(tick=0, channel=0, data=[65, 90]),
   midi.NoteOffEvent(tick=192, channel=0, data=[65, 127]),
   midi.NoteOnEvent(tick=0, channel=0, data=[69, 90]),
   midi.NoteOffEvent(tick=192, channel=0, data=[69, 127]),
   midi.NoteOnEvent(tick=0, channel=0, data=[72, 90]),
   midi.NoteOffEvent(tick=192, channel=0, data=[72, 127]),
   midi.NoteOnEvent(tick=0, channel=0, data=[69, 120]),
   midi.NoteOffEvent(tick=192, channel=0, data=[69, 127]),
   midi.NoteOnEvent(tick=0, channel=0, data=[61, 90]),
   midi.NoteOnEvent(tick=192, channel=0, data=[44, 90]),
   midi.NoteOnEvent(tick=192, channel=0, data=[49, 90]),
   midi.NoteOffEvent(tick=192, channel=0, data=[44, 127]),
   midi.NoteOnEvent(tick=0, channel=0, data=[53, 90]),
   midi.NoteOffEvent(tick=192, channel=0, data=[61, 127]),
   midi.NoteOffEvent(tick=0, channel=0, data=[49, 127]),
   midi.NoteOnEvent(tick=0, channel=0, data=[57, 90]),
   midi.NoteOffEvent(tick=192, channel=0, data=[53, 127]),
   midi.NoteOffEvent(tick=0, channel=0, data=[57, 127]),
   midi.NoteOnEvent(tick=0, channel=0, data=[58, 90]),
   midi.NoteOffEvent(tick=192, channel=0, data=[58, 127]),
   midi.NoteOnEvent(tick=0, channel=0, data=[60, 90]),
   midi.NoteOffEvent(tick=192, channel=0, data=[60, 127]),
   midi.NoteOnEvent(tick=0, channel=0, data=[61, 90]),
   midi.NoteOffEvent(tick=192, channel=0, data=[61, 127]),
   midi.NoteOnEvent(tick=0, channel=0, data=[65, 90]),
   midi.NoteOffEvent(tick=192, channel=0, data=[65, 127]),
   midi.NoteOnEvent(tick=0, channel=0, data=[69, 90]),
   midi.NoteOffEvent(tick=192, channel=0, data=[69, 127]),
   midi.NoteOnEvent(tick=0, channel=0, data=[72, 90]),
   midi.NoteOffEvent(tick=192, channel=0, data=[72, 127]),
   midi.NoteOnEvent(tick=0, channel=0, data=[69, 120]),
   midi.NoteOffEvent(tick=192, channel=0, data=[69, 127]),
   midi.NoteOnEvent(tick=0, channel=0, data=[61, 90]),
   midi.NoteOnEvent(tick=192, channel=0, data=[42, 90]),
   midi.NoteOffEvent(tick=192, channel=0, data=[42, 127]),
   midi.NoteOnEvent(tick=0, channel=0, data=[49, 90]),
   midi.NoteOffEvent(tick=192, channel=0, data=[49, 127]),
   midi.NoteOnEvent(tick=0, channel=0, data=[57, 90]),
   midi.NoteOffEvent(tick=192, channel=0, data=[61, 127]),
   midi.NoteOffEvent(tick=0, channel=0, data=[57, 127]),
   midi.NoteOnEvent(tick=0, channel=0, data=[60, 90]),
   midi.NoteOffEvent(tick=192, channel=0, data=[60, 127]),
   midi.NoteOnEvent(tick=0, channel=0, data=[57, 120]),
   midi.NoteOffEvent(tick=192, channel=0, data=[57, 127]),
   midi.NoteOnEvent(tick=0, channel=0, data=[49, 90]),
   midi.NoteOffEvent(tick=192, channel=0, data=[49, 127]),
   midi.NoteOnEvent(tick=0, channel=0, data=[69, 90]),
   midi.NoteOffEvent(tick=192, channel=0, data=[69, 127]),
   midi.NoteOnEvent(tick=0, channel=0, data=[70, 90]),
   midi.NoteOffEvent(tick=192, channel=0, data=[70, 127]),
   midi.NoteOnEvent(tick=0, channel=0, data=[72, 90]),
   midi.NoteOffEvent(tick=192, channel=0, data=[72, 127]),
   midi.NoteOnEvent(tick=0, channel=0, data=[75, 90]),
   midi.NoteOffEvent(tick=192, channel=0, data=[75, 127]),
   midi.NoteOnEvent(tick=0, channel=0, data=[73, 90]),
   midi.NoteOffEvent(tick=192, channel=0, data=[73, 127]),
   midi.NoteOnEvent(tick=0, channel=0, data=[72, 90]),
   midi.NoteOffEvent(tick=192, channel=0, data=[72, 127]),
   midi.NoteOnEvent(tick=0, channel=0, data=[73, 90]),
   midi.NoteOffEvent(tick=192, channel=0, data=[73, 127]),
   midi.NoteOnEvent(tick=0, channel=0, data=[69, 90]),
   midi.NoteOffEvent(tick=192, channel=0, data=[69, 127]),
   midi.NoteOnEvent(tick=0, channel=0, data=[70, 90]),
   midi.NoteOffEvent(tick=192, channel=0, data=[70, 127]),
   midi.NoteOnEvent(tick=0, channel=0, data=[75, 90]),
   midi.NoteOffEvent(tick=192, channel=0, data=[75, 127]),
   midi.NoteOnEvent(tick=0, channel=0, data=[73, 90]),
   midi.NoteOffEvent(tick=192, channel=0, data=[73, 127]),
   midi.NoteOnEvent(tick=0, channel=0, data=[72, 90]),
   midi.NoteOffEvent(tick=192, channel=0, data=[72, 127]),
   midi.NoteOnEvent(tick=0, channel=0, data=[73, 90]),
   midi.NoteOffEvent(tick=192, channel=0, data=[73, 127]),
   midi.NoteOnEvent(tick=0, channel=0, data=[69, 90]),
   midi.NoteOffEvent(tick=192, channel=0, data=[69, 127]),
   midi.NoteOnEvent(tick=0, channel=0, data=[70, 90]),
   midi.NoteOffEvent(tick=192, channel=0, data=[70, 127]),
   midi.NoteOnEvent(tick=0, channel=0, data=[69, 90]),
   midi.NoteOffEvent(tick=192, channel=0, data=[69, 127]),
   midi.NoteOnEvent(tick=0, channel=0, data=[70, 90]),
   midi.NoteOffEvent(tick=192, channel=0, data=[70, 127]),
   midi.NoteOnEvent(tick=0, channel=0, data=[75, 90]),
   midi.NoteOffEvent(tick=192, channel=0, data=[75, 127]),
   midi.NoteOnEvent(tick=0, channel=0, data=[73, 90]),
   midi.NoteOffEvent(tick=192, channel=0, data=[73, 127]),
   midi.NoteOnEvent(tick=0, channel=0, data=[72, 90]),
   midi.NoteOnEvent(tick=96, channel=0, data=[73, 90]),
   midi.NoteOffEvent(tick=32, channel=0, data=[72, 127]),
   midi.NoteOnEvent(tick=64, channel=0, data=[76, 90]),
   midi.NoteOffEvent(tick=32, channel=0, data=[73, 127]),
   midi.NoteOffEvent(tick=928, channel=0, data=[76, 115]),
   midi.NoteOnEvent(tick=0, channel=0, data=[50, 90]),
   midi.NoteOnEvent(tick=128, channel=0, data=[57, 90]),
   midi.NoteOnEvent(tick=128, channel=0, data=[60, 90]),
   midi.NoteOffEvent(tick=40, channel=0, data=[57, 127]),
   midi.NoteOnEvent(tick=88, channel=0, data=[65, 90]),
   midi.NoteOffEvent(tick=40, channel=0, data=[60, 127]),
   midi.NoteOnEvent(tick=248, channel=0, data=[81, 120]),
   midi.NoteOnEvent(tick=96, channel=0, data=[83, 127]),
   midi.NoteOffEvent(tick=96, channel=0, data=[81, 127]),
   midi.NoteOffEvent(tick=288, channel=0, data=[65, 127]),
   midi.NoteOnEvent(tick=0, channel=0, data=[45, 90]),
   midi.NoteOnEvent(tick=128, channel=0, data=[52, 90]),
   midi.NoteOffEvent(tick=40, channel=0, data=[50, 127]),
   midi.NoteOnEvent(tick=88, channel=0, data=[55, 90]),
   midi.NoteOffEvent(tick=40, channel=0, data=[52, 127]),
   midi.NoteOffEvent(tick=88, channel=0, data=[83, 64]),
   midi.NoteOnEvent(tick=0, channel=0, data=[60, 90]),
   midi.NoteOffEvent(tick=40, channel=0, data=[55, 127]),
   midi.NoteOnEvent(tick=248, channel=0, data=[83, 120]),
   midi.NoteOnEvent(tick=96, channel=0, data=[84, 127]),
   midi.NoteOffEvent(tick=96, channel=0, data=[83, 127]),
   midi.NoteOffEvent(tick=288, channel=0, data=[60, 127]),
   midi.NoteOffEvent(tick=0, channel=0, data=[84, 127]),
   midi.NoteOnEvent(tick=0, channel=0, data=[50, 90]),
   midi.NoteOnEvent(tick=128, channel=0, data=[57, 90]),
   midi.NoteOffEvent(tick=40, channel=0, data=[45, 127]),
   midi.NoteOnEvent(tick=88, channel=0, data=[60, 90]),
   midi.NoteOffEvent(tick=40, channel=0, data=[57, 127]),
   midi.NoteOnEvent(tick=88, channel=0, data=[65, 90]),
   midi.NoteOffEvent(tick=40, channel=0, data=[60, 127]),
   midi.NoteOnEvent(tick=152, channel=0, data=[81, 90]),
   midi.NoteOffEvent(tick=192, channel=0, data=[81, 127]),
   midi.NoteOnEvent(tick=0, channel=0, data=[83, 90]),
   midi.NoteOffEvent(tick=192, channel=0, data=[83, 127]),
   midi.NoteOnEvent(tick=0, channel=0, data=[84, 90]),
   midi.NoteOffEvent(tick=192, channel=0, data=[65, 127]),
   midi.NoteOffEvent(tick=0, channel=0, data=[84, 127]),
   midi.NoteOnEvent(tick=0, channel=0, data=[83, 90]),
   midi.NoteOffEvent(tick=168, channel=0, data=[50, 127]),
   midi.NoteOffEvent(tick=24, channel=0, data=[83, 127]),
   midi.NoteOnEvent(tick=0, channel=0, data=[84, 90]),
   midi.NoteOffEvent(tick=192, channel=0, data=[84, 127]),
   midi.NoteOnEvent(tick=0, channel=0, data=[88, 90]),
   midi.NoteOffEvent(tick=192, channel=0, data=[88, 127]),
   midi.NoteOnEvent(tick=0, channel=0, data=[84, 90]),
   midi.NoteOffEvent(tick=192, channel=0, data=[84, 127]),
   midi.NoteOnEvent(tick=0, channel=0, data=[88, 90]),
   midi.NoteOffEvent(tick=192, channel=0, data=[88, 127]),
   midi.NoteOnEvent(tick=0, channel=0, data=[84, 90]),
   midi.NoteOffEvent(tick=192, channel=0, data=[84, 127]),
   midi.NoteOnEvent(tick=0, channel=0, data=[83, 90]),
   midi.NoteOffEvent(tick=192, channel=0, data=[83, 127]),
   midi.NoteOnEvent(tick=0, channel=0, data=[84, 90]),
   midi.NoteOffEvent(tick=192, channel=0, data=[84, 127]),
   midi.NoteOnEvent(tick=0, channel=0, data=[83, 90]),
   midi.NoteOffEvent(tick=192, channel=0, data=[83, 127]),
   midi.NoteOnEvent(tick=0, channel=0, data=[81, 90]),
   midi.NoteOffEvent(tick=192, channel=0, data=[81, 127]),
   midi.NoteOnEvent(tick=0, channel=0, data=[84, 90]),
   midi.NoteOffEvent(tick=192, channel=0, data=[84, 127]),
   midi.NoteOnEvent(tick=0, channel=0, data=[81, 90]),
   midi.NoteOffEvent(tick=192, channel=0, data=[81, 127]),
   midi.NoteOnEvent(tick=0, channel=0, data=[84, 90]),
   midi.NoteOffEvent(tick=256, channel=0, data=[84, 127]),
   midi.NoteOnEvent(tick=0, channel=0, data=[81, 90]),
   midi.NoteOnEvent(tick=128, channel=0, data=[73, 90]),
   midi.NoteOffEvent(tick=128, channel=0, data=[81, 127]),
   midi.NoteOnEvent(tick=0, channel=0, data=[46, 90]),
   midi.NoteOnEvent(tick=128, channel=0, data=[53, 90]),
   midi.NoteOnEvent(tick=128, channel=0, data=[57, 90]),
   midi.NoteOffEvent(tick=128, channel=0, data=[53, 127]),
   midi.NoteOnEvent(tick=0, channel=0, data=[60, 90]),
   midi.NoteOffEvent(tick=128, channel=0, data=[57, 127]),
   midi.NoteOnEvent(tick=0, channel=0, data=[61, 90]),
   midi.NoteOffEvent(tick=128, channel=0, data=[73, 127]),
   midi.NoteOffEvent(tick=0, channel=0, data=[60, 127]),
   midi.NoteOnEvent(tick=0, channel=0, data=[65, 90]),
   midi.NoteOnEvent(tick=96, channel=0, data=[69, 90]),
   midi.NoteOffEvent(tick=32, channel=0, data=[61, 127]),
   midi.NoteOffEvent(tick=0, channel=0, data=[65, 127]),
   midi.NoteOnEvent(tick=64, channel=0, data=[72, 90]),
   midi.NoteOffEvent(tick=32, channel=0, data=[69, 127]),
   midi.NoteOnEvent(tick=64, channel=0, data=[73, 90]),
   midi.NoteOffEvent(tick=32, channel=0, data=[72, 127]),
   midi.NoteOffEvent(tick=64, channel=0, data=[46, 127]),
   midi.NoteOnEvent(tick=0, channel=0, data=[84, 90]),
   midi.NoteOffEvent(tick=32, channel=0, data=[73, 127]),
   midi.NoteOnEvent(tick=160, channel=0, data=[81, 90]),
   midi.NoteOnEvent(tick=192, channel=0, data=[73, 90]),
   midi.NoteOnEvent(tick=128, channel=0, data=[42, 90]),
   midi.NoteOnEvent(tick=128, channel=0, data=[49, 90]),
   midi.NoteOffEvent(tick=128, channel=0, data=[84, 127]),
   midi.NoteOnEvent(tick=0, channel=0, data=[56, 90]),
   midi.NoteOnEvent(tick=128, channel=0, data=[57, 90]),
   midi.NoteOffEvent(tick=64, channel=0, data=[81, 127]),
   midi.NoteOffEvent(tick=20, channel=0, data=[49, 127]),
   midi.NoteOnEvent(tick=44, channel=0, data=[60, 90]),
   midi.NoteOffEvent(tick=128, channel=0, data=[73, 127]),
   midi.NoteOnEvent(tick=0, channel=0, data=[65, 90]),
   midi.NoteOnEvent(tick=96, channel=0, data=[68, 90]),
   midi.NoteOffEvent(tick=32, channel=0, data=[56, 127]),
   midi.NoteOnEvent(tick=64, channel=0, data=[69, 90]),
   midi.NoteOffEvent(tick=64, channel=0, data=[57, 127]),
   midi.NoteOffEvent(tick=0, channel=0, data=[65, 127]),
   midi.NoteOnEvent(tick=32, channel=0, data=[77, 90]),
   midi.NoteOffEvent(tick=64, channel=0, data=[68, 127]),
   midi.NoteOffEvent(tick=32, channel=0, data=[60, 127]),
   midi.NoteOnEvent(tick=0, channel=0, data=[80, 90]),
   midi.NoteOffEvent(tick=48, channel=0, data=[69, 127]),
   midi.NoteOffEvent(tick=36, channel=0, data=[42, 127]),
   midi.NoteOffEvent(tick=36, channel=0, data=[77, 127]),
   midi.NoteOnEvent(tick=24, channel=0, data=[77, 90]),
   midi.NoteOnEvent(tick=240, channel=0, data=[69, 90]),
   midi.NoteOnEvent(tick=128, channel=0, data=[40, 90]),
   midi.NoteOffEvent(tick=64, channel=0, data=[80, 127]),
   midi.NoteOnEvent(tick=64, channel=0, data=[49, 90]),
   midi.NoteOffEvent(tick=80, channel=0, data=[77, 127]),
   midi.NoteOnEvent(tick=48, channel=0, data=[54, 90]),
   midi.NoteOffEvent(tick=40, channel=0, data=[49, 127]),
   midi.NoteOnEvent(tick=88, channel=0, data=[56, 90]),
   midi.NoteOffEvent(tick=40, channel=0, data=[54, 127]),
   midi.NoteOnEvent(tick=88, channel=0, data=[57, 90]),
   midi.NoteOffEvent(tick=40, channel=0, data=[56, 127]),
   midi.NoteOffEvent(tick=88, channel=0, data=[69, 127]),
   midi.NoteOnEvent(tick=0, channel=0, data=[68, 90]),
   midi.NoteOffEvent(tick=40, channel=0, data=[57, 127]),
   midi.NoteOnEvent(tick=152, channel=0, data=[65, 90]),
   midi.NoteOffEvent(tick=104, channel=0, data=[40, 127]),
   midi.NoteOffEvent(tick=88, channel=0, data=[68, 127]),
   midi.NoteOnEvent(tick=0, channel=0, data=[57, 90]),
   midi.NoteOffEvent(tick=192, channel=0, data=[65, 127]),
   midi.NoteOnEvent(tick=384, channel=0, data=[54, 90]),
   midi.NoteOffEvent(tick=192, channel=0, data=[57, 127]),
   midi.NoteOnEvent(tick=0, channel=0, data=[56, 90]),
   midi.NoteOffEvent(tick=104, channel=0, data=[54, 127]),
   midi.NoteOnEvent(tick=88, channel=0, data=[57, 90]),
   midi.NoteOffEvent(tick=64, channel=0, data=[56, 127]),
   midi.NoteOnEvent(tick=128, channel=0, data=[56, 90]),
   midi.NoteOffEvent(tick=16, channel=0, data=[56, 127]),
   midi.NoteOnEvent(tick=8, channel=0, data=[57, 80]),
   midi.NoteOffEvent(tick=16, channel=0, data=[57, 127]),
   midi.NoteOnEvent(tick=8, channel=0, data=[56, 90]),
   midi.NoteOffEvent(tick=16, channel=0, data=[57, 127]),
   midi.NoteOffEvent(tick=112, channel=0, data=[56, 127]),
   midi.NoteOnEvent(tick=16, channel=0, data=[54, 90]),
   midi.NoteOnEvent(tick=168, channel=0, data=[56, 90]),
   midi.NoteOffEvent(tick=88, channel=0, data=[54, 127]),
   midi.NoteOnEvent(tick=128, channel=0, data=[54, 90]),
   midi.NoteOffEvent(tick=40, channel=0, data=[56, 127]),
   midi.NoteOnEvent(tick=152, channel=0, data=[56, 90]),
   midi.NoteOffEvent(tick=64, channel=0, data=[54, 127]),
   midi.NoteOnEvent(tick=128, channel=0, data=[54, 90]),
   midi.NoteOffEvent(tick=64, channel=0, data=[56, 127]),
   midi.NoteOnEvent(tick=128, channel=0, data=[57, 90]),
   midi.NoteOffEvent(tick=64, channel=0, data=[54, 127]),
   midi.NoteOnEvent(tick=128, channel=0, data=[61, 90]),
   midi.NoteOffEvent(tick=64, channel=0, data=[57, 127]),
   midi.NoteOnEvent(tick=128, channel=0, data=[63, 90]),
   midi.NoteOnEvent(tick=0, channel=0, data=[58, 90]),
   midi.NoteOnEvent(tick=0, channel=0, data=[54, 90]),
   midi.NoteOffEvent(tick=36, channel=0, data=[61, 127]),
   midi.NoteOnEvent(tick=60, channel=0, data=[44, 90]),
   midi.NoteOffEvent(tick=32, channel=0, data=[63, 127]),
   midi.NoteOffEvent(tick=0, channel=0, data=[58, 127]),
   midi.NoteOffEvent(tick=0, channel=0, data=[54, 127]),
   midi.NoteOnEvent(tick=64, channel=0, data=[63, 90]),
   midi.NoteOnEvent(tick=0, channel=0, data=[58, 90]),
   midi.NoteOnEvent(tick=0, channel=0, data=[54, 90]),
   midi.NoteOffEvent(tick=32, channel=0, data=[44, 127]),
   midi.NoteOffEvent(tick=224, channel=0, data=[63, 127]),
   midi.NoteOffEvent(tick=0, channel=0, data=[58, 127]),
   midi.NoteOffEvent(tick=0, channel=0, data=[54, 127]),
   midi.NoteOnEvent(tick=704, channel=0, data=[63, 90]),
   midi.NoteOnEvent(tick=0, channel=0, data=[58, 90]),
   midi.NoteOnEvent(tick=0, channel=0, data=[54, 90]),
   midi.NoteOnEvent(tick=96, channel=0, data=[44, 90]),
   midi.NoteOffEvent(tick=32, channel=0, data=[63, 127]),
   midi.NoteOffEvent(tick=0, channel=0, data=[58, 127]),
   midi.NoteOffEvent(tick=0, channel=0, data=[54, 127]),
   midi.NoteOnEvent(tick=64, channel=0, data=[63, 90]),
   midi.NoteOnEvent(tick=0, channel=0, data=[58, 90]),
   midi.NoteOnEvent(tick=0, channel=0, data=[54, 90]),
   midi.NoteOffEvent(tick=32, channel=0, data=[44, 127]),
   midi.NoteOffEvent(tick=224, channel=0, data=[63, 127]),
   midi.NoteOffEvent(tick=0, channel=0, data=[58, 127]),
   midi.NoteOffEvent(tick=0, channel=0, data=[54, 127]),
   midi.NoteOnEvent(tick=128, channel=0, data=[63, 90]),
   midi.NoteOnEvent(tick=96, channel=0, data=[58, 90]),
   midi.NoteOffEvent(tick=32, channel=0, data=[63, 127]),
   midi.NoteOnEvent(tick=64, channel=0, data=[49, 90]),
   midi.NoteOffEvent(tick=32, channel=0, data=[58, 127]),
   midi.NoteOnEvent(tick=64, channel=0, data=[54, 90]),
   midi.NoteOffEvent(tick=32, channel=0, data=[49, 127]),
   midi.NoteOnEvent(tick=64, channel=0, data=[58, 90]),
   midi.NoteOffEvent(tick=32, channel=0, data=[54, 127]),
   midi.NoteOnEvent(tick=64, channel=0, data=[63, 90]),
   midi.NoteOffEvent(tick=32, channel=0, data=[58, 127]),
   midi.NoteOnEvent(tick=64, channel=0, data=[65, 90]),
   midi.NoteOnEvent(tick=0, channel=0, data=[58, 90]),
   midi.NoteOnEvent(tick=0, channel=0, data=[54, 90]),
   midi.NoteOffEvent(tick=32, channel=0, data=[63, 127]),
   midi.NoteOnEvent(tick=64, channel=0, data=[44, 90]),
   midi.NoteOffEvent(tick=32, channel=0, data=[65, 127]),
   midi.NoteOffEvent(tick=0, channel=0, data=[58, 127]),
   midi.NoteOffEvent(tick=0, channel=0, data=[54, 127]),
   midi.NoteOnEvent(tick=64, channel=0, data=[54, 90]),
   midi.NoteOnEvent(tick=0, channel=0, data=[58, 90]),
   midi.NoteOnEvent(tick=0, channel=0, data=[65, 90]),
   midi.NoteOffEvent(tick=32, channel=0, data=[44, 127]),
   midi.NoteOffEvent(tick=224, channel=0, data=[54, 127]),
   midi.NoteOffEvent(tick=0, channel=0, data=[58, 127]),
   midi.NoteOffEvent(tick=0, channel=0, data=[65, 127]),
   midi.NoteOnEvent(tick=128, channel=0, data=[65, 90]),
   midi.NoteOnEvent(tick=96, channel=0, data=[58, 90]),
   midi.NoteOnEvent(tick=96, channel=0, data=[54, 90]),
   midi.NoteOffEvent(tick=64, channel=0, data=[65, 127]),
   midi.NoteOnEvent(tick=32, channel=0, data=[58, 90]),
   midi.NoteOffEvent(tick=64, channel=0, data=[58, 127]),
   midi.NoteOnEvent(tick=32, channel=0, data=[61, 90]),
   midi.NoteOffEvent(tick=64, channel=0, data=[54, 127]),
   midi.NoteOnEvent(tick=32, channel=0, data=[65, 90]),
   midi.NoteOffEvent(tick=64, channel=0, data=[58, 127]),
   midi.NoteOnEvent(tick=32, channel=0, data=[63, 90]),
   midi.NoteOnEvent(tick=0, channel=0, data=[58, 90]),
   midi.NoteOnEvent(tick=0, channel=0, data=[54, 90]),
   midi.NoteOffEvent(tick=64, channel=0, data=[61, 127]),
   midi.NoteOnEvent(tick=32, channel=0, data=[44, 90]),
   midi.NoteOffEvent(tick=32, channel=0, data=[63, 127]),
   midi.NoteOffEvent(tick=0, channel=0, data=[58, 127]),
   midi.NoteOffEvent(tick=0, channel=0, data=[54, 127]),
   midi.NoteOffEvent(tick=32, channel=0, data=[65, 127]),
   midi.NoteOnEvent(tick=32, channel=0, data=[54, 90]),
   midi.NoteOnEvent(tick=0, channel=0, data=[58, 90]),
   midi.NoteOnEvent(tick=0, channel=0, data=[63, 90]),
   midi.NoteOffEvent(tick=32, channel=0, data=[44, 127]),
   midi.NoteOffEvent(tick=96, channel=0, data=[54, 127]),
   midi.NoteOffEvent(tick=0, channel=0, data=[58, 127]),
   midi.NoteOffEvent(tick=0, channel=0, data=[63, 127]),
   midi.NoteOnEvent(tick=256, channel=0, data=[63, 90]),
   midi.NoteOnEvent(tick=96, channel=0, data=[58, 90]),
   midi.NoteOnEvent(tick=96, channel=0, data=[49, 90]),
   midi.NoteOffEvent(tick=64, channel=0, data=[63, 127]),
   midi.NoteOnEvent(tick=32, channel=0, data=[54, 90]),
   midi.NoteOffEvent(tick=64, channel=0, data=[58, 127]),
   midi.NoteOnEvent(tick=32, channel=0, data=[58, 90]),
   midi.NoteOffEvent(tick=64, channel=0, data=[49, 127]),
   midi.NoteOnEvent(tick=32, channel=0, data=[63, 90]),
   midi.NoteOffEvent(tick=32, channel=0, data=[58, 127]),
   midi.NoteOffEvent(tick=32, channel=0, data=[54, 127]),
   midi.NoteOnEvent(tick=32, channel=0, data=[65, 90]),
   midi.NoteOnEvent(tick=0, channel=0, data=[58, 90]),
   midi.NoteOnEvent(tick=0, channel=0, data=[54, 90]),
   midi.NoteOffEvent(tick=32, channel=0, data=[63, 127]),
   midi.NoteOnEvent(tick=64, channel=0, data=[44, 90]),
   midi.NoteOffEvent(tick=32, channel=0, data=[65, 127]),
   midi.NoteOffEvent(tick=0, channel=0, data=[58, 127]),
   midi.NoteOffEvent(tick=0, channel=0, data=[54, 127]),
   midi.NoteOnEvent(tick=64, channel=0, data=[54, 90]),
   midi.NoteOnEvent(tick=0, channel=0, data=[58, 90]),
   midi.NoteOnEvent(tick=0, channel=0, data=[65, 90]),
   midi.NoteOffEvent(tick=32, channel=0, data=[44, 127]),
   midi.NoteOffEvent(tick=96, channel=0, data=[54, 127]),
   midi.NoteOffEvent(tick=0, channel=0, data=[58, 127]),
   midi.NoteOffEvent(tick=0, channel=0, data=[65, 127]),
   midi.NoteOnEvent(tick=256, channel=0, data=[65, 90]),
   midi.NoteOnEvent(tick=96, channel=0, data=[58, 90]),
   midi.NoteOffEvent(tick=32, channel=0, data=[65, 127]),
   midi.NoteOnEvent(tick=64, channel=0, data=[54, 90]),
   midi.NoteOffEvent(tick=32, channel=0, data=[58, 127]),
   midi.NoteOnEvent(tick=64, channel=0, data=[58, 90]),
   midi.NoteOffEvent(tick=32, channel=0, data=[54, 127]),
   midi.NoteOnEvent(tick=64, channel=0, data=[61, 90]),
   midi.NoteOffEvent(tick=32, channel=0, data=[58, 127]),
   midi.NoteOnEvent(tick=64, channel=0, data=[65, 90]),
   midi.NoteOffEvent(tick=32, channel=0, data=[61, 127]),
   midi.NoteOnEvent(tick=64, channel=0, data=[63, 90]),
   midi.NoteOnEvent(tick=0, channel=0, data=[58, 90]),
   midi.NoteOnEvent(tick=0, channel=0, data=[54, 90]),
   midi.NoteOffEvent(tick=36, channel=0, data=[65, 127]),
   midi.NoteOnEvent(tick=60, channel=0, data=[44, 90]),
   midi.NoteOffEvent(tick=32, channel=0, data=[63, 127]),
   midi.NoteOffEvent(tick=0, channel=0, data=[58, 127]),
   midi.NoteOffEvent(tick=0, channel=0, data=[54, 127]),
   midi.NoteOnEvent(tick=64, channel=0, data=[54, 90]),
   midi.NoteOnEvent(tick=0, channel=0, data=[58, 90]),
   midi.NoteOnEvent(tick=0, channel=0, data=[63, 90]),
   midi.NoteOffEvent(tick=32, channel=0, data=[44, 127]),
   midi.NoteOffEvent(tick=96, channel=0, data=[54, 127]),
   midi.NoteOffEvent(tick=0, channel=0, data=[58, 127]),
   midi.NoteOffEvent(tick=0, channel=0, data=[63, 127]),
   midi.NoteOnEvent(tick=64, channel=0, data=[70, 90]),
   midi.NoteOnEvent(tick=0, channel=0, data=[58, 90]),
   midi.NoteOnEvent(tick=96, channel=0, data=[70, 90]),
   midi.NoteOffEvent(tick=32, channel=0, data=[70, 127]),
   midi.NoteOffEvent(tick=28, channel=0, data=[70, 127]),
   midi.NoteOnEvent(tick=36, channel=0, data=[70, 90]),
   midi.NoteOffEvent(tick=60, channel=0, data=[70, 127]),
   midi.NoteOffEvent(tick=132, channel=0, data=[58, 127]),
   midi.NoteOnEvent(tick=0, channel=0, data=[72, 90]),
   midi.NoteOnEvent(tick=0, channel=0, data=[60, 90]),
   midi.NoteOnEvent(tick=96, channel=0, data=[72, 90]),
   midi.NoteOffEvent(tick=32, channel=0, data=[72, 127]),
   midi.NoteOnEvent(tick=64, channel=0, data=[72, 90]),
   midi.NoteOffEvent(tick=32, channel=0, data=[72, 127]),
   midi.NoteOffEvent(tick=96, channel=0, data=[72, 127]),
   midi.NoteOffEvent(tick=64, channel=0, data=[60, 127]),
   midi.NoteOnEvent(tick=0, channel=0, data=[73, 90]),
   midi.NoteOnEvent(tick=0, channel=0, data=[61, 90]),
   midi.NoteOffEvent(tick=128, channel=0, data=[73, 127]),
   midi.NoteOnEvent(tick=64, channel=0, data=[65, 90]),
   midi.NoteOnEvent(tick=0, channel=0, data=[77, 90]),
   midi.NoteOffEvent(tick=164, channel=0, data=[61, 127]),
   midi.NoteOnEvent(tick=28, channel=0, data=[75, 90]),
   midi.NoteOffEvent(tick=64, channel=0, data=[65, 127]),
   midi.NoteOffEvent(tick=0, channel=0, data=[77, 127]),
   midi.NoteOnEvent(tick=32, channel=0, data=[73, 90]),
   midi.NoteOnEvent(tick=96, channel=0, data=[72, 90]),
   midi.NoteOffEvent(tick=64, channel=0, data=[75, 127]),
   midi.NoteOffEvent(tick=96, channel=0, data=[73, 127]),
   midi.NoteOnEvent(tick=32, channel=0, data=[70, 90]),
   midi.NoteOffEvent(tick=64, channel=0, data=[72, 127]),
   midi.NoteOnEvent(tick=128, channel=0, data=[72, 90]),
   midi.NoteOffEvent(tick=64, channel=0, data=[70, 127]),
   midi.NoteOnEvent(tick=128, channel=0, data=[70, 90]),
   midi.NoteOffEvent(tick=64, channel=0, data=[72, 127]),
   midi.NoteOnEvent(tick=128, channel=0, data=[72, 90]),
   midi.NoteOnEvent(tick=96, channel=0, data=[72, 90]),
   midi.NoteOffEvent(tick=32, channel=0, data=[72, 127]),
   midi.NoteOnEvent(tick=64, channel=0, data=[70, 90]),
   midi.NoteOffEvent(tick=32, channel=0, data=[72, 127]),
   midi.NoteOffEvent(tick=32, channel=0, data=[70, 127]),
   midi.NoteOffEvent(tick=64, channel=0, data=[70, 127]),
   midi.NoteOnEvent(tick=64, channel=0, data=[72, 90]),
   midi.NoteOnEvent(tick=96, channel=0, data=[72, 90]),
   midi.NoteOffEvent(tick=32, channel=0, data=[72, 127]),
   midi.NoteOnEvent(tick=64, channel=0, data=[70, 90]),
   midi.NoteOffEvent(tick=32, channel=0, data=[72, 127]),
   midi.NoteOffEvent(tick=96, channel=0, data=[70, 127]),
   midi.NoteOnEvent(tick=64, channel=0, data=[72, 90]),
   midi.NoteOnEvent(tick=96, channel=0, data=[70, 90]),
   midi.NoteOffEvent(tick=32, channel=0, data=[72, 127]),
   midi.NoteOnEvent(tick=64, channel=0, data=[72, 90]),
   midi.NoteOffEvent(tick=32, channel=0, data=[70, 127]),
   midi.NoteOnEvent(tick=64, channel=0, data=[73, 90]),
   midi.NoteOffEvent(tick=32, channel=0, data=[72, 127]),
   midi.NoteOnEvent(tick=64, channel=0, data=[77, 90]),
   midi.NoteOffEvent(tick=32, channel=0, data=[73, 127]),
   midi.NoteOnEvent(tick=160, channel=0, data=[76, 90]),
   midi.NoteOnEvent(tick=0, channel=0, data=[45, 90]),
   midi.NoteOnEvent(tick=0, channel=0, data=[50, 90]),
   midi.NoteOnEvent(tick=0, channel=0, data=[55, 90]),
   midi.NoteOnEvent(tick=0, channel=0, data=[59, 90]),
   midi.NoteOffEvent(tick=64, channel=0, data=[77, 127]),
   midi.NoteOnEvent(tick=32, channel=0, data=[74, 90]),
   midi.NoteOffEvent(tick=32, channel=0, data=[76, 127]),
   midi.NoteOnEvent(tick=64, channel=0, data=[73, 90]),
   midi.NoteOffEvent(tick=32, channel=0, data=[74, 127]),
   midi.NoteOffEvent(tick=96, channel=0, data=[73, 127]),
   midi.NoteOnEvent(tick=64, channel=0, data=[71, 90]),
   midi.NoteOffEvent(tick=128, channel=0, data=[45, 127]),
   midi.NoteOffEvent(tick=0, channel=0, data=[50, 127]),
   midi.NoteOffEvent(tick=0, channel=0, data=[55, 127]),
   midi.NoteOffEvent(tick=0, channel=0, data=[59, 127]),
   midi.NoteOffEvent(tick=0, channel=0, data=[71, 127]),
   midi.NoteOnEvent(tick=64, channel=0, data=[73, 90]),
   midi.NoteOffEvent(tick=128, channel=0, data=[73, 127]),
   midi.NoteOnEvent(tick=64, channel=0, data=[71, 90]),
   midi.NoteOffEvent(tick=128, channel=0, data=[71, 127]),
   midi.NoteOnEvent(tick=64, channel=0, data=[73, 90]),
   midi.NoteOffEvent(tick=64, channel=0, data=[73, 127]),
   midi.NoteOnEvent(tick=32, channel=0, data=[73, 90]),
   midi.NoteOffEvent(tick=64, channel=0, data=[73, 127]),
   midi.NoteOnEvent(tick=32, channel=0, data=[71, 90]),
   midi.NoteOffEvent(tick=128, channel=0, data=[71, 127]),
   midi.NoteOnEvent(tick=64, channel=0, data=[73, 90]),
   midi.NoteOffEvent(tick=64, channel=0, data=[73, 127]),
   midi.NoteOnEvent(tick=32, channel=0, data=[73, 90]),
   midi.NoteOffEvent(tick=64, channel=0, data=[73, 127]),
   midi.NoteOnEvent(tick=32, channel=0, data=[71, 90]),
   midi.NoteOffEvent(tick=128, channel=0, data=[71, 127]),
   midi.NoteOnEvent(tick=64, channel=0, data=[73, 90]),
   midi.NoteOffEvent(tick=64, channel=0, data=[73, 127]),
   midi.NoteOnEvent(tick=32, channel=0, data=[71, 90]),
   midi.NoteOffEvent(tick=64, channel=0, data=[71, 127]),
   midi.NoteOnEvent(tick=32, channel=0, data=[73, 90]),
   midi.NoteOffEvent(tick=64, channel=0, data=[73, 127]),
   midi.NoteOnEvent(tick=32, channel=0, data=[74, 90]),
   midi.NoteOffEvent(tick=64, channel=0, data=[74, 127]),
   midi.NoteOnEvent(tick=32, channel=0, data=[69, 90]),
   midi.NoteOnEvent(tick=64, channel=0, data=[65, 90]),
   midi.NoteOffEvent(tick=20, channel=0, data=[69, 127]),
   midi.NoteOnEvent(tick=44, channel=0, data=[62, 90]),
   midi.NoteOffEvent(tick=20, channel=0, data=[65, 127]),
   midi.NoteOnEvent(tick=44, channel=0, data=[45, 90]),
   midi.NoteOnEvent(tick=0, channel=0, data=[50, 90]),
   midi.NoteOnEvent(tick=0, channel=0, data=[58, 90]),
   midi.NoteOffEvent(tick=20, channel=0, data=[62, 127]),
   midi.NoteOffEvent(tick=236, channel=0, data=[45, 127]),
   midi.NoteOffEvent(tick=0, channel=0, data=[50, 127]),
   midi.NoteOffEvent(tick=0, channel=0, data=[58, 127]),
   midi.NoteOnEvent(tick=128, channel=0, data=[57, 90]),
   midi.NoteOnEvent(tick=96, channel=0, data=[58, 90]),
   midi.NoteOffEvent(tick=32, channel=0, data=[57, 127]),
   midi.NoteOnEvent(tick=64, channel=0, data=[62, 90]),
   midi.NoteOffEvent(tick=32, channel=0, data=[58, 127]),
   midi.NoteOnEvent(tick=160, channel=0, data=[65, 90]),
   midi.NoteOffEvent(tick=64, channel=0, data=[62, 127]),
   midi.NoteOffEvent(tick=192, channel=0, data=[65, 127]),
   midi.NoteOnEvent(tick=128, channel=0, data=[69, 90]),
   midi.NoteOnEvent(tick=0, channel=0, data=[65, 90]),
   midi.NoteOnEvent(tick=0, channel=0, data=[58, 90]),
   midi.NoteOnEvent(tick=0, channel=0, data=[55, 90]),
   midi.NoteOffEvent(tick=192, channel=0, data=[69, 127]),
   midi.NoteOffEvent(tick=0, channel=0, data=[65, 127]),
   midi.NoteOffEvent(tick=0, channel=0, data=[58, 127]),
   midi.NoteOffEvent(tick=0, channel=0, data=[55, 127]),
   midi.NoteOnEvent(tick=0, channel=0, data=[57, 90]),
   midi.NoteOnEvent(tick=0, channel=0, data=[60, 90]),
   midi.NoteOnEvent(tick=0, channel=0, data=[67, 90]),
   midi.NoteOnEvent(tick=0, channel=0, data=[71, 90]),
   midi.NoteOffEvent(tick=192, channel=0, data=[57, 127]),
   midi.NoteOffEvent(tick=0, channel=0, data=[60, 127]),
   midi.NoteOffEvent(tick=0, channel=0, data=[67, 127]),
   midi.NoteOffEvent(tick=0, channel=0, data=[71, 127]),
   midi.NoteOnEvent(tick=0, channel=0, data=[45, 90]),
   midi.NoteOnEvent(tick=0, channel=0, data=[52, 90]),
   midi.NoteOnEvent(tick=0, channel=0, data=[55, 90]),
   midi.NoteOnEvent(tick=0, channel=0, data=[59, 90]),
   midi.NoteOffEvent(tick=192, channel=0, data=[45, 127]),
   midi.NoteOffEvent(tick=0, channel=0, data=[52, 127]),
   midi.NoteOffEvent(tick=0, channel=0, data=[55, 127]),
   midi.NoteOffEvent(tick=0, channel=0, data=[59, 127]),
   midi.NoteOnEvent(tick=192, channel=0, data=[59, 90]),
   midi.NoteOnEvent(tick=96, channel=0, data=[60, 90]),
   midi.NoteOffEvent(tick=96, channel=0, data=[59, 127]),
   midi.NoteOnEvent(tick=0, channel=0, data=[64, 90]),
   midi.NoteOffEvent(tick=96, channel=0, data=[60, 127]),
   midi.NoteOffEvent(tick=96, channel=0, data=[64, 127]),
   midi.NoteOnEvent(tick=0, channel=0, data=[67, 90]),
   midi.NoteOnEvent(tick=96, channel=0, data=[71, 90]),
   midi.NoteOffEvent(tick=96, channel=0, data=[67, 127]),
   midi.NoteOffEvent(tick=0, channel=0, data=[71, 127]),
   midi.NoteOnEvent(tick=0, channel=0, data=[69, 90]),
   midi.NoteOnEvent(tick=64, channel=0, data=[65, 90]),
   midi.NoteOffEvent(tick=20, channel=0, data=[69, 127]),
   midi.NoteOnEvent(tick=44, channel=0, data=[62, 90]),
   midi.NoteOffEvent(tick=20, channel=0, data=[65, 127]),
   midi.NoteOnEvent(tick=44, channel=0, data=[45, 90]),
   midi.NoteOnEvent(tick=0, channel=0, data=[50, 90]),
   midi.NoteOnEvent(tick=0, channel=0, data=[58, 90]),
   midi.NoteOffEvent(tick=20, channel=0, data=[62, 127]),
   midi.NoteOffEvent(tick=236, channel=0, data=[45, 127]),
   midi.NoteOffEvent(tick=0, channel=0, data=[50, 127]),
   midi.NoteOffEvent(tick=0, channel=0, data=[58, 127]),
   midi.NoteOnEvent(tick=128, channel=0, data=[57, 90]),
   midi.NoteOnEvent(tick=96, channel=0, data=[58, 90]),
   midi.NoteOffEvent(tick=32, channel=0, data=[57, 127]),
   midi.NoteOnEvent(tick=64, channel=0, data=[62, 90]),
   midi.NoteOffEvent(tick=32, channel=0, data=[58, 127]),
   midi.NoteOnEvent(tick=160, channel=0, data=[65, 90]),
   midi.NoteOffEvent(tick=64, channel=0, data=[62, 127]),
   midi.NoteOffEvent(tick=192, channel=0, data=[65, 127]),
   midi.NoteOnEvent(tick=128, channel=0, data=[69, 90]),
   midi.NoteOnEvent(tick=0, channel=0, data=[65, 90]),
   midi.NoteOnEvent(tick=0, channel=0, data=[58, 90]),
   midi.NoteOnEvent(tick=0, channel=0, data=[55, 90]),
   midi.NoteOffEvent(tick=128, channel=0, data=[69, 127]),
   midi.NoteOffEvent(tick=0, channel=0, data=[65, 127]),
   midi.NoteOffEvent(tick=0, channel=0, data=[58, 127]),
   midi.NoteOffEvent(tick=0, channel=0, data=[55, 127]),
   midi.NoteOnEvent(tick=64, channel=0, data=[71, 90]),
   midi.NoteOnEvent(tick=0, channel=0, data=[67, 90]),
   midi.NoteOnEvent(tick=0, channel=0, data=[60, 90]),
   midi.NoteOnEvent(tick=0, channel=0, data=[57, 90]),
   midi.NoteOffEvent(tick=128, channel=0, data=[71, 127]),
   midi.NoteOffEvent(tick=0, channel=0, data=[67, 127]),
   midi.NoteOffEvent(tick=0, channel=0, data=[60, 127]),
   midi.NoteOffEvent(tick=0, channel=0, data=[57, 127]),
   midi.NoteOnEvent(tick=64, channel=0, data=[45, 90]),
   midi.NoteOnEvent(tick=0, channel=0, data=[52, 90]),
   midi.NoteOnEvent(tick=0, channel=0, data=[55, 90]),
   midi.NoteOnEvent(tick=0, channel=0, data=[59, 90]),
   midi.NoteOffEvent(tick=256, channel=0, data=[45, 127]),
   midi.NoteOffEvent(tick=0, channel=0, data=[52, 127]),
   midi.NoteOffEvent(tick=0, channel=0, data=[55, 127]),
   midi.NoteOffEvent(tick=0, channel=0, data=[59, 127]),
   midi.NoteOnEvent(tick=32, channel=0, data=[57, 90]),
   midi.NoteOffEvent(tick=64, channel=0, data=[57, 127]),
   midi.NoteOnEvent(tick=32, channel=0, data=[59, 90]),
   midi.NoteOffEvent(tick=64, channel=0, data=[59, 127]),
   midi.NoteOnEvent(tick=32, channel=0, data=[60, 90]),
   midi.NoteOffEvent(tick=64, channel=0, data=[60, 127]),
   midi.NoteOnEvent(tick=32, channel=0, data=[64, 90]),
   midi.NoteOffEvent(tick=128, channel=0, data=[64, 127]),
   midi.NoteOnEvent(tick=64, channel=0, data=[67, 90]),
   midi.NoteOffEvent(tick=128, channel=0, data=[67, 127]),
   midi.NoteOnEvent(tick=256, channel=0, data=[71, 90]),
   midi.NoteOnEvent(tick=0, channel=0, data=[67, 90]),
   midi.NoteOnEvent(tick=0, channel=0, data=[60, 90]),
   midi.NoteOnEvent(tick=0, channel=0, data=[57, 90]),
   midi.NoteOffEvent(tick=128, channel=0, data=[71, 127]),
   midi.NoteOffEvent(tick=0, channel=0, data=[67, 127]),
   midi.NoteOffEvent(tick=0, channel=0, data=[60, 127]),
   midi.NoteOffEvent(tick=0, channel=0, data=[57, 127]),
   midi.NoteOnEvent(tick=64, channel=0, data=[72, 90]),
   midi.NoteOnEvent(tick=0, channel=0, data=[69, 90]),
   midi.NoteOnEvent(tick=0, channel=0, data=[62, 90]),
   midi.NoteOnEvent(tick=0, channel=0, data=[58, 90]),
   midi.NoteOffEvent(tick=192, channel=0, data=[72, 127]),
   midi.NoteOffEvent(tick=0, channel=0, data=[69, 127]),
   midi.NoteOffEvent(tick=0, channel=0, data=[62, 127]),
   midi.NoteOffEvent(tick=0, channel=0, data=[58, 127]),
   midi.NoteOnEvent(tick=0, channel=0, data=[62, 90]),
   midi.NoteOnEvent(tick=0, channel=0, data=[57, 90]),
   midi.NoteOnEvent(tick=0, channel=0, data=[53, 90]),
   midi.NoteOnEvent(tick=0, channel=0, data=[46, 90]),
   midi.NoteOffEvent(tick=128, channel=0, data=[62, 127]),
   midi.NoteOffEvent(tick=0, channel=0, data=[57, 127]),
   midi.NoteOffEvent(tick=0, channel=0, data=[53, 127]),
   midi.NoteOffEvent(tick=0, channel=0, data=[46, 127]),
   midi.NoteOnEvent(tick=160, channel=0, data=[58, 90]),
   midi.NoteOffEvent(tick=64, channel=0, data=[58, 127]),
   midi.NoteOnEvent(tick=32, channel=0, data=[62, 90]),
   midi.NoteOffEvent(tick=64, channel=0, data=[62, 127]),
   midi.NoteOnEvent(tick=32, channel=0, data=[65, 90]),
   midi.NoteOffEvent(tick=64, channel=0, data=[65, 127]),
   midi.NoteOnEvent(tick=32, channel=0, data=[69, 90]),
   midi.NoteOffEvent(tick=128, channel=0, data=[69, 127]),
   midi.NoteOnEvent(tick=64, channel=0, data=[72, 90]),
   midi.NoteOnEvent(tick=0, channel=0, data=[69, 90]),
   midi.NoteOnEvent(tick=0, channel=0, data=[62, 90]),
   midi.NoteOnEvent(tick=0, channel=0, data=[58, 90]),
   midi.NoteOffEvent(tick=128, channel=0, data=[72, 127]),
   midi.NoteOffEvent(tick=0, channel=0, data=[69, 127]),
   midi.NoteOffEvent(tick=0, channel=0, data=[62, 127]),
   midi.NoteOffEvent(tick=0, channel=0, data=[58, 127]),
   midi.NoteOnEvent(tick=64, channel=0, data=[74, 90]),
   midi.NoteOnEvent(tick=0, channel=0, data=[70, 90]),
   midi.NoteOnEvent(tick=0, channel=0, data=[63, 90]),
   midi.NoteOnEvent(tick=0, channel=0, data=[60, 90]),
   midi.NoteOffEvent(tick=128, channel=0, data=[74, 127]),
   midi.NoteOffEvent(tick=0, channel=0, data=[70, 127]),
   midi.NoteOffEvent(tick=0, channel=0, data=[63, 127]),
   midi.NoteOffEvent(tick=0, channel=0, data=[60, 127]),
   midi.NoteOnEvent(tick=64, channel=0, data=[63, 90]),
   midi.NoteOnEvent(tick=0, channel=0, data=[58, 90]),
   midi.NoteOnEvent(tick=0, channel=0, data=[55, 90]),
   midi.NoteOnEvent(tick=0, channel=0, data=[50, 90]),
   midi.NoteOffEvent(tick=128, channel=0, data=[63, 127]),
   midi.NoteOffEvent(tick=0, channel=0, data=[58, 127]),
   midi.NoteOffEvent(tick=0, channel=0, data=[55, 127]),
   midi.NoteOffEvent(tick=0, channel=0, data=[50, 127]),
   midi.NoteOnEvent(tick=256, channel=0, data=[74, 90]),
   midi.NoteOnEvent(tick=0, channel=0, data=[70, 90]),
   midi.NoteOnEvent(tick=0, channel=0, data=[63, 90]),
   midi.NoteOnEvent(tick=0, channel=0, data=[55, 90]),
   midi.NoteOffEvent(tick=128, channel=0, data=[74, 127]),
   midi.NoteOffEvent(tick=0, channel=0, data=[70, 127]),
   midi.NoteOffEvent(tick=0, channel=0, data=[63, 127]),
   midi.NoteOffEvent(tick=0, channel=0, data=[55, 127]),
   midi.NoteOnEvent(tick=64, channel=0, data=[75, 90]),
   midi.NoteOnEvent(tick=0, channel=0, data=[72, 90]),
   midi.NoteOnEvent(tick=0, channel=0, data=[65, 90]),
   midi.NoteOnEvent(tick=0, channel=0, data=[56, 90]),
   midi.NoteOffEvent(tick=192, channel=0, data=[75, 127]),
   midi.NoteOffEvent(tick=0, channel=0, data=[72, 127]),
   midi.NoteOffEvent(tick=0, channel=0, data=[65, 127]),
   midi.NoteOffEvent(tick=0, channel=0, data=[56, 127]),
   midi.NoteOnEvent(tick=0, channel=0, data=[65, 90]),
   midi.NoteOnEvent(tick=0, channel=0, data=[60, 90]),
   midi.NoteOnEvent(tick=0, channel=0, data=[56, 90]),
   midi.NoteOnEvent(tick=0, channel=0, data=[49, 90]),
   midi.NoteOffEvent(tick=128, channel=0, data=[65, 127]),
   midi.NoteOffEvent(tick=0, channel=0, data=[60, 127]),
   midi.NoteOffEvent(tick=0, channel=0, data=[56, 127]),
   midi.NoteOffEvent(tick=0, channel=0, data=[49, 127]),
   midi.NoteOnEvent(tick=256, channel=0, data=[60, 90]),
   midi.NoteOffEvent(tick=64, channel=0, data=[60, 127]),
   midi.NoteOnEvent(tick=32, channel=0, data=[61, 90]),
   midi.NoteOffEvent(tick=64, channel=0, data=[61, 127]),
   midi.NoteOnEvent(tick=32, channel=0, data=[65, 90]),
   midi.NoteOffEvent(tick=64, channel=0, data=[65, 127]),
   midi.NoteOnEvent(tick=32, channel=0, data=[68, 90]),
   midi.NoteOffEvent(tick=64, channel=0, data=[68, 127]),
   midi.NoteOnEvent(tick=32, channel=0, data=[72, 90]),
   midi.NoteOffEvent(tick=64, channel=0, data=[72, 127]),
   midi.NoteOnEvent(tick=32, channel=0, data=[75, 90]),
   midi.NoteOffEvent(tick=64, channel=0, data=[75, 127]),
   midi.NoteOnEvent(tick=32, channel=0, data=[79, 90]),
   midi.NoteOnEvent(tick=192, channel=0, data=[80, 90]),
   midi.NoteOnEvent(tick=0, channel=0, data=[68, 90]),
   midi.NoteOffEvent(tick=148, channel=0, data=[79, 127]),
   midi.NoteOffEvent(tick=108, channel=0, data=[80, 127]),
   midi.NoteOffEvent(tick=0, channel=0, data=[68, 127]),
   midi.NoteOnEvent(tick=128, channel=0, data=[77, 90]),
   midi.NoteOnEvent(tick=0, channel=0, data=[65, 90]),
   midi.NoteOffEvent(tick=256, channel=0, data=[77, 127]),
   midi.NoteOffEvent(tick=0, channel=0, data=[65, 127]),
   midi.NoteOnEvent(tick=128, channel=0, data=[67, 90]),
   midi.NoteOnEvent(tick=0, channel=0, data=[62, 90]),
   midi.NoteOnEvent(tick=0, channel=0, data=[59, 90]),
   midi.NoteOnEvent(tick=0, channel=0, data=[53, 90]),
   midi.NoteOnEvent(tick=0, channel=0, data=[49, 90]),
   midi.NoteOnEvent(tick=0, channel=0, data=[43, 90]),
   midi.NoteOffEvent(tick=128, channel=0, data=[67, 127]),
   midi.NoteOffEvent(tick=0, channel=0, data=[62, 127]),
   midi.NoteOffEvent(tick=0, channel=0, data=[59, 127]),
   midi.NoteOffEvent(tick=0, channel=0, data=[53, 127]),
   midi.NoteOffEvent(tick=0, channel=0, data=[49, 127]),
   midi.NoteOffEvent(tick=0, channel=0, data=[43, 127]),
   midi.NoteOnEvent(tick=64, channel=0, data=[68, 90]),
   midi.NoteOffEvent(tick=128, channel=0, data=[68, 127]),
   midi.NoteOnEvent(tick=64, channel=0, data=[65, 90]),
   midi.NoteOffEvent(tick=128, channel=0, data=[65, 127]),
   midi.NoteOnEvent(tick=64, channel=0, data=[67, 90]),
   midi.NoteOffEvent(tick=128, channel=0, data=[67, 127]),
   midi.NoteOnEvent(tick=64, channel=0, data=[80, 90]),
   midi.NoteOnEvent(tick=0, channel=0, data=[68, 90]),
   midi.NoteOffEvent(tick=256, channel=0, data=[80, 127]),
   midi.NoteOffEvent(tick=0, channel=0, data=[68, 127]),
   midi.NoteOnEvent(tick=128, channel=0, data=[77, 90]),
   midi.NoteOnEvent(tick=0, channel=0, data=[65, 90]),
   midi.NoteOnEvent(tick=0, channel=0, data=[62, 90]),
   midi.NoteOnEvent(tick=0, channel=0, data=[59, 90]),
   midi.NoteOnEvent(tick=0, channel=0, data=[53, 90]),
   midi.NoteOnEvent(tick=0, channel=0, data=[49, 90]),
   midi.NoteOnEvent(tick=0, channel=0, data=[43, 90]),
   midi.NoteOffEvent(tick=128, channel=0, data=[62, 127]),
   midi.NoteOffEvent(tick=0, channel=0, data=[59, 127]),
   midi.NoteOffEvent(tick=0, channel=0, data=[53, 127]),
   midi.NoteOffEvent(tick=0, channel=0, data=[49, 127]),
   midi.NoteOffEvent(tick=0, channel=0, data=[43, 127]),
   midi.NoteOffEvent(tick=128, channel=0, data=[77, 127]),
   midi.NoteOffEvent(tick=0, channel=0, data=[65, 127]),
   midi.NoteOnEvent(tick=128, channel=0, data=[67, 90]),
   midi.NoteOffEvent(tick=128, channel=0, data=[67, 127]),
   midi.NoteOnEvent(tick=64, channel=0, data=[68, 90]),
   midi.NoteOffEvent(tick=128, channel=0, data=[68, 127]),
   midi.NoteOnEvent(tick=64, channel=0, data=[65, 90]),
   midi.NoteOffEvent(tick=128, channel=0, data=[65, 127]),
   midi.NoteOnEvent(tick=64, channel=0, data=[67, 90]),
   midi.NoteOffEvent(tick=64, channel=0, data=[67, 127]),
   midi.NoteOnEvent(tick=32, channel=0, data=[67, 90]),
   midi.NoteOffEvent(tick=64, channel=0, data=[67, 127]),
   midi.NoteOnEvent(tick=32, channel=0, data=[68, 90]),
   midi.NoteOffEvent(tick=64, channel=0, data=[68, 127]),
   midi.NoteOnEvent(tick=32, channel=0, data=[68, 90]),
   midi.NoteOffEvent(tick=64, channel=0, data=[68, 127]),
   midi.NoteOnEvent(tick=32, channel=0, data=[65, 90]),
   midi.NoteOffEvent(tick=64, channel=0, data=[65, 127]),
   midi.NoteOnEvent(tick=32, channel=0, data=[65, 90]),
   midi.NoteOffEvent(tick=64, channel=0, data=[65, 127]),
   midi.NoteOnEvent(tick=32, channel=0, data=[67, 90]),
   midi.NoteOnEvent(tick=0, channel=0, data=[55, 90]),
   midi.NoteOffEvent(tick=64, channel=0, data=[67, 127]),
   midi.NoteOnEvent(tick=32, channel=0, data=[67, 90]),
   midi.NoteOffEvent(tick=32, channel=0, data=[55, 127]),
   midi.NoteOffEvent(tick=32, channel=0, data=[67, 127]),
   midi.NoteOnEvent(tick=32, channel=0, data=[68, 90]),
   midi.NoteOnEvent(tick=0, channel=0, data=[56, 90]),
   midi.NoteOffEvent(tick=64, channel=0, data=[68, 127]),
   midi.NoteOnEvent(tick=32, channel=0, data=[68, 90]),
   midi.NoteOffEvent(tick=32, channel=0, data=[56, 127]),
   midi.NoteOffEvent(tick=32, channel=0, data=[68, 127]),
   midi.NoteOnEvent(tick=32, channel=0, data=[65, 90]),
   midi.NoteOnEvent(tick=0, channel=0, data=[53, 90]),
   midi.NoteOffEvent(tick=64, channel=0, data=[65, 127]),
   midi.NoteOnEvent(tick=32, channel=0, data=[65, 90]),
   midi.NoteOffEvent(tick=32, channel=0, data=[53, 127]),
   midi.NoteOffEvent(tick=32, channel=0, data=[65, 127]),
   midi.NoteOnEvent(tick=32, channel=0, data=[55, 90]),
   midi.NoteOffEvent(tick=64, channel=0, data=[55, 127]),
   midi.NoteOnEvent(tick=32, channel=0, data=[55, 90]),
   midi.NoteOffEvent(tick=64, channel=0, data=[55, 127]),
   midi.NoteOnEvent(tick=32, channel=0, data=[56, 90]),
   midi.NoteOffEvent(tick=64, channel=0, data=[56, 127]),
   midi.NoteOnEvent(tick=32, channel=0, data=[56, 90]),
   midi.NoteOffEvent(tick=64, channel=0, data=[56, 127]),
   midi.NoteOnEvent(tick=32, channel=0, data=[53, 90]),
   midi.NoteOffEvent(tick=64, channel=0, data=[53, 127]),
   midi.NoteOnEvent(tick=32, channel=0, data=[53, 90]),
   midi.NoteOffEvent(tick=64, channel=0, data=[53, 127]),
   midi.NoteOnEvent(tick=32, channel=0, data=[55, 90]),
   midi.NoteOnEvent(tick=0, channel=0, data=[43, 90]),
   midi.NoteOffEvent(tick=64, channel=0, data=[55, 127]),
   midi.NoteOnEvent(tick=32, channel=0, data=[55, 90]),
   midi.NoteOffEvent(tick=32, channel=0, data=[43, 127]),
   midi.NoteOffEvent(tick=32, channel=0, data=[55, 127]),
   midi.NoteOnEvent(tick=32, channel=0, data=[56, 90]),
   midi.NoteOnEvent(tick=0, channel=0, data=[44, 90]),
   midi.NoteOffEvent(tick=64, channel=0, data=[56, 127]),
   midi.NoteOnEvent(tick=32, channel=0, data=[56, 90]),
   midi.NoteOffEvent(tick=32, channel=0, data=[44, 127]),
   midi.NoteOffEvent(tick=32, channel=0, data=[56, 127]),
   midi.NoteOnEvent(tick=32, channel=0, data=[53, 90]),
   midi.NoteOnEvent(tick=0, channel=0, data=[41, 90]),
   midi.NoteOffEvent(tick=64, channel=0, data=[53, 127]),
   midi.NoteOnEvent(tick=32, channel=0, data=[53, 90]),
   midi.NoteOffEvent(tick=32, channel=0, data=[41, 127]),
   midi.NoteOffEvent(tick=32, channel=0, data=[53, 127]),
   midi.NoteOnEvent(tick=32, channel=0, data=[55, 90]),
   midi.NoteOffEvent(tick=128, channel=0, data=[55, 127]),
   midi.NoteOnEvent(tick=64, channel=0, data=[56, 90]),
   midi.NoteOnEvent(tick=0, channel=0, data=[49, 90]),
   midi.NoteOnEvent(tick=0, channel=0, data=[43, 90]),
   midi.NoteOffEvent(tick=256, channel=0, data=[56, 127]),
   midi.NoteOffEvent(tick=0, channel=0, data=[49, 127]),
   midi.NoteOffEvent(tick=0, channel=0, data=[43, 127]),
   midi.NoteOnEvent(tick=128, channel=0, data=[43, 90]),
   midi.NoteOnEvent(tick=0, channel=0, data=[49, 90]),
   midi.NoteOnEvent(tick=0, channel=0, data=[53, 90]),
   midi.NoteOffEvent(tick=256, channel=0, data=[43, 127]),
   midi.NoteOffEvent(tick=0, channel=0, data=[49, 127]),
   midi.NoteOffEvent(tick=0, channel=0, data=[53, 127]),
   midi.NoteOnEvent(tick=128, channel=0, data=[56, 90]),
   midi.NoteOnEvent(tick=0, channel=0, data=[44, 90]),
   midi.NoteOffEvent(tick=64, channel=0, data=[56, 127]),
   midi.NoteOnEvent(tick=32, channel=0, data=[56, 90]),
   midi.NoteOffEvent(tick=32, channel=0, data=[44, 127]),
   midi.NoteOffEvent(tick=32, channel=0, data=[56, 127]),
   midi.NoteOnEvent(tick=32, channel=0, data=[60, 90]),
   midi.NoteOffEvent(tick=64, channel=0, data=[60, 127]),
   midi.NoteOnEvent(tick=32, channel=0, data=[60, 90]),
   midi.NoteOffEvent(tick=64, channel=0, data=[60, 127]),
   midi.NoteOnEvent(tick=32, channel=0, data=[63, 90]),
   midi.NoteOnEvent(tick=0, channel=0, data=[51, 90]),
   midi.NoteOffEvent(tick=64, channel=0, data=[63, 127]),
   midi.NoteOnEvent(tick=32, channel=0, data=[63, 90]),
   midi.NoteOffEvent(tick=32, channel=0, data=[51, 127]),
   midi.NoteOffEvent(tick=32, channel=0, data=[63, 127]),
   midi.NoteOnEvent(tick=32, channel=0, data=[64, 90]),
   midi.NoteOnEvent(tick=0, channel=0, data=[62, 90]),
   midi.NoteOnEvent(tick=0, channel=0, data=[57, 90]),
   midi.NoteOffEvent(tick=64, channel=0, data=[64, 127]),
   midi.NoteOnEvent(tick=32, channel=0, data=[64, 90]),
   midi.NoteOffEvent(tick=64, channel=0, data=[64, 127]),
   midi.NoteOnEvent(tick=32, channel=0, data=[57, 90]),
   midi.NoteOnEvent(tick=0, channel=0, data=[45, 90]),
   midi.NoteOffEvent(tick=64, channel=0, data=[62, 127]),
   midi.NoteOffEvent(tick=0, channel=0, data=[57, 127]),
   midi.NoteOffEvent(tick=192, channel=0, data=[57, 127]),
   midi.NoteOffEvent(tick=0, channel=0, data=[45, 127]),
   midi.NoteOnEvent(tick=128, channel=0, data=[64, 90]),
   midi.NoteOnEvent(tick=0, channel=0, data=[62, 90]),
   midi.NoteOnEvent(tick=0, channel=0, data=[57, 90]),
   midi.NoteOnEvent(tick=0, channel=0, data=[52, 90]),
   midi.NoteOnEvent(tick=192, channel=0, data=[45, 90]),
   midi.NoteOffEvent(tick=64, channel=0, data=[64, 127]),
   midi.NoteOffEvent(tick=0, channel=0, data=[62, 127]),
   midi.NoteOffEvent(tick=0, channel=0, data=[57, 127]),
   midi.NoteOffEvent(tick=0, channel=0, data=[52, 127]),
   midi.NoteOffEvent(tick=192, channel=0, data=[45, 127]),
   midi.NoteOnEvent(tick=320, channel=0, data=[56, 90]),
   midi.NoteOnEvent(tick=0, channel=0, data=[44, 90]),
   midi.NoteOffEvent(tick=64, channel=0, data=[56, 127]),
   midi.NoteOnEvent(tick=32, channel=0, data=[56, 90]),
   midi.NoteOffEvent(tick=32, channel=0, data=[44, 127]),
   midi.NoteOffEvent(tick=32, channel=0, data=[56, 127]),
   midi.NoteOnEvent(tick=32, channel=0, data=[60, 90]),
   midi.NoteOnEvent(tick=0, channel=0, data=[48, 90]),
   midi.NoteOffEvent(tick=64, channel=0, data=[60, 127]),
   midi.NoteOnEvent(tick=32, channel=0, data=[60, 90]),
   midi.NoteOffEvent(tick=32, channel=0, data=[48, 127]),
   midi.NoteOffEvent(tick=32, channel=0, data=[60, 127]),
   midi.NoteOnEvent(tick=32, channel=0, data=[63, 90]),
   midi.NoteOnEvent(tick=0, channel=0, data=[51, 90]),
   midi.NoteOffEvent(tick=64, channel=0, data=[63, 127]),
   midi.NoteOnEvent(tick=32, channel=0, data=[63, 90]),
   midi.NoteOffEvent(tick=32, channel=0, data=[51, 127]),
   midi.NoteOffEvent(tick=32, channel=0, data=[63, 127]),
   midi.NoteOnEvent(tick=32, channel=0, data=[64, 90]),
   midi.NoteOnEvent(tick=0, channel=0, data=[62, 90]),
   midi.NoteOnEvent(tick=0, channel=0, data=[57, 90]),
   midi.NoteOffEvent(tick=64, channel=0, data=[64, 127]),
   midi.NoteOnEvent(tick=32, channel=0, data=[64, 90]),
   midi.NoteOffEvent(tick=64, channel=0, data=[64, 127]),
   midi.NoteOnEvent(tick=32, channel=0, data=[57, 90]),
   midi.NoteOnEvent(tick=0, channel=0, data=[45, 90]),
   midi.NoteOffEvent(tick=64, channel=0, data=[62, 127]),
   midi.NoteOffEvent(tick=0, channel=0, data=[57, 127]),
   midi.NoteOffEvent(tick=192, channel=0, data=[57, 127]),
   midi.NoteOffEvent(tick=0, channel=0, data=[45, 127]),
   midi.NoteOnEvent(tick=128, channel=0, data=[64, 90]),
   midi.NoteOnEvent(tick=0, channel=0, data=[62, 90]),
   midi.NoteOnEvent(tick=0, channel=0, data=[57, 90]),
   midi.NoteOnEvent(tick=0, channel=0, data=[52, 90]),
   midi.NoteOnEvent(tick=192, channel=0, data=[45, 90]),
   midi.NoteOffEvent(tick=64, channel=0, data=[64, 127]),
   midi.NoteOffEvent(tick=0, channel=0, data=[62, 127]),
   midi.NoteOffEvent(tick=0, channel=0, data=[57, 127]),
   midi.NoteOffEvent(tick=0, channel=0, data=[52, 127]),
   midi.NoteOffEvent(tick=192, channel=0, data=[45, 127]),
   midi.NoteOnEvent(tick=320, channel=0, data=[56, 90]),
   midi.NoteOnEvent(tick=0, channel=0, data=[44, 90]),
   midi.NoteOffEvent(tick=64, channel=0, data=[56, 127]),
   midi.NoteOnEvent(tick=32, channel=0, data=[56, 90]),
   midi.NoteOffEvent(tick=32, channel=0, data=[44, 127]),
   midi.NoteOffEvent(tick=32, channel=0, data=[56, 127]),
   midi.NoteOnEvent(tick=32, channel=0, data=[60, 90]),
   midi.NoteOnEvent(tick=0, channel=0, data=[48, 90]),
   midi.NoteOffEvent(tick=64, channel=0, data=[60, 127]),
   midi.NoteOnEvent(tick=32, channel=0, data=[60, 90]),
   midi.NoteOffEvent(tick=32, channel=0, data=[48, 127]),
   midi.NoteOffEvent(tick=32, channel=0, data=[60, 127]),
   midi.NoteOnEvent(tick=32, channel=0, data=[63, 90]),
   midi.NoteOnEvent(tick=0, channel=0, data=[51, 90]),
   midi.NoteOffEvent(tick=64, channel=0, data=[63, 127]),
   midi.NoteOnEvent(tick=32, channel=0, data=[63, 90]),
   midi.NoteOffEvent(tick=32, channel=0, data=[51, 127]),
   midi.NoteOffEvent(tick=32, channel=0, data=[63, 127]),
   midi.NoteOnEvent(tick=32, channel=0, data=[64, 120]),
   midi.NoteOnEvent(tick=0, channel=0, data=[62, 120]),
   midi.NoteOnEvent(tick=0, channel=0, data=[57, 120]),
   midi.NoteOffEvent(tick=64, channel=0, data=[64, 127]),
   midi.NoteOnEvent(tick=32, channel=0, data=[64, 120]),
   midi.NoteOffEvent(tick=32, channel=0, data=[62, 127]),
   midi.NoteOffEvent(tick=0, channel=0, data=[57, 127]),
   midi.NoteOffEvent(tick=32, channel=0, data=[64, 127]),
   midi.NoteOnEvent(tick=32, channel=0, data=[57, 120]),
   midi.NoteOnEvent(tick=0, channel=0, data=[45, 120]),
   midi.NoteOffEvent(tick=128, channel=0, data=[57, 127]),
   midi.NoteOffEvent(tick=0, channel=0, data=[45, 127]),
   midi.NoteOnEvent(tick=256, channel=0, data=[56, 120]),
   midi.NoteOnEvent(tick=0, channel=0, data=[68, 120]),
   midi.NoteOffEvent(tick=64, channel=0, data=[68, 127]),
   midi.NoteOnEvent(tick=32, channel=0, data=[68, 120]),
   midi.NoteOffEvent(tick=32, channel=0, data=[56, 127]),
   midi.NoteOffEvent(tick=32, channel=0, data=[68, 127]),
   midi.NoteOnEvent(tick=32, channel=0, data=[60, 120]),
   midi.NoteOnEvent(tick=0, channel=0, data=[72, 120]),
   midi.NoteOffEvent(tick=64, channel=0, data=[72, 127]),
   midi.NoteOnEvent(tick=32, channel=0, data=[72, 120]),
   midi.NoteOffEvent(tick=32, channel=0, data=[60, 127]),
   midi.NoteOffEvent(tick=32, channel=0, data=[72, 127]),
   midi.NoteOnEvent(tick=32, channel=0, data=[63, 120]),
   midi.NoteOnEvent(tick=0, channel=0, data=[75, 120]),
   midi.NoteOffEvent(tick=64, channel=0, data=[75, 127]),
   midi.NoteOnEvent(tick=32, channel=0, data=[75, 120]),
   midi.NoteOffEvent(tick=32, channel=0, data=[63, 127]),
   midi.NoteOffEvent(tick=32, channel=0, data=[75, 127]),
   midi.NoteOnEvent(tick=32, channel=0, data=[76, 120]),
   midi.NoteOnEvent(tick=0, channel=0, data=[64, 120]),
   midi.NoteOffEvent(tick=64, channel=0, data=[76, 127]),
   midi.NoteOnEvent(tick=32, channel=0, data=[76, 120]),
   midi.NoteOffEvent(tick=32, channel=0, data=[64, 127]),
   midi.NoteOffEvent(tick=32, channel=0, data=[76, 127]),
   midi.NoteOnEvent(tick=32, channel=0, data=[45, 120]),
   midi.NoteOnEvent(tick=0, channel=0, data=[69, 120]),
   midi.NoteOffEvent(tick=128, channel=0, data=[45, 127]),
   midi.NoteOffEvent(tick=0, channel=0, data=[69, 127]),
   midi.NoteOnEvent(tick=64, channel=0, data=[76, 120]),
   midi.NoteOnEvent(tick=0, channel=0, data=[64, 120]),
   midi.NoteOffEvent(tick=64, channel=0, data=[76, 127]),
   midi.NoteOnEvent(tick=32, channel=0, data=[76, 120]),
   midi.NoteOffEvent(tick=32, channel=0, data=[64, 127]),
   midi.NoteOffEvent(tick=32, channel=0, data=[76, 127]),
   midi.NoteOnEvent(tick=32, channel=0, data=[69, 120]),
   midi.NoteOnEvent(tick=0, channel=0, data=[45, 120]),
   midi.NoteOffEvent(tick=128, channel=0, data=[69, 127]),
   midi.NoteOffEvent(tick=0, channel=0, data=[45, 127]),
   midi.NoteOnEvent(tick=64, channel=0, data=[76, 120]),
   midi.NoteOnEvent(tick=0, channel=0, data=[64, 120]),
   midi.NoteOffEvent(tick=64, channel=0, data=[76, 127]),
   midi.NoteOnEvent(tick=32, channel=0, data=[76, 120]),
   midi.NoteOffEvent(tick=32, channel=0, data=[64, 127]),
   midi.NoteOffEvent(tick=32, channel=0, data=[76, 127]),
   midi.NoteOnEvent(tick=32, channel=0, data=[45, 120]),
   midi.NoteOffEvent(tick=128, channel=0, data=[45, 127]),
   midi.NoteOnEvent(tick=64, channel=0, data=[77, 127]),
   midi.NoteOffEvent(tick=128, channel=0, data=[77, 127]),
   midi.NoteOnEvent(tick=64, channel=0, data=[76, 120]),
   midi.NoteOffEvent(tick=128, channel=0, data=[76, 127]),
   midi.NoteOnEvent(tick=64, channel=0, data=[69, 115]),
   midi.NoteOffEvent(tick=128, channel=0, data=[69, 127]),
   midi.NoteOnEvent(tick=64, channel=0, data=[64, 110]),
   midi.NoteOffEvent(tick=128, channel=0, data=[64, 127]),
   midi.NoteOnEvent(tick=64, channel=0, data=[57, 90]),
   midi.NoteOffEvent(tick=64, channel=0, data=[57, 127]),
   midi.NoteOnEvent(tick=32, channel=0, data=[52, 85]),
   midi.NoteOffEvent(tick=64, channel=0, data=[52, 127]),
   midi.NoteOnEvent(tick=32, channel=0, data=[45, 80]),
   midi.NoteOffEvent(tick=64, channel=0, data=[45, 127]),
   midi.NoteOnEvent(tick=32, channel=0, data=[40, 75]),
   midi.NoteOffEvent(tick=64, channel=0, data=[40, 127]),
   midi.NoteOnEvent(tick=32, channel=0, data=[45, 70]),
   midi.NoteOffEvent(tick=192, channel=0, data=[45, 127]),
   midi.NoteOnEvent(tick=192, channel=0, data=[64, 127]),
   midi.NoteOnEvent(tick=0, channel=0, data=[69, 127]),
   midi.NoteOnEvent(tick=0, channel=0, data=[74, 127]),
   midi.NoteOnEvent(tick=0, channel=0, data=[81, 127]),
   midi.NoteOffEvent(tick=192, channel=0, data=[64, 127]),
   midi.NoteOffEvent(tick=0, channel=0, data=[69, 127]),
   midi.NoteOffEvent(tick=0, channel=0, data=[74, 127]),
   midi.NoteOffEvent(tick=0, channel=0, data=[81, 127]),
   midi.EndOfTrackEvent(tick=0, data=[])]),
 midi.Track(\
  [midi.ControlChangeEvent(tick=0, channel=0, data=[0, 0]),
   midi.ProgramChangeEvent(tick=0, channel=0, data=[24]),
   midi.ControlChangeEvent(tick=0, channel=0, data=[7, 127]),
   midi.ControlChangeEvent(tick=0, channel=0, data=[10, 63]),
   midi.ControlChangeEvent(tick=0, channel=0, data=[91, 110]),
   midi.ControlChangeEvent(tick=0, channel=0, data=[93, 0]),
   midi.KeySignatureEvent(tick=0, data=[0, 0]),
   midi.NoteOnEvent(tick=61056, channel=0, data=[53, 90]),
   midi.NoteOffEvent(tick=768, channel=0, data=[53, 100]),
   midi.EndOfTrackEvent(tick=0, data=[])])])
